<?xml version="1.0" encoding="utf-8"?>
<!-- Generator: Adobe Illustrator 22.0.0, SVG Export Plug-In . SVG Version: 6.00 Build 0)  -->
<svg version="1.1"
	 id="svg2425" inkscape:version="0.92.3 (2405546, 2018-03-11)" sodipodi:docname="bandera_de_los_pueblos_guatemala_circle.svg" xmlns:cc="http://creativecommons.org/ns#" xmlns:dc="http://purl.org/dc/elements/1.1/" xmlns:inkscape="http://www.inkscape.org/namespaces/inkscape" xmlns:rdf="http://www.w3.org/1999/02/22-rdf-syntax-ns#" xmlns:sodipodi="http://sodipodi.sourceforge.net/DTD/sodipodi-0.dtd" xmlns:svg="http://www.w3.org/2000/svg"
	 xmlns="http://www.w3.org/2000/svg" xmlns:xlink="http://www.w3.org/1999/xlink" x="0px" y="0px" viewBox="0 0 600 375"
	 style="enable-background:new 0 0 600 375;" xml:space="preserve">
<style type="text/css">
	.st0{fill:#FFFF00;}
	.st1{fill:#FFFFFF;}
	.st2{fill:#E72000;}
	.st3{fill:#2EC8FF;}
	.st4{fill:none;stroke:#000000;stroke-width:0.9;stroke-linejoin:bevel;}
</style>
<sodipodi:namedview  bordercolor="#666666" borderopacity="1.0" fit-margin-bottom="0" fit-margin-left="0" fit-margin-right="0" fit-margin-top="0" id="base" inkscape:current-layer="layer1" inkscape:cx="214.39298" inkscape:cy="350.5761" inkscape:document-units="mm" inkscape:pageopacity="0.0" inkscape:pageshadow="2" inkscape:window-height="737" inkscape:window-maximized="1" inkscape:window-width="1366" inkscape:window-x="0" inkscape:window-y="0" inkscape:zoom="0.49497475" pagecolor="#ffffff" showgrid="false" units="mm">
	</sodipodi:namedview>
<g id="layer1" transform="translate(6.8035727,-29.770849)" inkscape:groupmode="layer" inkscape:label="Layer 1">
	<g id="g2295" transform="matrix(2.6458334,0,0,2.6458334,61.542809,-726.70409)">
		<g id="g846" transform="matrix(0.37795276,0,0,0.37795275,-12.533377,156.04183)">
			<path id="path836" inkscape:connector-curvature="0" d="M-35.2,718.6l300-187.5l-300-187.5L-35.2,718.6"/>
			<path id="path834" inkscape:connector-curvature="0" class="st0" d="M-35.2,718.6l300-187.5l300,187.5H-35.2"/>
			<path id="path832" inkscape:connector-curvature="0" class="st1" d="M-35.2,343.6h600l-300,187.5L-35.2,343.6"/>
			<path id="path838" inkscape:connector-curvature="0" class="st2" d="M564.8,343.6l-300,187.5l300,187.5V343.6"/>
		</g>
		<g id="g2266">
			<ellipse id="path848-3-4" class="st3" cx="87.7" cy="356.8" rx="36.1" ry="35.4"/>
			<ellipse id="path848-3" class="st4" cx="87.7" cy="356.8" rx="36.1" ry="35.4"/>
		</g>
	</g>
</g>
<g>
	<path d="M356.5,223.6c1.1,1,2.1,2,3.2,2.9c1.3,1.1,1.6,2.5,1.4,4c-0.2,1.6-0.7,3.3-1,4.9v0.1c-1.3,2.7-2.5,5.3-3.9,8
		c-0.3,0.6-1,1.1-1.6,1.5c-1.5,1-3.1,1.8-4.7,2.7c-1.7,0.9-3.7,1-5.5,1.3c-5.4,0.8-10.9,0.4-16.3,0.3c-3.5-0.1-7-0.6-10.3-1.6
		c-3.2-0.9-6.4-1.6-9.3-3.1c-0.5-0.3-0.8-0.2-1.3,0.2c-1.4,1.4-3.4,1.9-5.3,2.4c-2.3,0.6-4.6,1.1-7,1.6c-0.7,0.2-1.4,0.2-2.1,0.3
		c-2.9,0.1-5.9,0.1-8.7-0.8c-1.2-0.4-2.3-1-3.5-1.5c-0.4-0.2-0.6-0.2-0.9,0.1c-1.7,1.6-3.7,2.6-5.9,3.2c-2.2,0.6-4.4,0.9-6.6,1.2
		c-4.6,0.6-9.2,0.3-13.8,0.2c-2.9-0.1-5.8-0.3-8.5-1.5c-1.6-0.7-3.2-1.5-4.4-2.9c-0.5-0.5-1.1-1-1.6-1.5c-1.3-1.4-2.6-2.7-3.8-4.1
		c-2.2-2.7-3.3-5.7-3.4-9.1c-0.1-1.4-0.3-2.8-0.4-4.2c-0.1-1.4-0.2-2.7-0.1-4.1c0.2-2.1,0.6-4.2,1-6.2c0.5-2.2,1.3-4.2,2.6-6
		c-1.8-1.9-2.3-4.1-1.9-6.5c0.3-2.1,0.6-4.2,1-6.3c0.3-2,1-3.9,1.9-5.8c1.1-2.3,2.3-4.5,4.1-6.4c1.3-1.3,2.4-2.6,3.6-4.1
		c-0.8-1.1-0.5-2.3,0.5-3.4c-2-0.1-3.1-1.3-3.8-2.8c-0.8-1.6-0.2-3.1,0.8-4.4c-1.7-0.3-2.5-1.3-2.8-2.7c-0.3-2,0.5-3.4,2.5-4.3
		c-1.4-0.7-2.2-1.6-2.3-3c-0.2-1.5,0.7-2.4,2-3.1c-1.5-0.6-2.4-1.6-2.8-3c-0.3-1.1,0.2-2.1,1.1-2.8c0.8-0.6,1.6-1,2.6-1.2
		c-0.7-0.4-1.3-0.8-1.8-1.2c-1.5-1.2-1.6-2.9-0.2-4.2c0.5-0.5,0.9-1.1,1.3-1.6c-0.8-0.9-1.4-1.9-1.6-3.2c-0.1-0.7,0-1.4,0.6-1.9
		c0.5-0.5,0.9-1,1.4-1.6c-1.1-1.6-1.2-3.8,0-5c1-0.9,2.4-1.8,3.5-1c-0.6-2-0.3-3.7,1.7-4.9c2.2-1.2,4.1-0.5,5.8,0.9
		c0.3-0.8,0.5-1.7,0.8-2.4c1.1-2.5,4-2.1,5.5-0.7c0.7-1.4,1.8-2.1,3.4-2.2c1.5,0,2.9,0.3,3.7,1.7c1.5-2.6,4.6-2.8,7.3-0.5
		c0.8-0.7,1.8-1.4,3-1.2c1.2,0.1,2.1,0.8,2.8,1.6c2.3-0.9,3.5-0.5,4,1.3c1.5-1,3.3-1.1,5-1.3c2.4-0.3,4.9-0.5,7.3-0.7
		c2.1-0.1,4.2-0.2,6.2-0.2c2.8,0,5.5,0.1,8.3,0.3c2.4,0.1,4.9,0.4,7.3,0.7c3,0.5,4.5,2.6,5.4,5c0.1,0.3,0.2,0.7,0.4,1.3
		c0.3-0.6,0.4-1,0.6-1.4c1.9-3.4,4.6-6,8.4-7.5c1.7-0.7,3.4-1,5.1-0.9c3.1,0.1,6.3,0.2,9.4,0.6c2.2,0.3,4.4,1.2,6.6,1.8
		c1.1,0.3,2.1,0.8,3.2,1.1c0.7,0.2,1.2,0.6,1.6,1.2c1,1.6,2.1,3.1,3,4.7c1.1,1.9,1.6,4,1.8,6.1c0.1,1,0.3,2,0.2,3
		c-0.2,1.9-0.4,3.9-0.7,5.8c-0.1,1-0.4,1.9-0.6,2.9c-0.1,0.5-0.3,0.9-0.5,1.4c1.3,0.8,1.8,2.1,1.8,3.6c0,1.4-0.6,2.7-1.1,4
		c-0.1,0.2-0.2,0.4-0.3,0.5c0.5,0,1,0,1.5-0.1c1.5-0.3,2.7,1.6,2.2,2.8c-0.7,1.4-1.4,2.9-2.1,4.3c0.3,0,0.7,0,1.1,0.1
		c0.7,0.1,1.1,0.5,1.1,1.2c0,0.5,0,1.1-0.2,1.5c-0.7,1.6-1.3,3.2-2.6,4.5c-0.1,0.1-0.1,0.1-0.1,0.1c0.6,0.5,1.2,0.9,1.6,1.4
		c0.6,0.9,0.4,1.9,0.3,2.9c-0.3,1.8-1.3,3.4-2.3,4.9c-1.2,1.8-2.7,3.3-4.7,4.3c-0.2,0.1-0.4,0.3-0.6,0.5c0.3,0.2,0.5,0.4,0.7,0.6
		c1,0.9,2.2,1.8,3.1,2.9c1.1,1.4,2,3,2.8,4.5c1,1.8,1.4,3.8,1.3,5.8c-0.2,2.9-0.6,5.8-0.8,8.7c-0.2,3-1.3,5.8-2.1,8.6
		c-0.6,2.1-1.9,3.8-3.5,5.3C357,223,356.7,223.3,356.5,223.6z M289.7,230.4c0.5-0.1,0.8,0.2,0.8,0.6c0,0.7,0,1.4,0,2.1
		c-0.2,2.5-2.1,3.9-4.8,3.6c-0.8-0.1-1.6-0.6-1.9-1.4c-0.3-0.9-0.5-1.8-0.7-2.7c-0.8,0-1.8-0.1-2.7-0.1c-0.1,0-0.3,0.2-0.4,0.3
		c-0.9,1.4-1.2,3-1.2,4.7c0,1.9,0.3,3.8,0.8,5.6c0.3,1.1,1.1,1.9,2.1,2.5c2.3,1.4,5,1.6,7.5,2c2,0.3,4.1,0,6.1-0.6
		c0.2-0.1,0.3-0.2,0.4-0.3c1-1.7,1.9-3.3,2.9-5c1-1.8,2.1-3.5,3.1-5.3c0.9-1.6,0.8-3.4,0.3-5.1c-0.1-0.4-0.5-0.9-0.8-1.2
		c-1.1-1.2-2.6-1.4-4.2-1.1c-1.8,0.2-3.6,0.5-5.4,0.9C290.9,229.9,290.3,230.2,289.7,230.4c-0.2,0-0.5,0.1-0.8,0.1
		c0,0.3,0,0.6,0,0.8c-0.1,0.9-0.3,1.8-1.1,2.5c-0.7,0.6-1.3,0.7-2,0c-0.4-0.4-0.7-1-1-1.5c-0.1,0-0.4,0.1-0.7,0.1c0,0.5-0.1,1,0,1.5
		c0.2,0.9,0.7,1.6,1.6,1.9c0.9,0.4,1.8,0.2,2.5-0.4c1.5-1.2,1.8-2.7,1.3-4.4C289.5,230.9,289.6,230.7,289.7,230.4z M276.2,210.9
		c-1,0.6-2,1.2-3,1.8c-1.6,0.8-3.2,1.7-5,1.8c-3,0-5.9,0.3-8.9-0.2c-1.9-0.3-3.9-0.7-5.5-1.9c-2-1.5-3.7-3.2-5-5.2
		c-0.8-1.2-1.5-2.6-1.7-4c-0.5-3.1-0.3-6.3,0.4-9.4c0.5-2.4,1.7-4.5,2.8-6.6c1-1.9,2.4-3.5,3.8-5.1c1.9-2.1,4.5-3,7.2-3.8
		c2.1-0.6,4.3-1.3,6.6-1.1c0.4,0,0.9,0.1,0.8,0.6c0,0.2-0.5,0.5-0.8,0.6c-0.7,0.2-1.4,0.2-2.1,0.3c-1.2,0.2-2.3,0.4-3.5,0.7
		c-2.9,0.7-5.6,1.5-7.5,3.8c-1.1,1.3-2.2,2.5-3.1,4c-1,1.8-1.9,3.6-2.6,5.6c-1,2.8-1.1,5.7-1,8.6c0,0.8,0.2,1.6,0.4,2.3
		c0.7,2.7,2.7,4.6,4.7,6.5c1.2,1.1,2.6,2.1,4.3,2.4c1,0.2,1.9,0.5,2.9,0.5c2.3,0.1,4.6,0.2,6.9,0.2c0.7,0,1.4-0.2,2-0.4
		c2.5-0.7,4.5-2.2,6.6-3.6c0.2-0.1,0.3-0.3,0.3-0.5c0.3-1.1,0.5-2.3,0.7-3.5c-1.3,1.3-2.6,2.4-4.2,3.3c-2.4,1.2-4.9,2.2-7.6,2.7
		c-1.6,0.3-3.1,0.1-4.5-0.6c-2.9-1.4-5.3-3.4-7.4-5.7c-0.5-0.6-1.1-1.2-1.4-2c-0.7-1.7-1.1-3.4-0.9-5.2c0.3-3.1,1.3-6,3.4-8.4
		c1.5-1.7,3.3-3.3,5-4.9c1.5-1.4,3.2-2.6,5.2-3.5s4-1.4,6.2-1c0.9,0.2,1.9,0.2,3,0.4c-0.4-2.2,0.6-4,1.5-5.9c-0.5,0.1-1,0.2-1.5,0.2
		c-1.1,0-2.2,0-3.2,0c-2.8,0.2-5.6,0.5-8.4,0.8c-0.8,0.1-1.6,0.2-2.4,0.4c-2.4,0.6-4.6,1.6-6.7,2.9c-2.2,1.3-4.5,2.5-6.5,4
		c-2.2,1.7-4.2,3.6-5.9,5.8c-0.7,0.9-1.4,1.7-1.9,2.7c-1.4,2.4-2.6,5-3.1,7.8c-0.4,1.9-0.6,3.9-1,5.8c-0.3,1.3-0.2,2.6,0.2,4
		c0.3,1,0.8,1.7,1.8,2c1.2,0.4,2.5,0.7,3.7,1.1c0.3,0.1,0.7,0.4,0.8,0.7c0,0.3-0.3,0.7-0.6,0.8c-0.5,0.1-1,0.1-1.5,0
		c-1-0.2-1.9-0.5-2.9-0.8c-0.6,1.5-1.3,2.9-1.8,4.4c-1.3,3.9-1.6,7.8-1.2,11.9c0.1,1.1,0.3,2.2,0.3,3.3c0.1,3.1,1.2,5.9,3.1,8.4
		c1.6,2.1,3.6,4,5.6,5.8c1.1,1,2.4,1.9,3.9,2.4c2.6,0.9,5.4,1.2,8.2,1.2c4.4,0,8.9,0.4,13.3-0.2c2.1-0.3,4.1-0.7,6.1-1.2
		c1-0.3,2-0.9,3-1.4c0.8-0.5,1.6-1.1,2.3-1.6c-0.3-0.8-0.7-1.4-0.9-2c-0.3-1.5-0.5-3-0.8-4.5c-0.3-1.8,0-3.6,0.6-5.3
		c0.2-0.5,0.5-1,0.7-1.6c0.1-0.2,0.1-0.5,0-0.6c-1.2-1.2-1.4-2.7-1.2-4.3c0.2-1.9,1-3.5,2.5-4.8c0.9-0.7,1.9-1.3,2.9-2
		C279.3,217.9,276.6,215.1,276.2,210.9z M327.7,203.2c0,0.2,0,0.4,0,0.6c-0.4,2-0.8,4.1-1.2,6.1c-0.1,0.4-0.2,0.9-0.2,1.3
		c0.1,1.5,0.2,3.1,0.2,4.6c0.1,1.7,0.4,3.5,1.7,4.8c2.2,2.2,4.8,3.7,8.2,3.8c1.4,0.1,2.9,0,4.3,0.2c2.2,0.2,4.3,0.3,6.5,0.1
		c2.3-0.2,4.5-0.6,6.5-1.6c2.8-1.4,4.5-3.6,5.4-6.3c0.9-2.8,1.7-5.6,2.1-8.5c0.4-3.1,0.5-6.3,0.6-9.4c0-0.7-0.1-1.6-0.4-2.2
		c-0.7-1.5-1.5-3-2.4-4.5c-1-1.7-2.4-3.1-4.2-4.1c-1.3-0.7-2.6-1.5-3.9-2.2s-2.6-1.3-4.2-1.1c-0.4,0-0.9,0.1-1.3,0.1
		c-1.4,0.1-2.8,0.2-4.1,0.9c-0.9,0.5-1.8,0.9-2.8,1.3c-2.4,0.8-4.4,2.3-6.5,3.6c-0.6,0.3-1.2,0.7-1.6,1.3c-1,1.2-1.8,2.5-2.7,3.8
		c-0.7,1.2-1.5,2.3-1.6,3.7c-0.1,1.1,0.4,2.3,2.1,1.9c1.3-0.3,1.9-1.2,2.3-2.2c0.2-0.5,0.4-0.9,0.7-1.4c0.8-1.1,1.6-2.3,2.4-3.4
		c1.6-2.1,3.8-3.6,6.2-4.7c3-1.3,6-1.3,8.8,0.8c0.6,0.4,1,0.9,1.6,1.4c2.1,1.6,3.4,3.8,4.2,6.1c0.8,2.3,0.9,4.8,1,7.3
		c0.1,1.9,0.1,3.8,0.3,5.7c0.3,3,0,5.9-1.4,8.6c-0.3,0.6-0.9,0.7-1.4,0.2c-0.1-0.1-0.4-0.3-0.5-0.2c-0.8,0.2-1.4,0-1.9-0.7
		s-0.6-1.4-0.3-2.1c-1,0.3-1.6,0.2-2.1-0.5c-0.6-0.7-0.5-1.9,0.2-2.7c-0.8-0.4-1.4-0.9-1.4-1.9s0.7-1.4,1.5-1.8
		c-1-1.2-0.9-1.7-0.2-2.5c0.7-0.8,1.6-0.9,2.7-0.8c0.1-0.8,0.5-1.3,1.2-1.3c0.6-0.1,1.2,0.2,1.9,0.3c-0.2-1.6-0.4-3.4-0.6-5.1
		c-0.3-2.2-1.4-4.2-2.8-5.9c-1-1.2-2.4-2.1-3.6-3.1c-0.5-0.4-1.1-0.7-1.7-0.8c-1.1-0.4-2.3-0.1-3.4,0.2c-0.4,0.1-0.6,0.3-0.3,0.7
		c0.6,0.9,0.7,1.9-0.1,2.8c1.1,1.4,0.6,2.8-1,3.4c0.1,1.4-0.1,2.7-0.9,3.9c-0.2,0.3-0.2,0.8-0.1,1.1c0.2,0.8,0.5,1.5,0.8,2.3
		c0.5,1.4,0.3,2.7-0.8,3.9c-0.3,0.3-0.6,0.6-1.1,0.3c-0.4-0.3-0.1-0.7,0.2-1c0.3-0.3,0.5-0.7,0.7-1.1c0.4-1-0.1-1.9-0.5-2.8
		c-0.6-1.4-0.8-2.8,0.3-4.1c0.1-0.1,0.1-0.3,0.3-0.6c-1.2,0.7-2.2,0.5-3.2,0.1c-0.1-0.1-0.3-0.1-0.4-0.1c-1.1,0.4-2.1,0.1-3-0.3
		c-0.7,0.9-1.2,1.9-2,2.6C329.8,202.4,328.7,202.7,327.7,203.2z M319.6,146.6c-0.1-0.9-0.2-1.7-0.2-2.4c0-1,0.1-2.1,0.1-3.1
		c0-2.1,0.3-4.2,1.1-6.2c0.1-0.3,0.2-0.7,0.1-1c-0.2-1.3-0.3-2.6-0.7-3.9c-0.5-1.8-1.7-3.2-3.7-3.5c-2.6-0.4-5.2-0.7-7.9-0.9
		c-2.8-0.2-5.7-0.2-8.5-0.3c-1.1,0-2.3,0.1-3.4,0.1c-0.7,0-1.4,0.1-2.2,0.2c-1.2,0.2-2.5,0.4-3.7,0.6c-1.9,0.2-3.7,0.3-5.6,0.6
		c-1.2,0.2-2.4,0.5-3,1.5c-0.8,1.1-1.4,2.3-1.9,3.6c-1,2.8-0.8,5.8-1,8.8c-0.1,1.2,0.1,2.4,0.1,3.5c0,1.5,0.2,3,1,4.4
		c0.3,0.5,0.5,1,0.7,1.5c0.6,1.8,1.7,3.3,3.1,4.5c0.5,0.5,1.2,0.9,1.7,1.3c1,0.7,2,1.4,3.1,2.2c0.9-1.3,1.7-2.6,2.5-3.8
		c0.7-1,1.4-2,2-3c0.2-0.4,0.5-0.8,0.6-1.2c0.2-0.7,0.5-1.1,1-1c0.6,0.1,0.9,0.6,0.7,1.3c-0.2,0.9-0.5,1.7-0.7,2.6
		c-0.2,1.1-0.4,2.2-0.6,3.2c0.1,0,0.1,0.1,0.2,0.1c1.1-0.8,2.2-1.7,3.3-2.4c2.2-1.4,4.3-2.8,6.6-4c3.7-1.8,7.7-2.7,11.9-3.1
		C317.6,146.8,318.5,146.7,319.6,146.6z M282.1,199.8c-0.1,0.2-0.3,0.4-0.4,0.7c-0.9,1.6-2,3.2-2.7,4.9c-0.6,1.4-0.8,3-1,4.5
		c-0.3,2.9,1.4,5.1,3.3,7.1c0.9,0.9,1.9,1.7,2.9,2.5c1.5,1.2,3.3,1.7,5.2,2.1c2.5,0.5,5,1.2,7.6,1.7c1.8,0.4,3.6,0.5,5.4,0.7
		c0.8,0.1,1.6,0.1,2.4,0.1c1.5,0,3.1,0,4.6,0c1.6,0,3.3,0,4.9-0.2c1.4-0.2,2.7-0.8,4.1-1c1.7-0.3,3.3-0.9,4.8-1.7
		c0.9-0.5,1.7-1.2,2.7-1.2c-1.9-5.9-1.2-11.6,0.4-17.3c-0.6-0.6-1.1-1.2-1.7-1.8c-0.8,0.5-1.6,1.1-2.5,1.6c0,0-0.1,0.1-0.1,0.2
		c-0.9,2.7-3.3,3.8-5.9,4.6c-1.1,0.3-2.3,0.4-3.4,0.4c-2.1,0-4.2-0.2-6.2-0.2c-2.3,0-4.6-0.1-6.7-0.8c-1.6-0.5-3.2-0.9-4.7-1.5
		c-0.8-0.3-1.4-0.5-2.1,0c-0.1,0-0.2,0.1-0.3,0.1c-1.3,0.4-2.5,1-3.9,0.9c-0.7,0-1.1-0.5-0.9-1c0.1-0.3,0.3-0.6,0.5-0.7
		c1.1-0.9,1.7-2.1,2.2-3.4C287.7,200.3,285,199.6,282.1,199.8z M329,165.9c1.4-2.5,2.6-5,5.3-6.7c-0.4-0.3-0.7-0.5-1-0.7
		c-1.8-1.6-3.9-2.6-6.3-3.1c-1.8-0.4-3.7-0.6-5.6-0.8c-1.8-0.1-3.7,0-5.5,0.1c-1.3,0.1-2.5,0.3-3.8,0.4c-1.7,0.1-3.4,0.4-5,1.3
		c-1.5,0.8-2.9,1.7-4.4,2.5c-2.9,1.6-5.5,3.5-7.6,6.1c-0.1,0.1-0.2,0.3-0.2,0.5c0.1,1.3,0.3,2.6,0.5,3.8c0.3,1.6,0.6,3.1,0.8,4.7
		c0.1,0.4-0.1,0.9-0.4,1.3c-0.3,0.4-0.8,0.6-1.3,1c0.5,0.6,0.9,1.2,1.2,1.7c0.5-0.1,0.8-0.2,1.1-0.2c1.1-0.2,2.2-0.4,3.3-0.4
		c1.6-0.1,3.3-0.2,4.9,0c0.8,0.1,1.8,0.5,2.2,1c0.6,0.7,1.1,0.5,1.7,0.3c1.5-0.5,3.1-0.6,4.7-0.5c1.2,0.1,2.4,0.5,3.6,0.5
		c2.8,0.2,5.4,1,7.4,2.8c1.3,1.2,2.5,2.5,3.6,3.9c1,1.2,1.8,2.6,2.6,3.9c1-0.6,2-1.2,3.1-1.9c-1-0.7-1.9-1.3-2.8-1.9
		c-0.3-0.2-0.6-0.5-0.9-0.7c-1.9-2-2.6-4.5-2.7-7c-0.1-2.4,0.2-4.8,0.3-7.1c-0.1,0.2-0.3,0.6-0.6,0.9c-0.7,0.9-1.4,1.7-2.2,2.6
		c-0.1,0.1-0.4,0.1-0.7,0.2c-0.1-0.3-0.3-0.6-0.2-0.9c0.1-0.3,0.4-0.6,0.7-0.9c1.7-1.8,2.9-3.9,3.1-6.4c0.3-2.3-0.3-4.1-2.6-5.4
		c-2-1.1-4.2-1.6-6.5-1.7c-2.7,0-5.4,0.5-8,1.4c-1.3,0.5-2.5,1-3.6,2c-0.8,0.7-1.8,1.4-2.7,2c-0.4,0.3-0.8,0.7-1.2,0.2
		c-0.4-0.5,0.1-0.8,0.4-1.1c0.5-0.4,1.1-0.8,1.6-1.2c1.1-0.7,2.2-1.6,3.5-2.2c4-1.7,8.2-2.2,12.5-1.8c2.2,0.2,4.2,1,6,2.3
		c1.2,0.8,1.8,2,1.8,3.3C329,164.7,329,165.3,329,165.9z M362.8,167c-0.1-0.1-0.1-0.1-0.2-0.2c-0.7,0.2-1.5,0.3-2.2,0.6
		c-1.1,0.4-2.2,1-3.3,1.4c-0.5,0.2-1,0.3-1.4-0.2c-0.3-0.4-0.2-0.9,0.3-1.1c1.3-0.5,2.1-1.6,3.2-2.3c1.7-1,2.5-2.6,3.2-4.2
		c0.4-1.2,0.3-1.3-1-1.3c-0.2,0-0.5,0-0.7,0.1c-2,0.4-3.9,1.3-5.5,2.5c-0.3,0.3-0.7,0.4-1,0.2c-0.4-0.3-0.5-0.8-0.2-1.2
		s0.7-0.7,1.1-0.9c1-0.5,2-1,3-1.4c0.2-0.1,0.4-0.2,0.4-0.4c0.4-0.8,0.8-1.7,1.2-2.5c0.5-1.1,0.7-2.3,0.4-3.5
		c-0.3-0.9-1.2-1.5-2.1-1.2c-1.5,0.4-2.9,0.9-4.3,1.5c-1.1,0.5-2,1.3-3,1.9c-1.4,0.9-2.8,1.6-4.6,1.4c-0.6-0.1-1.2,0-1.8,0.2
		c-2.6,0.6-5.1,1.4-7.3,2.8c-1.4,0.9-2.8,1.9-3.8,3c-1.5,1.7-2.5,3.7-3.1,5.8s-0.9,4.2-1.1,6.3c-0.2,2.9-0.1,5.7,1.4,8.4
		c0.3,0.5,0.7,1.1,1.2,1.4c0.9,0.7,1.9,1.2,2.9,1.9c0.6,0.4,1.2,0.3,1.9,0c2.7-1,5.1-2.5,8-2.7c0.2-0.6,0.5-1.2,0.6-1.7
		c0.3-1,0.6-2.1,0.8-3.1c0.1-0.6-0.3-0.8-0.9-0.6c-0.6,0.3-1.2,0.8-1.8,1.2c-0.3,0.2-0.7,0.5-1,0.1c-0.1-0.2,0-0.7,0.1-0.9
		c0.8-0.8,1.7-1.3,2.8-1.5c1-0.1,1.8,0.5,1.8,1.4c0,0.6-0.1,1.1-0.2,1.7c-0.3,1.1-0.7,2.2-1.1,3.3c1,0,2,0,2.9,0
		c0.1-0.3,0.1-0.7,0.3-1c0.7-1.5,1.2-3.1,1.3-4.8c0.1-1.2,0.1-2.4-0.6-3.5c-0.8-1.3-2.1-2.3-3.7-2.8c-1.1-0.3-2.3-0.4-3.3,0.3
		c-1.9,1.4-3.2,3.2-3.8,5.4c-0.1,0.2-0.3,0.4-0.5,0.6c-0.2-0.2-0.5-0.4-0.5-0.6c0-0.4,0.1-0.8,0.3-1.2c0.7-1.7,1.9-3,3.2-4.4
		c0.9-1,2.1-1.4,3.5-1.4c2.6,0,5.2,2.2,6.2,4.1c0.1,0.2,0.2,0.4,0.2,0.6c0,1.3-0.1,2.6-0.1,3.9c0,0.2,0,0.3,0,0.5
		c0.3-0.2,0.5-0.4,0.8-0.6c1.9-1.4,4.1-2.4,5.7-4.2c1-1.1,2.3-2.1,3.2-3.3C361.6,169.6,362.1,168.2,362.8,167z M321.3,146.4
		c1.5,0.1,2.9,0.1,4.3,0.4c3.4,0.8,6.8,1.6,9.8,3.6c1.6,1.1,3.4,2,5.2,3c0.8,0.4,1.5,0.9,1.7,1.8c1.5-0.2,3-0.5,4.5-0.7
		c0.5-0.1,1,0,1.4-0.2c1-0.6,2-1.3,3-1.9c2.4-1.6,5-2.7,7.8-3c0.2-0.7,0.3-1.4,0.5-2.1c0.6-2.3,1.3-4.5,1.2-6.9
		c-0.1-1.8-0.3-3.6-0.7-5.3c-0.6-3-2.1-5.7-4.1-8.1c-0.2-0.2-0.4-0.4-0.6-0.5c-1.1-0.5-2.2-0.9-3.3-1.3c-3.8-1.5-7.8-2.1-11.9-2.1
		c-0.6,0-1.1,0-1.7-0.1c-2-0.2-4-0.1-5.9,0.5c-2.8,0.9-4.9,2.7-6.6,4.9c-1.1,1.5-1.8,3.2-2.6,4.9c-1,1.9-1.8,4-1.8,6.1
		C321.2,141.7,321.3,144.1,321.3,146.4z M292.9,155.3c-0.3,0.5-0.6,1.1-1.1,1.8c-1.2,1.6-2.5,3.3-3.7,4.9c-0.5,0.7-1.1,1.4-1.8,2
		c-1.7,1.6-3.5,3.2-5.2,4.9c-0.5,0.5-1.1,1-1.5,1.5c-1.4,1.8-2.4,3.8-3.2,5.9c-0.3,0.6-0.7,1.2-0.8,1.8c-0.3,1.8-0.5,3.8,0.4,5.5
		c1.2,2.2,2.5,4.3,3.9,6.5c0.3,0.5,0.7,1,1.2,1.3c2.3,1.4,4.6,2.8,7.1,3.9c2.2,1,4.7,1.5,7.1,2.3c1.5,0.5,2.8,0.1,3.8-0.8
		c1.1-1,2.3-2,3.2-3.1c1.4-1.7,2.1-3.7,2.4-5.8c0.3-1.7-0.1-3-1.4-4.1c-1.2-1-2.6-1.9-4.4-2.2c-1.4-0.2-2.4,0.1-3.4,0.9
		c-0.6,0.5-1.1,1-1.7,1.6c-0.4,0.3-0.8,0.5-1.2,0.2c-0.5-0.3-0.5-0.8-0.2-1.2c0.4-0.5,0.9-1,1.4-1.5s1.1-0.8,1.8-1.3
		c-1.3-0.9-2-2.1-2.6-3.4c-0.1-0.2-0.3-0.4-0.5-0.5c-0.4-0.3-1-0.4-1.4-0.7s-0.6-0.3-1.1-0.2c-0.8,0.2-1.6,0.3-2.5,0.4
		c-0.9,0-1.5-0.5-1.8-1.2s-0.5-1.5-0.1-2.2c0.5-1,1.2-1.9,1.9-2.8c0.8-1.1,1.7-2.1,2.1-3.4c0.1-0.2,0.2-0.4,0.3-0.7
		c0.4,1.2,0.4,2.2-0.4,3.2c-0.9,1.1-1.7,2.2-2.5,3.2c-0.7,0.9-0.6,1.8,0.2,2.6c0.4,0.4,1.3,0.3,2.1-0.1c0.9-0.5,1.7-0.4,2.4,0.3
		c0.7,0.7,0.9,0.7,1.7,0.2c0.3-0.2,0.7-0.5,0.9-0.6c-0.3-3.3-0.7-6.4-0.9-9.6C293.2,161.5,293.1,158.3,292.9,155.3z M255.4,140.3
		c-1.1-0.6-2-1.3-2.4-2.5c-0.2-0.8-0.1-1,0.7-1c0.2,0,0.3,0,0.5,0c1.2,0.3,2.2-0.2,3.3-0.6c0.2-0.1,0.4-0.3,0.6-0.5
		c0.4-0.6,0.6-1.2,1.1-1.7c0.4-0.5,0.9-1.1,1.5-1.4c1.2-0.6,2.4-0.4,3.5,0.4c1.1-1.2,2.5-1.3,3.9-0.9c0.9,0.2,1.5,0.7,1.6,1.6
		c0.1,0.7,0.2,1.4,0.3,2.1c2.5,0,5,0,7.6,0c0.3-1.7,0.6-3.4,1-5.1c-1,0-1.4-0.7-1.6-1.5c-2,0.9-3,0.6-4.6-1.1
		c-0.1,0.3-0.2,0.6-0.4,0.8c-0.8,1.2-2.2,2-3.8,0.9c-0.9-0.6-1.8-1.3-2.8-1.9c-0.6,1.1-1.7,2-3.2,2.3c-1.6,0.4-2.6-0.6-3.6-1.7
		c-0.3,1.5-1.2,2.5-2.6,3c-2,0.8-3.7-0.2-3.9-1.9c0-0.1,0-0.1-0.1-0.2c-0.1,0-0.2,0-0.2,0.1c0.7,1.6,0.7,3.1-0.4,4.5
		c-1.2,1.5-2.7,1.8-4.6,1.1c0.4,1.8,0.2,3.4-1.8,4.3c1.3,0.9,1.9,2,1.5,3.5c-0.4,1.4-1.5,2.2-2.8,2.9c2,1.6,2.4,4.8,0,6.5
		c1.4,0.8,2.2,1.9,2,3.4c-0.1,1.5-1.1,2.6-2.5,3.3c1.6,0.3,2.9,1.5,3,2.9c0.1,0.8-0.2,1.6-0.4,2.4c-0.3,0.9-1,1.4-2.1,1.6
		c2.4,0.9,3.2,4.2,0.5,5.8c3.4,1.1,4.9,4.3,2.4,6.7c0.5,0.4,1.1,0.7,1.6,1.1c0.6-0.4,1.1-0.8,1.7-1.1c1.5-0.8,2.9-1.6,4.4-2.3
		c1.9-0.9,3.8-1.9,6-2.2c1.7-0.2,3.4-0.2,5.2-0.4c2.1-0.2,4.3-0.4,6.4-0.6c1.2-0.1,2.4-0.3,3.5,0.6c0.7-1.2,1.4-2.5,2.2-3.8
		c-2.2,0-4.3,0.1-6.4,0c-1.5-0.1-3-0.2-4.4-0.5c-2-0.3-3.8-1.3-5.5-2.3c-0.3,0.9-1,1.6-2,1.8s-1.9-0.1-2.6-0.8
		c-0.9,1.4-1.7,2-3.2,2.1c-0.8,0.1-1.7,0-2.5-0.1c-0.3,0-0.7-0.2-1-0.4c0.1-0.3,0.2-0.7,0.5-0.9c0.7-0.7,1.3-1.5,1.5-2.4
		c0.6-2.6,0.9-5.2,0.8-7.9c0-0.2,0-0.4-0.1-0.5c-0.4-0.5-0.5-1.1-0.4-1.8c0.1-2.1,2.3-3.5,4.3-2.7c-0.2-3.3-0.6-5.8,0.6-9.5
		c-0.3-0.1-0.6-0.1-0.9-0.2c-1.1-0.2-1.6-0.9-1.3-1.9C255.1,141.4,255.2,140.9,255.4,140.3z M312.4,225.9c0.2,0.5,0.4,1,0.6,1.5
		c0.5,1.3,0.5,2.6,0.5,4c0,0.2,0.1,0.5,0.2,0.6c1.7,0.8,3.5,1.6,5.5,1.5c1.2,0,2.4-0.1,3.6-0.1c2.7,0,5.3,0,8,0
		c0.5,0,1.1,0.1,1.6,0.1c1.1,0,2.4,0.2,3.4-0.1c2.1-0.7,3.6-2.3,4-4.4c0.1-0.6,0.1-1.3,0.3-1.9c0.1-0.2,0.4-0.5,0.7-0.6
		c0.2,0,0.5,0.3,0.7,0.5c0.1,0.2,0.2,0.5,0.1,0.8c-0.1,0.9-0.3,1.8-0.4,2.7c0,0.2,0,0.5,0.1,0.7c0.9,1.4,1.9,2.8,2.9,4.2
		c1.7,2.4,3.5,4.8,5.3,7.3c0.6,0.8,1.2,1.6,1.8,2.4c0,0,0.1-0.1,0.3-0.1c1.9-1,3.3-2.3,4.2-4.2c0.6-1.3,1.2-2.6,1.8-3.9
		c1.2-2.3,1.8-4.8,1.7-7.4c0-0.4-0.1-0.8-0.4-1.1c-1.2-1.2-2.4-2.3-3.6-3.4c-0.4-0.4-0.7-0.3-1.1-0.1c-1.5,0.5-3.1,1-4.6,1.3
		c-2.1,0.4-4.2,0.5-6.4,0.3c-1.6-0.2-3.2-0.1-4.7-0.2c-0.1,0-0.2,0-0.4,0c-0.8-0.1-1.5-0.2-2.3-0.2c-2.3-0.2-4.4-0.9-6.2-2.1
		c-1.2-0.8-2.2-1.8-3.2-2.6c-0.4,0.3-0.7,0.6-1.1,0.9c-0.6,0.3-1.2,0.6-1.8,0.9c-0.9,0.4-1.7,1-2.7,1.2
		C318,224.8,315.3,225.7,312.4,225.9z M277.5,143.2c0-0.9,0-2,0-3.1s0-2.2,0-3.4c-1.9-0.1-3.8-0.2-5.7-0.1c-1.4,0-2.9,0.2-4.2,0.6
		c-2.1,0.8-4,1.8-5.9,2.8c-0.9,0.5-1.8,1.2-2.4,2c-1.4,1.8-2.1,4-2,6.2c0,2.3,0.1,4.6,0.3,6.9c0.1,1.7,0.4,3.4,0.7,5
		c0.4,2.8,2,5,4.5,6.6c2.3,1.5,5,2.1,7.8,2.2c2,0.1,4.1,0,6.1,0c1.3,0,2.3-0.2,3.2-1.2c0.9-1.1,2-2,3.1-3.1c-1.3,0-2.1-0.5-2.3-1.7
		c-1,0.9-1.5,1-2.3,0.7c-1.1-0.4-1.3-1.3-1.4-2.3c-1.1,0.8-2.1,1-3,0.6c-0.8-0.4-1.1-1.3-0.9-2.3c-1.8,0.2-2.6-0.4-2.7-2.2
		c-1.2,0.1-2.4-0.3-2.7-1.1c-0.5-1.3,0.6-2,1.5-2.8c-0.9-0.5-1.5-1.3-1.4-2.3c0-1,0.7-1.7,1.8-1.9c-0.7-0.7-1.4-1.5-0.7-2.3
		c0.8-1.1,2.1-1.5,3.5-0.7c-0.3-1,0.1-1.7,0.8-2.1c0.8-0.5,1.7-0.5,2.4,0C276.1,144,276.7,143.6,277.5,143.2z M278.7,197
		c-1.3,1.3-3.5,1.9-5.6,1.9c-2,0-3.7-0.6-5.4-1.5c-0.7-0.4-1.4-1-1.8-1.6c-0.9-1.6-1.3-3.4-0.8-5.3c0.8-3.3,3.7-5.5,7.1-6.1
		c0.7-0.1,1.4-0.1,2.1-0.2c-0.3-0.9-0.5-1.7-0.8-2.6c-0.9-0.2-1.9-0.4-2.8-0.5c-1.4-0.1-2.8-0.3-4.1,0.3c-1.4,0.6-2.7,1.3-4,2.1
		c-1,0.6-2,1.4-2.9,2.2c-1.2,1.1-2.4,2.3-3.5,3.5c-1.3,1.3-2.3,2.9-2.9,4.6c-0.4,1.1-0.7,2.2-0.9,3.4c-0.4,2.1-0.1,4.3,1.3,6
		c1.3,1.6,3,3.1,4.6,4.4c1,0.8,2.1,1.5,3.3,1.9c1.7,0.6,3.5,0.5,5.2-0.1c1.9-0.6,3.7-1.4,5.4-2.3c1-0.5,2-1.2,2.9-1.9
		c0.8-0.7,1.6-1.5,2.4-2.2c0.4-0.4,0.8-0.8,1.1-1.2c0.6-0.9,1.2-1.8,1.7-2.7C279.9,198.5,279.3,197.8,278.7,197z M337,247.9
		c-0.2-0.5-0.4-0.9-0.6-1.3c-0.5-1-1.1-2-1.6-3.1c-0.9-1.9-1.7-3.9-2.6-5.9c-0.3-0.7-0.7-1.4-1-2.1c-0.2-0.5-0.4-0.6-0.9-0.6
		c-4,0.1-7.9,0.1-11.9,0.1c-0.9,0-1.8-0.2-2.7-0.4c-0.9-0.2-1.8-0.6-2.7-1c-1.1,3.3-2.1,6.6-4.4,9.3
		C314.3,246.1,327.2,248.5,337,247.9z M294.7,224.8c-1.6-0.4-3.1-0.9-4.6-1.2c-2-0.4-4-1.1-5.8-1.9c-0.2-0.1-0.5,0-0.6,0.1
		c-0.9,0.7-1.9,1.3-2.8,2c-0.5,0.4-0.9,0.8-1.2,1.3c-0.7,1-0.8,2.2-0.8,3.4c0,1.4,0.9,2.1,2.2,2.3c1.4,0.2,2.8,0.1,4.1-0.5
		c2.4-1,4.7-2.1,7.4-2.4c1.4-0.1,2.8-0.6,4.1-0.8c1.1-0.1,2.2-0.1,3.3,0.2c1.9,0.7,3.3,1.8,3.8,3.7c0.5,2,0.6,4-0.4,5.8
		c-1.5,2.8-3.1,5.5-4.7,8.2c-0.2,0.4-0.5,0.7-0.9,1.3c2.5-0.4,4.8-0.8,6.9-1.9c0.4-0.2,0.9-0.5,1.2-0.9c0.6-0.7,1.2-1.4,1.7-2.1
		c1.8-2.4,2.9-5.1,3.6-8c0.5-1.8,0.8-3.7,0-5.6c-0.3-0.7-0.5-1.4-0.7-2.1c-3.1,0-6.2,0-9.4,0c3.8,1.5,4.2,2.7,5.7,6
		c0.2,0.4,0.2,0.9,0.2,1.3c0,2.1-0.2,4.3-0.8,6.3c-0.6,1.8-1.7,3.2-2.9,4.6c-0.1,0.1-0.4,0.1-0.7,0.2c0-0.2-0.2-0.4-0.1-0.6
		c0.2-0.4,0.4-0.9,0.7-1.3c1.3-1.7,2.3-3.5,2.5-5.7c0.2-1.8,0.5-3.6-0.3-5.4c-1-2.2-2.5-3.8-4.9-4.6c-3.3-1.1-6.6-1.3-10-0.5
		c-2.8,0.6-5.3,1.8-7.9,2.9c-0.3,0.1-0.6,0.3-0.8,0.3c-0.3,0-0.5-0.2-0.8-0.3c0.1-0.2,0.2-0.6,0.4-0.6c1.5-0.6,3-1.3,4.5-1.8
		C288.8,225.6,291.6,224.8,294.7,224.8z M340.6,155.7c0,0-0.1-0.1-0.2-0.1c-2.5-1.5-4.9-3-7.4-4.4c-1.3-0.7-2.8-1.3-4.3-1.8
		c-2.5-0.9-5.1-1.3-7.8-1.1c-1.6,0.1-3.2,0.2-4.7,0.4c-2.7,0.3-5.3,0.7-7.8,1.7c-2.8,1.1-5.5,2.5-7.9,4.2c-1.8,1.2-3.6,2.4-5.3,3.7
		c-0.3,0.2-0.6,0.5-0.7,0.7c-0.1,1.2,0,2.5,0,3.7c0,0.2,0.1,0.4,0.2,0.6c-0.1-0.1-0.2-0.2-0.2-0.3c0.9-0.7,1.7-1.4,2.6-2
		c2.3-1.5,4.5-3.1,6.9-4.4c2-1.2,4.2-2.3,6.6-2.7c0.6-0.1,1.2-0.1,1.7-0.1c2.3-0.2,4.5-0.4,6.8-0.6c0.8-0.1,1.5,0.1,2.3,0.1
		c2.4,0.2,4.7,0.4,7,1.1c2.6,0.8,4.9,2.3,6.8,3.8C337.1,157.3,338.9,156.5,340.6,155.7z M327.6,192.4c-0.2-0.3-0.5-0.5-0.6-0.7
		c-0.6-1.8-2.1-3.1-3.3-4.5c-0.4-0.4-0.8-0.9-1.2-1.2c-2.6-1.9-5.6-2.8-8.8-2.8c-2.1,0-4.1,0.7-5.7,2.1c-0.4,0.3-0.9,0.5-1.5,0.8
		c0.2,4-1.5,7.5-4.5,10.7c1.6,0.2,3.1,0.4,4.7,0.5c0.3,0,0.7-0.2,0.8-0.4c0.8-1.5,1.6-2.9,2.4-4.5c1-2,2.6-3.5,4.8-4.3
		c1.7-0.7,3.5-0.8,5.1,0.4c1.2,0.9,2.3,1.9,3.5,2.9c1.1,0.9,2.3,1.8,3.1,3.1C326.7,193.7,327.2,193.1,327.6,192.4z M282.4,194.4
		c-0.4,0.3-0.7,0.7-1.1,0.8c-0.5,0.2-0.7,0.5-0.7,0.9c-0.1,0.9,1.1,1.9,2.2,1.9c2.2,0,4.4,0.3,6.5,0.9c2.2,0.6,4.4,1.1,6.5,1.8
		c2.2,0.7,4.5,1.2,6.9,1.3c0.7,0,1.4,0.1,2.1,0.1c1.1,0.1,2.3,0.3,3.4,0.2c1.7-0.1,3.3-0.2,4.9-0.5c2-0.4,3.9-0.9,5.9-1.3
		c0.2,0,0.4-0.2,0.5-0.4c0-0.1-0.2-0.3-0.3-0.4c-0.3-0.3-0.6-0.5-0.8-0.8c-0.8-0.9-1.8-1.3-3-1.2c-1.3,0.1-2.7,0.3-4,0.5
		c-1,0.2-2.2-0.1-3,0.7c-0.1,0-0.2,0-0.3,0c-2.3,0.1-4.6,0-6.8-0.8c-0.6-0.2-1.2-0.2-1.7,0.2c-1.6,1.3-3.5,1.3-5.4,0.7
		c-0.5-0.2-1-0.5-1.5-0.6c-1.6-0.5-3.3-0.8-4.8-1.4C286,196.2,284.2,195.2,282.4,194.4z M349.6,183.1c1.2,0.6,2.3,1.3,3.5,1.9
		c1.1,0.6,1.1,0.5,2-0.2c0.1-0.1,0.3-0.2,0.5-0.3c2.2-1.4,4-3.1,5.2-5.3c0.7-1.2,1-2.5,0.9-3.9c-0.1-0.8-0.4-1.1-1.2-1.1
		c-0.7,0-1.1,0.3-1.6,0.7c-2.2,1.8-4.4,3.5-6.7,5.1c-0.4,0.3-0.9,0.4-1.4,0.6c-0.1,0.1-0.3,0.2-0.3,0.3
		C350.2,181.6,349.9,182.4,349.6,183.1z M276.6,147.5c-0.7,1.4-0.9,2.8-0.7,4.3c0.1,1.2,0.6,2.4,1.8,3.1c1.9,1.1,2.8,3.2,2.2,5.1
		c0.4,0.6,0.7,1,1.1,1.5c0.7-0.6,1.5-0.8,2.4-0.4c0.8,0.4,1.6,0.9,1.3,2c0.1,0,0.2,0,0.2,0c1-1.2,2-2.5,2.9-3.5
		c-2.2-1.8-4.8-2.9-6.3-5.1c-1.5-2.2-2.5-4.6-3.8-7C277.4,147.5,277,147.5,276.6,147.5z M275.2,185.7c-0.3-0.3-0.4-0.5-0.6-0.5
		c-1.4,0-2.9,0-4.2,0.7c-2.5,1.3-4.2,3.1-4.5,5.9c-0.2,1.4,0.6,4.1,2.3,5.1c2,1.1,4.2,1.4,6.4,1.2c1.8-0.2,3.3-1,4.2-2.5
		c0.2-0.3,0.3-0.8,0.6-1c0.4-0.4,1-0.7,1.5-1.1c-0.5-0.4-1-0.8-1.6-1.2c-0.1,0.2-0.2,0.4-0.3,0.7c-0.7,1.5-1.6,2.9-3.6,3.2
		c-0.8,0.1-1.7,0.1-2.5-0.1c-1.3-0.2-2.5-0.6-3.3-1.7c-0.6-0.8-0.9-1.6-0.8-2.6c0.3-2,1.7-3.2,3.2-4.5
		C272.8,186.3,273.7,185.8,275.2,185.7z M251.4,169.2c0.3,0.1,0.5,0.1,0.7,0.1c1.6,0.2,3.3-0.3,3.9-1.9c0.3-0.9,0.7-0.9,1.3-0.2
		c1,1.2,2.4,1,3.1-0.3c0.2-0.4,0.2-0.7-0.2-1c-1.5-1.3-2.3-2.8-2.6-4.7c-0.2-0.9-0.4-1.8-0.6-2.8c-0.9,1.3-2.1,1-3.3,0.6
		c0,0.4,0,0.8-0.1,1.1c-0.2,1.7-0.5,3.4-0.7,5.1C252.9,166.7,252.6,168,251.4,169.2z M270.6,153.6c0.3,0.9,0.6,1.8,1,2.7
		c0.6-0.2,1.5-0.4,2.2,0.2c0.7,0.6,0.8,1.4,0.7,2.2c1.8-0.3,2.6,0.6,2.8,2c0.5-0.2,0.8-0.5,1.3-0.5c0.7-0.1,0.9-0.5,0.9-1
		c-0.1-1.4-0.5-2.8-1.9-3.5c-1.8-0.9-2.2-2.4-2.3-4.1c-0.1-1.5,0.1-3,0.8-4.6c-1.5,1.2-1.7,1.3-2.9,0.8c-0.1,1.3-0.8,2.1-2.1,2.2
		c0.3,0.7,0.8,1.4,0.9,2.1C271.8,152.7,271.4,153.5,270.6,153.6z M295.6,203.7c1.2,0.4,2.2,0.8,3.3,1.1c2.4,0.6,4.9,0.9,7.4,1
		c2.7,0.1,5.4,0.3,8,0.1c1.8-0.2,3.3-0.8,4.7-1.9c0.7-0.5,1-1.3,1.2-2.2c-1.8,0.5-3.5,1.2-5.3,1.4c-2.4,0.4-4.8,0.6-7.2,0.7
		c-2.3,0.1-4.6-0.1-6.9-0.4c-1.2-0.1-2.3-0.6-3.5-0.9c-0.4-0.1-0.8-0.2-1.1-0.1c-0.2,0-0.3,0.4-0.4,0.6
		C295.8,203.4,295.8,203.5,295.6,203.7z M264.9,137.2C264.9,137.2,265,137.2,264.9,137.2c-0.9-0.9-1.5-1.9-1.3-3.2
		c0-0.1-0.1-0.2-0.2-0.3c-1.1-0.8-2.4-0.7-3.2,0.4c-0.5,0.6-0.8,1.3-1.3,1.9c-0.3,0.4-0.6,0.7-1,0.9c-1.2,0.6-2.5,0.9-3.9,0.8
		c0.2,0.9,0.9,1.4,1.7,1.7c0.9,0.4,1,0.4,0.5,1.3c-0.1,0.2-0.2,0.3-0.2,0.5c-0.4,1.2-0.6,1.7,1.1,1.9c0.1,0,0.2,0,0.3,0.1
		C259.1,140.1,262.1,138.8,264.9,137.2z M306.2,184.7c1-1.2,2.2-2,3.6-2.6c1.9-0.7,3.8-1,5.8-0.7c2.7,0.4,5.2,1.3,7.4,2.8
		c1.2,0.8,2.2,1.8,3.1,2.9c1,1.2,2.1,2.4,2.6,3.9c0.2-0.3,0.4-0.6,0.5-0.8c-0.6-1-1.2-1.9-1.8-2.8c-0.8-1.1-1.6-2.2-2.5-3.3
		c-0.4-0.5-1.1-0.9-1.6-1.4c-1.3-1.3-3-2-4.8-2.3c-0.9-0.1-1.7-0.1-2.6-0.3c-2.3-0.4-4.5-0.5-6.8,0c-1.1,0.3-2.2,0.4-2.8,1.4
		c-0.2,0.3-0.6,0.5-0.9,0.8c-0.2,0.1-0.4,0.2-0.5,0.2C305.4,183.5,305.8,184.1,306.2,184.7z M335.8,235.2c1,2,2,4,3.1,5.9
		c1,1.6,2.1,3.2,3.2,4.8c0.4,0.5,0.7,1.1,1,1.6c1.1-0.2,2.3-0.4,3.6-0.6c-4-3.7-6.1-8.3-8.9-12.6
		C337.2,234.6,336.6,234.8,335.8,235.2z M339,233.5c2.7,4.5,5.2,9.2,9.2,13c0.6-0.2,1.1-0.5,1.9-0.8c-4-4.1-6.5-9-9.8-13.4
		C339.9,232.7,339.4,233.1,339,233.5z M353.9,207.7c-1.8,0.2-2.7,0.7-3.3,2.3c-0.9,2-0.4,3.9,0.9,5.6c0.3,0.5,1.1,0.7,1.7,1
		c0.2,0.1,0.6-0.1,0.6-0.2c0.2-0.9,0.5-1.7,0.6-2.6c0-0.9-0.2-1.9-0.2-2.8C354,209.9,353.9,208.8,353.9,207.7z M245.4,131.2
		c0,0.1,0,0.3,0.1,0.6c0.2,0.9,0.9,1.5,1.8,2c0.5,0.3,1,0.6,1.7,0.4c1.2-0.5,2.2-1.2,2.2-2.5c0-0.8-0.5-1.7-0.9-2.4
		c-0.2-0.4-0.7-0.7-1.1-0.9C247.2,127.8,245.4,129.1,245.4,131.2z M332.6,235c2,4.3,4,8.6,6.1,12.9c0.8,0,1.7-0.1,2.9-0.2
		c-3.1-4.1-5.2-8.4-7.4-12.7C333.8,235,333.3,235,332.6,235z M246.8,175.7c-0.2-1.5-1.4-2.9-3.3-3c-0.5,0-1.1,0.1-1.4,0.3
		c-1.1,0.8-1.4,2.3-0.8,3.4c0.7,1.3,1.9,1.9,3.3,1.7C245.8,178,246.9,176.9,246.8,175.7z M241.4,157.9c1.4,0,2.5-0.6,3-1.7
		c0.6-1.3-0.6-2.9-1.5-3c-1.1,0-2.1,0.1-3,0.7c-1,0.6-1.3,1.3-1.1,2.1C239.1,157.2,240.1,157.9,241.4,157.9z M245.5,142.1
		c0.2-1.2-1.6-2.4-3-2.5c-1-0.1-2.3,1.2-2.3,2.1c0,1.4,1.3,3,2.5,3C244,144.7,245.4,143.3,245.5,142.1z M243.1,164.7
		c0.4-0.1,1-0.2,1.3-0.5c0.8-0.6,0.9-1.6,0.7-2.4c-0.2-0.8-0.8-1.5-1.7-1.6c-0.7-0.1-1.4-0.1-2.1,0c-0.9,0.1-1.6,0.6-1.7,1.4
		c-0.1,0.8,0.1,1.6,0.8,2.1C241.2,164.3,242.1,164.6,243.1,164.7z M241.5,171.2c1-0.1,1.9-0.3,2.7-1c1-1,0.8-2.4-0.6-3
		c-0.5-0.2-1-0.4-1.5-0.5c-0.9-0.2-1.7-0.1-2.4,0.6c-0.7,0.8-0.7,1.7-0.3,2.6C239.9,170.8,240.5,171.3,241.5,171.2z M261.7,124.4
		c-1.3,0-2.5,0.9-2.5,2.1c0,1,1.3,2.5,2.4,2.5c1.2,0,2.8-1.2,2.8-2.1C264.4,125.5,263.1,124.4,261.7,124.4z M271.1,126.7
		C271,126.7,271,126.7,271.1,126.7c0-0.2,0-0.4,0-0.7c0-1.2-0.3-1.6-1.6-1.8c-0.5-0.1-1.1-0.1-1.7,0c-0.7,0.1-1.2,0.7-1.3,1.4
		c-0.1,1.5,0.8,2.4,2,3c1.4,0.7,2.5,0.1,2.5-1.4C271.1,127,271.1,126.8,271.1,126.7z M244,138.3c0.9,0,2.5-1.3,1.7-2.8
		c-0.3-0.6-0.8-1-1.2-1.5c-0.6-0.7-1.4-0.7-2.1-0.2c-0.2,0.2-0.4,0.4-0.6,0.6c-0.7,0.8-0.7,1.7-0.3,2.6
		C241.9,137.8,242.6,138.3,244,138.3z M244.2,149L244.2,149c-0.1-0.2-0.1-0.3-0.1-0.5c-0.2-1.5-1.8-2.6-3-1.8
		c-0.7,0.4-1.2,1-1.6,1.7c-0.2,0.2-0.1,0.8,0.1,1.1c0.5,0.8,1.3,1.4,2.3,1.7c0.9,0.2,1.7-0.1,2-0.9
		C244.1,149.8,244.2,149.4,244.2,149z M253.3,128.3c0,0.4,0,0.6,0.1,0.7c0.4,1.5,1.6,1.8,2.7,1.1c1.8-1.3,1.9-2.7,0.1-4.3
		c-0.3-0.2-1.1-0.3-1.5-0.1C253.7,126.3,253.2,127.3,253.3,128.3z M266.7,132.8c-0.9,0-1.6,0.3-2,1s-0.2,1.4,0.2,2
		c0.2,0.3,0.4,0.5,0.7,0.7c0.2,0.1,0.5,0.2,0.8,0.1c0.7-0.2,1.4-0.4,2-0.6c0.2-0.1,0.5-0.3,0.5-0.4
		C269.5,134.1,268.4,132.8,266.7,132.8z M256.6,154.2c-1.2-0.4-2.1,0-2.8,0.9c-1.2,1.4-0.6,3.1,1.2,3.5c0.2,0,0.5,0.1,0.5,0
		c0.5-0.6,1.4-1,1.2-2C256.7,155.8,256.7,155,256.6,154.2z M277.3,125.4c-0.5-0.3-0.9-0.6-1.4-0.8c-0.3-0.1-0.7-0.2-1-0.1
		c-0.9,0.2-1.7,0.9-1.7,1.6c-0.1,0.8,0.6,1.9,1.4,2.2s2-0.3,2.3-1.1C277,126.6,277.1,126,277.3,125.4z M305.8,179.6
		c-1.4-1.4-6.8-0.5-8.6,0c2.4,0.1,4.6,0.8,6.5,2.1C304.5,181,305.2,180.3,305.8,179.6z M313.2,190.8c-0.5,0.6-1,1.1-1.4,1.6
		c-0.1,0.1-0.1,0.3-0.1,0.3c0.6,0.8,1.2,1.7,1.8,2.5c0.5-0.5,1-1,1.5-1.5c0.3-0.3,0.3-0.5,0-0.8
		C314.5,192.3,313.9,191.6,313.2,190.8z M279,129.7c0.8-1.1,1.5-2.1,2.2-3.2c-0.1-0.2-0.4-0.4-0.5-0.7c-0.2-0.3-0.5-0.4-0.9-0.3
		c-0.9,0.3-1.5,0.8-1.7,1.6C278,128.1,278,129,279,129.7z M318.6,196c0.4-0.4,0.8-0.7,1.1-1.1c0.2-0.2,0.3-0.5,0.2-0.7
		c-0.5-0.8-1.1-1.6-1.6-2.5c-0.5,0.6-1,1.1-1.4,1.7C317.4,194.3,318,195.1,318.6,196z M271.7,195c0.7,0.2,1.5,0.3,2.2,0.5
		c0.2-0.9,0.3-1.7,0.6-2.5c0.1-0.3,0-0.5-0.3-0.6c-0.5-0.1-1.1-0.3-1.6-0.4C272.3,193.1,272,194,271.7,195z M272.8,189.1
		c-0.6-0.3-1.1-0.5-1.7-0.8c-0.5,0.7-1,1.4-1.6,2.2c0.9,0.3,1.7,0.6,2.5,0.9C272.4,190.6,272.6,189.9,272.8,189.1z M323.1,196.8
		c0.5-0.6,0.9-1.2,1.3-1.8c-0.6-0.6-1.2-1.2-1.8-1.9c-0.3,0.4-0.6,0.7-0.8,1.1c-0.1,0.2-0.1,0.5,0,0.7
		C322.2,195.5,322.7,196.1,323.1,196.8z M278.3,190.8c-0.8-0.2-1.5-0.5-2.3-0.7c-0.2,0.7-0.3,1.4-0.5,2c0.8,0.2,1.5,0.3,2.3,0.4
		c0.1,0,0.4-0.1,0.4-0.2C278.3,191.8,278.8,191.3,278.3,190.8z M314.4,190c0.6,0.9,1.2,1.8,1.8,2.6c0.4-0.4,0.6-0.8,0.9-1.2
		s0.3-0.6-0.1-1c-0.3-0.3-0.6-0.7-1-1.2C315.6,189.4,315.1,189.7,314.4,190z M273.3,189.3c-0.2,0.8-0.4,1.5-0.6,2.2
		c0.7,0.2,1.4,0.4,2.1,0.5c0.2-0.7,0.4-1.4,0.6-2.1C274.7,189.7,274.1,189.5,273.3,189.3z M269.8,153c0.5,0,1.2-0.7,1.2-1.1
		c0-0.5-0.9-1.4-1.5-1.5c-0.5,0-1.1,0.6-1.1,1.1C268.4,152.2,269.2,153,269.8,153z M272.5,156.7c-0.8,0-1.3,0.5-1.3,1.3
		c0,0.6,0.5,1.1,1.1,1.1s1.5-0.8,1.5-1.3C273.7,157.3,273,156.7,272.5,156.7z M271,194.5c0.3-0.8,0.6-1.6,0.9-2.5
		c-0.4-0.1-0.8-0.2-1.1-0.3c-0.4-0.1-0.8-0.1-1.2-0.2C269.4,193,269.8,193.8,271,194.5z M320.7,198.7c0.5-0.4,0.9-0.7,1.4-1
		c-0.4-0.7-0.9-1.3-1.3-2c-0.6,0.6-1,1.1-1.5,1.6C319.8,197.8,320.3,198.2,320.7,198.7z M275.4,186.4c-1.4,0.2-1.2,1.4-1.8,2.3
		c0.7,0.2,1.3,0.4,1.9,0.7C275.7,188.3,276.3,187.3,275.4,186.4z M291.1,204c1.4-0.5,2.6-0.9,3.5-2c-0.8-0.2-1.6-0.4-2.3-0.6
		C291.9,202.3,291.5,203.1,291.1,204z M275.3,192.8c-0.2,0.9-0.3,1.7-0.5,2.6c1.4-0.2,2.1-1.1,2.9-2.1
		C276.9,193.2,276.2,193,275.3,192.8z M312.6,196.3c-0.6-0.9-1.1-1.6-1.7-2.5c-0.4,1-0.8,1.9-1.3,2.9
		C310.8,196.6,311.7,196.5,312.6,196.3z M271,146.9c-0.7,0-1.5,0.5-1.5,0.9c0,0.5,0.7,1.2,1.3,1.2c0.6,0,1.3-0.6,1.2-1.2
		C272,147.4,271.5,146.9,271,146.9z M337.5,196c0.7-1.1,0-1.8-0.7-2.8c-0.4,0.5-0.8,0.8-1.1,1.3c-0.1,0.1-0.1,0.3-0.1,0.5
		C335.9,195.6,336.7,196.1,337.5,196z M274.9,161.5c0.7,0,1.3-0.5,1.3-1c0-0.6-0.8-1.3-1.2-1.2c-0.5,0.2-1,0.7-1.3,1.1
		C273.5,160.8,274.3,161.5,274.9,161.5z M244.5,182.1c0.9-0.6,1.9-1.2,2.8-1.8c-0.9-0.8-1.5-0.8-2.3-0.2
		C244.3,180.7,244.1,181.4,244.5,182.1z M270.5,155.7c0-0.6-0.5-1.1-1-1.1c-0.6,0-1.1,0.6-1.1,1.2c0,0.6,0.5,1.1,1.1,1.1
		C270,156.8,270.5,156.3,270.5,155.7z M281.5,162.8c0,0.5,0.6,1,1.1,1c0.6,0,1.3-0.5,1.3-1.1c0-0.5-0.6-1-1.1-1
		C282,161.7,281.4,162.2,281.5,162.8z M279.9,161.8c0-0.6-0.4-1-1-1c-0.5,0-1.1,0.5-1.1,1c0,0.6,0.5,1.2,1,1.2
		C279.3,163.1,279.9,162.5,279.9,161.8z M333.1,198c0.5,0.1,0.9,0.3,1.3,0.4c0.8,0.1,1.3-0.4,1-1.1c-0.2-0.5-0.4-1-0.7-1.6
		C334.1,196.5,333.6,197.3,333.1,198z M275.1,145.8c0-0.6-0.3-1-0.7-1c-0.5,0-1.2,0.5-1.2,1s0.5,1.3,1,1.3
		C274.6,147.2,275.1,146.5,275.1,145.8z M338.1,192.5c0.4,0.3,0.7,0.5,1,0.7c0.4,0.2,0.9,0.5,1.4,0.1s0.2-0.9,0-1.3
		c-0.1-0.2-0.2-0.4-0.4-0.6C339.5,191.7,338.9,192.1,338.1,192.5z M288.1,230.9c-0.6,0.3-1,0.5-1.4,0.7c-0.8,0.3-0.9,0.8-0.4,1.4
		c0.4,0.4,0.7,0.5,1.1,0C287.8,232.5,288,231.8,288.1,230.9z M320.9,193.3c0.3-0.3,0.5-0.6,0.8-0.9c-0.8-0.7-1.6-1.4-2.5-2.2
		c0,0.3-0.1,0.6,0,0.7C319.7,191.7,320.3,192.5,320.9,193.3z M336.5,197.1c0.3,0.5-0.4,1.2,0.5,1.5c0.4,0.1,1.2,0.1,1.2-0.1
		c0.1-0.4,0-1,0-1.4C337.6,197.1,337.1,197.1,336.5,197.1z M277.5,144.3c-0.8,0-1.2,0.5-1.2,1.1c0,0.4,0.3,0.8,0.6,1.1
		c0.1,0.1,0.4,0.1,0.6,0c0.1,0,0.2-0.3,0.1-0.5C277.6,145.5,277.6,144.9,277.5,144.3z M339,194.4c0.1,0.4,0.1,0.9,0.2,1.2
		c0.2,0.3,0.5,0.5,0.9,0.7c0.1,0,0.4-0.3,0.6-0.5c0.3-0.3,0-0.5-0.1-0.8C340.3,194.4,339.6,194.5,339,194.4z M323.3,200.1
		c-0.2-0.4-0.4-0.7-0.6-1.1c-0.4,0.2-0.9,0.5-1.3,0.7c0.3,0.5,0.5,0.9,0.8,1.4C322.6,200.8,322.9,200.4,323.3,200.1z M314.7,196.1
		c0.8,0,1.5,0,2.3,0c-0.3-0.6-0.6-1.1-0.9-1.7C315.6,195,315.2,195.5,314.7,196.1z M350.5,207.5c-0.6-0.2-1.6,0.1-1.7,0.6
		c-0.1,0.3,0.2,0.7,0.4,1.2C349.7,208.6,350.1,208.1,350.5,207.5z M350.9,217.2c0.1,0.6,0.2,1.1,0.8,1.3c0.3,0.1,0.7-0.2,1.1-0.3
		c0-0.1,0-0.1-0.1-0.2C352.2,217.7,351.6,217.5,350.9,217.2z M348.8,210.6c-0.6,0.2-1,0.6-0.9,1.1c0.1,0.3,0.3,0.5,0.5,0.8
		c0.1,0,0.1-0.1,0.2-0.1C348.7,211.9,348.8,211.3,348.8,210.6z M276.6,188.3c-0.1,0.5-0.3,0.9-0.4,1.3c0.5,0.1,0.9,0.2,1.5,0.4
		C277.3,189.3,277,188.8,276.6,188.3z M324.2,198.8c0.3-0.7,0.6-1.5,0.9-2.3c-0.3,0.2-0.5,0.6-0.7,0.8
		C323.7,197.8,323.8,198.3,324.2,198.8z M349,214.2c-0.5,0.5-0.5,1-0.1,1.4c0.2,0.2,0.5,0.2,0.7,0.3c0-0.1,0-0.1,0.1-0.2
		C349.5,215.2,349.3,214.7,349,214.2z M273.5,186.9c-0.6,0.4-1.1,0.7-1.6,1c0.5,0.2,0.8,0.3,1.2,0.5
		C273.2,187.9,273.3,187.5,273.5,186.9z M353.1,206.3c-0.6-0.5-0.9-0.4-1.2,0.3C352.2,206.4,352.6,206.4,353.1,206.3z"/>
	<path d="M255.8,233.4c0.8-0.1,1.5-0.2,2.2-0.2c0.2-1.1,0.3-2.2,0.5-3.3c0-0.1,0-0.2,0.1-0.3s0.3-0.2,0.5-0.3
		c0.1,0.1,0.3,0.3,0.3,0.4c0,0.7-0.1,1.3-0.2,2c0,0.4-0.1,0.8-0.2,1.3c0.7-0.2,1.4-0.4,2-0.7c0.1-0.1,0.3-0.3,0.3-0.5
		c0.2-0.8,0.2-1.7,0.4-2.5c0-0.2,0.3-0.3,0.5-0.5c0.1,0.2,0.3,0.4,0.3,0.6c-0.1,0.8-0.2,1.5-0.4,2.5c0.7-0.4,1.2-0.6,1.7-0.9
		c0.4-0.2,0.8-0.5,1.2-0.6c0.4-0.1,0.9-0.2,1.2,0c0.3,0.2,0.5,0.7,0.4,1c-0.4,1.1-0.9,2.3-1.5,3.3c-1.7,3.1-6.6,5.4-11.4,4.2
		c-1.8-0.5-3.7-0.8-5.2-2.1c-1.7-1.5-2.9-3.2-3-5.5c0-0.3,0.2-0.8,0.5-1c0.4-0.3,0.7,0,1,0.3c0,0.1,0.2,0.1,0.3,0.1
		c0.5,0,0.8,0.3,0.9,0.7c0.1,0.3,0.4,0.6,0.5,0.9c0.4-1.1,0.8-2.2,1.2-3.3c0-0.1,0.1-0.3,0.2-0.3c0.2-0.2,0.5-0.3,0.7-0.4
		c0,0.2,0.1,0.5,0.1,0.7c-0.3,0.9-0.7,1.7-0.9,2.6c-0.4,1.2-0.2,1.4,1.1,1.6c0.2,0,0.4,0.1,0.5,0.1c0.2-1,0.4-2,0.6-2.9
		c0.1-0.4,0.2-0.7,0.4-1c0.1-0.2,0.4-0.2,0.6-0.3c0.1,0.2,0.2,0.4,0.1,0.6c-0.3,1.2-0.6,2.4-1,3.7c0.9,0,1.6,0,2.4,0
		c0-1.5,0.4-2.9,1-4.2c0.1-0.1,0.4-0.2,0.6-0.2c0.1,0.2,0.2,0.4,0.2,0.5c-0.2,0.9-0.4,1.8-0.6,2.7
		C255.9,232.5,255.9,232.9,255.8,233.4z M248.5,234.3c0.8,0.9,1.5,1.8,2.7,2.3c1.4,0.6,2.9,0.9,4.4,1.1c3.1,0.3,5.6-0.5,7.4-2.8
		c0.5-0.6,0.9-1.3,1.3-2c-0.1,0-0.1-0.1-0.2-0.1C259.2,234.8,254,235.6,248.5,234.3z"/>
	<path d="M358.1,204.6c-0.1,2.3-0.3,4.1-0.4,6c0,0.5,0.1,0.9,0.1,1.4c0,2.2-0.2,4.3-1.2,6.3c-0.1,0.3-0.2,0.6-0.4,0.9
		c-0.1,0.2-0.4,0.3-0.7,0.4c-0.1-0.2-0.3-0.4-0.4-0.6c0-0.1,0-0.4,0.1-0.5c1.3-2.3,1.3-4.8,1.3-7.3c0-1.9,0.2-3.8,0.2-5.7
		c0-1.3-0.2-2.6-0.3-3.9c-0.1-1-0.3-2-0.5-3c-0.2-0.8-0.4-1.5-0.8-2.2c-1-1.8-2.2-3.7-3.3-5.5c-0.2-0.4-0.6-0.7-1-0.9
		c-1.3-0.7-2.6-1.5-4-2c-1.7-0.6-3.4-0.4-5.2,0c-2,0.6-4.1,1.1-5.7,2.5s-3.1,3-4.5,4.5c-0.6,0.7-1.1,1.4-1.7,2.1
		c-0.2,0.2-0.6,0.2-0.9,0.3c0-0.3-0.1-0.6,0.1-0.9c1.2-2,2.8-3.7,4.4-5.4c2-2.1,4.6-3.2,7.4-4.1c1.1-0.3,2.3-0.6,3.5-0.7
		c1.8-0.1,3.3,0.6,4.8,1.3c0.7,0.3,1.4,0.8,2.1,1.2c1.6,0.9,2.6,2.4,3.4,3.9c0.5,0.9,0.9,1.8,1.4,2.6c0.8,1.4,1.1,3,1.4,4.6
		C357.8,201.7,357.9,203.3,358.1,204.6z"/>
	<path d="M351.4,203.8c-0.2-0.4-0.4-0.6-0.4-0.8s0.3-0.3,0.5-0.5c0.2,0.2,0.4,0.4,0.4,0.6C351.9,203.2,351.6,203.4,351.4,203.8z"/>
	<path d="M351.2,220.5c-0.3,0.2-0.5,0.4-0.6,0.4c-0.2,0-0.4-0.3-0.5-0.4c0-0.1,0.3-0.4,0.4-0.4C350.7,220.1,350.9,220.3,351.2,220.5
		z"/>
	<path d="M348.3,203.9c0.2,0.3,0.4,0.4,0.4,0.6c0,0.1-0.3,0.4-0.4,0.4c-0.2,0-0.4-0.2-0.5-0.4C347.8,204.3,348.1,204.1,348.3,203.9z
		"/>
	<path d="M347.2,207.9c-0.4,0.2-0.5,0.4-0.7,0.4c-0.1,0-0.4-0.2-0.4-0.4c0-0.1,0.2-0.4,0.4-0.4C346.6,207.5,346.8,207.7,347.2,207.9
		z"/>
	<path d="M346,212.8c-0.2-0.3-0.5-0.4-0.5-0.6c0-0.1,0.3-0.4,0.4-0.4c0.2,0,0.4,0.2,0.5,0.4C346.4,212.3,346.2,212.5,346,212.8z"/>
	<path d="M347.7,217.2c-0.3,0.2-0.5,0.4-0.6,0.4c-0.2,0-0.3-0.3-0.5-0.4c0.2-0.1,0.3-0.4,0.5-0.4C347.3,216.7,347.5,217,347.7,217.2
		z"/>
	<path d="M299.7,133.1c-1.2,0-2.5-0.1-3.6,0c-2.1,0.3-3.9,1.4-5.5,2.7c-1.5,1.2-2.7,2.6-3.8,4.1c-1.3,1.7-1.2,3.7-0.8,5.6
		c0.4,1.6,0.9,3.1,1.3,4.7c0.1,0.4,0.4,0.7,0.5,1.1c0.1,0.2,0,0.5,0.1,0.8c-0.3,0-0.7,0-0.9-0.1c-0.4-0.5-0.7-1-0.8-1.6
		c-0.5-1.7-1-3.5-1.3-5.2c-0.4-2-0.3-4,0.9-5.7c1.4-2,3-3.7,5.1-5.1c1.6-1,3.2-1.9,5-2.1c2.1-0.2,4.1-0.1,6.2-0.1
		c1.1,0,2.2,0.2,3.3,0.4c1.2,0.2,2.2,0.7,3,1.6c0.5,0.6,1.2,1.1,1.9,1.6c1.6,1.1,2.1,2.7,2.3,4.5c0.1,0.9,0,1.8,0,2.7
		c0,0.2-0.3,0.4-0.5,0.7c-0.2-0.2-0.4-0.4-0.5-0.7c-0.1-1.3-0.1-2.6-0.3-3.8c-0.2-1.1-0.8-2-1.7-2.7c-1.2-0.8-2.2-1.9-3.5-2.5
		c-1-0.5-2.2-0.7-3.3-0.8C301.7,132.9,300.7,133,299.7,133.1L299.7,133.1z"/>
	<path d="M298.8,135.4c1.5,0.1,2.9,0.2,4.4,0.4c2.8,0.4,6,4.4,5.7,6.9c-0.1,0.4,0,0.9,0,1.3c0,0.2-0.3,0.4-0.5,0.6
		c-0.2-0.2-0.5-0.4-0.5-0.6c-0.1-0.7-0.1-1.4-0.2-2.1c-0.1-0.4-0.1-0.9-0.4-1.3c-1.5-2.5-3.5-4.2-6.8-4.2c-1.7,0-3.3,0-5,0.1
		c-1.3,0.1-2.5,0.6-3.4,1.5c-0.3,0.3-0.7,0.6-1.1,0.8c-1.7,1.4-2.5,3.1-2.4,5.2c0,1.3,0.1,2.6,0.3,3.8c0.1,1,0.8,1.8,1.5,2.5
		c0.3,0.3,0.6,0.6,0.2,0.9c-0.4,0.4-0.7,0.1-1-0.2c-1.3-1-1.9-2.4-2-3.9c-0.1-1.8-0.1-3.6,0.1-5.3c0.1-0.9,0.7-1.9,1.3-2.6
		c1.6-1.9,3.5-3.5,6.2-3.8c1.1-0.1,2.2,0,3.3,0C298.8,135.5,298.8,135.5,298.8,135.4z"/>
	<path d="M292,146c0.2-0.3,0.3-0.5,0.4-0.6c0.3-0.3,0.6-0.6,1-0.9c0.8-0.6,0.7-1.5,0.8-2.3c0-0.1-0.1-0.3-0.2-0.4
		c-0.3-0.3-0.6-0.6-0.8-0.9c-0.1-0.2,0-0.5,0-0.8c0.3,0,0.7,0,0.8,0.1c0.6,1,1.6,1.1,2.7,1.1c1.6,0,3.3,0.1,4.9,0.1
		c0.2,0,0.4-0.1,0.6-0.3c0.3-0.2,0.6-0.5,0.9-0.6c0.2-0.1,0.5,0.1,0.8,0.1c-0.1,0.3-0.1,0.6-0.2,0.7c-0.3,0.4-0.7,0.7-1,1.1
		c-0.5,0.6-0.4,1.8,0.2,2.4c0.4,0.3,0.8,0.6,1.1,1c0.2,0.3,0.3,0.8,0.2,1c-0.3,0.4-0.8,0.2-1-0.2c-0.7-1.2-1.9-1.1-3.1-1.2
		c-1.7-0.1-3.4-0.3-5.1-0.5c-0.2,0-0.5,0-0.7,0.2c-0.3,0.3-0.5,0.7-0.9,0.9c-0.2,0.2-0.5,0.3-0.7,0.3
		C292.3,146.5,292.2,146.2,292,146z M301.4,144.7c-0.1-0.5-0.2-0.8-0.2-1.1c-0.2-1.1-0.2-1.1-1.4-1.1c-1.5,0-3,0-4.5,0
		c0,0.5-0.1,1.1-0.2,1.7C297.2,144.4,299.2,144.5,301.4,144.7z"/>
	<path d="M308,218.2c-0.2-0.2-0.5-0.3-0.6-0.5s0-0.5,0.2-0.7c0.3-0.3,0.7-0.5,1-0.7c2.1-1.5,3.7-3.4,5.3-5.4c0.5-0.6,1-1.1,1.5-1.6
		c0.2-0.2,0.6-0.2,0.9-0.2c0,0.3,0.1,0.7,0,0.9c-1.3,1.6-2.6,3.2-4,4.7c-1,1.1-2.1,2-3.2,3C308.7,217.8,308.4,217.9,308,218.2z"/>
	<path d="M297.4,217.6c-0.2-0.1-0.4-0.2-0.5-0.3c-0.1-0.2-0.1-0.4,0-0.5c0.1-0.2,0.3-0.3,0.5-0.4c1.6-1,3.2-2,4.8-3
		c0.7-0.5,1.4-0.9,2.1-1.4c0.3-0.3,0.6-0.6,0.9-0.9c0.1-0.1,0.2-0.3,0.4-0.4c0.3-0.1,0.7-0.1,1-0.2c0,0.3,0.2,0.8,0.1,1
		c-0.4,0.5-0.8,1-1.3,1.4s-1.2,0.7-1.7,1.1c-1.7,1.1-3.4,2.1-5.1,3.2C298.2,217.3,297.8,217.4,297.4,217.6z"/>
	<path d="M288.8,214.1c-0.2-0.1-0.5-0.3-0.5-0.5s0.2-0.5,0.4-0.6c1-0.4,2.1-0.6,3-1c1.6-0.8,3.2-1.6,4.8-2.5
		c0.2-0.1,0.4-0.2,0.6-0.3c0.4-0.2,0.8-0.4,1.1,0.1c0.3,0.5-0.1,0.8-0.4,1c-0.5,0.3-1,0.7-1.6,0.9c-1.8,0.9-3.7,1.7-5.6,2.5
		C290.1,213.9,289.5,214,288.8,214.1z"/>
	<path d="M321.4,209.5c0.1,0.3,0.4,0.5,0.3,0.8c0,0.3-0.2,0.7-0.4,1c-1.2,1.7-2.4,3.4-3.6,5.1c-0.1,0.1-0.2,0.2-0.3,0.3
		c-0.2,0.1-0.6,0.2-0.7,0.1c-0.1-0.1-0.2-0.5-0.1-0.7c0.2-0.5,0.5-0.9,0.8-1.4c1-1.5,1.9-2.9,2.9-4.4c0.2-0.3,0.5-0.5,0.7-0.8
		C321.2,209.5,321.3,209.5,321.4,209.5z"/>
	<path d="M337.5,142c0.1,1.2,0.3,2.6,0.4,3.9c0,0.3,0.2,0.5,0.1,0.8c0,0.2-0.2,0.5-0.3,0.7c-0.3-0.1-0.7-0.2-0.8-0.4
		c-0.2-0.7-0.4-1.3-0.4-2c-0.1-1.2,0-2.3,0-3.5c-0.3-0.1-0.5-0.2-0.9-0.3c-0.1,0.4-0.1,0.7-0.2,1c-0.2,1.2-0.2,2.5,0.4,3.7
		c0.1,0.2,0.2,0.5,0.2,0.8c0,0.2-0.2,0.6-0.4,0.6c-0.2,0-0.6-0.1-0.7-0.3c-0.6-1.3-1-2.7-0.8-4.1c0.1-0.6,0.1-1.2,0.2-1.8
		c-1.2-0.5-2.4-0.9-3.6-1.5c-0.1,0.6-0.3,1.3-0.5,2.1c-0.1,0.6-0.1,1.2-0.2,1.8c-0.1,0.3-0.4,0.5-0.5,0.7c-0.2-0.2-0.5-0.4-0.5-0.7
		c-0.1-2,0.1-3.9,1.3-5.6c0.8-1.1,1.7-2,2.8-2.8c1.5-1.1,3.2-2,5.1-2.4c3.6-0.7,7.3-0.7,10.6,1c1.8,0.9,3.1,2.3,3.5,4.3
		c0.2,0.7,0.4,1.5,0.6,2.2c0,0.1,0,0.1,0,0.2c-0.3,1.9-0.5,3.9-0.8,5.8c-0.1,0.4-0.3,0.7-0.8,0.6c-0.5-0.1-0.5-0.5-0.4-0.9
		c0.2-1.4,0.4-2.9,0.6-4.4c-1.6,0.5-3,1.3-4.6,1.2c-0.3,1.4-0.5,2.8-0.8,4.1c-0.1,0.4-0.3,0.8-0.8,0.6c-0.5-0.1-0.4-0.5-0.3-0.9
		c0.3-1.2,0.5-2.5,0.8-3.8c-0.3,0-0.6,0-0.8,0c-0.3,1.3-0.5,2.6-0.8,4c-0.1,0.4-0.3,0.7-0.7,0.6c-0.5-0.1-0.5-0.4-0.4-0.8
		c0.3-1.2,0.5-2.5,0.8-3.7C341.7,142.5,339.7,142.2,337.5,142z M350.6,136.5c-0.4,0.3-0.6,0.4-0.8,0.5c-2.2,1.3-4.1,0.6-4.7-1.7
		c-0.1-0.4,0-0.9-0.1-1.4c0-0.2-0.2-0.4-0.4-0.4c-1.1-0.1-2.2-0.1-3.4-0.1c-0.5,0-0.9,0.1-1,0.7c-0.3,1.3-2,2.5-3.2,2.4
		c-1-0.1-1.9-0.4-3.1-0.7c-0.8,0.8-1.7,1.7-2.6,2.6c1.3,0.9,2.7,1.2,4.1,1.6c2.2,0.6,4.3,1.4,6.7,1.3c0.6,0,1.3,0.1,2,0.1
		c2.5,0.3,4.9,0,7.1-1.1c0.1-0.1,0.3-0.3,0.3-0.4C351.2,138.8,350.9,137.7,350.6,136.5z M346.4,133.8c-0.3,0.9,0.1,2.2,0.9,2.6
		c0.6,0.3,1.7-0.1,2.4-0.9C348.5,134.9,347.5,134.4,346.4,133.8z M335.5,134.9c2,0.6,3.3,0.1,3.5-1.4
		C337.9,133.9,336.8,134.4,335.5,134.9z"/>
	<path d="M325.3,140.3c-0.2-4.5,2.2-7.6,6.1-10c2.9-1.8,6.1-2.4,9.5-2.3c2.5,0.1,5.2,0.3,7.5,1.5c2.1,1.1,4.1,2.4,5.3,4.4
		c0.6,0.9,1.3,1.8,1.8,2.8c0.8,1.8,1.3,3.7,1.2,5.7c0,0.5,0,1.1,0,1.6c0,0.3-0.1,0.7-0.4,0.9c-0.1,0.1-0.5,0.2-0.7,0.1
		c-0.1,0-0.3-0.4-0.3-0.5c0.3-2.3,0.2-4.5-0.6-6.7c-0.2-0.6-0.5-1.2-0.8-1.7c-1.4-2.2-3-4.1-5.5-5.3c-0.6-0.3-1.2-0.4-1.7-0.7
		c-2.2-1-4.5-1.2-6.8-1.1c-4,0.1-7.7,1.5-10.6,4.3c-2.1,2.1-3.1,4.7-2.6,7.6c0.1,0.5,0,1.1-0.1,1.6c0,0.2-0.3,0.4-0.4,0.4
		c-0.2,0-0.5-0.2-0.5-0.4C325.4,142,325.3,141.1,325.3,140.3z"/>
	<path d="M298.6,183.8c-1.3,0-1.8,0.3-2.2,1.5c-0.1,0.3-0.2,0.6-0.4,0.8c-0.2,0.2-0.6,0.4-0.9,0.3c-0.2-0.1-0.5-0.4-0.6-0.7
		c-0.1-0.9,0.3-1.7,0.8-2.4c1-1.4,2.4-1.7,4.1-1.3c0.6,0.1,0.8,0.5,0.8,1s-0.4,0.7-0.9,0.7C299.1,183.8,298.8,183.8,298.6,183.8z"/>
	<path d="M291.7,234.9c0.2,0.2,0.4,0.5,0.4,0.7s-0.3,0.4-0.5,0.6c-0.2-0.2-0.5-0.4-0.6-0.6c0-0.2,0.3-0.5,0.4-0.7
		C291.5,234.9,291.6,234.9,291.7,234.9z"/>
	<path d="M293.6,231.7c-0.4,0.3-0.6,0.6-0.8,0.6c-0.2,0-0.6-0.3-0.6-0.5s0.3-0.6,0.5-0.6C292.9,231.1,293.2,231.4,293.6,231.7z"/>
	<path d="M282.5,235.8c-0.4,0.3-0.6,0.6-0.8,0.6c-0.2,0-0.6-0.4-0.6-0.6c0-0.2,0.3-0.4,0.5-0.6C281.9,235.3,282.2,235.5,282.5,235.8
		z"/>
	<path d="M285.2,238.6c0.2,0.2,0.5,0.5,0.4,0.7c0,0.2-0.4,0.4-0.5,0.6c-0.2-0.2-0.5-0.4-0.6-0.6c0-0.2,0.3-0.5,0.4-0.7
		C285.1,238.6,285.2,238.6,285.2,238.6z"/>
	<path d="M290.1,238.3c-0.4,0.3-0.6,0.6-0.8,0.6c-0.2,0-0.4-0.3-0.7-0.5c0.2-0.2,0.4-0.5,0.6-0.5
		C289.4,237.8,289.7,238.1,290.1,238.3z"/>
</g>
</svg>
