<?xml version="1.0" encoding="UTF-8"?>
<svg version="1.1" viewBox="0 0 2400 1200" xmlns="http://www.w3.org/2000/svg">
<rect width="2400" height="1200" fill="#fff"/>
<path d="m0 0h400v600h-400z" fill="#008651"/>
<path d="m800 0h400v600h-400z" fill="#008651"/>
<path transform="matrix(4.694 0 0 4.7305 -1.6698 13.384)" d="m432.43 124.01c0 36.102-21.762 65.367-48.607 65.367s-48.607-29.265-48.607-65.367c0-36.102 21.762-65.367 48.607-65.367s48.607 29.265 48.607 65.367z" fill="#fbea0d" fill-rule="evenodd" stroke="#000"/>
<path transform="matrix(3.4742 0 0 3.8725 466.53 119.78)" d="m432.43 124.01c0 36.101-21.762 65.366-48.606 65.366-26.844 0-48.606-29.266-48.606-65.366 0-36.102 21.762-65.367 48.606-65.367 26.844 0 48.606 29.266 48.606 65.367z" fill="#0073a8" fill-rule="evenodd" stroke="#000" stroke-width="1.2847"/>
<path transform="matrix(4.694 0 0 4.7005 .29713 22.62)" d="m377.85 121.11c-0.18807 0.77867-1.701 1.7643-3.1656 1.0837 0.13564 0.45124 0.27212 0.72299-0.15978 0.9457-0.67989 0.36316-1.582 0.40471-2.2419-0.027424-0.87961-0.3241-1.676-1.0122-1.9057-1.9496-0.11068-0.38476-0.15312-0.78614-0.15728-1.1859 0.37614-0.7205 1.1284-1.2474 1.9356-1.3496 0.45187-0.050692 0.60416 0.4687 0.94202 0.77202 0.069071-1.844 2.271-2.4764 3.4577-1.9861 0.39196 0.12133 0.002497 0.59169 0.082386 0.88919-0.044106 0.9457 0.33121 1.8856 0.9828 2.5687 0.074064 0.082271 0.15146 0.16205 0.22968 0.23933zm0 0" fill="#008651" fill-rule="evenodd" stroke="#000" stroke-linecap="round" stroke-width=".5"/>
<path transform="matrix(4.694 0 0 4.7005 .29713 22.62)" d="m369.25 119.84c-0.76061 0.014127-1.5137 0.62493-1.413 1.8307-0.82302-1.4884-2.3168 0.88919-1.5886 2.395 0.67323 1.3903 1.0227 1.2166 1.6669 1.4933 0.83218 0.22354 2.7362-0.10055 1.9814-0.87257 0.7914 0.3 2.1578-0.11634 2.3759-0.9806 0.081553-0.30166 0.16976-0.68144-0.24632-0.72299-0.75478-0.32992-1.3997-0.95484-1.6277-1.7609-0.12732-0.40637-0.17476-0.83351-0.17975-1.2573-0.3154-0.083933-0.64244-0.12632-0.96865-0.12465zm0 0" fill="#fff" fill-rule="evenodd" stroke="#000" stroke-linecap="round" stroke-width=".5"/>
<path transform="matrix(4.694 0 0 4.7005 .29713 22.62)" d="m379.99 117.19c-0.89209-1.1676-2.2702-0.9831-2.8918-0.36897-0.40527 0.40803-0.42857 1.0222-0.46685 1.5615-0.04577 1.0296 0.4527 2.0136 1.1834 2.7149 0.39112 0.34487 2.5107 0.43629 2.7978-0.74958 1.1509 1.1809 2.6338 0.48365 2.7936 0.13379v-3.4496c-0.3104-0.52936-0.94452-0.73961-1.5021-0.9-0.79223-0.20277-1.8291-0.25845-1.914 1.0579zm0 0" fill="#fff" fill-rule="evenodd" stroke="#000" stroke-linecap="round" stroke-width=".5"/>
<path transform="matrix(4.694 0 0 4.7005 .29713 22.62)" d="m388.96 121.11c0.18807 0.77867 1.701 1.7643 3.1656 1.0837-0.13564 0.45124-0.27212 0.72299 0.15978 0.9457 0.67989 0.36316 1.582 0.40471 2.2419-0.027424 0.87961-0.3241 1.676-1.0122 1.9057-1.9496 0.11068-0.38476 0.15312-0.78614 0.15728-1.1859-0.37614-0.7205-1.1284-1.2474-1.9356-1.3496-0.45187-0.050692-0.60416 0.4687-0.94202 0.77202-0.06907-1.844-2.271-2.4764-3.4577-1.9861-0.39196 0.12133-0.002497 0.59169-0.082386 0.88919 0.044106 0.9457-0.33121 1.8856-0.9828 2.5687-0.074064 0.082271-0.15146 0.16205-0.22968 0.23933zm0 0" fill="#fff" fill-rule="evenodd" stroke="#000" stroke-linecap="round" stroke-width=".5"/>
<path transform="matrix(4.694 0 0 4.7005 .29713 22.62)" d="m397.56 119.84c0.76061 0.014127 1.5137 0.62493 1.413 1.8307 0.82302-1.4884 2.3168 0.88919 1.5886 2.395-0.67323 1.3903-1.0227 1.2166-1.6669 1.4933-0.83218 0.22354-2.7362-0.10055-1.9814-0.87257-0.7914 0.3-2.1578-0.11634-2.3759-0.9806-0.081554-0.30166-0.16976-0.68144 0.24632-0.72299 0.75478-0.32992 1.3997-0.95484 1.6277-1.7609 0.12732-0.40637 0.17476-0.83351 0.17975-1.2573 0.3154-0.083933 0.64244-0.12632 0.96865-0.12465zm0 0" fill="#008651" fill-rule="evenodd" stroke="#000" stroke-linecap="round" stroke-width=".5"/>
<path transform="matrix(4.694 0 0 4.7005 .29713 22.62)" d="m386.82 117.19c0.89209-1.1676 2.2702-0.9831 2.8918-0.36897 0.40527 0.40803 0.42857 1.0222 0.46685 1.5615 0.04577 1.0296-0.4527 2.0136-1.1834 2.7149-0.39112 0.34487-2.5107 0.43629-2.7978-0.74958-1.1509 1.1809-2.6338 0.48365-2.7936 0.13379v-3.4496c0.3104-0.52936 0.94452-0.73961 1.5021-0.9 0.79223-0.20277 1.8291-0.25845 1.914 1.0579zm0 0" fill="#008651" fill-rule="evenodd" stroke="#000" stroke-linecap="round" stroke-width=".5"/>
<path transform="scale(.4)" d="m4393.7 1997.7c-5.0488-2.793-10.039-6.9336-15.039-9.5508-5.3223-2.7832-9.8145-5.752-15.029-8.4473-2.1387 4.6875-5.9277 9.6484-7.334 14.326-8.0078 26.523-5.1953 50.166-6.2402 77.109l-0.73242 17.627 35.205 1.4746 0.73242-17.627c1.1426-29.639-0.73242-50.059 4.7656-68.311 0.625-2.0605 2.832-4.4922 3.6719-6.6016zm0 0" fill="#fff" fill-rule="evenodd" stroke="#000" stroke-linecap="square" stroke-width="5.8716"/>
<path transform="scale(.4)" d="m4299.8 1526.9v43.701h165.75v396.24c-60.938-13.916-114.88-41.953-163.55-80.43 17.207-11.602 44.717-13.408 74.072-12.852-49.072-11.113-109.31-26.934-182.26-67.93 11.592 81.309 43.867 142.42 86.543 186.55-5.4199-28.428-8.7598-56.777-8.0664-85.205 48.135 82.383 160.04 71.025 227.73 189.13 67.695-118.11 179.6-106.75 227.73-189.13 0.69336 28.428-2.6465 56.777-8.0664 85.205 42.676-44.131 74.951-105.24 86.543-186.55-72.949 40.996-133.18 56.816-182.26 67.93 29.355-0.55664 56.865 1.25 74.072 12.852-48.672 38.477-102.62 66.514-163.55 80.43v-396.24h165.75v-43.701z" fill="#fff" fill-rule="evenodd" stroke="#000" stroke-width="5.8716"/>
<path transform="scale(.4)" d="m4534.5 1673.1v37.832c13.291 5.791 25.391 12.061 34.473 19.092 15.781 12.217 23.936 24.648 23.467 46.27-0.32226 14.785-5.498 25.84-15.4 37.09-9.9023 11.25-24.756 21.885-42.178 31.953-0.058593 0.058594-0.30273 0.30274-0.36133 0.36133-21.221 12.236-45.332 24.16-68.945 37.09-15.078 8.2617-30.371 16.357-43.271 26.816-13.584 11.006-21.748 20.928-30.801 30.84 0.13672 0.12695 0.22461 0.60547 0.36133 0.74219 0.06836 0.058593 1.3672 1.416 1.4648 1.4648 10.225 4.6094 20.518 8.7598 31.172 12.49 1.0254-0.53711 2.1973-1.2207 3.3008-1.8457 5.8008-5.498 9.0723-9.834 16.875-16.152 5.625-4.5605 14.014-8.5645 20.898-12.852 20.723-12.91 44.131-25.684 68.945-38.926 6.0254-3.2227 12.1-6.1621 17.969-9.5508 19.023-11.006 36.973-23.398 50.977-39.297 13.994-15.898 23.682-35.928 24.199-59.492 0.70312-32.432-15.254-58.047-37.041-74.912-16.377-12.686-36.006-21.309-56.104-29.014zm0 0" fill="#fff" fill-rule="evenodd" stroke="#000" stroke-linecap="square" stroke-width="5.8716"/>
<path transform="scale(.4)" d="m4496.3 1452.4c-20.166 1.7969-35.938 19.004-35.938 39.658 0 21.855 17.764 39.658 39.59 39.658s39.59-17.803 39.59-39.658c0-21.846-17.764-39.658-39.59-39.658-1.0059 0-3.4766-0.009766-3.6523 0zm3.0566 30.225c0.20508-0.019531 0.39062 0 0.5957 0 5.1953 0 9.4043 4.209 9.4043 9.4043s-4.209 9.4043-9.4043 9.4043-9.4043-4.209-9.4043-9.4043c0-4.9902 3.8965-9.0918 8.8086-9.4043zm0 0" fill="#fff" fill-rule="evenodd" stroke="#000" stroke-linecap="square" stroke-width="5.8716"/>
<path transform="scale(.4)" d="m4397 1570.6h-35.576c-0.17578 14.209 1.6309 29.199 7.334 45.166 9.3262 26.084 31.641 42.227 56.113 53.984 12.695 6.0938 26.885 10.244 40.703 15.059v-37.461c-8.3301-3.0664-18.584-5.7715-25.674-9.1797-20.693-9.9414-33.418-20.967-38.135-34.15-4.6484-12.988-4.9902-23.389-4.7656-33.418zm0 0" fill="#fff" fill-rule="evenodd" stroke="#000" stroke-linecap="square" stroke-width="5.8716"/>
<path transform="scale(.4)" d="m4477.3 1475.9-17.236 2.5684c-27.246 4.1895-62.129 8.1836-80.684 33.789-3.1934 4.4043-5.6152 9.6484-8.0664 14.688h43.643c13.691-10.205 34.873-11.221 50.244-13.594l17.598-2.5684zm0 0" fill="#fff" fill-rule="evenodd" stroke="#000" stroke-linecap="square" stroke-width="5.8716"/>
<path transform="scale(.4)" d="m4434 1483 6.0059 32.549" fill="#fff" fill-rule="evenodd" stroke="#000" stroke-linecap="square" stroke-width="5.8716"/>
<path transform="scale(.4)" d="m4386.3 1506 18.73 19.453" fill="#fff" fill-rule="evenodd" stroke="#000" stroke-linecap="square" stroke-width="5.8716"/>
<path transform="scale(.4)" d="m4363.4 1591.6 32.5-7.4316" fill="#fff" fill-rule="evenodd" stroke="#000" stroke-linecap="square" stroke-width="5.8716"/>
<path transform="scale(.4)" d="m4383.2 1637.6 27.549-16.621" fill="#fff" fill-rule="evenodd" stroke="#000" stroke-linecap="square" stroke-width="5.8716"/>
<path transform="scale(.4)" d="m4440.4 1640.1-14.482 29.014" fill="#fff" fill-rule="evenodd" stroke="#000" stroke-linecap="square" stroke-width="5.8716"/>
<path transform="scale(.4)" d="m4562.4 1688.6-14.99 27.021" fill="#fff" fill-rule="evenodd" stroke="#000" stroke-linecap="square" stroke-width="5.8716"/>
<path transform="scale(.4)" d="m4597.4 1712.7-20.986 21.016" fill="#fff" fill-rule="evenodd" stroke="#000" stroke-linecap="square" stroke-width="5.8716"/>
<path transform="scale(.4)" d="m4592.4 1759.7 31.982-4.0039" fill="#fff" fill-rule="evenodd" stroke="#000" stroke-linecap="square" stroke-width="5.8716"/>
<path transform="scale(.4)" d="m4589.4 1796.7 29.99 10.01" fill="#fff" fill-rule="evenodd" stroke="#000" stroke-linecap="square" stroke-width="5.8716"/>
<path transform="scale(.4)" d="m4565.4 1825.8 18.994 24.023" fill="#fff" fill-rule="evenodd" stroke="#000" stroke-linecap="square" stroke-width="5.8716"/>
<path transform="scale(.4)" d="m4528.4 1850.8 15.986 27.021" fill="#fff" fill-rule="evenodd" stroke="#000" stroke-linecap="square" stroke-width="5.8716"/>
<path transform="scale(.4)" d="m4488.6 1870.8 19.248 28.018" fill="#fff" fill-rule="evenodd" stroke="#000" stroke-linecap="square" stroke-width="5.8716"/>
<path transform="scale(.4)" d="m4451.4 1890.8 17.988 28.018" fill="#fff" fill-rule="evenodd" stroke="#000" stroke-linecap="square" stroke-width="5.8716"/>
<path transform="scale(.4)" d="m4415.6 1916.2 22.812 22.637" fill="#fff" fill-rule="evenodd" stroke="#000" stroke-linecap="square" stroke-width="5.8716"/>
<path transform="scale(.4)" d="m4355.6 2011.5 27.246 8.6133" fill="#fff" fill-rule="evenodd" stroke="#000" stroke-linecap="square" stroke-width="5.8716"/>
<path transform="scale(.4)" d="m4352.1 2051 31.553 2.8711" fill="#fff" fill-rule="evenodd" stroke="#000" stroke-linecap="square" stroke-width="5.8716"/>
<path d="m1619.5 570.25-33.539-3.8438 0.82422-7.2305 24.605-10.992-23.047-2.6445 0.78125-6.8164 33.539 3.8438-0.8125 7.1367-24.613 11.086 23.043 2.6445-0.78125 6.8164m7.0898-47.977-32.961-7.3203 1.5039-6.7891 32.961 7.3203-1.5039 6.7891m10.629-51.137c1.1914 1.7422 1.9023 3.5 2.1289 5.2773 0.23047 1.7656-0.007813 3.668-0.71094 5.707-1.5469 4.4648-4.3438 7.5508-8.3906 9.2578-4.0625 1.6836-8.6094 1.6523-13.648-0.09375-5.082-1.7617-8.6719-4.5508-10.762-8.3711-2.0938-3.8164-2.3438-8.0234-0.75391-12.621 1.3867-4.0078 3.4766-6.9414 6.2695-8.8047 2.7812-1.8711 5.9297-2.4648 9.4453-1.7812l-2.3164 6.7031c-1.8008-0.17188-3.3516 0.22266-4.6562 1.1797-1.293 0.94531-2.2891 2.4219-2.9844 4.4297-0.92578 2.6758-0.67188 5.1211 0.76172 7.332 1.4258 2.1953 3.8633 3.8906 7.3125 5.0859 3.4648 1.2031 6.457 1.3477 8.9688 0.4375 2.5156-0.90625 4.25-2.75 5.2109-5.5273 0.71875-2.082 0.71094-4.0391-0.035156-5.8633-0.74219-1.8281-2.1211-3.2812-4.1445-4.3555l-2.5039 7.2461-5.457-1.8945 4.5742-13.23 17.262 5.9883-1.5234 4.4023-4.0469-0.50391m13.734-22.305-29.793-15.898 11.52-21.656 5.1797 2.7656-8.3008 15.594 6.3516 3.3906 7.5898-14.258 5.0977 2.7188-7.5898 14.258 7.668 4.0938 8.6875-16.328 5.5 2.9375-11.91 22.383m11.488-55.434 5.0742-6.3984c1.1016-1.3906 1.6289-2.6328 1.582-3.7266-0.039063-1.1055-0.66406-2.1406-1.875-3.1016-1.1484-0.91016-2.2656-1.2852-3.3555-1.1172-1.1016 0.16016-2.1523 0.86719-3.1523 2.1289l-5.2734 6.6484 7 5.5664m10.559 17.281-26.438-21.027 10.18-12.832c2.2891-2.8906 4.6016-4.5391 6.9375-4.9453 2.3359-0.41016 4.7695 0.39453 7.3086 2.4102 1.6133 1.2852 2.6875 2.6953 3.2227 4.2383 0.54688 1.5273 0.51172 3.082-0.10156 4.6641 1.3203-0.82422 2.5898-1.1445 3.8086-0.95703 1.2266 0.17578 2.7539 0.92969 4.582 2.2656l3.207 2.375c0.023438 0.019531 0.058594 0.050781 0.10938 0.085937 1.6055 1.2227 2.8359 1.6406 3.6836 1.2617l0.80469 0.64062-4.7305 5.9688c-0.52344-0.10547-1.0977-0.31641-1.7227-0.63672-0.625-0.33984-1.3242-0.80078-2.0977-1.375l-2.8398-2.1406c-1.6836-1.2461-3.0391-1.8125-4.0586-1.707-1.0117 0.09375-2.0938 0.86719-3.2422 2.3164l-4.5781 5.7695 10.285 8.1797-4.3203 5.4453m31.309-35.246-22.184-25.484 5.2344-4.5703 22.184 25.484-5.2344 4.5703m19.777-47.074 2.6953 14.891 8.2539-4.4531-10.949-10.438m-6.7578-4.0469 7.0625-3.8086 26.723 23.984-6.418 3.4609-5.3086-5.0312-11.523 6.2109 1.3359 7.1797-6.4375 3.4727-5.4336-35.469m50 14.879-5.0273-33.434 7.1836-1.082 17.008 20.922-3.457-22.969 6.7773-1.0195 5.0312 33.43-7.0938 1.0703-17.102-20.91 3.457 22.969-6.7773 1.0234m130.92 37.902 24.691-23.059 4.9531 5.3203-7.6133 25.879 16.961-15.84 4.6758 5.0156-24.691 23.059-4.8906-5.2539 7.5508-25.945-16.965 15.844-4.6719-5.0195m60.645 33.566-14.703 3.5 4.8828 8.0117 9.8203-11.512m3.6719-6.9727 4.1758 6.8594-22.48 28.008-3.7969-6.2305 4.7344-5.5781-6.8164-11.191-7.0859 1.7227-3.8086-6.25 35.078-7.3398m-8.0859 57.516 26.762-23.676 2.9414 7.1289-20.613 16.289 26.137-2.8828 2.9062 7.043-35.598 2.25-2.5352-6.1523m15.844 47.332-1.7852-6.7227 12.16-3.2383 17.316-17.32 2.1836 8.2305-12.207 10.734 15.777 2.707 2.0391 7.6758-23.324-5.3047-12.16 3.2383"/>
<path d="m1603.7 654.65c-3.6602 0.625-6.3672 1.9297-8.125 3.9062-1.7383 1.9727-2.3594 4.4219-1.8594 7.3477 0.50391 2.957 1.9062 5.0859 4.207 6.3828 2.3125 1.2969 5.3008 1.6328 8.9609 1.0039 3.6562-0.625 6.3555-1.9336 8.0938-3.9219 1.7539-1.9922 2.3789-4.4688 1.8711-7.4219-0.5-2.9297-1.8945-5.0312-4.1914-6.3164-2.2969-1.2812-5.2812-1.6094-8.957-0.98047m-1.1953-6.9922c5.3789-0.91797 9.8906-0.1875 13.539 2.1992 3.6641 2.4023 5.9219 6.0898 6.7695 11.066 0.85156 4.9766-0.054688 9.207-2.7148 12.691-2.6602 3.4961-6.668 5.7031-12.031 6.6211s-9.875 0.17188-13.543-2.2422c-3.6641-2.4023-5.9219-6.0898-6.7734-11.066-0.84766-4.9766 0.054687-9.207 2.7188-12.691 2.6602-3.4648 6.6758-5.6602 12.035-6.5781m-6.5039 53.812 32.23-10.074 2.1641 6.9453-18.059 20.023 22.141-6.9219 2.043 6.5508-32.227 10.074-2.1367-6.8594 18.027-20.109-22.141 6.9219-2.043-6.5508m18.371 51.66 25.984-23.66 3.1875 6.4609-18.793 15.75 23.516-6.1836 3.2773 6.6484-19.188 14.945 23.91-5.3789 3.1562 6.3984-34.539 6.3164-2.9375-5.9453 20.863-16.164-25.504 6.7578-2.9336-5.9453m53.539 38.648-14.355 4.7227 5.5352 7.5742 8.8203-12.297m3.0742-7.2578 4.7383 6.4805-20.051 29.805-4.3047-5.8867 4.2461-5.9609-7.7305-10.574-6.9141 2.3125-4.3203-5.9102 34.336-10.266m14.074 40.02 5.8906 5.6562c1.2773 1.2266 2.4648 1.8672 3.5547 1.9219 1.1055 0.0625 2.1914-0.46094 3.2578-1.5781 1.0156-1.0586 1.4922-2.1406 1.4258-3.2422-0.054688-1.1133-0.66406-2.2266-1.8203-3.3398l-6.1211-5.8789-6.1875 6.4609m-18.164 8.918 23.367-24.398 11.812 11.344c2.6562 2.5508 4.082 5.0117 4.2695 7.375 0.19141 2.3672-0.83594 4.7227-3.0781 7.0625-1.4258 1.4922-2.9297 2.4297-4.5117 2.8203-1.5703 0.40234-3.1133 0.22266-4.6289-0.53516 0.69922 1.3906 0.89844 2.6875 0.59766 3.8828-0.28906 1.207-1.1797 2.6602-2.6797 4.3594l-2.6602 2.9766c-0.023437 0.023438-0.054687 0.054688-0.097656 0.097656-1.3633 1.4922-1.8945 2.6758-1.5938 3.5586l-0.71484 0.74609-5.4922-5.2773c0.15234-0.51172 0.41797-1.0625 0.79297-1.6562 0.39844-0.58984 0.91797-1.2461 1.5625-1.9609l2.3945-2.6328c1.3945-1.5664 2.0859-2.8633 2.0742-3.8906 0-1.0156-0.66797-2.168-2-3.4492l-5.3125-5.0977-9.0898 9.4922-5.0117-4.8164m44.191 29.461 4.7539 2.9062c2.75 1.6836 5.1758 2.1797 7.2773 1.4961 2.125-0.69531 4.1719-2.6602 6.1484-5.8945 1.9688-3.2266 2.8398-5.9492 2.6172-8.1641-0.22266-2.2188-1.5547-4.0703-3.9922-5.5625l-5.4766-3.3516-11.328 18.57m-8.9883 1.6562 17.602-28.852 11.285 6.9023c4.4219 2.7031 6.9844 5.9141 7.6914 9.6289 0.71875 3.7188-0.40234 8.0078-3.3672 12.867-1.6055 2.6367-3.4297 4.7148-5.4648 6.2305-2.0234 1.5234-4.1719 2.4336-6.4453 2.7266-1.7031 0.21484-3.4102 0.074219-5.1172-0.41406-1.6992-0.5-3.8672-1.5586-6.5-3.168l-9.6836-5.9219m114.56 31.676-3.6562-27.527-9.9297 1.3203-0.79297-5.9844 26.672-3.5508 0.79688 5.9844-9.8633 1.3125 3.6562 27.531-6.8828 0.91406m32-24.613c1.4883 3.4062 3.4023 5.7266 5.7422 6.9531 2.332 1.2188 4.8555 1.2305 7.5703 0.039062 2.7461-1.2031 4.4688-3.0781 5.1719-5.625 0.69922-2.5586 0.30469-5.543-1.1836-8.9492s-3.4062-5.7148-5.7539-6.9258c-2.3555-1.2227-4.9023-1.2305-7.6445-0.03125-2.7148 1.1914-4.418 3.0586-5.1094 5.5977-0.69141 2.543-0.28906 5.5234 1.207 8.9414m-6.4883 2.8438c-2.1875-5.0039-2.5664-9.5664-1.1289-13.684 1.4414-4.1406 4.4727-7.2227 9.0938-9.25 4.6172-2.0234 8.9336-2.1602 12.953-0.41406 4.0273 1.7383 7.1328 5.1055 9.3164 10.094 2.1797 4.9922 2.543 9.5586 1.0859 13.707-1.4414 4.1406-4.4727 7.2227-9.0938 9.2461-4.6172 2.0273-8.9375 2.1641-12.953 0.41797-4-1.7539-7.0938-5.125-9.2734-10.117m69.617-26.246c0.066406 2.1133-0.28125 3.9766-1.0508 5.5977-0.75391 1.6094-1.9766 3.082-3.668 4.418-3.707 2.9297-7.7266 4.0195-12.055 3.2695-4.3242-0.77344-8.1406-3.2539-11.445-7.4492-3.332-4.2266-4.8477-8.5117-4.5547-12.859 0.29297-4.3438 2.3477-8.0234 6.1641-11.039 3.3203-2.625 6.6602-3.9688 10.02-4.0273 3.3477-0.074219 6.3203 1.125 8.9102 3.6016l-5.5586 4.3906c-1.4258-1.1133-2.9414-1.6211-4.5547-1.5156-1.5977 0.09375-3.2344 0.80078-4.8984 2.1172-2.2227 1.7539-3.3242 3.9492-3.3086 6.5859 0.019531 2.6172 1.1602 5.3633 3.4219 8.2344 2.2734 2.8828 4.7109 4.6172 7.3164 5.2109 2.6094 0.58984 5.0625-0.023438 7.3672-1.8438 1.7266-1.3672 2.7695-3.0195 3.1289-4.957 0.35938-1.9414-0.023437-3.9102-1.1484-5.9062l-6.0117 4.75-3.5781-4.543 10.977-8.6719 11.316 14.363-3.6523 2.8828-3.1367-2.6094m20.977-14.586-25.602-22.039 15.969-18.605 4.4492 3.832-11.504 13.398 5.457 4.6992 10.52-12.254 4.3789 3.7695-10.516 12.254 6.5859 5.6719 12.043-14.027 4.7266 4.0664-16.508 19.234m31.066-40.43-23.527-14.703-5.3008 8.5078-5.1172-3.1953 14.246-22.859 5.1133 3.1953-5.2656 8.4531 23.527 14.699-3.6758 5.9023m17.035-29.785-30.91-13.598 2.8125-6.4062 11.52 5.0664 5.6055-12.777-11.523-5.0664 2.8125-6.4102 30.91 13.598-2.8125 6.4102-13.699-6.0273-5.6055 12.773 13.703 6.0273-2.8125 6.4102m17.988-44.891-32.445-9.3555 6.7812-23.578 5.6367 1.625-4.8828 16.984 6.918 1.9922 4.4609-15.527 5.5508 1.6016-4.4648 15.527 8.3477 2.4062 5.1133-17.777 5.9922 1.7266-7.0078 24.375m-6.6367-52.535 1.2891-8.0703c0.28125-1.75 0.13281-3.0938-0.44531-4.0234-0.57813-0.94141-1.6289-1.5352-3.1523-1.7812-1.4492-0.23047-2.6055-0.007813-3.4727 0.67578-0.88281 0.67969-1.4492 1.8125-1.7031 3.3984l-1.3398 8.3867 8.8242 1.4141m17.668 9.8711-33.34-5.3398 2.5859-16.18c0.58203-3.6445 1.7891-6.2148 3.625-7.7188 1.832-1.5039 4.3477-2 7.5469-1.4883 2.0391 0.32812 3.668 1.0312 4.8867 2.1094 1.2227 1.0625 1.957 2.4336 2.1992 4.1172 0.74219-1.3672 1.6914-2.2695 2.8438-2.707 1.1562-0.44922 2.8555-0.53906 5.1055-0.27344l3.957 0.49609c0.03125 0.003906 0.078126 0.011718 0.13672 0.019531 2 0.27344 3.2773 0.039062 3.8281-0.71094l1.0195 0.16406-1.2031 7.5234c-0.50391 0.16797-1.1094 0.26562-1.8086 0.28906-0.71484 0.011718-1.5508-0.042969-2.5039-0.16797l-3.5234-0.46875c-2.0781-0.25781-3.5391-0.085937-4.375 0.50781-0.83594 0.57812-1.3984 1.7812-1.6914 3.6094l-1.1602 7.2734 12.969 2.0781-1.0977 6.8672"/>
<path transform="scale(.4)" d="m4465.2 919.18c-7.959 0.26367-16.084 1.25-20.166 3.3008-0.33203 0.17578-0.83008 0.53711-1.1035 0.73242-0.25391 0.20508-0.53711 0.51758-0.73242 0.73242-0.039063 0.058594-0.32227 0.3125-0.36133 0.37109-0.11719 0.17578-0.29297 0.54688-0.37109 0.73242-0.019531 0.06836 0.019531 0.30273 0 0.37109-0.009766 0.068359 0.009766 0.29297 0 0.36133v0.37109c0.009766 0.14648-0.029297 0.58594 0 0.73242 0.37109 1.3672 1.2402 3.2715 3.3008 5.1465-10.352 0.14648-20.225 5.166-26.035 11.748-0.72266 0.83984-1.6113 2.0508-2.1973 2.9395-1.2305 1.8945-2.4023 4.2285-2.9395 6.2402-0.72266 2.9688-0.37109 6.3184 0.73242 9.1797 0.47852 1.1426 1.0254 2.5977 1.8359 3.6719 17.549 0 40.342-6.4941 40.342 31.582 0 25.566-30.439 77.422-50.244 82.266-1.1426 0.24414-2.5977 0.44922-3.6621 0.36133-0.53711-0.058593-1.3379-0.21484-1.8359-0.36133-1.2012-0.41016-2.627-1.2402-3.6719-2.207-4.541-4.4629-7.6953-14.639-7.6953-32.686 0-24.482 30.479-89.6-33.74-89.6-62.92 0-116.98 73.652-116.98 192.79 0 44.932 18.984 120.44 5.8691 244.21 0.029297 0.009765 0.33203 0 0.36133 0 0.039062-0.009766 0.32227 0.019531 0.37109 0 0.08789-0.048828 0.26367-0.30274 0.36133-0.37109 2.9004-1.9238 9.2676-10.01 10.635-11.377 4.541-4.5508 6.2695-10.039 8.0664-17.266 1.2012-4.7852 2.666-17.275 5.5078-21.66 0.039063-0.058594 0.32227-0.32227 0.36133-0.37109 0.078125-0.097656 0.2832-0.2832 0.37109-0.37109 0.078125-0.068359 0.27344-0.30273 0.36133-0.36133 0.048828-0.029297 0.32227-0.35156 0.37109-0.37109 0.048828-0.009765 0.32227 0.009766 0.36133 0h0.37109c0.048828 0.009766 0.3125-0.009765 0.37109 0 0.048828 0.019531 0.3125 0.3418 0.36133 0.37109s0.3125-0.029297 0.37109 0c0.097657 0.068359 0.25391 0.27344 0.36133 0.36133 0.058593 0.058594 0.3125 0.3125 0.37109 0.37109 0.058594 0.058594 0.30274 0.30273 0.36133 0.37109 1.2695 1.5723 2.7637 4.6191 4.4043 9.1797 1.5039-18.711 7.4023-32.588 12.471-37.832 0.53711-0.53711 1.3086-1.123 1.8262-1.4648 0.06836-0.039062 0.30274-0.33203 0.37109-0.37109 0.058594-0.029297 0.30273 0.029297 0.37109 0 0.058593-0.019531 0.30273-0.3418 0.36133-0.36133s0.3125 0.009766 0.37109 0c0.058593-0.009765 0.30273 0.009766 0.36133 0 0.058593-0.009765 0.3125 0 0.37109 0 0.058594 0 0.3125-0.009765 0.36133 0 0.058593 0.009766 0.3125-0.009765 0.37109 0 0.15625 0.058594 0.58594 0.27344 0.73242 0.36133 0.048828 0.039063 0.32227 0.33203 0.37109 0.37109 0.039062 0.048828 0.32227 0.32227 0.36133 0.37109 0.039063 0.048828 0.33203 0.30273 0.37109 0.36133 0.14648 0.25391 0.23438 0.79102 0.36133 1.1035 0.097656 0.25391 0.2832 0.82031 0.37109 1.1035 0.078125 0.29297 0.30273 0.77148 0.36133 1.1035 1.7676-5.6445 3.1934-10.293 4.7656-11.758 0.058594-0.039062 0.32226 0.039063 0.37109 0 0.048828-0.019531 0.3125-0.3418 0.37109-0.36133 0.048828-0.019531 0.30274 0 0.36133 0 0.058594 0 0.3125-0.009765 0.37109 0 0.17578 0.039063 0.52734 0.25391 0.73242 0.36133 0.06836 0.048829 0.29297 0.32227 0.36133 0.37109 1.0938 0.91797 2.6953 2.9297 4.4043 5.8789 1.6895-8.1836 2.7051-16.006 4.7656-19.834 0.18555-0.3125 0.53711-0.84961 0.73242-1.1035 0.13672-0.15625 0.5957-0.60547 0.73242-0.73242 0.22461-0.16602 0.49805-0.26367 0.73242-0.37109 0.08789-0.029297 0.2832-0.3418 0.37109-0.36133 0.039062-0.009766 0.32226 0.009765 0.37109 0 0.039063-0.009766 0.3125 0 0.36133 0 0.048829 0 0.32227-0.009766 0.37109 0 0.048828 0 0.3125-0.009766 0.36133 0 1.0938 0.23438 2.5488 1.2012 4.0332 2.5684 0-7.0117 1.3281-13.965 3.6719-16.895 0.32227-0.36133 0.73242-0.88867 1.0938-1.1035 0.048829-0.019531 0.33203 0.019531 0.37109 0 0.087891-0.029297 0.2832-0.3418 0.37109-0.36133 0.039062-0.009766 0.32226 0 0.36133 0 0.048828-0.009766 0.32227 0 0.37109 0 0.039062 0 0.3125-0.009766 0.36133 0s0.32226 0.35156 0.37109 0.36133c0.048828 0.019531 0.3125-0.009766 0.36133 0 0.048828 0.029297 0.32226-0.019531 0.37109 0 0.048829 0.029297 0.3125 0.3418 0.36133 0.37109 1.3477 0.91797 3.1738 2.9395 4.7754 5.8789 3.2031-9.834 7.2656-22.842 11.367-26.074 0.048828-0.039062 0.3125 0.029297 0.36133 0s0.32226-0.3418 0.37109-0.37109c0.048828-0.019532 0.3125 0.019531 0.36133 0 0.048828-0.019532 0.32226 0.009765 0.37109 0 0.097657-0.019532 0.27344-0.36133 0.36133-0.36133 0.048828 0 0.32226-0.009766 0.37109 0 0.048828 0 0.32227 0.35156 0.37109 0.36133 0.039063 0.019531 0.3125-0.019532 0.36133 0 0.097656 0.048828 0.27344 0.30273 0.37109 0.37109 0.087891 0.06836 0.27344 0.27344 0.36133 0.36133 0.18555 0.19531 0.55664 0.48828 0.73242 0.74219 0.048828 0.058594 0.32227 0.29297 0.37109 0.36133 0.08789 0.14648 0.27344 0.56641 0.36133 0.73242 0.18555 0.35156 0.56641 1.0547 0.74219 1.4746 2.0117-9.1797 4.1504-22.432 8.4277-26.074 0.048828-0.039063 0.32226 0.029296 0.37109 0 0.048828-0.039063 0.3125-0.3418 0.36133-0.37109 0.15625-0.078125 0.57617-0.3125 0.73242-0.36133 0.058593-0.019532 0.3125 0.009765 0.37109 0 0.058594-0.009766 0.3125 0 0.37109 0 0.048828 0 0.30273-0.009766 0.36133 0 0.058594 0 0.3125-0.009766 0.37109 0 0.058594 0.009765 0.30273-0.019532 0.36133 0 0.18555 0.048828 0.54688 0.2832 0.73242 0.36133 0.068359 0.029297 0.30273-0.029297 0.37109 0 0.068359 0.039062 0.30273 0.33203 0.36133 0.37109 0.27344 0.16602 0.83008 0.50781 1.1035 0.73242 0.06836 0.058593 0.29297 0.30273 0.37109 0.37109 2.1875-4.3848 4.0039-9.9707 5.8594-12.852 0.40039-0.58594 1.0547-1.1816 1.4746-1.4746 0.058594-0.029297 0.30274-0.3418 0.36133-0.37109 0.068359-0.019532 0.30273 0.019531 0.37109 0h0.36133c0.039063 0.009765 0.3418 0 0.37109 0 0.06836 0.029296 0.29297 0.33203 0.36133 0.37109 0.14648 0.087891 0.5957 0.24414 0.74219 0.37109 0.64453 0.6543 1.4355 1.7871 2.1973 3.3008 2.8711-6.9531 4.0039-18.242 6.9629-22.402 0.11719-0.14648 0.24414-0.60547 0.37109-0.73242 0.039062-0.039063 0.32227 0.039062 0.36133 0 0.048828-0.029297 0.32227-0.33203 0.37109-0.37109 0.08789-0.048828 0.27344-0.32227 0.37109-0.36133 0.048828-0.019531 0.3125 0.009765 0.36133 0 0.048828-0.009766 0.3125 0.009765 0.37109 0 0.048829-0.009766 0.3125 0 0.36133 0 0.058593 0 0.3125-0.009766 0.37109 0 0.058594 0.009765 0.30274-0.019531 0.36133 0 0.058594 0.019531 0.3125 0.3418 0.37109 0.36133 0.058594 0.029297 0.30274-0.029297 0.36133 0 0.06836 0.039063 0.30274 0.33203 0.37109 0.37109 1.2207 0.76172 3.0957 1.8262 4.7656 4.043 0.38086-2.0801 1.0352-3.9258 1.8359-5.5078 0.20508-0.39062 0.50781-1.1133 0.73242-1.4746 5.5176-8.4082 16.924-9.0723 21.27-7.7051 0.17578 0.058593 0.58594 0.29297 0.73242 0.36133 0.06836 0.039062 0.3125-0.039063 0.37109 0 6.4844 4.0332 15.469 8.9844 4.0332 66.104-14.492 72.373 11.641 82.031 17.598 122.66 1.0645 0.20508 2.2852 0.55664 3.3008 0.73242l-7.6953 40.029c-15.469-1.0059-27.979-1.1523-35.576 1.1035-3.7012 1.0938-6.8066 2.9395-9.1699 5.1367l-0.73242 0.73242c-0.078125 0.087891-0.2832 0.2832-0.36133 0.37109s-0.29297 0.27344-0.37109 0.37109c-0.30274 0.36133-0.83008 1.0742-1.1035 1.4648-1.3379 2.0801-2.3047 4.7363-2.5586 6.9727-0.029297 0.32226 0 0.79102 0 1.1035-0.097657 6.6699 2.0801 13.135 5.8594 17.627 5.2051 6.1816 11.396 6.8066 16.875 9.9219-1.0938-5.6445-4.1211-10.625-6.6016-15.43-2.168-4.1797-3.9551-8.4668-4.4043-11.016-0.019531-0.17578 0.009766-0.57617 0-0.73242v-0.37109c0.009766-0.27344-0.019531-0.52734 0-0.73242 0.009766-0.048829-0.009765-0.32227 0-0.37109 0.019531-0.039063 0.35156-0.32227 0.37109-0.36133 0.019531-0.039063-0.029297-0.33203 0-0.37109 0.058594-0.078125 0.2832-0.2832 0.36133-0.36133 0.048828-0.048828 0.3125-0.32227 0.37109-0.37109 0.058593-0.048828 0.29297-0.3125 0.36133-0.37109 0.84961-0.57617 2.3438-1.2207 4.4043-1.8359 5.0977-1.5039 16.846-1.5625 31.172-0.73242-1.9922 10.391-0.32227 20.176 2.5684 29.746 7.3828-10.039 9.1113-20.068 9.1699-30.107 1.8945-0.17578 4.3555-0.41992 5.8594-0.37109 0.16602 0.009766 0.60547-0.029297 0.74219 0 0.83008 0.19531 1.6113 0.47852 2.1973 0.73242 0.63477 0.32226 1.3574 0.91797 1.8359 1.4746 0.058593 0.078125 0.30273 0.27344 0.36133 0.36133 2.0117 2.8711 2.793 9.4727 2.5684 17.627 1.6211-2.5098 9.7656-14.785 8.0664-22.031-0.019531-0.06836-0.3418-0.30274-0.36133-0.37109-0.048828-0.12695 0.048828-0.60547 0-0.73242-0.029297-0.058594-0.3418-0.30273-0.37109-0.36133-0.029297-0.06836 0.039062-0.3125 0-0.37109-0.029297-0.058594-0.33203-0.3125-0.36133-0.37109-2.5098-3.584-6.6504-6.5723-11.377-7.7051-0.068359-0.019531-0.29297 0.009766-0.36133 0-0.078125-0.019531-0.29297 0.009766-0.37109 0-2.0898-0.20508-4.7168 0.29297-6.9629 0.36133l7.334-38.193c31.084 1.6797 35.039-16.768 46.201-37.451 3.7695 10.078 7.3633 20.127 13.359 29.385 18.408-5.1758 30.791 7.5 27.715 24.6l-7.334 21.66c-2.5684-0.08789-14.609-0.9082-16.865-0.36133-4.7168 1.1328-8.8574 4.1211-11.367 7.7051-0.11719 0.17578-0.27344 0.55664-0.37109 0.74219-0.11719 0.24414-0.27344 0.83008-0.36133 1.0938-0.019532 0.068359 0.009765 0.30273 0 0.37109-1.6992 7.2461 6.0742 19.521 7.6953 22.031-0.21484-8.1543 0.55664-14.756 2.5684-17.627 0.06836-0.08789 0.30274-0.2832 0.37109-0.36133 0.12695-0.16602 0.58594-0.60547 0.73242-0.74219 0.06836-0.058594 0.2832-0.30274 0.36133-0.36133 0.74219-0.47852 1.6895-0.80078 2.9395-1.1035 0.039063-0.009766 0.30274 0.009766 0.36133 0 2.1875-0.21484 11.016 0.17578 13.203 0.37109 0.058594 9.9609-4.5605 19.775 2.5684 29.746 3.0176-9.4336 11.133-19.15 9.1699-29.385 12.529-0.72266 14.922 10.742 13.564 16.895-0.18555 0.74219-0.44922 1.6602-0.73242 2.207-2.5586 4.9512-5.5957 9.9023-6.6016 15.791 5.5469-3.2422 11.582-4.0039 16.875-10.283 3.7793-4.4922 5.957-10.957 5.8594-17.627 0-0.52734-0.2832-1.2988-0.36133-1.8359-0.35156-2.1582-1.2402-4.6582-2.5684-6.6113-0.27344-0.39062-0.79102-1.1133-1.1035-1.4746-0.039062-0.039063-0.32226-0.3125-0.36133-0.36133-3.0664-3.0078-15.488-9.7852-22.734-8.8184l4.7656-17.627c11.055 3.8574 22.881 6.0352 39.238-1.4648 13.281 5.0684 27.109 5.6152 41.436-4.043 27.207 13.594 39.18 5.4199 52.08-1.4648-49.6-59.189-93.486-132.21-134.22-210.06 9.4434 0 21.367 1.8359 26.768 1.8359 7.9883 0 20.879 8.291 25.664 9.5508 0.087891 0.019531 0.29297-0.019531 0.37109 0 0.068359 0.009766 0.30273-0.009766 0.37109 0h0.36133c0.73242-0.18555 1.6309-0.058594 2.1973 0 0.18555 0.029297 0.57617-0.058594 0.74219 0 0.15625 0.068359 0.58594 0.27344 0.73242 0.36133 0.068359 0.058594 0.30273 0.3125 0.36133 0.37109 0.3125 0.3125 0.85938 1.0254 1.1035 1.4648 1.9629 4.0234 1.6113 12.598 3.6621 21.67 1.9629-1.5137 3.7305-2.5098 5.1367-2.9395 0.13672-0.039062 0.5957 0.029297 0.73242 0 0.068359-0.009765 0.30273 0.009766 0.37109 0 0.18555-0.019531 0.54688-0.36133 0.73242-0.36133 0.17578 0 0.56641 0.3418 0.73242 0.36133 0.058594 0.009766 0.3125-0.009765 0.37109 0 0.048828 0.019532 0.3125-0.019531 0.36133 0 0.10742 0.039063 0.27344 0.32227 0.37109 0.37109 0.048828 0.029297 0.3125-0.029297 0.36133 0 3.9551 2.4902 5.1562 11.562 8.7988 19.092 0.17578-0.35156 0.55664-0.82031 0.74219-1.1035 0.06836-0.097656 0.29297-0.27344 0.36133-0.36133 0.078126-0.087891 0.29297-0.29297 0.37109-0.37109 0.06836-0.068359 0.2832-0.3125 0.36133-0.36133 0.039063-0.019531 0.33203-0.35156 0.37109-0.37109 0.039063-0.009766 0.32227 0.009765 0.36133 0h0.37109c0.039062 0 0.32227-0.009766 0.36133 0 0.048828 0.009765 0.33203-0.009766 0.37109 0 0.039062 0.019531 0.32227 0.35156 0.37109 0.37109 3.8477 2.041 8.252 13.457 9.5312 21.66 0.13672-0.26367 0.55664-0.48828 0.73242-0.73242 0.38086-0.46875 0.95703-1.0938 1.4648-1.4648 0.35156-0.24414 1.0742-0.54688 1.4648-0.74219 0.49805-0.21484 1.2988-0.5957 1.8359-0.73242 0.97656-0.19531 2.3242-0.12695 3.3008 0 1.5137 0.26367 3.2812 0.98633 4.4043 2.207 1.2207 1.4844 2.1973 3.9551 2.1973 6.9727 1.7871-2.2949 3.3789-3.8574 4.7656-4.4043 0.39062-0.12695 1.1133-0.36133 1.4648-0.36133 0.17578 0.009766 0.57617 0.32227 0.74219 0.36133 0.95703 0.30274 1.9141 1.123 2.5586 2.207 1.4453 2.6562 2.2559 7.0703 1.8359 11.377 0.11719-0.029297 0.25391 0.039062 0.37109 0 0.67383-0.14648 1.6309-0.37109 2.1973-0.36133 0.27344 0.009766 0.84961 0.3125 1.1035 0.36133 0.078125 0.029296 0.2832-0.019532 0.36133 0 0.15625 0.058593 0.5957 0.30273 0.73242 0.37109 0.21484 0.11719 0.54688 0.21484 0.73242 0.37109 0.068359 0.048828 0.3125 0.3125 0.37109 0.36133l0.37109 0.37109c0.097656 0.12695 0.26367 0.58594 0.36133 0.73242 0.048828 0.078125 0.32227 0.29297 0.37109 0.37109 0.087891 0.15625 0.2832 0.56641 0.36133 0.73242 0.11719 0.26367 0.26367 0.82031 0.37109 1.1035 0.85938 2.5 1.4062 5.8008 1.8359 9.1797 0.039063-0.048829 0.32227-0.32227 0.36133-0.37109 0.039062-0.039063 0.32226-0.33203 0.37109-0.36133 0.039063-0.029297 0.32227 0.019531 0.36133 0 0.078125-0.039063 0.29297-0.35156 0.37109-0.37109h0.36133c0.039063 0 0.33203-0.009766 0.37109 0s0.33203 0.35156 0.36133 0.37109c0.078125 0.048828 0.29297 0.30273 0.37109 0.36133 0.29297 0.26367 0.82031 0.70312 1.1035 1.1035 2.4414 3.8184 4.5801 12.402 6.9629 14.688 0.068359 0.058594 0.30274 0.32227 0.37109 0.37109 0.029297 0.019531 0.33203-0.019531 0.36133 0 0.068359 0.019531 0.30273 0.36133 0.37109 0.36133 0.029297 0.009766 0.33203 0.009766 0.36133 0 0.039062 0-0.029297-0.35156 0-0.36133 0.039062-0.009765 0.33203 0.009766 0.37109 0 0.039062-0.019531 0.33203 0.029297 0.36133 0 0.078125-0.058594 0.29297-0.29297 0.37109-0.37109 1.7871-1.7871 5.0098-4.4238 7.7051-5.1367 0.058593-0.019532 0.29297 0.009765 0.36133 0 0.12695-0.019532 0.60547 0.009765 0.73242 0 0.058593-0.009766 0.3125 0 0.37109 0 0.058594 0 0.3125-0.009766 0.36133 0 0.058594 0.009765 0.3125-0.019532 0.37109 0 0.097656 0.029297 0.27344 0.32226 0.36133 0.36133 0.048828 0.029297 0.33203-0.029297 0.37109 0 0.087891 0.068359 0.29297 0.29297 0.37109 0.37109 0.097656 0.13672 0.27344 0.56641 0.36133 0.73242 4.1016 8.2129 8.3105 21.182 11.006 31.953 4.9121-8.6328 8.0859-15.635 10.996-17.998 0.17578-0.11719 0.56641-0.27344 0.73242-0.36133 0.087891-0.039062 0.2832-0.3418 0.37109-0.37109 0.039062-0.009766 0.32226 0.009765 0.36133 0h0.37109 0.37109c0.039063 0.009765 0.32227-0.009766 0.36133 0 0.048829 0.009765 0.32227 0.35156 0.37109 0.37109 0.039063 0.019532 0.32227-0.029296 0.36133 0 0.048828 0.019532 0.32227 0.33203 0.37109 0.36133 1.3965 1.0449 2.9297 3.3105 4.7656 6.9824 2.0801 4.1699 9.4434 22.93 17.236 29.004 0.078125 0.058593 0.29297 0.3125 0.36133 0.37109 0.15625 0.10742 0.58594 0.27344 0.74219 0.37109 0.14648 0.087891 0.57617 0.2832 0.73242 0.36133 0.078125 0.039063 0.2832 0.33203 0.36133 0.37109 0.15625 0.058594 0.57617-0.048828 0.73242 0 0.15625 0.039062 0.57617 0.33203 0.73242 0.36133s0.58594 0 0.73242 0c0.078126 0.009766 0.29297 0.009766 0.37109 0 0.15625-0.009766 0.57617 0.029297 0.73242 0 0.078125-0.009766 0.29297-0.3418 0.37109-0.36133 3.1738-0.84961 6.3477-1.3574 9.5312-2.207-34.619-89.912-42.363-96.113-32.637-194.63 5.2246-52.979-38.545-193.9-109.29-193.9-20.273 0-61.553-1.6309-46.934 87.031 7.5391 45.732-26.729 61.836-48.408 16.162-13.145-27.686 23.555-57.812-15.039-93.652l23.838-10.273c-17.754-19.629-32.92-33.584-63.076-33.418-4.5996 0.019531-10.527-0.20508-16.504 0zm39.971 421.21c-4.6094-42.344-13.154-92.285-55.605-101.72" fill="#db161b" stroke="#000" stroke-width="5.8716"/>
<path transform="matrix(4.694 0 0 4.7005 .29713 24.971)" d="m381.99 75.588c8.32e-4 0.1795-0.094868 0.3457-0.25048 0.43546-0.15562 0.090581-0.34702 0.090581-0.50264 0-0.15562-0.08975-0.25132-0.25595-0.25049-0.43546-8.32e-4 -0.1795 0.094868-0.3457 0.25049-0.43628 0.15562-0.08975 0.34702-0.08975 0.50264 0 0.15562 0.090581 0.25132 0.25678 0.25048 0.43628zm0 0" fill-rule="evenodd" stroke="#000" stroke-linecap="round" stroke-width=".5"/>
<path transform="scale(.4)" d="m4477.2 1001 8.5254 23.906 13.643-23.906" fill="none" stroke="#000" stroke-width="3.9105"/>
<path transform="scale(.4)" d="m4456.1 1039.5 8.5254 23.906 13.643-23.906" fill="none" stroke="#000" stroke-width="3.9105"/>
<path transform="scale(.4)" d="m4495.5 1034.7 8.5254 23.906 13.643-23.906" fill="none" stroke="#000" stroke-width="3.9105"/>
<path transform="scale(.4)" d="m4483 1070.3 8.5254 23.916 13.643-23.916" fill="none" stroke="#000" stroke-width="3.9105"/>
<path transform="scale(.4)" d="m4436 1077.9 8.5352 23.906 13.643-23.906" fill="none" stroke="#000" stroke-width="3.9105"/>
<path transform="scale(.4)" d="m4460 1095.3 8.5254 23.906 13.643-23.906" fill="none" stroke="#000" stroke-width="3.9105"/>
<path transform="scale(.4)" d="m4486.8 1114.5 8.5254 23.906 13.643-23.906" fill="none" stroke="#000" stroke-width="3.9105"/>
<path transform="scale(.4)" d="m4511.8 1087.6 8.5254 23.906 13.643-23.906" fill="none" stroke="#000" stroke-width="3.9105"/>
<path transform="scale(.4)" d="m4429.2 1114.5 8.5254 23.906 13.643-23.906" fill="none" stroke="#000" stroke-width="3.9105"/>
<path transform="scale(.4)" d="m4458 1132.8 8.5254 23.906 13.643-23.906" fill="none" stroke="#000" stroke-width="3.9105"/>
<path transform="scale(.4)" d="m4519.5 1128.9 8.5254 23.906 13.643-23.906" fill="none" stroke="#000" stroke-width="3.9105"/>
<path transform="scale(.4)" d="m4490.7 1151 8.5352 23.916 13.643-23.916" fill="none" stroke="#000" stroke-width="3.9105"/>
<path transform="scale(.4)" d="m4516.7 1175.2 8.5254 23.906 13.643-23.906" fill="none" stroke="#000" stroke-width="3.9105"/>
<path transform="scale(.4)" d="m4487 1186.4 8.5254 23.906 13.643-23.906" fill="none" stroke="#000" stroke-width="3.9105"/>
<path transform="scale(.4)" d="m4503.3 1220.3 15.605 20 5.4395-26.992" fill="none" stroke="#000" stroke-width="3.9105"/>
<path transform="scale(.4)" d="m4536.7 1218.4 15.605 20.01 5.4395-26.992" fill="none" stroke="#000" stroke-width="3.9105"/>
<path transform="scale(.4)" d="m4507 1257.5 15.605 20.01 5.4395-26.992" fill="none" stroke="#000" stroke-width="3.9105"/>
<path transform="scale(.4)" d="m4538.6 1254.7 15.605 20 5.4395-26.992" fill="none" stroke="#000" stroke-width="3.9105"/>
<path transform="scale(.4)" d="m4513.5 1297.5 15.605 20.01 5.4395-26.992" fill="none" stroke="#000" stroke-width="3.9105"/>
<path transform="scale(.4)" d="m4547 1298.7 14.941 24.834 5.2051-33.496" fill="none" stroke="#000" stroke-width="3.9105"/>
<path transform="scale(.4)" d="m4524.7 1339.4 15.605 20.01 5.4395-26.992" fill="none" stroke="#000" stroke-width="3.9105"/>
<path transform="scale(.4)" d="m4611 1281.2-31.602-18.613-0.83984 99.414-19.512-21.406-12.842 30.449-30.615-9.1016" fill="none" stroke="#000" stroke-linecap="round" stroke-width="5.8716"/>
<path transform="scale(.4)" d="m4579 1306.4 57.061 85.703" fill="none" stroke="#000" stroke-width="2.9358"/>
<path transform="scale(.4)" d="m4577 1357.5 16.885 37.217" fill="none" stroke="#000" stroke-width="2.9358"/>
<path transform="scale(.4)" d="m4461.3 1207.7 9.0723 17.266 0.52734-27.52" fill="none" stroke="#000" stroke-width="3.9105"/>
<path transform="scale(.4)" d="m4478 1229.1 9.0723 17.266 0.52734-27.52" fill="none" stroke="#000" stroke-width="3.9105"/>
<path transform="scale(.4)" d="m4445.9 1166.5 8.5352 23.906 13.643-23.906" fill="none" stroke="#000" stroke-width="3.9105"/>
<path transform="scale(.4)" d="m4439.4 1260.4 8.5254 23.906 13.643-23.906" fill="none" stroke="#000" stroke-width="3.9105"/>
<path transform="scale(.4)" d="m4461.7 1278 8.5352 23.906 13.643-23.906" fill="none" stroke="#000" stroke-width="3.9105"/>
<path transform="scale(.4)" d="m4440.4 1297.5 8.5254 23.906 13.643-23.906" fill="none" stroke="#000" stroke-width="3.9105"/>
<path transform="scale(.4)" d="m4471 1315.2 8.5254 23.916 13.643-23.916" fill="none" stroke="#000" stroke-width="3.9105"/>
<path transform="scale(.4)" d="m4449.6 1332.8 8.5352 23.906 13.643-23.906" fill="none" stroke="#000" stroke-width="3.9105"/>
<path transform="scale(.4)" d="m4563.5 1083.6c-19.141 2.7734-33.105 60.791-9.375 96.26" fill="none" stroke="#000" stroke-width="5.8716"/>
<path transform="scale(.4)" d="m4418.1 1073.5c-16.016 11.377-27.637 78.789 7.0312 115.83" fill="none" stroke="#000" stroke-width="5.8716"/>
<path transform="scale(.4)" d="m4475.2 977.2 10.166 8.6133 4.6875-7.832 8.5938 6.2695 3.9062-13.311 9.3848 9.3945 7.0312-9.3945" fill="none" stroke="#000" stroke-width="3.9105"/>
<path transform="scale(.4)" d="m4449 933.84c7.7344 8.1348 17.295 13.535 6.1816 44.219" fill="none" stroke="#000" stroke-linecap="round" stroke-width="3.9105"/>
<path transform="scale(.4)" d="m4417.3 963.12c11.65-5.5566 20.078-13.457 40.645-12.529" fill="none" stroke="#000" stroke-width="3.9105"/>
<path transform="matrix(4.694 0 0 4.7005 .29713 24.971)" d="m372.68 82.463v-2.2521c0-0.99722-1.046-1.0388-1.7784-1.1859-1.2042-0.24016-4.1218-0.55014-6.5193 2.8454-0.56754 0.8036-0.99695 2.587-1.4222 3.4371-0.13481 0.26925-0.23717 0.55346-0.35617 0.83019-0.13814 0.3241-0.16061 0.40138-0.23717 0.59252" fill="none" stroke="#000" stroke-width=".333"/>
<path transform="matrix(4.694 0 0 4.7005 .29713 24.971)" d="m366.16 81.515c-0.082386 1.569-0.40111 2.8172-0.94868 3.9116" fill="none" stroke="#000" stroke-width=".333"/>
<path transform="matrix(4.694 0 0 4.7005 .29713 24.971)" d="m367.34 80.923c-0.084882 1.1327 0.15395 2.3476-0.11817 3.4371" fill="none" stroke="#000" stroke-width=".333"/>
<path transform="matrix(4.694 0 0 4.7005 .29713 24.971)" d="m369.24 80.685c-0.19723 0.39556-0.39528 0.7903-0.59251 1.1859-0.23218 0.46371-0.50513 1.308-0.59251 1.6595" fill="none" stroke="#000" stroke-width=".333"/>
<path transform="matrix(4.694 0 0 4.7005 .29713 24.971)" d="m370.31 80.804c-0.51179 1.023-0.82968 2.2961-0.82968 3.4379" fill="none" stroke="#000" stroke-width=".333"/>
<path transform="matrix(4.694 0 0 4.7005 .29713 24.971)" d="m364.14 86.138c-0.38114 0.76121-0.23717 2.6609-0.23717 3.5559" fill="none" stroke="#000" stroke-width=".333"/>
<path transform="matrix(4.694 0 0 4.7005 .29713 24.971)" d="m365.8 86.375v0c0-1.3413-0.47684 2.6551-0.94785 3.9116" fill="none" stroke="#000" stroke-width=".333"/>
<path transform="matrix(4.694 0 0 4.7005 .29713 24.971)" d="m366.99 86.731c0-2.3036-0.075728 2.7025-0.23717 3.6748-0.019972 0.11717 0 0.23684 0 0.35568" fill="none" stroke="#000" stroke-width=".333"/>
<path transform="matrix(4.694 0 0 4.7005 .29713 24.971)" d="m368.65 85.071c-0.31373 1.8831-0.23717 4.2266-0.23717 6.1637" fill="none" stroke="#000" stroke-width=".333"/>
<path transform="matrix(4.694 0 0 4.7005 .29713 24.971)" d="m370.19 86.138c-0.25048 1.5025-0.83051 3.9931-0.83051 5.9268" fill="none" stroke="#000" stroke-width=".333"/>
<path transform="matrix(4.694 0 0 4.7005 .29713 24.971)" d="m372.2 85.901c-0.36033 2.1615-0.07656 3.8061-0.82968 5.6892" fill="none" stroke="#000" stroke-width=".333"/>
<path transform="matrix(4.694 0 0 4.7005 .29713 24.971)" d="m362.96 91.354c-0.19723 1.18-0.08405 2.1133-0.35617 3.2003" fill="none" stroke="#000" stroke-width=".333"/>
<path transform="matrix(4.694 0 0 4.7005 .29713 24.971)" d="m364.97 91.59c-0.18558 1.1144-0.71068 1.9097-0.71068 3.0823 0 2.577 0.013315-0.026593-0.23717 0.47368" fill="none" stroke="#000" stroke-width=".333"/>
<path transform="matrix(4.694 0 0 4.7005 .29713 24.971)" d="m366.39 92.183c0 1.1751-0.47351 2.4191-0.47351 3.6748" fill="none" stroke="#000" stroke-width=".333"/>
<path transform="matrix(4.694 0 0 4.7005 .29713 24.971)" d="m367.58 91.946c0 0.8601-0.025798 2.3559-0.35534 3.6748-0.01914 0.076453 0 0.15789 0 0.23684" fill="none" stroke="#000" stroke-width=".333"/>
<path transform="matrix(4.694 0 0 4.7005 .29713 24.971)" d="m369.24 92.421c-0.17892 0.71468-0.23717 2.4415-0.23717 3.5559v0.23684" fill="none" stroke="#000" stroke-width=".333"/>
<path transform="matrix(4.694 0 0 4.7005 .29713 24.971)" d="m371.26 92.302c0 0.84432-0.70818 3.3108-0.94868 3.9116" fill="none" stroke="#000" stroke-width=".333"/>
<path transform="matrix(4.694 0 0 4.7005 .29713 24.971)" d="m373.98 88.271c0 1.1767-0.98779 3.1587-1.1859 4.7418-0.12732 1.0172-0.073231 2.0426 0.47434 2.7266" fill="none" stroke="#000" stroke-width=".333"/>
<path transform="matrix(4.694 0 0 4.7005 .29713 24.971)" d="m363.67 96.806c-0.1706 1.3695 0 2.8911 0 4.2673v3.6748 3.3191 0.47451" fill="none" stroke="#000" stroke-width=".333"/>
<path transform="matrix(4.694 0 0 4.7005 .29713 24.971)" d="m364.97 96.45c0 1.5607-0.015811 3.1039 0.23717 4.623 0.19723 1.1842 0.11817 2.5861 0.11817 3.7936v2.3709" fill="none" stroke="#000" stroke-width=".333"/>
<path transform="matrix(4.694 0 0 4.7005 .29713 24.971)" d="m366.63 96.925c0 1.7102 0.35617 3.2568 0.35617 4.9786 0 1.1053-0.056588 2.2454-0.47434 3.0814-0.15811 0.31662-0.12982 0.31163 0 0.83019" fill="none" stroke="#000" stroke-width=".333"/>
<path transform="matrix(4.694 0 0 4.7005 .29713 24.971)" d="m368.53 96.806c-0.33038 0.66066 0.119 2.3834 0.119 3.2011 0 0.87257 0.054091 2.0343-0.119 2.7257-0.14646 0.58836-0.09903 0.75457-0.23634 1.3039" fill="none" stroke="#000" stroke-width=".333"/>
<path transform="matrix(4.694 0 0 4.7005 .29713 24.971)" d="m370.54 96.806c-0.055756 0.22271 0.10818 1.3961 0.10818 2.3377 0 0.7903-0.2896 1.6172-0.2896 2.4075 0 0.078947 0.023301 0.47036-0.055756 0.47036" fill="none" stroke="#000" stroke-width=".333"/>
<path transform="matrix(4.694 0 0 4.7005 .29713 24.971)" d="m371.7 96.778c0.060749 0.072298 0.1215 0.1446 0.18141 0.2169 0.20971 0.25097 0.2172 0.60083 0.2172 0.90581 0 0.46122 0.043273 0.92077-0.2172 1.2681" fill="none" stroke="#000" stroke-width=".333"/>
<path transform="scale(.4)" d="m4598.4 1019.6v-26.465c0-11.719 12.275-12.207 20.869-13.936 14.131-2.832 28.428 3.0957 38.945 8.3594 13.623 6.8262 27.002 16.611 37.559 25.078 9.0234 7.2168 11.709 30.4 16.699 40.391 1.5723 3.1641 2.7734 6.5039 4.1699 9.7559 1.6309 3.8086 1.8848 4.7168 2.7832 6.9629" fill="none" stroke="#000" stroke-width="3.9105"/>
<path transform="scale(.4)" d="m4674.9 1008.5c0.95703 18.438 4.707 33.105 11.123 45.967" fill="none" stroke="#000" stroke-width="3.9105"/>
<path transform="scale(.4)" d="m4661 1001.5c1.0059 13.311-1.8066 27.588 1.3965 40.391" fill="none" stroke="#000" stroke-width="3.9105"/>
<path transform="scale(.4)" d="m4638.7 998.7c2.3242 4.6484 4.6387 9.2871 6.9531 13.936 2.7246 5.4492 5.9277 15.371 6.9629 19.502" fill="none" stroke="#000" stroke-width="3.9105"/>
<path transform="scale(.4)" d="m4626.2 1000.1c6.0059 12.021 9.7363 26.982 9.7363 40.391" fill="none" stroke="#000" stroke-width="3.9105"/>
<path transform="scale(.4)" d="m4698.5 1062.8c4.4727 8.9453 2.7832 31.26 2.7832 41.787" fill="none" stroke="#000" stroke-width="3.9105"/>
<path transform="scale(.4)" d="m4679 1065.6v0c0-15.762 5.5957 31.201 11.133 45.967" fill="none" stroke="#000" stroke-width="3.9105"/>
<path transform="scale(.4)" d="m4665.1 1069.7c0-27.07 0.87891 31.758 2.7734 43.184 0.23438 1.3672 0 2.7832 0 4.1797" fill="none" stroke="#000" stroke-width="3.9105"/>
<path transform="scale(.4)" d="m4645.7 1050.2c3.6914 22.129 2.7832 49.658 2.7832 72.432" fill="none" stroke="#000" stroke-width="3.9105"/>
<path transform="scale(.4)" d="m4627.6 1062.8c2.9395 17.656 9.7363 46.924 9.7363 69.648" fill="none" stroke="#000" stroke-width="3.9105"/>
<path transform="scale(.4)" d="m4603.9 1060c4.2285 25.41 0.89844 44.736 9.7363 66.865" fill="none" stroke="#000" stroke-width="3.9105"/>
<path transform="scale(.4)" d="m4712.4 1124.1c2.3047 13.867 0.97656 24.834 4.1699 37.607" fill="none" stroke="#000" stroke-width="3.9105"/>
<path transform="scale(.4)" d="m4688.8 1126.9c2.1777 13.096 8.3496 32.256 8.3496 46.035" fill="none" stroke="#000" stroke-width="3.9105"/>
<path transform="scale(.4)" d="m4672.1 1133.8c0 13.809 5.5664 28.428 5.5664 43.184" fill="none" stroke="#000" stroke-width="3.9105"/>
<path transform="scale(.4)" d="m4658.2 1131c0 10.098 0.3125 27.686 4.1797 43.184 0.22461 0.89844 0 1.8555 0 2.7832" fill="none" stroke="#000" stroke-width="3.9105"/>
<path transform="scale(.4)" d="m4638.7 1136.6c2.0996 8.3984 2.7832 28.691 2.7832 41.787v2.7832" fill="none" stroke="#000" stroke-width="3.9105"/>
<path transform="scale(.4)" d="m4615.1 1135.2c0 9.9219 8.3008 38.906 11.123 45.967" fill="none" stroke="#000" stroke-width="3.9105"/>
<path transform="scale(.4)" d="m4583.1 1087.9c0 13.828 11.582 37.119 13.906 55.723 1.4941 11.953 0.85938 23.994-5.5664 32.031" fill="none" stroke="#000" stroke-width="3.9105"/>
<path transform="scale(.4)" d="m4704.1 1188.1c2.0117 16.094 0 33.975 0 50.146 0 14.395 4.1992 40.01 4.1992 54.404" fill="none" stroke="#000" stroke-width="3.9105"/>
<path transform="scale(.4)" d="m4688.8 1184c0 18.34 1.5918 32.266-1.377 50.127-2.3242 13.906-1.3965 30.381-1.3965 44.57" fill="none" stroke="#000" stroke-width="3.9105"/>
<path transform="scale(.4)" d="m4669.3 1189.5c0 20.098-4.1699 38.271-4.1699 58.506" fill="none" stroke="#000" stroke-width="3.9105"/>
<path transform="scale(.4)" d="m4647.1 1188.1c3.877 7.7637-3.4961 34.316-3.4961 43.926" fill="none" stroke="#000" stroke-width="3.9105"/>
<path transform="scale(.4)" d="m4623.4 1188.1c0.6543 2.6074-1.2695 16.406-1.2695 27.471" fill="none" stroke="#000" stroke-width="3.9105"/>
<path transform="scale(.4)" d="m4723.3 1209.5c1.2891 2.5879 0 16.66 0 21.729 0 6.8164-0.70312 13.037-0.70312 19.629 0 8.7012 0.70312 17.246 0.70312 25.938 0 7.0605 1.5137 12.441 4.9023 17.529 2.3828 3.5742 2.7051 6.9141 5.5957 9.8145" fill="none" stroke="#000" stroke-width="3.9105"/>
<path transform="scale(.4)" d="m4564.5 1099.7v0 24.873c0 5.9473 3.9258 10.85 3.9258 17.021 0 5.4492 1.3086 9.6582 1.3086 15.059 0 2.8516-1.3281 6.6113-1.9629 9.1602" fill="none" stroke="#000" stroke-width="3.9105"/>
</svg>
