<?xml version="1.0" standalone="no"?>
<!DOCTYPE svg PUBLIC "-//W3C//DTD SVG 20010904//EN"
 "http://www.w3.org/TR/2001/REC-SVG-20010904/DTD/svg10.dtd">
<svg version="1.0" xmlns="http://www.w3.org/2000/svg"
 width="600.000000pt" height="380.000000pt" viewBox="0 0 600.000000 380.000000"
 preserveAspectRatio="xMidYMid meet">

<g transform="translate(0.000000,380.000000) scale(0.100000,-0.100000)"
fill="#FFE470" stroke="none">
<path d="M5960 3484 c-14 -2 -178 -14 -365 -26 -322 -21 -404 -22 -1550 -22
-686 0 -1374 5 -1590 12 -209 6 -847 12 -1417 12 l-1038 0 0 -1629 0 -1630 53
-5 c123 -12 691 -15 1052 -5 421 12 386 14 590 -40 213 -57 399 -34 925 114
227 64 241 67 395 76 380 21 612 23 767 3 139 -17 154 -17 275 -1 113 14 182
15 597 7 257 -6 498 -15 535 -20 105 -17 315 -59 446 -91 129 -31 242 -38 321
-18 l44 11 0 1629 c0 896 -3 1628 -7 1628 -5 -1 -19 -3 -33 -5z"/>
</g>
<g transform="translate(0.000000,380.000000) scale(0.100000,-0.100000)"
fill="#8F161C" stroke="none">
<path d="M0 1900 l0 -1900 3000 0 3000 0 0 1900 0 1900 -3000 0 -3000 0 0
-1900z m3632 1074 c49 -16 68 -13 68 12 0 8 5 14 10 14 6 0 10 -35 10 -85 0
-47 -3 -85 -8 -85 -4 0 -16 19 -27 42 -57 117 -212 119 -270 3 -28 -57 -28
-213 0 -270 26 -51 74 -79 135 -78 54 1 82 13 128 56 31 30 32 30 32 8 0 -55
-104 -105 -207 -99 -147 9 -242 103 -243 241 0 94 46 176 127 224 78 46 142
50 245 17z m530 0 c42 -14 68 -10 68 12 0 8 5 14 10 14 6 0 10 -35 10 -85 0
-47 -3 -85 -8 -85 -4 0 -16 19 -27 42 -31 63 -77 91 -143 86 -106 -9 -147 -70
-147 -218 1 -112 20 -162 74 -194 66 -38 143 -23 214 42 l27 26 0 -23 c0 -49
-95 -100 -186 -101 -156 0 -263 98 -264 243 0 64 16 109 56 162 30 39 98 83
147 96 39 9 118 1 169 -17z m1028 -201 c50 -116 98 -220 106 -232 20 -28 65
-27 91 2 11 12 46 59 77 104 l57 83 -26 10 c-48 18 -75 58 -75 110 0 54 23 91
73 117 40 20 367 33 367 14 0 -6 -8 -11 -19 -11 -38 0 -42 -19 -39 -236 l3
-209 28 -3 c15 -2 27 -8 27 -13 0 -5 -55 -9 -127 -9 -77 0 -123 4 -117 9 5 5
20 11 34 13 24 3 25 5 28 101 2 81 0 97 -13 97 -8 0 -50 -49 -92 -110 l-78
-110 -195 1 c-151 1 -189 4 -167 12 32 13 33 27 7 85 l-19 42 -85 0 -84 0 -15
-43 c-16 -49 -8 -77 23 -77 10 0 22 -4 25 -10 4 -6 -26 -10 -82 -9 -72 0 -85
2 -69 12 41 25 54 49 151 265 54 122 102 219 106 215 3 -5 48 -103 99 -220z
m-4580 146 c0 -44 -4 -68 -10 -64 -5 3 -10 13 -10 21 0 9 -13 29 -29 45 -27
27 -35 29 -105 29 l-76 0 0 -89 0 -88 77 -7 c96 -9 137 -26 163 -68 42 -69 12
-152 -67 -184 -35 -15 -363 -21 -363 -6 0 4 12 8 26 9 15 0 30 7 35 15 5 7 9
103 9 214 0 212 -3 224 -47 224 -13 0 -23 5 -23 10 0 6 77 10 210 10 l210 0 0
-71z m480 -4 c0 -75 -13 -100 -25 -46 -12 55 -74 91 -157 91 l-38 0 0 -100 c0
-57 4 -100 10 -100 39 0 80 46 80 90 0 10 5 22 10 25 6 4 10 -40 10 -125 0
-123 -10 -160 -23 -91 -8 37 -40 71 -66 71 -25 0 -37 -70 -25 -143 l9 -52 60
-3 c80 -3 122 19 155 83 30 59 35 46 20 -45 l-12 -70 -211 1 c-179 0 -208 3
-184 13 16 7 33 19 38 27 12 20 11 386 -1 410 -6 11 -21 19 -35 19 -14 0 -25
5 -25 10 0 6 75 10 205 10 l205 0 0 -75z m580 65 c0 -5 -8 -10 -18 -10 -39 0
-42 -17 -42 -224 0 -111 4 -207 9 -214 4 -7 18 -14 29 -15 12 -1 22 -5 22 -9
0 -4 -54 -8 -120 -8 -73 0 -120 4 -120 10 0 6 8 10 18 10 39 0 42 17 42 227
l0 203 -54 0 -53 0 -7 -147 c-4 -82 -12 -165 -17 -186 -19 -72 -105 -138 -157
-120 -47 17 -69 72 -40 101 25 25 58 14 74 -23 18 -43 35 -44 68 -5 32 38 40
92 41 253 0 137 -4 147 -52 147 -13 0 -23 5 -23 10 0 6 73 10 200 10 127 0
200 -4 200 -10z m403 -1 c50 -14 115 -73 139 -127 13 -28 20 -67 20 -108 1
-149 -104 -254 -255 -254 -70 0 -120 17 -167 58 -52 44 -81 101 -87 171 -14
156 91 271 246 271 37 0 83 -5 104 -11z m543 -16 c50 -25 79 -80 69 -130 -13
-69 -84 -113 -182 -113 l-43 0 0 -84 c0 -104 4 -116 41 -116 16 0 29 -4 29
-10 0 -6 -48 -10 -125 -10 -77 0 -125 4 -125 10 0 6 11 10 25 10 14 0 29 8 35
19 11 21 14 360 4 399 -4 15 -17 25 -35 29 -16 3 -29 10 -29 16 0 6 52 8 149
5 122 -4 155 -8 187 -25z m324 17 c0 -5 -9 -10 -20 -10 -11 0 -23 -6 -26 -14
-6 -15 116 -237 126 -231 3 2 30 51 60 109 45 88 52 107 41 120 -8 9 -24 16
-37 16 -13 0 -24 5 -24 10 0 6 33 10 80 10 81 0 99 -8 57 -27 -17 -8 -55 -71
-131 -222 -63 -123 -118 -219 -133 -231 -34 -27 -96 -27 -123 0 -31 31 -25 85
10 90 37 6 49 -1 55 -31 9 -40 33 -49 57 -20 10 13 18 30 18 38 0 8 -30 69
-66 136 -110 200 -133 236 -160 243 -56 14 -16 24 96 24 73 0 120 -4 120 -10z
m1620 0 c0 -5 -10 -10 -23 -10 -39 0 -47 -18 -47 -112 l0 -88 40 0 c45 0 54
12 86 113 22 70 60 107 110 107 63 0 100 -71 53 -103 -29 -21 -59 -10 -66 24
-10 49 -39 37 -62 -26 -12 -31 -21 -59 -21 -63 0 -4 -7 -20 -15 -35 -14 -27
-13 -30 14 -52 15 -13 43 -52 61 -87 45 -87 78 -128 101 -128 10 0 19 -4 19
-10 0 -6 -34 -10 -82 -10 l-83 0 -61 113 c-79 145 -94 149 -94 29 0 -107 4
-122 35 -122 13 0 27 -4 30 -10 4 -6 -40 -10 -125 -10 -85 0 -129 4 -125 10 3
6 14 10 24 10 38 0 41 18 41 218 0 114 -4 201 -10 213 -6 11 -21 19 -35 19
-14 0 -25 5 -25 10 0 6 50 10 130 10 80 0 130 -4 130 -10z m-3150 -1025 c105
-243 117 -266 141 -272 10 -3 19 -9 19 -14 0 -5 -53 -9 -117 -8 -96 1 -113 3
-90 12 32 13 34 34 7 87 l-20 40 -84 0 -84 0 -15 -43 c-16 -49 -8 -77 23 -77
10 0 22 -4 25 -10 4 -6 -26 -10 -82 -9 -72 0 -85 2 -69 12 41 25 54 49 151
265 54 122 102 219 106 215 4 -5 44 -93 89 -198z m1359 -20 c100 -229 114
-255 136 -255 8 0 15 -4 15 -10 0 -6 -45 -10 -117 -9 -96 1 -113 3 -90 12 32
13 34 34 7 87 l-20 40 -84 0 -83 0 -12 -38 c-16 -49 -11 -76 14 -80 11 -2 24
-8 30 -13 5 -5 -24 -9 -73 -9 -77 0 -107 11 -62 23 21 5 65 93 180 355 30 67
57 119 61 115 4 -5 48 -102 98 -218z m1547 3 c54 -123 108 -233 120 -245 40
-40 63 -23 157 113 l56 81 -34 16 c-94 45 -91 165 5 221 27 16 59 20 201 24
123 3 169 2 169 -7 0 -6 -8 -11 -19 -11 -38 0 -45 -27 -49 -172 -3 -76 -1
-168 3 -204 6 -60 9 -66 38 -78 30 -13 22 -14 -98 -15 l-130 -1 35 18 35 17 3
93 c3 85 1 93 -15 90 -10 -2 -51 -51 -93 -110 l-75 -108 -200 1 c-154 1 -192
3 -167 11 37 13 39 26 12 86 l-19 42 -85 0 -84 0 -17 -45 c-19 -49 -10 -75 26
-75 10 0 21 -4 24 -10 4 -6 -26 -10 -82 -10 -79 1 -86 2 -68 15 42 30 55 51
150 265 54 121 99 220 100 220 1 0 47 -100 101 -222z m-2297 140 l-1 -73 -15
35 c-28 65 -37 70 -135 70 l-88 0 0 -199 c0 -110 3 -206 6 -215 4 -10 18 -16
35 -16 16 0 29 -4 29 -10 0 -6 -51 -10 -132 -10 -90 0 -128 3 -118 10 8 5 22
10 31 10 9 0 20 7 23 16 3 9 6 104 6 213 0 208 -3 221 -47 221 -13 0 -23 5
-23 10 0 6 78 10 215 10 l215 0 -1 -72z m372 49 c51 -21 79 -61 79 -113 0 -80
-73 -134 -184 -134 l-46 0 0 -49 c0 -26 3 -69 6 -95 6 -40 11 -49 38 -61 28
-12 19 -13 -99 -13 -116 0 -126 1 -95 12 l35 13 3 208 c3 221 0 235 -45 235
-16 0 -22 4 -17 11 10 17 279 6 325 -14z m884 1 c72 -38 100 -106 68 -167 -23
-45 -81 -74 -155 -79 l-59 -4 3 -97 c3 -94 4 -96 28 -99 14 -2 29 -8 35 -13 5
-5 -41 -9 -118 -9 -72 0 -127 4 -127 9 0 5 12 11 28 13 l27 3 3 218 2 217 -30
6 c-16 4 -30 11 -30 17 0 17 289 3 325 -15z m375 12 c0 -5 -10 -10 -23 -10
-39 0 -47 -18 -47 -112 l0 -88 85 0 85 0 0 88 c0 94 -8 112 -47 112 -13 0 -23
5 -23 10 0 6 50 10 130 10 80 0 130 -4 130 -10 0 -5 -10 -10 -23 -10 -45 0
-47 -12 -47 -232 0 -219 -1 -215 44 -222 8 -1 19 -5 22 -9 4 -4 -53 -7 -127
-7 -134 1 -134 1 -99 18 l35 17 3 98 3 97 -86 0 -85 0 0 -100 c0 -99 0 -101
26 -110 14 -6 30 -8 35 -4 5 3 9 0 9 -5 0 -7 -45 -11 -130 -11 -71 0 -130 3
-130 8 0 4 12 8 26 9 15 0 30 7 35 15 5 7 9 103 9 214 0 212 -3 224 -47 224
-13 0 -23 5 -23 10 0 6 50 10 130 10 80 0 130 -4 130 -10z m-1251 -1055 c100
-229 114 -255 136 -255 8 0 15 -4 15 -10 0 -6 -45 -10 -117 -9 -96 1 -113 3
-90 12 32 13 34 34 7 87 l-20 40 -84 0 -84 0 -12 -35 c-15 -47 -10 -79 15 -83
11 -2 24 -8 30 -13 5 -5 -27 -9 -80 -8 -74 0 -87 2 -71 12 41 26 55 50 151
265 55 122 102 218 106 214 4 -4 48 -101 98 -217z m-379 205 c0 -5 -10 -10
-23 -10 -44 0 -47 -13 -47 -221 0 -109 3 -204 6 -213 3 -9 14 -16 23 -16 9 0
23 -5 31 -10 10 -7 -28 -10 -117 -10 -73 0 -133 4 -133 8 0 4 12 9 27 10 15 1
30 8 35 15 4 6 8 103 8 215 l0 202 -85 0 -85 0 0 -202 c0 -112 4 -209 8 -215
5 -7 20 -14 35 -15 15 -1 27 -6 27 -10 0 -4 -60 -8 -132 -7 -120 0 -129 2 -98
13 l35 13 3 208 c3 221 0 235 -44 235 -13 0 -24 5 -24 10 0 6 98 10 275 10
177 0 275 -4 275 -10z m889 -15 c71 -36 95 -99 64 -162 -23 -47 -79 -76 -155
-81 l-59 -4 3 -97 c3 -94 4 -96 28 -99 14 -2 29 -8 35 -13 5 -5 -41 -9 -118
-9 -72 0 -127 4 -127 9 0 5 12 11 27 13 19 2 29 10 34 28 9 32 11 303 3 364
-6 42 -10 48 -35 53 -16 3 -29 10 -29 16 0 6 52 8 148 5 115 -4 155 -9 181
-23z m571 -45 c0 -40 -4 -70 -10 -70 -5 0 -10 7 -10 16 0 48 -51 90 -112 93
l-28 1 0 -208 c0 -114 4 -213 8 -219 5 -7 20 -14 35 -15 15 -1 27 -6 27 -10 0
-4 -60 -8 -132 -7 -107 0 -127 3 -103 11 17 6 33 16 37 22 4 6 8 105 8 220 l0
209 -42 -7 c-50 -8 -73 -27 -90 -72 -19 -53 -28 -40 -28 36 l0 70 220 0 220 0
0 -70z m300 60 c0 -5 -10 -10 -23 -10 -43 0 -47 -15 -47 -169 0 -89 4 -141 9
-136 5 6 43 63 84 127 64 100 74 122 68 145 -6 22 -14 29 -39 31 -18 2 -30 8
-27 13 8 13 265 12 265 -1 0 -5 -10 -10 -22 -10 -51 0 -53 -7 -56 -196 -4
-204 0 -242 30 -253 51 -19 79 0 153 104 l71 100 -35 20 c-93 52 -86 171 12
222 40 20 367 33 367 14 0 -6 -9 -11 -19 -11 -47 0 -51 -19 -51 -221 0 -112 4
-198 10 -210 6 -11 21 -19 35 -19 14 0 25 -4 25 -10 0 -6 -48 -10 -125 -10
-77 0 -125 4 -125 10 0 6 10 10 23 10 39 0 47 18 47 112 0 121 -14 118 -110
-22 l-75 -109 -215 0 c-182 0 -210 2 -181 13 19 7 38 22 43 35 4 12 5 81 1
151 l-6 129 -78 -122 c-83 -129 -95 -168 -58 -187 11 -7 27 -9 35 -6 8 3 14 1
14 -4 0 -6 -53 -10 -132 -9 -116 1 -129 2 -105 13 16 7 33 19 38 27 5 8 9 102
9 210 0 206 -3 219 -47 219 -13 0 -23 5 -23 10 0 6 50 10 130 10 80 0 130 -4
130 -10z"/>
<path d="M5589 2949 c-33 -12 -49 -47 -49 -105 0 -62 32 -94 95 -94 l45 0 0
105 0 105 -32 -1 c-18 0 -45 -5 -59 -10z"/>
<path d="M5007 2750 l-34 -75 33 -3 c19 -2 49 -2 67 0 l33 3 -32 75 -33 75
-34 -75z"/>
<path d="M380 2643 c0 -49 4 -93 8 -99 26 -38 94 -13 112 41 25 74 -18 145
-87 145 l-33 0 0 -87z"/>
<path d="M1928 2954 c-16 -8 -38 -34 -50 -57 -19 -36 -23 -58 -23 -147 0 -116
12 -164 52 -204 19 -20 36 -26 67 -26 91 0 125 62 126 224 0 92 -3 117 -21
154 -32 65 -94 88 -151 56z"/>
<path d="M2460 2855 c0 -97 1 -105 20 -105 65 0 101 62 80 140 -11 41 -24 52
-72 64 l-28 6 0 -105z"/>
<path d="M1237 1910 l-34 -75 33 -3 c19 -2 49 -2 67 0 l33 3 -32 75 -33 75
-34 -75z"/>
<path d="M2587 1910 l-34 -75 33 -3 c19 -2 49 -2 67 0 l33 3 -32 75 -33 75
-34 -75z"/>
<path d="M4719 2109 c-42 -16 -64 -76 -48 -134 13 -44 43 -65 96 -65 l43 0 0
105 0 105 -32 -1 c-18 0 -45 -5 -59 -10z"/>
<path d="M4134 1913 c-16 -37 -30 -71 -32 -75 -2 -4 28 -8 66 -8 l70 0 -31 75
c-18 41 -35 75 -38 75 -3 0 -19 -30 -35 -67z"/>
<path d="M2246 2113 c-3 -3 -6 -51 -6 -105 l0 -98 30 0 c19 0 40 9 55 25 34
33 35 113 3 148 -23 25 -69 42 -82 30z"/>
<path d="M3130 2015 l0 -106 32 3 c43 4 71 44 71 101 -1 54 -16 84 -45 92 -63
18 -58 26 -58 -90z"/>
<path d="M2217 1060 l-34 -75 33 -3 c19 -2 49 -2 68 0 l34 3 -34 75 -33 75
-34 -75z"/>
<path d="M2760 1165 l0 -106 32 3 c43 4 71 44 71 101 -1 54 -16 84 -45 92 -63
18 -58 26 -58 -90z"/>
<path d="M4313 1255 c-25 -10 -34 -23 -43 -55 -23 -84 16 -140 96 -140 l44 0
0 105 0 105 -32 0 c-18 -1 -47 -7 -65 -15z"/>
</g>
</svg>
