<?xml version="1.0" encoding="UTF-8" standalone="no"?>
<svg
   xmlns:dc="http://purl.org/dc/elements/1.1/"
   xmlns:cc="http://creativecommons.org/ns#"
   xmlns:rdf="http://www.w3.org/1999/02/22-rdf-syntax-ns#"
   xmlns:svg="http://www.w3.org/2000/svg"
   xmlns="http://www.w3.org/2000/svg"
   xmlns:sodipodi="http://sodipodi.sourceforge.net/DTD/sodipodi-0.dtd"
   xmlns:inkscape="http://www.inkscape.org/namespaces/inkscape"
   version="1.0"
   x="0.0000000"
   y="0.0000000"
   width="1050"
   height="700"
   id="svg1"
   sodipodi:version="0.32"
   inkscape:version="1.0 (4035a4fb49, 2020-05-01)"
   sodipodi:docname="Civil_Air_Ensign_of_South_Africa_(obsolete).svg"
   inkscape:output_extension="org.inkscape.output.svg.inkscape">
  <metadata
     id="metadata11">
    <rdf:RDF>
      <cc:Work
         rdf:about="">
        <dc:format>image/svg+xml</dc:format>
        <dc:type
           rdf:resource="http://purl.org/dc/dcmitype/StillImage" />
      </cc:Work>
    </rdf:RDF>
  </metadata>
  <sodipodi:namedview
     inkscape:window-height="1018"
     inkscape:window-width="1920"
     inkscape:pageshadow="2"
     inkscape:pageopacity="0.0"
     guidetolerance="10.0"
     gridtolerance="10.0"
     objecttolerance="10.0"
     borderopacity="1.0"
     bordercolor="#666666"
     pagecolor="#ffffff"
     id="base"
     width="1050px"
     height="700px"
     inkscape:zoom="1"
     inkscape:cx="533.10435"
     inkscape:cy="367.25414"
     inkscape:window-x="-8"
     inkscape:window-y="-8"
     inkscape:current-layer="svg1"
     showgrid="false"
     fit-margin-top="0"
     fit-margin-left="0"
     fit-margin-right="0"
     fit-margin-bottom="0"
     inkscape:window-maximized="1"
     inkscape:document-rotation="0" />
  <defs
     id="defs3">
    <clipPath
       id="b">
      <path
         id="path5"
         d="M 22.5,15 H 0 v 15 z m 0,0 V 30 H 45 Z m 0,0 H 45 V 0 Z m 0,0 V 0 H 0 Z" />
    </clipPath>
    <clipPath
       id="a">
      <path
         id="path2"
         d="M 0,0 V 30 H 45 V 0 Z" />
    </clipPath>
  </defs>
  <rect
     style="fill:#92c5e4;fill-opacity:1;stroke:none"
     id="rect2217"
     width="1050"
     height="700"
     x="0"
     y="0" />
  <path
     id="path12"
     fill="#ffffff"
     d="M 0,0 H 500 V 350 H 0 Z"
     style="stroke-width:0.574942" />
  <path
     id="path10"
     fill="#003884"
     d="M 0,200.00017 H 450 V 300 H 0 Z"
     style="stroke-width:0.5" />
  <path
     id="path14"
     fill="#ff8400"
     d="M 0,0 H 449.99923 V 99.999829 H 0 Z"
     style="stroke-width:0.499999" />
  <path
     style="stroke-width:0.512179"
     id="path16"
     d="m 156.333,132.333 v 35.3335 h 52 V 132.333 Z" />
  <path
     style="stroke-width:0.512179"
     id="path18"
     d="m 207.333,176 v -52 h 35.3335 v 52 z" />
  <path
     style="stroke-width:0.512179"
     id="path20"
     d="m 241.6665,132.333 h 52 v 35.3335 h -52 z" />
  <path
     id="path22"
     d="m 157.333,133.3335 v 33.333 h 50 v -33.333 z"
     fill="#003884"
     style="stroke-width:0.5" />
  <path
     id="path24"
     d="M 0,0 45,30 M 45,0 0,30"
     clip-path="url(#a)"
     stroke="#ffffff"
     stroke-width="6"
     transform="matrix(1.11111,0,0,1.11111,157.333,133.3335)" />
  <path
     id="path26"
     d="M 0,0 45,30 M 45,0 0,30"
     clip-path="url(#b)"
     stroke="#ce1126"
     stroke-width="4"
     transform="matrix(1.11111,0,0,1.11111,157.333,133.3335)" />
  <path
     id="path28"
     d="m 182.333,133.3335 v 33.333 M 157.333,150 h 50"
     stroke="#ffffff"
     stroke-width="11.111" />
  <path
     id="path30"
     d="m 182.333,133.3335 v 33.333 M 157.333,150 h 50"
     stroke="#ce1126"
     stroke-width="6.6665" />
  <path
     id="path32"
     d="m 208.333,125 h 33.3335 v 50 H 208.333 Z"
     fill="#ffffff"
     style="stroke-width:0.5" />
  <path
     id="path34"
     d="m 210.7145,125 v 21.4285"
     stroke="#ce1126"
     stroke-width="4.762" />
  <path
     id="path36"
     d="m 220.238,125 v 21.4285"
     stroke="#003884"
     stroke-width="4.762" />
  <path
     id="path38"
     d="M 215.476,146.4285 V 175 m 9.52399,-50 v 50 m 9.52401,-50 v 50"
     stroke="#ff8400"
     stroke-width="4.762" />
  <path
     id="path40"
     d="m 242.6665,133.3335 h 50 v 33.333 h -50 z"
     fill="#003884"
     style="stroke-width:0.5" />
  <path
     id="path42"
     d="m 242.6665,133.3335 h 50 v 22.222 h -50 z"
     fill="#ffffff"
     style="stroke-width:0.5" />
  <path
     id="path44"
     d="m 242.6665,133.3335 h 50 v 11.111 h -50 z"
     fill="#ce1126"
     style="stroke-width:0.5" />
  <path
     id="path46"
     d="M 242.6665,133.3335 H 256 v 33.333 h -13.3335 z"
     fill="#007a4d"
     style="stroke-width:0.5" />
  <path
     id="rect4178"
     style="stroke:#ffffff;stroke-width:100"
     d="M 0,350 H 1050 M 500,0 v 700"
     sodipodi:nodetypes="cccc" />
  <path
     id="rect5155"
     style="stroke:#003884;stroke-width:60"
     d="M 0,350 H 1050 M 500,0 v 700" />
</svg>
