<?xml version="1.0" encoding="UTF-8" standalone="no"?>
<!-- Creator: CorelDRAW -->

<svg
   xmlns:dc="http://purl.org/dc/elements/1.1/"
   xmlns:cc="http://creativecommons.org/ns#"
   xmlns:rdf="http://www.w3.org/1999/02/22-rdf-syntax-ns#"
   xmlns:svg="http://www.w3.org/2000/svg"
   xmlns="http://www.w3.org/2000/svg"
   xmlns:sodipodi="http://sodipodi.sourceforge.net/DTD/sodipodi-0.dtd"
   xmlns:inkscape="http://www.inkscape.org/namespaces/inkscape"
   xml:space="preserve"
   width="1023px"
   height="682px"
   style="shape-rendering:geometricPrecision; text-rendering:geometricPrecision; image-rendering:optimizeQuality; fill-rule:evenodd"
   viewBox="0 0 10230 6820"
   id="svg2"
   version="1.1"
   inkscape:version="0.48.1 "
   sodipodi:docname="AJAX.svg"><metadata
   id="metadata37"><rdf:RDF><cc:Work
       rdf:about=""><dc:format>image/svg+xml</dc:format><dc:type
         rdf:resource="http://purl.org/dc/dcmitype/StillImage" /></cc:Work></rdf:RDF></metadata><sodipodi:namedview
   pagecolor="#ffffff"
   bordercolor="#666666"
   borderopacity="1"
   objecttolerance="10"
   gridtolerance="10"
   guidetolerance="10"
   inkscape:pageopacity="0"
   inkscape:pageshadow="2"
   inkscape:window-width="1280"
   inkscape:window-height="1004"
   id="namedview35"
   showgrid="false"
   inkscape:zoom="0.58675369"
   inkscape:cx="3.5695376"
   inkscape:cy="120.00068"
   inkscape:window-x="-8"
   inkscape:window-y="-8"
   inkscape:window-maximized="1"
   inkscape:current-layer="svg2" />
 <defs
   id="defs4">
  <style
   type="text/css"
   id="style6">
   
    .str0 {stroke:#FFCE00;stroke-width:192}
    .fil2 {fill:none}
    .fil3 {fill:#0000FF}
    .fil1 {fill:#FFCE00}
    .fil4 {fill:#00C400}
    .fil0 {fill:#FFFFFF}
   
  </style>
 </defs>
 <path
   class="fil0"
   d="M0 0l10230 0 0 6820 -10230 0 0 -6820z"
   id="path8" />
 <g
   id="Layer 1">
  <path
   class="fil1"
   d="M6569 4882l4001 -584 -140 -976 -3983 1320 122 240z"
   id="path11" />
  <path
   class="fil1"
   d="M6368 4443l4120 -2107 -152 -975 -4076 2873 108 209z"
   id="path13" />
  <path
   class="fil1"
   d="M3740 4882l-4001 -584 141 -976 3983 1320 -123 240z"
   id="path15" />
  <path
   class="fil1"
   d="M3941 4443l-4108 -2095 140 -987 4065 2884 -97 198z"
   id="path17" />
  <path
   class="fil1"
   d="M6172 4181l2822 -2615 -631 -520 -2313 2921 122 214z"
   id="path19" />
  <path
   class="fil1"
   d="M5904 3843l1408 -2511 -899 64 -795 2312 286 135z"
   id="path21" />
  <path
   class="fil1"
   d="M4137 4134l-2775 -2592 584 -496 2314 2921 -123 167z"
   id="path23" />
  <path
   class="fil1"
   d="M4464 3843l-1467 -2511 899 64 819 2312 -251 135z"
   id="path25" />
  <path
   class="fil1"
   d="M5010 3655l-280 -2335 887 58 -280 2371 -327 -94z"
   id="path27" />
  <circle
   class="fil2 str0"
   cx="5115"
   cy="5057"
   r="1367"
   id="circle29" />
  <rect
   class="fil3"
   x="0"
   y="0"
   width="10230"
   height="1705"
   id="rect31"
   style="fill:#0033a1;fill-opacity:1" />
  <rect
   class="fil4"
   x="0"
   y="5115"
   width="10230"
   height="1705"
   id="rect33"
   style="fill:#009131;fill-opacity:1" />
 </g>
</svg>