<?xml version="1.0" encoding="UTF-8" standalone="no"?>
<!DOCTYPE svg PUBLIC "-//W3C//DTD SVG 20010904//EN"
              "http://www.w3.org/TR/2001/REC-SVG-20010904/DTD/svg10.dtd">

<svg xmlns="http://www.w3.org/2000/svg"
     width="12.5in" height="8.33333in"
     viewBox="0 0 1125 750">
  <path id="white"
        fill="none" stroke="white" stroke-width="320"
        d="M 160,0
           C 160,0 160,750 160,750" />
  <path id="zebra1"
        fill="black" stroke="black" stroke-width="1"
        d="M -55.50,501.00
           C -55.50,501.00 -37.50,258.00 -37.50,258.00
             -37.50,258.00 -9.00,168.00 10.50,294.00
             30.00,393.00 18.00,376.50 25.50,429.00
             33.00,481.50 15.00,474.00 30.00,570.00
             45.00,666.00 69.00,778.50 84.00,814.50
             99.00,850.50 -1.50,826.50 -1.50,826.50
             -1.50,826.50 -61.50,570.00 -61.50,570.00" />
  <path id="zebra2"
        fill="black" stroke="black" stroke-width="1"
        d="M 6.00,-90.00
           C 6.00,-90.00 58.50,-1.50 58.50,-1.50
             58.50,-1.50 91.50,117.00 114.00,165.00
             136.50,213.00 141.00,234.00 165.00,292.50
             189.00,351.00 204.00,384.00 225.00,465.00
             246.00,546.00 256.50,562.50 265.50,612.00
             261.00,629.00 255.00,638.00 260.00,651.00
             265.00,664.00 277.00,672.00 279.00,709.00
             281.00,746.00 304.50,841.50 304.50,841.50
             304.50,841.50 204.00,795.00 204.00,795.00
             204.00,795.00 132.00,657.00 109.50,570.00
             97.50,472.50 91.50,480.00 94.50,415.50
             82.50,325.50 55.50,223.50 19.50,150.00
             -16.50,76.50 -54.00,-22.50 -54.00,-22.50
             -54.00,-22.50 -19.50,-81.00 -19.50,-81.00" />
   <path id="zebra3"
        fill="black" stroke="black" stroke-width="1"
        d="M 256.50,-111.00
           C 256.50,-111.00 270.00,-36.00 282.00,6.00
             294.00,48.00 304.50,105.00 304.50,105.00
             304.50,105.00 331.50,328.50 331.50,328.50
             331.50,328.50 348.00,519.00 348.00,519.00
             348.00,519.00 357.00,583.50 310.50,501.00
             264.00,418.50 269.00,401.00 254.00,354.00
             227.00,295.00 215.00,283.00 203.00,237.00
             191.00,191.00 170.00,180.00 155.00,136.00
             140.00,92.00 125.00,64.00 119.00,25.00
             113.00,-14.00 94.50,-84.00 94.50,-84.00
             94.50,-84.00 156.00,-66.00 156.00,-66.00
             156.00,-66.00 160.50,-57.00 178.50,-3.00
             196.50,51.00 205.50,109.50 229.50,159.00
             253.50,208.50 252.00,228.00 270.00,232.50
             277.50,196.50 273.00,154.50 253.50,111.00
             234.00,67.50 231.00,-1.50 220.50,-15.00
             210.00,-28.50 237.00,-81.00 237.00,-81.00" />
  <path id="blue"
        fill="none" stroke="#001E96" stroke-width="250"
        d="M 320,125
           C 320,125 1125.00,125 1125.00,125" />
  <path id="green"
        fill="none" stroke="#007B4C" stroke-width="250"
        d="M 320,375
           C 320,375 1125.00,375 1125.00,375" />
  <path id="yellow"
        fill="none" stroke="#FCD20F" stroke-width="250"
        d="M 320,625
           C 320,625 1125.00,625 1125.00,625" />
</svg>
