<?xml version="1.0" encoding="UTF-8"?>
<!DOCTYPE svg  PUBLIC '-//W3C//DTD SVG 1.1//EN'  'http://www.w3.org/Graphics/SVG/1.1/DTD/svg11.dtd'>
<svg clip-rule="evenodd" fill-rule="evenodd" image-rendering="optimizeQuality" shape-rendering="geometricPrecision" text-rendering="geometricPrecision" version="1.1" viewBox="0 0 680 454" xmlns="http://www.w3.org/2000/svg">
<path d="m-0.5-0.5h680v454h-680v-454z" fill="#fdfdfe"/>
<path d="m491.5 96.5c3.395 4.398 7.395 8.064 12 11 0.333 1 1 1.667 2 2 4.059 5.062 8.726 9.395 14 13 0.333 1 1 1.667 2 2 4 4.667 8.333 9 13 13 6.322 9.959 13.156 19.626 20.5 29 17.751 31.584 29.751 65.251 36 101 0.913 9.386 2.08 18.72 3.5 28-69.331 1.167-138.66 1.333-208 0.5-4.292-6.75-8.459-13.583-12.5-20.5 0.643-11.589 4.643-21.922 12-31 1.584-4.313 1.75-8.646 0.5-13 3.782-1.205 7.448-2.705 11-4.5 6.992 0.165 13.992 0.165 21 0 11.269-2.798 22.269-6.465 33-11 11.848-3.543 23.848-4.21 36-2 9.664 3.277 19.331 6.444 29 9.5 2.241 1.121 4.575 2.287 7 3.5 9.682 3.006 19.349 6.006 29 9 9.002 1.233 17.669 0.233 26-3l-4-4c-7.444-3.29-15.111-5.956-23-8-4.89-6.469-3.223-8.802 5-7 2.856 0.88 5.689 1.713 8.5 2.5 2.97 0.266 5.137-0.901 6.5-3.5-1.655-1.444-2.322-3.278-2-5.5-6.585-1.491-13.251-2.658-20-3.5-3.507-1.33-5.173-3.83-5-7.5 4.698 0.21 9.364 0.376 14 0.5 1-0.833 2-1.667 3-2.5-1.077-2.229-1.744-4.563-2-7h-4c0.525-4.618-0.808-5.618-4-3-0.333-0.5-0.667-1-1-1.5 1.782-1.678 2.115-3.511 1-5.5-2.497 1.078-4.163 2.911-5 5.5-0.832 0.688-1.498 0.521-2-0.5 2-3.333 4-6.667 6-10-0.535-1.601-1.535-2.101-3-1.5-2.234 2.063-4.234 4.229-6 6.5 2.117-4.21 3.617-8.543 4.5-13-4.667 5.333-9.333 10.667-14 16-0.167-0.5-0.333-1-0.5-1.5 3.409-6.15 7.076-12.15 11-18-1.333-0.667-2.667-0.667-4 0-2.623 3.412-5.123 6.912-7.5 10.5-0.654 1.196-1.154 1.196-1.5 0 2.872-5.912 5.872-11.745 9-17.5-1.867-0.711-3.367-0.211-4.5 1.5-4.281 6.615-8.947 12.948-14 19 4.051-8.607 8.884-16.941 14.5-25-0.308-0.808-0.808-1.475-1.5-2-6.714 7.712-13.047 15.712-19 24-0.667-1-0.667-2 0-3 5.542-7.913 10.708-16.08 15.5-24.5-1.612-0.72-3.112-0.554-4.5 0.5-6 8.667-12 17.333-18 26l-1.5-1.5c3.224-5.612 7.057-10.779 11.5-15.5 2.626-5.224 4.626-10.557 6-16-5.612 7.585-11.445 14.918-17.5 22 4.596-9.022 9.596-17.855 15-26.5-3.289-0.746-5.789 0.42-7.5 3.5-6.251 9.499-12.251 19.166-18 29-1.71 1.445-3.544 2.278-5.5 2.5 8.54-12.244 16.707-24.744 24.5-37.5 0.667-1 0.667-2 0-3-2.825-3.825-5.992-7.325-9.5-10.5-3.886-1.805-7.886-3.305-12-4.5 0.778-5.103-0.222-5.27-3-0.5-1.465 0.601-2.465 0.101-3-1.5 1.148-1.649 2.481-3.149 4-4.5-2.581-3.646-5.581-4.146-9-1.5-0.169-1.617-0.503-3.284-1-5-5.239 5.53-6.239 4.697-3-2.5-1.637-1.951-3.137-1.7843-4.5 0.5-0.278 3.626-2.112 5.626-5.5 6-0.157-1.373 0.01-2.707 0.5-4 2.588-1.6259 3.755-3.6259 3.5-6-3.459 2.9148-6.459 6.2482-9 10-1.333 1.333-2.667 1.333-4 0 1.973-3.14 4.14-6.1397 6.5-9 0.667-1.6667 0.667-3.3333 0-5-9.113 12.592-17.947 25.259-26.5 38-2.635 2.579-4.801 5.579-6.5 9-0.671 0.752-1.504 1.086-2.5 1 8.36-13.351 16.693-26.684 25-40-9.358 11.874-18.191 24.207-26.5 37-1.113 0.805-2.279 1.472-3.5 2 11.104-16.691 22.104-33.524 33-50.5-1.612-0.7203-3.112-0.5536-4.5 0.5 1.309-5.4307-0.524-6.4307-5.5-3-0.781-1.2287-1.281-2.562-1.5-4-1.351 1.519-2.851 2.8523-4.5 4-0.213-2.9818-0.547-5.9818-1-9-2.333 2-4.667 4-7 6-0.333-0.3333-0.667-0.6667-1-1 2.123-2.2454 3.123-4.9121 3-8-1.175-0.219-2.175 0.1143-3 1-4.333 5.3333-8.667 10.667-13 16-0.333-0.3333-0.667-0.6667-1-1 3.601-5.5398 6.935-11.206 10-17-0.333-0.6667-0.667-1.3333-1-2-2.317 1.3198-4.317 2.9864-6 5-0.333-0.3333-0.667-0.6667-1-1 0.804-1.4411 1.471-2.9411 2-4.5-0.35-1.2575-1.017-1.5908-2-1-3.98 6.1391-8.313 11.972-13 17.5-0.333-0.3333-0.667-0.6667-1-1 3.601-5.5398 6.935-11.206 10-17-0.233-1.4317-0.9-1.9317-2-1.5-4.214 4.5455-8.047 9.3788-11.5 14.5 1.649-4.3096 3.649-8.6429 6-13 0.781-1.4437 0.614-2.777-0.5-4-5.397 6.4471-10.564 13.114-15.5 20-0.315-1.4078 0.018-2.7411 1-4 3.881-5.2626 7.381-10.763 10.5-16.5-0.35-1.2575-1.017-1.5908-2-1-1.59 1.0458-3.09 2.2125-4.5 3.5-11.013 17.366-22.013 34.7-33 52-0.692-0.525-1.192-1.192-1.5-2 9.916-16.833 20.082-33.5 30.5-50 4.028-5.5033 2.528-8.1699-4.5-8-0.978 0.4767-1.811 1.1433-2.5 2-10.638 15.631-21.638 30.964-33 46-1.257-0.35-1.591-1.017-1-2 9.667-14.667 19.333-29.333 29-44 0.749-1.135 0.583-2.135-0.5-3-11.577 18.251-23.577 36.251-36 54-0.333-0.5-0.667-1-1-1.5 1.201-2.234 2.535-4.401 4-6.5-0.209-0.586-0.543-1.086-1-1.5 9.34-15.016 18.673-30.016 28-45-0.51-1.8261-1.344-1.9928-2.5-0.5-9.672 13.83-19.505 27.496-29.5 41-1.021-0.5016-1.188-1.1683-0.5-2 8.75-13.164 17.25-26.497 25.5-40-1.151-1.231-2.317-1.231-3.5 0-8.281 11.949-16.948 23.615-26 35-0.315-1.4078 0.018-2.7411 1-4 6.5-10.333 13-20.667 19.5-31-1.151-1.231-2.317-1.231-3.5 0-7.947 11.614-16.281 22.948-25 34-0.315-1.4078 0.018-2.7411 1-4 6.667-10 13.333-20 20-30 0.591-0.9835 0.257-1.6501-1-2-9.314 12.813-18.814 25.479-28.5 38-1.021-0.5016-1.188-1.1683-0.5-2 7.833-11.833 15.667-23.667 23.5-35.5-0.775-1.2295-1.775-1.5628-3-1-10.043 12.603-19.71 25.436-29 38.5 6.59-12.095 14.09-24.095 22.5-36 0.563-1.2248 0.23-2.2248-1-3-9.672 13.83-19.505 27.496-29.5 41-0.541-2.023-0.041-4.023 1.5-6 7-10.667 14-21.333 21-32 0.563-1.2248 0.23-2.2248-1-3-10.357 15.335-21.024 30.335-32 45-0.5-0.1667-1-0.3333-1.5-0.5 7.483-12.473 14.816-24.973 22-37.5-10.997 14.345-21.664 29.011-32 44-1.083-0.865-1.249-1.865-0.5-3 7.441-11.89 14.608-23.89 21.5-36-11.903 16.128-23.569 32.461-35 49-0.908-1.29-0.741-2.623 0.5-4 11.75-17.83 23.25-35.83 34.5-54-1.368-1.0937-2.535-0.7603-3.5 1-13.266 19.546-26.766 38.879-40.5 58-1.021-0.502-1.188-1.168-0.5-2 11.91-18.519 23.244-37.186 34-56-6.127 7.7954-12.627 15.295-19.5 22.5-0.948 0.4828-1.948 0.6495-3 0.5 3.115-6.8904 6.782-13.557 11-20-1-1.3333-2-1.3333-3 0-4.385 5.0505-8.385 10.384-12 16-1.083-0.865-1.249-1.865-0.5-3 1.787-4.0766 3.954-7.91 6.5-11.5-1-0.6667-2-0.6667-3 0-3.705 3.9322-7.038 8.0988-10 12.5-0.333-0.5-0.667-1-1-1.5 1.866-2.216 2.7-4.716 2.5-7.5-3.066 3.0664-6.066 6.0664-9 9-0.5-0.3333-1-0.6667-1.5-1 1.656-1.9122 1.989-3.9122 1-6-2.237 2.1471-4.237 4.4804-6 7-1.048-0.8829-2.215-1.5496-3.5-2-19.146 4.4248-35.479 14.092-49 29-1.788 4.941-4.954 8.607-9.5 11 1.389-3.107 3.055-6.107 5-9-0.774-1.2112-1.607-1.2112-2.5 0-16.617 24.441-33.784 48.441-51.5 72-0.908-1.29-0.741-2.623 0.5-4l36-54c0.747-3.451 0.08-3.784-2-1-14.363 19.849-28.863 39.516-43.5 59 7.142-11.965 13.975-23.965 20.5-36-22.753 24.333-38.919 52.5-48.5 84.5 4.416 2.573 7.583 1.406 9.5-3.5 0.684 1.284 0.517 2.451-0.5 3.5 1.333 0.333 2.667 0.667 4 1-7.921 6.044-15.088 12.877-21.5 20.5-0.4955 1.973-0.6621 3.973-0.5 6 18.756-8.201 37.423-16.701 56-25.5 12.285-4.92 24.285-4.42 36 1.5-1.211 1.22-1.211 2.387 0 3.5 15.081 4.117 30.415 6.617 46 7.5 10.699-0.684 20.366-4.184 29-10.5 11.423-4.456 22.757-4.456 34 0 0.626 0.75 1.126 1.584 1.5 2.5 0.211 7.051 0.878 14.051 2 21 4.973 4.899 7.64 10.899 8 18 0.414 5.03 0.081 10.03-1 15-4.682 4.515-9.182 9.181-13.5 14-69.663 1-139.33 1.333-209 1 5.0753-47.392 18.909-92.058 41.5-134 43.116-63.181 102.62-101.68 178.5-115.5 56.087-7.8195 109.09 1.5139 159 28 11.559 6.9383 22.892 14.105 34 21.5z" fill="#404395"/>
<path d="m315.5 57.5c-0.039-1.2562 0.461-2.2562 1.5-3 0.585 1.4976 0.085 2.4976-1.5 3z" fill="#b7b7d7"/>
<path d="m306.5 59.5c-0.039-1.2562 0.461-2.2562 1.5-3 0.585 1.4976 0.085 2.4976-1.5 3z" fill="#a6a6cd"/>
<path d="m306.5 59.5c0.073 1.5269-0.594 2.5269-2 3-0.073-1.5269 0.594-2.5269 2-3z" fill="#c0c1dc"/>
<path d="m456.5 94.5c-0.039-1.2562 0.461-2.2562 1.5-3 0.585 1.4976 0.085 2.4976-1.5 3z" fill="#a3a4cc"/>
<path d="m456.5 94.5c0.073 1.5269-0.594 2.5269-2 3-0.073-1.5269 0.594-2.5269 2-3z" fill="#b4b5d5"/>
<path d="m218.5 102.5c-0.039-1.256 0.461-2.256 1.5-3 0.585 1.498 0.085 2.498-1.5 3z" fill="#8c8cbf"/>
<path d="m234.5 102.5c-0.039-1.256 0.461-2.256 1.5-3 0.585 1.498 0.085 2.498-1.5 3z" fill="#8989bd"/>
<path d="m427.5 102.5c-0.039-1.256 0.461-2.256 1.5-3 0.585 1.498 0.085 2.498-1.5 3z" fill="#8283b9"/>
<path d="m208.5 96.5c1.073 0.7506 1.24 1.7506 0.5 3-2.333 3-4.667 6-7 9 1.333-4.325 3.5-8.325 6.5-12z" fill="#6868aa"/>
<path d="m218.5 102.5c0.073 1.527-0.594 2.527-2 3-0.073-1.527 0.594-2.527 2-3z" fill="#7879b4"/>
<path d="m234.5 102.5c0.073 1.527-0.594 2.527-2 3-0.073-1.527 0.594-2.527 2-3z" fill="#7778b3"/>
<path d="m427.5 102.5c0.073 1.527-0.594 2.527-2 3-0.073-1.527 0.594-2.527 2-3z" fill="#7c7cb6"/>
<path d="m491.5 96.5c4.605 2.9357 8.605 6.602 12 11-4.605-2.936-8.605-6.602-12-11z" fill="#bdbed8"/>
<path d="m229.5 95.5c1.725 0.3425 2.225 1.3425 1.5 3-8.723 11.724-17.056 23.724-25 36-1.615-1.156-1.615-2.489 0-4 8.339-11.35 16.172-23.017 23.5-35z" fill="#51529e"/>
<path d="m181.5 127.5c6.491-11.636 13.991-22.636 22.5-33 0.667 1 0.667 2 0 3-7.363 10.184-14.863 20.184-22.5 30z" fill="#5a5aa2"/>
<path d="m376.5 110.5c-0.039-1.256 0.461-2.256 1.5-3 0.585 1.498 0.085 2.498-1.5 3z" fill="#7577b2"/>
<path d="m184.5 109.5c0.073 1.527-0.594 2.527-2 3-0.073-1.527 0.594-2.527 2-3z" fill="#7272b0"/>
<path d="m406.5 124.5c3.527-7.193 7.861-13.86 13-20 1.021 0.502 1.188 1.168 0.5 2-4.277 6.247-8.777 12.247-13.5 18z" fill="#5f60a6"/>
<path d="m281.5 113.5c4.203 0.788 7.703 2.788 10.5 6 1.389 4.444 3.056 8.777 5 13 5.028 3.861 10.194 7.528 15.5 11 1.73 4.106 0.397 5.606-4 4.5l-25.5-19.5c-2.661-4.778-3.161-9.778-1.5-15z" fill="#474998"/>
<path d="m505.5 109.5c5.274 3.605 9.941 7.938 14 13-5.274-3.605-9.941-7.938-14-13z" fill="#c1c2da"/>
<path d="m307.5 115.5c3.506 3.66 7.506 6.826 12 9.5 9.746 4.872 19.746 9.205 30 13 1.103 1.68 0.77 3.18-1 4.5-8.335 1.875-16.335 1.041-24-2.5-7.11-4.941-13.443-10.775-19-17.5-1.589-3.088-0.922-5.422 2-7z" fill="#444697"/>
<path d="m405.5 115.5c1.213 0.997 1.046 1.997-0.5 3-0.47-1.077-0.303-2.077 0.5-3z" fill="#9091c1"/>
<path d="m386.5 118.5c-0.039-1.256 0.461-2.256 1.5-3 0.585 1.498 0.085 2.498-1.5 3z" fill="#8283b9"/>
<path d="m425.5 105.5c-5.241 10.15-11.241 19.817-18 29-1.083-0.865-1.249-1.865-0.5-3 6.03-8.847 12.196-17.514 18.5-26z" fill="#5a5ba3"/>
<path d="m386.5 118.5c0.073 1.527-0.594 2.527-2 3-0.073-1.527 0.594-2.527 2-3z" fill="#8586bb"/>
<path d="m213.5 96.5c1.725 0.3425 2.225 1.3425 1.5 3-6.919 10.839-14.086 21.506-21.5 32-1.068-1.687-0.901-3.354 0.5-5 6.77-9.886 13.27-19.886 19.5-30z" fill="#54549f"/>
<path d="m402.5 120.5c1.213 0.997 1.046 1.997-0.5 3-0.47-1.077-0.303-2.077 0.5-3z" fill="#8b8bbe"/>
<path d="m182.5 112.5c-8.342 16.844-18.509 32.511-30.5 47-0.667-0.667-0.667-1.333 0-2 10.19-15.066 20.356-30.066 30.5-45z" fill="#54559f"/>
<path d="m384.5 121.5c0.073 1.527-0.594 2.527-2 3-0.073-1.527 0.594-2.527 2-3z" fill="#7a7ab4"/>
<path d="m376.5 110.5c-2.912 6.157-6.578 11.824-11 17-0.908-1.29-0.741-2.623 0.5-4 3.519-4.403 7.019-8.737 10.5-13z" fill="#5556a0"/>
<path d="m391.5 124.5c-0.039-1.256 0.461-2.256 1.5-3 0.585 1.498 0.085 2.498-1.5 3z" fill="#8889bc"/>
<path d="m232.5 105.5c-4.19 8.519-9.19 16.519-15 24-1.021-0.502-1.188-1.168-0.5-2 4.943-7.575 10.109-14.909 15.5-22z" fill="#5859a1"/>
<path d="m260.5 122.5h4c0.256 2.412-0.744 4.079-3 5-0.952-1.545-1.285-3.212-1-5z" fill="#6465a8"/>
<path d="m382.5 124.5c0.039 1.256-0.461 2.256-1.5 3-0.585-1.498-0.085-2.498 1.5-3z" fill="#7577b3"/>
<path d="m391.5 124.5c0.073 1.527-0.594 2.527-2 3-0.073-1.527 0.594-2.527 2-3z" fill="#898abd"/>
<path d="m406.5 124.5c0.073 1.527-0.594 2.527-2 3-0.073-1.527 0.594-2.527 2-3z" fill="#7e7fb7"/>
<path d="m399.5 125.5c1.213 0.997 1.046 1.997-0.5 3-0.47-1.077-0.303-2.077 0.5-3z" fill="#8788bc"/>
<path d="m216.5 105.5c-4.644 8.613-9.81 16.946-15.5 25-0.52-1.789-0.187-3.456 1-5 4.697-6.848 9.53-13.515 14.5-20z" fill="#5a5ba3"/>
<path d="m268.5 125.5c0.939 3.464-0.395 6.131-4 8-1.083-0.865-1.249-1.865-0.5-3 1.193-1.997 2.693-3.664 4.5-5z" fill="#5556a0"/>
<path d="m181.5 127.5c0.039 1.256-0.461 2.256-1.5 3-0.585-1.498-0.085-2.498 1.5-3z" fill="#8182b8"/>
<path d="m389.5 127.5c0.073 1.527-0.594 2.527-2 3-0.073-1.527 0.594-2.527 2-3z" fill="#8283b9"/>
<path d="m404.5 127.5c0.073 1.527-0.594 2.527-2 3-0.073-1.527 0.594-2.527 2-3z" fill="#8182b8"/>
<path d="m387.5 130.5c0.039 1.256-0.461 2.256-1.5 3-0.585-1.498-0.085-2.498 1.5-3z" fill="#8082b8"/>
<path d="m270.5 131.5h3c0.256 2.412-0.744 4.079-3 5-1.166-1.667-1.166-3.334 0-5z" fill="#54559f"/>
<path d="m402.5 130.5c0.039 1.256-0.461 2.256-1.5 3-0.585-1.498-0.085-2.498 1.5-3z" fill="#9092c1"/>
<path d="m521.5 124.5c5.333 3.333 9.667 7.667 13 13-4.667-4-9-8.333-13-13z" fill="#c0c1da"/>
<path d="m477.5 131.5c1.773 3.176 0.773 4.843-3 5-0.19-2.459 0.81-4.126 3-5z" fill="#4e4f9c"/>
<path d="m483.5 131.5c1.052-0.149 2.052 0.017 3 0.5-6.5 9.167-13 18.333-19.5 27.5-0.667-0.667-0.667-1.333 0-2 6.145-8.301 11.645-16.967 16.5-26z" fill="#5e5ea5"/>
<path d="m424.5 136.5c0.039 1.256-0.461 2.256-1.5 3-0.585-1.498-0.085-2.498 1.5-3z" fill="#9090c1"/>
<path d="m438.5 127.5c-2.22 4.772-4.72 9.438-7.5 14-0.654 1.196-1.154 1.196-1.5 0 1.307-1.365 1.307-2.698 0-4 0.996 0.086 1.829-0.248 2.5-1 1.699-3.421 3.865-6.421 6.5-9z" fill="#8283b9"/>
<path d="m442.5 130.5c0.876-0.131 1.543 0.202 2 1-2.257 3.512-4.757 6.846-7.5 10-0.667-1-0.667-2 0-3 2.1-2.551 3.933-5.217 5.5-8z" fill="#54559f"/>
<path d="m449.5 131.5c1.025 0.397 1.192 1.063 0.5 2-3 4.333-6 8.667-9 13-0.667-1.333-0.667-2.667 0-4 3.049-3.543 5.882-7.209 8.5-11z" fill="#6363a7"/>
<path d="m455.5 140.5c-0.039-1.256 0.461-2.256 1.5-3 0.585 1.498 0.085 2.498-1.5 3z" fill="#8687bb"/>
<path d="m275.5 137.5c1.855-0.228 2.688 0.439 2.5 2-2.808 1.36-3.641 0.693-2.5-2z" fill="#8f8ec0"/>
<path d="m455.5 140.5c-0.25 2.174-1.25 3.841-3 5 0.25-2.174 1.25-3.841 3-5z" fill="#8182b9"/>
<path d="m464.5 135.5c1.528 0.017 2.028 0.684 1.5 2-4.057 5.058-7.724 10.392-11 16-0.718 0.951-1.551 1.117-2.5 0.5 4.384-5.939 8.384-12.106 12-18.5z" fill="#5a5ca3"/>
<path d="m225.5 141.5h3c0.744 3.45-0.59 5.116-4 5 0.129-1.716 0.462-3.383 1-5z" fill="#52529e"/>
<path d="m280.5 142.5c3.8 0.319 3.966 1.319 0.5 3-0.483-0.948-0.649-1.948-0.5-3z" fill="#7675b2"/>
<path d="m239.5 143.5c1.495-0.085 2.495 0.581 3 2-1.896 1.139-2.896 0.473-3-2z" fill="#6a69ab"/>
<path d="m479.5 153.5c2.275-4.778 4.775-9.445 7.5-14 1.113-1.829 2.613-2.663 4.5-2.5-3.899 5.656-7.899 11.156-12 16.5z" fill="#6c6dad"/>
<path d="m452.5 145.5c0.039 1.256-0.461 2.256-1.5 3-0.585-1.498-0.085-2.498 1.5-3z" fill="#7476b2"/>
<path d="m466.5 148.5c-0.039-1.256 0.461-2.256 1.5-3 0.585 1.498 0.085 2.498-1.5 3z" fill="#8e8fc0"/>
<path d="m246.5 146.5c2.584 1.919 2.25 3.586-1 5-1.152-1.897-0.819-3.564 1-5z" fill="#6968ab"/>
<path d="m230.5 147.5c2.268 2.617 1.601 4.95-2 7-0.333-0.833-0.667-1.667-1-2.5 0.508-1.893 1.508-3.393 3-4.5z" fill="#5859a1"/>
<path d="m285.5 147.5c0.934 1.068 1.268 2.401 1 4-1.175 0.219-2.175-0.114-3-1 0.693-1.018 1.359-2.018 2-3z" fill="#6868aa"/>
<path d="m330.5 149.5h6c1.675 3.754 3.008 7.754 4 12-4.194 0.323-8.027-0.677-11.5-3-0.906-3.344-0.406-6.344 1.5-9z" fill="#454797"/>
<path d="m401.5 149.5c4.333-0.965 7.333 0.535 9 4.5-0.598 1.301-1.598 2.135-3 2.5-2.921-0.907-5.921-1.24-9-1-0.472-2.858 0.528-4.858 3-6z" fill="#4c4d9b"/>
<path d="m373.5 151.5c4.175-0.312 8.175 0.355 12 2 2.117 4.528 0.783 7.362-4 8.5-7.095-0.199-12.762 2.468-17 8-1.634 0.494-3.301 0.66-5 0.5-0.774-4.275 0.726-7.275 4.5-9 0.333-1.667 0.667-3.333 1-5 2.933-1.58 5.767-3.246 8.5-5z" fill="#444697"/>
<path d="m234.5 152.5c1.725 0.343 2.225 1.343 1.5 3-0.71 1.473-1.876 2.14-3.5 2-0.135-2.054 0.532-3.721 2-5z" fill="#53539e"/>
<path d="m265.5 152.5h3c0.744 3.45-0.59 5.116-4 5-0.134-1.792 0.199-3.458 1-5z" fill="#52539e"/>
<path d="m479.5 153.5c0.073 1.527-0.594 2.527-2 3-0.073-1.527 0.594-2.527 2-3z" fill="#6b6cac"/>
<path d="m197.5 157.5c2.357-0.163 4.69 3e-3 7 0.5 2.199 1.697 4.532 3.197 7 4.5 1.155 2.946 1.321 5.946 0.5 9-0.725 0.559-1.558 0.892-2.5 1-6.026-2.018-12.026-4.018-18-6-0.262-1.478 0.071-2.811 1-4l5-5z" fill="#494a99"/>
<path d="m271.5 155.5c2.385 1.367 2.052 2.701-1 4-0.333-0.5-0.667-1-1-1.5 0.556-1.011 1.222-1.844 2-2.5z" fill="#8383ba"/>
<path d="m466.5 148.5c-1.906 4.815-4.573 9.149-8 13-1.021-0.502-1.188-1.168-0.5-2 2.853-3.735 5.687-7.402 8.5-11z" fill="#6263a7"/>
<path d="m238.5 158.5c1.175-0.219 2.175 0.114 3 1-1.552 1.298-2.552 0.965-3-1z" fill="#7878b3"/>
<path d="m169.5 159.5c1.788-0.285 3.455 0.048 5 1-0.914 2.164-2.081 4.164-3.5 6-0.667 1.667-0.667 3.333 0 5 4.833 3.5 9.667 7 14.5 10.5-7.192 1.984-14.525 2.65-22 2-1.465-3.046-3.299-5.879-5.5-8.5-1.667-0.667-3.333-1.333-5-2-0.318-4.205 1.182-7.705 4.5-10.5 4.093-1.242 8.093-2.409 12-3.5z" fill="#454797"/>
<path d="m302.5 159.5c0.739-0.131 1.406 0.036 2 0.5-1.226 1.635-2.559 3.135-4 4.5l-1-1c1.024-1.352 2.024-2.685 3-4z" fill="#6c6cac"/>
<path d="m505.5 159.5c0.039 1.256-0.461 2.256-1.5 3-0.585-1.498-0.085-2.498 1.5-3z" fill="#8c8cbf"/>
<path d="m250.5 162.5c2.563 1.498 2.563 3.165 0 5-0.934-1.595-0.934-3.261 0-5z" fill="#434596"/>
<path d="m307.5 164.5c1.725 0.343 2.225 1.343 1.5 3-1.309 2.476-3.142 4.476-5.5 6-1.083-0.865-1.249-1.865-0.5-3 1.332-2.16 2.832-4.16 4.5-6z" fill="#5757a1"/>
<path d="m316.5 164.5c1.113 1.446 1.28 3.113 0.5 5-1.685 1.517-3.185 3.184-4.5 5-1.083-0.865-1.249-1.865-0.5-3 1.511-2.362 3.011-4.695 4.5-7z" fill="#53549f"/>
<path d="m258.5 165.5h3c-0.126 2.968-1.626 4.968-4.5 6-0.748-2.34-0.248-4.34 1.5-6z" fill="#605fa6"/>
<path d="m477.5 156.5c-2.183 5.027-5.017 9.693-8.5 14 1.722-5.248 4.555-9.915 8.5-14z" fill="#7b7bb5"/>
<path d="m321.5 167.5c0.739-0.131 1.406 0.036 2 0.5-0.395 2.781-1.728 4.947-4 6.5-1.114-1.223-1.281-2.556-0.5-4 1.045-0.873 1.878-1.873 2.5-3z" fill="#54559f"/>
<path d="m126.5 172.5c0.039 1.256-0.461 2.256-1.5 3-0.585-1.498-0.085-2.498 1.5-3z" fill="#9091c1"/>
<path d="m541.5 177.5c0.039 1.256-0.461 2.256-1.5 3-0.585-1.498-0.085-2.498 1.5-3z" fill="#7677b2"/>
<path d="m457.5 178.5c10.432 2.972 21.099 4.806 32 5.5 9.205 1.772 17.872 4.939 26 9.5 1.333 1 1.333 2 0 3-9.1-2.567-18.266-4.9-27.5-7-0.833 0.333-1.667 0.667-2.5 1 2.574 3.742 5.907 6.575 10 8.5 8.333 2.333 16.667 4.667 25 7 4.338 1.502 8.338 3.502 12 6-0.405 0.945-1.072 1.612-2 2-10.374-0.452-20.374-2.785-30-7-15.067-6.031-29.067-13.864-42-23.5-0.952-1.545-1.285-3.212-1-5z" fill="#484a99"/>
<path d="m378.5 219.5c1.484 4.474 2.484 9.141 3 14-2.73 8.418-6.563 16.751-11.5 25-0.055 6.297-0.889 12.463-2.5 18.5 1.821 3.447 3.154 6.947 4 10.5 0.898 0.658 1.898 1.324 3 2-3.751-0.066-3.918 1.267-0.5 4 0.333-0.667 0.667-1.333 1-2 1.439 1.775 2.439 3.775 3 6 0.232-1.237 0.732-2.237 1.5-3 1.76 3.272 3.76 6.439 6 9.5 0.794 2.969 1.461 5.969 2 9-9e-3 1.404-0.509 2.57-1.5 3.5-0.333-3.333-0.667-6.667-1-10-0.492 5.051-0.492 10.051 0 15-1.802 4.968-5.302 7.968-10.5 9-0.572 2.417-1.572 4.584-3 6.5-9.237 1.141-18.571 1.641-28 1.5-12.69 0.012-25.357-0.488-38-1.5-2.71-1.46-3.376-3.46-2-6-3.679-0.281-7.012-1.448-10-3.5-1.379-4.529-2.712-9.029-4-13.5-0.273-6.56 1.894-12.06 6.5-16.5 0.148-3.813 1.648-6.979 4.5-9.5 1.667-0.333 3.333-0.667 5-1 0.837-1.011 1.17-2.178 1-3.5 1.466 0.847 2.3 2.18 2.5 4 1.596 0.548 2.763-0.118 3.5-2 0.271 1.88-0.396 3.213-2 4h-5c-2 0-3 1-3 3-0.397 1.025-1.063 1.192-2 0.5 1.017-1.049 1.184-2.216 0.5-3.5-1.167 1.833-2.333 3.667-3.5 5.5 0.789 3.097 1.956 3.264 3.5 0.5 1.558 0.845 2.558 0.179 3-2 1.188 1.063 1.688 2.397 1.5 4h-3v3c-1 0.333-1.667 1-2 2-0.647 0.774-0.98 1.774-1 3 0.687 1.653 1.354 3.319 2 5 0.905 1.464 0.905 2.798 0 4-3.371 0.742-3.705-0.258-1-3-0.998-2.528-1.831-2.528-2.5 0-0.92-2.601-1.587-5.268-2-8-0.667 4-1.333 4-2 0-1.036 3.253-1.703 6.586-2 10-0.889-1.388-1.389-1.222-1.5 0.5 0.111 1.722 0.611 1.888 1.5 0.5 0.333 1.667 0.667 3.333 1 5 0.333-3.667 0.667-7.333 1-11 0.391 5.354 0.891 10.688 1.5 16-0.131 0.876 0.202 1.543 1 2 0.751-0.876 1.251-1.876 1.5-3 1.192 2.15 2.692 2.817 4.5 2 0 0.667 0.333 1 1 1-0.418 0.722-1.084 1.222-2 1.5 2.269 0.758 4.436 0.591 6.5-0.5 0.691 2.391 1.691 2.391 3 0 0.807 3.949 1.307 3.949 1.5 0 1.373-0.157 2.707 0.01 4 0.5-1.154 0.914-0.987 1.747 0.5 2.5 0.667-4 1.333-4 2 0 0.561-2.225 1.561-4.225 3-6 0.624 1.964 0.124 3.631-1.5 5 4.802 0.29 9.469 0.79 14 1.5-1.173 3.11-0.673 3.277 1.5 0.5 2.667 2.667 5.333 2.667 8 0 0.667 2.667 1.333 2.667 2 0l1.5 3c-0.897 0.169-1.897 0.502-3 1 1.545 0.952 3.212 1.285 5 1v-3c-0.789-0.283-1.456-0.783-2-1.5 1.231-1.183 1.231-2.349 0-3.5-4.952 1.005-10.118 1.339-15.5 1-1.145-1.136-2.312-2.136-3.5-3-3.058-3.448-5.058-7.448-6-12h-3c-0.38 3.292 0.953 5.625 4 7 0.627 0.917 0.961 1.917 1 3-1.137-1.289-2.47-2.289-4-3-2.484-2.045-3.484-4.712-3-8 1.644 0.214 3.144-0.12 4.5-1 0.226-2.595 0.726-5.095 1.5-7.5-0.949-0.617-1.782-0.451-2.5 0.5-0.497 2.31-0.663 4.643-0.5 7-4.541 0.169-4.874-0.498-1-2-1.069-3.562-0.069-6.562 3-9-4.283-0.992-8.616-1.326-13-1-1.278 0.282-2.278 0.949-3 2-1.333 0-2-0.667-2-2 1.453-1.349 2.453-3.015 3-5 2.13-0.532 4.13-1.365 6-2.5-0.667-0.333-1.333-0.667-2-1 2.841-7.233 5.841-13.733 9-19.5 0.951 1.419 1.284 3.085 1 5-0.538 2.689-1.205 5.356-2 8 2.543 1.078 3.876 0.078 4-3-0.546-1.635-0.88-3.301-1-5 0.07-3.925-0.597-7.591-2-11v-2c0.86-1.788 1.86-3.455 3-5 0.551 3.307 0.884 6.64 1 10 0.307 5.593-0.027 11.093-1 16.5 0.667 0.333 1.333 0.667 2 1-0.857 0.689-1.523 1.522-2 2.5 0.173 2.74 0.173 5.407 0 8 0.167 0.333 0.333 0.667 0.5 1 2.523-2.603 3.19-5.603 2-9 0.333 1 0.667 2 1 3 1.333-4 2.667-4 4 0 0.325-2.053-9e-3 -4.053-1-6-0.977 1.274-1.811 1.274-2.5 0-0.16-1.699 6e-3 -3.366 0.5-5 0.667 4 1.333 4 2 0 0.419 1.172 1.085 2.172 2 3 0.167-0.5 0.333-1 0.5-1.5-0.419-5.6-1.419-11.267-3-17 1.939-4.696 1.272-8.862-2-12.5-1.495-1.205-2.828-1.205-4 0-0.897-1.098-1.73-1.098-2.5 0-0.186 2.536-0.686 4.869-1.5 7 0.577-4.369-0.257-8.369-2.5-12-6.48 4.283-8.313 10.117-5.5 17.5-1.108 5.155-2.108 10.321-3 15.5-0.951-1.419-1.284-3.085-1-5 0.321-1.317 0.654-2.651 1-4-1.546-5.545-2.38-11.212-2.5-17-3.328-5.964-6.661-11.964-10-18-0.667-2.667-0.667-5.333 0-8 1.571-3.885 2.571-7.885 3-12-1.555 2.015-3.389 2.348-5.5 1-3.539-4.369-6.872-8.869-10-13.5 1.516-3.508 3.016-7.008 4.5-10.5 4.448-2.114 7.948-5.281 10.5-9.5 2.46-0.981 4.96-1.815 7.5-2.5 3.415 2.262 7.248 3.595 11.5 4 3.11-2.165 4.11-4.999 3-8.5-0.061-1.711 0.606-3.044 2-4 3-0.333 6-0.667 9-1l1.5-1.5c6.917 0.627 14.083 1.46 21.5 2.5 1.842 5.27 3.842 10.437 6 15.5 3.783-1.058 7.117-2.891 10-5.5 5.748-0.789 9.748 1.544 12 7 5.333 0.544 8.166 3.377 8.5 8.5 2.535 2.166 3.535 4.833 3 8-4.145 3.815-7.978 7.981-11.5 12.5-1.428 0.579-2.762 0.412-4-0.5z" fill="#f15e36"/>
<path d="m388.5 196.5c-2.185 0.388-4.018 1.388-5.5 3-1.766-0.733-3.599-1.067-5.5-1 0.069-2.584 1.235-4.584 3.5-6 2.739 1.116 5.239 2.449 7.5 4z" fill="#fef1ed"/>
<path d="m354.5 185.5c0.979 1.265 1.979 2.599 3 4-0.24 3.586-0.407 7.252-0.5 11-0.934 1.358-1.768 2.692-2.5 4-2.165-4.409-1.832-8.742 1-13-0.402-1.8-1.069-3.467-2-5 0-0.667 0.333-1 1-1z" fill="#fee8e3"/>
<path d="m344.5 190.5c1.276 0.886 1.276 1.886 0 3-0.587-0.733-0.587-1.733 0-3z" fill="#fde1d9"/>
<path d="m314.5 189.5c1.729 0.617 3.229 1.617 4.5 3 0.528 1.316 0.028 1.983-1.5 2-1.39-1.399-2.39-3.066-3-5z" fill="#f8a68f"/>
<path d="m314.5 189.5c0.61 1.934 1.61 3.601 3 5 0.172 0.992-0.162 1.658-1 2-1.135-1.713-2.802-2.38-5-2v-5h3z" fill="#fef2ef"/>
<path d="m352.5 187.5c1.557 2.663 0.89 4.663-2 6-0.682-0.743-1.349-1.409-2-2 0.057-1.109 0.39-2.109 1-3 1.109-0.057 2.109-0.39 3-1z" fill="#feede9"/>
<path d="m361.5 198.5c-0.876 0.131-1.543-0.202-2-1 0.693-1.018 1.359-2.018 2-3-2.427-0.779-2.427-1.946 0-3.5 3.663-0.591 6.663-2.258 9-5 3.72-1.392 5.72-0.225 6 3.5h3v3c-1.478-0.262-2.811 0.071-4 1-2.959 1.91-5.459 4.244-7.5 7-0.756-2.309-0.256-4.309 1.5-6-0.742-0.787-1.575-1.453-2.5-2-1.365 2.562-3.199 4.562-5.5 6z" fill="#feefeb"/>
<path d="m361.5 194.5c0.814-1.773 2.148-2.273 4-1.5-1.063 1.188-2.397 1.688-4 1.5z" fill="#f1653f"/>
<path d="m350.5 185.5c-0.057 1.109-0.39 2.109-1 3-2.104 0.299-4.104-0.034-6-1 0.828-0.915 1.828-1.581 3-2 1.365 1.307 2.698 1.307 4 0z" fill="#fef2ee"/>
<path d="m304.5 184.5h4c0.71 4.85 1.043 9.683 1 14.5-0.333 0.5-0.667 1-1 1.5-1.431-0.477-2.764-1.143-4-2 1.756-1.691 2.256-3.691 1.5-6-0.026 2.605-1.193 3.771-3.5 3.5 0.837-1.011 1.17-2.178 1-3.5-6.644-0.597-7.478-2.93-2.5-7 1.579 1.3 2.745 0.966 3.5-1z" fill="#feece7"/>
<path d="m354.5 185.5c-0.667 0-1 0.333-1 1-0.667 0-1 0.333-1 1-0.891 0.61-1.891 0.943-3 1 0.61-0.891 0.943-1.891 1-3 0.667 0 1-0.333 1-1 1.471-1.884 1.971-3.884 1.5-6 1.352 2.094 1.852 4.427 1.5 7z" fill="#fbb09b"/>
<path d="m343.5 176.5c-1.276 0.886-1.276 1.886 0 3 1.571 0.809 3.238 1.143 5 1 1.289 1.137 2.289 2.47 3 4 0 0.667-0.333 1-1 1-1.473-2.747-3.806-3.581-7-2.5-2.305 2.594-2.638 5.427-1 8.5-4.409 0.601-5.742-1.066-4-5-0.969-3.487-3.302-4.82-7-4-4.207 3.202-3.707 4.202 1.5 3 1.301 0.139 2.134 0.805 2.5 2-2.514 0.826-5.181 0.992-8 0.5 1.502 0.583 2.835 1.416 4 2.5-1.539 2.988-2.539 6.154-3 9.5 1.262 1.787 2.095 3.621 2.5 5.5-3.988-3.12-4.822-6.787-2.5-11-1.211-1.374-2.211-2.874-3-4.5 0.959-2.12 1.126-4.287 0.5-6.5-1.549 3.981-1.715 7.981-0.5 12-1.416 1.639-3.083 2.473-5 2.5 0.318-2.042 0.485-4.209 0.5-6.5 0.419 1.172 1.085 2.172 2 3 0.167-0.5 0.333-1 0.5-1.5-2.02-2.621-2.353-5.455-1-8.5 0.896 1.006 1.562 1.006 2 0-0.226-2.724-0.56-5.391-1-8 2.766-0.732 5.432-0.732 8 0-0.275 2.342-1.108 2.342-2.5 0-4.083 1.475-4.416 3.475-1 6 1.652-0.899 3.152-1.899 4.5-3h8c0.663-1.542 1.33-3.209 2-5 0.798 0.457 1.131 1.124 1 2z" fill="#fee7e1"/>
<path d="m331.5 182.5c1.218 0.661 2.551 1.328 4 2 1.153 1.187 1.153 2.187 0 3-0.366-1.195-1.199-1.861-2.5-2-5.207 1.202-5.707 0.202-1.5-3z" fill="#f47d5d"/>
<path d="m340.5 179.5h-5c0.209-5.761 1.042-6.094 2.5-1 1.458-5.094 2.291-4.761 2.5 1z" fill="#f9b3a0"/>
<path d="m332.5 179.5c-1.348 1.101-2.848 2.101-4.5 3-3.416-2.525-3.083-4.525 1-6 1.392 2.342 2.225 2.342 2.5 0 0.206-2.049 1.039-2.383 2.5-1 0.484 1.693-0.016 3.027-1.5 4z" fill="#f78666"/>
<path d="m348.5 175.5c0.418 0.722 1.084 1.222 2 1.5-1.473 0.71-2.14 1.876-2 3.5-1.762 0.143-3.429-0.191-5-1-1.276-1.114-1.276-2.114 0-3 1.241-2.431 2.408-2.431 3.5 0 0.383-0.556 0.883-0.889 1.5-1z" fill="#f89174"/>
<path d="m348.5 180.5c-0.14-1.624 0.527-2.79 2-3.5-0.916-0.278-1.582-0.778-2-1.5 1.068-0.934 2.401-1.268 4-1 0.203 1.89-0.463 3.39-2 4.5l1 1c-0.948 0.483-1.948 0.649-3 0.5z" fill="#fed8ce"/>
<path d="m294.5 197.5v1c-1.517 0.011-2.684 0.677-3.5 2-0.884-2.141-0.384-3.807 1.5-5 1.022 0.355 1.689 1.022 2 2z" fill="#f05e37"/>
<path d="m316.5 196.5c-0.588 1.705-0.921 3.372-1 5-3.342-0.817-4.842-2.817-4.5-6 1.699 0.906 3.533 1.239 5.5 1z" fill="#feede9"/>
<path d="m338.5 197.5c-4.432 4.416-7.099 3.749-8-2 1.079-2.376 2.412-2.543 4-0.5-2.667 0.667-2.667 1.333 0 2-0.667 0.333-1.333 0.667-2 1 2.045 0.49 4.045 0.323 6-0.5z" fill="#fba891"/>
<path d="m522.5 195.5c0.876-0.131 1.543 0.202 2 1-2.308 1.373-2.975 1.04-2-1z" fill="#6464a8"/>
<path d="m206.5 196.5c8.06-0.296 15.06 2.204 21 7.5-0.828 0.915-1.828 1.581-3 2-5.333 0.667-10.667 0.667-16 0-4.216-2.579-4.882-5.746-2-9.5z" fill="#464798"/>
<path d="m299.5 196.5v2h-5v-1c1.542-0.801 3.208-1.134 5-1z" fill="#f7a58f"/>
<path d="m348.5 191.5c-9e-3 1.808 0.491 3.475 1.5 5 0.914-1.154 1.747-0.987 2.5 0.5-0.916 0.278-1.582 0.778-2 1.5-4.179 1.477-8.179 1.143-12-1v-3c1.052-0.149 2.052 0.017 3 0.5-0.958 1.147-0.625 2.147 1 3 2 0.667 4 0.667 6 0-5.675-0.464-6.008-1.131-1-2-1.667-0.333-3.333-0.667-5-1 2.52-0.421 4.52-1.588 6-3.5z" fill="#fcc9bb"/>
<path d="m484.5 207.5c-6.333 0.667-12.667 1.333-19 2-6.342-0.166-12.675 0-19 0.5-12.927 1.636-24.927 5.803-36 12.5-1.083-0.865-1.249-1.865-0.5-3l3.5-3.5c10.808-5.814 21.308-11.981 31.5-18.5 13.246 3.103 26.413 6.436 39.5 10z" fill="#474898"/>
<path d="m299.5 196.5c-1.792-0.134-3.458 0.199-5 1-0.311-0.978-0.978-1.645-2-2-1.884 1.193-2.384 2.859-1.5 5 0.816-1.323 1.983-1.989 3.5-2h5c0.617 0.111 1.117 0.444 1.5 1 0.828 4.702 0.662 9.369-0.5 14-1.849 1.093-3.516 2.426-5 4-0.886-0.825-1.219-1.825-1-3 3.041 0.121 4.708-1.379 5-4.5-0.478-1.642-1.478-2.809-3-3.5-0.111-0.617-0.444-1.117-1-1.5 1.884-0.216 3.551-0.883 5-2-0.949-0.617-1.782-0.451-2.5 0.5-0.388-0.928-1.055-1.595-2-2-1.73 1.149-3.396 1.149-5 0-1.674 1.176-3.174 2.51-4.5 4-0.333-0.5-0.667-1-1-1.5 1.998-3.315 3.998-6.648 6-10 1.921-0.36 3.588-1.194 5-2.5 1.667 1.167 3.333 2.333 5 3.5-0.544 0.717-1.211 1.217-2 1.5z" fill="#feebe6"/>
<path d="m318.5 196.5c1.113 1.446 1.28 3.113 0.5 5-1.788-1.523-1.955-3.19-0.5-5z" fill="#fabfb0"/>
<path d="m361.5 198.5c1.666-1.166 3.333-1.166 5 0-1.72 1.42-3.554 2.753-5.5 4l-1-1c-0.333 1-0.667 2-1 3-0.167-0.667-0.333-1.333-0.5-2 0.786-1.541 1.786-2.874 3-4z" fill="#feded6"/>
<path d="m163.5 197.5c1.073 0.751 1.24 1.751 0.5 3-1.667 2.333-3.333 4.667-5 7-0.692-0.525-1.192-1.192-1.5-2 1.117-3.417 3.117-6.084 6-8z" fill="#5a5ba3"/>
<path d="m170.5 198.5c0.876-0.131 1.543 0.202 2 1-1.525 3.063-3.525 5.73-6 8-1.083-0.865-1.249-1.865-0.5-3 2.102-1.595 3.602-3.595 4.5-6z" fill="#50519d"/>
<path d="m325.5 205.5c-4.357-1.219-4.857-3.219-1.5-6 2.479 1.588 2.979 3.588 1.5 6z" fill="#feeeea"/>
<path d="m350.5 198.5c0.624 0.417 0.957 1.084 1 2-0.247 1.213-0.914 1.88-2 2 0.333-1.333 0.667-2.667 1-4z" fill="#feefeb"/>
<path d="m388.5 206.5c-0.667 0.333-1.333 0.667-2 1-2.498-2.16-5.498-3.493-9-4-0.333-0.667-0.667-1.333-1-2 4.677-2.077 7.677-0.744 9 4 1.291-0.237 2.291 0.096 3 1z" fill="#fef3f0"/>
<path d="m388.5 196.5c0.542 3.122 1.876 5.955 4 8.5-0.336 1.03-1.003 1.53-2 1.5-0.848-1.593-2.181-2.76-4-3.5 1.75-1.754 2.417-3.921 2-6.5z" fill="#fee3dc"/>
<path d="m305.5 200.5c3.088 1.421 3.588 3.421 1.5 6-0.483-0.948-0.649-1.948-0.5-3-3.505-0.194-3.838-1.194-1-3z" fill="#fde0d8"/>
<path d="m310.5 204.5c-0.157-1.373 0.01-2.707 0.5-4 3.048 1.019 4.381 3.019 4 6-1.33-1.082-2.83-1.749-4.5-2z" fill="#fee7e1"/>
<path d="m342.5 202.5c-1.333 0.667-2.667 1.333-4 2-1.291-1.042-1.291-2.208 0-3.5 1.64-0.348 2.973 0.152 4 1.5z" fill="#feeee9"/>
<path d="m153.5 200.5c1.523 2.545 0.857 4.545-2 6-0.333-0.667-0.667-1.333-1-2 0.786-1.541 1.786-2.874 3-4z" fill="#5556a0"/>
<path d="m349.5 202.5c-0.283 0.789-0.783 1.456-1.5 2-0.528-1.316-0.028-1.983 1.5-2z" fill="#fdeeea"/>
<path d="m362.5 202.5c1.788-0.285 3.455 0.048 5 1-1.613 1.588-3.613 2.588-6 3l-1-1c1.112-0.765 1.779-1.765 2-3z" fill="#fee2db"/>
<path d="m137.5 202.5c1.256-0.039 2.256 0.461 3 1.5-2.144 2.979-4.478 5.812-7 8.5-0.333-0.667-0.667-1.333-1-2 1.305-2.954 2.972-5.621 5-8z" fill="#51529d"/>
<path d="m338.5 205.5c1 1.333 2 1.333 3 0 2.124-0.531 3.624-1.865 4.5-4 0.667 2 0.667 4 0 6-0.414 0.457-0.914 0.791-1.5 1-3.621-0.414-7.287-0.414-11 0-0.162-2.027 5e-3 -4.027 0.5-6 1.129 1.641 2.629 2.641 4.5 3z" fill="#feeeea"/>
<path d="m148.5 197.5c0.207 4.207-1.793 7.54-6 10-1.021-0.502-1.188-1.168-0.5-2 2.415-2.514 4.581-5.181 6.5-8z" fill="#5858a1"/>
<path d="m174.5 204.5c2.547 1.79 2.214 3.456-1 5-1.184-1.967-0.851-3.634 1-5z" fill="#434696"/>
<path d="m342.5 202.5c0.438-0.065 0.772 0.101 1 0.5-0.881 0.708-1.547 1.542-2 2.5-1 1.333-2 1.333-3 0v-1c1.333-0.667 2.667-1.333 4-2z" fill="#f79a81"/>
<path d="m374.5 196.5c0.543 0.06 0.876 0.393 1 1-1 1.333-2 2.667-3 4 0.438 1.006 1.104 1.006 2 0 1.083 0.865 1.249 1.865 0.5 3-1.6 1.366-3.433 2.366-5.5 3 1.006 0.896 1.006 1.562 0 2-0.952-1.545-1.285-3.212-1-5 1.699 0.16 3.366-6e-3 5-0.5-1.68-0.347-2.68-1.347-3-3 1.104-1.715 2.438-3.215 4-4.5z" fill="#fde2da"/>
<path d="m292.5 203.5c1.145 1.293 0.811 2.459-1 3.5-1.225 0.563-2.225 0.23-3-1 1.358-0.934 2.692-1.768 4-2.5z" fill="#ffdcd2"/>
<path d="m317.5 203.5c1.585 0.502 2.085 1.502 1.5 3-1.039-0.744-1.539-1.744-1.5-3z" fill="#fde8e3"/>
<path d="m325.5 205.5c0.881 1.804 2.214 3.304 4 4.5-0.556 0.383-0.889 0.883-1 1.5-0.65 0.304-1.317 0.637-2 1-1.124-1.414-2.124-2.914-3-4.5 1.256-0.417 1.923-1.25 2-2.5z" fill="#feeeea"/>
<path d="m358.5 205.5c0.597 0.235 0.93 0.735 1 1.5-1.213 1.63-2.046 3.464-2.5 5.5-0.815-2.698-0.315-5.032 1.5-7z" fill="#fcc4b5"/>
<path d="m363.5 207.5c1.175-0.219 2.175 0.114 3 1-3.596 5.591-4.596 5.257-3-1z" fill="#fef4f1"/>
<path d="m379.5 210.5c-0.876-0.131-1.543 0.202-2 1 1.365 1.441 2.865 2.774 4.5 4 0.749 1.135 0.583 2.135-0.5 3-2.305-2.127-3.972-4.627-5-7.5 0.045-2.22 1.045-3.72 3-4.5 0.406 1.057 0.406 2.391 0 4z" fill="#fee8e2"/>
<path d="m388.5 206.5h2c-1.46 0.693-2.627 2.359-3.5 5-0.49-1.293-0.657-2.627-0.5-4 0.667-0.333 1.333-0.667 2-1z" fill="#f9a48c"/>
<path d="m354.5 204.5c1.64 3.924 0.474 6.924-3.5 9-0.402-1.372-0.902-2.705-1.5-4 1.481-0.98 2.815-2.147 4-3.5-1.212-1.107-0.879-1.607 1-1.5z" fill="#fdc9bb"/>
<path d="m484.5 207.5c0.876-0.131 1.543 0.202 2 1-6.968 0.997-13.968 1.33-21 1 6.333-0.667 12.667-1.333 19-2z" fill="#8b8cbe"/>
<path d="m317.5 208.5c1.632 0.325 2.632 1.325 3 3-0.536 2.442-1.369 4.775-2.5 7-0.402-1.372-0.902-2.705-1.5-4 0.667-0.333 1.333-0.667 2-1-0.809-1.571-1.143-3.238-1-5z" fill="#fcd8ce"/>
<path d="m129.5 205.5c0.876-0.131 1.543 0.202 2 1-1.647 2.973-3.647 5.64-6 8-1.083-0.865-1.249-1.865-0.5-3 1.752-1.851 3.252-3.851 4.5-6z" fill="#5959a2"/>
<path d="m182.5 209.5c1.022 1.392 0.689 2.725-1 4-0.333-0.5-0.667-1-1-1.5 0.556-1.011 1.222-1.844 2-2.5z" fill="#4d4e9c"/>
<path d="m359.5 209.5c0.624 0.417 0.957 1.084 1 2-0.591 1.766-1.424 3.433-2.5 5-0.239-2.459 0.261-4.793 1.5-7z" fill="#fee9e3"/>
<path d="m373.5 207.5c0.876-0.131 1.543 0.202 2 1-1.483 2.645-3.316 4.978-5.5 7-0.667-1-0.667-2 0-3 1.669-1.346 2.836-3.013 3.5-5z" fill="#fde7e2"/>
<path d="m365.5 211.5c0.876-0.131 1.543 0.202 2 1-4.111 5.429-4.778 5.096-2-1z" fill="#feede9"/>
<path d="m379.5 210.5c1.266 0.59 2.599 1.09 4 1.5 0.951 0.718 1.117 1.551 0.5 2.5-1.859-1.079-3.359-2.412-4.5-4z" fill="#fbcdc1"/>
<path d="m296.5 206.5c1.522 0.691 2.522 1.858 3 3.5-0.292 3.121-1.959 4.621-5 4.5-1.82-0.563-3.153-1.729-4-3.5 0.167-0.5 0.333-1 0.5-1.5 1.484 3.477 3.318 3.477 5.5 0-0.477-0.978-1.143-1.811-2-2.5 0.594-0.464 1.261-0.631 2-0.5z" fill="#f68869"/>
<path d="m310.5 204.5c1.208 2.544 3.208 3.878 6 4 0.219 1.175-0.114 2.175-1 3-1.468-1.833-3.135-2.166-5-1 1.693 0.728 3.193 1.728 4.5 3 0.563 1.225 0.23 2.225-1 3-1.193-2.105-2.86-3.772-5-5-0.826-2.712-0.326-5.045 1.5-7z" fill="#fee4dd"/>
<path d="m328.5 211.5c1.624-0.14 2.79 0.527 3.5 2 2.027-0.486 4.193-0.486 6.5 0-0.2 4.854-1.7 5.187-4.5 1-0.71 1.473-1.876 2.14-3.5 2 0.108-2.014-0.558-3.68-2-5z" fill="#fdc3b3"/>
<path d="m348.5 211.5c1.773 3.176 0.773 4.843-3 5-0.19-2.459 0.81-4.126 3-5z" fill="#fed5ca"/>
<path d="m341.5 213.5c0.897 1.098 1.73 1.098 2.5 0 0.757 3.414-0.41 4.414-3.5 3 0.627-0.917 0.961-1.917 1-3z" fill="#fee1d9"/>
<path d="m188.5 213.5c1.274 0.689 1.274 1.523 0 2.5-1 0.667-2 0.667-3 0 1.071-0.852 2.071-1.685 3-2.5z" fill="#7373b1"/>
<path d="m309.5 235.5h-2c0.117-1.984-0.55-3.65-2-5 1-0.667 2-1.333 3-2-2.917-2.768-2.25-4.268 2-4.5-4.173-2.504-3.84-4.171 1-5-1.49-1.772-3.157-1.939-5-0.5-0.604-2.763-1.938-5.097-4-7 1.368-1.094 2.535-0.76 3.5 1 0.167-0.5 0.333-1 0.5-1.5-1.125-1.963-2.459-3.796-4-5.5 0.167-0.333 0.333-0.667 0.5-1 4.154 2.142 5.321 5.309 3.5 9.5 1.215 2.096 2.049 1.929 2.5-0.5 2.027 1.193 3.527 2.86 4.5 5-0.59 1.299-1.59 2.132-3 2.5 1.537 1.11 2.203 2.61 2 4.5-3.396 0.133-3.729 1.133-1 3-0.763 1.219-1.763 2.219-3 3 0.746 1.236 1.079 2.57 1 4z" fill="#fee2db"/>
<path d="m323.5 214.5c1.213 0.997 1.046 1.997-0.5 3-0.47-1.077-0.303-2.077 0.5-3z" fill="#fef3f0"/>
<path d="m113.5 217.5c3.723 1.024 3.557 2.357-0.5 4-0.579-1.428-0.412-2.762 0.5-4z" fill="#52539e"/>
<path d="m350.5 217.5c1.837 0.139 2.17 0.806 1 2-0.798-0.457-1.131-1.124-1-2z" fill="#f9c2b4"/>
<path d="m378.5 219.5c-1.585-0.502-2.085-1.502-1.5-3 1.039 0.744 1.539 1.744 1.5 3z" fill="#fac8bb"/>
<path d="m326.5 217.5c1.528 0.017 2.028 0.684 1.5 2-3.811 1.466-4.311 0.8-1.5-2z" fill="#fed5ca"/>
<path d="m372.5 215.5c2.148-0.111 2.481 0.556 1 2 1.251 1.131 2.251 2.464 3 4-0.623 2.314-0.956 1.981-1-1h-3v-5z" fill="#fab19d"/>
<path d="m194.5 218.5c1.725 0.343 2.225 1.343 1.5 3-0.71 1.473-1.876 2.14-3.5 2-0.108-2.014 0.558-3.68 2-5z" fill="#5e5ea5"/>
<path d="m335.5 219.5h3c0.149 1.052-0.017 2.052-0.5 3-6.17 5.329-7.004 4.329-2.5-3z" fill="#fee4dd"/>
<path d="m341.5 219.5c2.124 0.531 3.624 1.865 4.5 4 0.667 1 0.667 2 0 3-0.667-2-2-3.333-4-4-0.483-0.948-0.649-1.948-0.5-3z" fill="#fee8e2"/>
<path d="m200.5 219.5c6.012 2.174 6.179 5.174 0.5 9-3.128-2.817-3.295-5.817-0.5-9z" fill="#424596"/>
<path d="m225.5 218.5c1.248 3.863-0.086 6.863-4 9-1.083-0.865-1.249-1.865-0.5-3 1.277-2.247 2.777-4.247 4.5-6z" fill="#53549e"/>
<path d="m230.5 220.5c0.876-0.131 1.543 0.202 2 1-0.827 3.332-2.66 5.999-5.5 8-0.667-1.333-0.667-2.667 0-4 1.669-1.346 2.836-3.013 3.5-5z" fill="#5657a0"/>
<path d="m330.5 219.5c1.052-0.149 2.052 0.017 3 0.5-1.549 1.214-2.715 2.714-3.5 4.5-1.303-1.553-1.136-3.22 0.5-5z" fill="#fee8e2"/>
<path d="m346.5 219.5c1.385 1.114 2.885 2.114 4.5 3 0.667 0.667 0.667 1.333 0 2-2.2-1.151-3.7-2.818-4.5-5z" fill="#fdece7"/>
<path d="m354.5 219.5c1.495-0.085 2.495 0.581 3 2-1.26 0.882-2.426 1.882-3.5 3-0.309-1.266-0.809-2.433-1.5-3.5 0.916-0.278 1.582-0.778 2-1.5z" fill="#fdc6b7"/>
<path d="m360.5 215.5c0.294 1.776 0.46 3.776 0.5 6 0.423-1.456 1.256-1.956 2.5-1.5-2.449 4.883-4.116 4.55-5-1 0.478-1.303 1.145-2.469 2-3.5z" fill="#fbbaa8"/>
<path d="m516.5 223.5c-0.252-3.432 1.081-4.432 4-3-0.783 1.788-2.116 2.788-4 3z" fill="#4f519d"/>
<path d="m210.5 221.5c1.073 0.751 1.24 1.751 0.5 3-1.574 1.484-2.907 3.151-4 5-0.692-0.525-1.192-1.192-1.5-2 1.69-2.019 3.356-4.019 5-6z" fill="#5556a0"/>
<path d="m317.5 222.5c1.831-0.552 3.497-0.552 5 0-0.333 1-1 1.667-2 2-0.925-1.141-1.759-1.141-2.5 0-0.464-0.594-0.631-1.261-0.5-2z" fill="#f7997f"/>
<path d="m324.5 223.5c0.876-0.131 1.543 0.202 2 1-2.76 4.064-3.426 3.731-2-1z" fill="#ffe4dd"/>
<path d="m362.5 223.5c2.501 0.011 2.668 0.678 0.5 2-0.464-0.594-0.631-1.261-0.5-2z" fill="#fdd5ca"/>
<path d="m365.5 216.5c1.052-0.149 2.052 0.017 3 0.5-1.507 0.837-2.007 2.004-1.5 3.5 5.17-1.598 5.67-0.764 1.5 2.5 0.85 1.286 2.017 1.119 3.5-0.5 0.115 1.607-0.385 3.107-1.5 4.5 0.333 0.5 0.667 1 1 1.5 0.787-0.742 1.453-1.575 2-2.5 0.832-0.688 1.498-0.521 2 0.5-2.833 4.984-5.5 4.651-8-1-0.778-2.3-1.778-4.466-3-6.5 0.243-0.902 0.577-1.735 1-2.5z" fill="#feddd4"/>
<path d="m301.5 233.5c-0.086-2.177-0.753-4.177-2-6 0.897-0.169 1.897-0.502 3-1-0.667-1.333-1.333-2.667-2-4 1.082-0.249 2.415-0.415 4-0.5-3.033-1.737-3.533-3.903-1.5-6.5l1.5 1.5c1.006 3.824 1.006 7.657 0 11.5-3.426-0.15-3.759 1.016-1 3.5-0.544 0.717-1.211 1.217-2 1.5z" fill="#fddbd2"/>
<path d="m356.5 223.5c1.844 0.704 2.344 2.037 1.5 4-0.791-1.245-1.291-2.578-1.5-4z" fill="#fee5df"/>
<path d="m317.5 222.5c-1.15 3.225-2.316 6.558-3.5 10 0.063-3.072-0.104-6.072-0.5-9 0.346-1.196 0.846-1.196 1.5 0 0.351-7.148 1.184-7.481 2.5-1z" fill="#fdd6cc"/>
<path d="m335.5 225.5c1.175-0.219 2.175 0.114 3 1-1.667 2-3.333 4-5 6-0.333-0.5-0.667-1-1-1.5 1.612-1.482 2.612-3.315 3-5.5z" fill="#fef1ed"/>
<path d="m348.5 224.5c2.967 1.237 3.967 3.237 3 6-1.915-1.571-2.915-3.571-3-6z" fill="#fee9e4"/>
<path d="m353.5 225.5c1.844 0.704 2.344 2.037 1.5 4-0.791-1.245-1.291-2.578-1.5-4z" fill="#fed7cc"/>
<path d="m217.5 221.5c1.073 0.751 1.24 1.751 0.5 3-1.643 2.477-3.476 4.81-5.5 7-1.083-0.865-1.249-1.865-0.5-3 2.268-2.035 4.101-4.368 5.5-7z" fill="#5d5da4"/>
<path d="m328.5 226.5c0.876-0.131 1.543 0.202 2 1-1.507 3.855-2.174 3.521-2-1z" fill="#fef8f6"/>
<path d="m364.5 226.5c0.965 1.221 0.798 2.554-0.5 4-0.579-1.428-0.412-2.762 0.5-4z" fill="#fef7f5"/>
<path d="m357.5 230.5c0.577-1.273 1.243-1.273 2 0-0.47 0.963-1.137 0.963-2 0z" fill="#fde5df"/>
<path d="m348.5 229.5c1.947 1.161 2.78 2.828 2.5 5-1.883-1.153-2.716-2.819-2.5-5z" fill="#fee9e3"/>
<path d="m324.5 230.5c0.876-0.131 1.543 0.202 2 1-2.792 5.335-3.458 5.002-2-1z" fill="#fddcd3"/>
<path d="m354.5 230.5c1.773 0.814 2.273 2.148 1.5 4-2.012-1.066-2.512-2.4-1.5-4z" fill="#fdd1c5"/>
<path d="m339.5 231.5c1.623 2.687 3.623 5.187 6 7.5-0.167 0.5-0.333 1-0.5 1.5-2.806-1.895-5.14-4.228-7-7-0.972 1.805-2.139 3.472-3.5 5-0.333-0.5-0.667-1-1-1.5 1.356-1.567 2.023-3.4 2-5.5h4z" fill="#fdd8ce"/>
<path d="m367.5 228.5c1.129 2.166 0.629 4.166-1.5 6-0.409-2.195 0.091-4.195 1.5-6z" fill="#feebe6"/>
<path d="m376.5 228.5c0.664 1.148 0.831 2.481 0.5 4 0.893-1.211 1.726-1.211 2.5 0-1.923 3.945-3.59 3.778-5-0.5 0.478-1.303 1.145-2.469 2-3.5z" fill="#fdc7b7"/>
<path d="m301.5 233.5c0.149 1.052-0.017 2.052-0.5 3-1.289-1.555-1.956-3.221-2-5 0.708 0.881 1.542 1.547 2.5 2z" fill="#fcdfd7"/>
<path d="m320.5 232.5c1.213 0.997 1.046 1.997-0.5 3-0.47-1.077-0.303-2.077 0.5-3z" fill="#facec2"/>
<path d="m329.5 232.5c0.997-0.03 1.664 0.47 2 1.5-2.874 4.495-3.541 3.995-2-1.5z" fill="#fef2ef"/>
<path d="m339.5 231.5c-0.131-0.876 0.202-1.543 1-2 1.109 1.09 2.109 1.09 3 0-3-1.258-4-3.258-3-6 1.983 1.482 3.816 3.149 5.5 5 0.333 1.547-0.167 2.88-1.5 4 2.356 1.154 2.523 2.487 0.5 4-1.31-2.239-3.143-3.906-5.5-5z" fill="#fed8cd"/>
<path d="m360.5 231.5c4.572 2.588 5.072 5.922 1.5 10-0.195-1.707-0.195-3.374 0-5l-1-1c-0.333 1-0.667 2-1 3-0.273-1.829-1.107-3.329-2.5-4.5 0.949-0.617 1.782-0.451 2.5 0.5 0.483-0.948 0.649-1.948 0.5-3z" fill="#fbc0b0"/>
<path d="m369.5 232.5c2.484 1.528 2.318 3.194-0.5 5-0.384-1.697-0.218-3.363 0.5-5z" fill="#fee0d9"/>
<path d="m348.5 234.5c1.14 1.301 2.473 2.468 4 3.5l-1.5 1.5c-1.883-1.153-2.716-2.819-2.5-5z" fill="#fef0ec"/>
<path d="m313.5 237.5c-2.481-0.177-4.314 0.823-5.5 3-0.483-0.948-0.649-1.948-0.5-3v-2h2c1.592 1.102 2.425 0.435 2.5-2 1.188 1.063 1.688 2.397 1.5 4z" fill="#f98d6e"/>
<path d="m307.5 235.5v2c-1.495 0.085-2.495-0.581-3-2 0.733-0.587 1.733-0.587 3 0z" fill="#fde8e3"/>
<path d="m313.5 237.5c0.876-0.131 1.543 0.202 2 1-1.022 0.854-1.855 1.854-2.5 3l-2.5-2.5c1.237-0.232 2.237-0.732 3-1.5z" fill="#fdd4c9"/>
<path d="m372.5 236.5c1.121 1.589 0.954 3.256-0.5 5-0.64-1.765-0.473-3.432 0.5-5z" fill="#fcd1c5"/>
<path d="m339.5 238.5c1.315 0.976 2.648 1.976 4 3-2.281 0.762-3.614-0.238-4-3z" fill="#fddbd2"/>
<path d="m304.5 244.5c0.111-0.617 0.444-1.117 1-1.5-1.507-0.837-2.007-2.004-1.5-3.5 2.818 1.806 2.984 3.472 0.5 5z" fill="#fcd5cb"/>
<path d="m324.5 237.5c2.136 2.545 2.303 5.212 0.5 8-1.212-2.716-1.379-5.383-0.5-8z" fill="#f9a48c"/>
<path d="m330.5 238.5c1.367 1.593 1.034 2.926-1 4l-1-1c0.693-1.018 1.359-2.018 2-3z" fill="#fde1d9"/>
<path d="m347.5 238.5c0.767 0.672 1.434 1.505 2 2.5-1.561 0.188-2.228-0.645-2-2.5z" fill="#fde8e3"/>
<path d="m337.5 238.5c0.543 0.06 0.876 0.393 1 1-4.557 6.35-4.89 6.017-1-1z" fill="#fdebe6"/>
<path d="m310.5 247.5c0.203-1.89-0.463-3.39-2-4.5 1.891-0.309 3.225 0.525 4 2.5-0.355 1.022-1.022 1.689-2 2z" fill="#fccabc"/>
<path d="m375.5 238.5c0.876-0.131 1.543 0.202 2 1-1.306 1.412-2.14 3.079-2.5 5-0.692-0.525-1.192-1.192-1.5-2 1.13-1.122 1.797-2.456 2-4z" fill="#fab4a1"/>
<path d="m365.5 239.5c0.876-0.131 1.543 0.202 2 1-2.82 3.337-2.153 4.504 2 3.5-0.749 1.734-1.249 3.567-1.5 5.5-2.887-2.933-3.72-6.266-2.5-10z" fill="#fcc0b0"/>
<path d="m304.5 244.5c-0.553 2.157-1.553 1.99-3-0.5 1.077-0.47 2.077-0.303 3 0.5z" fill="#fbd3c8"/>
<path d="m341.5 244.5c-2.792-0.048-4.625 1.285-5.5 4-0.165-2.178 0.668-4.011 2.5-5.5 1.498-0.585 2.498-0.085 3 1.5z" fill="#fbb5a2"/>
<path d="m341.5 244.5c1.585 0.502 2.085 1.502 1.5 3-1.039-0.744-1.539-1.744-1.5-3z" fill="#fbd7cd"/>
<path d="m347.5 243.5c1.405 1.725 1.905 3.725 1.5 6-1.319-1.75-1.819-3.75-1.5-6z" fill="#fcd0c5"/>
<path d="m360.5 242.5c1.121 1.589 0.954 3.256-0.5 5-1.494 1.247-2.994 1.247-4.5 0 0.762-0.411 1.762-0.577 3-0.5 0.767-1.47 1.433-2.97 2-4.5z" fill="#fdc8ba"/>
<path d="m310.5 247.5c-0.487 0.973-0.987 1.973-1.5 3-0.725-1.657-0.225-2.657 1.5-3z" fill="#fef6f3"/>
<path d="m371.5 245.5c0.543 0.06 0.876 0.393 1 1-3.23 5.013-3.563 4.679-1-1z" fill="#f9b3a0"/>
<path d="m313.5 245.5c2.359 0.889 2.525 2.222 0.5 4-0.49-1.293-0.657-2.627-0.5-4z" fill="#fcdad1"/>
<path d="m325.5 246.5c1.213 0.997 1.046 1.997-0.5 3-0.47-1.077-0.303-2.077 0.5-3z" fill="#f9b19d"/>
<path d="m362.5 245.5c0.965 1.221 0.798 2.554-0.5 4-0.579-1.428-0.412-2.762 0.5-4z" fill="#fabfaf"/>
<path d="m319.5 260.5c-0.268 1.599 0.066 2.932 1 4v8c-3.159 5.767-6.159 12.267-9 19.5 0.667 0.333 1.333 0.667 2 1-1.87 1.135-3.87 1.968-6 2.5-0.951-1.419-1.284-3.085-1-5 1.599 0.268 2.932-0.066 4-1 1.604-0.787 2.271-2.12 2-4 0.111-0.617 0.444-1.117 1-1.5-1.693-0.847-3.36-1.68-5-2.5 0.892-5.179 1.892-10.345 3-15.5-2.813-7.383-0.98-13.217 5.5-17.5 2.243 3.631 3.077 7.631 2.5 12z" fill="#fff8f6"/>
<path d="m336.5 249.5c0.739-0.131 1.406 0.036 2 0.5-3.526 4.615-4.193 4.448-2-0.5z" fill="#fdd7cd"/>
<path d="m340.5 249.5c1.844 0.704 2.344 2.037 1.5 4-1.188-1.063-1.688-2.397-1.5-4z" fill="#fddcd3"/>
<path d="m331.5 247.5c0.543 0.06 0.876 0.393 1 1-0.654 1.615-1.154 3.282-1.5 5-1.554-1.989-1.387-3.989 0.5-6z" fill="#fdbdab"/>
<path d="m352.5 288.5c-1.731-1.485-2.731-3.485-3-6-0.76-3.581-1.26-7.248-1.5-11-0.159 1.843-0.659 2.509-1.5 2v-3c1.333-4.667 1.333-9.333 0-14 1.487-2.105 3.487-3.772 6-5 0.886 0.825 1.219 1.825 1 3h3c0.269 6.957-0.897 13.623-3.5 20 0.215-3.311 0.215-6.644 0-10-0.981 2.46-1.815 4.96-2.5 7.5 1.655 5.37 2.322 10.87 2 16.5z" fill="#ffeee9"/>
<path d="m323.5 253.5c-0.775 1.888-0.775 3.888 0 6-1.14 1.545-2.14 3.212-3 5-0.934-1.068-1.268-2.401-1-4 0.814-2.131 1.314-4.464 1.5-7 0.77-1.098 1.603-1.098 2.5 0z" fill="#f9967a"/>
<path d="m327.5 286.5c-1.383-5.606-2.383-11.272-3-17-0.116-3.36-0.449-6.693-1-10-0.775-2.112-0.775-4.112 0-6 1.172-1.205 2.505-1.205 4 0 3.272 3.638 3.939 7.804 2 12.5 1.581 5.733 2.581 11.4 3 17-0.167 0.5-0.333 1-0.5 1.5-0.915-0.828-1.581-1.828-2-3-0.667 4-1.333 4-2 0-0.494 1.634-0.66 3.301-0.5 5z" fill="#fff7f5"/>
<path d="m364.5 260.5c-0.166 8.007 0 16.007 0.5 24 0.232 1.237 0.732 2.237 1.5 3 2.112 2.293 4.112 4.793 6 7.5-0.948 0.483-1.948 0.649-3 0.5-0.096-3.811-0.762-3.811-2 0-1.314-0.813-2.481-1.813-3.5-3-2.02-6.388-4.354-12.722-7-19-0.129-7.334 0.205-14.668 1-22 3.226 2.369 5.392 5.369 6.5 9z" fill="#fff5f2"/>
<path d="m366.5 253.5c3.057-1.47 3.557-0.803 1.5 2-0.278-0.916-0.778-1.582-1.5-2z" fill="#fcddd5"/>
<path d="m332.5 254.5c1.143 0.408 2.143 1.075 3 2-0.551 5.726-1.384 11.393-2.5 17-1.113-6.396-1.279-12.729-0.5-19z" fill="#fff4f1"/>
<path d="m307.5 255.5c0.617 0.111 1.117 0.444 1.5 1 0.667 3.667 0.667 7.333 0 11-1.015-3.94-1.515-7.94-1.5-12z" fill="#fef1ed"/>
<path d="m345.5 260.5v6c-0.092 6.508-0.758 6.508-2 0 0.295-2.235-0.039-4.235-1-6v-4h3v4z" fill="#feefeb"/>
<path d="m346.5 256.5c1.333 4.667 1.333 9.333 0 14 0.268-1.599-0.066-2.932-1-4v-6c0.934-1.068 1.268-2.401 1-4z" fill="#f58b6e"/>
<path d="m341.5 263.5c-0.306 2.885 0.027 5.552 1 8 0.493 2.306 0.826 4.639 1 7v3c-0.627 4.641-0.96 9.307-1 14h-6c-2.182-8.061-2.182-16.061 0-24-0.915-3.644-1.081-7.31-0.5-11 3.466-1.85 5.299-0.85 5.5 3z" fill="#fff7f5"/>
<path d="m342.5 260.5c0.961 1.765 1.295 3.765 1 6-0.951 1.419-1.284 3.085-1 5-0.973-2.448-1.306-5.115-1-8 0.904-0.709 1.237-1.709 1-3z" fill="#f6a18b"/>
<path d="m343.5 266.5c1.242 6.508 1.908 6.508 2 0 0.934 1.068 1.268 2.401 1 4v3c-0.809 1.792-1.309 3.792-1.5 6-0.383-0.556-0.883-0.889-1.5-1-0.174-2.361-0.507-4.694-1-7-0.284-1.915 0.049-3.581 1-5z" fill="#ef5127"/>
<path d="m320.5 266.5c1.403 3.409 2.07 7.075 2 11h-1c0.284-1.915-0.049-3.581-1-5v-6z" fill="#f69980"/>
<path d="m366.5 287.5c-1.287-7.007-1.287-14.007 0-21-0.164-2.687 3e-3 -5.354 0.5-8 1.088 1.788 1.588 3.788 1.5 6-0.346 4.052-1.013 8.052-2 12 0.36 2.579 1.026 5.079 2 7.5-0.308 1.459-0.975 2.626-2 3.5z" fill="#fee5de"/>
<path d="m364.5 260.5c0.667 2 1.333 4 2 6-1.287 6.993-1.287 13.993 0 21-0.768-0.763-1.268-1.763-1.5-3-0.5-7.993-0.666-15.993-0.5-24z" fill="#f47d5d"/>
<path d="m321.5 277.5h1c0.12 1.699 0.454 3.365 1 5-0.124 3.078-1.457 4.078-4 3 0.795-2.644 1.462-5.311 2-8z" fill="#fee6df"/>
<path d="m349.5 282.5h-1c-0.744 2.86-1.411 5.86-2 9 0.363 0.683 0.696 1.35 1 2-0.617 0.111-1.117 0.444-1.5 1-0.333-1.333-0.667-2.667-1-4l-1 1c-0.699-1.574-0.365-2.907 1-4 0.333 0.667 0.667 1.333 1 2 0.667-2.333 0.667-4.667 0-7-0.333 1-0.667 2-1 3-0.21-1.558-0.71-2.891-1.5-4v-3c0.617 0.111 1.117 0.444 1.5 1 0.191-2.208 0.691-4.208 1.5-6 0.841 0.509 1.341-0.157 1.5-2 0.24 3.752 0.74 7.419 1.5 11z" fill="#f7967b"/>
<path d="m354.5 277.5c1.265 1.014 1.931 2.514 2 4.5-0.333 1.5-0.667 3-1 4.5-0.984-2.928-1.317-5.928-1-9z" fill="#fdddd4"/>
<path d="m324.5 269.5c0.617 5.728 1.617 11.394 3 17 0.689 1.274 1.523 1.274 2.5 0 0.991 1.947 1.325 3.947 1 6-1.333-4-2.667-4-4 0-0.333-1-0.667-2-1-3 1.19 3.397 0.523 6.397-2 9-0.167-0.333-0.333-0.667-0.5-1 0.173-2.593 0.173-5.26 0-8 0.477-0.978 1.143-1.811 2-2.5-0.667-0.333-1.333-0.667-2-1 0.973-5.407 1.307-10.907 1-16.5z" fill="#fcc1b1"/>
<path d="m307.5 276.5c-0.284 1.915 0.049 3.581 1 5 1.64 0.82 3.307 1.653 5 2.5-0.556 0.383-0.889 0.883-1 1.5-0.737 1.882-1.904 2.548-3.5 2-0.2-1.82-1.034-3.153-2.5-4-0.302-2.559 0.032-4.893 1-7z" fill="#f89b81"/>
<path d="m348.5 282.5h1c0.269 2.515 1.269 4.515 3 6 0.854 1.535 0.854 2.868 0 4-1.746-0.718-2.412-1.718-2-3-0.692 0.525-1.192 1.192-1.5 2-0.498-2.982-0.665-5.982-0.5-9z" fill="#f26640"/>
<path d="m376.5 288.5c1.385 1.074 2.551 2.407 3.5 4 0.692 0.937 0.525 1.603-0.5 2-2.131-1.159-3.464-2.992-4-5.5 0.228-0.399 0.562-0.565 1-0.5z" fill="#f05d35"/>
<path d="m348.5 282.5c-0.165 3.018 2e-3 6.018 0.5 9 0.308-0.808 0.808-1.475 1.5-2-0.412 1.282 0.254 2.282 2 3-1.25 0.077-2.083 0.744-2.5 2-0.667-2.667-1.333-2.667-2 0-0.399-0.228-0.565-0.562-0.5-1-0.304-0.65-0.637-1.317-1-2 0.589-3.14 1.256-6.14 2-9z" fill="#fdd8ce"/>
<path d="m371.5 287.5c1.915-0.284 3.581 0.049 5 1-0.438-0.065-0.772 0.101-1 0.5 0.536 2.508 1.869 4.341 4 5.5-0.768 0.763-1.268 1.763-1.5 3-0.561-2.225-1.561-4.225-3-6-0.333 0.667-0.667 1.333-1 2-3.418-2.733-3.251-4.066 0.5-4-1.102-0.676-2.102-1.342-3-2z" fill="#fab5a2"/>
<path d="m315.5 289.5c1.624-0.14 2.79 0.527 3.5 2l1-1c2.392 4.156 1.892 5.156-1.5 3-0.586 0.209-1.086 0.543-1.5 1-1.009-1.525-1.509-3.192-1.5-5z" fill="#f79a81"/>
<path d="m352.5 288.5c3.366 1.6 4.199 3.934 2.5 7-1.417-0.578-2.25-1.578-2.5-3 0.854-1.132 0.854-2.465 0-4z" fill="#fab19d"/>
<path d="m302.5 292.5c2 0 3-1 3-3h5c-1.068 0.934-2.401 1.268-4 1-0.284 1.915 0.049 3.581 1 5-0.547 1.985-1.547 3.651-3 5h-2v-3h3c0.188-1.603-0.312-2.937-1.5-4-0.442 2.179-1.442 2.845-3 2-1.544 2.764-2.711 2.597-3.5-0.5 1.167-1.833 2.333-3.667 3.5-5.5 0.684 1.284 0.517 2.451-0.5 3.5 0.937 0.692 1.603 0.525 2-0.5z" fill="#f57f5e"/>
<path d="m305.5 289.5c0 2-1 3-3 3 0-2 1-3 3-3z" fill="#fcd0c5"/>
<path d="m356.5 290.5c0.06-0.543 0.393-0.876 1-1 0.728 1.693 1.728 3.193 3 4.5-0.948 0.483-1.948 0.649-3 0.5 0.268-1.599-0.066-2.932-1-4z" fill="#f89c82"/>
<path d="m320.5 296.5c1.837 0.139 2.17 0.806 1 2-0.798-0.457-1.131-1.124-1-2z" fill="#feddd4"/>
<path d="m316.5 296.5c3.297-0.171 3.631 0.495 1 2-0.798-0.457-1.131-1.124-1-2z" fill="#fedcd2"/>
<path d="m302.5 300.5h2c0 1.333 0.667 2 2 2 0.028 3.416 1.028 6.416 3 9 2.027 0.162 4.027-5e-3 6-0.5-1.634-0.494-3.301-0.66-5-0.5 0.067-1.459-0.266-2.792-1-4-1.333-2-1.333-4 0-6 4.384-0.326 8.717 8e-3 13 1-3.069 2.438-4.069 5.438-3 9-3.874 1.502-3.541 2.169 1 2-0.163-2.357 3e-3 -4.69 0.5-7 0.718-0.951 1.551-1.117 2.5-0.5-0.774 2.405-1.274 4.905-1.5 7.5-1.356 0.88-2.856 1.214-4.5 1-0.484 3.288 0.516 5.955 3 8h-1c-3.211-0.513-6.044-1.846-8.5-4l-2 2-4-4c-0.312 2.809-1.812 4.476-4.5 5 0.61-0.891 0.943-1.891 1-3v-3c0.905-1.202 0.905-2.536 0-4 1.426-2.799 1.092-5.466-1-8 0.333-1 1-1.667 2-2z" fill="#fef6f4"/>
<path d="m347.5 299.5c2.667 0.667 4.333 2.333 5 5-2-1.333-3.667-3-5-5z" fill="#f9b4a2"/>
<path d="m332.5 299.5c0.739-0.131 1.406 0.036 2 0.5-0.88 1.356-1.214 2.856-1 4.5-1.696-1.629-2.696-1.296-3 1h-2c-0.438-1.006-1.104-1.006-2 0 1-3 3-5 6-6z" fill="#f88d6f"/>
<path d="m333.5 304.5c0.131 0.739-0.036 1.406-0.5 2-0.671-0.752-1.504-1.086-2.5-1 0.304-2.296 1.304-2.629 3-1z" fill="#fef2ef"/>
<path d="m368.5 312.5c-1.507 4.535-2.507 9.201-3 14-0.802 1.385-1.469 1.218-2-0.5 1.017-2.473 1.017-4.973 0-7.5 2.483-1.811 2.483-3.645 0-5.5l1-1c-1.689 0.134-3.356 0.634-5 1.5 1.098-0.897 1.098-1.73 0-2.5 0.667-0.333 1.333-0.667 2-1-4.046-1.748-6.713-4.748-8-9 1.634-0.494 3.301-0.66 5-0.5 0.182 5.294 0.682 5.294 1.5 0 0.667 2.667 1.333 2.667 2 0 0.333 0.667 0.667 1.333 1 2 3.644-2.754 7.311-2.087 11 2 0.497 2.31 0.663 4.643 0.5 7h-4c0.285-1.788-0.048-3.455-1-5-1.634-0.468-2.8-1.468-3.5-3-5e-3 2.729-1.171 4.729-3.5 6 0.167 0.333 0.333 0.667 0.5 1 1.897-2.165 4.064-2.832 6.5-2-0.746 1.236-1.079 2.57-1 4z" fill="#fee5df"/>
<path d="m300.5 302.5c2.092 2.534 2.426 5.201 1 8-0.646-1.681-1.313-3.347-2-5 0.02-1.226 0.353-2.226 1-3z" fill="#fbb9a6"/>
<path d="m361.5 304.5c0.876-0.131 1.543 0.202 2 1-2.308 1.373-2.975 1.04-2-1z" fill="#f05e36"/>
<path d="m328.5 305.5h2c0.453 0.958 1.119 1.792 2 2.5-0.948 0.483-1.948 0.649-3 0.5-0.61-0.891-0.943-1.891-1-3z" fill="#feede8"/>
<path d="m338.5 306.5c-1.364 1.691-2.697 3.358-4 5-1.761-0.813-3.428-1.813-5-3 1.052 0.149 2.052-0.017 3-0.5-0.881-0.708-1.547-1.542-2-2.5 0.996-0.086 1.829 0.248 2.5 1 0.464-0.594 0.631-1.261 0.5-2 1.592 1.102 2.425 0.435 2.5-2 0.608 1.566 1.442 2.9 2.5 4z" fill="#f8987e"/>
<path d="m75.5 330.5v-3c1.0979-6.479 1.7646-13.146 2-20h207c-0.166 6.009 1e-3 12.009 0.5 18 2.583 1.374 5.083 2.874 7.5 4.5-72.333 0.5-144.67 0.667-217 0.5z" fill="#3e4194"/>
<path d="m377.5 303.5c0.79 1.109 1.29 2.442 1.5 4 0.333-1 0.667-2 1-3 0.667 6.667 0.667 13.333 0 20-0.414-0.457-0.914-0.791-1.5-1-0.997-6.634-1.33-13.3-1-20z" fill="#fba992"/>
<path d="m390.5 307.5h205c-0.04 7.687 0.293 15.354 1 23-71.334 0.167-142.67 0-214-0.5 2.254-1.377 4.42-2.877 6.5-4.5 1.239-5.935 1.739-11.935 1.5-18z" fill="#3e4194"/>
<path d="m301.5 314.5v3c-1.436-0.255-2.936-0.588-4.5-1-0.167 0.333-0.333 0.667-0.5 1 0.876 0.751 1.876 1.251 3 1.5-1.968 1.461-3.302 3.295-4 5.5-0.609-5.312-1.109-10.646-1.5-16-0.333 3.667-0.667 7.333-1 11-0.333-1.667-0.667-3.333-1-5-0.889 1.388-1.389 1.222-1.5-0.5 0.111-1.722 0.611-1.888 1.5-0.5 0.297-3.414 0.964-6.747 2-10 0.667 4 1.333 4 2 0 0.413 2.732 1.08 5.399 2 8 0.669-2.528 1.502-2.528 2.5 0-2.705 2.742-2.371 3.742 1 3z" fill="#f8a58f"/>
<path d="m309.5 306.5c0.734 1.208 1.067 2.541 1 4 1.699-0.16 3.366 6e-3 5 0.5-1.973 0.495-3.973 0.662-6 0.5-0.596-1.898-0.596-3.565 0-5z" fill="#f0552c"/>
<path d="m347.5 299.5h-3c-6.703-0.763-8.37-0.763-5 0 0.685 1.914 1.185 3.914 1.5 6 1.529-6.455 2.196-6.455 2 0 0.862-1.587 1.529-3.254 2-5 4.214 2.113 6.714 5.447 7.5 10-5.182 0.057-5.182 0.724 0 2-2.491 1.041-2.491 1.874 0 2.5l-1.5 1.5c-1.049-1.017-2.216-1.184-3.5-0.5 1.333 0.667 2.667 1.333 4 2l-1.5 1.5c-0.816-1.323-1.983-1.989-3.5-2-0.739-0.131-1.406 0.036-2 0.5 1.641 1.129 2.641 2.629 3 4.5l-6 3h-3c0.728-2.579 1.228-5.246 1.5-8 0.464 5.675 1.131 6.008 2 1 2.012-1.066 2.512-2.4 1.5-4 3.285-0.589 3.618-1.756 1-3.5 0.667-0.333 1.333-0.667 2-1-1.333-0.667-1.333-1.333 0-2-0.949-0.617-1.782-0.451-2.5 0.5l-2-2c-0.417 1.256-1.25 1.923-2.5 2 0.157-1.373-0.01-2.707-0.5-4-0.464 0.594-0.631 1.261-0.5 2-1.058-1.1-1.892-2.434-2.5-4-0.075 2.435-0.908 3.102-2.5 2-0.214-1.644 0.12-3.144 1-4.5-0.594-0.464-1.261-0.631-2-0.5 5-4 10-4 15 0z" fill="#fec8b9"/>
<path d="m344.5 299.5h-5c-3.37-0.763-1.703-0.763 5 0z" fill="#ef542b"/>
<path d="m309.5 300.5c-1.333 2-1.333 4 0 6-0.596 1.435-0.596 3.102 0 5-1.972-2.584-2.972-5.584-3-9 0.722-1.051 1.722-1.718 3-2z" fill="#f58f73"/>
<path d="m326.5 305.5c-1.158 4.676-1.325 9.343-0.5 14-2.138-4.881-1.971-9.548 0.5-14z" fill="#fbcabd"/>
<path d="m343.5 314.5c-1.491-0.401-3.158-0.568-5-0.5 2.667-1 2.667-2 0-3 1.585-0.085 2.918-0.251 4-0.5-1.898-0.496-2.898-1.163-3-2 1.25-0.077 2.083-0.744 2.5-2l2 2c0.718-0.951 1.551-1.117 2.5-0.5-1.333 0.667-1.333 1.333 0 2-0.667 0.333-1.333 0.667-2 1 2.618 1.744 2.285 2.911-1 3.5z" fill="#f69074"/>
<path d="m352.5 304.5c1.466 0.847 2.3 2.18 2.5 4 0.497 2.31 0.663 4.643 0.5 7-0.886-3.583-1.886-7.25-3-11z" fill="#fac6b9"/>
<path d="m371.5 312.5c3.085-0.082 4.752 1.418 5 4.5-1.269 3.371-2.935 6.537-5 9.5-0.834-1.763-0.334-3.43 1.5-5 0.667-1 0.667-2 0-3-1.494 1.247-2.994 1.247-4.5 0 0.501-2.336 1.501-4.336 3-6z" fill="#fef3f0"/>
<path d="m329.5 308.5c1.572 1.187 3.239 2.187 5 3-0.739-0.131-1.406 0.036-2 0.5 1.124 0.249 2.124 0.749 3 1.5-1.776 0.815-2.443 1.982-2 3.5 1.833 0.5 3 1.667 3.5 3.5 0.906-2.621 1.406-2.454 1.5 0.5 0.222 2.275-0.778 3.441-3 3.5-6.631-2.642-9.465-7.642-8.5-15 0.671-0.752 1.504-1.086 2.5-1z" fill="#fdc2b1"/>
<path d="m328.5 326.5c-1.699-0.027-3.033-0.694-4-2-0.039-1.083-0.373-2.083-1-3-3.047-1.375-4.38-3.708-4-7h3c0.942 4.552 2.942 8.552 6 12z" fill="#feefeb"/>
<path d="m363.5 318.5c-2.526 0.968-3.192 0.134-2-2.5-0.881-0.708-1.547-1.542-2-2.5 1.644-0.866 3.311-1.366 5-1.5l-1 1c2.483 1.855 2.483 3.689 0 5.5z" fill="#f7987e"/>
<path d="m357.5 311.5c0.814 2.131 1.314 4.464 1.5 7 0.961 2.124 2.128 3.291 3.5 3.5-0.446 1.726-1.279 3.226-2.5 4.5-0.669-2.528-1.502-2.528-2.5 0-2.606 1.152-5.273 1.318-8 0.5 5.452-3.737 8.118-8.904 8-15.5z" fill="#feece7"/>
<path d="m381.5 304.5c1.393 2.011 2.06 4.345 2 7-0.392 3.349-0.892 6.683-1.5 10-0.499-5.657-0.666-11.324-0.5-17z" fill="#fee0d8"/>
<path d="m319.5 321.5c-0.333 0.667-0.667 1.333-1 2-4.229-1.175-8.395-2.509-12.5-4-1.11 1.537-2.61 2.203-4.5 2v3c-0.934-1.068-1.268-2.401-1-4 2.688-0.524 4.188-2.191 4.5-5l4 4 2-2c2.456 2.154 5.289 3.487 8.5 4z" fill="#f16139"/>
<path d="m368.5 312.5h3c-1.499 1.664-2.499 3.664-3 6 1.506 1.247 3.006 1.247 4.5 0 0.667 1 0.667 2 0 3-1.834 1.57-2.334 3.237-1.5 5-0.848 1.125-1.848 1.125-3 0 0.653-1.307 1.32-2.64 2-4-2.98-0.853-4.313 0.481-4 4h-1c0.493-4.799 1.493-9.465 3-14z" fill="#f57b5a"/>
<path d="m346.5 317.5c0.79 1.294 1.79 2.461 3 3.5-0.544 0.717-1.211 1.217-2 1.5-0.359-1.871-1.359-3.371-3-4.5 0.594-0.464 1.261-0.631 2-0.5z" fill="#feeeea"/>
<path d="m301.5 317.5c-0.057 1.109-0.39 2.109-1 3-0.268 1.599 0.066 2.932 1 4 0.667 0 1 0.333 1 1-1.808 0.817-3.308 0.15-4.5-2-0.249 1.124-0.749 2.124-1.5 3-0.798-0.457-1.131-1.124-1-2 0.698-2.205 2.032-4.039 4-5.5-1.124-0.249-2.124-0.749-3-1.5 0.167-0.333 0.333-0.667 0.5-1 1.564 0.412 3.064 0.745 4.5 1z" fill="#f47f5f"/>
<path d="m318.5 323.5v3h-15c-0.667 0-1-0.333-1-1s-0.333-1-1-1v-3c1.89 0.203 3.39-0.463 4.5-2 4.105 1.491 8.271 2.825 12.5 4z" fill="#fff9f8"/>
<path d="m339.5 308.5c0.102 0.837 1.102 1.504 3 2-1.082 0.249-2.415 0.415-4 0.5 2.667 1 2.667 2 0 3 1.842-0.068 3.509 0.099 5 0.5 1.012 1.6 0.512 2.934-1.5 4-0.869 5.008-1.536 4.675-2-1-0.272 2.754-0.772 5.421-1.5 8-1.291 0.237-2.291-0.096-3-1 2.222-0.059 3.222-1.225 3-3.5-0.094-2.954-0.594-3.121-1.5-0.5-0.5-1.833-1.667-3-3.5-3.5-0.443-1.518 0.224-2.685 2-3.5-0.876-0.751-1.876-1.251-3-1.5 0.594-0.464 1.261-0.631 2-0.5 1.303-1.642 2.636-3.309 4-5-0.131-0.739 0.036-1.406 0.5-2 0.49 1.293 0.657 2.627 0.5 4z" fill="#f48061"/>
<path d="m368.5 326.5c-0.438 1.006-1.104 1.006-2 0-0.313-3.519 1.02-4.853 4-4-0.68 1.36-1.347 2.693-2 4z" fill="#fef1ed"/>
<path d="m350.5 323.5c-0.473 1.406-1.473 2.073-3 2 0.473-1.406 1.473-2.073 3-2z" fill="#f9baa9"/>
<path d="m339.5 299.5h8c1.333 2 3 3.667 5 5 1.114 3.75 2.114 7.417 3 11-0.667 3.344-2.334 6.011-5 8-1.527-0.073-2.527 0.594-3 2-0.342 0.838-1.008 1.172-2 1h-1c-0.709-0.904-1.709-1.237-3-1l6-3c0.789-0.283 1.456-0.783 2-1.5-1.21-1.039-2.21-2.206-3-3.5 1.517 0.011 2.684 0.677 3.5 2l1.5-1.5c-1.333-0.667-2.667-1.333-4-2 1.284-0.684 2.451-0.517 3.5 0.5l1.5-1.5c-2.491-0.626-2.491-1.459 0-2.5-5.182-1.276-5.182-1.943 0-2-0.786-4.553-3.286-7.887-7.5-10-0.471 1.746-1.138 3.413-2 5 0.196-6.455-0.471-6.455-2 0-0.315-2.086-0.815-4.086-1.5-6z" fill="#f57f5e"/>
<path d="m375.5 322.5c1.282 1.208 1.282 2.542 0 4-0.406-1.057-0.406-2.391 0-4z" fill="#fbc8b9"/>
<path d="m344.5 326.5h1c-5.153 2.617-10.153 2.117-15-1.5 3.075 0.729 6.242 1.562 9.5 2.5 1.44-0.648 2.94-0.981 4.5-1z" fill="#f9b19e"/>
<path d="m319.5 321.5h1c1.53 0.711 2.863 1.711 4 3 0.967 1.306 2.301 1.973 4 2 1.188 0.864 2.355 1.864 3.5 3 5.382 0.339 10.548 5e-3 15.5-1 1.231 1.151 1.231 2.317 0 3.5 0.544 0.717 1.211 1.217 2 1.5v3c-1.788 0.285-3.455-0.048-5-1 1.103-0.498 2.103-0.831 3-1l-1.5-3c-0.667 2.667-1.333 2.667-2 0-2.667 2.667-5.333 2.667-8 0-2.173 2.777-2.673 2.61-1.5-0.5-4.531-0.71-9.198-1.21-14-1.5 1.624-1.369 2.124-3.036 1.5-5-1.439 1.775-2.439 3.775-3 6-0.667-4-1.333-4-2 0-1.487-0.753-1.654-1.586-0.5-2.5-1.293-0.49-2.627-0.657-4-0.5-0.193 3.949-0.693 3.949-1.5 0-1.309 2.391-2.309 2.391-3 0-2.064 1.091-4.231 1.258-6.5 0.5 0.916-0.278 1.582-0.778 2-1.5h15v-3c0.333-0.667 0.667-1.333 1-2z" fill="#f78e71"/>
<path d="m349.5 333.5c-0.16-1.699 6e-3 -3.366 0.5-5 0.915 0.828 1.581 1.828 2 3 3.274-4.087 4.607-3.42 4 2-0.333-0.667-0.667-1.333-1-2-0.684 1.284-0.517 2.451 0.5 3.5l-1.5 1.5c-1-1.333-2-1.333-3 0-0.232-1.237-0.732-2.237-1.5-3z" fill="#f67d5b"/>
<path d="m331.5 334.5c1.478-0.262 2.811 0.071 4 1-1.198 0.44-2.365 0.773-3.5 1-0.464-0.594-0.631-1.261-0.5-2z" fill="#fdc0b0"/>
<path d="m336.5 334.5c1.837 0.139 2.17 0.806 1 2-0.798-0.457-1.131-1.124-1-2z" fill="#f9ab96"/>
<path d="m339.5 334.5c1.478-0.262 2.811 0.071 4 1-0.667 0.333-1.333 0.667-2 1-1.213-0.247-1.88-0.914-2-2z" fill="#fb9f85"/>
<path d="m75.5 341.5h521c-0.267 7.722 0.066 15.389 1 23h-152v-18c-70.502-0.333-140.84 1e-3 -211 1v17h-159v-23z" fill="#3e4194"/>
<path d="m423.5 359.5c-0.709 0.904-1.709 1.237-3 1 0.321 5.195-0.013 10.195-1 15-0.65-0.304-1.317-0.637-2-1-0.98-2.586-1.313-5.253-1-8-10.669-0.493-11.669 2.34-3 8.5l-1.5 1.5c-12.503-9.325-11.003-13.658 4.5-13v-3h-16c0.166 5.344-1e-3 10.677-0.5 16-2.624-1.111-4.124-3.111-4.5-6-5.638 3.54-9.638 2.207-12-4 3.875-0.205 5.541-2.205 5-6h-7c0.166 5.344-1e-3 10.677-0.5 16-3.878-2.08-5.378-5.413-4.5-10-2.027-0.162-4.027 5e-3 -6 0.5 2.534 2.587 2.534 5.253 0 8-6.952 1.079-11.285-1.921-13-9 0.13-1.059 0.63-1.892 1.5-2.5 0.739 4.185 2.906 7.185 6.5 9 1.5 0.047 2.5-0.619 3-2-1.092-2.594-2.759-4.761-5-6.5 4.321-0.499 8.654-0.666 13-0.5v-3c-7.84 0.464-15.507-0.036-23-1.5 21.333-0.333 42.667-0.667 64-1-2.042-3.774-5.209-5.94-9.5-6.5-0.167-0.333-0.333-0.667-0.5-1 2.398-1.224 4.731-1.058 7 0.5 2.157 1.981 3.824 4.314 5 7 1.558 0.21 2.891 0.71 4 1.5z" fill="#f0562d"/>
<path d="m316.5 356.5c0.543 0.06 0.876 0.393 1 1-23.324 1-46.657 1.333-70 1 23-0.667 46-1.333 69-2z" fill="#fad2c7"/>
<path d="m247.5 358.5c23.343 0.333 46.676 0 70-1-0.124-0.607-0.457-0.94-1-1-1.861-2.972-4.528-4.805-8-5.5 5.452-1.078 9.118 1.089 11 6.5 7.645 0.831 15.312 1.331 23 1.5l1 1c-0.948 0.483-1.948 0.649-3 0.5 0.166 5.344-1e-3 10.677-0.5 16-3.442-2.353-7.275-3.52-11.5-3.5-2.79-2.21-3.623-5.044-2.5-8.5 2.634-2.094 5.467-2.427 8.5-1 0.886-0.825 1.219-1.825 1-3h-14c0.166 5.344-1e-3 10.677-0.5 16-3.136-1.664-4.303-4.331-3.5-8h-5v3c-5.06 0.832-7.727-1.168-8-6h4v-5h-7c0.166 5.344-1e-3 10.677-0.5 16-2.761-0.999-4.094-2.999-4-6-5.707 3.459-9.54 2.126-11.5-4h-8c0.122 3.647 1.788 6.481 5 8.5-6.449-0.458-9.283-3.958-8.5-10.5 4.658-1.583 9.158-1.25 13.5 1 1.717-1.168 2.384-2.835 2-5h-20c0.166 5.344-1e-3 10.677-0.5 16-2.802-1.891-3.968-4.558-3.5-8-8.461-1.168-9.794 0.999-4 6.5-0.5 0.167-1 0.333-1.5 0.5-4.611-2.427-7.444-6.094-8.5-11h5v-4c-2.687 0.164-5.354-3e-3 -8-0.5-0.556-0.383-0.889-0.883-1-1.5z" fill="#f0552b"/>
<path d="m265.5 361.5h-5c0.237 1.291-0.096 2.291-1 3v-4c2.235-0.295 4.235 0.039 6 1z" fill="#f6a28c"/>
<path d="m395.5 361.5h-3c0.268 1.599-0.066 2.932-1 4v-5c1.599-0.268 2.932 0.066 4 1z" fill="#f7a089"/>
<path d="m265.5 361.5c0.67 3.09-0.497 4.757-3.5 5-1.376-0.184-2.209-0.851-2.5-2 0.904-0.709 1.237-1.709 1-3h5z" fill="#fef1ed"/>
<path d="m292.5 360.5h5c1.491 5.525-0.509 8.525-6 9-1.237-0.056-2.237-0.556-3-1.5 4.661-0.846 5.995-3.346 4-7.5z" fill="#fee8e2"/>
<path d="m312.5 361.5h4v4-4h-4z" fill="#fef0ec"/>
<path d="m312.5 361.5c1.419-0.951 3.085-1.284 5-1 0.284 1.915-0.049 3.581-1 5v-4h-4z" fill="#f69f88"/>
<path d="m395.5 361.5c1.693 5.872-0.64 8.372-7 7.5l-1-1c1.566-0.608 2.9-1.442 4-2.5 0.934-1.068 1.268-2.401 1-4h3z" fill="#ffeae5"/>
<path d="m423.5 359.5c0.543 0.06 0.876 0.393 1 1-0.825 0.886-1.825 1.219-3 1 0.327 5.044-6e-3 10.044-1 15-0.607-0.124-0.94-0.457-1-1 0.987-4.805 1.321-9.805 1-15 1.291 0.237 2.291-0.096 3-1z" fill="#fac8bb"/>
<path d="m75.5 327.5v37h159c-53.164 0.999-106.5 1.332-160 1-0.3287-12.844 0.0046-25.511 1-38z" fill="#cecedd"/>
<path d="m234.5 347.5c70.165-0.999 140.5-1.333 211-1v18h152c-50.831 0.999-101.83 1.332-153 1v-18h-210z" fill="#bdbdd6"/>
<path d="m330.5 365.5c7.669 0.679 8.002 2.679 1 6-3.633-1.441-3.966-3.441-1-6z" fill="#ffebe6"/>
<path d="m184.5 377.5h-109v16c-0.9889-5.475-1.3222-11.142-1-17 36.837-0.332 73.504 2e-3 110 1z" fill="#e5e5eb"/>
<path d="m184.5 377.5h1v36h-109c0.3245-7.187-0.0088-14.187-1-21v-15h109z" fill="#3e4194"/>
<path d="m487.5 377.5c36.594 0.993 73.261 1.327 110 1v35c-36.573-0.33-73.073 4e-3 -109.5 1-0.5-12.329-0.667-24.662-0.5-37z" fill="#3e4194"/>
<path d="m221.5 387.5h-2c-3.471-2.213-7.304-3.546-11.5-4-4.177-0.163-5.344 1.504-3.5 5 31.829 0.998 63.829 1.332 96 1 0.789 0.283 1.456 0.783 2 1.5-1.293 0.49-2.627 0.657-4 0.5 0.329 5.706-5e-3 11.372-1 17-0.978-0.477-1.811-1.143-2.5-2-0.333-2.333-0.667-4.667-1-7-3.952 4.229-6.119 3.729-6.5-1.5-4.89-0.035-6.057 2.132-3.5 6.5 1.074 1.118 2.24 2.118 3.5 3-3.5 0.407-6-1.259-7.5-5-1.324-7.005 1.51-9.505 8.5-7.5l2.5 2.5c2.172-1.009 3.338-2.676 3.5-5-6.145-0.99-12.478-1.323-19-1 0.322 5.858-0.011 11.525-1 17-1.843-0.746-3.176-2.079-4-4-7.299 4.074-11.632 2.074-13-6-1.333-0.667-2.333-1.667-3-3 3.622-1.159 7.289-1.325 11-0.5 0.857 0.689 1.523 1.522 2 2.5-1.608 0.818-3.275 1.485-5 2-0.929 1.189-1.262 2.522-1 4 8.774 0.559 12.107-3.441 10-12h-21c0.329 5.706-5e-3 11.372-1 17-0.667-0.333-1.333-0.667-2-1-0.995-5.292-1.328-10.625-1-16h-4c0.329 5.706-5e-3 11.372-1 17-1.239-0.442-2.239-1.109-3-2v-7c-1.915-0.284-3.581 0.049-5 1-0.414 4.2-2.414 5.033-6 2.5-4.42-3.905-3.753-6.072 2-6.5v-5h-9v5c-11.982 0.507-11.982 1.34 0 2.5 2.911 3.187 2.411 5.687-1.5 7.5-1.059-0.13-1.892-0.63-2.5-1.5 1.41-0.368 2.41-1.201 3-2.5-1.921-1.141-3.921-1.308-6-0.5-1.507 0.837-2.007 2.004-1.5 3.5 2.14 1.987 4.64 3.32 7.5 4-3.896 0.814-7.396-0.186-10.5-3-0.687-2.068-0.52-4.068 0.5-6-3.163-3.706-2.496-6.039 2-7 1.478 0.262 2.811-0.071 4-1-3.945-0.991-7.945-1.324-12-1v17c-1.083-0.039-2.083-0.373-3-1-0.995-5.292-1.328-10.625-1-16-6.264-1.886-6.264-2.886 0-3-1.174-5.628 0.993-8.295 6.5-8 6.162 0.334 11.328 2.667 15.5 7z" fill="#464799"/>
<path d="m219.5 387.5c-4.805 0.987-9.805 1.321-15 1-1.844-3.496-0.677-5.163 3.5-5 4.196 0.454 8.029 1.787 11.5 4z" fill="#f6f6fa"/>
<path d="m339.5 394.5h5v-3h-14v17c-2.208-0.523-3.708-1.856-4.5-4l-3.5 3.5c-0.832 0.688-1.498 0.521-2-0.5 1.148-1.649 2.481-3.149 4-4.5-6.382-1.22-9.049-5.053-8-11.5-1.291 0.237-2.291-0.096-3-1 10.667-0.667 21.333-1.333 32-2-0.728-2.235-2.061-4.068-4-5.5-2.474-0.113-4.474-1.113-6-3 2.803-0.755 5.47-0.422 8 1 1.667 2.333 3.333 4.667 5 7 8.667 0.333 17.333 0.667 26 1 2.456 2.159 1.79 2.992-2 2.5 0.166 5.676-1e-3 11.343-0.5 17-1-0.667-2-1.333-3-2-0.499-4.989-0.666-9.989-0.5-15-1.478-0.262-2.811 0.071-4 1 2.031 4.975 1.031 9.141-3 12.5l3 3c-0.333 0.167-0.667 0.333-1 0.5-2.786-1.456-5.786-2.456-9-3-1.3-5.071 0.2-6.071 4.5-3 2.741-0.722 3.741-2.388 3-5-5.376 2.109-7.543 0.443-6.5-5-2.243-0.974-4.576-1.308-7-1v6c-3.018-0.165-6.018 2e-3 -9 0.5-1.43 1.88-1.096 3.38 1 4.5 2.092-2.652 4.758-3.486 8-2.5 1.272 2.044 0.939 3.878-1 5.5 0.54 1.248 1.207 2.415 2 3.5-0.5 0.167-1 0.333-1.5 0.5-2.237-3.306-5.403-4.806-9.5-4.5-2.849-2.559-3.683-5.726-2.5-9.5 1.011-0.837 2.178-1.17 3.5-1z" fill="#474799"/>
<path d="m219.5 387.5h2c26.431 0.658 52.764 1.325 79 2-32.171 0.332-64.171-2e-3 -96-1 5.195 0.321 10.195-0.013 15-1z" fill="#6f70af"/>
<path d="m345.5 388.5c-10.667 0.667-21.333 1.333-32 2-0.543-0.06-0.876-0.393-1-1 10.98-0.999 21.98-1.332 33-1z" fill="#6e6faf"/>
<path d="m385.5 389.5c29.831-1.164 59.831-1.331 90-0.5l2 2c-2.077 0.192-4.077 0.692-6 1.5 1.826 4.026 0.826 7.193-3 9.5l5.5 5.5c0.688 0.832 0.521 1.498-0.5 2-6.275-2.264-9.942-6.598-11-13 1.699 0.16 3.366-6e-3 5-0.5 1.017-1.049 1.184-2.216 0.5-3.5-2.719-0.944-5.552-1.277-8.5-1 0.329 5.706-5e-3 11.372-1 17-0.667-0.333-1.333-0.667-2-1-0.995-5.292-1.328-10.625-1-16h-13v3c8.294 0.242 10.794 4.242 7.5 12-1.68 1.103-3.18 0.77-4.5-1 1.827-1.987 2.827-4.321 3-7-2.292-0.256-4.459 0.077-6.5 1-0.179 3.053-0.679 6.053-1.5 9-1.333-1-2.667-2-4-3-7.096 1.409-10.262-1.591-9.5-9 2.971-3.592 6.304-3.925 10-1 0.49-1.293 0.657-2.627 0.5-4-6.037-0.329-12.037 4e-3 -18 1 1.575 3.627 0.908 6.793-2 9.5 1.167 2.5 3 4.333 5.5 5.5 0.591 0.983 0.257 1.65-1 2-6.006-2.487-9.506-6.821-10.5-13h5v-5h-8c0.329 5.706-5e-3 11.372-1 17-2.606-1.918-3.606-4.584-3-8-9.922-2.418-11.256-0.084-4 7-0.5 0.333-1 0.667-1.5 1-4.892-2.715-8.058-6.715-9.5-12 4.438 1.075 6.438-0.592 6-5-3.679 0.44-7.012-0.227-10-2z" fill="#4a4a9b"/>
<path d="m185.5 377.5c0.995 12.155 1.329 24.489 1 37h-111v-22c0.9912 6.813 1.3245 13.813 1 21h109v-36z" fill="#afb0d3"/>
<path d="m211.5 393.5c-2.107-0.968-4.441-1.302-7-1 0.321 5.526-0.012 10.86-1 16v-17c4.055-0.324 8.055 9e-3 12 1-1.189 0.929-2.522 1.262-4 1z" fill="#cecee3"/>
<path d="m233.5 391.5h5v5h-5v-5z" fill="#e7e7f1"/>
<path d="m294.5 392.5h-18c0.329 5.706-5e-3 11.372-1 17-0.607-0.124-0.94-0.457-1-1 0.989-5.475 1.322-11.142 1-17 6.522-0.323 12.855 0.01 19 1z" fill="#cfcfe4"/>
<path d="m320.5 391.5h6c1.315 5.336-0.685 8.003-6 8v-8z" fill="#f2f2f7"/>
<path d="m339.5 394.5c1.109-0.79 2.442-1.29 4-1.5-3.986-0.499-7.986-0.666-12-0.5 0.321 5.526-0.012 10.86-1 16v-17h14v3h-5z" fill="#acadd1"/>
<path d="m398.5 391.5h6c0.537 5.987-1.796 7.82-7 5.5 0.906-1.699 1.239-3.533 1-5.5z" fill="#e1e1ee"/>
<path d="m358.5 392.5c2.666-0.434 3.833 0.566 3.5 3-3.597 1.566-4.763 0.566-3.5-3z" fill="#c8c8e1"/>
<path d="m431.5 396.5c6.279 0.06 7.279 2.227 3 6.5-2.406 0.779-4.073-0.054-5-2.5 1.13-1.122 1.797-2.456 2-4z" fill="#e8e8f2"/>
<path d="m233.5 400.5c1.419-0.951 3.085-1.284 5-1v7c-0.961-1.765-1.295-3.765-1-6h-4z" fill="#999ac7"/>
</svg>
