<?xml version="1.0" encoding="UTF-8"?>
<!DOCTYPE svg  PUBLIC '-//W3C//DTD SVG 1.1//EN'  'http://www.w3.org/Graphics/SVG/1.1/DTD/svg11.dtd'>
<svg clip-rule="evenodd" fill-rule="evenodd" image-rendering="optimizeQuality" shape-rendering="geometricPrecision" text-rendering="geometricPrecision" version="1.1" viewBox="0 0 680 454" xmlns="http://www.w3.org/2000/svg">
<path d="m-0.5-0.5h680v454h-680v-454z" fill="#fefefe"/>
<path d="m348.5 40.5c1.699-0.1602 3.366 0.0065 5 0.5-0.638 1.7067-0.638 3.54 0 5.5-0.992-0.1716-1.658 0.1618-2 1-0.739 0.131-1.406-0.0357-2-0.5-7e-3 -1.5827 0.326-3.2494 1-5-0.916-0.2784-1.582-0.7784-2-1.5z" fill="#92c1a6"/>
<path d="m316.5 55.5c-0.739 0.131-1.406-0.0357-2-0.5 2.457-1.5123 2.457-2.8456 0-4 1.896-1.0646 2.063-1.8979 0.5-2.5-1.221 0.7718-2.221 1.7718-3 3-1.041-0.9711-1.874-1.9711-2.5-3 1.208-0.7341 2.541-1.0674 4-1 0.381-4.5885 1.547-4.9218 3.5-1 0.736 3.092 0.569 6.092-0.5 9z" fill="#d6e8de"/>
<path d="m347.5 37.5c-0.891 0.6098-1.891 0.9431-3 1h-1c-0.16 1.6992 6e-3 3.3659 0.5 5 1.065-1.8963 1.898-2.063 2.5-0.5-0.648 1.4397-0.981 2.9397-1 4.5-1.105 1.1005-2.438 1.7671-4 2-1.234 0.3282-2.401-0.3384-3.5-2-2.839 1.7205-4.839 1.0538-6-2-1.84 1.3331-2.34 1.1665-1.5-0.5-0.525-0.6924-1.192-1.1924-2-1.5-0.552 1.5026-0.552 3.1693 0 5-0.901 0.7905-1.568 1.7905-2 3-2.292-0.9684-4.459-1.3018-6.5-1 0.311 1.4346 0.145 2.7679-0.5 4-0.825 0.8857-1.825 1.219-3 1 1.069-2.908 1.236-5.908 0.5-9-1.953-3.9218-3.119-3.5885-3.5 1-1.459-0.0674-2.792 0.2659-4 1 1.927-4.0098 4.927-7.1764 9-9.5 2.599 0.1993 5.099 1.0326 7.5 2.5 1.096-2.3892 1.929-4.8892 2.5-7.5 5.991-0.4995 11.991-0.6662 18-0.5-0.067 1.4587 0.266 2.7921 1 4z" fill="#529c70"/>
<path d="m343.5 38.5h-4v4c-2.442 0.3808-3.109-0.2859-2-2-0.848-1.7828-2.181-2.2828-4-1.5 0.808 0.3076 1.475 0.8076 2 1.5l-3 3c-1.236-0.7458-2.57-1.0792-4-1 0.592-2.6272 0.925-5.2938 1-8 1.603-0.1882 2.937 0.3118 4 1.5-2.095 0.5556-2.262 1.0556-0.5 1.5 3.814-1.5692 7.314-1.2359 10.5 1z" fill="#cce2d5"/>
<path d="m364.5 49.5c0.996 0.0858 1.829-0.2476 2.5-1 0.667 0.6667 0.667 1.3333 0 2-1.685 1.5175-3.185 3.1841-4.5 5-1.506 0.7301-2.84 1.0634-4 1 2.907 5.5475 2.24 10.548-2 15-1.422-0.2086-2.755-0.7086-4-1.5 1.134-1.016 0.801-1.6827-1-2 1.178-0.9669 2.511-1.4669 4-1.5-1.598-2.4734-3.098-2.4734-4.5 0-0.658-1.608-0.158-2.7747 1.5-3.5-3.922-2.3233-3.588-2.8233 1-1.5 0.886-0.825 1.219-1.825 1-3-0.601-3.8704-1.601-7.537-3-11 0.342-0.8382 1.008-1.1716 2-1 1.84-1.668 3.84-3.168 6-4.5-2.405-1.6146-2.405-2.2812 0-2 0.522 0.5613 0.855 1.228 1 2-1.611 2.2097-2.278 4.7097-2 7.5 2.241 0.4539 4.241 0.4539 6 0z" fill="#5ca278"/>
<path d="m343.5 38.5h1c2.38 0.9632 3.38 2.7966 3 5.5 0.12 4.5806-1.546 8.2473-5 11-1.135 0.7494-2.135 0.5827-3-0.5 3.173-1.3578 5.173-3.6911 6-7 0.019-1.5603 0.352-3.0603 1-4.5-0.602-1.563-1.435-1.3963-2.5 0.5-0.494-1.6341-0.66-3.3008-0.5-5z" fill="#c7dfd1"/>
<path d="m317.5 40.5h4c0.317 3.0719-0.016 6.0719-1 9-0.604-2.7633-1.938-5.0966-4-7 0.363-0.6835 0.696-1.3501 1-2z" fill="#dbebe1"/>
<path d="m364.5 49.5c-3.595-1.4051-3.762-3.0717-0.5-5 0.494 1.6341 0.66 3.3008 0.5 5z" fill="#4a976a"/>
<path d="m341.5 49.5c-0.47 1.1935-1.47 1.8601-3 2-8.942-2.5116-9.275-1.3449-1 3.5-2.712 0.7381-5.045 0.0714-7-2-1.537-1.1096-2.203-2.6096-2-4.5-0.552-1.8307-0.552-3.4974 0-5 0.808 0.3076 1.475 0.8076 2 1.5-0.84 1.6665-0.34 1.8331 1.5 0.5 1.161 3.0538 3.161 3.7205 6 2 1.099 1.6616 2.266 2.3282 3.5 2z" fill="#96c3a8"/>
<path d="m309.5 48.5c0.626 1.0289 1.459 2.0289 2.5 3 0.779-1.2282 1.779-2.2282 3-3 1.563 0.6021 1.396 1.4354-0.5 2.5 2.457 1.1544 2.457 2.4877 0 4 0.594 0.4643 1.261 0.631 2 0.5 1.175 0.219 2.175-0.1143 3-1 0.645-1.2321 0.811-2.5654 0.5-4 2.041-0.3018 4.208 0.0316 6.5 1 1.532 2.0207 3.532 3.5207 6 4.5-0.525 0.6924-1.192 1.1924-2 1.5-1.236-0.7458-2.57-1.0792-4-1-0.843 6.926-1.677 7.2594-2.5 1-1.25 2.5766-1.584 5.2433-1 8 0.333-0.6667 0.667-1.3333 1-2 0.608 1.6545 1.108 3.3211 1.5 5-2.074-0.8737-4.074-2.0404-6-3.5 2.036-1.8194 2.203-3.6527 0.5-5.5-0.402 1.3721-0.902 2.7054-1.5 4-0.502 1.021-1.168 1.1877-2 0.5-0.608-2.1841 0.059-4.1841 2-6-0.594-0.4643-1.261-0.631-2-0.5-2.659-1.0859-5.159-3.0859-7.5-6-0.74-1.2494-0.573-2.2494 0.5-3z" fill="#84b999"/>
<path d="m351.5 47.5c1.399 3.463 2.399 7.1296 3 11-1.574-0.4371-2.741-1.4371-3.5-3-0.333 1-0.667 2-1 3-1.425-0.7123-2.925-0.879-4.5-0.5 1-0.8333 2-1.6667 3-2.5-0.985-1.5983-1.151-3.265-0.5-5 1.044 1.1226 1.71 2.4559 2 4 1.328-1.5225 1.162-3.1892-0.5-5 0.743-0.6818 1.409-1.3485 2-2z" fill="#a2cbb3"/>
<path d="m347.5 37.5c0.057 1.109 0.39 2.109 1 3 0.418 0.7216 1.084 1.2216 2 1.5-0.674 1.7506-1.007 3.4173-1 5 0.594 0.4643 1.261 0.631 2 0.5-0.591 0.6515-1.257 1.3182-2 2 1.662 1.8108 1.828 3.4775 0.5 5-0.29-1.5441-0.956-2.8774-2-4-0.651 1.735-0.485 3.4017 0.5 5-1 0.8333-2 1.6667-3 2.5 1.575-0.379 3.075-0.2123 4.5 0.5 0.333-1 0.667-2 1-3 0.759 1.5629 1.926 2.5629 3.5 3 0.219 1.175-0.114 2.175-1 3-4.588-1.3233-4.922-0.8233-1 1.5-1.658 0.7253-2.158 1.892-1.5 3.5 1.402-2.4734 2.902-2.4734 4.5 0-1.489 0.0331-2.822 0.5331-4 1.5 1.801 0.3173 2.134 0.984 1 2 1.245 0.7914 2.578 1.2914 4 1.5-0.538 1.6172-0.871 3.2839-1 5h-4c-0.185-1.6958-1.019-3.0291-2.5-4-0.499 4.3206-0.666 8.6539-0.5 13-1.109 0.0569-2.109 0.3902-3 1 0.658-2.6555 1.325-5.3222 2-8-0.372-6.7723-2.205-7.4389-5.5-2-0.333-0.3333-0.667-0.6667-1-1-0.637 2.91-0.137 5.5767 1.5 8 0 1.3333-0.667 2-2 2-0.433-2.6656-0.933-5.3323-1.5-8-0.383-0.556-0.883-0.8893-1.5-1-1.073-0.7506-1.24-1.7506-0.5-3 0.414 0.4574 0.914 0.7907 1.5 1 1.2-1.0312 2.534-1.8645 4-2.5l-1.5-1.5c-0.14-2.0213-0.307-3.8547-0.5-5.5 1.724-0.4482 2.391-1.2815 2-2.5 1.465 1.1087 2.465 0.6087 3-1.5-0.691-1.0674-1.191-2.2341-1.5-3.5-1.398-0.5509-2.732-0.8842-4-1-0.617 0.9491-0.451 1.7825 0.5 2.5-0.938 1.0633-1.938 2.2299-3 3.5-0.387-1.8675-0.554-3.8675-0.5-6-1.309 2.3912-2.309 2.3912-3 0-2.257 1.5456-4.424 3.2123-6.5 5 3.765-0.2049 3.765 0.6284 0 2.5 1.867 0.7112 3.367 0.2112 4.5-1.5 0.221 3.4431 1.221 3.7764 3 1-1.048 2.2776-1.881 4.4443-2.5 6.5 0.691 1.0674 1.191 2.2341 1.5 3.5 1.193-1.4785 1.693-2.8118 1.5-4 0.934 1.5948 0.934 3.2615 0 5-1.439 1.0092-2.772 0.6759-4-1-0.987 3.2683-1.32 6.6016-1 10-0.617 0.1107-1.117 0.444-1.5 1-0.191-2.2078-0.691-4.2078-1.5-6v-7c4.393 0.0432 4.726-0.4568 1-1.5 0.948-0.4828 1.948-0.6495 3-0.5v-4c-1.478-0.262-2.811 0.0713-4 1 0.525 0.6924 1.192 1.1924 2 1.5-1.561 0.3176-2.728 1.1509-3.5 2.5-0.464-0.5944-0.631-1.2611-0.5-2-0.392-1.6789-0.892-3.3455-1.5-5-0.333 0.6667-0.667 1.3333-1 2-0.584-2.7567-0.25-5.4234 1-8 0.823 6.2594 1.657 5.926 2.5-1 1.43-0.0792 2.764 0.2542 4 1 0.808-0.3076 1.475-0.8076 2-1.5-2.468-0.9793-4.468-2.4793-6-4.5 0.432-1.2095 1.099-2.2095 2-3-0.203 1.8904 0.463 3.3904 2 4.5 1.955 2.0714 4.288 2.7381 7 2-8.275-4.8449-7.942-6.0116 1-3.5 1.53-0.1399 2.53-0.8065 3-2 1.562-0.2329 2.895-0.8995 4-2-0.827 3.3089-2.827 5.6422-6 7 0.865 1.0827 1.865 1.2494 3 0.5 3.454-2.7527 5.12-6.4194 5-11 0.38-2.7034-0.62-4.5368-3-5.5 1.109-0.0569 2.109-0.3902 3-1z" fill="#348b58"/>
<path d="m337.5 76.5c0.306 2.8854-0.027 5.5521-1 8 0.369-2.4935-0.297-3.1602-2-2-1.098-1.1009-1.265-2.4343-0.5-4 0.333 0.6667 0.667 1.3333 1 2 0.495-1.9727 0.662-3.9727 0.5-6 0.934-1.7385 0.934-3.4052 0-5 0.193 1.1882-0.307 2.5215-1.5 4-0.309-1.2659-0.809-2.4326-1.5-3.5 0.619-2.0557 1.452-4.2224 2.5-6.5-1.779 2.7764-2.779 2.4431-3-1-1.133 1.7112-2.633 2.2112-4.5 1.5 3.765-1.8716 3.765-2.7049 0-2.5 2.076-1.7877 4.243-3.4544 6.5-5 0.691 2.3912 1.691 2.3912 3 0-0.054 2.1325 0.113 4.1325 0.5 6 1.062-1.2701 2.062-2.4367 3-3.5-0.951-0.7175-1.117-1.5509-0.5-2.5 1.268 0.1158 2.602 0.4491 4 1 0.309 1.2659 0.809 2.4326 1.5 3.5-0.535 2.1087-1.535 2.6087-3 1.5 0.391 1.2185-0.276 2.0518-2 2.5 0.193 1.6453 0.36 3.4787 0.5 5.5l1.5 1.5c-1.466 0.6355-2.8 1.4688-4 2.5-0.586-0.2093-1.086-0.5426-1.5-1-0.74 1.2494-0.573 2.2494 0.5 3z" fill="#71ae89"/>
<path d="m316.5 57.5c0.739-0.131 1.406 0.0357 2 0.5-1.941 1.8159-2.608 3.8159-2 6 0.832 0.6877 1.498 0.521 2-0.5 0.598-1.2946 1.098-2.6279 1.5-4 1.703 1.8473 1.536 3.6806-0.5 5.5 1.926 1.4596 3.926 2.6263 6 3.5-0.131 0.7389 0.036 1.4056 0.5 2 0.772-1.3491 1.939-2.1824 3.5-2.5-0.808-0.3076-1.475-0.8076-2-1.5 1.189-0.9287 2.522-1.262 4-1v4c-1.052-0.1495-2.052 0.0172-3 0.5 3.726 1.0432 3.393 1.5432-1 1.5-1.517 0.0106-2.684 0.6772-3.5 2-0.35 4.6843-0.85 9.351-1.5 14 0.07 1.2716 0.403 2.4383 1 3.5-2.625 1.3757-2.625 2.5423 0 3.5-1.452 0.8019-3.118 1.3019-5 1.5 2.715 0.8747 4.048 2.7081 4 5.5-0.275 2.342-1.108 2.342-2.5 0-0.765 1.566-0.598 2.899 0.5 4-1.004 1.183-1.838 2.516-2.5 4-1.039-0.744-1.539-1.744-1.5-3 0.592-6.458-0.408-7.1242-3-2-0.333-0.5-0.667-1-1-1.5 1.53-3.5162 3.03-7.0162 4.5-10.5 3.392-1.2399 4.892-3.7399 4.5-7.5-0.155-4.2531-0.822-8.4198-2-12.5-4.003-4.3089-5.003-9.3089-3-15z" fill="#579f74"/>
<path d="m327.5 71.5v7c-1.934 2.6168-2.267 5.2835-1 8-0.695 2.7802-1.695 5.4469-3 8-2.625-0.9577-2.625-2.1243 0-3.5-0.597-1.0617-0.93-2.2284-1-3.5 0.65-4.649 1.15-9.3157 1.5-14 0.816-1.3228 1.983-1.9894 3.5-2z" fill="#e9f2ed"/>
<path d="m335.5 74.5c0.162 2.0273-5e-3 4.0273-0.5 6-0.333-0.6667-0.667-1.3333-1-2-0.765 1.5657-0.598 2.8991 0.5 4-0.239 1.9672 0.094 3.8005 1 5.5-1.172 0.4186-2.172 1.0853-3 2 1.41 0.3678 2.41 1.2011 3 2.5-1.16-0.0634-2.494 0.2699-4 1-0.934-1.5948-0.934-3.2615 0-5 0.284-1.9147-0.049-3.5813-1-5-0.32-3.3984 0.013-6.7317 1-10 1.228 1.6759 2.561 2.0092 4 1z" fill="#eaf3ee"/>
<path d="m351.5 76.5c0.317 4.2016-0.017 8.2016-1 12-0.333-0.6667-0.667-1.3333-1-2 0-0.6667-0.333-1-1-1-0.166-4.3461 1e-3 -8.6794 0.5-13 1.481 0.9709 2.315 2.3042 2.5 4z" fill="#f6faf8"/>
<path d="m337.5 76.5c0.617 0.1107 1.117 0.444 1.5 1 0.567 2.6677 1.067 5.3344 1.5 8v3 6c-1.624 0.1399-2.79-0.5267-3.5-2-0.497-2.646-0.664-5.3127-0.5-8 0.973-2.4479 1.306-5.1146 1-8z" fill="#f5f9f7"/>
<path d="m345.5 86.5c0.149 1.052-0.017 2.052-0.5 3-0.566-2.2226-1.4-4.2226-2.5-6-1.637-2.4233-2.137-5.09-1.5-8 0.333 0.3333 0.667 0.6667 1 1 3.295-5.4389 5.128-4.7723 5.5 2-0.675 2.6778-1.342 5.3445-2 8z" fill="#cae1d4"/>
<path d="m351.5 76.5h4v14c2.433-0.2271 4.099 0.7729 5 3-2.637 0.2731-4.97 0.6064-7 1-1.049-2.028-2.049-4.028-3-6 0.983-3.7984 1.317-7.7984 1-12z" fill="#b4d5c2"/>
<path d="m327.5 78.5c0.809 1.7922 1.309 3.7922 1.5 6 0.383-0.556 0.883-0.8893 1.5-1 0.951 1.4187 1.284 3.0853 1 5-0.958 0.4528-1.792 1.1195-2.5 2-0.333-1.6667-0.667-3.3333-1-5-0.383 0.556-0.883 0.8893-1.5 1-1.267-2.7165-0.934-5.3832 1-8z" fill="#a6cdb7"/>
<path d="m342.5 83.5c1.1 1.7774 1.934 3.7774 2.5 6 0.483-0.948 0.649-1.948 0.5-3 0.891-0.6098 1.891-0.9431 3-1 0.667 0 1 0.3333 1 1-0.79 1.1085-1.29 2.4419-1.5 4-0.654-1.1956-1.154-1.1956-1.5 0 0.826 0.951 0.992 1.951 0.5 3-1.299-0.4662-2.799-0.4662-4.5 0 0.423-2.2812-0.244-3.9479-2-5v-3c1.333 0 2-0.6667 2-2z" fill="#95c3a9"/>
<path d="m336.5 84.5c-0.164 2.6873 3e-3 5.354 0.5 8 0.71 1.4733 1.876 2.1399 3.5 2v-6c1.756 1.0521 2.423 2.7188 2 5 1.701-0.4662 3.201-0.4662 4.5 0 0.492-1.049 0.326-2.049-0.5-3 0.346-1.1956 0.846-1.1956 1.5 0 0.21-1.5581 0.71-2.8915 1.5-4 0.333 0.6667 0.667 1.3333 1 2 0.951 1.972 1.951 3.972 3 6 2.03-0.3936 4.363-0.7269 7-1 0.988 1.295 1.988 2.6283 3 4-2.166 2.4979-3.166 5.498-3 9h3c-1.138 2.586-3.138 4.253-6 5h-38c-3.987-0.152-5.487-2.152-4.5-6 0.383 0.556 0.883 0.889 1.5 1-0.039 1.256 0.461 2.256 1.5 3 0.662-1.484 1.496-2.817 2.5-4 2.264 0.719 4.597 1.052 7 1 0.958 1.462 2.124 2.795 3.5 4 0.507-1.496 7e-3 -2.663-1.5-3.5 0.916-0.374 1.75-0.874 2.5-1.5 0.876 2.135 2.376 3.469 4.5 4 7.524 1.306 10.691-2.027 9.5-10-5.084-5.6074-9.584-5.274-13.5 1-0.768 0.763-1.268 1.763-1.5 3-0.305-2.057-0.305-4.0568 0-6-1.417 1.8978-2.917 3.564-4.5 5-1.459 0.067-2.792-0.266-4-1 0.048-2.7919-1.285-4.6253-4-5.5 1.882-0.1981 3.548-0.6981 5-1.5 1.305-2.5531 2.305-5.2198 3-8 0.617-0.1107 1.117-0.444 1.5-1 0.333 1.6667 0.667 3.3333 1 5 0.708-0.8805 1.542-1.5472 2.5-2-0.934 1.7385-0.934 3.4052 0 5 1.506-0.7301 2.84-1.0634 4-1-0.59-1.2989-1.59-2.1322-3-2.5 0.828-0.9147 1.828-1.5814 3-2-0.906-1.6995-1.239-3.5328-1-5.5 1.703-1.1602 2.369-0.4935 2 2z" fill="#23814a"/>
<path d="m347.5 98.5c1.293-1.1448 2.459-0.8115 3.5 1 0.333-0.6667 0.667-1.3333 1-2 1.841 1.6591 3.008 3.659 3.5 6 3.723-0.142 4.556 1.191 2.5 4-0.333-0.667-0.667-1.333-1-2-2.043 1.079-3.376 2.746-4 5-0.333-0.667-0.667-1.333-1-2-0.423 1.456-1.256 1.956-2.5 1.5 0.793-1.085 1.46-2.252 2-3.5-0.891-1.09-1.891-1.09-3 0-0.687-2.84-1.021-5.507-1-8z" fill="#9fc9b0"/>
<path d="m322.5 101.5c1.208 0.734 2.541 1.067 4 1 0.734 1.208 1.067 2.541 1 4-2.403 0.052-4.736-0.281-7-1-1.098-1.101-1.265-2.434-0.5-4 1.392 2.342 2.225 2.342 2.5 0z" fill="#e4f0e9"/>
<path d="m336.5 109.5c6.349-0.328 8.515-3.661 6.5-10-5.246-2.3343-8.579-0.6677-10 5-0.49-1.293-0.657-2.627-0.5-4 3.916-6.274 8.416-6.6074 13.5-1 1.191 7.973-1.976 11.306-9.5 10z" fill="#c9e1d3"/>
<path d="m363.5 97.5c2.269 3.079 2.269 6.079 0 9h-3c-0.166-3.502 0.834-6.5021 3-9z" fill="#98c4aa"/>
<path d="m332.5 100.5c-0.157 1.373 0.01 2.707 0.5 4 1.421-5.6677 4.754-7.3343 10-5 2.015 6.339-0.151 9.672-6.5 10-2.124-0.531-3.624-1.865-4.5-4-0.75 0.626-1.584 1.126-2.5 1.5 1.507 0.837 2.007 2.004 1.5 3.5-1.376-1.205-2.542-2.538-3.5-4 0.067-1.459-0.266-2.792-1-4 1.583-1.436 3.083-3.1022 4.5-5-0.305 1.9432-0.305 3.943 0 6 0.232-1.237 0.732-2.237 1.5-3z" fill="#a2cbb3"/>
<path d="m337.5 99.5c4.568-0.4174 6.068 1.583 4.5 6-5.066 3.394-7.066 2.06-6-4 0.717-0.544 1.217-1.211 1.5-2z" fill="#4e9a6e"/>
<path d="m319.5 111.5h38c0.237 1.291-0.096 2.291-1 3-11.62-1.979-23.62-2.646-36-2-0.667 0-1-0.333-1-1z" fill="#6fae8b"/>
<path d="m320.5 112.5c12.38-0.646 24.38 0.021 36 2-11.822 0.995-23.822 1.328-36 1v-3z" fill="#4f9b6f"/>
<path d="m333.5 118.5c2.217 0.869 4.55 1.202 7 1v5c-2.411 0.363-3.911-0.637-4.5-3-0.333 1-0.667 2-1 3-2.852 0.252-5.852-0.082-9-1-1.897 2.416-3.897 2.416-6 0-0.669 2.528-1.502 2.528-2.5 0 1.218-1.303 0.885-2.303-1-3 5.819-0.667 11.486-1.333 17-2z" fill="#93c2a7"/>
<path d="m356.5 118.5c0.996-0.086 1.829 0.248 2.5 1 0.667 1.667 0.667 3.333 0 5-1.395-1.315-2.395-0.981-3 1-1.399-0.727-2.899-1.227-4.5-1.5-1.374-3.41-2.041-3.243-2 0.5-1.788 0.285-3.455-0.048-5-1 1.333-1 1.333-2 0-3 4.147-0.667 8.147-1.334 12-2z" fill="#92c2a7"/>
<path d="m484.5 272.5v9c-1.653 7.64-5.153 14.306-10.5 20-8.389 14.89-12.055 30.89-11 48-4.885 15.549-15.385 24.715-31.5 27.5-14.869 8.205-27.202 19.205-37 33-4.814 3.438-10.147 5.605-16 6.5h-10c-19.693-6.615-39.36-6.615-59 0h-11c-5.448-1.056-10.448-3.222-15-6.5-6.319-8.318-13.319-15.984-21-23-9.385-6.859-19.718-11.859-31-15-14.216-10.953-20.049-25.453-17.5-43.5-3.037-14.406-9.037-27.406-18-39-0.993-2.974-1.826-5.974-2.5-9v-9c0.023-2.427 0.523-4.76 1.5-7 14.05-17.818 20.717-38.151 20-61 2.363-8.222 6.863-15.056 13.5-20.5 10.34-3.893 20.34-8.56 30-14 4.5-3.833 9-7.667 13.5-11.5 12.049-20.978 29.216-26.478 51.5-16.5 9.333 0.667 18.667 0.667 28 0 7.011-2.339 14.177-3.839 21.5-4.5 6.572-0.149 12.739 1.351 18.5 4.5 7.636 8.637 15.636 16.97 24 25 4.398 3.394 9.065 6.394 14 9 10.892 2.194 20.059 7.36 27.5 15.5 2.804 3.943 4.804 8.277 6 13-0.72 22.84 5.947 43.173 20 61 1.079 2.563 1.579 5.229 1.5 8z" fill="#14793f"/>
<path d="m323.5 153.5c55.737-2.726 97.237 19.94 124.5 68 20.487 47.252 15.487 91.585-15 133-36.145 39.748-80.311 52.915-132.5 39.5-60.669-24.13-88.836-68.964-84.5-134.5 8.385-47.047 34.552-79.881 78.5-98.5 9.615-3.216 19.282-5.716 29-7.5z" fill="#edf5f4"/>
<path d="m327.5 156.5c64.46-0.34 106.63 29.994 126.5 91 10.286 55.896-7.881 99.729-54.5 131.5-46.157 25.323-90.824 22.99-134-7-42.7-36.274-56.2-81.44-40.5-135.5 18.85-46.356 53.017-73.023 102.5-80z" fill="#4ba4db"/>
<path d="m325.5 158.5c48.853-2.324 86.686 16.676 113.5 57 21.941 40.651 21.941 81.317 0 122-26.526 40.18-64.026 59.014-112.5 56.5-39.353-4.915-69.519-24.082-90.5-57.5-17.935-34.325-20.268-69.658-7-106 19.53-41.041 51.697-65.041 96.5-72z" fill="#e9f4fb"/>
<path d="m231.5 237.5c1.548 0.321 2.215 1.321 2 3-2.266-0.359-4.099 0.308-5.5 2-0.667-1-0.667-2 0-3 1.302-0.585 2.469-1.251 3.5-2z" fill="#258ed2"/>
<path d="m445.5 235.5c0.597 0.235 0.93 0.735 1 1.5-0.789 1.626-1.789 3.126-3 4.5-1.479-2.757-0.813-4.757 2-6z" fill="#298fd2"/>
<path d="m231.5 229.5h5v3c-1.967-0.239-3.801 0.094-5.5 1-0.579-1.428-0.412-2.762 0.5-4z" fill="#409cd8"/>
<path d="m441.5 226.5c1.725 0.343 2.225 1.343 1.5 3-0.908 1.939-2.408 2.939-4.5 3 0.183-2.488 1.183-4.488 3-6z" fill="#3693d4"/>
<path d="m235.5 221.5h5v3c-2.104 0.299-4.104-0.034-6-1 0.363-0.683 0.696-1.35 1-2z" fill="#3291d3"/>
<path d="m437.5 218.5c0.978 0.311 1.645 0.978 2 2-1.184 1.546-2.184 3.213-3 5-1.22-0.387-1.887-1.22-2-2.5 0.815-1.643 1.815-3.143 3-4.5z" fill="#459bd7"/>
<path d="m239.5 213.5h6v3c-2.893 0.469-4.893-0.531-6-3z" fill="#3391d3"/>
<path d="m432.5 210.5c1.195 0.366 1.861 1.199 2 2.5-0.648 1.44-0.981 2.94-1 4.5h-3c-0.1-2.608 0.567-4.942 2-7z" fill="#3f97d6"/>
<path d="m244.5 206.5h6v3c-2.893 0.469-4.893-0.531-6-3z" fill="#2b90d3"/>
<path d="m427.5 203.5c1.319 2.105 0.986 4.105-1 6-1.27-2.257-0.936-4.257 1-6z" fill="#1b89d0"/>
<path d="m250.5 199.5h6v3c-2.893 0.469-4.893-0.531-6-3z" fill="#3092d4"/>
<path d="m420.5 196.5c1.495-0.085 2.495 0.581 3 2-0.515 1.725-1.182 3.392-2 5-1.381-0.5-2.047-1.5-2-3 0.346-1.349 0.679-2.683 1-4z" fill="#459bd7"/>
<path d="m256.5 192.5c3.469-0.613 5.469 0.721 6 4-2.837-0.184-4.837-1.518-6-4z" fill="#3594d4"/>
<path d="m414.5 190.5c0.997-0.03 1.664 0.47 2 1.5-0.378 1.635-1.044 3.135-2 4.5-1.019-1.96-1.019-3.96 0-6z" fill="#1a89d0"/>
<path d="m407.5 184.5c1.808 1.418 2.475 3.418 2 6h-3c0.017-2.065 0.35-4.065 1-6z" fill="#248dd2"/>
<path d="m263.5 186.5c2.196 0.065 4.196 0.732 6 2-1.313 2.385-2.98 2.552-5 0.5-0.752-0.671-1.086-1.504-1-2.5z" fill="#258fd2"/>
<path d="m398.5 179.5c1.042-1.291 2.208-1.291 3.5 0 0.495 1.973 0.662 3.973 0.5 6h-3c0.295-2.235-0.039-4.235-1-6z" fill="#4aa1da"/>
<path d="m323.5 168.5c54.479-3.196 92.979 19.804 115.5 69 13.818 41.906 6.485 79.572-22 113-36.174 34.671-77.674 42.837-124.5 24.5-40.162-20.628-61.162-53.628-63-99 2.572-48.168 25.905-81.835 70-101 8.007-2.626 16.007-4.793 24-6.5z" fill="#4ba4db"/>
<path d="m270.5 182.5c2.105-1.319 4.105-0.986 6 1-0.333 1-1 1.667-2 2-1.352-1.024-2.685-2.024-4-3z" fill="#2e90d3"/>
<path d="m390.5 173.5c1.322-0.17 2.489 0.163 3.5 1 0.495 1.973 0.662 3.973 0.5 6h-3c0.16-1.699-6e-3 -3.366-0.5-5-0.654 1.196-1.154 1.196-1.5 0 0.363-0.683 0.696-1.35 1-2z" fill="#51a1da"/>
<path d="m278.5 177.5c2.003-1.032 4.003-0.698 6 1-0.333 1-1 1.667-2 2-1.352-1.024-2.685-2.024-4-3z" fill="#228cd1"/>
<path d="m382.5 169.5c3.042 0.703 4.709 2.703 5 6-1.151 1.231-2.317 1.231-3.5 0-0.333-1.333-0.667-2.667-1-4l-1 1c-0.47-1.077-0.303-2.077 0.5-3z" fill="#52a3da"/>
<path d="m286.5 171.5c2.96 0.162 4.793 1.495 5.5 4-0.718 0.951-1.551 1.117-2.5 0.5-1.051-1.385-2.384-2.385-4-3 0.556-0.383 0.889-0.883 1-1.5z" fill="#3594d4"/>
<path d="m329.5 169.5c43.68-1.083 77.18 16.584 100.5 53 21.412 42.203 18.412 82.536-9 121-29.231 33.299-65.731 45.466-109.5 36.5-55.587-18.306-82.087-56.806-79.5-115.5 7.105-46.777 33.271-77.277 78.5-91.5 6.472-1.187 12.806-2.354 19-3.5z" fill="#f9fcfe"/>
<path d="m327.5 174.5c54.08-0.732 90.247 24.268 108.5 75 10.044 48.722-5.456 86.889-46.5 114.5-47.34 23.88-89.84 17.38-127.5-19.5-26.994-33.285-32.661-69.952-17-110 17.301-34.148 44.801-54.148 82.5-60z" fill="#d2eefc"/>
<path d="m294.5 236.5c0.438-0.065 0.772 0.101 1 0.5-1.939 0.908-2.939 2.408-3 4.5 2.027-0.162 4.027 5e-3 6 0.5-1.293 0.49-2.627 0.657-4 0.5 0.369 2.493-0.297 3.16-2 2 1.16-1.703 0.493-2.369-2-2 0.012 2.642-1.321 3.975-4 4 0.569-2.835 2.236-4.501 5-5-0.584-2.785 0.416-4.452 3-5z" fill="#72a898"/>
<path d="m342.5 228.5c-1.403 2.468-3.403 3.134-6 2 1.874-0.785 3.874-1.452 6-2z" fill="#70a784"/>
<path d="m391.5 227.5c1.837 0.139 2.17 0.806 1 2-0.798-0.457-1.131-1.124-1-2z" fill="#0181cc"/>
<path d="m369.5 225.5c-0.077 1.25-0.744 2.083-2 2.5 2.667 0.333 5.333 0.667 8 1 5.062 4.274 9.562 9.107 13.5 14.5 0.684 1.284 0.517 2.451-0.5 3.5 2.135 0.876 3.469 2.376 4 4.5-1.986 5.319-5.653 8.986-11 11 2.457 1.832 2.457 3.499 0 5-0.697-3.073-2.53-5.073-5.5-6-3.417 1.572-3.251 2.739 0.5 3.5l-2 2c1.782 2.243 2.282 4.743 1.5 7.5-3.055 3.112-6.221 6.112-9.5 9-1.211-0.774-1.211-1.607 0-2.5-0.949-0.617-1.782-0.451-2.5 0.5 1.132 2.84 1.798 5.84 2 9-0.689 0.857-1.522 1.523-2.5 2-1.701-1.054-3.368-2.054-5-3 0.394-10.032 1.061-20.032 2-30 0.977-2.787 1.31-5.787 1-9h5c2.646 0.392 5.146 0.392 7.5 0 1.004-3.493 0.504-6.659-1.5-9.5-20.031-0.797-40.031-0.631-60 0.5-0.338 2.657 0.329 4.99 2 7 9.316 0.04 18.65 0.374 28 1-7.885 4.769-15.551 9.769-23 15-0.559-2.179-1.226-4.346-2-6.5 1.399-2.238 0.732-2.905-2-2-0.943 2.8-0.776 5.634 0.5 8.5 0.671 0.752 1.504 1.086 2.5 1-3.784 4.057-8.117 7.391-13 10-2.957-1.525-3.624-0.858-2 2-0.808 2.426-1.808 4.759-3 7 0.333 0.667 0.667 1.333 1 2 3.817 0.889 7.484 1.889 11 3-2.583 0.592-2.583 1.258 0 2 1.213-0.247 1.88-0.914 2-2 1.495 0.489 2.829 1.155 4 2-2.498 4.914-5.998 9.248-10.5 13-0.093 4.341-0.093 8.674 0 13-1.376 1.205-2.542 2.538-3.5 4-0.768 0.763-1.268 1.763-1.5 3-18.935-15.317-26.769-34.983-23.5-59h4v4c2.549-0.113 4.882 0.554 7 2 0.716-0.811 1.55-1.478 2.5-2 3.503 1.223 7.003 1.223 10.5 0 0.746-1.236 1.079-2.57 1-4-2.357 0.163-4.69-3e-3 -7-0.5-0.837-1.011-1.17-2.178-1-3.5-2.442-0.146-3.109 0.687-2 2.5l-1.5 1.5c-1.358-3.453-3.524-6.287-6.5-8.5-0.832-0.688-1.498-0.521-2 0.5 1.171 1.669 2.504 3.169 4 4.5-0.167 0.5-0.333 1-0.5 1.5-2.037-2.206-4.203-4.206-6.5-6 0.575-3.412 1.908-6.412 4-9 1.935-0.65 3.935-0.983 6-1-0.237-1.291 0.096-2.291 1-3 1.703 1.16 2.369 0.493 2-2 1.373 0.157 2.707-0.01 4-0.5-1.973-0.495-3.973-0.662-6-0.5 0.061-2.092 1.061-3.592 3-4.5-0.228-0.399-0.562-0.565-1-0.5 0.667-2.667 2.333-4.333 5-5 3.047 0.683 6.047 1.683 9 3-1.792 0.809-3.792 1.309-6 1.5 3.126 1.873 6.126 1.707 9-0.5 0.184-2.425 0.851-2.425 2 0 5.901-2.043 11.901-2.876 18-2.5-1.211-0.893-1.211-1.726 0-2.5 1.236-0.746 2.57-1.079 4-1 0.396 2.544-0.271 4.711-2 6.5 3.747-0.259 4.747-2.092 3-5.5 2.597 1.134 4.597 0.468 6-2 5.198-1.422 10.531-2.256 16-2.5 1.098-0.77 1.098-1.603 0-2.5 2.18-1.509 3.847-1.009 5 1.5 1.973 0.495 3.973 0.662 6 0.5z" fill="#84bb4d"/>
<path d="m308.5 234.5c0.891 0.61 1.891 0.943 3 1-2.874 2.207-5.874 2.373-9 0.5 2.208-0.191 4.208-0.691 6-1.5z" fill="#74ae96"/>
<path d="m369.5 225.5c-2.027 0.162-4.027-5e-3 -6-0.5-1.153-2.509-2.82-3.009-5-1.5 1.098 0.897 1.098 1.73 0 2.5-5.469 0.244-10.802 1.078-16 2.5-2.126 0.548-4.126 1.215-6 2 1.747 3.408 0.747 5.241-3 5.5 1.729-1.789 2.396-3.956 2-6.5-1.43-0.079-2.764 0.254-4 1-1.211 0.774-1.211 1.607 0 2.5-6.099-0.376-12.099 0.457-18 2.5-1.149-2.425-1.816-2.425-2 0-1.109-0.057-2.109-0.39-3-1-2.953-1.317-5.953-2.317-9-3 7.182-7.101 15.849-11.934 26-14.5 13.485-1.742 26.485-0.076 39 5 2.084 0.697 3.751 1.864 5 3.5z" fill="#75c0e4"/>
<path d="m321.5 226.5c1.373-0.157 2.707 0.01 4 0.5-2.144 1.146-3.977 2.646-5.5 4.5-0.5-0.333-1-0.667-1.5-1 1.024-1.352 2.024-2.685 3-4z" fill="#7cb058"/>
<path d="m358.5 223.5c-2.489 0.202-4.823-0.298-7-1.5 2.712-0.826 5.045-0.326 7 1.5z" fill="#79ad55"/>
<path d="m309.5 194.5c1.373-0.157 2.707 0.01 4 0.5-0.457 0.414-0.791 0.914-1 1.5 1.738 3.549 3.071 7.216 4 11-2.454 0.179-4.621-0.487-6.5-2-1.631 2.128-3.798 3.461-6.5 4-3.952 8.079-7.619 7.912-11-0.5-3.896-1.249-5.23-0.083-4 3.5 0.667-1 1.333-2 2-3 0.333 0.5 0.667 1 1 1.5-1.399 2.206-3.066 4.206-5 6-4.577 0.404-4.91-0.43-1-2.5-2.547-1.039-4.547-0.205-6 2.5 3.388 2.531 5.721 5.698 7 9.5-3.802-1.279-6.969-3.612-9.5-7-1.604 0.568-2.27 1.568-2 3 2.695 2.194 5.528 4.194 8.5 6-0.333 1-1 1.667-2 2-1.832-0.748-3.499-1.748-5-3-0.974 2.243-1.308 4.576-1 7-1.643 0.02-2.976-0.647-4-2-0.886 0.825-1.219 1.825-1 3-2.988 0.345-4.321-0.988-4-4 0.455-3.133 2.121-5.466 5-7-0.667-1-1.333-2-2-3 2.365-0.585 4.365-1.752 6-3.5-2.885-8.671 0.449-13.504 10-14.5v3c-6.516-0.483-9.849 2.517-10 9 1.052 0.149 2.052-0.017 3-0.5 9.174-8.691 19.508-15.524 31-20.5z" fill="#2890d3"/>
<path d="m352.5 191.5c24.681 5.4 43.681 17.9 57 37.5-4.326 1.248-8.159 3.414-11.5 6.5-1.216-3.374-2.216-6.707-3-10 1.353-1.185 2.52-2.519 3.5-4 1.983 1.482 3.816 3.149 5.5 5-1.065-3.106-3.065-5.773-6-8-2.531 3.388-5.698 5.721-9.5 7-0.149-1.052 0.017-2.052 0.5-3 7.828-3.778 8.162-7.778 1-12 1.283 2.742 1.616 5.742 1 9-3.15 1.661-4.65 0.661-4.5-3 3.048 6e-3 3.548-0.994 1.5-3-1.667 2-3.333 4-5 6-0.882-3.052-2.716-5.386-5.5-7 0.574-1.559 1.24-3.059 2-4.5 2.808-0.238 5.474 0.096 8 1-2.5-1.833-5-3.667-7.5-5.5-2.167 2.33-3.834 4.997-5 8-1.011 0.837-2.178 1.17-3.5 1-0.678-2.846-2.012-5.346-4-7.5-7e-3 -1.812 0.66-3.312 2-4.5 2 0.667 4 1.333 6 2 1.196-0.346 1.196-0.846 0-1.5-2.784-0.892-5.45-2.058-8-3.5-2.313 2.937-3.646 6.27-4 10-1.175 0.219-2.175-0.114-3-1 0.746-1.236 1.079-2.57 1-4-2.146 0.378-4.313 0.712-6.5 1-6.065-1.216-5.898-2.049 0.5-2.5 1.655-1.444 2.322-3.278 2-5.5-3.046 0.317-4.713-1.016-5-4z" fill="#1f8ed2"/>
<path d="m398.5 224.5c4.573 1.515 4.906 3.515 1 6-0.966-1.896-1.299-3.896-1-6z" fill="#bee3f7"/>
<path d="m380.5 210.5c1.625-0.825 3.292-0.492 5 1-0.645 1.146-1.478 2.146-2.5 3-0.2-1.82-1.034-3.153-2.5-4z" fill="#c8e8f9"/>
<path d="m295.5 206.5c4.953-0.178 6.119 1.822 3.5 6-1.442-1.891-2.609-3.891-3.5-6z" fill="#c6e7f9"/>
<path d="m370.5 202.5c1.695 0.511 3.361 1.178 5 2-1.031 1.2-1.865 2.534-2.5 4-0.655-2.128-1.489-4.128-2.5-6z" fill="#c1e5f8"/>
<path d="m321.5 191.5c2.027-0.162 4.027 5e-3 6 0.5-0.551 4.072-0.551 8.239 0 12.5-3.286-0.707-6.619-1.04-10-1-0.493-2.306-0.826-4.639-1-7 2.342-4e-3 4.342-0.837 6-2.5-2.633 0.253-5.3 0.253-8 0 2.333-1.043 4.666-1.876 7-2.5z" fill="#2c92d4"/>
<path d="m300.5 200.5c1.757 0.792 3.091 2.125 4 4-0.5 0.333-1 0.667-1.5 1-2.464-0.661-4.964-1.161-7.5-1.5 1.846-1.03 3.513-2.196 5-3.5z" fill="#c1e5f8"/>
<path d="m305.5 198.5c3.333-0.667 5.333 0.667 6 4-3.801 1.546-5.801 0.213-6-4z" fill="#c6e7f9"/>
<path d="m360.5 195.5c1.149 0.291 1.816 1.124 2 2.5-0.333 0.833-0.667 1.667-1 2.5-0.952-1.545-1.285-3.212-1-5z" fill="#bfe4f7"/>
<path d="m321.5 196.5c1.844 0.704 2.344 2.037 1.5 4-3.339-1.013-3.839-2.347-1.5-4z" fill="#d3eefc"/>
<path d="m328.5 190.5c5.706-0.329 11.372 5e-3 17 1-1.128 0.762-2.295 1.429-3.5 2-1.388-1.054-2.888-1.22-4.5-0.5 0.828 0.915 1.828 1.581 3 2-2.403 0.63-4.237-0.203-5.5-2.5 0.828 4.976 3.328 5.976 7.5 3 0.586 0.209 1.086 0.543 1.5 1-0.083 2.619-0.25 5.286-0.5 8h-3c0.582-6.623-1.084-7.457-5-2.5-1.973 0.495-3.973 0.662-6 0.5-0.149-1.052 0.017-2.052 0.5-3 1.011 0.837 2.178 1.17 3.5 1v-4c-4.027 0.219-4.694-0.948-2-3.5-1.619-0.236-2.619-1.069-3-2.5z" fill="#2b92d4"/>
<path d="m375.5 167.5h3v5h-3v-5z" fill="#3095d5"/>
<path d="m294.5 169.5c0.235-0.597 0.735-0.93 1.5-1 1.626 0.789 3.126 1.789 4.5 3-0.667 0.333-1.333 0.667-2 1-1.541-0.786-2.874-1.786-4-3z" fill="#1e8ad0"/>
<path d="m302.5 166.5c2.708-1.403 5.042-0.736 7 2-0.333 1-1 1.667-2 2-1.685-1.453-3.351-2.786-5-4z" fill="#4298d6"/>
<path d="m366.5 164.5h3c-0.143 1.762 0.191 3.429 1 5-1.151 1.231-2.317 1.231-3.5 0-0.494-1.634-0.66-3.301-0.5-5z" fill="#3e96d5"/>
<path d="m347.5 160.5c3.169 0.162 5.169 1.828 6 5-2.911 1.292-4.744 0.292-5.5-3-0.333 0.667-0.667 1.333-1 2-0.579-1.428-0.412-2.762 0.5-4z" fill="#5aa5dc"/>
<path d="m358.5 162.5c1.585 0.974 2.585 2.474 3 4.5-0.948 0.483-1.948 0.649-3 0.5v-5z" fill="#1786cf"/>
<path d="m312.5 164.5c2.207-1.37 3.874-0.703 5 2-0.865 1.083-1.865 1.249-3 0.5-0.566-0.995-1.233-1.828-2-2.5z" fill="#1e89d0"/>
<path d="m320.5 162.5c2.813-1.265 4.813-0.265 6 3-0.865 1.083-1.865 1.249-3 0.5-0.663-1.518-1.663-2.685-3-3.5z" fill="#2e91d3"/>
<path d="m338.5 161.5c2.813-1.265 4.813-0.265 6 3-1.189 0.929-2.522 1.262-4 1 0.271-1.88-0.396-3.213-2-4z" fill="#3995d5"/>
<path d="m329.5 161.5c2.674-1.103 4.674-0.103 6 3-1.189 0.929-2.522 1.262-4 1 0.271-1.88-0.396-3.213-2-4z" fill="#3092d4"/>
<path d="m366.5 250.5h-5c0.31 3.213-0.023 6.213-1 9 0.308-2.424-0.026-4.757-1-7-3.257 1.606-5.424 0.606-6.5-3-1.154 2.457-2.488 2.457-4 0-1.892 1.554-3.392 3.388-4.5 5.5 0.63 1.31 1.63 2.144 3 2.5-1.963 1.32-3.963 2.654-6 4-0.02-1.643 0.647-2.976 2-4-0.667-1-1.333-2-2-3 1.171-1.669 2.504-3.169 4-4.5-0.544-2.4-1.211-4.733-2-7 1.333-0.167 2.667-0.333 4-0.5 4.371 2.211 9.038 3.544 14 4v3c1.915-0.284 3.581 0.049 5 1z" fill="#cfd324"/>
<path d="m292.5 244.5c-0.904 0.709-1.237 1.709-1 3-2.065 0.017-4.065 0.35-6 1-0.172-0.992 0.162-1.658 1-2 2.679-0.025 4.012-1.358 4-4 2.493-0.369 3.16 0.297 2 2z" fill="#73b9d6"/>
<path d="m445.5 243.5c1.877-1.428 3.211-0.928 4 1.5-0.792 1.96-2.125 3.46-4 4.5-1.334-2.318-0.668-3.985 2-5-0.457-0.798-1.124-1.131-2-1z" fill="#3e96d6"/>
<path d="m229.5 245.5c1.966 0.755 2.3 1.921 1 3.5-6.257 0.365-6.591-0.802-1-3.5z" fill="#2d8fd2"/>
<path d="m366.5 250.5c-1.419-0.951-3.085-1.284-5-1v-3c-4.962-0.456-9.629-1.789-14-4-1.333 0.167-2.667 0.333-4 0.5 0.789 2.267 1.456 4.6 2 7-1.496 1.331-2.829 2.831-4 4.5 0.667 1 1.333 2 2 3-1.353 1.024-2.02 2.357-2 4-8.404 5.624-16.57 11.624-24.5 18-0.688 0.832-0.521 1.498 0.5 2 2.239 1.288 4.572 2.288 7 3 1.926 0.986 3.926 1.986 6 3 0.357 2.089 1.023 4.089 2 6 2.369 1.401 4.536 3.068 6.5 5 1.693-0.684 3.193-1.684 4.5-3 1.006 0.438 1.006 1.104 0 2 0.833 0.333 1.667 0.667 2.5 1 2.491-1.175 4.991-1.175 7.5 0 0.059-5.66-0.941-10.994-3-16v-3c0.643-7.65 0.977-15.317 1-23-1.459-0.067-2.792 0.266-4 1-1.37-0.356-2.37-1.19-3-2.5 1.108-2.112 2.608-3.946 4.5-5.5 1.512 2.457 2.846 2.457 4 0 1.076 3.606 3.243 4.606 6.5 3 0.974 2.243 1.308 4.576 1 7-0.939 9.968-1.606 19.968-2 30v5c0.442 3.654 0.776 7.321 1 11 0.308 2.424-0.026 4.757-1 7-12.476-8.572-25.809-15.572-40-21-1.171-0.845-2.505-1.511-4-2h-2c-3.516-1.111-7.183-2.111-11-3-0.333-0.667-0.667-1.333-1-2 1.192-2.241 2.192-4.574 3-7 1-0.333 1.667-1 2-2 4.883-2.609 9.216-5.943 13-10 0.667 0 1-0.333 1-1 7.449-5.231 15.115-10.231 23-15-9.35-0.626-18.684-0.96-28-1-1.671-2.01-2.338-4.343-2-7 19.969-1.131 39.969-1.297 60-0.5 2.004 2.841 2.504 6.007 1.5 9.5-2.354 0.392-4.854 0.392-7.5 0z" fill="#f4ea23"/>
<path d="m450.5 252.5c1.103 2.674 0.103 4.674-3 6-1.083-0.865-1.249-1.865-0.5-3 1.518-0.663 2.685-1.663 3.5-3z" fill="#248fd2"/>
<path d="m227.5 254.5c2.152 0.577 2.485 1.744 1 3.5-3.745-0.035-4.412 0.965-2 3-1.891 0.309-3.225-0.525-4-2.5 1.207-2.041 2.874-3.374 5-4z" fill="#55a2da"/>
<path d="m323.5 256.5c1.837 0.139 2.17 0.806 1 2-0.798-0.457-1.131-1.124-1-2z" fill="#70b1bd"/>
<path d="m299.5 255.5c1.517 0.011 2.684 0.677 3.5 2 0.725-1.658 1.892-2.158 3.5-1.5l-1 1c1.333 1 2.667 2 4 3-0.608 0.87-1.441 1.37-2.5 1.5-3.187-0.545-6.354-1.211-9.5-2 1.13-1.122 1.797-2.456 2-4z" fill="#74bbd7"/>
<path d="m395.5 257.5v2l-2 2h-2c-0.012-2.642 1.321-3.975 4-4z" fill="#72a887"/>
<path d="m319.5 264.5c0 0.667-0.333 1-1 1-0.996 0.086-1.829-0.248-2.5-1-1.276-2.866-1.443-5.7-0.5-8.5 2.732-0.905 3.399-0.238 2 2 0.774 2.154 1.441 4.321 2 6.5z" fill="#72b9db"/>
<path d="m350.5 279.5c-1.195-0.366-1.861-1.199-2-2.5 0.46-1.301 0.794-2.634 1-4l-3-7.5c-0.397-1.025-1.063-1.192-2-0.5-1.667 2.333-3.667 4.333-6 6-4.723 2.022-9.057 4.522-13 7.5-3.637 1.402-3.97 3.402-1 6-2.428-0.712-4.761-1.712-7-3-1.021-0.502-1.188-1.168-0.5-2 7.93-6.376 16.096-12.376 24.5-18 2.037-1.346 4.037-2.68 6-4 1.208-0.734 2.541-1.067 4-1-0.023 7.683-0.357 15.35-1 23z" fill="#f5f7f0"/>
<path d="m225.5 263.5c1.725 0.343 2.225 1.343 1.5 3-5.228 1.147-5.728 0.147-1.5-3z" fill="#2c8ed2"/>
<path d="m279.5 265.5c-0.206-2.995 0.46-5.662 2-8 2.297 1.794 4.463 3.794 6.5 6 0.167-0.5 0.333-1 0.5-1.5-1.496-1.331-2.829-2.831-4-4.5 0.502-1.021 1.168-1.188 2-0.5 2.976 2.213 5.142 5.047 6.5 8.5l1.5-1.5c-1.109-1.813-0.442-2.646 2-2.5-0.17 1.322 0.163 2.489 1 3.5 2.31 0.497 4.643 0.663 7 0.5 0.079 1.43-0.254 2.764-1 4-3.497 1.223-6.997 1.223-10.5 0-0.95 0.522-1.784 1.189-2.5 2-2.118-1.446-4.451-2.113-7-2v-4h-4z" fill="#73b9d6"/>
<path d="m450.5 262.5c0.997-0.03 1.664 0.47 2 1.5-1.035 1.274-2.202 2.44-3.5 3.5-1.88-2.264-1.38-3.93 1.5-5z" fill="#2b8fd2"/>
<path d="m346.5 265.5c-0.643 7.65-0.977 15.317-1 23-1.373 0.157-2.707-0.01-4-0.5-3.98-3.439-8.647-5.106-14-5-1.537-1.11-2.203-2.61-2-4.5 3.943-2.978 8.277-5.478 13-7.5 2.333-1.667 4.333-3.667 6-6 0.937-0.692 1.603-0.525 2 0.5z" fill="#53945e"/>
<path d="m452.5 270.5c1.073 0.751 1.24 1.751 0.5 3-1.314 0.813-2.481 1.813-3.5 3-0.333-0.667-0.667-1.333-1-2 0.937-1.788 2.27-3.121 4-4z" fill="#288ed2"/>
<path d="m305.5 275.5c-0.333 1-1 1.667-2 2-1.624-2.858-0.957-3.525 2-2z" fill="#70b1c0"/>
<path d="m193.5 271.5v9c-0.617-0.111-1.117-0.444-1.5-1-0.167-1.333-0.333-2.667-0.5-4 0.085-1.833 0.752-3.166 2-4z" fill="#a1cbb4"/>
<path d="m484.5 272.5c1.526 0.992 2.193 2.492 2 4.5 0.193 2.008-0.474 3.508-2 4.5v-9z" fill="#a2cbb4"/>
<path d="m340.5 274.5c0.961 1.765 1.295 3.765 1 6-2.597-0.143-4.931-0.977-7-2.5 2.227-0.941 4.227-2.108 6-3.5z" fill="#eae524"/>
<path d="m225.5 272.5c0.997-0.03 1.664 0.47 2 1.5-0.944 1.477-2.277 2.477-4 3 1.46 0.811 1.793 1.645 1 2.5-2.442-0.884-3.275-2.551-2.5-5 1.302-0.585 2.469-1.251 3.5-2z" fill="#6ab0e0"/>
<path d="m451.5 280.5c0.876-0.131 1.543 0.202 2 1-1.291 1.325-2.624 2.658-4 4-0.929-1.189-1.262-2.522-1-4 1.291 0.237 2.291-0.096 3-1z" fill="#3290d3"/>
<path d="m225.5 281.5c0.997-0.03 1.664 0.47 2 1.5-1.197 1.52-2.697 2.687-4.5 3.5-0.706-2.455 0.127-4.122 2.5-5z" fill="#1e8bd1"/>
<path d="m346.5 265.5 3 7.5c-0.206 1.366-0.54 2.699-1 4 0.139 1.301 0.805 2.134 2 2.5v3c-0.565 4.649-1.065 9.316-1.5 14-5.994-3.414-12.161-6.414-18.5-9-2.074-1.014-4.074-2.014-6-3-2.97-2.598-2.637-4.598 1-6-0.203 1.89 0.463 3.39 2 4.5 5.353-0.106 10.02 1.561 14 5 1.293 0.49 2.627 0.657 4 0.5 0.023-7.683 0.357-15.35 1-23z" fill="#d1e0d3"/>
<path d="m312.5 289.5h2c-0.12 1.086-0.787 1.753-2 2-2.583-0.742-2.583-1.408 0-2z" fill="#74b5bb"/>
<path d="m350.5 282.5c2.059 5.006 3.059 10.34 3 16-2.509-1.175-5.009-1.175-7.5 0-0.833-0.333-1.667-0.667-2.5-1 1.006-0.896 1.006-1.562 0-2-1.307 1.316-2.807 2.316-4.5 3-1.964-1.932-4.131-3.599-6.5-5-0.977-1.911-1.643-3.911-2-6 6.339 2.586 12.506 5.586 18.5 9 0.435-4.684 0.935-9.351 1.5-14z" fill="#cfd32c"/>
<path d="m450.5 288.5c0.689-1.274 1.523-1.274 2.5 0 0.667 1 0.667 2 0 3-1.441 0.76-2.941 1.426-4.5 2-1.381-2.818-0.381-4.318 3-4.5-0.228-0.399-0.562-0.565-1-0.5z" fill="#4a9bd7"/>
<path d="m225.5 289.5c1.752-0.082 2.752 0.751 3 2.5-5.199 4.956-6.199 4.123-3-2.5z" fill="#3290d3"/>
<path d="m392.5 251.5c0.992 1.956 1.992 3.956 3 6-2.679 0.025-4.012 1.358-4 4 0.219 1.175-0.114 2.175-1 3-2.233 1.242-4.399 2.576-6.5 4-0.688 0.832-0.521 1.498 0.5 2 2.17-1.586 4.504-2.92 7-4 1.062-1.522 1.729-3.188 2-5l2-2c1.276 2.062 2.11 4.396 2.5 7 1.779 13.36-0.721 25.694-7.5 37-0.65 0.304-1.317 0.637-2 1-1.032-1.54-2.365-2.04-4-1.5 0.989 2.158 2.656 3.325 5 3.5-1.612 4.268-4.279 7.602-8 10-0.397-1.025-1.063-1.192-2-0.5-2.107 1.264-3.107 3.097-3 5.5-3.781-0.204-6.114 1.463-7 5-5.929 4.264-12.595 7.097-20 8.5-15.846 2.851-30.513 0.018-44-8.5-0.952-1.545-1.285-3.212-1-5 0.958-1.462 2.124-2.795 3.5-4-0.093-4.326-0.093-8.659 0-13 4.502-3.752 8.002-8.086 10.5-13 14.191 5.428 27.524 12.428 40 21 0.974-2.243 1.308-4.576 1-7 2.858 3.465 6.524 4.965 11 4.5-1.839-1.132-3.839-1.965-6-2.5-1.996-3.401-3.162-7.068-3.5-11-0.708-0.881-1.542-1.547-2.5-2v-5c1.632 0.946 3.299 1.946 5 3 0.978-0.477 1.811-1.143 2.5-2-0.202-3.16-0.868-6.16-2-9 0.718-0.951 1.551-1.117 2.5-0.5-1.211 0.893-1.211 1.726 0 2.5 3.279-2.888 6.445-5.888 9.5-9 0.782-2.757 0.282-5.257-1.5-7.5l2-2c-3.751-0.761-3.917-1.928-0.5-3.5 2.97 0.927 4.803 2.927 5.5 6 2.457-1.501 2.457-3.168 0-5 5.347-2.014 9.014-5.681 11-11z" fill="#75c2eb"/>
<path d="m378.5 289.5c1.193 0.47 1.86 1.47 2 3-1.376 3.706-2.709 3.372-4-1 0.743-0.682 1.409-1.349 2-2z" fill="#6ea282"/>
<path d="m375.5 283.5c2.258 0.275 2.592 1.275 1 3 0.525 0.692 1.192 1.192 2 1.5-0.916 0.374-1.75 0.874-2.5 1.5-0.495-1.973-0.662-3.973-0.5-6z" fill="#6d9e6a"/>
<path d="m391.5 261.5h2c-0.271 1.812-0.938 3.478-2 5-2.496 1.08-4.83 2.414-7 4-1.021-0.502-1.188-1.168-0.5-2 2.101-1.424 4.267-2.758 6.5-4 0.886-0.825 1.219-1.825 1-3z" fill="#7cb055"/>
<path d="m227.5 298.5c1.086 0.12 1.753 0.787 2 2-0.86 1.772-2.193 3.105-4 4-0.333-0.5-0.667-1-1-1.5 1.6-1.123 2.6-2.623 3-4.5z" fill="#3995d5"/>
<path d="m450.5 298.5c1.025 0.397 1.192 1.063 0.5 2-1.441 0.76-2.941 1.426-4.5 2-0.886-0.825-1.219-1.825-1-3 1.915 0.284 3.581-0.049 5-1z" fill="#1b8cd1"/>
<path d="m371.5 295.5c1.175-0.219 2.175 0.114 3 1-0.923 2.947-1.589 5.947-2 9-4.794 0.873-7.127-1.127-7-6 2.792-0.122 4.792-1.456 6-4z" fill="#81b754"/>
<path d="m390.5 303.5c0.237 1.291-0.096 2.291-1 3-2.344-0.175-4.011-1.342-5-3.5 1.635-0.54 2.968-0.04 4 1.5 0.683-0.363 1.35-0.696 2-1z" fill="#7baf59"/>
<path d="m358.5 294.5c0.958 0.453 1.792 1.119 2.5 2 0.338 3.932 1.504 7.599 3.5 11 2.161 0.535 4.161 1.368 6 2.5-4.476 0.465-8.142-1.035-11-4.5-0.224-3.679-0.558-7.346-1-11z" fill="#7aaf60"/>
<path d="m374.5 302.5h3c0.16 1.699-6e-3 3.366-0.5 5-0.667-1.333-1.333-1.333-2 0-0.494-1.634-0.66-3.301-0.5-5z" fill="#73a974"/>
<path d="m448.5 306.5c1.073 0.751 1.24 1.751 0.5 3-1.667 0.667-3.333 1.333-5 2-0.667-1-0.667-2 0-3 1.622-0.599 3.122-1.266 4.5-2z" fill="#2a8fd2"/>
<path d="m229.5 307.5c1.495-0.085 2.495 0.581 3 2-5.112 5.674-6.112 5.007-3-2z" fill="#3191d3"/>
<path d="m372.5 309.5c2.747-0.313 5.414 0.02 8 1-0.333 1-1 1.667-2 2-1.22-1.211-2.387-1.211-3.5 0-1.417-0.578-2.25-1.578-2.5-3z" fill="#6ca8a2"/>
<path d="m402.5 312.5c3.801 0.95 7.301 2.617 10.5 5 4.191-1.096 4.691 0.071 1.5 3.5-1 0.667-2 0.667-3 0-2.839-1.92-5.839-3.587-9-5-1.184-1.145-1.184-2.312 0-3.5z" fill="#1a8cd1"/>
<path d="m445.5 314.5c0.934 1.068 1.268 2.401 1 4-1.967-0.239-3.801 0.094-5.5 1-0.483-0.948-0.649-1.948-0.5-3 2.281 0.423 3.948-0.244 5-2z" fill="#3292d4"/>
<path d="m232.5 315.5c1.495-0.085 2.495 0.581 3 2-4.767 6.509-5.767 5.843-3-2z" fill="#3b96d5"/>
<path d="m381.5 316.5c-2.803 4.739-6.803 8.073-12 10 0.886-3.537 3.219-5.204 7-5-0.107-2.403 0.893-4.236 3-5.5 0.937-0.692 1.603-0.525 2 0.5z" fill="#84ba62"/>
<path d="m314.5 314.5c1.149 0.291 1.816 1.124 2 2.5-1.211 3.052-2.045 6.219-2.5 9.5-2.125 1.351-3.292 0.685-3.5-2 0.458-3.813 1.791-7.146 4-10z" fill="#81b958"/>
<path d="m399.5 317.5c4.606 1.053 8.773 3.053 12.5 6 0.333 2.667-0.667 3.333-3 2 0.667 5.416-1.167 6.249-5.5 2.5l-5.5-5.5c-0.613-1.995-0.113-3.662 1.5-5z" fill="#208ed2"/>
<path d="m236.5 324.5c0.997-0.03 1.664 0.47 2 1.5-0.77 1.775-1.937 3.275-3.5 4.5-0.393-2.216 0.107-4.216 1.5-6z" fill="#1f8bd1"/>
<path d="m442.5 323.5c1.153 0.813 1.153 1.813 0 3-2 1.333-4 1.333-6 0 1.782-1.484 3.782-2.484 6-3z" fill="#3694d4"/>
<path d="m393.5 324.5c1.967-0.239 3.801 0.094 5.5 1 0.617 0.949 0.451 1.782-0.5 2.5-1.451-0.263-2.784-0.096-4 0.5 1.26 0.882 2.426 1.882 3.5 3 0.615-1.616 1.615-2.949 3-4 1.684 1.851 3.517 3.518 5.5 5-1.133 4.31-3.8 5.81-8 4.5l-6.5-6.5c-0.748-2.34-0.248-4.34 1.5-6z" fill="#278fd3"/>
<path d="m240.5 332.5c0.997-0.03 1.664 0.47 2 1.5-0.817 1.49-1.65 2.99-2.5 4.5-0.692-0.525-1.192-1.192-1.5-2 1.13-1.122 1.797-2.456 2-4z" fill="#1b88d0"/>
<path d="m276.5 322.5c5.315-3e-3 7.315 2.664 6 8-1.052 0.149-2.052-0.017-3-0.5-0.612-1.303-0.946-2.47-1-3.5-1 0.333-1.667 1-2 2 2.779 3.984 1.779 6.984-3 9-0.886-0.825-1.219-1.825-1-3h-3c-0.299-2.104 0.034-4.104 1-6 2.354-1.688 4.354-3.688 6-6z" fill="#288fd3"/>
<path d="m432.5 332.5c2.104-0.299 4.104 0.034 6 1-1.523 1.783-3.523 2.449-6 2v-3z" fill="#2b90d3"/>
<path d="m383.5 336.5c-0.086-0.996 0.248-1.829 1-2.5h4c-1.321-1.545-0.988-2.711 1-3.5 2.971 3.308 5.971 6.641 9 10-0.387 1.22-1.22 1.887-2.5 2-5.156-2.839-5.656-2.172-1.5 2-0.333 1-1 1.667-2 2-3.051-3.379-6.051-6.712-9-10z" fill="#1d8dd2"/>
<path d="m283.5 330.5c1.699-0.16 3.366 6e-3 5 0.5 1.667 2.333 3.667 4.333 6 6-1.445 1.71-2.278 3.544-2.5 5.5 1.389-1.727 3.056-3.061 5-4 2.405 1.453 4.905 2.787 7.5 4 0.886 0.825 1.219 1.825 1 3-1.052-0.149-2.052 0.017-3 0.5-1.877 2.251-3.377 4.751-4.5 7.5-1.011 0.837-2.178 1.17-3.5 1 0.843-4.022 2.51-7.688 5-11-0.865-1.083-1.865-1.249-3-0.5-2.459 2.446-4.792 4.946-7 7.5-2.286-0.46-3.619-1.793-4-4 1.187-2.669 2.02-5.335 2.5-8-2.162 3.868-5.328 5.368-9.5 4.5-1.825-1.466-2.325-3.299-1.5-5.5 1.728-2.83 3.895-5.163 6.5-7z" fill="#238ed2"/>
<path d="m383.5 336.5c0.17 1.322-0.163 2.489-1 3.5 1.259 0.923 2.592 1.757 4 2.5-1.393 3.102-0.56 4.102 2.5 3 0.692 0.525 1.192 1.192 1.5 2-1.445 1.563-3.111 2.896-5 4-2.667-4-5.333-8-8-12 1.571-1.915 3.571-2.915 6-3z" fill="#1c8dd2"/>
<path d="m428.5 339.5c1.984-0.117 3.65 0.55 5 2-2 1.333-4 1.333-6 0 0.363-0.683 0.696-1.35 1-2z" fill="#3190d3"/>
<path d="m245.5 339.5c2.644 2.16 2.311 4.16-1 6-0.333-0.5-0.667-1-1-1.5 0.914-1.406 1.58-2.906 2-4.5z" fill="#3492d4"/>
<path d="m250.5 346.5c1.495-0.085 2.495 0.581 3 2-0.526 1.73-1.526 3.064-3 4-0.731-1.901-0.731-3.901 0-6z" fill="#2d91d3"/>
<path d="m426.5 344.5c3.299 1.401 3.632 3.235 1 5.5-1.973 0.495-3.973 0.662-6 0.5v-3c2.027 0.162 4.027-5e-3 6-0.5-0.752-0.671-1.086-1.504-1-2.5z" fill="#70b3e1"/>
<path d="m319.5 348.5c2 0.333 4 0.667 6 1v3c-3.579 0.266-3.913 1.599-1 4-0.825 0.886-1.825 1.219-3 1 0.303 3.088-1.03 4.754-4 5 0.279-4.727 0.946-9.393 2-14z" fill="#1d8dd2"/>
<path d="m372.5 341.5c1.699-0.16 3.366 6e-3 5 0.5 0.87 2.913 2.37 5.413 4.5 7.5 0.667 1.333 0.667 2.667 0 4-1.753 1.127-3.587 2.127-5.5 3-2.702-3.564-5.035-7.397-7-11.5 0.571-1.599 1.571-2.766 3-3.5z" fill="#248fd2"/>
<path d="m256.5 353.5h3c-0.085 2.429-1.085 4.429-3 6-0.731-1.901-0.731-3.901 0-6z" fill="#3492d4"/>
<path d="m416.5 353.5c2.181-0.216 3.847 0.617 5 2.5-2.079 0.808-4.079 0.641-6-0.5 0.363-0.683 0.696-1.35 1-2z" fill="#248cd1"/>
<path d="m310.5 346.5c3.74-0.82 6.073 0.513 7 4-0.527 3.081-1.36 6.081-2.5 9-4.48 3.25-6.98 2.083-7.5-3.5 0.306-3.415 1.306-6.582 3-9.5z" fill="#168bd1"/>
<path d="m312.5 349.5c0.876-0.131 1.543 0.202 2 1-4.13 10.647-4.796 10.314-2-1z" fill="#9cd3f0"/>
<path d="m362.5 345.5h4c-0.019 1.56-0.352 3.06-1 4.5 1.311 3.431 2.311 6.931 3 10.5h-4c-0.522-3.068-1.355-6.068-2.5-9-0.561-0.522-1.228-0.855-2-1-1.776 1.831-3.61 2.498-5.5 2 1.72 1.42 3.554 2.753 5.5 4 1.494 5.836-0.673 8.002-6.5 6.5-0.88-1.356-1.214-2.856-1-4.5 1.643-0.02 2.976 0.647 4 2l1-1c-1.806-2.108-3.973-3.774-6.5-5-0.667-1.333-0.667-2.667 0-4 4.056-1.301 7.89-2.967 11.5-5z" fill="#1d8dd1"/>
<path d="m328.5 350.5h4c0.333 5.333 0.667 5.333 1 0 2.266-0.359 4.099 0.308 5.5 2 1.525-1.22 3.359-1.887 5.5-2 1.667 0.333 3.333 0.667 5 1-1.353 1.024-2.02 2.357-2 4h3c-0.667 2-1.333 4-2 6h3v3h-7c0.316-3.478-0.184-6.812-1.5-10-1.237 3.56-1.737 7.227-1.5 11h-5c-1.114-5.129-1.781-5.129-2 0h-5c-3e-3 -5.027-0.336-10.027-1-15z" fill="#1f8ed2"/>
<path d="m262.5 358.5c3.64 1.602 3.973 3.935 1 7-0.974-2.243-1.308-4.576-1-7z" fill="#3f97d6"/>
<path d="m410.5 359.5c1.891 1.036 3.724 1.036 5.5 0 0.367 3.901-1.299 4.901-5 3-1.683-0.676-1.85-1.676-0.5-3z" fill="#4098d6"/>
<path d="m408.5 364.5c1.301 1.384 1.301 2.884 0 4.5-2.436 0.436-4.436-0.397-6-2.5 1.635-1.181 3.302-1.181 5 0 0.798-0.457 1.131-1.124 1-2z" fill="#499cd8"/>
<path d="m269.5 364.5c1.752-0.082 2.752 0.751 3 2.5l-1.5 4.5c-1.352-2.094-1.852-4.427-1.5-7z" fill="#2a8fd2"/>
<path d="m277.5 370.5c1.149 0.291 1.816 1.124 2 2.5-0.333 0.833-0.667 1.667-1 2.5-0.952-1.545-1.285-3.212-1-5z" fill="#0a82cd"/>
<path d="m395.5 370.5c2.429 0.085 4.429 1.085 6 3-2.812 0.893-4.812-0.107-6-3z" fill="#228cd1"/>
<path d="m285.5 374.5c1.193 0.47 1.86 1.47 2 3-0.333 1-0.667 2-1 3-0.966-1.896-1.299-3.896-1-6z" fill="#1889d0"/>
<path d="m387.5 374.5c2.772 0.095 4.772 1.429 6 4-0.865 1.083-1.865 1.249-3 0.5-1.939-0.908-2.939-2.408-3-4.5z" fill="#4199d7"/>
<path d="m292.5 379.5c0.709-0.904 1.709-1.237 3-1 0.371 7.654-0.629 7.987-3 1z" fill="#0e86cf"/>
<path d="m379.5 378.5c2.584 0.069 4.584 1.235 6 3.5-0.775 1.23-1.775 1.563-3 1-1.641-1.129-2.641-2.629-3-4.5z" fill="#3493d4"/>
<path d="m300.5 381.5c3.895 0.357 4.895 2.357 3 6-1.751-1.564-2.751-3.564-3-6z" fill="#3b98d6"/>
<path d="m371.5 381.5c2.473 0.236 4.14 1.569 5 4-1.865 1.166-3.532 0.833-5-1-1.062-0.925-1.062-1.925 0-3z" fill="#4099d6"/>
<path d="m362.5 383.5c2.478 0.695 4.478 2.195 6 4.5-3.848 0.987-5.848-0.513-6-4.5z" fill="#3c96d6"/>
<path d="m318.5 385.5c1.175-0.219 2.175 0.114 3 1 0.574 1.559 1.24 3.059 2 4.5-1.284 0.684-2.451 0.517-3.5-0.5-0.608-1.654-1.108-3.321-1.5-5z" fill="#3795d5"/>
<path d="m344.5 386.5c2.792-0.048 4.625 1.285 5.5 4 1.247-2.381 1.58-2.047 1 1-1.049 1.017-2.216 1.184-3.5 0.5-1.258-1.741-2.258-3.574-3-5.5z" fill="#479cd8"/>
<path d="m309.5 383.5c3.266-0.067 4.766 1.599 4.5 5 1.666-0.84 1.833-0.34 0.5 1.5-1.049 0.492-2.049 0.326-3-0.5-0.977-1.911-1.643-3.911-2-6z" fill="#69b1e0"/>
<path d="m335.5 387.5c3.245-0.207 5.245 1.293 6 4.5-1 0.667-2 0.667-3 0-1.248-1.4-2.248-2.9-3-4.5z" fill="#3291d3"/>
<path d="m353.5 385.5c1.052-0.149 2.052 0.017 3 0.5 0.757 1.512 1.757 2.846 3 4-3.478 0.594-5.478-0.906-6-4.5z" fill="#3292d4"/>
<path d="m327.5 386.5c2.252 0.416 3.752 1.749 4.5 4 1.281-1.147 1.614-0.813 1 1-1.049 1.017-2.216 1.184-3.5 0.5-1.762-1.762-2.428-3.595-2-5.5z" fill="#56a5db"/>
<path d="m298.5 416.5h11c-0.111 0.617-0.444 1.117-1 1.5-3 0.667-6 0.667-9 0-0.556-0.383-0.889-0.883-1-1.5z" fill="#9cc7ae"/>
<path d="m368.5 416.5h10c-1.446 1.44-3.279 2.107-5.5 2-2.008 0.193-3.508-0.474-4.5-2z" fill="#94c3a8"/>
</svg>
