<?xml version="1.0" encoding="utf-8"?>
<!-- Generator: Adobe Illustrator 22.1.0, SVG Export Plug-In . SVG Version: 6.00 Build 0)  -->
<svg version="1.1" id="Layer_1" xmlns="http://www.w3.org/2000/svg" xmlns:xlink="http://www.w3.org/1999/xlink" x="0px" y="0px"
	 viewBox="0 0 800 800" style="enable-background:new 0 0 800 800;" xml:space="preserve">
<style type="text/css">
	.st0{fill:#BF0A30;}
	.st1{fill:#FFFFFF;}
	.st2{fill:#002868;}
</style>
<rect id="Red_Background" class="st0" width="800" height="800"/>
<polygon id="White_Cross" class="st1" points="532.9,400 800,132.9 800,0 667.1,0 400,267.1 132.9,0 0,0 0,132.9 267.1,400 0,667.1 
	0,800 132.9,800 400,532.9 667.1,800 800,800 800,667.1 "/>
<path id="Blue_Cross_with_star_cutouts" class="st2" d="M800,0h-95.5L400,304.5L95.5,0H0v95.5L304.5,400L0,704.5V800h95.5L400,495.5
	L704.5,800H800v-95.5L495.5,400L800,95.5V0z M116.6,129.4l-31.2-23.7l-31.8,22.8l12.9-37L34.9,68.4l39.1,0.8L86.4,32l11.3,37.5
	l39.1,0.2l-32.2,22.3L116.6,129.4z M221.6,234.4l-31.2-23.7l-31.8,22.8l12.9-37l-31.5-23.2l39.1,0.8l12.3-37.2l11.3,37.5l39.1,0.2
	l-32.2,22.3L221.6,234.4z M294.7,315l-31.8,22.8l12.9-37l-31.5-23.2l39.1,0.8l12.3-37.2l11.3,37.5l39.1,0.2L314,301.4l11.9,37.3
	L294.7,315z M116.6,758l-31.2-23.7l-31.8,22.8l12.9-37L34.9,697l39.1,0.8l12.3-37.2l11.3,37.5l39.1,0.2l-32.2,22.3L116.6,758z
	 M221.2,653.4l-31.2-23.7l-31.8,22.8l12.9-37l-31.5-23.2l39.1,0.8l12.3-37.2l11.3,37.5l39.1,0.2l-32.2,22.3L221.2,653.4z
	 M326.2,548.4l-31.2-23.7l-31.8,22.8l12.9-37l-31.5-23.2l39.1,0.8l12.3-37.2l11.3,37.5l39.1,0.2l-32.2,22.3L326.2,548.4z
	 M702.7,697.5l12.3-37.2l11.3,37.5l39.1,0.2l-32.2,22.3l11.9,37.3L714.1,734l-31.8,22.8l12.9-37l-31.5-23.2L702.7,697.5z
	 M598.2,593.2l12.3-37.2l11.3,37.5l39.1,0.2l-32.2,22.3l11.9,37.3l-31.2-23.7l-31.8,22.8l12.9-37l-31.5-23.2L598.2,593.2z
	 M505.1,451l11.3,37.5l39.1,0.2l-32.2,22.3l11.9,37.3l-31.2-23.7l-31.8,22.8l12.9-37l-31.5-23.2l39.1,0.8L505.1,451z M535.2,338.7
	L504.1,315l-31.8,22.8l12.9-37l-31.5-23.2l39.1,0.8l12.3-37.2l11.3,37.5l39.1,0.2l-32.2,22.3L535.2,338.7z M640.1,234.4l-31.2-23.7
	l-31.8,22.8l12.9-37l-31.5-23.2l39.1,0.8l12.3-37.2l11.3,37.5l39.1,0.2l-32.2,22.3L640.1,234.4z M744.9,129l-31.2-23.7l-31.8,22.8
	l12.9-37L663.3,68l39.1,0.8l12.3-37.2L726,69.2l39.1,0.2L733,91.7L744.9,129z"/>
</svg>
