<?xml version="1.0" encoding="utf-8"?>
<!-- Generator: Adobe Illustrator 18.1.1, SVG Export Plug-In . SVG Version: 6.00 Build 0)  -->
<svg version="1.1" id="Layer_1" xmlns="http://www.w3.org/2000/svg" xmlns:xlink="http://www.w3.org/1999/xlink" x="0px" y="0px"
	 viewBox="0 0 600 400" enable-background="new 0 0 600 400" xml:space="preserve">
<path fill="#0080C8" d="M0,0h600v400H0V0z"/>
<path d="M0,200h600v200H0V200z"/>
<g>
	<g>
		<path fill="#FFCC00" d="M301.3,139.7c-1.1,15.1-2,30.2-3,45.3c-4.5-14.5-8.9-29-13.4-43.4c-1.5,0.4-2.9,0.8-4.3,1.3
			c0.4,1.3,0.8,2.6,1.1,3.9c3.9,13.2,7.7,26.5,11.5,39.7c-9.2-12.1-18.2-24.2-27.4-36.2c-1.3,0.9-2.5,1.7-3.7,2.7c0.7,1,1.5,2,2.1,3
			c8.2,11.2,16.4,22.4,24.6,33.5c-12.7-8.1-25.3-16.5-38.1-24.6c-0.9,1.2-1.7,2.5-2.5,3.8c0.8,0.5,1.5,1.1,2.3,1.7
			c11.8,7.9,23.6,15.7,35.4,23.6c-14.7-3.3-29.5-6.9-44.2-10.1c-0.4,1.5-0.7,2.9-1,4.4c1.2,0.3,2.3,0.5,3.5,0.9
			c13.5,3.3,27,6.6,40.5,9.9c-14.9,1.9-30,3.7-44.9,5.6c0.1,1.5,0.3,3,0.5,4.5c1.1-0.1,2.3-0.3,3.5-0.3c13.8-1.5,27.7-3.1,41.5-4.5
			c-13.4,6.9-26.9,13.7-40.2,20.6c0.6,1.4,1.3,2.7,2,4c0.9-0.5,1.9-0.9,2.9-1.3c12.6-6.2,25.1-12.4,37.7-18.6
			c-10.2,11.1-20.6,22-30.7,33.1c1.1,1.1,2.1,2.1,3.3,3.1c0.7-0.7,1.4-1.5,2.2-2.2c9.7-10.1,19.4-20.3,29.1-30.4
			c-5.8,13.9-11.8,27.7-17.5,41.6c1.3,0.7,2.7,1.3,4.1,1.8c0.5-1.1,1-2.3,1.6-3.4c5.5-12.6,11.1-25.2,16.7-37.8
			c-0.7,15-1.6,30-2.3,45c1.5,0.1,3,0.2,4.5,0.3c0.1-1,0.1-2,0.3-3c0.9-14,1.8-28,2.7-42c4.5,14.3,8.8,28.8,13.3,43.1
			c1.5-0.4,2.9-0.8,4.3-1.3c-0.4-1.2-0.7-2.4-1-3.7c-3.9-13.2-7.7-26.5-11.5-39.7c9.1,12,18.1,24.1,27.3,36.1
			c1.3-0.9,2.5-1.7,3.7-2.7c-0.7-0.9-1.3-1.9-1.9-2.8c-8.2-11.2-16.4-22.4-24.6-33.5c12.7,8.1,25.2,16.4,37.9,24.5
			c0.9-1.2,1.7-2.5,2.5-3.8c-0.7-0.5-1.5-1-2.1-1.5c-11.8-7.9-23.6-15.8-35.4-23.7c14.7,3.3,29.4,6.9,44.1,10.1
			c0.4-1.5,0.7-2.9,1.1-4.4c-1.1-0.3-2.3-0.5-3.5-0.9c-13.5-3.3-27-6.6-40.5-9.9c14.9-1.9,30-3.7,44.9-5.7c-0.1-1.5-0.3-3-0.5-4.5
			c-1.1,0.1-2.3,0.3-3.5,0.3c-13.8,1.5-27.7,3-41.5,4.5c13.4-6.9,26.9-13.7,40.3-20.7c-0.6-1.4-1.3-2.7-2-4.1c-1,0.5-1.9,1-3,1.4
			c-12.6,6.2-25.1,12.4-37.7,18.6c10.3-11.1,20.7-22.1,30.9-33.3c-1.1-1.1-2.1-2.1-3.3-3.1c-0.7,0.7-1.3,1.4-2.1,2.1
			c-9.8,10.2-19.6,20.4-29.3,30.7c5.8-14,11.9-27.9,17.7-41.9c-1.3-0.7-2.7-1.3-4.1-1.8c-0.5,1.3-1.1,2.5-1.7,3.7
			c-5.5,12.6-11.1,25.2-16.6,37.8c0.7-15.1,1.6-30.2,2.3-45.3C304.4,139.9,302.9,139.7,301.3,139.7L301.3,139.7z"/>
		<path fill="#FFCC00" d="M292.4,149.2c1.4,12.9,2.9,25.7,4.3,38.5c-6-11.5-11.8-23.1-17.8-34.5c-1.2,0.5-2.3,1.1-3.5,1.7
			c0.5,1.1,1.1,2.1,1.5,3.1c5.2,10.5,10.5,21.1,15.7,31.6c-9.5-8.7-18.9-17.7-28.5-26.3c-0.9,0.9-1.8,1.9-2.7,2.8
			c0.8,0.7,1.5,1.5,2.2,2.2c8.6,8.2,17.1,16.3,25.7,24.5c-11.9-4.9-23.7-10.1-35.7-14.9c-0.5,1.1-1.1,2.3-1.5,3.5
			c0.7,0.3,1.5,0.7,2.2,1.1c11.1,4.9,22.2,9.7,33.3,14.5c-12.9-0.5-25.8-1.3-38.7-1.9c-0.1,1.3-0.2,2.5-0.2,3.8
			c1,0.1,2.1,0.1,3.1,0.3c11.9,0.7,23.7,1.5,35.5,2.3c-12.3,3.9-24.7,7.5-36.9,11.5c0.3,1.3,0.7,2.5,1.1,3.7
			c0.9-0.3,1.9-0.5,2.9-0.8c11.4-3.3,22.8-6.7,34.2-10.1c-10.2,7.8-20.5,15.5-30.7,23.3c0.7,1.1,1.5,2.1,2.3,3.1
			c0.7-0.5,1.5-1.1,2.2-1.5c9.7-7.1,19.3-14.2,28.9-21.3c-6.9,10.8-14,21.6-20.9,32.5c1.1,0.7,2.1,1.5,3.2,2.1
			c0.5-0.7,1-1.5,1.5-2.1c6.6-9.9,13.3-19.9,19.9-29.9c-2.8,12.5-5.7,25.1-8.5,37.6c1.3,0.3,2.5,0.7,3.8,0.9
			c0.2-1.1,0.5-2.1,0.8-3.1c2.8-11.4,5.5-22.9,8.3-34.3c1.7,12.7,3.2,25.5,4.9,38.2c1.3-0.1,2.5-0.3,3.9-0.5
			c-0.1-0.9-0.2-1.7-0.2-2.5c-1.3-11.9-2.7-23.8-4-35.7c5.9,11.4,11.7,22.9,17.7,34.3c1.2-0.5,2.3-1.1,3.5-1.7
			c-0.5-0.9-1-1.9-1.4-2.9c-5.2-10.5-10.5-21.1-15.7-31.6c9.5,8.7,18.8,17.5,28.3,26.2c0.9-0.9,1.8-1.9,2.7-2.8
			c-0.7-0.7-1.4-1.3-2.1-2.1c-8.6-8.2-17.1-16.3-25.7-24.5c11.9,4.9,23.7,10,35.5,14.9c0.5-1.1,1.1-2.3,1.5-3.5
			c-0.7-0.3-1.4-0.6-2.1-1c-11.1-4.9-22.2-9.7-33.3-14.6c12.9,0.6,25.7,1.3,38.6,1.9c0.1-1.3,0.2-2.5,0.2-3.8c-1-0.1-2-0.1-3-0.3
			c-11.9-0.7-23.7-1.5-35.5-2.3c12.3-3.9,24.7-7.5,36.9-11.5c-0.3-1.3-0.7-2.5-1.1-3.7c-0.9,0.3-1.9,0.6-2.9,0.8
			c-11.4,3.3-22.8,6.7-34.2,10.1c10.3-7.9,20.6-15.5,30.8-23.4c-0.7-1.1-1.5-2.1-2.3-3.1c-0.7,0.6-1.5,1.1-2.3,1.6
			c-9.7,7.1-19.3,14.2-28.9,21.3c7-10.9,14.1-21.7,21-32.6c-1.1-0.7-2.1-1.5-3.2-2.1c-0.5,0.7-0.9,1.4-1.5,2.1
			c-6.7,10.1-13.4,20.1-20.1,30.1c2.8-12.6,5.8-25.2,8.5-37.9c-1.3-0.3-2.5-0.7-3.7-0.9c-0.3,1.1-0.5,2.2-0.9,3.3
			c-2.8,11.4-5.5,22.9-8.3,34.3c-1.7-12.8-3.2-25.6-4.9-38.4C295,148.9,293.7,149,292.4,149.2L292.4,149.2z"/>
	</g>
	<path fill="#FFCC00" d="M343.9,200c0,24.3-19.7,43.9-43.9,43.9s-43.9-19.7-43.9-43.9s19.7-43.9,43.9-43.9S343.9,175.7,343.9,200z"
		/>
</g>
<path fill="#FFFFFF" d="M220.5,169.3l70.9,44.8l-3.2-15.2l32.2,18.5l-15.5,3.8l59.4,29.3l-22.8-21.4l13.7-1.7L270,177.6l3.8,12
	l-24.6-15.5l17.5-2.3l-48-27.5l16.7,24.3L220.5,169.3L220.5,169.3z"/>
</svg>
