<?xml version="1.0" encoding="UTF-8"?>
<svg version="1.1" viewBox="0 0 500 300" xmlns="http://www.w3.org/2000/svg" xmlns:cc="http://creativecommons.org/ns#" xmlns:dc="http://purl.org/dc/elements/1.1/" xmlns:rdf="http://www.w3.org/1999/02/22-rdf-syntax-ns#">
<metadata>
<rdf:RDF>
<cc:Work rdf:about="">
<dc:format>image/svg+xml</dc:format>
<dc:type rdf:resource="http://purl.org/dc/dcmitype/StillImage"/>
<dc:title/>
</cc:Work>
</rdf:RDF>
</metadata>
<g transform="translate(0 -752.36)">
<rect x="-.22982" y="751.58" width="501.76" height="302.82" fill="#fc0" stroke="#c6c9ce" stroke-linecap="round" stroke-width=".37789"/>
<g transform="matrix(.29262 0 0 .27052 179.99 689.73)">
<path d="m220.02 1023.7c-4.9667-3.3708-15.762-11.458-17.612-13.194-0.29384-0.2758 1.2124-0.3067 4.0039-0.082 2.4612 0.1979 12.283 0.4893 21.826 0.6475l17.351 0.2877-4.1615 3.3258c-11.144 8.9065-16.823 12.218-21.407 9.0155z" fill="#c6c9ce" stroke="#c6c9ce" stroke-linecap="round" stroke-width="1.442"/>
<path d="m331.18 523.21c-34.528 2.3983-64.925 10.881-94.084 9.6564-6.2998-0.0513-12.657-0.27845-19.097-0.68751-29.797-1.8925-61.043-7.285-92.37-8.0627-50.88 1.7187-65.213 10.632-73.584 29.376-8.9677 20.369-3.179 46.981-0.03091 71.315 4.3203 22.613 0.41731 41.252-6.7292 61.939-8.612 26.115-6.5144 95.029 5.5142 133.97 28.517 88.55 90.94 173.34 167.23 223.19 5.4406 3.0052 11.269 1.3923 21.683-6.0001 76.996-55.308 156.04-155.17 170.16-269.91 3.4474-27.936 2.877-58.136-3.3646-89.346-4.2974-21.313-9.6155-34.787-3.1776-58.939 3.2702-15.787 4.852-31.37 2.8254-47.566-4.1332-32.448-47.647-48.298-74.977-48.937zm-17.726 401.73c0.33095-0.0977 0.60539 0.2261 0.28042 0.62501-0.0488 0.0597-0.10838 0.0954-0.15583 0.15626 0.0408-5e-3 0.0837 3e-3 0.12461 0 0.68259-0.0563 0.80662 0.62536 0.12463 0.68751-0.25532 0.0233-0.5198 0.11246-0.77889 0.0936-0.0447-3e-3 -0.0807-0.0217-0.12461-0.0312-0.0549-0.012-0.0957-0.0254-0.0619 0-0.0209 8.4e-4 -0.0418-5.4e-4 -0.0627 0-0.0659 0.0589-0.12371 0.12621-0.18682 0.1875-0.22131 0.21459-0.40962 0.40818-0.65429 0.59377-0.0827 0.063-0.16079 0.10098-0.24922 0.15627-0.34543 0.17343-0.68607 0.34316-0.77888-0.28128-0.014-0.092 0.0868-0.1651 0.12462-0.24999 0.13546-0.1016 0.18272-0.33124 0.34273-0.40627 0.018-9e-3 0.0428 5e-3 0.0618 0-0.58071-0.0648-0.5554-0.68753 0.0937-0.68753h0.0308c0.2302-2.5e-4 0.45507-2e-3 0.68538 0 0.0308 2.9e-4 0.0628 1e-3 0.0937 0 0.0408-0.0566 0.0766-0.10627 0.12458-0.15625 0.053-0.0553 0.12891-0.1059 0.18683-0.15625 0.20857-0.062 0.25771-0.10333 0.31165-0.0937 0.0539-0.0613 0.10276-0.12533 0.15571-0.18749 0.11125-0.13058 0.20117-0.21745 0.31153-0.25z" fill="#fff" stroke="#000" stroke-width="9.8588"/>
<path d="m223.24 1025c-0.65596-0.091-1.5288-0.377-2.233-0.733-0.88699-0.4483-6.094-4.1562-10.656-7.588-2.6323-1.9803-4.8648-3.7122-7.2613-5.6331l-1.6094-1.2901 0.54956 0.051c1.3225 0.1228 6.3364 0.4544 9.0521 0.5987 8.8857 0.4722 20.642 0.695 30.124 0.5709 3.1953-0.042 5.8201-0.069 5.8329-0.06 0.0128 0.01-1.0824 0.8974-2.4338 1.974-6.7209 5.3544-9.4801 7.402-12.308 9.1333-3.7998 2.3268-6.7461 3.2948-9.0574 2.9759v0z" fill="#c6c9ce" stroke="#c6c9ce" stroke-linecap="round" stroke-width=".413"/>
<path d="m211.33 803.19c-3.6157-3.7824-4.3346-5.2407-5.0564-10.258-0.3184-2.2125-1.6649-7.4219-2.9924-11.576-2.0597-6.4465-2.9755-8.1159-6.2477-11.388-3.9031-3.9031-5.6728-8.1357-5.6728-13.567 0-3.3443-1.9002-8.8145-6.0343-17.371-3.0444-6.3014-4.7325-8.5064-13.012-16.997-5.2328-5.3661-10.289-10.155-11.237-10.642-1.4474-0.74355-2.2045-0.50218-4.7366 1.5101-1.6577 1.3173-3.6507 2.3951-4.429 2.3951-1.8437 0-6.2381-5.041-8.1375-9.3348-0.8695-1.9656-4.5509-6.414-8.788-10.619-5.9706-5.9253-7.9618-7.4052-10.99-8.1676-2.8096-0.70745-5.0677-2.2327-9.3989-6.3486-7.7172-7.3336-7.4632-7.1807-14.216-8.5602-9.8283-2.0077-23.475-5.4088-25.555-6.866-1.899-1.3301-1.134-0.31179-1.2354-11.043-0.083-8.8129 0.29474-15.633-2.4647-32.641-2.9223-18.013-3.7423-22.917-3.7906-33.113-0.047-9.833 0.77327-15.634 2.0101-19.239 6.6707-19.446 23.219-23.699 66.906-25.121 13.17-0.4288 15.538-0.28657 26.147 1.5704 43.726 7.6535 96.767 7.4638 131.94-0.47189 13.547-3.0562 41.237-2.2901 55.512 1.5359 21.837 5.8527 33.935 17.872 36.275 36.037 1.486 11.536 0.034 23.782-5.6408 47.587-3.7937 15.912-4.1509 22.929-1.7567 34.512 0.8231 3.9824 1.3973 7.3544 1.2759 7.4933-0.2207 0.25252-1.9215-0.0724-15.005-2.8663l-6.9755-1.4897-3.833 1.8499c-2.1081 1.0174-4.5807 2.5499-5.4946 3.4054s-3.2908 2.2536-5.282 3.1067c-3.7484 1.606-7.2977 5.0596-13.962 13.586-3.9464 5.0488-6.7185 6.8994-11.783 7.866-4.8263 0.92114-6.8846 2.0301-8.3397 4.4936-0.9633 1.6306-2.041 2.3795-3.4244 2.3795-4.43 0-6.257 2.4331-15.691 20.897-5.121 10.022-7.3819 12.887-16.841 21.341-4.392 3.9252-7.595 9.4803-12.881 22.34-2.2196 5.3998-4.873 11.271-5.8964 13.048-1.0234 1.7764-2.4984 4.9317-3.2777 7.0119-1.9524 5.2107-3.8603 6.8602-6.377 5.5133-1.053-0.56358-2.3089-1.89-2.7908-2.9476-0.4818-1.0576-1.2451-1.9229-1.696-1.9229-1.0237 0-7.7844 4.7707-13.942 9.8381-5.2226 4.298-8.6031 6.2525-10.814 6.2525-0.8171 0-2.7835-1.3576-4.3697-3.017z" fill="#646ea4" stroke="#646ea4" stroke-linecap="round" stroke-width="3.218"/>
<g transform="matrix(5.4421 0 0 5.7498 74.659 550.1)">
<g fill="#ffe600" stroke="#000">
<path d="m0.73199 0.42979c0.86321-0.70408 1.8028-0.77835 3.932-1.3912 1.3517-0.38902 2.0737-0.45631 3.2228-0.40905l20.113 14.87 19.917-14.801c2.6148 0.040009 4.7611 0.68058 6.6813 2.127l-54.598 27.174h8.4l19.6-13.5 19.6 13.5h8.4zm56.442 10.564-1.1738 5.8057-56-5.6-1.0923-0.0823c0.086389 1.9419 0.25245 3.8837 0.73909 5.8256zm-31.974-10.994 2.8 12 2.8-12zm-1.48 45.71 4.28-29.71 4.3857 28.209z" stroke-width=".35754"/>
<circle cx="28" cy="14" r="4.5" d="m 32.5,14 c 0,2.485281 -2.014719,4.5 -4.5,4.5 -2.485281,0 -4.5,-2.014719 -4.5,-4.5 0,-2.485281 2.014719,-4.5 4.5,-4.5 2.485281,0 4.5,2.014719 4.5,4.5 z"/>
</g>
</g>
<path d="m156.23 883.45c-86.884 59.176-62.311-3.9868-42.101-19.409 1.429-1.0905 5.5058-9.2442 3.7238-16.948-1.6114-6.9655 17.152-16.803 10.122-17.401-3.9753-0.33823 8.5748-12.961 5.692-17.186-6.4911-9.5125-12.239-12.652-23.163-12.652h-9.5709l-5.449-7.9118c-2.997-4.3515-6.0238-7.5566-6.7263-7.1224-2.2903 1.4155-1.3632 3.5124 3.864 8.7397 2.8278 2.8277 4.9359 5.3112 4.6849 5.5189-0.2511 0.20768-4.1858 0.74456-8.7438 1.1931-7.7821 0.76576-8.3385 0.61152-9.127-2.5303-0.4619-1.8402 0.294-7.3864 1.6797-12.325 1.8987-6.7669 3.9393-10.344 8.2819-14.516 5.8626-5.6333 13.36-9.9661 17.246-9.9661 3.0204 0 4.1793 3.9172 2.1298 7.1989-0.9481 1.5182-1.2465 3.2378-0.663 3.8213 1.8035 1.8035 5.6771-3.3382 5.6771-7.5357 0-5.7228-3.9766-8.0918-11.651-6.941-7.1743 1.0758-7.2023 1.3378 1.2931-12.058 10.538-16.618 3.9332-34.568-9.6345-26.183-4.8968 3.0264-8.6976 8.0822-7.201 9.5789 0.4341 0.43401 3.1115-1.2499 5.9499-3.742 4.0744-3.5774 5.7177-4.233 7.807-3.1149 7.7101 4.1263 4.9788 17.396-6.1811 30.031-12.25 13.869-18.222 28.148-18.222 43.573 0 9.0643-0.282 10.058-2.8555 10.058-3.2497 0-3.2594-0.0318-6.7472-22.343-1.4845-9.4956-2.5096-24.53-2.5556-37.479l-0.077-21.622 3.1703-24.026c1.5309-11.602 5.2717-23.874 5.8259-27.045 1.4087-8.0601 6.9279-3.1327 13.722-0.0484 3.3516 1.5215 8.382 2.7805 11.179 2.798 6.0347 0.0376 10.718 3.0014 13.625 8.6231 1.8617 3.6 1.8607 4.3039-0.01 5.855-1.6762 1.3911-2.5804 1.3844-4.2865-0.0315-1.8192-1.5098-2.1588-1.2519-2.1402 1.6254 0.012 1.8809 0.6334 4.3868 1.3805 5.5685 1.1957 1.8913 1.8407 1.8676 5.3836-0.1971 2.2138-1.2902 6.6902-2.7851 9.9476-3.3221 5.7013-0.93981 6.1438-0.72508 11.838 5.7443 11.439 12.996 16.71 25.801 8.4128 20.441-1.7104-1.105-5.2387-2.4255-7.8406-2.9344-4.1458-0.81094-4.9033-0.47149-6.1264 2.7454-0.7675 2.0189-1.3956 5.0472-1.3956 6.7296 0 2.959 0.1294 2.9377 3.9641-0.6535 3.206-3.0023 4.553-3.4394 7.0431-2.285 1.6934 0.78502 3.8174 3.0482 4.72 5.0293l1.6412 3.602 17.948-15.69 3.0235 3.7356c4.7307 5.8448 6.5593 9.9205 4.9087 10.941-2.5765 1.5923-1.6699 5.4546 1.0772 4.5893 9.4892-2.9891 8.7769-3.3066 12.774 5.6947 4.305 9.6948 6.0457 23.055 3.5993 27.626-1.8429 3.4435-5.3641 2.8813-6.6137-1.056-0.9555-3.0103-13.236-12.144-14.203-10.564-0.3706 0.60547-1.1457 4.9929-1.7224 9.7498-0.5766 4.7569-1.9756 10.472-3.1088 12.7-1.1333 2.2279-1.8615 6.4443-1.6183 9.3697l0.4422 5.3189 2.7574-4.0693c1.5165-2.2381 3.3341-7.7518 4.0391-12.253s1.7849-8.6878 2.3999-9.3044c0.6149-0.61656 3.6623 0.90345 6.772 3.3778 5.062 4.0277 6.352 4.4066 12.319 3.6182 5.8694-0.77554 6.9111-0.49057 8.7302 2.3882 1.9344 3.0611 5.4104 14.045 8.1055 25.612 0.8435 3.6203 2.0642 5.1749 4.3221 5.5044 2.5118 0.36649 3.7313 2.4024 6.044 10.09 4.5155 15.011 5.7719 23.326 3.5245 23.326-16.589-12.155 19.831 26.609-6.3693 16.254-3.0983 3.0071-10.658 11.057-10.658 11.747 0 2.6416-6.709-12.306-8.9641-15.748-3.6023-5.4977 6.3092 10.54 6.3092 19.146 0 4.3137-9.6114 5.9521-10.509 6.5068-0.9375 0.5794-10.183-21.226-8.8638-17.162 25.839 79.605-3.258-3.7389-4.887-5.6083l0.3925 7.9282 6.5897 17.643-11.344 6.9397c-5.9391 3.6333-10.622-15.563-12.821-7.3406l-0.9731 3.6384-0.9606-3.593v0zm14.856-35.448c0-0.92311-8.5695-9.2273-9.5221-9.2273-0.9639 0-0.6332 2.5246 0.8375 6.3929 0.9967 2.6216 2.4649 3.6976 5.0452 3.6976 2.0017 0 3.6394-0.38843 3.6394-0.86315zm2.1513-21.835c-8.7685-16.213-15.125-21.582-15.125-12.775 0 2.0476 2.0285 4.921 5.4056 7.6575 2.9731 2.409 7.3516 7.6668 9.7301 11.684 6.247 10.551 6.2377 4.9876-0.011-6.5664zm28.091 4.0158c3.562-6.9822 4.2635-22.863 0.8085-18.304-1.1067 1.4606-2.448 5.2351-2.9806 8.3878-0.7749 4.5861-1.4442 5.5356-3.3476 4.7488-7.0702-2.9226-7.288-2.6961-4.0326 4.1937 1.7022 3.6026 3.8926 6.5798 4.8675 6.616s3.0831-2.503 4.6848-5.6427zm-60.805-56.226c-0.3636-4.3193-0.9226-5.0426-3.6722-4.7515-2.3089 0.24445-3.2434-0.418-3.2434-2.2992 0-1.4534-1.2973-3.8167-2.883-5.2516-1.5856-1.435-2.883-3.8059-2.883-5.2686 0-3.7908-5.2326-3.3968-7.7535 0.58379-1.1296 1.7838-2.5124 5.4377-3.0727 8.1196-1.018 4.8722-1.016 4.8743 2.3414 2.5226 5.2455-3.6741 6.9272-2.8907 10.542 4.911 1.8512 3.9956 4.5502 8.5734 5.9977 10.173l2.632 2.9083 1.2119-3.2762c0.6666-1.8019 1.019-5.5689 0.7831-8.3711zm-13.484-34.966c2.4694-3.5255 3.0002-8.3282 0.9204-8.3282-4.034 0-5.8838 2.0878-5.8838 6.641 0 5.6533 1.7652 6.2534 4.9634 1.6873zm-53.298-2.1785c0.544-2.1674 3.1919-8.7086 5.8843-14.536 4.6001-9.9563 4.7926-10.979 3.1928-16.961-0.9365-3.5012-2.177-6.3657-2.7568-6.3657s-1.492 2.919-2.027 6.4867c-0.7106 4.7392-1.6276 6.4867-3.4037 6.4867-4.1703 0-5.7814 2.7662-4.2199 7.2455 1.0573 3.0328 0.8517 5.1269-0.821 8.3614-1.7576 3.3989-1.9017 5.261-0.6788 8.7691 1.9175 5.5006 3.5352 5.6724 4.8301 0.51316zm33.919-29.366c0-2.6721-1.4527-6.2032-3.6037-8.7596-1.9821-2.3555-3.6038-5.5304-3.6038-7.0552 0-1.5468-0.9908-2.7724-2.2412-2.7724-1.7744 0-2.1497 1.4262-1.8018 6.8471 0.3652 5.6927 0.9165 6.8477 3.2694 6.8509 1.9544 3e-3 3.2456 1.4522 4.1727 4.6848 1.7026 5.9369 3.8084 6.0498 3.8084 0.2043z" fill="#c6c9ce" stroke="#c6c9ce" stroke-linecap="round" stroke-width="4.3245"/>
<path d="m363.77 674.52c-2.2636 0.0339-4.4235 0.37495-6.1562 0.96875-2.7576 0.94504-12.952 5.8163-15.656 7.5-3.2359 2.0145-4.2324 3.0898-7.9376 8.5-5.0562 7.3836-7.8188 9.5938-12.125 9.5938-4.5806 0-7.7086 1.5392-8.2187 4.0625-0.2465 1.2194-0.1649 1.4034 1.3125 2.125 2.2947 1.1208 2.3216 2.2868 0.062 5.6562-0.9995 1.4908-2.1698 2.796-2.5937 2.875-0.4887 0.091-1.7394-0.80707-3.4376-2.4375-3.563-3.4215-4.163-3.3933-6.3124 0.28125-0.9126 1.5599-3.0596 4.697-4.75 6.9688-6.1358 8.2443-9.4376 16.038-9.4376 22.219 0 5.2841 2.0983 12.75 3.5938 12.75 0.7661 0 3.1307-2.9268 3.4062-4.2188 0.1241-0.58108 0.6859-2.6102 1.25-4.5 0.5645-1.8898 1.2332-5.2898 1.4688-7.5625 0.4502-4.3417 0.9399-5.6146 1.9062-4.8125 0.7183 0.5962 0.9711 1.7754 1.4376 7.2812 0.2122 2.509 0.6237 4.8471 0.9062 5.1875s1.2477 0.72972 2.1562 0.875c0.9087 0.14528 1.5983 0.42824 1.5313 0.625s-2.1029 2.8162-4.5313 5.8438c-6.1132 7.6224-7.7208 8.3311-11.687 5.1875-2.0226-1.6027-3.5551-3.9225-4.0313-6.0938-0.22-1.0026-1.0793-2.8198-1.9063-4.0312l-1.5-2.1875-3.6874 1.8438c-4.5654 2.2928-5.9208 3.7962-7.1563 7.875-1.9421 6.411-3.146 9.2564-4.75 11.406-3.7255 4.9933-4.333 12.092-1.1875 13.719 0.8741 0.45203 1.2032 0.89606 1.0312 1.3438-0.4038 1.0528 0.5892 1.8125 2.3438 1.8125 1.8049 0 2.2315-0.49747 2.7188-3.0938 0.1683-0.89773 0.6421-1.7583 1.0937-2 0.4394-0.23519 1.4577-1.7392 2.25-3.3125 1.7821-3.5389 2.5397-4.2728 3.4687-3.3438 0.8062 0.80609 1.9045 5.2413 1.6563 6.6875-0.1 0.58108-0.3012 1.7233-0.4375 2.5625-0.1618 0.99611-0.8392 2.1295-1.9375 3.25-0.9253 0.94394-1.6875 2.0278-1.6875 2.4062 0 1.5467-1.2619 3.1544-2.8438 3.5938-2.5125 0.69777-3.559 0.50141-4.9374-0.8125-1.7978-1.7135-9.5607-5.5312-11.25-5.5312-1.086 0-1.7759 2.7809-3.375 13.781-0.9188 6.3189-1.3803 9.9788-1.4376 12.25-16.44-6.4523-28.127-9.8752-24.562-6.25-7.2367-0.94485-10.127 2.2867-10.656 7.0938-0.3225 2.9314 0.2408 6.4425 1.2187 9.9375l5.3438 118.69c7.2951 8.8538 71.155-2.3716 102.09-13.938 9.5145-3.557 15.906-7.1367 16.594-10.188 2.486 1.1521 28.4-54.054 27.261-36.331-0.21011 3.2694 0.0335 0.39217-0.0668 0.37021-7.4658-1.6352-10.108-18.927-5.2713-20.819 14.512-38.272-56.417-38.157-32.298-53.783 6.793-2.1815 8.016-2.4066 14.469-2.3438l6.2188 0.0625 1.2812-1.8438c1.7209-2.501 6.3792-7.1467 7.9688-7.9688 1.04-0.53784 1.4783-0.58179 2.3438-0.1875 1.5993 0.72871 1.3398 1.487-0.9063 2.4688-1.3412 0.58626-3.1141 2.0225-5.3125 4.3438l-3.2812 3.4688 5.1874 0.34375c6.2365 0.40905 11.526 0.16234 12.438-0.59375 0.5404-0.44834 0.6197-1.2296 0.4687-4.1562-0.1475-2.8561-0.6091-4.8984-2.2187-9.7188-1.7083-5.1148-2.4757-6.7587-4.875-10.344-4.9629-7.4151-11.848-14.016-16.969-16.281-4.1138-1.8197-8.7242-1.5303-10.469 0.6875-1.6369 2.0811-0.8115 5.6985 1.6563 7.1562 1.8072 1.0675 1.7254 2.5445-0.1875 3.3438-1.8603 0.77731-3.3102 0.27108-4.4062-1.5312-1.1861-1.9501-1.4351-4.4539-0.6876-6.9688 1.3052-4.3894 4.3105-6.5397 9.5626-6.8438 3.9967-0.23138 5.7176 0.33804 9.0624 3.0625 2.5328 2.0629 3.8282 2.5759 5.5 2.1562l1.0938-0.28125-0.9062-1.4688c-1.2132-1.9626-1.8509-10.738-1.5313-21.094 0.2339-7.582 0.5025-9.9375 1.125-9.9375 0.702 0 0.8246 1.7134 1.0625 13.438 0.2624 12.936 0.5528 15.537 1.9062 17.438 0.4712 0.66144 1.1964 2.2082 1.625 3.4375 0.9245 2.6495 4.8618 9.5023 7 12.188 0.8332 1.046 1.7067 2.6328 1.9376 3.5625 0.2305 0.92973 1.0497 3.0292 1.8437 4.6562 1.7238 3.5325 1.7904 3.7548 2.5625 11.906 0.4457 4.705 0.832 6.8914 1.5 8.3125 1.0824 2.3028 4.2016 5.7812 5.1875 5.7812 1.5084 0-0.91447-0.82685 2.0663-18.594 0.60729-3.6198-0.0965-11.59 2.7904-23.907 1.5899-6.7836 2.3518-9.0224 1.612-9.8428-0.4427-0.49118-1.0705-0.90625-1.375-0.90625-0.7986 0-1.4062-1.3841-1.4062-3.1562 0-2.0925 0.6013-3.0716 2.125-3.4062 2.4803-0.54477 2.6839-1.4203 2.375-10.25-0.3009-8.6017-1.311-17.513-2.9688-26.094-0.5836-3.0216-1.1878-6.4316-1.3437-7.5938-0.1558-1.1622-0.9197-4.122-1.6875-6.5625-0.7679-2.4406-1.5303-5.2541-1.6875-6.25-0.4103-2.6011-1.9786-4.2932-3.9375-4.2812-1.8288 0.0111-2.956 0.82135-4.4375 3.2188-1.4721 2.3821-1.8981 2.5227-2.2187 0.8125-0.4127-2.1987 0.066-3.0283 3.7187-6.9062 2.3123-2.4548 3.273-3.7832 3.0937-4.25-0.1431-0.37306-0.3795-1.5373-0.5-2.5938-0.4079-3.5857-0.435-3.6371-3-4.7812-1.3403-0.598-4.0555-1.527-6.0312-2.0312-2.1017-0.53645-4.4549-0.78386-6.7188-0.75zm19.938 70.938c0.5993 0 1.7436 2.2104 2.1874 4.2812 0.3161 1.4743-0.1545 1.7382-1.375 0.75-0.5382-0.43597-1.6762-0.90533-2.5312-1.0625-1.8079-0.3323-2.2855-0.87838-1.7188-1.9375 0.4386-0.81943 2.4804-2.0312 3.4376-2.0312zm-123.22 65.562c0.8898-0.0322 1.6593 0.0281 2 0.21875 0.6035 0.33771 0.447 0.53194-0.9375 1.1562-0.9032 0.40732-1.9533 1.2763-2.3437 1.9375-1.2702-0.52105-2.4882-1.0067-3.7188-1.5 0.3564-0.45051 0.7391-0.83705 1-1 0.7123-0.44486 2.517-0.75878 4-0.8125z" fill="#c6c9ce" stroke="#c6c9ce" stroke-linecap="round" stroke-width="1.968"/>
<path d="m61.837 985.46c-5.0282-2.386-22.32-12.754-24.471-14.673-0.3659-0.32635-0.8642-0.59884-1.1073-0.60552-1.3648-0.0375-4.6783-1.8982-7.7775-4.3673-4.6579-3.711-21.038-19.77-21.038-20.626 0-0.61155 1.3571-2.132 9.6268-10.786 7.5997-7.9528 9.0357-9.6297 10.21-11.922 1.2663-2.4729 1.4914-4.3633 1.7512-14.707 0.2728-10.86 0.511-16.305 0.7394-16.9 0.085-0.22048 0.2657-0.40087 0.4025-0.40087s1.8652 1.5509 3.8409 3.4465 4.3729 3.9735 5.3271 4.6176c2.6534 1.791 4.2967 3.2573 5.6129 5.0082 1.9236 2.5589 1.9955 3.0318 1.0142 6.6669-0.4599 1.7036-0.9148 3.7204-1.0108 4.4816-0.1042 0.82677-0.8362 2.7772-1.8178 4.8442-0.9649 2.0317-1.761 4.1458-1.9283 5.121-0.1567 0.91347-0.4179 2.4082-0.5805 3.3217-0.1625 0.91347-0.8965 3.2179-1.6309 5.121-0.7345 1.9031-1.4806 4.2698-1.6579 5.2594-0.7369 4.1125-1.4101 6.4795-2.6498 9.318-1.67 3.8234-1.7432 4.9336-0.4158 6.3034 0.5388 0.55601 1.3409 1.0546 1.8504 1.1502 1.1202 0.21016 1.6307 0.76854 2.0118 2.2005 0.4743 1.7827 2.1738 4.3031 5.1518 7.6406 4.1433 4.6434 17.116 17.512 19.576 19.419 1.1844 0.91808 2.1534 1.7114 2.1534 1.7629 0 0.35489-1.7982-0.0377-3.1833-0.69492v0z" fill="#c82c28" stroke="#c82c28" stroke-linecap="round" stroke-width="1.645"/>
<path d="m67.208 981.16c-2.6149-2.2476-11.275-11.066-13.358-13.602-1.9531-2.3776-1.6172-2.6219 1.4512-1.0553 1.1591 0.59178 3.5107 1.792 5.2258 2.6671s4.0249 1.8177 5.133 2.0946c2.2473 0.56161 2.5338 0.69453 5.1646 2.3964 1.0197 0.65962 2.5289 1.3703 3.3537 1.5793 1.167 0.29564 1.4998 0.49873 1.4998 0.9151 0 0.38081-0.3193 0.63714-1.1072 0.88889-1.3078 0.41783-1.8505 1.0113-2.9681 3.2463-0.9262 1.8521-1.5226 2.6305-2.0152 2.6305-0.1815 0-1.2521-0.79259-2.3791-1.7613z" fill="#c82c28" stroke="#c82c28" stroke-linecap="round" stroke-width="2.535"/>
<path d="m140.59 541.59c-49.145 0.99828-65.221 7.224-72.911 25.219-7.9872 18.968 0.25396 46.025 3.0584 68.685 3.8492 21.058 0.10192 38.421-6.2655 57.685-7.6728 24.319-5.5235 88.481 5.1934 124.75 25.407 82.46 81.01 161.44 148.98 207.87 4.8473 2.7983 10.019 1.2906 19.297-5.5935 68.599-51.504 139.05-144.51 151.63-251.37 3.831-32.448 2.0579-68.164-8.1034-104.9-2.7137-13.755-2.551-15.804 2.617-35.217 3.5697-13.468 8.213-34.771 4.099-53.498-2.4811-7.8959-8.3158-15.888-15.387-21.093-9.5864-7.0336-22.007-10.538-34.621-11.937-5.2042-0.72921-9.3248-1.1246-14.884-1.2546-74.741 12.628-126.85 9.2943-182.71 0.65971zm174.64 384.89c0.33498-0.0977 0.61275 0.2261 0.28382 0.62497-0.0494 0.0597-0.10967 0.0955-0.1577 0.15625 0.0414-5e-3 0.0848 3e-3 0.12612 0 0.69086-0.0563 0.81637 0.62531 0.12613 0.68747-0.25841 0.0233-0.52609 0.11245-0.78833 0.0937-0.0454-3e-3 -0.0817-0.0217-0.12612-0.0312-0.0555-0.012-0.0969-0.0254-0.0626 0-0.0212 8.4e-4 -0.0424-5.4e-4 -0.0636 0-0.0666 0.0589-0.12522 0.12622-0.18909 0.18749-0.22399 0.21459-0.41459 0.40815-0.66219 0.59373-0.0838 0.063-0.16275 0.10098-0.25225 0.15625-0.34961 0.17343-0.69438 0.34315-0.78832-0.28124-0.0141-0.092 0.0878-0.16512 0.12612-0.24999 0.13712-0.10158 0.18495-0.3312 0.34689-0.40624 0.0182-9e-3 0.0434 5e-3 0.0626 0-0.58774-0.0648-0.56211-0.68747 0.0948-0.68747h0.0313c0.23298-2.5e-4 0.4606-2e-3 0.69368 0 0.0313 2.9e-4 0.0636 1e-3 0.0949 0 0.0414-0.0566 0.0777-0.10629 0.12612-0.15625 0.0535-0.0553 0.13046-0.1059 0.18908-0.15624 0.21108-0.0621 0.26083-0.10333 0.31541-0.0937 0.0545-0.0614 0.10403-0.12534 0.15761-0.18749 0.1126-0.13058 0.20361-0.21743 0.3153-0.24999z" fill="none" stroke="#000" stroke-width="4.0179"/>
<path d="m57.74 897.02c-0.1069 5e-3 -0.1798 0.0236-0.2188 0.0625-0.5886 0.58862-1.8278 4.012-2.75 7.5938-2.4627 9.5674-4.9266 17.644-7.875 25.812-1.4381 3.9849-2.9042 9.9997-3.25 13.344l-0.625 6.0625 7.0626 4.375c8.3992 5.1784 39.104 19.968 43.719 21.062 1.7752 0.42108 4.0586 1.4771 5.0625 2.3438 3.4668 2.9928 45.141 15.307 69.406 20.5 3.9849 0.85273 9.1486 2.1217 11.469 2.8438 2.3201 0.722 6.1667 1.3125 8.5625 1.3125s5.9494 0.5511 7.875 1.2187c1.9255 0.6675 9.214 1.7158 16.188 2.3125 16.667 1.426 57.766 0.3751 67-1.7187 3.9848-0.9037 10.254-2.2421 13.906-2.9688 3.653-0.7267 15.604-3.8182 26.563-6.875 10.958-3.0568 22.391-6.2632 25.406-7.0938 7.4863-2.0624 15.531-4.8252 20.531-7.0625 2.2943-1.0264 7.976-3.2949 12.625-5.0625 17.82-6.7753 30.381-13.383 31.188-16.375 1.4085-5.2264-9.9557-51.527-13.688-55.75-0.4746-0.53711-4.349 0.92793-8.5937 3.25-28.355 15.512-83.605 33.549-117 38.219-69.236 8.2187-127.49-11.124-190.09-38.219-11.79-5.5462-20.865-9.2591-22.469-9.1875z" fill="#c82c28" stroke="#c82c28" stroke-linecap="round" stroke-width="3.376"/>
<path d="m83.906 866.08c-1.1819-1.1819-1.0685-5.1249-1.0685-8.7621 0-7.6227-1.062-6.3632-9.1112-4.0547-3.1998 0.91769-6.9155-1.5273-6.9155-2.4647 0-0.8822-2.9577-2.7266-5.9124-5.7492-5.9523-6.0891-7.2663-15.176-3.0132-20.799 1.446-1.9118 2.2947-5.8195 2.326-7.3633 0.037-1.8318 4.5342-4.9137 11.254-7.0113 5.6632-1.7678 9.4134-3.9381 10.644-4.9331 1.5579-1.2591 5.2095-3.3006 5.2095-1.7683 0 1.2213 2.5102 2.7852 3.7666 1.8011 2.7288-2.1376 10.048-2.0561 17.534-1.9586 3.6142 0.0471 7.3512-1.3763 10.794 0.85772 1.8681 1.2121 5.2078 1.0216 7.0983 3.7291 2.2288 3.1922 4.969 7.2542 7.2978 10.441 2.2494 3.078 4.1149 5.3392 4.7649 5.2105-0.8135 0.42982-1.0959 2.2379-1.3873 4.5294-0.2964 2.3314-0.6022 5.1631-1.4862 7.5531-1.1863 3.2076-5.1862 5.0183-10.608 5.067-3.9769 0.0357 0.8245 7.6912 1.5073 11.355 0.4817 2.5846 0.7271 5.1371 0.046 7.7174 1.6713-1.6714-5.1483 11.615-5.1636 18.51-1.067 7.7824-9.9653 7.9338-15.817 5.945-2.9698-1.0093-4.2455-2.889-5.1334-3.9638-0.6215-0.75222-1.2352-1.4366-1.8338-2.0628-4.0252-4.2112-7.365-5.7938-7.7543-7.6952-0.1322-0.64561-3.6959-0.78694-4.8778-1.9688z" fill="#088e40"/>
<path d="m338.45 886.69c-1.1113-0.55376-3.5674-2.9718-4.3734-4.3055-0.331-0.54779-0.6995-1.3788-0.8189-1.8468-0.2958-1.1598-0.5234-1.2662-2.081-0.97225-1.6539 0.31208-2.301 0.0577-2.8764-1.131-0.7126-1.4718-0.9178-3.0543-1.1032-8.5068-0.2348-6.9033-0.3458-7.4952-1.6268-8.6764-0.7508-0.69242-0.7517-0.6946-0.6622-1.7744 0.1069-1.2913 1.33-5.0243 2.2346-6.8206 0.8774-1.7422 1.3971-2.3824 2.5146-3.0973 0.8271-0.52903 0.9838-0.72675 1.2278-1.5484 0.4014-1.3516 0.365-3.8246-0.07-4.7836-0.4025-0.88647-0.9285-1.2616-4.0838-2.9131-2.7895-1.46-3.2437-1.9418-3.5218-3.7358-0.2056-1.3255-0.6227-2.3233-1.1695-2.7977-0.184-0.15959-0.9276-0.63245-1.6525-1.0508-2.6626-1.5367-2.6504-2.7112 0.068-6.6107 1.998-2.8657 2.0366-3.2412 0.46-4.4739-0.5019-0.39235-0.957-0.82947-1.0115-0.97137-0.1275-0.33237 0.2054-0.82949 1.4917-2.2271 0.5736-0.62334 1.72-1.9442 2.5475-2.9352s1.7571-2.0246 2.0658-2.2968c1.9429-1.7133 4.5591-2.4621 10.832-3.1004 3.2708-0.33279 4.5066-0.82025 5.4659-2.1561 1.3762-1.9163 2.9228-2.078 4.4444-0.46464 0.8947 0.94863 1.7912 1.3086 3.1877 1.2798 1.861-0.0383 2.8735 0.50447 4.1331 2.2154 0.6208 0.84331 0.6589 1.5442 0.1467 2.7021-0.6309 1.4262-0.8906 3.121-1.0659 6.9559-0.1787 3.907-0.3956 5.1117-1.226 6.8094-0.538 1.0999-1.7719 2.3188-2.5072 2.4767-1.7219 0.36976-3.6738 1.6841-7.3651 4.9592-2.3405 2.0767-3.444 3.2375-3.6882 3.88-0.2534 0.66646 0.1774 1.46 1.4536 2.6773 1.1865 1.1317 2.2865 1.7109 3.2605 1.7168 0.7148 4e-3 0.9471-0.18964 1.1264-0.9406 0.1456-0.60934 1.9555-2.1415 4.076-3.4504 1.9224-1.1866 2.8804-1.5777 3.2955-1.3454 0.6273 0.35106 0.3377 3.3292-0.761 7.8257-1.1574 4.7368-3.034 8.3262-5.6825 10.869-1.0939 1.0504-2.6959 1.9951-3.3898 1.9989-0.4276 2e-3 -1.8083 0.71991-2.9216 1.5184-3.7335 2.6778-4.7602 5.667-2.3036 6.7068 1.0635 0.45014 2.2644 0.31801 4.9676-0.54659 0.8182-0.2617 0.8808-0.25756 1.219 0.0806 0.2568 0.25687 0.3258 0.4942 0.2466 0.84926-0.194 0.87013-0.9388 2.2556-2.0352 3.7859-1.7553 2.4499-2.1591 3.9203-1.4683 5.3471 0.9224 1.9055 2.6435 2.3438 4.5969 1.1708 1.8365-1.1028 3.8455-3.6373 5.7774-7.2885 1.2654-2.3915 2.8492-4.9962 3.2303-5.3125 0.2359-0.19575 0.4071-0.0976 1.1318 0.64897 0.4697 0.48379 1.3809 1.5251 2.0251 2.314 1.3219 1.6189 2.2047 2.301 2.8768 2.2226 0.6291-0.0734 0.8844-0.90978 0.8962-2.9362 0.019-3.3414-0.9382-7.2712-2.2375-9.1811-0.9494-1.3956-1.1474-1.9006-1.3243-3.3777-0.2777-2.3192 0.1693-4.6774 1.3253-6.9918 0.8167-1.635 1.1468-2.8346 1.4256-5.181 0.143-1.203 0.3609-2.2109 0.5356-2.4776 0.7809-1.1918 2.7265-0.10552 8.1615 4.5566 5.0504 4.3322 5.5337 4.4858 7.6033 2.4161 1.0435-1.0434 1.6392-2.1242 1.6392-2.9737 0-0.83648-1.2086-2.3928-3.8042-4.8991-3.2469-3.1351-6.1001-5.3159-8.5759-6.555-2.3941-1.1982-2.8988-2.0616-3.5704-6.1079-0.566-3.4099-1.3361-9.853-1.4736-12.329-0.1564-2.8165 0.1165-3.9595 1.1991-5.021 1.5255-1.4958 4.3089-2.2625 6.5354-1.8003 1.7187 0.3568 3.0225 1.1445 5.1084 3.0861 1.5647 1.4565 2.2481 1.953 3.5733 2.596 1.8332 0.88951 5.0251 3.2256 9.2965 6.8038 6.9683 5.8376 9.0531 8.2916 9.6339 11.34 0.2015 1.0576 0.3417 1.3726 0.74 1.6627 0.6203 0.45187 1.3538 2.0595 1.9419 4.2565 0.9217 3.4428 0.8736 4.0949-0.4318 5.8633-0.5308 0.71913-1.0186 1.6315-1.1899 2.2255-0.3974 1.3784-1.1487 2.4532-3.4117 4.8807-2.1272 2.2818-3.4472 3.9672-3.6075 4.6059-0.1653 0.65839-0.9432 0.7997-4.4026 0.7997-4.0276 0-3.912-0.0661-4.2301 2.4183-0.2503 1.9552-0.5825 2.6056-1.4511 2.8406-0.715 0.19347-1.3972 0.0479-4.0609-0.86631-3.6963-1.2686-5.3195-1.247-6.1994 0.0826-0.3617 0.54647-0.4844 1.0545-0.6403 2.6501-0.2403 2.4601-0.6952 4.0486-1.7427 6.0851-0.9904 1.9256-3.1777 5.0538-4.0996 5.8632-0.95 0.83413-1.4123 0.9718-3.1985 0.95256-1.9789-0.0213-3.1701 0.20242-4.5732 0.85902-1.901 0.88957-3.1565 2.2691-3.3946 3.73-0.1721 1.0553-1.0572 1.8214-3.5075 3.0357-1.1322 0.56107-2.9346 1.6273-4.0054 2.3693-1.7766 1.2312-2.8588 1.8276-3.8549 2.1244-0.2223 0.0662-0.7252-0.0676-1.2652-0.33671z" fill="#088e40" stroke="#088e40"/>
<path d="m380.42 992.68c-0.3518-0.24071-1.8765-3.6836-2.3687-5.349-0.6103-2.0648 0.3395-3.3053 3.6018-4.7038 1.1796-0.50565 3.524-1.7035 5.2098-2.6618 4.2936-2.4407 6.5589-3.1564 6.93-2.1892 0.2196 0.57232-0.059 1.0002-4.3627 6.7112-2.1489 2.8513-4.0747 5.5852-4.2795 6.0753-0.2047 0.49008-0.738 1.1515-1.1851 1.4698-0.8803 0.62684-3.0079 1.0154-3.5456 0.64753v0z" fill="#c82c28" stroke="#c82c28" stroke-linecap="round" stroke-width="1.505"/>
<path d="m388.51 995.66c-0.8624-1.3954 6.863-10.378 18.457-21.461 7.9096-7.5609 10.179-10.406 10.185-12.766 0-1.0241-0.1097-1.2139-1.1047-1.8724-0.6089-0.40301-1.1258-0.94896-1.1484-1.2132-0.023-0.26427-0.059-2.5981-0.08-5.1862-0.036-4.3864-0.099-4.9218-0.927-7.8891-1.7753-6.3635-2.5445-9.9388-3.363-15.632-0.6424-4.4681-0.9629-5.9786-1.3912-6.5579-1.0831-1.465-2.7785-6.9682-2.7785-9.0188 0-1.0027 1.3811-2.3632 4.0137-3.954 2.4382-1.4733 3.395-2.2256 7.2491-5.7004 3.2551-2.9348 4.0776-3.4186 4.488-2.6401 0.4028 0.76422 0.8118 3.2488 1.3969 8.4869 0.5547 4.9656 1.1452 8.5581 2.1839 13.287 0.301 1.3702 0.7544 3.7992 1.0075 5.3978 0.978 6.1773 1.3694 6.7322 7.3263 10.387 9.6294 5.9083 17.843 11.593 18.663 12.916 0.4757 0.76824-0.237 1.6784-3.3947 4.3351-1.6139 1.3578-4.8737 4.2584-7.244 6.4459-10.244 9.4539-17.845 14.981-27.892 20.284-5.3663 2.8324-5.8462 3.1371-6.1348 3.8964-0.1437 0.37783-0.6601 0.72139-1.4281 0.94998-1.8934 0.56364-7.473 2.9434-11.86 5.0584-4.6436 2.2387-6.0174 2.7787-6.223 2.4461z" fill="#c82c28" stroke="#c82c28" stroke-linecap="round" stroke-width="1.102"/>
<path d="m113.82 914.32c-0.2708-0.15742-1.74-1.8076-2.0906-2.564-0.5218-1.126-0.982-0.46152-0.8463-1.6174 0.1464-1.2463-0.7104-2.2933-1.2745-2.8971-0.3514-0.37619 0.4705-1.9278 0.066-2.138-0.404-0.21021-0.037-2.7368-0.037-3.0066 0-0.65407 4.407-3.8684 5.3366-4.1017 0.4121-0.10343 2.1933-1.146 3.509-0.8789 1.9591 0.39771 2.3925 1.7654 3.1359 1.4827 0.4877-0.18552 2.4173-1.4996 4.1804-1.6021 3.0067-0.17485 3.3921 0.27037 6.2075-0.90046 3.9581-1.646 5.5012-1.9569 10.756-2.1673 8.9451-0.35819 18.112-3.6173 19.989-3.5634 0.7794-0.5323 1.5861-0.20707 3.9199-0.48149 4.7522-0.55881 8.0086-1.3642 12.823-3.1716 2.4262-0.91084 47.784-38.668 50.089-38.651 3.9097 0.0285 5.3682-7.5757 4.4078-1.5643-0.1682 1.0525-0.9684 4.3372 0.097 8.1894 1.3375 4.8347 2.9213 11.458 4.8774 16.799 1.7845 4.8726 3.8789 8.6784 6.3787 9.0862-2.1071 7.837-3.1719 9.0294-1.2867 10.047 2.8357 1.5311 3.1621 13.676 0.485 25.076-2.2728 9.6781-6.7104 18.819-13.615 20.47-8.2725 4.4296-21.247 5.3332-35.617 3.9704-22.276-2.1124-47.905-9.6709-64.572-17.983-7.2856-3.6336-14.38-2.8605-16.919-7.8327z" fill="#646ea4"/>
<path d="m73.99 663.58c-0.5966-0.0155-0.8797 0.82131-0.875 3.25 0 6.1398-4.8044 16.36-7.7603 24.511-2.4593 6.7814-4.0626 22.259-5.7709 30.146-1.4711 6.7834-1.6031 11.205-0.9688 33 0.4029 13.842 1.1456 26.228 1.625 27.5 0.4793 1.2721 1.1543 7.5721 1.5 14 1.0333 19.148 3.7178 4.4987-10.031 24.188 0.2913 0.825 0.9239 6 1.375 11.5-0.2444 4.2226 0.1838 7.3637 1.0937 9.7188 1.5255 3.948 4.4097 5.6929 7.75 6.7812 0.3604 3.1654 2.3209 5.4443 5.0313 6.6562 3.7112 1.6595 8.8126 1.3486 13.062-1.25 1.4492 23.684 8.2456 17.958 11.969 20.438 6.5876 10.68 16.433 15.555 18.125 18.594-4.3379 3.7474-3.9253 10.251-4.9688 12.5-3.1671 3.097-5.4393 3.7191-7.9062 2.1562-20.92-8.0255-28.24-15.265-34.406-17.469-2.9783-1.4571-5.8621-2.625-6.375-2.625-0.5145 0-2.2446 2.6778-3.875 5.9688-1.6325 3.291-3.3261 5.991-3.75 6-1.1486 0.0245-13.949-10.108-16.063-12.719-2.3674-2.9273-5.6551-4.6876-6.75-3.5938-0.6947 0.69584-1.2056 10.481-1.875 35.156-0.019 0.72833-2.4339 3.8783-5.3437 7s-8.0404 8.8524-11.406 12.719l-6.0937 7.0312 8.8125 9.875c4.8572 5.4462 10.103 10.571 11.656 11.375 1.5553 0.80371 4.3225 2.7447 6.125 4.3125 1.8039 1.5678 4.9982 3.7272 7.125 4.8125 2.1284 1.0853 4.6141 2.739 5.5313 3.6562 0.9173 0.91723 6.8298 4.2262 13.125 7.375l11.438 5.75 4.5-1.5c2.7142-0.89357 4.5-2.0773 4.5-3 0-0.83963 1.2375-3.5049 2.75-5.9375 2.4972-4.0163 3.0411-4.3873 5.9375-3.9375 1.7542 0.27241 6.0292 1.8197 9.5 3.4375 7.4595 3.477 11.079 4.7729 19.812 7.125 3.575 0.96286 8.5762 2.6831 11.125 3.8125s6.5988 2.3628 9 2.75c2.4012 0.38722 7.525 1.6067 11.375 2.6875s8.575 2.3402 10.5 2.8126c8.3672 2.0531 13.984 3.8902 15.75 5.1562 26.179 5.3759 57.02 7.3187 111.88 4.2188 2.1296-0.913 5.675-2.0103 7.875-2.4375 2.2-0.4273 7.476-1.4396 11.719-2.25 4.2418-0.8105 9.4158-1.9916 11.5-2.625 2.0824-0.6335 7.6062-2.3092 12.281-3.7188 4.675-1.4096 10.975-3.402 14-4.4062s7.75-2.3094 10.5-2.9062 6.8-1.9081 9-2.9062c5.1176-2.3218 13.304-4.3221 14.531-3.5625 0.523 0.32248 0.9688 1.0686 0.9688 1.6875s0.8624 2.9826 1.9062 5.2188c1.0462 2.2361 2.4304 5.7637 3.0938 7.875 1.0265 3.2665 1.5195 3.7488 3.3438 3.1875 1.1784-0.3628 3.9562-1.1472 6.1562-1.75 2.2-0.6027 5.35-2.0666 7-3.25 1.65-1.1835 5.025-3.0041 7.5-4.0625 4.9284-2.1075 12.413-6.25 25.188-13.938 8.8998-5.3558 28.812-24.496 28.812-27.688 0-2.1856-6.824-7.9909-13.344-11.344-11.902-6.1225-12.522-6.5634-13.625-9.9062-0.6014-1.8255-1.5416-9.1051-2.0624-16.188-1.0906-14.824-1.8868-20.375-2.9376-20.375-0.9507 0-13.697 9.6185-14.531 10.969-0.347 0.56153-1.9292 1.0312-3.5312 1.0312-3.279 0-5.2087-2.8018-6.375-9.25-0.1915-1.0531-0.5398-2.0046-0.9063-2.6875-10.475 2.4257-36.05 18.421-46.5 19-3.3272 0.18447-5.1213-1.1827-4.4063-5.0625-1.4316 0-1.7812-0.82319-1.7812-4 0.303-12.853 8.592-15.373 0.875-14.469-2.5224-1.267-2.3273-2.384 0.625-3.125 1.375-0.3451 2.5-1.2433 2.5-1.9688 0-2.4209 5.0778-5.4375 9.125-5.4375 5.4739 0.97368 6.4814-5.8834 8.4375-9.125-0.076-2.8595 2.5322-7.8174 5.5937-7.2812 1.8807 0.32925 2.8344 1.092 4.625 0.84375 1.6214-0.22472 3.0769-0.80973 4.125-2 0.01-4e-3 -0.01-0.0276 0-0.0312 0.1493-0.0572 0.3882-0.14547 0.5938-0.21875 2.4067-2.4032 4.7738-3.8019 6.6875-3.9375 0.5339-0.0378 1.0452-5e-3 1.5 0.15625 0.01 3e-3 0.022-3e-3 0.031 0 0.192-0.11776 0.3925-0.2409 0.5937-0.34375 0.3174-0.16224 0.6411-0.29759 0.9687-0.4375-0.077-0.52975-0.155-1.0561-0.2812-1.5938 2.3804-3.8496 11.746-28.227 6.5-23.844-0.1944-2.1602-1.494-7.1626-7.0625-13.25-1.014 0.49829-1.3219-0.52292-1.4063-0.875-3.0329-5.0974-7.4415-3.97-6.6376-6.5148 1.0163-8.3787 6.5883-39.471 7.4126-58.683-5.4983-16.991 1.9395-36.388-3.8374-58.365-2.8309-7.8201-4.5452-20.382-5.3126-20.5-1.3555-0.20878-2.5253-0.26023-3.5312-0.21875-0.7958-0.11184-2.3965-0.32815-4.125-0.53125-1.925-0.2262-3.945-0.83296-4.4688-1.3438-0.5217-0.51078-2.6014-0.90625-4.625-0.90625-2.0226 0-5.3967-0.715-7.5-1.5938-12.028 4.174-7.999 6.1834-14.687 8.2812-4.4611 1.596-5.8753 2.8756-11.656 10.594-5.9365 7.9258-7.0499 8.9262-11.5 10.25-2.135 0.63508-3.2288 0.93165-3.9375 1.125-1.6695-0.20711-5.0343 0.27347-7.625 4.1875 0 1.7718-0.597 2.1562-3.4062 2.1562-3.5453 0-4.4302 0.95795-10.094 10.938-2.1364 3.7937-6.2451 11.833-6.4688 13.312-1.0842 0.75942-2.5431 3.1144-3.25 5.25-0.8759 2.6522-2.7076 4.9489-5.7812 7.1875-2.475 1.8026-5.8489 4.5226-7.5 6.0625-3.4791 3.2448-9.4768 14.686-12.938 24.719-1.3223 3.8335-2.8238 7.1077-3.3437 7.2812-1.9149 6.696-1.3334-1.1081-5.5 12.469-1.0689 3.8162-5.4054 4.8777-7.8126 1.9062-0.9625-1.1903-1.9456-2.7261-2.1874-3.4062-0.3041-0.84875-1.2236-0.51304-2.9063 1.0312-1.3484 1.2375-2.8604 2.265-3.375 2.2812-0.5145 0.0163-3.4509 2.3788-6.5313 5.25-3.0788 2.8712-7.3278 5.834-9.4374 6.5938-3.505 1.2618-3.9942 1.2185-5.4688-0.5-0.888-1.0348-2.4893-2.3912-3.5625-3-1.0731-0.60882-2.2151-2.4088-2.5625-4-0.1395-0.63906-0.2439-0.98335-0.3438-1.0312-0.2563-2.0747-0.6053-4.1616-1-5.9375-0.5697-3.336-2.5886-10.705-4.1874-14.25 0.058-3.3096-3.8234-6.5215-6.625-8.5938-2.2099-1.6754-3.7188-6.6898-3.7188-12.375 0-5.4347-8.8515-24.708-12.781-27.844l-2.6876-2.125c-5.528-4.9417-3.9687-4.1797-6-6.1562-0.75-2.3639-8.0584-9.0625-9.875-9.0625-0.7264 0-2.3645 1.125-3.6562 2.5-1.2918 1.375-3.1371 2.5-4.0938 2.5-1.8668 0-6.0985-4.5375-8.4062-9-1.4645-2.6099 0.1354-2.2561-3.0938-6-0.6372 0-3.7155-2.91-6.8124-6.4375-4.7842-5.448-6.2733-6.5163-9.875-7.0938-3.5444-0.56803-5.2873-1.7913-10.719-7.4688-6.445-6.7368-6.5551-6.7856-13-7.4375-2.7758-0.28075-6.3175-1.2468-9.4688-2.375-0.1685-0.0338-0.2883-0.0879-0.4062-0.125-0.095-0.035-0.187-0.0897-0.2812-0.125-0.042-8e-3 -0.083-0.0229-0.125-0.0312-0.4982-0.10029-1.0037-0.20744-1.5-0.3125-0.3886-0.14352-0.768-0.29431-1.1563-0.4375-0.3997-0.0767-0.7505-0.14515-1.0625-0.25-0.036-7e-3 -0.057-0.0242-0.094-0.0312-0.5149-0.074-1.1544-0.16396-1.2187-0.1875-1.4049-0.1988-2.8687-0.31499-4.0313-1.0938-0.4211-0.28286-0.8044-0.5416-1.1874-0.8125 0.044 0.0557 0.081 0.0997 0.125 0.15625-2.8594-1.1359-4.7245-3.5053-5.7188-3.5312zm6 5.9375c1.2799 0.0796 4.4508 1.3169 7.625 3.0312 5.6901 3.0732 7.2058 3.4933 11.031 2.9688 3.7808-0.51812 4.9256-0.22584 7.8438 2 4.3697 3.3329 7.9298 9.0354 7.1562 11.469-0.5602 1.7683-4.403 4.1875-6.6874 4.1875-0.5846 0-0.8177-0.675-0.5-1.5 0.3161-0.825 0.1576-1.5-0.375-1.5-1.2559 0-1.2446 0.94753 0.1562 5.0938 1.5689 4.6436 1.4977 4.608 4.9375 1.3125 2.4814-2.3774 3.9455-2.9251 7.75-2.9375 2.5764-8e-3 5.2336-0.35469 5.9063-0.78125 2.2439-1.4264 7.1711 2.2621 11.437 8.5625 2.3243 3.4321 4.8136 6.8357 5.5313 7.5625 0.7177 0.72678 1.3125 1.8933 1.3125 2.5938s0.9 2.0983 2 3.0938c1.1072 1.002 2 3.0812 2 4.6562 0 2.4692-0.4026 2.8438-2.9062 2.8438-1.9665 0-3.3958-0.81295-4.5-2.5-1.462-2.2313-1.8803-2.344-4.2813-1.25-2.1021 0.95778-2.7368 0.94569-3.0625-0.0312-0.4522-1.3566-2.8568-1.6638-3.5938-0.46875-0.2536 0.4125-0.7952 2.8787-1.1874 5.5l-0.7188 4.7812 3.5312-3.5312c3.1894-3.1883 3.8048-3.4341 6.3438-2.4688 3.7682 1.4327 5.357 2.8863 5.375 4.8438 0.01 0.89516 0.4565 2.3 1 3.125 0.8169 1.24 1.8262 0.65627 5.75-3.25 6.6104-6.5811 12.236-11.75 12.75-11.75 0.9576 0 10.5 13.374 10.5 14.719 0 0.79447-0.9314 1.7042-2.0625 2-1.2849 0.33602-1.8477 1.0626-1.5 1.9688 0.3062 0.7977 0.5625 1.645 0.5625 1.875 0 1.0683 2.4281 0.19481 5.75-2.0625 3.3442-2.2724 3.7728-2.3249 5.375-0.875 0.9603 0.86903 2.0265 2.8821 2.375 4.4688s1.0549 3.1237 1.5625 3.4375c0.5077 0.31377 0.9497 1.3512 0.9687 2.2812s0.9061 3.4875 1.9688 5.6875c2.767 5.7277 2.8074 19.287 0.062 22.625-1.8385 2.238-2.0855 2.2767-4.75 0.8125-1.8894-1.0382-2.8125-2.3306-2.8125-3.9688 0-1.637-0.6617-2.5827-2-2.8438-1.0957-0.21373-3.8013-2.116-6-4.25s-4.2689-3.875-4.625-3.875-0.93 3.0375-1.25 6.75c-0.9618 11.156-1.7551 14.621-3.9062 16.969-1.5353 1.6733-2.0082 3.427-1.875 6.9375 0.097 2.5817 0.3667 4.8667 0.5937 5.0938 0.2271 0.22708 1.5557-1.4175 2.9687-3.6562 2.0589-3.2608 2.6332-5.5549 2.875-11.594 0.4744-11.788 3.6268-12.94 11.844-4.375 2.5294 2.6365 2.9261 2.7007 10.125 2.1562l7.4688-0.5625 2.375 3.2188 1.5312 2.0938c0.7832 3.646 2.6639 10.588 4 12.719 1.2628 8.0842 2.1314 12.159 2.6875 13.75 0.4236 3.2963 1.5622 4.0362 3.6875 2.7188 2.4334-1.5084 4-0.84702 4 1.7188 0 1.0075 0.8809 3.7899 1.9688 6.1875 1.0866 2.3976 1.9873 5.8075 2 7.5625 0.012 1.755 0.4205 3.4186 0.9062 3.7188s1.1906 3.1427 1.5625 6.3125c0.372 3.1698 0.9081 6.5688 1.1875 7.5312 0.3833 1.3207-0.1017 1.75-1.9062 1.75-2.3877 0-6.7188-3.7031-6.7188-5.7188 0-0.5847-0.6508-1.5972-1.4375-2.25-1.1463-0.95134-1.6689-0.7293-2.5937 1-1.6042 2.9971-0.4474 6.9688 2.0312 6.9688 2.4495 0 2.6261 1.8317 0.25 2.6875-2.1999 0.79237-10.25 8.7421-10.25 10.125 0 1.3026-2.8408 4.1875-4.125 4.1875-0.5334 0-2.38-2.2754-4.0938-5.0312-1.712-2.7558-3.3165-4.8095-3.5624-4.5625-0.2473 0.24705-0.404 4.0766-0.375 8.5 0.04 6.1745-0.3337 8.4274-1.5938 9.6875-1.5218 1.5217-1.854 1.4084-4.6875-1.7188-1.6809-1.8551-3.8736-4.5003-4.8437-5.875l-1.75-2.5 0.3437 5c0.1853 2.75 0.6463 5.6905 1.0313 6.5312 0.3836 0.84079 0.063 2.3995-0.7188 3.4688-1.1954 1.6347-1.8048 1.7413-3.7812 0.78125-1.2935-0.62796-3.8207-1.3782-5.625-1.6875-2.7636-0.47348-3.4289-0.19441-4.1563 1.7188-0.4752 1.2499-1.5865 2.8615-2.4687 3.5938-0.8941 0.74097-1.5938 2.839-1.5938 4.7188 0 3.7067-1.0144 4.2623-3.125 1.7188-1.042-1.2557-1.3935-5.8426-1.4375-19.062-0.056-16.79-0.01-17.398 1.875-16.906 1.8549 0.48506 1.9226 0.10099 1.3125-7.6875-0.7687-9.8127-2.0244-14.743-4.5938-17.875-2.7284-3.3431-5.6811-5.4236-12.406-4.2812-2.9348 0.55058-3.5107 0.22057-5.9375-3.2812-1.4787-2.1338-2.6875-4.3003-2.6875-4.8438 0-1.6643-8.3136-9.0207-11.688-10.344-2.0564-0.80643-5.4131-1.0539-9.5-0.65625-4.3506 0.42353-7.506 0.61428-10.5 0.59375-2.6698-5.1366-10.064-15.895-11.469-15.969-0.3494-0.0183-0.8447 0.82987-1.125 1.9062-0.4022 1.5357 0.2336 2.2014 2.9374 3.0938 1.8962 0.62542 4.7526 4.6393 5.4063 5.6875 0.3852 0.61656 1.9074 3.1745 3.1875 5.25-2.2443-0.0562-4.4652-0.21264-7.125-0.53125-3.6295-0.43466-6.1601-0.22808-7.8125 0.65625-5.8663 3.1396-8.0582-4.8473-4.2813-15.594 1.1616-3.3 2.3457-7.0816 2.6563-8.375 1.3097-5.4541 16.807-17.125 22.719-17.125 2.7935-1e-5 6.0534 0.80379 5.4688 5.7188-6.4817 7.7335-1.4604 6.8197 1 2.75 1.5986-2.644 2.9384-6.0787-1.5-9.875-1.4912-1.2376-3.9405-1.6958-12.125-0.0312-3.8013 0.77308-4.1507-0.35843-1.375-4.375 1.0298-1.4902 3.9548-6.2736 6.5-10.656 4.1175-7.0901 4.625-8.64 4.625-14.031 0-6.8742-1.4308-9.6209-5.9688-11.5-2.5471-1.0551-3.5588-0.991-6.4374 0.375-3.9414 1.8697-8.6038 6.9831-8.5938 9.4375 0 1.0577 0.6988 0.51255 1.9062-1.4688 1.8053-2.9604 6.9344-6.3438 9.5938-6.3438 0.6663 0 2.3945 0.92258 3.8438 2.0625 2.4139 1.8996 2.6562 2.6783 2.6562 9.3438 0 6.0024-0.3493 7.5998-2 9.0938-1.1 0.99549-2 2.5532-2 3.4688s-1.0125 2.5922-2.25 3.7188c-4.0694 3.7045-14.75 17.662-14.75 19.281 0 0.53195-0.902 2.4492-2 4.25-1.0979 1.8008-2 4.1731-2 5.2812s-0.9 3.6976-2 5.75c-1.618 3.0189-2 5.6569-2 13.75v10h-3.4688c-3.1207 0-4.2879 0.0868-4.7686-2.85-1.385-12.991-2.3975-21.805-3.1539-28.958-1.1427-10.804-1.7012-17.814-2.0775-29.692 0.11743-11.864-0.11259-19.775-0.02021-23.912 0.07403-3.3153 0.02302-5.5062 0.33912-6.5064 0.60454-1.9129-0.71852 3.1875-0.71852 1.9203s-1.1621-5.8857 0.2939-9.7333c1.4559-3.8476 2.5113-9.0688 3.5626-12.369 1.0514-3.3 0.97972-9.8249 1.7751-12.3 0.7955-2.475 4.6372-7.2264 4.6372-9.5812-1.2256-7.7228 5.8497-3.2072 7.0371-2.6439 0.1-0.0382 0.2547-0.0426 0.4375-0.0312zm284.72 4.5938c2.8596 0.0542 5.7927 0.7328 9.4062 1.9375 5.0644 1.6884 5.5 2.0652 5.5 4.875 0 1.6783 0.3417 3.4024 0.75 3.8125 0.4082 0.41013-1.0965 2.3927-3.3438 4.4062-3.0815 2.7615-3.9991 4.2606-3.7187 6.0938 0.3622 2.3672 0.3932 2.3534 2.0937-0.8125 2.6975-5.0166 8.5884-3.5998 8.6876 2.0938 0.017 1.0169 0.6812 3.2669 1.4687 5 0.7874 1.7331 1.6177 5.1812 1.875 7.6562s0.9738 6.3 1.5625 8.5c1.4391 5.3785 3.4099 26.016 2.9688 31-0.2894 3.2557-0.7625 4.0524-2.5938 4.3125-1.7488 0.24837-2.25 0.97237-2.25 3.25 0 1.8382 0.5012 2.9375 1.375 2.9375 0.7661 0 1.6942 0.75904 2.0625 1.7188 0.9467 2.467-5.3366 30.634-6.5467 33.824-0.5534 1.4544-2.4436 6.5375-3.124 10.583-1.4732 8.7364 2.735 9.7119-1.3606 4.3438-2.3614-3.0959-2.825-4.7854-3.2187-11.781-0.3269-5.81-0.9847-8.9593-2.3125-10.844-1.0286-1.4599-1.875-3.5264-1.875-4.5938s-0.9-2.7545-2-3.75-2-2.1847-2-2.625-1.125-2.4426-2.5-4.4688-2.5-4.3763-2.5-5.2188c0-0.84244-0.7875-2.4037-1.75-3.4688-1.5011-1.6611-1.75-4.0496-1.75-16.781 0-9.8968-0.3333-14.512-1-13.844-1.5251 1.5285-1.3007 28.482 0.25 30.031 1.8802 1.8787 1.4959 2.875-1.0938 2.875-1.2778 0-3.3532-1.1162-4.625-2.4688-5.3053-5.6484-15.812-3.7866-18.125 3.2188-1.983 6.0116 2.164 11.742 5.8438 8.0625 0.8958-0.89577 0.6657-1.4394-1.0312-2.2812-2.904-1.4394-3.5906-6.4473-1.125-8.25 3.1229-2.2844 8.6662-1.5542 13.75 1.8125 6.8668 4.5492 16.277 16.471 17.75 22.5 0.6553 2.689 1.5192 5.3562 1.9374 5.9062 0.4194 0.55 0.8618 2.575 0.9688 4.5 0.4206 7.5657 1.1437 7.0801-10.75 6.875-2.6905-0.0464-5.5242-0.16939-8.0625-0.3125 2.0679-2.2505 4.8626-5.6324 6-6.6562 1.2375-1.1139 3.0705-1.801 4.1563-2.1875 1.5987-0.56987 0.8369-1.0088-0.3126-1.7188-0.2219-0.13737-0.499-0.18333-0.8124-0.1875-1.9088-0.20948-8.4226 6.7851-10.688 10.656-2.2822-0.1517-4.2308-0.32545-5.25-0.5-8.5761-1.4703-29.281 6.6455-29.281 11.469 0 0.73817-0.6431 1.6014-1.4375 1.9062-1.0448 0.40095-1.435 2.1538-1.375 6.375 0.051 3.6173-0.538 7.0501-1.5625 9.0312l-1.6562 3.1875 2.75 0.625c4.8428 1.0622 5.2961 1.3265 6.3124 4 0.5494 1.4423 1.8754 2.8391 2.9688 3.125 2.4585 0.6429 2.4595 1.515 0.094 7.75-1.0376 2.729-2.2745 5.0606-2.75 5.1562-0.4769 0.0956-3.3105-1.1317-6.3126-2.7188-3.0009-1.5871-6.1924-2.875-7.0937-2.875-0.9012 0-2.4834-0.96869-3.5313-2.125-1.0452-1.1563-3.1424-2.7172-4.6562-3.5-1.5138-0.78281-2.75-2.0954-2.75-2.9062 0-2.7565 3.8056-1.4813 9.0938 3.0312 3.5317 3.0148 6.2113 4.5 8.0937 4.5 3.8814 0 3.5974-2.3471-0.5937-4.9375-3.7011-2.2872-4.6024-3.8233-4.625-7.9062-0.022-3.6854-0.9471-4.8067-4.7188-5.625-2.5925-0.56244-3.25-0.38491-3.25 0.875 0 1.1654-1.0059 1.5938-3.8438 1.5938-3.7758 0-6.2304-1.6322-7.4687-5-0.3692-1.004-0.572-0.77906-0.625 0.6875-0.1188 3.2978-1.5269 3.5366-4.5 0.78125-3.1137-2.8856-3.8698-3.0083-5.5625-0.96875-0.8929 1.1766-4.6173 2.2664-4.2812 0.28125 2.8465-16.831-19.774-15.758-18.25-0.28125-1.3223 5.5222-2.2916 8.0641-6.9063 10.438-4.5496 2.34-6.7734 2.2552-4.8437-0.1875 0.5525-0.7008 1.2835-5.0722 1.625-9.7188 0.6836-9.3209 2.2887-12.442 5.1562-10.062 1.3715 1.1383 1.9925 0.87009 4.5-2.0625 1.6033-1.875 2.9155-3.7573 2.9375-4.1875 0.022-0.43023 1.075-1.1901 2.3125-1.6875 2.0948-0.84203 2.0431-0.92395-0.75-0.96875-3.5259-0.0565-4.9051 0.72403-5.875 3.3438-0.5132 1.3861-0.9923 1.6021-1.7812 0.8125-1.3501-1.349-1.3231-3.8802 0.1562-12.219 0.6342-3.575 1.3727-8.9186 1.6562-11.844 0.3379-3.4752 1.0689-5.4938 2.0626-5.875 1.5543-0.59681 12.271 4.613 12.281 5.9688 0.01 1.2086 4.472 0.84187 5.7812-0.46875 0.6612-0.66 1.2188-1.8923 1.2188-2.75s0.9-2.1255 2-2.8125c2.0483-1.2792 2.6136-5.3469 1.375-9.9688-0.8633-3.2215-2.2532-2.781-3.9375 1.25-0.8043 1.925-1.9276 3.5-2.4687 3.5-0.5435 0-0.9913 0.7875-1 1.75-0.026 2.9189-1.3941 4.1948-3.8126 3.5625-1.3849-0.36249-2.0697-1.1333-1.75-1.9688 0.2962-0.77022-0.1222-1.3438-0.9374-1.3438-3.4955 0-2.424-10.94 1.4062-14.406 1.0386-0.93988 2.4271-3.8213 3.0938-6.4062 2.2726-8.8188 3.0049-9.9896 7.8124-12.25l4.625-2.1562 1.7813 2.2188c0.9858 1.2174 1.8125 3.0344 1.8125 4.0312 0 2.813 4.847 7.9688 7.5 7.9688 1.4235 0 3.2397-1.2112 4.6562-3.0625 1.2799-1.6702 3.5915-4.5425 5.125-6.4062l2.7813-3.4062-2.2813-0.3125c-2.0899-0.29658-2.3235-0.89414-2.5937-7.0625-0.3956-9.0313-2.8863-8.8214-2.9687 0.25-0.013 1.375-0.5889 3.85-1.2813 5.5s-1.1727 3.3673-1.0625 3.8438c0.3307 1.4306-2.9414 5.8112-4.0625 5.4375-1.7143-0.57146-3.7965-7.9424-3.8125-13.469-0.017-5.8611 4.5643-16.059 10.281-22.906 1.7994-2.1533 3.8109-5.1438 4.4688-6.6562 1.5402-3.5409 2.7707-3.4834 6.375 0.375 2.829 3.0284 2.9787 3.0741 4.4062 1.25 3.9454-5.0396 3.9828-6.288 0.094-7.6562-0.4855-0.17076-0.5947-1.2837-0.2188-2.4688 0.786-2.4726 3.6923-3.683 8.2188-3.4062 4.0904 0.25015 8.236-3.2162 12.812-10.75 3.2543-5.3571 4.2477-6.1495 13.625-10.938 7.2017-3.6771 11.764-5.3091 16.531-5.2188zm-265.97 15.062c-1.8892 0-2.4603 2.6901-1.875 8.7812 0.454 4.7247 0.6298 4.9749 2.4375 3.875 1.6396-0.99761 2.2434-0.80325 3.875 1.1875 1.0642 1.2984 1.9375 3.3714 1.9375 4.5938s0.2903 2.5083 0.6562 2.875c1.1916 1.1904 1.3438 0.73649 1.3438-4.2188 0-3.955-0.3691-4.973-1.9062-5.375-2.6936-0.70408-5.5388-5.495-5.2813-8.875 0.1443-1.8936-0.2631-2.8438-1.1875-2.8438zm-18.812 10.531c-0.3879 0.0374-0.619 1.3251-1.0625 4.4688-0.4268 3.025-0.8543 6.2875-0.9688 7.25-0.1542 1.3223-1.1382 1.75-4 1.75-3.3405 0-3.7812 0.2625-3.7812 2.4062 0 1.3357 0.675 3.1125 1.5 3.9375 2.0908 2.0908 1.8941 3.4559-1.125 7.8125-2.2256 3.2115-2.4688 4.2213-1.5938 6.5625 0.5693 1.5198 1.323 3.6812 1.6876 4.7812 0.548 1.6589 0.8014 1.7442 1.4687 0.5 0.4425-0.825 1.0774-3.149 1.4375-5.1562s1.3472-4.2024 2.1562-4.875c0.8107-0.67261 1.4688-2.2378 1.4688-3.4688 0-1.2309 1.0125-3.7608 2.25-5.625 4.1893-6.3111 5.3777-9.1624 4-9.625-0.6875-0.23083-1.25-1.9909-1.25-3.9062s-0.572-4.4549-1.25-5.6562c-0.4228-0.74907-0.7048-1.1787-0.9375-1.1562zm47.594 31c-0.3315-0.036-0.8455 0.23407-1.6562 0.6875-3.128 1.7495-3.732 2.799-3.75 6.5312-0.017 3.5986 1.3591 4.1253 4.1562 1.5938 1.1694-1.0579 1.8438-3.068 1.8438-5.5312 0-2.314-0.04-3.2212-0.5938-3.2812zm256.09 14.938c-0.3744-0.0265-0.8544 0.15449-1.5 0.5-2.5565 1.3679-2.5898 3.0312-0.062 3.0312 1.0675 0 2.2314 0.47591 2.5937 1.0625 1.1975 1.9363 1.5385 0.25984 0.5-2.4688-0.5441-1.4345-0.9071-2.0809-1.5312-2.125zm-258.97 8.5312c-2.7663 0-5.7061 4.657-6.9062 10.938l-0.6562 3.4375 2.4062-2.2812c2.6996-2.5361 7.4644-2.5815 8.5938-0.0937 0.3728 0.825 1.605 3.3 2.7187 5.5 1.1136 2.2 2.3219 5.2375 2.6875 6.75 0.3657 1.5125 1.2758 2.75 2.0312 2.75 0.7568 0 1.62 0.675 1.9376 1.5 1.2971 3.381 2.1716 1.0532 2.4062-6.5 0.1367-4.4-0.15-8-0.625-8s-2.0508 0.92258-3.5 2.0625c-2.6138 2.0558-3.185 1.6513-2.6875-1.9375 0.3612-2.6058-2.1001-6.8808-4.625-8.0312-2.0395-0.92923-2.4047-1.6335-1.9063-3.625 0.5378-2.1386 0.2854-2.4688-1.875-2.4688zm-37.594 49.5 2.1563 2.5 2.125 2.5 1.5312-2.25c1.975-2.9605 3.1066-2.8407 6.9375 0.75 1.7576 1.6474 3.4039 3 3.6563 3 0.2509 0 0.9248-1.35 1.5-3 1.0054-2.8842 1.2898-3 7.0624-3 3.3039 0 7.243 0.54756 8.7813 1.2188 3.8743 1.6903 9.1719 7.373 9.875 10.594 1.0335 4.7344 1.3358 5.1795 3.9063 6.1562 2.6793 1.0187 3.2338 2.4642 1.4062 3.5938-0.6689 0.41339-0.8519 2.112-0.5 4.3125 0.5197 3.2499 0.206 3.9538-2.75 6.3125-1.9207 1.5326-5.2677 2.9388-7.9688 3.3438-2.562 0.38438-4.6562 0.83438-4.6562 1.0312s1.155 2.9781 2.5625 6.1562c2.982 6.7329 3.4673 13.772 1.1875 17.312-1.1949 1.8557-3.75 11.834-3.75 14.656 0 0.17399-0.9 0.3125-2 0.3125s-2.014 0.3375-2.0312 0.75c-0.018 0.4125-0.6151 1.4893-1.3126 2.4062-0.6961 0.9169-2.821 1.8646-4.7187 2.125-3.0507 0.4186-3.9769-0.0533-8.0937-4.1562-2.5616-2.5523-5.4222-6.1528-6.3438-8-1.4597-2.926-2.0403-3.2794-4.5312-2.7812-2.4705 0.49384-3.1722 0.0896-5.0626-2.9688-1.7957-2.9071-2.0588-4.4696-1.5624-8.6562 0.3686-3.1218 0.1699-5.5976-0.5-6.4062-1.4579-1.7552-6.0809-1.672-10.531 0.1875-4.1567 1.7368-6.3125 0.71185-6.3125-3 0-2.4963-1.5303-4.1128-4.4062-4.6562-1.0417-0.19669-2.2005-1.0188-2.5938-1.8438s-1.4718-2.9214-2.375-4.6562c-2.0066-3.8546-2.0183-6.2344-0.094-8.7812 0.808-1.0676 1.4688-2.7432 1.4688-3.7188 0-0.97552 0.895-2.2836 2-2.875 1.5055-0.80571 1.8401-1.6781 1.375-3.5312-0.7755-3.0901 1.0843-5.4375 4.2812-5.4375 1.334 0 4.5426-1.125 7.125-2.5 2.5842-1.375 5.894-2.5 7.3438-2.5 1.5944 0 3.2541-0.88901 4.2188-2.25zm141.91 1.25c0.2871 0.0247 0.5269 0.1596 0.75 0.34375 1.3836 1.1493-0.067 7.3484-2.375 10.094-0.7808 0.92784-1.0997 2.2072-0.6876 2.875 0.5193 0.83814 1.6187 0.18718 3.5313-2.1562 1.5239-1.8671 3.0941-3.0622 3.5-2.6562s0.2468 3.0782-0.375 5.9688c-2.2012 10.234-2.414 13.003-1 12.531 0.7213-0.24043 1.5518-2.0428 1.875-4.0312 0.6962-4.283 2.2041-6.3306 5.2187-7.0938 1.2156-0.30741 2.8162-1.9557 3.5626-3.6562 0.8546-1.9498 1.971-2.9794 3-2.7812 2.5747 0.49607 2.4447 3.1389-0.3126 6.3438-2.269 2.6385-2.5302 3.8319-2.5312 11.219v8.25h-4c-2.1941 0-6.3566 0.90027-9.25 2-2.8934 1.0997-5.5701 1.9997-5.9375 2-0.3674 2.7e-4 -0.8691-3.0375-1.125-6.75-0.4834-7.0126-1.2484-11.335-2.6563-14.75-3.6209-8.794-3.6175-8.6058-0.3124-11.406 5.7391-4.8651 7.8786-6.4508 9.125-6.3438zm115.53 1.3125c0.8643-0.0401 1.7865 0.4271 2.625 1.4375 0.695 0.83742 2.0385 1.2952 2.9688 1 0.9583-0.30422 2.4474 0.31176 3.4374 1.4062 1.385 1.5303 1.5273 2.3411 0.6563 3.9688-0.6045 1.1295-1.0355 4.3296-0.9375 7.0938 0.1777 5.0208-1.844 9.0312-4.5625 9.0312-0.6173 0-3.3591 1.9637-6.0937 4.375-4.9502 4.3639-4.9584 4.3941-3.0626 6.5 1.9946 2.2153 4.5938 2.8311 4.5938 1.0938 0-0.99859 5.786-4.9618 7.25-4.9688 1.1474-6e-3 0.9014 2.9769-0.7812 9.5312-1.4774 5.7496-5.85 11.402-8.875 11.5-0.6142 0.0198-2.3694 1.0932-3.9376 2.375-4.8211 3.9448-2.2563 7.606 3.5938 5.125 2.4244-1.0282 2.2904 1.4891-0.25 4.7188-2.3629 3.0039-2.5313 5.0536-0.5625 6.6875 2.2377 1.8572 6.0746-1.2601 9.25-7.5312 1.5045-2.9713 3.0398-5.4062 3.4375-5.4062 0.3976 0 1.6954 1.3435 2.875 3 1.1795 1.6565 2.6117 2.7308 3.1875 2.375 1.4944-0.92361 0.2269-10.118-1.6563-12-1.9172-1.9184-1.9285-7.0578-0.031-10.375 0.786-1.375 1.4474-3.7075 1.4688-5.1875 0.058-4.4588 1.7435-4.2189 8.0312 1.25 5.8507 5.0888 6.0514 5.201 8 3.4375 1.0984-0.99408 2-2.4341 2-3.1875 0-1.8074-8.2685-9.4302-12.312-11.344-3.0545-1.4454-3.236-1.8546-4.3125-10.031-1.5624-11.867-1.3994-13.182 1.9375-14.781 3.52-1.6866 7.156-0.82858 10.125 2.375 1.2537 1.3528 2.726 2.4688 3.2813 2.4688 1.3532 0 13.084 9.3893 16.531 13.25 1.5158 1.6979 2.75 3.9053 2.75 4.9062s0.3462 1.8438 0.7812 1.8438c0.4366 0 1.3135 1.9125 1.9376 4.25 0.9239 3.4601 0.8512 4.5272-0.3126 5.8125-0.7853 0.86831-1.4062 2.1187-1.4062 2.7812 0 0.66253-1.575 2.7938-3.5 4.7188s-3.5 3.9523-3.5 4.5312c0 0.62447-1.7288 0.91806-4.25 0.71875-3.6866-0.29145-4.2495-0.0484-4.2812 1.6875-0.072 3.8729-1.2102 4.4414-5.4376 2.7812-5.2124-2.0479-7.0312-1.2382-7.0312 3.125 0 2.2423-1.1181 5.12-3.125 8.0938-2.7737 4.1097-3.4878 4.5979-6.4375 4.3438-3.4876-0.30047-7.4375 2.2514-7.4375 4.8125 0 0.75337-1.1853 1.8276-2.625 2.375-1.4397 0.54738-3.7405 1.8798-5.125 2.9688-1.3844 1.089-3.1604 2-3.9375 2-1.8008 0-6.3125-4.825-6.3125-6.75 0-0.93839-0.5801-1.2447-1.625-0.84375-3.212 1.2326-4.375-1.3025-4.375-9.5 0-5.868-0.3916-8.036-1.5-8.6562-1.2929-0.72356-1.2615-1.4647 0.25-6.0312 0.9956-3.0078 2.492-5.4857 3.5-5.8125 1.1957-0.38768 1.75-1.602 1.75-3.8438 0-2.8602-0.5127-3.4899-4-5.0625-3.0338-1.3681-4-2.3903-4-4.1875 0-1.5571-0.8572-2.7515-2.5-3.5-3.0888-1.4073-3.1458-3.0207-0.25-6.9375 2.0878-2.8239 2.1091-3.1278 0.5312-4.2812-1.4873-1.088-1.4975-1.4385-0.2187-2.6875 0.8031-0.78432 2.5675-2.8327 3.9375-4.5625 2.4499-3.0933 4.9377-3.9206 13.812-4.625 1.5512-0.12312 3.2739-1.0062 3.8125-1.9688 0.6029-1.0773 1.3857-1.6474 2.25-1.6875zm-183.62 2.2188c-0.1928 0.0777-0.5489 0.67711-1.1562 1.8438-2.13 4.0801-0.9792 7.7097 2.75 8.6562 2.2333 0.56728 4.0673 2.2177 6.3437 5.75 1.7556 2.7241 4.3431 6.3683 5.75 8.0938s2.5908 3.9755 2.6563 5c0.103 1.6745 0.1828 1.6971 0.5937 0.125 0.2514-0.96187-1.1467-4.3862-3.0937-7.5938-1.9493-3.2076-3.8967-6.6945-4.3438-7.75-1.7821-4.2071-4.8637-8.4192-7-9.5625-1.239-0.66311-2.25-2.1367-2.25-3.2812 0-0.92025-0.057-1.359-0.25-1.2812zm-65.438 0.0625c-0.8969 0.19466-1.0725 2.3935-0.8125 6.6562 0.3117 5.1106 0.089 6.1477-1.5625 7.0312-1.0632 0.56899-1.9375 1.8456-1.9375 2.8438 0 0.99812-1.35 3.691-3 5.9688-3.3008 4.5566-3.7779 7.2552-1.5625 9.0938 1.9773 1.641 6.4878-1.5859 6.5313-4.6875 0.017-1.2375 0.4812-2.25 1.0312-2.25 0.8869 0 1.6352 8.9204 0.9688 11.5-0.1436 0.55-0.3107 4.4097-0.375 8.5938-0.072 4.6387-0.6375 8.2248-1.4376 9.1875-0.9909 1.1944-1.0235 2.0948-0.1874 3.6562 1.5045 2.8113 3.677 2.5961 4.4374-0.4375 1.0643-4.2359 3.1215-2.947 5.5938 3.5 0.7382 1.925 2.2086 4.7375 3.25 6.25 2.1151 3.0719 3.8972 3.4759 5.7188 1.2812 0.9755-1.1762 0.9126-1.8061-0.3438-3.0625-0.865-0.8649-2.0905-3.4683-2.7188-5.7812-1.4076-5.1954-2.4804-8.6531-3.4062-10.938-0.5005-1.2349-0.259-1.75 0.875-1.75 0.8838 0 1.625 0.43143 1.625 0.96875s1.1833 1.7429 2.625 2.6875c2.4987 1.6372 2.6857 1.6412 4-0.15625 1.9241-2.6313 1.7477-3.0923-1.5-4.4375-1.5719-0.65113-4.6094-2.9964-6.75-5.1875-3.7263-3.8144-3.8963-4.3214-4.375-11.938-0.275-4.3749-0.12-7.9379 0.3438-7.9375 0.4622 3.9e-4 1.9764 0.9 3.375 2 3.038 2.3901 7.1023 2.616 7.9374 0.4375 0.712-1.8551-4.8633-7.0783-8.6562-8.0938-3.1271-0.83722-4.2069-2.4136-2.8125-4.0938 0.7955-0.95851 0.3212-2.386-1.8125-5.5312-2.5539-3.7649-4.1656-5.5697-5.0625-5.375zm108.31 1.8125c-0.1333 0.0258-0.3064 0.16003-0.5 0.375-1.1848 1.3158-4.125 10.895-4.125 13.406 0 1.5139-0.6632 2.0625-2.4375 2.0625-1.3292 0-2.5667-0.3977-2.75-0.875-0.1833-0.47729-1.4375-1.212-2.8125-1.625l-2.5-0.75 2.75 2.9375c1.5125 1.6079 2.75 3.6877 2.75 4.6562s0.4624 2.6549 1.0312 3.7188c1.5983 2.9846 2.6287 2.3459 4.3438-2.6875 0.8671-2.5449 2.2388-5.1324 3.0312-5.75 0.9271-0.72053 1.5021-3.2753 1.625-7.125 0.2105-6.4883 0.1714-8.4556-0.4062-8.3438zm-51.625 15.844c1.1 0 2 0.60885 2 1.375 0 1.5084-2.4334 2.8482-3.4062 1.875-1.3182-1.3169-0.4764-3.25 1.4062-3.25zm-12.688 0.125c0.1318 5e-3 0.284 0.0329 0.4375 0.0625 0.9625 0.18536 1.75 1.0026 1.75 1.8125s-0.7875 1.6271-1.75 1.8125c-1.2279 0.23646-1.75-0.30635-1.75-1.8125 0-1.3179 0.39-1.9095 1.3125-1.875zm138.5 6.125c1.0774-0.14093 2.1875 0.84614 2.1875 2.3125 0 1.6836-2.5823 1.9298-3.5625 0.34375-0.3695-0.59793-0.2197-1.5608 0.3437-2.125 0.3166-0.31541 0.6722-0.48427 1.0313-0.53125zm9.875 4.875c0.7913-0.0178 1.3125 0.46641 1.3125 1.2812 0 0.92763-0.8646 1.5938-2.0938 1.5938-2.4359 0-2.1024-2.3572 0.4063-2.8438 0.1234-0.0239 0.262-0.0288 0.375-0.0312zm-125.53 1.375-0.094 2.8125c-0.043 1.5487 0.3999 3.6862 0.9687 4.75 0.6667 1.2446 2.0924 1.9375 4 1.9375 3.7944 0 3.7875-1.4317 0-3-1.6214-0.67211-3.3722-2.4179-3.9062-3.875zm-26.594 0.5c2.2109 0 1.7025 3.3911-0.875 5.8125-2.7056 2.5418-7.6875 2.9695-7.6875 0.65625 0-0.89107 1.2318-1.7779 2.9688-2.125 1.673-0.33475 3.227-1.4089 3.5624-2.4688 0.3295-1.0345 1.2433-1.875 2.0313-1.875zm133.31 0.3125c4.6155 0.13893 12.125 2.3566 12.125 3.6875 0 0.40653 1.1287 0.75 2.5312 0.75 1.404 0 3.5652 0.92 4.7813 2.0625s3.77 2.7988 5.6875 3.6875c5.0372 2.3346 11.062 5.673 14.5 8.0312 1.6428 1.1268 4.2659 2.5856 5.8125 3.25 1.5465 0.66441 4.3506 2.46 6.25 3.9688 3.3841 2.6882 3.4607 2.8511 2.8437 8.3438-0.6959 6.2193 0.5748 9.9062 3.4376 9.9062 2.6005 0 6.1562 3.6877 6.1562 6.4062 0 2.2498 0.1775 2.314 4 1.3438 4.8391-1.2283 7.293 0.21887 6.4062 3.75-0.3143 1.2521-0.094 2.57 0.5 2.9375 0.5958 0.36746 1.0938 1.3325 1.0938 2.125 0 2.623-3.8625 1.4697-6.4375-1.9062-6.1756-1.1907-8.4018-2.5662-11.062-3.9375-2.3539-0.80724-6.4398-5.0505-16.219-15.562-11.776-12.661-17.464-18.156-18.75-18.156-0.3777 0-2.633-1.35-5.0312-3s-4.6323-3-4.9688-3c-0.3351 0-1.8535-0.85384-3.3437-1.875-5.5144-3.7786-8.5092-5.7029-12.062-7.7188-5.1114-2.8998-4.7578-4.8617 0.875-5.0625 0.279-0.01 0.5673-0.0405 0.875-0.0312zm-14.375 2.7812c1.2355-0.0316 2.7432 0.67771 4.7812 2.1562 1.707 1.2375 5.2247 3.375 7.8126 4.75 5.8161 3.0914 15.906 10.722 15.906 12.031 0 0.53265 0.4446 0.96875 1 0.96875 3.1804 0 25.929 21.573 25.969 24.625 0.01 0.62335 0.9312 1.3686 2.0312 1.6562s2 1.1918 2 2.0312c0 0.83943 0.9 1.8384 2 2.1875s2 1.2077 2 1.9375 1.2375 2.6644 2.75 4.2812c6.1308 7.5302 6.2953 4.9681 7.625 10.5-0.8417 1.6276-1.3963 3.0687-1.2188 3.2188 0.1791 0.15002 2.0546 1.0823 4.1563 2.0625 3.3602 1.567 3.728 2.0917 3.1563 4.375-0.3587 1.4281-1.0369 3.0917-1.5313 3.6875-0.5187 0.62496-4.9886 2.2805-10.219 3.9375-32.976 11.258-53.817 14.129-85.375 12.125 4.4636-2.7758 6.2545-7.7066 9.4374-14.562 3.3986-7.3183 3.5073-7.9909 3.5626-19.562 0.048-10.321-0.2547-12.68-2.1563-16.875-1.216-2.6824-2.1875-5.5205-2.1875-6.2812s-1.8-5.0136-4-9.4688-4-8.9534-4-10-0.5677-2.8137-1.25-3.9062c-0.9874-1.5811-0.9874-2.3877 0-3.9688 0.6823-1.0925 1.25-3.1439 1.25-4.5625 0-3.3656 1.6861-6.4375 3.5312-6.4375 1.7899 0 1.9069 3.297 0.2188 6-0.9828 1.5739-0.9749 2.4076 0 3.9688 1.0515 1.6836 0.9172 2.1346-0.875 3.0938-2.4086 1.2891-1.5218 2.6079 2.0938 3.0938 2.7572 0.37068 4.1982 3.8438 1.5937 3.8438-2.4607 0-1.8284 1.9365 0.9687 3 3.1332 1.1909 4.032 3.418 2.6563 6.4375-1.2548 2.7538 0.074 4.5625 3.3437 4.5625 1.1803 0 2.9685 0.89465 3.9688 2 1.5484 1.7109 1.6341 2.3728 0.5625 4.375-1.021 1.9081-1.0185 2.7337 0.062 4.4688 1.0808 1.7306 1.9561 2.026 4.5938 1.5312 2.8931-0.54281 3.2812-0.36937 3.2812 1.625 0 1.2356-1.2165 3.3867-2.6875 4.75l-2.6563 2.4688 2.4063 1.9062c1.3335 1.0413 3.2178 1.6982 4.1875 1.4688 3.9747-0.94045 4.6352 6.6533 0.6875 7.9062-4.1576 1.3196-1.5693 6.5 3.25 6.5 2.4179 0 2.8125 0.39005 2.8125 2.875 0 3.2674-2.2346 5.6193-4.5 4.75-0.838-0.32161-2.8872-0.2973-4.5312 0.0312-2.6332 0.52657-2.9688 0.99168-2.9688 4.0625 0 3.4323 0.045 3.9178 3.4375 3.625 2.862-0.24699 4.2285 0.33212 5.3442-0.20593 4.4082-2.126 2.8578 8.2968 3.3967 8.5823 1.6939 0.89754 4.3273 1.5296 5.7958 0.29627 0.7485-0.62858-3.9664-9.112 4.4837-9.4931 9.4135-0.42453 15.697-0.0448 19.679-1.1843 1.088-0.31138 2.8729-0.8682 2.8179-0.0338-0.3456 5.2368 3.7127 4.108 4.9083 3.6227 1.398-0.56744 0.054-5.6929 3.0748-5.0217 0.029 6e-3 0.036-0.05 0.062-0.0625 0.018-9e-3 0.043 5e-3 0.062 0-0.5825-0.0648-0.5571-0.6875 0.094-0.6875h0.031c0.1889-2e-4 0.3735-7.4e-4 0.5625 0 1.3591-1.3303 7.6857-4.8776-2.75-5.875-4.015-0.38372-2.4813-3.5357 0-5.7812 4.2388-3.836 1.5475-9.2184-4-8-3.6775 0.80773-8-1.5998-8-4.4375 0-2.1705 2.2433-3.2817 4.6875-2.3438 1.4077 0.54016 1.3458 0.12942-0.4375-2.375-3.4244-4.8091-4.8107-5.647-7.1875-4.375-3.5602 1.9054-8.426-2.39-5.0625-4.4688 1.6181-1 1.139-3.361-1.125-5.625-1.6865-1.6865-2.8657-1.9812-5.875-1.5-2.9131 0.46582-4.3445 0.12848-6.375-1.4688-3.0037-2.3627-3.2622-3.58-1.1562-5.9062 1.2895-1.426 1.3137-1.9242 0.094-3.5938-1.067-1.4583-2.6204-1.9275-6.4063-1.9375-5.9112-0.0148-7.0733-0.815-4.8124-3.3125 0.913-1.0092 1.6562-2.1137 1.6562-2.4688 0-1.3871-5.6807-3.4733-8.1562-3-3.5408 0.67687-4.8723-1.6136-2.0313-3.5 3.16-2.0982 2.7002-3.0909-1.8125-3.8125-4.44-0.70999-4.4415-0.72105-2.9375-3.5312 0.7786-1.4547 0.7427-2.3608-0.125-3.4062-0.9249-1.1144-0.9011-1.7735 0.062-2.9375 0.7547-0.90934 1.5391-1.3817 2.5-1.4062zm-38.469 6.9062c2.363 0 2.5444 2.237 0.375 4.4062-1.8768 1.8768-1.7155 1.8783-3.1562 0.4375-1.602-1.602 0.2586-4.8438 2.7812-4.8438zm14.969 0.40625c1.3307 0.10377 1.3696 1.0593-0.25 2.3125-2.0554 1.5904-4.3736 2.1366-5.6562 1.3438-1.5707-0.97022 0.3252-2.5536 4.1562-3.4688 0.7158-0.17101 1.3064-0.22209 1.75-0.1875zm-21.562 1.5938c0.2425 0 0.7226 0.45 1.0625 1s0.145 1-0.4375 1-1.0625-0.45-1.0625-1 0.1949-1 0.4375-1zm-70.375 1.3125c10.254-0.17728 13.899 0.84409 10.562 2.9688-4.7491 3.0243-18.303 12.639-19.875 14.094-0.9625 0.8908-2.2 1.625-2.75 1.625-1.5491 0-1.0804-4.2309 0.55399-4.8581 1.095-1.0933 1.6584-4.6608 1.6335-6.3607l0.3125-7.2812zm72.938 2.6875c0.55 0 1 0.41996 1 0.9375s-0.45 1.2226-1 1.5625-1-0.08-1-0.9375c0-0.85746 0.45-1.5625 1-1.5625zm15.75 3.7188c0.5261-9e-3 1.0154-4e-3 1.4375 0 2.5328 0.0252 3.3483 0.39312 3.5313 1.2812 0.168 0.825-0.5041 2.005-1.5 2.625-2.1014 1.306-10.902 2.432-13.469 1.7188-2.2873-0.63554-2.2595-3.0372 0.062-4.2812 1.0087-0.5398 4.7104-1.1142 8.2187-1.2812 0.6309-0.03 1.1927-0.0533 1.7188-0.0625zm-20.312 1.2812c0.3023 0 0.5625 0.60123 0.5625 1.3438 0 2.0898-10.693 10.887-18.844 15.5-7.9923 4.5249-9.1562 4.8525-9.1562 2.7188 0-1.3274 8.1329-6.5625 10.188-6.5625 0.5176 0 2.3745-1.5154 4.125-3.3438 1.7506-1.8284 3.975-3.6144 4.9375-3.9688 0.9625-0.35435 1.75-1.1031 1.75-1.6562 0-0.89201 5.0193-4.0312 6.4375-4.0312zm44.562 0c0.55 0 1 0.45 1 1s-0.45 1-1 1-1-0.45-1-1 0.45-1 1-1zm-102.94 4.3125c1.1007-0.0298 1.9375 0.9951 1.9375 2.75 0 1.4037-0.692 1.9375-2.5 1.9375-2.7874 0-3.35-2.0703-1.0625-3.9688 0.5695-0.47263 1.1247-0.70519 1.625-0.71875zm106.31 2.6875c2.6636 0 5.1452 2.3396 4.1562 3.9375-0.9774 1.5833-3.0294 1.2569-4.875-0.78125-2.2418-2.4779-2.0883-3.1562 0.7188-3.1562zm-22.625 0.375c0.8793-0.0339 1.6567 0.55839 3.125 2.0312 2.2222 2.229 2.3948 2.7863 1.125 3.5938-0.825 0.52461-3.1316 0.96075-5.125 0.96875-1.9933 8e-3 -5.437 0.65444-7.6562 1.4375-2.2206 0.7831-4.3039 1.1661-4.625 0.84375-0.3225-0.32233-2.5548-0.49755-4.9688-0.40625-5.0468 0.19089-9.2291-2.3882-7.7188-4.75 0.6594-1.0284 3.6271-1.4416 11.25-1.5625 6.2627-0.0993 11.282-0.68714 12.719-1.4688 0.7972-0.43358 1.3474-0.66716 1.875-0.6875zm-91.031 5.6875c1.3976 0.0488 2.5896 0.63232 3.1874 1.75 1.1933 2.2275 1.6876 12.382 0.6876 14-0.9674 1.5641-5.5551 1.518-5.7813-0.0625-0.098-0.6875-0.211-3.275-0.25-5.75-0.061-3.8795-0.3728-4.5683-2.3125-4.8438-2.8523-0.40501-2.8672-1.6402-0.031-3.625 1.4909-1.0447 3.1014-1.5176 4.5-1.4688zm123.59 5c1.3419-0.10901 3.1202 0.49644 4.8125 1.9062 2.2237 1.8525 2.2588 1.9558 0.375 2-1.1 0.0258-3.0192 0.32636-4.25 0.65625-1.5148 0.40602-2.4356 0.091-2.8438-0.96875-0.8251-2.1532 0.181-3.4536 1.9063-3.5938zm-65.844 0.40625c1.014 5e-3 2.2159 0.18385 3.7187 0.5625 10.667 2.6878 14.285 3.1193 17.781 2.0938 4.2934-1.2599 10.493-2.3224 14.531-2.5 2.696-0.11858 3 0.17901 3 2.875 0 2.7206-0.2794 2.9701-3 2.75-1.65-0.13347-5.25 0.3998-8 1.1875-2.75 0.78769-6.575 1.5772-8.5 1.75-5.6026 0.50303-16.324-0.15202-18.5-1.125-1.1-0.49182-2.7875-1.1299-3.75-1.4375-2.3561-0.75299-2.2458-4.3228 0.1875-5.625 0.6867-0.36755 1.5159-0.5364 2.5313-0.53125zm-66.781 0.53125c0.2238-0.014 0.4605 0 0.75 0 1.4251 0 2.9341 0.82448 3.5313 1.9375 1.4601 2.7287 1.3069 10.031-0.2188 10.5-0.6875 0.21128-3.531 0.62326-6.3125 0.90625-4.8468 0.49311-5.1128 0.38776-6.1563-2.375-0.8777-2.3259-1.6344-2.851-3.9062-2.6875-1.9803 0.14251-2.9017-0.30038-3.1562-1.5312-0.2645-1.2769 0.2681-1.75 2-1.75 1.3043 0 2.9017-0.52684 3.5312-1.1562 1.7131-1.7131 7.25 0.81435 7.25 3.3125 0 1.1628 0.4289 1.6921 1.0938 1.2812 0.6853-0.42434 0.8828-2.161 0.5-4.5625-0.5081-3.1702-0.473-3.7774 1.0937-3.875zm40.812 1.125c0.228-3e-3 0.476-8e-3 0.75 0.0312 1.2375 0.17575 2.1961 0.79375 2.1562 1.3438-0.086 1.2179-2.7472 1.8153-3.7187 0.84375-1.2358-1.2357-0.7838-2.2 0.8125-2.2188zm-9.6875 1.875c3.4829 0 4.5283 0.89003 3.0625 2.6562-1.3146 1.584-1.8026 1.6027-4.125 0.25-2.6256-1.5293-2.1305-2.9062 1.0625-2.9062zm20.188 4.625c3.5261-0.0677 8.2496 0.95309 12.5 2.8438 8.1965 3.646 18.355 5.425 24.875 4.375 3.314-0.53367 6.9986-0.72822 8.1562-0.4375 1.1597 0.29072 3.0755-0.1554 4.2813-1 1.2059-0.84459 3.6547-1.3907 5.4375-1.2188 2.7265 0.26304 3.2892 0.73746 3.5625 3.125 0.3937 3.4387-2.2128 6.6875-5.4063 6.6875-1.2572 0-2.5307 0.35649-2.8124 0.8125-0.8673 1.4014-11.13 3.4489-14.719 2.9375-1.865-0.26574-5.625-1.2904-8.375-2.2812s-7.9458-2.8373-11.531-4.125c-8.0299-2.8828-15.001-2.9668-20.969-0.25-9.3571 4.2596-24.372 5.9332-34.219 3.8438-5.2572-1.1157-6.1847-1.0189-11.312 1.0625-4.1885 1.6996-5.8972 1.9788-6.75 1.125-1.2328-1.2321-4.9172-1.467-8.4063-0.53125-1.8262 0.4898-2.1505 1.2364-2 4.625 0.1047 2.3582-0.3106 4.2248-1 4.4688-1.5186 0.53732-3.5005-3.1067-2.75-5.0625 0.3419-0.89092-0.211-1.9235-1.4063-2.5625-1.9353-1.0364-1.9216-1.1721 1.0313-4.125 2.6451-2.6451 3.4202-2.9163 5.7813-2.0938 1.5404 0.53745 3.3405 0.57812 4.125 0.0937 0.7608-0.47094 2.3527-0.60826 3.5312-0.3125 1.1862 0.29774 3.9497-0.38961 6.1875-1.5312 2.2229-1.1341 5.7419-2.074 7.8437-2.0625 8.8424 0.0482 22.03-1.7262 22.875-3.0938 0.3207-0.51822 1.6658-0.9375 3-0.9375 3.3981 0 11.467-1.9933 14.563-3.5938 0.9601-0.49703 2.3034-0.75048 3.9062-0.78125zm93.906 1.4688c1.5353 0.0318 3.0316 0.3356 4.1563 0.9375 1.8624 0.99673 2.729 3.9105 1.1875 4-0.4125 0.024-2.6957 0.41746-5.0625 0.875-4.2251 0.81681-7.1875-0.417-7.1875-2.9688 0-1.7554 3.5312-2.9138 6.9062-2.8438zm-163.91 0.90625c1.8976 0 3 0.49388 3 1.375 0 1.628-1.773 2.394-4.25 1.8438-3.0313-0.67341-2.041-3.2188 1.25-3.2188zm232.19 0.28125c0.1976-7e-3 0.6776 0.16506 1.1563 0.3125-0.3249 0.0406-0.4998 0.0439-0.875 0.0937-0.4058-0.28983-0.4363-0.40038-0.2813-0.40625zm-316.53 0.71875c0.032-0.0124 0.085-6e-3 0.125 0 0.5674 0.0873 2.1132 1.3729 3.7188 3.125 1.835 2.0024 4.6753 4.4522 6.3438 5.4375 1.6669 0.98532 4.0412 3.1479 5.25 4.7812 1.9103 2.585 2.0277 3.3694 1.0312 6.125-0.6296 1.7411-1.125 4.0328-1.125 5.0938s-0.902 3.3867-2 5.1875c-1.0979 1.8008-2 4.5796-2 6.1562s-0.912 4.8212-2 7.2188c-1.0879 2.3976-1.988 5.596-2 7.0938s-0.9935 4.7299-2.1875 7.1875c-1.8039 3.713-1.9497 4.7363-0.875 6.0312 0.7114 0.85712 1.9299 1.5625 2.6875 1.5625 0.7577 0 1.375 0.68398 1.375 1.5312s0.986 2.8952 2.2188 4.5625c3.1467 4.2572 20.866 22.164 23.281 23.531 3.4343 1.945 1.0562 2.4384-2.5625 0.53125-7.1965-3.7927-23.461-13.622-23.781-14.375-0.1823-0.43302-0.9651-0.78125-1.75-0.78125-0.7835 0-3.355-1.3859-5.6874-3.0625-4.9982-3.592-22.719-20.805-22.719-22.062 0-0.47737 4.6852-5.6184 10.406-11.438 11.846-12.048 11.321-10.737 11.5-29.875 0.068-7.1162 0.3805-13.193 0.6876-13.5 0.019-0.0192 0.035-0.0501 0.062-0.0625zm28.344 6.0938c0.8384 0 3.0848-0.0492 5 1.25 1.9151 1.2992 8 4.2037 13.5 6.4375 10.721 4.3544 17.506 7.6663 21.469 10.469 1.3596 0.96168 3.586 1.75 4.9374 1.75 2.1327 0 11.792 3.3284 21.594 7.4688 1.65 0.69698 5.025 1.8788 7.5 2.5938 2.475 0.71501 4.95 1.6295 5.5 2.0312 0.55 0.40175 3.851 1.4405 7.3438 2.3438 3.4909 0.90322 7.0902 2.056 8 2.5312 2.6132 1.3673 12.188 3.8212 17.656 4.5312 2.75 0.35706 6.0005 1.2804 7.2188 2.0625 1.2169 0.78214 3.4067 1.4375 4.875 1.4375 1.4669 0 4.2923 0.40106 6.2812 0.90625 10.025 2.5466 21.28 3.2862 47.781 3.1875 15.491-0.0577 29.216-0.48807 30.5-0.96875 2.5444-0.95176 13.773-2.608 15.219-2.25 0.4922 0.12189 2.9672-0.44701 5.5-1.25 6.0113-1.9058 13.79-3.8276 17.875-4.4062 1.7926-0.25392 3.5101-0.85452 3.8125-1.3438 0.3023-0.48923 1.77-0.89415 3.25-0.90625s4.6323-0.91208 7.0313-2c2.3967-1.0879 5.6123-1.9688 7.125-1.9688 3.2609 0 22.853-7.1288 27.5-10 1.7871-1.1048 4.0089-2 4.9062-2s3.7622-1.1111 6.375-2.4688c6.5839-3.4211 17.762-8.5312 18.656-8.5312 0.4088 0 2.6956-1.35 5.0938-3s4.9736-3 5.75-3c0.7938 0 1.9729 1.8334 2.6875 4.2188 0.699 2.3329 1.8927 5.1293 2.6563 6.2188 0.762 1.0895 1.3962 3.1411 1.4062 4.5312s0.7282 5.0062 1.5938 8.0312c0.8641 3.025 2.623 10.522 3.9062 16.688 1.2831 6.1653 2.6045 11.649 2.9375 12.188 1.0415 1.6851-0.6164 9.125-2.0313 9.125-0.7264 0-3.3043 1.35-5.75 3-2.4447 1.65-5.3482 3-6.4374 3-1.0906 0-2.5341 0.675-3.2188 1.5s-2.0148 1.5-2.9375 1.5c-0.9226 0-2.1025 0.40014-2.625 0.90625s-3.6375 1.8783-6.9375 3.0625-8.3178 2.9842-11.156 4c-2.8406 1.0158-6.2648 2.5667-7.5938 3.4375-1.329 0.87082-2.7272 1.3027-3.0938 0.9375-0.365-0.36522-1.4403 0.0287-2.4062 0.875-1.6748 1.4674-5.8238 2.585-11.25 3.0625-1.375 0.121-4.3 1.1883-6.5 2.3438s-4.5305 1.8906-5.1875 1.6562c-0.657-0.23433-2.232 0.14868-3.5 0.84375s-3.6625 1.351-5.3125 1.4688-6.303 1.3897-10.344 2.8125c-4.0392 1.4228-8.2291 2.5938-9.3124 2.5938-1.0846 0-2.9314 0.50293-4.0938 1.125-1.1623 0.6221-5.7118 1.5375-10.125 2.0313-4.4131 0.4937-8.7417 1.4974-9.5938 2.25-1.0754 0.9521-5.9418 1.5628-16.031 2-26.96 1.1682-41.915 1.2722-42.875 0.3125-0.5213-0.5213-5.7471-0.8889-11.625-0.8438-7.7082 0.059-11.488-0.3484-13.594-1.4375-1.6047-0.8305-4.4057-1.4607-6.1874-1.4062-5.029 0.1537-14.678-1.584-15.969-2.875-0.6392-0.63929-2.6838-1.1563-4.5625-1.1563s-5.5137-0.67115-8.0625-1.4688-6.65-1.9537-9.125-2.5938-5.4-1.5176-6.5-1.9375c-1.1-0.41994-4.475-1.2971-7.5-1.9375-6.2186-1.3164-12.075-2.785-16.594-4.1562-1.6884-0.51273-3.7681-0.90625-4.625-0.90625-0.8548 0-2.0965-0.675-2.7812-1.5s-2.2048-1.5001-3.375-1.5c-3.4727 3.3e-4 -14.625-4.3866-14.625-5.75 0-0.75759-1.3267-1.25-3.3125-1.25-1.815 0-3.7275-0.41505-4.25-0.90625-1.7035-1.6014-12.694-7.0938-14.188-7.0938-0.8002 0-2.6327-0.86916-4.0938-1.9062-2.4036-1.7084-10.656-5.5532-10.656-4.9688 0 0.4999-10.082-5.5387-12-7.1875-1.1-0.94539-3.0125-2.031-4.25-2.4062-1.9234-0.58327-2.2473-1.3722-2.2188-5.375 0.02-2.5754 0.6828-5.7812 1.4688-7.1562s1.4474-3.7505 1.4688-5.2812c0.019-1.5308 1.1562-5.0053 2.5312-7.7188s2.5-6.1161 2.5-7.5312c0-1.4152 0.9-4.3126 2-6.4688s2-5.0944 2-6.5c0-4.3128 2.3562-9.4062 4-9.4062zm363.72 4.9062c0.596 0 1.2948 3.1575 1.5937 7.25 0.2912 3.9875 1.0539 9.275 1.6875 11.75 0.6337 2.475 1.363 6.075 1.625 8 0.9194 6.7542 1.3807 7.5241 6.4375 10.5 11.529 6.7849 19.938 12.638 19.938 13.906 0 0.74178-1.0125 2.0318-2.25 2.875-1.2375 0.84318-5.4709 4.6174-9.4062 8.375-8.3645 7.9826-19.468 15.951-27.594 19.781-3.1625 1.4906-5.75 3.1149-5.75 3.625s-0.4779 0.9375-1.0625 0.9375c-0.9489 0-11.688 4.6777-16.188 7.0625-7.4345 3.9406 1.6752-7.9347 16.906-22.062 9.0716-8.4137 11.338-12.308 7.9063-13.625-1.0818-0.4151-1.326-1.7213-0.9375-5.2188 0.3562-3.2058-0.1313-6.6623-1.5625-11.062-1.1455-3.5216-2.3691-9.4841-2.7187-13.25-0.351-3.7659-0.9599-6.8438-1.3438-6.8438-0.7907 0-3-6.8939-3-9.3438 0-0.88456 1.4625-2.3632 3.25-3.2812s4.2309-2.6226 5.4375-3.7812c4.9444-4.7475 6.0222-5.5938 7.0313-5.5938zm-132.81 1.125c3.7011 0.047 4.0938 0.46459 4.0938 1.8125 0 1.0699 0.45 2.2226 1 2.5625s1 1.27 1 2.0625c0 1.8981-7.3361 1.9436-9.2188 0.0625-0.8238-0.82476-2.6367-1.1622-4.5937-0.875-3.5456 0.52038-6.1875-1.0575-6.1875-3.6875 0-1.4471 1.293-1.7106 9-1.875 2.0787-0.0444 3.6741-0.0782 4.9062-0.0625zm-96.625 3.7812c4.43-0.0183 9.0901 0.83835 15.219 2.5625 11.184 3.1464 13.673 3.5689 17.25 3 6.0858-0.96782 12.642-2.7242 13.969-3.75 1.7733-1.3721 4.2812-0.13378 4.2812 2.125 0 2.2791-5.198 8.1562-7.2188 8.1562-0.7731 0-2.2761 0.66124-3.3437 1.4688-2.2224 1.6809-5.6062 1.9662-7 0.59375-0.5225-0.51453-3.4125-1.1958-6.4375-1.5-3.025-0.30422-7.975-0.98389-11-1.5-10.508-1.7928-20.105-1.2783-27.594 1.4375-6.2147 2.2546-8.39 2.5-22.094 2.5-9.0515 0-15.444 0.40432-15.812 1-0.7638 1.2358-3.4976 1.1768-5.5-0.0937-0.825-0.52359-3.214-1.6272-5.3125-2.4688-4.5555-1.8268-4.6342-4.201-0.1875-6.4375 2.3028-1.1582 7.1265-1.5202 21-1.5938 16.836-0.0892 18.513-0.26732 25.969-2.8125 5.1853-1.7709 9.384-2.6692 13.812-2.6875zm143.88 1.75c2.3089-0.0351 9.3123 2.0866 9.0313 2.9375-0.1616 0.48914-0.5345 1.9188-0.8437 3.1562-0.6945 2.7628-1.9052 2.8038-6.0938 0.25-2.8767-1.754-4.2053-4.7322-2.75-6.1875 0.1034-0.10338 0.3265-0.15123 0.6562-0.15625zm-207.72 0.34375c1.4689 0 0.3016 3.8852-1.75 5.8125-2.5378 2.3842-5.6875 2.9091-5.6875 0.9375 0-1.1503 6.1685-6.75 7.4375-6.75zm173.5 7.6875 1.0625 2.8438c0.8578 2.2562 0.7621 3.1126-0.5 4.375-2.1442 2.145-19.948 2.4469-23.844 0.40625-2.8867-1.5131-3.5652-4.7755-1.1874-5.6875 0.8077-0.31046 6.6445-0.8719 12.969-1.25zm-220.88 1.8125c-1.6435 0.0184-3.5097 0.48136-5.5313 1.375-3.3768 1.4937-4.2804 2.3818-3.9062 3.8125 0.3018 1.1541-0.4756 2.7592-2.0625 4.25-1.4063 1.3212-2.5625 2.9339-2.5625 3.5938 0 2.1845-5.3954 10.903-8.2188 13.281-3.9547 3.3314-3.5351 4.7884 1.6563 5.5 2.9152 0.39957 6.0956 1.8513 9.1563 4.1875 4.7998 3.6645 7.6241 3.9802 12.656 1.3438 2.158-1.1306 2.2886-2.8438 0.2188-2.8438-2.7437 0-2.6087-2.4956 0.5937-10.062 1.7315-4.0912 3.6635-8.8858 4.2813-10.656 0.6748-1.9386 2.4085-3.9411 4.375-5 1.7946-0.96707 3.2812-2.065 3.2812-2.4688s-1.7718-1.2061-3.9062-1.7812c-2.1368-0.57515-4.3947-1.6704-5.0313-2.4375-1.163-1.4013-2.887-2.1174-5-2.0938zm298.22 3.5c-0.9628 0-11.822 6.1903-13.531 7.7188-2.5202 2.2537-2.3478 7.2812 0.25 7.2812 1.8238 0 2 0.66245 2 7.5625 0 6.5305 0.3424 8.015 2.5 10.844 1.375 1.8027 2.5 3.9088 2.5 4.6875s1.1855 2.6976 2.625 4.25c3.7932 4.0908 4.9929 2.5359 5.6875-7.2812 0.3765-5.3218 1.4953-5.957 4.6563-2.5938 2.7781 2.9584 4.7862 3.2036 6.625 0.78125 2.197-2.8957 1.611-4.8045-3.0938-9.9062-2.4691-2.6774-4.49-5.4996-4.5-6.2812s-0.7251-2.1967-1.5938-3.1562c-1.548-1.7108-1.8057-2.5753-3.0312-10.156-0.3334-2.0625-0.8251-3.75-1.0938-3.75zm-180.03 1.875c2.3377 0.0308 4.3122 0.36432 5.5 1 1.1588 0.62015 3.3927 1.125 4.9688 1.125 1.5751 0 3.373 0.4668 3.9687 1.0625 0.9718 0.97184 10.351 0.87063 18.312-0.21875 1.9206-0.2628 2.5502 0.12099 2.7812 1.75 0.238 1.6602-0.5577 2.4852-3.7187 3.75-2.2204 0.88843-5.9665 1.8786-8.3125 2.1875-2.3461 0.30884-5.375 0.73296-6.75 0.9375-1.375 0.20455-4.975-0.72281-8-2.0312-6.1903-2.6776-9.236-2.9514-13.938-1.3125-2.4952 0.86984-4.176 0.82699-7.25-0.1875-3.1114-1.0269-4.4235-1.0507-5.9063-0.125-3.5652 2.2268-15.906 0.79163-15.906-1.8438 0-0.38057 3.7125-0.96 8.25-1.3125s10.632-1.5497 13.531-2.6562c3.7147-1.4168 8.5727-2.1764 12.469-2.125zm-117.88 2.5625c0.3208 5e-3 0.5992 0.13041 0.8438 0.375 0.9538 0.95486 0.9474 1.6357 0.031 2.9688-3.4003 4.9528-7.25 12.404-7.25 14 0 0.99833-0.5573 2.34-1.2188 3-2.2527 2.2533-4.7912 1.4486-4.7812-1.5312 0.011-5.6081 2.0159-9.8716 6.9688-14.75 2.9783-2.9347 4.4437-4.0764 5.4062-4.0625zm23.656 4.5625c-2.4139-9e-3 -4.2884 0.45715-4.6874 1.5-0.3202 0.83201-0.038 2.17 0.625 2.9688 0.9676 1.1671 0.6105 2.4987-1.875 6.8438-1.702 2.9737-3.0938 6.7709-3.0938 8.4062 0 2.957-1.976 5.4158-5.2188 6.5625-1.5969 0.56491-1.5969 0.84401 0 4.5938 1.0395 2.4388 2.8834 4.5816 4.7188 5.5 3.8876 1.9453 9.9209 2.0196 11.469 0.15625 1.6227-1.9564 0.6721-3.1855-3.5-4.5625-2.5906-0.85497-3.4688-1.6922-3.4688-3.3438 0-3.1582 1.8538-4.625 5.875-4.625 2.2024 0 4.3501-0.81363 5.8125-2.1875 2.9117-2.7359 2.9309-3.8264 0.062-3.8438-6.494-0.0394-8.2711-2.3476-5.1875-6.75 1.1428-1.6316 2.5641-2.2188 5.3437-2.2188 2.529 0 4.3762-0.68586 5.5938-2.0312 1.7677-1.9533 1.7682-2.0504-0.094-3.4688-2.8102-2.1441-8.3505-3.4842-12.375-3.5zm250.22 2c-0.4125-8.1e-4 -3.3356 1.2367-6.4688 2.75-5.788 2.7957-7.7812 5.3086-7.7812 9.7812 0 3.3392 1.6214 3.1016 3.5-0.53125 2.5369-4.9058 7.5-3.1081 7.5 2.7188 0 1.0199 0.9 3.6237 2 5.7812s2 5.4335 2 7.3125v3.4375l-8.125-1.3125 0.3125 5.2812c0.252 4.3839 0.6007 5.2146 2.0625 4.9688 0.9666-0.16255 2.5416 0.16043 3.5 0.71875 4.1014 2.3892 5.4667 0.94419 7.25-7.7188 1.3971-6.787 0.841-10.154-3.0938-18.969-1.0498-2.3522-1.9062-6.5147-1.9062-9.25s-0.3375-4.9679-0.75-4.9688zm-164.19 2c3.1568 0 3.9361 1.3804 1.3437 2.375-2.045 0.78521-3.9138 0.77333-4.7187-0.0312-1.2102-1.2102 0.4395-2.3438 3.375-2.3438zm184.28 2c0.6259 0 2.2443 2.0814 3.5937 4.625l2.4687 4.625-2.3124 1.875c-2.9433 2.3824-3.7772 2.3314-5.125-0.1875-1.3234-2.4712-0.26-10.938 1.375-10.938zm-238.69 5c-4.3949 0-8.182 2.6426-6.5624 4.5938 0.9701 1.1694 0.2065 2.4011-4.125 6.6562-4.6631 4.5793-5.3541 5.7604-5.5313 9.5625-0.1221 2.6204-1.0646 5.5088-2.375 7.2812-1.1931 1.6136-1.8951 3.368-1.5625 3.9062 2.0311 3.2864 10.186-2.2544 8.9688-6.0938-0.6588-2.0718 3.1013-8.8922 4.9062-8.9062 0.8056-6e-3 0.201 8.8761-1.0312 15.062-0.3954 1.9766-0.014 2.7756 1.75 3.5625 2.0163 0.90004 2.5018 0.62533 4-2.3125 0.9309-1.8286 1.9946-4.5518 2.375-6.0625 0.7889-3.1439 2.3047-5.25 3.7812-5.25 0.6573 0 0.7831 2.6206 0.3438 7.4688-0.4303 4.7416-0.275 8.2272 0.4062 9.5 1.3779 2.5746 2.344 2.5518 5.3125-0.21875 2.2821-2.1298 2.3525-2.6256 1.5625-9.125-0.6476-5.3281-0.5238-7.3242 0.5625-8.875 0.7699-1.0992 1.173-2.6296 0.875-3.4062s0.6834-3.1734 2.1875-5.3438c3.6412-5.2542 2.8437-7.2169-2.75-6.8125-3.4526 0.24962-4.3181 0.69399-4.5625 2.4062-0.1658 1.1617-1.6148 3.3682-3.2187 4.9062-2.6725 2.5592-2.9819 2.645-3.625 0.96875-0.3877-1.0093 0.083-3.9861 1.0312-6.6562 2.0321-5.7214 1.5919-6.8125-2.7188-6.8125zm193.31 0c-1.1635 0-6.9688 7.2112-6.9688 8.6562 0 0.66144 0.9335 1.3242 2.0938 1.5 2.6014 0.39455 5.1669 7.2335 4.7187 12.625-0.2479 2.9827-0.7631 3.7673-2.625 4.0312-3.5523 0.50359-4.8977-1.3589-6.125-8.4062-1.1708-6.7236-2.8537-11.406-4.0937-11.406-2.1574 0-5.0117 7.6898-3.2813 8.8438 2.4479 1.6325 4.3125 7.7882 4.3125 14.25 0 6.3914 0.1621 6.8556 2.75 8.2188 1.5125 0.79666 2.975 1.5126 3.25 1.5625 1.1394 0.20685 2.7801-1.5183 3.4375-3.625 0.3864-1.2381 1.6231-2.756 2.7813-3.375 1.7092-0.91504 2.355-0.81267 3.4062 0.625 0.7113 0.97263 1.4497 2.2655 1.6562 2.875 0.4511 1.3294 8.6328-5.4384 8.3126-6.875-0.1232-0.55-1.1654-1.4498-2.3126-1.9688-3.1237-1.4148-5.1735-5.5912-6.1874-12.688-0.9647-6.7408-3.755-14.844-5.125-14.844zm-23.469 8.5-3.9375 0.21875c-2.1683 0.13332-4.4153 0.69582-4.9687 1.25-0.5553 0.55419-2.2423 1.0312-3.75 1.0312-3.1042 0-5.8438 3.1315-5.8438 6.6875 0 1.7522 0.5139 2.2155 2.25 2.0312 2.0825-0.22097 2.2897 0.3241 3.0938 7.2812 1.0268 8.9102 1.0613 12.378 0.125 16.75-0.462 2.154-0.2522 3.7884 0.625 4.8438 1.1929 1.438 1.5216 1.3574 3.4687-0.90625 2.6069-3.0308 3.8961-10.343 2.4687-14.094-0.5697-1.4983-1.3095-5.7701-1.6562-9.5-0.5244-5.6419-0.3752-6.9025 0.9375-7.4062 1.0672-0.40955 1.7721 0.10637 2.1875 1.5938 0.3377 1.2094 0.9785 3.1188 1.4375 4.2188 0.992 2.3774 2.687 10.935 3.5937 18.25 0.3587 2.8875 1.0635 5.25 1.5626 5.25 0.497 0 0.9062-0.5625 0.9062-1.25s0.6708-2.5663 1.5-4.1562c1.1106-2.1296 1.2731-3.7096 0.5938-6-0.5082-1.71-1.3926-4.6688-1.9688-6.5938-1.7231-5.7562-2.4885-10.242-2.5625-15zm-133.78 1.5c-0.8201 0-2.0341 0.675-2.7188 1.5s-2.0623 1.5-3.0625 1.5c-2.5307 0-3.5756 2.0475-1.5937 3.1562 2.2382 1.2526 2.095 6.0633-0.3438 10.844-1.1 2.1562-2 4.8578-2 6.0312 0 1.2925-0.7884 2.3394-2 2.6562-2.5018 0.65422-2.5018 2.1142 0 5.3125 1.0755 1.375 1.9561 3.0324 1.9688 3.6875 0.041 2.2354 1.9055 2.3325 5.2187 0.3125 4.2396-2.5848 6.8125-2.6004 6.8125-0.0625 0 1.0727 0.7875 2.4082 1.75 2.9688 2.5072 1.4603 4.25 1.3037 4.25-0.375 0-0.79767 0.7395-1.8612 1.6562-2.375 1.3945-0.77976 1.4919-1.4205 0.5626-3.8125-0.6139-1.5761-0.9184-4.6438-0.6876-6.8438 0.4753-4.495 3.5718-16.337 4.7813-18.25 1.8528-2.9308-1.3491-4.0989-5.75-2.0938-1.9799 0.90211-2.5213 1.8318-2.4063 4.25 0.2337 4.8943-1.9692 15.858-3.375 16.75-0.7015 0.44591-2.1114 0.8045-3.125 0.8125-1.9511 0.0162-1.9583 0.80304-0.3124-14.969 0.1997-1.925 0.7133-5.1875 1.125-7.25 0.5942-2.9884 0.4353-3.75-0.75-3.75zm106.5 3.0938c-0.4267-0.0152-0.9418 0.22042-1.5313 0.6875-0.6634 0.52563-2.9385 1.2731-5.0625 1.6562-2.1239 0.38317-5.0258 1.8383-6.4375 3.25-2.5006 2.5007-2.5039 2.5948-0.625 3.9688 2.1605 1.5799 2.1173 4.2862-0.1563 11.125-1.6476 4.9608-1.8594 11.821-0.4062 12.719 1.3903 0.85927 1.2364 5.8276-0.2188 7.2812-0.9318 0.93333-0.9261 1.2188 0.063 1.2188 1.7065 0 8.1562-4.9922 8.1562-6.3125 0-1.7446 3.1857-4.6875 5.0625-4.6875 1.2706 0 1.9488 1.1074 2.4375 4 0.3717 2.2 1.0019 4 1.4062 4 0.7962 0 4.3446-3.7077 5.5-5.75 0.7224-1.274-2.9576-13.075-5.9374-19.031-1.2105-2.4163-1.4928-4.5788-1-8.1562 0.519-3.7762 0.026-5.9232-1.25-5.9688zm-76.344 2.9375c-2.1392 0.0841-4.1813 0.5606-5.9375 1.4688-4.146 2.1441-4.1027 5 0.062 5 2.2751 0 2.4815 0.35923 2.3438 4-0.2414 6.2873-3.3376 20.769-4.9688 23.281-0.8138 1.253-1.2053 2.7155-0.875 3.25 0.3303 0.53446 1.9136 0.96875 3.5 0.96875 3.5246 0 6-3.167 6-7.6562 0-3.5032 1.3646-4.4725 4.5938-3.2812 1.7237 0.63599 2.7898-0.0779 5.9374-3.8438 7.9665-9.5302 8.5268-13.103 2.8126-18.344-3.587-3.2883-8.7625-5.0287-13.469-4.8438zm40.375 1.375c-0.7526-0.0524-1.6447 0.42269-3.1562 1.5-2.5333 1.803-2.8304 2.5248-2.1563 4.875 0.4335 1.5116 0.5551 9.3637 0.2813 17.469-0.3062 8.9999-0.1432 14.75 0.4374 14.75 1.1456 0 5.6511-4.7516 7.0938-7.4688 0.6271-1.1809 0.7102-2.8439 0.1875-4.2188-1.1963-3.1465 0.3461-3.695 2.8437-1.0312 1.4013 1.4931 2.1954 3.8294 2.4063 7.1875 0.2391 3.8067 0.7277 5.0903 2.0625 5.3438 1.057 0.20072 1.75-0.28237 1.75-1.2188 0-0.85265 1.0707-2.2704 2.375-3.125 2.207-1.446 2.2675-1.8016 1.125-5.125-0.6753-1.9642-1.6334-3.8536-2.125-4.2188-0.4916-0.36509-2.1378-2.071-3.6875-3.7812l-2.8437-3.0938 2.5937-2.7812c1.4122-1.5238 2.5625-3.5999 2.5625-4.625s0.9-2.6519 2-3.5938c1.9796-1.695 2.7128-5.7008 1.2188-6.625-0.4271-0.26334-2.3388-0.14676-4.25 0.25-3.1531 0.65446-3.4913 1.0277-3.5 4.1562-0.014 4.6019-1.2742 7.9688-3.0313 7.9688-1.421 0-1.9629-2.7332-1.5625-8.0938 0.1065-1.4256-0.4833-3.1556-1.3125-3.8438-0.4621-0.38356-0.861-0.62482-1.3125-0.65625zm-35.781 5.0625c0.7545-0.0889 1.7204 0.25426 2.9062 1.0312 3.2552 2.1329 3.3858 5.4253 0.3125 8.3125-3.4071 3.2009-4.3826 2.7196-5-2.5625-0.5016-4.2913 0.1188-6.5858 1.7813-6.7812zm-155.03 1.5625c0.8834 0.086 2.9706 1.035 5.4687 2.5 3.2561 1.9077 6.8053 3.4688 7.875 3.4688 1.0716 0 3.0703 0.9 4.4688 2 1.3984 1.1 3.2812 2 4.1562 2 0.8771 0 1.5938 0.45 1.5938 1s-0.7206 1-1.5938 1c-0.8718 0-2.0959 1.35-2.7187 3s-1.6085 3-2.1875 3c-1.458 0-17.5-16.273-17.5-17.75 0-0.16862 0.143-0.24743 0.4375-0.21875zm220.81 3.0938c0.1486-9.7e-4 0.3157 0.0275 0.5 0.0625 1.3525 0.25713 1.799 1.5122 2.0312 5.5625 0.2283 3.9448-0.02 5.25-1.0624 5.25-2.2555 0-2.7188-1.0763-2.7188-6.25 0-3.6164 0.2097-4.6182 1.25-4.625zm119.62 8.875c0.718-3e-3 1.125 0.3056 1.125 0.90625 0 0.49958-2.025 3.3992-4.5 6.4375s-4.5 5.9405-4.5 6.4688c0 0.52826-0.7233 1.2287-1.5938 1.5625-2.5419 0.97585-3.4549 0.73721-4.0312-1.125-0.2979-0.9625-0.9586-2.5882-1.5-3.5938-1.163-2.16 0.2052-4.2464 3.4688-5.2812 1.1866-0.37664 3.8221-1.7366 5.875-3.0312 2.3976-1.5131 4.4596-2.3385 5.6562-2.3438z"/>
<g stroke="#c6c9ce" stroke-linecap="round" stroke-width="2">
<path transform="matrix(-.64853 .027744 .030122 .70412 -705.28 570.84)" d="m-1627.2 536.83c0 3.7534-3.3035 6.7961-7.3786 6.7961s-7.3786-3.0427-7.3786-6.7961 3.3035-6.7961 7.3786-6.7961 7.3786 3.0427 7.3786 6.7961z"/>
<path transform="matrix(-.64853 .027744 .030122 .70412 -714.01 574.68)" d="m-1627.2 536.83c0 3.7534-3.3035 6.7961-7.3786 6.7961s-7.3786-3.0427-7.3786-6.7961 3.3035-6.7961 7.3786-6.7961 7.3786 3.0427 7.3786 6.7961z"/>
<path transform="matrix(-.64853 .027744 .030122 .70412 -696.64 569.82)" d="m-1627.2 536.83c0 3.7534-3.3035 6.7961-7.3786 6.7961s-7.3786-3.0427-7.3786-6.7961 3.3035-6.7961 7.3786-6.7961 7.3786 3.0427 7.3786 6.7961z"/>
<path transform="matrix(-.64853 .027744 .030122 .70412 -711.2 544.16)" d="m-1627.2 536.83c0 3.7534-3.3035 6.7961-7.3786 6.7961s-7.3786-3.0427-7.3786-6.7961 3.3035-6.7961 7.3786-6.7961 7.3786 3.0427 7.3786 6.7961z"/>
<path transform="matrix(-.64853 .027744 .030122 .70412 -705.43 552.29)" d="m-1627.2 536.83c0 3.7534-3.3035 6.7961-7.3786 6.7961s-7.3786-3.0427-7.3786-6.7961 3.3035-6.7961 7.3786-6.7961 7.3786 3.0427 7.3786 6.7961z"/>
<path transform="matrix(-.64853 .027744 .030122 .70412 -722.2 554.88)" d="m-1627.2 536.83c0 3.7534-3.3035 6.7961-7.3786 6.7961s-7.3786-3.0427-7.3786-6.7961 3.3035-6.7961 7.3786-6.7961 7.3786 3.0427 7.3786 6.7961z"/>
<path transform="matrix(-.64853 .027744 .030122 .70412 -731.44 580.03)" d="m-1627.2 536.83c0 3.7534-3.3035 6.7961-7.3786 6.7961s-7.3786-3.0427-7.3786-6.7961 3.3035-6.7961 7.3786-6.7961 7.3786 3.0427 7.3786 6.7961z"/>
<path transform="matrix(-.64853 .027744 .030122 .70412 -730.51 570.71)" d="m-1627.2 536.83c0 3.7534-3.3035 6.7961-7.3786 6.7961s-7.3786-3.0427-7.3786-6.7961 3.3035-6.7961 7.3786-6.7961 7.3786 3.0427 7.3786 6.7961z"/>
<path transform="matrix(-.64853 .027744 .030122 .70412 -723.02 577.25)" d="m-1627.2 536.83c0 3.7534-3.3035 6.7961-7.3786 6.7961s-7.3786-3.0427-7.3786-6.7961 3.3035-6.7961 7.3786-6.7961 7.3786 3.0427 7.3786 6.7961z"/>
<path transform="matrix(-.64853 .027744 .030122 .70412 -727.56 561.43)" d="m-1627.2 536.83c0 3.7534-3.3035 6.7961-7.3786 6.7961s-7.3786-3.0427-7.3786-6.7961 3.3035-6.7961 7.3786-6.7961 7.3786 3.0427 7.3786 6.7961z"/>
<path transform="matrix(-.64853 .027744 .030122 .70412 -721.35 568.29)" d="m-1627.2 536.83c0 3.7534-3.3035 6.7961-7.3786 6.7961s-7.3786-3.0427-7.3786-6.7961 3.3035-6.7961 7.3786-6.7961 7.3786 3.0427 7.3786 6.7961z"/>
<path transform="matrix(-.64853 .027744 .030122 .70412 -718.76 559.11)" d="m-1627.2 536.83c0 3.7534-3.3035 6.7961-7.3786 6.7961s-7.3786-3.0427-7.3786-6.7961 3.3035-6.7961 7.3786-6.7961 7.3786 3.0427 7.3786 6.7961z"/>
<path transform="matrix(-.64853 .027744 .030122 .70412 -702.77 562.31)" d="m-1627.2 536.83c0 3.7534-3.3035 6.7961-7.3786 6.7961s-7.3786-3.0427-7.3786-6.7961 3.3035-6.7961 7.3786-6.7961 7.3786 3.0427 7.3786 6.7961z"/>
<path transform="matrix(-.64853 .027744 .030122 .70412 -715.28 550.2)" d="m-1627.2 536.83c0 3.7534-3.3035 6.7961-7.3786 6.7961s-7.3786-3.0427-7.3786-6.7961 3.3035-6.7961 7.3786-6.7961 7.3786 3.0427 7.3786 6.7961z"/>
<path transform="matrix(-.64853 .027744 .030122 .70412 -710.06 557.38)" d="m-1627.2 536.83c0 3.7534-3.3035 6.7961-7.3786 6.7961s-7.3786-3.0427-7.3786-6.7961 3.3035-6.7961 7.3786-6.7961 7.3786 3.0427 7.3786 6.7961z"/>
<path transform="matrix(-.64853 .027744 .030122 .70412 -712.44 565)" d="m-1627.2 536.83c0 3.7534-3.3035 6.7961-7.3786 6.7961s-7.3786-3.0427-7.3786-6.7961 3.3035-6.7961 7.3786-6.7961 7.3786 3.0427 7.3786 6.7961z"/>
<path transform="matrix(.64853 .027744 -.030122 .70412 1152.2 561.83)" d="m-1627.2 536.83c0 3.7534-3.3035 6.7961-7.3786 6.7961s-7.3786-3.0427-7.3786-6.7961 3.3035-6.7961 7.3786-6.7961 7.3786 3.0427 7.3786 6.7961z"/>
<path transform="matrix(.64853 .027744 -.030122 .70412 1160.9 565.66)" d="m-1627.2 536.83c0 3.7534-3.3035 6.7961-7.3786 6.7961s-7.3786-3.0427-7.3786-6.7961 3.3035-6.7961 7.3786-6.7961 7.3786 3.0427 7.3786 6.7961z"/>
<path transform="matrix(.64853 .027744 -.030122 .70412 1143.5 560.81)" d="m-1627.2 536.83c0 3.7534-3.3035 6.7961-7.3786 6.7961s-7.3786-3.0427-7.3786-6.7961 3.3035-6.7961 7.3786-6.7961 7.3786 3.0427 7.3786 6.7961z"/>
<path transform="matrix(.64853 .027744 -.030122 .70412 1158.1 535.14)" d="m-1627.2 536.83c0 3.7534-3.3035 6.7961-7.3786 6.7961s-7.3786-3.0427-7.3786-6.7961 3.3035-6.7961 7.3786-6.7961 7.3786 3.0427 7.3786 6.7961z"/>
<path transform="matrix(.64853 .027744 -.030122 .70412 1152.3 543.27)" d="m-1627.2 536.83c0 3.7534-3.3035 6.7961-7.3786 6.7961s-7.3786-3.0427-7.3786-6.7961 3.3035-6.7961 7.3786-6.7961 7.3786 3.0427 7.3786 6.7961z"/>
<path transform="matrix(.64853 .027744 -.030122 .70412 1169.1 545.86)" d="m-1627.2 536.83c0 3.7534-3.3035 6.7961-7.3786 6.7961s-7.3786-3.0427-7.3786-6.7961 3.3035-6.7961 7.3786-6.7961 7.3786 3.0427 7.3786 6.7961z"/>
<path transform="matrix(.64853 .027744 -.030122 .70412 1178.3 571.01)" d="m-1627.2 536.83c0 3.7534-3.3035 6.7961-7.3786 6.7961s-7.3786-3.0427-7.3786-6.7961 3.3035-6.7961 7.3786-6.7961 7.3786 3.0427 7.3786 6.7961z"/>
<path transform="matrix(.64853 .027744 -.030122 .70412 1177.4 561.7)" d="m-1627.2 536.83c0 3.7534-3.3035 6.7961-7.3786 6.7961s-7.3786-3.0427-7.3786-6.7961 3.3035-6.7961 7.3786-6.7961 7.3786 3.0427 7.3786 6.7961z"/>
<path transform="matrix(.64853 .027744 -.030122 .70412 1169.9 568.23)" d="m-1627.2 536.83c0 3.7534-3.3035 6.7961-7.3786 6.7961s-7.3786-3.0427-7.3786-6.7961 3.3035-6.7961 7.3786-6.7961 7.3786 3.0427 7.3786 6.7961z"/>
<path transform="matrix(.64853 .027744 -.030122 .70412 1174.4 552.41)" d="m-1627.2 536.83c0 3.7534-3.3035 6.7961-7.3786 6.7961s-7.3786-3.0427-7.3786-6.7961 3.3035-6.7961 7.3786-6.7961 7.3786 3.0427 7.3786 6.7961z"/>
<path transform="matrix(.64853 .027744 -.030122 .70412 1168.2 559.28)" d="m-1627.2 536.83c0 3.7534-3.3035 6.7961-7.3786 6.7961s-7.3786-3.0427-7.3786-6.7961 3.3035-6.7961 7.3786-6.7961 7.3786 3.0427 7.3786 6.7961z"/>
<path transform="matrix(.64853 .027744 -.030122 .70412 1165.6 550.09)" d="m-1627.2 536.83c0 3.7534-3.3035 6.7961-7.3786 6.7961s-7.3786-3.0427-7.3786-6.7961 3.3035-6.7961 7.3786-6.7961 7.3786 3.0427 7.3786 6.7961z"/>
<path transform="matrix(.64853 .027744 -.030122 .70412 1149.7 553.29)" d="m-1627.2 536.83c0 3.7534-3.3035 6.7961-7.3786 6.7961s-7.3786-3.0427-7.3786-6.7961 3.3035-6.7961 7.3786-6.7961 7.3786 3.0427 7.3786 6.7961z"/>
<path transform="matrix(.64853 .027744 -.030122 .70412 1162.2 541.18)" d="m-1627.2 536.83c0 3.7534-3.3035 6.7961-7.3786 6.7961s-7.3786-3.0427-7.3786-6.7961 3.3035-6.7961 7.3786-6.7961 7.3786 3.0427 7.3786 6.7961z"/>
<path transform="matrix(.64853 .027744 -.030122 .70412 1157 548.36)" d="m-1627.2 536.83c0 3.7534-3.3035 6.7961-7.3786 6.7961s-7.3786-3.0427-7.3786-6.7961 3.3035-6.7961 7.3786-6.7961 7.3786 3.0427 7.3786 6.7961z"/>
<path transform="matrix(.64853 .027744 -.030122 .70412 1159.3 555.99)" d="m-1627.2 536.83c0 3.7534-3.3035 6.7961-7.3786 6.7961s-7.3786-3.0427-7.3786-6.7961 3.3035-6.7961 7.3786-6.7961 7.3786 3.0427 7.3786 6.7961z"/>
</g>
</g>
</g>
</svg>
