<svg xmlns="http://www.w3.org/2000/svg" xmlns:xlink="http://www.w3.org/1999/xlink" width="1200" height="600" viewBox="0 0 9600 4800">
	<title>Franco-Ontarian Flag</title>
	<path fill="#fff" d="m4800 0h4800v4800h-4800l-4720-2400z"/>
	<g fill="#00693c">
		<path d="m0 0h4800v4800H0zm2400 1504c-50 54-93 105-128 161-97 157-128 327-75 465 109 291 149 366 149 598h-77c0-245-104-425-250-478-65-23-148-12-225 65-95 96-122 358 156 409-35-58-24-159 61-180 118-29 166 110 166 184h-132v144h275c-4 74-45 134-122 167 10 31 56 95 120 90 13 68 25 106 82 167 57-61 69-99 82-167 64 5 110-59 120-90-77-33-118-93-122-167h275v-144h-132c0-74 48-213 166-184 85 21 96 122 61 180 278-51 251-313 156-409-77-77-160-88-225-65-146 53-250 233-250 478h-77c0-232 40-307 149-598 53-138 22-308-75-465-35-56-78-107-128-161z"/>
		<path id="p" d="m7200 2208c-96 0-178 78-192 177-26 175 69 391 192 531 123-140 210-355 192-531l176-18c24 281-120 605-368 789-248-184-392-508-371-789l43-126c68-129 199-185 328-33z"/>
		<use transform="rotate(120,7200,2208)" xlink:href="#p"/>
		<use transform="rotate(240,7200,2208)" xlink:href="#p"/>
	</g>
</svg>
