<svg version="1.1" xmlns="http://www.w3.org/2000/svg" xmlns:xlink="http://www.w3.org/1999/xlink" width="2400" height="1600" viewBox="0 0 2400 1600">
<g id="Byrd's-Second-An">
<path id="Rectángulo-4" d="M-0.000,0.000 L2400.000,0.000 L2400.000,1600.000 L-0.000,1600.000 L-0.000,0.000 z" fill="#22254C" />
<path id="Elipse-1" d="M1312.000,276.000 C1601.397,276.000 1836.000,510.603 1836.000,800.000 C1836.000,1089.397 1601.397,1324.000 1312.000,1324.000 C1022.603,1324.000 788.000,1089.397 788.000,800.000 C788.000,510.603 1022.603,276.000 1312.000,276.000 z" fill="#A2CFF0" />
<path id="Forma-16" d="M1721.000,1071.000 C1728.133,1077.470 1733.411,1085.583 1736.000,1090.000 C1737.897,1093.235 1739.914,1096.481 1741.909,1099.656 C1647.202,1235.277 1489.965,1324.000 1312.000,1324.000 C1233.588,1324.000 1159.202,1306.769 1092.412,1275.900 C1090.868,1272.969 1089.382,1270.010 1088.000,1267.000 C1110.662,1243.233 1132.516,1219.744 1154.000,1196.000 C1169.762,1178.580 1196.811,1151.748 1221.000,1129.000 C1237.981,1113.030 1277.022,1078.074 1303.234,1065.656 C1310.563,1058.285 1318.345,1051.378 1326.574,1044.958 C1337.256,1040.955 1348.680,1039.424 1360.016,1040.499 C1370.182,1041.463 1380.032,1044.500 1389.000,1049.417 C1383.264,1078.735 1377.528,1108.053 1371.791,1137.372 C1372.536,1160.079 1369.380,1184.933 1365.000,1197.994 C1364.271,1200.169 1362.061,1206.371 1364.262,1211.552 C1375.706,1199.458 1390.680,1188.301 1405.000,1191.000 C1411.262,1192.180 1414.854,1196.960 1423.000,1197.000 C1430.790,1197.039 1433.672,1193.163 1441.000,1193.000 C1446.339,1192.881 1450.236,1194.703 1454.556,1197.437 C1462.191,1187.002 1465.364,1174.340 1470.000,1161.000 C1476.668,1141.815 1486.385,1132.203 1493.000,1113.000 C1510.468,1062.294 1504.562,1021.836 1533.000,1005.000 C1537.139,1002.550 1544.138,1001.226 1551.000,999.000 C1575.251,991.134 1590.827,984.679 1614.000,984.000 C1633.877,983.417 1645.724,987.733 1652.000,994.000 C1659.787,1001.776 1660.822,1014.460 1667.000,1029.000 C1669.859,1035.729 1672.493,1040.493 1677.000,1045.000 C1684.607,1052.607 1692.457,1053.651 1703.000,1059.000 C1710.525,1062.818 1716.568,1066.980 1721.000,1071.000 z" fill="#FFFFFF" />
<path id="Rectángulo-3" d="M-0.000,638.000 L2400.000,638.000 L2400.000,936.000 L-0.000,936.000 L-0.000,638.000 z" fill="#FEEE00" />
<path id="BYRD-ANTARCTIC-E" d="M2313.128,869.589 L2271.592,771.844 L2271.592,869.589 L2252.199,869.589 L2252.199,719.699 L2272.438,719.699 L2314.679,819.796 L2314.679,719.699 L2334.072,719.699 L2334.072,869.589 L2313.128,869.589 zM2211.580,862.381 C2204.011,868.891 2195.102,872.145 2184.854,872.145 C2174.604,872.145 2165.648,868.925 2157.986,862.483 C2150.322,856.042 2144.434,847.011 2140.321,835.389 C2136.207,823.768 2134.150,810.459 2134.150,795.462 C2134.150,779.650 2136.207,765.863 2140.321,754.105 C2144.434,742.346 2150.299,733.247 2157.915,726.805 C2165.531,720.364 2174.417,717.143 2184.572,717.143 C2194.773,717.143 2203.682,720.348 2211.298,726.754 C2218.914,733.162 2224.791,742.228 2228.928,753.951 C2233.064,765.676 2235.134,779.308 2235.134,794.849 C2235.134,809.981 2233.100,823.392 2229.034,835.082 C2224.967,846.773 2219.149,855.872 2211.580,862.381 zM2210.135,767.907 C2207.854,760.172 2204.539,754.105 2200.192,749.708 C2195.842,745.312 2190.636,743.113 2184.572,743.113 C2178.648,743.113 2173.511,745.312 2169.163,749.708 C2164.814,754.105 2161.488,760.188 2159.185,767.959 C2156.881,775.729 2155.729,784.624 2155.729,794.644 C2155.729,804.664 2156.858,813.559 2159.114,821.330 C2161.371,829.101 2164.685,835.184 2169.057,839.581 C2173.430,843.977 2178.648,846.175 2184.713,846.175 C2190.682,846.175 2195.842,843.995 2200.192,839.632 C2204.539,835.270 2207.854,829.169 2210.135,821.330 C2212.414,813.492 2213.555,804.460 2213.555,794.235 C2213.555,784.420 2212.414,775.644 2210.135,767.907 zM2096.282,719.699 L2117.085,719.699 L2117.085,869.589 L2096.282,869.589 L2096.282,719.699 zM2051.996,869.589 L2031.193,869.589 L2031.193,745.056 L2001.293,745.056 L2001.293,719.699 L2081.896,719.699 L2081.896,745.056 L2051.996,745.056 L2051.996,869.589 zM1966.104,719.699 L1986.907,719.699 L1986.907,869.589 L1966.104,869.589 L1966.104,719.699 zM1902.778,869.589 C1902.778,869.589 1862.370,869.589 1862.370,869.589 L1862.370,719.699 C1862.370,719.699 1902.989,719.699 1902.989,719.699 C1933.688,719.699 1949.038,745.056 1949.038,795.769 C1949.038,818.672 1945.265,836.702 1937.720,849.856 C1930.174,863.012 1918.526,869.589 1902.778,869.589 zM1924.568,765.505 C1922.640,758.281 1919.667,753.066 1915.647,749.861 C1911.628,746.658 1906.279,745.056 1899.604,745.056 C1899.604,745.056 1883.173,745.056 1883.173,745.056 L1883.173,844.233 C1883.173,844.233 1899.886,844.233 1899.886,844.233 C1906.797,844.233 1912.238,842.683 1916.212,839.581 C1920.184,836.480 1923.052,831.367 1924.815,824.244 C1926.578,817.122 1927.459,807.323 1927.459,794.849 C1927.459,782.512 1926.495,772.730 1924.568,765.505 zM1774.010,719.699 L1842.131,719.699 L1842.131,745.056 L1794.813,745.056 L1794.813,779.308 L1838.253,779.308 L1838.253,804.664 L1794.813,804.664 L1794.813,844.233 L1844.599,844.233 L1844.599,869.589 L1774.010,869.589 L1774.010,719.699 zM1721.191,813.150 C1721.191,813.150 1705.465,813.150 1705.465,813.150 L1705.465,869.589 L1684.662,869.589 L1684.662,719.699 C1684.662,719.699 1721.191,719.699 1721.191,719.699 C1734.495,719.699 1744.251,723.585 1750.457,731.355 C1756.662,739.126 1759.765,750.612 1759.765,765.811 C1759.765,781.966 1756.615,793.895 1750.316,801.597 C1744.015,809.300 1734.308,813.150 1721.191,813.150 zM1733.955,750.577 C1731.134,746.896 1726.762,745.056 1720.839,745.056 C1720.839,745.056 1705.465,745.056 1705.465,745.056 L1705.465,787.794 C1705.465,787.794 1720.839,787.794 1720.839,787.794 C1727.091,787.794 1731.545,785.971 1734.202,782.324 C1736.857,778.678 1738.186,773.344 1738.186,766.323 C1738.186,759.507 1736.776,754.258 1733.955,750.577 zM1648.345,869.589 C1648.345,869.589 1631.138,830.941 1631.138,830.941 C1629.258,826.715 1627.377,821.672 1625.497,815.809 C1625.497,815.809 1625.215,815.809 1625.215,815.809 C1623.428,821.399 1621.524,826.477 1619.503,831.043 C1619.503,831.043 1602.367,869.589 1602.367,869.589 L1577.262,869.589 L1612.662,791.270 L1580.576,719.699 L1604.976,719.699 C1604.976,719.699 1620.067,754.565 1620.067,754.565 C1621.994,759.063 1623.851,764.176 1625.638,769.901 C1625.638,769.901 1625.920,769.901 1625.920,769.901 C1627.330,764.926 1629.046,760.052 1631.068,755.280 C1631.068,755.280 1646.018,719.699 1646.018,719.699 L1670.276,719.699 L1638.049,792.497 L1673.450,869.589 L1648.345,869.589 zM1499.409,719.699 L1567.530,719.699 L1567.530,745.056 L1520.212,745.056 L1520.212,779.308 L1563.652,779.308 L1563.652,804.664 L1520.212,804.664 L1520.212,844.233 L1569.998,844.233 L1569.998,869.589 L1499.409,869.589 L1499.409,719.699 zM1387.566,839.785 C1391.515,844.046 1396.240,846.175 1401.740,846.175 C1405.594,846.175 1409.168,844.948 1412.459,842.494 C1415.749,840.041 1418.559,836.531 1420.886,831.963 C1423.213,827.398 1424.917,822.012 1425.999,815.809 C1425.999,815.809 1446.661,822.864 1446.661,822.864 C1445.062,832.748 1442.276,841.387 1438.304,848.783 C1434.331,856.179 1429.289,861.921 1423.178,866.011 C1417.066,870.100 1410.108,872.145 1402.304,872.145 C1392.150,872.145 1383.451,869.011 1376.212,862.739 C1368.972,856.468 1363.448,847.420 1359.640,835.593 C1355.832,823.768 1353.928,809.709 1353.928,793.417 C1353.928,777.809 1355.891,764.262 1359.817,752.775 C1363.741,741.290 1369.348,732.480 1376.635,726.345 C1383.922,720.211 1392.478,717.143 1402.304,717.143 C1413.587,717.143 1422.872,720.842 1430.159,728.237 C1437.446,735.633 1442.546,746.590 1445.462,761.108 C1445.462,761.108 1424.870,768.265 1424.870,768.265 C1421.438,751.497 1413.822,743.113 1402.022,743.113 C1396.333,743.113 1391.491,745.296 1387.495,749.657 C1383.499,754.020 1380.490,760.035 1378.469,767.703 C1376.447,775.371 1375.437,784.148 1375.437,794.031 C1375.437,804.597 1376.470,813.799 1378.539,821.637 C1380.608,829.476 1383.617,835.526 1387.566,839.785 zM1316.060,719.699 L1336.863,719.699 L1336.863,869.589 L1316.060,869.589 L1316.060,719.699 zM1271.774,869.589 L1250.971,869.589 L1250.971,745.056 L1221.070,745.056 L1221.070,719.699 L1301.674,719.699 L1301.674,745.056 L1271.774,745.056 L1271.774,869.589 zM1154.430,839.785 C1158.379,844.046 1163.104,846.175 1168.604,846.175 C1172.459,846.175 1176.032,844.948 1179.323,842.494 C1182.613,840.041 1185.423,836.531 1187.750,831.963 C1190.077,827.398 1191.781,822.012 1192.863,815.809 C1192.863,815.809 1213.525,822.864 1213.525,822.864 C1211.926,832.748 1209.141,841.387 1205.168,848.783 C1201.195,856.179 1196.153,861.921 1190.042,866.011 C1183.930,870.100 1176.972,872.145 1169.168,872.145 C1159.014,872.145 1150.316,869.011 1143.076,862.739 C1135.836,856.468 1130.313,847.420 1126.504,835.593 C1122.696,823.768 1120.792,809.709 1120.792,793.417 C1120.792,777.809 1122.755,764.262 1126.681,752.775 C1130.606,741.290 1136.212,732.480 1143.500,726.345 C1150.786,720.211 1159.342,717.143 1169.168,717.143 C1180.452,717.143 1189.736,720.842 1197.023,728.237 C1204.310,735.633 1209.411,746.590 1212.326,761.108 C1212.326,761.108 1191.735,768.265 1191.735,768.265 C1188.302,751.497 1180.686,743.113 1168.886,743.113 C1163.197,743.113 1158.355,745.296 1154.359,749.657 C1150.363,754.020 1147.354,760.035 1145.333,767.703 C1143.311,775.371 1142.301,784.148 1142.301,794.031 C1142.301,804.597 1143.334,813.799 1145.404,821.637 C1147.472,829.476 1150.481,835.526 1154.430,839.785 zM1091.316,807.323 C1092.772,809.096 1094.300,811.703 1095.899,815.144 C1097.497,818.587 1099.307,823.308 1101.329,829.305 C1101.329,829.305 1114.939,869.589 1114.939,869.589 L1092.091,869.589 C1092.091,869.589 1082.219,839.632 1082.219,839.632 C1078.739,829.067 1075.824,821.672 1073.474,817.445 C1071.923,814.651 1070.382,812.521 1068.855,811.054 C1067.327,809.589 1065.400,808.549 1063.073,807.936 C1060.746,807.323 1057.583,807.016 1053.588,807.016 C1053.588,807.016 1050.697,807.016 1050.697,807.016 L1050.697,869.589 L1029.893,869.589 L1029.893,719.699 C1029.893,719.699 1072.769,719.699 1072.769,719.699 C1084.334,719.699 1093.266,723.313 1099.566,730.537 C1105.866,737.763 1109.016,748.158 1109.016,761.722 C1109.016,772.288 1107.170,780.979 1103.480,787.794 C1099.789,794.611 1094.112,799.621 1086.450,802.824 C1086.450,802.824 1086.450,803.233 1086.450,803.233 C1088.236,804.188 1089.858,805.551 1091.316,807.323 zM1087.507,763.562 C1087.507,757.018 1086.155,752.282 1083.453,749.350 C1080.749,746.420 1076.553,744.954 1070.865,744.954 C1070.865,744.954 1050.697,744.954 1050.697,744.954 L1050.697,783.091 C1050.697,783.091 1068.397,783.091 1068.397,783.091 C1074.696,783.091 1079.456,781.626 1082.677,778.694 C1085.897,775.764 1087.507,770.719 1087.507,763.562 zM987.018,835.644 L947.104,835.644 L938.571,869.589 L916.358,869.589 L956.624,719.699 L977.286,719.699 L1018.751,869.589 L995.974,869.589 L987.018,835.644 zM971.645,776.445 C970.516,772.083 969.517,767.618 968.648,763.051 C967.777,758.485 967.202,754.769 966.920,751.906 C966.920,751.906 966.356,751.906 966.356,751.906 C965.510,760.086 964.052,768.265 961.984,776.445 C961.984,776.445 953.451,810.288 953.451,810.288 L980.319,810.288 C980.319,810.288 971.645,776.445 971.645,776.445 zM893.933,869.589 L873.130,869.589 L873.130,745.056 L843.230,745.056 L843.230,719.699 L923.833,719.699 L923.833,745.056 L893.933,745.056 L893.933,869.589 zM766.364,771.844 L766.364,869.589 L746.971,869.589 L746.971,719.699 L767.210,719.699 L809.451,819.796 L809.451,719.699 L828.844,719.699 L828.844,869.589 L807.900,869.589 L766.364,771.844 zM704.096,835.644 L664.182,835.644 L655.649,869.589 L633.436,869.589 L673.702,719.699 L694.364,719.699 L735.829,869.589 L713.052,869.589 L704.096,835.644 zM688.723,776.445 C687.594,772.083 686.595,767.618 685.725,763.051 C684.855,758.485 684.280,754.769 683.998,751.906 C683.998,751.906 683.434,751.906 683.434,751.906 C682.587,760.086 681.130,768.265 679.061,776.445 C679.061,776.445 670.529,810.288 670.529,810.288 L697.396,810.288 C697.396,810.288 688.723,776.445 688.723,776.445 zM544.582,869.589 C544.582,869.589 504.174,869.589 504.174,869.589 L504.174,719.699 C504.174,719.699 544.793,719.699 544.793,719.699 C575.492,719.699 590.842,745.056 590.842,795.769 C590.842,818.672 587.069,836.702 579.524,849.856 C571.978,863.012 560.331,869.589 544.582,869.589 zM566.372,765.505 C564.444,758.281 561.471,753.066 557.451,749.861 C553.432,746.658 548.083,745.056 541.408,745.056 C541.408,745.056 524.977,745.056 524.977,745.056 L524.977,844.233 C524.977,844.233 541.690,844.233 541.690,844.233 C548.601,844.233 554.042,842.683 558.016,839.581 C561.988,836.480 564.856,831.367 566.619,824.244 C568.382,817.122 569.263,807.323 569.263,794.849 C569.263,782.512 568.299,772.730 566.372,765.505 zM468.280,807.323 C469.737,809.096 471.265,811.703 472.864,815.144 C474.462,818.587 476.272,823.308 478.294,829.305 C478.294,829.305 491.904,869.589 491.904,869.589 L469.056,869.589 C469.056,869.589 459.183,839.632 459.183,839.632 C455.704,829.067 452.789,821.672 450.439,817.445 C448.887,814.651 447.347,812.521 445.820,811.054 C444.292,809.589 442.364,808.549 440.037,807.936 C437.710,807.323 434.548,807.016 430.552,807.016 C430.552,807.016 427.661,807.016 427.661,807.016 L427.661,869.589 L406.858,869.589 L406.858,719.699 C406.858,719.699 449.734,719.699 449.734,719.699 C461.299,719.699 470.230,723.313 476.531,730.537 C482.830,737.763 485.980,748.158 485.980,761.722 C485.980,772.288 484.135,780.979 480.445,787.794 C476.753,794.611 471.077,799.621 463.414,802.824 C463.414,802.824 463.414,803.233 463.414,803.233 C465.200,804.188 466.822,805.551 468.280,807.323 zM464.472,763.562 C464.472,757.018 463.120,752.282 460.417,749.350 C457.713,746.420 453.517,744.954 447.830,744.954 C447.830,744.954 427.661,744.954 427.661,744.954 L427.661,783.091 C427.661,783.091 445.361,783.091 445.361,783.091 C451.661,783.091 456.421,781.626 459.642,778.694 C462.861,775.764 464.472,770.719 464.472,763.562 zM359.117,869.589 L338.314,869.589 L338.314,806.607 L301.150,719.699 L325.550,719.699 C325.550,719.699 341.346,760.086 341.346,760.086 C344.401,767.856 346.940,774.980 348.962,781.455 C348.962,781.455 349.244,781.455 349.244,781.455 C351.124,775.593 353.663,768.505 356.860,760.188 C356.860,760.188 372.374,719.699 372.374,719.699 L396.351,719.699 L359.117,806.811 L359.117,869.589 zM295.156,826.033 C295.156,841.098 291.641,852.123 284.613,859.109 C277.585,866.097 268.876,869.589 258.486,869.589 C258.486,869.589 212.931,869.589 212.931,869.589 L212.931,719.699 C212.931,719.699 258.627,719.699 258.627,719.699 C268.029,719.699 275.633,722.784 281.440,728.952 C287.246,735.122 290.149,745.091 290.149,758.859 C290.149,766.358 288.832,772.679 286.200,777.825 C283.567,782.972 280.018,786.976 275.552,789.839 C281.898,792.497 286.752,797.013 290.114,803.386 C293.475,809.760 295.156,817.309 295.156,826.033 zM265.503,748.583 C262.611,746.232 258.909,745.056 254.396,745.056 C254.396,745.056 233.734,745.056 233.734,745.056 L233.734,779.308 C233.734,779.308 254.678,779.308 254.678,779.308 C259.661,779.308 263.433,777.876 265.996,775.013 C268.558,772.151 269.840,767.891 269.840,762.233 C269.840,755.485 268.394,750.935 265.503,748.583 zM269.240,809.981 C266.349,806.437 261.401,804.664 254.396,804.664 C254.396,804.664 233.734,804.664 233.734,804.664 L233.734,844.233 C233.734,844.233 254.890,844.233 254.890,844.233 C258.227,844.233 261.247,843.808 263.951,842.955 C266.654,842.103 268.934,840.263 270.792,837.433 C272.648,834.606 273.577,830.498 273.577,825.113 C273.577,818.569 272.132,813.526 269.240,809.981 z" fill="#22254C" />
</g>
<path id="Forma-9-copia" d="M1493.787,482.309 C1522.132,512.373 1549.532,543.296 1576.000,575.137 C1568.242,578.314 1560.224,580.653 1552.000,582.128 C1536.458,584.914 1520.565,584.534 1505.000,581.129 C1487.179,569.395 1469.881,556.967 1453.110,543.889 C1437.721,554.445 1419.863,564.826 1409.000,565.151 C1404.843,565.275 1402.682,564.462 1402.000,563.153 C1401.896,562.954 1401.829,562.741 1401.779,562.522 C1401.643,562.390 1401.484,562.274 1401.375,562.123 C1399.854,560.024 1400.847,556.410 1402.375,554.134 C1404.911,550.359 1409.443,549.497 1411.375,549.141 C1414.073,548.644 1417.798,548.230 1421.405,547.657 C1421.436,547.640 1421.467,547.622 1421.497,547.605 C1421.497,547.605 1420.000,542.473 1420.000,542.473 C1420.000,542.473 1419.934,541.014 1419.836,538.807 C1416.717,540.630 1413.624,542.323 1410.627,543.809 C1410.413,543.932 1410.219,544.057 1410.000,544.179 C1408.893,544.795 1405.988,546.132 1402.917,547.230 C1398.677,548.858 1394.807,549.856 1391.563,549.953 C1390.979,549.970 1390.445,549.965 1389.939,549.946 C1389.863,549.946 1389.803,549.935 1389.729,549.933 C1389.369,549.916 1389.019,549.895 1388.698,549.861 C1388.423,549.832 1388.157,549.797 1387.909,549.749 C1386.082,549.438 1385.004,548.804 1384.562,547.955 C1384.289,547.430 1384.217,546.825 1384.290,546.178 C1384.071,544.204 1384.887,541.841 1386.000,540.185 C1388.536,536.409 1393.068,535.547 1395.000,535.191 C1395.124,535.168 1395.272,535.147 1395.400,535.125 C1395.400,535.125 1395.000,534.193 1395.000,534.193 C1395.000,534.193 1394.595,528.128 1394.300,523.201 C1338.475,532.367 1282.749,536.120 1265.000,527.202 C1263.558,526.478 1257.850,523.400 1252.000,525.205 C1248.485,526.289 1246.562,528.597 1245.000,530.198 C1242.872,532.379 1234.582,536.734 1226.000,540.185 C1218.382,543.247 1213.557,543.943 1211.000,542.182 C1207.156,539.534 1207.810,533.564 1207.000,526.204 C1206.467,521.358 1205.168,516.159 1203.000,510.225 C1199.547,500.775 1194.076,492.428 1187.000,485.259 C1187.000,485.259 1226.000,463.289 1226.000,463.289 C1226.000,463.289 1258.000,492.250 1258.000,492.250 C1263.322,489.930 1268.663,487.596 1274.000,485.259 C1291.032,477.801 1321.549,464.623 1354.953,453.169 C1325.939,421.447 1299.571,387.486 1276.000,351.441 C1282.682,345.032 1290.459,339.954 1299.000,336.461 C1310.374,331.810 1322.721,330.130 1335.000,331.468 C1372.965,363.740 1409.095,396.862 1444.523,431.863 C1461.424,430.567 1476.219,431.938 1487.000,437.324 C1496.511,442.076 1501.274,447.576 1503.000,453.303 C1504.693,458.918 1503.866,467.650 1496.000,479.267 C1495.292,480.312 1494.548,481.319 1493.787,482.309 zM1407.588,520.918 C1407.588,520.918 1406.462,531.035 1406.462,531.035 C1410.708,528.613 1414.954,526.190 1419.199,523.767 C1419.121,521.738 1419.057,519.974 1419.025,518.788 C1415.234,519.520 1411.419,520.230 1407.588,520.918 zM1434.870,529.241 C1434.822,529.273 1434.774,529.306 1434.727,529.338 C1434.893,529.624 1435.010,529.912 1435.000,530.198 C1434.964,531.192 1433.779,531.831 1431.861,532.566 C1431.861,532.566 1431.139,542.102 1431.139,542.102 C1434.960,539.922 1438.780,537.742 1442.600,535.562 C1440.010,533.471 1437.434,531.363 1434.870,529.241 z" fill="#22254C" />
</svg>
