<svg xmlns="http://www.w3.org/2000/svg" viewBox="0 0 2399.9994 1599.9996"><rect width="2399.9994" height="1599.9996" style="fill:#c60b1e"/><rect y="399.9999" width="2399.9994" height="799.9998" style="fill:#ffc400"/><path d="M1584.5923,800c0,212.4046-172.188,384.5926-384.5926,384.5926S815.4071,1012.4044,815.4071,800,987.5951,415.4072,1200,415.4072,1584.5923,587.5952,1584.5923,800Z" transform="translate(0)" style="fill:#e7e7e7;stroke:#000;stroke-miterlimit:4.320987701416016;stroke-width:3.000000188699687px;fill-rule:evenodd"/><path d="M908.8616,933.3337l-31.199,12.3216-4.6659-11.5966a15.329,15.329,0,0,1-1.3393-6.0564,7.82,7.82,0,0,1,1.5667-4.5039,8.263,8.263,0,0,1,3.63-2.8388,7.6828,7.6828,0,0,1,4.1995-.4124,8.3705,8.3705,0,0,1,4.1582,2.1208,8.6239,8.6239,0,0,1,1.0956-5.43,8.143,8.143,0,0,1,4.118-3.3735,9.8917,9.8917,0,0,1,4.4444-.6924,8.5509,8.5509,0,0,1,3.817,1.1194,10.2382,10.2382,0,0,1,2.9045,2.7748,22.0822,22.0822,0,0,1,2.5277,4.7807Zm-19.7353,3.0537-2.6892-6.6839a16.0039,16.0039,0,0,0-1.9312-3.7578,4.7118,4.7118,0,0,0-2.5-1.7373,4.8594,4.8594,0,0,0-3.0422.2851,5.3959,5.3959,0,0,0-2.4378,1.818,3.994,3.994,0,0,0-.7691,2.7472,18.8263,18.8263,0,0,0,1.4555,4.8742l2.4857,6.1779Zm14.4078-5.69-3.0965-7.6959a18.973,18.973,0,0,0-1.2688-2.7244,7.201,7.201,0,0,0-1.8014-2.0253,4.8933,4.8933,0,0,0-2.3622-.8753,5.8958,5.8958,0,0,0-2.8743.4266,5.5733,5.5733,0,0,0-2.6764,2.0832,4.9934,4.9934,0,0,0-.8206,3.1708,16.2764,16.2764,0,0,0,1.2983,4.7286l2.8759,7.1477Z" transform="translate(0)" style="stroke:#000"/><path d="M898.6828,907.632l-35.8163-3.3768-1.2855-4.57,28.6633-22.0523,1.3592,4.8321-8.747,6.4445,3.77,13.4033,10.789.8147Zm-15.8874-5.5806-3.0568-10.8669-8.0191,5.8193q-3.6522,2.658-6.0694,4.1265a43.2,43.2,0,0,1,6.6653.0212Z" transform="translate(0)" style="stroke:#000"/><path d="M879.2768,877.5159l-1.1225-4.0187a9.2817,9.2817,0,0,0,3.8145-2.095,7.474,7.474,0,0,0,1.9541-3.7625,12.5653,12.5653,0,0,0,.043-5.2016,12.1653,12.1653,0,0,0-1.56-4.2386,6.2051,6.2051,0,0,0-2.5656-2.45,4.85,4.85,0,0,0-3-.4085,4.3812,4.3812,0,0,0-2.5481,1.39,6.6945,6.6945,0,0,0-1.3991,3.3031,58.07,58.07,0,0,0-.5239,6.1206,30.0075,30.0075,0,0,1-.883,6.6942,8.99,8.99,0,0,1-2.4235,4.0563,7.6913,7.6913,0,0,1-3.897,1.9023,8.6089,8.6089,0,0,1-4.937-.55,8.9147,8.9147,0,0,1-4.0667-3.5025,15.7594,15.7594,0,0,1-2.2466-5.7979,16.5193,16.5193,0,0,1-.0138-6.6337,9.3878,9.3878,0,0,1,2.6832-4.9118,10.1979,10.1979,0,0,1,4.9043-2.56l1.09,4.0938a6.87,6.87,0,0,0-4.3084,3.1319,8.8924,8.8924,0,0,0-.5356,5.9957q.7329,3.9283,2.5212,5.459a4.4591,4.4591,0,0,0,3.8384,1.1553,3.82,3.82,0,0,0,2.6914-1.8086q.9158-1.46,1.1362-6.96a43.5431,43.5431,0,0,1,.7552-7.6287,10.0593,10.0593,0,0,1,2.581-4.8353,8.373,8.373,0,0,1,4.4433-2.2218,9.2141,9.2141,0,0,1,5.2465.5858,10.087,10.087,0,0,1,4.4288,3.6324,15.1441,15.1441,0,0,1,2.4717,6.0683,18.9744,18.9744,0,0,1,.0822,7.6831,10.5768,10.5768,0,0,1-3.0527,5.4295,11.3716,11.3716,0,0,1-5.601,2.8839Z" transform="translate(0)" style="stroke:#000"/><path d="M884.2176,843.4141l-33.426,3.2485-2.3708-23.9453,3.9445-.3834,1.9369,19.5629,10.2376-.9949-1.8139-18.32,3.9218-.3811,1.8139,18.3205,11.3776-1.1058-2.013-20.331,3.9446-.3833Z" transform="translate(0)" style="stroke:#000"/><path d="M881.0214,803.3265l-33.3155-13.4574.098-4.7429,33.8608-12.9352-.1037,5.0152-10.25,3.6744-.2874,13.9112,10.0945,3.86Zm-13.5908-9.879.233-11.2787-9.3713,3.2835q-4.27,1.5027-7.0121,2.219a43.1037,43.1037,0,0,1,6.3765,1.9228Z" transform="translate(0)" style="stroke:#000"/><path d="M881.994,768.67l-33.3961-3.538.4847-4.4914,28.096-14.6009-26.22-2.7778.4531-4.198,33.3961,3.5381-.4848,4.4914L856.204,761.692l26.2431,2.78Z" transform="translate(0)" style="stroke:#000"/><path d="M887.5932,726.9425l-29.0659-5.6651-2.136,10.7571-3.8889-.758,5.1387-25.88,3.8889.758-2.1448,10.8017,29.0659,5.6651Z" transform="translate(0)" style="stroke:#000"/><path d="M890.66,710.892,862.5777,688.61l1.4543-4.52,36.175-2.8687-1.5379,4.7794-10.8815.637-4.2657,13.2567,8.5713,6.5428Zm-10.197-13.2981,3.4585-10.7481-9.9268.51q-4.5253.2383-7.3594.1533a42.853,42.853,0,0,1,5.5621,3.6388Zm-20.0185-9.2293-5.1864-4.8066,1.6423-5.1038,4.5809,6.6882Z" transform="translate(0)" style="stroke:#000"/><path d="M901.7109,677.8693l-30.5693-13.7842,6.1688-13.4286a19.6158,19.6158,0,0,1,3.6518-5.785,7.4958,7.4958,0,0,1,4.4558-2.0558,9.615,9.615,0,0,1,5.1873.8177,8.4067,8.4067,0,0,1,4.5256,4.5595q1.2726,3.0927-.1251,7.7245a11.5382,11.5382,0,0,1,2.6326-1.7308,23.27,23.27,0,0,1,5.5941-1.4926l10.74-1.5164-2.3157,5.0408-8.201,1.14q-3.5592.5149-5.5408.9929a10.1448,10.1448,0,0,0-2.9784,1.1135,6.6529,6.6529,0,0,0-1.6531,1.4616,13.196,13.196,0,0,0-1.1709,2.1654l-2.1354,4.6483,13.5748,6.1212Zm-15.2368-11.7086,3.9575-8.615a14.098,14.098,0,0,0,1.4006-4.5557,4.9872,4.9872,0,0,0-.7531-3.1826,5.4382,5.4382,0,0,0-2.372-2.0421,5.0462,5.0462,0,0,0-4.2822-.048q-2.1137.93-3.6606,4.2972L876.3608,661.6Z" transform="translate(0)" style="stroke:#000"/><path d="M920.5643,640.2855,895.0425,625.386l-5.6176,9.4454-3.4148-1.9935,13.515-22.7239,3.4148,1.9935-5.641,9.4845,25.5218,14.9Z" transform="translate(0)" style="stroke:#000"/><path d="M931.65,622.7422,903.9181,603.97l2.5074-3.6358,27.7314,18.7726Z" transform="translate(0)" style="stroke:#000"/><path d="M944.1905,586.8l3.6462-2.7528a14.7414,14.7414,0,0,1,3.4023,9.0505,13.6524,13.6524,0,0,1-3.2788,8.6559,15.94,15.94,0,0,1-7.23,5.4825,13.93,13.93,0,0,1-8.2346.0631,22.9258,22.9258,0,0,1-8.1506-4.1787,19.6448,19.6448,0,0,1-5.913-7.2009,13.4945,13.4945,0,0,1-1.09-8.0832,16.4445,16.4445,0,0,1,3.4855-7.5646,13.7731,13.7731,0,0,1,7.2865-4.988,13.44,13.44,0,0,1,8.6284.7407l-1.9183,4.0282a10.4694,10.4694,0,0,0-6.2882-.665,9.0377,9.0377,0,0,0-4.79,3.3016,10.7058,10.7058,0,0,0-2.5784,6.1621,9.6422,9.6422,0,0,0,1.6233,5.9071,19.9414,19.9414,0,0,0,4.39,4.796,20.5517,20.5517,0,0,0,6.63,3.6472,9.3833,9.3833,0,0,0,6.1557-.0632,10.8855,10.8855,0,0,0,4.7894-3.4469,9.4175,9.4175,0,0,0,2.2527-6.23,10.8669,10.8669,0,0,0-2.8185-6.661Z" transform="translate(0)" style="stroke:#000"/><path d="M957.366,589.2392l-15.09-32.3583,3.3377-3.4014L979.277,566.91l-3.5294,3.5967-10.0244-4.2421-9.79,9.9764,4.7222,9.6454ZM954.2325,572.83l7.9371-8.0886-9.1127-3.9338Q948.9,559.02,946.4023,557.69a42.3211,42.3211,0,0,1,3.3379,5.716Z" transform="translate(0)" style="stroke:#000"/><path d="M991.8774,556.0037l-20.7665-26.1528,19.0865-14.8765,2.4507,3.0862-15.5934,12.1539,6.36,8.01,14.603-11.3819,2.4365,3.0685-14.6031,11.3818,7.0686,8.902,16.2056-12.631,2.4506,3.0863Z" transform="translate(0)" style="stroke:#000"/><path d="M1009.5378,528.9439l3.3259-2.5549a9.2444,9.2444,0,0,0,3.4048,2.7,7.6318,7.6318,0,0,0,4.2553.3621,12.8655,12.8655,0,0,0,4.8731-1.9359,12.31,12.31,0,0,0,3.3654-3.0391,6.1378,6.1378,0,0,0,1.3134-3.2819,4.7314,4.7314,0,0,0-.7579-2.9049,4.3643,4.3643,0,0,0-2.2655-1.8076,6.8506,6.8506,0,0,0-3.6155-.0279,59.5339,59.5339,0,0,0-5.9139,1.8442,30.7816,30.7816,0,0,1-6.5857,1.733,9.167,9.167,0,0,1-4.7078-.6808,7.6421,7.6421,0,0,1-3.2563-2.8493,8.4,8.4,0,0,1-1.3613-4.7338,8.8018,8.8018,0,0,1,1.726-5.0573,15.9345,15.9345,0,0,1,4.56-4.2609,16.9268,16.9268,0,0,1,6.1886-2.5325,9.5823,9.5823,0,0,1,5.6052.594,10.145,10.145,0,0,1,4.2528,3.5227l-3.4085,2.5536a6.8875,6.8875,0,0,0-4.56-2.7593,9.1119,9.1119,0,0,0-5.8018,1.7861q-3.39,2.1636-4.14,4.3839a4.3556,4.3556,0,0,0,.3791,3.9567,3.8211,3.8211,0,0,0,2.7108,1.78q1.7114.2849,6.93-1.6017a44.6293,44.6293,0,0,1,7.41-2.205,10.2707,10.2707,0,0,1,5.495.5293,8.3228,8.3228,0,0,1,3.7619,3.2285,8.9909,8.9909,0,0,1,1.4455,5.0311,9.9521,9.9521,0,0,1-1.71,5.4385,15.3,15.3,0,0,1-4.7274,4.57,19.4236,19.4236,0,0,1-7.1427,2.993,10.7912,10.7912,0,0,1-6.2289-.7359,11.3093,11.3093,0,0,1-4.82-4.0383Z" transform="translate(0)" style="stroke:#000"/><path d="M1043.1909,520.5827l-15.419-29.562,11.2554-5.7625a30.7416,30.7416,0,0,1,4.686-2.0415,10.2105,10.2105,0,0,1,4.4044-.5048,8.2764,8.2764,0,0,1,3.88,1.6289,10.7839,10.7839,0,0,1,3.9161,11.1916q-1.06,3.8516-7.39,7.0922l-7.6529,3.9181,6.2686,12.0183Zm-4.14-17.5286,7.7139-3.9493q3.8264-1.959,4.6981-4.1938a5.6151,5.6151,0,0,0-.464-4.7957,6.041,6.041,0,0,0-2.603-2.6915,5.0215,5.0215,0,0,0-3.4031-.4677,19.0892,19.0892,0,0,0-3.8207,1.6239l-7.6325,3.9077Z" transform="translate(0)" style="stroke:#000"/><path d="M1067.7745,507.9843l-.4882-35.642,4.4462-1.7607,25.23,25.8444-4.7015,1.8618-7.4132-7.9177-13.041,5.1641.35,10.7146Zm3.88-16.2519,10.5732-4.187-6.7071-7.2683q-3.0624-3.31-4.7975-5.5314a42.0472,42.0472,0,0,1,.7,6.5672Z" transform="translate(0)" style="stroke:#000"/><path d="M1100.3819,495.3873l-9.2257-31.9958,4.3838-1.2408,24.2057,20.32-7.2434-25.1208,4.0975-1.16,9.2257,31.9959-4.3838,1.2407-24.212-20.3418,7.25,25.1426Zm-3.7278-35.6529a5.1716,5.1716,0,0,1,.211-3.9784,4.3321,4.3321,0,0,1,2.826-2.2634,9.4874,9.4874,0,0,1,4.0627.1248,5.2153,5.2153,0,0,0,2.26.0688,1.4923,1.4923,0,0,0,.9692-.6875,2.8821,2.8821,0,0,0,.0914-1.6665l2.8638-.8106a5.6007,5.6007,0,0,1-.1906,4.0907,4.1932,4.1932,0,0,1-2.6923,2.1075,8.7049,8.7049,0,0,1-4.0092-.1872,5.6757,5.6757,0,0,0-2.3854-.1747,1.5914,1.5914,0,0,0-1.0606.8667,2.2177,2.2177,0,0,0-.0159,1.6806Z" transform="translate(0)" style="stroke:#000"/><path d="M1129.0759,470.7006q-1.3944-8.1689,2.2442-13.5323a15.2854,15.2854,0,0,1,10.6414-6.5369,16.2241,16.2241,0,0,1,8.6383.7856,14.4965,14.4965,0,0,1,6.6469,5.1134,19.8384,19.8384,0,0,1,3.4347,8.4831,19.4338,19.4338,0,0,1-.5087,9.27,13.9425,13.9425,0,0,1-4.7422,6.93,16.7679,16.7679,0,0,1-7.6961,3.373,16.02,16.02,0,0,1-8.74-.8376,14.7213,14.7213,0,0,1-6.6225-5.175,18.6853,18.6853,0,0,1-3.2958-7.8733Zm4.5294-.69q1.0123,5.9308,4.814,8.8045a11.4559,11.4559,0,0,0,16.2136-2.7513q2.608-3.9822,1.5269-10.3159a16.95,16.95,0,0,0-2.5606-6.7649,10.6271,10.6271,0,0,0-4.7891-3.9628,11.09,11.09,0,0,0-6.188-.6552,11.3809,11.3809,0,0,0-7.4674,4.5087Q1132.3407,462.6028,1133.6053,470.0108Z" transform="translate(0)" style="stroke:#000"/><path d="M1169.0135,481.0434l-2.3305-33.1956,4.4339-.3056,2.0555,29.2783,16.5014-1.1372.275,3.9174Z" transform="translate(0)" style="stroke:#000"/><path d="M1191.5885,479.35l13.6012-33,4.7871.1,13.0376,33.5546-5.062-.1053-3.7031-10.1574-14.0409-.2923-3.9015,9.9991Zm9.9787-13.46,11.3838.2369-3.309-9.2864q-1.5144-4.2317-2.2359-6.9484a42.1241,42.1241,0,0,1-1.9443,6.3165Z" transform="translate(0)" style="stroke:#000"/><path d="M1239.5705,481.7544l5.7573-32.7833,11.3984,1.9649a28.2849,28.2849,0,0,1,5.8086,1.4851,11.3739,11.3739,0,0,1,4.4405,3.1846,13.4836,13.4836,0,0,1,2.9323,6.2769,22.1191,22.1191,0,0,1-.0708,8.017,23.0863,23.0863,0,0,1-2.0427,6.4675,16.3034,16.3034,0,0,1-3.0955,4.3853,12.1751,12.1751,0,0,1-3.5356,2.4548,12.5646,12.5646,0,0,1-4.2386.9627,23.0931,23.0931,0,0,1-5.4137-.3572Zm5.0582-3.1138,7.0648,1.2178a17.563,17.563,0,0,0,5.241.2814,7.4992,7.4992,0,0,0,3.2665-1.1879,10.5237,10.5237,0,0,0,3.155-3.73,20.4539,20.4539,0,0,0,1.9784-6.1676q.9032-5.1433-.3159-8.1989a8.64,8.64,0,0,0-3.4918-4.4149,17.4964,17.4964,0,0,0-5.5476-1.6475l-6.9519-1.1984Z" transform="translate(0)" style="stroke:#000"/><path d="M1272.99,487.9951l9.3081-31.9724,23.3336,6.6679-1.0984,3.773-19.0632-5.4476-2.8508,9.7924,17.8524,5.1016-1.092,3.7511-17.8525-5.1016-3.1683,10.8829,19.8116,5.6615-1.0984,3.773Z" transform="translate(0)" style="stroke:#000"/><path d="M1302.7141,496.9569l12.3053-30.9621,4.1355,1.6134-10.8531,27.3082,15.3911,6.0043-1.4522,3.6538Z" transform="translate(0)" style="stroke:#000"/><path d="M1338.9192,512.3684l16.3481-29.0679,21.214,11.7112-1.9292,3.43-17.3314-9.5679-5.007,8.9028,16.2306,8.96-1.918,3.41-16.2307-8.96-5.5646,9.8942,18.0119,9.9435-1.9292,3.43Z" transform="translate(0)" style="stroke:#000"/><path d="M1369.4263,518.7677l3.6317,1.7688q-2.0186,3.2507-1.7488,5.1281a4.4984,4.4984,0,0,0,2.15,3.1336,5.3222,5.3222,0,0,0,2.8226.9683,3.9665,3.9665,0,0,0,2.5521-.7865,13.8273,13.8273,0,0,0,2.73-3.2l12.9351-19.0089,3.6853,2.4616-12.7942,18.8019a16.583,16.583,0,0,1-4.4953,4.7992,7.314,7.314,0,0,1-4.6508,1.1094,10.6746,10.6746,0,0,1-4.9814-1.8765q-3.6663-2.4488-4.1919-5.8385t2.3552-7.4607Z" transform="translate(0)" style="stroke:#000"/><path d="M1385.4311,541.0261l21.0117-25.96,18.9458,15.0521-2.48,3.0635-15.4783-12.2973-6.4354,7.9509,14.4953,11.5163-2.4652,3.0457L1398.53,531.8812l-7.152,8.8363,16.086,12.78-2.4795,3.0635Zm29.48-21.909,6.39-3.07,4.2181,3.3512-7.9453,1.8342Z" transform="translate(0)" style="stroke:#000"/><path d="M1409.6836,560.6778l23.4388-23.8332,10.6659,10.2963a19.6639,19.6639,0,0,1,4.2584,5.3626,7.3351,7.3351,0,0,1,.4443,4.85,9.423,9.423,0,0,1-2.5324,4.5591,8.4814,8.4814,0,0,1-5.8623,2.6758q-3.3681.14-7.294-2.7312a11.3323,11.3323,0,0,1,.7528,3.04,22.6726,22.6726,0,0,1-.4759,5.7205l-2.1951,10.5259-4.0037-3.865,1.6931-8.0315q.7157-3.4925.9324-5.5016a9.9055,9.9055,0,0,0-.0494-3.1535,6.576,6.576,0,0,0-.8286-2.0359,13.2646,13.2646,0,0,0-1.66-1.8246l-3.692-3.5641-10.4084,10.5835Zm16.2777-10.2417,6.8426,6.6055a14.321,14.321,0,0,0,3.8528,2.8477,5.1143,5.1143,0,0,0,3.2776.3751,5.4667,5.4667,0,0,0,2.7424-1.52,4.9327,4.9327,0,0,0,1.495-3.9759q-.1677-2.2853-2.8423-4.8672l-7.6139-7.35Z" transform="translate(0)" style="stroke:#000"/><path d="M1458.1111,594.9993l2.0014,4.0861a15.085,15.085,0,0,1-9.6278,1.5119,13.8752,13.8752,0,0,1-7.9145-4.8981,15.7452,15.7452,0,0,1-3.9924-8.1067,13.57,13.57,0,0,1,1.5682-8.0094,22.6763,22.6763,0,0,1,5.7482-7.0878,19.855,19.855,0,0,1,8.2951-4.3163,13.8544,13.8544,0,0,1,8.213.5418,16.6623,16.6623,0,0,1,6.7939,4.8828,13.5773,13.5773,0,0,1,3.492,8.0639,13.1138,13.1138,0,0,1-2.4414,8.2326l-3.6055-2.6606a10.2176,10.2176,0,0,0,1.9031-5.975,8.9112,8.9112,0,0,0-2.318-5.3052,10.8658,10.8658,0,0,0-5.5859-3.7243,9.886,9.886,0,0,0-6.1656.4067,20.099,20.099,0,0,0-5.6141,3.3134,20.354,20.354,0,0,0-4.9213,5.7167,9.1424,9.1424,0,0,0-1.1565,5.9906,10.744,10.744,0,0,0,2.4618,5.3337,9.576,9.576,0,0,0,5.718,3.4214,11.1088,11.1088,0,0,0,7.1481-1.4181Z" transform="translate(0)" style="stroke:#000"/><path d="M1455.4726,611.0306l27.1286-19.618,2.62,3.5568-27.1287,19.6181Z" transform="translate(0)" style="stroke:#000"/><path d="M1467.3216,627.9671l24.9619-15.8031-5.9584-9.2383,3.34-2.1144L1504,623.0367l-3.34,2.1144-5.983-9.2765-24.9619,15.8031Z" transform="translate(0)" style="stroke:#000"/><path d="M1492.0305,636.356q7.4593-3.7447,13.7091-1.8948a15.227,15.227,0,0,1,9.46,8.1267,15.8112,15.8112,0,0,1,1.8077,8.4057,14.3,14.3,0,0,1-2.9549,7.8067A21.5753,21.5753,0,0,1,1497.81,666.84a14.1668,14.1668,0,0,1-8.0869-2.4291,16.5846,16.5846,0,0,1-5.536-6.28,15.6126,15.6126,0,0,1-1.7877-8.5175,14.5282,14.5282,0,0,1,3.0214-7.8019,18.9153,18.9153,0,0,1,6.61-5.4558Zm2.01,4.08q-5.4156,2.7188-7.0566,7.1686a10.5508,10.5508,0,0,0,.5854,8.803,10.698,10.698,0,0,0,6.88,5.7193q4.6125,1.285,10.3961-1.6183a17.186,17.186,0,0,0,5.76-4.4311,10.4992,10.4992,0,0,0,2.3975-5.7075,10.8062,10.8062,0,0,0-1.2058-6.0488,11.3313,11.3313,0,0,0-6.5626-5.726q-4.43-1.5551-11.1941,1.8408Z" transform="translate(0)" style="stroke:#000"/><path d="M1498.9584,689.3122,1530.94,679.149l3.5336,10.9149a27.592,27.592,0,0,1,1.3682,5.7868,11.177,11.177,0,0,1-.7863,5.3749,13.5555,13.5555,0,0,1-4.2508,5.4866,22.607,22.607,0,0,1-7.2,3.6588,23.6592,23.6592,0,0,1-6.73,1.2091,16.6,16.6,0,0,1-5.3573-.6813,12.21,12.21,0,0,1-3.8356-1.9634,12.383,12.383,0,0,1-2.828-3.2728,22.5658,22.5658,0,0,1-2.1933-4.9168Zm5.1316,2.9937,2.19,6.7651a17.167,17.167,0,0,0,2.1809,4.73,7.4329,7.4329,0,0,0,2.5781,2.3153,10.6786,10.6786,0,0,0,4.799,1.0375,20.9537,20.9537,0,0,0,6.4323-1.1263q5.0175-1.5945,7.1835-4.0825a8.5885,8.5885,0,0,0,2.3265-5.1134,17.0741,17.0741,0,0,0-1.1018-5.6331l-2.1552-6.657Z" transform="translate(0)" style="stroke:#000"/><path d="M1508.8538,721.5481l32.9538-6.4285,4.6915,23.607-3.8888.7586-3.833-19.2865-10.0929,1.9689,3.5895,18.0616-3.8663.7542-3.59-18.0616-11.2169,2.1882,3.9834,20.0437-3.8888.7586Z" transform="translate(0)" style="stroke:#000"/><path d="M1516.8367,773.241l29.512-2.5393-.9575-10.9222,3.9487-.34,2.3033,26.2766-3.9486.34-.9614-10.9674-29.512,2.5392Z" transform="translate(0)" style="stroke:#000"/><path d="M1518.2241,793.8941l33.5665-1.1469.1533,4.4009-33.5666,1.1467Z" transform="translate(0)" style="stroke:#000"/><path d="M1518.719,806.1276l33.5746.8842-.6453,24.0519-3.9621-.1044.5272-19.65-10.283-.2708-.4937,18.4018-3.9392-.1038.4937-18.4018-11.4282-.301-.5479,20.4213-3.962-.1044Z" transform="translate(0)" style="stroke:#000"/><path d="M1517.6394,837.152l33.3158,4.2155-1.8865,14.6351a19.4939,19.4939,0,0,1-1.7626,6.596,7.4419,7.4419,0,0,1-3.6433,3.2689,9.6159,9.6159,0,0,1-5.1994.738,8.4693,8.4693,0,0,1-5.6837-3.03q-2.1386-2.5818-2.1851-7.416a11.4477,11.4477,0,0,1-1.9986,2.4245,23.1257,23.1257,0,0,1-4.8988,3.0642l-9.8076,4.5941.7081-5.4937,7.4944-3.491q3.2464-1.5342,4.9969-2.5713a10.0721,10.0721,0,0,0,2.513-1.936,6.5986,6.5986,0,0,0,1.1432-1.88,13.1315,13.1315,0,0,0,.4725-2.4115l.6531-5.0661-14.7944-1.8719Zm18.0492,6.723-1.21,9.389a14.07,14.07,0,0,0,.0212,4.7622,5.0165,5.0165,0,0,0,1.669,2.82,5.4784,5.4784,0,0,0,2.8753,1.2562,5.0365,5.0365,0,0,0,4.1052-1.2082q1.7416-1.5074,2.2149-5.1773l1.3467-10.4472Z" transform="translate(0)" style="stroke:#000"/><path d="M1512.9914,870.4537l32.5364,8.2557-3.6947,14.2926a19.5379,19.5379,0,0,1-2.5706,6.33,7.4652,7.4652,0,0,1-4.0225,2.7985,9.6208,9.6208,0,0,1-5.2516.0968,8.4441,8.4441,0,0,1-5.2629-3.7019q-1.8007-2.8234-1.245-7.6264a11.4835,11.4835,0,0,1-2.2852,2.1616,23.1926,23.1926,0,0,1-5.243,2.442l-10.3048,3.36,1.3869-5.3652,7.8719-2.5481q3.4126-1.1258,5.2789-1.9409a10.1074,10.1074,0,0,0,2.7349-1.614,6.621,6.621,0,0,0,1.3686-1.7264,13.1412,13.1412,0,0,0,.7692-2.3353l1.2789-4.9475-14.4483-3.6661Zm17.0742,8.8779-2.37,9.1693a14.07,14.07,0,0,0-.5719,4.7286,5.0014,5.0014,0,0,0,1.3051,3.0023,5.4641,5.4641,0,0,0,2.6969,1.5981,5.0435,5.0435,0,0,0,4.2243-.6972q1.9161-1.2828,2.8426-4.867l2.6374-10.2027Z" transform="translate(0)" style="stroke:#000"/><path d="M1505.6829,899.53l25.6238,25.022-1.9152,4.348-36.281-.8275,2.0251-4.5976,10.89.4736,5.6173-12.7527-7.8478-7.38Zm8.7645,14.2653-4.5544,10.3394,9.9272.5031q4.5259.2234,7.3363.5964a42.7441,42.7441,0,0,1-5.1555-4.1855Z" transform="translate(0)" style="stroke:#000"/><path d="M934.7345,1015.5209l4.2124-5.7962,4.6726-4.3582,5.3775,5.7654-4.6727,4.3583-5.952,3.9308Zm7.9256,8.4974,4.2123-5.7961,4.6727-4.3582,5.3775,5.7655-4.6727,4.3582-5.9521,3.9308Z" transform="translate(0)"/><path d="M956.1746,1051.5851l4.2724-4.7165,12.1827,11.0357-10.1015,11.1515a20.694,20.694,0,0,1-7.8878-1.6349,25.2726,25.2726,0,0,1-8.0114-4.8758,20.673,20.673,0,0,1-5.9879-8.7789,15.8077,15.8077,0,0,1-.1334-9.7156,22.9811,22.9811,0,0,1,5.1123-8.9443,21.7411,21.7411,0,0,1,8.8731-6.1112,16.659,16.659,0,0,1,10.0879-.3525,19.5359,19.5359,0,0,1,7.9651,4.6774q5.2129,4.7222,6.1636,9.5636a13.3209,13.3209,0,0,1-1.7033,9.46l-6.5653-4.0351a8,8,0,0,0,.7246-5.2709,9.0724,9.0724,0,0,0-2.9958-4.8863,10.335,10.335,0,0,0-8.0184-2.9875q-4.314.3682-8.5,4.9892-4.5146,4.9839-4.5568,9.4822a9.98,9.98,0,0,0,3.5477,7.75,13.1343,13.1343,0,0,0,4.1926,2.529,16.4655,16.4655,0,0,0,4.5955,1.0862l3.2173-3.5517Z" transform="translate(0)"/><path d="M991.6277,1097.9293l-6.6054-5.02,2.5653-8.8264-12.021-9.135-7.6732,4.9449-6.4413-4.8949,34.5663-21.1719,6.4208,4.8792Zm-2.1385-20.3938,4.3365-14.3084-12.542,8.0729Z" transform="translate(0)"/><path d="M1015.3164,1068.276l12.7488,8.0883a43.6321,43.6321,0,0,1,5.4455,3.8972,9.8249,9.8249,0,0,1,2.4935,3.428,9.6941,9.6941,0,0,1,.7567,4.2179,8.552,8.552,0,0,1-1.3881,4.3522,8.9539,8.9539,0,0,1-8.8709,4.0749,9.9406,9.9406,0,0,1,2.646,5.7369,9.0963,9.0963,0,0,1-1.484,5.8017,11.2272,11.2272,0,0,1-3.6963,3.59,10.0954,10.0954,0,0,1-4.8471,1.5322,10.8073,10.8073,0,0,1-5.2778-1.2278q-1.72-.8474-7.9048-4.71l-10.856-6.8875Zm3.0719,9.394-4.6791,7.3752,4.2206,2.6777q3.7636,2.3877,4.7465,2.8588a5.0406,5.0406,0,0,0,3.3244.5072,3.9885,3.9885,0,0,0,2.5268-1.8906,4.1449,4.1449,0,0,0,.7093-2.9216,4.3742,4.3742,0,0,0-1.715-2.6594q-.8882-.7159-5.4351-3.6008Zm-8.0469,12.6836-5.4106,8.5282,5.961,3.7819a34.5057,34.5057,0,0,0,4.5407,2.6061,4.726,4.726,0,0,0,3.1461.2111,4.6394,4.6394,0,0,0,2.6213-2.1358,4.9281,4.9281,0,0,0,.85-2.8784,4.66,4.66,0,0,0-1.0876-2.7344,25.9082,25.9082,0,0,0-5.421-4.08Z" transform="translate(0)"/><path d="M1027.46,1120.3373l17.2748-33.5893,14.2743,7.3412q5.3842,2.7693,7.359,4.9291a8.68,8.68,0,0,1,2.251,5.2282,10.8818,10.8818,0,0,1-1.2557,6.0469,10.0831,10.0831,0,0,1-5.4335,5.1005q-3.4892,1.32-8.2411-.3127a17.797,17.797,0,0,1,2.1822,4.6859,43.0527,43.0527,0,0,1,1.0562,7.4387l.7311,8.6621-8.1109-4.1713-1.1442-9.8307a53.298,53.298,0,0,0-1.035-6.7758,5.8523,5.8523,0,0,0-1.32-2.4464,12.5691,12.5691,0,0,0-3.22-2.1338l-1.3747-.7071-7.2115,14.0223Zm16.7509-15.8957,5.0178,2.5806q4.88,2.51,6.3067,2.722a4.1076,4.1076,0,0,0,2.6323-.4426,4.9176,4.9176,0,0,0,1.9836-2.1668,4.5292,4.5292,0,0,0,.5031-3.2035,4.6711,4.6711,0,0,0-1.8772-2.6313q-.7659-.5386-4.89-2.66l-5.2927-2.722Z" transform="translate(0)"/><path d="M1061.414,1137.1042l14.9978-34.6658,6.9993,3.0282-14.9977,34.6658Z" transform="translate(0)"/><path d="M1075.0317,1143.1045l12.6349-35.5951,26.3928,9.3684-2.1374,6.0216-19.2058-6.8173-2.8011,7.891,17.87,6.3434-2.1288,5.9972-17.87-6.3433-3.4389,9.6879,19.8857,7.0587-2.1288,5.9972Z" transform="translate(0)"/><path d="M1108.5921,1154.5549l9.0847-36.3436,7.3987,1.8494-7.5415,30.17,18.3968,4.5987-1.5433,6.1739Z" transform="translate(0)"/><path d="M1157.7162,1126.8847l13.8778,1.3008a27.2233,27.2233,0,0,1,7.09,1.389,12.6333,12.6333,0,0,1,5.3446,3.9944,16.5011,16.5011,0,0,1,3.02,6.4291,27.8763,27.8763,0,0,1,.3982,9.0039,24.8264,24.8264,0,0,1-1.9045,7.8953,16.6531,16.6531,0,0,1-4.65,6.2665,13.4072,13.4072,0,0,1-5.617,2.5012,23.071,23.071,0,0,1-6.7954.1653l-14.2884-1.3392Zm6.9967,7.0735-2.3345,24.9084,5.6691.5313a20.776,20.776,0,0,0,4.6255.0713,7.0387,7.0387,0,0,0,3.2121-1.2775,7.9976,7.9976,0,0,0,2.3282-3.4434,24.6424,24.6424,0,0,0,1.4151-6.8156,22.5674,22.5674,0,0,0-.1419-6.7673,8.6441,8.6441,0,0,0-1.8134-3.8447,7.258,7.258,0,0,0-3.3485-2.0993,34.5741,34.5741,0,0,0-6.2-.9434Z" transform="translate(0)"/><path d="M1192.2427,1167.5418l-.8516-37.7615,27.9991-.6314.1441,6.388-20.3747.46.1887,8.3713,18.958-.4275.1436,6.3623-18.958.4275.2317,10.2776,21.096-.4758.1435,6.3622Z" transform="translate(0)"/><path d="M1263.2256,1146.5627l7.7.937q-.528,6.3912-3.86,10.0723a17.7951,17.7951,0,0,1-22.4115,2.0406q-5.7106-4.1559-7.3589-12.9168-1.7434-9.2671,2.0774-15.295t11.62-7.495a15.7108,15.7108,0,0,1,11.8225,1.9442,14.9,14.9,0,0,1,5.0842,6.1219l-7.0854,3.1682a7.803,7.803,0,0,0-8.9959-4.7569,8.5948,8.5948,0,0,0-6.14,4.2226q-2.0127,3.446-.7646,10.08,1.3244,7.0391,4.4185,9.55a8.3657,8.3657,0,0,0,7.1454,1.7493,7.64,7.64,0,0,0,4.7828-2.866,11.2246,11.2246,0,0,0,1.9648-6.5569Z" transform="translate(0)"/><path d="M1311.9736,1147.0621l-7.9236,2.4586-5.6923-7.217-14.42,4.4742-.4349,9.1181-7.7268,2.3974,2.8577-40.4341,7.7021-2.39Zm-17.8394-10.1111-9.1242-11.8442-.7188,14.8982Z" transform="translate(0)"/><path d="M1309.1136,1134.8261l6.5407-3.5777a9.0527,9.0527,0,0,0,4.6551,3.9794,8.2175,8.2175,0,0,0,5.77-.5592,8.4938,8.4938,0,0,0,4.494-3.6141,4.6381,4.6381,0,0,0,.2861-4.0864,3.4388,3.4388,0,0,0-1.6182-1.7883,6.2811,6.2811,0,0,0-3.1661-.4269q-1.4142.1-6.2632.8816-6.2362,1.01-9.3812-.0559a9.8284,9.8284,0,0,1-6.1838-5.6239,9.71,9.71,0,0,1-.6153-5.6065,10.2441,10.2441,0,0,1,2.8335-5.37,18.898,18.898,0,0,1,6.32-4.1277q6.54-2.7927,11.0694-1.3373a11.0041,11.0041,0,0,1,6.74,6.171l-6.8821,3.3032a6.4762,6.4762,0,0,0-3.5754-3.0257,7.69,7.69,0,0,0-4.9436.7244,8.7145,8.7145,0,0,0-4.25,3.3,2.7511,2.7511,0,0,0-.1928,2.6317,2.9008,2.9008,0,0,0,1.9431,1.6637q1.8024.5471,7.4366-.43a36.9864,36.9864,0,0,1,8.6379-.7331,10.61,10.61,0,0,1,5.3462,1.8912,11.89,11.89,0,0,1,4.4783,11.241,10.8089,10.8089,0,0,1-3.0371,5.8775,21.3934,21.3934,0,0,1-7.0172,4.4955q-6.5873,2.8131-11.4179,1.276t-8.0071-7.0725Z" transform="translate(0)"/><path d="M1355.4642,1127.1238l-14.79-27.6774-9.8848,5.2822-3.0115-5.6355,26.4731-14.1466,3.0115,5.6355-9.8621,5.27,14.79,27.6774Z" transform="translate(0)"/><path d="M1375.988,1115.63l-19.6631-32.2493,6.5114-3.97L1382.5,1111.66Z" transform="translate(0)"/><path d="M1388.867,1107.7908l-21.1887-30.8939,6.2893-4.3135,17.5892,25.6457,15.6382-10.7255,3.5994,5.2482Z" transform="translate(0)"/><path d="M1415.3042,1089.2969l-23.3167-29.321,5.9691-4.7468,19.3557,24.34,14.8421-11.8026,3.9609,4.9809Z" transform="translate(0)"/><path d="M1465.2649,1046.0424l-6.0823,5.642-8.2526-4.0473-11.0691,10.2677,3.5491,8.41-5.9312,5.5018-14.9012-37.6966,5.9123-5.4843Zm-20.4573-1.4065L1431.46,1037.9l5.7918,13.7451Z" transform="translate(0)"/><path d="M1450.3352,1026.1l-6.093-3.77-4.6932-4.3361,5.35-5.7908,4.6932,4.336,4.3621,5.6437Zm7.8853-8.5348-6.093-3.77-4.6933-4.336,5.35-5.7909,4.6933,4.3361,4.362,5.6436Z" transform="translate(0)"/><path d="M1497.2348,800c0,164.1585-133.0767,297.2351-297.2351,297.2351S902.7646,964.1582,902.7646,800,1035.8413,502.7645,1200,502.7645,1497.2349,635.8413,1497.2349,800Z" transform="translate(0)" style="fill:#89c5e3"/><path d="M1497.2348,800c0,164.1585-133.0767,297.2351-297.2351,297.2351S902.7646,964.1582,902.7646,800,1035.8413,502.7645,1200,502.7645,1497.2349,635.8413,1497.2349,800Z" transform="translate(0)" style="fill:none;stroke:#da121a;stroke-linecap:round;stroke-linejoin:round;stroke-width:15.999999618024958px"/><path d="M1497.2348,800c0,164.1585-133.0767,297.2351-297.2351,297.2351S902.7646,964.1582,902.7646,800,1035.8413,502.7645,1200,502.7645,1497.2349,635.8413,1497.2349,800Z" transform="translate(0)" style="fill:none;stroke:#fcdd09;stroke-linecap:round;stroke-linejoin:round;stroke-width:5.332999675356007px"/><path d="M1497.5886,967.2752a7.77,7.77,0,1,1-7.77-7.77A7.77,7.77,0,0,1,1497.5886,967.2752Z" transform="translate(0)" style="stroke:#000;stroke-miterlimit:4.444444179534912;fill-rule:evenodd"/><path d="M917.9508,967.2752a7.77,7.77,0,1,1-7.77-7.77A7.77,7.77,0,0,1,917.9508,967.2752Z" transform="translate(0)" style="stroke:#000;stroke-miterlimit:4.444444179534912;fill-rule:evenodd"/><path d="M1404.6578,847.6382c0-2.1977.55-71.9738.55-71.9738l-7.1426-11.5377,2.747-73.622-8.7908-17.5814-2.1975-12.6366-.55-60.9854s-1.6482-7.1424-4.3952-7.1424-12.6367-8.7907-12.6367-8.7907-9.89,1.0988-12.0872,1.0988-12.6366-4.3953-12.6366-4.3953l-9.34-10.9884h-14.2848l-13.186,6.0436-15.3837-4.9448-21.9766,3.2965-34.6134-17.0319L1227.1958,553.7l-28.02-15.9331-30.7674,2.1976-21.4273,8.2413-22.5261.5494-18.68,12.6367-9.89,3.8459-10.9883,5.4942-12.0872,10.4389-15.9331,1.6483-17.5814,12.0872-9.34,9.8895-4.9448,13.7354-21.9767-.5494-7.1425,14.2848-2.747,29.1192L991.4954,694.9l-5.4941,13.186-15.3837,13.7355L957.981,744.3476l-2.7471,8.7907L959.08,780.06l4.9448,34.064-3.8459,17.5814,1.6482,19.779L968.42,874.01l7.6918,21.4273,8.2413,29.1192,3.8459,21.4273,6.593,17.032,20.3285,14.8343,24.7237,15.9331,15.3838,17.0319,15.3837,20.3285,10.4389,12.6366,18.1308,10.9884,18.1307.5494,21.4274,6.0436,14.2848,7.1425h11.5378l18.1307,3.2964,16.4826-1.0988,14.2848-7.6919,14.2848,5.4942,11.5377,1.0988,14.8345.55,4.3952-6.0436,4.9448-21.9767,6.5929-14.2849,1.099-13.186-17.5814-12.0872-16.4827-1.0989-20.8778-12.0871-23.0756-6.0437-20.8778-12.0871-6.0437-4.3953-14.8342-2.1977-7.1425-7.1425-6.593-1.6482-10.9884-7.6919-49.997-45.6017L1043.14,884.4494l-2.7471-14.8343-1.0988-9.89-8.2412-17.5814-3.846-19.779,5.4942-9.8895,13.186-8.7907,9.8895-7.1425,11.5378-12.0872V766.3245l33.5145-43.9535-5.4941-15.9331-8.2413-14.8343,3.2966-16.4826,7.6918-13.186,13.7355-9.34,12.6366-1.6483,7.1425-4.3953,38.4593,23.0755,11.5377,24.1745,31.8664,16.4825,15.933,10.9884,15.9331,23.6249,3.846,24.1744v24.1744l-4.3954,25.2733-3.846,19.23-7.6918,46.7005L1232.14,902.58v21.9767l5.4942,12.6366,9.34,6.0437,10.4388-12.0873,11.5378-5.4941,12.6367,6.0436,3.8459,10.9883-3.2964,13.7355-7.6919,9.8895,2.747,12.0872,6.5929,3.2965,4.3952,3.2965,6.5929-8.2413,10.4391-14.8343,7.1423-.5494,6.5929-2.1977,14.2848,3.846,4.3954,6.593,6.5929,7.6918,2.747,3.8459,9.8895-4.9447,10.9884-3.2966.5494-13.186-5.4941-17.5814V921.81l3.2964-14.2848,11.5378-10.9884,8.7908-2.1977,6.5929,3.8459,7.6919,7.6919,15.3837-21.4274,2.1977-10.9884-5.4942-15.3837-8.2413-10.4389Z" transform="translate(0)" style="fill:#fff;stroke:#000;stroke-linecap:round;stroke-linejoin:round;stroke-width:2px"/><path d="M1099.9074,919.91s-2.368,20.6441,0,26.6121,5.857,9.2795,7.5758,8.1584c1.8526-1.2085,3.4313-12.2589,6.2159-12.82s7.3186,13.2206,9.7124,12.0434-.072-11.4449,2.1368-12.4319,11.4876,7.2347,14.18,4.8562-18.2594-33.4107-18.2594-33.4107l-8.1584-.3886" transform="translate(0)" style="fill:#fff;stroke:#000;stroke-linecap:round;stroke-linejoin:round;stroke-width:2px"/><path d="M1130.9872,912.5284c3.64-.455,18.3432,30.6574,22.1444,29.9143s1.835-12.4143,4.4677-13.2089c2.81-.8482,12.2378,10.8851,14.18,9.9067s-2.9613-10.4239-1.36-12.4319,17.8608,12.0136,16.9,5.6332c-.99-6.5705-32.2452-27-32.2452-27" transform="translate(0)" style="fill:#fff;stroke:#000;stroke-linecap:round;stroke-linejoin:round;stroke-width:2px"/><path d="M1073.6839,908.255c2,7.3008,16.0056,14.933,26.4178,15.9284,11.7076,1.7615,23.18-1.952,34.9648-7.3815,6.8966-.725,13.199,3.3764,35.9361-9.7124s37.8-63.11,41.7634-89.7429,9.3273-37.7013,5.439-60.6055c-3.9524-23.2819-4.07-31.7212-6.216-40.7922s15.08-9.5046,18.2593-20.2019,6.9112-27.3467-6.216-39.2382-42.12-15.7593-66.4331-3.885-24.1159,63.3127-54.39,78.8649-89.2811-12.7523-108.3907-1.9425-17.612,10.1791-11.6549,20.2019,28.0688-3.62,46.62-1.1655,54.3995,1.847,62.9366,18.6479-11.9793,24.9736-15.9284,44.6771.7124,57.8408-3.885,73.0375-13.2484,13.5679-11.2664,19.0364,10.0433-3.0273,12.0434,4.2734Z" transform="translate(0)" style="fill:#fff;stroke:#000;stroke-linecap:round;stroke-linejoin:round;stroke-width:2px"/><path d="M1135.4549,916.4134c19.4735-9.9957,35.1956-30.4744,44.0946-51.4759" transform="translate(0)" style="fill:none;stroke:#000;stroke-linecap:round;stroke-linejoin:round;stroke-width:2px"/><path d="M1174.3047,835.2175a21.7052,21.7052,0,0,1-.3883,12.82" transform="translate(0)" style="fill:none;stroke:#000;stroke-linecap:round;stroke-linejoin:round;stroke-width:2px"/><path d="M1163.8153,851.1459c-.2027,3.8926.1015,8.6288-1.5541,10.1009" transform="translate(0)" style="fill:none;stroke:#000;stroke-linecap:round;stroke-linejoin:round;stroke-width:2px"/><path d="M1149.0523,863.1893a12.2785,12.2785,0,0,0,1.9425,8.9354" transform="translate(0)" style="fill:none;stroke:#000;stroke-linecap:round;stroke-linejoin:round;stroke-width:2px"/><path d="M1142.0593,874.0673c-4.4294,3.4964-5.1086,6.993-6.6044,10.4894" transform="translate(0)" style="fill:none;stroke:#000;stroke-linecap:round;stroke-linejoin:round;stroke-width:2px"/><path d="M1127.2965,883.78a36.3333,36.3333,0,0,0-1.1655,16.7053" transform="translate(0)" style="fill:none;stroke:#000;stroke-linecap:round;stroke-linejoin:round;stroke-width:2px"/><path d="M1159.3476,736.7335c-1.9185,5.7966-2.9609,9.8793-3.3023,14.18" transform="translate(0)" style="fill:none;stroke:#000;stroke-linecap:round;stroke-linejoin:round;stroke-width:2px"/><path d="M1168.283,748.5826c-.4533,7.3871-.9066,9.939-1.36,13.9859" transform="translate(0)" style="fill:none;stroke:#000;stroke-linecap:round;stroke-linejoin:round;stroke-width:2px"/><path d="M1178.9668,759.4606c-.1354,6.0267-.8381,10.5422-2.5252,12.4319" transform="translate(0)" style="fill:none;stroke:#000;stroke-linecap:round;stroke-linejoin:round;stroke-width:2px"/><path d="M1186.1538,768.59c-.3237,6.6609-.6475,9.2275-.9712,11.8492" transform="translate(0)" style="fill:none;stroke:#000;stroke-linecap:round;stroke-linejoin:round;stroke-width:2px"/><path d="M1198.003,760.2376c1.0826,3.7185-.9848,6.65-1.7482,9.9066" transform="translate(0)" style="fill:none;stroke:#000;stroke-linecap:round;stroke-linejoin:round;stroke-width:2px"/><path d="M1208.2981,756.9354c1.012,3.6124.5046,7.7312,0,11.8492" transform="translate(0)" style="fill:none;stroke:#000;stroke-linecap:round;stroke-linejoin:round;stroke-width:2px"/><path d="M1152.5488,670.3005c9.1531,14.45,15.4113,21.8292,37.1015,19.6191,20.6818,17.5275,24.07,6.0016,32.8278,3.4965" transform="translate(0)" style="fill:none;stroke:#000;stroke-linecap:round;stroke-linejoin:round;stroke-width:2px"/><path d="M1177.0241,672.9228s3.8833-1.8462,6.216-1.7482,6.7016,3.108,6.7016,3.108-4.9142,2.1883-7.2843,2.04-5.6331-3.3994-5.6331-3.3994Z" transform="translate(0)" style="stroke:#000;stroke-linecap:round;stroke-linejoin:round;stroke-width:2px"/><path d="M1196.8375,684.4807c6.25,5.9936,12.1371,7.4489,17.871,6.9929.6686,7.0629,3.7885,10.2035,6.9929,13.2089l10.8779-5.8274c9.2563,1.4455,17.5108,4.6444,30.6912-.777l.68-1.9425,2.04-.777c-2.51-18.2891-11.4114-30.2322-32.2453-30.8855-9.8084-19.0768-27.8367-28.5372-49.339-27.1948-71.0041,5.9959-65.472,57.3246-88.1889,88.3831-5.3972,3.2256-76.1455-11.4607-92.4623-5.8275-20.1919,9.0118-31.4775,21.1618-33.0223,38.4613,1.4686,1.65,38.2528-6.047,52.4471-6.6045,6.2391-.0123,28.5318,13.1553,60.6056,18.0651-18.0377,32.383-15.2315,100.971-19.0364,109.362-3.9164,4.631-42.08,8.9767-47.0082,19.8134-5.0017,10.9974,34.3992,19.566,57.8861,6.6044,12.16-12.1605,5.1152-67.7928,13.2089-100.2323,6.99-22.5438,15.8354-38.5922,24.8638-54.001-41.4031,2.3871-100.5933-9.2431-115.7722-9.7125-4.351-.1346,6.567-8.7248,12.6262-7.9642,42.12,5.2875,107.7634,10.5251,121.7939,6.41,15.8042-3.2024,28.8555-9.6267,31.274-17.6766,3.2083-12.9963-23.038-31.2219-19.4248-40.9864s8.7181-7.4407,13.0146-13.2089c15.5738-7.9419,20.8067-9.2315,28.36-8.1585s18.8285,3.7478,24.4754,10.8779-12.5915,5.4153-13.209,13.5974Z" transform="translate(0)" style="stroke:#000;stroke-linecap:round;stroke-linejoin:round;stroke-width:2px"/></svg>