<?xml version="1.0" encoding="UTF-8"?>
<svg version="1.1" viewBox="0 0 2400 1600" xmlns="http://www.w3.org/2000/svg">
<path d="m-0 0h2400v1600h-2400v-1600z" fill="#fff"/>
<path d="m1200 1600v-1600l1200 800-1200 800zm-1200-800 1200-800v1600l-1200-800z"/>
<path d="m1846.9 596.14c-1.109 0-3.708-1.942-7.8-5.827-5.03-4.756-9.761-8.323-14.193-10.701-7.332-3.883-15.429-5.827-24.294-5.827-16.878 0-30.006 5.987-39.382 17.955-8.355 10.702-12.53 24.179-12.53 40.429 0 16.251 4.133 29.845 12.402 40.785 9.377 12.288 22.461 18.43 39.255 18.43 8.353 0 16.408-1.941 24.166-5.826 5.114-2.536 10.313-6.142 15.599-10.821 4.431-3.883 6.861-5.826 7.288-5.826 0.512 0 3.325 3.151 8.439 9.453 5.115 6.302 7.672 9.771 7.672 10.404 0 0.952-0.811 2.301-2.429 4.043-16.622 17.916-37.208 26.873-61.758 26.873-25.573 0-46.031-8.68-61.375-26.04-14.32-16.172-21.481-36.386-21.481-60.643s7.288-44.549 21.865-60.88c15.513-17.598 36.013-26.398 61.502-26.398 25.829 0 45.817 8.127 59.968 24.376 1.363 1.665 2.046 3.053 2.046 4.162 0 1.349-2.26 5.332-6.777 11.95-4.519 6.62-7.246 9.929-8.183 9.929zm-151.26 117.6c0 1.665-1.236 2.497-3.708 2.497-1.534 0-3.879-0.119-7.032-0.357-3.155-0.238-5.498-0.357-7.033-0.357-1.62 0-4.007 0.119-7.16 0.357-3.155 0.238-5.498 0.357-7.032 0.357-2.132 0-3.197-0.911-3.197-2.735 0-9.037 0.447-22.652 1.343-40.845 0.895-18.192 1.342-31.846 1.342-40.963 0-8.799-0.447-22.016-1.342-39.655-0.896-17.638-1.343-30.857-1.343-39.656 0-1.98 0.979-2.972 2.941-2.972 1.618 0 4.091 0.118 7.416 0.356 3.324 0.238 5.838 0.357 7.544 0.357 1.534 0 3.836-0.119 6.905-0.357 3.068-0.238 5.37-0.356 6.904-0.356 2.216 0 3.325 0.793 3.325 2.378 0 8.879-0.342 22.196-1.023 39.952-0.684 17.758-1.023 31.076-1.023 39.953 0 9.117 0.361 22.791 1.087 41.023 0.723 18.234 1.086 31.908 1.086 41.023zm-52.935-138.76c-2.387 0-17.475-0.475-45.264-1.426-0.767 24.179-1.15 43.56-1.15 58.145 0 9.117 0.361 22.791 1.086 41.023 0.724 18.234 1.087 31.908 1.087 41.023 0 1.665-1.236 2.497-3.708 2.497-1.534 0-3.88-0.119-7.032-0.357-3.155-0.238-5.542-0.357-7.161-0.357-1.534 0-3.88 0.119-7.032 0.357-3.155 0.238-5.498 0.357-7.033 0.357-2.131 0-3.196-0.99-3.196-2.973 0-9.037 0.403-22.611 1.214-40.725 0.81-18.113 1.215-31.728 1.215-40.845 0-14.109-0.469-33.491-1.406-58.145-21.993 1.269-38.104 1.902-48.333 1.902-1.023 0-1.534-0.396-1.534-1.189 0-1.427 0.383-3.487 1.151-6.183 0.937-3.487 1.49-5.548 1.662-6.183 0.17-2.774 0.767-6.618 1.79-11.534 0.425-1.029 1.151-1.546 2.174-1.546l1.534 0.119c30.176 1.665 50.078 2.497 59.712 2.497 8.523 0 22.46-0.595 41.812-1.784 11.515-0.69 17.165-1.08 16.961-1.169 1.864 0.096 2.937 0.767 3.212 2.019-0.152-0.31-0.227 3.567-0.227 11.636 0 1.031 0.128 2.636 0.384 4.815 0.256 2.182 0.383 3.826 0.383 4.935 0 2.062-0.767 3.091-2.301 3.091zm-1.451-26.496c-0.154-8e-3 -0.302-0.02-0.467-0.02 0.285 0 0.437 7e-3 0.467 0.02zm3.212 2.019c0.01 0.019 0.019 0.051 0.029 0.102-6e-3 -0.037-0.021-0.067-0.029-0.102zm-195.73 140.89c8.353 0 16.408-1.941 24.166-5.826 5.115-2.536 10.313-6.142 15.6-10.821 4.431-3.883 6.86-5.826 7.288-5.826 0.511 0 3.324 3.151 8.439 9.453 5.114 6.302 7.672 9.771 7.672 10.404 0 0.952-0.812 2.301-2.43 4.043-16.622 17.916-37.208 26.873-61.758 26.873-25.573 0-46.031-8.68-61.374-26.04-14.321-16.172-21.481-36.386-21.481-60.643s7.288-44.549 21.864-60.88c15.514-17.598 36.014-26.398 61.503-26.398 25.828 0 45.817 8.127 59.968 24.376 1.362 1.665 2.045 3.053 2.045 4.162 0 1.349-2.259 5.332-6.776 11.95-4.52 6.62-7.247 9.929-8.184 9.929-1.109 0-3.708-1.942-7.799-5.827-5.031-4.756-9.762-8.323-14.193-10.701-7.332-3.883-15.43-5.827-24.294-5.827-16.878 0-30.006 5.987-39.382 17.955-8.355 10.702-12.531 24.179-12.531 40.429 0 16.251 4.134 29.845 12.403 40.785 9.376 12.288 22.46 18.43 39.254 18.43zm-95.258 23.901c0 0.635-0.684 0.951-2.046 0.951-1.62 0-4.092-0.119-7.416-0.357-3.325-0.238-5.798-0.357-7.416-0.357-1.79 0-4.456 0.119-7.992 0.357-3.538 0.238-6.201 0.357-7.991 0.357-1.962 0-3.453-0.99-4.476-2.973-2.729-5.39-10.484-22.076-23.271-50.06-1.278-2.853-4.391-4.596-9.334-5.231-1.109-0.078-4.986-0.119-11.635-0.119-11.764 0-18.754 0.159-20.97 0.475-1.79 0.238-2.685 2.259-2.685 6.065 0 5.549 0.276 13.852 0.831 24.91 0.554 11.059 0.831 19.323 0.831 24.793 0 1.664-0.853 2.497-2.557 2.497-1.706 0-4.283-0.179-7.736-0.535-3.452-0.357-6.073-0.536-7.863-0.536-1.451 0-3.667 0.119-6.649 0.357-2.985 0.238-5.201 0.357-6.649 0.357-2.132 0-3.197-0.911-3.197-2.735 0-8.799 0.448-22.016 1.343-39.655 0.895-17.638 1.342-30.857 1.342-39.656 0-25.048-0.981-51.763-2.941-80.143l-0.127-1.903c-0.086-1.584 1.704-2.378 5.37-2.378 7.33 0 18.304-0.178 32.925-0.535 14.618-0.357 25.55-0.535 32.797-0.535 18.923 0 34.095 4.203 45.519 12.604 12.615 9.275 18.924 22.435 18.924 39.477 0 11.733-1.706 20.969-5.115 27.706-3.58 7.134-10.229 13.912-19.946 20.333-1.621 1.031-2.43 2.021-2.43 2.972 0 1.111 5.093 11.653 15.28 31.63 10.185 19.976 15.28 30.6 15.28 31.867zm-48.333-136.62c-6.565-3.568-18.37-5.351-35.418-5.351-13.809 0-20.842 1.031-21.097 3.091-0.598 4.281-0.895 15.737-0.895 34.365v22.711c0.255 0.16 0.809 0.317 1.662 0.475 1.534 0.16 4.047 0.357 7.544 0.595 8.097 0.397 16.834 0.594 26.212 0.594 23.527 0 35.29-9.233 35.29-27.705 0-14.347-4.433-23.939-13.298-28.775zm-107.4 137.58c-1.62 0-3.986-0.119-7.097-0.357-3.112-0.238-5.478-0.357-7.096-0.357-1.62 0-4.05 0.119-7.288 0.357-3.241 0.238-5.67 0.357-7.288 0.357-2.388 0-5.435-6.005-9.143-18.014-3.708-12.01-7.48-18.093-11.316-18.253-3.154-0.158-11.379-0.237-24.677-0.237h-20.203c-14.065 0-22.078 0.079-24.038 0.237-3.069 0.238-6.329 6.343-9.782 18.312-3.452 11.971-6.117 17.955-7.991 17.955h-28.769c-1.706 0-2.558-0.554-2.558-1.665 0-0.791 0.596-2.575 1.791-5.351 0 0 31.326-79.667 31.326-79.667 2.641-6.421 10.655-24.93 24.038-55.53 2.386-5.072 5.626-12.723 9.718-22.949 1.023-3.011 2.13-4.518 3.324-4.518 1.619 0 4.006 0.199 7.161 0.594 3.152 0.398 5.54 0.595 7.16 0.595 1.534 0 3.856-0.218 6.969-0.654 3.11-0.435 5.39-0.654 6.84-0.654 0.768 0 1.832 1.468 3.197 4.399 2.046 4.441 12.147 28.341 30.304 71.701 25.656 60.96 38.487 91.718 38.487 92.272 0 0.951-1.023 1.427-3.069 1.427zm-68.024-97.979c-7.416-17.757-12.658-29.409-15.727-34.959-17.645 41.855-26.467 63.775-26.467 65.756 0 2.695 3.238 4.28 9.717 4.756 0.34 0.08 4.517 0.119 12.531 0.119h13.17c12.189 0 18.284-1.585 18.284-4.757 0-2.298-3.836-12.604-11.508-30.915zm-104.85-43.283c-2.387 0-17.475-0.475-45.263-1.426-0.767 24.179-1.151 43.56-1.151 58.145 0 9.117 0.362 22.791 1.087 41.023 0.723 18.234 1.087 31.908 1.087 41.023 0 1.665-1.237 2.497-3.708 2.497-1.535 0-3.88-0.119-7.033-0.357-3.155-0.238-5.542-0.357-7.16-0.357-1.535 0-3.88 0.119-7.033 0.357-3.154 0.238-5.498 0.357-7.032 0.357-2.132 0-3.197-0.99-3.197-2.973 0-9.037 0.404-22.611 1.215-40.725 0.809-18.113 1.215-31.728 1.215-40.845 0-14.109-0.47-33.491-1.407-58.145-21.992 1.269-38.103 1.902-48.332 1.902-1.023 0-1.535-0.396-1.535-1.189 0-1.427 0.384-3.487 1.151-6.183 0.937-3.487 1.491-5.548 1.662-6.183 0.17-2.774 0.768-6.618 1.79-11.534 0.426-1.029 1.151-1.546 2.174-1.546l1.534 0.119c30.176 1.665 50.079 2.497 59.713 2.497 8.523 0 22.46-0.595 41.811-1.784 11.515-0.69 17.166-1.08 16.962-1.169 1.863 0.096 2.937 0.767 3.212 2.019-0.153-0.309-0.227 3.568-0.227 11.636 0 1.031 0.128 2.636 0.383 4.815 0.256 2.182 0.384 3.826 0.384 4.935 0 2.062-0.767 3.091-2.302 3.091zm-1.45-26.496c-0.154-8e-3 -0.303-0.02-0.468-0.02 0.285 0 0.438 7e-3 0.468 0.02zm3.212 2.019c9e-3 0.019 0.019 0.051 0.028 0.102-6e-3 -0.037-0.021-0.067-0.028-0.102zm-147.53 84.169c0 8.641 0.084 21.581 0.256 38.823 0.169 17.241 0.255 30.184 0.255 38.823 0 2.616-1.066 3.924-3.196 3.924-1.279 0-3.197-0.119-5.754-0.357s-4.475-0.357-5.754-0.357c-1.364 0-3.452 0.119-6.265 0.357s-4.903 0.357-6.265 0.357c-1.535 0-3.369-1.308-5.499-3.924-18.412-23.068-46.33-57.471-83.75-103.21-5.798-6.975-9.164-10.86-10.101-11.653-0.854 0-1.279 1.626-1.279 4.875 0 12.208 0.212 30.541 0.639 54.994 0.426 24.456 0.64 42.788 0.64 54.995 0 2.616-0.854 3.924-2.558 3.924-1.45 0-3.666-0.119-6.649-0.357-2.984-0.238-5.2-0.357-6.648-0.357-1.535 0-3.816 0.119-6.841 0.357-3.027 0.238-5.306 0.357-6.841 0.357-2.132 0-3.196-0.792-3.196-2.378 0-8.719 0.447-21.859 1.342-39.418 0.895-17.557 1.343-30.737 1.343-39.536 0-9.591-0.384-26.873-1.151-51.844-0.172-6.499-0.597-16.249-1.279-29.251l-0.128-1.546c-0.086-1.189 0.937-1.822 3.069-1.902 5.54-0.078 9.888-0.238 13.042-0.476 1.193-0.078 3.453-0.396 6.777-0.951 2.813-0.476 5.029-0.714 6.649-0.714 0.767 0 2.088 1.151 3.964 3.449 19.605 25.05 49.611 62.307 90.016 111.77 1.79 2.063 3.452 3.846 4.986 5.351 0.596-3.329 0.895-10.939 0.895-22.83 0-10.304-0.405-25.762-1.214-46.374-0.812-20.61-1.215-36.029-1.215-46.255 0-2.616 0.851-3.923 2.557-3.923 1.534 0 3.856 0.118 6.969 0.356 3.11 0.238 5.434 0.357 6.968 0.357 1.618 0 4.048-0.119 7.288-0.357 3.239-0.238 5.668-0.356 7.289-0.356 1.79 0 2.685 0.873 2.685 2.615 0 9.117-0.342 22.871-1.023 41.261-0.683 18.392-1.023 32.185-1.023 41.38zm-176.32 81.57c-1.62 0-3.985-0.119-7.096-0.357-3.113-0.238-5.478-0.357-7.097-0.357-1.62 0-4.049 0.119-7.288 0.357-3.24 0.238-5.67 0.357-7.288 0.357-2.387 0-5.434-6.005-9.142-18.014-3.708-12.01-7.48-18.093-11.316-18.253-3.155-0.158-11.38-0.237-24.678-0.237h-20.202c-14.065 0-22.079 0.079-24.039 0.237-3.068 0.238-6.329 6.343-9.781 18.312-3.453 11.971-6.118 17.955-7.992 17.955h-28.769c-1.706 0-2.557-0.554-2.557-1.665 0-0.791 0.595-2.575 1.79-5.351 0 0 31.326-79.667 31.326-79.667 2.642-6.421 10.655-24.93 24.039-55.53 2.385-5.072 5.626-12.723 9.717-22.949 1.023-3.011 2.13-4.518 3.325-4.518 1.618 0 4.005 0.199 7.16 0.594 3.153 0.398 5.54 0.595 7.16 0.595 1.535 0 3.856-0.218 6.969-0.654 3.111-0.435 5.39-0.654 6.841-0.654 0.767 0 1.832 1.468 3.196 4.399 2.046 4.441 12.147 28.341 30.304 71.701 25.657 60.96 38.487 91.718 38.487 92.272 0 0.951-1.023 1.427-3.069 1.427zm-68.023-97.979c-7.416-17.757-12.659-29.409-15.727-34.959-17.646 41.855-26.468 63.775-26.468 65.756 0 2.695 3.238 4.28 9.717 4.756 0.34 0.08 4.518 0.119 12.531 0.119h13.17c12.189 0 18.285-1.585 18.285-4.757 0-2.298-3.836-12.604-11.508-30.915z" fill="#EF3A49"/>
<path d="m1846.9 596.14c-1.109 0-3.708-1.942-7.8-5.827-5.03-4.756-9.761-8.323-14.193-10.701-7.332-3.883-15.429-5.827-24.294-5.827-16.878 0-30.006 5.987-39.382 17.955-8.355 10.702-12.53 24.179-12.53 40.429 0 16.251 4.133 29.845 12.402 40.785 9.377 12.288 22.461 18.43 39.255 18.43 8.353 0 16.408-1.941 24.166-5.826 5.114-2.536 10.313-6.142 15.599-10.821 4.431-3.883 6.861-5.826 7.288-5.826 0.512 0 3.325 3.151 8.439 9.453 5.115 6.302 7.672 9.771 7.672 10.404 0 0.952-0.811 2.301-2.429 4.043-16.622 17.916-37.208 26.873-61.758 26.873-25.573 0-46.031-8.68-61.375-26.04-14.32-16.172-21.481-36.386-21.481-60.643s7.288-44.549 21.865-60.88c15.513-17.598 36.013-26.398 61.502-26.398 25.829 0 45.817 8.127 59.968 24.376 1.363 1.665 2.046 3.053 2.046 4.162 0 1.349-2.26 5.332-6.777 11.95-4.519 6.62-7.246 9.929-8.183 9.929zm-151.26 117.6c0 1.665-1.236 2.497-3.708 2.497-1.534 0-3.879-0.119-7.032-0.357-3.155-0.238-5.498-0.357-7.033-0.357-1.62 0-4.007 0.119-7.16 0.357-3.155 0.238-5.498 0.357-7.032 0.357-2.132 0-3.197-0.911-3.197-2.735 0-9.037 0.447-22.652 1.343-40.845 0.895-18.192 1.342-31.846 1.342-40.963 0-8.799-0.447-22.016-1.342-39.655-0.896-17.638-1.343-30.857-1.343-39.656 0-1.98 0.979-2.972 2.941-2.972 1.618 0 4.091 0.118 7.416 0.356 3.324 0.238 5.838 0.357 7.544 0.357 1.534 0 3.836-0.119 6.905-0.357 3.068-0.238 5.37-0.356 6.904-0.356 2.216 0 3.325 0.793 3.325 2.378 0 8.879-0.342 22.196-1.023 39.952-0.684 17.758-1.023 31.076-1.023 39.953 0 9.117 0.361 22.791 1.087 41.023 0.723 18.234 1.086 31.908 1.086 41.023zm-52.935-138.76c-2.387 0-17.475-0.475-45.264-1.426-0.767 24.179-1.15 43.56-1.15 58.145 0 9.117 0.361 22.791 1.086 41.023 0.724 18.234 1.087 31.908 1.087 41.023 0 1.665-1.236 2.497-3.708 2.497-1.534 0-3.88-0.119-7.032-0.357-3.155-0.238-5.542-0.357-7.161-0.357-1.534 0-3.88 0.119-7.032 0.357-3.155 0.238-5.498 0.357-7.033 0.357-2.131 0-3.196-0.99-3.196-2.973 0-9.037 0.403-22.611 1.214-40.725 0.81-18.113 1.215-31.728 1.215-40.845 0-14.109-0.469-33.491-1.406-58.145-21.993 1.269-38.104 1.902-48.333 1.902-1.023 0-1.534-0.396-1.534-1.189 0-1.427 0.383-3.487 1.151-6.183 0.937-3.487 1.49-5.548 1.662-6.183 0.17-2.774 0.767-6.618 1.79-11.534 0.425-1.029 1.151-1.546 2.174-1.546l1.534 0.119c30.176 1.665 50.078 2.497 59.712 2.497 8.523 0 22.46-0.595 41.812-1.784 11.515-0.69 17.165-1.08 16.961-1.169 1.864 0.096 2.937 0.767 3.212 2.019-0.152-0.31-0.227 3.567-0.227 11.636 0 1.031 0.128 2.636 0.384 4.815 0.256 2.182 0.383 3.826 0.383 4.935 0 2.062-0.767 3.091-2.301 3.091zm-1.451-26.496c-0.154-8e-3 -0.302-0.02-0.467-0.02 0.285 0 0.437 7e-3 0.467 0.02zm3.212 2.019c0.01 0.019 0.019 0.051 0.029 0.102-6e-3 -0.037-0.021-0.067-0.029-0.102zm-195.73 140.89c8.353 0 16.408-1.941 24.166-5.826 5.115-2.536 10.313-6.142 15.6-10.821 4.431-3.883 6.86-5.826 7.288-5.826 0.511 0 3.324 3.151 8.439 9.453 5.114 6.302 7.672 9.771 7.672 10.404 0 0.952-0.812 2.301-2.43 4.043-16.622 17.916-37.208 26.873-61.758 26.873-25.573 0-46.031-8.68-61.374-26.04-14.321-16.172-21.481-36.386-21.481-60.643s7.288-44.549 21.864-60.88c15.514-17.598 36.014-26.398 61.503-26.398 25.828 0 45.817 8.127 59.968 24.376 1.362 1.665 2.045 3.053 2.045 4.162 0 1.349-2.259 5.332-6.776 11.95-4.52 6.62-7.247 9.929-8.184 9.929-1.109 0-3.708-1.942-7.799-5.827-5.031-4.756-9.762-8.323-14.193-10.701-7.332-3.883-15.43-5.827-24.294-5.827-16.878 0-30.006 5.987-39.382 17.955-8.355 10.702-12.531 24.179-12.531 40.429 0 16.251 4.134 29.845 12.403 40.785 9.376 12.288 22.46 18.43 39.254 18.43zm-95.258 23.901c0 0.635-0.684 0.951-2.046 0.951-1.62 0-4.092-0.119-7.416-0.357-3.325-0.238-5.798-0.357-7.416-0.357-1.79 0-4.456 0.119-7.992 0.357-3.538 0.238-6.201 0.357-7.991 0.357-1.962 0-3.453-0.99-4.476-2.973-2.729-5.39-10.484-22.076-23.271-50.06-1.278-2.853-4.391-4.596-9.334-5.231-1.109-0.078-4.986-0.119-11.635-0.119-11.764 0-18.754 0.159-20.97 0.475-1.79 0.238-2.685 2.259-2.685 6.065 0 5.549 0.276 13.852 0.831 24.91 0.554 11.059 0.831 19.323 0.831 24.793 0 1.664-0.853 2.497-2.557 2.497-1.706 0-4.283-0.179-7.736-0.535-3.452-0.357-6.073-0.536-7.863-0.536-1.451 0-3.667 0.119-6.649 0.357-2.985 0.238-5.201 0.357-6.649 0.357-2.132 0-3.197-0.911-3.197-2.735 0-8.799 0.448-22.016 1.343-39.655 0.895-17.638 1.342-30.857 1.342-39.656 0-25.048-0.981-51.763-2.941-80.143l-0.127-1.903c-0.086-1.584 1.704-2.378 5.37-2.378 7.33 0 18.304-0.178 32.925-0.535 14.618-0.357 25.55-0.535 32.797-0.535 18.923 0 34.095 4.203 45.519 12.604 12.615 9.275 18.924 22.435 18.924 39.477 0 11.733-1.706 20.969-5.115 27.706-3.58 7.134-10.229 13.912-19.946 20.333-1.621 1.031-2.43 2.021-2.43 2.972 0 1.111 5.093 11.653 15.28 31.63 10.185 19.976 15.28 30.6 15.28 31.867zm-48.333-136.62c-6.565-3.568-18.37-5.351-35.418-5.351-13.809 0-20.842 1.031-21.097 3.091-0.598 4.281-0.895 15.737-0.895 34.365v22.711c0.255 0.16 0.809 0.317 1.662 0.475 1.534 0.16 4.047 0.357 7.544 0.595 8.097 0.397 16.834 0.594 26.212 0.594 23.527 0 35.29-9.233 35.29-27.705 0-14.347-4.433-23.939-13.298-28.775zm-107.4 137.58c-1.62 0-3.986-0.119-7.097-0.357-3.112-0.238-5.478-0.357-7.096-0.357-1.62 0-4.05 0.119-7.288 0.357-3.241 0.238-5.67 0.357-7.288 0.357-2.388 0-5.435-6.005-9.143-18.014-3.708-12.01-7.48-18.093-11.316-18.253-3.154-0.158-11.379-0.237-24.677-0.237h-20.203c-14.065 0-22.078 0.079-24.038 0.237-3.069 0.238-6.329 6.343-9.782 18.312-3.452 11.971-6.117 17.955-7.991 17.955h-28.769c-1.706 0-2.558-0.554-2.558-1.665 0-0.791 0.596-2.575 1.791-5.351 0 0 31.326-79.667 31.326-79.667 2.641-6.421 10.655-24.93 24.038-55.53 2.386-5.072 5.626-12.723 9.718-22.949 1.023-3.011 2.13-4.518 3.324-4.518 1.619 0 4.006 0.199 7.161 0.594 3.152 0.398 5.54 0.595 7.16 0.595 1.534 0 3.856-0.218 6.969-0.654 3.11-0.435 5.39-0.654 6.84-0.654 0.768 0 1.832 1.468 3.197 4.399 2.046 4.441 12.147 28.341 30.304 71.701 25.656 60.96 38.487 91.718 38.487 92.272 0 0.951-1.023 1.427-3.069 1.427zm-68.024-97.979c-7.416-17.757-12.658-29.409-15.727-34.959-17.645 41.855-26.467 63.775-26.467 65.756 0 2.695 3.238 4.28 9.717 4.756 0.34 0.08 4.517 0.119 12.531 0.119h13.17c12.189 0 18.284-1.585 18.284-4.757 0-2.298-3.836-12.604-11.508-30.915zm-104.85-43.283c-2.387 0-17.475-0.475-45.263-1.426-0.767 24.179-1.151 43.56-1.151 58.145 0 9.117 0.362 22.791 1.087 41.023 0.723 18.234 1.087 31.908 1.087 41.023 0 1.665-1.237 2.497-3.708 2.497-1.535 0-3.88-0.119-7.033-0.357-3.155-0.238-5.542-0.357-7.16-0.357-1.535 0-3.88 0.119-7.033 0.357-3.154 0.238-5.498 0.357-7.032 0.357-2.132 0-3.197-0.99-3.197-2.973 0-9.037 0.404-22.611 1.215-40.725 0.809-18.113 1.215-31.728 1.215-40.845 0-14.109-0.47-33.491-1.407-58.145-21.992 1.269-38.103 1.902-48.332 1.902-1.023 0-1.535-0.396-1.535-1.189 0-1.427 0.384-3.487 1.151-6.183 0.937-3.487 1.491-5.548 1.662-6.183 0.17-2.774 0.768-6.618 1.79-11.534 0.426-1.029 1.151-1.546 2.174-1.546l1.534 0.119c30.176 1.665 50.079 2.497 59.713 2.497 8.523 0 22.46-0.595 41.811-1.784 11.515-0.69 17.166-1.08 16.962-1.169 1.863 0.096 2.937 0.767 3.212 2.019-0.153-0.309-0.227 3.568-0.227 11.636 0 1.031 0.128 2.636 0.383 4.815 0.256 2.182 0.384 3.826 0.384 4.935 0 2.062-0.767 3.091-2.302 3.091zm-1.45-26.496c-0.154-8e-3 -0.303-0.02-0.468-0.02 0.285 0 0.438 7e-3 0.468 0.02zm3.212 2.019c9e-3 0.019 0.019 0.051 0.028 0.102-6e-3 -0.037-0.021-0.067-0.028-0.102zm-147.53 84.169c0 8.641 0.084 21.581 0.256 38.823 0.169 17.241 0.255 30.184 0.255 38.823 0 2.616-1.066 3.924-3.196 3.924-1.279 0-3.197-0.119-5.754-0.357s-4.475-0.357-5.754-0.357c-1.364 0-3.452 0.119-6.265 0.357s-4.903 0.357-6.265 0.357c-1.535 0-3.369-1.308-5.499-3.924-18.412-23.068-46.33-57.471-83.75-103.21-5.798-6.975-9.164-10.86-10.101-11.653-0.854 0-1.279 1.626-1.279 4.875 0 12.208 0.212 30.541 0.639 54.994 0.426 24.456 0.64 42.788 0.64 54.995 0 2.616-0.854 3.924-2.558 3.924-1.45 0-3.666-0.119-6.649-0.357-2.984-0.238-5.2-0.357-6.648-0.357-1.535 0-3.816 0.119-6.841 0.357-3.027 0.238-5.306 0.357-6.841 0.357-2.132 0-3.196-0.792-3.196-2.378 0-8.719 0.447-21.859 1.342-39.418 0.895-17.557 1.343-30.737 1.343-39.536 0-9.591-0.384-26.873-1.151-51.844-0.172-6.499-0.597-16.249-1.279-29.251l-0.128-1.546c-0.086-1.189 0.937-1.822 3.069-1.902 5.54-0.078 9.888-0.238 13.042-0.476 1.193-0.078 3.453-0.396 6.777-0.951 2.813-0.476 5.029-0.714 6.649-0.714 0.767 0 2.088 1.151 3.964 3.449 19.605 25.05 49.611 62.307 90.016 111.77 1.79 2.063 3.452 3.846 4.986 5.351 0.596-3.329 0.895-10.939 0.895-22.83 0-10.304-0.405-25.762-1.214-46.374-0.812-20.61-1.215-36.029-1.215-46.255 0-2.616 0.851-3.923 2.557-3.923 1.534 0 3.856 0.118 6.969 0.356 3.11 0.238 5.434 0.357 6.968 0.357 1.618 0 4.048-0.119 7.288-0.357 3.239-0.238 5.668-0.356 7.289-0.356 1.79 0 2.685 0.873 2.685 2.615 0 9.117-0.342 22.871-1.023 41.261-0.683 18.392-1.023 32.185-1.023 41.38zm-176.32 81.57c-1.62 0-3.985-0.119-7.096-0.357-3.113-0.238-5.478-0.357-7.097-0.357-1.62 0-4.049 0.119-7.288 0.357-3.24 0.238-5.67 0.357-7.288 0.357-2.387 0-5.434-6.005-9.142-18.014-3.708-12.01-7.48-18.093-11.316-18.253-3.155-0.158-11.38-0.237-24.678-0.237h-20.202c-14.065 0-22.079 0.079-24.039 0.237-3.068 0.238-6.329 6.343-9.781 18.312-3.453 11.971-6.118 17.955-7.992 17.955h-28.769c-1.706 0-2.557-0.554-2.557-1.665 0-0.791 0.595-2.575 1.79-5.351 0 0 31.326-79.667 31.326-79.667 2.642-6.421 10.655-24.93 24.039-55.53 2.385-5.072 5.626-12.723 9.717-22.949 1.023-3.011 2.13-4.518 3.325-4.518 1.618 0 4.005 0.199 7.16 0.594 3.153 0.398 5.54 0.595 7.16 0.595 1.535 0 3.856-0.218 6.969-0.654 3.111-0.435 5.39-0.654 6.841-0.654 0.767 0 1.832 1.468 3.196 4.399 2.046 4.441 12.147 28.341 30.304 71.701 25.657 60.96 38.487 91.718 38.487 92.272 0 0.951-1.023 1.427-3.069 1.427zm-68.023-97.979c-7.416-17.757-12.659-29.409-15.727-34.959-17.646 41.855-26.468 63.775-26.468 65.756 0 2.695 3.238 4.28 9.717 4.756 0.34 0.08 4.518 0.119 12.531 0.119h13.17c12.189 0 18.285-1.585 18.285-4.757 0-2.298-3.836-12.604-11.508-30.915z" fill="none" stroke="#000"/>
<path d="m1535.8 346.22c-0.884 9.012-1.626 14.539-2.183 16.593-0.401 1.477-1.326 1.934-2.773 1.382-5.597-2.132-13.997-5.629-25.274-10.24-11.28-4.603-19.855-7.702-25.653-9.545-5.468-1.733-9.082-2.063-10.823-1.065-1.745 1.001-3.218 4.348-4.43 10.035-1.039 4.87-2.078 9.739-3.117 14.609-0.85 3.988-1.248 6.338-1.192 7.05 0.152 2.204 1.619 3.724 4.403 4.583 0.776 0.239 1.883 0.548 3.322 0.927 1.487 0.466 2.586 0.813 3.298 1.039 12.672 4.018 24.056 7.684 34.191 10.844 3.949 1.284 8.652 2.656 14.108 4.155 1.38 0.382 1.897 1.217 1.551 2.5-0.554 2.057-1.642 5.111-3.257 9.169-1.614 4.059-2.702 7.15-3.271 9.27-0.31 1.157-1.408 1.376-3.294 0.667-0.755-0.282-3.492-1.565-8.23-3.787-3.433-1.666-11.332-4.77-23.762-8.919-10.466-3.48-17.154-5.382-20.009-5.989-2.591-0.587-4.349 0.345-5.273 2.779 0.16-0.437-0.344 2.088-1.515 7.579-1.032 4.837-2.064 9.674-3.095 14.511-1.449 6.8-1.366 11.345 0.238 13.645 1.242 1.845 4.935 3.699 11.067 5.667 3.381 1.05 6.758 2.123 10.131 3.217 4.281 1.461 16.492 4.621 36.552 10.591 0.464 0.143 0.929 0.287 1.394 0.43 1.25 0.342 1.638 1.379 1.163 3.11-0.281 1.026-0.929 2.406-1.938 4.143-1.21 2.227-1.943 3.574-2.203 4.041-0.81 2.239-2.149 5.445-4.006 9.621-0.613 1.04-1.543 1.321-2.794 0.844-0.596-0.227-1.694-0.787-3.295-1.672-7.031-3.909-18.288-8.698-33.832-13.812-4.398-1.443-11.061-3.461-20.007-5.884-8.946-2.418-15.644-4.151-20.073-5.371-2.003-0.55-2.823-1.772-2.458-3.681 1.411-7.363 3.905-18.325 7.529-32.869 3.625-14.543 6.172-25.489 7.596-32.85 1.449-7.492 3.772-21.561 6.91-42.223 0.878-5.295 2.025-13.251 3.417-23.871 0.054-0.469 0.108-0.939 0.162-1.408 0.221-1.53 1.252-2.048 3.092-1.544 4.768 1.31 11.893 3.434 21.339 6.54 9.444 3.111 16.514 5.519 21.244 7.056 4.526 1.475 11.326 3.576 20.376 6.461 9.05 2.89 15.81 5.256 20.302 6.939 3.151 1.184 4.607 2.771 4.372 4.733zm-118.85-1.633c-3.186 15.193-5.425 26.626-6.748 34.288-1.243 7.201-3.039 18-5.394 32.399-2.357 14.398-4.161 25.197-5.405 32.396-0.378 2.18-1.329 3.082-2.851 2.714-0.914-0.221-2.269-0.651-4.066-1.282s-3.155-1.049-4.071-1.261c-0.978-0.226-2.49-0.471-4.538-0.727-2.047-0.255-3.561-0.486-4.538-0.701-1.1-0.241-2.245-1.622-3.445-4.141-10.36-22.13-26.615-55.162-51.957-97.877-3.945-6.518-6.302-10.142-6.974-10.909-0.671-0.087-1.13 1.246-1.379 3.994-0.935 10.327-2.171 25.854-3.728 46.578-1.56 20.726-2.824 36.25-3.766 46.574-0.202 2.212-0.92 3.238-2.152 3.081-1.049-0.133-2.641-0.435-4.782-0.898-2.143-0.462-3.739-0.749-4.787-0.87-1.111-0.127-2.771-0.215-4.977-0.252-2.207-0.037-3.864-0.108-4.975-0.222-1.544-0.159-2.268-0.906-2.173-2.251 0.523-7.391 1.631-18.498 3.362-33.315 1.732-14.815 2.886-25.951 3.425-33.409 0.586-8.129 1.356-22.807 2.262-44.035 0.257-5.523 0.51-13.822 0.738-24.899-3e-3 -0.441-7e-3 -0.881-0.011-1.321 2e-3 -1.015 0.87-1.47 2.607-1.36 4.505 0.397 8.045 0.656 10.623 0.748 0.974 0.045 2.83-0.014 5.57-0.159 2.319-0.127 4.137-0.103 5.453 0.063 0.623 0.079 1.609 1.188 2.951 3.33 13.888 23.254 34.709 58.216 58.678 106.03 1.076 2.01 2.085 3.768 3.032 5.274 0.867-2.691 2.068-9.011 3.596-18.962 1.322-8.623 3.005-21.626 5.009-39.014 2.001-17.388 3.634-30.366 4.935-38.927 0.332-2.19 1.184-3.139 2.558-2.84 1.235 0.268 3.088 0.776 5.56 1.535 2.47 0.759 4.321 1.286 5.554 1.569 1.3 0.3 3.268 0.652 5.903 1.07 2.633 0.418 4.601 0.792 5.901 1.108 1.437 0.351 2.028 1.256 1.775 2.707-1.32 7.596-3.589 18.986-6.775 34.178zm-150.36 11.553c-0.383 7.337-0.892 18.329-1.53 32.978-0.64 14.649-1.156 25.642-1.541 32.978-0.118 2.221-0.95 3.273-2.493 3.162-0.928-0.066-2.313-0.265-4.159-0.591-1.846-0.325-3.233-0.512-4.161-0.569-0.991-0.061-2.511-0.052-4.56 0.037-2.049 0.088-3.569 0.112-4.558 0.062-1.114-0.056-2.405-1.232-3.883-3.526-12.811-20.186-32.718-50.188-62.782-88.273-4.665-5.798-7.421-8.995-8.175-9.643-0.674 0.026-0.972 1.421-0.895 4.184 0.287 10.381 0.886 25.961 1.777 46.741 0.888 20.782 1.46 36.364 1.739 46.743 0.06 2.224-0.53 3.359-1.766 3.409-1.053 0.042-2.664 7e-3 -4.836-0.095-2.173-0.102-3.786-0.121-4.837-0.066-1.114 0.058-2.767 0.247-4.954 0.577-2.188 0.33-3.836 0.535-4.949 0.607-1.546 0.099-2.35-0.52-2.415-1.868-0.35-7.406-0.557-18.588-0.583-33.547-0.025-14.958-0.189-26.176-0.532-33.651-0.373-8.146-1.334-22.809-2.929-43.979-0.393-5.511-1.117-13.771-2.192-24.778-0.055-0.435-0.11-0.871-0.166-1.306-0.117-1.005 0.689-1.6 2.421-1.78 4.504-0.355 8.038-0.687 10.599-1.024 0.968-0.117 2.798-0.484 5.491-1.083 2.279-0.511 4.08-0.789 5.401-0.843 0.625-0.025 1.731 0.909 3.309 2.806 16.461 20.719 41.142 51.879 70.385 95.226 1.297 1.811 2.499 3.384 3.608 4.717 0.541-2.809 0.987-9.267 1.329-19.374 0.296-8.759 0.434-21.913 0.377-39.465-0.061-17.549 0.031-30.672 0.313-39.365 0.071-2.223 0.801-3.304 2.191-3.238 1.25 0.06 3.137 0.254 5.664 0.593 2.525 0.34 4.412 0.553 5.661 0.628 1.317 0.08 3.298 0.101 5.945 0.075 2.645-0.026 4.628 0.016 5.947 0.113 1.457 0.107 2.146 0.904 2.066 2.384-0.413 7.74-1.318 19.396-2.683 34.969-1.365 15.575-2.235 27.268-2.644 35.075zm-196.78 81.004c-18.068 2.97-34.005-1.34-48.549-13.284-14.001-11.495-23.009-26.854-26.426-46.62-3.378-19.535-0.047-38.012 10.706-55.159 11.055-17.74 27.018-28.622 47.227-31.942 20.277-3.324 38.118 2.014 52.754 15.536 14.137 12.987 21.487 29.704 22.687 49.666 1.202 19.992-3.947 37.647-14.766 53.286-11.302 16.251-25.625 25.567-43.633 28.517zm34.691-79.748c-1.049-13.151-5.979-24.172-15.063-32.858-9.533-9.228-21.024-12.869-34.132-10.716-12.975 2.134-23.113 9.39-30.117 21.469-6.64 11.331-8.819 23.549-6.837 36.547 1.973 12.945 7.571 23.399 16.528 31.575 9.503 8.758 20.058 12.078 32.001 10.113 12.129-1.991 21.645-8.602 28.849-20.101 6.808-10.762 9.831-22.73 8.771-36.029zm-122.25 67.156c10.571 14.583 15.732 22.537 15.938 23.581 0.095 0.529-0.346 0.915-1.318 1.165-1.157 0.298-2.938 0.654-5.346 1.082-2.408 0.429-4.19 0.806-5.343 1.118-1.276 0.346-3.157 0.962-5.635 1.859-2.48 0.899-4.354 1.536-5.626 1.9-1.395 0.399-2.62-0.114-3.684-1.541-2.876-3.878-11.162-16.107-25.63-36.208-1.457-2.054-4.073-2.772-7.836-2.123-0.832 0.2-3.7 1.079-8.595 2.704-8.658 2.884-13.75 4.842-15.312 5.667-1.264 0.658-1.506 2.539-0.727 5.64 1.135 4.524 3.037 11.22 5.694 20.094 2.655 8.875 4.533 15.546 5.649 20.006 0.339 1.357-0.092 2.248-1.289 2.674-1.199 0.428-3.046 0.929-5.545 1.521s-4.376 1.128-5.632 1.595c-1.017 0.378-2.546 1.053-4.583 2.036-2.039 0.984-3.563 1.675-4.576 2.064-1.491 0.574-2.437 0.127-2.841-1.349-1.95-7.117-4.569-17.928-7.821-32.448-3.251-14.52-5.828-25.348-7.766-32.469-5.518-20.273-12.127-41.617-19.953-63.975-0.174-0.5-0.348-1-0.522-1.5-0.419-1.254 0.808-2.445 3.687-3.548 5.756-2.201 14.341-5.601 25.817-9.944 11.476-4.337 20.122-7.296 25.877-9.135 15.038-4.793 27.903-4.801 38.311-0.337 11.509 4.936 18.432 14.651 21.003 28.812 1.777 9.756 1.862 17.771 0.314 24.046-1.617 6.643-5.577 13.592-11.775 20.948-1.04 1.195-1.478 2.186-1.32 2.973 0.168 0.929 5.781 8.53 16.385 23.092zm-27.178-58.812c-2.405-11.86-7.457-18.823-15.235-20.733-5.748-1.396-15.329-0.063-28.624 4.378-10.766 3.614-16.011 6.443-15.787 8.181 0.411 3.655 2.53 13.073 6.348 28.255 1.551 6.17 3.102 12.34 4.654 18.511 0.223 0.062 0.668 0.044 1.336-0.053 1.177-0.275 3.091-0.777 5.748-1.488 6.123-1.772 12.69-3.805 19.715-6.065 17.592-5.625 24.919-15.67 21.845-30.986z" fill="#EF3A49"/>
<path d="m1780.9 875.79c0 8.721 0.453 21.82 1.364 39.299 0.909 17.479 1.365 30.58 1.365 39.299 0 1.824-1.241 2.735-3.721 2.735-1.407 0-3.577-0.119-6.511-0.357-2.936-0.238-5.147-0.357-6.636-0.357-1.571 0-3.949 0.119-7.131 0.357-3.184 0.238-5.562 0.357-7.132 0.357-1.903 0-2.852-0.911-2.852-2.735 0-7.135 0.227-17.836 0.682-32.105 0.453-14.269 0.682-24.971 0.682-32.105 0-3.092-0.951-4.875-2.852-5.351-2.481-0.633-16.786-0.951-42.913-0.951-26.045 0-40.35 0.318-42.912 0.951-1.82 0.476-2.729 2.259-2.729 5.351 0 6.977 0.206 17.479 0.62 31.51 0.413 14.031 0.62 24.536 0.62 31.511 0 2.616-1.034 3.924-3.1 3.924-1.572 0-3.928-0.119-7.069-0.357-3.144-0.238-5.5-0.357-7.07-0.357-1.488 0-3.701 0.119-6.635 0.357-2.936 0.238-5.147 0.357-6.635 0.357-2.068 0-3.101-0.911-3.101-2.735 0-8.719 0.434-21.82 1.302-39.299s1.302-30.578 1.302-39.299c0-9.195-0.434-23.008-1.302-41.439-0.868-18.43-1.302-32.242-1.302-41.439 0-1.743 1.033-2.616 3.101-2.616 1.488 0 3.761 0.119 6.821 0.357 3.058 0.238 5.374 0.357 6.945 0.357 1.488 0 3.802-0.119 6.946-0.357 3.141-0.238 5.457-0.357 6.945-0.357 1.901 0 2.852 0.714 2.852 2.141 0 6.818-0.31 17.063-0.93 30.737s-0.93 23.921-0.93 30.737c0 2.221 0.868 3.568 2.605 4.043 2.065 0.714 16.619 1.07 43.656 1.07 26.458 0 40.928-0.356 43.409-1.07 1.901-0.475 2.852-2.179 2.852-5.113 0-6.658-0.228-16.686-0.682-30.083-0.455-13.396-0.682-23.425-0.682-30.084 0-1.584 0.95-2.378 2.853-2.378 1.569 0 3.864 0.119 6.883 0.357 3.017 0.238 5.312 0.357 6.883 0.357 1.489 0 3.721-0.119 6.698-0.357 2.976-0.238 5.209-0.357 6.697-0.357 2.149 0 3.224 0.873 3.224 2.616 0 9.197-0.414 23.009-1.24 41.439-0.827 18.431-1.24 32.244-1.24 41.439zm-228.7 56.481c8.103 0 15.916-1.941 23.441-5.826 4.961-2.536 10.003-6.143 15.131-10.821 4.298-3.883 6.654-5.826 7.069-5.826 0.496 0 3.225 3.151 8.186 9.453s7.441 9.771 7.441 10.404c0 0.951-0.787 2.3-2.356 4.043-16.123 17.916-36.091 26.873-59.904 26.873-24.805 0-44.649-8.68-59.532-26.041-13.89-16.171-20.836-36.385-20.836-60.642s7.07-44.549 21.209-60.881c15.047-17.598 34.932-26.397 59.655-26.397 25.053 0 44.442 8.127 58.167 24.376 1.322 1.665 1.985 3.053 1.985 4.162 0 1.349-2.192 5.332-6.573 11.95-4.384 6.62-7.029 9.929-7.938 9.929-1.075 0-3.597-1.942-7.565-5.827-4.88-4.756-9.469-8.323-13.767-10.701-7.112-3.883-14.966-5.827-23.565-5.827-16.371 0-29.105 5.986-38.199 17.955-8.104 10.702-12.155 24.179-12.155 40.428 0 16.252 4.01 29.846 12.031 40.785 9.094 12.289 21.785 18.431 38.075 18.431zm-92.398 23.9c0 0.636-0.663 0.952-1.984 0.952-1.572 0-3.969-0.119-7.194-0.357-3.224-0.238-5.623-0.357-7.193-0.357-1.736 0-4.322 0.119-7.752 0.357-3.432 0.238-6.015 0.357-7.751 0.357-1.903 0-3.349-0.991-4.341-2.973-2.647-5.39-10.17-22.076-22.572-50.06-1.241-2.854-4.26-4.596-9.054-5.232-1.076-0.078-4.837-0.119-11.286-0.119-11.411 0-18.191 0.16-20.34 0.476-1.737 0.238-2.605 2.259-2.605 6.064 0 5.55 0.268 13.853 0.806 24.911 0.537 11.059 0.807 19.323 0.807 24.792 0 1.665-0.828 2.497-2.481 2.497-1.655 0-4.155-0.178-7.503-0.535-3.349-0.356-5.892-0.535-7.628-0.535-1.407 0-3.556 0.119-6.449 0.357-2.895 0.238-5.044 0.357-6.45 0.357-2.067 0-3.1-0.911-3.1-2.735 0-8.799 0.434-22.017 1.302-39.656 0.868-17.637 1.302-30.856 1.302-39.655 0-25.049-0.951-51.764-2.852-80.143l-0.124-1.903c-0.084-1.585 1.653-2.378 5.209-2.378 7.11 0 17.755-0.178 31.936-0.535 14.18-0.357 24.784-0.535 31.812-0.535 18.356 0 33.072 4.202 44.153 12.604 12.236 9.275 18.356 22.434 18.356 39.477 0 11.733-1.655 20.969-4.961 27.705-3.473 7.135-9.922 13.912-19.348 20.333-1.572 1.032-2.357 2.022-2.357 2.973 0 1.111 4.94 11.653 14.821 31.629 9.88 19.977 14.821 30.6 14.821 31.867zm-46.881-136.62c-6.368-3.567-17.819-5.35-34.355-5.35-13.394 0-20.216 1.031-20.464 3.091-0.579 4.281-0.868 15.737-0.868 34.364v22.711c0.248 0.16 0.785 0.318 1.612 0.476 1.489 0.16 3.926 0.357 7.318 0.595 7.854 0.397 16.328 0.594 25.425 0.594 22.82 0 34.231-9.234 34.231-27.705 0-14.347-4.301-23.939-12.899-28.776zm-104.18 137.58c-1.572 0-3.866-0.119-6.884-0.357-3.019-0.238-5.313-0.357-6.883-0.357-1.572 0-3.928 0.119-7.069 0.357-3.144 0.238-5.5 0.357-7.07 0.357-2.316 0-5.271-6.005-8.868-18.015-3.596-12.009-7.255-18.092-10.976-18.252-3.06-0.158-11.038-0.238-23.936-0.238h-19.596c-13.643 0-21.416 0.08-23.317 0.238-2.976 0.238-6.139 6.343-9.488 18.312-3.348 11.97-5.934 17.955-7.751 17.955h-27.906c-1.655 0-2.48-0.554-2.48-1.665 0-0.792 0.577-2.575 1.736-5.351 0 0 30.386-79.667 30.386-79.667 2.562-6.421 10.335-24.93 23.317-55.53 2.314-5.072 5.457-12.723 9.426-22.949 0.992-3.012 2.065-4.519 3.224-4.519 1.57 0 3.886 0.199 6.946 0.595 3.057 0.398 5.373 0.595 6.945 0.595 1.488 0 3.74-0.218 6.759-0.654 3.018-0.435 5.229-0.654 6.636-0.654 0.744 0 1.777 1.467 3.1 4.399 1.984 4.441 11.782 28.341 29.394 71.701 24.886 60.96 37.331 91.718 37.331 92.272 0 0.951-0.992 1.427-2.976 1.427zm-65.981-97.98c-7.194-17.756-12.279-29.409-15.255-34.958-17.116 41.855-25.673 63.775-25.673 65.755 0 2.696 3.141 4.281 9.426 4.757 0.329 0.079 4.381 0.118 12.154 0.118h12.774c11.823 0 17.736-1.584 17.736-4.756 0-2.298-3.721-12.604-11.162-30.916zm-106.04 85.019c-0.248 2.854-0.828 7.015-1.736 12.485-0.415 1.427-1.489 2.14-3.225 2.14-0.827 0-2.399-0.159-4.713-0.475-10.17-1.427-25.921-2.141-47.253-2.141-6.037 0-15.131 0.16-27.286 0.476-12.154 0.318-21.25 0.476-27.285 0.476-2.728 0-4.093-1.149-4.093-3.449 0-8.877 0.516-22.215 1.551-40.012 1.033-17.795 1.55-31.133 1.55-40.012 0-9.037-0.496-25.881-1.488-50.535-0.167-6.341-0.62-15.815-1.365-28.419l-0.124-1.665c-0.083-1.823 0.993-2.735 3.225-2.735 5.786 0 14.468 0.16 26.045 0.476 11.575 0.318 20.257 0.476 26.045 0.476 5.539 0 13.829-0.158 24.867-0.476 11.038-0.316 19.326-0.476 24.867-0.476 3.885 0 5.994 1.15 6.325 3.449 1.736 10.463 2.605 16.964 2.605 19.5 0 1.825-0.911 2.735-2.729 2.735-7.029 0-17.673-0.375-31.936-1.129-14.263-0.753-24.991-1.13-32.184-1.13-6.781 0-11.06 0.873-12.837 2.616-1.779 1.744-2.666 6.064-2.666 12.961v17.717c0 4.836 0.124 7.651 0.372 8.442 0.744 2.458 2.893 3.686 6.449 3.686 0.992 0 2.397-0.039 4.217-0.119h4.216c16.205 0 30.758-0.276 43.657-0.832 5.042-0.158 10.996-0.554 17.859-1.189 1.737-0.158 2.605 0.556 2.605 2.14 0 2.538-0.31 6.421-0.93 11.653s-0.93 9.156-0.93 11.772c0 1.427-1.241 2.14-3.721 2.14-0.992 0-4.672-0.277-11.038-0.832-4.632-0.476-15.05-0.714-31.254-0.714-13.643 0-22.284 0.16-25.921 0.476-3.292 0.237-5.189 1.887-5.697 4.95 0.076-0.283 0.116 2.782 0.116 9.2v17.598c0 8.246 1.321 13.398 3.968 15.458 2.066 1.665 7.234 2.497 15.503 2.497l13.643-0.119c5.786 0 22.034-0.951 48.742-2.853l1.86-0.119c1.653-0.158 2.48 0.832 2.48 2.972 0 1.269-0.331 3.092-0.992 5.47-0.744 3.014-1.199 4.836-1.364 5.47zm-145.98-119.5c-0.496 0.714-1.158 1.071-1.984 1.071 0.081 0-3.907-1.407-11.968-4.222-8.062-2.813-14.697-4.221-19.906-4.221-15.215 0-22.821 6.421-22.821 19.263 0 7.134 5.333 13.358 15.999 18.668 17.941 8.959 27.863 14.111 29.766 15.458 10.666 8.166 15.999 19.185 15.999 33.056 0 17.758-7.317 31.749-21.952 41.975-13.146 9.196-29.312 13.793-48.493 13.793-8.93 0-13.726-0.952-14.387-2.854-0.332-3.012-1.076-7.411-2.233-13.199-0.662-2.378-1.695-5.945-3.1-10.701-0.248-0.714-0.372-1.386-0.372-2.022 0-1.109 0.62-1.664 1.86-1.664 1.984 0 5.023 0.198 9.116 0.594 4.093 0.398 7.172 0.595 9.24 0.595 25.63 0 38.447-7.926 38.447-23.782 0-7.768-5.168-14.506-15.503-20.214-18.852-10.304-28.485-15.655-28.898-16.052-10.418-8.086-15.627-18.946-15.627-32.581 0-14.744 5.043-26.555 15.131-35.434 9.839-8.561 22.573-12.842 38.2-12.842 6.614 0 14.22 1.031 22.82 3.092 9.343 2.3 16.372 5.074 21.084 8.323 0.413 0.318 0.826 0.832 1.241 1.546-1.655 2.616-3.928 6.581-6.822 11.891-0.91 2.458-2.523 5.945-4.837 10.463zm-109.26 119.5c-0.248 2.854-0.827 7.015-1.736 12.485-0.415 1.427-1.489 2.14-3.225 2.14-0.828 0-2.399-0.159-4.713-0.475-10.17-1.427-25.921-2.141-47.253-2.141-6.037 0-15.131 0.16-27.285 0.476-12.155 0.318-21.251 0.476-27.286 0.476-2.728 0-4.093-1.149-4.093-3.449 0-8.877 0.516-22.215 1.551-40.012 1.033-17.795 1.55-31.133 1.55-40.012 0-9.037-0.496-25.881-1.488-50.535-0.167-6.341-0.621-15.815-1.365-28.419l-0.124-1.665c-0.083-1.823 0.993-2.735 3.225-2.735 5.787 0 14.468 0.16 26.045 0.476 11.575 0.318 20.257 0.476 26.045 0.476 5.539 0 13.829-0.158 24.867-0.476 11.038-0.316 19.327-0.476 24.867-0.476 3.885 0 5.994 1.15 6.325 3.449 1.737 10.463 2.605 16.964 2.605 19.5 0 1.825-0.911 2.735-2.729 2.735-7.028 0-17.673-0.375-31.936-1.129-14.263-0.753-24.991-1.13-32.184-1.13-6.781 0-11.06 0.873-12.837 2.616-1.779 1.744-2.666 6.064-2.666 12.961v17.717c0 4.836 0.124 7.651 0.372 8.442 0.744 2.458 2.893 3.686 6.449 3.686 0.992 0 2.397-0.039 4.217-0.119h4.217c16.204 0 30.758-0.276 43.656-0.832 5.043-0.158 10.996-0.554 17.86-1.189 1.736-0.158 2.604 0.556 2.604 2.14 0 2.538-0.31 6.421-0.93 11.653s-0.93 9.156-0.93 11.772c0 1.427-1.24 2.14-3.721 2.14-0.992 0-4.672-0.277-11.038-0.832-4.632-0.476-15.05-0.714-31.254-0.714-13.643 0-22.284 0.16-25.921 0.476-3.292 0.237-5.189 1.887-5.697 4.95 0.076-0.282 0.116 2.783 0.116 9.2v17.598c0 8.246 1.321 13.398 3.968 15.458 2.066 1.665 7.234 2.497 15.503 2.497l13.643-0.119c5.787 0 22.034-0.951 48.742-2.853l1.86-0.119c1.653-0.158 2.48 0.832 2.48 2.972 0 1.269-0.331 3.092-0.992 5.47-0.744 3.014-1.199 4.836-1.364 5.47zm-131.96 12.009c0 0.636-0.663 0.952-1.984 0.952-1.572 0-3.969-0.119-7.194-0.357-3.224-0.238-5.623-0.357-7.193-0.357-1.736 0-4.322 0.119-7.752 0.357-3.432 0.238-6.015 0.357-7.751 0.357-1.903 0-3.349-0.991-4.341-2.973-2.647-5.39-10.17-22.076-22.572-50.06-1.241-2.854-4.26-4.596-9.054-5.232-1.076-0.078-4.837-0.119-11.286-0.119-11.411 0-18.191 0.16-20.34 0.476-1.737 0.238-2.605 2.259-2.605 6.064 0 5.55 0.268 13.853 0.806 24.911 0.537 11.059 0.806 19.323 0.806 24.792 0 1.665-0.827 2.497-2.48 2.497-1.655 0-4.155-0.178-7.503-0.535-3.349-0.356-5.892-0.535-7.628-0.535-1.407 0-3.556 0.119-6.449 0.357-2.895 0.238-5.044 0.357-6.45 0.357-2.067 0-3.1-0.911-3.1-2.735 0-8.799 0.434-22.017 1.302-39.656 0.868-17.637 1.302-30.856 1.302-39.655 0-25.049-0.951-51.764-2.852-80.143l-0.124-1.903c-0.084-1.585 1.653-2.378 5.209-2.378 7.11 0 17.755-0.178 31.936-0.535 14.18-0.357 24.784-0.535 31.812-0.535 18.356 0 33.072 4.202 44.153 12.604 12.236 9.275 18.356 22.434 18.356 39.477 0 11.733-1.655 20.969-4.961 27.705-3.473 7.135-9.922 13.912-19.348 20.333-1.572 1.032-2.357 2.022-2.357 2.973 0 1.111 4.94 11.653 14.821 31.629 9.88 19.977 14.821 30.6 14.821 31.867zm-46.881-136.62c-6.368-3.567-17.819-5.35-34.355-5.35-13.394 0-20.216 1.031-20.464 3.091-0.579 4.281-0.868 15.737-0.868 34.364v22.711c0.248 0.16 0.785 0.318 1.612 0.476 1.489 0.16 3.926 0.357 7.318 0.595 7.854 0.397 16.328 0.594 25.425 0.594 22.82 0 34.23-9.234 34.23-27.705 0-14.347-4.3-23.939-12.898-28.776z" fill="#EF3A49"/>
<path d="m1780.9 875.79c0 8.721 0.453 21.82 1.364 39.299 0.909 17.479 1.365 30.58 1.365 39.299 0 1.824-1.241 2.735-3.721 2.735-1.407 0-3.577-0.119-6.511-0.357-2.936-0.238-5.147-0.357-6.636-0.357-1.571 0-3.949 0.119-7.131 0.357-3.184 0.238-5.562 0.357-7.132 0.357-1.903 0-2.852-0.911-2.852-2.735 0-7.135 0.227-17.836 0.682-32.105 0.453-14.269 0.682-24.971 0.682-32.105 0-3.092-0.951-4.875-2.852-5.351-2.481-0.633-16.786-0.951-42.913-0.951-26.045 0-40.35 0.318-42.912 0.951-1.82 0.476-2.729 2.259-2.729 5.351 0 6.977 0.206 17.479 0.62 31.51 0.413 14.031 0.62 24.536 0.62 31.511 0 2.616-1.034 3.924-3.1 3.924-1.572 0-3.928-0.119-7.069-0.357-3.144-0.238-5.5-0.357-7.07-0.357-1.488 0-3.701 0.119-6.635 0.357-2.936 0.238-5.147 0.357-6.635 0.357-2.068 0-3.101-0.911-3.101-2.735 0-8.719 0.434-21.82 1.302-39.299s1.302-30.578 1.302-39.299c0-9.195-0.434-23.008-1.302-41.439-0.868-18.43-1.302-32.242-1.302-41.439 0-1.743 1.033-2.616 3.101-2.616 1.488 0 3.761 0.119 6.821 0.357 3.058 0.238 5.374 0.357 6.945 0.357 1.488 0 3.802-0.119 6.946-0.357 3.141-0.238 5.457-0.357 6.945-0.357 1.901 0 2.852 0.714 2.852 2.141 0 6.818-0.31 17.063-0.93 30.737s-0.93 23.921-0.93 30.737c0 2.221 0.868 3.568 2.605 4.043 2.065 0.714 16.619 1.07 43.656 1.07 26.458 0 40.928-0.356 43.409-1.07 1.901-0.475 2.852-2.179 2.852-5.113 0-6.658-0.228-16.686-0.682-30.083-0.455-13.396-0.682-23.425-0.682-30.084 0-1.584 0.95-2.378 2.853-2.378 1.569 0 3.864 0.119 6.883 0.357 3.017 0.238 5.312 0.357 6.883 0.357 1.489 0 3.721-0.119 6.698-0.357 2.976-0.238 5.209-0.357 6.697-0.357 2.149 0 3.224 0.873 3.224 2.616 0 9.197-0.414 23.009-1.24 41.439-0.827 18.431-1.24 32.244-1.24 41.439zm-228.7 56.481c8.103 0 15.916-1.941 23.441-5.826 4.961-2.536 10.003-6.143 15.131-10.821 4.298-3.883 6.654-5.826 7.069-5.826 0.496 0 3.225 3.151 8.186 9.453s7.441 9.771 7.441 10.404c0 0.951-0.787 2.3-2.356 4.043-16.123 17.916-36.091 26.873-59.904 26.873-24.805 0-44.649-8.68-59.532-26.041-13.89-16.171-20.836-36.385-20.836-60.642s7.07-44.549 21.209-60.881c15.047-17.598 34.932-26.397 59.655-26.397 25.053 0 44.442 8.127 58.167 24.376 1.322 1.665 1.985 3.053 1.985 4.162 0 1.349-2.192 5.332-6.573 11.95-4.384 6.62-7.029 9.929-7.938 9.929-1.075 0-3.597-1.942-7.565-5.827-4.88-4.756-9.469-8.323-13.767-10.701-7.112-3.883-14.966-5.827-23.565-5.827-16.371 0-29.105 5.986-38.199 17.955-8.104 10.702-12.155 24.179-12.155 40.428 0 16.252 4.01 29.846 12.031 40.785 9.094 12.289 21.785 18.431 38.075 18.431zm-92.398 23.9c0 0.636-0.663 0.952-1.984 0.952-1.572 0-3.969-0.119-7.194-0.357-3.224-0.238-5.623-0.357-7.193-0.357-1.736 0-4.322 0.119-7.752 0.357-3.432 0.238-6.015 0.357-7.751 0.357-1.903 0-3.349-0.991-4.341-2.973-2.647-5.39-10.17-22.076-22.572-50.06-1.241-2.854-4.26-4.596-9.054-5.232-1.076-0.078-4.837-0.119-11.286-0.119-11.411 0-18.191 0.16-20.34 0.476-1.737 0.238-2.605 2.259-2.605 6.064 0 5.55 0.268 13.853 0.806 24.911 0.537 11.059 0.807 19.323 0.807 24.792 0 1.665-0.828 2.497-2.481 2.497-1.655 0-4.155-0.178-7.503-0.535-3.349-0.356-5.892-0.535-7.628-0.535-1.407 0-3.556 0.119-6.449 0.357-2.895 0.238-5.044 0.357-6.45 0.357-2.067 0-3.1-0.911-3.1-2.735 0-8.799 0.434-22.017 1.302-39.656 0.868-17.637 1.302-30.856 1.302-39.655 0-25.049-0.951-51.764-2.852-80.143l-0.124-1.903c-0.084-1.585 1.653-2.378 5.209-2.378 7.11 0 17.755-0.178 31.936-0.535 14.18-0.357 24.784-0.535 31.812-0.535 18.356 0 33.072 4.202 44.153 12.604 12.236 9.275 18.356 22.434 18.356 39.477 0 11.733-1.655 20.969-4.961 27.705-3.473 7.135-9.922 13.912-19.348 20.333-1.572 1.032-2.357 2.022-2.357 2.973 0 1.111 4.94 11.653 14.821 31.629 9.88 19.977 14.821 30.6 14.821 31.867zm-46.881-136.62c-6.368-3.567-17.819-5.35-34.355-5.35-13.394 0-20.216 1.031-20.464 3.091-0.579 4.281-0.868 15.737-0.868 34.364v22.711c0.248 0.16 0.785 0.318 1.612 0.476 1.489 0.16 3.926 0.357 7.318 0.595 7.854 0.397 16.328 0.594 25.425 0.594 22.82 0 34.231-9.234 34.231-27.705 0-14.347-4.301-23.939-12.899-28.776zm-104.18 137.58c-1.572 0-3.866-0.119-6.884-0.357-3.019-0.238-5.313-0.357-6.883-0.357-1.572 0-3.928 0.119-7.069 0.357-3.144 0.238-5.5 0.357-7.07 0.357-2.316 0-5.271-6.005-8.868-18.015-3.596-12.009-7.255-18.092-10.976-18.252-3.06-0.158-11.038-0.238-23.936-0.238h-19.596c-13.643 0-21.416 0.08-23.317 0.238-2.976 0.238-6.139 6.343-9.488 18.312-3.348 11.97-5.934 17.955-7.751 17.955h-27.906c-1.655 0-2.48-0.554-2.48-1.665 0-0.792 0.577-2.575 1.736-5.351 0 0 30.386-79.667 30.386-79.667 2.562-6.421 10.335-24.93 23.317-55.53 2.314-5.072 5.457-12.723 9.426-22.949 0.992-3.012 2.065-4.519 3.224-4.519 1.57 0 3.886 0.199 6.946 0.595 3.057 0.398 5.373 0.595 6.945 0.595 1.488 0 3.74-0.218 6.759-0.654 3.018-0.435 5.229-0.654 6.636-0.654 0.744 0 1.777 1.467 3.1 4.399 1.984 4.441 11.782 28.341 29.394 71.701 24.886 60.96 37.331 91.718 37.331 92.272 0 0.951-0.992 1.427-2.976 1.427zm-65.981-97.98c-7.194-17.756-12.279-29.409-15.255-34.958-17.116 41.855-25.673 63.775-25.673 65.755 0 2.696 3.141 4.281 9.426 4.757 0.329 0.079 4.381 0.118 12.154 0.118h12.774c11.823 0 17.736-1.584 17.736-4.756 0-2.298-3.721-12.604-11.162-30.916zm-106.04 85.019c-0.248 2.854-0.828 7.015-1.736 12.485-0.415 1.427-1.489 2.14-3.225 2.14-0.827 0-2.399-0.159-4.713-0.475-10.17-1.427-25.921-2.141-47.253-2.141-6.037 0-15.131 0.16-27.286 0.476-12.154 0.318-21.25 0.476-27.285 0.476-2.728 0-4.093-1.149-4.093-3.449 0-8.877 0.516-22.215 1.551-40.012 1.033-17.795 1.55-31.133 1.55-40.012 0-9.037-0.496-25.881-1.488-50.535-0.167-6.341-0.62-15.815-1.365-28.419l-0.124-1.665c-0.083-1.823 0.993-2.735 3.225-2.735 5.786 0 14.468 0.16 26.045 0.476 11.575 0.318 20.257 0.476 26.045 0.476 5.539 0 13.829-0.158 24.867-0.476 11.038-0.316 19.326-0.476 24.867-0.476 3.885 0 5.994 1.15 6.325 3.449 1.736 10.463 2.605 16.964 2.605 19.5 0 1.825-0.911 2.735-2.729 2.735-7.029 0-17.673-0.375-31.936-1.129-14.263-0.753-24.991-1.13-32.184-1.13-6.781 0-11.06 0.873-12.837 2.616-1.779 1.744-2.666 6.064-2.666 12.961v17.717c0 4.836 0.124 7.651 0.372 8.442 0.744 2.458 2.893 3.686 6.449 3.686 0.992 0 2.397-0.039 4.217-0.119h4.216c16.205 0 30.758-0.276 43.657-0.832 5.042-0.158 10.996-0.554 17.859-1.189 1.737-0.158 2.605 0.556 2.605 2.14 0 2.538-0.31 6.421-0.93 11.653s-0.93 9.156-0.93 11.772c0 1.427-1.241 2.14-3.721 2.14-0.992 0-4.672-0.277-11.038-0.832-4.632-0.476-15.05-0.714-31.254-0.714-13.643 0-22.284 0.16-25.921 0.476-3.292 0.237-5.189 1.887-5.697 4.95 0.076-0.283 0.116 2.782 0.116 9.2v17.598c0 8.246 1.321 13.398 3.968 15.458 2.066 1.665 7.234 2.497 15.503 2.497l13.643-0.119c5.786 0 22.034-0.951 48.742-2.853l1.86-0.119c1.653-0.158 2.48 0.832 2.48 2.972 0 1.269-0.331 3.092-0.992 5.47-0.744 3.014-1.199 4.836-1.364 5.47zm-145.98-119.5c-0.496 0.714-1.158 1.071-1.984 1.071 0.081 0-3.907-1.407-11.968-4.222-8.062-2.813-14.697-4.221-19.906-4.221-15.215 0-22.821 6.421-22.821 19.263 0 7.134 5.333 13.358 15.999 18.668 17.941 8.959 27.863 14.111 29.766 15.458 10.666 8.166 15.999 19.185 15.999 33.056 0 17.758-7.317 31.749-21.952 41.975-13.146 9.196-29.312 13.793-48.493 13.793-8.93 0-13.726-0.952-14.387-2.854-0.332-3.012-1.076-7.411-2.233-13.199-0.662-2.378-1.695-5.945-3.1-10.701-0.248-0.714-0.372-1.386-0.372-2.022 0-1.109 0.62-1.664 1.86-1.664 1.984 0 5.023 0.198 9.116 0.594 4.093 0.398 7.172 0.595 9.24 0.595 25.63 0 38.447-7.926 38.447-23.782 0-7.768-5.168-14.506-15.503-20.214-18.852-10.304-28.485-15.655-28.898-16.052-10.418-8.086-15.627-18.946-15.627-32.581 0-14.744 5.043-26.555 15.131-35.434 9.839-8.561 22.573-12.842 38.2-12.842 6.614 0 14.22 1.031 22.82 3.092 9.343 2.3 16.372 5.074 21.084 8.323 0.413 0.318 0.826 0.832 1.241 1.546-1.655 2.616-3.928 6.581-6.822 11.891-0.91 2.458-2.523 5.945-4.837 10.463zm-109.26 119.5c-0.248 2.854-0.827 7.015-1.736 12.485-0.415 1.427-1.489 2.14-3.225 2.14-0.828 0-2.399-0.159-4.713-0.475-10.17-1.427-25.921-2.141-47.253-2.141-6.037 0-15.131 0.16-27.285 0.476-12.155 0.318-21.251 0.476-27.286 0.476-2.728 0-4.093-1.149-4.093-3.449 0-8.877 0.516-22.215 1.551-40.012 1.033-17.795 1.55-31.133 1.55-40.012 0-9.037-0.496-25.881-1.488-50.535-0.167-6.341-0.621-15.815-1.365-28.419l-0.124-1.665c-0.083-1.823 0.993-2.735 3.225-2.735 5.787 0 14.468 0.16 26.045 0.476 11.575 0.318 20.257 0.476 26.045 0.476 5.539 0 13.829-0.158 24.867-0.476 11.038-0.316 19.327-0.476 24.867-0.476 3.885 0 5.994 1.15 6.325 3.449 1.737 10.463 2.605 16.964 2.605 19.5 0 1.825-0.911 2.735-2.729 2.735-7.028 0-17.673-0.375-31.936-1.129-14.263-0.753-24.991-1.13-32.184-1.13-6.781 0-11.06 0.873-12.837 2.616-1.779 1.744-2.666 6.064-2.666 12.961v17.717c0 4.836 0.124 7.651 0.372 8.442 0.744 2.458 2.893 3.686 6.449 3.686 0.992 0 2.397-0.039 4.217-0.119h4.217c16.204 0 30.758-0.276 43.656-0.832 5.043-0.158 10.996-0.554 17.86-1.189 1.736-0.158 2.604 0.556 2.604 2.14 0 2.538-0.31 6.421-0.93 11.653s-0.93 9.156-0.93 11.772c0 1.427-1.24 2.14-3.721 2.14-0.992 0-4.672-0.277-11.038-0.832-4.632-0.476-15.05-0.714-31.254-0.714-13.643 0-22.284 0.16-25.921 0.476-3.292 0.237-5.189 1.887-5.697 4.95 0.076-0.282 0.116 2.783 0.116 9.2v17.598c0 8.246 1.321 13.398 3.968 15.458 2.066 1.665 7.234 2.497 15.503 2.497l13.643-0.119c5.787 0 22.034-0.951 48.742-2.853l1.86-0.119c1.653-0.158 2.48 0.832 2.48 2.972 0 1.269-0.331 3.092-0.992 5.47-0.744 3.014-1.199 4.836-1.364 5.47zm-131.96 12.009c0 0.636-0.663 0.952-1.984 0.952-1.572 0-3.969-0.119-7.194-0.357-3.224-0.238-5.623-0.357-7.193-0.357-1.736 0-4.322 0.119-7.752 0.357-3.432 0.238-6.015 0.357-7.751 0.357-1.903 0-3.349-0.991-4.341-2.973-2.647-5.39-10.17-22.076-22.572-50.06-1.241-2.854-4.26-4.596-9.054-5.232-1.076-0.078-4.837-0.119-11.286-0.119-11.411 0-18.191 0.16-20.34 0.476-1.737 0.238-2.605 2.259-2.605 6.064 0 5.55 0.268 13.853 0.806 24.911 0.537 11.059 0.806 19.323 0.806 24.792 0 1.665-0.827 2.497-2.48 2.497-1.655 0-4.155-0.178-7.503-0.535-3.349-0.356-5.892-0.535-7.628-0.535-1.407 0-3.556 0.119-6.449 0.357-2.895 0.238-5.044 0.357-6.45 0.357-2.067 0-3.1-0.911-3.1-2.735 0-8.799 0.434-22.017 1.302-39.656 0.868-17.637 1.302-30.856 1.302-39.655 0-25.049-0.951-51.764-2.852-80.143l-0.124-1.903c-0.084-1.585 1.653-2.378 5.209-2.378 7.11 0 17.755-0.178 31.936-0.535 14.18-0.357 24.784-0.535 31.812-0.535 18.356 0 33.072 4.202 44.153 12.604 12.236 9.275 18.356 22.434 18.356 39.477 0 11.733-1.655 20.969-4.961 27.705-3.473 7.135-9.922 13.912-19.348 20.333-1.572 1.032-2.357 2.022-2.357 2.973 0 1.111 4.94 11.653 14.821 31.629 9.88 19.977 14.821 30.6 14.821 31.867zm-46.881-136.62c-6.368-3.567-17.819-5.35-34.355-5.35-13.394 0-20.216 1.031-20.464 3.091-0.579 4.281-0.868 15.737-0.868 34.364v22.711c0.248 0.16 0.785 0.318 1.612 0.476 1.489 0.16 3.926 0.357 7.318 0.595 7.854 0.397 16.328 0.594 25.425 0.594 22.82 0 34.23-9.234 34.23-27.705 0-14.347-4.3-23.939-12.898-28.776z" fill="none" stroke="#000"/>
<path d="m1766.8 1150.3c-0.98 0.628-2.496 1.482-4.548 2.552-2.052 1.071-3.57 1.91-4.553 2.528-1.05 0.659-2.612 1.754-4.694 3.276-2.082 1.523-3.653 2.604-4.706 3.25-1.185 0.727-3.076 0.623-5.658-0.328-22.448-8.585-55.968-21.742-98.004-42.642-6.469-3.159-10.131-4.919-11.066-5.181-0.625 0.317-0.434 1.731 0.571 4.241 3.777 9.432 9.601 23.517 17.499 42.24 7.899 18.725 13.753 32.795 17.536 42.222 0.812 2.019 0.539 3.374-0.817 4.058-1.154 0.582-2.954 1.378-5.403 2.376-2.451 0.999-4.255 1.776-5.41 2.344-1.225 0.6-3.01 1.584-5.357 2.939-2.349 1.356-4.14 2.322-5.369 2.908-1.708 0.814-2.794 0.599-3.258-0.639-2.553-6.807-6.038-17.236-10.493-31.27-4.456-14.032-7.997-24.473-10.584-31.336-2.821-7.482-8.2-20.821-16.092-40.039-2.033-5.012-5.206-12.472-9.502-22.39-0.182-0.388-0.363-0.776-0.544-1.164-0.41-0.899 0.136-1.739 1.633-2.526 3.929-1.946 6.975-3.577 9.146-4.86 0.824-0.477 2.335-1.511 4.523-3.113 1.85-1.36 3.344-2.332 4.491-2.909 0.543-0.274 1.831 0.145 3.874 1.244 21.699 12.219 55.059 29.694 102.9 48.41 2.075 0.73 3.959 1.303 5.65 1.722-0.751-2.751-3.268-8.551-7.55-17.401-3.709-7.67-9.577-18.99-17.565-33.986-7.986-14.995-13.794-26.316-17.465-33.934-0.938-1.95-0.821-3.28 0.353-3.997 1.056-0.645 2.695-1.534 4.92-2.681 2.222-1.146 3.859-2.054 4.911-2.713 1.109-0.696 2.73-1.829 4.858-3.411 2.125-1.582 3.738-2.733 4.842-3.443 1.22-0.786 2.158-0.539 2.814 0.74 3.427 6.695 8.367 16.944 14.793 30.763 6.423 13.821 11.346 24.119 14.794 30.877 3.24 6.35 8.152 15.822 14.747 28.411 6.593 12.589 11.515 22.056 14.756 28.404 0.982 1.922 0.656 3.411-0.977 4.458zm-165.12 66.477c-8.728 19.696-23.708 33.776-44.339 41.379-20.704 7.622-40.095 6.238-57.321-3.815-16.64-9.696-26.872-24.571-31.298-44.009-4.387-19.271-1.771-37.671 7.089-55.386 9.136-18.376 22.448-30.547 40.564-37.215 18.176-6.7 35.424-5.792 52.559 2.896 16.48 8.304 28.324 21.371 34.968 39.882 6.636 18.481 6.15 37.28-2.222 56.268zm-21.417-46.252c-4.125-12.324-11.673-21.341-22.39-27.328-11.296-6.401-22.873-7.308-35.098-2.805-12.1 4.452-20.807 12.901-26.4 25.669-5.301 11.966-6.527 24.256-3.357 36.932 3.152 12.601 9.941 22.379 20.624 29.077 11.319 7.18 23.746 8.413 36.902 3.571 13.361-4.919 22.901-14.249 28.349-27.61 5.187-12.548 5.535-25.067 1.37-37.506zm-122.76 115.34c-2.679 0.488-4.66 0.888-5.945 1.213-1.356 0.343-3.335 0.945-5.939 1.794-2.605 0.848-4.552 1.422-5.839 1.731-1.789 0.43-2.825-0.113-3.11-1.625-1.411-7.49-3.158-18.863-5.281-34.113-2.125-15.249-3.926-26.645-5.362-34.198-1.386-7.29-3.827-18.153-7.284-32.605-3.455-14.45-5.85-25.327-7.225-32.62-0.309-1.641 0.268-2.637 1.733-2.988 1.208-0.291 3.073-0.638 5.592-1.053 2.519-0.416 4.414-0.791 5.686-1.113 1.144-0.29 2.84-0.825 5.086-1.615 2.245-0.79 3.936-1.341 5.078-1.644 1.647-0.439 2.611-8e-3 2.889 1.298 1.558 7.316 3.642 18.356 6.226 33.128 2.581 14.774 4.632 25.822 6.18 33.139 1.59 7.514 4.257 18.709 8.034 33.575 3.777 14.868 6.483 26.052 8.083 33.562 0.292 1.371-0.594 2.336-2.661 2.885-1.282 0.34-3.264 0.761-5.941 1.249zm-90.78-102.78c2.34 20.325 4.365 36.59 6.123 48.786 1.098 7.625 3.031 19.008 5.833 34.144 2.801 15.138 4.774 26.514 5.883 34.134 0.203 1.392-0.741 2.281-2.83 2.658-1.297 0.234-3.294 0.491-5.988 0.756-2.695 0.266-4.728 0.508-6.096 0.739-1.299 0.218-3.269 0.649-5.913 1.281-2.645 0.633-4.619 1.044-5.919 1.247-1.807 0.282-2.81-0.412-3.012-2.076-0.923-7.585-1.963-19.031-3.156-34.337-1.195-15.304-2.281-26.779-3.223-34.43-1.458-11.84-3.841-28.045-7.091-48.626-16.757 3.662-29.14 5.67-37.028 6.569-0.789 0.089-1.213-0.2-1.272-0.869-0.107-1.203 0.035-2.973 0.421-5.311 0.456-3.021 0.721-4.806 0.804-5.356-0.082-2.353 0.081-5.645 0.476-9.877 0.243-0.904 0.751-1.403 1.524-1.494 0.39-0.012 0.78-0.024 1.17-0.037 22.953-1.331 38.077-3.196 45.341-4.407 6.426-1.097 16.873-3.423 31.23-7.398 8.482-2.348 12.643-3.626 12.54-3.684 1.449-0.236 2.367 0.164 2.739 1.223-0.256-0.695 0.246 2.513 1.506 9.626 0.151 0.857 0.484 2.169 0.999 3.936 0.515 1.769 0.855 3.113 1.019 4.035 0.304 1.713-0.129 2.7-1.299 2.96-1.823 0.368-13.394 2.681-34.781 5.808zm29.817-27.588c-0.115 0.019-0.227 0.033-0.349 0.06 0.222-0.051 0.333-0.069 0.349-0.06zm-99.005 158.92c-1.306 0.124-3.311 0.213-6.009 0.254-2.7 0.04-4.702 0.108-6.008 0.218-1.379 0.116-3.405 0.384-6.079 0.794-2.675 0.41-4.666 0.656-5.974 0.75-1.817 0.131-2.767-0.578-2.851-2.12-0.42-7.641-0.668-19.179-0.784-34.613-0.117-15.434-0.414-27.003-0.85-34.711-0.421-7.439-1.417-18.587-2.95-33.452-1.531-14.863-2.481-26.017-2.89-33.457-0.091-1.675 0.605-2.564 2.093-2.67 1.228-0.089 3.109-0.124 5.643-0.12 2.534 5e-3 4.447-0.053 5.742-0.162 1.163-0.098 2.902-0.348 5.214-0.758s4.048-0.676 5.21-0.788c1.678-0.161 2.571 0.424 2.676 1.762 0.586 7.493 1.209 18.757 1.84 33.794 0.629 15.039 1.218 26.306 1.795 33.798 0.592 7.695 1.768 19.208 3.561 34.536 1.794 15.33 3.01 26.838 3.612 34.53 0.111 1.405-0.887 2.213-2.991 2.415zm-110.59 4.55c-3.784-0.052-9.477-0.276-17.07-0.772-7.593-0.497-13.275-0.883-17.053-1.058-3.417-0.161-8.562-0.279-15.441-0.437-6.88-0.158-12.029-0.408-15.442-0.671-1.817-0.141-2.671-1.051-2.564-2.726 0.462-7.3 1.471-18.295 2.995-32.985 1.522-14.69 2.497-25.721 2.954-33.091 0.482-7.771 0.928-19.482 1.371-35.133s0.927-27.36 1.418-35.131c0.09-1.407 0.973-2.042 2.655-1.912 2.391 0.183 5.961 0.486 10.712 0.862 4.751 0.377 8.324 0.607 10.719 0.735 2.199 0.117 5.567 0.257 10.101 0.381 4.532 0.124 7.965 0.202 10.296 0.274 22.451 0.676 39.154 4.81 50.476 13.342 8.111 6.113 14.606 14.35 19.473 24.818 4.569 9.74 7.156 20.019 7.603 30.888 0.781 18.839-4.078 35.477-15.142 49.644-12.01 15.395-28.255 23.23-48.061 22.972zm37.96-71.642c-0.3-14.507-4.735-26.189-13.023-35.216-8.64-9.366-19.854-14.066-33.947-14.406-10.768-0.279-15.592-0.576-14.507-0.642-7.45 0.128-11.253 1.34-11.356 3.783-0.215 5.166-0.65 12.891-1.315 23.175-0.668 10.285-1.113 18.009-1.33 23.174-0.214 5.098-0.417 12.752-0.597 22.96-0.181 10.211-0.372 17.864-0.583 22.962-0.108 2.543 4.12 4.27 12.701 5.017-1.144-0.125 4.082 0.106 15.683 0.395 8.234 0.194 14.8-0.554 19.666-2.144 6.012-1.99 11.389-5.749 16.084-11.245 8.763-10.321 12.829-22.981 12.524-37.813zm-119.06-52.689c-5.591-0.578-14.035-1.803-25.285-3.915-11.249-2.115-19.694-3.741-25.383-4.643-5.361-0.855-8.836-0.702-10.441 0.519-1.604 1.221-2.804 4.715-3.596 10.49-0.678 4.945-1.355 9.89-2.033 14.834-0.555 4.05-0.777 6.424-0.666 7.121 0.324 2.162 1.938 3.495 4.841 3.98 0.81 0.135 1.961 0.292 3.456 0.468 1.552 0.253 2.699 0.436 3.443 0.555 13.237 2.108 25.179 3.493 35.787 4.303 4.142 0.366 9.051 0.596 14.718 0.652 1.433 0.017 2.095 0.691 1.986 2.028-0.175 2.141-0.696 5.391-1.572 9.751-0.877 4.36-1.411 7.643-1.594 9.849-0.099 1.203-1.185 1.698-3.257 1.475-0.828-0.091-3.883-0.649-9.149-1.74-3.825-0.863-12.491-2.071-25.97-4.017-11.348-1.652-18.536-2.735-21.592-2.971-2.772-0.262-4.54 0.857-5.309 3.374 0.132-0.452-0.183 2.109-0.947 7.684-0.673 4.912-1.346 9.823-2.019 14.735-0.947 6.903-0.411 11.414 1.629 13.525 1.583 1.692 5.93 3.147 13.041 4.256 3.915 0.575 7.831 1.127 11.75 1.656 4.978 0.687 19.068 1.982 42.218 2.727l1.611 0.06c1.435 8e-3 2.084 0.912 1.945 2.719-0.082 1.071-0.486 2.582-1.215 4.532-0.843 2.481-1.36 3.979-1.545 4.5-0.406 2.386-1.186 5.848-2.352 10.383-0.459 1.168-1.451 1.675-2.976 1.517-0.726-0.075-2.096-0.353-4.104-0.838-8.823-2.171-22.561-4.339-41.196-7.109-5.273-0.788-13.231-1.869-23.864-3.437-10.633-1.571-18.57-2.971-23.819-4.006-2.373-0.469-3.407-1.667-3.1-3.585 1.179-7.402 3.404-18.434 6.629-33.103 3.222-14.668 5.393-25.712 6.558-33.118 1.187-7.539 2.983-21.673 5.45-42.394 0.705-5.315 1.597-13.288 2.693-23.915 0.042-0.469 0.083-0.938 0.125-1.408 0.178-1.533 1.131-2.125 2.859-1.782 4.479 0.886 11.18 2.325 20.13 4.163 8.949 1.837 15.689 3.021 20.193 3.707 4.311 0.653 10.783 1.477 19.414 2.33 8.632 0.851 15.11 1.44 19.434 1.91 3.031 0.327 4.598 1.463 4.7 3.43 0.642 8.967 0.9 14.521 0.728 16.661-0.122 1.539-0.908 2.235-2.354 2.087zm-126.66 47.854c-10.744 7.454-24.337 9.169-40.388 4.803-3.941-1.075-9.871-2.864-17.762-5.48-7.89-2.618-13.812-4.604-17.793-5.845-2.196-0.687-3.624 0.291-4.288 2.941-0.858 3.427-1.923 8.637-3.18 15.633-1.259 6.997-2.309 12.21-3.163 15.637-0.274 1.101-1.084 1.438-2.425 1.014-1.484-0.471-3.692-1.329-6.615-2.591-2.925-1.263-5.122-2.147-6.601-2.637-1.268-0.42-3.159-0.945-5.673-1.584-2.515-0.639-4.369-1.17-5.564-1.581-1.758-0.605-2.362-1.905-1.815-3.894 1.922-6.993 5.158-17.433 9.677-31.329 4.515-13.895 7.722-24.38 9.651-31.443 5.471-20.031 10.576-41.802 15.454-65.273 0.101-0.492 0.202-0.984 0.303-1.476 0.326-1.432 1.334-1.855 3.023-1.273 3.38 1.164 8.459 2.933 15.259 5.216 6.799 2.281 11.941 3.907 15.409 4.97 2.962 0.906 7.44 2.126 13.44 3.589 5.999 1.461 10.49 2.563 13.468 3.379 13.989 3.825 24.508 11.547 31.866 23.548 7.186 11.744 9.718 24.844 7.218 39.424-2.655 15.49-9.064 26.99-19.501 34.252zm-9.307-64.194c-4.236-7.55-11.064-12.569-20.586-15.242-2.961-0.834-8.296-2.061-15.995-3.811-8.791-2.086-13.372-3.008-13.758-2.565-0.642 0.634-3.657 11.68-9.044 33.138-0.681 2.715-1.622 6.813-2.816 12.295-1.195 5.483-2.13 9.582-2.81 12.297-0.146 0.582 0.482 1.27 1.887 2.059 3.538 1.861 13.754 5.499 30.751 10.247 9.523 2.649 17.568 1.733 23.995-2.626 6.04-4.184 9.914-10.944 11.708-20.193 1.91-9.845 0.755-18.365-3.332-25.599zm-89.308-40.693c-0.485 1.573-8.808 8.237-25.643 19.331-16.884 11.046-25.779 16.652-26.022 17.495-0.298 1.005 2.916 12.112 10.517 33.238 7.663 21.119 11.751 32.203 11.387 33.356-1.333 4.598-2.665 9.195-3.998 13.793-0.221 0.766-1.104 0.868-2.642 0.301-5.641-2.043-11.271-4.138-16.89-6.283-0.836-0.324-1.28-0.534-1.329-0.623-0.924-0.724-4.595-10.965-10.318-30.755-5.676-19.789-8.334-29.797-8.669-30.003-1.491 0.283-10.037 5.884-26.19 16.24-15.627 10.069-24.201 14.599-25.208 14.13-5.67-2.693-11.326-5.44-16.966-8.24-1.564-0.777-2.15-1.658-1.761-2.64 1.747-4.418 3.494-8.837 5.242-13.256 0.438-1.192 10.096-6.161 28.336-15.673 18.193-9.566 27.2-15.331 27.667-16.551 0.519-1.372-2.637-12.642-8.607-33.834-5.909-21.196-8.267-32.257-7.934-33.176 1.868-4.726 3.736-9.452 5.604-14.178 0.339-0.859 1.325-0.881 2.957-0.071 1.692 0.838 4.209 2.155 7.558 3.925 3.348 1.77 5.879 3.045 7.582 3.853 0.304 0.144 0.891 2.1 1.789 5.868 2.348 11.867 6.066 29.648 11.908 53.342 0.169 0.578 0.553 1.284 1.152 2.117 1.027-0.069 9.413-5.66 24.574-17.314 14.913-11.487 22.529-17.308 23.417-16.953 4.899 1.902 9.807 3.762 14.725 5.578 1.618 0.597 2.298 1.34 2.039 2.234-1.425 4.916-2.851 9.833-4.277 14.749zm-113.05-47.076c-0.575 1.404-1.538 1.756-2.885 1.055-5.205-2.715-12.963-7.149-23.174-13.531-10.208-6.386-17.873-11.233-23.094-14.318-4.919-2.912-8.321-4.137-10.233-3.617-1.911 0.52-4.108 3.343-6.587 8.479-2.122 4.398-4.244 8.797-6.366 13.195-1.738 3.602-2.657 5.754-2.757 6.456-0.33 2.167 0.834 4.061 3.493 5.661 0.742 0.446 1.806 1.047 3.197 1.8 1.423 0.849 2.476 1.473 3.158 1.878 12.147 7.188 23.244 13.16 33.217 18.055 3.879 1.959 8.535 4.085 13.969 6.338 1.374 0.572 1.81 1.465 1.308 2.683-0.805 1.951-2.272 4.812-4.411 8.583-2.14 3.77-3.629 6.658-4.461 8.667-0.453 1.096-1.645 1.141-3.571 0.126-0.77-0.407-3.542-2.12-8.287-5.198-3.426-2.303-11.408-6.813-23.826-13.926-10.451-6.001-17.07-9.853-19.95-11.279-2.599-1.339-4.638-0.98-6.128 1.092 0.261-0.374-0.803 1.918-3.196 6.877-2.108 4.368-4.215 8.737-6.323 13.106-2.965 6.139-3.785 10.607-2.443 13.401 1.027 2.219 4.793 5.305 11.324 9.142 3.606 2.08 7.22 4.135 10.84 6.168 4.594 2.594 17.799 9.337 39.84 19.02 0.51 0.227 1.021 0.454 1.531 0.681 1.377 0.564 1.732 1.668 1.062 3.317-0.398 0.978-1.236 2.245-2.516 3.802-1.548 2.012-2.491 3.224-2.824 3.643-1.099 2.093-2.879 5.054-5.348 8.877-0.789 0.923-1.893 1.016-3.312 0.276-0.677-0.353-1.911-1.146-3.699-2.383-7.843-5.475-20.419-12.861-37.568-22.775-4.852-2.811-12.207-6.951-22.01-12.622-9.803-5.674-17.063-10.139-21.832-13.195-2.157-1.385-2.801-2.926-1.936-4.614 3.337-6.519 8.761-16.048 16.231-28.614 7.468-12.566 12.843-22.129 16.168-28.657 3.384-6.645 9.313-19.273 17.845-37.851 2.259-4.737 5.487-11.909 9.699-21.504 0.179-0.427 0.359-0.853 0.538-1.279 0.627-1.377 1.725-1.557 3.294-0.549 4.069 2.612 10.122 6.625 18.221 11.889 8.099 5.261 14.25 9.024 18.391 11.438 3.964 2.306 9.96 5.619 18.022 9.792 8.061 4.171 14.12 7.244 18.14 9.367 2.819 1.486 3.988 3.164 3.502 5.058-2.049 8.703-3.452 14.04-4.253 15.99z" fill="#EF3A49"/>
</svg>
