<svg id="Calque_1" data-name="Calque 1" xmlns="http://www.w3.org/2000/svg" viewBox="0 0 850.39 566.93"><defs><style>.cls-1,.cls-20,.cls-6{fill:#fff;}.cls-10,.cls-15,.cls-2,.cls-4,.cls-9{fill:#d61016;}.cls-3{fill:#e52521;}.cls-10,.cls-13,.cls-15,.cls-16,.cls-25,.cls-26,.cls-3,.cls-4,.cls-5,.cls-6,.cls-7,.cls-8,.cls-9{stroke:#010101;}.cls-10,.cls-13,.cls-16,.cls-3,.cls-7,.cls-9{stroke-linecap:round;}.cls-10,.cls-13,.cls-3{stroke-miterlimit:8;}.cls-10,.cls-15,.cls-16,.cls-3,.cls-4,.cls-5,.cls-7,.cls-8,.cls-9{stroke-width:0.75px;}.cls-25,.cls-26,.cls-4,.cls-5,.cls-8{stroke-miterlimit:10;}.cls-16,.cls-17,.cls-18,.cls-25,.cls-26,.cls-5{fill:#ff0;}.cls-6{fill-opacity:0.98;}.cls-13,.cls-6{stroke-width:0.65px;}.cls-13,.cls-23,.cls-7,.cls-8{fill:none;}.cls-11{fill:#fafafa;}.cls-12{fill:#532610;}.cls-14{fill:#010101;}.cls-17{stroke:#1d1d1b;stroke-width:0.33px;}.cls-19{fill:#fcef3c;}.cls-19,.cls-20,.cls-22,.cls-23,.cls-24{stroke:#000;stroke-width:2px;}.cls-21,.cls-22,.cls-25{fill-rule:evenodd;}.cls-22{fill:#f7c5b4;}.cls-25,.cls-26{stroke-width:1.5px;}</style></defs><title>malta</title><rect class="cls-1" width="850.39" height="566.93"/><rect class="cls-2" x="425.2" width="425.19" height="566.93"/><path id="path5747-8" class="cls-3" d="M230.94,148.3s-13.68-2.3-19.22-3.3c-6.48-1.2-15.62,2.24-22,.52-3.74-1-4.69-1.81-6.67-5.18a23,23,0,0,1-2-5.7s-2.84,4-2.19,7.37a10.32,10.32,0,0,0,5.45,7c7.41,3.54,19.86.37,27.92,1.86,5.62,1,12.77,8.65,12.77,8.65l5.89-11.21Z"/><path class="cls-4" d="M374.1,170.61c-5.73-9.65-13.8-11.41-20.89-14.28,11.17-4.71,11.82-17.43,7.87-21.76-.3,12.08-14.5,10.47-22.25,13.81-5.62-4.86-13.59-6.14-20.12-6.14C272.4,153.85,280.82,203,291.19,231.5c-1.82-.68-3.63-1.13-5.11-1.54-6.39-1.78-6.63-6.08-8.14-7.09-.72.71,1.93,10.41,10.43,13.62,2.51.94,5.84,3.74,8.67,7.3l.06.09A250.72,250.72,0,0,0,312.86,267a83.67,83.67,0,0,1,7.28,15.65c.24,1.56.54,3.12.84,4.67-8.74-6.32-14.85-16.5-19.89-27.11-1.7,1.75-4.3,4.14-3,10.28-8.35-6.8-12.31-15.67-17.6-26.38-2.08,1.13.62,16.08,2.08,27.24.77,4.69,3,7.89,5.74,11.35a43.37,43.37,0,0,0,7.6,6.38c-4,3.32-10.28,9.11-9.17,17.12.4,9.42,6.39,13.56,12.42,13.32,4.23.94,7-1.21,8.76-3.72-8.61-3.12-7-3.87-8.22-6.68-1.82-5.49,1.47-9.83,5.54-12.53,10.39,2.39,20.14,10.39,16.42,20.33-1.84,12.26-11.31,15.36-19.34,20.19-10.71,1.36-20.74.91-26.36-8.89-.45-10.63-7.27-21-11.45-29-7.22-15.8-10.19-27.63-13.83-48.82,12.3-8.2,1.89-18.38,2-28,5.69,2.66,13,5.7,16.55-2-15.77,2.83-7.1-16.2-11.52-28.15,4,8.26,6.51,11,14.94,9.93-6.48-1.38-4.21-7.24-4-13.81l-34.88-4.9-26.86-17.44c-3.77,7.49-15.8-.64-21.85.32-4.86,1.07-8.21,5-12.16,7.39,0-1.6,0-4.49-.66-5.93-1.07.91-.63,2.65-1.31,3.64-1.06-1.45-.29-4.71-1.2-6.38-.46.76-1.3,1.91-1.9,1.45A9.82,9.82,0,0,0,166,161.3c-.38.91-.48,1.19-1.16,1.65-1-1.14-1.12-3-1.35-4.63-.53.23-.67,1.24-1.43,1-1.75-2.89-1.91-5.4-3-8.44-1.45,1.22-1.06,1.22-2,2.36-1.3-3.42-3-5.18-4.29-7.45-.38,1.29-.51,2.06-1.2,2.14a19.51,19.51,0,0,0-2.18-8.73,7.47,7.47,0,0,0-1.42,2.72c-1.29-2.35-1.44-4.25-1.82-6.83-1.06.68-1.07.29-1.6,2-.68-.45-.61-1.34-1-2.18-.68-10.41,5.16-30.23-2.74-38.73C139.28,93,136.56,92,133.22,92l0,0a39.8,39.8,0,0,0-6.53.82c-3.34.53-3.82,2.44-4,4.11-1.45-.31-1.43,0-2.72.13a12.2,12.2,0,0,0-3.88,3.72c-5,11.55,6.66,14.11,7.49,17.3-.83,2-2.1,7.76.18,9.12a21.64,21.64,0,0,0-6.62-.27,12.33,12.33,0,0,0-3.32,4.45c-3,7.44,6.38,12,10,15.12-8.88.22-11.18-1.81-14.07,5.56,8.74-4.33,11.48,3.26,17.48,4.78-10.79,6.3-.69,13,.83,14,2.58-6.53,5.61-7.21,9.49-5.31a14,14,0,0,0,2.35,10.64c-3.87,4.48-1.29,7.9,1.37,10.25,1-2.2,1.91-4.16,3.81-3.94.84,1,1.28,5.83.75,7.35-4.86,2-22.24,11-23.91-1.24-3.49,16.63,28.11,2.4,31.45,8.63-2.2,3.19-4.89,3.71-8.61,3.64,3.27,7.13,10.94,7,16.79,5.76A9.25,9.25,0,0,0,158,210c-4.71-2.13-9.56,2.44-10.17,5.33,2.73-1.83,5-1.59,7.58-.45-3.27,1.52-2.8,3.85-5.08,5-4.33.6-6.08-.38-9.12-1.44,1,2.74,4.43,4.49,6.7,4.8-3.49,2.28-7.68,1.6-11.56,1.37.46,1.55,1.36,3.08,5.4,3.19-3.73.81-20.54-2.12-25.5-5.14.15,1.75,2.62,3.49,3.83,4.33-3.26,1.36-8.94-3.76-12-3.84-1.54-.18,5.49,5.53-.6,3-1.7-.7-6.47-4-5.65-2.61,1.29,2.2-3.09,2.26-5.31.3-1.53-5.48-5-12-13.19-14.39-1.23-.42-2.89.81-3.75,2.1-3.38,3.21,6,6.35,4.13,8.39-3,3.22-8.68-6.68-14.34-5.89-1.32-3.58-4.48-4.69-7.73-5.37A7.69,7.69,0,0,0,57,211.26c-.21,1.31-.86,2.93-.54,4.54-1.4.41-1.2.5-2.52,1.92a14.15,14.15,0,0,0-1.4,4.61,8.94,8.94,0,0,0,1.85,5.09c1,2.14.43,5.89,2.06,7.71.32,2.26,6.81,6.25,9.2,4.92,6.28,4.8,8.06,4.81,13.62,5.85,7.16,1.67,12.14,1.33,15,.11,1.8.72.8,1.52-2,5.1-1.84,2.34-7.76,2.48-9.66,4.89,2.46.41,6.75.78,8.72.28,6.42-1.63,6.67-2.81,7.64-3.2,5.23-2.11,5.72-1,7.21-.77,1.29,5.31-1.44,7.1-4.09,8.54,11.46-.46,9.32-5.46,13.12-7.28.61,11.16,21.43,8.09,27.2,8-4.93-2.35-8.14-4.4-3.66-8.89,2.74-1.29,9.58,6.78,17.71,4.89-4.63-2.89-6-7.76.75-8.68,6.46.46,5.58,9.68,2.46,12.72,3.29-1.47,6.94-2.71,7.56-6-1.5-8.9,8.35-10.06,6.32,1.8,5.57-1,0-9.49,7.81-10.71.53,3.19-.62,5-2.67,5.7,1.51,3.34,3.72-2.23,6.15-4,5.11,12.37,12.16,22.7,23.82,29.44a42,42,0,0,1,22.44,27.77c-5.71-3.3-13.21-3.92-20.73-4.51-10.1-1.3-21.69,1-30.13-4.51.46,3.42,3.42,3.89,6.39,4.5-6.84,2.58-12.75,3.56-19.36,1.43a6.15,6.15,0,0,0,6.38,3.11c-10.56,2.66-16,12.08-22.33,16.19-2.8,1.17-10.44-.8-13.47-6.73,2.77,6.1,6.2,9.81,12,13.64.08,3.49-8.18,9.8-12.59,9.87a25.44,25.44,0,0,0,20.88-1.82c1.29,5.09-.46,12.68-5.4,18.91,2-.46,3.21-2,4.5-3.86,1.37,3.42,0,8-2.36,11.61,3.88.3,7.82-2.06,8.65-5.78,3.19,3.64,5.76,12.08-5.33,15-19.44,1.83-25.89,5.63-30.83,14.29-1.14,3.49-.67,7.5,1.31,7.28,1.9,2.5,4.56,5,8.13,5.33.84,2.5,2.57,3,6.21,4,10.1,1.37,10.79-12.23,20.81-11.92,1.45.45-4.84,5.75-4.39,9.1.31.91,6.76,3,10.41,1.52C178,396,176,387.06,181.74,383.49c2.5-.54,4.27-.78,5.18.21-6.91,7.67-1.61,11,.75,14.52-3.19-10.94,13.22-9.19,11.62-20.43,1.14,2.81,2.9,7.13,6.62,6.29-4.33-1.74-2.61-10.08-5.57-13.12-4.71-5.24-16.86-10.65-13.29-15,3.72,3.95,6.63,7.53,11.49,7.15-2.43-3.65,1.07-6.62.39-10-.76-3.79-4.57-4.92-5-9.1,6.08.31,8.88,2.19,6.83,9.25,7.14-2,5.87-8.95,6.85-13.36,1.37,2,3.33,4.78,5.38,6-3.8-7.22.74-11.63,7.43-8.14,0,0-12.22,22.11-11.46,24.92,1.6-1.21,2.73-2.81,4.48-3.72-.69,6.07-3.19,10.27-4.48,15,1.22-.46,1.68-1.76,2.44-2.44.84,5.39-.92,8.82-2.44,13,1.6-.38,2.58-2.52,3.34-3.43,1,4.86-3,9.78-4.94,14,2.43-1.52,2.65-4.4,5-6.53a54.41,54.41,0,0,1-7.8,16c8.36-2.66,14.12-8.74,18.67-14.82,4.87,9.87,16.7,15.49,24.91,24.15,5.19,27.11-32.89,29-33,42.11.61,3.27,1.34,4.56,2.48,5.85.16,2.28.07,3.64.75,5.31a10.25,10.25,0,0,0,3.43,2.84c.53.53,2.29.61,4,.15.61,1.6,1.22,1.92,2.59,2.83,5.62.3,12.05.06,14.71-10.49,7.82.23,7.08-7.52,9.51-11.93,1.67-1.75,4.18-1.6,6.23-4.11,2.43,2.28-3.19,5.39-4.71,8.89.07,2.5,1.66,4,3,3.66a10.79,10.79,0,0,0,5-.62c6.31-5.62,6.92-13,2.59-17.3,4.56-.16,7.3,2.4,7.45,7.34,8.74-5.24,5.47-13.05,4.33-20.49,8.2.38,7.22,6.66,7.06,10.68,4.64-2.88,5.41-6.52,5.64-11.84,8,.23,9-6.07,8.41-10.85-4.78,3.95-11.78,2-12.31-3a3.55,3.55,0,0,0,3.34-2.74c2.13.46,3.67.6,5.57-.77-3.73-.15-6.48-5.82-10.05-7.11-4-1-9.62,1.06-9.4-4.94,1.83-5.47,7.65-1,9,.66,1.82-6.61-3.87-8.11-7.22-9.4-2.43-.61-8.34-1-7.81-3.21,5,.84,8.89-7,9.8-10.45-10.4,6.61-23.32-7.55-17.17-7l11.09-.2-6.71-7.16,7.45-6.16-6.8-2.19c.16-4.93,5.15-8,7.35-13.15,16.71,15,45,9.56,56.2-12.46,2.45-9.55,7.78-13.65-.9-44.2-.28-4.2-3.11-8.49-5.41-12.42-1.9-9.22,2.32-14.92,5.56-18.26,8.77-9,5.33-25.5,4-25.93-1.24,2.18-1.68,10.29-8.48,16.47a23.79,23.79,0,0,0-7.93,15.56q-3.18-4.46-6-8.9c-1.29-8.51,2.71-13.86,5.8-17.05,8.77-9,5.7-22.85,4.35-23.27-1.24,2.18,1.15,7.64-5.65,13.81-3.76,3.41-9.64,8.14-11,15.31l-.73-1.31c-2.89-10.32,1.68-16.57,5.14-20.13,8.77-9,5.69-22.84,4.35-23.27-1.24,2.18,1.15,7.64-5.65,13.81-3.56,3.23-9,7.63-10.73,14.15a88.52,88.52,0,0,1-2.89-11.26,21.32,21.32,0,0,1,5.09-8c8.77-9,5.72-22.82,4.37-23.25-1.24,2.18,1.15,7.62-5.65,13.79-1.57,1.42-3.51,3.07-5.33,5-1.47-26.94,9.08-52.58,38-44.51-7,7.44-4.55,22.92-19,14.94,8.2,13.6,18.8,6,21.84-1.65,15.34,19-12.68,32.57-5.61,12.74-13.67,9.95-2.58,18.53,8.28,17.09-7.52,13.75,1.53,20.8,7.75,23.23-11.69-13.52,10.71-17.08,6.54-32.8,7.67,4.63,13.44,22.25-3.49,17.92,9.19,5,11.53,1,13.81-1.28s13.29-5.93,5.24-22c8.26,1.85,6.39,4.07,9.46,12.28C377.36,185.92,377.37,177.48,374.1,170.61Z"/><path class="cls-5" d="M268.63,188.39c.1-3.9-.53-8-4.18-11.65.31-.45.38-2.58.69-3,1.67.23,9.89,2.37,5.86,11,15-14.35-6.7-16.52-6-24.79,4,4.1,8.12,5.87,12.07,6-7-3.72-6.69-13.16-9.65-19.31,2.2,2,6.47,3.2,8.22-.07-2.81.53-3.81-3.42-4.26-5.24-1.37-2.21-4.86-4.62-7.52-6.6,4.33,1.22,9.18.6,13.81.9-8.66-.3-8.2-11.09-15.95-10.56,3.27-2.65,3-7,2.36-9-2,4.41-5.55,7.38-9.72,7.61,2.5-3.19,5-7.63,2.74-13.86-.91,7.9-5.18,9.35-8.67,10.26,2-4.71,1.67-9.8-1.29-13.3,4.1,12.08-17.55,7.47-27.58,7.77-4.33,1.14-4,3.8-8,5.85-7.52.53-12.15,1.6-17.24,5.24a19.8,19.8,0,0,0,2.87,13,49.68,49.68,0,0,1,13.68-3.94,6.82,6.82,0,0,1,5.4,3.49c0,4.11,1.13,11.57-2.74,14.76a102.9,102.9,0,0,1-17.92-2.29,22.42,22.42,0,0,0-2,9.5c4.63-.23,9.95-.91,14.43.3a13.44,13.44,0,0,1-1.15,5.59l26.86,17.44Z"/><path id="path5967-1" class="cls-4" d="M262.3,458.87c-2.36,5.54-5.62,8.2-10.11,8.43,3-1.82,5.09-4.26,4.56-8.13A10.68,10.68,0,0,0,262.3,458.87Z"/><path id="path5969-7" class="cls-4" d="M235.81,473a11.92,11.92,0,0,1-4.94-.08c-.15,6,8.73,9,13.22,5.32-5.24.07-7.22-1.37-8.28-5.24Z"/><path id="path5971-4" class="cls-4" d="M222.12,470.72a9,9,0,0,0,0,6.76c-4.33-2.06-5.55-4.64-3.8-10.33A17,17,0,0,0,222.12,470.72Z"/><path id="path5973-0" class="cls-4" d="M217.38,461.91c-2.43,1.13-3.95,3.72-4.18,7.51-4-5.39-1.9-8.43,1.9-12.6A8.81,8.81,0,0,0,217.38,461.91Z"/><path id="path5741-9" class="cls-4" d="M53.24,222.33c-3.56.4-7.14-5.4-1.94-10.24a5,5,0,0,0,2.64,5.48,11.91,11.91,0,0,0-.7,4.76Z"/><path id="path5743-4" class="cls-4" d="M57.17,233.79c-5.08,0-10.39-4.18-8.12-9.48a6.89,6.89,0,0,0,5.86,3.76C55.54,230.19,56.44,231.85,57.17,233.79Z"/><path id="path5745-8" class="cls-4" d="M56.64,211.56c-3.06-3.73-.12-7.64,5.19-8.44-1.63,2.44-1.89,4.08-.1,5.72A7.56,7.56,0,0,0,56.64,211.56Z"/><path id="path5749-2" class="cls-6" d="M200.27,151.16l-4.74-1c-.09-2.15,1.24-3.55,2.45-5.49.61,2,.44,4.49,2.29,6.48Z"/><path id="path5751-4" class="cls-6" d="M201.9,137.39l-4.84,1c-.08,2.25,1.27,3.71,2.5,5.73.63-2.08.45-4.69,2.34-6.77Z"/><path id="path5753-5" class="cls-4" d="M140.17,97c6.6-6.23-6.69-10.41-8.51-9.88,2.05,1.75,6.08,3.57,4.63,6.08"/><path id="path5755-5" class="cls-4" d="M131.38,92.63c-1.07-5.92-5.4-6.68-10.79-2.73,4-.31,6.08-.23,6.38,3.57"/><path id="path5757-1" class="cls-4" d="M120.19,97.57c-2.58-3.34-8.12-2.36-11,1,3.34.6,5.16,1.13,7.29,2.81"/><path id="path5759-7" class="cls-4" d="M116.62,127.8c-1.44-1.6-.3-4.79.69-7.14-7.9,2.28-7.22,9.26-4,11.92"/><path id="path7405" class="cls-2" d="M228.08,336.4c-5.83,12-14,27.79-7.47,44.58.78,2-4.81,10-3.6,12.13.46.81,7.87-8.74,8.4-7.89,3.94,6.32,9.81,13.38,18.25,21.43-14.68-20.4-21.19-43.4-15.58-70.25Z"/><path id="path5767-2" class="cls-7" d="M207.69,160.46c6.07,1.89,12.38,4.93,19.06,4.1"/><path id="path5769-7" class="cls-8" d="M220.46,140.9c10.22,1.73.5,13.79-.54,16.41"/><path id="path5775-4" class="cls-7" d="M233,131.9c1.75,6.38-4.87,7.06-7.9,12"/><path id="path5777-2" class="cls-7" d="M201.84,122.25c.38,5.39-4.18,9.34-6.91,11.47"/><path id="path5779-3" class="cls-7" d="M199,129.54a2.93,2.93,0,0,0-4-1.18,3.54,3.54,0,0,0-.51.35"/><path id="path5783-2" class="cls-7" d="M238.3,116.78c-2.05,2.13-4.56,1.75-7,1.52-2.28-.45-4.18-1.29-6.46-1.36-5.39.22-8,3.34-11.92,5"/><path id="path5785-1" class="cls-7" d="M234.88,128.94c3-1.3,5.09-4.11,8.35-4,3.42-.08,5.7,2.2,8.36,3,2.73.46,5.47-.15,8.12.31-1.29,2-2.5,4.25-4.25,4.4-4.33.69-5.77,2.81-8.28,4.18a40.82,40.82,0,0,1-8.12.15"/><path id="path5795-6" class="cls-7" d="M267.61,147.39c-1.82-1.21-3.57-3.72-5-4.86"/><path id="path5797-1" class="cls-7" d="M262.52,142.3c1.6,2.81,3.27,4.79,3.12,8.36-.23,2.2-3.72,4.33-5.09,12.38.23,4.4,2.43,7.82,3.8,11.16"/><path id="path5803-2" class="cls-9" d="M131.66,92.56c3.34,2,8.2,7,5.32,15.64"/><path id="path5805-7" class="cls-9" d="M121.38,97.72c4.71.3,10,2.58,9.87,9.11"/><path id="path5895-3" class="cls-7" d="M211.18,162.13c-2.73,6.53-7.29,11.85-11.24,14.5-4.1,2.66-14.35.31-19.67,1.83-8.51,2.73-11.92,9.11-16.86,14.2-5.93.45-11.7-3.27-17.55-2.51"/><path id="path5899-4" class="cls-7" d="M172.6,174.05c-5,4.79-10.48.84-15.57-.3-5.17-2.13-13.82,2-17.39,2.66"/><path id="path5901-6" class="cls-7" d="M169,185.9h-5.09c-2.35-3.11-4.94-5.85-8.58-6.91-3.65-.53-6.69.83-10.41.15-1.9-.53-3.72-2-5.47-3"/><path id="path5903-0" class="cls-7" d="M153.23,197.37c21.27,7.29,18.68-.38,28.94-4.94,2.88-.83,7.52,2.43,8.58-.23,2.51-6.38,10.48-12.91,12.08-9.19"/><path id="path5909-1" class="cls-7" d="M190.9,192.28c-1.9,5.92-2,10.25-11.92,10.56-7,.53-11.85-.08-19.75,5.54"/><path id="path5911-8" class="cls-7" d="M185.59,214.08c-5.31-1.25-13.88-6.7-20.28-1.52-5.93,2.2-9.27,11.39-17.78,10.63"/><path id="path5913-4" class="cls-7" d="M256.07,189.62c-.31-4.48,6.68-8.51,8.2-13.21"/><path id="path5915-9" class="cls-7" d="M339.08,148.68a20.63,20.63,0,0,0-9.41,5.55"/><path id="path5917-6" class="cls-7" d="M339.69,152c12.68,1,12.08,19.59,31.44,18.38-8.12,11.16-16.48,9-23.31,1.37"/><path id="path5919-3" class="cls-7" d="M364.68,181.34c-5.09.53-10.94-.07-14-4.78,2.51,6.53,7,10.48,10.41,14.66,1.59,1.82,1.82,8.2-.68,11.69"/><path id="path5921-7" class="cls-7" d="M349.87,186.81c-2.28-5.77-10.79-10.48-14-16.48"/><path id="path5923-8" class="cls-7" d="M340.83,176.79c.68,10.4-1.67,15.11-5.24,19.67"/><path id="path5941-4" class="cls-4" d="M165.08,403c-1.37,4.55-5.55,5.31-9.8,5.09,2.36-1.45,5.24-3.42,5.93-5.93A15.56,15.56,0,0,0,165.08,403Z"/><path id="path5943-0" class="cls-4" d="M142.45,403.8c-.46,2.13-1.07,5.4,1.44,7.83-3.42-.92-6.76-3.19-5.62-9.35a8.39,8.39,0,0,0,4.18,1.52Z"/><path id="path5945-7" class="cls-9" d="M145.56,386c-4.25,2.81-8.58,6.23-8.81,13.6"/><path id="path5947-6" class="cls-9" d="M137.43,382.76c-6.68,1.52-9.19,8.59-9,11.4"/><path id="path5949-3" class="cls-4" d="M129.23,395.37c-1.9,4.71-.68,9.57,1.29,10.71-1.37-2.43-.07-5.24,2-7.37A15.12,15.12,0,0,1,129.23,395.37Z"/><path id="path5951-6" class="cls-4" d="M126.8,393.17a9.91,9.91,0,0,0-1,6.3c-2.81-2.81-2.73-7.67.76-11.62a41,41,0,0,0,.23,5.32Z"/><path id="path5953-1" class="cls-9" d="M186.65,373.73c3.19,3.26.76,7.67.23,10"/><path id="path5955-5" class="cls-9" d="M163.79,351.93a11.43,11.43,0,0,1-.38,5.54"/><path id="path5957-4" class="cls-7" d="M207.16,340.08c-1-2.13-.76-3.95.07-6.46"/><path id="path5975-3" class="cls-9" d="M243.16,446c-14.36,9.11-17.47,14-17.4,24.3"/><path id="path7403" class="cls-2" d="M237.45,315.33c-7.16,15.23-15.47,28.62-16.4,53.83,12.43,25,23.77,43.71,32.3,46C218.64,358.56,237.94,344.79,237.45,315.33Z"/><path id="path5981-6" class="cls-7" d="M222.5,390.13c2.12-4.18,12.53-15.19,7.82-30.38"/><path id="path5983-0" class="cls-7" d="M220.22,338c8.73-16.18,8.13-8.58,11.54-23.7"/><path id="path5985-1" class="cls-4" d="M79.18,211.86c-2.59-1.48-4.58-1.23-6.5.45,2.6-9.12,6.9-5.21,10.16-3.13A8.58,8.58,0,0,0,79.18,211.86Z"/><path id="path5987-6" class="cls-9" d="M66.87,230.47c-2.88,2.79-7.78,1.05-12.35-2.78"/><path id="path5989-5" class="cls-9" d="M67.89,223.07c-5.36,1.24-9.84-3.23-11.18-6.57"/><path id="path5991-7" class="cls-7" d="M200.78,208.46h0"/><path id="path5993-5" class="cls-7" d="M185.59,214.08c1.82,13.14-22.11,26.73-22.11,11.31-1.82,13.3,4.49,13.37,10.41,13.52"/><path id="path5999-2" class="cls-7" d="M198.5,229.88c-3,2.73-7.45,18.75-13.29,18.07"/><path id="path6001-0" class="cls-7" d="M237.69,240.2c-8.66,6.46-12.84,5.62-5.85,12.76"/><path id="path6003-0" class="cls-7" d="M231.84,252.89c-4.63,3-7.52.91-8.58-3.65-1.6-5.85-.69-10.1,6.23-16,5.62-4.26,5.46-14.59.83-16.86"/><path id="path6007-4" class="cls-7" d="M237.69,240.2c-4.48,3.19,6.83,10.49,12.83,10.56"/><path id="path6017-7" class="cls-7" d="M258.27,195.47c-1.44,10.71-8.66,12.91-11.24,18.38-3.27,6.15,1.44,23-9.27,26.28"/><path id="path6019-7" class="cls-7" d="M206.09,245.75c4.79-3.8,2.81-19.22,11.62-19.37,2.74-4.25-1.67-16.48,1.9-19.59,1.9-2.51,5.62-6.84,6.31-8.59,3.87-9.95,12.15-7.29,10.78-27.11"/><path id="path6021-7" class="cls-7" d="M218.55,224c6.61-.53,9.8-5.32,14.51-10.63,4.7-3.8.22-9.88,0-13,3-5.24,11.08-4.78,12.83-10-.53-9.49-.83-16.55,0-25.14,6.61-8.27,7.44-16.63,6.53-24.38"/><path id="path6025-3" class="cls-7" d="M198.5,229.88c2,6.22,8.28,5.46,7.67,15.87"/><path id="path6027-3" class="cls-7" d="M173.81,238.91c4.71,2.36,12.08-.38,15.27-8.5,2.58-9.57,15.19-14.13,18.61-19.22,3.49-7.67-2.89-15.11,0-21.42,3.19-4.55,9-2.58,12.38-6.76,1.82-2.35,4.33-7.21,4.1-11.92"/><path id="path6029-5" class="cls-7" d="M256.83,315.47c-.38,13.37-5.55,13.07-9.5,25.75-3.49,10.78-4.63,17.09,0,29.62,1.45,3,6.69,11.32,5.24,17.47h0"/><path id="path6033-9" class="cls-7" d="M281.44,419.3c-5.24-.31-10.79-2-11.78-9.95"/><path id="path6037-8" class="cls-10" d="M218.83,336.43c-1.93-1.77-3.07-3.16-2.81-5.81s1.55-5.85,3.61-7.39c1.32-1,7.08-1.7,7.08-1.7a10.66,10.66,0,0,0,1-7.35c-1.34-6.21-7.46-20-7.46-20,4.76,2,7.84,5.72,10.45,9.89l.93,4.44c-.2,7.35,3.22,12.23-11,29.16Z"/><path id="path6041-8" class="cls-11" d="M214.62,124.53l4-2.39H221a4.67,4.67,0,0,1,3.61,1.84s-1.47,1.93-1.56,2-3.35,1.49-3.44,1.53-2.71,0-2.71,0l-1.36-.85Z"/><path id="path6043-2" class="cls-12" d="M217.61,122.14a3,3,0,0,0-2.89,2.79,2.61,2.61,0,0,0,2.9,2.28l.17,0a3,3,0,0,0,2.89-2.79,2.47,2.47,0,0,0-2.32-2.24"/><path id="path6045-6" class="cls-13" d="M209.83,124.59c6.62,1.52,5.07-6.23,13.6-5l.7,1.13c-2.39-.5-5.51-.92-7.42,1.37-.18.22-1.22,1.13-1.38,1.41a28.65,28.65,0,0,1,3.23-1.49l.38-.09.49-.07a4.71,4.71,0,0,1,.92,0,4.8,4.8,0,0,1,.91.15h0a12.13,12.13,0,0,1,1.92.75l.35.21c.41.29.75.64,1.19.91-.13.65-1,1.7-3.42,3a6.9,6.9,0,0,1-2.09.8H219a3.39,3.39,0,0,1-.9,0,4,4,0,0,1-2.66-1.24,6.06,6.06,0,0,1-1-1.31,11.47,11.47,0,0,1-4.62-.57h0Z"/><path id="path6047-6" class="cls-14" d="M217.3,123.35a1.76,1.76,0,0,0-1.71,1.66,1.55,1.55,0,0,0,1.73,1.35l.09,0a1.77,1.77,0,0,0,1.71-1.66,1.46,1.46,0,0,0-1.37-1.32"/><path id="path6049-0" class="cls-7" d="M234,444.25c-10.34,4.9-12.16,8.56-16,17.14"/><path id="path6051-3" class="cls-15" d="M298.15,270.74c1.36,3.67,3.51,5.7,6.39,8.1"/><path id="path6053-8" class="cls-15" d="M295.84,288.9c3.16.89,5.89,1.38,7.3.65"/><path id="path7401" class="cls-2" d="M184.12,354.84c-10.87-7.15-19.15-16.2-28-25,7.67-16.75,41.46-20.63,59.87-27.24-28.66,12.16-60.32,25.61-31.85,52.26Z"/><path id="path7407" class="cls-2" d="M87.24,236.76c40.05,2.08,72.87-6.69,100-24-2.54,6.24,11.54,17.17-37.57,29.43C103.07,247.49,102.83,239.26,87.24,236.76Z"/><path id="path7409" class="cls-2" d="M191.44,247.3C192.93,210,219.63,219,235,207.17c3.69,34.45,9.05,65,27.41,104.73-5.2-4-12.75-3.83-16.72-8.65C238.86,295,233,283,222.47,277.75,205.61,269.31,201.08,259.29,191.44,247.3Z"/><path id="path7411" class="cls-2" d="M191.44,234.36c1-25.25,19.1-19.18,29.52-27.19,2.49,23.34,6.13,44.05,18.57,71-3.52-2.69-8.64-2.59-11.33-5.86-4.63-5.62-8.61-13.71-15.73-17.28-11.43-5.72-14.5-12.51-21-20.63Z"/><path id="path7413" class="cls-2" d="M113.29,240.48c27.89,1.81,54.73-10,73.62-25-1.77,5.43,4.39,13.83-29.82,24.5C124.64,244.56,124.14,242.66,113.29,240.48Z"/><path id="path7415" class="cls-2" d="M174.64,181.71c-15.4-13.09-24.25-29.86-36.58-46,8.68,18.53,13.36,37.22,30.41,52.6Z"/><path id="path7417" class="cls-2" d="M174.49,181.67c-11.4-9.69-17.81-20.36-26.93-32.33,6.42,13.72,13.38,24.65,26,36Z"/><path id="path7421" class="cls-5" d="M247.26,106.79c1.65,4.87-.89,7-5.16,7.88,1.23,6-9.37,11.59-6.92,14.3.75.84,7.58,2.07,3.49,8.05-.17.26-.16.44,0,.58-2.75,3.43-6.86,6.21-13.66,6.68.48.2-2.22,12.91-7.8,14.78-3.76,1.25-5.78,2.34-9,1.47-.47,16.22-15.88,4.75-23,5.89-4.86,1.06-8.22,5-12.16,7.39,0-1.58-2.41,3.56-3.07,2.1-4.76,2.46-7.32-1-14.23-2.77-4.38-1-10,1.42-15.74,3.09,7.33,8.19,15.09-2.48,21.09,6.14,1.22,1.16,1.38,3,2.31,3,5.08.06,6.52.06,6.1.58-1.82,2.26-5.45,7.59-7,7.26l-16.42-3.51c-4.86,2-22.42,11.15-24.09-1.07-3.49,16.63,28.11,2.4,31.46,8.63-2.21,3.19-4.89,3.71-8.61,3.64,3.26,7.13,10.94,7,16.78,5.75a9.33,9.33,0,0,0-3.49,3.34c-4.7-2.12-9.56,2.45-10.17,5.34,2.74-1.83,5-1.59,7.58-.45-3.26,1.52-2.79,3.85-5.07,5-4.33.6-6.08-.38-9.12-1.44,1,2.74,4.42,4.49,6.7,4.8,2,.64,4.31,0,6.51-1.22,2.6-1.46,13.14-11.89,11.85-9.92,3.85-2.44,15.12,1.24,18,2.74,1.2.64,2,6-2.6,10.58-7.85,7.87-14.66,8.47-17.46-.69-1-3.42-1.52,5.9.27,11.12.94,2.77,1.2,2.64,9.31,4,10.54,3.8,13.41-5.78,16.79-13.62l-5.59,22.18c7.41-1.55,9.69-11.43,13.73-18.44.57,2,5.11,6,6,8,1.77,3.83,1.53,4.67,1.52,8.24,3.6-3,4.36-10.13,5.81-16.25.84-1.84,2.38-3.29,5.5-3.83l1.41-2.27c5.59,1,8.47-4.36,12.25-7.6,1.28,2.75,3.22,4.64,2.68,9.83-.53,2.29-.22,4.23-6.71,9-4,5.42-7.27,11-1.3,19,2.76.8,5,.87,5.46-1.53-1.56-1.48-3.29-2.94-2.61-4.88.77-4.13,4.46-5,7.83-6.53.86,7.52,15.16,11.17,15,9,12.3-8.2,1-18.21,1.11-27.86,5.7,2.66,13,5.7,16.55-2-15.76,2.83-7.1-16.2-11.52-28.15,4,8.26,6.52,11,14.95,9.93-10.33-2.2,1.6-15.81-8.2-25.46.3-.45.38-2.58.68-3,1.68.23,9.9,2.37,5.87,11,15-14.36-6.7-16.52-6-24.79,4,4.1,8.13,5.87,12.08,6-7-3.72-6.69-13.16-9.66-19.32,2.21,2.06,6.48,3.21,8.23-.06-2.81.53-3.81-3.42-4.27-5.25-1.36-2.2-4.85-4.62-7.51-6.59,4.1,1.15,8.65.65,13.06.86-7.37-.82-5.1-9.6-11.63-10l-.81-.15-.13-.05a7,7,0,0,0-1.63-.32h0a8.34,8.34,0,0,0-1,0c3.26-2.65,3-7,2.35-9-2,4.41-5.54,7.38-9.72,7.6,2.51-3.19,5-7.62,2.74-13.85-.91,7.9-5.17,9.35-8.67,10.26,2-4.71,1.68-9.81-1.28-13.3Zm-39,53.74h0l-.49-.13.49.15Z"/><path id="path7449" class="cls-7" d="M267.77,147.44c-1.82-1.21-3.57-3.72-5-4.86"/><path id="path7451" class="cls-7" d="M262.68,142.35c1.59,2.81,3.27,4.79,3.11,8.36-.22,2.2-3.72,4.33-5.09,12.38.23,4.4,2.44,7.82,3.8,11.16"/><path id="path7499" class="cls-7" d="M211.38,162.18c-2.74,6.53-7.3,11.85-11.24,14.5-4.11,2.66-14.36.31-19.68,1.83-8.5,2.73-11.92,9.11-16.86,14.2-5.92.45-11.69-3.27-17.54-2.51"/><path id="path7511" class="cls-7" d="M191.06,192.33c-1.9,5.92-2,10.25-11.93,10.56-7,.53-11.85-.08-19.74,5.54"/><path id="path7573" class="cls-7" d="M200.93,208.51h0"/><path id="path7579" class="cls-7" d="M258.43,195.52c-1.45,10.71-8.66,12.91-11.24,18.38-3.27,6.15,0,24-10.74,27.26"/><path id="path7581" class="cls-7" d="M217.87,226.43c2.73-4.25-1.67-16.48,1.9-19.59,1.9-2.51,5.62-6.84,6.3-8.59,3.87-9.95,12.15-7.29,10.79-27.11"/><path id="path7583" class="cls-7" d="M231.48,216.48c4.71-3.8,2-13,1.73-16.1,3-5.24,11.09-4.78,12.84-10-.54-9.49-.84-16.55,0-25.14,6.6-8.27,7.44-16.63,6.53-24.38"/><path id="path7587" class="cls-7" d="M190.46,226.79c2.23-11.31,14-10.46,17.38-15.55,3.5-7.67-2.88-15.11,0-21.42,3.19-4.55,9-2.58,12.38-6.76,1.83-2.35,4.33-7.21,4.1-11.92"/><path id="path7613" class="cls-16" d="M235,129c3-1.3,5.09-4.11,8.36-4,3.42-.08,5.69,2.2,8.35,3,2.74.46,5.47-.15,8.13.31-1.29,2.05-2.51,4.25-4.25,4.4-4.33.69-5.78,2.81-8.28,4.18a40.91,40.91,0,0,1-8.13.15"/><path id="path7615" class="cls-17" d="M237.38,134.49c.82-1.16-1.39-2.09-.68-2.83,2.88-3,5.39-2.95,12-3.06C244.5,134.66,245.65,134.7,237.38,134.49Z"/><path id="path7617" class="cls-2" d="M167.18,341.59c-1.59-2.48-14.16-8.19-12.32-15.45,9.37-17.44,34.38-17.83,53.84-21.58-9.95,6.26-40.41,11.65-47.35,21.15C157.38,330.59,165.92,335.16,167.18,341.59Z"/><path id="path7619" class="cls-18" d="M168.73,205.86c7.44,3.52,11.84,2.76,18,6.36,1.18.94,1.35,2.75,0,6.85-.76,2.32-4.54,5.75-5.14,8.32,1.25-.31,4.21-1.43,6.86-6.27,1.53-2.79,3.59-5.42,5.74-6.7l10-4.4c.87-3.36,3.21-.25.12-20.92.46-2.17-.42-3.45-.85-5-5.24-1.89-9.81,4.86-14.07,15.66-1.82,5.78-13.34,4.11-20.68,6.12Z"/><path id="path7621" class="cls-18" d="M164.75,193.65c3.88-5,7.23-10.48,15.4-14.19,5.78-.29,7,1.54,15.75-.52,1.82.3,2.53,0,2.08,1.21-3.8,2.37-9.16,5.34-9.35,9.52-2.17-.69-2.74-2-8.3-1.39-6,2.07-7.56,5.39-10.56,8.31a13,13,0,0,1-10.55-2.08C161.78,195,163.11,195.47,164.75,193.65Z"/><path id="path7623" class="cls-18" d="M168.91,178.77q10.89-8.66,16.26-11.08c.15-.57,10.2,2.56,16.09,3.64-3.16.19-6,1.4-8.47.73C185.24,170,174.89,176.13,168.91,178.77Z"/><path id="path7625" class="cls-18" d="M224.8,182.23c-7.37,7.86-11.48,6.1-15.92,8.13,4.53,19.51-.23,23.74-1.56,23.88-14.72,8.93-13.31,12-13.32,15.57,6.15-4.74,10-11.12,17.47-9.86,2.76-12.35,2.82-19,1.91-23.53C219.56,191.15,222.38,187.07,224.8,182.23Z"/><path id="path7627" class="cls-18" d="M219.43,218.91a75.84,75.84,0,0,1,0-10c4-2.59,5.15-7.36,10.38-14.88,4.67-3.26,5.77-8.15,8.14-12.46-1.58,6.18-2.09,12.35-6.23,18.52-.89,2.88-.95,5.09-4,9.69C226.74,212.45,222.91,216,219.43,218.91Z"/><path id="path7629" class="cls-18" d="M235.18,200.4c1.13-2.31,6.21-4.62,10.9-6.93a66.13,66.13,0,0,0-9.17,28.73C236.07,215,234.73,208,235.18,200.4Z"/><path id="path7631" class="cls-18" d="M224.1,246.94l10.56-14.71c3.65-3.23,4.77-13.7,5.54-18.17.81,6,2.56,10.62.34,20.94C234.69,235.66,229.54,242.58,224.1,246.94Z"/><path id="path7633" class="cls-18" d="M246.77,190.53c-.32-8.13-.79-15.84.17-24.83,6.49-6.58,6.8-15.46,6.75-21.19,2.59,11.91-.28,27.65-6.92,46Z"/><path id="path7635" class="cls-2" d="M342,181.28c-.45,6.65,0,10.8-6.86,21.29-2.16,5.31.71,5.61,4.41,10.28-2.64-9.91,2.28-11.16,6.06-14.6l3.43-8.7Z"/><path id="path7637" class="cls-2" d="M368.61,171.69c-13.16,1.61-17.23-10.87-25.23-17.37-2.21,1.56-5.91.75-5.14,7.09,5.67,7.69,8.22,7.93,15.42,13C357.68,177,364.61,174,368.61,171.69Z"/><path id="path7639" class="cls-18" d="M249.68,139.88c1.35,8.75-5.11,18.6-12.72,25.45-.17-5.94,1.7-10.5,3.42-15.17Z"/><path id="path7641" class="cls-18" d="M230.62,163.91c2.65,4.55,1.22,11.42-1.5,16.87-1.39-3.25-1.35-6.19-1.41-9.15Z"/><path id="path7643" class="cls-18" d="M240.66,166.34c3.28,4.13,2.84,11.12.92,16.91-1.84-3-2.21-5.93-2.7-8.86Z"/><path id="path7645" class="cls-18" d="M220.8,161.74c.43,5.32-3.89,11-8.77,14.77.16-3.58,1.48-6.25,2.72-9Z"/><path id="path7647" class="cls-2" d="M304.74,315.57c-9.11-5.29-17.37-11.3-1.47-19.82-3.06,5-7.69,9.49-2.88,17.32C301.1,314.22,303.29,314.51,304.74,315.57Z"/><path id="path7649" class="cls-2" d="M280.68,245.21c3.38,10,12.78,22.53,14.91,24.1a8.25,8.25,0,0,1,2,1.91c1.18,2,3,5.45,5.94,7.73C281.22,266.53,282,255.84,280.68,245.21Z"/><path id="path6031-0" class="cls-7" d="M165.08,334.84c13.44.38,13.67-18,41.16-17.17"/><path id="path18781" class="cls-19" d="M575.72,414.68c-5.24,17.32-11.86,17.32-16.84,0s-6.52-38.62-1-55.94,14.43-17.31,19.92,0S581,397.37,575.72,414.68Z"/><path id="path18783" d="M573.43,423.21q.29-.58.54-1.17l-15-7.6c.15.56.31,1.11.47,1.67Zm2.63-7c.13-.41.26-.83.38-1.24l-19.62-10c.1.54.21,1.07.31,1.61Zm2-7.3c.11-.43.22-.86.32-1.29L555.46,396l.18,1.53Zm1.59-7.53c.08-.44.15-.88.22-1.32l-25-12.69q0,.74.06,1.47Zm1.1-7.77c0-.45.11-.9.15-1.35l-26-13.2c0,.47,0,.94-.05,1.42Zm.62-8c0-.47,0-1,0-1.42l-25.9-13.12c0,.46-.1.91-.14,1.37Zm0-8.32-.06-1.47-24.52-12.42c0,.15-.09.31-.12.45-.06.29-.11.57-.17.85Zm-.71-8.68c-.08-.52-.17-1-.26-1.57l-21.63-11c-.13.41-.26.83-.38,1.25Z"/><path id="path18787" class="cls-20" d="M576.6,357.25H558.94L561.5,169.3l7.3-73,5.24,73Z"/><path id="path18789" class="cls-21" d="M568.63,355.56,568,176.77l-1.92,178.79Z"/><path id="path15830" class="cls-22" d="M556.41,368.39c-4.93.44-7.47.75-13.15,4.55,0,3-1.22,6,2.77,9-8.65-.78-8.47,6.81-2.6,10.69-5.07-1.1-5.23,9.29,4.58,14-2.89-1-3,6.57,1.53,8.58,3.16,1,5.16,1.89,8.1,2.53,16.07.73,6.79-8.34-1.65-9,17,5.38,17.53-6.25,3.22-9.55,16.48,3.4,13.1-11.28,2.48-11.74,12.62,2,7.32-8.85-1.73-10.34L555,374.53Z"/><path id="path22348" class="cls-23" d="M545.76,381.74a19.84,19.84,0,0,0,4.76,3.53,20.92,20.92,0,0,0,11.41,2.27"/><path id="path22350" class="cls-23" d="M543.43,392.65a32.42,32.42,0,0,0,15.78,6.61"/><path id="path22352" class="cls-23" d="M547.74,406.56a26,26,0,0,0,3.55,1.36,24.42,24.42,0,0,0,4.7.89"/><circle class="cls-19" cx="549.13" cy="360.22" r="13.15"/><path class="cls-24" d="M538.8,351.72h20.67"/><circle class="cls-19" cx="591" cy="359.69" r="13.15"/><path class="cls-24" d="M580.66,351.19h20.67"/><circle class="cls-19" cx="570.06" cy="359.69" r="13.15"/><line class="cls-24" x1="563.36" y1="347.9" x2="576.76" y2="371.48"/><line class="cls-24" x1="576.76" y1="347.9" x2="563.36" y2="371.48"/><path id="path16951" class="cls-22" d="M550.84,367.86c-6,0-7.3,10.59,3.68,10.94,3.65.69,7.05.73,10.57-.94,1.73,2.75,5.39,3.87,9.32,4a32.22,32.22,0,0,1,2.49,6.56,35.78,35.78,0,0,1,.88,11.69,73.45,73.45,0,0,1-5,21.38c3.89-1.63,8.1-3.23,12.61-4.75s8.93-2.82,13.06-3.9a119.93,119.93,0,0,0,45.3,7.17,117.39,117.39,0,0,0,17.32-2q3.1-22.37,6.22-44.73c-22.31.54-51.81,8.83-66.11,6.3-17.12-11.33-17.32-14.12-23.62-14.41-7,.58-10.37-1.2-15-1.8C560.09,364.05,555.83,368,550.84,367.86Z"/><path id="path6716" class="cls-25" d="M671.29,85.07c11.23,33.1,7.73,60.79-4.35,79.23,11.42-12.49,8.61-36.71,15.84-45.76,4.83,45.43.7,43.87-9.08,69,11.29-20.9,13.35-37.31,20.41-47.9,6.67,48.13-9.3,59.5-27.06,88.18,11.16-9.51,22.69-39.79,30.67-45.22,4.76,30.89-10.37,44.12-21.53,54.56,9.1-8.43,23.7-19.93,36-54.21,8.4,49.8-18.52,59.47-40.43,89.74,5.77-3.84,52.67-68.21,42.44-44.43-6.91,14.63-9.19,24.53-27.5,41,14-7.91,26-29.29,35.49-38.42-7.68,36.77-5.9,41.67-33.23,62.91,15.63-8.43,24.2-13.2,41.27-31.75-8.71,35.74-12,38.68-32.52,48.15,16.65,3.33,15-.51,39.36-10.15-11.72,31.63-16.66,30.06-40.18,35.5,21.26,5.27,26.58.36,42.73-7.26-7.88,31.19-25.58,35.83-49.94,25.63,17.94,16.36,30.43,10.08,46.8,1.9.06,19.82-4.85,27-24.32,29.31-14.27-.36-12.7-.68-30.07-11.3,6.78,19.29,33.88,19.81,54.63,15.1,1.31,5.71-3.6,9-8.63,15.88-17.37,9.49-31.66-2.21-48.84-12.38,16.88,19.66,19.49,25.08,52.94,30.33-34.33,17.56-44,8.6-64.22-15.91,8.55,15,14.59,32.43,60.24,41-34,20-53.83,11.29-65.88-11.68,8,16.51,4.14,14.17,32,44.41-20,6.93-60.85-13.72-64.86-46.5-3.42-9.36-5.19,4.23-4.45,11s-3.4,14.22-9,16.8-13.24-6.29-18.17-12.09c-2.58-7.15-9.24-26-5.24-31.79s10.14-2.43,19.45-14.68,8.32-30.88,10.49-53.72c2.38-6.37,8-11.65,11.09-19.58,7.27-28.12-16.66-37-37.8-61.6-8.05-17.54-.2-38.68,14.59-41.65,18.93-9.13,39.65-62.75,45.18-82.81C664,126.24,667.36,119.67,671.29,85.07Z"/><path id="path6722" class="cls-25" d="M673.7,187.54c-9,38.14-18,43.53-40.17,70.44,7.15,4.46,34.93-2.46,35.4,8.2s-21.57,10-22.45,16.95c3.89-.58,23.36-.69,26.14,6S657,293.8,654.4,300.65c3.39,1.5,18,10.25,19.59,13.91l1.14-.65c-2.08,7.16-9.42,9.75-19.26,7.29,5,5.05,18.31,18.58,18,25.4-8.64,2.1-12.54,6.78-19.36.77-6.67-2.93,15,15.83,11.34,35.54-17-8-16.25.74-22.45-9.11,6.67,43.71,10.12,28.58,7,42.26-17.21-9.77-21.62-3.11-23.92-10.61"/><path id="path9229" class="cls-26" d="M648.19,424c12.93,24.93,28,39.71,28,39.71"/><path id="path9231" class="cls-26" d="M660.17,406.11c4.67,11.5,9.94,21,24.84,31.51"/></svg>