<?xml version="1.0" encoding="UTF-8"?>
<!DOCTYPE svg PUBLIC "-//W3C//DTD SVG 1.1//EN" "http://www.w3.org/Graphics/SVG/1.1/DTD/svg11.dtd">
<!-- Creator: CorelDRAW -->
<svg xmlns="http://www.w3.org/2000/svg" xml:space="preserve" width="1772px" height="1063px" style="shape-rendering:geometricPrecision; text-rendering:geometricPrecision; image-rendering:optimizeQuality; fill-rule:evenodd; clip-rule:evenodd"
viewBox="0 0 1398.95 839.368"
 xmlns:xlink="http://www.w3.org/1999/xlink">
 <defs>
  <style type="text/css">
   <![CDATA[
    .fil1 {fill:#03488D}
    .fil0 {fill:#F7DD09}
   ]]>
  </style>
 </defs>
 <g id="Capa_x0020_1">
  <metadata id="CorelCorpID_0Corel-Layer"/>
  <polygon class="fil0" points="0,839.368 1398.95,419.684 0,0 "/>
  <polygon class="fil1" points="0,46.6325 0,792.739 1243.51,419.685 "/>
  <path class="fil0" d="M228.113 216.774c1.42226,-4.66689 5.74035,-6.96583 10.4082,-5.54356 4.59508,1.40081 5.56035,3.21105 4.16047,7.80426l-1.21522 3.987c-1.40081,4.59414 -3.21105,5.55848 -7.80613,4.15767 -4.66782,-1.4232 -6.96956,-5.73941 -5.54729,-10.4054zm-19.4137 -36.4202c-1.43998,4.72285 -26.1585,26.9885 -31.1825,29.2399 -11.0172,4.93735 -31.3084,6.56852 -43.6658,8.9542l-3.98887 -1.21615c-9.51191,-2.89862 -31.9007,-2.60204 -34.776,6.83246l-0.608076 1.99303 -1.21522 3.987c3.59996,3.57851 8.31628,11.2503 11.5301,12.2296l3.98887 1.21615c6.54055,1.99303 27.176,-9.14818 52.7245,-1.36164l13.9606 4.25467c0.853358,0.260204 18.6321,16.9002 22.5986,19.6944 17.4766,12.3098 11.0442,5.81029 30.9839,11.8873 8.57835,2.6151 11.5189,0.970869 18.7916,1.17885l13.8188 -15.2066 -3.64566 11.9619 -1.21522 3.987c-8.19876,8.24446 -34.4561,20.0842 -35.648,23.9966l-0.608076 1.99303c-7.65691,25.1242 -38.0253,24.6467 -41.2876,35.3495l-4.86088 15.9499c-0.901855,2.95924 -6.98728,7.4825 -9.62849,10.1377l-1.21522 3.987 -2.43044 7.97493c-0.901855,2.96017 1.62651,10.1079 2.33717,13.7852l-1.21522 3.987 -7.29038 23.9229 -1.21522 3.98793c1.82516,9.4401 6.08076,13.6854 7.90312,24.1803 1.63677,9.43357 -0.924238,20.2111 0.965274,27.8764 4.22202,17.1231 17.9289,23.0621 18.4754,48.6097 0.493362,23.0276 12.2473,23.8875 16.3444,49.7456 1.19657,7.55338 11.9526,12.4264 16.2035,19.7597 3.52721,6.08729 7.01805,20.1663 14.37,22.4065l9.9717 3.03945c15.5106,4.72751 23.2141,22.3272 29.6502,24.2885l1.99397 0.607143c6.36894,1.94174 8.63244,-6.08356 24.3687,-1.28796l15.9545 4.86274 3.98887 1.21522c9.54642,-9.59864 24.2148,-15.2038 39.2004,-14.1984l2.43044 -7.974c4.0728,-1.31128 4.0756,0.929834 5.81123,-4.76481 2.96111,-9.71429 11.6532,-15.2448 17.263,-20.8854l1.21522 -3.987 3.03758 -9.96797c1.51832,-4.98119 8.60353,-6.77277 9.62849,-10.1377 3.20359,-10.5108 -1.87086,-22.4671 2.96017,-38.3172l1.21522 -3.987c0.607143,-1.99303 -3.74918,-18.842 -4.53445,-20.9646 -2.33717,-6.32044 -9.93532,-10.5397 -14.8801,-15.4546l-3.98887 -1.21615 -7.97773 -2.43137 -3.98793 -1.21522c-13.6593,2.63655 -18.813,5.38128 -28.6215,15.2439l-1.21522 3.987 -0.607143 1.99303c-1.83728,6.0276 0.666832,6.22811 6.15444,8.41234 3.44514,-4.59601 13.7227,-11.0694 20.2073,-9.09223l7.97773 2.43044 3.98887 1.21615c5.60512,5.57154 10.244,9.29461 7.10479,19.5955l-3.03758 9.96797 -4.3358 -1.28703 -6.77277 30.5838c-1.39895,6.8166 -4.88046,1.70858 -7.02645,8.75275l-3.03851 9.96797c-2.83147,9.28994 -13.9223,7.52074 -21.1446,13.6024 -4.91497,4.13995 -16.0068,12.114 -23.0882,9.95584l-25.9262 -7.90125c-10.4707,-3.19147 -10.2105,-25.5243 -15.3949,-33.5514 -8.82922,-13.6696 -16.433,-12.2007 -8.8656,-37.0283l0.607143 -1.99303 1.65915 -4.12969 -5.55382 -18.8457 1.21522 -3.987 7.89846 -25.9169c1.53791,-5.04647 -4.64637,-13.3618 -2.50971,-20.3743 2.9294,-9.6117 10.3037,-12.3508 13.8822,-24.0936l4.2528 -13.955c4.74243,-15.56 15.3782,-21.8516 16.4843,-25.4795l0.608076 -1.99397 1.21522 -3.987c-1.28796,-6.65899 -2.58805,-12.9626 0.0923305,-21.7592l1.21522 -3.987 1.21522 -3.98793c2.29987,-2.31293 9.23025,-8.83109 10.2366,-12.1317 3.78928,-12.4329 -4.0299,-15.3847 0.528802,-30.3422l2.43044 -7.974 1.14714 -4.05322 9.69657 -10.0724 1.21522 -3.987c1.53884,-5.05113 -6.45568,-15.8706 -9.14072,-21.8516 -5.39994,-12.0254 -5.1444,-8.58487 -7.84343,-22.5426l1.21522 -3.987 1.30195 -4.00099 -3.20359 -18.3672 -3.98793 -1.21522c-23.1852,-7.06562 -18.6135,-36.1758 -23.4035,-37.6354 -2.44349,-0.745173 -19.3437,3.18773 -22.981,3.89001l-3.98887 -1.21615 -11.9657 -3.64659c-5.23859,-1.59667 -10.5546,-14.1107 -20.8947,-17.2621l-5.98283 -1.82329c-3.17841,7.98333 -3.35188,3.84524 -5.63962,11.3539z"/>
 </g>
</svg>
