<?xml version="1.0" encoding="utf-8"?>
<!-- Generator: Adobe Illustrator 13.0.1, SVG Export Plug-In  -->
<!DOCTYPE svg PUBLIC "-//W3C//DTD SVG 1.1//EN" "http://www.w3.org/Graphics/SVG/1.1/DTD/svg11.dtd" [
	<!ENTITY ns_flows "http://ns.adobe.com/Flows/1.0/">
]>
<svg version="1.1"
	 xmlns="http://www.w3.org/2000/svg" xmlns:xlink="http://www.w3.org/1999/xlink" xmlns:a="http://ns.adobe.com/AdobeSVGViewerExtensions/3.0/"
	 x="0px" y="0px" width="531px" height="400px" viewBox="0 0 531 400" enable-background="new 0 0 531 400" xml:space="preserve">
<defs>
</defs>
<rect x="20" y="20" fill="#00AEEF" width="491" height="360.001"/>
<path fill="#ED1C24" d="M0,0v400h531V0H0z M511,380.001H20V20h491V380.001z"/>
<path fill="#ED1C24" d="M319.356,305.755c0.003-0.004,0.011-0.006,0.012-0.011l20.433-163.644c2.597-1.034,4.799-4.207,5.396-8.223
	c0.631-4.244-0.723-8.117-3.147-9.723l7.191-14.986L345.769,84.2l-10.579,22.303l1.958,17.491c-2.351,1.24-4.289,4.239-4.844,7.965
	c-0.504,3.386,0.261,6.528,1.819,8.479l-0.001,0.007l-27.791,158.492c0,0.001,0.001,0.004,0.001,0.005
	c-5.445-2.26-11.176-3.97-17.129-5.045v-127.93h40.037v-30.028h-40.037V84.01h-30.028v51.93h-40.038v30.028h40.038v127.929
	c-37.129,6.708-65.757,37.82-68.682,76.138c15.953-25.928,47.446-43.575,83.696-43.575c36.249,0,67.742,17.647,83.695,43.574
	C355.821,343.005,340.96,319.576,319.356,305.755z"/>
<path fill="#ED1C24" d="M251.263,64.618l-7.499-8.607v-3.833h-3.499v-4.999h-4.333c0,0,1.2-10.664,0-10.664
	c-1.827,0-9.556,24.662-24.995,15.663c-7.533-4.391,1.241-18.421,0.454-19.208s-16.071,4.387-13.784,19.208
	c2.313,14.997-1.349,15.296-9.759,18.902c-3.885,1.666-4.224,9.002-4.224,9.002l3.319-0.866l-2.333,3.29
	c0,0,9.831,0.833,12.997-2.333s9.498-2.333,9.498,3.166s2.503,15.094,8.914,14.413c14.915-1.583,14.058-11.648,20.223-14.148
	s-4.317-2.217-10.327,0.956c-4.584,2.421,4.718-3.026-3.647-4.721c-3.186-0.646,7.169-6.496,7.999-13.33
	C230.521,64.424,251.263,64.618,251.263,64.618z M190.264,76.04c-0.692,0.367-1.446,0.3-1.684-0.149
	c-0.238-0.449,0.13-1.11,0.822-1.477c0.692-0.367,1.445-0.3,1.683,0.149C191.323,75.013,190.955,75.674,190.264,76.04z"/>
<path fill="#ED1C24" d="M222.659,252.556c-1.599-7.312-3.146-14.632-4.646-21.959l27.226-8.385c1.027-0.219,1.683-1.228,1.465-2.254
	l-0.865-4.091c-0.218-1.027-1.227-1.683-2.253-1.467l-28.351,2.409c-5.068-25.558-9.771-51.176-14.785-76.75
	c-0.976-4.976,10.345-25.121,34.586-0.88c-2.648,1.917-8.584,4.156-13.244,5.91c11.747,2.723,23.164,8.339,34.609,13.713
	c-1.665-6.381-4.647-27.346-5.761-37.048c-2.619,3.884-2.624,7.805-6.032,8.725c-27.436-24.827-49.131-8.034-59.318-28.501
	l-0.22,0.047c-1.553,22.058-33.18,23.758-43.035,50.37c-0.63,1.702-5.485-3.527-9.209-7.538c4.472,15.992,5.854,27.084,8.442,38.03
	c5.188-7.314,19.472-23.333,25.238-30.318c-9.768,2.79-15.091,5.056-14.521,4.056c15.624-27.411,33.783-21.703,35.56-14.197
	c4.124,17.429,10.812,47.205,17.289,76.571l-26.99,9.315c-1.026,0.219-1.683,1.227-1.466,2.254l0.866,4.091
	c0.217,1.026,1.226,1.683,2.252,1.466l28.362-3.371c1.645,7.5,3.245,14.835,4.754,21.789c-10.085,4.733-15.816,17.071-13.119,29.818
	c3.089,14.592,16.055,24.221,28.944,21.49c12.889-2.726,20.844-16.782,17.754-31.376
	C243.538,261.936,233.585,253.068,222.659,252.556z M226.104,294.832c-7.518,1.59-15.09-4.017-16.892-12.53
	c-1.479-6.991,1.397-13.773,6.638-16.856c1.225,1.635,2.837,2.531,4.377,2.206c1.386-0.294,2.597-1.85,3.283-3.845
	c6.063,0.668,11.463,5.715,12.946,12.731C238.258,285.049,233.623,293.238,226.104,294.832z"/>
<path fill="#ED1C24" d="M245.312,254.261c-3.743-31.3-46.843-43.843-48.558-52.392c-3.255-16.228,23.308-12.319,23.308-42.21
	c0-17.704-25.49-30.812-34.75-34.295c-7.555-2.842-8.677-16.461-8.677-16.461c-1.301-6.512,4.26-14.901,4.26-16.901
	s-0.75-5.75-1.125-4.041s-4,3.999-2.625,2.624s-0.333-10.916-1.167-7.166s-2.917,6.999-2.917,6.999c-2.25,2.25-7.832,4.75-10,10
	s2.168,11.283,2.168,11.283s1.505,8.622,3.429,16.461c9.26,37.725,41.497,16.805,38.753,34.295s-23.043,23.294-21.606,39.782
	c1.715,19.679,49.337,21.179,49.337,54.819c0,13.109-6.768,12.602-16.082,14.456c-9.362,1.864-21.542,29.849-21.938,35.666
	c-0.544,8.019-16.788,13.735-15.433,15.09s20.92-2.744,20.92-15.09c0-5.83,6.069-23.234,20.577-26.064
	S246.612,265.138,245.312,254.261z M170.731,98.515c-0.297,0.775-0.96,1.135-1.48,0.806c-0.52-0.331-0.701-1.227-0.403-2
	c0.297-0.776,0.96-1.136,1.48-0.806S171.028,97.74,170.731,98.515z"/>
<path fill="#ED1C24" d="M67.157,261.802l0.118,8.189l10.919-0.158l-0.133-9.253l6.84-0.099l0.232,16.219l-40.438,0.586
	l-0.224-15.581l6.84-0.099l0.124,8.614l9.299-0.135l-0.117-8.189L67.157,261.802z"/>
<path fill="#ED1C24" d="M86.295,242.383l-19.262,1.163c-4.057,0.225-8.292,0.434-12.579,0.531l-0.009,0.106
	c4.265,0.808,8.402,1.712,12.479,2.61l18.577,4.489l-0.639,7.152l-39.589-11.387l0.7-7.841l40.965-4.03L86.295,242.383z"/>
<path fill="#ED1C24" d="M73.1,213.446l-1.56,8.041l10.719,2.077l1.763-9.086l6.714,1.302l-3.09,15.926l-39.698-7.693l2.969-15.299
	l6.714,1.301l-1.641,8.459l9.129,1.77l1.56-8.041L73.1,213.446z"/>
<path fill="#ED1C24" d="M52.344,200.861c0.249-0.814,1.903-3.145,4.315-4.464c3.886-2.037,9.725-2.252,16.103-0.744l0.093-0.306
	c-5.696-2.3-9.778-5.774-12.03-9.078c-1.677-2.516-2.198-5.734-2.084-6.312l7.29,0.786c0.56,4.731,7.142,10.084,14.32,13.283
	c2.488,1.095,4.491,1.931,6.671,2.598l8.491,2.6l-2.039,6.662l-8.491-2.599c-2.467-0.756-4.162-1.163-6.733-1.783
	c-8.234-1.798-16.513-1.606-19.64,2.665L52.344,200.861z"/>
<path fill="#ED1C24" d="M103.461,179.698c-3.292,7.501-13.54,6.663-23.706,2.203c-10.11-4.436-17.243-11.922-14.015-19.276
	c3.506-7.988,14.389-6.06,22.851-2.347c13.957,6.124,17.628,13.137,14.892,19.371L103.461,179.698z M97.414,176.754
	c1.261-2.873-3.721-6.453-11.358-9.805c-6.649-2.917-12.943-4.4-14.269-1.381c-1.304,2.971,3.965,6.793,10.778,9.782
	c7.473,3.279,13.523,4.424,14.827,1.452L97.414,176.754z M82.118,166.964l6.704,2.941l-2.394,5.455l-6.704-2.941L82.118,166.964z"/>
<path fill="#ED1C24" d="M102.291,142.809l-4.129,7.075l9.431,5.505l4.665-7.994l5.907,3.447l-8.177,14.013l-34.926-20.384
	l7.855-13.461l5.907,3.447l-4.343,7.443l8.032,4.688l4.128-7.075L102.291,142.809z"/>
<path fill="#ED1C24" d="M88.883,122.99c0.795-1.863,2.149-4.172,3.743-6.302c2.486-3.321,4.959-5.524,8.331-5.924
	c2.956-0.445,6.22,0.801,8.958,2.851c3.506,2.624,5.255,5.395,5.964,8.251c0.775,3.37-0.432,6.985-2.153,9.285
	c-0.318,0.426-0.574,0.767-0.829,1.107l12.057,9.023l-4.176,5.579L88.883,122.99z M107.757,128.412
	c0.287-0.184,0.51-0.481,0.766-0.822c2.104-2.811,0.802-5.778-2.224-8.043c-2.834-2.121-5.809-2.753-7.753-0.155
	c-0.382,0.512-0.669,1.095-0.78,1.543L107.757,128.412z"/>
<path fill="#ED1C24" d="M110.641,95.33l29.845,27.285l-4.701,5.143l-29.845-27.284L110.641,95.33z"/>
<path fill="#ED1C24" d="M142.799,107.35l4.961,7.957l-5.041,4.498l-21.13-35.346l6.231-5.56l32.124,25.535l-5.04,4.497l-7.303-5.867
	L142.799,107.35z M143.05,98.923l-6.506-5.533c-1.916-1.588-4.949-4.269-6.985-6.07l-0.119,0.106c1.52,2.262,3.919,5.75,5.199,7.744
	l4.601,7.153L143.05,98.923z"/>
<path fill="#ED1C24" d="M391.723,78.695l-10.729,12.137l5.461,4.825l10.728-12.138l5.222,4.613l-26.781,30.299l-5.221-4.614
	l11.205-12.676l-5.461-4.825l-11.204,12.677l-5.222-4.613l26.78-30.298L391.723,78.695z"/>
<path fill="#ED1C24" d="M391.192,137.235c-5.017-6.476,0.616-15.078,9.393-21.875c8.729-6.761,18.715-9.449,23.634-3.1
	c5.343,6.897-1.552,15.535-8.857,21.193c-12.05,9.333-19.966,9.206-24.136,3.823L391.192,137.235z M396.669,133.33
	c1.922,2.481,7.448-0.184,14.042-5.291c5.74-4.445,10.052-9.266,8.032-11.873c-1.987-2.565-7.863,0.236-13.745,4.792
	c-6.452,4.997-10.349,9.766-8.361,12.33L396.669,133.33z M412.58,124.573l-5.788,4.482l-3.648-4.71l5.788-4.482L412.58,124.573z"/>
<path fill="#ED1C24" d="M411.537,149.525l-8.759,3.345l-3.448-5.808l38.735-13.965l4.262,7.18l-31.216,26.632l-3.447-5.808
	l7.157-6.043L411.537,149.525z M419.758,151.387l6.678-5.324c1.925-1.576,5.137-4.039,7.296-5.691l-0.082-0.138
	c-2.511,1.059-6.394,2.745-8.596,3.619l-7.901,3.144L419.758,151.387z"/>
<path fill="#ED1C24" d="M412.868,170.463l37.106-16.085l2.539,5.856l-12.333,11.375c-2.439,2.217-6.476,5.88-9.321,8.215
	l0.042,0.098c3.824-1.89,10.075-5.121,16.901-8.08l8.203-3.557l2.434,5.612l-37.105,16.085l-2.54-5.856l11.914-11.135
	c2.672-2.435,6.696-5.976,9.736-8.163l-0.042-0.098c-3.681,1.77-9.3,4.495-16.787,7.741l-8.313,3.604L412.868,170.463z"/>
<path fill="#ED1C24" d="M433.764,198.517l-9.313,1.088l-1.913-6.479l40.981-4.01l2.365,8.009l-36.811,18.14l-1.912-6.479
	l8.425-4.098L433.764,198.517z M441.274,202.343l7.781-3.519c2.254-1.055,5.974-2.652,8.473-3.724l-0.045-0.152
	c-2.695,0.407-6.873,1.087-9.223,1.394l-8.433,1.104L441.274,202.343z"/>
<path fill="#ED1C24" d="M462.508,213.961l-1.224-6.21l7.123-1.403l3.805,19.309l-7.123,1.403l-1.233-6.262l-32.555,6.413
	l-1.347-6.837L462.508,213.961z"/>
<path fill="#ED1C24" d="M433.354,246.014c-0.749-8.104,8.635-12.176,19.687-13.198c10.991-1.016,20.848,1.972,21.577,9.863
	c0.799,8.634-9.669,12.059-18.869,12.909c-15.174,1.403-21.768-2.795-22.39-9.521L433.354,246.014z M440.188,245.648
	c0.27,2.913,6.346,3.474,14.53,2.717c7.049-0.652,13.353-2.196,13.063-5.321c-0.283-3.072-6.729-3.704-14.017-3.03
	c-8.01,0.687-13.866,2.511-13.582,5.582L440.188,245.648z"/>
<path fill="#ED1C24" d="M441.647,267.627l-0.176,12.231l-6.84-0.1l0.288-20.101l4.8,0.069l15.49,7.884l15.227-7.279l4.92,0.071
	l-0.274,19.091l-6.84-0.099l0.153-10.688l-0.18-0.003l-12.687,5.879l-13.702-6.953L441.647,267.627z"/>
</svg>
