<?xml version="1.0" encoding="UTF-8"?>
<svg width="550" height="550" version="1.1" viewBox="0 0 550 550" xmlns="http://www.w3.org/2000/svg">
 <path d="M.939234.939233h548.121519v548.121553H.939234z" fill="#fbfcfa" stroke="#595959" stroke-opacity=".79798" stroke-width="1.75"/>
 <path d="m25.00391 25v200h199.998v-200zm299.9961 0v200h200v-200zm-299.9961 300v200h199.998v-200zm299.9961 0v200h200v-200z" fill="#64859d"/>
 <g fill="#db0035" stroke="#a50d0d" stroke-opacity=".7960784">
  <path d="m454.5703 406.0254-16.32226 45.5957 6.0664-1.24218 6.38086-19.83399h12.91211l6.38281 19.83399 5.70508 0.49804-15.45898-42.61523zm2.54102 6.99023 4.78515 12.67579h-9.54296z"/>
  <path d="m421.0488 404.6348-5.22071 2.23437-9.10546 42.52344 4.75976 1.56054 7.91992-34.9082 15.44141 35.5 4.37109-2.74609z"/>
  <path d="m507.4551 403.2031-27.79688 1.19532-0.59765 6.36914 12.20703 14.24023-15.68946 21.73828 0.59766 5.25782 35.82227-1.24024-0.1211-5.4082-30.21289 1.04687 13.64649-17.36914 0.0215-7.98828-10.91601-11.43945 23.1875-0.99609z"/>
  <path d="m337.9902 398.002v52.73243h36.5293v-0.80469l3.12305 1.02343 7.91992-34.9082 15.44141 35.5 4.37109-2.74609-18.16602-44.16406-5.2207 2.23437-8.17383 38.16992-29.24218 0.52539v-19.13086l28.71679 0.80469v-5.70703l-28.71679-0.80469v-16.56054l29.67773 1.07421v-5.625z"/>
  <path d="m178.8398 447.2852 0.37696 5.8164h26.38867v-4.67968z"/>
  <path d="m194.1758 400.707c-0.32715-4e-3 -0.65342-2e-3 -0.98047 4e-3 -6.77032-0.17056-13.84487 3.82027-16.34179 10.61914-2.82713 7.6037-2.76167 16.32283-0.15821 23.95312 2.17415 6.33866 8.631 10.00439 14.92383 9.94727 6.75428 0.58309 14.20014-2.28647 17.37695-8.83985 3.51721-7.24045 3.61379-15.66136 1.77735-23.36132-1.4452-6.58219-7.17392-11.62684-13.66016-12.12305-0.97419-0.12585-1.95604-0.1871-2.9375-0.19922zm0.26953 3.33789c4.87804 0.10385 9.6296 3.12437 11.34766 7.97852 2.3368 6.73208 2.37075 14.43015 0.10547 21.1875-1.87596 5.58326-7.54356 9.09877-13.16406 8.61523-5.1983 0.22101-10.35999-3.07946-11.98438-8.29883-2.05422-6.58128-2.16478-13.98311-0.0312-20.55859 1.89182-5.53824 7.06834-9.17158 12.75-8.9043 0.32545-0.0193 0.65136-0.0265 0.97656-0.0195z"/>
  <path d="m89.99219 400.8789v48.28515h5.246093v-22.99414h24.70703v22.99414h5.24414v-48.28515h-5.24414v21.28711h-24.70703v-21.28711z"/>
  <path d="m131.8398 400.166v5.76367h16.93555v44.85937h6.48633v-44.85937h16.93555v-5.76367z"/>
  <path d="m39.98438 396.9551-0.496094 4.65234 37.32031 4.01563-38.73633 38.22656 0.662109 5.4668h41.71484v-4.67969h-36.52539l37.77539-37.27734-1.076172-6.03321z"/>
  <g transform="translate(-3.8916)">
   <path d="m341.1953 249.6484-22.82226 20.81445c-0.42062-6.6479 0.12343-12.36522-1.28125-19.33984l-6.24805 1.19531c3.75494 18.64427 3.02892 35.58284 2.55273 54.70898l6.33399-0.22656 0.38672-20.05859 22.76562 20.76172 2.91407-5.56446-25.71485-23.45117-0.0547 0.0606-0.0488-1.45117 25.46484-23.22266z"/>
   <path d="m417.207 239.4531-20.7832 65.42383 7.72265-1.7832 8.125-28.46094h16.44141l8.125 28.46094 7.26367 0.71289-19.68359-61.14453zm3.23438 10.02735 6.09179 18.19336h-12.15039z"/>
   <path d="m229.2617 243.0644c-0.46971-6e-3 -0.93878-4e-3 -1.4082 6e-3 -9.71751-0.2588-19.87319 5.79649-23.45704 16.11328-4.05781 11.53807-3.96139 24.76729-0.2246 36.34571 3.12056 9.61847 12.38777 15.18237 21.41992 15.0957 9.69449 0.8848 20.37779-3.46979 24.9375-13.41406 5.04829-10.98688 5.18858-23.76507 2.55273-35.44922-2.07432-9.988-10.29376-17.64158-19.60351-18.39453-1.39827-0.19098-2.80768-0.2842-4.2168-0.30274zm0.38476 5.06446c7.00149 0.1576 13.82313 4.74159 16.28907 12.10742 3.35405 10.21545 3.40177 21.89659 0.15039 32.15039-2.69256 8.47219-10.82932 13.806-18.89649 13.07226-7.46116 0.33536-14.86773-4.67179-17.19922-12.59179-2.94845-9.98664-3.10719-21.2175-0.0449-31.19531 2.71536-8.40389 10.14584-13.91732 18.30078-13.51172 0.46713-0.0293 0.93362-0.0418 1.40039-0.0312z"/>
   <path d="m113.6816 241.4062v65.76563h35.30859v-7.11915l-28.94726 0.66993v-23.85938l27.75976 1.00586v-7.11914l-27.75976-1.00391v-20.65234l28.6875 1.33984v-7.01757z"/>
  </g>
  <path d="m249.1953 388.002v73.99219h7.69141v-35.23633h36.22656v35.23633h7.68945v-73.99219h-7.68945v32.6211h-36.22656v-32.6211z"/>
  <path d="m249.1953 88.00391v73.99023h7.69141v-35.23633h36.22656v35.23633h7.68945v-73.99023h-7.68945v32.61914h-36.22656v-32.61914z"/>
  <path d="m421.4785 143.793c-0.33156-4e-3 -0.66269-4e-3 -0.99414 2e-3 -6.86143-0.16145-14.03394 3.61871-16.56446 10.05469-2.86516 7.19785-2.7967 15.44885-0.1582 22.67187 2.2034 6.00035 8.74751 9.47204 15.125 9.41797 6.84516 0.55198 14.38787-2.16554 17.60742-8.36914 3.56454-6.854 3.66388-14.82234 1.80274-22.11133-1.46466-6.23087-7.2683-11.00684-13.8418-11.47656-0.9873-0.11914-1.98189-0.17724-2.97656-0.18945zm0.27148 3.16015c4.94367 0.0983 9.75883 2.95767 11.5 7.55274 2.36825 6.37275 2.40313 13.65995 0.10742 20.05664-1.90119 5.28526-7.64762 8.61203-13.34375 8.1543-5.26824 0.2092-10.49828-2.91469-12.14453-7.85547-2.08185-6.23002-2.1935-13.23642-0.0312-19.46094 1.91728-5.24264 7.16573-8.68271 12.92383-8.42969 0.32984-0.0183 0.6587-0.0241 0.98828-0.0176z"/>
  <path d="m355.9375 146.9277v4h15.55273v31.13672h5.95899v-31.13672h15.55469v-4z"/>
  <path d="m488.9336 141.5098-31.29101 1.08398-0.67383 5.77344 13.74219 12.90625-17.66211 19.70508 0.67383 4.76562 40.32617-1.125-0.13672-4.90039-34.01367 0.94922 15.36328-15.74414 0.0254-7.24219-12.28906-10.36719 26.10351-0.90429z"/>
  <path d="m355.8809 64.36133c-0.29983-0.0037-0.59872-0.0038-0.89844 2e-3 -6.20452-0.158489-12.69025 3.549128-14.97851 9.867188-2.59087 7.06597-2.52848 15.16909-0.14258 22.25976 1.99244 5.890409 7.9069 9.297209 13.67383 9.244149 6.18982 0.54184 13.0125-2.12492 15.92382-8.214852 3.22328-6.728427 3.31188-14.5516 1.62891-21.70703-1.32442-6.116708-6.57145-10.80646-12.51562-11.26758-0.89277-0.116952-1.79193-0.171982-2.69141-0.183594zm-0.20313 3.101563c0.1491-3e-3 0.29826-0.0032 0.44727 0 4.47038 0.09652 8.82786 2.901235 10.40234 7.412109 1.14278 3.338389 1.676 6.933268 1.61719 10.51367l-26.01953-0.363281c0.011-3.154551 0.47224-6.303638 1.42188-9.271485 1.73372-5.146585 6.47676-8.52182 11.68359-8.273437 0.14913-9e-3 0.29817-0.01462 0.44726-0.01758zm-13.21484 22.41016 25.23242 0.349609c-0.25365 1.477275-0.60638 2.932558-1.07226 4.341797-1.71918 5.188424-6.91559 8.457157-12.06641 8.007817-4.76387 0.20537-9.49379-2.862642-10.98242-7.712895-0.49799-1.617822-0.86772-3.290224-1.11133-4.986328z"/>
  <path d="m501.7363 80.13086-0.55274 4.808594 10.13868 1.173828 0.55273-4.808593z"/>
  <path d="m484.1719 64.17383-14.8379 42.88476 5.51172-1.16992 5.80274-18.6543h11.73828l5.80078 18.6543 5.1875 0.4668-14.05469-40.08008zm2.30859 6.572266 4.35156 11.92578h-8.67773z"/>
  <path d="m394.0156 64.17383-14.83984 42.88476 5.51367-1.16992 5.80078-18.6543h11.74024l5.80078 18.6543 5.1875 0.4668-14.05469-40.08008zm2.3086 6.572266 4.34961 11.92578h-8.67578z"/>
  <path d="m468.6074 66.9668-5.09961 0.203125-14.45703 29.35352-5.8125-27.88672-4.23437 0.326172-13.77539 33.19727 4.44921 1.86132 10.65821-25.68164 5.54492 26.60547 4.16211 0.48242z"/>
  <path d="m56.54688 143.4824c-0.310702-4e-3 -0.621049-2e-3 -0.931641 4e-3 -6.429571-0.16424-13.15023 3.67742-15.52148 10.22461-2.684838 7.32223-2.618919 15.71857-0.146484 23.0664 2.064717 6.10403 8.195775 9.63508 14.17188 9.58008 6.414335 0.56152 13.48308-2.20288 16.5-8.51367 3.340188-6.97244 3.431511-15.07921 1.6875-22.49414-1.372465-6.33853-6.81093-11.19794-12.9707-11.67578-0.92516-0.1212-1.856956-0.17938-2.789063-0.19141zm-0.208984 3.21485c0.154206-3e-3 0.308474-3e-3 0.46289 0 4.632526 0.10001 9.14771 3.00717 10.7793 7.68164 1.184229 3.45946 1.736728 7.18427 1.675781 10.89453l-26.96289-0.37696c0.01127-3.26895 0.48858-6.53194 1.472656-9.60742 1.796609-5.33323 6.713676-8.83161 12.10938-8.57422 0.154537-9e-3 0.308684-0.0147 0.462891-0.0176zm-13.69531 23.22265 26.14844 0.36328c-0.262853 1.53086-0.630493 3.03769-1.113282 4.49805-1.781531 5.37658-7.164321 8.76251-12.50195 8.29687-4.936663 0.21283-9.838227-2.96407-11.38086-7.99023-0.516046-1.67649-0.89989-3.41036-1.152344-5.16797z"/>
  <path d="m191.748 146.0273-15.37696 44.4375 5.71289-1.20898 6.01172-19.33203h12.16407l6.01171 19.33203 5.37696 0.48437-14.56446-41.53515zm2.39257 6.81055 4.50782 12.35742h-8.99024z"/>
  <path d="m127.3574 147.0312 1.60156 39.98633 4.66602-0.16211-0.57812-14.43164c4.92634-0.35912 9.51252-0.9842 13.33007-2.45313 8.72189-4.54481 13.09755-9.81466 6.94727-17.82226-1.81556-2.32464-3.7793-4.10157-3.7793-4.10156l-0.66015-0.60157zm4.84766 4.41016 14.67578 0.2832c0.59696 0.57957 1.5624 1.5506 2.65625 2.95117 4.0182 4.34427-0.0251 9.26152-4.95703 11.31055-3.04266 1.17077-7.15361 1.76694-11.70703 2.12109z"/>
  <path d="m81.72656 147.0039v40.77343h29.6836v-4.41406l-24.33594 0.41602v-14.79297l23.33594 0.62305v-4.41211l-23.33594-0.62305v-12.80469l24.11719 0.83203v-4.35156z"/>
  <path d="m163.541 145.4805v39.76367h5.0625v-39.76367z"/>
  <path d="m199.4902 81.31055-0.57226 4.984375 10.50586 1.216797 0.57226-4.982422z"/>
  <path d="m174.8457 62.0918-4.99414 0.107422c-1.95843 13.0341 0.47335 25.81139 0.8086 37.33008l4.99414-0.109375-1.52735-13.77539c6.03563-9.279688 12.91389-13.08984 23.27735-18.87109l-2.42578-4.384766c-8.28193 4.620075-15.64508 8.015199-21.11329 14.34766z"/>
  <path d="m88.05664 61.49805-5.28711 1.890625-9.222656 35.98438 4.820313 1.320313 8.021484-29.53906 15.64063 30.04101 4.42773-2.322263z"/>
  <path d="m118.5332 59.35938v40.77344h29.68164v-4.41406l-24.33398 0.416016v-14.79297l23.33594 0.623047v-4.41211l-23.33594-0.623046v-12.80469l24.11523 0.832031v-4.351562z"/>
  <path d="m38.08203 59.35938v40.77344h29.68164v-4.41406l-24.33398 0.416016v-14.79297l23.33594 0.623047v-4.41211l-23.33594-0.623046v-12.80469l24.11523 0.832031v-4.351562z"/>
 </g>
</svg>
