<?xml version="1.0" encoding="UTF-8"?>
<svg viewBox="0 0 1930.9 1287.3" xmlns="http://www.w3.org/2000/svg" xmlns:xlink="http://www.w3.org/1999/xlink">
<defs></defs>
<path d="M0 0h1930.921v1287.2808H0z" fill="#fff"/>
<g transform="translate(592.84 -13.124)">
<path transform="matrix(-.95686 .29056 .29056 .95686 634.48 88.107)" d="m-250.07 173.33 0.2852 3.9943s-5.6846 0.39703-12.586 1.5747c-6.9011 1.1776-15.053 3.2406-19.524 6.0242-2.2917 1.4269-4.6606 4.5445-7.1086 7.8093-2.448 3.2648-4.9595 6.6969-8.5116 8.5364-4.2708 2.2116-9.6938 2.0898-14.775 2.2415-5.0813 0.15165-9.7463 0.58626-12.26 2.4254-2.275 1.6648-4.3449 6.0865-6.3212 10.808-1.9762 4.7212-3.8573 9.7413-7.5277 12.602-3.951 3.079-9.0344 3.8643-13.977 4.4149-4.9423 0.5506-9.8405 0.8616-13.443 2.2132-2.7025 1.0138-6.5385 2.6099-10.134 5.0829-2.0567 1.4147-5.3163 4.6086-5.3163 4.6086l-2.797-2.8654s3.1806-3.1968 5.8439-5.0289c4.0116-2.7595 8.1423-4.4976 10.988-5.5652 4.4829-1.6818 9.6179-1.8857 14.397-2.4182 4.7796-0.53249 9.0989-1.384 11.959-3.6132 2.2452-1.7497 4.3186-6.2502 6.2998-10.983 1.9812-4.733 3.8786-9.6973 7.656-12.461 3.9809-2.913 9.3698-3.0808 14.521-3.2345s10.152-0.29521 13.028-1.7842c2.339-1.2113 4.7569-4.1619 7.1812-7.3952 2.4243-3.2333 4.8517-6.7073 8.1918-8.7869 5.5062-3.4281 13.866-5.3439 20.973-6.5565 7.1067-1.2127 12.956-1.642 12.956-1.642z" fill="#f3d048" fill-rule="evenodd" stroke="#a80"/>
<path transform="rotate(239.53 310.05 -155.47)" d="m-288.59 205.76 0.67738 3.9469s-5.6178 0.95501-12.369 2.8066c-6.7515 1.8516-14.661 4.7075-18.836 7.918-2.1401 1.6457-4.1903 4.9814-6.3049 8.4715-2.1145 3.4901-4.2757 7.1528-7.6294 9.3332-4.0321 2.6216-9.4408 3.0345-14.482 3.686-5.0417 0.65139-9.6412 1.5434-11.961 3.6211-2.0999 1.8807-3.7242 6.4849-5.2258 11.378-1.5016 4.8928-2.8791 10.074-6.2499 13.282-3.6285 3.4532-8.6097 4.7354-13.474 5.7702-4.864 1.0348-9.7079 1.8266-13.16 3.5265-2.5894 1.2752-6.2496 3.2413-9.5836 6.0564-1.9074 1.6104-4.8366 5.1098-4.8366 5.1098l-3.0656-2.576s2.8502-3.4946 5.3202-5.58c3.7203-3.1412 7.6596-5.2778 10.386-6.6204 4.2954-2.1153 9.3853-2.8239 14.089-3.8246 4.704-1.0007 8.9184-2.2735 11.545-4.7736 2.062-1.9624 3.682-6.6452 5.1874-11.55 1.5053-4.9051 2.9046-10.032 6.3914-13.155 3.6746-3.291 9.0208-3.9888 14.132-4.6491 5.1108-0.66036 10.074-1.2938 12.789-3.0587 2.2083-1.4358 4.3238-4.6103 6.4179-8.0666 2.0941-3.4563 4.1675-7.1526 7.2865-9.551 5.1417-3.9539 13.272-6.6837 20.225-8.5905 6.9527-1.9068 12.731-2.9101 12.731-2.9101z" fill="#f3d048" fill-rule="evenodd" stroke="#a80"/>
<path transform="scale(-1 1) rotate(86.866 -331.94 -350.16)" d="m228.56 440.76 1.48 1.4035 0.91841 3.6603s-2.2586 1.6858-3.3759 1.599c-1.0222-0.0795-2.5412-1.2422-2.5412-1.2422l-0.6071-2.8029 0.94225-2.1337-1.1756-2.5297 0.24676-2.7504-1.2371-2.9032 0.30532-2.3933-1.2039-2.7148 0.11871-3.4542-0.86856-1.8405 2e-3 -3.0873 3.2823-0.50167 1.2195 2.8829-0.28428 2.579 1.158 2.544-0.16025 3.2836 1.2729 2.1547-0.39749 2.9579 1.0696 2.008-0.16409 3.2809z" fill="#f3d048" fill-rule="evenodd" stroke="#a80" stroke-width="1px"/>
<path transform="scale(-1 1) rotate(86.866 -331.94 -350.16)" d="m222.89 441.01 1.3688 1.5122 0.6369 3.7196s-2.3805 1.5089-3.4879 1.3371c-1.0132-0.15709-2.4392-1.4321-2.4392-1.4321l-0.39182-2.841 1.102-2.0557-0.9795-2.6119 0.45556-2.7236-1.0123-2.989 0.48675-2.3631-0.99363-2.7986 0.3815-3.4351-0.72583-1.9013 0.23683-3.0782 3.311-0.25017 0.99632 2.9674-0.47992 2.5499 0.96089 2.6248-0.40993 3.2619 1.105 2.2454-0.62166 2.919 0.91357 2.0836-0.41355 3.2589z" fill="#f3d048" fill-rule="evenodd" stroke="#a80" stroke-width="1px"/>
<path transform="scale(-1 1) rotate(86.866 -331.94 -350.16)" d="m215.78 440.35-1.2706 1.5956-0.40086 3.7524s2.471 1.3556 3.5653 1.1143c1.0013-0.22073 2.3439-1.5832 2.3439-1.5832l0.21172-2.8601-1.2296-1.982 0.81268-2.6685-0.62654-2.6894 0.82166-3.0469-0.63494-2.3276 0.81502-2.8557-0.59755-3.4042 0.60437-1.9433-0.43065-3.0572-3.3202-0.0407-0.80703 3.0244 0.6399 2.5145-0.7933 2.6803 0.61499 3.2295-0.96111 2.3106 0.80466 2.874-0.78024 2.1372 0.61841 3.2263zm15.175-2.093 1.5407 1.3366 1.0796 3.616s-2.1818 1.7842-3.3018 1.7469c-1.0248-0.0341-2.5937-1.1284-2.5937-1.1284l-0.73062-2.7732 0.84684-2.1733-1.2865-2.4752 0.12472-2.7586-1.3644-2.8456 0.19905-2.4045-1.323-2.6588-0.0344-3.4561-0.9492-1.8002-0.13506-3.0844 3.2569-0.64652 1.3459 2.826-0.1698 2.5891 1.2696 2.4902-0.0147 3.2875 1.367 2.0962-0.26612 2.9726 1.1575 1.9587-0.0187 3.285z" fill="#f3d048" fill-rule="evenodd" stroke="#a80" stroke-width="1px"/>
<path transform="scale(-1 1) rotate(86.866 -331.94 -350.16)" d="m225.19 439.55 1.3688 1.5122 0.6369 3.7196s-2.3805 1.5089-3.4879 1.3371c-1.0132-0.15709-2.4392-1.4321-2.4392-1.4321l-0.39182-2.841 1.102-2.0557-0.9795-2.6119 0.45556-2.7236-1.0123-2.989 0.48675-2.3631-0.99363-2.7986 0.3815-3.4351-0.72583-1.9013 0.23683-3.0782 3.311-0.25017 0.99632 2.9674-0.47992 2.5499 0.96089 2.6248-0.40993 3.2619 1.105 2.2454-0.62166 2.919 0.91357 2.0836-0.41355 3.2589z" fill="#f3d048" fill-rule="evenodd" stroke="#a80" stroke-width="1px"/>
<path transform="scale(-1 1) rotate(86.866 -331.94 -350.16)" d="m217.58 408.52s1.6721 0.99155 2.321 0.99155c0.97348 0 2.5957-1.8 2.5957-1.8s2.4911 2.6454 3.2746 4.1999c0.94565 1.8762 1.5126 5.962 1.5126 5.962s-3.4186 2.994-5.5578 3.0126c-1.7381 0.0152-6.0252-1.4747-6.0252-1.4747s-0.29541-4.0156 0-5.6999c0.28613-1.6314 1.8789-5.1915 1.8789-5.1915z" fill="#f3d048" fill-rule="evenodd" stroke="#a80" stroke-width="1px"/>
<g fill="#f3d048" fill-rule="evenodd" stroke="#a80" stroke-width="1px">
<path transform="rotate(-60.139 473.43 -425.09)" d="m228.56 440.76 1.48 1.4035 0.91841 3.6603s-2.2586 1.6858-3.3759 1.599c-1.0222-0.0795-2.5412-1.2422-2.5412-1.2422l-0.6071-2.8029 0.94225-2.1337-1.1756-2.5297 0.24676-2.7504-1.2371-2.9032 0.30532-2.3933-1.2039-2.7148 0.11871-3.4542-0.86856-1.8405 2e-3 -3.0873 3.2823-0.50167 1.2195 2.8829-0.28428 2.579 1.158 2.544-0.16025 3.2836 1.2729 2.1547-0.39749 2.9579 1.0696 2.008-0.16409 3.2809z"/>
<path transform="rotate(-60.139 473.43 -425.09)" d="m222.89 441.01 1.3688 1.5122 0.6369 3.7196s-2.3805 1.5089-3.4879 1.3371c-1.0132-0.15709-2.4392-1.4321-2.4392-1.4321l-0.39182-2.841 1.102-2.0557-0.9795-2.6119 0.45556-2.7236-1.0123-2.989 0.48675-2.3631-0.99363-2.7986 0.3815-3.4351-0.72583-1.9013 0.23683-3.0782 3.311-0.25017 0.99632 2.9674-0.47992 2.5499 0.96089 2.6248-0.40993 3.2619 1.105 2.2454-0.62166 2.919 0.91357 2.0836-0.41355 3.2589z"/>
<path transform="rotate(-60.139 473.43 -425.09)" d="m215.78 440.35-1.2706 1.5956-0.40086 3.7524s2.471 1.3556 3.5653 1.1143c1.0013-0.22073 2.3439-1.5832 2.3439-1.5832l0.21172-2.8601-1.2296-1.982 0.81268-2.6685-0.62654-2.6894 0.82166-3.0469-0.63494-2.3276 0.81502-2.8557-0.59755-3.4042 0.60437-1.9433-0.43065-3.0572-3.3202-0.0407-0.80703 3.0244 0.6399 2.5145-0.7933 2.6803 0.61499 3.2295-0.96111 2.3106 0.80466 2.874-0.78024 2.1372 0.61841 3.2263zm15.175-2.093 1.5407 1.3366 1.0796 3.616s-2.1818 1.7842-3.3018 1.7469c-1.0248-0.0341-2.5937-1.1284-2.5937-1.1284l-0.73062-2.7732 0.84684-2.1733-1.2865-2.4752 0.12472-2.7586-1.3644-2.8456 0.19905-2.4045-1.323-2.6588-0.0344-3.4561-0.9492-1.8002-0.13506-3.0844 3.2569-0.64652 1.3459 2.826-0.1698 2.5891 1.2696 2.4902-0.0147 3.2875 1.367 2.0962-0.26612 2.9726 1.1575 1.9587-0.0187 3.285z"/>
<path transform="rotate(-60.139 473.43 -425.09)" d="m225.19 439.55 1.3688 1.5122 0.6369 3.7196s-2.3805 1.5089-3.4879 1.3371c-1.0132-0.15709-2.4392-1.4321-2.4392-1.4321l-0.39182-2.841 1.102-2.0557-0.9795-2.6119 0.45556-2.7236-1.0123-2.989 0.48675-2.3631-0.99363-2.7986 0.3815-3.4351-0.72583-1.9013 0.23683-3.0782 3.311-0.25017 0.99632 2.9674-0.47992 2.5499 0.96089 2.6248-0.40993 3.2619 1.105 2.2454-0.62166 2.919 0.91357 2.0836-0.41355 3.2589z"/>
<path transform="rotate(-60.139 473.43 -425.09)" d="m217.58 408.52s1.6721 0.99155 2.321 0.99155c0.97348 0 2.5957-1.8 2.5957-1.8s2.4911 2.6454 3.2746 4.1999c0.94565 1.8762 1.5126 5.962 1.5126 5.962s-3.4186 2.994-5.5578 3.0126c-1.7381 0.0152-6.0252-1.4747-6.0252-1.4747s-0.29541-4.0156 0-5.6999c0.28613-1.6314 1.8789-5.1915 1.8789-5.1915z"/>
</g>
<path transform="rotate(16.892 -244.05 398.56)" d="m-250.07 173.33 0.2852 3.9943s-5.6846 0.39703-12.586 1.5747c-6.9011 1.1776-15.053 3.2406-19.524 6.0242-2.2917 1.4269-4.6606 4.5445-7.1086 7.8093-2.448 3.2648-4.9595 6.6969-8.5116 8.5364-4.2708 2.2116-9.6938 2.0898-14.775 2.2415-5.0813 0.15165-9.7463 0.58626-12.26 2.4254-2.275 1.6648-4.3449 6.0865-6.3212 10.808-1.9762 4.7212-3.8573 9.7413-7.5277 12.602-3.951 3.079-9.0344 3.8643-13.977 4.4149-4.9423 0.5506-9.8405 0.8616-13.443 2.2132-2.7025 1.0138-6.5385 2.6099-10.134 5.0829-2.0567 1.4147-5.3163 4.6086-5.3163 4.6086l-2.797-2.8654s3.1806-3.1968 5.8439-5.0289c4.0116-2.7595 8.1423-4.4976 10.988-5.5652 4.4829-1.6818 9.6179-1.8857 14.397-2.4182 4.7796-0.53249 9.0989-1.384 11.959-3.6132 2.2452-1.7497 4.3186-6.2502 6.2998-10.983 1.9812-4.733 3.8786-9.6973 7.656-12.461 3.9809-2.913 9.3698-3.0808 14.521-3.2345s10.152-0.29521 13.028-1.7842c2.339-1.2113 4.7569-4.1619 7.1812-7.3952 2.4243-3.2333 4.8517-6.7073 8.1918-8.7869 5.5062-3.4281 13.866-5.3439 20.973-6.5565 7.1067-1.2127 12.956-1.642 12.956-1.642z" fill="#f3d048" fill-rule="evenodd" stroke="#a80"/>
<path transform="scale(1 -1) rotate(59.53 98.034 104.62)" d="m-288.59 205.76 0.67738 3.9469s-5.6178 0.95501-12.369 2.8066c-6.7515 1.8516-14.661 4.7075-18.836 7.918-2.1401 1.6457-4.1903 4.9814-6.3049 8.4715-2.1145 3.4901-4.2757 7.1528-7.6294 9.3332-4.0321 2.6216-9.4408 3.0345-14.482 3.686-5.0417 0.65139-9.6412 1.5434-11.961 3.6211-2.0999 1.8807-3.7242 6.4849-5.2258 11.378-1.5016 4.8928-2.8791 10.074-6.2499 13.282-3.6285 3.4532-8.6097 4.7354-13.474 5.7702-4.864 1.0348-9.7079 1.8266-13.16 3.5265-2.5894 1.2752-6.2496 3.2413-9.5836 6.0564-1.9074 1.6104-4.8366 5.1098-4.8366 5.1098l-3.0656-2.576s2.8502-3.4946 5.3202-5.58c3.7203-3.1412 7.6596-5.2778 10.386-6.6204 4.2954-2.1153 9.3853-2.8239 14.089-3.8246 4.704-1.0007 8.9184-2.2735 11.545-4.7736 2.062-1.9624 3.682-6.6452 5.1874-11.55 1.5053-4.9051 2.9046-10.032 6.3914-13.155 3.6746-3.291 9.0208-3.9888 14.132-4.6491 5.1108-0.66036 10.074-1.2938 12.789-3.0587 2.2083-1.4358 4.3238-4.6103 6.4179-8.0666 2.0941-3.4563 4.1675-7.1526 7.2865-9.551 5.1417-3.9539 13.272-6.6837 20.225-8.5905 6.9527-1.9068 12.731-2.9101 12.731-2.9101z" fill="#f3d048" fill-rule="evenodd" stroke="#a80"/>
<path transform="rotate(86.866 37.938 40.532)" d="m228.56 440.76 1.48 1.4035 0.91841 3.6603s-2.2586 1.6858-3.3759 1.599c-1.0222-0.0795-2.5412-1.2422-2.5412-1.2422l-0.6071-2.8029 0.94225-2.1337-1.1756-2.5297 0.24676-2.7504-1.2371-2.9032 0.30532-2.3933-1.2039-2.7148 0.11871-3.4542-0.86856-1.8405 2e-3 -3.0873 3.2823-0.50167 1.2195 2.8829-0.28428 2.579 1.158 2.544-0.16025 3.2836 1.2729 2.1547-0.39749 2.9579 1.0696 2.008-0.16409 3.2809z" fill="#f3d048" fill-rule="evenodd" stroke="#a80" stroke-width="1px"/>
<path transform="rotate(86.866 37.938 40.532)" d="m222.89 441.01 1.3688 1.5122 0.6369 3.7196s-2.3805 1.5089-3.4879 1.3371c-1.0132-0.15709-2.4392-1.4321-2.4392-1.4321l-0.39182-2.841 1.102-2.0557-0.9795-2.6119 0.45556-2.7236-1.0123-2.989 0.48675-2.3631-0.99363-2.7986 0.3815-3.4351-0.72583-1.9013 0.23683-3.0782 3.311-0.25017 0.99632 2.9674-0.47992 2.5499 0.96089 2.6248-0.40993 3.2619 1.105 2.2454-0.62166 2.919 0.91357 2.0836-0.41355 3.2589z" fill="#f3d048" fill-rule="evenodd" stroke="#a80" stroke-width="1px"/>
<path transform="rotate(86.866 37.938 40.532)" d="m215.78 440.35-1.2706 1.5956-0.40086 3.7524s2.471 1.3556 3.5653 1.1143c1.0013-0.22073 2.3439-1.5832 2.3439-1.5832l0.21172-2.8601-1.2296-1.982 0.81268-2.6685-0.62654-2.6894 0.82166-3.0469-0.63494-2.3276 0.81502-2.8557-0.59755-3.4042 0.60437-1.9433-0.43065-3.0572-3.3202-0.0407-0.80703 3.0244 0.6399 2.5145-0.7933 2.6803 0.61499 3.2295-0.96111 2.3106 0.80466 2.874-0.78024 2.1372 0.61841 3.2263zm15.175-2.093 1.5407 1.3366 1.0796 3.616s-2.1818 1.7842-3.3018 1.7469c-1.0248-0.0341-2.5937-1.1284-2.5937-1.1284l-0.73062-2.7732 0.84684-2.1733-1.2865-2.4752 0.12472-2.7586-1.3644-2.8456 0.19905-2.4045-1.323-2.6588-0.0344-3.4561-0.9492-1.8002-0.13506-3.0844 3.2569-0.64652 1.3459 2.826-0.1698 2.5891 1.2696 2.4902-0.0147 3.2875 1.367 2.0962-0.26612 2.9726 1.1575 1.9587-0.0187 3.285z" fill="#f3d048" fill-rule="evenodd" stroke="#a80" stroke-width="1px"/>
<path transform="rotate(86.866 37.938 40.532)" d="m225.19 439.55 1.3688 1.5122 0.6369 3.7196s-2.3805 1.5089-3.4879 1.3371c-1.0132-0.15709-2.4392-1.4321-2.4392-1.4321l-0.39182-2.841 1.102-2.0557-0.9795-2.6119 0.45556-2.7236-1.0123-2.989 0.48675-2.3631-0.99363-2.7986 0.3815-3.4351-0.72583-1.9013 0.23683-3.0782 3.311-0.25017 0.99632 2.9674-0.47992 2.5499 0.96089 2.6248-0.40993 3.2619 1.105 2.2454-0.62166 2.919 0.91357 2.0836-0.41355 3.2589z" fill="#f3d048" fill-rule="evenodd" stroke="#a80" stroke-width="1px"/>
<path transform="rotate(86.866 37.938 40.532)" d="m217.58 408.52s1.6721 0.99155 2.321 0.99155c0.97348 0 2.5957-1.8 2.5957-1.8s2.4911 2.6454 3.2746 4.1999c0.94565 1.8762 1.5126 5.962 1.5126 5.962s-3.4186 2.994-5.5578 3.0126c-1.7381 0.0152-6.0252-1.4747-6.0252-1.4747s-0.29541-4.0156 0-5.6999c0.28613-1.6314 1.8789-5.1915 1.8789-5.1915z" fill="#f3d048" fill-rule="evenodd" stroke="#a80" stroke-width="1px"/>
<g fill="#f3d048" fill-rule="evenodd" stroke="#a80" stroke-width="1px">
<path transform="scale(-1 1) rotate(-60.139 103.55 213.77)" d="m228.56 440.76 1.48 1.4035 0.91841 3.6603s-2.2586 1.6858-3.3759 1.599c-1.0222-0.0795-2.5412-1.2422-2.5412-1.2422l-0.6071-2.8029 0.94225-2.1337-1.1756-2.5297 0.24676-2.7504-1.2371-2.9032 0.30532-2.3933-1.2039-2.7148 0.11871-3.4542-0.86856-1.8405 2e-3 -3.0873 3.2823-0.50167 1.2195 2.8829-0.28428 2.579 1.158 2.544-0.16025 3.2836 1.2729 2.1547-0.39749 2.9579 1.0696 2.008-0.16409 3.2809z"/>
<path transform="scale(-1 1) rotate(-60.139 103.55 213.77)" d="m222.89 441.01 1.3688 1.5122 0.6369 3.7196s-2.3805 1.5089-3.4879 1.3371c-1.0132-0.15709-2.4392-1.4321-2.4392-1.4321l-0.39182-2.841 1.102-2.0557-0.9795-2.6119 0.45556-2.7236-1.0123-2.989 0.48675-2.3631-0.99363-2.7986 0.3815-3.4351-0.72583-1.9013 0.23683-3.0782 3.311-0.25017 0.99632 2.9674-0.47992 2.5499 0.96089 2.6248-0.40993 3.2619 1.105 2.2454-0.62166 2.919 0.91357 2.0836-0.41355 3.2589z"/>
<path transform="scale(-1 1) rotate(-60.139 103.55 213.77)" d="m215.78 440.35-1.2706 1.5956-0.40086 3.7524s2.471 1.3556 3.5653 1.1143c1.0013-0.22073 2.3439-1.5832 2.3439-1.5832l0.21172-2.8601-1.2296-1.982 0.81268-2.6685-0.62654-2.6894 0.82166-3.0469-0.63494-2.3276 0.81502-2.8557-0.59755-3.4042 0.60437-1.9433-0.43065-3.0572-3.3202-0.0407-0.80703 3.0244 0.6399 2.5145-0.7933 2.6803 0.61499 3.2295-0.96111 2.3106 0.80466 2.874-0.78024 2.1372 0.61841 3.2263zm15.175-2.093 1.5407 1.3366 1.0796 3.616s-2.1818 1.7842-3.3018 1.7469c-1.0248-0.0341-2.5937-1.1284-2.5937-1.1284l-0.73062-2.7732 0.84684-2.1733-1.2865-2.4752 0.12472-2.7586-1.3644-2.8456 0.19905-2.4045-1.323-2.6588-0.0344-3.4561-0.9492-1.8002-0.13506-3.0844 3.2569-0.64652 1.3459 2.826-0.1698 2.5891 1.2696 2.4902-0.0147 3.2875 1.367 2.0962-0.26612 2.9726 1.1575 1.9587-0.0187 3.285z"/>
<path transform="scale(-1 1) rotate(-60.139 103.55 213.77)" d="m225.19 439.55 1.3688 1.5122 0.6369 3.7196s-2.3805 1.5089-3.4879 1.3371c-1.0132-0.15709-2.4392-1.4321-2.4392-1.4321l-0.39182-2.841 1.102-2.0557-0.9795-2.6119 0.45556-2.7236-1.0123-2.989 0.48675-2.3631-0.99363-2.7986 0.3815-3.4351-0.72583-1.9013 0.23683-3.0782 3.311-0.25017 0.99632 2.9674-0.47992 2.5499 0.96089 2.6248-0.40993 3.2619 1.105 2.2454-0.62166 2.919 0.91357 2.0836-0.41355 3.2589z"/>
<path transform="scale(-1 1) rotate(-60.139 103.55 213.77)" d="m217.58 408.52s1.6721 0.99155 2.321 0.99155c0.97348 0 2.5957-1.8 2.5957-1.8s2.4911 2.6454 3.2746 4.1999c0.94565 1.8762 1.5126 5.962 1.5126 5.962s-3.4186 2.994-5.5578 3.0126c-1.7381 0.0152-6.0252-1.4747-6.0252-1.4747s-0.29541-4.0156 0-5.6999c0.28613-1.6314 1.8789-5.1915 1.8789-5.1915z"/>
</g>
<rect transform="rotate(226.27)" x="-773.96" y="550.43" width="10.698" height="14.278" rx="4.5659" fill="#fc0" stroke="#000" stroke-linecap="round" stroke-linejoin="round" stroke-width="1.3105"/>
<path d="m975.05 131c-15.629 20.949-17.967 32.691-19.975 31.499-6.0117-3.5691-19.524 12.424-19.524 12.424l-6.1376-6.417s16.578-12.787 13.28-18.952c-1.102-2.0597 10.733-3.8731 32.356-18.554z" fill="#fc0" fill-rule="evenodd" stroke="#000" stroke-width="1.3093"/>
<path d="m956.05 149.16-16.174 21.352-565.02 540.42-5.8759-6.1434 565.02-540.42 22.05-15.208z" fill="#fc0" fill-rule="evenodd" stroke="#000" stroke-width="1.3093"/>
<path d="m972.87 132.99-17.307 16.554" fill="#fc0" fill-opacity=".65174" fill-rule="evenodd" stroke="#000" stroke-width="1.3093"/>
<path d="m1121.8 390.1 3.912-1.891c18.836-8.7378 35.754-14.159 54.114-13.074l4.189 0.38978-0.7351-0.89477-0.7293-0.81807-0.7895-0.73905-0.7651-0.63501c-7.7951-7.3078-21.719-4.5032-32.311-6.1928l-2.0613-0.22876-1.9002-0.37554c-14.539-2.5459-22.506-14.341-30.616-25.377l-1.1042-1.5766-1.136-1.5285-1.1011-1.5743-1.2395-1.5481-1.2109-1.5856c-4.8882-6.7638-10.852-12.362-15.59-19.419l-1.6029-2.1468-1.5193-1.9649c-3.8334-4.8174-8.7668-10.899-15.414-11.735l-0.8684 0.2851-0.5158 0.60617-0.2791 0.91769-0.066 1.0075c-0.105 3.5604 2.4824 11.168 0.469 14.649l-0.7152 0.85517-0.917 0.50443c-4.1297 1.5872-9.9674-3.0607-12.512-5.2541l-0.911-0.8841-0.9109-0.90372-0.7293-0.81808-0.6195-0.8133-0.977-1.3418-1.8516-2.9998c-6.7493-11.657-8.443-27.711-16.172-38.477l-0.9364-1.3174-1.0557-1.3294c-11.318-14.899-29.478 2.7127-43.78-9.1088l-0.8989-0.81575-0.79527-0.81572-0.80791-0.80561-0.76044-0.86148c-10.219-13.082-28.138-15.836-37.601-28.757l-1.1882-1.6997-1.144-1.7383c-8.5359-14.988-10.064-26.14-24.628-35.433l-1.1127-0.77478-1.1505-0.74448-1.0028-0.76347-1.0407-0.73316-185.3 178.41 0.85273 0.19577 0.82208 0.0804 0.88799 0.0846 0.78408 0.13037c12.187 0.72224 14.07 4.1274 22.487 11.514l1.1184 0.85145 1.1881 0.76649c16.495 9.3374 41.486 4.7334 57.33 17.012l1.8682 1.4223 3.6754 3.0609 1.854 1.6808c13.25 10.922 20.552 24.563 31.789 36.548l1.5161 1.4894 0.70917 0.5399c9.3488 3.5491 11.701-1.7506 22.478 5.6328l0.74705 0.50959 0.76361 0.37763 0.77252 0.4567 0.77299 0.38477 0.76666 0.39309 0.80162 0.32772c12.32 3.8922 15.137 1.3584 23.896 13.454l1.1328 1.5392 1.1011 1.5742c7.3615 11.663 13.735 17.468 26.699 21.784l1.3058 0.53409 0.97418 0.34738 0.94618 0.30635 1.0407 0.26001c19.18 6.7821 19.94-8.561 35.597-13.615l1.4127-0.45556 1.2798-0.29392c11.36-2.4045 17.937-1.8198 25.52 4.7485l0.6021 0.58979 0.5767 0.6427 0.4673 0.54637 0.4642 0.55707 3.52-5.7904 3.2696-5.9153 3.1915-5.9878 3.1576-6.0728 3.1424-6.1436 3.201-5.9807 3.2664-5.9111 3.4598-5.7114 1.4068-1.472 1.837-1.4731 2.0699-1.5586 2.1565-1.3612 2.3403-1.1425c6.4604-3.1642 12.16 0.0511 18.501-1.1474l2.2089-0.25029 2.1874-0.33233 2.2692-0.34895c17.53-3.0491 30.211-13.424 46.204-23.893l1.9744-1.3619 2.024-1.2584" fill="navy"/>
<g fill="#fc0">
<path transform="rotate(40.169 1167.8 3928.9) scale(2.3272)" d="m-600.09 573.27h12.305v-7.5781c-2e-5 -1.3541-0.0847-2.2461-0.2539-2.6758-0.13023-0.32549-0.40367-0.60544-0.82031-0.83984-0.55992-0.31248-1.1524-0.46873-1.7774-0.46875h-0.9375v-0.72266h11.328v0.72266h-0.9375c-0.62503 2e-5 -1.2175 0.14976-1.7774 0.44922-0.41669 0.20835-0.70315 0.52736-0.85937 0.95703-0.14326 0.41669-0.21487 1.2761-0.21485 2.5781v17.09c-2e-5 1.3412 0.0846 2.2266 0.25391 2.6562 0.13018 0.32552 0.39711 0.60547 0.80078 0.83984 0.57289 0.3125 1.1718 0.46875 1.7969 0.46875h0.9375v0.72266h-11.328v-0.72266h0.9375c1.0807 0 1.8685-0.31901 2.3633-0.95703 0.3255-0.41667 0.48826-1.4193 0.48828-3.0078v-8.0664h-12.305v8.0664c-1e-5 1.3412 0.0846 2.2266 0.2539 2.6562 0.1302 0.32552 0.40364 0.60547 0.82032 0.83984 0.55988 0.3125 1.1523 0.46875 1.7773 0.46875h0.95703v0.72266h-11.348v-0.72266h0.9375c1.0938 0 1.888-0.31901 2.3828-0.95703 0.31249-0.41667 0.46874-1.4193 0.46875-3.0078v-17.09c-1e-5 -1.3541-0.0846-2.2461-0.25391-2.6758-0.13021-0.32549-0.39714-0.60544-0.80078-0.83984-0.57292-0.31248-1.1719-0.46873-1.7969-0.46875h-0.9375v-0.72266h11.348v0.72266h-0.95703c-0.62501 2e-5 -1.2175 0.14976-1.7773 0.44922-0.40366 0.20835-0.68361 0.52736-0.83985 0.95703-0.15626 0.41669-0.23438 1.2761-0.23437 2.5781v7.5781m35.469-12.891c3.2422 3e-5 6.1718 1.2565 8.7891 3.7695 2.6172 2.5 3.9258 5.8138 3.9258 9.9414-3e-5 4.1016-1.2891 7.4609-3.8672 10.078-2.5781 2.6042-5.6315 3.9062-9.1602 3.9062-3.9193 0-7.0508-1.3737-9.3945-4.1211-2.3438-2.7474-3.5156-6.0221-3.5156-9.8242 0-4.1146 1.3151-7.4349 3.9453-9.9609 2.6432-2.526 5.7357-3.789 9.2774-3.7891m-0.3711 1.4258c-2.526 3e-5 -4.5573 1.0482-6.0938 3.1445-1.5234 2.0834-2.2852 5.1172-2.2852 9.1016-1e-5 3.724 0.71614 6.7643 2.1484 9.1211 1.4323 2.3438 3.5156 3.5156 6.25 3.5156 2.6562 0 4.7526-1.0286 6.2891-3.0859 1.5364-2.0703 2.3047-5.0716 2.3047-9.0039-2e-5 -3.9844-0.72267-7.1094-2.168-9.375-1.4323-2.2786-3.5808-3.4179-6.4453-3.418m-4.5898 7.6953h0.74219c-1e-5 1.1198 0.22785 1.9206 0.68359 2.4023 0.45572 0.48179 1.2956 0.72267 2.5195 0.72266h1.582c1.1588 1e-5 1.9726-0.23436 2.4414-0.70313 0.46873-0.48175 0.70311-1.289 0.70312-2.4219h0.74219v9.4336h-0.74219c-1e-5 -1.1068-0.22788-1.901-0.68359-2.3828-0.45575-0.48176-1.2891-0.72265-2.5-0.72266h-1.6211c-1.1589 1e-5 -1.9727 0.2409-2.4414 0.72266-0.45574 0.48178-0.6836 1.276-0.68359 2.3828h-0.74219v-9.4336m19.785-8.5156h19.863l0.52734 6.6602h-0.74219c-0.0912-1.3151-0.31252-2.3177-0.66406-3.0078-0.35158-0.7031-0.83335-1.2109-1.4453-1.5234-0.612-0.31248-1.582-0.46873-2.9102-0.46875h-9.043l8.0664 10.352-9.1797 10.84h10.059c1.8229 1e-5 3.2161-0.29296 4.1797-0.8789 0.96352-0.58594 1.6862-1.8099 2.168-3.6719l0.74219 0.17578-1.1328 8.0078h-20.488v-0.70313l10.195-12.031-10.195-13.047v-0.70313"/>
</g>
<path d="m1073.6385 297.51653-18.6938 9.06302.666.90127.7065.93874c2.7013 3.65329 8.2002 8.73977 13.3995 8.2691l1.1098-.22621 1.2972-.54357.9312-.76297.6402-.91225.334-1.1388.1275-1.24346-.029-1.36239-.2484-1.37849-.2448-1.45457c-.537-1.88736-1.0978-4.98845-1.1845-7.05231l.09-1.19354.4243-1.01752.6746-.88608" fill="#005"/>
<path d="m759.16 368.89c-1.0391-0.76078-2.082-1.6195-3.123-2.5418l-2.1826-2.3187-1.0132-1.0999 2.4523-2.8971 2.5315-3.0011c4.5776-6.2074 11.522-7.5312 17.489-9.6845l1.3374-0.46035 1.3374-0.46033c12.615-4.2938 10.914-8.1062 20.349-14.9l2.2832-1.0545 1.3353-0.13342 0.46541 0.84714-0.16693 1.5157-0.40339 1.6642-0.40338 1.6642-8e-3 1.1442 0.70401 0.37168 1.7322-0.81688c23.436-15.519 45.953-33.901 65.281-55.932l2.1302-1.6638 0.14655 1.5901-1.5194 4.2645-2.7081 5.988c-9.5011 18.23-12.64 27.156-29.999 38.109l-4.1781 2.7332-4.3364 2.9412c-12.14 7.9347-11.094 11.221-20.07 20.205l-2.2083 1.6043-2.2822 0.89104-4.1684 1.2621-3.7801 1.8863-3.3896 2.1836-3.0782 2.5849-3.1574 2.6889-3.0012 2.8078-3.3938 2.8374-3.6271 2.4956-1.8039-0.22334-1.8809-0.44627-1.7226-0.65427-1.7236-0.49081c-3.9198-1.5746-7.1292-3.2184-10.247-5.5008zm39.49 10.843 2.9937-1.6636 2.9145-1.5596c7.7412-4.581 15.486-9.2053 23.322-13.457l2.9145-1.5596 5.9852-3.0003 6.1392-2.5544 3.1477-1.2178 0.70507 0.20821 0.30812 0.89169-0.0877 1.4117-0.24717 1.7831-0.16802 1.6792-0.01 1.4712 0.15196 0.77276 0.70722-0.11867 3.9438-2.9116 3.7897-3.3574c12.891-13.264 17.819-22.641 34.557-26.918l1.9665-0.63851 1.9665-0.63849c11.62-2.8241 18.312-7.2971 29.059-14.511l2.2084-1.6044 2.2864-1.5449 2.05-1.3963 2.2864-1.5449c12.445-8.4256 15.328-9.0038 28.101-11.955l1.8874-0.5345 1.8092-0.59396c17.425-6.2042 13.006-24.052 20.801-35.912l1.8221-2.5555 1.9794-2.6 1.7429-2.4515 0.77997 0.75806c1.6666 1.5185 3.3286 2.7904 4.9954 4.2958l0.93723 0.71352-1.1898 1.8869-1.269 1.9909-1.2679 1.8275-2.5379 3.9819-0.95441 1.9018-0.79818 2.0208-0.40554 1.9912 0.15084 0.93623 0.70186 0.69859 0.93723 0.71352 1.1737 0.56498 1.0956 0.50552 0.85913 0.65405 0.54458 0.74314-0.16264 0.86184-1.3481 2.095-1.5824 1.9166-1.8948 1.6787c-19.287 11.365-10.569 23.969-23.66 28.971l-2.2019 0.62358-2.0425 0.25212-2.1206 0.19266-2.1976-0.0302c-16.277-0.80707-17.494-4.835-35.217 7.8523l-3.6292 2.8225-3.5511 2.882-3.473 2.9414c-5.7162 5.0647-11.332 10.219-17.055 15.272l-3.473 2.9414-3.5511 2.882-3.549 2.5551-3.7062 2.5996-3.8614 2.3172-0.86342-5.8e-4 -0.69971-1.0255-0.46005-1.6644-0.30168-1.8724-0.30062-2.0359-0.38196-1.605-0.54459-0.74313-0.70722 0.11867-2.4534 3.0606c-3.8706 6.1083-5.0532 12.167-7.892 18.469l-1.8286 3.5363-2.3753 3.12c-5.9031 6.276-13.439 10.127-20.499 13.8l-3.5457 2.0647-3.5468 2.2281-1.638-1.5756c-6.8717-6.8807-16.35-12.743-26.356-14.644l-2.1163-0.46119zm76.488 54.451 1.9708-1.2923 1.8146-1.4113 1.7354-1.3073c18.651-14.97 23.651-19.956 43.273-15.518l1.882 0.2828 1.9612 0.1788 1.8039 0.22335c8.373 0.58517 12.51-3.001 20.382-7.9748l2.4426-1.426 2.4416-1.2625c4.782-1.9449 9.7998-2.5012 14.624-3.652l1.6509-0.38593 1.5728-0.44542 1.652-0.54942 1.4947-0.50487 1.4968-0.83178 1.4958-0.66835c9.4003-5.2498 12.496-17.672 21.432-24.425l2.2105-1.9313 2.2094-1.7678c6.8676-5.4038 13.907-10.276 20.979-15.241l2.3656-1.6489 2.2875-1.7084 2.3656-1.6489c15.126-12.285 27.778-2.5479 36.59-25.699l1.5878-2.7339 1.6638-2.3475 1.897-2.0056-1.1139 2.2733-0.8003 2.3477-0.5639 2.1992c-1.4236 8.3391-2.2561 11.76-8.6035 19.242l-3.3211 3.7142-3.243 3.7737-3.1649 3.8331-2.6941 3.863-1.9891 4.0712-1.0464 3.9674-1e-3 0.16345 0.154 0.44584c0.044 0.23806 0.052 0.4528 0.153 0.60931 0.084 0.13045 0.2706 0.2188 0.3905 0.29729l0.078 0.0595 0.627 0.14876 1.6509-0.38594 2.0478-1.0694 0.1573-0.0445c0.084-0.049 0.1517-0.0979 0.2365-0.14854 1.3942-0.8321 2.9188-1.8651 4.4145-2.8818 0.076-0.0571 0.1608-0.0906 0.2365-0.14853l0.5521-0.4011c0.6579-0.52679 1.2735-1.0962 1.8948-1.6787 11.072-10.382 16.492-29.224 19.82-41.915l0.9662-3.6999 1.0443-3.6405 0.3028 1.709 0.3819 1.605c1.0615 10.008 3.6244 7.957-1.8523 19.125l-1.1973 3.0312-0.9608 2.8826-0.4099 2.645 0.459 1.8279 1.7194 1.1446 1.8841-0.0441 0.078 0.0595 0.079-0.104 1.1031-0.63871 0.5521-0.40109 0.1583-0.20799 0.8731-1.471 0.2386-0.47547 0.5564-1.0549 0.796-1.6939 1.1203-3.2541 1.1983-3.1946 1.1192-3.0906 1.2733-2.6448-0.6442 2.4666-0.4879 2.5855c-0.1115 4.3258-1.0601 8.0007-2.5851 11.174-1.4922 3.9256-3.3604 6.1256-6.2559 8.3796-0.067 0.0519-0.1688 0.0966-0.2365 0.14855-4.4389 4.0863-10.02 7.3485-15.69 10.562-0.21 0.11899-0.42 0.22248-0.6302 0.34163-3.2538 1.9632-6.5153 3.8944-9.6935 5.9268l-3.5469 2.2281-1.7343 1.1438-1.7344 1.1438c-0.8695 0.53662-1.656 1.1285-2.4448 1.7529-0.7609 0.59514-1.4192 1.1808-2.1313 1.8273-1.4491 1.3245-2.7892 2.6854-4.1866 4.0409-1.3743 1.3239-2.7436 2.5318-4.2627 3.6545-0.7999 0.59531-1.5604 1.1007-2.4437 1.5894-0.8322 0.46756-1.5904 0.85829-2.5197 1.203l-2.1248 0.84651-2.0468 0.90595c-1.3722 0.46197-2.6484 0.8902-3.7769 1.3959-1.1481 0.51922-2.1945 1.1375-3.1509 1.7081-3.8335 2.2754-6.3873 4.9404-9.7086 8.2152-1.6563 1.6413-3.5494 3.4632-5.844 5.4076l-2.5229 1.6934-2.7561 1.3516-0.94259 0.10379-0.23112-0.66877 0.24396-1.2928 0.15942-0.37146c0.51158-1.9779 1.4451-3.7385 2.6256-5.3936 0.045-0.0737 0.035-0.19542 0.08-0.26747 0.079-0.10748 0.1566-0.20584 0.2376-0.31199 1.2472-1.9175 2.5638-3.1767 3.9523-4.2193 0.2355-0.17679 0.4667-0.44418 0.7104-0.60909 7.8685-6.6429 17.862-10.46 12.421-14.857l-1.2518-0.62443-1.178 0.0889-2.831 0.80176-1.5739 0.60886c-3.0954 1.3759-6.3782 3.5619-9.2987 5.5702l-1.2615 0.84672-1.2604 0.68325-1.2647 1.3371-0.872 1.3075-0.71687 1.5899-0.63984 1.8128-0.0792 0.104-0.4034 1.6642-0.71794 1.7533-0.79498 1.5304-1.1855 1.2331-1.5792 1.4262-0.47399 0.46055c-0.33303 0.31089-0.74437 0.64506-1.1052 0.96564-0.72819 0.68003-1.4921 1.3035-2.2105 1.9313-3.7717 3.2958-7.4387 5.8938-10.963 7.9177-0.19008 0.10915-0.36266 0.29517-0.55208 0.40109-0.14472 0.0894-0.25196 0.10685-0.39374 0.19308-2.1537 1.3093-3.9573 2.2628-5.0404 2.5696l-1.8103 0.75741-1.9665 0.6385c-1.3521 0.42287-2.6738 0.78694-4.0101 1.0541-0.0282 6e-3 -0.0498-0.065-0.0781-0.0595-0.6109 0.1398-1.2035 0.31596-1.8082 0.43049-0.4096 0.0643-0.84885 0.13924-1.2572 0.19286-0.31338 0.051-0.63084 0.0587-0.9426 0.10379-0.71219 0.081-1.4119 0.13678-2.1206 0.19266-0.60864 0.0635-1.2031 0.06-1.806 0.10357-1.3111 0.0727-2.5458 0.15808-3.8474 0.19224-19.621 0.26203-36.508-7.3194-55.514 14.906l-2.8439 2.7633-2.9209 2.5404-0.86021-0.49059c-4.1732-1.8431-8.2719-4.0238-12.442-5.858l-0.8602-0.4906zm50.385 37.044c-8.5066-6.5352-12.297-17.937-20.323-25l-1.7183-1.3081 2.9124-1.2327 3.1488-1.3812 3.0707-1.4407 3.1509-1.7081c8.7205-4.532 16.376-8.9548 25.429-11.525l3.0664-0.78682 3.0643-0.45991c5.18-0.87309 7.3404 0.0488 10.024 3.5243l0.93723 0.71352 1.0186 0.2826 0.94154 0.0596 2.3603-0.83159c4.8976-2.33 8.5141-7.5213 13.56-9.0613l1.9654-0.47505 1.8071-0.26703c4.3512-0.40669 7.9761 0.30272 12.573-2.0922l1.8124-1.0843 1.5771-1.0993 1.7344-1.1438 1.5782-1.2627 1.7344-1.1438c15.586-9.6285 36.915-11.678 52.579-22.233l3.0782-2.5849 2.9231-2.8673c26.488-32.654 26.893-3.0379 41.88-42.371l1.5182-4.101 1.5975-4.205 1.912-4.2941 0.78 0.75807 0.7778 1.085 1.7118 2.2889 0.9341 1.2039 0.7778 1.085 0.857 0.98097 0.7788 0.92153-0.4889 2.749-0.4099 2.645-0.4098 2.645-0.4879 2.5855-0.5671 2.6896-0.8014 2.5112-0.9587 2.5557-1.3503 2.4219c-6.4406 11.163-16.891 22.349-27.272 29.179l-2.0499 1.3963-2.049 1.2329-2.2051 1.114c-23.667 10.015-30.944 12.222-54.888 27.21l-2.9937 1.6636-5.8268 2.7923-2.6759 1.0841-2.6748 0.92067-2.5165 0.71265-5.4266 1.6184-3.8592 1.9903-2.8418 2.4364-2.0586 2.704-1.8243 2.8824-1.7472 3.1053-2.2982 3.343-3.0055 3.4617-0.55209 0.40108-0.62804 0.0147-0.46969-0.1933c-1.9134-1.2333-2.7845-5.8062-4.5032-7.5352l-0.70187-0.69859-0.54671-0.41623-0.70615-0.0448-0.70722 0.11875c-7.8515 3.6756-9.2569 14.986-17.163 19.789l-1.6552 1.0398-1.5771 1.0993c-5.2036 3.0302-10.436 5.2496-15.749 7.7234l-1.7322 0.81689-1.8103 0.75741-1.6541 0.87633-1.8114 0.92088-1.8756-1.2636zm-65.101-55.311 6e-3 -0.81731 0.79712-1.8573 1.1138-2.2733 1.4294-2.5259c4.546-7.6049 4.9207-7.7665 12.004-11.068l1.2604-0.68326 1.1834-0.90617c5.1332-4.26 7.1243-9.1247 13.655-11.454l1.4155-0.40087 1.4166-0.56433 1.4155-0.40089c17.5-3.6572 18.784-2.6797 37.206-11.923l2.677-1.2476 1.3374-0.46034 1.3385-0.62379c24.93-13.404 20.252 2.256 35.388-22.014l2.3774-3.447 2.4544-3.224c18.881-19.927 32.549-2.8124 60.028-32.989l3.3981-3.4913 3.5543-3.3724 3.6335-3.4764 0.9297 1.8577c3.0483 6.7692 9.5323 17.232 17.545 17.628l2.4319 0.20865-2.204 0.95049-4.406 1.5741c-12.905 4.4281-23.393 7.4177-36.047 14.777l-3.3104 2.0796c-15.664 9.9964-22.453 13.547-38.992 21.077l-2.1281 1.3369-2.1292 1.5003-2.0521 1.7233-1.9751 1.9462-1.9762 2.1096c-4.8144 7.3611-10.511 9.4704-17.58 11.587l-3.381 0.87591-3.3018 0.77187c-6.7318 1.4728-15.04 2.4286-21.624 5.8792l-2.2073 1.4409-2.2864 1.5449-2.2854 1.3814c-20.039 9.2351-31.626 5.2105-53.117 20.345l-2.9177 2.05-2.9188 2.2134-2.525 2.0204-0.63019 0.34164zm112.84 53.049 3.0793-2.7484 3.0804-2.9118c39.879-37.086 40.865-41.369 87.26-56.12l2.9123-1.2327 2.9905-1.1732 2.8332-1.1287c10.698-3.9793 21.385-6.784 31.871-12.371l2.7572-1.515 2.8363-1.619c10.589-6.0074 23.892-9.3375 34.855-12.563l2.5946-0.65319 2.3581-0.50469 2.0446-0.57903-2.9123 1.2327-3.1488 1.3812c-33.908 15.682-62.53 26.209-96.722 38.731l-4.4862 1.8415-4.4883 2.1685-4.3311 2.1239c-21.896 10.528-30.122 26.187-46.989 43.573l-1.178 0.0889-1.0988-0.0151c-4.3472 0.28483-8.1876 0.8242-12.653 2.3596l-1.1812 0.57926-1.1812 0.57925-1.102 0.47525zm-84.732-161.76 0.39909-1.0104 2.1345-2.3176 3.6324-3.3129c6.7314-6.6705 17.352-13.614 20.792-22.612l0.79605-1.6939 0.87414-1.6344c2.6809-4.7142 7.5996-5.957 11.746-7.6501l1.9676-0.80196 1.8906-1.0249 1.6563-1.2033 2.6074-2.6147c6.4422-9.0131 6.3863-8.1489 12.813-14.723l0.47613-0.78746 0.31991-0.90639c0.88861-3.3582 0.26505-4.9828 2.4888-8.4548l1.6648-2.5109 1.821-2.392 1.7429-2.4515 1.4069 0.90682c6.6484 4.0692 13.517 7.6028 19.858 12.16l1.3278 1.0108-2.6032 1.9609-2.7594 1.842-2.8374 1.7825c-7.2457 4.656-8.3606 5.6602-14.054 12.464l-2.0489 1.2329-2.204 0.9505c-5.5973 1.7842-8.2397 0.63337-14.078 4.2317l-7.0904 3.9659c-15.389 9.2986-20.123 25.836-39.229 33.218l-3.229 1.6487-2.2811 0.72759zm40.336-58.331-0.77138-2.0658c0.24299-36.074-21.972 2.3948-32.131-43.682l-0.30278-1.709 2.922-2.7038c5.7099-5.5556 11.467-11.082 17.143-16.684l2.922-2.7038 0.78103 0.5946c18.683 8.8351 19.57 25.425 31.199 42.151l1.4786 1.947-2.8492 3.5806c-4.993 6.3446-12.094 16.217-18.425 20.8l-1.9654 0.47505z" fill-opacity=".32836"/>
<g fill="none">
<path transform="matrix(-2.1448 -2.2425 -2.2425 2.1448 189.24 -2024.5)" d="m-677.03 305.6-1.3698 8.5227v251.96h2.7396v-251.96l-1.3698-8.5227zm0.01747-7.519v7.7179" fill="none" stroke="#000" stroke-width=".42193"/>
</g>
<rect transform="rotate(226.27)" x="-776.57" y="553.04" width="15.92" height="9.055" rx="4.8991" fill="#fc0" stroke="#000" stroke-linecap="round" stroke-linejoin="round" stroke-width="1.3105"/>
<path d="m240 332.36h260v40h-260z" fill="#d40000"/>
<rect transform="scale(1 -1) rotate(46.275)" x="-264.03" y="17.283" width="10.698" height="14.278" rx="4.5659" fill="#fc0" stroke="#000" stroke-linecap="round" stroke-linejoin="round" stroke-width="1.3105"/>
<path d="m-237.3 131c15.629 20.949 17.967 32.691 19.975 31.499 6.0117-3.5691 19.524 12.424 19.524 12.424l6.1376-6.417s-16.578-12.787-13.28-18.952c1.102-2.0597-10.733-3.8731-32.356-18.554z" fill="#fc0" fill-rule="evenodd" stroke="#000" stroke-width="1.3093"/>
<path d="m-218.3 149.16 16.174 21.352 565.02 540.42 5.8759-6.1434-565.02-540.42-22.05-15.208z" fill="#fc0" fill-rule="evenodd" stroke="#000" stroke-width="1.3093"/>
<path d="m-235.12 132.99 17.307 16.554" fill="#fc0" fill-opacity=".65174" fill-rule="evenodd" stroke="#000" stroke-width="1.3093"/>
<path d="m-384.04 390.1-3.912-1.891c-18.836-8.7378-35.754-14.159-54.114-13.074l-4.189 0.38978 0.7351-0.89477 0.72933-0.81807 0.78951-0.73905 0.76507-0.63501c7.7951-7.3078 21.719-4.5032 32.311-6.1928l2.0613-0.22876 1.9002-0.37554c14.539-2.5459 22.506-14.341 30.615-25.377l1.1043-1.5766 1.136-1.5285 1.1011-1.5743 1.2395-1.5481 1.211-1.5856c4.8881-6.7638 10.851-12.362 15.59-19.419l1.6029-2.1468 1.5193-1.9649c3.8334-4.8174 8.7668-10.899 15.414-11.735l0.86844 0.2851 0.51576 0.60617 0.27918 0.91769 0.0663 1.0075c0.10499 3.5604-2.4825 11.168-0.46903 14.649l0.71519 0.85517 0.91697 0.50443c4.1297 1.5872 9.9674-3.0607 12.512-5.2541l0.91099-0.8841 0.91088-0.90372 0.72933-0.81808 0.61947-0.8133 0.97707-1.3418 1.8516-2.9998c6.7493-11.657 8.443-27.711 16.171-38.477l0.93641-1.3174 1.0556-1.3294c11.318-14.899 29.478 2.7127 43.78-9.1088l0.8989-0.81575 0.79527-0.81572 0.80791-0.80561 0.76044-0.86148c10.219-13.082 28.138-15.836 37.601-28.757l1.1882-1.6997 1.144-1.7383c8.5359-14.988 10.064-26.14 24.628-35.433l1.1127-0.77478 1.1505-0.74448 1.0028-0.76347 1.0407-0.73316 185.3 178.41-0.85272 0.19577-0.82208 0.0804-0.88799 0.0846-0.78408 0.13037c-12.187 0.72224-14.07 4.1274-22.487 11.514l-1.1184 0.85145-1.1881 0.76649c-16.495 9.3374-41.486 4.7334-57.33 17.012l-1.8682 1.4223-3.6754 3.0609-1.854 1.6808c-13.25 10.922-20.552 24.563-31.789 36.548l-1.5161 1.4894-0.70917 0.5399c-9.3488 3.5491-11.701-1.7506-22.478 5.6328l-0.74705 0.50959-0.76361 0.37763-0.77252 0.4567-0.77299 0.38477-0.76666 0.39309-0.80162 0.32772c-12.32 3.8922-15.137 1.3584-23.896 13.454l-1.1328 1.5392-1.1011 1.5742c-7.3615 11.663-13.735 17.468-26.699 21.784l-1.3058 0.53409-0.97418 0.34738-0.94618 0.30635-1.0407 0.26001c-19.18 6.7821-19.94-8.561-35.597-13.615l-1.4127-0.45556-1.2798-0.29392c-11.36-2.4045-17.937-1.8198-25.52 4.7485l-0.6021 0.58979-0.57664 0.6427-0.46736 0.54637-0.46417 0.55707-3.52-5.7904-3.2696-5.9153-3.1916-5.9878-3.1576-6.0728-3.1424-6.1436-3.201-5.9807-3.2664-5.9111-3.4598-5.7114-1.4068-1.472-1.837-1.4731-2.0699-1.5586-2.1565-1.3612-2.3403-1.1425c-6.4604-3.1642-12.16 0.0511-18.501-1.1474l-2.2089-0.25029-2.1874-0.33233-2.2692-0.34895c-17.53-3.0491-30.211-13.424-46.204-23.893l-1.9744-1.3619-2.024-1.2584" fill="navy"/>
<g fill="#fc0">
<path transform="matrix(1.9073 -1.3334 1.3334 1.9073 119.53 -1517.7)" d="M-600.08984 573.26688h12.30468v-7.57813c-.00002-1.35414-.0847-2.24607-.2539-2.67578-.13023-.32549-.40367-.60544-.82031-.83984-.55992-.31248-1.15237-.46873-1.77735-.46875h-.9375v-.72266h11.32813v.72266h-.9375c-.62503.00002-1.21748.14976-1.77735.44922-.41669.20835-.70315.52736-.85937.95703-.14326.41669-.21487 1.27606-.21485 2.57812v17.08985c-.00002 1.34115.0846 2.22656.25391 2.65625.13018.32552.39711.60547.80078.83984.57289.3125 1.17185.46875 1.79688.46875h.9375v.72266h-11.32813v-.72266h.9375c1.08071 0 1.86847-.31901 2.36328-.95703.3255-.41667.48826-1.41927.48828-3.00781v-8.06641h-12.30468v8.06641c-.00001 1.34115.0846 2.22656.2539 2.65625.1302.32552.40364.60547.82032.83984.55988.3125 1.15233.46875 1.77734.46875h.95703v.72266h-11.34766v-.72266h.9375c1.09375 0 1.88802-.31901 2.38282-.95703.31249-.41667.46874-1.41927.46875-3.00781v-17.08985c-.00001-1.35414-.0846-2.24607-.25391-2.67578-.13021-.32549-.39714-.60544-.80078-.83984-.57292-.31248-1.17188-.46873-1.79688-.46875h-.9375v-.72266h11.34766v.72266h-.95703c-.62501.00002-1.21746.14976-1.77734.44922-.40366.20835-.68361.52736-.83985.95703-.15626.41669-.23438 1.27606-.23437 2.57812v7.57813M-570.96875 562.42703v10.46875h5.82031c1.5104.00002 2.51952-.22785 3.02735-.68359.67706-.59894 1.05467-1.65363 1.13281-3.16406h.72266v9.21875h-.72266c-.18231-1.28905-.3646-2.11588-.54688-2.48047-.23439-.45572-.6185-.81379-1.15234-1.07422-.53387-.2604-1.35418-.39061-2.46094-.39063h-5.82031v8.73047c-.00001 1.17188.0521 1.88803.15625 2.14844.10416.2474.28645.44922.54688.60547.2604.14323.75519.21485 1.48437.21484h4.49219c1.49738.00001 2.58462-.10416 3.26172-.3125.67706-.20833 1.3281-.61848 1.95312-1.23047.80727-.80728 1.63409-2.02473 2.48047-3.65234h.78125l-2.28516 6.64063h-20.41015v-.72266h.9375c.625 0 1.21744-.14974 1.77734-.44922.41666-.20833.69661-.52083.83985-.9375.15624-.41666.23437-1.26953.23437-2.55859V565.5911c0-1.67967-.16928-2.71482-.50781-3.10547-.46876-.52081-1.25001-.78123-2.34375-.78125h-.9375v-.72266h20.41015l.29297 5.80078h-.76172c-.27345-1.3932-.57944-2.35024-.91796-2.87109-.32555-.52081-.81383-.91795-1.46485-1.19141-.52085-.19529-1.43882-.29294-2.7539-.29297h-7.26563M-536.57422 578.59891h-10.2539l-1.79688 4.17969c-.44271 1.02865-.66407 1.79687-.66406 2.30468-.00001.40365.18879.76172.5664 1.07422.39062.29948 1.22395.49479 2.5.58594v.72266h-8.33984v-.72266c1.10677-.19531 1.82291-.44922 2.14844-.76172.66406-.625 1.39973-1.89453 2.20703-3.80859l9.31641-21.79688h.68359l9.21875 22.03125c.74216 1.77084 1.41273 2.92318 2.01172 3.45703.61195.52084 1.4583.81381 2.53906.87891v.72266h-10.44922v-.72266c1.05467-.0521 1.7643-.22786 2.12891-.52734.37758-.29948.56638-.66406.5664-1.09375-.00002-.57292-.26043-1.47786-.78125-2.71485l-1.60156-3.80859m-.54687-1.44531-4.49219-10.70313-4.60938 10.70313h9.10157"/>
</g>
<path d="m-335.89 297.52 18.694 9.063-0.666 0.90127-0.70656 0.93874c-2.7013 3.6533-8.2002 8.7398-13.4 8.2691l-1.1098-0.22621-1.2971-0.54357-0.93123-0.76297-0.64022-0.91225-0.33401-1.1388-0.12746-1.2435 0.0287-1.3624 0.2484-1.3785 0.24475-1.4546c0.53705-1.8874 1.0978-4.9884 1.1845-7.0523l-0.0895-1.1935-0.42427-1.0175-0.67458-0.88608" fill="#005"/>
<path d="m-21.408 368.89c1.0391-0.76078 2.082-1.6195 3.1231-2.5418l1.0913-1.1594 1.0913-1.1594 1.0132-1.0999-2.4523-2.8971-2.5315-3.0011c-4.5776-6.2074-11.522-7.5312-17.489-9.6845l-2.6748-0.92068c-12.615-4.2938-10.914-8.1062-20.349-14.9l-2.2832-1.0545-1.3353-0.13342-0.46541 0.84714 0.16693 1.5157 0.40339 1.6642 0.40339 1.6642 0.0075 1.1442-0.70401 0.37168-1.7322-0.81688c-23.436-15.519-45.953-33.901-65.281-55.932l-2.1302-1.6638-0.14655 1.5901 1.5194 4.2645 2.7081 5.988c9.5011 18.23 12.64 27.156 29.999 38.109l4.1781 2.7332 4.3364 2.9412c12.14 7.9347 11.094 11.221 20.07 20.205l2.2083 1.6043 2.2821 0.89104 4.1684 1.2621 3.7801 1.8863 3.3896 2.1836 3.0782 2.5849 3.1574 2.6889 3.0012 2.8078 3.3938 2.8374 3.6271 2.4956 1.8039-0.22334 1.8809-0.44627 1.7226-0.65427 1.7236-0.49081c3.9198-1.5746 7.1292-3.2184 10.247-5.5008zm-39.49 10.843-2.9937-1.6636-2.9145-1.5596c-7.7412-4.581-15.486-9.2053-23.322-13.457l-2.9145-1.5596-5.9852-3.0003-6.1392-2.5544-3.1477-1.2178-0.70507 0.20821-0.30812 0.89169 0.0877 1.4117 0.24717 1.7831 0.16802 1.6792 0.01 1.4712-0.15196 0.77276-0.70722-0.11867-3.9438-2.9116-3.7897-3.3574c-12.891-13.264-17.819-22.641-34.557-26.918l-3.933-1.277c-11.62-2.8241-18.312-7.2971-29.059-14.511l-2.2084-1.6044-2.2864-1.5449-2.05-1.3963-2.2864-1.5449c-12.445-8.4256-15.328-9.0038-28.101-11.955l-1.8874-0.5345-1.8092-0.59396c-17.425-6.2042-13.006-24.052-20.801-35.912l-1.8221-2.5555-1.9794-2.6-1.7429-2.4515-0.77997 0.75806c-1.6666 1.5185-3.3286 2.7904-4.9954 4.2958l-0.93723 0.71352 1.1898 1.8869 1.269 1.9909 1.2679 1.8275 1.269 1.9909 1.269 1.9909 0.95441 1.9018 0.79818 2.0208 0.40554 1.9912-0.15084 0.93623-0.70186 0.69859-0.93723 0.71352-1.1737 0.56498-1.0956 0.50552-0.85913 0.65405-0.54458 0.74314 0.16264 0.86184 1.3481 2.095 1.5824 1.9166 1.8948 1.6787c19.287 11.365 10.569 23.969 23.66 28.971l2.2019 0.62358 2.0425 0.25212 2.1206 0.19266 2.1976-0.0302c16.277-0.80707 17.494-4.835 35.217 7.8523l3.6292 2.8225 3.5511 2.882 3.473 2.9414c5.7162 5.0647 11.332 10.219 17.055 15.272l3.473 2.9414 3.5511 2.882 3.549 2.5551 3.7062 2.5996 3.8614 2.3172 0.86342-5.8e-4 0.69971-1.0255 0.46005-1.6644 0.30168-1.8724 0.30062-2.0359 0.38196-1.605 0.54459-0.74313 0.70722 0.11867 2.4534 3.0606c3.8706 6.1083 5.0532 12.167 7.892 18.469l1.8286 3.5363 2.3753 3.12c5.9031 6.276 13.439 10.127 20.499 13.8l3.5457 2.0647 3.5468 2.2281 1.638-1.5756c6.8717-6.8807 16.35-12.743 26.356-14.644l2.1163-0.46119zm-76.488 54.451-1.9708-1.2923-1.8146-1.4113-1.7354-1.3073c-18.651-14.97-23.651-19.956-43.273-15.518l-1.882 0.2828-1.9612 0.1788-1.8039 0.22335c-8.373 0.58517-12.51-3.001-20.382-7.9748l-2.4426-1.426-2.4416-1.2625c-4.782-1.9449-9.7998-2.5012-14.624-3.652l-1.6509-0.38593-1.5728-0.44542-1.652-0.54942-1.4947-0.50487-1.4968-0.83178-1.4958-0.66835c-9.4003-5.2498-12.496-17.672-21.432-24.425l-2.2105-1.9313-2.2094-1.7678c-6.8675-5.4038-13.907-10.276-20.979-15.241l-2.3656-1.6489-2.2875-1.7084-2.3656-1.6489c-15.126-12.285-27.778-2.5479-36.59-25.699l-1.5878-2.7339-1.6638-2.3475-1.897-2.0056 1.1138 2.2733 0.80035 2.3477 0.56387 2.1992c1.4237 8.3391 2.2562 11.76 8.6036 19.242l3.3211 3.7142 3.243 3.7737 3.1649 3.8331 2.6941 3.863 1.989 4.0712 1.0464 3.9674 1e-3 0.16345-0.15403 0.44584c-0.0445 0.23806-0.0521 0.4528-0.153 0.60931-0.0841 0.13045-0.27056 0.2188-0.39051 0.29729l-0.0781 0.0595-0.62697 0.14876-1.6509-0.38594-2.0478-1.0694-0.15729-0.0445c-0.0838-0.049-0.15165-0.0979-0.23645-0.14854-1.3942-0.8321-2.9188-1.8651-4.4145-2.8818-0.0762-0.0571-0.16076-0.0906-0.23646-0.14853l-0.55208-0.4011c-0.65791-0.52679-1.2735-1.0962-1.8949-1.6787-11.072-10.382-16.492-29.224-19.82-41.915l-0.96619-3.6999-1.0443-3.6405-0.30279 1.709-0.38196 1.605c-1.0615 10.008-3.6244 7.957 1.8523 19.125l1.1973 3.0312 0.96084 2.8826 0.40982 2.645-0.45898 1.8279-1.7193 1.1446-1.8841-0.0441-0.0782 0.0595-0.0792-0.104-1.1031-0.63871-0.55209-0.40109-0.15835-0.20799-0.87308-1.471-0.23859-0.47547-0.55638-1.0549-0.79606-1.6939-1.1202-3.2541-1.1984-3.1946-1.1192-3.0906-1.2732-2.6448 0.64413 2.4666 0.48792 2.5855c0.11153 4.3258 1.0601 8.0007 2.5851 11.174 1.4922 3.9256 3.3605 6.1256 6.256 8.3796 0.0666 0.0519 0.16874 0.0966 0.23646 0.14855 4.4388 4.0863 10.02 7.3485 15.689 10.562 0.21 0.11899 0.42007 0.22248 0.63018 0.34163 3.2539 1.9632 6.5154 3.8944 9.6936 5.9268l1.8916 1.1883 1.6552 1.0398 3.4687 2.2876c0.86953 0.53662 1.6561 1.1285 2.4448 1.7529 0.76096 0.59514 1.4193 1.1808 2.1313 1.8273 1.4492 1.3245 2.7892 2.6854 4.1867 4.0409 1.3743 1.3239 2.7435 2.5318 4.2626 3.6545 0.79994 0.59531 1.5605 1.1007 2.4437 1.5894 0.83225 0.46756 1.5904 0.85829 2.5197 1.203l2.1249 0.84651 2.0468 0.90595c1.3722 0.46197 2.6484 0.8902 3.7768 1.3959 1.1482 0.51922 2.1945 1.1375 3.1509 1.7081 3.8336 2.2754 6.3873 4.9404 9.7086 8.2152 1.6563 1.6413 3.5494 3.4632 5.844 5.4076l2.5229 1.6934 2.7561 1.3516 0.94259 0.10379 0.23112-0.66877-0.24396-1.2928-0.15942-0.37146c-0.51158-1.9779-1.4451-3.7385-2.6257-5.3936-0.045-0.0737-0.0351-0.19542-0.0803-0.26747-0.0787-0.10748-0.15661-0.20584-0.23753-0.31199-1.2473-1.9175-2.5638-3.1767-3.9524-4.2193-0.23545-0.17679-0.46668-0.44418-0.71043-0.60909-7.8684-6.6429-17.862-10.46-12.421-14.857l1.2518-0.62443 1.178 0.0889 1.4155 0.40087 1.4155 0.40089 1.5738 0.60886c3.0954 1.3759 6.3782 3.5619 9.2988 5.5702l1.2614 0.84672 1.2604 0.68325 1.2647 1.3371 0.872 1.3075 0.71687 1.5899 0.63984 1.8128 0.0792 0.104 0.4034 1.6642 0.71794 1.7533 0.79498 1.5304 1.1855 1.2331 1.5792 1.4262 0.47399 0.46055c0.33303 0.31089 0.74437 0.64506 1.1052 0.96564 0.72819 0.68003 1.4921 1.3035 2.2105 1.9313 3.7717 3.2958 7.4387 5.8938 10.963 7.9177 0.19008 0.10915 0.36266 0.29517 0.55208 0.40109 0.14472 0.0894 0.25196 0.10685 0.39374 0.19308 2.1537 1.3093 3.9573 2.2628 5.0404 2.5696l1.8103 0.75741 1.9665 0.6385c1.3521 0.42287 2.6738 0.78694 4.0101 1.0541 0.0282 6e-3 0.0498-0.065 0.0781-0.0595 0.6109 0.1398 1.2035 0.31596 1.8082 0.43049 0.4096 0.0643 0.84885 0.13924 1.2572 0.19286 0.31338 0.051 0.63084 0.0587 0.9426 0.10379 0.71219 0.081 1.4119 0.13678 2.1206 0.19266 0.60864 0.0635 1.2031 0.06 1.806 0.10357 1.3111 0.0727 2.5458 0.15808 3.8474 0.19224 19.621 0.26203 36.508-7.3194 55.514 14.906l2.8439 2.7633 2.9209 2.5404 0.86021-0.49059c4.1732-1.8431 8.2719-4.0238 12.442-5.858l0.8602-0.4906zm-50.385 37.044c8.5066-6.5352 12.297-17.937 20.323-25l1.7183-1.3081-2.9124-1.2327-3.1488-1.3812-3.0707-1.4407-3.1509-1.7081c-8.7205-4.532-16.376-8.9548-25.429-11.525l-3.0664-0.78682-3.0643-0.45991c-5.18-0.87309-7.3404 0.0488-10.024 3.5243l-0.93723 0.71352-1.0186 0.2826-0.94154 0.0596-2.3603-0.83159c-4.8976-2.33-8.5141-7.5213-13.56-9.0613l-1.9654-0.47505-1.8071-0.26703c-4.3512-0.40669-7.9761 0.30272-12.573-2.0922l-1.8124-1.0843-1.5771-1.0993-1.7344-1.1438-1.5782-1.2627-1.7344-1.1438c-15.586-9.6285-36.915-11.678-52.579-22.233l-3.0782-2.5849-2.9231-2.8673c-26.488-32.654-26.893-3.0379-41.879-42.371l-1.5183-4.101-1.5975-4.205-1.912-4.2941-0.77996 0.75807-0.77781 1.085-1.7118 2.2889-0.93402 1.2039-0.77781 1.085-0.857 0.98097-0.77888 0.92153 0.48899 2.749 0.40984 2.645 0.40981 2.645 0.48792 2.5855 0.56711 2.6896 0.80141 2.5112 0.95867 2.5557 1.3503 2.4219c6.4406 11.163 16.891 22.349 27.272 29.179l2.05 1.3963 2.0489 1.2329 2.2051 1.114c23.667 10.015 30.944 12.222 54.888 27.21l2.9937 1.6636 5.8268 2.7923 2.6759 1.0841 2.6748 0.92067 2.5165 0.71265 5.4267 1.6184 3.8592 1.9903 2.8418 2.4364 2.0586 2.704 1.8243 2.8824 1.7472 3.1053 2.2982 3.343 3.0055 3.4617 0.55209 0.40108 0.62804 0.0147 0.46969-0.1933c1.9134-1.2333 2.7845-5.8062 4.5032-7.5352l0.70187-0.69859 0.54671-0.41623 0.70615-0.0448 0.70722 0.11875c7.8515 3.6756 9.2569 14.986 17.163 19.789l1.6552 1.0398 1.5771 1.0993c5.2036 3.0302 10.436 5.2496 15.749 7.7234l1.7322 0.81689 1.8103 0.75741 1.6541 0.87633 1.8114 0.92088 1.8756-1.2636zm65.101-55.311-6e-3 -0.81731-0.79712-1.8573-1.1138-2.2733-1.4294-2.5259c-4.546-7.6049-4.9207-7.7665-12.004-11.068l-1.2604-0.68326-1.1834-0.90617c-5.1332-4.26-7.1243-9.1247-13.655-11.454l-1.4155-0.40087-1.4166-0.56433-1.4155-0.40089c-17.5-3.6572-18.784-2.6797-37.206-11.923l-2.677-1.2476-1.3374-0.46034-1.3385-0.62379c-24.93-13.404-20.252 2.256-35.388-22.014l-2.3774-3.447-2.4544-3.224c-18.881-19.927-32.549-2.8124-60.028-32.989l-3.3981-3.4913-3.5543-3.3724-3.6335-3.4764-0.92973 1.8577c-3.0482 6.7692-9.5322 17.232-17.545 17.628l-2.4319 0.20865 2.204 0.95049 4.406 1.5741c12.905 4.4281 23.393 7.4177 36.047 14.777l3.3104 2.0796c15.664 9.9964 22.453 13.547 38.993 21.077l2.1281 1.3369 2.1292 1.5003 2.0521 1.7233 1.9751 1.9462 1.9762 2.1096c4.8144 7.3611 10.511 9.4704 17.58 11.587l3.381 0.87591 3.3018 0.77187c6.7318 1.4728 15.04 2.4286 21.624 5.8792l2.2073 1.4409 2.2864 1.5449 2.2854 1.3814c20.039 9.2351 31.626 5.2105 53.117 20.345l2.9177 2.05 2.9188 2.2134 2.525 2.0204 0.63019 0.34164zm-112.84 53.049-3.0793-2.7484-3.0804-2.9118c-39.879-37.086-40.865-41.369-87.26-56.12l-2.9123-1.2327-2.9904-1.1732-2.8332-1.1287c-10.698-3.9793-21.385-6.784-31.871-12.371l-2.7572-1.515-2.8364-1.619c-10.589-6.0074-23.892-9.3375-34.855-12.563l-2.5946-0.65319-2.3581-0.50469-2.0446-0.57903 2.9123 1.2327 3.1488 1.3812c33.908 15.682 62.53 26.209 96.722 38.731l4.4862 1.8415 4.4884 2.1685 4.3311 2.1239c21.897 10.528 30.122 26.187 46.989 43.573l1.178 0.0889 1.0988-0.0151c4.3472 0.28483 8.1876 0.8242 12.653 2.3596l2.3624 1.1585 1.102 0.47525zm84.732-161.76-0.39909-1.0104-2.1345-2.3176-3.6324-3.3129c-6.7314-6.6705-17.352-13.614-20.792-22.612l-0.79605-1.6939-0.87414-1.6344c-2.6809-4.7142-7.5996-5.957-11.746-7.6501l-1.9676-0.80196-1.8906-1.0249-1.6563-1.2033-2.6074-2.6147c-6.4422-9.0131-6.3863-8.1489-12.813-14.723l-0.47613-0.78746-0.31991-0.90639c-0.88861-3.3582-0.26505-4.9828-2.4888-8.4548l-1.6648-2.5109-1.821-2.392-1.7429-2.4515-1.4069 0.90682c-6.6484 4.0692-13.517 7.6028-19.858 12.16l-1.3278 1.0108 2.6032 1.9609 2.7594 1.842 2.8374 1.7825c7.2457 4.656 8.3606 5.6602 14.054 12.464l2.0489 1.2329 2.204 0.9505c5.5973 1.7842 8.2397 0.63337 14.078 4.2317l2.3635 1.322 4.7269 2.6439c15.389 9.2986 20.123 25.836 39.229 33.218l3.229 1.6487 2.2811 0.72759zm-40.336-58.331 0.77138-2.0658c-0.24299-36.074 21.972 2.3948 32.131-43.682l0.30278-1.709-2.922-2.7038c-5.7099-5.5556-11.467-11.082-17.143-16.684l-2.922-2.7038-0.78103 0.5946c-18.683 8.8351-19.57 25.425-31.199 42.151l-1.4786 1.947 2.8492 3.5806c4.993 6.3446 12.094 16.217 18.425 20.8l1.9654 0.47505z" fill-opacity=".32836"/>
<g fill="none">
<path transform="matrix(2.1448 -2.2425 2.2425 2.1448 548.51 -2024.5)" d="m-677.03 305.6-1.3698 8.5227v251.96h2.7396v-251.96l-1.3698-8.5227zm0.01747-7.519v7.7179" fill="none" stroke="#000" stroke-width=".42193"/>
</g>
<rect transform="scale(1 -1) rotate(46.275)" x="-266.64" y="19.895" width="15.92" height="9.055" rx="4.8991" fill="#fc0" stroke="#000" stroke-linecap="round" stroke-linejoin="round" stroke-width="1.3105"/>
<path transform="rotate(90)" d="m222.36-390h490v40h-490z" fill="#d40000"/>
<g fill="green">
<g fill="green">
<path transform="translate(60.464 46.292) scale(.83435)" d="m209.27 228.49c-82.829 55.752-137.77 152.95-137.77 263.56 0 172.92 134.17 313.24 299.5 313.24 165.33 0 299.53-140.33 299.53-313.24 0-114.15-58.51-214.07-145.82-268.83-19.972-9.6254-109.79-64.749 0 9.9443 27.871 18.103 52.915 40.936 73.368 67.654 50.724 64.739 73.047 152.25 61.484 235.08-11.212 85.658-60.059 164.26-128.96 211.32-67.714 47.292-154.87 61.453-233.51 39.81-83.922-22.091-155.9-86.607-191.61-168.92-38.302-86.028-33.719-191.16 10.395-273.8 22.158-42.643 54.816-78.766 93.398-105.64 109.05-81.635 27.966-29.223 0-10.176z"/>
<path transform="translate(60.464 46.292) scale(.83435)" d="m242.67 842.78c3e-3 -1.1536 58.147-30.154 68.561-34.196 14.373-5.5785 38.063-9.5925 46.46-7.8719l6.103 1.2505-6.8155 8.1576c-3.7485 4.4867-9.9766 10.358-13.84 13.048-9.3229 6.4904-32.133 14.252-49.595 16.876-12.301 1.8483-50.876 3.9231-50.873 2.7364zm231.51-0.6364c-26.108-1.5766-28.094-1.9407-52.434-9.6076-14.562-4.587-18.286-6.804-29.527-17.577l-12.864-12.328 5.6801-1.5908c14.613-4.0928 61.509 9.4077 82.048 23.62 3.9029 2.7007 9.3318 5.5788 12.064 6.3958 6.2279 1.862 23.847 10.869 23.847 12.19 0 0.54102-1.1178 0.83853-2.484 0.66112-1.3662-0.17744-13.215-0.97064-26.331-1.7627zm-284.18-34.931c-10.93-3.397-23.761-7.2895-28.514-8.6499l-8.6418-2.4735 14.603-2.528c8.0319-1.3904 23.271-4.3019 33.864-6.4699 29.541-6.0456 59.129-4.2895 78.27 4.6453l5.1169 2.3886-6.3893 5.7152c-16.736 14.97-53.884 18.072-88.309 7.3722zm295.24 2.3534c-14.215-5.2376-27.201-14.353-23.484-16.484 7.7664-4.4529 33.679-9.9327 46.97-9.9327 12.253 0 44.525 5.0578 75.312 11.803 5.8038 1.2716 3.3525 2.3925-22.051 10.084-24.93 7.5475-30.968 8.6435-47.268 8.5794-13.381-0.0526-21.752-1.2025-29.479-4.0496zm-164.37-16.422c-12.545-3.7241-38.648-33.995-43.407-50.338l-1.3726-4.7138 8.5828 4.486c4.7205 2.4673 14.765 6.6403 22.321 9.2733 25.131 8.7571 36.689 18.225 43.933 35.988l3.069 7.5253-13.441-0.18363c-7.3923-0.10098-16.251-1.0179-19.686-2.0376zm70.831-1.4063c0-5.5491 14.168-23.646 23.428-29.924 4.0865-2.7706 13.159-6.9644 20.161-9.3194 7.0021-2.355 17.137-6.4595 22.522-9.1212l9.7912-4.8393-1.2657 5.1667c-3.0582 12.484-22.433 37.762-34.492 45.002-6.9252 4.1579-12.319 5.5349-24.512 6.2581-14.703 0.87203-15.633 0.68029-15.633-3.2235zm-125.2-9.999c-21.477-7.8483-36.674-25.618-44.791-52.373-2.7458-9.0514-5.5459-20.409-6.2224-25.239l-1.23-8.7816 26.765 27.105c27.619 27.971 33.251 36.34 34.97 51.964 0.99941 9.0841-0.82439 10.491-9.4921 7.3239zm201.25-6.6985c2.3487-17.94 12.541-31.683 50.34-67.873l12.127-11.611-1.6136 10.458c-5.1701 33.508-22.247 62.688-42.279 72.244-5.5937 2.6684-12.3 4.8606-14.903 4.8716-4.3734 0.0184-4.6523-0.59604-3.6713-8.0894zm-311.54-12.008c-22.876-7.2728-28.8-10.287-50.701-25.802-12.126-8.5901-21.776-15.818-21.444-16.063 3.0026-2.2063 74.662 5.7953 80.939 9.0378 1.7212 0.88908 8.9422 4.5173 16.047 8.0627 7.1044 3.5454 16.407 9.5854 20.672 13.422l7.7545 6.9761-7.1329 3.0534c-11.854 5.0745-32.456 5.6606-46.134 1.3123zm394.75 1.6393c-4.7617-0.95911-9.9263-2.8224-11.477-4.1408-3.6581-3.1104-0.18046-7.2331 14.553-17.253 16.303-11.086 34.709-16.792 61.616-19.098 34.642-2.9699 44.056-3.3073 42.987-1.5408-2.2815 3.7708-43.21 30.369-52.763 34.289-22.279 9.1423-37.391 11.273-54.917 7.7433zm-357.47-26.929c-12.48-9.6484-23.701-26.083-26.348-38.591-1.2654-5.9795-1.9822-22.316-1.6298-37.142l0.62912-26.468 7.2622 14.252c3.9942 7.8385 9.6033 17.758 12.465 22.044 13.898 20.817 21.653 49.029 17.843 64.915l-1.799 7.501-8.4215-6.5105zm347.72-13.926c1.0517-21.957 4.4343-32.794 14.952-47.901 2.4708-3.5489 8.4169-13.978 13.214-23.175l8.7212-16.722 1.3916 17.115c1.6734 20.582-1.1245 46.984-6.1372 57.913-3.9152 8.5365-20.788 27.079-28.478 31.295l-4.6738 2.5627 1.0102-21.088zm-423.02-25.099c-6.7016-1.5186-15.191-4.3538-18.865-6.3004-11.991-6.3529-32.43-24.485-41.41-36.737-4.8356-6.5973-11.477-14.973-14.759-18.612-6.7312-7.464-6.3344-7.8113 4.2116-3.6864 4.1208 1.6118 12.518 3.9424 18.66 5.1792 12.829 2.5832 35.05 12.988 47.553 22.268 9.5016 7.0517 24.294 23.973 28.853 33.004 2.7113 5.3716 2.6646 5.8438-0.58024 5.8693-1.9408 0.0153-5.3172 0.42128-7.5032 0.9022-2.186 0.4809-9.4576-0.36809-16.159-1.8867zm487.63 1.5517c-3.0057-0.47604-5.4649-1.3286-5.4649-1.8947 0-4.0452 12.154-20.717 21.623-29.661 13.074-12.349 39.9-26.841 55.978-30.24 5.9576-1.2595 14.752-3.6104 19.543-5.2241 10.322-3.4768 12.554-2.4574 5.292 2.4174-2.8716 1.9276-8.2986 8.1851-12.06 13.906-11.625 17.678-17.975 23.74-42.391 40.471-9.2038 6.3064-32.258 11.851-42.518 10.226zm-471-27.048c-5.1529-6.1676-7.6176-11.897-10.103-23.486-1.8082-8.4305-3.2875-18.866-3.2875-23.19 0-11.322 7.2543-45.795 11.738-55.781 3.7732-8.4031 3.8275-8.4358 4.001-2.4107 0.0968 3.3594 3.2905 18.935 7.0972 34.611 4.3362 17.857 6.9308 33.499 6.9469 41.877 0.0254 13.23-4.3887 33.252-7.808 35.417-0.97279 0.61598-4.8357-2.5511-8.5843-7.0379zm463.81 2.4368c-8.0487-20.835-7.7419-34.456 1.6376-72.693 3.2962-13.437 6.0046-26.897 6.0186-29.91 0.0829-17.802 8.8026 2.3089 13.968 32.215 4.965 28.745-1.4696 62.238-13.743 71.535l-5.7542 4.3586-2.1269-5.5058zm-516.67-57.524c-14.246-5.1832-28.514-16.665-37.023-29.794-3.8378-5.9219-12.308-21.792-18.823-35.267l-11.845-24.5 9.3627 5.5151c5.1495 3.0333 14.589 9.2355 20.978 13.783 6.3883 4.5471 14.751 10.218 18.585 12.602 14.388 8.948 30.711 35.036 33.632 53.753 1.4755 9.4532 0.83471 9.6217-14.867 3.909zm564.1 1.0535c0-1.7158 2.8078-10.579 6.2395-19.696 7.0234-18.659 16.318-30.414 33.272-42.078 15.501-10.665 40.782-26.711 42.096-26.718 2.0973-0.012-23.946 51.851-30.839 61.413-8.0665 11.19-21.402 21.083-35.575 26.39-12.345 4.6228-15.194 4.752-15.194 0.68868zm-550.27-26.341c-5.348-14.644-5.4134-33.163-0.17843-50.528 4.2573-14.122 29.772-56.503 29.677-49.295-0.31342 23.697-4.2844 71.216-6.5706 78.626-3.9009 12.645-9.9097 24.407-14.768 28.908-3.93 3.6413-4.0591 3.5194-8.1604-7.7113zm543.78 7.5744c-4.7988-5.4593-12.594-22.799-15.178-33.763-2.0308-8.6163-6.588-74.764-5.2513-76.222 1.4869-1.6216 25.446 39.006 29.143 49.418 6.1216 17.24 6.0624 41.182-0.13462 54.459-2.4827 5.319-4.7241 9.6709-4.9809 9.6709s-1.8761-1.6033-3.5987-3.563zm-580.13-73c-18.171-12.26-28.431-32.977-34.277-69.215-1.6442-10.191-3.6303-20.269-4.4136-22.396-1.0927-2.9664 0.24473-2.4447 5.7462 2.2416 3.9437 3.3594 9.3561 7.6583 12.028 9.5532 8.3636 5.9325 29.679 38.436 33.575 51.198 4.4035 14.425 4.9574 35.957 0.92502 35.957-1.4872 0-7.5992-3.3028-13.582-7.3395zm609.15-7.8143c1.4721-17.842 6.0615-31.26 15.407-45.044 6.9901-10.311 36.952-41.6 39.835-41.6 0.89269 0 0.74112 2.3766-0.3368 5.2812-1.078 2.9047-3.2159 13.212-4.751 22.905-5.397 34.077-16.763 55.932-34.835 66.983-16.095 9.8418-16.802 9.4484-15.319-8.524zm-587.95-9.9892c-0.90263-7.4015-0.29538-15.067 1.8951-23.923 5.489-22.191 11.579-32.285 30.915-51.245 9.852-9.6599 17.913-17.096 17.913-16.525 0 0.57115-1.4299 5.7915-3.1777 11.601-9.674 32.156-15.722 49.789-19.294 56.249-5.4876 9.9248-23.679 34.734-25.468 34.734-0.80006 0-2.0523-4.901-2.7829-10.891zm571.86 1.0538c-16.119-19.585-24.792-39.507-39.15-89.925l-1.4495-5.0899 4.9322 5.0899c2.7127 2.7995 11.659 11.792 19.88 19.984 12.737 12.69 15.744 17.058 20.325 29.522 5.7167 15.553 8.4204 38.015 5.5126 45.796-1.6987 4.5458-2.0299 4.3686-10.05-5.3762zm-585.89-67.308c-15.861-9.9093-22.196-31.864-19.699-68.277 0.85016-12.4 1.5678-25.45 1.5948-29.001 0.04763-6.2758 0.23772-6.1341 6.8295 5.0899 3.7293 6.35 8.0187 12.951 9.5321 14.669 4.0869 4.6388 11.933 23.868 14.797 36.265 2.5172 10.896 1.8947 22.341-2.0265 37.26-2.3696 9.0159-2.7628 9.1584-11.028 3.995zm600.9-0.73103c-1.6129-2.9095-2.5448-12.381-2.554-25.959-0.0136-20.028 0.39127-22.213 6.414-34.612 3.5357-7.2786 10.335-19.408 15.109-26.954l8.6808-13.72 1.7038 19.828c2.9957 34.862 0.85514 54.292-7.7469 70.319-3.5268 6.5709-13.914 15.678-17.882 15.678-0.65227 0-2.3287-2.0614-3.7254-4.5809zm-581.85-12.841c0-17.214 9.8707-36.083 26.918-51.457 7.1772-6.4726 42.019-26.812 45.93-26.812 0.58641 0-1.7536 3.4357-5.2002 7.6349-3.4466 4.1992-11.642 15.881-18.212 25.959-13.16 20.185-26.155 34.882-38.863 43.952-10.122 7.2245-10.572 7.2553-10.572 0.72262zm563.35-0.15145c-11.781-7.9761-28.583-25.186-32.869-33.668-5.8602-11.596-15.892-26.44-23.12-34.21-3.6155-3.8866-6.5736-7.8405-6.5736-8.7865s9.0017 3.1029 20.004 8.9976c15.683 8.4026 22.751 13.702 32.725 24.533 12.679 13.77 15.521 19.772 19.826 41.874 1.5607 8.012 0.22959 8.1797-9.9922 1.2591zm-560.74-68.327c-12.869-22.345-12.371-36.868 2.8433-82.914l5.6614-17.135 6.718 20.879c5.2935 16.452 6.7131 24.187 6.6946 36.476-0.0256 17.114-5.4019 34.937-13.419 44.486l-4.4285 5.2747-4.0701-7.0675zm560.43 4.162c-1.1904-1.5147-4.7295-7.793-7.8648-13.952-5.3014-10.414-5.6916-12.766-5.5732-33.594 0.11362-19.988 0.78812-24.147 6.2729-38.683 3.7126-9.8394 6.6042-15.079 7.3041-13.234 8.7063 22.951 17.021 53.914 17.064 63.548 0.0388 8.6027-6.4456 27.797-11.589 34.304-2.8236 3.5725-3.8423 3.8647-5.6138 1.6105zm-540.03-12.425c6.844-22.112 35.125-43.245 68.738-51.363 19.757-4.7719 21.149-4.0322 9.4119 5.0031-5.7887 4.4562-13.703 11.149-17.588 14.873-16.637 15.948-49.101 35.997-58.368 36.048-2.843 0.0157-3.3099-0.95492-2.1938-4.561zm518.71 3.1177c-7.0734-1.8539-27.981-14.693-38.945-23.915-6.0114-5.0566-17.363-14.446-25.226-20.864-7.863-6.4189-13.992-11.982-13.62-12.363 1.8754-1.9214 26.935 4.6629 41.467 10.895 18.635 7.9918 33.913 21.065 40.814 34.922 6.3038 12.659 5.7671 14.013-4.4889 11.325zm-501.58-66.233c-3.0068-14.196-1.2423-31.277 4.4371-42.952 2.8075-5.771 10.844-17.623 17.86-26.337l12.755-15.845 1.389 13.289c3.0467 29.147-3.9287 53.385-20.09 69.809-5.7849 5.8789-11.418 10.689-12.518 10.689-1.1 0-2.8248-3.8938-3.8328-8.6529zm478.02-0.32829c-5.5752-5.268-11.682-13.827-14.873-20.847-4.844-10.656-5.4881-14.694-6.1204-38.377l-0.70672-26.468 7.6304 8.9765c22.119 26.021 28.134 37.252 29.786 55.616 1.0996 12.22-1.7828 30.106-4.8443 30.058-0.77759-0.0119-5.6703-4.0437-10.873-8.9594zm-448.31-7.4443c16.979-16.459 33.98-22.283 64.893-22.227 21.85 0.0394 25.727 2.1567 12.929 7.0607-5.2519 2.0124-16.703 7.2852-25.447 11.717-17.42 8.83-35.905 13.676-52.375 13.731l-10.643 0.0353 10.643-10.318zm410.08 7.424c-6.5579-1.372-20.419-6.6476-30.802-11.723-10.383-5.0759-22.223-10.458-26.311-11.959-10.707-3.9336-5.69-5.9312 14.989-5.9681 31.77-0.0566 51.913 7.3419 68.845 25.286l6.8484 7.258-10.823-0.19946c-5.9526-0.1097-16.188-1.322-22.746-2.6941zm-355.24-41.815c-4.1108-0.81673-8.0388-2.0635-8.729-2.7706-2.2539-2.3091 3.2107-6.9553 13.782-11.718 15.871-7.1504 40.567-6.7022 63.529 1.153 9.5636 3.2717 17.388 6.6757 17.388 7.5646 0 0.88888-3.3535 1.6238-7.4521 1.6331-4.0987 9e-3 -17.289 1.3657-29.312 3.0142-23.329 3.1988-37.171 3.5148-49.206 1.1235zm281.71-0.0414c-6.5579-0.91369-19.345-2.3515-28.415-3.1952-9.0704-0.8437-15.777-2.25-14.904-3.125 3.3561-3.3641 32.091-11.9 44.414-13.193 14.916-1.5657 34.527 2.66 43.825 9.4434 6.6239 4.8323 7.1764 6.9979 2.2774 8.9267-5.681 2.2366-34.364 2.9317-47.197 1.1437zm-309.88-7.3816c-4.3509-17.76 8.6787-39.786 33.843-57.209 6.456-4.4699 13.656-9.1632 16-10.429l4.2624-2.3023-3.5437 14.115c-4.9864 19.861-10.588 30.671-22.106 42.658-8.1541 8.4869-22.371 18.472-26.3 18.472-0.47157 0-1.4421-2.387-2.1568-5.3043zm368.31 1.2428c-9.3393-5.0502-27.283-25.233-31.885-35.863-3.8017-8.7822-10.433-33.265-9.3066-34.362 0.36071-0.35141 7.1394 3.6617 15.064 8.918 16.033 10.635 33.312 30.016 36.491 40.93 2.4179 8.3016 1.6697 22.847-1.218 23.677-1.093 0.31409-5.2085-1.1708-9.1456-3.2998zm-304.76-37.167c4.1447-19.718 14.403-27.83 45.625-36.078 7.6509-2.0212 15.566-4.3695 17.589-5.2184 6.9773-2.9277-2.0712 10.834-17.552 26.694-14.871 15.236-26.516 21.219-41.295 21.219-5.4577 0-5.6862-0.34606-4.3681-6.6169zm231.57 3.2641c-4.844-1.7371-12.343-6.0453-16.664-9.5737-7.3708-6.0182-29.697-34.048-28.278-35.501 0.35701-0.36574 4.9954 0.71431 10.308 2.4001 5.3122 1.6858 15.346 4.715 22.296 6.7317 19.354 5.6153 34.062 20.797 34.062 35.159 0 3.3304-1.2597 4.1184-6.4586 4.0401-3.5522-0.0535-10.422-1.5185-15.266-3.2556z"/>
</g>
</g>
<g fill="#e3e4e5" fill-rule="evenodd" stroke="#000">
<path transform="matrix(.51396 0 0 .51396 502.13 199.06)" d="m-884.89 1093.7s-1.9242 1.044-0.28598 6.284c1.4736 4.7136 6.7001 9.4502 6.7001 9.4502l31.274-0.1208 31.254 0.1208c-1e-5 0 5.2265-4.7366 6.7001-9.4502 1.6382-5.24-0.26555-6.284-0.26555-6.284h-75.376z" stroke-width=".92101px"/>
<path transform="matrix(.51396 0 0 .51396 502.13 199.06)" d="m-880.46 1117.4c0.49013 0.5349 0.53776 1.2712 0.60916 2.7086 0 0-2.8653 148.13-3.912 336.39-1.0467 188.27-0.27467 376.54-0.27467 376.54-0.0423 1.5192-0.66251 3.9394-2.2041 5.0914h78.052c-1.5416-1.152-2.1507-3.5722-2.193-5.0914 0 0 0.31455-188.27-0.73489-376.54-1.0494-188.27-3.4629-336.39-3.4629-336.39 0.0714-1.4374 0.11905-2.1737 0.60918-2.7086h-66.488z"/>
<path transform="matrix(.51396 0 0 .51396 502.13 199.06)" d="m-888.38 1842h82.339c4.2915 0 7.7464 3.614 7.7464 8.1032s-3.4549 8.1032-7.7464 8.1032h-82.339c-4.2915 0-7.7464-3.614-7.7464-8.1032s3.4549-8.1032 7.7464-8.1032zm8.0028-732.79h66.333c1.185 0 2.1389 1.0717 2.1389 2.4029v0.926c0 1.3312-0.95395 2.4029-2.1389 2.4029h-66.333c-1.185 0-2.1389-1.0717-2.1389-2.4029v-0.926c0-1.3312 0.95397-2.4029 2.1389-2.4029z"/>
<path transform="matrix(.51396 0 0 .51396 502.13 199.06)" d="m-889.47 1838.3h84.519v3.7476h-84.519zm-8.5029 18.738h101.53v19.249h-101.53z" stroke-linecap="round" stroke-linejoin="round"/>
<path transform="matrix(.51396 0 0 .51396 502.13 199.06)" d="m-881.45 1117.9h68.311l0.28334-2.6333h-68.722l0.12788 2.6333z" stroke-linecap="round" stroke-linejoin="round" stroke-width="1px"/>
<path transform="matrix(.51396 0 0 .51396 540.17 199.06)" d="m-884.89 1093.7s-1.9242 1.044-0.28598 6.284c1.4736 4.7136 6.7001 9.4502 6.7001 9.4502l31.274-0.1208 31.254 0.1208c-1e-5 0 5.2265-4.7366 6.7001-9.4502 1.6382-5.24-0.26555-6.284-0.26555-6.284h-75.376z" stroke-width=".92101px"/>
<path transform="matrix(.51396 0 0 .51396 540.17 199.06)" d="m-880.46 1117.4c0.49013 0.5349 0.53776 1.2712 0.60916 2.7086 0 0-2.8653 148.13-3.912 336.39-1.0467 188.27-0.27467 376.54-0.27467 376.54-0.0423 1.5192-0.66251 3.9394-2.2041 5.0914h78.052c-1.5416-1.152-2.1507-3.5722-2.193-5.0914 0 0 0.31455-188.27-0.73489-376.54-1.0494-188.27-3.4629-336.39-3.4629-336.39 0.0714-1.4374 0.11905-2.1737 0.60918-2.7086h-66.488z"/>
<path transform="matrix(.51396 0 0 .51396 540.17 199.06)" d="m-888.38 1842h82.339c4.2915 0 7.7464 3.614 7.7464 8.1032s-3.4549 8.1032-7.7464 8.1032h-82.339c-4.2915 0-7.7464-3.614-7.7464-8.1032s3.4549-8.1032 7.7464-8.1032zm8.0028-732.79h66.333c1.185 0 2.1389 1.0717 2.1389 2.4029v0.926c0 1.3312-0.95395 2.4029-2.1389 2.4029h-66.333c-1.185 0-2.1389-1.0717-2.1389-2.4029v-0.926c0-1.3312 0.95397-2.4029 2.1389-2.4029z"/>
<path transform="matrix(.51396 0 0 .51396 540.17 199.06)" d="m-889.47 1838.3h84.519v3.7476h-84.519zm-8.5029 18.738h101.53v19.249h-101.53z" stroke-linecap="round" stroke-linejoin="round"/>
<path transform="matrix(.51396 0 0 .51396 540.17 199.06)" d="m-881.45 1117.9h68.311l0.28334-2.6333h-68.722l0.12788 2.6333z" stroke-linecap="round" stroke-linejoin="round" stroke-width="1px"/>
<path transform="matrix(.51396 0 0 .51396 578.2 199.06)" d="m-884.89 1093.7s-1.9242 1.044-0.28598 6.284c1.4736 4.7136 6.7001 9.4502 6.7001 9.4502l31.274-0.1208 31.254 0.1208c-1e-5 0 5.2265-4.7366 6.7001-9.4502 1.6382-5.24-0.26555-6.284-0.26555-6.284h-75.376z" stroke-width=".92101px"/>
<path transform="matrix(.51396 0 0 .51396 578.2 199.06)" d="m-880.46 1117.4c0.49013 0.5349 0.53776 1.2712 0.60916 2.7086 0 0-2.8653 148.13-3.912 336.39-1.0467 188.27-0.27467 376.54-0.27467 376.54-0.0423 1.5192-0.66251 3.9394-2.2041 5.0914h78.052c-1.5416-1.152-2.1507-3.5722-2.193-5.0914 0 0 0.31455-188.27-0.73489-376.54-1.0494-188.27-3.4629-336.39-3.4629-336.39 0.0714-1.4374 0.11905-2.1737 0.60918-2.7086h-66.488z"/>
<path transform="matrix(.51396 0 0 .51396 578.2 199.06)" d="m-888.38 1842h82.339c4.2915 0 7.7464 3.614 7.7464 8.1032s-3.4549 8.1032-7.7464 8.1032h-82.339c-4.2915 0-7.7464-3.614-7.7464-8.1032s3.4549-8.1032 7.7464-8.1032zm8.0028-732.79h66.333c1.185 0 2.1389 1.0717 2.1389 2.4029v0.926c0 1.3312-0.95395 2.4029-2.1389 2.4029h-66.333c-1.185 0-2.1389-1.0717-2.1389-2.4029v-0.926c0-1.3312 0.95397-2.4029 2.1389-2.4029z"/>
<path transform="matrix(.51396 0 0 .51396 578.2 199.06)" d="m-889.47 1838.3h84.519v3.7476h-84.519zm-8.5029 18.738h101.53v19.249h-101.53z" stroke-linecap="round" stroke-linejoin="round"/>
<path transform="matrix(.51396 0 0 .51396 578.2 199.06)" d="m-881.45 1117.9h68.311l0.28334-2.6333h-68.722l0.12788 2.6333z" stroke-linecap="round" stroke-linejoin="round" stroke-width="1px"/>
<path transform="matrix(.51396 0 0 .51396 616.23 199.06)" d="m-884.89 1093.7s-1.9242 1.044-0.28598 6.284c1.4736 4.7136 6.7001 9.4502 6.7001 9.4502l31.274-0.1208 31.254 0.1208c-1e-5 0 5.2265-4.7366 6.7001-9.4502 1.6382-5.24-0.26555-6.284-0.26555-6.284h-75.376z" stroke-width=".92101px"/>
<path transform="matrix(.51396 0 0 .51396 616.23 199.06)" d="m-880.46 1117.4c0.49013 0.5349 0.53776 1.2712 0.60916 2.7086 0 0-2.8653 148.13-3.912 336.39-1.0467 188.27-0.27467 376.54-0.27467 376.54-0.0423 1.5192-0.66251 3.9394-2.2041 5.0914h78.052c-1.5416-1.152-2.1507-3.5722-2.193-5.0914 0 0 0.31455-188.27-0.73489-376.54-1.0494-188.27-3.4629-336.39-3.4629-336.39 0.0714-1.4374 0.11905-2.1737 0.60918-2.7086h-66.488z"/>
<path transform="matrix(.51396 0 0 .51396 616.23 199.06)" d="m-888.38 1842h82.339c4.2915 0 7.7464 3.614 7.7464 8.1032s-3.4549 8.1032-7.7464 8.1032h-82.339c-4.2915 0-7.7464-3.614-7.7464-8.1032s3.4549-8.1032 7.7464-8.1032zm8.0028-732.79h66.333c1.185 0 2.1389 1.0717 2.1389 2.4029v0.926c0 1.3312-0.95395 2.4029-2.1389 2.4029h-66.333c-1.185 0-2.1389-1.0717-2.1389-2.4029v-0.926c0-1.3312 0.95397-2.4029 2.1389-2.4029z"/>
<path transform="matrix(.51396 0 0 .51396 616.23 199.06)" d="m-889.47 1838.3h84.519v3.7476h-84.519zm-8.5029 18.738h101.53v19.249h-101.53z" stroke-linecap="round" stroke-linejoin="round"/>
<path transform="matrix(.51396 0 0 .51396 616.23 199.06)" d="m-881.45 1117.9h68.311l0.28334-2.6333h-68.722l0.12788 2.6333z" stroke-linecap="round" stroke-linejoin="round" stroke-width="1px"/>
<path transform="matrix(.51396 0 0 .51396 654.27 199.06)" d="m-884.89 1093.7s-1.9242 1.044-0.28598 6.284c1.4736 4.7136 6.7001 9.4502 6.7001 9.4502l31.274-0.1208 31.254 0.1208c-1e-5 0 5.2265-4.7366 6.7001-9.4502 1.6382-5.24-0.26555-6.284-0.26555-6.284h-75.376z" stroke-width=".92101px"/>
<path transform="matrix(.51396 0 0 .51396 654.27 199.06)" d="m-880.46 1117.4c0.49013 0.5349 0.53776 1.2712 0.60916 2.7086 0 0-2.8653 148.13-3.912 336.39-1.0467 188.27-0.27467 376.54-0.27467 376.54-0.0423 1.5192-0.66251 3.9394-2.2041 5.0914h78.052c-1.5416-1.152-2.1507-3.5722-2.193-5.0914 0 0 0.31455-188.27-0.73489-376.54-1.0494-188.27-3.4629-336.39-3.4629-336.39 0.0714-1.4374 0.11905-2.1737 0.60918-2.7086h-66.488z"/>
<path transform="matrix(.51396 0 0 .51396 654.27 199.06)" d="m-888.38 1842h82.339c4.2915 0 7.7464 3.614 7.7464 8.1032s-3.4549 8.1032-7.7464 8.1032h-82.339c-4.2915 0-7.7464-3.614-7.7464-8.1032s3.4549-8.1032 7.7464-8.1032zm8.0028-732.79h66.333c1.185 0 2.1389 1.0717 2.1389 2.4029v0.926c0 1.3312-0.95395 2.4029-2.1389 2.4029h-66.333c-1.185 0-2.1389-1.0717-2.1389-2.4029v-0.926c0-1.3312 0.95397-2.4029 2.1389-2.4029z"/>
<path transform="matrix(.51396 0 0 .51396 654.27 199.06)" d="m-889.47 1838.3h84.519v3.7476h-84.519zm-8.5029 18.738h101.53v19.249h-101.53z" stroke-linecap="round" stroke-linejoin="round"/>
<path transform="matrix(.51396 0 0 .51396 654.27 199.06)" d="m-881.45 1117.9h68.311l0.28334-2.6333h-68.722l0.12788 2.6333z" stroke-linecap="round" stroke-linejoin="round" stroke-width="1px"/>
<path transform="matrix(.51396 0 0 .51396 692.3 199.06)" d="m-884.89 1093.7s-1.9242 1.044-0.28598 6.284c1.4736 4.7136 6.7001 9.4502 6.7001 9.4502l31.274-0.1208 31.254 0.1208c-1e-5 0 5.2265-4.7366 6.7001-9.4502 1.6382-5.24-0.26555-6.284-0.26555-6.284h-75.376z" stroke-width=".92101px"/>
<path transform="matrix(.51396 0 0 .51396 692.3 199.06)" d="m-880.46 1117.4c0.49013 0.5349 0.53776 1.2712 0.60916 2.7086 0 0-2.8653 148.13-3.912 336.39-1.0467 188.27-0.27467 376.54-0.27467 376.54-0.0423 1.5192-0.66251 3.9394-2.2041 5.0914h78.052c-1.5416-1.152-2.1507-3.5722-2.193-5.0914 0 0 0.31455-188.27-0.73489-376.54-1.0494-188.27-3.4629-336.39-3.4629-336.39 0.0714-1.4374 0.11905-2.1737 0.60918-2.7086h-66.488z"/>
<path transform="matrix(.51396 0 0 .51396 692.3 199.06)" d="m-888.38 1842h82.339c4.2915 0 7.7464 3.614 7.7464 8.1032s-3.4549 8.1032-7.7464 8.1032h-82.339c-4.2915 0-7.7464-3.614-7.7464-8.1032s3.4549-8.1032 7.7464-8.1032zm8.0028-732.79h66.333c1.185 0 2.1389 1.0717 2.1389 2.4029v0.926c0 1.3312-0.95395 2.4029-2.1389 2.4029h-66.333c-1.185 0-2.1389-1.0717-2.1389-2.4029v-0.926c0-1.3312 0.95397-2.4029 2.1389-2.4029z"/>
<path transform="matrix(.51396 0 0 .51396 692.3 199.06)" d="m-889.47 1838.3h84.519v3.7476h-84.519zm-8.5029 18.738h101.53v19.249h-101.53z" stroke-linecap="round" stroke-linejoin="round"/>
<path transform="matrix(.51396 0 0 .51396 692.3 199.06)" d="m-881.45 1117.9h68.311l0.28334-2.6333h-68.722l0.12788 2.6333z" stroke-linecap="round" stroke-linejoin="round" stroke-width="1px"/>
<path transform="matrix(.51396 0 0 .51396 844.43 199.06)" d="m-884.89 1093.7s-1.9242 1.044-0.28598 6.284c1.4736 4.7136 6.7001 9.4502 6.7001 9.4502l31.274-0.1208 31.254 0.1208c-1e-5 0 5.2265-4.7366 6.7001-9.4502 1.6382-5.24-0.26555-6.284-0.26555-6.284h-75.376z" stroke-width=".92101px"/>
<path transform="matrix(.51396 0 0 .51396 844.43 199.06)" d="m-880.46 1117.4c0.49013 0.5349 0.53776 1.2712 0.60916 2.7086 0 0-2.8653 148.13-3.912 336.39-1.0467 188.27-0.27467 376.54-0.27467 376.54-0.0423 1.5192-0.66251 3.9394-2.2041 5.0914h78.052c-1.5416-1.152-2.1507-3.5722-2.193-5.0914 0 0 0.31455-188.27-0.73489-376.54-1.0494-188.27-3.4629-336.39-3.4629-336.39 0.0714-1.4374 0.11905-2.1737 0.60918-2.7086h-66.488z"/>
<path transform="matrix(.51396 0 0 .51396 844.43 199.06)" d="m-888.38 1842h82.339c4.2915 0 7.7464 3.614 7.7464 8.1032s-3.4549 8.1032-7.7464 8.1032h-82.339c-4.2915 0-7.7464-3.614-7.7464-8.1032s3.4549-8.1032 7.7464-8.1032zm8.0028-732.79h66.333c1.185 0 2.1389 1.0717 2.1389 2.4029v0.926c0 1.3312-0.95395 2.4029-2.1389 2.4029h-66.333c-1.185 0-2.1389-1.0717-2.1389-2.4029v-0.926c0-1.3312 0.95397-2.4029 2.1389-2.4029z"/>
<path transform="matrix(.51396 0 0 .51396 844.43 199.06)" d="m-889.47 1838.3h84.519v3.7476h-84.519zm-8.5029 18.738h101.53v19.249h-101.53z" stroke-linecap="round" stroke-linejoin="round"/>
<path transform="matrix(.51396 0 0 .51396 844.43 199.06)" d="m-881.45 1117.9h68.311l0.28334-2.6333h-68.722l0.12788 2.6333z" stroke-linecap="round" stroke-linejoin="round" stroke-width="1px"/>
<path transform="matrix(.51396 0 0 .51396 882.47 199.06)" d="m-884.89 1093.7s-1.9242 1.044-0.28598 6.284c1.4736 4.7136 6.7001 9.4502 6.7001 9.4502l31.274-0.1208 31.254 0.1208c-1e-5 0 5.2265-4.7366 6.7001-9.4502 1.6382-5.24-0.26555-6.284-0.26555-6.284h-75.376z" stroke-width=".92101px"/>
<path transform="matrix(.51396 0 0 .51396 882.47 199.06)" d="m-880.46 1117.4c0.49013 0.5349 0.53776 1.2712 0.60916 2.7086 0 0-2.8653 148.13-3.912 336.39-1.0467 188.27-0.27467 376.54-0.27467 376.54-0.0423 1.5192-0.66251 3.9394-2.2041 5.0914h78.052c-1.5416-1.152-2.1507-3.5722-2.193-5.0914 0 0 0.31455-188.27-0.73489-376.54-1.0494-188.27-3.4629-336.39-3.4629-336.39 0.0714-1.4374 0.11905-2.1737 0.60918-2.7086h-66.488z"/>
<path transform="matrix(.51396 0 0 .51396 882.47 199.06)" d="m-888.38 1842h82.339c4.2915 0 7.7464 3.614 7.7464 8.1032s-3.4549 8.1032-7.7464 8.1032h-82.339c-4.2915 0-7.7464-3.614-7.7464-8.1032s3.4549-8.1032 7.7464-8.1032zm8.0028-732.79h66.333c1.185 0 2.1389 1.0717 2.1389 2.4029v0.926c0 1.3312-0.95395 2.4029-2.1389 2.4029h-66.333c-1.185 0-2.1389-1.0717-2.1389-2.4029v-0.926c0-1.3312 0.95397-2.4029 2.1389-2.4029z"/>
<path transform="matrix(.51396 0 0 .51396 882.47 199.06)" d="m-889.47 1838.3h84.519v3.7476h-84.519zm-8.5029 18.738h101.53v19.249h-101.53z" stroke-linecap="round" stroke-linejoin="round"/>
<path transform="matrix(.51396 0 0 .51396 882.47 199.06)" d="m-881.45 1117.9h68.311l0.28334-2.6333h-68.722l0.12788 2.6333z" stroke-linecap="round" stroke-linejoin="round" stroke-width="1px"/>
<path transform="matrix(.51396 0 0 .51396 920.5 199.06)" d="m-884.89 1093.7s-1.9242 1.044-0.28598 6.284c1.4736 4.7136 6.7001 9.4502 6.7001 9.4502l31.274-0.1208 31.254 0.1208c-1e-5 0 5.2265-4.7366 6.7001-9.4502 1.6382-5.24-0.26555-6.284-0.26555-6.284h-75.376z" stroke-width=".92101px"/>
<path transform="matrix(.51396 0 0 .51396 920.5 199.06)" d="m-880.46 1117.4c0.49013 0.5349 0.53776 1.2712 0.60916 2.7086 0 0-2.8653 148.13-3.912 336.39-1.0467 188.27-0.27467 376.54-0.27467 376.54-0.0423 1.5192-0.66251 3.9394-2.2041 5.0914h78.052c-1.5416-1.152-2.1507-3.5722-2.193-5.0914 0 0 0.31455-188.27-0.73489-376.54-1.0494-188.27-3.4629-336.39-3.4629-336.39 0.0714-1.4374 0.11905-2.1737 0.60918-2.7086h-66.488z"/>
<path transform="matrix(.51396 0 0 .51396 920.5 199.06)" d="m-888.38 1842h82.339c4.2915 0 7.7464 3.614 7.7464 8.1032s-3.4549 8.1032-7.7464 8.1032h-82.339c-4.2915 0-7.7464-3.614-7.7464-8.1032s3.4549-8.1032 7.7464-8.1032zm8.0028-732.79h66.333c1.185 0 2.1389 1.0717 2.1389 2.4029v0.926c0 1.3312-0.95395 2.4029-2.1389 2.4029h-66.333c-1.185 0-2.1389-1.0717-2.1389-2.4029v-0.926c0-1.3312 0.95397-2.4029 2.1389-2.4029z"/>
<path transform="matrix(.51396 0 0 .51396 920.5 199.06)" d="m-889.47 1838.3h84.519v3.7476h-84.519zm-8.5029 18.738h101.53v19.249h-101.53z" stroke-linecap="round" stroke-linejoin="round"/>
<path transform="matrix(.51396 0 0 .51396 920.5 199.06)" d="m-881.45 1117.9h68.311l0.28334-2.6333h-68.722l0.12788 2.6333z" stroke-linecap="round" stroke-linejoin="round" stroke-width="1px"/>
<path transform="matrix(.51396 0 0 .51396 958.53 199.06)" d="m-884.89 1093.7s-1.9242 1.044-0.28598 6.284c1.4736 4.7136 6.7001 9.4502 6.7001 9.4502l31.274-0.1208 31.254 0.1208c-1e-5 0 5.2265-4.7366 6.7001-9.4502 1.6382-5.24-0.26555-6.284-0.26555-6.284h-75.376z" stroke-width=".92101px"/>
<path transform="matrix(.51396 0 0 .51396 958.53 199.06)" d="m-880.46 1117.4c0.49013 0.5349 0.53776 1.2712 0.60916 2.7086 0 0-2.8653 148.13-3.912 336.39-1.0467 188.27-0.27467 376.54-0.27467 376.54-0.0423 1.5192-0.66251 3.9394-2.2041 5.0914h78.052c-1.5416-1.152-2.1507-3.5722-2.193-5.0914 0 0 0.31455-188.27-0.73489-376.54-1.0494-188.27-3.4629-336.39-3.4629-336.39 0.0714-1.4374 0.11905-2.1737 0.60918-2.7086h-66.488z"/>
<path transform="matrix(.51396 0 0 .51396 958.53 199.06)" d="m-888.38 1842h82.339c4.2915 0 7.7464 3.614 7.7464 8.1032s-3.4549 8.1032-7.7464 8.1032h-82.339c-4.2915 0-7.7464-3.614-7.7464-8.1032s3.4549-8.1032 7.7464-8.1032zm8.0028-732.79h66.333c1.185 0 2.1389 1.0717 2.1389 2.4029v0.926c0 1.3312-0.95395 2.4029-2.1389 2.4029h-66.333c-1.185 0-2.1389-1.0717-2.1389-2.4029v-0.926c0-1.3312 0.95397-2.4029 2.1389-2.4029z"/>
<path transform="matrix(.51396 0 0 .51396 958.53 199.06)" d="m-889.47 1838.3h84.519v3.7476h-84.519zm-8.5029 18.738h101.53v19.249h-101.53z" stroke-linecap="round" stroke-linejoin="round"/>
<path transform="matrix(.51396 0 0 .51396 958.53 199.06)" d="m-881.45 1117.9h68.311l0.28334-2.6333h-68.722l0.12788 2.6333z" stroke-linecap="round" stroke-linejoin="round" stroke-width="1px"/>
<path transform="matrix(.51396 0 0 .51396 996.57 199.06)" d="m-884.89 1093.7s-1.9242 1.044-0.28598 6.284c1.4736 4.7136 6.7001 9.4502 6.7001 9.4502l31.274-0.1208 31.254 0.1208c-1e-5 0 5.2265-4.7366 6.7001-9.4502 1.6382-5.24-0.26555-6.284-0.26555-6.284h-75.376z" stroke-width=".92101px"/>
<path transform="matrix(.51396 0 0 .51396 996.57 199.06)" d="m-880.46 1117.4c0.49013 0.5349 0.53776 1.2712 0.60916 2.7086 0 0-2.8653 148.13-3.912 336.39-1.0467 188.27-0.27467 376.54-0.27467 376.54-0.0423 1.5192-0.66251 3.9394-2.2041 5.0914h78.052c-1.5416-1.152-2.1507-3.5722-2.193-5.0914 0 0 0.31455-188.27-0.73489-376.54-1.0494-188.27-3.4629-336.39-3.4629-336.39 0.0714-1.4374 0.11905-2.1737 0.60918-2.7086h-66.488z"/>
<path transform="matrix(.51396 0 0 .51396 996.57 199.06)" d="m-888.38 1842h82.339c4.2915 0 7.7464 3.614 7.7464 8.1032s-3.4549 8.1032-7.7464 8.1032h-82.339c-4.2915 0-7.7464-3.614-7.7464-8.1032s3.4549-8.1032 7.7464-8.1032zm8.0028-732.79h66.333c1.185 0 2.1389 1.0717 2.1389 2.4029v0.926c0 1.3312-0.95395 2.4029-2.1389 2.4029h-66.333c-1.185 0-2.1389-1.0717-2.1389-2.4029v-0.926c0-1.3312 0.95397-2.4029 2.1389-2.4029z"/>
<path transform="matrix(.51396 0 0 .51396 996.57 199.06)" d="m-889.47 1838.3h84.519v3.7476h-84.519zm-8.5029 18.738h101.53v19.249h-101.53z" stroke-linecap="round" stroke-linejoin="round"/>
<path transform="matrix(.51396 0 0 .51396 996.57 199.06)" d="m-881.45 1117.9h68.311l0.28334-2.6333h-68.722l0.12788 2.6333z" stroke-linecap="round" stroke-linejoin="round" stroke-width="1px"/>
<path transform="matrix(.51396 0 0 .51396 1034.6 199.06)" d="m-884.89 1093.7s-1.9242 1.044-0.28598 6.284c1.4736 4.7136 6.7001 9.4502 6.7001 9.4502l31.274-0.1208 31.254 0.1208c-1e-5 0 5.2265-4.7366 6.7001-9.4502 1.6382-5.24-0.26555-6.284-0.26555-6.284h-75.376z" stroke-width=".92101px"/>
<path transform="matrix(.51396 0 0 .51396 1034.6 199.06)" d="m-880.46 1117.4c0.49013 0.5349 0.53776 1.2712 0.60916 2.7086 0 0-2.8653 148.13-3.912 336.39-1.0467 188.27-0.27467 376.54-0.27467 376.54-0.0423 1.5192-0.66251 3.9394-2.2041 5.0914h78.052c-1.5416-1.152-2.1507-3.5722-2.193-5.0914 0 0 0.31455-188.27-0.73489-376.54-1.0494-188.27-3.4629-336.39-3.4629-336.39 0.0714-1.4374 0.11905-2.1737 0.60918-2.7086h-66.488z"/>
<path transform="matrix(.51396 0 0 .51396 1034.6 199.06)" d="m-888.38 1842h82.339c4.2915 0 7.7464 3.614 7.7464 8.1032s-3.4549 8.1032-7.7464 8.1032h-82.339c-4.2915 0-7.7464-3.614-7.7464-8.1032s3.4549-8.1032 7.7464-8.1032zm8.0028-732.79h66.333c1.185 0 2.1389 1.0717 2.1389 2.4029v0.926c0 1.3312-0.95395 2.4029-2.1389 2.4029h-66.333c-1.185 0-2.1389-1.0717-2.1389-2.4029v-0.926c0-1.3312 0.95397-2.4029 2.1389-2.4029z"/>
<path transform="matrix(.51396 0 0 .51396 1034.6 199.06)" d="m-889.47 1838.3h84.519v3.7476h-84.519zm-8.5029 18.738h101.53v19.249h-101.53z" stroke-linecap="round" stroke-linejoin="round"/>
<path transform="matrix(.51396 0 0 .51396 1034.6 199.06)" d="m-881.45 1117.9h68.311l0.28334-2.6333h-68.722l0.12788 2.6333z" stroke-linecap="round" stroke-linejoin="round" stroke-width="1px"/>
<path transform="matrix(.51396 0 0 .51396 1072.6 199.06)" d="m-884.89 1093.7s-1.9242 1.044-0.28598 6.284c1.4736 4.7136 6.7001 9.4502 6.7001 9.4502l31.274-0.1208 31.254 0.1208c-1e-5 0 5.2265-4.7366 6.7001-9.4502 1.6382-5.24-0.26555-6.284-0.26555-6.284h-75.376z" stroke-width=".92101px"/>
<path transform="matrix(.51396 0 0 .51396 1072.6 199.06)" d="m-880.46 1117.4c0.49013 0.5349 0.53776 1.2712 0.60916 2.7086 0 0-2.8653 148.13-3.912 336.39-1.0467 188.27-0.27467 376.54-0.27467 376.54-0.0423 1.5192-0.66251 3.9394-2.2041 5.0914h78.052c-1.5416-1.152-2.1507-3.5722-2.193-5.0914 0 0 0.31455-188.27-0.73489-376.54-1.0494-188.27-3.4629-336.39-3.4629-336.39 0.0714-1.4374 0.11905-2.1737 0.60918-2.7086h-66.488z"/>
<path transform="matrix(.51396 0 0 .51396 1072.6 199.06)" d="m-888.38 1842h82.339c4.2915 0 7.7464 3.614 7.7464 8.1032s-3.4549 8.1032-7.7464 8.1032h-82.339c-4.2915 0-7.7464-3.614-7.7464-8.1032s3.4549-8.1032 7.7464-8.1032zm8.0028-732.79h66.333c1.185 0 2.1389 1.0717 2.1389 2.4029v0.926c0 1.3312-0.95395 2.4029-2.1389 2.4029h-66.333c-1.185 0-2.1389-1.0717-2.1389-2.4029v-0.926c0-1.3312 0.95397-2.4029 2.1389-2.4029z"/>
<path transform="matrix(.51396 0 0 .51396 1072.6 199.06)" d="m-889.47 1838.3h84.519v3.7476h-84.519zm-8.5029 18.738h101.53v19.249h-101.53z" stroke-linecap="round" stroke-linejoin="round"/>
<path transform="matrix(.51396 0 0 .51396 1072.6 199.06)" d="m-881.45 1117.9h68.311l0.28334-2.6333h-68.722l0.12788 2.6333z" stroke-linecap="round" stroke-linejoin="round" stroke-width="1px"/>
<path transform="matrix(.51396 0 0 .51396 1110.7 199.06)" d="m-884.89 1093.7s-1.9242 1.044-0.28598 6.284c1.4736 4.7136 6.7001 9.4502 6.7001 9.4502l31.274-0.1208 31.254 0.1208c-1e-5 0 5.2265-4.7366 6.7001-9.4502 1.6382-5.24-0.26555-6.284-0.26555-6.284h-75.376z" stroke-width=".92101px"/>
<path transform="matrix(.51396 0 0 .51396 1110.7 199.06)" d="m-880.46 1117.4c0.49013 0.5349 0.53776 1.2712 0.60916 2.7086 0 0-2.8653 148.13-3.912 336.39-1.0467 188.27-0.27467 376.54-0.27467 376.54-0.0423 1.5192-0.66251 3.9394-2.2041 5.0914h78.052c-1.5416-1.152-2.1507-3.5722-2.193-5.0914 0 0 0.31455-188.27-0.73489-376.54-1.0494-188.27-3.4629-336.39-3.4629-336.39 0.0714-1.4374 0.11905-2.1737 0.60918-2.7086h-66.488z"/>
<path transform="matrix(.51396 0 0 .51396 1110.7 199.06)" d="m-888.38 1842h82.339c4.2915 0 7.7464 3.614 7.7464 8.1032s-3.4549 8.1032-7.7464 8.1032h-82.339c-4.2915 0-7.7464-3.614-7.7464-8.1032s3.4549-8.1032 7.7464-8.1032zm8.0028-732.79h66.333c1.185 0 2.1389 1.0717 2.1389 2.4029v0.926c0 1.3312-0.95395 2.4029-2.1389 2.4029h-66.333c-1.185 0-2.1389-1.0717-2.1389-2.4029v-0.926c0-1.3312 0.95397-2.4029 2.1389-2.4029z"/>
<path transform="matrix(.51396 0 0 .51396 1110.7 199.06)" d="m-889.47 1838.3h84.519v3.7476h-84.519zm-8.5029 18.738h101.53v19.249h-101.53z" stroke-linecap="round" stroke-linejoin="round"/>
<path transform="matrix(.51396 0 0 .51396 1110.7 199.06)" d="m-881.45 1117.9h68.311l0.28334-2.6333h-68.722l0.12788 2.6333z" stroke-linecap="round" stroke-linejoin="round" stroke-width="1px"/>
<path transform="matrix(.51396 0 0 .51396 730.33 199.06)" d="m-884.89 1093.7s-1.9242 1.044-0.28598 6.284c1.4736 4.7136 6.7001 9.4502 6.7001 9.4502l31.274-0.1208 31.254 0.1208c-1e-5 0 5.2265-4.7366 6.7001-9.4502 1.6382-5.24-0.26555-6.284-0.26555-6.284h-75.376z" stroke-width=".92101px"/>
<path transform="matrix(.51396 0 0 .51396 730.33 199.06)" d="m-880.46 1117.4c0.49013 0.5349 0.53776 1.2712 0.60916 2.7086 0 0-2.8653 148.13-3.912 336.39-1.0467 188.27-0.27467 376.54-0.27467 376.54-0.0423 1.5192-0.66251 3.9394-2.2041 5.0914h78.052c-1.5416-1.152-2.1507-3.5722-2.193-5.0914 0 0 0.31455-188.27-0.73489-376.54-1.0494-188.27-3.4629-336.39-3.4629-336.39 0.0714-1.4374 0.11905-2.1737 0.60918-2.7086h-66.488z"/>
<path transform="matrix(.51396 0 0 .51396 730.33 199.06)" d="m-888.38 1842h82.339c4.2915 0 7.7464 3.614 7.7464 8.1032s-3.4549 8.1032-7.7464 8.1032h-82.339c-4.2915 0-7.7464-3.614-7.7464-8.1032s3.4549-8.1032 7.7464-8.1032zm8.0028-732.79h66.333c1.185 0 2.1389 1.0717 2.1389 2.4029v0.926c0 1.3312-0.95395 2.4029-2.1389 2.4029h-66.333c-1.185 0-2.1389-1.0717-2.1389-2.4029v-0.926c0-1.3312 0.95397-2.4029 2.1389-2.4029z"/>
<path transform="matrix(.51396 0 0 .51396 730.33 199.06)" d="m-889.47 1838.3h84.519v3.7476h-84.519zm-8.5029 18.738h101.53v19.249h-101.53z" stroke-linecap="round" stroke-linejoin="round"/>
<path transform="matrix(.51396 0 0 .51396 730.33 199.06)" d="m-881.45 1117.9h68.311l0.28334-2.6333h-68.722l0.12788 2.6333z" stroke-linecap="round" stroke-linejoin="round" stroke-width="1px"/>
<path transform="matrix(.51396 0 0 .51396 768.37 199.06)" d="m-884.89 1093.7s-1.9242 1.044-0.28598 6.284c1.4736 4.7136 6.7001 9.4502 6.7001 9.4502l31.274-0.1208 31.254 0.1208c-1e-5 0 5.2265-4.7366 6.7001-9.4502 1.6382-5.24-0.26555-6.284-0.26555-6.284h-75.376z" stroke-width=".92101px"/>
<path transform="matrix(.51396 0 0 .51396 768.37 199.06)" d="m-880.46 1117.4c0.49013 0.5349 0.53776 1.2712 0.60916 2.7086 0 0-2.8653 148.13-3.912 336.39-1.0467 188.27-0.27467 376.54-0.27467 376.54-0.0423 1.5192-0.66251 3.9394-2.2041 5.0914h78.052c-1.5416-1.152-2.1507-3.5722-2.193-5.0914 0 0 0.31455-188.27-0.73489-376.54-1.0494-188.27-3.4629-336.39-3.4629-336.39 0.0714-1.4374 0.11905-2.1737 0.60918-2.7086h-66.488z"/>
<path transform="matrix(.51396 0 0 .51396 768.37 199.06)" d="m-888.38 1842h82.339c4.2915 0 7.7464 3.614 7.7464 8.1032s-3.4549 8.1032-7.7464 8.1032h-82.339c-4.2915 0-7.7464-3.614-7.7464-8.1032s3.4549-8.1032 7.7464-8.1032zm8.0028-732.79h66.333c1.185 0 2.1389 1.0717 2.1389 2.4029v0.926c0 1.3312-0.95395 2.4029-2.1389 2.4029h-66.333c-1.185 0-2.1389-1.0717-2.1389-2.4029v-0.926c0-1.3312 0.95397-2.4029 2.1389-2.4029z"/>
<path transform="matrix(.51396 0 0 .51396 768.37 199.06)" d="m-889.47 1838.3h84.519v3.7476h-84.519zm-8.5029 18.738h101.53v19.249h-101.53z" stroke-linecap="round" stroke-linejoin="round"/>
<path transform="matrix(.51396 0 0 .51396 768.37 199.06)" d="m-881.45 1117.9h68.311l0.28334-2.6333h-68.722l0.12788 2.6333z" stroke-linecap="round" stroke-linejoin="round" stroke-width="1px"/>
<path transform="matrix(.51396 0 0 .51396 806.4 199.06)" d="m-884.89 1093.7s-1.9242 1.044-0.28598 6.284c1.4736 4.7136 6.7001 9.4502 6.7001 9.4502l31.274-0.1208 31.254 0.1208c-1e-5 0 5.2265-4.7366 6.7001-9.4502 1.6382-5.24-0.26555-6.284-0.26555-6.284h-75.376z" stroke-width=".92101px"/>
<path transform="matrix(.51396 0 0 .51396 806.4 199.06)" d="m-880.46 1117.4c0.49013 0.5349 0.53776 1.2712 0.60916 2.7086 0 0-2.8653 148.13-3.912 336.39-1.0467 188.27-0.27467 376.54-0.27467 376.54-0.0423 1.5192-0.66251 3.9394-2.2041 5.0914h78.052c-1.5416-1.152-2.1507-3.5722-2.193-5.0914 0 0 0.31455-188.27-0.73489-376.54-1.0494-188.27-3.4629-336.39-3.4629-336.39 0.0714-1.4374 0.11905-2.1737 0.60918-2.7086h-66.488z"/>
<path transform="matrix(.51396 0 0 .51396 806.4 199.06)" d="m-888.38 1842h82.339c4.2915 0 7.7464 3.614 7.7464 8.1032s-3.4549 8.1032-7.7464 8.1032h-82.339c-4.2915 0-7.7464-3.614-7.7464-8.1032s3.4549-8.1032 7.7464-8.1032zm8.0028-732.79h66.333c1.185 0 2.1389 1.0717 2.1389 2.4029v0.926c0 1.3312-0.95395 2.4029-2.1389 2.4029h-66.333c-1.185 0-2.1389-1.0717-2.1389-2.4029v-0.926c0-1.3312 0.95397-2.4029 2.1389-2.4029z"/>
<path transform="matrix(.51396 0 0 .51396 806.4 199.06)" d="m-889.47 1838.3h84.519v3.7476h-84.519zm-8.5029 18.738h101.53v19.249h-101.53z" stroke-linecap="round" stroke-linejoin="round"/>
<path transform="matrix(.51396 0 0 .51396 806.4 199.06)" d="m-881.45 1117.9h68.311l0.28334-2.6333h-68.722l0.12788 2.6333z" stroke-linecap="round" stroke-linejoin="round" stroke-width="1px"/>
</g>
<path d="m49.166 779.6-0.69433 26.718s-1.7966 22.178 14.991 38.093c16.698 15.83 305.02 125.44 308.12 126.62v0.56249s293.35 110.09 309.01 127.09c14.734 16.004 13.918 38.562 13.918 38.562l0.72589-26.718s1.7966-22.178-14.991-38.093c-16.697-15.83-305.01-125.44-308.12-126.62v-0.56249s-293.35-110.08-309.01-127.09c-14.734-16.004-13.95-38.562-13.95-38.562z" fill="#fc0" stroke="#806600" stroke-width="1.0049"/>
<path d="m692.39 779.6s0.81498 22.558-13.903 38.562c-15.641 17.007-308.67 127.09-308.67 127.09v0.5625c-3.0993 1.1794-291.11 110.79-307.79 126.62-16.769 15.915-14.975 38.093-14.975 38.093l0.69357 26.718s-0.78345-22.558 13.934-38.562c15.641-17.007 308.67-127.09 308.67-127.09v-0.5625c3.106-1.182 291.11-110.79 307.79-126.62 16.769-15.915 14.975-38.093 14.975-38.093l-0.7251-26.718z" fill="#fc0" stroke="#806600" stroke-width="1.0044"/>
</g>
</svg>
