<?xml version="1.0" encoding="UTF-8"?>
<svg width="833.68" height="833.68" enable-background="new 0 0 398.344 389.965" fill-rule="evenodd" version="1.1" viewBox="0 0 235.28 235.28" xml:space="preserve" xmlns="http://www.w3.org/2000/svg" xmlns:cc="http://creativecommons.org/ns#" xmlns:dc="http://purl.org/dc/elements/1.1/" xmlns:rdf="http://www.w3.org/1999/02/22-rdf-syntax-ns#" xmlns:xlink="http://www.w3.org/1999/xlink"><metadata><rdf:RDF><cc:Work rdf:about=""><dc:format>image/svg+xml</dc:format><dc:type rdf:resource="http://purl.org/dc/dcmitype/StillImage"/><dc:title/></cc:Work></rdf:RDF></metadata><defs><style type="text/css">
   
    .str0 {stroke:black;stroke-width:0.2646}
    .str1 {stroke:#D4AE05;stroke-width:0.3969}
    .fil4 {fill:none}
    .fil0 {fill:#005121}
    .fil2 {fill:#00722E}
    .fil1 {fill:#00923F}
    .fil5 {fill:#0A73B9}
    .fil3 {fill:white}
   
  </style><style type="text/css">.str2 {stroke:black}
    .str0 {stroke:#1F1A17;stroke-width:0.0762}
    .str1 {stroke:black;stroke-width:1.214}
    .fil0 {fill:#00923F}
    .fil1 {fill:#1F1A17}
    .fil9 {fill:#838281}
    .fil4 {fill:#C2C1C1}
    .fil3 {fill:#DA251D}
    .fil6 {fill:#DEDEDD}
    .fil5 {fill:white}
    .fil8 {fill:black}
    .fil2 {fill:#DC3623}
    .fil7 {fill:#1F1A17;fill-rule:nonzero}</style><style type="text/css">.str2 {stroke:black}
    .str0 {stroke:#1F1A17;stroke-width:0.0762}
    .str1 {stroke:black;stroke-width:1.214}
    .fil0 {fill:#00923F}
    .fil1 {fill:#1F1A17}
    .fil9 {fill:#838281}
    .fil4 {fill:#C2C1C1}
    .fil3 {fill:#DA251D}
    .fil6 {fill:#DEDEDD}
    .fil5 {fill:white}
    .fil8 {fill:black}
    .fil2 {fill:#DC3623}
    .fil7 {fill:#1F1A17;fill-rule:nonzero}</style><style type="text/css">
   
    .str0 {stroke:black;stroke-width:0.2646}
    .str1 {stroke:#D4AE05;stroke-width:0.3969}
    .fil4 {fill:none}
    .fil0 {fill:#005121}
    .fil2 {fill:#00722E}
    .fil1 {fill:#00923F}
    .fil5 {fill:#0A73B9}
    .fil3 {fill:white}
   
  </style><style type="text/css">.str2 {stroke:black}
    .str0 {stroke:#1F1A17;stroke-width:0.0762}
    .str1 {stroke:black;stroke-width:1.214}
    .fil0 {fill:#00923F}
    .fil1 {fill:#1F1A17}
    .fil9 {fill:#838281}
    .fil4 {fill:#C2C1C1}
    .fil3 {fill:#DA251D}
    .fil6 {fill:#DEDEDD}
    .fil5 {fill:white}
    .fil8 {fill:black}
    .fil2 {fill:#DC3623}
    .fil7 {fill:#1F1A17;fill-rule:nonzero}</style><style type="text/css">
   
    .str0 {stroke:black;stroke-width:0.2646}
    .str1 {stroke:#D4AE05;stroke-width:0.3969}
    .fil4 {fill:none}
    .fil0 {fill:#005121}
    .fil2 {fill:#00722E}
    .fil1 {fill:#00923F}
    .fil5 {fill:#0A73B9}
    .fil3 {fill:white}
   
  </style></defs><rect x="-1.8579e-7" y="2.03e-7" width="235.28" height="235.28" fill="#0d5eaf"/><path d="m141.27 58.702c-5.4119 2.4345-16.126 1.0289-16.126 1.0289l-6.8594 0.0365s6.8922-10.306 17.989-11.352l4.9965 10.287z" fill="#fc0" stroke="#a80"/><path class="fil4 str0" d="m78.411 150.16v-74.825l1.1474-0.56367 78.671 75.389c0 6.7646-37.908 1.9545-38.244 7.6677l-0.45908 7.8142-1.0009 0.44095c-2.2894-3.5907-7.6299-5.5677-10.71-5.9568-2.7245-0.36132-12.208-1.6139-19.839-1.6139-5.7219 0-9.5652-1.5876-9.5652-8.3521h-1.4e-4 -8e-5z" fill="#a80" stroke="#a80" stroke-linecap="round" stroke-linejoin="round" stroke-width="1.0269"/><path class="fil1" d="m120.77 58.759c2.1481-2.6568 8.5846-3.3621 10.296-3.7933-0.21078-0.45313-0.78536-0.56989-1.9742-1.0893 1.0931-0.10642 2.4103 0.6265 2.7269 0.84822 1.1624-0.30073 2.3624-0.65149 3.5524-0.94887-0.4705-0.82547-1.2963-1.1184-2.0051-1.4444 0.72583-0.20074 2.6763 0.97524 2.7733 1.2564 1.4165-0.35002 2.9251-0.64645 4.3517-0.97346-0.58606-0.86725-2.4756-2.0135-4.0946-2.5272 2.2913 0.31045 4.017 1.6659 4.9252 2.3283 1.2824-0.28708 3.3719-0.28317 4.6381-0.53501-0.46828-0.81924-2.3125-0.98056-3.2517-1.5341 0.78187 0.13182 3.4317 0.27375 4.0551 1.2537-2.9658 1.4846-5.5326 1.0622 0.15074 0.52749 0.17939 0.31846-2.7748 3.4791-4.6461 4.176 1.4159-1.2305 4.2096-2.9763 3.849-3.9367-1.6081 0.32442-3.9737 0.37337-5.5924 0.74771 0.065 0.82791-1.6682 4.1638-3.844 4.9176 1.6752-1.2765 3.096-3.8426 2.9585-4.6762-1.6569 0.39133-3.3511 0.78389-5.0012 1.2146 0.0159 1.1508-1.24 2.5401-2.7762 3.3974 1.3668-1.1264 2.5115-1.8857 1.7638-3.1235-0.89147 0.23703-2.0698 0.44982-2.955 0.69527-0.26654 0.93305-1.2692 1.7843-2.9738 2.6807 1.1859-0.60881 2.0777-1.7809 2.0521-2.4236-0.90492 0.22538-6.234 0.29054-8.6108 2.6587l-0.3676 0.30386z" fill="#a80" fill-rule="evenodd" stroke="#a80" stroke-width=".39776"/><path d="m70.932 63.071s6.9049-0.49449 12.138-3.4015c6.5272-3.6276 4.0706-5.6444 10.739-10.989 4.6304-3.7115 15.072-3.7088 15.072-3.7088l6.632-1.7522s-4.0935 11.703-14.575 15.493c-8.2561 2.9855-13.999 0.3808-24.358 6.1762 0 0-3.9976 1.9619-5.6472-1.8173l-6e-5 1e-5z" fill="#fc0" stroke="#a80" stroke-linejoin="round" stroke-width=".80162"/><path class="fil1" d="m113.36 44.818c-1.4148 3.1099-7.4699 5.4037-9.0187 6.2494 0.31748 0.38595 0.903 0.35518 2.184 0.56056-1.0317 0.37663-2.4904-3e-3 -2.8524-0.13872-1.0502 0.5821-2.1242 1.222-3.2018 1.8078 0.66213 0.68144 1.535 0.75837 2.3028 0.89661-0.65249 0.37602-2.8352-0.27435-2.9995-0.52223-1.2838 0.6934-2.6702 1.358-3.9696 2.0316 0.78447 0.69297 2.9008 1.3298 4.5968 1.4219-2.2961 0.27292-4.306-0.60745-5.3512-1.0214-1.1697 0.59892-3.1937 1.1181-4.3566 1.6788 0.65842 0.67596 2.4843 0.37055 3.5322 0.67145-0.78998 0.0681-3.391 0.59386-4.2398-0.19882-1.3877 0.65906-4.0773 1.4402-5.427 2.0134-0.92818-0.0331-1.503 0.58592-0.60607 0.27413-2.375 0.9868-9.0738 2.2576-10.959 4.6364 0.0287-0.31589-0.40825-0.65323-0.42575-1.0295 2.649-2.2674 9.0438-3.1964 11.113-4.0945 3.0365-3.6882-5.558 0.34636 0.63917-0.23522 1.3479-0.59395 4.0314-1.3877 5.3879-2.0377-0.25339-0.26342 1.8157-4.0628 3.4531-5.2059-1.0628 1.5457-3.3307 3.9352-2.7412 4.7748 1.4757-0.71656 3.7538-1.3561 5.2273-2.1236-0.27015-0.78529 0.57297-4.4488 2.4908-5.7232-1.3024 1.6551-2.0357 4.4952-1.694 5.2679 1.5062-0.79356 3.0482-1.5977 4.538-2.4277-0.30347-1.1102 0.56473-2.7696 1.8375-3.9841-1.0414 1.4326-1.9596 2.4543-0.92594 3.4655 0.80377-0.45261 1.8913-0.95354 2.687-1.4127 0.0245-0.97006 0.78222-2.0452 2.2082-3.3397-0.99577 0.88624-1.5659 2.2442-1.3802 2.8601 0.8197-0.4447 5.9628-1.8416 7.6713-4.7293z" fill="#a80" fill-rule="evenodd" stroke="#a80" stroke-width=".39776"/><path d="m56.354 105.41s1.0631-8.0389 4.8296-13.953c4.7-7.3772 5.3418-5.837 12.06-13.259 4.6649-5.1534 6.9388-15.889 6.9388-15.889l0.74046-7.3613s-12.197 3.6944-17.365 15.684c-4.0706 9.4439-1.4284 16.342-8.9322 28.048 0 0-2.5748 4.5364 1.7283 6.7306l-1e-5 6e-5z" fill="#fc0" stroke="#a80" stroke-linejoin="round" stroke-width=".93907px"/><path class="fil1" d="m78.911 57.549c-1.9477 2.1943-4.5393 7.052-5.5355 8.5086-0.35233-0.35443-0.26326-0.93394-0.33974-2.229-0.47773 0.98895-0.24534 2.4783-0.14672 2.852-0.68403 0.98679-1.428 1.9916-2.1184 3.0053-0.61194-0.72684-0.60135-1.603-0.66226-2.3808-0.43928 0.6117-0.01 2.8484 0.22019 3.0367-0.81811 1.2082-1.6178 2.5213-2.4178 3.7469-0.61119-0.84972-1.0335-3.019-0.95594-4.7158-0.50078 2.2574 0.17454 4.3452 0.48214 5.4264-0.7127 1.1041-1.4314 3.0662-2.1054 4.1672-0.60685-0.72261-1.1743-3.7975-1.3691-4.8702-0.14659 0.77925 0.12419 4.6034 0.82817 5.5271-0.79431 1.3149-1.84 3.9131-2.5451 5.1989-0.24361-0.57601 0.15528-1.991-0.038-2.9578-0.22577 0.96588-0.71057 2.7209-0.29531 3.5335-1.219 2.2646-3.1522 8.8031-5.7073 10.442 0.31717 3e-3 0.60921 0.47142 0.98184 0.52639 2.5205-2.4094 4.0832-8.6795 5.1834-10.649 0.22633 0.61163 2.066-0.42786 3.1411-1.8061-1.5876 0.72519-2.2942 1.8263-2.8433 1.1936 0.72554-1.2818 1.7832-3.8728 2.5654-5.1576 0.23681 0.27843 2.7436-0.58171 4.0444-2.0968-1.6441 0.90324-2.7678 2.1019-3.5444 1.4315 0.8603-1.3968 1.724-3.5997 2.6348-4.9892 0.7544 0.34719 4.4838-0.12598 5.9432-1.907-1.7769 1.1306-4.676 1.5767-5.4107 1.1596 0.93996-1.4194 1.894-2.8735 2.8686-4.273 1.0744 0.41278 2.8122-0.28543 4.1477-1.4306-1.5294 0.89313-2.6376 1.7048-3.5407 0.57536 0.53059-0.75458 1.1376-1.7867 1.6739-2.5325 0.96767 0.0724 2.1131-0.57414 3.5435-1.8638-0.98123 0.90232-2.3894 1.334-2.9836 1.0878 0.52431-0.77121 0.94019-2.5742 3.7825-6.2643l0.51809-1.2953z" fill="#a80" fill-rule="evenodd" stroke="#a80" stroke-width=".39776"/><path d="m56.463 138.13s-3.4775-7.5844-3.4365-14.799c0.0528-9.0002 4.8586-9.6302 6.6449-19.775 1.2403-7.044-3.6398-17.545-3.6398-17.545l-1.6137-6.8924s-10.612 16.626-8.5457 29.901c1.6275 10.455 5.5227 9.8881 5.3986 24.194 0 0 0.24224 5.3616 5.1922 4.9158l3e-5 7e-5z" fill="#fc0" stroke="#a80" stroke-linejoin="round" stroke-width=".96624px"/><path class="fil1" d="m53.748 82.683c0.37117 2.9105-0.22776 8.3836-0.22647 10.148 0.49083-0.094 0.74406-0.62284 1.5375-1.6493-0.16312 1.0861-1.1949 2.1851-1.487 2.4381 9e-3 1.2006 0.0563 2.45 0.0548 3.6765 0.91522-0.25519 1.4005-0.98473 1.8894-1.5927 0.0179 0.75287-1.5979 2.358-1.8942 2.3837-6e-3 1.4591-0.0857 2.9944-0.11612 4.4578 0.9839-0.3571 2.5559-1.9105 3.4486-3.3555-0.85935 2.1467-2.5944 3.49-3.4581 4.2095-0.034 1.3137 0.19232 3.5849 0.12809 4.8743 0.90864-0.25456 2.999-3.0688 3.7648-3.8448-0.31835 0.7262-2.5862 4.3264-3.6885 4.6924-0.0855 1.5338-0.68699 4.2692-0.82975 5.7286 0.52599-0.33832 3.0568-3.0444 3.7615-3.7339-0.35821 0.92498-3.0098 3.9604-3.8109 4.3973-0.27031 2.5576-2.1798 8.7824-0.99348 11.576-0.26362-0.17639-0.76896 0.0458-1.1077-0.11892-0.72288-3.4111 1.3412-9.2054 1.5429-11.452-0.53181 0.37748-3.1481-2.279-3.2588-4.0235 0.90221 1.4942 2.548 3.5625 3.3582 3.3497 0.12363-1.4677 0.71117-4.2038 0.78965-5.706-0.35257 0.0964-3.9787-2.6437-4.1987-4.6284 0.8484 1.673 3.1415 3.9128 4.1608 3.797 0.0771-1.6386-0.13319-4.1906-0.10187-5.8517-0.81879-0.13867-3.6319-2.6324-3.8328-4.9263 0.82987 1.9357 2.9725 3.9389 3.8145 4.0087 0.0241-1.7023 0.0562-3.4411 0.0405-5.1464-1.12-0.26492-2.1615-1.8215-2.6186-3.5203 0.75943 1.6 1.217 2.8952 2.5996 2.4717-0.0127-0.92236 0.068-2.117 0.0457-3.0354-0.83999-0.48584-1.4213-1.6657-1.8754-3.5374 0.30153 1.2985 1.221 2.449 1.8506 2.5808 2e-3 -0.93256 0.67509-2.656 0.40862-7.3063l0.30254-1.3619z" fill="#a80" fill-rule="evenodd" stroke="#a80" stroke-width=".39776"/><path d="m47.799 138.33c4.4045-7.849-0.63388-13.178 4.4238-22.152 3.6817-6.5319 13.117-16.747 13.117-16.747l1.1672 1.718 1.9438-1.9354s1.0024 19.699-7.3574 30.215c-6.5846 8.2831-5.4527-1.7021-12.419 10.794l-0.87596-1.8926z" fill="#fc0" stroke="#a80" stroke-linejoin="round" stroke-width=".96624px"/><path class="fil1" d="m65.952 103.32c-0.80818 2.8205-1.5502 5.3295-2.2458 6.9513 0.48808 0.10742 0.92954-0.27844 2.0638-0.90817-0.57872 0.93346-1.9606 1.5357-2.3289 1.6528-0.46629 1.1064-0.91572 2.2731-1.4014 3.3994 0.94162 0.12692 1.6756-0.35172 2.3648-0.71727-0.2809 0.69874-2.3992 1.5355-2.6815 1.4421-0.58092 1.3384-1.261 2.7173-1.8668 4.0497 1.045 0.0604 3.1026-0.74601 4.4933-1.7211-1.6371 1.6329-3.7616 2.1821-4.8392 2.5021-0.54992 1.1936-1.2389 3.3696-1.807 4.5288 0.93532 0.1249 3.9671-1.6353 4.977-2.0459-0.57922 0.54149-4.0844 2.9537-5.2416 2.8547-0.68426 1.3754-2.3169 3.6511-3.0243 4.9355 0.61684-0.10315 4.0105-1.5901 4.9302-1.9453-0.69433 0.70838-4.329 2.4502-5.2375 2.5352-1.2582 2.243-5.4705 7.2081-5.4837 10.243-0.17253-0.26614-0.72455-0.26154-0.97071-0.54663 0.68275-3.4194 4.867-7.9278 5.9394-9.9122-0.63765 0.13683-1.9925-3.3368-1.4054-4.9833 0.23894 1.729 0.93433 4.2792 1.7628 4.4035 0.69313-1.2997 2.3133-3.5815 2.9785-4.9306-0.36198-0.0506-2.6116-3.9999-2.03-5.9102 0.11889 1.8721 1.3413 4.8353 2.3235 5.1314 0.71797-1.475 1.5322-3.9027 2.217-5.4164-0.69751-0.45071-2.2973-3.8526-1.5762-6.0394-2e-3 2.1061 1.1757 4.7925 1.9217 5.1891 0.69431-1.5544 1.4103-3.1393 2.0692-4.7123-0.9244-0.68563-1.2666-2.5269-1.0159-4.2682 0.066 1.7699-0.0251 3.1405 1.4124 3.2973 0.35257-0.85241 0.89839-1.9182 1.2405-2.7707-0.57989-0.77804-0.64813-2.0916-0.32627-3.9904-0.23569 1.312 0.15481 2.7322 0.68124 3.1018 0.36984-0.85609 0.51544-1.0224 2.1068-5.4h-1e-5l2e-5 2e-5 2e-5 -1e-5z" fill="#a80" fill-rule="evenodd" stroke="#a80" stroke-width=".39776"/><path d="m74.39 168.71s-6.7735-4.8723-10.305-11.164c-1.9179-3.4172-2.0456-6.357-1.9957-9.3278 0.0429-2.5631 0.21805-5.1492-0.51049-8.0852-0.36655-1.4771-0.9618-3.0428-1.9176-4.7386-1.2434-2.206-3.1432-4.8323-5.1142-7.3432-1.9722-2.5125-4.0157-4.9096-5.5441-6.6548-1.4667-1.6748-2.4591-2.7492-2.4591-2.7492-0.38906 0.57267-0.77813 1.1453-1.1672 1.718-0.64792-0.64514-1.2959-1.2903-1.9438-1.9354 0 0-0.11664 2.2924 0.0615 5.7305 0.13745 2.6529 0.45042 5.9879 1.1279 9.4784 0.54626 2.8144 1.3295 5.7299 2.4487 8.4705 0.9674 2.3686 2.1858 4.6066 3.7193 6.5356 1.8372 2.3111 3.4035 3.789 4.8584 4.9902 3.7595 3.1039 6.7749 4.3601 11.797 13.369 0 0 2.8618 4.5405 6.9438 1.7053l4e-5 7e-5z" fill="#fc0" stroke="#a80" stroke-linejoin="round" stroke-width=".96624px"/><path class="fil1" d="m45.686 121.48c0.80818 2.8205 1.5502 5.3295 2.2458 6.9513-0.48808 0.10742-0.92954-0.27844-2.0638-0.90817 0.57871 0.93345 1.9606 1.5357 2.3289 1.6528 0.4663 1.1064 0.91572 2.2731 1.4014 3.3994-0.94162 0.12692-1.6756-0.35172-2.3648-0.71727 0.28089 0.69874 2.3992 1.5355 2.6815 1.4421 0.58091 1.3385 1.261 2.7173 1.8668 4.0497-1.045 0.0604-3.1026-0.74601-4.4933-1.7211 1.6371 1.6329 3.7616 2.1821 4.8392 2.502 0.54993 1.1936 1.2389 3.3696 1.807 4.5288-0.93533 0.1249-3.9671-1.6353-4.977-2.0459 0.57922 0.54149 4.0844 2.9537 5.2416 2.8547 0.68426 1.3754 2.3169 3.6511 3.0243 4.9355-0.61685-0.10314-4.0105-1.5901-4.9302-1.9453 0.69434 0.70838 4.329 2.4502 5.2376 2.5352 1.2582 2.243 5.4705 7.2081 5.4837 10.243 0.17254-0.26614 0.72455-0.26155 0.97072-0.54663-0.68275-3.4194-4.867-7.9278-5.9394-9.9122 0.63765 0.13682 1.9925-3.3368 1.4054-4.9833-0.23894 1.729-0.93433 4.2792-1.7628 4.4035-0.69313-1.2997-2.3133-3.5815-2.9785-4.9305 0.36197-0.0506 2.6116-3.9999 2.03-5.9102-0.11889 1.8721-1.3413 4.8353-2.3235 5.1314-0.71798-1.475-1.5323-3.9026-2.217-5.4164 0.69751-0.4507 2.2974-3.8525 1.5763-6.0394 2e-3 2.1061-1.1757 4.7926-1.9217 5.1891-0.69431-1.5544-1.4103-3.1393-2.0692-4.7123 0.9244-0.68563 1.2666-2.5269 1.0159-4.2682-0.066 1.7699 0.0251 3.1405-1.4124 3.2973-0.35257-0.85241-0.89839-1.9182-1.2405-2.7707 0.5799-0.77805 0.64813-2.0916 0.32627-3.9904 0.23569 1.312-0.1548 2.7322-0.68124 3.1018-0.36983-0.85609-0.51543-1.0224-2.1068-5.4h1e-5l-2e-5 2e-5h-2e-5z" fill="#a80" fill-rule="evenodd" stroke="#a80" stroke-width=".39776"/><path d="m76.085 172.14c-2.8284-8.5444 2.173-6.5756-1.0824-16.348-2.3697-7.1137-6.9759-18.459-6.9759-18.459l-1.943 0.59001-0.8702-2.464s-7.4861 14.167-0.28862 31.258c2.8147 6.6836 4.1062-7.9926 8.5639 5.6016 14.227 11.615 4.076 3.2764 2.5964-0.17872v4e-5z" fill="#fc0" stroke="#a80" stroke-linejoin="round" stroke-width=".96624px"/><path class="fil1" d="m65.765 138.85c0.2075 2.9267 0.41467 5.5348 0.75989 7.2654-0.49975 4e-3 -0.85188-0.46462-1.8314-1.3153 0.3732 1.033 1.6006 1.9079 1.9368 2.0986 0.22743 1.179 0.42592 2.4133 0.66819 3.6157-0.94752-0.0706-1.5666-0.69058-2.1654-1.1907 0.13033 0.74172 2.0298 1.9984 2.3253 1.9654 0.29161 1.4297 0.6719 2.9194 0.98912 4.3482-1.0349-0.15697-2.0143-0.99418-3.1734-2.2358 1.2641 1.9361 2.3621 2.5355 3.3503 3.0714 0.29124 1.2815 1.1458 3.135 1.4619 4.3867-0.94093-0.0712-2.6065-0.74977-3.5097-1.3604 0.45474 0.64955 2.4486 2.064 3.6013 2.2064 4.339 14.627 7.6821 17.633 0.54113-0.0903 0.36461 0.0255 3.0133-1.1235 2.8393-3.1128-0.50341 1.807-1.9432 2.2035-2.9654 2.2901-0.39747-1.5916-1.3226-3.7173-1.6795-5.3399 0.77562-0.29675 2.4964-1.0629 2.2431-3.3516-0.43344 2.061-1.5934 2.2145-2.4053 2.4483-0.35789-1.6644-0.73071-3.3631-1.0501-5.0383 1.0462-0.47967 2.0616-0.48784 1.7576-2.3318-0.4305 1.718-0.50631 1.4436-1.9448 1.2999-0.16868-0.90689-0.48233-2.0625-0.64074-2.9673 0.72825-0.64133 1.1892-0.45748 1.2669-2.3819-0.0408 1.3324-0.83903 1.1862-1.4305 1.439-0.18481-0.91406-0.29287-1.1069-0.94463-5.719h1e-5l-2e-5 1e-5z" fill="#a80" fill-rule="evenodd" stroke="#a80" stroke-width=".39776"/><path d="m113.47 182.44s-8.3436 7e-3 -14.887-3.0325c-8.1622-3.7927-7.6958-9.9517-17.045-14.275-6.8058-3.1468-15.903-3.7732-15.903-3.7732l-6.6754-1.6126s10.704 16.568 23.634 20.212c10.185 2.8703 11.289-0.90779 24.247 5.1573 0 0 4.9763 2.0106 6.6304-2.6761h7e-5z" fill="#fc0" stroke="#a80" stroke-linejoin="round" stroke-width=".96624px"/><path d="m142.84 188.29s-9.6491 1.9298-14.887-3.0326c-5.2381-4.9624-6.3409-9.3734-16.266-12.13-9.9248-2.7569-19.022-6.8922-19.022-6.8922l0.27567 1.3784-1.1028 1.1028s7.8419 11.652 20.125 17.093c6.4808 2.8703 9.9248-1.1027 22.882 4.9624 0 0 6.3409 2.2055 7.995-2.4812z" fill="#fc0" stroke="#a80" stroke-linejoin="round" stroke-width=".96629"/><path transform="matrix(-.24102 0 0 .24102 349.72 45.457)" d="m1111.2 74.244a6.8595 6.456 0 1 1-13.719 0 6.8595 6.456 0 1 1 13.719 0z" fill="#fc0" stroke="#a80" stroke-linecap="round" stroke-linejoin="round" stroke-width="4"/><path transform="matrix(-.24102 0 0 .24102 349.19 41.289)" d="m1111.2 74.244a6.8595 6.456 0 1 1-13.719 0 6.8595 6.456 0 1 1 13.719 0z" fill="#fc0" stroke="#a80" stroke-linecap="round" stroke-linejoin="round" stroke-width="4"/><path transform="matrix(-.24102 0 0 .24102 327.68 74.942)" d="m1111.2 74.244a6.8595 6.456 0 1 1-13.719 0 6.8595 6.456 0 1 1 13.719 0z" fill="#fc0" stroke="#a80" stroke-linecap="round" stroke-linejoin="round" stroke-width="4"/><path transform="matrix(-.24102 0 0 .24102 325.55 69.909)" d="m1111.2 74.244a6.8595 6.456 0 1 1-13.719 0 6.8595 6.456 0 1 1 13.719 0z" fill="#fc0" stroke="#a80" stroke-linecap="round" stroke-linejoin="round" stroke-width="4"/><path transform="matrix(-.24102 0 0 .24102 325.52 139.86)" d="m1111.2 74.244a6.8595 6.456 0 1 1-13.719 0 6.8595 6.456 0 1 1 13.719 0z" fill="#fc0" stroke="#a80" stroke-linecap="round" stroke-linejoin="round" stroke-width="4"/><path transform="matrix(-.24102 0 0 .24102 360.91 164.87)" d="m1111.2 74.244a6.8595 6.456 0 1 1-13.719 0 6.8595 6.456 0 1 1 13.719 0z" fill="#fc0" stroke="#a80" stroke-linecap="round" stroke-linejoin="round" stroke-width="4"/><path class="fil1" d="m95.19 169.17c2.2746 1.8533 4.3169 3.4886 5.8143 4.4224-0.33923 0.367-0.92199 0.3025-2.2127 0.43361 1.0082 0.43554 2.4865 0.14044 2.8557 0.0261 1.0148 0.64174 2.0501 1.3425 3.0922 1.9895-0.70035 0.64209-1.5762 0.66851-2.3507 0.76222 0.62972 0.41303 2.8463-0.1103 3.0247-0.34826 1.2414 0.7667 2.5873 1.5099 3.8457 2.2574-0.82314 0.64657-2.104 0.78679-3.8025 0.78094 2.2765 0.40497 3.4652 0.0154 4.5325-0.33758 1.1332 0.66546 3.0691 1.3123 4.1976 1.9392-0.69633 0.63684-2.3315 1.3857-3.395 1.6256 0.78474 0.11354 3.181-0.37051 4.0742-1.1129 1.3474 0.738 3.9824 1.6658 5.2968 2.3159-0.56525 0.2677-3.1578 0.62928-4.1156 0.86318 0.97454 0.18476 3.9105-0.10532 4.7048-0.55452 2.3141 1.1222 6.526 3.313 8.6211 4.015-0.0104-0.317 0.44526-0.62857 0.48444-1.0032-1.9744-0.8454-6.7921-2.4668-8.8059-3.4828 0.60154-0.25193 0.32345-3.0655-1.099-4.0815 0.79153 1.5556 1.0834 3.2345 0.47447 3.8098-1.3114-0.67074-3.9396-1.6107-5.2563-2.3379 0.26819-0.24831 1.2452-2.9651-0.32348-4.2008 0.97185 1.6044 0.27464 2.925-0.36234 3.7292-1.4319-0.80046-3.6144-1.5822-5.0411-2.4335 0.31499-0.76839 0.93529-2.547-0.90585-3.9299 1.2049 1.7274 0.52228 2.6777 0.13655 3.4294-1.4579-0.87918-2.9509-1.7709-4.3903-2.6856 0.36702-1.0908 1.0566-1.8363-0.49529-2.8777 0.95692 1.4903 0.70512 1.3577-0.38483 2.3074-0.77633-0.49821-1.8332-1.0611-2.601-1.5654 0.0315-0.96987 0.48114-1.1798-0.86781-2.5545 0.94297 0.94222 0.28969 1.4238 0.0688 2.0279-0.79259-0.49137-1.0071-0.5447-4.814-3.2286v2e-5z" fill="#a80" fill-rule="evenodd" stroke="#a80" stroke-width=".39776"/><path class="fil1" d="m62.521 162.68c2.8066 0.85524 5.3028 1.6391 6.9127 2.3617 0.11557-0.48622-0.26286-0.93407-0.87353-2.0787 0.92364 0.59425 1.5027 1.986 1.6136 2.3562 1.0985 0.48473 2.2574 0.9536 3.3755 1.458 0.14265-0.93937-0.32366-1.6812-0.67763-2.3764 0.69395 0.29254 1.4952 2.4245 1.397 2.7052 1.3286 0.60322 2.6959 1.3063 4.0179 1.9343 0.0779-1.0438-0.51971-2.2924-1.4714-3.6992 1.6053 1.6642 1.9446 2.9753 2.2465 4.0581 1.1842 0.56981 2.8004 2.3467 3.9499 2.9342 0.14053-0.93311-0.36334-3.6711-0.75703-4.6877 0.53172 0.58819 1.6797 3.8104 1.5613 4.9657 1.3638 0.70716 3.603 2.9079 4.8754 3.6367-0.0928-0.61849-1.2379-2.9724-1.5777-3.8979 0.69666 0.70607 2.0925 3.3052 2.1624 4.2151 2.2217 1.2956 7.6725 4.0083 10.707 4.0723-0.26898 0.16806-0.27362 0.72007-0.56278 0.96143-3.4075-0.73984-8.4022-3.4169-10.368-4.5224 0.12619 0.63984-4.3977 1.9775-6.0341 1.3629 1.7327-0.21008 5.3222-0.90371 5.4604-1.7299-1.2879-0.71477-3.5334-2.9031-4.8712-3.5908-0.0567 0.36108-3.4794 2.5797-5.3798 1.9662 1.8738-0.0876 4.2934-1.2956 4.606-2.2728-1.4628-0.74254-3.3285-2.649-4.8306-3.3589-0.46232 0.68987-3.4121 2.5173-5.5866 1.7598 2.1058 0.0373 4.3332-1.3801 4.7422-2.1194-1.5426-0.72021-3.1153-1.4626-4.677-2.1478-0.701 0.9128-0.93552 1.9008-2.6652 1.193 1.7707-0.0364 1.5202-0.17145 1.7011-1.6058-0.8464-0.36677-1.9029-0.93034-2.7496-1.2866-0.78763 0.5668-1.1393 0.62917-3.0325 0.27558 1.3079 0.25759 1.7715-0.12522 2.1499-0.64539-0.84978-0.38408-1.0136-0.53245-5.364-2.1968v1e-5l2e-5 -2e-5z" fill="#a80" fill-rule="evenodd" stroke="#a80" stroke-width=".39776"/><path class="fil4 str0" d="m79.54 149.6v-74.825h79.819v74.825c0 6.7646-3.8144 8.3521-9.5374 8.3521-7.6303 0-17.141 1.2518-19.865 1.6139-3.0522 0.38924-8.0128 2.3662-10.301 5.9568-2.2894-3.5907-7.6299-5.5677-10.71-5.9568-2.7245-0.36132-12.208-1.6139-19.839-1.6139-5.7219 0-9.5652-1.5876-9.5652-8.3521h-1.4e-4z" fill="#fff" stroke="#a80" stroke-linecap="round" stroke-linejoin="round" stroke-width="1.0269"/><path class="fil5 str1" d="m81.094 148.37v-19.078l25.393-1.4e-4v28.282c-4.0105-0.48261-10.631-1.16-16.21-1.16-5.5047-2.9e-4 -9.1825-1.5312-9.1825-8.0444z" fill="#0d5eaf" stroke-width="0"/><polygon class="fil5 str1" transform="matrix(.72771 0 0 .72771 41.426 43.306)" points="89.405 82.154 54.51 82.156 54.51 45.494 89.405 45.494" fill="#0d5eaf" stroke-width="0"/><polygon class="fil5 str1" transform="matrix(.72771 0 0 .72771 41.426 43.306)" points="124.96 82.154 124.96 45.494 159.96 45.494 159.96 82.154" fill="#0d5eaf" stroke-width="0"/><path class="fil5 str1" d="m157.83 129.29v19.078c0 6.5133-3.6793 8.0446-9.184 8.0446-5.6218 0-12.303 0.68935-16.29 1.1731v-28.295l25.474-7.2e-4z" fill="#0d5eaf" stroke-width="0"/><path d="m166.75 63.071s-6.9049-0.49449-12.138-3.4015c-6.5272-3.6276-4.0706-5.6444-10.739-10.989-4.6304-3.7115-15.072-3.7088-15.072-3.7088l-6.632-1.7522s4.0935 11.703 14.575 15.493c8.2561 2.9855 13.999 0.3808 24.358 6.1762 0 0 3.9976 1.9619 5.6472-1.8173l6e-5 1e-5z" fill="#fc0" stroke="#a80" stroke-linejoin="round" stroke-width=".80168px"/><path class="fil1" d="m124.32 44.818c1.4148 3.1099 7.4699 5.4037 9.0187 6.2494-0.31749 0.38595-0.903 0.35518-2.184 0.56056 1.0317 0.37663 2.4904-3e-3 2.8524-0.13872 1.0502 0.5821 2.1242 1.222 3.2018 1.8078-0.66212 0.68144-1.5349 0.75837-2.3028 0.89661 0.65249 0.37602 2.8352-0.27435 2.9995-0.52223 1.2838 0.6934 2.6702 1.358 3.9696 2.0316-0.78447 0.69297-2.9008 1.3298-4.5968 1.4219 2.2961 0.27292 4.306-0.60745 5.3512-1.0214 1.1697 0.59892 3.1937 1.1181 4.3566 1.6788-0.65842 0.67596-2.4843 0.37055-3.5322 0.67145 0.78998 0.0681 3.391 0.59386 4.2398-0.19882 1.3877 0.65906 4.0773 1.4402 5.427 2.0134 0.92819-0.0331 1.503 0.58592 0.60608 0.27413 2.375 0.9868 9.0738 2.2576 10.959 4.6364-0.0287-0.31589 0.40825-0.65323 0.42575-1.0295-2.649-2.2674-9.0438-3.1964-11.113-4.0945-3.0365-3.6882 0.24842-2.4009-0.63917-0.23522-1.3479-0.59395-4.0314-1.3877-5.3879-2.0377 0.25339-0.26342-1.8157-4.0628-3.4531-5.2059 1.0629 1.5457 3.3307 3.9352 2.7412 4.7748-1.4757-0.71656-3.7538-1.3561-5.2273-2.1236 0.27015-0.78529-0.57297-4.4488-2.4908-5.7232 1.3024 1.6551 2.0357 4.4952 1.694 5.2679-1.5062-0.79356-3.0482-1.5977-4.538-2.4277 0.30347-1.1102-0.56474-2.7696-1.8375-3.9841 1.0414 1.4326 1.9596 2.4543 0.92594 3.4655-0.80377-0.45261-1.8913-0.95354-2.687-1.4127-0.0245-0.97006-0.78222-2.0452-2.2082-3.3397 0.99577 0.88624 1.5659 2.2442 1.3802 2.8601-0.81971-0.4447-5.9628-1.8416-7.6713-4.7293l-0.27985-0.38619z" fill="#a80" fill-rule="evenodd" stroke="#a80" stroke-width=".39776"/><path d="m181.33 105.41s-1.0631-8.0389-4.8296-13.953c-4.7-7.3772-5.3418-5.837-12.06-13.259-4.6649-5.1534-6.9388-15.889-6.9388-15.889l-0.74046-7.3613s12.197 3.6944 17.365 15.684c4.0706 9.4439 1.4284 16.342 8.9322 28.048 0 0 2.5748 4.5364-1.7283 6.7306v6e-5z" fill="#fc0" stroke="#a80" stroke-linejoin="round" stroke-width=".93907px"/><path class="fil1" d="m158.77 57.549c1.9477 2.1943 4.5393 7.052 5.5355 8.5086 0.35233-0.35443 0.26326-0.93394 0.33974-2.229 0.47773 0.98895 0.24534 2.4783 0.14672 2.852 0.68403 0.98679 1.428 1.9916 2.1184 3.0053 0.61194-0.72684 0.60135-1.603 0.66226-2.3808 0.43928 0.6117 0.0101 2.8484-0.22019 3.0367 0.81811 1.2082 1.6178 2.5213 2.4178 3.7469 0.61119-0.84972 1.0335-3.019 0.95593-4.7158 0.50079 2.2574-0.17453 4.3452-0.48213 5.4264 0.7127 1.1041 1.4314 3.0662 2.1054 4.1672 0.60685-0.72261 1.1743-3.7975 1.3691-4.8702 0.14658 0.77925-0.12419 4.6034-0.82817 5.5271 0.79431 1.3149 1.84 3.9131 2.5451 5.1989 0.24361-0.57601-0.15528-1.991 0.038-2.9578 0.22576 0.96588 0.71056 2.7209 0.29531 3.5335 1.219 2.2646 3.1522 8.8031 5.7073 10.442-0.31717 3e-3 -0.60922 0.47142-0.98184 0.52639-2.5205-2.4094-4.0832-8.6795-5.1834-10.649-0.22634 0.61163-2.066-0.42786-3.1411-1.8061 1.5876 0.72519 2.2942 1.8263 2.8433 1.1936-0.72554-1.2818-1.7832-3.8728-2.5654-5.1576-0.2368 0.27843-2.7436-0.58171-4.0444-2.0968 1.644 0.90324 2.7678 2.1019 3.5444 1.4315-0.8603-1.3968-1.724-3.5997-2.6348-4.9892-0.7544 0.34719-4.4838-0.12598-5.9432-1.907 1.7769 1.1306 4.676 1.5767 5.4107 1.1596-0.93996-1.4194-1.894-2.8735-2.8686-4.273-1.0744 0.41278-2.8122-0.28543-4.1476-1.4306 1.5294 0.89313 2.6376 1.7048 3.5407 0.57536-0.53059-0.75458-1.1376-1.7867-1.6739-2.5325-0.96767 0.0724-2.1131-0.57414-3.5435-1.8638 0.98122 0.90232 2.3894 1.334 2.9836 1.0878-0.52431-0.77121-0.9402-2.5742-3.7825-6.2643l-0.5181-1.2953z" fill="#a80" fill-rule="evenodd" stroke="#a80" stroke-width=".39776"/><path d="m181.22 138.13s3.4775-7.5844 3.4365-14.799c-0.0528-9.0002-4.8586-9.6302-6.6449-19.775-1.2403-7.044 3.6398-17.545 3.6398-17.545l1.6137-6.8924s10.612 16.626 8.5457 29.901c-1.6275 10.455-5.5226 9.8881-5.3986 24.194 0 0-0.24224 5.3616-5.1922 4.9158l-3e-5 7e-5z" fill="#fc0" stroke="#a80" stroke-linejoin="round" stroke-width=".96624px"/><path class="fil1" d="m183.93 82.683c-0.37118 2.9105 0.22776 8.3836 0.22647 10.148-0.49083-0.094-0.74406-0.62284-1.5375-1.6493 0.16312 1.0861 1.1949 2.1851 1.487 2.4381-8e-3 1.2006-0.0563 2.45-0.0548 3.6765-0.91522-0.25519-1.4005-0.98473-1.8894-1.5927-0.0179 0.75287 1.5979 2.358 1.8942 2.3837 6e-3 1.4591 0.0857 2.9944 0.11612 4.4578-0.9839-0.3571-2.5559-1.9105-3.4486-3.3555 0.85935 2.1467 2.5944 3.49 3.4581 4.2095 0.034 1.3137-0.19232 3.5849-0.12809 4.8743-0.90864-0.25456-2.999-3.0688-3.7648-3.8448 0.31835 0.7262 2.5862 4.3264 3.6885 4.6924 0.0855 1.5338 0.68699 4.2692 0.82975 5.7286-0.52599-0.33832-3.0568-3.0444-3.7615-3.7339 0.35821 0.92498 3.0098 3.9604 3.8109 4.3973 0.27031 2.5576 2.1798 8.7824 0.99348 11.576 0.26362-0.17639 0.76896 0.0458 1.1077-0.11892 0.72288-3.4111-1.3412-9.2054-1.5429-11.452 0.53181 0.37748 3.1481-2.279 3.2588-4.0235-0.90221 1.4942-2.548 3.5625-3.3582 3.3497-0.12363-1.4677-0.71117-4.2038-0.78965-5.706 0.35257 0.0964 3.9787-2.6437 4.1987-4.6284-0.8484 1.673-3.1415 3.9128-4.1608 3.797-0.0771-1.6386 0.13319-4.1906 0.10186-5.8517 0.8188-0.13867 3.6319-2.6324 3.8328-4.9263-0.82987 1.9357-2.9725 3.9389-3.8145 4.0087-0.0241-1.7023-0.0562-3.4411-0.0405-5.1464 1.12-0.26492 2.1615-1.8215 2.6186-3.5203-0.75944 1.6-1.217 2.8952-2.5996 2.4717 0.0127-0.92236-0.068-2.117-0.0457-3.0354 0.83999-0.48584 1.4213-1.6657 1.8754-3.5374-0.30153 1.2985-1.221 2.449-1.8506 2.5808-2e-3 -0.93256-0.67509-2.656-0.40862-7.3063l-0.30254-1.3619z" fill="#a80" fill-rule="evenodd" stroke="#a80" stroke-width=".39776"/><path d="m189.88 138.33c-4.4045-7.849 0.63388-13.178-4.4238-22.152-3.6817-6.5319-13.117-16.747-13.117-16.747l-1.1672 1.718-1.9438-1.9354s-1.0024 19.699 7.3574 30.215c6.5846 8.2831 5.4527-1.7021 12.419 10.794l0.87596-1.8926z" fill="#fc0" stroke="#a80" stroke-linejoin="round" stroke-width=".96624px"/><path class="fil1" d="m171.73 103.32c0.80818 2.8205 1.5502 5.3295 2.2458 6.9513-0.48808 0.10742-0.92954-0.27844-2.0638-0.90817 0.57872 0.93346 1.9606 1.5357 2.3289 1.6528 0.46629 1.1064 0.91572 2.2731 1.4014 3.3994-0.94162 0.12692-1.6756-0.35172-2.3648-0.71727 0.2809 0.69874 2.3992 1.5355 2.6815 1.4421 0.58091 1.3384 1.261 2.7173 1.8668 4.0497-1.045 0.0604-3.1026-0.74601-4.4933-1.7211 1.6371 1.6329 3.7616 2.1821 4.8392 2.5021 0.54993 1.1936 1.2389 3.3696 1.807 4.5288-0.93532 0.1249-3.9671-1.6353-4.977-2.0459 0.57922 0.54149 4.0844 2.9537 5.2416 2.8547 0.68426 1.3754 2.3169 3.6511 3.0243 4.9355-0.61684-0.10315-4.0105-1.5901-4.9302-1.9453 0.69433 0.70838 4.329 2.4502 5.2375 2.5352 1.2582 2.243 5.4705 7.2081 5.4837 10.243 0.17253-0.26614 0.72454-0.26154 0.97071-0.54663-0.68275-3.4194-4.867-7.9278-5.9394-9.9122 0.63765 0.13683 1.9925-3.3368 1.4054-4.9833-0.23894 1.729-0.93433 4.2792-1.7628 4.4035-0.69313-1.2997-2.3133-3.5815-2.9785-4.9306 0.36198-0.0506 2.6116-3.9999 2.03-5.9102-0.11889 1.8721-1.3413 4.8353-2.3235 5.1314-0.71797-1.475-1.5322-3.9027-2.217-5.4164 0.6975-0.45071 2.2973-3.8526 1.5762-6.0394 2e-3 2.1061-1.1757 4.7925-1.9217 5.1891-0.69432-1.5544-1.4103-3.1393-2.0692-4.7123 0.9244-0.68563 1.2666-2.5269 1.0159-4.2682-0.066 1.7699 0.0251 3.1405-1.4124 3.2973-0.35257-0.85241-0.89839-1.9182-1.2405-2.7707 0.5799-0.77804 0.64814-2.0916 0.32628-3.9904 0.23569 1.312-0.15481 2.7322-0.68125 3.1018-0.36983-0.85609-0.51543-1.0224-2.1068-5.4h1e-5l-2e-5 2e-5 -2e-5 -1e-5z" fill="#a80" fill-rule="evenodd" stroke="#a80" stroke-width=".39776"/><path d="m163.29 168.71s6.7735-4.8723 10.305-11.164c1.9179-3.4172 2.0456-6.357 1.9957-9.3278-0.0429-2.5631-0.21805-5.1492 0.51049-8.0852 0.36655-1.4771 0.9618-3.0428 1.9176-4.7386 1.2434-2.206 3.1432-4.8323 5.1142-7.3432 1.9722-2.5125 4.0157-4.9096 5.5441-6.6548 1.4667-1.6748 2.4591-2.7492 2.4591-2.7492 0.38906 0.57267 0.77813 1.1453 1.1672 1.718 0.64792-0.64514 1.2959-1.2903 1.9438-1.9354 0 0 0.11664 2.2924-0.0615 5.7305-0.13745 2.6529-0.45042 5.9879-1.1279 9.4784-0.54625 2.8144-1.3295 5.7299-2.4487 8.4705-0.96739 2.3686-2.1858 4.6066-3.7193 6.5356-1.8372 2.3111-3.4035 3.789-4.8584 4.9902-3.7595 3.1039-6.7749 4.3601-11.797 13.369 0 0-2.8618 4.5405-6.9438 1.7053l-4e-5 7e-5z" fill="#fc0" stroke="#a80" stroke-linejoin="round" stroke-width=".96624px"/><path class="fil1" d="m192 121.48c-0.80818 2.8205-1.5502 5.3295-2.2458 6.9513 0.48808 0.10742 0.92954-0.27844 2.0638-0.90817-0.57872 0.93345-1.9606 1.5357-2.3289 1.6528-0.46629 1.1064-0.91571 2.2731-1.4014 3.3994 0.94162 0.12692 1.6756-0.35172 2.3648-0.71727-0.28089 0.69874-2.3992 1.5355-2.6815 1.4421-0.58091 1.3385-1.261 2.7173-1.8668 4.0497 1.045 0.0604 3.1026-0.74601 4.4933-1.7211-1.6371 1.6329-3.7616 2.1821-4.8392 2.502-0.54993 1.1936-1.2389 3.3696-1.807 4.5288 0.93533 0.1249 3.9671-1.6353 4.977-2.0459-0.57923 0.54149-4.0844 2.9537-5.2416 2.8547-0.68426 1.3754-2.3169 3.6511-3.0243 4.9355 0.61684-0.10314 4.0105-1.5901 4.9302-1.9453-0.69433 0.70838-4.329 2.4502-5.2375 2.5352-1.2582 2.243-5.4705 7.2081-5.4837 10.243-0.17254-0.26614-0.72455-0.26155-0.97072-0.54663 0.68275-3.4194 4.867-7.9278 5.9394-9.9122-0.63765 0.13682-1.9925-3.3368-1.4054-4.9833 0.23894 1.729 0.93433 4.2792 1.7628 4.4035 0.69313-1.2997 2.3133-3.5815 2.9785-4.9305-0.36197-0.0506-2.6116-3.9999-2.03-5.9102 0.11889 1.8721 1.3413 4.8353 2.3235 5.1314 0.71797-1.475 1.5322-3.9026 2.217-5.4164-0.6975-0.4507-2.2973-3.8525-1.5762-6.0394-2e-3 2.1061 1.1757 4.7926 1.9217 5.1891 0.69432-1.5544 1.4103-3.1393 2.0692-4.7123-0.9244-0.68563-1.2666-2.5269-1.0159-4.2682 0.066 1.7699-0.0251 3.1405 1.4124 3.2973 0.35257-0.85241 0.89839-1.9182 1.2405-2.7707-0.5799-0.77805-0.64813-2.0916-0.32628-3.9904-0.23568 1.312 0.15481 2.7322 0.68125 3.1018 0.36983-0.85609 0.51543-1.0224 2.1068-5.4h-1e-5l2e-5 2e-5h2e-5z" fill="#a80" fill-rule="evenodd" stroke="#a80" stroke-width=".39776"/><path d="m161.6 172.14c2.8284-8.5444-2.173-6.5756 1.0824-16.348 2.3697-7.1137 6.9759-18.459 6.9759-18.459l1.943 0.59001 0.87021-2.464s7.4861 14.167 0.28861 31.258c-2.8147 6.6836-4.1062-7.9926-8.5638 5.6016-14.227 11.615-4.076 3.2764-2.5964-0.17872v4e-5z" fill="#fc0" stroke="#a80" stroke-linejoin="round" stroke-width=".96624px"/><path class="fil1" d="m171.92 138.85c-0.20751 2.9267-0.41467 5.5348-0.75989 7.2654 0.49975 4e-3 0.85188-0.46462 1.8314-1.3153-0.37319 1.033-1.6006 1.9079-1.9368 2.0986-0.22744 1.179-0.42592 2.4133-0.66819 3.6157 0.94751-0.0706 1.5666-0.69058 2.1654-1.1907-0.13033 0.74172-2.0298 1.9984-2.3253 1.9654-0.29161 1.4297-0.6719 2.9194-0.98912 4.3482 1.0349-0.15697 2.0143-0.99418 3.1734-2.2358-1.2641 1.9361-2.3621 2.5355-3.3503 3.0714-0.29124 1.2815-1.1458 3.135-1.4619 4.3867 0.94093-0.0712 2.6065-0.74977 3.5096-1.3604-0.45473 0.64955-2.4486 2.064-3.6013 2.2064-4.339 14.627-7.6821 17.633-0.54113-0.0903-0.36461 0.0255-3.0133-1.1235-2.8393-3.1128 0.50341 1.807 1.9432 2.2035 2.9654 2.2901 0.39747-1.5916 1.3226-3.7173 1.6795-5.3399-0.77562-0.29675-2.4964-1.0629-2.2431-3.3516 0.43344 2.061 1.5934 2.2145 2.4053 2.4483 0.35789-1.6644 0.73071-3.3631 1.0501-5.0383-1.0462-0.47967-2.0616-0.48784-1.7576-2.3318 0.4305 1.718 0.50631 1.4436 1.9448 1.2999 0.16869-0.90689 0.48234-2.0625 0.64075-2.9673-0.72825-0.64133-1.1892-0.45748-1.2669-2.3819 0.0408 1.3324 0.83903 1.1862 1.4305 1.439 0.18481-0.91406 0.29288-1.1069 0.94463-5.719l2e-5 1e-5z" fill="#a80" fill-rule="evenodd" stroke="#a80" stroke-width=".39776"/><path d="m124.22 182.44s8.3436 7e-3 14.887-3.0325c8.1622-3.7927 7.6958-9.9517 17.045-14.275 6.8058-3.1468 15.903-3.7732 15.903-3.7732l6.6754-1.6126s-10.704 16.568-23.634 20.212c-10.185 2.8703-11.289-0.90779-24.247 5.1573 0 0-4.9763 2.0106-6.6304-2.6761h-6e-5z" fill="#fc0" stroke="#a80" stroke-linejoin="round" stroke-width=".96624px"/><path d="m94.839 188.29s9.6491 1.9298 14.887-3.0326c5.2381-4.9624 6.3409-9.3734 16.266-12.13 9.9248-2.7569 19.022-6.8922 19.022-6.8922l-0.27567 1.3784 1.1028 1.1028s-7.8419 11.652-20.125 17.093c-6.4808 2.8703-9.9248-1.1027-22.882 4.9624 0 0-6.3409 2.2055-7.995-2.4812z" fill="#fc0" stroke="#a80" stroke-linejoin="round" stroke-width=".96629"/><path transform="matrix(.24102 0 0 .24102 -111.71 45.779)" d="m1111.2 74.244a6.8595 6.456 0 1 1-13.719 0 6.8595 6.456 0 1 1 13.719 0z" fill="#fc0" stroke="#a80" stroke-linecap="round" stroke-linejoin="round" stroke-width="4"/><path transform="matrix(.24102 0 0 .24102 -112.15 41.128)" d="m1111.2 74.244a6.8595 6.456 0 1 1-13.719 0 6.8595 6.456 0 1 1 13.719 0z" fill="#fc0" stroke="#a80" stroke-linecap="round" stroke-linejoin="round" stroke-width="4"/><path transform="matrix(.24102 0 0 .24102 -90.156 73.653)" d="m1111.2 74.244a6.8595 6.456 0 1 1-13.719 0 6.8595 6.456 0 1 1 13.719 0z" fill="#fc0" stroke="#a80" stroke-linecap="round" stroke-linejoin="round" stroke-width="4"/><path transform="matrix(.24102 0 0 .24102 -87.703 69.426)" d="m1111.2 74.244a6.8595 6.456 0 1 1-13.719 0 6.8595 6.456 0 1 1 13.719 0z" fill="#fc0" stroke="#a80" stroke-linecap="round" stroke-linejoin="round" stroke-width="4"/><path transform="matrix(.24102 0 0 .24102 -87.385 138.95)" d="m1111.2 74.244a6.8595 6.456 0 1 1-13.719 0 6.8595 6.456 0 1 1 13.719 0z" fill="#fc0" stroke="#a80" stroke-linecap="round" stroke-linejoin="round" stroke-width="4"/><path transform="matrix(.24102 0 0 .24102 -123.23 164.87)" d="m1111.2 74.244a6.8595 6.456 0 1 1-13.719 0 6.8595 6.456 0 1 1 13.719 0z" fill="#fc0" stroke="#a80" stroke-linecap="round" stroke-linejoin="round" stroke-width="4"/><path class="fil1" d="m142.49 169.17c-2.2746 1.8533-4.3169 3.4886-5.8143 4.4224 0.33923 0.367 0.92199 0.3025 2.2127 0.43361-1.0082 0.43554-2.4864 0.14044-2.8556 0.0261-1.0148 0.64174-2.0501 1.3425-3.0922 1.9895 0.70035 0.64209 1.5762 0.66851 2.3507 0.76222-0.62972 0.41303-2.8463-0.1103-3.0247-0.34826-1.2414 0.7667-2.5873 1.5099-3.8457 2.2574 0.82314 0.64657 2.104 0.78679 3.8025 0.78094-2.2765 0.40497-3.4652 0.0154-4.5325-0.33758-1.1332 0.66546-3.0691 1.3123-4.1976 1.9392 0.69633 0.63684 2.3315 1.3857 3.395 1.6256-0.78474 0.11354-3.181-0.37051-4.0742-1.1129-1.3474 0.738-3.9824 1.6658-5.2968 2.3159 0.56524 0.2677 3.1578 0.62928 4.1156 0.86318-0.97455 0.18476-3.9105-0.10532-4.7048-0.55452-2.3141 1.1222-6.526 3.313-8.6211 4.015 0.0104-0.317-0.44526-0.62857-0.48444-1.0032 1.9744-0.8454 6.7921-2.4668 8.8059-3.4828-0.60154-0.25193-0.32346-3.0655 1.099-4.0815-0.79152 1.5556-1.0834 3.2345-0.47446 3.8098 1.3114-0.67074 3.9396-1.6107 5.2563-2.3379-0.26819-0.24831-1.2452-2.9651 0.32347-4.2008-0.97185 1.6044-0.27463 2.925 0.36234 3.7292 1.4319-0.80046 3.6144-1.5822 5.0411-2.4335-0.31499-0.76839-0.93529-2.547 0.90585-3.9299-1.2049 1.7274-0.52229 2.6777-0.13655 3.4294 1.4579-0.87918 2.9509-1.7709 4.3903-2.6856-0.36702-1.0908-1.0566-1.8363 0.49529-2.8777-0.95692 1.4903-0.70512 1.3577 0.38483 2.3074 0.77633-0.49821 1.8332-1.0611 2.601-1.5654-0.0315-0.96987-0.48115-1.1798 0.86781-2.5545-0.94297 0.94222-0.28969 1.4238-0.0688 2.0279 0.7926-0.49137 1.0071-0.5447 4.814-3.2286h-1e-5v2e-5z" fill="#a80" fill-rule="evenodd" stroke="#a80" stroke-width=".39776"/><path class="fil1" d="m175.16 162.68c-2.8066 0.85524-5.3028 1.6391-6.9127 2.3617-0.11557-0.48622 0.26285-0.93407 0.87353-2.0787-0.92365 0.59425-1.5027 1.986-1.6136 2.3562-1.0985 0.48473-2.2574 0.9536-3.3755 1.458-0.14265-0.93937 0.32365-1.6812 0.67763-2.3764-0.69395 0.29254-1.4952 2.4245-1.397 2.7052-1.3286 0.60322-2.6959 1.3063-4.0179 1.9343-0.0779-1.0438 0.51971-2.2924 1.4714-3.6992-1.6053 1.6642-1.9446 2.9753-2.2465 4.0581-1.1842 0.56981-2.8004 2.3467-3.9499 2.9342-0.14052-0.93311 0.36334-3.6711 0.75704-4.6877-0.53172 0.58819-1.6797 3.8104-1.5613 4.9657-1.3638 0.70716-3.603 2.9079-4.8754 3.6367 0.0928-0.61849 1.2379-2.9724 1.5777-3.8979-0.69666 0.70607-2.0925 3.3052-2.1624 4.2151-2.2217 1.2956-7.6725 4.0083-10.707 4.0723 0.26898 0.16806 0.27361 0.72007 0.56278 0.96143 3.4075-0.73984 8.4022-3.4169 10.368-4.5224-0.12619 0.63984 4.3976 1.9775 6.0341 1.3629-1.7327-0.21008-5.3222-0.90371-5.4604-1.7299 1.2879-0.71477 3.5334-2.9031 4.8712-3.5908 0.0566 0.36108 3.4794 2.5797 5.3798 1.9662-1.8738-0.0876-4.2934-1.2956-4.606-2.2728 1.4628-0.74254 3.3285-2.649 4.8306-3.3589 0.46232 0.68987 3.4121 2.5173 5.5865 1.7598-2.1058 0.0373-4.3332-1.3801-4.7422-2.1194 1.5426-0.72021 3.1153-1.4626 4.677-2.1478 0.701 0.9128 0.93552 1.9008 2.6652 1.193-1.7707-0.0364-1.5202-0.17145-1.7011-1.6058 0.84639-0.36677 1.9029-0.93034 2.7496-1.2866 0.78763 0.5668 1.1393 0.62917 3.0325 0.27558-1.3079 0.25759-1.7715-0.12522-2.1499-0.64539 0.84978-0.38408 1.0136-0.53245 5.364-2.1968v1e-5l-2e-5 -2e-5z" fill="#a80" fill-rule="evenodd" stroke="#a80" stroke-width=".39776"/><path transform="matrix(.24102 0 0 .24102 -127.74 162.45)" d="m1111.2 74.244a6.8595 6.456 0 1 1-13.719 0 6.8595 6.456 0 1 1 13.719 0z" fill="#fc0" stroke="#a80" stroke-linecap="round" stroke-linejoin="round" stroke-width="4"/><path transform="matrix(.24102 0 0 .24102 -166.87 162.13)" d="m1111.2 74.244a6.8595 6.456 0 1 1-13.719 0 6.8595 6.456 0 1 1 13.719 0z" fill="#fc0" stroke="#a80" stroke-linecap="round" stroke-linejoin="round" stroke-width="4"/><path transform="matrix(-1.3326 1.4712 -1.4712 -1.3326 1538 119.45)" d="m480 413.68a60 60 0 1 1-120 0 60 60 0 1 1 120 0z" fill="none" opacity=".4"/></svg>
