<?xml version="1.0" encoding="UTF-8" standalone="no"?>
<!-- Created with Inkscape (http://www.inkscape.org/) -->

<svg
   xmlns:dc="http://purl.org/dc/elements/1.1/"
   xmlns:cc="http://creativecommons.org/ns#"
   xmlns:rdf="http://www.w3.org/1999/02/22-rdf-syntax-ns#"
   xmlns:svg="http://www.w3.org/2000/svg"
   xmlns="http://www.w3.org/2000/svg"
   xmlns:sodipodi="http://sodipodi.sourceforge.net/DTD/sodipodi-0.dtd"
   xmlns:inkscape="http://www.inkscape.org/namespaces/inkscape"
   version="1.1"
   id="svg2"
   width="3000"
   height="2000"
   viewBox="0 0 3000 2000"
   sodipodi:docname="Flag_of_Kastellorizo.svg"
   inkscape:version="0.92.2 (5c3e80d, 2017-08-06)">
  <metadata
     id="metadata8">
    <rdf:RDF>
      <cc:Work
         rdf:about="">
        <dc:format>image/svg+xml</dc:format>
        <dc:type
           rdf:resource="http://purl.org/dc/dcmitype/StillImage" />
        <dc:title />
      </cc:Work>
    </rdf:RDF>
  </metadata>
  <defs
     id="defs6" />
  <sodipodi:namedview
     pagecolor="#ffffff"
     bordercolor="#666666"
     borderopacity="1"
     objecttolerance="10"
     gridtolerance="10"
     guidetolerance="10"
     inkscape:pageopacity="0"
     inkscape:pageshadow="2"
     inkscape:window-width="1280"
     inkscape:window-height="737"
     id="namedview4"
     showgrid="false"
     inkscape:zoom="0.1767767"
     inkscape:cx="1332.7902"
     inkscape:cy="618.57608"
     inkscape:window-x="-8"
     inkscape:window-y="-8"
     inkscape:window-maximized="1"
     inkscape:current-layer="svg2">
    <inkscape:grid
       type="xygrid"
       id="grid850" />
  </sodipodi:namedview>
  <path
     sodipodi:nodetypes="ccc"
     inkscape:connector-curvature="0"
     id="path847"
     d="m 1718.3631,780.05253 -26.6938,-16.3385 c 0,0 -111.6596,-55.70301 -174.4651,79.4345"
     style="fill:none;stroke:#113268;stroke-width:20;stroke-linecap:butt;stroke-linejoin:miter;stroke-miterlimit:4;stroke-dasharray:none;stroke-opacity:1" />
  <rect
     style="opacity:1;fill:#113268;fill-opacity:1;fill-rule:evenodd;stroke:#113268;stroke-width:9.95850277;stroke-linecap:round;stroke-linejoin:miter;stroke-miterlimit:4;stroke-dasharray:none;stroke-dashoffset:40;stroke-opacity:1;paint-order:markers fill stroke"
     id="rect1063"
     width="2990.0415"
     height="1990.0415"
     x="4.9792509"
     y="4.9792914" />
  <rect
     y="204.14616"
     x="204.14612"
     height="1591.7081"
     width="2591.708"
     id="rect1065"
     style="opacity:1;fill:#ffffff;fill-opacity:1;fill-rule:evenodd;stroke:#113268;stroke-width:8.29180622;stroke-linecap:round;stroke-linejoin:miter;stroke-miterlimit:4;stroke-dasharray:none;stroke-dashoffset:40;stroke-opacity:1;paint-order:markers fill stroke" />
  <path
     id="path868"
     d="m 1088.2297,371.49753 c -6.3833,4.45001 -5.306,9.65651 -6.2474,20.3425 -0.7962,9.03651 -11.6208,18.9435 -15.1029,21.93201 l -10.9195,7.61149 759.1424,1089.02947 11.7766,-8.209 c 4.3538,-3.906 13.5867,-13.071 14.307,-21.2465 0.9414,-10.686 -0.1355,-15.8925 6.2474,-20.342 6.3832,-4.45 10.8954,-1.6375 21.2473,1.176 7.9124,2.1505 19.7055,-3.3365 24.8842,-6.073 l 11.7765,-8.2095 -759.1422,-1089.02947 -10.9114,7.6065 c -4.0034,2.23051 -17.0539,8.96801 -25.8107,6.58801 -10.3519,-2.81401 -14.8642,-5.62601 -21.2473,-1.17651 z"
     style="opacity:1;fill:#113268;fill-opacity:1;fill-rule:evenodd;stroke:none;stroke-width:4.89332104;stroke-linecap:round;stroke-linejoin:miter;stroke-miterlimit:4;stroke-dasharray:none;stroke-dashoffset:40;stroke-opacity:1;paint-order:markers fill stroke"
     inkscape:connector-curvature="0"
     inkscape:transform-center-x="-424.68304"
     inkscape:transform-center-y="513.08118" />
  <path
     style="fill:#113268;fill-opacity:1;stroke:none;stroke-width:4.3202014px;stroke-linecap:butt;stroke-linejoin:miter;stroke-opacity:1"
     d="m 1489.5235,378.98204 62.8932,90.24649 -533.1948,371.5875 -62.89341,-90.24651 z"
     id="path872"
     inkscape:connector-curvature="0" />
  <path
     style="fill:none;stroke:#113268;stroke-width:20;stroke-linecap:butt;stroke-linejoin:miter;stroke-miterlimit:4;stroke-dasharray:none;stroke-opacity:1"
     d="m 1439.6131,1124.4276 c 0,0 -132.4999,-12.5001 -184.9999,94.3749 -52.5001,106.875 76.2499,182.5 102.4999,184.375 26.25,1.875 145.625,21.25 180.625,-160.625"
     id="path940"
     inkscape:connector-curvature="0"
     sodipodi:nodetypes="cssc" />
  <path
     style="fill:#ffffff;fill-opacity:1;stroke:#ffffff;stroke-width:10.12964535;stroke-linecap:butt;stroke-linejoin:miter;stroke-miterlimit:4;stroke-dasharray:none;stroke-opacity:1"
     d="m 1560.5194,807.69553 c -31.6127,-1.2815 -56.251,22.19599 -84.6776,32.18899 -54.7158,-51.90949 -156.7208,-37.26949 -190.0297,32.8125 -35.693,59.47951 -20.1916,141.93348 33.1291,185.61648 56.2914,71.8375 113.719,143.4515 160.2837,222.112 58.376,-112.0675 161.5559,-195.8459 211.8422,-311.43748 13.4861,-76.6425 -48.7126,-165.08499 -130.5477,-161.29249 z"
     id="path883"
     inkscape:connector-curvature="0" />
  <path
     style="fill:#113268;fill-opacity:1;stroke:#ffffff;stroke-width:10;stroke-linecap:butt;stroke-linejoin:miter;stroke-miterlimit:4;stroke-dasharray:none;stroke-opacity:1"
     d="m 1392.2167,825.18552 c -96.0212,1.91 -151.3236,137.0445 -82.9079,205.47948 58.2778,76.479 121.4302,149.9545 170.2322,232.665 54.7751,-94.911 131.9601,-174.6405 191.8066,-265.47846 35.8122,-79.74402 -37.5765,-190.81101 -128.1054,-170.26352 -24.6484,5.50151 -46.0321,20.35301 -63.7306,37.90051 -23.0119,-23.2205 -53.686,-41.33051 -87.2949,-40.30301 z"
     id="path852"
     inkscape:connector-curvature="0" />
  <path
     style="opacity:1;fill:#113268;fill-opacity:1;fill-rule:evenodd;stroke:none;stroke-width:0.97866428;stroke-linecap:round;stroke-linejoin:miter;stroke-miterlimit:4;stroke-dasharray:none;stroke-dashoffset:40;stroke-opacity:1;paint-order:markers fill stroke"
     d="m -751.62305,1503.4863 c -1.5562,0 -1.97492,0.9775 -3.35156,2.6231 -1.16413,1.3915 -4.07323,1.779 -4.98633,1.8711 h -2.66211 v 265.5019 h 2.8711 c 1.16106,-0.1429 3.72413,-0.5906 4.77734,-1.8496 1.37664,-1.6456 1.79536,-2.623 3.35156,-2.623 1.55621,0 1.97492,0.9774 3.35157,2.623 1.05223,1.2578 3.61471,1.7063 4.77734,1.8496 h 2.87109 v -265.5019 h -2.66015 c -0.91196,-0.092 -3.82376,-0.4791 -4.98828,-1.8711 -1.37664,-1.6456 -1.79536,-2.6231 -3.35157,-2.6231 z"
     id="rect942"
     inkscape:connector-curvature="0" />
  <rect
     transform="rotate(90)"
     style="opacity:1;fill:#113268;fill-opacity:1;fill-rule:evenodd;stroke:none;stroke-width:0.68475997;stroke-linecap:round;stroke-linejoin:miter;stroke-miterlimit:4;stroke-dasharray:none;stroke-dashoffset:40;stroke-opacity:1;paint-order:markers fill stroke"
     id="rect944"
     width="22"
     height="129.98065"
     x="1550.6038"
     y="686.63245" />
  <path
     inkscape:connector-curvature="0"
     id="path950"
     d="m -913.4668,1504.7148 a 21.25,21.25 0 0 0 -21.25,21.25 21.25,21.25 0 0 0 13.75,19.8555 v 37.5235 l -24.85156,-1.2461 c 1.59133,-1.4707 2.49736,-3.5383 2.5,-5.7051 -10e-6,-4.2975 -3.48379,-7.7813 -7.78125,-7.7813 -3.00818,0 -5.74448,1.742 -7.02734,4.4629 l -0.004,-0.01 c -0.0333,0.07 -0.0597,0.1375 -0.0918,0.2071 -0.0206,0.045 -0.0408,0.091 -0.0605,0.1367 -2.17881,8.6782 -0.59424,14.0565 8.59765,15.8828 l 28.71875,1.4394 v 180.4668 c -18.3028,-0.2397 -35.39356,-20.943 -37.59375,-23.7031 l 7.76758,-5.4297 c 0,0 -12.69269,-9.4299 -28.50391,-9.3574 -5.49769,14.8248 -1,29.9844 -1,29.9844 l 8.15626,-5.7031 c 1.75404,3.3196 13.01435,22.7273 42.26562,33.914 l 16.40625,21.125 16.40625,-21.125 c 29.25126,-11.1867 40.51325,-30.5944 42.26758,-33.914 l 8.1582,5.7031 c 0,0 4.49574,-15.1596 -1.00195,-29.9844 -15.81122,-0.072 -28.50196,9.3574 -28.50195,9.3574 l 7.76562,5.4278 c -2.19232,2.7508 -19.28503,23.4635 -37.5918,23.705 v -179.7068 l 24.84961,1.2461 c -1.59133,1.4707 -2.49736,3.5383 -2.5,5.7051 1e-5,4.2975 3.48379,7.7813 7.78125,7.7813 3.00818,0 5.74449,-1.742 7.02735,-4.4629 l 0.004,0.01 c 0.0333,-0.07 0.0597,-0.1375 0.0918,-0.2071 0.0206,-0.045 0.0409,-0.091 0.0606,-0.1367 2.17881,-8.6782 0.59423,-14.0565 -8.59766,-15.8828 l -28.7168,-1.4394 v -38.2657 a 21.25,21.25 0 0 0 13.75,-19.873 21.25,21.25 0 0 0 -21.25,-21.25 z"
     style="fill:#113268;fill-opacity:1;stroke:none;stroke-width:1px;stroke-linecap:butt;stroke-linejoin:miter;stroke-opacity:1" />
  <path
     style="fill:none;stroke:#113268;stroke-width:20;stroke-linecap:butt;stroke-linejoin:miter;stroke-miterlimit:4;stroke-dasharray:none;stroke-opacity:1"
     d="m 1718.3631,780.05253 -26.6938,-16.3385 c 0,0 -85.4096,-51.32801 -158.8401,37.5595"
     id="path938"
     inkscape:connector-curvature="0"
     sodipodi:nodetypes="ccc" />
  <path
     style="fill:#ffffff;fill-opacity:1;stroke:none;stroke-width:0;stroke-linecap:butt;stroke-linejoin:miter;stroke-miterlimit:4;stroke-dasharray:none;stroke-opacity:1"
     d="m 1919.8743,348.43104 c -80.0639,0.29499 -139.7951,102.56299 -94.8828,170.86949 -16.7158,44.1965 -53.7897,76.3625 -75.1953,118.0855 -11.5268,21.319 -42.4365,23.069 -55.4102,2.0415 -10.3472,-13.6205 -45.7043,-25.979 -26.7578,-47.92 24.3734,-30.202 -4.4171,-78.368 -41.0645,-78.262 -17.9904,-6.5015 -31.3196,18.56251 -44.541,27.4905 -26.4556,29.7895 -15.0138,75.431 17.6563,95.0485 30.6239,27.078 65.758,48.4675 97.1094,75.049 -168.6283,241.2945 -336.1801,483.34547 -505.5078,724.14047 -47.9543,-47.898 -67.6427,-116.7055 -70.5078,-182.8905 12.6154,1.32 43.4635,11.317 46.5038,-7.4025 -21.3652,-52.0895 -54.6489,-101.2475 -102.1776,-132.734 -49.3042,33.3376 -88.55842,88.456 -103.06647,143.457 18.0413,3.4475 57.46407,-14.566 51.59177,16.9335 -0.252,84.7215 33.4932,166.9035 78.0469,238.1345 2.4284,47.1065 4.8568,94.2125 7.2852,141.3185 60.5157,-15.0135 121.8522,-53.5035 185.4067,-33.8595 72.7007,10.5935 148.9891,4.262 217.6889,-24.402 6.5498,13.381 4.3918,44.5565 23.9649,45.244 42.4122,-37.0255 77.3664,-86.343 90.8105,-142.1385 -48.1793,-34.9425 -113.573,-52.5319 -169.9707,-47.686 4.8088,15.1705 25.372,43.281 5.1953,51.006 -60.1777,9.886 -125.682,18.2905 -182.373,-10.381 167.4924,-240.2425 334.9796,-480.4885 502.4707,-720.73197 22.6342,21.548 52.1213,35.38949 71.1913,60.71249 -36.9944,26.8605 -12.9467,94.255 33.1619,89.79951 45.6172,-3.4585 79.24,-74.8555 39.5726,-107.32851 -32.7876,-35.11899 -75.8664,-57.905 -111.8751,-89.29699 34.4464,-47.47301 65.5971,-97.321 101.9727,-143.3885 85.6162,20.0125 167.2993,-82.25749 126.8262,-161.07449 -18.8272,-43.313 -65.7911,-72.92851 -113.125,-69.834 z"
     id="path964"
     inkscape:connector-curvature="0" />
  <g
     aria-label="                                                Μ  Ε  Γ  Ι  Σ  Τ  Η                                    "
     style="font-style:normal;font-weight:normal;font-size:27.01846886px;line-height:1.25;font-family:sans-serif;letter-spacing:0.28999999px;word-spacing:0px;fill:#113268;fill-opacity:1;stroke:none;stroke-width:3.37730861"
     id="text992"
     transform="matrix(4.9999999,0,0,4.9999999,-0.05914714,-19.052455)">
    <path
       d="m 182.30556,299.70125 -15.47944,11.59468 -3.50372,-4.67763 8.45516,-10.71774 -12.63905,5.13205 -3.51162,-4.68818 15.47945,-11.59468 2.17499,2.90372 -12.18505,9.12705 14.48659,-6.05439 2.25408,3.0093 -9.89143,12.18915 12.18505,-9.12705 z"
       style="font-style:normal;font-variant:normal;font-weight:bold;font-stretch:normal;font-family:Arial;-inkscape-font-specification:'Arial Bold';letter-spacing:0.28999999px;fill:#113268;fill-opacity:1;stroke-width:3.37730861"
       id="path999"
       inkscape:connector-curvature="0" />
    <path
       d="m 161.40323,267.49786 -17.75382,7.67149 -5.68821,-13.16398 3.00338,-1.29777 4.13925,9.57931 3.93588,-1.70071 -3.85145,-8.91324 2.99127,-1.29253 3.85144,8.91324 4.83204,-2.08795 -4.28578,-9.9184 2.99127,-1.29253 z"
       style="font-style:normal;font-variant:normal;font-weight:bold;font-stretch:normal;font-family:Arial;-inkscape-font-specification:'Arial Bold';letter-spacing:0.28999999px;fill:#113268;fill-opacity:1;stroke-width:3.37730861"
       id="path1001"
       inkscape:connector-curvature="0" />
    <path
       d="m 131.04886,239.21993 -2.59804,-13.36459 3.22459,-0.62686 1.85287,9.53134 15.76038,-3.06378 0.74517,3.83325 z"
       style="font-style:normal;font-variant:normal;font-weight:bold;font-stretch:normal;font-family:Arial;-inkscape-font-specification:'Arial Bold';letter-spacing:0.28999999px;fill:#113268;fill-opacity:1;stroke-width:3.37730861"
       id="path1003"
       inkscape:connector-curvature="0" />
    <path
       d="m 146.07538,203.89664 -19.3388,0.24618 -0.0497,-3.90469 19.3388,-0.24619 z"
       style="font-style:normal;font-variant:normal;font-weight:bold;font-stretch:normal;font-family:Arial;-inkscape-font-specification:'Arial Bold';letter-spacing:0.28999999px;fill:#113268;fill-opacity:1;stroke-width:3.37730861"
       id="path1005"
       inkscape:connector-curvature="0" />
    <path
       d="m 127.9808,177.78917 2.20988,-13.20689 3.22691,0.53995 -1.4152,8.45761 6.70646,-3.94733 5.843,6.56888 1.56761,-9.36843 3.21389,0.53777 -2.31875,13.85748 -3.56521,-0.59656 -5.54611,-6.1848 -6.48739,3.9171 z"
       style="font-style:normal;font-variant:normal;font-weight:bold;font-stretch:normal;font-family:Arial;-inkscape-font-specification:'Arial Bold';letter-spacing:0.28999999px;fill:#113268;fill-opacity:1;stroke-width:3.37730861"
       id="path1007"
       inkscape:connector-curvature="0" />
    <path
       d="m 156.05163,145.23142 -14.94358,-5.90673 -2.10955,5.33699 -3.04269,-1.20269 5.64971,-14.29332 3.04269,1.20269 -2.10469,5.32472 14.94357,5.90673 z"
       style="font-style:normal;font-variant:normal;font-weight:bold;font-stretch:normal;font-family:Arial;-inkscape-font-specification:'Arial Bold';letter-spacing:0.28999999px;fill:#113268;fill-opacity:1;stroke-width:3.37730861"
       id="path1009"
       inkscape:connector-curvature="0" />
    <path
       d="m 168.20811,119.98506 -15.99467,-10.87292 2.19535,-3.22949 6.29531,4.27945 4.3017,-6.32804 -6.29531,-4.279448 2.19535,-3.229483 15.99467,10.872921 -2.19535,3.22948 -6.99358,-4.75412 -4.3017,6.32804 6.99358,4.75412 z"
       style="font-style:normal;font-variant:normal;font-weight:bold;font-stretch:normal;font-family:Arial;-inkscape-font-specification:'Arial Bold';letter-spacing:0.28999999px;fill:#113268;fill-opacity:1;stroke-width:3.37730861"
       id="path1011"
       inkscape:connector-curvature="0" />
  </g>
  <g
     aria-label="     ΚΑΣΤΕΛΟΡΙΖΟ"
     style="font-style:normal;font-variant:normal;font-weight:bold;font-stretch:normal;font-size:27.01846886px;line-height:1.25;font-family:Arial;-inkscape-font-specification:'Arial Bold';letter-spacing:3.5px;word-spacing:0px;fill:#113268;fill-opacity:1;stroke:none;stroke-width:3.37730861"
     id="text1026"
     transform="matrix(4.9999999,0,0,4.9999999,-0.05914714,18.003044)">
    <path
       d="m 414.02486,96.194849 14.94408,-12.276978 2.47884,3.01736 -6.63615,5.451782 11.64409,0.644099 3.33304,4.057126 -10.44336,-0.845144 -4.24949,13.427936 -3.20742,-3.90422 3.63841,-9.869731 -4.50736,-0.394762 -4.51584,3.709892 z"
       style="letter-spacing:3.5px;fill:#113268;fill-opacity:1;stroke-width:3.37730861"
       id="path1040"
       inkscape:connector-curvature="0" />
    <path
       d="m 437.10937,129.28032 -2.17618,-3.64828 2.90784,-3.70077 -3.96038,-6.63941 -4.59066,0.87958 -2.12211,-3.55763 20.46886,-3.43824 2.11535,3.54631 z m 2.88814,-10.09471 4.79837,-5.9652 -7.5017,1.43318 z"
       style="letter-spacing:3.5px;fill:#113268;fill-opacity:1;stroke-width:3.37730861"
       id="path1042"
       inkscape:connector-curvature="0" />
    <path
       d="m 457.03543,126.38148 5.20902,12.33578 -3.01407,1.27275 -3.33582,-7.89976 -3.54833,6.92585 -8.45285,-2.41663 3.69507,8.75051 -3.00191,1.26762 -5.46563,-12.94346 3.33006,-1.40618 7.9964,2.25135 3.37954,-6.78297 z"
       style="letter-spacing:3.5px;fill:#113268;fill-opacity:1;stroke-width:3.37730861"
       id="path1044"
       inkscape:connector-curvature="0" />
    <path
       d="m 447.82307,156.9134 15.48071,-4.30667 -1.53809,-5.52883 3.15206,-0.87689 4.11927,14.80708 -3.15206,0.8769 -1.53456,-5.51612 -15.48072,4.30667 z"
       style="letter-spacing:3.5px;fill:#113268;fill-opacity:1;stroke-width:3.37730861"
       id="path1046"
       inkscape:connector-curvature="0" />
    <path
       d="m 451.5903,172.12508 19.15936,-2.63983 1.95736,14.20616 -3.24115,0.44657 -1.42435,-10.33769 -4.24747,0.58523 1.32531,9.61889 -3.22807,0.44477 -1.32532,-9.61889 -5.21459,0.71848 1.47478,10.70363 -3.22808,0.44478 z"
       style="letter-spacing:3.5px;fill:#113268;fill-opacity:1;stroke-width:3.37730861"
       id="path1048"
       inkscape:connector-curvature="0" />
    <path
       d="m 473.33391,202.68435 -19.34551,6.89854 0.003,-4.23483 14.30443,-4.88381 -14.29726,-4.74679 0.003,-4.14248 19.33521,6.94051 z"
       style="letter-spacing:3.5px;fill:#113268;fill-opacity:1;stroke-width:3.37730861"
       id="path1050"
       inkscape:connector-curvature="0" />
    <path
       d="m 463.13456,214.99324 q 2.92248,0.43815 4.77454,1.6096 1.36344,0.87141 2.35639,2.16753 0.99099,1.30915 1.35053,2.73708 0.48874,1.90086 0.13861,4.23624 -0.63375,4.22716 -3.63563,6.36508 -3.00383,2.15097 -7.67459,1.45071 -4.63161,-0.69439 -6.8765,-3.60559 -2.23185,-2.90923 -1.60005,-7.12335 0.63962,-4.2663 3.61345,-6.39509 2.98687,-2.12682 7.55325,-1.44221 z m -0.46612,3.99883 q -3.24865,-0.48705 -5.15664,0.76101 -1.89493,1.25001 -2.24115,3.55929 -0.34621,2.30928 1.0897,4.03199 1.447,1.7377 4.77394,2.23649 3.28779,0.49292 5.12271,-0.71273 1.83297,-1.1926 2.19092,-3.58016 0.35795,-2.38757 -1.06687,-4.09527 -1.41177,-1.70574 -4.71261,-2.20062 z"
       style="letter-spacing:3.5px;fill:#113268;fill-opacity:1;stroke-width:3.37730861"
       id="path1052"
       inkscape:connector-curvature="0" />
    <path
       d="m 449.27396,238.48478 18.48064,5.70224 -1.84759,5.98793 q -1.05021,3.40367 -1.64649,4.3518 -0.9061,1.46002 -2.63601,2.0998 -1.7173,0.64366 -3.92338,-0.037 -1.70183,-0.52511 -2.67101,-1.50066 -0.96917,-0.97555 -1.34169,-2.13977 -0.36379,-1.14773 -0.2747,-2.19713 0.14757,-1.41794 0.92939,-3.95178 l 0.75071,-2.43299 -6.97121,-2.15098 z m 14.20297,8.46903 -5.24416,-1.61809 -0.63013,2.04219 q -0.68069,2.20608 -0.62024,3.03931 0.0605,0.83323 0.5498,1.43982 0.48545,0.61921 1.30485,0.87204 1.00849,0.31117 1.84683,-0.0791 0.83833,-0.39023 1.28227,-1.24731 0.33221,-0.62923 0.95456,-2.64621 z"
       style="letter-spacing:3.5px;fill:#113268;fill-opacity:1;stroke-width:3.37730861"
       id="path1054"
       inkscape:connector-curvature="0" />
    <path
       d="m 442.33188,258.74789 17.77821,7.61481 -1.53751,3.5896 -17.7782,-7.61481 z"
       style="letter-spacing:3.5px;fill:#113268;fill-opacity:1;stroke-width:3.37730861"
       id="path1056"
       inkscape:connector-curvature="0" />
    <path
       d="m 438.62989,267.44335 3.08468,1.70066 6.08248,14.9533 4.35038,-7.89077 2.86517,1.57964 -6.8345,12.39648 -2.65721,-1.46499 -6.3113,-15.57659 -5.31218,9.63529 -2.85361,-1.57327 z"
       style="letter-spacing:3.5px;fill:#113268;fill-opacity:1;stroke-width:3.37730861"
       id="path1058"
       inkscape:connector-curvature="0" />
    <path
       d="m 435.92049,291.40633 q 2.35613,1.78369 3.42142,3.69878 0.77991,1.41777 1.03124,3.03105 0.24337,1.6238 -0.12452,3.04961 -0.48085,1.90287 -1.9062,3.78567 -2.57999,3.40796 -6.23899,3.84799 -3.66697,0.45055 -7.43256,-2.40017 -3.73404,-2.82683 -4.31141,-6.45743 -0.56684,-3.62263 2.00518,-7.02008 2.60387,-3.43952 6.23387,-3.88496 3.64053,-0.43748 7.32197,2.34954 z m -2.3235,3.28775 q -2.61908,-1.98277 -4.89169,-1.80036 -2.2621,0.19036 -3.67153,2.05212 -1.40943,1.86177 -0.9734,4.06164 0.43858,2.21835 3.12078,4.24889 2.65064,2.00665 4.83881,1.8265 2.1802,-0.16962 3.63742,-2.09449 1.45721,-1.92487 1.02373,-4.10626 -0.42296,-2.17343 -3.08412,-4.18804 z"
       style="letter-spacing:3.5px;fill:#113268;fill-opacity:1;stroke-width:3.37730861"
       id="path1060"
       inkscape:connector-curvature="0" />
  </g>
  <path
     sodipodi:nodetypes="cccc"
     inkscape:connector-curvature="0"
     id="path849"
     d="m 1592.947,1067.1085 c 62.7609,-35.0155 78.4018,-39.8859 124.0459,-82.73848 39.7235,-50.972 77.1837,-122.487 1.3702,-204.31749 l -26.6938,-16.3385"
     style="fill:none;stroke:#113268;stroke-width:20;stroke-linecap:butt;stroke-linejoin:miter;stroke-miterlimit:4;stroke-dasharray:none;stroke-opacity:1" />
  <path
     inkscape:connector-curvature="0"
     id="path960"
     d="m 1987.0241,377.57303 a 106.25,106.25 0 0 0 -147.9237,26.3955 106.25,106.25 0 0 0 -0.379,120.7575 l -107.2978,153.9075 -98.3685,-76.174 c 10.7323,-1.4815 20.3608,-7.3715 26.5676,-16.2515 12.2885,-17.6265 7.9613,-41.8775 -9.6654,-54.166 -12.3499,-8.58549 -28.5427,-9.2815 -41.5851,-1.7895 l 0.015,-0.055 c -0.3366,0.19 -0.6381,0.39501 -0.9686,0.58651 -0.214,0.125 -0.4275,0.25499 -0.6391,0.38499 -33.7518,29.3645 -42.6318,55.9555 -10.1524,89.73049 l 113.6775,88.02501 -516.0424,740.20697 c -74.3859,-53.3195 -85.2847,-187.108 -86.4167,-204.7199 l 47.3858,-0.06 c 0,0 -25.096,-74.9725 -90.155,-119.8874 -64.9408,45.0854 -89.84152,120.1254 -89.84152,120.1254 l 49.76192,-0.07 c -2.2981,18.6315 -11.6085,130.4335 76.381,259.961 l 6.8856,133.56 127.6989,-39.7335 c 151.9658,37.76 253.6546,-9.6395 270.3426,-18.239 l 17.1539,46.7205 c 0,0 61.7885,-49.3234 81.6303,-125.85 -64.6444,-45.5094 -143.6618,-43.12 -143.6617,-43.12 l 16.3311,44.4681 c -16.8581,5.0139 -146.1936,41.0934 -221.9719,-10.2641 l 513.8694,-737.08997 98.3605,76.168 c -10.7323,1.482 -20.3608,7.3715 -26.5676,16.2515 -12.2885,17.6265 -7.9613,41.8775 9.6653,54.1665 12.3499,8.585 28.5428,9.281 41.5852,1.7895 l -0.015,0.05 c 0.3366,-0.19 0.6381,-0.395 0.9686,-0.587 0.214,-0.125 0.428,-0.255 0.6395,-0.39 33.7519,-29.364 42.6318,-55.9555 10.1524,-89.73 l -113.6695,-88.01949 109.42,-156.9515 a 106.25,106.25 0 0 0 113.2241,-42.1935 106.25,106.25 0 0 0 -26.3954,-147.924 z"
     style="fill:#113268;fill-opacity:1;stroke:none;stroke-width:0;stroke-linecap:butt;stroke-linejoin:miter;stroke-miterlimit:4;stroke-dasharray:none;stroke-opacity:1" />
</svg>
