<?xml version="1.0" encoding="UTF-8" standalone="no"?>
<svg xmlns="http://www.w3.org/2000/svg" version="1.1" width="800" height="560" viewBox="0 0 800 560">
<rect fill="#fff" x="0" y="0" width="800" height="560"/>
<g fill="#3d117b">
	<path d="m 469.55001,278.95649 c 0,42.60816 -34.71939,77.1464 -77.55,77.1464 -42.83062,0 -77.55103,-34.53824 -77.55103,-77.1464 0,-42.60714 34.72041,-77.1464 77.55103,-77.1464 42.83061,0 77.55,34.54027 77.55,77.1464 z m -77.55,-107.59892 c -59.73674,0 -108.16327,48.17386 -108.16327,107.59892 0,59.42405 48.42653,107.59893 108.16327,107.59893 59.73673,0 108.16225,-48.17488 108.16225,-107.59893 0,-59.42506 -48.42552,-107.59892 -108.16225,-107.59892 z"/>
	<path d="m 515.4694,278.95649 c 0,67.83504 -55.27959,122.82519 -123.46939,122.82519 -68.19082,0 -123.46939,-54.99015 -123.46939,-122.82519 0,-67.83401 55.27857,-122.82518 123.46939,-122.82518 68.1898,10e-4 123.46939,54.99117 123.46939,122.82518 z M 392.00001,125.67979 c -85.09797,0 -154.08164,68.62477 -154.08164,153.27772 0,84.65396 68.9847,153.27771 154.08164,153.27771 85.09694,0 154.08164,-68.62375 154.08164,-153.27771 0,-84.65295 -68.98368,-153.27772 -154.08164,-153.27772 z"/>
	<path d="m 561.38777,278.95649 c 0,93.06292 -75.83674,168.50398 -169.38776,168.50398 -93.55103,0 -169.38776,-75.44106 -169.38776,-168.50398 0,-93.06292 75.83775,-168.50397 169.38776,-168.50397 93.55,0 169.38776,75.44207 169.38776,168.50397 z M 392.00001,79.99999 C 281.54184,79.99999 192,169.07566 192,278.95649 192,388.83631 281.54286,477.913 392.00001,477.913 c 110.45714,0 200,-89.07669 200,-198.95651 0,-109.87982 -89.54286,-198.9565 -200,-198.9565 z"/>
</g>
<rect fill="#fff" x="375.63776" y="351.76138" width="32.65306" height="128.23863"/>
</svg>