<?xml version="1.0" encoding="UTF-8" standalone="no"?>
<!-- Created with Inkscape (http://www.inkscape.org/) -->

<svg
   width="200mm"
   height="100mm"
   viewBox="0 0 200 100"
   version="1.1"
   id="svg42"
   xmlns="http://www.w3.org/2000/svg"
   xmlns:svg="http://www.w3.org/2000/svg">
  <defs
     id="defs39" />
  <g
     id="layer1">
    <rect
       style="fill:#04989a;fill-opacity:1;stroke:none;stroke-width:0.318767"
       id="rect363"
       width="200"
       height="100"
       x="0"
       y="0" />
    <g
       id="g3835"
       transform="matrix(0.4368334,0,0,0.4368334,22.792409,1.8979848)">
      <g
         id="g213599"
         transform="matrix(0.35277776,0,0,-0.35277776,-6.6431196,312.60612)">
        <g
           id="g213625"
           transform="matrix(1.8369634,0,0,1.8369634,252.99248,708.11959)">
          <path
             d="m 0,0 h -112.133 l 0.04,1.368 0.12,2.494 -0.04,2.535 -0.201,2.495 -0.281,2.494 -0.443,2.495 -0.563,2.413 -0.685,2.414 -0.844,2.375 -1.087,2.453 -1.166,2.375 -1.247,2.373 -1.328,2.293 -1.409,2.253 -1.488,2.213 -1.569,2.132 -1.65,2.093 3.058,1.931 1.488,1.005 1.49,1.046 1.408,1.086 1.408,1.127 1.408,1.167 1.368,1.207 1.328,1.207 1.287,1.247 1.248,1.288 1.247,1.327 1.207,1.368 1.166,1.368 1.128,1.408 1.086,1.408 1.045,1.369 0.966,1.327 0.966,1.408 0.925,1.408 3.26,-0.966 3.258,-0.884 3.299,-0.845 3.34,-0.724 3.339,-0.644 3.38,-0.563 3.34,-0.483 3.38,-0.403 3.298,-0.321 3.259,-0.242 3.26,-0.201 3.299,-0.121 3.299,-0.04 h 3.259 l 3.299,0.04 3.299,0.161 3.26,0.202 3.299,0.241 3.258,0.322 3.259,0.402 3.259,0.483 3.219,0.523 3.26,0.563 3.218,0.644 2.736,0.683 2.736,0.765 2.494,0.684 2.495,0.805 1.61,-2.334 1.689,-2.293 1.73,-2.253 1.811,-2.172 1.892,-2.133 1.971,-2.092 2.011,-2.012 2.052,-1.931 1.891,-1.569 1.932,-1.489 1.93,-1.448 2.013,-1.367 2.735,-1.69 L 12.715,37.779 11.628,36.29 10.542,34.761 9.536,33.192 8.57,31.583 7.645,29.974 6.76,28.324 5.915,26.634 5.15,24.945 4.386,23.214 3.702,21.485 3.058,19.714 2.454,17.944 1.932,16.174 1.449,14.364 1.007,12.553 0.685,11.024 0.403,9.455 0.202,7.886 0.041,6.357 -0.039,4.788 -0.079,3.219 0,0.081 Z"
             style="fill:#dd3219;fill-opacity:1;fill-rule:evenodd;stroke:none"
             id="path213627" />
        </g>
        <g
           id="g213629"
           transform="matrix(1.8369634,0,0,1.8369634,252.77168,586.76519)">
          <path
             d="m 0,0 2.173,1.771 2.052,1.89 1.97,1.972 1.812,2.092 1.77,2.172 1.609,2.253 1.488,2.334 1.369,2.455 1.167,2.374 1.006,2.413 0.886,2.495 0.723,2.574 0.564,2.575 0.442,2.616 0.282,2.614 0.081,2.656 -0.041,1.609 -0.965,0.845 -1.006,0.885 -0.925,0.885 -0.926,0.925 -0.885,0.926 -0.887,1.006 -1.609,2.012 -0.764,1.046 -0.724,1.085 -0.724,1.127 -1.289,2.254 -0.602,1.166 -0.524,1.167 -0.522,1.207 -0.806,2.293 -0.642,2.374 -0.484,2.413 -0.362,2.415 -0.16,2.455 -0.041,2.454 0.081,2.413 0.281,2.455 0.282,1.529 0.322,1.528 0.362,1.529 0.805,2.977 0.482,1.489 0.524,1.488 1.126,2.897 1.288,2.817 0.684,1.407 1.528,2.736 0.805,1.328 0.845,1.328 1.57,2.333 1.69,2.254 1.73,2.252 1.811,2.173 -2.334,1.207 -2.253,1.328 -2.214,1.368 -2.133,1.488 -2.092,1.529 -2.051,1.609 -2.012,1.69 -1.892,1.771 -1.849,1.81 -1.811,1.931 -1.73,1.931 -1.65,2.012 -1.569,2.092 -1.489,2.132 -1.41,2.173 -1.326,2.253 -0.121,0.241 -10.581,-3.138 -3.018,-0.684 -3.057,-0.644 -3.019,-0.563 -3.057,-0.523 -3.058,-0.442 -3.059,-0.402 -3.057,-0.323 -6.196,-0.482 -3.057,-0.121 -3.099,-0.081 -3.097,-0.04 -3.099,0.04 -3.058,0.081 -3.097,0.161 -3.099,0.241 -3.661,0.322 -3.701,0.402 -3.662,0.523 -3.62,0.644 -3.663,0.725 -3.581,0.804 -3.58,0.926 -3.581,1.045 -4.707,1.489 -0.805,-1.408 -0.845,-1.328 -2.133,-3.098 -2.213,-2.977 -1.207,-1.529 -1.247,-1.528 -1.287,-1.449 -1.328,-1.448 -2.817,-2.736 -1.448,-1.288 -1.489,-1.287 -1.528,-1.207 -3.139,-2.334 -1.649,-1.086 -1.65,-1.006 -1.69,-1.005 -1.69,-0.966 -1.73,-0.885 1.167,-1.368 2.253,-2.816 1.087,-1.449 1.004,-1.488 1.007,-1.529 0.966,-1.529 0.925,-1.569 0.886,-1.57 1.609,-3.217 0.765,-1.65 0.723,-1.65 1.287,-3.379 0.564,-1.73 0.482,-1.771 0.404,-1.77 0.361,-1.77 0.322,-1.811 0.282,-2.454 0.121,-2.414 -0.04,-2.454 -0.203,-2.455 -0.361,-2.414 -0.482,-2.413 -0.645,-2.334 -0.805,-2.333 -0.522,-1.207 -0.523,-1.167 -0.604,-1.167 -1.287,-2.253 -0.684,-1.127 -0.764,-1.045 -0.765,-1.086 -1.609,-2.012 -0.886,-1.006 -0.885,-0.926 -0.926,-0.925 -0.925,-0.885 -0.965,-0.885 -1.006,-0.805 -0.04,-2.011 0.08,-1.972 0.161,-2.011 0.241,-1.973 0.363,-1.97 0.442,-1.932 0.523,-1.931 0.604,-1.891 0.805,-2.131 0.884,-2.133 1.006,-2.051 1.087,-2.013 1.207,-1.93 1.247,-1.893 1.408,-1.85 1.449,-1.73 1.529,-1.689 1.608,-1.61 1.731,-1.529 1.77,-1.448 1.811,-1.368 1.932,-1.287 1.93,-1.167 2.013,-1.086 2.976,-1.167 2.938,-1.086 3.017,-1.006 3.018,-0.966 3.018,-0.886 3.057,-0.804 3.099,-0.765 3.058,-0.643 8.65,-2.213 2.172,-0.685 2.173,-0.765 2.132,-0.803 2.133,-0.926 2.092,-1.006 2.012,-1.046 2.012,-1.127 1.971,-1.206 1.972,1.247 1.971,1.126 2.051,1.046 2.092,1.006 2.093,0.886 2.173,0.844 2.173,0.765 2.172,0.644 4.909,1.368 4.948,1.287 4.95,1.206 4.948,1.169 3.099,0.845 3.058,0.965 1.729,0.644 1.73,0.684 1.729,0.723 1.65,0.765 1.692,0.846 1.608,0.884 1.61,0.926 z m -55.926,-24.422 -1.81,1.247 -1.851,1.167 -1.892,1.126 -1.971,1.006 -1.971,0.966 -2.053,0.845 -2.051,0.764 -2.092,0.684 -5.191,1.489 -5.19,1.367 -5.231,1.288 -5.23,1.207 -2.815,0.684 -2.778,0.805 -2.736,0.964 -2.695,1.048 -2.616,1.207 -2.615,1.287 -2.494,1.409 -2.454,1.529 -1.61,1.247 -1.57,1.327 -1.488,1.368 -1.448,1.409 -1.368,1.488 -1.328,1.529 -1.247,1.61 -1.207,1.609 -1.208,1.689 -1.126,1.731 -1.006,1.771 -0.965,1.811 -0.886,1.89 -0.805,1.891 -0.723,1.93 -0.645,1.971 -0.522,1.972 -0.483,2.012 -0.362,2.052 -0.281,2.012 -0.162,2.052 -0.121,2.051 v 2.092 l 0.08,2.052 2.133,1.771 0.925,0.804 0.926,0.845 0.885,0.885 0.845,0.926 0.805,0.925 0.804,0.965 0.765,0.966 0.684,1.046 0.684,1.006 0.644,1.086 0.604,1.086 0.563,1.086 0.522,1.127 0.484,1.167 0.482,1.126 0.403,1.207 0.362,1.167 0.322,1.207 0.281,1.207 0.202,1.207 0.201,1.247 0.161,1.248 0.12,1.207 0.081,2.494 -0.041,1.247 -0.08,1.248 -0.121,1.206 -0.161,1.248 -0.2,1.247 -0.243,1.207 -0.281,1.207 -0.563,2.092 -0.684,2.092 -0.725,2.052 -0.763,2.052 -0.886,2.012 -0.925,1.971 -1.006,1.931 -1.046,1.931 -1.126,1.851 -1.168,1.851 -1.247,1.81 -1.288,1.731 -1.368,1.729 -1.408,1.65 -1.489,1.609 -1.529,1.569 1.731,0.644 1.69,0.724 1.65,0.805 1.649,0.845 2.092,1.287 2.052,1.368 1.971,1.408 1.972,1.489 1.892,1.569 1.849,1.609 1.772,1.69 1.729,1.77 1.691,1.811 1.608,1.85 1.529,1.891 1.49,1.972 1.407,2.011 1.328,2.052 1.288,2.132 1.167,2.133 2.896,-1.006 2.937,-0.966 2.939,-0.885 2.936,-0.804 2.977,-0.725 2.977,-0.684 3.018,-0.603 3.017,-0.563 3.018,-0.443 3.058,-0.402 3.058,-0.322 3.017,-0.281 3.099,-0.161 3.058,-0.121 3.058,-0.041 h 6.115 l 3.057,0.041 3.058,0.121 3.058,0.201 3.057,0.241 3.059,0.322 3.017,0.402 3.057,0.483 3.019,0.563 2.978,0.603 2.977,0.685 2.977,0.724 2.977,0.805 2.937,0.885 2.897,0.965 2.897,1.006 0.965,-1.73 1.047,-1.73 1.086,-1.73 1.128,-1.65 1.166,-1.649 1.207,-1.609 1.247,-1.569 1.288,-1.529 1.207,-1.489 1.286,-1.408 1.328,-1.408 1.369,-1.328 1.408,-1.287 1.448,-1.248 1.488,-1.207 1.489,-1.167 1.569,-1.086 1.611,-1.046 1.649,-1.005 1.65,-0.966 1.689,-0.885 1.731,-0.845 1.729,-0.764 1.771,-0.725 -1.972,-2.092 -1.85,-2.132 -1.811,-2.253 L 18.388,99.054 16.778,96.72 15.25,94.266 13.84,91.812 12.513,89.277 11.748,87.708 11.024,86.099 10.34,84.449 9.777,82.799 9.253,81.15 8.812,79.42 8.409,77.73 8.087,76 7.846,74.27 7.686,72.5 7.564,70.77 7.523,69 l 0.041,-1.73 0.122,-1.771 0.2,-1.729 0.241,-1.731 0.402,-1.609 0.443,-1.609 0.564,-1.57 0.604,-1.529 0.642,-1.528 0.765,-1.488 0.805,-1.449 0.884,-1.408 0.927,-1.369 0.966,-1.327 2.173,-2.494 1.166,-1.167 1.207,-1.127 1.288,-1.086 1.287,-1.005 0.12,-1.328 0.04,-1.327 V 36.291 L 22.37,34.962 22.089,32.267 21.646,29.531 21.084,26.876 20.359,24.221 19.515,21.604 18.509,19.07 17.382,16.576 16.095,14.123 14.726,11.748 13.196,9.495 11.588,7.282 9.817,5.15 7.967,3.139 5.995,1.207 3.943,-0.563 1.811,-2.293 -0.04,-3.46 l -1.932,-1.126 -1.93,-1.046 -1.972,-1.007 -2.013,-0.884 -2.051,-0.805 -2.052,-0.766 -2.133,-0.643 -20.841,-5.271 -2.816,-0.723 -2.737,-0.845 -2.735,-1.007 -2.655,-1.126 -2.616,-1.247 -2.535,-1.368 -2.454,-1.489 z"
             style="fill:#111211;fill-opacity:1;fill-rule:evenodd;stroke:none"
             id="path213631" />
        </g>
        <g
           id="g213633"
           transform="matrix(1.8369634,0,0,1.8369634,205.98844,753.86788)">
          <path
             d="m 0,0 -0.484,-1.248 -0.04,-0.2 -0.04,-0.282 v -0.242 l 0.04,-0.241 1.248,1.006 1.288,0.925 L 1.569,-1.167 1.167,-2.052 0.805,-2.977 0.482,-3.943 0.201,-5.069 -0.04,-6.196 l -0.202,-1.127 -0.12,-1.166 -0.283,-2.937 -0.282,-2.977 -0.201,-2.937 -0.201,-1.247 -0.322,-1.207 -0.523,-1.168 -0.643,-1.086 -0.644,-0.845 -0.725,-0.764 -0.844,-0.684 -0.886,-0.603 -51.941,0.04 -0.524,0.362 -0.482,0.442 -0.484,0.484 -0.402,0.522 -0.362,0.564 -0.363,0.603 -0.562,1.207 -0.241,0.644 -0.323,1.287 -0.081,0.684 -0.04,0.362 -0.08,0.886 v 0.845 l 0.08,0.844 0.121,0.845 0.202,0.845 0.281,0.805 0.322,0.764 0.402,0.765 0.242,0.482 0.362,0.684 0.402,0.604 0.885,1.207 0.523,0.523 0.564,0.523 0.563,0.483 0.604,0.442 1.287,0.805 1.327,0.765 1.328,0.683 1.409,0.644 2.535,1.167 2.615,1.126 1.408,0.604 1.367,0.684 1.409,0.684 1.329,0.764 1.93,1.207 1.851,1.287 1.73,1.449 1.65,1.529 V 6.438 l -0.041,-0.765 -0.16,-0.724 -0.202,-0.725 -0.281,-0.683 -0.322,-0.684 -0.402,-0.644 -0.443,-0.604 -1.89,-2.213 -2.013,-2.132 -0.442,-0.482 -0.403,-0.524 -0.362,-0.523 -0.321,-0.563 -0.323,-0.604 -0.241,-0.603 -0.201,-0.603 -0.161,-0.644 1.368,1.046 0.724,0.483 0.724,0.442 0.765,0.403 0.764,0.362 0.805,0.321 0.805,0.282 4.828,1.811 1.528,0.764 1.449,0.885 1.368,1.046 0.764,0.604 1.368,1.287 0.644,0.724 1.207,1.449 1.045,1.609 1.048,1.569 1.005,1.61 0.121,0.16 0.442,0.685 0.524,0.603 0.563,0.603 0.604,0.563 0.603,0.524 0.644,0.483 0.684,0.402 0.724,0.402 0.402,0.202 2.656,1.287 2.695,1.126 -0.845,-1.005 -0.724,-1.127 -0.603,-1.167 -0.443,-1.247 -0.363,-1.166 -0.281,-1.168 -0.241,-1.166 -0.161,-1.207 -0.483,-4.224 -0.201,-1.57 -0.322,-1.609 -0.402,-1.529 -0.523,-1.529 -0.322,-0.845 -0.403,-0.804 -0.482,-0.805 -0.523,-0.724 -0.403,-0.604 -0.242,-0.684 -0.16,-0.724 0.04,-0.724 0.081,-0.523 0.12,-0.523 0.202,-0.523 0.281,-0.483 0.282,-0.362 0.322,-0.322 0.401,-0.241 0.404,-0.201 0.482,-0.161 0.443,-0.04 0.482,0.04 0.443,0.08 0.684,0.241 0.603,0.362 0.604,0.403 0.482,0.523 0.886,1.207 0.805,1.287 0.965,1.53 0.965,1.568 0.203,0.403 0.603,0.885 0.683,0.805 0.724,0.804 0.765,0.684 0.805,0.604 0.884,0.482 0.926,0.362 z"
             style="fill:#fdeb3f;fill-opacity:1;fill-rule:evenodd;stroke:none"
             id="path213635" />
        </g>
        <g
           id="g213637"
           transform="matrix(1.8369634,0,0,1.8369634,213.9695,723.93658)">
          <path
             d="m 0,0 h 10.38 v -8.61 h 10.944 l 0.202,-2.052 0.282,-2.052 0.401,-2.052 0.443,-2.012 0.483,-1.528 0.522,-1.489 0.565,-1.449 0.603,-1.448 0.683,-1.449 0.724,-1.407 0.805,-1.368 0.806,-1.328 0.885,-1.327 0.924,-1.248 0.966,-1.246 1.006,-1.208 1.087,-1.207 1.085,-1.126 1.127,-1.087 1.168,-1.046 -0.08,-2.173 -0.241,-2.051 -0.323,-2.052 -0.444,-2.012 -0.523,-2.012 -0.643,-1.971 -0.725,-1.931 -0.804,-1.931 -0.885,-1.85 -0.966,-1.851 -1.086,-1.77 -1.127,-1.73 -1.247,-1.651 -1.287,-1.609 -1.368,-1.568 -1.448,-1.49 -1.53,-1.408 -1.609,-1.327 -1.73,-1.247 -1.729,-1.127 -1.853,-1.087 -1.85,-0.965 -1.891,-0.926 -1.971,-0.763 -1.972,-0.725 -1.73,-0.563 -1.73,-0.483 -3.098,-0.844 -3.057,-0.806 -3.099,-0.764 -3.139,-0.683 -0.362,-0.121 -3.338,-0.685 -3.26,-0.845 -3.259,-0.967 -3.218,-1.086 -3.139,-1.247 -3.099,-1.328 -3.057,-1.488 -3.017,-1.569 -2.052,1.127 -2.132,1.087 -2.132,1.004 -2.214,0.926 -2.213,0.885 -2.213,0.805 -2.293,0.683 -2.294,0.645 -8.649,2.254 -1.288,0.321 -0.885,0.242 -0.403,0.08 -0.483,0.161 -4.345,1.086 -2.212,0.564 -3.059,0.764 -1.73,0.563 -1.69,0.563 -1.649,0.645 -1.65,0.724 -1.649,0.764 -1.569,0.804 -1.57,0.846 -1.569,0.925 -1.771,1.248 -1.729,1.368 -1.65,1.448 -1.569,1.528 -1.489,1.61 -1.408,1.69 -1.287,1.77 -1.248,1.851 -0.724,1.207 -0.725,1.246 -0.683,1.248 -0.644,1.287 -1.126,2.656 -0.483,1.368 -0.443,1.327 -0.402,1.408 -0.362,1.368 -0.565,2.817 -0.2,1.449 -0.161,1.407 -0.08,1.449 -0.081,1.408 1.167,1.086 1.127,1.086 1.087,1.167 1.046,1.167 1.004,1.207 0.966,1.248 0.926,1.287 1.689,2.655 0.765,1.408 0.724,1.367 0.684,1.449 1.207,2.897 0.524,1.489 0.442,1.528 0.523,2.012 0.362,2.052 0.322,2.052 0.161,2.052 h 8.047 v 8.409 h 10.381 V -8.61 h 10.26 v 8.409 h 10.42 V -8.61 h 10.381 V 0 h 10.42 v -8.61 h 10.099 V 0 h 10.38 V -8.61 H 0 Z"
             style="fill:#111211;fill-opacity:1;fill-rule:evenodd;stroke:none"
             id="path213639" />
        </g>
        <g
           id="g213641"
           transform="matrix(1.8369634,0,0,1.8369634,40.134344,681.44063)">
          <path
             d="m 0,0 35.688,-0.202 0.765,1.006 h 20.359 l 2.414,9.133 36.452,-0.121 -33.797,-3.822 1.368,-5.311 53.392,-1.89 -53.673,-2.656 -1.248,-6.316 34.24,-4.386 -37.016,-0.08 -2.455,10.903 -20.318,-0.121 -0.604,1.288 -37.216,-0.604 0.844,1.569 z"
             style="fill:#dadadb;fill-opacity:1;fill-rule:evenodd;stroke:none"
             id="path213643" />
        </g>
        <g
           id="g213645"
           transform="matrix(1.8369634,0,0,1.8369634,78.863044,581.00135)">
          <path
             d="m 0,0 48.604,11.828 1.045,0.241 1.046,0.283 0.765,0.241 0.685,0.282 0.522,0.241 0.443,0.281 0.402,0.363 0.362,0.401 0.281,0.484 0.201,0.522 0.082,0.523 0.04,0.565 -0.04,0.482 -0.082,0.483 -0.16,0.482 -0.241,0.444 -0.121,0.201 -0.12,0.16 -2.495,3.783 -2.576,3.74 -0.362,0.604 -0.322,0.683 -0.201,0.685 -0.08,0.765 v 0.683 l 0.12,0.725 0.161,0.442 0.201,0.403 0.241,0.401 0.282,0.362 0.645,0.685 0.684,0.563 0.764,0.483 0.804,0.402 0.605,0.201 0.482,0.201 1.529,0.564 1.57,0.483 1.568,0.362 1.569,0.281 5.592,1.006 8.611,1.488 32.388,5.633 1.047,-1.086 -33.676,-6.115 -1.89,-0.402 -1.932,-0.524 -1.893,-0.603 -1.85,-0.684 -2.414,-1.006 -0.924,-0.443 -0.846,-0.483 -0.804,-0.603 -0.725,-0.644 -0.241,-0.281 -0.363,-0.403 -0.281,-0.483 -0.161,-0.562 -0.08,-0.524 v -0.563 l 0.161,-0.563 0.201,-0.483 0.322,-0.483 0.322,-0.442 0.322,-0.402 0.764,-0.805 0.805,-0.765 5.832,-4.827 1.047,-1.047 0.967,-1.127 0.361,-0.562 0.323,-0.563 0.242,-0.603 0.2,-0.645 0.041,-0.441 V 14.563 L 70.33,14.121 70.209,13.679 70.089,13.276 69.888,12.875 69.687,12.513 69.405,12.19 68.923,11.587 68.237,10.943 67.473,10.299 66.708,9.776 65.864,9.253 64.898,8.69 63.892,8.167 62.847,7.685 61.8,7.242 26.796,-7.203 l -0.12,0.04 -3.219,1.046 -3.259,0.927 -4.467,1.127 -4.667,1.247 -4.667,1.207 -3.459,0.844 z"
             style="fill:#0092a7;fill-opacity:1;fill-rule:evenodd;stroke:none"
             id="path213647" />
        </g>
        <g
           id="g213649"
           transform="matrix(1.8369634,0,0,1.8369634,120.69695,796.06789)">
          <path
             d="m 0,0 0.482,-0.04 5.271,-0.121 h 0.08 L 5.793,-0.241 3.942,-2.776 2.051,-5.27 h 0.403 l 0.483,-0.041 0.482,-0.12 0.442,-0.121 0.443,-0.16 0.443,-0.242 0.402,-0.241 0.724,-0.644 0.323,-0.403 0.282,-0.402 0.241,-0.482 0.322,-0.966 0.08,-1.046 -0.04,-0.483 L 7,-10.983 6.96,-11.225 6.638,-12.15 6.155,-13.035 5.592,-13.799 4.868,-14.443 4.184,-14.926 3.419,-15.328 2.654,-15.569 1.81,-15.73 l -0.724,-0.041 -0.725,0.041 -0.522,0.08 -0.524,0.161 -0.522,0.201 -0.483,0.241 -0.403,0.282 -0.402,0.322 0.161,0.402 0.241,0.402 0.322,0.282 0.403,0.201 2.132,-0.925 0.121,-0.041 0.763,-0.201 0.806,-0.08 0.764,0.08 0.764,0.201 0.403,0.242 0.362,0.282 0.321,0.321 0.283,0.362 0.121,0.202 0.361,0.684 0.201,0.764 0.041,0.805 -0.121,0.764 -0.161,0.403 -0.161,0.362 -0.201,0.362 -0.282,0.321 -0.281,0.282 -0.322,0.282 -0.725,0.402 -0.724,0.241 -0.724,0.122 -0.603,0.08 H 1.166 L 0.604,-6.88 0,-6.96 l 0.16,0.201 1.771,2.173 1.649,2.293 0.12,0.161 -1.207,0.04 -1.166,0.041 -2.615,-0.041 -0.08,-0.08 -0.886,-1.127 -0.16,-0.12 -0.041,-0.04 -0.08,0.04 -0.04,0.08 0.08,0.281 0.04,0.162 0.684,1.327 0.121,0.161 1.087,1.811 0.16,0.241 0.121,0.08 0.08,0.041 0.081,-0.041 v -0.12 z"
             style="fill:#ffffff;fill-opacity:1;fill-rule:evenodd;stroke:none"
             id="path213651" />
        </g>
        <g
           id="g213653"
           transform="matrix(1.8369634,0,0,1.8369634,85.588351,795.25521)">
          <path
             d="M 0,0 3.219,0.041 5.594,0.161 5.754,0.121 5.875,-0.08 5.794,-0.362 5.634,-0.644 4.586,-2.132 3.621,-3.661 2.938,-4.828 2.293,-6.075 1.771,-7.322 1.328,-8.65 1.127,-9.333 0.925,-10.34 l -0.2,-1.046 -0.121,-1.005 -0.081,-1.047 -2.776,-1.729 -0.08,0.402 0.08,0.402 0.04,0.08 1.046,2.254 0.282,0.603 1.448,3.058 1.53,3.017 1.769,3.179 0.121,0.321 h 0.04 l -0.04,0.121 -0.08,0.081 -0.282,0.04 -6.075,-0.04 -0.524,-0.725 -0.401,-0.804 -0.041,-0.041 h -0.321 l -0.161,0.121 -0.08,0.161 0.04,0.081 0.16,0.603 0.644,1.287 0.523,0.886 0.563,0.804 0.323,0.282 0.08,0.08 h 0.201 l 0.161,-0.04 0.12,-0.161 V 0.442 L -1.046,0.201 -0.805,0.041 -0.684,0 Z"
             style="fill:#ffffff;fill-opacity:1;fill-rule:evenodd;stroke:none"
             id="path213655" />
        </g>
        <g
           id="g213657"
           transform="matrix(1.8369634,0,0,1.8369634,71.545684,795.03368)">
          <path
             d="m 0,0 0.281,-13.076 0.565,0.362 0.442,0.282 0.241,0.08 H 1.69 l 0.081,-0.04 0.04,-0.161 -0.04,-0.2 -0.363,-0.282 -1.287,-0.845 -2.736,-1.69 h -0.161 l -0.08,0.081 -0.04,0.12 v 0.121 l 0.04,0.081 0.04,0.04 0.321,0.362 0.724,0.563 0.202,0.16 -0.08,12.312 -0.04,0.121 -0.082,0.121 -0.16,0.04 H -2.133 L -2.334,-1.569 -3.098,-1.971 -3.46,-2.052 H -3.5 v 0.363 l 0.04,0.12 3.179,2.132 0.12,0.041 H -0.12 L -0.04,0.563 0,0.523 Z"
             style="fill:#ffffff;fill-opacity:1;fill-rule:evenodd;stroke:none"
             id="path213659" />
        </g>
        <g
           id="g213661"
           transform="matrix(1.8369634,0,0,1.8369634,46.269435,634.80436)">
          <path
             d="m 0,0 33.917,2.454 0.442,0.04 0.444,0.121 0.402,0.161 0.362,0.202 0.724,0.482 0.323,0.322 0.282,0.322 0.281,0.403 0.201,0.401 0.201,0.484 0.12,0.442 0.081,0.483 V 6.8 l -0.04,0.483 -0.081,0.482 11.186,4.707 0.322,-2.615 0.08,-0.362 0.121,-0.443 0.161,-0.402 0.2,-0.361 L 49.972,7.926 50.253,7.565 50.575,7.283 50.937,7.042 51.34,6.8 52.184,6.478 53.109,6.277 53.914,6.156 53.149,5.392 52.626,4.707 l -0.2,-0.361 -0.081,-0.121 -0.12,-0.483 0.04,-0.362 0.08,-0.322 0.201,-0.282 0.241,-0.241 0.322,-0.201 0.282,-0.161 0.322,-0.121 0.402,-0.12 0.363,-0.081 0.764,-0.08 h 0.684 l 20.599,0.563 0.765,-0.725 48.764,-0.04 -0.363,-1.368 -0.441,-1.327 -48.161,0.2 -0.885,-0.402 -18.548,-0.16 -0.482,-0.041 -0.484,-0.08 -0.482,-0.162 -0.443,-0.201 -0.483,-0.241 -0.483,-0.321 -0.805,-0.806 -0.321,-0.442 -0.282,-0.483 -0.201,-0.523 -0.161,-0.522 -0.121,-0.603 0.04,-0.604 0.081,-0.564 0.242,-0.563 0.321,-0.443 0.402,-0.402 0.484,-0.282 0.523,-0.16 0.562,-0.08 h 0.524 l 0.563,0.039 0.524,0.08 1.006,0.284 0.965,0.4 0.924,0.443 0.926,0.524 6.76,-5.553 -43.614,-10.622 13.318,13.237 0.281,0.323 0.241,0.322 0.202,0.361 0.161,0.402 0.12,0.403 0.081,0.402 0.08,0.444 v 0.402 l -0.08,0.441 -0.081,0.403 -0.241,0.765 -0.282,0.563 -0.362,0.522 -0.442,0.483 -0.444,0.443 -0.522,0.362 -0.564,0.282 -0.603,0.241 -0.604,0.121 -0.804,0.12 h -0.121 z"
             style="fill:#dadadb;fill-opacity:1;fill-rule:evenodd;stroke:none"
             id="path213663" />
        </g>
        <g
           id="g213665"
           transform="matrix(1.8369634,0,0,1.8369634,106.57896,795.03368)">
          <path
             d="m 0,0 0.282,-13.076 0.563,0.362 0.483,0.282 0.2,0.08 h 0.161 l 0.082,-0.04 0.08,-0.161 -0.08,-0.2 -0.363,-0.282 -1.287,-0.845 -2.736,-1.69 h -0.16 l -0.081,0.081 -0.04,0.12 v 0.121 l 0.04,0.081 0.04,0.04 0.322,0.362 0.723,0.563 0.203,0.16 -0.081,12.312 -0.04,0.121 -0.082,0.121 -0.16,0.04 H -2.132 L -2.333,-1.569 -3.098,-1.971 -3.42,-2.052 H -3.5 v 0.363 l 0.04,0.12 3.178,2.132 0.121,0.041 h 0.04 L -0.04,0.563 0,0.523 Z"
             style="fill:#ffffff;fill-opacity:1;fill-rule:evenodd;stroke:none"
             id="path213667" />
        </g>
      </g>
      <path
         style="fill:#ffffff;stroke-width:0.15855"
         d="m 45.440463,118.47619 c -2.139545,-1.34469 -6.414884,-3.25194 -9.195305,-4.10206 -1.285529,-0.39305 -5.929948,-1.57143 -9.037913,-2.29309 C 22.093651,110.89367 15.297413,108.58868 12.960029,107.249 6.4609714,103.52403 1.4049974,97.370604 -0.93221158,90.341294 -1.8052076,87.715694 -2.1707396,85.878634 -2.3846276,83.041854 l -0.181358,-2.40535 1.012132,-0.9242 c 4.87453,-4.45103 7.588192,-9.34677 8.470925,-15.28249 0.205185,-1.3797 0.250361,-2.43985 0.188774,-4.42985 -0.141652,-4.577 -1.159497,-8.28787 -3.674746,-13.39745 -1.610499,-3.27162 -3.25449898,-5.894056 -5.301569,-8.456807 -0.720134,-0.901544 -1.285923,-1.655546 -1.257308,-1.675563 0.02862,-0.02002 0.801174,-0.455518 1.716799,-0.967781 5.518516,-3.087443 10.123924,-7.150102 14.0300036,-12.376565 1.370046,-1.833167 3.164223,-4.482058 3.288627,-4.855269 0.05034,-0.151028 0.436451,-0.08853 1.560947,0.252682 3.812773,1.156917 5.994713,1.728819 8.784027,2.302356 6.938711,1.426733 12.039976,1.924215 19.759607,1.92698 5.660572,0.002 9.382257,-0.247429 14.425665,-0.966923 5.409869,-0.771772 8.361753,-1.444906 14.805503,-3.376182 l 1.26398,-0.378833 0.56643,0.967777 c 3.93518,6.723496 10.53389,13.046544 17.64266,16.905621 l 1.07689,0.584603 -0.58408,0.696836 c -4.27753,5.10331 -7.31498,10.759588 -8.7963,16.380318 -0.79445,3.01443 -0.98277,4.39666 -0.98464,7.22695 -0.002,3.62954 0.49902,6.32477 1.74031,9.35443 1.24517,3.03913 3.93013,6.8215 6.49099,9.14402 l 1.36833,1.24099 -0.096,2.14042 c -0.17508,3.90172 -1.10085,7.40449 -2.95424,11.17776 -2.6881,5.47262 -6.89229,10.213926 -11.30337,12.747466 -3.61821,2.07815 -6.97966,3.31756 -12.95761,4.77764 -8.113143,1.9816 -11.861013,3.03338 -14.478062,4.06304 -1.726086,0.67912 -4.446347,2.02075 -5.894893,2.90736 -0.570265,0.34904 -1.053425,0.63326 -1.07369,0.6316 -0.02027,-0.002 -0.393581,-0.22721 -0.829593,-0.50125 z m 6.640624,-5.31572 c 3.635057,-1.49093 6.359543,-2.30954 11.235248,-3.37577 3.833556,-0.83833 8.861726,-2.20366 10.846606,-2.94524 3.36534,-1.25736 6.82877,-3.32706 9.12914,-5.45549 1.34257,-1.24221 3.42852,-3.751446 4.51966,-5.436806 2.35245,-3.63354 4.10405,-8.72417 4.4211,-12.8489 l 0.10609,-1.38025 -1.6539,-1.70278 c -2.39337,-2.46408 -3.86859,-4.50319 -5.25218,-7.25977 -2.41725,-4.81593 -3.3562,-11.13839 -2.42816,-16.35013 1.08043,-6.06765 3.97607,-12.78403 7.56498,-17.546875 0.53076,-0.704376 0.99192,-1.354864 1.02479,-1.445531 0.0329,-0.09067 -0.41745,-0.448768 -1.00071,-0.795785 -4.80778,-2.860435 -10.65956,-8.619559 -14.53223,-14.302125 l -0.77179,-1.132486 -0.62419,0.220226 c -1.39416,0.491888 -6.68836,1.826898 -8.69289,2.192037 -16.191558,2.94941 -31.884419,2.380548 -46.352614,-1.68027 -2.0099,-0.564123 -2.374374,-0.6265 -2.486805,-0.425597 -0.07246,0.129472 -0.557846,0.831506 -1.078644,1.560075 -3.884093,5.433645 -8.3705646,9.843992 -13.2080416,12.983932 -1.029648,0.668332 -1.87370598,1.267521 -1.87568398,1.331533 -0.002,0.06401 0.46987198,0.729766 1.04855398,1.479454 2.5146,3.257684 5.471993,8.668122 6.483887,11.862022 1.8623206,5.87816 1.9159896,13.06697 0.137583,18.42898 -1.3739,4.1424 -4.1052,8.45371 -7.282946,11.49602 l -1.05607198,1.01106 0.098,1.46556 c 0.40713,6.08832 3.18099498,12.31881 7.50945398,16.86727 2.4750326,2.600836 4.3754386,3.981406 7.7237906,5.611026 2.874439,1.39897 3.994756,1.75845 11.396986,3.65702 7.096602,1.82017 9.726316,2.53989 11.434173,3.12935 1.795703,0.61979 4.48093,1.79415 6.183439,2.70426 l 1.585497,0.84757 2.042681,-1.02034 c 1.123477,-0.56119 2.835813,-1.34565 3.805196,-1.74325 z"
         id="path2877" />
    </g>
  </g>
</svg>
