<?xml version="1.0" encoding="UTF-8" standalone="no"?>
<!-- Created with Inkscape (http://www.inkscape.org/) -->

<svg
   width="250mm"
   height="101.23001mm"
   viewBox="0 0 250 101.23001"
   version="1.1"
   id="svg7926"
   xmlns="http://www.w3.org/2000/svg"
   xmlns:svg="http://www.w3.org/2000/svg">
  <defs
     id="defs7923" />
  <path
     d="M 0.50882405,0.50887988 H 100.09959 V 100.72147 H 0.50882405 Z"
     style="fill:#ffffff;fill-opacity:1;fill-rule:evenodd;stroke:none;stroke-width:0.537124"
     id="path5586" />
  <path
     d="M -2.0494791,-2.2639494 H 249.46976 V 103.0649 H -2.0494791 Z"
     style="fill:#1a68bb;fill-opacity:1;fill-rule:evenodd;stroke:#231f20;stroke-width:1.04833;stroke-linecap:butt;stroke-linejoin:miter;stroke-miterlimit:22.9256;stroke-dasharray:none;stroke-opacity:1"
     id="path5590" />
  <path
     d="M 100.62444,-5.2866114 H 252.0862 V 105.8611 H 100.62444 Z"
     style="fill:#fff200;fill-opacity:1;fill-rule:evenodd;stroke:#231f20;stroke-width:0.572484;stroke-linecap:butt;stroke-linejoin:miter;stroke-miterlimit:22.9256;stroke-dasharray:none;stroke-opacity:1"
     id="path5592" />
  <path
     d="m 42.89766,43.585362 c -1.600296,-0.977626 -3.679447,-3.389053 -5.028404,-5.045278 -1.154112,0.701829 -2.239049,0.544732 -3.137824,-0.01985 0.852814,-0.355658 1.83283,-0.898756 1.757954,-1.409396 -0.08192,-0.235405 -0.470898,-0.578737 -0.580395,-0.706325 -1.179185,0.599874 -2.457064,0.458711 -3.076418,-0.158554 0.858258,-0.239187 1.750594,-0.96066 1.49574,-1.328241 -0.152078,-0.218799 -0.735342,-0.770247 -1.059685,-0.851719 -2.524967,0.649187 -4.423842,-1.344564 -3.803434,-2.287075 l 3.647383,-7.550219 c 2.292659,-2.067114 5.829027,-0.448892 3.915483,2.477254 -0.635524,1.246182 -0.512252,2.300816 -0.364988,2.714686 0.267616,0.950321 3.538154,3.773469 4.199577,4.344608 4.412532,3.810528 11.128618,7.37729 15.393651,9.498846 l -5.112738,5.385016 C 47.253181,47.396317 46.11374,46.182701 42.89766,43.585362 Z"
     style="fill:#fff200;fill-opacity:1;fill-rule:evenodd;stroke:#231f20;stroke-width:0.298238;stroke-linecap:butt;stroke-linejoin:round;stroke-miterlimit:22.9256;stroke-dasharray:none;stroke-opacity:1"
     id="path5596" />
  <path
     d="m 35.583452,24.164155 c 0,6.127215 -4.969016,11.096231 -11.096231,11.096231 -3.119972,0 -5.940176,-1.288557 -7.956242,-3.362358 3.414122,2.802504 13.620107,1.809571 13.803284,-7.714558 0.305247,-8.248917 -8.94791,-11.007523 -13.87057,-7.683092 2.020631,-2.114327 4.868508,-3.432384 8.023528,-3.432384 6.127215,0 11.096231,4.969016 11.096231,11.096161 z"
     style="fill:#ffffff;fill-opacity:1;fill-rule:evenodd;stroke:#231f20;stroke-width:0.298224;stroke-linecap:butt;stroke-linejoin:round;stroke-miterlimit:22.9256;stroke-dasharray:none;stroke-opacity:1"
     id="path5600" />
  <path
     d="m 53.646266,14.935234 c 1.837553,-0.323555 0.540028,-2.955539 1.702794,-3.218972 1.891916,1.282631 3.308347,4.351759 2.347006,6.075738 -3.243003,0.509599 -4.081332,-0.837878 -4.0498,-2.856766 z"
     style="fill:#fff200;fill-opacity:1;fill-rule:evenodd;stroke:#231f20;stroke-width:0.298507;stroke-linecap:butt;stroke-linejoin:round;stroke-miterlimit:22.9256;stroke-dasharray:none;stroke-opacity:1"
     id="path5604" />
  <path
     d="m 65.093506,59.401418 c 2.37792,4.053491 9.177865,1.650921 7.674208,-2.493028 -0.473493,-1.804543 -1.149668,-3.665866 -1.981317,-5.570738 -1.434834,-3.178671 -2.727947,-6.626963 -3.439739,-9.987251 -0.617831,-2.682134 -0.125743,-5.403895 1.39677,-7.950554 0.853959,-1.561259 1.799639,-3.1131 2.699464,-4.669636 0.848491,-1.644368 0.258495,-2.449645 -1.767545,-2.236906 0.476408,-0.994397 1.426783,-1.787651 2.569572,-1.771387 1.584063,-0.02394 2.922075,1.221661 2.586676,2.723818 -0.1868,0.837128 -0.787172,1.807899 -1.654084,2.864604 1.596969,-1.568586 3.349103,-2.7728 5.77817,-3.868921 4.143433,-2.051136 3.788207,-6.93554 0.956323,-5.64845 -1.710894,1.276522 -2.276986,2.606507 -1.170391,4.014399 -2.420534,0.569343 -4.076155,-1.43875 -2.217428,-4.001895 -1.9714,2.466905 -4.991951,3.240714 -7.518182,1.484948 -2.435145,-2.405001 0.220912,-5.217097 2.999252,-5.433813 -2.115383,1.608503 -1.508995,3.563475 0.834372,2.768501 1.883519,-0.7391 3.200239,-1.852252 5.65001,-2.630617 5.126497,-1.377228 9.116364,4.46358 4.199803,10.05892 -2.410043,2.502673 -4.171165,2.828251 -6.705268,4.674978 -3.802251,2.324255 -5.748944,5.087889 -6.426032,8.151964 1.233404,-2.316447 2.309857,-3.270394 5.023139,-4.591852 3.969903,-2.078056 7.898778,-4.517866 8.376885,-6.797321 1.103215,1.464704 1.196241,3.805787 -2.078581,6.356454 -2.056952,1.452379 -4.098028,2.212954 -6.38458,3.572925 -3.243641,1.926698 -3.71546,4.04855 -3.707844,6.28721 0.689684,-1.980114 1.832837,-2.632842 4.106875,-3.80526 3.783504,-1.790306 6.796004,-3.027253 8.126098,-5.764999 0.989029,1.963913 1.042802,4.124616 -2.123139,5.890065 -2.084362,1.134345 -5.583646,2.300674 -7.183655,4.180592 -1.395107,1.639265 -1.396015,2.580174 -1.03169,4.112198 0.695514,-1.805327 2.417948,-2.634994 4.017533,-3.455057 2.46803,-1.265317 4.644219,-1.870402 6.299669,-4.238337 1.159704,1.573103 0.873938,3.69069 -2.42009,5.43941 -1.881077,1.064911 -3.598671,1.830637 -4.767666,2.716475 -1.205985,0.914027 -1.82809,1.955768 -1.443207,3.585523 0.818845,-1.212441 2.108101,-1.918453 3.418393,-2.463683 2.067156,-0.860223 4.129773,-1.62756 5.223523,-3.724313 1.006732,1.094092 0.900451,3.355568 -0.938777,4.725476 -1.95266,1.705303 -6.893879,2.173091 -6.483418,4.738907 1.358897,5.099242 -5.843319,10.417059 -11.179833,5.548571 z"
     style="fill:#fff200;fill-opacity:1;fill-rule:evenodd;stroke:#231f20;stroke-width:0.298422;stroke-linecap:butt;stroke-linejoin:round;stroke-miterlimit:22.9256;stroke-dasharray:none;stroke-opacity:1"
     id="path5608" />
  <path
     d="m 50.914434,53.957593 c -4.193071,8.880125 -10.250063,5.255838 -14.864971,9.463504 -1.35046,1.231289 -1.823813,2.723083 -2.495821,4.094004 -1.261691,2.612989 -3.049619,2.272802 -4.702495,0.230585 -0.463136,1.310428 0.555154,3.024563 2.430306,3.261194 1.33085,0.234342 2.911074,-0.61612 3.965698,-2.82826 -0.894136,2.194911 0.107424,3.680809 2.723601,3.929966 0.508662,0.05539 0.888997,0.329777 1.009146,0.644178 0.267354,0.699498 -0.998306,1.543401 -1.508957,1.762336 l -3.497844,1.582042 c -1.31046,0.592124 -3.560598,2.186658 -4.370015,-0.958524 -1.153522,-2.278203 -5.717895,-0.627698 -4.349873,1.837057 0.388258,0.116339 0.807567,0.371049 1.144061,0.740615 0.971978,0.0268 2.673267,-0.177992 3.355978,-0.453837 -0.856293,0.253639 -2.087853,0.47224 -3.355978,0.453837 -1.225492,-1.289969 -2.944889,-1.017452 -3.474428,0.231051 -0.436172,1.065303 -0.192253,2.849315 0.729835,3.621399 0.806487,0.651527 2.246948,1.050156 3.240078,-0.309316 0.575401,0.171888 1.4088,-0.229432 2.205547,-0.720292 0.681187,-0.41958 1.335403,-0.904841 1.778163,-1.152992 -1.233412,0.802959 -3.197154,2.20234 -3.98371,1.873284 -0.07093,0.09316 -0.173262,0.214846 -0.25168,0.298723 -0.589194,0.502427 -0.63927,1.215286 -0.45046,2.000625 0.369981,1.18488 1.093358,2.458671 3.050585,2.204713 0.772858,-0.05197 1.767317,-0.980193 1.739173,-1.809379 0.481252,-1.491623 1.367954,-1.37865 2.329896,-1.601372 -0.21163,0.454929 -0.235831,0.693668 -0.18969,0.957227 0.427104,2.023622 3.909449,1.797124 4.387792,-0.09267 0.427652,-1.327354 -1.068845,-1.745306 -0.737246,-2.312309 1.968486,0.264494 1.688665,2.198431 4.762818,1.124808 -1.672954,-0.517886 -2.205105,-1.441928 -1.994557,-2.293941 0.07749,-0.359468 0.668982,-0.664744 0.96406,-0.434659 1.147709,0.840147 1.910241,2.810977 5.161427,1.508003 -2.783054,-0.678637 -2.96882,-1.813266 -2.72189,-2.495799 0.202039,-0.43106 0.79963,-0.664123 1.085266,-0.283803 2.027144,2.411176 3.607228,2.110647 5.680133,0.818611 -1.483714,0.16182 -3.995603,-0.218981 -3.545258,-2.078479 0.183158,-0.321875 0.63383,-0.467285 0.92204,-0.262036 2.443116,2.319071 5.717447,1.34436 5.81457,-1.635595 -1.183608,1.794002 -3.925692,1.903765 -4.187147,-1.025203 -0.119708,-1.227462 -0.198309,-2.503376 -1.31964,-2.998259 l -2.441873,-1.080288 c -0.617221,-0.272545 -0.771034,-0.996644 -0.817162,-1.265716 1.293269,0.641769 12.433421,-4.452048 13.159906,-10.117774 z"
     style="fill:#fff200;fill-opacity:1;fill-rule:evenodd;stroke:#231f20;stroke-width:0.298209;stroke-linecap:butt;stroke-linejoin:round;stroke-miterlimit:22.9256;stroke-dasharray:none;stroke-opacity:1"
     id="path5612" />
  <path
     d="m 36.129751,69.638416 c 0.13686,0.81733 0.694395,1.223213 1.539871,1.347912"
     style="fill:none;stroke:#231f20;stroke-width:0.298209;stroke-linecap:butt;stroke-linejoin:round;stroke-miterlimit:22.9256;stroke-dasharray:none;stroke-opacity:1"
     id="path5616" />
  <path
     d="m 38.561246,77.850113 3.257123,-1.483055"
     style="fill:none;stroke:#231f20;stroke-width:0.298209;stroke-linecap:butt;stroke-linejoin:round;stroke-miterlimit:22.9256;stroke-dasharray:none;stroke-opacity:1"
     id="path5620" />
  <path
     d="m 45.122068,71.705808 c 2.292344,1.005359 1.767866,2.870937 -0.662407,3.67834"
     style="fill:none;stroke:#231f20;stroke-width:0.298209;stroke-linecap:butt;stroke-linejoin:round;stroke-miterlimit:22.9256;stroke-dasharray:none;stroke-opacity:1"
     id="path5624" />
  <path
     d="m 45.048754,73.001019 c 0.168235,0.680115 -0.116602,1.051777 -0.77725,1.168081"
     style="fill:none;stroke:#231f20;stroke-width:0.298208;stroke-linecap:butt;stroke-linejoin:round;stroke-miterlimit:22.9256;stroke-dasharray:none;stroke-opacity:1"
     id="path5628" />
  <path
     d="m 25.378938,72.767954 c 1.404044,-0.22763 2.251954,0.343016 2.638644,1.575239 -0.586618,0.782012 -1.431151,0.986636 -2.489435,0.713017 0.932373,-0.977761 0.664403,-1.692774 -0.149209,-2.288256 z"
     style="fill:#ee293d;fill-opacity:1;fill-rule:evenodd;stroke:#231f20;stroke-width:0.298064;stroke-linecap:butt;stroke-linejoin:round;stroke-miterlimit:22.9256;stroke-dasharray:none;stroke-opacity:1"
     id="path5632" />
  <path
     d="m 20.98069,80.687418 c 0.06991,-1.391495 0.817613,-2.08637 2.127157,-2.204402 0.655159,0.722003 0.68075,1.572815 0.184366,2.53036 -0.777096,-1.093366 -1.546146,-0.983283 -2.311523,-0.325958 z"
     style="fill:#ee293d;fill-opacity:1;fill-rule:evenodd;stroke:#231f20;stroke-width:0.299007;stroke-linecap:butt;stroke-linejoin:round;stroke-miterlimit:22.9256;stroke-dasharray:none;stroke-opacity:1"
     id="path5636" />
  <path
     d="m 26.030051,86.783271 c -0.805128,-1.137951 -0.642801,-2.130053 0.321281,-3.001438 0.965444,0.179541 1.511855,0.834674 1.711016,1.884212 -1.291749,-0.399535 -1.832552,0.144465 -2.032297,1.117226 z"
     style="fill:#ee293d;fill-opacity:1;fill-rule:evenodd;stroke:#231f20;stroke-width:0.298945;stroke-linecap:butt;stroke-linejoin:round;stroke-miterlimit:22.9256;stroke-dasharray:none;stroke-opacity:1"
     id="path5640" />
  <path
     d="m 35.380981,86.592979 c 1.334537,-0.482371 1.787524,-1.389325 1.510123,-2.648163 -0.899848,-0.395986 -1.736351,-0.164856 -2.520489,0.585744 1.298166,0.398766 1.42131,1.150267 1.010366,2.062419 z"
     style="fill:#ee293d;fill-opacity:1;fill-rule:evenodd;stroke:#231f20;stroke-width:0.298286;stroke-linecap:butt;stroke-linejoin:round;stroke-miterlimit:22.9256;stroke-dasharray:none;stroke-opacity:1"
     id="path5644" />
  <path
     d="m 50.793659,63.436312 c -1.555259,1.262214 -5.232793,3.233489 -7.303881,3.614881 -2.170546,0.264807 -1.445487,2.18275 -0.511563,3.039045"
     style="fill:none;stroke:#231f20;stroke-width:0.298213;stroke-linecap:butt;stroke-linejoin:round;stroke-miterlimit:22.9256;stroke-dasharray:none;stroke-opacity:1"
     id="path5648" />
  <path
     d="m 49.785373,55.379846 c 0.239987,1.387507 2.71525,3.056929 3.47929,4.305759 0.321873,0.587824 0.289763,1.071708 0.07341,1.401361 -1.724585,1.619701 1.591152,4.852521 2.841753,2.425239 l 2.657595,-2.2137 -4.192099,-1.981693 c -1.211247,-1.936999 -3.292756,-3.36603 -4.859949,-3.936966 z"
     style="fill:#fff200;fill-opacity:1;fill-rule:evenodd;stroke:#231f20;stroke-width:0.298236;stroke-linecap:butt;stroke-linejoin:miter;stroke-miterlimit:22.9256;stroke-dasharray:none;stroke-opacity:1"
     id="path5652" />
  <path
     d="m 41.595953,40.108485 c -5.070394,5.75631 1.678182,9.214444 5.336406,12.493129 4.37885,4.077825 5.719484,3.726719 7.722555,6.711536 -0.383226,5.00782 0.157883,6.584886 3.590615,9.319218 3.318416,2.440802 2.362538,5.135863 0.0079,7.49689 2.492559,0.175986 4.479628,-2.970355 3.731602,-5.798342 1.304053,0.772083 2.236321,1.037638 3.566584,1.395264 0.817139,0.173131 1.5454,0.847772 1.078142,1.645423 l -0.834684,1.592286 c -1.008704,1.805879 -2.207228,5.026231 -5.579715,4.763139 -3.095943,-1.458453 -4.704511,3.74532 -1.925092,4.344136 0.433155,-0.295072 0.408624,-0.240392 0.690151,-0.336644 1.023027,0.160943 3.244727,-1.422062 3.236672,-2.184554 0.159534,0.470639 -1.991361,2.302546 -3.236672,2.184554 -1.204467,0.320966 -1.408352,1.343073 -1.334217,2.174206 0.249252,3.258123 5.237293,3.356782 5.115639,-0.04034 0.70358,-0.437279 1.089839,-0.693973 1.395125,-1.562917 0.206146,-0.517026 0.551452,-0.729591 0.575211,-2.502909 -0.03211,1.850968 -0.479577,2.205726 -0.575211,2.502909 -1.377322,3.263602 2.563201,4.044816 4.428508,1.985423 0.802829,-0.712723 0.903905,-2.045703 -0.529547,-2.866636 -0.07963,-0.448129 -0.135206,-1.106468 0.429351,-1.250041 2.864683,3.691451 5.924411,-3.399693 2.174492,-2.920707 0.255506,-1.058444 3.842019,0.782134 4.413439,-1.548103 -1.037608,0.296425 -2.873834,-0.06427 -2.769211,-1.014018 0.939402,-1.225068 4.216865,0.841346 5.266184,-2.542059 -1.935611,0.795973 -3.733917,0.886584 -4.105392,-0.60949 0.70113,-1.714538 5.589273,0.655471 6.241395,-3.494376 -1.485114,1.190639 -5.15597,1.649347 -5.838525,-0.386427 0.288201,-0.845933 2.101589,-0.71164 3.925293,-0.949016 1.838474,-0.246791 3.110875,-1.961329 2.53565,-4.144856 -0.371055,2.468061 -4.086546,2.628233 -5.821019,1.975683 -2.982236,-1.21986 -4.714882,-0.854753 -5.63529,0.493447 C 68.139199,65.63052 67.020727,64.082228 65.062399,63.544328 66.508103,60.644791 64.683438,58.235023 63.448957,57.083696 62.469834,56.253442 61.08826,54.076355 60.674411,52.556093 59.582312,48.510979 59.627204,43.62345 58.821316,38.993386 l -8.413639,-4.455472 z"
     style="fill:#fff200;fill-opacity:1;fill-rule:evenodd;stroke:#231f20;stroke-width:0.298337;stroke-linecap:butt;stroke-linejoin:round;stroke-miterlimit:22.9256;stroke-dasharray:none;stroke-opacity:1"
     id="path5656" />
  <path
     d="m 65.019521,65.771323 c 0.824801,0.04569 1.561288,0.31913 1.982271,1.406213"
     style="fill:none;stroke:#231f20;stroke-width:0.29834;stroke-linecap:butt;stroke-linejoin:round;stroke-miterlimit:22.9256;stroke-dasharray:none;stroke-opacity:1"
     id="path5660" />
  <path
     d="m 70.154029,69.44063 c 1.878376,-0.986923 2.958632,0.775413 1.74667,2.88308 0.744673,1.632149 -0.711822,3.483606 -2.467158,6.027486"
     style="fill:none;stroke:#231f20;stroke-width:0.298337;stroke-linecap:butt;stroke-linejoin:round;stroke-miterlimit:22.9256;stroke-dasharray:none;stroke-opacity:1"
     id="path5664" />
  <path
     d="m 57.646211,43.404488 c 0.132886,2.954758 0.52977,6.001032 1.515912,9.113498 0.448382,1.414725 1.112021,2.947619 2.06663,4.282835"
     style="fill:none;stroke:#231f20;stroke-width:0.298604;stroke-linecap:butt;stroke-linejoin:round;stroke-miterlimit:22.9256;stroke-dasharray:none;stroke-opacity:1"
     id="path5668" />
  <path
     d="m 33.682849,24.938069 c 0.188195,-1.124236 0.849912,-1.617351 1.90411,-1.587673 0.453234,0.649827 0.392503,1.343658 -0.09398,2.074297 -0.514901,-0.963139 -1.137928,-0.947472 -1.810134,-0.486624 z"
     style="fill:#ee293d;fill-opacity:1;fill-rule:evenodd;stroke:#231f20;stroke-width:0.297981;stroke-linecap:butt;stroke-linejoin:round;stroke-miterlimit:22.9256;stroke-dasharray:none;stroke-opacity:1"
     id="path5672" />
  <path
     d="m 57.668876,89.354225 c -0.835712,-1.114823 -0.713455,-2.115923 0.202969,-3.022921 0.957421,0.147375 1.520286,0.786523 1.756011,1.833005 -1.287038,-0.357337 -1.79909,0.206945 -1.95898,1.189916 z"
     style="fill:#ee293d;fill-opacity:1;fill-rule:evenodd;stroke:#231f20;stroke-width:0.298106;stroke-linecap:butt;stroke-linejoin:round;stroke-miterlimit:22.9256;stroke-dasharray:none;stroke-opacity:1"
     id="path5676" />
  <path
     d="m 55.059725,81.012434 c 0.712404,-1.183364 1.683164,-1.440072 2.868138,-0.929105 0.226718,0.938531 -0.149965,1.694197 -1.026783,2.298212 -0.158048,-1.320086 -0.873178,-1.584568 -1.841355,-1.369107 z"
     style="fill:#ee293d;fill-opacity:1;fill-rule:evenodd;stroke:#231f20;stroke-width:0.298243;stroke-linecap:butt;stroke-linejoin:round;stroke-miterlimit:22.9256;stroke-dasharray:none;stroke-opacity:1"
     id="path5680" />
  <path
     d="m 68.675029,88.742817 c -1.348626,0.354582 -2.23598,-0.135982 -2.740876,-1.326956 0.49269,-0.831931 1.297024,-1.112696 2.359451,-0.936974 -0.810563,1.058173 -0.475008,1.745339 0.381425,2.26393 z"
     style="fill:#ee293d;fill-opacity:1;fill-rule:evenodd;stroke:#231f20;stroke-width:0.298608;stroke-linecap:butt;stroke-linejoin:round;stroke-miterlimit:22.9256;stroke-dasharray:none;stroke-opacity:1"
     id="path5684" />
  <path
     d="m 51.909862,46.816513 c -1.665811,2.852141 -7.119818,2.401156 -9.084059,3.244176 -0.117838,0.809077 -0.266583,1.546578 -1.283794,1.837382 -0.06531,-0.81987 -0.0722,-1.636558 -0.687144,-1.913977 -0.240886,-0.141299 -0.525274,-0.06668 -0.853702,0.223809 -0.0071,1.382156 -0.371364,2.217409 -1.372436,2.569389 0.03564,-0.732903 -0.232196,-1.593021 -0.828574,-1.990539 -0.224274,-0.102753 -0.475828,-0.04719 -0.754727,0.16655 -0.108403,1.554987 -0.221696,2.068218 -1.451918,2.503641 0.09135,-1.046243 -0.303457,-1.565737 -0.869686,-1.915641 -0.277282,-0.119365 -0.534899,-0.07946 -0.772724,0.119664 0.108141,1.127419 -0.157263,2.031978 -1.129877,2.462835 -0.07674,-0.960381 -0.621351,-1.646439 -1.474465,-1.796584 -1.334072,0.22823 -1.432844,0.92631 -0.702344,1.433781 0.206641,0.12681 0.581508,0.482776 0.648784,0.606095 0.314862,0.481576 0.127295,1.190786 -0.241782,1.490559 -0.632755,0.509754 -1.392046,0.704318 -2.237998,0.683461 -0.660968,-0.119508 -1.146631,-0.530441 -1.032317,-1.104886 0.120433,-0.774658 -0.290341,-0.958436 -0.536852,-0.983557 l -0.589992,-0.04781 c -0.632331,-0.05865 -1.635856,0.948652 -2.190659,1.485809 -0.03517,1.52329 -0.66258,2.170354 -1.94871,1.842697 -1.216212,-0.572478 -1.67984,-1.37958 -1.801375,-2.293082 -0.02114,-1.045212 0.574619,-1.337843 1.553186,-1.163355 1.230045,0.021 2.12153,-0.606717 2.204931,-2.03883 -0.363437,-0.410763 -1.656845,-0.421412 -2.968828,-0.475486 -1.18013,1.201576 -2.425285,0.55281 -2.781112,-0.260389 -0.302241,-0.952183 -0.198118,-1.791097 0.547318,-2.595574 0.816696,-0.881873 1.747306,-0.394949 2.226593,0.317456 0.28977,0.296592 1.103741,0.46953 1.497464,0.487343 0.426138,0.01661 0.689876,-0.10351 0.74405,-0.735981 -0.08265,-0.596228 -0.403462,-1.147677 -1.149847,-1.449284 -0.74558,-0.409433 -0.61634,-1.190936 -0.254285,-1.748495 0.517224,-0.858685 1.426949,-1.315454 2.50978,-0.857013 0.58985,0.299499 0.998828,0.77131 0.794827,1.58908 -0.07843,0.300082 -0.263118,1.22181 0.211019,1.718022 0.286871,0.37834 0.531243,0.479305 1.09932,0.479734 0.929642,-0.09819 1.652099,-0.302669 2.397864,-0.609301 6.212318,-2.554781 12.334684,-4.934449 18.038198,-8.409752 z"
     style="fill:#fff200;fill-opacity:1;fill-rule:evenodd;stroke:#231f20;stroke-width:0.298209;stroke-linecap:butt;stroke-linejoin:round;stroke-miterlimit:22.9256;stroke-dasharray:none;stroke-opacity:1"
     id="path5688" />
  <path
     d="m 21.98739,43.897834 c 1.082226,-0.345451 1.826612,0.0066 2.291294,0.936536 -0.363763,0.688333 -1.005946,0.949889 -1.878833,0.857751 0.612372,-0.883956 0.308162,-1.41851 -0.412461,-1.794287 z"
     style="fill:#ee293d;fill-opacity:1;fill-rule:evenodd;stroke:#231f20;stroke-width:0.297707;stroke-linecap:butt;stroke-linejoin:round;stroke-miterlimit:22.9256;stroke-dasharray:none;stroke-opacity:1"
     id="path5692" />
  <path
     d="m 17.026042,50.699777 c 0.285313,-1.080541 0.987241,-1.50272 2.034772,-1.379387 0.394802,0.674943 0.273912,1.347027 -0.274219,2.01663 -0.429072,-0.986488 -1.050896,-1.026832 -1.760553,-0.637243 z"
     style="fill:#ee293d;fill-opacity:1;fill-rule:evenodd;stroke:#231f20;stroke-width:0.298925;stroke-linecap:butt;stroke-linejoin:round;stroke-miterlimit:22.9256;stroke-dasharray:none;stroke-opacity:1"
     id="path5696" />
  <path
     d="m 20.650371,58.419212 c -0.621678,-0.939269 -0.467747,-1.733428 0.328689,-2.407468 0.773122,0.171869 1.197627,0.714977 1.333436,1.565627 -1.030605,-0.358413 -1.478674,0.06427 -1.662125,0.841841 z"
     style="fill:#ee293d;fill-opacity:1;fill-rule:evenodd;stroke:#231f20;stroke-width:0.297616;stroke-linecap:butt;stroke-linejoin:round;stroke-miterlimit:22.9256;stroke-dasharray:none;stroke-opacity:1"
     id="path5700" />
  <path
     d="m 29.511441,58.066256 c 1.086377,-0.33315 1.481487,-1.041773 1.303817,-2.061607 -0.706807,-0.353223 -1.385257,-0.201579 -2.039985,0.36849 1.025753,0.37134 1.097783,0.978565 0.736168,1.693117 z"
     style="fill:#ee293d;fill-opacity:1;fill-rule:evenodd;stroke:#231f20;stroke-width:0.298821;stroke-linecap:butt;stroke-linejoin:round;stroke-miterlimit:22.9256;stroke-dasharray:none;stroke-opacity:1"
     id="path5704" />
  <path
     d="m 34.541349,50.041517 c 4.230298,-1.035047 6.765637,-1.722018 11.779165,-3.616854"
     style="fill:none;stroke:#231f20;stroke-width:0.298244;stroke-linecap:butt;stroke-linejoin:round;stroke-miterlimit:22.9256;stroke-dasharray:none;stroke-opacity:1"
     id="path5708" />
  <path
     d="m 46.774231,43.622337 3.233922,4.335613 1.165227,0.861918 2.112682,-2.162454 -3.385066,-3.820882 z"
     style="fill:#fff200;fill-opacity:1;fill-rule:evenodd;stroke:none;stroke-width:0.537124"
     id="path5710" />
  <path
     d="m 63.188264,29.084306 c -1.605664,4.463223 -2.031063,6.933083 1.47626,6.016359 -0.793258,1.516623 -1.847181,2.290235 -3.882053,1.553474 -1.181919,2.721101 -1.059073,4.609515 2.721262,3.533836 -0.354606,1.388243 -1.927543,2.685131 -4.032748,1.458602 -0.08329,1.280912 -0.285655,2.881706 2.226858,2.778177 -2.396497,2.166454 -4.995591,0.305732 -4.96636,-1.648468 -1.371072,2.459079 -2.526376,4.027014 0.715729,4.27321 -2.117076,1.88476 -4.132013,0.104869 -4.024061,-1.450715 0.02297,-1.171119 1.185727,-2.369848 0.631371,-3.554846 -0.39129,1.789767 -1.074753,2.53171 -1.962845,3.252793 -2.006102,1.628824 -0.673136,3.708618 1.963306,3.698729 -3.016471,1.549943 -5.948731,-0.63614 -4.865251,-2.913538 0.732628,-1.30119 2.352779,-2.635862 2.197775,-3.903394 -0.780763,0.980536 -1.46653,2.086815 -2.448697,2.799835 -1.093196,0.875775 -2.705122,1.426784 -2.716681,2.150734 -0.144176,1.066399 1.521915,0.670231 2.044005,0.231424 -0.209359,2.145445 -2.127904,2.584252 -3.412015,1.389663 -1.145085,-1.35978 -0.200673,-2.628841 1.149964,-3.543158 -1.905291,0.678943 -4.289741,2.033556 -2.222602,3.65659 0.930129,1.013098 2.848836,1.079466 1.531076,3.634147 -0.481869,-1.039126 -1.36908,-1.902848 -2.728552,-2.562419 -2.299779,-1.115288 -2.77162,-2.082553 -1.247265,-4.391822 0.505801,-0.74542 1.107358,-1.453421 1.728713,-2.153643 -1.144814,0.727021 -2.070824,1.537186 -2.370762,2.288246 -0.813043,1.9009 -1.427203,2.232687 -2.285645,2.589854 -1.383051,0.411995 -2.87041,-0.651942 -2.51201,-1.758071 0.643092,0.65378 1.824292,0.48188 2.397391,-0.113419 0.200361,-0.248185 0.369349,-0.530352 0.51797,-0.902886 0.194561,-0.53702 0.440306,-1.002167 0.747264,-1.405923 0.622846,-0.957836 1.469836,-1.515555 2.746495,-2.489841 -0.969565,0.607961 -1.034112,0.716672 -1.633514,1.162149 -1.180888,0.877615 -3.034602,1.605408 -4.500021,1.854201 -1.837261,0.253785 -2.839716,0.776331 -3.447655,1.687726 -0.984946,-1.826469 0.23905,-2.501259 2.204497,-2.921628 0.41945,-0.08953 0.888404,-0.240541 1.325363,-0.397385 1.157417,-0.414105 2.185294,-1.045375 2.65437,-2.107363 -2.052068,1.403502 -3.793696,2.191724 -5.471848,1.780027 -0.662756,-0.205842 -1.167487,-0.387956 -1.496032,-0.478377 -0.889936,-0.295844 -1.484784,0.03379 -1.315796,0.757621 0.03626,0.212065 0.150112,0.382139 0.31929,0.693973 -2.542041,-1.17404 -1.600013,-3.065038 -0.139175,-3.281553 0.632184,-0.09364 1.48843,0.02312 2.233742,0.350794 1.421742,0.514321 2.535171,0.04307 3.728852,-1.413391 5.293577,-4.741954 7.197188,-3.962282 11.167964,-5.812492 l 7.26649,-3.72703 z"
     style="fill:#fff200;fill-opacity:1;fill-rule:evenodd;stroke:#231f20;stroke-width:0.298485;stroke-linecap:butt;stroke-linejoin:round;stroke-miterlimit:22.9256;stroke-dasharray:none;stroke-opacity:1"
     id="path5714" />
  <path
     d="m 47.780421,26.541082 c -0.09638,-0.75625 0.208909,-1.262655 0.580715,-1.532604 0.202186,0.764008 0.3389,1.062289 0.700517,1.506731 z"
     style="fill:#ee293d;fill-opacity:1;fill-rule:evenodd;stroke:#231f20;stroke-width:0.298881;stroke-linecap:butt;stroke-linejoin:round;stroke-miterlimit:22.9256;stroke-dasharray:none;stroke-opacity:1"
     id="path5718" />
  <path
     d="m 43.417417,21.023586 c -1.484305,-0.847292 -3.4612,0.869993 -2.252335,3.070865 1.796076,2.533108 5.403586,1.41234 7.946987,0.839251 3.841659,-0.719717 6.850322,-0.357493 6.954737,1.680472 l 0.805154,-1.524843 c -1.310574,-1.688237 -5.699417,-1.773037 -7.698368,-1.417229 -0.76371,0.127742 -3.186056,0.662034 -4.919157,0.267649 -1.182689,-0.278148 -2.341924,-1.623345 -0.837018,-2.916165 z"
     style="fill:#ee293d;fill-opacity:1;fill-rule:evenodd;stroke:#231f20;stroke-width:0.298879;stroke-linecap:butt;stroke-linejoin:round;stroke-miterlimit:22.9256;stroke-dasharray:none;stroke-opacity:1"
     id="path5722" />
  <path
     d="m 49.501784,26.702334 c -0.09971,-0.783318 0.216355,-1.307723 0.601428,-1.587227 0.209491,0.791256 0.351079,1.100005 0.72549,1.56043 z"
     style="fill:#ee293d;fill-opacity:1;fill-rule:evenodd;stroke:#231f20;stroke-width:0.298874;stroke-linecap:butt;stroke-linejoin:round;stroke-miterlimit:22.9256;stroke-dasharray:none;stroke-opacity:1"
     id="path5726" />
  <path
     d="m 46.734747,22.209642 c 0.09239,0.881853 0.574585,1.389923 1.06944,1.614025 0.02605,-0.913993 0.101871,-1.283796 0.394389,-1.869985 l -1.470373,-0.51625 z"
     style="fill:#ee293d;fill-opacity:1;fill-rule:evenodd;stroke:#231f20;stroke-width:0.297776;stroke-linecap:butt;stroke-linejoin:round;stroke-miterlimit:22.9256;stroke-dasharray:none;stroke-opacity:1"
     id="path5730" />
  <path
     d="m 48.688083,21.860358 c 0.09226,0.881843 0.574598,1.389899 1.069453,1.61417 0.02603,-0.914127 0.101872,-1.283796 0.394335,-1.869969 l -1.470493,-0.516452 z"
     style="fill:#ee293d;fill-opacity:1;fill-rule:evenodd;stroke:#231f20;stroke-width:0.297776;stroke-linecap:butt;stroke-linejoin:round;stroke-miterlimit:22.9256;stroke-dasharray:none;stroke-opacity:1"
     id="path5734" />
  <path
     d="m 63.864856,20.082725 c 0.303624,1.215287 1.20493,0.936353 2.273923,0.239161 -0.04721,1.603717 -0.988429,2.35007 -2.393435,1.978564 0.732642,1.656557 0.247277,3.331011 0.358875,4.631282 -0.05025,0.976856 1.141128,1.028046 2.273922,0.956605 -0.5335,1.569017 -2.24957,2.003374 -3.189877,1.195969 -0.04341,2.253547 -1.169627,4.030517 -3.224122,5.443137 -0.663677,0.705093 -0.06258,1.08876 1.168367,0.967428 -2.162446,2.528639 -3.858121,-0.614672 -4.836955,0.947176 -0.119661,0.733839 0.406847,1.28823 1.579632,1.663375 -3.17539,1.523752 -4.396188,-1.623035 -5.42084,-0.515227 -0.898012,1.332358 1.031373,1.917038 2.174656,2.276964 -3.641457,2.202966 -3.912625,-1.863589 -5.659579,-1.465163 -1.236938,0.503688 -0.308042,2.081782 1.496343,2.870924 -4.10888,0.846406 -5.467444,-1.970758 -2.643001,-4.588492 -1.317299,0.848665 -2.888244,1.610846 -4.702035,1.815619 -1.597601,0.332396 -0.214861,1.516163 1.191988,1.161581 -1.109634,1.117088 -3.293547,1.057105 -3.836032,-0.468488 -0.308462,-0.867564 0.327787,-1.925561 1.706001,-2.138586 1.911064,-0.289283 2.991928,-0.773612 3.610234,-1.717136 -0.9726,1.156089 -2.864651,0.956186 -4.254126,1.22703 -1.970027,0.299185 -2.386889,1.26112 -2.906526,2.184703 -0.555888,-1.159727 -0.528039,-2.248785 0.33997,-2.938375 0.95524,-0.692903 1.984351,-0.619189 3.253515,-0.759434 -2.376834,-0.849112 -2.507471,-0.158792 -3.982959,0.485858 -1.217261,0.516729 -2.083576,0.403459 -2.933453,-0.926654 1.003024,-0.0077 1.832194,-0.345735 2.356696,-0.62682 0.378537,-0.221223 0.596122,-0.487359 1.074793,-0.755931 1.248918,-0.716835 2.393583,0.379095 4.597782,0.226094 -1.082395,-0.0092 -2.057882,-0.06562 -3.03902,-0.55481 -1.218643,-0.60247 -1.936988,-0.195805 -2.701124,0.322615 -1.620449,1.091966 -3.436367,0.176311 -3.527746,-1.298593 0.889936,0.345776 1.844255,0.659111 2.6876,0.03563 0.355676,-0.263106 0.652727,-0.670691 1.098983,-0.877723 1.382753,-0.641782 2.721369,0.488266 3.997255,0.785611 2.023922,0.345776 3.72705,0.348346 4.858882,-0.260955 -1.477453,-0.01933 -2.225638,-0.222603 -3.340761,-1.058647 -1.356856,-1.231588 -2.501373,-0.921283 -3.704039,0.04295 -0.222111,-2.292346 2.162176,-2.963957 3.549198,-1.912331 1.065334,0.851885 1.942938,1.441083 3.230234,1.494532 2.14693,0.0877 3.013435,-0.811341 4.362377,-2.588608 -1.042174,1.328259 -2.41429,3.251521 -4.331601,1.734315 0.791713,-0.110699 2.602319,-1.116167 2.45569,-1.81869 -0.758214,0.717904 -2.456612,1.867242 -4.123367,0.545381 2.890115,-0.795243 1.754759,-1.836479 3.179225,-1.990874 1.708779,0.303447 4.258396,0.212525 5.307292,-0.370315 1.209198,-0.679809 1.091027,-3.488883 -0.357059,-3.927542 -1.083439,-0.168843 -2.483241,0.165501 -3.405605,0.570178 -2.586951,1.251542 -4.174037,-0.192003 -4.202536,-2.015401 -8.13e-4,-0.167774 0.01966,-0.49526 0.423136,-0.750763 -0.404543,0.0711 -0.65331,-0.18605 -0.777849,-0.416256 -0.131722,-0.297643 0.03591,-0.731743 0.441525,-1.060757 0.632915,-0.575089 2.879097,-1.94492 4.12395,-2.243036 -0.08313,-0.494056 0.442759,-0.889452 0.864811,-1.089816 3.418086,-1.592745 10.457384,-2.189424 13.456792,5.332736 z"
     style="fill:#fff200;fill-opacity:1;fill-rule:evenodd;stroke:#231f20;stroke-width:0.298485;stroke-linecap:butt;stroke-linejoin:round;stroke-miterlimit:22.9256;stroke-dasharray:none;stroke-opacity:1"
     id="path5738" />
  <path
     d="m 57.396115,15.105973 c 1.388534,-1.294655 2.784265,-1.92642 4.189896,-1.678567 0.741348,1.811889 0.599889,3.513198 -0.606842,5.081938 -3.284134,0.04206 -3.913706,-1.410485 -3.583054,-3.403371 z"
     style="fill:#fff200;fill-opacity:1;fill-rule:evenodd;stroke:#231f20;stroke-width:0.298422;stroke-linecap:butt;stroke-linejoin:round;stroke-miterlimit:22.9256;stroke-dasharray:none;stroke-opacity:1"
     id="path5742" />
  <path
     d="m 58.788336,15.95432 c 1.481727,-1.377015 2.506406,-0.74822 1.378694,1.35354"
     style="fill:none;stroke:#231f20;stroke-width:0.298422;stroke-linecap:butt;stroke-linejoin:round;stroke-miterlimit:22.9256;stroke-dasharray:none;stroke-opacity:1"
     id="path5746" />
  <path
     d="m 57.130254,14.138503 c 0.523105,0.12287 1.056303,0.215441 1.53804,0.46042 l -0.658018,1.277271 1.325506,1.746081 1.527579,0.516618 0.449793,0.991473 -1.92865,0.25352 -2.08313,-0.89313 -0.876108,-1.868328 z"
     style="fill:#fff200;fill-opacity:1;fill-rule:evenodd;stroke:none;stroke-width:0.537124"
     id="path5748" />
  <path
     d="m 27.502255,31.556498 c -1.498819,-0.722009 -1.575256,-1.549085 -1.791338,-2.475095 -0.141293,-0.764485 0.201743,-1.384183 1.132648,-1.408983 -0.398162,-1.061222 0.209501,-1.843237 1.523309,-1.893498 -0.21772,-1.322352 0.920855,-2.1686 2.116671,-1.401088 0.56133,0.435059 1.047978,0.923307 1.174692,1.668586 -0.0084,1.309092 -0.163991,1.536726 -1.414935,1.83348 -0.08918,0.911414 -0.530448,1.609028 -1.486632,1.993978 -0.01323,1.145861 -0.405275,1.744428 -1.254415,1.68262 z"
     style="fill:#fff200;fill-opacity:1;fill-rule:evenodd;stroke:#231f20;stroke-width:0.298248;stroke-linecap:butt;stroke-linejoin:round;stroke-miterlimit:22.9256;stroke-dasharray:none;stroke-opacity:1"
     id="path5752" />
  <path
     d="m 28.727856,26.388192 c 0.163227,0.736744 0.618655,1.178439 1.447082,1.516268"
     style="fill:none;stroke:#231f20;stroke-width:0.298241;stroke-linecap:butt;stroke-linejoin:miter;stroke-miterlimit:22.9256;stroke-dasharray:none;stroke-opacity:1"
     id="path5756" />
  <path
     d="m 27.115319,28.499587 c 0.279116,0.807856 0.837557,1.24726 1.67588,1.31834"
     style="fill:none;stroke:#231f20;stroke-width:0.298239;stroke-linecap:butt;stroke-linejoin:miter;stroke-miterlimit:22.9256;stroke-dasharray:none;stroke-opacity:1"
     id="path5760" />
  <path
     d="m 32.162767,28.792002 c 0.612831,-1.031808 0.415955,-1.878192 -0.451919,-2.570936 -0.806208,0.214367 -1.229183,0.81362 -1.334706,1.731694 1.068864,-0.424325 1.559304,0.01191 1.786625,0.839242 z"
     style="fill:#ee293d;fill-opacity:1;fill-rule:evenodd;stroke:#231f20;stroke-width:0.298005;stroke-linecap:butt;stroke-linejoin:round;stroke-miterlimit:22.9256;stroke-dasharray:none;stroke-opacity:1"
     id="path5764" />
  <path
     d="m 30.640034,30.663585 c 0.623611,-0.982778 0.457032,-1.8089 -0.364562,-2.50518 -0.787456,0.184681 -1.214676,0.753496 -1.343165,1.640517 1.048277,-0.380935 1.511142,0.05607 1.707727,0.864663 z"
     style="fill:#ee293d;fill-opacity:1;fill-rule:evenodd;stroke:#231f20;stroke-width:0.298002;stroke-linecap:butt;stroke-linejoin:round;stroke-miterlimit:22.9256;stroke-dasharray:none;stroke-opacity:1"
     id="path5768" />
  <path
     d="m 29.364425,32.03794 c 0.410613,-0.909898 0.169133,-1.591246 -0.612544,-2.083054 -0.646307,0.252147 -0.940154,0.786714 -0.942116,1.555479 0.844076,-0.450221 1.289895,-0.13521 1.55466,0.527575 z"
     style="fill:#ee293d;fill-opacity:1;fill-rule:evenodd;stroke:#231f20;stroke-width:0.297985;stroke-linecap:butt;stroke-linejoin:round;stroke-miterlimit:22.9256;stroke-dasharray:none;stroke-opacity:1"
     id="path5772" />
  <path
     d="m 73.139246,83.771042 c 0.583018,-1.241781 0.239532,-2.18031 -0.871925,-2.867723 -0.918446,0.335536 -1.335808,1.064411 -1.337917,2.119081 1.199332,-0.604125 1.833164,-0.164887 2.209842,0.748642 z"
     style="fill:#ee293d;fill-opacity:1;fill-rule:evenodd;stroke:#231f20;stroke-width:0.298005;stroke-linecap:butt;stroke-linejoin:round;stroke-miterlimit:22.9256;stroke-dasharray:none;stroke-opacity:1"
     id="path5776" />
  <path
     d="m 50.81144,27.57819 c -0.24816,1.240474 -1.457859,3.415791 -2.905049,3.959025 2.810657,0.9641 3.267121,-2.215657 4.13042,-2.850283 -0.660823,2.578198 0.573402,3.921407 2.382652,3.33126 -0.864977,-0.686529 -1.208298,-2.555786 -0.575712,-4.2804 0.557743,0.385805 0.751696,1.309853 0.585871,2.836244 2.132828,-0.512945 1.694181,-2.314019 1.385532,-3.532522 0.700527,1.117707 2.927568,2.49199 4.988056,0.937303 -3.967937,-0.111631 -2.109773,-1.827432 -4.753562,-4.070175 1.52558,1.087267 1.85628,0.250444 3.359383,2.143624 0.77009,-2.941 -2.387092,-3.413453 -3.494729,-3.535711 1.262037,0.175234 3.524231,-0.517235 4.126118,-2.077257 -4.286594,1.627916 -3.479496,-0.482971 -6.110196,-0.464107"
     style="fill:none;stroke:#231f20;stroke-width:0.298218;stroke-linecap:butt;stroke-linejoin:round;stroke-miterlimit:22.9256;stroke-dasharray:none;stroke-opacity:1"
     id="path5780" />
  <path
     d="m 50.314176,15.966368 c 0.113137,0.180103 0.210254,0.229752 0.362376,0.260207 0.284725,0.05694 0.697492,-0.07735 0.97277,-0.108402"
     style="fill:none;stroke:#231f20;stroke-width:0.283437;stroke-linecap:butt;stroke-linejoin:round;stroke-miterlimit:22.9256;stroke-dasharray:none;stroke-opacity:1"
     id="path5784" />
  <path
     d="m 51.502729,16.016836 c 1.85719,-0.419759 3.12049,-0.349266 3.846147,0.667322 l -0.13114,0.160627 c -0.273306,-0.286648 -0.548995,-0.595759 -0.740583,-0.447164 -0.04183,0.0242 -0.0729,0.08756 -0.09997,0.168385 -0.08098,0.241064 -0.104332,0.471881 -0.280494,0.67112 -0.69806,0.789782 -2.165971,0.611492 -2.566263,-0.963598 z"
     style="fill:#231f20;fill-opacity:1;fill-rule:evenodd;stroke:#231f20;stroke-width:0.0305494;stroke-linecap:butt;stroke-linejoin:miter;stroke-miterlimit:22.9256;stroke-dasharray:none;stroke-opacity:1"
     id="path5788" />
  <path
     d="m 51.751239,16.241209 c 0.242371,-0.06512 0.736615,-0.199119 0.997888,-0.213289 -0.0098,0.435477 0.308442,1.129763 0.768704,1.401985 -0.622233,0.2524 -1.562899,-0.170208 -1.766592,-1.188696 z"
     style="fill:#ffffff;fill-opacity:1;fill-rule:evenodd;stroke:#231f20;stroke-width:0.0305494;stroke-linecap:butt;stroke-linejoin:miter;stroke-miterlimit:22.9256;stroke-dasharray:none;stroke-opacity:1"
     id="path5792" />
  <path
     d="m 47.215315,21.120787 c 0.08785,0 0.159001,0.06973 0.159001,0.155757 0,0.08618 -0.0711,0.155925 -0.159001,0.155925 -0.08785,0 -0.159091,-0.06973 -0.159091,-0.155925 0,-0.08602 0.07126,-0.155757 0.159091,-0.155757"
     style="fill:#231f20;fill-opacity:1;fill-rule:evenodd;stroke:none;stroke-width:0.537124"
     id="path5794" />
  <path
     d="m 48.098732,20.285346 c 0.08785,0 0.15894,0.06988 0.15894,0.155924 0,0.08603 -0.0711,0.155925 -0.15894,0.155925 -0.08785,0 -0.159091,-0.06989 -0.159091,-0.155925 0,-0.08602 0.07126,-0.155924 0.159091,-0.155924"
     style="fill:#231f20;fill-opacity:1;fill-rule:evenodd;stroke:none;stroke-width:0.537124"
     id="path5796" />
  <path
     d="m 48.440394,21.363619 c 0.08785,0 0.159091,0.06973 0.159091,0.155925 0,0.08602 -0.07126,0.155925 -0.159091,0.155925 -0.08785,0 -0.15894,-0.06989 -0.15894,-0.155925 0,-0.08618 0.0711,-0.155925 0.15894,-0.155925"
     style="fill:#231f20;fill-opacity:1;fill-rule:evenodd;stroke:none;stroke-width:0.537124"
     id="path5798" />
  <path
     d="m 45.498428,19.465956 c 0.286537,0.0122 0.614036,-0.08453 0.881846,-0.268287 -0.0017,0.45096 -0.362639,0.751511 -0.881846,0.708599 -0.07811,-0.219258 -0.07412,-0.337725 0,-0.440312 z"
     style="fill:#231f20;fill-opacity:1;fill-rule:evenodd;stroke:#231f20;stroke-width:0.0795251;stroke-linecap:butt;stroke-linejoin:miter;stroke-miterlimit:22.9256;stroke-dasharray:none;stroke-opacity:1"
     id="path5802" />
</svg>
