<?xml version="1.0" encoding="UTF-8" standalone="no"?>
<!-- Created with Inkscape (http://www.inkscape.org/) -->

<svg
   width="1000mm"
   height="400mm"
   viewBox="0 0 1000 399.99999"
   version="1.1"
   id="svg7912"
   xmlns="http://www.w3.org/2000/svg"
   xmlns:svg="http://www.w3.org/2000/svg">
  <defs
     id="defs7909">
    <clipPath
       clipPathUnits="userSpaceOnUse"
       id="clipPath1098">
      <path
         d="m 158.117,455.074 h 55.886 v 66.828 h -55.886 z"
         id="path1096" />
    </clipPath>
  </defs>
  <path
     d="M 0,399.99716 H 999.99716 V 0 H 0 Z"
     style="fill:#ffffff;fill-opacity:1;fill-rule:nonzero;stroke:none;stroke-width:2.8681"
     id="path1088" />
  <path
     d="M 334.39836,400 H 1000 V 0.00284551 H 334.39836 Z"
     style="fill:#0a8137;fill-opacity:1;fill-rule:nonzero;stroke:none;stroke-width:2.8681"
     id="path1090" />
  <g
     id="g1092"
     transform="matrix(2.8681072,0,0,-2.8680829,-366.44086,1601.0241)">
    <g
       id="g1094"
       clip-path="url(#clipPath1098)">
      <g
         id="g1100"
         transform="translate(186.0611,455.2822)">
        <path
           d="m 0,0 -0.036,0.006 c -16.053,2.882 -27.703,16.811 -27.703,33.122 l 0.001,0.052 v 33.029 0.205 h 0.205 55.066 0.204 V 66.209 33.177 C 27.756,25.33 24.967,17.66 19.885,11.579 14.806,5.503 7.757,1.392 0.036,0.006 Z"
           style="fill:#fcd006;fill-opacity:1;fill-rule:nonzero;stroke:none"
           id="path1102" />
      </g>
      <g
         id="g1104"
         transform="translate(214.0038,521.90179)">
        <path
           d="m 0,0 h -0.41 -55.066 -0.41 v -0.41 -33.03 l -10e-4,-0.051 c 0,-7.97 2.844,-15.721 8.008,-21.825 5.102,-6.032 12.157,-10.116 19.864,-11.499 l 0.072,-0.013 0.073,0.013 c 7.768,1.395 14.861,5.529 19.969,11.643 5.113,6.118 7.919,13.836 7.901,21.73 L 0,-0.41 Z m -0.41,-0.41 v -33.033 c 0.037,-16.131 -11.674,-30.121 -27.533,-32.968 -15.617,2.803 -27.534,16.517 -27.534,32.92 l 10e-4,0.051 V -0.41 H -0.41"
           style="fill:#fcd006;fill-opacity:1;fill-rule:nonzero;stroke:none"
           id="path1106" />
      </g>
      <g
         id="g1108"
         transform="translate(186.0605,458.02831)">
        <path
           d="M 0,0 C -14.471,2.819 -25.031,15.634 -25.031,30.384 V 60.949 H 25.031 V 30.377 30.371 C 25.031,15.351 14.23,2.771 0,0"
           style="fill:#ffffff;fill-opacity:1;fill-rule:evenodd;stroke:none"
           id="path1110" />
      </g>
      <g
         id="g1112"
         transform="translate(186.0605,457.9888)">
        <path
           d="M 0,0 C -12.022,2.341 -21.342,11.582 -24.154,23.099 L 0,49.703 24.153,23.057 C 21.311,11.409 11.844,2.306 0,0"
           style="fill:#0a8137;fill-opacity:1;fill-rule:evenodd;stroke:none"
           id="path1114" />
      </g>
      <g
         id="g1116"
         transform="translate(168.9167,467.5858)">
        <path
           d="m 0,0 c -0.52,0.616 -1.017,1.255 -1.492,1.911 0.364,0.145 0.713,0.331 1.061,0.523 1.016,0.572 1.983,1.179 3.09,1.544 0.263,0.072 0.516,0.13 0.785,0.174 0.675,0.07 1.238,0.007 1.892,-0.174 0.962,-0.317 1.812,-0.81 2.692,-1.317 0.749,-0.43 1.549,-0.91 2.411,-0.999 0.749,-0.027 1.43,0.317 2.084,0.666 1.086,0.597 2.106,1.262 3.284,1.65 0.262,0.072 0.516,0.13 0.785,0.174 0.675,0.07 1.237,0.007 1.891,-0.174 0.962,-0.317 1.812,-0.81 2.692,-1.318 0.75,-0.429 1.549,-0.909 2.412,-0.998 0.748,-0.027 1.429,0.317 2.084,0.666 1.085,0.597 2.106,1.262 3.283,1.65 0.263,0.072 0.517,0.13 0.785,0.174 0.675,0.07 1.238,0.007 1.892,-0.174 0.961,-0.317 1.813,-0.81 2.692,-1.318 0.469,-0.269 0.956,-0.556 1.467,-0.757 -0.475,-0.655 -0.974,-1.29 -1.495,-1.907 -0.494,0.245 -0.972,0.523 -1.459,0.803 -0.751,0.43 -1.549,0.91 -2.411,0.998 -0.816,0.029 -1.573,-0.383 -2.279,-0.772 -1.015,-0.572 -1.982,-1.18 -3.088,-1.543 -0.264,-0.073 -0.518,-0.13 -0.787,-0.175 -0.674,-0.07 -1.237,-0.008 -1.89,0.175 -0.962,0.316 -1.814,0.81 -2.693,1.317 -0.75,0.43 -1.548,0.91 -2.411,0.998 C 16.461,1.826 15.705,1.414 15,1.025 13.984,0.453 13.016,-0.155 11.91,-0.518 11.647,-0.591 11.393,-0.648 11.124,-0.693 10.449,-0.763 9.886,-0.701 9.232,-0.518 8.198,-0.178 7.287,0.372 6.34,0.914 5.541,1.364 4.663,1.878 3.729,1.783 3.053,1.671 2.453,1.356 1.851,1.025 1.231,0.675 0.628,0.312 0,0"
           style="fill:#ffffff;fill-opacity:1;fill-rule:evenodd;stroke:none"
           id="path1118" />
      </g>
      <g
         id="g1120"
         transform="translate(168.9167,467.5858)">
        <path
           d="m 0,0 c -0.52,0.616 -1.017,1.255 -1.492,1.911 0.364,0.145 0.713,0.331 1.061,0.523 1.016,0.572 1.983,1.179 3.09,1.544 0.263,0.072 0.516,0.13 0.785,0.174 0.675,0.07 1.238,0.007 1.892,-0.174 0.962,-0.317 1.812,-0.81 2.692,-1.317 0.749,-0.43 1.549,-0.91 2.411,-0.999 0.749,-0.027 1.43,0.317 2.084,0.666 1.086,0.597 2.106,1.262 3.284,1.65 0.262,0.072 0.516,0.13 0.785,0.174 0.675,0.07 1.237,0.007 1.891,-0.174 0.962,-0.317 1.812,-0.81 2.692,-1.318 0.75,-0.429 1.549,-0.909 2.412,-0.998 0.748,-0.027 1.429,0.317 2.084,0.666 1.085,0.597 2.106,1.262 3.283,1.65 0.263,0.072 0.517,0.13 0.785,0.174 0.675,0.07 1.238,0.007 1.892,-0.174 0.961,-0.317 1.813,-0.81 2.692,-1.318 0.469,-0.269 0.956,-0.556 1.467,-0.757 -0.475,-0.655 -0.974,-1.29 -1.495,-1.907 -0.494,0.245 -0.972,0.523 -1.459,0.803 -0.751,0.43 -1.549,0.91 -2.411,0.998 -0.816,0.029 -1.573,-0.383 -2.279,-0.772 -1.015,-0.572 -1.982,-1.18 -3.088,-1.543 -0.264,-0.073 -0.518,-0.13 -0.787,-0.175 -0.674,-0.07 -1.237,-0.008 -1.89,0.175 -0.962,0.316 -1.814,0.81 -2.693,1.317 -0.75,0.43 -1.548,0.91 -2.411,0.998 C 16.461,1.826 15.705,1.414 15,1.025 13.984,0.453 13.016,-0.155 11.91,-0.518 11.647,-0.591 11.393,-0.648 11.124,-0.693 10.449,-0.763 9.886,-0.701 9.232,-0.518 8.198,-0.178 7.287,0.372 6.34,0.914 5.541,1.364 4.663,1.878 3.729,1.783 3.053,1.671 2.453,1.356 1.851,1.025 1.231,0.675 0.628,0.312 0,0 Z"
           style="fill:none;stroke:#0a8137;stroke-width:0.241;stroke-linecap:butt;stroke-linejoin:miter;stroke-miterlimit:2.613;stroke-dasharray:none;stroke-opacity:1"
           id="path1122" />
      </g>
      <g
         id="g1124"
         transform="translate(167.9502,508.0526)">
        <path
           d="M 0,0 C -0.792,0 -1.554,0.018 -2.222,0.052 -1.555,0.086 -0.794,0.105 0,0.105 0.794,0.105 1.555,0.086 2.221,0.052 1.553,0.018 0.791,0 0,0"
           style="fill:#0a8137;fill-opacity:1;fill-rule:evenodd;stroke:none"
           id="path1126" />
      </g>
      <g
         id="g1128"
         transform="translate(167.9502,508.2182)">
        <path
           d="M 0,0 C 1.211,0 2.311,-0.043 3.113,-0.113 2.311,-0.183 1.211,-0.226 0,-0.226 c -1.211,0 -2.311,0.043 -3.114,0.113 C -2.311,-0.043 -1.211,0 0,0"
           style="fill:#0a8137;fill-opacity:1;fill-rule:nonzero;stroke:none"
           id="path1130" />
      </g>
      <g
         id="g1132"
         transform="translate(168.446,503.37579)">
        <path
           d="M 0,0 C 0.303,0.594 0.669,1.264 1.067,1.954 1.46,2.637 1.856,3.287 2.221,3.849 1.917,3.252 1.553,2.584 1.159,1.901 0.762,1.216 0.366,0.563 0,0"
           style="fill:#0a8137;fill-opacity:1;fill-rule:evenodd;stroke:none"
           id="path1134" />
      </g>
      <g
         id="g1136"
         transform="translate(171.1154,508.0002)">
        <path
           d="m 0,0 c -0.341,-0.73 -0.854,-1.704 -1.458,-2.753 -0.606,-1.049 -1.194,-1.98 -1.656,-2.64 0.341,0.73 0.854,1.704 1.459,2.753 C -1.049,-1.591 -0.462,-0.66 0,0"
           style="fill:#0a8137;fill-opacity:1;fill-rule:nonzero;stroke:none"
           id="path1138" />
      </g>
      <g
         id="g1140"
         transform="translate(173.90021,503.37041)">
        <path
           d="M 0,0 C -0.364,0.561 -0.761,1.213 -1.158,1.9 -1.553,2.584 -1.917,3.253 -2.223,3.852 -1.86,3.29 -1.463,2.64 -1.066,1.952 -0.67,1.266 -0.304,0.596 0,0"
           style="fill:#0a8137;fill-opacity:1;fill-rule:evenodd;stroke:none"
           id="path1142" />
      </g>
      <g
         id="g1144"
         transform="translate(171.2317,507.9926)">
        <path
           d="M 0,0 C 0.462,-0.66 1.049,-1.591 1.655,-2.641 2.26,-3.689 2.773,-4.664 3.114,-5.393 2.652,-4.733 2.064,-3.802 1.459,-2.753 0.854,-1.704 0.341,-0.73 0,0"
           style="fill:#0a8137;fill-opacity:1;fill-rule:nonzero;stroke:none"
           id="path1146" />
      </g>
      <g
         id="g1148"
         transform="translate(174.4104,508.0369)">
        <path
           d="M 0,0 C -0.792,0 -1.555,0.019 -2.223,0.053 -1.555,0.087 -0.792,0.106 0,0.106 0.792,0.106 1.554,0.087 2.223,0.053 1.554,0.019 0.792,0 0,0"
           style="fill:#0a8137;fill-opacity:1;fill-rule:evenodd;stroke:none"
           id="path1150" />
      </g>
      <g
         id="g1152"
         transform="translate(174.4106,508.20261)">
        <path
           d="M 0,0 C 1.211,0 2.311,-0.043 3.114,-0.113 2.311,-0.183 1.211,-0.226 0,-0.226 c -1.211,0 -2.311,0.043 -3.114,0.113 C -2.311,-0.043 -1.211,0 0,0"
           style="fill:#0a8137;fill-opacity:1;fill-rule:nonzero;stroke:none"
           id="path1154" />
      </g>
      <g
         id="g1156"
         transform="translate(171.6922,508.9689)">
        <path
           d="M 0,0 C 0.305,0.596 0.67,1.264 1.064,1.948 1.46,2.635 1.858,3.287 2.221,3.847 1.917,3.252 1.552,2.582 1.156,1.896 0.76,1.21 0.364,0.56 0,0"
           style="fill:#0a8137;fill-opacity:1;fill-rule:evenodd;stroke:none"
           id="path1158" />
      </g>
      <g
         id="g1160"
         transform="translate(174.3589,513.5873)">
        <path
           d="m 0,0 c -0.341,-0.73 -0.854,-1.704 -1.459,-2.753 -0.605,-1.049 -1.193,-1.981 -1.655,-2.64 0.341,0.729 0.854,1.704 1.459,2.752 C -1.049,-1.591 -0.462,-0.66 0,0"
           style="fill:#0a8137;fill-opacity:1;fill-rule:nonzero;stroke:none"
           id="path1162" />
      </g>
      <g
         id="g1164"
         transform="translate(170.681,508.9767)">
        <path
           d="M 0,0 C -0.364,0.562 -0.76,1.212 -1.155,1.895 -1.552,2.583 -1.917,3.252 -2.221,3.847 -1.857,3.287 -1.459,2.635 -1.063,1.948 -0.669,1.266 -0.305,0.597 0,0"
           style="fill:#0a8137;fill-opacity:1;fill-rule:evenodd;stroke:none"
           id="path1166" />
      </g>
      <g
         id="g1168"
         transform="translate(168.015,513.59489)">
        <path
           d="M 0,0 C 0.462,-0.66 1.049,-1.591 1.655,-2.64 2.26,-3.689 2.773,-4.663 3.114,-5.393 2.652,-4.733 2.064,-3.802 1.459,-2.753 0.854,-1.704 0.341,-0.73 0,0"
           style="fill:#0a8137;fill-opacity:1;fill-rule:nonzero;stroke:none"
           id="path1170" />
      </g>
      <g
         id="g1172"
         transform="translate(197.71001,508.052)">
        <path
           d="M 0,0 C -0.791,0 -1.552,0.019 -2.22,0.054 -1.55,0.088 -0.789,0.106 0,0.106 0.789,0.106 1.55,0.088 2.22,0.054 1.551,0.019 0.791,0 0,0"
           style="fill:#0a8137;fill-opacity:1;fill-rule:evenodd;stroke:none"
           id="path1174" />
      </g>
      <g
         id="g1176"
         transform="translate(197.7095,508.2182)">
        <path
           d="M 0,0 C 1.211,0 2.311,-0.043 3.114,-0.113 2.311,-0.183 1.211,-0.226 0,-0.226 c -1.211,0 -2.311,0.043 -3.114,0.113 C -2.311,-0.043 -1.211,0 0,0"
           style="fill:#0a8137;fill-opacity:1;fill-rule:nonzero;stroke:none"
           id="path1178" />
      </g>
      <g
         id="g1180"
         transform="translate(198.2043,503.3755)">
        <path
           d="M 0,0 C 0.305,0.598 0.671,1.268 1.068,1.954 1.466,2.642 1.863,3.294 2.227,3.855 1.922,3.26 1.557,2.59 1.159,1.902 0.762,1.214 0.364,0.562 0,0"
           style="fill:#0a8137;fill-opacity:1;fill-rule:evenodd;stroke:none"
           id="path1182" />
      </g>
      <g
         id="g1184"
         transform="translate(200.87511,508.0002)">
        <path
           d="m 0,0 c -0.341,-0.73 -0.854,-1.704 -1.459,-2.753 -0.605,-1.049 -1.193,-1.98 -1.655,-2.64 0.341,0.73 0.854,1.704 1.459,2.753 C -1.049,-1.591 -0.462,-0.66 0,0"
           style="fill:#0a8137;fill-opacity:1;fill-rule:nonzero;stroke:none"
           id="path1186" />
      </g>
      <g
         id="g1188"
         transform="translate(203.66,503.37109)">
        <path
           d="M 0,0 C -0.366,0.563 -0.762,1.214 -1.157,1.899 -1.554,2.586 -1.919,3.255 -2.223,3.848 -1.858,3.288 -1.462,2.638 -1.066,1.951 -0.67,1.266 -0.304,0.596 0,0"
           style="fill:#0a8137;fill-opacity:1;fill-rule:evenodd;stroke:none"
           id="path1190" />
      </g>
      <g
         id="g1192"
         transform="translate(200.99159,507.9926)">
        <path
           d="M 0,0 C 0.461,-0.66 1.048,-1.591 1.655,-2.641 2.26,-3.689 2.773,-4.664 3.114,-5.393 2.652,-4.733 2.064,-3.802 1.458,-2.753 0.854,-1.704 0.34,-0.73 0,0"
           style="fill:#0a8137;fill-opacity:1;fill-rule:nonzero;stroke:none"
           id="path1194" />
      </g>
      <g
         id="g1196"
         transform="translate(204.1701,508.03661)">
        <path
           d="M 0,0 C -0.79,0 -1.551,0.019 -2.219,0.054 -1.549,0.088 -0.788,0.106 0,0.106 0.788,0.106 1.548,0.088 2.218,0.054 1.55,0.019 0.79,0 0,0"
           style="fill:#0a8137;fill-opacity:1;fill-rule:evenodd;stroke:none"
           id="path1198" />
      </g>
      <g
         id="g1200"
         transform="translate(204.1701,508.20261)">
        <path
           d="M 0,0 C 1.211,0 2.311,-0.043 3.114,-0.113 2.311,-0.183 1.211,-0.226 0,-0.226 c -1.211,0 -2.311,0.043 -3.114,0.113 C -2.311,-0.043 -1.211,0 0,0"
           style="fill:#0a8137;fill-opacity:1;fill-rule:nonzero;stroke:none"
           id="path1202" />
      </g>
      <g
         id="g1204"
         transform="translate(201.4498,508.9659)">
        <path
           d="M 0,0 C 0.304,0.595 0.67,1.265 1.066,1.951 1.459,2.633 1.855,3.282 2.221,3.845 1.916,3.249 1.551,2.581 1.157,1.899 0.76,1.209 0.363,0.559 0,0"
           style="fill:#0a8137;fill-opacity:1;fill-rule:evenodd;stroke:none"
           id="path1206" />
      </g>
      <g
         id="g1208"
         transform="translate(204.1181,513.5873)">
        <path
           d="m 0,0 c -0.341,-0.73 -0.854,-1.704 -1.458,-2.753 -0.606,-1.049 -1.194,-1.981 -1.656,-2.64 0.341,0.729 0.854,1.704 1.46,2.752 C -1.048,-1.591 -0.462,-0.66 0,0"
           style="fill:#0a8137;fill-opacity:1;fill-rule:nonzero;stroke:none"
           id="path1210" />
      </g>
      <g
         id="g1212"
         transform="translate(200.44119,508.9772)">
        <path
           d="M 0,0 C -0.362,0.557 -0.758,1.207 -1.156,1.895 -1.553,2.583 -1.918,3.252 -2.222,3.847 -1.856,3.282 -1.458,2.632 -1.064,1.947 -0.668,1.26 -0.303,0.593 0,0"
           style="fill:#0a8137;fill-opacity:1;fill-rule:evenodd;stroke:none"
           id="path1214" />
      </g>
      <g
         id="g1216"
         transform="translate(197.77451,513.59489)">
        <path
           d="M 0,0 C 0.462,-0.66 1.049,-1.591 1.655,-2.64 2.26,-3.689 2.773,-4.663 3.114,-5.393 2.652,-4.733 2.064,-3.802 1.459,-2.753 0.854,-1.704 0.341,-0.73 0,0"
           style="fill:#0a8137;fill-opacity:1;fill-rule:nonzero;stroke:none"
           id="path1218" />
      </g>
      <g
         id="g1220"
         transform="translate(171.09579,508.1537)">
        <path
           d="M 0,0 C -1.326,-0.301 -2.799,-0.11 -4.105,0.644 -5.411,1.397 -6.311,2.578 -6.714,3.876 -5.388,4.177 -3.916,3.987 -2.61,3.233 -1.304,2.479 -0.403,1.299 0,0"
           style="fill:#53369b;fill-opacity:1;fill-rule:evenodd;stroke:none"
           id="path1222" />
      </g>
      <g
         id="g1224"
         transform="translate(171.09579,508.1537)">
        <path
           d="M 0,0 C -1.326,-0.301 -2.799,-0.11 -4.105,0.644 -5.411,1.397 -6.311,2.578 -6.714,3.876 -5.388,4.177 -3.916,3.987 -2.61,3.233 -1.304,2.479 -0.403,1.299 0,0 Z"
           style="fill:none;stroke:#53369b;stroke-width:0.274;stroke-linecap:square;stroke-linejoin:miter;stroke-miterlimit:2.613;stroke-dasharray:none;stroke-opacity:1"
           id="path1226" />
      </g>
      <g
         id="g1228"
         transform="translate(171.1738,507.9959)">
        <path
           d="m 0,0 c 0.923,-0.999 1.495,-2.369 1.495,-3.876 0,-1.508 -0.572,-2.878 -1.495,-3.877 -0.924,0.999 -1.495,2.369 -1.495,3.877 0,1.507 0.571,2.877 1.495,3.876"
           style="fill:#53369b;fill-opacity:1;fill-rule:evenodd;stroke:none"
           id="path1230" />
      </g>
      <g
         id="g1232"
         transform="translate(171.1738,507.9959)">
        <path
           d="m 0,0 c 0.923,-0.999 1.495,-2.369 1.495,-3.876 0,-1.508 -0.572,-2.878 -1.495,-3.877 -0.924,0.999 -1.495,2.369 -1.495,3.877 0,1.507 0.571,2.877 1.495,3.876 z"
           style="fill:none;stroke:#53369b;stroke-width:0.274;stroke-linecap:square;stroke-linejoin:miter;stroke-miterlimit:2.613;stroke-dasharray:none;stroke-opacity:1"
           id="path1234" />
      </g>
      <g
         id="g1236"
         transform="translate(171.27139,508.14211)">
        <path
           d="M 0,0 C 0.403,1.299 1.304,2.479 2.61,3.233 3.916,3.987 5.388,4.177 6.714,3.876 6.311,2.578 5.411,1.398 4.105,0.644 2.799,-0.11 1.327,-0.3 0,0"
           style="fill:#53369b;fill-opacity:1;fill-rule:evenodd;stroke:none"
           id="path1238" />
      </g>
      <g
         id="g1240"
         transform="translate(171.27139,508.14211)">
        <path
           d="M 0,0 C 0.403,1.299 1.304,2.479 2.61,3.233 3.916,3.987 5.388,4.177 6.714,3.876 6.311,2.578 5.411,1.398 4.105,0.644 2.799,-0.11 1.327,-0.301 0,0 Z"
           style="fill:none;stroke:#53369b;stroke-width:0.274;stroke-linecap:square;stroke-linejoin:miter;stroke-miterlimit:2.613;stroke-dasharray:none;stroke-opacity:1"
           id="path1242" />
      </g>
      <g
         id="g1244"
         transform="translate(171.0892,508.0524)">
        <path
           d="m 0,0 c -0.403,-1.299 -1.304,-2.479 -2.61,-3.233 -1.306,-0.754 -2.778,-0.944 -4.104,-0.643 0.403,1.298 1.303,2.479 2.609,3.232 C -2.799,0.11 -1.326,0.301 0,0"
           style="fill:#53369b;fill-opacity:1;fill-rule:evenodd;stroke:none"
           id="path1246" />
      </g>
      <g
         id="g1248"
         transform="translate(171.0892,508.0524)">
        <path
           d="m 0,0 c -0.403,-1.299 -1.304,-2.479 -2.61,-3.233 -1.306,-0.754 -2.778,-0.944 -4.104,-0.643 0.403,1.298 1.303,2.479 2.609,3.232 C -2.799,0.11 -1.326,0.301 0,0 Z"
           style="fill:none;stroke:#53369b;stroke-width:0.274;stroke-linecap:square;stroke-linejoin:miter;stroke-miterlimit:2.613;stroke-dasharray:none;stroke-opacity:1"
           id="path1250" />
      </g>
      <g
         id="g1252"
         transform="translate(171.2648,508.04089)">
        <path
           d="M 0,0 C 1.326,0.301 2.799,0.11 4.105,-0.643 5.411,-1.397 6.311,-2.577 6.714,-3.876 5.388,-4.177 3.916,-3.987 2.61,-3.233 1.304,-2.479 0.403,-1.299 0,0"
           style="fill:#53369b;fill-opacity:1;fill-rule:evenodd;stroke:none"
           id="path1254" />
      </g>
      <g
         id="g1256"
         transform="translate(171.2648,508.04089)">
        <path
           d="M 0,0 C 1.326,0.301 2.799,0.11 4.105,-0.643 5.411,-1.397 6.311,-2.577 6.714,-3.876 5.388,-4.177 3.916,-3.987 2.61,-3.233 1.304,-2.479 0.403,-1.299 0,0 Z"
           style="fill:none;stroke:#53369b;stroke-width:0.274;stroke-linecap:square;stroke-linejoin:miter;stroke-miterlimit:2.613;stroke-dasharray:none;stroke-opacity:1"
           id="path1258" />
      </g>
      <g
         id="g1260"
         transform="translate(171.1869,508.19859)">
        <path
           d="M 0,0 C -0.924,0.999 -1.495,2.369 -1.495,3.876 -1.495,5.384 -0.924,6.754 0,7.753 0.924,6.754 1.495,5.384 1.495,3.876 1.495,2.369 0.924,0.999 0,0"
           style="fill:#53369b;fill-opacity:1;fill-rule:evenodd;stroke:none"
           id="path1262" />
      </g>
      <g
         id="g1264"
         transform="translate(171.1869,508.19859)">
        <path
           d="M 0,0 C -0.924,0.999 -1.495,2.369 -1.495,3.876 -1.495,5.384 -0.924,6.754 0,7.753 0.924,6.754 1.495,5.384 1.495,3.876 1.495,2.369 0.924,0.999 0,0 Z"
           style="fill:none;stroke:#53369b;stroke-width:0.274;stroke-linecap:square;stroke-linejoin:miter;stroke-miterlimit:2.613;stroke-dasharray:none;stroke-opacity:1"
           id="path1266" />
      </g>
      <g
         id="g1268"
         transform="translate(200.8553,508.1537)">
        <path
           d="M 0,0 C -1.327,-0.301 -2.799,-0.11 -4.105,0.644 -5.411,1.397 -6.311,2.578 -6.714,3.876 -5.388,4.177 -3.915,3.987 -2.61,3.233 -1.304,2.479 -0.403,1.299 0,0"
           style="fill:#53369b;fill-opacity:1;fill-rule:evenodd;stroke:none"
           id="path1270" />
      </g>
      <g
         id="g1272"
         transform="translate(200.8553,508.1537)">
        <path
           d="M 0,0 C -1.327,-0.301 -2.799,-0.11 -4.105,0.644 -5.411,1.397 -6.311,2.578 -6.714,3.876 -5.388,4.177 -3.915,3.987 -2.61,3.233 -1.304,2.479 -0.403,1.299 0,0 Z"
           style="fill:none;stroke:#53369b;stroke-width:0.274;stroke-linecap:square;stroke-linejoin:miter;stroke-miterlimit:2.613;stroke-dasharray:none;stroke-opacity:1"
           id="path1274" />
      </g>
      <g
         id="g1276"
         transform="translate(200.933,507.9959)">
        <path
           d="m 0,0 c 0.923,-0.999 1.495,-2.369 1.495,-3.876 0,-1.508 -0.572,-2.878 -1.495,-3.877 -0.923,0.999 -1.495,2.369 -1.495,3.877 0,1.507 0.572,2.877 1.495,3.876"
           style="fill:#53369b;fill-opacity:1;fill-rule:evenodd;stroke:none"
           id="path1278" />
      </g>
      <g
         id="g1280"
         transform="translate(200.933,507.9959)">
        <path
           d="m 0,0 c 0.923,-0.999 1.495,-2.369 1.495,-3.876 0,-1.508 -0.572,-2.878 -1.495,-3.877 -0.923,0.999 -1.495,2.369 -1.495,3.877 0,1.507 0.572,2.877 1.495,3.876 z"
           style="fill:none;stroke:#53369b;stroke-width:0.274;stroke-linecap:square;stroke-linejoin:miter;stroke-miterlimit:2.613;stroke-dasharray:none;stroke-opacity:1"
           id="path1282" />
      </g>
      <g
         id="g1284"
         transform="translate(201.0309,508.14211)">
        <path
           d="M 0,0 C 0.403,1.299 1.304,2.479 2.61,3.233 3.915,3.987 5.388,4.177 6.714,3.876 6.311,2.578 5.411,1.397 4.105,0.644 2.799,-0.11 1.327,-0.3 0,0"
           style="fill:#53369b;fill-opacity:1;fill-rule:evenodd;stroke:none"
           id="path1286" />
      </g>
      <g
         id="g1288"
         transform="translate(201.0309,508.14211)">
        <path
           d="M 0,0 C 0.403,1.299 1.304,2.479 2.61,3.233 3.915,3.987 5.388,4.177 6.714,3.876 6.311,2.578 5.411,1.397 4.105,0.644 2.799,-0.11 1.327,-0.301 0,0 Z"
           style="fill:none;stroke:#53369b;stroke-width:0.274;stroke-linecap:square;stroke-linejoin:miter;stroke-miterlimit:2.613;stroke-dasharray:none;stroke-opacity:1"
           id="path1290" />
      </g>
      <g
         id="g1292"
         transform="translate(200.8488,508.0524)">
        <path
           d="m 0,0 c -0.403,-1.299 -1.304,-2.479 -2.61,-3.233 -1.306,-0.754 -2.778,-0.944 -4.104,-0.643 0.403,1.298 1.303,2.479 2.609,3.232 C -2.799,0.11 -1.327,0.301 0,0"
           style="fill:#53369b;fill-opacity:1;fill-rule:evenodd;stroke:none"
           id="path1294" />
      </g>
      <g
         id="g1296"
         transform="translate(200.8488,508.0524)">
        <path
           d="m 0,0 c -0.403,-1.299 -1.304,-2.479 -2.61,-3.233 -1.306,-0.754 -2.778,-0.944 -4.104,-0.643 0.403,1.298 1.303,2.479 2.609,3.232 C -2.799,0.11 -1.327,0.301 0,0 Z"
           style="fill:none;stroke:#53369b;stroke-width:0.274;stroke-linecap:square;stroke-linejoin:miter;stroke-miterlimit:2.613;stroke-dasharray:none;stroke-opacity:1"
           id="path1298" />
      </g>
      <g
         id="g1300"
         transform="translate(201.02431,508.04089)">
        <path
           d="M 0,0 C 1.326,0.301 2.799,0.11 4.105,-0.643 5.411,-1.397 6.311,-2.577 6.714,-3.876 5.388,-4.177 3.915,-3.987 2.61,-3.233 1.304,-2.479 0.403,-1.299 0,0"
           style="fill:#53369b;fill-opacity:1;fill-rule:evenodd;stroke:none"
           id="path1302" />
      </g>
      <g
         id="g1304"
         transform="translate(201.02431,508.04089)">
        <path
           d="M 0,0 C 1.326,0.301 2.799,0.11 4.105,-0.643 5.411,-1.397 6.311,-2.577 6.714,-3.876 5.388,-4.177 3.915,-3.987 2.61,-3.233 1.304,-2.479 0.403,-1.299 0,0 Z"
           style="fill:none;stroke:#53369b;stroke-width:0.274;stroke-linecap:square;stroke-linejoin:miter;stroke-miterlimit:2.613;stroke-dasharray:none;stroke-opacity:1"
           id="path1306" />
      </g>
      <g
         id="g1308"
         transform="translate(200.9467,508.19859)">
        <path
           d="M 0,0 C -0.924,0.999 -1.496,2.369 -1.496,3.876 -1.496,5.384 -0.924,6.754 0,7.753 0.923,6.754 1.495,5.384 1.495,3.876 1.495,2.369 0.923,0.999 0,0"
           style="fill:#53369b;fill-opacity:1;fill-rule:evenodd;stroke:none"
           id="path1310" />
      </g>
      <g
         id="g1312"
         transform="translate(200.9467,508.19859)">
        <path
           d="M 0,0 C -0.924,0.999 -1.496,2.369 -1.496,3.876 -1.496,5.384 -0.924,6.754 0,7.753 0.923,6.754 1.495,5.384 1.495,3.876 1.495,2.369 0.923,0.999 0,0 Z"
           style="fill:none;stroke:#53369b;stroke-width:0.274;stroke-linecap:square;stroke-linejoin:miter;stroke-miterlimit:2.613;stroke-dasharray:none;stroke-opacity:1"
           id="path1314" />
      </g>
      <g
         id="g1316"
         transform="translate(171.1803,510.21741)">
        <path
           d="M 0,0 C 0.323,0.223 0.631,0.157 0.824,-0.167 1.191,-0.08 1.444,-0.252 1.498,-0.622 1.868,-0.677 2.04,-0.929 1.953,-1.296 2.278,-1.49 2.343,-1.797 2.12,-2.12 2.343,-2.443 2.278,-2.751 1.953,-2.944 2.04,-3.311 1.868,-3.564 1.498,-3.618 1.444,-3.988 1.191,-4.16 0.824,-4.073 0.631,-4.398 0.323,-4.463 0,-4.24 c -0.323,-0.223 -0.631,-0.158 -0.824,0.167 -0.367,-0.087 -0.62,0.085 -0.674,0.455 -0.37,0.054 -0.542,0.307 -0.455,0.674 -0.325,0.193 -0.39,0.501 -0.167,0.824 -0.223,0.323 -0.158,0.63 0.167,0.824 -0.087,0.367 0.085,0.619 0.455,0.674 0.054,0.37 0.307,0.542 0.674,0.455 C -0.631,0.157 -0.323,0.223 0,0"
           style="fill:#fcd006;fill-opacity:1;fill-rule:evenodd;stroke:none"
           id="path1318" />
      </g>
      <g
         id="g1320"
         transform="translate(171.1803,510.21741)">
        <path
           d="M 0,0 C 0.323,0.223 0.631,0.157 0.824,-0.167 1.191,-0.08 1.444,-0.252 1.498,-0.622 1.868,-0.677 2.04,-0.929 1.953,-1.296 2.278,-1.49 2.343,-1.797 2.12,-2.12 2.343,-2.443 2.278,-2.751 1.953,-2.944 2.04,-3.311 1.868,-3.564 1.498,-3.618 1.444,-3.988 1.191,-4.16 0.824,-4.073 0.631,-4.398 0.323,-4.463 0,-4.24 c -0.323,-0.223 -0.631,-0.158 -0.824,0.167 -0.367,-0.087 -0.62,0.085 -0.674,0.455 -0.37,0.054 -0.542,0.307 -0.455,0.674 -0.325,0.193 -0.39,0.501 -0.167,0.824 -0.223,0.323 -0.158,0.63 0.167,0.824 -0.087,0.367 0.085,0.619 0.455,0.674 0.054,0.37 0.307,0.542 0.674,0.455 C -0.631,0.157 -0.323,0.223 0,0 Z"
           style="fill:none;stroke:#53369b;stroke-width:0.136;stroke-linecap:butt;stroke-linejoin:miter;stroke-miterlimit:2.613;stroke-dasharray:none;stroke-opacity:1"
           id="path1322" />
      </g>
      <g
         id="g1324"
         transform="translate(171.1803,508.76669)">
        <path
           d="m 0,0 c 0.369,0 0.669,-0.301 0.669,-0.67 0,-0.368 -0.3,-0.668 -0.669,-0.668 -0.369,0 -0.669,0.3 -0.669,0.668 0,0.369 0.3,0.67 0.669,0.67"
           style="fill:#53369b;fill-opacity:1;fill-rule:evenodd;stroke:none"
           id="path1326" />
      </g>
      <g
         id="g1328"
         transform="translate(171.1803,508.76669)">
        <path
           d="m 0,0 c 0.369,0 0.669,-0.301 0.669,-0.67 0,-0.368 -0.3,-0.668 -0.669,-0.668 -0.369,0 -0.669,0.3 -0.669,0.668 0,0.369 0.3,0.67 0.669,0.67 z"
           style="fill:none;stroke:#53369b;stroke-width:0.332;stroke-linecap:butt;stroke-linejoin:miter;stroke-miterlimit:2.613;stroke-dasharray:none;stroke-opacity:1"
           id="path1330" />
      </g>
      <g
         id="g1332"
         transform="translate(200.93961,510.21741)">
        <path
           d="M 0,0 C 0.323,0.223 0.631,0.157 0.824,-0.167 1.192,-0.08 1.444,-0.252 1.498,-0.622 1.868,-0.677 2.04,-0.929 1.954,-1.296 2.278,-1.49 2.343,-1.797 2.12,-2.12 2.343,-2.443 2.278,-2.751 1.954,-2.944 2.04,-3.311 1.868,-3.564 1.498,-3.618 1.444,-3.988 1.192,-4.16 0.824,-4.073 0.631,-4.398 0.323,-4.463 0,-4.24 c -0.323,-0.223 -0.631,-0.158 -0.824,0.167 -0.367,-0.087 -0.619,0.085 -0.674,0.455 -0.37,0.054 -0.541,0.307 -0.455,0.674 -0.325,0.193 -0.39,0.501 -0.167,0.824 -0.223,0.323 -0.158,0.63 0.167,0.824 -0.086,0.367 0.085,0.619 0.455,0.674 0.055,0.37 0.307,0.542 0.674,0.455 C -0.631,0.157 -0.323,0.223 0,0"
           style="fill:#fcd006;fill-opacity:1;fill-rule:evenodd;stroke:none"
           id="path1334" />
      </g>
      <g
         id="g1336"
         transform="translate(200.93961,510.21741)">
        <path
           d="M 0,0 C 0.323,0.223 0.631,0.157 0.824,-0.167 1.192,-0.08 1.444,-0.252 1.498,-0.622 1.869,-0.677 2.04,-0.929 1.954,-1.296 2.278,-1.49 2.343,-1.797 2.12,-2.12 2.343,-2.443 2.278,-2.751 1.954,-2.944 2.04,-3.311 1.869,-3.564 1.498,-3.618 1.444,-3.988 1.192,-4.16 0.824,-4.073 0.631,-4.398 0.323,-4.463 0,-4.24 c -0.323,-0.223 -0.631,-0.158 -0.824,0.167 -0.367,-0.087 -0.619,0.085 -0.674,0.455 -0.37,0.054 -0.541,0.307 -0.455,0.674 -0.325,0.193 -0.39,0.501 -0.167,0.824 -0.223,0.323 -0.158,0.63 0.167,0.824 -0.086,0.367 0.085,0.619 0.455,0.674 0.055,0.37 0.307,0.542 0.674,0.455 C -0.631,0.157 -0.323,0.223 0,0 Z"
           style="fill:none;stroke:#53369b;stroke-width:0.136;stroke-linecap:butt;stroke-linejoin:miter;stroke-miterlimit:2.613;stroke-dasharray:none;stroke-opacity:1"
           id="path1338" />
      </g>
      <g
         id="g1340"
         transform="translate(200.93961,508.76669)">
        <path
           d="m 0,0 c 0.369,0 0.67,-0.301 0.67,-0.67 0,-0.368 -0.301,-0.668 -0.67,-0.668 -0.369,0 -0.669,0.3 -0.669,0.668 0,0.369 0.3,0.67 0.669,0.67"
           style="fill:#53369b;fill-opacity:1;fill-rule:evenodd;stroke:none"
           id="path1342" />
      </g>
      <g
         id="g1344"
         transform="translate(200.93961,508.76669)">
        <path
           d="m 0,0 c 0.369,0 0.67,-0.301 0.67,-0.67 0,-0.368 -0.301,-0.668 -0.67,-0.668 -0.369,0 -0.669,0.3 -0.669,0.668 0,0.369 0.3,0.67 0.669,0.67 z"
           style="fill:none;stroke:#53369b;stroke-width:0.332;stroke-linecap:butt;stroke-linejoin:miter;stroke-miterlimit:2.613;stroke-dasharray:none;stroke-opacity:1"
           id="path1346" />
      </g>
      <g
         id="g1348"
         transform="translate(186.0717,458.02451)">
        <path
           d="M 0,0 C -14.471,2.819 -25.03,15.634 -25.03,30.384 V 60.949 H 25.03 V 30.378 l 10e-4,-0.007 C 25.031,15.351 14.23,2.771 0,0 Z"
           style="fill:none;stroke:#231f20;stroke-width:0.82;stroke-linecap:square;stroke-linejoin:miter;stroke-miterlimit:2.613;stroke-dasharray:none;stroke-opacity:1"
           id="path1350" />
      </g>
    </g>
  </g>
</svg>
