<?xml version="1.0" encoding="UTF-8"?>
<svg version="1.0" viewBox="0 0 900 600" xmlns="http://www.w3.org/2000/svg" xmlns:cc="http://web.resource.org/cc/" xmlns:dc="http://purl.org/dc/elements/1.1/" xmlns:ns="http://creativecommons.org/ns#" xmlns:rdf="http://www.w3.org/1999/02/22-rdf-syntax-ns#" xmlns:xlink="http://www.w3.org/1999/xlink">
<metadata>
<rdf:RDF>
<ns:Work rdf:about="">
<dc:format>image/svg+xml</dc:format>
<dc:type rdf:resource="http://purl.org/dc/dcmitype/StillImage"/>
</ns:Work>
<cc:Work rdf:about="">
<dc:format>image/svg+xml</dc:format>
<dc:type rdf:resource="http://purl.org/dc/dcmitype/StillImage"/>
</cc:Work>
</rdf:RDF>
</metadata>
<defs>
<style type="text/css"/>
<style type="text/css"/>
<style type="text/css"/>
<style type="text/css"/>
<linearGradient id="a" x1="370.61" x2="365.67" y1="448.32" y2="402.98" gradientUnits="userSpaceOnUse">
<stop stop-color="#80660f" offset="0"/>
<stop stop-color="#fff" offset="1"/>
</linearGradient>
</defs>
<rect width="900" height="600" fill="#0035ad"/>
<path d="m308.54 441.6 0.77258-0.84972c0.84359 0.64382 1.3503 0.98751 1.5201 1.031 0.11097 0.02698 0.22317 0.01196 0.33661-0.04505 0.21459-0.10054 0.75845-0.60386 1.6316-1.51 1.3459-1.4125 2.3959-2.5335 3.1501-3.363 1.0178-1.1195 2.2981-2.5547 3.8408-4.3056 1.1441-1.3126 1.7975-2.1599 1.96-2.5418 0.05273-0.11218 0.06009-0.22868 0.0221-0.34948-0.0466-0.16553-0.41412-0.63518-1.1026-1.409l0.77258-0.84972c1.3469 1.3232 2.2227 2.1687 2.6273 2.5366l5.1508 4.5168c1.0992 0.99945 1.8035 1.8338 2.1128 2.503 0.30925 0.66924 0.39749 1.3716 0.26473 2.107-0.13281 0.73543-0.48739 1.4201-1.0637 2.054-0.73581 0.80926-1.6155 1.306-2.6391 1.4902-1.0236 0.18416-2.33-0.01503-3.9191-0.5976l-0.7977 5.2062-0.58333 4.0152c-0.05096 0.69281-0.03719 1.1519 0.04129 1.3772 0.07844 0.22532 0.28995 0.50076 0.63452 0.82636l-0.7082 0.77891-0.60603-0.53253c-1.7252-1.5439-2.8462-2.5262-3.363-2.9468 0.26557-1.4708 0.62438-3.6268 1.0764-6.468l0.79493-5.0609c0.16491-0.05946 0.32586-0.13486 0.48284-0.2262 0.23908 0.27899 0.42269 0.47672 0.55083 0.59322 0.62717 0.57023 1.4742 0.87838 2.541 0.92444 1.0668 0.04605 2.0263-0.39962 2.8786-1.337 0.74191-0.81601 1.0789-1.6676 1.0109-2.5548-0.06802-0.88717-0.58083-1.7661-1.5384-2.6368-0.30349-0.27591-0.73633-0.62633-1.2985-1.0513l-2.784 2.9198-3.5309 3.7005c-0.77871 0.85647-1.7414 1.983-2.888 3.3796-0.85966 1.0539-1.3177 1.666-1.3741 1.8365-0.03926 0.12445-0.02946 0.26272 0.0294 0.41477 0.06803 0.20968 0.47143 0.68732 1.2102 1.4329l-0.77257 0.84972c-1.171-1.1509-2.2252-2.1525-3.1626-3.0048-0.99809-0.90748-2.0918-1.8588-3.2812-2.854zm15.804 14.053 0.44632-0.58809c0.51704 0.11779 1.0235 0.18173 1.5192 0.19184 1.0048-1.0224 2.8847-3.3488 5.6398-6.979 1.8789-2.4758 3.0988-4.1359 3.6596-4.9804 0.3033-0.44489 0.43414-0.77182 0.3925-0.98078-0.04166-0.20896-0.50774-0.71429-1.3982-1.516l0.69428-0.91482c1.6638 1.3658 2.9931 2.4261 3.9878 3.1809l6.0504 4.4888c0.63163 0.47938 1.1823 0.93734 1.652 1.3738l-0.01469 0.17767c-0.76035 0.67016-1.6755 1.6348-2.7454 2.8938l-0.86036-0.65295c0.76816-1.0876 1.1562-1.6856 1.1641-1.794 0.00788-0.10842-0.10494-0.30275-0.33848-0.58299-0.50346-0.58803-1.3759-1.3532-2.6175-2.2954-0.60989-0.46284-1.3407-0.97742-2.1924-1.5438-1.797 2.1719-3.207 3.9166-4.2298 5.2342 0.73829 0.64042 1.4487 1.2196 2.1312 1.7375 1.0092 0.76591 1.6402 1.1933 1.8931 1.2823 0.15647 0.05011 0.32349 0.01095 0.50107-0.11746 0.14272-0.09762 0.54068-0.51646 1.1939-1.2565l0.9366 0.7108c-0.96753 1.1995-1.5918 1.9843-1.8728 2.3546l-1.8052 2.4917-0.93659-0.71081c0.67098-0.98969 1.0216-1.5874 1.052-1.7933 0.02255-0.12018-0.02863-0.25628-0.15353-0.4083-0.30243-0.35537-1.0889-1.0152-2.3595-1.9795-0.39934-0.30304-0.88417-0.63668-1.4545-1.0009-0.30657 0.37379-0.61138 0.76035-0.91443 1.1597-1.5759 2.0765-2.7518 3.7013-3.5278 4.8745l2.1316 1.6692c1.227 0.93122 2.3983 1.7172 3.514 2.3579 0.68842-0.53022 1.4385-1.1567 2.2502-1.8794l0.90391 0.68602c-1.1368 1.1511-2.166 2.3037-3.0877 3.4579-0.71581-0.42885-1.3787-0.87468-1.9885-1.3375-0.39933-0.30307-1.1761-0.91544-2.3302-1.8371-1.0743-0.86109-2.0725-1.6415-2.9945-2.3413-1.2125-0.9202-2.5096-1.8646-3.8914-2.8331zm27.23 10.77 0.58063-0.943c1.3934 0.9008 2.6451 1.6929 3.755 2.3763 1.0245 0.63081 2.14 1.2963 3.3466 1.9964l-0.45878 0.74509c-0.40842-0.1016-0.81325-0.17427-1.2145-0.21795-0.57583 0.72654-1.0334 1.3653-1.3727 1.9164-0.24374 0.39584-0.67984 1.2084-1.3083 2.4377-1.8808-0.38742-3.4002-0.80114-4.5582-1.2412-1.158-0.44007-2.2919-1.0018-3.4018-1.6852-2.9959-1.8447-4.8626-4.0672-5.6003-6.6675-0.73769-2.6003-0.3443-5.1384 1.1802-7.6143 1.5675-2.5457 3.6873-4.0502 6.3595-4.5135 2.6722-0.46328 5.6265 0.30149 8.863 2.2943 1.1409 0.7025 2.1803 1.4656 3.1182 2.2892 0.93784 0.82366 1.7679 1.7094 2.4902 2.6572l-0.00274 0.23915c-0.83202 0.8471-1.754 1.9706-2.7658 3.3706l-0.97794-0.60215c0.44622-0.7421 0.7972-1.4251 1.0529-2.049-0.14311-0.88018-0.51625-1.704-1.1194-2.4714-0.60321-0.76743-1.4365-1.4785-2.4997-2.1332-1.9947-1.2282-3.9566-1.6013-5.8856-1.1193-1.9291 0.482-3.5412 1.7747-4.8363 3.878-1.3811 2.243-1.8706 4.433-1.4683 6.5698 0.40221 2.1369 1.5153 3.7668 3.3392 4.8899 0.97014 0.59735 2.1482 0.99622 3.534 1.1966 0.43004-0.5594 0.80995-1.1069 1.1397-1.6424 0.73592-1.1952 1.0723-1.898 1.009-2.1082-0.06326-0.21021-0.8292-0.82632-2.2978-1.8484zm5.7394 11.051 0.51925-1.0244c1.1508 0.51179 1.8323 0.73973 2.0445 0.68385 0.21227-0.05591 0.46447-0.33169 0.75662-0.8274 0.60088-1.0443 1.6431-3.0298 3.1267-5.9565 0.56868-1.1219 1.3766-2.7561 2.4238-4.9026 0.72139-1.4634 1.0938-2.2787 1.1171-2.4457 0.02333-0.16699-0.00949-0.31392-0.09846-0.44079-0.13353-0.18006-0.71225-0.5705-1.7361-1.1713l0.51925-1.0244c1.6418 0.91398 2.9057 1.5956 3.7919 2.0447 1.5284 0.77476 2.9269 1.4428 4.1956 2.0042l-0.51925 1.0244c-1.1386-0.49539-1.8069-0.72429-2.0048-0.68667-0.19791 0.03765-0.41816 0.24534-0.66072 0.62308-0.4688 0.74338-1.3069 2.3061-2.5144 4.6881-1.6072 3.1706-2.7149 5.386-3.3231 6.6463-0.60819 1.2603-0.91106 2.0392-0.90862 2.3368-0.00481 0.13042 0.05661 0.26629 0.18423 0.40762 0.12763 0.14134 0.65867 0.48971 1.5932 1.0452l-0.51924 1.0244-1.4204-0.76602c-0.89406-0.49408-1.6988-0.92242-2.4142-1.2851l-4.1529-1.9978zm19.286 9.3026c-3.1155-1.267-5.1753-3.037-6.1795-5.31-1.0042-2.273-0.93629-4.811 0.20368-7.6141 0.79659-1.9588 1.8749-3.4611 3.235-4.5069 1.3601-1.0458 2.9008-1.6467 4.6222-1.8027 1.7214-0.15597 3.7008 0.22099 5.9382 1.1309 2.153 0.87558 3.77 1.944 4.8511 3.2052 1.081 1.2613 1.736 2.669 1.9649 4.2232 0.22886 1.5542-0.02753 3.2432-0.76918 5.0669-0.80349 1.9757-1.9032 3.5185-3.2992 4.6284-1.396 1.1099-2.9912 1.76-4.7855 1.9503-1.7944 0.19027-3.7216-0.13352-5.7817-0.97131zm1.0426-1.1847c1.697 0.69016 3.305 0.61349 4.8238-0.22999 1.5188-0.84348 2.7984-2.5444 3.8389-5.1026 1.0919-2.6849 1.3513-4.9802 0.77836-6.886-0.4668-1.5378-1.6754-2.7033-3.6257-3.4965-1.8237-0.74164-3.4813-0.71224-4.9728 0.08824-1.4915 0.80047-2.7472 2.4545-3.767 4.9621-0.73479 1.8068-1.0827 3.4487-1.0438 4.9257 0.0389 1.477 0.37016 2.6645 0.9938 3.5626 0.62362 0.8981 1.6151 1.6236 2.9744 2.1764zm5.1016-18.751-1.2538-0.5099 4.0919-1.642c0.96357-0.38541 1.594-0.59887 1.8913-0.64034 0.29726-0.04144 0.57678-0.00894 0.83853 0.09747 0.32082 0.13051 0.54182 0.33107 0.66299 0.60172 0.12114 0.27067 0.12334 0.54955 0.00663 0.83658-0.10304 0.25332-0.27292 0.43514-0.50964 0.54546-0.23677 0.11037-0.88267 0.21668-1.9377 0.31892l-3.7902 0.39206zm5.8682 24.409 0.30995-1.1058c1.083 0.25622 1.7302 0.3619 1.9416 0.31702 0.14255-0.03577 0.26667-0.12403 0.3724-0.26479 0.15557-0.18357 0.42487-0.90796 0.80789-2.1731 0.64304-2.0916 1.1146-3.6727 1.4147-4.7434l1.5345-5.576c0.41326-1.4744 0.6036-2.3393 0.57103-2.5945-0.01577-0.14639-0.07209-0.2663-0.16895-0.35973-0.14602-0.1545-0.78473-0.44239-1.9161-0.86365l0.30995-1.1058c1.3744 0.43256 2.395 0.74231 3.062 0.92926 0.7372 0.20664 1.5815 0.41963 2.5329 0.63895 1.2953 3.146 2.7925 6.5853 4.4914 10.318 1.128 2.4933 2.1219 4.5704 2.9816 6.2312l1.4612-5.2131c0.55345-1.9747 1.0044-3.6847 1.3527-5.13 0.20348-0.86113 0.27964-1.403 0.22846-1.6256-0.02315-0.12006-0.09878-0.22172-0.22688-0.30496-0.12814-0.08324-0.72528-0.31686-1.7914-0.7009l0.30995-1.1058c0.94431 0.31204 1.8904 0.60087 2.8383 0.86653 1.2989 0.3641 2.481 0.67178 3.5465 0.92308l-0.30996 1.1058c-1.0002-0.21406-1.6123-0.30991-1.8362-0.2875-0.12641 0.0119-0.23578 0.04751-0.32811 0.1068-0.09237 0.05932-0.17332 0.14549-0.24284 0.25851-0.1205 0.19342-0.34502 0.85937-0.67356 1.9978l-1.5155 5.2548-1.5134 5.2979c-0.39853 1.4218-0.76632 2.8522-1.1034 4.2912l-0.22281 0.13633c-1.0078-0.49074-1.7225-0.82832-2.1441-1.0128-1.5545-3.1335-3.3989-7.0392-5.5332-11.717-1.0786-2.3659-1.9305-4.3416-2.5557-5.9273l-1.4354 5.121c-0.39114 1.3954-0.84028 3.0823-1.3474 5.0605-0.37956 1.4555-0.55183 2.3064-0.51678 2.5529 0.00804 0.1064 0.05295 0.19944 0.13474 0.27915 0.13969 0.14328 0.74698 0.40817 1.8219 0.79465l-0.30996 1.1058c-1.4046-0.45994-2.414-0.776-3.0283-0.94819-0.50903-0.14269-1.6103-0.41823-3.3038-0.82664zm31.045-10.446 0.14973-1.1386c1.7087 0.28904 3.2769 0.52744 4.7047 0.71519 1.2651 0.16638 2.6564 0.31715 4.1739 0.45232l-0.14972 1.1386c-1.0578-0.06555-1.6946-0.06425-1.9104 0.00388-0.21582 0.06817-0.33739 0.20617-0.36471 0.414-0.03447 0.26207 0.20486 1.3783 0.71797 3.3487l2.6062 9.8575 4.0581-7.1609c1.4956-2.6348 2.2802-4.2323 2.3539-4.7926 0.02731-0.20782-0.05023-0.3697-0.23261-0.48564-0.18243-0.1159-0.82976-0.27915-1.942-0.48978l0.14972-1.1386c1.6454 0.28074 2.7482 0.45793 3.3085 0.5316 0.58738 0.07724 1.6398 0.18348 3.1573 0.31864l-0.14973 1.1386c-0.92462-0.02964-1.4675 0.00928-1.6287 0.11678-0.23949 0.14318-0.90028 1.1135-1.9824 2.9109l-5.4733 9.4294c-1.1085 1.8583-1.9214 3.3556-2.4385 4.4919l-1.979-0.26024-3.287-12.126c-0.75788-2.7656-1.297-4.643-1.6174-5.632-0.18055-0.58449-0.35542-0.94994-0.52463-1.0963-0.16922-0.14633-0.73588-0.32887-1.7-0.5476zm19.962 19.473c0.85767-0.02322 1.3884-0.09599 1.5922-0.21833 0.13905-0.08754 0.3622-0.42819 0.66946-1.0219 0.58669-1.17 1.3403-2.7961 2.2608-4.8783l5.1473-11.723 2.0091 0.05241 5.7947 14.84c0.75211 1.9252 1.2192 2.9814 1.4012 3.1685 0.18202 0.1871 0.7551 0.32513 1.7193 0.41412l-0.02995 1.148c-1.4835-0.10251-2.8859-0.171-4.207-0.20548-1.5763-0.04112-3.076-0.04832-4.499-0.02161l0.02994-1.1481c1.0854-0.01726 1.7135-0.06242 1.8841-0.13548 0.17057-0.07305 0.25847-0.2098 0.26372-0.41025 0.0045-0.17311-0.17139-0.77034-0.52768-1.7917l-0.84108-2.3606c-1.1294-0.04769-2.3911-0.08971-3.7851-0.12608-1.2118-0.03161-2.3146-0.05125-3.3082-0.05895l-0.64235 1.556c-0.17518 0.42397-0.39227 1.0566-0.65127 1.8977-0.05967 0.18992-0.09152 0.36232-0.09555 0.51721-0.00547 0.20957 0.0795 0.35996 0.25492 0.45115 0.17541 0.09118 0.81318 0.19672 1.9133 0.31659l-0.02994 1.148c-0.89126-0.08708-2.002-0.14796-3.3323-0.18266-1.2665-0.03303-2.2742-0.0274-3.023 0.01688l0.03244-1.2437zm9.3112-13.01-3.0667 6.9361c0.83707 0.06743 1.7613 0.11433 2.7727 0.14072 1.0569 0.02756 2.0689 0.03117 3.0359 0.01081l-2.7419-7.0876zm13.43 14.564-0.04785-0.70932c0.48421-0.27018 0.93838-0.57945 1.3625-0.9278-0.04805-2.4724-0.16225-5.0454-0.34263-7.7191-0.14172-2.1007-0.2982-4.0816-0.46944-5.9428-0.11686-1.3258-0.23206-2.0854-0.34558-2.2788-0.05345-0.11514-0.15265-0.1975-0.29759-0.24714-0.14494-0.04958-0.81189-0.08452-2.0008-0.1048l-0.0773-1.1458c1.7582-0.07291 3.3875-0.16 4.888-0.26126 1.455-0.09813 2.8312-0.21383 4.1286-0.34705l0.0773 1.1458c-1.2494 0.16652-1.965 0.32441-2.1468 0.4737-0.11271 0.08984-0.18563 0.26148-0.21877 0.51491-0.03316 0.25347 0.02744 1.727 0.18176 4.4206l0.36634 6.6486c0.08404 1.2459 0.21311 2.6851 0.38721 4.3177 1.1956-0.01671 2.0798-0.0444 2.6528-0.08304 1.7187-0.11595 3.1558-0.34537 4.3111-0.68825 0.18059-0.84349 0.34592-1.8458 0.49598-3.007l1.2004-0.081c-0.11235 1.3139-0.18078 2.9401-0.2053 4.8784-0.85534 0.18561-1.6468 0.30295-2.3743 0.35201l-4.9417 0.27859-2.2117 0.1218c-1.0191 0.05962-2.4766 0.18993-4.3723 0.39089zm16.295-1.1877-0.17129-1.1356c1.0603-0.24289 1.6557-0.42027 1.7863-0.53216 0.09999-0.07038 0.16683-0.17724 0.20051-0.3206 0.05614-0.2389-0.01922-1.1816-0.22609-2.828-0.20687-1.6464-0.42654-3.2402-0.65901-4.7814-0.43369-2.875-0.77293-4.9255-1.0178-6.1514-0.24483-1.2259-0.44347-1.9011-0.59589-2.0256-0.15245-0.12446-0.55652-0.16031-1.2122-0.10751l-0.7943 0.05068-0.17129-1.1356 1.5358-0.17637c0.9504-0.11569 1.705-0.21569 2.2638-0.29999 0.76606-0.11554 1.9967-0.32881 3.692-0.63986 0.91384-0.1747 1.5871-0.29468 2.0197-0.35996 1.6132-0.24334 2.8283-0.26991 3.6451-0.07974 0.8168 0.19021 1.4726 0.566 1.9675 1.1274 0.49485 0.5614 0.8123 1.3062 0.95234 2.2345 0.25285 1.6764-0.12798 3.1695-1.1425 4.4793-1.0146 1.3099-2.4366 2.1028-4.2662 2.3788-0.23434 0.03536-0.4849 0.05472-0.7517 0.05808-0.26681 0.00339-0.55367-0.00403-0.86061-0.02227-0.20215-0.30133-0.41196-0.59231-0.62942-0.8729l0.25995-0.3849c0.20507 0.01517 0.39301 0.02369 0.56384 0.02557 0.1708 0.00191 0.3238-0.00735 0.45899-0.02775 0.91028-0.13729 1.6066-0.56263 2.0889-1.276 0.48232-0.71337 0.63851-1.6334 0.46858-2.7599-0.18897-1.2527-0.62744-2.143-1.3154-2.6706-0.68796-0.52761-1.6088-0.70443-2.7624-0.53043-0.46866 0.07072-1.0089 0.21673-1.6208 0.43805 0.31958 2.7909 0.62484 5.1506 0.91577 7.0793 0.09788 0.64891 0.44593 2.7119 1.0442 6.1889 0.23504 1.3748 0.39974 2.1612 0.4941 2.3589 0.06817 0.14641 0.1701 0.24166 0.3058 0.28571 0.21322 0.06924 0.99289 0.0438 2.339-0.07629l0.1713 1.1356c-1.6048 0.17754-2.9524 0.34856-4.0429 0.51306-0.48668 0.0734-2.1312 0.35374-4.9337 0.84099zm16.451-3.7063c0.82052-0.25074 1.3127-0.46222 1.4766-0.63438 0.11071-0.12143 0.2351-0.50919 0.37315-1.1633 0.25398-1.284 0.54739-3.052 0.88022-5.3041l1.8398-12.671 1.9505-0.48446 9.5369 12.761c1.2376 1.6554 1.9691 2.5491 2.1944 2.681 0.22526 0.13189 0.81441 0.11233 1.7675-0.05863l0.27683 1.1146c-1.4573 0.2962-2.8272 0.60359-4.1098 0.92216-1.5303 0.3801-2.9778 0.77248-4.3423 1.1771l-0.27683-1.1146c1.0417-0.30568 1.635-0.51643 1.78-0.63228 0.14496-0.11582 0.19328-0.27106 0.14495-0.46566-0.04175-0.16806-0.37032-0.6969-0.98571-1.5865l-1.4393-2.0514c-1.1013 0.25474-2.3286 0.55021-3.682 0.88635-1.1765 0.2922-2.2446 0.56691-3.2044 0.82407l-0.20483 1.6709c-0.05597 0.45532-0.09678 1.1229-0.12244 2.0026-0.00695 0.19894 0.00826 0.37361 0.04561 0.52398 0.05054 0.20346 0.17248 0.32577 0.36585 0.36696 0.19337 0.0412 0.8362-0.02689 1.9285-0.20429l0.27683 1.1146c-0.88228 0.15338-1.9692 0.39046-3.2606 0.71124-1.2296 0.30539-2.1993 0.57912-2.9093 0.82121l-0.2999-1.2075zm5.5108-15.019-1.1091 7.5022c0.82479-0.1579 1.7281-0.35879 2.71-0.60266 1.0261-0.25486 2.0025-0.52084 2.9292-0.79798l-4.5302-6.1016zm16.019 10.81-0.38835-1.0808c0.96418-0.44331 1.5053-0.72975 1.6234-0.85937 0.07586-0.08535 0.1152-0.19151 0.11803-0.31842 0.0118-0.23667-0.17782-0.95305-0.56885-2.1491-0.6167-1.851-1.1146-3.3041-1.4937-4.3591-0.51165-1.4239-1.1791-3.2276-2.0025-5.4111-0.623-1.626-1.0651-2.6003-1.3263-2.9229-0.07438-0.09916-0.17382-0.16029-0.29833-0.18336-0.16807-0.03644-0.75523 0.068-1.7615 0.31333l-0.38836-1.0808c1.8002-0.56937 2.9577-0.94653 3.4723-1.1315l6.4045-2.4321c1.3982-0.50236 2.4653-0.73329 3.2014-0.69273 0.73611 0.04058 1.3978 0.29191 1.9852 0.75396 0.58733 0.4621 1.0259 1.0963 1.3156 1.9026 0.36985 1.0294 0.39618 2.0392 0.07898 3.0297-0.31722 0.9905-1.1056 2.051-2.3652 3.1816l4.2246 3.1454 3.2732 2.3977c0.58806 0.36979 1 0.57286 1.2358 0.60919 0.2358 0.03634 0.57826-0.02136 1.0274-0.17306l0.35599 0.99071-0.7545 0.28565c-2.1726 0.80003-3.5658 1.3297-4.1796 1.589-1.1747-0.92414-2.9108-2.2518-5.2084-3.9831l-4.0976-3.0748c0.02479-0.17355 0.03364-0.35107 0.02655-0.53255 0.35851-0.08038 0.61926-0.14987 0.78224-0.20844 0.79771-0.28662 1.467-0.89031 2.0078-1.811 0.54081-0.92072 0.59701-1.9772 0.16859-3.1695-0.37295-1.0379-0.96718-1.7348-1.7827-2.0906-0.81552-0.35584-1.8323-0.31493-3.0503 0.12271-0.386 0.13873-0.89845 0.35676-1.5374 0.6541l1.2738 3.828 1.6133 4.8537c0.39143 1.0894 0.93518 2.4678 1.6312 4.1354 0.52786 1.2534 0.85384 1.945 0.97795 2.0747 0.09153 0.093 0.21825 0.14918 0.38015 0.16847 0.21711 0.03822 0.82813-0.09417 1.8331-0.39717l0.38835 1.0808c-1.5656 0.49475-2.9445 0.95633-4.1368 1.3848-1.2695 0.45616-2.6226 0.97625-4.0592 1.5602zm18.396-7.9784c0.75304-0.41118 1.1924-0.71763 1.3182-0.91933 0.08393-0.14125 0.12751-0.54615 0.13071-1.2147-0.01037-1.3088-0.07982-3.0997-0.20834-5.3726l-0.75511-12.781 1.8126-0.86812 11.916 10.574c1.5462 1.3716 2.443 2.0993 2.6902 2.183 0.24725 0.08371 0.82033-0.05433 1.7193-0.41412l0.49607 1.0358c-1.3675 0.58422-2.6472 1.1618-3.8392 1.7326-1.4222 0.68113-2.7606 1.3575-4.0154 2.0293l-0.49607-1.0358c0.95853-0.5096 1.4971-0.83576 1.6157-0.97848 0.11859-0.14271 0.1346-0.30448 0.048-0.48534-0.07482-0.15618-0.50337-0.60783-1.2856-1.355l-1.8237-1.7188c-1.0272 0.47177-2.1697 1.0088-3.4274 1.6112-1.0933 0.52365-2.0841 1.0082-2.9722 1.4538l0.1366 1.6779c0.03707 0.45725 0.13181 1.1193 0.28423 1.9861 0.03336 0.19626 0.0835 0.36427 0.15042 0.50401 0.09056 0.18907 0.23469 0.28426 0.43239 0.28559 0.1977 0.00131 0.81356-0.1951 1.8476-0.58929l0.49607 1.0358c-0.83316 0.32829-1.8498 0.77984-3.05 1.3546-1.1426 0.54727-2.0372 1.0111-2.6837 1.3914l-0.5374-1.1221zm2.3664-15.822 0.42782 7.5717c0.77595-0.3211 1.6202-0.70017 2.5326-1.1372 0.95356-0.45669 1.8562-0.91426 2.7079-1.3727l-5.6683-5.0618zm17.79 7.2232-0.57627-0.99339c1.056-0.68634 1.6183-1.1337 1.6871-1.3422 0.06874-0.20845-0.0252-0.57019-0.2818-1.0852-0.54852-1.0727-1.646-3.0282-3.2925-5.8664-0.63116-1.088-1.5616-2.6556-2.7915-4.703-0.83443-1.4021-1.3153-2.1584-1.4427-2.2689-0.12733-0.11051-0.26842-0.16301-0.42328-0.15749-0.22375 0.01391-0.86638 0.2866-1.9279 0.81807l-0.57627-0.99337c1.6607-0.87907 2.9207-1.5679 3.7801-2.0664 1.4822-0.8598 2.8042-1.6689 3.966-2.4271l0.57627 0.9934c-1.0356 0.68509-1.5916 1.1209-1.6678 1.3073-0.07622 0.1865-0.02199 0.48432 0.1627 0.89349 0.3681 0.79804 1.2222 2.3521 2.5622 4.6621 1.7837 3.0748 3.0384 5.2104 3.7641 6.4069s1.214 1.8747 1.4649 2.0348c0.10676 0.07506 0.25416 0.09755 0.4422 0.0675 0.18804-0.03004 0.76946-0.28566 1.7442-0.76685l0.57627 0.99339-1.4161 0.77404c-0.9013 0.4807-1.6989 0.92229-2.3926 1.3248l-3.9374 2.3947zm-8.1146-19.001-1.1708 0.67917 1.2069-4.2406c0.28519-0.99784 0.50239-1.627 0.65161-1.8874 0.14924-0.26042 0.34606-0.46153 0.59046-0.60332 0.2996-0.17378 0.59349-0.22573 0.88166-0.15584 0.28819 0.06995 0.51002 0.23892 0.66552 0.50695 0.13722 0.23656 0.17697 0.48218 0.11927 0.73691-0.05769 0.25477-0.36907 0.83057-0.93416 1.7274l-2.0105 3.2369zm15.13 8.2288 0.99759-0.67256c0.76164 1.1134 1.2395 1.7448 1.4337 1.8942 0.19416 0.14943 0.58212 0.25611 1.1639 0.32009 0.58175 0.06397 1.2336-0.0045 1.9556-0.20542 0.72195-0.20092 1.3928-0.51027 2.0125-0.92809 1.0656-0.71839 1.7266-1.5763 1.9831-2.5736 0.25646-0.99734 0.09938-1.9192-0.47126-2.7657-0.5248-0.7784-1.1389-1.2328-1.8424-1.3631-0.71101-0.12523-1.7259 0.1303-3.0448 0.76658-1.9568 0.9455-3.3488 1.4773-4.1762 1.5953-0.82729 0.11805-1.6242-0.00422-2.3908-0.3668-0.76659-0.36257-1.4352-0.96708-2.0059-1.8136-0.95788-1.4208-1.2686-2.9619-0.93213-4.6232 0.33646-1.6613 1.6043-3.2333 3.8035-4.716 0.86156-0.58081 1.6701-1.0324 2.4255-1.3549 0.75546-0.32241 1.5688-0.563 2.4402-0.72174l0.29679 0.19564c0.20007 0.55767 0.40547 1.0458 0.61619 1.4643 0.21073 0.41857 0.61564 1.1129 1.2147 2.0831l-0.98625 0.66493c-0.82243-1.1384-1.3198-1.7539-1.4922-1.8465-0.31173-0.15258-0.85343-0.16936-1.6251-0.05036-0.77168 0.11905-1.5354 0.4333-2.2911 0.94281-1.0354 0.69803-1.669 1.4907-1.9007 2.3779-0.23177 0.88728-0.08015 1.7277 0.45482 2.5212 0.32609 0.4837 0.72728 0.82605 1.2036 1.0271 0.4763 0.20104 0.98149 0.24519 1.5156 0.13244 0.53408-0.11271 1.5665-0.52569 3.0973-1.239 1.3819-0.65683 2.357-1.0449 2.9251-1.1641 0.93179-0.19948 1.7904-0.12428 2.5759 0.22553 0.78546 0.34987 1.489 0.9858 2.1106 1.9078 1.0802 1.6022 1.366 3.3469 0.85757 5.2341-0.50847 1.8872-1.8245 3.5467-3.9482 4.9784-0.9447 0.63688-1.8636 1.1245-2.7568 1.4628-0.89314 0.33833-1.8917 0.57734-2.9957 0.71703-0.22063-0.62073-0.45347-1.1618-0.69855-1.6231-0.34205-0.63779-0.85067-1.4656-1.5259-2.4834zm24.955-10.685c-2.594 2.1408-5.1296 3.1137-7.6068 2.9187-2.4772-0.19498-4.6789-1.4594-6.6051-3.7933-1.346-1.6309-2.1564-3.2931-2.4314-4.9866-0.27495-1.6934-0.07255-3.3348 0.60721-4.924 0.67976-1.5891 1.9511-3.1524 3.8139-4.6899 1.7926-1.4794 3.5005-2.3956 5.1237-2.7485 1.6232-0.35286 3.1732-0.26117 4.6498 0.27508 1.4766 0.53628 2.8415 1.5636 4.0947 3.082 1.3576 1.645 2.1935 3.3452 2.5079 5.1007 0.31432 1.7555 0.12938 3.4681-0.55484 5.1378-0.68423 1.6697-1.884 3.2123-3.5992 4.6279zm-0.54788-1.48c1.413-1.1661 2.1087-2.6178 2.0872-4.355-0.02151-1.7372-0.91122-3.6708-2.6691-5.8008-1.8449-2.2354-3.7421-3.5532-5.6914-3.9535-1.5751-0.31907-3.1746 0.19148-4.7985 1.5316-1.5184 1.2532-2.2793 2.7261-2.2827 4.4188-0.00338 1.6928 0.85648 3.583 2.5796 5.6708 1.2416 1.5044 2.5216 2.5899 3.84 3.2567 1.3185 0.66681 2.521 0.93888 3.6074 0.81626 1.0865-0.12261 2.1956-0.65096 3.3274-1.585z" fill="#eac102"/>
<g transform="matrix(.39375 0 0 .39375 335.52 97.942)">
<g transform="translate(-79.805 -50.166)" stroke="#000">
<path d="m372.38 215.47c-33.477 0-61.71 0.85545-85.505 2.3426-4.7591 0.29746-9.3534 0.62872-13.765 0.97243-52.913 4.1249-81.285 11.417-96.489 18.078-1.2673 0.55521-2.4689 1.0912-3.5599 1.6354-5.4371 2.7152-8.7809 5.3146-10.815 7.4257-0.40015 0.41529-0.74465 0.81417-1.051 1.1934-0.31782 0.39332-0.58314 0.75504-0.8137 1.105-1.3596 2.0622-1.3222 3.315-1.3222 3.315l11.561 54.764h37.802 327.92 37.802l11.561-54.764s0.03733-1.2528-1.3223-3.315c-0.23051-0.34996-0.49588-0.71168-0.81364-1.105-1.8602-2.3097-5.3397-5.3599-11.866-8.6191-0.00934-0.00462-0.02474 0.00462-0.03396 0-14.181-7.0731-42.692-15.245-100.02-19.713-0.01082-8.5e-4 -0.02313 8.5e-4 -0.03383 0-4.4114-0.34371-8.972-0.67497-13.731-0.97243-23.796-1.4872-52.026-2.3426-85.505-2.3426z" fill="#eac102" fill-rule="evenodd"/>
<g>
<g transform="matrix(5.7254 0 0 5.938 110.17 49.184)" fill="#eac102" fill-rule="evenodd" stroke-width=".1715">
<path d="m29.522 2.5219 0.8946-1.0224 4.7286-0.5112 1.1502 9.585-2.1726-0.1278-0.5112-7.5402-4.0896-0.3834z"/>
<path d="m33.228 3.1609 2.0448-1.917"/>
</g>
<path d="m275.24 201.16c-3.5712 0.10903-7.1431 0.19123-10.715 0.2849l-1.6413 56.188c7.8e-4 0.02083 0.01688 0.03716 0.03611 0.0366l14.409-0.41522c0.01923-5.5e-4 0.03408-0.01778 0.0333-0.03861l-2.0862-56.019c-7.8e-4 -0.02084-0.01688-0.03717-0.03611-0.03662z" fill="#eac102"/>
<g transform="matrix(5.7254 0 0 5.938 62.241 54.876)" fill="#eac102" fill-rule="evenodd" stroke-width=".1715">
<path d="m46.902 0.86052 1.0835-1.2784 4.0285-0.25517 0.039584 15.719-3.6723 2.1303 2.7109 15.933-4.3113 0.1278-0.92513-17.468 1.0462-14.908z"/>
<path d="m52.142-0.67308-2.2122 1.7896"/>
<path d="m52.07 15.062-1.653-0.079474"/>
</g>
<path d="m338.46 195.25c3.5541-0.37758 7.1056-0.78189 10.658-1.1748l8.7315 55.48c0.00186 0.02077-0.01204 0.03914-0.03118 0.04121l-14.337 1.548c-0.01913 0.00206-0.03604-0.01298-0.0379-0.03375l-5.0149-55.819c-0.00187-0.02076 0.01203-0.03914 0.03116-0.04121z" fill="#eac102"/>
<g transform="matrix(5.7254 0 0 5.938 62.241 54.876)" fill="#eac102" fill-rule="evenodd" stroke-width=".1715">
<path d="m29.522 2.5219 0.8946-1.0224 3.4506-0.3834 2.4282 9.4572-2.1726 0.3834-1.917-7.7958-2.6838-0.639z"/>
<path d="m32.333 3.5443 1.7892-2.4282"/>
</g>
<path d="m230.81 68.548 10.545 86.909 26.577 5.8538 7.1617 96.261 65.339-4.5811-9.9601-98.516 20.633-11.019 1.0585-85.907-21.915 1.9257-4.968 49.05-14.563 1.88-4.5515-49.607-26.301 3.0803 1.1639 48.796-17.049 2.8075-10.3-49.187-22.871 2.2531z" fill="#eac102" fill-rule="evenodd"/>
<path d="m236.62 119.42 27.587-3.9069" fill="#eac102" fill-rule="evenodd"/>
<path d="m280.94 113.06 30.602-2.5849" fill="#eac102" fill-rule="evenodd"/>
<path d="m324.67 108.11 27.526-2.4669" fill="#eac102" fill-rule="evenodd"/>
<path d="m267.75 160.33 62.745-5.7187" fill="#eac102" fill-rule="evenodd"/>
<path d="m272.48 114.56 2.7139 36.818" fill="#eac102" fill-rule="evenodd"/>
<path d="m319.62 109.21 1.9113 37.534" fill="#eac102" fill-rule="evenodd"/>
<path d="m297.55 158.7 1.9097 32.572" fill="#eac102" fill-rule="evenodd"/>
<g transform="matrix(2.1163 -.27714 .051713 2.7359 30.036 234.86)" fill="#eac102" fill-rule="evenodd" stroke-width=".41507">
<path d="m120.73 20.062v-17.712c0.51435-3.2516 1.8636-5.2931 5.0606-6.145 5.8728-1.0427 11.597 1.6459 11.386 6.145 0.39495 0.18401 0.73126 12.096 0.72295 17.893l-17.17-0.18074z"/>
<path d="m123.76 19.938v-15.145c0.32733-2.7803 1.1859-4.526 3.2205-5.2544 3.7373-0.89156 7.129 0.10057 7.246 5.2544 0.47932 0.51464 0.46536 10.343 0.46007 15.3l-10.927-0.15454z"/>
<path d="m124.53-3.434 1.6266 3.0725"/>
<path d="m120.6 1.8594 3.5468 1.3541"/>
<path d="m120.73 8.4946h3.0725"/>
<path d="m120.92 14.499 2.6988-0.040476"/>
<path d="m134.78 14.796 3.121 0.20478"/>
<path d="m134.65 8.4946 2.8918 0.18074"/>
<path d="m133.96 3.5706 3.0428-1.7632"/>
<path d="m131.76-0.18074 1.4459-2.8918"/>
</g>
<path d="m269.59 192 18.714 5.6961" fill="none"/>
<path d="m271.69 217.72 14.956 0.14454" fill="none"/>
<path d="m273.27 235.77 11.998-1.3087" fill="none"/>
<path d="m333.65 185.27-14.842 10.895" fill="none"/>
<path d="m336.28 213.89-13.676 1.1774" fill="none"/>
<path d="m337.98 231.73-15.554 0.8879" fill="none"/>
<path d="m241.34 155.2 109.69-11.242" fill="#eac102" fill-rule="evenodd"/>
<path d="m349.01 193.9 14.306 22.257-5.488-0.75696 1.6471 27.255-2.3212 0.82684-8.1436-49.583z" fill="#eac102" fill-rule="evenodd"/>
<path d="m330.41 154.69 8.9995 2.6733" fill="none"/>
</g>
<g transform="matrix(.98187 -.18954 .18954 .98187 -159.32 87.796)">
<g transform="matrix(5.7254 0 0 5.938 110.17 49.184)" fill="#eac102" fill-rule="evenodd" stroke-width=".1715">
<path d="m29.522 2.5219 0.8946-1.0224 4.7286-0.5112 1.1502 9.585-2.1726-0.1278-0.5112-7.5402-4.0896-0.3834z"/>
<path d="m33.228 3.1609 2.0448-1.917"/>
</g>
<g transform="matrix(5.7254 0 0 5.938 62.241 54.876)" fill="#eac102" fill-rule="evenodd" stroke-width=".1715">
<path d="m46.902 0.86052 1.0835-1.2784 4.0285-0.25517 0.039584 15.719-3.6723 2.1303 2.7109 15.933-4.3113 0.1278-0.92513-17.468 1.0462-14.908z"/>
<path d="m52.142-0.67308-2.2122 1.7896"/>
<path d="m52.07 15.062-1.653-0.079474"/>
</g>
<path d="m338.46 195.25c3.5541-0.37758 7.1056-0.78189 10.658-1.1748l8.7315 55.48c0.00186 0.02077-0.01204 0.03914-0.03118 0.04121l-14.337 1.548c-0.01913 0.00206-0.03604-0.01298-0.0379-0.03375l-5.0149-55.819c-0.00187-0.02076 0.01203-0.03914 0.03116-0.04121z" fill="#eac102"/>
<g transform="matrix(5.7254 0 0 5.938 62.241 54.876)" fill="#eac102" fill-rule="evenodd" stroke-width=".1715">
<path d="m29.522 2.5219 0.8946-1.0224 3.4506-0.3834 2.4282 9.4572-2.1726 0.3834-1.917-7.7958-2.6838-0.639z"/>
<path d="m32.333 3.5443 1.7892-2.4282"/>
</g>
<path d="m230.81 68.548 10.545 86.909 26.577 5.8538 7.1617 96.261 65.339-4.5811-9.9601-98.516 20.633-11.019 1.0585-85.907-21.915 1.9257-4.968 49.05-14.563 1.88-4.5515-49.607-26.301 3.0803 1.1639 48.796-17.049 2.8075-10.3-49.187-22.871 2.2531z" fill="#eac102" fill-rule="evenodd"/>
<path d="m236.62 119.42 27.587-3.9069" fill="#eac102" fill-rule="evenodd"/>
<path d="m280.94 113.06 30.602-2.5849" fill="#eac102" fill-rule="evenodd"/>
<path d="m324.67 108.11 27.526-2.4669" fill="#eac102" fill-rule="evenodd"/>
<path d="m267.75 160.33 62.745-5.7187" fill="#eac102" fill-rule="evenodd"/>
<path d="m272.48 114.56 2.7139 36.818" fill="#eac102" fill-rule="evenodd"/>
<path d="m319.62 109.21 1.9113 37.534" fill="#eac102" fill-rule="evenodd"/>
<path d="m297.55 158.7 1.9097 32.572" fill="#eac102" fill-rule="evenodd"/>
<g transform="matrix(2.1163 -.27714 .051713 2.7359 30.036 234.86)" fill="#eac102" fill-rule="evenodd" stroke-width=".41507">
<path d="m120.73 20.062v-17.712c0.51435-3.2516 1.8636-5.2931 5.0606-6.145 5.8728-1.0427 11.597 1.6459 11.386 6.145 0.39495 0.18401 0.73126 12.096 0.72295 17.893l-17.17-0.18074z"/>
<path d="m123.76 19.938v-15.145c0.32733-2.7803 1.1859-4.526 3.2205-5.2544 3.7373-0.89156 7.129 0.10057 7.246 5.2544 0.47932 0.51464 0.46536 10.343 0.46007 15.3l-10.927-0.15454z"/>
<path d="m124.53-3.434 1.6266 3.0725"/>
<path d="m120.6 1.8594 3.5468 1.3541"/>
<path d="m120.73 8.4946h3.0725"/>
<path d="m120.92 14.499 2.6988-0.040476"/>
<path d="m134.78 14.796 3.121 0.20478"/>
<path d="m134.65 8.4946 2.8918 0.18074"/>
<path d="m133.96 3.5706 3.0428-1.7632"/>
<path d="m131.76-0.18074 1.4459-2.8918"/>
</g>
<path d="m269.59 192 18.714 5.6961" fill="none"/>
<path d="m271.69 217.72 14.956 0.14454" fill="none"/>
<path d="m273.27 235.77 11.998-1.3087" fill="none"/>
<path d="m333.65 185.27-14.842 10.895" fill="none"/>
<path d="m336.28 213.89-13.676 1.1774" fill="none"/>
<path d="m337.98 231.73-15.554 0.8879" fill="none"/>
<path d="m241.34 155.2 109.69-11.242" fill="#eac102" fill-rule="evenodd"/>
<path d="m349.01 193.9 14.528 13.571-7.5676 2.479 3.5048 32.706-2.3212 0.82684-8.1436-49.583z" fill="#eac102" fill-rule="evenodd"/>
<path d="m330.41 154.69 8.9995 2.6733" fill="none"/>
</g>
<g transform="matrix(-.98187 -.18954 -.18954 .98187 900.42 86.869)">
<g transform="matrix(5.7254 0 0 5.938 110.17 49.184)" fill="#eac102" fill-rule="evenodd" stroke-width=".1715">
<path d="m29.522 2.5219 0.8946-1.0224 4.7286-0.5112 1.1502 9.585-2.1726-0.1278-0.5112-7.5402-4.0896-0.3834z"/>
<path d="m33.228 3.1609 2.0448-1.917"/>
</g>
<g transform="matrix(5.7254 0 0 5.938 62.241 54.876)" fill="#eac102" fill-rule="evenodd" stroke-width=".1715">
<path d="m46.902 0.86052 1.0835-1.2784 4.0285-0.25517 0.039584 15.719-3.6723 2.1303 2.7109 15.933-4.3113 0.1278-0.92513-17.468 1.0462-14.908z"/>
<path d="m52.142-0.67308-2.2122 1.7896"/>
<path d="m52.07 15.062-1.653-0.079474"/>
</g>
<path d="m338.46 195.25c3.5541-0.37758 7.1056-0.78189 10.658-1.1748l8.7315 55.48c0.00186 0.02077-0.01204 0.03914-0.03118 0.04121l-14.337 1.548c-0.01913 0.00206-0.03604-0.01298-0.0379-0.03375l-5.0149-55.819c-0.00187-0.02076 0.01203-0.03914 0.03116-0.04121z" fill="#eac102"/>
<g transform="matrix(5.7254 0 0 5.938 62.241 54.876)" fill="#eac102" fill-rule="evenodd" stroke-width=".1715">
<path d="m29.522 2.5219 0.8946-1.0224 3.4506-0.3834 2.4282 9.4572-2.1726 0.3834-1.917-7.7958-2.6838-0.639z"/>
<path d="m32.333 3.5443 1.7892-2.4282"/>
</g>
<path d="m230.81 68.548 10.545 86.909 26.577 5.8538 7.1617 96.261 65.339-4.5811-9.9601-98.516 20.633-11.019 1.0585-85.907-21.915 1.9257-4.968 49.05-14.563 1.88-4.5515-49.607-26.301 3.0803 1.1639 48.796-17.049 2.8075-10.3-49.187-22.871 2.2531z" fill="#eac102" fill-rule="evenodd"/>
<path d="m236.62 119.42 27.587-3.9069" fill="#eac102" fill-rule="evenodd"/>
<path d="m280.94 113.06 30.602-2.5849" fill="#eac102" fill-rule="evenodd"/>
<path d="m324.67 108.11 27.526-2.4669" fill="#eac102" fill-rule="evenodd"/>
<path d="m267.75 160.33 62.745-5.7187" fill="#eac102" fill-rule="evenodd"/>
<path d="m272.48 114.56 2.7139 36.818" fill="#eac102" fill-rule="evenodd"/>
<path d="m319.62 109.21 1.9113 37.534" fill="#eac102" fill-rule="evenodd"/>
<path d="m297.55 158.7 1.9097 32.572" fill="#eac102" fill-rule="evenodd"/>
<g transform="matrix(2.1163 -.27714 .051713 2.7359 30.036 234.86)" fill="#eac102" fill-rule="evenodd" stroke-width=".41507">
<path d="m120.73 20.062v-17.712c0.51435-3.2516 1.8636-5.2931 5.0606-6.145 5.8728-1.0427 11.597 1.6459 11.386 6.145 0.39495 0.18401 0.73126 12.096 0.72295 17.893l-17.17-0.18074z"/>
<path d="m123.76 19.938v-15.145c0.32733-2.7803 1.1859-4.526 3.2205-5.2544 3.7373-0.89156 7.129 0.10057 7.246 5.2544 0.47932 0.51464 0.46536 10.343 0.46007 15.3l-10.927-0.15454z"/>
<path d="m124.53-3.434 1.6266 3.0725"/>
<path d="m120.6 1.8594 3.5468 1.3541"/>
<path d="m120.73 8.4946h3.0725"/>
<path d="m120.92 14.499 2.6988-0.040476"/>
<path d="m134.78 14.796 3.121 0.20478"/>
<path d="m134.65 8.4946 2.8918 0.18074"/>
<path d="m133.96 3.5706 3.0428-1.7632"/>
<path d="m131.76-0.18074 1.4459-2.8918"/>
</g>
<path d="m269.59 192 18.714 5.6961" fill="none"/>
<path d="m271.69 217.72 14.956 0.14454" fill="none"/>
<path d="m273.27 235.77 11.998-1.3087" fill="none"/>
<path d="m333.65 185.27-14.842 10.895" fill="none"/>
<path d="m336.28 213.89-13.676 1.1774" fill="none"/>
<path d="m337.98 231.73-15.554 0.8879" fill="none"/>
<path d="m241.34 155.2 109.69-11.242" fill="#eac102" fill-rule="evenodd"/>
<path d="m349.01 193.9 14.528 13.571-7.5676 2.479 3.5048 32.706-2.3212 0.82684-8.1436-49.583z" fill="#eac102" fill-rule="evenodd"/>
<path d="m330.41 154.69 8.9995 2.6733" fill="none"/>
</g>
<g transform="matrix(-1 0 0 1 739.67 -.2133)">
<g transform="matrix(5.7254 0 0 5.938 110.17 49.184)" fill="#eac102" fill-rule="evenodd" stroke-width=".1715">
<path d="m29.522 2.5219 0.8946-1.0224 4.7286-0.5112 1.1502 9.585-2.1726-0.1278-0.5112-7.5402-4.0896-0.3834z"/>
<path d="m33.228 3.1609 2.0448-1.917"/>
</g>
<path d="m275.24 201.16c-3.5712 0.10903-7.1431 0.19123-10.715 0.2849l-1.6413 56.188c7.8e-4 0.02083 0.01688 0.03716 0.03611 0.0366l14.409-0.41522c0.01923-5.5e-4 0.03408-0.01778 0.0333-0.03861l-2.0862-56.019c-7.8e-4 -0.02084-0.01688-0.03717-0.03611-0.03662z" fill="#eac102"/>
<g transform="matrix(5.7254 0 0 5.938 62.241 54.876)" fill="#eac102" fill-rule="evenodd" stroke-width=".1715">
<path d="m46.902 0.86052 1.0835-1.2784 4.0285-0.25517 0.039584 15.719-3.6723 2.1303 2.7109 15.933-4.3113 0.1278-0.92513-17.468 1.0462-14.908z"/>
<path d="m52.142-0.67308-2.2122 1.7896"/>
<path d="m52.07 15.062-1.653-0.079474"/>
</g>
<path d="m338.46 195.25c3.5541-0.37758 7.1056-0.78189 10.658-1.1748l8.7315 55.48c0.00186 0.02077-0.01204 0.03914-0.03118 0.04121l-14.337 1.548c-0.01913 0.00206-0.03604-0.01298-0.0379-0.03375l-5.0149-55.819c-0.00187-0.02076 0.01203-0.03914 0.03116-0.04121z" fill="#eac102"/>
<g transform="matrix(5.7254 0 0 5.938 62.241 54.876)" fill="#eac102" fill-rule="evenodd" stroke-width=".1715">
<path d="m29.522 2.5219 0.8946-1.0224 3.4506-0.3834 2.4282 9.4572-2.1726 0.3834-1.917-7.7958-2.6838-0.639z"/>
<path d="m32.333 3.5443 1.7892-2.4282"/>
</g>
<path d="m230.81 68.548 10.545 86.909 26.577 5.8538 7.1617 96.261 65.339-4.5811-9.9601-98.516 20.633-11.019 1.0585-85.907-21.915 1.9257-4.968 49.05-14.563 1.88-4.5515-49.607-26.301 3.0803 1.1639 48.796-17.049 2.8075-10.3-49.187-22.871 2.2531z" fill="#eac102" fill-rule="evenodd"/>
<path d="m236.62 119.42 27.587-3.9069" fill="#eac102" fill-rule="evenodd"/>
<path d="m280.94 113.06 30.602-2.5849" fill="#eac102" fill-rule="evenodd"/>
<path d="m324.67 108.11 27.526-2.4669" fill="#eac102" fill-rule="evenodd"/>
<path d="m267.75 160.33 62.745-5.7187" fill="#eac102" fill-rule="evenodd"/>
<path d="m272.48 114.56 2.7139 36.818" fill="#eac102" fill-rule="evenodd"/>
<path d="m319.62 109.21 1.9113 37.534" fill="#eac102" fill-rule="evenodd"/>
<path d="m297.55 158.7 1.9097 32.572" fill="#eac102" fill-rule="evenodd"/>
<g transform="matrix(2.1163 -.27714 .051713 2.7359 30.036 234.86)" fill="#eac102" fill-rule="evenodd" stroke-width=".41507">
<path d="m120.73 20.062v-17.712c0.51435-3.2516 1.8636-5.2931 5.0606-6.145 5.8728-1.0427 11.597 1.6459 11.386 6.145 0.39495 0.18401 0.73126 12.096 0.72295 17.893l-17.17-0.18074z"/>
<path d="m123.76 19.938v-15.145c0.32733-2.7803 1.1859-4.526 3.2205-5.2544 3.7373-0.89156 7.129 0.10057 7.246 5.2544 0.47932 0.51464 0.46536 10.343 0.46007 15.3l-10.927-0.15454z"/>
<path d="m124.53-3.434 1.6266 3.0725"/>
<path d="m120.6 1.8594 3.5468 1.3541"/>
<path d="m120.73 8.4946h3.0725"/>
<path d="m120.92 14.499 2.6988-0.040476"/>
<path d="m134.78 14.796 3.121 0.20478"/>
<path d="m134.65 8.4946 2.8918 0.18074"/>
<path d="m133.96 3.5706 3.0428-1.7632"/>
<path d="m131.76-0.18074 1.4459-2.8918"/>
</g>
<path d="m269.59 192 18.714 5.6961" fill="none"/>
<path d="m271.69 217.72 14.956 0.14454" fill="none"/>
<path d="m273.27 235.77 11.998-1.3087" fill="none"/>
<path d="m333.65 185.27-14.842 10.895" fill="none"/>
<path d="m336.28 213.89-13.676 1.1774" fill="none"/>
<path d="m337.98 231.73-15.554 0.8879" fill="none"/>
<path d="m241.34 155.2 109.69-11.242" fill="#eac102" fill-rule="evenodd"/>
<path d="m349.01 193.9 14.306 22.257-5.488-0.75696 1.6471 27.255-2.3212 0.82684-8.1436-49.583z" fill="#eac102" fill-rule="evenodd"/>
<path d="m330.41 154.69 8.9995 2.6733" fill="none"/>
</g>
<g transform="matrix(5.7254 0 0 5.938 57.041 54.876)">
<path d="m54.911 31.729c-10.728 0.14172-21.578 0.15493-32.114 2.9979-2.3511 0.93872-5.7124 1.4629-6.5949 4.7879-0.28952 2.7772 2.3687 3.9542 4.0292 4.7175 7.9101 3.0037 16.268 3.258 24.464 3.7275 12.751 0.32355 25.584 0.4549 38.24-1.7881 3.4576-0.84491 7.2649-1.3664 10.108-4.2129 1.6978-2.1037-0.18151-5.0453-2.0583-5.6503-6.4383-3.125-13.461-3.4604-20.27-4.0966-5.2628-0.3633-10.535-0.47828-15.805-0.4829z" fill="#eac102" fill-rule="evenodd" stroke-width=".16564"/>
<path d="m54.944 35.143c-5.8471 0-10.778 0.14406-14.934 0.39451-0.83123 0.050093-1.6337 0.10588-2.4042 0.16376-9.2417 0.69466-14.197 1.9227-16.853 3.0445-0.22134 0.093501-0.43122 0.18377-0.62177 0.27542-0.94964 0.45725-1.5337 0.89502-1.889 1.2505-0.069886 0.069938-0.13006 0.13711-0.18357 0.20098-0.055507 0.066239-0.10184 0.12716-0.14212 0.18609-0.23746 0.34729-0.23093 0.55827-0.23093 0.55827l2.0192 9.2227h6.6025 57.273 6.6025l2.0192-9.2227s0.00652-0.21098-0.23095-0.55827c-0.040266-0.058936-0.086614-0.11985-0.14212-0.18609-0.3249-0.38897-0.93261-0.90264-2.0725-1.4515-0.00163-7.77e-4 -0.004321 7.79e-4 -0.005932 0-2.4769-1.1912-7.4566-2.5673-17.469-3.3199-0.001894-1.44e-4 -0.004036 1.43e-4 -0.005911 0-0.77048-0.057883-1.567-0.11367-2.3982-0.16376-4.1561-0.25045-9.0867-0.39451-14.934-0.39451z" fill="#eac102" fill-rule="evenodd" stroke-width=".16564"/>
<g transform="matrix(.18941 0 0 .25383 120.5 -109.22)">
<path d="m-518.58 630.12s37.062-17.868 171.52-17.868c134.02 0 171.52 17.868 171.52 17.868s-31.347 17.868-171.52 17.868c-140.62 0-171.52-17.868-171.52-17.868z" fill="#eac102" fill-rule="evenodd" stroke-width="1px"/>
<path d="m-390.72 650.84v-41.341" fill="none" stroke-width=".52008"/>
<path d="m-398.6 650.84v-41.341" fill="none" stroke-width=".76568"/>
<path d="m-406.04 650.84v-41.341" fill="none" stroke-width="1.0257"/>
<path d="m-413.41 650.84v-41.341" fill="none" stroke-width="1.2858"/>
<path d="m-419.99 650.84v-41.341" fill="none" stroke-width="1.5458"/>
<path d="m-432.52 648.61-0.17363-37.627m6.116 38.122v-39.358" fill="none" stroke-width="1.8059"/>
<path d="m-444.09 646.92v-34.667m5.8631 35.657-0.17363-36.892" fill="none" stroke-width="2.0514"/>
<path d="m-459.62 644.94v-30.458m5.0941 30.953v-31.943m5.248 32.933v-33.182" fill="none" stroke-width="2.3115"/>
<path d="m-465.06 644.69v-29.465" fill="none" stroke-width="2.5715"/>
<path d="m-470.14 643.2v-27.485" fill="none" stroke-width="2.8316"/>
<path d="m-475.58 642.46v-25.505" fill="none" stroke-width="3.0916"/>
<path d="m-486.72 640.23-0.1737-20.306m5.8829 21.296v-22.781" fill="none" stroke-width="3.3372"/>
<path d="m-492.43 638.5v-17.832" fill="none" stroke-width="3.525"/>
<path d="m-497.66 637.05v-14.849" fill="none" stroke-width="3.785"/>
<path d="m-503.36 635.07v-11.63" fill="none" stroke-width="4.0307"/>
<path d="m-509.23 634.08v-8.6602" fill="none" stroke-width="4.2763"/>
<path d="m-515.44 632.11v-4.2085" fill="none" stroke-width="5.0419"/>
<path d="m-359.36 648.61v-37.873m-13.353 39.112 0.17354-40.102m-9.9057 40.597v-40.846" fill="none" stroke-width=".26004"/>
<path d="m-303.4 650.84v-41.341" fill="none" stroke-width=".52008"/>
<path d="m-295.52 650.84v-41.341" fill="none" stroke-width=".76568"/>
<path d="m-288.08 650.84v-41.341" fill="none" stroke-width="1.0257"/>
<path d="m-280.7 650.84v-41.341" fill="none" stroke-width="1.2858"/>
<path d="m-274.13 650.84v-41.341" fill="none" stroke-width="1.5458"/>
<path d="m-261.6 648.61 0.17363-37.627m-6.1161 38.122v-39.358" fill="none" stroke-width="1.8059"/>
<path d="m-250.02 646.92v-34.667m-5.863 35.657 0.17354-36.892" fill="none" stroke-width="2.0514"/>
<path d="m-234.5 644.94v-30.458m-5.0942 30.953v-31.943m-5.248 32.933v-33.182" fill="none" stroke-width="2.3115"/>
<path d="m-229.06 644.69v-29.465" fill="none" stroke-width="2.5715"/>
<path d="m-223.98 643.2v-27.485" fill="none" stroke-width="2.8316"/>
<path d="m-218.54 642.46v-25.505" fill="none" stroke-width="3.0916"/>
<path d="m-207.4 640.23 0.17372-20.306m-5.8829 21.296v-22.781" fill="none" stroke-width="3.3372"/>
<path d="m-201.69 638.5v-17.832" fill="none" stroke-width="3.525"/>
<path d="m-196.46 637.05v-14.849" fill="none" stroke-width="3.785"/>
<path d="m-190.75 635.07v-11.63" fill="none" stroke-width="4.0307"/>
<path d="m-184.89 634.08v-8.6602" fill="none" stroke-width="4.2763"/>
<path d="m-178.67 632.11v-4.2085" fill="none" stroke-width="5.0419"/>
<path d="m-334.76 648.61v-37.873m13.353 39.112-0.17354-40.102m9.9056 40.597v-40.846" fill="none" stroke-width=".26004"/>
<path d="m-347.21 599.98c-52.175 0.52021-104.94 0.57554-156.18 11.011-11.435 3.4458-27.791 5.3639-32.084 17.569-1.4082 10.194 11.508 14.521 19.584 17.323 38.472 11.026 79.141 11.966 119 13.689 62.016 1.1877 124.41 1.6484 185.96-6.585 16.817-3.1014 35.333-5.0162 49.162-15.465 8.2573-7.7221-0.86558-18.518-9.9937-20.739-31.314-11.471-65.465-12.692-98.584-15.028-25.596-1.3336-51.237-1.7591-76.868-1.776zm0.14405 12.268c134.02 2e-5 171.54 17.87 171.54 17.87-9e-5 -1e-5 -31.358 17.87-171.54 17.87-140.62 0-171.51-17.87-171.51-17.87 0-1e-5 37.043-17.87 171.51-17.87z" fill="#eac102" fill-rule="evenodd" stroke-width="1px"/>
</g>
</g>
<path d="m579.15 326.87s0.0363-1.253-1.286-3.3155c-0.22421-0.35002-0.48225-0.71179-0.79131-1.1052-1.8092-2.31-5.1933-5.3607-11.541-8.6204-0.00905-0.00461-0.02399 0.00463-0.03298 0-13.793-7.0741-41.522-15.247-97.274-19.716-0.01048-8.6e-4 -0.02244 8.4e-4 -0.03292 0-4.2905-0.34377-8.726-0.67508-13.355-0.97258-23.144-1.4874-50.6-2.343-83.161-2.343-32.56 0-60.018 0.85558-83.161 2.343-4.6286 0.2975-9.097 0.62881-13.388 0.97258-51.462 4.1255-79.057 11.419-93.845 18.081-1.2326 0.55529-2.4013 1.0914-3.4624 1.6357-5.2881 2.7156-8.5402 5.3154-10.519 7.4268-0.38922 0.41535-0.72433 0.81429-1.0222 1.1936-0.30911 0.39338-0.56716 0.75515-0.79142 1.1052-1.3224 2.0625-1.2859 3.3155-1.2859 3.3155" fill="none"/>
<path d="m206.29 304.31c2.9505 19.788 4.4258 19.788 4.4258 19.788" fill="none"/>
<path d="m269.21 293.68 2.6117 20.951" fill="none"/>
<path d="m333.63 290.68 1.4634 20.869" fill="none"/>
<path d="m401.68 290.68-0.73171 19.731" fill="none"/>
<path d="m463.87 293.72-1.4634 21.248" fill="none"/>
<path d="m525.96 301.69-5.4878 20.869" fill="none"/>
<path d="m163.87 291.44 11.342 20.869 22.683-7.9682-2.9268-25.802-20.488 7.2093-10.61 5.6916z" fill="none"/>
<path d="m189.11 280.44 5.8537 24.663" fill="none"/>
<path d="m166.8 296 23.781-9.8654" fill="none"/>
<path d="m169.72 302.83 22.683-8.3476" fill="none"/>
<path d="m173.75 308.9 20.122-6.8299" fill="none"/>
<path d="m220.53 273.87 6.7189 22.92 23.808-2.689 2.5256-25.847-21.507 2.4408-11.546 3.1758z" fill="none"/>
<path d="m247.47 268.79 0.56939 25.393" fill="none"/>
<path d="m222.44 278.97 25.276-4.295" fill="none"/>
<path d="m223.87 286.3 23.887-3.0595" fill="none"/>
<path d="m226.53 293.13 21.07-2.1524" fill="none"/>
<path d="m281.41 267.51 5.232 23.333 23.928-1.0385 4.1799-25.615-21.616 0.94976-11.724 2.3711z" fill="none"/>
<path d="m309.02 265.43-0.35469 24.593" fill="none"/>
<path d="m282.99 272.73 25.495-2.5395" fill="none"/>
<path d="m283.95 280.14 24.031-1.4026" fill="none"/>
<path d="m286.16 287.14 22.99-0.75291" fill="none"/>
<path d="m347.99 264.38 5.7397 24.431 27.229 0.43027 6.0049-25.222-21.624-0.71989-17.35 1.081z" fill="none"/>
<path d="m380.84 263.66-2.8791 25.223" fill="none"/>
<path d="m354.68 270.09 25.607-0.56628" fill="none"/>
<path d="m355.1 277.55 24.065 0.45449" fill="none"/>
<path d="m356.81 284.7 21.153 0.94175" fill="none"/>
<path d="m353.77 263.65 2.8791 25.223" fill="none"/>
<path d="m573.7 290.08-11.342 20.869-22.683-7.9682 2.9268-25.802 20.488 7.2093 10.61 5.6916z" fill="none"/>
<path d="m548.46 279.08-5.8537 24.663" fill="none"/>
<path d="m570.78 294.63-23.781-9.8654" fill="none"/>
<path d="m567.85 301.46-22.683-8.3476" fill="none"/>
<path d="m563.82 307.53-20.122-6.8299" fill="none"/>
<path d="m517.04 272.51-6.7189 22.92-23.808-2.689-2.5256-25.847 21.507 2.4408 11.546 3.1758z" fill="none"/>
<path d="m490.1 267.43-0.56939 25.393" fill="none"/>
<path d="m515.13 277.61-25.276-4.295" fill="none"/>
<path d="m513.7 284.93-23.887-3.0595" fill="none"/>
<path d="m511.04 291.76-21.07-2.1524" fill="none"/>
<path d="m456.16 266.15-5.232 23.333-23.928-1.0385-4.1799-25.615 21.616 0.94976 11.724 2.3711z" fill="none"/>
<path d="m428.55 264.07 0.35469 24.593" fill="none"/>
<path d="m454.59 271.37-25.495-2.5395" fill="none"/>
<path d="m453.63 278.78-24.031-1.4026" fill="none"/>
<path d="m451.41 285.78-22.99-0.75292" fill="none"/>
</g>
<path d="m43.025 310.61c0.20355 120.28-0.40966 240.57 0.31112 360.84 3.8332 107.94 86.48 206.52 192.02 229.32 97.636 23.777 206.94-18.953 262.05-103.22 33.005-47.127 45.16-105.45 42.438-162.22v-324.71h-496.81z" fill="#eac102" fill-rule="evenodd"/>
<path d="m291.59 832.7c103.29 0 186.46-83.177 186.46-186.46v-261.05h-186.46-186.46v261.05c0 103.29 83.177 186.46 186.46 186.46z" fill="#0071bc" stroke="#000" stroke-linecap="round" stroke-width=".98054"/>
<path d="m291.59 832.7c103.29 0 186.46-83.177 186.46-186.46v-261.05h-186.46v447.51z" fill="#008f4c" stroke="#000" stroke-linecap="round" stroke-width=".981"/>
<g transform="translate(30.356 43.942)" stroke="#000">
<g transform="matrix(-1,0,0,1,522,0)">
<path d="m447.8 592.31-58.656 33.781-54.188 31.219-73.656 42.406v68l57.938-33.344c15.86-90.06 43.93-54.423 69.906-40.281l58.656-33.781v-68z" fill="#c8c4b7" fill-rule="evenodd" stroke-width=".5"/>
<path d="m261.43 708.27 22.631-13.088c1.4433-0.69951 2.0602-1.5951 1.9896-2.6539v-4.2595m-24.621 28.381 22.631-13.088c1.4433-0.69951 2.0602-1.5951 1.9896-2.6539v-4.2595m1.8466-3.6854 22.631-13.088c1.4433-0.69952 2.0602-1.5951 1.9896-2.6539v-4.2595m-24.621 28.381 22.631-13.088c1.4433-0.69951 2.0602-1.5951 1.9896-2.6539v-4.2595m1.8466-3.6853 22.631-13.088c1.4433-0.69948 2.0602-1.5951 1.9896-2.6539v-4.2595m-24.621 28.381 22.631-13.088c1.4433-0.69948 2.0602-1.5951 1.9896-2.6539v-4.2595m1.8466-3.6854 22.631-13.088c1.4433-0.69956 2.0602-1.5952 1.9896-2.654v-4.2595m-24.621 28.381 22.631-13.088c1.4433-0.69957 2.0602-1.5952 1.9896-2.654v-4.2595m1.8466-3.6854 22.631-13.088c1.4433-0.69957 2.0602-1.5952 1.9896-2.6539v-4.2595m-24.621 28.381 22.631-13.088c1.4433-0.69956 2.0602-1.5952 1.9896-2.6539v-4.2595m1.8466-3.6854 22.631-13.088c1.4433-0.69957 2.0602-1.5952 1.9896-2.654v-4.2595m-24.621 28.381 22.631-13.088c1.4433-0.69958 2.0602-1.5952 1.9896-2.6539v-4.2595m1.8466-3.6853 22.631-13.088c1.4433-0.69948 2.0602-1.5951 1.9896-2.6539v-4.2595m-24.621 28.381 22.631-13.088c1.4433-0.69949 2.0602-1.5951 1.9896-2.6539v-4.2595m1.8466-3.6854 22.631-13.088c1.4433-0.69957 2.0602-1.5952 1.9896-2.6539v-4.2595m-24.621 28.381 22.631-13.088c1.4433-0.69957 2.0602-1.5952 1.9896-2.6539v-4.2595m-209.89 136.76 22.631-13.088c1.4433-0.69951 2.0602-1.5951 1.9896-2.6539v-4.2595m-24.621 28.381 22.631-13.088c1.4433-0.69951 2.0602-1.5951 1.9896-2.6539v-4.2595m1.8466-3.6854 22.631-13.088c1.4433-0.69952 2.0602-1.5951 1.9896-2.6539v-4.2595m-24.621 28.381 22.631-13.088c1.4433-0.69951 2.0602-1.5951 1.9896-2.6539v-4.2595m1.8466-3.6853 14.739-8.5236 9.8817-11.477m-24.621 28.381 11.159-6.4534m41.776-32.539 22.631-13.088c1.4433-0.69957 2.0602-1.5952 1.9896-2.6539v-4.2595m-13.414 21.9 11.424-6.6067c1.4433-0.69956 2.0602-1.5952 1.9896-2.6539v-4.2595m1.8466-3.6854 22.631-13.088c1.4433-0.69957 2.0602-1.5952 1.9896-2.654v-4.2595m-24.621 28.381 22.631-13.088c1.4433-0.69958 2.0602-1.5952 1.9896-2.6539v-4.2595m1.8466-3.6853 22.631-13.088c1.4433-0.69948 2.0602-1.5951 1.9896-2.6539v-4.2595m-24.621 28.381 22.631-13.088c1.4433-0.69949 2.0602-1.5951 1.9896-2.6539v-4.2595m1.8466-3.6854 22.631-13.088c1.4433-0.69957 2.0602-1.5952 1.9896-2.6539v-4.2595m-24.621 28.381 22.631-13.088c1.4433-0.69957 2.0602-1.5952 1.9896-2.6539v-4.2595m-209.89 136.76 22.631-13.088c1.4433-0.69951 2.0602-1.5951 1.9896-2.6539v-4.2595m-24.621 28.381 22.631-13.088c1.4433-0.69951 2.0602-1.5951 1.9896-2.6539v-4.2595m1.8466-3.6854 22.631-13.088c1.4433-0.69952 2.0602-1.5951 1.9896-2.6539v-4.2595m-24.621 28.381 22.631-13.088c1.4433-0.69951 2.0602-1.5951 1.9896-2.6539v-4.2595m1.8466-3.6853 9.2249-5.3347m-9.2249 13.715 8.6324-4.9921m56.551-41.083 10.383-6.0046c1.4433-0.69957 2.0602-1.5952 1.9896-2.6539v-4.2595m-10.447 20.185 8.4574-4.8908c1.4433-0.69956 2.0602-1.5952 1.9896-2.6539v-4.2595m1.8466-3.6854 22.631-13.088c1.4433-0.69957 2.0602-1.5952 1.9896-2.654v-4.2595m-24.621 28.381 22.631-13.088c1.4433-0.69958 2.0602-1.5952 1.9896-2.6539v-4.2595m1.8466-3.6853 22.631-13.088c1.4433-0.69948 2.0602-1.5951 1.9896-2.6539v-4.2595m-24.621 28.381 22.631-13.088c1.4433-0.69949 2.0602-1.5951 1.9896-2.6539v-4.2595m1.8466-3.6854 22.631-13.088c1.4433-0.69957 2.0602-1.5952 1.9896-2.6539v-4.2595m-24.621 28.381 22.631-13.088c1.4433-0.69957 2.0602-1.5952 1.9896-2.6539v-4.2595m-209.89 136.76 22.631-13.088c1.4433-0.69951 2.0602-1.5951 1.9896-2.6539v-4.2595m1.8466 4.695 22.631-13.088c1.4433-0.69952 2.0602-1.5951 1.9896-2.6539v-4.2595m1.8466 4.695 7.0774-4.0928m59.155-34.209 9.3343-5.3979c1.4433-0.69957 2.0602-1.5952 1.9896-2.6539v-4.2595m1.8466 4.6949 22.631-13.088c1.4433-0.69957 2.0602-1.5952 1.9896-2.654v-4.2595m1.8466 4.695 22.631-13.088c1.4433-0.69948 2.0602-1.5951 1.9896-2.6539v-4.2595m1.8466 4.695 22.631-13.088c1.4433-0.69957 2.0602-1.5952 1.9896-2.6539v-4.2595" fill="none" stroke-width=".36962px"/>
<g transform="translate(-390.34 -87.244)">
<path d="m749.59 739.28c-47.489 39.214-46.446 58.383-44.438 101.72l11.125-3.0938c-1.3855-35.523-1.9346-51.459 31.031-82.75 28.073 10.655 28.472 27.67 28.518 49.699l3.9194 15.457 13.969-3.875c0.38682-31.563 3.0852-63.287-44.125-77.156z" fill="#c8c4b7" fill-rule="evenodd" stroke-linecap="round" stroke-linejoin="round" stroke-width=".5"/>
<path d="m747.4 754.78c-3.8132 3.3673-6.9729 6.7878-9.7451 10.088 4.9325 1.2055 18.644 6.7226 25.275 17.181l14.214-0.5299c-3.9689-11.133-12.332-20.591-29.743-26.739z" fill="#c8c4b7" fill-rule="evenodd" stroke-width=".5"/>
<path d="m743.02 759.87-6.7635-8.867" fill="none" stroke-width=".5"/>
<path d="m734.15 768.78-8.3757-6.4948" fill="none" stroke-width=".5"/>
<path d="m726.31 780.29c-1.0748-0.26869-9.6731-6.18-9.6731-6.18" fill="none" stroke-width=".5"/>
<path d="m720.4 791.57-11.554-3.2244" fill="none" stroke-width=".5"/>
<path d="m716.1 805.28-11.017-0.5374" fill="none" stroke-width=".5"/>
<path d="m755.33 757.72 4.8365-14.778" fill="none" stroke-width=".5"/>
<path d="m763.44 763.38 7.7461-13.991" fill="none" stroke-width=".5"/>
<path d="m771.66 771.01 10.276-13.028" fill="none" stroke-width=".5"/>
<path d="m777.46 781.81 12.268-9.0435" fill="none" stroke-width=".5"/>
<path d="m779.54 791.64 12.87-6.2452" fill="none" stroke-width=".5"/>
<path d="m651.59 926.74 73.656-42.406v-68l-73.656 42.406v68zm186.5-175.41-58.656 33.781v68l58.656-33.781v-68z" fill="#b3b3b3" fill-rule="evenodd" stroke-width=".5"/>
<path d="m651.59 858.74 68.438-39.406 5.1875-3-0.03125-0.03125-9.0938-5.2188c-0.10334 1.5134-0.17371 3.052-0.21875 4.625l-64.281 37.031v6zm186.5-113.41-61.188 35.242-14.865 0.04017-4.0112 3.8578c-0.21022 0.10721-0.33605 0.20505 0.08626 0.24198l22.134-0.06979 57.844-33.312v-6z" fill="#999" fill-rule="evenodd" stroke-width=".5"/>
<path d="m757.81 784.77h21.777v66.533h-21.777v-66.533z" fill="#b3b3b3" stroke-width=".49529"/>
</g>
</g>
<path d="m447.8 592.31-58.656 33.781-54.188 31.219-73.656 42.406v68l57.938-33.344c15.86-90.06 43.93-54.423 69.906-40.281l58.656-33.781v-68z" fill="#c8c4b7" fill-rule="evenodd" stroke-width=".5"/>
<path d="m261.43 708.27 22.631-13.088c1.4433-0.69951 2.0602-1.5951 1.9896-2.6539v-4.2595m-24.621 28.381 22.631-13.088c1.4433-0.69951 2.0602-1.5951 1.9896-2.6539v-4.2595m1.8466-3.6854 22.631-13.088c1.4433-0.69952 2.0602-1.5951 1.9896-2.6539v-4.2595m-24.621 28.381 22.631-13.088c1.4433-0.69951 2.0602-1.5951 1.9896-2.6539v-4.2595m1.8466-3.6853 22.631-13.088c1.4433-0.69948 2.0602-1.5951 1.9896-2.6539v-4.2595m-24.621 28.381 22.631-13.088c1.4433-0.69948 2.0602-1.5951 1.9896-2.6539v-4.2595m1.8466-3.6854 22.631-13.088c1.4433-0.69956 2.0602-1.5952 1.9896-2.654v-4.2595m-24.621 28.381 22.631-13.088c1.4433-0.69957 2.0602-1.5952 1.9896-2.654v-4.2595m1.8466-3.6854 22.631-13.088c1.4433-0.69957 2.0602-1.5952 1.9896-2.6539v-4.2595m-24.621 28.381 22.631-13.088c1.4433-0.69956 2.0602-1.5952 1.9896-2.6539v-4.2595m1.8466-3.6854 22.631-13.088c1.4433-0.69957 2.0602-1.5952 1.9896-2.654v-4.2595m-24.621 28.381 22.631-13.088c1.4433-0.69958 2.0602-1.5952 1.9896-2.6539v-4.2595m1.8466-3.6853 22.631-13.088c1.4433-0.69948 2.0602-1.5951 1.9896-2.6539v-4.2595m-24.621 28.381 22.631-13.088c1.4433-0.69949 2.0602-1.5951 1.9896-2.6539v-4.2595m1.8466-3.6854 22.631-13.088c1.4433-0.69957 2.0602-1.5952 1.9896-2.6539v-4.2595m-24.621 28.381 22.631-13.088c1.4433-0.69957 2.0602-1.5952 1.9896-2.6539v-4.2595m-209.89 136.76 22.631-13.088c1.4433-0.69951 2.0602-1.5951 1.9896-2.6539v-4.2595m-24.621 28.381 22.631-13.088c1.4433-0.69951 2.0602-1.5951 1.9896-2.6539v-4.2595m1.8466-3.6854 22.631-13.088c1.4433-0.69952 2.0602-1.5951 1.9896-2.6539v-4.2595m-24.621 28.381 22.631-13.088c1.4433-0.69951 2.0602-1.5951 1.9896-2.6539v-4.2595m1.8466-3.6853 14.739-8.5236 9.8817-11.477m-24.621 28.381 11.159-6.4534m41.776-32.539 22.631-13.088c1.4433-0.69957 2.0602-1.5952 1.9896-2.6539v-4.2595m-13.414 21.9 11.424-6.6067c1.4433-0.69956 2.0602-1.5952 1.9896-2.6539v-4.2595m1.8466-3.6854 22.631-13.088c1.4433-0.69957 2.0602-1.5952 1.9896-2.654v-4.2595m-24.621 28.381 22.631-13.088c1.4433-0.69958 2.0602-1.5952 1.9896-2.6539v-4.2595m1.8466-3.6853 22.631-13.088c1.4433-0.69948 2.0602-1.5951 1.9896-2.6539v-4.2595m-24.621 28.381 22.631-13.088c1.4433-0.69949 2.0602-1.5951 1.9896-2.6539v-4.2595m1.8466-3.6854 22.631-13.088c1.4433-0.69957 2.0602-1.5952 1.9896-2.6539v-4.2595m-24.621 28.381 22.631-13.088c1.4433-0.69957 2.0602-1.5952 1.9896-2.6539v-4.2595m-209.89 136.76 22.631-13.088c1.4433-0.69951 2.0602-1.5951 1.9896-2.6539v-4.2595m-24.621 28.381 22.631-13.088c1.4433-0.69951 2.0602-1.5951 1.9896-2.6539v-4.2595m1.8466-3.6854 22.631-13.088c1.4433-0.69952 2.0602-1.5951 1.9896-2.6539v-4.2595m-24.621 28.381 22.631-13.088c1.4433-0.69951 2.0602-1.5951 1.9896-2.6539v-4.2595m1.8466-3.6853 9.2249-5.3347m-9.2249 13.715 8.6324-4.9921m56.551-41.083 10.383-6.0046c1.4433-0.69957 2.0602-1.5952 1.9896-2.6539v-4.2595m-10.447 20.185 8.4574-4.8908c1.4433-0.69956 2.0602-1.5952 1.9896-2.6539v-4.2595m1.8466-3.6854 22.631-13.088c1.4433-0.69957 2.0602-1.5952 1.9896-2.654v-4.2595m-24.621 28.381 22.631-13.088c1.4433-0.69958 2.0602-1.5952 1.9896-2.6539v-4.2595m1.8466-3.6853 22.631-13.088c1.4433-0.69948 2.0602-1.5951 1.9896-2.6539v-4.2595m-24.621 28.381 22.631-13.088c1.4433-0.69949 2.0602-1.5951 1.9896-2.6539v-4.2595m1.8466-3.6854 22.631-13.088c1.4433-0.69957 2.0602-1.5952 1.9896-2.6539v-4.2595m-24.621 28.381 22.631-13.088c1.4433-0.69957 2.0602-1.5952 1.9896-2.6539v-4.2595m-209.89 136.76 22.631-13.088c1.4433-0.69951 2.0602-1.5951 1.9896-2.6539v-4.2595m1.8466 4.695 22.631-13.088c1.4433-0.69952 2.0602-1.5951 1.9896-2.6539v-4.2595m1.8466 4.695 7.0774-4.0928m59.155-34.209 9.3343-5.3979c1.4433-0.69957 2.0602-1.5952 1.9896-2.6539v-4.2595m1.8466 4.6949 22.631-13.088c1.4433-0.69957 2.0602-1.5952 1.9896-2.654v-4.2595m1.8466 4.695 22.631-13.088c1.4433-0.69948 2.0602-1.5951 1.9896-2.6539v-4.2595m1.8466 4.695 22.631-13.088c1.4433-0.69957 2.0602-1.5952 1.9896-2.6539v-4.2595" fill="none" stroke-width=".36962px"/>
<g transform="translate(-390.34 -87.244)">
<path d="m749.59 739.28c-47.489 39.214-46.446 58.383-44.438 101.72l11.125-3.0938c-1.3855-35.523-1.9346-51.459 31.031-82.75 28.073 10.655 28.472 27.67 28.518 49.699l3.9194 15.457 13.969-3.875c0.38682-31.563 3.0852-63.287-44.125-77.156z" fill="#c8c4b7" fill-rule="evenodd" stroke-linecap="round" stroke-linejoin="round" stroke-width=".5"/>
<path d="m747.4 754.78c-3.8132 3.3673-6.9729 6.7878-9.7451 10.088 4.9325 1.2055 18.644 6.7226 25.275 17.181l14.214-0.5299c-3.9689-11.133-12.332-20.591-29.743-26.739z" fill="#c8c4b7" fill-rule="evenodd" stroke-width=".5"/>
<path d="m743.02 759.87-6.7635-8.867" fill="none" stroke-width=".5"/>
<path d="m734.15 768.78-8.3757-6.4948" fill="none" stroke-width=".5"/>
<path d="m726.31 780.29c-1.0748-0.26869-9.6731-6.18-9.6731-6.18" fill="none" stroke-width=".5"/>
<path d="m720.4 791.57-11.554-3.2244" fill="none" stroke-width=".5"/>
<path d="m716.1 805.28-11.017-0.5374" fill="none" stroke-width=".5"/>
<path d="m755.33 757.72 4.8365-14.778" fill="none" stroke-width=".5"/>
<path d="m763.44 763.38 7.7461-13.991" fill="none" stroke-width=".5"/>
<path d="m771.66 771.01 10.276-13.028" fill="none" stroke-width=".5"/>
<path d="m777.46 781.81 12.268-9.0435" fill="none" stroke-width=".5"/>
<path d="m779.54 791.64 12.87-6.2452" fill="none" stroke-width=".5"/>
<path d="m651.59 926.74 73.656-42.406v-68l-73.656 42.406v68zm186.5-175.41-58.656 33.781v68l58.656-33.781v-68z" fill="#b3b3b3" fill-rule="evenodd" stroke-width=".5"/>
<path d="m651.59 858.74 68.438-39.406 5.1875-3-0.03125-0.03125-9.0938-5.2188c-0.10334 1.5134-0.17371 3.052-0.21875 4.625l-64.281 37.031v6zm186.5-113.41-61.188 35.242-14.865 0.04017-4.0112 3.8578c-0.21022 0.10721-0.33605 0.20505 0.08626 0.24198l22.134-0.06979 57.844-33.312v-6z" fill="#999" fill-rule="evenodd" stroke-width=".5"/>
<path d="m757.81 784.77h21.777v66.533h-21.777v-66.533z" fill="#b3b3b3" stroke-width=".49529"/>
</g>
<path d="m447.83 584.73v-24l-186.51 107.39-186.51-107.39v24l186.51 107.39 186.51-107.39z" fill="#808080" fill-rule="evenodd" stroke-width=".99709px"/>
<g transform="matrix(1 0 0 -1 -226.34 1352.8)" fill="none" stroke-width=".99709px">
<path d="m504.55 672.89-17.445 10.045"/>
<path d="m651.22 757.15-17.445 10.045"/>
<path d="m614.55 736.08-17.445 10.045"/>
<path d="m577.89 715.02-17.445 10.045"/>
<path d="m541.22 693.96-17.445 10.045"/>
</g>
<g transform="translate(-390.34 -87.244)" fill-rule="evenodd" stroke-width=".5">
<path d="m838.17 649.98v-4l-186.51 107.39-186.51-107.39v4l186.51 107.39 186.51-107.39z" fill="#4d4d4d"/>
<path d="m838.17 647.98v-8l-186.51 107.39-186.51-107.39v8l186.51 107.39 186.51-107.39z" fill="#666"/>
<path d="m838.17 679.98v-4l-186.51 107.39-186.51-107.39v4l186.51 107.39 186.51-107.39z" fill="#4d4d4d"/>
<path d="m838.17 677.98v-8l-186.51 107.39-186.51-107.39v8l186.51 107.39 186.51-107.39z" fill="#666"/>
</g>
<path d="m261.26 771.32v67.845-67.845z" fill="#c8c4b7" stroke-width=".5"/>
<g transform="translate(-390.34 -87.244)" fill="none" stroke-width=".99709px">
<path d="m504.55 672.89-17.445 10.045"/>
<path d="m651.22 757.15-17.445 10.045"/>
<path d="m614.55 736.08-17.445 10.045"/>
<path d="m577.89 715.02-17.445 10.045"/>
<path d="m541.22 693.96-17.445 10.045"/>
</g>
</g>
<path d="m43.012 310.6c0.20355 120.28-0.40828 240.58 0.3125 360.84 3.8332 107.94 86.494 206.52 192.03 229.31 97.636 23.777 206.92-18.952 262.03-103.22 33.005-47.127 45.159-105.45 42.438-162.22 1e-5 -108.24 0-216.48 0-324.72-165.6 1e-5 -331.21 0-496.81 0zm62.125 74.594h186.44 186.47v261.06c0 103.29-83.183 186.44-186.47 186.44-103.29 0-186.44-83.152-186.44-186.44v-261.06z" fill="#eac102" fill-rule="evenodd"/>
<path d="m291.59 832.7c103.29 0 186.46-83.177 186.46-186.46v-261.05h-186.46-186.46v261.05c0 103.29 83.177 186.46 186.46 186.46z" fill="none" stroke="#000" stroke-linecap="round"/>
<g transform="matrix(1.0252 0 0 1.0252 -380.38 -43.789)" fill-rule="evenodd" stroke="#000">
<path d="m609.13 587.68h-7.6168v-20.803h5.3317v2.3114h1.5234c0.76168 0 1.4649 0.40634 1.4649 1.1328 0 0.7264-0.70318 1.1787-1.4649 1.1787h-1.5234v1.5409l2.285 2.3114v12.328z" fill="#eac102" stroke-width=".44075"/>
<polyline class="fil2 str1" transform="matrix(1.5234 0 0 1.5409 505.47 455.93)" points="63.044 79.5 66.044 79.5 66.044 78.5 66.044 80" fill="#eac102" stroke-width=".28767"/>
<polyline class="fil2 str1" transform="matrix(1.5234 0 0 1.5409 505.47 455.93)" points="63.044 82.5 66.044 82.5 66.044 81.5 66.044 83" fill="#eac102" stroke-width=".28767"/>
<path d="m550.49 512.08 19.906-10.817" fill="#eac102" stroke-width=".44075"/>
<path d="m570.22 501.39 19.042 7.2571" fill="#eac102" stroke-width=".44075"/>
<path d="m523.16 523.28 12.783-16.118" fill="#eac102" stroke-width=".44075"/>
<path d="m517.28 547.57 12.187 16.95" fill="#eac102" stroke-width=".44075"/>
<path d="m550.41 556.09c3.0467 6.1638 6.0934 10.787 12.949 13.098" fill="#0071bc" stroke-width=".44075"/>
<path d="m568.76 569.96h3.0467l-0.76168-88.605c-0.01614-0.45227-0.42471-0.666-0.72176-0.68079s-0.79489 0.24393-0.80159 0.68079l-0.76168 88.605z" fill="#eac102" stroke-width=".44075"/>
<path d="m539.64 559.98 2.2614-0.16987-6.2535-55.765c-0.04103-0.28389-0.35798-0.39571-0.57941-0.38857-0.22146 0.0073-0.5743 0.19794-0.55124 0.47357l5.1227 55.85z" fill="#eac102" stroke-width=".42708"/>
<path d="m505.69 552.6 24.758 11.922-0.65469 1.3914-24.758-11.922c-0.35718-0.18574-0.38712-0.629-0.25396-0.97435 0.13315-0.34532 0.60487-0.50856 0.90865-0.41708z" fill="#eac102" stroke-width=".44075"/>
<path d="m600.75 587.68 6.5276-24.932c-22.523 8.7517-51.467 7.9812-78.466 1.4275l1.1028 4.2422 3.0467 1.541c2.285 6.1638 4.5701 17.721 18.28 17.721h49.509z" fill="#eac102" stroke-width=".44075"/>
<path d="m534.69 566.31c2.0772 15.205 11.979 19.057 21.119 19.057h28.182c9.1401 0 13.71-3.8524 19.71-8.8919l2.7032-10.254c-18.605 7.5887-58.212 12.212-71.715 0.08891z" fill="#eac102" stroke-width=".44075"/>
<path d="m535.27 569.46c20.543 14.366 54.057 6.6612 70.566-1.0665l-1.5064 5.7148c-11.194 12.8-59.942 13.57-67.062 0.98944-1.1852-2.4905-1.4394-3.4728-1.9977-5.6377z" fill="#eac102" stroke-width=".44075"/>
<path d="m535.91 571.8c26.752 16.651 61.789 3.5528 69.431-1.5481l-0.51048 1.9362c-14.748 10.869-52.832 14.722-68.051 1.8645-0.35707-0.75184-0.61589-1.5109-0.86892-2.2527z" fill="#eac102" stroke-width=".44075"/>
<path d="m608.37 564.57 5.3317-11.557-25.135 6.1638c-0.76168 3.8524-1.5234 5.3933-5.3317 9.2457l25.135-3.8524z" fill="#eac102" stroke-width=".44075"/>
<path d="m607.15 564.8 4.7986-10.401-22.622 5.5474c-0.68551 3.4672-1.371 4.854-4.7986 8.3211l22.622-3.4671z" fill="#c83737" stroke-width=".44075"/>
<rect x="572.57" y="573.81" width="9.1401" height=".77047" fill="#eac102" stroke-width=".44075"/>
<line class="fil2 str1" x1="573.42" x2="571.9" y1="576.64" y2="549.67" fill="#eac102" stroke-width=".44075"/>
<line class="fil2 str1" x1="575.11" x2="573.58" y1="576.24" y2="549.27" fill="#eac102" stroke-width=".44075"/>
<line class="fil2 str1" x1="576.8" x2="575.27" y1="575.84" y2="548.87" fill="#eac102" stroke-width=".44075"/>
<line class="fil2 str1" x1="578.48" x2="576.96" y1="575.44" y2="548.47" fill="#eac102" stroke-width=".44075"/>
<line class="fil2 str1" x1="580.17" x2="578.65" y1="575.03" y2="548.07" fill="#eac102" stroke-width=".44075"/>
<path d="m536.55 507.63 13.863 13.104" fill="#eac102" stroke-width=".44075"/>
<polygon transform="matrix(1.5234 0 0 1.5409 505.47 455.93)" points="25.544 74.5 30.044 75.5 30.044 76 25.544 75" fill="#eac102" stroke-width=".28767"/>
<line class="fil2 str1" x1="545.15" x2="541.34" y1="573.81" y2="550.7" fill="#eac102" stroke-width=".44075"/>
<line class="fil2 str1" x1="546.73" x2="542.92" y1="574.17" y2="551.06" fill="#eac102" stroke-width=".44075"/>
<line class="fil2 str1" x1="548.31" x2="544.5" y1="574.53" y2="551.41" fill="#eac102" stroke-width=".44075"/>
<line class="fil2 str1" x1="549.89" x2="546.09" y1="574.89" y2="551.77" fill="#eac102" stroke-width=".44075"/>
<line class="fil2 str1" x1="551.48" x2="547.67" y1="575.24" y2="552.13" fill="#eac102" stroke-width=".44075"/>
<path d="m590 507.93-39.607 4.6228c-9.1401 19.262-7.6168 30.819 0 50.081 12.949-9.2457 26.659-8.4752 36.561 0.77047-5.3317-23.114-1.5234-42.376 3.0467-55.474z" fill="#e3e4e5" stroke-width=".44075"/>
<path d="m524.32 561.42c-6.7868-8.5002-6.7868-25.501-1.6967-38.251l28.844-2.5501c-4.2417 14.45-7.6351 28.901 0 46.751-10.18-6.8002-23.754-8.5002-27.147-5.9502z" fill="#e3e4e5" stroke-width=".44075"/>
<polygon transform="matrix(1.5234 0 0 .90883 505.47 500.19)" points="66.544 68.713 60.544 69.713 60.544 69 66.544 68" fill="#eac102" stroke-width=".37459"/>
<path d="m507.4 553.41 17.156-26.202c-3.2549 15.075-3.2228 24.098-2.7856 33.042-3.9663-4.8513-9.7402-6.4376-14.371-6.8398z" fill="#e3e4e5" stroke-width=".44075"/>
<polygon transform="matrix(1.5234 0 0 1.5409 505.47 455.93)" points="39.544 23 45.544 23 44.044 29 41.044 29" fill="#eac102" stroke-width=".28767"/>
<path d="m565.88 481.96c1.1463-0.60159 2.6203-0.60159 3.7666 0v4.4117c-1.0645-0.60159-2.6203-0.60159-3.7666 0v-4.4117z" fill="#c83737" stroke-width=".44075"/>
<path d="m561.32 481.96v4.4117c-2.0974-1.1853-5.7491-0.60159-7.9298 0.20048l3.1719-2.6068-3.7666-1.4038c2.5772-0.80206 5.749-1.6043 8.5245-0.60158z" fill="#c83737" stroke-width=".44075"/>
<path d="m565.88 487.57c-1.3878 0.60159-3.1719 0.60159-4.5596 0v-4.4117c1.2884 0.60159 3.1718 0.60159 4.5596 0v4.4117z" fill="#c83737" stroke-width=".44075"/>
<path d="m506.5 552.62 28.858-44.52" fill="#eac102" stroke-width=".44075"/>
<g transform="matrix(.44075 0 0 .44075 445.24 225.12)" fill="#e3e4e5" stroke-width=".63936">
<path d="m426.26 850.53c-0.93066 0.02696-1.8757 0.11377-2.7995 0.11377-2.9103 1e-5 -5.4461-0.1406-7.7039-0.37929-2.2578-0.23869-4.2509-0.59597-6.0621-1.0052-1.8112-0.40917-3.4414-0.87877-5.0096-1.3844-1.5682-0.5057-3.0744-1.0475-4.6097-1.5931-1.5353-0.54557-3.1142-1.1006-4.8202-1.6121-1.7061-0.51147-3.5376-0.99424-5.62-1.4034-2.0825-0.4092-4.4076-0.76647-7.0724-1.0052-2.6648-0.23869-5.6823-0.37928-9.1352-0.37928-3.4035 0-6.3039 0.16033-8.8616 0.41723-2.5576 0.25689-4.7646 0.62483-6.7146 1.0621-1.9499 0.43718-3.6398 0.93837-5.2201 1.4793-1.5804 0.54089-3.0555 1.1389-4.5044 1.7069s-2.8856 1.1315-4.4413 1.65c-1.5557 0.51849-3.2142 0.9921-5.1149 1.3845-1.9006 0.39237-4.0414 0.70173-6.5252 0.89136-2.4836 0.18963-5.3251 0.2604-8.63 0.17068-3.2556-0.08964-6.0922-0.28046-8.609-0.54998-2.5168-0.26951-4.7097-0.64512-6.6935-1.0431-1.9838-0.39797-3.7529-0.84105-5.4096-1.3086-1.6566-0.46756-3.2007-0.95958-4.736-1.4603-1.5353-0.50074-3.0556-1.0023-4.6728-1.4793-1.6172-0.47704-3.3313-0.92959-5.2412-1.3276-1.9098-0.39798-4.0351-0.73563-6.4409-1.0052-2.4058-0.26951-5.1015-0.49826-8.209-0.58792-3.0582-0.08969-5.748 1e-5 -8.1669 0.18964-2.4189 0.18964-4.5629 0.49901-6.5251 0.89138-1.9623 0.39235-3.7419 0.88016-5.4306 1.4034s-3.2864 1.082-4.8833 1.65c-1.5969 0.56799-3.1946 1.1332-4.8833 1.669-1.6887 0.53575-3.4683 1.0421-5.4306 1.4793-1.9623 0.43722-4.1062 0.80516-6.5251 1.062-2.4189 0.25692-5.1087 0.41723-8.1669 0.41723-3.0582 1e-5 -5.7583-0.16031-8.1669-0.41723-2.4087-0.25689-4.5366-0.62483-6.483-1.062-1.9465-0.43721-3.698-0.94354-5.3675-1.4793-1.6694-0.53576-3.2569-1.1009-4.8412-1.669-1.5843-0.56801-3.178-1.1315-4.8623-1.65-1.6843-0.51848-3.4589-1.0111-5.4306-1.4034-1.9717-0.39237-4.1417-0.70177-6.5883-0.89138-1.8349-0.1422-3.8255-0.21744-6.02-0.20861-0.73149 0.00295-1.475-0.00347-2.2522 0.01897-3.1076 0.08966-5.8424 0.31841-8.2932 0.58792s-4.6302 0.60718-6.6093 1.0052c-1.9792 0.39798-3.7604 0.85054-5.4516 1.3276-1.6913 0.47703-3.2926 0.97855-4.8833 1.4793-1.5907 0.50073-3.167 0.99276-4.8412 1.4603s-3.4462 0.91064-5.3885 1.3086c-1.9422 0.39798-4.0665 0.77359-6.462 1.0431-2.3955 0.26951-5.0701 0.46031-8.1038 0.54998-1.267 0.03688-2.5238-0.0614-3.7888-0.07584 3.0697 6.0566 6.5833 11.911 10.503 17.562 0.42755-0.04054 0.97847-0.04861 1.3892-0.09481 2.3955-0.26952 4.5197-0.6072 6.462-1.0052 1.9423-0.39795 3.7143-0.85053 5.3885-1.3276s3.2505-0.97855 4.8412-1.4793c1.5908-0.50074 3.1921-1.0165 4.8833-1.4982 1.6913-0.48179 3.4725-0.9296 5.4516-1.3276 1.9792-0.39801 4.1584-0.71668 6.6093-0.9862 2.4509-0.26951 5.1857-0.46032 8.2932-0.54999 3.1087-0.08973 5.8256-0.01894 8.2722 0.17068 2.4465 0.18965 4.6165 0.49902 6.5883 0.89137s3.7463 0.86598 5.4306 1.3845c1.6843 0.5185 3.278 1.063 4.8623 1.631 1.5843 0.56802 3.1718 1.1427 4.8412 1.6879 1.6695 0.54524 3.421 1.061 5.3675 1.4983 1.9465 0.43721 4.0744 0.78617 6.483 1.0431 2.4086 0.25693 5.1087 0.39827 8.1669 0.39827 3.0582 1e-5 5.748-0.14137 8.1669-0.39827 2.4189-0.25688 4.5629-0.6059 6.5251-1.0431 1.9623-0.43722 3.7419-0.95302 5.4306-1.4983 1.6887-0.54524 3.2864-1.1199 4.8833-1.6879 1.597-0.568 3.1947-1.1172 4.8833-1.631 1.6887-0.51377 3.4683-0.99209 5.4306-1.3845 1.9622-0.39236 4.1062-0.70172 6.5251-0.89137 2.4189-0.18964 5.1087-0.26035 8.1669-0.17068 3.1076 0.08965 5.8032 0.28048 8.209 0.54999 2.4058 0.26952 4.5311 0.5882 6.4409 0.9862 1.9099 0.39796 3.624 0.84577 5.2412 1.3276 1.6172 0.48176 3.1376 0.99751 4.6728 1.4982 1.5353 0.50074 3.0794 1.0022 4.736 1.4793 1.6566 0.47704 3.4257 0.92961 5.4096 1.3276 1.9839 0.39799 4.1767 0.73566 6.6935 1.0052 2.5168 0.2695 5.3534 0.44135 8.609 0.53102 3.3048 0.08971 6.1463 0.01896 8.63-0.17068 2.4837-0.18966 4.6246-0.49902 6.5252-0.89137 1.9006-0.39235 3.5592-0.84701 5.1149-1.3655 1.5557-0.51848 2.9923-1.082 4.4413-1.65s2.9241-1.128 4.5044-1.669c1.5804-0.5409 3.2702-1.08 5.2201-1.5172 1.9499-0.43721 4.1569-0.76721 6.7146-1.0241 2.5577-0.25692 5.458-0.41723 8.8616-0.41723 3.4528-2e-5 6.4704 0.14062 9.1352 0.3793 2.6648 0.23867 4.9899 0.55804 7.0724 0.96724 2.0824 0.40917 3.914 0.89192 5.62 1.4034 1.7059 0.5115 3.2849 1.0665 4.8202 1.612 1.5353 0.54558 3.0415 1.0874 4.6097 1.5931 1.5682 0.50569 3.1984 0.97528 5.0096 1.3845 1.8112 0.4092 3.8042 0.76648 6.0621 1.0052 0.03075 0.00325 0.07437-0.00322 0.10523 0 3.9721-5.6788 7.4234-11.582 10.398-17.676z"/>
<path d="m438.32 813.51c-2.0077 0.2533-4.0142 0.51928-6.041 0.68275-2.9594 0.23867-5.9088 0.36034-8.8194 0.36034-2.9103 1e-5 -5.4461-0.12165-7.7039-0.36034-2.2578-0.23871-4.2509-0.59598-6.0621-1.0052-1.8112-0.40918-3.4414-0.87876-5.0096-1.3845-1.5682-0.5057-3.0744-1.0475-4.6097-1.5931-1.5353-0.54554-3.1142-1.1006-4.8202-1.612-1.7061-0.5115-3.5376-0.99426-5.62-1.4034-2.0825-0.40918-4.4076-0.76648-7.0724-1.0052-2.6648-0.23868-5.6823-0.37931-9.1352-0.37931-3.4035 1e-5 -6.3039 0.16034-8.8616 0.41724-2.5576 0.2569-4.7646 0.62484-6.7146 1.062-1.9499 0.4372-3.6398 0.93838-5.2201 1.4793-1.5804 0.5409-3.0555 1.1389-4.5044 1.7069s-2.8856 1.1315-4.4413 1.65c-1.5557 0.51849-3.2142 0.97314-5.1149 1.3655-1.9006 0.39236-4.0414 0.70174-6.5252 0.89137-2.4836 0.18965-5.3251 0.26039-8.63 0.1707-3.2556-0.08965-6.0922-0.28047-8.609-0.54998-2.5168-0.26953-4.7097-0.62615-6.6935-1.0241-1.9838-0.39798-3.7529-0.84105-5.4096-1.3086-1.6566-0.46754-3.2007-0.95957-4.736-1.4603-1.5353-0.50073-3.0556-1.0165-4.6728-1.4983-1.6172-0.48177-3.3313-0.92959-5.2412-1.3276-1.9098-0.39798-4.0351-0.71668-6.4409-0.9862-2.4058-0.26949-5.1015-0.49823-8.209-0.58793-3.0582-0.08968-5.748-0.01895-8.1669 0.17068-2.4189 0.18968-4.5629 0.49902-6.5251 0.89137-1.9623 0.39238-3.7419 0.88018-5.4306 1.4034s-3.2864 1.082-4.8833 1.65c-1.5969 0.56799-3.1946 1.1474-4.8833 1.6879-1.6887 0.54049-3.4683 1.0421-5.4306 1.4793-1.9623 0.43723-4.1062 0.80516-6.5251 1.062s-5.1087 0.39828-8.1669 0.39828c-3.0582 1e-5 -5.7583-0.14136-8.1669-0.39828-2.4087-0.25692-4.5366-0.62484-6.483-1.062-1.9465-0.43721-3.698-0.93878-5.3675-1.4793-1.6694-0.54052-3.2569-1.1199-4.8412-1.6879-1.5843-0.568-3.178-1.1315-4.8623-1.65-1.6843-0.51847-3.4589-1.0111-5.4306-1.4034-1.9717-0.39233-4.1417-0.70173-6.5883-0.89137-1.8349-0.14219-3.8255-0.21744-6.02-0.20861-0.73149 0.00294-1.475 0.0155-2.2522 0.03793-3.1076 0.0897-5.8424 0.31843-8.2932 0.58793-2.4509 0.26953-4.6302 0.58822-6.6093 0.9862-1.9792 0.39796-3.7604 0.84579-5.4516 1.3276-1.6913 0.48179-3.2926 0.99753-4.8833 1.4983-1.5907 0.50075-3.167 0.99278-4.8412 1.4603-1.6742 0.46756-3.4462 0.91064-5.3885 1.3086-1.9422 0.39797-4.0665 0.75461-6.462 1.0241-2.3955 0.26951-5.0701 0.4603-8.1038 0.54998-3.083 0.0897-6.1657 0.01895-9.2194-0.1707-2.4185-0.15018-4.7876-0.41955-7.1356-0.7017 1.126 6.2371 2.7274 12.39 4.757 18.415 0.80134 0.06604 1.5726 0.17752 2.3785 0.22758 3.0537 0.18964 6.1363 0.26038 9.2194 0.17067 3.0337-0.08964 5.7083-0.28046 8.1038-0.54998 2.3955-0.26951 4.5197-0.58822 6.462-0.9862 1.9423-0.39796 3.7143-0.85052 5.3885-1.3276 1.6742-0.47703 3.2505-0.97857 4.8412-1.4793 1.5908-0.50072 3.1921-1.0165 4.8833-1.4982 1.6913-0.48179 3.4725-0.92961 5.4516-1.3276 1.9792-0.39796 4.1584-0.71667 6.6093-0.98619 2.4509-0.2695 5.1857-0.46032 8.2932-0.54998 3.1087-0.08973 5.8256-0.01894 8.2722 0.17068 2.4465 0.18961 4.6165 0.499 6.5883 0.89136s3.7463 0.847 5.4306 1.3655c1.6843 0.51846 3.278 1.082 4.8623 1.65 1.5843 0.56801 3.1718 1.1427 4.8412 1.6879 1.6695 0.54523 3.421 1.061 5.3675 1.4982 1.9465 0.4372 4.0744 0.7672 6.483 1.0241 2.4086 0.25692 5.1087 0.41723 8.1669 0.41723 3.0582 2e-5 5.748-0.16032 8.1669-0.41723 2.4189-0.2569 4.5629-0.58692 6.5251-1.0241 1.9623-0.4372 3.7419-0.95302 5.4306-1.4982 1.6887-0.54524 3.2864-1.1199 4.8833-1.6879 1.597-0.568 3.1947-1.1172 4.8833-1.631 1.6887-0.51377 3.4683-0.99208 5.4306-1.3845 1.9622-0.39235 4.1062-0.70172 6.5251-0.89136 2.4189-0.18967 5.1087-0.26036 8.1669-0.17068 3.1076 0.08966 5.8032 0.28047 8.209 0.54998 2.4058 0.26953 4.5311 0.58823 6.4409 0.98619 1.9099 0.39797 3.624 0.84579 5.2412 1.3276 1.6172 0.48177 3.1376 0.99752 4.6728 1.4982 1.5353 0.50073 3.0794 1.0023 4.736 1.4793 1.6566 0.47704 3.4257 0.92961 5.4096 1.3276 1.9839 0.39797 4.1767 0.71669 6.6935 0.9862 2.5168 0.26952 5.3534 0.46034 8.609 0.54998 3.3048 0.08972 6.1463 0.01896 8.63-0.17067 2.4837-0.18964 4.6246-0.49901 6.5252-0.89137 1.9006-0.39238 3.5592-0.84701 5.1149-1.3655 1.5557-0.51847 2.9923-1.082 4.4413-1.65 1.449-0.56798 2.9241-1.147 4.5044-1.6879 1.5804-0.54089 3.2702-1.0611 5.2201-1.4982 1.9499-0.4372 4.1569-0.76723 6.7146-1.0241 2.5577-0.25691 5.458-0.41722 8.8616-0.41722 3.4528 0 6.4704 0.14061 9.1352 0.37929 2.6648 0.2387 4.9899 0.5391 7.0724 0.94827 2.0824 0.40919 3.914 0.91091 5.62 1.4224 1.7059 0.51148 3.2849 1.0665 4.8202 1.612 1.5353 0.54558 3.0415 1.0874 4.6097 1.5931 1.5682 0.5057 3.1984 0.97527 5.0096 1.3845 1.8112 0.40917 3.8042 0.74749 6.0621 0.9862 2.2578 0.23866 4.7936 0.37928 7.7039 0.37928 2.9106 2e-5 5.86-0.14061 8.8194-0.37928 0.42427-0.03422 0.83853-0.1135 1.263-0.15173 1.941-6.0659 3.633-12.209 4.7781-18.453z"/>
</g>
</g>
<g transform="matrix(.96758 0 0 1.1438 -343.22 -95.038)">
<path transform="translate(390.34 87.244)" d="m334.44 431.75-1.9375 0.25c-0.47334-0.10133-1.1223 0.1834-1.4375 0.625 0 0-8.1994 10.976-11.375 14.844-0.36451-0.13886-0.59375-0.21874-0.59375-0.21875-0.44862-0.20516-1.0833-0.05031-1.4375 0.34375 0 0-8.3243 9.2602-11.844 12.062 2.7115 4.6675 5.801 9.0655 9.2188 13.125 6.5394 7.7679 14.918 15.304 23.875 21.125h55.812c5.9754-4.8805 11.581-11.051 17.094-17.469-0.70618-0.2433-1.4214-0.52322-2.25-0.9375-0.31348-0.15675-0.62401-0.312-0.9375-0.46875-0.94487-0.47243-1.8416-0.90582-2.875-1.2188s-2.2141-0.53125-3.7188-0.53125c-1.8314-1e-5 -3.0562-0.08123-4.6875-0.625-0.26146-0.08717-0.49466-0.20874-0.75-0.3125l-2.0938-2.5938c-0.33265-0.42159-1.625-0.78125-1.625-0.78125-0.48049 1e-5 -1.1106-0.35213-1.4062-0.8125l-4.0312-6.0938c-0.25247-0.49915-2.559-1.3158-2.8125-1.8125l-2.5938-5.125c-0.25453-0.4954-0.86434-0.87627-1.3438-0.84375 0 1e-5 -0.65536 0.05096-1.4062 0.21875s-1.5898 0.46897-2 0.96875c-1.3595 0.87875-2.824 1.6377-4.2812 2.3438s-2.9049 1.3439-4.2188 1.9375c-0.55268-1.3088-1.3194-2.5019-2.1562-3.6562s-1.744-2.2512-2.6562-3.375-1.8151-2.2828-2.5938-3.5-1.4388-2.503-1.875-3.9375c-0.27309-0.48039-0.84807-1.0923-1.2812-1.3438 1e-5 0-0.8401-0.01051-2.125-0.34375-0.64245-0.16662-1.406-0.41433-2.2188-0.78125s-1.6801-0.85479-2.5625-1.5c-0.88216-0.6449-1.853-1.5578-2.7812-2.5938s-1.8284-2.1912-2.625-3.25c-1.5933-2.1176-2.75-3.9062-2.75-3.9062-0.3039-0.45411-0.92782-0.79754-1.4062-0.75l-7.3125 0.9375z" fill="#806600"/>
<path transform="translate(390.34 87.244)" d="m334.44 431.75 7.3125-0.9375c0.47843-0.04754 1.1024 0.29589 1.4062 0.75 0 0 1.1567 1.7886 2.75 3.9062 0.79664 1.0588 1.6967 2.214 2.625 3.25s1.8991 1.9488 2.7812 2.5938c0.88243 0.64521 1.7498 1.1331 2.5625 1.5s1.5763 0.61463 2.2188 0.78125c1.2849 0.33324 2.125 0.34375 2.125 0.34375 0.43318 0.25145 1.0082 0.86336 1.2812 1.3438 0.43622 1.4345 1.0963 2.7203 1.875 3.9375s1.6815 2.3762 2.5938 3.5 1.8194 2.2206 2.6562 3.375 1.6036 2.3474 2.1562 3.6562c1.3138-0.59358 2.7615-1.2315 4.2188-1.9375s2.9217-1.465 4.2812-2.3438c0.41017-0.49978 1.2491-0.80096 2-0.96875s1.4062-0.21874 1.4062-0.21875c0.47941-0.03252 1.0892 0.34835 1.3438 0.84375l2.5938 5.125c0.25354 0.49666 2.56 1.3134 2.8125 1.8125l4.0312 6.0938c0.29569 0.46037 0.92576 0.81251 1.4062 0.8125 0 0 1.2924 0.35966 1.625 0.78125l2.0938 2.5938c0.25534 0.10376 0.48854 0.22533 0.75 0.3125 1.6313 0.54377 2.8561 0.62499 4.6875 0.625 1.5047 0 2.6853 0.21832 3.7188 0.53125s1.9301 0.74632 2.875 1.2188c0.31349 0.15675 0.62402 0.312 0.9375 0.46875 0.82856 0.41428 1.5438 0.6942 2.25 0.9375 1.0621-1.2365 2.1313-2.4013 3.1875-3.6562 1.8162-2.1568 3.506-4.4131 5.125-6.75 0-3.2539-8.7812-21.781-8.7812-21.781-0.24025-0.50666-0.80077-0.93998-1.2812-0.96875l-14.188-2.875c-1.5206-1.4449-5.625-11.094-5.625-11.094-0.27515-0.47913-0.86594-1.0361-1.3125-1.25l-4.9062-1.9062c-1.501-1.2698-3.0272-11.918-3.5312-14.375 0 0-7.3288-7.3669-9.1562-9.5938-1.8275-2.2268-5.4375-4.9687-5.4375-4.9688-0.40763-0.309-1.099-0.35021-1.5312-0.09375 0 0-4.9052 4.0592-8.9062 6.5938-0.78438 2.4908-3.2922 8.1916-5.25 12.344-1.8728-0.88822-3.1875-1.7188-3.1875-1.7188-0.42307-0.27648-1.0403-0.13909-1.375 0.28125 0 0-2.6773 3.8133-3.6875 5.9688-1.5114 3.2251-6.1473 6.6076-7.5312 11.156z" fill="url(#a)" stroke="#000"/>
<path d="m770.85 499.03c0.50406 2.457 2.0185 13.098 3.5195 14.368l4.9106 1.8903c0.44656 0.21393 1.0379 0.78189 1.3131 1.261 0 0 4.1129 9.6378 5.6334 11.083l14.166 2.8898c0.48049 0.02877 1.0687 0.46663 1.309 0.97329 0 0 8.7822 18.521 8.7822 21.775-1.619 2.3369-3.3388 4.5875-5.1549 6.7442-6.4676 7.6844-13.478 15.269-21.033 21.129l-56.532-0.10968c-8.2716-5.8452-15.962-13.383-22.391-21.019-3.4178-4.0595-6.4958-8.4568-9.2073-13.124 3.5194-2.8023 11.826-12.066 11.826-12.066 0.35416-0.39407 1.0123-0.54919 1.4609-0.34403 0 0 0.20632 0.09383 0.57083 0.23269 3.1756-3.8681 11.398-14.853 11.398-14.853 0.31523-0.44161 0.9599-0.72058 1.4332-0.61925l1.9148-0.2427c1.384-4.5487 6.0471-7.9252 7.5584-11.15 1.0102-2.1555 3.6786-5.9924 3.6786-5.9924 0.3347-0.42034 0.95375-0.54044 1.3768-0.26396 0 0 1.3038 0.82191 3.1766 1.7101 1.9578-4.1521 4.4691-9.8555 5.2535-12.346 4.001-2.5346 8.9188-6.5978 8.9188-6.5978 0.43219-0.25645 1.118-0.21392 1.5256 0.09508 0 0 3.6078 2.7397 5.4352 4.9665s9.1569 9.6115 9.1569 9.6115zm-60.827 35.683c1.9363 0.7431 8.3243 2.761 11.72-1.3749m3.0266-14.34 7.3192-0.9295c0.47843-0.04754 1.1191 0.28523 1.423 0.73935 0 0 4.6088 7.1808 8.1375 9.7604 3.5297 2.5808 6.9045 2.6234 6.9045 2.6234 0.43318 0.25145 1.0102 0.85319 1.2834 1.3336 0 0 4.2309 7.4936 5.1765 8.6457 0.94553 1.1509 3.3234 3.3083 4.2689 5.689m-18.725-43.558c3.8346 1.8177 10.069 3.9119 12.438-0.21517m-7.1826-12.131c2.3316 1.3048 7.1067 2.0879 8.6693 1.6889m16.367 6.3864c0.36961 0.37155-0.34595 1.7051-0.72171 2.0692 0 0-3.5205 3.369-4.4024 6.5941m-32.371 10.923c-1.2598 3.07-4.6807 6.5828-5.5636 7.6574m20.763 4.9177c-1.6386 3.3777-3.2444 7.0607-4.6314 8.7496m-25.771 32.275c4.0944-3.4052 7.2452-5.0941 9.388-5.0941 2.1426 0 14.002-1.4312 14.002-1.4312 0.47843-0.05755 1.0297-0.54169 1.2259-1.0759 0 0 1.7854-4.8639 2.4157-7.3209 0.63038-2.457 5.0421-5.8372 7.31-6.9106 2.268-1.0746 14.303-6.6779 15.122-7.6775 0.82035-0.99956 3.4138-1.171 3.4138-1.171 0.47941-0.03252 1.0791 0.34904 1.3336 0.84444l2.6058 5.1041c0.25354 0.49666 2.5585 1.3098 2.811 1.809l4.0441 6.0899c0.29569 0.46037 0.93124 0.83693 1.4117 0.83693 0 0 1.2895 0.34403 1.6222 0.76562l2.0656 2.6146c0.33272 0.42159 0.99801 0.77188 1.4785 0.78063l4.7084-1.7477c0.46504-0.14512 1.1303 0.06755 1.4774 0.47288 0 0 4.3203 5.0291 5.5554 6.5328m-28.493-23.951c-1.0708 1.3048-3.4024 5.6246-3.4024 6.853m6.1231-35.142c-1.0092 1.2298-4.6118 4.5837-5.2412 6.4264m17.098 7.8076c-1.5133 1.8427-3.8655 3.7092-4.4959 4.939m-80.948 12.914 7.7648-8.5069m-6.042 9.7454 7.0626-7.7362m-5.0985 8.712 6.0728-6.6504m-4.1539 7.675 5.1272-5.617m-3.2083 6.6429 4.1816-4.5812m-2.2628 5.6045 3.2361-3.5454m-1.3162 4.5699 2.2906-2.5083m19.133-26.934c1.4907 2.5083 6.3244 7.8388 9.2063 9.8892m-10.135-7.3334c1.8111 2.6021 5.7607 6.8906 8.3767 8.8659m-9.3377-6.4314c1.8809 2.507 5.1939 6.0649 7.581 7.9539m-8.5286-5.5457c1.8028 2.2844 4.5174 5.1754 6.6518 6.9569m-7.7124-4.7138c1.7403 2.1367 4.1406 4.6725 6.0985 6.3351m9.4835 26.413c0.74743-3.4028 2.4702-7.8313 3.5338-9.1286m-1.5791 9.0661c0.60582-2.7285 1.8295-6.0937 2.8337-7.9777m-0.87786 7.9139c0.4579-2.0392 1.2546-4.4236 2.0462-6.2776m-0.09142 6.2125c0.36854-1.6226 0.94964-3.4566 1.5678-5.0641m0.38809 5.0003c0.25864-1.1234 0.61699-2.3456 1.0185-3.5216m0.93732 3.459c0.14373-0.623 0.31827-1.2735 0.51441-1.9303m-8.2227-70.811c-0.89625 2.8861-2.6735 6.6291-3.6344 8.7571m5.3387-8.1141c-0.92919 2.7472-2.4958 6.0636-3.3942 8.044m5.1375-7.5561c-0.93017 2.6096-2.3429 5.6133-3.1909 7.4836m5.0215-7.5799c-0.91785 2.5195-2.2495 5.6896-3.0759 7.5086m0.71457 7.3559c1.6888-0.5029 3.3203-1.6188 4.0985-2.8273m-2.7957 4.3435c1.4784-0.45287 2.9044-1.3686 3.7494-2.4019m-2.4445 3.9169c1.2854-0.40408 2.5287-1.1534 3.3767-2.0241m-2.0759 3.5404c1.1058-0.35529 2.1766-0.96578 2.9887-1.6851m12.676-8.8021c0.4528 2.2681 1.0483 5.8247 1.5554 7.8776m-2.8849-6.6166c0.35515 1.849 0.7751 4.2484 1.1663 6.0674m-2.4189-4.3773c0.23203 1.2448 0.48147 2.6121 0.72582 3.8418m3.4209 36.282c0.78438 1.8177 2.079 3.7756 2.9024 4.7801m-3.4516-2.5808c0.65396 1.515 1.6631 3.1288 2.4578 4.2059m-3.0071-2.0066c0.57289 1.3273 1.4179 2.7297 2.1529 3.7818m-2.7021-1.5825c0.49691 1.1534 1.2001 2.3644 1.8583 3.3514m11.556-28.204c-1.4908-2.8673-3.0606-8.7934-4.5502-8.7934m2.9701 9.7279c-1.1252-2.3844-2.2906-6.2138-3.4271-7.6887m1.8316 8.5457c-0.84286-1.9291-1.7053-4.4949-2.5585-6.1275m0.9733 6.9694c-0.5811-1.3986-1.1694-3.025-1.7577-4.371m0.19302 5.2392c-0.3347-0.83192-0.67038-1.7151-1.0062-2.5533m9.2145 33.842c1.0482 0.95077 3.1816 1.7039 5.0225 1.4987m-5.5831 0.37656c0.96196 0.82692 2.7351 1.49 4.39 1.4737m-4.7874 0.52667c0.88294 0.65303 2.2607 1.171 3.6283 1.271m-4.0194 0.70682c0.7618 0.49791 1.8069 0.89573 2.8839 1.0534m-3.2699 0.91198c0.60985 0.35529 1.3644 0.64678 2.157 0.81566m22.312-19.96c-1.5893-3.8744-6.001-14.045-6.7966-15.498m5.3818 17.14c-1.4979-3.5979-4.4918-10.508-5.8716-13.478m4.5236 15.291c-1.3727-3.2726-3.6632-8.5657-5.0841-11.708m3.737 13.522c-1.2166-2.8798-2.9825-6.9631-4.2996-9.9168m2.9517 11.737c-1.0328-2.437-2.3767-5.5457-3.5154-8.1216m2.1642 9.9355c-0.82849-1.9466-1.8152-4.2309-2.7269-6.3088" fill="none" stroke="#1b1a1c" stroke-linecap="round" stroke-linejoin="round" stroke-width=".79332"/>
<path transform="translate(390.34 87.244)" d="m285 480.97v12.938h56.25c-1.8336-3.1074-4.4688-8.9375-4.4688-8.9375-0.27516-0.47913-0.86593-1.0673-1.3125-1.2812l-4.9062-1.875c-1.501-1.2698-3.0272-11.918-3.5312-14.375 0 0-7.3288-7.367-9.1562-9.5938-1.8275-2.2268-5.4062-4.9688-5.4062-4.9688-0.40764-0.309-1.0991-0.35019-1.5312-0.09375 0 0-4.9365 4.0592-8.9375 6.5938-0.78437 2.4908-3.2922 8.1916-5.25 12.344-1.8728-0.88822-3.1562-1.7188-3.1562-1.7188-0.42306-0.27648-1.0716-0.13908-1.4062 0.28125 0 0-2.646 3.8132-3.6562 5.9688-0.70202 1.498-2.1137 3.0531-3.5312 4.7188z" fill="#806600"/>
<path d="m675.47 568.07c1.3798-1.6173 2.7106-3.1088 3.395-4.5693 1.0102-2.1555 3.6785-5.9924 3.6785-5.9924 0.3347-0.42034 0.95376-0.54044 1.3768-0.26396 0 0 1.3038 0.82191 3.1766 1.7101 1.9578-4.1521 4.4691-9.8555 5.2535-12.346 4.001-2.5346 8.9188-6.5978 8.9188-6.5978 0.43219-0.25645 1.118-0.21392 1.5256 0.09508 0 0 3.6077 2.7397 5.4352 4.9665s9.1569 9.6115 9.1569 9.6115c0.50406 2.457 2.0185 13.098 3.5195 14.368l4.9106 1.8903c0.44656 0.21393 1.0379 0.78189 1.3131 1.261 0 0 2.3615 5.5338 4.1673 8.8436m-55.881-6.9174 3.2094-0.40757c0.47843-0.04754 1.1191 0.28523 1.423 0.73935 0 0 2.0329 3.4984 4.7406 6.5725m2.3055-22.079c3.8346 1.8177 10.069 3.9119 12.438-0.21517m-7.1827-12.131c2.3316 1.3048 7.1067 2.0879 8.6693 1.6889m16.367 6.3864c0.36961 0.37155-0.34595 1.7051-0.72171 2.0692 0 0-3.5205 3.369-4.4024 6.5941m-32.371 10.923c-0.93222 2.2718-3.0479 4.7861-4.4428 6.3754m45.458-11.593c-1.0092 1.2298-4.6118 4.5837-5.2412 6.4264m-35.558 2.5308c0.50207 0.84477 0.9467 1.6604 2.0049 2.9123m-2.934-0.35647c0.18581 0.26697-0.0425 0.20239 0.18459 0.50054m14.497-33.726c-0.89625 2.8861-2.6735 6.6291-3.6344 8.7571m5.3387-8.1141c-0.92919 2.7472-2.4958 6.0636-3.3942 8.044m5.1375-7.5561c-0.93017 2.6096-2.3429 5.6133-3.1909 7.4836m5.0215-7.5799c-0.91784 2.5195-2.2495 5.6896-3.0759 7.5086m0.71457 7.3559c1.6888-0.5029 3.3203-1.6188 4.0985-2.8273m-2.7957 4.3435c1.4784-0.45287 2.9044-1.3686 3.7494-2.4019m-2.4445 3.9169c1.2854-0.40408 2.5287-1.1534 3.3767-2.0241m-2.0759 3.5404c1.1058-0.35529 2.1766-0.96578 2.9887-1.6851m12.676-8.8021c0.45279 2.2681 1.0483 5.8247 1.5554 7.8776m-2.8849-6.6166c0.35515 1.849 0.7751 4.2484 1.1663 6.0674m-2.4189-4.3773c0.23203 1.2448 0.48148 2.6121 0.72582 3.8418m14.738 17.084c-1.3545-3.0503-2.7601-7.8505-4.1008-7.8505m2.0963 7.669c-0.84814-2.1373-1.7087-4.5337-2.5532-5.6298m0.71043 5.764c-0.47862-1.2241-0.95941-2.4314-1.4373-3.3458m-0.46564 3.1968c-0.12076-0.29571-0.19791-0.32202-0.31873-0.59848" fill="none" stroke="#1b1a1c" stroke-linecap="round" stroke-linejoin="round" stroke-width=".79332"/>
<path transform="translate(390.34 87.244)" d="m377.5 493.91h61.594v-13.625l-2.4375-0.9375c-1.501-1.2698-2.9959-11.918-3.5-14.375 0 0-7.3288-7.3669-9.1562-9.5938-1.8275-2.2268-5.4375-4.9687-5.4375-4.9688-0.40763-0.309-1.099-0.35021-1.5312-0.09375 0 0-4.9365 4.0592-8.9375 6.5938-0.78438 2.4908-3.2922 8.1916-5.25 12.344-1.8728-0.88822-3.1562-1.7187-3.1562-1.7188-0.42307-0.27648-1.0403-0.13909-1.375 0.28125 0 0-2.6773 3.8133-3.6875 5.9688-1.5114 3.2251-6.1786 6.6076-7.5625 11.156l-1.9062 0.25c-0.47334-0.10133-1.1223 0.1834-1.4375 0.625 0 0-3.4807 4.4965-6.2188 8.0938z" fill="#806600"/>
<path d="m768.1 580.93c3.033-3.9727 5.9551-7.8765 5.9551-7.8765 0.31523-0.44161 0.9599-0.72058 1.4332-0.61925l1.9148-0.2427c1.384-4.5487 6.0471-7.9252 7.5584-11.15 1.0102-2.1555 3.6786-5.9924 3.6786-5.9924 0.3347-0.42034 0.95375-0.54044 1.3768-0.26396 0 0 1.3038 0.82191 3.1766 1.7101 1.9578-4.1521 4.4691-9.8555 5.2535-12.346 4.001-2.5346 8.9188-6.5978 8.9188-6.5978 0.43219-0.25645 1.118-0.21392 1.5256 0.09508 0 0 3.6078 2.7397 5.4352 4.9665s9.1569 9.6115 9.1569 9.6115c0.50406 2.457 2.0185 13.098 3.5195 14.368l2.5097 0.96608m-52.11 4.6334 7.3192-0.9295c0.47843-0.04754 1.1191 0.28523 1.423 0.73935 0 0 3.9224 6.1114 7.3006 9.0836m-0.2545-24.59c3.8346 1.8177 10.069 3.9119 12.438-0.21517m-7.1826-12.131c2.3316 1.3048 7.1067 2.0879 8.6693 1.6889m16.367 6.3864c0.36961 0.37155-0.34595 1.7051-0.72171 2.0692 0 0-3.5205 3.369-4.4024 6.5941m-32.371 10.923c-1.2598 3.07-4.6807 6.5828-5.5636 7.6574m46.578-12.875c-1.0092 1.2298-4.6118 4.5837-5.2412 6.4264m-35.558 2.5308c0.81613 1.3732 2.6342 3.5923 4.5854 5.656m-5.5145-3.1001c0.61765 0.88743 1.484 1.971 2.4614 3.092m-3.4224-0.65758c0.13012 0.17343 0.26709 0.35189 0.41013 0.53448m15.232-36.195c-0.89625 2.8861-2.6735 6.6291-3.6344 8.7571m5.3387-8.1141c-0.92919 2.7472-2.4958 6.0636-3.3942 8.044m5.1375-7.5561c-0.93017 2.6096-2.3429 5.6133-3.1909 7.4836m5.0215-7.5799c-0.91785 2.5195-2.2495 5.6896-3.0759 7.5086m0.71457 7.3559c1.6888-0.5029 3.3203-1.6188 4.0985-2.8273m-2.7957 4.3435c1.4784-0.45287 2.9044-1.3686 3.7494-2.4019m-2.4445 3.9169c1.2854-0.40408 2.5287-1.1534 3.3767-2.0241m-2.0759 3.5404c1.1058-0.35529 2.1766-0.96578 2.9887-1.6851m12.676-8.8021c0.4528 2.2681 1.0483 5.8247 1.5554 7.8776m-2.8849-6.6166c0.35515 1.849 0.7751 4.2484 1.1663 6.0674m-2.4189-4.3773c0.23203 1.2448 0.48147 2.6121 0.72582 3.8418" fill="none" stroke="#1b1a1c" stroke-linecap="round" stroke-linejoin="round" stroke-width=".79332"/>
<path d="m829.43 567.48v13.68h-154.09v-13.336" fill="none" stroke="#000" stroke-width=".77934"/>
</g>
<g transform="translate(30.356 43.942)" fill="#0071bc">
<g transform="matrix(26.287 0 0 26.287 51.422 650.81)">
<polygon transform="matrix(.95106 .30902 -.30902 .95106 0 -1)" points="0 0 0 1 0.5 1"/>
<polygon transform="matrix(-.95106 .30902 .30902 .95106 0 -1)" points="0 0 0 1 0.5 1"/>
<g transform="matrix(.30902 .95106 -.95106 .30902 0 0)">
<polygon transform="matrix(.95106 .30902 -.30902 .95106 0 -1)" points="0 0 0 1 0.5 1"/>
<polygon transform="matrix(-.95106 .30902 .30902 .95106 0 -1)" points="0 0 0 1 0.5 1"/>
</g>
<g transform="matrix(.30902 -.95106 .95106 .30902 0 0)">
<polygon transform="matrix(.95106 .30902 -.30902 .95106 0 -1)" points="0 0 0 1 0.5 1"/>
<polygon transform="matrix(-.95106 .30902 .30902 .95106 0 -1)" points="0 0 0 1 0.5 1"/>
</g>
<g transform="matrix(-.80902 .58778 -.58778 -.80902 0 0)">
<polygon transform="matrix(.95106 .30902 -.30902 .95106 0 -1)" points="0 0 0 1 0.5 1"/>
<polygon transform="matrix(-.95106 .30902 .30902 .95106 0 -1)" points="0 0 0 1 0.5 1"/>
</g>
<g transform="matrix(-.80902 -.58778 .58778 -.80902 0 0)">
<polygon transform="matrix(.95106 .30902 -.30902 .95106 0 -1)" points="0 0 0 1 0.5 1"/>
<polygon transform="matrix(-.95106 .30902 .30902 .95106 0 -1)" points="0 0 0 1 0.5 1"/>
</g>
</g>
<g transform="matrix(26.287 0 0 26.287 45.422 478.86)">
<polygon transform="matrix(.95106 .30902 -.30902 .95106 0 -1)" points="0 0 0 1 0.5 1"/>
<polygon transform="matrix(-.95106 .30902 .30902 .95106 0 -1)" points="0 0 0 1 0.5 1"/>
<g transform="matrix(.30902 .95106 -.95106 .30902 0 0)">
<polygon transform="matrix(.95106 .30902 -.30902 .95106 0 -1)" points="0 0 0 1 0.5 1"/>
<polygon transform="matrix(-.95106 .30902 .30902 .95106 0 -1)" points="0 0 0 1 0.5 1"/>
</g>
<g transform="matrix(.30902 -.95106 .95106 .30902 0 0)">
<polygon transform="matrix(.95106 .30902 -.30902 .95106 0 -1)" points="0 0 0 1 0.5 1"/>
<polygon transform="matrix(-.95106 .30902 .30902 .95106 0 -1)" points="0 0 0 1 0.5 1"/>
</g>
<g transform="matrix(-.80902 .58778 -.58778 -.80902 0 0)">
<polygon transform="matrix(.95106 .30902 -.30902 .95106 0 -1)" points="0 0 0 1 0.5 1"/>
<polygon transform="matrix(-.95106 .30902 .30902 .95106 0 -1)" points="0 0 0 1 0.5 1"/>
</g>
<g transform="matrix(-.80902 -.58778 .58778 -.80902 0 0)">
<polygon transform="matrix(.95106 .30902 -.30902 .95106 0 -1)" points="0 0 0 1 0.5 1"/>
<polygon transform="matrix(-.95106 .30902 .30902 .95106 0 -1)" points="0 0 0 1 0.5 1"/>
</g>
</g>
<g transform="matrix(26.287 0 0 26.287 473.42 650.81)">
<polygon transform="matrix(.95106 .30902 -.30902 .95106 0 -1)" points="0 0 0 1 0.5 1"/>
<polygon transform="matrix(-.95106 .30902 .30902 .95106 0 -1)" points="0 0 0 1 0.5 1"/>
<g transform="matrix(.30902 .95106 -.95106 .30902 0 0)">
<polygon transform="matrix(.95106 .30902 -.30902 .95106 0 -1)" points="0 0 0 1 0.5 1"/>
<polygon transform="matrix(-.95106 .30902 .30902 .95106 0 -1)" points="0 0 0 1 0.5 1"/>
</g>
<g transform="matrix(.30902 -.95106 .95106 .30902 0 0)">
<polygon transform="matrix(.95106 .30902 -.30902 .95106 0 -1)" points="0 0 0 1 0.5 1"/>
<polygon transform="matrix(-.95106 .30902 .30902 .95106 0 -1)" points="0 0 0 1 0.5 1"/>
</g>
<g transform="matrix(-.80902 .58778 -.58778 -.80902 0 0)">
<polygon transform="matrix(.95106 .30902 -.30902 .95106 0 -1)" points="0 0 0 1 0.5 1"/>
<polygon transform="matrix(-.95106 .30902 .30902 .95106 0 -1)" points="0 0 0 1 0.5 1"/>
</g>
<g transform="matrix(-.80902 -.58778 .58778 -.80902 0 0)">
<polygon transform="matrix(.95106 .30902 -.30902 .95106 0 -1)" points="0 0 0 1 0.5 1"/>
<polygon transform="matrix(-.95106 .30902 .30902 .95106 0 -1)" points="0 0 0 1 0.5 1"/>
</g>
</g>
<g transform="matrix(26.287 0 0 26.287 479.42 478.86)">
<polygon transform="matrix(.95106 .30902 -.30902 .95106 0 -1)" points="0 0 0 1 0.5 1"/>
<polygon transform="matrix(-.95106 .30902 .30902 .95106 0 -1)" points="0 0 0 1 0.5 1"/>
<g transform="matrix(.30902 .95106 -.95106 .30902 0 0)">
<polygon transform="matrix(.95106 .30902 -.30902 .95106 0 -1)" points="0 0 0 1 0.5 1"/>
<polygon transform="matrix(-.95106 .30902 .30902 .95106 0 -1)" points="0 0 0 1 0.5 1"/>
</g>
<g transform="matrix(.30902 -.95106 .95106 .30902 0 0)">
<polygon transform="matrix(.95106 .30902 -.30902 .95106 0 -1)" points="0 0 0 1 0.5 1"/>
<polygon transform="matrix(-.95106 .30902 .30902 .95106 0 -1)" points="0 0 0 1 0.5 1"/>
</g>
<g transform="matrix(-.80902 .58778 -.58778 -.80902 0 0)">
<polygon transform="matrix(.95106 .30902 -.30902 .95106 0 -1)" points="0 0 0 1 0.5 1"/>
<polygon transform="matrix(-.95106 .30902 .30902 .95106 0 -1)" points="0 0 0 1 0.5 1"/>
</g>
<g transform="matrix(-.80902 -.58778 .58778 -.80902 0 0)">
<polygon transform="matrix(.95106 .30902 -.30902 .95106 0 -1)" points="0 0 0 1 0.5 1"/>
<polygon transform="matrix(-.95106 .30902 .30902 .95106 0 -1)" points="0 0 0 1 0.5 1"/>
</g>
</g>
<g transform="matrix(26.287 0 0 26.287 153.92 306.91)">
<polygon transform="matrix(.95106 .30902 -.30902 .95106 0 -1)" points="0 0 0 1 0.5 1"/>
<polygon transform="matrix(-.95106 .30902 .30902 .95106 0 -1)" points="0 0 0 1 0.5 1"/>
<g transform="matrix(.30902 .95106 -.95106 .30902 0 0)">
<polygon transform="matrix(.95106 .30902 -.30902 .95106 0 -1)" points="0 0 0 1 0.5 1"/>
<polygon transform="matrix(-.95106 .30902 .30902 .95106 0 -1)" points="0 0 0 1 0.5 1"/>
</g>
<g transform="matrix(.30902 -.95106 .95106 .30902 0 0)">
<polygon transform="matrix(.95106 .30902 -.30902 .95106 0 -1)" points="0 0 0 1 0.5 1"/>
<polygon transform="matrix(-.95106 .30902 .30902 .95106 0 -1)" points="0 0 0 1 0.5 1"/>
</g>
<g transform="matrix(-.80902 .58778 -.58778 -.80902 0 0)">
<polygon transform="matrix(.95106 .30902 -.30902 .95106 0 -1)" points="0 0 0 1 0.5 1"/>
<polygon transform="matrix(-.95106 .30902 .30902 .95106 0 -1)" points="0 0 0 1 0.5 1"/>
</g>
<g transform="matrix(-.80902 -.58778 .58778 -.80902 0 0)">
<polygon transform="matrix(.95106 .30902 -.30902 .95106 0 -1)" points="0 0 0 1 0.5 1"/>
<polygon transform="matrix(-.95106 .30902 .30902 .95106 0 -1)" points="0 0 0 1 0.5 1"/>
</g>
</g>
<g transform="matrix(26.287 0 0 26.287 370.92 306.91)">
<polygon transform="matrix(.95106 .30902 -.30902 .95106 0 -1)" points="0 0 0 1 0.5 1"/>
<polygon transform="matrix(-.95106 .30902 .30902 .95106 0 -1)" points="0 0 0 1 0.5 1"/>
<g transform="matrix(.30902 .95106 -.95106 .30902 0 0)">
<polygon transform="matrix(.95106 .30902 -.30902 .95106 0 -1)" points="0 0 0 1 0.5 1"/>
<polygon transform="matrix(-.95106 .30902 .30902 .95106 0 -1)" points="0 0 0 1 0.5 1"/>
</g>
<g transform="matrix(.30902 -.95106 .95106 .30902 0 0)">
<polygon transform="matrix(.95106 .30902 -.30902 .95106 0 -1)" points="0 0 0 1 0.5 1"/>
<polygon transform="matrix(-.95106 .30902 .30902 .95106 0 -1)" points="0 0 0 1 0.5 1"/>
</g>
<g transform="matrix(-.80902 .58778 -.58778 -.80902 0 0)">
<polygon transform="matrix(.95106 .30902 -.30902 .95106 0 -1)" points="0 0 0 1 0.5 1"/>
<polygon transform="matrix(-.95106 .30902 .30902 .95106 0 -1)" points="0 0 0 1 0.5 1"/>
</g>
<g transform="matrix(-.80902 -.58778 .58778 -.80902 0 0)">
<polygon transform="matrix(.95106 .30902 -.30902 .95106 0 -1)" points="0 0 0 1 0.5 1"/>
<polygon transform="matrix(-.95106 .30902 .30902 .95106 0 -1)" points="0 0 0 1 0.5 1"/>
</g>
</g>
<g transform="matrix(26.287 0 0 26.287 261.35 825.8)">
<polygon transform="matrix(.95106 .30902 -.30902 .95106 0 -1)" points="0 0 0 1 0.5 1"/>
<polygon transform="matrix(-.95106 .30902 .30902 .95106 0 -1)" points="0 0 0 1 0.5 1"/>
</g>
<g transform="matrix(8.123 25 -25 8.123 261.35 825.8)">
<polygon transform="matrix(.95106 .30902 -.30902 .95106 0 -1)" points="0 0 0 1 0.5 1"/>
<polygon transform="matrix(-.95106 .30902 .30902 .95106 0 -1)" points="0 0 0 1 0.5 1"/>
</g>
<g transform="matrix(8.123 -25 25 8.123 261.35 825.8)">
<polygon transform="matrix(.95106 .30902 -.30902 .95106 0 -1)" points="0 0 0 1 0.5 1"/>
<polygon transform="matrix(-.95106 .30902 .30902 .95106 0 -1)" points="0 0 0 1 0.5 1"/>
</g>
<g transform="matrix(-21.266 15.451 -15.451 -21.266 261.35 825.8)">
<polygon transform="matrix(.95106 .30902 -.30902 .95106 0 -1)" points="0 0 0 1 0.5 1"/>
<polygon transform="matrix(-.95106 .30902 .30902 .95106 0 -1)" points="0 0 0 1 0.5 1"/>
</g>
<g transform="matrix(-21.266 -15.451 15.451 -21.266 261.35 825.8)">
<polygon transform="matrix(.95106 .30902 -.30902 .95106 0 -1)" points="0 0 0 1 0.5 1"/>
<polygon transform="matrix(-.95106 .30902 .30902 .95106 0 -1)" points="0 0 0 1 0.5 1"/>
</g>
</g>
<path d="m42.18 312.34c0.20355 120.28-0.40966 240.57 0.31112 360.84 3.8332 107.94 86.48 206.52 192.02 229.32 97.636 23.777 206.94-18.953 262.05-103.22 33.005-47.127 45.16-105.45 42.438-162.22v-324.71h-496.81z" fill="none" stroke="#000" stroke-width="2.9834"/>
</g>
</svg>
