<?xml version="1.0" encoding="UTF-8" standalone="no"?>
<!-- Created with Inkscape (http://www.inkscape.org/) -->
<svg
   xmlns:svg="http://www.w3.org/2000/svg"
   xmlns="http://www.w3.org/2000/svg"
   version="1.0"
   width="899.99994"
   height="599.99994"
   id="svg2">
  <defs
     id="defs12" />
  <rect
     width="899.99994"
     height="599.99994"
     ry="0"
     x="0"
     y="0"
     style="fill:#0261a5;fill-opacity:1"
     id="blue" />
  <path
     d="M 449.99998,78.324244 L 616.66663,299.99995 L 449.99998,521.67577 L 283.33333,299.99995 L 449.99998,78.324244 z "
     style="fill:#ffffff"
     id="path1307" />
  <path
     d="M 449.68637,114.07217 L 360.96765,232.50036 L 420.32254,232.50036 L 420.32254,261.95375 L 361.27487,261.95375 L 361.27487,313.48767 L 420.32254,313.48767 L 420.32254,339.98425 L 361.27487,339.98425 L 361.27487,392.74701 L 420.32254,392.74701 L 420.32254,445.85543 L 479.05019,445.85543 L 479.05019,392.74701 L 538.7251,392.74701 L 538.7251,339.98425 L 479.05019,339.98425 L 479.05019,313.48767 L 538.7251,313.48767 L 538.7251,261.95375 L 479.05019,261.95375 L 479.0502,232.50036 L 539.03229,232.50036 L 449.68637,114.07217 z "
     style="fill:#ff0000;fill-opacity:1;fill-rule:evenodd;stroke:none;stroke-width:1px;stroke-linecap:butt;stroke-linejoin:miter;stroke-opacity:1"
     id="path1309" />
</svg>
