<?xml version="1.0" encoding="UTF-8" standalone="no"?>
<!-- Created with Inkscape (http://www.inkscape.org/) -->

<svg
   xmlns:dc="http://purl.org/dc/elements/1.1/"
   xmlns:cc="http://creativecommons.org/ns#"
   xmlns:rdf="http://www.w3.org/1999/02/22-rdf-syntax-ns#"
   xmlns:svg="http://www.w3.org/2000/svg"
   xmlns="http://www.w3.org/2000/svg"
   xmlns:sodipodi="http://sodipodi.sourceforge.net/DTD/sodipodi-0.dtd"
   xmlns:inkscape="http://www.inkscape.org/namespaces/inkscape"
   width="900"
   height="600"
   id="svg2"
   version="1.1"
   inkscape:version="0.48.2 r9819"
   sodipodi:docname="Documento nuevo 1">
  <title
     id="title3084">Flag of the Chilean Communist Party (Proletarian Action)</title>
  <defs
     id="defs4" />
  <sodipodi:namedview
     id="base"
     pagecolor="#ffffff"
     bordercolor="#666666"
     borderopacity="1.0"
     inkscape:pageopacity="0.0"
     inkscape:pageshadow="2"
     inkscape:zoom="0.7"
     inkscape:cx="373.82251"
     inkscape:cy="276.56854"
     inkscape:document-units="px"
     inkscape:current-layer="layer1"
     showgrid="false"
     inkscape:window-width="1440"
     inkscape:window-height="848"
     inkscape:window-x="-8"
     inkscape:window-y="-8"
     inkscape:window-maximized="1" />
  <metadata
     id="metadata7">
    <rdf:RDF>
      <cc:Work
         rdf:about="">
        <dc:format>image/svg+xml</dc:format>
        <dc:type
           rdf:resource="http://purl.org/dc/dcmitype/StillImage" />
        <dc:title>Flag of the Chilean Communist Party (Proletarian Action)</dc:title>
      </cc:Work>
    </rdf:RDF>
  </metadata>
  <g
     inkscape:label="Capa 1"
     inkscape:groupmode="layer"
     id="layer1"
     transform="translate(0,-452.36218)">
    <rect
       style="fill:#d40000"
       id="rect3011"
       width="902.85718"
       height="602.85712"
       x="-1.4285715"
       y="450.93362" />
    <path
       inkscape:connector-curvature="0"
       d="m 331.33281,492.4025 c 187.91194,89.9672 223.42134,187.98663 221.76254,223.11989 -1.65881,35.13325 -18.54398,46.99719 -21.14542,48.2175 -19.4391,6.70616 -61.12067,7.48445 -95.56602,5.0595 l 0,-115.72727 45.06102,0.0503 0,-50.64068 -44.98098,0 0,-45.06291 -57.40099,0.37633 c -12.23178,27.46153 -22.46492,37.56381 -52.53853,44.68657 l 0,51.34317 52.53853,0 0,113.24353 -52.53853,-28.26891 52.53853,101.87258 56.02449,0 0.096,-20.11143 c 0,0 88.96616,18.71882 108.55801,15.77421 34.38146,-5.16748 59.87546,-52.78657 63.68311,-97.77969 C 616.43519,632.08042 442.61285,519.5641 326.52443,486.90945 z"
       id="path3770"
       style="fill:#ffe500;fill-opacity:1;stroke:none" />
    <path
       inkscape:connector-curvature="0"
       d="m 167.37756,875.43811 0,136.70529 43.77345,0 0,-33.98935 c 35.13209,5.7923 63.9796,-19.11485 63.9796,-46.8802 0,-27.76534 -16.75095,-45.21527 -36.79357,-55.81137 z m 43.77345,38.18633 24.44996,0 0,29.94627 -24.44996,0 z"
       id="path3845"
       style="fill:#ffe500;fill-opacity:1;fill-rule:evenodd;stroke:none" />
    <path
       inkscape:connector-curvature="0"
       d="m 344.93684,876.88206 c -28.61628,0 -51.73737,18.67711 -53.93865,42.54724 l 0,50.06199 c 2.20128,24.59277 25.32237,44.07201 53.93865,44.07201 28.61634,0 51.7374,-19.47894 53.93869,-44.07201 l 0,-14.44863 -38.93018,0 0,15.86445 c 0,6.35222 -8.12451,11.21767 -15.15976,11.21767 -6.44974,0 -15.15977,-4.84036 -15.15977,-11.21767 l 0,-51.3689 c 0,-6.29411 8.15717,-11.18136 15.15977,-11.18136 7.33034,0 15.15976,4.81257 15.15976,11.18136 l 0,15.90075 38.93018,0 0,-16.00966 c -2.20129,-23.87003 -25.32235,-42.54724 -53.93869,-42.54724 z"
       id="path4021"
       style="fill:#ffe500;fill-opacity:1;fill-rule:evenodd;stroke:none" />
    <path
       inkscape:connector-curvature="0"
       d="m 584.56569,875.43811 0,136.70529 43.77344,0 0,-33.98935 c 35.13212,5.7923 63.97958,-19.11485 63.97958,-46.8802 0,-27.76534 -16.75094,-45.21527 -36.79355,-55.81137 z m 43.77344,38.18633 24.44997,0 0,29.94627 -24.44997,0 z"
       id="path3845-5"
       style="fill:#ffe500;fill-opacity:1;fill-rule:evenodd;stroke:none" />
    <path
       inkscape:connector-curvature="0"
       d="m 502.95277,875.45349 -36.44406,136.68121 39.2806,0 2.94428,-12.19784 24.91841,0 2.90835,12.19784 39.28062,0 -36.4441,-136.68121 -36.4441,0 z m 18.24001,72.49729 3.59055,14.99321 -7.18111,0 3.59056,-14.99321 z"
       id="rect4070"
       style="fill:#ffe500;fill-opacity:1;fill-rule:evenodd;stroke:none" />
    <path
       inkscape:connector-curvature="0"
       d="m 457.78401,875.45362 c -24.71635,12.80403 -41.61233,38.57911 -41.61233,68.31402 0,29.74119 16.88745,55.56582 41.61233,68.36706 -10.51768,-16.92164 -17.11099,-41.28983 -17.11099,-68.36706 0,-27.05475 6.60855,-51.3941 17.11099,-68.31402 z"
       id="path3005"
       style="fill:#ffe500;fill-opacity:1;fill-rule:evenodd;stroke:none" />
    <path
       inkscape:connector-curvature="0"
       d="m 701.07669,875.50664 c 10.49098,16.91862 17.04441,41.24969 17.04441,68.28751 0,27.06573 -6.56782,51.41981 -17.0777,68.34055 24.7064,-12.80724 41.57904,-38.61295 41.57904,-68.34055 0,-29.71224 -16.86018,-55.47346 -41.54575,-68.28751 z"
       id="path2998"
       style="fill:#ffe500;fill-opacity:1;fill-rule:evenodd;stroke:none" />
  </g>
</svg>
