<?xml version="1.0" encoding="UTF-8"?>
<svg version="1.0" viewBox="0 0 600 400" xmlns="http://www.w3.org/2000/svg" xmlns:cc="http://creativecommons.org/ns#" xmlns:dc="http://purl.org/dc/elements/1.1/" xmlns:rdf="http://www.w3.org/1999/02/22-rdf-syntax-ns#">
<metadata>
<rdf:RDF>
<cc:Work rdf:about="">
<dc:format>image/svg+xml</dc:format>
<dc:type rdf:resource="http://purl.org/dc/dcmitype/StillImage"/>
<cc:license rdf:resource="http://web.resource.org/cc/PublicDomain"/>
<dc:title>Flag of Mandalay Division</dc:title>
<dc:date>29. May 2007</dc:date>
<dc:creator>
<cc:Agent>
<dc:title>Stefan Fussan</dc:title>
</cc:Agent>
</dc:creator>
<dc:subject>
<rdf:Bag>
<rdf:li>Flag</rdf:li>
<rdf:li>Mandalay Division</rdf:li>
<rdf:li>Wikivoyage</rdf:li>
</rdf:Bag>
</dc:subject>
<dc:description>Flag of Mandalay Division</dc:description>
</cc:Work>
<cc:License rdf:about="http://web.resource.org/cc/PublicDomain">
<cc:permits rdf:resource="http://web.resource.org/cc/Reproduction"/>
<cc:permits rdf:resource="http://web.resource.org/cc/Distribution"/>
<cc:permits rdf:resource="http://web.resource.org/cc/DerivativeWorks"/>
</cc:License>
</rdf:RDF>
</metadata>
<g>
<rect y="8.2934e-14" width="600" height="400" fill="#ef943a"/>
<path d="m171 62.351s-4.3528 5.2855-1.8655 11.815c2.4873 6.5291 9.5 9.8352 14.302 8.3946 6.2182-1.8655 7.7728-6.84 8.0837-12.436 0.31091-5.5964-4.3528-9.3273-6.2182-10.26-1.8655-0.93273-4.6637-1.8655-4.6637-1.8655" color="#000000" fill="none" stroke="#ce2921" stroke-linecap="round" stroke-linejoin="round" stroke-width="4"/>
<path d="m174.42 80.384s0-4.6637 4.9746-8.0837c4.9746-3.42 11.504-0.62182 11.504-0.62182" color="#000000" fill="none" stroke="#ce2921" stroke-linecap="round" stroke-linejoin="round" stroke-width="4"/>
<path d="m212.51 48.982s-3.42-1.5546-5.7518-0.46637c-2.3318 1.0882-4.6637 5.2855-0.77728 7.6173s7.3064-0.77728 10.416 0.77728c3.1091 1.5546 5.5964 5.13 4.8191 6.9955-0.77728 1.8655-2.1764 5.2855-6.0628 6.84-3.8864 1.5546-9.9492 3.1091-12.436 0.31091-2.4873-2.7982-1.2436-6.84 2.4873-7.9282 3.7309-1.0882 10.882 2.1764 13.836 3.42 2.9536 1.2436 9.1719 4.9746 11.193 6.6846s4.5082 5.4409 4.5082 7.3064c0 1.8655-1.3991 4.0418-4.1973 5.9073-2.7982 1.8655-5.2855 1.0882-5.2855 1.0882" color="#000000" fill="none" stroke="#ce2921" stroke-linecap="round" stroke-linejoin="round" stroke-width="4"/>
<path d="m216.39 77.896s-6.3737-0.93273-8.7055-0.31091c-2.741 0.73094-6.0628 4.0418-6.0628 7.6173 0 3.5755 3.5274 6.8135 7.3064 7.3064 3.5755 0.46637 7.4619-1.8655 8.7055-6.0628 1.1924-4.0244-1.2436-8.55-1.2436-8.55z" color="#000000" fill="none" stroke="#ce2921" stroke-linecap="round" stroke-linejoin="round" stroke-width="4"/>
<path d="m229.14 73.077s-2.1764-1.2436-5.13-0.46637c-2.9536 0.77728-4.0418 2.6427-4.0418 2.6427" color="#000000" fill="none" stroke="#ce2921" stroke-linecap="round" stroke-linejoin="round" stroke-width="4"/>
<path d="m251.22 41.675s-3.5784-2.8372-6.84-3.2646c-3.0866-0.40442-7.3064 1.71-9.7937 4.6637-1.9443 2.3088-2.5924 8.657-1.3991 11.193 1.2436 2.6427 7.4659 8.687 11.815 8.861 2.6452 0.10583 8.3132-3.4279 8.55-5.4409 0.31091-2.6427-1.5546-5.7519-4.6637-6.2182-2.5355-0.38032-5.4409 3.8864-6.9955 5.4409-1.5546 1.5546-2.1764 3.1091-2.1764 3.1091" color="#000000" fill="none" stroke="#ce2921" stroke-linecap="round" stroke-linejoin="round" stroke-width="4"/>
<path d="m275.62 56.288s-6.3531 0.99635-10.26-2.3318c-4.1973-3.5755-5.13-9.3273-3.42-13.369 1.496-3.536 6.3737-6.84 11.659-6.0628 5.2855 0.77728 9.7602 6.4681 10.882 8.861 2.3318 4.9746 4.0418 9.6382 8.2391 11.037 4.1973 1.3991 8.3946-1.71 10.105-3.1091s3.2646-6.5291 2.9536-9.6382c-0.3047-3.0469-2.7846-6.971-4.9746-8.2391-2.571-1.4888-8.55-1.0882-8.55-1.0882" color="#000000" fill="none" stroke="#ce2921" stroke-linecap="round" stroke-linejoin="round" stroke-width="4"/>
<path d="m325.37 35.379a3.9641 4.1196 0 1 1-7.9282 0 3.9641 4.1196 0 1 1 7.9282 0z" fill="none" stroke="#ce2921" stroke-width="4"/>
<path d="m323.97 52.402a4.1973 4.0418 0 1 1-8.3946 0 4.1973 4.0418 0 1 1 8.3946 0z" fill="none" stroke="#ce2921" stroke-width="4"/>
<path transform="translate(-11.037 11.348)" d="m368.43 34.602a11.892 12.048 0 1 1-23.785 0 11.892 12.048 0 1 1 23.785 0z" fill="none" stroke="#ce2921" stroke-width="4"/>
<path transform="matrix(.7706 0 0 .7706 102.23 -1.3898)" d="m368.43 34.602a11.892 12.048 0 1 1-23.785 0 11.892 12.048 0 1 1 23.785 0z" fill="none" stroke="#ce2921" stroke-width="4"/>
<path d="m360.03 42.919s3.4234-3.8388 8.0837-4.1973c4.0418-0.31091 7.6173 1.71 9.3273 7.4619 2.0802 6.9971 0.77728 9.6382-1.3991 12.436-1.9652 2.5267-5.9073 5.5964-8.7055 4.6637-2.7982-0.93273-4.9746-2.6427-4.9746-2.6427" color="#000000" fill="none" stroke="#ce2921" stroke-linecap="round" stroke-linejoin="round" stroke-width="4"/>
<path d="m365.79 63.439s-0.93273 6.9955-1.8655 10.105c-0.68039 2.268-1.5546 6.9955-0.77728 8.3946s4.8191 2.9537 4.8191 2.9537" color="#000000" fill="none" stroke="#ce2921" stroke-linecap="round" stroke-linejoin="round" stroke-width="4"/>
<path transform="translate(101.67 26.738)" d="m323.97 52.402a4.1973 4.0418 0 1 1-8.3946 0 4.1973 4.0418 0 1 1 8.3946 0z" fill="none" stroke="#ce2921" stroke-width="4"/>
<path transform="translate(109.29 12.281)" d="m323.97 52.402a4.1973 4.0418 0 1 1-8.3946 0 4.1973 4.0418 0 1 1 8.3946 0z" fill="none" stroke="#ce2921" stroke-width="4"/>
<path d="m422.22 39.343s-0.46636-7.7728-5.5964-10.26c-3.818-1.8512-9.6615-1.1838-11.348 5.5964-1.2678 5.0963 4.8191 10.882 4.8191 10.882" color="#000000" fill="none" stroke="#ce2921" stroke-linecap="round" stroke-linejoin="round" stroke-width="4"/>
<path d="m411.65 59.242s-1.6338-6.141-6.0628-7.7728c-5.5354-2.0394-9.9492-0.46637-12.747 2.6427s-4.1973 9.3273-1.2436 14.924c1.9156 3.6296 7.0119 5.2597 9.4828 4.9746 4.0418-0.46637 7.3064-3.2646 7.3064-3.2646" color="#000000" fill="none" stroke="#ce2921" stroke-linecap="round" stroke-linejoin="round" stroke-width="4"/>
<path d="m226.03 252.94h6.6846l-0.07773-7.7728 9.3273 0.07773 0.07773 7.4619h10.96v-7.6173h10.804v7.4619l9.6382-0.07773-0.15546-7.3064h11.037l0.07773 7.5396 9.2496-0.03764v-7.502l10.96-0.07772v7.5396h11.193l-0.15545-7.5396 9.1694 0.03764 0.08018 7.502h11.037l0.11781-7.4242 10.566-0.11782 0.12026 7.6975h11.426l0.11781-7.5797 9.0541-0.03765v7.695l5.7919-0.04008" color="#000000" fill="none" stroke="#ce2921" stroke-linecap="square" stroke-width="4"/>
<path d="m259.19 244.72 0.11782-12.253" color="#000000" fill="none" stroke="#ce2921" stroke-linecap="round" stroke-linejoin="round" stroke-width="4"/>
<path d="m279.45 244.96v-12.37" color="#000000" fill="none" stroke="#ce2921" stroke-linecap="round" stroke-linejoin="round" stroke-width="4"/>
<path d="m320.33 244.96v-12.724" color="#000000" fill="none" stroke="#ce2921" stroke-linecap="round" stroke-linejoin="round" stroke-width="4"/>
<path d="m340.95 245.31-0.11781-13.549" color="#000000" fill="none" stroke="#ce2921" stroke-linecap="round" stroke-linejoin="round" stroke-width="4"/>
<path d="m320.57 220.69-0.23562-14.138" color="#000000" fill="none" stroke="#ce2921" stroke-linecap="round" stroke-linejoin="round" stroke-width="4"/>
<path d="m279.81 205.61v13.431" color="#000000" fill="none" stroke="#ce2921" stroke-linecap="round" stroke-linejoin="round" stroke-width="4"/>
<path d="m286.29 192.41v11.546" color="#000000" fill="none" stroke="#ce2921" stroke-linecap="round" stroke-linejoin="round" stroke-width="4"/>
<path d="m313.74 191.94 0.23562 11.899" color="#000000" fill="none" stroke="#ce2921" stroke-linecap="round" stroke-linejoin="round" stroke-width="4"/>
<path d="m253.06 235.06 94.015-0.23562v-20.382s-2.1206 6.2441-4.2413 8.6004c-2.1206 2.3563-10.603 2.3563-10.603 2.3563s2.0028-2.7097 2.5919-5.3016c0.58907-2.5919 0.70688-12.959 0.70688-12.959s-2.0028 5.5372-3.5344 7.0688c-1.5316 1.5316-5.1838 3.0632-5.1838 3.0632l-52.427-0.11782s-3.181-1.2959-4.7125-2.8275-5.4194-7.3044-5.4194-7.3044 0.47125 10.014 0.94251 12.017c0.47125 2.0028 2.1206 6.7154 2.1206 6.7154s-2.9453 1.6494-6.3619-0.58907-8.1291-11.192-8.1291-11.192l0.23563 21.089z" color="#000000" fill="#ce2921"/>
<path d="m280.63 207.96h40.763s1.885-2.0028 2.5919-4.2413 1.2959-10.485 1.2959-10.485-1.6494 4.4769-2.5919 5.1838c-0.9425 0.70688-3.0631 1.885-3.0631 1.885l-38.761-0.11782s-2.1206-0.9425-3.0631-1.885c-0.94251-0.9425-3.5344-5.655-3.5344-5.655s-0.11781 6.951 0.8247 9.3072c0.9425 2.3563 5.5372 6.0085 5.5372 6.0085z" color="#000000" fill="#ce2921"/>
<path d="m299.94 119.56s-1.8894 1.4228-2.125 2.7188c-0.23563 1.296 0 4.9375 0 4.9375s-0.9397 0.70906-2 1.0625c-1.0603 0.35344-2.1469 1.8916-0.96875 3.1875 1.1781 1.296 2.5 1.5312 2.5 1.5312s-0.37501 5.7734-0.375 8.7188c0 2.9453-1.0506 18.49-0.34375 20.375 0.70688 1.885 1.6562 3.4375 1.6562 3.4375l-0.125 3.0625s-3.5263-0.2378-4.4688-1.0625c-0.94251-0.82469-3.1875-6.7188-3.1875-6.7188s-0.12032 6.49 0.46875 8.375 4 4.4688 4 4.4688v5.0625s-3.8747-0.46842-5.4062-2c-1.5316-1.5316-3.6562-5.5313-3.6562-5.5312 0 0 0.46125 6.9562 1.875 9.3125 1.4138 2.3563 5.6563 2.9375 5.6562 2.9375v4.4688s-8.8169-0.11247-10.938-2.4688c-2.1206-2.3563-2.7188-5.6562-2.7188-5.6562 0 0 0.47092 9.1822 1.5312 11.656 1.0603 2.4741 4.5938 3.9062 4.5938 3.9062h14.031 14.031c-1e-5 0 3.5334-1.4009 4.5938-3.875 1.0603-2.4741 1.5312-11.656 1.5312-11.656 0 1e-5 -0.59812 3.3-2.7188 5.6562-2.1206 2.3563-10.938 2.4688-10.938 2.4688v-4.4688c-1e-5 -1e-5 4.2425-0.61249 5.6562-2.9688 1.4138-2.3563 1.875-9.2812 1.875-9.2812-1e-5 -1e-5 -2.1247 3.9997-3.6562 5.5312-1.5316 1.5316-5.4062 2-5.4062 2v-5.0625c1e-5 0 3.4109-2.5837 4-4.4688s0.46875-8.375 0.46875-8.375c1e-5 0-2.245 5.8941-3.1875 6.7188-0.94251 0.82471-4.4688 1.0625-4.4688 1.0625l-0.125-3.0625c0-1e-5 0.94937-1.5525 1.6562-3.4375 0.70688-1.885-0.34375-17.43-0.34375-20.375 1e-5 -2.9453-0.375-8.7188-0.375-8.7188s1.3219-0.2353 2.5-1.5312c1.1781-1.2959 0.09157-2.8341-0.96875-3.1875-1.0603-0.35344-2-1.0625-2-1.0625s0.23563-3.6416 0-4.9375c-0.23563-1.2959-2.125-2.7188-2.125-2.7188v-0.03125z" color="#000000" fill="#ce2921"/>
<g fill="none" stroke="#ce2921" stroke-linecap="round" stroke-linejoin="round" stroke-width="3">
<path d="m272.15 362.06s12.959-11.074 20.971-17.908c8.0113-6.8332 16.965-14.844 20.499-21.442 3.5344-6.5975 5.4194-13.666 8.2469-16.258s12.253-5.1838 17.436-7.3044c5.1838-2.1206 18.614-11.074 23.091-15.08 4.4769-4.0056 12.253-14.373 15.787-20.5 3.5344-6.1263 10.368-18.379 11.546-23.091 1.1781-4.7125 2.3563-15.316 2.1206-21.442-0.23562-6.1263-2.1206-18.614-2.3563-22.149-0.23563-3.5344 0.23563-9.1894-1.4138-13.431-1.6494-4.2413-3.5344-7.3044-3.5344-7.3044" color="#000000"/>
<path d="m320.22 308.34s0.58907-7.3044 2.1206-9.3072c1.5316-2.0028 8.6004-6.4797 11.428-8.6004 2.8275-2.1206 6.951-6.8332 6.951-6.8332s0 9.5429-0.58906 10.839c-0.58907 1.2959-4.8304 6.2441-4.8304 6.2441s9.0716 0.35344 11.899 1.1781 9.8963 4.1235 9.8963 4.1235-8.1291 3.5344-11.074 3.77c-2.9453 0.23563-13.902 0.70688-17.083 0.35344s-8.7182-1.6494-8.7182-1.7672z" color="#000000"/>
<path d="m340.95 286.55s5.655-4.9482 7.7757-6.4797c2.1206-1.5316 8.9538-6.951 10.25-8.4826 1.2959-1.5316 2.3563-3.4166 2.3563-3.4166s-0.9425 9.0716-1.6494 11.192c-0.70688 2.1206-5.5372 10.721-5.5372 10.721s7.3044-1.6494 10.25-1.885c2.9453-0.23563 10.721-0.94251 10.721-0.94251s-7.4222 7.1866-10.485 9.0716c-3.0631 1.885-14.491 6.4797-14.491 6.4797" color="#000000"/>
<path d="m361.45 267.93s4.8303-5.5372 6.1263-7.54c1.296-2.0028 7.1866-12.135 7.1866-12.135s0.35344 8.2469 0.23562 10.368c-0.11781 2.1206-1.4138 11.31-1.4138 11.31s5.3016-3.5344 8.9538-4.4769c3.6522-0.94251 10.132-1.1781 10.132-1.1781s-6.951 10.957-9.1894 13.431c-2.2385 2.4741-8.2469 9.425-8.2469 9.425" color="#000000"/>
<path d="m374.65 248.49s1.1781-8.836 2.4741-12.37c1.296-3.5344 3.0632-9.8963 3.0632-9.8963s3.2988 9.1894 3.5344 11.192c0.23563 2.0028-0.11781 15.551-0.11781 15.551s7.3044-10.132 8.4826-11.428c1.1781-1.296 10.721-5.4194 10.721-5.4194s-3.6522 7.54-5.066 11.546c-1.4138 4.0056-5.3016 10.368-6.1263 11.31-0.8247 0.94251-4.9482 5.4194-4.9482 5.4194" color="#000000"/>
<path d="m379.83 226.93s0.70688-9.1894 0.23562-11.546c-0.47125-2.3563 0.35344-12.017 0.35344-12.017s5.7728 9.0716 6.2441 10.957c0.47126 1.885 4.8303 10.603 4.8303 10.603s3.4166-7.3044 4.9482-9.0716c1.22-1.4077 8.7182-8.4826 8.7182-8.4826s-1.7672 12.606-2.7097 15.669c-0.9425 3.0632-5.655 15.787-5.655 15.787" color="#000000"/>
<path d="m380.42 203.49s-1.7672-5.655-2.0028-8.3647c-0.23563-2.7097-0.47125-8.1291-0.47125-8.1291s5.1838 5.1838 6.1263 6.7154c0.94251 1.5316 5.655 5.4194 5.655 5.4194s0.23562-5.655 2.8275-9.3072 5.655-6.951 5.655-6.951 1.4138 10.603 1.6494 12.842 0.35344 16.023 0.35344 16.023" color="#000000"/>
<path d="m396.79 184.4s-1.885-8.2469-3.4166-11.192c-1.5316-2.9453-8.1291-10.368-8.1291-10.368s1.5316 5.066 1.4138 8.3647c-0.11781 3.2988-0.82469 7.6579-0.82469 7.6579s-4.8303-5.4194-7.3044-7.1866c-2.4741-1.7672-5.4194-3.6522-5.4194-3.6522s0.8247 7.3044 1.4138 9.8963c0.58907 2.5919 3.2988 9.425 3.2988 9.425" color="#000000"/>
<path d="m373.23 167.79s-0.8247-3.77-3.0632-6.3619-10.839-10.485-10.839-10.485 9.6607 2.1206 11.664 3.2988c2.0028 1.1781 8.3647 4.1235 9.425 5.1838 1.0603 1.0603 4.8303 4.3591 4.8303 4.3591" color="#000000"/>
</g>
<g transform="matrix(-1 0 0 1 600.02 -.47125)" fill="none" stroke="#ce2921" stroke-linecap="round" stroke-linejoin="round" stroke-width="3">
<path d="m272.15 362.06s12.959-11.074 20.971-17.908c8.0113-6.8332 16.965-14.844 20.499-21.442 3.5344-6.5975 5.4194-13.666 8.2469-16.258s12.253-5.1838 17.436-7.3044c5.1838-2.1206 18.614-11.074 23.091-15.08 4.4769-4.0056 12.253-14.373 15.787-20.5 3.5344-6.1263 10.368-18.379 11.546-23.091 1.1781-4.7125 2.3563-15.316 2.1206-21.442-0.23562-6.1263-2.1206-18.614-2.3563-22.149-0.23563-3.5344 0.23563-9.1894-1.4138-13.431-1.6494-4.2413-3.5344-7.3044-3.5344-7.3044" color="#000000"/>
<path d="m320.22 308.34s0.58907-7.3044 2.1206-9.3072c1.5316-2.0028 8.6004-6.4797 11.428-8.6004 2.8275-2.1206 6.951-6.8332 6.951-6.8332s0 9.5429-0.58906 10.839c-0.58907 1.2959-4.8304 6.2441-4.8304 6.2441s9.0716 0.35344 11.899 1.1781 9.8963 4.1235 9.8963 4.1235-8.1291 3.5344-11.074 3.77c-2.9453 0.23563-13.902 0.70688-17.083 0.35344s-8.7182-1.6494-8.7182-1.7672z" color="#000000"/>
<path d="m340.95 286.55s5.655-4.9482 7.7757-6.4797c2.1206-1.5316 8.9538-6.951 10.25-8.4826 1.2959-1.5316 2.3563-3.4166 2.3563-3.4166s-0.9425 9.0716-1.6494 11.192c-0.70688 2.1206-5.5372 10.721-5.5372 10.721s7.3044-1.6494 10.25-1.885c2.9453-0.23563 10.721-0.94251 10.721-0.94251s-7.4222 7.1866-10.485 9.0716c-3.0631 1.885-14.491 6.4797-14.491 6.4797" color="#000000"/>
<path d="m361.45 267.93s4.8303-5.5372 6.1263-7.54c1.296-2.0028 7.1866-12.135 7.1866-12.135s0.35344 8.2469 0.23562 10.368c-0.11781 2.1206-1.4138 11.31-1.4138 11.31s5.3016-3.5344 8.9538-4.4769c3.6522-0.94251 10.132-1.1781 10.132-1.1781s-6.951 10.957-9.1894 13.431c-2.2385 2.4741-8.2469 9.425-8.2469 9.425" color="#000000"/>
<path d="m374.65 248.49s1.1781-8.836 2.4741-12.37c1.296-3.5344 3.0632-9.8963 3.0632-9.8963s3.2988 9.1894 3.5344 11.192c0.23563 2.0028-0.11781 15.551-0.11781 15.551s7.3044-10.132 8.4826-11.428c1.1781-1.296 10.721-5.4194 10.721-5.4194s-3.6522 7.54-5.066 11.546c-1.4138 4.0056-5.3016 10.368-6.1263 11.31-0.8247 0.94251-4.9482 5.4194-4.9482 5.4194" color="#000000"/>
<path d="m379.83 226.93s0.70688-9.1894 0.23562-11.546c-0.47125-2.3563 0.35344-12.017 0.35344-12.017s5.7728 9.0716 6.2441 10.957c0.47126 1.885 4.8303 10.603 4.8303 10.603s3.4166-7.3044 4.9482-9.0716c1.22-1.4077 8.7182-8.4826 8.7182-8.4826s-1.7672 12.606-2.7097 15.669c-0.9425 3.0632-5.655 15.787-5.655 15.787" color="#000000"/>
<path d="m380.42 203.49s-1.7672-5.655-2.0028-8.3647c-0.23563-2.7097-0.47125-8.1291-0.47125-8.1291s5.1838 5.1838 6.1263 6.7154c0.94251 1.5316 5.655 5.4194 5.655 5.4194s0.23562-5.655 2.8275-9.3072 5.655-6.951 5.655-6.951 1.4138 10.603 1.6494 12.842 0.35344 16.023 0.35344 16.023" color="#000000"/>
<path d="m396.79 184.4s-1.885-8.2469-3.4166-11.192c-1.5316-2.9453-8.1291-10.368-8.1291-10.368s1.5316 5.066 1.4138 8.3647c-0.11781 3.2988-0.82469 7.6579-0.82469 7.6579s-4.8303-5.4194-7.3044-7.1866c-2.4741-1.7672-5.4194-3.6522-5.4194-3.6522s0.8247 7.3044 1.4138 9.8963c0.58907 2.5919 3.2988 9.425 3.2988 9.425" color="#000000"/>
<path d="m373.23 167.79s-0.8247-3.77-3.0632-6.3619-10.839-10.485-10.839-10.485 9.6607 2.1206 11.664 3.2988c2.0028 1.1781 8.3647 4.1235 9.425 5.1838 1.0603 1.0603 4.8303 4.3591 4.8303 4.3591" color="#000000"/>
</g>
<g fill="none" stroke="#ce2921" stroke-linecap="round" stroke-linejoin="round" stroke-width="3">
<path d="m280.63 355s12.017-4.0056 17.908-4.4769c5.8907-0.47125 15.787-3.2988 20.028-6.5975 4.2413-3.2988 12.959-7.3044 20.5-8.2469 7.54-0.94251 14.844-3.5344 21.442-7.7757 6.5975-4.2413 19.557-12.724 25.212-17.201 5.655-4.4769 17.908-16.494 21.442-21.913 3.5344-5.4194 12.253-19.793 15.08-28.04s1.885-19.557 4.7125-28.275 2.5919-18.143 1.4138-27.804c-1.1781-9.6607-5.4194-19.086-5.655-25.212-0.23562-6.1263-2.5919-13.431-5.1838-18.143-2.5919-4.7125-5.8907-12.253-9.6607-16.729s-9.8963-9.8963-9.8963-9.8963" color="#000000"/>
<path d="m340.36 335.2s2.7097-6.951 4.8303-9.7785c2.1206-2.8275 9.5429-8.6004 12.135-10.132 2.5919-1.5316 9.3072-5.1838 9.3072-5.1838s0 5.4194-0.94251 7.6579c-0.9425 2.2384-4.8303 9.6607-4.8303 9.6607s8.6004-0.11782 10.603-0.11782c2.0028 0 10.132 2.9453 10.132 2.9453s-4.9482 5.8907-7.7757 6.8332c-2.8275 0.9425-11.781 2.9453-16.494 2.7097-4.7125-0.23562-16.965-4.5947-16.965-4.5947z" color="#000000"/>
<path d="m366.87 310.7s7.8935-6.3619 10.368-8.4826c2.4741-2.1206 10.25-9.5429 10.25-9.5429s-0.11781 7.8935-0.9425 10.603c-0.82469 2.7097-4.0056 9.5429-4.0056 9.5429h11.074c2.5919 0 11.192-1.5316 11.192-1.5316s-7.54 8.4826-9.8963 10.132c-2.3563 1.6494-6.7154 3.77-10.132 4.8303s-7.4222 2.0028-7.4222 2.0028" color="#000000"/>
<path d="m387.84 293.26s5.066-6.1263 6.5975-8.1291c1.5316-2.0028 5.5372-7.8935 6.4797-10.132s3.4166-6.1263 3.4166-6.1263 0.35344 10.603-0.35344 13.902-1.885 11.546-1.885 11.546 6.5975-3.77 9.5429-4.4769 9.4251-1.7672 9.4251-1.7672-4.5947 9.5429-6.8332 12.488-10.25 10.721-10.25 10.721" color="#000000"/>
<path d="m404.81 269.35s3.0631-4.1235 4.8303-8.1291 5.1838-16.612 5.1838-16.612 2.2384 6.5975 2.2384 10.132c0 3.5344 0.58907 16.14 0.58907 16.14s7.4222-10.25 9.425-12.017c2.0028-1.7672 7.7757-8.3647 7.7757-8.3647s-0.35344 11.899-1.6494 14.844c-1.296 2.9453-5.3016 8.7182-6.951 12.135-1.6494 3.4166-7.1866 10.957-7.1866 10.957" color="#000000"/>
<path d="m415.06 245.78s1.1781-14.962 1.2959-17.554 0.58907-10.485 0.58907-10.485 5.4194 9.1894 6.0085 11.192c0.58907 2.0028 2.3563 9.5429 2.3563 9.5429s3.8878-7.3044 5.7728-9.5429c1.885-2.2384 9.7785-7.6578 9.7785-7.6578s-0.94251 11.192-2.0028 14.844-4.0056 14.962-4.0056 14.962" color="#000000"/>
<path d="m417.88 218.57s-0.47125-8.836-0.35344-11.781c0.11782-2.9453-1.0603-14.138-1.0603-14.138s4.8303 4.0056 6.1263 6.3619 6.3619 8.3647 6.3619 8.3647 3.4166-4.8303 4.9482-7.4222 6.2441-8.836 6.2441-8.836 1.1781 11.192 0.82469 15.434c-0.35344 4.2413-0.47125 14.962-0.47125 14.962" color="#000000"/>
<path d="m416.47 192.77s-2.9453-8.9538-4.0056-11.664c-1.0603-2.7097-3.8878-10.485-3.8878-10.485s6.4797 2.9453 8.3647 5.066c1.885 2.1206 6.7154 8.9538 6.7154 8.9538s0.23563-8.3647 1.2959-11.192c1.0603-2.8275 5.5372-10.839 5.5372-10.839s1.1781 6.5975 2.4741 9.6607c1.296 3.0632 4.1235 11.074 4.2413 13.313 0.11781 2.2385 0.9425 7.0688 0.9425 7.0688" color="#000000"/>
<path d="m428.49 166.38s-2.0028-9.8963-2.4741-11.664c-0.47125-1.7672-3.181-5.5372-4.2413-8.4826s-3.4166-10.014-3.4166-10.014-2.0028 6.5975-2.1206 9.7785c-0.11782 3.181-0.70688 11.428-0.70688 11.428s-5.1838-2.9453-6.951-3.77c-1.7672-0.8247-10.721-3.0632-10.721-3.0632s4.5947 7.8935 6.2441 10.839c1.6494 2.9453 4.9482 9.7785 4.9482 9.7785" color="#000000"/>
<path d="m416.12 141.75s-5.8907-7.1866-8.3647-10.485c-2.4741-3.2988-7.8935-12.606-7.8935-12.606s-1.2959 4.9482-1.6494 7.1866 0.11781 9.1894 0.11781 9.1894-5.8907-3.181-7.1866-3.181c-1.2959 0-7.4222-0.9425-7.4222-0.9425s3.5344 5.1838 5.8907 8.0113c2.3563 2.8275 8.7182 11.781 8.7182 11.781" color="#000000"/>
<path d="m397.97 128.56s-5.4194-8.7182-8.4826-10.839-17.319-7.7757-17.319-7.7757 7.1866 6.8332 8.2469 8.9538 5.1838 12.253 5.1838 12.253" color="#000000"/>
</g>
<g transform="matrix(-1 0 0 1 600.09 -.94251)" fill="none" stroke="#ce2921" stroke-linecap="round" stroke-linejoin="round" stroke-width="3">
<path d="m280.63 355s12.017-4.0056 17.908-4.4769c5.8907-0.47125 15.787-3.2988 20.028-6.5975 4.2413-3.2988 12.959-7.3044 20.5-8.2469 7.54-0.94251 14.844-3.5344 21.442-7.7757 6.5975-4.2413 19.557-12.724 25.212-17.201 5.655-4.4769 17.908-16.494 21.442-21.913 3.5344-5.4194 12.253-19.793 15.08-28.04s1.885-19.557 4.7125-28.275 2.5919-18.143 1.4138-27.804c-1.1781-9.6607-5.4194-19.086-5.655-25.212-0.23562-6.1263-2.5919-13.431-5.1838-18.143-2.5919-4.7125-5.8907-12.253-9.6607-16.729s-9.8963-9.8963-9.8963-9.8963" color="#000000"/>
<path d="m340.36 335.2s2.7097-6.951 4.8303-9.7785c2.1206-2.8275 9.5429-8.6004 12.135-10.132 2.5919-1.5316 9.3072-5.1838 9.3072-5.1838s0 5.4194-0.94251 7.6579c-0.9425 2.2384-4.8303 9.6607-4.8303 9.6607s8.6004-0.11782 10.603-0.11782c2.0028 0 10.132 2.9453 10.132 2.9453s-4.9482 5.8907-7.7757 6.8332c-2.8275 0.9425-11.781 2.9453-16.494 2.7097-4.7125-0.23562-16.965-4.5947-16.965-4.5947z" color="#000000"/>
<path d="m366.87 310.7s7.8935-6.3619 10.368-8.4826c2.4741-2.1206 10.25-9.5429 10.25-9.5429s-0.11781 7.8935-0.9425 10.603c-0.82469 2.7097-4.0056 9.5429-4.0056 9.5429h11.074c2.5919 0 11.192-1.5316 11.192-1.5316s-7.54 8.4826-9.8963 10.132c-2.3563 1.6494-6.7154 3.77-10.132 4.8303s-7.4222 2.0028-7.4222 2.0028" color="#000000"/>
<path d="m387.84 293.26s5.066-6.1263 6.5975-8.1291c1.5316-2.0028 5.5372-7.8935 6.4797-10.132s3.4166-6.1263 3.4166-6.1263 0.35344 10.603-0.35344 13.902-1.885 11.546-1.885 11.546 6.5975-3.77 9.5429-4.4769 9.4251-1.7672 9.4251-1.7672-4.5947 9.5429-6.8332 12.488-10.25 10.721-10.25 10.721" color="#000000"/>
<path d="m404.81 269.35s3.0631-4.1235 4.8303-8.1291 5.1838-16.612 5.1838-16.612 2.2384 6.5975 2.2384 10.132c0 3.5344 0.58907 16.14 0.58907 16.14s7.4222-10.25 9.425-12.017c2.0028-1.7672 7.7757-8.3647 7.7757-8.3647s-0.35344 11.899-1.6494 14.844c-1.296 2.9453-5.3016 8.7182-6.951 12.135-1.6494 3.4166-7.1866 10.957-7.1866 10.957" color="#000000"/>
<path d="m415.06 245.78s1.1781-14.962 1.2959-17.554 0.58907-10.485 0.58907-10.485 5.4194 9.1894 6.0085 11.192c0.58907 2.0028 2.3563 9.5429 2.3563 9.5429s3.8878-7.3044 5.7728-9.5429c1.885-2.2384 9.7785-7.6578 9.7785-7.6578s-0.94251 11.192-2.0028 14.844-4.0056 14.962-4.0056 14.962" color="#000000"/>
<path d="m417.88 218.57s-0.47125-8.836-0.35344-11.781c0.11782-2.9453-1.0603-14.138-1.0603-14.138s4.8303 4.0056 6.1263 6.3619 6.3619 8.3647 6.3619 8.3647 3.4166-4.8303 4.9482-7.4222 6.2441-8.836 6.2441-8.836 1.1781 11.192 0.82469 15.434c-0.35344 4.2413-0.47125 14.962-0.47125 14.962" color="#000000"/>
<path d="m416.47 192.77s-2.9453-8.9538-4.0056-11.664c-1.0603-2.7097-3.8878-10.485-3.8878-10.485s6.4797 2.9453 8.3647 5.066c1.885 2.1206 6.7154 8.9538 6.7154 8.9538s0.23563-8.3647 1.2959-11.192c1.0603-2.8275 5.5372-10.839 5.5372-10.839s1.1781 6.5975 2.4741 9.6607c1.296 3.0632 4.1235 11.074 4.2413 13.313 0.11781 2.2385 0.9425 7.0688 0.9425 7.0688" color="#000000"/>
<path d="m428.49 166.38s-2.0028-9.8963-2.4741-11.664c-0.47125-1.7672-3.181-5.5372-4.2413-8.4826s-3.4166-10.014-3.4166-10.014-2.0028 6.5975-2.1206 9.7785c-0.11782 3.181-0.70688 11.428-0.70688 11.428s-5.1838-2.9453-6.951-3.77c-1.7672-0.8247-10.721-3.0632-10.721-3.0632s4.5947 7.8935 6.2441 10.839c1.6494 2.9453 4.9482 9.7785 4.9482 9.7785" color="#000000"/>
<path d="m416.12 141.75s-5.8907-7.1866-8.3647-10.485c-2.4741-3.2988-7.8935-12.606-7.8935-12.606s-1.2959 4.9482-1.6494 7.1866 0.11781 9.1894 0.11781 9.1894-5.8907-3.181-7.1866-3.181c-1.2959 0-7.4222-0.9425-7.4222-0.9425s3.5344 5.1838 5.8907 8.0113c2.3563 2.8275 8.7182 11.781 8.7182 11.781" color="#000000"/>
<path d="m397.97 128.56s-5.4194-8.7182-8.4826-10.839-17.319-7.7757-17.319-7.7757 7.1866 6.8332 8.2469 8.9538 5.1838 12.253 5.1838 12.253" color="#000000"/>
</g>
</g>
</svg>
