<?xml version="1.0" encoding="UTF-8"?>
<svg version="1.1" viewBox="0 0 750 500" xmlns="http://www.w3.org/2000/svg" xmlns:xlink="http://www.w3.org/1999/xlink">
<defs>
<linearGradient id="a" x1="178.63" x2="294.91" y1="324.68" y2="324.68" gradientTransform="matrix(.29645 0 0 .29645 296.51 606.69)" gradientUnits="userSpaceOnUse">
<stop stop-color="#5d070b" offset="0"/>
<stop stop-color="#ed1c24" offset=".5"/>
<stop stop-color="#5d070a" offset="1"/>
</linearGradient>
</defs>
<g transform="translate(0 -552.36)">
<rect y="552.36" width="750" height="500" rx="0" ry="0" fill="#041c82"/>
<g stroke="#cab313">
<path d="m299.01 937.87-0.47001-31.256s0.23501-3.6818 5.4052-3.3684c5.1702 0.31332 9.5569 1.3317 9.5569 1.3317s3.6936 0.67022 3.8875 2.415c0.19386 1.7448 0.10767 30.251 0.10767 30.251s-8.1469 9.2436-18.487 0.62671z" fill="#fcdd09" stroke-width=".326"/>
<path d="m306.29 907.81s-0.39167 21.934 0.0783 27.731c0.47001 5.7968 1.175 6.7368 1.175 6.7368s-0.78334 1.8018 4.4652 0.6267c5.2485-1.175 5.4835-1.88 5.4835-1.88l-0.31336-31.237c-0.74345 1.3497-4.4955 5.7384-9.5767 1.6675-1.0054-0.80544-0.90904-2.2018-1.312-3.6445z" fill="#fcdd09" stroke-width=".326"/>
<path d="m451.57 913.05 0.47002 31.256s-0.23502 3.6818-5.4052 3.3684c-5.1702-0.31333-9.557-1.3317-9.557-1.3317s-3.6936-0.67019-3.8874-2.4151c-0.19388-1.7448-0.1077-30.251-0.1077-30.251s8.1469-9.2436 18.487-0.62665z" fill="#fcdd09" stroke-width=".326"/>
<path d="m444.28 943.11s0.39167-21.934-0.0783-27.731c-0.47002-5.7969-1.175-6.7369-1.175-6.7369s0.78334-1.8017-4.4652-0.6267-5.4835 1.88-5.4835 1.88l0.31336 31.237c0.74345-1.3497 4.4955-5.7384 9.5767-1.6674 1.0054 0.80539 0.90905 2.2018 1.312 3.6444z" fill="#fcdd09" stroke-width=".326"/>
<path d="m298.54 906.61v34.357c47.468 30.501 110.06-27.276 150.14-3.0248 2.5259 1.7269 3.21 3.3973 3.3679 4.4085v-34.357c-35.066-32.24-148.02 30.189-153.5-1.3844zm153.5 35.741v0.97842s0.095-0.37024 0-0.97842zm-153.5-35.741v-0.97766s-0.095 0.36951 0 0.97766z" fill="#fcdd09" stroke-width=".326"/>
<g transform="matrix(.32594 0 0 .32594 261.99 623.98)" stroke-width="1.0002" aria-label="     A LA NOBLE Y LEAL">
<path d="m164.67 931.33q0.2952-0.10974 0.50719-0.0748l0.44324 0.073q0.1349 0.0222 0.4657 0.0569 1.5061 0.10949 1.7982 0.019 0.73481-0.25507 1.3658-1.0815 1.3259-1.8007 3.172-5.1982 0.8799-1.6168 1.0944-1.9576 0.67222-1.077 1.3249-2.2759l2.6463-4.7701q0.62076-1.125 2.9442-5.1367 0.58244-1.0126 1.4589-2.7289l0.56523 0.0535 0.67133 0.13035q0.5589 1.7746 0.88383 3.7679 0.18185 1.0592 0.64507 3.1744l1.6248 8.4031 0.85323 4.5547q0.63035 3.8647 0.87613 4.7762 0.24896 0.89215 0.53214 1.2159 0.0837 0.093 0.67496 0.3487 0.61058 0.25891 0.84841 0.37725 0.84524 0.39653 1.1636 0.62711 0.0422 0.22468 0.0231 0.34031-0.0159 0.0964-0.10542 0.27955-0.61986-0.0823-0.8704-0.12355-0.98285-0.16187-3.4594-0.62911l-1.9176-0.3752-2.3382-0.3455q-0.23126-0.0381-0.47862-0.0986-0.22491-0.0766-0.39835-0.1052l-0.42398-0.0698q-0.20881-0.0542-0.36639-0.17911 0.0444-0.2698 0.18205-0.50447 0.25031-0.0775 0.4462-0.0651l2.0457 0.19835q0.79648 0.0916 1.2298-0.0152 0.17276-0.32784 0.20132-0.50129 0.0571-0.34689-0.20589-1.8748-0.18819-1.0207-0.31517-1.9324-0.10771-0.90849-1.1033-6.0408-0.76792-0.26503-1.3654-0.36342l-4.1305-0.64066-1.2109-0.21923q-0.65524-0.10791-1.4612-0.14168-0.34574 0.53689-0.46409 0.77473l-2.5687 5.0204q-1.5775 2.8479-1.6283 3.1563-0.0286 0.17344 0.0782 0.60671 0.38566 0.18228 1.0443 0.38972l2.5828 0.66291q0.18343 0.20836 0.16121 0.34326-0.0159 0.0964-0.10542 0.27955-0.8704-0.12355-1.3329-0.19972-1.5417-0.25391-3.5687-0.6867-0.93796-0.19406-1.3427-0.26071-0.40471-0.0667-1.4132-0.19315-0.66158-0.0694-0.95066-0.11698-0.46252-0.0762-1.1853-0.25459l0.019-0.11563q0.0222-0.13491 0.13739-0.35347zm11.097-10.049q2.043 0.45523 4.6832 0.89005 1.5032 0.24756 2.6561 0.33846-0.0689-0.78333-0.21155-1.4798-0.70041-3.5596-0.77818-3.9287l-1.0206-4.7406-0.13558-0.37863q-0.15372 0.21222-1.1749 1.8453-1.7285 2.8032-2.5442 4.391-0.37431 0.71034-0.76789 1.4175-0.39041 0.68788-0.51828 0.98354-0.10542 0.27955-0.29111 0.56568z"/>
<path d="m201.77 936.93q0.018-0.29306 0.15351-0.52814 1.5213-0.41807 2.9659-0.56229 0.95661-0.0831 1.2282-0.43607 0.19399-0.25492 0.22463-1.8762l0.10994-5.1569-0.0377-3.496-4e-3 -4.5704-6e-3 -1.2109q-2e-3 -4.1211-0.0657-5.1364-0.0205-0.19521-0.15909-0.54606-0.50902-0.23173-0.86099-0.30803-0.33243-0.0764-3.0498-0.55057-0.0206-0.21474-0.0212-0.3124-6e-4 -0.11718 0.0179-0.3126 0.37109-2e-3 1.2111 0.0328l2.9692 0.0822 1.7189 0.0301 0.50771-0.0222q0.0977-5.1e-4 0.5666 0.0361 1.1523-6e-3 1.328-0.0264l1.5619-0.1253q1.582-8e-3 2.2268 0.047-0.0177 0.35166-0.13276 0.76242-0.21464 0.0402-2.0306 0.12774-1.8161 0.068-2.0887 0.22569-0.4479 0.25624-0.4411 1.5648 2e-3 0.3125-0.0325 1.2697l6e-3 1.1719 0.0383 3.6131 6e-3 1.2304 0.0726 6.4646-0.03 5.508 0.0258 1.2108q3e-3 0.58593 0.19907 0.72163 0.48837 0.017 2.8712 0.0241l1.3281-7e-3 3.3782-0.13473q1.3279-0.046 1.8932-0.26374 0.56518-0.23732 1.8876-1.338 0.79712-0.70727 1.2425-1.4518 0.0968-0.15676 0.3296-0.47047 0.36845-0.50974 0.98553-2.0364l0.64452-3e-3q-0.11353 0.70373-0.247 1.3294-0.5521 2.7568-0.75741 4.5938-0.037 0.39082-0.0744 0.72305l-7.3057-0.1769q-9.4139 0.0489-11.171 0.2338-0.54667 0.0419-1.1521 0.045z"/>
<path d="m224.2 936.11q0.25749-0.18133 0.47138-0.20158l0.44722-0.0423q0.13611-0.0129 0.46482-0.0636 1.4843-0.27785 1.7437-0.43973 0.64558-0.43387 1.0452-1.3938 0.82334-2.079 1.743-5.8348 0.43895-1.7876 0.55952-2.1718 0.37566-1.2127 0.70139-2.5383l1.3436-5.2869q0.31364-1.246 1.5383-5.7173 0.30524-1.1275 0.71554-3.0105l0.5602-0.0923 0.68239-0.045q0.99258 1.5736 1.8146 3.4184 0.44572 0.97797 1.4325 2.9053l3.7121 7.7118 1.9855 4.187q1.5942 3.5766 2.0641 4.3953 0.46804 0.79929 0.82437 1.0402 0.10458 0.0686 0.74152 0.16522 0.65639 0.0948 0.91653 0.14866 0.91837 0.1681 1.2849 0.30996 0.098 0.20652 0.10907 0.32319 9e-3 0.0972-0.0307 0.29719-0.62038 0.0784-0.87316 0.10228-0.99166 0.0939-3.5055 0.27301l-1.95 0.12574-2.3491 0.26163q-0.23333 0.0221-0.48795 0.0266-0.23701-0.0168-0.41201-2.3e-4l-0.42777 0.0405q-0.21573 8e-4 -0.39994-0.0799-0.0258-0.27222 0.0475-0.5342 0.22229-0.13876 0.41489-0.17661l2.0288-0.32939q0.79354-0.11436 1.1853-0.32802 0.0835-0.36104 0.067-0.53604-0.0331-0.35-0.67674-1.7605-0.44204-0.93908-0.7971-1.7883-0.33561-0.85107-2.606-5.5604-0.8101-0.0606-1.4129-4e-3l-4.1574 0.43282-1.2268 0.0965q-0.6611 0.0626-1.4491 0.23528-0.19755 0.60726-0.2514 0.8674l-1.2049 5.5092q-0.79987 3.1558-0.77042 3.467 0.0166 0.175 0.23022 0.56676 0.41938 0.078 1.1091 0.11081l2.6665-0.017q0.23045 0.15475 0.24334 0.29086 9e-3 0.0972-0.0307 0.29719-0.87316 0.10228-1.3398 0.14646-1.5555 0.14726-3.6258 0.24516-0.95646 0.0513-1.3648 0.09t-1.4158 0.17327q-0.65743 0.10147-0.94909 0.12908-0.46666 0.0442-1.2111 0.0558l-0.011-0.11667q-0.0129-0.13611 0.0428-0.3768zm8.1705-12.545q2.0916-0.0803 4.7554-0.33248 1.5167-0.14359 2.6547-0.34941-0.26623-0.73992-0.5816-1.3771-1.5842-3.2637-1.7534-3.6008l-2.1947-4.3241-0.22757-0.33159q-0.0946 0.24437-0.66595 2.0838-0.95727 3.1511-1.3416 4.8943-0.18098 0.78226-0.38141 1.5664-0.20227 0.76466-0.25059 1.0831-0.0307 0.29719-0.13738 0.62118z"/>
<path d="m257.34 909.08-0.19685-0.91681q2.9725-0.57374 4.3236-0.99367 0.52586-0.16118 0.73681-0.20189 0.17259-0.0333 0.52149-0.0808 0.935 0.51574 1.792 1.2455 0.18673 0.14299 0.41922 0.31692l4.9089 3.6873 0.70857 0.57934q1.505 1.2014 2.6984 2.0253 1.2126 0.82021 4.7494 3.4794l5.5643 4.1973q0.81556 0.61836 2.085 1.527l-0.04-0.31053q-0.62958-2.6434-0.6592-2.7969l-0.14538-1.1654-0.3863-1.7953-0.15917-0.82462q-0.15176-0.78627-1.0707-4.826-0.12652-0.55244-0.55689-2.0607-0.43407-1.5274-0.65986-2.6973-0.40717-2.1095-0.7231-2.4066-0.22072-0.21599-1.73-0.20316-0.34889 0.0475-1.0961 0.0922-0.87038 0.12821-1.0349 0.10029-0.16452-0.0279-0.36976-0.26679-0.0209-0.31424 0.0616-0.60863 0.48817-0.25336 0.98678-0.3496 0.53697-0.10364 1.3492-0.12117 0.83135-0.0212 1.4642-0.14337 0.88216-0.17027 2.7202-0.64439 1.0399-0.28029 1.4427-0.35803l0.32602-0.0629 0.0764 0.6019q-0.28093 0.19346-0.81049 0.33546-0.53326 0.12282-0.9676 0.3459-0.64967 0.34421-0.7543 0.52354-0.36401 0.58744-0.26407 1.1052l1.3806 6.0193 0.69015 2.7511 0.13628 0.80914 0.85908 3.8324q0.87759 3.9283 1.4402 6.8433 0.12215 0.63285 0.45261 2.7572l-0.88652 0.25068q-0.81927-0.63754-5.5545-3.9406-1.1019-0.76202-1.5019-1.0826l-2.0157-1.5802q-1.1624-0.86968-1.5056-1.1018-0.34318-0.23214-0.50334-0.34047-2.5493-1.9745-6.5746-4.8974-1.0864-0.7849-3.2239-2.4808-1.3411-1.0739-1.6843-1.306-0.34318-0.23214-0.91212-0.50027l0.0683 0.66314q0.7218 3.7396 2.1832 10.28l1.3595 6.3218q0.17464 0.80174 0.39571 1.5348l0.70081 0.0239q1.8552-0.17906 3.6861-0.17441 0.15645 0.0892 0.26344 0.12818l0.12148 0.73244q-0.28833 0.15511-0.4801 0.19212-0.21095 0.0407-0.52519 0.0616-1.9282 0.21304-4.6513 0.73866-1.9177 0.37015-3.3567 0.74736l-0.26478 0.071q-0.1726 0.0333-0.50601 0.0579l-0.13023-0.57161 0.45419-0.32637 0.87542-0.30822q1.1749-0.40579 1.6903-0.72408 0.33846-0.20458 0.51677-0.51748-0.0445-1.364-0.53677-3.9145-0.22949-1.189-0.89778-4.3421l-0.50341-2.6081-1.0896-5.439q-0.74165-3.6363-1.0784-4.2476-0.1817-0.32298-0.59789-0.52113-0.82867-0.37713-2.0436-0.28188-1.1957 0.0916-1.5594 0.0623z"/>
<path d="m290.46 914.14q-0.46858-1.9363-0.37591-3.5462 0.10707-1.6335 0.78086-3.6654 0.67379-2.0319 1.9456-3.5856 1.2672-1.5726 3.7993-3.15 1.7847-1.095 4.7461-1.8117 1.9932-0.48237 4.0202-0.41024 2.046 0.0675 3.8323 0.64 1.7863 0.57246 3.8207 2.17 1.4128 1.1049 2.3446 2.5473 1.2221 1.8946 1.755 4.0967 0.6064 2.5058 0.51251 4.2768-0.0749 1.7664-0.82341 3.6556-0.58901 1.4688-2.358 3.6251-1.1763 1.4502-3.156 2.6527-1.9843 1.1835-4.4711 1.7854-2.5248 0.611-4.6415 0.50029-2.1167-0.11071-3.6476-0.62439-1.5166-0.53727-3.321-1.8489-1.7855-1.3162-2.9892-3.1349-1.2037-1.8187-1.7734-4.1726zm16.032 8.6194q1.5946-0.38589 3.1974-1.236 1.6172-0.87366 2.698-2.2203 1.0762-1.3657 1.4995-2.8547 0.43775-1.5126 0.39261-3.692-0.0451-2.1794-0.54589-4.2486-0.62478-2.5817-1.9951-4.9227-1.0525-1.7749-2.7442-2.953-1.6964-1.1971-3.7732-1.5586-2.0815-0.38046-4.2076 0.13406-1.7275 0.41806-3.2412 1.3872-1.5137 0.96918-2.3609 2.1186-0.85174 1.1305-1.3679 2.9836-0.52071 1.8341-0.52211 3.9042-1e-3 2.0701 0.36152 3.5698 0.3813 1.5756 1.3382 3.454 0.95695 1.8784 2.127 3.1426 1.189 1.2596 2.6606 2.1092 1.486 0.826 3.1327 1.0705 1.6421 0.22556 3.3506-0.1879z"/>
<path d="m316.23 895.74-0.1563-0.58494q0.3006-0.16119 0.48425-0.23048l1.7485-0.5683q2.1573-0.77861 4.8631-1.6229 1.0843-0.33017 3.443-0.96042 3.2078-0.85714 4.8245-0.78373 2.3565 0.11833 3.7914 1.2512 1.4486 1.1089 1.9075 2.826 0.74622 2.7926-2.7259 5.7623l-0.054 0.17616q2.1841 3e-3 3.7482 0.63597 1.5642 0.6333 2.6405 1.8619 0.78678 0.90167 1.2355 2.581 0.75126 2.8115-1.225 5.7049-1.9625 2.8695-6.4534 4.0695l-2.8115 0.75126-2.824 0.85569q-3.7638 1.0461-4.4053 1.2176-0.66042 0.17647-1.3171 0.29129l-0.0555-0.20756q-0.0605-0.22643 9e-3 -0.34599 0.083-0.14347 0.38357-0.30466 2.2276-1.1208 2.4841-1.3714 0.27036-0.2744 0.27769-0.70091 0.0247-0.81527-0.81222-3.9476-0.0756-0.28304-0.21047-0.71199-0.37555-1.2542-0.42597-1.4428l-0.52437-1.9624q-1.3311-4.9815-2.4376-8.6685l-1.0323-3.7877-0.14492-0.46669q-1.6644 0.20214-2.906 0.47326-0.79755 0.1929-1.3184 0.21077zm10.042 7.5462q0.99388-0.0634 2.0317-0.34072 4.0758-1.0891 5.0497-3.2699t0.49999-3.9545q-0.21176-0.79251-0.69274-1.5333-0.46715-0.7647-1.304-1.2486-0.81802-0.489-1.8661-0.55263-1.7878-0.10855-3.5049 0.35027-1.6039 0.42857-2.8855 1.1552 0.087 0.4013 0.13743 0.58999 0.0504 0.18869 0.32514 1.0655 0.17013 0.56104 0.32139 1.1271l0.55347 2.2983 0.3819 1.3535 0.84301 2.6253zm7.8628 11.646q1.8328-0.63125 2.9205-1.6295 0.50427-0.45821 1.0901-1.4436 0.59961-1.0093 0.74116-2.2197 0.16043-1.2154-0.11184-2.2344-0.20672-0.77364-0.83002-1.8201-0.60443-1.0515-1.5861-1.6989-0.96783-0.67135-2.5858-0.82528-1.6231-0.1728-3.3968 0.30115-3.4342 0.91765-3.814 1.1607 0.0971 0.43903 0.15256 0.64659l0.20543 0.69312 0.35928 1.4202 0.42857 1.6039q1.2415 4.4191 1.6092 5.1902 0.36776 0.77105 1.392 1.1241 1.0432 0.34797 3.4257-0.26845z"/>
<path d="m345.95 912.93q-0.0589-0.28765 0.0108-0.5499 1.3601-0.79953 2.7174-1.3147 0.90204-0.32916 1.0724-0.74066 0.12097-0.29662-0.27134-1.87l-1.2358-5.0078-0.94612-3.3657-1.1934-4.4118-0.32119-1.1676q-1.0742-3.9787-1.4001-4.9424-0.0706-0.18313-0.29571-0.48584-0.55178-0.0913-0.91148-0.0734-0.34086 0.0127-3.088 0.26203-0.0758-0.20197-0.10172-0.29613-0.0311-0.11299-0.0641-0.30649 0.3578-0.0984 1.1779-0.28352l2.8883-0.69327 1.6676-0.41821 0.48444-0.15352q0.0942-0.0259 0.55648-0.11257 1.1111-0.30564 1.2754-0.3711l1.4754-0.52742q1.5254-0.41962 2.1624-0.53408 0.0744 0.34415 0.0702 0.7707-0.19679 0.0947-1.9274 0.65176-1.7358 0.53827-1.958 0.76145-0.36578 0.36396-0.0187 1.6257 0.0829 0.3013 0.29907 1.2344l0.31082 1.1299 0.97721 3.4787 0.32637 1.1864 1.7524 6.2229 1.4044 5.3261 0.34002 1.1624q0.15541 0.56495 0.37999 0.64497 0.47598-0.11068 2.7786-0.72386l1.2806-0.35227 3.2268-1.0092q1.2702-0.38993 1.7593-0.74731 0.48396-0.37622 1.4744-1.7831 0.5856-0.89034 0.82188-1.7251 0.0527-0.17656 0.19581-0.54003 0.22311-0.58805 0.42165-2.2227l0.62145-0.17095q0.0735 0.70902 0.10745 1.3479 0.18432 2.8055 0.46413 4.6327 0.0659 0.387 0.11635 0.7175l-7.1 1.7303q-9.0769 2.497-10.725 3.1327-0.51693 0.18272-1.1007 0.34331z"/>
<path d="m368.65 906.2q0.14269-0.22065 0.26448-0.29403 0.29506-0.18089 1.0528-0.44637 1.7984-0.6074 2.1709-0.95085 0.16206-0.44844-0.0214-1.1272l-0.37554-1.3147-1.2754-4.7942-0.64917-2.2524-1.2601-4.7377-1.5465-5.3482q-0.53859-1.9181-0.83109-2.1021-0.4362-0.26653-2.1296 0.13041-0.72158 0.17477-1.2938 0.22827-0.28078-0.0657-0.33683-0.27315-0.0408-0.15084-3e-3 -0.38372 0.14421-0.14013 0.2762-0.1758 0.26397-0.0713 0.64616-0.15439 1.1379-0.20636 2.3258-0.52738l1.3851-0.41478 3.3388-0.82138q2.4888-0.67261 3.8688-1.1062 1.38-0.43363 1.8702-0.56612 0.43366-0.11719 2.1698-0.50546l2.6723-0.74242 0.33582-0.0301 1.5497-0.47949 0.21403 0.0433q0.13504 0.12536 0.21861 0.28486 0.0713 0.26397 0.12483 0.83624 0.0724 0.56717 0.10802 0.69916 0.52993 1.9609 1.0288 3.2828 0.0117 0.11823-0.0724 0.18142-0.2074 0.0561-0.39238 0.0453-0.30422-0.30219-0.90704-1.1104-0.58398-0.81331-1.6026-1.8126-0.68538-0.66451-0.99012-0.74401-0.30473-0.0795-1.1343 0.1447-0.1697 0.0459-1.726 0.42598-0.4199 0.0932-0.81585 0.20025l-5.3431 1.5653-0.47137 0.12739q-1.037 0.28025-1.1731 0.60027-0.19824 0.53914 0.39794 2.7452 0.0611 0.22626 1.3172 4.4997l0.70828 2.6208q0.22268 5.2e-4 0.4678-0.0657l0.32053-0.0866q0.32053-0.0866 0.94784-0.23592 0.99064-0.22725 1.33-0.31897 0.22626-0.0611 0.39086-0.12586 2.0159-0.62574 5.2213-1.492 0.95345-0.43976 1.062-0.71187 0.1911-0.41582-0.0642-1.8845-0.23642-1.4737 0.20285-1.7948 0.24512-0.0662 0.478-0.028 0.0785 0.14064 0.11414 0.27263 0.0357 0.13198 0.0795 0.44385 0.0943 0.72311 1.0879 4.3998 0.26496 0.98045 0.68535 2.1617 0.43924 1.1761 0.46472 1.2704 0.0459 0.1697 0.0657 0.46781-0.13045 0.11618-0.22473 0.14166l-0.13198 0.0357q-0.44435-0.44641-1.0278-1.4824-1.0049-1.7718-1.679-2.0955-0.66042-0.34755-1.8671-0.0214-0.26397 0.0713-0.95141 0.29758-0.69253 0.20739-2.0689 0.57936l-1.2256 0.33121q-2.6208 0.70828-3.401 1.0405l0.1493 0.62731 0.95642 3.4642 0.57223 2.1923 0.59464 2.1255q0.5386 1.9181 0.84638 2.1586 0.43264 0.32818 1.5074 0.0377l1.145-0.32968q0.15084-0.0408 1.1792-0.27821 1.0421-0.2614 2.5505-0.66904 3.639-0.98343 4.7642-1.6112 1.1201-0.64665 1.6791-1.6475 0.5779-1.0059 1.0575-3.9478 0.14933-0.86987 0.50757-0.96668 0.16969-0.0459 0.41786 0.0489-0.0423 2.0144 0.0402 2.6193 0.14928 1.3759 0.48355 2.7625 0.16815 0.62221-0.0214 1.1185l-0.41481 0.1121-5.2829 1.4884-2.3808 0.62318-5.6361 1.6041-2.3003 0.62165q-0.43366 0.1172-0.80566 0.23796-3.3531 1.068-4.9558 1.5012-0.28282 0.0764-0.42143 0.0127-0.11975-0.0688-0.1707-0.25735z"/>
<path d="m396.59 872.93 0.91199-0.2172q0.494-0.11765 2.1796-0.45885 2.6111-0.5014 4.3211-0.90865l2.2139-0.56743q0.475-0.11312 0.9301-0.1412 0.16919 0.12032 0.20992 0.29132l0.0498 0.209-0.42069 0.34112-0.209 0.0498-1.0595 0.2724-0.55552 0.11222q-0.64599 0.15385-0.97711 0.53388-0.25423 0.2814-0.19993 0.50939 0.0588 0.247 0.41533 0.56365 0.1312 0.12937 0.4126 0.38359 0.53384 0.5555 1.3645 1.2612 1.1916 1.0413 2.6059 2.5115 0.56189 0.58897 1.1482 1.1119l3.9287 3.6822q0.19903-0.42887 0.5256-1.2495l1.7993-4.5846 2.0272-5.4821q0.26414-0.74555 0.26774-1.0676 2e-3 -0.16104-0.0389-0.33204-0.095-0.399-0.51485-0.56002-0.68402-0.25872-2.6863 0.0173-0.13752 0.0127-0.37457 0.029-0.1873-0.19632-0.2235-0.34832-0.0272-0.114-0.0398-0.25153l0.98346-0.2543 3.5946-0.7557 2.8554-0.74027q0.114-0.0272 0.80252-0.17105l0.10138 0.67857q-0.12395 0.0697-0.40443 0.15654l-0.44242 0.1656q-0.10947 0.0462-0.35194 0.12398-0.3628 0.24702-0.55007 0.47232-2.0916 3.6102-3.4241 6.6982-1.3325 3.088-2.1702 5.5563-0.26957 0.80707-0.45412 1.2124-0.34015 0.76364-0.36275 1.0903-0.0325 0.79077 0.32496 2.2918 1.4073 5.909 1.8697 6.9232 0.2407 0.50484 0.45785 0.57359 0.55282 0.12935 4.0732-0.34768l0.0543 0.228q0.0543 0.228-2e-3 0.58267l-4.9137 0.9494-3.2082 0.94478-2.66 0.6335q-0.38 0.0905-0.84052 0.1801-0.12578-0.1909-0.1484-0.2859-0.0226-0.095-6e-3 -0.27957 0.10585-0.14568 0.23432-0.19635l2.3605-0.96372q1.1734-0.72118 1.2892-0.90937 0.1737-0.2823 0.11757-0.77087-0.0624-0.34653-1.239-5.2865-0.43893-1.843-0.66695-2.2103-0.21355-0.39085-1.1419-1.2539l-3.3895-3.1882-5.7076-5.1659q-1.4866-1.3525-2.4348-1.709-0.41982-0.16102-1.8955 0.0499-0.152 0.0362-0.46505 0.0706z"/>
<path d="m438.35 889.23q-0.0314-0.29194 0.0628-0.54641 1.4297-0.66714 2.8297-1.0515 0.92915-0.24227 1.1378-0.63578 0.14851-0.28383-0.093-1.8873l-0.75601-5.1024-0.62313-3.4402-0.77022-4.505-0.20917-1.1927q-0.69263-4.0625-0.92577-5.0528-0.053-0.18901-0.24837-0.51167-0.54066-0.14313-0.90044-0.15936-0.34053-0.0196-3.0989-0.0316-0.0564-0.20824-0.0732-0.30443-0.0202-0.11543-0.0347-0.31118 0.36552-0.0641 1.1995-0.1707l2.941-0.41662 1.6997-0.25841 0.4968-0.10696q0.0962-0.0169 0.56464-0.0594 1.135-0.19905 1.3048-0.24865l1.5188-0.38533q1.5582-0.27327 2.2032-0.32689 0.0415 0.34965-3e-3 0.77388-0.20487 0.0756-1.9805 0.4663-1.779 0.37147-2.0213 0.5726-0.3986 0.32769-0.17256 1.6166 0.054 0.30781 0.18082 1.2572l0.20242 1.1543 0.64338 3.5556 0.21255 1.212 1.1552 6.3609 0.89368 5.4351 0.22841 1.1894q0.10121 0.57713 0.31721 0.67805 0.48431-0.0651 2.8347-0.45746l1.3082-0.22942 3.3079-0.69908q1.3014-0.26789 1.8222-0.57734 0.51741-0.32869 1.6366-1.6354 0.66729-0.83088 0.98155-1.6395 0.0692-0.17077 0.24607-0.51906 0.2778-0.56428 0.63025-2.1728l0.63485-0.11133q6e-3 0.71279-0.0207 1.352-0.0822 2.8103 0.0233 4.6558 0.029 0.3915 0.0479 0.72528l-7.232 1.0502q-9.2726 1.6261-10.974 2.1029-0.53191 0.13294-1.1283 0.23753z"/>
<path d="m461.61 884.65q0.17563-0.19545 0.30745-0.24875 0.31984-0.13222 1.1099-0.27516 1.8715-0.31686 2.2934-0.59742 0.2306-0.41735 0.15625-1.1165l-0.16399-1.3574-0.50516-4.9352-0.28667-2.3265-0.49896-4.8769-0.6857-5.5249q-0.23008-1.979-0.48999-2.2066-0.38883-0.33184-2.1236-0.2063-0.7401 0.0591-1.3136 0.0218-0.26694-0.1091-0.28966-0.32274-0.0165-0.15538 0.0579-0.37934 0.16447-0.1157 0.30042-0.13015 0.2719-0.0289 0.6624-0.0508 1.1562-0.0247 2.3798-0.15485l1.4331-0.19168 3.4265-0.28579q2.5637-0.27262 3.9947-0.48371 1.431-0.2111 1.936-0.26479 0.4467-0.0475 2.2223-0.15775l2.7558-0.31269 0.33637 0.0231 1.6058-0.22968 0.20454 0.0765q0.11363 0.14505 0.17106 0.31571 0.0289 0.27191-8e-3 0.84546-0.0178 0.57149-3e-3 0.70745 0.21479 2.0199 0.49944 3.4038-7e-3 0.11859-0.10001 0.16776-0.21364 0.0227-0.39463-0.017-0.25288-0.34629-0.72102-1.2393-0.44873-0.89507-1.2974-2.0422-0.57229-0.76408-0.86072-0.89054-0.28842-0.12646-1.143-0.0356-0.17479 0.0186-1.7715 0.14909-0.42934 0.026-0.8372 0.0694l-5.5228 0.70512-0.48554 0.0516q-1.0682 0.11358-1.2529 0.40821-0.28061 0.50123-0.039 2.7736 0.0248 0.23306 0.59277 4.6509l0.28707 2.6996q0.21983 0.0356 0.47232 9e-3l0.33017-0.0351q0.33017-0.0351 0.97315-0.0838 1.0141-0.0686 1.3636-0.10572 0.23306-0.0248 0.40579-0.0628 2.0893-0.30073 5.391-0.65183 1.0108-0.28425 1.1608-0.5359 0.25415-0.38057 0.23314-1.8711-2e-3 -1.4926 0.48273-1.7405 0.25248-0.0268 0.47645 0.0476 0.0554 0.15124 0.0698 0.28719 0.0145 0.13595 9e-3 0.45083-0.0207 0.72893 0.38203 4.5162 0.10739 1.0099 0.33668 2.2426 0.2487 1.2306 0.25903 1.3277 0.0186 0.1748-9e-3 0.47232-0.14711 0.0942-0.24422 0.10453l-0.13595 0.0145q-0.36858-0.51076-0.78175-1.6257-0.71356-1.9079-1.3284-2.3336-0.59751-0.44714-1.8405-0.31496-0.27191 0.0289-0.98638 0.14417-0.71654 0.0958-2.1343 0.2466l-1.2624 0.13424q-2.6996 0.28707-3.5224 0.49241l0.0487 0.64298 0.39943 3.5715 0.22015 2.255 0.2528 2.1926q0.23007 1.979 0.49618 2.2649 0.3756 0.39217 1.4826 0.27445l1.1827-0.14541q0.15537-0.0165 1.2083-0.0892 1.0703-0.0942 2.624-0.25939 3.7484-0.39859 4.9583-0.84151 1.2079-0.46235 1.9174-1.3627 0.72897-0.90245 1.6655-3.7322 0.28434-0.83553 0.65335-0.87477 0.1748-0.0186 0.40496 0.11407-0.35877 1.9826-0.37244 2.593-0.0691 1.3822 0.0428 2.8042 0.0682 0.64092-0.19716 1.1012l-0.42728 0.0454-5.4513 0.6386-2.4492 0.2408-5.8183 0.69726-2.3695 0.25196q-0.4467 0.0475-0.83307 0.10823-3.4794 0.52712-5.1302 0.70267-0.29133 0.031-0.41818-0.0537-0.10744-0.0868-0.12809-0.281z"/>
<path d="m486.58 881.53q0.27302-0.15697 0.48787-0.15754l0.44921-1e-3q0.13672-3.6e-4 0.4687-0.0208 1.5035-0.14072 1.7766-0.27816 0.68261-0.37291 1.1684-1.2922 1.0103-1.9949 2.2702-5.6506 0.60085-1.7399 0.75611-2.1114 0.48516-1.1732 0.93096-2.4634l1.8223-5.1416q0.42647-1.2121 2.0556-5.5524 0.40724-1.0948 0.9883-2.9323l0.5663-0.0406 0.68364 0.0177q0.84426 1.6579 1.4939 3.5703 0.35426 1.0147 1.1604 3.0243l2.9901 8.0194 1.5936 4.3512q1.2599 3.7076 1.6528 4.5659 0.39286 0.8388 0.72562 1.1114 0.0979 0.0779 0.72327 0.23246 0.64495 0.15453 0.89906 0.23198 0.89911 0.25152 1.2511 0.42637 0.0787 0.21463 0.079 0.33182 2.6e-4 0.0977-0.0578 0.29312-0.62495 0.0212-0.87885 0.0219-0.99609 3e-3 -3.5158-0.0493l-1.9533-0.0534-2.3632 0.0453q-0.23438 6.3e-4 -0.48833-0.0182-0.23448-0.0384-0.41026-0.038l-0.42969 1e-3q-0.21489-0.019-0.39093-0.11615-7.3e-4 -0.27344 0.0962-0.5276 0.23406-0.11781 0.42932-0.13786l2.0504-0.14217q0.80068-0.0412 1.2104-0.21806 0.11625-0.35187 0.11578-0.52765-9.3e-4 -0.35157-0.51264-1.8151-0.35415-0.97562-0.62993-1.8538-0.25624-0.87822-2.0857-5.7757-0.80114-0.13459-1.4066-0.13298l-4.1796 0.0502-1.2305-0.0163q-0.66406 2e-3 -1.4646 0.10155-0.25235 0.58661-0.3298 0.84072l-1.7045 5.3756q-1.0856 3.0693-1.0848 3.3818 4.7e-4 0.17579 0.17734 0.58547 0.41046 0.1161 1.0943 0.21194l2.6569 0.22731q0.21531 0.17521 0.21567 0.31193 2.6e-4 0.0977-0.0578 0.29312-0.87886 0.0219-1.3476 0.0231-1.5625 4e-3 -3.6331-0.088-0.95713-0.0365-1.3673-0.0354-0.41015 1e-3 -1.4257 0.0429-0.66396 0.0408-0.95693 0.0416-0.46874 1e-3 -1.2111-0.0554l-3.1e-4 -0.11718q-3.6e-4 -0.13672 0.0771-0.37131zm9.2852-11.743q2.0902 0.11164 4.7659 0.10452 1.5234-4e-3 2.6755-0.10476-0.19734-0.7612-0.45301-1.4246-1.2786-3.395-1.4162-3.7462l-1.7893-4.507-0.19625-0.35105q-0.11656 0.23469-0.85402 2.014-1.2419 3.0502-1.7842 4.7508-0.25188 0.76239-0.5233 1.5248-0.27146 0.74291-0.34875 1.0556-0.0578 0.29313-0.19371 0.60599z"/>
<path d="m514.11 882.25q0.0568-0.28808 0.2223-0.50308 1.5633-0.2123 3.0143-0.16338 0.95917 0.0447 1.2753-0.26908 0.22613-0.22689 0.47183-1.8297l0.7939-5.0966 0.42697-3.47 0.60285-4.5304 0.1546-1.201q0.54551-4.0849 0.61706-5.0997 6e-3 -0.19621-0.0852-0.56235-0.47373-0.29729-0.81244-0.41966-0.31934-0.11988-2.9496-0.95076 8e-3 -0.21558 0.0205-0.31244 0.015-0.11623 0.0593-0.30745 0.36806 0.0474 1.196 0.19334l2.932 0.47588 1.6997 0.25817 0.50615 0.0455q0.0969 0.0125 0.55678 0.11106 1.1429 0.14711 1.3198 0.15019l1.5647 0.0832q1.5691 0.20197 2.2009 0.34238-0.0643 0.34619-0.23285 0.73803-0.21807 0.0113-2.0296-0.1431-1.809-0.17379-2.1002-0.0537-0.47796 0.19447-0.64502 1.4924-0.0399 0.30994-0.20082 1.2542l-0.14962 1.1623-0.44193 3.5862-0.15709 1.2204-0.78661 6.4169-0.76129 5.4553-0.13523 1.2035q-0.0748 0.58114 0.10145 0.74167 0.48179 0.0817 2.8426 0.4053l1.3173 0.16956 3.3662 0.31515q1.3222 0.13082 1.9114-0.01 0.5917-0.16014 2.0486-1.0754 0.884-0.59514 1.4243-1.2739 0.11681-0.14251 0.38916-0.42253 0.43289-0.45628 1.2473-1.8874l0.63926 0.0823q-0.206 0.68241-0.42139 1.2848-0.91336 2.6591-1.3608 4.4526-0.0886 0.38244-0.16974 0.70677l-7.2175-1.1457q-9.337-1.2019-11.103-1.252-0.54739-0.0311-1.1479-0.10837z"/>
</g>
<g transform="matrix(.32594 0 0 .32594 261.99 618.12)" stroke-width="1.0002" aria-label=" CIUDAD DE TARMA 1787">
<path d="m158.1 965.24q-0.31833 1.4884-0.88348 2.966-0.11164 0.29188-0.31827 0.77745-0.27632-0.0429-0.40402-0.0918-0.10945-0.0419-0.29617-0.1551 0.0502-2.4274-1.2433-4.2395-1.2935-1.8121-3.8474-2.7889-1.35-0.51631-2.3989-0.56202-1.8581-0.0624-3.4824 0.46646-1.6173 0.51064-3.0049 1.5692-1.3807 1.0403-2.645 2.8151-1.2391 1.7636-2.0206 3.8067-1.4931 3.9039-1.2842 6.9114 0.21594 2.9892 1.8587 4.8722 1.6498 1.8647 3.7476 2.6671l0.86438 0.30968q1.5292 0.37575 2.121 0.41391 1.4782 0.12624 2.531-0.0566 1.078-0.19413 2.2617-0.82877 1.202-0.62766 2.2672-1.6631l0.24681 0.0108q0.0912 0.0349 0.23178 0.21411-0.1857 0.43084-0.25278 0.55156-1.9453 2.7899-2.7245 3.7884-0.31979-0.0387-0.81343-0.0602-2.4135-0.0866-5.989-1.4542-2.8823-1.1024-4.17-2.0549-1.2764-0.92731-2.659-2.3971-1.3574-1.4811-2.111-3.3376-0.75368-1.8566-0.74271-4.2362 0.018-2.3979 0.95986-4.8606 0.89308-2.335 2.1762-3.8309 1.29-1.514 3.269-2.8064 1.979-1.2924 4.1838-1.8083 2.223-0.50897 4.564-0.17821 1.6397 0.25074 4.4126 1.3113 2.0249 0.77447 3.6034 2.0055 1.5854 1.2128 1.9921 1.9538z"/>
<path d="m152.75 987.78q0.46157-0.0499 0.90403 0.037 2.9254 0.64011 3.479 0.2712 0.55895-0.38768 1.8033-4.7041l0.54931-1.9759 0.59514-2.0644 0.57958-2.2924 0.42167-1.3216 0.40324-1.4692 0.49775-1.7266 0.18429-0.78026 0.31887-0.96506q0.11616-0.3324 0.246-0.7828 0.34085-1.1823 0.60698-2.5285 6.7e-4 -0.28438-0.0604-0.56622-0.59158-0.55675-2.1168-1.1184-1.501-0.57502-1.6642-0.78467-0.11767-0.15588-1e-3 -0.63047l1.5764 0.45447 4.9408 1.5463q1.9142 0.55186 5.1371 1.359-0.0866 0.30027-0.19984 0.55219-0.40239-0.0144-1.3169-0.15606-1.8424-0.30754-2.2906-0.23349-0.27102 0.0235-0.44855 0.21624-0.28506 0.2837-0.5877 1.1925l-0.79176 2.3939-2.3325 8.3729-0.95221 3.303q-0.4866 1.5468-0.64891 2.1098-0.60595 2.1019-0.67984 2.7107-0.0551 0.61424 0.11311 0.94731 0.1924 0.31972 0.73089 0.63757 0.80377 0.45532 1.2863 0.61475 1.0401 0.34051 1.2459 0.68441-0.014 0.2602-0.0627 0.4291l-0.0433 0.15014q-1.724-0.43604-2.531-0.66869-0.46918-0.13526-1.654-0.53782l-2.6007-0.70909-4.4048-1.2902-0.35657-0.10279z"/>
<path d="m181.29 969.93q0.0326 0.34456-9.2e-4 0.51712-0.0223 0.11503-0.12453 0.33395-0.52456 0.0374-0.83133-0.0221-0.13421-0.0261-0.45643-0.10852-0.29933-0.0979-0.49106-0.13513-0.88197-0.17124-1.4666 0.0734-0.38607 0.1439-0.52977 0.47413l-0.6161 2.1485-1.7852 9.5019q-0.99337 5.2188-0.91684 6.5667 0.0803 1.3287 0.68711 2.3021 0.60686 0.97335 2.0365 1.808 1.4488 0.83838 2.906 1.1213 3.2594 0.63284 5.1674 0.0284 1.9272-0.60074 2.9951-2.1044 1.0908-1.5192 1.746-4.8936 0.0186-0.0959 0.24029-1.545l0.10795-0.55602q0.0596-0.30677 0.26915-1.1813 0.21331-0.89369 0.24309-1.0471l0.78078-5.5586q0.40556-2.8062 0.31062-3.3419-0.0758-0.53201-0.3725-0.84827-0.64352-0.68203-2.6515-1.5096-0.0437-0.28704-7e-3 -0.57836 0.76265 0.0685 1.4912 0.20995 0.76693 0.1489 1.5994 0.37021 1.2468 0.34156 1.3619 0.3639l3.048 0.4923 0.59065 0.13457-0.15319 0.68651q-2.4179-0.1511-2.9599 0.18137-0.53833 0.31329-0.75424 1.4253-0.1154 0.59437-0.42586 2.6033l-0.63636 3.9949-0.32442 1.5685-0.32963 2.0052q-0.72963 3.758-1.2048 5.0783-0.6753 1.8386-1.4664 2.839-0.77193 1.0041-2.0206 1.6968-1.2449 0.6735-3.1589 0.89878-1.8948 0.22899-3.6396-0.10976-2.7418-0.53233-3.8752-1.1503-2.0746-1.0992-3.1699-2.426-1.0953-1.3268-1.3854-2.4973-0.39559-1.5491 0.13302-4.2717l0.25686-1.323 0.9848-5.3797 0.89882-4.322 0.56584-2.9143q0.2159-1.112-5e-3 -1.6126-0.15134-0.34772-0.55398-0.42589l-1.1349-0.20046q-1.2654-0.24569-1.5584-0.58112-0.024-0.18373 2e-3 -0.31794 0.0335-0.17256 0.16715-0.24609 0.24069-0.11244 0.54746-0.0529l0.4985 0.0968 1.2883 0.23024 3.0294 0.58817z"/>
<path d="m193.66 997.45q0.74396-0.25769 1.7056-0.28364 1.3945-0.0523 2.1141-0.50768 0.60605-1.0319 0.93406-5.4141l0.23034-3.0773 0.17745-1.8474 0.0631-1.3663 0.22701-2.5096 0.41537-6.3343q0.0802-1.0712-0.20667-1.4257-0.41152-0.52044-2.3091-1.0738-0.78543-0.23506-0.95052-0.38452-0.16363-0.16894-0.17196-0.58086 0.45525-0.0639 0.63054-0.0507l1.3828 0.10351 0.7221 0.0345q0.72064 0.0539 1.5854 0.27536 1.7831 0.25098 3.6724 0.39239 0.54535 0.0408 1.5625 0.0582 2.6995 0.0454 3.8681 0.13284 2.3567 0.17639 4.4057 0.79982 2.0685 0.62489 4.1941 2.0571 1.3231 0.90206 2.6346 2.7434 1.3325 1.8233 1.9195 3.9238 0.60798 2.0824 0.41701 4.6339-0.17057 2.2788-1.1757 4.4559-0.98568 2.1786-2.5898 3.7233-1.6027 1.5252-3.1846 2.249-1.5804 0.70432-4.7419 1.0748-1.303 0.13751-4.6335-0.11178-2.2009-0.16473-3.5735-0.40458-0.53952-0.11872-1.1628-0.16537-0.0974-7e-3 -0.2157 3e-3l-7.9567-0.45846-0.0273-0.15873q-0.0317-0.1003-0.0229-0.21716zm9.9705-0.0176q1.4423 0.61719 2.9615 0.7309 1.9672 0.14724 3.9016-0.31513 1.9359-0.48185 3.4603-1.4842 1.5453-1.0203 2.5852-2.3527 1.0413-1.3518 1.5154-2.4523 0.66926-1.6147 0.86753-4.2636 0.18951-2.532-0.68636-5.222-0.60454-1.8667-2.3504-3.6622-1.7264-1.794-4.2015-2.7431-2.4737-0.96858-5.4147-1.1887-2.0256-0.15161-3.033 0.22346-0.1256 0.10812-0.25413 0.25519-0.1533 0.47817-0.18392 0.88718-0.0189 0.2532-0.0257 0.60524-0.11068 2.2637-0.21273 3.627l-0.3504 4.4198q-0.72891 9.7384-0.46143 10.875 0.28842 1.1184 1.8827 2.0603z"/>
<path d="m221.72 999.32q0.26839-0.16477 0.48313-0.17152l0.449-0.0141q0.13665-4e-3 0.4679-0.0343 1.4989-0.18393 1.7679-0.32918 0.67159-0.39241 1.1308-1.3253 0.95248-2.0231 2.1066-5.7136 0.55051-1.7565 0.69502-2.1323 0.45119-1.1866 0.85966-2.4892l1.6735-5.1919q0.3914-1.2238 1.8949-5.6092 0.37556-1.1061 0.90348-2.9596l0.5649-0.0569 0.68387-2e-3q0.89163 1.6329 1.596 3.5258 0.38332 1.0041 1.247 2.9896l3.2197 7.93 1.7182 4.3036q1.3661 3.6698 1.7835 4.5165 0.41684 0.82714 0.7573 1.09 0.10007 0.075 0.72967 0.21154 0.64913 0.13591 0.90536 0.20601 0.90598 0.22554 1.2629 0.39018 0.0848 0.21228 0.0885 0.32941 3e-3 0.0976-0.0494 0.29466-0.62408 0.0392-0.87786 0.0472-0.9956 0.0313-3.5157 0.052l-1.954 3e-3 -2.3609 0.11334q-0.23426 7e-3 -0.48866-4e-3 -0.23549-0.0317-0.41118-0.0262l-0.42947 0.0135q-0.21536-0.0128-0.39412-0.10485-9e-3 -0.2733 0.081-0.53015 0.23057-0.1245 0.42517-0.15016l2.0455-0.20114q0.79916-0.0642 1.2036-0.25281 0.10608-0.35507 0.10055-0.53076-0.0111-0.35139-0.56467-1.7996-0.38209-0.96502-0.68303-1.8349-0.28141-0.87048-2.2511-5.7133-0.80468-0.11148-1.4098-0.0924l-4.1764 0.17046-1.2305 0.0192q-0.66373 0.0209-1.461 0.14366-0.23536 0.59363-0.30546 0.84987l-1.549 5.4225q-0.9968 3.0993-0.98698 3.4116 6e-3 0.1757 0.19412 0.58012 0.41364 0.10424 1.1 0.18035l2.6623 0.15074q0.22027 0.16894 0.22457 0.30559 3e-3 0.0976-0.0494 0.29467-0.87786 0.0472-1.3464 0.0619-1.5617 0.0491-3.6341 0.0166-0.95779-9e-3 -1.3677 4e-3 -0.40995 0.0129-1.4238 0.0839-0.6625 0.0599-0.95533 0.0691-0.46852 0.0147-1.2122-0.0205l-4e-3 -0.11713q-4e-3 -0.13665 0.0664-0.37337zm8.9434-12.006q2.0925 0.0514 4.767-0.0327 1.5227-0.0479 2.6714-0.18174-0.21917-0.7552-0.49383-1.411-1.3758-3.3568-1.5235-3.7039l-1.9183-4.4536-0.20627-0.34524q-0.10976 0.23794-0.7957 2.0377-1.1536 3.0847-1.6468 4.8002-0.22983 0.76933-0.47918 1.5393-0.24997 0.75042-0.31823 1.0652-0.0494 0.29467-0.17618 0.61131z"/>
<path d="m249.48 998.73q0.67508-0.40515 1.6108-0.62828 1.354-0.33793 1.9645-0.93154 0.38093-1.1344-0.19915-5.4905l-0.40734-3.0589-0.2062-1.8444-0.21919-1.3501-0.29386-2.5026-0.89597-6.2844q-0.1418-1.0648-0.4954-1.3527-0.50974-0.42471-2.4806-0.57604-0.81698-0.0685-1.0093-0.18086-0.19487-0.13168-0.28773-0.53309 0.4324-0.1561 0.60664-0.1793l1.3746-0.18305 0.71375-0.11475q0.71633-0.0954 1.6082-0.0565 1.7966-0.12103 3.6746-0.37111 0.54209-0.0722 1.5411-0.26433 2.6511-0.51067 3.8127-0.66535 2.3426-0.31196 4.476-0.12317 2.1528 0.18621 4.5274 1.1507 1.4803 0.61072 3.1424 2.143 1.6789 1.5104 2.6853 3.4452 1.0232 1.9129 1.3609 4.4491 0.30164 2.2652-0.23437 4.6025-0.51665 2.3347-1.7689 4.1763-1.2548 1.8222-2.6541 2.8558-1.4018 1.0142-4.4196 2.0269-1.2468 0.40248-4.5575 0.84334-2.1877 0.29133-3.5804 0.33885-0.5524-5e-3 -1.1719 0.0773-0.0968 0.0129-0.21039 0.0477l-7.881 1.1874-0.0593-0.14973q-0.0516-0.0916-0.0671-0.2078zm9.7539-2.0673q1.5384 0.30743 3.0485 0.10634 1.9554-0.26039 3.7534-1.1106 1.7954-0.86961 3.0812-2.1639 1.3025-1.3163 2.0462-2.834 0.74109-1.537 0.97877-2.7115 0.32295-1.7178-0.0277-4.3508-0.33515-2.5168-1.7454-4.9693-0.97546-1.7026-3.0532-3.1007-2.0584-1.4007-4.6758-1.8206-2.62-0.43926-5.5434-0.05-2.0135 0.26813-2.9222 0.84232-0.10069 0.13163-0.19623 0.30198-0.0517 0.49948 2e-3 0.90605 0.0335 0.25168 0.0993 0.59759 0.35715 2.2381 0.53762 3.5933l0.56587 4.3974q1.2891 9.6802 1.7845 10.737 0.51222 1.0352 2.2661 1.6292z"/>
<path d="m289.82 992.57q0.61504-0.49154 1.5127-0.83743 1.2968-0.51542 1.8228-1.1851 0.22629-1.1751-0.92935-5.4149l-0.81152-2.9773-0.45025-1.8004-0.39722-1.3088-0.62489-2.4411-1.7258-6.1088q-0.28249-1.0364-0.67131-1.2746-0.56181-0.35296-2.5352-0.2402-0.81882 0.041-1.0244-0.0447-0.21068-0.10452-0.35623-0.48997 0.40772-0.21235 0.57732-0.25858l1.3379-0.36467 0.69208-0.20888q0.69723-0.19004 1.5863-0.27042 1.7644-0.35947 3.5923-0.85768 0.52763-0.14381 1.4921-0.46743 2.5594-0.85954 3.69-1.1677 2.2801-0.62148 4.4197-0.71881 2.1584-0.10245 4.6404 0.53687 1.5485 0.40792 3.4001 1.7049 1.8653 1.273 3.1206 3.0565 1.2691 1.7594 1.9419 4.228 0.60094 2.2047 0.38132 4.5926-0.20078 2.3828-1.1963 4.3748-1.0007 1.9732-2.2496 3.1841-1.2541 1.1921-4.1099 2.598-1.182 0.56511-4.4044 1.4434-2.1294 0.58039-3.5032 0.81316-0.54817 0.0684-1.1512 0.23279-0.0942 0.0257-0.20215 0.0753l-7.6523 2.2275-0.0788-0.14048q-0.0634-0.0839-0.0942-0.19701zm9.3912-3.3492q1.5657 0.0996 3.0355-0.30104 1.9032-0.51875 3.5718-1.6011 1.6635-1.1012 2.7652-2.5554 1.1154-1.4782 1.6501-3.0814 0.52956-1.6221 0.60854-2.8178 0.091-1.7455-0.60748-4.3083-0.6677-2.4497-2.3924-4.6923-1.1937-1.5573-3.4393-2.666-2.2267-1.1138-4.8767-1.181-2.6552-0.0861-5.5006 0.68952-1.9598 0.53416-2.7838 1.2244-0.0822 0.14388-0.15421 0.32545 0.0153 0.50191 0.1232 0.89763 0.0668 0.24497 0.17806 0.57902 0.65233 2.1705 1.0119 3.4895l1.1471 4.2827q2.5681 9.4219 3.2 10.404 0.64566 0.95767 2.4631 1.3125z"/>
<path d="m320.01 984.21q0.12245-0.23249 0.23722-0.31643 0.27775-0.20648 1.0088-0.53846 1.737-0.76529 2.0774-1.1406 0.12144-0.46109-0.12178-1.1208l-0.49125-1.276-1.6977-4.6614-0.84738-2.1856-1.6775-4.6065-2.0171-5.189q-0.70745-1.8624-1.0152-2.0196-0.45823-0.22658-2.1095 0.31974-0.70312 0.2384-1.2683 0.3427-0.28553-0.0405-0.35984-0.24203-0.0541-0.1466-0.0367-0.38196 0.13115-0.15243 0.25943-0.19973 0.25655-0.0946 0.62982-0.21138 1.115-0.30698 2.2695-0.73261l1.3426-0.53661 3.2523-1.1158q2.419-0.8918 3.7548-1.4467 1.3358-0.55492 1.8123-0.73058 0.42149-0.15539 2.1161-0.69689l2.5955-0.97769 0.3318-0.0599 1.5008-0.61573 0.21704 0.0241q0.14567 0.11283 0.24313 0.26425 0.0946 0.25655 0.19888 0.82177 0.12263 0.55847 0.16992 0.68675 0.70263 1.9058 1.3174 3.178 0.0222 0.11671-0.0559 0.18714-0.20159 0.0743-0.38678 0.0801-0.32995-0.27386-1.0024-1.0251-0.65415-0.75802-1.7578-1.6626-0.74189-0.60077-1.0525-0.65279-0.3106-0.052-1.1169 0.24525-0.16493 0.0608-1.6811 0.57815-0.40992 0.13031-0.79476 0.27219l-5.1822 2.0354-0.45813 0.16891q-1.0079 0.37158-1.1149 0.70246-0.14939 0.55466 0.64107 2.6988 0.0811 0.21991 1.7131 4.3644l0.9391 2.5472q0.22185-0.0193 0.46008-0.10717l0.31153-0.11485q0.31154-0.11485 0.92303-0.31948 0.96644-0.31466 1.2963-0.43627 0.21991-0.0811 0.37808-0.16021 1.9521-0.80296 5.0675-1.9515 0.91044-0.523 0.9943-0.80371 0.15327-0.43121-0.23191-1.8712-0.36686-1.4468 0.042-1.8057 0.23824-0.0878 0.4736-0.0705 0.0907 0.13309 0.13799 0.26137 0.0473 0.12828 0.11874 0.435 0.15835 0.71183 1.4758 4.2853 0.35132 0.95293 0.87534 2.092 0.54234 1.1323 0.57612 1.2239 0.0608 0.16493 0.10717 0.46008-0.11958 0.12735-0.21121 0.16113l-0.12828 0.0473q-0.48237-0.40502-1.1559-1.3849-1.1588-1.6752-1.8592-1.9374-0.68877-0.28729-1.8616 0.1451-0.25655 0.0946-0.92108 0.38121-0.67129 0.2683-2.0091 0.76149l-1.1912 0.43915q-2.5472 0.9391-3.2947 1.3396l0.20463 0.6115 1.2614 3.3651 0.76538 2.1325 0.78176 2.064q0.70745 1.8624 1.0354 2.0746 0.46017 0.28831 1.5047-0.0968l1.1111-0.43045q0.14661-0.054 1.1497-0.38222 1.0147-0.35326 2.4807-0.89375 3.5368-1.3039 4.6016-2.0295 1.058-0.74393 1.5256-1.7906 0.48591-1.0534 0.70132-4.0263 0.0712-0.87971 0.41938-1.0081 0.16492-0.0608 0.42055 0.0115 0.13742 2.0102 0.27355 2.6053 0.27135 1.3571 0.72789 2.7084 0.22295 0.60474 0.0784 1.116l-0.40316 0.14863-5.1292 1.9534-2.3158 0.83294-5.4706 2.1001-2.2357 0.82424q-0.42149 0.15539-0.78124 0.30884-3.2446 1.3627-4.8022 1.937-0.27488 0.10134-0.41861 0.0503-0.12541-0.0579-0.19297-0.2411z"/>
<path d="m346.93 950.13-0.1126-3.0539q-0.0997-0.58266-0.0156-0.7725 0.0782-0.20849 0.24608-0.26077 0.33565-0.10456 1.0143 0.56368 0.49709 0.47932 0.75449 0.58325 0.25159 0.0853 0.66061 0.0192l0.18067-0.0767 0.82507-0.17519 4.4182-1.315 5.1968-1.6393 1.5291-0.47633 2.8729-0.95631q0.18647-0.0581 0.4778-0.10793 1.3029-0.28312 1.6012-0.37606 0.27971-0.0871 0.38945-0.32589 0.0327-0.092 0.22036-1.4597 0.074-0.61629 0.42826-0.72666 0.14918-0.0465 0.39618-0.0416 0.20942 0.3439 0.30236 0.64226l0.21371 0.75171 0.5124 1.5792q0.18007 0.57807 1.0685 3.7585 0.0639 0.20513 0.0416 0.39619-0.16446 0.19443-0.31364 0.2409-0.14918 0.0465-0.30172-0.0492-0.15836-0.11433-0.55273-0.7893-0.89575-1.5621-1.6817-2.1151-0.51817-0.35001-1.2907-0.3344-0.75385 0.01-3.4018 0.83467-2.1258 0.66221-3.1282 1.0563 0.19506 0.75751 0.38676 1.3729l3.7565 11.534q0.21493 0.68996 0.73865 2.6339l0.79123 2.4743 0.41121 1.3857q0.20331 0.65266 0.51421 0.86266 0.3109 0.21001 1.3805 0.1632 1.8492-0.10552 2.4563-0.19236 0.36592-0.0731 0.62454-0.0309l0.17427 0.55942-2.6712 0.75027q-2.1876 0.66099-3.311 0.92912l-2.6819 0.97863-1.9604 0.73343q-0.83914 0.2614-1.0372 0.28219l-0.29592-0.0306q-0.0963-0.44051-6.3e-4 -0.59305 0.0899-0.1712 0.62606-0.42005 0.74834-0.35586 1.7241-0.96668 0.96996-0.62946 1.2127-1.0324 0.13419-0.22592 0.0868-0.64075-0.0878-0.87276-0.8371-3.2783l-0.98751-3.1701-2.2297-6.895-0.5393-1.4686-1.5696-4.9731q-1.2154 0.23543-3.0429 0.8047-2.6852 0.83648-3.1587 1.3522-0.75108 0.80677-1.7699 3.9063-0.30047 1.1369-0.74801 1.2763l-0.17944 0.015q-0.10945-0.0887-0.13849-0.18189-0.0697-0.22377-0.11988-1.4356-0.0743-1.552-0.15658-2.0787z"/>
<path d="m375.02 963.89q0.22263-0.22275 0.42989-0.27933l0.43336-0.11832q0.13189-0.036 0.44705-0.14229 1.4148-0.52799 1.6426-0.7319 0.56172-0.53803 0.79099-1.5522 0.45507-2.1893 0.71783-6.0471 0.12627-1.8364 0.17927-2.2355 0.1624-1.2591 0.25625-2.621l0.41822-5.4389q0.0956-1.2814 0.5363-5.8963 0.10761-1.1632 0.18931-3.0886l0.53612-0.18687 0.66461-0.1612q1.2474 1.3804 2.3733 3.0571 0.60664 0.88717 1.909 2.617l4.9781 6.962 2.6733 3.785q2.1832 3.2507 2.7864 3.9768 0.59803 0.70731 0.99035 0.88364 0.11479 0.0497 0.75887 0.0358 0.66293-0.019 0.92845-0.0105 0.93359 8e-3 1.319 0.0853 0.13196 0.18668 0.16282 0.29973 0.0257 0.0942 0.0206 0.29806-0.59779 0.18345-0.84273 0.25032-0.96093 0.26235-3.4069 0.86941l-1.8996 0.45788-2.2696 0.66012q-0.2261 0.0617-0.47618 0.10976-0.23639 0.024-0.40597 0.0703l-0.41451 0.11317q-0.2124 0.0378-0.4077-0.0102-0.072-0.26378-0.0447-0.53444 0.19523-0.17478 0.37851-0.24506l1.9424-0.67202q0.76222-0.24859 1.1116-0.52619 0.0205-0.37002-0.0258-0.53959-0.0926-0.33915-0.96828-1.6185-0.59635-0.84949-1.0916-1.6254-0.47643-0.781-3.5199-5.0319-0.80852 0.079-1.3926 0.23848l-4.0218 1.1385-1.1922 0.30523q-0.64061 0.1749-1.3874 0.48002-0.0906 0.63212-0.0991 0.89764l-0.24344 5.6341q-0.24751 3.2462-0.16521 3.5477 0.0463 0.16957 0.3239 0.51895 0.42654 5e-3 1.1117-0.0808l2.6242-0.47349q0.25356 0.11299 0.28956 0.24488 0.0257 0.0942 0.0206 0.29806-0.84273 0.25032-1.2949 0.37378-1.5073 0.41153-3.5303 0.86259-0.93353 0.21437-1.3292 0.3224-0.39568 0.10803-1.3652 0.4132-0.63033 0.21258-0.91295 0.28974-0.4522 0.12346-1.1836 0.26241l-0.0309-0.11305q-0.036-0.13189-0.0224-0.37857zm5.901-13.759q2.0469-0.43736 4.6282-1.1421 1.4696-0.40124 2.5556-0.79895-0.38903-0.68338-0.80887-1.2571-2.1198-2.9441-2.3443-3.2472l-2.9029-3.8843-0.28101-0.28771q-0.0513 0.25696-0.2992 2.167-0.40339 3.2685-0.48342 5.0518-0.0443 0.80169-0.10749 1.6085-0.0683 0.788-0.0614 1.11 0.0206 0.29806-0.029 0.63553z"/>
<path d="m402.46 956.46q2.7013-0.97202 3.0315-1.1896 0.22503-0.15286 0.32316-0.67721l-0.0489-0.20921q-0.11108-0.47548-0.65205-3.478-0.15746-0.84572-0.34407-1.6445l-0.58578-2.25-0.56178-2.5765-1.1342-4.7694-0.78074-3.4279q-0.48749-2.1726-0.95993-2.5637-0.45342-0.39551-1.9623-0.24358-1.5134 0.13291-1.6877 0.0734-0.17437-0.0595-0.22324-0.26876-0.0311-0.13314-0.0229-0.35568 0.1502-0.2156 0.83045-0.39457 0.0951-0.0222 0.50463-0.158 0.42411-0.15925 0.8045-0.24812l1.5596-0.36433 4.9887-1.2256q4.2413-0.99081 6.0806-0.75861 1.8584 0.22775 3.2174 1.4948 1.3546 1.248 1.7856 3.0929 0.81753 3.4995-2.4222 6.2019-0.5521 0.46995-0.85571 0.80162 0.96656 1.2183 2.5755 2.8682l3.384 3.5819q1.9786 1.9446 2.6679 2.4054 0.68485 0.44173 1.5535 0.63995 0.88767 0.19377 2.8315 0.10069 0.0634 0.18575 0.0901 0.29986 0.0267 0.11412 0.0476 0.28973-2.5967 0.64675-6.0963 1.4643-0.24725 0.0578-0.69358 0.12191-1.9546-2.2712-4.5047-4.9447l-4.0145-4.4776q-0.75718-0.66551-1.182-0.76684-0.41024-0.12479-1.0188 0.0174l-1.6122 0.39669-0.53698 0.10538q0.0851 0.62195 0.52499 2.5048l1.5195 6.5046q0.0654 0.36581 0.38764 0.97247 0.23657 0.32582 0.65125 0.46963 0.42926 0.12035 2.3002 0.14458l0.82422 8e-3q0.19658 0.15464 0.27212 0.47797-0.49131 0.21506-0.70052 0.26393-1.7117 0.39988-2.4243 0.52624-0.3658 0.0654-0.59403 0.11871l-2.5777 0.6423-2.534 0.57192q-0.17117 0.04-1.7174 0.46138l-0.39816 0.0128-0.0825-0.1813q-0.04-0.17118 0.17297-0.46161zm4.1693-14.091q0.51796-0.10094 0.76521-0.1587 1.3694-0.3199 3.0816-1.0609 1.1975-0.54049 1.8484-1.2742 0.64649-0.75274 0.90231-1.9758 0.27484-1.2275-6.3e-4 -2.4067-0.30213-1.2933-1.4576-2.5477-0.88533-0.95649-2.5611-1.3472-1.6568-0.39518-3.7489 0.0936-0.51352 0.11996-1.318 0.36807 0.15496 1.0068 0.27937 1.5393l0.92595 3.5344 0.3231 1.4689q0.34656 1.4835 0.96025 3.767z"/>
<path d="m426.04 950.93q0.52543-0.50867 2.0532-0.95536 1.2018-0.27047 1.4056-0.4649 0.13364-0.14244 0.18019-0.32908 0.1636-0.76243-0.2556-3.9409-0.54621-4.1279-1.357-11.005-0.60405-5.248-0.83032-6.5369l-0.0878-0.50016q-1.4357-0.0454-4.4941 0.15442-0.24303-0.25479-0.27005-0.40868-0.0169-0.0962 0.0739-0.36991 0.30677-0.17284 0.4799-0.20323 0.1539-0.027 0.68681-0.0412 0.96626-0.0308 2.6206-0.32127 0.53864-0.0946 1.8332-0.40116 0.91325-0.21981 1.0287-0.24008 0.30779-0.054 0.72866-0.0288 0.22614 0.1586 0.35272 0.31485l1.1254 1.6664 7.5582 11.087 3.1389 4.6642q1.7452-5.7596 2.5038-10.136 0.0421-0.32468 0.1329-0.5984 0.11572-0.35743 0.1987-0.78842 0.083-0.431 0.71006-3.2974 0.25333-1.155 0.38756-1.9717 0.55616-3.2704 0.67085-3.7466 0.34187-0.19882 0.61118-0.24611 0.3078-0.054 0.79548-0.1 1.0874-0.13141 3.5113-0.55694 1.5005-0.26342 2.4556-0.47075 0.0756 0.20485 0.0925 0.30104 0.0236 0.13466 6e-3 0.37563-0.55818 0.4351-1.4171 0.62555-1.6952 0.39676-2.1265 0.65094-0.43129 0.25419-0.51867 0.54715-0.0681 0.28958 0.0991 1.807l0.17458 0.88152 0.14287 0.92676q0.50658 2.8856 1.856 9.6685l0.64269 3.7738 0.44477 2.4205q0.24991 1.4235 0.43185 1.6692 0.17856 0.22644 0.85391 0.34584 1.0996 0.1639 3.5107 0.11738 0.15154 0.0725 0.17856 0.22644 0.0304 0.17314 0.0483 0.38812l-0.88491 0.15535q-1.135 0.19926-2.4758 0.35534-1.3375 0.17531-1.4337 0.1922-3.9436 0.69232-5.219 0.99554-0.77859 0.19618-0.9902 0.23333-0.13466 0.0236-0.30206-0.0263l-0.0439-0.25008q-0.0304-0.17314-6e-3 -0.37564 0.58754-0.38076 1.6672-0.66945 1.1545-0.53979 1.6482-1.0032 0.0448-0.7614-0.35034-3.0121l-0.7399-3.8758q-0.11145-0.63482-0.35768-2.3763-0.227-1.7448-0.91258-5.65-0.54373-3.0972-0.97793-4.6668-0.20883 0.73071-0.77555 3.1503l-0.16022 0.78166-0.0182 0.12218-1.6651 7.2328-0.56365 2.776-0.77349 3.3879q-0.48405 2.3258-0.80582 4.1075-0.13423 0.81676-0.22968 1.2896l-0.44583 0.0584q-3.2883-5.9666-7.4804-12.112-4.1729-6.1484-5.7597-8.071-9e-3 0.85421 0.49804 4.87 0.60097 4.8916 1.6243 10.72 0.32084 1.8275 0.99204 4.0694 0.19177 0.64055 0.73011 0.88315 0.53496 0.22337 2.5424-0.0894 0.76948-0.13509 1.4823-0.14124 0.18532 0.26491 0.20896 0.39957 0.0169 0.0962-0.0388 0.34392l-6.0199 0.8387q-0.65406 0.11482-2.0222 0.45417-0.75935 0.1928-2.1988 0.46532z"/>
<path d="m458.43 945.09q0.2569-0.18215 0.47073-0.2031l0.44708-0.0438q0.13606-0.0133 0.46461-0.0651 1.4834-0.28265 1.7422-0.44537 0.64417-0.43595 1.0406-1.3971 0.81661-2.0817 1.7241-5.8404 0.43316-1.789 0.55249-2.1736 0.37174-1.2139 0.69318-2.5406l1.3265-5.2912q0.30962-1.247 1.5198-5.7222 0.3016-1.1285 0.7058-3.0128l0.5599-0.0941 0.68224-0.0472q0.99766 1.5704 1.8257 3.4125 0.44888 0.97652 1.4419 2.9006l3.737 7.6998 1.999 4.1805q1.6058 3.5714 2.0783 4.3886 0.47062 0.79777 0.82773 1.0376 0.1048 0.0682 0.74206 0.16282 0.65669 0.0927 0.917 0.14569 0.91891 0.16513 1.2859 0.3058 0.0987 0.20621 0.11011 0.32284 0.01 0.0972-0.0298 0.29728-0.62012 0.0804-0.87281 0.10511-0.99135 0.0971-3.5046 0.28435l-1.9495 0.13205-2.3482 0.26922q-0.23326 0.0229-0.48786 0.0282-0.23706-0.016-0.41201 1e-3l-0.42764 0.0419q-0.21572 2e-3 -0.40019-0.0786-0.0266-0.27213 0.0458-0.53435 0.22184-0.13947 0.41432-0.17795l2.0277-0.33595q0.79316-0.11693 1.1842-0.33185 0.0824-0.36131 0.0652-0.53626-0.0343-0.34988-0.68244-1.7583-0.44507-0.93764-0.80287-1.7857-0.33836-0.84998-2.624-5.5519-0.81029-0.058-1.4129 1e-3l-4.156 0.44627-1.2265 0.10049q-0.6609 0.0647-1.4484 0.23997-0.19559 0.6079-0.24859 0.86821l-1.187 5.513q-0.78967 3.1584-0.75921 3.4694 0.0171 0.17494 0.23206 0.56601 0.41962 0.0766 1.1095 0.10721l2.6664-0.0256q0.23095 0.15401 0.24428 0.29007 0.01 0.0972-0.0298 0.29729-0.87282 0.1051-1.3393 0.15079-1.5551 0.1523-3.625 0.2569-0.95628 0.0544-1.3645 0.0944-0.4082 0.04-1.4152 0.17784-0.6571 0.1036-0.94867 0.13216-0.46652 0.0457-1.2109 0.0597l-0.0114-0.11663q-0.0133-0.13606 0.0416-0.37694zm8.1298-12.571q2.0913-0.0871 4.7544-0.34787 1.5162-0.14849 2.6535-0.35799-0.26862-0.73906-0.58605-1.3752-1.5947-3.2585-1.7651-3.5951l-2.2086-4.317-0.22865-0.33085q-0.0938 0.24468-0.6592 2.0859-0.94708 3.1542-1.3257 4.8986-0.17845 0.78284-0.37634 1.5676-0.1998 0.7653-0.24709 1.0839-0.0298 0.29728-0.13537 0.62162z"/>
<path d="m509.86 942.98-8.9437-0.17187q-0.0162-0.17612-0.0139-0.29329 6e-3 -0.33197 0.14532-0.4465 0.13932-0.13407 0.86447-0.25688 1.1371-0.21257 1.8465-0.53103 0.20353-0.42585 0.21066-0.79688l0.0233-1.2107q4e-3 -0.21481 0.0965-1.9712 0.0323-0.66357 0.14938-5.7404l0.12724-4.5882 0.0123-2.676q0.0113-0.58583 0.10998-3.69-4.4936 3.0783-4.9232 3.07-0.15622-3e-3 -0.32896-0.1626-0.17237-0.17913-0.16937-0.33535 4e-3 -0.19528 0.14269-0.30982 0.27827-0.2486 1.3245-0.81454 0.15772-0.0751 1.3677-1.0286 1.9246-1.5453 2.8206-2.4267 0.896-0.88139 1.0935-0.9948 0.39093-0.012 0.60573-8e-3 0.50772 0.01 0.62151 0.18775 0.13369 0.15885 0.1138 1.1938l-0.47104 17.396-0.033 1.7184q-0.012 0.62489-0.0439 1.2689-0.0315 0.62451-0.0372 0.91743-0.0135 0.70299 0.15811 0.92117 0.11454 0.13895 0.71577 0.36539l1.3226 0.2989q0.85509 0.23132 0.9317 0.31093 0.1919 0.1795 0.18477 0.55052z"/>
<path d="m519.29 918.75q2.3984 0.16821 6.4555 0.61895 1.8441 0.20489 4.2059 0.52623 1.43 0.21783 1.8765 0.26743l1.8851 0.18979 0.44647 0.0496q0.13805 0.17255 0.12295 0.30843-0.0259 0.23294-0.57156 1.0763-0.25666 0.36452-2.3552 4.042-1.0266 1.8118-2.5537 4.7667l-3.2115 6.6194q-1.1366 2.2712-1.4925 3.1749l-0.64704 1.7557q-0.36018 0.76569-0.40116 1.1345-0.0324 0.29117 0.22864 0.94902-0.26745 0.2847-1.0828 0.19413-0.36882-0.041-0.66432-0.38823 0.24372-1.1324 1.0741-2.9463 0.30843-0.65354 1.0935-2.5904 0.78508-1.9369 1.499-3.41l2.8815-5.7718q1.2359-2.4567 2.3682-4.5122 0.39038-0.68373 0.57803-0.95765 0.48744-0.67295 0.5392-1.1388l-0.25451-9e-3 -0.21353-0.0237-2.5537-0.36232q-0.11647-0.0129-0.81961-0.0518-0.70314-0.0388-1.0526-0.0776l-3.0067-0.35369-0.91235-0.10136-1.2769-0.18116q-1.1237-0.1445-1.4473 0.11432-0.30195 0.24158-0.47018 1.402-0.0518 0.28902-0.21783 0.54569-0.22 0.0345-0.31706 0.0237-0.21353-0.0237-0.54569-0.21784 0.0733-0.48314 0.0992-0.71608l0.10352-0.57804 0.0604-1.0741q0.15528-1.3976 0.28684-1.8743 0.0604-0.1898 0.26313-0.42275z"/>
<path d="m543.28 934.61q-1.6157-1.4178-2.1447-2.1622-0.76132-1.039-1.1078-2.4828-0.32745-1.4395-0.0138-2.7903 0.54775-2.3591 2.854-3.8287 2.3296-1.4842 5.0502-0.85254 3.063 0.71119 4.4759 2.7436t0.87398 4.3534q-0.30038 1.2937-1.0805 2.2354-0.78007 0.94172-2.0252 1.5549-0.84087 0.42633-2.7563 0.90393 2.284 1.994 2.6859 2.5084 0.84183 1.0376 1.241 2.5138 0.39914 1.4762 0.0281 3.0743-0.69353 2.987-3.2443 4.5602-2.5318 1.5776-5.728 0.83553-3.2914-0.7642-4.8357-3.0076-1.5209-2.258-0.90691-4.9025 0.34897-1.503 1.1454-2.6013 0.80081-1.1174 2.0884-1.7407 0.99172-0.47151 3.4005-0.91477zm3.3713-0.96167q1.8013-0.5041 2.6456-1.2906 1.3852-1.3025 1.8402-3.2621 0.35339-1.522-4e-3 -2.7478-0.3526-1.2448-1.2695-1.959-0.8979-0.70975-2.0775-0.98363-1.8835-0.43732-3.4015 0.57368t-1.9553 2.8945q-0.25621 1.1035-0.10506 1.9205 0.15557 0.79805 0.71373 1.5893 0.35942 0.52457 1.7818 1.9977 0.21199 0.20963 1.0882 0.75393 0.26329 0.16138 0.74299 0.51337zm-2.5362 1.5967q-1.5377 0.40491-2.2175 0.82853-1.0226 0.6047-1.7545 1.5977-0.73183 0.99303-1.1824 2.9336-0.47266 2.0357 0.15206 3.4038 1.0378 2.2661 3.435 2.8227 2.1879 0.50799 3.8992-0.55838 1.7303-1.062 2.2383-3.2498 0.55217-2.3782-0.55225-4.0983-1.0854-1.7157-4.0179-3.6799z"/>
<path d="m562.56 927.09q2.2676 0.79909 6.0594 2.311 1.7235 0.68725 3.9151 1.6242 1.3208 0.58976 1.7381 0.75614l1.767 0.68357 0.41727 0.16639q0.0873 0.20301 0.0366 0.33-0.0868 0.21771-0.83685 0.88586-0.34425 0.28327-3.3441 3.2714-1.4709 1.4741-3.7278 3.9174l-4.854 5.529q-1.699 1.8878-2.282 2.6646l-1.09 1.5208q-0.55059 0.64255-0.68804 0.98725-0.10851 0.27213-0.0316 0.97566-0.33345 0.20347-1.0954-0.10037-0.3447-0.13745-0.53737-0.5507 0.53567-1.027 1.8179-2.5553 0.4709-0.54816 1.7421-2.207t2.3507-2.8895l4.3108-4.7994q1.8439-2.0403 3.4814-3.7213 0.55794-0.55551 0.81159-0.76977 0.64865-0.51934 0.82227-0.95476l-0.24309-0.0759-0.19956-0.0796-2.3658-1.0275q-0.10886-0.0434-0.77644-0.26755-0.66759-0.22415-0.99414-0.35436l-2.8048-1.1394-0.85268-0.34-1.1829-0.51374q-1.045-0.43773-1.4256-0.27411-0.35527 0.15272-0.82561 1.2268-0.12665 0.2649-0.35492 0.46825-0.22127-0.0252-0.31198-0.0613-0.19956-0.0796-0.46825-0.35493 0.199-0.44631 0.28581-0.66402l0.25331-0.52979 0.34345-1.0195q0.52086-1.3062 0.77428-1.7308 0.10863-0.16696 0.36595-0.3377z"/>
</g>
</g>
<path d="m402.31 728.9c-1.6534 0.0604-2.8868 0.85932-2.8868 0.85932l-0.0728 0.019c-0.18193 0.37196-1.6072 1.1854-3.2511 2.2247-2.5363 1.6036-5.325 4.2783-6.5932 6.9509-0.3734 0.78686-0.95805 1.954-1.6301 3.2367h0.5009c1.607-0.84246 3.01-0.46569 4.6171 0.0534 1.9198 0.62006 6.4293 3.107 6.4293 3.107s5.0172-4.0062 5.2181-5.4805c0.20088-1.4743 1.4136-6.5263 0.61013-8.2112-0.80352-1.6849-0.2041-2.5296-2.2129-2.7402-0.25109-0.0264-0.49236-0.0277-0.72855-0.0191z" fill="#999" fill-rule="evenodd" stroke="#cab313" stroke-width=".464"/>
<path d="m398.21 734.79c1.0248 0.65004 1.1955 0.91005 1.1955 1.5601s0.51239 0.52003 0.34156 1.3001c-0.17077 0.78004-0.17077 1.5601-0.51234 2.6001-0.34159 1.0401-1.1956 1.9501-1.1956 1.9501" fill="#999" fill-rule="evenodd" stroke="#cab313" stroke-width=".464"/>
<path d="m395.99 741.55c0.85397-0.91005 1.0248-2.0801 1.1955-2.7302 0.17081-0.65006 0.34157-1.5601 0.17081-2.2101-0.17081-0.65003-1.0248-1.3001-1.0248-1.3001" fill="#999" fill-rule="evenodd" stroke="#cab313" stroke-width=".464"/>
<g transform="matrix(.24634 0 0 .24634 288 665.17)" fill="#e3e4e5">
<path d="m280 909.5h-50c-68.724 0-124.5-55.776-124.5-124.5v-474.5h499v474.5c0 68.724-55.776 124.5-124.5 124.5h-50c-36.368 0-65.217 14.102-75 40-9.7826-25.898-38.632-40-75-40z" fill="#e3e4e5" fill-rule="evenodd"/>
</g>
<path d="m375.45 777.65v-35.751h61.215v71.502h-61.215z" fill="#fcdd09" style="paint-order:stroke fill markers"/>
<path d="m372.9 894.72c-0.99424-1.4015-0.16317-0.60313-4.7697-3.5982-3.2005-2.0808-5.524-1.5901-17.445-1.7591l-10.788-0.15289-2.459-0.64342c-2.8624-0.74895-5.2657-1.6712-7.3673-2.8272-7.1459-3.9306-12.448-10.552-14.729-18.394-1.1569-3.9778-1.1858-4.7182-1.1858-30.358v-23.615h30.554c24.247 0 30.635-0.15889 30.716 0.0523 0.0558 0.14634 0.0164 19.013-0.0137 41.666l0.0379 43.226z" fill="#0071bc" style="paint-order:stroke fill markers"/>
<path d="m375.45 741.9 0.10313 71.467h8.7719l-0.0966-71.467zm17.558 0-0.27287 51.686-0.0574 19.781h8.612l0.49154-71.467zm17.558 0-0.44517 71.467h8.5806l0.64299-71.467zm17.559 0-0.4615 71.467h9.0376l-0.036-71.467z" fill="#ed1c24" stroke="#cab313" stroke-width=".32594"/>
<g transform="matrix(.16444 0 0 .16444 418.84 728.62)" fill="#fcdd09" stroke="#cab313" stroke-width=".4193">
<g transform="matrix(2.9957 0 0 2.9957 1491.6 -816.94)">
<g transform="matrix(.79612 0 0 .79612 -282.11 41.815)">
<path d="m-491.65 591.22c-0.0575-0.0507-0.0721-0.0469-0.13161 0.0296-2.4185 2.3712-4.5667 4.5638-6.2516 7.0182-4.7161 6.8624-6.2915 14.316-3.6522 20.344 5.2394 12.754 7.2387 15.993 7.2387 26.148l-1.2503 6.3075c-0.17559 3.2469-2.1736 5.8366-5.9225 7.2847 0.48283 1.3679 2.7202 4.1564 5.8238 3.9681 0.61314 2.95 1.2213 4.6033 4.0142 7.2848 0.0712 0.0642 0.0687 0.0642 0.13161 0 2.7929-2.6815 3.401-4.3347 4.0142-7.2848 3.1036 0.18827 5.341-2.6002 5.8238-3.9681-3.7489-1.4482-5.7469-4.0378-5.9225-7.2847l-1.2503-6.3075c0-10.156 1.9993-13.394 7.2387-26.148 2.6393-6.0284 1.0638-13.482-3.6522-20.344-1.6886-2.4599-3.8263-4.6707-6.2516-7.0478z" fill-rule="evenodd"/>
<path d="m-487.4 652.17c1.3487 1.3798 7.722 5.2059 12.95 5.2059-6.8154-5.7225-9.2822-7.4447-10.086-11.784s1.7915-9.1159 3.6557-10.106c1.1571-0.8284 3.6324-1.2056 5.8244-0.24197 2.8676 1.4475 2.9904 5.5494 1.5569 7.4228 13.544-2.2105 12.199-13.704 7.5864-17.877-3.7291-3.371-7.7942-3.8982-10.929-2.8352-7.1228 2.2438-12.829 9.7229-13.062 20.894 0 0 1.2316 8.0202 2.5031 9.321z" fill-rule="evenodd"/>
<path d="m-496.04 652.17c-1.3487 1.3798-7.722 5.2059-12.95 5.2059 6.8154-5.7225 9.2822-7.4447 10.086-11.784 0.80377-4.3397-1.7915-9.1159-3.6557-10.106-1.1571-0.8284-3.6324-1.2056-5.8244-0.24197-2.8676 1.4475-2.9904 5.5494-1.5569 7.4228-13.544-2.2105-12.199-13.704-7.5864-17.877 3.7291-3.371 7.7942-3.8982 10.929-2.8352 7.1228 2.2438 12.829 9.7229 13.062 20.894 0 0-1.2316 8.0202-2.5031 9.321z" fill-rule="evenodd"/>
<path d="m-498.29 639.27c-2.588 0-4.6982 1.9867-4.6982 4.4342 0 2.4517 2.1102 4.4385 4.6982 4.4385h13.418c2.5934 0 4.6982-1.9867 4.6982-4.4385 0-2.4475-2.0994-4.4342-4.6982-4.4342z"/>
</g>
<g transform="matrix(.79612 0 0 .79612 -228.52 41.815)">
<path d="m-491.65 591.22c-0.0575-0.0507-0.0721-0.0469-0.13161 0.0296-2.4185 2.3712-4.5667 4.5638-6.2516 7.0182-4.7161 6.8624-6.2915 14.316-3.6522 20.344 5.2394 12.754 7.2387 15.993 7.2387 26.148l-1.2503 6.3075c-0.17559 3.2469-2.1736 5.8366-5.9225 7.2847 0.48283 1.3679 2.7202 4.1564 5.8238 3.9681 0.61314 2.95 1.2213 4.6033 4.0142 7.2848 0.0712 0.0642 0.0687 0.0642 0.13161 0 2.7929-2.6815 3.401-4.3347 4.0142-7.2848 3.1036 0.18827 5.341-2.6002 5.8238-3.9681-3.7489-1.4482-5.7469-4.0378-5.9225-7.2847l-1.2503-6.3075c0-10.156 1.9993-13.394 7.2387-26.148 2.6393-6.0284 1.0638-13.482-3.6522-20.344-1.6886-2.4599-3.8263-4.6707-6.2516-7.0478z" fill-rule="evenodd"/>
<path d="m-487.4 652.17c1.3487 1.3798 7.722 5.2059 12.95 5.2059-6.8154-5.7225-9.2822-7.4447-10.086-11.784s1.7915-9.1159 3.6557-10.106c1.1571-0.8284 3.6324-1.2056 5.8244-0.24197 2.8676 1.4475 2.9904 5.5494 1.5569 7.4228 13.544-2.2105 12.199-13.704 7.5864-17.877-3.7291-3.371-7.7942-3.8982-10.929-2.8352-7.1228 2.2438-12.829 9.7229-13.062 20.894 0 0 1.2316 8.0202 2.5031 9.321z" fill-rule="evenodd"/>
<path d="m-496.04 652.17c-1.3487 1.3798-7.722 5.2059-12.95 5.2059 6.8154-5.7225 9.2822-7.4447 10.086-11.784 0.80377-4.3397-1.7915-9.1159-3.6557-10.106-1.1571-0.8284-3.6324-1.2056-5.8244-0.24197-2.8676 1.4475-2.9904 5.5494-1.5569 7.4228-13.544-2.2105-12.199-13.704-7.5864-17.877 3.7291-3.371 7.7942-3.8982 10.929-2.8352 7.1228 2.2438 12.829 9.7229 13.062 20.894 0 0-1.2316 8.0202-2.5031 9.321z" fill-rule="evenodd"/>
<path d="m-498.29 639.27c-2.588 0-4.6982 1.9867-4.6982 4.4342 0 2.4517 2.1102 4.4385 4.6982 4.4385h13.418c2.5934 0 4.6982-1.9867 4.6982-4.4385 0-2.4475-2.0994-4.4342-4.6982-4.4342z"/>
</g>
</g>
<g transform="matrix(2.3849 0 0 2.3849 726.81 -848.65)">
<path d="m-491.65 591.22c-0.0575-0.0507-0.0721-0.0469-0.13161 0.0296-2.4185 2.3712-4.5667 4.5638-6.2516 7.0182-4.7161 6.8624-6.2915 14.316-3.6522 20.344 5.2394 12.754 7.2387 15.993 7.2387 26.148l-1.2503 6.3075c-0.17559 3.2469-2.1736 5.8366-5.9225 7.2847 0.48283 1.3679 2.7202 4.1564 5.8238 3.9681 0.61314 2.95 1.2213 4.6033 4.0142 7.2848 0.0712 0.0642 0.0687 0.0642 0.13161 0 2.7929-2.6815 3.401-4.3347 4.0142-7.2848 3.1036 0.18827 5.341-2.6002 5.8238-3.9681-3.7489-1.4482-5.7469-4.0378-5.9225-7.2847l-1.2503-6.3075c0-10.156 1.9993-13.394 7.2387-26.148 2.6393-6.0284 1.0638-13.482-3.6522-20.344-1.6886-2.4599-3.8263-4.6707-6.2516-7.0478z" fill-rule="evenodd"/>
<path d="m-487.4 652.17c1.3487 1.3798 7.722 5.2059 12.95 5.2059-6.8154-5.7225-9.2822-7.4447-10.086-11.784s1.7915-9.1159 3.6557-10.106c1.1571-0.8284 3.6324-1.2056 5.8244-0.24197 2.8676 1.4475 2.9904 5.5494 1.5569 7.4228 13.544-2.2105 12.199-13.704 7.5864-17.877-3.7291-3.371-7.7942-3.8982-10.929-2.8352-7.1228 2.2438-12.829 9.7229-13.062 20.894 0 0 1.2316 8.0202 2.5031 9.321z" fill-rule="evenodd"/>
<path d="m-496.04 652.17c-1.3487 1.3798-7.722 5.2059-12.95 5.2059 6.8154-5.7225 9.2822-7.4447 10.086-11.784 0.80377-4.3397-1.7915-9.1159-3.6557-10.106-1.1571-0.8284-3.6324-1.2056-5.8244-0.24197-2.8676 1.4475-2.9904 5.5494-1.5569 7.4228-13.544-2.2105-12.199-13.704-7.5864-17.877 3.7291-3.371 7.7942-3.8982 10.929-2.8352 7.1228 2.2438 12.829 9.7229 13.062 20.894 0 0-1.2316 8.0202-2.5031 9.321z" fill-rule="evenodd"/>
<path d="m-498.29 639.27c-2.588 0-4.6982 1.9867-4.6982 4.4342 0 2.4517 2.1102 4.4385 4.6982 4.4385h13.418c2.5934 0 4.6982-1.9867 4.6982-4.4385 0-2.4475-2.0994-4.4342-4.6982-4.4342z"/>
</g>
</g>
<g transform="matrix(.24374 0 0 .23736 390.36 729.43)" stroke="#cab313">
<path d="m-239.15 161.36-0.47566 0.74896s0.0636 0.35119 0.13989 0.8599l0.056 0.36062c2.1862 44.197-8.5208 63.589-37.299 97.004l-0.83943 58.53h175.69v-0.74896h0.44771l-0.41973-59.029c2e-5 2e-5 -0.11191-0.11558-0.13991-0.13869l-0.4197-0.36061c-27.135-25.096-35.362-62.264-33.213-96.033l0.028-0.3606c0.0198-0.27527 0.0346-0.55565 0.0559-0.83217z" fill="#fcdd09" fill-rule="evenodd" stroke-width=".87881"/>
<path d="m-254.08 132.88 133.62-1.373c-1.8035 2.2634-17.491 16.57-14.119 29.827l-106.64 0.64667c2.1172-5.4968-1.9604-19.724-12.86-29.101z" fill="#fcdd09" fill-rule="evenodd" stroke-width=".87881"/>
<path d="m-261.7 90.147v33.223h18.421v-0.081h13.902v0.081h18.393v-0.081h13.902v0.081h18.393v-0.081h13.902v0.081h18.393v-0.081h13.902v0.081h18.393v-33.223h-18.393v14.439h-13.902v-14.439h-18.393v14.466h-13.902v-14.466h-18.393v14.493h-13.902v-14.493h-18.393v14.52h-13.902v-14.52z" fill="#fcdd09" fill-rule="evenodd" stroke-width=".87881"/>
<rect x="-241.56" y="162.57" width="107.05" height="2.7304" fill="#fcdd09" fill-rule="evenodd" stroke-dashoffset="0pt" stroke-width=".87881"/>
<rect x="-242.77" y="158.73" width="110.45" height="3.8817" fill="#fcdd09" fill-rule="evenodd" stroke-dashoffset="0pt" stroke-width=".87881"/>
<rect x="-257.26" y="128.56" width="139.43" height="4.0077" fill="#fcdd09" fill-rule="evenodd" stroke-dashoffset="0pt" stroke-width=".87881"/>
<rect x="-259.63" y="124.4" width="144.16" height="4.294" fill="#fcdd09" fill-rule="evenodd" stroke-dashoffset="0pt" stroke-width=".87881"/>
<rect x="-280.97" y="312.73" width="184.24" height="7.6883" fill="#fcdd09" fill-rule="evenodd" stroke-width=".87881"/>
<path d="m-261.5 90.385v34.137h147.6v-34.137h-18.393v14.836h-13.902v-14.836h-18.393v14.864h-13.902v-14.864h-18.393v14.892h-13.902v-14.892h-18.393v14.919h-13.902v-14.919z" fill="#fcdd09" fill-rule="evenodd" stroke-width=".87881"/>
<path d="m-261.06 113.69h147.79" fill="#fcdd09" fill-rule="evenodd" stroke-width=".87881"/>
<path d="m-139.4 105.15v8.445" fill="#fcdd09" fill-rule="evenodd" stroke-width=".87881"/>
<path d="m-261.08 99.959h17.803" fill="#fcdd09" fill-rule="evenodd" stroke-width=".87881"/>
<path d="m-252.28 90.627-0.0547 9.5259" fill="#fcdd09" fill-rule="evenodd" stroke-width=".87881"/>
<path d="m-228.98 99.466h17.821" fill="#fcdd09" fill-rule="evenodd" stroke-width=".87881"/>
<path d="m-220.18 90.367-0.0547 9.2881" fill="#fcdd09" fill-rule="evenodd" stroke-width=".87881"/>
<path d="m-196.55 98.949h17.803" fill="#fcdd09" fill-rule="evenodd" stroke-width=".87881"/>
<path d="m-187.75 90.583-0.0598 8.562" fill="#fcdd09" fill-rule="evenodd" stroke-width=".87881"/>
<path d="m-164.45 99.706h17.803" fill="#fcdd09" fill-rule="evenodd" stroke-width=".87881"/>
<path d="m-155.65 90.374-0.0547 9.5259" fill="#fcdd09" fill-rule="evenodd" stroke-width=".87881"/>
<path d="m-131.71 99.706h17.803" fill="#fcdd09" fill-rule="evenodd" stroke-width=".87881"/>
<path d="m-122.92 90.374-0.0547 9.5259" fill="#fcdd09" fill-rule="evenodd" stroke-width=".87881"/>
<path d="m-172.23 105.31v8.445" fill="#fcdd09" fill-rule="evenodd" stroke-width=".87881"/>
<path d="m-236.75 105.05v8.445" fill="#fcdd09" fill-rule="evenodd" stroke-width=".87881"/>
<path d="m-204.02 105.05v8.445" fill="#fcdd09" fill-rule="evenodd" stroke-width=".87881"/>
<path d="m-251.71 114.04v10.419" fill="#fcdd09" fill-rule="evenodd" stroke-width=".87881"/>
<path d="m-220.39 113.66v10.419" fill="#fcdd09" fill-rule="evenodd" stroke-width=".87881"/>
<path d="m-188.6 113.66v10.419" fill="#fcdd09" fill-rule="evenodd" stroke-width=".87881"/>
<path d="m-154.6 113.91v10.419" fill="#fcdd09" fill-rule="evenodd" stroke-width=".87881"/>
<path d="m-123.13 113.66v10.419" fill="#fcdd09" fill-rule="evenodd" stroke-width=".87881"/>
<path d="m-244.9 137.04v3.8786" fill="#fcdd09" fill-rule="evenodd" stroke-width=".87881"/>
<path d="m-230.87 136.89v3.8786" fill="#fcdd09" fill-rule="evenodd" stroke-width=".87881"/>
<path d="m-216.62 136.89v3.8786" fill="#fcdd09" fill-rule="evenodd" stroke-width=".87881"/>
<path d="m-201.39 136.99v3.8786" fill="#fcdd09" fill-rule="evenodd" stroke-width=".87881"/>
<path d="m-187.29 136.89v3.8786" fill="#fcdd09" fill-rule="evenodd" stroke-width=".87881"/>
<path d="m-238.02 132.81v3.8786" fill="#fcdd09" fill-rule="evenodd" stroke-width=".87881"/>
<path d="m-223.98 132.67v3.8786" fill="#fcdd09" fill-rule="evenodd" stroke-width=".87881"/>
<path d="m-209.74 132.67v3.8786" fill="#fcdd09" fill-rule="evenodd" stroke-width=".87881"/>
<path d="m-194.51 132.77v3.8786" fill="#fcdd09" fill-rule="evenodd" stroke-width=".87881"/>
<path d="m-249.27 136.98h124.37" fill="#fcdd09" fill-rule="evenodd" stroke-width=".87881"/>
<path d="m-173.27 136.97v3.8786" fill="#fcdd09" fill-rule="evenodd" stroke-width=".87881"/>
<path d="m-159.02 136.97v3.8786" fill="#fcdd09" fill-rule="evenodd" stroke-width=".87881"/>
<path d="m-143.79 137.06v3.8786" fill="#fcdd09" fill-rule="evenodd" stroke-width=".87881"/>
<path d="m-129.69 136.97v3.8786" fill="#fcdd09" fill-rule="evenodd" stroke-width=".87881"/>
<path d="m-180.42 132.89v3.8786" fill="#fcdd09" fill-rule="evenodd" stroke-width=".87881"/>
<path d="m-166.38 132.75v3.8786" fill="#fcdd09" fill-rule="evenodd" stroke-width=".87881"/>
<path d="m-152.14 132.75v3.8786" fill="#fcdd09" fill-rule="evenodd" stroke-width=".87881"/>
<path d="m-136.91 132.84v3.8786" fill="#fcdd09" fill-rule="evenodd" stroke-width=".87881"/>
<path d="m-246.79 141.31h117.74" fill="#fcdd09" fill-rule="evenodd" stroke-width=".87881"/>
<path d="m-237.59 141.55v3.8786" fill="#fcdd09" fill-rule="evenodd" stroke-width=".87881"/>
<path d="m-223.55 141.41v3.8786" fill="#fcdd09" fill-rule="evenodd" stroke-width=".87881"/>
<path d="m-209.31 141.41v3.8786" fill="#fcdd09" fill-rule="evenodd" stroke-width=".87881"/>
<path d="m-194.08 141.5v3.8786" fill="#fcdd09" fill-rule="evenodd" stroke-width=".87881"/>
<path d="m-179.99 141.62v3.8786" fill="#fcdd09" fill-rule="evenodd" stroke-width=".87881"/>
<path d="m-165.95 141.48v3.8786" fill="#fcdd09" fill-rule="evenodd" stroke-width=".87881"/>
<path d="m-151.71 141.48v3.8786" fill="#fcdd09" fill-rule="evenodd" stroke-width=".87881"/>
<path d="m-136.48 141.58v3.8786" fill="#fcdd09" fill-rule="evenodd" stroke-width=".87881"/>
<path d="m-243.7 145.78h112.44" fill="#fcdd09" fill-rule="evenodd" stroke-width=".87881"/>
<path d="m-230.87 145.84v3.8786" fill="#fcdd09" fill-rule="evenodd" stroke-width=".87881"/>
<path d="m-216.62 145.84v3.8786" fill="#fcdd09" fill-rule="evenodd" stroke-width=".87881"/>
<path d="m-201.39 145.93v3.8786" fill="#fcdd09" fill-rule="evenodd" stroke-width=".87881"/>
<path d="m-187.29 145.84v3.8786" fill="#fcdd09" fill-rule="evenodd" stroke-width=".87881"/>
<path d="m-173.27 145.91v3.8786" fill="#fcdd09" fill-rule="evenodd" stroke-width=".87881"/>
<path d="m-159.02 145.91v3.8786" fill="#fcdd09" fill-rule="evenodd" stroke-width=".87881"/>
<path d="m-143.79 146.01v3.8786" fill="#fcdd09" fill-rule="evenodd" stroke-width=".87881"/>
<path d="m-241.93 150.26h108.69" fill="#fcdd09" fill-rule="evenodd" stroke-width=".87881"/>
<path d="m-237.55 150.18v3.8786" fill="#fcdd09" fill-rule="evenodd" stroke-width=".87881"/>
<path d="m-223.52 150.04v3.8786" fill="#fcdd09" fill-rule="evenodd" stroke-width=".87881"/>
<path d="m-209.28 150.04v3.8786" fill="#fcdd09" fill-rule="evenodd" stroke-width=".87881"/>
<path d="m-194.05 150.13v3.8786" fill="#fcdd09" fill-rule="evenodd" stroke-width=".87881"/>
<path d="m-179.94 150.04v3.8786" fill="#fcdd09" fill-rule="evenodd" stroke-width=".87881"/>
<path d="m-165.92 150.11v3.8786" fill="#fcdd09" fill-rule="evenodd" stroke-width=".87881"/>
<path d="m-151.68 150.11v3.8786" fill="#fcdd09" fill-rule="evenodd" stroke-width=".87881"/>
<path d="m-136.45 150.21v3.8786" fill="#fcdd09" fill-rule="evenodd" stroke-width=".87881"/>
<path d="m-241.49 154.46h106.92" fill="#fcdd09" fill-rule="evenodd" stroke-width=".87881"/>
<path d="m-230.24 154.69v3.8786" fill="#fcdd09" fill-rule="evenodd" stroke-width=".87881"/>
<path d="m-216.21 154.55v3.8786" fill="#fcdd09" fill-rule="evenodd" stroke-width=".87881"/>
<path d="m-201.97 154.55v3.8786" fill="#fcdd09" fill-rule="evenodd" stroke-width=".87881"/>
<path d="m-186.73 154.65v3.8786" fill="#fcdd09" fill-rule="evenodd" stroke-width=".87881"/>
<path d="m-172.64 154.77v3.8786" fill="#fcdd09" fill-rule="evenodd" stroke-width=".87881"/>
<path d="m-158.61 154.63v3.8786" fill="#fcdd09" fill-rule="evenodd" stroke-width=".87881"/>
<path d="m-144.37 154.63v3.8786" fill="#fcdd09" fill-rule="evenodd" stroke-width=".87881"/>
<path d="m-231.72 178.92v14.044" fill="#fcdd09" fill-rule="evenodd" stroke-width=".87881"/>
<path d="m-210.35 178.92v14.044" fill="#fcdd09" fill-rule="evenodd" stroke-width=".87881"/>
<path d="m-187.5 179.26v14.044" fill="#fcdd09" fill-rule="evenodd" stroke-width=".87881"/>
<path d="m-166.34 178.92v14.044" fill="#fcdd09" fill-rule="evenodd" stroke-width=".87881"/>
<path d="m-221.36 164.84v14.414" fill="#fcdd09" fill-rule="evenodd" stroke-width=".87881"/>
<path d="m-200.01 164.84v14.414" fill="#fcdd09" fill-rule="evenodd" stroke-width=".87881"/>
<path d="m-177.19 165.19v14.414" fill="#fcdd09" fill-rule="evenodd" stroke-width=".87881"/>
<path d="m-239.89 179.54h104.7" fill="#fcdd09" fill-rule="evenodd" stroke-width=".87881"/>
<path d="m-145.3 179.19v14.044" fill="#fcdd09" fill-rule="evenodd" stroke-width=".87881"/>
<path d="m-156.07 165.64v14.414" fill="#fcdd09" fill-rule="evenodd" stroke-width=".87881"/>
<path d="m-240.65 193.26h105.21" fill="#fcdd09" fill-rule="evenodd" stroke-width=".87881"/>
<path d="m-220.75 193.35v15.619" fill="#fcdd09" fill-rule="evenodd" stroke-width=".87881"/>
<path d="m-199.41 193.35v15.619" fill="#fcdd09" fill-rule="evenodd" stroke-width=".87881"/>
<path d="m-176.59 193.72v15.619" fill="#fcdd09" fill-rule="evenodd" stroke-width=".87881"/>
<path d="m-155.44 193.13v15.769" fill="#fcdd09" fill-rule="evenodd" stroke-width=".87881"/>
<path d="m-243.58 208.99h111.6" fill="#fcdd09" fill-rule="evenodd" stroke-width=".87881"/>
<path d="m-231.71 208.66v14.585" fill="#fcdd09" fill-rule="evenodd" stroke-width=".87881"/>
<path d="m-210.35 208.66v14.585" fill="#fcdd09" fill-rule="evenodd" stroke-width=".87881"/>
<path d="m-187.5 209.01v14.585" fill="#fcdd09" fill-rule="evenodd" stroke-width=".87881"/>
<path d="m-166.35 208.66v14.585" fill="#fcdd09" fill-rule="evenodd" stroke-width=".87881"/>
<path d="m-145.32 208.94v14.585" fill="#fcdd09" fill-rule="evenodd" stroke-width=".87881"/>
<path d="m-241.78 223.89v14.407" fill="#fcdd09" fill-rule="evenodd" stroke-width=".87881"/>
<path d="m-220.72 223.37v14.407" fill="#fcdd09" fill-rule="evenodd" stroke-width=".87881"/>
<path d="m-199.34 223.37v14.407" fill="#fcdd09" fill-rule="evenodd" stroke-width=".87881"/>
<path d="m-176.48 223.72v14.407" fill="#fcdd09" fill-rule="evenodd" stroke-width=".87881"/>
<path d="m-155.31 223.37v14.407" fill="#fcdd09" fill-rule="evenodd" stroke-width=".87881"/>
<path d="m-134.26 223.64v14.407" fill="#fcdd09" fill-rule="evenodd" stroke-width=".87881"/>
<path d="m-249.78 223.72h123.26" fill="#fcdd09" fill-rule="evenodd" stroke-width=".87881"/>
<path d="m-229.32 238.1v14.634" fill="#fcdd09" fill-rule="evenodd" stroke-width=".87881"/>
<path d="m-208.45 237.58v15.806" fill="#fcdd09" fill-rule="evenodd" stroke-width=".87881"/>
<path d="m-164.28 237.96v15.806" fill="#fcdd09" fill-rule="evenodd" stroke-width=".87881"/>
<path d="m-143.15 238.4v14.634" fill="#fcdd09" fill-rule="evenodd" stroke-width=".87881"/>
<g transform="matrix(1.7292 0 0 1.3869 -1618.6 87.342)" fill="#fcdd09" stroke-width=".56748">
<path d="m808.63 67.182c-3.8882 0-7.051 2.6582-7.051 5.937v19.07h14.086v-19.07c0-3.2788-3.1463-5.937-7.0346-5.937z" fill="#fcdd09" fill-rule="evenodd" stroke="#cab313" stroke-dashoffset="0pt" stroke-width=".56748"/>
</g>
<g transform="matrix(1.7292 0 0 1.3869 -1537.6 53.067)" fill="#fcdd09" stroke-width=".56748">
<path d="m799.42 91.473c-3.8883 0-7.051 2.6582-7.051 5.937v19.07h14.086v-19.07c0-3.2788-3.1463-5.937-7.0346-5.937z" fill="#fcdd09" fill-rule="evenodd" stroke="#cab313" stroke-dashoffset="0pt" stroke-width=".56748"/>
</g>
<path d="m-258.85 238.45h139.63" fill="#fcdd09" fill-rule="evenodd" stroke-width=".87881"/>
<path d="m-270.63 253.17h162.46" fill="#fcdd09" fill-rule="evenodd" stroke-width=".87881"/>
<path d="m-276.43 267.9h174.19" fill="#fcdd09" fill-rule="evenodd" stroke-width=".87881"/>
<path d="m-276.42 282.63h174.79" fill="#fcdd09" fill-rule="evenodd" stroke-width=".87881"/>
<path d="m-276.93 297.36h175.18" fill="#fcdd09" fill-rule="evenodd" stroke-width=".87881"/>
<path d="m-242.48 253.18v14.634" fill="#fcdd09" fill-rule="evenodd" stroke-width=".87881"/>
<path d="m-242.48 282.1v14.634" fill="#fcdd09" fill-rule="evenodd" stroke-width=".87881"/>
<path d="m-264.3 253.54v14.635" fill="#fcdd09" fill-rule="evenodd" stroke-width=".87881"/>
<path d="m-252.33 238.38v14.637" fill="#fcdd09" fill-rule="evenodd" stroke-width=".87881"/>
<path d="m-253.17 267.82v14.634" fill="#fcdd09" fill-rule="evenodd" stroke-width=".87881"/>
<path d="m-253.17 298.17v14.634" fill="#fcdd09" fill-rule="evenodd" stroke-width=".87881"/>
<path d="m-263.46 282.29v15.806" fill="#fcdd09" fill-rule="evenodd" stroke-width=".87881"/>
<path d="m-131.8 252.89v14.634" fill="#fcdd09" fill-rule="evenodd" stroke-width=".87881"/>
<path d="m-131.8 281.81v14.634" fill="#fcdd09" fill-rule="evenodd" stroke-width=".87881"/>
<path d="m-109.99 253.24v14.635" fill="#fcdd09" fill-rule="evenodd" stroke-width=".87881"/>
<path d="m-121.12 267.53v14.634" fill="#fcdd09" fill-rule="evenodd" stroke-width=".87881"/>
<path d="m-122.85 238.08v14.637" fill="#fcdd09" fill-rule="evenodd" stroke-width=".87881"/>
<path d="m-121.12 297.87v14.634" fill="#fcdd09" fill-rule="evenodd" stroke-width=".87881"/>
<path d="m-110.83 282v15.806" fill="#fcdd09" fill-rule="evenodd" stroke-width=".87881"/>
<path d="m-197.48 271.01c0.0523 2.4619 0.0699 4.3264-1.8197 7.9233-1.0133 1.9288-0.35739 3.908-1.5048 5.5866" fill="#fcdd09" fill-rule="evenodd" stroke-linejoin="bevel" stroke-width=".87881"/>
<path d="m-223.65 311.52s-1.5766-28.832-0.71945-51.332c-1.4731-23.292 20.003-28.883 38.034-28.562 18.031 0.32047 34.889 4.0216 35.631 29.101 0.7289 24.644 0.18278 51.869 0.18278 51.869z" fill="#fcdd09" fill-rule="evenodd" stroke-linecap="round" stroke-linejoin="bevel" stroke-width=".87881"/>
<path d="m-198.22 224.88h21.14l-4.5245 15.899-11.878 0.0961z" fill="#fcdd09" fill-rule="evenodd" stroke-linejoin="bevel" stroke-width=".87881"/>
<path d="m-231.95 257.22 21.746 2e-3c-2.8772 0.93361-3.1555 9.0568 0.60831 11.208l-22.502-0.22461c0.18069 0.0601 0.35536-10.883 0.14771-10.985z" fill="#fcdd09" fill-rule="evenodd" stroke-linejoin="bevel" stroke-width=".87881"/>
<path d="m-232.06 279.63 21.746 2e-3c-2.8772 0.9336-3.1555 9.0568 0.60832 11.208l-22.502-0.22461c0.18069 0.0601 0.35535-10.883 0.1477-10.985z" fill="#fcdd09" fill-rule="evenodd" stroke-linejoin="bevel" stroke-width=".87881"/>
<path d="m-231.77 300.32 21.746 2e-3c-2.8772 0.9336-3.1555 10.071 0.6083 12.223l-22.502-0.2246c0.18069 0.0601 0.14771-9.358 0.14771-12z" fill="#fcdd09" fill-rule="evenodd" stroke-linejoin="bevel" stroke-width=".87881"/>
<path d="m-142.42 301.43-23.066 2e-3c2.8772 0.93361 3.1555 9.2597-0.60833 11.411l23.529 0.0797c-0.18065 0.0601-0.062-11.391 0.1456-11.493z" fill="#fcdd09" fill-rule="evenodd" stroke-linejoin="bevel" stroke-width=".87881"/>
<path d="m-141.87 279.07-21.746 2e-3c2.8772 0.93361 3.1555 9.0568-0.60831 11.208l22.502-0.2246c-0.18069 0.0601-0.35534-10.883-0.1477-10.985z" fill="#fcdd09" fill-rule="evenodd" stroke-linejoin="bevel" stroke-width=".87881"/>
<path d="m-142.04 256.47-21.746 2e-3c2.8772 0.93362 3.1555 9.0568-0.60831 11.208l22.502-0.22461c-0.18065 0.0601-0.35532-10.883-0.14769-10.985z" fill="#fcdd09" fill-rule="evenodd" stroke-linejoin="bevel" stroke-width=".87881"/>
<path d="m-159.54 232.09-13.702 12.55c2.8083-1.0777 9.6531 4.5258 8.7394 8.332l15.186-13.249c-1.7018-3.2074-5.3726-5.6494-10.223-7.6326z" fill="#fcdd09" fill-rule="evenodd" stroke-linejoin="bevel" stroke-width=".87881"/>
<path d="m-153.97 299.98-0.4059 0.14764" fill="#fcdd09" fill-rule="evenodd" stroke-linejoin="bevel" stroke-width=".87881"/>
<path d="m-215.31 232 13.702 12.55c-2.8083-1.0777-9.6531 4.5258-8.7394 8.332l-15.186-13.249c1.7018-3.2074 5.3726-5.6494 10.223-7.6326z" fill="#fcdd09" fill-rule="evenodd" stroke-linejoin="bevel" stroke-width=".87881"/>
<g transform="matrix(.64314 0 0 .5844 -364.51 -230.87)" fill="#0071bc" fill-rule="evenodd" stroke-width="1.4335">
<path d="m223.73 709.16c-6.8628 0-12.445 5.1525-12.445 11.508v36.964h24.861v-36.964c0-6.3554-5.5533-11.508-12.416-11.508z" stroke-dashoffset="0pt"/>
<path d="m325.45 708.87c-6.8628 0-12.445 5.1525-12.445 11.508v36.965h24.861v-36.965c0-6.3553-5.5532-11.508-12.416-11.508z" stroke-dashoffset="0pt"/>
<path d="m235 929.87s0.77266-43.448-0.80307-79.168c-1.6443-37.659 22.328-46.699 42.455-46.181 20.127 0.51813 39.986 6.489 39.772 47.052-0.19935 37.87-1.705 78.371-1.705 78.371z" stroke-linecap="round" stroke-linejoin="bevel"/>
</g>
</g>
<g transform="matrix(.24374 0 0 .23736 451.36 799.74)" stroke="#cab313">
<path d="m-239.15 161.36-0.47566 0.74896s0.0636 0.35119 0.13989 0.8599l0.056 0.36062c2.1862 44.197-8.5208 63.589-37.299 97.004l-0.83943 58.53h175.69v-0.74896h0.44771l-0.41973-59.029c2e-5 2e-5 -0.11191-0.11558-0.13991-0.13869l-0.4197-0.36061c-27.135-25.096-35.362-62.264-33.213-96.033l0.028-0.3606c0.0198-0.27527 0.0346-0.55565 0.0559-0.83217z" fill="#fcdd09" fill-rule="evenodd" stroke-width=".87881"/>
<path d="m-254.08 132.88 133.62-1.373c-1.8035 2.2634-17.491 16.57-14.119 29.827l-106.64 0.64667c2.1172-5.4968-1.9604-19.724-12.86-29.101z" fill="#fcdd09" fill-rule="evenodd" stroke-width=".87881"/>
<path d="m-261.7 90.147v33.223h18.421v-0.081h13.902v0.081h18.393v-0.081h13.902v0.081h18.393v-0.081h13.902v0.081h18.393v-0.081h13.902v0.081h18.393v-33.223h-18.393v14.439h-13.902v-14.439h-18.393v14.466h-13.902v-14.466h-18.393v14.493h-13.902v-14.493h-18.393v14.52h-13.902v-14.52z" fill="#fcdd09" fill-rule="evenodd" stroke-width=".87881"/>
<rect x="-241.56" y="162.57" width="107.05" height="2.7304" fill="#fcdd09" fill-rule="evenodd" stroke-dashoffset="0pt" stroke-width=".87881"/>
<rect x="-242.77" y="158.73" width="110.45" height="3.8817" fill="#fcdd09" fill-rule="evenodd" stroke-dashoffset="0pt" stroke-width=".87881"/>
<rect x="-257.26" y="128.56" width="139.43" height="4.0077" fill="#fcdd09" fill-rule="evenodd" stroke-dashoffset="0pt" stroke-width=".87881"/>
<rect x="-259.63" y="124.4" width="144.16" height="4.294" fill="#fcdd09" fill-rule="evenodd" stroke-dashoffset="0pt" stroke-width=".87881"/>
<rect x="-280.97" y="312.73" width="184.24" height="7.6883" fill="#fcdd09" fill-rule="evenodd" stroke-width=".87881"/>
<path d="m-261.5 90.385v34.137h147.6v-34.137h-18.393v14.836h-13.902v-14.836h-18.393v14.864h-13.902v-14.864h-18.393v14.892h-13.902v-14.892h-18.393v14.919h-13.902v-14.919z" fill="#fcdd09" fill-rule="evenodd" stroke-width=".87881"/>
<path d="m-261.06 113.69h147.79" fill="#fcdd09" fill-rule="evenodd" stroke-width=".87881"/>
<path d="m-139.4 105.15v8.445" fill="#fcdd09" fill-rule="evenodd" stroke-width=".87881"/>
<path d="m-261.08 99.959h17.803" fill="#fcdd09" fill-rule="evenodd" stroke-width=".87881"/>
<path d="m-252.28 90.627-0.0547 9.5259" fill="#fcdd09" fill-rule="evenodd" stroke-width=".87881"/>
<path d="m-228.98 99.466h17.821" fill="#fcdd09" fill-rule="evenodd" stroke-width=".87881"/>
<path d="m-220.18 90.367-0.0547 9.2881" fill="#fcdd09" fill-rule="evenodd" stroke-width=".87881"/>
<path d="m-196.55 98.949h17.803" fill="#fcdd09" fill-rule="evenodd" stroke-width=".87881"/>
<path d="m-187.75 90.583-0.0598 8.562" fill="#fcdd09" fill-rule="evenodd" stroke-width=".87881"/>
<path d="m-164.45 99.706h17.803" fill="#fcdd09" fill-rule="evenodd" stroke-width=".87881"/>
<path d="m-155.65 90.374-0.0547 9.5259" fill="#fcdd09" fill-rule="evenodd" stroke-width=".87881"/>
<path d="m-131.71 99.706h17.803" fill="#fcdd09" fill-rule="evenodd" stroke-width=".87881"/>
<path d="m-122.92 90.374-0.0547 9.5259" fill="#fcdd09" fill-rule="evenodd" stroke-width=".87881"/>
<path d="m-172.23 105.31v8.445" fill="#fcdd09" fill-rule="evenodd" stroke-width=".87881"/>
<path d="m-236.75 105.05v8.445" fill="#fcdd09" fill-rule="evenodd" stroke-width=".87881"/>
<path d="m-204.02 105.05v8.445" fill="#fcdd09" fill-rule="evenodd" stroke-width=".87881"/>
<path d="m-251.71 114.04v10.419" fill="#fcdd09" fill-rule="evenodd" stroke-width=".87881"/>
<path d="m-220.39 113.66v10.419" fill="#fcdd09" fill-rule="evenodd" stroke-width=".87881"/>
<path d="m-188.6 113.66v10.419" fill="#fcdd09" fill-rule="evenodd" stroke-width=".87881"/>
<path d="m-154.6 113.91v10.419" fill="#fcdd09" fill-rule="evenodd" stroke-width=".87881"/>
<path d="m-123.13 113.66v10.419" fill="#fcdd09" fill-rule="evenodd" stroke-width=".87881"/>
<path d="m-244.9 137.04v3.8786" fill="#fcdd09" fill-rule="evenodd" stroke-width=".87881"/>
<path d="m-230.87 136.89v3.8786" fill="#fcdd09" fill-rule="evenodd" stroke-width=".87881"/>
<path d="m-216.62 136.89v3.8786" fill="#fcdd09" fill-rule="evenodd" stroke-width=".87881"/>
<path d="m-201.39 136.99v3.8786" fill="#fcdd09" fill-rule="evenodd" stroke-width=".87881"/>
<path d="m-187.29 136.89v3.8786" fill="#fcdd09" fill-rule="evenodd" stroke-width=".87881"/>
<path d="m-238.02 132.81v3.8786" fill="#fcdd09" fill-rule="evenodd" stroke-width=".87881"/>
<path d="m-223.98 132.67v3.8786" fill="#fcdd09" fill-rule="evenodd" stroke-width=".87881"/>
<path d="m-209.74 132.67v3.8786" fill="#fcdd09" fill-rule="evenodd" stroke-width=".87881"/>
<path d="m-194.51 132.77v3.8786" fill="#fcdd09" fill-rule="evenodd" stroke-width=".87881"/>
<path d="m-249.27 136.98h124.37" fill="#fcdd09" fill-rule="evenodd" stroke-width=".87881"/>
<path d="m-173.27 136.97v3.8786" fill="#fcdd09" fill-rule="evenodd" stroke-width=".87881"/>
<path d="m-159.02 136.97v3.8786" fill="#fcdd09" fill-rule="evenodd" stroke-width=".87881"/>
<path d="m-143.79 137.06v3.8786" fill="#fcdd09" fill-rule="evenodd" stroke-width=".87881"/>
<path d="m-129.69 136.97v3.8786" fill="#fcdd09" fill-rule="evenodd" stroke-width=".87881"/>
<path d="m-180.42 132.89v3.8786" fill="#fcdd09" fill-rule="evenodd" stroke-width=".87881"/>
<path d="m-166.38 132.75v3.8786" fill="#fcdd09" fill-rule="evenodd" stroke-width=".87881"/>
<path d="m-152.14 132.75v3.8786" fill="#fcdd09" fill-rule="evenodd" stroke-width=".87881"/>
<path d="m-136.91 132.84v3.8786" fill="#fcdd09" fill-rule="evenodd" stroke-width=".87881"/>
<path d="m-246.79 141.31h117.74" fill="#fcdd09" fill-rule="evenodd" stroke-width=".87881"/>
<path d="m-237.59 141.55v3.8786" fill="#fcdd09" fill-rule="evenodd" stroke-width=".87881"/>
<path d="m-223.55 141.41v3.8786" fill="#fcdd09" fill-rule="evenodd" stroke-width=".87881"/>
<path d="m-209.31 141.41v3.8786" fill="#fcdd09" fill-rule="evenodd" stroke-width=".87881"/>
<path d="m-194.08 141.5v3.8786" fill="#fcdd09" fill-rule="evenodd" stroke-width=".87881"/>
<path d="m-179.99 141.62v3.8786" fill="#fcdd09" fill-rule="evenodd" stroke-width=".87881"/>
<path d="m-165.95 141.48v3.8786" fill="#fcdd09" fill-rule="evenodd" stroke-width=".87881"/>
<path d="m-151.71 141.48v3.8786" fill="#fcdd09" fill-rule="evenodd" stroke-width=".87881"/>
<path d="m-136.48 141.58v3.8786" fill="#fcdd09" fill-rule="evenodd" stroke-width=".87881"/>
<path d="m-243.7 145.78h112.44" fill="#fcdd09" fill-rule="evenodd" stroke-width=".87881"/>
<path d="m-230.87 145.84v3.8786" fill="#fcdd09" fill-rule="evenodd" stroke-width=".87881"/>
<path d="m-216.62 145.84v3.8786" fill="#fcdd09" fill-rule="evenodd" stroke-width=".87881"/>
<path d="m-201.39 145.93v3.8786" fill="#fcdd09" fill-rule="evenodd" stroke-width=".87881"/>
<path d="m-187.29 145.84v3.8786" fill="#fcdd09" fill-rule="evenodd" stroke-width=".87881"/>
<path d="m-173.27 145.91v3.8786" fill="#fcdd09" fill-rule="evenodd" stroke-width=".87881"/>
<path d="m-159.02 145.91v3.8786" fill="#fcdd09" fill-rule="evenodd" stroke-width=".87881"/>
<path d="m-143.79 146.01v3.8786" fill="#fcdd09" fill-rule="evenodd" stroke-width=".87881"/>
<path d="m-241.93 150.26h108.69" fill="#fcdd09" fill-rule="evenodd" stroke-width=".87881"/>
<path d="m-237.55 150.18v3.8786" fill="#fcdd09" fill-rule="evenodd" stroke-width=".87881"/>
<path d="m-223.52 150.04v3.8786" fill="#fcdd09" fill-rule="evenodd" stroke-width=".87881"/>
<path d="m-209.28 150.04v3.8786" fill="#fcdd09" fill-rule="evenodd" stroke-width=".87881"/>
<path d="m-194.05 150.13v3.8786" fill="#fcdd09" fill-rule="evenodd" stroke-width=".87881"/>
<path d="m-179.94 150.04v3.8786" fill="#fcdd09" fill-rule="evenodd" stroke-width=".87881"/>
<path d="m-165.92 150.11v3.8786" fill="#fcdd09" fill-rule="evenodd" stroke-width=".87881"/>
<path d="m-151.68 150.11v3.8786" fill="#fcdd09" fill-rule="evenodd" stroke-width=".87881"/>
<path d="m-136.45 150.21v3.8786" fill="#fcdd09" fill-rule="evenodd" stroke-width=".87881"/>
<path d="m-241.49 154.46h106.92" fill="#fcdd09" fill-rule="evenodd" stroke-width=".87881"/>
<path d="m-230.24 154.69v3.8786" fill="#fcdd09" fill-rule="evenodd" stroke-width=".87881"/>
<path d="m-216.21 154.55v3.8786" fill="#fcdd09" fill-rule="evenodd" stroke-width=".87881"/>
<path d="m-201.97 154.55v3.8786" fill="#fcdd09" fill-rule="evenodd" stroke-width=".87881"/>
<path d="m-186.73 154.65v3.8786" fill="#fcdd09" fill-rule="evenodd" stroke-width=".87881"/>
<path d="m-172.64 154.77v3.8786" fill="#fcdd09" fill-rule="evenodd" stroke-width=".87881"/>
<path d="m-158.61 154.63v3.8786" fill="#fcdd09" fill-rule="evenodd" stroke-width=".87881"/>
<path d="m-144.37 154.63v3.8786" fill="#fcdd09" fill-rule="evenodd" stroke-width=".87881"/>
<path d="m-231.72 178.92v14.044" fill="#fcdd09" fill-rule="evenodd" stroke-width=".87881"/>
<path d="m-210.35 178.92v14.044" fill="#fcdd09" fill-rule="evenodd" stroke-width=".87881"/>
<path d="m-187.5 179.26v14.044" fill="#fcdd09" fill-rule="evenodd" stroke-width=".87881"/>
<path d="m-166.34 178.92v14.044" fill="#fcdd09" fill-rule="evenodd" stroke-width=".87881"/>
<path d="m-221.36 164.84v14.414" fill="#fcdd09" fill-rule="evenodd" stroke-width=".87881"/>
<path d="m-200.01 164.84v14.414" fill="#fcdd09" fill-rule="evenodd" stroke-width=".87881"/>
<path d="m-177.19 165.19v14.414" fill="#fcdd09" fill-rule="evenodd" stroke-width=".87881"/>
<path d="m-239.89 179.54h104.7" fill="#fcdd09" fill-rule="evenodd" stroke-width=".87881"/>
<path d="m-145.3 179.19v14.044" fill="#fcdd09" fill-rule="evenodd" stroke-width=".87881"/>
<path d="m-156.07 165.64v14.414" fill="#fcdd09" fill-rule="evenodd" stroke-width=".87881"/>
<path d="m-240.65 193.26h105.21" fill="#fcdd09" fill-rule="evenodd" stroke-width=".87881"/>
<path d="m-220.75 193.35v15.619" fill="#fcdd09" fill-rule="evenodd" stroke-width=".87881"/>
<path d="m-199.41 193.35v15.619" fill="#fcdd09" fill-rule="evenodd" stroke-width=".87881"/>
<path d="m-176.59 193.72v15.619" fill="#fcdd09" fill-rule="evenodd" stroke-width=".87881"/>
<path d="m-155.44 193.13v15.769" fill="#fcdd09" fill-rule="evenodd" stroke-width=".87881"/>
<path d="m-243.58 208.99h111.6" fill="#fcdd09" fill-rule="evenodd" stroke-width=".87881"/>
<path d="m-231.71 208.66v14.585" fill="#fcdd09" fill-rule="evenodd" stroke-width=".87881"/>
<path d="m-210.35 208.66v14.585" fill="#fcdd09" fill-rule="evenodd" stroke-width=".87881"/>
<path d="m-187.5 209.01v14.585" fill="#fcdd09" fill-rule="evenodd" stroke-width=".87881"/>
<path d="m-166.35 208.66v14.585" fill="#fcdd09" fill-rule="evenodd" stroke-width=".87881"/>
<path d="m-145.32 208.94v14.585" fill="#fcdd09" fill-rule="evenodd" stroke-width=".87881"/>
<path d="m-241.78 223.89v14.407" fill="#fcdd09" fill-rule="evenodd" stroke-width=".87881"/>
<path d="m-220.72 223.37v14.407" fill="#fcdd09" fill-rule="evenodd" stroke-width=".87881"/>
<path d="m-199.34 223.37v14.407" fill="#fcdd09" fill-rule="evenodd" stroke-width=".87881"/>
<path d="m-176.48 223.72v14.407" fill="#fcdd09" fill-rule="evenodd" stroke-width=".87881"/>
<path d="m-155.31 223.37v14.407" fill="#fcdd09" fill-rule="evenodd" stroke-width=".87881"/>
<path d="m-134.26 223.64v14.407" fill="#fcdd09" fill-rule="evenodd" stroke-width=".87881"/>
<path d="m-249.78 223.72h123.26" fill="#fcdd09" fill-rule="evenodd" stroke-width=".87881"/>
<path d="m-229.32 238.1v14.634" fill="#fcdd09" fill-rule="evenodd" stroke-width=".87881"/>
<path d="m-208.45 237.58v15.806" fill="#fcdd09" fill-rule="evenodd" stroke-width=".87881"/>
<path d="m-164.28 237.96v15.806" fill="#fcdd09" fill-rule="evenodd" stroke-width=".87881"/>
<path d="m-143.15 238.4v14.634" fill="#fcdd09" fill-rule="evenodd" stroke-width=".87881"/>
<g transform="matrix(1.7292 0 0 1.3869 -1618.6 87.342)" fill="#fcdd09" stroke-width=".56748">
<path d="m808.63 67.182c-3.8882 0-7.051 2.6582-7.051 5.937v19.07h14.086v-19.07c0-3.2788-3.1463-5.937-7.0346-5.937z" fill="#fcdd09" fill-rule="evenodd" stroke="#cab313" stroke-dashoffset="0pt" stroke-width=".56748"/>
</g>
<g transform="matrix(1.7292 0 0 1.3869 -1537.6 53.067)" fill="#fcdd09" stroke-width=".56748">
<path d="m799.42 91.473c-3.8883 0-7.051 2.6582-7.051 5.937v19.07h14.086v-19.07c0-3.2788-3.1463-5.937-7.0346-5.937z" fill="#fcdd09" fill-rule="evenodd" stroke="#cab313" stroke-dashoffset="0pt" stroke-width=".56748"/>
</g>
<path d="m-258.85 238.45h139.63" fill="#fcdd09" fill-rule="evenodd" stroke-width=".87881"/>
<path d="m-270.63 253.17h162.46" fill="#fcdd09" fill-rule="evenodd" stroke-width=".87881"/>
<path d="m-276.43 267.9h174.19" fill="#fcdd09" fill-rule="evenodd" stroke-width=".87881"/>
<path d="m-276.42 282.63h174.79" fill="#fcdd09" fill-rule="evenodd" stroke-width=".87881"/>
<path d="m-276.93 297.36h175.18" fill="#fcdd09" fill-rule="evenodd" stroke-width=".87881"/>
<path d="m-242.48 253.18v14.634" fill="#fcdd09" fill-rule="evenodd" stroke-width=".87881"/>
<path d="m-242.48 282.1v14.634" fill="#fcdd09" fill-rule="evenodd" stroke-width=".87881"/>
<path d="m-264.3 253.54v14.635" fill="#fcdd09" fill-rule="evenodd" stroke-width=".87881"/>
<path d="m-252.33 238.38v14.637" fill="#fcdd09" fill-rule="evenodd" stroke-width=".87881"/>
<path d="m-253.17 267.82v14.634" fill="#fcdd09" fill-rule="evenodd" stroke-width=".87881"/>
<path d="m-253.17 298.17v14.634" fill="#fcdd09" fill-rule="evenodd" stroke-width=".87881"/>
<path d="m-263.46 282.29v15.806" fill="#fcdd09" fill-rule="evenodd" stroke-width=".87881"/>
<path d="m-131.8 252.89v14.634" fill="#fcdd09" fill-rule="evenodd" stroke-width=".87881"/>
<path d="m-131.8 281.81v14.634" fill="#fcdd09" fill-rule="evenodd" stroke-width=".87881"/>
<path d="m-109.99 253.24v14.635" fill="#fcdd09" fill-rule="evenodd" stroke-width=".87881"/>
<path d="m-121.12 267.53v14.634" fill="#fcdd09" fill-rule="evenodd" stroke-width=".87881"/>
<path d="m-122.85 238.08v14.637" fill="#fcdd09" fill-rule="evenodd" stroke-width=".87881"/>
<path d="m-121.12 297.87v14.634" fill="#fcdd09" fill-rule="evenodd" stroke-width=".87881"/>
<path d="m-110.83 282v15.806" fill="#fcdd09" fill-rule="evenodd" stroke-width=".87881"/>
<path d="m-197.48 271.01c0.0523 2.4619 0.0699 4.3264-1.8197 7.9233-1.0133 1.9288-0.35739 3.908-1.5048 5.5866" fill="#fcdd09" fill-rule="evenodd" stroke-linejoin="bevel" stroke-width=".87881"/>
<path d="m-223.65 311.52s-1.5766-28.832-0.71945-51.332c-1.4731-23.292 20.003-28.883 38.034-28.562 18.031 0.32047 34.889 4.0216 35.631 29.101 0.7289 24.644 0.18278 51.869 0.18278 51.869z" fill="#fcdd09" fill-rule="evenodd" stroke-linecap="round" stroke-linejoin="bevel" stroke-width=".87881"/>
<path d="m-198.22 224.88h21.14l-4.5245 15.899-11.878 0.0961z" fill="#fcdd09" fill-rule="evenodd" stroke-linejoin="bevel" stroke-width=".87881"/>
<path d="m-231.95 257.22 21.746 2e-3c-2.8772 0.93361-3.1555 9.0568 0.60831 11.208l-22.502-0.22461c0.18069 0.0601 0.35536-10.883 0.14771-10.985z" fill="#fcdd09" fill-rule="evenodd" stroke-linejoin="bevel" stroke-width=".87881"/>
<path d="m-232.06 279.63 21.746 2e-3c-2.8772 0.9336-3.1555 9.0568 0.60832 11.208l-22.502-0.22461c0.18069 0.0601 0.35535-10.883 0.1477-10.985z" fill="#fcdd09" fill-rule="evenodd" stroke-linejoin="bevel" stroke-width=".87881"/>
<path d="m-231.77 300.32 21.746 2e-3c-2.8772 0.9336-3.1555 10.071 0.6083 12.223l-22.502-0.2246c0.18069 0.0601 0.14771-9.358 0.14771-12z" fill="#fcdd09" fill-rule="evenodd" stroke-linejoin="bevel" stroke-width=".87881"/>
<path d="m-142.42 301.43-23.066 2e-3c2.8772 0.93361 3.1555 9.2597-0.60833 11.411l23.529 0.0797c-0.18065 0.0601-0.062-11.391 0.1456-11.493z" fill="#fcdd09" fill-rule="evenodd" stroke-linejoin="bevel" stroke-width=".87881"/>
<path d="m-141.87 279.07-21.746 2e-3c2.8772 0.93361 3.1555 9.0568-0.60831 11.208l22.502-0.2246c-0.18069 0.0601-0.35534-10.883-0.1477-10.985z" fill="#fcdd09" fill-rule="evenodd" stroke-linejoin="bevel" stroke-width=".87881"/>
<path d="m-142.04 256.47-21.746 2e-3c2.8772 0.93362 3.1555 9.0568-0.60831 11.208l22.502-0.22461c-0.18065 0.0601-0.35532-10.883-0.14769-10.985z" fill="#fcdd09" fill-rule="evenodd" stroke-linejoin="bevel" stroke-width=".87881"/>
<path d="m-159.54 232.09-13.702 12.55c2.8083-1.0777 9.6531 4.5258 8.7394 8.332l15.186-13.249c-1.7018-3.2074-5.3726-5.6494-10.223-7.6326z" fill="#fcdd09" fill-rule="evenodd" stroke-linejoin="bevel" stroke-width=".87881"/>
<path d="m-153.97 299.98-0.4059 0.14764" fill="#fcdd09" fill-rule="evenodd" stroke-linejoin="bevel" stroke-width=".87881"/>
<path d="m-215.31 232 13.702 12.55c-2.8083-1.0777-9.6531 4.5258-8.7394 8.332l-15.186-13.249c1.7018-3.2074 5.3726-5.6494 10.223-7.6326z" fill="#fcdd09" fill-rule="evenodd" stroke-linejoin="bevel" stroke-width=".87881"/>
<g transform="matrix(.64314 0 0 .5844 -364.51 -230.87)" fill="#0071bc" fill-rule="evenodd" stroke-width="1.4335">
<path d="m223.73 709.16c-6.8628 0-12.445 5.1525-12.445 11.508v36.964h24.861v-36.964c0-6.3554-5.5533-11.508-12.416-11.508z" stroke-dashoffset="0pt"/>
<path d="m325.45 708.87c-6.8628 0-12.445 5.1525-12.445 11.508v36.965h24.861v-36.965c0-6.3553-5.5532-11.508-12.416-11.508z" stroke-dashoffset="0pt"/>
<path d="m235 929.87s0.77266-43.448-0.80307-79.168c-1.6443-37.659 22.328-46.699 42.455-46.181 20.127 0.51813 39.986 6.489 39.772 47.052-0.19935 37.87-1.705 78.371-1.705 78.371z" stroke-linecap="round" stroke-linejoin="bevel"/>
</g>
</g>
<path d="m356.97 888.97h-12.317c-16.713 0-30.423-13.547-30.423-30.423v-116.64h122.43v116.64c0 16.876-13.71 30.423-30.423 30.423h-12.317c-8.923 0-16.075 3.4939-18.476 9.8536-2.4002-6.3597-9.5525-9.8536-18.476-9.8536z" fill="none" stroke="#cab313" stroke-linecap="round" stroke-linejoin="round" stroke-width="1.4"/>
<path d="m375.45 898.16v-154.04" fill="none" stroke="#cab313" stroke-width=".24911px"/>
<path d="m314.25 813.37h120.12" fill="none" stroke="#cab313" stroke-width=".24872px"/>
<g stroke="#cab313">
<g transform="matrix(.27064 -.036212 .036212 .27064 710.12 612.79)" fill-opacity="0" stroke-width="1.6993">
<g transform="rotate(-17.233 -1749.7 -3713.8)" fill="#ed1c24" fill-opacity="1" fill-rule="evenodd" stroke="#cab313" stroke-width="1.6993">
<path d="m-2311.3 202.34c-11.809 18.599-53.31-8.9062-9.9825-34.331 11.011-6.4611 43.13 1.4938 41.155 33.218-5.8593 94.077-163.01 27.162-72.899-47.995 41.641-34.731-57.445-46.099-38.21-52.196l24.117-22.414c9.0241-13.045 77.972 22.891 46.325 68.984-2.889 4.2077-19.088 18.33-24.55 32.24-15.291 38.943 47.05 50.33 36.049 13.958-3.9859-13.179-15.771 7.3446-2.0044 8.5357z"/>
<path d="m-2302.5 2.1441c-8.8328-20.183-55.545 2.6017-15.104 32.406 7.6889 5.6667 51.045 10.09 51.2-32.865 0.2569-71.092-121.22-79.456-119.82 3.2105 0.7752 45.682 24.106 68.04 43.716 99.852l12.954-13.845c-9.1656-12.519-13.009-26.347-2.7586-41.346 3.1119-4.5534 19.621-9.2952 20.363-9.1596-5.5895 1.7589-24.353-6.6365-27.629-21.218-9.1695-40.82 54.178-42.561 37.756-8.2936-5.9501 12.416-14.466-9.6649-0.6782-8.7417z"/>
<path d="m-2264.2 121.14c16.516-14.581-19.46-52.089-35.472-4.4729-3.0445 9.0533 6 51.685 46.946 38.7 67.766-21.491 38.588-139.71-39.691-113.1-55.554 18.885-63.108 61.428-105.78 95.867l14.888 38.094c13.586-24.421 25.059-80.799 64.852-68.976 5.2868 1.5707 14.849 15.84 14.947 16.587-3.3837-4.7841-1.1271-25.216 11.754-32.793 36.062-21.211 57.088 38.571 19.44 33.413-13.641-1.8691 4.7795-16.728 8.1157-3.3186z"/>
</g>
</g>
<path d="m375.94 657.43" fill="#eac102" fill-rule="evenodd" stroke-width=".464"/>
<path d="m375.94 657.43" fill="#eac102" fill-rule="evenodd" stroke-width=".464"/>
<path d="m393.64 728.56c2.6239 1.7439 6.573 0.1151 9.5248-0.17556 2.9519-0.29065-1.2628 3.8557-1.0962 3.6392 0.11098-0.14423-7.8986 3.7761-9.5386 6.6826-1.64 2.9065-7.6001 9.3001-9.7004 11.649-1.8041 2.0172-4.3729 2.8718-6.6688 2.8718-2.2959 0-4.8108-2.1712-4.8108-2.1712s-4.4335 5.962-7.7134 7.1246c-3.2799 1.1626-9.8537 2.4766-12.15 2.1859-2.2959-0.29066-4.4081-5.2414-5.064-6.404-0.65599-1.1626-0.65599-4.9411-0.65599-6.685 0-1.7439 0.32798-2.9066 0.32798-2.9066s-2.2959 0.29068-2.9519-0.87194c-0.65596-1.1626-0.98397-3.7785-0.65596-5.2318 0.32795-1.4533 2.9519-4.9411 4.2638-5.5224 1.3119-0.58132 2.9519 0.87195 4.5918 0.29064 1.64-0.5813 2.6283-1.4508 4.2683-2.3228 1.0075-0.53573 2.0134-0.52379 2.8675-1.109 0.53612-0.36728 1.0125-0.96981 1.3919-2.0906 0 0 31.146-0.69641 33.77 1.0475z" fill="#999" fill-rule="evenodd" stroke-width=".464"/>
<path d="m359.65 721.4-3.1953-7.7958 27.965-13.782c0.17322-0.2397-32.438-8.9151-32.06-11.062 3.6406-12.273 34.969-23.792 45.302 2.1514 3.2241 8.0945 0.50387 16.236-8.1421 25.352 0.30172 2.8537-0.30172 6.8488 2.1121 8.561 2.4138 1.7122 5.6283 4.6619 8.3439 4.3766 2.7155-0.28536-9.0574 6.182-10.566 9.0357-1.5086 2.8537-6.2401 10.265-8.6539 11.978-2.4138 1.7122-3.5162 1.1647-5.6283 1.1647-2.1121 0-4.0801-3.1106-4.0801-3.1106s-6.2691 7.9466-9.2864 9.088c-3.0173 1.1415-7.3369 1.725-9.449 1.4396-2.1121-0.28538-3.584-4.4516-4.1874-5.593-0.60346-1.1415-0.44088-4.8513-0.44088-6.5635 0-1.7122 0.97443-3.1702 0.97443-3.1702s-2.953 0.12712-3.5564-1.0143c-0.60345-1.1415-0.90517-3.0768-0.60345-4.5036 0.30171-1.4269 1.8747-3.5852 3.0816-4.156 1.2069-0.57073 2.0372 0.86398 3.5459 0.29323 1.5086-0.57073 3.6368-1.5513 5.1454-2.4074 1.5086-0.8561 2.4725-1.4348 3.3777-4.2885z" fill="#999" fill-rule="evenodd" stroke-width=".464"/>
<path d="m384.78 702.66h3.7416c-5.1136 10.444-5.6289 15.35-4.1431 26.057 1.0182 7.3379 6.0098 8.5328 6.0453 8.4096l-2.5506 3.6543c-1.504-3.2503-5.8777-5.0094-6.662-12.575-1.0148-9.7894-1.4205-13.058 3.5688-25.546z" fill="#999" fill-rule="evenodd" stroke-width=".464"/>
<path d="m352.33 690.21 31.528 11.354-27.862 14.124c-7.3839-9.3304-8.1988-14.956-3.6664-25.479z" fill="url(#a)" fill-rule="evenodd" stroke-width=".464"/>
<path d="m352.73 688.95 3.0318 1.5217s-3.0019 5.4034-2.3406 12.296c0.39049 4.0705 2.5572 7.4819 4.131 9.4715 0.9481 1.1986 1.6811 2.8446 1.6811 2.8446l-3.593 1.0458s-0.57687-1.5796-1.3732-2.65c-1.5945-2.1433-4.0688-6.1074-4.5541-10.591-0.72758-6.7232 3.0169-13.939 3.0169-13.939z" fill="#999" stroke-width=".464"/>
<path d="m360.24 688.95 3.0319 1.5217s-3.002 5.4034-2.3407 12.296c0.62574 6.5226 5.8121 11.353 5.8121 11.353l-3.593 1.0459s-5.1997-5.5546-5.9273-12.278c-0.72758-6.7232 3.0169-13.939 3.0169-13.939z" fill="#999" stroke-width=".464"/>
<path d="m369.93 692.4c-0.8299 2.1671-1.9028 5.9632-1.4803 10.367 0.30865 3.217 1.7267 6.0224 3.0847 8.0395l-2.7025 2.0306c-1.5723-2.2407-3.6501-5.8811-4.0904-9.9494-0.48885-4.5173 1.0412-9.2569 2.0978-11.881z" fill="#999" stroke-width=".464"/>
<path d="m376.31 696.35c-0.36663 1.8567-0.5712 4.047-0.34423 6.413 0.13572 1.4148 0.48604 2.75 0.95147 3.9736l-3.2391 1.3534c-0.67853-1.585-1.2198-3.3511-1.4205-5.2062-0.31709-2.9301 0.21522-5.9537 0.91681-8.4328z" fill="#999" stroke-width=".464"/>
<path d="m357.07 720.78 31.335-20.51-0.38264-0.92863-33.232 16.843c-1.2197 0.50893-0.75176 6.1484 2.28 4.5956z" fill="#999" fill-rule="evenodd" stroke-width=".464"/>
<path d="m362.8 677.63 26.085 23.214-0.87145 1.851-30.579-21.138c-2.3247-3.9452 4.3526-4.7887 5.3653-3.9265z" fill="#999" fill-rule="evenodd" stroke-width=".464"/>
<path d="m359.36 728.01 28.034-23.878-0.79585-1.8847-30.97 20.961c-0.87043 0.75126-0.55835 7.7174 3.7315 4.8022z" fill="#999" fill-rule="evenodd" stroke-width=".464"/>
<g transform="matrix(.4817 0 0 .4817 436.15 695.56)" fill-rule="evenodd">
<path d="m-101.24 7.6694h23.706l-1.2974 7.1428h-22.409z" fill="#999" stroke-width=".96326"/>
<path d="m-173.74-14.188 64.181 22.677" fill="#eac102" stroke-width=".96326"/>
<path d="m-168.46-24.408 64.639 36.112 0.0819 2.2908-72.469-24.699c-11.809-4.6806 5.7922-15.754 7.7476-13.704z" fill="#999" stroke-width=".96326"/>
<g transform="matrix(.56082 .25345 -.25345 .56082 -156.8 -155.44)" fill="#e3e4e5" stroke-width="5.605">
<ellipse transform="matrix(.27636 -.10666 .094788 .24559 121.24 197)" cx="57.286" cy="97.556" rx="10.776" ry="10.493"/>
<ellipse transform="matrix(.27636 -.10666 .094788 .24559 97.756 197)" cx="57.286" cy="97.556" rx="10.776" ry="10.493"/>
<ellipse transform="matrix(.27636 -.10666 .094788 .24559 74.271 197)" cx="57.286" cy="97.556" rx="10.776" ry="10.493"/>
<ellipse transform="matrix(.27636 -.10666 .094788 .24559 50.786 197)" cx="57.286" cy="97.556" rx="10.776" ry="10.493"/>
</g>
<ellipse transform="matrix(1.0025 0 0 1.0025 -160.33 -86.597)" cx="57.286" cy="97.556" rx="10.776" ry="10.493" fill="#999" stroke-width=".96089"/>
<ellipse transform="matrix(.50123 0 0 .50123 -131.62 -37.698)" cx="57.286" cy="97.556" rx="10.776" ry="10.493" fill="#e3e4e5" stroke-width="1.9218"/>
<g transform="matrix(.53009 -.31266 -.31266 -.53009 -134.69 182.75)" fill="#e3e4e5" stroke-width="5.605">
<ellipse transform="matrix(.27636 -.10666 .094788 .24559 121.24 197)" cx="57.286" cy="97.556" rx="10.776" ry="10.493"/>
<ellipse transform="matrix(.27636 -.10666 .094788 .24559 97.756 197)" cx="57.286" cy="97.556" rx="10.776" ry="10.493"/>
<ellipse transform="matrix(.27636 -.10666 .094788 .24559 74.271 197)" cx="57.286" cy="97.556" rx="10.776" ry="10.493"/>
<ellipse transform="matrix(.27636 -.10666 .094788 .24559 50.786 197)" cx="57.286" cy="97.556" rx="10.776" ry="10.493"/>
</g>
</g>
</g>
<g transform="matrix(.23208 0 0 .23208 522.23 680.29)" stroke="#cab313" stroke-width=".99967"></g>
</g>
</svg>
