<?xml version="1.0" encoding="UTF-8"?>
<svg width="744.09" height="465.06" clip-rule="evenodd" fill-rule="evenodd" image-rendering="optimizeQuality" shape-rendering="geometricPrecision" text-rendering="geometricPrecision" version="1.0" viewBox="0 0 210 297" xml:space="preserve" xmlns="http://www.w3.org/2000/svg" xmlns:cc="http://web.resource.org/cc/" xmlns:dc="http://purl.org/dc/elements/1.1/" xmlns:rdf="http://www.w3.org/1999/02/22-rdf-syntax-ns#"><metadata><rdf:RDF><cc:Work rdf:about=""><dc:format>image/svg+xml</dc:format><dc:type rdf:resource="http://purl.org/dc/dcmitype/StillImage"/></cc:Work></rdf:RDF></metadata>
 <defs>
  <style type="text/css">
   
    .fil2 {fill:#1F1A17}
    .fil1 {fill:white}
    .fil0 {fill:#57B5E0}
    .fil3 {fill:#ED2E38}
   
  </style>
 
  
  
  
  
  
  
  
  
  
  
  
  
 </defs>
 <g transform="matrix(2.2626 0 0 2.2626 -132.6 -187.47)"><rect class="fil0" x="8.2073e-5" y="82.874" width="210" height="65.625" fill="#03c"/><rect class="fil1" x=".00049223" y="82.874" width="65.625" height="65.625" fill="#fff"/><path class="fil2" d="m39.818 97.881c-0.6248-1.358-0.3176-2.7837-0.5384-3.7953-0.0994-0.4552-0.295-0.8782-0.2594-1.5825 0.046-0.9086-0.0647-1.756 0.1136-2.1739 0.0967-0.2265 0.2166-0.4213 0.1482-0.5547-0.1176-0.2293-0.2929-0.1889-0.3225 0.1732-0.0182 0.2228-0.139 0.4324-0.7244 0.1016-0.9584-0.4066-3.8118-0.9601-4.4797 0.1725-0.4104 0.7182-0.63 0.6048-1.3933 0.6306-0.2585 0.0087-0.5357 0.059-0.7644 0.402-0.0915 0.1374-0.2082 0.4222-0.1781 0.5644 0.0266 0.1255 0.1964 0.1056 0.187 0.2694-0.0137 0.2394-0.2702 0.6065-0.2702 0.8071-0.099 1.3911 0.7438 1.6209 1.7824 1.6008 0.2962-0.0056 0.3177 0.1921 0.503 0.2185-2.375 0.276-3.0327-0.7682-2.677-1.9052 0.1415-0.4522-0.0215-0.5923-0.4694-0.2304-0.9317 0.7528-0.6994 1.8767-0.2554 2.5736 0.4923 0.7726 1.1844 0.9182 1.9572 0.9486 0.3418 0.0134 0.2994 0.0112 0.2334 0.2688-0.0842 0.3287-0.1242 0.4554 0.0603 0.4844 0.2233 0.0651 0.1342 1.0139 0.1723 1.2973 0.1735-0.0503 0.3338-0.11 0.3988-0.2011 0.1278-0.1789 0.311-0.132 0.4185 0.0847 0.1552 0.3127 0.1345 0.5958-0.1715 0.7832-0.3397 0.2081-0.2455 0.3111-0.5211 0.4884-0.5794 0.3729-1.2799-0.8915-1.2157-1.5022 0.0243-0.2308-0.1513-0.3308-0.2262-0.3308 0 0.2033-0.3091 0.5036-0.3091 0.7649 0.0665 0.3949-0.1007 0.5355-0.2169 0.3535-0.3138-0.4915-1.0911-1.5683-2.0483-1.2828-0.507 0.1872-1.225 1.0456-1.7034 0.4574-0.1665-0.2048-0.2719-0.0843-0.2855 0.1276-0.0329 0.5122 0.5911 0.9472 0.9707 0.9211 0.3372-0.0232 0.5764-0.2492 0.9685-0.1022 0.3122 0.1161 0.361 0.3126 0.4163 0.4269 0.0622 0.1286-0.0123 0.2903-0.1877 0.2862-0.2491-0.0057-0.6555 0.1011-0.8677 0.2917-0.2636 0.2367-0.4546 0.0802-0.6201-0.1106-0.4199-0.4839-0.956-0.9456-1.3016-1.3566-0.6553-0.7793-1.5453-1.1461-2.2299-1.8361-0.5418-0.5462-0.9078-1.2609-0.8226-2.055 0.0325-0.3029 0.1095-0.3525 0.4154-0.4149 0.5205-0.1062 0.6315-0.5726 0.5176-1.0377-0.1058-0.4321-0.0759-0.4724-0.0089-0.9241 0.0629-0.4235 0.059-0.9339-0.4036-1.3895-0.1164-0.1145-0.3669-0.2504-0.4649-0.1525-0.1846 0.2719 0.2265 0.7888-0.1964 0.7581-0.7945-0.0579-1.3671 0.5257-1.2699 1.436 0.0144 0.1355 0.0745 0.5872-0.0083 0.6333-0.0377 0.021-0.1672-0.0709-0.2401-0.2613-0.2684-0.7004-0.174-1.0563-0.232-1.4571-0.078-0.5384-0.2123-1.0453-0.86-1.0017-0.1573 0.0106-0.3356-0.0861-0.4312-0.189-0.4568-0.4917-1.1299-0.5841-1.694-0.0441-0.2731 0.2615 0.0329 0.499 0.2084 0.5275 0.1964 0.0318 0.3107 0.1629 0.3953 0.3113 0.247 0.4331-0.4399 0.3826-0.2099 1.4744 0.0649 0.3081 0.318 0.6401 0.4982 0.7294 0.2003 0.099 0.5205 0.0199 0.4666 0.2486-0.0739 0.3143 0.1023 0.4534 0.1242 0.6795 0.0195 0.2006 0.0086 0.3254-0.3208 0.2206-0.6484-0.2182-1.0068 0.2316-1.0417 0.7379-0.0169 0.2459-0.0759 0.3732-0.142 0.4784-0.3141 0.4999-0.2724 1.1046-0.248 1.6717 0 0.1552 0.0934 0.5136 0.2384 0.6758 0.1176 0.1315 0.3083 0.2151 0.3104-0.0314 0.0184-0.3126 0.0773-0.5275 0.1822-0.6286 0.1678-0.1619 0.234 0.0369 0.3193 0.1757 0.429 0.6971 1.1089 0.1022 1.2311-0.5256 0.0668-0.3433 0.154-0.0631 0.2414 0.1712 0.1943 0.5211 0.6973 1.2824 0.1443 1.6597-0.2695 0.1839-0.8454 0.258-0.4639 0.6665 0.4585 0.4585 0.7046 0.7412 1.3145 0.3187 0.2285-0.1583 0.6008-0.1121 0.6133 0.2221 0.0168 0.4537-0.0819 0.7258 0.2422 1.162 0.0601 0.0809 0.099 0.1584 0.103 0.2265 0.0142 0.2403 0.0026 0.4893 0.4056 0.5487 0.1967 0.0792 0.2968 0.2332 0.3505 0.5273 0.052 0.2847 0.2022 0.4345 0.3811 0.4488 0.5286 0.0424 0.2039 0.3993 0.4409 0.8129 0.1069 0.1867 0.339 0.3577 0.1884 0.4326-0.1447 0.0719-0.5064 0.1475-0.7078 0.167-0.705 0.068-1.8138-0.5511-1.8464-1.9136-0.0054-0.2242-0.2295-0.2995-0.2451-0.1031-0.2189 2.7493 1.0815 3.899 2.2665 3.9598 0.7752 0.0397 1.6116-0.3219 2.1194-0.5947 0.3171-0.1704 0.3546-0.1649 0.1417 0.2065-0.3311 0.5772-1.3387 1.0271-2.0738 1.1908-0.6015 0.1339-1.2449 0.3841-1.7052 0.4578-0.3369 0.0375-0.4772-0.1886-0.565-0.4477-0.0527-0.1554-0.1666-0.2919-0.0687-0.4769 0.4144-0.7827 0.3182-1.3205-0.0878-1.6297-0.1092-0.1146-0.2563-0.123-0.3147-0.4668-0.0867-0.5105-0.5589-0.9237-1.4544-0.7932-0.2634 0.1041-0.3104 0.2411-0.2521 0.3596 0.0887 0.1806 0.3077 0.3986 0.4299 0.5574 0.083 0.108 0.069 0.2248-0.1045 0.4596-0.4165 0.5635-0.2389 1.4298 0.1582 1.8961 0.1363 0.1601 0.4159 0.3252-0.0316 0.2428-0.2525-0.0465-0.4132-0.671-0.7674-0.5707-0.1476 0.0418-0.2591 0.0079-0.393-0.159-0.2812-0.3505-0.8933-0.3443-1.4135 0.1481-0.3644 0.2949-0.4134 0.5036-0.157 0.6883 0.2338 0.1684 0.4607 0.3153 0.4669 0.6774 0 0.4937-0.1833 1.1901 0.2523 1.5095 0.3349 0.2642 0.756 0.1843 1.0164 0.0871 0.2758-0.1029 0.7257 0.1954 0.7257 0.4842 0 0.3775-0.4745 0.3877-0.4745 0.8523-0.0384 0.2191 0.0578 0.4545 0.0595 0.6669 6e-3 0.7419-0.1377 1.6299 0.3838 2.3435 0.2289 0.3133 0.3804 0.3602 0.3804-0.3005 0-0.509 0.3506-0.784 0.6738-0.6702 0.4506 0.1584 0.7138-0.3644 0.7059-0.745-6e-3 -0.2898-0.0424-0.6365 0.0152-0.828 0.036-0.1197 0.0879-0.151 0.194-0.1309 0.274 0.0518 0.1949 0.1729 0.199 0.4442 0.0048 0.315 0.1046 0.612 0.458 0.8281 0.3599 0.2202 0.1347 0.7179 0.0247 1.1059-0.0553 0.195 0.1067 0.2338 0.2812 0.2186 0.3665-0.0319 0.6025-0.3167 0.6808-0.6675 0.147-0.2123 0.2885-0.1922 0.4203-0.1959 0.3898-0.0109 0.3709-0.4815 0.3798-0.7606 0.0125-0.3963 0.1094-0.2184 0.3927-0.3321 0.2247-0.0902 0.3902-0.1416 0.4308 0.0909 0.0797 0.4564 0.2749 0.8129 0.6446 1.2175 0.3749 0.3449 0.3803 0.0943 0.3299-0.2634-0.04-0.2836 0.1813-0.619 0.2845-0.7314 0.0557-0.0606 0.1301-8e-3 0.1953 0.13 0.2634 0.5566 0.1769 0.6251 0.8986 1.1299 0.3721 0.2602 0.1483-0.2294 0.1847-0.6643 0.0056-0.0677 0.0605-0.5154 0.1382-0.0767 0.0839 0.4734 0.7048 1.2133 1.1219 1.3268 0.3385 0.1599 0.1041-0.4117 0.1285-0.7225 0.0141-0.1792 0.0407-0.2581 0.177-0.088 0.347 0.4331 0.6003 0.4245 1.091 0.5193 0.1533 0.0297 0.294 0.0507 0.2878-0.1153-0.0612-0.4218-0.0331-0.4851 0.1881-0.3178 0.3882 0.2936 0.7841 0.457 1.1128 0.5262 0.2848 0.06 0.2917 0.0426 0.4967 0.2615 0.6903 0.7368 1.2223 1.3817 1.8803 2.107 0.3499 0.3857 0.6882 0.7433 0.6882 1.1109 0 0.5227-0.9274 0.0876-1.3049-0.0576-0.8104-0.3412-1.2538-0.9686-2.1164-0.9393-1.0168 0.0346-1.2663 0.4014-1.4766 0.8218-0.2081 0.416-0.2078 0.3358-0.5271 0.5342-0.6863 0.4265-0.7386 0.8751-0.8628 1.1664-0.2195 0.5148-0.5127 0.3007-0.7809-0.1889-0.3995-0.7294-0.3246-1.3171-1.4317-1.3171-0.9307 0.1562-0.8812 1.2388-0.8625 1.7726 0 0.4937 0.292 0.9391 0.4953 0.1841 0.0381-0.3841 0.2727-1.1061 0.6992-0.2422 0.1949 0.3947 0.4805 1.0845 0.8253 1.383 0.4541 0.393 0.8176 0.7443 1.3693 0.5487 0.2252-0.0798 0.2923-0.1048 0.1393 0.0886-0.4902 0.62-0.3978 0.4035 0.4052 0.3661 0.4057-0.0189 0.2359 0.096 0.2282 0.3121-0.0057 0.16-0.0362 0.3989 0.0197 0.5953 0.2154 0.756 0.1215 0.6901-0.2368 0.7035-0.1095 4e-3 -0.1823 0.0345-0.3165 0.1549-0.1454 0.1304-0.3972 0.1321-0.5429 0.2575-0.1246 0.1072-0.2419 0.3085-0.5302 0.3032-0.3099-0.0057-0.6275-0.2293-0.8599-0.1196-0.4102 0.1937-0.6141 0.128-0.7731-0.076-0.2126-0.2727-0.1371-0.5396 0.0159-0.9012 0.215-0.5079-0.1425-1.0326-0.3666-1.171-0.1772-0.1093-0.173-0.2372-0.2298-0.4093-0.2559-0.7751-0.6231-0.9806-1.003-1.0052-0.2408-0.0156-0.8388 0.1117-0.6867 0.4789 0.1091 0.2632 0.3025 0.2491 0.3332 0.5457 0.015 0.1445 0.0217 0.2686-0.1277 0.2971-0.3896 0.0742-0.4005 1.1208-0.2144 1.4157 0.1456 0.2306 0.4216 0.4613 0.5482 0.6668 0.1492 0.2423-0.1953 0.3647-0.4091 0.0754-0.3177-0.5901-0.8197-0.7351-0.9669-0.3091-0.047 0.1359-0.2226 0.2833-0.4305 0.3684-0.6344 0.2598-0.8471 1.1683-0.7336 1.7936 0.0371 0.2047 0.1394 0.2124 0.2407 0.0895 0.1528-0.1854 0.2885-0.442 0.4193-0.1309 0.1171 0.2786 0.268 0.5612 0.5536 0.6902 0.3276 0.148 0.5563-0.0474 0.7761-0.2542 0.1864-0.1754 0.4063-0.1438 0.1751 0.185-0.1676 0.2384-0.2353 0.2039-0.378 0.3041-0.4036 0.2836-0.5256 1.2962-0.3763 1.6272 0.1149 0.2546 0.2619 0.1931 0.3478 0.0145 0.0916-0.1906 0.1914-0.2354 0.2891-0.1477 0.366 0.3283 0.4255 0.4975 1.0036 0.5399 0.5134 0.0377 0.4193-0.7336 0.8428-1.0116 0.1128-0.074 0.4057-0.2471 0.5105-0.323 0.3133-0.2269 0.4783-0.1778 0.3157 0.1433-0.0989 0.1952-0.2826 0.499 0 0.626 0.1534 0.069 0.1582 0.0908 0.1397 0.2944-0.0288 0.3169-0.1176 0.6665-0.2185 1.0045-0.0822 0.2755 0.136 0.2792 0.3834 0.2277 0.217-0.0453 0.4527-0.0998 0.59-0.2394 0.0616-0.0625 0.0847-0.1132 0.1913-0.1205 0.6354-0.0442 0.8448-0.1137 1.0099-0.9197 0.0407-0.1986 0.2449-0.3243 0.3126 0.0031 0.1628 0.7879 0.6703 1.2314 1.0052 1.3538 0.233 0.0851 0.2586 0.1791 0.2761 0.3239 0.0155 0.1286-6e-3 0.2983-0.0452 0.5399-0.031 0.1906 0.1912 0.2379 0.303 0.0273 0.1154-0.2173 0.1917-0.6254 0.1893-0.8752-0.0043-0.4529-0.2025-0.755-0.2242-1.1096 0-0.4878 0.1646-0.5021 0.2203-0.2527 0.0724 0.3237 0.3204 1.4303 1.792 1.4564 0.2894 0.0051 0.453-0.1114 0.1127-0.3837-0.4163-0.2365-0.6987-0.538-0.7805-0.9421-0.0945-0.4667-0.0087-0.6646 0.249-0.7035 0.2574-0.0388 0.3211-0.087 0.4337-0.2587 0.1242-0.1896 0.2301-0.1428 0.3087-0.0759 0.344 0.2927 0.9629 0.3499 1.2643-0.0537 0.108-0.1447 0.0465-0.3027-0.1038-0.3032-0.3964-0.0011-0.5477-0.1571-0.3179-0.7974 0.2178-0.6071 0.2653-1.0039 0.1563-1.6698-0.1221-0.7454-0.6278-1.6316-0.5655-2.321 0.0623-0.6892 0.6928-1.1818 1.6593-1.3719 0.2266-0.0598 0.4446 0.0208 0.3212 0.2096-0.2917 0.4466-0.5982 1.2527-0.7473 2.0205-0.1354 0.6979-0.0729 1.3899-0.1326 2.0899-0.0407 0.4777-0.1436 0.9381-0.1814 1.426-0.0331 0.4267-0.0689 1.0343-0.2824 1.5029-0.3254 0.7143-0.4539 1.746-0.686 2.3124-0.0814 0.1987-0.3103 0.312-0.6018 0.4022-0.2075 0.0642-0.2877 0.2545-0.0997 0.3559 0.311 0.0882 0.5569 0.1005 0.7603 0.0703 0.3962-0.0587 0.9337-0.3842 1.1353-0.7405 0.1277-0.2256 0.161-0.4659 0.2798-0.7246 0.0629-0.1371 0.2167-0.1501 0.1699 0.0706-0.047 0.2217-0.0205 0.661 0.1676 0.8164 0.0827 0.0684 0.1503 0.0934 0.1155-0.0676-0.0182-0.0842 0.0182-0.3409 0.0894-0.5327 0.0446-0.1202 0.0944-0.1188 0.1507-0.0643 0.1538 0.1488 0.2078 0.4905 0.4881 0.7005 0.1143 0.0857 0.2218 0.1461 0.2501 0.3099-6e-4 0.2627-0.0234 0.2563-0.0323 0.4367-0.0088 0.1805 0.0055 0.3602 0.1007 0.3979 0.2452 0.0973 0.1712 0.5697 0.1026 0.7595-0.2556 0.7075-0.8634 1.029-0.9478 1.8962-0.0444 0.4558 0.1108 0.7356-0.1455 1.1528-0.081 0.1317-0.1808 0.2708-0.2483 0.2708-0.2328 0-0.4326-0.2648-0.3593-0.6075 0.1429-0.668-0.0837-1.2004-0.4327-1.2796-0.1798-0.0408-0.3967-0.0063-0.452-0.1751-0.0492-0.1501-0.1232-0.2776-0.241-0.3449-0.6065-0.3467-0.9554-0.0581-1.3043 0.2902-0.216 0.2155-0.0452 0.3159 0.2022 0.3804 0.2036 0.053 0.4055 0.3105 0.4055 0.4012 0 0.1634-0.1226 0.1637-0.2173 0.2938-0.2729 0.3749-0.294 1.2413 0.4333 1.4158 0.2553 0.0613 0.2539 0.4569 0.012 0.2942-0.2295-0.1543-0.4762-0.1121-0.6414 0.2222-0.2431 0.4918-0.393 0.3353-0.8372 0.5573-0.6419 0.321-0.8288 1.4969-0.3364 1.9993 0.1663 0.1696 0.2462 0.2684 0.3341 0.0383 0.0529-0.1383 0.1204-0.2705 0.214-0.3883 0.1189-0.1495 0.1558-0.2091 0.141 0.1578-0.0304 0.7564 0.0794 0.8756 0.4823 0.8725 0.4711-0.0036 0.7084 0.0895 1.0238-0.2524 0.2422-0.2624 0.3044 0.0962 0.2911 0.297-0.0094 0.1408-0.0852 0.2531-0.1119 0.2996-0.1665 0.289-0.0132 1.1637 0.2861 1.5468 0.2507 0.3209 0.4175 0.2721 0.5118-0.0272 0.0767-0.2432 0.1375-0.7037 0.4936-0.6257 0.1504 0.033 0.3475 0.098 0.7369-0.2013 0.3864-0.2969 0.3175-1.0448 0.3958-1.3798 0.0492-0.2105 0.25-0.3941 0.2787-0.1683 0.0171 0.1342 0.2621 0.4222 0.5184 0.4426 0.3125 0.0248 0.4926-0.0285 0.4223 0.3369-0.0303 0.1572-0.1224 0.3638-0.1942 0.5697-0.0682 0.1952 0.1325 0.2265 0.2803 0.1813 0.8826-0.2701 0.956-0.9064 1.0411-1.4613 0.0116-0.0752 0.1158-0.1886 0.1162-0.4323 0.0011-0.5291-0.167-1.3188-0.3161-1.4406-0.1946-0.159-0.1741-0.2349 0.1019-0.2685 0.2899-0.0353 1.0393 0.1195 1.729-0.0076-0.242-0.3709-0.4172-0.7644-0.4518-0.937-0.0413-0.2055 0.0433-0.2949 0.3894-0.0848 0.2825 0.1715 1.4551 0.1839 0.9369-0.099-0.2504-0.1367-0.562-0.7787-0.6496-1.1092-0.0406-0.1533 0.137-0.379 0.274-0.3277 0.1766 0.0662 0.5147 0.3137 1.1081-0.027 0.1264-0.0726 0.3651-0.1363 0.5816-0.1145 0.307 0.0311 0.5491 0.7425 0.4918 0.1929-0.0271-0.2601-0.1192-0.6675-0.4305-0.8412-0.4683-0.2614-1.1008-0.4733-0.9065-0.6149 0.1023-0.0745 0.2369-0.1224 0.3595-0.1609 0.5935-0.1862 0.6649-0.7642 1.537-0.3092 0.3251 0.1696 0.2555-0.0067 0.1729-0.3098-0.1923-0.7055-0.9191-0.8074-1.5295-0.9917-0.2863-0.0865-0.672-0.3151-0.7518-0.5195-0.0768-0.1967 0.1069-0.1011 0.3993-0.0957 1.0583 0.0198 1.1393-0.9399 1.0643-1.3226-0.0572-0.2916-0.162-0.1063-0.206 0.0336-0.1781 0.566-0.5786 0.6391-0.8234 0.3134-0.2398-0.319-0.5068-0.8766-0.9763-0.9486-0.7739-0.1188-1.4504-0.3194-1.6108-1.28-0.1773-1.062-0.0072-2.4544-2e-4 -3.5503 0.0065-1.003 0.0129-2.0064 0.0225-2.9897 0.0025-0.2485-0.0294-0.4247 0.1442-0.1457 0.8537 1.3721 2.1818 5.2615 5.3059 4.2473 1.2724-0.4131 1.7733-2.0688 1.9441-3.7894 0.1287-1.2955-0.3108-2.2884-0.3338-3.4996-0.0117-0.6073 0.0314-1.5892 0.1621-1.6545-0.2033-0.029-0.4647 0.1162-0.5808 0.3485-0.056-0.1662-0.0026-0.3822 0.1862-0.5986 0.7357-0.843 0.9365-2.4478 0.4547-3.2872-0.114-0.1988-0.1022-0.2134-0.1267 0.0071-0.0585 0.5268-0.0507 1.0156-0.683 1.1189-0.197 0.0322-0.5273 0.2993-0.7144 0.548-0.1729 0.2299-0.1081 0.4632-0.3377 0.0651-0.5404-0.937-0.0217-1.2165 0.3767-1.6501 1.6245-1.7684 1.4548-3.0114 0.6595-4.1217-0.1769-0.2473-0.2377-0.2143-0.218 0.0721 0.0377 0.5432 0.1256 1.2505-0.8181 1.7436-0.4502 0.2352-1.069 0.2904-1.4412 0.9747-0.0582 0.1071-0.1696 0.3051-0.2376 0.0354-0.4969-1.9694 0.6558-2.6446 1.4452-2.9827 1.8291-0.7835 2.5192-3.1701 2.2912-4.9537-0.1202-0.94-0.6115-1.5638-1.4271-1.4303-0.411 0.0673-0.2065 0.0471 3e-4 0.2285 0.8514 0.7468 0.3848 2.7101-0.4618 3.3143-0.9276 0.662-2.3119 0.2793-2.7924 1.7952-0.1071 0.3379-0.2658 0.2008-0.2625-0.2101 0.0042-0.518 0.1255-0.9511 0.3144-1.2911 0.5753-1.0362 1.3387-0.5912 1.9399-1.2335 0.6337-0.6771 0.6154-2.2704-0.0435-3.1322-0.0885-0.1159-0.2056-0.0661-0.1769 0.0855 0.1061 0.5614 0.0753 1.1313-0.2225 1.5401-0.3184 0.4373-0.8157 0.1584-1.2716 0.1168-0.2882-0.0263-0.5805-0.0097-0.8108 0.0688-0.2276 0.0774-0.1851 0.1316-0.1565-0.1567 0.1634-1.6407 0.7813-3.8632 2.1238-4.3231 0.4881-0.1672 1.7705-0.0656 1.5973 1.143-0.0293 0.2053 0.0487 0.2278 0.1537 0.0467 0.4305-0.7424 0.3671-1.6209 0.0972-2.4232-0.1113-0.3309-0.1073-0.1918 0.1519-0.4052 0.7205-0.5933 0.8847-1.9176 0.8898-2.3471 0.0158-1.3169 0.0181-2.7456-0.1002-3.4085-0.0369-0.2067-0.1612-0.4881-0.1699-0.0304-0.0087 0.4476-0.0155 0.8496-0.137 1.2255-0.1377 0.426-0.215 0.879-0.2902 1.2672-0.0592 0.3064-0.135 0.0866-0.1305-0.0624 0.0214-0.7048-0.0374-1.4475-0.1525-2.1785-0.1395-0.8867-0.3251-1.5882-0.0814-2.3534 0.1315-0.4131 0.2598-0.7302-0.1785-0.1916-0.6436 0.7909-0.8663 0.8969-0.8761 2.1968-0.0012 0.1553 0.0222 0.8263-0.1483 1.4494-0.0953 0.3484-0.2834 0.5453-0.4743 0.8155-0.1877 0.2658-0.3273 0.6202-0.4882 0.8214-0.0847 0.1061-0.2049 0.0954-0.3017-0.0085-0.0589-0.0633-0.1226-0.7024-0.1236-0.9165-3e-3 -0.6022 0.0832-1.2503-0.1381-1.8369-0.211-0.5594-0.5745-1.2166-1.0221-1.3683-0.286-0.097-0.1818 0.0291-0.0783 0.2056 0.3754 0.6396 0.4737 1.4855 0.0631 2.6165-0.5074 1.3975-0.478 2.4525-0.1805 3.9186 0.149 0.7342 0.2026 0.5106-0.0828 1.2177-0.2746 0.6807-0.7123 1.4644-0.9875 2.3223-1.3748 4.1506-0.4986 8.837 1.2993 12.731 0.9799 2.1221 2.2428 4.0712 3.1333 6.3234 0.5638 1.426 0.3822 2.6748-0.2438 3.0819-0.5433 0.3534-1.4967 0.1766-2.3619-1.1553-0.8548-1.3159-1.1749-3.2779-2.1908-4.2709-0.2104-0.2058-0.4838-0.3531-0.5814-0.5266-0.1161-0.2062-0.034-0.6007-0.2397-1.3664-0.1281-0.4768-0.4644-1.2804-0.6776-1.649-0.3882-0.7193-1.6858-3.2531-1.7249-4.3703-0.0087-0.2535-0.0036-0.2005 0.2305-0.2111 0.7344-0.0334 1.3081-0.3036 1.4841-1.1359 0.0398-0.1887 0.014-0.2563-0.1632-0.1009-0.2705 0.2373-0.5167 0.6879-0.7762-0.0572-0.1318-0.3784-0.1001-0.9157 0.0385-1.3273 0.1584-0.4706 0.5786-0.9263 0.8629-1.3421 0.1937-0.2833 0.2076 0.0043 0.5535 0.2897 0.2261 0.1867 0.3369 0.1531 0.2144-0.2197-0.2667-0.8123-0.2458-1.4263-0.113-2.069 0.2707-1.3112 0.7199-2.5419 0.8078-3.8995 0.0276-0.4275-0.0229-0.3535 0.3059-0.5623 0.1157-0.0735 0.2071-0.1324 0.2908-0.2089 0.2356-0.2158 0.2599-0.2524-0.0135-0.4569-0.0967-0.0723-0.2407-0.1569-0.3715-0.4412zm-4.9602-1.9308c0.044 0.1364 0.0951 0.4553 0.0894 0.5994-0.0096 0.2392-0.1054 0.2585-0.2864 0.1431-0.5286-0.3371-0.7928-0.2707-1.184-0.521 0.0205-0.0034 0.7138-0.1398 0.946-0.291 0.1298-0.0847 0.3746-0.1174 0.435 0.0695z"/><path class="fil3" d="m37.474 140.23c0.255 0.0969 0.6473-0.244 0.5533-0.5898-0.024-0.0875-0.1005-0.1426-0.1674-0.1407-0.155 0.0052-0.3697 0.0652-0.3548 0.1981 0.0335 0.2961 0.0389 0.2287-0.0311 0.5324zm-3.3463 1.3326c-0.2724-0.1624-0.4685-0.9058-0.1743-1.2232 0.092-0.0996 0.2588-0.1202 0.3437-0.0691 0.197 0.1181 0.3117 0.3046 0.1961 0.4662-0.2573 0.3598-0.2373 0.3818-0.3655 0.8261zm-2.6832-2.6421c-0.349-0.2622-0.3885-0.7418 0.1496-1.2256 0.1586-0.1423 0.3778-0.235 0.4739-0.1277 0.1958 0.2203 0.1794 0.3795 0.0534 0.4953-0.3141 0.2907-0.481 0.5814-0.6769 0.858zm1.0359-5.1792c0.302-0.2168 0.6703-0.3937 1.0772 0.1162 0.1321 0.1658 0.145 0.4078 0.0263 0.4898-0.1901 0.1307-0.4182 0.1649-0.506-0.0147-0.2034-0.4206-0.2364-0.3138-0.5975-0.5913zm-5.6279-4.686c0.2911 0.108 0.7172-0.1044 0.6367-0.4099-0.025-0.0954-0.0664-0.1949-0.1745-0.2414-0.2418-0.1043-0.3524-0.0681-0.3605 0.151-0.0031 0.0945-0.0177 0.368-0.1017 0.5003zm-3.2485-1.261c-0.1232-0.1798-0.1439-0.5385 0.0187-0.8539 0.1296-0.2532 0.3465-0.3564 0.5446-0.0762 0.2214 0.3129 0.2027 0.5745-0.1114 0.6126-0.138 0.0171-0.295 0.1297-0.4519 0.3175zm-1.4323-2.6861c-0.1599-0.1607 0.2036-1.3815 0.7311-1.0105 0.2198 0.1548 0.1926 0.4879 0.0534 0.6716-0.1448 0.191-0.454 0.1217-0.7845 0.3389zm2.0931-4.4022c0.3489-0.1204 0.7857-0.0562 1.0641 0.4424 0.1025 0.1846 0.0653 0.456-0.0667 0.5141-0.2106 0.0925-0.5437 0.0384-0.6057-0.1516-0.1506-0.4611-0.1785-0.4938-0.3917-0.8049zm-1.875-7.1564c0.4424 0.0634 0.7796-0.4725 0.5002-0.7426-0.0668-0.0648-0.1478-0.1745-0.2929-0.242-0.2227-0.1045-0.2174 0.1242-0.1824 0.2868 0.0618 0.2907 0.1085 0.3714-0.0249 0.6978zm-2.691-0.0076c-0.335-0.1828-0.3578-0.7294-0.2526-1.1765 0.0546-0.2309 0.1403-0.5195 0.3678-0.4157 0.2258 0.1022 0.4871 0.4661 0.2175 0.8736-0.2985 0.4519-0.2858 0.4665-0.3327 0.7186zm-2.3775-6.2615c0.2049-0.3089 0.3455-0.5508 0.6551-0.534 0.3144 0.0174 0.5923 0.1619 0.5598 0.4794-0.0302 0.2976-0.4336 1.007-0.6387 0.5365-0.1582-0.3628-0.3474-0.3683-0.5762-0.4819zm2.5183-2.9565c0.3887-0.1285 0.8586-0.0851 1.118 0.5865 0.0843 0.2177-0.0217 0.3953-0.17 0.4556-0.2581 0.1054-0.5239 0.1639-0.5748-0.313-0.059-0.5475-0.2843-0.5295-0.3732-0.7291zm0.8007-5.0381c0.1115-0.0186 0.2408-0.0907 0.3228-0.1987 0.0747-0.0979 0.1323-0.2628 0.2802-0.1214 0.3051 0.2918-0.15 0.8047-0.603 0.3201zm-2.3543-2.009c-0.2786-0.1957-0.1851-0.7723-0.0392-1.0598 0.0544-0.1068 0.1158-0.1799 0.2219-0.1011 0.1346 0.1001 0.3385 0.2872 0.2599 0.4744-0.1054 0.251-0.2884 0.2871-0.4426 0.6865zm0.3679-6.7634c0.3702-0.1422 0.7738-0.2189 1.1078 0.2988 0.1123 0.174 0.0675 0.3603-0.0614 0.4374-0.224 0.134-0.5752 0.3532-0.5879-0.0671-0.0153-0.5009-0.2688-0.5363-0.4585-0.6691zm4.7858 0.5426c0.3284 0.284 0.5443 0.9482 0.3652 1.2232-0.1274 0.1958-0.5411 0.1427-0.6123-0.0737-0.104-0.3147-0.0525-0.4517 0.0143-0.5732 0.1326-0.2412 0.1892-0.3554 0.2328-0.5763zm11.256 4.4815c-0.2506-0.0504-0.9944-0.4854-1.1378-0.4854-0.8399 0.1695-3.2686 0.1943-2.9027-2.2359-0.6168 0.2998-0.671 1.309-0.2946 2.017 0.8259 1.5537 4.4322 0.736 4.3351 0.7043zm0.5567 13.085c0.0854 0.4282 0.0722 0.6183-0.1565 0.6183-0.1214 0-0.423-0.0674-0.6983-0.4566-0.175-0.2481-0.2618-0.1425-0.3665 0.0494-0.2432 0.4453-0.4329 0.6132-0.7843 0.9798-0.3529 0.3678-0.7743 0.4801-1.1539 0.4182-0.1748-0.0284-0.2065 0.1997-0.1616 0.3521 0.1045 0.3505 0.2133 0.7883 0.0029 1.3308-0.1056 0.2709-0.2747 0.5469-0.2567 0.8427 0.0222 0.372 0.2485 0.7796 0.4953 1.1157 0.7946 1.084 2.1544 1.6467 2.7381 2.8731 0.223 0.4683 0.3314 0.5708 0.4598 1.0711 0.1305 0.508 0.2866 0.9727 0.4538 1.2782 0.3807 0.6946 0.1119 1.1316-0.1775 1.8178-0.3103 0.7343-0.5693 1.2705-0.729 1.947-0.1165 0.4924-0.2719 1.2424-0.2397 1.9309 0.0457 0.9598-0.048 1.9475-0.1058 2.7206-0.0184 0.2482-0.6334 1.0332-0.7091 1.8524-0.0546 0.5846-0.2883 1.3008-0.5326 1.4557 0.5335 0.1188 0.7608-0.5284 1.0642-1.1767 0.1854-0.3959 0.5013-0.7447 0.7161-1.0098 0.4561-0.5632 0.1907 0.4409 0.1907 0.659 0.3498-0.3948 0.534-0.3741 0.5473-0.1983 0.0387 0.511-0.0771 0.5323 0.2619 0.923 0.2532 0.2914 0.569 0.4015 0.5558 0.7797-0.0193 0.5718 0.1423 1.001 0.1832 1.5168 0.0155 0.1986-0.1337 0.4112-0.3031 0.5782-0.4945 0.4873-0.4401 0.5881-0.6779 1.2306-0.1044 0.2841-0.2991 0.6637-0.2468 1.197 0.0102 0.1039-0.1157 0.2157-0.1852 0.4001-0.0944 0.2503-0.0376 0.5121-0.1553 0.5014-0.1228-0.0112-0.3252 0.0892-0.4665-0.0121-0.1297-0.0932-0.253-0.258-0.4053-0.3754-0.1638-0.1263-0.2751-0.283-0.1225-0.5073 0.1844-0.2715 0.2353-0.4842-0.0244-0.8591-0.1872-0.2696-0.3187-0.3099-0.3928-0.0055-0.0769 0.3156-0.4406 0.3019-0.7693 0.4029-0.2925 0.0903-0.5096 0.2533-0.468 0.6259 0.0168 0.1498 0.0856 0.2917 0.214 0.3435 0.2981 0.1204 0.5103 0.0755 0.6569 0.4097 0.1256 0.286-0.0524 0.6058 0.1582 0.6924 0.0726 0.0305 0.092 0.2116-0.0504 0.26-0.0819 0.0281-0.1448 0.1901-0.2025 0.3954-0.0876-0.432-0.2112-0.773-0.5489-0.7125-0.2026 0.0361-0.6156 0.3582-0.4402 0.6593 0.0611 0.105 0.1177 0.3311 0.0206 0.5603-0.1478 0.35-0.2448 0.3841-0.2426 0.8234 0.0032 0.5754 0.0037 0.795 0.7266 0.5354 0.3988-0.143 0.6319-0.8011 1.2638-0.8102 0.4313-0.0062 0.2625 0.3063 0.0843 0.4293-0.1256 0.0861-0.3047 0.1368-0.345 0.2704-0.1133 0.3738-0.1189 0.6269 0.1488 0.6032 0.4604-0.0408 0.7287 0.1258 0.7834 0.603 0.0387 0.3391 0.0329 0.458 0.4189 0.2329 0.2757-0.1606 0.3867-0.5069 0.4152-0.7072 0.0544-0.3821-0.1954-0.5772-0.1659-0.7475 0.029-0.1628 0.0673-0.3007 0.2813-0.3194 0.1777-0.0154 0.3768 0.0756 0.3669-0.3727-6e-3 -0.2729 0.5156-0.5806 0.5813-0.075 0.031 0.2369-0.193 0.7981 0.0578 0.9759 0.2103 0.1498 0.421 0.1022 0.6659-0.2794 0.1857-0.29 0.2847-0.1842 0.5283-0.1293 0.3269 0.0735 0.2438-0.174 0.2238-0.546-0.039-0.7239-0.402-0.5884-0.6136-0.8871-0.1967-0.2774-0.3169-0.5208 0.0381-0.5978 0.1712-0.0375 0.414-0.0321 0.569-0.1033 0.218-0.1005-0.0495-0.297-0.0963-0.531-0.0497-0.2472-0.0852-0.4232 0.1396-0.1056 0.3267 0.4614 0.6488 0.7156 1.2643 0.7156-0.3338-0.4622-0.4645-0.9117-0.4997-1.4582-0.0161-0.2541-0.0815-0.5107 0.2463-0.2416 0.2904 0.2381 0.5593 0.7725 1.1398 0.757-0.1317-0.1524-0.3199-0.4644-0.4652-0.7551-0.2252-0.4518-0.1915-0.7477-0.2909-1.2178-0.0971-0.4634 0.0102-0.2793 0.3213-0.0465 0.3424 0.2564 1.0924 0.5356 1.7275 0.0103-0.444-0.1799-0.7363-0.4497-0.9221-0.7386-0.3412-0.5299-0.8594-0.5292-1.0258-0.7919-0.2111-0.3321 0.2942-0.2727 0.4516-0.238 0.3434 0.0764 0.6639 0.6982 1.5025 0.276 0.1404-0.0706 0.3422-0.2156 0.6665-0.3731-0.1376-0.1922-0.3315-0.2804-0.5977-0.3485-0.6199-0.1614-0.6158-0.2225-0.9722-0.7012-0.1136-0.1525-0.2977-0.3225-0.4616-0.372-0.2374-0.0714-0.3465-0.3098 0.0545-0.3973 0.326-0.0711 0.5203 0.0616 0.6261 0.1664 0.1241 0.1229 0.6706 0.1231 0.6884 0.0358-0.2837-0.2094-0.4971-0.4465-0.605-0.6669-0.1499-0.3083-0.5463-0.5138-0.9731-0.5065-0.3278 0.0059-0.7179 0.0092-0.962-0.0923-0.1447-0.0604-0.1944 0.051-0.1964 0.2534-0.0032 0.3162 0.3486 1.0225 0.5593 1.3051 0.1687 0.2257-0.0293 0.5513-0.0879 0.6774-0.1585 0.3416-0.128 0.7616-0.1776 1.0045-0.0763 0.3744-0.3136 0.2226-0.3415-0.0718-0.0347-0.3567 0.1573-1.0407 0.1266-1.4767-0.0475-0.6612-0.5757-1.159-0.5875-2.0761-0.0047-0.3529 0.1834-0.1994 0.3297-0.0152 0.067 0.0846 0.1385 0.1057 0.237 0.0989-0.0932-0.4472-0.1171-0.5593-0.2929-0.9593-0.3423-0.7764-0.1984-2.1279-0.1731-3.0009 0.0267-0.9162 0.0559-2.2086 0.0413-3.0886-0.0074-0.4482-0.0124-1.5948-0.1254-2.2884-0.0626-0.3873 0.0148-0.5925 0.3227-0.1205 0.6761 1.0368 1.4386 3.0208 2.6575 4.4157 0.709 0.8121 1.5491 1.0913 2.3051 0.9739 1.8353-0.2845 2.5137-2.7343 2.2361-4.294-0.1754-0.9848-0.424-1.5237-0.3981-2.2659 0.011-0.325 0.0782-0.6892 0.0453-1.1462-0.1412 0.0397-0.2334 0.2209-0.2817 0.4038-0.0789 0.2996-0.3322 0.4984-0.3874 0.126-0.0843-0.5658-0.096-0.972 0.1311-1.2217 0.1283-0.142 0.146-0.4581 0.2124-0.7703 0.1091-0.516 0.3003-0.5854 0.6476-0.8961 0.2454-0.2197 0.172-0.6512 0.2005-0.8188-0.1316 0.0959-0.4064 0.1753-0.7199 0.3047-0.6461 0.2661-0.6229 0.7839-0.6771 1.0682-0.0561 0.2915-0.3256 0.5525-0.5501-0.0276-0.2705-0.6987-0.4708-1.3461-0.2868-2.0215 0.2833-1.0379 0.9997-0.9681 1.5294-2.0938 0.2411-0.5128 0.2798-1.3521-0.014-1.7826-0.0575 0.426-0.0393 0.734-0.2301 1.0056-0.2957 0.4191-1.0003 0.7919-1.5003 0.8073-0.34 0.01-0.5147 0.6644-0.5841 0.9413-0.195 0.7787-0.5231-0.0246-0.5957-0.2293-0.389-1.0965-0.3629-2.4476 0.0859-2.9802 0.5783-0.6861 1.7196-0.8057 2.4194-1.521 0.5953-0.6083 1.0524-1.3753 1.1316-2.1942 0.0959-0.9905 0.0816-2.637-0.6135-2.6603 0.2907 0.8814 0.3531 1.9564-0.1902 2.8379-0.2733 0.4428-0.7958 0.838-1.4082 0.9513-0.5771 0.1062-1.4994 0.6796-1.885 1.1694-0.3278 0.4168-0.3164 0.909-0.3988 1.2688-0.1133 0.4956-0.4017 0.2927-0.4558-1e-3 -0.1353-0.7438-0.1226-1.9496 0.1087-2.6962 0.1209-0.3922 0.7796-1.061 1.1727-1.2583 0.3501-0.1763 0.6545-0.1751 1.0982-0.5592 0.4061-0.352 0.4365-0.7837 0.3038-1.33-0.8863 1.3004-0.9857 1.0326-1.3035 0.9343-1.4484-0.4475-1.5561 0.047-1.969 1.0108-0.1114 0.2605-0.1881 0.2761-0.1694-0.2093 0.0636-1.6364 1.1172-5.6774 2.7456-6.3643 0.3446-0.1457 0.969-0.1318 1.5547 0.4684 0.1505-0.4462 0.2314-0.7318-0.3202-1.0567-0.7343-0.4323 0.1966-0.7321 0.6756-1.1833 0.5279-0.4964 0.7711-1.8719 0.7209-2.5542-0.6139 1.1294-0.8968 2.279-2.369 2.4491-0.2894 0.0343-0.3796-0.1734-0.0489-0.2838 0.8437-0.2825 1.1108-0.5134 1.4067-1.7893 0.3163-1.3611-0.1478-3.0291-0.1704-4.2217-0.293 0.4626-0.4624 0.9086-0.4849 1.3163-0.0419 0.7614 0.0438 1.5873-0.3827 2.2135-0.3838 0.5627-0.8095 1.0995-1.125 1.7084-0.1148 0.2227-0.2877 0.8527-0.442 1.0026-0.1162 0.1132-0.2941 0.1031-0.1655-0.1316 0.2162-0.393 0.2432-0.8825 0.244-1.2906 3e-4 -0.3289-0.1085-0.5663-0.1532-0.7964-0.0883-0.4535 0.0953-1.0167 0.0394-1.4574-0.0483-0.3796-0.2262-0.6746-0.36-0.8814-0.017 0.1859 0.0343 0.6239-0.1861 1.0357-0.4607 0.8646-0.6102 2.9027-0.4444 3.8087 0.0606 0.3292 0.2409 0.5374 0.3475 0.7859 0.2715 0.6336-0.0321 0.6927-0.2086 1.0335-1.7831 3.4428-2.0279 6.0307-1.2338 10.08 0.4009 2.0453 1.2844 3.954 2.0612 5.702 1.0752 2.4187 3.1146 4.4799 3.0819 7.2794-0.015 1.2629-0.6807 2.0492-1.678 1.9055-1.369-0.198-1.9935-1.5317-2.5556-2.6335-0.5969-1.1702-0.8146-2.406-1.7221-3.0758-0.2189-0.1615-0.4193-0.5177-0.4757-0.9645-0.168-1.3316-0.6669-2.647-1.3509-3.6264-0.1099-0.1579-0.834-1.2186-1.1749-1.9983-0.1989-0.4561-0.3078-1.1892-0.3676-1.6919-0.0441-0.3699-0.1272-0.7754-0.402-0.8829-0.1162-0.0454-0.1214-0.224-0.1489-0.3958-0.0472-0.2934-0.2019-0.1827-0.2239-0.0684-0.0236 0.1198 0.0668 0.2307 0.0846 0.3224zm-0.4393 9.3565c-0.9644 0.1235-1.4684-0.1386-1.9501-0.4324-0.9445-0.576-1.6986-0.8954-2.3547-0.5819-0.5065 0.2411-0.3364 0.6064-0.5984 0.8299-0.1664 0.1418-0.4104 0.2738-0.5924 0.3782-0.4465 0.2567-0.4607 0.4747-0.6086 0.8936-0.3504 0.9931-0.9398 0.8183-1.4549-0.2764-0.6623-1.4053-1.6078-0.8249-1.766-0.3055 0.3579 0.0811 0.8282-0.9182 1.3259 0.8606 0.2252 0.8052 0.7873 1.1373 1.1313 1.3434 0.6991 0.419 1.3146-0.2077 1.5787-0.4339 0.156-0.1332 0.2212 0.0399 0.1641 0.1688-0.0889 0.1994-0.4918 0.7231-0.6536 0.7702 0.2615 0.0955 0.4213 0.0749 0.5161 0.0061 0.2952-0.2162 0.4592-0.2069 0.3865 0.0203-0.0718 0.227-0.3291 0.8172-0.0716 1.341 0.3215 0.6564 0.1176 1.0026-0.2979 1.1887-0.3292 0.1474-0.7515 0.079-1.0287 0.234-0.2695 0.1502-0.4536 0.4093-0.699 0.4196-0.6449 0.0255-0.4501-0.4107-1.2773-0.1179-0.2835 0.1006-0.5954 0.1611-0.5954-0.0739 0-0.113 0.0043-0.4957-0.2282-0.7477-0.2355-0.255-0.1183-0.4933 0.1386-0.6434 0.1947-0.1139 0.0674-0.5294-0.0201-0.7003-0.0806-0.1578-0.2758-0.1866-0.3849-0.1563-0.3714 0.1807-0.6748 0.0765-0.9329-0.0125-0.3346-0.1157-0.5882 0.1688-0.6093 0.4138-0.0207 0.2448 0.1507 0.5482 0.5251 0.5487 0.2063 3e-4 0.193 0.2837 0.193 0.4815 0 0.2849 0.2619 0.5783 0.2455 0.7097-0.0379 0.3008-0.2629-0.0564-0.5009 0.0646-0.2256 0.1143-0.4305 0.1408-0.4963-0.0976-0.0259-0.0934-0.0045-0.3092-0.2153-0.4087-0.3398-0.1597-0.658-0.0286-0.5152 0.3628 0.0651 0.1785 0.0576 0.5462 0.0435 0.6872-0.0163 0.1664-0.2898 0.4145-0.3153 0.596-0.0378 0.2639 0.1606 0.4056 0.3896 0.4114 0.3851 0.0099 0.5514-0.1729 0.5889-0.4162 0.0238-0.1601 0.1246-0.1862 0.2206-0.1057 0.0273 0.0231 0.1977 0.326 0.6118 0.2211 0.4336-0.1098 0.5309 0.4277 0.2117 0.7804-0.1189 0.1309-0.8485 0.0554-0.5471 0.4022 0.2452 0.2817 0.3856 0.4389 0.1903 0.9662-0.2614 0.7046 0.9877 0.5113 0.8833 0.1096-0.0894-0.3456-0.0526-0.618 0.281-0.7684 0.093-0.0419 0.2984-0.1072 0.3187-0.2043 0.0573-0.2728 0.1919-0.3013 0.3961-0.1671 0.1407 0.0922 0.3409 0.2104 0.6273 0.2722 0.223 0.0479 0.1869 0.244-0.0113 0.3595-0.2306 0.1343-0.5183 0.7649 0.0185 0.8104 0.3959 0.0331 0.4926 0.3127 0.487 0.4687-0.0072 0.2026 0.3292 0.3066 0.5398 0.2511 0.4595-0.1212 0.1799-0.8332 0.1367-1.1477-0.0328-0.2434 0.208-0.292 0.6877-0.1255 0.7167 0.2492 0.0898 1.189 0.829 1.5366 0.2253 0.1062 0.4908 0.1741 0.609 0.1741-0.1537-0.7707-0.1827-1.3732 0.0899-1.5279 0.5826-0.331 0.5473 0.1626 0.567 0.4096 0.051 0.6444 0.3792 0.8315 0.8738 0.991-0.5837-0.6911-0.4838-1.8141 0.1653-1.8333 0.1832-0.0058 0.2231-0.1098 0.3253-0.2926 0.1133-0.2012 0.1534-0.1875 0.3407-0.0153 0.1725 0.1583 0.4268 0.2586 0.7128 0.3108-0.1835-0.5909-0.1705-1.0597-0.0208-1.4486 0.4127-1.0698-0.0846-1.7475-0.3178-2.8248-0.2553-1.1809 0.1907-2.426 1.4934-2.6034 0.77-0.1052 0.7722-0.4568 0.6928-0.8392-0.1293-0.6289-0.1886-1.043-0.4723-1.4852zm-5.2202-11.568c-0.7661-0.1117-1.1509-0.6636-2.2673-0.2661-0.9128 0.325-1.6706 0.9454-2.6455 1.3199-0.7904 0.3036-1.8084 0.2924-2.4344 0.6212-0.2333 0.1229-0.3759 0.1934-0.6471-0.1158-0.1415-0.1616-0.4461-0.8443-0.5273-1.1106-0.079-0.2591 0.204-0.5126 0.3001-0.6658 0.2788-0.4438-0.0131-0.6676-0.3331-0.5456-0.2819 0.1071-0.5961 0.1394-0.7182 0.0972-0.679-0.2361-0.7581 0.4164-0.3203 0.8358 0.3215 0.3079 0.4216 0.9858 0.4216 1.3638 0 0.2403-0.614-0.3302-0.7129 0.1626-0.0455 0.2247-0.1053 0.4059-0.2569-0.0137-0.0787-0.2171-0.0394-0.8411-0.5315-0.7521-0.2496 0.0448-0.1861 0.2669-0.3384 0.5663-0.1449 0.2842-0.4807 0.4162-0.6563 0.6075-0.2756 0.2991 0.383 1.5705 0.9849 0.698 0.1098-0.1599 0.228-0.2729 0.4757-0.1033 0.1495 0.1018 0.068 0.532 0.3724 0.5939 0.1229 0.0244 0.2341 0.0516 0.3036 0.0114 0.2735-0.159 0.2919-0.0196 0.1803 0.3012-0.073 0.2095-0.0304 0.4276 0.0239 0.6444 0.1067 0.4238-0.0425 0.3915-0.1774 0.1765-0.1218-0.1945-0.4852-0.3234-0.6247 0.0955-0.1916 0.576 0.0022 0.6628 0.1986 0.6665 0.2606 5e-3 0.55 0.0394 0.6075 0.4875 0.0367 0.2918 0.1224 0.8294 0.6722 0.6194 0.1259-0.0483 0.1435-0.2071 0.1371-0.4933-0.0114-0.4601-0.1161-1.006 0.1677-1.1798 0.0581-0.0355 0.2753-0.1265 0.3195-0.2602 0.082-0.2487 0.2112-0.3506 0.2777-0.0327 0.0399 0.1893 0.6118 0.0814 0.6129 0.2929 5e-4 0.069-0.0554 0.2007-0.2161 0.3299-0.291 0.234-0.3535 0.742 0.0185 0.809 0.1954 0.0356 0.4628-0.0827 0.7181 0.2469 0.1959 0.2523 0.3479 0.6587 0.8163 0.0491 0.0644-0.0845 0.0673-0.463-0.1311-0.6423-0.0676-0.0612-0.868-0.8105 0.0911-0.564 0.2288 0.0587 0.0833 0.2639 0.2323 0.3565 0.2198 0.1374 0.4945-0.0025 0.641-0.0797 0.1917-0.1007 0.4019-0.0942 0.4019 0.1238 0 0.3413 0.219 0.969 0.4984 1.0933 0.0831-0.3861 0.3421-0.6822 0.6066-0.9505 0.2177-0.2212 0.2629-0.2373 0.3067 0.1397 0.0847 0.736 0.3065 0.9836 0.6367 1.2599-0.0461-0.1916-0.0349-1.2771 0.4156-1.3145 0.0467 0.2949-0.1836 0.8904 0.9515 1.7487-0.0725-0.2328-0.1066-0.4956-0.0559-0.7568 0.0766-0.3942 0.1795-0.2574 0.4266-0.0081 0.2413 0.2422 0.6095 0.5512 0.965 0.5909-0.0093-0.2251 0.0109-0.4203 0.0085-0.6233-5e-3 -0.4067 0.2119-0.2178 0.3711-0.0413 0.2833 0.3128 0.6271 0.7189 1.0568 0.6678-0.6037-0.7379 0.1796-1.3557 0.3766-1.5853 0.436-0.5094 0.2036-0.565 0.1013-1.156-0.0922-0.5316-0.0429-0.5979 0.3913-0.8703 0.2123-0.1332 0.3552-0.4169 0.4722-0.5806 0.1861-0.2604 0.2476-0.7839 0.2923-1.0969-0.3181 0.1588-0.4753 0.4975-0.7115 0.7506-0.6272 0.6742-1.6826 0.523-2.2331 1.316-0.211-0.7919 0.6903-1.1912 0.7725-1.5705-0.7322 0.2522-1.5207-0.0887-1.853-0.6861-0.1257-0.2238-0.3856-0.8419-0.3175-1.0393 0.0527-0.1525 0.3335-0.205 0.4926 0.126 0.1867 0.3904 0.6736-0.1185 0.5923-0.6651zm-2.1029-6.0863c-0.6946-0.4922-1.2488-1.1737-1.7104-1.693-0.425-0.4774-0.9565-0.8856-1.5789-1.207-0.2015-0.1034-0.6322-0.5539-0.8645-0.9454-0.169-0.2863-0.1544-0.5155-0.2515-0.6837-0.2957-0.5131-0.2461-0.4131-0.3013-0.8984-0.0282-0.2463-0.2374-0.6203-0.051-0.7834 0.2191-0.1914 0.0673-0.3276-0.0989-0.5189-0.1693-0.1946 0.2571-0.0813 0.6595-0.0708 0.4535 0.0123 0.6619-0.6133 0.3072-0.7871-0.247-0.1204-0.5319-0.2951-0.6282-0.5548-0.206-0.555-0.2874-0.5557-0.7212-0.254-0.3561 0.2475-0.1197 0.797-0.0673 1.0422 0.0077 0.0361 0.0632 0.1775-0.0386 0.2411-0.2201 0.1386-0.3629 0.5175-0.4371 0.8212-0.0489 0.2016-0.3081-0.0025-0.3345-0.3874-0.0156-0.2266-0.1464-0.3935-0.283-0.4751-0.0935-0.0562-0.0661-0.205-0.0596-0.3129 0.0278-0.4585-0.2544-0.3985-0.3452-0.4541-0.103-0.0633 0.0637-0.308 0.1142-0.4031 0.1252-0.2342 0.0387-0.4327-0.0642-0.6473-0.1985-0.4149-0.4585-0.3919-0.6833-0.0666-0.2052 0.2979-0.5151 0.3901-0.8178 0.4598-0.2999 0.0693-0.481 0.049-0.4535 0.3997 0.0555 0.7003 0.2127 0.9165 1.0303 0.9495-0.0345 0.7057 0.1334 0.9444 0.3829 1.2877 0.2637 0.3625 0.065 0.6079-0.2657 0.547-0.2824-0.0524-0.4891 0.1775-0.4501 0.4718-0.2577-0.515-0.4957-0.5327-0.6786-0.4044-0.3936 0.2767-0.2775 0.7891 0.0475 1.0868 0.1581 0.1451 0.2306 0.3074 0.2314 0.5432-0.1281 0.6667 0.2416 0.7462 0.5158 0.535 0.3466-0.267 0.2394-0.5799 0.2394-0.9366 0.2476 0.338 0.4074 0.215 0.5796 0.0918 0.3162-0.2261 0.4136 0.0269 0.4963 0.3111 0.1088 0.3746 0.2995 0.7459 0.2501 1.0899-0.1623 1.1372 0.4476 0.469 0.4964 1.2722 0.0233 0.3798 0.0949 0.6949 0.4338 0.2616 0.2384-0.3045 0.28-0.9615 0.28-1.1946 0.256 0.2268 0.2422 0.5652 0.1622 0.8766-0.1133 0.4385-0.2975 1.2536-0.188 1.7018 0.082 0.333 0.3043 0.723 0.39 0.0043 0.1052-0.8872 0.3642 0.3328 0.3518 0.5911-0.0216 0.4398 0.1471 1.3806 0.4899 0.5341 0.2011-0.498 0.3185-0.03 0.3141 0.2709-4e-3 0.287 0.0303 0.6381 0.0752 0.8858 0.1033 0.5674 0.2501 0.2813 0.3742 0.0852 0.1395-0.2205 0.2927-0.4086 0.2687 0.3358-0.0439 1.3394 0.5532-0.0288 0.9116-0.2854 0.2734-0.1954 0.367-0.5866 0.1002-0.5676-0.1575 0.0106-0.2866-0.1784-0.3207-0.7068-0.0235-0.3647-0.0426-0.815 0.2452-1.3231 0.3251 1.4901 0.9194 1.4242 1.5476 0.4787 0.1238-0.186 0.2754-0.3807 0.398-0.6144zm10.093-7.0111c0 0.5188 0.125 0.3893 0.3687 0.1896 0.5804-0.4761 0.9582-2.1106 0.8092-2.9121-0.4847 0.1148-0.8605 0.4867-1.1756 0.6721-0.3405 0.1996-0.3961-0.0187-0.1846-0.2402 0.1603-0.1686 0.4338-0.3035 0.5255-0.4527 0.1181-0.1937 0.0305-0.259-0.091-0.2865-0.7777-0.1748-1.8108-0.4189-2.5959-0.3922-0.9395 0.0321-1.3158 0.6345-1.4228 0.9333-0.1112 0.3108-0.4402 0.3571-0.7173 0.3571-0.1301 0-0.3729-0.0358-0.6014 0.0198-0.0599 0.0146-0.18 0.0349-0.3189 0.1234-0.3695 0.2344-0.3611 0.4453 0.1237 0.4448 0.307-1e-4 0.2695 0.1876 0.241 0.35-0.0479 0.2679-0.297 0.2209-0.4514 0.2629-0.2913 0.0788-0.4688 0.4908-0.4068 0.9049 0.0657 0.4412 0.4039 0.7879 0.7708 0.8832 0.7183 0.1877 0.8144-0.258 0.891-0.7175 0.0458-0.279 0.1234-0.2417 0.1912-0.2477 0.0791-0.0074 0.1431 0.052 0.145 0.1599 0.0022 0.0641-0.04 0.1387-0.1207 0.2114-0.1045 0.0939-0.0847 0.2788-0.0816 0.4156 0.0047 0.2356 0.1652 0.4628 0.4515 0.5477 0.738 0.2192 1.056 0.2773 1.2428 1.0573 0.0779 0.326 0.1186 0.739 0.1547 1.0695 0.0251 0.2301 0.0762 0.9334-0.3143 0.7225-0.1918-0.1036-0.4357-0.3019-0.7401-0.3932-0.5346-0.1599-1.049-0.3958-1.3373-0.4251-0.6581-0.0669 0.1551 0.6689 0.0453 0.9256 0.6205 0 0.9341 0.1316 0.9311 0.4725-0.0015 0.1587 0.0749 0.6074-0.1289 0.8131-0.1544 0.1561-0.3841 0.2733-0.5697 0.4503-0.1749 0.1662-0.2497 0.439-0.4692 0.5437-0.1682 0.0804-0.3514 0.0247-0.5319-0.0949-0.3703-0.2455-0.6181-0.7083-0.7696-0.7083-0.0678 0.2335-0.0096 0.4124 0.1209 0.4844 0.138 0.0753 0.1436 0.3284-0.0456 0.3482-0.2392 0.0258-0.2758-0.1119-0.4139-0.2589-0.3808-0.4076-0.5443-0.7572-0.8336-1.1979-0.2326-0.3538-0.5602-0.624-1.1689-0.6588-0.4389-0.0247-0.8826 0.17-1.2235 0.6212 0.7824 0 1.0107-0.1822 1.4867 0.6441 0.1218 0.2113 0.2303 0.4485 0.2769 0.6674 0.0677 0.3156-0.0822 0.3679-0.2597 0.3159-0.0803-0.0237-0.1427-0.085-0.2347-0.1242-0.3262-0.14-0.859 0.0779-1.0981 0.3263-0.481 0.5003-0.6485 1.246-1.2229 1.6478-0.4064 0.2844-0.9587 0.2683-1.2582-0.2656-0.0688 1.0101 0.6222 0.8938 1.1111 0.8813 0.1994-0.0047 0.373 9e-3 0.4637 0.1331 0.1101 0.1511-0.143 0.3019-0.3668 0.3292-0.1977 0.0242-0.3459-0.075-0.5927 0.0351-0.0824 0.0365-0.5593 0.2874-0.7653 0.7264-0.0894 0.1915-0.2802 0.3659-0.4283 0.5271-0.1773 0.1935-0.4356 0.363-0.7583 0.5341-0.7454 0.3964-1.5584-0.0049-2.2279-0.3396 0.2573 0.9187 0.8918 1.5613 1.8474 1.5748 1.4614 0.0216 2.094-0.7164 2.6512-1.273 0.1511-0.1511 0.2458-0.2828 0.2503 0.0078 0.0042 0.2875-0.0943 0.7868-0.1395 0.934 1.1848-0.5887 1.1606-1.2907 2.4577-1.2539 0.2936 0.0081 0.4845 0.0132 0.5464 0.1746 0.1809 0.471-0.3633 0.2203-0.6022 0.2196-0.3725-0.0014-0.6691 0.3397-0.7328 0.3397-0.054 0.2295 0.0234 0.3248 0.1846 0.3307 0.1176 0.0044 0.3217-0.0869 0.4076 0.0455 0.1145 0.1774 0.2334 0.2642 0.3485 0.288 0.2532 0.0524 0.8472-0.2361 0.9959-0.4821 0-0.1474 0.2576-0.2829 0.6567-0.3977 0.1161-0.0331 0.4971-0.3054 0.2611 0.115-0.2198 0.3918-0.4568 0.4072-0.6682 0.6039-0.2106 0.1953-0.1941 0.6111-0.2688 0.9013-0.2258 0.8726-0.4627 0.9243-1.0224 1.4843 1.0043 0.9772 1.6356 0.1213 1.8612-0.7906 0.0526-0.2146 0.1381-0.5382 0.2535-0.8583 0.0525-0.1452 0.0208-0.431 0.1541-0.4575 0.0934-0.0185 0.1294 0.0799 0.1144 0.2334-0.0126 0.1317-0.1469 0.3028-0.173 0.6271-0.0256 0.3245 0.0182 0.8284-0.0702 1.2689-0.1064 0.5273-0.4075 0.71-0.3326 0.9526 0.0847 0.2755 0.5246 0.2139 1.0802-0.3014 0.6149-0.5703 0.6588-1.9082 0.5031-2.4608 0.5609 0.6222 0.8649 2.1961 0.3703 3.1974 0.4851-0.2729 0.79-0.7822 0.9394-1.2417 0.219-0.6774-0.1058-1.2373 0.0401-1.7927 0.0587-0.2239 0.1724-0.227 0.2573 0.0486 0.0454 0.1472 0.0216 0.3591 0.0864 0.5742 0.0946 0.3106 0.1091 0.6845 0.0954 1.0183-0.0154 0.3701 0.1772 0.6534 0.4235 0.7063 0.0378-0.2964 0.0242-1.3197 0.861-2.0294-0.184 0.4317-0.2788 0.7907-0.2493 1.0682 0.0422 0.3948 0.484 0.6392 0.635 0.9967 0.101 0.2393 0.2778 0.2627 0.5231 0.2762 0.4289 0.0236 0.6133-0.1362 0.7136-0.2171-0.1172-0.0263-0.3523-0.2246-0.396-0.5502-0.0654-0.4896-0.058-1.1214 0.0016-1.4286 0.0339-0.1762-0.0721-0.2246 0.3716-0.7555 0.5206-0.6236 0.8082-1.2492 0.9091-1.407-0.4627-0.7747-0.279-1.5392-0.0608-1.9979 0.1378-0.2884 0.1365-0.6217 0.1526-0.9125 0.1775 0.3697 0.0997 0.8919 0.0153 1.3851-0.0919 0.5403-0.1535 1.3807 0.3153 1.8195-0.3621-0.7239 0.0194-1.9651 0.3007-3.0545 0.1181-0.4597 0.1359-0.7379 0.1359-1.087 0-0.5192 0.3483-1.0636 0.2386-1.6022-0.1066-0.5194-0.5084-0.796-0.5084-1.2716 0-0.3857 0.0303-0.6128 0.216-0.3611 0.0616 0.084 0.0899 0.2468 0.1913 0.4486 0.1052 0.2112 0.2979 0.5792 0.3542 0.6611 0.1466 0.2137 0.3668 0.0595 0.2104-0.2638-0.1682-0.3456-0.5731-0.9076-0.6042-1.1676-0.1325-1.0879-0.1728-2.0593-0.1728-3.1617 0.0057-0.2024-0.1849-0.7239-0.3981-0.6756-0.1947 0.0442-0.2166 0.2444-0.3653 0.3517-0.2743 0.1981-0.1576 0.3621 0.0453 0.6016 0.2079 0.2461 0.3006 0.6228 0.3006 0.9551 0 0.0909 0.0777 1.2299-0.2756 0.7451-0.0701-0.0963-0.0764-0.2236-0.1334-0.3005-0.073-0.0981-0.1964-0.1188-0.2931-0.2541-0.2189-0.307 0.1784-0.4138 0.2477-0.3157 0.1367 0.1936 0.3638-2e-4 0.0245-0.4581-0.2717-0.3655-0.6158-0.6388-0.6158-1.1724 0-0.1069-0.0865-0.2612-0.0865-0.3799 0-0.1304 0.2014 0.0477 0.1959 0.1424z" fill="#f00"/><path class="fil2" d="m34.667 90.428c-0.475 0.2511-0.8408 0.7349-0.3648 0.7636 0.1993 0.0119 0.4394-0.0093 0.1241 0.2618-0.1773 0.1524-0.4758 0.2956-0.554 0.4279-0.1975 0.3344-0.1611 0.7951-0.0062 1.1169 0.3016 0.6263 1.0809 1.0424 1.3072 1.7256 0.1592 0.4808 0.1845 1.0785 0.2435 1.6818 0.0353 0.3619 0.111 0.7316 0.1561 1.0633 0.0746 0.5495 0.3537 0.3263 0.336-0.0666-0.0174-0.3887-0.1307-0.7385-0.1825-1.0694-0.0807-0.5163-0.1083-0.988-0.2145-1.4967-0.0995-0.4767-0.2397-0.9751-0.6258-1.2966-0.282-0.2348-0.5846-0.4794-0.7029-0.8017-0.1374-0.3743-0.0813-0.584 0.0606-0.7248 0.2214-0.2195 0.5813-0.3637 0.8815-0.5195 0.1616-0.0838 0.2792-0.2222 0.1042-0.3568-0.3692-0.2839-0.8808 0.0034-0.3563-0.4493 0.2944-0.2541-0.0686-0.2595-0.2062-0.2595z"/><path class="fil2" d="m36.082 106.4c-0.2338-0.2339-0.281-0.6258-0.2004-0.9279 0.1194-0.4471 0.0611-0.82 0.0718-1.2622 0.0057-0.2379 0.1409-0.1579 0.2254 0.0037 0.0657 0.1256 0.0863 0.3304 0.0863 0.417 0.4523-0.5287 0.8589-1.3147 0.8958-2.0961 0.0252-0.5339 0.3712-0.7003 0.3712-0.1064 0 1.465-1.4303 2.6653-1.4501 3.9719z"/><path class="fil2" d="m36.35 101.65c-0.0038 0.6607-0.0519 1.4678-0.619 1.8768-0.3625 0.2614-0.7162 0.5245-0.9947 0.906-0.2499 0.3423-0.3601 0.6741-0.4982 1.031-0.2464 0.6366-0.3126-0.0257-0.217-0.3901 0.0409-0.1559 0.3201-0.8037 0.4483-0.9851 0.2357-0.3331 0.6049-0.5876 0.9034-0.8652 0.3097-0.288 0.663-0.5225 0.6718-0.976 0.0038-0.2 0.0254-0.4087 0.1204-0.6213 0.0867-0.1941 0.1866-0.2968 0.185 0.0239z"/><path class="fil2" d="m37.554 101.15c0.0238 0.233 0.2285 0.1771 0.3396 0.0538 0.0572-0.0635 0.0381-0.4673 0.0954-0.8251 0.0537-0.3348 0.2253-0.6197 0.2496-0.9579 0.0351-0.487 0.011-1.2243-0.0714-1.531-0.1243-0.4624-0.4123-0.2078-0.352-0.0303 0.1007 0.2966 0.1125 0.9134 0.1136 1.2605 0.0011 0.2887-0.1018 0.4899-0.1418 0.7436-0.0144 0.0916-0.0814 0.1496-0.2464-0.1253-0.0639-0.1064-0.2191-0.1309-0.2467-0.132 0.3714 0.6424 0.2064 1.0179 0.2601 1.5437z"/><path class="fil2" d="m29.174 109.26c-0.14 0.1337-0.3492 0.2674-0.7171 0.2779-0.1524 0.0044-0.2532 0.1149-0.4338 0.1881-0.1808 0.0731-0.4417 0.1091-0.6472 0.1177-0.4215 0.0175-1.0066-0.0944-1.2326-0.2337-0.4719-0.2911-0.7514-0.0065-0.5079 0.2318 0.0562 0.055 0.1629 0.0874 0.2754 0.1351 0.3789 0.1609 0.7536 0.2716 1.1633 0.3093 0.4424 0.0407 1.2245 0.0601 1.5996-0.0863 0.2881-0.1124 0.2836-0.293 0.6343-0.4318 0.3095-0.1226 0.3068-0.9287-0.134-0.5081z"/><path class="fil2" d="m32.042 122.77c0-0.3986 0.1748-0.3687 0.2355-0.0892 0.0893 0.4113 0.2168 0.9796 0.4236 1.5403 0.2657 0.7202 0.1754 1.4786-0.7327 1.5633-0.265 0.0248-0.4657-0.1766-0.2159-0.3997 0.2844-0.254 0.7805-0.2358 0.6552-0.8159-0.2161-1.0006-0.2483-0.7788-0.3657-1.7988z"/><rect class="fil3" x="8.2073e-5" y="148.5" width="210" height="65.625" fill="#f00"/></g>
</svg>
