<?xml version="1.0" encoding="UTF-8"?>
<svg version="1.0" viewBox="0 0 1200 700" xmlns="http://www.w3.org/2000/svg" xmlns:cc="http://web.resource.org/cc/" xmlns:dc="http://purl.org/dc/elements/1.1/" xmlns:rdf="http://www.w3.org/1999/02/22-rdf-syntax-ns#">
<metadata>
<rdf:RDF>
<cc:Work rdf:about="">
<dc:format>image/svg+xml</dc:format>
<dc:type rdf:resource="http://purl.org/dc/dcmitype/StillImage"/>
</cc:Work>
</rdf:RDF>
</metadata>
<g transform="translate(0 -285.04)">
<rect y="285.04" width="1200" height="700" fill="#fffbd3"/>
<g transform="matrix(.62901 0 0 .62901 365.49 369.23)" fill-rule="evenodd">
<path d="m566.43 565.71s8.9429 4.915 17.906 4.915c6.7015 0 12.683 0 14.914-4.915 3.7298-7.8968 4.4803-18.755 2.2414-28.615-2.9818-10.858-9.7036-20.711-15.667-30.591-6.7116-12.822-16.415-22.682-16.415-22.682l26.859-10.848s7.4621 10.848 14.176 22.702c5.2207 7.8867 10.452 16.771 14.184 26.632 3.7222 9.8628 8.1924 19.733 9.6935 29.603 0.7404 11.846-0.75051 22.685-4.4828 32.565-3.7197 8.8823-10.441 15.773-18.646 18.745-8.9606 2.9616-19.405 0.98552-30.589 0-10.454-0.98804-20.158-5.9131-20.158-5.9131l5.9738-31.567"/>
<path d="m497.02 315.06s-2.9818-14.798-2.9818-28.608c0-13.82-0.75051-26.642 2.2313-38.476 2.2414-11.826 8.2025-22.685 13.433-32.565 1.4909-2.9515 3.7323-4.915 6.7142-6.891 5.9611-2.9591 13.423-2.9591 19.394-6.9087 10.444-5.9131 21.638-12.822 29.841-21.707 7.4621-6.9087 12.685-16.772 13.433-21.707 0-0.97541-5.2207 4.9352-11.192 8.8848-7.4621 4.9352-14.927 10.848-20.898 12.822-2.2414 0.98804-3.7298-1.9635-1.4909-2.9616 5.2131-4.915 14.176-6.8885 20.898-12.822 10.434-9.8602 19.397-20.709 27.61-32.545 4.4702-5.9131 5.9611-14.795 9.7036-20.709 2.2288-4.9352 5.2106-7.9069 8.9429-10.848 2.9793-2.9616 8.2126-2.9616 8.2126-3.9598-2.2414-0.97541-8.9632-1.9635-14.927-0.97541-9.701 0.97541-18.647 2.9616-26.119 7.8867-5.9611 2.9616-10.434 9.8703-16.405 14.795-4.4803 3.9396-10.454 6.9113-14.924 10.848-7.452 4.9352-14.174 10.848-14.174 9.8729 0.7404-0.98805 9.701-9.8729 18.644-19.733 4.4727-4.9352 10.454-10.848 13.436-16.772 2.9818-4.9352 2.9818-11.844 0.7404-11.844-0.7404 0-4.4727 7.8968-11.194 13.817-8.2026 5.9131-18.647 9.8628-27.61 15.776-8.9429 5.9207-19.394 10.848-24.618 18.755-5.2207 6.8885-7.4621 15.773-8.2025 25.634-1.4909 10.848 3.7323 22.702 1.4909 33.561-1.4909 10.848-8.953 19.723-12.685 31.567-4.4702 13.8-9.701 27.63-11.192 41.43-1.4909 11.846 0.7404 23.68 2.9793 35.527 1.4909 13.8 6.7142 28.605 6.7142 28.605l14.174-19.733"/>
<path d="m406.71 33.833c2.9793-0.98552 5.9611-0.98552 8.953 0.97794 0.74798 0 1.4985 0.98804 2.2389 1.966 0.75051 0.98552 0.75051 1.9635 1.4909 2.9591 0 0.97794 0 1.966 0.75051 2.9616 0 1.966-0.75051 2.9515-0.75051 4.9175-0.7404 2.9591-2.2313 7.8968-5.2207 11.844 0.75051-0.98804 2.2389-0.98804 2.9894-1.9635 0.74041-0.98804 1.4909-0.98804 2.2313-2.9616 1.4909-0.98804 2.9818-2.9616 4.4727-4.9352 1.4884 2.9616 2.9894 4.9352 3.7298 6.9087 0.75051 0.98804 1.4909 1.9635 2.2414 1.9635-1.4909-2.9515-2.2414-6.9087-2.2414-10.846 0.75051-1.966 0.75051-3.9395 1.4909-4.9175 0.75051-1.9837 0.75051-2.9616 1.4909-3.9572 4.4702-5.9131 8.9632-5.9131 13.433-3.9395 0.7404 0 2.2313 0.98804 3.7323 1.966 0.74041-1.966 2.2313-3.9395 5.2106-5.9131 2.2414-1.966 5.9738-2.9515 9.7036-4.9352 3.7323-1.966 8.2026-3.9395 13.436-5.9131-8.2126 11.844-14.176 24.676-17.906 35.524-3.7323 10.838-5.2232 18.745-5.9636 23.663-0.75051 4.9352-0.75051 5.9207-0.75051 7.8968-17.906 2.9515-36.56 4.915-53.726 4.915s-34.331-2.9515-43.284-3.9395c-8.953-0.97541-10.454-0.97541-11.945-0.97541-0.75051-9.8729-2.2389-19.733-5.2207-28.618-3.7222-8.8823-8.2025-16.769-11.194-23.68-2.9818-5.9131-5.2207-9.8602-8.2025-14.795 8.2025 3.937 16.415 6.8986 21.646 9.8703 4.4727 2.9515 5.2232 4.915 6.7142 6.891 4.4702-2.9515 9.7036-3.9395 14.174-0.97794 0.7404 0.97794 1.4909 1.9635 2.2313 2.9515 0.75051 0.98552 1.4909 1.9635 2.2414 3.9572 1.4884 4.9175 1.4884 10.838-0.75051 15.773 0.75051 0 0.75051-0.97541 1.501-0.97541 0-0.98804 0.73788-0.98804 1.4884-1.966 0.7404-1.9837 1.4909-3.9572 2.9818-5.9308 2.2313 2.9616 4.4727 4.9352 5.9611 6.9087 1.4909 1.9635 2.9818 1.9635 3.7323 2.9616-1.4909-1.9635-2.2414-3.9395-3.7323-5.9333-0.7404-1.9635-0.7404-3.937-1.4884-5.9106 0-1.966-0.75051-2.9515-0.75051-4.9175 0-0.98552 0.75051-1.9837 0.75051-2.9616 0.74798-0.98552 0.74798-1.9635 1.4884-2.9616 3.7323-3.937 6.7142-4.915 11.194-2.9515 0.75051-2.9591 2.9818-6.9087 5.2207-10.846 1.4909-1.966 2.9818-3.9395 4.4727-5.9131 2.9818 3.937 5.2207 7.8867 7.452 10.848 1.501 2.9515 1.501 3.937 2.2414 5.9106" fill="#222"/>
<path d="m463.43 120.67c0.7404 0.97541 2.2313 2.9414 4.4702 3.937 2.2414 0.98804 5.2232 1.966 8.2126 0.98804 2.9818 0 6.7142-1.9837 8.9429-2.9616 2.9818-0.98804 4.4828-2.9616 4.4828 0 0 2.9616-2.2414 9.8602-5.9712 14.798-2.9818 4.9352-7.4546 7.8867-11.194 9.8602-3.7222 0.98804-6.7116 0.98804-9.7036-0.97794 0 2.9515-0.7404 5.9131-0.7404 11.826-0.75051 5.9131-0.75051 14.795-1.4909 22.702-0.75051 6.891-1.4909 13.8-2.9894 20.711-1.4909 6.9087-2.9818 14.795-5.2131 21.704-1.4909 7.8867-2.9818 14.798-5.2207 21.697-1.4909 7.8968-2.9818 13.82-3.7323 21.707-1.4909 7.8968-1.4909 16.771 0 23.68 0.75051 6.9113 4.4828 12.822 6.7116 16.772 2.9818 3.9395 4.4727 6.9087 6.7142 9.8703 2.2389 2.9515 3.7298 5.9131 5.9611 8.8646h-7.452-5.9636c0.7404 3.9572 2.2313 7.8968 4.4727 13.82 2.9818 4.9352 6.7116 10.848 11.194 16.771 2.9793-0.98804 5.9611-1.966 10.434-5.9131 3.7298-3.9395 8.9606-9.8729 12.683-15.794 4.4828-5.9131 7.4621-11.826 9.6935-14.798 2.2414-3.937 3.7323-6.9087 5.9712-9.8602 2.2313-2.9616 5.9636-6.9113 9.7036-10.848 4.4727-2.9616 8.2026-4.9352 9.7036-11.846 2.2313-5.9106 1.4909-16.769 2.2313-26.632 0.75051-8.8823 3.7298-15.794 8.9632-24.656 4.4702-8.8848 11.932-18.755 19.394-28.618 7.4546-8.8823 14.917-16.769 26.859-29.603 11.945-11.824 28.35-28.615 44.775-42.425 17.156-14.795 35.822-27.627 49.246-35.514 13.436-7.8968 22.399-10.848 32.103-11.846-2.9919 11.846-5.9738 23.68-9.6935 36.512-4.4828 12.824-10.454 27.63-14.186 37.49-4.4702 9.8729-7.452 16.782-11.192 22.705 5.9712-4.9352 12.683-8.8848 17.906-13.82 5.2207-3.9395 8.9606-8.8747 10.452-3.9395 0.7303 3.9395-1.4909 16.771-6.7116 31.569-5.9611 14.795-14.174 31.567-22.386 46.372-7.4621 14.798-14.927 28.615-18.657 36.502-3.7222 6.9113-4.4727 9.8729-3.7222 12.824 1.4909-2.9515 4.4727-5.9131 8.2126-8.8848 3.7222-1.9634 9.6935-4.915 14.917-8.8646 5.9712-3.9572 12.683-8.8722 18.664-13.82-2.2389 8.8747-4.4702 16.771-8.9632 25.656-4.4702 9.8602-10.441 19.731-16.405 27.627-5.2207 7.8892-11.202 14.798-17.166 20.711-5.9611 6.9087-13.423 12.822-19.405 17.757-5.9636 3.9395-11.194 6.9087-10.434 6.9087 0 0.97794 5.2106-0.98552 11.932-2.9591 7.4621-2.9616 15.675-6.9113 24.628-9.8628 8.2025-3.937 17.156-7.8968 26.119-11.844-2.9793 6.9087-7.4621 13.817-12.683 20.729-4.4828 5.9131-9.7036 11.826-17.906 19.723-8.2025 7.9044-18.667 17.767-26.869 23.68-8.9429 4.9352-14.914 6.9087-14.174 7.8867 1.4884 0.98552 8.9632 0.98552 17.166-0.97793 7.452-1.9635 15.665-5.9131 22.386-10.848 0.7404 0 0.7404 0 1.4909-0.98805l-0.75051 3.9598c-1.4909 3.937-3.7222 10.838-8.2025 18.745-4.4727 7.8867-11.194 14.795-18.646 21.707-8.943 3.937-17.906 8.8621-17.906 10.838-0.74041 1.9837 8.2025 0.98552 16.415 0.98552-11.194 6.9113-22.386 12.824-32.84 17.76-9.6935 3.937-17.906 6.8885-26.859 7.8867-9.6934 0.97541-19.397 1.9635-29.838 0.97541 7.452 8.8747 14.174 18.755 18.644 28.618 4.4727 9.8602 6.7142 20.709 8.2051 32.563 0.7404 11.836 0.7404 24.658 0 33.543-0.75051 9.8602-2.9818 15.773-4.4727 19.731-2.2414 3.9395-3.7323 5.9131-5.9712 8.8646-1.4909 1.9837-3.7222 5.9333-2.9818 7.9069 1.4909 2.9515 5.2207 3.9396 11.184 6.891 6.7116 2.9616 16.415 5.9308 24.628 8.8823 7.452 2.9616 14.174 3.9396 20.888 5.9333 5.9611 1.9635 11.192 3.9396 14.924 6.891 4.4702 3.937 6.7015 9.8703 8.953 18.745 2.2389 8.8823 4.4702 21.704 5.9611 36.512 1.4909 14.795 1.4909 31.567-0.7404 50.332-2.2414 19.72-6.7116 41.427-11.194 54.259-4.4702 13.82-8.9606 18.745-17.904 20.711-8.9455 2.9616-21.649 2.9616-33.583 2.9616-11.192 0.98552-21.646 1.9635-28.358 1.9635-6.704 0.98804-9.7036 0.98804-13.426 0.98804-4.4702 0-10.452-1.966-15.665-2.9616-5.2207-1.966-9.6934-3.9395-14.924-2.9616-4.4727 0-10.454 2.9616-14.924 6.9087-4.4727 3.9395-8.2025 8.8747-11.194 9.8628-2.2414 0-2.9818-4.9175-1.4909-12.814 2.2414-7.9069 6.7116-19.731 6.7116-21.707-0.75051-2.9616-6.7116 3.9395-11.192 9.8628-4.4727 4.9352-7.4621 8.8722-8.953 9.8501-1.4909 0.98805-1.4909-0.97794-1.4909-3.937-0.7404-2.9515-0.7404-6.891-0.7404-10.848 0-3.9396 0-7.8892 0.7404-11.836 0.75051-4.9352 1.4909-9.8501 4.4702-13.82 2.2414-4.915 7.4621-7.8867 11.205-9.8602 4.4702-1.9635 7.452-3.9396 8.1924-4.9352 1.501-0.97794 0-1.966-2.9818-0.97794-2.9793 0-8.2025 1.9634-13.423 5.9131-4.4803 4.9352-8.2025 10.848-10.454 12.822-2.2313 1.9634-3.7298 0-4.4702-4.9352 0-4.915 0.7404-10.838 1.4909-17.747 1.4884-5.9131 3.7298-10.848 6.7116-15.794 2.9793-3.9396 6.7116-7.8892 10.434-8.8747 3.7298-1.9634 7.4621-1.9634 11.192-1.9634 3.7323 0 6.7142 0 9.7036-0.97794 3.7323-0.98804 6.7116-3.9395 11.194-4.9352 3.7298-0.97794 8.2025-0.97794 12.683 0.98552 5.2232 1.966 10.454 3.9395 16.418 7.8867 5.2207 4.9352 10.452 9.8628 14.174 13.8 4.4803 3.9598 8.2025 6.9113 11.194 7.8968 2.9894 1.966 4.4803 1.966 6.7116 0 2.2414-1.9634 3.7298-5.9207 5.9712-11.844 1.4909-4.9175 2.9818-12.822 2.9818-18.745 0-6.9113-1.4909-12.822-3.7323-18.745-2.9793-5.9131-6.7116-11.846-11.192-15.794-4.4727-4.915-8.9531-8.8848-12.685-10.848-4.4702-0.97793-7.452-1.9634-8.9632-0.97793-2.2313 0.97793-2.9818 2.9515-2.9818 5.9131-0.73788 3.9396 0 8.8747-0.73788 9.8602-1.4909 0.98804-2.9818-2.9515-5.2232-4.915-1.4909-2.9616-2.9818-4.9352-5.9611-6.9087-2.2414-1.966-5.9738-2.9616-8.2126-2.9616-2.2414 0.98552-2.9818 2.9616-2.9818 6.9087 0 2.9616 1.4909 7.8867 2.2313 10.848 0.75051 2.9616 0.75051 3.9396 0.75051 4.9352-0.75051 0-1.4909 0-3.7323-1.9634-2.9818-1.9635-6.7116-5.9232-10.444-8.8747-3.7298-3.937-7.4621-6.9087-9.6934-8.8823-2.9793-1.966-3.7298-1.966-4.4702-1.966-0.75051 0.97793-1.501 1.966-1.501 4.9352 0 1.966 0 3.9395-0.73029 6.891 0 1.9635 0 4.9352-0.75051 5.9333-0.7404 0-1.4909-0.98804-3.7197-2.9616-1.4909-1.966-4.4828-5.9131-6.7142-8.8747-2.2389-3.9395-4.4702-7.8867-6.7116-10.858-1.4909-2.9515-2.2414-4.915-4.4727-2.9515-2.2389 2.9515-5.2207 8.8646-7.4621 13.81-2.2288 4.9352-2.9793 7.8867-4.4702 8.8747-0.7404 0-1.4909-2.9616-2.9818-7.8867-0.7404-4.9377-2.2414-10.848-4.4702-17.76-2.9818-7.8867-6.7142-15.794-8.9632-18.745-2.9818-2.9616-3.7222-0.98552-4.4727 0.97794-1.4909 1.9634-1.4909 4.9352-2.2313 8.8747-0.74798 2.9616-2.2389 7.8968-2.9894 10.848-1.4909 2.9616-2.2313 4.9352-2.9818 4.9352-0.7404 0.97794-1.4909-0.98804-2.2313-2.9616-1.4909-2.9515-3.7298-5.9131-6.7116-9.8602-2.2414-2.9616-5.9611-5.9131-8.9632-7.8867-2.2313-1.9862-3.7197-1.9862-5.9611-0.98804-2.2313 0-4.4727 0.98804-5.2232 2.9616-0.7404 1.9635 0 4.915 2.2414 7.8867 1.4909 3.937 4.4727 7.8867 6.7116 10.858 2.2313 2.9515 3.7323 4.915 5.9636 6.9087 1.4909 1.9635 2.9793 2.9515 2.9793 4.915 0.75051 2.9616-0.7404 4.9377-5.2106 9.8729-3.7323 4.915-11.194 10.838-19.407 19.72-8.953 7.8968-19.397 17.76-26.869 26.642-7.452 8.8848-11.932 15.776-14.914 20.711-5.0171 7.0491-9.8939 14.183-14.174 21.707-4.6272 6.9712-9.4336 13.802-14.166 20.709-10.6 10.281-23.83 12.516-38.041 12.812-12.572-0.3053-25.005-1.0702-37.257-4.2017-8.222-2.2426-16.349-5.0628-24.674-6.6365-13.479 0.73598-23.553 9.5673-35.041 14.768-0.7404 0-0.7404 0-1.4909-0.97794v-3.9395c1.4874-13.09 7.378-23.754 16.405-32.542 0.7404 0 1.4909-0.98804 2.2414-1.966 0.7404-0.98552 2.2288-1.9635-0.75051-1.9635-2.9818-0.98804-8.2025-1.9634-11.945 0-9.677 1.8766-16.173 12.255-23.107 18.705 0 0.97793-0.75051 0.97793-1.4909 0.97793 0 0-0.75051 0-0.75051-1.9634-0.7404-0.97794-1.4909-2.9515-2.2313-5.9131-2.2693-14.97 2.8189-26.056 14.907-34.528 6.7714-2.7249 8.9987-2.157 11.932-2.9414 2.2313-0.98805 2.2313-2.9616 2.2313-3.9396 0 0-0.7404-0.98804-2.2313-0.98804-2.9793 0-9.7036 0.98804-14.924 2.9616-2.2313 0.97794-4.4727 1.966-6.7116 3.9396-2.2313 1.9634-5.2131 3.937-6.704 5.9131-3.7298 3.937-5.2207 6.9087-6.7116 9.8602-1.4909-4.915-1.4909-8.8646-1.4909-13.8-0.78446-16.674 4.9446-30.982 22.369-35.486 1.4909-0.98552 2.9818-1.9635 3.7197-1.9635 1.4909 0 1.4909-0.98804 2.2414-0.98804h1.4909c0.75051-0.98552 1.4909-0.98552 2.9818-2.9616 1.4909-0.97541 2.2389-2.9515 3.7298-3.937 0.7404-0.97794 1.4909-1.966 2.2313-2.9515 0.75051-0.98804 2.2414-1.966 3.7323-2.9616 1.4909-0.98804 4.4702-0.98804 8.2126-0.98804 3.7298 0 8.9531 0.98804 13.433 1.9837 5.2131 0.97794 9.7036 1.966 14.174 3.9395 4.4727 0.97794 8.2126 3.9396 13.436 6.891 4.4702 2.9591 10.444 7.8968 14.174 10.848 4.9758 2.6635 9.1537 6.2225 13.416 9.8602 1.4909 1.9634 2.9894 2.9515 4.4803 3.9395 2.9818 1.9635 4.4727 1.9635 6.704-0.98804 1.4884-0.97794 2.9894-2.9515 4.4803-5.9131s3.7222-5.9131 5.2131-9.8602c1.4884-2.9616 2.9894-5.9131 5.2207-8.8848 1.4909-2.9616 4.4702-5.9131 5.9611-7.8867 1.501-1.9635 2.9919-3.9572 4.4828-5.9232 0.7404-0.97541 2.2313-2.9515 2.9793-4.915 1.4909-3.9396 0-6.9087-2.9793-9.8704-3.8481-6.5864-8.7161-12.699-13.426-18.727-0.75051-0.97541-1.4909-0.97541-2.2389 0-1.1097 5.0659-2.7748 10.188-5.2131 14.778-0.75051 0.98805-1.4909 0.98805-2.2414 0-4.0149-7.9608-8.4488-16.102-11.182-24.658-2.2414-5.9131-3.7323-9.8703-4.4727-14.795 0-3.9395 0-8.8848 0.74041-13.82-1.4909 0.98805-3.7222 1.9635-5.2132 2.9616-2.2389 0.97794-5.2207 2.9616-6.7116 1.9634-0.75051 0-0.75051-3.937 0.74041-10.848 1.4909-7.8867 4.4727-18.745 8.2025-28.605 4.4727-9.8703 9.7036-17.757 17.906-24.678 8.9429-7.8867 20.158-14.795 35.822-21.704 15.665-5.9131 35.072-10.858 47.014-12.824 12.685-2.9515 17.158-2.9515 21.638-2.9515-11.945-2.9591-23.877-5.9106-33.581-10.848-9.7036-3.937-16.415-7.8867-22.386-12.822-5.2232-4.9352-8.9632-9.8602-11.945-14.795-0.7404 1.9635-1.4909 3.937-2.2313 7.8867-1.4909 3.937-3.7298 8.8747-5.2207 13.82-4.4727 6.8885-8.2025 13.8-13.436 19.72-4.4702 5.9232-9.6934 10.848-15.665 15.794-9.7036 7.8867-20.137 14.798-31.329 19.733-11.205 4.915-23.887 7.8867-35.822 10.848 0.74041 7.8867 0 15.773-0.75051 23.66-1.4909 6.9113-2.9818 14.798-5.2106 19.733-1.501 5.9131-3.7323 9.8703-5.9738 11.844-2.2313 1.966-5.9611 2.9515-10.434 6.891-4.4803 2.9616-10.452 8.8823-17.176 11.844-7.452 2.9414-16.405 2.9414-22.386 0-5.9611-1.9635-9.6935-6.9087-11.194-12.822 4.4727 0.97794 8.9632 0 12.685 0 2.9919-0.98805 5.2207-1.9635 6.7116-2.9616 1.4909-0.97794 1.4909-0.97794 1.4909-3.937 0-2.9616 0-7.8867 1.4909-10.848 1.4909-3.9396 5.2207-5.9131 6.7116-8.8848 1.4909-2.9515 0.75051-5.9131-2.2313-3.9395-2.9894 0.98804-7.4621 6.9113-11.192 11.846-2.9919 3.9395-5.2232 7.8867-8.9632 9.8602-3.7323 2.9616-8.9429 4.9352-12.685 4.9352-3.7298 0.97794-5.9611-0.98552-8.2025-0.98552-1.4909 0-3.7298 1.9635-5.9611 2.9616-2.2414 0.97541-5.2232 0.97541-8.2025 0-3.7323-0.98804-6.7142-2.9616-8.9632-4.9377-2.2313-1.9634-3.7222-4.9352-4.4727-9.8602-0.27212-1.8138-0.44422-3.7597-0.51632-5.6916 0.010612-5.1129-0.35529-10.717 2.7577-15.027 1.0822 2.1928 2.4601 4.6876 4.2464 6.6599 3.4432 3.4828 8.3529 6.0604 12.899 3.1902 1.4909-0.98552 3.7323-3.937 5.2232-5.9106 2.2115-1.98 3.7447-4.0618 6.4173-5.4163 4.4825-2.1857 9.7451-3.8058 12.492-5.5556 0.41711-0.26569 0.82429-0.5523 1.2255-0.85436 0-0.75455-0.44079-1.5151-0.98691-1.8232-0.38507-0.14652-0.76255 0.02614-1.1316 0.2674-5.0352 2.1689-9.914 4.5927-15.027 6.4708-1.4909 0-2.9818 0-4.4702-0.98552-1.4909-0.97794-2.9818-2.9515-4.4727-3.9396-2.9818-2.9515-4.4803-2.9515-6.7116-2.9515-1.4909 0-2.9818-0.98804-3.7323-0.98804h-2.2313-2.9894c-2.2313-0.98552-2.9818-1.9635-5.2131-3.937-2.4369-2.574-3.9181-5.5729-4.8615-8.9948-1.7322-6.2395-1.5431-13.032 1.8721-18.625 0.82018 1.2252 1.5971 2.3336 2.4789 3.2968 3.7927 4.2771 10.119 6.8468 14.656 8.5137 1.0279-0.02546 1.6433-0.16855 2.2519-0.97242 0.75051-0.98552 0.75051-1.9634 0.75051-3.937-8.2051-3.9598-16.418-8.8747-23.88-14.798-6.7116-4.9352-13.433-10.848-18.664-17.757-5.2131-5.9131-8.9429-12.824-12.685-19.733-3.7222-6.9087-5.9611-13.8-7.4528-21.707-2.2414-8.8646-2.9818-16.769-2.9818-25.654v-192.42h63.433c0.75051-2.9591 2.2389-5.9106 4.4803-7.8867 2.2313-2.9616 4.4727-3.937 7.452-4.9352 2.9818 0 7.4546 0 10.434 1.966 1.501-2.9616 3.7323-4.9377 5.9738-4.9377 2.2288-0.97541 5.2106-0.97541 8.2126 0 3.7197 0 7.452 0.98804 8.9429 0 0.74799-1.9635-1.4909-3.937-3.7323-5.9106-2.9818-0.97794-5.2106 0-7.452 0.98551-2.2414 0-4.4727 1.966-5.9636 1.966-1.4884 0.97541-2.9793 1.9634-4.4702 0.97541-1.501 0-2.2414-0.97541-2.9919-1.9635-0.7404-0.97794-1.4884-2.9515-1.4884-4.915-2.9818 0.97541-5.2131 1.9634-8.2051 3.937-2.2288 1.966-3.7197 3.9396-5.9611 6.891-1.4909-2.9414-2.2313-4.9175-2.9818-6.891-1.4909-2.9616-1.4909-5.9232-1.4909-8.8747 0-3.937 1.4909-6.9087 2.9818-10.846 1.4909-2.9616 3.7323-4.9377 7.452-7.8892 2.9919-1.9634 7.4647-4.9352 12.695-6.9087 5.2106-1.9635 10.444-3.9396 15.665-3.9396 5.2207-0.98551 8.943 0 12.685 0.97794 3.7298 1.966 6.7116 4.9352 8.2025 5.9232 1.4909 0 2.2288-2.9616 2.9793-4.9352 0.7404-1.966 0.7404-3.9396-1.4884-4.9352-1.4909-1.966-5.2232-1.966-8.2126-1.966-3.7323-0.97541-5.9636 0-7.4546 0h-3.7298c1.4909-4.9352 4.4702-9.8602 8.953-13.8 4.4803-2.9591 9.6934-3.9572 13.433-3.9572 4.4727-0.97794 6.7116-0.97794 9.7036 0 2.9818 0.98805 5.2207 2.9616 7.452 4.9352 2.9818 1.9635 5.2232 2.9616 7.4621 5.9131 1.4909 0 3.7222 0.98804 5.9636 1.9634 2.2389 0.98805 5.2207 1.966 6.7116 3.9598 2.2313 0.97541 3.7222 3.937 4.4702 5.9131 1.4909 2.9515 1.4909 4.915 1.4909 8.8823 0.75051 3.9395 0.75051 8.8646 0.75051 13.8 0.74041 4.9352 0 10.848 0 15.794 0 4.915 0 7.8867 1.4909 11.836 0.7404 2.9616 2.9818 5.9131 5.9611 8.8722h78.356c0.75051-3.937 2.2414-8.8722 5.2232-11.824 2.2389-2.9616 6.7116-4.9352 10.452-6.9113-5.2207 0.97793-10.452 0.97793-15.675 0.97793 6.7116-6.8885 13.436-12.822 20.158-17.747 6.7116-4.9352 13.423-8.8747 17.906-14.798 5.2106-4.9352 8.9429-11.844 11.192-16.779 2.2313-4.9175 2.9818-8.8646 3.7222-13.8 0.75051-4.9377 0.75051-11.826-1.4909-14.798-1.4909-3.937-5.2207-4.9352-8.2025-4.9352-3.7222 0-6.7015 1.9634-10.444 1.9634-3.7298 0.98805-8.2025 1.966-12.683 0.98805-4.4727 0-9.7036-2.9616-13.436-4.9352-4.4702-2.9515-8.9429-6.9113-11.932-9.8602-2.2414-2.9616-3.7323-5.9131-4.4828-7.8892 3.7323 0 7.4621 0.97794 11.194 0.97794h12.685c4.4803-0.97794 7.4621-1.9634 11.192-2.9616 3.7323-0.97541 7.4621-1.9634 9.7036-2.9515 2.2414-0.98551 3.7323-1.9634 3.7323-1.9634-0.7404-0.98805-2.2313-0.98805-5.2232-1.9635-2.2313 0-5.9611 0-9.6934 0.97541-4.4702 0-9.7036 0.98805-15.665 1.966-5.9611 0.98551-12.685 1.9634-17.906 1.9634-5.2106-0.97794-9.6935-1.9634-14.174-4.915-4.4727-2.9616-8.9429-6.9113-12.685-11.846-3.7298-4.915-5.9611-11.834-7.452-17.747-1.4909-5.9232-1.4909-10.848 0-11.846 0.7404-0.97541 3.7222 0.98805 7.452 3.9396 2.9818 2.9616 7.452 6.8986 11.194 10.848 3.7298 3.937 7.452 6.9087 12.683 7.9069 5.9636 0.97541 12.685 0.97541 19.397 0.97541h17.906c5.9636 0 10.444 0.98805 14.176 0.98805 2.9793 0 4.4702-0.98805 4.4702-1.9635 0-1.9837-2.2313-3.9598-5.9611-5.9333-3.7323-1.9635-8.9429-3.9396-14.176-3.9396-5.9611 0-11.192 1.966-16.415 2.9616-5.2207 0.97794-10.444 1.966-15.665 2.9515-4.9676-15.745 8.1142-29.532 22.369-34.498 2.9793-0.98805 6.7116-0.98805 11.192-1.9635 4.4727 0 10.444-0.98804 15.665 0 2.2414 0.97541 3.7323 1.9635 4.4727 3.937 1.4909 1.966 1.4909 3.9396 2.9919 10.848 0.7404 6.891 2.2288 18.745 3.7197 21.697 0.75051 1.9634 1.4909-5.9131 1.4909-11.834 0-6.9113-0.7404-11.826-1.4909-15.794-0.7303-3.9395-1.4909-6.891-2.9793-8.8646-1.4909-1.9837-3.7323-3.9598-5.9636-5.9232 2.2313-5.9131 6.7116-11.836 12.685-16.771 5.9611-3.937 14.174-5.9131 22.386-6.8986 8.2025-0.97794 17.906 0 26.859 0.98552 8.9632 1.966 18.657 3.9395 28.36 6.9113 8.943 2.9515 19.394 6.9087 26.859 9.8602 7.452 2.9616 12.683 4.9352 17.904 6.9113 5.9636 1.9635 11.935 2.949 15.667 0 4.4702-2.9616 6.7116-11.846 8.953-11.846 1.4909-0.97794 2.9793 5.9333 2.9793 10.858 0 4.9352-1.4884 7.8968-3.7298 11.844-2.2414 3.9396-5.2232 7.8867-10.454 10.848-5.2106 2.9515-11.194 4.9175-15.665 5.9131-4.4727 0.97794-6.7116 0.97794-8.953 0"/>
<path d="m391.78 36.784v3.9395c0.75051 1.9837 0.75051 3.9572 1.4909 5.9232 0-0.98804-0.74041-1.966-1.4909-2.9616-2.9793-2.9616-6.7015-6.9087-9.6934-4.9352-0.7404 0-1.4884 0-2.2288 1.9635-0.75051 0.98804-0.75051 1.9837-0.75051 3.9598 0.75051 3.937 2.9793 8.8621 6.7116 14.795 0-1.9635-0.74041-3.9395 0.7505-6.9087 1.4909-0.98804 2.9818-0.98804 4.4702 0 2.2313 2.9591 2.2313 6.9087-0.74798 10.848-1.4909 2.9515-3.7222 2.9515-5.9636 2.9515-3.7298 0-8.2025-1.966-13.433-7.8892-0.74041 0.98804-0.74041 1.966-1.4909 2.9616-4.4727 3.9395-8.9429 5.9131-13.426 3.9395-2.2389-0.98804-4.4803-3.9395-5.9712-5.9131-0.7404-0.98804-0.7404-1.9635-1.4909-2.9616 0-0.97794-0.7303-2.9616 1.4909-4.9352 1.4909-0.97794 4.4828-0.97794 6.7116 1.9635 0.75051 1.9862 1.4909 4.9377 0.75051 6.9113 3.7222-4.9175 4.4727-10.848 2.2313-15.773 0-0.98804-0.7404-1.966-0.7404-2.9616-2.9818-3.9395-5.9712-2.9616-8.953-0.98804-0.7404 0-1.4909 0.98804-2.2313 1.9837-2.2389 0.97794-3.7298 2.9515-4.4803 4.9175 0-1.966-0.7404-4.9175-0.7404-6.9113-1.4909-2.9515-2.2414-3.937-5.9611-6.8885-1.4909-0.98804-4.4828-1.966-6.7142-2.9616 4.4727 7.8867 8.953 16.771 11.935 25.654 2.9919 7.8867 4.4803 16.771 5.9712 25.654 16.405 1.966 32.82 4.9377 49.246 4.9377 16.418 0 32.843-2.9616 49.248-4.9377 1.501-8.8722 2.9894-17.757 5.9712-25.654 2.9818-8.8747 7.452-17.757 11.935-25.654-2.2313 0.98552-5.2131 1.9635-6.7142 2.9616-2.2288 1.9635-2.9793 2.9515-3.7197 3.937-0.75051 0.97794-1.4909 1.966-2.2414 2.9515 0 1.9837-0.7404 4.9352-0.7404 6.9113-0.75051-0.97794-1.4909-1.966-2.2414-2.9515-2.9793-3.9598-8.2025-7.8968-11.942-3.9598-0.7404 0-1.4909 0.98804-1.4909 1.9837-2.2313 2.9515-2.2313 5.9131-1.4909 9.8628 0 2.9616 0.75051 4.9352 2.2414 7.8867 0-2.9515 0-4.9175 2.2414-7.8867 2.2288-0.98804 4.4702-1.966 6.7015 0 1.4909 1.9635 0.75051 4.9352-1.4909 7.8867-0.7404 0.98552-0.7404 0.98552-1.4909 1.9635-5.2207 4.9352-9.7036 4.9352-14.914 0.98804-1.501-1.966-2.9919-2.9616-3.7323-4.9352-2.9793 2.9616-5.2207 4.9352-8.2026 6.9087-3.7298 0.97794-6.7116 1.9635-10.454 0-2.9793-3.9395-3.7197-6.9087-2.2288-11.844 0 0 0-0.97794 1.4909-0.97794 0.73787-0.98804 2.2389-0.98804 3.7298 0 0.7404 1.9635 1.4909 3.937 0.7404 6.9087 1.4909-2.9616 2.9818-4.9352 4.4727-7.8968 0-0.97794 0.74798-1.9635 1.4884-2.9515v-3.937c0.75051-1.966 0.75051-2.9616-0.74041-4.9377-2.2389-2.9591-4.4702-1.9635-7.452 0-2.2389 1.966-4.4803 4.9377-5.2207 6.9113 0.7404-1.9635 0.7404-3.9395 1.4909-5.9232v-3.937c-0.75051-1.966-0.75051-2.9515-1.4909-4.9175-0.75051-0.98552-2.2414-3.937-3.7323-5.9308-1.4909 1.9837-2.9793 4.9352-3.7298 5.9308-0.74041 1.966-0.74041 2.9515-1.4909 4.9175" fill="#fff101"/>
<path d="m301.47 295.33v186.49c0 6.9087 0 12.822-1.4909 19.731-1.4909 5.9131-4.4702 12.824-7.452 19.733-3.7323 6.8885-7.452 12.812-11.945 18.745-4.4702 4.915-9.6909 9.8602-14.174 14.795-8.953 5.9131-17.906 11.826-27.61 16.771-10.444 4.9352-21.636 8.8848-32.83 10.858-11.194 1.9634-23.137 2.9515-35.072 2.9515-11.942 0-23.877-1.9635-35.082-3.9396-11.192-2.9515-21.636-6.9087-30.579-11.824-9.7036-4.9377-17.916-10.848-25.378-17.76-7.452-6.9087-13.426-13.8-17.906-20.709-5.2131-7.8867-8.1924-15.794-10.444-24.678-2.9818-8.8621-3.7298-17.747-3.7298-27.627v-183.53h253.75" fill="#ec2a32"/>
<path d="m266.42 435.5c2.3168-11.874 6.1567-25.218 10.423-36.537 5.1442-11.549 11.299-22.749 17.906-33.543-7.387 4.375-18.269 10.435-20.148 19.723-1.885-7.188-9.1834-9.4919-16.626-6.4826-5.3848 2.9018-7.928 8.8508-8.7984 14.65-0.08108 1.864 0.07585 3.7737 0.07585 5.6024 2.0004-2.478 4.0035-4.9986 5.9591-6.7138 1.9798-1.9324 4.1305-2.4505 6.6675-1.6968 4.143 1.8411 3.2379 6.7636 2.2876 10.384-1.6535 6.7622-7.1965 12.435-13.556 15.172-4.3447 1.6813-9.163 1.4181-13.756-0.43565-3.1098-1.283-5.7144-3.4151-7.7812-6.2334-2.954-4.3657-4.1533-9.1595-2.1897-14.414 1.445-2.1326 3.179-2.817 4.8238-2.5979 2.5674 0.34195 4.9173 2.8851 5.61 5.557 2.1742-2.7554 2.9217-6.3078 2.4331-9.6596-0.77761-3.7438-2.7343-7.1012-8.2516-7.182-2.7527 0.27717-4.2237 1.788-6.1038 4.0399 0.66512-5.7972-3.7061-11.551-5.9636-16.761-1.4928 4.6503-7.0699 11.771-4.4803 16.761-2.2973-1.674-3.5055-3.4928-7.6564-3.4999-8.1908 2.1727-8.4013 11.573-4.4477 17.536 0.89663-3.4669 2.6666-7.0848 7.8166-5.5472 4.1564 1.4489 2.7965 6.6034 2.7965 10.236-1.3649 5.0154-3.5837 11.362-7.7991 14.265-5.518 3.1082-11.623 1.8698-15.711-2.6651-2.6408-3.6447-3.9118-8.2624-5.0021-12.567-1.0086-4.8302-1.0188-10.009-1.3086-14.826v-37.49h17.906v-17.757h-17.906v-23.68h-17.906v23.68h-17.906v17.757h17.906v37.49c-0.08315 6.9604-0.65492 13.989-2.5276 20.71-1.126 3.7765-4.346 7.7733-7.7617 9.6829-5.7297 2.6986-11.169-0.16323-14.75-4.7194-2.1146-2.9536-3.3841-6.5579-4.4407-9.982-0.80604-3.9344-0.98355-8.8415 3.1159-10.72 3.6591-1.1459 5.8692 2.4297 6.9766 5.8967 2.1957-2.7179 3.1413-5.6858 2.9818-8.8747-0.24949-4.0447-3.4479-7.029-7.4721-7.8878-2.6973-0.24656-4.7323 1.3002-6.6916 2.9728 0.37436-6.0887-2.6284-11.468-5.2232-16.761-2.0529 5.534-5.9611 10.692-5.9611 16.771-1.6166-2.7233-3.339-3.7672-6.4798-3.9532-3.311 0.35268-5.1604 2.6251-6.5664 5.4055-1.5876 3.7253-0.64229 7.4986 1.1113 11.349 0.7328-3.9441 3.5922-6.888 7.4621-5.9131 4.0888 2.5804 3.7222 6.6129 3.7222 10.831-0.35957 3.7011-3.5922 8.4741-7.6853 11.283-7.8727 4.5614-16.648 2.8011-23.626-2.4106-3.4716-3.6568-6.1299-7.8966-7.4621-12.792-0.39067-4.5208 0.19249-8.6819 5.2232-8.8646 5.0826 0.45936 7.6232 5.1542 10.441 8.8545 1.0269-6.8279-0.74876-12.999-5.587-18.263-3.7841-2.5926-7.6276-3.9165-12.105-3.0347-3.651 1.1406-6.4007 3.9618-7.6565 7.4881-0.75051-1.9837-1.501-3.9572-2.2414-4.9352-0.85108-1.1227-1.703-2.2496-2.6956-3.3778-4.1366-4.9765-9.7498-8.0936-15.2-11.4 4.4727 6.9113 8.2126 13.8 11.945 20.711 6.4729 12.356 10.578 25.652 14.518 38.961 2.3035 8.183 2.6278 16.659 2.6278 25.141 60.45 0.97541 121.65 0.97541 182.11 0" fill="#fff101"/>
<path d="m83.55 477.88h182.1v-22.682h-182.1v22.682z" fill="#fff101"/>
<path d="m173.85 501.56 18.647-7.8968-10.434 30.591c10.111-4.0404 20.877-7.2005 30.591-11.826l-8.2025 18.725 8.2025 18.735-30.591-11.824 11.184 30.569-18.631-7.1887-18.672 7.1887 11.945-30.569-31.35 11.824 7.452-17.757-7.452-18.725 30.589 10.848s-11.945-30.591-11.194-30.591" fill="#fff101"/>
<path d="m161.91 272.62c1.4884 3.9572 1.4884 8.8823 2.2389 10.856 0.7303 0.98805 2.2313 0.98805 2.9818 0 0.75051-2.9515 0.75051-6.8885 1.4909-9.8602 1.4909-2.9616 3.7298-4.9352 3.7298-6.8986 0.74041-3.9396 0.74041-8.8848-0.74798-12.824-1.4909-2.9515-3.7222-4.915-4.4727-2.9515-0.75051 0.97793 1.4909 6.891 0.75051 10.848-0.75051 2.9515-2.2414 5.9131-3.7323 5.9131-1.4909 0-3.7298-4.9352-4.4702-5.9131-1.4909 0-2.9919 2.9515-2.2414 4.9175 0.75051 1.9634 3.7323 2.9616 4.4727 5.9131" fill="#fffdfd"/>
<path d="m184.3 249.93c1.4909 0.98804 2.9818 3.9395 4.4803 6.9087 2.2313 1.966 3.7222 3.9395 5.2131 3.9395 1.4909-0.98804 3.7298-3.9395 5.9712-5.9131h2.2313c0.75051 2.9515 0 6.9113-1.4909 9.8628 0 1.9634-2.2313 3.937-2.2313 4.9352 0 2.9414 2.2313 5.9131 3.7222 8.8722 1.4909 2.9515 3.7298 4.9175 3.7298 5.9131 0 0.97794-2.2389 0.97794-3.7298 0-5.2207-6.9087-10.444-14.795-14.924-22.682-2.9818-3.9598-5.2131-7.8968-6.704-11.846 0-0.97794 2.2313-0.97794 3.7222 0" fill="#fffdfd"/>
<path d="m117.13 282.5c1.4909-0.98804 3.7298-0.98804 5.9611-0.98804 0.7505 0.98804 1.4909 1.9634 2.2414 2.9616 0.75051 0.97793 0.75051 1.9634 0.75051 1.9634h-10.454s0-2.9616 1.4909-3.937" fill="#fffdfd"/>
<path d="m135.79 277.56c1.4985 0.98551 2.9894 2.9616 3.7298 3.937 0.75051 1.966 0 4.9352 0 4.9352h-3.7298s-2.2313-4.9352-2.2313-7.8867c0-0.98551 0.74041-0.98551 2.2313-0.98551" fill="#fffdfd"/>
<path d="m115.64 251.9c1.4909-2.9414 4.4727-3.937 5.2207-3.937 0.7303 0.98552 0 3.937-1.4884 5.9131-2.2414 2.9591-4.4828 4.9352-5.2232 3.937-1.4909-0.97794-0.75051-3.937 1.4909-5.9131" fill="#fffdfd"/>
<path d="m133.56 252.9c-0.75051-2.9616 0-6.9087 0.74041-9.8703 0.75051-1.966 2.2414-3.9395 3.7298-5.9131 0.75051-1.966 2.2414-2.9515 2.2414-2.9515 0.74041 1.9635 0.74041 5.9131 0 8.8646 0 1.9635-2.2414 2.9616-2.2414 4.9352 0 0.98552 0.75051 1.9635 1.4909 3.937 0 0.98804 1.4909 2.9616 0.75051 2.9616 0 1.966-2.2414 2.9515-3.7298 1.966-1.4909 0-2.2414-1.966-2.9818-3.9396" fill="#fffdfd"/>
<path d="m173.85 231.18c0.74041-1.9634 2.2313-3.937 3.7222-4.9352 2.9894-0.97794 6.7116-0.97794 8.2025-0.97794 0.75051 0.97794-0.7404 1.966-2.2313 2.9515-2.2414 0.98805-4.4702 0.98805-5.2207 1.966-0.75051 0.98552 0 3.9572-0.75051 5.9308 0 0.97794-0.7404 1.966-1.4909 1.966-0.7404 0.97541-2.2313 0.97541-2.2313 0-0.75051-1.966-0.75051-4.9377 0-6.9113" fill="#fffdfd"/>
<path d="m163.39 214.41c1.4909 0 3.7323 1.966 2.2414 1.966-1.4909 0.97541-7.452 0-7.452 0s2.9818-1.966 5.2106-1.966" fill="#fffdfd"/>
<path d="m427.6 177.9c-0.7404-7.8867-0.7404-14.795 0-14.795 0.75051 0 1.4909 9.8602 5.2232 15.794 0.73788 1.9635 2.9793 0.97541 3.7197 0 3.7323-5.9232 5.2232-14.808 5.2232-14.808 0.74798 1.9837 0 10.848-1.4909 19.733-0.7404 6.9087-1.4909 13.82-4.4727 19.733-1.4909 4.9352-5.9611 7.8867-5.9611 7.8867s-2.2414-16.772-2.2414-33.543" fill="#fffdfd"/>
<path d="m408.2 260.79c0.75051 8.8848 1.4909 17.757 3.7323 18.745 1.4909 0 2.9818-9.8526 7.452-17.747 0.75051-1.9862 2.9818-3.9598 3.7323-1.9862 0.7404 3.9598 0 12.824 0.7404 21.707 0.75051 2.9616 1.4884 5.9131 2.2389 4.9352 1.4909-4.9352 2.2414-14.795 3.7323-24.656 1.4909-8.8747 3.7222-17.76 5.9611-27.63 0-1.9837 0.7404-3.9572 0-2.9616-0.75051 0.97793-5.9611 17.767-9.7036 20.709-1.4884 0.98804-0.74798-10.848-2.2389-10.848 0 0-2.2313 5.9131-5.2131 9.8729-1.4909 1.9634-3.7298 2.9515-3.7298 0.97541-3.7323-16.769-4.4727-37.49-4.4727-37.49s-2.9818 22.685-2.2414 46.375" fill="#fffdfd"/>
<path d="m352.97 224.28c-7.452 13.817-18.647 25.654-18.647 25.654l37.313-11.836s-0.75051 7.8892-2.2414 16.772c-0.74041 3.9395-2.2313 7.8867-2.2313 7.8867s8.2025-1.9635 14.176-7.8867c8.2025-7.8968 15.665-16.772 20.135-23.68 0.75051-1.9634-6.7116 0-6.7116 0s-12.683 18.745-15.665 16.771c-1.4909 0 2.9818-12.822 2.9818-21.707 0-0.97794-2.2313-0.97794-3.7222-0.97794-10.454 4.9175-20.898 12.822-23.877 12.822-0.75051-0.98551 3.7197-6.9087 4.4702-13.817 2.9818-11.826 3.7222-24.658 3.7222-24.658s-3.7222 13.8-9.7036 24.658" fill="#fffdfd"/>
<path d="m329.84 265.72 2.9793 23.68 20.137-14.795 1.501 18.745 33.581-29.593 7.452 38.476v6.891s-5.2207-7.8867-8.2025-15.773c-2.9818-7.8968-1.4909-17.76-3.7323-16.771-14.914 6.891-37.301 34.518-37.301 34.518l-0.75051-24.658-19.407 19.733v-35.527l-8.2025-2.9515 11.945-1.9635" fill="#fffdfd"/>
<path d="m311.17 340.71 11.194-4.915-11.194 30.579 49.256-34.518-10.454 43.403 42.544-36.505 2.2313 27.63 2.9919 2.9616 17.896-23.68s6.7116 10.848 16.415 15.794c7.4621 2.9515 16.415 3.937 19.407 0.97793 1.4884-0.97793-2.9818-5.9131-5.9636-10.848-2.9818-3.9396-5.2207-8.8747-5.9611-7.8892 0 0 4.4702 7.8892 2.9793 10.848-1.4884 1.966-5.2207 1.966-8.2025-0.98552-10.452-9.8628-18.654-23.66-18.654-23.66l-16.408 28.605-0.74798-37.49-36.563 37.49 11.192-43.423-47.014 33.553 17.156-30.591s-6.7015 4.9352-14.914 7.8867c-8.2025 2.9616-17.166 3.9598-17.166 3.9598v10.838" fill="#fffdfd"/>
<path d="m405.97 309.14c3.7197 10.848 10.441 19.731 10.441 19.731l2.9818-15.794 11.194 15.794 1.4909-19.731 10.452 4.9352-10.452-18.745-4.4727 19.723-10.434-9.8628-2.9894 11.846-10.434-28.615-2.2414-1.966s0.75051 11.836 4.4803 22.685" fill="#fffdfd"/>
<path d="m329.09 403.88 17.906-14.798-4.4727 49.326-2.2414-33.54-17.906 7.9069s0-13.82 2.9919-26.652c2.2313-10.848 8.943-20.711 8.943-20.711l-5.2207 38.478" fill="#fffdfd"/>
<path d="m323.12 424.6c2.9818-1.9634 4.4727-3.937 5.9636-3.937 2.2414 0.97541 3.7298 4.9352 3.7298 6.9087 0 0.97793-2.9793 0-5.2207 0-2.2313 0.97793-4.4727 0.97793-5.9611 1.9634-5.2232 2.9515-10.454 4.9175-10.454 4.9175v-5.9131s5.9712-1.966 11.942-3.9395" fill="#fffdfd"/>
<path d="m366.4 438.4c2.9818 2.9616 10.454-20.709 10.454-20.709s4.4727 18.745 7.452 20.709c2.2414 0.98804 2.2414-15.773 2.2414-15.773l4.4727 3.9395-4.4727 31.567s-5.9712-7.8867-9.7036-16.771c-2.2414-4.9352-2.2414-10.848-2.9894-9.8602-1.4909 0-4.4727 14.795-7.4546 15.773-2.9793 0.98552-5.9611-4.915-7.452-11.836-2.2414-5.9131-1.4909-11.844-0.75051-17.757 0.75051-6.9087 4.4727-13.8 4.4727-13.8s-0.7404 30.581 3.7298 34.518" fill="#fffdfd"/>
<path d="m394.76 410.77c12.693 15.794 32.1 26.649 32.1 26.649s-0.75051-12.822-3.7298-25.654c-0.75051-3.9395-1.4909-8.8747-3.7323-11.826-2.9818-2.9591-5.9611-4.9352-9.7036-6.9087-3.7197-0.98804-8.2026-1.9634-8.2026 0 0 1.9635 5.2232 5.9131 8.9632 10.848 3.7222 5.9131 6.7116 12.822 5.9611 13.8-0.75051 0.98804-5.2207-1.9635-9.701-6.9087-8.2051-7.8892-14.176-16.772-14.176-16.772s-2.2414 10.848 2.2313 16.772" fill="#fffdfd"/>
<path d="m423.87 376.25c11.192-1.9634 22.386-6.9087 23.887-8.8722 0 0-10.454 1.9635-20.158 4.9352-13.433 1.9635-26.859 4.915-26.859 4.915s11.935 1.9634 23.129-0.97794" fill="#fffdfd"/>
<path d="m455.96 421.62s-2.9818-9.8602-8.1924-17.747c-3.7323-5.9131-10.454-9.8703-10.454-9.8703 2.9818-1.966 12.683 0 18.646 5.9207 5.9712 4.9175 8.2025 13.8 11.942 21.697 2.2414 6.9113 2.9818 14.798 2.9818 14.798s-11.194-1.9635-20.137-6.891c-6.7116-3.937-13.433-8.8722-18.664-13.817-2.2313-2.9515-3.7222-6.9113-4.4727-10.858-0.74041-5.9131 0.75051-12.824 0.75051-12.824l27.6 29.593" fill="#fffdfd"/>
<path d="m459.7 378.22c11.945-3.9395 22.389-13.82 32.84-22.705 5.2131-4.915 7.4546-12.822 11.935-18.745 2.2414-4.915 4.4727-9.8602 8.2126-13.8 2.9818-4.9352 5.9611-8.8823 9.6934-11.844 6.7116-2.9515 14.924-2.9515 14.924-2.9515s-1.4909-8.8848-0.75051-17.757c1.4909-8.8848 2.9818-17.77 5.9738-26.634 2.2288-5.9308 5.9611-11.844 8.9531-17.757 3.7298-6.9087 5.9611-13.82 9.6909-20.709 5.9636-7.8968 14.176-13.82 20.898-21.707 5.2207-6.8986 10.454-13.82 15.665-19.733 8.9632-8.8823 17.166-17.747 26.119-25.654 6.7116-5.9131 14.924-11.826 22.379-16.772 19.405-13.81 39.562-27.627 39.562-27.627s-14.924 4.9352-27.61 13.817c-11.942 6.891-22.386 14.798-32.84 23.683-8.953 7.8867-17.156 15.773-25.368 23.66-9.7036 9.8703-19.397 19.731-29.101 30.589-7.452 8.8848-15.665 16.772-21.646 25.656-5.2131 9.8602-8.953 19.731-12.685 30.589-2.2288 7.8867-3.7197 16.771-4.4702 25.636-0.7404 8.8722 0.75051 17.757 0.75051 17.757s-8.9632-0.97794-14.924 1.9635c-4.4727 2.9616-6.7142 8.8848-9.6934 13.82-3.7323 4.915-6.7142 10.848-10.454 15.773-2.9818 4.9352-4.4727 9.8729-8.1924 13.82-5.9738 6.9087-13.436 12.822-20.898 17.747-5.9712 3.9598-13.433 6.9113-20.896 8.8747-12.696 3.9396-27.61 3.9396-27.61 3.9396s21.636 2.9616 39.542-2.9515" fill="#fffdfd"/>
<path d="m491.05 304.21s-2.9894-12.824-3.7298-26.642c-0.75051-6.9113-0.75051-12.824 0-19.733 0-3.9395 0.7404-7.8867 0.7404-7.8867-1.4909 2.9616-4.4727 8.8747-5.2131 15.794-1.4884 7.8867-1.4884 16.771 0 24.658 1.4909 10.848 6.7142 21.707 6.7142 21.707l1.4884-7.8892" fill="#fffdfd"/>
<path d="m325.36 473.93c5.2131-5.9131 7.452-12.824 8.2026-12.824 1.4909 0 0.7404 6.9113-1.4985 12.824-1.4909 4.915-4.4727 8.8823-8.195 10.848-5.2207 2.9515-12.693 0.97541-12.693 0.97541s8.2025-4.915 14.184-11.834" fill="#fffdfd"/>
<path d="m378.36 481.83-1.4909-8.8848 22.386 3.9395-24.628-13.8-0.75051 9.8602-29.838-20.709 34.331 29.603" fill="#fffdfd"/>
<path d="m347.01 493.66c5.2207 2.9616 10.452 11.846 18.654 15.794 10.444 5.9131 21.638 9.8527 33.581 12.822 11.935 1.966 25.371 0.98805 35.812 2.9616 2.2414 0.97794 2.2414 3.9396 0 3.9396-14.914 0.97793-30.589 0.97793-44.773-1.9635-11.935-1.966-23.129-7.9069-34.321-13.82-6.7142-3.9396-12.695-8.8848-14.927-13.8-1.4909-3.9395 2.2313-6.9113 5.9636-5.9333" fill="#fffdfd"/>
<path d="m428.36 460.11c5.9611 2.9616 10.434 7.9069 11.194 6.9087 2.2288-0.98552 0.7404-6.9087-1.4909-12.822-1.501-3.9395-5.2232-5.9131-5.2232-5.9131s0.7404 2.9515 1.4909 5.9131c0 2.9616 0.7404 4.9352 0 4.9352-2.2414-0.98552-5.9611-7.8968-11.192-10.848-2.2414-0.98551-5.9636 0.97794-5.9636 0.97794s2.9818 4.9352 6.7015 7.8968c1.4909 1.9634 2.9919 1.9634 4.4828 2.9515" fill="#fffdfd"/>
<path d="m447.77 448.28c2.9793 2.9515 7.452 4.9352 11.932 5.9131 2.9818 0 6.7116 0 8.9632-0.97793 1.4909 0 0.74041-1.9837-0.75051-2.9591-4.4702-1.966-10.452-1.966-15.665-4.9377-3.7323-1.9635-7.4621-6.9087-11.194-9.8602-0.75051-0.98805-1.4884-1.9635-2.2389-1.9635-1.4909 0-2.9818 1.9635-2.9818 1.9635s5.2207 7.8867 11.945 12.822" fill="#fffdfd"/>
<path d="m483.58 417.69c11.184 7.8968 23.88 13.82 29.851 12.822 2.9818 0-0.75051-7.8867-5.2207-14.795-3.7323-7.8892-8.953-14.798-14.927-20.711-4.4702-3.937-9.6935-8.8823-14.914-9.8602-5.2207-1.9837-11.205 0-10.454 2.9515 0 0.98552 7.452 3.937 13.436 7.8867 5.9611 4.9352 10.441 10.848 14.914 15.794 3.7323 3.9395 5.2207 8.8848 5.2207 8.8848l-12.683-9.8729-14.924-14.795s-7.4546-5.9131-13.426-6.891c-2.2414 0-3.7298 3.9395-1.4909 5.9131 6.704 8.8747 14.917 16.772 24.618 22.685" fill="#fffdfd"/>
<path d="m500 365.39 41.056 6.9087 31.329-1.9837s-12.685 15.794-29.101 22.702c-8.943 2.9515-19.394 2.9515-29.098 0.97793-8.943-1.966-17.906-6.891-26.859-11.836-2.9818-0.98552-5.9636-3.937-3.7323-2.9616 1.4909 0 7.4621 1.966 14.176 3.9396 8.2126 1.9837 16.415 4.9352 24.628 4.9352 6.7116 0.98804 13.433-0.97794 20.155-1.9635 4.4727-1.966 8.195-3.9395 5.9636-4.9352-6.7142-0.97794-22.389 0.98552-37.313 0-9.6934-1.966-18.646-6.891-18.646-6.891l7.452-8.8747" fill="#fffdfd"/>
<path d="m508.96 345.65s21.649 0.98805 41.786-2.9616c8.9606-0.97794 16.415-4.915 14.184-5.9131-0.75051 0-11.945 2.9616-23.877 2.9616-10.454 0-20.898 0.97793-24.628-0.98552-2.9818-1.966 2.2288-5.9131 8.2025-6.891 9.7036-0.98804 20.145 0.97794 30.599 0 13.426-0.98804 26.109-4.9352 26.109-4.9352s-1.4909 9.8602-8.1924 15.773c-6.7116 5.9232-14.924 10.848-23.887 13.82-9.7036 2.9616-20.148 2.9616-31.342 2.9616-8.2026 0.97541-16.415 0-16.415 0l7.4546-13.82" fill="#fffdfd"/>
<path d="m560.45 319.99c11.945-3.9396 22.399-12.824 33.591-19.733 3.7222-1.9634 5.9636-5.9131 5.9636-5.9131s-8.9632-0.97541-17.906-0.97541c-7.452 0-14.924 0-22.389 1.9634-5.9611 0.97794-11.192 3.937-16.415 6.9087-0.7404 0 0 0.97793 1.4909 0 2.2414-0.98552 4.4727-2.9616 8.2026-3.9572 5.2232-1.966 11.194-2.9515 17.156-2.9515 6.7142 0 14.186 0.97794 15.675 1.9635 1.4909 0.97793-2.9793 3.9395-7.4621 4.9352-11.192 3.9395-23.877 4.9175-35.072 8.8646-11.192 2.9616-20.135 10.848-20.135 10.848s19.394 2.9616 37.301-1.9634" fill="#fffdfd"/>
<path d="m547.76 281.51c3.7298-2.9515 8.9632-3.937 13.433-5.9131 5.9636-2.9616 11.945-6.9087 17.156-9.8602 4.4828-3.9395 9.6934-6.9087 11.194-9.8703 1.4909-0.97794-0.7404-1.966-3.7222-1.966-6.7116 1.966-13.433 4.9377-20.896 6.9113-5.2232 1.9634-9.6934 4.9352-11.945 4.9352-1.4909-0.98805 0-3.9396 3.7323-4.9352 8.2025-4.9352 17.906-7.8867 27.61-10.848 8.943-1.966 17.896-5.9131 20.135-3.9395 2.2414 1.966-1.4884 8.8747-6.7116 14.798-7.452 6.9087-15.665 13.817-24.618 19.731-5.2207 3.9395-11.945 6.891-18.657 9.8628-5.2207 0.98552-11.194 0-11.194 0s0.75051-5.9131 4.4727-8.8848" fill="#fffdfd"/>
<path d="m588.06 220.33c8.2126-5.9131 18.667-8.8823 27.61-13.81 11.194-5.9207 20.155-13.817 21.646-13.817 1.4909 0.98552-3.7298 9.8602-10.452 17.757-5.2232 6.891-11.194 13.8-18.646 18.745-8.2025 5.9131-17.166 9.8602-26.119 12.822-2.2414 0.97794-2.2414-0.98552-0.75051-2.9616 3.7298-4.915 9.6934-9.8602 12.693-13.8 0.74041-0.98551-0.75051-1.9634-2.2389-0.98551-11.945 4.9352-23.139 11.844-23.139 11.844s8.9632-8.8823 19.397-15.794" fill="#fffdfd"/>
<path d="m611.95 179.87c7.4621-7.8867 17.166-12.822 26.119-19.731 11.945-8.8646 23.877-18.745 25.368-18.745 1.501 0.98805-7.452 10.848-15.665 21.707-6.7116 8.8823-12.685 18.745-19.407 27.627-2.9793 2.9616-5.9611 4.9352-6.7116 3.9395-0.7404-0.97793 0.75051-4.9352 3.7323-8.8848 7.452-11.824 17.906-21.707 17.906-23.68 0.74041-2.9515-8.2126 2.9616-16.418 9.8703-8.2026 7.8892-14.174 17.749-21.626 25.656-3.7323 2.9515-8.9632 2.9515-8.9632 2.9515s6.7116-11.836 15.665-20.711" fill="#fffdfd"/>
<path d="m658.23 205.53s-8.2025 12.822-18.657 23.68c-9.7036 10.848-22.386 18.745-22.386 18.745l2.9793-4.9352 8.2025-8.8646-14.914 5.9131 44.775-34.539" fill="#fffdfd"/>
<path d="m630.62 251.9c8.2126-5.9106 17.906-11.824 17.906-11.824s-6.7116 13.8-17.906 21.707c-8.953 7.8867-20.898 8.8621-20.898 8.8621s9.7036-9.8602 20.898-18.745" fill="#fffdfd"/>
<path d="m620.91 277.56c13.436-5.9131 25.368-15.773 25.368-15.773s-6.7116 8.8621-16.415 15.773c-5.2106 3.937-11.194 6.9087-17.156 8.8722-8.2025 0.97794-16.415-1.9634-16.415-1.9634s12.683-0.98805 24.628-6.9087" fill="#fffdfd"/>
<path d="m605.98 306.18c11.945-9.8703 27.61-14.798 27.61-14.798l-18.646 19.723-20.898 11.846s4.4727-10.848 11.935-16.771" fill="#fffdfd"/>
<path d="m611.21 339.73c13.436-7.8867 23.139-21.707 23.139-21.707-11.945 4.9352-24.63 9.8527-36.573 15.794l15.675-1.9635s-13.433 3.9396-25.378 10.838c-4.4702 1.9837-6.7116 6.9012-6.7116 6.9012s16.415-1.966 29.849-9.8526" fill="#fffdfd"/>
<path d="m568.66 390.05c6.7142-2.9515 15.677-1.9634 23.89-3.937 5.2106-1.966 10.441-4.9352 15.665-6.9113 3.7197-1.9634 8.2025-1.9634 8.2025-1.9634l-17.906 11.844s-16.415 9.8628-34.331 15.776c-5.2207 1.9634-11.194 0.98552-11.194 0.98552s5.9636-10.848 15.667-15.794" fill="#fffdfd"/>
<path d="m574.64 425.58c14.914 1.9634 31.339 0.97793 31.339 0.97793s-6.7116 5.9106-14.924 7.8867c-11.194 2.9616-23.877 1.9635-23.877 1.9635l8.2025-5.9131s-12.685-2.9515-23.88-7.8867c-2.9793-0.98805-4.4702-4.9352-4.4702-4.9352s13.423 5.9131 27.61 7.8968" fill="#fffdfd"/>
<path d="m535.83 439.39s3.7222-1.966 7.452-2.9616c4.4727-0.97793 10.454-0.97793 9.7036-0.97793 0-1.9635-5.2207-4.9352-11.192-5.9131-3.7323-0.98552-7.4546-1.9635-10.444 0-2.9919 0.97794-4.4828 5.9131-6.7116 6.891-4.4727 0.98552-10.454-0.97793-14.927 0-2.2389 0-3.7298 2.9616-3.7298 2.9616h29.849" fill="#fffdfd"/>
<path d="m500.76 457.16c6.704 4.915 14.176 8.8646 21.628 9.8602 14.174 0.98805 28.35-0.98552 42.544-3.937 4.4702-0.98805 8.2025-4.9352 8.2025-4.9352-13.433-1.966-26.119-3.9395-39.552-5.9131 0 0 2.9793 2.9616 6.7116 3.937 5.9611 1.966 13.433 1.966 12.683 1.966-2.2389 1.9634-11.192 2.9591-19.405 1.9634-8.943-0.97794-17.156-4.915-26.119-8.8747-11.194-4.915-21.638-10.838-21.638-10.838s5.9636 9.8526 14.927 16.771" fill="#fffdfd"/>
<path d="m485.82 480.84c9.7036 5.9131 20.898 8.8646 26.859 7.8867 2.2414-0.98805-1.4909-6.9087-5.9611-13.82-3.7323-3.937-8.2025-7.8867-12.685-11.834-3.7298-3.9396-7.4621-6.9113-7.4621-6.9113s1.4909 3.9395 3.7323 6.9113c6.7116 8.8823 14.924 17.757 14.924 17.757s-7.4621-1.9837-14.924-5.9232c-4.4727-1.9634-8.953-3.937-13.436-6.8885-2.9793-1.9837-5.9611-4.9352-5.9611-4.9352s5.2207 11.834 14.924 17.757" fill="#fffdfd"/>
<path d="m477.61 494.65s-3.7298-5.9131-5.9611-12.822c-2.2414-5.9131-2.9818-11.836-3.7323-11.836 0 0 2.2414 9.8602-2.2389 10.848-6.704 0.97793-18.646-5.9232-18.646-5.9232l30.589 19.733" fill="#fffdfd"/>
<path d="m438.07 495.65c8.953 3.9395 19.387 2.9414 19.387 2.9414l-9.6833-14.795 2.2288 10.848-23.877-9.8602s4.4727 7.8867 11.945 10.856" fill="#fffdfd"/>
<path d="m573.15 579.52s11.192 3.937 21.636 2.9616c7.452-0.98804 14.176-0.98804 16.415-5.9131 3.7323-7.9069 2.9818-18.755 1.4909-29.614-2.9793-13.8-8.9429-27.63-14.924-42.425-3.7222-9.8602-8.9429-18.745-8.9429-20.709-0.75051-2.9515 5.2207 2.9616 8.9429 9.8602 7.4621 14.806 14.174 30.589 18.657 46.383 2.2313 7.8892 2.2313 16.771 1.4909 25.656 0 7.8867-0.75051 15.773-4.4727 19.723-5.9712 4.9352-14.924 5.9207-24.628 5.9207-8.9632 0.97793-17.906-1.9837-17.906-1.9837l2.2414-9.8602" fill="#fffdfd"/>
<path d="m474.63 519.32 1.4909-16.771-4.4702 5.9232-11.945-4.9377 14.924 15.776m17.916 7.9145 1.4909-17.757-3.7298 6.9113-7.4546-2.9616 9.6934 13.817m16.415-11.864 0.75051-13.8-11.192-3.937 10.441 17.747m23.139 0.98804-1.4909-11.846-6.7116-8.8646-7.4546 3.9395 15.667 16.771m-9.7137 21.714c1.4909 3.9395 0.75051 9.8628 0.75051 9.8628s5.9611-4.9352 5.9611-9.8628c0.7404-3.9572-1.4909-6.9087-4.4702-8.8823-2.2414-1.966-5.9738 0.97541-5.9738 0.97541s2.9919 2.9616 3.7323 7.8968" fill="#fffdfd"/>
<path d="m469.41 743.32c2.9818-0.97793 5.9611 0.98805 5.9611 2.9616 0 1.9635-3.7197 3.9396-6.7015 5.9131-4.4803 2.9616-10.454 4.9352-10.454 4.9352s5.2232-9.8703 11.194-13.82" fill="#fffdfd"/>
<path d="m466.41 780.81c2.9818-2.9515 5.9636-4.915 9.7036-5.9131 1.4909 0 2.9818 1.966 1.4909 3.9395-1.4909 2.9616-5.2207 3.9572-8.943 6.9087-4.4803 3.9395-8.9632 6.9113-8.9632 6.9113s2.2414-6.9113 6.7116-11.846" fill="#fffdfd"/>
<path d="m487.32 799.58c4.4702-2.9616 11.942-1.966 14.174 0.97793 0.75051 0-4.4702 1.9635-8.953 3.937-6.7116 3.9396-12.683 8.8747-12.683 8.8747s1.4909-10.848 7.452-13.8" fill="#fffdfd"/>
<path d="m520.9 802.53c5.2207 2.9616 11.945 0 19.397 0 15.665-1.966 32.09-1.966 39.542-4.9175 5.2232-1.9635-0.7404-7.8968-8.1924-8.8722-12.693 0-26.869 5.9131-38.802 5.9131-2.9919 0-4.4828-2.9616-3.7323-4.9377 1.4909-2.949 8.2126-2.949 8.2126-3.937 0-0.97794-5.2207-2.9515-9.7036-2.9515-5.2207-0.98805-10.454-0.98805-14.924 0.97794-3.7323 0-5.2232 3.937-5.2232 3.937s5.2232 11.846 13.436 14.798" fill="#fffdfd"/>
<path d="m517.16 745.29s-14.176-3.937-26.111-1.9635c-4.4803 0-7.4621 3.9396-6.7116 6.9087 1.4909 3.9396 5.9636 6.9113 11.194 7.8867 7.452 1.966 16.415-2.949 24.628-0.97541 7.452 1.9635 14.914 7.8867 20.137 12.822 1.4909 1.9634-2.2414 3.9395-5.9636 2.9515-5.2207-1.9635-9.701-9.8527-15.675-10.848-8.1924-1.9635-17.156-0.97794-24.618 0.98804-4.4702 1.9635-8.2126 5.9106-7.4621 9.8501 0.75051 2.9616 5.2207 4.9352 9.7036 4.9352 7.4621 0.97793 14.924-3.937 23.137-4.9352 5.9611 0 11.945 1.9634 17.906 3.9395 5.2207 1.9635 9.6934 4.9352 14.924 5.9207 3.7222 0.97794 8.943-1.9837 8.943-1.9837l-44.032-35.514" fill="#fffdfd"/>
<path d="m578.36 758.13s-0.7404 4.9377-1.4909 3.9396c-2.2288-1.9635-5.2106-9.8602-6.7116-8.8747-2.2313 1.9862-2.9793 8.8747-3.7197 16.782 0 1.9634 0.7404 3.9395 2.9793 4.915 0.7303 0 2.9818-3.937 3.7323-3.937 1.4909 1.9635 1.4909 6.9087 3.7197 10.848 0.75051 0.98552 2.9818 1.9635 3.7323 0.98552 0.7404-2.9616 0-8.8722 1.4909-13.817 1.4909-4.9377 5.2207-8.8747 5.2207-13.8 0.73029-8.8747-3.7298-19.733-2.2389-22.705 0-0.97794 5.9611 6.9113 8.2026 5.9131 3.7298-0.97793 5.2207-4.915 3.7298-8.8646-2.2414-2.9616-10.454-4.9352-12.683-10.848-2.9919-5.9308 0-14.795-0.7505-20.729 0-0.97793-2.2414-0.97793-3.7323 0-0.7404 0-0.7404 1.9837-0.7404 1.9837l-0.75051 58.209" fill="#fffdfd"/>
<path d="m598.53 715.69s-2.2414-10.846-0.75051-19.731c0.75051-1.9634 3.7298-2.9414 5.2207-0.97794 3.7323 5.9131 6.7142 12.822 7.452 20.709 1.4909 11.846 1.4909 23.683 0 34.539 0 3.9395-3.7197 6.9113-5.2106 10.848-1.4909 1.966-3.7323 3.9396-3.7323 6.9113 0 3.937 4.4727 7.8867 3.7323 11.826-1.4909 4.9352-5.2207 8.8823-8.9632 13.797-2.9818 2.9616-5.9611 5.9333-7.452 3.9598-2.9818-1.9634-3.7323-6.9012-3.7323-11.846-0.7404-4.9352 0.75051-9.8602 2.9818-12.822 0.75051-1.9635 4.4803 0.98804 5.2207 0 1.4909-0.97794 0.75051-4.915 1.4909-7.8867 0.75051-1.9635 2.2414-4.9352 2.9818-6.9087 1.4909-4.9352 2.2414-9.8628 2.2414-9.8628l-1.4909-32.563" fill="#fffdfd"/>
<path d="m160.42 744.32s-2.2313-2.9616-4.4727-2.9616c-2.2414 0.98552-5.2207 2.9616-6.7116 5.9131-1.4909 1.9634-1.4909 4.9352-1.4909 7.8968l1.4909-0.98804 11.194-9.8602" fill="#fffdfd"/>
<path d="m167.89 769.97 7.452 7.8867-6.7116-0.98805-8.2126 9.8729 7.4621-16.771" fill="#fffdfd"/>
<path d="m193.27 797.6c2.9793-1.966 5.9611-2.9616 8.943-2.9616 2.2414 0 4.4702 2.9616 2.9818 3.937-0.7404 0.98805-4.4727 0.98805-8.2126 1.966-5.2131 1.9634-9.6934 4.9352-9.6934 4.9352s2.2389-4.9352 5.9712-7.8867" fill="#fffdfd"/>
<path d="m216.39 803.52 1.4909-0.98552-0.74041-4.9175h-5.2207l4.4702 5.9131" fill="#fffdfd"/>
<path d="m212.66 730.5c-7.4647-1.9634-14.927-2.9515-21.649-1.9634-3.7298 0.98552-6.7116 3.937-8.2126 6.9087-1.4909 3.9396-1.4909 7.8867 1.4909 8.8747 0.75051 0.97541 5.2207-3.9598 9.7036-3.9598 7.4621-0.97541 14.924-0.97541 22.386 0h13.436s-8.2126-6.8885-17.156-9.8602" fill="#fffdfd"/>
<path d="m235.8 752.2c-6.7116-2.9616-13.426-4.9352-20.137-4.9352-6.7116-0.97794-12.685 0.98551-15.665 4.9352-2.2414 1.9634 0 5.9131 4.4702 6.9087 4.4727 0.97794 11.194-1.9635 17.906-1.9635 4.4727 0 8.9429 1.9635 14.176 2.9515 7.452 1.9635 15.665 2.9616 15.665 2.9616s-7.452-6.9113-16.415-10.858" fill="#fffdfd"/>
<path d="m183.56 770.95c-1.4909-3.9395 0.74041-8.8848 3.7222-11.836 1.4985-0.98805 5.2207 0 7.4621 1.9634 2.9793 1.966 4.4702 4.9175 4.4702 8.8747-0.74041 4.915-2.9793 9.8628-6.7116 9.8628-3.7222 0.97541-7.452-2.9616-8.943-8.8747" fill="#fffdfd"/>
<path d="m226.85 778.85c6.7116 6.9087 9.6934 16.779 9.6934 16.779l37.311 0.97794s11.935 1.9635 17.906-3.9395c6.704-6.9087 9.6833-18.745 14.917-29.593 5.9712-9.8703 10.452-19.731 17.166-28.615 4.4702-6.8885 10.434-12.822 16.405-18.745 3.7298-2.9616 8.2025-5.9131 11.192-8.8823 2.2414-2.9515 0.75051-6.891 2.2414-7.8867 2.2414-1.966 6.7116-2.9616 8.9429-0.98804 2.9919 0.98804 3.7323 4.9352 5.9738 8.8747 1.4884 0.98552 2.2288 2.9616 2.9793 2.9616 3.7323-2.9616 6.7142-6.9113 6.7142-9.8628-0.75051-2.9616-5.2232-3.9572-8.2126-6.8986-3.7323-3.9396-7.4647-8.8848-9.6934-12.822-0.75051-1.966 0-3.9396-0.75051-5.9131-1.4909-4.9352-2.9818-8.8747-3.7222-7.8968-1.4909 0.98552-1.4909 12.822-5.2207 18.745-1.4909 1.9837-5.2232 0.98551-5.9636-1.966-1.501-3.937 0.7404-10.838-0.75051-15.773-0.75051-2.9616-2.9793-4.9352-5.9611-6.9087-4.4727-2.9616-11.194-2.9616-15.675-5.9131-4.4727-2.9616-9.6834-6.9087-12.685-11.846-2.2288-3.937-1.4884-10.838-2.9793-15.773-0.74041-4.9352 0-9.8703-1.4909-12.822-0.73029-1.9634-3.7323-1.9634-4.4727-0.98804-2.2389 2.9616-1.4909 9.8729-2.9793 11.846-2.2414 0.97793-5.9636-0.98805-8.2051-3.9396-3.7298-3.9572-6.7116-7.8968-6.7116-11.844 0.75051-10.848 7.452-21.707 7.452-22.685 0-1.9635-4.4702 4.9352-8.943 10.848-3.7298 5.9131-7.452 12.822-8.9429 18.745-1.4985 3.9396-0.75051 8.8848 1.4909 8.8848 0.7404 0 2.9818-8.8848 4.4727-8.8848 1.4909 0.97794 2.2313 5.9131 4.4702 10.848 2.2414 4.9352 5.9636 8.8848 6.7116 13.81 0.74041 5.9232-2.9793 11.844-2.9793 18.755 0 4.915 0 8.8646 2.9793 12.822 2.2414 2.9515 8.2051 5.9131 12.685 7.8867 6.7116 3.9395 12.685 6.9113 18.646 8.8747 1.4909 0 2.2414-0.98805 1.4909-2.9616-4.4727-3.9396-13.426-7.8867-18.646-13.8-5.2232-5.9232-8.9429-11.844-9.7036-19.733-2.2313-8.8823 0-18.743 3.7323-17.757 0.7404 0 3.7197 13.82 11.192 23.68 4.4727 6.9113 12.685 10.848 19.397 16.772 5.2207 3.9395 11.194 6.9087 13.426 11.844 1.4884 3.9396-0.7404 9.8526-3.7222 15.776-1.4909 4.9352-5.9712 8.8823-9.7036 12.822-3.7298 2.9616-6.7116 6.9087-8.2025 5.9131-1.4909-0.97794 0-8.8848-1.4909-15.773-0.75051-3.9396-2.2414-7.8993-2.9818-5.9131-1.4884 1.9634-1.4884 10.838-4.4803 18.745-2.2313 7.8867-5.9611 14.795-8.9429 21.697-2.9818 6.9087-5.2207 13.817-8.2126 19.731-2.9818 4.9352-7.452 8.8747-11.935 12.822-3.7298 3.9395-7.4621 6.9113-11.942 6.9113-7.452 0.97541-15.665-1.966-24.628-4.9352-5.9636-0.97794-11.935-5.9131-17.156-5.9131-7.4546-0.97794-15.667 3.937-15.667 3.937s8.9429 0.98804 14.176 5.9131" fill="#fffdfd"/>
<path d="m349.25 641.69c0-2.9616 5.2232-4.9352 5.9636-7.8867 1.4909-4.9352 2.2389-8.8722 1.4909-12.822-1.4909-3.9572-4.4727-6.8986-6.7142-4.9352-10.444 7.8867-20.145 25.654-20.896 26.632-2.9818 0-0.7404-11.836 3.7298-23.66 4.4727-13.82 11.194-25.656 14.176-27.63 0.75051-0.98804-7.4546 17.749-4.4727 21.697 1.4909 0 11.945-12.822 16.415-10.858 3.7222 1.9837 2.9818 13.82 7.452 22.705 2.2414 4.915 5.9636 8.8722 8.2126 7.8867 1.4909-0.97794 1.4909-5.9131 2.2414-11.836 0.7404-2.9616 0-5.9232 0.7404-4.9352 3.7323 1.9634 9.7036 11.834 9.7036 11.834 0 0.98805-2.2313-4.915-3.7323-9.8602-1.4884-9.8602-4.4702-18.745-2.9793-26.632 1.4909-8.8747 5.2207-16.782 10.452-22.702 6.7142-7.8867 15.667-13.8 25.371-17.749 5.2207-2.9616 11.942-1.9634 17.904-1.9634 1.4909 0 1.4909 1.9634 0 2.9515-5.9611 1.9634-14.924 1.9634-22.386 4.9352-6.7116 3.9395-11.942 8.8848-16.415 15.773-3.7323 6.9113-5.9611 15.794-7.452 24.678-0.75051 5.9131 0 12.822 2.2313 18.745 2.9793 8.8823 10.452 15.794 14.174 22.682 0.75051 1.966 1.501 3.9395 0 3.9395-1.4909 0-5.2131-1.9634-8.953-2.9515-5.2207-0.98804-11.194-1.9634-16.415-0.98804-5.2207 0.98804-10.444 2.9616-14.924 6.9113-2.9818 1.9634-5.2131 5.9131-7.4546 10.848-0.7404 1.9634 0 4.9352 0 4.9352s-7.452-10.848-7.452-19.733" fill="#fffdfd"/>
<path d="m449.26 652.55c2.9818 5.9131 3.7222 13.8 5.2131 13.8 2.9818-0.97794 7.4621-16.771 11.194-15.773 5.2207 0.97794 9.6934 18.745 9.6934 18.745l5.2207-12.822 7.452 6.9087 2.2414-5.9333s5.2207 3.9598 11.194 4.9377c7.452 0.98552 14.924-0.97793 14.924-0.97793s-10.454-0.98805-17.906-6.9113c-6.7116-4.9352-10.454-13.817-13.433-13.817-3.7222 0-5.9636 13.817-8.9455 13.817-3.7298 0-8.2126-14.795-11.192-13.817-2.9818 0-4.4727 14.795-8.9632 15.794-5.2131 0-12.685-13.82-12.685-13.82s3.7323 4.9352 5.9738 9.8703" fill="#fffdfd"/>
<path d="m438.81 575.57c10.452-10.848 26.119-16.769 26.119-16.769l-13.436 35.514-3.7197-10.848-1.501 18.745s5.2207 5.9333 9.7036 4.9352c4.4803-0.97541 9.7036-4.9352 11.942-9.8602 5.9636-9.8703 7.452-22.702 11.945-33.54 0.7404-1.9862 2.2313-4.9377 2.9793-2.9616 0.7404 0.97541-2.2389 15.794 2.2313 16.769 8.2025 1.966 24.628-10.848 24.628-10.848s-11.942 10.848-15.665 24.678c-2.2414 7.8867-1.4909 16.772 1.4909 22.685 1.4909 3.937 7.452 2.9414 8.9429-0.98804 1.4909-5.9131-5.2106-17.747-2.2313-24.658 1.4909-3.937 8.9429-5.9131 14.176-8.8722 3.7298-1.966 6.7116-4.9377 6.7116-3.9396 0 1.9635-4.4828 7.8867-6.7116 14.795-1.4909 4.9377-2.9818 10.848-2.2414 16.771 0.75051 4.9352 3.7323 10.848 7.4621 13.82 4.4727 4.915 11.194 6.8885 17.156 8.8646 14.174 6.9087 27.61 12.822 42.534 17.757 8.953 3.9395 20.148 2.9616 24.628 6.9087 3.7323 4.9352 1.4909 14.798 0 24.658 0 2.9616-3.7298 2.9616-4.4702 0.98804-0.75051-3.9395 2.2389-13.82 0-15.794-0.75051-0.97794-6.7142 5.9131-11.194 4.9352-2.9818-0.98805-4.4727-7.8867-8.953-10.848-9.6934-5.9131-20.148-10.848-30.599-15.794-1.4909 0-2.2313-0.97794-2.9818 0-0.7404 0-0.7404 3.9572-1.4909 3.9572-1.4909 0-5.2106-2.9616-8.9429-3.9572-4.4702-0.97794-10.454 0.98805-14.174 0-2.2414 0-2.9818-2.9515-2.9818-4.915-0.7505-1.966 1.4909-3.9396 0.74041-3.9396-1.4909-0.98804-6.7116 0.97794-9.7036 0-2.2414-0.98804-3.7298-3.9572-3.7298-5.9232-0.7404-0.97541 2.2389-1.9635 1.4884-2.9515 0-1.9635-1.4884-3.937-3.7197-3.937-2.9818-0.98805-6.7116-1.966-8.2126 0-2.2414 3.937-0.75051 11.834-1.4909 14.795-0.75051 1.966-2.2414 0.97794-2.9818 0-2.9793-6.9087-5.9712-12.822-7.4621-19.731-1.4909-5.9131-1.4909-12.824-1.4909-18.745-0.7404-3.9395 0.75051-7.8968-0.7404-10.848-1.4909-2.9616-5.2207-4.9352-6.7116-1.966-4.4702 6.9113-6.7116 17.749-9.7036 28.608-1.4909 4.9352 0 8.8722-1.4909 13.817-0.74799 1.966-2.2389 4.9377-2.9793 3.9395-2.2414-0.98804-3.7323-5.9131-5.9738-10.848-1.4884-3.9395-1.4884-8.8747-2.2288-7.8867-4.4727 2.9515-10.454 16.772-14.176 18.745-0.75051 0.98804-0.75051-3.9396-1.4909-9.8602-0.75051-5.9232 0-11.846-1.4985-11.846-1.4909 0-5.2131 6.9087-9.6935 13.82-3.7323 4.915-5.2232 10.848-5.9738 10.848-1.4884-1.966-2.2288-9.8703-0.7404-17.76 1.4909-5.9106 7.4546-10.848 7.4546-13.817 0.75051-1.966-1.4909-2.9515-4.4727-1.966-2.2414 0-4.4702 3.9598-4.4702 3.9598s7.452-16.782 20.135-28.615" fill="#fffdfd"/>
<path d="m575.38 673.26c4.4702-1.9634 4.4702-7.8867 0-8.8823-3.7222-0.97794-10.444 1.9634-17.156 5.9131-2.2414 0.98552-2.9818 2.9616-2.9818 2.9616s13.423 3.937 20.137 0" fill="#fffdfd"/>
<path d="m161.91 656.49c5.2207-1.966 8.9606-5.9131 10.452-5.9131 2.2313 0.97794 2.2313 3.9395 0 5.9131-4.4702 2.9616-9.7036 4.9352-15.675 4.9352-5.9611 0.97794-11.932-1.9635-11.932-1.9635s8.9505-0.98804 17.156-2.9616m12.683-15.804c5.2232-2.9515 10.454-7.8867 12.685-12.822 5.2207-12.824 6.7116-27.63 5.9712-31.569 0-0.97541-2.2414 13.82-7.4621 24.678-2.2313 5.9131-5.2131 10.858-9.6934 14.798-2.2313 2.949-7.452 0.97541-8.1924 1.9634-1.501 0.97794 0 1.9635 0.7404 2.9515 2.2389 0.98552 4.4702 0.98552 5.9611 0" fill="#fffdfd"/>
<path d="m123.85 640.69c0.7404 0.98552 2.9818 1.9635 3.7323 0.98552 3.7197-1.9635 6.7015-4.9352 8.9429-7.8867 0.74798-0.98552-0.75051-1.9635-2.2414-0.98552-2.2313 0.98552-3.7222 2.9616-5.2131 3.937-0.74798 0-2.2389 0-2.9793-0.97541-0.75051-1.966 0-3.9396-0.75051-4.9377-0.75051-0.98552-2.9818-1.9634-2.9818-1.9634s0 6.9113 1.4909 11.836" fill="#fffdfd"/>
<path d="m103.69 642.67c2.9894 1.9837 6.7116 0 9.701-1.9634 0 0-2.9793 0-5.2106-0.97794-2.9818-0.98804-5.2232-3.9395-8.2025-4.9352-1.4909-0.97794-3.7323-1.9634-3.7323-0.97794 1.4909 2.9515 3.7323 7.8867 7.452 8.8646" fill="#fffdfd"/>
<path d="m93.994 594.32c2.2389 0.98804 5.2207 0.98804 9.6935 0.98804 0 0-1.4909 0-2.9818-0.98804-2.9818-1.9635-5.9636-3.937-8.9429-5.9131-0.75051-0.98552-2.2414-1.9635-2.2414-1.9635s0.75051 5.9131 4.4727 7.8867" fill="#fffdfd"/>
<path d="m114.89 598.27c3.7323 1.9634 9.6935-0.97794 11.205-2.9515 0 0-5.2232 1.9634-9.6934 0-0.75051 0-0.75051-1.966-1.501-3.9396-0.7404-0.98551-2.2313-1.9837-2.2313-1.9837s-0.75051 7.8968 2.2313 8.8747" fill="#fffdfd"/>
<path d="m377.61 133.49c8.2126-4.9352 18.667-7.8867 20.158-10.848 0.7404-0.98804-5.2232-1.9634-9.7036-4.9352-4.4828-1.9634-8.953-3.9395-13.436-5.9131-4.4702-1.9634-8.953-4.9352-11.192-4.9352-1.4909 0-1.4909 1.9635 0 2.9616 1.4884 2.9616 4.4702 4.9352 4.4702 4.9352s-2.2313 3.937-1.4909 8.8646c0 4.9352 2.2414 9.8703 2.2414 9.8703s-2.9818 0.97794-3.7323 3.9395c-1.4884 2.9591-2.9793 5.9106-1.4884 5.9106 2.2389-0.97541 7.452-6.9087 14.174-9.8602m-6.7217-10.848c0-2.9616 1.4909-5.9131 1.4909-5.9131s3.7298 1.966 7.4621 2.9515c2.9793 1.966 6.7116 2.9616 6.7116 2.9616s-3.7323 1.9635-7.4621 3.9396c-2.9818 1.9634-6.7116 3.937-6.7116 3.937s-1.4909-3.937-1.4909-7.8867" fill="#fffdfd"/>
</g>
</g>
</svg>
