<?xml version="1.0" encoding="UTF-8"?>
<svg version="1.0" viewBox="0 0 800 500" xmlns="http://www.w3.org/2000/svg" xmlns:cc="http://web.resource.org/cc/" xmlns:dc="http://purl.org/dc/elements/1.1/" xmlns:rdf="http://www.w3.org/1999/02/22-rdf-syntax-ns#" xmlns:xlink="http://www.w3.org/1999/xlink">
<metadata>
<rdf:RDF>
<cc:Work rdf:about="">
<dc:format>image/svg+xml</dc:format>
<dc:type rdf:resource="http://purl.org/dc/dcmitype/StillImage"/>
</cc:Work>
</rdf:RDF>
</metadata>
<g transform="translate(0 -552.36)">
<g>
<rect y="802.36" width="800" height="250" fill="#e70000"/>
<rect y="552.36" width="800" height="250" fill="#fff"/>
<rect y="752.36" width="800" height="100" fill="#fc0"/>
<g transform="matrix(.40178 0 0 .37681 248.73 641.43)" stroke="#000">
<g transform="translate(-7.5471 -8.0279)" fill="#e70000" stroke-width="5.315">
<path d="m10.205 10.685h733.53v588.41c-7.2888 199.45-197.46 315.41-367.76 312.1-153.73-2.6505-359.14-134.51-365.77-312.1v-588.41z" fill="#e70000" fill-rule="evenodd" stroke="#000" stroke-linecap="round" stroke-width="5.315"/>
</g>
<g transform="translate(1144.5 387.11)" fill="#fff" fill-rule="evenodd" stroke-width="5.315">
<path d="m-877.18-297.77c-37.061 6.4752-68.011 47.213-36.004 81.008 49.171 0.67871 50.333-57.869 36.004-81.008z"/>
<path d="m-953.15-130.65c-17.385-32.749-9.9873-82.188 36.537-80.769 33.215 36.263-3.3783 71.67-36.537 80.769z"/>
<path d="m-670.95-295.32c34.606 4.0204 68.011 47.213 36.004 81.008-49.171 0.67871-50.333-57.869-36.004-81.008z"/>
<path d="m-594.98-128.19c16.567-33.568 9.9873-82.188-36.537-80.769-33.215 36.263 6.6514 71.67 36.537 80.769z"/>
<path d="m-778.12-347.38c-23.153 19.757-40.609 64.762-4.7812 84.969l-5.9062 92.281c0.75063 7.7607-6.5052 11.065-9.7188 8.75l-134.66-71.344c0.96986-42.727-47.836-49.494-76.719-38.594 1.9573 37.299 34.636 69.142 69.594 49.625l136.34 78.812c7.0198 4.1513 9.82 7.442 11.875 19.406l-9.8125 456.59h53.188l-9.8125-454.16c0.88813-10.817 4.1698-17.931 9.8125-22.906l138.06-77.312c35.21 20.306 68.28-11.712 70.25-49.25-29.176-11.011-78.665-3.9951-76.656 39.906l-135.75 68.656c-6.798 0.66327-9.5683-3.1883-9.8125-8.1875l-3.75-93.594c31.644-21.625 19.382-64.314-11.75-83.656z"/>
<path d="m-858.52-248.4c2.0802 39.641 38.848 73.112 76.187 45.322 6.4832-48.747-45.847-56.773-76.187-45.322z"/>
<path d="m-690.14-248.4c-2.0802 39.641-38.848 73.112-76.187 45.322-6.4832-48.747 45.847-56.773 76.187-45.322z"/>
</g>
<path d="m368.46 713.32c-98.534 0-189.02 30.446-259.91 81.188 74.246 66.267 174.94 107.19 259.88 108.66 95.748 1.8628 197.79-33.969 270.06-101.16-72.294-55.227-166.74-88.688-270.03-88.688z" fill="#fff" fill-rule="evenodd" stroke-linecap="round" stroke-linejoin="round" stroke-width="5.315"/>
<g transform="translate(1141.1 387.11)">
<path d="m-904.4 183.14-13.52 8.2585 24.975 22.805c6.2295 5.4 3.5632 10.779 0.82999 16.57-0.34413 9.6455-12.845 22.547 0.74214 28.089 3.6694 2.7498 6.461 6.6169 13.785 1.2911-5.4146-0.35977-8.1309-2.7493-8.1671-6.189 4.3137-1.6014-2.8074-19.04 8.4792-22.166 6.5052-0.32833 8.4074-2.0982 15.988-7.6825 6.7418 0.29914 13.881 11.129 18.685 6.167 4.9646 1.9801 7.6926 5.7946 5.8798 12.953 7.884-10.537 1.909-14.824-3.3332-19.29-1.523-7.5235-13.238-4.5992-20.014-7.063 2.4739-6.624 19.176-6.8992 19.008-13.003 6.5052-5.0768 9.8399-2.6389 12.206 2.0954-0.14795-12.483-6.295-11.031-14.159-10.675-6.7424-0.4551-15.841 12.946-22.611 13.66-1.1344-6.6989 19.134-18.201 19.512-26.305 3.2742-2.3598 6.5253-8.108 12.576-1.7803-3.656-12.393-10.254-5.975-17.604-4.3294-8.4623-2.9304-17.415 23.618-22.191 24.191-4.9742 4.5844-6.3183 5.4146-11.902 4.5021l-19.164-22.099z" fill="#fac900" fill-rule="evenodd" stroke-width="3.5433"/>
<path d="m-884.03 116.37-9.2463 12.864 25.729 0.80403c8.2485-1.0532 10.113 3.2569 11.428 9.4571 3.4324 9.0207-5.9998 27.704 8.6726 27.528 4.4497 1.1072 9.0432 3.7956 12.462-6.4322-3.4888 1.0815-7.8563 2.5358-9.2268-0.6193-0.18965-5.9507-6.4244-19.946 0.38248-24.708 5.866-2.8312 7.2466-5.9785 12.06-14.071 6.4731-0.47468 16.8 5.6353 19.297-0.80403 5.3439-0.10547 6.967 3.5351 10.452 9.6484 1.5859-11.389-2.865-14.649-9.8331-15.329-4.3278-6.3398-18.806 1.7787-23.634-0.82357-2.5752-7.9992 16.698-12.863 14.171-18.421 2.8336-3.449 8.0403-6.2563 12.06-2.8141-4.9888-11.444-13.172-5.4727-14.94-2.8792-7.7733-3.3354-13.632 18.599-18.567 17.689 0.08019-8.5923 11.007-22.663 8.2055-30.277 2.0994-3.4469 3.1954-9.3168 11.23-5.839-8.1858-9.997-11.793-2.772-17.925 1.6015-8.9359 0.58955-4.6343 19.493-6.8668 31.574-1.2635 9.8014-10.312 12.932-15.811 14.262l-20.101-2.4121z" fill="#fac900" fill-rule="evenodd" stroke-width="3.5433"/>
<g stroke-width="3.5433">
<path d="m-906.94 142.1c11.79 10.87 13.693 33.371 30.955 45.428-9.6967 2.4467-18.047 8.5952-31.759 0 2.308 11.524 1.175 23.049-4.0202 34.573-12.267-24.452-28.444-25.3-38.593-44.222l43.418-35.779z" fill="#fff" fill-rule="evenodd"/>
<path d="m-1120.4-166.75c29.781 19.989 78.108 25.141 122.43 33.495 37.415 13.29 38.629 45.669 17.325 66.991-19.636 33.767-10.758 70.949 23.1 82.006 18.751-9.6495 23.1-67.376 24.255-71.611-4.7001-3.093-7.8469-7.4286-6.9301-15.015 3.5861 5.918 10.429 5.3224 17.325 4.6201 27.369-9.1334 42.162-5.2798 54.286 11.55l-15.015 32.34c-8.8551 74.306 19.357 77.981-2.31 122.43-12.054-5.9507-22.873-18.077-36.961-13.86 17.388-7.3552 30.491 18.866 57.751 20.79-6.2165 9.6782-13.508 17.923-23.1 23.1 9.7863 12.725 15.225 24.113 10.395 32.34-24.958-22.296-40.176-17.32-60.061-25.41 10.414 6.8037 25.086 5.5524 31.185 11.55-24.707 20.12-53.588 36.557-60.061 72.766 2.9338 27.925-8.1375 73.541 13.86 77.386-51.195 46.777-23.167-52.195-34.651-78.541 8.1776 51.65-18.833 86.813 17.863 104.03-70.868 34.542-26.097-79.55-32.878-119.05-2.3428 45.518-34.392 111.42-6.9301 136.29-59.969 4.8951-14.727-78.468-15.015-116.66-12.676 23.488-5.4032 69.732-47.356 60.061 24.498-38.059 35.833-81.256 46.201-124.74 29.025-13.595 48.752-53.225 72.766-80.851-28.186 26.066-64.508 119.6-107.42 69.301 33.609-24.204 55.481-53.858 75.076-84.316-16.447 2.383-77.759 94.52-123.59 33.495 39.68-17.121 68.36-39.741 97.021-62.371-41.263 17.291-85.768 49.066-110.88-5.7751 32.985-6.4348 66.419-16.013 101.64-38.116-67.556 23.281-93.693 5.1415-102.8-30.03 37.652 7.1572 86.618-5.3835 93.556-17.325-60.599 10.965-90.468-6.4798-91.246-50.821 41.27 19.288 95.594 8.2371 112.04 15.015-19.329-11.168-120.75-0.71641-110.88-75.076z" fill="#fff" fill-rule="evenodd"/>
<path d="m-1009.9-92.596c-15.712 7.9936-25.065 18.011-16.084 33.861-9.88 17.024-11.232 37.417 8.4653 49.522-12.612 16.282-14.073 30.822 9.3119 41.48-5.0103 16.508 7.3672 27.464 26.666 25.819 4.3431 18.278 19.262 16.914 39.364 5.9257" fill="none"/>
<path d="m-868.97-55.772c37.87-2.2054 28.467 30.998 19.894 40.634 1.6887-27.943-17.459-15.967-28.782-22.01 7.3456 6.0668 21.88 3.6683 16.931 9.7351-0.14135 4.6088-14.803 4.3776-24.126 5.9257-20.992-16.704 12.293-13.775 16.084-34.285z" fill="#fed200" fill-rule="evenodd"/>
<path d="m-934.15-103.6c5.7234 9.6153 9.789 21.717 11.005 38.094 17.636-1.631 35.272-2.9026 52.908 7.6188l20.317-35.554c-4.1996-0.5136-8.2587-2.011-13.545 5.0792-5.2648-1.3588-9.0411 3.2724-12.098 6.3298 3.4726 2.2056 6.5957 3.3486 4.479 8.9078-2.0733 2.7171-5.8205 3.2191-9.7351 1.6931-3.6796-0.784-8.7866-3.4621-6.7723-8.0421 1.1109-3.277 4.8909-5.5951 8.121-3.1303 1.6286-6.205-2.8743-9.5002-7.1262-10.089 0.82437-5.5524-1.9825-8.4521-4.3212-11.586-4.1035 3.3832-7.8878 5.5907-7.5303 10.089-4.4371 0.35995-9.5148 3.9293-9.4601 8.781 3.752-0.61056 7.2764-0.19226 7.1955 5.0888 0.37214 5.264-1.9419 6.7052-7.2051 7.461-5.329 1.2375-10.407-2.1567-10.149-5.7679 0.56228-6.2121 2.7216-7.3888 7.6188-6.7723-1.231-5.2996-2.7167-10.387-10.582-10.158-2.2751-5.3299-7.3817-9.606-13.121-8.0421z" fill="#fed200" fill-rule="evenodd"/>
</g>
<path transform="matrix(.86171 .50741 -.50741 .86171 -150.74 444.93)" d="m-877.63-48.738a10.546 6.1935 0 1 1-21.091 0 10.546 6.1935 0 1 1 21.091 0z" fill="#b3b3b3" fill-rule="evenodd" stroke-linecap="round" stroke-linejoin="round" stroke-width="1.4173"/>
<path d="m-885.5-46.06a4.1011 4.1848 0 1 1-8.2021 0 4.1011 4.1848 0 1 1 8.2021 0z" fill-rule="evenodd" stroke-linecap="round" stroke-linejoin="round" stroke-width="1.4173"/>
<g transform="matrix(-1 0 0 1 -1545.2 0)">
<path d="m-904.4 183.14-13.52 8.2585 24.975 22.805c6.2295 5.4 3.5632 10.779 0.82999 16.57-0.34413 9.6455-12.845 22.547 0.74214 28.089 3.6694 2.7498 6.461 6.6169 13.785 1.2911-5.4146-0.35977-8.1309-2.7493-8.1671-6.189 4.3137-1.6014-2.8074-19.04 8.4792-22.166 6.5052-0.32833 8.4074-2.0982 15.988-7.6825 6.7418 0.29914 13.881 11.129 18.685 6.167 4.9646 1.9801 7.6926 5.7946 5.8798 12.953 7.884-10.537 1.909-14.824-3.3332-19.29-1.523-7.5235-13.238-4.5992-20.014-7.063 2.4739-6.624 19.176-6.8992 19.008-13.003 6.5052-5.0768 9.8399-2.6389 12.206 2.0954-0.14795-12.483-6.295-11.031-14.159-10.675-6.7424-0.4551-15.841 12.946-22.611 13.66-1.1344-6.6989 19.134-18.201 19.512-26.305 3.2742-2.3598 6.5253-8.108 12.576-1.7803-3.656-12.393-10.254-5.975-17.604-4.3294-8.4623-2.9304-17.415 23.618-22.191 24.191-4.9742 4.5844-6.3183 5.4146-11.902 4.5021l-19.164-22.099z" fill="#fac900" fill-rule="evenodd" stroke-width="3.5433"/>
<path d="m-884.03 116.37-9.2463 12.864 25.729 0.80403c8.2485-1.0532 10.113 3.2569 11.428 9.4571 3.4324 9.0207-5.9998 27.704 8.6726 27.528 4.4497 1.1072 9.0432 3.7956 12.462-6.4322-3.4888 1.0815-7.8563 2.5358-9.2268-0.6193-0.18965-5.9507-6.4244-19.946 0.38248-24.708 5.866-2.8312 7.2466-5.9785 12.06-14.071 6.4731-0.47468 16.8 5.6353 19.297-0.80403 5.3439-0.10547 6.967 3.5351 10.452 9.6484 1.5859-11.389-2.865-14.649-9.8331-15.329-4.3278-6.3398-18.806 1.7787-23.634-0.82357-2.5752-7.9992 16.698-12.863 14.171-18.421 2.8336-3.449 8.0403-6.2563 12.06-2.8141-4.9888-11.444-13.172-5.4727-14.94-2.8792-7.7733-3.3354-13.632 18.599-18.567 17.689 0.08019-8.5923 11.007-22.663 8.2055-30.277 2.0994-3.4469 3.1954-9.3168 11.23-5.839-8.1858-9.997-11.793-2.772-17.925 1.6015-8.9359 0.58955-4.6343 19.493-6.8668 31.574-1.2635 9.8014-10.312 12.932-15.811 14.262l-20.101-2.4121z" fill="#fac900" fill-rule="evenodd" stroke-width="3.5433"/>
<g stroke-width="3.5433">
<path d="m-906.94 142.1c11.79 10.87 13.693 33.371 30.955 45.428-9.6967 2.4467-18.047 8.5952-31.759 0 2.308 11.524 1.175 23.049-4.0202 34.573-12.267-24.452-28.444-25.3-38.593-44.222l43.418-35.779z" fill="#fff" fill-rule="evenodd"/>
<path d="m-1120.4-166.75c29.781 19.989 78.108 25.141 122.43 33.495 37.415 13.29 38.629 45.669 17.325 66.991-19.636 33.767-10.758 70.949 23.1 82.006 18.751-9.6495 23.1-67.376 24.255-71.611-4.7001-3.093-7.8469-7.4286-6.9301-15.015 3.5861 5.918 10.429 5.3224 17.325 4.6201 27.369-9.1334 42.162-5.2798 54.286 11.55l-15.015 32.34c-8.8551 74.306 19.357 77.981-2.31 122.43-12.054-5.9507-22.873-18.077-36.961-13.86 17.388-7.3552 30.491 18.866 57.751 20.79-6.2165 9.6782-13.508 17.923-23.1 23.1 9.7863 12.725 15.225 24.113 10.395 32.34-24.958-22.296-40.176-17.32-60.061-25.41 10.414 6.8037 25.086 5.5524 31.185 11.55-24.707 20.12-53.588 36.557-60.061 72.766 2.9338 27.925-8.1375 73.541 13.86 77.386-51.195 46.777-23.167-52.195-34.651-78.541 8.1776 51.65-18.833 86.813 17.863 104.03-70.868 34.542-26.097-79.55-32.878-119.05-2.3428 45.518-34.392 111.42-6.9301 136.29-59.969 4.8951-14.727-78.468-15.015-116.66-12.676 23.488-5.4032 69.732-47.356 60.061 24.498-38.059 35.833-81.256 46.201-124.74 29.025-13.595 48.752-53.225 72.766-80.851-28.186 26.066-64.508 119.6-107.42 69.301 33.609-24.204 55.481-53.858 75.076-84.316-16.447 2.383-77.759 94.52-123.59 33.495 39.68-17.121 68.36-39.741 97.021-62.371-41.263 17.291-85.768 49.066-110.88-5.7751 32.985-6.4348 66.419-16.013 101.64-38.116-67.556 23.281-93.693 5.1415-102.8-30.03 37.652 7.1572 86.618-5.3835 93.556-17.325-60.599 10.965-90.468-6.4798-91.246-50.821 41.27 19.288 95.594 8.2371 112.04 15.015-19.329-11.168-120.75-0.71641-110.88-75.076z" fill="#fff" fill-rule="evenodd"/>
<path d="m-1009.9-92.596c-15.712 7.9936-25.065 18.011-16.084 33.861-9.88 17.024-11.232 37.417 8.4653 49.522-12.612 16.282-14.073 30.822 9.3119 41.48-5.0103 16.508 7.3672 27.464 26.666 25.819 4.3431 18.278 19.262 16.914 39.364 5.9257" fill="none"/>
<path d="m-868.97-55.772c37.87-2.2054 28.467 30.998 19.894 40.634 1.6887-27.943-17.459-15.967-28.782-22.01 7.3456 6.0668 21.88 3.6683 16.931 9.7351-0.14135 4.6088-14.803 4.3776-24.126 5.9257-20.992-16.704 12.293-13.775 16.084-34.285z" fill="#fed200" fill-rule="evenodd"/>
<path d="m-934.15-103.6c5.7234 9.6153 9.789 21.717 11.005 38.094 17.636-1.631 35.272-2.9026 52.908 7.6188l20.317-35.554c-4.1996-0.5136-8.2587-2.011-13.545 5.0792-5.2648-1.3588-9.0411 3.2724-12.098 6.3298 3.4726 2.2056 6.5957 3.3486 4.479 8.9078-2.0733 2.7171-5.8205 3.2191-9.7351 1.6931-3.6796-0.784-8.7866-3.4621-6.7723-8.0421 1.1109-3.277 4.8909-5.5951 8.121-3.1303 1.6286-6.205-2.8743-9.5002-7.1262-10.089 0.82437-5.5524-1.9825-8.4521-4.3212-11.586-4.1035 3.3832-7.8878 5.5907-7.5303 10.089-4.4371 0.35995-9.5148 3.9293-9.4601 8.781 3.752-0.61056 7.2764-0.19226 7.1955 5.0888 0.37214 5.264-1.9419 6.7052-7.2051 7.461-5.329 1.2375-10.407-2.1567-10.149-5.7679 0.56228-6.2121 2.7216-7.3888 7.6188-6.7723-1.231-5.2996-2.7167-10.387-10.582-10.158-2.2751-5.3299-7.3817-9.606-13.121-8.0421z" fill="#fed200" fill-rule="evenodd"/>
</g>
<path transform="matrix(.86171 .50741 -.50741 .86171 -150.74 444.93)" d="m-877.63-48.738a10.546 6.1935 0 1 1-21.091 0 10.546 6.1935 0 1 1 21.091 0z" fill="#b3b3b3" fill-rule="evenodd" stroke-linecap="round" stroke-linejoin="round" stroke-width="1.4173"/>
<path d="m-885.5-46.06a4.1011 4.1848 0 1 1-8.2021 0 4.1011 4.1848 0 1 1 8.2021 0z" fill-rule="evenodd" stroke-linecap="round" stroke-linejoin="round" stroke-width="1.4173"/>
</g>
</g>
</g>
</g>
</g>
</svg>
