<?xml version="1.0" encoding="UTF-8"?>
<svg version="1.1" viewBox="0 0 750 491" xmlns="http://www.w3.org/2000/svg" xmlns:cc="http://creativecommons.org/ns#" xmlns:dc="http://purl.org/dc/elements/1.1/" xmlns:rdf="http://www.w3.org/1999/02/22-rdf-syntax-ns#">
<metadata>
<rdf:RDF>
<cc:Work rdf:about="">
<dc:format>image/svg+xml</dc:format>
<dc:type rdf:resource="http://purl.org/dc/dcmitype/StillImage"/>
</cc:Work>
</rdf:RDF>
</metadata>
<rect x="375" y=".26746" width="374.82" height="490.73" fill="#ff2800"/>
<rect y=".26746" width="374.82" height="490.73" fill="#fc0"/>
<g transform="matrix(.6041 0 0 .58945 197.13 36.163)" fill-rule="evenodd">
<path d="m0 0h595.15v425.74c-4.248 158.76-128.66 290.66-297.58 292.54-161.93 0.216-295.27-130.61-297.58-292.54v-425.74z"/>
<path d="m301.18 8.928h284.54v415.15c-4.104 153.58-122.83 281.38-284.54 285.12v-700.27z" fill="#fc0"/>
<path d="m9.288 8.928h284.62v700.34c-155.23-1.8-282.31-128.52-284.62-285.19v-415.15z" fill="#ff2800"/>
<path d="m484.34 465.7v-55.08c0.432-1.512 1.08-2.952 1.512-4.032 1.44-3.744 0.288-5.472 1.512-8.712 0.504-1.368 1.584-1.44 3.312-0.864 1.08 0.432 1.44-0.432 1.872-1.296 0.72-1.296 2.304-2.664 3.024-4.68 1.152-3.312 2.088-6.84 3.024-7.416 0.792-0.432 1.584-0.144 1.656 0.936 0.144 1.224 0.864 3.024 0.648 4.968-0.144 1.368-0.648 2.664-0.936 5.688-0.216 2.376-0.144 5.112-0.144 8.136 0 0.792 0.288 3.096 0.072 3.96-0.936 3.672-2.304 5.832-3.096 7.92-0.144 0.36-1.656 2.592-1.872 4.032-0.144 0.864 0.36 1.728 1.512 0.864 0.936-0.648 2.16-2.232 3.168-4.968 1.008-2.808 2.088-6.768 3.384-12.024 0.432-1.8 1.8-3.096 2.592-4.824 0.288-0.72 0.648-1.224 1.08-1.368 1.296-0.432 0.864-0.288 1.368-1.584 0.216-0.648 0.432-1.44 1.296-1.368 0.288 0.072 0.432 0 0.648-0.576 0.864-2.088 1.656-3.6 3.672-5.76 4.032-4.32 6.912-8.712 9.936-9.72 0.36-0.144 3.24 0.432 3.96 0.576 0.576 0.072 0.792 0.864 0.648 1.44-0.144 0.792-0.36 1.944-0.504 2.592-0.072 0.792-0.432 1.08 1.368 0.216 1.584-0.72 4.248-2.088 5.616-2.304 4.464-0.648 4.032 2.016-1.152 8.136-0.864 1.08-4.896 7.776-5.256 9.36-0.432 1.728 0.864 1.08 1.44 1.224 0.432 0.144 0.576 1.008 0 1.728-1.512 1.872-3.024 4.896-3.6 6.192-0.216 0.504 0.288 0.864 1.08 0.576 1.008-0.288 2.016 0 1.944 0.36-0.072 0.504 0.36 0.36 0.936-0.432 0.576-0.72 1.872-1.944 3.24-3.744s3.528-1.656 4.104-2.448c0.576-0.864 0.216-1.8 0.72-2.664 1.512-2.736 3.384-5.616 5.184-7.344 0.792-0.864 1.584-2.232 2.736-1.512 0.648 0.36 1.224 0.504 2.016-0.072 0.936-0.648 9.792-15.696 16.56-21.672 0.432-0.36 2.088-2.088 2.448-2.088 1.368 0.144 1.44 0.432 1.44 1.44 0 2.16-0.144 6.696 0 9.432 0 0.288 0.288 3.816 0.936 3.6 2.088-0.792 2.88-0.36 2.592 1.296-0.216 1.224-0.936 3.024-2.088 5.184-1.152 2.088-1.368 4.032-2.304 6.696-1.152 3.24-3.744 6.912-5.76 8.928-0.864 0.864-0.576 2.016 0.216 1.944s1.368 0.648 0.648 1.728c-4.824 7.56-9.432 8.856-10.8 10.728-0.432 0.504-1.944 2.232-4.032 3.888-1.368 1.008-3.096 2.088-3.456 2.664-0.288 0.432 0.072 0.72 0.792 0.864 2.088 0.36 3.528 0.144 3.528 2.16 0 1.08 0.216 2.088 1.584 2.664 2.808 1.296 5.976 4.176 8.136 6.48 1.44 1.584 4.176 3.024 0.432 3.384-2.88 0.288-12.024-0.288-12.384 2.304 0 0.288 0.432 0.144 0.864 0.936 0.792 1.512-0.216 2.592-1.728 3.096-4.68 1.512-11.808 1.224-14.544-0.576-1.368-0.864-3.888-1.872-5.616-1.728-1.368 0.072-2.448 1.872-1.872 3.168 0.432 0.936 1.656 2.016 2.448 2.376 1.656 0.72 5.112 0.432 7.344 0.504 1.656 0.072 3.024 1.584 1.656 2.448-1.008 0.576-1.512 1.296 0.36 2.52 0.648 0.504 7.344 1.008 10.8 0.504 1.584-0.288 2.304-0.072 1.296 1.584-1.512 2.52-4.752 5.976-6.48 6.768-1.944 0.864-6.192 1.584-7.2 3.168-0.72 1.152 0.288 2.16-2.376 2.232-2.952 0.072-6.912-1.152-9.864-2.16-2.592-0.864-4.032-2.52-6.12-3.312-1.008-0.36-1.656 0.648-3.24 0-3.24-1.368-6.552-3.888-8.064-4.896-0.432-0.288-0.792-0.72-1.584-0.648-1.008 0.072-3.096 0.432-4.104 1.152-0.504 0.36 1.008 1.944 1.08 2.736 0.072 0.864-1.08 0.864-1.728 0.936-4.536 0.216-9.432 1.584-12.816 3.24-0.216 0.144-0.504 0.144-0.72 0.216zm0-106.42c0.864-3.168 1.872-6.264 3.096-9.432 1.296-3.312 1.44-6.408 2.16-6.984 0.792-0.504 1.224-1.656 1.44-3.312 0.432-3.096 1.44-6.336 2.88-8.928 2.232-4.032 4.824-7.128 7.776-7.632 1.152-0.216 1.656-0.072 1.872 0.648 1.368 5.256 2.304 11.52 4.32 16.488 0.504 1.296 1.656 2.376 1.8 4.608 0.36 5.616 0.72 11.664 1.368 16.56 0.504 3.744-0.432 4.032 2.88 6.48 3.888 3.024 9 6.12 13.464 7.992 1.296 0.504 2.808 0.288 4.248 0.36s2.88 0.504 4.176 0c2.52-0.864 4.104-2.232 6.336-3.312 3.672-1.728 7.776-3.312 10.872-4.032 3.456-0.864 7.128-2.52 11.088-5.328 1.584-1.08 2.448-0.936 3.168-2.808 0.792-2.088 2.304-4.608 3.456-7.488s1.44-6.408 1.728-10.224c0.144-2.664 3.096-4.896 5.184-6.84 2.16-2.088 3.312-5.4 3.312-9.648 0-10.152-0.864-25.848-2.664-37.728-0.504-3.024-0.504-4.896 0.072-6.408 0.936-2.448 0.432-5.112 0-7.488-1.152-5.904-2.016-8.136-6.192-11.952-6.192-5.688-12.672-10.296-17.856-13.752-1.512-1.008-1.224-2.448-2.52-3.24-0.936-0.576-3.456-0.504-4.248-1.224-0.792-0.792-1.44-1.656-1.944-2.736-0.936-2.088-1.08-3.6-1.368-4.464-0.576-1.656-3.888-0.648-6.552 2.736-2.16 2.808-5.04 2.232-7.92 1.44-1.728-0.504-3.6-0.144-5.328 0.432-1.224 0.432-1.44 1.08-2.664 1.368-1.584 0.432-4.176 0.576-5.976 1.44-6.408 3.312-6.912 14.76-10.584 22.68-2.232 4.968-6.048 7.344-5.688 15.912s0.648 16.488 1.368 23.76c0.144 1.728 0.432 1.656-1.224 2.088-3.888 0.936-7.416 2.808-10.08 4.464-1.944 1.152-3.744 2.88-5.256 5.04v40.464zm0-50.4v-5.544c0.936-0.36 1.152 0.432 0.576 3.456-0.072 0.504-0.288 1.224-0.576 2.088zm0-10.872v-32.472c0.216-0.288 0.576-0.504 1.152-0.36 1.224 0.288 5.616 0.288 7.848 0.72 0.792 0.144 1.008 0.432 1.08 0.792 0.216 0.864-0.36 1.512-1.008 2.376-1.8 2.304-4.752 3.672-5.904 5.472-0.792 1.08-1.512 2.664-2.304 3.888-1.08 1.656-1.224 1.152 0.36 2.376 0.72 0.576 1.728 1.296 2.304 1.872 0.792 0.792 0.72 1.512-1.152 1.944-1.584 0.288-1.8-0.216-1.872 2.16-0.072 3.888-0.288 7.776-0.504 11.232zm0-44.136v-121.54c0.864 0.936 1.8 1.944 2.88 2.88 1.152 1.08 1.8 3.096 2.664 3.816 0.648 0.576 1.368 0.792 2.448 1.08 3.672 0.936 5.688 4.968 8.28 9.648 2.304 4.248 1.224 8.568 0.504 12.168-0.216 1.08 1.944 1.8 3.528 2.376 1.584 0.504 2.448 1.728 3.312 2.664 1.368 1.44 2.016 2.88 2.016 5.256 0.072 4.824 0 10.44 0.216 13.032 0.936 9.72-2.664 14.04-4.608 18.36-0.72 1.656-2.88 2.808-4.248 3.816-1.584 1.224-1.224 0.72-0.576 2.376 0.936 2.088 2.376 4.752 3.168 7.344 1.656 5.472 0 11.88-3.24 17.928-1.944 3.672-2.232 5.4-5.04 8.496-0.792 0.936-3.96 3.744-4.968 4.68-2.016 1.944-4.248 3.888-6.336 5.616zm0-121.54v121.54c-3.456 2.88-6.552 5.328-7.704 6.84-2.592 3.384-4.176 3.816-2.448 4.176 0.216 0.072 0.216-0.72 0.72-0.72 1.512 0 3.312-0.576 3.312 0.432-0.072 0.648-0.072 1.152-0.144 1.656-0.072 0.576-0.072 1.656 0.864 1.584 0.72-0.072 2.232-0.432 4.248-1.224 0.504-0.216 0.792-0.72 1.152-1.08v32.472c-0.072 1.368-0.216 2.664-0.288 3.816 0 0.648-0.216 1.728 0.144 1.512h0.144v5.544c-0.792 2.16-2.16 5.184-4.32 7.992-1.008 1.368-2.448 4.248-3.312 5.832s0.72 1.368 0 2.664c-0.936 1.728-2.52 3.6-3.816 5.04v-30.6c2.232-3.528 3.816-9.504 4.32-11.016 0.144-0.36-0.432-0.648-1.008-0.504-0.648 0.072-1.368 0.576-1.584 0.792-0.504 0.432-1.08 1.152-1.728 1.944v-163.08l0.432 0.216c2.592 1.44 6.048 0.792 7.848 1.656 1.008 0.504 2.016 1.44 3.168 2.52zm0 186.48c-5.688 7.704-9.072 20.52-11.448 31.248v136.8c1.368-4.824 3.96-7.056 3.888-13.032-0.072-1.08 0.144-2.736 0.72-3.96 0.936-1.872 2.736-3.168 4.032-4.176 0.936-0.792 1.728 0 2.808 0v-55.08c-0.216 0.648-0.36 1.296-0.504 2.016-0.432 2.088-1.008 3.96-2.376 3.384-1.152-0.432-1.872 0.144-2.448 1.152-1.296 2.448-1.584 6.048-2.088 8.856-0.072 0.288-0.648 2.592-0.864 0.576-0.36-3.096 0.864-5.904 0.936-8.856 0.216-9.072 0.504-17.568 1.656-26.568 1.44-11.016 2.808-21.672 5.688-31.896v-40.464zm-11.448 212.76v-12.528c0.576 2.16 1.296 4.104 2.376 5.4 0.648 0.72 0.432 1.656 0.72 2.376 0.648 1.656 0.504 3.168-0.936 3.672-0.504 0.144-1.296 0.576-2.16 1.08zm0-403.63v163.08c-1.44 1.728-2.88 3.888-3.168 4.968-0.144 0.432 0.576 0.576 0.216 1.656-0.504 1.728-2.016 4.392-1.224 4.68 1.512 0.648 2.952-0.576 4.176-2.52v30.6c-1.296 1.368-2.376 2.448-2.592 2.808-1.584 2.088-2.88 3.888-3.888 5.616v-32.616c0.144-0.288 0.36-0.648 0.648-1.08 0.36-0.432-0.144-0.864-0.648-0.936v-177.48h0.36c2.376-0.144 4.968 0.72 6.12 1.224zm0 222.12v136.8c-0.144 0.36-0.216 0.792-0.36 1.152-1.368 6.336-0.864 13.824-0.792 21.6 0 2.952 0.36 6.408 1.152 9.432v12.528c-1.944 1.224-4.536 3.096-6.48 4.896v-153.36c0.144-1.512 0.216-2.88 0.144-3.888-0.144-3.744 0.864-4.032 1.512-6.264 1.008-3.024 1.152-5.904 1.728-9.072 0.864-4.32 1.944-8.856 2.88-13.104 0.072-0.216 0.144-0.432 0.216-0.72zm-6.48-223.34v177.48c-0.288 0-0.504 0.144-0.648 0.36-0.288 0.576-0.288 1.512-0.072 1.872 0.288 0.288 0.432 0.144 0.72-0.216v32.616c-1.728 2.736-2.88 5.4-4.104 8.856v-74.304c0.576-0.288 1.152-0.504 1.728-0.648s1.656 0 1.584-0.648c0-0.216 0-0.72 0.36-0.864 0.432-0.144 0.432-0.432 0.216-0.648-0.072-0.072-3.168 0.432-3.312 0.504-0.216 0-0.36 0.072-0.576 0.144v-143.28c1.368-0.648 2.808-1.08 4.104-1.224zm0 256.39v153.36c-0.72 0.576-1.368 1.224-1.872 1.8-1.152 1.296-1.512 2.592-1.512-0.36-0.072-7.128-0.36-15.408-0.72-23.832v-11.304c0.072-0.504 0.072-1.08 0.144-1.656 0-1.656-0.072-3.312-0.144-4.968v-66.312-0.072c0.36-2.736 1.008-5.976 1.296-9.288 0.216-2.952 0.144-5.976 0.432-9 0.36-4.176 0.936-8.352 0.792-11.88-0.072-2.088-0.432-4.032-0.072-6.12 0.576-3.168 1.296-7.128 1.656-10.368zm-4.104-255.17v143.28c-1.512 0.36-3.456 0.936-5.544 0.864-0.216 0-0.432-0.072-0.648-0.072v-139.54c1.584-1.728 3.888-3.384 6.192-4.536zm0 145.44v74.304c-0.504 1.368-1.008 2.952-1.512 4.68-1.512 4.824-1.944 9.576-1.944 14.4 0 2.232-0.072 5.112-0.576 7.776-0.504 3.024-1.584 5.832-1.512 8.568 0.216 5.4 1.08 9.648 1.008 14.472-0.216 12.456-1.08 26.712-0.864 41.256 0.072 6.696-0.432 13.824-0.792 20.736v-178.78l0.072-0.072c1.368-1.152 2.16-3.744 3.744-5.472 0.72-0.792 1.584-1.44 2.376-1.872zm0 156.46c-0.576 4.464-0.72 9.648 0 14.832 0.072 1.008-0.576 2.304-0.936 4.392-0.288 1.656 0 5.04-0.288 6.912-0.36 1.8-1.296 2.232-1.584 4.176-0.648 4.68-1.224 9.432-1.224 13.248 0 5.616 2.52 9.576 2.808 15.768 0.144 1.8 0.936 1.872 1.008 3.672 0.072 1.008 0.144 2.16 0.216 3.312v-66.312zm0 72.936v11.304c-0.072-2.376-0.216-4.752-0.288-7.128-0.072-1.368 0.144-2.664 0.288-4.176zm-6.192 40.32v-3.744c0.144 0.72 0.288 1.512 0.576 2.304 0.432 1.584 0.576 1.584-0.576 1.44zm0-14.112v-17.568c0.288 4.752 0.576 9.576 0.504 13.176-0.072 1.728-0.288 3.096-0.504 4.392zm0-33.48v-3.528 3.528zm-14.904 44.928c0.792-4.536-0.216-32.256 0.432-51.048 0.216-5.832 0.576-11.664 0.72-17.496 0.216-6.264 0.216-8.136-1.368-16.2-1.872-9.936-1.8-29.592-3.96-39.744-1.44-6.696-2.304-12.816-3.168-19.512-1.8-13.176-6.12-29.088-10.008-40.824-2.448-7.416-5.904-11.952-7.416-16.776-1.44-4.32-4.176-7.92-7.2-12.528v26.208c1.8 4.32 2.52 10.152 4.104 14.472 3.024 8.064 5.4 17.208 7.632 26.784 1.584 6.552 1.872 12.96 2.952 19.656 0.864 4.896 2.52 10.08 3.024 14.832 0.648 6.336 1.08 12.384 1.152 18 0 1.656 0.216 1.656-1.296 0.936-1.08-0.576-1.08-2.52-2.664-2.52-1.008-0.072-3.168-2.376-3.744-3.96-0.432-1.296-0.72-1.008-2.088-1.8-0.864-0.432-1.872-1.368-2.592-2.592-1.296-2.376-4.536-9.648-5.976-15.12-0.144-0.288-0.288-0.72-0.504-1.008v42.768c1.224 0 2.592 0.144 4.104 0.504 10.584 2.592 18 11.448 18.144 31.248 0 5.328-0.936 19.296-2.16 29.304-0.072 0.936-0.144 1.8 0.072 2.664 0.792 2.52 1.656 4.896 2.304 7.272 0.216 0.576 0.792 0.864 1.368 1.44 1.08 1.152 5.256 3.672 7.272 6.048 1.512 1.8 0.648 0.432 0.864-1.008zm-31.968-128.52v-12.888c0.216-0.144 0.432-0.216 0.576-0.36 1.512-1.08 1.8-0.36 1.44 1.08-0.72 2.952-1.512 7.2-1.728 9.792-0.072 0.648-0.144 1.44-0.288 2.376zm46.872-279.43v139.54c-2.808-0.216-5.256-1.08-9-2.808-0.648-0.36-1.008-0.576-1.008 0.432 0.072 1.944-0.216 3.096-0.288 4.248 0 0.648 0 2.736 0.864 2.952s-0.432 12.024 0.504 12.024c0.216 0.072 1.8-0.72 2.448-2.376 0.648-1.728 1.152-4.032 2.016-5.76 0.576-1.08 2.808-4.464 3.168-1.728 0.144 1.08 0.504 2.232 1.296 1.8v178.78c-0.36 4.896-0.648 9.72-0.648 14.256-0.144 6.624 0.504 12.456 0.648 18.144v3.528l-0.216 3.24c-0.288 3.672-0.072 8.136 0.216 12.672v17.568c-0.576 2.952-1.152 5.4 0 10.368v3.744h-0.432c-4.392-0.36-10.44 0.864-12.024 0.792-0.936-0.36-1.44-0.936-1.584-1.656 0.216-13.32 0.288-26.928 0.504-37.368 0.072-3.312 0.504-6.264 0.936-8.928 0.576-3.816 0.072-10.872 0.288-14.76 0.216-4.68 1.008-6.12 1.224-10.8 0.576-11.376-1.008-24.768-1.512-35.856-0.144-2.88 1.656-4.104 1.512-6.912-0.36-5.616-0.216-11.16-0.288-17.064-0.072-3.384-1.152-5.616-1.44-9.144-0.288-3.096 0.432-7.344 0.216-10.44-0.72-10.584-0.864-21.312-1.872-31.824-0.36-3.888 0.072-4.032-2.016-7.128-3.528-5.4-10.656-13.608-11.664-16.488-0.504-1.44-1.08-3.528 0.144-4.032 1.656-0.648 4.32-0.288 0.72-4.392-1.512-1.728-2.88-3.528-4.176-5.544-1.44-2.088-3.6-3.24-5.688-5.904-1.584-2.088-3.6-6.624-1.584-6.264 1.944 0.432 2.016 0-0.288-4.176-2.592-4.824-4.752-13.824-4.32-20.088 0.072-1.44 0.576-1.728 1.368-0.936 1.656 1.584 2.016 2.232 2.088 0.504 0.216-3.312-0.36-13.68 1.296-15.696 1.08-1.368 1.44-1.008 1.944 0.144 0.792 1.944 2.448 8.496 3.6 10.728 1.008 1.944 0.792 1.368 1.44 0.072 0.576-1.08 1.872-0.36 2.664 0.936 0.792 1.44 1.224 3.312 1.656 4.824 0.36 1.296 1.368 3.6 2.016 4.752 0.72 1.224 1.368-0.072 1.872 1.8 0.144 0.648 0.504 1.44 1.008 2.16 0.648 1.008 1.8 1.296 1.152-0.936-1.152-4.032-2.376-18.504-1.584-29.52 0.144-2.088 0.072-1.872-1.368-0.792-7.344 5.328-16.056 1.8-22.68-1.8v-134.14c0.864-0.576 1.728-1.08 2.664-1.584 2.664-1.44 9.648-0.216 12.528-0.864 4.824-1.08 6.192-1.584 11.736-1.296 7.632 0.432 14.328 5.04 16.632 10.368 1.08 2.736 0.072 4.032 1.656 0.936 0.36-0.792 0.936-1.512 1.656-2.304zm-46.872 193.82c-1.08-1.584-2.232-3.312-3.384-5.328-2.16-3.744-0.792-9.936-2.52-13.68-1.872-3.816-3.024-7.344-3.384-10.152-0.216-1.584-1.656-2.88-2.52-4.176-8.208-11.304-11.88-22.176-13.68-29.736-1.224-5.256-5.256-5.112-7.92-3.744-1.224 0.576-1.584 0.72-2.808-0.288-5.4-4.32-14.904-10.872-22.536-10.872-5.4 0.072-7.056 0.648-10.512 3.096-2.088 1.512-5.688 3.528-8.64 6.84-2.016 2.232-4.032 3.744-6.984 4.824-1.584 0.576-2.088 2.88-2.952 4.968-2.376 5.472-4.248 13.896-5.616 19.872-1.008 4.464-3.96 8.136-5.688 12.456-2.952 7.272-4.248 15.048-4.32 23.4v2.088 0.576c0.144 6.624 0.648 15.12 2.952 23.184 0.576 2.088 0.144 4.32 1.008 6.336 0.72 1.728 2.736 3.24 3.744 4.896 2.448 4.176 5.76 7.848 10.152 10.584 5.256 3.168 7.2 6.768 7.416 11.88 0.072 2.88 2.952 5.904 4.824 8.064 2.736 3.312 5.256 6.624 7.488 10.008 1.08 1.656 1.08 2.088 3.312 0.576 4.104-2.808 10.656-8.712 15.12-10.728 2.088-0.936 4.032-2.16 5.832-3.6 2.304-1.872 8.28-5.832 12.816-11.088 2.952-3.384 6.12-9.864 8.64-13.968 5.616-9.216 9.216-18 10.296-21.816 1.008-3.744 2.304-1.008 3.096 0 1.944 2.52 3.312 6.336 5.328 9.144 0.576 0.792 1.008 1.656 1.44 2.592v-26.208zm0 93.888v42.768c-3.96 0-7.2 1.296-11.52 1.656-1.728 0.144-2.376-0.504-2.016-1.224 0.648-1.224-1.512-1.152-4.104 1.008-2.16 1.8-5.184 4.536-7.344 6.12-2.016 1.512-2.808 2.376-3.888-0.216-0.576-1.368-1.728-2.088-2.448-1.44-2.088 1.944-5.112 3.456-8.568 4.68-1.512 0.504-1.512-1.008-1.584-2.088 0-1.368 0.432-4.032 0.504-5.832 0-1.152-0.432-1.728-1.368-1.656-0.72 0.072-4.608 0.72-2.088-2.304 0.144-0.216 0.432-0.432 0.648-0.72 1.08-1.656 6.408-6.336 7.848-8.064 0.504-0.648 0.216-1.008-0.648-0.864-5.904 0.72-9.864 4.608-13.68 5.544-1.944 0.432-1.872-0.072-2.088-1.08-0.432-1.8 0.936-3.24-1.224-3.24-4.176-0.144-10.152 1.08-15.264 0.648-1.584-0.144-1.296-0.576-1.152-1.8 0.072-1.008-2.088-0.648-2.952-0.792-5.976-1.008-9-2.52-11.664-3.096-2.232-0.504-1.872-1.296 0.216-2.88 1.008-0.792 2.448-1.944 4.32-2.592 1.08-0.36 2.592-0.288 3.24-1.296 0.648-1.08 2.232-1.8 3.96-1.944 1.224-0.144 0.72-1.152 0.576-2.232-0.216-1.584-1.008-3.312-0.504-4.104 1.152-1.8 1.152-2.736-3.528-3.528-2.088-0.288-3.816 0.36-5.832 0.216-2.448-0.144-4.68-0.288-6.048-0.144-0.72 0.072-1.152-0.792-0.936-1.656 0.144-0.864 0.864-1.728-0.072-2.304-0.72-0.432-5.976 0.144-7.2 0.504-1.152 0.36-2.52 1.008-1.296-2.304 1.08-3.168 5.4-7.416 8.28-7.128 0.936 0.072 2.16 0.144 2.736-0.576 0.504-0.72 1.584-1.296 2.952-1.656 0.576-0.144-0.792-2.736-1.872-4.536-0.576-1.008-1.512-1.872 0.36-1.8 4.608 0.072 8.496 2.808 10.008 3.816 1.08 0.72-0.072 1.296 1.44 1.08 0.72-0.144 3.6 0.216 5.4 0.792 1.224 0.432 1.224 0 1.08-1.296-0.216-2.088-1.224-5.904 1.8-4.608 1.44 0.576 3.024 1.944 4.536 2.88 0.648 0.36 1.44 1.152 1.872 0.648 0.36-0.432 1.44-1.152 2.232-0.144 2.592 3.096 8.352 6.12 10.656 7.2 3.024 1.44 2.16 0 0.864-1.728-0.648-0.936-1.152-2.376-0.288-2.736 1.08-0.432 1.152-0.864 0.36-2.16-1.8-2.88-5.616-5.976-7.2-7.776-1.08-1.224-1.368-2.016 0.648-2.16 2.88-0.144 8.856 0 11.448 0.864 0.504 0.216 1.584-0.216 1.44-0.864-0.36-1.656 0.576-1.224 1.512-0.864 3.384 1.152 6.48 3.024 9 5.256 2.952 2.664 5.256 5.112 5.184 7.056-0.072 1.44 0.504 1.368 1.44 1.368 2.16 0 1.656-2.232 1.224-4.248-0.216-0.864-0.936-2.808-0.72-3.528 0.288-0.864 1.44-1.584 1.944-1.152 1.224 1.008 1.872 0.576 2.16-2.304 0.288-3.024 0.504-10.656 1.8-13.68 0.432-0.864 1.224-1.44 1.8-0.72 0.504 0.576 0.504 1.584 1.944-0.36 1.8-2.448 4.248-7.2 5.472-8.856 1.584-2.304 1.656 0.072 2.016 0.648 1.08 1.944 2.016 7.848 1.728 12.312-0.072 1.944 1.008 3.528 0.864 5.184-0.144 1.368 0.72 1.296 1.584 0.864v12.888c-0.504 2.52-1.224 5.832-1.44 7.632-0.144 0.792 0.288 0.144 0.864 0.216 0.216 0.072 0.36 0.216 0.576 0.432zm0-292.97v134.14c-1.8-1.008-3.384-1.944-4.824-2.808-6.624-3.816-12.384-3.6-17.424-7.848-1.944-1.584-4.824-4.032-5.616-6.768-0.576-2.16-1.512-3.168-2.376-5.04-0.72-1.512-0.864-4.032-1.152-5.76-0.864-5.472-1.296-9.36-1.656-12.24-0.432-3.096-0.216-5.976 0.144-9.072 1.152-10.368 6.48-17.424 16.272-18.864 2.088-0.288 0.792-1.224-0.504-1.728-9.72-3.888-12.24-14.976-11.088-25.2 1.152-9.72 11.376-16.344 16.992-22.032 2.952-3.024 1.656-4.392 3.672-8.784 1.584-3.384 4.392-5.976 7.56-7.992z"/>
<path d="m293.9 75.024c-19.512-8.568-39.888-16.56-49.176-11.376-5.904-5.6879-14.184-8.4239-19.224 0.2881-16.2-3.816-30.24-5.76-36 9.072-1.08 4.248-3.312 9.792 5.184 25.2 0-7.2719 5.544-5.4719 10.08-2.2319 10.8 7.488 18.216 13.824 27.72 23.616 4.104 4.176 6.912 7.848 8.784 11.52 2.736 5.544 6.264 10.296 9 17.064 3.096 7.776 4.392 13.896 1.872 25.128-4.248 18.864-16.272 32.976-21.024 48.456-11.664-4.464-25.272-5.976-37.8-5.328-24.048 0.36-38.088-7.416-42.12-23.184 16.632-4.248 28.08-13.608 36-26.352 9.216-18.72 3.888-34.56-4.392-49.824-17.28-21.168-36.648-24.984-56.52-23.976-20.592 2.1601-40.968 9.1441-60.624 33.336-9.432 10.152-14.976 21.888-18.288 34.488-1.512 11.88-2.952 23.76-4.464 35.568 0.288 3.024-0.72 5.616-3.024 7.848-2.52 5.616 1.944 3.384 4.968 2.664-3.24 45.792-9.432 91.296-20.52 136.3 16.128-3.096 31.968-12.528 43.632-29.304 11.664-16.848 13.608-45.72 22.608-83.592-7.272 83.232-25.992 145.37-49.824 198 27.288-3.816 55.944-24.624 68.544-47.664 8.928-16.272 20.304-68.328 28.728-123.48 2.736 57.888-16.128 136.15-22.968 180.94 23.904-12.528 43.776-25.776 53.856-51.408 7.776-19.8 17.928-101.38 20.808-123.26 3.384 2.232 4.608 6.192 3.672 11.808-3.384 41.472-10.008 79.848-18.576 116.14 9.288-4.536 18.576-10.224 27.864-16.488-0.648 3.888-2.52 7.2-4.896 10.224 2.448 1.368 4.896 1.512 7.272 0.36-7.488 12.888-15.048 25.704-22.608 38.52 6.48 1.08 12.96 1.368 19.368-3.528-1.656 11.232-5.904 22.464-13.68 33.768-3.456 7.056-11.664 9-24.624 5.904-8.856-7.488-17.784-13.68-27.504-12.6-9.648 1.152-19.08 2.664-22.608 14.904 0.216 5.832 1.8 11.088 12.528 12.6 1.944-2.808 0.432-4.392-0.432-6.264 2.088-2.304 3.672-2.016 4.896 0.792 0.864 4.608 4.392 6.336 10.512 5.04 3.384-2.52 6.984-3.96 11.304 2.016-3.672 0.216-7.272 0.504-10.944 0.792-4.032-1.008-7.704 0.936-10.872 5.832-11.304 3.456-13.896 10.224-7.704 20.448 3.816 3.528 8.064 6.336 15.336 4.752-2.952-2.016-3.744-3.96-2.376-5.904 0.648-1.368 1.656-1.944 3.168-1.584 3.456 2.232 7.272 3.456 14.184-1.944-0.864 1.512-0.864 3.096 0 4.68-5.544 6.912-7.488 13.608-1.656 19.656 5.328 4.464 11.52 4.752 18.576 0.792-2.232-1.656-5.616-3.024-3.24-5.544 8.856 0.432 14.904-2.664 14.976-13.32 3.744-2.232 5.688-6.192 6.84-11.016 3.168-1.44 6.192-3.096 8.496-6.264 3.024-1.8 5.184-0.288 6.48 4.68-1.728 3.744 2.016 5.544 7.272 6.696 3.168 1.944 3.312 5.616 0.36 11.016 5.976 0.864 11.88 1.08 17.784-3.168 4.032-3.96 4.608-8.856 1.656-14.544 1.944-7.632 0.144-14.184-10.152-18.432-11.808-1.296-16.272-4.32-13.32-9 5.256-10.368 12.24-20.736 21.816-31.032 2.088 4.176 4.32 8.352 7.272 12.528 2.52 1.584 4.824 2.16 6.48-3.888 2.736-7.056 4.968-13.464 6.84-19.656 2.592 1.08 4.752 1.368 6.48 0.792-0.648-5.4-1.08-10.728 0-16.128 5.04 16.992 9.504 34.776 9.288 57.744-9.648 3.672-17.928 8.568-16.128 21.6 1.296 7.704 3.672 14.976 12.888 19.224 4.608 0.864 6.624 4.608 6.048 11.376-25.992 40.968-49.32 21.6-72.648 3.168-2.664-2.16-4.392-1.728-5.256 1.152-2.664 13.824-1.8 27.792 11.304 42.408-9.648 0.36-19.8-1.656-30.312-4.68 16.632 45.648 48.528 58.248 95.688 37.728 2.52 18.216 9.864 33.48 19.44 47.52 2.88 4.104 5.4 8.64 7.632 13.464v-583.63z"/>
<path d="m292.82 82.296c0.36 0.216 0.72 0.3599 1.08 0.5759v123.19c-0.216 0.288-0.36 0.648-0.576 1.08-0.144 0.864-0.288 1.728-0.504 2.592v-127.44zm0 561.02v-43.992c0.36 2.376 0.72 4.824 1.08 7.2v36.432c-0.216 0.288-0.432 0.576-0.648 0.864-0.144-0.144-0.288-0.36-0.432-0.504zm0-100.87v-32.616h1.08v41.328c-0.432-2.88-0.792-5.832-1.08-8.712zm0-84.816v-2.88 2.88zm0-26.064v-39.528c0.36-0.36 0.72-0.648 1.08-0.864v4.824c-0.216 5.544-0.36 11.088 0 16.128v20.736l-1.08-1.296zm0-88.776v-21.096c0.288 1.008 0.648 1.944 1.08 2.88v19.656c-0.36-0.504-0.72-0.936-1.08-1.44zm0-83.016v-18.432c0.288 0.792 0.648 1.584 1.08 2.304v17.424l-1.08-1.296zm-3.528-179.42c1.152 0.648 2.376 1.2959 3.528 1.944v127.44c-0.72 3.384-1.944 6.624-3.528 9.864v-125.21c1.224-0.216 2.016-0.864 0-2.448v-11.592zm3.528 160.99v18.432c-1.368-1.728-2.52-3.384-3.528-5.112v-24.408c0.576-0.648 1.152-1.224 1.8-1.728-0.072 4.968 0.432 9.36 1.728 12.816zm0 80.352v21.096c-1.296-1.728-2.448-3.456-3.528-5.256v-38.952c0.576-1.08 1.08-2.232 1.584-3.312-0.072 9.504-0.288 19.224 1.944 26.424zm0 70.344v39.528c-1.368-1.728-2.52-3.528-3.528-5.472v-28.152c1.152-2.952 2.376-4.824 3.528-5.904zm0 62.712v2.88c-0.072 1.584-0.216 3.24-0.432 4.968-1.08 0.72-2.088 1.872-3.096 2.232v-27.216c1.224 2.952 2.232 6.12 2.88 9.648 0.288 2.448 0.576 4.896 0.648 7.488zm0 55.08v32.616c-1.152-11.088-1.512-22.032-0.504-32.616h0.504zm0 89.496v43.992c-1.224-1.584-2.448-3.168-3.528-4.824v-70.344c0.936 10.584 2.088 21.024 3.528 31.176zm-3.528-212.18v-36.864c0.576 0.648 1.224 1.296 1.944 1.872 1.152 13.824 1.224 26.28-1.944 34.992zm0-100.51v-22.32c0.72 1.368 1.368 2.88 1.944 4.608 0.72 6.192 0.144 12.096-1.944 17.712zm-14.976-213.7c1.224 0.504 2.448 1.008 3.6 1.512 3.528 1.584 7.416 3.744 11.376 5.904v11.592c-0.288-0.216-0.576-0.432-0.936-0.648-2.304-1.44-4.896-3.24-8.208-5.184-1.872-1.08-3.816-2.304-5.832-3.384v-9.792zm14.976 146.66c-2.448 4.896-5.616 9.648-9.144 14.112-2.232-1.512-4.176-3.384-5.832-5.688v-129.24c2.304-0.72 4.32-1.872 5.544-3.384 1.224-1.368 4.104-1.728 5.976-1.512 1.224 0.072 2.16 0.792 3.384 0.504h0.072v125.21zm0 10.656c-2.448 2.736-4.176 6.192-4.608 10.872 0.36 4.536 1.872 9 4.608 13.536v-24.408zm0 34.056v22.32c-1.872 4.968-4.896 9.72-9.36 14.112-2.088-3.6-3.96-7.128-5.616-10.512v-30.888c0.72-1.296 1.44-2.592 2.088-3.96-0.144 12.96 0.648 23.688 3.384 29.664 2.736-6.768 3.888-16.848 4.464-27.792 1.8 1.8 3.528 4.032 5.04 7.056zm0 34.272c-1.872 3.672-4.104 7.272-6.912 10.944-1.152 9.792 1.44 19.08 6.912 28.008v-38.952zm0 51.696v36.864c-1.296 3.384-3.024 6.264-5.4 8.352-4.392-7.776-7.56-15.264-9.576-22.608v-33.192c0.288-0.792 0.504-1.584 0.72-2.304 0.504 15.768 2.304 30.024 9.216 38.88-3.096-20.736-3.744-33.552-1.872-38.376 1.944 4.392 3.744 8.856 6.912 12.384zm0 47.664v28.152c-3.096-6.048-4.104-13.104-2.016-22.032 0.648-2.448 1.368-4.392 2.016-6.12zm0 39.672v27.216c-1.008 0.36-1.872 0-2.592-2.232-2.16-4.68-3.312-9.792-3.384-15.192-0.936-10.008-0.504-16.704 2.88-16.272 1.08 2.088 2.16 4.248 3.096 6.48zm0 130.54v70.344c-8.352-12.024-13.32-24.768-14.976-38.232v-19.8c1.512-12.888 5.76-26.352 12.816-40.464 0.576 9.432 1.296 18.864 2.16 28.152zm-14.976-11.304c8.928-14.112 11.016-30.888 12.312-47.952-3.024 11.592-6.984 22.176-12.312 31.176v16.776zm0-26.928v-11.232c1.44-2.592 2.808-5.4 4.104-8.424-0.792 7.2-2.088 13.824-4.104 19.656zm0-65.736v-26.424c3.456 4.968 4.752 13.68 3.96 26.136-1.728 1.296-3.024 1.368-3.96 0.288zm0-34.92c1.008 1.224 2.088 2.376 3.168 3.528-0.072-7.2 0.936-14.04 3.024-20.52 1.368-8.352 0.288-14.256-3.384-17.712-1.656 3.312-2.592 7.992-2.808 14.112v20.592zm0-100.94v-25.92c1.152 2.448 1.944 5.184 2.088 8.64 0.648 6.408-0.072 12.168-2.088 17.28zm0-85.824v-4.392c0.504 1.368 0.504 2.736 0.216 4.104-0.072 0.072-0.144 0.216-0.216 0.288zm0-150.7c0.504-0.792 0.792-1.728 1.08-2.736 0.216-0.936-0.36-1.584-1.08-1.8v4.536zm-2.592-19.872c0.864 0.288 1.728 0.648 2.592 1.008v9.792c-0.864-0.504-1.728-1.008-2.592-1.44v-9.36zm2.592 156.1c-0.936-1.368-1.872-2.952-2.592-4.608v-123.91c0.864-0.216 1.8-0.432 2.592-0.72v129.24zm0-140.76v4.536c-0.576 1.152-1.44 2.16-2.592 2.88v-5.184c0.216-0.5041 0.504-1.008 0.792-1.584 0.432-0.648 1.152-0.792 1.8-0.648zm0 150.84v4.392c-0.864 1.512-1.728 2.952-2.592 4.464v-12.456c0.648 0.72 1.296 1.512 2.016 2.232 0.288 0.504 0.432 0.936 0.576 1.368zm0 21.24v30.888c-0.936-2.088-1.872-4.176-2.592-6.12v-20.304c0.864-1.44 1.8-2.88 2.592-4.464zm0 43.056v25.92c-0.648 1.8-1.584 3.528-2.592 5.256v-35.496c0.936 1.368 1.872 2.808 2.592 4.32zm0 37.296v33.192c-3.024-11.592-3.024-22.608 0-33.192zm0 68.976v20.592c-0.936-1.152-1.8-2.304-2.592-3.528v-13.896c0.72 1.512 1.584 1.944 2.592 1.224v-4.392zm0 29.088v26.424c-0.504-0.72-0.864-1.8-1.152-3.384-0.504-2.52-1.008-4.896-1.44-7.272v-18.504c0.936 0.72 1.872 1.656 2.592 2.736zm0 80.928v11.232c-0.72 2.232-1.656 4.392-2.592 6.48v-13.104c0.864-1.512 1.728-3.024 2.592-4.608zm0 21.384v16.776c-0.792 1.368-1.656 2.664-2.592 3.888v-16.488c0.864-1.368 1.8-2.736 2.592-4.176zm0 40.392v19.8c-0.72-6.408-0.72-13.032 0-19.8zm-8.568-510.55c2.016 0.576 3.96 1.2959 5.976 2.016v9.36c-1.872-0.936-3.816-1.728-5.976-2.3041v-9.0719zm5.976 153.5c-2.16-4.824-3.384-10.8-3.456-18.072-1.152-3.456-1.584-1.296-2.52 0.144v-105.7c1.944 0.144 4.032 0.072 5.976-0.288v123.91zm0-133.92v5.184c-1.512 0.936-3.384 1.44-5.976 1.368v-2.9521h0.72c3.528-0.4319 4.392-1.8719 5.256-3.5999zm0 145.01v12.456c-2.016 3.312-3.96 6.624-5.976 9.936v-22.392c0.288-2.52 0.504-4.968 0.648-7.488 1.224 2.52 3.096 4.968 5.328 7.488zm0 29.304v20.304c-2.232-5.832-3.384-11.232-3.024-15.912 1.008-1.368 2.016-2.88 3.024-4.392zm0 34.272v35.496c-1.368 2.016-2.88 3.96-4.752 5.832-0.432-0.648-0.792-1.296-1.224-1.944v-24.84c0.216 0.648 0.432 1.224 0.648 1.512 2.808-1.008 3.312-9.648 3.96-17.784 0.432 0.576 0.936 1.152 1.368 1.728zm0 113.76v13.896c-2.808-4.104-4.824-8.496-5.976-13.104v-12.96c0.864-1.584 2.016-3.168 3.456-4.752 0.432 8.424 1.224 14.256 2.52 16.92zm0 23.184v18.504c-1.512-7.776-2.304-14.544-1.944-19.656 0.72 0.288 1.296 0.72 1.944 1.152zm0 88.272v13.104c-1.656 3.384-3.672 6.408-5.976 9.072v-13.968c2.088-2.448 4.032-5.184 5.976-8.208zm0 20.952c-1.872 2.736-3.816 5.256-5.976 7.56v15.696c2.232-2.16 4.176-4.392 5.976-6.768v-16.488zm-5.976 39.312v-9.576c1.944-1.08 3.888-2.16 5.832-3.312-1.224 4.968-3.24 9.288-5.832 12.888zm0-194.69v-36.504c4.824 12.096 5.76 24.336 0 36.504zm0-300.38v-4.752c0.432 0.432 0.504 1.224 0.432 2.376-0.072 0.936-0.216 1.728-0.432 2.376zm-6.84-20.448c2.232 0.5039 4.536 1.152 6.84 1.872v9.0719c-1.8-0.5039-3.816-0.7919-5.904-0.8639-0.288-0.072-0.648-0.072-0.936-0.072v-10.008zm6.84 137.45c-0.144 0.36-0.432 0.648-0.648 0.864-1.656 4.032-3.672 7.632-6.192 10.728v-42.408c2.376-7.272 2.88-12.6 0.936-19.296-0.288-0.936-0.576-1.872-0.936-2.952v-54.864c1.656 1.08 3.6 1.8 5.76 2.0879 0.36 0.0721 0.72 0.1441 1.08 0.1441v105.7zm0-121.75v4.752c-0.216 0.5039-0.504 0.864-1.008 0.864-1.008 0-1.656-1.728-1.656-3.528 0-1.7281 0.216-2.448 1.584-2.52 0.504 0 0.864 0.144 1.08 0.432zm0 9.3599c-3.384-0.2879-6.12-5.5439-6.408-8.2079-0.072-0.72-0.072-1.44-0.432-1.872v9.72c1.584 1.944 3.816 3.168 6.84 3.312v-2.9521zm0 141.41v22.392c-0.792 1.368-1.584 2.664-2.376 3.96-1.656-1.512-3.168-3.312-4.464-5.328v-31.32c0.216 0.288 0.36 0.576 0.576 0.792 0.36 7.704 1.368 15.192 3.888 22.176 1.224-4.248 1.944-8.424 2.376-12.672zm0 78.12v24.84c-3.024-4.968-5.328-10.368-6.84-16.056v-26.28c0.936-1.44 2.088-2.448 3.384-3.168 1.152 8.352 2.304 16.992 3.456 20.664zm0 39.744v36.504c-0.648 1.44-1.44 2.952-2.376 4.392-1.728-3.744-3.168-7.488-4.464-11.232v-18.36c1.224 2.376 2.808 3.96 4.68 4.752-2.16-10.512-2.376-18.144-1.656-24.48 1.44 2.808 2.736 5.616 3.816 8.424zm0 47.304v12.96c-0.792-3.312-1.224-6.696-1.224-10.224 0.288-0.936 0.72-1.8 1.224-2.736zm0 131.83v13.968c-2.016 2.304-4.248 4.32-6.84 5.976v-13.176c2.376-1.944 4.68-4.176 6.84-6.768zm0 20.304v15.696c-2.016 2.016-4.32 3.888-6.84 5.76v-14.976c2.448-1.944 4.752-4.104 6.84-6.48zm0 22.176v9.576c-1.944 2.808-4.248 5.184-6.84 7.272v-13.176c2.232-1.152 4.536-2.376 6.84-3.672zm-6.84-290.88v-18.576c0.792 1.008 1.368 2.376 1.656 4.032 1.152 3.6 0.936 8.208-1.656 14.544zm-5.112-216c1.656 0.2159 3.384 0.576 5.112 0.936v10.008c-1.656-0.072-3.384-0.072-5.112-0.2881v-10.656zm5.112 149.98c-1.512 2.016-3.24 3.816-5.112 5.4v-34.632c2.16-5.256 3.888-9.432 5.112-13.176v42.408zm0-64.656c-1.296-3.816-3.024-8.28-5.112-12.312v-21.528c2.304-1.944 3.6-4.248 3.6-9.576 0.072-4.32-1.584-6.336-3.6-8.856v-8.2801c1.296 2.3041 2.952 4.2481 5.112 5.6881v54.864zm0-69.408c-0.288-0.3601-0.792-0.504-1.728-0.1441-0.72 0.2881-1.152 1.0801-1.08 1.9441 0.216 3.024 1.152 5.904 2.808 7.92v-9.72zm0 141.19v31.32c-3.816-6.264-5.472-15.192-3.6-28.656 1.368-0.864 2.16-2.304 2.808-3.888 0.288 0.432 0.576 0.864 0.792 1.224zm0 40.32v18.576c-1.152 2.88-2.808 6.12-5.112 9.792v-16.488c0.72-3.888 1.368-9 2.088-14.76 1.08 0.792 2.16 1.656 3.024 2.88zm0 30.6v26.28c-1.584-5.976-2.376-12.384-2.304-19.152 0.432-3.096 1.224-5.472 2.304-7.128zm0 68.544v18.36c-1.8-5.184-3.168-10.44-4.32-15.624-0.36-1.8-0.576-3.384-0.792-4.896v-13.464c0.288-1.224 0.648-2.304 0.936-3.384 0.72 8.064 1.944 14.688 4.176 19.008zm0 174.6v13.176c-1.584 1.08-3.312 1.944-5.112 2.736v-12.384c1.8-1.008 3.456-2.232 5.112-3.528zm0 20.016v14.976c-1.584 1.152-3.312 2.304-5.112 3.384v-14.688c1.8-1.08 3.528-2.304 5.112-3.672zm0 19.368v13.176c-1.584 1.296-3.312 2.448-5.112 3.456v-13.968c1.656-0.864 3.384-1.728 5.112-2.664zm-5.112-185.4v-9.144c0.216 2.448 0.36 4.968 0.576 7.416-0.216 0.576-0.36 1.152-0.576 1.728zm0-59.472v-14.4c0.936 4.68 1.152 9.432 0 14.4zm-7.272-266.18c2.16-0.072 4.608 0.072 7.272 0.504v10.656c-2.808-0.2879-5.472-0.8639-7.488-2.4479-0.576-0.36-1.08-0.936-1.512-1.512v-6.624c0.432-0.288 1.008-0.504 1.728-0.576zm7.272 155.88c-2.736 2.448-5.76 4.464-9 6.192v-19.728c1.728-4.176 3.744-8.352 5.472-12.6 1.296-3.096 2.448-5.904 3.528-8.496v34.632zm0-82.368c-1.8-3.6-3.816-6.84-5.976-9.072-1.368-1.44-3.816-5.4-0.936-7.632 2.808-2.16 5.184-3.384 6.912-4.824v21.528zm0-39.96c-0.648-0.864-1.368-1.728-2.016-2.808-2.52-3.888-4.176-8.496-4.752-10.656-0.144-2.088-0.288-4.0321 1.728-4.104 2.304-0.072 2.304 0.432 2.736 2.592 0.432 2.304 1.224 4.608 2.304 6.6959v8.2801zm0 176.26v16.488c-0.864 1.44-1.8 2.88-2.808 4.392-2.664-3.024-4.752-6.192-6.192-9.504v-20.376c1.152-1.512 2.448-2.736 3.96-3.744 0.504 7.776 1.44 14.688 3.384 19.728 0.576-1.296 1.08-3.744 1.656-6.984zm0 41.976v14.4c-0.432 1.872-1.008 3.744-1.872 5.688-3.024-5.184-5.256-10.656-7.128-16.2v-22.608c4.248 3.672 7.128 9.36 8.64 16.992 0.144 0.576 0.288 1.152 0.36 1.728zm0 29.664v13.464c-0.864-6.624-0.576-10.512 0-13.464zm0 35.064v9.144c-1.728 5.112-3.672 9.36-5.976 12.168-1.224-2.304-2.16-4.392-3.024-6.408v-25.056c1.152-1.368 2.448-2.592 3.744-3.816 0.432 1.8 0.864 3.672 1.296 5.472-1.8 5.832-3.6 11.232-1.08 14.256 1.152-3.672 2.952-6.12 4.896-8.424 0 0.864 0.072 1.728 0.144 2.664zm0 158.69v12.384c-2.736 1.152-5.688 2.016-9 2.52v-11.304c3.168-0.792 6.12-2.016 9-3.6zm0 20.16v14.688c-2.736 1.656-5.76 3.24-9 4.752v-14.688c3.24-1.368 6.192-2.952 9-4.752zm0 18.36c-3.24 1.584-6.264 2.952-9 4.032v13.896c3.096-1.008 6.12-2.304 9-3.96v-13.968zm-9-224.71v-14.4c0.576-0.72 1.152-1.44 1.656-2.232 2.16 3.24 3.168 7.344 1.728 13.392-1.152 1.152-2.304 2.16-3.384 3.24zm0-98.064v-12.816c0.144 0.144 0.216 0.288 0.36 0.432 1.512-2.736 1.8-6.696 1.872-10.8-0.432-3.6 0.936-3.528 2.664-2.952-0.36 10.008-1.152 19.512-4.896 26.136zm0-28.872c-0.72 0.36-1.512 0.72-2.304 1.08v-14.832c0.72-2.016 1.512-3.96 2.304-5.976v19.728zm0-154.87c-1.656-2.16-2.16-5.2561 0-6.624v6.624zm0 170.93v12.816c-0.648 1.152-1.44 2.304-2.304 3.24v-23.184c0.288 0.216 0.504 0.576 0.792 1.152-0.648 2.736 0.288 4.464 1.512 5.976zm0 22.68v20.376c-1.152-2.592-1.944-5.328-2.304-8.136v-7.632c0.576-1.8 1.368-3.312 2.304-4.608zm0 32.256v22.608c-0.792-2.376-1.584-4.824-2.304-7.2v-12.024c0.576-1.44 1.224-2.592 2.088-3.528 0.072 0 0.144 0.072 0.216 0.144zm0 41.544v14.4c-0.792 0.72-1.512 1.368-2.304 2.088v-13.464c0.792-1.008 1.584-2.016 2.304-3.024zm0 31.752v25.056c-0.936-2.304-1.728-4.392-2.304-6.336v-15.12c0.648-1.296 1.44-2.52 2.304-3.6zm0 172.44v11.304c-0.72 0.144-1.512 0.216-2.304 0.36v-11.16c0.792-0.144 1.584-0.288 2.304-0.504zm0 21.312v14.688c-0.72 0.288-1.512 0.648-2.304 1.008v-14.832c0.792-0.288 1.584-0.576 2.304-0.864zm0 17.64v13.896c-0.72 0.288-1.512 0.504-2.304 0.72v-13.752c0.792-0.288 1.512-0.576 2.304-0.864zm-2.304-168.77v-5.04c0.504-0.36 1.008-0.432 1.368-0.288-0.36 1.728-0.792 3.528-1.368 5.328zm0-47.16v-2.52c0.432-0.216 0.936-0.432 1.368-0.648-0.432 1.152-0.864 2.16-1.368 3.168zm0-138.67c-0.792 0.432-1.656 0.792-2.52 1.08-0.36-5.472 0.792-10.728 2.52-15.912v14.832zm0 7.848v23.184c-0.36 0.504-0.792 0.936-1.296 1.368-1.944-7.776-3.24-15.624-0.144-24.12 0.432-0.792 0.936-0.936 1.44-0.432zm0 34.416v7.632c-0.288-2.448-0.288-4.968 0-7.632zm0 31.032v12.024c-0.216-0.864-0.504-1.728-0.72-2.592-0.432-4.104-0.072-7.128 0.72-9.432zm0 41.184v13.464c-2.736 2.448-5.328 4.608-7.776 6.552v-10.008c2.448-2.952 5.112-6.48 7.776-10.008zm0 21.672v2.52c-1.872 4.176-4.464 7.776-7.776 10.728v-7.56c2.16-2.304 4.824-4.104 7.776-5.688zm0 10.656c-1.584 3.6-2.016 8.208 0 15.12v-15.12zm0 33.984v5.04c-1.44 4.896-3.744 10.008-6.192 15.192-0.576-0.72-1.08-1.512-1.584-2.304v-18.504c0.648-0.432 1.296-0.792 1.944-1.152-0.576 3.024-0.144 5.76 1.368 8.064 1.8-3.456 3.312-5.616 4.464-6.336zm0 135.36v11.16c-2.448 0.216-5.04 0.36-7.776 0.216v-10.944c2.664 0.144 5.256 0 7.776-0.432zm0 21.672v14.832c-2.448 1.008-5.04 2.016-7.776 2.952v-15.48c2.736-0.576 5.328-1.368 7.776-2.304zm0 17.64c-3.168 1.08-5.76 1.656-7.776 1.656v13.608c2.592-0.36 5.184-0.792 7.776-1.512v-13.752zm-7.776-19.872v-4.392c2.016 0.144 4.104 0.36 6.336 0.576-1.728 1.584-3.96 2.88-6.336 3.816zm0-159.84v-12.168c0.648-0.72 1.296-1.368 1.944-2.088-0.072 3.96 0.216 7.704 3.024 10.224-1.584 1.44-3.24 2.736-4.968 4.032zm0-61.992v-13.896c1.8-3.168 3.672-6.192 5.544-9.072 1.152 3.816 1.584 7.92 0.576 12.456-2.232 3.384-4.248 6.912-6.12 10.512zm0-37.08v-29.808c0.936 4.392 2.088 8.64 3.456 12.816-0.936 5.904-2.088 11.52-3.456 16.992zm0-29.808v29.808c-2.52 10.08-5.76 19.296-9.72 27.576v-64.224c2.088 1.512 4.536 1.44 7.992-3.24 0.432 3.456 1.008 6.768 1.728 10.08zm0 52.992c-3.24 5.544-6.48 11.376-9.72 17.568v23.616c2.952-1.656 6.192-3.816 9.72-6.552v-10.008c-2.952 3.6-5.544 6.408-7.416 7.776 1.872-6.48 4.392-12.6 7.416-18.504v-13.896zm0 41.976v7.56c-2.736 2.376-5.904 4.32-9.72 5.76v-3.96c4.32-1.224 6.552-4.464 8.496-7.992 0.36-0.504 0.792-0.936 1.224-1.368zm0 21.744v12.168c-3.024 2.16-6.264 4.104-9.72 5.832v-22.68c2.664-1.656 5.544-2.16 8.496-2.52-3.744 6.048-6.192 12.096-5.616 18.144 1.512-3.888 3.816-7.56 6.84-10.944zm0 16.632c-2.088 1.44-3.744 3.456-4.968 6.192 1.008 4.32 2.52 8.424 4.968 12.312v-18.504zm0 136.37v10.944c-3.024-0.072-6.264-0.432-9.72-0.936v-11.52c3.384 0.936 6.624 1.44 9.72 1.512zm0 14.616v4.392c-3.024 1.224-6.48 1.872-9.72 2.16v-7.992c2.664 0.576 6.048 1.008 9.72 1.44zm0 8.928v15.48c-0.864 0.288-1.728 0.576-2.664 0.864 0.72 0.36 1.584 0.576 2.664 0.648v13.608c-3.384 0.36-6.624 0.432-9.72 0.216v-29.16c3.456-0.36 6.624-0.936 9.72-1.656zm-9.72-307.66v-34.848c3.312 1.008 6.192 2.664 7.056 7.2 2.088 11.376 1.512 22.392-6.48 28.944-0.216-0.432-0.36-0.864-0.576-1.296zm0-34.848v34.848c-2.808-6.696-6.12-14.256-8.928-20.808-1.584-2.808-2.88-2.808-3.744 0-1.008 2.88-2.232 5.76-3.96 8.64v-26.712c4.896 0.792 9.864 1.944 14.76 3.456 0.648 0.144 1.296 0.36 1.872 0.576zm0 42.408v64.224c-4.536 9.648-10.08 18.072-16.632 25.2v-21.888c9.072-17.352 10.44-42.912 10.512-69.84 1.44-0.864 2.88-0.72 4.248 0.432 0.648 0.72 1.224 1.368 1.872 1.872zm0 77.4c-4.464 8.64-8.856 17.856-13.104 27.792 3.6-0.072 7.92-1.296 13.104-4.176v-23.616zm0 33.768v3.96c-3.888 1.584-8.496 2.52-13.68 2.88 0.936-5.04 5.4-9 13.536-11.88-0.792 1.728-1.44 3.528-0.792 5.256 0.36 0 0.648-0.144 0.936-0.216zm0 7.704v22.68c-0.648 0.288-1.368 0.648-2.016 0.936-2.376-7.848-2.52-15.048-0.576-21.528 0.792-0.864 1.728-1.584 2.592-2.088zm0 156.17v11.52c-1.944-0.36-3.96-0.792-6.12-1.224-1.224 2.088 1.44 3.456 6.12 4.392v7.992c-3.744 0.36-7.344 0.144-9.864-0.576-2.376-0.648-4.68-1.8-6.768-3.384v-25.776c5.76 3.312 11.376 5.688 16.632 7.056zm0 26.712v29.16c-0.72-0.072-1.44-0.144-2.16-0.288-4.392-0.504-9.432-1.872-14.472-4.248v-24.408c5.976 0.36 11.52 0.288 16.632-0.216zm-16.632-161.06v-5.544c2.52-3.24 5.184-6.264 8.208-8.568-0.72 2.952-0.72 5.904 0 8.784-2.736 2.232-5.472 3.96-8.208 5.328zm0-10.08c0.864-2.376 1.944-4.752 3.096-7.128-1.08 0.72-2.16 1.44-3.096 2.304v4.824zm0-73.44c4.824-23.904 4.608-47.448 3.528-70.92-1.224 1.152-2.376 2.448-3.528 3.6v67.32zm0-103.61v26.712c-2.592 4.32-6.336 8.712-12.024 13.32-6.696-6.624-7.056-15.768-6.552-25.2-1.296-1.872-2.52-2.016-3.816-0.432-2.808 9.792-6.408 19.8-16.416 21.168-6.264-6.192-8.496-15.336-8.928-24.336-1.296-3.312-2.52-3.456-3.816-0.504-2.016 9.504-5.616 16.56-12.672 18.288-7.488-10.008-7.992-18.144-7.56-26.064-0.36-3.816-1.44-3.816-3.24 0-1.656 4.32-3.672 8.424-7.344 11.88v-139.54c25.92-1.008 49.968 10.944 55.728 36.216 4.896 21.024-11.448 52.056-41.832 51.048 4.824 25.128 24.48 36 39.96 35.856 9.504-0.288 19.008 0 28.512 1.584zm0 36.288c-2.16 2.088-4.248 3.96-6.408 4.608-2.88 7.848-3.96 16.416-3.24 25.632-2.448 30.024-5.472 59.904-15.048 87.768 9.432-4.608 17.64-10.8 24.696-18.432v-21.888c-1.368 2.52-2.808 4.824-4.536 6.984 1.872-5.832 3.312-11.592 4.536-17.352v-67.32zm0 135.94v4.824c-0.936 2.448-1.656 4.896-2.16 7.344l2.16-2.808v5.544c-3.6 1.872-7.2 3.096-10.8 4.032 2.304-7.776 5.616-14.4 10.8-18.936zm0 142.2v25.776c-9-6.696-15.408-20.808-12.528-34.056 4.32 3.24 8.496 5.976 12.528 8.28zm0 33.984v24.408c-10.008-4.68-20.232-13.464-26.64-28.728 9.72 2.376 18.576 3.744 26.64 4.32zm-82.368-147.89c30.096-14.4 52.2-52.344 51.552-160.99-5.112 3.744-9.504 3.312-13.176-1.368-1.728 48.672-7.056 92.52-20.232 125.71 9.216-38.736 11.376-85.536 11.304-134.86-2.808 3.168-5.688 6.048-9.936 7.776-2.952 52.848-8.352 104.26-19.512 152.5v11.232zm0-153.94c1.008-7.704 2.088-15.624 3.096-23.976-1.08 0.864-2.088 1.584-3.096 2.232v21.744zm0-171.29v139.54c-2.16 2.16-4.968 4.032-8.64 5.544-6.192-7.56-7.2-17.568-4.752-29.304 0.864-2.376-0.072-2.952-2.808-1.8-2.16 5.904-6.192 11.232-14.112 15.048-5.04-8.064-5.184-18.864-5.184-29.736 0.216-4.104-1.08-4.392-3.744-0.864-2.16 8.064-7.848 12.816-15.048 15.984-4.104-9.36-4.464-20.088-2.808-31.536-0.216-2.736-1.368-2.592-3.528 0.576v-44.928c12.096-19.368 29.88-34.128 51.048-37.512 3.168-0.5759 6.408-0.8639 9.576-1.0079zm0 149.54c-6.984 4.752-10.656 4.968-11.016 0.504-7.2 59.904-18.144 101.95-32.472 127.58 14.472-36.648 21.024-87.552 22.608-147.24-4.32 0.504-7.776 8.64-9.864 27.936-8.424 58.104-18.432 101.02-29.88 131.26v24.624c13.248-6.12 23.688-13.68 32.904-29.736 14.184-24.624 21.024-62.208 27.72-113.18v-21.744zm0 164.45v11.232c-1.008 0.432-2.016 0.936-3.024 1.368 1.08-4.176 2.088-8.352 3.024-12.6zm-60.624-112.32c9.216-21.168 13.248-50.04 14.328-83.16-3.744 2.448-7.56 4.248-11.304 4.608-0.648 12.096-1.656 23.472-3.024 33.408v45.144zm0-163.15v44.928c-0.072 0.072-0.144 0.216-0.216 0.288-2.376 5.328-6.768 10.296-15.552 14.184 5.256-15.192 2.088-31.536 8.496-45.72 2.088-4.752 4.536-9.288 7.272-13.68zm0 118.01c-2.016 13.968-4.896 25.128-9.216 31.968 2.448-22.752 2.808-44.064 5.976-59.616 2.808-13.464-0.648-23.544-1.224-30.96-3.024 2.88-5.976 5.4-8.928 5.544-2.304 46.944-7.92 91.44-18.864 132.12 14.688-5.544 25.056-17.424 32.256-33.912v-45.144zm0 133.06v24.624c-4.464 2.016-9.216 3.96-14.328 5.976 4.968-8.352 9.72-18.432 14.328-30.6z" fill="#fff"/>
<path d="m273.38 470.09h20.52v32.616h-20.52c-9.288 0-16.92-7.344-16.92-16.344 0-8.928 7.632-16.272 16.92-16.272z" fill="#fff"/>
<path d="m221.9 488.23c0.72-0.216 1.44-0.36 2.232-0.504 0.144-1.584-0.576-2.952-2.232-4.104v4.608zm0-57.096c2.448-2.448 3.816-5.184 3.312-8.424-1.368-1.944-2.52-2.52-3.312-1.8v10.224zm0 74.376v-11.952c1.08-0.216 2.304 0.288 3.672 1.512 0.504 4.608-0.504 8.208-3.672 10.44zm-6.696-91.512c-6.336 13.752-12.672 27.504-18.936 41.184-10.656 17.424-21.384 14.328-32.04 12.528-2.16-0.576-4.032-1.44-5.832-2.448v6.696c7.776 1.656 15.192 1.584 22.176-0.288 2.016-1.08 2.952-0.432 2.808 1.944-6.48 3.96-13.032 7.488-19.512 8.568-1.872-0.072-3.672 0.072-5.472 0.216v8.064c9.936-1.872 16.992-7.272 24.408-12.24 1.224-2.592 2.088-1.944 2.664 1.8-6.984 8.424-15.624 15.192-24.696 21.6-1.512 1.008-1.584 2.088-0.216 3.168 4.392 1.944 6.984 4.968 9.216 8.28 2.592 1.8 4.464-1.008 5.688-8.28 2.952-2.88 4.968-7.632 6.552-13.32 4.248-3.168 7.992-6.84 11.592-10.656 1.152-0.792 3.096-0.864 5.688-0.216 3.384 1.44 6.336 3.24 6.12 7.488 4.608-1.08 5.976-0.072 4.104 3.024-0.432 3.096 0.864 4.032 4.032 2.952 2.304-2.88 5.112-4.824 8.352-5.832v-4.608c-2.16-1.44-5.76-2.592-10.8-3.456-12.384-4.464-14.976-9.432-13.032-14.616 4.32-13.536 11.448-23.976 20.808-31.968 1.08-0.792 2.16-1.584 3.024-2.448v-10.224c-0.144 0.072-0.288 0.216-0.36 0.432-5.256 1.008-6.12-2.808-6.336-7.344zm6.696 79.56v11.952c-0.936 0.648-2.088 1.224-3.456 1.656 1.872-4.032 2.232-8.064 1.224-12.096 0.648-0.864 1.44-1.368 2.232-1.512zm-63.504 27.36v-11.088c1.944-0.36 3.312 0.864 4.032 3.672-3.168 2.808-3.384 5.688-2.232 8.496-0.648-0.36-1.224-0.72-1.8-1.08zm0-55.656c-2.304-1.296-4.32-2.952-6.408-4.464-3.672-3.888-7.416-5.976-11.16-6.408-0.432 3.6-1.08 7.2-3.672 10.728-1.872 1.656-1.656 2.52 0.792 2.808 1.8 0.504 3.24-0.072 4.32-1.584 5.544 2.664 10.944 4.536 16.128 5.616v-6.696zm0 17.136c-2.736 0.216-5.328 0.432-7.776-0.216-4.752-1.512-8.424-1.224-11.016 0.792-1.368 0.792-1.296 1.584 0.216 2.376 2.736 2.232 3.672 5.112 2.808 8.712-1.872 1.44-1.584 2.448 0.864 3.168 3.6-0.288 5.4-3.024 6.912-6.12 2.88 0 5.544-0.216 7.992-0.648v-8.064zm0 27.432v11.088c-5.616-3.744-4.392-6.984-2.088-10.224 0.792-0.432 1.44-0.72 2.088-0.864zm-22.68-18.576c-0.504-1.8-1.44-3.312-5.472-2.376-5.904 3.24-7.992 7.56-1.656 14.328 0-4.32 2.088-8.352 7.128-11.952zm-1.8-30.312c-4.392-1.08-8.208 0.72-11.88 3.816-1.152-8.928 3.24-11.664 11.448-10.152 1.944 2.808 2.088 4.968 0.432 6.336z" fill="#fc0"/>
<path d="m238.68 68.976c0.576-8.568-11.664-6.192-6.192-0.72 5.328 3.528-2.016 7.056-7.92 2.88-15.336-7.992-31.68-1.296-31.536 11.736 7.992-7.4879 17.712-8.5679 28.872 3.4561 10.152 1.728 17.496 3.6 20.376 12.744 0.504 7.848-1.224 9.648-7.2 6.12-8.928-6.552-17.064-11.952-24.912-12.672 5.976 4.104 11.592 8.424 17.064 13.464 6.408 6.696 13.032 11.376 20.232 8.712 2.952-3.888 2.592-7.344 1.8-10.8-6.912-10.296-7.056-17.496-6.696-25.056-2.16-1.944-3.456-5.832-3.888-9.864z" fill="#fc0"/>
<path d="m197.57 87.552c5.616-4.968 10.44-5.184 14.616-0.7921-5.184-0.5039-10.08-0.216-14.616 0.7921zm36.792 8.064v0.432c-0.072 0-0.072 0-0.072 0.072-1.512 0.36-3.312 0.216-7.416-3.96 3.816 0.864 7.2 1.8 7.488 3.456z" fill="#f00"/>
<path d="m575.78 319.9v1.656 0.648c-0.072 4.824-1.08 9.432-3.168 13.032-0.432 0.72-0.864 1.944-1.728 0.648-1.08-1.584-2.448-5.112-3.024-5.616-0.288-0.216-0.432-0.432-0.648-0.648v-48.456c0.792 1.08 1.584 2.232 2.16 3.312 1.8 3.168 3.96 8.568 4.248 11.952 0.504 5.688 2.088 14.832 2.16 23.472zm-8.568-48.456c0.144 0.144 0.216 0.216 0.216 0.288 0.648 1.368 0.216 2.448 1.512 4.464 1.008 1.584 2.088 3.096 3.24 4.176 1.44 1.368 1.656 0.792 2.088-1.296 0.504-2.376 0.36-5.472-0.864-8.352-1.296-2.952-3.672-5.688-6.048-6.696-0.072 0-0.072 0-0.144-0.072v7.488zm0-7.488v7.488c-0.576-0.72-2.016-2.016-2.376-2.592s-0.792-1.224-1.296-1.872v-5.688c1.152 1.224 2.376 2.088 3.672 2.664zm0 17.208v48.456c-0.864-1.152-0.792-2.376-0.72-3.312 0.072-3.384 0.072-5.472 0-6.768-0.144-2.304-2.016-1.512-2.808-3.672-0.072-0.144-0.072-0.216-0.144-0.36v-40.032c0.504 0.792 1.008 1.656 1.512 2.448 0.72 1.152 1.44 2.16 2.16 3.24zm-3.672 75.744c2.304-2.952 3.456-6.768 3.528-10.44 0.072-2.088 0.36-7.416-0.216-9.216-0.648-2.16-0.648-3.96-2.016-6.12-0.432-0.72-0.864-1.296-1.296-1.8v27.576zm0-95.616v5.688c-1.656-2.376-3.456-5.112-3.6-8.064-0.072-1.584 1.152-0.792 1.656-0.072 0.576 0.936 1.296 1.728 1.944 2.448zm0 14.184c-0.864-1.512-1.584-3.024-2.232-4.392-1.728-3.816-3.384-7.344-5.472-10.872-1.8-3.168-3.96-6.84-4.608-9.072-0.288-0.936-1.08-1.512-1.584-2.16-0.648-0.72-2.016-0.648-3.096 0-0.216 0.072-0.36 0.216-0.504 0.288v11.016c0.216 0.864 0.504 1.512 0.36 2.592 0 0.432-0.144 1.008-0.36 1.656v5.616c0.288 0.072 0.576 0.144 1.008 0.072 3.096-0.072 5.76-0.144 7.128 0.864 0.936 0.72 1.872 1.296 3.024 1.944 1.8 1.08 2.376 3.384 2.16 5.04-0.36 2.448-0.072 3.96 0.576 4.464 1.872 1.584 1.8 2.304 2.304 4.536 0.72 3.672 0.504 7.992 0.432 12.528-0.072 4.392-0.576 11.592 0.864 15.912v-40.032zm0 53.856v27.576c-1.296 1.656-2.88 2.952-4.968 3.888-1.224 0.648-4.032 1.8-5.616 2.088-1.296 0.288-1.944-0.36-2.592-1.224-0.864-1.08-2.736-3.024-4.32-4.32v-29.88c0.144 0.072 0.288 0.144 0.504 0.144 1.08 0.36 3.168 1.08 3.672-0.504 0.576-2.016 1.656-3.384 2.664-3.96 1.728-0.936-0.576-2.952-2.016-2.664-1.512 0.216-1.872 0.72-2.088 0.144-0.36-0.936-1.224-1.8-2.16-2.16-2.016-0.864 1.728-2.952 6.192-2.592 2.376 0.144 3.888-0.144 4.248-1.224 0.216-0.792-0.072-2.448-0.72-3.312-0.72-1.152-3.888-0.288-5.04 0.576-1.584 1.152-3.744 0.576-3.312-1.224 0.216-0.72 2.664-1.368 3.384-2.232 0.576-0.864-0.072-2.016-0.648-2.448-2.16-1.512-1.872-1.944-0.72-2.52 1.44-0.648 4.104-1.008 4.104-2.304-0.072-1.44 0-3.384-1.08-3.456-1.08-0.144-3.312 0.792-4.32 1.224s-1.944 0.792-2.664 1.08v-2.736c0.576-0.72 1.152-1.512 1.512-2.448 0.72-1.8 0-3.384-1.512-3.24v-18.072h1.44c3.6-0.072 5.616 0.792 6.264 2.016 0.864 1.512 1.8 2.952 1.584 6.192-0.072 0.936-0.144 3.096 0.144 4.104 0.432 1.8 1.224 0.144 1.944 0.072 1.008-0.144 1.08 1.08 1.584 3.024 0.576 2.448 0.432 7.344 0.072 12.456-0.216 3.888-0.936 7.56-0.072 11.448 0.504 2.16 1.512 5.4 2.304 6.768 0.576 1.008 0.36 1.944 0.144 2.016-0.864 0.36-3.24-1.296-2.808 1.008 0.576 2.952 2.808 4.176 4.896 6.696zm-17.496 33.768c1.296-0.216 1.008-0.864 0-1.728v1.728zm0-113.83v11.016c-0.072-0.288-0.072-0.648-0.144-1.008-0.288-2.592-0.288-5.688-0.288-7.632 0-1.368-0.288-1.8 0.432-2.376zm0 15.264v5.616c-0.936-0.216-0.864-1.08-0.792-2.232 0-0.864 0.504-2.232 0.792-3.384zm0 9c-1.296 0.072-2.88 0.144-3.744 0.792-0.576 0.432-0.432 1.512-0.72 2.448-0.576 2.016-1.152-0.936-1.368-1.512-0.864-2.016-1.008-3.96-0.576-6.192 0.864-4.176 1.512-7.704 2.16-11.016 0.792-4.248 0.36-8.424 0.648-12.744 0.144-2.088-0.504-2.448-1.656-2.52-1.296-0.072-2.736 0.864-3.528 2.88-0.864 2.16-3.6 5.76-6.624 9.936-0.648 0.864-1.008 2.52-1.008 3.528 0.144 1.368 0.072 2.52-0.072 3.6v11.088c0.288 2.016 0.432 4.104 0 5.904v2.88c0.432 0.432 1.08 0.72 1.44 1.8 0.504 1.512 2.016 3.888 3.312 6.048 1.44 2.304 2.376 2.664 3.672 1.8 0.72-0.504 1.152-1.656 1.872-2.232 1.08-0.936 2.16 0.576 2.16 1.656 0 1.368-0.216 2.232 2.52 0.432 0.576-0.288 1.08-0.504 1.512-0.504v-18.072zm0 23.76v2.736c-2.088 0.72-2.952 0.648-1.728-0.792 0.504-0.576 1.152-1.224 1.728-1.944zm0 30.168v29.88c-0.576-0.576-1.152-0.936-1.584-1.152-3.096-1.44-1.512-2.448-3.024-3.312-0.576-0.288-0.936-0.864-1.08-1.584-0.288-0.936-0.288-3.024-0.288-4.536-0.072-1.728 0.144-1.872 0.36-3.384 0.36-2.16-0.648-4.752-0.864-6.624-0.792-5.4 0.72-7.848 1.584-6.192 1.008 2.088 3.672 5.04 4.536 2.376 0.36-1.008 0.36-2.016 0.072-2.592-1.368-2.952-0.792-3.168 0.288-2.88zm0 33.912v1.728h-1.224c-5.328-0.216-10.584-2.376-15.264-5.112v-67.68c2.016 4.464 6.408 10.8 6.696 14.904 0.216 4.392 0.432 8.64 0.216 12.96-0.216 6.264-1.008 7.344-1.08 13.032-0.072 4.608 0.144 10.656 0.144 15.336 0.072 1.8 1.512 3.888-1.296 2.16-1.44-0.936-2.664-2.376-2.016 0.144 0.36 1.512 1.152 2.808 2.448 4.104 3.456 3.384 8.784 6.264 10.872 7.92 0.216 0.144 0.36 0.36 0.504 0.504zm-16.488 9.432h0.072c1.368 0.72 2.592 0.72 3.528 0.144 1.008-0.648 3.672-2.592 6.696-3.24 1.08-0.216 2.448-0.72 0.216-1.368-3.6-1.152-7.2-2.52-10.512-4.104v8.568zm0-122.47v-3.456c0.144 0.072 0.288 0.072 0.432 0.072 1.08 0.072 1.224 1.08 0.36 1.8-0.576 0.432-0.648 0.72-0.72 1.008 0 0.216 0 0.432-0.072 0.576zm0-3.456v3.456c-0.504 2.448-2.376 4.968-3.96 7.416-1.728 2.592-3.672 4.896-5.472 7.704-0.648 0.936-1.224 2.016-1.8 3.024v-18c0.144-0.072 0.36-0.072 0.504-0.072 2.52-0.216 4.68 1.152 5.688 0.792 1.08-0.288 2.592-1.296 1.368-2.808-0.792-1.08-0.216-1.512 0.648-1.512 0.864-0.072 2.088-0.072 3.024 0zm0 17.856c-0.144 1.224-0.504 2.232-0.936 3.456-0.792 1.872-0.144 1.656 0.216 3.528 0.288 1.296 0.504 2.736 0.72 4.104v-11.088zm0 16.992v2.88c-0.36-0.36-0.576-0.864-0.216-2.088 0.072-0.216 0.144-0.504 0.216-0.792zm0 10.584c-0.288-0.72-0.576-1.296-0.72-1.872-0.864-2.88-1.368-4.824-2.232-7.704-1.296-4.104-1.512-11.304-1.224-16.704 0.144-2.16 0.432-3.24-1.224-0.648-1.728 2.592-3.816 5.688-5.832 9v77.112c0.288 0.504 0.792 1.008 1.656 1.728 2.736 2.232 5.976 4.68 9.576 6.768v-67.68zm0 71.928v8.568c-1.944-1.08-5.472-4.536-11.232-5.76v-9.864c2.952 2.592 6.84 4.968 11.232 7.056zm-25.56-179.28c0.216 1.368 0.432 2.88 0.648 4.464 0.072 0.36-0.216 1.656-0.648 3.384v-7.848zm14.328 65.52v18c-1.08 1.872-2.16 3.888-3.168 5.544-2.448 4.032-5.76 8.28-7.776 12.888-0.864 1.872-1.224 3.6-2.304 5.832-0.216 0.504-0.648 1.296-1.08 1.584v-11.592c0.648-2.448 1.728-5.04 2.52-7.416 0.576-1.8 1.584-4.104 3.6-7.128 0.576-0.864 0.864-2.16 1.152-3.312 0.72-3.528 2.448-7.992 4.32-12.96 0.36-1.08 1.584-1.368 2.736-1.44zm0 23.904c-3.672 5.688-7.272 11.88-9 16.704-2.592 6.984-4.032 10.8-3.528 18.504 0.288 4.68 0.072 12.384 2.736 17.424 2.808 5.4 3.384 11.16 4.536 16.56 0.288 1.224 2.88 4.32 3.6 5.328 0.864 1.152 1.08 1.872 1.656 2.592v-77.112zm0 82.8v9.864c-1.728-0.432-2.664-1.368-2.952-2.808-0.432-2.448-0.648-5.688-0.576-7.92 0-0.648 0.936-1.656 1.584-0.936 0.576 0.576 1.224 1.224 1.944 1.8zm-104.54-187.99c-2.016-2.16-5.112-5.976-9.432-9.432-4.32-3.528-5.184-7.2-1.224-11.304 1.224-1.224 0.936-3.096 2.16-6.264 1.008-2.52 3.456-6.336 5.04-7.632 2.52-2.232 9.936-2.664 15.192-2.448 3.816 0.216 10.08-0.36 14.472 0.288 3.744 0.504 4.824 1.656 5.76 5.472 0.864 3.672 1.296 9.432 1.44 13.896 0.144 4.176-2.16 10.152-2.808 14.472-0.216 1.872 0.072 2.88 1.152 0.576 3.456-7.632 6.552-16.704 10.224-23.04 2.088-3.528 2.664-7.704 7.344-8.568 2.664-0.576 6.12-0.504 8.856-0.432 3.024 0.072 6.264 0.576 9 2.592 2.52 1.944 5.904 6.12 10.08 9.144 3.816 2.664 6.768 6.048 7.416 9.288 0.72 4.104-0.072 6.912-2.304 9.72-2.808 3.528-6.336 4.752-10.152 6.768-2.448 1.224-0.36 1.8 0.936 1.368 6.624-2.304 10.44-2.88 12.6-1.872 1.224 0.648 2.88 1.8 3.24 3.816 0.432 2.232 0.72 5.4 1.224 9.36v7.848c-1.008 3.888-2.88 9.864-3.744 11.304-0.936 1.584-2.808 2.016-5.328 2.304-5.616 0.792-14.76-1.8-19.728-2.448-2.448-0.36-2.016 0.144 0 0.72 8.712 2.448 15.552 5.904 22.248 10.872 3.888 2.88 4.32 2.736 3.816 8.28-0.432 4.392-2.232 9.36-3.816 12.528-2.088 4.32-5.976 8.784-10.44 10.8-3.312 1.44-10.008 4.32-12.096 7.128-4.536 5.76-9.648 13.464-13.464 15.192-3.672 1.656-7.56 1.224-11.448-0.576-2.592-1.224-4.032-0.792-5.76-3.384-1.584-2.304-2.304-4.896-2.808-7.848-1.008-5.04-2.016-12.456-3.024-17.496-0.432-2.448-1.296-7.272-2.16-2.376-1.008 5.976-3.528 16.848-7.2 22.536-1.368 2.088-2.808 3.888-4.392 3.672-8.568-1.296-12.312-2.952-13.608-4.968-1.368-2.16 0-6.264 1.08-8.28 0.72-1.368 1.584-2.52 1.944-3.816 0.432-1.368 0.72-3.096-1.008-1.584-2.16 1.944-3.744 4.032-4.968 6.84-0.792 1.944-3.24 2.016-5.328 2.088-4.176 0.144-8.136-0.576-12.096-2.952v-50.4c0.504-0.072 1.08-0.216 1.584-0.288 3.456-0.432 9-1.512 13.32-0.216 0.576 0.216 3.744-0.432 5.688-1.152 3.744-1.368 1.944-1.872-1.44-3.096-3.024-1.008-8.064-0.864-11.736-3.024-2.232-1.296-5.04-2.88-7.416-4.752v-27.936c2.016-1.152 4.68-1.368 6.84-0.792 5.616 1.368 11.304 7.2 15.48 9.864 1.728 1.08 2.88 1.872 0.792-0.36zm90.216 113.54v11.592c-0.432 0.288-0.72 0-0.576-2.016 0.144-2.088-0.216-5.4 0.288-8.136 0.072-0.432 0.216-0.936 0.288-1.44zm-113.33 68.184v-57.816c0.792 1.224 1.512 2.448 2.232 3.6 0.864 1.368 1.872 2.592 2.232 4.032 0.864 2.88 1.656 4.896 3.168 7.344 0.432 0.792 0.864 2.592 0.864 3.96-0.072 2.88 0.36 5.76 0.36 8.496-0.072 7.056-2.16 12.96-4.32 19.512-1.296 3.816-3.096 7.344-4.536 10.872zm0-99.576c-0.504-0.288-1.008-0.648-1.512-1.008-3.456-2.448-4.608-6.12-5.4-10.152-0.432-2.376-0.648-4.68-0.504-7.344 0.144-3.024-1.512-11.952-1.368-19.584 0.072-5.256 3.024-10.8 8.784-12.312v50.4zm0-62.928c-1.872-1.512-3.6-3.168-4.608-4.968-3.384-6.048-3.096-12.744 2.592-21.096 0.504-0.792 1.224-1.44 2.016-1.872v27.936zm0 104.69v57.816c-0.216 0.576-0.432 1.152-0.72 1.8-1.584 4.392-3.96 8.424-7.344 12.384-3.096 3.672-5.832 7.776-9.288 11.664-2.304 2.664-4.824 5.4-7.92 7.56-1.08 0.72-2.16 1.44-3.24 2.232v-12.384c0.36-0.576 0.648-1.08 1.008-1.584 2.232-3.24 3.24-6.552 3.672-7.92 0.864-2.952 3.312-8.928 3.672-15.264 0.432-8.064 1.728-15.408 5.184-15.408 2.16-0.072 2.088-0.288 2.664-3.384 0.36-1.944 0.72-3.6 0.504-6.696-0.36-3.888-0.432-7.632-1.008-11.16-0.864-5.472-1.512-10.8-2.52-16.272-1.152-6.12-0.288-13.68 1.224-17.352 0.288-0.72 0.648-1.08 1.224-1.08 1.08-0.072 0.648 1.728 0.432 3.456-0.576 3.528 1.152 7.56 1.872-1.224 0.288-2.736-0.72-4.896-1.224-7.2-0.864-3.888-2.592-7.2-1.152-9 1.08-1.368 2.304 0.432 2.376 0.936 0.072 1.8 0.72 4.104 1.512 6.336 1.296 3.816 2.088 7.632 3.6 11.376 1.512 3.888 3.528 7.272 5.472 10.368zm-28.512 62.352c0.504-2.088 0.936-4.176 1.368-6.408 0.36-2.016 0.864-4.176-0.36-5.04-0.504-0.432-0.288-1.368-0.288-2.16 0-0.648-0.288-1.008-0.72-1.224v14.832zm0-59.184c0.288 0.144 0.648 0.288 1.008 0.36 1.152 0.504 2.232 1.44 2.952 2.52 0.648 1.152 0.72 1.944-0.432 1.728-0.648-0.144-0.36 1.368-0.072 2.16 0.576 1.728 2.304 3.528 3.24 5.688 0.792 1.8 1.944 3.528 2.736 5.04 1.512 2.88 1.224 4.392 0.72 7.632-0.504 3.312-2.232 6.768-3.168 8.64-2.808 5.472-3.024 9.432-2.88 15.192 0.144 5.328 0.216 6.984-1.224 11.808-0.504 1.656-1.008 3.312-1.224 4.464-0.288 1.944 0.216 2.088 0.792 0.72 0.36-1.008 0.648-2.52 0.936-2.952 1.08-1.8 1.728-3.744 2.088-5.76 0.864-3.96 0.216-8.064 0.864-11.88 0.576-3.96 2.448-9.36 4.464-13.032 2.304-3.96 2.664-9.504 1.728-16.2-1.08-7.776-3.024-15.48-4.824-21.6-0.432-1.224-1.728-2.376-3.672-3.312-1.224-0.648-2.592-1.44-4.032-2.232v11.016zm0-16.056c1.512 0.792 2.88 1.512 4.176 2.16 1.44 0.72 2.808 0.936 3.816 0.144 1.656-1.296 2.736-5.04 3.24-7.92 0.144-1.008 0-2.664 0-3.312 0-1.584-0.144-2.232-1.224-3.456-1.152-1.152-2.88-2.232-4.032-3.456-1.512-1.728-2.952-3.384-4.824-4.68-0.36-0.216-0.72-0.504-1.152-0.72v21.24zm0-21.24v21.24c-1.224-0.576-2.448-1.152-3.744-1.728v-21.312c1.368 0.504 2.664 1.152 3.744 1.8zm0 26.28v11.016c-0.72-0.216-1.368-0.504-1.8-1.08-0.432-0.504-0.72-1.008-0.864-1.512-0.072-0.648-0.576-1.08-1.08-1.44v-9c1.368 0.648 2.592 1.368 3.744 2.016zm0 55.368v14.832c-1.224 5.184-2.52 10.08-3.6 15.552 0 0.36-0.072 0.576-0.144 0.792v-32.472c0.432 0.576 1.08 1.008 1.368 0.936 0.72-0.072 1.728 0 2.376 0.36zm0 33.552v12.384c-1.224 0.792-2.448 1.656-3.744 2.448v-7.848c1.08-2.304 2.376-4.824 3.744-6.984zm-3.744-38.376v-1.584c0.36 0.432 0.216 0.936 0 1.584zm0-19.584v-1.944c0.72-0.072 1.512 0.144 1.44 0.864-0.072 1.008-0.792 1.152-1.44 1.08zm0-12.168v-5.04c0.288 0.216 0.504 0.36 0.792 0.576 0.864 0.648 0.504 1.08 0.648 2.088 0.144 0.792 0.288 1.8 0.144 2.088-0.216 0.36-0.864 0.36-1.584 0.288zm0-46.872v21.312c-3.528-1.656-7.344-3.168-11.016-4.176-2.448-0.72-3.672-0.36-5.112 0.36-2.592 1.296-5.112 4.392-7.992 7.056-4.032 3.744-8.496 6.912-11.52 9.864-1.584 1.584-2.736 2.736-3.384 2.304-0.576-0.36-0.36-2.232 1.44-7.416 1.8-5.256 3.024-11.448 4.752-15.768 0.72-1.8 1.944-2.808 3.6-3.312 2.16-0.576 3.888-2.376 6.408-4.032 3.312-2.016 7.848-5.472 11.304-6.912 1.728-0.72 3.816-0.072 5.976-0.216 1.728-0.144 3.672 0.288 5.544 0.936zm0 26.064c-1.8-0.864-3.744-1.656-6.048-2.376-1.44-0.432-1.872 0.504-1.224 1.512 1.368 2.088 2.88 5.184 4.176 6.84 0.576 0.792 0.864 1.368 0.936 1.656 0.144 0.576 1.296 0.792 2.16 1.368v-9zm0 15.768c-2.016-1.512-4.32-3.312-5.76-5.184-1.944-2.448-3.528-5.688-3.888-9.144-0.504-5.256-5.616-6.12-7.848-4.392-7.272 5.688-16.344 14.328-23.04 21.096-7.344 7.272-7.56 20.16-6.696 32.616 0.36 5.328-0.432 10.944 0.576 15.552 0.72 3.168 2.52 5.616 2.88 9.072 0.144 1.152 0.288 1.872 1.728 1.656 1.296-0.144 3.024-0.72 4.68-1.368 1.008-0.288 2.304-0.216 2.592-1.224 0.504-1.728 2.16-2.016 4.248-1.872 0.648 0.072 1.512-0.648 2.376-1.512 0.648-0.648 1.728-0.864 2.664-1.08 1.44-0.288 2.16-0.576 2.52-1.008 1.008-1.296 2.232-1.872 3.744-2.736 1.584-0.936 3.528-2.16 6.984-2.952 1.368-0.288 2.952-0.792 4.752-1.296 1.296-0.36 2.52-0.144 0.864 1.224-2.016 1.728-4.392 3.024-6.84 4.464-8.64 5.256-19.44 8.496-23.184 13.608-0.792 1.152-0.72 2.16 0.144 2.88 7.272 6.192 13.464 8.28 19.152 8.352 5.472 0.072 11.088-0.936 15.48-2.52 1.224-0.432 1.584-0.36 1.872-1.44v-32.472c-0.432-0.504-0.648-1.224-0.504-1.944 0.144-0.648 0.36-1.152 0.504-1.584v-1.584c-0.144-0.144-0.36-0.288-0.648-0.432-0.504-0.144-1.368-0.144-2.16 0.648-0.792 0.72-2.304 1.008-3.816 0.936-2.016-0.072-2.232-0.72-2.232-2.52 0-1.512 0.36-2.952 2.592-3.024 1.656-0.144 3.168-1.224 4.464-1.368 2.16-0.288 1.512-1.944 0.72-3.528-0.36-0.648-1.368-0.144-1.8 1.008-0.288 0.864-0.504 1.296-1.296 1.584-1.008 0.432-3.816 0.576-5.04 0.576-1.44-0.072-1.512-0.648-1.296-3.384 0.144-1.44 0.36-2.16 1.152-2.304 2.376-0.36 4.968-0.288 7.488-0.648 2.952-0.432-0.936-0.936-1.728-1.008-3.168-0.144-8.352-0.216-10.728-0.216-1.152 0-1.224-1.008-1.152-2.232 0.072-1.296 0.504-2.016 2.088-1.872 1.944 0.216 5.76-0.216 8.568-0.288 4.32-0.072 1.512-2.088-1.296-2.448-2.088-0.288-5.472-0.072-6.624-0.144-1.08-0.144-1.296-1.08-1.152-1.8 0.144-0.792 0.432-1.296 0.936-2.016 1.152-1.656 3.312-0.432 8.208-0.576 1.224 0 1.872-0.648 0.504-1.296-1.8-0.864-2.304-1.872-2.304-2.52-0.216-3.096 1.296-3.096 3.744-2.16 0.648 0.216 1.8 0.648 2.808 0.864v-5.04zm0 15.264v1.944c-0.216 0-0.36-0.072-0.504-0.144-1.368-0.288-1.224-1.368 0.072-1.728 0.144 0 0.288-0.072 0.432-0.072zm0 66.888v7.848c-0.504 0.36-0.936 0.648-1.44 0.936-2.808 1.872-2.52 1.152-1.296-2.232 0.648-1.728 1.584-4.104 2.736-6.552zm-5.616 1.44c-1.656 6.192-4.968 11.952-5.904 14.472-0.144 0.288-0.936 0.36-1.296 1.008-0.576 0.864-1.44-0.072-1.872-0.576-0.648-0.792-1.584-2.448-3.384-4.968-2.088-2.88-4.32-5.832-5.616-8.928-0.504-1.296-0.072-2.376-0.432-3.168-0.72-1.368 0-2.16 1.944-2.016 5.688 0.36 11.52 2.16 15.408 2.736 1.44 0.216 1.584-0.144 1.152 1.44z" fill="#ff2800"/>
<path d="m452.38 190.44c0.432 1.08 0.864 2.448 1.368 3.888 0.648 1.656 0.792 4.464 0.072 7.128-0.36 1.512-0.864 2.664-1.44 3.528v-14.544zm0 23.904v-2.52c0-0.072 0.072-0.216 0.072-0.288 0.864-1.872 2.592-3.096 4.248-3.096 2.016-0.072 3.672 1.08 4.176 3.312 0.288 1.224-0.072 3.096-1.224 4.392-0.864 0.936-2.52 1.728-3.6 0.792-0.288-0.216-0.648-0.792-1.944-0.864-0.792-0.072-1.224-0.288-1.584-1.152-0.072-0.144-0.072-0.36-0.144-0.576zm0-29.304v-6.84c0.072-0.072 0.216-0.144 0.288-0.216 1.728-1.08 4.176-1.44 5.112-0.288 1.656 2.088 2.304 3.96 1.584 4.896-0.432 0.648-1.008 1.152-1.584 2.304-1.008 2.16-4.104 1.44-5.112 0.432-0.144-0.072-0.216-0.144-0.288-0.288zm6.624 9.36c0.72 0.072 1.224 0.72 1.8 0.936 0.792 0.288 1.8-0.36 2.736-0.864 0.936-0.648 1.872-1.44 1.8-2.448 0-1.152-0.288-2.304-0.36-3.744 0-0.72-0.288-1.368-1.008-1.656-0.792-0.288-2.16-0.144-3.096-0.144-1.008-0.072-1.872 0.072-2.304 1.152-0.36 1.008-1.008 2.448-0.936 3.528 0 1.224 0.072 3.168 1.368 3.24zm-0.936 6.552c0.504-2.088 1.728-2.304 3.312-2.52 1.656-0.216 2.808-0.504 3.312 0.72 0.288 0.576 0.576 0.936 1.008 1.224 0.936 0.504 0.504 2.376 0.36 3.384-0.144 1.584-0.648 3.312-1.944 3.888-0.504 0.216-1.08-0.072-2.088-0.144-0.576 0-1.08 0.216-1.656 0-0.72-0.288-1.512-0.864-1.872-1.8-0.648-1.512-0.648-3.672-0.432-4.752zm-26.496-8.712c0.072-0.432 0.288-0.792 0.504-1.152 0.864-1.44 1.8-2.88 3.456-4.824 0.504-0.648 1.512-1.152 2.448-0.936 1.584 0.288 2.88 0 5.112-0.504 1.728-0.432 2.376-0.216 3.312 0.504 1.44 1.224 2.52 1.44 3.6 2.232 0.72 0.432 1.512 1.152 1.872 1.8 0.144 0.288 0.36 0.648 0.504 1.08v14.544c-1.728 2.52-4.32 3.024-7.416 3.816-2.232 0.504-3.96 0.504-5.544-0.36-3.744-2.016-5.256-2.448-6.12-3.6-1.008-1.224-1.512-2.664-1.728-4.824v-7.776zm20.808-14.04c-1.44 0.936-2.088 1.44-1.872 3.024 0.144 1.224 0.504 2.376 1.872 3.816v-6.84zm0 33.624v2.52c-0.144-0.792-0.144-1.872 0-2.52zm-20.808 6.12v-3.312c0.072-0.936 0.288-1.728 0.72-2.16 1.296-1.296 3.456-0.936 5.184-0.576 0.648 0.144 1.224 0.576 1.8 1.224 0.648 0.72 1.728 1.584 2.088 2.736 0.72 2.232-1.368 4.896-2.952 5.544s-3.528 0.576-4.464-0.72c-0.648-0.792-1.944-1.656-2.376-2.736zm0-5.328c0.432-0.288 0.216-1.08 0-1.8v1.8zm0-30.24c1.44 1.368 3.96 2.232 5.544 1.512 1.008-0.504 1.08-2.304 1.512-3.672 1.08-3.384-0.432-5.544-2.376-4.896-0.648 0.288-1.512 0.216-2.376-0.072-0.792-0.36-1.656 0.144-2.304 0.576v0.072 6.48zm9.72-8.568c0.504-0.936 1.512-1.872 2.448-1.728 1.584 0.36 5.04 0.072 5.472 3.744 0.216 1.512-0.36 2.592-1.008 3.384-0.576 0.864-1.152 1.584-1.872 1.8-1.728 0.576-3.888-0.216-4.896-1.944-0.936-1.512-0.792-4.104-0.144-5.256zm1.584 45.936c-0.072 1.656 1.656 3.672 3.456 4.248 0.936 0.288 2.016 0.216 2.664-0.504 0.288-0.288 1.08-0.648 2.016-1.152 0.792-0.432 1.008-1.8 1.008-3.384 0-1.08-0.288-1.8-0.72-2.448-1.152-1.656-2.664-1.8-4.32-2.16-2.88-0.576-4.896 1.152-4.104 5.4zm-11.52-21.96c-0.072-2.088-0.288-3.96 0.216-5.544v7.776c-0.072-0.648-0.144-1.44-0.216-2.232zm0.216-21.888v6.48c-0.432-0.36-0.72-0.792-0.936-1.224-0.072-0.216-0.216-0.504-0.216-0.792v-2.16c0.144-1.008 0.504-1.872 1.152-2.304zm0 34.92v1.8c-0.072 0-0.144 0.072-0.216 0.072-0.216 0.072-0.576 0.288-0.936 0.576v-5.688c0.36 0.936 0.576 1.944 1.008 2.952 0.072 0.072 0.072 0.216 0.144 0.288zm0 3.816v3.312c-0.072-0.144-0.144-0.288-0.144-0.504 0-0.936 0-1.944 0.144-2.808zm-1.152-27.72v-1.152c0.144 0.432 0.072 0.72 0 1.152zm0-8.712v2.16c-0.144-0.648-0.144-1.44 0-2.16zm0 7.56v1.152c-0.216 0.576-0.648 1.224-0.864 2.232-0.144 1.08-1.008 1.44-1.512 1.728-1.152 0.72-1.944 0.936-3.384 0.288-3.312-1.44-4.68-6.192-1.368-8.424 2.232-1.512 5.832 0.072 7.128 3.024zm0 21.816v5.688c-0.864 0.504-2.016 1.224-2.952 1.368-1.512 0.216-5.76-4.32-5.4-5.688 0.216-1.008 0.288-3.24 1.296-3.888 1.224-0.864 2.952-0.792 3.96-0.432 1.8 0.648 2.52 1.728 3.096 2.952zm-12.816-12.744c0.72-1.872 2.376-2.232 4.176-2.088 0.936 0.072 2.448 0.216 3.384 1.008 0.792 0.72 2.088 4.104 1.8 4.968-0.288 0.936-0.792 1.944-1.512 2.304-1.656 0.792-3.6 0.936-5.4 0.072-0.792-0.432-1.8-0.864-2.088-1.584-0.576-1.512-1.008-3.024-0.36-4.68z"/>
<path d="m476.42 464.69v-14.256c1.224-0.864 2.52-1.656 3.312-2.592 1.008-1.224-0.072-1.224 0.576-1.728 0.792-0.648 3.96-2.16 4.752-2.52 4.248-1.872 8.928-0.072 13.608 1.008 5.616 1.296 10.944 4.032 15.408 6.624 3.6 2.16 7.92 4.392 11.808 6.048 2.448 1.008 1.584-2.376-1.296-2.592-0.648 0-1.8-0.216-2.664-1.584-1.224-1.872-3.528-2.592-4.896-3.384-5.4-3.312-16.92-6.48-22.176-8.712-2.088-0.936-2.88-1.512-2.088-2.448 1.728-1.944 4.608-2.16 6.408-3.384 3.888-2.664 5.688-6.048 7.776-5.904 1.512 0.144 2.952-0.144 4.536 0.648 1.368 0.72 2.952 1.944 5.04 2.088 3.672 0.36 8.712 2.016 14.472 2.016 4.896 0 7.272 0.432 6.336-0.648-1.224-1.224-2.952-0.936-7.848-1.584-4.032-0.576-11.232-2.52-13.32-3.096-1.296-0.288-1.224-0.936-0.72-1.512 0.36-0.432 0.864-1.512 1.8-2.16 1.08-0.72 2.232-0.504 3.384-1.08 2.16-1.152 5.4-3.528 7.92-5.832 0.864-0.72 1.8-0.792 2.664-1.368 4.176-2.808 7.992-5.4 8.28-6.696 0.576-1.944 2.376-2.52 3.816-3.672 3.6-2.952 5.616-6.624 9-9.792 0.648-0.504 1.656-1.8 2.016-2.736s-0.288-1.872-1.152-0.648c-0.504 0.648-1.44 2.664-4.176 4.032-1.296 0.72-2.52 1.872-3.6 3.096-1.8 2.016-4.104 4.536-6.552 6.48-2.952 2.232-5.256 4.32-7.272 5.832-1.296 1.008-2.88 1.656-3.384 2.232-0.792 0.936-2.232 2.016-4.176 3.024-4.752 2.448-10.008 5.76-13.248 7.344-1.44 0.648-3.168 2.016-3.096-0.144 0-0.504 0.072-1.368 0.072-2.448-0.072-0.72 0.72-1.368 1.512-2.088 0.288-0.36 0.864-1.224 0.936-1.728 0.072-1.728 1.224-4.968 1.728-6.336 0.36-1.008 0.072-1.872 0.576-3.168 1.08-2.376 2.952-5.76 3.312-7.56 0.576-2.448-2.736 0.648-4.104 4.896-1.08 3.168-2.592 8.136-5.472 13.536-0.504 0.936-1.584 3.528-2.16 4.392-1.944 3.24-2.52 3.24-5.112 6.12-3.096 3.384-9.504 6.12-11.736 7.056-1.656 0.648-2.088-0.36-1.368-1.8 0.72-1.296 1.224-3.096 1.224-4.896 0-5.544 3.816-12.312 3.528-14.4-0.144-1.008-1.08-1.152-1.44-0.072-2.448 7.416-4.896 14.616-7.344 22.104-0.576 1.584-1.224 3.384-2.088 5.04-0.432 0.72-1.296 1.368-2.016 1.8-0.36 0.288-0.792 0.648-1.296 1.224v-9.792c0.648-1.512 1.152-2.88 1.656-4.032 1.152-2.808 2.376-7.416 3.096-10.44 0.432-1.656 0.864-1.872 1.656-1.512 0.72 0.288 1.368-0.072 1.584-0.576 0.72-1.44 1.152-3.384 1.728-4.968 1.584-4.608 3.384-11.592 3.6-13.896 0-0.72 0.72-0.72 1.224-0.504 0.792 0.36 1.584 0.432 2.232-0.216 0.936-1.08 1.944-2.232 2.448-3.744 1.008-3.096 1.296-0.864 1.224 1.872-0.144 2.304-0.792 5.76-1.008 9.072-0.072 2.304 0.648 4.32-0.936 6.264-0.432 0.504-0.648 0.936-0.864 1.8-0.648 2.088-2.088 4.608-2.448 6.192-1.728 7.128-0.216 9.216 1.152 7.776 1.872-1.8 7.632-8.568 8.712-15.336 0.144-0.648 1.08-1.152 1.656-1.944 0.72-0.792 1.08-2.016 1.44-3.168 1.08-2.952 1.44-5.328 3.24-4.608 1.224 0.432 1.44 0.072 1.944-1.08 1.368-3.096 2.88-5.976 4.536-8.784s4.32-6.336 6.984-7.632c0.288-0.072 0.72 0.072 0.648 0.36-0.144 0.504 0.216 0.936 0.792 0.72 1.656-0.72 4.248-1.44 5.76-1.584 1.656-0.216 1.08 0.36 0.648 1.08-2.016 3.888-5.616 8.424-7.704 13.392-0.288 0.648-0.36 1.296 0.288 1.872s0.936 1.584 0.288 2.664c-1.152 2.016-3.312 5.256-4.104 7.488-0.648 1.944 0.216 2.088 2.088 1.296 1.152-0.504 4.248-2.088 5.616-2.304 0.504-0.072 0.576 0.288 0.576 0.72 0 1.152 1.512 0.792 2.016 0.36 0.72-0.648 1.872-1.512 2.952-2.376 1.944-1.584 4.824-3.888 6.768-5.688 1.872-1.656 2.592-3.672 3.888-5.832 0.576-1.008 1.152-1.8 2.016-1.944 0.576-0.144 1.296 0.288 1.872 0.072 0.576-0.144 0.864-0.648 1.296-1.08 2.736-2.448 5.256-6.192 7.776-9.144 3.024-3.456 4.824-7.128 7.488-10.08 2.808-3.168 3.24-3.24 3.024-1.224-0.288 2.448-2.664 8.856-1.872 11.16 0.144 0.504 1.584-0.144 1.512 0.72-0.072 0.504-0.72 1.224-1.008 1.944-0.504 1.224-1.08 2.448-2.016 3.384-2.448 2.448-3.744 5.904-5.688 8.856-0.936 1.296-2.376 2.448-2.376 3.816v2.16c0.072 1.872-4.608 4.752-6.12 6.336-2.016 1.944-4.392 3.816-6.48 5.544-1.656 1.44-3.672 2.448-4.896 3.6-1.224 1.224-1.656 2.52-1.944 3.312-0.216 0.576-0.072 1.224 0.792 1.296 0.792 0.072 4.32 0.144 7.416-0.072 1.944-0.144 1.872 2.088 3.456 2.88 2.304 1.08 3.168 2.16 4.464 2.808 2.808 1.368 1.152 1.728-1.152 2.16-3.6 0.648-5.688 1.08-8.856 1.944-1.296 0.432-0.72 1.584-0.288 2.448 0.648 1.44-0.576 1.512-1.8 1.368-1.368-0.144-3.744-0.504-6.048-1.152-2.808-0.864-6.12-1.656-7.416-2.016-1.944-0.432-3.6 0.72-3.384 2.232 0.072 0.72-0.432 1.728-2.088 1.44-1.296-0.216-2.736 0.576-2.88 2.304-0.072 0.792 0.216 2.088 2.232 3.528 1.944 1.44 4.176 2.664 6.408 3.672 2.808 1.224 4.032 0.216 4.824 2.52 0.792 2.52 6.552 3.24 8.856 3.6 1.368 0.144 2.952 0.72 0.216 1.872-1.728 0.72-5.472 1.512-8.496 1.584-0.792 0.072-2.088 0.288-2.448 0.936-0.504 0.792-0.144 2.088-1.008 1.944-4.608-0.432-10.008-4.968-12.384-8.28-1.008-1.584-2.808-1.944-3.672-2.088-1.08-0.072-1.656-0.072-1.512 1.152 0.216 2.16-4.32-0.144-6.48-0.216-3.168-0.144-6.912-0.072-9.36 1.008-1.584 0.648-2.232 1.44-2.16 2.736 0.072 1.152-3.528 1.08-4.68 1.368-2.232 0.576-5.184 1.368-7.056 2.52-1.296 0.792-2.232 1.512-3.456 2.088zm0-87.192c1.08-5.832 2.52-11.736 3.816-17.352 0.864-3.6 2.016-7.848 2.88-11.304 0.36-1.512 0.36-2.736 1.008-3.96 2.016-3.456 2.232-6.624 2.232-8.136 0-1.08 0.504-2.448 1.224-3.6 0.576-0.936 1.296-1.656 1.8-2.52 1.44-2.448 2.592-5.184 4.968-7.776 1.368-1.512 4.968-3.168 5.76-3.312 0.576-0.072 1.008-0.36 1.152-0.72 0.288-0.504 0.936-1.584 1.152-2.016 0.288-0.648 0.288-1.296 0.144-1.8-0.144-0.432-0.648-1.008-1.44-1.08-2.448-0.288-4.968 0.504-6.84 1.872-5.832 4.104-10.872 13.248-13.176 20.88-1.008 3.24-1.8 3.168-2.304 6.768-0.648 4.176-1.224 8.208-2.376 12.24v21.816zm0-60.768v-17.784c0.72-1.368 1.296-2.808 1.584-4.176 0.288-1.728 0.936-3.096 1.728-4.032 0.936-1.224 1.008-0.144 1.08 0.792 0.72 5.544-0.792 11.952-2.016 16.272-0.144 0.576 0 1.224 0.504 1.224s0.864 0.36 0.504 1.368c-0.72 2.16-1.872 4.248-3.384 6.336zm0-31.464v-13.176c2.736-0.288 6.624-1.872 8.136-3.096 0.648-0.576 1.44-0.288 2.376-0.36 1.656 0 0.288 1.944-0.432 2.736-2.16 2.664-5.976 5.688-7.488 8.208-0.648 1.08-0.216 1.8 0.72 2.088 1.296 0.36 1.008 0.72 0.36 1.44-0.576 0.576-0.864 1.08-1.44 1.368-0.504 0.216-1.008 0.36-1.584 0.576-0.216 0.072-0.432 0.144-0.648 0.216zm0-13.176v13.176c-1.584 0.648-3.384 1.44-5.112 3.024v-18.144c0.432-0.216 0.864-0.432 1.224-0.648 0.72-0.36 1.512-0.072 1.368 0.864-0.216 0.792-0.216 1.584 0.792 1.8 0.432 0.072 1.08 0.072 1.728-0.072zm0 26.856v17.784c-0.792 1.152-1.656 2.376-2.664 3.6-0.288 0.288-0.504 0.72-0.864 0.936-0.72 0.36-1.44 0.936-1.512 1.656 0 0.144 0 0.216-0.072 0.288v-11.16c0.792-0.864 0.648-2.16 0-2.592v-4.248c0.432-0.504 0.864-1.008 1.296-1.584 0.648-0.792 1.656-0.936 2.232-1.872 0.504-0.936 1.08-1.872 1.584-2.808zm0 56.736v21.816c-0.504 2.664-0.864 5.4-1.152 7.992-0.72 6.408-0.936 12.816-2.088 19.512-0.36 2.232-0.864 4.248-1.152 6.552-0.288 2.664-0.36 5.544-0.72 8.28v-41.544c0.936-3.024 1.656-6.696 1.656-10.296-0.072-2.088-0.504-2.232 0.504-4.32 1.296-2.736 2.232-5.328 2.952-7.992zm0 81.288v9.792c-1.656 1.8-3.6 4.968-4.824 6.624-0.072 0.072-0.144 0.216-0.288 0.36v-5.688c1.008-2.664 2.448-5.256 3.6-7.704 0.576-1.152 1.08-2.304 1.512-3.384zm0 13.464c-0.936 0.72-1.872 1.44-2.52 2.232-1.152 1.368-0.864 2.952-1.584 4.464-0.36 0.72-0.72 1.368-1.008 2.088v7.56c0.792-0.216 2.592-1.08 4.176-1.656 0.36-0.144 0.648-0.288 0.936-0.432v-14.256zm-5.112 27.936v-8.136c0.216 0 0.36-0.072 0.504-0.072 0.648-0.144 1.224-0.144 1.08 0.648-0.36 1.728-0.36 3.528-0.504 5.256-0.144 1.368-0.288 1.368-1.08 2.304zm-18-114.12c-0.144-0.216-0.216-0.432-0.36-0.792v-6.264c0.216 0.072 0.432 0.288 0.72 0.864 0.504 1.08 0.504 3.528 1.008 5.688 0.36 1.368-0.288 2.304-1.368 0.504zm18-94.104v18.144c-1.008 0.936-2.016 2.16-2.952 3.744-0.648 1.224-0.864 2.592-1.656 2.664-2.232 0.216-1.728 3.024-1.008 5.76 0.432 1.512-1.44 2.304-2.304 3.6-2.448 3.816-4.392 7.488-5.328 10.8-0.144 0.648-0.936 2.664 0.504 2.304 0.504-0.144 1.152-0.576 1.8-1.368 0.36-0.576 1.728-1.368 2.664-2.52 1.152-1.584 2.952-5.616 4.248-6.624 1.152-0.864 2.088 1.368 3.168-0.288 0.288-0.36 0.576-0.72 0.864-1.152v4.248l-0.072-0.072c-0.648-0.288-0.504-0.72-1.944 0.792-1.584 1.656-1.872 4.464-3.24 6.84-0.936 1.728-3.168 3.024-4.536 4.608-1.584 1.728-2.664 3.456-2.664 4.464s-1.152 1.08-1.944 1.8c-1.296 1.152-2.592 2.232-3.096 3.528-0.144 0.432-0.504 0.72-0.864 0.936v-25.2c0.432-1.008 0.864-2.088 1.368-3.168 0.648-1.44 0.864-3.24 1.584-4.68 0.936-1.8 2.448-3.24 3.456-4.896 0.792-1.296 1.584-2.52 2.304-3.744 2.592-3.96 5.184-7.416 7.344-9.792 0.216-0.288 1.656-1.296 0.936-1.656-0.288-0.144-0.864-0.144-1.08 0-4.68 3.096-12.24 14.616-15.912 22.392v-16.992c0.36-0.144 0.648 0.432 0.792 1.008 0.432 1.44 1.296 2.592 2.088 0.576 1.584-4.536 7.488-11.664 15.48-16.056zm0 41.904v0.072c-0.72 0.792-1.584 2.016-1.656 2.664-0.288 1.152-0.288 2.304-1.224 2.808-0.72 0.288-0.648 1.368-1.008 1.944-2.088 3.096-4.968 5.472-7.128 8.352-3.456 4.608-6.48 9.072-6.696 13.968-0.072 2.448-0.504 6.48 0.144 9.576 0.576 2.736 1.008 1.224 1.44-0.36 2.376-9.216 8.424-16.344 13.176-20.664 1.224-1.008 2.88-3.6 1.296-4.032-0.936-0.216-1.008-1.152 0.216-2.16 0.432-0.432 1.224-0.576 1.44-1.008v-11.16zm0 66.24v41.544 0.072c-0.576 4.536-1.224 9.504-1.584 14.328-0.216 2.808-0.504 5.04-0.576 6.264 0 1.08-0.36 1.296-1.008 1.224-0.504 0-0.936 0.36-1.224 0.144-0.576-0.288-0.936-1.08-1.296-1.872-0.216-0.432-0.288-0.936-0.288-1.512-0.216-2.952-0.216-7.56 0-12.168 0.072-3.6 1.44-4.896 1.296-7.488-0.216-6.12-0.072-13.032 1.08-17.928 0.648-2.592 0.36-5.328 1.08-7.992 0.936-3.816 0.648-9.432 1.512-11.736 0.36-0.864 0.72-1.8 1.008-2.88zm0 69.768v5.688c-0.432 0.504-1.224 1.224-1.224-0.072 0.072-1.872 0.576-3.744 1.224-5.616zm0 11.16v7.56c-0.72 0.144-1.152-0.432-1.368-0.936-0.576-1.224 0.144-3.744 1.368-6.624zm0 11.016c-2.232 0.576-4.032 2.592-4.824 4.968-1.08 2.952-0.864 4.752-0.648 6.192 0.288 1.728 0.144 2.592-0.504 0.72-0.432-1.152-0.936-2.376-1.008-3.816-0.072-1.728 0.576-3.888 1.224-5.472 1.152-2.808 1.8-5.616 1.728-8.424-0.144-4.32 0.792-8.208 0.864-12.384 0.072-2.304-1.008 0-1.224 0.36-1.944 2.592-3.384 5.904-4.176 9.504-1.008 4.32-1.152 10.8-0.792 15.048 0.432 4.896 1.224 5.76 1.512 7.416 0.792 5.112 0.864 29.376 2.016 38.736 0.216 1.44 0.576 1.44 1.08 1.152 1.368-0.936 2.304-1.224 2.304-2.736-0.072-5.544-0.36-11.592-0.792-16.704-0.36-4.248-0.504-7.704-0.504-11.592-0.072-7.128 1.584-12.096 3.456-14.472 0.144-0.144 0.216-0.288 0.288-0.36v-8.136zm-18.36-25.416v-57.6c0.072 2.304 0.216 4.608 0.216 6.984 0.144 15.048 0.288 31.176-0.144 47.808 0 0.936-0.072 1.872-0.072 2.808zm0-74.16v-2.376c0.144 0.504 0.36 0.936 0.432 1.368 0.576 1.584 0.36 1.152-0.432 1.008zm0-7.2c-0.288-0.72-0.648-1.656-0.72-2.16-0.144-1.512 0-4.176 0.72-4.104v6.264zm0-78.84v16.992c-1.08 2.304-1.872 4.248-2.088 5.616-0.216 1.08-0.648 1.368-1.44 1.368v-17.712c1.008-2.304 2.16-4.32 3.168-5.904 0.144-0.216 0.216-0.288 0.36-0.36zm0 22.536c-0.72 1.872-1.44 3.744-2.016 5.544-0.288 1.152-0.288 2.376-0.144 3.528 0.864 5.472 1.224 9.936 1.224 13.032 0 0.648 0.144 1.368-0.36 1.512-0.576 0.072-0.792 0.432-0.864 0.792 0 1.008 0.648 0.792 1.512 0.864 0.216 0 0.432 0 0.648-0.072v-25.2zm0 61.128c-0.864-2.232-2.016-4.752-3.528-6.48v11.376c0.072-0.072 0.144-0.072 0.288-0.144 0.792-0.216 1.296-0.576 1.512-1.512 0.144-0.72 0.72-0.864 1.296-0.864h0.432v-2.376zm0 18.936v57.6c-0.216 12.312-0.072 24.84-0.144 37.224-0.072 5.616-1.008 8.856-1.152 14.472-0.216 12.312 0.72 26.856 1.008 38.448 0.072 0.936 0.216 1.944-0.36 2.664-0.72 0.864-2.16 1.944-2.52 2.664-0.072 0.216-0.216 0.36-0.36 0.36v-163.3c0.072 0.072 0.216 0.072 0.432 0.072 0.576 0.072 0.864-0.36 1.296-1.008 1.008-1.512 1.44-1.224 1.44-0.216 0 3.672 0.216 7.344 0.36 11.016zm-3.528-30.96v-23.904c0.792 5.328 1.44 10.728 1.368 16.2 0 1.584-0.072 4.032-0.144 5.616-0.072 0.864-0.648 1.944-1.152 2.088h-0.072zm0-65.376v17.712c-0.144 0-0.216-0.072-0.288-0.072-1.008-0.144-1.08-0.216-1.08-1.152-0.216-4.464 0.288-9.144 0.144-13.608 0-1.008 0.72-1.944 1.152-2.808 0-0.072 0-0.072 0.072-0.072zm0 41.472c-1.296-7.992-3.168-15.696-4.104-22.464-0.504-4.032-2.16-11.52-2.232-14.832-0.144-4.464 0-9.576-0.432-13.968-0.432-5.472-0.288-10.8-0.72-15.264-0.072-0.792-0.144-1.728-0.864-2.088-1.584-0.792-1.728-2.088-2.088-3.384-0.576-2.016-2.088-1.944-2.376-0.072-0.144 0.936-0.216 2.016-0.288 3.24v2.16 5.904c0.072 5.112 0.36 10.944 1.008 16.92 0.72 5.976 1.296 13.68 2.304 19.008 0.144 0.72 0.864 1.584 0.792 2.304-0.072 0.36-0.216 1.008 0.216 1.584 0.864 1.224 1.008 2.52 1.08 4.032 0 1.368 0.504 2.52 0.72 3.672 0.36 2.52 2.448 10.08 3.24 18.648 0.36 4.68 0.792 9.144 0.792 13.896 0.072 1.008 0.144 1.872 0.504 2.52 1.152 1.8 1.728 2.232 2.448 2.088v-23.904zm0 29.448v11.376c-1.512 0.504-1.008 0.504-2.376-1.152-1.512-1.8-2.52-7.128-2.016-13.392 0.072-1.296 0.432-2.232 1.296-0.936 0.504 0.792 0.864 2.16 1.944 3.024 0.432 0.288 0.792 0.648 1.152 1.08zm0 15.552v163.3c-0.432 0.144-0.936-0.144-1.584-1.08-1.944-2.736-1.512-6.408-1.584-9.72-0.072-4.752 0.36-10.296 0.288-14.184-0.288-14.184 0.144-25.776 1.296-39.816 0.432-5.184-0.216-7.776-0.216-12.312v-20.592c0-3.456-0.504-6.984-0.144-10.44 1.08-9.216 0.288-17.568-0.144-26.064-0.288-5.184-0.144-10.368 0-15.408 0.144-4.896 0.648-9.648 0.504-12.024-0.072-1.368 0.072-1.728 1.584-1.656zm-13.104 151.99v-43.488c0.216 0.576 0.432 1.152 0.648 1.872 0.864 2.736 1.44 7.488 1.512 10.224 0.216 9.216 0.432 21.312 0.432 29.52 0 1.224 0.576 4.968-1.584 2.736-0.36-0.288-0.72-0.576-1.008-0.864zm0-50.904v-9.864c0.432 0.36 0.864 0.72 1.224 1.08 1.728 1.584 1.584 2.016 1.584 3.312-0.144 2.952 0.36 5.832 0 8.856-0.288 2.016-1.224 2.664-2.016 0.864-0.288-0.864-0.504-2.232-0.792-4.248zm0-13.32v-4.968c1.368 1.368 2.304 3.024 2.52 4.968 0.216 1.8 1.008 2.376-0.072 1.944-0.864-0.288-1.728-1.08-2.448-1.944zm0-11.016v-0.864 0.864zm0-114.41v-6.552c0.216-0.216 0.288-0.504 0-1.008v-9c2.304 3.312 4.464 6.768 5.544 9.936 1.512 4.536 2.232 8.424 2.16 12.96 0 2.232-0.36 3.384-1.944 1.08-1.512-2.232-3.96-4.968-5.76-7.416zm0-20.16v-11.592c1.8 4.032 1.872 7.344 2.088 10.368 0.072 0.864 0.936 1.224 0.936 2.232 0.072 3.528-1.08 1.8-2.52-0.216-0.144-0.288-0.36-0.576-0.504-0.792zm0-53.856v5.904c-0.072-2.088-0.072-4.104 0-5.904zm0 42.264v11.592c-0.864-1.152-1.368-1.8-2.592-3.168-0.216-0.288-0.432-0.504-0.72-0.792v-13.68c1.008 1.728 2.016 3.456 2.88 5.184l0.432 0.864zm0 15.192c-1.08-1.512-2.232-3.024-3.312-4.464v9.504c1.296 1.368 2.304 2.592 2.952 3.456 0.144 0.144 0.216 0.36 0.36 0.504v-9zm0 10.008v6.552c-0.792-1.008-1.512-2.016-1.944-2.88-1.08-1.944-1.152-3.24 0.288-3.312 0.504 0 1.296-0.072 1.656-0.36zm0 120.1v0.864c-0.144 0.576-0.504 0.648-1.512 0.072-0.432-0.288-1.152-1.152-1.8-2.088v-33.984c1.224 9.864 2.16 20.952 3.168 33.984 0.072 0.432 0.072 0.792 0.144 1.152zm0 6.912v4.968c-0.864-0.936-1.584-2.016-2.16-2.88-0.36-0.504-0.72-1.008-1.152-1.44v-3.384c1.008 0.72 1.872 1.44 2.736 2.232 0.216 0.144 0.36 0.36 0.576 0.504zm0 8.424v9.864c-0.144-0.864-0.288-1.8-0.504-2.88-0.144-1.296-0.144-1.512-0.36-0.072-0.432 2.088-0.504 4.032-0.36 6.336 0.144 1.728 0.648 2.736 1.224 4.032v43.488c-0.864-0.648-1.656-1.224-2.232-1.656-1.152-0.936-0.936-2.304-0.936-3.6-0.072-1.584 0-3.672 0.072-4.824 0.864-14.184 1.224-26.712-0.216-36.288v-16.272c1.152 0.576 2.304 1.152 3.312 1.872zm-3.312-166.68v13.68c-4.392-5.328-6.984-11.808-8.136-14.328-1.008-2.16-1.224 0.072-0.792 1.08 1.872 4.752 4.32 10.08 7.272 14.112 0.576 0.72 1.08 1.512 1.656 2.232v9.504c-2.376-2.808-5.544-6.552-8.136-10.8-0.36-0.648-2.592-3.672-1.296-3.744 1.08 0 1.224-1.872 0.504-2.736-1.728-2.232-3.528-5.4-4.896-8.568v-10.8c0.648-0.216 0.36-1.296 0.36-2.088 0-2.304 0.144-5.76 0.36-7.272 0.216-1.368 1.512 0.144 1.728 1.584 0.072 0.648 0.36 1.44 0.648 2.232 0.432 1.152 1.584 1.296 2.088 0.72 0.576-0.576 0.792-0.864 1.008-0.216 1.08 3.024 2.736 6.192 4.752 10.152 0.792 1.656 1.8 3.456 2.88 5.256zm0 116.21v33.984c-0.576-0.864-1.08-1.8-1.296-2.376-0.936-2.448-0.864-7.992-1.296-11.088-0.864-6.048-1.368-12.168-2.448-18.288-0.864-5.04-1.584-10.08-2.592-15.192-1.656-8.28-2.736-16.488-5.04-24.696-0.36-1.44-0.792-2.808-1.152-4.176v-19.8c1.152 3.384 2.232 6.768 3.24 10.008 5.256 16.92 8.28 31.968 10.584 51.624zm0 39.312c-4.392-3.384-9.504-6.192-13.824-10.944v6.192c5.256 2.304 10.584 4.464 13.824 8.136v-3.384zm0 9.288v16.272c-0.792-5.688-2.304-10.368-4.68-13.752-2.448-3.528-1.656-4.176 0.432-3.888 1.224 0.144 2.736 0.648 4.248 1.368zm-13.824-5.76v-6.336c2.016 0.792 4.248 1.584 5.256 2.232 3.24 1.872 4.824 3.744 5.688 4.968 0.936 1.44 1.152 2.16-0.72 1.656-2.52-0.72-6.264-1.728-10.224-2.52zm0-169.42v10.8c-1.728-3.96-2.808-7.92-2.592-10.08 0.072-1.368 0.648-1.008 1.8-0.72 0.36 0.072 0.576 0.072 0.792 0zm0 64.944v19.8c-2.88-9.864-5.76-19.224-10.08-29.16-2.592-5.904-5.688-8.712-6.768-13.536-0.576-2.52-0.288-4.248 0.576-5.904 1.224-2.232 1.512-1.296 2.52 0.216 6.696 10.152 10.656 19.728 13.752 28.584zm0 90v6.192c-5.112-2.304-10.152-4.68-13.104-8.568-4.032-5.328-6.984-17.568-6.912-24.48 0.144-6.192-1.512-4.104-1.368 0.504 0.216 5.04 2.304 14.544 3.6 19.656 0.792 3.312 2.16 4.104-1.08 2.304-2.088-1.224-5.832-2.664-7.488-3.96-2.304-1.728-2.376-1.44-4.536-4.176-3.96-4.896-7.632-10.512-11.448-14.616-0.144-0.216-3.528-1.872-2.232-0.216 0.432 0.432 1.08 0.792 1.296 1.512 0.504 1.296 1.152 2.592 1.8 3.816 0.576 1.008 2.088 1.296 2.808 2.088 1.152 1.152 1.008 2.952 1.656 3.96 0.72 1.08 1.368 2.016 1.872 2.736 0.648 1.152 1.008 1.872-0.432 1.728-2.664-0.288-8.208-0.792-14.616-1.8-1.224-0.216-2.448-0.576-3.528-0.72-2.016-0.216-2.232 0.216-3.888-1.152-1.296-1.152-3.024-1.8-4.824-1.944-1.368-0.072-3.024-1.656-6.048-3.456-2.088-1.224-1.656-0.144-0.648 0.864 5.184 4.896 10.008 5.832 14.472 7.272 1.8 0.576 4.176 0.144 5.4 0.864 4.104 2.52 11.736 2.448 13.752 2.232 0.432-0.072 0.504 1.152 1.08 1.656 0.504 0.504-0.072 0.936-1.152 1.008-2.664 0.216-5.76 0.576-8.712 1.512-2.52 0.792-3.672 2.52-7.416 1.44-1.512-0.36-4.464 0.36-5.976 0.864-2.52 0.864-1.8 1.008 0.648 1.152 4.608 0.216 15.48-1.728 21.456-2.808 2.088-0.36 4.68-1.08 6.768-1.296 1.728-0.216 4.464 1.296 6.12 2.16 1.152 0.648 1.944 0.432 2.592 0.936 0.576 0.432 1.152 1.08 1.296 1.728 0.216 0.576 0 1.224-1.152 1.44-3.168 0.72-13.104 4.32-15.768 7.056-1.008 1.008-0.648 1.368 1.008 0.504 2.664-1.368 7.128-2.376 9.864-3.96 1.08-0.576 0.648-1.368 2.376-1.512 1.656-0.144 4.176 0.144 5.256 0.072 7.488-0.288 8.928 0.864 13.464 3.888 0.792 0.504 2.232 1.08 3.744 1.656v6.336c-4.752-1.008-9.864-1.656-14.04-1.224-1.944 0.216-4.032 2.16-4.248-0.288-0.072-0.504 0.144-1.08 0.072-1.872-0.216-3.096-9.648 2.808-14.328 6.336-1.656 1.152-3.456 3.168-4.104 0.36-0.36-1.512-1.08-1.296-2.664-0.36-2.088 1.152-2.736 1.512-5.256 3.096-3.168 1.944-3.672 2.304-3.744 0.216-0.072-1.656 0.936-3.528 0.576-4.968-0.072-0.432-0.504-0.504-0.864-0.648-1.728-0.504 0.576-2.592 1.08-3.312 2.232-3.096 6.624-7.56 8.568-9.576 1.944-1.944 0.72-2.592-1.872-1.656-5.184 1.872-13.032 4.896-16.992 6.408-2.16 0.792-1.656-0.36-1.368-1.296 1.008-2.52 1.44-3.312-1.224-3.096-1.944 0.144-3.528 0.864-5.256 1.512-2.808 0.936-5.688 0.576-7.848 0.864-3.024 0.36 0.432-2.088-2.88-2.376s-8.784-0.648-12.528-1.296c-2.736-0.432-2.52-1.512-0.432-2.52 2.736-1.368 6.12-1.584 9-1.944 4.032-0.576 6.264-1.08 2.16-3.528-0.432-0.216-1.728-1.224-0.576-1.728 1.152-0.432 5.112 1.368 7.416 1.944 5.112 1.368 14.544 1.44 10.08-2.16-3.816-3.024-9.576-4.176-13.68-5.832-0.648-0.288-0.648-0.72-0.576-1.296 0.216-1.296-0.72-1.296-2.088-1.872-2.088-0.936-8.208-1.8-14.904-1.44-1.152 0.072-2.664 0.864-1.296-1.512 0.792-1.368 0.288-2.16-0.648-2.592-1.512-0.792-4.536-0.576-6.336-0.144-0.576 0.072-3.24 0.432-3.456-0.216v-0.216c0-0.216 0.216-0.432 0.648-0.72 1.512-1.224 8.64-3.744 12.888-4.752 1.944-0.432 2.664-1.296 4.536-0.72 4.464 1.44 8.28 2.52 10.584 2.592 0.936 0 2.088 0.144 2.016-0.432-0.072-0.864-0.216-3.744-0.072-4.248s0.072-0.864 1.224 0.072c2.808 2.232 12.888 8.568 20.736 10.728 0.864 0.288 3.24 1.8 2.664-0.72-0.36-1.44-0.72-3.24-1.368-4.464-0.864-1.8 0.072-2.016 0.792-2.16 0.792-0.072 0.72-0.576 0.72-1.296-0.216-3.384-4.608-5.904-6.552-9.576-0.792-1.512-0.36-1.728 1.296-1.584 1.8 0.216 4.536 1.008 7.488 3.744 0.936 0.864 2.88 1.296 2.736-0.576-0.144-1.08 1.584-1.08 2.952 0.792 0.936 1.296 2.232 3.456 3.888 5.256 1.08 1.152 2.304 1.8 3.096 3.168 1.584 2.592 3.384 5.112 6.192 7.488 1.08 0.936 1.8 0.72 1.584-0.72-0.432-3.672-1.008-7.488-1.152-10.8-0.072-1.008-0.288-2.376 0.792-2.52 0.504-0.144 1.08-0.504 1.224-1.728 0.432-3.96 1.152-8.136 1.152-10.224 0.072-2.664 0.504-4.176 1.584-4.32 1.8-0.288 3.6-4.968 4.896-7.632 0.864-1.8 2.232-1.656 1.8 1.224-1.008 7.776-0.864 16.848 2.376 16.416 2.88-0.36 1.224 2.304 0.432 5.112-1.152 4.104-2.664 11.088-2.52 15.48 0.072 3.24 1.584 5.184 2.664 3.168 1.08-1.872 1.8-1.296 2.664 0.792 2.736 6.768 4.896 10.944 10.08 16.704l0.216 0.216z" fill="#00a200"/>
</g>
</svg>
