<?xml version="1.0" encoding="UTF-8" standalone="no"?>
<!-- Creator: CorelDRAW -->
<svg
   xmlns:dc="http://purl.org/dc/elements/1.1/"
   xmlns:cc="http://web.resource.org/cc/"
   xmlns:rdf="http://www.w3.org/1999/02/22-rdf-syntax-ns#"
   xmlns:svg="http://www.w3.org/2000/svg"
   xmlns="http://www.w3.org/2000/svg"
   xmlns:sodipodi="http://sodipodi.sourceforge.net/DTD/sodipodi-0.dtd"
   xmlns:inkscape="http://www.inkscape.org/namespaces/inkscape"
   xml:space="preserve"
   width="744.09485"
   height="465.05835"
   style="shape-rendering:geometricPrecision; text-rendering:geometricPrecision; image-rendering:optimizeQuality; fill-rule:evenodd; clip-rule:evenodd"
   viewBox="0 0 210 297"
   id="svg2"
   sodipodi:version="0.32"
   inkscape:version="0.45.1"
   sodipodi:docname="POL powiat gliwicki flag.svg"
   inkscape:output_extension="org.inkscape.output.svg.inkscape"
   sodipodi:docbase="C:\Users\Mistrz\Desktop"
   version="1.0"><metadata
   id="metadata123"><rdf:RDF><cc:Work
       rdf:about=""><dc:format>image/svg+xml</dc:format><dc:type
         rdf:resource="http://purl.org/dc/dcmitype/StillImage" /></cc:Work></rdf:RDF></metadata><sodipodi:namedview
   inkscape:window-height="480"
   inkscape:window-width="640"
   inkscape:pageshadow="2"
   inkscape:pageopacity="0.0"
   guidetolerance="10.0"
   gridtolerance="10.0"
   objecttolerance="10.0"
   borderopacity="1.0"
   bordercolor="#666666"
   pagecolor="#ffffff"
   id="base" />
 <defs
   id="defs4">
  <style
   type="text/css"
   id="style6">
   
    .str0 {stroke:black;stroke-width:0.1764}
    .fil4 {fill:none}
    .fil3 {fill:white}
    .fil2 {fill:black}
    .fil0 {fill:#0585B0}
    .fil6 {fill:#E8B500}
    .fil1 {fill:#F2BA00}
    .fil5 {fill:white}
   
  </style>
 </defs>
 <g
   id="Warstwa_x0020_1"
   transform="matrix(2.2625722,0,0,2.2625722,-132.60025,-187.47327)">
  <metadata
   id="CorelCorpID_0Corel-Layer" />
  <polygon
   class="fil0"
   points="-0.0001,214.125 -0.0001,82.8752 210,82.8752 210,214.125 -0.0001,214.125 "
   id="polygon10"
   style="fill:#0585b0" />
  <path
   class="fil1 str0"
   d="M 119.459,151.84 C 119.489,152.2067 119.3331,152.6926 119.0784,152.9598 C 119.6309,152.9356 120.4738,152.5248 120.4582,151.5668 C 120.2441,151.8191 119.7223,151.9204 119.459,151.84 z "
   id="path12"
   style="fill:#f2ba00;stroke:#000000;stroke-width:0.17640001" />
  <path
   class="fil1 str0"
   d="M 122.597,150.18 C 122.7008,150.5168 122.6157,151.0592 122.3488,151.3597 C 123.2441,151.2024 123.5279,150.2118 123.3857,149.4763 C 123.2892,149.7628 122.8364,150.1827 122.597,150.18 z "
   id="path14"
   style="fill:#f2ba00;stroke:#000000;stroke-width:0.17640001" />
  <path
   class="fil1 str0"
   d="M 114.253,149.92 C 114.0211,149.779 113.7431,149.0622 113.774,148.8377 C 113.5473,148.9659 113.0031,148.8711 112.6069,148.7245 C 112.569,149.1001 113.2384,149.8525 114.253,149.92 z "
   id="path16"
   style="fill:#f2ba00;stroke:#000000;stroke-width:0.17640001" />
  <path
   class="fil1 str0"
   d="M 123.438,147.287 C 123.7324,147.4517 123.8114,147.9931 123.8409,148.3464 C 124.4715,148.0823 124.6297,146.7297 123.9585,146.2401 C 123.898,146.722 123.6659,147.1854 123.438,147.287 z "
   id="path18"
   style="fill:#f2ba00;stroke:#000000;stroke-width:0.17640001" />
  <path
   class="fil1 str0"
   d="M 109.946,141.803 C 111.1371,142.4532 115.3166,146.4996 115.3037,146.8218 C 115.3445,147.1221 114.5314,147.1311 114.0518,147.2572 C 113.5841,147.3432 112.9695,147.5079 112.6708,148.013 C 112.507,148.3223 112.5747,148.6147 112.7022,148.7144 C 112.9354,148.8877 113.7398,148.9908 113.8774,148.7023 C 114.4856,148.0918 115.3597,148.3751 116.0609,148.6204 C 117.3739,149.0951 118.3299,150.143 119.0187,151.1768 C 119.1956,151.4647 119.2732,151.9798 119.807,151.8385 C 119.9692,151.7984 120.4518,151.7379 120.4513,151.4227 C 120.4849,150.6466 119.2838,149.4648 118.518,148.6971 C 119.5385,148.5872 120.8498,149.1731 121.7024,149.5957 C 122.0816,149.8222 122.2621,150.0377 122.4981,150.1189 C 122.7625,150.2193 123.4897,149.669 123.3798,149.3518 C 123.0032,148.4227 121.1622,148.0633 120.0116,147.7062 C 119.7961,147.6238 119.5353,147.6024 119.6951,147.5036 C 120.7539,147.3391 121.8495,147.3831 122.9577,147.4005 C 123.5237,147.3759 124.0503,146.7687 123.8759,146.2313 C 123.7663,145.9211 122.9755,145.9687 122.3411,145.9962 C 120.6562,146.0698 118.4695,146.6966 117.9899,146.514 C 116.2053,145.8895 111.1488,140.5752 110.823,140.471 C 110.6143,140.697 109.9636,141.5853 109.946,141.803 L 109.946,141.803 z "
   id="path20"
   style="fill:#f2ba00;stroke:#000000;stroke-width:0.17640001" />
  <path
   class="fil1 str0"
   d="M 105.856,138.033 C 107.318,136.0577 108.7865,134.0762 109.4428,132.8644 C 110.743,133.19 112.2154,140.0008 112.2154,140.0008 C 110.8958,141.1909 109.8144,143.3329 109.5452,143.9768 C 109.3018,143.57 106.3266,138.7484 105.856,138.033 z "
   id="path22"
   style="fill:#f2ba00;stroke:#000000;stroke-width:0.17640001" />
  <path
   class="fil1 str0"
   d="M 130.067,103.678 C 123.8346,103.593 123.3802,111.3667 127.1749,113.0065 C 127.2985,115.5381 125.8194,121.3382 110.5821,119.6213 C 111.4489,120.6235 111.9982,124.1248 112.1031,125.3399 C 112.2191,126.6819 112.0883,127.4654 112.1295,130.1674 C 112.2751,139.6978 115.0837,139.4361 118.0806,139.6502 C 116.117,137.0504 116.4658,126.3401 116.289,123.4091 C 116.8993,123.3238 117.3602,123.3385 117.9438,123.2022 C 118.1207,127.0002 118.6072,129.6433 119.2542,136.2109 C 120.0026,143.8058 124.8366,143.9398 128.173,142.9681 C 122.6235,142.0706 123.3787,126.8651 123.1975,122.6127 C 124.0025,122.2815 124.271,121.8763 124.6868,121.5537 C 124.7574,124.5611 124.7624,125.7226 125.531,131.7731 C 125.7704,133.6588 126.4075,139.4113 134.1393,137.3622 C 130.858,136.1035 130.0659,133.2222 129.7568,127.6829 C 129.456,122.288 129.6331,119.3903 129.5359,118.1839 C 130.1196,117.5639 130.3838,117.4466 131.1089,116.3167 C 131.0383,120.0971 131.1023,121.5221 131.3591,124.0891 C 131.9069,129.5659 134.9353,130.1241 137.9784,127.9214 C 133.6044,127.9785 135.4441,112.7276 134.6391,110.9008 C 135.0883,112.5936 135.8107,112.9797 137.6819,112.7044 C 133.1976,108.8561 136.2994,103.7629 130.067,103.678 L 130.067,103.678 z "
   id="path24"
   style="fill:#f2ba00;stroke:#000000;stroke-width:0.17640001" />
  <path
   class="fil1 str0"
   d="M 116.089,122.418 C 116.1737,123.6523 116.4611,126.3705 118.5002,127.4907 C 120.9075,126.3827 121.1455,124.7481 121.0129,121.7355 C 119.5326,122.1071 117.7308,122.3399 116.089,122.418 L 116.089,122.418 z "
   id="path26"
   style="fill:#f2ba00;stroke:#000000;stroke-width:0.17640001" />
  <path
   class="fil1 str0"
   d="M 111.795,122.226 C 111.8825,123.6897 111.7742,126.6629 114.2526,128.1526 C 116.5162,126.7827 116.2989,125.6679 116.1749,122.4092 C 114.9225,122.4728 113.7833,122.4416 112.4633,122.3049 C 112.2395,122.2819 112.017,122.2551 111.795,122.226 L 111.795,122.226 z "
   id="path28"
   style="fill:#f2ba00;stroke:#000000;stroke-width:0.17640001" />
  <path
   class="fil1 str0"
   d="M 120.998,121.739 C 121.0559,123.68 121.1645,125.2584 123.4107,126.2696 C 125.6747,124.4584 125.3496,123.2461 125.1734,120.2689 C 123.8942,120.8837 122.4936,121.3792 120.998,121.739 z "
   id="path30"
   style="fill:#f2ba00;stroke:#000000;stroke-width:0.17640001" />
  <path
   class="fil1 str0"
   d="M 125.177,120.267 C 125.3025,121.3678 125.2616,123.5696 127.916,124.4797 C 130.2421,122.7923 129.6085,120.4739 129.4429,117.3471 C 128.2569,118.493 126.8172,119.4783 125.177,120.267 z "
   id="path32"
   style="fill:#f2ba00;stroke:#000000;stroke-width:0.17640001" />
  <path
   class="fil1 str0"
   d="M 129.366,117.421 C 129.5957,118.4284 129.1677,121.3521 131.4987,121.9604 C 133.5854,120.8167 133.009,114.9338 132.7829,111.6559 C 132.2674,113.8389 131.0757,115.7948 129.366,117.421 z "
   id="path34"
   style="fill:#f2ba00;stroke:#000000;stroke-width:0.17640001" />
  <path
   class="fil1 str0"
   d="M 104.128,147.699 C 104.3035,149.7374 103.2187,151.7025 103.4006,153.6751 C 102.6658,155.5454 100.7273,157.3309 98.4542,157.5856 C 98.4542,157.5856 99.1651,154.8246 100.5745,151.8918 C 101.6807,151.1714 102.3239,150.0636 104.128,147.699 z "
   id="path36"
   style="fill:#f2ba00;stroke:#000000;stroke-width:0.17640001" />
  <path
   class="fil1 str0"
   d="M 105.359,147.682 C 105.1834,149.7197 106.2682,151.6853 106.0863,153.6574 C 106.8212,155.5279 108.7596,157.3137 111.0327,157.5682 C 111.0327,157.5682 110.3218,154.8073 108.9124,151.8744 C 107.8062,151.154 107.1627,150.0467 105.359,147.682 z "
   id="path38"
   style="fill:#f2ba00;stroke:#000000;stroke-width:0.17640001" />
  <path
   class="fil1 str0"
   d="M 104.816,138.549 C 105.1368,138.2016 105.6763,137.7095 106.0587,137.0471 C 105.963,137.5523 105.8538,137.8869 105.8538,138.3916 C 105.8538,138.3916 105.5808,143.8029 106.7006,146.4988 C 108.2029,149.9552 112.0199,151.9884 116.0487,151.1358 C 115.9532,151.8641 115.1884,152.8611 114.5395,153.3663 C 113.3106,154.1794 111.8015,154.1661 110.4288,153.6217 C 108.6878,152.874 107.0967,151.4573 106.0314,148.7549 C 105.9495,148.7421 105.7582,148.6893 105.69,148.8143 C 105.9084,150.0209 106.4889,152.4085 106.5708,153.2873 C 106.7962,155.996 106.243,158.3641 104.816,160.555 C 103.4161,158.3641 102.788,155.9177 103.0133,153.2088 C 103.0952,152.3296 103.6755,149.9423 103.8804,148.7288 C 103.8122,148.6108 103.6755,148.8535 103.5801,148.8664 C 102.665,151.1753 101.0467,152.7824 99.1824,153.7137 C 97.7416,154.1661 96.2803,154.1006 95.0444,153.3006 C 94.3958,152.7955 93.6377,151.7852 93.5423,151.0573 C 97.5641,151.9036 101.4086,150.1652 102.9312,146.7152 C 104.0374,144.0258 103.7166,138.3 103.7166,138.3 C 103.7166,137.795 103.6482,137.4341 103.5801,137.0207 C 103.9693,137.6834 104.5769,138.2278 104.816,138.549 L 104.816,138.549 z "
   id="path40"
   style="fill:#f2ba00;stroke:#000000;stroke-width:0.17640001" />
  <path
   class="fil1 str0"
   d="M 79.8231,103.345 C 86.0555,103.2601 86.5097,111.0337 82.7153,112.6734 C 82.5914,115.2051 84.0708,121.0049 99.3081,119.2882 C 98.4413,120.2909 97.8919,123.7922 97.787,125.0069 C 97.671,126.3491 97.8017,127.1324 97.7606,129.8343 C 97.6151,139.3647 94.8062,139.1035 91.8093,139.3171 C 93.7729,136.7176 93.4243,126.007 93.6012,123.0761 C 92.9909,122.9912 92.53,123.0052 91.9463,122.8696 C 91.7694,126.6672 91.283,129.3102 90.6359,135.8783 C 89.8876,143.473 85.0533,143.6065 81.7169,142.635 C 87.2666,141.7373 86.5115,126.532 86.6926,122.2801 C 85.8876,121.9487 85.6189,121.5435 85.2034,121.2206 C 85.1325,124.2281 85.1278,125.39 84.3591,131.44 C 84.1195,133.3257 83.4824,139.078 75.7506,137.0296 C 79.0321,135.7705 79.8243,132.8892 80.1331,127.3499 C 80.4341,121.9554 80.257,119.0577 80.3542,117.8513 C 79.7706,117.2309 79.5064,117.1135 78.781,115.9837 C 78.8519,119.7645 78.7876,121.189 78.5308,123.7565 C 77.983,129.2329 74.9548,129.7915 71.9115,127.5884 C 76.2857,127.6454 74.4461,112.3948 75.2508,110.5682 C 74.8019,112.2606 74.0795,112.6466 72.208,112.3718 C 76.6923,108.523 73.5908,103.4298 79.8231,103.345 L 79.8231,103.345 z "
   id="path42"
   style="fill:#f2ba00;stroke:#000000;stroke-width:0.17640001" />
  <path
   class="fil1 str0"
   d="M 93.8013,122.085 C 93.7167,123.3189 93.429,126.0374 91.3902,127.1575 C 88.9829,126.0495 88.7448,124.415 88.8773,121.4023 C 90.3577,121.7744 92.1595,122.0072 93.8013,122.085 z "
   id="path44"
   style="fill:#f2ba00;stroke:#000000;stroke-width:0.17640001" />
  <path
   class="fil1 str0"
   d="M 98.0954,121.893 C 98.0081,123.3568 98.1162,126.33 95.6378,127.8197 C 93.3744,126.4491 93.5917,125.3348 93.7158,122.0758 C 94.9679,122.1396 96.1071,122.1087 97.4274,121.972 C 97.651,121.9488 97.8734,121.9219 98.0954,121.893 L 98.0954,121.893 z "
   id="path46"
   style="fill:#f2ba00;stroke:#000000;stroke-width:0.17640001" />
  <path
   class="fil1 str0"
   d="M 88.8924,121.406 C 88.8344,123.3474 88.7259,124.9258 86.4794,125.9368 C 84.2154,124.1251 84.5407,122.9135 84.7169,119.9363 C 85.9962,120.5509 87.3968,121.0461 88.8924,121.406 z "
   id="path48"
   style="fill:#f2ba00;stroke:#000000;stroke-width:0.17640001" />
  <path
   class="fil1 str0"
   d="M 84.7133,119.935 C 84.5879,121.0356 84.6285,123.2373 81.9741,124.1475 C 79.6481,122.4601 80.2818,120.1417 80.4474,117.0151 C 81.6335,118.1608 83.0731,119.146 84.7133,119.935 z "
   id="path50"
   style="fill:#f2ba00;stroke:#000000;stroke-width:0.17640001" />
  <path
   class="fil1 str0"
   d="M 80.5241,117.089 C 80.2944,118.0961 80.7224,121.0201 78.3916,121.6284 C 76.3049,120.4843 76.8811,114.6018 77.1074,111.3234 C 77.6227,113.5065 78.8146,115.4625 80.5241,117.089 L 80.5241,117.089 z "
   id="path52"
   style="fill:#f2ba00;stroke:#000000;stroke-width:0.17640001" />
  <path
   class="fil1 str0"
   d="M 90.0972,151.723 C 90.0669,152.0894 90.2231,152.5753 90.4775,152.8427 C 89.925,152.8183 89.0821,152.4075 89.0977,151.4495 C 89.312,151.702 89.8336,151.8033 90.0972,151.723 z "
   id="path54"
   style="fill:#f2ba00;stroke:#000000;stroke-width:0.17640001" />
  <path
   class="fil1 str0"
   d="M 86.9589,150.063 C 86.8549,150.3999 86.9401,150.9418 87.2068,151.2423 C 86.3116,151.0851 86.0278,150.0946 86.1701,149.3589 C 86.2667,149.6454 86.7195,150.0657 86.9589,150.063 L 86.9589,150.063 z "
   id="path56"
   style="fill:#f2ba00;stroke:#000000;stroke-width:0.17640001" />
  <path
   class="fil1 str0"
   d="M 95.3025,149.803 C 95.5342,149.6622 95.8124,148.9457 95.7815,148.7207 C 96.008,148.8489 96.5522,148.7546 96.9484,148.6075 C 96.9863,148.9836 96.3169,149.7358 95.3025,149.803 z "
   id="path58"
   style="fill:#f2ba00;stroke:#000000;stroke-width:0.17640001" />
  <path
   class="fil1 str0"
   d="M 86.1176,147.171 C 85.8231,147.3353 85.7444,147.8767 85.7148,148.2301 C 85.084,147.9663 84.9259,146.6133 85.5971,146.1242 C 85.6575,146.6061 85.8897,147.069 86.1176,147.171 z "
   id="path60"
   style="fill:#f2ba00;stroke:#000000;stroke-width:0.17640001" />
  <path
   class="fil1 str0"
   d="M 99.6093,141.686 C 98.4183,142.3367 94.2388,146.3826 94.2516,146.7048 C 94.211,147.0051 95.0239,147.0143 95.5036,147.1402 C 95.9713,147.2262 96.5861,147.3909 96.8845,147.8962 C 97.0486,148.2056 96.9807,148.498 96.8532,148.5975 C 96.6199,148.771 95.8156,148.8741 95.6782,148.5857 C 95.0697,147.975 94.1959,148.2586 93.4947,148.5038 C 92.1816,148.9781 91.2257,150.0265 90.5369,151.0598 C 90.36,151.3477 90.2822,151.863 89.7486,151.7218 C 89.5864,151.6818 89.1038,151.6211 89.1042,151.306 C 89.0704,150.5301 90.2716,149.3478 91.0373,148.5805 C 90.0171,148.4702 88.7058,149.0566 87.853,149.4787 C 87.4737,149.7052 87.2932,149.9207 87.0572,150.0024 C 86.793,150.1023 86.0659,149.552 86.1755,149.2353 C 86.5521,148.3062 88.3931,147.9463 89.5437,147.5896 C 89.7594,147.5068 90.02,147.4854 89.8605,147.3868 C 88.8015,147.2221 87.7059,147.2666 86.5979,147.2837 C 86.0316,147.2591 85.5052,146.6518 85.6796,146.1143 C 85.7891,145.8041 86.5798,145.852 87.2143,145.8793 C 88.8994,145.9528 91.0858,146.58 91.5657,146.3975 C 93.3501,145.7728 98.4065,140.4582 98.7325,140.3544 C 98.941,140.58 99.5917,141.4685 99.6093,141.686 L 99.6093,141.686 z "
   id="path62"
   style="fill:#f2ba00;stroke:#000000;stroke-width:0.17640001" />
  <path
   class="fil1 str0"
   d="M 103.699,137.916 C 102.2373,135.9408 100.7688,133.9592 100.1122,132.7474 C 98.8122,133.0732 97.3397,139.8834 97.3397,139.8834 C 98.6593,141.0742 99.7409,143.2159 100.0098,143.8596 C 100.2535,143.4528 103.2284,138.6314 103.699,137.916 L 103.699,137.916 z "
   id="path64"
   style="fill:#f2ba00;stroke:#000000;stroke-width:0.17640001" />
  <path
   class="fil1 str0"
   d="M 111.278,120.103 C 105.0353,113.7756 105.0281,113.8433 98.6181,119.751 C 94.0395,131.4541 103.6617,139.8402 104.89,141.787 C 106.0745,139.8999 115.893,131.3192 111.278,120.103 L 111.278,120.103 z "
   id="path66"
   style="fill:#f2ba00;stroke:#000000;stroke-width:0.17640001" />
  <path
   class="fil1 str0"
   d="M 102.309,103.614 C 103.6866,101.4772 109.4937,104.9794 110.1577,105.976 C 110.9277,107.137 111.4507,107.0754 112.0159,106.8911 C 112.3265,107.6008 110.7653,109.2735 109.748,108.1678 C 109.6844,108.0992 109.2959,109.69 111.5849,109.0894 C 111.5989,109.0894 110.5534,111.3968 109.1334,110.1613 C 108.0879,111.5198 106.0321,116.067 111.8532,117.8079 C 110.5958,119.7195 108.6671,120.1698 106.1664,116.9406 C 106.5901,118.0195 107.5015,120.3952 104.5203,123.2014 C 101.433,120.3884 102.4997,118.0535 102.9166,116.8517 C 99.582,121.399 97.1377,117.5076 97.4626,117.6781 C 97.9572,117.9308 98.3881,117.726 99.2005,117.2481 C 101.2845,115.9986 102.4997,111.1373 101.6166,110.1819 C 100.02,108.4613 97.505,109.8062 97.8723,109.5741 C 99.8857,106.29 102.853,110.0521 103.1709,109.6287 C 104.1176,108.3862 102.1606,106.2492 100.0906,105.6141 C 98.7696,105.2048 97.272,105.4505 96.742,106.734 C 96.742,102.5283 98.4587,101.361 102.309,103.614 z "
   id="path68"
   style="fill:#f2ba00;stroke:#000000;stroke-width:0.17640001" />
  <path
   class="fil2 str0"
   d="M 107.497,106.39 C 106.8066,106.1017 106.544,105.241 106.2539,105.4839 C 105.848,105.8235 106.7137,106.1991 106.7074,106.3068 C 105.6862,105.5383 105.8663,106.7681 104.8391,106.3627 C 104.1038,106.0728 104.5372,105.4167 103.6638,105.201 C 104.1981,105.1117 104.3759,105.1697 104.4052,104.8274 C 104.4366,104.4612 104,104.5695 103.2359,105.0596 C 104.0081,104.1957 104.8537,104.3773 105.6197,104.6961 C 106.7101,105.1496 106.8342,105.9052 107.497,106.39 L 107.497,106.39 z "
   id="path70"
   style="fill:#000000;stroke:#000000;stroke-width:0.17640001" />
  <polygon
   class="fil3 str0"
   points="105.019,106.34 105.004,106.336 104.984,106.332 104.939,106.318 104.894,106.304 104.849,106.285 104.805,106.266 104.765,106.244 104.722,106.22 104.682,106.193 104.644,106.166 104.609,106.136 104.572,106.1 104.539,106.065 104.506,106.029 104.477,105.99 104.449,105.947 104.421,105.903 104.397,105.86 104.381,105.819 104.365,105.778 104.349,105.737 104.336,105.697 104.324,105.652 104.317,105.608 104.312,105.57 104.308,105.527 104.304,105.483 104.304,105.441 104.308,105.399 104.312,105.358 104.316,105.317 104.323,105.276 104.335,105.236 104.346,105.196 104.373,105.117 104.412,105.04 104.431,105.002 104.453,104.969 104.479,104.937 104.506,104.9 104.531,104.873 104.561,104.841 104.591,104.81 104.624,104.784 104.656,104.758 104.693,104.733 104.73,104.708 104.769,104.688 104.813,104.669 104.857,104.65 104.911,104.657 104.966,104.663 105.005,104.671 105.048,104.676 105.086,104.684 105.129,104.693 105.143,104.701 105.162,104.705 105.155,104.703 105.147,104.702 105.097,104.71 105.051,104.724 105.003,104.742 104.956,104.76 104.955,104.765 104.951,104.768 104.997,104.797 105.039,104.83 105.086,104.877 105.128,104.928 105.147,104.956 105.165,104.988 105.183,105.02 105.2,105.056 105.215,105.107 105.224,105.165 105.229,105.223 105.23,105.279 105.178,105.259 105.131,105.235 105.076,105.209 105.02,105.183 104.962,105.156 104.906,105.131 104.877,105.115 104.808,105.077 104.743,105.044 104.71,105.028 104.71,105.028 104.709,105.033 104.694,105.072 104.677,105.115 104.661,105.159 104.653,105.2 104.645,105.245 104.64,105.291 104.636,105.332 104.64,105.38 104.64,105.422 104.646,105.471 104.655,105.51 104.667,105.555 104.683,105.596 104.699,105.637 104.719,105.679 104.744,105.717 104.779,105.767 104.815,105.807 104.856,105.845 104.903,105.873 104.949,105.902 104.998,105.921 105.047,105.937 105.097,105.947 105.148,105.949 105.197,105.945 105.251,105.937 105.301,105.924 105.352,105.907 105.401,105.88 105.448,105.847 105.494,105.81 105.535,105.766 105.571,105.722 105.604,105.673 105.634,105.618 105.657,105.562 105.676,105.505 105.691,105.447 105.702,105.388 105.709,105.328 105.707,105.272 105.703,105.209 105.69,105.15 105.677,105.091 105.656,105.035 105.634,104.983 105.604,104.93 105.564,104.884 105.529,104.839 105.497,104.818 105.466,104.793 105.485,104.797 105.526,104.815 105.567,104.828 105.585,104.837 105.634,104.856 105.685,104.881 105.732,104.91 105.778,104.939 105.82,104.971 105.862,105.003 105.902,105.045 105.938,105.09 105.955,105.126 105.971,105.167 105.987,105.213 105.999,105.253 106.007,105.292 106.019,105.338 106.023,105.381 106.027,105.423 106.031,105.467 106.031,105.509 106.027,105.551 106.023,105.592 106.012,105.674 105.989,105.754 105.962,105.833 105.924,105.905 105.905,105.944 105.883,105.977 105.856,106.013 105.83,106.045 105.804,106.077 105.774,106.109 105.745,106.136 105.711,106.166 105.679,106.192 105.642,106.217 105.606,106.238 105.566,106.258 105.5,106.291 105.432,106.314 105.364,106.333 105.294,106.346 105.224,106.355 105.156,106.354 105.089,106.35 105.019,106.34 "
   id="polygon72"
   style="fill:#ffffff;stroke:#000000;stroke-width:0.17640001" />
  <path
   class="fil1 str0"
   d="M 103.313,109.449 C 102.3702,108.3656 101.3069,107.7375 99.6136,108.0561 C 99.1757,108.2503 97.2754,108.4074 96.1509,107.7402 C 95.4998,107.2657 95.389,106.9106 95.5621,106.5616 C 95.9835,107.159 96.2644,107.4115 97.4322,107.5232 C 98.449,107.5891 99.7422,106.9494 101.0452,107.2276 C 102.099,107.4487 102.8465,107.948 103.3311,108.4985 C 103.4978,108.751 103.4058,109.3917 103.313,109.449 L 103.313,109.449 z "
   id="path74"
   style="fill:#f2ba00;stroke:#000000;stroke-width:0.17640001" />
  <path
   class="fil4 str0"
   d="M 102.307,103.639 C 101.909,105.1448 102.8053,106.5822 103.9977,108.096 C 105.071,109.4581 104.1207,111.984 101.6813,110.2628"
   id="path76"
   style="fill:none;stroke:#000000;stroke-width:0.17640001" />
  <polygon
   class="fil5 str0"
   points="134.191,159.952 121.686,159.952 121.686,176.73 134.191,176.73 134.191,159.952 "
   id="polygon78"
   style="fill:#ffffff;stroke:#000000;stroke-width:0.17640001" />
  <polygon
   class="fil5 str0"
   points="135.651,160.049 120.128,160.049 120.128,159.198 135.651,159.198 135.651,160.049 "
   id="polygon80"
   style="fill:#ffffff;stroke:#000000;stroke-width:0.17640001" />
  <polygon
   class="fil5 str0"
   points="136.476,156.093 134,156.093 134,157.645 131.576,157.672 131.577,156.093 129.114,156.093 129.14,157.693 126.702,157.697 126.694,156.093 124.197,156.093 124.197,157.718 121.771,157.729 121.777,156.093 119.303,156.093 119.303,159.198 136.476,159.198 136.476,156.093 "
   id="polygon82"
   style="fill:#ffffff;stroke:#000000;stroke-width:0.17640001" />
  <polygon
   class="fil5 str0"
   points="134.745,178.062 121.095,178.062 121.095,176.479 134.745,176.479 134.745,178.062 "
   id="polygon84"
   style="fill:#ffffff;stroke:#000000;stroke-width:0.17640001" />
  <polygon
   class="fil5 str0"
   points="135.754,179.605 119.965,179.605 119.965,178.021 135.754,178.021 135.754,179.605 "
   id="polygon86"
   style="fill:#ffffff;stroke:#000000;stroke-width:0.17640001" />
  <path
   class="fil2 str0"
   d="M 129.093,164.724 L 129.093,166.4933 L 131.9545,166.4933 L 131.9545,164.7868 C 131.9613,164.7313 131.9647,164.6746 131.9647,164.6173 L 131.9647,163.1037 C 131.9647,162.3127 131.3176,161.6658 130.5268,161.6658 L 130.5266,161.6658 C 129.7358,161.6658 129.089,162.3127 129.089,163.1037 L 129.089,164.6173 C 129.089,164.6534 129.0906,164.6886 129.093,164.724 L 129.093,164.724 z "
   id="path88"
   style="fill:#000000;stroke:#000000;stroke-width:0.17640001" />
  <path
   class="fil2 str0"
   d="M 124.002,164.724 L 124.002,166.4933 L 126.8635,166.4933 L 126.8635,164.7868 C 126.87,164.7313 126.8734,164.6746 126.8734,164.6173 L 126.8734,163.1037 C 126.8734,162.3127 126.2265,161.6658 125.4358,161.6658 L 125.4355,161.6658 C 124.6448,161.6658 123.9977,162.3127 123.9977,163.1037 L 123.9977,164.6173 C 123.9977,164.6534 123.9993,164.6886 124.002,164.724 L 124.002,164.724 z "
   id="path90"
   style="fill:#000000;stroke:#000000;stroke-width:0.17640001" />
  <polygon
   class="fil5 str0"
   points="88.7854,159.195 76.281,159.195 76.281,175.973 88.7854,175.973 88.7854,159.195 "
   id="polygon92"
   style="fill:#ffffff;stroke:#000000;stroke-width:0.17640001" />
  <polygon
   class="fil5 str0"
   points="90.2452,159.292 74.7229,159.292 74.7229,158.441 90.2452,158.441 90.2452,159.292 "
   id="polygon94"
   style="fill:#ffffff;stroke:#000000;stroke-width:0.17640001" />
  <polygon
   class="fil5 str0"
   points="91.0702,155.336 88.5948,155.336 88.5948,156.888 86.1708,156.915 86.1712,155.336 83.7087,155.336 83.7344,156.936 81.2969,156.94 81.2887,155.336 78.7916,155.336 78.7916,156.961 76.3658,156.973 76.3717,155.336 73.8978,155.336 73.8978,158.441 91.0702,158.441 91.0702,155.336 "
   id="polygon96"
   style="fill:#ffffff;stroke:#000000;stroke-width:0.17640001" />
  <polygon
   class="fil5 str0"
   points="89.3395,177.306 75.6894,177.306 75.6894,175.721 89.3395,175.721 89.3395,177.306 "
   id="polygon98"
   style="fill:#ffffff;stroke:#000000;stroke-width:0.17640001" />
  <polygon
   class="fil5 str0"
   points="90.3483,178.848 74.5593,178.848 74.5593,177.264 90.3483,177.264 90.3483,178.848 "
   id="polygon100"
   style="fill:#ffffff;stroke:#000000;stroke-width:0.17640001" />
  <path
   class="fil2 str0"
   d="M 83.687,163.967 L 83.687,165.7365 L 86.5485,165.7365 L 86.5485,164.0297 C 86.5552,163.974 86.5586,163.9176 86.5586,163.8605 L 86.5586,162.3469 C 86.5586,161.5559 85.9116,160.9091 85.1208,160.9091 L 85.1208,160.9091 C 84.3298,160.9091 83.6829,161.5559 83.6829,162.3469 L 83.6829,163.8605 C 83.6829,163.8962 83.6845,163.9316 83.687,163.967 L 83.687,163.967 z "
   id="path102"
   style="fill:#000000;stroke:#000000;stroke-width:0.17640001" />
  <path
   class="fil2 str0"
   d="M 78.5962,163.967 L 78.5962,165.7365 L 81.4577,165.7365 L 81.4577,164.0297 C 81.4645,163.974 81.4679,163.9176 81.4679,163.8605 L 81.4679,162.3469 C 81.4679,161.5559 80.8208,160.9091 80.03,160.9091 L 80.0298,160.9091 C 79.239,160.9091 78.5922,161.5559 78.5922,162.3469 L 78.5922,163.8605 C 78.5922,163.8962 78.5935,163.9316 78.5962,163.967 L 78.5962,163.967 z "
   id="path104"
   style="fill:#000000;stroke:#000000;stroke-width:0.17640001" />
  <polygon
   class="fil6 str0"
   points="113.241,172.8 104.772,164.331 96.3034,172.8 113.241,172.8 "
   id="polygon106"
   style="fill:#e8b500;stroke:#000000;stroke-width:0.17640001" />
  <polygon
   class="fil5 str0"
   points="111.185,173.876 98.6809,173.876 98.6809,190.654 111.185,190.654 111.185,173.876 "
   id="polygon108"
   style="fill:#ffffff;stroke:#000000;stroke-width:0.17640001" />
  <polygon
   class="fil5 str0"
   points="112.645,173.974 97.1228,173.974 97.1228,173.122 112.645,173.122 112.645,173.974 "
   id="polygon110"
   style="fill:#ffffff;stroke:#000000;stroke-width:0.17640001" />
  <polygon
   class="fil5 str0"
   points="113.47,170.017 110.995,170.017 110.995,171.57 108.571,171.596 108.571,170.017 106.109,170.017 106.135,171.617 103.697,171.621 103.689,170.017 101.192,170.017 101.192,171.642 98.7659,171.654 98.7718,170.017 96.2977,170.017 96.2977,173.122 113.47,173.122 113.47,170.017 "
   id="polygon112"
   style="fill:#ffffff;stroke:#000000;stroke-width:0.17640001" />
  <polygon
   class="fil5 str0"
   points="111.74,191.987 98.0895,191.987 98.0895,190.403 111.74,190.403 111.74,191.987 "
   id="polygon114"
   style="fill:#ffffff;stroke:#000000;stroke-width:0.17640001" />
  <polygon
   class="fil5 str0"
   points="112.748,193.529 96.9594,193.529 96.9594,191.946 112.748,191.946 112.748,193.529 "
   id="polygon116"
   style="fill:#ffffff;stroke:#000000;stroke-width:0.17640001" />
  <path
   class="fil2 str0"
   d="M 106.087,178.648 L 106.087,180.4175 L 108.9485,180.4175 L 108.9485,178.7107 C 108.9553,178.655 108.9586,178.5986 108.9586,178.5413 L 108.9586,177.0274 C 108.9586,176.2369 108.3116,175.59 107.5208,175.59 L 107.5206,175.59 C 106.7298,175.59 106.083,176.2369 106.083,177.0274 L 106.083,178.5413 C 106.083,178.5772 106.0845,178.6126 106.087,178.648 z "
   id="path118"
   style="fill:#000000;stroke:#000000;stroke-width:0.17640001" />
  <path
   class="fil2 str0"
   d="M 100.996,178.648 L 100.996,180.4175 L 103.8574,180.4175 L 103.8574,178.7107 C 103.864,178.655 103.8674,178.5986 103.8674,178.5413 L 103.8674,177.0274 C 103.8674,176.2369 103.2205,175.59 102.4297,175.59 L 102.4295,175.59 C 101.6387,175.59 100.9917,176.2369 100.9917,177.0274 L 100.9917,178.5413 C 100.9917,178.5772 100.9933,178.6126 100.996,178.648 z "
   id="path120"
   style="fill:#000000;stroke:#000000;stroke-width:0.17640001" />
 </g>
</svg>