<?xml version="1.0" encoding="UTF-8" standalone="no"?>
<!-- Created with Inkscape (http://www.inkscape.org/) -->
<svg
   xmlns:dc="http://purl.org/dc/elements/1.1/"
   xmlns:cc="http://web.resource.org/cc/"
   xmlns:rdf="http://www.w3.org/1999/02/22-rdf-syntax-ns#"
   xmlns:svg="http://www.w3.org/2000/svg"
   xmlns="http://www.w3.org/2000/svg"
   xmlns:sodipodi="http://sodipodi.sourceforge.net/DTD/sodipodi-0.dtd"
   xmlns:inkscape="http://www.inkscape.org/namespaces/inkscape"
   height="500"
   width="800"
   id="svg2"
   sodipodi:version="0.32"
   inkscape:version="0.45.1"
   sodipodi:docbase="C:\Users\Mistrz\Desktop"
   sodipodi:docname="POL powiat gorlicki flag.svg"
   inkscape:output_extension="org.inkscape.output.svg.inkscape"
   version="1.0">
  <defs
     id="defs4">
    <marker
       id="ArrowStart"
       viewBox="0 0 10 10"
       orient="auto"
       markerHeight="3"
       markerWidth="4"
       refY="5"
       refX="10"
       markerUnits="strokeWidth">
      <path
         id="path10"
         d="M 10,0 L 0,5 L 10,10 L 10,0 z " />
    </marker>
    <marker
       id="ArrowEnd"
       viewBox="0 0 10 10"
       orient="auto"
       markerHeight="3"
       markerWidth="4"
       refY="5"
       refX="0"
       markerUnits="strokeWidth">
      <path
         id="path7"
         d="M 0,0 L 10,5 L 0,10 L 0,0 z " />
    </marker>
  </defs>
  <sodipodi:namedview
     id="base"
     pagecolor="#ffffff"
     bordercolor="#666666"
     borderopacity="1.0"
     inkscape:pageopacity="0.0"
     inkscape:pageshadow="2"
     inkscape:cx="-103.58015"
     inkscape:cy="424.48828"
     inkscape:zoom="0.35"
     inkscape:document-units="px"
     inkscape:current-layer="layer1"
     inkscape:window-width="867"
     inkscape:window-height="575"
     inkscape:window-x="367"
     inkscape:window-y="117" />
  <metadata
     id="metadata7">
    <rdf:RDF>
      <cc:Work
         rdf:about="">
        <dc:format>image/svg+xml</dc:format>
        <dc:type
           rdf:resource="http://purl.org/dc/dcmitype/StillImage" />
      </cc:Work>
    </rdf:RDF>
  </metadata>
  <g
     inkscape:groupmode="layer"
     inkscape:label="Warstwa 1"
     id="layer1"
     transform="translate(0,-552.36218)">
    <g
       id="g2314">
      <g
         id="g2248">
        <rect
           width="800"
           height="250"
           x="0"
           y="802.36218"
           style="fill:#ff0000;fill-opacity:1;fill-rule:nonzero;stroke-width:1;stroke-linecap:butt;stroke-linejoin:miter;stroke-miterlimit:4;stroke-dasharray:none;stroke-dashoffset:0;stroke-opacity:1"
           id="rect10394" />
        <rect
           width="800"
           height="250"
           x="0"
           y="552.36218"
           style="fill:#ffffff;fill-opacity:1;fill-rule:nonzero;stroke-width:1;stroke-linecap:butt;stroke-linejoin:miter;stroke-miterlimit:4;stroke-dasharray:none;stroke-dashoffset:0;stroke-opacity:1"
           id="rect10396" />
        <rect
           width="800"
           height="100"
           x="0"
           y="752.36218"
           style="fill:#ffcc00;fill-opacity:1;fill-rule:nonzero;stroke-width:1;stroke-linecap:butt;stroke-linejoin:miter;stroke-miterlimit:4;stroke-dasharray:none;stroke-dashoffset:0;stroke-opacity:1"
           id="rect10398" />
      </g>
      <path
         id="path5974"
         style="fill:#ff0000;fill-opacity:1;stroke:#000000;stroke-width:3.06428719;stroke-miterlimit:4;stroke-dasharray:none;stroke-opacity:1"
         d="M 251.532,640.68026 L 252.17409,834.90705 C 252.17409,922.60192 322.66255,974.68738 403.53532,974.68738 C 487.04472,974.68738 554.89652,918.93293 554.89652,834.90705 L 554.59589,640.68026 L 251.532,640.68026 z " />
      <path
         d="M 287.94534,715.45873 L 284.2402,719.06636 C 278.91873,720.83579 272.75096,720.82698 266.59205,720.2364 C 267.17482,727.03533 273.53343,730.17078 279.75504,731.74182 C 279.7422,734.52151 279.7491,736.47477 279.75504,740.22464 C 274.28505,742.28355 268.96748,745.6867 261.52187,745.29483 C 267.36289,753.67543 274.85824,754.60859 279.85254,754.55766 C 279.86874,757.38709 279.92757,759.98429 279.95004,762.84547 C 274.94388,764.96291 270.05159,766.61466 263.27693,766.2581 C 267.29105,774.7586 274.61504,777.20263 280.04755,777.95853 C 280.17544,788.39686 280.35412,797.33007 280.53507,800.48186 C 281.05892,809.6063 271.50722,816.71676 258.88927,820.95761 C 266.35694,831.35891 278.63864,831.13093 291.26046,823.4927 C 283.97751,835.7425 273.35208,846.08846 260.54683,845.82102 C 266.44888,867.45294 279.3604,857.09948 292.62551,853.3288 C 288.75153,862.45123 282.31428,873.44564 271.07722,880.72731 C 296.40226,899.21895 304.03708,878.66269 307.64106,861.81161 C 312.06535,881.80684 302.13108,899.59233 322.75412,918.85121 C 333.06628,899.5006 331.95931,881.56228 332.69949,860.73907 C 337.96339,898.66663 357.97297,891.76419 378.33116,880.72731 C 359.45074,874.17938 351.95503,863.55478 345.95997,846.69856 C 360.33213,864.37121 372.84015,865.1268 382.42632,847.08857 C 369.4999,844.18496 359.85473,840.61489 350.05512,829.24541 C 359.26541,829.15112 362.67211,828.00484 366.72824,823.4927 C 343.52297,819.51283 336.80623,797.11317 336.79464,766.2581 L 322.94913,776.59348 L 318.56146,763.6255 L 352.39521,722.47898 C 350.55445,720.14734 351.35286,715.58145 346.93501,715.45873 L 287.94534,715.45873 z "
         style="fill:#ffffff;fill-rule:evenodd;stroke:#000000;stroke-width:1.53214324;stroke-linecap:butt;stroke-linejoin:miter;stroke-miterlimit:4;stroke-dasharray:none;stroke-opacity:1"
         id="path6191" />
      <path
         d="M 341.74141,726.48622 L 333.64204,726.48622 C 329.56629,726.48622 329.59235,722.43653 325.54266,722.43653 C 321.49297,722.43653 322.33519,726.48622 317.44328,726.48622 L 306.39868,726.48622 C 302.26411,726.48622 302.80918,730.07571 301.61268,731.27221"
         style="fill:#ffffff;fill-rule:evenodd;stroke:#000000;stroke-width:1.53214324;stroke-linecap:round;stroke-linejoin:miter;stroke-miterlimit:4;stroke-dasharray:none;stroke-opacity:1"
         id="path2214" />
      <path
         d="M 331.06811,725.63173 C 331.58269,726.53664 331.87762,727.58917 331.87762,728.71201 C 331.87762,732.09029 328.69907,733.99031 325.40959,733.99031 C 322.1201,733.99031 319.45037,732.16298 319.45037,728.7847 C 319.45037,727.66052 319.746,726.60682 320.26172,725.70118"
         style="fill:none;fill-opacity:0.74901961;stroke:#000000;stroke-width:1.53214324;stroke-miterlimit:4;stroke-opacity:1"
         id="path3189" />
      <path
         d="M 328.69228,727.73952 C 328.69228,729.46271 327.29535,730.85963 325.57216,730.85963 C 323.84897,730.85963 322.45204,729.46271 322.45204,727.73952 C 322.45204,726.01632 323.84897,724.6194 325.57216,724.6194 C 327.29535,724.6194 328.69228,726.01632 328.69228,727.73952 z "
         style="fill:#000000;fill-opacity:0.74901961;stroke:#000000;stroke-width:1.53214324;stroke-miterlimit:4;stroke-dasharray:none;stroke-opacity:1"
         id="path2216" />
      <path
         d="M 437.85109,752.69198 L 445.55702,771.60653 L 450.6943,748.48875 L 437.85109,752.69198 z "
         style="fill:#ffffff;fill-rule:evenodd;stroke:#000000;stroke-width:1.53214324;stroke-linecap:butt;stroke-linejoin:miter;stroke-miterlimit:4;stroke-dasharray:none;stroke-opacity:1"
         id="path3209" />
      <path
         d="M 476.61424,782.34812 C 476.14721,779.54597 471.54165,771.11797 460.96888,769.2714 C 453.26927,767.92663 442.59402,770.18674 435.28245,768.33735 C 429.36162,766.83972 422.88089,762.36532 419.40357,757.36224 C 415.2528,751.39021 416.60141,743.19579 412.39818,735.41202 C 407.80576,741.17201 409.98522,747.63253 410.53008,755.49413 C 402.27929,748.48875 400.09984,738.44769 402.59064,728.87366 C 391.45986,742.02823 394.57336,753.78171 403.52469,767.16978 C 396.05228,764.28979 392.7831,760.70926 388.11284,757.59575 C 388.81337,774.25301 391.14851,779.93516 410.53008,778.84543 C 407.18306,781.64759 406.87171,784.21623 400.48902,787.25189 C 412.24251,788.80865 414.88899,788.73081 420.33763,781.41407 C 421.66087,786.16217 421.58303,787.40757 421.50519,792.15567 C 429.36679,786.39568 427.7104,777.81152 432.4803,778.3784 C 438.69072,779.11649 441.79206,784.12971 446.72459,783.28217 C 458.88355,781.19293 466.184,786.39568 475.9137,787.95243 C 476.14721,786.08433 476.38073,784.21623 476.61424,782.34812 z "
         style="fill:#ffcc00;fill-opacity:1;fill-rule:evenodd;stroke:#000000;stroke-width:1.53214324;stroke-linecap:butt;stroke-linejoin:miter;stroke-miterlimit:4;stroke-dasharray:none;stroke-opacity:1"
         id="path3213" />
      <path
         d="M 462.83698,788.41946 L 452.3289,775.10922 L 450.92782,787.95243 L 462.83698,788.41946 z "
         style="fill:#ffffff;fill-rule:evenodd;stroke:#000000;stroke-width:1.53214324;stroke-linecap:butt;stroke-linejoin:miter;stroke-miterlimit:4;stroke-dasharray:none;stroke-opacity:1"
         id="path3211" />
      <path
         d="M 461.02314,794.59461 C 456.32391,813.58335 446.22052,821.31343 429.36194,821.83797 C 430.42245,827.56746 435.53607,832.84662 443.35177,829.56919 C 433.78092,839.63548 425.11077,846.099 410.58611,847.60871 C 418.8453,862.87996 428.00518,868.69394 448.87407,846.13609 C 442.65941,859.96383 439.59719,871.99017 419.42179,882.21514 C 444.54642,902.48986 460.66412,879.53135 465.07282,849.81763 C 465.73037,874.44453 469.08999,895.46867 456.23714,918.29418 C 488.57189,904.14795 484.87892,879.64378 485.68942,850.18578 C 487.6529,859.02147 487.94748,870.71613 493.83161,877.59353 C 500.15302,884.98202 498.6998,896.89961 498.20664,908.35402 C 507.701,899.47782 512.91055,890.10466 511.82832,880.37437 C 510.6594,869.86468 506.9196,858.5306 504.46524,847.60871 C 513.95732,857.67157 518.4956,862.33028 526.18629,877.79729 C 541.74581,858.03858 523.07897,842.33299 518.82323,822.57427 C 525.44998,829.56919 532.97744,832.96133 538.70351,843.55902 C 543.98839,824.45442 538.01459,811.20433 526.18629,791.64938 C 534.61559,794.59347 537.6407,795.28582 542.01688,804.53475 C 550.94619,787.22925 540.51062,775.32791 526.92261,760.72449 C 536.4969,765.2291 545.6208,762.9785 547.5392,756.6748 C 536.12186,753.28265 530.10868,745.38705 529.49967,735.69005 C 536.78283,735.93892 545.41703,734.83674 544.59397,724.2773 C 535.06137,726.49079 526.91663,724.30743 518.73505,714.81192 C 518.73505,714.81192 478.85264,715.62765 459.50415,715.57718 C 459.04436,715.57598 454.63454,718.48091 451.16861,719.39258 C 438.35167,722.76388 418.19335,732.12813 420.97144,737.64707 C 423.63607,742.94059 425.47353,749.13981 431.06254,757.32888 C 433.09706,760.30988 439.74513,758.25203 443.67224,756.87853 C 448.88334,755.05596 455.98378,750.37112 461.68609,750.57369 C 469.1504,750.83884 475.68642,755.3598 476.09718,760.03096 C 476.51651,764.79968 477.50008,770.9911 476.31432,776.40722 C 475.5445,779.92346 473.52618,780.36764 471.19341,782.2814 C 467.12821,785.61641 457.91227,782.17189 451.37817,782.74843 C 447.70442,783.07258 439.35035,783.97218 439.16877,786.15105 C 438.9,789.37634 444.30692,796.41396 447.692,798.26036 C 449.26073,799.11603 451.8735,795.13875 454.0302,794.25728 C 456.00586,793.44981 458.69216,794.48216 461.02314,794.59461 z "
         style="fill:#ffffff;fill-rule:evenodd;stroke:#000000;stroke-width:1.53214324;stroke-linecap:butt;stroke-linejoin:miter;stroke-miterlimit:4;stroke-dasharray:none;stroke-opacity:1"
         id="path3191" />
      <path
         d="M 489.69097,781.64758 C 489.69097,792.82427 477.55664,794.72431 460.50185,794.72431"
         style="fill:#ffffff;fill-rule:evenodd;stroke:#000000;stroke-width:1.53214324;stroke-linecap:round;stroke-linejoin:round;stroke-miterlimit:4;stroke-dasharray:none;stroke-opacity:1"
         id="path3193" />
      <path
         d="M 482.45207,753.159 C 486.49962,759.23034 487.278,776.04327 479.88342,784.91677"
         style="fill:#ffffff;fill-rule:evenodd;stroke:#000000;stroke-width:1.53214324;stroke-linecap:round;stroke-linejoin:round;stroke-miterlimit:4;stroke-dasharray:none;stroke-opacity:1"
         id="path3195" />
      <path
         d="M 491.32556,726.07151 C 494.18609,723.26935 498.34313,718.41401 504.6358,718.59909 C 510.59037,718.77422 515.14388,726.01313 515.14388,734.24446 C 515.14388,742.47579 510.76551,748.37199 504.6358,751.52442"
         style="fill:#ffffff;fill-rule:evenodd;stroke:#000000;stroke-width:1.53214324;stroke-linecap:round;stroke-linejoin:round;stroke-miterlimit:4;stroke-dasharray:none;stroke-opacity:1"
         id="path3197" />
      <path
         d="M 501.36661,725.37096 C 508.21632,727.47258 508.06065,734.71148 507.20443,742.1839"
         style="fill:#ffffff;fill-rule:evenodd;stroke:#000000;stroke-width:1.53214324;stroke-linecap:round;stroke-linejoin:round;stroke-miterlimit:4;stroke-dasharray:none;stroke-opacity:1"
         id="path3199" />
      <path
         d="M 457.69969,716.86303 C 457.87483,718.67276 457.1871,721.15335 460.26833,723.03584 C 463.66062,725.10837 468.00864,726.67247 473.34506,729.34069 C 475.79695,730.56663 479.29964,729.69095 481.2845,729.80771"
         style="fill:#ffffff;fill-rule:evenodd;stroke:#000000;stroke-width:1.53214324;stroke-linecap:round;stroke-linejoin:round;stroke-miterlimit:4;stroke-dasharray:none;stroke-opacity:1"
         id="path3201" />
      <path
         d="M 460.03482,723.03584 C 459.15915,725.13745 455.65646,727.35582 457.23267,730.97528 C 458.80888,734.59473 460.67698,736.46283 465.40562,736.34607 C 470.13426,736.22932 470.60128,731.20879 472.87804,729.5742"
         style="fill:#ffffff;fill-rule:evenodd;stroke:#000000;stroke-width:1.53214324;stroke-linecap:butt;stroke-linejoin:miter;stroke-miterlimit:4;stroke-dasharray:none;stroke-opacity:1"
         id="path3205" />
      <path
         d="M 467.54434,729.29234 C 467.54434,731.01553 466.14741,732.41245 464.42422,732.41245 C 462.70103,732.41245 461.3041,731.01553 461.3041,729.29234 C 461.3041,727.56914 462.70103,726.17222 464.42422,726.17222 C 466.14741,726.17222 467.54434,727.56914 467.54434,729.29234 z "
         style="fill:#000000;fill-opacity:0.74901961;stroke:#000000;stroke-width:1.53214324;stroke-miterlimit:4;stroke-dasharray:none;stroke-opacity:1"
         id="path3203" />
      <path
         d="M 422.43924,741.95039 C 421.26306,740.39367 432.52683,740.68933 435.04894,742.1839 C 437.85646,743.84759 430.37868,747.55469 427.57652,747.55469 C 424.77437,747.55469 424.4241,744.5774 422.43924,741.95039 z "
         style="fill:#000000;fill-rule:evenodd;stroke:#000000;stroke-width:1.53214324;stroke-linecap:butt;stroke-linejoin:miter;stroke-miterlimit:4;stroke-dasharray:none;stroke-opacity:1"
         id="path3207" />
      <path
         d="M 362.35801,754.46588 C 369.22802,742.44608 374.09014,743.53308 374.13892,731.64036 C 374.20137,716.41193 360.14908,716.30064 350.94525,716.91423 C 337.44629,735.07646 316.67287,750.00341 316.33882,761.82895 C 316.16113,768.31508 321.24753,775.20519 322.59743,781.70924 C 326.03353,779.25488 329.605,773.48178 333.64203,773.60986 C 343.15789,773.91176 355.76632,775.44472 363.83062,772.5054 C 368.89712,770.65873 371.80728,764.65146 373.03445,759.25188 C 368.12574,761.58352 365.35253,767.86103 360.14908,768.45571 C 352.46716,769.33365 343.31346,766.35679 335.4828,766.61495 C 332.14614,766.72494 326.5244,766.12408 323.33374,767.35125 C 323.57917,763.42428 323.81886,758.98659 325.54266,755.57034 C 330.56834,745.61035 342.25657,738.43479 349.47263,738.26713 C 356.00226,738.11542 362.48072,745.38476 362.35801,754.46588 z "
         style="fill:#ffcc00;fill-opacity:1;fill-rule:evenodd;stroke:#000000;stroke-width:1.53214324;stroke-linecap:butt;stroke-linejoin:miter;stroke-miterlimit:4;stroke-dasharray:none;stroke-opacity:1"
         id="path6210" />
      <path
         d="M 323.49901,766.91274 C 335.40264,757.83163 341.98685,765.38777 348.36817,778.76401 C 348.98176,770.91007 345.37645,760.40881 340.2688,758.14742 C 335.37485,755.98064 328.91659,758.72501 324.00787,760.81122 C 324.13059,762.40655 323.37629,765.31741 323.49901,766.91274 z "
         style="fill:#ffcc00;fill-opacity:1;fill-rule:evenodd;stroke:#000000;stroke-width:1.53214324;stroke-linecap:butt;stroke-linejoin:miter;stroke-miterlimit:4;stroke-dasharray:none;stroke-opacity:1"
         id="path2212" />
      <path
         d="M 317.86041,671.14751 C 317.79769,671.14751 311.09306,676.37835 311.09306,680.37064 C 311.09306,684.67842 311.27045,682.71901 315.03521,687.22959 C 312.48707,684.28791 304.24868,683.42438 304.0535,692.13551 C 303.98943,694.99532 310.63314,700.17188 310.63314,700.17188 C 310.63314,700.17188 313.19484,692.72535 314.04967,694.49035 C 314.9045,696.25535 316.6143,699.5063 314.04967,703.96784 C 311.48503,708.42937 308.91993,709.06999 303.7907,709.06999 C 298.66146,709.06999 293.35296,707.84103 290.78833,703.96784 C 288.22369,700.09464 289.93344,698.31604 290.78833,696.8452 C 291.64321,695.37435 294.21424,698.08073 294.21424,698.08073 C 294.21424,698.08074 297.63077,695.59608 297.63077,691.93928 C 297.63077,682.99544 291.2379,683.77271 287.63461,689.97691 C 290.70784,678.57522 278.95249,677.81957 278.95249,677.81957 L 287.90009,715.11078 L 347.82073,715.11078 L 356.76832,677.81957 C 356.76832,677.81957 345.02236,678.57522 348.0956,689.97691 C 344.4923,683.77271 338.09943,682.99544 338.09943,691.93928 C 338.09943,695.59608 341.51596,698.08073 341.51596,698.08073 C 341.51596,698.08074 344.07761,695.37435 344.93249,696.8452 C 345.78738,698.31604 347.49713,700.09464 344.93249,703.96784 C 342.36786,707.84103 337.05936,709.06999 331.93012,709.06999 C 326.80088,709.06999 324.23578,708.42937 321.67115,703.96784 C 319.10652,699.5063 320.81632,696.25535 321.67115,694.49035 C 322.52598,692.72535 325.09706,700.17188 325.09706,700.17188 C 325.09706,700.17188 331.73139,694.99532 331.66731,692.13551 C 331.47213,683.42438 323.23375,684.28791 320.68561,687.22959 C 324.45037,682.71902 324.63715,684.67842 324.63715,680.37064 C 324.63715,676.37835 317.92315,671.14751 317.86041,671.14751 z "
         style="fill:#ffcc00;fill-opacity:1;fill-rule:evenodd;stroke:#000000;stroke-width:1.53214288;stroke-linecap:butt;stroke-linejoin:miter;stroke-miterlimit:4;stroke-dasharray:none;stroke-opacity:1"
         id="path5417" />
      <path
         d="M 488.86581,671.14751 C 488.80309,671.14751 482.09846,676.37835 482.09846,680.37064 C 482.09846,684.67842 482.27585,682.71901 486.04061,687.22959 C 483.49247,684.28791 475.25408,683.42438 475.05891,692.13551 C 474.99484,694.99532 481.63855,700.17188 481.63855,700.17188 C 481.63855,700.17188 484.20024,692.72535 485.05507,694.49035 C 485.9099,696.25535 487.6197,699.5063 485.05507,703.96784 C 482.49044,708.42937 479.92534,709.06999 474.7961,709.06999 C 469.66686,709.06999 464.35836,707.84103 461.79373,703.96784 C 459.2291,700.09464 460.93885,698.31604 461.79373,696.8452 C 462.64862,695.37435 465.21965,698.08073 465.21965,698.08073 C 465.21965,698.08074 468.63617,695.59608 468.63617,691.93928 C 468.63617,682.99544 462.24331,683.77271 458.64001,689.97691 C 461.71324,678.57522 449.9579,677.81957 449.9579,677.81957 L 458.90549,715.11078 L 518.82613,715.11078 L 527.77372,677.81957 C 527.77373,677.81957 516.02776,678.57522 519.101,689.97691 C 515.49771,683.77271 509.10484,682.99544 509.10484,691.93928 C 509.10484,695.59608 512.52137,698.08073 512.52137,698.08073 C 512.52137,698.08074 515.08301,695.37435 515.9379,696.8452 C 516.79279,698.31604 518.50253,700.09464 515.9379,703.96784 C 513.37326,707.84103 508.06477,709.06999 502.93553,709.06999 C 497.80628,709.06999 495.24119,708.42937 492.67656,703.96784 C 490.11192,699.5063 491.82173,696.25535 492.67656,694.49035 C 493.53139,692.72535 496.10247,700.17188 496.10247,700.17188 C 496.10247,700.17188 502.7368,694.99532 502.67271,692.13551 C 502.47753,683.42438 494.23915,684.28791 491.69102,687.22959 C 495.45578,682.71902 495.64255,684.67842 495.64255,680.37064 C 495.64255,676.37835 488.92856,671.14751 488.86581,671.14751 z "
         style="fill:#ffcc00;fill-opacity:1;fill-rule:evenodd;stroke:#000000;stroke-width:1.53214288;stroke-linecap:butt;stroke-linejoin:miter;stroke-miterlimit:4;stroke-dasharray:none;stroke-opacity:1"
         id="path4393" />
    </g>
  </g>
</svg>
