<?xml version="1.0" encoding="UTF-8"?>
<svg version="1.1" viewBox="0 0 800 500" xmlns="http://www.w3.org/2000/svg">
<rect width="800" height="500" ry="1.1465" fill="#0076bc"/>
<path d="m491.9 471.19c-1.0122-1.3941-3.5593-7.4794-3.5593-8.5034 0-0.38091-0.473-0.69265-1.0511-0.69265-1.1628 0-2.9788-2.5264-3.4691-4.826-0.16988-0.7969-0.65613-1.4348-1.0938-1.4348-1.5474 0-4.26-3.753-5.0298-6.959-0.29425-1.2253-0.48693-1.3718-1.1167-0.84917-0.59081 0.49038-0.92921 0.4921-1.5127 8e-3 -1.1853-0.98373-4.3996-10.232-4.0434-11.634 0.19038-0.74941-0.7887-0.38425-1.7155 0.63986-1.204 1.3304-1.5562 1.0665-3.3424-2.5039-1.9128-3.8234-2.5909-5.9662-3.0656-9.6875l-0.38577-3.0242-1.4297 1.1262c-0.78635 0.61941-1.6595 0.9842-1.9404 0.81062-0.90286-0.55799-3.1516-8.5904-3.1516-11.257 0-2.4271-0.55231-3.2768-1.3213-2.0325-1.0977 1.7761-2.7889-2.8629-2.8295-7.7616-0.0219-2.671 2.0731-10.194 3.1425-11.283 0.76647-0.78066 0.56785-2.3739-0.29598-2.3739-2.3241 0 0.85705-5.5598 6.5217-11.398 3.8014-3.9181 8.2016-6.0149 14.4-6.862 6.0013-0.82012 6.3765-1.098 5.9892-4.4349l-0.30282-2.6087-6.2608-0.097c-12.513-0.19389-57.057-1.2277-64.304-1.4924l-7.4347-0.27158v2.5213c0 2.382 0.0957 2.5559 1.7327 3.1478 0.95299 0.3446 3.7525 0.62654 6.221 0.62654 4.5871 0 9.7853 0.87908 9.7853 1.6548 0 0.23767 0.35686 0.43213 0.79298 0.43213 1.4488 0 5.0003 2.638 8.8874 6.6015 4.2811 4.3652 4.9726 5.652 3.5835 6.6677-0.86973 0.63598-0.86217 0.7497 0.14541 2.179 3.038 4.3098 4.8396 9.6313 4.8381 14.291 0 5.0599-0.69312 6.1389-2.7584 4.3043-1.0091-0.89642-1.0198-0.87504-0.59008 1.1739 0.53556 2.553 0.41467 5.8515-0.35368 9.6521-0.66824 3.3052-1.2888 3.9118-2.9132 2.8474-0.63834-0.41825-1.2862-0.76045-1.4398-0.76045-0.15355 0-0.27924 1.5855-0.27924 3.5234 0 3.4956-1.2823 9.0913-2.7059 11.808l-0.74113 1.4144-2.8138-2.2134-0.0397 2.5161c-0.0219 1.3839-0.56968 4.3944-1.2174 6.69-1.0996 3.8968-1.2656 4.1646-2.5009 4.0344-1.1735-0.12371-1.3608 0.0966-1.6571 1.9494-0.48646 3.0421-1.9273 5.745-3.2379 6.0739-0.84479 0.21203-1.2239 0.81119-1.4642 2.3146-0.45798 2.864-1.3837 4.6711-2.3928 4.6711-0.64904 0-1.0994 1.007-1.8081 4.0434-0.51907 2.2239-1.3562 4.8574-1.8604 5.8522l-0.91658 1.8087-1.1048-1.8087c-0.60761-0.99479-1.7121-3.3935-2.4545-5.3304-0.96458-2.5167-1.6138-3.5217-2.2751-3.5217-0.84782 0-2.6169-2.8036-3.3744-5.3478-0.14948-0.50217-0.74874-0.91303-1.3317-0.91303-0.58288 0-1.0598-0.17849-1.0598-0.39662 0-0.21814-0.54448-0.98384-1.21-1.7015-0.66547-0.7177-1.5385-2.4175-1.94-3.7772-0.72453-2.4539-1.1869-2.9531-1.8066-1.9506-0.17734 0.28695-0.53139 0.52173-0.78673 0.52173-0.75672 0-3.6227-6.4825-4.2525-9.6189-0.32066-1.5965-0.74895-2.9027-0.9518-2.9027-0.2029 0-0.80269 0.47937-1.3329 1.0652-0.95879 1.0595-0.97314 1.0507-2.6593-1.6235-1.8873-2.9932-3.1416-6.6469-3.7193-10.835l-0.38421-2.7842-1.2678 1.1008c-0.6973 0.60547-1.519 1.0194-1.8261 0.91981-0.96139-0.31173-3.3908-8.285-3.4099-11.191-0.0193-2.9559-0.18057-3.1727-1.4303-1.923-1.071 1.071-1.4872 0.53774-2.184-2.7983-1.0931-5.2338-0.3194-11.149 2.0712-15.835 1.2079-2.3676 1.2574-3.052 0.22085-3.052-2.8826 0 2.6944-8.6485 9.0591-14.048 2.1899-1.8579 5.4653-3.1273 10.256-3.9747 7.7558-1.3719 7.3228-1.0862 7.1111-4.6935-0.10039-1.7101-0.21892-3.1495-0.26343-3.1988-0.23092-0.25536-50.064-1.2148-63.096-1.2148h-15.124l0.3197 2.6992c0.1758 1.4845 0.5123 2.8918 0.7478 3.1273s3.5873 0.68571 7.4486 1.0005c9.2565 0.7547 12.826 2.2918 18.372 7.9104 2.0785 2.106 4.1248 4.4882 4.5474 5.2938 0.6984 1.3312 0.6829 1.5273-0.1695 2.1506-0.8815 0.64453-0.8253 0.84961 0.9322 3.4046 2.7273 3.9648 4.1006 8.9464 3.8694 14.037-0.2071 4.5599-0.5118 5.2528-1.7607 4.0039-1.3104-1.3104-1.8141-1.0015-1.2069 0.7402 0.6081 1.7443 0.2712 7.4221-0.6275 10.574-0.6037 2.1176-1.7601 2.9642-2.7274 1.9969-1.2875-1.2875-1.6883-0.50666-1.7734 3.4549-0.062 2.9075-0.4822 5.1386-1.4961 7.954-0.7751 2.1522-1.4866 3.9985-1.5813 4.1029-0.095 0.10445-0.8301-0.32885-1.6344-0.96286l-1.4622-1.1528-0.3446 3.7807c-0.3619 3.969-1.7519 9.1454-2.5961 9.6671-0.2729 0.16872-0.8243 0.0344-1.2252-0.29818-0.5965-0.49502-0.7891-0.24239-1.0601 1.3898-0.6803 4.0978-2.7774 7.6725-4.1844 7.1326-0.5885-0.22586-0.7639 0.16794-0.7654 1.7194 0 2.229-1.6554 5.4036-2.814 5.4036-0.4751 0-0.8663 0.80217-1.0813 2.2174-0.5381 3.5427-2.4507 8.6728-3.1354 8.4101-0.5448-0.20905-2.8373-4.7469-4.3806-8.671-0.3103-0.78912-0.9054-1.4348-1.3225-1.4348-0.9034 0-2.5663-2.2508-3.2763-4.4347-0.2799-0.86086-0.9457-1.6498-1.4795-1.7533-1.3697-0.26541-2.9349-2.39-4.213-5.7183-0.6315-1.6449-1.2526-2.6012-1.4655-2.2566-0.6622 1.0715-1.8288 0.63172-2.6775-1.0094-1.0002-1.9343-2.6566-7.0171-3.1585-9.6922l-0.3635-1.9376-1.2353 1.5316c-1.4012 1.7374-1.3738 1.757-3.6627-2.6388-1.5592-2.9944-3.2972-8.7126-3.2972-10.848v-1.4567l-1.1419 1.0638c-0.9695 0.90323-2.5103 1.4519-2.5103 0.89383 0-0.0934-0.6085-1.9118-1.3524-4.0408-0.8847-2.5324-1.3594-5.0086-1.3727-7.161l-0.02-3.2901-1.2338 1.1591c-0.6786 0.63751-1.3046 1.0604-1.3911 0.93967-1.5667-2.1858-1.9228-11.195-0.6-15.177 0.4818-1.4508 1.1992-3.257 1.594-4.0137 0.9162-1.756 0.905-2.1376-0.096-3.2439-0.7472-0.82568-0.7404-1.0624 0.076-2.6498 1.8951-3.6847 6.3307-8.9383 9.7138-11.505 2.6569-2.016 8.4359-4.0638 11.468-4.0638 1.9104 0 5.1943-0.92881 5.6494-1.5979 0.1435-0.21091 0.1813-1.8159 0.084-3.5667l-0.1767-3.1832-20.954 5e-3c-20.122 5e-3 -50.86 1.095-56.542 2.006-2.2156 0.3552-2.9752 0.26817-4.1001-0.46976-5.5448-3.6373-8.9469-20.158-7.4086-35.975 0.7044-7.2429 2.7472-14.884 4.8285-18.06 1.8975-2.8959 1.9665-2.9068 23.117-3.6436 10.82-0.37695 20.171-0.69559 20.779-0.70809 0.6078-0.0125 2.1617-1.0792 3.4529-2.3705 1.2914-1.2913 2.6135-2.3478 2.9383-2.3478 0.3246 0 0.5904-0.23478 0.5904-0.52174 0-0.28695 0.3521-0.52173 0.7826-0.52173 0.4304 0 0.7826-0.19514 0.7826-0.43364 0-0.81604 6.4876-3.3293 9.8977-3.8343 3.7306-0.55243 10.187-0.20045 13.058 0.7119 2.6789 0.8512 7.2762 4.1236 9.5612 6.8059l1.996 2.343 8.4386 0.33249c4.6413 0.18286 14.502 0.36798 21.912 0.41136l13.473 0.0789 1.9181-1.9034c2.8208-2.799 4.9673-4.5108 5.6573-4.5116 0.3348-3.4e-4 0.68697-0.17672 0.7826-0.39193 0.23629-0.53163 4.4108-2.5232 6.8752-3.28 2.6307-0.80786 11.912-0.79185 14.053 0.0243 3.602 1.3729 5.9015 2.5544 7.0057 3.5998 0.63365 0.59989 1.2686 1.0907 1.4111 1.0907 0.48537 0 2.8369 2.5762 3.7271 4.0832 0.87917 1.4883 0.94814 1.506 7.1632 1.8402 3.4515 0.18558 13.517 0.33742 22.367 0.33742 12.821 0 16.092-0.13729 16.092-0.67539 0-0.37147 1.2326-1.6041 2.7391-2.7391 1.5065-1.135 2.8174-2.2398 2.913-2.455 0.0956-0.21522 0.39412-0.3913 0.66333-0.3913s1.3648-0.57266 2.4348-1.2726 2.6496-1.4366 3.5105-1.6371 1.8666-0.60229 2.235-0.89285c0.92816-0.73209 12.56-0.65456 13.303 0.0887 0.32092 0.32092 1.0871 0.58349 1.7026 0.58349 2.2562 0 11.638 7.2157 11.702 8.9999 0.0188 0.53189 24.026 0.47588 59.173-0.13806 29.05-0.50744 29.166-0.50528 30.913 0.57421 2.2042 1.3622 4.8983 4.6579 6.5743 8.042 4.237 8.5554 4.2946 23.067 0.13717 34.593-2.0301 5.628-5.0808 10.061-7.5666 10.995-4.8317 1.8154-32.005 3.4898-66.081 4.0718l-18.343 0.31332-0.20896 1.7901c-0.36239 3.1039 0.35342 3.5 6.9823 3.8634 9.1959 0.5041 13.266 2.0697 18.45 7.0976 5.5718 5.4038 7.106 7.9507 5.2242 8.6728-0.6049 0.23213-0.39662 0.89442 1.0226 3.2513 2.8788 4.7807 4.0497 8.9905 3.8323 13.778-0.20112 4.4292-0.51599 5.2037-1.7119 4.2112-0.8535-0.70837-2.0681-0.26404-1.5537 0.56836 0.52361 0.84719 0.28758 6.7114-0.39239 9.7499-0.70815 3.1645-1.4351 3.709-3.3108 2.4801l-1.3003-0.85199-0.01 4.0555c-7e-3 3.0427-0.36552 5.0869-1.4348 8.186-0.78375 2.2718-1.6704 4.2123-1.9704 4.3121-0.29995 0.0999-1.063-0.30058-1.6956-0.89003l-1.1503-1.0716-0.0183 1.716c-0.0188 1.7385-0.9722 6.3606-2.0494 9.9332-0.58413 1.9372-1.6843 2.5393-2.4313 1.3306-0.22325-0.36125-0.68388 0.68222-1.0895 2.4682-0.74357 3.2739-2.5714 6.4959-3.6886 6.5018-0.71363 5e-3 -0.72672 0.0329-1.6792 3.7255-0.42062 1.631-1.0064 2.5921-1.8 2.9537-0.91225 0.41562-1.3217 1.2739-1.8228 3.821-0.69255 3.5204-2.0171 7.2526-2.5643 7.2258-0.18407-9e-3 -0.7286-0.55903-1.2101-1.2222z" stroke="#000" stroke-width=".52173"/>
<path d="m494.3 464.5c0.45271-2.2118 0.82309-4.5373 0.82309-5.1678 0-1.1084 0.0339-1.1155 1.0302-0.21401 0.99928 0.90437 1.0493 0.8872 1.6658-0.5713 0.34961-0.827 0.64903-2.8536 0.66542-4.5036 0.0292-2.9414 0.40434-3.7724 1.0011-2.2174 0.50358 1.3124 1.822 0.87661 2.7625-0.91304 0.49006-0.93259 1.0244-3.3047 1.1873-5.2714l0.29619-3.5758 1.404 1.3049 1.4039 1.3049 0.85575-2.4248c0.47237-1.3384 0.98649-4.9317 1.1476-8.0202l0.2918-5.5954 1.4836 1.6824c0.81599 0.92535 1.4874 1.8585 1.492 2.0737 5e-3 0.21521 0.23368 0.3913 0.5091 0.3913 0.27543 0 1.0012-1.5848 1.6127-3.5217 1.2489-3.9553 1.5246-10.419 0.54829-12.855-0.33224-0.82892-0.51657-1.5946-0.40961-1.7016 0.10701-0.10696 1.2171 0.61473 2.467 1.6038 1.2498 0.98903 2.4359 1.6972 2.6356 1.5738 0.19977-0.12346 0.63323-1.7749 0.96323-3.6698 0.65206-3.7445 0.32692-7.4469-0.85909-9.7821-1.0238-2.0159-0.58549-2.2302 1.9728-0.96451l2.1708 1.074-0.22044-4.5305c-0.25356-5.2107-1.6634-8.8808-5.2228-13.595-1.7376-2.3014-1.9411-2.7845-1.078-2.5588 4.0716 1.0647 1.1952-3.2623-6.0735-9.1365-3.1675-2.5598-6.6851-3.5525-14.287-4.0318-4.0568-0.25579-7.4283-0.41275-7.4923-0.3488-0.064 0.0639-0.28179 1.3638-0.48402 2.8885l-0.36777 2.7723 3.0375 2.8269c1.6706 1.5548 3.2882 2.8261 3.5946 2.825 0.30637-1e-3 2.9595 1.191 5.8959 2.6489 3.9308 1.9517 5.905 3.2938 7.4856 5.0888 3.4281 3.8932 3.5261 4.7655 0.19345 1.7213-2.7172-2.482-7.8638-5.3665-11.804-6.6161-1.2546-0.39784-3.7824-1.9672-6.3298-3.9298l-1.4642-1.1281 0.10284 3.8475c0.0566 2.1162 0.2785 4.3224 0.49319 4.9028 0.61393 1.6597 3.5374 4.2902 8.0715 7.2628 6.2915 4.1246 8.7623 6.6895 11.944 12.399 1.5427 2.768 2.8534 6.0887 1.7381 4.4036-0.35154-0.53122-1.6502-2.4934-2.8859-4.3603-2.4981-3.7743-4.553-5.9924-7.6658-8.2744-1.1476-0.8413-2.3214-1.7119-2.6087-1.9347-0.28721-0.22276-1.6961-1.1433-3.1309-2.0457-1.4348-0.90236-3.1968-2.1764-3.9157-2.8311l-1.3071-1.1904 0.14421 4.2796c0.19961 5.9244 0.76022 7.5604 3.5224 10.28 6.9664 6.8579 8.1334 8.4112 10.136 13.491 1.2277 3.1148 0.80853 3.2555-0.73841 0.24777-1.6834-3.2731-5.2253-7.6582-7.923-9.8093-1.3896-1.108-2.8176-2.3696-3.1733-2.8035-0.35571-0.43387-0.77075-0.66487-0.92232-0.51333-0.15151 0.15153-0.0329 4.0083 0.26405 8.5705 0.29682 4.5622 0.65494 11.347 0.79586 15.078 0.14092 3.7304 0.37658 8.7633 0.52366 11.184 0.62493 10.286-0.62519 1.6713-2.6452-18.228-0.45156-4.4478-0.99369-9.7797-1.2047-11.849-0.21109-2.069-0.53336-3.9114-0.71613-4.0941-0.9087-0.90869-6.9016 9.0192-8.5014 14.084-0.57861 1.8316-0.6768 1.9276-0.72135 0.70528-0.1189-3.2609 3.9588-12.765 6.22-14.498 0.18725-0.14348 0.93536-1.3174 1.6624-2.6087 1.2284-2.1816 1.2921-2.6248 0.90014-6.2608-0.23201-2.1522-0.43632-4.4587-0.45406-5.1257-0.0271-1.015-0.80441-0.41979-4.7696 3.6521-5.9428 6.1028-8.3907 9.6481-10.654 15.431-1.9632 5.0149-2.4672 4.3574-0.73434-0.95789 1.8085-5.5473 3.9235-8.8918 8.8864-14.052 6.4038-6.6587 6.8961-7.6982 6.2156-13.125-0.29296-2.3362-0.60704-4.3221-0.69798-4.413-0.091-0.0909-0.99531 0.82668-2.0097 2.0392-1.0144 1.2125-3.6694 3.4599-5.9001 4.9943-5.445 3.7451-6.7645 4.9827-9.2502 8.676-1.1634 1.7286-1.9394 2.5559-1.7244 1.8385 1.2377-4.1297 4.1202-7.6539 9.7375-11.905 5.2138-3.946 5.8141-4.5344 7.6296-7.4791l1.1753-1.9062-1.1098-2.9663c-0.96891-2.5896-1.252-2.925-2.2289-2.6414-0.61544 0.1787-2.2929 0.53375-3.7277 0.78899-10.876 1.9348-14.496 4.147-19.913 12.171-2.3038 3.4118-2.3955 4.3038-0.39109 3.8007 1.4404-0.36152 1.309 0.34965-0.62029 3.3554-2.1681 3.3779-3.5124 9.0476-3.1817 13.419 0.16216 2.1444 0.42954 4.0337 0.5942 4.1983 0.16461 0.16463 0.82664-0.1753 1.4712-0.7554 0.64449-0.58011 1.611-1.2106 2.1478-1.4011 0.82027-0.29113 0.92039-0.15791 0.62775 0.83529-0.99499 3.3774-0.93572 7.1387 0.16993 10.779 0.61925 2.0389 1.2864 3.707 1.4825 3.707 0.19607 0 1.3045-0.92983 2.4632-2.0664l2.1066-2.0664 0.012 5.0663c0.0104 4.4494 0.20108 5.506 1.5652 8.6761 0.85434 1.9854 1.7896 3.688 2.0782 3.7836 0.28873 0.0956 1.2186-0.94183 2.0663-2.3054l1.5415-2.4793 0.36281 3.8335c0.3456 3.6512 2.0317 9.9306 3.1074 11.573 0.41931 0.64011 0.71008 0.53347 1.7514-0.64241 1.3704-1.5476 1.8582-1.1343 1.8681 1.5831 6e-3 1.5545 2.1714 6.5416 3.0863 7.1071 0.32447 0.2005 1.0173-0.16325 1.5397-0.80838l0.94977-1.1729 0.36876 2.78c0.20285 1.5289 0.72495 3.4686 1.1602 4.3104 0.75766 1.4651 0.83383 1.492 1.7864 0.62999 0.79945-0.72354 1.0353-0.75834 1.1999-0.17728 2.1687 7.6537 3.2676 10.273 3.9946 9.5222 0.24026-0.24819 0.80723-2.2609 1.2599-4.4727z" fill="#f9cf00"/>
<path d="m322.9 464.34c0.2753-1.4348 0.6523-3.7522 0.8378-5.1498 0.2489-1.8765 0.4901-2.3882 0.9218-1.9565 0.3216 0.32154 0.8665 0.58465 1.2109 0.58465 0.7857 0 1.9607-4.7502 1.6681-6.7438-0.1947-1.327-0.1155-1.4251 0.7261-0.89942 0.5196 0.32447 0.9447 0.78214 0.9447 1.017 0 0.23483 0.2588 0.26713 0.575 0.0717 1.0463-0.64669 2.1928-4.0915 2.5068-7.5323l0.3095-3.3913 1.029 1.1739c0.566 0.64565 1.2025 1.1739 1.4146 1.1739 0.9168 0 1.9923-5.6966 2.0125-10.66l0.021-5.2531 2.023 2.2365c1.1126 1.2301 2.1467 2.0362 2.298 1.7913 0.1514-0.24479 0.7575-2.1856 1.347-4.3129 1.2663-4.5696 1.3535-7.7432 0.3083-11.216-0.4199-1.3952-0.7033-2.597-0.6297-2.6706 0.074-0.0736 0.7496 0.38505 1.5022 1.0191 3.9263 3.3076 3.4986 3.1486 4.1653 1.5487 0.3298-0.79159 0.6182-3.5523 0.6409-6.1349 0.033-3.7862-0.1492-4.9766-0.9424-6.1466-1.2976-1.914-0.7904-2.283 1.7607-1.2809l2.0925 0.82197v-3.5172c0-1.9345-0.3874-4.6742-0.8609-6.0884-0.8651-2.5836-3.6396-7.2975-5.5823-9.4842l-1.043-1.1739h1.6745c1.569 0 1.6354-0.0731 1.0537-1.1601-1.0444-1.9513-5.6613-6.5473-8.2389-8.2012-3.941-2.529-6.6354-3.2743-13.351-3.6931-3.4434-0.21474-6.6008-0.47617-7.0163-0.58096-0.5609-0.14144-0.8722 0.60098-1.2085 2.8824l-0.453 3.0729 1.9911 2.0535c1.1829 1.2199 3.7914 2.8974 6.4259 4.1323 2.4391 1.1434 5.2564 2.4755 6.2608 2.9604 2.0755 1.002 6.8083 5.491 7.8241 7.421 0.4506 0.85624-0.274 0.39309-2.1662-1.3847-1.5638-1.4692-3.3592-2.835-3.9897-3.0351-0.6306-0.20012-1.1465-0.58282-1.1465-0.85043 0-0.26762-0.2478-0.48658-0.5507-0.48658-0.6993 0-9.389-3.7312-10.321-4.4318-0.3841-0.28859-1.374-1.1704-2.1998-1.9595-0.8258-0.78913-1.568-1.4351-1.6495-1.4355-0.5308-3e-3 0.5187 9.3392 1.1622 10.344 0.7895 1.2333 5.4058 4.7599 10.212 7.8012 4.1181 2.606 8.2325 7.6745 10.788 13.29 1.2502 2.7472 0.7671 2.4331-1.2037-0.7826-3.6208-5.9077-6.8441-8.955-15.191-14.361-0.7639-0.49477-2.1139-1.4438-3-2.109l-1.6111-1.2094 0.01 3.5572c0.011 6.7238 0.2262 7.2316 5.1677 12.184 5.2149 5.2264 6.8816 7.5141 8.3492 11.46 0.587 1.5782 0.778 2.4313 0.4244 1.8956-0.3536-0.53564-1.5686-2.376-2.7002-4.0896-1.9081-2.8898-7.7387-8.7646-9.7881-9.8625-0.7935-0.42505-0.8627-0.20912-0.6435 2.0075 1.0145 10.261 2.1325 38.759 1.2846 32.744-0.5409-3.8362-2.4528-20.84-3.241-28.826-0.3187-3.2282-0.7632-5.8695-0.9879-5.8695-0.8998 0-5.7525 7.6929-7.0442 11.167-2.1282 5.7242-2.343 6.0902-2.0197 3.4414 0.47-3.8511 2.7146-9.4648 4.9823-12.461 3.9655-5.2387 4.1743-5.9184 3.5462-11.545-0.3041-2.723-0.592-4.9895-0.6398-5.0367-0.048-0.0472-2.3572 2.3562-5.1319 5.3408-5.8175 6.2575-8.3885 10.216-10.467 16.114-1.0396 2.9507-1.3884 3.5766-1.1751 2.109 0.9998-6.8802 3.6276-11.858 9.6987-18.372 6.5994-7.0805 6.9175-7.7602 6.2234-13.296-0.2969-2.3674-0.5398-4.3959-0.5398-4.5079s-1.2326 1.0879-2.7391 2.6665c-1.5065 1.5785-4.1477 3.8199-5.8695 4.9809-4.0073 2.7022-7.7295 6.3461-9.102 8.9106-0.349 0.65215-0.7487 1.0716-0.8882 0.93205s0.3777-1.4998 1.1495-3.0228c1.6139-3.1849 4.6593-6.321 8.8198-9.0826 3.1455-2.0878 6.1912-5.3073 7.433-7.857 0.7224-1.4832 0.6927-1.812-0.3909-4.331-0.8999-2.0917-1.3676-2.6442-2.01-2.3746-0.9418 0.39519-3.3891 0.89802-8.4694 1.7401-6.6091 1.0955-11.829 5.2675-16.629 13.29l-1.2106 2.0234 3.6912-0.43094-1.1412 1.8442c-3.3375 5.3931-4.7731 10.837-4.2201 16.001 0.195 1.8206 0.5709 3.4439 0.8353 3.6073s0.4808 0.0545 0.4808-0.24198c0-0.60345 3.0884-2.3471 3.4741-1.9614 0.1356 0.13568-0.028 1.2658-0.3632 2.5113-0.3354 1.2456-0.4669 3.307-0.2923 4.581 0.3953 2.8839 1.9405 7.8682 2.4393 7.8682 0.2044 0 0.9245-0.59649 1.6003-1.3255 2.6231-2.8298 2.8548-2.6663 2.8535 2.0128 0 4.2096 0.6032 6.7509 2.6034 10.945 0.5068 1.0629 1.1715 1.9316 1.477 1.9304 0.3056 0 1.1667-1.083 1.9135-2.404l1.358-2.402 0.566 4.3843c0.5125 3.9703 1.9686 8.8985 3.1947 10.812 0.3794 0.59233 0.7208 0.44692 1.7443-0.743l1.2726-1.4795 0.3462 2.609c0.3586 2.7039 2.6812 8.0072 3.5067 8.0072 0.2589 0 0.7639-0.46956 1.1223-1.0435 0.8882-1.4221 1.4441-1.3102 1.4441 0.29071 0 2.1201 1.0908 5.8816 1.9004 6.5535 0.5851 0.48557 0.8904 0.4105 1.4518-0.35718 0.6575-0.89921 0.7538-0.81699 1.2851 1.0965 0.3158 1.1378 0.5756 2.274 0.5772 2.5251 0 0.25106 0.6273 1.8478 1.3904 3.5483 1.5454 3.4435 1.9326 3.3198 2.7377-0.87443z" fill="#f9cf00"/>
<path d="m408.73 464.63c0.45344-1.9935 0.82439-4.4587 0.82439-5.4782 0-2.0554 0.27689-2.2368 1.5944-1.0445 0.82178 0.74373 0.94079 0.67434 1.4758-0.8605 0.32009-0.91814 0.58195-2.962 0.58195-4.542 0-2.7498 0.0407-2.8357 0.95414-2.0091 0.52476 0.47494 1.1737 0.86347 1.4421 0.86347 1.017 0 2.456-4.4563 2.4754-7.6659 0.0198-3.2874 0.37909-3.6102 1.81-1.6268 0.37497 0.51975 0.85455 0.94497 1.0657 0.94497 0.77712 0 1.7776-5.1069 2.0414-10.42l0.2713-5.4636 3.9016 4.5301 0.862-2.5953c1.9142-5.7631 2.0425-9.7518 0.49059-15.246-0.33923-1.2009-0.21308-1.1597 1.9981 0.65217 1.2981 1.0637 2.6001 1.934 2.8934 1.934 1.5332 0 1.6322-10.182 0.13111-13.49-0.87922-1.9376-0.90886-2.2259-0.20097-1.9543 0.45678 0.17527 1.3956 0.46051 2.0863 0.63387 0.69072 0.17336 1.2559 0.52453 1.2559 0.78038 0 0.25584 0.23478 0.46517 0.52173 0.46517 0.75104 0 0.63141-5.5419-0.18578-8.6086-0.99672-3.7406-3.2424-7.7458-5.9446-10.602-1.0142-1.0722-0.77441-1.537 0.65216-1.2643 2.1345 0.40802 1.5856-1.0004-1.8378-4.716-5.2761-5.7265-10.449-8.1956-17.185-8.2026-1.5897-2e-3 -4.288-0.23189-5.9962-0.51162-3.6852-0.60346-3.9181-0.39776-3.9296 3.4703-7e-3 2.5503 0.12005 2.8074 2.3792 4.796 1.3129 1.1557 4.1889 2.9559 6.3912 4.0005 2.2022 1.0446 4.8042 2.2907 5.7821 2.7691 2.1051 1.03 6.8933 5.5385 7.8501 7.3916 0.57114 1.1062 0.36657 1.0198-1.347-0.56916-3.536-3.279-4.2598-3.8466-6.0286-4.7284-2.197-1.0952-5.8562-2.739-8.4036-3.7752-1.0874-0.44232-3.0534-1.6861-4.3688-2.764l-2.3917-1.9598 0.37507 4.42c0.21407 2.5226 0.75286 5.092 1.255 5.9852 0.51386 0.9141 3.1945 3.1099 6.444 5.2786 7.7794 5.1918 11.699 9.455 14.203 15.45 1.2391 2.9654 0.95837 3.017-0.76528 0.14078-0.85982-1.4348-1.8554-3.0748-2.2125-3.6446-1.4302-2.2824-6.7552-7.1253-10.378-9.4381-2.1102-1.3473-4.7336-3.155-5.83-4.0172l-1.9933-1.5677 0.36684 5.1599c0.40309 5.6706 0.94501 7.168 3.4027 9.4025 5.6806 5.1649 7.3224 7.164 9.3877 11.431 1.19 2.4586 2.0594 4.5743 1.9321 4.7017-0.12741 0.12735-0.55826-0.41368-0.95743-1.2024-0.39923-0.78868-1.5849-2.7253-2.6349-4.3035-1.8029-2.7101-2.6748-3.6236-8.2273-8.6197l-2.2822-2.0535 0.38415 5.9888c0.21125 3.2938 0.46836 6.8105 0.57135 7.8148 0.25158 2.4533 1.2504 20.67 1.2563 22.913 0 0.98038-0.0945 1.6834-0.21579 1.5621-0.2713-0.2713-1.5918-10.672-2.6435-20.823-0.43116-4.1608-1.0178-9.5608-1.3038-12-0.28591-2.4391-0.52163-4.5345-0.52382-4.6564 0-0.1219-1.0643 1.1439-2.3603 2.8129-2.4133 3.1078-5.1406 8.303-6.3087 12.017-0.9867 3.1373-0.90964 0.33714 0.0977-3.5502 0.88194-3.4037 2.5942-6.8086 4.9049-9.754 2.9209-3.7232 3.3109-5.0269 2.8787-9.6242-0.21719-2.3109-0.41477-4.6126-0.43909-5.1147-0.0433-0.89185-0.86409-1.3425-0.86409-0.47437 0 0.24127-1.601 2.0608-3.5578 4.0434-6.5724 6.6592-9.0569 10.36-11.35 16.909-1.6396 4.6812-1.5775 2.1361 0.0715-2.9334 1.8223-5.602 3.0285-7.4991 8.5451-13.439 6.3292-6.8153 6.5124-7.2094 6.0705-13.062-0.35159-4.6578-0.71811-5.9935-1.2287-4.4776-0.14494 0.43043-1.4862 1.9565-2.9804 3.3913-2.8684 2.7541-3.2524 3.0661-5.7434 4.665-2.5643 1.646-5.9824 5.075-7.6977 7.7223-1.8849 2.9088-2.3104 2.9408-1.1179 0.0839 1.3601-3.2585 4.4016-6.6644 9.1194-10.212 4.7462-3.569 6.1949-5.011 7.5828-7.5475 0.85372-1.5601 0.84787-1.7666-0.12459-4.4347-0.80555-2.2103-1.235-2.7687-2.0432-2.6569-10.815 1.4958-15.035 3.0604-19.217 7.1249-2.3837 2.3167-6.5884 8.1912-6.5884 9.2048 0 0.40749 0.53608 0.50837 1.5858 0.29843l1.5858-0.31715-1.7876 3.2519c-2.8688 5.2188-3.6293 8.2052-3.3661 13.219 0.22523 4.2907 0.63996 5.6856 1.3584 4.5687 0.19962-0.31034 1.157-0.97124 2.1274-1.4687l1.7645-0.9044-0.46017 1.4838c-0.84052 2.7103-0.47118 9.6223 0.64736 12.115l1.0247 2.2832 2.1744-2.1527c1.1959-1.184 2.2422-2.1525 2.3252-2.1522 0.083 3.3e-4 0.16336 2.2894 0.17875 5.0869 0.025 4.5274 0.20593 5.4858 1.648 8.7226 0.89107 2 1.848 3.7122 2.1266 3.8051 0.2786 0.0929 1.1761-0.95649 1.9945-2.3319l1.488-2.5008 0.34533 3.3913c0.40675 3.994 1.1469 6.9206 2.6085 10.314l1.0631 2.4684 1.1511-1.4348c1.5323-1.91 1.8935-1.8108 1.8995 0.52173 6e-3 2.293 2.1962 7.3112 3.3913 7.7697 0.49075 0.18835 1.1169-0.078 1.5383-0.65425 0.65238-0.89217 0.7381-0.80128 1.0448 1.1084 0.1838 1.1442 0.81468 3.1315 1.402 4.4163 0.95435 2.0876 1.1379 2.2401 1.7267 1.4348 0.94178-1.288 1.1651-1.1423 1.5718 1.0257 0.47452 2.5295 2.878 8.5078 3.4204 8.5078 0.23342 0 0.79543-1.6311 1.2489-3.6247z" fill="#f9cf00"/>
<path d="m487.54 360c0.10831-7.4608 0.4573-15.795 0.7755-18.522 1.5296-13.104 1.0094-21.871-1.7486-29.47-1.3857-3.8174-4.5083-8.6437-6.7564-10.442-0.90771-0.72631-1.9112-1.5305-2.23-1.7872-1.7065-1.374-5.6332-2.7642-9.2826-3.2865-4.4994-0.64396-9.6491-0.0847-12.576 1.3656-0.85909 0.42575-2.149 0.99577-2.8664 1.2667-1.6782 0.63383-7.826 5.25-7.826 5.8764 0 0.26263 2.6286 0.47751 5.8415 0.47751 5.3448 0 5.999-0.10857 7.6956-1.2771 1.0197-0.7024 2.9593-1.5702 4.3101-1.9283 2.102-0.55735 2.8616-0.52342 5.2686 0.23534 1.5469 0.48762 3.4938 1.4725 4.3265 2.1886 0.83269 0.7161 1.6399 1.3023 1.7939 1.3026 0.51437 1e-3 4.0414 5.0286 5.344 7.6174 0.70762 1.4064 1.7895 4.7137 2.4041 7.3495 1.0588 4.5409 1.1102 5.8964 0.97945 25.826l-0.138 21.033 1.8174 4.6338c1.7994 4.588 1.8215 4.6163 2.2437 2.8695 0.23452-0.97032 0.51501-7.8685 0.62337-15.329z" fill="#eac302"/>
<path d="m401.77 356.87c0.2449-8.6086 0.59916-20.021 0.78719-25.361 0.36787-10.447-0.16388-15.001-2.4721-21.17-4.5164-12.071-16.377-17.863-28.758-14.042-4.0932 1.263-9.6105 4.4448-11.861 6.8402l-1.2204 1.2991h5.9183c5.6799 0 6.0355-0.0664 8.83-1.6483 9.6538-5.465 20.029 2.947 23.269 18.866 0.77587 3.8119 0.86895 6.6695 0.66307 20.348-0.29691 19.721 0.0606 25.272 1.8909 29.362 0.74201 1.6582 1.3732 3.419 1.4025 3.913 0.0292 0.49398 0.29004 0.0764 0.57923-0.92791 0.28925-1.0043 0.72626-8.8695 0.97116-17.478z" fill="#eac302"/>
<path d="m315.8 363.23c-0.055-6.0832 0.2453-16.491 0.6679-23.128 1.1101-17.436 0.1562-25.488-3.9787-33.585-2.439-4.776-6.7037-8.469-12.172-10.541-3.9942-1.513-10.981-1.4693-15.721 0.0985-2.0086 0.66444-3.7695 1.3601-3.913 1.5458-0.1434 0.18577-1.3173 0.95118-2.6086 1.7009-1.2913 0.74974-3.0374 2.0885-3.8802 2.9749l-1.5323 1.6117h5.7836c5.4173 0 5.9722-0.0992 8.7592-1.5652 7.4835-3.9365 15.295-0.01 20.271 10.189 3.2546 6.6713 3.7497 10.856 3.5779 30.245-0.081 9.1825 0.064 18.468 0.3235 20.635 0.5536 4.6247 3.2073 12.182 4.0013 11.395 0.3217-0.31884 0.4832-4.7582 0.4213-11.578z" fill="#eac302"/>
<path d="m481.32 350.47c0.69526-17.245 0.59811-23.266-0.45662-28.304-1.0369-4.9529-3.6462-10.876-5.9081-13.412l-1.4926-1.6735-36.652-0.41343c-20.159-0.22738-36.652-0.25681-36.652-0.0654 2.6e-4 0.19143 0.43935 1.372 0.97575 2.6234 2.0314 4.739 2.8319 9.7663 2.9744 18.68 0.0758 4.7347-0.0689 9.8752-0.32133 11.423-0.25247 1.548-0.62055 6.9968-0.81803 12.108l-0.35895 9.2938 10.383 0.15233c9.711 0.14246 10.471 0.0848 11.745-0.89115 1.925-1.475 3.8744-5.1397 5.1144-9.6144 0.58502-2.1112 1.1839-3.9587 1.3309-4.1056 0.14692-0.14695 0.74154 0.80516 1.3213 2.1158 0.91037 2.0581 0.9891 2.8421 0.57719 5.7506-0.26232 1.8522-0.8512 4.0914-1.3087 4.976s-0.83175 1.733-0.83175 1.8852c0 0.271 9.7905 0.45803 36.569 0.69855l13.352 0.11994 0.45746-11.348z" fill="#fff"/>
<path d="m457.42 346.3c-1.363-0.10475-2.4782-0.37145-2.4782-0.59265 0-0.22121 0.62848-2.1453 1.3966-4.2757 1.1959-3.3167 1.4017-4.736 1.4321-9.8735 0.0287-4.8651-0.17332-6.5748-1.0682-9.0395l-1.1036-3.0396 1.1063 0.26484c0.60845 0.14566 1.9791 0.42295 3.0458 0.61621 1.7781 0.32211 2.0298 0.59241 3.0225 3.2456 2.1583 5.7686 1.9124 13.407-0.63636 19.764-1.3133 3.2751-1.1945 3.2013-4.7169 2.9306z"/>
<path d="m527.21 361.31c23.281-0.68098 23.01-0.648 26.064-3.1717 2.8043-2.3173 5.3628-5.4852 6.9255-8.5747 1.1747-2.3225 2.7496-8.7317 2.7496-11.19 0-1.351 0.19795-1.5926 1.3043-1.5926 1.2262 0 1.3041 0.16416 1.3004 2.7391-0.0104 7.0768-2.5193 14.544-6.151 18.305l-1.932 2.0008 2.8695-0.29014c1.5782-0.15958 4.7478-0.42881 7.0434-0.59828 4.9244-0.36354 6.9628-1.1804 8.7264-3.4968 6.0092-7.8926 8.5596-23.579 5.8245-35.823-1.2964-5.8038-5.7881-12.653-8.7842-13.394-1.3696-0.33882-86.298 0.56797-86.655 0.92522-0.14702 0.147 0.22597 1.4157 0.82883 2.8194 0.60281 1.4036 1.5748 4.8949 2.1598 7.7583 0.91945 4.5003 1.0229 6.4104 0.76257 14.087-0.16566 4.8843-0.52998 10.876-0.80958 13.315-0.2796 2.4391-0.52314 7.1934-0.54119 10.565l-0.0329 6.1304 10.565-5e-3c5.8108-3e-3 18.313-0.23198 27.782-0.50896z" fill="#fff"/>
<path d="m516.47 330.39c-0.0459-6.324-0.13518-6.9339-1.6602-11.333-0.90124-2.5996-1.8655-4.0877-4.191-6.4677l-3.0205-3.0913 3.2632 0.34107c2.8217 0.29493 3.5257 0.59747 5.2039 2.2362 1.0675 1.0423 2.6528 3.231 3.5231 4.8637 2.0308 3.8102 3.4852 11.588 2.9571 15.815l-0.37278 2.9835h-2.832-2.832l-0.0386-5.3478z"/>
<path d="m232.88 359.08c5.4695-9.436 5.8618-36.324 0.6988-47.897-1.5764-3.5336-3.1984-5.114-4.4489-4.3349-1.7785 1.1081-3.7497 4.7384-5.0604 9.3192-3.3974 11.874-2.8937 29.141 1.1444 39.228 1.7655 4.4101 2.9979 5.902 4.8755 5.902 1.2215 0 1.7476-0.41802 2.7906-2.2174z" fill="#fff"/>
<path d="m227.41 356.26c-1.3215-1.535-1.4581-1.9202-2.4969-7.0407-1.3927-6.8651-1.8235-11.204-1.1536-11.618 0.6239-0.38558 0.9041 0.66955 1.3756 5.1804 0.391 3.741 1.7428 10.059 2.4352 11.381 1.2689 2.4238 3.2538-3.4044 3.8065-11.177l0.2743-3.856-0.9169 3.1234c-2.415 8.2277-6.0635 0.0507-5.106-11.444 0.2044-2.4542 0.5854-4.4621 0.8466-4.4621s0.4805 2.9934 0.4873 6.6521c0.015 7.7265 0.7571 12.056 1.876 10.938 0.1778-0.17777 0.5313-2.3756 0.7855-4.884 0.2645-2.6099 0.74-4.7324 1.1116-4.962 0.7064-0.43659 0.7481-0.60017 0.8449-3.3089 0.1204-3.3732 0.9552-1.8664 1.3078 2.3605 0.3998 4.7944-0.4118 14.612-1.5393 18.621-0.4209 1.4964-1.294 3.3355-1.9403 4.0868-1.1289 1.3125-1.2072 1.3286-1.9983 0.40965z"/>
<path d="m234.22 339.1c-0.017-0.2726-0.01-2.9833 0.027-6.0239 0.059-5.6911-0.9799-13.773-2.2369-17.398-2.3726-6.842-5.4924-0.94041-6.958 13.162-0.4211 4.0521-1.5112 4.1404-1.2971 0.10509 0.2498-4.7054 2.0442-12.991 3.3124-15.294 1.8568-3.3725 4.3332-3.2067 5.8212 0.38974 0.5898 1.4257 1.6412 5.9966 2.2296 9.6936 0.4918 3.0898 0.2764 14.717-0.283 15.276-0.3216 0.32158-0.5984 0.36166-0.6152 0.0891z"/>
<path d="m247.03 360.22c3.9783-0.38308 45.687-1.4308 60.521-1.5202l2.0869-0.0126-0.029-17.346c-0.024-14.806-0.1654-17.919-0.9636-21.259-1.172-4.9033-3.8968-10.695-6.0748-12.913l-1.6654-1.6956-13.634 0.0188c-16.26 0.0224-54.063 0.84581-54.402 1.1849-0.1315 0.13152 0.3314 1.0799 1.0287 2.1074 0.6973 1.0276 1.764 3.707 2.3704 5.9543 1.8403 6.8201 2.304 12.096 2.0035 22.795-0.3031 10.789-1.2793 16.307-3.7578 21.242l-1.2784 2.5453 4.2882-0.2988c2.3585-0.16432 6.636-0.52486 9.5055-0.80117z" fill="#fff"/>
<path d="m254.51 355.81c2.2039-1.8544 5.2255-6.5848 5.7158-8.9483 0.3873-1.8666 0.5611-2.0195 2.6095-2.2957 1.2071-0.16277 2.1946-0.26598 2.1946-0.22936 0 0.5681-2.9152 7.2175-3.9039 8.9046-1.7369 2.9638-3.1327 3.8814-5.9043 3.8814h-2.2717l1.56-1.3127z"/>
<path d="m274.74 326.74c-1.1804-4.658-4.4153-11.045-7.1916-14.199l-2.0826-2.3659h2.3218c1.5532 0 2.7734 0.35526 3.6861 1.0732 1.2669 0.99658 1.7347 1.8066 3.4475 5.9702 0.6006 1.4599 1.491 13.304 1.0002 13.304-0.1226 0-0.6542-1.7022-1.1814-3.7826z"/>
<path d="m395.22 357.8c-0.20227-1.3489-0.0813-8.2162 0.26885-15.261 0.56713-11.41 0.54245-13.393-0.22575-18.167-1.0382-6.4515-2.6376-11.054-5.1627-14.859l-1.8802-2.8326-10.285-0.34446c-5.6569-0.18946-16.983-0.34447-25.168-0.34447h-14.883l1.2715 1.4348c1.8025 2.0339 2.6312 3.6378 3.4308 6.6403 1.2067 4.531 1.0663 4.9682-1.5953 4.9682h-2.3057l-1.1426-3.8491c-0.6856-2.3094-1.9106-4.866-3.0622-6.3912l-1.9196-2.5422-9.1103-0.33409c-5.0106-0.18374-9.1916-0.25888-9.2911-0.16697-0.1 0.0919 0.4232 1.6769 1.1614 3.5222 2.8564 7.1398 3.7366 17.741 2.5411 30.605-0.3586 3.8595-0.6521 9.7877-0.6521 13.174v6.1565l18.13 0.0734c9.9716 0.0404 25.056 0.23044 33.521 0.4224 8.4651 0.19196 17.942 0.39372 21.059 0.44835l5.6678 0.0993-0.36777-2.4526z" fill="#fff"/>
<path d="m362.08 355.42c0-0.15051 0.7994-1.4616 1.7764-2.9134 2.0865-3.1005 3.802-7.9901 4.2859-12.216 0.31586-2.7581 0.43763-2.9834 1.4456-2.6743 1.4611 0.44815 1.3486 0.24982 1.8144 3.1968 0.67434 4.2657 0.24563 7.3779-1.5067 10.937-1.4159 2.8761-1.8052 3.2911-3.0875 3.2911-0.80701 0-2.201 0.14674-3.0977 0.32608-0.8967 0.17935-1.6304 0.20294-1.6304 0.0524z"/>
<path d="m470.6 305.22c0-0.54007-3.8642-1.8331-5.4782-1.8331-1.614 0-5.4782 1.293-5.4782 1.8331 0 0.13962 2.4652 0.25386 5.4782 0.25386 3.013 0 5.4782-0.11424 5.4782-0.25386z" fill="#0076bc"/>
<path d="m384.55 304.22c-0.33631-0.40522-1.761-1.0125-3.166-1.3496-2.1207-0.50875-3.0467-0.46975-5.4524 0.22961-1.5938 0.46333-2.8979 1.0706-2.8979 1.3496 0 0.2993 2.4853 0.50716 6.0638 0.50716 5.1632 0 5.973-0.10943 5.4524-0.73676z" fill="#0076bc"/>
<path d="m296.86 303.01c-2.3857-1.0704-6.1208-1.067-8.0869 7e-3 -1.5277 0.83481-1.4277 0.85478 4.1739 0.83363 5.6507-0.0213 5.711-0.0343 3.913-0.84099z" fill="#0076bc"/>
<path d="m509.1 269.72c-0.15329-0.1533-1.7358-0.51338-3.5166-0.80018-5.3068-0.85464-16.767-5.7771-19.764-8.489-0.52674-0.47669-1.174-0.867-1.4384-0.86735-0.26436-3.5e-4 -1.095-0.5286-1.8458-1.1739-0.75082-0.6453-2.0833-1.7232-2.9611-2.3954-3.9709-3.0409-11.798-11.222-15.802-16.517-2.0882-2.7612-3.4622-4.8022-8.2539-12.261l-1.1732-1.8261 0.34017 3.3897c0.61037 6.0819 5.2901 15.784 11.702 24.262 3.0443 4.025 10.159 11.173 12.976 13.038 1.204 0.79677 2.1891 1.6788 2.1891 1.96 0 0.58833-8.7398 0.0897-11.217-0.63998-0.86086-0.25355-2.6217-0.75586-3.913-1.1162-3.7298-1.041-10.897-4.5601-14.869-7.301-3.5221-2.4302-11.144-9.8269-13.829-13.42-0.71545-0.95738-1.5487-2.0139-1.8517-2.3478-0.30303-0.33391-0.70654-1.018-0.89665-1.5201-0.37002-0.97713-1.6854-1.2314-2.1853-0.42247-0.18667 0.30211-0.91027 0.27893-1.8835-0.0603-0.86915-0.30299-1.6583-0.46505-1.7536-0.36014-0.17785 0.1958-0.31382 1.2326-1.6324 12.451-0.42156 3.5869-0.87807 6.8763-1.0144 7.3097-0.59363 1.8867-7.7889 4.0595-17.213 5.1979-5.3526 0.64658-23.632 0.3299-24.384-0.42245-0.33386-0.33386-1.1157-0.60701-1.7374-0.60701-1.4452 0-6.4869-2.0816-6.4869-2.6782 0-0.24869-0.32702-0.45217-0.72677-0.45217-0.3997 0-0.8557-0.33604-1.0133-0.74676-0.3205-0.83513-1.1512-8.5903-1.6712-15.601-0.37622-5.0722-0.0177-4.7213-3.7626-3.6819-0.71102 0.19734-1.1739 0.0961-1.1739-0.25679 0-1.0912-0.78026-0.57896-2.0869 1.3702-2.4011 3.5816-8.9377 10.569-13.307 14.224-2.3917 2.001-8.5348 5.5623-11.737 6.8039-1.5782 0.61204-3.2217 1.2906-3.6521 1.5079-0.4304 0.21732-2.0739 0.69499-3.6522 1.0615-1.5782 0.36651-3.5501 0.87191-4.3821 1.1231-1.9234 0.58076-9.1829 0.59907-9.1829 0.0232 0-0.23847 0.6423-0.76672 1.4274-1.1739 3.0608-1.5874 6.2843-4.5677 11.168-10.325 8.7413-10.306 14.503-21.414 14.513-27.98l0.01-2.6087-1.1311 1.8261c-2.7279 4.4035-7.4274 11.248-8.5662 12.476-0.6828 0.73638-1.2415 1.4831-1.2415 1.6593 0 0.74671-8.5907 9.6423-12.836 13.292-1.6923 1.4547-4.5671 3.6507-6.3886 4.8801-3.4517 2.3295-13.562 7.3444-14.806 7.3444-0.3942 0-0.9397 0.19867-1.2123 0.44149-1.1023 0.98184-8.6724 1.9047-15.365 1.873-8.5011-0.0402-13.649-1.072-20.608-4.1305l-2.0869-0.91717 4.9565-1.6911c5.9461-2.0287 10.631-3.9924 10.87-4.556 0.096-0.22602 0.5096-0.41096 0.92-0.41096 0.6902 0 2.7354-0.95876 3.3407-1.566 0.1435-0.14393 0.9653-0.60535 1.8261-1.0254 0.8609-0.42002 3.2719-1.887 5.3579-3.26 2.0859-1.373 3.9028-2.4963 4.0374-2.4963 0.2218 0 1.4884-0.97346 3.0548-2.3478 0.3271-0.28696 1.7435-1.4457 3.1476-2.575 3.296-2.6508 11.163-10.768 13.685-14.121 1.0794-1.4348 2.0938-2.7261 2.2542-2.8695 0.1605-0.14348 0.9715-1.2629 1.8025-2.4877 1.5923-2.3469 1.6062-3.4272 0.024-1.8448-0.514 0.51401-1.3359 1.1708-1.8264 1.4596-0.4906 0.28878-2.3155 1.5229-4.0554 2.7424-1.74 1.2196-3.2772 2.2174-3.4161 2.2174-0.139 0-1.6192 0.9049-3.2895 2.0109s-3.9173 2.3271-4.9934 2.7135c-1.076 0.38642-1.9565 0.8902-1.9565 1.1195 0 0.22931-0.2461 0.41693-0.5469 0.41693s-1.5334 0.49013-2.7391 1.0892-3.3661 1.521-4.8008 2.0489c-1.4348 0.52782-3.9 1.4633-5.4782 2.0788-13.185 5.1424-30.11 7.2789-39.913 5.0382-3.8068-0.87015-11.045-4.1199-13.526-6.0729-2.4049-1.8928-5.2286-4.6426-4.9919-4.8613 0.1418-0.13094 1.4317-0.37354 2.8664-0.5391 6.4109-0.7398 16.549-3.3542 21.391-5.5163 4.9004-2.1881 13.127-6.3229 15.836-7.959 1.8227-1.1011 3.5249-2.0019 3.7825-2.0019 0.2577 0 0.4684-0.23478 0.4684-0.52174 0-0.28695 0.2461-0.52173 0.5468-0.52173 0.691 0 10.088-6.2348 10.323-6.8487 0.096-0.25056 0.4478-0.4651 0.7826-0.47676 0.3348-0.0117 1.4304-0.74742 2.4348-1.635 1.1123-0.98304 1.4182-1.459 0.7826-1.2178-0.5739 0.21781-1.8652 0.56888-2.8696 0.78014-1.0043 0.21126-2.7652 0.73908-3.913 1.1729s-3.9651 1.3249-6.2608 1.9801c-2.2956 0.6552-5.4651 1.5892-7.0434 2.0755-1.5782 0.48636-4.8652 1.1711-7.3043 1.5216s-5.2837 0.85495-6.3213 1.1209c-2.4362 0.62436-9.9695 0.62347-12.4-2e-3 -1.0377-0.26674-3.2953-0.77023-5.017-1.1189s-3.9069-1.0695-4.8559-1.6019c-0.949-0.53235-1.9364-0.96798-2.1942-0.96798-0.5134 0-2.7727-1.4817-5.9664-3.913-7.0519-5.3684-13.903-16.323-17.785-28.434-0.4139-1.2913-0.755-2.3991-0.7581-2.4619-0.023-0.47152 1.9211 0.8259 3.7683 2.5145 1.224 1.1189 2.4181 2.0343 2.6535 2.0343s1.4094 0.66049 2.6089 1.4677c4.2337 2.8492 8.9735 4.8039 16.268 6.7088 5.2443 1.3696 21.178 1.364 27.13-9e-3 6.583-1.5192 8.2836-1.9747 9.2537-2.4789 0.4982-0.25899 1.1369-0.47088 1.4193-0.47088 0.2823 0 1.7977-0.5875 3.3675-1.3055s3.4876-1.5463 4.2617-1.8407 1.303-0.63969 1.1752-0.76749c-0.1278-0.12779-4.093-0.58086-8.8114-1.0068-8.5813-0.77466-12.165-1.4326-19.014-3.491-4.5586-1.37-5.2041-1.6113-8.0057-2.9926-1.2466-0.61464-2.4906-1.1175-2.7642-1.1175s-1.8362-0.8795-3.4724-1.9544c-1.6362-1.075-3.2191-2.0728-3.5176-2.2174-1.4467-0.70078-5.0384-3.7448-8.4088-7.1265-7.9215-7.9482-12.575-17.237-14.786-29.515-1.1169-6.203-1.3436-10.317-0.5684-10.317 0.2621 0 1.1833 0.961 2.0471 2.1356 2.4773 3.3686 8.1399 9.0921 11.824 11.951 4.5129 3.5024 11.179 7.8258 12.066 7.8258 0.3936 0 0.7156 0.23478 0.7156 0.52173 0 0.28696 0.2496 0.52174 0.5546 0.52174 0.3051 0 2.0072 0.68797 3.7826 1.5288 3.9936 1.8915 12.508 4.732 14.183 4.732 0.6841 0 1.3672 0.1996 1.5179 0.44356 0.3637 0.5884 9.0809 1.8189 10.744 1.5166 1.2352-0.22454 1.2144-0.2586-0.3913-0.64211-0.9326-0.22274-1.6956-0.61042-1.6956-0.86151 0-0.25108-0.3516-0.45651-0.7812-0.45651-0.8089 0-6.8404-2.6166-9.1318-3.9616-0.7174-0.42109-2.1847-1.1661-3.2608-1.6555s-1.9565-1.0693-1.9565-1.2885-0.2551-0.39865-0.5669-0.39865c-1.1121 0-10.488-7.1203-14.563-11.06-2.0696-2.0006-6.485-7.1853-8.1658-9.5887-3.2232-4.6084-6.9122-13.602-8.9726-21.873-1.2447-4.9966-2.8496-14.359-2.5183-14.691 0.1297-0.12972 1.1426 0.87835 2.2507 2.2402 2.8185 3.4634 8.1666 8.6534 11.62 11.276 1.6042 1.2183 3.034 2.352 3.1774 2.5194 1.2656 1.4759 15.742 10.17 21.157 12.707 1.133 0.53073 4.2183 1.9883 6.8562 3.239s5.1148 2.274 5.5043 2.274c0.3894 0 0.9693 0.26119 1.2885 0.58042 0.3192 0.31924 0.8638 0.48599 1.2101 0.37056 0.3463-0.11544-0.6659-1.188-2.2492-2.3834-4.1724-3.1502-8.566-7.6233-12.173-12.393-7.8254-10.348-11.592-19.628-13.495-33.248-0.7523-5.3833-1.0121-15.267-0.4593-17.47 0.2687-1.0707 0.5093-0.90314 2.603 1.8127 2.9737 3.8573 3.4974 4.5046 6.4306 7.9488 1.344 1.5782 3.0074 3.5739 3.6964 4.4347 3.0914 3.8627 15.935 16.078 18.887 17.964 1.7957 1.1468 3.5096 2.2697 3.8087 2.4954 1.7286 1.304 11.165 6.0892 19.021 9.6455 10.415 4.7145 16.13 8.1405 19.718 11.819 2.8305 2.902 4.8032 7.0184 4.8032 10.022 0 2.7772-1.5636 7.5359-3.001 9.1334-0.5016 0.55739-2.3187 2.7728-4.038 4.9232-1.7194 2.1504-3.4969 4.2619-3.9501 4.6924s-2.1607 2.5434-3.7946 4.6956c-6.0295 7.9421-6.452 13.363-1.4488 18.592 1.7674 1.8472 5.48 3.1348 14.042 4.8705 2.9563 0.59926 6.448 1.4539 7.7595 1.8991 2.9653 1.0068 8.8315 4.4878 11.219 6.6577 0.9879 0.89773 2.9559 2.5673 4.3733 3.7102 1.4174 1.1429 2.6554 2.2581 2.751 2.4782 0.096 0.22013 0.487 0.40023 0.8696 0.40023s0.7739 0.2059 0.8695 0.45756c0.2542 0.66881 8.5882 5.9892 11.794 7.5292 3.5311 1.6963 9.0863 3.4913 10.805 3.4913 1.3092 0 1.3194-0.0279 0.47749-1.3128-0.86452-1.3194-0.83864-5.0376 0.0501-7.1751 0.33882-0.81495 0.22028-0.86067-1.0142-0.3913-4.4936 1.7085-11.343-0.84311-13.341-4.9696-1.2806-2.6454-1.3885-6.3949-0.1971-6.852 0.4594-0.17629 0.9877-0.081 1.1739 0.21169 0.5284 0.83034 3.542 1.3085 5.8206 0.92354 2.4831-0.41952 5.4939-3.1903 6.0074-5.5286 0.43972-2.0021 0.0787-2.3632-1.5988-1.5989-2.5779 1.1746-6.7834 0.26013-9.684-2.1058-1.8087-1.4754-3.2029-5.1761-2.9483-7.8259 0.1336-1.3905 0.3753-2.6605 0.5371-2.8223 0.1618-0.16182 1.0523 0.4303 1.9789 1.3158 2.9755 2.8435 8.3084 2.0189 10.165-1.572 0.7346-1.4206 1.0626-6.7721 0.4525-7.3822-0.1669-0.16688-1.1184 0.0371-2.1144 0.45327-2.4766 1.0348-4.8942 0.47771-7.1464-1.6466-2.1722-2.0488-2.8235-4.5296-1.9133-7.2875 0.4859-1.4727 0.8178-1.8098 1.4864-1.5105 1.6957 0.75916 5.023 0.7564 5.9937-5e-3 0.52759-0.41372 1.1543-1.6173 1.3928-2.6746 1.4568-6.4595-3.5542-14.644-16.281-26.591-5.0802-4.769-5.9899-5.4751-7.077-5.4938-0.4989-9e-3 -2.3157-0.83679-4.0375-1.8404-6.0951-3.553-9.8003-5.0453-13.409-5.4006-1.9228-0.1893-3.6451-0.49327-3.8274-0.67549-0.4707-0.47073 2.3499-3.2003 4.0872-3.9553 2.7402-1.1908 8.3103-0.39543 13.671 1.9522 1.1956 0.52362 3.3912 1.0465 3.3912 0.80762 0-0.78311-7.9882-4.1687-11.015-4.6683-2.7773-0.45848-15.891-0.49111-16.619-0.0413-0.8889 0.54939-8.9128-0.7771-10.349-1.7109-1.6078-1.0449-2.7125-3.2992-2.7125-5.5347 0-2.593 2.1145-4.4818 5.0175-4.4818h2.1586l-0.2549 2.2608c-0.2444 2.169-0.1797 2.2964 1.5921 3.1372 1.5054 0.71434 3.904 0.90987 12.971 1.0574 9.7034 0.15786 11.424 0.31306 13.472 1.2152 1.2913 0.56885 3.0522 1.1929 3.913 1.3868l1.5652 0.3525-1.3705-1.2334c-0.9029-0.81262-2.2972-1.3432-4.0869-1.5551-2.1029-0.24905-3.0895-0.69363-4.3685-1.9686-0.9087-0.90576-2.4077-1.971-3.331-2.3672-3.0547-1.3108-7.4329-0.70704-9.615 1.3258-1.763 1.6425-2.3094 0.635-1.5343-2.8287 0.7877-3.5199 3.8836-7.071 7.089-8.1314 1.1478-0.3797 2.31-0.87722 2.5826-1.1056 0.6557-0.54929 7.2435-0.53609 7.8782 0.0158 0.2726 0.23706 1.5521 0.75037 2.8434 1.1407s2.971 1.1355 3.7327 1.6559c0.7617 0.52043 1.6421 0.94624 1.9565 0.94624s0.5716 0.23478 0.5716 0.52174c0 0.28695 0.587 0.52173 1.3044 0.52173 0.7173 0 1.3043-0.19742 1.3043-0.43871s1.2461-0.71759 2.7692-1.0584c2.2029-0.49297 3.2967-0.47909 5.3478 0.0679 2.9905 0.7975 6.5231 2.5578 7.5034 3.7389 0.3746 0.4514 0.8899 0.82073 1.1451 0.82073s2.046 1.5025 3.9796 3.3389c6.9935 6.6421 8.2521 7.633 10.748 8.4624 2.4254 0.80602 5.705 0.78659 7.7297-0.0458 0.71232-0.29285 0.81745-0.13386 0.56551 0.85539-0.38233 1.5011-2.3188 4.6468-3.4266 5.5662-0.45302 0.37597-1.925 1.1017-3.2712 1.6127l-2.4476 0.92908 1.9195 2.0318c2.4189 2.5604 5.995 7.8767 8.0349 11.945 2.3909 4.768 3.4135 5.6472 6.1001 5.2443 2.3973-0.3595 2.8677 0.0702 2.8677 2.6198 0 1.1909-2.7258 4.3966-3.7383 4.3966-0.24924 0 0.17217 1.2326 0.93646 2.7391 2.6999 5.3217 5.9673 13.819 9.3786 24.391 4.3832 13.584 4.7428 14.545 5.0758 13.565 0.14635-0.43043 1.9216-5.8304 3.9449-12 4.7792-14.572 6.6076-19.421 9.4377-25.027 1.7938-3.5534 1.8214-3.668 0.88471-3.668-1.352 0-2.9637-2.5389-2.9637-4.6688 0-2.3657 0.56853-2.9264 2.1235-2.0942 0.8138 0.43555 1.4692 0.43731 2.5086 7e-3 1.3276-0.54993 2.1213-1.7284 6.3243-9.3912 1.4706-2.6811 3.7304-5.7771 5.8922-8.0723l1.4574-1.5474-1.9791-0.78869c-3.2636-1.3006-6.9356-5.4031-6.9356-7.7488 0-0.28757 1.585-0.3995 3.7826-0.26713 4.9941 0.30081 6.4555-0.37762 11.693-5.4282 6.4775-6.2464 8.6405-7.9359 12.924-10.094 2.0664-1.0413 3.332-1.2925 6.4237-1.275 2.1177 0.012 4.0118 0.26389 4.2091 0.55979 0.84709 1.2702 2.3795 1.2544 4.3426-0.0448 1.0966-0.72568 2.2336-1.3194 2.5267-1.3194s0.5329-0.18352 0.5329-0.40783c0-0.40456 1.9882-1.0346 7.0817-2.2441 2.3554-0.55929 3.038-0.50223 6.1959 0.518 1.9519 0.63059 4.4467 1.868 5.5439 2.7498 2.5179 2.0234 4.2429 5.5817 4.0317 8.3164l-0.15787 2.0445-1.3463-1.2537c-1.4857-1.3834-3.9046-2.0848-6.8221-1.9782-2.7466 0.10037-4.47 0.88663-6.48 2.9563-1.368 1.4087-2.1886 1.8203-3.629 1.8203-1.0236 0-2.5122 0.33669-3.308 0.7482-1.6588 0.85779-3.0974 2.3822-2.2481 2.3822 0.30516 0 0.69991-0.23478 0.87725-0.52174 0.17738-0.28695 0.84859-0.52173 1.4917-0.52173 0.64304 0 1.3922-0.1952 1.6648-0.43378 1.4395-1.2598 5.6753-1.765 14.571-1.7377 5.1713 0.0159 10.283-0.20263 11.36-0.48554 2.46-0.64629 3.8486-2.5374 3.0116-4.1013-0.32065-0.59908-0.44055-1.3196-0.2665-1.6012 0.38812-0.62798 3.1415-0.32327 5.0709 0.56118 2.48 1.1368 2.6439 6.1052 0.28038 8.4985-1.9533 1.9778-5.4139 2.4357-17.358 2.2968-10.353-0.12038-11.137-0.0605-14.235 1.0867-3.474 1.2866-8.0913 3.7255-7.0729 3.7361 0.33281 4e-3 2.7604-0.69805 5.3948-1.5589 4.8572-1.5873 9.2268-2.003 11.575-1.1013 1.4605 0.5609 4.0774 2.926 4.0774 3.6851 0 0.30066-1.0109 0.54665-2.2465 0.54665-2.4458 0-8.1926 1.7316-10.275 3.096-0.71739 0.47003-2.0087 1.1979-2.8695 1.6176-0.86086 0.41964-1.6826 0.88073-1.8261 1.0247-0.63323 0.63528-2.6663 1.566-3.4206 1.566-0.45438 0-1.8076 0.6774-3.0071 1.5053-3.2784 2.2628-16.614 15.698-15.603 15.72 0.20812 4e-3 0.13492 0.18048-0.16263 0.3913-0.29754 0.21082-1.3045 1.5526-2.2377 2.9817-5.6075 8.5874-3.2555 18.144 3.5938 14.602 1.4998-0.77557 1.5612-0.75902 2.061 0.5557 2.2876 6.0169-3.2939 11.856-9.1901 9.6147-1.7856-0.6789-2.2756-0.0356-2.2866 3.0025-0.0245 6.7131 6.4351 9.7888 11.407 5.4314 0.68269-0.59829 1.4457-0.96142 1.6956-0.80696 0.72917 0.45065 0.52314 5.8786-0.28163 7.419-1.1207 2.1453-3.4323 4.0424-6.1628 5.0581-2.091 0.77774-2.8314 0.82404-4.8895 0.3058-1.3339-0.3359-2.554-0.48207-2.7112-0.32484-0.52565 0.52565 2.091 5.3846 3.2158 5.9714 3.1661 1.6518 8.0431 1.5474 9.3273-0.1997 1.3134-1.7868 1.9545 4.5166 0.70466 6.9283-0.87479 1.6879-3.6838 4.2784-4.6392 4.2784-0.37555 0-0.93709 0.25429-1.2479 0.56509-0.34017 0.3402-2.1516 0.49592-4.5514 0.3913l-3.9864-0.17379 0.33527 2.9523c0.24975 2.1999 0.12172 3.3802-0.50248 4.6315l-0.8377 1.6792 2.7192-0.36071c1.4956-0.19839 2.9598-0.54802 3.2539-0.77696 0.29415-0.22894 1.2391-0.58164 2.1-0.78378 2.9522-0.69321 11.749-5.6016 15.627-8.7191 0.30088-0.24193 1.721-1.3626 3.1558-2.4903 1.4348-1.1278 4.3695-3.4758 6.5217-5.218s4.2065-3.1692 4.5652-3.1712c0.3587-2e-3 0.65217-0.1894 0.65217-0.41641s1.2419-1.0416 2.7598-1.8102c2.6103-1.3217 4.329-1.786 14.979-4.0467 7.1148-1.5102 10.348-3.4004 12.211-7.1391 1.038-2.0826 1.0795-6.9022 0.0801-9.2942-0.70899-1.6968-6.0514-9.0824-8.3635-11.562-0.58199-0.62421-1.88-2.1289-2.8843-3.3438-1.0043-1.2149-2.4674-2.9607-3.2512-3.8795-4.133-4.8447-5.2135-11.359-2.6817-16.167 1.4607-2.7742 7.5733-9.1262 8.7823-9.1262 0.12584 0 1.2724-0.70434 2.5479-1.5652 1.2756-0.86086 2.6764-1.5652 3.1131-1.5652 0.43663 0 0.87218-0.17608 0.96781-0.3913 0.18798-0.42301 6.8713-3.7826 7.5248-3.7826 0.42683 0 8.8315-3.9276 10.127-4.7326 0.43043-0.26741 1.9565-1.0633 3.3913-1.7687 10.122-4.9763 21.214-14.691 31.742-27.803 1.4401-1.7935 2.7952-3.2608 3.0114-3.2608 0.2161 0 0.52355-0.41086 0.68321-0.91303 0.15965-0.50217 0.82329-1.5 1.4747-2.2174 0.65143-0.71738 1.5986-1.95 2.1047-2.7391 0.50614-0.78912 1.1496-1.4348 1.43-1.4348 0.78333 0 0.61784 14.24-0.23123 19.896-1.6834 11.214-4.2718 17.969-10.6 27.663-3.2514 4.981-10.441 12.845-14.485 15.843-3.8585 2.8609-3.6652 3.4908 0.48803 1.5911 1.6138-0.73817 3.0367-1.3421 3.1621-1.3421 0.33663 0 13.666-6.5932 16.698-8.259 1.4348-0.78849 3.6416-2.1288 4.9041-2.9786 1.2625-0.84972 2.6673-1.7797 3.1218-2.0667 2.7896-1.7612 5.5761-3.6252 5.8001-3.8799 0.14347-0.16314 1.5522-1.2883 3.1304-2.5004 3.0144-2.315 8.5589-7.8445 11.36-11.33 0.90979-1.1318 1.744-1.9536 1.8537-1.8261 0.31769 0.369-1.9978 12.867-3.228 17.423-2.0914 7.7463-4.7931 13.847-8.6638 19.564-2.7604 4.0772-9.8093 11.479-13.844 14.538-1.5782 1.1963-3.1043 2.363-3.3913 2.5927-2.8598 2.2889-15.931 9.5047-17.217 9.5047-0.17515 0-1.3614 0.47509-2.636 1.0558-1.2746 0.58065-2.9378 1.2916-3.6958 1.5798-2.1906 0.83286-1.0502 1.1596 1.9866 0.56913 1.5288-0.29723 4.5404-0.81102 6.6926-1.1418s4.3826-0.78695 4.9565-1.0138c0.57391-0.22687 2.1-0.68801 3.3913-1.0248 3.6111-0.94174 7.598-2.5495 13.213-5.3282 10.279-5.0864 18.179-11.335 24.512-19.386l3.231-4.1079 0.17849 2.7904c0.0981 1.5347-0.10586 4.786-0.45333 7.2251-2.3457 16.466-12.222 31.282-26.334 39.504-3.0503 1.7773-11.603 5.4447-14.609 6.2646-1.1478 0.31307-3.4076 0.9459-5.0217 1.4063-4.1585 1.1861-9.6293 1.9034-17.022 2.232-3.5152 0.15621-6.3894 0.43177-6.3872 0.61234 5e-3 0.41993 2.5985 1.6326 3.4912 1.6326 0.37319 0 0.67856 0.1972 0.67856 0.43823 0 0.24102 0.99782 0.75287 2.2174 1.1374 1.2196 0.38457 2.4522 0.86436 2.7391 1.0662 0.28696 0.20184 3.5739 1.1457 7.3043 2.0974 6.5336 1.6669 7.156 1.7306 16.956 1.7357 8.9762 5e-3 10.696-0.13546 14.609-1.19 4.6421-1.2511 4.9978-1.3755 8.9942-3.1461 1.3599-0.6025 2.6903-1.0955 2.9565-1.0955s0.56222-0.17608 0.65785-0.3913c0.21772-0.48983 2.9967-2.1841 4.2173-2.5712 0.50217-0.15925 0.91303-0.49695 0.91303-0.75043 0-0.25349 0.30454-0.46089 0.67674-0.46089 0.37221 0 1.5937-0.93912 2.7145-2.0869 3.2543-3.3327 3.572-2.7108 1.5165 2.9679-1.5918 4.3975-6.1312 14.021-6.9676 14.771-0.15992 0.14347-0.92723 1.2-1.705 2.3478-3.9993 5.9017-13.248 13.149-18.67 14.628-1.5782 0.43071-3.6823 1.0466-4.6758 1.3686-2.3126 0.74962-15.313 0.73783-18.623-0.0168-1.3899-0.31693-4.6401-1.0481-7.2227-1.6249-6.1226-1.3673-9.149-2.1362-10.435-2.6509-0.57391-0.22978-1.8652-0.66809-2.8695-0.97401-1.0043-0.30594-3.6761-1.1518-5.9373-1.8796-2.2612-0.72788-4.2129-1.2218-4.3371-1.0976s1.0973 1.1306 2.7144 2.2365c1.6171 1.1059 3.9209 2.7714 5.1197 3.7013 1.1987 0.92981 2.473 1.6928 2.8316 1.6956 0.3587 3e-3 0.65217 0.23985 0.65217 0.5268s0.30793 0.52173 0.68425 0.52173c0.37633 0 1.1882 0.46956 1.8043 1.0435 0.61601 0.57391 1.2523 1.0435 1.4139 1.0435s1.2191 0.61227 2.3499 1.3606c10.463 6.9238 30.28 14.291 38.444 14.291 2.0032 1.1e-4 3.3035 0.45314 3.3035 1.1509 0 2.0856-10.386 8.5671-15.707 9.8019-1.548 0.35925-3.3543 0.90502-4.0139 1.2128-1.6004 0.74672-14.292 0.71986-17.583-0.0373-1.4348-0.33007-4.0174-0.86306-5.7391-1.1844-3.4596-0.64577-11.93-2.9376-13.565-3.6701-0.57391-0.25717-2.2174-0.85297-3.6521-1.324-4.5663-1.4991-9.9872-4.0301-16.435-7.673-6.6657-3.7663-8.2178-4.7111-9.3831-5.7115-0.58492-0.50217-1.2761-0.91304-1.5358-0.91304-0.25972 0-0.55053-0.17608-0.64617-0.3913-0.35133-0.79049-4.0869-3.2954-4.0869-2.7405 0 0.3154 1.7496 2.8838 3.8881 5.7075 4.4949 5.9354 12.201 13.89 16.72 17.261 1.7217 1.284 3.2478 2.4803 3.3913 2.6585 0.62853 0.78063 10.094 6.722 10.709 6.722 0.37512 0 0.76032 0.17711 0.85595 0.39358 0.17009 0.3849 4.6074 2.6312 9.3185 4.7174 1.2991 0.57527 3.9991 1.5747 5.9999 2.221 6.1398 1.9831 5.7507 1.7419 4.0778 2.5277-0.81589 0.38323-1.8911 0.90417-2.3893 1.1576-0.49826 0.25348-1.3317 0.46086-1.8522 0.46086-0.52042 0-1.1692 0.19699-1.4419 0.43774-0.2726 0.24076-1.9043 0.72685-3.626 1.0802s-3.9794 0.86072-5.017 1.1275c-1.9916 0.51198-13.655 0.68223-14.131 0.20626z" stroke="#000" stroke-width=".52173"/>
<path d="m526.42 267.44c1.0043-0.30004 3.176-0.91055 4.826-1.3567s3-1.0089 3-1.2505-1.0626-0.73685-2.3612-1.1005c-1.2987-0.36361-2.4865-0.86368-2.6394-1.1113-0.15302-0.24759-0.63662-0.45017-1.0747-0.45017-2.1422 0-15.645-7.4553-21.837-12.057-4.9976-3.7139-13.816-11.264-13.841-11.852-8e-3 -0.19364-1.302-1.7316-2.8746-3.4176-1.5725-1.686-4.3404-5.2077-6.1508-7.826-3.181-4.6004-7.454-11.804-7.0019-11.804 0.12146 0 1.1628 0.88043 2.3142 1.9565 1.8116 1.6931 5 4.4425 6.6851 5.7645 0.28695 0.22512 1.9304 1.3347 3.6521 2.4658 1.7217 1.131 3.3652 2.2542 3.6521 2.4958 2.0168 1.6984 16.805 9.1211 21.913 10.999 22.445 8.2515 39.82 9.0348 51.13 2.3048 7.3758-4.389 7.6787-4.8374 3.5912-5.3178-4.7853-0.56242-13.561-3.1049-20.235-5.8628-5.2789-2.1812-16.829-8.1767-17.53-9.0994-0.14347-0.18895-1.0711-0.75892-2.0614-1.2666s-2.1222-1.2448-2.5155-1.638-0.88069-0.71494-1.0833-0.71494c-0.3109 0-6.529-4.2599-8.1657-5.5942-1.5605-1.2722-5.8043-3.8231-8.5687-5.1507-3.4893-1.6757-4.3233-3.1294-1.4747-2.5704 0.93259 0.18299 2.1652 0.53243 2.7391 0.77653 0.5739 0.2441 3.626 1.1957 6.7825 2.1146 3.1565 0.91893 7.0304 2.094 8.6086 2.6114 20.18 6.615 34.95 7.7475 44.944 3.4461 8.7368-3.7604 15.774-10.714 20.671-20.427 2.1822-4.3282 4.3517-9.7607 4.0276-10.085-0.1477-0.14769-0.91032 0.23592-1.6948 0.85247-4.6524 3.6567-11.535 6.7895-19.948 9.0799-3.8765 1.0554-5.6168 1.2062-13.826 1.198-7.8956-8e-3 -10.221-0.19944-14.603-1.203-8.7425-2.0022-14.512-4.1388-20.253-7.501l-2.5084-1.4689-1.2709 1.5104c-1.5587 1.8525-5.3721 3.7096-7.663 3.7319-1.6441 0.016-1.6663 0.0443-0.65786 0.84217 1.1009 0.87096 13.409 6.9672 14.067 6.9672 0.2112 0 1.1238 0.33141 2.028 0.73647 5.7707 2.5851 17.757 5.3433 26.415 6.0785 3.5804 0.30404 6.5843 0.6272 6.6753 0.71813 0.0909 0.0909-2.0168 0.32716-4.6839 0.52495-9.1055 0.67528-22.281-1.3753-29.892-4.6523-0.86086-0.37063-2.4208-0.9464-3.4666-1.2795-2.4222-0.77148-14.152-6.7452-16.823-8.5678-1.1162-0.76146-2.2127-1.3845-2.4368-1.3845-0.22409 0-0.56968 0.73853-0.76789 1.6412-0.53811 2.4499-4.4465 5.976-7.7934 7.031-2.4236 0.76398-3.1159 0.79007-5.2332 0.19726-1.3421-0.37576-3.2516-1.2338-4.2432-1.9068-0.99171-0.67299-1.8621-1.2236-1.9342-1.2236-0.072 0-0.18495 0.8006-0.25084 1.7791-0.14056 2.0867 1.1872 3.7746 8.5154 10.825 4.056 3.9023 5.7496 5.3939 10.173 8.9601 1.748 1.4091 11.391 7.5858 13.826 8.8563 3.8753 2.0218 9.5883 4.535 10.317 4.5387 0.3515 2e-3 1.2946 0.34516 2.0959 0.76309 0.80123 0.41794 2.2796 0.91423 3.2852 1.1029s1.7128 0.45854 1.5716 0.59976c-0.97533 0.9753-20.746-4.4683-22.226-6.1197-0.14347-0.16008-1.2587-0.7311-2.4782-1.2689-1.2196-0.53784-2.2174-1.177-2.2174-1.4204 0-0.24338-0.30787-0.4425-0.6842-0.4425-0.37632 0-1.1394-0.41086-1.6956-0.91303s-2.0679-1.589-3.3592-2.4153c-1.2913-0.82623-5.9869-5.1697-10.435-9.6521l-8.0869-8.1498-2.1099 2.1716c-1.5298 1.5744-2.9307 2.4102-5.0948 3.0393-2.7951 0.81255-3.1586 0.81107-5.7161-0.0232-1.5022-0.49002-2.966-1.0742-3.253-1.2982-0.33631-0.26249-0.52257 0.82818-0.52408 3.069 0 2.851-0.26097 3.9169-1.4402 5.9262l-1.4378 2.45 1.4039 2.5065c0.77217 1.3786 1.6591 2.976 1.971 3.55 2.1275 3.9151 7.7525 11.219 12.094 15.704 5.0846 5.2527 9.6512 8.9058 15.206 12.164 4.772 2.7991 5.9151 3.95 2.6137 2.6314-5.451-2.1771-9.8744-4.4894-12.669-6.623-0.28721-0.21925-1.4611-1.0936-2.6087-1.943-5.7367-4.2461-12.07-11.956-17.726-21.578-2.1843-3.7162-2.7062-4.2906-3.6294-3.9957-2.7056 0.86435-7.1566 0.88212-9.3137 0.0372-3.0183-1.1823-4.3616-2.4165-6.1388-5.64l-1.5199-2.7569-9e-3 4.4484c-0.0282 13.284 2.991 23.397 9.5361 31.942 2.0039 2.6164 1.1974 2.47-2.0518-0.37221-5.7933-5.0679-9.0506-14.625-9.459-27.753l-0.246-7.9076-2.0204-0.19267-2.0204-0.19269 0.32035 5.7524c0.36813 6.6108-0.31836 13.229-1.919 18.498l-1.1112 3.6586 1.1848 1.7107c4.3075 6.2197 11.361 13.753 15.99 17.078 3.2414 2.3282 9.2301 5.3499 13.7 6.9125 3.6 1.2586 11.359 2.7952 11.815 2.3398 0.1069-0.10688-1.2347-1.4373-2.9813-2.9565-5.441-4.7324-13.301-15.203-17.045-22.707-2.8325-5.6769-3.9761-9.6155-4.0142-13.826-0.0581-6.4256 0.39412-6.6381 3.2627-1.5325 3.7885 6.7428 10.101 15.544 14.249 19.867 0.67935 0.7079 1.7511 1.8613 2.3817 2.5632 1.7783 1.9792 4.2378 4.1797 7.6905 6.8807 1.7396 1.3608 3.4628 2.7261 3.8293 3.0339s2.4028 1.5862 4.5249 2.8408c5.7383 3.3926 12.891 6.0411 19.591 7.2536 2.2632 0.40964 15.831-0.11161 17.739-0.68147z" fill="#f9cf00"/>
<path d="m295.69 267.12c14.969-3.1229 28.489-12.347 40.526-27.651 3.506-4.4572 8.0288-11.28 10.459-15.777 0.8148-1.508 1.5907-2.6325 1.7242-2.4989 0.1336 0.13354 0.435 1.2499 0.6698 2.4808 1.6942 8.8791-7.129 25.806-20.197 38.748l-4.0977 4.0581 2.8678-0.38007c6.8666-0.91002 16.666-4.643 21.624-8.2377 5.1885-3.7617 9.8743-8.2472 13.63-13.047 4.2893-5.4819 4.4972-5.9977 3.5362-8.7731-2.0498-5.9197-2.9407-16.586-1.9495-23.341l0.33093-2.2553-1.7605 0.16834-1.7606 0.16833-0.36057 7.3043c-0.75391 15.272-4.4725 24.711-11.787 29.919-2.25 1.6022-2.1175 0.93444 0.3447-1.7367 2.5366-2.7518 5.8401-9.6386 7.3288-15.278 1.1697-4.4311 2.0892-14.29 1.7051-18.282l-0.21625-2.2476-1.1727 2.5085c-1.2563 2.6871-2.0269 3.4914-5.1231 5.3469-2.3826 1.4278-7.183 1.6572-9.5867 0.458l-1.5701-0.78325-1.4662 2.6565c-6.2795 11.377-14.077 20.453-22.402 26.074-3.734 2.5212-13.518 7.1183-15.102 7.0956-0.3253-5e-3 1.1761-1.0025 3.3365-2.2174 8.1625-4.5901 14.831-9.9609 20.76-16.72 2.7094-3.089 8.0967-10.737 9.9908-14.184 0.9461-1.7217 1.933-3.4001 2.193-3.7298 0.3045-0.38604-0.01-1.301-0.8649-2.5705-1.7041-2.5111-2.0121-3.7924-1.7299-7.1955l0.2282-2.7521-1.9665 0.95011c-4.0175 1.941-9.6929 0.94273-13.025-2.2911-2.2464-2.1801-2.5794-2.155-4.6233 0.34874-6.8488 8.3894-17.94 17.615-25.846 21.498-5.7304 2.8145-17.88 6.4966-21.107 6.3965-0.7304-0.0226-0.9758-0.15721-0.5454-0.29902 0.4305-0.1418 1.2522-0.45908 1.8261-0.70506 0.5739-0.24597 1.9826-0.72931 3.1304-1.0741s4.9043-1.9813 8.3478-3.6368c10.761-5.1733 20.585-12.411 30.034-22.126 4.7965-4.9318 5.1474-5.4557 5.1667-7.7143l0.017-1.945-2.4499 1.5537c-2.0374 1.292-2.9932 1.5537-5.6754 1.5537-1.774 0-4.0171-0.33382-4.9847-0.74182-2.2656-0.95525-4.8755-3.6817-5.9188-6.1831-0.8981-2.1533-1.166-2.1391-4.5665 0.24249-2.0639 1.4455-14.305 7.4363-17.361 8.4965-1.4348 0.49775-3.0782 1.1063-3.6521 1.3524-6.4825 2.7793-20.656 4.6416-29.263 3.8449l-4.6498-0.43042 5.2173-0.41507c5.0032-0.39803 17.283-2.3316 18.129-2.8546 0.2236-0.13822 2.1056-0.71055 4.182-1.2718 2.0765-0.5613 4.2449-1.2224 4.8188-1.469 0.574-0.24667 2.687-1.1006 4.6957-1.8975 3.2959-1.3077 11.426-5.2606 13.243-6.4389 0.5149-0.33396-0.1304-0.71514-2.2575-1.3335-1.9971-0.58058-3.7416-1.5692-5.2942-3.0003-2.1386-1.9714-2.3851-2.0715-3.2259-1.3105-1.6186 1.4648-9.1402 4.9604-13.161 6.1164-9.8433 2.8302-14.924 3.6426-22.747 3.6369-12.578-9e-3 -22.384-2.877-32.687-9.5594-1.6499-1.0702-2.9999-1.7224-2.9999-1.4494 0 1.0439 3.706 9.2198 5.7902 12.774 2.2296 3.8021 6.3375 8.9468 9.0078 11.281 2.6369 2.3054 8.4903 5.6658 11.827 6.7898 5.3111 1.7892 11.259 2.328 18.194 1.6483 5.6929-0.55801 14.162-2.2248 16.484-3.2444 0.574-0.25194 2.3348-0.8007 3.9131-1.2195 5.2865-1.4027 10.686-2.9812 11.739-3.432 1.2387-0.53018 9.2986-2.9288 11.348-3.377 1.0812-0.23649 1.4347-0.11533 1.4347 0.49161 0 0.44299-0.6456 1.0329-1.4347 1.311-1.5769 0.55561-7.388 3.5917-8.2173 4.2931-1.397 1.1817-7.8427 5.6102-8.1657 5.6102-0.2026 0-0.685 0.29348-1.0719 0.65217-1.1805 1.0943-3.7072 2.7878-5.6318 3.7745-1.0044 0.51493-1.9435 1.1107-2.087 1.324-0.1435 0.21326-1.9043 1.2574-3.913 2.3204s-3.8869 2.1027-4.1739 2.3105c-0.2869 0.2078-2.1651 1.1058-4.1738 1.9956s-4.7168 2.0909-6.0181 2.669c-1.3012 0.57817-3.062 1.2181-3.913 1.4222-0.8509 0.20402-1.7818 0.54128-2.0688 0.74946-0.2869 0.20819-2.2826 0.77322-4.4347 1.2556-2.1522 0.48242-4.762 1.1014-5.7996 1.3756s-2.6224 0.4985-3.5217 0.4985c-2.2159 0-2.0558 0.73004 0.5822 2.6544 8.2791 6.0394 18.736 8.273 30.652 6.5474 6.3936-0.92585 12.862-2.2516 14.348-2.9406 0.5739-0.26616 2.3347-0.82902 3.913-1.2508 3.1504-0.84192 6.5709-2.0409 9.3912-3.2918 4.2212-1.8723 13.846-6.6238 14.087-6.9542 0.1435-0.1969 0.9899-0.73137 1.881-1.1877 3.8541-1.9739 14.91-10.067 17.162-12.564 3.4234-3.7941 1.1038 0.91208-4.8581 9.8564-4.1546 6.2332-15.832 18.194-22.417 22.96-7.488 5.4206-17.356 10.693-25.42 13.582-1.4347 0.51395-2.796 1.0948-3.025 1.2907-0.48 0.4107 3.5795 1.7424 8.5033 2.7893 4.7065 1.0008 14.534 1.0339 19.18 0.0647z" fill="#f9cf00"/>
<path d="m411.14 264.04c6.8598-0.85389 13.422-2.7213 13.784-3.9227 0.44368-1.4704 1.7612-11.168 2.0949-15.42l0.3276-4.1739-1.8598-1.3043c-1.0229-0.71738-2.3718-2.1102-2.9974-3.0952l-1.1376-1.7909-0.62472 3.7076c-0.71399 4.2376-2.5315 8.4526-4.7688 11.059-1.491 1.7372-1.5931 1.7716-3.236 1.0911-2.3927-0.99111-7.0669-5.9465-9.2418-9.7978-1.0128-1.7935-1.8996-3.2608-1.9706-3.2608-0.0711 0-0.81385 1.3416-1.6507 2.9814-2.564 5.0238-9.3139 11.209-11.371 10.419-2.3046-0.88434-6.5851-10.742-6.5851-15.164v-1.5235l-1.5612 2.1552c-0.85861 1.1853-2.5021 2.7778-3.6521 3.5389-2.4271 1.6062-2.4462 1.7507-1.5395 11.68 0.71065 7.7826 0.81051 8.3018 1.8086 9.4048 1.1297 1.2483 6.0542 3.0305 9.9007 3.5832 5.0469 0.72521 17.817 0.63719 24.28-0.16734z" fill="#f9cf00"/>
<path d="m392.44 247.02c2.9184-2.5015 6.6676-8.0219 8.1013-11.928 1.0958-2.986 1.2189-2.9831 2.1974 0.0531 1.5376 4.771 5.2694 10.075 8.8099 12.522 2.1599 1.4926 2.2938 1.519 3.2615 0.64332 2.6091-2.3612 5.1555-10.628 5.1726-16.794 7e-3 -2.4562 0.19085-3.2608 0.74577-3.2608 0.46116 0 0.87458 0.82947 1.1052 2.2174 0.72589 4.3688 3.0181 7.2636 6.9281 8.7492 1.4956 0.56829 2.9081 1.0333 3.139 1.0333 0.23082 0 0.93036-1.4674 1.5545-3.2608 3.5839-10.298 3.6821-21.305 0.30412-34.106l-0.84271-3.1935-3.3311-0.55199c-3.5482-0.58796-7.4866-2.2929-8.8972-3.8516-1.4069-1.5546-2.0955-1.1192-2.4195 1.5298-0.5726 4.6814-3.0588 11.084-6.331 16.304-1.558 2.4854-6.2408 7.284-9.0573 9.2813l-1.6843 1.1944-2.4349-1.6753c-4.8461-3.3342-8.2978-7.6108-11.361-14.076-1.8351-3.8733-3.9299-11.007-3.9299-13.384v-1.2749l-1.8329 1.6093c-2.6241 2.304-6.312 3.8623-9.7757 4.1307-1.65 0.12788-3 0.26836-3 0.31219 0 0.0438-0.59639 2.4221-1.3253 5.2851-2.8231 11.088-2.7209 21.314 0.30762 30.768 1.3009 4.0612 1.7709 4.9603 2.4849 4.7538 0.48432-0.14006 1.9371-0.52378 3.2284-0.85269s3.0232-1.2233 3.8486-1.9876c1.6974-1.5716 3.9647-6.0126 3.9724-7.7808 5e-3 -0.69338 0.32541-1.1739 0.78766-1.1739 0.43043 0 0.78667 0.41086 0.79168 0.91303 0.0303 3.0559 1.1275 10.698 1.8164 12.65 1.0125 2.8698 3.8199 7.3071 4.6202 7.3026 0.32874-2e-3 1.6993-0.94759 3.0457-2.1016z" fill="#f9cf00"/>
<path d="m402.25 220.99c0-0.26762 0.42115-0.62024 0.93584-0.7836 2.3956-0.76034 6.7968-6.0508 9.6905-11.649 1.9353-3.7438 4.5039-12.458 4.5039-15.279 0-3.0319 0.53995-3.287 2.1947-1.0369 0.85126 1.1575 1.7454 2.1046 1.9871 2.1046 0.24167 0 0.74957 0.30157 1.1288 0.67015 1.5281 1.4854 6.32 2.982 9.5476 2.982 5.0935 0 5.7744-1.609 4.1432-9.7898l-0.33954-1.7029 2.4514 1.0508c1.3482 0.57792 3.2341 1.0508 4.1909 1.0508 3.8626 0 8.6373-3.3321 9.4575-6.6001 0.44254-1.7631-0.23781-2.2741-2.4141-1.8133-2.1232 0.44958-5.9013-0.13131-7.1133-1.0937-2.7009-2.1446-3.8194-3.7649-4.4048-6.3809-0.34523-1.5427-0.48109-3.1869-0.30192-3.6538 0.28998-0.75563 0.48996-0.72759 1.819 0.25499 2.3518 1.7387 5.279 1.8942 8.209 0.4359 2.6889-1.3382 4.113-3.1904 4.6488-6.0462 0.42265-2.2531 0.0605-2.6739-1.2671-1.4724-0.56399 0.51043-2.0583 1.0445-3.3206 1.1868-6.0321 0.6799-10.314-5.1462-8.707-11.846 0.34601-1.4425 0.69448-2.6228 0.7743-2.6228 0.0798 0 0.98796 0.35217 2.0181 0.7826 5.0416 2.1065 8.6891 0.0563 8.6891-4.8839v-1.9652l-3.0056 0.21741c-2.6964 0.19503-3.1461 0.0769-4.371-1.148-3.3349-3.3349-2.3988-9.9861 2.3929-17.003 3.723-5.4515 12.742-15.038 16.07-17.083 1.7623-1.0823 1.779-1.3392 0.14426-2.214-2.7936-1.4951-2.9829-6.6607-0.52398-14.295 0.72881-2.2628 1.2047-4.2346 1.0575-4.3818-0.14713-0.14717-1.2097 0.38532-2.3612 1.1833-1.7389 1.2051-2.4605 1.4017-4.2585 1.1605-1.1907-0.1597-2.358-0.60165-2.594-0.98209-0.31555-0.50867-1.78-0.66813-5.5335-0.60255l-5.1043 0.0892 2.6087-0.68912c1.4348-0.37901 4.2245-1.5344 6.1993-2.5674 2.1103-1.1039 4.3357-1.8783 5.3977-1.8783 2.1019 0 4.7092 1.3821 5.1343 2.7216 0.44963 1.4166 1.2602 1.1104 1.3344-0.50418 0.23943-5.2156-0.74785-6.9289-4.4087-7.6506-5.482-1.0808-11.529 1.9463-19.657 9.8406-6.2129 6.0341-7.2268 6.6455-11.531 6.9535-1.9794 0.14162-3.5989 0.41467-3.5989 0.60678 0 0.69219 3.4235 3.6325 4.86 4.1741 0.8078 0.30455 2.3926 0.55373 3.5217 0.55373 1.1291 0 2.052 0.0587 2.0509 0.13043 0 0.0717-1.7033 1.9337-3.7826 4.1377-2.5891 2.7444-4.8878 5.9639-7.2941 10.216-4.1629 7.356-4.9762 8.2103-7.7474 8.1376-1.6528-0.0434-2.0432 0.12916-2.0432 0.90269 0 1.1663 1.8991 3.0168 3.5113 3.4215 0.65138 0.16348 1.1843 0.3425 1.1843 0.39783 0 0.0553-1.1366 2.319-2.5259 5.0303-2.752 5.3712-6.3969 15.128-10.222 27.364-2.7246 8.7155-3.4369 10.773-3.9289 11.35-0.87182 1.0212-2.182-1.5566-4.4428-8.741-2.1534-6.8431-4.8211-14.805-6.6428-19.826-1.7005-4.6868-4.4244-10.716-5.7515-12.73-1.1798-1.7909-1.3612-2.3912-0.82507-2.7311 0.37789-0.23965 0.90677-0.43933 1.1753-0.44373 0.94574-0.0155 2.9031-2.29 2.9031-3.3736 0-0.95223-0.25779-1.0725-1.9565-0.9128-2.5011 0.23515-3.8587-1.1235-7.1942-7.1998-2.9219-5.3228-5.8075-9.2994-9.202-12.681-2.6748-2.6646-2.9723-3.1132-1.7551-2.6461 1.7003 0.65246 6.1782-0.84857 7.9385-2.661 0.95404-0.98236 1.7346-1.9761 1.7346-2.2083s-1.35-0.44846-3-0.48053c-3.8285-0.0744-6.028-1.3225-11.525-6.5399-8.5353-8.1006-12.414-10.348-17.859-10.348-6.9992 0-8.3696 3.4106-5.1493 12.815 2.6852 7.8414 2.6077 13.473-0.2175 15.818-0.6589 0.54688 0.2296 1.6471 5.8683 7.2663 3.6546 3.642 7.8591 8.2653 9.3434 10.274 4.7156 6.3821 6.369 12.397 4.5829 16.672-1.1148 2.668-2.9121 3.6189-6.0527 3.2023l-2.5995-0.34484v2.0649c0 1.4602 0.3955 2.5349 1.3507 3.6701 1.2218 1.4521 1.6389 1.6052 4.3708 1.6052 2.0481 0 3.2292-0.25189 3.6697-0.7826 1.0516-1.2671 1.4248-0.93441 2.0976 1.8706 1.6027 6.6808-1.8167 12.119-7.6244 12.127-1.1744 2e-3 -2.6941-0.38861-3.3769-0.86686-1.707-1.1957-2.0527-1.0991-2.0527 0.57335 0 5.5026 7.5088 9.3656 12.404 6.3812 0.93954-0.57284 1.82-1.0415 1.9565-1.0415 0.55851 0 0.19565 4.1724-0.50973 5.8606-0.9493 2.272-3.7714 4.7879-6.3107 5.6259-1.1854 0.39123-3.0306 0.51249-4.7404 0.31154-3.1193-0.36661-3.1886-0.27008-1.9777 2.7561 1.7107 4.2757 7.3901 6.2896 12.773 4.529 1.482-0.48473 2.7774-0.79845 2.8787-0.69714 0.10132 0.10131-0.15934 1.3258-0.57923 2.721-2.1014 6.9823 0.0115 9.5265 6.7758 8.1596 4.5407-0.91759 7.2415-2.377 9.9273-5.3642 2.3384-2.6009 2.3595-2.6109 2.379-1.1329 0.13012 9.8474 6.6122 23.577 13.545 28.69 2.2819 1.6828 4.1739 2.2589 4.1739 1.2708z" fill="#f9cf00"/>
<path d="m342.35 88.173c-0.8525-0.71738-1.8096-1.3043-2.1269-1.3043-0.9454 0-0.6575-1.3124 0.597-2.7208 2.2685-2.5468 5.8281-2.313 10.974 0.72098 1.4934 0.88056 3.7733 1.7703 5.0664 1.9772 2.2651 0.36238 2.2962 0.39141 0.8509 0.79411-0.8647 0.24095-2.522 0.17473-3.913-0.15635-2.175-0.51772-2.6619-0.44777-4.9393 0.70964-3.189 1.6208-4.5635 1.6165-6.5088-0.0203z"/>
<path d="m343.17 86.549c-0.3417-0.74992-0.711-1.0942-0.8208-0.76505-0.1097 0.32915 0.086 0.94272 0.4355 1.3635 0.9463 1.1402 1.0817 0.92997 0.3853-0.59845z" fill="#f9cf00"/>
<path d="m349.47 85.981c-0.7907-0.95271-1.1349-0.84585-1.7833 0.55357-0.5456 1.1777-0.5129 1.2024 0.8894 0.67307 1.1117-0.41961 1.323-0.70957 0.8939-1.2266z" fill="#f9cf00"/>
<path d="m346.25 86.051c0.4348-1.1332-0.6691-2.1989-1.4593-1.4087-0.6679 0.66783-0.2541 2.2264 0.591 2.2264 0.305 0 0.6957-0.36796 0.8683-0.81767z" fill="#f9cf00"/>
<path d="m459.33 217.61c1.9789-0.87516 3.2545-1.8748 4.1832-3.2782 2.4814-3.7497 2.2655-9.58-0.44916-12.13l-1.2864-1.2085-2.5021 2.0426c-5.5822 4.5572-10.534 7.4857-12.659 7.4857-1.2596 0-1.2682 0.0589-0.33573 2.2907 0.92106 2.2044 2.6264 3.8323 5.2748 5.0354 2.8397 1.2899 4.43 1.2414 7.7738-0.23742z" fill="#f9cf00"/>
<path d="m352.2 216.64c2.0051-1.3512 4.2421-4.4051 4.0208-5.4891-0.082-0.40041-1.44-1.2558-3.0182-1.9009-1.5783-0.64508-3.6922-1.738-4.6976-2.4286-2.0114-1.3817-5.8476-4.2282-6.2588-4.6441-1.448-1.4645-2.0777-1.652-2.874-0.85566-2.1053 2.1054-2.9984 7.4036-1.7869 10.601 0.6821 1.8001 2.3225 3.6371 4.4 4.9275 2.3641 1.4683 7.8927 1.3545 10.215-0.21031z" fill="#f9cf00"/>
<path d="m448.9 205.83c1.7458-0.84337 4.7528-2.7737 6.6825-4.2896 1.9296-1.5159 5.059-3.93 6.9542-5.3648 3.5276-2.6706 4.4546-3.404 6.5802-5.2066 6.7042-5.6853 18.511-11.503 27.044-13.325 5.0215-1.0723 10.103-2.6256 12.443-3.804 7.821-3.9376 9.0556-13.302 3.2628-24.748-1.1264-2.2257-3.0668-5.1882-4.3118-6.5834-3.7908-4.2478-6.6277-8.2405-8.5345-12.012-2.1614-4.2746-2.45-8.5271-0.82199-12.112 1.4058-3.0956 3.5526-4.5276 17.527-11.692 12.563-6.44 18.716-10.409 26.282-16.952 3.5415-3.0626 12.534-12.137 14.878-15.013 1.1166-1.3702 2.1308-2.3907 2.2538-2.2677 0.64658 0.64662-5.625 10.238-6.6945 10.238-0.25247 0-0.45907 0.3326-0.45907 0.73912s-0.21141 0.81738-0.46982 0.91304c-0.25842 0.0957-2.0846 1.7-4.0582 3.5652-1.9736 1.8652-4.4886 4.0956-5.589 4.9565-1.1003 0.86086-2.4733 1.9706-3.051 2.4661-0.57777 0.49548-2.2534 1.6617-3.7237 2.5916-1.4703 0.92986-2.7907 1.8158-2.9342 1.9686-1.339 1.427-9.5841 6.3657-17.175 10.288-3.6102 1.8653-6.6424 3.6045-6.738 3.8647-0.0956 0.26026-0.46226 0.47321-0.81464 0.47321-0.35243 0-1.1107 0.4378-1.685 0.9729-0.57437 0.53509-1.5776 1.2583-2.2295 1.6072-1.5033 0.80456-2.6621 3.5502-2.6621 6.3078 0 2.4743 0 2.4742 5.6217-0.0898 1.8007-0.8216 3.3851-1.4938 3.5209-1.4938 0.44639 0 17.123-9.5203 20.857-11.907 4.7896-3.0612 7.7032-4.9584 8.3477-5.4359 0.28695-0.21256 2.2826-1.6735 4.4347-3.2465 2.1522-1.573 4.1509-3.0426 4.4416-3.2657 2.6248-2.0145 2.6024-2.0079 1.3716-0.40564-3.9046 5.0828-12.723 12.696-17.818 15.384-0.71483 0.37703-1.4171 0.84394-1.5606 1.0376-0.38885 0.5248-9.1064 5.2998-13.421 7.3515-2.0731 0.98575-3.7753 1.939-3.7826 2.1184-7e-3 0.17934 0.70089 0.4689 1.5737 0.64345 0.88721 0.17745 2.5607 1.3052 3.7957 2.5579 3.534 3.5848 4.3862 8.2877 2.4829 13.703l-1.004 2.8565 1.3953-0.33493c0.76742-0.18421 2.2664-0.77117 3.331-1.3044s2.242-0.96944 2.6164-0.96944c0.3744 0 1.4989-0.4367 2.499-0.97044 1.0001-0.53374 2.4053-1.1487 3.1227-1.3665 1.2696-0.38552 3.0904-1.1595 8.7545-3.7214 1.515-0.68525 2.858-1.2459 2.9844-1.2459 0.12636 0 4.041-1.8696 8.6992-4.1548 4.6582-2.2851 8.5313-4.0928 8.6071-4.0171 0.13983 0.13982-5.8867 4.7632-9.2193 7.0728-2.4894 1.7252-14.093 7.634-16.539 8.4222-1.0904 0.35135-2.2174 0.81904-2.5044 1.0393s-1.6956 0.76495-3.1304 1.2104c-3.1994 0.99327-7.2365 2.4462-7.4835 2.6932-0.10048 0.10048 0.72046 0.64712 1.8244 1.2148 3.1217 1.6052 5.4415 4.5433 6.156 7.7969 0.35968 1.6375 0.9856 2.1349 1.5459 1.2283 0.15297-0.24759 1.3994-0.75358 2.7699-1.1244 1.3704-0.37085 2.7264-0.84201 3.0134-1.047 0.28695-0.20504 1.4608-0.67395 2.6087-1.042 5.4494-1.7476 19.134-9.5156 24.037-13.644 12.698-10.693 19.037-21.427 22.613-38.291 1.5721-7.415 1.5547-7.4446-2.1719-3.6744-2.6224 2.6531-7.5976 6.9741-11.087 9.6289-5.7992 4.4124-22.144 13.475-30.261 16.778-0.57391 0.23358-2.1 0.90272-3.3913 1.487-3.421 1.5479-9.5782 3.7141-9.8329 3.4594-0.28367-0.28362 2.7998-3.2732 5.1048-4.9495 9.7952-7.1234 16.988-15.579 21.968-25.826 4.7605-9.7951 6.7673-18.648 6.7414-29.739-0.0136-5.6958-0.0856-6.1666-0.80159-5.2173-0.43289 0.57391-1.1935 1.513-1.6904 2.0869-0.49685 0.57391-1.2504 1.5386-1.6746 2.1437-1.423 2.0299-9.5034 11.085-13.853 15.524-1.5476 1.5794-4.6152 4.379-7.8164 7.1334-2.4972 2.1487-8.1217 5.9387-10.928 7.3636-1.4348 0.72856-4.7196 2.4177-7.2997 3.7537-2.58 1.336-4.8632 2.429-5.0738 2.429-1.09 0-9.0605 3.9016-15.278 7.4788-9.9642 5.7325-13.618 12.801-10.333 19.988 0.74649 1.633 6.0627 8.4757 12.225 15.735 6.3405 7.4696 7.7667 13.257 4.6193 18.746-0.86144 1.502-2.2092 3.14-2.9951 3.6401-0.78583 0.50003-1.5463 1.0681-1.6897 1.2623-0.37997 0.51437-5.7797 1.9629-11.478 3.079-2.7261 0.53396-6.1304 1.374-7.5651 1.8667-2.2951 0.78821-7.398 3.3651-8.8695 4.479-0.98153 0.74302-7.8255 6.385-8.0869 6.6665-0.60772 0.65477-4.7071 3.5968-8.5433 6.1314-6.3508 4.196-10.999 6.2437-17.05 7.5107-2.9976 0.62771-5.4978 1.1724-5.5561 1.2105-0.0583 0.038 0.24235 1.2574 0.66808 2.7096 0.73377 2.5031 1.3213 3.1181 3.8726 4.054 1.652 0.60599 6.5567-0.29941 9.6084-1.7737z" fill="#f9cf00"/>
<path d="m364.08 206.65c1.0418-0.53876 1.6727-1.508 2.3219-3.5676 0.49027-1.5553 0.89138-2.9833 0.89138-3.1733 0-0.18999-0.99781-0.34891-2.2174-0.35315-5.4925-0.0191-12.234-2.7078-20.739-8.2713-4.9777-3.2562-4.9556-3.2405-6.8563-4.8799-0.758-0.6538-2.2491-1.8931-3.3136-2.7539s-2.2052-1.8154-2.5349-2.1212c-1.5256-1.4152-6.5193-4.558-9.5107-5.9857-1.8171-0.86723-5.6033-2.0213-8.4136-2.5647-6.7004-1.2955-11.006-2.4609-12.936-3.5015-6.2324-3.3608-8.4047-9.9424-5.3958-16.348 1.0707-2.2796 9.3658-13.477 10.822-14.609 0.1847-0.14348 1.4338-1.5634 2.7757-3.1555 7.4891-8.8846 5.8873-16.804-4.8819-24.137-2.9111-1.9822-13.929-7.6633-14.862-7.6633-1.5122 0-17.932-8.8508-23.026-12.411-3.0141-2.107-12.341-10.966-16.869-16.023-3.55-3.9646-9.7244-11.541-10.335-12.682-1.1216-2.0958-1.6194-1.1996-1.6102 2.899 0.028 12.403 2.7089 23.676 8.0643 33.909 4.737 9.0508 11.378 16.45 21.659 24.134 1.9902 1.4873 4.18 3.7247 4.18 4.2709 0 0.35435-4.8882-1.1404-7.0434-2.1537-0.5739-0.26984-2.8043-1.2265-4.9565-2.1259-16.556-6.9188-30.863-15.888-41.086-25.759-4.825-4.6586-4.8104-4.6674-3.5232 2.1185 1.7639 9.2983 6.39 20.597 10.869 26.547 4.4476 5.9078 10.073 11.194 16.538 15.541 1.5701 1.0558 3.3143 2.2701 3.8759 2.6985 2.0586 1.5702 13.776 7.0415 19.376 9.0478l5.7604 2.0635 0.6133-2.293c0.7264-2.7159 3.5263-5.9966 6.241-7.3127 1.5952-0.7734 1.7569-0.98041 0.9008-1.1532-0.5739-0.11585-1.2783-0.39182-1.5652-0.61325-0.287-0.22144-1.8395-0.78029-3.4499-1.2419-1.6106-0.46161-3.6062-1.1928-4.4348-1.625s-1.7059-0.78711-1.9494-0.78888c-0.5166-4e-3 -2.4731-0.86791-8.9761-3.9646-3.8867-1.8509-12.794-7.3529-13.798-8.523-0.1435-0.16722-1.1567-0.97205-2.2516-1.7885-1.095-0.81647-1.8594-1.6159-1.6989-1.7764 0.1606-0.16056 0.7228 0.0979 1.2493 0.57442 0.5265 0.4765 1.109 0.86636 1.2945 0.86636 0.1854 0 3.7044 1.6435 7.82 3.6521 4.1155 2.0087 7.6425 3.6521 7.8376 3.6521 0.1952 0 1.9403 0.72727 3.878 1.6162 4.8323 2.2167 6.0952 2.7552 10.306 4.3936 2.0087 0.78169 4.3565 1.7119 5.2173 2.0671 0.8609 0.35523 2.2109 0.90863 3 1.2298 1.6126 0.65623 1.7926 0.3058 0.6678-1.3001-0.4219-0.60228-1.0355-2.7207-1.3636-4.7076-0.5511-3.337-0.5068-3.8212 0.5801-6.348 1.1168-2.596 4.6459-6.3422 5.9748-6.3422 0.3214 0 0.8596-0.27524 1.196-0.61166 0.4677-0.46772-0.4163-1.1276-3.7566-2.8042-10.645-5.3431-18.624-10.454-23.777-15.23-1.0043-0.93092-1.9779-1.6946-2.1636-1.6971-0.1856-3e-3 -1.8291-1.6874-3.6521-3.7442-3.4827-3.9295-3.2096-3.9565 1.9027-0.18835 9.9987 7.3697 27.232 17.881 35.739 21.798 1.5782 0.72678 3.9415 1.8163 5.2517 2.4211 3.1201 1.4405 3.3401 1.4024 3.4503-0.59711 0.2045-3.7129-1.1161-5.7021-5.8395-8.7958-2.6751-1.7521-9.6368-5.6812-10.066-5.6812-0.6263 0-11.579-6.44-11.579-6.8082 0-0.20321-0.7043-0.66121-1.5652-1.0178s-1.5652-0.82614-1.5652-1.0435c0-0.21732-0.7044-0.68689-1.5652-1.0435-0.8609-0.35658-1.5652-0.81694-1.5652-1.023s-0.5378-0.61972-1.1951-0.91919c-2.0321-0.9259-10.342-7.9151-14.494-12.191-4.3862-4.5165-7.8103-9.2083-8.7331-11.966l-0.6067-1.8135 1.1596 1.5652c0.6378 0.86086 3.1584 3.6429 5.6015 6.1823 2.4431 2.5394 4.5593 4.7745 4.7028 4.9669 0.4645 0.6227 9.1232 8.1152 10.932 9.4593 0.9653 0.71738 2.0114 1.5441 2.3246 1.8371 1.522 1.4238 10.373 6.7583 14.846 8.9477 2.7652 1.3535 5.145 2.5914 5.2885 2.751 0.1434 0.15956 1.9043 1.1045 3.913 2.0998 8.7366 4.3292 12.311 7.2839 13.313 11.005 1.5236 5.6582-1.422 12.441-9.3615 21.558-3.4965 4.0148-7.0016 10.612-7.9098 14.888-0.8392 3.9512-0.3988 10.345 0.8478 12.31 2.5631 4.0391 5.7444 5.673 16.154 8.297 4.0174 1.0126 8.5956 2.3296 10.174 2.9265 3.6311 1.3733 8.5548 3.7795 8.7826 4.292 0.096 0.21521 0.4054 0.3913 0.6885 0.3913 0.7771 0 4.6363 2.7415 12.447 8.8422 12.557 9.8072 14.755 11.316 18.776 12.889 3.3896 1.3261 6.7975 1.5142 8.7876 0.48505z" fill="#f9cf00"/>
<path d="m333.61 203.75c1.3776-0.66689 2.804-1.8868 3.4744-2.9717l1.1375-1.8403-1.7699-1.548c-0.9735-0.85138-3.296-2.6398-5.1612-3.9744-1.8652-1.3345-3.5087-2.5657-3.6522-2.736-0.1434-0.17027-1.4329-0.95657-2.8655-1.7473l-2.6046-1.4378-1.1843 1.4687c-3.9399 4.886-2.1051 12.383 3.6894 15.076 3.1624 1.4696 5.4564 1.3954 8.9364-0.28928z" fill="#f9cf00"/>
<path d="m478.51 204.01c3.0068-1.6805 4.6044-4.5871 4.6044-8.3766 0-3.0186-0.46335-4.5346-1.9578-6.4059l-0.96151-1.2039-2.3229 1.2039c-1.2776 0.66216-2.4403 1.3267-2.5838 1.4768-0.25226 0.26391-1.9572 1.4633-4.4783 3.1502-2.1764 1.4563-6.4781 5.3322-6.4781 5.8369 0 0.2705 0.48849 1.1778 1.0855 2.0162 2.6024 3.6547 8.7414 4.7342 13.092 2.3024z" fill="#f9cf00"/>
<path d="m499 194.42c3.8934-2.6149 5.3899-7.424 3.6928-11.868l-0.9157-2.3978-2.416 0.3596c-1.3288 0.19778-2.6508 0.54946-2.9378 0.7815-0.28695 0.23205-1.5782 0.70261-2.8695 1.0457-2.2922 0.60905-5.7278 1.9616-8.3477 3.2863-3.6893 1.8655 0.37503 8.884 6.048 10.444 1.9173 0.5273 5.7034-0.28012 7.7459-1.6519z" fill="#f9cf00"/>
<path d="m313.24 194.61c2.2028-1.0421 3.0309-1.8125 4.1415-3.8532 1.3848-2.5443 1.8417-5.279 0.882-5.279-0.2784 0-1.7458-0.55779-3.2608-1.2396-1.515-0.68175-3.6937-1.5198-4.8415-1.8624s-2.5565-0.83022-3.1304-1.0836c-1.2991-0.57365-4.9904-1.5466-5.8824-1.5505-0.7041-3e-3 -1.5318 1.7176-2.2257 4.6272-0.4885 2.048 0.5719 5.8818 2.1698 7.8447 1.3578 1.668 5.5093 3.6623 7.6663 3.6827 0.9503 9e-3 2.9669-0.56983 4.4812-1.2862z" fill="#f9cf00"/>
<path d="m518.41 185.53c3.308-2.4481 4.0998-4.0872 4.0998-8.4866 0-3.6783-0.12647-4.1513-1.5958-5.9666-2.0586-2.5434-2.4386-2.628-3.279-0.72932-1.5973 3.6085-5.1435 6.2082-11.709 8.5839-2.1694 0.78498-2.4512 1.0512-2.1456 2.0271 0.58137 1.8567 2.2453 3.6618 4.5511 4.9374 2.9076 1.6084 7.6434 1.4365 10.079-0.36583z" fill="#f9cf00"/>
<path d="m294.51 185.05c2.1827-1.5089 4.5905-4.6029 4.2881-5.5101-0.098-0.29274-1.2745-0.81211-2.6154-1.1542-5.1452-1.3126-8.8022-3.919-11.196-7.9798l-1.3503-2.2906-1.7021 1.8574c-4.3656 4.7637-3.1946 12.016 2.5007 15.489 2.6907 1.6405 7.3842 1.4489 10.075-0.41128z" fill="#f9cf00"/>
<path d="m543.12 180.74c3.3-0.55879 6.3521-1.1527 6.7825-1.3198s2.4992-0.75907 4.5972-1.3155c2.098-0.55648 4.211-1.2122 4.6956-1.4572 0.48453-0.24497 3.1393-1.5241 5.8993-2.8426 8.1903-3.9125 16.093-10.679 20.654-17.683 4.8429-7.4381 8.1511-16.554 8.7944-24.234l0.34074-4.0678-1.7342 2.0869c-2.9649 3.5679-6.4603 6.8254-12.204 11.373-11.287 8.9372-28.266 15.061-45.26 16.324-3.104 0.2307-4.5652 0.54651-4.5652 0.98667 0 0.35605-0.70137 2.0304-1.5586 3.7209-0.8572 1.6904-1.5615 3.1322-1.5652 3.2039-0.0261 0.50964 10.543-0.0608 17.211-0.92891 8.6527-1.1265 12.675-2.1244 20.042-4.9716 4.6256-1.7878 6.3033-2.1214 3.5656-0.70893-0.78865 0.40691-2.7415 1.4662-4.3396 2.3539-9.0763 5.0418-20.328 7.4869-34.536 7.5052l-8.7464 0.0113 1.2861 1.9565c1.6738 2.5463 2.3946 5.8591 1.8164 8.3489-0.83967 3.6158-1.1746 3.4508 6.1731 3.0432 3.6587-0.20292 9.3521-0.82614 12.652-1.3849z" fill="#f9cf00" stroke="#000" stroke-width=".52173"/>
<path d="m278.38 180.65c-1.1954-4.1027-0.7559-7.1549 1.5111-10.495l1.2891-1.8996-4.2899 0.32734c-9.0017 0.68688-21.585-1.0694-31.159-4.3488-5.2105-1.7848-15.05-6.9311-13.252-6.9311 0.287 0 0.7448 0.21286 1.0174 0.47303 0.2726 0.26016 2.6087 1.1844 5.1913 2.054 10.588 3.5648 15.794 4.4843 28.916 5.1065l7.5254 0.35686-1.6196-2.0387c-0.8908-1.1213-1.7794-2.9191-1.9748-3.9952l-0.3552-1.9565-2.9419-0.0161c-6.3568-0.0348-14.508-1.5373-23.029-4.2447-8.5129-2.705-14.077-5.4735-23.154-11.52-2.5541-1.7014-5.6835-4.5167-10.104-9.09l-4.8245-4.9909 0.2993 2.5399c0.5116 4.3406 1.326 8.1166 2.6859 12.453 3.4585 11.029 11.037 21.04 20.766 27.433 3.5939 2.3616 9.193 5.2076 11.724 5.9592 0.7174 0.21305 1.5391 0.5647 1.826 0.78144 1.0852 0.81968 13.255 3.612 18.261 4.1898 2.8695 0.33121 5.3152 0.6979 5.4348 0.81487 0.1195 0.11696 2.5534 0.21266 5.4086 0.21266 5.137 0 5.1877-0.0123 4.8492-1.1739z" fill="#f9cf00"/>
<path d="m523.38 166.17c2.1764-0.68256 4.4932-3.0551 5.463-5.5947 0.7575-1.9835 0.77868-2.3886 0.14592-2.7891-0.52032-0.32931-0.54651-0.47095-0.0882-0.47657 0.88591-0.0109 0.82027-1.7262-0.15532-4.0611-1.6847-4.032-4.7097-6.027-9.145-6.0311-4.0693-4e-3 -4.3059 0.26027-2.854 3.1845 1.5282 3.0778 2.4934 7.7048 2.4696 11.838-0.01 1.744-0.064 3.4005-0.11979 3.6813-0.27803 1.3981 0.47822 1.4419 4.2838 0.24847z" fill="#f9cf00"/>
<path d="m283.14 164.5c-0.4658-3.4731 0.5512-10.533 1.9842-13.773 0.7123-1.6107 1.1656-3.1381 1.0074-3.3942-0.5121-0.82858-6.1235-0.51568-8.0381 0.44823-0.9966 0.50172-2.5991 1.9516-3.5611 3.2218-1.6834 2.2227-1.7403 2.4505-1.5125 6.0516 0.3224 5.0979 2.3057 7.7767 6.6916 9.0384 3.4514 0.99289 3.7563 0.85128 3.4285-1.5925z" fill="#f9cf00"/>
<path d="m517.04 143.33c2.356-2.356 3.3147-5.4031 3.0128-9.5764-0.36783-5.0854-4.3888-8.7958-9.532-8.7958-2.3532 0-2.714 0.10737-5.7528 1.7122-2.9311 1.5479-2.8742 1.9741 1.0394 7.7875 4.1221 6.123 7.9177 10.848 8.7144 10.848 0.29853 0 1.4317-0.88893 2.5182-1.9754z" fill="#f9cf00"/>
<path d="m290.14 142.62c0.9699-1.1895 2.1157-2.6783 2.5461-3.3085 5.7819-8.4648 7.2159-10.848 6.9482-11.545-0.1692-0.44102-1.608-1.3967-3.1975-2.1237-5.4931-2.5126-10.864-0.81314-13.408 4.2424-1.5096 3.0002-1.6098 4.7906-0.4805 8.5933 0.8591 2.8929 3.5392 6.278 4.9835 6.2945 0.4648 5e-3 1.6387-0.96361 2.6087-2.1531z" fill="#f9cf00"/>
<path d="m339.32 104.16c2.1775-2.4062 1.9016-6.7484-0.9827-15.463-1.0572-3.1942-1.3413-4.962-1.2103-7.5314l0.1711-3.3576-4.0853-2.0712c-3.3429-1.6949-4.7781-2.1157-7.8982-2.316-3.3006-0.21181-4.2065-0.0645-6.741 1.0958-1.6105 0.73727-3.5042 1.9991-4.2083 2.804-1.4238 1.6275-2.6646 4.2136-2.2301 4.6481 0.1549 0.15489 1.3686-0.0874 2.6972-0.53846 1.3285-0.45105 2.7975-0.82008 3.2644-0.82008 1.8806 0 6.5689 1.8576 7.803 3.0916 0.7225 0.7225 2.5187 1.622 3.9915 1.999 5.6762 1.4526 7.4916 3.6538 7.7616 9.4105 0.1779 3.7905-0.3752 4.481-2.908 3.6306-0.8914-0.29928-1.8554-0.72488-2.1424-0.94578-0.8003-0.61608-8.8469-2.5774-10.574-2.5774-1.8926 0-4.8169 0.98121-4.8169 1.6162 0 0.25888 0.5282 0.47647 1.1739 0.48353 1.6464 0.018 6.5774 1.7287 9.2002 3.1918 1.2128 0.67656 3.5422 1.9743 5.1763 2.8839 3.439 1.9142 5.3202 2.1339 6.5582 0.76591z" fill="#f9cf00"/>
<path d="m472.37 102.05c3.0974-1.6939 7.2581-3.5017 9.246-4.0173 3.3736-0.87499 3.5352-0.98141 2.426-1.5972-2.5086-1.3928-9.406-0.55911-14.442 1.7455-0.97622 0.4468-2.5023 0.8431-3.3913 0.88066l-1.6163 0.0683 0.0256-4.0397c0.0203-3.2135 0.2426-4.3339 1.0858-5.4782 1.2678-1.7206 3.8823-3.1152 6.6423-3.5431 1.1082-0.1718 2.5851-0.8827 3.2822-1.5798 2.2829-2.2829 4.357-3.041 8.2736-3.0238 2.0117 9e-3 4.1834 0.29742 4.826 0.64135 0.98165 0.52535 1.1684 0.49313 1.1684-0.20155 0-1.2065-1.2839-3.4786-2.6895-4.7596-5.1299-4.6752-13.29-4.6621-20.728 0.0332l-2.0323 1.2829 0.26629 3.317c0.22278 2.7758-8e-3 4.164-1.4122 8.508-2.1626 6.6885-2.619 11.593-1.253 13.467 1.6144 2.2148 3.8228 1.8503 10.321-1.7038z" fill="#f9cf00"/>
<path d="m468.92 94.239c4.6257-2.7274 8.4509-3.3232 20.857-3.2483 10.07 0.0608 11.278-0.0274 13.099-0.95641 3.3857-1.7273 4.1704-6.2755 1.2727-7.3772-1.984-0.75431-2.2477-0.6063-2.2477 1.2615 0 3.8366-3.3606 4.9096-15.395 4.9154-9.8777 5e-3 -12.797 0.43967-17.277 2.5739-2.5175 1.1993-3.0964 1.718-3.232 2.8957-0.0908 0.78912-0.0423 1.4348 0.10747 1.4348 0.1499 0 1.4169-0.67475 2.8156-1.4994z" fill="#f9cf00"/>
<path d="m336.31 94.391c-0.1742-0.4539-0.3167-1.1582-0.3167-1.5652s-0.2278-0.73993-0.5063-0.73993c-0.2784 0-1.784-0.58445-3.3457-1.2988-3.9983-1.8289-12.738-2.9945-19.365-2.5828-8.3038 0.51584-12.782-1.0808-12.782-4.557 0-1.1905-0.2309-1.4742-1.2-1.4742-1.6972 0-2.4522 0.96016-2.4522 3.1186 0 2.6235 1.143 3.9615 4.2717 5.0007 2.3023 0.7647 3.6834 0.83637 9.2604 0.48057 11.235-0.71678 16.671-0.0314 22.568 2.8455 3.7252 1.8174 4.3145 1.9351 3.8684 0.77263z" fill="#f9cf00"/>
<path d="m458.81 87.733c0.83681-0.66956 1.3064-1.3254 1.0435-1.4575-0.26285-0.13207-1.1086 0.41693-1.8794 1.22-1.7025 1.7737-1.246 1.9034 0.83597 0.23752z" fill="#f9cf00"/>
<path d="m454.66 87.161c-0.48355-0.73797-1.1463-1.153-1.5772-0.98765-0.40878 0.15686-0.74326 0.36997-0.74326 0.47359 0 0.16505 2.6366 1.711 3.012 1.766 0.0784 0.0115-0.23284-0.55189-0.69155-1.252z" fill="#f9cf00"/>
<path d="m457.55 85.787c0-1.337-1.7268-1.1854-1.9887 0.17467-0.12058 0.62608 0.16038 0.90705 0.90703 0.90705s1.0817-0.33508 1.0817-1.0817z" fill="#f9cf00"/>
<path d="m379.55 76.328c-2.5826-0.26134-7.1578-0.75638-10.167-1.1001l-5.4716-0.62494-1.2174-2.3248c-1.1794-2.2524-1.1918-2.4066-0.3974-4.9541 0.65216-2.0913 0.71456-3.27 0.30495-5.7597-0.87604-5.3244-1.7353-8.8236-2.4395-9.9338-0.37127-0.5854-0.64872-1.8767-0.61659-2.8695 0.0324-0.99284-0.55689-4.2704-1.309-7.2834-1.5888-6.3646-2.9655-14.609-2.4396-14.609 0.1995 0 1.2822 1.35 2.4059 3 1.1237 1.65 3.0774 4.1198 4.3416 5.4885 1.7234 1.8659 2.3358 2.9754 2.4476 4.4347 0.082 1.0704 0.16289 2.1243 0.17984 2.342 0.0172 0.21765 0.48856 0.10985 1.0481-0.23956 0.82392-0.51453 1.3645-0.46971 2.844 0.23583 2.7428 1.3079 3.6167 2.9848 3.3338 6.3968-0.13059 1.5748-0.18172 2.8633-0.11368 2.8633 0.0681 0 0.72484-0.99781 1.4595-2.2174 2.4513-4.0693 2.1406-3.981 4.515-1.2836 1.1898 1.3516 2.4906 2.4575 2.8908 2.4575 0.40023 0 1.192 0.91016 1.7595 2.0226 1.083 2.1229 1.9039 2.673 3.9885 2.673 2.2042 0 1.6069-1.0277-2.8071-4.8301-2.3505-2.0248-2.2946-4.2701 0.17342-6.9645 1.7717-1.9343 1.9935-2.0204 5.6822-2.2067l3.8385-0.19383-0.26259-1.9576c-0.30141-2.247 0.17963-3.3224 3.2765-7.3253 1.221-1.5782 2.3006-3.3196 2.399-3.8698 0.31069-1.7358 1.4618-1.5266 2.2723 0.41313 0.42573 1.0189 1.4305 2.6244 2.2329 3.5676 2.711 3.1872 3.3208 4.5361 3.1688 7.0088l-0.14442 2.3478 3.7138 0.0922c3.6398 0.0904 3.7575 0.13686 5.9074 2.3308 3.2629 3.3299 2.8072 4.7414-3.1142 9.6447-1.3737 1.1375-0.97512 1.9426 0.96187 1.9426 1.3836 0 3.1804-1.3534 3.1804-2.3955 0-0.26799 0.63547-0.95384 1.4121-1.5241 1.8491-1.3577 2.7265-2.2327 4.4298-4.4174 1.2887-1.653 1.4396-1.7184 1.792-0.77739 0.21166 0.56516 1.0458 2.11 1.8537 3.4331 0.8078 1.323 1.4687 3.1426 1.4687 4.0434 0 0.90086 0.23478 1.6379 0.52173 1.6379 0.70804 0 0.64977-0.84515-0.2665-3.8655-1.0539-3.4741-0.97742-5.1301 0.31257-6.7701 1.6547-2.1036 3.7798-3.036 5.4618-2.3965 1.3153 0.50009 1.3744 0.45681 1.064-0.77997-0.3948-1.573 0.75771-4.5562 2.1457-5.5543 0.551-0.39619 2.386-2.5678 4.0779-4.8257 1.6919-2.2579 3.1529-3.8752 3.2466-3.594 0.2557 0.76708-1.7248 11.323-2.9597 15.776-0.59535 2.1464-1.0824 4.8581-1.0824 6.026s-0.25153 2.375-0.55899 2.6825c-0.3074 0.30745-1.1196 3.4257-1.8048 6.9295-1.1727 5.9966-1.1972 6.492-0.41707 8.4417 0.74232 1.8553 0.7479 2.3246 0.0533 4.501-0.42652 1.3363-1.1025 2.5977-1.5022 2.803-0.39976 0.20528-3.0746 0.61852-5.9441 0.9183-2.8695 0.29977-7.4927 0.78718-10.274 1.0831-6.0472 0.64353-34.222 0.58186-40.856-0.0894z"/>
<path d="m428.6 74.165 4.1739-0.69559-3.6521-0.37166c-2.0087-0.20441-5.8826-0.62842-8.6086-0.94224-10.168-1.1706-35.18-0.66271-49.565 1.0064l-2.8695 0.33296 3.1304 0.43853c10.9 1.527 48.703 1.6795 57.391 0.23162z" fill="#f9cf00"/>
<path d="m374.6 71.13c14.738-1.3123 51.51-0.72705 60.26 0.95913 1.522 0.29328 1.54 0.27346 0.65217-0.71769-1.0232-1.1424-1.1574-2.3753-0.41019-3.7714 0.44682-0.83489 0.19983-0.97418-2.2174-1.2503-4.231-0.48336-12.884-0.85166-10.546-0.44886 1.8079 0.31145 2.1098 0.55986 2.2582 1.8578 0.23452 2.052-0.41295 2.5135-2.9561 2.1068-2.1005-0.33588-2.1716-0.41139-2.1716-2.3067 0-2.4529-0.13398-2.4882-10.956-2.8822-7.4665-0.27181-7.9567-0.2343-6.3912 0.48902 3.0738 1.4202 1.7829 3.9642-2.0115 3.9642-1.6025 0-3.5971-1.2063-3.5971-2.1755 0-0.24669 0.76304-0.93636 1.6956-1.5326l1.6956-1.0841-7.5651 0.31281c-4.1608 0.17205-8.4456 0.45927-9.5216 0.63827-1.8545 0.30849-1.9565 0.42725-1.9565 2.2789 0 1.7705-0.15271 1.984-1.6304 2.2795-2.8779 0.57559-3.0652 0.46994-3.0652-1.7294 0-1.9247 0.10789-2.0698 1.6956-2.282 2.1789-0.29105-5.0578 0.0808-9.5838 0.49251l-3.4535 0.31412 0.57208 1.5156c0.42933 1.1374 0.41227 1.7714-0.0682 2.5409-0.90584 1.4505-0.80457 1.7142 0.53357 1.3894 0.64565-0.15672 4.5782-0.58806 8.739-0.95855z" fill="#f9cf00"/>
<path d="m364.16 69.286c0-1.0492-0.15078-1.2579-0.59097-0.81767-0.32509 0.32505-0.44984 0.95896-0.27725 1.4087 0.4776 1.2446 0.86822 0.97873 0.86822-0.59101z" fill="#f9cf00"/>
<path d="m437.35 68.751c-0.18788-0.4897-0.45579-0.56064-0.80358-0.21281-0.28695 0.28695-0.36057 0.9418-0.16356 1.4552 0.28972 0.75495 0.44342 0.79565 0.80362 0.21282 0.24496-0.39637 0.31857-1.0512 0.16352-1.4552z" fill="#f9cf00"/>
<path d="m379.37 68.086c0.28043 0 0.3648-0.23478 0.18741-0.52173-0.52549-0.85032-2.3478-0.60452-2.3478 0.31669 0 0.55017 0.28371 0.72954 0.82527 0.52173 0.45391-0.17418 1.0547-0.31669 1.3351-0.31669z" fill="#f9cf00"/>
<path d="m423.12 67.825c0-0.43478-0.46377-0.78261-1.0435-0.78261-1.1548 0-1.4137 0.80713-0.3913 1.2197 1.1354 0.45812 1.4348 0.3669 1.4348-0.43706z" fill="#f9cf00"/>
<path d="m402.12 67.173c0.14854-0.4523-0.45829-0.65217-1.9801-0.65217-1.9231 0-2.1113 0.1-1.5229 0.80898 0.76872 0.92624 3.1829 0.81818 3.503-0.15681z" fill="#f9cf00"/>
<path d="m371.47 64.446c7.2489-0.78136 30.537-1.6287 35.671-1.2979 4.7249 0.30445 5.4309-0.26596 1.2568-1.0154-1.1369-0.20413-2.7044-1.0682-3.7826-2.085-1.5668-1.4777-1.8399-2.0771-1.8333-4.0226 5e-3 -1.2574 0.34617-3.2253 0.7597-4.3731s0.76215-2.3804 0.77472-2.7391c0.0365-1.0394-0.72594-0.7558-1.2881 0.47905-0.2833 0.62218-0.9135 1.3762-1.4005 1.6756-1.2152 0.74705-3.6296-0.15878-4.3673-1.6385-0.93276-1.8709-1.2568-0.74366-0.44645 1.5531 1.6235 4.6015 0.7286 8.6542-2.2647 10.256-3.333 1.7838-10.619 1.6424-13.582-0.26348-2.7875-1.7926-3.9752-5.776-2.5463-8.5402 0.6003-1.1613 0.53081-1.4867-0.63386-2.9674l-1.3081-1.663-1.2223 1.7988-1.2224 1.7988 1.3268 1.7395c2.3316 3.0569 1.5972 7.553-1.4728 9.017-2.2395 1.068-4.9431 0.63088-7.0467-1.1392-1.8323-1.5418-2.9431-5.4736-2.4673-8.7335 0.21386-1.4651 0.0689-2.6777-0.43429-3.6337-0.71555-1.3592-0.6951-1.4339 0.38765-1.4182 0.62864 9e-3 1.6102 0.36965 2.1812 0.80117 0.91142 0.6888 1.0196 1.2991 0.88601 4.9994-0.1224 3.3896 0.0224 4.4074 0.7383 5.1988 1.2314 1.3606 4.1651 1.3186 4.9084-0.0703 0.66719-1.2466 0.16941-2.46-0.66631-1.6243-0.36312 0.36314-0.86169 0.3721-1.5063 0.0271-1.1978-0.64101-1.259-2.9467-0.17526-6.5961 1.5895-5.3523-2.1147-8.503-6.4052-5.4479-0.87312 0.62173-1.7058 1.1304-1.8503 1.1304s0.10174-1.14 0.5473-2.5333c0.95117-2.9744 0.62519-4.797-1.1539-6.4511-0.70361-0.65418-1.897-2.0111-2.652-3.0155l-1.3727-1.8261 0.357 2.3478c0.87197 5.7354 3.0233 12.799 4.2432 13.931 1.3764 1.2779 1.5422 2.2904 0.61768 3.7709-0.48751 0.78056-0.4393 1.8662 0.22534 5.0798 0.46492 2.2479 1.0029 5.106 1.1954 6.3512 0.31006 2.0051 0.47832 2.2271 1.4703 1.9404 0.61607-0.17804 3.1157-0.53881 5.5548-0.80172z" fill="#f9cf00"/>
<path d="m436.77 59.794c0.49049-2.9386 0.99125-5.6206 1.1129-5.96 0.12157-0.33936-0.0973-1.2478-0.48631-2.0187-0.77117-1.5283-0.47597-2.8589 0.90438-4.0765 0.48797-0.43043 1.255-1.9565 1.7046-3.3913 1.1758-3.7531 2.8836-11.954 2.5533-12.261-0.15438-0.14347-0.38436 0.0292-0.51109 0.38373-0.12668 0.35453-1.2097 1.7338-2.4068 3.065-1.197 1.3312-2.3355 2.802-2.5299 3.2684-0.45793 1.0984 0.0313 4.1036 0.9699 5.9571l0.73778 1.457-2.1014-1.3266c-2.6087-1.6468-5.0459-1.7246-6.3654-0.20331-1.1784 1.3587-1.2293 3.482-0.16685 6.9636 0.43783 1.4348 0.67209 3.111 0.52058 3.725-0.34413 1.3946-1.7378 1.9738-2.7428 1.1397-0.64168-0.53257-0.73346-0.39101-0.58601 0.90403 0.15965 1.4023 0.36823 1.5494 2.4045 1.6965 2.0763 0.14996 2.2782 0.0459 2.9336-1.5131 0.4609-1.0961 0.61184-2.8212 0.43721-4.9966-0.31267-3.8954 0.56645-5.3903 3.1698-5.3903 1.5116 0 1.5341 0.0344 0.65665 1.004-0.70064 0.77418-0.92999 2.0578-1.002 5.6086-0.10623 5.2312-0.83686 6.8493-3.7083 8.2119-2.8434 1.3493-4.835 1.0744-6.8557-0.94635-2.26-2.26-2.4186-4.9565-0.46111-7.841 1.2795-1.8854 1.2899-1.9733 0.40925-3.4641-0.49695-0.84127-1.0438-1.5296-1.2152-1.5296s-0.95164 0.66802-1.7338 1.4845c-1.2559 1.3108-1.3283 1.5624-0.61935 2.1508 0.50812 0.42174 0.80285 1.5408 0.80285 3.0484 0 4.3392-2.6294 6.7014-8.5314 7.6642-1.1054 0.18033-1.9271 0.40171-1.8261 0.49194 0.10106 0.0902 4.4159 0.44618 9.5886 0.79097 5.1727 0.3448 10.22 0.81745 11.217 1.0504 0.99682 0.23289 2.0425 0.37208 2.3236 0.30931 0.28122-0.0628 0.91256-2.5185 1.403-5.4571z" fill="#f9cf00"/>
<path d="m374.74 59.157c0.68331-1.3972 0.79329-2.2085 0.42438-3.1304-0.43993-1.0994-0.50181-0.9935-0.53102 0.90906-0.0371 2.4017-0.75438 3.246-3.2971 3.8795-1.6652 0.41489-1.6588 0.42012 0.39448 0.32474 1.8405-0.0855 2.1959-0.31964 3.0093-1.9829z" fill="#0076bc"/>
<path d="m393.12 60.15c1.8847-0.91565 2.4916-1.547 2.9463-3.0645 0.41363-1.3805 0.41472-2.1831 5e-3 -2.8902-0.51584-0.88798-0.57015-0.85215-0.58455 0.38543-0.0219 1.8766-1.8661 4.0562-4.4096 5.2114-2.593 1.1777-4.5633 1.2407-6.5569 0.20976-2.2239-1.1499-3.1364-2.7786-3.1364-5.5973 0-1.7827-0.20697-2.4926-0.72678-2.4926-0.93567 0-1.3602 1.1448-1.3602 3.6683 0 1.667 0.29744 2.2446 1.7112 3.3229 2.3984 1.8293 3.8788 2.3289 7.0139 2.3669 1.8035 0.0219 3.5279-0.35693 5.0988-1.1202z" fill="#0076bc"/>
<path d="m417.07 60.509c2.8788-1.2028 3.9647-2.5454 3.9647-4.9018 0-1.1243-0.14249-2.4156-0.31669-2.8695-0.54715-1.4258-1.2485-0.89941-1.2485 0.93708 0 5.7624-4.7443 8.6191-10.174 6.1259-2.5892-1.189-3.9157-2.6421-4.4428-4.8669l-0.40679-1.717-0.0534 1.9138c-0.074 2.6531 0.31654 3.4236 2.4813 4.8946 1.4923 1.014 2.5446 1.2785 5.0878 1.2785 1.7636 0 4.0623-0.35758 5.1083-0.79463z" fill="#0076bc"/>
<path d="m428.96 60.788c-2.2878-0.54173-3.2839-1.9124-3.1006-4.267 0.0819-1.0519-0.0313-1.8011-0.25199-1.6648-0.606 0.37455-0.48026 3.2344 0.19893 4.5248 0.81307 1.5447 1.4711 1.9142 3.3132 1.8608l1.5652-0.0454-1.7247-0.40838z" fill="#0076bc"/>
<path d="m391.77 58.081c1.3589-0.8486 2.6533-3.4673 2.2528-4.5574-0.16743-0.4557-0.8498-1.7043-1.5164-2.7747-1.4412-2.3142-1.4891-2.8829-0.34857-4.1432 1.1188-1.2362 2.7064-1.2132 4.0604 0.0587 1.0308 0.96838 1.1311 0.97294 2.2834 0.10377l1.2052-0.9091-3.236-1.669c-6.1248-3.1588-12.412-1.8315-12.464 2.6313-0.0115 0.97065 0.51652 1.8934 1.6411 2.8695 3.1063 2.6962 3.5596 3.2648 3.5596 4.4648 0 0.65999-0.28174 1.4817-0.62608 1.8261-0.893 0.893-3.847 0.77412-4.8148-0.19379-0.74535-0.74533-0.81991-0.72506-0.81991 0.223 0 0.57358 0.64565 1.5535 1.4348 2.1776 1.1709 0.926 1.8833 1.0823 3.8732 0.84977 1.3411-0.15672 2.9231-0.58763 3.5154-0.95756z" fill="#f9cf00"/>
<path d="m416.04 58.393c1.2019-1.2019 1.9998-2.8288 1.3873-2.8288-0.28012 0-0.65436 0.23478-0.83175 0.52173-0.42124 0.68162-3.1823 0.67028-4.469-0.0184-1.8067-0.96691-1.2336-2.8612 1.6035-5.3005 1.4369-1.2355 2.7432-2.6544 2.9027-3.1531 0.41593-1.3002-1.2859-3.9001-3.0242-4.6201-2.3246-0.96289-7.1927-0.29752-10.043 1.3726-2.4391 1.4294-2.4426 1.4355-1.4093 2.4688 1.0332 1.0333 1.0387 1.0331 2.2271-0.0741 1.4323-1.3344 2.4178-1.4002 3.6926-0.24644 1.2956 1.1725 1.1992 2.4834-0.35024 4.7635-0.71738 1.0557-1.3043 2.4541-1.3043 3.1075 0 1.3648 2.3711 4.0596 3.913 4.4472 2.2436 0.564 4.9066 0.35865 5.7053-0.43993z" fill="#f9cf00"/>
<path d="m371.83 52.565c-0.13127-0.50217-0.23864-0.0913-0.23864 0.91303 0 1.0043 0.10737 1.4152 0.23864 0.91304 0.13122-0.50217 0.13122-1.3239 0-1.8261z" fill="#0076bc"/>
<path d="m395.07 49.434c-0.23249-2.2236-1.3918-3.0731-2.0068-1.4706-0.22878 0.59617 1.8471 4.2683 2.1549 3.8119 0.0459-0.0682-0.0209-1.1218-0.14817-2.3414z" fill="#0076bc"/>
<path d="m362.08 50.347c0-0.57391-0.23478-1.0435-0.52174-1.0435-0.28695 0-0.52173 0.46956-0.52173 1.0435 0 0.5739 0.23478 1.0435 0.52173 1.0435 0.28696 0 0.52174-0.46956 0.52174-1.0435z" fill="#f9cf00"/>
<path d="m407.2 49.322c0.68222-1.3192 0.67663-1.5155-0.0506-1.7947-1.2093-0.46407-1.534-0.0683-1.6762 2.0438-0.14583 2.165 0.52893 2.0677 1.727-0.24911z" fill="#0076bc"/>
<path d="m439.29 50.243c0-0.84282-0.15428-0.99353-0.58059-0.56719-0.31935 0.31933-0.42291 0.83585-0.23008 1.1478 0.53968 0.87321 0.81067 0.67911 0.81067-0.58062z" fill="#f9cf00"/>
<path d="m401.6 48.913c0.14072-0.42717-0.34022-0.65217-1.3939-0.65217-1.55 0-2.014 0.46421-1.2388 1.2394 0.56039 0.56041 2.3891 0.15252 2.6327-0.58722z" fill="#f9cf00"/>
<path d="m402.35 43.755c1.0915-0.75641 1.9881-1.402 1.9924-1.4348 5e-3 -0.0327 0.33491-0.99859 0.73461-2.1464 0.61908-1.7778 0.61992-2.3427 6e-3 -3.8135-0.70178-1.6807-4.4-6.8264-4.9221-6.8486-0.26562-0.0113-2.6529 3.109-4.3016 5.6224-1.7716 2.7008-0.80811 5.9918 2.5614 8.7486 0.81359 0.6656 1.584 1.2186 1.7121 1.229 0.12808 0.0103 1.1259-0.60011 2.2174-1.3565z" fill="#f9cf00"/>
</svg>
