<?xml version="1.0" encoding="UTF-8"?>
<svg version="1.0" viewBox="0 0 960 600" xmlns="http://www.w3.org/2000/svg">
<defs>
<style type="text/css"/>
</defs>
<rect width="960" height="400" fill="#ffc900"/>
<rect y="400" width="960" height="200" fill="#0f6eb2"/>
<path d="m392.96 210.7v-188.61h-305.98v196.98c3.6011 80.317 67.406 133.07 152.4 158.83 82.194-25.755 153.63-81.719 153.63-166.09 0-0.37059-0.05362-0.74468-0.05362-1.1154l-2.9e-4 5.7e-4z" fill="#0f6eb2" stroke="#000" stroke-width="4.193"/>
<path d="m291.95 306.25v1.0608c-0.15856 3.9739-1.4819 6.3578-1.4819 6.3578s-2.9163-2.7546-4.4518-3.5495c-3.4992-1.6972-10.493-2.2789-16.534-4.5054-1.8009-0.68683-4.3981-2.9668-6.6782-6.1994-0.36957 1.0071-0.95249 2.0679-1.9048 3.075-1.4314 1.485-4.8257 2.2254-6.9985 1.9596-1.0608-0.15856-1.8011-0.47464-1.905-1.111-0.21219-0.90324 1.3232-1.9104 1.905-3.7114 0.26683-0.8486 0.37059-1.8557 0-3.075-0.10392-0.26246-0.21219-0.58176-0.31609-0.89886-1.3767-3.0204-3.4993-5.0335-5.8833-7.4185-0.69003 9.645 1.485 14.68 3.8154 17.38 0.74148 0.90323 1.5354 1.6435 2.384 2.2799 6.5743 4.9298 15.211 2.2801 15.635 3.6568 0.47465 1.273-2.5458 11.501-14.096 11.022-0.58613 0-1.0608-0.05028-1.5396-0.15754-1.9596-0.26683-3.2326-1.0071-4.5558-1.8021-0.05348 3.3375-0.58277 6.3579-1.1645 8.9583-1.169 5.0838-4.4015 9.9063-7.0489 13.247-0.37394 0.4745-1.5933-0.15856-3.074-1.7474-2.5468-2.7591-5.7246-8.429-5.987-16.06-0.10828-1.8022-0.0548-4.0275 0.1039-6.4662-3.7116 3.179-9.0076 5.8296-15.37 4.0822-6.0954-1.6435-9.644-8.1097-9.1661-11.501 0.37073-2.7546 8.6378 2.2799 17.064-2.6497 3.3407-1.9596 7.8964-8.2671 8.7952-20.35-5.6164 4.0275-9.2742 7.6844-9.0074 11.765 0.15738 2.3304 2.7043 4.5568 1.5889 5.3015-1.4315 1.0061-6.8357 1.4271-9.1157-1.2193-1.0576-1.2192-2.0635-2.3882-2.384-3.6578-2.1182 2.8585-4.0778 4.9264-5.9335 5.6175-6.0406 2.2254-12.244 2.7547-15.686 4.5054-1.5933 0.7951-4.5055 3.5497-4.5055 3.5497s-1.3777-2.3838-1.486-6.3611v-1.0574c0-0.74468 0.05466-1.5398 0.21204-2.384 0.74482-5.0391 4.9309-9.0118 10.282-11.45 1.8011-0.79393 7.3682-2.0635 13.09-3.9193-1.111-0.37073-3.3375-0.95687-4.4518-1.6435-3.6578-2.1718-6.6246-7.5258-5.8296-12.823 0.69106-4.4015 4.5064-9.4864 7.6307-9.6482 1.1154 5.1964 6.9987 10.019 11.45 9.9107 4.1314-0.15856 6.9931-1.5353 9.6974-4.502 2.3304-2.5458 5.0347-9.6988 6.0418-17.383-2.8126 3.4949-7.739 8.9038-8.7996 10.917-1.8011 3.3911 1.5899 4.9264 1.0071 6.0418-2.3304 2.2254-6.4115 3.3365-9.9108 2.0635-3.391-1.2684-6.254-3.6535-6.5699-7.3102-0.42435-4.8763 1.6972-8.4292 5.8296-12.878 4.5556-4.8761 8.3207-8.5866 9.5401-12.457 1.0564-3.1242 1.4806-3.7607 1.5353-6.57-0.05465-1.6972-0.74032-3.5485-0.74032-5.4579-1.4314 0.95248-2.1226 1.3767-2.1728-0.52929-0.05406-2.5447-0.59602-4.9-1.2891-7.052-2.2616 8.6287-9.5099 15.018-16.414 21.361-2.1718 2.0133-4.2397 4.3436-5.9325 6.6772-0.53249 0.74148-1.1154-1.2728-1.485-3.9225-2.5972 2.4921-5.459 5.0882-8.0014 7.2053-3.1288 2.5972-15.582 13.09-15.582 13.09s-6.5196 4.8225-6.8892 5.3551c-0.3171 0.52812 0.79379 0 2.28 0.26246 2.2254 0.37394 2.2254 1.5933 2.2254 1.5933s1.485-0.84858 3.0202 0.05028c1.273 0.69002 1.0072 2.3336 1.0072 2.3336s2.8082 1.4315 3.3911 3.6033c0.84859 3.0739-1.3232 6.7273-3.2872 7.5759 0-1.3767-0.15739-2.5414-0.68668-3.8154-0.31929-0.84859-0.7403-1.3767-1.485-1.6424 0 0-0.9525 1.6424-3.0204 1.1679-2.2757-0.53147-2.1718-2.6496-2.1718-2.6496s-1.7474 1.3767-4.6103-1.3276c-1.1647-1.111-2.8629-1.0564-3.7114-0.52812-0.74045 0.52812-2.1718 2.1717-2.7536 3.9192-0.47903 1.3275-0.90324 3.7114-1.3779 4.876-0.47784 1.2193-0.90221 1.4862-1.3767 1.752 0.95235 1.0071 1.111 2.6463 0.36957 4.0778-1.0061 1.9628-3.1287 1.5386-3.1287 1.5386s-1.111 0.37059-1.5889 1.4314c-1.111 2.4386-0.47465 5.4054-0.89886 5.2468-2.4921-0.95686-3.6568-3.3944-3.7114-5.0883 0-1.2728 0.52813-3.1788 1.0071-3.9236-2.2801-1.4816-0.84858-5.085 1.5889-4.7142 0.10827-1.2728 0.90323-2.4375 1.9104-3.7114 1.2686-1.5889 2.0635-3.5485 1.8011-3.9193-0.26567-0.42422-1.9094-1.485-5.4042 0.63319-2.8092 1.6972-4.0822 0.8486-4.0822 0.8486s-0.9022 1.9596-3.3407 2.596c-1.8011 0.47785-3.2326-0.7403-3.6033-1.8011-4.7678 0.21217-6.1992 4.3971-6.4114 3.5529-0.47786-1.964-0.68668-4.1357 0.32045-6.0418 1.3231-2.4921 4.5557-3.1822 4.5557-3.1822s-0.05364-1.694 1.4315-2.5426c2.596-1.4314 4.9799 0.42436 4.9799 0.42436s0.6364-0.32045 2.1728-0.6364c1.4303-0.26683 2.2254 0 4.3971-0.1039 1.3276-0.10828 2.1762-0.37511 3.075-0.6912 1.2193-0.42422 1.0608-1.6972-0.79496-2.0131-1.8011-0.31712-4.1314-1.273-5.1921-2.5972-2.2801 1.5364-5.4054-0.74031-4.9308-3.2324-1.5354-1.1647-4.4519-1.856-7.0479-1.5356 0.84858-1.6435 2.4386-3.3407 4.8761-3.7651 2.6507-0.47449 4.2396 0.63656 4.2396 0.63656 1.9094-2.6497 5.143-0.9525 5.4054 1.3231 2.1215-0.1039 3.6021 1.5933 5.0883 3.3957 1.6972 2.117 2.7043 2.9656 5.8285 2.596 1.0071-0.10828 5.3551-3.9773 7.4722-5.8834 2.1226-1.9094 16.218-17.966 18.124-20.191 0.79496-0.89886 2.0679-2.4385 3.6032-4.186-2.5424 0.42422-4.7142 0.58278-4.29 0 2.3304-3.4994 5.4044-8.1087 8.2138-13.673 3.6696-7.4984 12.035-18.732 21.005-26.214-0.70329-2.1577-1.3866-4.5618-2.0328-7.545-0.69003 0.47784-1.4315 1.1647-1.4315 0.42437 0.00379-0.10114 0.00509-0.20374 0.00525-0.30676-0.12635 0.53307-0.26888 1.0605-0.42947 1.5796-4.1851 13.352-13.78 14.362-13.143 12.398 0.90323-2.6999 2.0143-5.3505 2.4921-8.6365 0.10391-0.89902 0.26246-3.9739 0.79496-8.1097-1.1154 4.2396-2.0143 8.6378-4.1357 14.258-6.5154 17.487-15.578 18.123-14.57 15.578 1.3767-3.495 4.2396-13.194 4.6093-14.732-1.4303 2.7045-2.6496 4.4016-3.2326 5.354-4.1849 6.1994-12.24 12.611-18.656 14.466-9.1125 2.6508-16.585 0.58293-13.776-2.6497 2.2767-2.597 7.6843-8.0549 13.776-16.851-0.84523 0.89886-9.2742 11.392-21.831 15.898-10.068 3.6032-18.814-0.10711-16.164-1.1142 3.2324-1.2696 12.981-7.2065 16.322-10.173 5.0345-4.3479 8.6367-8.3206 13.193-12.985-3.6032 2.596-5.6176 3.869-8.9539 5.2456-22.309 9.1157-47.748-1.4805-40.275-4.2899 15.898-5.9904 30.789-14.787 31.529-15.369-3.5485 2.0679-15.207 7.7346-28.774 6.6771-7.6308-0.58176-12.241-7.1014-9.6986-7.3136 12.615-1.1657 22.363-3.391 29.307-6.0417-24.801 2.0143-31.001-11.658-28.779-12.083 4.3478-0.84858 12.986-2.7546 25.226-7.5268 0.90338-0.3161 6.9987-3.0204 7.7926-3.4446-4.1346 1.3274-7.3682 1.7518-11.765 1.8021-18.919 0.05363-20.192-8.0014-18.495-7.9478 3.1253 0.10493 8.16 0.21219 14.097-0.47785 6.5592-0.7218 16.696-3.4101 17.2-3.5442-0.44243 0.11149-7.7414 1.8311-21.76-2.019-14.941-4.1357-16.797-18.918-13.934-18.761 3.3363 0.21219 13.139 2.0143 25.221 1.4862 1.274-0.0548 4.4026-0.42539 5.5137-0.47901-7.365-1.273-16.322-3.5485-21.624-8.5329-8.0003-7.4185-6.6236-14.309-4.9264-13.248 5.0893 2.9668 14.837 8.7461 20.03 10.173 2.4375 0.69004 4.8257 1.3812 7.7378 2.0143-6.6236-3.4413-11.658-7.049-15.156-14.73-4.1861-9.3815-4.2396-19.451-1.4816-17.171 1.9595 1.6437 11.288 8.6915 18.336 12.295 1.5889 0.7951 2.117 1.3232 3.8645 2.0647-4.0766-4.0778-6.6236-8.1054-7.7881-12.453-3.4994-12.507 0.5325-16.797 1.2728-15.158 1.694 3.4994 3.3911 6.5743 6.8358 12.246 1.7474 2.8617 3.8153 5.4042 4.1861 5.8821-0.58293-5.5662 0.32031-11.184 2.7546-17.649 4.9844-13.194 18.073-16.426 17.436-13.673-1.485 6.8368-1.485 14.255 0.90338 19.289 1.2684 2.5468 4.0274 6.7865 4.6091 9.8572 1.0576 5.7247-1.3264 9.2743-2.175 12.507 3.1823 3.0203 9.1693 5.7246 13.726 8.4246 6.1489 3.6076 9.2732 9.3289 9.061 13.569-0.31594 6.8356-6.6236 8.4247-9.5357 9.4318-1.6982 0.58277-5.4052 0.53249-5.5125 2.3882-0.05466 0.84421-0.63758 1.8514 0.7403 2.8082 2.5962 1.8011 6.5197 6.1457 6.5197 8.0014-0.10376 5.563-3.6578 6.7812-5.7246 9.8562-1.7486 2.5425 0.53147 2.9165 2.1214 2.863 1.7474-0.10828 2.8082 0.1039 4.7142 0 3.3409-0.21218 6.628 0.89886 9.3816 3.4446 1.6437 1.5353 3.4458 3.4949 5.1932 4.4518 2.3336 1.2193 5.0337 0.68683 6.8358 0 1.5061-0.57709 4.0441-2.2106 6.4519-3.5074 0.58657-0.88458 1.2923-1.7365 2.1357-2.5332 5.8832-5.5673 8.4793-6.5197 13.459-11.979 2.2799-2.4385 3.6032-6.0953 4.2942-7.6307-0.53248 0.26581-1.5899 0.1039-2.4385 0.05363 0.89886-1.963 5.775-8.9571 6.7285-15.103 0.31929-2.0132 0-5.5125 0.42437-8.7451-1.694-0.3171-3.6033-1.8557-10.173-0.74132-3.0204 0.47449-7.9512 2.6463-8.7998 2.4385-0.79495-0.16176 0.26581-4.56 2.0679-6.6279 1.3769-1.5889 2.6497-2.6463 6.0408-3.0707 3.0749-0.32032 7.261 0.42436 8.5339 0.68683-3.9739-2.7011-7.8429-4.0822-10.335-4.7679-3.4448-0.95366-7.4187-0.95366-11.658-1.5901-6.9943-1.1143-9.5947-3.5529-11.554-8.0549-2.0679-4.8761-1.2193-10.547-1.2193-10.547s1.5396 3.1788 4.6103 7.0478c3.075 3.87 5.5673 3.87 8.2168 3.658 2.0647-0.15855 3.3911-1.6972 7.5226-1.3276 2.597 0.21218 0.69106 1.6972 0.69106 1.6972s-1.5396 0.74147-2.5424 1.4315c-1.0608 0.79496-1.7508 1.7474-1.7508 1.7474s1.1647-0.15753 4.2396-0.68682c3.1287-0.47785 7.2601 0.42436 8.7451 1.111 2.1182 0.90324 4.29 2.4386 5.9872 4.0822 0.8486 0.79394 1.3779 1.4851 2.1717 2.7043-0.26246-2.3346-0.89886-3.6075-3.4949-5.9379-1.8557-1.6425-7.1026-3.7607-9.0622-5.4042-3.8688-3.179-5.9904-9.856-9.0118-11.342-1.9596-0.95249-7.0982-0.42437-9.2732-0.31609-1.694 0.050277 2.0679-4.2932 5.0883-5.5125 2.2799-0.90323 6.7821-2.2799 11.446-0.37074 1.485 0.63655 2.7043 1.5901 3.5529 2.6508 0.63203-0.58292 2.4878-1.964 5.0838-2.0143-2.1717-1.0608-2.4375-5.1419 0.58728-5.354-2.0143-1.3232-1.0071-2.8082-0.90323-4.8761 0.15855-2.1182-0.69003-2.5972-0.36972-5.085 0.3161-2.5458-0.37059-3.869-0.8496-5.0347-0.58176-1.3264-3.869-4.2397-2.0667-4.7176 3.2324-0.95351 5.566 0.10828 6.4114 1.2193 1.2182 1.5889 0.47785 4.081 0.47785 4.081s0.79495-0.21204 2.8629 0.1587c1.9596 0.36957 3.4982 1.9092 4.4518 3.391 0.15753 0.21218 0.26581 0.36957 0.36971 0.58175 1.274-0.95249 3.075-1.905 4.8771-1.1647 0.84859 0.37074 2.1718 1.4315 2.596 2.384 1.111-2.3304 2.9668-4.0812 4.98-4.3983 1.5396 2.385 0.58278 4.8761 0.05465 7.049 0.89784-0.37059 2.0132-0.47887 2.9658-0.10492 0.6364 0.21218 1.1657 0.6332 1.5899 1.2696 0.69004 1.1154 0.90222 2.2265 1.169 3.3911 1.2684-0.6332 3.5485-1.1647 4.5557-0.95249 2.5959 0.3193 3.1252 2.1214 3.1252 2.1214s1.2183-2.4385 3.3408-2.9165c3.1778-0.68668 5.9324 2.7043 6.0406 3.7114 0.10391 1.0061-2.9165 1.1647-4.4517 1.7476-1.3232 0.52812-2.4923 2.8082-3.4448 3.8154-1.1657 1.2182-1.8021 1.485-3.4456 2.8082-0.68682 0.5325-1.8009 1.0606-2.5959 2.2799-0.5819 0.89886-0.84859 1.5354-2.4376 1.3769 0.47799 2.6507-1.2192 5.8296-3.2871 5.0882 2.8629 3.3375 3.6568 8.85 5.5125 10.494 2.1715 1.8559 4.082-0.15856 7.2062 0.42436 1.5398 0.31609-0.89886 8.4793-4.7142 9.0622-1.2192 0.15739-2.9164 0-4.4516-0.84858 0.1039 1.7475-0.10827 4.1313-0.26581 6.5688-0.31711 6.5198 3.2326 10.231 3.7607 11.979-1.0564 0.74031-2.8585 1.3232-3.8656 0.68667 0.26247 2.8126-0.42436 3.9236 1.2193 5.5125 1.9596 2.0144 3.9191 2.4386 7.3648 3.179-0.31711 3.0204-3.0749 5.1966-4.2941 5.5125-1.9596 0.47901-2.7547 0.26683-3.9729-0.1574-0.05464 1.5889 0.58175 4.3435 1.4315 6.0953 1.006 1.9598 2.4911 3.4952 4.5052 5.1924 2.596 2.1717 5.5628 4.8225 9.1125 8.6915 0.4911 0.53526 0.93077 1.1081 1.3241 1.7078 1.9694 1.186 3.8264 2.3508 4.9822 2.7942 1.8022 0.69004 4.5065 1.2193 6.8369 0 1.7506-0.95248 3.5529-2.9131 5.1922-4.4518 2.7579-2.5426 6.0418-3.6536 9.3825-3.4414 1.9596 0.1039 2.9668-0.10828 4.7176 0 1.6392 0.05027 3.8656-0.32047 2.1182-2.9165-2.0679-3.0202-5.6174-4.2396-5.7247-9.8027 0-1.8557 3.9226-6.2036 6.5197-8.0047 1.3768-0.95249 0.79392-1.9596 0.74044-2.7546-0.05042-1.8557-3.8153-1.8557-5.5093-2.4375-2.9165-1.0071-9.224-2.5972-9.5401-9.3793-0.21218-4.2932 2.9165-10.018 9.0622-13.621 4.6103-2.7011 9.7521-5.3508 12.985-8.3712-0.90221-3.1833-2.4921-6.8368-1.4303-12.561 0.58176-3.0739 3.39-7.3136 4.6093-9.856 2.4385-4.9811 2.4385-12.453 0.89886-19.289-0.63203-2.7591 12.457 0.4745 17.438 13.671 2.4921 6.4662 3.3363 12.083 2.7546 17.645 0.36957-0.47464 2.4375-2.9668 4.1849-5.8833 3.4458-5.6164 5.143-8.6871 6.8401-12.24 0.79496-1.6435 5.4547 2.8618 1.2193 15.156-1.273 3.7617-4.7722 8.6379-8.7998 12.72 1.6972-0.74147 3.3408-1.5396 4.9298-2.3347 7.0489-3.6032 16.372-10.651 18.387-12.295 2.7043-2.2756 2.6497 7.8429-1.5353 17.171-3.4994 7.6854-8.5341 11.289-15.158 14.733 2.9165-0.63641 5.3551-1.3232 7.739-2.0143 5.1922-1.3768 14.944-7.2053 20.034-10.172 1.6928-1.0608 3.0707 5.8285-4.8771 13.247-5.354 4.9799-14.308 7.3146-21.622 8.534 1.0608 0.04925 4.2396 0.41984 5.5125 0.47348 12.029 0.5325 21.831-1.2684 25.172-1.4806 2.8629-0.10827 1.111 14.308-13.884 18.44-14.417 3.9226-21.836 2.3336-21.836 2.3336s10.547 2.8084 17.225 3.5487c5.9335 0.68682 10.967 0.58292 14.097 0.47901 1.6928-0.05464 0.41985 8.0003-18.498 7.9468-4.3435 0-8.7964-0.8486-12.981-2.1182 0.8486 0.42422 7.4722 3.3374 8.3175 3.7081 12.244 4.7712 21.569 6.7308 25.916 7.5804 2.2265 0.41999-5.354 14.2-30.152 12.186 2.1182 0.9525 4.8225 1.9596 6.8358 2.5458 8.8499 2.4889 20.775 3.495 23.263 3.6536 2.5458 0.16175-1.4818 6.3075-9.1158 7.0478-5.4053 0.53265-11.55 0.0548-19.181-2.1182-4.2944-1.2182-8.2671-3.39-11.767-5.5125 0.74045 0.58293 1.4851 1.1657 2.1718 1.6437 10.335 7.0478 25.967 12.507 31.376 14.945 7.3102 3.2326-17.808 13.143-40.067 4.0274-3.391-1.3777-6.9395-3.391-10.543-5.987 4.6093 4.6639 9.5357 9.378 14.57 13.775 3.3407 2.9164 13.251 8.8499 16.484 10.123 2.6463 1.0071-6.1491 4.981-16.164 1.1154-8.9583-3.4458-12.453-6.3075-20.034-13.622-0.7951-0.74031-1.6437-1.6435-2.4375-2.5424 6.0406 8.8499 12.136 14.571 14.416 17.117 2.8082 3.2324-4.6639 5.3003-13.78 2.6507-6.4125-1.8557-16.056-9.1704-20.246-15.37-0.95352-1.4314-1.694-2.596-2.8082-4.7176 0.37394 1.4851 0.6364 2.8082 0.79393 3.553 1.0071 4.3435 2.6004 8.4793 3.9236 11.974 1.0071 2.5458-6.9944 1.3811-13.514-16.11-2.1172-5.6174-3.6033-10.597-4.7176-14.837 0.47784 3.7114 0.84858 7.1528 1.0608 8.4793 0.47784 3.2872 1.4313 6.0953 2.3336 8.7416 0.74148 2.2801-8.429 1.3276-12.669-12.295-0.21072-0.68085-0.39229-1.3669-0.55012-2.0554-0.39434 2.1922-0.76392 3.2945-1.4631 5.2377-0.54255 1.477-0.98222 2.7492-1.343 3.8658 8.6882 7.3962 15.652 17.387 19.308 24.751 2.759 5.5638 5.8834 10.173 8.218 13.673 0.36971 0.58278-1.7518 0.42422-4.2944 0 1.4851 1.7474 2.8084 3.2871 3.5497 4.186 1.9094 2.2254 16.06 18.282 18.178 20.191 2.1215 1.9062 6.465 5.7751 7.4187 5.8834 3.1778 0.36957 4.1346-0.47903 5.8821-2.596 1.4862-1.8024 2.9668-3.4996 5.0893-3.3957 0.26567-2.2756 3.4446-3.9727 5.4042-1.3231 0 0 1.5354-1.111 4.1861-0.63656 2.4921 0.42437 4.0275 2.1215 4.9298 3.7651-2.6496-0.32046-5.5127 0.37088-7.0479 1.5356 0.42436 2.4921-2.6507 4.7689-4.9844 3.2324-1.0574 1.3242-3.3375 2.2801-5.1921 2.5972-1.8021 0.31593-2.0143 1.5889-0.79495 2.0131 0.90207 0.31609 1.7506 0.58292 3.1285 0.6912 2.1718 0.1039 2.9668-0.16293 4.3983 0.1039 1.5353 0.31595 2.1717 0.6364 2.1717 0.6364s2.3337-1.8557 4.9297-0.42436c1.5353 0.84859 1.4818 2.5426 1.4818 2.5426s3.2324 0.69003 4.5054 3.1822c1.0608 1.9062 0.79496 4.0778 0.31712 6.0418-0.15856 0.84421-1.5901-3.3407-6.3579-3.5529-0.42423 1.0608-1.8557 2.2789-3.6032 1.8011-2.4386-0.6364-3.3911-2.596-3.3911-2.596s-1.2192 0.84858-4.0274-0.8486c-3.4994-2.1182-5.1966-1.0574-5.4087-0.63319-0.26232 0.37074 0.47799 2.3304 1.752 3.9193 1.0563 1.274 1.8011 2.4386 1.9048 3.7114 2.4923-0.37075 3.8701 3.2326 1.5901 4.7142 0.47784 0.74482 1.0608 2.6508 1.0071 3.9236 0 1.694-1.2193 4.1314-3.7081 5.0883-0.42437 0.15856 0.21204-2.8082-0.84859-5.2468-0.47799-1.0608-1.6437-1.4314-1.6437-1.4314s-2.0679 0.42422-3.0739-1.5386c-0.7951-1.4315-0.58291-3.0707 0.37394-4.0778-0.47901-0.26581-0.90323-0.53264-1.3811-1.752-0.47463-1.1645-0.95248-3.5485-1.3768-4.876-0.58278-1.7476-2.0679-3.3911-2.8092-3.9192-0.84859-0.52828-2.4878-0.58293-3.6568 0.52812-2.9121 2.7043-4.6103 1.3276-4.6103 1.3276s0.10813 2.1182-2.1718 2.6496c-2.1215 0.47451-3.0204-1.1679-3.0204-1.1679-0.74031 0.26567-1.1647 0.79379-1.5353 1.6424-0.47901 1.274-0.63655 2.4386-0.63655 3.8154-1.964-0.84858-4.1356-4.502-3.3407-7.5759 0.58176-2.1718 3.4446-3.6033 3.4446-3.6033s-0.31595-1.6435 1.0071-2.3336c1.5386-0.89886 3.0204-0.05028 3.0204-0.05028s-0.05362-1.2193 2.2265-1.5933c1.4303-0.26246 2.5458 0.26566 2.2253-0.26246-0.31594-0.53265-6.8904-5.3551-6.8904-5.3551s-12.399-10.493-15.527-13.09c-2.5425-2.0635-5.3508-4.664-7.8965-7.1014-0.42102 2.7578-1.0574 4.8257-1.6403 4.081-1.6972-2.2756-3.6568-5.0347-5.8821-6.9397-6.1004-5.1029-11.201-9.4296-14.215-15.11-0.01268 0.08904-0.02623 0.17852-0.04037 0.26887-0.21203 1.3779-0.31929 1.7518-1.8053 0.58277-0.41999 2.2265-0.68565 4.0275-0.95249 5.5673 0.10828 4.081 0.32031 9.2732 3.6032 12.823 2.0143 2.2265 4.9842 4.7678 7.7388 6.5733 2.3304 1.5353 4.9296 5.1386 5.2469 8.16 0.31593 3.074-0.37075 5.7248-2.8094 8.849-1.5386 2.0143-8.4791 5.5137-12.664 1.59-0.37074-0.47464 2.9121-2.1718 2.4878-4.6103-0.47465-2.384-2.3838-5.0884-4.6103-7.3642-1.2183-1.274-2.4879-2.3849-3.6568-3.2871 0.32032 4.9799 1.3811 12.136 3.2324 14.625 0.10828 0.16176 0.26683 0.37394 0.42437 0.5325 2.1728 2.4878 5.8296 4.4518 9.3287 4.1849 3.869-0.31594 8.4793-2.3302 10.651-7.951 4.2397 2.3347 6.6236 9.6482 5.0883 14.733-1.5398 5.0882-5.459 7.1024-9.4329 7.7925 4.9264 2.2757 9.4329 2.8629 11.18 3.6568 5.3003 2.385 10.28 6.3579 11.025 11.393 0.10492 0.84858 0.15855 1.6435 0.20882 2.3838z" fill="#0a0b0c"/>
<path d="m238.06 56.968c-0.37058-0.95366-0.53249-2.0679-0.58277-3.0214-0.90222 0.6364-2.1762 1.906-3.8154 1.906-0.7951 0-1.4315-1.0564-1.4315-1.0564s2.1718 0.31609 2.8094 0.049257c1.111-0.36957 2.0667-1.2183 2.6999-1.8514 0.10828 0.26246 0.21219 0.52813 0.32032 0.79496 0.74045 1.8011 1.4808 3.6032 2.5962 4.2397 2.1182 1.2192 3.3374 0.31594 3.3374 0.31594s-0.31711 1.2193-1.1109 1.4851c-2.0144 0.74133-2.7044 0.054649-4.0275-1.4851-0.32047-0.42422-0.58293-0.89886-0.79511-1.3767zm15.843 5.8833c0.8486-0.10828 1.6982-0.37074 2.4921-0.6912 0.05464 1.273 0.47464 2.596 0.89886 3.2872 0.95686 1.485 1.8022 1.3767 1.8022 1.3767s-0.20898 0.37074-1.2696 0.21218c-0.58293-0.053628-1.1144-0.79496-1.3266-1.4314-0.21203-0.63655-0.26245-2.7536-0.26245-2.7536s-1.0606 0.68566-2.3346 0.95249c-0.31608 0.10813-0.58175 0.15855-0.899 0.15855-1.2182 0.053483-2.7043-0.52929-3.7103-1.9061-1.0608-1.485-0.26683-3.1832-0.26683-3.1832s0.42422 2.4921 2.5468 3.7114c0.58176 0.37074 1.4303 0.42422 2.3293 0.26683z" fill="#46698d"/>
<path d="m341.61 91.468c7.7893-6.5745 10.39-14.892 9.8035-26.129-1.6403 3.5529-5.776 10.759-9.5913 15.739-0.74046 0.95686-1.5354 1.9105-2.4376 2.8082-0.63641 3.6077-1.906 6.944-3.7617 10.069 1.3232-0.47464 4.7142-1.9596 5.9872-2.4878zm-1.0061 180.87c-1.9596-0.84859-2.9131 0.7951-2.9131 0.7951s-0.90222-0.53264-2.4921-0.74483c-1.3768-0.21204-2.8082 0-5.3005-0.21204-1.3231-0.15753-4.1861-0.74045-4.7142-1.5354-0.95686-1.3767 2.1182-4.081 3.9193-4.3971 1.8557-0.32045 3.9739-1.2193 3.9739-2.8629 1.6972 1.485 4.7176 0.79496 3.5529-1.6972l-1.5396-2.9669c-1.4271-2.0679-3.8646-0.89886-3.8143 1.1143-1.1121-0.16177-2.701 0.74146-4.1861 2.5427-1.6938 2.0679-4.1861 4.9811-7.3146 4.6103-1.0071-0.15856-5.9872-4.0275-8.1053-5.9337-2.4375-2.2253-16.696-17.703-18.444-19.717-1.0071-1.2696-3.1244-3.87-5.4592-6.8368-1.6928-0.36956-3.2827-0.79393-4.1849-1.111-1.4861-0.53148-3.2872-1.5386-5.1932-2.8082 0.68667 1.8525 1.2193 3.6032 1.4315 5.1386 0.21203 1.2728 0.15854 3.1285 0 5.0347 3.2827 3.0202 7.1517 6.466 10.227 9.0621 3.1255 2.596 14.575 12.665 14.575 12.665l8.7952 7.5268s-3.3363 0.42423-4.8213 0.37074c-1.4862 0-2.8094 1.8011-2.8094 1.8011s-1.1645-1.0061-2.7536-0.15753c-0.84859 0.52812-0.32032 1.7474 0 2.6497 0.36972 0.9535 1.1647 2.596 1.1647 2.596s0.6364 1.0072 1.8011 1.2193c1.9606 0.37073 2.0143-1.5889 1.6435-2.9668 0.68682 1.0574 3.2336 2.2265 5.1386-0.15754 1.0608-1.3811 4.6103-1.8557 5.4054-1.3811 1.6972 1.1142 2.8082 3.0204 3.8153 5.9904 0.47785 1.3232-0.10506 3.5497 0.37395 4.7142 0.47465 1.2193 0.95249 1.6437 1.4271 1.9105-0.74031 0.42422-1.0071 1.6425-0.21218 3.0739 0.7983 1.4818 2.2801 0.52929 2.2801 0.52929l3.0202-1.1657c2.0679-0.90222 1.1657-3.3911-1.4303-3.5529-0.05028-1.2696-0.26246-2.9121-1.4818-4.0275-1.8557-1.6435-2.759-6.0911-2.3336-7.0982 0.21219-0.42422 5.354 0.74031 8.5865 2.9121 1.1657 0.79496 3.391 0.74148 4.1325 0-0.15856 1.0072-0.05464 2.2265 1.7474 2.7043 1.8557 0.52929 2.2253-0.84858 2.5994-1.8546 0 0 0.79495-2.2265 1.0071-3.2872 0 0.05363 0.42102-1.8021-1.1144-2.4889zm-4.3446-13.568s1.0576-1.1144 3.179-0.84858c1.5354 0.21203 2.8629 1.3777 3.4994 2.5424-1.8559-0.31608-4.0812 0-5.5125 0.69018l-1.1658-2.384zm5.88 19.448c2.5458 0.36957 3.9771 0.74468 5.0379 2.175-0.05364-1.2183-0.26567-2.2789-0.69004-3.074-0.9535-1.7518-3.6032-2.1214-3.6032-2.1214l-0.74469 3.0204zm-12.665 12.082c0.95686 0.79394 1.0608 1.8011 1.1154 2.8082 0.1574 1.7518-0.63756 2.8629-1.6983 3.9236 0.21219-1.485-0.26246-2.4387-0.68667-3.3375-0.3193-0.69002-1.2183-1.9094-1.2183-1.9094l2.4879-1.485zm-27.715-14.941s-1.3767 0.26246-2.2253 1.8011c-1.2193 2.2767-0.32046 3.7071 1.273 5.0347 0.31595-1.6972 0.15855-1.4314 0.52812-2.2265 0.47901-1.2182 1.8021-1.6972 1.8021-1.6972l-1.3779-2.9121zm-112.82-25.546c3.1789-2.596 7.0479-6.1457 10.439-9.166-0.15753-1.8557-0.15753-3.658 0-4.9308 0.26246-1.6928 0.79495-3.5485 1.5899-5.6164-2.0679 1.5353-3.9739 2.7043-5.5135 3.2861-0.9525 0.31711-2.5414 0.74148-4.2397 1.111-2.3293 2.9668-4.3972 5.5672-5.458 6.8368-1.7474 2.0133-15.952 17.491-18.44 19.717-2.1214 1.9062-7.0478 5.7751-8.0549 5.9337-3.1287 0.37073-5.6176-2.5424-7.3682-4.6103-1.4818-1.8012-3.0204-2.7044-4.1861-2.5427 0.05464-2.0131-2.3304-3.1822-3.7607-1.1143l-1.5398 2.9669c-1.2192 2.4921 1.8559 3.7104 3.4994 2.175 0.05363 1.694 2.3292 2.2767 4.1346 2.5426 1.8525 0.31595 4.7689 2.8629 3.8154 4.2396-0.53148 0.79496-3.3943 1.3779-4.771 1.5354-2.4889 0.21204-3.9204 0-5.2468 0.21204-1.5901 0.21219-2.4889 0.74483-2.4889 0.74483s-0.95569-1.6437-2.97-0.7951c-1.5354 0.68683-1.111 2.5426-1.111 2.4889 0.21219 1.0608 1.0071 3.4446 1.0071 3.4446 0.42422 1.0608 0.89886 2.0679 2.8082 1.5354 1.7474-0.47465 1.7474-1.5354 1.5353-2.5426 0.7951 0.74148 3.0204 0.79496 4.1894 0 3.1788-2.1718 8.371-3.3363 8.5296-2.9121 0.47902 1.0071-0.47463 5.085-2.2757 6.7275-1.2193 1.1154-1.7518 2.8094-1.8557 4.0275-2.596 0.15855-2.9711 3.0214-0.95685 3.9236l2.7579 1.3779s1.7474 0.7403 2.5972-0.74147c0.74032-1.4314 0.31595-2.6497-0.37073-3.0739 0.42437-0.26684 0.95249-0.6912 1.4315-1.9105 0.47449-1.1645-0.10827-3.391 0.31595-4.7142 1.0071-2.97 2.1215-4.8761 3.869-5.9904 0.74148-0.47464 4.2944 0 5.3506 1.3811 1.9105 2.384 3.9773 1.4271 4.6639 0.31609-0.42422 1.4315 0.21219 3.4993 2.173 3.179 1.1142-0.21217 1.8011-1.5901 1.8011-1.5901s0.79816-1.6425 1.1154-2.596c0.36958-0.90222 1.0606-1.8011 0.15739-2.2801-1.5353-0.89886-3.391-0.58175-3.391-0.58175s-1.3232-1.4314-2.8082-1.4314c-1.4851 0.05349-4.2934-0.37074-4.2934-0.37074l8.7451-7.5268s11.446-10.068 14.575-12.665zm-46.212 8.9573s-1.0608-1.1144-3.179-0.84858c-1.5396 0.21203-2.8628 1.3777-3.4446 2.5424 1.8011-0.31608 4.0275 0 5.5082 0.69018l1.1154-2.384zm-5.8296 19.448c-2.596 0.36957-3.9772 0.74468-5.0883 2.175 0.1039-1.2183 0.31608-2.2789 0.74146-3.074 0.90222-1.7518 3.5529-2.1214 3.5529-2.1214l0.79394 3.0204zm13.036 12.082c-1.0072 0.79394-1.0608 1.8011-1.1657 2.8082-0.10726 1.7518 0.68668 2.8629 1.7474 3.9236-0.21218-1.485 0.21218-2.4387 0.69104-3.3375 0.3161-0.69002 1.2193-1.9094 1.2193-1.9094l-2.4921-1.485zm27.718-14.941s1.3767 0.26246 2.2219 1.8011c1.2193 2.2767 0.32046 3.7071-1.3231 5.0347-0.26683-1.6972-0.10392-1.4314-0.47902-2.2265-0.47464-1.2182-1.8011-1.6972-1.8011-1.6972l1.3812-2.9121zm36.829 22.679c-0.21219-5.8285 2.9668-8.7952 5.1384-11.184-8.4245 3.7662-15.315 5.6208-19.871 6.6279-4.7677 1.111-9.7521 4.8729-10.759 9.9074-0.84858 4.3468 0.53264 6.0408 0.84873 7.2097 1.6435-2.176 4.3478-3.2871 5.9872-3.9235 5.5125-2.2254 7.5268-1.111 13.514-3.3365 2.2254-0.79494 3.4448-2.759 5.1419-5.3015zm75.57 5.6176c-1.0071-5.0347-6.6772-8.9037-11.446-10.069-6.8894-1.6928-11.979-2.4375-20.67-7.5761 3.3911 3.495 5.9379 6.4114 5.5672 11.712 1.6938 2.4889 3.3363 4.0778 5.4589 4.8728 6.0406 2.2253 9.5357 2.6004 14.625 4.1358 1.6425 0.52813 4.8761 2.2253 6.3065 3.4446 0.31711-1.1657 1.0071-2.2265 0.15855-6.5197zm-50.822 1.9596s-1.1647 6.9439-5.6164 11.288c-0.21219 2.4385-0.47902 5.6208-0.37073 7.5804 0.52826 9.8025 4.2397 12.295 7.0479 15.316 1.9596-1.6435 5.8832-8.6378 6.8368-13.302 0.42436-2.0679 0.63639-4.348 0.7403-6.6782-7.0478-4.5054-8.6378-14.204-8.6378-14.204zm34.871-36.51c-1.8557 3.7071-6.6782 5.987-10.81 6.2538-4.293 0.20782-9.2741-2.176-12.348-6.7865-1.9104-2.8082-2.5424-10.543-3.2336-16.11-0.79394-0.89886-1.3767-1.9596-2.0132-2.8082-1.3231 2.5426-4.0274 6.944-4.5064 4.2397-0.3161-1.7474-1.111-3.6033-2.0133-5.6164-0.68667 1.1645-1.4816 1.905-2.8628 3.8154-0.63203 7.4722-3.5485 16.164-6.3031 18.918-3.2326 3.2872-6.9987 5.1418-11.13 4.98-6.0406-0.15753-11.554-4.7678-12.772-9.2198-2.2265 1.273-3.7082 3.1287-4.6103 7.527-0.899 4.0274 2.4921 9.3782 6.2538 11.391 1.9596 1.1154 5.0883 1.5396 9.0612 0.74468 6.1499-1.2193 15.794-8.6915 20.35-12.561-3.869 4.981-15.951 12.612-18.07 15.528-2.9668 4.1313-3.9729 9.6438-1.6435 12.664 1.8557 2.385 4.981 2.8094 6.7318 2.4386-0.21218-0.79496-2.2801-3.869-1.963-6.1994 0.69003-4.9308 6.8894-9.4864 12.457-13.464-0.1619 13.622-5.3003 21.943-8.6915 24.219-7.6853 5.143-14.787 2.3347-17.171 2.0679 0.05363 4.2396 4.7176 9.54 9.3782 10.123 7.3684 0.89886 13.726-4.4518 17.279-11.924 3.4446-7.0479 4.3436-17.064 4.4519-21.728 0 4.7144 0.10376 14.892 2.2253 21.624 2.4343 7.8921 8.4793 10.863 12.824 11.338 8.0548 0.90221 12.294-5.7214 12.24-8.6379-1.4818-0.15854-10.651 1.6436-16.693-5.3506-2.3292-2.7043-6.3065-10.389-4.7678-21.94 2.2767 2.3304 7.3104 7.3114 8.7954 10.489 1.1657 2.3882 0 5.6207-0.89886 7.3693 2.2221 0.47785 5.5638-1.4862 6.887-3.075 2.2788-2.8082-0.05028-7.8429-2.9668-11.392-2.7546-3.3911-10.706-8.7986-13.83-13.833 5.0838 4.9843 13.618 10.23 18.123 11.341 6.8904 1.6982 13.618 0.15855 15.686-6.465 1.2193-3.9741-0.95248-7.8965-3.4446-9.9611zm-36.726-27.19c-0.21218-0.84422-0.42436-2.2756-0.52812-3.2324-0.15855 0.26683-0.42437 1.0608-0.58292 1.2728-1.6972 2.384-5.5661 5.4054-5.6711 2.9165-0.10712-3.4446-0.69003-5.1964-1.4303-8.5876-0.15856 2.759-1.0072 4.6103-1.8022 6.254-1.6435 3.391-5.4589 7.1026-9.5903 11.658-4.081 4.4015-5.9904 8.429-5.7246 11.5 0.37059 3.7114 2.9668 5.9914 6.5197 6.7865 2.4341 0.52813 4.9264-0.42436 6.5699-1.1658-2.3304-2.6004-1.9104-5.566 0.1039-8.8534 1.6435-2.6463 5.9915-6.6236 9.3815-9.9611 1.4314-1.4314 3.1788-2.7546 3.9739-4.56-0.42437-1.0564-0.95249-2.9121-1.2193-4.0275zm31.588 16.959c-0.74468-2.9656-2.3882-5.0838-4.6639-6.6236-2.7588-1.8009-4.5599-3.9193-6.5742-6.1446-2.6497-2.8629-3.2829-5.355-3.9729-8.6422-0.42423 3.0248-0.31711 3.6578-0.31711 5.3004 0 1.274-2.5994 0.32047-5.0883-2.1717-0.26567 2.1182-1.006 4.0822-1.9092 6.8902 0.63641 1.694 2.7578 4.7678 4.8225 6.3076 3.4446 2.4341 7.5256 6.8358 8.745 10.755 0.37073 1.1153-0.21204 3.3407-0.69003 4.2942 2.6004 1.4315 7.26-1.0071 8.7996-2.9668 1.4806-1.8557 1.3767-4.9844 0.84858-6.9988zm-31.055-23.262c0.37073 5.2467 2.6464 11.5 4.5022 15.527 1.5396-1.8009 4.3478-8.1622 4.3981-14.52-1.0574-3.1287-2.3838-5.9915-2.3302-11.076-0.84858 1.4315-2.9668 4.1325-3.2326 3.0718-0.26683-1.0073-0.9535-2.4343-1.6982-4.9264 0.10827 4.502-1.6393 11.924-1.6393 11.924zm46.37-14.309c-2.4701-5.4378-9.3812-15.418-17.653-23.443-1.0363 3.4537-1.2311 5.2843-1.5325 7.5447-0.15754 1.2193-0.90222 0.68683-1.7508 0.15856-0.79495 3.869-2.0141 7.8429-3.9738 11.87-1.079 2.1912-1.2662 3.9027-1.4022 5.6747 3.4309 6.6532 8.7002 11.122 11.579 13.14 1.906 1.2696 5.8799 5.0347 7.2611 7.365 0.7403-1.4862 0.84422-6.5701 0.05028-10.228-0.58292-2.7579-2.385-9.1157-5.8799-16.217 2.7546 4.0275 5.4557 7.738 7.0981 11.608 1.274 0.63203 2.3347 1.0071 3.6033 1.4806 2.759 1.0072 7.6351 3.1287 9.4866 2.8094-2.3305-3.4961-4.3438-6.0921-6.8862-11.763zm-69.063-21.914-1.4717-2.7824c-8.9036 8.2123-17.012 19.396-19.609 25.122-2.596 5.6667-4.0275 7.0478-6.3612 10.543 1.9095 0.32045 6.3076-1.3231 9.1158-2.3302 1.6983-0.63655 3.4458-1.4315 5.1932-2.3337 1.485-3.1788 3.4446-6.5163 5.6164-9.8024-3.0707 6.2528-5.1921 12.191-6.0909 16.006-0.6912 3.0204-0.42437 6.886 0 8.7954 1.4806-1.4851 3.1788-3.8702 5.1921-5.3005 3.5402-2.4251 13.152-9.6244 16.284-19.115-0.57243-1.5962-1.1934-3.0692-1.7097-4.4133-0.7951-2.1718-1.3266-4.5568-1.6972-7.1529-0.58291 0.89886-1.5354 1.4818-1.7476 0.74147-0.89682-3.0697-1.812-5.5133-2.7142-7.9768zm134.03-109.25c-4.1314 2.1215-9.1157 3.8154-14.412 5.0347-0.5325 0.90221-1.7518 2.0133-2.6507 2.7043 2.0679-0.42422 4.8761-1.1657 6.254-1.5353 2.7534-0.74483-1.0619 9.7477-6.0954 14.412-0.63641 0.63757-1.5353 1.3276-2.5972 2.0679 0.74147 0.05465 1.5364 0.10493 2.385 0.21219 0.74031 0.05464 1.6425 0.21218 2.5458 0.42421 4.2397-1.2182 9.3247-3.0739 13.564-5.6699 4.7176-2.8629 10.122-6.0418 14.204-13.622 2.8082-5.2469 3.9193-11.446 3.7607-15.527-1.9596 1.6972-9.9096 7.8965-16.959 11.5zm5.7257 17.966c-2.8629 0.74468-5.355 1.2193-8.0014 1.5386-3.8688 1.6403-8.2168 2.9668-11.924 3.9204 3.1243 0.6364 6.7811 1.6972 9.7479 2.0131 0.63641 0.0548 0.95686 0.58291 0.95686 1.4851 8.7964-1.589 18.124-2.6497 25.276-8.4246 3.6033-2.9165 5.143-8.0551 6.3076-10.655-5.2468 3.075-16.905 8.6915-22.363 10.123zm0.15753 11.82c-3.3365-0.26582-6.6772-0.63641-9.8561-1.0608-1.0071 2.3304-3.6032 5.5628-8.4793 8.7418-1.3779 0.90222-2.7043 1.5933-4.0275 2.175 0.52827 0.26246 1.0608 0.52929 1.5354 0.79511 3.6065 2.0678 10.493 3.7617 12.403 4.1313 0.42421 0.05464 0.42421 0.6912-0.05465 1.6437 6.1992 0.15856 14.042-0.31608 20.138-2.6497 9.7521-3.658 14.15-11.289 14.466-15.528-4.3972 1.0618-15.631 2.4921-26.125 1.7518zm4.0275 21.885c-5.5629-0.9525-10.123-1.906-14.042-3.1244-1.485 1.6929-3.7114 3.4952-6.5196 4.8719 5.6711 2.2265 12.403 4.348 19.239 4.1894 9.5367-0.21217 17.276-3.2862 18.282-4.7176-3.0204 0.15739-10.81-0.10391-16.959-1.2193zm-13.194 7.4185c-2.5458-1.2696-5.4086-2.9668-8.3754-4.8761-1.2182 0.53265-2.5414 1.0073-3.9193 1.273-1.6972 0.37074-3.3407 0.52813-4.9296 0.58293 1.0606 0.74468 2.0679 1.6435 2.9165 2.7043 2.8585 3.391 8.687 7.3136 10.863 8.7952 1.1647 0.84859-4.8761 4.348-11.5 5.3005 4.7142 2.4921 11.287 4.876 17.379 5.6174 19.768 2.4375 29.204-6.1501 30.26-9.0086-4.3435-0.90222-18.123-3.2324-32.695-10.389zm8.0551 24.748c-2.175-0.74147-4.7722-1.9062-7.634-3.3911-6.4114-0.89886-12.186-3.7617-17.38-7.4185-0.84858 0.10829-1.6435 0.10829-2.4921 0.05349 2.3304 2.6508 4.8761 5.4054 7.4185 7.9468 4.6639 3.075 10.439 6.6782 17.171 8.7998 6.6782 2.1182 10.547 2.5424 16.322 2.3839 2.4386-0.05349 10.227-2.7534 11.608-4.2932-3.3943 0-16.747-1.2696-25.014-4.081zm-11.979 6.0406c-5.3003-3.2828-12.772-11.338-17.857-17.749-0.84858-0.10828-3.286-0.69119-4.2932-1.0073 0.37073 0.74045 0.68667 1.1658 1.0071 1.9596 1.9596 4.4519 5.3003 8.2672 6.7821 10.494 1.1647 1.7474-8.3722 3.6568-18.39-0.90338-0.37074-0.15738-0.68667-0.21203-1.5353-0.74031 0.21205 1.3232 0.36957 2.5426 0.74031 3.869 5.7794 6.1994 12.772 11.925 19.342 15.686 15.582 8.9034 35.773 8.5338 44.676 2.4385-6.3611-1.9596-20.245-7.5804-30.473-14.046zm-25.7 5.5125c-2.0667-1.905-4.8761-4.081-6.9439-6.3075 0.63641 2.6004 2.0678 4.9843 2.8092 6.5743 0.52812 1.2193-1.6983 1.273-4.5568 0.74031 0.74147 1.6437 1.8525 4.0275 2.4889 5.3004 2.7579 3.3911 5.1418 6.3578 8.0551 8.9035 6.5196 5.6176 8.9571 8.9047 17.754 12.507 4.3971 1.8021 11.237 2.0143 15.898 2.0143-3.2336-1.2728-12.665-6.5197-16.003-9.4362-7.4185-6.4114-14.045-13.618-19.501-20.296zm-10.759 0.58292c-3.4446-0.74031-6.4648-1.9596-8.3742-3.3365-1.8525-1.3275-3.4414-2.8629-4.8225-4.6103 0 0.68667 0 1.3767-0.05042 2.0132-0.16176 2.5424 1.589 8.5296 2.0144 9.7489 0.42421 1.1154-1.752 1.1154-4.9846-0.10391 2.5459 5.5628 4.9846 9.9106 7.2098 12.981 3.9739 5.5125 9.1661 10.547 15.844 13.464 5.7247 2.4375 14.575 2.4375 16.267 1.2183-2.8617-3.2326-11.391-10.177-18.652-23.108-1.0061-1.8011-3.0204-4.9264-4.4519-8.2671zm-14.149 10.335c-0.84989-1.9094-1.8559-4.1314-2.863-6.7318-2.4879-1.0574-5.1386-2.596-7.0982-4.6103-0.32047-0.26245-0.6364-0.63654-0.90323-0.95248 1.2193 3.8688 2.7546 8.2135 4.5064 13.089 3.9192 10.917 8.3177 15.156 11.604 17.275-1.2182-4.1314-2.8082-6.0406-3.4446-10.28-0.31608-2.0143-1.1647-4.7142-1.8011-7.7891zm-152.09-103.92c-7.7926-6.5745-11.451-16.747-10.813-28.035 1.5889 3.6032 4.9297 10.864 8.7451 15.898 0.7403 0.95351 1.7474 2.1182 2.6507 3.0214 0.6364 3.6032 2.1718 7.4175 4.0275 10.543-1.3276-0.47464-3.3407-0.95249-4.6103-1.427zm-9.4866-3.2872c4.1314 2.0679 8.9036 4.7142 14.201 5.9335 0.5325 0.90221 1.7508 2.0133 2.6497 2.7043-2.0669-0.42422-4.8761-1.1657-6.2528-1.5353-2.7547-0.74483 1.0606 9.7477 6.0953 14.412 0.6364 0.63757 1.5354 1.3276 2.596 2.0679-0.7403 0.05465-1.5353 0.10493-2.3838 0.21219-0.79496 0.05464-0.95352-0.21219-1.8557-0.05364-4.2397-1.2193-9.1158-2.596-13.302-5.1921-4.7176-2.8629-9.9108-6.0418-13.992-13.622-2.8081-5.2469-4.2396-11.87-4.1313-16.002 2.0131 1.6928 9.3279 7.4722 16.376 11.075zm-5.9367 18.865c2.8618 0.74468 5.354 1.2193 8.0003 1.5386 3.87 1.6403 8.218 2.9668 11.925 3.9204-3.1253 0.6364-6.7821 1.6972-9.7489 2.0131-0.6364 0.0548-1.0071 0.58291-0.95685 1.4851-8.7954-1.589-17.062-2.9657-24.215-8.7987-3.6568-2.9131-4.6137-7.7356-5.7247-10.281 5.2468 3.075 15.261 8.6915 20.72 10.123zm-0.15856 11.82c3.3375-0.26582 6.6782-0.63641 9.8572-1.0608 1.006 2.3304 3.6032 5.5628 8.4793 8.7418 1.3767 0.90222 2.7043 1.5933 3.9727 2.175-0.47449 0.26246-1.006 0.52929-1.5353 0.79511-3.6032 2.0678-10.439 3.7617-12.348 4.1313-0.42421 0.05464-0.42421 0.6912 0.05364 1.6437-6.1994 0.15856-13.938-0.79394-20.033-3.1243-9.7489-3.6032-12.769-10.706-13.09-14.945 4.3971 1.0608 14.15 2.384 24.643 1.6437zm-4.0275 21.885c5.5628-0.9525 10.123-1.906 14.042-3.1244 1.4861 1.6929 3.8154 3.8648 6.6247 5.2458-5.6711 2.2221-12.4 3.7619-19.235 3.6033-9.54-0.21218-15.898-3.074-16.905-4.5054 3.0214 0.15739 9.3247-0.10391 15.474-1.2193zm13.193 7.4185c2.5469-1.2696 5.4088-2.9668 8.3755-4.8761 1.2192 0.53265 2.5424 1.0073 3.9191 1.273 1.6972 0.37074 3.3408 0.52813 4.9308 0.58293-1.0606 0.74468-2.0678 1.6435-2.9164 2.7043-2.8586 3.391-8.6882 7.3136-10.863 8.7952-1.1657 0.84859 5.1954 4.348 11.869 5.3005-4.7678 2.4921-10.015 4.2942-16.159 5.0347-19.768 2.4385-29.412-5.9369-30.473-8.7954 4.3436-0.84859 16.747-2.8629 31.317-10.019zm-8.0549 24.748c2.176-0.74147 4.7186-1.9062 7.6351-3.3911 6.4114-0.89886 12.133-3.7617 17.378-7.4185 0.84873 0.10829 1.6437 0.10829 2.4923 0.05349-2.3304 2.6508-4.8761 5.4054-7.4185 7.9468-4.6641 3.075-10.493 6.2037-17.171 8.3219-6.6772 2.1214-11.5 2.4921-17.275 2.3336-2.4386-0.05363-7.7926-2.6004-9.1705-4.1358 3.3911 0 15.261-0.89886 23.529-3.7103zm11.979 6.0406c5.2468-3.2828 12.773-11.338 17.858-17.749 0.84858-0.10828 3.2871-0.69119 4.2932-1.0073-0.36958 0.74045-0.69003 1.1658-1.0608 1.9596-1.905 4.4519-5.2457 8.2672-6.7821 10.494-1.111 1.7474 8.4257 3.6568 18.44-0.90338 0.37394-0.15738 0.69104-0.21203 1.5396-0.74031-0.21203 1.3232-0.37059 2.5426-0.79496 3.869-5.7247 6.1994-12.507 12.082-19.08 15.791-15.528 8.9035-34.234 7.8416-43.138 1.7508 6.3611-1.964 18.498-6.9977 28.725-13.464zm25.912 5.7247c2.1215-1.8547 4.6639-4.2932 6.7318-6.5197-0.6364 2.6004-2.1182 4.9843-2.8082 6.5743-0.58278 1.2193 1.6972 1.273 4.5556 0.74031-0.7403 1.6437-1.8514 4.0275-2.4878 5.3004-2.759 3.3911-5.143 6.6236-8.1097 9.166-6.465 5.5672-8.9571 9.0119-17.699 12.615-4.3983 1.7475-10.019 1.3779-14.679 1.3779 3.2326-1.2193 11.762-5.9883 15.153-8.9047 7.3682-6.465 13.884-13.671 19.342-20.35zm10.868 0.32046c3.1242-0.79831 6.1457-1.9094 8.0549-3.2862 1.8513-1.3275 3.4414-2.8629 4.8225-4.6103 0 0.68667 0 1.3767 0.04926 2.0132 0.16292 2.5424-1.5889 8.5296-2.0133 9.7489-0.42421 1.1154 1.7508 1.1154 4.9846-0.10391-2.5469 5.5628-4.9846 9.9106-7.2109 12.981-3.9729 5.5125-8.849 10.442-15.527 13.355-5.7214 2.4375-14.201 3.075-15.844 1.8557 2.8094-3.2324 11.234-10.335 18.495-23.266 1.0061-1.8022 2.7579-5.3508 4.1894-8.6881zm14.678 10.015c0.79524-1.7475 2.0637-4.6093 3.0205-6.9943 2.2767-1.006 4.3446-2.175 6.1457-4.0275 0.32045-0.26567 1.2728-0.58613 1.5396-0.90207-1.1689 3.6032-2.5468 9.4864-4.1905 13.992-3.6568 10.173-8.8993 13.885-11.92 15.844 1.5354-3.9739 2.5414-7.0479 3.39-10.918 0.37073-1.5354 1.4315-4.1314 2.0143-6.9942zm73.768-28.405c-0.4777 4.664-2.1717 8.372-2.7042 7.1024-0.31609-0.79817-1.111-2.3882-2.3304-4.1357 0.37073 3.6032 0.52929 7.4185 0.47463 11.234-0.1039 3.5529-0.52812 7.0479 0.05466 10.176 0.7403 3.8154 3.074 8.0013 5.9367 11.13 0.79495-3.075 1.0574-6.7317 3.3363-11.449 0.69106-1.4818 1.8021-3.2839 2.1226-5.7214-2.8629-2.7043-5.5125-9.3825-6.0418-13.992-0.16176-1.4818-0.5325-2.9668-0.84859-4.3447zm-37.15 3.87c-0.84858 0.89886-1.5899 1.905-2.3302 3.0707-0.6912 1.0608-2.0144-1.906-2.4923-6.1457-0.63639 1.8557-1.3232 3.869-2.0143 6.1457-1.4303 5.0882-3.3407 9.9108-5.354 11.82 1.5932 8.9037 3.7651 11.816 5.8832 17.487 1.6972-1.1144 3.4982-6.6236 4.5054-12.719 0.58277-3.9236 0.79496-10.917 1.9596-14.732-0.31609-2.2265-0.15754-3.4993-0.15754-4.9264zm-2.2265-16.801c-1.3231 1.694-5.2467 4.8225-7.3639 6.5701-3.075 2.596-5.6208 2.8629-7.156 5.8833 0.05362 5.1418 2.2789 12.877 2.8082 18.019 3.6032-2.1717 4.2932-8.5874 6.6772-14.575 0.95352-2.3304 1.8021-4.2932 2.5971-5.8833 0.79393-6.7275 2.4375-10.015 2.4375-10.015zm12.137 2.5962c-0.58292 3.1253-1.5901 5.3014-4.4529 8.5842-1.5353 1.7508-2.8082 2.7579-4.0275 4.0812 0 0.74468-0.05349 2.1214 0 3.0749 0.26684 5.7247 1.9061 8.4246 2.4923 13.406 3.1788-2.4341 4.1861-6.7285 7.4185-13.988 0.37075-0.79496 0.68668-1.485 0.95351-2.2265-1.252-3.8943-2.8092-8.8075-2.3838-12.931zm19.13 9.9106c-3.6032-4.0275-5.1932-6.465-6.1501-9.9643 0 3.2324-0.36957 4.1358-1.8011 8.429-0.37075 1.1657-0.95249 2.596-1.4314 4.1313 0.32031 1.2193 0.90323 2.4386 1.1689 3.8154 0.95365 6.254 3.179 11.234 5.775 12.824 0.37073-3.9191 3.87-9.3782 4.0822-15.316 0.05362-0.63203 0.05362-1.2182 0.1039-1.8011-0.52813-0.6364-1.0574-1.3767-1.7474-2.1182zm13.406-5.4042c-3.6536-2.3336-6.1456-4.9844-6.1456-4.9844s0.95233 3.1287 0.89871 7.2601c0.90324 2.3346 2.2801 4.8225 2.8629 7.6854 0.90221 4.7176 2.4376 10.122 5.0336 12.402 1.0618-4.7174 3.4993-11.129 3.7114-14.363-2.0132-2.8082-4.7678-6.9931-6.3611-8.0003zm-30.893-63.438c-0.21219-2.596 1.906-3.0203 1.7474-4.8728-0.26567-3.7651-5.5125-4.9832-7.6307-6.5733-2.0667-1.4816-5.2457-3.2871-6.3065-7.3146-1.906-0.74031-3.075-2.2254-3.4458-4.4474-0.26246-1.6437 0.32045-3.075 0.63654-3.9773-0.79394-0.79496-1.6425-1.5354-2.8618-2.0143-3.7617-1.3232-5.6711-1.2686-8.0551-0.6364-1.4314 0.37394-5.4053 2.2263-6.0921 3.4993 1.9596-0.1039 6.7286-0.26683 8.7417 0.52813 5.1932 2.0143 4.6104 8.9037 8.6378 11.87 1.964 1.3811 6.4115 2.759 9.4318 5.833 4.5602 4.7142 3.1287 11.446 2.4923 11.817-0.63654 0.42421-5.0883-1.6437-10.384-1.3232-3.3955 0.15739-7.5804 1.3767-9.0119 5.8789 1.3812-0.37074 5.8286-2.596 8.429-2.8082 6.7821-0.47464 10.755 2.97 13.459 2.596 2.2767-0.3161 3.3375-1.7474 2.5972-3.6032-0.74146-1.8011-2.1728-1.5354-2.385-4.4519zm8.6915 64.973c2.2767-7.0478 2.385-14.254 2.385-14.254s1.8546 10.543 6.3031 15.262c1.964 2.1214 4.7176 5.4042 5.833 7.1561 1.1645-1.9104 1.5889-9.3825 0.26246-15.266-0.68682-2.3304-2.9133-6.2528-3.7619-7.5761 1.694 1.9596 5.7257 7.3639 9.6985 9.4318 3.495 1.8021 7.365 8.5339 8.85 11.022 0.21218-0.58278 0.31608-1.4314 0.31608-2.3838v-0.63641c-0.05043-4.1325-1.5889-10.332-3.5485-12.824-3.5497-4.3971-7.5269-7.1014-10.123-9.2196-1.8021-1.4315-3.7617-3.4994-4.5064-5.0883-1.1647-2.7044-2.2221-5.6176-1.5889-9.9109 1.4313 1.6972 2.7043 2.0679 4.9842 1.273 1.4302-0.47785 2.4878-1.7475 3.0705-2.7043-3.9738-0.7403-5.0345-1.5354-6.4659-3.3911-1.9596-2.4921-1.6928-5.8833-1.6928-9.061 0.7938 1.2182 1.6928 1.1647 2.5414 1.1142-0.63655-1.5396-2.6999-4.6135-1.9596-11.13 0.26683-2.5458 0.52929-4.5054 0.52929-7.1561-2.5551-2.5162-4.5734-5.8461-5.459-9.328-0.3534-1.9187-0.60813-3.3546-0.63115-3.485 0.61731 2.9274 2.404 7.1683 4.883 9.8017 1.8682 1.9846 4.11 3.0934 6.2993 2.6782 0.9949-0.18872 1.9792-0.69236 2.9124-1.5718 1.0564-1.0071 1.111-2.9165 1.6928-3.658-2.117-0.90207-5.2455 1.2193-7.2063-0.6364-1.7474-1.6972-2.9656-6.2528-4.4518-9.644-0.47785-1.1657-1.485-2.2799-3.0204-3.4993-3.2266-1.9586-6.3754-3.8244-9.7521-5.5093-4.1861-1.9628-7.4187-2.97-11.496-3.8688-1.1144 0-3.1287 0-4.0275 0.26246-1.7508 0.58613-3.7114 1.6435-3.6065 4.6135 0.05364 3.0707 2.758 3.179 5.0882 2.9669 3.2326-0.32046 5.0883-0.63655 7.3148 0.42422 2.8618 1.3779 3.3363 2.9668 4.081 6.254-1.3275-2.385-2.4921-3.658-3.9235-4.5066 0.52811 0.47901 1.5899 5.3508-2.7547 4.1358-1.9628-0.5325-2.97-2.4386-3.2861-4.0812-0.31711 0.049257-0.52929 0-0.89886 0.049257-0.95687 0.21218-1.5398 0.32046-2.2801 0.16293 0.89886 2.4878 3.1243 4.7142 5.1386 5.8286 2.9165 1.5353 7.0479 2.8629 8.2168 6.7285 1.7475 5.4579-3.3407 5.1954-0.32031 8.1087 2.6507 2.4921 1.6972 7.951-1.3768 8.2671-0.74133 0.05362-2.28-0.3161-3.391-0.63641 0.10376 3.4446-0.10827 6.6771-0.37073 8.6379-0.90221 6.045-4.1894 10.122-5.5125 12.032 0.95248 0 1.6972 0 2.9165-1.1657-0.42437 1.6938-1.5398 5.4053-3.6077 8.6378-4.0766 6.4662-6.8356 8.2672-13.351 12.878-7.8975 5.6711-7.5268 13.355-6.9439 16.534 2.4921-3.0751 6.1489-4.9843 9.54-7.1561 5.0882-3.2336 9.6986-9.6986 9.6986-9.6986s-3.075 6.8904-3.6568 10.601c-0.58292 3.7617-1.5398 10.123-0.58292 12.931 2.2253-2.9701 5.3506-6.2026 8.371-9.4362 4.0812-4.3971 6.3611-13.722 6.3611-13.722s-0.58612 10.069 0.31711 14.572c0.79394 3.7649 1.9094 8.1622 3.8154 10.176 1.6373-3.39 2.8551-6.8194 4.1348-10.335zm-15.156-84.366c0.21219 1.0071 0.74031 2.596 2.1718 3.0705 1.6436 0.58292 2.596-1.1645 2.1717-2.8081-1.2193-0.58292-2.1717-0.58292-4.3435-0.26246zm25.754-4.6137c1.5353 0.16176 2.2799-1.0576 3.2336-2.5972 0.79393-1.2684 2.7533-2.1718 3.5484-2.5414 1.485-0.74147 2.0679-2.1226 3.075-3.075 1.006-0.89886 1.1142-1.4818 2.3838-2.2253 1.1647-0.63757 3.3409-0.89901 4.6104-1.0576-0.10506-1.0071-2.3304-3.1285-4.3446-2.8629-2.1215 0.31711-3.7104 3.2829-3.7104 3.2829s-0.84538-2.1718-3.4456-2.4878c-1.006-0.21218-3.1242 0.79496-4.0275 1.0071-0.21203 1.2192 0.79511 2.4878 1.3276 3.7071 0.79495 1.5396 3.3362 1.2193 3.3362 1.2193s-2.2754 1.485-3.9726 1.3264c-1.111-0.053628-1.6972-0.10726-2.1718-1.1144-0.26684-0.6364-0.5325-2.2767-0.5325-2.2767s-1.0071-0.053482-2.7011 0.15856c-1.8011 0.21218-3.3407-0.15856-4.0275-2.0678-0.69002-1.7476 0.31726-4.98 0.31726-4.98s0.79379 2.2756 2.8081 3.6568c1.0608 0.68668 2.8618 0.42422 4.5054-0.053629 0-1.3276-0.10814-1.8021-1.0606-3.391-1.0071-1.6437-3.3365-1.3276-4.8761-0.63655 0.5325-2.1717 1.3811-4.4518 0.47785-7.1561-2.1718 0.69003-3.3363 2.7579-4.4518 5.0883-0.42437-0.95366-1.0061-2.2265-1.8547-2.5962-2.2768-0.95351-3.9203-0.42422-5.2971 0.42436 0.899 2.0679 1.1647 3.4982 2.4879 4.2932 2.0679 1.2193 4.8761-0.47785 4.8761-0.47785s-1.0608 2.6497-2.8082 3.5485c-2.5962 1.2728-4.7176 0-5.7247-1.5889-0.52827-0.89886-0.7951-1.694-1.1647-3.0204-0.95351 0.6364-1.4314 0.90222-3.075 0.79394-2.2756-0.1039-2.6999-3.7071-2.6999-3.7071s1.0608 1.4818 2.9121 0.79496c1.8011-0.6364 3.6568-1.8021 3.6568-1.8021s-1.9596-1.9094-3.869-2.5962c-1.9596-0.68989-3.3375-0.053482-3.3375-0.053482s0.26683-2.9165-0.95235-4.5066c-0.84858-1.0606-3.2872-1.3231-4.8226-1.006 0.26246 0.84858 2.1182 2.1717 2.6508 3.5529 0.52813 1.1645 1.4818 2.596 1.1645 5.0838-0.31929 2.7591 0.10508 3.075 0.47465 5.1966 0.37393 2.0635-1.3232 4.502 0.6364 5.8296-2.7546 0.58175-1.9048 3.3911-0.36957 3.9193 3.0739 1.0071 6.8894 1.1143 12.876 3.9727 5.9872 2.8126 8.4793 4.5066 10.44 5.8833 2.0667 1.4851 3.8153-1.7474 3.4982-2.8617zm-34.766 18.814c2.4923 0.69003 5.4088 1.6972 8.0048 3.8154 0.68668 0.58175 2.4878 1.9596 3.9193 3.179 0.10828-0.37074 0.32031-0.89886 0.32031-1.5901-1.1645-1.8514-2.1214-2.8082-2.9165-3.7071-1.5889-1.6435-3.9739-3.1833-5.4042-3.8154-1.4314-0.69105-4.4517-1.485-8.0014-1.3276-3.1285 0.10828-6.1489 0.15855-6.1489 0.15855s0.84859-1.427 1.8557-2.4341c0.95249-0.90338 2.4375-2.0679 2.4375-2.0679s-2.0131 0.1039-2.8082 0.31594c-1.3767 0.37074-1.6972 1.1154-3.391 1.274-2.6508 0.21218-6.2528-0.26669-9.4864-4.0274-1.273-1.4315-3.2326-4.7187-3.2326-4.7187s0.37074 4.2397 2.7546 8.6915c1.9094 3.5529 4.98 4.6105 10.068 5.2469 4.7186 0.58277 8.5339 0.053629 12.029 1.0071zm32.062 96.343c-0.05042 0.90324-2.9668-1.2686-4.6596-3.7607-0.21218 2.7546-0.6912 4.9264-1.1154 7.5224 0.9535 3.9771 4.3478 9.3825 6.9439 11.608 0.58293-3.075 1.0576-8.745 1.8525-11.712-0.89886-8.9035-0.15854-9.166-0.42101-13.885-0.7983 2.6507-2.6004 7.1024-2.6004 10.227zm-19.767-5.1386c-2.4878 3.4458-5.6174 6.3579-5.775 5.5628-0.15856-0.84859-1.2192-6.6236-1.7475-9.9096-0.69104 5.0336-0.79495 8.0551-1.3779 11.978 0.95366 2.9668 3.1253 10.281 4.4519 13.514 2.9131-3.0204 5.1384-6.9975 5.775-11.446-0.84858-2.6004-1.2183-7.739-1.3266-9.6986zm12.136-5.0882c-0.68683-2.384-1.0564-4.9298-1.5354-7.4187-0.6364 1.8557-1.1647 3.658-1.5353 4.7144-0.32046 1.0606-2.4923-1.1647-4.2934-4.6093-0.53248 1.6424-0.84858 2.5458-1.4313 4.1346-0.90324 2.385-1.2193 3.6032-2.1215 5.7214 0 2.8629 0.10725 7.5804 1.2183 10.759 1.8557 4.9262 3.9236 7.9466 5.355 12.507 2.2265-2.8629 3.4446-6.0954 4.9264-12.772 0.42436-2.0678 0.95686-6.6246 1.169-8.5842-0.8486-1.3767-1.3812-2.9165-1.7518-4.4518zm-17.966 28.459c-0.7403-2.8629-2.2756-7.5804-3.8153-11.342-0.79394 2.7042-1.7475 6.6781-2.8082 8.4792 0.63654 3.1253 1.1657 6.1992 1.8557 8.0551 1.4315 3.8154 3.5497 8.3207 3.9236 11.288 3.1789-3.9226 5.0347-9.8562 5.6164-12.931 0.42436-2.2799 0.10506-4.8225 0.42436-7.4722-1.4851 2.1718-4.8215 5.2469-5.1966 3.9236zm29.574-10.864c-0.90207 2.8094-1.6972 7.5771-1.8546 10.016-0.05478 1.3767-3.9739-1.7486-5.7761-4.981-0.31929 4.4518 0.10508 9.0086 1.0071 12.029 0.89886 3.0203 3.7071 8.4793 5.2468 9.9643 0.84524-3.6065 2.596-9.4362 4.0275-12.295 1.5353-3.075 1.5889-4.6639 2.3837-7.0479-1.2192-1.1154-4.3477-4.876-5.0345-7.6854zm-28.567 28.722c0.37409 6.3076 3.4994 9.8059 3.9236 15.103 2.2254-1.9596 3.6033-5.0347 4.8761-8.9037 0.6364-1.9596 1.0608-8.1588 0.89886-10.756-2.0635-3.8154-3.9739-7.95-4.2898-12.614-0.32046 4.5054-1.3266 10.759-5.4088 17.171zm17.383-2.3302c0.05465 3.6032 0.79496 12.399 5.8296 16.426 0.42437-3.2326 0.63656-5.0883 1.5386-7.7882 1.2696-3.7651 1.2193-7.049 1.2193-7.049-2.5458-3.2861-5.5125-7.0479-5.7247-10.601-0.52813 4.2397-1.3767 6.3611-2.8629 9.0119zm0.5325-26.553c-1.9628 6.9987-4.2396 11.342-5.566 11.238-0.68683 0-2.8629-6.0418-5.3508-12.032-0.26683 1.4302-0.47886 2.8616-0.84961 3.9223 0.15856 6.4662 0.52929 10.759 2.0679 14.625 1.2192 3.075 4.0778 7.6307 5.5092 10.655 2.7043-2.7043 4.7722-10.389 5.5672-16.696-0.15855-2.9668-0.05465-5.6176 0.36972-8.3722-0.32046-0.7403-1.4851-2.7043-1.7476-3.3409zm85.743-52.994c5.4042-1.5354 10.759-6.1995 11.184-8.1591-2.0143 0-7.049-1.485-10.706-3.3407-3.2871-1.6938-8.2135-4.1861-12.241-4.1314 2.9131-0.79496 6.6738-0.26683 10.281 1.111 1.1647-0.58278 2.4343-1.3231 3.7072-2.2767 4.2396-3.0202 7.4185-6.9439 7.8975-9.9643-2.863-0.26581-7.5772-1.8011-11.234-2.2801-3.8154-0.52813-7.4229 0.05362-12.507 2.1762v-0.05465c3.2326-2.2801 5.67-3.3407 8.5285-3.6568 1.1154-1.0072 2.0679-2.0679 2.8629-2.8629 4.56-4.8761 5.7794-9.2732 6.1993-11.446-2.596 0.95351-7.0982 1.111-10.28 1.6435-4.769 0.74147-8.85 3.6578-12.504 6.1457 0 0 5.1932-7.3639 17.117-8.4793 5.8285-10.701 9.9611-20.084 4.8225-33.652-2.9711-8.0004-10.335-12.611-14.259-13.563 2.4385 6.7275 2.9165 12.768-0.58292 18.547-1.4314 2.384-4.29 6.9943-4.9264 10.015-1.4314 6.466 5.775 13.726-2.0679 22.364 0 0 2.2801-5.0883 2.1182-8.3722-1.111 1.0071-1.9596 1.6403-3.2292 2.5426-3.3943 2.4921-5.354 3.1253-9.1693 5.3506-5.1428 3.0214-8.0549 8.1097-7.8427 12.349 0.31594 6.8358 9.2742 6.6772 12.186 7.6843 1.6972 0.58292 4.4015 1.1647 4.0822 4.7186-0.10506 0.84422-2.6508 2.9121-3.9739 3.9729-2.0144 1.6435-4.2934 4.1314-4.6104 5.7247-0.69003 3.6033 3.1253 4.769 5.5629 8.3175 1.6982 2.4386 0.47888 6.5745-2.0679 6.5745-1.6928 0-4.6093-0.16293-6.3567 0.0491-2.385 0.32047-4.8225 1.5398-8.4793 3.658-2.2266 1.3264-3.3913 3.0739-5.1934 4.0276-2.1215 1.1142-4.2397 1.0606-7.7926 0.21203-0.86986-0.19003-2.0042-0.79641-3.2091-1.4892 2.7594 7.0476 1.0443 15.644 0.18872 15.003-0.1039-0.10493-0.52813-0.52915-0.63321-0.68668-0.07416 0.5099-0.15898 1.02-0.26478 1.5358 2.0749 3.9016 4.2817 7.3757 6.0398 9.1153 4.2944 4.1313 8.0551 5.1921 11.13 5.6164-0.79496-3.3409-1.5398-5.9872-1.5398-8.0551 0-4.1346-0.89901-9.856-2.0635-13.409 1.7474 2.9164 3.1789 6.8892 3.6033 10.123 1.0574 0.79394 2.4878 1.8547 4.5557 3.2861 3.2872 2.3304 8.6915 4.664 12.824 4.1861-1.6938-3.179-2.4341-5.8833-3.4414-10.173-1.3274-5.566-2.6004-8.4793-5.3003-11.766 2.8618 1.8557 5.0335 3.1253 6.5196 8.534 0.42 0.15855 0.79394 0.26246 1.0564 0.37073 5.0883 2.2253 15.157 2.5414 16.801 1.6425-2.2801-2.0133-4.6104-4.6641-6.1993-7.4722-2.0143-3.6033-3.1285-8.0048-5.8296-10.759 2.1718 1.0072 4.0778 3.0204 5.7213 5.6711 0.84858 0.15856 1.6972 0.3161 2.596 0.47465 7.2601 1.3264 15.265-1.5354 17.754-3.3375-3.0707-1.6972-6.5165-3.6032-9.3782-6.9943-3.075-3.7104-6.8358-5.354-11.658-7.8417 0 0 4.1313 0.74031 8.4257 2.8585 2.0669-0.37073 4.0812-0.84538 5.775-1.3779zm-54.105 36.622c0.52812 3.3375 1.3231 10.494 1.8011 13.302 0.37059 2.2767 1.8009 6.1454 2.2265 7.8974-6.2764-2.8983-9.174-8.748-10.423-15.16 0.31856-2.435 0.97565-6.349 2.6288-11.497 0.00467-0.01458 0.00947-0.02915 0.01399-0.04372l3.7522 5.5014zm-131.27-36.622c-5.4054-1.5354-10.972-5.9873-11.446-7.9469 2.0635 0 7.3102-1.6972 10.967-3.5529 3.2872-1.6938 8.2136-4.1861 12.241-4.1314-2.9668-0.79496-6.674-0.26683-10.282 1.111-1.1645-0.58278-2.4341-1.3231-3.7071-2.2767-4.2397-3.0202-7.4722-6.7319-7.8965-9.7521 2.863-0.26581 7.576-2.0132 11.234-2.4923 3.8153-0.52813 7.3682 0.05362 12.507 2.1762v-0.05465c-3.2326-2.2801-5.7215-3.3407-8.5297-3.6568-1.1153-1.0072-2.0678-2.0679-2.8629-2.8629-4.5589-4.8761-6.2528-9.5357-6.677-11.658 2.596 0.90323 7.5759 1.3232 10.759 1.8557 4.7144 0.74147 8.849 3.6578 12.502 6.1457 0 0-5.4545-7.9468-17.379-9.0622-5.7794-10.705-8.7996-19.713-3.7115-33.281 3.0204-7.9468 10.651-13.302 14.575-14.201-2.4386 6.6782-2.2801 14.097 1.2193 19.872 1.4806 2.384 3.6568 7.6843 4.29 10.706 1.3799 6.465-6.9408 12.56 0.90207 21.198 0 0-2.1182-5.775-1.9092-9.0622 1.0606 1.0071 1.9092 1.5354 3.1822 2.4386 3.391 2.4911 5.4053 3.2324 9.2208 5.4579 5.1384 3.0214 9.0074 8.7964 8.7952 13.036-0.31595 6.8358-10.281 7.2065-13.194 8.1622-1.6972 0.58292-3.1287 0.68682-2.8082 4.2407 0.10391 0.84422 1.8011 2.2254 3.0707 3.2829 2.0679 1.6425 5.1964 4.9844 5.5125 6.5733 0.69003 3.6569-3.7071 4.6105-6.1457 8.159-1.6972 2.4386-0.6364 6.3076 1.906 6.3076 1.6972 0 3.9236-0.37074 5.6711-0.21218 2.384 0.31608 4.8226 0.79495 8.4794 2.9165 2.2254 1.3232 3.3911 3.391 5.1386 4.29 2.1762 1.1154 4.2934 2.0678 7.8462 1.2192 1.6153-0.35281 4.1432-2.1386 6.3288-3.2534-2.3674 5.3412-1.2553 11.209-0.3072 13.394-2.5838 5.4643-5.7946 10.985-8.1967 13.337-4.2396 4.1313-8.0549 5.6711-11.076 6.0406 0.74468-3.3407 1.5396-6.4114 1.5396-8.4793 0-4.1346 0.89902-9.856 2.0637-13.409-1.7476 2.9164-3.1791 6.8892-3.6033 10.123-1.0564 0.79394-2.4879 1.8547-4.5558 3.2861-3.2871 2.3304-8.9035 4.9264-13.035 4.3983 1.6393-3.179 2.6464-6.0954 3.6536-10.385 1.3264-5.566 2.5992-8.4793 5.3003-11.766-2.8629 1.8557-5.0883 3.1253-6.5196 8.534-0.42102 0.15855-0.79496 0.26246-1.0574 0.37073-5.0883 2.2253-15.156 2.7534-16.8 1.8546 2.2801-1.9628 3.9226-5.354 5.5127-8.1622 2.0131-3.6032 3.8153-7.5268 6.5153-10.281-2.1718 1.0072-4.0778 3.0204-5.7203 5.6711-0.84859 0.15856-1.6983 0.3161-2.5972 0.47465-7.26 1.3264-14.84-1.0576-17.328-2.8585 3.1242-1.6973 5.4042-4.0822 8.2124-7.4733 3.1253-3.7104 7.5771-5.354 12.4-7.8417 0 0-4.1861 0.74031-8.4256 2.8585-2.0679-0.37073-4.0812-0.84538-5.775-1.3779zm62.094 36.817c0.03308 8.0796-1.6785 16.238-11.059 20.471 0.84422-2.4385 2.1182-5.088 2.4878-7.3648 0.6364-3.7651 0.95686-9.5937 1.2193-13.464l5.5823-8.3049c0.36156 3.2801 1.0975 6.1491 1.7699 8.6619z" fill="#ffc900"/>
</svg>
