<?xml version="1.0" encoding="UTF-8"?>
<svg width="744.09" height="465.1" clip-rule="evenodd" fill-rule="evenodd" image-rendering="optimizeQuality" shape-rendering="geometricPrecision" text-rendering="geometricPrecision" version="1.0" viewBox="0 0 210 297" xml:space="preserve" xmlns="http://www.w3.org/2000/svg" xmlns:cc="http://web.resource.org/cc/" xmlns:dc="http://purl.org/dc/elements/1.1/" xmlns:rdf="http://www.w3.org/1999/02/22-rdf-syntax-ns#"><metadata><rdf:RDF><cc:Work rdf:about=""><dc:format>image/svg+xml</dc:format><dc:type rdf:resource="http://purl.org/dc/dcmitype/StillImage"/></cc:Work></rdf:RDF></metadata>
 <defs>
  <style type="text/css">
   
    .str0 {stroke:#1F1A17;stroke-width:0.1764}
    .str2 {stroke:#1F1A17;stroke-width:0.3528}
    .str1 {stroke:#8F5444;stroke-width:0.3528}
    .str3 {stroke:#1F1A17;stroke-width:0.5292}
    .fil5 {fill:none}
    .fil8 {fill:#1F1A17}
    .fil1 {fill:#F8C300}
    .fil3 {fill:#FFFCC8}
    .fil2 {fill:white}
    .fil9 {fill:black}
    .fil4 {fill:#787878}
    .fil0 {fill:#CC2832}
    .fil7 {fill:white}
    .fil6 {fill:black;fill-rule:nonzero}
   
  </style>
 </defs>
 <g transform="matrix(2.2624 0 0 2.2624 -132.58 -187.43)">
  
  
   <rect class="fil0" x="70" y="82.875" width="70" height="131.25" fill="#cc2832"/>
   <rect class="fil1" y="82.875" width="70" height="131.25" fill="#f8c300"/>
   
    <path class="fil2 str0" d="m103.04 131.62c-1.4237 2.311-3.3028 3.0901-4.6816 3.695-0.3646 0.16-0.2837 0.0079-0.4864 0.184-0.7288 0.6331-1.5973 1.4464-2.4377 2.302-0.2104 0.2142-0.1059 0.3416-0.3102 0.5589-0.4979 0.5298-1.0882 1.0736-1.5635 1.6199-0.5432 0.6243-0.9832 1.3915-1.1853 2.2892-1.4064 6.2481 0.1113 15.728 0.1848 21.017l25.922-0.1561 0.2711-12.5c0.0926-4.2653-0.8371-10.089-4.3763-13.007-0.356-0.2935-0.7152-0.5816-1.1124-0.8165-1.9598-1.1589-5.5293-2.9957-5.3795-5.4658l-4.8454 0.2802z" fill="#fff" stroke="#1f1a17" stroke-width=".1764"/>
    <path class="fil3 str0" d="m117.36 152.47c-0.2834 0.6955-0.2834 2.1109-1.2107 2.1109-1.1269 0-0.9818-1.3149-0.5914-2.2862 0.2343-0.5827 0.6131-0.8736 0.7015-1.1532 0.3187-1.0071 0.0313-2.3311 0.3474-3.3576 0.0571-0.1853 0.3713-0.9532 0.5279-1.0867 0.178-0.1516 0.5324-0.2698 0.5221-0.0673l-0.2968 5.8401z" fill="#fffcc8" stroke="#1f1a17" stroke-width=".1764"/>
    <polygon class="fil1 str0" points="125.64 126.43 126.58 126.74 119.21 149.42 118.33 148.95" fill="#f8c300" stroke="#1f1a17" stroke-width=".1764"/>
    <path class="fil1 str0" d="m125.87 126.19c0.0656-1.1675 0.0057-2.3755-0.1438-3.5489 1.0312-1.0443 1.8754-2.3018 2.7614-3.5438-0.1199 1.4727 0.0397 3.0775 0.1523 4.6314-0.9008 0.8712-1.6681 1.7116-2.1995 2.7075l-0.5704-0.2462z" fill="#f8c300" stroke="#1f1a17" stroke-width=".1764"/>
    <path class="fil1 str0" d="m126.46 126.02c0.4486 0.1633 0.6989 0.6139 0.5573 1.0031-0.1417 0.3892-0.6231 0.5735-1.0717 0.4102-0.4485-0.1633-0.6989-0.6139-0.5572-1.0031 0.1416-0.3892 0.6231-0.5734 1.0716-0.4102z" fill="#f8c300" stroke="#1f1a17" stroke-width=".1764"/>
    <polygon class="fil1 str0" points="117.11 124.58 118.09 124.55 119.53 165.72 118.54 165.76" fill="#f8c300" stroke="#1f1a17" stroke-width=".1764"/>
    <path class="fil1 str0" d="m121.15 125.39-0.7215-1.511c-0.2935-0.6147-0.2353-0.672-0.1311-1.3455l1.3569-8.7746 3.2928 0.3815-1.0422 7.9854c-0.1111 0.8515-0.1486 0.9679-0.651 1.6564l-1.3645 1.8704-0.7394-0.2626z" fill="#f8c300" stroke="#1f1a17" stroke-width=".1764"/>
    <polygon class="fil1 str0" points="115.31 160.62 121.03 124.38 123.03 115.22 122.13 124.95 116.91 160.97" fill="#f8c300" stroke="#1f1a17" stroke-width=".1764"/>
    <path class="fil1 str0" d="m85.707 123.49c0.1989 0 0.3833 0.0637 0.534 0.1717l3.2916-0.4041-0.4046-3.2954-2.0922 0.2569c-0.1678 0.2262-0.4367 0.3734-0.7389 0.3734-0.5065 0-0.9196-0.4131-0.9196-0.9195 0-0.5065 0.4131-0.9196 0.9196-0.9196 0.1852 0 0.3578 0.0552 0.5024 0.1501l2.166-0.266-0.4759-3.8762c-0.205-0.1689-0.336-0.4245-0.336-0.7098 0-0.5065 0.413-0.9196 0.9195-0.9196s0.9196 0.4131 0.9196 0.9196c0 0.2032-0.0666 0.3911-0.1789 0.5436l0.4764 3.8798 2.0774-0.2551c0.167-0.2334 0.4403-0.386 0.7481-0.386 0.5065 0 0.9196 0.4131 0.9196 0.9196s-0.4131 0.9196-0.9196 0.9196c-0.1788 0-0.3458-0.0517-0.4873-0.1406l-2.1756 0.2671 0.4047 3.2954 3.3201-0.4077c0.1633-0.2574 0.4509-0.4291 0.7773-0.4291 0.5064 0 0.9195 0.4131 0.9195 0.9196s-0.4131 0.9195-0.9195 0.9195c-0.1557 0-0.3026-0.039-0.4314-0.1078l-3.5034 0.4302 4.5603 37.141-1.3247 0.1627-4.5603-37.141-3.2711 0.4017c-0.1688 0.2101-0.4277 0.3452-0.7171 0.3452-0.5065 0-0.9196-0.4131-0.9196-0.9196 0-0.5064 0.4131-0.9195 0.9196-0.9195z" fill="#f8c300" stroke="#1f1a17" stroke-width=".1764"/>
    <path class="fil1 str0" d="m105.56 110.3c5.2373 0 9.5089 4.2715 9.5089 9.5088s-4.2716 9.5088-9.5089 9.5088-9.5088-4.2715-9.5088-9.5088 4.2715-9.5088 9.5088-9.5088z" fill="#f8c300" stroke="#1f1a17" stroke-width=".1764"/>
    <path class="fil4 str0" d="m102.99 124.84c-1.5767 0-1.3163 2.3546-1.3163 3.4334 0 0.9681-1.1433 1.45-1.1913 2.4169-0.1252 2.5179 3.1706 1.0319 4.5425 0.85 1.645-0.2182 3.1712 0.7827 4.4565 0.5893 1.2726-0.1914 1.1382-1.4597 0.6384-2.2883-0.5512-0.9139-0.7961-1.9392-0.8958-3.0033-0.1473-1.5718 0.0836-1.8401-1.7927-2.1575-1.4498-0.2452-3.0583-0.5596-4.4413 0.1595z" fill="#787878" stroke="#1f1a17" stroke-width=".1764"/>
    <path class="fil3 str0" d="m107.15 131.78-0.0244 1.6829c-1.1603 1.3677-2.3608 1.4103-3.6098-0.1463l0.0222-1.7494 3.612 0.2128z" fill="#fffcc8" stroke="#1f1a17" stroke-width=".1764"/>
    <path class="fil3 str0" d="m102.53 124.8c-0.9114 1.9902 0.0357 5.4446 0.8345 6.5479 0.7168 0.9899 1.7072 1.7107 2.9209 1.1555 1.7252-0.789 2.4091-4.1792 2.338-5.8649-0.0717-1.6996-0.1207-2.284-2.0465-2.284-0.8988 0-3.1803-0.0681-4.0469 0.4455z" fill="#fffcc8" stroke="#1f1a17" stroke-width=".1764"/>
    <path class="fil1 str0" d="m78.662 162.98c4.2383-0.304 7.7192 0.4119 14.449-2.0763 3.8993-1.4417 7.9199-3.8161 11.497-4.221 4.7642-0.5394 8.5533 2.2912 13.562 4.155 4.3759 1.6282 9.6787 2.4312 14.882 1.8909-1.5858 2.1348-2.5581 4.8302-3.9798 7.075-1.4127 2.2307-3.6408 4.8976-6.064 6.7254-3.3487 2.5259-8.3014 3.3741-12.241 4.7678-1.5754 0.5573-3.1629 0.9257-5.0694 1.1708-1.3796 0.1774-4.255-0.9981-5.6619-1.4238-2.9013-0.8777-5.5816-1.417-7.918-2.4639-4.3355-1.9427-7.6951-4.8309-10.453-9.6036-0.772-1.3358-1.4722-3.1283-3.0024-5.9963z" fill="#f8c300" stroke="#1f1a17" stroke-width=".1764"/>
    <path class="fil5 str1" d="m91.898 178.41c5.1929-0.1046 8.8798-3.9779 14.355-3.9779 1.5229 0 3.966 0.8632 5.8572 1.7578 2.8245 1.3362 5.7269 2.1855 7.521 2.1105" fill="none" stroke="#8f5444" stroke-width=".3528"/>
    <path class="fil5 str1" d="m84.579 173.03c3.5568 0.6217 7.8133 0.033 11.327-1.5394 3.7306-1.6694 7.1864-3.9628 9.8951-3.8616 3.7295 0.1393 6.1188 2.3919 9.6618 3.7008 4.7153 1.742 6.5861 1.9571 11.129 1.6236" fill="none" stroke="#8f5444" stroke-width=".3528"/>
    <path class="fil5 str1" d="m81.551 168.57c3.8036 1.128 9.1997-0.5813 14.152-2.4093 4.1345-1.5262 7.7316-3.8831 10.041-3.7667 4.4631 0.2251 12.329 6.8705 23.916 6.2409" fill="none" stroke="#8f5444" stroke-width=".3528"/>
    <path class="fil2 str0" d="m106.64 157.1 0.1535 24.655c-0.223 2.1604-2.0152 1.9363-2.1365-0.0642l0.1993-24.569c-0.1353-0.1827-0.2154-0.4083-0.2154-0.6521 0-0.6055 0.4939-1.0994 1.0993-1.0994 0.6055 0 1.0994 0.4939 1.0994 1.0994 0 0.2341-0.074 0.4515-0.1996 0.6302z" fill="#fff" stroke="#1f1a17" stroke-width=".1764"/>
    <path class="fil2 str0" d="m80.38 145.85c-0.165 0.6617-0.6292 1.1477-1.3099 1.1477 0.2369 0.8228 1.2363 0.6118 1.444-0.2688-0.292 1.4334 0.0175 1.5468 0.4435 1.9852 0.462-0.2529 0.5814-0.8536 0.4435-1.9645 0.2335 1.0067 0.9656 0.9818 1.2481 0.4033-0.4848-0.3206-1.0933-0.6825-1.0933-1.3029h-1.1759z" fill="#fff" stroke="#1f1a17" stroke-width=".1764"/>
    <path class="fil2 str0" d="m80.61 144.84c0.1942-2.0377-0.3283-3.3016-1.0689-5.0794-0.4514-1.0836-0.7077-2.0806-0.0092-2.9853 0.4309-0.5582 0.8887-0.9902 1.1141-1.776 0.1083-0.378 0.2757-0.4303 0.3878-0.4272 0.1989 0.0056 0.3067 0.3102 0.3514 0.4467 0.2568 0.7837 0.5642 1.0645 1.0708 1.7042 1.2007 1.5159-0.114 3.0625-0.6652 4.6151-0.1877 0.5285-0.3079 1.0399-0.3892 1.5631-0.1086 0.6996-0.1058 1.2579-0.0417 1.9614l-0.7499-0.0226z" fill="#fff" stroke="#1f1a17" stroke-width=".1764"/>
    <path class="fil2 str0" d="m84.855 144.59c0.0645 1.4976-1.4036 0.3681 0.0592-1.0749 0.3195-0.3152 0.7002-0.5351 0.9443-1.02 0.55-1.0921 0.3194-2.4817-0.6954-3.2991-0.5185-0.4175-1.1146-0.4217-1.8139 0.0669-1.777 1.2415-1.9976 3.4051-2.0226 5.297 0.0773-0.8998 0.5996-2.1096 1.2313-2.7671 1.2233-1.2733 2.2051-0.388 1.5319 1.2409-0.2182 0.528-0.5983 1.058-0.625 1.6234-0.044 0.9348 1.4528 1.6379 1.699 0.6252 0.0751-0.3085-0.096-0.6146-0.3088-0.6923z" fill="#fff" stroke="#1f1a17" stroke-width=".1764"/>
    <path class="fil5 str0" d="m81.96 141.93c0.5277-0.6758 0.9772-1.3279 1.8674-1.5804 1.4222-0.4034 1.6994 0.9572 0.9596 2.2224" fill="none" stroke="#1f1a17" stroke-width=".1764"/>
    <path class="fil2 str0" d="m77.101 144.59c-0.0645 1.4976 1.4036 0.3681-0.0592-1.0749-0.3195-0.3153-0.7002-0.5351-0.9443-1.02-0.55-1.0922-0.3194-2.4818 0.6954-3.2991 0.5185-0.4176 1.1146-0.4218 1.8139 0.0668 1.777 1.2416 1.9976 3.4052 2.0226 5.2971-0.0773-0.8999-0.5996-2.1097-1.2313-2.7672-1.2233-1.2732-2.2051-0.388-1.5319 1.241 0.2182 0.5279 0.5983 1.0579 0.6249 1.6233 0.0441 0.9349-1.4527 1.6379-1.6989 0.6253-0.0751-0.3086 0.096-0.6146 0.3088-0.6923z" fill="#fff" stroke="#1f1a17" stroke-width=".1764"/>
    <path class="fil5 str0" d="m79.997 141.93c-0.5277-0.6759-0.9772-1.328-1.8674-1.5805-1.4222-0.4034-1.6994 0.9572-0.9596 2.2224" fill="none" stroke="#1f1a17" stroke-width=".1764"/>
    <line class="fil5 str0" x1="80.986" x2="80.966" y1="138.3" y2="147.84" fill="none" stroke="#1f1a17" stroke-width=".1764"/>
    
     <path class="fil2" d="m80.202 144.75h1.496c0.132 0 0.2389 0.2775 0.2389 0.6232 0 0.3456-0.1069 0.6231-0.2389 0.6231h-1.496c-0.132 0-0.2388-0.2775-0.2388-0.6231 0-0.3457 0.1068-0.6232 0.2388-0.6232z" fill="#fff"/>
     <path class="fil6" d="m81.698 144.81h-1.496v-0.1278h1.496v0.1278zm0 0v-0.1278l0.0045 1e-4 0.0045 2e-4 0.0044 4e-4 0.0044 6e-4 0.0042 7e-4 0.0042 9e-4 0.0041 1e-3 4e-3 0.0011 4e-3 0.0013 0.0038 0.0014 0.0037 0.0016 0.0035 0.0016 0.0035 0.0018 0.0033 0.0019 0.0032 2e-3 0.0031 0.0021 0.0029 0.0023 0.0028 0.0023 0.0026 0.0024 0.0025 0.0025 0.0023 0.0026 0.0021 0.0027 2e-3 0.0027 0.0018 0.0029 0.0015 0.0029 0.0014 0.0029 0.0012 0.0031 1e-3 3e-3 8e-4 0.0032 5e-4 0.0032 4e-4 0.0032 1e-4 0.0033-1e-4 0.0033-4e-4 0.0032-5e-4 0.0032-8e-4 0.0032-1e-3 3e-3 -0.0012 0.0031-0.0014 0.0029-0.0015 0.0029-0.0018 0.0029-2e-3 0.0027-0.0021 0.0027-0.0023 0.0026-0.0025 0.0025-0.0026 0.0024-0.0028 0.0023-0.0029 0.0022-0.0031 0.0022-0.0032 2e-3 -0.0033 0.0019-0.0035 0.0018-0.0035 0.0016-0.0037 0.0016-0.0038 0.0014-4e-3 0.0013-4e-3 0.0011-0.0041 1e-3 -0.0042 9e-4 -0.0042 7e-4 -0.0044 6e-4 -0.0044 4e-4 -0.0045 2e-4 -0.0045 1e-4zm0.3272 0.5593h-0.1766l1e-4 -0.0315-9e-4 -0.0308-0.0016-0.0303-0.0021-0.0299-0.0026-0.0296-0.0032-0.0283-0.0035-0.028-0.0043-0.0276-0.0043-0.0266-0.0053-0.0256-0.0055-0.0251-0.0059-0.0243-0.0062-0.0232-0.0068-0.022-0.0071-0.0213-0.0073-0.0201-0.0075-0.0191-0.0081-0.0179-0.0079-0.0164-0.0084-0.0154-0.0083-0.0138-0.0083-0.0126-0.0082-0.0107-0.0082-0.0094-7e-3 -0.0077-0.0066-0.0054-0.0056-0.0042-0.0039-0.0024-0.0018-1e-3 1e-4 1e-4 0.0024 3e-4 0.0032 5e-4v-0.1278l0.0278 0.0021 0.0266 0.0051 0.0241 0.0079 0.0218 0.01 0.0191 0.0114 0.0172 0.0126 0.0156 0.014 0.0146 0.0147 0.013 0.0154 0.0124 0.0167 0.0117 0.0174 0.0111 0.0184 0.0104 0.0194 0.0101 0.0204 0.0093 0.0213 0.0089 0.0221 0.0087 0.0231 0.0079 0.0239 0.0074 0.025 7e-3 0.0256 0.0065 0.0263 0.0061 0.0271 0.0053 0.0282 0.0051 0.0286 0.0043 0.029 0.0041 0.03 0.0032 0.0309 0.0026 0.031 0.0021 0.0315 0.0016 0.0323 9e-4 0.0328 7e-4 0.0329zm-0.1766 0h0.1766l-1e-4 0.0033-4e-4 0.0032-5e-4 0.0032-8e-4 0.0032-1e-3 3e-3 -0.0012 0.0031-0.0014 0.0029-0.0015 0.0029-0.0018 0.0029-2e-3 0.0027-0.0021 0.0027-0.0023 0.0026-0.0025 0.0025-0.0026 0.0024-0.0028 0.0023-0.0029 0.0022-0.0031 0.0022-0.0032 2e-3 -0.0033 0.0019-0.0035 0.0018-0.0035 0.0016-0.0037 0.0016-0.0038 0.0014-4e-3 0.0013-4e-3 0.0011-0.0041 1e-3 -0.0042 9e-4 -0.0042 7e-4 -0.0044 6e-4 -0.0044 4e-4 -0.0045 2e-4 -0.0045 1e-4 -0.0045-1e-4 -0.0045-2e-4 -0.0044-4e-4 -0.0044-6e-4 -0.0042-7e-4 -0.0042-9e-4 -0.0041-1e-3 -4e-3 -0.0011-4e-3 -0.0013-0.0038-0.0014-0.0037-0.0016-0.0035-0.0016-0.0035-0.0018-0.0033-0.0019-0.0032-2e-3 -0.0031-0.0022-0.0029-0.0022-0.0028-0.0023-0.0026-0.0024-0.0025-0.0025-0.0023-0.0026-0.0021-0.0027-2e-3 -0.0027-0.0018-0.0029-0.0015-0.0029-0.0014-0.0029-0.0012-0.0031-1e-3 -3e-3 -8e-4 -0.0032-5e-4 -0.0032-4e-4 -0.0032-1e-4 -0.0033zm-0.1506 0.687v-0.1278l-0.0032 5e-4 -0.0024 3e-4 -1e-4 1e-4 0.0018-1e-3 0.0039-0.0024 0.0056-0.0042 0.0066-0.0054 7e-3 -0.0077 0.0082-0.0094 0.0082-0.0107 0.0083-0.0126 0.0083-0.0138 0.0084-0.0154 0.0079-0.0164 0.0081-0.0179 0.0075-0.0191 0.0073-0.0203 0.0071-0.021 0.0068-0.0221 0.0062-0.0232 0.0059-0.0242 0.0055-0.0251 0.0053-0.0256 0.0043-0.0266 0.0043-0.0274 0.0035-0.0283 0.0032-0.0283 0.0026-0.0295 0.0021-0.03 0.0016-0.0302 9e-4 -0.0308-1e-4 -0.0315h0.1766l-7e-4 0.0329-9e-4 0.0328-0.0016 0.0322-0.0021 0.0316-0.0026 0.0309-0.0032 0.0309-0.0041 0.0297-0.0043 0.0294-0.0051 0.0286-0.0053 0.0282-0.0061 0.0271-0.0065 0.0262-7e-3 0.0256-0.0074 0.0251-0.0079 0.024-0.0087 0.0229-0.0089 0.0221-0.0093 0.0213-0.0101 0.0204-0.0104 0.0194-0.0111 0.0184-0.0117 0.0174-0.0124 0.0167-0.013 0.0154-0.0146 0.0147-0.0156 0.014-0.0172 0.0126-0.0191 0.0114-0.0218 0.01-0.0241 0.0079-0.0266 0.0051-0.0278 0.0021zm0-0.1278v0.1278l-0.0045-1e-4 -0.0045-2e-4 -0.0044-4e-4 -0.0044-6e-4 -0.0042-7e-4 -0.0042-9e-4 -0.0041-1e-3 -4e-3 -0.0011-4e-3 -0.0013-0.0038-0.0014-0.0037-0.0016-0.0035-0.0016-0.0035-0.0018-0.0033-0.0019-0.0032-2e-3 -0.0031-0.0022-0.0029-0.0022-0.0028-0.0023-0.0026-0.0024-0.0025-0.0025-0.0023-0.0026-0.0021-0.0027-2e-3 -0.0027-0.0018-0.0029-0.0015-0.0029-0.0014-0.0029-0.0012-0.0031-1e-3 -3e-3 -8e-4 -0.0032-5e-4 -0.0032-4e-4 -0.0032-1e-4 -0.0033 1e-4 -0.0033 4e-4 -0.0032 5e-4 -0.0032 8e-4 -0.0032 1e-3 -3e-3 0.0012-0.0031 0.0014-0.0029 0.0015-0.0029 0.0018-0.0029 2e-3 -0.0027 0.0021-0.0027 0.0023-0.0026 0.0025-0.0025 0.0026-0.0024 0.0028-0.0023 0.0029-0.0023 0.0031-0.0021 0.0032-2e-3 0.0033-0.0019 0.0035-0.0018 0.0035-0.0016 0.0037-0.0016 0.0038-0.0014 4e-3 -0.0013 4e-3 -0.0011 0.0041-1e-3 0.0042-9e-4 0.0042-7e-4 0.0044-6e-4 0.0044-4e-4 0.0045-2e-4 0.0045-1e-4zm-1.496 0h1.496v0.1278h-1.496v-0.1278zm0 0v0.1278l-0.0045-1e-4 -0.0045-2e-4 -0.0044-4e-4 -0.0044-6e-4 -0.0042-7e-4 -0.0042-9e-4 -0.0041-1e-3 -4e-3 -0.0011-4e-3 -0.0013-0.0038-0.0014-0.0037-0.0016-0.0035-0.0016-0.0035-0.0018-0.0033-0.0019-0.0032-2e-3 -0.0031-0.0022-0.0029-0.0022-0.0028-0.0023-0.0026-0.0024-0.0025-0.0025-0.0023-0.0026-0.0021-0.0027-2e-3 -0.0027-0.0018-0.0029-0.0015-0.0029-0.0014-0.0029-0.0012-0.0031-1e-3 -3e-3 -8e-4 -0.0032-5e-4 -0.0032-4e-4 -0.0032-1e-4 -0.0033 1e-4 -0.0033 4e-4 -0.0032 5e-4 -0.0032 8e-4 -0.0032 1e-3 -3e-3 0.0012-0.0031 0.0014-0.0029 0.0015-0.0029 0.0018-0.0029 2e-3 -0.0027 0.0021-0.0027 0.0023-0.0026 0.0025-0.0025 0.0026-0.0024 0.0028-0.0023 0.0029-0.0023 0.0031-0.0021 0.0032-2e-3 0.0033-0.0019 0.0035-0.0018 0.0035-0.0016 0.0037-0.0016 0.0038-0.0014 4e-3 -0.0013 4e-3 -0.0011 0.0041-1e-3 0.0042-9e-4 0.0042-7e-4 0.0044-6e-4 0.0044-4e-4 0.0045-2e-4 0.0045-1e-4zm-0.3271-0.5592h0.1766l-1e-4 0.0315 9e-4 0.0308 0.0015 0.0304 0.0021 0.0298 0.0027 0.0292 0.0032 0.0286 0.0035 0.0283 0.0042 0.0274 0.0044 0.0263 0.0053 0.0259 0.0054 0.0251 6e-3 0.024 0.0062 0.0234 0.0068 0.0221 0.0071 0.0212 0.0072 0.0201 0.0076 0.0191 0.0081 0.0179 0.0083 0.0166 0.0079 0.0152 0.0083 0.0138 0.0083 0.0126 0.0082 0.0107 0.0082 0.0094 7e-3 0.0077 0.0066 0.0054 0.0056 0.0042 0.0039 0.0024 0.0018 1e-3 -1e-4 -1e-4 -0.0024-3e-4 -0.0032-5e-4v0.1278l-0.0278-0.0021-0.0266-0.0051-0.0241-0.0079-0.0218-0.01-0.0191-0.0114-0.0172-0.0126-0.0156-0.014-0.0146-0.0147-0.013-0.0154-0.0124-0.0167-0.0117-0.0174-0.0111-0.0184-0.0107-0.0196-0.0097-0.0202-0.0093-0.0213-9e-3 -0.0221-0.0086-0.0231-0.0079-0.0238-0.0074-0.0251-7e-3 -0.0254-0.0066-0.0264-6e-3 -0.0271-0.0053-0.0279-0.0052-0.0289-0.0042-0.0294-0.0041-0.0297-0.0032-0.0306-0.0027-0.0312-0.0021-0.0318-0.0015-0.032-9e-4 -0.0328-7e-4 -0.0329zm0.1766 0h-0.1766l1e-4 -0.0033 4e-4 -0.0032 5e-4 -0.0032 8e-4 -0.0032 1e-3 -3e-3 0.0012-0.0031 0.0014-0.0029 0.0015-0.0029 0.0018-0.0029 2e-3 -0.0027 0.0021-0.0027 0.0023-0.0026 0.0025-0.0025 0.0026-0.0024 0.0028-0.0023 0.0029-0.0023 0.0031-0.0021 0.0032-2e-3 0.0033-0.0019 0.0035-0.0018 0.0035-0.0016 0.0037-0.0016 0.0038-0.0014 4e-3 -0.0013 4e-3 -0.0011 0.0041-1e-3 0.0042-9e-4 0.0042-7e-4 0.0044-6e-4 0.0044-4e-4 0.0045-2e-4 0.0045-1e-4 0.0045 1e-4 0.0045 2e-4 0.0044 4e-4 0.0044 6e-4 0.0042 7e-4 0.0042 9e-4 0.0041 1e-3 4e-3 0.0011 4e-3 0.0013 0.0038 0.0014 0.0037 0.0016 0.0035 0.0016 0.0035 0.0018 0.0033 0.0019 0.0032 2e-3 0.0031 0.0021 0.0029 0.0023 0.0028 0.0023 0.0026 0.0024 0.0025 0.0025 0.0023 0.0026 0.0021 0.0027 2e-3 0.0027 0.0018 0.0029 0.0015 0.0029 0.0014 0.0029 0.0012 0.0031 1e-3 3e-3 8e-4 0.0032 5e-4 0.0032 4e-4 0.0032 1e-4 0.0033zm0.1505-0.6871v0.1278l0.0032-5e-4 0.0024-3e-4 1e-4 -1e-4 -0.0018 1e-3 -0.0039 0.0024-0.0056 0.0042-0.0066 0.0054-7e-3 0.0077-0.0082 0.0094-0.0082 0.0107-0.0083 0.0126-0.0083 0.0138-0.0079 0.0152-0.0083 0.0166-0.0081 0.0179-0.0076 0.0191-0.0072 0.0201-0.0071 0.0213-0.0068 0.022-0.0062 0.0234-6e-3 0.0241-0.0054 0.0251-0.0053 0.0259-0.0044 0.0263-0.0042 0.0273-0.0035 0.0283-0.0032 0.0286-0.0027 0.0293-0.0021 0.0297-0.0015 0.0305-9e-4 0.0308 1e-4 0.0315h-0.1766l7e-4 -0.0329 9e-4 -0.0328 0.0015-0.0321 0.0021-0.0317 0.0027-0.0313 0.0032-0.0306 0.0041-0.0297 0.0042-0.0293 0.0052-0.0289 0.0053-0.0279 6e-3 -0.0271 0.0066-0.0265 7e-3 -0.0254 0.0074-0.025 0.0079-0.0239 0.0086-0.0231 9e-3 -0.0221 0.0093-0.0213 0.0097-0.0202 0.0107-0.0196 0.0111-0.0184 0.0117-0.0174 0.0124-0.0167 0.013-0.0154 0.0146-0.0147 0.0156-0.014 0.0172-0.0126 0.0191-0.0114 0.0218-0.01 0.0241-0.0079 0.0266-0.0051 0.0278-0.0021zm0 0.1278v-0.1278l0.0045 1e-4 0.0045 2e-4 0.0044 4e-4 0.0044 6e-4 0.0042 7e-4 0.0042 9e-4 0.0041 1e-3 4e-3 0.0011 4e-3 0.0013 0.0038 0.0014 0.0037 0.0016 0.0035 0.0016 0.0035 0.0018 0.0033 0.0019 0.0032 2e-3 0.0031 0.0021 0.0029 0.0023 0.0028 0.0023 0.0026 0.0024 0.0025 0.0025 0.0023 0.0026 0.0021 0.0027 2e-3 0.0027 0.0018 0.0029 0.0015 0.0029 0.0014 0.0029 0.0012 0.0031 1e-3 3e-3 8e-4 0.0032 5e-4 0.0032 4e-4 0.0032 1e-4 0.0033-1e-4 0.0033-4e-4 0.0032-5e-4 0.0032-8e-4 0.0032-1e-3 3e-3 -0.0012 0.0031-0.0014 0.0029-0.0015 0.0029-0.0018 0.0029-2e-3 0.0027-0.0021 0.0027-0.0023 0.0026-0.0025 0.0025-0.0026 0.0024-0.0028 0.0023-0.0029 0.0022-0.0031 0.0022-0.0032 2e-3 -0.0033 0.0019-0.0035 0.0018-0.0035 0.0016-0.0037 0.0016-0.0038 0.0014-4e-3 0.0013-4e-3 0.0011-0.0041 1e-3 -0.0042 9e-4 -0.0042 7e-4 -0.0044 6e-4 -0.0044 4e-4 -0.0045 2e-4 -0.0045 1e-4z" fill-rule="nonzero"/>
    
    
     <path class="fil7" d="m80.063 145.03c-0.132 0-0.2388 0.1547-0.2388 0.3457 0 0.1956 0.1068 0.3502 0.2388 0.3502h1.7663c0.132 0 0.2389-0.1546 0.2389-0.3502 0-0.191-0.1069-0.3457-0.2389-0.3457h-1.7663z" fill="#fff"/>
     <path class="fil6" d="m79.913 145.38h-0.1766l7e-4 -0.0193 9e-4 -0.0191 0.0015-0.019 0.0024-0.0188 0.0031-0.0182 0.0035-0.0181 0.0041-0.0176 0.0046-0.0175 0.0055-0.0173 0.0056-0.0164 0.0068-0.0165 0.0069-0.0157 0.0077-0.0156 0.0081-0.015 0.0085-0.0146 0.0097-0.0142 0.0097-0.0137 0.0107-0.0131 0.0107-0.0125 0.0118-0.0122 0.0128-0.0117 0.0131-0.0111 0.0141-0.0103 0.0147-0.0097 0.0156-0.0087 0.017-0.0084 0.0176-0.0071 0.0184-0.0062 0.0197-0.0052 0.0196-0.0035 0.0207-0.0024 0.0213-9e-4v0.1278l-0.0033-1e-4 -0.0035 4e-4 -0.0044 9e-4 -0.0039 8e-4 -0.0046 0.0016-0.0052 0.0021-0.0052 0.0026-6e-3 0.0037-0.0065 0.0041-0.0065 0.0049-0.0069 0.0055-0.0066 0.0063-0.0068 0.0072-0.0073 0.0079-0.0067 0.0087-0.0069 0.0091-0.0061 0.0098-0.0065 0.0106-0.0061 0.011-0.0055 0.0116-0.0057 0.0123-0.0046 0.0125-5e-3 0.0134-0.0041 0.0133-0.0038 0.0139-0.0035 0.0146-0.0029 0.0147-0.0023 0.0152-0.0018 0.0152-0.0015 0.0156-9e-4 0.0161 1e-4 0.0163zm-0.1766 0h0.1766l-1e-4 0.0033-4e-4 0.0032-5e-4 0.0032-8e-4 0.0032-1e-3 3e-3 -0.0012 0.0031-0.0014 0.0029-0.0015 0.0029-0.0018 0.0029-2e-3 0.0027-0.0021 0.0027-0.0023 0.0026-0.0025 0.0025-0.0026 0.0024-0.0028 0.0023-0.0029 0.0022-0.0031 0.0022-0.0032 2e-3 -0.0033 0.0019-0.0035 0.0018-0.0035 0.0016-0.0037 0.0016-0.0038 0.0014-4e-3 0.0013-4e-3 0.0011-0.0041 1e-3 -0.0042 9e-4 -0.0042 7e-4 -0.0044 6e-4 -0.0044 4e-4 -0.0045 2e-4 -0.0045 1e-4 -0.0045-1e-4 -0.0045-2e-4 -0.0044-4e-4 -0.0044-6e-4 -0.0042-7e-4 -0.0042-9e-4 -0.0041-1e-3 -4e-3 -0.0011-4e-3 -0.0013-0.0038-0.0014-0.0037-0.0016-0.0035-0.0016-0.0035-0.0018-0.0033-0.0019-0.0032-2e-3 -0.0031-0.0022-0.0029-0.0022-0.0028-0.0023-0.0026-0.0024-0.0025-0.0025-0.0023-0.0026-0.0021-0.0027-2e-3 -0.0027-0.0018-0.0029-0.0015-0.0029-0.0014-0.0029-0.0012-0.0031-1e-3 -3e-3 -8e-4 -0.0032-5e-4 -0.0032-4e-4 -0.0032-1e-4 -0.0033zm0.3271 0.2863v0.1278l-0.0213-9e-4 -0.0207-0.0024-0.0196-0.0035-0.0197-0.0052-0.0187-0.0062-0.0173-0.0072-0.017-0.0081-0.0159-0.0092-0.0144-0.0095-0.0141-0.0103-0.0135-0.0112-0.0124-0.0117-0.0118-0.0125-0.011-0.0126-0.0104-0.0132-0.0101-0.0138-0.0093-0.0141-0.0085-0.0146-0.0085-0.0154-0.0073-0.0155-0.0073-0.0162-0.0064-0.0164-6e-3 -0.0169-0.0051-0.0176-0.0046-0.0174-0.0044-0.018-0.0032-0.0182-0.0031-0.0189-0.0024-0.0191-0.0015-0.0191-9e-4 -0.0195-7e-4 -0.0197h0.1766l-1e-4 0.0167 9e-4 0.0165 0.0015 0.0161 0.0018 0.0157 0.0023 0.0153 0.0032 0.0152 0.0032 0.0146 0.0038 0.0144 0.0045 0.0136 0.0046 0.0133 5e-3 0.013 0.0053 0.0122 0.0059 0.0119 0.0057 0.011 0.0065 0.0106 0.0065 0.0101 0.0065 0.0094 7e-3 0.0086 7e-3 0.0082 0.0068 0.0069 7e-3 0.0063 0.0065 0.0056 0.0065 0.0049 0.0068 0.0045 0.0057 0.0032 0.0052 0.0027 0.0055 0.0022 0.0043 0.0016 0.0039 8e-4 0.0044 9e-4 0.0035 4e-4 0.0033-1e-4zm0 0.1278v-0.1278l0.0045 1e-4 0.0045 2e-4 0.0044 4e-4 0.0044 6e-4 0.0042 7e-4 0.0042 9e-4 0.0041 1e-3 4e-3 0.0011 4e-3 0.0013 0.0038 0.0014 0.0037 0.0016 0.0035 0.0016 0.0035 0.0018 0.0033 0.0019 0.0032 2e-3 0.0031 0.0021 0.0029 0.0023 0.0028 0.0023 0.0026 0.0024 0.0025 0.0025 0.0023 0.0026 0.0021 0.0027 2e-3 0.0027 0.0018 0.0029 0.0015 0.0029 0.0014 0.0029 0.0012 0.0031 1e-3 3e-3 8e-4 0.0032 5e-4 0.0032 4e-4 0.0032 1e-4 0.0033-1e-4 0.0033-4e-4 0.0032-5e-4 0.0032-8e-4 0.0032-1e-3 3e-3 -0.0012 0.0031-0.0014 0.0029-0.0015 0.0029-0.0018 0.0029-2e-3 0.0027-0.0021 0.0027-0.0023 0.0026-0.0025 0.0025-0.0026 0.0024-0.0028 0.0023-0.0029 0.0022-0.0031 0.0022-0.0032 2e-3 -0.0033 0.0019-0.0035 0.0018-0.0035 0.0016-0.0037 0.0016-0.0038 0.0014-4e-3 0.0013-4e-3 0.0011-0.0041 1e-3 -0.0042 9e-4 -0.0042 7e-4 -0.0044 6e-4 -0.0044 4e-4 -0.0045 2e-4 -0.0045 1e-4zm1.7663 0h-1.7663v-0.1278h1.7663v0.1278zm0 0v-0.1278l0.0045 1e-4 0.0045 2e-4 0.0044 4e-4 0.0044 6e-4 0.0042 7e-4 0.0042 9e-4 0.0041 1e-3 4e-3 0.0011 4e-3 0.0013 0.0038 0.0014 0.0037 0.0016 0.0035 0.0016 0.0035 0.0018 0.0033 0.0019 0.0032 2e-3 0.0031 0.0021 0.0029 0.0023 0.0028 0.0023 0.0026 0.0024 0.0025 0.0025 0.0023 0.0026 0.0021 0.0027 2e-3 0.0027 0.0018 0.0029 0.0015 0.0029 0.0014 0.0029 0.0012 0.0031 1e-3 3e-3 8e-4 0.0032 5e-4 0.0032 4e-4 0.0032 1e-4 0.0033-1e-4 0.0033-4e-4 0.0032-5e-4 0.0032-8e-4 0.0032-1e-3 3e-3 -0.0012 0.0031-0.0014 0.0029-0.0015 0.0029-0.0018 0.0029-2e-3 0.0027-0.0021 0.0027-0.0023 0.0026-0.0025 0.0025-0.0026 0.0024-0.0028 0.0023-0.0029 0.0022-0.0031 0.0022-0.0032 2e-3 -0.0033 0.0019-0.0035 0.0018-0.0035 0.0016-0.0037 0.0016-0.0038 0.0014-4e-3 0.0013-4e-3 0.0011-0.0041 1e-3 -0.0042 9e-4 -0.0042 7e-4 -0.0044 6e-4 -0.0044 4e-4 -0.0045 2e-4 -0.0045 1e-4zm0.1506-0.4141h0.1766l-7e-4 0.0197-9e-4 0.0195-0.0016 0.0193-0.0024 0.0189-0.0026 0.0186-0.0036 0.0185-0.0044 0.018-0.0047 0.0174-5e-3 0.0174-6e-3 0.0171-0.0065 0.0164-0.0072 0.016-0.0073 0.0157-0.0085 0.0154-0.0085 0.0146-0.0094 0.0141-0.01 0.0138-0.0104 0.0132-0.011 0.0129-0.0122 0.0124-0.0121 0.0115-0.0135 0.0112-0.0141 0.0103-0.0144 0.0095-0.0159 0.0092-0.017 0.0081-0.0173 0.0072-0.0187 0.0062-0.0197 0.0052-0.0196 0.0035-0.0207 0.0024-0.0213 9e-4v-0.1278l0.0033 1e-4 0.0035-4e-4 0.0044-9e-4 0.0039-8e-4 0.0043-0.0016 0.0055-0.0022 0.0052-0.0027 0.0057-0.0032 0.0068-0.0045 0.0065-0.0049 0.0065-0.0056 0.0073-0.0065 0.0066-7e-3 7e-3 -0.0079 7e-3 -0.0086 0.0064-0.0094 0.0066-0.0101 0.0065-0.0106 0.0057-0.011 0.0059-0.0117 0.0052-0.0124 0.0051-0.013 0.0046-0.0131 0.0044-0.0138 0.0039-0.0144 0.0032-0.0146 0.0028-0.0149 0.0026-0.0156 0.0018-0.0159 0.0016-0.0159 9e-4 -0.0165-1e-4 -0.0167zm0.1766 0h-0.1766l1e-4 -0.0033 4e-4 -0.0032 5e-4 -0.0032 8e-4 -0.0032 1e-3 -3e-3 0.0012-0.0031 0.0014-0.0029 0.0015-0.0029 0.0018-0.0029 2e-3 -0.0027 0.0021-0.0027 0.0023-0.0026 0.0025-0.0025 0.0026-0.0024 0.0028-0.0023 0.0029-0.0023 0.0031-0.0021 0.0032-2e-3 0.0033-0.0019 0.0035-0.0018 0.0035-0.0016 0.0037-0.0016 0.0038-0.0014 4e-3 -0.0013 4e-3 -0.0011 0.0041-1e-3 0.0042-9e-4 0.0042-7e-4 0.0044-6e-4 0.0044-4e-4 0.0045-2e-4 0.0045-1e-4 0.0045 1e-4 0.0045 2e-4 0.0044 4e-4 0.0044 6e-4 0.0042 7e-4 0.0042 9e-4 0.0041 1e-3 4e-3 0.0011 4e-3 0.0013 0.0038 0.0014 0.0037 0.0016 0.0035 0.0016 0.0035 0.0018 0.0033 0.0019 0.0032 2e-3 0.0031 0.0021 0.0029 0.0023 0.0028 0.0023 0.0026 0.0024 0.0025 0.0025 0.0023 0.0026 0.0021 0.0027 2e-3 0.0027 0.0018 0.0029 0.0015 0.0029 0.0014 0.0029 0.0012 0.0031 1e-3 3e-3 8e-4 0.0032 5e-4 0.0032 4e-4 0.0032 1e-4 0.0033zm-0.3272-0.2818v-0.1278l0.0213 9e-4 0.0207 0.0024 0.0196 0.0035 0.0197 0.0052 0.0184 0.0062 0.0176 0.0071 0.017 0.0084 0.0156 0.0087 0.0147 0.0097 0.0141 0.0103 0.0131 0.0111 0.0125 0.0115 0.0118 0.0122 0.0111 0.0127 0.0107 0.0131 0.0096 0.0137 0.0094 0.0139 0.0089 0.0149 0.0081 0.015 0.0077 0.0156 0.0068 0.0157 0.0065 0.0163 6e-3 0.0169 0.0054 0.017 0.0047 0.0172 0.0041 0.0179 0.0035 0.0181 3e-3 0.0185 0.0024 0.0185 0.0016 0.0188 9e-4 0.0193 7e-4 0.0193h-0.1766l1e-4 -0.0163-9e-4 -0.0159-0.0016-0.0158-0.0018-0.0155-0.0022-0.0149-0.0029-0.0147-0.0035-0.0143-0.0039-0.0142-4e-3 -0.0136-0.0046-0.0129-0.0051-0.0127-0.0056-0.0123-0.0055-0.0116-0.0061-0.011-0.0061-0.0103-0.0066-0.0101-0.0068-0.0091-0.0067-0.0087-0.0069-0.0077-7e-3 -0.0072-0.0069-0.0065-0.0069-0.0055-0.0065-0.0049-0.0065-0.0041-6e-3 -0.0037-0.0052-0.0026-0.0052-0.0021-0.0046-0.0016-0.0039-8e-4 -0.0044-9e-4 -0.0035-4e-4 -0.0033 1e-4zm0-0.1278v0.1278l-0.0045-1e-4 -0.0045-2e-4 -0.0044-4e-4 -0.0044-6e-4 -0.0042-7e-4 -0.0042-9e-4 -0.0041-1e-3 -4e-3 -0.0011-4e-3 -0.0013-0.0038-0.0014-0.0037-0.0016-0.0035-0.0016-0.0035-0.0018-0.0033-0.0019-0.0032-2e-3 -0.0031-0.0022-0.0029-0.0022-0.0028-0.0023-0.0026-0.0024-0.0025-0.0025-0.0023-0.0026-0.0021-0.0027-2e-3 -0.0027-0.0018-0.0029-0.0015-0.0029-0.0014-0.0029-0.0012-0.0031-1e-3 -3e-3 -8e-4 -0.0032-5e-4 -0.0032-4e-4 -0.0032-1e-4 -0.0033 1e-4 -0.0033 4e-4 -0.0032 5e-4 -0.0032 8e-4 -0.0032 1e-3 -3e-3 0.0012-0.0031 0.0014-0.0029 0.0015-0.0029 0.0018-0.0029 2e-3 -0.0027 0.0021-0.0027 0.0023-0.0026 0.0025-0.0025 0.0026-0.0024 0.0028-0.0023 0.0029-0.0023 0.0031-0.0021 0.0032-2e-3 0.0033-0.0019 0.0035-0.0018 0.0035-0.0016 0.0037-0.0016 0.0038-0.0014 4e-3 -0.0013 4e-3 -0.0011 0.0041-1e-3 0.0042-9e-4 0.0042-7e-4 0.0044-6e-4 0.0044-4e-4 0.0045-2e-4 0.0045-1e-4zm-1.7663 0h1.7663v0.1278h-1.7663v-0.1278zm0 0v0.1278l-0.0045-1e-4 -0.0045-2e-4 -0.0044-4e-4 -0.0044-6e-4 -0.0042-7e-4 -0.0042-9e-4 -0.0041-1e-3 -4e-3 -0.0011-4e-3 -0.0013-0.0038-0.0014-0.0037-0.0016-0.0035-0.0016-0.0035-0.0018-0.0033-0.0019-0.0032-2e-3 -0.0031-0.0022-0.0029-0.0022-0.0028-0.0023-0.0026-0.0024-0.0025-0.0025-0.0023-0.0026-0.0021-0.0027-2e-3 -0.0027-0.0018-0.0029-0.0015-0.0029-0.0014-0.0029-0.0012-0.0031-1e-3 -3e-3 -8e-4 -0.0032-5e-4 -0.0032-4e-4 -0.0032-1e-4 -0.0033 1e-4 -0.0033 4e-4 -0.0032 5e-4 -0.0032 8e-4 -0.0032 1e-3 -3e-3 0.0012-0.0031 0.0014-0.0029 0.0015-0.0029 0.0018-0.0029 2e-3 -0.0027 0.0021-0.0027 0.0023-0.0026 0.0025-0.0025 0.0026-0.0024 0.0028-0.0023 0.0029-0.0023 0.0031-0.0021 0.0032-2e-3 0.0033-0.0019 0.0035-0.0018 0.0035-0.0016 0.0037-0.0016 0.0038-0.0014 4e-3 -0.0013 4e-3 -0.0011 0.0041-1e-3 0.0042-9e-4 0.0042-7e-4 0.0044-6e-4 0.0044-4e-4 0.0045-2e-4 0.0045-1e-4z" fill-rule="nonzero"/>
    
    <path class="fil2 str0" d="m130.2 145.85c-0.165 0.6617-0.6292 1.1477-1.3099 1.1477 0.2369 0.8228 1.2363 0.6118 1.444-0.2688-0.292 1.4334 0.0175 1.5468 0.4435 1.9852 0.462-0.2529 0.5814-0.8536 0.4435-1.9645 0.2335 1.0067 0.9656 0.9818 1.248 0.4033-0.4847-0.3206-1.0933-0.6825-1.0933-1.3029h-1.1758z" fill="#fff" stroke="#1f1a17" stroke-width=".1764"/>
    <path class="fil2 str0" d="m130.44 144.84c0.1942-2.0377-0.3283-3.3016-1.0689-5.0794-0.4515-1.0836-0.7077-2.0806-0.0093-2.9853 0.431-0.5582 0.8888-0.9902 1.1142-1.776 0.1083-0.378 0.2757-0.4303 0.3878-0.4272 0.1989 0.0056 0.3067 0.3102 0.3514 0.4467 0.2568 0.7837 0.5642 1.0645 1.0708 1.7042 1.2007 1.5159-0.1141 3.0625-0.6653 4.6151-0.1876 0.5285-0.3079 1.0399-0.3891 1.5631-0.1087 0.6996-0.1058 1.2579-0.0417 1.9614l-0.7499-0.0226z" fill="#fff" stroke="#1f1a17" stroke-width=".1764"/>
    <path class="fil2 str0" d="m134.68 144.59c0.0644 1.4976-1.4037 0.3681 0.0591-1.0749 0.3196-0.3152 0.7003-0.5351 0.9444-1.02 0.55-1.0921 0.3194-2.4817-0.6955-3.2991-0.5184-0.4175-1.1145-0.4217-1.8139 0.0669-1.7769 1.2415-1.9976 3.4051-2.0225 5.297 0.0773-0.8998 0.5996-2.1096 1.2312-2.7671 1.2233-1.2733 2.2052-0.388 1.532 1.2409-0.2182 0.528-0.5983 1.058-0.625 1.6234-0.044 0.9348 1.4527 1.6379 1.699 0.6252 0.0751-0.3085-0.096-0.6146-0.3088-0.6923z" fill="#fff" stroke="#1f1a17" stroke-width=".1764"/>
    <path class="fil5 str0" d="m131.78 141.93c0.5277-0.6758 0.9773-1.3279 1.8675-1.5804 1.4221-0.4034 1.6994 0.9572 0.9596 2.2224" fill="none" stroke="#1f1a17" stroke-width=".1764"/>
    <path class="fil2 str0" d="m126.93 144.59c-0.0644 1.4976 1.4037 0.3681-0.0591-1.0749-0.3195-0.3153-0.7002-0.5351-0.9444-1.02-0.5499-1.0922-0.3193-2.4818 0.6955-3.2991 0.5185-0.4176 1.1146-0.4218 1.8139 0.0668 1.777 1.2416 1.9976 3.4052 2.0226 5.2971-0.0773-0.8999-0.5996-2.1097-1.2313-2.7672-1.2233-1.2732-2.2051-0.388-1.5319 1.241 0.2181 0.5279 0.5983 1.0579 0.6249 1.6233 0.0441 0.9349-1.4527 1.6379-1.699 0.6253-0.075-0.3086 0.0961-0.6146 0.3088-0.6923z" fill="#fff" stroke="#1f1a17" stroke-width=".1764"/>
    <path class="fil5 str0" d="m129.82 141.93c-0.5277-0.6759-0.9773-1.328-1.8674-1.5805-1.4222-0.4034-1.6994 0.9572-0.9597 2.2224" fill="none" stroke="#1f1a17" stroke-width=".1764"/>
    <line class="fil5 str0" x1="130.81" x2="130.79" y1="138.3" y2="147.84" fill="none" stroke="#1f1a17" stroke-width=".1764"/>
    
     <path class="fil2" d="m130.03 144.75h1.496c0.132 0 0.2388 0.2775 0.2388 0.6232 0 0.3456-0.1068 0.6231-0.2388 0.6231h-1.496c-0.132 0-0.2389-0.2775-0.2389-0.6231 0-0.3457 0.1069-0.6232 0.2389-0.6232z" fill="#fff"/>
     <path class="fil6" d="m131.52 144.81h-1.496v-0.1278h1.496v0.1278zm0 0v-0.1278l0.0045 1e-4 0.0045 2e-4 0.0044 4e-4 0.0044 6e-4 0.0042 7e-4 0.0042 9e-4 0.0041 1e-3 4e-3 0.0011 4e-3 0.0013 0.0038 0.0014 0.0037 0.0016 0.0035 0.0016 0.0035 0.0018 0.0033 0.0019 0.0032 2e-3 0.0031 0.0021 0.0029 0.0023 0.0028 0.0023 0.0026 0.0024 0.0025 0.0025 0.0023 0.0026 0.0021 0.0027 2e-3 0.0027 0.0018 0.0029 0.0015 0.0029 0.0014 0.0029 0.0012 0.0031 1e-3 3e-3 8e-4 0.0032 5e-4 0.0032 4e-4 0.0032 1e-4 0.0033-1e-4 0.0033-4e-4 0.0032-5e-4 0.0032-8e-4 0.0032-1e-3 3e-3 -0.0012 0.0031-0.0014 0.0029-0.0015 0.0029-0.0018 0.0029-2e-3 0.0027-0.0021 0.0027-0.0023 0.0026-0.0025 0.0025-0.0026 0.0024-0.0028 0.0023-0.0029 0.0022-0.0031 0.0022-0.0032 2e-3 -0.0033 0.0019-0.0035 0.0018-0.0035 0.0016-0.0037 0.0016-0.0038 0.0014-4e-3 0.0013-4e-3 0.0011-0.0041 1e-3 -0.0042 9e-4 -0.0042 7e-4 -0.0044 6e-4 -0.0044 4e-4 -0.0045 2e-4 -0.0045 1e-4zm0.3271 0.5593h-0.1766l1e-4 -0.0315-9e-4 -0.0308-0.0015-0.0305-0.0021-0.0297-0.0027-0.0293-0.0032-0.0286-0.0035-0.0283-0.0042-0.0273-0.0044-0.0263-0.0053-0.0259-0.0054-0.0251-6e-3 -0.0241-0.0062-0.0234-0.0068-0.022-0.0071-0.0213-0.0072-0.0201-0.0076-0.0191-0.0081-0.0179-0.0083-0.0166-0.0079-0.0152-0.0083-0.0138-0.0083-0.0126-0.0082-0.0107-0.0082-0.0094-7e-3 -0.0077-0.0066-0.0054-0.0056-0.0042-0.0039-0.0024-0.0018-1e-3 1e-4 1e-4 0.0024 3e-4 0.0032 5e-4v-0.1278l0.0278 0.0021 0.0266 0.0051 0.0241 0.0079 0.0218 0.01 0.0191 0.0114 0.0172 0.0126 0.0156 0.014 0.0146 0.0147 0.013 0.0154 0.0124 0.0167 0.0117 0.0174 0.0111 0.0184 0.0107 0.0196 0.0097 0.0202 0.0093 0.0213 9e-3 0.0221 0.0086 0.0231 0.0079 0.0239 0.0074 0.025 7e-3 0.0254 0.0066 0.0265 6e-3 0.0271 0.0053 0.0279 0.0052 0.0289 0.0042 0.0293 0.0041 0.0297 0.0032 0.0306 0.0027 0.0313 0.0021 0.0317 0.0015 0.0321 9e-4 0.0328 7e-4 0.0329zm-0.1766 0h0.1766l-1e-4 0.0033-4e-4 0.0032-5e-4 0.0032-8e-4 0.0032-1e-3 3e-3 -0.0012 0.0031-0.0014 0.0029-0.0015 0.0029-0.0018 0.0029-2e-3 0.0027-0.0021 0.0027-0.0023 0.0026-0.0025 0.0025-0.0026 0.0024-0.0028 0.0023-0.0029 0.0022-0.0031 0.0022-0.0032 2e-3 -0.0033 0.0019-0.0035 0.0018-0.0035 0.0016-0.0037 0.0016-0.0038 0.0014-4e-3 0.0013-4e-3 0.0011-0.0041 1e-3 -0.0042 9e-4 -0.0042 7e-4 -0.0044 6e-4 -0.0044 4e-4 -0.0045 2e-4 -0.0045 1e-4 -0.0045-1e-4 -0.0045-2e-4 -0.0044-4e-4 -0.0044-6e-4 -0.0042-7e-4 -0.0042-9e-4 -0.0041-1e-3 -4e-3 -0.0011-4e-3 -0.0013-0.0038-0.0014-0.0037-0.0016-0.0035-0.0016-0.0035-0.0018-0.0033-0.0019-0.0032-2e-3 -0.0031-0.0022-0.0029-0.0022-0.0028-0.0023-0.0026-0.0024-0.0025-0.0025-0.0023-0.0026-0.0021-0.0027-2e-3 -0.0027-0.0018-0.0029-0.0015-0.0029-0.0014-0.0029-0.0012-0.0031-1e-3 -3e-3 -8e-4 -0.0032-5e-4 -0.0032-4e-4 -0.0032-1e-4 -0.0033zm-0.1505 0.687v-0.1278l-0.0032 5e-4 -0.0024 3e-4 -1e-4 1e-4 0.0018-1e-3 0.0039-0.0024 0.0056-0.0042 0.0066-0.0054 7e-3 -0.0077 0.0082-0.0094 0.0082-0.0107 0.0083-0.0126 0.0083-0.0138 0.0079-0.0152 0.0083-0.0166 0.0081-0.0179 0.0076-0.0191 0.0072-0.0201 0.0071-0.0212 0.0068-0.0221 0.0062-0.0234 6e-3 -0.024 0.0054-0.0251 0.0053-0.0259 0.0044-0.0263 0.0042-0.0274 0.0035-0.0283 0.0032-0.0286 0.0027-0.0292 0.0021-0.0298 0.0015-0.0304 9e-4 -0.0308-1e-4 -0.0315h0.1766l-7e-4 0.0329-9e-4 0.0328-0.0015 0.032-0.0021 0.0318-0.0027 0.0312-0.0032 0.0306-0.0041 0.0297-0.0042 0.0294-0.0052 0.0289-0.0053 0.0279-6e-3 0.0271-0.0066 0.0264-7e-3 0.0254-0.0074 0.0251-0.0079 0.0238-0.0086 0.0231-9e-3 0.0221-0.0093 0.0213-0.0097 0.0202-0.0107 0.0196-0.0111 0.0184-0.0117 0.0174-0.0124 0.0167-0.013 0.0154-0.0146 0.0147-0.0156 0.014-0.0172 0.0126-0.0191 0.0114-0.0218 0.01-0.0241 0.0079-0.0266 0.0051-0.0278 0.0021zm0-0.1278v0.1278l-0.0045-1e-4 -0.0045-2e-4 -0.0044-4e-4 -0.0044-6e-4 -0.0042-7e-4 -0.0042-9e-4 -0.0041-1e-3 -4e-3 -0.0011-4e-3 -0.0013-0.0038-0.0014-0.0037-0.0016-0.0035-0.0016-0.0035-0.0018-0.0033-0.0019-0.0032-2e-3 -0.0031-0.0022-0.0029-0.0022-0.0028-0.0023-0.0026-0.0024-0.0025-0.0025-0.0023-0.0026-0.0021-0.0027-2e-3 -0.0027-0.0018-0.0029-0.0015-0.0029-0.0014-0.0029-0.0012-0.0031-1e-3 -3e-3 -8e-4 -0.0032-5e-4 -0.0032-4e-4 -0.0032-1e-4 -0.0033 1e-4 -0.0033 4e-4 -0.0032 5e-4 -0.0032 8e-4 -0.0032 1e-3 -3e-3 0.0012-0.0031 0.0014-0.0029 0.0015-0.0029 0.0018-0.0029 2e-3 -0.0027 0.0021-0.0027 0.0023-0.0026 0.0025-0.0025 0.0026-0.0024 0.0028-0.0023 0.0029-0.0023 0.0031-0.0021 0.0032-2e-3 0.0033-0.0019 0.0035-0.0018 0.0035-0.0016 0.0037-0.0016 0.0038-0.0014 4e-3 -0.0013 4e-3 -0.0011 0.0041-1e-3 0.0042-9e-4 0.0042-7e-4 0.0044-6e-4 0.0044-4e-4 0.0045-2e-4 0.0045-1e-4zm-1.496 0h1.496v0.1278h-1.496v-0.1278zm0 0v0.1278l-0.0045-1e-4 -0.0045-2e-4 -0.0044-4e-4 -0.0044-6e-4 -0.0042-7e-4 -0.0042-9e-4 -0.0041-1e-3 -4e-3 -0.0011-4e-3 -0.0013-0.0038-0.0014-0.0037-0.0016-0.0035-0.0016-0.0035-0.0018-0.0033-0.0019-0.0032-2e-3 -0.0031-0.0022-0.0029-0.0022-0.0028-0.0023-0.0026-0.0024-0.0025-0.0025-0.0023-0.0026-0.0021-0.0027-2e-3 -0.0027-0.0018-0.0029-0.0015-0.0029-0.0014-0.0029-0.0012-0.0031-1e-3 -3e-3 -8e-4 -0.0032-5e-4 -0.0032-4e-4 -0.0032-1e-4 -0.0033 1e-4 -0.0033 4e-4 -0.0032 5e-4 -0.0032 8e-4 -0.0032 1e-3 -3e-3 0.0012-0.0031 0.0014-0.0029 0.0015-0.0029 0.0018-0.0029 2e-3 -0.0027 0.0021-0.0027 0.0023-0.0026 0.0025-0.0025 0.0026-0.0024 0.0028-0.0023 0.0029-0.0023 0.0031-0.0021 0.0032-2e-3 0.0033-0.0019 0.0035-0.0018 0.0035-0.0016 0.0037-0.0016 0.0038-0.0014 4e-3 -0.0013 4e-3 -0.0011 0.0041-1e-3 0.0042-9e-4 0.0042-7e-4 0.0044-6e-4 0.0044-4e-4 0.0045-2e-4 0.0045-1e-4zm-0.3272-0.5592h0.1766l-1e-4 0.0315 9e-4 0.0308 0.0016 0.0302 0.0021 0.03 0.0026 0.0295 0.0032 0.0283 0.0035 0.0283 0.0043 0.0274 0.0043 0.0266 0.0053 0.0256 0.0055 0.0251 0.0059 0.0242 0.0062 0.0232 0.0068 0.0221 0.0071 0.021 0.0073 0.0203 0.0075 0.0191 0.0081 0.0179 0.0079 0.0164 0.0084 0.0154 0.0083 0.0138 0.0083 0.0126 0.0082 0.0107 0.0082 0.0094 7e-3 0.0077 0.0066 0.0054 0.0056 0.0042 0.0039 0.0024 0.0018 1e-3 -1e-4 -1e-4 -0.0024-3e-4 -0.0032-5e-4v0.1278l-0.0278-0.0021-0.0266-0.0051-0.0241-0.0079-0.0218-0.01-0.0191-0.0114-0.0172-0.0126-0.0156-0.014-0.0146-0.0147-0.013-0.0154-0.0124-0.0167-0.0117-0.0174-0.0111-0.0184-0.0104-0.0194-0.0101-0.0204-0.0093-0.0213-0.0089-0.0221-0.0087-0.0229-0.0079-0.024-0.0074-0.0251-7e-3 -0.0256-0.0065-0.0262-0.0061-0.0271-0.0053-0.0282-0.0051-0.0286-0.0043-0.0294-0.0041-0.0297-0.0032-0.0309-0.0026-0.0309-0.0021-0.0316-0.0016-0.0322-9e-4 -0.0328-7e-4 -0.0329zm0.1766 0h-0.1766l1e-4 -0.0033 4e-4 -0.0032 5e-4 -0.0032 8e-4 -0.0032 1e-3 -3e-3 0.0012-0.0031 0.0014-0.0029 0.0015-0.0029 0.0018-0.0029 2e-3 -0.0027 0.0021-0.0027 0.0023-0.0026 0.0025-0.0025 0.0026-0.0024 0.0028-0.0023 0.0029-0.0023 0.0031-0.0021 0.0032-2e-3 0.0033-0.0019 0.0035-0.0018 0.0035-0.0016 0.0037-0.0016 0.0038-0.0014 4e-3 -0.0013 4e-3 -0.0011 0.0041-1e-3 0.0042-9e-4 0.0042-7e-4 0.0044-6e-4 0.0044-4e-4 0.0045-2e-4 0.0045-1e-4 0.0045 1e-4 0.0045 2e-4 0.0044 4e-4 0.0044 6e-4 0.0042 7e-4 0.0042 9e-4 0.0041 1e-3 4e-3 0.0011 4e-3 0.0013 0.0038 0.0014 0.0037 0.0016 0.0035 0.0016 0.0035 0.0018 0.0033 0.0019 0.0032 2e-3 0.0031 0.0021 0.0029 0.0023 0.0028 0.0023 0.0026 0.0024 0.0025 0.0025 0.0023 0.0026 0.0021 0.0027 2e-3 0.0027 0.0018 0.0029 0.0015 0.0029 0.0014 0.0029 0.0012 0.0031 1e-3 3e-3 8e-4 0.0032 5e-4 0.0032 4e-4 0.0032 1e-4 0.0033zm0.1506-0.6871v0.1278l0.0032-5e-4 0.0024-3e-4 1e-4 -1e-4 -0.0018 1e-3 -0.0039 0.0024-0.0056 0.0042-0.0066 0.0054-7e-3 0.0077-0.0082 0.0094-0.0082 0.0107-0.0083 0.0126-0.0083 0.0138-0.0084 0.0154-0.0079 0.0164-0.0081 0.0179-0.0075 0.0191-0.0073 0.0201-0.0071 0.0213-0.0068 0.022-0.0062 0.0232-0.0059 0.0243-0.0055 0.0251-0.0053 0.0256-0.0043 0.0266-0.0043 0.0276-0.0035 0.028-0.0032 0.0283-0.0026 0.0296-0.0021 0.0299-0.0016 0.0303-9e-4 0.0308 1e-4 0.0315h-0.1766l7e-4 -0.0329 9e-4 -0.0328 0.0016-0.0323 0.0021-0.0315 0.0026-0.031 0.0032-0.0309 0.0041-0.03 0.0043-0.029 0.0051-0.0286 0.0053-0.0282 0.0061-0.0271 0.0065-0.0263 7e-3 -0.0256 0.0074-0.025 0.0079-0.0239 0.0087-0.0231 0.0089-0.0221 0.0093-0.0213 0.0101-0.0204 0.0104-0.0194 0.0111-0.0184 0.0117-0.0174 0.0124-0.0167 0.013-0.0154 0.0146-0.0147 0.0156-0.014 0.0172-0.0126 0.0191-0.0114 0.0218-0.01 0.0241-0.0079 0.0266-0.0051 0.0278-0.0021zm0 0.1278v-0.1278l0.0045 1e-4 0.0045 2e-4 0.0044 4e-4 0.0044 6e-4 0.0042 7e-4 0.0042 9e-4 0.0041 1e-3 4e-3 0.0011 4e-3 0.0013 0.0038 0.0014 0.0037 0.0016 0.0035 0.0016 0.0035 0.0018 0.0033 0.0019 0.0032 2e-3 0.0031 0.0021 0.0029 0.0023 0.0028 0.0023 0.0026 0.0024 0.0025 0.0025 0.0023 0.0026 0.0021 0.0027 2e-3 0.0027 0.0018 0.0029 0.0015 0.0029 0.0014 0.0029 0.0012 0.0031 1e-3 3e-3 8e-4 0.0032 5e-4 0.0032 4e-4 0.0032 1e-4 0.0033-1e-4 0.0033-4e-4 0.0032-5e-4 0.0032-8e-4 0.0032-1e-3 3e-3 -0.0012 0.0031-0.0014 0.0029-0.0015 0.0029-0.0018 0.0029-2e-3 0.0027-0.0021 0.0027-0.0023 0.0026-0.0025 0.0025-0.0026 0.0024-0.0028 0.0023-0.0029 0.0022-0.0031 0.0022-0.0032 2e-3 -0.0033 0.0019-0.0035 0.0018-0.0035 0.0016-0.0037 0.0016-0.0038 0.0014-4e-3 0.0013-4e-3 0.0011-0.0041 1e-3 -0.0042 9e-4 -0.0042 7e-4 -0.0044 6e-4 -0.0044 4e-4 -0.0045 2e-4 -0.0045 1e-4z" fill-rule="nonzero"/>
    
    
     <path class="fil7" d="m129.89 145.03c-0.132 0-0.2388 0.1547-0.2388 0.3457 0 0.1956 0.1068 0.3502 0.2388 0.3502h1.7663c0.132 0 0.2388-0.1546 0.2388-0.3502 0-0.191-0.1068-0.3457-0.2388-0.3457h-1.7663z" fill="#fff"/>
     <path class="fil6" d="m129.74 145.38h-0.1766l7e-4 -0.0193 9e-4 -0.0191 0.0015-0.019 0.0024-0.0188 0.0031-0.0182 0.0035-0.0181 0.0041-0.0179 0.0047-0.0172 0.0054-0.017 0.0056-0.0167 0.0068-0.0165 0.0069-0.0157 0.0077-0.0156 0.0081-0.015 0.0085-0.0146 0.0097-0.0142 0.0097-0.0137 0.0107-0.0131 0.0107-0.0125 0.0118-0.0122 0.0128-0.0117 0.0131-0.0111 0.0141-0.0103 0.0147-0.0097 0.0156-0.0087 0.017-0.0084 0.0176-0.0071 0.0184-0.0062 0.0197-0.0052 0.0196-0.0035 0.0207-0.0024 0.0213-9e-4v0.1278l-0.0033-1e-4 -0.0035 4e-4 -0.0044 9e-4 -0.0039 8e-4 -0.0046 0.0016-0.0052 0.0021-0.0052 0.0026-6e-3 0.0037-0.0065 0.0041-0.0065 0.0049-0.0069 0.0055-0.0066 0.0063-0.0068 0.0072-0.0073 0.0079-0.0067 0.0087-0.0069 0.0091-0.0061 0.0098-0.0065 0.0106-0.0061 0.011-0.0055 0.0116-0.0057 0.0123-0.0046 0.0125-5e-3 0.0131-4e-3 0.0136-0.0039 0.0142-0.0035 0.0143-0.0029 0.0147-0.0023 0.0152-0.0018 0.0152-0.0015 0.0156-9e-4 0.0161 1e-4 0.0163zm-0.1766 0h0.1766l-1e-4 0.0033-4e-4 0.0032-5e-4 0.0032-8e-4 0.0032-1e-3 3e-3 -0.0012 0.0031-0.0014 0.0029-0.0015 0.0029-0.0018 0.0029-2e-3 0.0027-0.0021 0.0027-0.0023 0.0026-0.0025 0.0025-0.0026 0.0024-0.0028 0.0023-0.0029 0.0022-0.0031 0.0022-0.0032 2e-3 -0.0033 0.0019-0.0035 0.0018-0.0035 0.0016-0.0037 0.0016-0.0038 0.0014-4e-3 0.0013-4e-3 0.0011-0.0041 1e-3 -0.0042 9e-4 -0.0042 7e-4 -0.0044 6e-4 -0.0044 4e-4 -0.0045 2e-4 -0.0045 1e-4 -0.0045-1e-4 -0.0045-2e-4 -0.0044-4e-4 -0.0044-6e-4 -0.0042-7e-4 -0.0042-9e-4 -0.0041-1e-3 -4e-3 -0.0011-4e-3 -0.0013-0.0038-0.0014-0.0037-0.0016-0.0035-0.0016-0.0035-0.0018-0.0033-0.0019-0.0032-2e-3 -0.0031-0.0022-0.0029-0.0022-0.0028-0.0023-0.0026-0.0024-0.0025-0.0025-0.0023-0.0026-0.0021-0.0027-2e-3 -0.0027-0.0018-0.0029-0.0015-0.0029-0.0014-0.0029-0.0012-0.0031-1e-3 -3e-3 -8e-4 -0.0032-5e-4 -0.0032-4e-4 -0.0032-1e-4 -0.0033zm0.3271 0.2863v0.1278l-0.0213-9e-4 -0.0207-0.0024-0.0196-0.0035-0.0197-0.0052-0.0187-0.0062-0.0173-0.0072-0.017-0.0081-0.0159-0.0092-0.0144-0.0095-0.0141-0.0103-0.0135-0.0112-0.0124-0.0117-0.0118-0.0125-0.011-0.0126-0.0104-0.0132-0.0101-0.0138-0.0093-0.0141-0.0085-0.0146-0.0085-0.0154-0.0073-0.0155-0.0073-0.0162-0.0064-0.0164-6e-3 -0.0171-5e-3 -0.0174-0.0047-0.0174-0.0044-0.018-0.0032-0.0182-0.0031-0.0189-0.0024-0.0191-0.0015-0.0191-9e-4 -0.0195-7e-4 -0.0197h0.1766l-1e-4 0.0167 9e-4 0.0165 0.0015 0.0161 0.0018 0.0157 0.0023 0.0153 0.0032 0.0152 0.0032 0.0146 0.0039 0.0144 0.0044 0.0138 0.0046 0.0131 5e-3 0.013 0.0053 0.0122 0.0059 0.0119 0.0057 0.011 0.0065 0.0106 0.0065 0.0101 0.0065 0.0094 7e-3 0.0086 7e-3 0.0082 0.0068 0.0069 7e-3 0.0063 0.0065 0.0056 0.0065 0.0049 0.0068 0.0045 0.0057 0.0032 0.0052 0.0027 0.0055 0.0022 0.0043 0.0016 0.0039 8e-4 0.0044 9e-4 0.0035 4e-4 0.0033-1e-4zm0 0.1278v-0.1278l0.0045 1e-4 0.0045 2e-4 0.0044 4e-4 0.0044 6e-4 0.0042 7e-4 0.0042 9e-4 0.0041 1e-3 4e-3 0.0011 4e-3 0.0013 0.0038 0.0014 0.0037 0.0016 0.0035 0.0016 0.0035 0.0018 0.0033 0.0019 0.0032 2e-3 0.0031 0.0021 0.0029 0.0023 0.0028 0.0023 0.0026 0.0024 0.0025 0.0025 0.0023 0.0026 0.0021 0.0027 2e-3 0.0027 0.0018 0.0029 0.0015 0.0029 0.0014 0.0029 0.0012 0.0031 1e-3 3e-3 8e-4 0.0032 5e-4 0.0032 4e-4 0.0032 1e-4 0.0033-1e-4 0.0033-4e-4 0.0032-5e-4 0.0032-8e-4 0.0032-1e-3 3e-3 -0.0012 0.0031-0.0014 0.0029-0.0015 0.0029-0.0018 0.0029-2e-3 0.0027-0.0021 0.0027-0.0023 0.0026-0.0025 0.0025-0.0026 0.0024-0.0028 0.0023-0.0029 0.0022-0.0031 0.0022-0.0032 2e-3 -0.0033 0.0019-0.0035 0.0018-0.0035 0.0016-0.0037 0.0016-0.0038 0.0014-4e-3 0.0013-4e-3 0.0011-0.0041 1e-3 -0.0042 9e-4 -0.0042 7e-4 -0.0044 6e-4 -0.0044 4e-4 -0.0045 2e-4 -0.0045 1e-4zm1.7663 0h-1.7663v-0.1278h1.7663v0.1278zm0 0v-0.1278l0.0045 1e-4 0.0045 2e-4 0.0044 4e-4 0.0044 6e-4 0.0042 7e-4 0.0042 9e-4 0.0041 1e-3 4e-3 0.0011 4e-3 0.0013 0.0038 0.0014 0.0037 0.0016 0.0035 0.0016 0.0035 0.0018 0.0033 0.0019 0.0032 2e-3 0.0031 0.0021 0.0029 0.0023 0.0028 0.0023 0.0026 0.0024 0.0025 0.0025 0.0023 0.0026 0.0021 0.0027 2e-3 0.0027 0.0018 0.0029 0.0015 0.0029 0.0014 0.0029 0.0012 0.0031 1e-3 3e-3 8e-4 0.0032 5e-4 0.0032 4e-4 0.0032 1e-4 0.0033-1e-4 0.0033-4e-4 0.0032-5e-4 0.0032-8e-4 0.0032-1e-3 3e-3 -0.0012 0.0031-0.0014 0.0029-0.0015 0.0029-0.0018 0.0029-2e-3 0.0027-0.0021 0.0027-0.0023 0.0026-0.0025 0.0025-0.0026 0.0024-0.0028 0.0023-0.0029 0.0022-0.0031 0.0022-0.0032 2e-3 -0.0033 0.0019-0.0035 0.0018-0.0035 0.0016-0.0037 0.0016-0.0038 0.0014-4e-3 0.0013-4e-3 0.0011-0.0041 1e-3 -0.0042 9e-4 -0.0042 7e-4 -0.0044 6e-4 -0.0044 4e-4 -0.0045 2e-4 -0.0045 1e-4zm0.1505-0.4141h0.1766l-7e-4 0.0197-9e-4 0.0195-0.0015 0.0191-0.0024 0.0191-0.0031 0.0189-0.0032 0.0182-0.0044 0.018-0.0046 0.0174-0.0051 0.0176-6e-3 0.0169-0.0064 0.0164-0.0073 0.0162-0.0073 0.0155-0.0085 0.0154-0.0085 0.0146-0.0093 0.0141-0.0101 0.0138-0.0104 0.0132-0.011 0.0126-0.0118 0.0125-0.0124 0.0117-0.0135 0.0112-0.0141 0.0103-0.0144 0.0095-0.0159 0.0092-0.017 0.0081-0.0173 0.0072-0.0187 0.0062-0.0197 0.0052-0.0196 0.0035-0.0207 0.0024-0.0213 9e-4v-0.1278l0.0033 1e-4 0.0035-4e-4 0.0044-9e-4 0.0039-8e-4 0.0043-0.0016 0.0055-0.0022 0.0052-0.0027 0.0057-0.0032 0.0068-0.0045 0.0065-0.0049 0.0065-0.0056 7e-3 -0.0063 0.0068-0.0069 7e-3 -0.0082 7e-3 -0.0086 0.0065-0.0094 0.0065-0.0101 0.0065-0.0106 0.0057-0.011 0.0059-0.0119 0.0053-0.0122 5e-3 -0.013 0.0046-0.0133 0.0045-0.0136 0.0038-0.0144 0.0032-0.0146 0.0032-0.0152 0.0023-0.0153 0.0018-0.0157 0.0015-0.0161 9e-4 -0.0165-1e-4 -0.0167zm0.1766 0h-0.1766l1e-4 -0.0033 4e-4 -0.0032 5e-4 -0.0032 8e-4 -0.0032 1e-3 -3e-3 0.0012-0.0031 0.0014-0.0029 0.0015-0.0029 0.0018-0.0029 2e-3 -0.0027 0.0021-0.0027 0.0023-0.0026 0.0025-0.0025 0.0026-0.0024 0.0028-0.0023 0.0029-0.0023 0.0031-0.0021 0.0032-2e-3 0.0033-0.0019 0.0035-0.0018 0.0035-0.0016 0.0037-0.0016 0.0038-0.0014 4e-3 -0.0013 4e-3 -0.0011 0.0041-1e-3 0.0042-9e-4 0.0042-7e-4 0.0044-6e-4 0.0044-4e-4 0.0045-2e-4 0.0045-1e-4 0.0045 1e-4 0.0045 2e-4 0.0044 4e-4 0.0044 6e-4 0.0042 7e-4 0.0042 9e-4 0.0041 1e-3 4e-3 0.0011 4e-3 0.0013 0.0038 0.0014 0.0037 0.0016 0.0035 0.0016 0.0035 0.0018 0.0033 0.0019 0.0032 2e-3 0.0031 0.0021 0.0029 0.0023 0.0028 0.0023 0.0026 0.0024 0.0025 0.0025 0.0023 0.0026 0.0021 0.0027 2e-3 0.0027 0.0018 0.0029 0.0015 0.0029 0.0014 0.0029 0.0012 0.0031 1e-3 3e-3 8e-4 0.0032 5e-4 0.0032 4e-4 0.0032 1e-4 0.0033zm-0.3271-0.2818v-0.1278l0.0213 9e-4 0.0207 0.0024 0.0196 0.0035 0.0197 0.0052 0.0184 0.0062 0.0176 0.0071 0.017 0.0084 0.0156 0.0087 0.0147 0.0097 0.0141 0.0103 0.0131 0.0111 0.0128 0.0117 0.0118 0.0122 0.0107 0.0125 0.0107 0.0131 0.0097 0.0137 0.0097 0.0142 0.0085 0.0146 0.0081 0.015 0.0077 0.0156 0.0069 0.0157 0.0068 0.0165 0.0056 0.0164 0.0055 0.0173 0.0046 0.0175 0.0041 0.0176 0.0035 0.0181 0.0031 0.0182 0.0024 0.0188 0.0015 0.019 9e-4 0.0191 7e-4 0.0193h-0.1766l1e-4 -0.0163-9e-4 -0.0161-0.0015-0.0156-0.0018-0.0152-0.0023-0.0152-0.0029-0.0147-0.0035-0.0146-0.0038-0.0139-0.0041-0.0133-5e-3 -0.0134-0.0046-0.0125-0.0057-0.0123-0.0055-0.0116-0.0061-0.011-0.0065-0.0106-0.0061-0.0098-0.0069-0.0091-0.0067-0.0087-0.0073-0.0079-0.0068-0.0072-0.0066-0.0063-0.0069-0.0055-0.0065-0.0049-0.0065-0.0041-6e-3 -0.0037-0.0052-0.0026-0.0052-0.0021-0.0046-0.0016-0.0039-8e-4 -0.0044-9e-4 -0.0035-4e-4 -0.0033 1e-4zm0-0.1278v0.1278l-0.0045-1e-4 -0.0045-2e-4 -0.0044-4e-4 -0.0044-6e-4 -0.0042-7e-4 -0.0042-9e-4 -0.0041-1e-3 -4e-3 -0.0011-4e-3 -0.0013-0.0038-0.0014-0.0037-0.0016-0.0035-0.0016-0.0035-0.0018-0.0033-0.0019-0.0032-2e-3 -0.0031-0.0022-0.0029-0.0022-0.0028-0.0023-0.0026-0.0024-0.0025-0.0025-0.0023-0.0026-0.0021-0.0027-2e-3 -0.0027-0.0018-0.0029-0.0015-0.0029-0.0014-0.0029-0.0012-0.0031-1e-3 -3e-3 -8e-4 -0.0032-5e-4 -0.0032-4e-4 -0.0032-1e-4 -0.0033 1e-4 -0.0033 4e-4 -0.0032 5e-4 -0.0032 8e-4 -0.0032 1e-3 -3e-3 0.0012-0.0031 0.0014-0.0029 0.0015-0.0029 0.0018-0.0029 2e-3 -0.0027 0.0021-0.0027 0.0023-0.0026 0.0025-0.0025 0.0026-0.0024 0.0028-0.0023 0.0029-0.0023 0.0031-0.0021 0.0032-2e-3 0.0033-0.0019 0.0035-0.0018 0.0035-0.0016 0.0037-0.0016 0.0038-0.0014 4e-3 -0.0013 4e-3 -0.0011 0.0041-1e-3 0.0042-9e-4 0.0042-7e-4 0.0044-6e-4 0.0044-4e-4 0.0045-2e-4 0.0045-1e-4zm-1.7663 0h1.7663v0.1278h-1.7663v-0.1278zm0 0v0.1278l-0.0045-1e-4 -0.0045-2e-4 -0.0044-4e-4 -0.0044-6e-4 -0.0042-7e-4 -0.0042-9e-4 -0.0041-1e-3 -4e-3 -0.0011-4e-3 -0.0013-0.0038-0.0014-0.0037-0.0016-0.0035-0.0016-0.0035-0.0018-0.0033-0.0019-0.0032-2e-3 -0.0031-0.0022-0.0029-0.0022-0.0028-0.0023-0.0026-0.0024-0.0025-0.0025-0.0023-0.0026-0.0021-0.0027-2e-3 -0.0027-0.0018-0.0029-0.0015-0.0029-0.0014-0.0029-0.0012-0.0031-1e-3 -3e-3 -8e-4 -0.0032-5e-4 -0.0032-4e-4 -0.0032-1e-4 -0.0033 1e-4 -0.0033 4e-4 -0.0032 5e-4 -0.0032 8e-4 -0.0032 1e-3 -3e-3 0.0012-0.0031 0.0014-0.0029 0.0015-0.0029 0.0018-0.0029 2e-3 -0.0027 0.0021-0.0027 0.0023-0.0026 0.0025-0.0025 0.0026-0.0024 0.0028-0.0023 0.0029-0.0023 0.0031-0.0021 0.0032-2e-3 0.0033-0.0019 0.0035-0.0018 0.0035-0.0016 0.0037-0.0016 0.0038-0.0014 4e-3 -0.0013 4e-3 -0.0011 0.0041-1e-3 0.0042-9e-4 0.0042-7e-4 0.0044-6e-4 0.0044-4e-4 0.0045-2e-4 0.0045-1e-4z" fill-rule="nonzero"/>
    
    <path class="fil2 str0" d="m102.18 125.11-1.9939-6.3557c2.7192-5.8104 4.7496-7.0287 5.3587-7.3942l0.4154 0.6647 0.8356-0.7478c1.4617 2.4975 2.7482 4.9556 3.5021 7.1383l-1.3883 6.8193c-2.1671-0.6892-4.4054-0.7726-6.7296-0.1246z" fill="#fff" stroke="#1f1a17" stroke-width=".1764"/>
    <line class="fil5 str0" x1="105.94" x2="110.22" y1="112" y2="118.99" fill="none" stroke="#1f1a17" stroke-width=".1764"/>
    <path class="fil1 str0" d="m102.18 125.11c-0.2466-0.7863-0.4933-1.5726-0.74-2.3589 0.7977-0.4291 1.6417-0.7194 2.5321-0.8708l0.0184-9.2376c0.7493-0.7995 1.2878-1.1227 1.5543-1.2826l1.2163 2.0357-0.206 8.4034c1.5417 0.2264 2.4234 0.479 2.8537 0.9832l-0.4992 2.4522c-2.1671-0.6892-4.4054-0.7726-6.7296-0.1246z" fill="#f8c300" stroke="#1f1a17" stroke-width=".1764"/>
    <path class="fil5 str0" d="m103.25 126.33c0.9629-0.514 1.5085-0.1652 1.6872-0.0255" fill="none" stroke="#1f1a17" stroke-width=".1764"/>
    <path class="fil5 str0" d="m106.1 126.3c0.7182-0.5492 1.2988-0.1132 1.5797 0.0572" fill="none" stroke="#1f1a17" stroke-width=".1764"/>
    <path class="fil2 str0" d="m103.35 127.22c0.0592-0.4152 1.1758-0.4515 1.3953 0.0786 0.0497 0.12-0.0485 0.1603-0.1487 0.1795-0.2497 0.0478-0.596 0.0786-0.8972 0.0295-0.1584-0.0258-0.3802-0.0715-0.3494-0.2876z" fill="#fff" stroke="#1f1a17" stroke-width=".1764"/>
    <circle class="fil8" cx="103.97" cy="127.23" r=".2771" fill="#1f1a17"/>
    <path class="fil2 str0" d="m107.53 127.21c-0.0592-0.4151-1.1758-0.4514-1.3953 0.0786-0.0497 0.12 0.0485 0.1603 0.1487 0.1795 0.2497 0.0479 0.596 0.0787 0.8972 0.0295 0.1584-0.0257 0.3802-0.0715 0.3494-0.2876z" fill="#fff" stroke="#1f1a17" stroke-width=".1764"/>
    <circle class="fil8" cx="106.9" cy="127.22" r=".2771" fill="#1f1a17"/>
    <line class="fil5 str2" x1="104.43" x2="106.56" y1="130.79" y2="130.79" fill="none" stroke="#1f1a17" stroke-width=".3528"/>
    <line class="fil5 str0" x1="105.23" x2="105.7" y1="131.3" y2="131.3" fill="none" stroke="#1f1a17" stroke-width=".1764"/>
    <line class="fil5 str0" x1="104.92" x2="105.23" y1="130.66" y2="130.66" fill="none" stroke="#1f1a17" stroke-width=".1764"/>
    <line class="fil5 str0" x1="105.7" x2="106.01" y1="130.65" y2="130.65" fill="none" stroke="#1f1a17" stroke-width=".1764"/>
    <path class="fil5 str0" d="m105.16 127.62c0 0.6969-0.0411 1.1093-0.3388 1.518-0.1769 0.2428-0.3603 0.5425 0.1417 0.5497 0.2304 0.0032 0.2539 0.0448 0.2929 0.1024 0.1094 0.1614 0.2528 0.24 0.3665 0.0718 0.0474-0.0702 0.0692-0.1581 0.2435-0.1796 0.2385-0.0295 0.4585-0.0064 0.1642-0.4897-0.2559-0.4202-0.2111-1.131-0.2111-1.6143" fill="none" stroke="#1f1a17" stroke-width=".1764"/>
    <path class="fil9" d="m104.97 144.22c-0.2597 0-0.506 0.1149-0.6729 0.3138v-0.9244c0.1669 0.1992 0.4132 0.3137 0.6729 0.3137h0.2329v-0.2329c0-0.2597-0.1149-0.506-0.3137-0.6729h0.9244c-0.1992 0.1669-0.3138 0.4132-0.3138 0.6729v0.2329h0.2326c0.2597 0 0.506-0.1145 0.6729-0.3137v0.9244c-0.1669-0.1989-0.4132-0.3138-0.6729-0.3138h-0.2326v0.2326c0 0.2597 0.1146 0.506 0.3138 0.6729h-0.9244c0.1988-0.1669 0.3137-0.4132 0.3137-0.6729v-0.2326h-0.2329z"/>
    <path class="fil9" d="m110.16 139.05c-0.2353 0.1098-0.41 0.318-0.4772 0.5687l-0.3907-0.8378c0.2354 0.1101 0.5071 0.1098 0.7424 0l0.2111-0.0984-0.0984-0.2111c-0.1098-0.2354-0.318-0.41-0.5687-0.4772l0.8378-0.3907c-0.1101 0.2354-0.1098 0.5071 0 0.7424l0.0984 0.2111 0.2108-0.0983c0.2353-0.1097 0.4102-0.3176 0.4772-0.5687l0.3907 0.8378c-0.2353-0.1097-0.5071-0.1097-0.7424 0l-0.2108 0.0983 0.0983 0.2108c0.1097 0.2353 0.3176 0.4101 0.5687 0.4772l-0.8378 0.3907c0.1097-0.2353 0.1097-0.5071 0-0.7424l-0.0983-0.2108-0.2111 0.0984z"/>
    <path class="fil9" d="m99.888 139.02c0.2353 0.1097 0.41 0.3179 0.4772 0.5687l0.3907-0.8378c-0.2355 0.11-0.5071 0.1097-0.7424 0l-0.2111-0.0985 0.0984-0.2111c0.1097-0.2353 0.318-0.41 0.5687-0.4772l-0.8378-0.3907c0.11 0.2355 0.1098 0.5071 0 0.7424l-0.0984 0.2112-0.2108-0.0983c-0.2353-0.1098-0.4102-0.3177-0.4772-0.5688l-0.3907 0.8378c0.2353-0.1097 0.5071-0.1097 0.7424 0l0.2108 0.0983-0.0983 0.2108c-0.1097 0.2354-0.3176 0.4102-0.5687 0.4773l0.8378 0.3906c-0.1097-0.2353-0.1097-0.5071 0-0.7424l0.0983-0.2108 0.2111 0.0985z"/>
    <path class="fil5 str2" d="m98.384 135.35c5.2465 3.8713 9.0685 2.9999 13.162 0.498" fill="none" stroke="#1f1a17" stroke-width=".3528"/>
    <path class="fil5 str2" d="m95.274 138.02c1.7728 1.6215 4.2277 3.4248 7.848 4.1508l0.0181 6.16c0.0813 4.6302 4.5373 3.3366 4.4507 0.0181l0.0057-6.4161c2.0989-0.238 5.5981-1.7221 7.4916-3.6216" fill="none" stroke="#1f1a17" stroke-width=".3528"/>
    <path class="fil8" d="m103.19 148.54h4.4073c-0.1971 1.7389-1.2364 2.63-2.2555 2.7667-1.0705 0.1435-2.2172-0.976-2.1518-2.7667z" fill="#1f1a17"/>
    <path class="fil5 str0" d="m103.52 133.28c-1.5617 0.7604-1.8782 3.0951-1.7827 3.9359" fill="none" stroke="#1f1a17" stroke-width=".1764"/>
    <path class="fil5 str0" d="m103.55 134.79c-0.6413 0.8016-0.9166 1.6789-1.3062 2.6185" fill="none" stroke="#1f1a17" stroke-width=".1764"/>
    <path class="fil5 str0" d="m104.71 135.23c-0.2195 0.4326-0.7877 1.3578-0.9838 2.6096" fill="none" stroke="#1f1a17" stroke-width=".1764"/>
    <line class="fil5 str0" x1="105.3" x2="105.42" y1="135.3" y2="137.96" fill="none" stroke="#1f1a17" stroke-width=".1764"/>
    <path class="fil5 str0" d="m106.24 135.24c0.2049 0.5903 0.3139 1.1992 0.5035 1.7926" fill="none" stroke="#1f1a17" stroke-width=".1764"/>
    <path class="fil5 str0" d="m107.35 134.84c0.2407 0.406 0.5151 1.8413 0.5346 2.3653" fill="none" stroke="#1f1a17" stroke-width=".1764"/>
    <path class="fil5 str0" d="m108.25 134.06c0.4436 0.4473 0.5584 1.389 0.6246 2.9841" fill="none" stroke="#1f1a17" stroke-width=".1764"/>
    <path class="fil5 str0" d="m107.15 133.5c0.5618 0.0672 2.5469 1.0422 2.6477 1.1076" fill="none" stroke="#1f1a17" stroke-width=".1764"/>
    <path class="fil5 str0" d="m102.61 134.07c-0.5427-0.0526-2.0432 0.3442-2.6159 0.5008" fill="none" stroke="#1f1a17" stroke-width=".1764"/>
    <line class="fil5 str0" x1="99.717" x2="99.719" y1="134.71" y2="136.15" fill="none" stroke="#1f1a17" stroke-width=".1764"/>
    <path class="fil5 str0" d="m102.61 134.04c1.1648 1.5268 4.367 1.9338 5.7555-0.1637" fill="none" stroke="#1f1a17" stroke-width=".1764"/>
    <path class="fil5 str0" d="m99.712 141.07c0.9112 5.0275 0.3767 12.251-1.7715 15.416" fill="none" stroke="#1f1a17" stroke-width=".1764"/>
    <path class="fil5 str0" d="m101.93 141.86c0.1229 3.478 0.7419 7.2675-0.1749 10.683-0.4264 1.589-1.1499 3.3415-1.9259 5.5647" fill="none" stroke="#1f1a17" stroke-width=".1764"/>
    <path class="fil5 str0" d="m103.22 151.38c-0.2289 1.001-0.4377 2.1369-0.3481 3.2566 0.0893 1.1174-0.1572 2.0352-0.4145 2.4915" fill="none" stroke="#1f1a17" stroke-width=".1764"/>
    <path class="fil5 str0" d="m101.71 152.77c0.2582 1.5565-0.1016 3.5874-0.5621 4.8032" fill="none" stroke="#1f1a17" stroke-width=".1764"/>
    <path class="fil5 str0" d="m104.03 151.53c0 1.7288-0.0429 3.4685-0.0429 5.1974" fill="none" stroke="#1f1a17" stroke-width=".1764"/>
    <path class="fil5 str0" d="m105.66 151.99c-0.0488 0.9027-0.3561 1.822-0.3561 2.7244" fill="none" stroke="#1f1a17" stroke-width=".1764"/>
    <path class="fil5 str0" d="m107.2 152.03c0.1175 1.5342-0.1234 3.0188 0.4452 4.4039" fill="none" stroke="#1f1a17" stroke-width=".1764"/>
    <path class="fil5 str0" d="m108.72 152.26c-0.078 0.8233 0.1484 3.838 0.8712 5.0082" fill="none" stroke="#1f1a17" stroke-width=".1764"/>
    <line class="fil5 str3" x1="101.1" x2="109.44" y1="154.65" y2="154.65" fill="none" stroke="#1f1a17" stroke-width=".5292"/>
    <path class="fil5 str0" d="m95.717 149.96c1.9623 0.7946 2.0591 2.3088 2.1585 4.1983 0.0773 1.4709-0.0272 3.2061-0.032 4.7833" fill="none" stroke="#1f1a17" stroke-width=".1764"/>
    <path class="fil5 str0" d="m95.97 150.78c0.4923 0.3667 1.0741 1.1757 1.0694 2.4563-0.0051 1.3741 0.021 3.4177-0.0397 6.0063" fill="none" stroke="#1f1a17" stroke-width=".1764"/>
    <path class="fil5 str0" d="m96.038 151.28c0.7051 0.6663 0.7492 1.6585 0.5379 2.8216-0.2338 1.286-0.0148 2.8152-0.2757 4.1512-0.1318 0.6744-0.6407 1.4002-0.869 1.6008" fill="none" stroke="#1f1a17" stroke-width=".1764"/>
    <path class="fil5 str0" d="m92.72 151.55c0.0999 0.9933-0.1285 2.3918 0.9633 4.3836" fill="none" stroke="#1f1a17" stroke-width=".1764"/>
    <path class="fil5 str0" d="m92.764 151.53c-0.4942 1.5217-0.2615 3.0052 0.1177 4.3238 0.4079 1.4187 0.5926 3.3691 0.7512 4.8919" fill="none" stroke="#1f1a17" stroke-width=".1764"/>
    <path class="fil5 str0" d="m108.7 141.74c-0.3904 2.4442-0.4111 5.583-0.3295 7.9772 0.095 2.7871 1.5578 5.5598 2.2705 7.8735" fill="none" stroke="#1f1a17" stroke-width=".1764"/>
    <path class="fil5 str0" d="m110.6 141.12c-0.0366-0.0042-0.2195 2.4794-0.2891 4.7436-0.0538 1.7493-0.0172 3.3679 0.2435 5.0869 0.1057 0.6967 0.251 1.509 0.4583 2.3334 0.5005 1.99 1.6586 4.5314 2.283 5.4765" fill="none" stroke="#1f1a17" stroke-width=".1764"/>
    <path class="fil5 str0" d="m116.69 149.69c-0.8192-0.0965-1.0833-0.349-1.4191-0.353-0.3749-0.0044-0.847 0.2959-1.0934 0.6419-0.5148 0.7231-1.4896 1.4512-1.7754 2.362-0.2492 0.7946-0.0377 2.2944 0.0199 3.1223 0.052 0.7476 0.2003 1.519 0.318 2.2937" fill="none" stroke="#1f1a17" stroke-width=".1764"/>
    <path class="fil5 str0" d="m116.35 150.88c-1.7675 0-2.4066 0.8714-2.6545 2.158-0.2789 1.4474 1.2765 5.3679 1.7238 6.4212" fill="none" stroke="#1f1a17" stroke-width=".1764"/>
    <path class="fil5 str0" d="m116.11 151.58c-1.6517 0-1.5062 2.3501-1.1438 4.4416 0.1716 0.9899 0.5287 2.1185 0.6532 2.7253" fill="none" stroke="#1f1a17" stroke-width=".1764"/>
    <path class="fil3 str0" d="m94.507 145.7c0.0673 1.011 0.5524 2.0775 0.984 2.8339 0.5177 0.9072 0.475 1.5668 0.1286 1.8244 0.4207 0.2446 0.6064 0.872 0.5659 1.697-0.0303 0.6167-0.1304 1.4643-0.5596 1.5459-0.5117 0.0974-0.817-0.8565-0.9175-1.2033-0.1843-0.6363-0.2983-1.3842-0.4463-1.9675-0.2656-1.0475-0.5081-2.2951-0.5375-3.0853-0.0281-0.753 0.1513-1.6081 0.7824-1.6451z" fill="#fffcc8" stroke="#1f1a17" stroke-width=".1764"/>
    <path class="fil3 str0" d="m92.09 148.73c-0.0374-0.2985 0.1421-1.0456 0.3201-1.2766 0.4002-0.5193 1.2646-0.5268 1.7915-0.2062 0.4272 0.26 0.5569 0.7905-0.0287 0.6771-0.2343-0.0453-0.5063-0.1039-0.7809-0.0865-0.2062 0.013-1.0939 0.7845-1.302 0.8922z" fill="#fffcc8" stroke="#1f1a17" stroke-width=".1764"/>
    <path class="fil3 str0" d="m92.641 150.73c0.1107 0.0098 0.2005 0.0379 0.2718 0.0778l0.0582 0.7085c-0.0572 0.0155-0.1243-8e-4 -0.1948-0.0639-0.2874-0.2572-0.7864-0.5136-0.9469-0.9308-0.1153-0.2999-0.0912-0.6384-0.0609-1.0475 0.0337-0.4555-0.0271-0.5071 0.3326-0.7808 0.2917-0.2219 0.613-0.5504 0.8867-0.7609 0.3074-0.2364 0.4366-0.2316 0.6998-0.1344 0.4046 0.1495 0.6556 0.4031 1.066 0.5356 0.2583 0.0835 0.2222 0.6269-0.1729 0.5585-0.1408-0.0243-0.2597-0.0873-0.3793-0.1422-0.2537-0.1163-0.4919-0.2347-0.8178-0.141-0.3941 0.1131-0.8331 0.424-1.2171 0.725 0.2709-0.1949 0.8159-0.6534 1.3189-0.7505 0.3723-0.0719 0.8348 0.2333 1.1687 0.3975 0.1732 0.0851 0.1462 0.3503 0.0016 0.4659-0.1277 0.1021-0.3581 0.0659-0.4671 9e-4 -0.1811-0.108-0.3889-0.134-0.595-0.0956-0.3704 0.0689-0.9674 0.5309-1.1834 0.711 0.3124-0.2666 0.6321-0.4798 0.908-0.6235 0.3142-0.1636 0.6661-0.1165 0.9507 0.0388 0.4576 0.2496 0.3403 0.5331 0.1696 0.6425-0.1604 0.1028-0.356 0.0277-0.5193 0.0281-0.271 7e-4 -0.5706 0.1013-0.7678 0.2795-0.1353 0.1224-0.3358 0.1853-0.5103 0.3015z" fill="#fffcc8" stroke="#1f1a17" stroke-width=".1764"/>
    <path class="fil3 str0" d="m119.12 152.09c0.7526-0.7297 1.5936-2.5838 1.3899-3.7455-0.2176-1.2413-2.3087-1.5103-3.3188-1.1682-0.4142 0.1403-0.4906 0.6597-0.0709 0.708 0.1247 0.0143 1.8191-0.658 2.7624 0.5625-0.1683-0.301-0.665-0.6037-1.2705-0.6957-0.6249-0.0948-1.3634 0.0291-1.8167 0.2368-0.4893 0.2242-0.374 0.7285 0.1761 0.6384 0.5999-0.0983 2.0268-0.0707 2.6832 0.8436-0.4639-0.8003-2.2032-1.0702-2.9125-0.7477-0.3576 0.1626-0.2871 0.6857 0.2947 0.5724 0.5993-0.1167 2.4399 0.7879 2.5965 0.9682-0.4252-0.317-1.8387-0.9855-2.4251-0.9685-0.1684 0.0048-0.3089 0.0165-0.4027 0.0605-0.1791 0.0838-0.2213 0.2353-0.1965 0.3314 0.0184 0.0712 0.0743 0.1413 0.1748 0.1684 0.6183 0.1664 1.4412 0.3418 1.9019 0.7863 0.3224 0.311 0.4065 0.7647 0.4342 1.4491z" fill="#fffcc8" stroke="#1f1a17" stroke-width=".1764"/>
    <path class="fil1 str0" d="m117.31 124.02c-0.3377-1.1194-0.7583-2.2113-1.3001-3.2629 0.6119-1.334 1.1217-2.736 1.5295-4.206 0.5821 1.3552 1.1344 2.7403 1.5805 4.2315-0.3676 1.1217-0.6947 2.2433-0.9942 3.3649l-0.8157-0.1275z" fill="#f8c300" stroke="#1f1a17" stroke-width=".1764"/>
    <line class="fil5 str0" x1="117.72" x2="117.52" y1="123.1" y2="116.7" fill="none" stroke="#1f1a17" stroke-width=".1764"/>
    <path class="fil1 str0" d="m117.62 123.84c0.4774 0 0.8667 0.3378 0.8667 0.752s-0.3893 0.752-0.8667 0.752-0.8667-0.3378-0.8667-0.752 0.3893-0.752 0.8667-0.752z" fill="#f8c300" stroke="#1f1a17" stroke-width=".1764"/>
    <line class="fil5 str0" x1="128.44" x2="126.38" y1="119.26" y2="125.4" fill="none" stroke="#1f1a17" stroke-width=".1764"/>
   
   <rect class="fil1" x="140" y="82.875" width="70" height="131.25" fill="#f8c300"/>
  
 </g>
</svg>
