<?xml version="1.0" encoding="UTF-8"?>
<svg width="600pt" height="364pt" sodipodi:docbase="D:\Inkscape-rysunki\nowe" sodipodi:docname="POL_powiat_kolski_flag.svg" sodipodi:version="0.32" version="1.0" xmlns="http://www.w3.org/2000/svg" xmlns:cc="http://web.resource.org/cc/" xmlns:dc="http://purl.org/dc/elements/1.1/" xmlns:rdf="http://www.w3.org/1999/02/22-rdf-syntax-ns#" xmlns:sodipodi="http://inkscape.sourceforge.net/DTD/sodipodi-0.dtd" xmlns:xlink="http://www.w3.org/1999/xlink">
<metadata>
<rdf:RDF>
<cc:Work rdf:about="">
<dc:format>image/svg+xml</dc:format>
<dc:type rdf:resource="http://purl.org/dc/dcmitype/StillImage"/>
</cc:Work>
</rdf:RDF>
</metadata>
<sodipodi:namedview bordercolor="#666666" borderopacity="1.0" pagecolor="#ffffff" showgrid="false" showguides="true"/>
<g transform="translate(-1.5969e-5)">
<rect x="3.6528" y="4.4899" width="742.73" height="444.42" fill="#fff" stroke="#000" stroke-linecap="round" stroke-linejoin="round" stroke-width="2.4803"/>
<g transform="matrix(.3715 0 0 .3715 238.15 56.957)">
<path d="m7.6742 8.261-0.04362 536.94c8.5169 206.05 169.14 369.65 365.32 369.65 196.17 0 360.58-164.04 369.1-370.1l0.2541-536.49h-734.63z" fill="#f00" fill-rule="evenodd" stroke="#000" stroke-linecap="round" stroke-linejoin="round" stroke-width="7.3952" sodipodi:nodetypes="ccsccc"/>
<path d="m370.66 481.25c-98.083 1.2385-177.31 80.883-177.31 178.84 0 98.732 80.474 178.87 179.62 178.88 99.151 0 179.63-80.143 179.62-178.88 0-98.732-80.474-178.84-179.62-178.84-0.77461 0-1.5402-0.00975-2.3125 0zm-6.9688 36.562c-0.21519 17.95 0.45699 36.27-9.9688 53.5 11.757 15.139 10.237 31.111 10 47-4.6693 1.0207-9.0673 2.8191-13.031 5.2188-0.00162 3.2e-4 -0.02419 1e-4 -0.03125 0-11.292-10.886-24.174-21.942-26.094-40.094-19.779-4.8891-32.811-17.884-45.438-31 22.949-19.847 52.322-32.567 84.562-34.625zm20.5 0.15625c31.512 2.4383 60.193 15.044 82.688 34.531-12.872 12.592-25.323 26.116-44.938 30.969-2.3701 19.05-14.754 29.305-26.156 40.406-3.5376-2.2154-7.3996-3.9458-11.531-5.0625-0.22819-15.796-1.5842-32.904 10.031-47.188-10.397-17.331-10.48-35.596-10.094-53.656zm-119.59 49c12.638 12.888 26.264 25.346 31.156 45 19.045 2.3427 29.295 14.711 40.406 26.094-2.2146 3.661-3.901 7.6701-4.9375 11.938-15.593 0.27752-32.388 1.481-46.469-9.9375-17.633 10.612-36.243 10.476-54.625 10.094 2.1928-31.698 14.824-60.543 34.469-83.188zm216.81 0.0625c19.422 22.417 31.946 50.908 34.312 82.219-18.108-0.1695-36.607 0.70994-54.031-9.75-15.128 11.834-31.141 10.333-47.062 10.156-0.99146-3.936-2.5287-7.6441-4.5312-11.062 10.972-11.33 22.068-24.374 40.344-26.281 4.9043-19.723 17.869-32.704 30.969-45.281zm-109.88 72.094c0.04295-0.00295 0.08198 0.00269 0.125 0 0.0054-3.4e-4 0.02598 1.2e-4 0.03125 0 0.02073 1.3e-4 0.04176-1.9e-4 0.0625 0 0.00528-1e-4 0.02584 3.1e-4 0.03125 0 0.08719-0.00493 0.16253 0.00387 0.25 0 0.31474-0.01391 0.61934 0 0.9375 0 11.636 0 21.094 9.3821 21.094 20.969s-9.458 21-21.094 21c-11.636-1e-5 -21.094-9.4133-21.094-21-2e-5 -11.095 8.7044-20.216 19.656-20.969zm133.91 30.562c3.4544-0.03061 6.9306 0.03059 10.375 0.09375-2.1372 31.692-14.699 60.544-34.281 83.219-12.688-12.896-26.335-25.339-31.281-45.031-19.022-2.2986-29.32-14.592-40.438-25.938 2.1863-3.6333 3.8454-7.6171 4.875-11.844 15.688-0.29913 32.636-1.5962 46.844 9.875 13.741-8.3095 28.067-10.117 42.438-10.344 0.49296-0.00777 0.97526-0.02688 1.4688-0.03125zm-186.56 0.65625c4.1402-0.03378 8.289 0.12915 12.438 0.1875 1.0957 4.3516 2.8678 8.4466 5.1875 12.156-10.833 11.097-21.92 23.589-39.844 25.344-5.0925 19.934-18.404 32.925-31.75 45.562-19.688-22.541-32.409-51.276-34.75-82.875 18.218 0.22621 36.83-0.6584 54.344 9.9062 10.715-8.3452 21.861-10.048 33.094-10.25 0.42818-0.00769 0.85296-0.02776 1.2812-0.03125zm76.469 26.25c11.3 10.843 24.201 21.885 26.156 40 19.821 4.8546 32.861 17.858 45.531 30.969-22.753 19.78-51.834 32.494-83.812 34.75 0.34398-18.055-0.28919-36.511 10.312-53.781-11.652-15.204-10.059-31.155-9.7188-47.031 4.1147-1.0714 7.9911-2.7446 11.531-4.9062zm-44.125 0.375c3.7062 2.1764 7.7538 3.8194 12.062 4.8125 0.16298 15.537 1.1648 32.257-10.312 46.188 10.404 17.597 10.236 36.086 9.7188 54.344-31.684-2.2402-60.526-14.745-83.188-34.219 13.076-12.604 25.65-26.262 45.469-31.031 2.4804-18.945 14.822-29.125 26.25-40.094z" fill="#ff0" stroke="#000" stroke-linecap="round" stroke-linejoin="round" stroke-width="7.0866"/>
<g transform="translate(928.06 -12)">
<path d="m-254.06 527.53c-6.6215-12.036-19.74-13.028-32.385-12.651-17.942 3.8172-24.154 4.5199-27.654 19.122 20.418 5.764 40.581 6.5491 60.039-6.4717z" fill="#fff" fill-rule="evenodd" stroke="#000" stroke-width="5.315" sodipodi:nodetypes="cccc"/>
<path d="m-264.07 652.77c12.73 5.1648 19.152-1.5601 33.111-10.607 7.6679-9.1192 15.894-18.741 9.4008-32.28-19.48 8.4039-35.623 20.511-42.511 42.887z" fill="#fff" fill-rule="evenodd" stroke="#000" stroke-width="5.315" sodipodi:nodetypes="cccc"/>
<path d="m-215.47 594.57c9.4478-9.973 3.9916-22.685 2.1858-34.699-5.2799-12.199-11.662-21.63-26.637-20.516 0.72873 21.203 6.1223 40.648 24.451 55.215z" fill="#fff" fill-rule="evenodd" stroke="#000" stroke-width="5.315" sodipodi:nodetypes="cccc"/>
<path d="m-329.47 544c-13.503 2.5259-18.176 13.415-22.143 26.805-2.6922 12.86-3.2593 24.356 9.5165 32.247 11.859-17.592 18.91-36.499 12.626-59.052z" fill="#fff" fill-rule="evenodd" stroke="#000" stroke-width="5.315" sodipodi:nodetypes="cccc"/>
<g transform="matrix(.086764 .19396 -.19396 .086764 -169.63 630.36)" fill-rule="evenodd" stroke-width="15.891">
<path d="m-246.3 102.92c9.0911 2.6738 20.583 0.54636 24.829 12.911 13.101-29.032 50.728-15.581 76.472-21.849-8.5766 10.617-15.783 22.261-13.904 40.719 12.087 4.2964 22.007 12.926 28.801 27.808l-27.808 0.99315c6.2943 4.1874 13.302 7.4232 11.918 21.849-40.868-13.032-67.727 14.415-89.616 47.986l-36.012-28.233c29.04-31.386 48.379-64.092 25.32-102.18z" fill="#ff0" stroke="#000" stroke-width="15.891" sodipodi:nodetypes="cccccccccc"/>
<path d="m-251.83 218.16c10.618-2.2697-2.5371-5.4072 38.073-47.186 20.222-19.305 42.946-21.006 65.783-19.396-21.064-11.055-40.165-8.3717-58.595-0.99315 12.77-21.375 29.937-36.887 50.65-47.671-24.136 2.198-40.005 16.796-53.63 34.76l-8.9383-14.897c5.9946 28.112-2.499 47.945-14.897 65.547-20.878 24.844-22.969 20.15-18.446 29.836z" fill="#002513" sodipodi:nodetypes="ccccccccc"/>
</g>
<path d="m-336.57 621.02c-1.6451 13.639 4.6361 19.531 18.92 29.169 12.579 5.7148 22.254 10.422 33.616 0.60486-13.219-16.594-29.137-28.996-52.536-29.774z" fill="#fff" fill-rule="evenodd" stroke="#000" stroke-width="5.315" sodipodi:nodetypes="cccc"/>
<g transform="matrix(-.15846 .14156 -.14156 -.15846 -287.99 706.72)" fill-rule="evenodd" stroke-width="15.891">
<path d="m-246.3 102.92c9.0911 2.6738 20.583 0.54636 24.829 12.911 13.101-29.032 50.728-15.581 76.472-21.849-8.5766 10.617-15.783 22.261-13.904 40.719 12.087 4.2964 22.007 12.926 28.801 27.808l-27.808 0.99315c6.2943 4.1874 13.302 7.4232 11.918 21.849-40.868-13.032-67.727 14.415-89.616 47.986l-36.012-28.233c29.04-31.386 48.379-64.092 25.32-102.18z" fill="#ff0" stroke="#000" stroke-width="15.891" sodipodi:nodetypes="cccccccccc"/>
<path d="m-251.83 218.16c10.618-2.2697-2.5371-5.4072 38.073-47.186 20.222-19.305 42.946-21.006 65.783-19.396-21.064-11.055-40.165-8.3717-58.595-0.99315 12.77-21.375 29.937-36.887 50.65-47.671-24.136 2.198-40.005 16.796-53.63 34.76l-8.9383-14.897c5.9946 28.112-2.499 47.945-14.897 65.547-20.878 24.844-22.969 20.15-18.446 29.836z" fill="#002513" sodipodi:nodetypes="ccccccccc"/>
</g>
<g transform="matrix(-.18561 -.10343 .10343 -.18561 -394.39 618.96)" fill-rule="evenodd" stroke-width="15.891">
<path d="m-246.3 102.92c9.0911 2.6738 20.583 0.54636 24.829 12.911 13.101-29.032 50.728-15.581 76.472-21.849-8.5766 10.617-15.783 22.261-13.904 40.719 12.087 4.2964 22.007 12.926 28.801 27.808l-27.808 0.99315c6.2943 4.1874 13.302 7.4232 11.918 21.849-40.868-13.032-67.727 14.415-89.616 47.986l-36.012-28.233c29.04-31.386 48.379-64.092 25.32-102.18z" fill="#ff0" stroke="#000" stroke-width="15.891" sodipodi:nodetypes="cccccccccc"/>
<path d="m-251.83 218.16c10.618-2.2697-2.5371-5.4072 38.073-47.186 20.222-19.305 42.946-21.006 65.783-19.396-21.064-11.055-40.165-8.3717-58.595-0.99315 12.77-21.375 29.937-36.887 50.65-47.671-24.136 2.198-40.005 16.796-53.63 34.76l-8.9383-14.897c5.9946 28.112-2.499 47.945-14.897 65.547-20.878 24.844-22.969 20.15-18.446 29.836z" fill="#002513" sodipodi:nodetypes="ccccccccc"/>
</g>
<g transform="matrix(.045219 -.20761 .20761 .045219 -343.85 488.3)" fill-rule="evenodd" stroke-width="15.891">
<path d="m-246.3 102.92c9.0911 2.6738 20.583 0.54636 24.829 12.911 13.101-29.032 50.728-15.581 76.472-21.849-8.5766 10.617-15.783 22.261-13.904 40.719 12.087 4.2964 22.007 12.926 28.801 27.808l-27.808 0.99315c6.2943 4.1874 13.302 7.4232 11.918 21.849-40.868-13.032-67.727 14.415-89.616 47.986l-36.012-28.233c29.04-31.386 48.379-64.092 25.32-102.18z" fill="#ff0" stroke="#000" stroke-width="15.891" sodipodi:nodetypes="cccccccccc"/>
<path d="m-251.83 218.16c10.618-2.2697-2.5371-5.4072 38.073-47.186 20.222-19.305 42.946-21.006 65.783-19.396-21.064-11.055-40.165-8.3717-58.595-0.99315 12.77-21.375 29.937-36.887 50.65-47.671-24.136 2.198-40.005 16.796-53.63 34.76l-8.9383-14.897c5.9946 28.112-2.499 47.945-14.897 65.547-20.878 24.844-22.969 20.15-18.446 29.836z" fill="#002513" sodipodi:nodetypes="ccccccccc"/>
</g>
<g transform="matrix(.21214 -.011918 .011918 .21214 -203.55 498.27)" fill-rule="evenodd" stroke-width="15.891">
<path d="m-246.3 102.92c9.0911 2.6738 20.583 0.54636 24.829 12.911 13.101-29.032 50.728-15.581 76.472-21.849-8.5766 10.617-15.783 22.261-13.904 40.719 12.087 4.2964 22.007 12.926 28.801 27.808l-27.808 0.99315c6.2943 4.1874 13.302 7.4232 11.918 21.849-40.868-13.032-67.727 14.415-89.616 47.986l-36.012-28.233c29.04-31.386 48.379-64.092 25.32-102.18z" fill="#ff0" stroke="#000" stroke-width="15.891" sodipodi:nodetypes="cccccccccc"/>
<path d="m-251.83 218.16c10.618-2.2697-2.5371-5.4072 38.073-47.186 20.222-19.305 42.946-21.006 65.783-19.396-21.064-11.055-40.165-8.3717-58.595-0.99315 12.77-21.375 29.937-36.887 50.65-47.671-24.136 2.198-40.005 16.796-53.63 34.76l-8.9383-14.897c5.9946 28.112-2.499 47.945-14.897 65.547-20.878 24.844-22.969 20.15-18.446 29.836z" fill="#002513" sodipodi:nodetypes="ccccccccc"/>
</g>
<path d="m-260.12 526.01c-1.0446 0.04565-2.1787 0.22254-3.4146 0.53601-6.2785 2.0061-12.165 8.93-19.653 8.993-8.141 1.712-16.433-5.1968-22.135-4.0697-8.264-1.4771-13.465 6.0262-4.6259 20.288-9.8229-7.8218-22.524-11.709-23.405 0.93358-0.05768 6.591 4.6639 14.347 2.3822 21.48-0.91942 8.2681-10.067 13.984-10.78 19.753-4.1335 7.6591 4.4038 11.917 18.667 10.575-11.787 8.4442-18.323 18.133-6.3586 22.836 6.2695 2.034 15.084-0.14905 21.202 4.1689 7.6106 3.3596 10.315 13.807 15.604 16.219 5.7184 5.8861 17.131 0.91297 16.093-12.751 1.0556 13.734 11.404 23.54 19.541 12.949 3.6904-5.4612 4.0233-14.533 9.8664-19.217 5.3354-6.3828 16.13-6.0876 19.912-10.502 7.0785-3.7793 5.5556-12.291-5.7897-18.277 12.667 0.09648 22.102-4.2414 15.577-14.697-3.8231-5.3692-13.17-8.8675-15.511-15.981-4.1102-7.2328 0.91104-17.226-1.8993-22.314-1.1018-8.2584-13.165-4.5241-19.766 0.56864 2.3061-7.2718 3.8958-21.903-5.5059-21.493z" fill="#fff" fill-rule="evenodd" stroke="#000" stroke-width="5.315" sodipodi:nodetypes="cccccccccccccccccccccc"/>
<g transform="matrix(.63526 0 0 .63526 -230.37 144.99)" fill="#ff0">
<path transform="matrix(.1107 .31563 -.31563 .1107 91.415 767.73)" d="m-312.84 433.63c3.5919 70.778 8.115 72.976 43.891 125.08-50.2-43.156-56.307-54.067-105.47-78.402l61.575-46.678z" fill-rule="evenodd" stroke="#000" stroke-width="15.89" sodipodi:nodetypes="cccc"/>
<path transform="matrix(.09146 -.32173 .32173 .09146 -174.76 535.53)" d="m-312.84 433.63c3.5919 70.778-7.0999 68.878 28.676 120.98-50.2-43.156-41.093-49.969-90.251-74.304l61.575-46.678z" fill-rule="evenodd" stroke="#000" stroke-width="15.89" sodipodi:nodetypes="cccc"/>
<path transform="matrix(-.27858 -.1851 .1851 -.27858 -258.47 736.49)" d="m-312.84 433.63c3.5919 70.778 14.551 74.096 50.327 126.2-50.2-43.156-62.744-55.187-111.9-79.521l61.575-46.678z" fill-rule="evenodd" stroke="#000" stroke-width="15.891" sodipodi:nodetypes="cccc"/>
<path transform="matrix(-.26293 .20674 -.20674 -.26293 -94.395 878.18)" d="m-312.84 433.63c3.5919 70.778 7.5733 77.008 43.349 129.11-50.2-43.156-55.766-58.1-104.92-82.434l61.575-46.678z" fill-rule="evenodd" stroke="#000" stroke-width="15.891" sodipodi:nodetypes="cccc"/>
<path transform="matrix(.33294 -.032045 .032045 .33294 32.236 549.8)" d="m-306.33 432.76c-1.9553 70.842-6.6313 65.433 24.959 120.18-46.67-46.95-42.893-50.352-89.997-78.457l65.037-41.718z" fill-rule="evenodd" stroke="#000" stroke-width="15.891" sodipodi:nodetypes="cccc"/>
<path d="m-78.815 666.25v0.01044c-14.531 0.294-26.228 12.069-26.228 26.528 0 14.459 11.697 26.224 26.228 26.518v0.01044c0.057764 0 0.1177-0.0101 0.17537-0.01044 0.012797 1.7e-4 0.026176-1.7e-4 0.038973 0 0.044846-3.7e-4 0.091605 5.4e-4 0.1364 0 0.010178 7e-5 0.019051-7e-5 0.029229 0 0.05768 3.4e-4 0.11761 0.01044 0.17538 0.01044v-0.01044c14.535-0.28989 26.238-12.056 26.238-26.518 1e-6 -14.462-11.703-26.238-26.238-26.528v-0.01044c-0.057767 0-0.1177 0.01007-0.17538 0.01044-0.010178 7e-5 -0.019051-7e-5 -0.029229 0-0.044797-5.7e-4 -0.091556 3.3e-4 -0.1364 0-0.012797 1.7e-4 -0.026176-1.7e-4 -0.038973 0-0.057677-3.7e-4 -0.11761-0.01044-0.17537-0.01044z" stroke="#000003" stroke-linecap="round" stroke-linejoin="round" stroke-width="5.315"/>
</g>
</g>
<g transform="translate(382.07 -12)">
<path d="m-254.06 527.53c-6.6215-12.036-19.74-13.028-32.385-12.651-17.942 3.8172-24.154 4.5199-27.654 19.122 20.418 5.764 40.581 6.5491 60.039-6.4717z" fill="#fff" fill-rule="evenodd" stroke="#000" stroke-width="5.315" sodipodi:nodetypes="cccc"/>
<path d="m-264.07 652.77c12.73 5.1648 19.152-1.5601 33.111-10.607 7.6679-9.1192 15.894-18.741 9.4008-32.28-19.48 8.4039-35.623 20.511-42.511 42.887z" fill="#fff" fill-rule="evenodd" stroke="#000" stroke-width="5.315" sodipodi:nodetypes="cccc"/>
<path d="m-215.47 594.57c9.4478-9.973 3.9916-22.685 2.1858-34.699-5.2799-12.199-11.662-21.63-26.637-20.516 0.72873 21.203 6.1223 40.648 24.451 55.215z" fill="#fff" fill-rule="evenodd" stroke="#000" stroke-width="5.315" sodipodi:nodetypes="cccc"/>
<path d="m-329.47 544c-13.503 2.5259-18.176 13.415-22.143 26.805-2.6922 12.86-3.2593 24.356 9.5165 32.247 11.859-17.592 18.91-36.499 12.626-59.052z" fill="#fff" fill-rule="evenodd" stroke="#000" stroke-width="5.315" sodipodi:nodetypes="cccc"/>
<g transform="matrix(.086764 .19396 -.19396 .086764 -169.63 630.36)" fill-rule="evenodd" stroke-width="15.891">
<path d="m-246.3 102.92c9.0911 2.6738 20.583 0.54636 24.829 12.911 13.101-29.032 50.728-15.581 76.472-21.849-8.5766 10.617-15.783 22.261-13.904 40.719 12.087 4.2964 22.007 12.926 28.801 27.808l-27.808 0.99315c6.2943 4.1874 13.302 7.4232 11.918 21.849-40.868-13.032-67.727 14.415-89.616 47.986l-36.012-28.233c29.04-31.386 48.379-64.092 25.32-102.18z" fill="#ff0" stroke="#000" stroke-width="15.891" sodipodi:nodetypes="cccccccccc"/>
<path d="m-251.83 218.16c10.618-2.2697-2.5371-5.4072 38.073-47.186 20.222-19.305 42.946-21.006 65.783-19.396-21.064-11.055-40.165-8.3717-58.595-0.99315 12.77-21.375 29.937-36.887 50.65-47.671-24.136 2.198-40.005 16.796-53.63 34.76l-8.9383-14.897c5.9946 28.112-2.499 47.945-14.897 65.547-20.878 24.844-22.969 20.15-18.446 29.836z" fill="#002513" sodipodi:nodetypes="ccccccccc"/>
</g>
<path d="m-336.57 621.02c-1.6451 13.639 4.6361 19.531 18.92 29.169 12.579 5.7148 22.254 10.422 33.616 0.60486-13.219-16.594-29.137-28.996-52.536-29.774z" fill="#fff" fill-rule="evenodd" stroke="#000" stroke-width="5.315" sodipodi:nodetypes="cccc"/>
<g transform="matrix(-.15846 .14156 -.14156 -.15846 -287.99 706.72)" fill-rule="evenodd" stroke-width="15.891">
<path d="m-246.3 102.92c9.0911 2.6738 20.583 0.54636 24.829 12.911 13.101-29.032 50.728-15.581 76.472-21.849-8.5766 10.617-15.783 22.261-13.904 40.719 12.087 4.2964 22.007 12.926 28.801 27.808l-27.808 0.99315c6.2943 4.1874 13.302 7.4232 11.918 21.849-40.868-13.032-67.727 14.415-89.616 47.986l-36.012-28.233c29.04-31.386 48.379-64.092 25.32-102.18z" fill="#ff0" stroke="#000" stroke-width="15.891" sodipodi:nodetypes="cccccccccc"/>
<path d="m-251.83 218.16c10.618-2.2697-2.5371-5.4072 38.073-47.186 20.222-19.305 42.946-21.006 65.783-19.396-21.064-11.055-40.165-8.3717-58.595-0.99315 12.77-21.375 29.937-36.887 50.65-47.671-24.136 2.198-40.005 16.796-53.63 34.76l-8.9383-14.897c5.9946 28.112-2.499 47.945-14.897 65.547-20.878 24.844-22.969 20.15-18.446 29.836z" fill="#002513" sodipodi:nodetypes="ccccccccc"/>
</g>
<g transform="matrix(-.18561 -.10343 .10343 -.18561 -394.39 618.96)" fill-rule="evenodd" stroke-width="15.891">
<path d="m-246.3 102.92c9.0911 2.6738 20.583 0.54636 24.829 12.911 13.101-29.032 50.728-15.581 76.472-21.849-8.5766 10.617-15.783 22.261-13.904 40.719 12.087 4.2964 22.007 12.926 28.801 27.808l-27.808 0.99315c6.2943 4.1874 13.302 7.4232 11.918 21.849-40.868-13.032-67.727 14.415-89.616 47.986l-36.012-28.233c29.04-31.386 48.379-64.092 25.32-102.18z" fill="#ff0" stroke="#000" stroke-width="15.891" sodipodi:nodetypes="cccccccccc"/>
<path d="m-251.83 218.16c10.618-2.2697-2.5371-5.4072 38.073-47.186 20.222-19.305 42.946-21.006 65.783-19.396-21.064-11.055-40.165-8.3717-58.595-0.99315 12.77-21.375 29.937-36.887 50.65-47.671-24.136 2.198-40.005 16.796-53.63 34.76l-8.9383-14.897c5.9946 28.112-2.499 47.945-14.897 65.547-20.878 24.844-22.969 20.15-18.446 29.836z" fill="#002513" sodipodi:nodetypes="ccccccccc"/>
</g>
<g transform="matrix(.045219 -.20761 .20761 .045219 -343.85 488.3)" fill-rule="evenodd" stroke-width="15.891">
<path d="m-246.3 102.92c9.0911 2.6738 20.583 0.54636 24.829 12.911 13.101-29.032 50.728-15.581 76.472-21.849-8.5766 10.617-15.783 22.261-13.904 40.719 12.087 4.2964 22.007 12.926 28.801 27.808l-27.808 0.99315c6.2943 4.1874 13.302 7.4232 11.918 21.849-40.868-13.032-67.727 14.415-89.616 47.986l-36.012-28.233c29.04-31.386 48.379-64.092 25.32-102.18z" fill="#ff0" stroke="#000" stroke-width="15.891" sodipodi:nodetypes="cccccccccc"/>
<path d="m-251.83 218.16c10.618-2.2697-2.5371-5.4072 38.073-47.186 20.222-19.305 42.946-21.006 65.783-19.396-21.064-11.055-40.165-8.3717-58.595-0.99315 12.77-21.375 29.937-36.887 50.65-47.671-24.136 2.198-40.005 16.796-53.63 34.76l-8.9383-14.897c5.9946 28.112-2.499 47.945-14.897 65.547-20.878 24.844-22.969 20.15-18.446 29.836z" fill="#002513" sodipodi:nodetypes="ccccccccc"/>
</g>
<g transform="matrix(.21214 -.011918 .011918 .21214 -203.55 498.27)" fill-rule="evenodd" stroke-width="15.891">
<path d="m-246.3 102.92c9.0911 2.6738 20.583 0.54636 24.829 12.911 13.101-29.032 50.728-15.581 76.472-21.849-8.5766 10.617-15.783 22.261-13.904 40.719 12.087 4.2964 22.007 12.926 28.801 27.808l-27.808 0.99315c6.2943 4.1874 13.302 7.4232 11.918 21.849-40.868-13.032-67.727 14.415-89.616 47.986l-36.012-28.233c29.04-31.386 48.379-64.092 25.32-102.18z" fill="#ff0" stroke="#000" stroke-width="15.891" sodipodi:nodetypes="cccccccccc"/>
<path d="m-251.83 218.16c10.618-2.2697-2.5371-5.4072 38.073-47.186 20.222-19.305 42.946-21.006 65.783-19.396-21.064-11.055-40.165-8.3717-58.595-0.99315 12.77-21.375 29.937-36.887 50.65-47.671-24.136 2.198-40.005 16.796-53.63 34.76l-8.9383-14.897c5.9946 28.112-2.499 47.945-14.897 65.547-20.878 24.844-22.969 20.15-18.446 29.836z" fill="#002513" sodipodi:nodetypes="ccccccccc"/>
</g>
<path d="m-260.12 526.01c-1.0446 0.04565-2.1787 0.22254-3.4146 0.53601-6.2785 2.0061-12.165 8.93-19.653 8.993-8.141 1.712-16.433-5.1968-22.135-4.0697-8.264-1.4771-13.465 6.0262-4.6259 20.288-9.8229-7.8218-22.524-11.709-23.405 0.93358-0.05768 6.591 4.6639 14.347 2.3822 21.48-0.91942 8.2681-10.067 13.984-10.78 19.753-4.1335 7.6591 4.4038 11.917 18.667 10.575-11.787 8.4442-18.323 18.133-6.3586 22.836 6.2695 2.034 15.084-0.14905 21.202 4.1689 7.6106 3.3596 10.315 13.807 15.604 16.219 5.7184 5.8861 17.131 0.91297 16.093-12.751 1.0556 13.734 11.404 23.54 19.541 12.949 3.6904-5.4612 4.0233-14.533 9.8664-19.217 5.3354-6.3828 16.13-6.0876 19.912-10.502 7.0785-3.7793 5.5556-12.291-5.7897-18.277 12.667 0.09648 22.102-4.2414 15.577-14.697-3.8231-5.3692-13.17-8.8675-15.511-15.981-4.1102-7.2328 0.91104-17.226-1.8993-22.314-1.1018-8.2584-13.165-4.5241-19.766 0.56864 2.3061-7.2718 3.8958-21.903-5.5059-21.493z" fill="#fff" fill-rule="evenodd" stroke="#000" stroke-width="5.315" sodipodi:nodetypes="cccccccccccccccccccccc"/>
<g transform="matrix(.63526 0 0 .63526 -230.37 144.99)" fill="#ff0">
<path transform="matrix(.1107 .31563 -.31563 .1107 91.415 767.73)" d="m-312.84 433.63c3.5919 70.778 8.115 72.976 43.891 125.08-50.2-43.156-56.307-54.067-105.47-78.402l61.575-46.678z" fill-rule="evenodd" stroke="#000" stroke-width="15.89" sodipodi:nodetypes="cccc"/>
<path transform="matrix(.09146 -.32173 .32173 .09146 -174.76 535.53)" d="m-312.84 433.63c3.5919 70.778-7.0999 68.878 28.676 120.98-50.2-43.156-41.093-49.969-90.251-74.304l61.575-46.678z" fill-rule="evenodd" stroke="#000" stroke-width="15.89" sodipodi:nodetypes="cccc"/>
<path transform="matrix(-.27858 -.1851 .1851 -.27858 -258.47 736.49)" d="m-312.84 433.63c3.5919 70.778 14.551 74.096 50.327 126.2-50.2-43.156-62.744-55.187-111.9-79.521l61.575-46.678z" fill-rule="evenodd" stroke="#000" stroke-width="15.891" sodipodi:nodetypes="cccc"/>
<path transform="matrix(-.26293 .20674 -.20674 -.26293 -94.395 878.18)" d="m-312.84 433.63c3.5919 70.778 7.5733 77.008 43.349 129.11-50.2-43.156-55.766-58.1-104.92-82.434l61.575-46.678z" fill-rule="evenodd" stroke="#000" stroke-width="15.891" sodipodi:nodetypes="cccc"/>
<path transform="matrix(.33294 -.032045 .032045 .33294 32.236 549.8)" d="m-306.33 432.76c-1.9553 70.842-6.6313 65.433 24.959 120.18-46.67-46.95-42.893-50.352-89.997-78.457l65.037-41.718z" fill-rule="evenodd" stroke="#000" stroke-width="15.891" sodipodi:nodetypes="cccc"/>
<path d="m-78.815 666.25v0.01044c-14.531 0.294-26.228 12.069-26.228 26.528 0 14.459 11.697 26.224 26.228 26.518v0.01044c0.057764 0 0.1177-0.0101 0.17537-0.01044 0.012797 1.7e-4 0.026176-1.7e-4 0.038973 0 0.044846-3.7e-4 0.091605 5.4e-4 0.1364 0 0.010178 7e-5 0.019051-7e-5 0.029229 0 0.05768 3.4e-4 0.11761 0.01044 0.17538 0.01044v-0.01044c14.535-0.28989 26.238-12.056 26.238-26.518 1e-6 -14.462-11.703-26.238-26.238-26.528v-0.01044c-0.057767 0-0.1177 0.01007-0.17538 0.01044-0.010178 7e-5 -0.019051-7e-5 -0.029229 0-0.044797-5.7e-4 -0.091556 3.3e-4 -0.1364 0-0.012797 1.7e-4 -0.026176-1.7e-4 -0.038973 0-0.057677-3.7e-4 -0.11761-0.01044-0.17537-0.01044z" stroke="#000003" stroke-linecap="round" stroke-linejoin="round" stroke-width="5.315"/>
</g>
</g>
<path d="m296.12 75.557c-0.51507 0-1.0301 0 0 0z" fill="none" stroke="#000" stroke-width="1.0617px"/>
<g transform="matrix(1.0456 0 0 1.0781 774.3 -15.792)">
<a fill="none">
<path d="m-459.67 90.048c-11.226-10.632-7.6686-27.81-1.5071-39.939 8.6463-12.744 20.746-15.129 35.417-9.7963 10.72 8.1195 19.528 18.15 33.91 22.607 50.364-10.722 75.322 32.651 72.342 61.792-2.3317 20.788-7.5782 42.549 1.5071 59.531 8.2382 15.071 12.856 30.142 15.071 45.214 37.821-4.4871 71.686-16.885 99.47-41.446 10.563-4.2686 6.7646-10.332 1.5071-16.578-24.457-16.175-26.588-77.706 31.65-86.66 45.412-5.2934 81.249 20.154 88.92 85.152 1.4267 38.18-6.0217 77.114-20.346 114.54-6.3872 64.731-25.533 103.95-45.967 146.94-6.1151 7.6742-10.44 15.945-10.55 25.621-8.5404 6.0285-14.066 6.0285-16.578 0l-9.0427-15.071c-13.051 9.6728-23.474-9.5499-34.664-20.346-15.872 15.381-26.233-5.0646-38.432-13.564l-15.071 2.2607 18.839 24.114-14.318 6.782c-2.1457 7.2844 4.2827 14.569 12.057 21.853 7.2707 7.4533 12.796 4.4366 18.085 0 7.7707-8.0605 16.968-14.124 34.664-8.2892 21.425 0.96791 19.552 13.584 21.853 24.114h-65.56l61.038 0.75356c7.8419 15.406 3.7092 27.546-10.55 36.925l-9.0427-15.071-14.318-0.75356 6.782 12.057c6.1778 26.999-10.196 34.038-20.346 37.678 6.4832-12.687 4.3157-19.966-5.2749-22.607-19.479-5.8863-18.453-11.305-20.346-21.1-6.3535-6.6344-8.1037-22.475-25.621-6.782-9.5206 4.6254-19.512 12.079-27.128 5.2749-3.3183 4.495-9.4403 7.588-5.2749 15.825-14.717-1.4464-28.822-32.752-0.75356-36.925 8.9262-8.7555 20.936-5.1772 31.65-6.782v-8.2892c-2.5427-4.3208-3.7597-7.8131-21.853-21.853l-7.5356 17.332c-15.581-7.5283-19.618-26.6-25.621-43.707-7.9767 8.6588-16.412 17.267-6.7821 27.882 15.2 15.566 13.686 30.15-5.2749 43.707-17.086 7.9308-41.668 9.0136-58.024-1.5071-15.054-8.8578-21.533-30.067-4.5214-38.432 0.81529-7.7489 3.4093-19.772-5.2749-25.621-9.6832 9.1276-15.685 21.016-17.332 36.171-8.2823 0.99103-13.007-5.1324-17.332-12.057-12.878 5.3135-23.199 12.332-24.114 25.621 8.9318 3.3763 30.342-1.958 34.664 6.7821 24.243 4.0134 22.32 24.341 3.7678 36.924 1.5856-6.1698 2.1284-6.4024-7.5356-9.7963-18.429 7.5616-22.14-13.206-32.403-14.318-7.5022-3.3409-10.691-0.2113-14.318 2.2607-22.73 5.3488-3.8495 25.802-30.896 33.157l1.5071 15.825c-18.003-1.6853-31.289-11.864-18.839-34.664l1.5071-7.5356c-16.448-8.0937-19.181 4.3858-24.114 13.564-14.892-9.1862-22.739-22.73-9.0427-34.664-8.7361-25.242 9.4437-30.134 25.621-29.389 11.46-1.1274 21.435 8.9591 30.896 10.55 14.992 5.9733 23.187-7.2312 27.128-24.868-4.5138 1.1416-8.9074 2.4637-17.332-2.2607 6.3189-8.5404 13.347-17.081 15.825-25.621-14.593 6.9912-13.113-0.08073-12.057-6.7821-13.017 12.898-30.635 32.338-36.925 13.564-6.5309 15.737-25.872 35.239-34.664 20.346-3.2388 16.142-11.581 25.554-20.346 27.882-12.098-30.027-59.29-103.62-61.792-177.09-22.821-60.29-43.571-198.15 60.285-204.97 51.918-4.8545 82.38 53.319 36.171 91.181-1.0478 4.2702-2.26 8.5404 4.5214 12.811 20.726 15.35 62.466 43.052 107.01 39.185 4.4902-15.853 11.312-26.958 24.898-36.894 3.4642-9.1281 10.228-20.431 18.808-24.144 7.1404-4.8084 8.1378-8.3234 3.0142-10.55-21.646-12.825-24.87-46.841-41.446-65.56-4.7726-7.4917-9.5451-6.0014-14.318-1.5071z" fill="#4f0108" fill-rule="evenodd" sodipodi:nodetypes="ccccccccccccccccccccccccccccccccccccccccccccccccccccccccccccccccccccccccccccccccc"/>
</a>
<path d="m-453.2 74.97c-5.8749-16.888 0.75789-29.534 14.632-29.382 14.893 5.004 20.878 18.035 38.432 22.607 0.22187 15.724-1.6163 33.164 3.0142 45.214 1.7557 12.032 17.941 14.633 7.5356 33.157-11.158 3.6749-19.309-1.2416-24.868-13.564-10.294-18.354-20.551-36.859-32.403-48.981-1.7748-4.7125 2.9949-7.579 6.0285-6.0285 13.075 15.28 26.989 29.824 33.91 50.489 2.1491 12.886 14.788 13.656 14.537 2.143-10.97-25.369-20.759-38.085-40.499-54.298-8.7294-15.435-18.586-11.776-20.32-1.355z" fill="#ff0" fill-rule="evenodd" stroke="#ff0" stroke-width="1px" sodipodi:nodetypes="cccccccccccc"/>
<path d="m-389.69 90.615c6.547-1.1231 10.897 2.8054 13.621 5.7897-4.9876 8.4361 3.5124 14.053 9.3013 9.764 3.2993-0.47893 3.5802 4.2653 2.3082 5.7694-2.6461 3.8133-13.266 3.5463-20.675-4.4246-3.6303-4.2408-6.0308-7.1171-4.5555-16.899z" fill="#c6c6c6" fill-rule="evenodd" sodipodi:nodetypes="cccccc"/>
<path d="m-329.63 111.94c-4.2186-20.532-20.936-42.27-51.67-44.519-8.3443 0.63053-12.193 9.4835-6.9201 15.686 13.909 5.6909 31.469 13.139 29.789 32.709-5.2193 3.6178-18.017 4.7392-25.175-1.3383-8.3085 10.411 17.403 22.599-6.2281 35.292-2.0951 19.519-24.795 22.694-22.836 37.368 19.993 2.2969 23.792-12.278 34.37-10.841 6.2046 1.0281 0.96637 14.826 7.6121 12.225 14.681-1.186 8.2905-12.013 17.3-11.533 10.183 4.2807-1.3465 12.478 29.756 10.841-15.167-31.643 0.94169-55.635-5.9974-75.89z" fill="#fff" fill-rule="evenodd" sodipodi:nodetypes="cccccccccccc"/>
<path d="m-438.39 219.33c27.064 6.9277 26.851-11.341 27.79-25.011-9.3637-2.9668-27.587 12.882-27.79 25.011z" fill="#fff" fill-rule="evenodd" sodipodi:nodetypes="ccc"/>
<path d="m-313.31 224.71c-27.815-2.6058-24.232-12.09-17.727-32.919 9.8157 0.36496 21.627 21.431 17.727 32.919z" fill="#fff" fill-rule="evenodd" sodipodi:nodetypes="ccc"/>
<path d="m-591.82 116.19c-7.6644-2.4901-11.294 3.0169-12.57 8.8737-3.4337-2.4468-13.615-4.1222-16.787 4.362-3.2203 8.6134 6.2394 14.864 13.089 13.672-6.2651 12.278-10.577 26.691-10.227 40.192 5.2359 62.824 102.06 80.003 162.17 85.765l-0.53712-12c-76.862-1.4671-148.34-35.575-150.51-73.445-0.68665-11.394 1.9957-26.826 7.783-37.57 3.0958 3.8473 14.3 6.169 18.055-1.5156 4.0314-8.2501-2.8332-14.127-7.5786-13.96 3.1127-3.0758 4.7215-11.645-2.8946-14.374z" fill="#ff0" sodipodi:nodetypes="ccsccccccscc"/>
<path d="m-455.13 234.89c4.3622 7.0851-0.54257 14.111-2.1098 18.231-52.669 0.48141-106.63-20.481-123.15-35.963-24.094-19.276-26.833-34.596-18.993-55.579 2.2477-7.8037 6.7524-8.8099 12.04-7.6804 10.649 1.3971 16.874-13.597 6.8501-24.909 4.7067-18.145-17.995-25.418-25.844-10.846-22.987-2.5505-25.097 20.587-10.379 28.023 2.6415 5.0635-0.58807 8.9404-1.604 12.068-14.677 45.186 11.521 55.93 11.256 70.6 0.79493 29.388-4.4581 33.037-14.634 36.222-10.83-5.6487-9.5519-14.248-14.738-30.462-1.3978 28.593-1.6828 45.802-15.257 48.521-12.258-34.202-33.624-106.89 2.1796-161.86 24.517-35.655 83.669-35.507 94.5-8.2512 12.109 27.992-0.65335 46.427-11.572 57.292-4.0962 6.4065-6.4741 13.955 2.8023 21.848 28.114 29.525 87.722 44.283 108.65 42.745z" fill="#fff" fill-rule="evenodd" sodipodi:nodetypes="cccccccccccccccccc"/>
<path d="m-601.19 229.35c-4.1168 8.1829-2.4222 37.947 13.104 45.452 13.244-5.7608 11.608-17.546 10.74-28.37-7.948-4.4288-15.896-9.7249-23.844-17.082z" fill="#fff" fill-rule="evenodd" sodipodi:nodetypes="cccc"/>
<path d="m-572.44 248.76c0.2098 12.018-1.229 27.695 10.859 32.63 12.394-4.5056 11.633-17.034 11.99-24.123-7.7547-2.1665-15.907-5.5278-22.849-8.5074z" fill="#f7f7ff" fill-rule="evenodd" sodipodi:nodetypes="cccc"/>
<path d="m-544.09 259.47c-0.34711 10.143 0.83769 23.28 10.24 29.767 6.387-2.7173 10.77-10.565 12.119-23.779-7.3765-1.7073-14.563-3.862-22.358-5.9878z" fill="#f7f7ff" fill-rule="evenodd" sodipodi:nodetypes="cccc"/>
<path d="m-518.29 265.92c-0.76726 10.583 0.98179 23.407 9.3163 26.306 6.809-0.50262 9.2303-9.7805 9.7637-22.834-5.5748-0.34631-13.925-2.286-19.08-3.4717z" fill="#f7f7ff" fill-rule="evenodd" sodipodi:nodetypes="cccc"/>
<path d="m-493.16 270.69c-0.76726 10.583 0.06743 21.495 8.402 24.394 6.809-0.50262 8.7316-9.3649 9.2649-22.419-5.5748-0.34631-12.512-0.78972-17.667-1.9755z" fill="#f7f7ff" fill-rule="evenodd" sodipodi:nodetypes="cccc"/>
<path d="m-471.3 273.26c-0.76726 10.583-0.68069 19.583 7.6538 22.482 6.809-0.50262 7.7341-9.0324 8.2674-22.086-7.1542 0.23556-10.766-0.29097-15.921-0.3961z" fill="#f7f7ff" fill-rule="evenodd" sodipodi:nodetypes="cccc"/>
<g transform="translate(-750.08 3.3212)" fill="#4f0108" fill-rule="evenodd">
<path d="m127.62 184.88c-3.2838 16.166-3.0701 30.583 2.4898 42.327 3.0287-2.9614 3.9994-11.273 4.9796-19.561-3.7952-6.5443-5.7429-14.567-7.4694-22.766z" sodipodi:nodetypes="cccc"/>
<path d="m158.17 233.66c0.20984 5.7123-0.66802 14.351 3.4772 19.276 2.4728-3.4768 3.2412-8.658 3.6347-14.214l-7.112-5.0618z" sodipodi:nodetypes="cccc"/>
<path d="m186.82 249.17c0.61444 5.5329 0.36543 10.486 3.2504 15.547 2.0575-3.2463 2.5022-7.9603 2.671-13.2l-5.9214-2.347z" sodipodi:nodetypes="cccc"/>
<path d="m214.75 258.65c0.61444 5.5329-0.84392 8.238 2.8285 13.771 3.4218-3.3813 2.4468-7.9657 3.6347-12.092l-6.4632-1.6794z" sodipodi:nodetypes="cccc"/>
<path d="m263.5 268.48c-0.05055 4.2029-0.51141 6.9013 2.4129 11.104 2.2068-2.7613 2.6324-6.1935 2.9947-10.712l-5.4076-0.39197z" sodipodi:nodetypes="cccc"/>
<path d="m283.93 270.15c0.61444 5.5329-0.59827 6.3988 3.0741 11.932 2.948-2.4766 1.9729-7.6585 2.821-11.702l-5.8951-0.22944z" sodipodi:nodetypes="cccc"/>
<path d="m239.74 264.02c-0.05055 4.951-1.1589 7.268 2.5135 12.801 1.8822-2.9845 2.5806-7.6634 2.8096-11.474l-5.3232-1.3264z" sodipodi:nodetypes="cccc"/>
</g>
<path d="m-515.9 267.35c-0.05249 0-0.10499 0 0 0z" fill="none" stroke="#000" stroke-width="1px"/>
<g fill="#fff" fill-rule="evenodd">
<path d="m-606.53 260.68c4.9233 65.366 38.613 167.21 18.483 188.72-2.432 7.8414-4.8639 5.1802-7.2959 4.3776-13.42-30.486-46.859-85.805-55.935-164.89 8.8455-0.3734 14.824-10.167 17.51-18.969 9.7134 45.772 16.508 93.733 31.129 130.35-11.994-42.32-18.875-89.753-27.238-133.76 8.5487 4.9226 17.529 0.75869 23.347-5.8367z" sodipodi:nodetypes="cccccccc"/>
<path d="m-577.84 273.81c-3.252 2.9801-6.9903 4.6977-9.7559 7.0562-3.7197-0.56222-6.4666-2.4141-9.6998-4.6242 6.4622 53.047 26.731 114.31 24.806 156.13 6.298 12.73 28.068-11.945 27.724-31.129l-5.3503-120.14c-4.0246 1.8557-8.0083 2.5342-11.672 5.5052-6.0849-2.8659-6.9881-3.4297-9.7291-7.9371l9.7279 111.38-16.051-116.25z" sodipodi:nodetypes="cccccccccc"/>
<path d="m-543.29 288.87 10.004 6.5191 9.8193-6.6441 2.7515 88.047 2.0636-84.607 8.9744 6.0654 8.2222-4.0018c-0.12243 29.265 0.3517 58.381-1.3757 88.047-2.9942 16.449-13.913 28.043-28.202 35.081-12.586-0.89521-5.9094-87.932-12.257-128.51z" sodipodi:nodetypes="cccccccccc"/>
<path d="m-493.18 296.01c5.9672 5.7647 10.257 6.4598 14.743 1.1126l-1.1127 67.316 7.2322-67.316c4.5676 1.6291 9.2208 5.4406 13.074 2.7816l-1.3908 48.957c-0.43573 19.718-11.454 51.479-31.154 53.686-11.979-5.2343 4.0797-4.8215-1.3908-106.54z" sodipodi:nodetypes="cccccccc"/>
</g>
<path d="m-168.82 116.19c7.6644-2.4901 11.294 3.0169 12.57 8.8737 3.4337-2.4468 13.615-4.1222 16.787 4.362 3.2203 8.6134-6.2394 14.864-13.089 13.672 6.2651 12.278 10.577 26.691 10.227 40.192-5.2359 62.824-102.06 80.003-162.17 85.765l0.53712-12c76.862-1.4671 148.34-35.575 150.51-73.445 0.68665-11.394-1.9957-26.826-7.783-37.57-3.0958 3.8473-14.3 6.169-18.055-1.5156-4.0314-8.2501 2.8332-14.127 7.5786-13.96-3.1127-3.0758-4.7215-11.645 2.8946-14.374z" fill="#ff0" sodipodi:nodetypes="ccsccccccscc"/>
<path d="m-302.19 234.66c-4.3622 7.0851-0.57273 12.624 0.9945 16.744 52.669 0.48141 106.63-20.481 123.15-35.963 21.81-18.706 25.691-33.454 17.852-54.437-2.2477-7.8037-5.6107-9.9515-10.898-8.8221-10.649 1.3971-16.874-13.597-6.8501-24.909-4.7067-18.145 17.995-25.418 25.844-10.846 22.987-2.5505 25.097 20.587 10.379 28.023-2.6415 5.0635 0.58807 8.9404 1.604 12.068 14.677 45.186-12.092 56.501-12.398 67.746-1.9366 21.967 2.7456 36.462 15.776 39.077 10.83-5.6487 10.694-19.385 14.738-30.462-1.4564 28.022 1.6828 45.232 15.257 47.951 12.258-34.202 33.624-106.32-2.1796-161.29-22.805-40.222-84.811-34.366-95.642-7.1096-12.109 27.992-1.0592 45.286 12.714 57.862 4.0962 6.4065 5.3324 11.101-3.944 18.993-28.114 29.525-85.465 46.911-106.39 45.374z" fill="#fff" fill-rule="evenodd" stroke="#000" stroke-width="1px" sodipodi:nodetypes="cccccccccccccccccc"/>
<g transform="matrix(-1 0 0 1 -759.47 0)">
<path d="m-601.19 229.35c-4.1168 8.1829-2.4222 37.947 13.104 45.452 13.244-5.7608 11.608-17.546 10.74-28.37-7.948-4.4288-15.896-9.7249-23.844-17.082z" fill="#fff" fill-rule="evenodd" sodipodi:nodetypes="cccc"/>
<path d="m-572.44 248.76c0.2098 12.018-1.229 27.695 10.859 32.63 12.394-4.5056 11.633-17.034 11.99-24.123-7.7547-2.1665-15.907-5.5278-22.849-8.5074z" fill="#f7f7ff" fill-rule="evenodd" sodipodi:nodetypes="cccc"/>
<path d="m-544.09 259.47c-0.34711 10.143 0.83769 23.28 10.24 29.767 6.387-2.7173 10.77-10.565 12.119-23.779-7.3765-1.7073-14.563-3.862-22.358-5.9878z" fill="#f7f7ff" fill-rule="evenodd" sodipodi:nodetypes="cccc"/>
<path d="m-518.29 265.92c-0.76726 10.583 0.98179 23.407 9.3163 26.306 6.809-0.50262 9.2303-9.7805 9.7637-22.834-5.5748-0.34631-13.925-2.286-19.08-3.4717z" fill="#f7f7ff" fill-rule="evenodd" sodipodi:nodetypes="cccc"/>
<path d="m-493.16 270.69c-0.76726 10.583 0.06743 21.495 8.402 24.394 6.809-0.50262 8.7316-9.3649 9.2649-22.419-5.5748-0.34631-12.512-0.78972-17.667-1.9755z" fill="#f7f7ff" fill-rule="evenodd" sodipodi:nodetypes="cccc"/>
<path d="m-471.3 273.26c-0.76726 10.583-0.68069 19.583 7.6538 22.482 6.809-0.50262 7.7341-9.0324 8.2674-22.086-7.1542 0.23556-10.766-0.29097-15.921-0.3961z" fill="#f7f7ff" fill-rule="evenodd" sodipodi:nodetypes="cccc"/>
<g transform="translate(-750.08 3.3212)" fill="#4f0108" fill-rule="evenodd">
<path d="m127.62 184.88c-3.2838 16.166-3.0701 30.583 2.4898 42.327 3.0287-2.9614 3.9994-11.273 4.9796-19.561-3.7952-6.5443-5.7429-14.567-7.4694-22.766z" sodipodi:nodetypes="cccc"/>
<path d="m158.17 233.66c0.20984 5.7123-0.66802 14.351 3.4772 19.276 2.4728-3.4768 3.2412-8.658 3.6347-14.214l-7.112-5.0618z" sodipodi:nodetypes="cccc"/>
<path d="m186.82 249.17c0.61444 5.5329 0.36543 10.486 3.2504 15.547 2.0575-3.2463 2.5022-7.9603 2.671-13.2l-5.9214-2.347z" sodipodi:nodetypes="cccc"/>
<path d="m214.75 258.65c0.61444 5.5329-0.84392 8.238 2.8285 13.771 3.4218-3.3813 2.4468-7.9657 3.6347-12.092l-6.4632-1.6794z" sodipodi:nodetypes="cccc"/>
<path d="m263.5 268.48c-0.05055 4.2029-0.51141 6.9013 2.4129 11.104 2.2068-2.7613 2.6324-6.1935 2.9947-10.712l-5.4076-0.39197z" sodipodi:nodetypes="cccc"/>
<path d="m283.93 270.15c0.61444 5.5329-0.59827 6.3988 3.0741 11.932 2.948-2.4766 1.9729-7.6585 2.821-11.702l-5.8951-0.22944z" sodipodi:nodetypes="cccc"/>
<path d="m239.74 264.02c-0.05055 4.951-1.1589 7.268 2.5135 12.801 1.8822-2.9845 2.5806-7.6634 2.8096-11.474l-5.3232-1.3264z" sodipodi:nodetypes="cccc"/>
</g>
<path d="m-515.9 267.35c-0.05249 0-0.10499 0 0 0z" fill="none" stroke="#000" stroke-width="1px"/>
</g>
<g transform="matrix(-1 0 0 1 -760.32 .44359)" fill="#fff" fill-rule="evenodd">
<path d="m-606.53 260.68c4.9233 65.366 38.613 167.21 18.483 188.72-2.432 7.8414-4.8639 5.1802-7.2959 4.3776-13.42-30.486-46.859-85.805-55.935-164.89 8.8455-0.3734 14.824-10.167 17.51-18.969 9.7134 45.772 16.508 93.733 31.129 130.35-11.994-42.32-18.875-89.753-27.238-133.76 8.5487 4.9226 17.529 0.75869 23.347-5.8367z" sodipodi:nodetypes="cccccccc"/>
<path d="m-577.84 273.81c-3.252 2.9801-6.9903 4.6977-9.7559 7.0562-3.7197-0.56222-6.4666-2.4141-9.6998-4.6242 6.4622 53.047 26.731 114.31 24.806 156.13 6.298 12.73 28.068-11.945 27.724-31.129l-5.3503-120.14c-4.0246 1.8557-8.0083 2.5342-11.672 5.5052-6.0849-2.8659-6.9881-3.4297-9.7291-7.9371l9.7279 111.38-16.051-116.25z" sodipodi:nodetypes="cccccccccc"/>
<path d="m-543.29 288.87 10.004 6.5191 9.8193-6.6441 2.7515 88.047 2.0636-84.607 8.9744 6.0654 8.2222-4.0018c-0.12243 29.265 0.3517 58.381-1.3757 88.047-2.9942 16.449-13.913 28.043-28.202 35.081-12.586-0.89521-5.9094-87.932-12.257-128.51z" sodipodi:nodetypes="cccccccccc"/>
<path d="m-493.18 296.01c5.9672 5.7647 10.257 6.4598 14.743 1.1126l-1.1127 67.316 7.2322-67.316c4.5676 1.6291 9.2208 5.4406 13.074 2.7816l-1.3908 48.957c-0.43573 19.718-11.454 51.479-31.154 53.686-11.979-5.2343 4.0797-4.8215-1.3908-106.54z" sodipodi:nodetypes="cccccccc"/>
</g>
<g fill="#ff0" fill-rule="evenodd">
<path d="m-441.1 489.66c11.194 1.8293 10.796 15.088 3.1549 20.829-0.91398-5.2162-5.073-5.0478-7.6052-5.4242-3.4752-7.6143-1.1885-12.348 4.4503-15.405z" sodipodi:nodetypes="cccc"/>
<path d="m-537.6 516.66c6.9838 0.25987 9.2572 2.2364 11.678 9.797-5.4042 1.7028-7.5257 6.0632-6.4125 12.656-13.531-3.6305-11.662-18.187-5.2656-22.453z" sodipodi:nodetypes="cccc"/>
<path d="m-558.4 485.25c2.6616 4.2334 4.3554 6.754 2.0963 12.536-7.2166 3.254-11.467 3.4704-12.063 8.2511-6.6571-3.9958-9.2403-21.55 9.9664-20.787z" sodipodi:nodetypes="cccc"/>
<path d="m-557.93 461.89c3.276 4.9068 2.0223 8.9136-0.17296 13.82-8.9974-2.5979-8.1309-2.6041-13.344 2.3892-1.863-10.583-0.05731-17.122 13.517-16.209z" sodipodi:nodetypes="cccc"/>
<path d="m-479.54 436.87c-9.1897 18.347-9.4348 27.908-24.51 38.75-9.2658 1.2769-17.493-2.4988-24.055-6.3385-5.0729-4.9948-12.838-9.2359-21.122-6.116 0.96155 5.2491-0.26425 7.1983-2.0576 12.447 4.2455 1.5508 6.2998 2.9841 12.363 0.89997 11.717-1.6037 22.629-1.0909 31.022 3.981-13.306 0.77468-18.854 2.4092-26.723 1.4935-8.0143-0.93266-12.588-3.3116-17.862 1.1145 2.1914 6.4285 0.65213 8.7966 0.63874 13.436 5.8196 5.0994 10.528 1.8094 16.347-1.927 2.3229-10.717 16.947-6.354 22.798-5.4701-1.6021 7.1844-2.6851 5.8883-5.5089 10.351-10.083 2.4468-14.599 6.0245-13.778 12.409 3.5689 2.2286 7.6543 5.2242 10.651 10.097 3.5003 0.87535 6.745-3.5666 6.8395-12.109 10.297-15.395 17.316-30.717 47.422-17.59 0.25728 9.4534 3.6018 9.4762 15.317 12.843-1.126-5.7133 0.15807-12.4 3.7656-16.09-3.646-7.6413-7.545-7.9174-16.771-7.1079l-13.012-0.42343c-8.7625-2.2263-10.174-2.203-6.2926-11.639 8.7484-14.028 9.8063-13.253 22.615-25.657-3.3757-4.6185-11.041-9.9859-18.087-7.3548z" sodipodi:nodetypes="cccccccscccccccccccccccc"/>
</g>
<g transform="matrix(-1 0 0 1 -762.11 0)" fill="#ff0" fill-rule="evenodd">
<path d="m-441.1 489.66c11.194 1.8293 10.796 15.088 3.1549 20.829-0.91398-5.2162-5.073-5.0478-7.6052-5.4242-3.4752-7.6143-1.1885-12.348 4.4503-15.405z" sodipodi:nodetypes="cccc"/>
<path d="m-537.6 516.66c6.9838 0.25987 9.2572 2.2364 11.678 9.797-5.4042 1.7028-7.5257 6.0632-6.4125 12.656-13.531-3.6305-11.662-18.187-5.2656-22.453z" sodipodi:nodetypes="cccc"/>
<path d="m-558.4 485.25c2.6616 4.2334 4.3554 6.754 2.0963 12.536-7.2166 3.254-11.467 3.4704-12.063 8.2511-6.6571-3.9958-9.2403-21.55 9.9664-20.787z" sodipodi:nodetypes="cccc"/>
<path d="m-557.93 461.89c3.276 4.9068 2.0223 8.9136-0.17296 13.82-8.9974-2.5979-8.1309-2.6041-13.344 2.3892-1.863-10.583-0.05731-17.122 13.517-16.209z" sodipodi:nodetypes="cccc"/>
<path d="m-479.54 436.87c-9.1897 18.347-9.4348 27.908-24.51 38.75-9.2658 1.2769-17.493-2.4988-24.055-6.3385-5.0729-4.9948-12.838-9.2359-21.122-6.116 0.96155 5.2491-0.26425 7.1983-2.0576 12.447 4.2455 1.5508 6.2998 2.9841 12.363 0.89997 11.717-1.6037 22.629-1.0909 31.022 3.981-13.306 0.77468-18.854 2.4092-26.723 1.4935-8.0143-0.93266-12.588-3.3116-17.862 1.1145 2.1914 6.4285 0.65213 8.7966 0.63874 13.436 5.8196 5.0994 10.528 1.8094 16.347-1.927 2.3229-10.717 16.947-6.354 22.798-5.4701-1.6021 7.1844-2.6851 5.8883-5.5089 10.351-10.083 2.4468-14.599 6.0245-13.778 12.409 3.5689 2.2286 7.6543 5.2242 10.651 10.097 3.5003 0.87535 6.745-3.5666 6.8395-12.109 10.297-15.395 17.316-30.717 47.422-17.59 0.25728 9.4534 3.6018 9.4762 15.317 12.843-1.126-5.7133 0.15807-12.4 3.7656-16.09-3.646-7.6413-7.545-7.9174-16.771-7.1079l-13.012-0.42343c-8.7625-2.2263-10.174-2.203-6.2926-11.639 8.7484-14.028 9.8063-13.253 22.615-25.657-3.3757-4.6185-11.041-9.9859-18.087-7.3548z" sodipodi:nodetypes="cccccccscccccccccccccccc"/>
</g>
<path d="m-346.79 469.91a34.199 20.399 0 1 1-68.398 0 34.199 20.399 0 1 1 68.398 0z" fill="#ff0" sodipodi:cx="-380.98627" sodipodi:cy="469.91071" sodipodi:rx="34.198769" sodipodi:ry="20.399265" sodipodi:type="arc"/>
<path d="m-394.82 188.66c5.9498-1.3609 8.146-4.4486 11.897-6.6918l4.833 9.2942c-1.9696 7.2139-7.0484 8.2093-11.897 9.666-2.6813-2.3055-5.0795-5.0831-4.833-12.268z" fill="#fff" fill-rule="evenodd" sodipodi:nodetypes="ccccc"/>
<path d="m-354.67 183.83c-3.4698 3.5824-6.9396 7.9031-10.409 8.5506 0.75098 8.9001 4.1266 9.9262 7.8071 10.038 5.4361-0.7682 8.9388-4.4366 10.409-11.153-2.6024-0.86962-5.2047-3.5959-7.8071-7.4354z" fill="#fff" fill-rule="evenodd" sodipodi:nodetypes="ccccc"/>
<path d="m-372.51 195.35c-3.8416 4.0864-7.6832 9.8333-11.525 9.2942 1.4318 4.8196 5.138 8.808 8.5506 9.6659 4.7199-0.10948 8.6139-3.4267 10.409-7.4353-3.8667-1.0651-5.4594-6.6781-7.4354-11.525z" fill="#fff" fill-rule="evenodd" sodipodi:nodetypes="ccccc"/>
<path d="m-405.97 198.7c-2.9151 16.175-1.3933 27.913 8.5506 31.228 9.1068-1.7205 13.691-6.8329 14.871-14.499-0.88839-7.7736-6.1234-8.5927-11.897-8.5506-1.7692-13.779-6.914-9.5548-11.525-8.1789z" fill="#fff" fill-rule="evenodd" sodipodi:nodetypes="ccccc"/>
<path d="m-343.88 197.95c-4.4612 6.2868-8.9224 9.1501-13.384 11.525-3.3767-1.8903-8.9011 5.6366-14.127 9.2942 0.07201 6.6558 5.6555 8.5112 11.525 12.268 10.041-4.5938 19.537-10.036 20.819-28.254l-4.833-4.833z" fill="#fff" fill-rule="evenodd" sodipodi:nodetypes="cccccc"/>
<path d="m-431.33 225.17c-5.0774-0.55782-6.8288 0.05309-11.726-3.0768-4.5234 8.7246-10.389 34.921-8.2945 36.641 10.003 5.9575 25.788-13.157 20.021-33.564z" fill="#fff" fill-rule="evenodd" sodipodi:nodetypes="cccc"/>
<path d="m-413.08 221.34c-4.3575 2.0561-5.5092 5.3388-12.66 5.2996-2.2414 18.67-4.5322 36.613 9.4216 40.631 7.8367-0.39325 14.604-8.0539 13.838-35.037-7.8088-2.8392-8.545-7.3352-10.599-10.894z" fill="#fff" fill-rule="evenodd" sodipodi:nodetypes="ccccc"/>
<path d="m-379.94 241.38c-0.64197 0.88687 0.27308-19.088-0.47352-18.13-3.6413 4.6725-8.5303 9.6671-14.699 9.8709-2.1459 16.205-2.2295 30.817 12.66 33.859 17.731-3.7217 15.498-19.24 16.782-32.681-4.6832-1.4573-8.0512-6.3462-10.992-11.109-0.56986-0.92288-2.7329 19.079-3.2771 18.191z" fill="#fff" fill-rule="evenodd" sodipodi:nodetypes="ccccccc"/>
<path d="m-338.59 219.87c-6.2723 8.7094-12.475 12.583-20.904 15.016-1.9731 15.133 1.6919 25.88 13.838 30.031 12.82-3.6502 13.428-18.87 11.483-36.509 0.67165-5.5258-2.0649-6.7914-4.4164-8.5383z" fill="#fff" fill-rule="evenodd" sodipodi:nodetypes="ccccc"/>
<path d="m-330.05 225.46c6.9114 3.4183 11.116 4.3665 20.021 3.8275 2.1012 9.2052 1.9063 19.558 0.88328 30.326-17.135-1.6414-20.526-14.773-20.904-34.153z" fill="#fff" fill-rule="evenodd" sodipodi:nodetypes="cccc"/>
<path d="m-435.49 280.14c-0.70314 0.63483 1.0886-20.512 0.39347-19.861-4.1493 3.8854-8.2945 7.779-14.094 8.3645 0.14939 15.232-3.4704 32.903 12.508 37.893 10.261 0.35282 12.708-16.484 13.244-37.525-3.9273-1.645-6.6567-4.4879-8.5093-8.2076-0.38978-0.7826-3.2277 20.193-3.5428 19.336z" fill="#fff" fill-rule="evenodd" sodipodi:nodetypes="ccccccc"/>
<path d="m-402.24 280.44c-0.61302 0.60435 1.0988-19.385 0.45592-18.732-4.7434 4.8161-10.249 10.427-15.774 9.1415-2.4957 13.885-2.0984 29.495 12.876 40.468 16.046-10.098 16.105-14.818 16.555-39.364-4.3392-3.4425-7.543-6.885-10.336-10.328-0.49024-0.60427-3.3085 19.418-3.7773 18.814z" fill="#fff" fill-rule="evenodd" sodipodi:nodetypes="ccccccc"/>
<path d="m-365.68 260.55c-4.6507 6.6684-10.556 9.2732-16.187 11.037-1.5472 20.218 0.8319 31.079 16.923 39.732 17.551-3.911 21.998-21.512 19.498-41.204-5.353-2.4211-10.69-4.9237-15.084-12.14 0.34176 11.081-1.3885 15.946-2.9431 21.338-1.9022-5.3628-2.2657-10.459-2.2074-18.762z" fill="#fff" fill-rule="evenodd" sodipodi:nodetypes="ccccccc"/>
<path d="m-330.37 254.29c-2.89 5.0114-5.3998 10.783-9.1973 13.98-2.3516 27.053 2.1952 33.247 13.244 38.261 9.0489-3.1809 15.915-12.668 16.187-41.204-6.8674-3.9242-15.294-6.0089-16.555-9.933l1.1037 15.084c-2.7938-1.797-3.927-8.5755-4.7826-16.187z" fill="#fff" fill-rule="evenodd" sodipodi:nodetypes="ccccccc"/>
<path d="m-440.77 355.47v0z" fill="none" stroke="#000" stroke-width="1px"/>
<path d="m-440.44 355.8c-15.89-6.8472-10.72-31.86-11.362-53.133 4.84 4.5276 11.122 10.077 17.711 7.6859-0.01135 15.386 4.4792 41.912-6.3492 45.447z" fill="#fff" fill-rule="evenodd" sodipodi:nodetypes="cccc"/>
<path d="m-421.39 302.33c-3.0075 4.4556-6.0151 6.8889-9.0226 8.6884 1.7437 17.848 0.34317 37.792 17.377 45.447 9.9176-3.8937 9.5042-21.297 8.0201-40.1-5.8274-2.0937-11.433-5.7404-16.374-14.035z" fill="#fff" fill-rule="evenodd" sodipodi:nodetypes="ccccc"/>
<path d="m-386.64 300.33c-3.5645 6.4727-8.4656 10.761-12.03 13.701-1.3916 21.553 1.6622 38.204 15.372 41.103 14.372-0.8543 14.875-19.658 14.369-39.766-5.0706-2.9981-10.187-8.4854-14.369-15.038 0.56396 8.5864 1.075 17.993-1.0025 23.058-2.5372-4.728-2.4698-12.994-2.3392-23.058z" fill="#fff" fill-rule="evenodd" sodipodi:nodetypes="ccccccc"/>
<path d="m-343.19 299.66c-5.2841 6.92-10.8 13.377-18.714 15.038 1.5497 14.821-4.8806 34.806 10.359 40.769 15.625-6.6549 17.657-26.103 18.379-46.784-6.6392-1.6886-7.525-5.6784-10.025-9.0226z" fill="#fff" fill-rule="evenodd" sodipodi:nodetypes="ccccc"/>
<path d="m-312.78 302.33 0.66834 43.776c-1.1536 6.4927-4.5591 8.4815-8.3543 9.691-13.876 1.687-6.6659-28.959-8.6884-45.447 6.9375-0.20771 12.103-3.368 16.374-8.0201z" fill="#fff" fill-rule="evenodd" sodipodi:nodetypes="ccccc"/>
<path d="m-448.26 360.34c-0.2716 11.362-9.8066 22.192-14.896 33.554 14.394 3.0804 24.9-9.284 32.556-33.316-5.5209 1.9768-10.371 4.8597-17.66-0.23798z" fill="#fff" fill-rule="evenodd" sodipodi:nodetypes="cccc"/>
<path d="m-313.45 361.15c3.4856 15.53 9.6823 25.637 16.709 34.085-12.91-0.02866-27.121-8.1652-32.749-32.08 6.222 2.8326 11.6 2.2909 16.04-2.005z" fill="#fff" fill-rule="evenodd" sodipodi:nodetypes="cccc"/>
<path d="m-426.34 373.91c-0.05204 10.932-0.30395 21.914 4.6718 31.589-25.701 7.856-14.932-29.427-4.6718-31.589z" fill="#fff" fill-rule="evenodd" sodipodi:nodetypes="ccc"/>
<path d="m-424.63 356.62c3.0696 1.9368 5.8137 4.8506 9.458 5.0632l3.4784 13.504 1.5291-14.319c4.2063 0.39252 7.0947-5.4873 10.134-7.4286 0.85459 13.948 0.30895 34.886 3.9922 41.129 1.5727 5.5858-3.2391 12.311-8.7885 11.722-20.849-0.01224-14.899-32.119-19.803-49.671z" fill="#fff" fill-rule="evenodd" sodipodi:nodetypes="cccccccc"/>
<path d="m-394.44 355.12c3.0946 3.3009 5.6863 7.2053 11.879 6.7881 5.1198-0.23717 8.9928-4.2147 12.849-8.2427-0.4498 19.699 5.2911 45.896-11.394 52.366-11.964-8.9656-11.067-32.247-13.334-50.911z" fill="#fff" fill-rule="evenodd" sodipodi:nodetypes="ccccc"/>
<path d="m-352.26 361.18c-2.9325-0.16247-6.4419-2.3439-10.667-7.0306 0.64739 18.246-6.8349 46.248 5.3335 50.669 13.528-6.6508 18.785-27.775 22.061-52.366-5.2322 4.1123-10.257 8.9503-16.728 8.7276z" fill="#fff" fill-rule="evenodd" sodipodi:nodetypes="ccccc"/>
<path d="m-332.62 368.94c-10.807 22.173-11.571 37.461 0.24243 44.123 8.6628-6.4424 12.29-29.038-0.24243-44.123z" fill="#fff" fill-rule="evenodd" sodipodi:nodetypes="ccc"/>
<path d="m-465.44 403.63c-10.343-5.9002-30.688 20.421-29.12 31.253 9.4333 0.06363 16.28-4.8318 22.428-11.522 4.7945-5.2169 11.24-16.887 6.6916-19.732z" fill="#fff" fill-rule="evenodd" sodipodi:nodetypes="ccsc"/>
<path d="m-297.57 400.91c4.757-3.753 11.44 2.5635 18.097 9.5354 5.8656 6.1432 13.246 12.868 10.247 19.778-11.083 5.1896-14.738-2.9578-20.706-9.8487-5.695-6.5756-9.5606-14.883-7.638-19.465z" fill="#fff" fill-rule="evenodd" sodipodi:nodetypes="cscsc"/>
<path d="m-322.12 405.65c8.1705 5.5481 12.358 45.854 2.1057 46.686-5.1553-8.7831-14.408-23.29-12.569-33.929 2.9872-1.9543 9.0079-6.4863 10.463-12.756z" fill="#fff" fill-rule="evenodd" sodipodi:nodetypes="cccc"/>
<path d="m-437.16 409.61c11.307 4.1188 8.8338 18.048-6.0123 40.784-17.289-17.846-1.0378-28.301 6.0123-40.784z" fill="#fff" fill-rule="evenodd" sodipodi:nodetypes="ccc"/>
<path d="m-445.69 399.61c4.7124 8.7953 0.88256 10.558-2.939 18.064-4.3597 8.5621-8.1963 16.825-17.176 17.013-2.5194-14.753 0.93959-16.863 4.7886-23.066 5.1202-8.2509 6.0079-14.854 15.326-12.011z" fill="#fff" fill-rule="evenodd" sodipodi:nodetypes="cscsc"/>
<path d="m-319.35 399.78c2.7201 11.858 15.134 37.515 25.268 35.575 2.0552-12.138-2.3592-16.914-6.2434-25.146-3.7319-7.9085-0.72125-13.162-19.025-10.43z" fill="#fff" fill-rule="evenodd" sodipodi:nodetypes="ccsc"/>
<path d="m-415.72 408.1c4.4049 2.0626 9.4597 3.4928 14.081 1.7331l3.0329 35.961-6.0658 1.7331c-5.0115-5.4721-7.8941-11.599-5.4284-19.372-4.0246-5.968-8.3327-11.841-5.6199-20.055z" fill="#fff" fill-rule="evenodd" sodipodi:nodetypes="cccccc"/>
<path d="m-391.24 402.04c-1.8053 4.2687-3.6106 6.1724-5.4158 7.5822l3.2495 34.445 9.0986-0.43326-0.21664-33.795c-2.4734-2.2473-5.3222-3.9316-6.7157-7.7988z" fill="#fff" fill-rule="evenodd" sodipodi:nodetypes="cccccc"/>
<path d="m-379.76 410.27c4.3305-0.87092 7.8284-5.5734 11.048-8.6654 1.3267 2.3695 2.4626 5.9176 6.0658 7.1489l-8.882 35.095-7.5822-0.86654-0.6499-32.712z" fill="#fff" fill-rule="evenodd" sodipodi:nodetypes="cccccc"/>
<path d="m-355.03 428.97c3.9357-4.5007 5.9751-14.69 7.7627-25.635-3.4129 2.9502-6.6948 6.097-11.157 7.4739l-8.6994 33.29 8.3744 2.5624c4.2322-0.76721 2.9169-11.044 3.7189-17.692z" fill="#fff" fill-rule="evenodd" sodipodi:nodetypes="cccccc"/>
<path d="m-390.44 496.55c0.16392-0.16391 0.32783-0.32783 0 0z" fill="none" stroke="#000" stroke-width="1px"/>
</g>
</g>
<rect x="4.6559" y="4.4899" width="145.67" height="444.42" fill="#f00"/>
<rect x="600.97" y="4.4899" width="144.41" height="444.42" fill="#f00"/>
</g>
</svg>
