<?xml version="1.0" encoding="UTF-8"?>
<!DOCTYPE svg PUBLIC "-//W3C//DTD SVG 1.1//EN" "http://www.w3.org/Graphics/SVG/1.1/DTD/svg11.dtd">
<!-- Creator: CorelDRAW -->
<svg xmlns="http://www.w3.org/2000/svg" xml:space="preserve" width="1772px" height="1063px" style="shape-rendering:geometricPrecision; text-rendering:geometricPrecision; image-rendering:optimizeQuality; fill-rule:evenodd; clip-rule:evenodd"
viewBox="0 0 1398.95 839.368"
 xmlns:xlink="http://www.w3.org/1999/xlink">
 <defs>
  <style type="text/css">
   <![CDATA[
    .fil1 {fill:red}
    .fil0 {fill:white}
   ]]>
  </style>
 </defs>
 <g id="Capa_x0020_1">
  <metadata id="CorelCorpID_0Corel-Layer"/>
  <polygon class="fil0" points="0,0 1398.95,419.684 0,839.368 "/>
  <g id="_230019224">
   <path id="_98475096" class="fil1" d="M340.591 222.271c-3.54773,-2.25137 -12.2333,-1.27677 -17.873,-1.27677l0 -14.0426 0 -2.55355c-2.25044,3.54773 -1.27677,12.2333 -1.27677,17.873l19.1497 0z"/>
   <path id="_98475312" class="fil1" d="M358.463 222.271l19.1488 0c0,-5.63962 0.9746,-14.3252 -1.27677,-17.873l0 16.5962c-5.63869,0 -14.3243,-0.9746 -17.872,1.27677z"/>
   <path id="_230015864" class="fil1" d="M322.718 204.398l0 2.55355 0 14.0426c5.63962,0 14.3252,-0.9746 17.873,1.27677l0 20.4256 -126.383 0 0 -11.49 -12.7659 0 0 136.596 97.0207 0 2.2635 -0.166941 47.5232 -84.0889 1.80091 0.432741 47.9867 83.8231 2.55261 0 97.0217 0 0 -136.596 -12.7659 0 0 11.49 -126.383 0 0 -20.4256c3.54773,-2.25137 12.2333,-1.27677 17.872,-1.27677l0 -16.5962 -17.872 0 0 -17.872 -17.872 0 0 17.872 -17.873 0z"/>
   <path id="_100566152" class="fil1" d="M464.42 418.866c3.79395,-5.98097 1.27677,-23.2803 1.27677,-31.9147l29.3611 0 2.55355 0c-6.202,-3.93571 -24.2848,-1.27677 -33.1914,-1.27677l0 33.1914z"/>
   <path id="_230016224" class="fil1" d="M266.548 418.866l-31.9147 0c0,-8.6343 2.51811,-25.9346 -1.27677,-31.9147l0 33.1914c8.90663,0 26.9894,2.658 33.1914,-1.27677z"/>
   <path id="_230016296" class="fil1" d="M464.42 418.866l-31.9147 0c0,-8.6343 2.51717,-25.9346 -1.27677,-31.9147l0 33.1914c8.90663,0 26.9894,2.658 33.1914,-1.27677z"/>
   <path id="_100566248" class="fil1" d="M308.675 532.483l-107.233 0 0 -145.532c-4.03363,6.35588 -1.27677,127.882 -1.27677,146.807 14.9603,0 103.006,2.21593 108.51,-1.27584z"/>
   <path id="_230016800" class="fil1" d="M308.675 532.483c0,-12.8228 -1.89977,-46.2567 1.09491,-55.0766 6.39226,-18.828 12.5196,-20.8462 28.2671,-29.1792l2.55355 0c4.92429,0 2.85572,-1.27677 8.93554,-1.27677 6.07983,0 4.01125,1.27677 8.93648,1.27677l2.55355 0c19.1357,10.1256 17.9588,8.94953 28.0843,28.0853l0.0391705 2.54888 1.2376 15.3231 0 39.5744 107.234 0 0 -91.9146 0 -54.8928 -2.55355 0 -29.3611 0c0,8.6343 2.51717,25.9337 -1.27677,31.9147 -6.202,3.93477 -24.2848,1.27677 -33.1914,1.27677l0 -33.1914 -31.9147 0 0 31.9147 -33.1914 0 0 -31.9147 -33.1914 0 0 31.9147 -33.1914 0 0 -31.9147 -31.9147 0c0,8.6343 2.51811,25.9337 -1.27677,31.9147 -6.202,3.93477 -24.2848,1.27677 -33.1914,1.27677l0 -33.1914 -31.9147 0 0 145.532 107.233 0z"/>
   <path id="_230017256" class="fil1" d="M201.442 564.398l0 17.872 7.6597 0c16.6372,-1.38496 25.2473,-11.4891 40.8502,-11.4891l1.27677 0c17.1959,0 24.406,11.4891 44.6805,11.4891l8.93648 0c20.5449,0 25.8712,-11.4891 44.6805,-11.4891 18.3197,0 25.7966,11.4891 39.5744,11.4891l14.0426 0c20.2745,0 27.4847,-11.4891 44.6805,-11.4891l1.27677 0c15.0079,0 27.937,11.4891 37.0208,11.4891l11.49 0 0 -17.872 -7.6597 0c-8.88332,0 -21.0514,-11.49 -42.1279,-11.49 -14.3243,0 -28.7493,6.43702 -38.2976,11.49l-2.55261 0 -14.0426 0c-10.4473,0 -18.9623,-8.67907 -31.9147,-10.2132l-12.7248 -1.62744c-17.0653,-1.66475 -30.0783,11.8407 -42.1689,11.8407l-14.0426 0 -2.55355 0c-10.3951,-5.50066 -23.866,-11.49 -39.5744,-11.49 -14.3243,0 -28.7493,6.43702 -38.2976,11.49l-10.2123 0z"/>
   <path id="_230017328" class="fil1" d="M209.102 582.27l-7.6597 0 0 -17.872c-2.39127,3.76783 -1.27677,13.2378 -1.27677,19.1488l8.93648 -1.27677z"/>
   <path id="_100565336" class="fil1" d="M201.442 618.014c14.3243,0 28.7493,-6.43609 38.2976,-11.4891l2.55355 0 16.5952 0 2.55355 0c7.19245,3.80607 24.1346,11.4891 34.4673,11.4891l7.6597 0c16.1774,0 28.033,-11.4891 39.5744,-11.4891l12.7659 0c12.0524,0 22.2824,11.4891 42.1279,11.4891 22.4774,0 31.3262,-11.4891 43.4037,-11.4891l15.3194 0 2.55355 0c9.54828,5.053 23.9733,11.4891 38.2976,11.4891l0 -17.872c-17.845,0 -27.7906,-12.7659 -45.9573,-12.7659l-6.38293 0c-18.1229,0 -28.6682,12.7659 -44.6814,12.7659l-5.10616 0c-14.1247,0 -23.6068,-12.7659 -44.6805,-12.7659 -23.9005,0 -32.9872,12.7659 -47.2341,12.7659l-2.55261 0c-20.5179,0 -27.148,-12.7659 -48.5108,-12.7659l-3.82939 0c-20.7539,0 -28.9992,12.7659 -47.2341,12.7659l0 17.872z"/>
   <path id="_230017688" class="fil1" d="M206.548 652.482c16.2334,0 26.0764,-11.4891 38.2976,-11.4891l11.4891 0c12.1475,0 21.3526,11.4891 40.8511,11.4891l1.27677 0 15.3231 -1.2376 2.54888 -0.0391705c6.72894,-3.55985 20.9273,-10.2123 30.6388,-10.2123l5.10616 0c9.71149,0 23.9089,6.65246 30.6379,10.2123l2.55355 0 15.2812 1.63677 3.86762 -0.359996c16.2334,0 26.0754,-11.4891 38.2976,-11.4891l11.4891 0c11.8911,0 21.8674,11.4891 38.2976,11.4891l5.10709 0 0 -17.872c-19.2169,0 -24.379,-11.4891 -44.6805,-11.4891l-8.93648 0c-20.5449,0 -25.8712,11.4891 -44.6805,11.4891l-2.55355 0c-16.4712,0 -23.3699,-11.4891 -39.5744,-11.4891l-15.3194 0c-15.616,0 -27.8064,13.2769 -40.8502,11.4891l-11.4965 -1.22921 -2.54608 -0.0475642c-8.8171,-4.66502 -18.5901,-10.2123 -31.9147,-10.2123l-8.93648 0c-19.8473,0 -26.1743,11.4891 -44.6805,11.4891l0 17.872 5.10616 0z"/>
  </g>
 </g>
</svg>
