<?xml version="1.0" encoding="UTF-8" standalone="no"?>
<svg
   inkscape:version="1.1.1 (3bf5ae0d25, 2021-09-20)"
   sodipodi:docname="CoA Tivat.svg"
   id="svg2130"
   version="1.1"
   viewBox="0 0 392.69179 450.01041"
   height="450.01041"
   width="392.6918"
   xmlns:inkscape="http://www.inkscape.org/namespaces/inkscape"
   xmlns:sodipodi="http://sodipodi.sourceforge.net/DTD/sodipodi-0.dtd"
   xmlns="http://www.w3.org/2000/svg"
   xmlns:svg="http://www.w3.org/2000/svg">
  <defs
     id="defs2124" />
  <sodipodi:namedview
     inkscape:pagecheckerboard="false"
     fit-margin-bottom="5"
     fit-margin-right="5"
     fit-margin-left="5"
     fit-margin-top="5"
     lock-margins="true"
     units="px"
     inkscape:snap-smooth-nodes="true"
     inkscape:snap-object-midpoints="true"
     inkscape:window-maximized="1"
     inkscape:window-y="-11"
     inkscape:window-x="-11"
     inkscape:window-height="1506"
     inkscape:window-width="2560"
     showgrid="false"
     inkscape:document-rotation="0"
     inkscape:current-layer="g83390"
     inkscape:document-units="px"
     inkscape:cy="224.66667"
     inkscape:cx="196.66667"
     inkscape:zoom="1.5"
     inkscape:pageshadow="2"
     inkscape:pageopacity="0"
     borderopacity="1.0"
     bordercolor="#666666"
     pagecolor="#333333"
     id="base"
     showguides="true"
     inkscape:guide-bbox="true"
     inkscape:snap-intersection-paths="true"
     inkscape:object-paths="true"
     inkscape:snap-grids="false"
     inkscape:snap-global="false"
     inkscape:lockguides="false"
     guidecolor="#00ffff"
     guideopacity="0.49803922" />
  <g
     transform="translate(21060.754,22049.02)"
     id="layer1"
     inkscape:groupmode="layer"
     inkscape:label="tivat">
    <g
       id="g83390"
       inkscape:label="coa"
       transform="translate(-105.8751,-82.167)">
      <path
         style="fill:#fbbb00;fill-opacity:1;stroke:#0b3583;stroke-width:17;stroke-linecap:butt;stroke-linejoin:miter;stroke-miterlimit:4;stroke-dasharray:none;stroke-opacity:1"
         d="m -20741.087,-21541.353 c 126.716,-56.55 205.817,-154.563 144.333,-264 -16.926,-32.499 -22.749,-69.282 -8.666,-107.667 l -39.334,-31 c -40.053,18.422 -75.743,25.232 -101.667,-9.333 h -24.224 c -25.924,34.565 -61.614,27.755 -101.667,9.333 l -39.334,31 c 14.083,38.385 8.26,75.168 -8.666,107.667 -61.484,109.437 17.617,207.45 144.333,264 6.441,2.874 11.934,6.833 17.446,9.833 5.512,-3 11.005,-6.959 17.446,-9.833 z"
         id="path1116"
         sodipodi:nodetypes="ssccccccsscs"
         inkscape:label="coa-0" />
      <path
         style="fill:#0b3583;fill-opacity:1;stroke:none;stroke-width:1;stroke-linecap:butt;stroke-linejoin:miter;stroke-miterlimit:4;stroke-dasharray:none;stroke-opacity:1"
         d="m -20714.392,-21661.898 c 78.348,-62.217 70.79,-133.631 -2.695,-231.455 123.847,60.222 150.484,229.068 -29.577,299.287 -6.51,2.539 -17.228,2.539 -23.738,0 -180.061,-70.219 -153.424,-239.065 -29.577,-299.287 -73.485,97.824 -81.043,169.238 -2.695,231.455 2.026,1.608 5.792,2.878 8.379,2.878 23.841,0 47.683,0 71.524,0 2.587,0 6.353,-1.27 8.379,-2.878 z"
         id="path3010"
         sodipodi:nodetypes="scsscssss"
         inkscape:label="b" />
      <path
         id="path8264"
         style="fill:#fbbb00;fill-opacity:1;stroke:#fbbb00;stroke-width:1;stroke-linecap:round;stroke-linejoin:round;stroke-miterlimit:4;stroke-dasharray:none;stroke-opacity:1"
         d="m -20755.866,-21611.687 2.167,7.584 h -9.668 l 2.167,-7.584 z m 9.417,-5 5.166,10.584 c 3.322,-0.403 5.812,-1.805 8.167,-4.084 l -7.583,-11.666 h -35.668 l -7.583,11.666 c 2.355,2.279 4.845,3.681 8.167,4.084 l 5.166,-10.584 z m -23.916,-13 h 23.666 v 4 h -23.666 z m 4.834,-16.249 h 14 v 11.751 h -14 z m -4.709,-7.334 h 23.416 v 3.168 h -23.416 z"
         inkscape:label="o" />
      <path
         id="path5815"
         style="fill:#666666;fill-opacity:1;stroke:none;stroke-width:1;stroke-linecap:round;stroke-linejoin:round;stroke-miterlimit:4;stroke-dasharray:none"
         d="m -20774.742,-21746.735 c 1.732,27.693 -8.507,52.972 -23.98,70.283 -0.769,0.861 -2.202,1.039 -3.15,0.38 -7.975,-5.549 -13.426,-12.359 -18.468,-19.374 -0.362,-0.503 -0.197,-1.123 0.362,-1.391 20.795,-9.95 36.175,-30.02 45.236,-49.898 z m -0.512,-10.611 c -18.581,14.073 -37.246,27.955 -62.329,27.327 -0.731,-0.02 -1.12,0.511 -0.861,1.196 2.534,8.593 6.235,17.88 12.483,24.519 0.365,0.388 1.071,0.542 1.564,0.344 19.267,-7.724 36.42,-26.411 49.857,-52.792 0.514,-1.01 0.19,-1.278 -0.714,-0.594 z m 32.93,10.611 c -1.732,27.693 8.507,52.972 23.98,70.283 0.769,0.861 2.202,1.039 3.15,0.38 7.975,-5.549 13.426,-12.359 18.468,-19.374 0.362,-0.503 0.197,-1.123 -0.362,-1.391 -20.795,-9.95 -36.175,-30.02 -45.236,-49.898 z m 0.512,-10.611 c 18.581,14.073 37.246,27.955 62.329,27.327 0.731,-0.02 1.12,0.511 0.861,1.196 -2.485,8.687 -6.233,17.88 -12.481,24.519 -0.366,0.388 -1.071,0.542 -1.565,0.344 -19.267,-7.724 -36.421,-26.411 -49.858,-52.792 -0.514,-1.01 -0.19,-1.278 0.714,-0.594 z m 16.277,-132.76 3.771,17.734 h -13.963 v -8.721 h -16.914 v 81.496 c 0,11.924 19.322,42.31 81.105,31.365 0.769,-0.136 1.429,0.38 1.459,1.16 0.35,9.205 -2.241,19.055 -5.375,27.73 -0.124,0.469 -0.612,0.934 -1.089,1.028 -22.434,4.432 -45.441,-9.718 -71.329,-28.896 -1.468,-1.088 -2.592,-0.501 -2.504,1.323 1.646,33.868 8.152,66.395 26.688,95.604 0.279,0.439 0.09,0.794 -0.435,0.794 h -68.824 c -0.525,0 -0.714,-0.355 -0.435,-0.794 18.536,-29.209 25.042,-61.736 26.688,-95.604 0.09,-1.824 -1.036,-2.411 -2.504,-1.323 -25.888,19.178 -48.895,33.328 -71.329,28.896 -0.477,-0.09 -0.965,-0.559 -1.089,-1.028 -3.301,-8.842 -5.725,-18.525 -5.375,-27.73 0.03,-0.78 0.69,-1.296 1.459,-1.16 61.783,10.945 81.105,-19.441 81.105,-31.365 v -81.496 h -16.914 v 8.721 h -13.963 l 3.771,-17.734 z"
         sodipodi:nodetypes="cccccccccsccccccccccccsccccccccscccccccsscccccccscccccc"
         inkscape:label="a" />
    </g>
  </g>
</svg>
