<?xml version="1.0" encoding="UTF-8" standalone="no"?>
<!-- Created with Inkscape (http://www.inkscape.org/) -->

<svg
   xmlns:dc="http://purl.org/dc/elements/1.1/"
   xmlns:cc="http://creativecommons.org/ns#"
   xmlns:rdf="http://www.w3.org/1999/02/22-rdf-syntax-ns#"
   xmlns:svg="http://www.w3.org/2000/svg"
   xmlns="http://www.w3.org/2000/svg"
   xmlns:xlink="http://www.w3.org/1999/xlink"
   xmlns:sodipodi="http://sodipodi.sourceforge.net/DTD/sodipodi-0.dtd"
   xmlns:inkscape="http://www.inkscape.org/namespaces/inkscape"
   width="600"
   height="400"
   id="svg2"
   sodipodi:version="0.32"
   inkscape:version="0.48.1 "
   version="1.0"
   sodipodi:docname="ZZ1.svg">
  <defs
     id="defs4" />
  <sodipodi:namedview
     id="base"
     pagecolor="#ffffff"
     bordercolor="#666666"
     borderopacity="1.0"
     inkscape:pageopacity="0.0"
     inkscape:pageshadow="2"
     inkscape:zoom="0.9325"
     inkscape:cx="301.6346"
     inkscape:cy="144.4609"
     inkscape:document-units="px"
     inkscape:current-layer="layer1"
     inkscape:window-width="1280"
     inkscape:window-height="1004"
     inkscape:window-x="-8"
     inkscape:window-y="-8"
     showgrid="false"
     inkscape:window-maximized="1" />
  <metadata
     id="metadata7">
    <rdf:RDF>
      <cc:Work
         rdf:about="">
        <dc:format>image/svg+xml</dc:format>
        <dc:type
           rdf:resource="http://purl.org/dc/dcmitype/StillImage" />
      </cc:Work>
    </rdf:RDF>
  </metadata>
  <g
     inkscape:label="Layer 1"
     inkscape:groupmode="layer"
     id="layer1">
    <rect
       style="opacity:1;color:#000000;fill:#000055;fill-opacity:1;fill-rule:evenodd;stroke:none;stroke-width:1;stroke-linecap:square;stroke-linejoin:miter;marker:none;marker-start:none;marker-mid:none;marker-end:none;stroke-miterlimit:4;stroke-dasharray:none;stroke-dashoffset:0;stroke-opacity:1;visibility:visible;display:inline;overflow:visible"
       id="rect3296"
       width="600"
       height="400"
       x="0"
       y="0" />
    <g
       id="g1332"
       transform="scale(1.851852,1.851852)">
      <g
         style="fill:#ffffff;fill-opacity:1"
         id="g3110">
        <path
           style="fill:#ffffff;fill-opacity:1;fill-rule:evenodd;stroke:none;stroke-width:0.5;stroke-linecap:butt;stroke-linejoin:miter;stroke-miterlimit:4;stroke-dasharray:none;stroke-opacity:1"
           d="M 130.41134,86.608124 C 135.73235,86.608124 134.29386,91.41059 130.41134,91.41059 C 120.1569,91.41059 121.49749,70.020114 133.90451,70.020114 C 137.69126,70.020114 144.18809,72.577417 146.94564,76.273559 L 151.37031,73.17629 L 156.49361,77.205069 L 154.78556,82.498772 L 151.37031,79.664371 L 144.7756,83.763188 C 143.11545,74.511004 135.89047,74.290604 133.90451,74.290604 C 127.61973,74.290604 125.11575,86.608124 130.41134,86.608124 z "
           id="path3098"
           sodipodi:nodetypes="ccccccccccc" />
        <path
           style="fill:#ffffff;fill-opacity:1;fill-rule:evenodd;stroke:none;stroke-width:0.5;stroke-linecap:butt;stroke-linejoin:miter;stroke-miterlimit:4;stroke-dasharray:none;stroke-opacity:1"
           d="M 130.64422,91.294151 C 125.02153,91.294151 125.38678,97.581841 128.54833,97.581841 C 134.36189,90.948396 135.10918,112.83531 130.64422,112.83531 C 128.58714,110.56313 124.97297,108.93026 124.97297,113.4175 C 124.3923,115.58459 128.09867,116.79423 129.63052,116.79423 C 131.74856,116.79423 133.77974,114.8265 135.49325,112.76936 C 140.07696,107.26642 137.04194,93.777923 130.64422,91.294151 z "
           id="path3100"
           sodipodi:nodetypes="cccccsc" />
        <path
           sodipodi:nodetypes="cccccsc"
           id="path3104"
           d="M 126.70407,117.21956 C 131.57346,114.40822 134.40099,120.03614 131.66301,121.61692 C 123.31159,118.77896 132.55372,135.24595 136.42049,133.01346 C 137.06588,130.01715 139.54397,127.63123 141.78759,131.51729 C 141.78759,135.82206 140.30327,135.7716 138.97665,136.53752 C 137.14237,137.59654 134.39946,136.90802 131.88694,135.98324 C 125.16587,133.50942 122.40537,122.56943 126.70407,117.21956 z "
           style="fill:#ffffff;fill-opacity:1;fill-rule:evenodd;stroke:none;stroke-width:0.5;stroke-linecap:butt;stroke-linejoin:miter;stroke-miterlimit:4;stroke-dasharray:none;stroke-opacity:1" />
        <path
           style="fill:#ffffff;fill-opacity:1;fill-rule:evenodd;stroke:none;stroke-width:1px;stroke-linecap:butt;stroke-linejoin:miter;stroke-opacity:1"
           d="M 162,147.66756 C 164.11763,137.54048 150.23996,131.24665 145.64586,131.24665 C 141.12007,131.24665 141.42715,132.66535 141.42715,134.50511 C 141.42715,136.46124 142.51021,138.29856 144.25099,138.29856 C 148.02425,138.29856 145.16942,135.38807 148.40549,135.38807 C 151.02441,135.38807 157.75423,140.0593 162,147.66756 z "
           id="path3108"
           sodipodi:nodetypes="czsssc" />
      </g>
      <use
         style="fill:#ffffff;fill-opacity:1"
         height="216"
         width="324"
         transform="matrix(-1,0,0,1,324,0)"
         id="use3116"
         xlink:href="#g3110"
         y="0"
         x="0" />
      <path
         id="path3216"
         d="M 157.4375,122.46875 C 157.82399,122.09781 158.15201,121.65286 158.375,121.09375 C 158.60381,120.52004 158.71875,119.84105 158.71875,119.0625 L 158.71875,115.96875 C 158.06103,115.87199 157.63566,115.73844 156.84375,115.6875 C 154.87902,115.6875 152.59375,115.53287 152.59375,118.59375 C 152.59376,121.66138 154.55332,122.5625 155.59375,122.5625 C 156.29246,122.60744 156.79318,122.47875 157.4375,122.46875 z "
         style="fill:#ffffff;fill-opacity:1;fill-rule:evenodd;stroke:#000055;stroke-width:1;stroke-linecap:square;stroke-linejoin:miter;stroke-miterlimit:4;stroke-dasharray:none;stroke-opacity:1" />
      <path
         sodipodi:nodetypes="cccccccccsccccsscccsssccc"
         id="path3214"
         d="M 141.46875,104.40625 C 139.8721,109.37117 139.07715,116.58782 141.5625,123.59375 L 143.40625,120.25 C 147.89831,129.08211 157.01425,128.19893 162,135.09375 C 166.98575,128.19893 176.10169,129.08211 180.59375,120.25 L 182.4375,123.59375 C 184.92285,116.58782 184.1279,109.37117 182.53125,104.40625 C 179.34659,110.08833 174.8022,115.14429 173.5625,117.5 L 177.4375,116.84375 C 176.88407,118.49425 172.79083,123.625 169.625,123.625 C 167.92677,123.625 166.35197,122.81629 165.65625,121.125 C 165.64634,121.12828 165.28125,119.84105 165.28125,119.0625 L 165.28125,116.21875 L 165.28125,112.6875 C 164.88315,112.36059 164.47994,112.11981 163.9375,111.9375 C 163.29123,111.72029 162.49499,111.53031 161.4375,111.21875 C 160.55711,110.95936 159.66893,110.49608 158.71875,110.125 L 158.71875,115.96875 L 158.71875,119.0625 C 158.71875,119.84105 158.60381,120.52004 158.375,121.09375 C 158.15201,121.65286 157.82399,122.09781 157.4375,122.46875 C 156.63423,123.2397 155.53137,123.625 154.375,123.625 C 151.20917,123.625 147.11593,118.49425 146.5625,116.84375 L 150.4375,117.5 C 149.1978,115.14429 144.65341,110.08833 141.46875,104.40625 z "
         style="fill:#ffffff;fill-opacity:1;fill-rule:evenodd;stroke:#000055;stroke-width:1;stroke-linecap:square;stroke-linejoin:miter;stroke-miterlimit:4;stroke-dasharray:none;stroke-opacity:1" />
      <path
         id="path3206"
         d="M 158.71875,85.5 L 158.71875,90.15625 L 165.28125,89.0625 L 165.28125,85.5 L 158.71875,85.5 z M 165.28125,95 L 158.71875,96.09375 L 158.71875,98.28125 L 158.71875,103.34375 L 158.71875,104.46875 C 158.72457,104.47932 158.74528,104.52056 158.75,104.53125 C 158.74975,104.53441 158.75008,104.55975 158.75,104.5625 C 158.75565,104.57347 158.77561,104.61403 158.78125,104.625 C 158.78118,104.62775 158.78149,104.65309 158.78125,104.65625 C 158.78691,104.66175 158.80675,104.68201 158.8125,104.6875 C 158.81689,104.69824 158.83794,104.73943 158.84375,104.75 C 159.13841,105.07812 159.55448,105.37763 160,105.65625 C 160.89104,106.21348 161.9309,106.65767 162.5625,106.84375 C 163.5645,107.13896 164.42531,107.53146 165.28125,107.9375 L 165.28125,99.84375 L 165.28125,95.5 L 165.28125,95 z "
         style="fill:#ffffff;fill-opacity:1;fill-rule:evenodd;stroke:#000055;stroke-width:1;stroke-linecap:square;stroke-linejoin:miter;stroke-miterlimit:4;stroke-dasharray:none;stroke-opacity:1" />
      <path
         id="path2223"
         d="M 162.09308,72.581152 C 158.01001,72.581152 154.64493,75.916914 154.64493,79.999982 C 154.64493,84.083048 158.01001,87.418815 162.09308,87.418812 C 166.17615,87.418812 169.51191,84.083049 169.51191,79.999982 C 169.51191,75.916916 166.17615,72.581149 162.09308,72.581152 z M 162.09308,76.070641 C 164.28243,76.070639 166.02242,77.810636 166.02242,79.999982 C 166.02242,82.189328 164.28243,83.929323 162.09308,83.929323 C 159.90373,83.929325 158.16374,82.189328 158.16374,79.999982 C 158.16374,77.810638 159.90373,76.070641 162.09308,76.070641 z "
         style="opacity:1;color:#000000;fill:#ffffff;fill-opacity:1;fill-rule:evenodd;stroke:#000055;stroke-width:1;stroke-linecap:square;stroke-linejoin:miter;marker:none;marker-start:none;marker-mid:none;marker-end:none;stroke-miterlimit:4;stroke-dasharray:none;stroke-dashoffset:0;stroke-opacity:1;visibility:visible;display:inline;overflow:visible" />
      <rect
         transform="matrix(0.985918,-0.167227,0,1,0,0)"
         y="117.08249"
         x="147.08871"
         height="5.9383092"
         width="35.574078"
         id="rect3118"
         style="opacity:1;color:#000000;fill:#ffffff;fill-opacity:1;fill-rule:evenodd;stroke:#000055;stroke-width:1.00711608000000010;stroke-linecap:square;stroke-linejoin:miter;marker:none;marker-start:none;marker-mid:none;marker-end:none;stroke-miterlimit:4;stroke-dasharray:none;stroke-dashoffset:0;stroke-opacity:1;visibility:visible;display:inline;overflow:visible" />
      <path
         id="path3212"
         d="M 158.71875,98.28125 C 157.20257,98.841377 155.87621,99.42432 155.03125,100.25 C 153.7147,101.53651 153.177,104.29545 153.71875,105.84375 C 154.2605,107.39205 155.25888,108.43819 156.5625,109.28125 C 157.13789,109.65336 157.968,109.83181 158.71875,110.125 C 159.66893,110.49608 160.55711,110.95936 161.4375,111.21875 C 162.49499,111.53031 163.29123,111.72029 163.9375,111.9375 C 164.47994,112.11981 164.88315,112.36059 165.28125,112.6875 C 165.28619,112.69111 165.30741,112.71539 165.3125,112.71875 C 165.3646,112.75027 165.44883,112.77727 165.5,112.8125 C 165.50497,112.81631 165.52644,112.83962 165.53125,112.84375 C 166.45006,113.74101 166.16355,114.59593 166.09375,114.90625 C 166.06383,115.03926 166.06644,115.2585 165.96875,115.5 C 165.95924,115.52213 165.94904,115.57115 165.9375,115.59375 C 165.89659,115.66956 165.81998,115.76453 165.75,115.84375 C 165.63996,115.96289 165.48291,116.09946 165.28125,116.21875 L 165.28125,119.0625 C 165.28125,119.84105 165.39619,120.52004 165.625,121.09375 C 165.62806,121.09594 165.65318,121.12282 165.65625,121.125 C 165.7282,121.1012 165.83565,121.08615 165.90625,121.0625 C 168.40255,120.22614 170.4644,119.7059 171.375,116.34375 C 171.93513,114.27564 170.40751,111.77779 168.875,110.28125 C 167.92702,109.35552 166.66941,108.59601 165.28125,107.9375 C 164.42531,107.53146 163.5645,107.13896 162.5625,106.84375 C 161.9309,106.65767 160.89104,106.21348 160,105.65625 C 159.55448,105.37763 159.13841,105.07812 158.84375,104.75 C 158.82874,104.73328 158.82184,104.70489 158.8125,104.6875 C 158.80985,104.68165 158.78353,104.66214 158.78125,104.65625 C 158.77925,104.65032 158.78305,104.63095 158.78125,104.625 C 158.77788,104.61307 158.75343,104.57443 158.75,104.5625 C 158.74814,104.55655 158.75209,104.53717 158.75,104.53125 C 158.74517,104.51948 158.72537,104.51156 158.71875,104.5 L 158.71875,104.46875 C 158.58855,104.27724 158.45977,104.07227 158.40625,103.875 C 158.40064,103.85131 158.37796,103.80501 158.375,103.78125 C 158.37366,103.7654 158.375,103.73462 158.375,103.71875 C 158.37552,103.71443 158.37398,103.69175 158.375,103.6875 C 158.37797,103.67913 158.40159,103.66438 158.40625,103.65625 C 158.40895,103.65224 158.4032,103.62896 158.40625,103.625 C 158.40962,103.62108 158.43384,103.59763 158.4375,103.59375 C 158.47665,103.55533 158.54504,103.50601 158.59375,103.46875 C 158.61728,103.44997 158.66861,103.42577 158.6875,103.40625 C 158.69801,103.39441 158.71124,103.35606 158.71875,103.34375 L 158.71875,98.28125 z "
         style="fill:#ffffff;fill-opacity:1;fill-rule:evenodd;stroke:#000055;stroke-width:1;stroke-linecap:square;stroke-linejoin:round;stroke-miterlimit:4;stroke-dasharray:none;stroke-opacity:1" />
      <path
         id="path3124"
         d="M 163.34375,76.625 L 162.0625,80.40625 L 163.9375,81.0625 C 163.73194,80.992792 165.03351,81.856407 165.96875,83.21875 C 166.90399,84.581093 167.77953,86.386566 168.125,88.1875 C 168.47047,89.988434 168.33526,91.724168 167.4375,93.25 C 166.97859,94.029969 166.2877,94.789752 165.28125,95.5 L 165.28125,99.84375 C 167.75891,98.608925 169.78428,97.135044 170.875,95.28125 C 172.35734,92.761865 172.50937,89.929933 172.03125,87.4375 C 171.55313,84.945067 170.49051,82.730264 169.28125,80.96875 C 168.07199,79.207236 167.00692,77.887645 165.21875,77.28125 L 163.34375,76.625 z "
         style="fill:#ffffff;fill-opacity:1;fill-rule:evenodd;stroke:#000055;stroke-width:1;stroke-linecap:square;stroke-linejoin:miter;stroke-miterlimit:4;stroke-dasharray:none;stroke-opacity:1" />
      <path
         sodipodi:nodetypes="csscsszsscsss"
         d="M 162,172.92855 C 144.96449,172.92855 131.23114,164.25814 123.06608,164.25814 C 121.84009,164.25814 120.58709,167.79855 120.58709,172.67263 C 120.58709,180.84122 113.4373,183.86292 113.4373,183.86292 C 113.4373,175.66685 104.44409,168.59259 104.44409,157.9344 C 104.44409,146.66593 110.9415,139.84069 122.1339,139.84487 C 136.50724,139.85024 148.58294,149.96839 162,149.96839 C 175.41706,149.96839 187.49276,139.85024 201.8661,139.84487 C 213.0585,139.84069 219.55591,146.66593 219.55591,157.9344 C 219.55591,168.59259 210.5627,175.66685 210.5627,183.86292 C 210.5627,183.86292 203.41291,180.84122 203.41291,172.67263 C 203.41291,167.79855 202.15991,164.25814 200.93392,164.25814 C 192.76886,164.25814 179.03551,172.92855 162,172.92855 z "
         style="fill:#ffffff;fill-opacity:1;fill-rule:evenodd;stroke:none;stroke-width:1px;stroke-linecap:butt;stroke-linejoin:miter;stroke-opacity:1"
         id="path3243" />
      <path
         sodipodi:nodetypes="cscszscsz"
         d="M 162,154.99543 C 148.44988,154.99543 135.76566,144.77882 122.73522,144.77733 C 118.46703,144.77684 109.67621,146.44358 109.67621,147.72596 C 110.3324,144.45839 116.57647,142.41349 122.5473,142.41349 C 136.8399,142.41349 150.7941,152.61388 162,152.61388 C 173.2059,152.61388 187.1601,142.41349 201.4527,142.41349 C 207.42353,142.41349 213.6676,144.45839 214.32379,147.72596 C 214.32379,146.44358 205.53297,144.77684 201.26478,144.77733 C 188.23434,144.77882 175.55012,154.99543 162,154.99543 z "
         style="fill:#000055;fill-opacity:1;fill-rule:evenodd;stroke:none;stroke-width:1px;stroke-linecap:butt;stroke-linejoin:miter;stroke-opacity:1"
         id="path3255" />
      <path
         sodipodi:nodetypes="cscszscsz"
         d="M 162,170.87767 C 174.0089,170.87767 187.88441,162.7113 199.46741,162.7113 C 211.39689,162.7113 208.94809,177.00701 208.94809,177.00701 C 216.79993,168.00551 208.26434,159.59827 199.88499,159.59827 C 186.5878,159.59827 170.52383,168.39986 162,168.39986 C 153.47617,168.39986 137.4122,159.59827 124.11501,159.59827 C 115.73566,159.59827 107.20007,168.00551 115.05191,177.00701 C 115.05191,177.00701 112.60311,162.7113 124.53259,162.7113 C 136.11559,162.7113 149.9911,170.87767 162,170.87767 z "
         style="fill:#000055;fill-opacity:1;fill-rule:evenodd;stroke:none;stroke-width:1px;stroke-linecap:butt;stroke-linejoin:miter;stroke-opacity:1"
         id="path3266" />
      <path
         id="path3273"
         d="M 154.21875,38.25 C 148.31855,41.138779 144.25,47.210355 144.25,54.21875 C 144.25,64.022845 152.1959,71.968752 162,71.96875 C 171.80409,71.96875 179.75,64.022845 179.75,54.21875 C 179.75,47.210354 175.68145,41.138779 169.78125,38.25 C 173.48208,40.75091 175.90625,44.98159 175.90625,49.78125 C 175.90625,57.460706 169.67946,63.71875 162,63.71875 C 154.32054,63.718748 148.09375,57.460706 148.09375,49.78125 C 148.09375,44.98159 150.51793,40.75091 154.21875,38.25 z "
         style="opacity:1;color:#000000;fill:#ffffff;fill-opacity:1;fill-rule:evenodd;stroke:none;stroke-width:1;stroke-linecap:square;stroke-linejoin:miter;marker:none;marker-start:none;marker-mid:none;marker-end:none;stroke-miterlimit:4;stroke-dasharray:none;stroke-dashoffset:0;stroke-opacity:1;visibility:visible;display:inline;overflow:visible" />
      <path
         transform="matrix(0.940431,0,0,0.940431,85.21243,0.278686)"
         d="m 81.651474,37.018826 3.520294,10.832957 11.390586,4.31e-4 -9.214924,6.695566 3.519474,10.833224 -9.21543,-6.69487 -9.215431,6.694869 3.519475,-10.833223 -9.214923,-6.695567 11.390585,-4.3e-4 z"
         inkscape:randomized="0"
         inkscape:rounded="0"
         inkscape:flatsided="false"
         sodipodi:arg2="-0.94247777"
         sodipodi:arg1="-1.5707963"
         sodipodi:r2="5.9890823"
         sodipodi:r1="15.678226"
         sodipodi:cy="52.697052"
         sodipodi:cx="81.651474"
         sodipodi:sides="5"
         id="path3278"
         style="opacity:1;color:#000000;fill:#ffffff;fill-opacity:1;fill-rule:evenodd;stroke:none;stroke-width:1;stroke-linecap:square;stroke-linejoin:miter;marker:none;marker-start:none;marker-mid:none;marker-end:none;stroke-miterlimit:4;stroke-dasharray:none;stroke-dashoffset:0;stroke-opacity:1;visibility:visible;display:inline;overflow:visible"
         sodipodi:type="star" />
      <path
         id="text3287"
         d="M 121.80627,153.13771 L 121.7152,155.5227 C 121.69744,155.98785 121.7137,156.28279 121.76399,156.40753 C 121.81867,156.52819 121.91652,156.62721 122.05756,156.70459 C 122.20281,156.78213 122.46996,156.82833 122.85901,156.84318 L 122.85004,157.07787 L 118.47969,156.91099 L 118.48866,156.67629 C 118.88615,156.69147 119.15605,156.66578 119.29834,156.59922 C 119.44502,156.5286 119.54811,156.43513 119.6076,156.31883 C 119.67133,156.20269 119.71207,155.91204 119.72983,155.44688 L 119.94298,149.86501 C 119.96074,149.39986 119.94228,149.10695 119.88761,148.98628 C 119.83731,148.86156 119.74165,148.76051 119.60062,148.68312 C 119.45959,148.60575 119.19244,148.55955 118.79918,148.54453 L 118.80814,148.30983 L 122.55687,148.45298 C 123.79164,148.50014 124.66916,148.75386 125.18941,149.21415 C 125.70965,149.67445 125.95718,150.23443 125.932,150.8941 C 125.91068,151.45229 125.71906,151.92351 125.35713,152.30776 C 124.99519,152.69202 124.50702,152.94441 123.8926,153.06493 C 123.47854,153.15076 122.7831,153.17502 121.80627,153.13771 M 121.96711,148.92594 L 121.82517,152.64296 C 121.96439,152.65675 122.06994,152.66501 122.14183,152.66775 C 122.65773,152.68746 123.06104,152.55041 123.35176,152.25659 C 123.64264,151.95856 123.80035,151.48816 123.8249,150.8454 C 123.84928,150.20687 123.72758,149.73427 123.45979,149.4276 C 123.192,149.12094 122.78112,148.95703 122.22717,148.93587 L 121.96711,148.92594 M 135.17921,156.65513 L 132.23498,155.89595 L 131.67542,156.61696 C 131.49094,156.85783 131.37599,157.06637 131.33056,157.24257 C 131.27033,157.47614 131.3202,157.67255 131.48017,157.83179 C 131.5739,157.92588 131.83372,158.04532 132.25963,158.1901 L 132.20099,158.41753 L 129.42887,157.70273 L 129.48751,157.4753 C 129.79827,157.50736 130.07583,157.44783 130.3202,157.2967 C 130.56562,157.14147 130.91159,156.78274 131.35811,156.22049 L 136.0541,150.33855 L 136.17088,150.36866 L 137.41414,157.97872 C 137.53403,158.70012 137.66452,159.1686 137.8056,159.38416 C 137.91216,159.54711 138.08984,159.67159 138.33862,159.75759 L 138.27998,159.98501 L 134.24781,158.9453 L 134.30645,158.71788 L 134.47241,158.76067 C 134.79612,158.84414 135.03517,158.85771 135.18955,158.80137 C 135.2966,158.75905 135.36597,158.67643 135.39768,158.5535 C 135.41669,158.47974 135.42395,158.40076 135.41944,158.31656 C 135.42075,158.27757 135.39891,158.10806 135.35391,157.80802 L 135.17921,156.65513 M 135.08751,156.14639 L 134.58605,152.95577 L 132.5674,155.49658 L 135.08751,156.14639 M 148.20776,157.86513 L 149.94698,162.39321 C 150.19301,163.03075 150.43443,163.487 150.67126,163.76198 C 150.84404,163.95892 151.04942,164.09516 151.2874,164.17071 L 151.21634,164.39456 L 146.94497,163.03853 L 147.01604,162.81468 C 147.29395,162.87627 147.48083,162.88898 147.57668,162.85281 C 147.67655,162.81792 147.74057,162.7561 147.76875,162.66737 C 147.82252,162.49797 147.73815,162.12043 147.51562,161.53475 L 146.38504,158.57182 L 146.00186,158.72989 L 145.2912,160.96842 C 145.15546,161.39596 145.09515,161.66985 145.11027,161.79008 C 145.12537,161.91032 145.18933,162.03052 145.30214,162.15069 C 145.41622,162.26683 145.62452,162.37291 145.92702,162.46895 L 145.85596,162.6928 L 141.7177,161.37903 L 141.78876,161.15518 L 142.06102,161.24161 C 142.29899,161.31716 142.50402,161.33563 142.67611,161.29703 C 142.7989,161.27385 142.9103,161.20266 143.01031,161.08345 C 143.08541,161.00074 143.18826,160.75368 143.31887,160.34227 L 145.03215,154.94559 C 145.16532,154.52612 145.22636,154.25691 145.21529,154.13795 C 145.20421,154.019 145.14227,153.89944 145.02947,153.77926 C 144.92198,153.65635 144.75328,153.55839 144.52338,153.4854 L 144.25112,153.39897 L 144.32219,153.17511 L 148.406,154.4716 L 148.33493,154.69545 C 148.05662,154.6071 147.83207,154.58021 147.66126,154.61478 C 147.53846,154.63796 147.42568,154.70649 147.32293,154.82038 C 147.24251,154.90586 147.13636,155.15631 147.00448,155.57174 L 146.19394,158.12488 L 150.01886,156.62862 C 150.5512,156.42023 150.85003,156.21319 150.91534,156.00748 C 150.96399,155.85422 150.91569,155.70569 150.77043,155.56188 C 150.69577,155.48935 150.48492,155.39133 150.13786,155.26782 L 150.20893,155.04397 L 153.40942,156.06003 L 153.33836,156.28388 C 153.04557,156.21314 152.80306,156.19387 152.61081,156.22607 C 152.42385,156.25552 151.9604,156.41474 151.22043,156.70373 L 148.20776,157.86513 M 159.00505,165.44562 L 158.97421,165.67845 L 154.51269,165.0875 L 154.54352,164.85467 L 154.8267,164.89218 C 155.07421,164.92496 155.27931,164.90731 155.442,164.83921 C 155.55886,164.79493 155.65609,164.70536 155.73372,164.5705 C 155.7932,164.47593 155.85128,164.2147 155.90796,163.78679 L 156.65143,158.17371 C 156.70922,157.73742 156.72226,157.46168 156.69056,157.34649 C 156.65886,157.23131 156.57697,157.12442 156.4449,157.02581 C 156.31757,156.92358 156.13435,156.85662 155.89523,156.82494 L 155.61206,156.78743 L 155.64289,156.55461 L 160.10442,157.14555 L 160.07358,157.37838 L 159.79041,157.34087 C 159.54289,157.30809 159.33779,157.32575 159.1751,157.39384 C 159.05824,157.43813 158.9589,157.52742 158.87709,157.66171 C 158.8176,157.75629 158.75952,158.01753 158.70285,158.44542 L 157.95938,164.05851 C 157.90159,164.4948 157.88854,164.77054 157.92024,164.88573 C 157.95614,165.00147 158.03775,165.11046 158.16508,165.2127 C 158.29715,165.3113 158.48275,165.37644 158.72188,165.40811 L 159.00505,165.44562 M 167.69235,156.5027 L 168.05954,159.3491 L 167.80069,159.37611 C 167.60397,158.67334 167.24309,158.13022 166.71805,157.74675 C 166.19676,157.35866 165.65833,157.19359 165.10276,157.25155 C 164.67345,157.29635 164.3446,157.44766 164.11622,157.7055 C 163.89161,157.9587 163.79489,158.23471 163.82607,158.53353 C 163.84583,158.72294 163.90759,158.88669 164.01135,159.02477 C 164.15405,159.20986 164.37018,159.38516 164.65976,159.55066 C 164.87206,159.66892 165.35442,159.86749 166.10683,160.14638 C 167.15993,160.53431 167.88399,160.92891 168.279,161.33019 C 168.6698,161.73191 168.89462,162.21477 168.95348,162.77876 C 169.02812,163.49428 168.81257,164.14009 168.3068,164.71619 C 167.80479,165.28765 167.12448,165.61817 166.26587,165.70775 C 165.99649,165.73586 165.739,165.73507 165.49338,165.70538 C 165.24776,165.6757 164.93607,165.60398 164.55829,165.49022 C 164.34748,165.42713 164.17683,165.40238 164.04636,165.416 C 163.93693,165.42741 163.82557,165.48158 163.7123,165.57849 C 163.59902,165.67541 163.51351,165.8141 163.45575,165.99457 L 163.22216,166.01894 L 162.88489,162.78649 L 163.11849,162.76212 C 163.39853,163.65192 163.82665,164.30929 164.40283,164.73421 C 164.98277,165.15449 165.57789,165.33279 166.18819,165.26911 C 166.65958,165.21993 167.02078,165.05247 167.27179,164.76674 C 167.52699,164.48058 167.63681,164.16703 167.60125,163.82611 C 167.58016,163.62408 167.50503,163.43407 167.37584,163.25609 C 167.25085,163.07767 167.07014,162.9157 166.83372,162.77017 C 166.59684,162.62045 166.18635,162.43777 165.60223,162.22216 C 164.78362,161.92039 164.1898,161.65261 163.82077,161.4188 C 163.45174,161.18501 163.15728,160.91152 162.9374,160.59833 C 162.72172,160.28471 162.59303,159.92798 162.55131,159.52812 C 162.48017,158.84628 162.66999,158.23932 163.12079,157.70724 C 163.57159,157.17517 164.1779,156.86939 164.93971,156.7899 C 165.2175,156.76093 165.49039,156.76649 165.75837,156.8066 C 165.96145,156.83647 166.21124,156.90614 166.50774,157.01561 C 166.80799,157.12044 167.01494,157.16692 167.12859,157.15506 C 167.23801,157.14365 167.32078,157.10097 167.3769,157.02704 C 167.433,156.95311 167.47502,156.78492 167.50295,156.52246 L 167.69235,156.5027 M 178.15386,153.67856 L 178.85033,155.90161 L 178.63226,155.96992 C 178.34236,155.49756 178.08387,155.175 177.8568,155.00223 C 177.62846,154.82544 177.35612,154.71342 177.03977,154.66618 C 176.86354,154.64158 176.58361,154.68937 176.19999,154.80954 L 175.58819,155.00122 L 177.57322,161.33719 C 177.70479,161.75717 177.80923,162.0127 177.88655,162.10377 C 177.9679,162.19359 178.08786,162.258 178.24643,162.29701 C 178.40776,162.33073 178.60554,162.31089 178.83976,162.23751 L 179.11234,162.15211 L 179.18255,162.37624 L 174.88184,163.72362 L 174.81163,163.4995 L 175.08421,163.4141 C 175.32246,163.33946 175.50099,163.23696 175.6198,163.10661 C 175.70708,163.01719 175.7595,162.89433 175.77706,162.73805 C 175.79112,162.62722 175.73362,162.36586 175.60458,161.95395 L 173.61956,155.61798 L 173.02594,155.80395 C 172.4727,155.97729 172.10759,156.22028 171.9306,156.53293 C 171.68175,156.9701 171.60577,157.5061 171.70266,158.14092 L 171.47248,158.21304 L 170.77602,155.98999 L 178.15386,153.67856 M 188.75233,156.68036 L 185.82328,157.49613 L 185.69954,158.40037 C 185.66033,158.70122 185.66513,158.93929 185.71395,159.11458 C 185.77867,159.34695 185.92012,159.49206 186.1383,159.5499 C 186.26653,159.58447 186.55125,159.55789 186.99246,159.47015 L 187.05547,159.6964 L 184.29764,160.46448 L 184.23462,160.23823 C 184.51973,160.1105 184.73026,159.92008 184.86623,159.66697 C 185.00106,159.40977 185.12113,158.92607 185.22644,158.21585 L 186.34946,150.77352 L 186.46564,150.74116 L 191.34965,156.70816 C 191.81439,157.27279 192.16177,157.61313 192.39177,157.72918 C 192.56557,157.81695 192.78168,157.83583 193.04012,157.78582 L 193.10313,158.01207 L 189.09174,159.12928 L 189.02873,158.90303 L 189.19383,158.85705 C 189.51588,158.76735 189.72964,158.6595 189.83512,158.53348 C 189.90663,158.44327 189.92536,158.33702 189.89131,158.21472 C 189.87086,158.14135 189.83763,158.06933 189.7916,157.99869 C 189.77323,157.96427 189.6695,157.82843 189.48043,157.59116 L 188.75233,156.68036 M 188.4184,156.28576 L 186.38785,153.77411 L 185.91128,156.98401 L 188.4184,156.28576 M 199.24923,148.56326 L 203.76876,153.67262 L 203.57553,149.97699 C 203.54857,149.46142 203.45638,149.11664 203.29898,148.94265 C 203.08331,148.70816 202.73693,148.60762 202.25984,148.64103 L 202.24758,148.40649 L 205.08745,148.258 L 205.09971,148.49254 C 204.7387,148.55804 204.49679,148.63213 204.374,148.71482 C 204.25519,148.79308 204.16429,148.9186 204.1013,149.09139 C 204.04229,149.25975 204.0234,149.54677 204.04462,149.95246 L 204.41881,157.10919 L 204.20329,157.12046 L 198.01623,150.26766 L 198.30193,155.73187 C 198.32778,156.22632 198.45723,156.55432 198.69027,156.71587 C 198.92753,156.8772 199.19196,156.95025 199.48355,156.935 L 199.6864,156.9244 L 199.69866,157.15894 L 196.64961,157.31836 L 196.63734,157.08382 C 197.11043,157.05484 197.43498,156.94041 197.61098,156.74052 C 197.78698,156.54063 197.86305,156.21248 197.83919,155.75607 L 197.522,149.68965 L 197.32623,149.47106 C 197.13258,149.25236 196.96415,149.11074 196.82094,149.04618 C 196.67772,148.98164 196.47489,148.95198 196.21244,148.95722 L 196.20017,148.72268 L 199.24923,148.56326"
         style="font-size:13px;font-style:normal;font-variant:normal;font-weight:bold;font-stretch:normal;text-align:center;line-height:100%;writing-mode:lr-tb;text-anchor:middle;fill:#000055;fill-opacity:1;stroke:none;stroke-width:1px;stroke-linecap:butt;stroke-linejoin:miter;stroke-opacity:1;font-family:Times New Roman" />
    </g>
  </g>
</svg>
