<?xml version="1.0" encoding="utf-8"?>
<!-- Generator: Adobe Illustrator 15.0.0, SVG Export Plug-In . SVG Version: 6.00 Build 0)  -->
<!DOCTYPE svg PUBLIC "-//W3C//DTD SVG 1.1//EN" "http://www.w3.org/Graphics/SVG/1.1/DTD/svg11.dtd">
<svg version="1.1" id="Layer_1" xmlns="http://www.w3.org/2000/svg" xmlns:xlink="http://www.w3.org/1999/xlink" x="0px" y="0px"
	 width="3346.185px" height="2230.789px" viewBox="0 0 3346.185 2230.789" enable-background="new 0 0 3346.185 2230.789"
	 xml:space="preserve">
<rect fill="#6FCCDC" width="3346.185" height="379.58"/>
<rect y="1851.211" fill="#6FCCDC" width="3346.185" height="379.578"/>
<rect y="379.587" fill="#FFFFFF" width="3346.185" height="1471.624"/>
<g>
	<path fill="#070606" d="M0,701.146h0.744c-0.148,0.223-0.519,0.596-0.744,0.745V701.146z"/>
	<path fill="#070606" d="M1751.073,805.953c78.642-12.935,155.569,18.06,224.11,53.517
		c68.163,34.342,121.307,96.627,197.419,115.211c94.025,25.347,191.474,5.276,284.012-16.428
		c112.39-27.35,226.34-46.678,339.994-67.636c101.822-18.513,211.695-16.579,305.788,30.917
		c61.477,31.145,124.948,66.899,164.792,125.025c13.602,20.216,26.094,45.64,16.211,70.096
		c-70.685-94.399-175.647-167.544-293.68-185.753c-92.246-13.456-185.085,1.929-275.617,19.25
		c-84.813,18.433-168.66,40.808-252.128,64.669c-100.425,26.459-212.882,41.253-309.517-6.098
		c-67.641-37.534-126.064-90.011-196.682-122.419c-36.412-15.39-71.357-38.803-112.168-39.622
		c-100.19-8.844-192.807,36.644-279.92,79.831c-340.061,153.418-666.594,335.086-1007.474,486.798
		c-62.661,25.418-124.951,53.436-191.477,67.487c-68.383,17.091-142.341,32.406-211.317,10.031
		c-24.607-6.691-43.415-24.457-59.763-43.112c85.478,16.206,173.039,4.686,256.511-16.799
		c104.063-25.792,204.486-66.163,298.292-117.961c277.472-137.215,554.13-276.067,834.579-407.108
		C1569.632,866.381,1654.446,815.465,1751.073,805.953z"/>
	<g>
		<g>
			<path fill="#FBED22" d="M2019.78,849.807c35.454-45.64,91.498-77.601,150.448-77.452c33.808,0.072,69.713-2.673,100.712,13.528
				c66.009,29.285,130.524,83.398,140.857,158.917c-37.91,8.402-76.563,11.894-114.917,17.618
				c-34.417,5.128-68.685-4.313-102.277-10.556c-66.899-12.709-120.048-58.049-173.934-96.259L2019.78,849.807z"/>
		</g>
	</g>
	<path fill-rule="evenodd" clip-rule="evenodd" fill="#010101" d="M1262.52,1245.82h32.396l-23.298,161.616h-32.396L1262.52,1245.82
		z M1410.853,1278.4l4.734-32.58h85.545l-18.751,129.22h14.743l-4.548,32.396H1392.29l4.55-32.396h52.965l14.014-96.64H1410.853z
		 M1306.929,1278.4l4.731-32.58h86.816l-23.293,161.616h-32.58l18.563-129.036H1306.929z M1213.378,1245.82h32.394l-26.569,184.548
		h-32.398L1213.378,1245.82z M2167.456,1245.82h86.813l-23.301,161.616h-32.58l18.574-129.036h-54.238L2167.456,1245.82z
		 M2271.201,1245.82h32.391l-23.3,161.616h-32.396L2271.201,1245.82z M2140.333,1317.523h-32.4l10.379-71.703h32.401
		L2140.333,1317.523z M2062.794,1278.4h-26.201l-18.568,129.036h-48.78l4.553-32.396h16.195l18.748-129.22h91.365l-23.29,161.616
		h-32.59L2062.794,1278.4z M1727.729,1245.82h86.815l-23.298,161.616h-32.577l18.563-129.036h-54.236L1727.729,1245.82z
		 M1823.095,1303.512h32.396l-14.924,103.924h-32.394L1823.095,1303.512z M1826.74,1278.4l4.731-32.58h97.192l-23.29,161.616h-32.59
		l18.561-129.036H1826.74z M2822.313,1245.82h32.564l-18.738,129.22h12.917l9.284-9.827l17.29-119.393h32.396l-18.737,129.404
		l-29.122,32.211h-75.902l4.553-32.396h14.743L2822.313,1245.82z M2685.077,1245.82h32.58l22.027,78.439l11.453-78.439h32.585
		l-12.011,83.171H2741.5l23.475,78.444h-102.829l4.547-32.396h52.96L2685.077,1245.82z M2562.405,1303.512h32.391l-14.922,103.924
		h-32.391L2562.405,1303.512z M2566.042,1278.4l4.727-32.58h97.198l-23.306,161.616h-32.575l18.569-129.036H2566.042z
		 M2420.075,1311.702l-17.475-65.881h32.222l18.559,71.703l7.652-6.374l9.454-65.329h32.396l-11.101,76.255l-31.485,20.201
		l19.296,65.16h-32.396l-19.295-71.708l-7.096,6.548l-9.289,65.16h-32.391l10.737-74.439L2420.075,1311.702z M2380.399,1278.4h-16.2
		l-18.559,129.036h-32.591l18.569-129.036h-15.837l4.731-32.58h64.618L2380.399,1278.4z M3046.904,1278.4h-3.642l-58.971,129.036
		h-32.217l44.959-100.282h-30.764l8.922-61.333h32.4l-8.195,56.597l24.386-56.597h60.433l-23.301,161.616h-54.602l4.553-32.396
		h22.022L3046.904,1278.4z M2926.053,1245.82h32.396l-23.301,161.616h-32.396L2926.053,1245.82z M1659.106,1245.82h53.699
		l-8.919,32.58h-53.694L1659.106,1245.82z M1598.32,1278.4h-36.765l-18.561,129.036h-32.401l23.298-161.616h101.74l-23.296,161.616
		h-32.579L1598.32,1278.4z"/>
</g>
</svg>
