<?xml version="1.0" encoding="UTF-8"?>
<svg version="1.0" viewBox="0 0 750 525" xmlns="http://www.w3.org/2000/svg" xmlns:cc="http://creativecommons.org/ns#" xmlns:dc="http://purl.org/dc/elements/1.1/" xmlns:rdf="http://www.w3.org/1999/02/22-rdf-syntax-ns#" xmlns:xlink="http://www.w3.org/1999/xlink">
<metadata>
<rdf:RDF>
<cc:Work rdf:about="">
<dc:format>image/svg+xml</dc:format>
<dc:type rdf:resource="http://purl.org/dc/dcmitype/StillImage"/>
</cc:Work>
</rdf:RDF>
</metadata>
<g transform="translate(-105.71 24.066)">
<g transform="matrix(1.6667 0 0 1.75 -70.476 -375.7)">
<rect x="105.71" y="200.93" width="450" height="300" fill="#fcdd09"/>
<rect x="405.71" y="200.93" width="150" height="300" fill="#da121a"/>
<rect x="105.71" y="200.93" width="150" height="300" fill="#0b3583"/>
</g>
<g transform="matrix(.29675 0 0 .29675 368.21 127.13)">
<g transform="translate(4.2949e-6 1.1921e-7)">
<g stroke="#000">
<g transform="translate(63.558 180.07)" fill="#eac102">
<path d="m565.04 120.93c0 165.41-111.7 299.5-249.5 299.5-137.8 0-249.5-134.09-249.5-299.5 0-165.41 111.7-299.5 249.5-299.5 137.8 0 249.5 134.09 249.5 299.5z"/>
<path d="m565.04 120.93c0 165.41-111.7 299.5-249.5 299.5-137.8 0-249.5-134.09-249.5-299.5 0-165.41 111.7-299.5 249.5-299.5 137.8 0 249.5 134.09 249.5 299.5z" stroke-width="3"/>
</g>
<g transform="translate(379.1 -879.52)">
<path d="m-26.938 890.75c-18.574 2.5002-36.691 7.6775-53.906 15.094v549.31c17.238 7.3405 35.407 12.444 53.906 15v-579.41zm53.875 0.0937v579.34c18.658-2.4439 36.75-7.625 53.906-15.031v-549.37c-17.159-7.3993-35.35-12.438-53.906-14.937zm-161.66 47.688c-10.228 8.2719-19.769 17.372-28.469 27.156-9.3205 10.353-17.793 21.352-25.438 32.875v363.81c14.903 22.484 32.894 42.843 53.906 60v-483.84zm269.44 0.0937v483.75c14.694-11.891 28.028-25.495 39.625-40.281 5.048-6.3995 9.806-12.987 14.281-19.75v-363.75c-14.969-22.555-33.037-42.992-53.906-59.969z" fill="#ed1c24"/>
<path d="m-3.0565 889.04c-61.273 0.42752-119.76 31.251-160.13 76.66-61.532 68.347-86.457 164.78-75.994 255.1 8.6649 76.862 44.24 152.52 104.69 201.77 43.142 35.57 100.35 54.627 156.06 48.25 60.579-6.1863 115.6-41.31 152.78-88.718 67.128-85.1 83.559-204.24 50.947-306.61-22.539-71.3-71.741-136.97-140.95-168.17-27.28-12.371-57.332-18.776-87.399-18.279z" fill="none" stroke-width="3"/>
</g>
</g>
<g transform="translate(379.1 162.65)">
<g transform="matrix(-1 0 0 1 -.00043429 -775.87)">
<g transform="matrix(1.3974 0 0 1.3959 -411.08 597.57)" fill="#008f4c" stroke="#000">
<path d="m149.24 53.404c-16.783 9.8055-15.111 10.98-32.938 32.646 31.203-1.1596 37.205-3.6767 45.518-9.6336 8.3126-5.957 11.896-7.3219 24.944-26.891-13.061-3.0849-22.645-4.8139-37.524 3.8791z" fill-rule="evenodd" stroke-width=".71599"/>
<path d="m34.521 266.74c7.3003 8.0493 23.21 25.923 47.123 40.146-6.0243-40.184-11.676-51.062-20.08-66.645-9.9176-18.389-26.525-33.417-35.407-25.876-4.9957 4.2416-4.4015 38.3 8.3633 52.374z" fill-rule="evenodd" stroke-width=".71599"/>
<path d="m39.732 197.54c5.6642 14.594 11.757 30.286 35.67 44.509 2.7017-42.366 2.0843-62.796-9.1722-76.462-11.554-14.026-18.344-27.418-29.408-20.967-5.6615 3.3009-3.9654 35.206 2.9096 52.92z" fill-rule="evenodd" stroke-width=".71599"/>
<path d="m49.614 126.44c6.1446 14.398 9.5757 24.287 29.671 39.601 3.2471-31.458-0.21736-48.236-4.2638-57.919-1.9387-4.6388-8.3553-24.441-22.318-24.785-7.2976 5.4824-6.6923 34.661-3.0895 43.103z" fill-rule="evenodd" stroke-width=".71599"/>
<path d="m79.021 71.774c-0.36271 19.434 1.2549 27.167 15.357 48.131 13.193-28.742 16.946-45.198 16.229-55.667-0.34356-5.0159 1.0408-29.647-12.069-34.464-8.6732 2.8438-19.274 28.463-19.516 42z" fill-rule="evenodd" stroke-width=".71599"/>
<path d="m52.472 344.9c7.7562 7.6109 21.354 14.343 44.843 15.749-12.036-37.366-23.597-44.857-32.544-53.935-14.666-14.881-22.572-15.769-35.991-18.359-3.3738 21.31 10.129 43.238 23.691 56.545z" fill-rule="evenodd" stroke-width=".71599"/>
<path d="m84.988 411.61c14.275 7.2583 23.719 10.28 47.206 11.732-20.008-34.752-26.023-35.686-36.377-43.121-16.086-11.551-32.392-19.36-42.952-10.12-2.626 25.629 15.186 32.898 32.123 41.509z" fill-rule="evenodd" stroke-width=".71599"/>
<path d="m75.666 383.58c21.587 23.711 44.665 34.244 55.729 39.132" fill-opacity=".75" fill-rule="evenodd" stroke-width=".71599"/>
<path d="m42.705 306.64c16.045 27.763 43.881 46.84 53.651 53.971" fill-opacity=".75" fill-rule="evenodd" stroke-width=".71599"/>
<path d="m37.999 238.1c13.125 30.333 34.585 57.14 42.799 66.019" fill-opacity=".75" fill-rule="evenodd" stroke-width=".71599"/>
<path d="m49.252 165.9c8.4996 36.331 19.233 63.963 24.971 74.61" fill-opacity=".75" fill-rule="evenodd" stroke-width=".71599"/>
<path d="m62.342 108.9c8.1516 31.993 11.446 46.171 17.068 56.88" fill-opacity=".75" fill-rule="evenodd" stroke-width=".71599"/>
<path d="m95.143 59.996c-1.8828 32.962-3.0201 47.473-0.89203 59.379" fill-opacity=".75" fill-rule="evenodd" stroke-width=".71599"/>
<path d="m120.35 44.316c-6.4252 18.345-5.835 15.169-5.3675 43.222 23.01-21.107 25.212-22.292 29.863-33.852 4.4625-11.092 4.3131-13.286 1.5654-36.645-11.945 6.116-20.365 11.011-26.061 27.275z" fill-rule="evenodd" stroke-width=".71599"/>
<path d="m101.89 124.19c-12.95 14.496-14.815 20.007-21.289 41.2 29.331-10.708 32.152-13.365 40.888-19.905 8.8022-6.5904 21.608-27.535 14.909-36.536-9.0132-4.9138-23.027 2.3906-34.508 15.242z" fill-rule="evenodd" stroke-width=".71599"/>
<path d="m91.236 186.37c-9.7602 16.809-10.476 22.583-12.542 44.647 26.568-16.404 25.744-17.541 32.215-25.561 6.2014-7.6848 15.611-26.964 6.1434-36.066-9.819-2.9951-17.164 2.0773-25.816 16.98z" fill-rule="evenodd" stroke-width=".71599"/>
<path d="m87.704 241.17c-7.7138 17.841-7.7447 23.659-7.2001 45.813 24.453-19.417 23.5-20.45 28.983-29.175 5.2537-8.3614 12.328-28.614 1.8556-36.538-10.103-1.8185-16.8 4.083-23.638 19.9z" fill-rule="evenodd" stroke-width=".71599"/>
<path d="m121.75 372.71c-0.22071 19.436 1.4535 20.997 13.243 41.765 14.506-15.905 15.409-24.124 17.095-34.291 1.6148-9.742-2.9579-40.972-15.679-44.234-10.021 2.2266-14.463 19.529-14.658 36.76z" stroke-width=".71599"/>
<path d="m89.958 316.23c-0.22071 11.162 0.36272 26.996 12.152 47.764 14.506-15.905 18.682-24.67 20.367-34.836 1.6148-9.742 3.5866-57.878-9.1345-58.959-12.748-0.50025-23.044 28.802-23.384 46.031z" fill-rule="evenodd" stroke-width=".71599"/>
<path d="m136.17 36.445c-12.372 30.61-18.111 37.441-19.921 49.401" fill-opacity=".75" fill-rule="evenodd" stroke-width=".71599"/>
<path d="m165.74 58.9c-28.826 16.096-37.579 17.823-46.485 26.007" fill-opacity=".75" fill-rule="evenodd" stroke-width=".71599"/>
<path d="m119.45 125.93c-23.669 23.018-31.676 26.954-38.156 37.167" fill-opacity=".75" fill-rule="evenodd" stroke-width=".71599"/>
<path d="m353.26 548.24 9.6978-5.4598c-66.159-72.505-140.57-57.264-200.84-102.09-12.259-9.1189-24.421-22.642-31.65-33.165-9.8859-14.389-19.685-28.156-23.525-34.722-8.8689-15.161-17.719-34.404-25.366-79.289-2.5019-14.685-2.9751-39.484-2.8468-61.17 0.11694-19.763 1.778-38.602 2.4688-47.438 0.60243-7.7062 0.98989-26.769 8.75-48.219 6.2909-17.388 18.343-36.822 29.498-52.426l-2.4375-1.75c-11.257 15.747-23.538 35.548-29.904 53.145-7.9442 21.958-8.2962 41.596-8.875 49-0.68736 8.7926-2.3821 27.737-2.5 47.656-0.12982 21.939 2.4893 46.175 3.9375 60.969 2.8074 28.678 16.155 63.859 22.281 79.525 3.0299 7.748 13.298 26.33 23.324 40.769s16.099 23.764 27.148 32.574c58.727 46.833 134.68 29.589 200.84 102.09z" stroke-width=".71599px"/>
<path d="m110.24 186.78c-19.229 26.838-26.414 32.127-30.988 43.325" fill-opacity=".75" fill-rule="evenodd" stroke-width=".71599"/>
<path d="m106.45 237.9c-15.489 29.157-21.908 35.354-24.952 47.06" fill-opacity=".75" fill-rule="evenodd" stroke-width=".71599"/>
<path d="m108 296.43c-2.804 32.896-7.8176 54.227-6.0234 66.189" fill-opacity=".75" fill-rule="evenodd" stroke-width=".71599"/>
<path d="m138.6 359.62c-2.804 32.896-4.7325 42.658-2.9382 54.62" fill-opacity=".75" fill-rule="evenodd" stroke-width=".71599"/>
<path d="m142.02 421.78c5.5016-6.0713 7.637-8.8562 16.727-8.2129 6.0694 0.52583 12.659 5.4369 12.875 10.133 0.21688 4.6989-7.2183 7.6856-6.1063 2.0272 1.1006-5.6006-0.052-7.1626-9.4573-9.1265-4.7822-0.8346-7.2742 4.3811-12.101 7.2052-2.279-2.5595 2.0258 1.9558-1.9379-2.0262z" stroke-width=".71599"/>
<path d="m106.35 98.966c5.5016-6.0713 7.637-8.8562 16.727-8.2129 6.0694 0.52583 12.659 5.4369 12.875 10.133 0.21688 4.6989-1.8261 5.452-3.5996 0.099-1.7917-5.4078-2.5587-5.2344-11.964-7.1983-4.7822-0.8346-7.2742 4.3811-12.101 7.2053-2.279-2.5595 2.0258 1.9558-1.9379-2.0262z" stroke-width=".71599"/>
</g>
</g>
<g transform="translate(0 -775.87)">
<g transform="matrix(1.3974 0 0 1.3959 -411.08 597.57)" fill="#008f4c" stroke="#000">
<path d="m149.24 53.404c-16.783 9.8055-15.111 10.98-32.938 32.646 31.203-1.1596 37.205-3.6767 45.518-9.6336 8.3126-5.957 11.896-7.3219 24.944-26.891-13.061-3.0849-22.645-4.8139-37.524 3.8791z" fill-rule="evenodd" stroke-width=".71599"/>
<path d="m34.521 266.74c7.3003 8.0493 23.21 25.923 47.123 40.146-6.0243-40.184-11.676-51.062-20.08-66.645-9.9176-18.389-26.525-33.417-35.407-25.876-4.9957 4.2416-4.4015 38.3 8.3633 52.374z" fill-rule="evenodd" stroke-width=".71599"/>
<path d="m39.732 197.54c5.6642 14.594 11.757 30.286 35.67 44.509 2.7017-42.366 2.0843-62.796-9.1722-76.462-11.554-14.026-18.344-27.418-29.408-20.967-5.6615 3.3009-3.9654 35.206 2.9096 52.92z" fill-rule="evenodd" stroke-width=".71599"/>
<path d="m49.614 126.44c6.1446 14.398 9.5757 24.287 29.671 39.601 3.2471-31.458-0.21736-48.236-4.2638-57.919-1.9387-4.6388-8.3553-24.441-22.318-24.785-7.2976 5.4824-6.6923 34.661-3.0895 43.103z" fill-rule="evenodd" stroke-width=".71599"/>
<path d="m79.021 71.774c-0.36271 19.434 1.2549 27.167 15.357 48.131 13.193-28.742 16.946-45.198 16.229-55.667-0.34356-5.0159 1.0408-29.647-12.069-34.464-8.6732 2.8438-19.274 28.463-19.516 42z" fill-rule="evenodd" stroke-width=".71599"/>
<path d="m52.472 344.9c7.7562 7.6109 21.354 14.343 44.843 15.749-12.036-37.366-23.597-44.857-32.544-53.935-14.666-14.881-22.572-15.769-35.991-18.359-3.3738 21.31 10.129 43.238 23.691 56.545z" fill-rule="evenodd" stroke-width=".71599"/>
<path d="m84.988 411.61c14.275 7.2583 23.719 10.28 47.206 11.732-20.008-34.752-26.023-35.686-36.377-43.121-16.086-11.551-32.392-19.36-42.952-10.12-2.626 25.629 15.186 32.898 32.123 41.509z" fill-rule="evenodd" stroke-width=".71599"/>
<path d="m75.666 383.58c21.587 23.711 44.665 34.244 55.729 39.132" fill-opacity=".75" fill-rule="evenodd" stroke-width=".71599"/>
<path d="m42.705 306.64c16.045 27.763 43.881 46.84 53.651 53.971" fill-opacity=".75" fill-rule="evenodd" stroke-width=".71599"/>
<path d="m37.999 238.1c13.125 30.333 34.585 57.14 42.799 66.019" fill-opacity=".75" fill-rule="evenodd" stroke-width=".71599"/>
<path d="m49.252 165.9c8.4996 36.331 19.233 63.963 24.971 74.61" fill-opacity=".75" fill-rule="evenodd" stroke-width=".71599"/>
<path d="m62.342 108.9c8.1516 31.993 11.446 46.171 17.068 56.88" fill-opacity=".75" fill-rule="evenodd" stroke-width=".71599"/>
<path d="m95.143 59.996c-1.8828 32.962-3.0201 47.473-0.89203 59.379" fill-opacity=".75" fill-rule="evenodd" stroke-width=".71599"/>
<path d="m120.35 44.316c-6.4252 18.345-5.835 15.169-5.3675 43.222 23.01-21.107 25.212-22.292 29.863-33.852 4.4625-11.092 4.3131-13.286 1.5654-36.645-11.945 6.116-20.365 11.011-26.061 27.275z" fill-rule="evenodd" stroke-width=".71599"/>
<path d="m101.89 124.19c-12.95 14.496-14.815 20.007-21.289 41.2 29.331-10.708 32.152-13.365 40.888-19.905 8.8022-6.5904 21.608-27.535 14.909-36.536-9.0132-4.9138-23.027 2.3906-34.508 15.242z" fill-rule="evenodd" stroke-width=".71599"/>
<path d="m91.236 186.37c-9.7602 16.809-10.476 22.583-12.542 44.647 26.568-16.404 25.744-17.541 32.215-25.561 6.2014-7.6848 15.611-26.964 6.1434-36.066-9.819-2.9951-17.164 2.0773-25.816 16.98z" fill-rule="evenodd" stroke-width=".71599"/>
<path d="m87.704 241.17c-7.7138 17.841-7.7447 23.659-7.2001 45.813 24.453-19.417 23.5-20.45 28.983-29.175 5.2537-8.3614 12.328-28.614 1.8556-36.538-10.103-1.8185-16.8 4.083-23.638 19.9z" fill-rule="evenodd" stroke-width=".71599"/>
<path d="m121.75 372.71c-0.22071 19.436 1.4535 20.997 13.243 41.765 14.506-15.905 15.409-24.124 17.095-34.291 1.6148-9.742-2.9579-40.972-15.679-44.234-10.021 2.2266-14.463 19.529-14.658 36.76z" stroke-width=".71599"/>
<path d="m89.958 316.23c-0.22071 11.162 0.36272 26.996 12.152 47.764 14.506-15.905 18.682-24.67 20.367-34.836 1.6148-9.742 3.5866-57.878-9.1345-58.959-12.748-0.50025-23.044 28.802-23.384 46.031z" fill-rule="evenodd" stroke-width=".71599"/>
<path d="m136.17 36.445c-12.372 30.61-18.111 37.441-19.921 49.401" fill-opacity=".75" fill-rule="evenodd" stroke-width=".71599"/>
<path d="m165.74 58.9c-28.826 16.096-37.579 17.823-46.485 26.007" fill-opacity=".75" fill-rule="evenodd" stroke-width=".71599"/>
<path d="m119.45 125.93c-23.669 23.018-31.676 26.954-38.156 37.167" fill-opacity=".75" fill-rule="evenodd" stroke-width=".71599"/>
<path d="m353.26 548.24 9.6978-5.4598c-66.159-72.505-140.57-57.264-200.84-102.09-12.259-9.1189-24.421-22.642-31.65-33.165-9.8859-14.389-19.685-28.156-23.525-34.722-8.8689-15.161-17.719-34.404-25.366-79.289-2.5019-14.685-2.9751-39.484-2.8468-61.17 0.11694-19.763 1.778-38.602 2.4688-47.438 0.60243-7.7062 0.98989-26.769 8.75-48.219 6.2909-17.388 18.343-36.822 29.498-52.426l-2.4375-1.75c-11.257 15.747-23.538 35.548-29.904 53.145-7.9442 21.958-8.2962 41.596-8.875 49-0.68736 8.7926-2.3821 27.737-2.5 47.656-0.12982 21.939 2.4893 46.175 3.9375 60.969 2.8074 28.678 16.155 63.859 22.281 79.525 3.0299 7.748 13.298 26.33 23.324 40.769s16.099 23.764 27.148 32.574c58.727 46.833 134.68 29.589 200.84 102.09z" stroke-width=".71599px"/>
<path d="m110.24 186.78c-19.229 26.838-26.414 32.127-30.988 43.325" fill-opacity=".75" fill-rule="evenodd" stroke-width=".71599"/>
<path d="m106.45 237.9c-15.489 29.157-21.908 35.354-24.952 47.06" fill-opacity=".75" fill-rule="evenodd" stroke-width=".71599"/>
<path d="m108 296.43c-2.804 32.896-7.8176 54.227-6.0234 66.189" fill-opacity=".75" fill-rule="evenodd" stroke-width=".71599"/>
<path d="m138.6 359.62c-2.804 32.896-4.7325 42.658-2.9382 54.62" fill-opacity=".75" fill-rule="evenodd" stroke-width=".71599"/>
<path d="m142.02 421.78c5.5016-6.0713 7.637-8.8562 16.727-8.2129 6.0694 0.52583 12.659 5.4369 12.875 10.133 0.21688 4.6989-7.2183 7.6856-6.1063 2.0272 1.1006-5.6006-0.052-7.1626-9.4573-9.1265-4.7822-0.8346-7.2742 4.3811-12.101 7.2052-2.279-2.5595 2.0258 1.9558-1.9379-2.0262z" stroke-width=".71599"/>
<path d="m106.35 98.966c5.5016-6.0713 7.637-8.8562 16.727-8.2129 6.0694 0.52583 12.659 5.4369 12.875 10.133 0.21688 4.6989-1.8261 5.452-3.5996 0.099-1.7917-5.4078-2.5587-5.2344-11.964-7.1983-4.7822-0.8346-7.2742 4.3811-12.101 7.2053-2.279-2.5595 2.0258 1.9558-1.9379-2.0262z" stroke-width=".71599"/>
</g>
</g>
</g>
<g transform="translate(379.1 172.65)" stroke="#000">
<g transform="translate(-737.64 -76.63)" stroke-width="1px">
<path d="m802.64 601.85s-43.333 15.568-65 15.568-65-15.568-65-15.568v-14.349s43.333 15.568 65 15.568 65-15.568 65-15.568z" fill="#0071bc"/>
<path d="m802.64 616.2s-43.333 15.568-65 15.568-65-15.568-65-15.568v-14.349s43.333 15.568 65 15.568 65-15.568 65-15.568z" fill="#eac102"/>
<path d="m802.64 630.55s-43.333 15.568-65 15.568-65-15.568-65-15.568v-14.349s43.333 15.568 65 15.568 65-15.568 65-15.568z" fill="#ed1c24"/>
</g>
<g transform="matrix(1.25 0 0 .9564 404.96 -102.77)" stroke-width=".91459px">
<path d="m-345.93 559.85s-26.342-3.1486-39.75-2.0445c-14 1.1529-25.702 9.0445-39.75 9.0445-14.048-1e-5 -25.75-7.8916-39.75-9.0445-13.408-1.1041-39.75 2.0445-39.75 2.0445v20.956s26.341-3.1486 39.75-2.0445c14 1.1529 25.702 9.0445 39.75 9.0445 14.048 1e-5 25.75-7.8916 39.75-9.0445 13.409-1.1041 39.75 2.0445 39.75 2.0445z" fill="#0071bc"/>
<path d="m-345.93 580.8s-26.342-3.1486-39.75-2.0445c-14 1.1529-25.702 9.0445-39.75 9.0445-14.048-1e-5 -25.75-7.8916-39.75-9.0445-13.408-1.1041-39.75 2.0445-39.75 2.0445v20.956s26.341-3.1486 39.75-2.0445c14 1.1529 25.702 9.0445 39.75 9.0445 14.048 1e-5 25.75-7.8916 39.75-9.0445 13.409-1.1041 39.75 2.0445 39.75 2.0445z" fill="#eac102"/>
<path d="m-345.93 601.76s-26.342-3.1486-39.75-2.0445c-14 1.1529-25.702 9.0445-39.75 9.0445-14.048-1e-5 -25.75-7.8916-39.75-9.0445-13.408-1.1041-39.75 2.0445-39.75 2.0445v20.956s26.341-3.1486 39.75-2.0445c14 1.1529 25.702 9.0445 39.75 9.0445 14.048 1e-5 25.75-7.8916 39.75-9.0445 13.409-1.1041 39.75 2.0445 39.75 2.0445z" fill="#ed1c24"/>
</g>
<g transform="matrix(1.25 0 0 .9564 658.62 -102.77)" stroke-width=".91459px">
<path d="m-345.93 559.85s-26.342-3.1486-39.75-2.0445c-14 1.1529-25.702 9.0445-39.75 9.0445-14.048-1e-5 -25.75-7.8916-39.75-9.0445-13.408-1.1041-39.75 2.0445-39.75 2.0445v20.956s26.341-3.1486 39.75-2.0445c14 1.1529 25.702 9.0445 39.75 9.0445 14.048 1e-5 25.75-7.8916 39.75-9.0445 13.409-1.1041 39.75 2.0445 39.75 2.0445z" fill="#0071bc"/>
<path d="m-345.93 580.8s-26.342-3.1486-39.75-2.0445c-14 1.1529-25.702 9.0445-39.75 9.0445-14.048-1e-5 -25.75-7.8916-39.75-9.0445-13.408-1.1041-39.75 2.0445-39.75 2.0445v20.956s26.341-3.1486 39.75-2.0445c14 1.1529 25.702 9.0445 39.75 9.0445 14.048 1e-5 25.75-7.8916 39.75-9.0445 13.409-1.1041 39.75 2.0445 39.75 2.0445z" fill="#eac102"/>
<path d="m-345.93 601.76s-26.342-3.1486-39.75-2.0445c-14 1.1529-25.702 9.0445-39.75 9.0445-14.048-1e-5 -25.75-7.8916-39.75-9.0445-13.408-1.1041-39.75 2.0445-39.75 2.0445v20.956s26.341-3.1486 39.75-2.0445c14 1.1529 25.702 9.0445 39.75 9.0445 14.048 1e-5 25.75-7.8916 39.75-9.0445 13.409-1.1041 39.75 2.0445 39.75 2.0445z" fill="#ed1c24"/>
</g>
</g>
</g>
</g>
</g>
</svg>
