<?xml version="1.0" encoding="utf-8"?>
<!-- Generator: Adobe Illustrator 16.0.0, SVG Export Plug-In . SVG Version: 6.00 Build 0)  -->
<!DOCTYPE svg PUBLIC "-//W3C//DTD SVG 1.1//EN" "http://www.w3.org/Graphics/SVG/1.1/DTD/svg11.dtd">
<svg version="1.1" id="Layer_1" xmlns="http://www.w3.org/2000/svg" xmlns:xlink="http://www.w3.org/1999/xlink" x="0px" y="0px"
	 width="48.15px" height="56.78px" viewBox="0 0 48.15 56.78" enable-background="new 0 0 48.15 56.78" xml:space="preserve">
<path fill="#0054A6" d="M24.027,56.781C46.973,45.793,48.15,31.088,48.15,31.088V0H0v31.088c0,0,1.178,14.705,24.125,25.693"/>
<g>
	<g>
		<path fill="#FFFFFF" d="M10.984,9.365l-9.514,9.563h19.076L10.984,9.365z M4.545,18.014l6.439-6.506v2.287l-4.219,4.219H4.545z
			 M8.861,17.98l2.221-2.158v2.123L8.861,17.98z"/>
	</g>
</g>
<g>
	<g>
		<path fill="#FFFFFF" d="M36.92,9.365l-9.51,9.563h19.074L36.92,9.365z M36.871,17.91l-1.045-1.043l1.045-1.111V17.91z
			 M36.871,13.662l-2.088,2.094l-1.049-1.109l3.137-3.139V13.662z"/>
	</g>
</g>
<circle fill="#FFFFFF" cx="29.322" cy="10.395" r="3.203"/>
<g>
	<g>
		<path fill="#FFFFFF" d="M31.474,12.644c-0.572,0.87-1.555,1.448-2.675,1.448c-1.77,0-3.205-1.438-3.205-3.201
			c0-1.123,0.578-2.107,1.45-2.68l-3.102-3.104l-13.742,13.82h27.557L31.474,12.644z M16.441,14.709l7.52-7.553v2.256l-6.377,6.41
			L16.441,14.709z M18.615,16.883l5.363-5.395v2.256l-4.219,4.25L18.615,16.883z M24.027,17.945l-2.225,0.035l2.225-2.158V17.945z"
			/>
	</g>
</g>
<path fill="#FFFFFF" d="M42.463,26.711c-4.576,5.916-9.219-0.049-9.219-0.049c-4.674,6.01-9.182,0-9.182,0
	c-4.871,6.043-9.32,0-9.32,0c-4.51,6.043-9.219,0.123-9.219,0.123V26.77v-2.871c0,0,4.709,5.916,9.219-0.135c0,0,4.449,6.051,9.32,0
	c0,0,4.508,6.016,9.182,0c0,0,4.643,5.916,9.219,0v2.973V26.711z"/>
<path fill="#FFFFFF" d="M42.463,34.699c-4.576,5.92-9.219-0.049-9.219-0.049c-4.674,6.01-9.182,0-9.182,0
	c-4.871,6.045-9.32,0-9.32,0c-4.51,6.045-9.219,0.129-9.219,0.129v-0.02v-2.871c0,0,4.709,5.912,9.219-0.133c0,0,4.449,6.045,9.32,0
	c0,0,4.508,6.016,9.182,0c0,0,4.643,5.918,9.219,0v2.977V34.699z"/>
<path fill="#FFFFFF" d="M33.244,39.65c-4.674,6.016-9.182,0-9.182,0c-4.871,6.049-9.32,0-9.32,0v2.893c0,0,4.449,6.049,9.32,0
	c0,0,4.508,6.02,9.182,0V39.65z"/>
<path fill="#ED1C24" d="M31.873,10.395c0-1.408-1.145-2.551-2.551-2.551c-1.404,0-2.551,1.143-2.551,2.551
	c0,1.41,1.146,2.551,2.551,2.551C30.729,12.945,31.873,11.805,31.873,10.395z"/>
</svg>
