<?xml version="1.0" encoding="UTF-8" standalone="no"?>
<svg xmlns="http://www.w3.org/2000/svg" height="540" width="400" version="1.1">
 <path d="m121.43,383.08a96.429,130.71,0,1,1,-192.86,0,96.429,130.71,0,1,1,192.86,0z" transform="matrix(2.0688888,0,0,2.0617487,148.27778,-519.80742)" fill="#FFF"/>
 <path fill="#04A" d="m24.875,316c-5.8874,0-13.496,0.53293-21.313,1.25,2.5856,19.742,6.7619,38.741,12.344,56.75v-1.25s61.348-14,92.031-14c63.503,2.2304,125.44,27.319,184.12,28,30.683,0,92.031-14,92.031-14v1.25c5.6853-18.342,9.9267-37.708,12.5-57.844-2.29-0.11-4.5-0.16-6.47-0.16-20.292,0-40.583,6-60.875,6s-40.583-6-60.875-6-40.583,6-60.875,6-40.583-6-60.875-6-40.583,6-60.875,6-40.583-6-60.875-6zm83.063,53.781c-26.686,0-76.484,10.584-89.031,13.344,11.454,33.405,27.817,63.098,47.844,87.406,17.962-3.2692,59.542-10.344,83.188-10.344,63.503,2.2304,45.44,15.319,104.12,16,25.755,0,69.884-8.3779,83.531-11.094,17.77-22.888,32.423-50.158,43-80.531-13.145,2.8826-62.107,13.219-88.531,13.219-63.503-2.2304-125.44-27.319-184.12-28zm42,101.44c-20.532,0-54.446,5.3196-74.875,8.875,34.185,37.16,77.635,59.4,124.94,59.4,48.086,0,92.184-22.998,126.62-61.281-19.154,3.553-51.794,9-72.562,9-63.503-2.2303-45.44-15.319-104.12-16z"/>
 <path fill="#000" d="m144.28,202.84c-7.6392,0.37181-19.259,12.262-24.125,12.562-7.0942,0.4385-8.9784-4.7919-16.938-4.6875-23.143,0.30351-25.2,41.099-56.25,40.844l-45.969-0.375c-0.31699,6.2128-0.5,12.491-0.5,18.812,0,12.958,0.69111,25.686,2,38.156h395c1.3089-12.47,2-25.198,2-38.156,0-6.5646-0.18963-13.084-0.53125-19.531-66.785-0.90676-141.26,2.0918-210.03,3.8125-19.075,0.47727-26.95-52.299-44.656-51.438z"/>
 <path fill="#FFF" d="m119.32,265.11c8.873,11.62,21.373,29.109,32.104,44.173l6.4286,8.9286c18.467,30.494,6.4776,24.868,21.964,47.672l4.1526,9.0802c14.304,21.844,16.754,27.577,16.026,29.168-36.554,18.581-66.726,4.2194-81.786,3.6085-19.589-0.79453-18.61,13.54-43.125,19.936,17.21-1.3778,30.55,4.1302,40.268,2.6786,77.782-18.9,88.478,11.536,129.64,12.5,26.052,0.61038,55.973-16.489,81.964-26.786-6.175-11.394-18.878-12.205-25.357-12.5-11.259-0.51226-34.21,7.1739-36.607-2.5-0.48728-7.7762,14.643-20.531,7.4064-19.914-3.5464-0.57469,22.307-31.734,9.6787-26.647,1.9756-6.5778,19.015-23.457,7.3669-20.819,7.9481-11.399,9.5894-16.046,9.8057-19.713l-3.0178-5.7326c0.48135-3.6909,5.1932-6.7244,5.5432-10.43-1.7678,0.67343-4.4508,3.1773-5.3033,2.0203-0.91159-2.292,4.714-8.0181,6.3135-18.94-3.3061,2.6997-8.6846,8.7671-9.5964,7.5762-1.0093-0.22924,7.5865-19.178,5.0508-35.355-16.859,51.391-52.211,74.292-73.962,106.53-2.3296,2.3653-6.6975-16.19-17.143-23.214,0.50374,2.4608,1.0757,4.9508-0.71429,6.4286-2.1889,0.98971-6.4929-15.161-13.036-22.679l-14.073-12.346c-2.6669-2.3395-5.749-7.3327-9.3196-11.047,0.72237,2.7872,0.58266,4.5687-0.71429,5-2.6226-1.1665-6.7188-15.903-15.714-20,0.47675,2.3814,3.3696,6.8338,1.4286,7.1429-1.568,0.99671-8.6903-12.14-15.714-16.429,0.00002,2.2619,1.7841,6.3079,0,6.7857-6.6424-4.7616-12.065-13.488-19.961-14.173z"/>
 <path fill="#000" d="m109.16,30c-4.4853,3.105-8.8759,6.4604-13.156,10h208c-4.2804-3.5396-8.671-6.895-13.156-10h-181.69zm-42.875,40c-2.6488,3.2342-5.2333,6.5804-7.75,10h282.94c-2.5167-3.4196-5.1012-6.7658-7.75-10h-267.44zm-26.816,40c-1.7962,3.2833-3.5633,6.6049-5.25,10h331.56c-1.6867-3.3951-3.4538-6.7167-5.25-10h-321.06zm-18.125,40c-1.2156,3.2963-2.3827,6.6287-3.5,10h364.31c-1.1173-3.3713-2.2844-6.7037-3.5-10h-357.31zm-11.906,40c-0.75775,3.2981-1.4595,6.649-2.125,10h385.38c-0.6655-3.351-1.3672-6.7019-2.125-10h-381.12z"/>
 <path d="m252.03,134.93a30.557,30.81,0,1,1,-61.114,0,30.557,30.81,0,1,1,61.114,0z" transform="matrix(1.2272101,0,0,1.217151,-15.094454,-29.228769)" fill="#f00000"/>
 <path fill="#FFF" d="m228.75,110c-2.6383,2.9478-4.7994,6.3251-6.4062,10h68.719c-1.6068-3.6749-3.7679-7.0522-6.4062-10h-55.906zm-6.4062,40c1.6068,3.6749,3.7679,7.0522,6.4062,10h55.906c2.6383-2.9478,4.7994-6.3251,6.4062-10h-68.719z"/>
  <path d="m121.43,383.08a96.429,130.71,0,1,1,-192.86,0,96.429,130.71,0,1,1,192.86,0z" transform="matrix(2.0688888,0,0,2.0617487,148.27778,-519.80742)" stroke="#808080" stroke-width="0.48418748" fill="none"/>
</svg>
