<?xml version="1.0" encoding="UTF-8"?>
<svg xmlns="http://www.w3.org/2000/svg" xml:space="preserve" width="1200px" height="800px" viewBox="0 0 900 600" xmlns:xlink="http://www.w3.org/1999/xlink">
 <defs>
  <style type="text/css">
   <![CDATA[
    .fil1 {fill:gold}
    .fil2 {fill:#0051BA}
    .fil0 {fill:white}
   ]]>
  </style>
 </defs>
  <metadata id="CorelCorpID_0Corel-Layer"/>
  <rect class="fil0" width="900" height="600"/>
  <rect class="fil1" width="600" height="600"/>
  <rect class="fil2" width="300" height="600"/>
  <path id="_244292232" class="fil1" d="M146.352 91.285c-1.75748,-0.999213 -2.1626,-2.24764 -2.29724,-3.62008 -6.0815,1.12323 -10.676,-1.12323 -14.5949,-3.62008 -2.97283,-1.87205 -8.24291,-9.61063 -5.94567,-15.6012 1.89094,-4.61811 2.56772,-4.3689 4.18819,-6.98976 -0.405118,-4.49291 -1.08071,-7.61339 1.35118,-9.11102 0.406299,-2.62087 1.21654,-4.3689 2.83819,-7.11496 3.10748,2.99528 4.59449,8.11299 3.24331,10.4846 -1.08071,1.87205 -0.405118,4.61811 -0.134646,5.49213 0.946063,1.87205 2.83701,2.24646 3.10748,3.6189 -0.405118,5.24173 0.675591,6.36496 2.56772,6.11575 3.10866,-1.12323 1.89213,-3.99331 -0.540945,-7.8626 -2.16142,-3.36969 -0.675591,-8.3622 4.3252,-12.1075 0.539764,0.125197 1.62165,-3.6189 1.35118,-6.36496 -1.89213,-4.3689 -2.29724,-7.73858 -0.675591,-9.73583 2.29724,-4.1185 4.72913,-0.623622 5.54055,-4.86732 0.675591,0.124016 0.405118,3.49488 1.89094,5.11772 3.78425,3.86811 0.675591,10.9831 0.811417,12.4807 -0.134646,2.24646 0.540945,4.1185 2.83819,5.99055 4.72913,3.49488 1.89094,12.6071 0.270472,11.6079 -0.540945,3.74409 0.134646,4.2437 1.21535,4.74331 0.540945,0.249213 1.89213,0 2.43307,-0.250394 -0.406299,-2.62087 -0.540945,-6.11575 2.43189,-7.73858 2.16142,-1.12323 1.62165,-2.87008 1.62165,-5.99055 -1.89213,-4.1185 -1.08189,-8.6126 2.43189,-9.98504 0.811417,2.49685 1.35118,4.3689 2.1626,6.24094 0.675591,1.24724 1.89094,1.49764 2.56772,3.99449 -0.540945,2.49567 -0.675591,6.11575 1.89094,7.8626 2.1626,2.24646 3.58346,5.35512 2.29724,10.8591 -1.28622,5.50276 -5.99409,10.0429 -9.18898,10.7339 -3.1937,0.689764 -6.08031,1.62165 -11.0799,1.74685 -0.135827,1.37244 -0.811417,2.62087 -2.1626,3.74409 -3.10866,0.999213 -5.27008,0.748819 -6.75709,0.125197l0.0011811 0.0011811z"/>
  <path class="fil1" d="M204.579 144.358c17.9846,38.5394 -10.2059,85.6417 -54.5799,85.6417 -44.0161,0 -72.2551,-46.4386 -54.9106,-84.9248 -2.8311,31.8673 22.5319,59.9256 54.7772,59.9256 32.5441,0 57.9815,-28.5732 54.7134,-60.6425z"/>
  <circle class="fil1" cx="150" cy="150" r="50"/>
</svg>