<?xml version="1.0" encoding="ISO-8859-1" standalone="no"?>
<svg xmlns="http://www.w3.org/2000/svg" xmlns:xlink="http://www.w3.org/1999/xlink" width="1200px" height="800px" viewBox="0 0 450 300">
<defs>
<g id="crown">
 <path fill="gold" stroke="black" d="M -68,119 L 68,119 L 108,52 C 110,30 88,24 78,38 L 52,82 L 44,82 L 72,33 C 76,11 53,1 43,13 L 33,26 C 24,18 8,16 0,29 C -8,16 -24,18 -33,26 L -43,13 C -53,1 -76,11 -72,33 L -44,82 L -52,82 L -78,38 C -88,24 -110,30 -108,52 Z"/>
 <path fill="#0051ba" stroke="black" d="M 0,66 L 8,57 L 0,48 L -8,57 Z"/>
</g>
<g id="whitecrown">
 <use xlink:href="#crown"/>
 <path fill="white" d="M -61,104 L 61,104 L 93,51 C 96,46 93,41 88,49 L 60,96 L 21,94 L 58,30 C 61,22 54,21 51,25 L 36,44 L 22,35 C 15,31 10,37 15,42 L 27,57 L 0,92 L -27,57 L -15,42 C -10,37 -15,31 -22,35 L -36,44 L -51,25 C -54,21 -61,22 -58,30 L -21,94 L -60,96 L -88,49 C -93,41 -96,46 -93,51 Z"/>
</g>
</defs>
<rect fill="#00923f" width="450" height="300"/>
<rect fill="#0051ba" width="450" height="200"/>
<rect fill="white" width="450" height="100"/>
<path fill="#d81e05" d="M 0,0 V 300 L 150,150 Z"/>
<g transform="translate(220, 130) scale(0.3)">
<use xlink:href="#whitecrown"/>
<use x="270" xlink:href="#crown"/>
<use x="540" xlink:href="#crown"/>
</g>
</svg>