<?xml version="1.0" encoding="UTF-8"?>
<svg width="300mm" height="200mm" version="1.1" viewBox="0 0 300 200" xmlns="http://www.w3.org/2000/svg" xmlns:cc="http://creativecommons.org/ns#" xmlns:dc="http://purl.org/dc/elements/1.1/" xmlns:rdf="http://www.w3.org/1999/02/22-rdf-syntax-ns#">
<style/>
<defs>
<clipPath>
<path d="M 0,841.89 H 595.276 V 0 H 0 Z"/>
</clipPath>
<clipPath id="a">
<path d="M 0,595.28 H 411.02 V 0 H 0 Z"/>
</clipPath>
</defs>
<metadata>
<rdf:RDF>
<cc:Work rdf:about="">
<dc:format>image/svg+xml</dc:format>
<dc:type rdf:resource="http://purl.org/dc/dcmitype/StillImage"/>
<dc:title/>
</cc:Work>
</rdf:RDF>
</metadata>
<g transform="translate(-188.32 -26.637)">
<path d="m488.32 226.64h-300v-200h300z" fill="#fff"/>
<g transform="matrix(.35278 0 0 .35278 278.64 50.009)" fill-rule="evenodd"></g>
<g transform="matrix(.83007 0 0 -.83007 92.823 475.75)"></g>
<g transform="translate(.12421 -5.363)">
<g transform="matrix(2.0709 0 0 -2.0709 79.612 858.24)" clip-path="url(#a)">
<g transform="translate(97.406 348.28)">
<path transform="matrix(.12776 0 0 -.12776 -44.973 50.691)" d="m565.05 67.693c-50.805 0.087022-115.91 15.304-177.36 74.004 0 0-104.03 96.899-44.199 249.52l3.2871 3.8047 4.0156 3.3809 1.2051-1.6426s29.851-89.715 77.096-89.715c0 0 31.183-7.1855 51.33 35.785 0 0 34.119-131.34 82.576-135.6 0 0 45.647-18.488 99.779 126.93 0 0 17.243-45.601 51.268-46.963 0 0 38.541-5.8076 82.779 91.201 0 0 75.493-203.91-139.82-293.75 0 0-37.877-17.054-91.959-16.961zm55.795 23.943s27.582 80.4 64.549 70.326c0 0 7.5224-10.464 21.689 1.8945 0 0-0.58767 4.6097 3.4902 3.3652 0 0-1.1024 7.0519-5.877 5.377 0 0-7.6162 17.565 46.383 16.461 0 0-2.3174 24.514-36.396 23.34 0 0-18.878-2.8798-24.561-13.924 0 0-6.5669 8.7028-9.4316 6.8086l2.8633 16.602s-23.912 4.6492-34.65-4.1328c0 0-10.417-5.3531-12.248-18.174 0 0 22.988-4.1721 28.193-13.471 0 0-44.004-8.8276-53.201-35.314 0 0-11.898-28.64 4.6797-54.994l2.2949-2.5352 2.2226-1.6289z" fill="#21409a" fill-rule="evenodd"/>
</g>
<g transform="translate(113.85 349.6)">
<path transform="matrix(.12776 0 0 -.12776 -61.416 49.371)" d="m562.5 383.12c-4.3362 0.27395-25.359 1.0332-25.359 1.0332l-2.3808 1.6445c-64.699 66.655-63.109 137.25-63.109 137.25 13.283 1.8159 85.816 3.1855 85.816 3.1855-3.303-21.548 5.0332-143.11 5.0332-143.11zm8.0762 0s7.0205 119.78 6.5039 143.11c0 0 73.112-1.3697 86.387-3.1855 0 0-1.2131-76.578-65.113-137.25l-2.457-1.6445s-20.968-0.75925-25.32-1.0332zm38.789 0.23633c-1.4293-0.00236-2.601 0.0097-3.4082 0.04296l-2.5508 0.51758s72.595 70.725 78.027 136.46c0 0 67.33-5.464 90.506-14.293 0 0-29.587-71.617-129.85-121.93 0 0-22.717-0.77844-32.723-0.79492zm-115.51 0.99414-3.9375 1.0332s-107.66 59.644-126.93 123.93c0 0 41.358 9.11 91.357 11.951 0 0-12.328-41.751 77.676-136.91 0 0-21.14 0.50093-38.164 0zm163.61 1.1894c-3.0727 0.01446-4.5497 0.17768-4.0859 0.4668 36.059 22.816 115.61 66.146 139.39 114.58 90.653-12.836 87.084-51.807 87.084-51.807-13.981-49.561-192.69-63.38-222.39-63.24zm-176.75 0.89453s-211.43 12.563-226.7 66.828c0 0-3.71 39.181 87.061 51.854 0 0 17.243-49.945 133.27-114.28l6.3711-4.3984z" fill="#00a652" fill-rule="evenodd"/>
</g>
</g>
<path d="m271.65 183.1v2.5368h-6.7737v4.0416h2.5063l-0.16588 0.22014c-0.39795 0.5281-0.85278 1.3509-1.1172 2.0206-0.60643 1.5354-0.78867 3.1221-0.56586 4.9237 0.26828 2.1694 1.1784 4.1106 2.6319 5.6131 1.3963 1.4434 3.1384 2.2262 5.3113 2.3864 0.44483 0.0328 1.3864 0.0113 1.8526-0.0424 1.823-0.20987 3.3575-0.91857 4.6075-2.1286 1.6528-1.5999 2.6282-3.6633 2.8748-6.0797 0.19135-1.8753-0.0437-3.3923-0.77722-5.0173-0.24218-0.53645-0.684-1.2848-1.0072-1.7048-0.0673-0.0875-0.12247-0.16567-0.12247-0.17467s0.57055-0.0165 1.2681-0.0165h1.2686v-4.0416h-6.8854v-2.5368h-2.4531zm15.192 1.5053v27.875h4.5992v-14.216h3.7078v-4.07h-3.7078v-9.5891h-2.2996zm38.952 0v3.6587c0 2.3772 0.0108 3.7699 0.03 3.9765 0.0378 0.40374 0.13631 0.79496 0.26717 1.062 0.1192 0.24318 0.38841 0.5293 0.60926 0.64699 0.20399 0.10865 0.58474 0.21072 0.90795 0.24392 0.18222 0.0186 1.7945 0.0289 4.5444 0.0289h4.2618v1.756h-11.568v4.0421h3.2752c1.8015 0 3.2758 8e-3 3.2758 0.0165 0 9e-3 -0.12499 0.14391-0.2775 0.29972-0.88914 0.90835-1.5199 1.9938-1.8154 3.1249-0.54976 2.1045-0.15159 4.5143 1.0449 6.3262 1.1034 1.671 2.9202 3.0516 4.916 3.7352 0.92954 0.31838 1.9499 0.50952 2.9616 0.55552 3.0796 0.1398 5.7847-0.91066 7.89-3.0644 1.3-1.33 2.0101-2.792 2.2458-4.624 0.0576-0.44695 0.0658-1.4944 0.015-1.8955-0.20371-1.6078-0.86124-2.9602-2.0221-4.1605l-0.30334-0.31368h6.5583v-4.0421h-11.568v-1.756h10.593v-3.8747h-21.213v-1.8676h21.213v-3.8747h-12.92zm58.493 0v4.0695h21.269v6.2167h-22.189v4.0695h11.875v5.5196h4.5718v-5.5196h11.707v-4.0695h-1.3658v-10.286h-12.934zm-110.05 5.3077c1.0849 0.0285 2.0617 0.54075 2.7507 1.4562 0.61934 0.82292 0.98929 1.7628 1.1606 2.9507 0.0579 0.40185 0.048 1.7029-0.016 2.1182-0.17585 1.1417-0.59643 2.1155-1.2588 2.913-0.5246 0.6316-1.1852 1.0394-1.9647 1.2128-0.24633 0.0549-1.0952 0.0801-1.3518 0.0403-0.81003-0.12575-1.5222-0.51666-2.0552-1.1276-0.6788-0.77816-1.0984-1.7433-1.2904-2.9688-0.0628-0.40093-0.0865-1.4756-0.0429-1.9549 0.18668-2.0556 1.0948-3.6559 2.4438-4.3077 0.36358-0.17568 0.71013-0.27031 1.1539-0.31471 0.15888-0.0159 0.31578-0.0216 0.47077-0.0176zm64.607 10.644c0.31058 5e-3 0.61403 0.0247 0.78756 0.0574 1.1265 0.21208 2.0448 0.70304 2.8319 1.5141 0.71289 0.73464 1.1376 1.6184 1.2526 2.6066 0.0429 0.36993 0.0222 1.1148-0.0408 1.4593-0.10395 0.56787-0.39178 1.245-0.73174 1.7213-0.0891 0.12484-0.28637 0.35678-0.43822 0.51522-0.88603 0.9244-1.8994 1.4547-3.0794 1.6118v-5.1e-4c-0.36262 0.0486-1.0951 0.0479-1.4537-1e-3 -1.1338-0.15486-2.136-0.68016-2.9853-1.5653-0.70538-0.73509-1.1101-1.5878-1.2258-2.5823-0.0469-0.40333-0.0173-1.1804 0.0584-1.5389 0.1837-0.86978 0.56324-1.5876 1.1824-2.2366 0.83281-0.87296 1.8159-1.3725 3.0117-1.5301 0.20178-0.0266 0.51987-0.036 0.83044-0.031zm45.438 0.41083 0.0103 4.7599c9e-3 4.355 0.0137 4.7798 0.0574 4.9966 0.14065 0.69943 0.38956 1.1178 0.79375 1.3332 0.20436 0.10892 0.59406 0.21986 0.88315 0.25166l-5.2e-4 -5.1e-4c0.12437 0.0136 5.5095 0.0274 12.174 0.0284l11.952 4e-3v-4.07h-21.269v-7.3034h-2.3006z" stroke-width=".027875"/>
</g>
</g>
</svg>
