<?xml version="1.0" encoding="UTF-8"?>
<svg width="300mm" height="200mm" version="1.1" viewBox="0 0 300 200" xmlns="http://www.w3.org/2000/svg" xmlns:cc="http://creativecommons.org/ns#" xmlns:dc="http://purl.org/dc/elements/1.1/" xmlns:rdf="http://www.w3.org/1999/02/22-rdf-syntax-ns#" xmlns:xlink="http://www.w3.org/1999/xlink">
<defs>
<rect id="b" x="-.36" y="-.06" width="624" height="842"/>
<clipPath id="a">
<use width="100%" height="100%" xlink:href="#b"/>
</clipPath>
</defs>
<metadata>
<rdf:RDF>
<cc:Work rdf:about="">
<dc:format>image/svg+xml</dc:format>
<dc:type rdf:resource="http://purl.org/dc/dcmitype/StillImage"/>
<dc:title/>
</cc:Work>
</rdf:RDF>
</metadata>
<g transform="translate(-188.32 -26.637)">
<path d="m188.32 26.637h300v200h-300z" fill="#fff" style="paint-order:fill markers stroke"/>
<g transform="matrix(.35278 0 0 .35278 288.01 -263.8)" fill-rule="evenodd"></g>
<g transform="matrix(.26458 0 0 .26458 178 44.098)"></g>
<polygon class="st2" transform="matrix(.26458 0 0 .26458 352.93 280.3)" points="" clip-path="url(#a)" fill="#92bf1e"/>
<rect class="st2" x="400.54" y="341.71" width="0" height="0" clip-path="url(#a)" fill="#92bf1e" stroke-width=".26458"/>
<rect class="st2" x="400.54" y="341.71" width="0" height="0" clip-path="url(#a)" fill="#92bf1e" stroke-width=".26458"/>
<g transform="translate(-.69106 -.71522)">
<g transform="translate(.5292 -1.2558)" stroke-width=".26458">
<g transform="matrix(4.5621 0 0 4.5621 -1526.4 -1447.8)">
<path class="st0" d="m400.33 338.68c0 0.8202-0.6641 1.4843-1.4843 1.4843s-1.4843-0.66411-1.4843-1.4843c0-0.82021 0.6641-1.4843 1.4843-1.4843 0.82021-3e-3 1.4843 0.66411 1.4843 1.4843z" clip-path="url(#a)" fill="#8fc31f"/>
<path class="st0" d="m392.12 345.66c2.1378-0.20373 3.6168 1.2515 4.2915 2.1061 5e-3 8e-3 0.0106 0.0132 0.0159 0.0212 0.0662 0.0873 0.16934 0.14287 0.2884 0.14287 0.15081 0 0.28046-0.0926 0.33602-0.22225 0-3e-3 0-3e-3 3e-3 -5e-3 2.7199-6.8871 12.269-3.4422 12.269-3.4422-9.1387-8.7868-17.203 1.3996-17.203 1.3996z" clip-path="url(#a)" fill="#8fc31f"/>
<path class="st1" d="m400.54 341.71" clip-path="url(#a)" fill="none"/>
<path class="st2" d="m400.54 341.71z" clip-path="url(#a)" fill="#92bf1e"/>
<path class="st3" d="m415.77 341.62c0.0238 0.0423 5e-3 0.0688-0.0423 0.0556l-0.11906-0.0291c5e-3 0.0265-0.0159 0.0397-0.0503 0.0291l-0.15875-0.0397c-0.0476-0.0132-0.0476-0.0344-3e-3 -0.0503 0 0 0.0238-8e-3 0.15346-0.0503l-0.0291-0.0503c-0.0238-0.0423-5e-3 -0.0767 0.045-0.0767 0 0 0.0767 0 0.13759 8e-3 0.0106-5e-3 0.0185-8e-3 0.0344-8e-3 0 0 0.36513 0 0.11642 0.082-0.0529 0.0185-0.0979 0.0344-0.13229 0.045zm9.2657 1.6034c-0.0926-0.0714-0.18786-0.14288-0.28046-0.21431-0.0503 5e-3 -0.11642 0.0159-0.15875 0.0238l-0.0714 0.0106c-0.0476 8e-3 -0.11641-0.0132-0.15081-0.0476 0 0-0.14287-0.14288-0.26723-0.2249-0.12435-0.082 0.11906-0.0529 0.11906-0.0529 0.0397 5e-3 0.10319 8e-3 0.15346 0.0106-0.16404-0.11907-0.32808-0.23548-0.48948-0.34925l3e-3 0.0106c8e-3 0.0476-0.0132 0.10583-0.0476 0.12965-0.0344 0.0212-0.10318 0.0423-0.15081 0.0423h-0.0688c-0.0503 0-0.0609-0.0291-0.0265-0.0635l0.0397-0.0397c0.0344-0.0344 0.09-0.0926 0.12435-0.127l0.0238-0.0238c-0.0318-0.0212-0.0635-0.0423-0.0926-0.0661l-0.26458 0.0582c-0.0318 8e-3 -0.082-5e-3 -0.10584-0.0265l-0.2487-0.20637c-0.0265-0.0212-0.0212-0.0423 0.0132-0.0476l0.10583-0.0132c0.0344-5e-3 0.0873-3e-3 0.11906 8e-3 0.0159 3e-3 0.037 8e-3 0.0582 0.0106-0.29898-0.19844-0.59531-0.3863-0.889-0.56621l-0.0185 5e-3c-0.0476 0.0159-0.11906 0.0106-0.16404-0.0106 0.045 0.0212 0.0529 0.0476 0.0185 0.0609-0.0344 0.0106-0.10054 0.0106-0.14817-3e-3l-0.1561-0.0397c-0.0476-0.0132-0.0873-0.0503-0.0873-0.0847s0.0371-0.0503 0.0847-0.037c-0.0265-8e-3 -0.0529-0.0159-0.0847-0.0238-0.28839-0.082-5e-3 -0.11378-5e-3 -0.11378 0.0318-3e-3 0.0767-0.0106 0.11907-0.0212-0.26194-0.15081-0.52123-0.29634-0.78053-0.43392 0 0.0106-3e-3 0.0238-0.0159 0.0344-0.0265 0.0265-0.0238 0.0688 5e-3 0.0953l0.09 0.0741c0.0291 0.0238 0.0238 0.0344-0.0106 0.0185l-0.0317-0.0132c-0.0371-0.0132-0.0979-0.0265-0.13759-0.0265h-0.18521c-0.0397 0-0.10054-0.0132-0.13493-0.0317l-0.39952-0.19843c-0.0371-0.0185-0.0317-0.037 8e-3 -0.0423l0.3519-0.0476c0.0397-5e-3 0.10319-0.0132 0.14023-0.0159l0.0212-3e-3c-0.6403-0.32809-1.27-0.61119-1.8918-0.85461l-0.0159 0.0212c-0.0291 0.0397-0.082 0.10054-0.11642 0.13494l-0.0794 0.0794c-0.0344 0.0344-0.0953 0.0397-0.13494 0.0106l-0.18785-0.14023c-0.0397-0.0291-0.10054-0.082-0.13494-0.11642l-0.0794-0.0794c-0.0344-0.0344-0.0264-0.045 0.0159-0.0238l0.17198 0.0847c0.045 0.0212 0.11906 0.0476 0.16669 0.0582l0.0317 8e-3c0.0476 0.0106 0.0582-8e-3 0.0212-0.0423l-0.23548-0.20902c-12.049-4.2968-20.362 6.313-20.362 6.313 3.4343-0.32544 5.8023 2.032 6.8633 3.392 0.0132 0.0185 0.0265 0.0344 0.0397 0.0503 0.10848 0.12435 0.26458 0.20373 0.44185 0.20373 0.21961 0 0.41275-0.12171 0.51065-0.30163 0.0212-0.037 0.037-0.0741 0.0476-0.11377 1.352-3.2226 3.3602-5.1197 5.5801-6.1674 0-0.0185 8e-3 -0.0397 0.0238-0.0503l0.0106-5e-3c0.0159-0.0132 0.0397-0.0344 0.0529-0.0503l0.037-0.045c0.0132-0.0159 0.0344-0.0159 0.0503-5e-3l0.0609 0.0503c0.0529-0.0238 0.10583-0.0476 0.16139-0.0688-8e-3 -5e-3 -0.0132-0.0159-0.0132-0.0238l-5e-3 -0.0291c-3e-3 -0.0185 8e-3 -0.045 0.0238-0.0556l0.0106-8e-3c0.0159-0.0106 0.0397-0.0344 0.0529-0.0476l0.0371-0.045c0.0132-0.0159 0.0344-0.0185 0.0503-5e-3l0.12435 0.10318c0.2249-0.0873 0.44979-0.16668 0.67733-0.24077 0.0185-0.0185 0.0423-0.0265 0.0609-0.0185 0.0794-0.0238 0.15875-0.0476 0.23812-0.0714-8e-3 -3e-3 -0.0159-8e-3 -0.0238-0.0106-0.0344-0.0238-0.0265-0.0582 0.0185-0.0767l0.12436-0.0529c0.045-0.0185 0.11906-0.0265 0.16404-0.0159 0.0397 0.0106 0.0503 0.0397 0.0291 0.0714 0.67998-0.17463 1.3652-0.29104 2.0479-0.35454 0.0159-0.0291 0.0476-0.0344 0.0794-0.0106l3e-3 3e-3c0.33073-0.0291 0.65881-0.0476 0.98689-0.0556l0.11377-0.11377c0.0291-0.0265 0.082-0.0582 0.11907-0.0661l0.15875-0.0344c0.0397-8e-3 0.0899-0.0423 0.11377-0.0741l0.0132-0.0185c0.0238-0.0317 0.0661-0.037 0.0979-0.0106l0.12171 0.10583c0.0317 0.0265 0.0317 0.0688 5e-3 0.0953-0.0265 0.0265-0.0423 0.0767-0.0397 0.11377 0.16934 3e-3 0.33603 8e-3 0.50271 0.0159-0.0265-0.0265-0.0185-0.0582 0.0185-0.0714l0.0635-0.0212c0.037-0.0132 0.0741-0.045 0.082-0.0714 0.0106-0.0265 0.0503-0.0529 0.0873-0.0556l0.18785-0.0185c0.037-3e-3 0.10054-0.0132 0.14023-0.0238l0.25665-0.0635c0.037-8e-3 0.0714 0.0159 0.0767 0.0529l0.0185 0.18786c5e-3 0.0397-5e-3 0.0423-0.0238 8e-3l-0.0688-0.13759c-0.0159-0.0344-0.0397-0.0317-0.0476 5e-3l-0.0318 0.12436c-0.0106 0.037-3e-3 0.0979 0.0185 0.13229l5e-3 8e-3c0.43127 0.0397 0.8546 0.0926 1.2621 0.1561 5e-3 -5e-3 0.0106-0.0106 0.0185-0.0159l5e-3 -3e-3c0.0371-0.0185 0.0423-0.0556 0.0132-0.0847l-0.10054-0.10054c-0.0291-0.0291-0.0185-0.0529 0.0212-0.0529h0.0926c0.0423 0 0.10584-8e-3 0.14552-0.0212l0.0979-0.0291c0.0397-0.0106 0.10583-0.0212 0.14552-0.0212h0.0238c0.0397 0 0.0794 0.0317 0.0873 0.0741l5e-3 0.0265c8e-3 0.0397 0.0212 0.0952 0.0318 0.12435 0.0106 0.0291-0.0159 0.0582-0.0556 0.0661l-0.0264 5e-3c-0.0397 8e-3 -0.0873-8e-3 -0.10584-0.037-0.0185-0.0265-0.0397-0.0185-0.045 0.0212l-0.0132 0.0926v8e-3c0.17463 0.0291 0.34396 0.0608 0.51065 0.0926l0.12435-0.0397c0.0371-0.0132 0.10055-0.0265 0.13759-0.0317l0.1561-0.0159c0.0397-5e-3 0.0979-0.0265 0.12965-0.0476l0.0794-0.0529c0.0317-0.0212 0.0847-0.0185 0.11377 5e-3l0.25136 0.20638c0.0318 0.0264 0.0265 0.0556-0.0106 0.0688l-0.21695 0.0714c1.2462 0.2884 2.2913 0.635 2.9951 0.89959 5e-3 -0.0106 8e-3 -0.0238 8e-3 -0.037 0-0.045 0.0265-0.10055 0.0609-0.12436 0.0344-0.0238 0.0661 0 0.0714 0.0476l0.0185 0.17198c0.0714 0.0265 0.13758 0.0529 0.20108 0.0794 0.10584 0.0344 0.10584 0.037 0.49742 0.19315-5e-3 -5e-3 -0.40217-0.33073-0.381-0.33073zm-14.401 5e-3 -0.0185 5e-3c-0.0291 8e-3 -0.0397-0.0132-0.0212-0.045l0.0106-0.0185c0.0185-0.0317 0.045-0.0344 0.0582-8e-3 0.0159 0.0291 3e-3 0.0582-0.0291 0.0661zm0.40217-0.42863-0.0185 5e-3c-0.0291 8e-3 -0.0397-0.0106-0.0212-0.045l0.0106-0.0185c0.0185-0.0318 0.045-0.0344 0.0582-8e-3 0.0132 0.0291 0 0.0582-0.0291 0.0661zm0.42597-0.51329-0.0185 5e-3c-0.0317 8e-3 -0.0397-0.0106-0.0212-0.0423l0.0106-0.0185c0.0185-0.0318 0.045-0.0344 0.0582-8e-3 0.0159 0.0265 3e-3 0.0556-0.0291 0.0635zm0.81757-0.57414 0.0106-0.0185c0.0185-0.0317 0.045-0.0344 0.0582-8e-3 0.0132 0.0291 0 0.0556-0.0291 0.0661l-0.0185 5e-3c-0.0317 5e-3 -0.0397-0.0132-0.0212-0.045zm0.1561 0.51064-0.13494 0.0556c-0.0185 8e-3 -0.0503 0.0132-0.0688 0.0132h-0.0609c-0.0212 0-0.0397-0.0159-0.0423-0.0344l-5e-3 -0.0291c-3e-3 -0.0185 8e-3 -0.045 0.0238-0.0582l0.0106-8e-3c0.0159-0.0132 0.0397-0.0344 0.0529-0.0503l0.037-0.045c0.0132-0.0159 0.037-0.0159 0.0503-3e-3l0.14552 0.12171c0.0132 0.0132 8e-3 0.0291-8e-3 0.037zm0.39158-0.0476c-3e-3 0.0291-0.0159 0.0767-0.0291 0.10583l-3e-3 3e-3c-0.0132 0.0265-0.0238 0.0714-0.0238 0.10054 0 0.0291-0.0238 0.0582-0.0529 0.0688l-0.0476 0.0159c-0.0291 0.0106-0.0741 5e-3 -0.10054-8e-3h-5e-3c-0.0265-0.0132-0.0476-0.0503-0.0476-0.082v-0.0159c0-0.0317 0.0185-0.0741 0.0397-0.0926l0.12171-0.10848c0.0238-0.0185 0.0212-0.0503-5e-3 -0.0661l-0.0317-0.0212c-0.0265-0.0159-0.0238-0.037 5e-3 -0.045l0.15081-0.045c0.0291-0.0106 0.0503 8e-3 0.0476 0.0397zm0.0344-1.0239-0.0185 5e-3c-0.0291 8e-3 -0.0397-0.0106-0.0212-0.045l0.0106-0.0185c0.0185-0.0317 0.045-0.0344 0.0608-8e-3 0.0106 0.0291 0 0.0556-0.0317 0.0662zm0.16669 0.45508-0.0714 0.0132c-0.0476 8e-3 -0.0794-0.0265-0.0714-0.0741l5e-3 -0.0317c0.0106-0.0476 0.0476-0.0635 0.0873-0.0318l0.0661 0.0529c0.0397 0.0317 0.0317 0.0635-0.0159 0.0714zm0.14816 0.40217-0.0318 5e-3c-0.0476 0.0106-0.0635-0.0132-0.0344-0.0529l0.0159-0.0212c0.0291-0.0397 0.0714-0.0423 0.0952-0.0106 0.0238 0.0344 5e-3 0.0714-0.045 0.0794zm5.0774-1.9553c0.0106-0.0476 0.0476-0.0609 0.0873-0.0317l0.0688 0.0529c0.037 0.0317 0.0291 0.0635-0.0185 0.0714l-0.0714 0.0106c-0.0476 8e-3 -0.0794-0.0238-0.0714-0.0714zm-0.26723-0.39158 0.0159-0.0212c0.0291-0.0397 0.0714-0.0423 0.0953-0.0106 0.0212 0.0344 0 0.0688-0.0476 0.0794l-0.0317 5e-3c-0.045 0.0106-0.0609-0.0132-0.0318-0.0529zm-0.0397 0.16404 0.0265 5e-3c0.0397 8e-3 0.0952 0.037 0.12171 0.0662 0.0265 0.0264 0.0265 0.0741 0 0.10318l-0.0318 0.0318c-0.0291 0.0291-0.082 0.0423-0.12171 0.0291l-0.0635-0.0212c-0.0397-0.0132-0.082-0.0529-0.0979-0.09l-0.0132-0.0344c-0.0159-0.037 3e-3 -0.0767 0.0397-0.0847 0.037-0.0106 0.10054-0.0132 0.14023-5e-3zm-0.13229 0.51858-0.0714 0.0106c-0.0476 8e-3 -0.0794-0.0238-0.0714-0.0714l5e-3 -0.0317c0.0106-0.0476 0.0476-0.0635 0.0873-0.0317l0.0661 0.0529c0.0397 0.0291 0.0317 0.0635-0.0159 0.0714zm-0.20373-0.92604 0.0106-0.0185c0.0185-0.0317 0.045-0.0344 0.0609-8e-3 0.0132 0.0291 0 0.0556-0.0291 0.0635l-0.0185 5e-3c-0.0344 8e-3 -0.0423-0.0106-0.0238-0.0423zm-0.0767 0.20637c0.0794-0.0688 0.19315-0.0794 0.254-0.0185 0.0582 0.0609 5e-3 0.12436-0.12435 0.14288l-0.0847 0.0106c-0.12964 0.0185-0.16933-0.0265-0.09-0.0979zm-0.10054 0.56621-0.0212 5e-3c-0.0291 8e-3 -0.0397-0.0106-0.0212-0.045l0.0106-0.0185c0.0185-0.0317 0.045-0.0344 0.0582-8e-3 0.0159 0.0291 3e-3 0.0582-0.0265 0.0661zm-0.10319-0.58737 0.0159-0.0212c0.0291-0.0397 0.0714-0.045 0.0953-0.0106 0.0212 0.0344 0 0.0688-0.0476 0.0794l-0.0317 5e-3c-0.0476 0.0106-0.0609-0.0132-0.0317-0.0529zm-0.20902-0.19844 0.0159-0.0212c0.0291-0.0397 0.0741-0.0423 0.0953-0.0106 0.0212 0.0344 3e-3 0.0688-0.0476 0.0794l-0.0318 8e-3c-0.0476 8e-3 -0.0608-0.0159-0.0317-0.0556zm-0.11906 0.2249 0.0106-0.0185c0.0185-0.0317 0.045-0.0371 0.0609-8e-3 0.0132 0.0265 0 0.0556-0.0291 0.0635l-0.0185 5e-3c-0.0317 8e-3 -0.0423-0.0106-0.0238-0.0423zm-0.46831-0.14552 0.0106-0.0185c0.0185-0.0317 0.045-0.0344 0.0609-8e-3 0.0132 0.0291 0 0.0556-0.0291 0.0635l-0.0212 5e-3c-0.0291 0.0106-0.0397-0.0106-0.0212-0.0423zm-3e-3 0.55033c0.0106-0.0476 0.0503-0.0609 0.0873-0.0317l0.0661 0.0529c0.037 0.0291 0.0291 0.0608-0.0185 0.0688l-0.0714 0.0132c-0.0476 8e-3 -0.0794-0.0238-0.0714-0.0714zm0.12171 0.29104-0.0212 5e-3c-0.0291 8e-3 -0.0397-0.0106-0.0212-0.045l0.0106-0.0185c0.0185-0.0317 0.045-0.0344 0.0582-8e-3 0.0159 0.0291 3e-3 0.0582-0.0265 0.0661zm-0.11113 0.35719c0.037 0.0291 0.0291 0.0609-0.0185 0.0688l-0.0714 0.0106c-0.0476 8e-3 -0.0794-0.0238-0.0714-0.0714l5e-3 -0.0317c0.0106-0.0476 0.0476-0.0609 0.0873-0.0318zm-0.21166-0.80169 0.0159-0.0212c0.0291-0.0397 0.0714-0.0423 0.0953-0.0106 0.0212 0.0344 3e-3 0.0688-0.0476 0.0794l-0.0317 5e-3c-0.0476 0.0106-0.0609-0.0159-0.0317-0.0529zm-0.18521 0.39158c0.0159-0.0106 0.0397-0.0344 0.0529-0.0503l0.037-0.045c0.0132-0.0159 0.037-0.0185 0.0503-5e-3l0.14552 0.12171c0.0159 0.0132 0.0132 0.0291-5e-3 0.037l-0.13494 0.0556c-0.0185 8e-3 -0.0503 0.0132-0.0688 0.0132h-0.0609c-0.0212 0-0.0397-0.0159-0.0423-0.0344l-5e-3 -0.0291c-3e-3 -0.0185 8e-3 -0.045 0.0238-0.0582zm0.0423 0.42863-0.0714 0.0106c-0.0476 8e-3 -0.0794-0.0238-0.0714-0.0714l5e-3 -0.0318c0.0106-0.0476 0.0476-0.0608 0.0873-0.0317l0.0688 0.0529c0.0397 0.0317 0.0291 0.0635-0.0185 0.0714zm-0.14023-0.63765 0.0106-0.0185c0.0185-0.0317 0.045-0.0344 0.0582-8e-3 0.0132 0.0291 0 0.0556-0.0291 0.0635l-0.0185 5e-3c-0.0291 0.0106-0.0397-8e-3 -0.0212-0.0423zm-0.24341 0.41275c0.0106-0.0476 0.0476-0.0609 0.0873-0.0318l0.0688 0.0529c0.037 0.0317 0.0291 0.0609-0.0185 0.0688l-0.0714 0.0106c-0.0476 8e-3 -0.0794-0.0238-0.0714-0.0714zm-0.28311-0.75671 0.0159-0.0212c0.0291-0.0397 0.0714-0.0423 0.0953-0.0106 0.0212 0.0344 0 0.0688-0.0476 0.0794l-0.0317 5e-3c-0.045 0.0106-0.0608-0.0159-0.0317-0.0529zm-0.20637 0.52123 0.0132-0.0106c0.0212-0.0159 0.0503-0.045 0.0688-0.0662l0.0503-0.0582c0.0159-0.0212 0.0476-0.0238 0.0661-5e-3l0.1905 0.15875c0.0185 0.0159 0.0159 0.0397-8e-3 0.0503l-0.17727 0.0741c-0.0238 0.0106-0.0635 0.0185-0.0926 0.0185h-0.082c-0.0265 0-0.0503-0.0212-0.0556-0.0476l-5e-3 -0.0397c0-0.0238 0.0132-0.0582 0.0317-0.0741zm0.10848 0.41011-0.0317 5e-3c-0.0476 0.0106-0.0635-0.0159-0.0344-0.0529l0.0185-0.0212c0.0291-0.0397 0.0714-0.0423 0.0952-0.0106 0.0212 0.0344 3e-3 0.0688-0.0476 0.0794zm-0.43657 0.58737-0.0318 5e-3c-0.0476 0.0106-0.0635-0.0159-0.0344-0.0529l0.0159-0.0212c0.0291-0.0397 0.0714-0.0423 0.0952-0.0106 0.0238 0.0344 3e-3 0.0688-0.045 0.0794zm-0.18785-0.91281 0.0159-0.0212c0.0291-0.0397 0.0714-0.0423 0.0953-0.0106 0.0212 0.0344 3e-3 0.0688-0.0476 0.0794l-0.0317 5e-3c-0.0476 0.0106-0.0635-0.0159-0.0317-0.0529zm-0.29104-0.2196 0.0106-0.0185c0.0185-0.0317 0.045-0.0344 0.0582-8e-3 0.0132 0.0265 0 0.0556-0.0291 0.0661l-0.0185 5e-3c-0.0317 5e-3 -0.0397-0.0132-0.0212-0.045zm-0.5715 0.23548 0.0106-0.0185c0.0185-0.0317 0.045-0.0344 0.0609-8e-3 0.0132 0.0291 0 0.0556-0.0291 0.0661l-0.0212 5e-3c-0.0318 5e-3 -0.0397-0.0132-0.0212-0.045zm-0.0952 0.54768c0-0.0344 0.0132-0.0847 0.0291-0.11377l0.0503-0.0926c0.0159-0.0291 0.0529-0.0609 0.0847-0.0688l0.10054-0.0265c0.0291-8e-3 0.0503 0.0132 0.045 0.045l-8e-3 0.0503c-5e-3 0.0317-0.0212 0.0847-0.0344 0.11641l-3e-3 5e-3c-0.0159 0.0291-0.0503 0.0609-0.0794 0.0688-0.0291 8e-3 -0.0741 0.0318-0.0979 0.0529l-0.0423 0.0371c-0.0238 0.0212-0.045 0.0106-0.045-0.0238zm-0.23813 0.508 0.0106-0.0185c0.0185-0.0317 0.045-0.0344 0.0582-8e-3 0.0132 0.0291 0 0.0556-0.0291 0.0635l-0.0185 5e-3c-0.0317 0.0106-0.0397-0.0106-0.0212-0.0423zm-0.14023-0.39687-0.0714 0.0106c-0.0476 8e-3 -0.0794-0.0238-0.0714-0.0741l5e-3 -0.0317c0.0106-0.0476 0.0476-0.0609 0.0873-0.0318l0.0661 0.0556c0.0423 0.0317 0.0317 0.0635-0.0159 0.0714zm0.70909 0.72231c0 0.045-0.0238 0.0556-0.0556 0.0238-0.0317-0.0291-0.0609-0.0185-0.0661 0.0238l-0.0159 0.13758c-5e-3 0.045-0.045 0.0847-0.0899 0.0926l-0.0635 0.0106c-0.0423 8e-3 -0.0794 0.0132-0.0794-0.0979 0-0.11112-0.0767-0.0741-0.0767-0.0741-0.0397 0.0212-0.0926 8e-3 -0.11906-0.0291l-0.0926-0.12964c-0.0265-0.037-0.0132-0.0767 0.0291-0.0926l0.25929-0.0926c0.0423-0.0159 0.0661-0.0529 0.0582-0.082-0.0106-0.0317 0.0185-0.0556 0.0609-0.0556h0.0635c0.045 0 0.0714 0.0344 0.0609 0.0741-0.0106 0.0423 0.0132 0.09 0.0529 0.11112l5e-3 3e-3c0.0397 0.0185 0.0714 0.0714 0.0714 0.11642v0.0608zm0.26458-0.7964c-0.0291-0.0397-0.0238-0.10054 0.0106-0.13493l0.0794-0.0794c0.0344-0.0344 0.0847-0.0291 0.11377 0.0106l0.0661 0.0979c0.0265 0.0423 0.082 0.0529 0.1217 0.0265l0.10055-0.0661c0.0397-0.0265 0.0741-0.0106 0.0741 0.0397v0.0291c0 0.0503-0.0265 0.10847-0.0609 0.12964-0.0344 0.0212-0.10055 0.0423-0.15082 0.0423h-0.0688-0.15081c-0.0344 0-0.0873-0.0317-0.11642-0.0714zm0.11113 0.90223-0.0317 5e-3c-0.0476 0.0106-0.0635-0.0132-0.0344-0.0529l0.0159-0.0212c0.0291-0.0397 0.0714-0.0423 0.0953-0.0106 0.0238 0.0344 5e-3 0.0688-0.045 0.0794zm0.5027-0.23548c-0.0344 0.0132-0.0635 0.0609-0.0635 0.11113v0.0291c0 0.0503-0.0318 0.0661-0.0714 0.0371l-0.30957-0.2249c-0.0397-0.0291-0.0635-0.082-0.0503-0.11377 0.0106-0.0344 0.0503-0.0423 0.082-0.0212 0.0344 0.0212 0.10319 0.037 0.15082 0.0291l0.11112-0.0159c0.0476-8e-3 0.11377 0.0185 0.14288 0.0582l0.0159 0.0212c0.0291 0.037 0.0265 0.0794-8e-3 0.0899zm0.21696-0.4101-0.0317-0.0238c-0.0238-0.0185-0.0265-0.0503-5e-3 -0.0714l0.32279-0.34131c0.0212-0.0212 0.0609-0.0423 0.09-0.0476l0.0423-8e-3c0.0291-5e-3 0.0688 8e-3 0.09 0.0291l0.0979 0.0979c0.0212 0.0212 0.0344 0.0608 0.0291 0.0899l-0.0344 0.24077c-3e-3 0.0291-0.0212 0.0344-0.0397 0.0106l-0.0847-0.11113c-0.0185-0.0238-0.045-0.0212-0.0582 3e-3l-0.0714 0.12964c-0.0132 0.0265-0.0397 0.0265-0.0582 3e-3l-0.0106-0.0132c-0.0185-0.0238-0.045-0.0212-0.0582 3e-3l-0.045 0.0794c-0.0132 0.0265-0.045 0.0317-0.0688 0.0132l-0.0212-0.0159c-0.0238-0.0185-0.0609-0.0476-0.0847-0.0661zm0.76729 0.51594-0.0714 0.0106c-0.0476 8e-3 -0.0794-0.0238-0.0714-0.0714l5e-3 -0.0318c0.0106-0.0476 0.0503-0.0608 0.0873-0.0317l0.0688 0.0529c0.037 0.0317 0.0291 0.0635-0.0185 0.0714zm0.0741-0.67204c-0.0476 0.0106-0.0635-0.0132-0.0344-0.0529l0.0159-0.0212c0.0291-0.0397 0.0714-0.0423 0.0952-0.0106 0.0212 0.0344 3e-3 0.0688-0.0476 0.0794zm0.19314 0.48154-0.0318 5e-3c-0.0476 0.0106-0.0635-0.0132-0.0344-0.0529l0.0159-0.0212c0.0291-0.0397 0.0714-0.0423 0.0952-0.0106 0.0238 0.0344 3e-3 0.0688-0.045 0.0794zm0.22755 0.14287-0.0318 5e-3c-0.0476 0.0106-0.0635-0.0132-0.0344-0.0529l0.0159-0.0212c0.0291-0.0397 0.0714-0.045 0.0953-0.0106 0.0238 0.0344 5e-3 0.0688-0.045 0.0794zm0.35189-0.25664-0.0714-0.0106c-0.0265-5e-3 -0.0556-0.0185-0.082-0.0397l-0.12435-0.0344c-0.0476-0.0132-0.127-0.0238-0.17463-0.0238h-0.0291c-0.0476 0-0.127-8e-3 -0.17727-0.0159l-0.0317-5e-3c-0.0476-0.0106-0.0556-0.045-0.0212-0.0767l0.19579-0.17198c0.0371-0.0317 0.0953-0.0317 0.12965 3e-3 0.0344 0.0344 0.082 0.0979 0.10583 0.14023l0.0767 0.13229c0.0106 0.0185 0.0291 0.037 0.0503 0.0529l0.15611 0.0423c0.045 0.0106 0.045 0.0159-3e-3 8e-3zm0.1614-0.17463-0.0317 5e-3c-0.0476 0.0106-0.0635-0.0132-0.0344-0.0529l0.0159-0.0212c0.0291-0.0397 0.0741-0.0423 0.0953-0.0106 0.0238 0.0317 5e-3 0.0688-0.045 0.0794zm0.31485-0.77523-0.0291 0.12965c-8e-3 0.0317-0.0344 0.0714-0.0582 0.09l-0.20373 0.14816c-0.0265 0.0185-0.0238 0.0265 8e-3 0.0212l0.0291-8e-3c0.0317-8e-3 0.0714-0.0185 0.0926-0.0238 0.0185-5e-3 0.037 0.0185 0.037 0.0503v0.0714c0 0.0317-0.0238 0.045-0.0503 0.0291l-0.0344-0.0212c-0.0265-0.0159-0.0503-0.0291-0.0503 0.0503 0 0.082-0.24342-0.0291-0.24342-0.0291-0.0291-0.0132-0.0741-0.0397-0.10054-0.0609l-0.0159-0.0106c-0.0238-0.0185-0.0238-0.0503 3e-3 -0.0688l0.0926-0.0661c0.0265-0.0185 0.0714-0.045 0.10054-0.0609l0.11112-0.0556c0.0291-0.0159 0.0265-0.0265-8e-3 -0.0265h-0.20638c-0.0317 0-0.0688-0.0238-0.0847-0.0529l-3e-3 -3e-3c-0.0132-0.0291 0-0.0529 0.0318-0.0529h0.23283 0.11113c0.0291 0 0.0767-0.0132 0.10583-0.0291l0.0873-0.0503c0.0344-0.0159 0.0503-3e-3 0.045 0.0291zm0.0132-0.46831c0 0.0344-0.0265 0.0661-0.0609 0.0688l-0.10584 0.0132c-0.0344 5e-3 -0.0609 0.037-0.0609 0.0688v0.0767c0 0.0344-0.0238 0.0476-0.0529 0.0291l-0.12435-0.0767c-0.0291-0.0185-0.0609-0.0582-0.0688-0.0926l-0.0238-0.082c-0.0106-0.0317 0.0106-0.0635 0.045-0.0661l0.0794-0.0106c0.0344-5e-3 0.0609 0.0106 0.0609 0.0344s0.0265 0.0397 0.0609 0.0344l0.0767-0.0106c0.0344-5e-3 0.0423-0.0291 0.0185-0.0529l-0.14552-0.16404c-0.0238-0.0265-0.0132-0.045 0.0212-0.0397l0.1905 0.0185c0.0344 3e-3 0.0688 0.0317 0.0767 0.0635 8e-3 0.0318 0.0132 0.0847 0.0132 0.11906zm0.49477 1.5319-0.0476-0.0106c-0.0159-5e-3 -0.037-0.0185-0.0529-0.037l-0.0847-0.0317c-0.0317-0.0132-0.082-0.0212-0.11641-0.0212h-0.0185c-0.0317 0-0.0847-8e-3 -0.11642-0.0159l-0.0212-5e-3c-0.0317-0.0106-0.0397-0.0397-0.0132-0.0714l0.12965-0.15875c0.0238-0.0291 0.0635-0.0291 0.0847 3e-3 0.0238 0.0317 0.0529 0.09 0.0714 0.12964l0.0503 0.12436c8e-3 0.0185 0.0185 0.0344 0.0344 0.0503l0.10319 0.0397c0.0291 8e-3 0.0291 0.0132-3e-3 5e-3zm0.0159-0.32544-0.0317 5e-3c-0.0476 0.0106-0.0635-0.0132-0.0318-0.0556l0.0159-0.0212c0.0291-0.0397 0.0714-0.045 0.0953-0.0106 0.0212 0.037 0 0.0714-0.0476 0.082zm0.14816-0.33602c-0.0212 0.0212-0.0609 0.0397-0.09 0.0423l-0.16404 0.0159c-0.0291 3e-3 -0.0556-0.0185-0.0609-0.0476l-0.0317-0.1905c-5e-3 -0.0291 0.0132-0.0556 0.0423-0.0635l0.0185-3e-3c0.0291-5e-3 0.0688-0.0265 0.09-0.0476l0.0238-0.0238c0.0212-0.0212 0.037-0.0159 0.037 0.0106s0.0238 0.045 0.0529 0.0397l0.1905-0.0317c0.0291-5e-3 0.0609-0.0318 0.0714-0.0556l0.0317-0.0741c0.0106-0.0265 0.037-0.0291 0.0529-8e-3l0.0317 0.0397c0.0185 0.0238 0.0423 0.0635 0.0529 0.09l0.0106 0.0238c0.0106 0.0265 0.0265 0.0714 0.037 0.0979l0.0159 0.0476c0.0106 0.0265-5e-3 0.0476-0.0344 0.0397l-0.18786-0.0317c-0.0291-5e-3 -0.0688 8e-3 -0.09 0.0291zm0.46567 0.37571c-0.0238 0.0344-0.0794 0.0556-0.12965 0.045l-0.23812-0.0476c-0.0476-0.0106-0.0688-0.0238-0.0423-0.0344 0.0238-8e-3 0.0635-0.0238 0.0847-0.0318s0.0741-0.0291 0.11906-0.045c0.045-0.0159 0.11642-0.0106 0.15875 0.0106l5e-3 3e-3c0.0476 0.0212 0.0635 0.0661 0.0423 0.10054zm2.585 0.0265 0.0265-0.0238c0.0476-0.045 0.11641-0.0476 0.1561-0.0106 0.037 0.037 3e-3 0.0767-0.0767 0.09l-0.0503 8e-3c-0.0794 8e-3 -0.10319-0.0185-0.0556-0.0635zm-2.3654-0.74877-0.0582-0.10055c-0.0185-0.0318-3e-3 -0.0635 0.0318-0.0688l0.0847-0.0106c0.037-5e-3 0.0873-0.0238 0.11377-0.0397 0.0265-0.0185 0.0741-0.0212 0.10848-8e-3l0.0318 0.0132c0.0344 0.0132 0.0344 0.0397 5e-3 0.0582l-0.0397 0.0238c-0.0317 0.0185-0.0397 0.0582-0.0159 0.0873l0.0132 0.0159c0.0212 0.0291 0.0106 0.0582-0.0265 0.0661l-0.0238 5e-3c-0.0344 5e-3 -0.0926 0.0132-0.127 0.0132-0.037 3e-3 -0.0794-0.0238-0.0979-0.0556zm0.15082 0.78316-0.0317 5e-3c-0.0476 0.0106-0.0635-0.0132-0.0344-0.0529l0.0185-0.0212c0.0291-0.0397 0.0714-0.0423 0.0952-0.0106 0.0212 0.0344 3e-3 0.0688-0.0476 0.0794zm0.0794-0.24077-0.0767-0.13229c-0.0238-0.0423-5e-3 -0.082 0.045-0.09l0.11113-0.0159c0.0476-8e-3 0.11641-0.0317 0.15081-0.0529 0.0344-0.0238 0.10054-0.0265 0.14552-8e-3l0.0397 0.0159c0.045 0.0185 0.0476 0.0529 8e-3 0.0794l-0.0529 0.0318c-0.0423 0.0238-0.0529 0.0794-0.0238 0.11642l0.0159 0.0212c0.0291 0.0397 0.0159 0.0794-0.0344 0.0899l-0.0318 5e-3c-0.0476 0.0106-0.12435 0.0185-0.16933 0.0185-0.045-3e-3 -0.10319-0.0371-0.127-0.0794zm0.36513 0.6059c-0.045-0.0212-0.11907-0.0529-0.16405-0.0688l-0.0794-0.0265c-0.0476-0.0159-0.0476-0.045-5e-3 -0.0688l5e-3 -3e-3c0.0423-0.0212 0.10848-0.0106 0.14287 0.0238l0.12171 0.12171c0.0344 0.0344 0.0265 0.045-0.0159 0.0238zm0.29104 0.28839-5e-3 -3e-3c-0.045-0.0212-0.11642-0.0529-0.16405-0.0688l-0.0794-0.0265c-0.0476-0.0159-0.0476-0.045-5e-3 -0.0688l5e-3 -3e-3c0.045-0.0212 0.10848-0.0106 0.14287 0.0238l0.12171 0.12171c0.037 0.0344 0.0291 0.045-0.0159 0.0238zm-0.10319-0.26987 0.0185-0.0212c0.0291-0.0397 0.0714-0.045 0.0953-0.0106 0.0212 0.0344 3e-3 0.0688-0.0476 0.0794l-0.0317 5e-3c-0.0503 0.0106-0.0661-0.0132-0.0344-0.0529zm0.31221-0.27517-0.11642 0.0344c-0.0476 0.0132-0.12171 5e-3 -0.16404-0.0159l-0.0873-0.045c-0.045-0.0238-0.0476-0.0608-5e-3 -0.09l0.10054-0.0661c0.0397-0.0265 0.11377-0.0423 0.16139-0.0317l0.0317 5e-3c0.0476 0.0106 0.10584 0.0529 0.127 0.0979l3e-3 5e-3c0.0185 0.045 0 0.0926-0.0503 0.10583zm-0.19315-0.47625 0.0317-0.0397c0.0582-0.0688 0.14288-0.0767 0.18786-0.0185 0.0423 0.0609 3e-3 0.12436-0.0926 0.14288l-0.0609 0.0106c-0.0953 0.0185-0.127-0.0238-0.0661-0.0952zm0.19844-0.20902-0.0317 5e-3c-0.0476 0.0106-0.0635-0.0132-0.0344-0.0529l0.0159-0.0212c0.0291-0.0397 0.0714-0.0423 0.0953-0.0106 0.0238 0.0344 3e-3 0.0688-0.045 0.0794zm0.0873-0.26723c-0.037-8e-3 -0.0688 8e-3 -0.0688 0.0344 0 0.0265-0.0317 0.0556-0.0688 0.0635l-0.28575 0.0661c-0.037 8e-3 -0.045-5e-3 -0.0132-0.0291l0.0529-0.0423c0.0291-0.0238 0.0556-0.0741 0.0556-0.11378v-0.0556c0-0.0397-0.0212-0.0926-0.0476-0.11906-0.0265-0.0265-0.0476-0.0212-0.0476 0.0159s-0.0317 0.0635-0.0714 0.0635h-0.0212c-0.0397 0-0.0926-0.0212-0.11906-0.0503l-0.12964-0.127c-0.0265-0.0265-0.0185-0.0556 0.0159-0.0661 0.0344-0.0106 0.0953-0.0238 0.13229-0.0344l0.254-0.0635c0.037-0.0106 0.082 0.0132 0.0979 0.0476l0.10319 0.23018c0.0159 0.0344 0.0609 0.0714 0.0979 0.0767l0.0265 5e-3c0.037 8e-3 0.0741-0.0185 0.0767-0.0556l0.0132-0.0873c5e-3 -0.0397 0.037-0.0529 0.0688-0.0317l0.30163 0.18521c0.0344 0.0212 0.0291 0.0423-8e-3 0.0476l-0.25136 0.0423c-0.037 8e-3 -0.10054 8e-3 -0.13758 0zm0.16934 0.42598-0.0317 5e-3c-0.0476 0.0106-0.0635-0.0132-0.0344-0.0529l0.0159-0.0212c0.0291-0.0397 0.0714-0.045 0.0953-0.0106 0.0238 0.0318 3e-3 0.0688-0.045 0.0794zm0.0741 0.69585-0.0609 0.0106c-0.0952 0.0185-0.12435-0.0265-0.0661-0.0979l0.0317-0.0397c0.0582-0.0688 0.14287-0.0767 0.18785-0.0185 0.0423 0.0635 3e-3 0.127-0.0926 0.14552zm0.44714 0.0132-0.0318 5e-3c-0.0476 0.0106-0.0635-0.0159-0.0344-0.0556l0.0185-0.0212c0.0291-0.0397 0.0714-0.0423 0.0952-0.0106 0.0212 0.037 3e-3 0.0714-0.0476 0.082zm0.0979-0.3175-0.0212 0.0159c-0.0397 0.0291-0.10054 0.0529-0.13229 0.0529-0.0344 0-0.0979-0.0185-0.14023-0.0397l-5e-3 -3e-3c-0.0423-0.0212-0.11906-0.0476-0.16933-0.0556l-0.0714-0.0106c-0.0476-8e-3 -0.0952-0.0529-0.10583-0.10319l-5e-3 -0.0317c-0.0106-0.0476 0.0212-0.0873 0.0714-0.0873h0.0688c0.0503 0 0.11907 0.0265 0.15875 0.0582l0.11113 0.0926c0.037 0.0317 0.0926 0.0238 0.12171-0.0132l0.0159-0.0238c0.0291-0.0397 0.0926-0.0714 0.14288-0.0714h0.0688c0.0476 0 0.0661 0.0318 0.0344 0.0714l-0.0159 0.0238c-0.0291 0.037-0.0873 0.0926-0.127 0.12435zm0.62971 0.46832-0.0132 0.045c-8e-3 0.0265-0.037 0.0397-0.0609 0.0291l-0.0212-8e-3c-0.0238-0.0106-0.0662-0.0106-0.0926-3e-3l-0.0423 0.0159c-0.0265 8e-3 -0.0688 0.0106-0.0953 5e-3l-0.13229-0.0265c-0.0265-5e-3 -0.045-0.0317-0.0423-0.0582l0.0106-0.0847c3e-3 -0.0265 0.0291-0.0503 0.0556-0.0503h0.037 0.0979 0.15346c0.0265 0 0.0661 0.0132 0.0873 0.0317l0.037 0.0291c0.0185 0.0159 0.0291 0.0503 0.0212 0.0741zm1.4843 0.0926 0.0159-0.0212c0.0291-0.0397 0.0741-0.0423 0.0952-0.0106 0.0212 0.0344 3e-3 0.0688-0.0476 0.0794l-0.0317 5e-3c-0.0476 0.0106-0.0635-0.0132-0.0318-0.0529zm-0.5715-0.10319 0.0635-0.0423c0.0265-0.0185 0.0714-0.0265 0.10054-0.0212l0.0185 5e-3c0.0317 5e-3 0.0661 0.0344 0.0794 0.0635v5e-3c0.0132 0.0291 0 0.0582-0.0291 0.0688l-0.0741 0.0212c-0.0291 8e-3 -0.0767 5e-3 -0.10319-0.0106l-0.0556-0.0291c-0.0238-0.0185-0.0238-0.045 0-0.0609zm-0.74348-0.22225-0.0503 8e-3c-0.0794 0.0106-0.10319-0.0159-0.0556-0.0609l0.0291-0.0238c0.0476-0.045 0.11907-0.0503 0.15346-0.0106 0.0344 0.037 3e-3 0.0767-0.0767 0.0873zm0.0767-0.26987-0.0317 5e-3c-0.0476 0.0106-0.0635-0.0132-0.0344-0.0529l0.0185-0.0212c0.0291-0.0397 0.0714-0.0423 0.0953-0.0106 0.0212 0.0344 0 0.0688-0.0476 0.0794zm0.19315 0.77787-0.0317 5e-3c-0.0476 0.0106-0.0635-0.0159-0.0344-0.0556l0.0185-0.0212c0.0291-0.0397 0.0714-0.045 0.0952-0.0106 0.0212 0.0344 0 0.0714-0.0476 0.082zm3e-3 -0.25664c-0.0476-0.0238-0.0476-0.0688-5e-3 -0.10054l5e-3 -5e-3c0.045-0.0318 0.10848-0.0159 0.14288 0.0344l0.12171 0.18256c0.0344 0.0529 0.0265 0.0688-0.0159 0.0344l-5e-3 -5e-3c-0.045-0.0344-0.11906-0.0794-0.16404-0.10319zm0.46302 0.58737-5e-3 -3e-3c-0.0423-0.0212-0.11641-0.0529-0.16404-0.0688l-0.0794-0.0265c-0.045-0.0159-0.0503-0.045-5e-3 -0.0688l5e-3 -3e-3c0.0423-0.0212 0.10847-0.0106 0.14287 0.0238l0.12171 0.12171c0.0344 0.037 0.0265 0.045-0.0159 0.0238zm0.28046 0.0238-0.0503 8e-3c-0.0794 0.0106-0.10319-0.0159-0.0556-0.0608l0.0265-0.0238c0.0476-0.045 0.11641-0.0503 0.15346-0.0106 0.0397 0.037 5e-3 0.0767-0.0741 0.0873zm0.12436-0.19579-3e-3 -3e-3c-0.0317-0.0185-0.0556-0.0317-0.26194-0.10054-0.20637-0.0688-5e-3 -0.0926-5e-3 -0.0926 0.0344-5e-3 0.09-0.0159 0.12436-0.0265l0.11112-0.0317c0.0344-0.0106 0.0873 0 0.11642 0.0185l0.18521 0.127c0.0317 0.0212 0.0291 0.0476-5e-3 0.0609l-0.14552 0.0556c-0.0344 0.0132-0.0847 8e-3 -0.11641-8e-3zm0.65881 0.46567-5e-3 0.0212c-8e-3 0.0212-0.0317 0.0423-0.0529 0.0423h-0.0661c-0.0212 0-0.045-0.0185-0.0529-0.0423l-8e-3 -0.0212c-8e-3 -0.0238-0.0291-0.0529-0.0476-0.0661l-0.1905-0.15345c-0.0185-0.0132-0.0476-0.0317-0.0688-0.0371-0.0212-5e-3 -0.0265-0.0291-0.0159-0.0476l0.0344-0.0661c0.0106-0.0212 0.0371-0.0344 0.0582-0.0291l0.0688 0.0185c0.0212 5e-3 0.0503 0.0238 0.0661 0.0397l0.17727 0.18521c0.0159 0.0159 0.0132 0.0291-0.0106 0.0291h-0.0476c-0.0212 0-0.0238 8e-3 -3e-3 0.0159l0.0556 0.0265c0.0185 0.0106 0.0529 0.0212 0.0741 0.0265l0.0132 3e-3c0.0185 0.0132 0.0291 0.0344 0.0212 0.0556zm1.061 0.41275-0.52917-0.12435c-0.0476-0.0106-0.12435-0.0317-0.17198-0.0476l-0.0794-0.0265c-0.0476-0.0159-0.0556-0.0556-0.0212-0.09l0.0794-0.0794c0.0344-0.0344 0.0953-0.0397 0.13493-0.0106l0.14288 0.10318c0.0397 0.0265 0.10848 0.0714 0.15081 0.0952l0.29898 0.1614c0.045 0.0212 0.0397 0.0317-5e-3 0.0185z" clip-path="url(#a)" fill="#0075c2"/>
<path d="m409.6 347.91h-0.36777l0.0503-0.20902 8e-3 -0.0291c0.0265-0.11377 0.0317-0.19315 0.0132-0.23813-0.0291-0.0767-0.11906-0.11641-0.26987-0.11641-0.10054 0-0.19315 0.0397-0.27252 0.11906-0.0635 0.0661-0.10584 0.14023-0.127 0.2249l-0.27252 1.1086c-0.0265 0.10319-0.0185 0.18521 0.0238 0.25135 0.045 0.0662 0.11377 0.0979 0.20637 0.0979 0.10848 0 0.19844-0.0344 0.26723-0.10583 0.0635-0.0609 0.11113-0.15082 0.13759-0.26459l0.0688-0.27781h-0.26723l0.0741-0.30692h0.635l-0.29369 1.2012h-0.33602l-0.0159-0.11377c-0.0714 0.0503-0.14023 0.09-0.20373 0.11377-0.0794 0.0317-0.1614 0.0476-0.24871 0.0476-0.22754 0-0.36777-0.0767-0.41804-0.23284-0.037-0.12435-0.0212-0.32543 0.0476-0.60589l0.16934-0.68527c0.0714-0.2884 0.15875-0.49477 0.26723-0.62442 0.14023-0.16669 0.34396-0.24871 0.61383-0.24871 0.25135 0 0.41804 0.0714 0.50271 0.21167 0.0794 0.13229 0.09 0.32808 0.0265 0.58473z"/>
<path class="st4" d="m411.53 347.82-0.70909 1.524h-0.34131c3e-3 -0.10583 0.0106-0.23019 0.0212-0.37306 0.0106-0.19844 0.0291-0.42863 0.0503-0.68527l-0.22754 0.54768-0.0741 0.18257-0.14816 0.32808h-0.34132l0.0397-1.524h0.32544c-5e-3 0.045-0.0159 0.16404-0.0317 0.35983-0.0159 0.20638-0.0291 0.43657-0.0423 0.69057 0.0503-0.1323 0.10847-0.27517 0.17727-0.42863 0.0635-0.15081 0.15875-0.35719 0.28045-0.62177h0.32544l-0.0635 1.0504 0.1614-0.39159 0.28046-0.66146h0.3175z" fill="#9fa0a0"/>
<path class="st4" d="m411.89 348.35h-0.30692l0.0238-0.10319c0.037-0.14817 0.10583-0.25929 0.20902-0.33602 0.10848-0.0767 0.25664-0.11642 0.4445-0.11642 0.21695 0 0.35718 0.0423 0.41804 0.12436 0.0503 0.0688 0.0529 0.1852 0.0132 0.34925l-0.26459 1.0768h-0.29898l0.0212-0.0926c-0.0582 0.0503-0.12435 0.082-0.19314 0.0953-0.0529 0.0132-0.1323 0.0185-0.23813 0.0185-0.11642 0-0.20373-0.0344-0.25929-0.10319-0.0529-0.0635-0.0688-0.14023-0.0476-0.23283l0.0317-0.12436c0.0238-0.0926 0.0714-0.16933 0.14288-0.23548 0.0609-0.0556 0.14552-0.10583 0.25664-0.15081 0.0661-0.0291 0.12965-0.0556 0.1905-0.0794 0.0371-0.0106 0.0847-0.0265 0.14023-0.0476 0.0794-0.0265 0.127-0.045 0.14817-0.0609 0.0317-0.0212 0.0529-0.0556 0.0635-0.10055 0.0185-0.0794 0.0185-0.13493-3e-3 -0.16404-0.0238-0.0317-0.0794-0.0476-0.16668-0.0476-0.0873 0-0.15346 0.0132-0.19844 0.037-0.045 0.0265-0.0767 0.0741-0.0926 0.13758zm0.13494 0.30691c-0.0688 0.0291-0.12171 0.0582-0.15875 0.09-0.0344 0.0265-0.0582 0.0529-0.0767 0.0847-0.0106 0.0238-0.0238 0.0556-0.0344 0.0979l-5e-3 0.0106c-0.0212 0.0794-0.0238 0.13229-0.0106 0.15346 0.0159 0.037 0.0767 0.0529 0.17462 0.0529 0.0741 0 0.13759-0.0185 0.19579-0.0582 0.0529-0.037 0.0873-0.082 0.0979-0.13493l0.0979-0.40217c-0.11378 0.0423-0.20903 0.0741-0.28046 0.10583z" fill="#9fa0a0"/>
<path class="st4" d="m413.4 347.82-0.0344 0.14287c0.0609-0.0661 0.11377-0.10848 0.15875-0.12965 0.0556-0.0265 0.13759-0.0397 0.24077-0.0397 0.15611 0 0.2593 0.0317 0.31221 0.0926 0.0503 0.0556 0.0582 0.14817 0.0265 0.27781l-0.2884 1.1774h-0.31485l0.26458-1.0848c0.0185-0.0794 0.0212-0.13494 3e-3 -0.16404-0.0212-0.0423-0.0767-0.0661-0.16933-0.0661-0.0953 0-0.16669 0.0159-0.20902 0.0476-0.0423 0.0291-0.0741 0.0873-0.0953 0.16933l-0.26988 1.098h-0.31255l0.37306-1.5214z" fill="#9fa0a0"/>
<path class="st4" d="m415.54 347.82-0.31485 1.2885c-0.0212 0.0873-0.045 0.15345-0.0661 0.19843-0.0291 0.0582-0.0688 0.10584-0.11377 0.14023-0.0503 0.0344-0.11906 0.0635-0.20637 0.0794-0.0873 0.0185-0.19844 0.0265-0.33602 0.0265-0.1614 0-0.27782-0.0212-0.34661-0.0661-0.0847-0.0556-0.11377-0.15081-0.0847-0.28046h0.31485c-0.0106 0.0423-5e-3 0.0714 0.0132 0.09 0.0265 0.0265 0.0847 0.0397 0.17727 0.0397 0.12171 0 0.20638-0.0185 0.25929-0.0556 0.037-0.0238 0.0661-0.0688 0.082-0.1323l0.0291-0.11377c-0.0423 0.0344-0.0926 0.0582-0.14817 0.0714-0.0529 0.0106-0.12965 0.0185-0.23019 0.0185-0.15081 0-0.25929-0.0476-0.32014-0.14552-0.0556-0.0873-0.0688-0.19844-0.037-0.33073l0.0926-0.381c0.037-0.14817 0.10583-0.26194 0.20902-0.34396 0.10848-0.0847 0.24606-0.127 0.4154-0.127 0.10318 0 0.17462 0.0106 0.21431 0.0317 0.0265 0.0159 0.0503 0.045 0.0688 0.0926l0.0556-0.0953h0.27252zm-0.41539 0.40481c0.0185-0.0714 0.0132-0.12436-0.0159-0.15081-0.0317-0.0318-0.0979-0.0476-0.20108-0.0476-0.0767 0-0.14288 0.0238-0.19844 0.0741-0.0529 0.0503-0.09 0.11642-0.11112 0.1958l-0.082 0.33602c-0.0212 0.082-0.0132 0.14552 0.0185 0.18785 0.0318 0.0423 0.0847 0.0661 0.16139 0.0661 0.10584 0 0.17992-0.0185 0.22754-0.0529 0.0423-0.0317 0.0767-0.0926 0.0979-0.17992z" fill="#9fa0a0"/>
<path d="m417.07 347.76h-0.37042l0.0503-0.20902c0.0212-0.09 0.0212-0.15346 0-0.18785-0.0265-0.0423-0.0979-0.0635-0.20638-0.0635-0.11906 0-0.20373 0.0238-0.25929 0.0714-0.0397 0.037-0.0714 0.10055-0.0926 0.19315-0.0212 0.0873-0.0212 0.15081 0 0.18785 0.0212 0.0397 0.10319 0.10584 0.24078 0.19844l0.10054 0.0661c0.10583 0.0714 0.17727 0.12435 0.21431 0.15346 0.0582 0.0503 0.10054 0.0979 0.127 0.14287 0.0291 0.0529 0.0423 0.11377 0.0423 0.18521 0 0.0714-0.0132 0.16669-0.0423 0.28046-0.0529 0.2196-0.14552 0.37835-0.27517 0.47625-0.13493 0.10583-0.32543 0.15875-0.57414 0.15875-0.24607 0-0.40482-0.0476-0.48154-0.14288-0.0582-0.0767-0.0688-0.19844-0.0265-0.36512l0.0767-0.30957h0.36777l-0.0609 0.24871c-0.0238 0.0979-0.0265 0.16669-5e-3 0.20109 0.0265 0.0503 0.0979 0.0741 0.21696 0.0741s0.21167-0.0265 0.27252-0.082c0.0503-0.045 0.0847-0.11113 0.10583-0.20108 0.0265-0.11113 0.0238-0.20109-0.0132-0.26988-0.045-0.082-0.15345-0.17992-0.32543-0.30162-0.16934-0.11907-0.27252-0.21167-0.30957-0.27517-0.0582-0.0926-0.0635-0.2249-0.0238-0.39423 0.0476-0.19315 0.13494-0.33602 0.26194-0.43392 0.12965-0.0979 0.30162-0.14552 0.51858-0.14552 0.22225 0 0.38365 0.0318 0.48154 0.0926 0.09 0.0582 0.12171 0.14023 0.0953 0.24606z"/>
<path class="st4" d="m417.51 348.35h-0.30692l0.0265-0.10319c0.037-0.14817 0.10583-0.25929 0.20902-0.33602 0.10848-0.0767 0.25665-0.11642 0.4445-0.11642 0.21696 0 0.35719 0.0423 0.41804 0.12436 0.0503 0.0688 0.0529 0.1852 0.0132 0.34925l-0.26458 1.0768h-0.29898l0.0212-0.0926c-0.0582 0.0503-0.12436 0.082-0.19315 0.0953-0.0529 0.0132-0.13229 0.0185-0.23812 0.0185-0.11642 0-0.20373-0.0344-0.2593-0.10319-0.0529-0.0635-0.0688-0.14023-0.0476-0.23283l0.0291-0.12436c0.0238-0.0926 0.0714-0.16933 0.14288-0.23548 0.0609-0.0556 0.14552-0.10583 0.25664-0.15081 0.0635-0.0291 0.12965-0.0556 0.1905-0.0794 0.0371-0.0106 0.0847-0.0265 0.14023-0.0476 0.0794-0.0265 0.127-0.045 0.14817-0.0609 0.0317-0.0212 0.0529-0.0556 0.0635-0.10055 0.0185-0.0794 0.0185-0.13493-3e-3 -0.16404-0.0238-0.0317-0.0794-0.0476-0.16668-0.0476-0.0873 0-0.15346 0.0132-0.19844 0.037-0.045 0.0265-0.0767 0.0741-0.0926 0.13758zm0.13494 0.30691c-0.0688 0.0291-0.12171 0.0582-0.15875 0.09-0.0344 0.0265-0.0582 0.0529-0.0767 0.0847-0.0106 0.0238-0.0238 0.0556-0.0318 0.0979l-5e-3 0.0106c-0.0185 0.0794-0.0238 0.13229-0.0106 0.15346 0.0185 0.037 0.0767 0.0529 0.17463 0.0529 0.0741 0 0.13758-0.0185 0.19579-0.0582 0.0529-0.037 0.0873-0.082 0.10054-0.13493l0.0979-0.40217c-0.11907 0.0423-0.21432 0.0741-0.28575 0.10583z" fill="#9fa0a0"/>
<path class="st4" d="m419.02 347.82-0.0344 0.14287c0.0609-0.0661 0.11377-0.10848 0.15875-0.12965 0.0582-0.0265 0.13759-0.0397 0.24077-0.0397 0.15611 0 0.25929 0.0317 0.31221 0.0926 0.0476 0.0556 0.0582 0.14817 0.0265 0.27781l-0.2884 1.1774h-0.31485l0.26458-1.0848c0.0185-0.0794 0.0212-0.13494 3e-3 -0.16404-0.0212-0.0423-0.0767-0.0661-0.16933-0.0661-0.0979 0-0.16669 0.0159-0.20902 0.0476-0.0423 0.0291-0.0741 0.0873-0.0953 0.16933l-0.26988 1.098h-0.31221l0.37306-1.5214z" fill="#9fa0a0"/>
<path class="st5" d="m412.45 334.48c3e-3 0.0265 5e-3 0.0609 8e-3 0.0979 5e-3 0.0529 0.0132 0.10319 0.0159 0.1561-0.0185-0.36777-0.0556-0.41539-0.0238-0.254z" fill="#f6ab00"/>
<path class="st5" d="m411.1 337.42c-0.87842 0.24606-1.8018-0.0556-2.2966-0.63765-0.0291-0.0397-0.0582-0.0794-0.0847-0.11906 0.0926 0.0688 0.19314 0.12965 0.29898 0.18256 0.36248 0.30163 0.84666 0.50536 1.3917 0.51065 1.0213 0.037 2.1484-0.68527 2.54-1.8574 0.254-0.62706 0.17991-1.4314-0.20109-2.0029-0.127-0.18786-0.17198-0.29369-0.24606-0.381-0.32015-0.44715-0.91281-0.75406-1.4208-0.84667 0.2196 0.12965 0.381 0.3175 0.59002 0.46567 0.0979 0.0767 0.35454 0.11642 0.42598 0.22489 0.53181 0.45244 0.81227 1.1245 0.67204 1.7806-3e-3 0.0635-0.34396 1.2488-0.10848 0.0317 0.0476-0.71967-0.18256-1.3494-0.7329-1.8124-0.0635-0.0952-0.19314-0.15081-0.254-0.22489-0.0926-0.0423-0.17727-0.0767-0.24341-0.11906-0.3519-0.23813-0.63236-0.1958-0.85725-0.15875-0.23548 0.0476-0.42863 0.0979-0.78582 0.0529 0.31221-0.0238 0.88107-0.19579 1.1827-0.20108-0.24077-0.0635-0.61912-0.0873-0.9816-0.0265-0.36513 0.0582-0.70379 0.19579-0.94456 0.29633-0.5768 0.27517-0.46038 0.34396-0.75407 0.77788-0.0318 0.037-0.0582 0.12965-0.0767 0.24606-0.19579 0.27517-0.33073 0.59796-0.381 0.95515-0.0953 0.65352 0.10584 1.2806 0.50271 1.7462 0 5e-3 0 8e-3 3e-3 0.0132 0.23019 0.46037 0.5715 0.75406 0.95514 0.9816 0.55034 0.34925 1.3388 0.44715 2.0585 0.17992 0.71702-0.25665 1.352-0.87313 1.6298-1.6616 0.0397-0.0741 0.10054-0.2487 0.0953-0.38629-0.29105 1.016-1.098 1.7701-1.9764 1.9897zm1.0716-3.9793c0.22225 0.32543 0.30163 0.88635 0.30692 1.2964-3e-3 0.0185-8e-3 0.0344-0.0106 0.0503 0-0.0794-3e-3 -0.14817-5e-3 -0.20638-0.0979-0.73819-0.52652-1.524-1.0874-1.8124 0.26723 0.0476 0.57415 0.34661 0.7964 0.67205zm-3.011-0.67998c0.26723-0.1614 0.51859-0.22754 0.59002-0.22754 0.0767 3e-3 -0.045 0.0212-0.38893 0.20637-0.0318 0.0159-0.0662 0.037-0.10055 0.0609-0.14816 0.0529-0.29104 0.12436-0.42333 0.20638 0.10054-0.0953 0.20902-0.17992 0.32279-0.24606z" fill="#f6ab00"/>
<path class="st5" d="m411.75 332.17c0.18786 0.21696 0.55563 0.47625 0.73025 0.71702 0.26723 0.3175 0.47625 0.69056 0.59002 1.0901-0.0529-0.41539-0.20902-0.83608-0.48683-1.1933-0.2196-0.23812-0.58473-0.43656-0.83344-0.61383z" fill="#f6ab00"/>
<path class="st5" d="m413.06 335.13c0.0741 8e-3 5e-3 0.20373 5e-3 0.29898 0.0265-0.0794 0.045-0.1614 0.0609-0.24607 0.0794-0.38364 0.0609-0.80433-0.0556-1.2012 0.0556 0.44185 0.10319 0.75406-0.0106 1.1483z" fill="#f6ab00"/>
</g>
<g transform="matrix(2.0504 0 0 2.0504 -601.57 -528.23)">
<path class="st6" d="m477.22 337.92h7.6121v2.9951c0 0.71966-0.0132 1.6404-0.33073 2.3045h2.0823c0.46566-0.4445 0.65881-1.7621 0.65881-2.3707v-3.8597c0-0.0873-0.0291-0.1614-0.09-0.22225-0.0582-0.0609-0.13229-0.09-0.21431-0.09h-10.112c-0.082 0-0.15345 0.0317-0.21166 0.09-0.0582 0.0609-0.09 0.13494-0.09 0.22225v0.61383c0 0.0873 0.0317 0.1614 0.0979 0.22225 0.0661 0.0609 0.14023 0.09 0.22225 0.09h0.37571z"/>
<path class="st6" d="m485.54 344.16h-2.2172v5.5219c0 0.0767-0.0344 0.14287-0.10054 0.19843-0.0661 0.0556-0.14816 0.0847-0.24341 0.0847h-1.7172c-0.0953 0-0.17727-0.0317-0.24342-0.0926-0.0661-0.0609-0.10054-0.12965-0.10054-0.20638v-5.506h-5.2493c-0.082 0-0.15346-0.0318-0.21431-0.0926-0.0582-0.0609-0.09-0.13758-0.09-0.2249v-0.62441c0-0.0873 0.0344-0.16405 0.0979-0.2249 0.0662-0.0609 0.14023-0.0926 0.22225-0.0926h12.846c0.082 0 0.15875 0.0291 0.22225 0.0926 0.0661 0.0608 0.0979 0.13758 0.0979 0.2249v0.62441c0 0.09-0.0317 0.16404-0.09 0.2249-0.0582 0.0608-0.13229 0.0926-0.21431 0.0926h-0.38894z"/>
<path class="st6" d="m464.13 348v1.3652h-0.0159c-0.0159 0.0397-0.045 0.0767-0.082 0.11113-0.0635 0.0529-0.14816 0.082-0.24077 0.082h-7.7629c-0.48684 0-0.89429-0.12965-1.2197-0.38894-0.32809-0.25929-0.49213-0.61648-0.49213-1.0716v-2.7411c0-0.0767 0.0344-0.14553 0.0979-0.20373 0.0661-0.0609 0.14817-0.09 0.24077-0.09h1.778c0.0953 0 0.17462 0.0265 0.24077 0.082 0.0661 0.0556 0.0979 0.12171 0.0979 0.19844v2.9686h4.8974v-11.515c0-0.0767 0.0317-0.14552 0.0979-0.20637 0.0661-0.0582 0.14817-0.09 0.24077-0.09h1.778c0.0952 0 0.17727 0.0265 0.24077 0.082 0.0661 0.0556 0.0979 0.12171 0.0979 0.19579v2.4156h2.1564c0.082 0 0.15346 0.0318 0.21167 0.0926 0.0582 0.0609 0.0873 0.13494 0.0873 0.2249v0.61912c0 0.0873-0.0317 0.16405-0.0979 0.2249-0.0635 0.0609-0.13758 0.0926-0.2196 0.0926h-2.1405v7.5512zm-9.4112-10.655v1.4737c0 1.2224-0.381 2.2384-1.1456 3.0427-0.65352 0.68792-1.3944 1.143-2.2251 1.3626-0.13759 0.0344-0.39688 0.11642-0.082 0.36248l0.68262 0.52652c0.17992 0.10584 0.26459 0.127 0.50536 0.0847 1.2726-0.2196 3.0771-1.3547 3.5031-2.4077 0.49742 1.1377 2.2913 2.1987 3.5031 2.4077 0.24077 0.0397 0.32544 0.0185 0.50536-0.0847l0.68262-0.52652c0.31486-0.24606 0.0556-0.32808-0.082-0.36248-0.88106-0.23283-1.6219-0.72495-2.2251-1.3626-0.68263-0.71702-1.0583-1.6034-1.1351-2.6511l-3e-3 -0.0503v-5e-3l-3e-3 -0.0556-3e-3 -0.0529v-3e-3l-3e-3 -0.0529v-0.1754-1.8309c0-0.0767-0.0344-0.14288-0.0979-0.19844-0.0529-0.045-0.11641-0.0714-0.1905-0.0794h-1.8479c-0.0952 0-0.17727 0.0317-0.24077 0.0899-0.0661 0.0609-0.0979 0.12965-0.0979 0.20638z"/>
<path class="st6" d="m435.96 343.91c-1.2568 0-2.3363 0.29633-3.2359 0.89164-0.89958 0.59532-1.3467 1.3256-1.3467 2.1934s0.44979 1.5981 1.3467 2.2013c0.89959 0.60061 1.9764 0.90223 3.2359 0.90223 1.2726 0 2.3574-0.30162 3.257-0.90223 0.87577-0.58473 1.3256-1.2965 1.3467-2.1325v-6.6172h2.1484c0.082 0 0.1561-0.0291 0.2196-0.0926 0.0661-0.0609 0.0979-0.13494 0.0979-0.2249v-0.61912c0-0.0873-0.0291-0.16404-0.0873-0.2249-0.0582-0.0608-0.12964-0.09-0.21166-0.09h-2.1643v-2.3839c0-0.0767-0.0344-0.14288-0.0979-0.19579-0.0661-0.0556-0.14817-0.082-0.24342-0.082h-1.778c-0.0952 0-0.17462 0.0317-0.24077 0.0899-0.0661 0.0609-0.0979 0.12965-0.0979 0.20638v5.289c-0.30428 0.10848-0.68792 0.19579-1.1562 0.25929-0.46567 0.0661-0.99748 0.0979-1.5928 0.0979h-2.6405v-2.6591c0-0.0741-0.0344-0.14287-0.0979-0.19579-0.0661-0.0556-0.14817-0.082-0.24077-0.082h-1.6325c-0.0926 0-0.17463 0.0291-0.24077 0.09-0.0661 0.0582-0.0979 0.12965-0.0979 0.20373v2.6432h-1.9923c-0.082 0-0.15346 0.0318-0.21167 0.09-0.0582 0.0609-0.0873 0.13758-0.0873 0.22489v0.61648c0 0.0873 0.0317 0.16404 0.0979 0.2249 0.0635 0.0608 0.13759 0.0899 0.21961 0.0899h6.8395c0.54504 0 1.0716-0.0556 1.5743-0.16139 0.50535-0.10848 0.92604-0.23283 1.2647-0.37306v1.061c-0.65088-0.2249-1.3652-0.33867-2.1537-0.33867m0 1.233c0.59002 0 1.0927 0.1905 1.5134 0.56885 0.41804 0.37836 0.62706 0.80698 0.62706 1.2832 0 0.48683-0.20902 0.91546-0.62706 1.2832-0.41805 0.36777-0.9234 0.55298-1.5134 0.55298-0.57415 0-1.0689-0.18521-1.487-0.55298s-0.62706-0.7964-0.62706-1.2832c0-0.47625 0.20902-0.90223 0.62706-1.2832 0.4154-0.37835 0.91281-0.56885 1.487-0.56885"/>
<path class="st6" d="m429.36 337.98h5.0324v1.6563c0 0.39952-0.0212 0.78846-0.0635 1.1615-0.0423 0.37307-0.12965 0.70115-0.26459 0.98161h2.1299c0.16933-0.1614 0.32279-0.47096 0.45508-0.92604 0.13229-0.45509 0.20108-0.88107 0.20108-1.2832v-2.513c0-0.0873-0.0291-0.16139-0.0873-0.22225-0.0582-0.0582-0.12964-0.09-0.21166-0.09h-7.5777c-0.082 0-0.15346 0.0318-0.21167 0.09-0.0582 0.0609-0.0873 0.13494-0.0873 0.22225v0.61119c0 0.0873 0.0317 0.1614 0.0979 0.22225 0.0635 0.0609 0.13758 0.09 0.2196 0.09z"/>
</g>
</g>
</g>
</g>
<style type="text/css">.st0{fill-rule:evenodd;clip-rule:evenodd;fill:#009A53;}
	.st1{fill-rule:evenodd;clip-rule:evenodd;fill:#E8380D;}
	.st2{fill-rule:evenodd;clip-rule:evenodd;fill:#0062B1;}
	.st3{fill:#909090;}</style>
<style type="text/css">.st0{fill:#009944;}
	.st1{fill:#004EA2;}
	.st2{fill:none;}
	.st3{fill:#E60012;}</style>
<style type="text/css">.st0{fill:#00559D;}
	.st1{fill:#90B1DD;}</style>
<style type="text/css">.st0{fill:#F18D00;}
	.st1{fill:#22AC38;}
	.st2{fill:#00479D;}</style>
<style type="text/css">.st0{fill-rule:evenodd;clip-rule:evenodd;fill:#009944;}
	.st1{fill-rule:evenodd;clip-rule:evenodd;fill:#E60012;}
	.st2{fill-rule:evenodd;clip-rule:evenodd;fill:#004098;}</style>
<style type="text/css">.st0{clip-path:url(#a);fill:#727171;}
	.st1{clip-path:url(#a);fill:#C9CACA;}
	.st2{clip-path:url(#a);fill:none;stroke:#727171;stroke-width:0.5;stroke-miterlimit:10;}
	.st3{clip-path:url(#a);}
	.st4{fill:#45B035;}
	.st5{fill:#FFFFFF;}
	.st6{fill:#9FA0A0;}
	.st7{fill:#005BAC;}
	.st8{fill:#EA5520;}
	.st9{fill:#727171;}
	.st10{fill:none;stroke:#000000;stroke-width:0.16;}</style>
<style type="text/css">.st0{fill:#8FC31F;}
	.st1{fill:none;}
	.st2{fill:#92BF1E;}
	.st3{fill:#0075C2;}
	.st4{fill:#9FA0A0;}
	.st5{fill:#F6AB00;}
	.st6{fill:#71756F;}</style>
</svg>
