<?xml version="1.0" encoding="UTF-8"?>
<svg width="300mm" height="200mm" version="1.1" viewBox="0 0 300 200" xmlns="http://www.w3.org/2000/svg" xmlns:cc="http://creativecommons.org/ns#" xmlns:dc="http://purl.org/dc/elements/1.1/" xmlns:rdf="http://www.w3.org/1999/02/22-rdf-syntax-ns#" xmlns:xlink="http://www.w3.org/1999/xlink">
<style/>
<defs>
<clipPath>
<path d="M 0,841.89 H 595.276 V 0 H 0 Z"/>
</clipPath>
<clipPath id="a">
<path d="M 0,841.89 H 595.28 V 0 H 0 Z"/>
</clipPath>
</defs>
<metadata>
<rdf:RDF>
<cc:Work rdf:about="">
<dc:format>image/svg+xml</dc:format>
<dc:type rdf:resource="http://purl.org/dc/dcmitype/StillImage"/>
<dc:title/>
</cc:Work>
</rdf:RDF>
</metadata>
<g transform="translate(-188.32 -26.637)">
<path d="m488.32 226.64h-300v-200h300z" fill="#fff"/>
<g transform="matrix(.35278 0 0 .35278 278.64 50.009)" fill-rule="evenodd"></g>
<g transform="matrix(.83007 0 0 -.83007 92.823 475.75)"></g>
<g transform="matrix(.35278 0 0 .35278 509.31 -283.65)" fill-rule="evenodd"></g>
<g transform="translate(0 -.54465)">
<g transform="matrix(.35278 0 0 .35278 552.61 -136.01)" fill-rule="evenodd">
<g transform="matrix(3.0173 0 0 3.0173 -1357.4 -1886.3)"></g>
</g>
</g>
<path d="m524.04 306.37h-210v-297h210z" fill="none"/>
<g transform="translate(-1.1008 1.3075)">
<path d="m419.35 175.49v2.5557h-5.468v3.1157h9.6537v5e-3c0.0681 0 0.1247 0.0583 0.1247 0.12618 0 0.0226-6e-3 0.0472-0.0196 0.0665h0.0196l-12.087 9.1744 6.514 4.9e-4 5.0718-3.8306 3.368 3.8013h4.929l-5.3506-6.0284 4.063-3.0702c0.14053-0.0862 0.26847-0.18802 0.38634-0.29343l0.15894-0.11786-9e-3 -6e-3c0.21308-0.21534 0.36617-0.46246 0.46703-0.72427 7e-3 -0.0122 0.0119-0.0261 0.0191-0.0361 0.0669-0.19379 0.11786-0.38989 0.11786-0.59956 0-0.86587-0.70253-1.5693-1.5718-1.5693h-7e-3l7e-3 -0.0142h-5.5839v-2.5557zm-34.093 1.6358c-3.6085 0-6.1142 0.77906-7.6227 2.0178-1.2013 0.98145-1.6525 2.3196-1.6525 3.3328 0 1.0155 0.45116 2.3519 1.6525 3.3367 1.5085 1.2387 4.0142 2.0139 7.6227 2.0139 3.6074 0 6.11-0.77514 7.6207-2.0139 1.2002-0.98487 1.6534-2.3212 1.6534-3.3367 0-1.0132-0.45326-2.3514-1.6534-3.3328-1.5107-1.2387-4.0133-2.0178-7.6207-2.0178zm-133.71 0.0235c-0.64543 7e-3 -1.3216 0.0348-1.6471 0.0778-1.8304 0.24107-3.3468 0.80558-4.5129 1.6803-0.40473 0.30363-1.0153 0.93701-1.2872 1.3356-0.5865 0.85963-0.85002 1.7034-0.85094 2.7274-2e-3 1.2356 0.40604 2.2553 1.2769 3.1959 0.10298 0.11123 0.18681 0.21176 0.18681 0.22349 0 0.0118-1.4005 0.0215-3.1123 0.0215h-3.1122v2.8355h10.997v1.3488h-9.3368v2.6971h18.778v1.1756h-18.778l9.5e-4 2.5504c0 1.8412 7e-3 2.8307 0.17214 3.1558 0.21691 0.42519 0.72279 0.691 1.448 0.76045v-2e-3c0.14499 0.0139 5.0762 0.027 10.958 0.0298l10.694 5e-3v-2.6628h-19.021l9e-3 -0.57902 9e-3 -0.57951 18.76-0.018v-6.5355l-9.4233-0.018v-1.314l10.979-0.018v-2.8355h-3.0374c-1.6705 0-3.0472-0.01-3.0594-0.022-0.0122-0.0122 0.10093-0.15208 0.25137-0.31102 0.46383-0.49 0.83042-1.1092 1.0309-1.7415 0.15814-0.49908 0.19797-0.78515 0.19513-1.4006-5e-3 -1.0054-0.23468-1.7478-0.8035-2.5953-0.67756-1.0096-1.7134-1.8185-3.0267-2.3635-1.0258-0.42572-2.185-0.69355-3.4678-0.80105-0.16309-0.0136-0.39053-0.0221-0.64944-0.0259-0.19419-3e-3 -0.40594-3e-3 -0.62108-4.9e-4zm183.03 0.19757-2e-3 6.1135h-4.5686v3.1147h4.5686v10.632h-14.763l-2e-3 -0.0122c-0.0975 0-0.17202-0.0753-0.1834-0.17264v-4.9139h-4.8043v5.3834c-2e-3 0.0203-0.0103 0.0304-0.0103 0.0519 0 1.5243 1.233 2.76 2.7562 2.7645l7e-3 0.0137h21.798v-2.6032h9e-3v-20.371zm-33.54 0.0572c-1.5254 0-2.7621 1.2355-2.7621 2.7621 0 0.0226 0.0137 0.043 0.0137 0.0645v9.4307c-1.7306-0.61993-3.9266-0.97809-6.6353-0.97809-4.4562 0-7.5481 0.95742-9.4101 2.4863-1.4824 1.2115-2.0422 2.8639-2.0422 4.1162 0 1.2512 0.55985 2.9026 2.0422 4.1153 1.8621 1.5289 4.9539 2.4897 9.4101 2.4897 4.4528 0 7.5458-0.96085 9.4101-2.4897 1.4824-1.2127 2.0408-2.8641 2.0408-4.1153 0-0.0397-0.0122-0.0872-0.0122-0.12911v-8.8296h3.9079v-3.1132h-3.9079v-2.5078h2e-3c0-0.10083 0.077-0.17905 0.17556-0.18583h3.7118v-3.1142h-3.8898v-2e-3zm-57.511 0.29294c-0.42361 0.0106-0.82678 0.19139-1.1708 0.49883-0.089 0.0796-0.25351 0.30235-0.46312 0.6108-0.0156 0.0114-0.0313 0.0223-0.0474 0.0431-0.52336 0.67591-1.3265 1.7279-2.2021 2.8858-2.0867 2.8888-4.2873 5.6113-6.3336 8.5289l5.108-4.9e-4 1.7097-2.3337c0.0264-0.035 0.0503-0.0625 0.0773-0.0993 1.8285-2.4916 3.3348-4.5335 3.3475-4.5373l5.5276 6.9698 4.8097 4.9e-4c-2.1438-2.8613-4.6362-6.1241-6.4548-8.5289-1.471-1.9453-2.7385-3.5913-2.8164-3.658-0.0779-0.0667-0.21976-0.15902-0.31543-0.20539-0.26018-0.12597-0.52195-0.18094-0.77611-0.17459zm103.9 0.0103v3.1108h19.684c0.10537 2e-3 0.19075 0.0873 0.19075 0.19268 0 0.0362-0.0125 0.0701-0.0333 0.10514h9e-3l-2.1704 9.0986h-18.635v3.1108h10.91v7.6344h4.8034v-7.6344h11.612l3e-3 -3.1103h-2.9068l2.1009-8.8013c0-4e-3 -8e-5 -7e-3 4e-3 -9e-3l0.21323-0.89641h-0.0122c0-0.0104 9e-3 -0.0181 9e-3 -0.0284 0-1.5198-1.2378-2.7572-2.7587-2.7606l-9e-3 -0.0122zm-219.72 0.0587v4.8068h-5.8098v2.9738h5.8098v15.388h4.2532v-23.169h-2.1268zm96.247 0v2.0745h-5.8788v-1.5214h-4.2522l-0.01 1.1326-9e-3 1.1326h-6.8123l-9e-3 -1.1326-0.01-1.1326h-4.2522v4.5906c0 2.6 0.0125 4.6666 0.0362 4.8122 0.0498 0.30693 0.17547 0.55352 0.37998 0.7448 0.17555 0.16422 0.35786 0.26182 0.67292 0.36091 0.15467 0.0486 0.92261 0.0551 7.2187 0.0645l7.0461 0.01v-1.9028h5.8783v3.3886h-17.152v2.7665h17.152v1.1414h-17.152l4.9e-4 2.5675c0 1.3102 0.0149 2.6643 0.0357 2.8086 0.1066 0.73763 0.64567 1.176 1.5537 1.2632h2e-3c0.143 0.0137 4.7221 0.027 10.176 0.0298l9.9163 5e-3v-2.766l-17.412-0.018-0.018-1.1933h17.154v-19.227h-2.1268zm32.058 0v23.169h4.219v-23.169h-2.1092zm-140.75 0.18827c-0.4236 0.0106-0.82678 0.19139-1.1708 0.49882-0.089 0.0796-0.2535 0.30237-0.46312 0.61082-0.0156 0.0114-0.0313 0.0223-0.0474 0.0431-0.52336 0.67592-1.3265 1.7278-2.2022 2.8858-2.0866 2.8888-4.2873 5.6113-6.3336 8.5289l5.108-4.9e-4 1.7097-2.3337c0.0264-0.035 0.0503-0.0625 0.0772-0.0993 1.8285-2.4915 3.3348-4.5335 3.3475-4.5373l5.5276 6.9698 4.8097 4.9e-4c-0.0104-0.0289-3.6897-4.8969-3.7446-4.9545-0.0197-0.0205-1.2393-1.6292-2.7103-3.5744-1.471-1.9453-2.7385-3.5913-2.8164-3.658-0.0779-0.0667-0.21975-0.15903-0.31543-0.2054-0.26017-0.12598-0.52195-0.18094-0.77611-0.17459zm56.48 0.15747-0.0685 4.4693 9e-3 4.4698 0.0787 0.19512c0.2066 0.51095 0.71924 0.79221 1.564 0.85827v-4.9e-4c0.18069 0.0141 5.1098 0.028 10.954 0.0308l10.625 5e-3v-2.5244h-18.986l9e-3 -0.57952 0.01-0.57902 18.691-0.018v-2.5244h-18.71l9e-3 -0.59664 0.01-0.59613 18.794-0.018v-2.5934h-11.534zm-20.102 1.8681c1.2838 9.4e-4 2.3722 0.29344 3.147 0.84555 0.26906 0.19174 0.69421 0.64272 0.84262 0.89347 0.4548 0.76832 0.44733 1.7243-0.0191 2.4369-0.1666 0.25454-0.55868 0.64803-0.82355 0.82648-0.66024 0.44485-1.548 0.83773-2.522 0.83773-1.1382 0-2.2138-0.0719-3.1372-0.5355-0.46039-0.23115-0.69935-0.40095-1.0153-0.72182-0.2896-0.29416-0.44698-0.52771-0.60005-0.89103-0.0851-0.20151-0.0911-0.25358-0.0905-0.7189 7.5e-4 -0.57248 0.0477-0.75905 0.30027-1.1928 0.19815-0.34019 0.7545-0.88361 1.1272-1.1013 0.79184-0.46249 1.684-0.67948 2.7905-0.67879zm133.62 0.26604c1.7907 0 3.0362 0.3253 3.7842 0.8387 0.59614 0.4148 0.82158 0.96908 0.82158 1.3918 0 0.42388-0.22544 0.98169-0.82158 1.3908-0.74798 0.51905-1.9935 0.8431-3.7842 0.8431-1.794 0-3.0341-0.32405-3.7866-0.8431-0.59274-0.40914-0.82012-0.96695-0.82012-1.3908 0-0.42273 0.22738-0.97701 0.82012-1.3918 0.75253-0.5134 1.9926-0.8387 3.7866-0.8387zm-67.187 2.4305h5.8788v1.4867h-5.8788v-0.74334zm-11.1 0.79518h6.8471v2.4897h-6.8471v-1.2446zm-36.935 5.8098v2.8007h26.282v-2.8007h-13.141zm121.61 2.6878c2.4843 0 4.2072 0.48062 5.2464 1.249 0.82619 0.60521 1.14 1.437 1.14 2.0672 0 0.6256-0.31377 1.4586-1.14 2.0672-1.0393 0.76499-2.7622 1.25-5.2464 1.25-2.4831 0-4.207-0.485-5.2474-1.25-0.8228-0.60859-1.1356-1.4416-1.1356-2.0672 0-0.63012 0.31276-1.462 1.1356-2.0672 1.0404-0.76839 2.7643-1.249 5.2474-1.249zm-119.95 1.2544v2.8355h18.778v5.1525h4.2532v-7.988h-11.515z" fill="#060" stroke-width=".034581"/>
<g transform="matrix(1.8401 0 0 -1.8401 136.24 427.3)" clip-path="url(#a)">
<g transform="matrix(1.0444 0 0 1.0444 -1.9252 14.341)">
<path transform="matrix(.13768 0 0 -.13768 29.516 195.44)" d="m566.91 88.598c-119.5 0-216.39 96.886-216.39 216.4 0 16.829 1.9554 33.236 5.6016 48.969h7.4512c-3.7842-15.711-5.7891-32.103-5.7891-48.969 0-115.5 93.617-209.13 209.12-209.13 115.52 0 209.13 93.632 209.13 209.13 0 16.865-2.0043 33.258-5.7813 48.969h7.459c3.6462-15.732 5.6074-32.14 5.6074-48.969 0-119.51-96.908-216.4-216.42-216.4zm0.05274 38.027c-98.534 0-178.42 79.881-178.42 178.41 0 16.974 2.4181 33.376 6.8633 48.934h15.551c-4.8446-15.456-7.4961-31.865-7.4961-48.934 0-90.283 73.206-163.48 163.5-163.48s163.49 73.2 163.49 163.48c0 17.069-2.6654 33.477-7.4883 48.934h15.559c4.4306-15.558 6.8418-31.959 6.8418-48.934 0-98.527-79.876-178.41-178.4-178.41zm0 43.381c-74.587 0-135.04 60.46-135.04 135.05 0 17.258 3.2545 33.744 9.1524 48.91h32.859c-7.6918-14.621-12.072-31.253-12.072-48.91 0-58.041 47.066-105.1 105.1-105.1 58.07 0 105.11 47.06 105.11 105.1 0 17.657-4.3581 34.289-12.064 48.91h32.846c5.9051-15.166 9.1582-31.653 9.1582-48.91 0-74.587-60.474-135.05-135.05-135.05zm-0.05274 48.432c-47.793 0-86.549 38.764-86.549 86.557 0 18.173 5.6295 35.038 15.195 48.969h142.7c9.5948-13.931 15.209-30.796 15.209-48.969 0-47.793-38.771-86.557-86.557-86.557z" fill="#f26821"/>
<path d="m80.626 142.62c0.773 0 1.459-0.348 1.875-0.878 0.587-0.734 1.54-1.213 2.616-1.213 1.078 0 2.032 0.479 2.615 1.213 0.419 0.53 1.102 0.878 1.877 0.878 0.773 0 1.459-0.348 1.877-0.878 0.584-0.734 1.539-1.213 2.616-1.213 1.076 0 2.031 0.479 2.615 1.213 0.418 0.53 1.102 0.878 1.875 0.878 0.775 0 1.46-0.348 1.877-0.878 0.585-0.734 1.541-1.213 2.617-1.213 1.078 0 2.031 0.479 2.616 1.213 0.402 0.511 1.052 0.851 1.79 0.877 0.74-0.026 1.385-0.366 1.788-0.877 0.586-0.734 1.54-1.213 2.619-1.213 1.077 0 2.029 0.479 2.614 1.213 0.42 0.53 1.101 0.878 1.877 0.878 0.773 0 1.46-0.348 1.875-0.878 0.587-0.734 1.539-1.213 2.616-1.213 1.079 0 2.032 0.479 2.619 1.213 0.418 0.53 1.1 0.878 1.875 0.878 0.774 0 1.457-0.348 1.875-0.878 0.588-0.734 1.538-1.213 2.616-1.213 1.079 0 2.031 0.479 2.618 1.213 0.416 0.53 1.097 0.878 1.875 0.878 0.345 0 0.669-0.071 0.96-0.194 0.252 0.638 0.479 1.287 0.687 1.946-0.438 0.2-0.933 0.315-1.454 0.315-1.076 0-2.029-0.481-2.614-1.215-0.417-0.532-1.104-0.879-1.877-0.879s-1.46 0.347-1.876 0.879c-0.586 0.734-1.538 1.215-2.615 1.215-1.081 0-2.033-0.481-2.614-1.215-0.421-0.532-1.106-0.879-1.881-0.879-0.774 0-1.456 0.347-1.875 0.879-0.587 0.734-1.539 1.215-2.616 1.215-1.076 0-2.032-0.481-2.616-1.215-0.418-0.532-1.101-0.879-1.876-0.879-0.774 0-1.457 0.347-1.875 0.879-0.586 0.734-1.539 1.215-2.617 1.215-1.077 0-2.031-0.481-2.616-1.215-0.4-0.511-1.051-0.852-1.79-0.876-0.739 0.024-1.387 0.365-1.789 0.876-0.587 0.734-1.541 1.215-2.617 1.215-1.077 0-2.032-0.481-2.617-1.215-0.417-0.532-1.101-0.879-1.875-0.879-0.775 0-1.459 0.347-1.876 0.879-0.585 0.734-1.539 1.215-2.617 1.215-1.076 0-2.03-0.481-2.615-1.215-0.42-0.532-1.102-0.879-1.875-0.879-0.775 0-1.459 0.347-1.877 0.879-0.587 0.734-1.538 1.215-2.616 1.215-0.606 0-1.172-0.157-1.654-0.421 0.189-0.602 0.4-1.2 0.627-1.786 0.258 0.091 0.538 0.14 0.833 0.14" fill="#13469c"/>
<path d="m131.94 137.83c-0.417-0.527-1.103-0.878-1.876-0.878-0.774 0-1.46 0.351-1.877 0.878-0.585 0.736-1.538 1.217-2.614 1.217-1.081 0-2.034-0.481-2.614-1.217-0.421-0.527-1.107-0.878-1.882-0.878-0.773 0-1.455 0.351-1.875 0.878-0.586 0.736-1.539 1.217-2.616 1.217-1.076 0-2.031-0.481-2.615-1.217-0.418-0.527-1.102-0.878-1.877-0.878-0.773 0-1.457 0.351-1.875 0.878-0.585 0.736-1.539 1.217-2.617 1.217-1.077 0-2.031-0.481-2.616-1.217-0.4-0.509-1.051-0.848-1.79-0.873-0.738 0.025-1.387 0.364-1.788 0.873-0.587 0.736-1.541 1.217-2.617 1.217-1.077 0-2.033-0.481-2.618-1.217-0.416-0.527-1.1-0.878-1.875-0.878s-1.459 0.351-1.875 0.878c-0.586 0.736-1.539 1.217-2.617 1.217-1.076 0-2.031-0.481-2.616-1.217-0.419-0.527-1.102-0.878-1.875-0.878-0.775 0-1.458 0.351-1.876 0.878-0.474 0.596-1.19 1.018-2.015 1.161 1.208-2.206 2.686-4.242 4.393-6.062 0.785 0.157 1.463 0.568 1.918 1.141 0.418 0.531 1.102 0.878 1.877 0.878 0.773 0 1.458-0.347 1.876-0.878 0.584-0.735 1.539-1.216 2.616-1.216 1.076 0 2.032 0.481 2.616 1.216 0.418 0.531 1.101 0.878 1.875 0.878 0.775 0 1.46-0.347 1.876-0.878 0.586-0.735 1.541-1.216 2.617-1.216 1.079 0 2.031 0.481 2.617 1.216 0.401 0.51 1.052 0.851 1.79 0.874 0.74-0.023 1.385-0.364 1.788-0.874 0.585-0.735 1.539-1.216 2.619-1.216 1.076 0 2.029 0.481 2.614 1.216 0.42 0.531 1.1 0.878 1.877 0.878 0.773 0 1.46-0.347 1.875-0.878 0.587-0.735 1.539-1.216 2.615-1.216 1.08 0 2.033 0.481 2.619 1.216 0.418 0.531 1.1 0.878 1.875 0.878s1.458-0.347 1.875-0.878c0.48-0.604 1.21-1.029 2.052-1.166 1.697 1.812 3.175 3.838 4.38 6.03-0.71-0.181-1.324-0.574-1.744-1.104" fill="#13469c"/>
<path d="m127.25 131.43c-0.417 0.528-1.1 0.879-1.875 0.879s-1.457-0.351-1.875-0.879c-0.586-0.734-1.539-1.216-2.619-1.216-1.076 0-2.028 0.482-2.615 1.216-0.415 0.528-1.102 0.879-1.875 0.879-0.777 0-1.457-0.351-1.877-0.879-0.585-0.734-1.538-1.216-2.614-1.216-1.08 0-2.034 0.482-2.619 1.216-0.403 0.51-1.048 0.851-1.788 0.874-0.738-0.023-1.389-0.364-1.79-0.874-0.586-0.734-1.538-1.216-2.617-1.216-1.076 0-2.031 0.482-2.617 1.216-0.416 0.528-1.101 0.879-1.876 0.879-0.774 0-1.457-0.351-1.875-0.879-0.584-0.734-1.54-1.216-2.616-1.216-1.077 0-2.032 0.482-2.616 1.216-0.418 0.528-1.103 0.879-1.876 0.879-0.775 0-1.459-0.351-1.877-0.879-0.057-0.072-0.118-0.142-0.182-0.21 5.288-4.799 12.311-7.726 20.016-7.726 7.668 0 14.66 2.897 19.94 7.657-0.092 0.088-0.177 0.18-0.257 0.279" fill="#13469c"/>
</g>
</g>
</g>
</g>
</svg>
