<?xml version="1.0" encoding="UTF-8"?>
<svg width="300mm" height="200mm" version="1.1" viewBox="0 0 300 200" xmlns="http://www.w3.org/2000/svg" xmlns:cc="http://creativecommons.org/ns#" xmlns:dc="http://purl.org/dc/elements/1.1/" xmlns:rdf="http://www.w3.org/1999/02/22-rdf-syntax-ns#">
<defs>
<clipPath id="c">
<path d="M 0,841.89 H 595.276 V 0 H 0 Z"/>
</clipPath>
<clipPath id="b">
<path d="m169.7 596.93h366.72v-247.52h-366.72z"/>
</clipPath>
<clipPath id="a">
<path d="m451.13 818.17h103.5v-222.95h-103.5z"/>
</clipPath>
<clipPath id="f">
<path d="M 0,841.89 H 595.276 V 0 H 0 Z"/>
</clipPath>
<clipPath id="e">
<path d="m169.47 818.6h377.9v-444.74h-377.9z"/>
</clipPath>
<clipPath id="g">
<path d="M 0,841.89 H 595.276 V 0 H 0 Z"/>
</clipPath>
<clipPath id="d">
<path d="M 0,841.89 H 595.276 V 0 H 0 Z"/>
</clipPath>
</defs>
<metadata>
<rdf:RDF>
<cc:Work rdf:about="">
<dc:format>image/svg+xml</dc:format>
<dc:type rdf:resource="http://purl.org/dc/dcmitype/StillImage"/>
<dc:title/>
</cc:Work>
</rdf:RDF>
</metadata>
<g transform="translate(-188.32 -26.637)">
<path d="m188.32 26.637h300v200h-300z" fill="#fff" style="paint-order:fill markers stroke"/>
<g transform="translate(.42333 -.25334)">
<g transform="matrix(1.1353 0 0 1.1353 -46.539 -11.724)">
<g transform="translate(-.14302 -.48856)">
<g transform="matrix(.35278 0 0 .35278 69.444 -239.77)" fill-rule="evenodd">
<g transform="matrix(.42208 0 0 .42208 448.91 536.84)">
<g transform="matrix(1 0 0 -1 447.54 1488.2)">
<g clip-path="url(#d)">
<g transform="translate(594.55 436.82)">
<path d="m0 0c0 164.19-133.1 297.3-297.3 297.3-164.19 0-297.3-133.11-297.3-297.3h110.01c15.121 50.214 68.734 103.83 118.95 118.95 103.44 37.742 217.88-15.512 255.63-118.95z" fill="#c00" fill-rule="nonzero"/>
<path d="m0 0c0 164.19-133.1 297.3-297.3 297.3-164.19 0-297.3-133.11-297.3-297.3h110.01c15.121 50.214 68.734 103.83 118.95 118.95 103.44 37.742 217.88-15.512 255.63-118.95z" fill="none" stroke="#c00" stroke-linecap="round" stroke-linejoin="round" stroke-width=".709"/>
</g>
<g transform="translate(99.601 342.39)">
<path d="m0 0c-3.938 21.669-1.188 59.571 5.835 80.446h-105.16c0.214-21.637 7.437-60.198 15.068-80.446z" fill="#c00" fill-rule="nonzero"/>
<path d="m0 0c-3.938 21.669-1.188 59.571 5.835 80.446h-105.16c0.214-21.637 7.437-60.198 15.068-80.446z" fill="none" stroke="#c00" stroke-linecap="round" stroke-linejoin="round" stroke-width=".709"/>
</g>
<g transform="translate(47.474 275.58)">
<path d="m0 0h73.38c-7.517 13.039-16.631 38.656-19.04 53.514h-81.659c5.236-14.719 18.469-40.641 27.319-53.514" fill="#c00" fill-rule="nonzero"/>
<path d="m0 0h73.38c-7.517 13.039-16.631 38.656-19.04 53.514h-81.659c5.236-14.719 18.469-40.641 27.319-53.514z" fill="none" stroke="#c00" stroke-linecap="round" stroke-linejoin="round" stroke-width=".709"/>
</g>
<g transform="translate(161.94 222.07)">
<path d="m0 0c-10.452 8.986-26.5 28.303-33.419 40.224h-71.948c7.811-11.39 24.865-30.939 35.088-40.224z" fill="#c00" fill-rule="nonzero"/>
<path d="m0 0c-10.452 8.986-26.5 28.303-33.419 40.224h-71.948c7.811-11.39 24.865-30.939 35.088-40.224z" fill="none" stroke="#c00" stroke-linecap="round" stroke-linejoin="round" stroke-width=".709"/>
</g>
<g transform="translate(227.16 181.85)">
<path d="m0 0c-14.1 4.694-37.684 17.593-49.243 26.932h-71.408c8.994-7.886 27.458-21.021 37.858-26.932z" fill="#c00" fill-rule="nonzero"/>
<path d="m0 0c-14.1 4.694-37.684 17.593-49.243 26.932h-71.408c8.994-7.886 27.458-21.021 37.858-26.932z" fill="none" stroke="#c00" stroke-linecap="round" stroke-linejoin="round" stroke-width=".709"/>
</g>
<g transform="translate(425.39 168.55)">
<path d="m0 0h-256.27c70.456-38.707 185.82-38.707 256.27 0" fill="#c00" fill-rule="nonzero"/>
<path d="m0 0h-256.27c70.456-38.707 185.82-38.707 256.27 0z" fill="none" stroke="#c00" stroke-linecap="round" stroke-linejoin="round" stroke-width=".709"/>
</g>
<g transform="translate(487.99 208.78)">
<path d="m0 0h-71.407c-11.561-9.339-35.144-22.237-49.243-26.932h82.793c10.399 5.911 28.863 19.046 37.857 26.932" fill="#c00" fill-rule="nonzero"/>
<path d="m0 0h-71.407c-11.561-9.339-35.144-22.237-49.243-26.932h82.793c10.399 5.911 28.863 19.046 37.857 26.932z" fill="none" stroke="#c00" stroke-linecap="round" stroke-linejoin="round" stroke-width=".709"/>
</g>
<g transform="translate(537.93 262.29)">
<path d="m0 0h-71.947c-6.919-11.921-22.968-31.237-33.419-40.224h70.279c10.223 9.286 27.276 28.834 35.087 40.224" fill="#c00" fill-rule="nonzero"/>
<path d="m0 0h-71.947c-6.919-11.921-22.968-31.237-33.419-40.224h70.279c10.223 9.286 27.276 28.834 35.087 40.224z" fill="none" stroke="#c00" stroke-linecap="round" stroke-linejoin="round" stroke-width=".709"/>
</g>
<g transform="translate(492.69 329.1)">
<path d="m0 0c-2.408-14.857-11.522-40.475-19.039-53.514h73.38c8.849 12.873 22.083 38.795 27.319 53.514z" fill="#c00" fill-rule="nonzero"/>
<path d="m0 0c-2.408-14.857-11.522-40.475-19.039-53.514h73.38c8.849 12.873 22.083 38.795 27.319 53.514z" fill="none" stroke="#c00" stroke-linecap="round" stroke-linejoin="round" stroke-width=".709"/>
</g>
<g transform="translate(594.22 422.83)">
<path d="m0 0h-105.16c7.024-20.875 9.773-58.777 5.836-80.446h84.252c7.63 20.248 14.853 58.809 15.067 80.446" fill="#c00" fill-rule="nonzero"/>
<path d="m0 0h-105.16c7.024-20.875 9.773-58.777 5.836-80.446h84.252c7.63 20.248 14.853 58.809 15.067 80.446z" fill="none" stroke="#c00" stroke-linecap="round" stroke-linejoin="round" stroke-width=".709"/>
</g>
</g>
<g clip-path="url(#g)">
<g transform="translate(.4497 67.473)">
<path d="m0 0c0-24.339 133.1-44.07 297.3-44.07 164.19 0 297.3 19.731 297.3 44.07 0 24.34-133.1 44.07-297.3 44.07-164.2 0-297.3-19.73-297.3-44.07" fill="#004c99" fill-rule="nonzero" stroke="#004c99" stroke-linecap="round" stroke-linejoin="round" stroke-width=".709"/>
</g>
</g>
<g clip-path="url(#f)">
<g clip-path="url(#e)">
<g transform="translate(172.6 374.06)">
<path d="m0 0-0.31-0.12-0.32-0.069-0.33-0.011-0.33 0.04-0.32 0.11-0.29 0.15-0.35 0.29-0.28 0.34-0.22 0.39-0.15 0.43-0.19 1.05-0.04 1.08 0.12 1.06 1.19 5.38 6.87 18.36 8.13 17.91 12.05 21.77 12.02 16.95 12.66 15.29 13.66 14.3 34.74 32.75 63.74 59.49 2.94 3.15 2.46 3.55 1.91 3.87 0.44 1.42 0.18 1.47-0.07 1.48-0.12 0.54-0.2 0.91-0.57 1.37-0.79 1.25-1 1.1-1.17 0.9-10.22 5.34-11.02 3.4-11.45 1.34-5.93 0.08-5.19-0.15-1.16 0.02-1.14 0.23-0.75 0.29-0.7 0.42-0.18 0.17-0.16 0.19-0.11 0.22-0.08 0.24-0.07 0.6 0.04 0.6 0.16 0.58 0.37 0.83 0.44 0.78 1.38 1.77 1.69 1.48 6.63 4.13 7.11 3.24 12.12 3.7 12.49 2.13 14.839 1.25 12.581 0.11 11.919-1.18 2.431-0.21 2.44 0.11 3.41 0.7 1.56 0.64 1.4 0.93 1.62 1.47 1.71 1.99 1.429 2.19 12.981 22.32 48.059 68.72 55.831 59.96 16.75 13.38 8.54 5.74 4.17 2.42 3.57 1.8 2.23 0.97 1.48 0.56 2.81 0.81 1.65 0.27 0.19 0.01 0.19-0.02 0.19-0.04 0.13-0.05 0.12-0.07 0.1-0.09 0.049-0.08 0.041-0.08 0.02-0.09v-0.09l-0.02-0.18-0.05-0.17-0.29-0.72-0.71-1.16-0.84-1.07-6.49-7.82-9.6-14.44-7.65-15.56-15.92-45.12-6.25-20.06-12.43-33.33-20.16-46.48-4.651-10.26-5.439-10.92-5.03-9.35-0.4-0.95-0.26-1-0.05-0.48 0.02-0.48 0.06-0.26 0.09-0.25 0.13-0.23 0.28-0.34 0.34-0.27 0.38-0.21 0.42-0.13 4.02-0.6 25.93-1.58 22.71-0.34 4.07 0.17 6.3 0.67 3.35 0.65 2.87 0.88 3.1 1.1 1.1 0.33 1.12 0.18h0.27l0.26-0.06 0.24-0.1 0.22-0.14 0.19-0.19 0.15-0.22 0.22-0.51 0.14-0.53 0.05-0.55-0.21-3.6-0.85-4.63-2.06-7.54-1.91-5.21-2.46-4.97-4.06-6.27-4.801-5.71-12.549-12.67-3.991-3.46-4.339-3-2.96-1.5-3.17-0.98-3.281-0.46-4.529 0.04-4.49 0.64-4.95 1.33-4.77 1.86-8.95 4.59-6.49 4.32-6.33 5.76-4.05 4.64-3.6 4.16-3.49 3.34-0.7 0.49-0.79 0.34-0.84 0.18-0.86 0.01-0.84-0.16-0.8-0.31-0.72-0.47-0.61-0.6-9.17-10.95-11.25-11.64-12.82-9.9-14.11-7.95-55.85-27.73-31-17.63-52.24-36.77-45.96-44.37-6.14-7.99-10.29-14.269-0.94-1.101-1.1-0.95z" fill="#fff" fill-rule="nonzero"/>
</g>
</g>
</g>
</g>
<g transform="matrix(1 0 0 -1 863.08 933.04)">
<path d="m0 0 9.17 10.95" fill="none" stroke="#fff"/>
</g>
<g transform="matrix(1 0 0 -1 872.25 922.09)">
<path d="m0 0 0.61 0.6 0.72 0.47 0.8 0.31 0.84 0.16 0.86-0.01 0.84-0.18 0.79-0.34 0.7-0.49" fill="none" stroke="#fff"/>
</g>
<g transform="matrix(1 0 0 -1 878.41 921.57)">
<path d="m0 0 3.49-3.34" fill="none" stroke="#fff"/>
</g>
<g transform="matrix(1 0 0 -1 881.9 924.91)">
<path d="m0 0 3.6-4.16" fill="none" stroke="#fff"/>
</g>
<g transform="matrix(1 0 0 -1 885.5 929.07)">
<path d="m0 0 4.05-4.64" fill="none" stroke="#fff"/>
</g>
<g transform="matrix(1 0 0 -1 889.55 933.71)">
<path d="m0 0 6.33-5.76" fill="none" stroke="#fff"/>
</g>
<g transform="matrix(1 0 0 -1 895.88 939.47)">
<path d="m0 0 6.49-4.32" fill="none" stroke="#fff"/>
</g>
<g transform="matrix(1 0 0 -1 902.37 943.79)">
<path d="m0 0 8.95-4.59" fill="none" stroke="#fff"/>
</g>
<g transform="matrix(1 0 0 -1 911.32 948.38)">
<path d="m0 0 4.77-1.86 4.95-1.33" fill="none" stroke="#fff"/>
</g>
<g transform="matrix(1 0 0 -1 921.04 951.57)">
<path d="m0 0 4.49-0.64 4.53-0.04" fill="none" stroke="#fff"/>
</g>
<g transform="matrix(1 0 0 -1 930.06 952.25)">
<path d="m0 0 3.28 0.46 3.17 0.98 2.96 1.5" fill="none" stroke="#fff"/>
</g>
<g transform="matrix(1 0 0 -1 939.47 949.31)">
<path d="m0 0 4.34 3 3.99 3.46" fill="none" stroke="#fff"/>
</g>
<g transform="matrix(1 0 0 -1 947.8 942.85)">
<path d="m0 0 12.55 12.67" fill="none" stroke="#fff"/>
</g>
<g transform="matrix(1 0 0 -1 960.35 930.18)">
<path d="m0 0 4.801 5.71 4.059 6.27" fill="none" stroke="#fff"/>
</g>
<g transform="matrix(1 0 0 -1 969.21 918.2)">
<path d="m0 0 2.46 4.97 1.91 5.21" fill="none" stroke="#fff"/>
</g>
<g transform="matrix(1 0 0 -1 973.58 908.02)">
<path d="m0 0 2.06 7.54" fill="none" stroke="#fff"/>
</g>
<g transform="matrix(1 0 0 -1 975.64 900.48)">
<path d="m0 0 0.851 4.63" fill="none" stroke="#fff"/>
</g>
<g transform="matrix(1 0 0 -1 976.49 895.85)">
<path d="m0 0 0.21 3.6" fill="none" stroke="#fff"/>
</g>
<g transform="matrix(1 0 0 -1 976.7 892.25)">
<path d="m0 0-0.05 0.55-0.14 0.53-0.22 0.51" fill="none" stroke="#fff"/>
</g>
<g transform="matrix(1 0 0 -1 976.29 890.66)">
<path d="m0 0-0.15 0.22-0.19 0.19-0.22 0.14-0.24 0.1-0.26 0.06h-0.27" fill="none" stroke="#fff"/>
</g>
<g transform="matrix(1 0 0 -1 974.96 889.95)">
<path d="m0 0-1.12-0.18-1.1-0.33" fill="none" stroke="#fff"/>
</g>
<g transform="matrix(1 0 0 -1 972.74 890.46)">
<path d="m0 0-3.101-1.1" fill="none" stroke="#fff"/>
</g>
<g transform="matrix(1 0 0 -1 969.64 891.56)">
<path d="m0 0-2.869-0.88" fill="none" stroke="#fff"/>
</g>
<g transform="matrix(1 0 0 -1 966.77 892.44)">
<path d="m0 0-3.351-0.65" fill="none" stroke="#fff"/>
</g>
<g transform="matrix(1 0 0 -1 963.42 893.09)">
<path d="m0 0-6.3-0.67" fill="none" stroke="#fff"/>
</g>
<g transform="matrix(1 0 0 -1 957.12 893.76)">
<path d="m0 0-4.07-0.17" fill="none" stroke="#fff"/>
</g>
<g transform="matrix(1 0 0 -1 953.05 893.93)">
<path d="m0 0-22.71 0.34" fill="none" stroke="#fff"/>
</g>
<g transform="matrix(1 0 0 -1 930.34 893.59)">
<path d="m0 0-25.93 1.58" fill="none" stroke="#fff"/>
</g>
<g transform="matrix(1 0 0 -1 904.41 892.01)">
<path d="m0 0-4.021 0.6" fill="none" stroke="#fff"/>
</g>
<g transform="matrix(1 0 0 -1 900.39 891.41)">
<path d="m0 0-0.42 0.13-0.38 0.21-0.34 0.27-0.28 0.34" fill="none" stroke="#fff"/>
</g>
<g transform="matrix(1 0 0 -1 898.97 890.46)">
<path d="m0 0-0.13 0.23-0.09 0.25-0.059 0.26" fill="none" stroke="#fff"/>
</g>
<g transform="matrix(1 0 0 -1 898.72 888.76)" fill="none" stroke="#fff">
<path d="m0 0-0.05-0.48 0.021-0.48"/>
<path d="m0 0 0.261 1 0.399 0.95"/>
</g>
<g transform="matrix(1 0 0 -1 899.38 886.81)">
<path d="m0 0 5.03 9.35" fill="none" stroke="#fff"/>
</g>
<g transform="matrix(1 0 0 -1 904.41 877.46)">
<path d="m0 0 5.439 10.92" fill="none" stroke="#fff"/>
</g>
<g transform="matrix(1 0 0 -1 909.85 866.54)">
<path d="m0 0 4.65 10.26" fill="none" stroke="#fff"/>
</g>
<g transform="matrix(1 0 0 -1 914.5 856.28)">
<path d="m0 0 20.16 46.48" fill="none" stroke="#fff"/>
</g>
<g transform="matrix(1 0 0 -1 934.66 809.8)">
<path d="m0 0 12.43 33.33" fill="none" stroke="#fff"/>
</g>
<g transform="matrix(1 0 0 -1 947.09 776.47)">
<path d="m0 0 6.25 20.06" fill="none" stroke="#fff"/>
</g>
<g transform="matrix(1 0 0 -1 953.34 756.41)">
<path d="m0 0 15.92 45.12" fill="none" stroke="#fff"/>
</g>
<g transform="matrix(1 0 0 -1 969.26 711.29)">
<path d="m0 0 7.65 15.56 9.6 14.44" fill="none" stroke="#fff"/>
</g>
<g transform="matrix(1 0 0 -1 986.51 681.29)">
<path d="m0 0 6.49 7.82" fill="none" stroke="#fff"/>
</g>
<g transform="matrix(1 0 0 -1 993 673.47)">
<path d="m0 0 0.84 1.07 0.71 1.16" fill="none" stroke="#fff"/>
</g>
<g transform="matrix(1 0 0 -1 994.55 671.24)">
<path d="m0 0 0.29 0.72" fill="none" stroke="#fff"/>
</g>
<g transform="matrix(1 0 0 -1 994.84 670.52)">
<path d="m0 0 0.05 0.17 0.02 0.18" fill="none" stroke="#fff"/>
</g>
<g transform="matrix(1 0 0 -1 994.91 670.17)">
<path d="m0 0v0.09l-0.021 0.09-0.04 0.08-0.049 0.08" fill="none" stroke="#fff"/>
</g>
<g transform="matrix(1 0 0 -1 994.45 669.62)" fill="none" stroke="#fff">
<path d="m0 0 0.13-0.05 0.12-0.07 0.1-0.09"/>
<path d="m0 0-0.19 0.04-0.19 0.02-0.19-0.01"/>
</g>
<g transform="matrix(1 0 0 -1 993.88 669.57)">
<path d="m0 0-1.649-0.27" fill="none" stroke="#fff"/>
</g>
<g transform="matrix(1 0 0 -1 992.23 669.84)">
<path d="m0 0-2.811-0.81" fill="none" stroke="#fff"/>
</g>
<g transform="matrix(1 0 0 -1 989.42 670.65)">
<path d="m0 0-1.479-0.56" fill="none" stroke="#fff"/>
</g>
<g transform="matrix(1 0 0 -1 987.94 671.21)">
<path d="m0 0-2.23-0.97" fill="none" stroke="#fff"/>
</g>
<g transform="matrix(1 0 0 -1 985.71 672.18)">
<path d="m0 0-3.57-1.8" fill="none" stroke="#fff"/>
</g>
<g transform="matrix(1 0 0 -1 982.14 673.98)">
<path d="m0 0-4.17-2.42" fill="none" stroke="#fff"/>
</g>
<g transform="matrix(1 0 0 -1 977.97 676.4)">
<path d="m0 0-8.54-5.74" fill="none" stroke="#fff"/>
</g>
<g transform="matrix(1 0 0 -1 969.43 682.14)">
<path d="m0 0-16.75-13.38" fill="none" stroke="#fff"/>
</g>
<g transform="matrix(1 0 0 -1 952.68 695.52)">
<path d="m0 0-55.83-59.96" fill="none" stroke="#fff"/>
</g>
<g transform="matrix(1 0 0 -1 896.85 755.48)">
<path d="m0 0-48.06-68.72" fill="none" stroke="#fff"/>
</g>
<g transform="matrix(1 0 0 -1 848.79 824.2)">
<path d="m0 0-12.98-22.32" fill="none" stroke="#fff"/>
</g>
<g transform="matrix(1 0 0 -1 835.81 846.52)">
<path d="m0 0-1.43-2.19-1.71-1.99" fill="none" stroke="#fff"/>
</g>
<g transform="matrix(1 0 0 -1 832.67 850.7)">
<path d="m0 0-1.62-1.47" fill="none" stroke="#fff"/>
</g>
<g transform="matrix(1 0 0 -1 828.09 853.74)" fill="none" stroke="#fff">
<path d="m0 0 1.561 0.64 1.399 0.93"/>
<path d="m0 0-3.41-0.7"/>
</g>
<g transform="matrix(1 0 0 -1 824.68 854.44)">
<path d="m0 0-2.439-0.11-2.431 0.21" fill="none" stroke="#fff"/>
</g>
<g transform="matrix(1 0 0 -1 819.81 854.34)">
<path d="m0 0-11.92 1.18" fill="none" stroke="#fff"/>
</g>
<g transform="matrix(1 0 0 -1 807.89 853.16)">
<path d="m0 0-12.58-0.11" fill="none" stroke="#fff"/>
</g>
<g transform="matrix(1 0 0 -1 795.31 853.27)">
<path d="m0 0-14.84-1.25" fill="none" stroke="#fff"/>
</g>
<g transform="matrix(1 0 0 -1 780.47 854.52)">
<path d="m0 0-12.489-2.13-12.12-3.7" fill="none" stroke="#fff"/>
</g>
<g transform="matrix(1 0 0 -1 755.86 860.35)">
<path d="m0 0-7.11-3.24-6.63-4.13" fill="none" stroke="#fff"/>
</g>
<g transform="matrix(1 0 0 -1 739.05 870.97)" fill="none" stroke="#fff">
<path d="m0 0 1.38 1.77 1.69 1.48"/>
<path d="m0 0-0.44-0.78-0.37-0.83"/>
</g>
<g transform="matrix(1 0 0 -1 738.24 872.58)">
<path d="m0 0-0.16-0.58-0.04-0.6 0.07-0.6" fill="none" stroke="#fff"/>
</g>
<g transform="matrix(1 0 0 -1 738.11 874.36)">
<path d="m0 0 0.08-0.24 0.11-0.22 0.16-0.19 0.18-0.17" fill="none" stroke="#fff"/>
</g>
<g transform="matrix(1 0 0 -1 738.64 875.18)">
<path d="m0 0 0.7-0.42 0.75-0.29" fill="none" stroke="#fff"/>
</g>
<g transform="matrix(1 0 0 -1 740.09 875.89)">
<path d="m0 0 1.14-0.23 1.16-0.02" fill="none" stroke="#fff"/>
</g>
<g transform="matrix(1 0 0 -1 742.39 876.14)">
<path d="m0 0 5.19 0.15" fill="none" stroke="#fff"/>
</g>
<g transform="matrix(1 0 0 -1 747.58 875.99)">
<path d="m0 0 5.93-0.08" fill="none" stroke="#fff"/>
</g>
<g transform="matrix(1 0 0 -1 753.51 876.07)">
<path d="m0 0 11.45-1.34 11.021-3.4 10.219-5.34" fill="none" stroke="#fff"/>
</g>
<g transform="matrix(1 0 0 -1 786.2 886.15)">
<path d="m0 0 1.17-0.9 1-1.1 0.79-1.25 0.57-1.37 0.199-0.91 0.121-0.54 0.07-1.48-0.18-1.47-0.44-1.42" fill="none" stroke="#fff"/>
</g>
<g transform="matrix(1 0 0 -1 789.5 896.59)">
<path d="m0 0-1.91-3.87-2.46-3.55-2.94-3.15" fill="none" stroke="#fff"/>
</g>
<g transform="matrix(1 0 0 -1 718.45 966.65)" fill="none" stroke="#fff">
<path d="m0 0 63.74 59.49"/>
<path d="m0 0-34.74-32.75"/>
</g>
<g transform="matrix(1 0 0 -1 683.71 999.4)">
<path d="m0 0-13.66-14.3" fill="none" stroke="#fff"/>
</g>
<g transform="matrix(1 0 0 -1 670.05 1013.7)">
<path d="m0 0-12.66-15.29" fill="none" stroke="#fff"/>
</g>
<g transform="matrix(1 0 0 -1 657.39 1029)">
<path d="m0 0-12.02-16.95" fill="none" stroke="#fff"/>
</g>
<g transform="matrix(1 0 0 -1 645.37 1045.9)">
<path d="m0 0-12.05-21.77" fill="none" stroke="#fff"/>
</g>
<g transform="matrix(1 0 0 -1 633.32 1067.7)">
<path d="m0 0-8.13-17.91" fill="none" stroke="#fff"/>
</g>
<g transform="matrix(1 0 0 -1 625.19 1085.6)">
<path d="m0 0-6.87-18.36" fill="none" stroke="#fff"/>
</g>
<g transform="matrix(1 0 0 -1 618.32 1104)">
<path d="m0 0-1.19-5.38" fill="none" stroke="#fff"/>
</g>
<g transform="matrix(1 0 0 -1 617.13 1109.4)">
<path d="m0 0-0.12-1.061 0.04-1.08 0.19-1.049" fill="none" stroke="#fff"/>
</g>
<g transform="matrix(1 0 0 -1 617.24 1112.6)">
<path d="m0 0 0.15-0.43 0.22-0.389 0.28-0.341 0.35-0.29" fill="none" stroke="#fff"/>
</g>
<g transform="matrix(1 0 0 -1 618.24 1114)">
<path d="m0 0 0.29-0.149 0.32-0.111 0.33-0.04 0.33 0.011 0.32 0.069 0.31 0.12" fill="none" stroke="#fff"/>
</g>
<g transform="matrix(1 0 0 -1 620.14 1114.1)">
<path d="m0 0 1.24 0.76 1.1 0.95 0.94 1.101" fill="none" stroke="#fff"/>
</g>
<g transform="matrix(1 0 0 -1 623.42 1111.3)">
<path d="m0 0 10.29 14.27" fill="none" stroke="#fff"/>
</g>
<g transform="matrix(1 0 0 -1 633.71 1097)">
<path d="m0 0 6.14 7.99 45.96 44.37 52.24 36.77 31 17.63 55.85 27.73 14.11 7.95 12.82 9.9 11.25 11.64" fill="none" stroke="#fff"/>
</g>
<g transform="matrix(1 0 0 -1 447.54 1488.2)">
<g clip-path="url(#c)">
<g clip-path="url(#b)">
<g transform="translate(429.38 567.42)">
<path d="m0 0 0.79-0.34 0.7-0.49 3.49-3.34 3.6-4.16 4.05-4.64 6.33-5.76 6.49-4.32 8.95-4.59 4.77-1.86 4.95-1.33 4.49-0.64 4.53-0.04 3.28 0.46 3.17 0.98 2.96 1.5 4.34 3 3.99 3.46 12.55 12.67 4.8 5.71 4.06 6.27 2.46 4.97 1.91 5.21 2.06 7.54 0.85 4.63 0.21 3.6-0.05 0.52-0.12 0.5 7.42-25.25 0.01-0.22-0.21-3.59-0.85-4.64-2.06-7.54-1.91-5.2-2.46-4.98-4.06-6.26-4.8-5.72-12.55-12.67-3.98-3.46-4.349-3-2.96-1.49-3.171-0.99-3.28-0.46-4.53 0.05-4.49 0.64-4.95 1.32-4.77 1.86-8.95 4.59-6.49 4.32-6.33 5.76-4.05 4.65-3.6 4.15-3.49 3.35-0.7 0.48-0.79 0.34-0.84 0.18-0.859 0.01-0.841-0.15-0.8-0.32-0.72-0.46-0.61-0.6-9.16-10.95-11.26-11.64-12.819-9.9-14.111-7.96-55.85-27.73-31-17.62-52.24-36.77-45.96-44.37-6.13-7.99-10.3-14.28-0.94-1.1-1.1-0.94-1.24-0.77-0.31-0.12-0.32-0.07-0.33-0.01-0.33 0.051-0.32 0.099-0.29 0.151-0.31 0.259-0.26 0.29-0.21 0.34-0.16 0.361-7.32 24.649 0.15-0.43 0.22-0.389 0.28-0.341 0.35-0.29 0.29-0.15 0.32-0.11 0.33-0.04 0.33 0.011 0.32 0.069 0.31 0.12 1.24 0.76 1.1 0.95 0.94 1.101 10.29 14.269 6.14 7.99 45.96 44.37 52.24 36.77 31 17.63 55.85 27.73 14.11 7.95 12.82 9.9 11.25 11.64 9.17 10.95 0.61 0.6 0.72 0.47 0.8 0.31 0.84 0.16 0.86-0.01z" fill-rule="nonzero"/>
</g>
</g>
<g clip-path="url(#a)">
<g transform="translate(547.35 818.17)">
<path d="m0 0 7.28-24.65-0.019-0.16-0.04-0.17-0.301-0.72-0.71-1.16-0.84-1.06-6.489-7.83-9.601-14.43-7.649-15.56-15.921-45.13-6.25-20.05-12.43-33.33-20.16-46.49-4.649-10.26-0.92-1.95-11.78 0.93-4.021 0.6-0.42 0.13-0.38 0.21-0.34 0.27-0.28 0.34-0.13 0.23-0.09 0.25-0.059 0.26-0.021 0.48 0.05 0.48 0.66 1.95 5.031 9.35 5.439 10.92 4.65 10.26 20.161 46.48 12.429 33.33 6.25 20.06 15.92 45.12 7.651 15.56 9.599 14.44 6.49 7.82 0.84 1.07 0.71 1.16 0.29 0.72 0.05 0.17 0.021 0.18v0.09z" fill-rule="nonzero"/>
</g>
<g transform="translate(547.01 816.92)">
<path d="m0 0-0.71-1.16-0.84-1.07z" fill-rule="nonzero"/>
</g>
<g transform="translate(451.84 601.35)">
<path d="m0 0-0.66-1.95 0.261 1z" fill-rule="nonzero"/>
</g>
</g>
</g>
</g>
</g>
</g>
</g>
</g>
<path transform="matrix(.26458 0 0 .26458 187.9 26.89)" d="m674.54 601.88c-3.653 0.0533-6.571 3.058-6.5176 6.7109v72.35c-0.0486 3.687 2.9269 6.702 6.6143 6.702s6.6629-3.015 6.6143-6.702v-72.35c0.0546-3.7287-2.9822-6.7655-6.7109-6.7109zm-395.94-6.413c-14.572 1e-5 -26.385 8.6475-26.385 19.314-5.5e-4 10.667 11.812 19.314 26.385 19.314 14.572-1e-5 26.385-8.6475 26.385-19.314 5.5e-4 -10.667-11.812-19.314-26.385-19.314zm113.98 0.94141c-3.6507 0.0565-6.5652 3.0602-6.5117 6.7109v55.562c-0.0486 3.687 2.9269 6.702 6.6143 6.702s6.6629-3.015 6.6143-6.702v-27.709h10.355c3.1707 0.0569 5.7716-2.4978 5.7716-5.669 0-3.1712-2.6009-5.7258-5.7716-5.6689h-10.355v-16.516c0.0547-3.7311-2.9858-6.7689-6.7168-6.7109zm92.324 0c-3.653 0.0533-6.571 3.058-6.5176 6.7109v45.568c-0.0486 3.687 2.9269 6.702 6.6143 6.702s6.6629-3.015 6.6143-6.702v-17.715h10.361c3.1707 0.0569 5.7716-2.4978 5.7716-5.669 0-3.1712-2.6009-5.7258-5.7716-5.6689h-10.361v-16.516c0.0546-3.7287-2.9822-6.7655-6.7109-6.7109zm97.354 0c-3.6507 0.0565-6.5652 3.0602-6.5117 6.7109v4.2324h-21.365c-0.0306 1e-3 -0.0612 2e-3 -0.0918 4e-3 -4.3455-4.2978-10.262-6.7184-16.436-6.7246-12.797 3.2e-4 -23.17 10.167-23.17 22.707-3.2e-4 12.54 10.373 22.707 23.17 22.707 7.1054-2e-3 13.817-3.1981 18.209-8.6719h19.684v7.2676c-0.0488 3.6872 2.9267 6.7024 6.6143 6.7024 3.6875 0 6.6631-3.0152 6.6142-6.7024v-41.521c0.0547-3.7311-2.9858-6.7688-6.7168-6.7109zm-228.48 1.3164c-3.653 0.0533-6.571 3.058-6.5176 6.7109v6.1934c0 17.698-11.678 25.094-19.215 28.973-3.3414 1.6217-4.6931 5.6758-2.9933 8.9782 1.6997 3.3024 5.7845 4.5584 9.0461 2.7816 5.6932-2.9301 14.335-8.642 20.164-18.119 0.54428 0.82311 1.1064 1.6282 1.6875 2.4043 4.9308 6.5857 10.997 11.574 17.117 14.342 3.3365 1.5451 7.2927 0.0727 8.8072-3.2777 1.5146-3.3505 6e-3 -7.2931-3.358-8.777-3.4467-1.5587-8.3395-5.3617-11.975-10.217-3.6351-4.8551-6.0527-10.627-6.0527-16.27-1e-3 -0.10489-5e-3 -0.20974-0.0117-0.31445 2e-3 -0.16949 0.0117-0.33321 0.0117-0.50391v-6.1934c0.0546-3.7287-2.9822-6.7655-6.7109-6.7109zm278.64 6.4286c-3.653 0.0533-6.571 3.058-6.5176 6.7109v6.1934c0 21.747-11.405 33.249-18.75 36.334-3.4903 1.3341-5.1836 5.2922-3.7381 8.7378 1.4455 3.4456 5.4559 5.011 8.8534 3.4556 7.8476-3.2962 15.818-10.469 21.016-21.236 4.4349 7.8258 10.557 14.596 17.533 19.154 3.0607 2.102 7.2515 1.2737 9.2824-1.8346s1.1062-7.2789-2.048-9.2377c-9.4721-6.1887-18.92-22.598-18.92-34.555-2e-3 -0.0847-5e-3 -0.16934-0.01-0.2539 1e-3 -0.18941 0.01-0.37403 0.01-0.56446v-6.1934c0.0546-3.7287-2.9822-6.7655-6.7109-6.7109zm110.96-5.5008c-5.3913 0-7.4629 3.8874-7.4629 8.9551v16.197c0 5.0677 2.0716 8.9551 7.4629 8.9551h14.314c-0.0204 0.21554-0.0302 0.43194-0.0293 0.64844v6.0098h-31.617c-3.1707-0.0569-5.7716 2.4978-5.7716 5.6689 0 3.1712 2.6009 5.7259 5.7716 5.669h76.461c3.1707 0.0569 5.7716-2.4978 5.7716-5.669 0-3.1712-2.6009-5.7258-5.7716-5.6689h-31.615v-6.0098c2e-3 -0.21643-6e-3 -0.43284-0.0254-0.64844h17.727c3.1314 0 5.6699-2.5385 5.6699-5.6699s-2.5385-5.6699-5.6699-5.6699h-39.449v-11.428h39.449c3.1314 0 5.6699-2.5385 5.6699-5.6699 0-3.1314-2.5385-5.6699-5.6699-5.6699zm-312.28 1.375c-8.9445-0.12661-8.9445 13.355 0 13.229h24.121c1.6318 0 2.9974 0.64002 2.9434 2.2031-0.10545 4.2414-0.36679 8.2245-0.84766 11.398-1.3715 7.19 10.883 9.2959 12.502 2.5059 1.3278-6.4845 1.9921-10.763 2.3633-21.521 0.12094-3.5053-0.37949-7.8144-5.7852-7.8144zm399.57 0c-7.6667-0.10847-7.6667 11.448 0 11.34h37.152c1.6641 0 3.5087 0.68464 3.5469 3.041 0.15565 9.91-0.91557 18.632-2.5703 25.01h-51.357c-3.1707-0.0569-5.7716 2.4978-5.7716 5.6689 0 3.1712 2.6009 5.7259 5.7716 5.669h31.143v30.76c-0.0488 3.6872 2.9267 6.7024 6.6143 6.7024 3.6875 0 6.6631-3.0152 6.6142-6.7024v-30.76h32.09c3.1707 0.0569 5.7716-2.4978 5.7716-5.669 0-3.1712-2.6009-5.7258-5.7716-5.6689h-13.422c2.1265-9.0814 3.6808-21.458 2.7539-34.035-0.44379-3.7279-2.763-5.3555-5.9414-5.3555zm-552.05 5.668c7.3805 3e-4 13.363 4.0681 13.363 9.0859 0 5.0178-5.9828 9.0856-13.363 9.0859-7.3812 4.3e-4 -13.365-4.0676-13.365-9.0859-1e-5 -5.0183 5.984-9.0864 13.365-9.0859zm259.25 6.9609c6.4808 8.3e-4 11.734 4.7829 11.734 10.682-2.2e-4 5.8988-5.2536 10.681-11.734 10.682-6.4816 1.6e-4 -11.736-4.7822-11.736-10.682 2.2e-4 -5.8995 5.2547-10.682 11.736-10.682zm22.674 6.0332h15.219v7.3457h-14.914c0.11842-0.89456 0.18234-1.7952 0.19141-2.6973-2e-3 -1.5621-0.16801-3.1198-0.49609-4.6484zm-116.98 1.5566c-3.6468 0.0576-6.5589 3.0562-6.5098 6.7031v12.344h-14.609c-3.1707-0.0569-5.7716 2.4978-5.7716 5.6689 0 3.1712 2.6009 5.7259 5.7716 5.669h28.723c9.0054 0 16.121-0.59319 23.061-4.7031 4.9768-2.8611 3.0381-10.458-2.7012-10.584-1.0839-0.0246-2.1522 0.26214-3.0781 0.82617-4.5736 2.7086-8.7102 3.123-17.281 3.123h-0.88477v-12.344c0.0502-3.7288-2.9901-6.762-6.7188-6.7031zm-203.67 16.145c-3.1314 0-5.6699 2.5385-5.6699 5.6699 0 3.1314 2.5385 5.6699 5.6699 5.6699h30.975v4.627h-18.195c-6.3889-0.0903-6.3889 9.5396 0 9.4492h39.287c3.0682 0 2.7755 5.2356 0.34961 5.2852h-35.42c-7.5424 0-9.1484 3.2382-9.1484 12.621 0 9.5128 3.3394 11.562 10.105 11.562h47.189c6.3889 0.0903 6.3889-9.5396 0-9.4492h-41.055c-1.8687 0-1.6828-5.2852 0.0488-5.2852h33.842c7.5424 0 9.1484-3.2382 9.1484-12.621 0-8.352-1.999-11.562-9.9258-11.562h-11.861v-4.627h31.123c3.1314 0 5.6699-2.5385 5.6699-5.6699 0-3.1314-2.5385-5.6699-5.6699-5.6699zm113.7 16.514c-3.653 0.0533-6.571 3.058-6.5176 6.7109v12.623c0 3.912-0.0149 7.7132 2.916 11.367 2.9318 3.6539 7.3883 4.4497 11.396 4.584l0.11133 8e-3h35.049c3.6872 0.0488 6.7024-2.9267 6.7024-6.6142 0-3.6875-3.0152-6.6631-6.7024-6.6143h-34.717c-0.61342-0.0206-1.0225-0.0551-1.3379-0.0859-0.0834-0.5409-0.18945-1.3447-0.18945-2.6445v-12.623c0.0546-3.7287-2.9822-6.7655-6.7109-6.7109zm185.87 0.65625c-3.1314 0-5.6699 2.5385-5.6699 5.6699 0 3.1314 2.5385 5.6699 5.6699 5.6699h37.898v20.314c-0.0488 3.6872 2.9258 6.7031 6.6133 6.7031 3.6875 0 6.664-3.0159 6.6152-6.7031v-25.039c0-4.3199-2.639-6.6058-6.543-6.6152zm-73.201 0.46289c-14.572 1e-5 -26.385 8.6475-26.385 19.314-5.5e-4 10.667 11.812 19.314 26.385 19.314 14.572-1e-5 26.385-8.6475 26.385-19.314 5.5e-4 -10.667-11.812-19.314-26.385-19.314zm298.18 0c-14.572 1e-5 -26.385 8.6475-26.385 19.314-5.5e-4 10.667 11.812 19.314 26.385 19.314 14.572-1e-5 26.385-8.6475 26.385-19.314 5.5e-4 -10.667-11.812-19.314-26.385-19.314zm-298.18 10.229c7.3805 3e-4 13.363 4.0681 13.363 9.0859 0 5.0178-5.9828 9.0856-13.363 9.0859-7.3812 4.4e-4 -13.365-4.0676-13.365-9.0859-1e-5 -5.0183 5.984-9.0864 13.365-9.0859zm298.18 0c7.3805 3e-4 13.363 4.0681 13.363 9.0859 0 5.0178-5.9828 9.0856-13.363 9.0859-7.3812 4.4e-4 -13.365-4.0676-13.365-9.0859-1e-5 -5.0183 5.984-9.0864 13.365-9.0859z" color="#000000" color-rendering="auto" dominant-baseline="auto" image-rendering="auto" shape-rendering="auto" solid-color="#000000" style="font-feature-settings:normal;font-variant-alternates:normal;font-variant-caps:normal;font-variant-ligatures:normal;font-variant-numeric:normal;font-variant-position:normal;isolation:auto;mix-blend-mode:normal;shape-padding:0;text-decoration-color:#000000;text-decoration-line:none;text-decoration-style:solid;text-indent:0;text-orientation:mixed;text-transform:none;white-space:normal"/>
</g>
</g>
</svg>
