<?xml version="1.0" encoding="UTF-8"?>
<svg width="300mm" height="200mm" version="1.1" viewBox="0 0 300 200" xmlns="http://www.w3.org/2000/svg" xmlns:cc="http://creativecommons.org/ns#" xmlns:dc="http://purl.org/dc/elements/1.1/" xmlns:rdf="http://www.w3.org/1999/02/22-rdf-syntax-ns#" xmlns:xlink="http://www.w3.org/1999/xlink">
<defs>
<rect id="d" x="-.36" y="-.06" width="624" height="842"/>
<clipPath id="a">
<use width="100%" height="100%" xlink:href="#d"/>
</clipPath>
<clipPath>
<path d="M 0,841.89 H 595.28 V 0 H 0 Z"/>
</clipPath>
<path id="c" d="m371.38 522.08c-0.11-2.21-3.74-0.58-7.06-0.58-3.31 0-3.31 0.83-6.62 0.83-3.3 0-3.3-0.79-6.61-0.79-3.33 0-3.33 0.48-6.68 0.48-3.29 0-3.29-0.23-6.58-0.23-3.28 0-3.28 0.38-6.56 0.38-3.29 0-3.29 0.15-6.61 0.15-3.28 0-3.28-0.17-6.56-0.17-3.32 0-3.32 0.43-6.64 0.43-2.67 0-3.88-1.73-5.51-0.95-0.12 0.33-0.34 0.67-0.72 1.05-0.39 0.41-0.75 0.67-1.1 0.81-0.88 1.71 0.49 2.9 0.49 5.66 0 3.3 0.92 3.3 0.92 6.6 0 3.31-1.15 3.48-1.15 6.79 0 3.34-2.31 4.3-2.31 7.64 0 3.37 3.13 1.35 3.13 5.45 0 3.28-1.74 3.53-1.74 6.81 0 3.31 1.54 3.06 1.54 6.37 0 3.27-0.38 3.27-0.38 6.55 0 3.33 0.2 3.33 0.2 6.64 0 3.19-1.67 3.99-0.14 6.79 0.4 0.73 3.7-0.3 7.01-0.3s3.31-0.53 6.62-0.53c3.18 0 3.31 0.04 6.25 0.04h0.36c3.21 0 3.34 0.46 6.31 0.5 0.11 0 0.24 0.01 0.36 0.01 0.97 0 1.66-0.03 2.22-0.08 1.36-0.11 2.04-0.3 4.37-0.3 1.82 0 2.63 0.09 3.56 0.15 0.73 0.07 1.55 0.11 2.99 0.11 0.51 0 0.92 0.02 1.29 0.03 2.09 0.09 2.53 0.41 5.33 0.41 0.57 0 1.02 0 1.44 0.02 1.93 0.04 2.41 0.17 5.12 0.17 2.4 0 3.07-0.13 4.51-0.2 0.56-0.03 1.22-0.05 2.15-0.05 0.57 0 1.18 0 1.76-0.01 1.85-0.02 3.55-0.05 4.38-0.08 0.33-0.01 0.53-0.01 0.53-0.01 0.27-0.77-0.2-3.59-0.2-6.9 0-0.36 0-0.67 0.01-0.96 0.03-2.38 0.18-2.7 0.18-5.65 0-3.31-0.17-3.31-0.17-6.62 0-3.34-0.35-3.34-0.35-6.67 0-3.29 0.33-3.29 0.33-6.59 0-3.28-0.65-3.28-0.65-6.55 0-3.3 0.51-3.3 0.51-6.61 0-3.28-0.03-3.28-0.03-6.56 0-3.33-0.26-3.31 0.52-6.54 0.84-3.57 0.03-5.86-0.02-6.94z"/>
<clipPath id="b">
<use width="100%" height="100%" xlink:href="#c"/>
</clipPath>
</defs>
<metadata>
<rdf:RDF>
<cc:Work rdf:about="">
<dc:format>image/svg+xml</dc:format>
<dc:type rdf:resource="http://purl.org/dc/dcmitype/StillImage"/>
<dc:title/>
</cc:Work>
</rdf:RDF>
</metadata>
<g transform="translate(-188.32 -26.637)">
<path d="m188.32 26.637h300v200h-300z" fill="#fff" style="paint-order:fill markers stroke"/>
<g transform="matrix(.35278 0 0 .35278 288.01 -263.8)" fill-rule="evenodd"></g>
<g transform="matrix(.26458 0 0 .26458 178 44.098)"></g>
<polygon class="st2" transform="matrix(.26458 0 0 .26458 352.93 280.3)" points="" clip-path="url(#a)" fill="#92bf1e"/>
<rect class="st2" x="400.54" y="341.71" width="0" height="0" clip-path="url(#a)" fill="#92bf1e" stroke-width=".26458"/>
<rect class="st2" x="400.54" y="341.71" width="0" height="0" clip-path="url(#a)" fill="#92bf1e" stroke-width=".26458"/>
<g transform="matrix(1.0141 0 0 1.0141 201.34 54.775)"></g>
<g transform="matrix(.26458 0 0 .26458 251.08 28.82)"></g>
<g transform="matrix(.29837 0 0 .29837 -49.924 38.706)">
<g transform="translate(17.097 7.5474)">
<g transform="matrix(3.6028 0 0 3.6028 565.19 -1137.9)">
<path class="st0" d="m228.67 410.52c-4.64-0.2-9.76-0.17-15.55 0.25 0 0-52.91 4.24-14.31 22.41 0 0 17.91 8.26 51.54 5.63l-37.6 14.27s-57.79-19.63-39.23-35.01c0 0 14.24-11.88 55.11-10.34z" clip-path="url(#a)" fill="#00a0e9"/>
<path class="st1" d="m228.88 410.5c15.73 0.68 24.44 4.01 24.44 4.01 24.04 9.8-26.49 17.62-26.49 17.62 35.04-1.56 45.01-8.78 45.01-8.78 12.44-9.35-32.06-14.96-32.06-14.96-3.83-0.34-7.47-0.58-10.93-0.7z" clip-path="url(#a)" fill="#004199"/>
<path class="st2" d="m138.84 428.65c-1.56 1.32-2.43 1.8-1.01 3.58 0.51 0.62 1.27 0.37 1.53 0.85 0.44 0.54 0.43 0.57 0.96 0.59 2.15 0.12 2.13 1.18 4.34 0.46 0.8-0.1 1.6-0.62 0.63-0.01 0.89 0.73 1.39 0.03 1.91-0.41 0.84-0.66 1.24-0.72 2.3-0.24 0.99 0.29 0.95-1.66 1.4-2.16 0.48-0.67 0.96-4.39 1.53-4.12 1.55-0.18 1.82 2.12 2.22 0.49 0.13-0.61 0.07-0.44 0.45-1.94 0.43-1.61 0.32 0.58 0.41-1.12 0.07-1.27 0.25-2.38 0.55-3.07 0.33-0.97 0.26-0.67 1-3.11 0.32-1.04 0.08-1.01 0.5-2.4 0.26-0.89 0.6-2.31 0.87-3.28 0.25-0.95 1.08-1.78 1.32-2.73 0.25-0.96 0.7-1.84 0.91-2.74 0.22-1.02 0.73-1.9 0.89-2.75 0.35-1.58-0.13-1.29 0.35-3.26 0.21-0.91-0.09-1.75 0.18-2.96 0.22-1 0.77-2.39 1-3.53 0.21-1 0.68-2 0.89-3.1 0.2-1.05 0.11-2.14 0.32-3.22 0.18-1.07 0.26-2.2 0.43-3.27 0.17-1.06 0.35-2.05 0.49-3.09 0.15-1.07 0.01-2.19 0.13-3.24s0.94-2.15 1-3.16c0.14-1.87 0.45-2.13 0.92-3.4 0.4-1.06 0.1-1.34 0.99 1.32 0.61 1.59 2.01 4.34 1.99 3.59 0-0.3-0.93-3.03 0.56-0.61 0.7 1.14 1.13 3.41 1.54 4.25 0.03 0.05-0.19-1.33-0.19-1.38-0.15-0.95 0.19-0.71-0.28-2.05-0.27-0.73-0.34-1.41 1.18 1.44 0.4 0.74 0.89 2.33 1.47 3.51-0.22-1.94-2.18-7.37-0.29-3.88 0.46 0.86-0.37-0.8 0.93 2.66 0.62 1.65 0.17-2.38-0.03-3.89-0.23-1.52 0.74 4.84 0.21 0.8-0.22-1.83-0.08-1.88-0.44-3.71-0.27-1.46-0.08-3.07-0.33-3.65-0.55-1.29-0.52-0.85-0.99-2.38-0.22-0.75-0.45-1.87-0.8-2.76-0.3-0.8-0.63-1.5-1.04-2.29-0.54-1.29-0.64-1.58-1.68-2.54-1.19-1.11-1.53-1.14-2.57-1.01-1.22 0.17-0.85 0.14-2.18-0.06-1.78-0.12-2.86 0.83-4.23 1.93-0.94 0.78-0.18 1.56-0.88 3.56-0.33 0.93-1.23-0.01-1.5 2.99-0.1 1.03-0.75 2.17-1.01 3.29-0.35 1.53 0.2 1.14-0.23 3.09-0.19 0.87-0.92 1.79-1.19 2.96-0.21 0.96-0.09 2.24-0.34 3.37-0.24 0.99-0.59 1.86-0.84 2.94-0.24 0.98-0.55 1.99-0.8 3.05-0.25 0.97 0.01 1.92-0.25 2.94-0.25 1-1.35 2-1.6 3.01-0.26 1-0.4 2.04-0.67 3.04-0.27 1.05-0.08 1.82-0.37 2.84-0.28 1.02-0.18 2.48-0.46 3.47-0.3 1.02-0.44 2.09-0.74 3.06-0.3 1.05-0.45 2.1-0.77 3.09-0.33 1.01-0.59 2.37-0.91 3.3-0.37 1.06-0.79 1.73-1.14 2.63-0.41 1.04-2.03 1.48-2.41 2.33-0.46 1.02-0.87 1.86-1.31 2.54-0.85 1.58-0.75 1.42-1.7 3.15-0.56 1.02-1.02 2.21-1.65 3.19-0.85 1.42-1.01 3.09-1.47 3.21z" clip-path="url(#a)" fill="#fac040"/>
<path class="st3" d="m171.16 383.88c0.6-1.01-0.79 0.64-1.59 1.82-0.39 0.71-0.17 0.45-0.75 1.32-0.67 1.02-0.64 0.68-0.79 2.02-0.13 1.3-0.67 1.7-0.86 2.38-0.47 1.61-0.75 1.76 0.03 3.13 0.89 1.49 0.96 0.98 1.96 2.02 1.23 1.3 1.13 1.34 2.34 2.36 0.79 0.63 1.89 1.34 2.29 1.99 0.85 1.07 0.95 0.75 2.2 1.63 0.72 0.48 1.72 0.78 2.64 1.07 0.86 0.24 1.77 0.19 2.67-0.07 1.77-0.32 1.63 0.1 3.47-1.07 0.86-0.54 1.81-1.39 2.71-2.45 0.69-0.83 1.1-1.98 1.69-3.19 0.6-1.53 0.61-1.1 1.01-3.11 0.18-0.9 0.37-1.96 0.55-3.16 0.14-1-0.2-2.14-0.07-3.31 0.11-0.98 0.3-2.02 0.37-3.14 0.07-0.96 0.18-3.07 0.18-4.12-0.61 1.56-0.15 2.57-0.43 4.39-0.16 1.09-0.19 2.31-0.37 3.36-0.34 1.89-0.95 3.46-1.14 3.09-0.11-0.25-0.21-1.34-0.17-3.36 0.07-2.04 0.27-4.19-0.32 0.71-0.23 1.6 0.39-1.44 0.45-3.19 0.04-1.06-0.06-2.23-0.07-3.2-0.67 1.2-0.14 1.36-0.38 2.73-0.17 0.95-0.63 1.92-0.79 2.46-0.02-1.53 0.39-1.9 0.08-3.05-0.15-1.68-0.53-0.38-0.65-0.19-0.12 0.17-0.52-0.75-0.56-3.25-0.02-0.83-0.1-1.86-0.09-3.12 0-0.88-0.13-1.94-0.12-3.04-0.44 2.17-0.27 3.78-0.51 4.36-0.56 1.27-1.09 2.13-0.84-1.12 0.11-1.8 0.02-1.76 0.05-3.59 0.02-1.31 0.34-2.57 0.28-3.3-0.63 1.36-0.48 1.12-0.72 2.89-0.13 0.9-0.04 1.96-0.21 3.06-0.14 0.97-0.22 1.99-0.38 3.01-0.15 1-0.48 1.97-0.65 2.9-0.2 1.09-0.35 2.12-0.55 3-0.27 1.29-0.69 2.24-0.93 2.7-0.52 1.53-0.35 2.19-1.56 2.81-0.71 0.38-1.6-0.1-2.74-1.2-1.32-1.02-1.54-0.75-2.36-2.25-0.45-0.82-0.65-1.76-0.34-2.93-0.64 1.43-1.23 3.29-1.18 0.68 0.01-1.27-0.09-1.38 0.11-2.76-0.12 0.91-0.84 1.5-1.6 2.56-0.87 1.2-1.5 1.81-1.01 0.1 0.22-0.83-1.62 0.75-0.35-1.38z" clip-path="url(#a)" fill="#009f4c"/>
<path class="st4" d="m192.48 333.62c-0.82 0.1-2.18 1.04-2.65 2.84-0.18 0.73-0.33 1.1-0.46 1.41-0.18 0.44-0.32 0.79-0.43 1.8v0.08c0 0.37 0.22 0.8 0.46 1.25 0.25 0.5 0.55 1.06 0.55 1.56v0.19c-0.05 0.27-0.06 0.56-0.06 0.88 0 0.27 0.01 0.53 0.02 0.8 0.01 0.25 0.02 0.52 0.02 0.75 0 0.31-0.01 0.6-0.06 0.84-0.15 0.88-0.26 1.2-0.37 1.56-0.09 0.29-0.2 0.6-0.34 1.32-0.21 1.15-0.39 1.71-0.5 2.05-0.11 0.36-0.16 0.55-0.16 0.89 0 0.25 0.02 0.59 0.1 1.13v0.08c0 0.34-0.24 0.88-0.51 1.43-0.27 0.58-0.59 1.25-0.72 1.92l-0.17 0.94-0.57 2.67c-0.15 0.76-0.35 1.52-0.54 2.27l-0.38 1.59c-0.09 0.4-0.13 0.75-0.13 1.02 0 0.55 0.12 0.92 0.23 1.27 0.1 0.29 0.18 0.56 0.18 0.92 0 0.27-0.04 0.58-0.18 0.97l-0.01 0.05c-0.06 0.16-0.09 0.28-0.09 0.41 0 0.24 0.14 0.49 0.52 1.1 0.14 0.24 0.19 0.36 0.19 0.41 0 0.04-0.02 0.07-0.03 0.07-0.04 0.1-0.07 0.17-0.07 0.32 0 0.34 0.2 0.98 1.1 2.63 0.58 1.03 1.94 1.96 2.79 2.18 0.88 0.22 1.77-1.01 2.42-1.91 0.15-0.22 0.35-0.49 0.47-0.63v0.02c0 0.28-0.1 1-0.44 2.62-0.01 0.08-0.02 0.12-0.02 0.19s0 0.13 0.06 0.18l0.08 0.06 0.11-0.04c0.37-0.13 1.69-3.61 1.84-4.64 0.1-0.66 0.21-1.07 0.32-1.41 0.18-0.66 0.32-1.1 0.07-2.41-0.21-0.59-0.05-1.31 0.11-2 0.12-0.54 0.23-1.06 0.2-1.52-0.05-0.51-0.05-1.19-0.05-1.85 0-1.68-0.03-2.26-0.38-2.33-0.24-0.06-0.47 0.21-0.81 0.94-0.16 0.37-0.26 0.49-0.32 0.57-0.06-0.15-0.13-0.56-0.18-0.9l-0.2-1.09c-0.03-0.17-0.05-0.37-0.05-0.57 0-0.82 0.27-1.88 0.43-2.52 0.07-0.33 0.12-0.53 0.12-0.63 0-0.12-0.05-0.16-0.12-0.19-0.18-0.07-0.28 0.11-0.46 0.45-0.23 0.45-0.41 0.76-0.54 0.97 0.04-0.24 0.11-0.63 0.27-1.31 0.29-1.14 0.64-1.53 0.85-1.51 0.24 0.02 0.52 0.54 0.55 1.17 0 0.8-0.2 1.73-0.33 2.26-0.12 0.53-0.14 0.65 0.03 0.72 0.18 0.05 0.26-0.1 0.47-0.49 0.55-1.04 0.63-1.95 0.71-2.77l0.05-0.51 0.15-1.14c0.11-0.88 0.18-1.46 0.26-1.61l0.04 0.04c0.41 0.29 0.51 0.78 0.69 1.65l0.3 1.4 0.02 0.02c0.1 0.17 0.27 0.25 0.46 0.32 0.41 0.2 1 0.46 1.17 2.08 0.04 0.39 0.35 0.88 0.64 1.35 0.28 0.43 0.57 0.9 0.57 1.16 0 0.1-0.04 0.19-0.23 0.27-0.27 0.1-0.41 0.41-0.41 0.92 0 1.05 0.56 2.72 0.71 3.14 0.04 0.5 0.34 2.57 0.51 3.4l0.36 1.55 0.39 1.7c0.12 0.58 0.19 1.17 0.26 1.75l0.23 1.66c0.17 0.83 0.52 1.34 0.8 1.77 0.21 0.32 0.39 0.58 0.45 0.9 0.13 0.66 0.21 1.4 0.3 2.11l0.23 1.61 0.32 1.39c0.1 0.41 0.23 0.85 0.43 2.05 0.1 0.54 0.13 1.01 0.13 1.39 0 0.52-0.09 0.69-0.12 0.73-0.05-0.04-0.19-0.21-0.27-0.61-0.11-0.48-0.16-0.91-0.2-1.36-0.08-0.69-0.35-1.42-0.5-2.61l-0.34 0.1c0.02 0.09 0.03 0.22 0.03 0.32 0 0.28-0.05 0.62-0.1 0.96-0.06 0.41 0.11 0.73-0.11 1.15-0.01 0.03 0 0.03 0 0.06-0.11-0.41-0.22-0.72-0.33-0.77l-0.1-0.05-0.09 0.07c-0.1 0.07-0.14 0.1-0.01 1.05 0.13 1.1 0.06 1.57-0.04 2.3-0.07 0.46-0.15 1.02-0.19 1.9-0.18 1.43 0.34 2.89 0.91 3.65 0.59 0.76 1.18 0.74 1.75 0.74 0.48-0.02 0.92-0.02 1.43 0.4 0.49 1.46 1.34 1.74 3.21 1.87 0.81 0.15 1.43-0.24 1.94-0.56l0.51-0.28 0.55-0.24c0.82-0.33 0.84-0.36 1.39-1.29l0.05-0.09 0.48-0.67c0.74-1 0.79-1.08 0.33-1.88l-0.33-0.61c-0.29-0.5-0.18-0.97-0.01-1.6 0.15-0.56 0.3-1.17 0.25-1.98-0.02-0.26-0.14-0.58-0.3-1.01-0.19-0.58-0.45-1.3-0.62-2.17-0.08-0.47-0.28-0.96-0.48-1.47-0.23-0.55-0.45-1.13-0.58-1.75-0.11-0.52-0.26-1.02-0.44-1.57-0.17-0.55-0.35-1.11-0.46-1.67-0.11-0.51-0.08-1.05-0.05-1.62 0.05-0.59 0.09-1.2-0.04-1.78-0.11-0.54-0.15-1.09-0.18-1.64-0.03-0.57-0.07-1.15-0.18-1.71-0.13-0.58-0.3-1.13-0.46-1.67-0.16-0.51-0.32-1.01-0.43-1.55-0.19-0.89-0.41-1.54-0.62-2.13-0.14-0.41-0.27-0.75-0.34-1.11l-0.36-1.9-0.28-1.54c-0.28-1.29-0.39-1.65-0.54-2.15l-0.34-1.21c-0.01-0.01-0.42-1.12-0.42-1.12-0.23-0.58-0.5-1.25-0.72-2.02l-0.44-1.69-0.4-1.57c-0.18-0.63-0.26-1.33-0.34-2.01-0.08-0.65-0.14-1.26-0.28-1.75-0.31-1.14-0.57-1.48-0.85-1.85-0.23-0.29-0.46-0.61-0.77-1.44-0.31-0.76-0.65-1.61-1.28-2.46-0.27-0.36-0.46-0.8-0.66-1.22-0.24-0.56-0.18-1.07-0.55-1.46-0.43-0.46-0.63-0.88-0.83-1.29-0.23-0.45-0.79-0.88-1.1-0.93-0.24-0.04-0.48 0.08-0.79 0.4-0.31 0.3-0.62 0.42-0.91 0.35-0.45-0.1-0.88-0.64-1.18-1.52-0.31-0.88-0.71-1.36-1.22-1.54-0.6-0.23-1.35-0.01-2.42 0.67z" clip-path="url(#a)" fill="#e6001f"/>
<path class="st0" d="m214.56 376.65c-0.81 2.48-1.16 2.7 0.04 5.03 0.94 1.45 0.62 1.46 1.18 3.24 0.53 2.27 1.04 2.9 3.56 0.44 0.39-0.92-1.99 0.41-0.9-0.95 0.93-1.26 1.11-3.4 2.27-1.03 1.12 1.61 0.45 2.47 1.45 5.85 0.3 1.02 0.68 2.26 1.03 3.93 0.25 1.17 0.45 2.48 0.71 4.02 0.22 1.23 1 2.45 1.2 3.92 0.19 1.24 0.5 2.55 0.69 3.99 0.16 1.21 0 2.58 0.16 3.96 0.34 2.13 0.58 1.82 1.29 4.03 0.41 1.31 0.49 3.04 1.15 4.21 0.72 1.28 1.27 1.62 2.29 1.93-0.67-1.57-0.81-0.73-1.29-2.47-0.28-1.01 0.47-1.51 1.17 0.61 0.68 2.38 0.37 2.91 2.65 3.55 0.81 0.29 1.26 0.07 2.11 0.33 1.19 0.39 1 0.08 2.08 0.39 1.27 0.37 1.29 0.7 2.53-0.72 1.51-1.74 2.01-1.53-0.15-3.67-1.73-1.73-1.12-1.28-2.11-4.74-0.52-1.71-0.78-1.14-1.45-3.24-0.32-0.98-0.43-2.27-0.83-3.56-0.34-1.07-0.53-2.31-0.9-3.53-0.35-1.13-1.19-2.11-1.54-3.33-0.34-1.14-0.85-2.24-1.18-3.39-0.43-1.48-0.18-2.43-0.45-3.51-0.32-1.18-0.69-2.45-0.96-3.54-0.31-1.23-0.77-2.56-0.98-3.61-0.28-1.36-0.51-2.35-0.58-3.26-0.17-1.81 0.08-1.58-0.35-3.61-0.22-1.05-0.66-2.49-1.02-3.67-0.34-1.12-0.81-1.87-1.29-2.84-0.52-1.06-0.75-2.41-1.45-3.04-1.15-1.24-1.43-1.09-2.76-1.8-0.98-0.5-2.38-0.88-3.08 0.09-0.66 1.01-0.75 1.26-0.99 2.26-1.07 2.54-1.71 3.56-2.7 4.68-0.79 1.15-0.5 1.79-0.6 3.05z" clip-path="url(#a)" fill="#00a0e9"/>
</g>
</g>
</g>
</g>
<style type="text/css">.st0{fill-rule:evenodd;clip-rule:evenodd;fill:#009A53;}
	.st1{fill-rule:evenodd;clip-rule:evenodd;fill:#E8380D;}
	.st2{fill-rule:evenodd;clip-rule:evenodd;fill:#0062B1;}
	.st3{fill:#909090;}</style>
<style type="text/css">.st0{fill:#009944;}
	.st1{fill:#004EA2;}
	.st2{fill:none;}
	.st3{fill:#E60012;}</style>
<style type="text/css">.st0{fill:#00559D;}
	.st1{fill:#90B1DD;}</style>
<style type="text/css">.st0{fill:#F18D00;}
	.st1{fill:#22AC38;}
	.st2{fill:#00479D;}</style>
<style type="text/css">.st0{fill-rule:evenodd;clip-rule:evenodd;fill:#009944;}
	.st1{fill-rule:evenodd;clip-rule:evenodd;fill:#E60012;}
	.st2{fill-rule:evenodd;clip-rule:evenodd;fill:#004098;}</style>
<style type="text/css">.st0{clip-path:url(#a);fill:#727171;}
	.st1{clip-path:url(#a);fill:#C9CACA;}
	.st2{clip-path:url(#a);fill:none;stroke:#727171;stroke-width:0.5;stroke-miterlimit:10;}
	.st3{clip-path:url(#a);}
	.st4{fill:#45B035;}
	.st5{fill:#FFFFFF;}
	.st6{fill:#9FA0A0;}
	.st7{fill:#005BAC;}
	.st8{fill:#EA5520;}
	.st9{fill:#727171;}
	.st10{fill:none;stroke:#000000;stroke-width:0.16;}</style>
<style type="text/css">.st0{fill:#8FC31F;}
	.st1{fill:none;}
	.st2{fill:#92BF1E;}
	.st3{fill:#0075C2;}
	.st4{fill:#9FA0A0;}
	.st5{fill:#F6AB00;}
	.st6{fill:#71756F;}</style>
<style type="text/css">.st0{fill-rule:evenodd;clip-rule:evenodd;fill:#00A73C;}
	.st1{fill-rule:evenodd;clip-rule:evenodd;fill:#0075C2;}
	.st2{fill-rule:evenodd;clip-rule:evenodd;fill:#004C66;}
	.st3{fill:#00A73C;}
	.st4{fill:#004C66;}</style>
<style type="text/css">.st0{fill-rule:evenodd;clip-rule:evenodd;fill:#00A73C;}
	.st1{fill-rule:evenodd;clip-rule:evenodd;fill:#0075C2;}
	.st2{fill-rule:evenodd;clip-rule:evenodd;fill:#004C66;}
	.st3{fill:#00A73C;}
	.st4{fill:#004C66;}</style>
<style type="text/css">.st0{fill:#008CA2;}
	.st1{fill:#615F5F;}</style>
<style type="text/css">.st0{fill:#27348B;}
	.st1{fill:#009FE3;}</style>
<style type="text/css">.st0{fill:#E60B16;}
	.st1{fill:#006BB6;}
	.st2{fill:#231D1E;}</style>
<style type="text/css">.st0{fill:#E60012;}
	.st1{fill:#0068B7;}</style>
<style type="text/css">.st0{fill:#A6A6A6;}
	.st1{fill:#FFFFFF;stroke:#000000;stroke-width:2;}
	.st2{fill:#FFFFFF;}
	.st3{fill:none;stroke:#000000;stroke-width:0.3;}
	.st4{fill:none;}
	.st5{fill:#D6D6D6;}
	.st6{fill:#3161AD;}
	.st7{fill:#EB612A;}
	.st8{fill:none;stroke:#000000;stroke-width:0.2;}
	.st9{fill:none;stroke:#000000;stroke-width:0.6;}</style>
<style type="text/css">.st0{fill:#27348B;}
	.st1{fill:#009FE3;}</style>
<style type="text/css">.st0{fill:none;stroke:#000000;stroke-width:0.3;}
	.st1{fill:#3161AD;}
	.st2{fill:#3161AD;stroke:#3161AD;}</style>
<style type="text/css">.st0{fill:#0062B0;}
	.st1{fill:#0060B0;}
	.st2{fill:#FFFFFF;}
	.st3{clip-path:url(#a);fill:#C7000B;}
	.st4{clip-path:url(#a);fill:#C8000C;}
	.st5{clip-path:url(#a);fill:#C9000C;}
	.st6{clip-path:url(#a);fill:#CA000C;}
	.st7{clip-path:url(#a);fill:#CB000D;}
	.st8{clip-path:url(#a);fill:#CC000D;}
	.st9{clip-path:url(#a);fill:#CD000D;}
	.st10{clip-path:url(#a);fill:#CE000D;}
	.st11{clip-path:url(#a);fill:#CF000D;}
	.st12{clip-path:url(#a);fill:#D0000E;}
	.st13{clip-path:url(#a);fill:#D1000E;}
	.st14{clip-path:url(#a);fill:#D2000E;}
	.st15{clip-path:url(#a);fill:#D3000E;}
	.st16{clip-path:url(#a);fill:#D4000E;}
	.st17{clip-path:url(#a);fill:#D5000F;}
	.st18{clip-path:url(#a);fill:#D6000F;}
	.st19{clip-path:url(#a);fill:#D7000F;}
	.st20{clip-path:url(#a);fill:#D8000F;}
	.st21{clip-path:url(#a);fill:#D9000F;}
	.st22{clip-path:url(#a);fill:#DA0010;}
	.st23{clip-path:url(#a);fill:#DB0010;}
	.st24{clip-path:url(#a);fill:#DC0010;}
	.st25{clip-path:url(#a);fill:#DD0010;}
	.st26{clip-path:url(#a);fill:#DE0010;}
	.st27{clip-path:url(#a);fill:#DF0010;}
	.st28{clip-path:url(#a);fill:#E00011;}
	.st29{clip-path:url(#a);fill:#E10011;}
	.st30{clip-path:url(#a);fill:#E20011;}
	.st31{clip-path:url(#a);fill:#E30011;}
	.st32{clip-path:url(#a);fill:#E40011;}
	.st33{clip-path:url(#a);fill:#E40012;}
	.st34{clip-path:url(#a);fill:#E50012;}
	.st35{clip-path:url(#a);fill:#E60012;}
	.st36{clip-path:url(#a);fill:#E60412;}
	.st37{clip-path:url(#a);fill:#E60A11;}
	.st38{clip-path:url(#a);fill:#E60F11;}
	.st39{clip-path:url(#a);fill:#E61411;}
	.st40{clip-path:url(#a);fill:#E61711;}
	.st41{clip-path:url(#a);fill:#E61B10;}
	.st42{clip-path:url(#a);fill:#E71E10;}
	.st43{clip-path:url(#a);fill:#E72110;}
	.st44{clip-path:url(#a);fill:#E72410;}
	.st45{clip-path:url(#a);fill:#E7270F;}
	.st46{clip-path:url(#a);fill:#E7290F;}
	.st47{clip-path:url(#a);fill:#E72C0F;}
	.st48{clip-path:url(#a);fill:#E72E0E;}
	.st49{clip-path:url(#a);fill:#E7300E;}
	.st50{clip-path:url(#a);fill:#E8320E;}
	.st51{clip-path:url(#a);fill:#E8340D;}
	.st52{clip-path:url(#a);fill:#E8360D;}
	.st53{clip-path:url(#a);fill:#E8380D;}
	.st54{clip-path:url(#a);fill:#E83A0C;}
	.st55{clip-path:url(#a);fill:#E83B0C;}
	.st56{clip-path:url(#a);fill:#E83D0C;}
	.st57{clip-path:url(#a);fill:#E83F0B;}
	.st58{clip-path:url(#a);fill:#E8400B;}
	.st59{clip-path:url(#a);fill:#E9420B;}
	.st60{clip-path:url(#a);fill:#E9440A;}
	.st61{clip-path:url(#a);fill:#E9450A;}
	.st62{clip-path:url(#a);fill:#E94709;}
	.st63{clip-path:url(#a);fill:#E94809;}
	.st64{clip-path:url(#a);fill:#E94A08;}
	.st65{clip-path:url(#a);fill:#E94B08;}
	.st66{clip-path:url(#a);fill:#E94D07;}
	.st67{clip-path:url(#a);fill:#EA4E07;}
	.st68{clip-path:url(#a);fill:#EA4F06;}
	.st69{clip-path:url(#a);fill:#EA5106;}
	.st70{clip-path:url(#a);fill:#EA5205;}
	.st71{clip-path:url(#a);fill:#EA5305;}
	.st72{clip-path:url(#a);fill:#EA5504;}
	.st73{clip-path:url(#a);fill:#EA5604;}
	.st74{clip-path:url(#a);fill:#EA5703;}
	.st75{clip-path:url(#a);fill:#EB5803;}
	.st76{clip-path:url(#a);fill:#EB5A02;}
	.st77{clip-path:url(#a);fill:#EB5B02;}
	.st78{clip-path:url(#a);fill:#EB5C01;}
	.st79{clip-path:url(#a);fill:#EB5D01;}
	.st80{clip-path:url(#a);fill:#EB5F00;}
	.st81{clip-path:url(#a);fill:#EB6000;}
	.st82{clip-path:url(#a);fill:#EB6100;}
	.st83{clip-path:url(#a);fill:#EC6200;}
	.st84{clip-path:url(#a);fill:#EC6400;}
	.st85{clip-path:url(#a);fill:#EC6500;}
	.st86{clip-path:url(#a);fill:#EC6600;}
	.st87{clip-path:url(#a);fill:#EC6700;}
	.st88{clip-path:url(#a);fill:#EC6800;}
	.st89{clip-path:url(#a);fill:#ED6A00;}
	.st90{clip-path:url(#a);fill:#ED6B00;}
	.st91{clip-path:url(#a);fill:#ED6C00;}
	.st92{clip-path:url(#a);fill:#ED6D00;}
	.st93{clip-path:url(#a);fill:#ED6E00;}
	.st94{clip-path:url(#a);fill:#ED6F00;}
	.st95{clip-path:url(#a);fill:#ED7000;}
	.st96{clip-path:url(#a);fill:#ED7100;}
	.st97{clip-path:url(#a);fill:#EE7300;}
	.st98{clip-path:url(#a);fill:#EE7400;}
	.st99{clip-path:url(#a);fill:#EE7500;}
	.st100{clip-path:url(#a);fill:#EE7600;}
	.st101{clip-path:url(#a);fill:#EE7700;}
	.st102{clip-path:url(#a);fill:#EE7800;}
	.st103{clip-path:url(#a);fill:#EE7900;}
	.st104{clip-path:url(#a);fill:#EF7A00;}
	.st105{clip-path:url(#a);fill:#EF7B00;}
	.st106{clip-path:url(#a);fill:#EF7C00;}
	.st107{clip-path:url(#a);fill:#EF7D00;}
	.st108{clip-path:url(#a);fill:#EF7E00;}
	.st109{clip-path:url(#a);fill:#EF8000;}
	.st110{clip-path:url(#a);fill:#F08100;}
	.st111{clip-path:url(#a);fill:#F08200;}
	.st112{clip-path:url(#a);fill:#F08300;}
	.st113{clip-path:url(#a);fill:#F08400;}
	.st114{clip-path:url(#a);fill:#F08500;}
	.st115{clip-path:url(#a);fill:#F08600;}
	.st116{clip-path:url(#a);fill:#F18700;}
	.st117{clip-path:url(#a);fill:#F18800;}
	.st118{clip-path:url(#a);fill:#F18900;}
	.st119{clip-path:url(#a);fill:#F18A00;}
	.st120{clip-path:url(#a);fill:#F18B00;}
	.st121{clip-path:url(#a);fill:#F18C00;}
	.st122{clip-path:url(#a);fill:#F18D00;}
	.st123{clip-path:url(#a);fill:#F28E00;}
	.st124{clip-path:url(#a);fill:#F28F00;}
	.st125{clip-path:url(#a);fill:#F29000;}
	.st126{clip-path:url(#a);fill:#F29100;}
	.st127{clip-path:url(#a);fill:#F29200;}
	.st128{clip-path:url(#a);fill:#F29300;}
	.st129{clip-path:url(#a);fill:#F29400;}
	.st130{clip-path:url(#a);fill:#F39500;}
	.st131{clip-path:url(#a);fill:#F39600;}
	.st132{clip-path:url(#a);fill:#F39700;}
	.st133{clip-path:url(#a);fill:#F39800;}
	.st134{clip-path:url(#a);fill:#F39900;}
	.st135{clip-path:url(#a);fill:#F49A00;}
	.st136{clip-path:url(#a);fill:#F49B00;}
	.st137{clip-path:url(#a);fill:#F49C00;}
	.st138{clip-path:url(#a);fill:#F49D00;}
	.st139{clip-path:url(#a);fill:#F49E00;}
	.st140{clip-path:url(#a);fill:#F49F00;}
	.st141{clip-path:url(#a);fill:#F4A000;}
	.st142{clip-path:url(#a);fill:#F5A000;}
	.st143{clip-path:url(#a);fill:#F5A100;}
	.st144{clip-path:url(#a);fill:#F5A200;}
	.st145{clip-path:url(#a);fill:#F5A300;}
	.st146{clip-path:url(#a);fill:#F5A400;}
	.st147{clip-path:url(#a);fill:#F5A500;}
	.st148{clip-path:url(#a);fill:#F5A600;}
	.st149{clip-path:url(#a);fill:#F6A600;}
	.st150{clip-path:url(#a);fill:#F6A700;}
	.st151{clip-path:url(#a);fill:#F6A800;}
	.st152{clip-path:url(#a);fill:#F6A900;}
	.st153{clip-path:url(#a);fill:#F6AA00;}
	.st154{clip-path:url(#a);fill:#F6AB00;}
	.st155{clip-path:url(#a);fill:#F7AC00;}
	.st156{clip-path:url(#a);fill:#F7AD00;}
	.st157{clip-path:url(#a);fill:#F7AE00;}
	.st158{clip-path:url(#a);fill:#F7AF00;}
	.st159{clip-path:url(#a);fill:#F7B000;}
	.st160{clip-path:url(#a);fill:#F8B100;}
	.st161{clip-path:url(#a);fill:#F8B200;}
	.st162{clip-path:url(#a);fill:#F8B300;}
	.st163{clip-path:url(#a);fill:#F8B400;}
	.st164{clip-path:url(#a);fill:#F8B500;}
	.st165{clip-path:url(#a);fill:#F8B600;}
	.st166{clip-path:url(#a);fill:#F9B700;}
	.st167{clip-path:url(#a);fill:#F9B800;}
	.st168{clip-path:url(#a);fill:#F9B900;}
	.st169{clip-path:url(#a);fill:#F9BA00;}
	.st170{clip-path:url(#a);fill:#F9BB00;}
	.st171{clip-path:url(#a);fill:#FABC00;}
	.st172{clip-path:url(#a);fill:#FABD00;}
	.st173{clip-path:url(#a);fill:#FABE00;}
	.st174{clip-path:url(#a);fill:#FABF00;}
	.st175{clip-path:url(#a);fill:#FAC000;}
	.st176{clip-path:url(#a);fill:#FAC100;}
	.st177{clip-path:url(#a);fill:#FBC200;}
	.st178{clip-path:url(#a);fill:#FBC300;}
	.st179{clip-path:url(#a);fill:#FBC400;}
	.st180{clip-path:url(#a);fill:#FBC500;}
	.st181{clip-path:url(#a);fill:#FBC600;}
	.st182{clip-path:url(#a);fill:#FCC700;}
	.st183{clip-path:url(#a);fill:#FCC800;}
	.st184{clip-path:url(#a);fill:#FCC900;}
	.st185{clip-path:url(#a);fill:#FCCA00;}
	.st186{clip-path:url(#a);fill:#FCCB00;}
	.st187{clip-path:url(#a);fill:#FDCC00;}
	.st188{clip-path:url(#a);fill:#FDCD00;}
	.st189{clip-path:url(#a);fill:#FDCE00;}
	.st190{clip-path:url(#a);fill:#FDCF00;}
	.st191{clip-path:url(#a);fill:#FDD000;}
	.st192{clip-path:url(#a);fill:#FED100;}
	.st193{clip-path:url(#a);fill:#FED200;}
	.st194{clip-path:url(#a);fill:#FED300;}
	.st195{clip-path:url(#a);fill:#FED400;}
	.st196{clip-path:url(#a);fill:#FED500;}
	.st197{clip-path:url(#a);fill:#FFD600;}
	.st198{clip-path:url(#a);fill:#FFD700;}
	.st199{clip-path:url(#a);fill:#FFD800;}
	.st200{clip-path:url(#a);fill:#FFD900;}
	.st201{clip-path:url(#a);fill:#FFDA00;}
	.st202{clip-path:url(#a);fill:#FFDB00;}
	.st203{clip-path:url(#a);fill:#FFDC00;}
	.st204{clip-path:url(#a);fill:#FFDD00;}
	.st205{clip-path:url(#a);fill:#FFDE00;}
	.st206{clip-path:url(#a);fill:#FFDF00;}
	.st207{clip-path:url(#a);fill:#FFE000;}
	.st208{clip-path:url(#a);fill:#FFE100;}
	.st209{clip-path:url(#a);fill:#FFE200;}
	.st210{clip-path:url(#a);fill:#FFE300;}
	.st211{clip-path:url(#a);fill:#FFE400;}
	.st212{clip-path:url(#a);fill:#FFE500;}
	.st213{clip-path:url(#a);fill:#FFE600;}
	.st214{clip-path:url(#a);fill:#FFE700;}
	.st215{clip-path:url(#a);fill:#FFE800;}
	.st216{clip-path:url(#a);fill:#FFE900;}
	.st217{clip-path:url(#a);fill:#FFEA00;}
	.st218{clip-path:url(#a);fill:#FFEB00;}
	.st219{clip-path:url(#a);fill:#FFEC00;}
	.st220{clip-path:url(#a);fill:#FFED00;}
	.st221{clip-path:url(#a);fill:#FFEE00;}
	.st222{clip-path:url(#a);fill:#FFEF00;}
	.st223{clip-path:url(#a);fill:#FFF000;}
	.st224{clip-path:url(#a);fill:#FFF100;}</style>
<style type="text/css">.st0{fill:#F4A452;stroke:#000000;stroke-width:3.1359;stroke-linecap:round;stroke-linejoin:round;}
	.st1{fill:none;stroke:#000000;stroke-width:3.1359;stroke-linecap:round;stroke-linejoin:round;}
	.st2{fill:#BBDCF4;stroke:#000000;stroke-width:3.1359;stroke-linecap:round;stroke-linejoin:round;}
	.st3{fill:#75BC34;stroke:#000000;stroke-width:3.1359;stroke-linecap:round;stroke-linejoin:round;}
	.st4{fill:#00AFEC;stroke:#000000;stroke-width:3.1359;stroke-linecap:round;stroke-linejoin:round;}
	.st5{fill:#BBDCF4;stroke:#000000;stroke-width:1.7921;stroke-linecap:round;stroke-linejoin:round;}</style>
<style type="text/css">.st0{fill:#005FAD;}
	.st1{fill:#008842;}</style>
<style type="text/css">.st0{fill:#009944;}
	.st1{fill:#7CB62C;}
	.st2{fill:#FFFFFF;stroke:#FFFFFF;stroke-width:0.1998;}
	.st3{fill:#FFFFFF;stroke:#FFFFFF;stroke-width:0.1692;}
	.st4{fill:#FFFFFF;stroke:#FFFFFF;stroke-width:0.0724;}
	.st5{fill:#FFFFFF;}
	.st6{fill:#0062B1;}
	.st7{fill:#D71518;}
	.st8{fill:#F3C91C;}
	.st9{fill:#0862AA;}
	.st10{clip-path:url(#a);}
	.st11{fill:#004183;}
	.st12{fill:#E60012;}
	.st13{clip-path:url(#b);}
	.st14{fill:#065DA5;}</style>
<style type="text/css">.st0{fill:#00A0E9;}
	.st1{fill:#004199;}
	.st2{fill:#FAC040;}
	.st3{fill:#009F4C;}
	.st4{fill:#E6001F;}</style>
</svg>
