<?xml version="1.0" encoding="UTF-8"?>
<svg width="300mm" height="200mm" version="1.1" viewBox="0 0 300 200" xmlns="http://www.w3.org/2000/svg" xmlns:cc="http://creativecommons.org/ns#" xmlns:dc="http://purl.org/dc/elements/1.1/" xmlns:rdf="http://www.w3.org/1999/02/22-rdf-syntax-ns#" xmlns:xlink="http://www.w3.org/1999/xlink">
<metadata>
<rdf:RDF>
<cc:Work rdf:about="">
<dc:format>image/svg+xml</dc:format>
<dc:type rdf:resource="http://purl.org/dc/dcmitype/StillImage"/>
<dc:title/>
</cc:Work>
</rdf:RDF>
</metadata>
<g transform="translate(-188.32 -26.637)">
<path d="m188.32 26.637v200h300v-200z" fill="#fff" style="paint-order:fill markers stroke"/>
<g transform="matrix(.35278 0 0 .35278 288.01 -263.8)" fill-rule="evenodd"></g>
<g transform="matrix(1.0357 0 0 1.0357 26.512 -951.23)" fill-rule="evenodd">
<g fill="#5e3a2b">
<path d="m197.74 1053.7c-3.819 0-6.892-2.67-6.892-8.17s3.073-8.17 6.892-8.17c1.537 0 2.956 0.35 3.773 0.86l-1.058 2.46c-0.48-0.32-1.345-0.63-2.307-0.63-2.233 0-3.817 1.88-3.817 5.46s1.584 5.43 3.817 5.43c0.962 0 1.827-0.28 2.307-0.61l1.058 2.51c-0.817 0.5-2.186 0.86-3.773 0.86z"/>
<path d="m212.66 1053.4v-6.74h-5.332v6.74h-3.385v-15.8h3.385v6.52h5.332v-6.52h3.385v15.8z"/>
<path d="m219.26 1053.4v-15.8h9.249v2.57h-5.934v3.95h5.356v2.54h-5.356v4.17h5.934v2.57z"/>
<path d="m236.9 1053.7c-4.561 0-6.723-3.57-6.723-8.17 0-4.61 2.162-8.17 6.723-8.17 4.566 0 6.726 3.56 6.726 8.17 0 4.6-2.16 8.17-6.726 8.17zm0-13.61c-2.21 0-3.337 2.19-3.337 5.44s1.127 5.44 3.337 5.44c2.212 0 3.339-2.19 3.339-5.44s-1.127-5.44-3.339-5.44z"/>
<path d="m255.97 1053.4-6.222-9.36c-0.575-0.88-1.031-1.86-1.031-1.86h-0.049s0.049 1.07 0.049 2.05v9.17h-2.883v-15.8h2.905l6.077 9.12c0.553 0.85 1.033 1.86 1.033 1.86h0.047s-0.047-1.12-0.047-2.12v-8.86h2.905v15.8z"/>
<path d="m268.86 1053.7c-4.853 0-7.903-3.17-7.903-8.17s3.243-8.17 8.189-8.17c1.779 0 3.461 0.37 4.349 0.86l-1.057 2.4c-0.674-0.35-1.803-0.63-3.172-0.63-2.736 0-4.922 1.74-4.922 5.52s2.042 5.59 4.275 5.59c0.841 0 1.538-0.11 1.852-0.24v-4.41h-2.668v-2.34h5.835v8.73c-0.934 0.46-2.713 0.86-4.778 0.86z"/>
<path d="m274.35 1058.2v-2.64c1.824-0.41 3.025-1.57 3.025-3.88v-14.06h3.385v14.06c0 4.01-2.423 6.07-6.41 6.52z"/>
<path d="m289.91 1053.6c-3.387 0-5.932-1.77-5.932-4.89v-11.13h3.389v11.15c0 1.4 1.128 2.23 2.543 2.23 1.419 0 2.545-0.83 2.545-2.23v-11.15h3.387v11.13c0 3.12-2.545 4.89-5.932 4.89z"/>
<path d="m197.74 1076.1c-3.819 0-6.892-2.66-6.892-8.16s3.073-8.17 6.892-8.17c1.537 0 2.956 0.35 3.773 0.86l-1.058 2.46c-0.48-0.33-1.345-0.63-2.307-0.63-2.233 0-3.817 1.87-3.817 5.45 0 3.59 1.584 5.44 3.817 5.44 0.962 0 1.827-0.28 2.307-0.61l1.058 2.51c-0.817 0.5-2.186 0.85-3.773 0.85z"/>
<path d="m203.94 1075.8v-15.8h3.385v15.8z"/>
<path d="m216.32 1062.6v13.23h-3.386v-13.23h-3.675v-2.57h10.709v2.57z"/>
<path d="m229 1069.6v6.2h-3.385v-6.2l-5.165-9.6h3.653l3.168 6.5h0.049l3.195-6.5h3.649z"/>
</g>
<g fill="#5e3a2b">
<path d="m298.92 987.45v38.952h1.861c2.076 0 3.767-1.55 3.767-3.46v-35.492z"/>
<path d="m218.12 995.38h-7.832v3.722h7.832v10.179h1.864c2.071 0 3.766-1.55 3.766-3.46v-18.372h-5.63z"/>
<path d="m286.25 987.73h-5.621v10.196c7e-3 0.617-0.09 3.352-1.238 5.642-1.19 2.33-3.184 4.66-8.449 7.13l2.415 3.23c4.511-1.53 8.145-4.3 10.082-6.94 1.932 2.64 5.571 5.41 10.085 6.94l2.408-3.23c-5.261-2.47-7.26-4.8-8.446-7.13-1.149-2.29-1.24-5.025-1.236-5.642z"/>
<path d="m230.2 1013.8h15.967v12.98h1.954c2.181 0 3.955-1.55 3.955-3.46v-9.52h15.964v-3.72h-37.84z"/>
<path d="m251.98 992.07h10.761v-3.721h-27.424v3.721h10.753v0.262c-0.018 0.408-0.108 2.962-1.732 5.008-1.631 2.036-4.692 4.407-11.333 5.567l1.926 3.96c6.996-1.33 11.57-3.92 14.095-6.879 2.527 2.959 7.102 5.549 14.098 6.879l1.921-3.96c-6.634-1.16-9.698-3.531-11.331-5.567-1.628-2.051-1.714-4.614-1.734-5.011z"/>
<path d="m212.13 1009.9c-6 0-10.864 3.93-10.864 8.77s4.864 8.77 10.864 8.77c5.999 0 10.863-3.93 10.863-8.77s-4.864-8.77-10.863-8.77zm0 13.81c-2.736 0-4.953-2.25-4.953-5.04s2.217-5.05 4.953-5.05c2.737 0 4.953 2.26 4.953 5.05s-2.216 5.04-4.953 5.04z"/>
<path d="m212.08 1008.3 2.308-3.59c-5.434-2.29-7.483-4.48-8.603-6.77-1.015-2.134-1.134-4.195-1.146-5.388h7.955v-3.721h-7.955v-3.12h-5.621v3.12h-7.962v3.721h7.956c-0.011 1.193-0.13 3.254-1.147 5.388-1.119 2.29-3.166 4.48-8.599 6.77l2.302 3.59c5.251-1.98 8.588-4.76 10.258-7.52 1.67 2.76 5.01 5.54 10.254 7.52z"/>
</g>
<path d="m383.67 987.45c-2.479 0.014-4.945 0.173-7.424 0.416v25.721c2.636-0.38 5.295-0.58 7.953-0.58 1.028 0 2.049 0.02 3.072 0.08 0.06 1.04 0.087 2.07 0.087 3.11-0.014 13.88-5.253 27.64-15.831 38.23h-3e-3c-6.8 6.8-14.906 11.37-23.508 13.79v26.21c15.219-2.85 29.812-10.18 41.566-21.94h4e-3c15.513-15.52 23.294-35.96 23.282-56.29v-28.747zm-79.125 108.35h28.807c2.548 0 5.102-0.12 7.646-0.37l-2e-3 -25.71c-2.55 0.36-5.124 0.55-7.699 0.55-1.043 0-2.074-0.03-3.11-0.09-0.059-1.04-0.089-2.07-0.089-3.11 0.013-13.88 5.253-27.64 15.834-38.23 6.743-6.73 14.769-11.29 23.302-13.73v-26.219c-15.146 2.881-29.653 10.186-41.357 21.899-15.399 15.38-23.223 35.62-23.332 55.79z" fill="#84b433"/>
</g>
</g>
</svg>
