<?xml version="1.0" encoding="UTF-8"?>
<svg width="300mm" height="200mm" version="1.1" viewBox="0 0 300 200" xmlns="http://www.w3.org/2000/svg" xmlns:cc="http://creativecommons.org/ns#" xmlns:dc="http://purl.org/dc/elements/1.1/" xmlns:rdf="http://www.w3.org/1999/02/22-rdf-syntax-ns#" xmlns:xlink="http://www.w3.org/1999/xlink">
<style/>
<defs>
<clipPath>
<path d="M 0,841.89 H 595.276 V 0 H 0 Z"/>
</clipPath>
<clipPath id="a">
<path d="M 0,841.89 H 595.28 V 0 H 0 Z"/>
</clipPath>
</defs>
<metadata>
<rdf:RDF>
<cc:Work rdf:about="">
<dc:format>image/svg+xml</dc:format>
<dc:type rdf:resource="http://purl.org/dc/dcmitype/StillImage"/>
<dc:title/>
</cc:Work>
</rdf:RDF>
</metadata>
<g transform="translate(-188.32 -26.637)">
<path d="m488.32 226.64h-300v-200h300z" fill="#fff"/>
<g transform="matrix(.35278 0 0 .35278 278.64 50.009)" fill-rule="evenodd"></g>
<g transform="matrix(.83007 0 0 -.83007 92.823 475.75)"></g>
<g transform="matrix(.35278 0 0 .35278 509.31 -283.65)" fill-rule="evenodd"></g>
<g transform="translate(0 -.54465)">
<g transform="matrix(.35278 0 0 .35278 552.61 -136.01)" fill-rule="evenodd">
<g transform="matrix(3.0173 0 0 3.0173 -1357.4 -1886.3)"></g>
</g>
</g>
<g transform="matrix(.35278 0 0 -.35278 263.95 302.09)">
<g transform="translate(-34.341)">
<g clip-path="url(#a)">
<g transform="translate(0 -5.6885)">
<g transform="matrix(3.5259 0 0 3.5259 -483.33 -1244.4)">
<g transform="translate(249.32 469.07)">
<path d="m0 0c0-1.477-16.822-2.675-37.573-2.675-20.747 0-37.566 1.198-37.566 2.675 0 1.479 16.819 2.677 37.566 2.677 20.751 0 37.573-1.198 37.573-2.677" fill="#176613"/>
</g>
<g transform="translate(249.37 545.02)">
<path d="m0 0c9.533-14.87-1.888-39.195-25.503-54.33-23.619-15.132-50.489-15.34-60.024-0.47-9.528 14.877 1.889 39.201 25.509 54.337 23.614 15.132 50.485 15.343 60.018 0.463" fill="#081059"/>
</g>
<g transform="translate(208.92 513.37)">
<path d="m0 0s-10.103 9.745-27.817 14.707c0 0 18.602 19.142 44.476 3.014 0 0 3.188 12.228 12.756 9.924 0 0 3.368-0.707 6.382-3.722 0 0-2.306-3.898-3.37-7.617 0 0-5.135-21.086-21.086-31.013 0 0-8.508-6.026-25.518-8.33 0 0-8.15-0.885-13.467-2.655l2.483 5.314s23.033-4.074 39.694 10.809c0 0 9.92 8.329 14.529 24.276 0 0 1.416 5.318 3.365 8.333 0 0-6.024 5.666-10.453-0.533 0 0-2.658-4.073-3.901-8.684 0 0-17.009 13.115-34.554 5.317 0 0-3.361-1.419-5.846-3.193 0 0 16.834-6.907 22.327-15.947" fill="#fff"/>
</g>
</g>
<g transform="matrix(1.6777 0 0 1.6777 -421.73 -548.63)">
<path transform="matrix(.44705 0 0 -.44705 144.07 795.84)" d="m327.43 560.21c-4.5274 0-8.7526 0.7249-12.689 2.1699-3.9369 1.4495-7.3535 3.4599-10.248 6.0391-2.8968 2.5791-5.1803 5.6582-6.8535 9.2305-1.6754 3.5768-2.5117 7.4429-2.5117 11.604 0 4.2523 0.8363 8.1204 2.5117 11.605 1.2207 2.5409 2.771 4.8148 4.6426 6.8262h-30.855v11.303h-0.00195v15.656c0 4.6147 0.38286 8.3905 1.1523 11.332 0.76725 2.9392 2.0809 5.2462 3.9375 6.9238 1.8521 1.671 4.3188 2.8257 7.3945 3.4609 3.0757 0.6308 6.9244 0.94727 11.539 0.94727h80.854v-11.535h-80.854c-2.2637 0-4.0955-0.18059-5.498-0.54297-1.4025-0.36237-2.51-0.97307-3.3242-1.832-0.81422-0.8612-1.3582-2.0137-1.6289-3.4609-0.27066-1.4495-0.4082-3.2577-0.4082-5.4297v-15.285h97.99v-11.537h-30.139c1.8701-2.0114 3.4206-4.2853 4.6445-6.8262 1.6732-3.4851 2.5098-7.3532 2.5098-11.605 0-4.2523-0.83658-8.1443-2.5098-11.672-1.6776-3.5298-3.9612-6.583-6.8535-9.1621-2.8968-2.5791-6.3131-4.5896-10.25-6.0391-3.9302-1.445-8.1195-2.1699-12.551-2.1699zm262.65 0.51953v11.668h11.225c3.4381 0 5.7667 0.65794 6.9902 1.9688 1.2236 1.313 1.8301 3.6892 1.8301 7.125v8.7363h-19.596v11.674h19.596v17.051c-1.2957-2.0138-2.8335-3.8299-4.6211-5.4434-2.7625-2.4896-5.9963-4.4334-9.7051-5.8359-3.7132-1.4025-7.6911-2.1055-11.943-2.1055-4.0345 0-7.8215 0.6187-11.365 1.8379h-0.98633v-35.111h13.299v-11.4h-73.693v11.4h13.162v35.111h-13.162v11.398h46.498c-0.71185 1.1128-1.3535 2.2866-1.916 3.5254-1.5859 3.4851-2.375 7.3062-2.375 11.467 0 4.2523 0.78906 8.1204 2.375 11.605 1.5815 3.4828 3.7534 6.4696 6.5137 8.957 2.7581 2.4874 5.9963 4.4098 9.7051 5.7676 3.7088 1.3578 7.6908 2.0371 11.945 2.0371 4.1606 0 8.0934-0.67933 11.807-2.0371 3.711-1.3578 6.9664-3.2802 9.7715-5.7676 2.805-2.4874 4.998-5.4742 6.584-8.957 1.5815-3.4851 2.375-7.3532 2.375-11.605 0-4.1606-0.79352-7.9604-2.375-11.398-0.51216-1.1103-1.0922-2.1664-1.7266-3.1777h12.865v-32.434c0-4.6147-0.20422-8.4828-0.61133-11.605-0.41159-3.1227-1.2004-5.6513-2.377-7.5996-3.7468-6.1939-13.074-6.8516-19.541-6.8516h-10.547zm162.48 0.60547v11.672h88.018c3.4381 0 5.7667 0.65794 6.9902 1.9688 1.2236 1.313 1.8281 3.6869 1.8281 7.125v24.361h-97.312v11.535h48.998v38.002h13.164v-38.002h48.186v-11.535-20.062c0-4.6147-0.20617-7.4867-0.61328-10.609-0.51895-3.9772-1.7248-8.2054-5.1719-10.574-4.6527-3.1965-11.255-3.8809-16.746-3.8809h-87.34zm-425.13 10.273c2.8028 0 5.3617 0.47706 7.668 1.4277 2.3062 0.94844 4.2972 2.2174 5.9726 3.7988 1.6732 1.5837 2.9615 3.4394 3.8652 5.5644 0.90593 2.1273 1.3594 4.4108 1.3594 6.8535 0 5.0688-1.7198 9.1605-5.1602 12.283-3.4381 3.1204-8.0055 4.6816-13.705 4.6816-6.0619 0-10.745-1.5612-14.047-4.6816-3.3039-3.1227-4.9551-7.2144-4.9551-12.283 0-2.351 0.42982-4.5918 1.291-6.7168 0.85896-2.1273 2.1043-4.0044 3.7305-5.6328 1.6307-1.6307 3.6195-2.9188 5.9727-3.8672 2.351-0.95067 5.0216-1.4277 8.0078-1.4277zm209.87 0.68555h21.172v35.111h-21.172v-35.111zm46.553 44.539c2.4427 0 4.726 0.40648 6.8555 1.2207 2.1228 0.81422 3.9785 1.9689 5.5645 3.4609 1.577 1.4942 2.8242 3.3027 3.7324 5.4277 0.9037 2.1273 1.3516 4.4581 1.3516 6.9902 0 2.7133-0.44786 5.1344-1.3516 7.2617-0.90817 2.125-2.1554 3.9118-3.7324 5.3613-1.586 1.445-3.4417 2.5308-5.5645 3.2578-2.1295 0.72251-4.4128 1.084-6.8555 1.084-4.8831 0-9.0263-1.4473-12.422-4.3418-3.3889-2.8968-5.0898-7.1047-5.0898-12.623 0-5.2477 1.6512-9.4106 4.9551-12.486 3.3016-3.0757 7.4901-4.6133 12.557-4.6133z"/>
<g transform="translate(52.127)"></g>
</g>
</g>
</g>
</g>
</g>
</g>
</svg>
