<?xml version="1.0" encoding="UTF-8"?>
<svg width="300mm" height="200mm" version="1.1" viewBox="0 0 300 200" xmlns="http://www.w3.org/2000/svg" xmlns:cc="http://creativecommons.org/ns#" xmlns:dc="http://purl.org/dc/elements/1.1/" xmlns:rdf="http://www.w3.org/1999/02/22-rdf-syntax-ns#" xmlns:xlink="http://www.w3.org/1999/xlink">
<defs>
<rect id="b" x="-.36" y="-.06" width="624" height="842"/>
<clipPath id="a">
<use width="100%" height="100%" xlink:href="#b"/>
</clipPath>
<clipPath id="i">
<path d="M 0,841.89 H 595.28 V 0 H 0 Z"/>
</clipPath>
<radialGradient id="d" cx="295.93" cy="98.245" r="9.9758" gradientTransform="matrix(-.34263 -.32381 1.0143 -1.0733 297.68 299.77)" gradientUnits="userSpaceOnUse">
<stop stop-color="#b1daea" offset="0"/>
<stop stop-color="#5eb8df" offset="1"/>
</radialGradient>
<filter id="h" x="-.14544" y="-.15485" width="1.2909" height="1.3097" color-interpolation-filters="sRGB">
<feGaussianBlur stdDeviation="1.1931447"/>
</filter>
<radialGradient id="c" cx="287.26" cy="100.5" r="9.9758" gradientTransform="matrix(-.17543 -.18636 4.4774 -4.2149 -51.764 552.86)" gradientUnits="userSpaceOnUse">
<stop stop-color="#fff" offset="0"/>
<stop stop-color="#fff" offset=".6393"/>
<stop stop-color="#bcdeeb" offset="1"/>
</radialGradient>
<filter id="g" x="-.13226" y="-.17324" width="1.2645" height="1.3465" color-interpolation-filters="sRGB">
<feGaussianBlur stdDeviation="1.7416514"/>
</filter>
<filter id="f" x="-.038743" y="-.14559" width="1.0775" height="1.2912" color-interpolation-filters="sRGB">
<feGaussianBlur stdDeviation="1.3769421"/>
</filter>
<linearGradient id="e" x1="404.22" x2="404.02" y1="112.94" y2="97.683" gradientUnits="userSpaceOnUse">
<stop stop-color="#e3c31b" offset="0"/>
<stop stop-color="#f9da3f" offset=".73635"/>
<stop stop-color="#eecc28" offset="1"/>
</linearGradient>
</defs>
<metadata>
<rdf:RDF>
<cc:Work rdf:about="">
<dc:format>image/svg+xml</dc:format>
<dc:type rdf:resource="http://purl.org/dc/dcmitype/StillImage"/>
<dc:title/>
</cc:Work>
</rdf:RDF>
</metadata>
<g transform="translate(-188.32 -26.637)">
<path d="m188.32 26.637h300v200h-300z" fill="#fff" style="paint-order:fill markers stroke"/>
<g transform="matrix(.35278 0 0 .35278 288.01 -263.8)" fill-rule="evenodd"></g>
<g transform="matrix(.26458 0 0 .26458 178 44.098)"></g>
<polygon class="st2" transform="matrix(.26458 0 0 .26458 352.93 280.3)" points="" clip-path="url(#a)" fill="#92bf1e"/>
<rect class="st2" x="400.54" y="341.71" width="0" height="0" clip-path="url(#a)" fill="#92bf1e" stroke-width=".26458"/>
<rect class="st2" x="400.54" y="341.71" width="0" height="0" clip-path="url(#a)" fill="#92bf1e" stroke-width=".26458"/>
<rect class="st5" transform="rotate(-31.481)" x="262.91" y="356.59" width="0" height=".079373" fill="#0c3388" stroke-width=".26458"/>
<g transform="translate(3.7133 -1.7464)"></g>
<g transform="matrix(1.0023 0 0 1.0023 .70399 .4508)">
<path d="m371.67 81.24c-1.4254 3e-3 -2.8046 0.15835-4.1481 0.44648-0.54482 0.11735-1.0828 0.255-1.6102 0.41186-6.0955 1.8105-11.212 6.1249-15.873 10.287-3.8132 3.4079-7.7524 7.2195-12.128 10.875-1.7441 1.4561-3.5358 2.8616-5.3816 4.192-1.6848 1.213-3.4132 2.3628-5.1914 3.4298-1.5094 0.90765-3.0557 1.754-4.6369 2.5347-2.6278 1.2908-5.3677 2.4009-8.1835 3.2463-2.2596 0.67894-4.5669 1.1866-6.9019 1.48-3.1367 0.40235-6.4033 0.40947-9.525-0.20361-2.3601-0.46102-4.6388-1.2799-6.7164-2.5528-3.3798-2.0764-5.8911-5.2363-7.4393-8.861 0 0.10054-0.10619 0.2742-0.14211 0.37-0.1419 0.36881-0.27495 0.74091-0.40308 1.1157-0.43706 1.2824-0.76594 2.6012-0.97668 3.9352-0.0557 0.35146-0.10216 0.7044-0.14108 1.0588-0.0389 0.35383-0.0689 0.70941-0.0904 1.065-0.0832 1.3022-0.057 2.607 0.0765 3.8985 0.13291 1.2914 0.3723 2.5693 0.71416 3.8194 0.34187 1.2501 0.78609 2.4721 1.3291 3.6509 0.54304 1.1789 1.1849 2.3143 1.9213 3.392 1.8081 2.6463 4.1389 4.8723 6.8032 6.5655 3.5222 2.2392 7.6244 3.5532 11.864 3.6933 0.37899 0.0131 0.75702 0.0154 1.1348 0.0109v-5.2e-4c1.2842-0.0191 2.5509-0.13986 3.7843-0.36018 0.47718-1.1627 1.0398-2.287 1.6738-3.3683 1.8165-3.1073 4.212-5.8819 6.8218-8.339 1.5998-1.5088 3.2918-2.9182 5.055-4.2354 2.0758-1.5543 4.2522-2.9817 6.4932-4.2917 2.4565-1.4369 4.9952-2.7358 7.569-3.9093 1.671-0.76275 3.3233-1.4501 4.9279-2.0578 1.6052-0.60771 3.1624-1.1361 4.6436-1.5798 1.4818-0.44426 2.8879-0.80365 4.1889-1.0749 1.301-0.27061 2.4972-0.45278 3.5605-0.54209 0.32852-0.0276 0.6579-0.0455 0.98702-0.0527h5.2e-4c0.20716-0.0123 0.58628-0.0158 1.0712 9e-3 0.053-5.2e-4 -2.1e-4 -5.2e-4 -2.1e-4 -5.2e-4h0.0532c1.3908 0.0826 3.2769 0.43256 4.8156 1.7725 0.0311 0.0191 0.0538 0.0452 0.1018 0.0884 0.0527 0.0432 0.10431 0.0827 0.14676 0.12816 0.0413 0.0383 0.0799 0.0812 0.12351 0.12557 0.0144 0.0168 0.019 0.029 0.0346 0.0398 0.13097 0.1446 0.25289 0.28786 0.36277 0.44287 7e-3 0.0128 0.0131 0.0231 0.0196 0.0362 0.0276 0.0443 0.06 0.0897 0.0997 0.15555 0.68551 1.1196 0.84433 2.5216 1.2185 3.7274 6e-3 0.011 0.0306 0.0215 0.0408 0.0382 0.0281 0.0922 0.0636 0.18921 0.094 0.27544 0.01 0.0311 0.0186 0.061 0.0336 0.0873 0.027 0.0779 0.0618 0.15714 0.0899 0.23616 0.0197 0.0347 0.0301 0.067 0.0475 0.10646 0.31057-2.4045 0.21518-1.7005 5.2e-4 0h-5.2e-4c0.0305 0.0706 0.0643 0.13793 0.0997 0.20619 0.021 0.0395 0.0321 0.0741 0.0589 0.1111 0.0353 0.0658 0.0735 0.12964 0.1142 0.1943 0.0197 0.0347 0.0457 0.0681 0.0667 0.10284 0.0378 0.0635 0.0901 0.1294 0.13798 0.18448 0.0231 0.031 0.0487 0.0594 0.0661 0.0868v5.2e-4c0.076 0.0874 0.15179 0.16526 0.2434 0.24908 0.36581 0.0299 1.0794 0.0297 1.538-7e-3 3.1451-0.25625 6.1104-1.6429 9.0315-2.7182 0.7957-0.29218 1.5567-0.56052 2.2836-0.80719 0.78489-0.26224 1.5274-0.50171 2.2345-0.71365 3.3464-1.0197 9.2449-2.8983 12.294 0.54648 1.4541 1.643 0.32805 4.838-0.62496 7.0406-0.0854 0.19743-0.20109 0.73339-0.13131 0.90762 0.22803 1e-3 0.49819-0.01 0.7188-0.0376 2.8516-0.35645 5.0584-0.95914 7.5914-1.4128 2.7341-0.47084 3.8011-0.28514 4.5301 0.13937 0.95922 0.55863 1.4549 1.6019 0.61925 3.3264-0.48195 0.99464-1.4234 2.5807-2.5233 3.7306-1.85 1.9342-4.5452 3.9908-7.9878 5.8432 0.0677 0.0359 0.13709 0.0719 0.20774 0.10852 0.57836 0.29637 1.2671 0.60687 2.0748 0.89245 1.3387 0.46582 2.7498 0.78207 4.2214 0.93535 2.0602 0.21074 4.3052 0.23325 6.3211-0.23255 1.5842-0.36164 3.1197-0.9291 4.5584-1.6883 1.052-0.55443 2.0487-1.2108 2.9755-1.9544 0.70709-0.5628 1.3729-1.1805 1.9932-1.8355 1.1118-1.1783 2.076-2.4928 2.8598-3.9129 0.46999-0.85377 0.87506-1.746 1.2097-2.6681 0.33469-0.92203 0.59834-1.8748 0.78394-2.8489 0.0748-0.39215 0.13737-0.78522 0.18707-1.1798 0.0497-0.39456 0.0871-0.79058 0.11162-1.1875 0.0432-0.68433 0.0483-1.3673 0.0165-2.0474-0.0324-0.67954-0.10087-1.3561-0.20567-2.0273-0.39514-2.5494-1.3151-5.0104-2.7084-7.2089-0.40114-0.63704-0.83726-1.2523-1.3084-1.8474-0.12872-0.16405-0.30595-0.49077-0.48317-0.59376-0.26523 0.61669-0.57123 1.2155-0.92088 1.789-0.87652 1.4453-1.9916 2.7001-3.2794 3.7346-1.0615 0.85137-2.2424 1.5469-3.4949 2.0702-0.7017 0.29218-1.425 0.5304-2.1632 0.71004-0.96692 0.23709-1.9588 0.37747-2.9569 0.40979-1.3675 0.0432-2.7413-0.11503-4.0638-0.46354-1.5638-0.41072-3.022-1.0824-4.3326-1.9601-0.60825-0.40882-1.1827-0.86312-1.7198-1.3575-2.3362-2.312-3.386-4.0973-4.3357-7.5769-1.0692 0.1164-1.8609-0.0672-2.4536-0.46062-1.4663-0.86185-1.6855-2.9783-2.3535-6.4574-0.83772-3.8085-2.7757-7.3363-4.1104-9.4366-0.65007-0.95998-1.327-1.8987-1.9795-2.701-0.27181-0.0934-0.54119-0.17957-0.80822-0.26458-0.28978-0.0887-0.58051-0.16918-0.8661-0.24702-2.0082-0.54019-3.9174-0.7871-5.75-0.78289zm-53.373 44.106h5.2e-4c-0.0251 0.1746-0.0317 0.2951-0.0305 0.42065l-5.2e-4 5.2e-4c-1e-3 -0.12573 5e-3 -0.24634 0.0305-0.42117z" fill="#004290"/>
<path d="m405.34 121.99c-0.18679-0.87054-1.141-1.0707-2.0846-1.0712-0.94357-5.3e-4 -1.9837 0.24361-2.5549 0.3514-2.1398 0.40952-4.6161 1.1103-6.4332 1.3007v5.3e-4c-0.5568 0.059-1.051 0.0701-1.4557 0.0109-1.5806-0.0905-1.5098-0.8324-1.0815-1.8333 0.86906-2.0553 2.2526-5.5138-0.0238-7.3118h4e-5c-0.0465-0.0347-0.0947-0.0684-0.14453-0.101-0.26103-0.17084-0.56695-0.31244-0.91587-0.42507-0.34187-0.10533-0.69296-0.17445-1.048-0.21756-0.35564-0.0432-0.7145-0.0599-1.0707-0.0599-1.8752-4e-3 -4.2246 0.46785-7.6092 1.5312-0.39695 0.12513-0.80555 0.25765-1.2252 0.39894-0.4197 0.14071-0.85136 0.29057-1.295 0.44804-0.44306 0.15805-0.8977 0.32378-1.3653 0.49919-0.46701 0.17483-0.9461 0.35851-1.4376 0.55191-1.2938 0.50771-2.6434 1.0728-4.024 1.511-1.3806 0.43825-2.7925 0.74982-4.0828 0.74833-1.2903-1e-3 -2.065-0.29636-2.6105-0.77773-0.0916-0.0839-0.16685-0.16167-0.24288-0.24908-0.0174-0.0276-0.0434-0.0562-0.0667-0.0873-0.048-0.0551-0.0997-0.12099-0.13746-0.18449-0.021-0.0347-0.0474-0.0681-0.0672-0.10284-0.0407-0.0646-0.0784-0.12844-0.11369-0.1943-0.027-0.0371-0.0385-0.0716-0.0594-0.1111-0.0353-0.0683-0.0687-0.13554-0.0992-0.20619-0.0174-0.0395-0.0282-0.0718-0.0481-0.10646-0.0282-0.0791-0.0629-0.15832-0.0899-0.23616-0.0149-0.0263-0.0235-0.0562-0.0331-0.0873-0.0305-0.0862-0.0659-0.18324-0.0941-0.27544-0.14668-0.35204-0.21581-0.76015-0.31161-1.1302-0.12752-0.50412-0.26592-0.98094-0.42219-1.4755-0.0131-0.0362-0.0219-0.0659-0.032-0.0898-0.0372-0.11612-0.0824-0.2359-0.13385-0.34726-0.0122-0.0324-0.0249-0.067-0.0429-0.0946-0.049-0.10901-0.0933-0.21192-0.14831-0.3173-9e-3 -0.019-0.0153-0.0332-0.0253-0.0475v-5.3e-4c-0.0431-0.0873-0.0899-0.17847-0.15451-0.2837-0.0287-0.0455-0.0608-0.0906-0.0884-0.13488v-5.3e-4c-7e-3 -9e-3 -0.0165-0.0202-0.0165-0.031-0.11073-0.15687-0.23407-0.30143-0.30753-0.38014-0.0735-0.0787-0.0781-0.0906-0.10386-0.11682l-3e-5 2e-5c-0.0324-0.0347-0.0708-0.078-0.11214-0.11627-0.0538-0.049-0.1071-0.0889-0.16278-0.14159-0.28019-0.24308-0.61786-0.45023-1.0118-0.61547-0.29577-0.1413-0.61786-0.22976-0.93638-0.29921-0.53109-0.11921-1.0742-0.17476-1.6185-0.18758l-9e-4 1.3e-4c-0.18143-4e-3 -0.36283-4e-3 -0.54415 5.3e-4 -0.24177 6e-3 -0.48302 0.0192-0.74396 0.0387-1.1424 0.0812-2.2613 0.24058-3.3702 0.45731-0.97711 0.1904-1.9486 0.42033-2.912 0.68316-0.96395 0.26283-1.9207 0.55775-2.8691 0.87747-0.94896 0.32031-1.8893 0.6651-2.8215 1.0273-0.93221 0.36223-1.8561 0.74203-2.7704 1.1312-0.78072 0.33288-1.5565 0.67757-2.3265 1.0356-0.77055 0.35803-1.5343 0.72795-2.2929 1.1105-1.5171 0.76456-3.0106 1.577-4.4757 2.435-1.4668 0.86094-2.9072 1.7698-4.3124 2.7296-1.4058 0.96035-2.7756 1.9716-4.1005 3.0386-0.26164 0.21253-0.52175 0.42628-0.7798 0.64182-0.25865 0.21554-0.51552 0.43279-0.76998 0.65371-0.89149 0.77354-1.7605 1.5769-2.5957 2.4092-0.25145 0.25087-0.49969 0.50494-0.74517 0.7612-0.24548 0.25564-0.48777 0.51507-0.72605 0.77669-0.53167 0.58316-1.0466 1.1803-1.5436 1.7921-0.49634 0.6125-0.97445 1.24-1.4325 1.8836-0.31132 0.43767-0.61222 0.87973-0.9002 1.3276-0.2886 0.44843-0.56442 0.90169-0.82786 1.3627-0.26283 0.461-0.51385 0.92902-0.75034 1.4056-0.23709 0.47658-0.45974 0.96162-0.66869 1.4568 0.88071-0.17182 1.7562-0.38376 2.619-0.6382 0.86335-0.25506 1.714-0.55279 2.5451-0.89555 0.83101-0.34277 1.6433-0.73047 2.4288-1.1663 0.78551-0.43587 1.545-0.92004 2.2707-1.4547 1.0136-0.7496 1.9239-1.6026 2.7544-2.5306 0.82982-0.92741 1.5787-1.9292 2.2696-2.9776 0.43107-0.57596 0.86899-1.1306 1.3198-1.6407 1.1124-1.2669 2.296-2.262 3.5946-2.6009 1.2741-0.33408 2.6626-0.0396 4.2127 1.2428 0.15147 0.1425 0.30575 0.27656 0.4656 0.41186 0.26225 0.2371 0.53747 0.45784 0.81288 0.67696 0.75497 0.6041 1.5391 1.1724 2.3497 1.7022 0.40593 0.26523 0.81803 0.52036 1.2371 0.76584 0.4185 0.24547 0.84318 0.48174 1.2749 0.70745 1.4058 0.73642 2.8788 1.3638 4.4049 1.8728 2.4589 0.81664 5.0195 1.3015 7.6042 1.4655 0.72385 0.0455 1.381 0.0689 1.9947 0.0713 0.61369 3e-3 1.184-0.0138 1.7343-0.0491s1.0808-0.0886 1.6149-0.15865c0.53406-0.0694 1.0716-0.15534 1.6356-0.25528 0.71247-0.12573 1.4164-0.27665 2.1115-0.45268 0.69512-0.17602 1.3808-0.37691 2.0562-0.60203 0.72086-0.23829 1.431-0.50373 2.1286-0.7953 0.6975-0.29099 1.383-0.60839 2.0541-0.95085 0.67116-0.34187 1.329-0.70872 1.9715-1.0997 0.64302-0.39097 1.2707-0.80525 1.8826-1.2423 0.28559-0.20477 0.56763-0.41412 0.84543-0.62786 0.2784-0.21375 0.55311-0.43254 0.82372-0.65526 0.54185-0.44664 1.0694-0.9109 1.5813-1.3953 0.11346-0.0906 0.22136-0.18827 0.32505-0.29145 0.015-0.0149 0.0286-0.0319 0.0434-0.047 0.11186-0.0995 0.22338-0.19679 0.33642-0.29042 0.23649-0.19638 0.47751-0.37877 0.72657-0.5488 0.24907-0.16945 0.50695-0.32649 0.77876-0.47077 0.27241-0.1437 0.55861-0.27472 0.86455-0.39326 0.279-0.10656 0.57889-0.18412 0.89142-0.23203 0.31254-0.0479 0.63879-0.0655 0.97048-0.0553 0.33169 0.01 0.66967 0.0487 1.0061 0.11575 0.33708 0.0671 0.67201 0.16252 0.99891 0.28526 0.44245 0.16644 0.87084 0.38366 1.2666 0.65009 0.39516 0.26643 0.75733 0.58138 1.0687 0.94361 0.35024 0.40832 0.65907 0.87544 0.91053 1.3999 0.66339 1.1902 1.4512 2.3014 2.3487 3.3192 0.3706 0.41971 0.75981 0.82246 1.1663 1.2092 0.40653 0.38617 0.83016 0.7559 1.2702 1.1079 0.18022 0.13531 0.35748 0.27028 0.56224 0.42116 0.3772 0.29816 0.97009 0.53326 1.3958 0.74879 2.4014-1.199 5.6645-3.38 7.7926-5.6327 1.9404-2.054 3.3438-4.4838 3.1013-5.9072z" fill="#338d31"/>
<path d="m376.89 81.89c0.17531 0.043 0.35028 0.0852 0.5271 0.13281 0.28559 0.0779 0.57632 0.15831 0.8661 0.24701 0.26565 0.0846 0.5337 0.17019 0.80408 0.26304m-7.3611-1.2918c-0.0198 0-0.0402-1e-3 -0.0599-1e-3l1e-3 -5.3e-4c-0.93667 2e-3 -1.8536 0.07095-2.7533 0.19895-5e-3 2.1e-4 -0.0126 4.8e-4 -0.0176 1e-3 -0.0194 3e-3 -0.0385 8e-3 -0.0579 0.01-0.18143 0.0265-0.36148 0.058-0.54157 0.0894-0.18965 0.03298-0.37864 0.06868-0.56689 0.10698-0.07 0.0143-0.14104 0.0249-0.21084 0.0398-0.0678 0.0146-0.13446 0.0323-0.20206 0.0475-0.12676 0.0286-0.25318 0.0585-0.3793 0.0894-0.16682 0.04075-0.33249 0.08365-0.49764 0.12815-0.0949 0.0257-0.18973 0.0514-0.28423 0.0785-0.082 0.0233-0.16551 0.0439-0.24701 0.0682-5.8382 1.7341-10.773 5.7652-15.275 9.7596-0.1984 0.17602-0.40116 0.35193-0.59789 0.52761-0.25168 0.22492-0.50524 0.45593-0.7581 0.6842-0.0767 0.06912-0.15367 0.13834-0.23047 0.20774-0.37439 0.33886-0.75104 0.68066-1.1286 1.0258-0.14795 0.13514-0.29798 0.27224-0.44648 0.40825-1.0365 0.9498-2.0873 1.9185-3.1574 2.8975-0.11812 0.10802-0.23748 0.21626-0.35605 0.32453-0.33768 0.30823-0.67769 0.61759-1.0196 0.92708-0.20303 0.18375-0.4077 0.36784-0.61236 0.5519-0.2936 0.2641-0.58917 0.52792-0.88625 0.7922-0.25572 0.22732-0.51353 0.45438-0.77205 0.68161-0.22453 0.19753-0.45027 0.39498-0.67696 0.59221-0.30873 0.26843-0.61981 0.53651-0.93276 0.80409-0.27083 0.23168-0.54233 0.46332-0.81649 0.69401-0.16332 0.1377-0.32631 0.27566-0.49092 0.4129-0.37474 0.3117-0.75096 0.62136-1.1302 0.92811-0.0103 8e-3 -0.0205 0.0163-0.0305 0.0253-2e-3 2e-3 -5e-3 3e-3 -7e-3 6e-3 -1.3239 1.0699-2.6758 2.1082-4.0576 3.1042-1.6848 1.213-3.4132 2.3628-5.1914 3.4298-1.5094 0.90765-3.0557 1.754-4.6369 2.5347-0.62111 0.30509-1.2489 0.59882-1.882 0.88263-0.0505 0.0225-0.1003 0.0459-0.1509 0.0682-0.12063 0.0537-0.24226 0.10523-0.36328 0.15813-0.61818 0.26777-1.2435 0.52758-1.88 0.77618-2.4452 0.95436-4.9095 1.7138-7.3463 2.2443-0.60579 0.13189-1.2097 0.24908-1.8107 0.35243-2e-3 2.1e-4 -4e-3 7.4e-4 -6e-3 1e-3 -0.0393 6e-3 -0.0789 0.0126-0.11833 0.0186-0.22929 0.0384-0.45841 0.0753-0.68679 0.10956-0.27999 0.0414-0.56046 0.0799-0.84129 0.11524-0.77209 0.099-1.552 0.17337-2.3358 0.22117-0.0241 1e-3 -0.0476 4e-3 -0.0718 5e-3 -1.1825 0.0692-2.3734 0.077-3.5584 0.0103-0.59845-0.0337-1.1953-0.0864-1.789-0.15916-0.56322-0.0691-1.1232-0.15715-1.679-0.26407-0.0508-0.01-0.10142-0.02-0.15192-0.03-0.23448-0.0464-0.46802-0.0973-0.70074-0.1509-0.077-0.0179-0.15387-0.0362-0.23047-0.0548-0.21967-0.0531-0.43846-0.10877-0.65629-0.16847-0.0514-0.0142-0.10322-0.0279-0.15452-0.0424-0.26834-0.0757-0.53535-0.15565-0.80047-0.24185-0.0234-8e-3 -0.0469-0.0168-0.0703-0.0238-0.23248-0.0765-0.4633-0.15766-0.69299-0.24236-0.0811-0.03-0.16124-0.0611-0.24184-0.092-0.17972-0.069-0.35858-0.14068-0.5364-0.21498-0.0813-0.0341-0.1627-0.0683-0.2434-0.10335-0.23389-0.10142-0.46641-0.20632-0.6966-0.3173-0.01-5e-3 -0.02-9e-3 -0.03-0.0139-0.0292-0.0141-0.0577-0.0296-0.0868-0.0439-0.20497-0.10052-0.40801-0.2054-0.60978-0.31367-0.10087-0.0542-0.20044-0.1104-0.30024-0.1664-0.13411-0.0752-0.26742-0.15271-0.39997-0.23151-0.1071-0.0637-0.21458-0.12727-0.3204-0.19327-0.10268-0.0642-0.20384-0.13017-0.30489-0.19637-0.0797-0.052-0.15985-0.10286-0.23875-0.15606-2.6264-1.7839-4.6863-4.2424-6.1309-7.0538-0.0315-0.0618-0.0619-0.12466-0.093-0.18706-0.0779-0.15538-0.15525-0.31129-0.22945-0.46871-0.11132-0.23757-0.22041-0.47757-0.32556-0.72347 0.25445-0.61189 0.53318-1.2104 0.83613-1.7947 0.15147-0.29158 0.30843-0.58017 0.47129-0.86455 0.16284-0.2844 0.33159-0.56573 0.50642-0.84232 0.2353-0.37482 0.48264-0.74251 0.73949-1.1018 0.49574-0.69571 0.89572-1.2307 1.3286-1.7343 0.43287-0.50292 0.89925-0.97513 1.5291-1.5451 0.42209-0.38258 0.97907-0.87158 1.5544-1.3488 0.63045-0.52387 1.2831-1.0344 1.8045-1.3792 0.30834-0.20117 0.62026-0.39871 0.93638-0.58911 0.12094-0.07184 0.24218-0.14239 0.36431-0.21239 0.12214-0.07004 0.24513-0.13901 0.36846-0.20671 0.12274-0.06766 0.24641-0.13418 0.37155-0.19998 0.0623-0.0323 0.12477-0.0648 0.18707-0.0966 0.0629-0.0322 0.12572-0.0643 0.18862-0.0961 0.0718-0.03826 0.14369-0.07056 0.21549-0.10646 0.86395-0.42328 1.756-0.79441 2.6732-1.1105 0.91722-0.31613 1.8584-0.57751 2.8205-0.77929 2.032-0.42626 4.1549-0.58486 6.3288-0.44596 1.4291 0.0874 2.8212 0.30254 4.1636 0.63303 0.46042 0.11379 0.91574 0.24171 1.3648 0.38241 0.44905 0.1401 0.89206 0.29356 1.3291 0.4594 0.87352 0.33229 1.7211 0.71509 2.5383 1.1426 0-0.01316 0.18709 0.08133 0.27699 0.15193h5.3e-4c0.15015 0.07657 0.29942 0.16038 0.44597 0.24288 0.44724 0.25266 0.88221 0.51853 1.3043 0.79633 0.85798 0.43527 1.6377 0.70415 2.3394 0.81132 0.70169 0.10717 1.3254 0.05214 1.8733-0.15865 1.0118-0.38797 1.7652-1.3113 2.2567-2.7326 0.0725-0.25624 0.15543-0.52093 0.23203-0.77359 0.0131-0.06114 0.0332-0.11615 0.0455-0.17725 0.36703-1.1651 0.79988-2.2989 1.295-3.3988 1.5561-3.4588 3.7216-6.5728 6.35-9.2113 1.2214-1.2214 2.5388-2.3398 3.9439-3.3445 1.8171-1.3016 3.7764-2.4104 5.8498-3.3001 2e-4 0 5.5e-4 1.94e-4 6e-4 0 2.0942-0.89922 4.3011-1.5737 6.3812-1.9549 2.08-0.3812 3.9811-0.55183 5.8822-0.54883 1.1406 0.0017 2.2813 0.06555 3.4158 0.19172 1.6794 0.18322 3.3153 0.50175 4.8989 0.94362 0.71128 0.19757 1.413 0.42004 2.1025 0.66581 0.68893 0.2452 1.3672 0.51438 2.0312 0.80535 1.2489 0.54843 2.4524 1.1726 3.6086 1.8743 1e-5 0 3e-5 1e-5 3e-5 0 0.93189 0.56499 1.829 1.177 2.6944 1.833-8e-5 -2.1e-4 1e-4 -8.8e-4 0-1e-3 1.2942 0.98463 2.5297 2.0865 3.7 3.3042 0.14002 0.1466 0.27845 0.29432 0.39282 0.4199 0.20607 0.22438 0.50833 0.56954 0.50833 0.56954 0.10727 0.12173 0.56602 0.58872 0.67136 0.7128l0.0851 0.09415-0.0519 0.02809m-4.0714-1.024c0.55815 0.0893 1.1233 0.20006 1.6971 0.33641l0.17714 0.04471m-1.8742-0.38112-0.46607-0.0708c-0.5041-0.06948-1.0026-0.12088-1.495-0.15348l-1.3286-0.04352" fill="#00acda"/>
<path d="m402.94 97.811c-1.3842 0.0086-2.768 0.16826-4.1191 0.47542-1.747 0.39875-3.406 1.0404-4.9387 1.8846-1.5091 0.81053-2.8145 1.2787-3.8897 1.4201 0.93231 3.416 1.9643 5.2001 4.2121 7.4518 0.13721 0.12966 0.27373 0.26032 0.41597 0.38447 6e-3 6e-3 0.0124 0.0111 0.0186 0.0165 0.20405 0.17747 0.41309 0.34886 0.62682 0.5147 0.0194 0.0151 0.0394 0.0295 0.0589 0.0444 0.20108 0.15421 0.40634 0.30336 0.61544 0.447 0.0146 0.01 0.0288 0.0205 0.0434 0.0305 0.20625 0.14055 0.41704 0.27462 0.63098 0.40462 0.0741 0.0448 0.14933 0.0877 0.22426 0.13126 0.14047 0.0819 0.28284 0.16108 0.42633 0.23823 0.084 0.0451 0.16771 0.0909 0.2527 0.13436 0.20537 0.10512 0.41323 0.20595 0.62426 0.30127 0.072 0.0326 0.14544 0.0626 0.21807 0.094 0.16266 0.0702 0.3267 0.13776 0.49247 0.20206 0.0814 0.0316 0.16285 0.0633 0.24495 0.0935 0.23397 0.0858 0.46942 0.16807 0.709 0.24184 9e-4 2.8e-4 2e-3 7.6e-4 3e-3 1e-3 0.18873 0.0582 0.37902 0.11236 0.57103 0.16278 1.3226 0.34851 2.6964 0.50674 4.0638 0.46354 0.99809-0.0323 1.99-0.1727 2.9569-0.40979 0.73824-0.17964 1.4615-0.41786 2.1632-0.71004 1.2525-0.52327 2.4334-1.2188 3.4949-2.0702 1.2878-1.0346 2.4029-2.2894 3.2794-3.7347 0.34965-0.57356 0.65564-1.1724 0.92088-1.789 0.0194 0.0113 0.0386 0.0263 0.0579 0.0424-0.18793-0.20447-0.49946-0.50711-0.86765-0.84749-0.82981-0.76696-1.9318-1.7103-2.4665-2.0665-0.35144-0.2341-0.75059-0.48496-1.1829-0.74001-0.5179-0.30534-1.0827-0.61684-1.6676-0.91261-0.58854-0.29757-1.1966-0.58005-1.7983-0.82372-1.5878-0.63824-3.3023-0.92201-5.0111-1.0346-0.4604-0.03084-0.92197-0.04472-1.3834-0.04186z" fill="url(#e)"/>
<path transform="matrix(.26458 0 0 .26458 188.32 26.637)" d="m283.03 306.78c-3.779-0.0903-7.5651 0.25433-11.256 1.0371-3.7247 0.78296-7.29 1.9857-10.65 3.5742-3.8355 1.7967-7.4045 4.1009-10.613 6.8027-1.0771 0.90062-2.1176 1.8604-3.1133 2.8516-0.87576 0.87349-1.7179 1.7917-2.5234 2.7285-0.88932 1.0318-1.7328 2.0996-2.5293 3.2129-1.2061 1.6519-2.3018 3.3902-3.293 5.2051-1.222 2.2312-2.269 4.5761-3.1289 7.002-0.43899 1.231-0.82853 2.4874-1.168 3.7637-0.3394 1.2763-0.62961 2.5723-0.86719 3.8848-0.39379 2.1815-0.64266 4.413-0.72656 6.6894-0.11996 2.9372 0.0335 5.8639 0.44531 8.7559v2e-3c0.2444 1.7146 0.57665 3.4083 1.002 5.0957 0.65832 2.5836 1.5149 5.1035 2.4516 7.2585 0.93664 2.155 1.8675 3.9777 2.9039 5.7337 0.92327 1.5659 1.9412 3.0778 3.041 4.5352 1.3418 1.7786 2.8085 3.4752 4.3926 5.0547 0.51364 0.51367 1.0382 1.0151 1.5723 1.5039 0.53405 0.4865 1.0804 0.95997 1.6348 1.4238 1.6542 1.3804 3.3945 2.6444 5.207 3.7871 1.8126 1.1427 3.6968 2.1622 5.6406 3.0606 3.3943 1.5704 6.967 2.7397 10.59 3.4864 3.6228 0.74674 7.2908 1.0982 10.988 1.0077 1.9484-0.0473 3.8725-0.20731 5.7598-0.47656 1.8873-0.26684 3.7405-0.64531 5.5508-1.125 3.0866-0.81015 6.0564-1.9197 8.8691-3.291 1.6722-0.81917 3.2911-1.7243 4.8457-2.7109 1.7944-1.1405 3.5009-2.3923 5.1211-3.75 0.54762-0.46159 1.086-0.93729 1.6133-1.4238 0.52951-0.48653 1.0478-0.98168 1.5547-1.4863 0.79427-0.792 1.5559-1.611 2.2891-2.4551 0.73319-0.84405 1.4357-1.7139 2.1055-2.6055 1.0975-1.4574 2.1126-2.9647 3.0449-4.5352 1.0364-1.756 1.9633-3.5787 2.8979-5.734 0.93456-2.1553 1.7916-4.676 2.4478-7.2602 0.423-1.6874 0.75877-3.3791 1.0078-5.0938v-2e-3c0.40712-2.8913 0.55872-5.8238 0.44336-8.7559-0.093-2.2764-0.33636-4.508-0.73242-6.6894-0.46613-2.6294-1.1536-5.1858-2.0293-7.6524-0.85992-2.4258-1.9073-4.7656-3.127-7.0059-0.2468-0.45229-0.5015-0.90213-0.76172-1.3457-0.26003-0.44349-0.52891-0.88195-0.80273-1.3164-0.27591-0.43423-0.55636-0.86168-0.84375-1.2871-0.28725-0.42543-0.58185-0.84537-0.88282-1.2617-0.79876-1.1134-1.6358-2.1758-2.5273-3.2031-0.81237-0.93683-1.6558-1.8557-2.5293-2.7246-1.0137-1.0183-2.0744-1.9915-3.1719-2.9102-1.6202-1.3578-3.3228-2.6075-5.1172-3.748-1.5546-0.99564-3.178-1.9002-4.8457-2.7148-2.8173-1.3758-5.7826-2.4797-8.8691-3.2988-3.6206-0.95044-7.4139-1.5077-11.311-1.5938z" fill="#e89500"/>
<path d="m301.62 93.243c-8.7934 0.37636-18.707 11.406-14.144 17.578 2.3709 3.2067 5.6944-2.9275 9.6628-7.7886 4.3671-5.3494 14.76-10.209 4.481-9.7894z" fill="url(#d)" filter="url(#h)"/>
</g>
<g transform="matrix(.35278 0 0 -.35278 12.612 475.23)">
<g transform="matrix(4.6338 0 0 4.6338 354.57 605.04)">
<g transform="translate(0 -.040464)" clip-path="url(#i)">
<path d="m82.458 61.195h3.688v-0.911h-3.688zm-0.857-1.914h5.643v3.919h-1.146v-0.996h-3.64v0.951h-1.194l-5e-3 -3.529c0-0.345 0.342-0.345 0.342-0.345" fill="#7b797a"/>
<g transform="translate(80.697 57.517)">
<path d="m0 0h3.054v-1.822h1.197v1.822h2.906v1.015h-7.157z" fill="#7b797a"/>
</g>
<g transform="translate(95.735 63.233)">
<path d="m0 0h-1.256v-6.296h-3.483v1.641h-1.237v-2.04c0.033-0.55 0.388-0.602 0.388-0.602l5.588-6e-3v4.886h0.956v0.991h-0.956z" fill="#7b797a"/>
</g>
<g transform="translate(93.033 59.33)">
<path d="m0 0 0.917 0.679-2.377 3.059c-0.182 0.296-0.416 0.032-0.416 0.032l-2.441-3.057 0.911-0.696 1.73 2.056z" fill="#7b797a"/>
</g>
<g transform="translate(101.54,56.335)">
<path d="m0 0c-0.784 0-1.42 0.6-1.42 1.342 0 0.573 0.387 1.062 0.923 1.252h0.992c0.543-0.19 0.928-0.679 0.928-1.252 0-0.742-0.635-1.342-1.423-1.342m2.81 6.885h-1.199v-3.22h-0.832l0.013 2.626c-0.013 0.36-0.411 0.325-0.411 0.325l-4.019 0.02v-1.002h3.225v-1.969h-1.164v1.526h-1.212v-1.526h-1.201v-1.071h1.85c-0.266-0.361-0.422-0.79-0.422-1.252 0-1.267 1.148-2.293 2.562-2.293 1.417 0 2.563 1.026 2.563 2.293 0 0.462-0.158 0.891-0.421 1.252h0.668v1.836h0.959v1.024h-0.959z" fill="#7b797a"/>
</g>
<g transform="translate(112.24 61.142)">
<path d="m0 0h-1.476c5e-3 0.063 0.011 0.122 0.011 0.188 0 0.07-6e-3 0.144-0.014 0.208h1.479zm-3.773-0.896c-0.636 0-1.15 0.486-1.15 1.084 0 0.6 0.514 1.086 1.15 1.086 0.638 0 1.154-0.486 1.154-1.086 0-0.598-0.516-1.084-1.154-1.084m3.773 2.375h-1.971c-0.425 0.47-1.073 0.773-1.802 0.773-1.269 0-2.304-0.923-2.304-2.064 0-1.136 1.035-2.059 2.304-2.059 0.736 0 1.391 0.31 1.815 0.787h1.958v-1.196h-4.826v-1.027h4.826v-1.995h1.189v7.367h-1.189z" fill="#7b797a"/>
</g>
<path d="m120.24 55.887h1.279v7.396h-1.279z" fill="#7b797a"/>
<g transform="translate(116.83 63.167)">
<path d="m 0,0 -2.538,-3.64 0.953,-0.673 1.727,2.672 1.814,-2.672 0.922,0.659 -2.514,3.636 C 0.168,0.216 0,0 0,0" fill="#7b797a"/>
</g>
<g transform="translate(167.73 60.233)">
<path d="m0 0h-3.299c0.369 0.626 0.82 1.718 1.194 3.109 0.535 1.75 0.676 3.124 0.703 3.907 0.029 0.39 0.019 0.609 6e-3 0.709-1e-3 5e-3 -1e-3 0.011-3e-3 0.017-4e-3 0.037-9e-3 0.053-9e-3 0.053l-1e-3 -3e-3c-0.066 0.361-0.302 0.647-0.731 0.647h-14.352v-1.876h11.248c0.019-2.832-0.217-5.367-0.368-6.563h-13.002v-1.864h8.161v-8.57c0-0.414 0.152-0.554 0.536-0.554h1.307c0.858 0 1.503 0.922 1.503 1.865v7.259h7.107c1.286 0 1.286 1.864 0 1.864" fill="#7b797a"/>
</g>
<g transform="translate(139.64 52.331)">
<path d="m0 0c0-0.425-0.339-0.716-0.758-0.716h-4.193c-0.46 0-0.757 0.232-0.757 0.716v3.159h5.708zm2.78 4.846h-11.693v-5.813c0-0.972 0.761-1.413 1.482-1.413h9.156c0.847 0 1.454 0.441 1.479 1.391v5.409c0 0.322-0.112 0.426-0.424 0.426m3.157 7.962-2.315-0.171v3.661c0 0.085 0.023 0.358-0.418 0.422h-2.741v-6.867c-0.812-0.71-1.95-0.894-3.339-0.94h-4.762c-0.363 0.041-0.586 0.226-0.616 0.858v5.306c0 0.016 0.038 0.354-0.404 0.418l-2.843-5e-3v-6.627c0-0.545 0.085-1.66 1.854-1.645h5.011c1.497 0 4.087 0.027 5.099 0.994v-2.023c0-0.374 0.147-0.502 0.524-0.502h1.162c0.838 0 1.473 0.841 1.473 1.703v3.455h2.315c0.885 0 0.866 2.018 0 1.963" fill="#7b797a"/>
</g>
</g>
</g>
</g>
<path d="m353.99 72.815c-21.613 2.1631-28.181 23.361-27.389 23.971 1.8548 1.4289 7.3756-8.3159 16.992-15.005 4.6403-3.2277 13.373-5.2188 14.411-7.2062 0.57088-1.093-0.58349-1.8999-4.0139-1.76z" fill="url(#c)" filter="url(#g)"/>
<path d="m319.49 135.88c5.8077-8.5518 22.233-21.883 38.297-22.237 7.0291-0.15515 3.6956 7.5552 10.595 7.7613 10.22 0.30523 19.695-9.0456 23.447-5.2936 1.6943 1.6943-1.8723 7.5891 0.56504 8.5633 3.2631 1.3042 11.024-2.3082 12.028-0.56787 1.499 2.5964-6.3407 6.9858-7.4572 7.4427-4.7322 1.9364-4.5713-6.8748-10.551-9.2575-4.0415-1.6102-7.4108 1.2808-8.3254 2.1953-2.5612 2.5612-8.4764 8.3824-19.377 8.3824-14.9 0-19.993-11.701-25.598-8.4655-1.8834 1.0874-4.4977 4.177-8.0464 7.7257-2.406 2.406-6.6686 5.3587-5.5769 3.7512z" fill="#43a936" filter="url(#f)"/>
</g>
<style type="text/css">.st0{fill-rule:evenodd;clip-rule:evenodd;fill:#009A53;}
	.st1{fill-rule:evenodd;clip-rule:evenodd;fill:#E8380D;}
	.st2{fill-rule:evenodd;clip-rule:evenodd;fill:#0062B1;}
	.st3{fill:#909090;}</style>
<style type="text/css">.st0{fill:#009944;}
	.st1{fill:#004EA2;}
	.st2{fill:none;}
	.st3{fill:#E60012;}</style>
<style type="text/css">.st0{fill:#00559D;}
	.st1{fill:#90B1DD;}</style>
<style type="text/css">.st0{fill:#F18D00;}
	.st1{fill:#22AC38;}
	.st2{fill:#00479D;}</style>
<style type="text/css">.st0{fill-rule:evenodd;clip-rule:evenodd;fill:#009944;}
	.st1{fill-rule:evenodd;clip-rule:evenodd;fill:#E60012;}
	.st2{fill-rule:evenodd;clip-rule:evenodd;fill:#004098;}</style>
<style type="text/css">.st0{clip-path:url(#a);fill:#727171;}
	.st1{clip-path:url(#a);fill:#C9CACA;}
	.st2{clip-path:url(#a);fill:none;stroke:#727171;stroke-width:0.5;stroke-miterlimit:10;}
	.st3{clip-path:url(#a);}
	.st4{fill:#45B035;}
	.st5{fill:#FFFFFF;}
	.st6{fill:#9FA0A0;}
	.st7{fill:#005BAC;}
	.st8{fill:#EA5520;}
	.st9{fill:#727171;}
	.st10{fill:none;stroke:#000000;stroke-width:0.16;}</style>
<style type="text/css">.st0{fill:#8FC31F;}
	.st1{fill:none;}
	.st2{fill:#92BF1E;}
	.st3{fill:#0075C2;}
	.st4{fill:#9FA0A0;}
	.st5{fill:#F6AB00;}
	.st6{fill:#71756F;}</style>
<style type="text/css">.st0{fill:#009342;}
	.st1{fill:#0052A5;}
	.st2{fill:#E8381B;}
	.st3{fill:#5B5C57;}</style>
<style type="text/css">.st0{fill:#295CAA;}
	.st1{fill:#F04E4C;}
	.st2{fill:#626466;}</style>
<style type="text/css">.st0{fill:none;}
	.st1{fill:#C70025;}
	.st2{fill:#003686;}</style>
<style type="text/css">.st0{fill:#2E3192;}
	.st1{fill:#FAA61A;}
	.st2{fill:#FFFFFF;}</style>
<style type="text/css">.st0{fill:#FFFFFF;}
	.st1{fill:#E60012;}
	.st2{fill:#1D2088;}</style>
<style type="text/css">.st0{fill:none;stroke:#000000;stroke-width:0.1;}
	.st1{fill:#9FAFD6;}
	.st2{fill:#F5B2B2;}
	.st3{fill:none;stroke:#000000;stroke-width:0.25;stroke-linecap:round;stroke-linejoin:round;}
	.st4{fill:none;stroke:#9FA0A0;stroke-width:0.3;}
	.st5{fill:#0C3388;}
	.st6{fill:none;stroke:#000000;stroke-width:0.5;stroke-linecap:round;stroke-linejoin:round;}</style>
<style type="text/css">.st0{fill:#0C3388;}</style>
<style type="text/css">.st0{fill:#FFFFFF;}
	.st1{fill:#E60012;}
	.st2{fill:#1D2088;}</style>
<style type="text/css">.st0{display:none;}
	.st1{display:inline;fill:none;stroke:#000000;}
	.st2{display:inline;}
	.st3{fill:none;stroke:#000000;}
	.st4{fill:#890C84;}
	.st5{fill:#00A242;}</style>
<style type="text/css">.st0{fill:#009B6B;}
	.st1{fill:#4D4586;}
	.st2{fill:#C8161D;}</style>
<style type="text/css">.st0{fill:url(#b);}
	.st1{fill:#005BAC;}
	.st2{fill:#686D71;}</style>
<style type="text/css">.st0{fill:#767575;}</style>
</svg>
