<?xml version="1.0" encoding="UTF-8"?>
<svg width="300mm" height="200mm" version="1.1" viewBox="0 0 300 200" xmlns="http://www.w3.org/2000/svg" xmlns:cc="http://creativecommons.org/ns#" xmlns:dc="http://purl.org/dc/elements/1.1/" xmlns:rdf="http://www.w3.org/1999/02/22-rdf-syntax-ns#" xmlns:xlink="http://www.w3.org/1999/xlink">
<style/>
<defs>
<clipPath>
<path d="M 0,841.89 H 595.276 V 0 H 0 Z"/>
</clipPath>
</defs>
<metadata>
<rdf:RDF>
<cc:Work rdf:about="">
<dc:format>image/svg+xml</dc:format>
<dc:type rdf:resource="http://purl.org/dc/dcmitype/StillImage"/>
<dc:title/>
</cc:Work>
</rdf:RDF>
</metadata>
<g transform="translate(-188.32 -26.637)">
<path d="m488.32 226.64h-300v-200h300z" fill="#fff"/>
<g transform="matrix(.35278 0 0 .35278 278.64 50.009)" fill-rule="evenodd"></g>
<g transform="matrix(.83007 0 0 -.83007 92.823 475.75)"></g>
<g transform="matrix(.35278 0 0 .35278 509.31 -283.65)" fill-rule="evenodd"></g>
<g transform="translate(0 -.54465)">
<g transform="matrix(.35278 0 0 .35278 552.61 -136.01)" fill-rule="evenodd">
<g transform="matrix(3.0173 0 0 3.0173 -1357.4 -1886.3)"></g>
</g>
</g>
<g transform="matrix(.72708 0 0 .72708 129.4 -726.31)" fill-rule="evenodd">
<g>
<path d="m378.62 1195.6c-6.439-7.8-17.091-11.5-26.524-9.84-0.166 0.03-1.38 0.24-1.38 0.24-1.974 0.34-4.052 0.65-6.228 0.91-1.187 0.2-1.863 0.22-1.863 0.22-15.012 1.67-34.307 1.72-55.203-0.24-35.68-3.35-65.669-11.58-77.261-20.33-2.634-1.52-4.094-3.1-4.384-4.72-0.576-1.11-0.83-2.21-0.728-3.3 0.057-0.62 0.237-1.23 0.522-1.82-7.807 3.47-14.613 7.31-20.032 11.54-33.648 26.28-5.093 72.7 146.02 107.39 0.403 0.09 0.821 0.18 1.227 0.28 0.427 0.06 0.866 0.1 1.308 0.1 4.518 0 8.209-3.5 8.526-7.94v-67.24c2e-3 -0.07 4e-3 -0.13 4e-3 -0.21 0-6.8 3.432-7.59 5.322-7.84 0.057-0.01 0.157-0.01 0.217-0.02 3.566 0.09 6.532 0.43 10.511 1.77 21.226 7.95 21.356 24.88 21.356 24.88-5.17-22.04-25.789-23.18-25.789-23.18-1.617 20.55 9.34 16.84 18.027 23.53 4.094 3.16 5.285 8.82 6.119 11.91 8.624-10.24 9.017-25.45 0.228-36.09z" fill="#0072bc"/>
<path d="m236.08 1145.8c15.011-1.67 34.293-1.72 55.188 0.25 46.554 4.37 83.429 17.05 82.369 28.34-0.083 0.89-0.403 1.75-0.942 2.57 7.596-3.4 14.219-7.17 19.526-11.31 33.715-26.34 2.883-67.75-147.05-95.25-0.446-0.08-0.899-0.16-1.348-0.25-0.242-0.02-0.489-0.04-0.733-0.04-4.173 0-7.6 3.21-7.953 7.3v1.4l-8e-3 54.46c-1.219 9.48-8.665 8.76-8.665 8.76-11.503 0-19.198-5.3-23.788-10.06-1.534-2.27-2.182-3.88-2.182-3.88 8.588-2.87 17.039-17.83 17.039-17.83 7.122-11.85 11.244-10.78 11.244-10.78-12.545-4.17-22.306 1.09-22.306 1.09-1.636 0.65-3.683 2.06-5.795 3.76-5.593 4.47-11.636 10.99-11.636 10.99-3.01 2.78-4.744 3.16-6.855 3.05-2.082-0.11-3.625-0.85-3.625-0.85-0.478-0.25-0.928-0.46-1.349-0.63-6.38-2.63-7.118 2.81-7.118 2.81s1.793-1.51 3.683 2.77c2.005 4.16 3.743 6.98 5.13 8.86 2.176 2.99 3.466 3.66 3.466 3.66 2.526 2.47 5.344 4.42 8.329 5.72 0 0 16.881 7.83 45.375 5.09z" fill="#12b485"/>
</g>
<g fill="#fff">
<path d="m209.84 1200.2c-1.31 1.23-1.971 2.74-1.971 4.49 0 1.76 0.661 3.28 1.971 4.54 1.303 1.25 2.911 1.89 4.779 1.89 1.81 0 3.379-0.64 4.666-1.89 1.323-1.28 1.999-2.8 1.999-4.54 0-1.75-0.676-3.26-1.992-4.49-1.294-1.24-2.863-1.87-4.673-1.87-1.868 0-3.476 0.63-4.779 1.87zm1.553 4.49c0-0.88 0.312-1.61 0.926-2.18 0.616-0.56 1.386-0.85 2.3-0.85 0.873 0 1.627 0.29 2.24 0.85 0.636 0.57 0.959 1.3 0.959 2.18 0 0.85-0.32 1.57-0.959 2.17-0.607 0.58-1.362 0.88-2.24 0.88-0.914 0-1.69-0.3-2.303-0.89-0.611-0.59-0.923-1.31-0.923-2.16zm17.37-5.82v16.61h-21.673v3.27h21.673v3.36h3.69v-23.24h-3.69z"/>
<path d="m262.95 1198.8v3.24h-3.752v3.26h3.752v4.67h3.687v-11.17h-3.687zm-21.69 0v3.27h4.185s-3.877 5.12-4.291 5.66c0.533 0.25 2.792 1.27 3.199 1.46 0.306-0.43 4.426-6.34 4.426-6.34s4.082 5.92 4.373 6.35c0.404-0.18 2.774-1.13 3.323-1.37-0.41-0.56-4.21-5.76-4.21-5.76h4.057v-3.27h-15.062zm12.447 14.16c-1.225 1.21-1.85 2.68-1.85 4.39 0 1.69 0.625 3.16 1.85 4.35 1.248 1.2 2.792 1.8 4.577 1.8 1.769 0 3.302-0.6 4.55-1.8 1.264-1.2 1.907-2.66 1.907-4.35 0-1.7-0.643-3.18-1.91-4.39-1.245-1.19-2.778-1.8-4.547-1.8-1.771 0-3.307 0.61-4.577 1.8zm2.542 6.34-3e-3 -0.01c-0.556-0.55-0.836-1.2-0.836-1.94 0-0.77 0.284-1.43 0.839-1.96 0.555-0.54 1.238-0.8 2.035-0.8 0.78 0 1.455 0.26 2.01 0.8 0.555 0.53 0.836 1.19 0.836 1.96 0 0.74-0.281 1.39-0.834 1.94-0.557 0.53-1.232 0.81-2.012 0.81-0.797 0-1.48-0.28-2.035-0.8z"/>
<path d="m296.82 1198.8v2.55h-17.069v-2.55h-3.688v11.77h24.447v-11.77h-3.69zm-17.069 8.13v-2.49h17.069v2.81h-17.069zm-4.33 7.12v3.27h10.954v5.2h3.965v-5.2h10.928v-3.27h-25.847z"/>
<path d="m331.25 1198.8v23.23h3.689v-23.23h-3.689zm-15.556 0c-0.173 0.35-5.733 11.51-5.993 12.05 0.462 0.22 2.943 1.42 3.439 1.66 0.261-0.58 4.5-9.72 4.5-9.72s4.274 9.17 4.539 9.73c0.49-0.22 3.276-1.45 3.775-1.68-0.293-0.55-6.161-11.7-6.335-12.04h-3.925z"/>
</g>
</g>
</g>
</svg>
