<?xml version="1.0" encoding="UTF-8"?>
<svg width="300mm" height="200mm" version="1.1" viewBox="0 0 300 200" xmlns="http://www.w3.org/2000/svg" xmlns:cc="http://creativecommons.org/ns#" xmlns:dc="http://purl.org/dc/elements/1.1/" xmlns:rdf="http://www.w3.org/1999/02/22-rdf-syntax-ns#">
<style/>
<defs>
<clipPath>
<path d="M 0,841.89 H 595.276 V 0 H 0 Z"/>
</clipPath>
<clipPath id="a">
<path d="M 0,841.89 H 595.28 V 0 H 0 Z"/>
</clipPath>
</defs>
<metadata>
<rdf:RDF>
<cc:Work rdf:about="">
<dc:format>image/svg+xml</dc:format>
<dc:type rdf:resource="http://purl.org/dc/dcmitype/StillImage"/>
<dc:title/>
</cc:Work>
</rdf:RDF>
</metadata>
<g transform="translate(-188.32 -26.637)">
<path d="m488.32 226.64h-300v-200h300z" fill="#fff"/>
<g transform="matrix(.35278 0 0 .35278 278.64 50.009)" fill-rule="evenodd"></g>
<g transform="matrix(.83007 0 0 -.83007 92.823 475.75)"></g>
<g transform="matrix(.35278 0 0 .35278 509.31 -283.65)" fill-rule="evenodd"></g>
<g transform="translate(0 -.54465)">
<g transform="matrix(.35278 0 0 .35278 552.61 -136.01)" fill-rule="evenodd">
<g transform="matrix(3.0173 0 0 3.0173 -1357.4 -1886.3)"></g>
</g>
</g>
<g transform="matrix(2.2384 0 0 -2.2384 -166.23 1169.8)" clip-path="url(#a)">
<g transform="translate(233.79 458.17)">
<path transform="matrix(.1182 0 0 -.1182 -75.398 52.509)" d="m814.14 224.41c-76.536 0-136.1 71.078-143.45 173.09-26.216 1.7037-51.658 14.763-70.789 39.521v-35.635h-73.697c9.4332 12.191 12.859 24.331 12.859 44.67v173.13c0 21.185-4.2797 32.514-15.422 43.326h89.543c-10.711-10.812-13.283-19.367-13.283-43.326v-118.12c0-37.894 14.408-56.82 37.986-56.82 15.383 0 31.21 10.809 37.414 29.971 16.595 80.873 69.991 130.82 137.19 130.82 75.457 0 144.64-82.251 144.64-199.27 0-109.13-54.821-181.35-142.99-181.35zm-2.0742 27.943c50.609 0 73.376 69.028 77.158 163.43 0 104.35-28.672 161.32-74.205 161.32-42.606 0-78.02-61.675-78.02-158.16 0-113.87 29.922-166.59 75.066-166.59z" fill="#f8931d"/>
</g>
<g transform="translate(211.08 463.28)">
<path transform="matrix(.1182 0 0 -.1182 -52.691 47.4)" d="m401.08 93.398c9.0102 11.701 13.258 20.237 13.258 45.102v98.006c-4.0171 0.71921-8.6965 1.2711-13.297 1.1074-17.707-0.67682-41.668-11.617-78.402-11.617-97.835 0-145.91 99.138-145.91 200.85 0 99.637 59.45 176.61 148.04 176.61 58.215 0 111.32-26.869 111.32-26.869-2.9357-11.785-4.6094-16.871-4.6094-35.855v-88.07c0-25.313 3.7886-38.47 14.305-51.643h-95.295c11.396 11.591 15.193 23.707 15.193 51.643v109.15s-12.242 10.559-34.586 10.559c-46.811 0-83.52-51.684-83.52-161.35 0-102.81 41.381-156.07 92.861-156.07 52.274 0 72.901 41.124 79.803 61.49 9.3961 29.458 30.491 43.908 66.549 43.908 34.264 0 66.405-10.812 88.258-37.42v31.582h74.543c-9.8308-10.855-13.291-19.847-13.291-43.324v-217.79h-74.111c9.8478 13.02 13.266 24.763 13.266 45.102v119.95c0 53.181-27.767 68.512-55.018 68.512-31.616 0-45.229-17.395-45.229-66.109v-167.45h-74.121z" fill="#ee1c25"/>
</g>
</g>
</g>
</svg>
