<?xml version="1.0" encoding="UTF-8"?>
<svg width="300mm" height="200mm" version="1.1" viewBox="0 0 300 200" xmlns="http://www.w3.org/2000/svg" xmlns:cc="http://creativecommons.org/ns#" xmlns:dc="http://purl.org/dc/elements/1.1/" xmlns:rdf="http://www.w3.org/1999/02/22-rdf-syntax-ns#" xmlns:xlink="http://www.w3.org/1999/xlink">
<style/>
<defs>
<clipPath>
<path d="M 0,841.89 H 595.276 V 0 H 0 Z"/>
</clipPath>
</defs>
<metadata>
<rdf:RDF>
<cc:Work rdf:about="">
<dc:format>image/svg+xml</dc:format>
<dc:type rdf:resource="http://purl.org/dc/dcmitype/StillImage"/>
<dc:title/>
</cc:Work>
</rdf:RDF>
</metadata>
<g transform="translate(-188.32 -26.637)">
<path d="m488.32 226.64h-300v-200h300z" fill="#fff"/>
<g transform="matrix(.35278 0 0 .35278 278.64 50.009)" fill-rule="evenodd"></g>
<g transform="matrix(.83007 0 0 -.83007 92.823 475.75)"></g>
<g transform="matrix(.35278 0 0 .35278 509.31 -283.65)" fill-rule="evenodd"></g>
<g transform="translate(0 -.54465)">
<g transform="matrix(.35278 0 0 .35278 552.61 -136.01)" fill-rule="evenodd">
<g transform="matrix(3.0173 0 0 3.0173 -1357.4 -1886.3)"></g>
</g>
</g>
<g transform="translate(-8.1111 3.5458)">
<g transform="matrix(3.289 0 0 3.289 -1593.6 -238.68)">
<path d="m589.68 94.198 0.0116 0.01129" fill="#f7ad00"/>
<path d="m584.3 109.65c-7.0503-1.5706-1.6344-3.1337-1.6344-3.1337 4.1314-0.90381 7.5011-0.12382 7.5011-0.12382 2.6656 0.6103 0.1972 1.2023 0.1972 1.2023s-2.0225 0.59373 1.3811 1.1303c0 0 4.0044 0.47625 6.8979-0.60924 0 0 3.478-1.3677-1.8394-2.7746 0 0-7.3395-1.748-16.356 0.0688 0 0-1.7159 0.41169-3.108 0.88159 0.42474 0.33056 0.8449 0.66111 1.2555 0.99201 0.0766 0.061 0.1517 0.12277 0.2279 0.1838 0.21625 0.17533 0.43109 0.35031 0.64241 0.52564 6.0339 4.9678 10.297 9.664 10.297 9.664s3.2505-3.5821 8.0927-7.7992c-7.421 0.8756-13.555-0.20778-13.555-0.20778" fill="#0055a4"/>
<path d="m585.04 99.085-2.1939-2.8734c-0.75354-0.94756-1.6351-0.41451-2.0052-0.12277l-8.3386 6.7275c1.5692 1.0372 3.0949 2.1347 4.5445 3.253 0.98002-0.33902 2.4578-0.81668 4.0414-1.2047 2.636-0.60854 6.1489-1.0118 10.02-1.071 4.3222-0.0667 8.2166 0.30762 10.944 0.95673 0.61031 0.16757 1.1091 0.33338 1.5134 0.48507 0 0 5.4945-4.5614 10.726-6.4848-9.217-6.6484-19.924-8.4095-21.141-8.593z" fill="#0055a4"/>
<path d="m589.6 94.075-2.825-3.9338s-11.558 1.5617-21.37 8.6907c2.722 1.222 4.626 2.4994 7.0668 4.015l8.3771-6.7578c0.37007-0.29175 1.2517-0.82444 2.0048 0.12312l2.1943 2.873z" fill="#73bb39"/>
</g>
<path d="m320.73 165.45-5.6316 3e-3c-1.8511 0-3.3506 1.2418-3.3506 2.7727l-3e-3 1.05v8.2816h4.6663v-4.7459h4.2962v-2.7879h-4.2962v-1.7651h4.2962zm30.426 0 0.0226 2.8076h3.1771v1.7651h-3.1771v2.7879h3.1771v4.7459h4.666v-8.2816l-2e-3 -1.05c0-1.5308-1.4989-2.7727-3.3506-2.7727zm-51.103 0.16613c-4.3488 0-7.8873 2.571-7.8873 5.7308 0 1.4707 0.76379 2.8684 2.1535 3.936 1.5057 1.1559 3.5404 1.7952 5.7338 1.7952 2.1922 0 4.2263-0.63925 5.7301-1.7952 1.3903-1.0676 2.1557-2.4653 2.1557-3.936 0-1.4725-0.7654-2.8703-2.1557-3.9379-1.5038-1.1584-3.5379-1.793-5.7301-1.793zm33.703 0.31184v2.941h2.0249v4.7845h-2.4623v2.9436h15.908v-2.944h-2.485v-4.7842h2.0494v-2.941h-0.56011zm42.769 0.30254v2.9537h16.636v5.3911h-19.361v2.9488h11.618v4.5273h4.6667v-4.5273h10.608v-2.9488h-2.8626v-5.2573c0-3.0888-3.4488-3.0875-3.4488-3.0875h-17.451zm-76.473 2.2286c0.76879 0 1.521 0.23437 2.1156 0.65711 0.77307 0.55405 1.2142 1.3644 1.2142 2.2308 0 1.5916-1.4941 2.8886-3.3298 2.8886-0.77307 0-1.5247-0.23699-2.1193-0.65972-0.76878-0.55465-1.2124-1.365-1.2124-2.2289 0-0.86633 0.44362-1.6767 1.2124-2.2308 0.59455-0.42274 1.3462-0.65711 2.1193-0.65711zm39.804 0.40995h2.8113v4.7845h-2.8113v-3.6587zm8.5622 8.9265c-5.8465 0-10.598 2.3749-10.598 5.293 0 1.0099 0.55701 1.9844 1.6123 2.828 1.9382 1.5437 5.2969 2.4653 8.9856 2.4653 3.6825 0 7.0415-0.9216 8.9804-2.4653 1.0565-0.84363 1.6142-1.8181 1.6142-2.828 0-1.0068-0.55765-1.9842-1.6142-2.8247-1.9388-1.5468-5.2978-2.4683-8.9804-2.4683zm-42.01 0.0101c-5.841 0-10.593 2.3746-10.593 5.2963 0 1.0068 0.55564 1.9813 1.6116 2.8225 1.9388 1.5455 5.2993 2.4675 8.9818 2.4675 3.6874 0 7.045-0.92199 8.9844-2.4675 1.0565-0.84117 1.6134-1.8156 1.6134-2.8225 0-1.0099-0.55689-1.985-1.6134-2.8262-1.9394-1.5461-5.297-2.4701-8.9844-2.4701zm70.205 1.1187v6.1036c-9e-3 1.5106 1.1687 2.4523 3.0689 2.4627h18.15v-2.9488h-16.554v-5.6175h-4.2616zm-28.194 1.8257c2.1388 0 4.2026 0.52092 5.2536 1.3265 0.42642 0.32519 0.63742 0.66725 0.63742 1.0121 0 1.2443-2.7539 2.3348-5.891 2.3348-2.1487 0-4.2136-0.51904-5.2621-1.3246-0.42336-0.32213-0.63482-0.66233-0.63482-1.0102 0-0.34481 0.21641-0.68687 0.63853-1.0121 1.0523-0.80558 3.1147-1.3265 5.2584-1.3265zm-42.01 0.0101c2.1437 0 4.2059 0.52104 5.2569 1.3272 0.42457 0.32457 0.63741 0.6668 0.63741 1.0147 0 1.2412-2.7511 2.3341-5.8943 2.3341-2.1438 0-4.207-0.52165-5.2562-1.3272-0.42151-0.32211-0.63519-0.6651-0.63519-1.0069 0-0.34786 0.2136-0.69009 0.64002-1.0147 1.051-0.80621 3.1113-1.3272 5.2514-1.3272z"/>
</g>
</g>
</svg>
