<?xml version="1.0" encoding="UTF-8"?>
<svg width="300mm" height="200mm" version="1.1" viewBox="0 0 300 200" xmlns="http://www.w3.org/2000/svg" xmlns:cc="http://creativecommons.org/ns#" xmlns:dc="http://purl.org/dc/elements/1.1/" xmlns:rdf="http://www.w3.org/1999/02/22-rdf-syntax-ns#">
<style/>
<defs>
<clipPath>
<path d="M 0,841.89 H 595.276 V 0 H 0 Z"/>
</clipPath>
<linearGradient id="c" x1="52.11" x2="70.94" y1="1019.6" y2="1019.6" gradientUnits="userSpaceOnUse">
<stop stop-color="#b1c918" offset="0"/>
<stop stop-color="#b1c918" offset=".32411"/>
<stop stop-color="#6aa82d" offset="1"/>
</linearGradient>
<linearGradient id="b" x1="69.074" x2="76.683" y1="1068.2" y2="1024.1" gradientUnits="userSpaceOnUse">
<stop stop-color="#ffe400" offset="0"/>
<stop stop-color="#f49647" offset=".92837"/>
<stop stop-color="#f49647" offset="1"/>
</linearGradient>
<linearGradient id="a" x1="57.447" x2="67.156" y1="1068" y2="1013.4" gradientUnits="userSpaceOnUse">
<stop stop-color="#0097d9" offset="0"/>
<stop stop-color="#0097d9" offset=".18642"/>
<stop stop-color="#005296" offset=".75883"/>
<stop stop-color="#005296" offset="1"/>
</linearGradient>
</defs>
<metadata>
<rdf:RDF>
<cc:Work rdf:about="">
<dc:format>image/svg+xml</dc:format>
<dc:type rdf:resource="http://purl.org/dc/dcmitype/StillImage"/>
<dc:title/>
</cc:Work>
</rdf:RDF>
</metadata>
<g transform="translate(-188.32 -26.637)">
<path d="m488.32 226.64h-300v-200h300z" fill="#fff"/>
<g transform="matrix(.35278 0 0 .35278 278.64 50.009)" fill-rule="evenodd"></g>
<g transform="matrix(.83007 0 0 -.83007 92.823 475.75)"></g>
<g transform="matrix(.35278 0 0 .35278 509.31 -283.65)" fill-rule="evenodd"></g>
<g transform="translate(0 -.54465)">
<g transform="matrix(.35278 0 0 .35278 552.61 -136.01)" fill-rule="evenodd">
<g transform="matrix(3.0173 0 0 3.0173 -1357.4 -1886.3)"></g>
</g>
</g>
<g transform="matrix(.35278 0 0 .35278 110.07 -433.95)" fill-rule="evenodd">
<g transform="matrix(6.4378 0 0 6.4378 8.4449 -5107.9)">
<g fill="#ef7e20">
<path d="m78.188 1026.1c0.8564 0.63 1.9238 1.01 3.1025 1.01 0.2446 0 0.4873-0.02 0.7217-0.06 1.2671-0.14 2.3603-0.77 3.0659-1.69 0.147-0.19 0.2715-0.39 0.3843-0.61 0.4209-0.83 0.3926-1.59 0.3457-1.94-0.2256-1.32-1.3726-2.34-2.7666-2.34-0.1934 0-0.3784 0.03-0.5591 0.07-0.2842 0.06-0.4766 0.15-0.5112 0.17-0.3272 0.18-0.7349 0.55-0.8736 1.28-0.0136 0.06-0.0263 0.13-0.0351 0.2-0.0034 0.03-0.0098 0.08-0.0112 0.15 0 0.05 0 0.11 0.0053 0.17h0.0025c0.0019 0.02 0.0034 0.04 0.0034 0.06 0.0806 0.84 0.6948 1.53 1.5122 1.7-1.0649-0.18-1.8745-1.09-1.9067-2.19 9e-4 -0.32 0.0913-1.16 0.8925-1.99 0.4585-0.44 1.126-0.81 2.1031-0.86h-5e-4c0.1289 0 0.4668-0.01 0.8237 0.06 0.0376 0.01 0.0737 0.01 0.1113 0.02-2.2441-0.93-3.4638 0.51-3.7871 0.97 0.7158-1.16 1.6499-1.52 2.4243-1.57 0 0 1.7349-0.22 3.8916 1.28-0.7876-2.14-2.7163-3.3-4.9189-3.3-2.9605 0-5.3608 2.44-5.3608 5.47 0 0.22 0.0166 0.45 0.0444 0.67-0.0972-0.28-0.1763-0.59-0.2149-0.92-0.0478-0.29-0.0727-0.59-0.0727-0.91 0-2.62 2.7471-5.26 5.8042-5.29h-0.0371c-3.3579 0-6.3609 1.96-6.3609 5.81 0 0.34 0.0269 0.67 0.0791 0.99 0.1514 1.25 0.7735 2.22 1.273 2.82 0.1899 0.23 0.4741 0.51 0.8257 0.77z"/>
<path d="m82.591 1020.2c0.8135-0.4 2.4932-0.86 4.1778 1.02 0 0 1.4248 1.62 0.8066 4.23 0 0-0.3384 2.08-2.5767 3.15-0.2041 0.1-0.4043 0.18-0.6025 0.25-0.0195 0.01-0.0371 0.01-0.0566 0.02-0.0728 0.03-0.1407 0.04-0.2164 0.06-0.3657 0.11-0.7695 0.2-1.2148 0.24-2.7119 0.25-4.6787-1.42-4.6787-1.42-0.2124-0.19-0.3135-0.33-0.3135-0.33 2.3443 1.56 4.4536 1.16 5.5811 0.72 1.8383-0.74 3.1216-2.41 3.1216-4.35 0-0.69-0.1651-1.34-0.4581-1.94-1.5522-2.51-4.0029-1.37-4.0634-1.34-0.0034 0-0.0098 0.01-0.0127 0.01 0 0 0.3222-0.23 0.5063-0.32z"/>
</g>
<path d="m70.876 1019.8c-0.0992-0.2-0.3682-0.4-0.4663-0.46h-0.0069-0.0039 0.0108c-0.0069 0-0.0123-0.01-0.0176-0.01-0.0078-0.01-0.0137-0.01-0.0225-0.02-1.0752-0.64-2.3808-1.3-3.7309-1.92-4.0547-1.98-6.9356-2.99-8.9234-3.48-0.8091-0.21-1.5014-0.33-2.1011-0.39-1.2617-0.15-1.7578 0.02-1.7578 0.02-0.6474 0.1-1.0678 0.3-1.3237 0.49-0.0132 0.01-0.0298 0.02-0.0454 0.03-0.0044 0-0.0098 0.01-0.0147 0.01-0.2158 0.18-0.3007 0.35-0.333 0.45-0.0053 0.02-0.0107 0.05-0.02 0.08-0.0068 0.06-0.0127 0.14-0.0097 0.22 0.0043 0.06 0.0146 0.13 0.0332 0.21 0.0127 0.05 0.0258 0.1 0.0439 0.16v-0.01c0.0347 0.12 0.0747 0.24 0.1172 0.36 1.1518 3.1 5.8535 6.36 7.6982 7.55 0.4649 0.3 0.753 0.47 0.753 0.47 0.8012 0.55 1.6508 1.08 2.5258 1.59l0.941 0.53c0.0483-0.06 0.0996-0.12 0.1474-0.18 2-2.52 4.252-3.88 5.7412-4.57 0.8369-0.34 0.8233-0.79 0.8233-0.79 0.019-0.13-0.0108-0.24-0.0581-0.34z" fill="url(#c)"/>
<path d="m85.856 1034.3c-0.1441-0.51-1.3643-0.82-1.3643-0.82-0.0781-0.02-0.2192-0.06-0.2983-0.09h-0.0054c-4.6846-1.29-12.731-3.82-19.478-7.45l-0.4878-0.26c-0.0205 0.04-0.1885 0.28-0.2622 0.38-0.1016 0.14-0.2012 0.29-0.3042 0.43-2.3916 3.5-4.2383 8.88-3.6714 17.06v0.01 0.01h0.0015v0.02l0.0014 0.01v0.01c0 0.01 0 0.01 1e-3 0.02 0 0 2e-3 0 2e-3 0.01s9e-4 0.02 0.0029 0.04c0.0039 0.04 0.0068 0.09 0.0132 0.15h9e-4c0.1788 1.88 1.5875 12.83 10.405 20.42 0.0821 0.07 0.1646 0.14 0.2466 0.21 0.0401 0.04 0.0825 0.07 0.1231 0.1h0.0014c0.041 0.04 0.0821 0.07 0.1241 0.11h9e-4c0.041 0.03 0.0825 0.06 0.1226 0.1h0.0029c0.042 0.04 0.0835 0.07 0.1255 0.1h0.0024c0.0415 0.04 0.0835 0.07 0.1241 0.1 0.0019 0 0.0034 0 0.0039 0.01 0.041 0.03 0.0835 0.06 0.1245 0.09 0.0015 0 0.0029 0.01 0.0044 0.01 0.041 0.03 0.0835 0.06 0.124 0.09 0.0034 0 0.0044 0.01 0.0068 0.01 0.042 0.03 0.0826 0.06 0.1255 0.09 2e-3 0.01 0.0044 0.01 0.0049 0.01 0.0425 0.03 0.0835 0.06 0.125 0.09 0.0029 0 0.0068 0.01 0.0083 0.01 0.042 0.03 0.083 0.06 0.1265 0.09 0.0014 0.01 0.0039 0.01 0.0044 0.01 0.0439 0.03 0.0844 0.06 0.1264 0.09 0.0035 0 0.0059 0 0.0088 0.01 0.0425 0.03 0.0865 0.06 0.127 0.09 0.0034 0 0.0049 0.01 0.0078 0.01 0.042 0.03 0.0845 0.06 0.126 0.09h0.0112c0.0405 0.04 0.0835 0.07 0.1265 0.1h0.0097c0.041 0.03 0.085 0.06 0.127 0.09 0.0039 0 0.0078 0.01 0.0112 0.01 0.042 0.03 0.0845 0.06 0.127 0.09 0.0039 0 0.0078 0 0.0122 0.01h0.0097l1e-3 0.01c0.2271 0.15 1.0674 0.68 1.3208 0.39h5e-4c0.0083-0.01 0.0147-0.03 0.0234-0.04h0.0044c0.0616-0.11 0.0694-0.24 0.0494-0.38-0.0357-0.2-0.1934-0.5-0.3082-0.71-0.0644-0.1-0.1293-0.2-0.1909-0.31-0.6758-1.14-1.2964-2.42-1.3647-2.57-1.9678-4.38-3.2608-11.23 2.0322-18.64 0 0 3.7505-4.98 10.171-8.03 0.1836-0.09 0.3428-0.18 0.481-0.26h-0.0015c1.0962-0.64 0.8633-1.23 0.8633-1.23z" fill="url(#b)"/>
<path d="m74.096 1066.5h-5e-4c-0.2534 0.29-1.0937-0.24-1.3208-0.39h1e-3l-2e-3 -0.01h-0.0097-5e-4c-0.0044-0.01-0.0078-0.01-0.0117-0.01-0.0425-0.03-0.085-0.06-0.127-0.09-0.0034 0-0.0073-0.01-0.0112-0.01-0.042-0.03-0.086-0.06-0.127-0.09h-0.0097c-0.043-0.03-0.086-0.06-0.1265-0.1h-0.0112c-0.0415-0.03-0.084-0.06-0.126-0.09-0.0029 0-0.0044-0.01-0.0078-0.01-0.0405-0.03-0.0845-0.06-0.127-0.09-0.0029-0.01-0.0053-0.01-0.0088-0.01-0.042-0.03-0.0825-0.06-0.1264-0.09-5e-4 0-3e-3 0-0.0044-0.01-0.0435-0.03-0.0845-0.06-0.1265-0.09-0.0015 0-0.0054-0.01-0.0083-0.01-0.0415-0.03-0.0825-0.06-0.125-0.09-5e-4 0-0.0029 0-0.0049-0.01-0.0429-0.03-0.0835-0.06-0.1255-0.09-0.0024 0-0.0034-0.01-0.0068-0.01-0.0405-0.03-0.083-0.06-0.124-0.09-0.0015 0-0.0029-0.01-0.0044-0.01-0.041-0.03-0.0835-0.06-0.1245-0.09-5e-4 -0.01-2e-3 -0.01-0.0039-0.01-0.0406-0.03-0.0826-0.06-0.1241-0.1h-9e-4c-0.0435-0.03-0.085-0.06-0.127-0.1h-0.0029c-0.0401-0.04-0.0816-0.07-0.1226-0.1h-9e-4c-0.042-0.04-0.0831-0.07-0.1241-0.11h-0.0014c-0.0406-0.03-0.083-0.06-0.1231-0.1-0.082-0.07-0.1645-0.14-0.2466-0.21-8.8173-7.59-10.226-18.54-10.405-20.42h-9e-4c-0.0064-0.06-0.0093-0.11-0.0132-0.15-2e-3 -0.02-0.0029-0.03-0.0029-0.04s-2e-3 -0.01-2e-3 -0.01c-1e-3 -0.01-1e-3 -0.01-1e-3 -0.02v-0.01l-0.0014-0.01v-0.02h-0.0015v-0.01-0.01c-0.5669-8.18 1.2798-13.56 3.6714-17.06 0.103-0.14 0.2026-0.29 0.3042-0.43 0.0737-0.1 0.2417-0.34 0.2622-0.38h0.0015l-0.941-0.53c-0.875-0.51-1.7246-1.04-2.5258-1.59 0 0-0.2881-0.17-0.753-0.47-1.8447-1.19-6.5464-4.45-7.6982-7.55-0.0425-0.12-0.0825-0.24-0.1172-0.36v0.01c-0.0181-0.06-0.0312-0.11-0.0439-0.16-0.0186-0.08-0.0289-0.15-0.0332-0.21-3e-3 -0.08 0.0029-0.16 0.0097-0.22 0 0-1.6333 6.32-1.6299 14.86l2e-3 -0.01c-2e-3 0.21-2e-3 0.41 0 0.62-0.0186 0.49-0.1235 3.89 0.7617 9.21 0.084 0.54 0.2012 1.19 0.3604 1.94 0.0586 0.24 0.0947 0.37 0.0947 0.37 0.5957 2.6 1.394 4.95 2.3335 7.07 0.0644 0.16 0.1377 0.31 0.2138 0.47 0.0176 0.04 0.0406 0.09 0.0577 0.14 0.7548 1.6 1.6748 3.28 2.7993 4.93 0.0205 0.03 0.0381 0.06 0.061 0.09 0.1045 0.15 0.2027 0.29 0.3106 0.44 0.0605 0.09 0.1186 0.17 0.1801 0.26 0.066 0.08 0.1309 0.18 0.1983 0.26 0.102 0.14 0.2051 0.29 0.3086 0.42 0.0205 0.03 0.0381 0.05 0.06 0.07 1.2139 1.59 2.5049 2.97 3.794 4.17 2.8281 2.6 6.3994 4.92 10.853 6.65 0.6333 0.23 0.9619 0.12 1.1177 0.01h0.0024c0.0054-0.01 0.0093-0.01 0.0152-0.01 0 0 9e-4 0 0.0014-0.01 0.0049 0 0.0078 0 0.0122-0.01 0.0044 0 0.0083 0 0.0108-0.01h0.0014c3e-3 0 0.0059 0 0.0088-0.01h0.0025 0.0034c0.0503-0.05 0.0693-0.09 0.0693-0.09h-5e-4 -0.0044c-0.0087 0.01-0.0151 0.03-0.0234 0.04z" fill="url(#a)"/>
<g fill="#4b4b4b">
<path d="m100.16 1044h-3.8315v0.53h1.4663c-0.064 0.12-0.1499 0.22-0.2578 0.3-0.103 0.09-0.2236 0.17-0.3618 0.24-0.1538 0.07-0.3252 0.14-0.5132 0.19-0.1895 0.05-0.3887 0.09-0.6011 0.13 0.0567 0.06 0.1338 0.15 0.2261 0.25 0.0884 0.1 0.1582 0.19 0.2134 0.26 0.1518-0.02 0.3125-0.05 0.479-0.11 0.1689-0.05 0.334-0.12 0.4892-0.2 0.1568-0.07 0.3023-0.16 0.4375-0.25 0.1358-0.1 0.2481-0.21 0.3404-0.32 0.0844 0.11 0.1972 0.22 0.331 0.32 0.1382 0.09 0.2798 0.18 0.4341 0.25 0.1641 0.08 0.3286 0.15 0.4951 0.2 0.169 0.06 0.3262 0.09 0.4722 0.11 0.0491-0.05 0.1101-0.13 0.1971-0.24 0.089-0.09 0.165-0.19 0.229-0.27-0.189-0.03-0.377-0.08-0.5584-0.12-0.1822-0.06-0.3565-0.12-0.5162-0.2-0.1411-0.06-0.2666-0.14-0.3764-0.23-0.1143-0.09-0.2066-0.19-0.2774-0.31h1.4834z"/>
<path d="m97.253 1043.6h1.8892v-0.52h-1.8892z"/>
<path d="m100.15 1040h-0.6613v3.25h0.6613z"/>
<path d="m98.428 1040.2h-0.6523v0.67h-1.3257v-0.67h-0.6558v2.48h2.6338zm-0.6523 1.89h-1.3257v-0.64h1.3257z"/>
<path d="m106.5 1042.4h-5.147v0.56h5.147z"/>
<path d="m102.43 1041.7c0.36 0.18 0.856 0.27 1.489 0.27 0.634 0 1.132-0.09 1.489-0.26 0.354-0.18 0.536-0.42 0.536-0.73 0-0.29-0.182-0.53-0.536-0.72-0.357-0.19-0.855-0.28-1.489-0.28-0.633 0-1.129 0.09-1.489 0.28-0.354 0.19-0.533 0.43-0.533 0.72 0 0.3 0.179 0.55 0.533 0.72zm0.562-1.08c0.231-0.09 0.539-0.14 0.927-0.14 0.383 0 0.692 0.05 0.923 0.14 0.235 0.09 0.353 0.22 0.353 0.38 0 0.14-0.115 0.26-0.343 0.34-0.233 0.09-0.542 0.13-0.933 0.13-0.394 0-0.71-0.04-0.935-0.13-0.231-0.09-0.347-0.21-0.347-0.36s0.116-0.27 0.355-0.36z"/>
<path d="m105.97 1045.3h-3.216v-0.45h3.097v-1.48h-3.854v0.55h3.095v0.42h-3.095v1.5h3.973z"/>
<path d="m112.4 1043.4h2.239v-0.61h-5.143v0.61h2.213v0.56h-1.563v1.87h3.847v-1.87h-1.593zm0.926 1.15v0.7h-2.521v-0.7z"/>
<path d="m114.17 1041.7h-0.761l0.01-0.93h0.64v-0.59h-4.01v0.59h0.635l0.012 0.93h-0.745v0.59h4.219zm-1.414 0h-1.393l-0.017-0.93h1.419z"/>
<path d="m120.56 1043h-5.151v0.6h5.151z"/>
<path d="m116.49 1042.1c0.359 0.24 0.851 0.36 1.482 0.36 0.64 0 1.14-0.12 1.495-0.36 0.353-0.25 0.534-0.54 0.534-0.88 0-0.35-0.181-0.64-0.534-0.88-0.355-0.25-0.855-0.37-1.495-0.37-0.631 0-1.123 0.12-1.482 0.37-0.363 0.25-0.544 0.55-0.544 0.88 0 0.35 0.181 0.64 0.544 0.88zm0.551-1.37c0.243-0.13 0.55-0.2 0.931-0.2 0.389 0 0.699 0.07 0.94 0.2 0.239 0.13 0.359 0.29 0.359 0.49 0 0.18-0.121 0.34-0.362 0.47-0.244 0.13-0.555 0.19-0.937 0.19-0.383 0-0.695-0.06-0.932-0.19-0.238-0.13-0.358-0.29-0.358-0.48s0.12-0.35 0.359-0.48z"/>
<path d="m116.06 1044.1v1.7h4.021v-0.61h-3.34v-1.09z"/>
<path d="m123.93 1043.3v0.16h23.972v-0.16z"/>
</g>
<g fill="#4b4b4b">
<path d="m138.57 1054.9c0.529-1.15 0.801-3.49 0.801-4.61v-0.22h-3.342l0.021 0.11c0.073 0.41 0.102 0.82 0.102 1.25 0 1.33-0.385 3.91-1.153 5.35-0.767 1.43-1.829 2.69-3.138 3.75l-0.106 0.08 1.238 0.78 0.054-0.04c2.006-1.41 3.608-3.11 4.784-5.04 1.222 1.55 2.395 3.14 3.489 4.71l0.055 0.08 2.382-1.71-0.086-0.08c-1.417-1.3-3.134-2.78-5.101-4.41z"/>
<path d="m145.07 1048.9 0.041 0.13c0.152 0.44 0.229 0.99 0.229 1.66v15.91h2.426l0.011-0.08c0.082-0.52 0.124-1.17 0.124-1.93v-15.69h-0.093z"/>
<path d="m109.65 1048.9h-2.787l0.039 0.13c0.152 0.5 0.227 1.06 0.227 1.66v5.85c-0.988 0.22-2.084 0.34-3.269 0.34h-3.393v-3.51h-2.7078l0.0386 0.13c0.0942 0.32 0.144 0.73 0.144 1.21v2.17h-3.1724v1.42h8.8376c1.292 0 2.474-0.16 3.522-0.48v1.61h2.362l0.013-0.07c0.098-0.61 0.146-0.87 0.146-1.53v-3.04h2.43v-1.43h-2.43v-4.46z"/>
<path d="m102.24 1055.8h2.069l0.024-0.06c0.492-1.18 0.772-3.24 0.783-5.81l3e-3 -0.09h-9.3133v1.43h6.6643c-4e-3 2.05-0.078 3.66-0.21 4.42z"/>
<path d="m108.02 1060.9c-1.069-0.69-2.356-1.03-3.822-1.03-1.456 0-2.733 0.34-3.808 1.03-1.0791 0.69-1.6289 1.56-1.6289 2.58s0.5459 1.89 1.6239 2.58c1.057 0.67 2.337 1.01 3.813 1.01 1.468 0 2.756-0.34 3.822-1.01 1.08-0.69 1.629-1.56 1.629-2.58s-0.549-1.89-1.629-2.58zm-1.738 4.14c-0.569 0.43-1.267 0.64-2.084 0.64-0.802 0-1.501-0.21-2.068-0.64-0.571-0.42-0.845-0.93-0.845-1.56 0-0.59 0.283-1.1 0.845-1.53 0.567-0.44 1.266-0.65 2.068-0.65 0.8 0 1.501 0.22 2.076 0.65 0.568 0.43 0.854 0.94 0.854 1.53 0 0.63-0.277 1.14-0.846 1.56z"/>
<path d="m126.81 1048.9 0.044 0.13c0.151 0.44 0.224 1 0.224 1.66v0.8h-3.217v-1.61h-9.064l0.028 0.12c0.138 0.53 0.207 1.07 0.207 1.62v5.71c0 0.28 0.16 0.44 0.451 0.44h8.378v-1.65h3.217v2.66h2.424l0.012-0.08c0.088-0.52 0.129-1.17 0.129-1.93v-7.87h-0.095zm-5.493 7.44h-3.719v-5.03h3.719v5.03zm5.761-1.65h-3.217v-1.77h3.217v1.77z"/>
<path d="m127.98 1060.1c-1.093-0.78-2.412-1.18-3.922-1.18-1.516 0-2.837 0.4-3.927 1.19-1.096 0.79-1.656 1.77-1.656 2.91s0.56 2.12 1.656 2.89c1.09 0.76 2.411 1.15 3.927 1.15 1.528 0 2.852-0.39 3.931-1.15 1.096-0.78 1.65-1.75 1.65-2.89 0-1.15-0.559-2.14-1.659-2.92zm-1.799 4.79c-0.597 0.52-1.311 0.78-2.123 0.78-0.814 0-1.528-0.26-2.125-0.78-0.594-0.51-0.89-1.14-0.89-1.87s0.291-1.35 0.89-1.88c0.597-0.52 1.311-0.79 2.125-0.79 0.812 0 1.526 0.27 2.123 0.79 0.603 0.53 0.893 1.15 0.893 1.88s-0.3 1.36-0.893 1.87z"/>
</g>
</g>
</g>
</g>
</svg>
