<svg xmlns="http://www.w3.org/2000/svg" viewBox="0 0 2400 1350"><rect width="2400" height="1350" style="fill:#ffde08"/><path d="M1817.3716,285.777c58.8751-5.3441,17.1693,25.8309,23.6462,76.8213,5.018,74.4675-40.162,196.5629-133.4145,166.3067-16.1953-11.3856-16.6585-32.8971-19.4154-49.8125-25.3546,27.2237-62.7533,79.5445-105.5434,65.0069-18.8309-10.5716-9.2622-42.0427-6.7572-62.4735-19.2781,20.2185-43.3239,36.778-65.8592,54.0273-61.15,32.5051-111.8449,52.6423-189.1334,54.0288-49.165,52.6526-126.049,83.1343-195.0439,82.7332-50.2434-11.002-97.9474-51.2012-109.7686-103.84,44.3287,54.8183,112.4309,83.956,183.2287,60.7727,24.6756-9.6356,58.3433-29.1655,73.4577-43.8852-83.5319-10.6177-62.9829-119.2609,10.1342-121.5606,46.4854-4.0011,72.15,52.3191,58.2564,93.6983,114.55,7.0664,157.55-99.7092,244.0119-117.3505,9.7252-4.0429,23.2444,5.9742,31.2434,14.3634,23.9543,44.1471,50.8922-29.0554,92.0356-13.5043,23.98,1.9936,21.3621,34.1222,49.8177,33.7628,28.2531-15.2555,29.938-51.45,29.5511-81.8852C1795.801,354.21,1764.4381,292.2312,1817.3716,285.777Zm-688.1455,70.0666c18.84,25.0964-39.1366,88.0793-64.1628,103.833-68.4017,56.8018-158.7012,80.9258-247.4031,81.037C771.0949,592.1,718.4451,650.3619,646.2563,637.7912c-94.3961-2.61-114.0749-71.9492-129.1852-143.5071,46.1526,24.8884,88.5222,57.1823,142.6961,61.6293,42.2,3.5661,100.343-36.166,67.5474-79.3527-14.0937-11.6766,7.2061-6.9448,15.2-10.1308C920.6112,459.872,976.921,468.5107,1129.2261,355.8436Zm270.192,57.4035c75.931,4.853-3.264,103.59-35.4653,47.2718C1357.147,434.7087,1379.6773,417.231,1399.4181,413.2471ZM1285.4309,506.95c-50.1229,15.7656,17.947,77.0647,21.1135,32.9249C1310.7265,529.2623,1301.0475,506.5688,1285.4309,506.95ZM750.1129,629.3562c66.28,2.4265,4.0411,92.999-19.4253,35.4549C727.2419,650.7085,736.1439,633.6164,750.1129,629.3562ZM634.4371,652.1486c24.06-5.1423,38.4711,26.9483,23.64,47.2747C621.1682,720.87,599.0962,666.209,634.4371,652.1486Zm699.966,297.15c-.8854-73.1138-29.0052-140.8337-17.7344-212.7329,90.1525-7.1009,62.2437-14.4355,67.5442,65.0061,117.701,4.4841,106.2637,133.9922-7.5983,102.99q.7381,19.0826,1.4763,38.1652a640.0112,640.0112,0,0,0,99.01-17.9045c81.234-21.39,129.1494-35.75,158.5149-77.1673,21.8215-30.7771,31.7359-72.4109,26.3847-128.825-8.7736-84.4511-4.3408-64.3339,70.9414-57.3929,35.008-1.4267-2.2567,102.8007-6.7542,124.9339-7.9721,43.4679-33.9192,45.4173,18.5761,58.2442,48.7438,10.4069,90.7325,84.3067,46.43,119.0369-57.2942,37.8245-129.1439-4.5108-168.866-48.9651-121.9825,63.5032-275.71,99.0464-414.5752,70.9211-19.4742-7.248-38.2341-14.5346-57.4167-22.8048-45.7562,44.6995-112.6132,56.4847-190.8233,50.6556,30.5376-34.3787,101.58-41.3475,141.0033-71.7624,23.456-5.5023-44.387-51.2906-21.0965-92.8563,12.8912-30.8064,41.2131-53.8008,75.1379-52.3374,54.3148,16.098,52.3146,85.9343,30.3963,125.78C1230.1947,949.0253,1281.81,954.64,1334.4031,949.2988Zm514.21-222.8629c54.0618-7.0962,40.84,15.5512,36.3019,55.72-12.2339,55.2852-22.8676,125.2476-51.4941,169.6781-9.9166-55.67-7.3278-111.8621-17.742-167.9933-1.204-16.57-7.186-36.021-3.3728-55.7166C1823.2482,726.1461,1837.8387,729.0013,1848.6131,726.4359Zm-291.3016,21.1046c28.9373-1.2027,44.0767,22.6349,38.843,46.43C1558.3714,835.4935,1498.4825,772.5519,1557.3115,747.5405Zm-325.0743,1.6886c38.5605-6.6147,58.2552,36.77,32.0856,58.2517C1216.9789,826.6439,1171.3185,769.016,1232.2372,749.2291Zm-442.44,82.7289c28.9268-2.0846,31.1513,31.65,12.6654,43.0542C771.6949,885.9492,754.7413,841.099,789.7976,831.958Zm347.0274,6.7537c-38.6522,13.9589-11.7114,59.222,16.0459,68.377C1174.2327,892.1227,1175.41,838.5284,1136.825,838.7117Zm254.15,40.5205c22.4422.9482,33.228-32.9958,5.9089-33.7675C1393.3593,852.9722,1391.088,865.4817,1390.9749,879.2322ZM636.97,1036.2484c-8.1477-8.7278-17.8812-28.8064-24.48-38.836-27.48,13.4459-73.9251,27.7194-102.1729,16.8943,38.0486-18.4555,74.1408-42.4648,104.7-72.6054,30.5421-27.4884,32.393-37.2834,61.6366-.8372,177.1779,135.9116,275.9968-111.59,254.99-29.5607C894.0919,1019.0772,740.9869,1114.2877,636.97,1036.2484ZM1718.583,883.4529c-21.7639,7.1928-24.9314,50.7179,1.6888,54.0249C1770.7411,946.91,1767.8,878.6146,1718.583,883.4529ZM831.1709,900.3368c23.564-5.3928,36.9405,31.05,13.5073,43.0531C813.7335,944.8531,800.7792,914.9224,831.1709,900.3368Zm-87.8125,2.5321c23.4179-2.745,47.3691,32.5375,21.1068,48.9637C726.3427,964.4283,698.84,918.4388,743.3584,902.8689Z" style="fill:#e5221a"/></svg>