<?xml version="1.0" encoding="UTF-8"?>
<svg version="1.0" viewBox="0 0 1500 1050" xmlns="http://www.w3.org/2000/svg" xmlns:cc="http://creativecommons.org/ns#" xmlns:dc="http://purl.org/dc/elements/1.1/" xmlns:rdf="http://www.w3.org/1999/02/22-rdf-syntax-ns#">
<title>West Kalimantan Flag</title>
<metadata>
<rdf:RDF>
<cc:Work rdf:about="">
<dc:format>image/svg+xml</dc:format>
<dc:type rdf:resource="http://purl.org/dc/dcmitype/StillImage"/>
<dc:title>West Kalimantan Flag</dc:title>
</cc:Work>
</rdf:RDF>
</metadata>
<defs>
<linearGradient id="b" x1="5.5913" x2="329.18" y1="227.77" y2="227.77" gradientUnits="userSpaceOnUse">
<stop stop-color="#448D46" offset="0"/>
<stop stop-color="#70BA70" offset=".3515"/>
<stop stop-color="#70BA70" offset=".6727"/>
<stop stop-color="#448D46" offset="1"/>
</linearGradient>
<linearGradient id="a" x1="122" x2="212.77" y1="228.85" y2="228.85" gradientUnits="userSpaceOnUse">
<stop stop-color="#A38876" offset="0"/>
<stop stop-color="#EAD8CF" offset=".2061"/>
<stop stop-color="#fff" offset=".497"/>
<stop stop-color="#EAD8CF" offset=".7636"/>
<stop stop-color="#A38876" offset="1"/>
</linearGradient>
</defs>
<g transform="matrix(1 0 0 1.05 0 .0018538)" fill="#217844">
<rect width="1500" height="1e3" fill="#217844"/>
</g>
<g transform="matrix(1.5151 0 0 1.4132 496.89 210.61)">
<path d="m167.4 449.32c17.824-15.596 65.427-20.609 100.24-41.498s61.551-65.171 61.551-85.78v-250.65c-25.066-2.507-70.461-40.662-85.779-65.17-18.104 5.57-43.675 8.912-74.868 8.912h-2.3c-31.192 0-56.764-3.342-74.867-8.912-15.318 24.509-60.714 62.663-85.78 65.17v250.65c0 20.61 26.738 64.892 61.551 85.78s82.35 25.902 100.17 41.498h0.079z" fill="url(#b)"/>
<path d="m167.4 449.32c17.824-15.596 65.427-20.609 100.24-41.498s61.551-65.171 61.551-85.78v-250.65c-25.066-2.507-70.461-40.662-85.779-65.17-18.104 5.57-43.675 8.912-74.868 8.912h-2.3c-31.192 0-56.764-3.342-74.867-8.912-15.318 24.509-60.714 62.663-85.78 65.17v250.65c0 20.61 26.738 64.892 61.551 85.78s82.35 25.902 100.17 41.498h0.079z" fill="none" stroke="#000" stroke-width="5"/>
<rect x="211.66" y="221.26" width="66.944" height="7.675" fill="#bacad3" stroke="#000" stroke-linecap="round" stroke-linejoin="round"/>
<rect x="212.01" y="223.04" width="66.372" height="1.506" fill="#fff"/>
<rect x="61.165" y="221.26" width="60.836" height="7.675" fill="#bacad3" stroke="#000" stroke-linecap="round" stroke-linejoin="round"/>
<rect x="61.488" y="223.04" width="60.316" height="1.506" fill="#fff"/>
<polygon points="212.77 162.32 212.77 295.38 167.39 328.58 122 295.38 122 162.32 167.39 129.12" fill="url(#a)" stroke="#000" stroke-linecap="round" stroke-linejoin="round"/>
<path d="m125.96 293.14v-128.72l41.859-32.248 42.239 30.73v55.195s-2.276-2.782-2.276-7.588v-43.434l-39.962-29.213-39.583 31.363v120c0 2.403-2.277 3.92-2.277 3.92z" fill="#fff"/>
<path d="m207.78 227.46v61.956l-39.583 31.363-32.129-23.487c-1.014-0.5-2.581-1.198-4.373-1.73-2.11-0.627-4.332-0.101-5.557 0.309l42.059 30.6 41.859-32.247v-70.683c1e-3 -1e-3 -2.276 1.517-2.276 3.919z" fill="#a38876"/>
<rect x="151.25" y="113.43" width="32.281" height="7.494" fill="#bfa218" stroke="#7d4e00" stroke-linecap="round" stroke-linejoin="round" stroke-width="1.5"/>
<path d="m167.06 115.44s-16.717 0.384-26.036-6.053c-10.008-6.913-13.161-11.528-12.104-21.423s2.402-9.223 1.153-12.682-2.69-5.668-0.672-8.646 2.69-3.843 0.672-6.917-1.921-4.899-0.96-6.629-0.865-3.555 0.576-6.245 2.114-2.786 2.114-2.786-1.729 4.42-0.288 6.821 2.018 4.611 1.537 5.764-0.385 1.152 1.345 2.978 1.729 5.188 1.537 7.109-1.057 2.018 0.384 3.555 3.65 4.804 3.458 5.957 3.074-2.69 1.153-6.629-3.65-4.9-2.594-8.743 3.65-3.747 1.537-7.494-3.554-5.188-1.345-8.55 3.65-5.86 3.65-5.86-0.288 4.708-0.672 5.86-0.288 2.209 1.633 4.611 3.362 5.572 1.921 8.166-1.057 4.227 1.825 7.109 2.594 3.843 2.594 3.843 3.747-2.018 2.786-6.245-3.65-7.109-3.555-9.799 4.227-4.803 3.17-8.07-1.922-5.092-0.769-6.725 1.922-3.458 2.114-4.707c0 0 1.633 2.498 1.441 4.323s-0.672 4.227 1.729 6.917 1.345 5.957 1.153 7.782 2.401 3.843 2.113 8.935-0.672 5.956-0.672 5.956 3.074-0.48 3.362-7.301-0.48-6.437 1.153-10.087 2.979-4.803 1.538-8.935-2.018-4.707-0.289-7.397 2.594-8.07 2.594-8.07 2.209 3.555 1.633 5.572-2.209 4.036 0.192 7.206 3.363 7.397 3.17 10.664-1.441 5.668 0.672 8.262 3.362 4.419 3.267 7.013-0.576 4.708-0.576 4.708 4.323-6.437 4.131-11.144-2.594-5.573-1.825-10.376 3.554-4.804 3.746-8.166-0.384-6.629-0.384-6.629 3.844 4.419 3.747 8.743-1.921 6.821-0.288 10.856 3.458 6.052 2.978 10.375-2.594 8.935-2.594 8.935 3.556-4.611 5.765-7.494 1.729-4.804 0.769-7.686-2.307-4.899 0.191-7.877 2.114-7.014 2.114-7.014 2.497 4.228 1.633 6.821-2.017 5.284-0.672 7.397 3.171 5.284 2.113 8.839-2.497 4.708-2.306 6.917 0.576 3.362 0.576 3.362 2.114-2.786 3.747-4.803 1.921-3.555 1.633-6.149-0.769-4.227 0.961-6.629 2.306-3.075 2.306-5.188-1.249-5.38-1.249-5.38 3.939 4.227 3.555 7.494-2.21 5.956-1.249 9.319 1.346 6.532 0.961 9.511-2.23 5.371-0.769 10.664c0.857 3.105-0.672 14.891-7.109 21.04s-9.99 11.144-31.125 11.144z" fill="#ed1c24" stroke="#981b1e" stroke-linecap="round" stroke-linejoin="round" stroke-width="1.5"/>
<g fill="#f7966b">
<path d="m171.47 105.46s-1.861-1.269-0.338-4.822 1.522-7.614 1.354-7.868 0.93 2.284 1.692 4.907 0.254 5.583 0.254 5.583 0.255-3.215 2.2-5.753 3.384-7.275 3.384-7.275 0.507 4.061-0.339 6.768-2.199 5.752-2.199 5.752 5.16-5.922 7.275-9.729 4.483-4.822 4.483-9.221 0.085-4.738 0.085-4.738 2.116 8.883-0.592 13.959-3.977 5.753-4.484 7.783-1.185 4.653-1.185 4.653 3.553-5.33 6.176-8.037 4.061-5.415 4.399-7.36 0.254-5.922 0.254-5.922 3.046 6.599 2.792 9.56-1.861 7.106-1.861 7.106 5.499-6.768 6.599-10.49-1.438-5.837-0.762-9.39 2.115-5.33 2.538-9.052 0.084-5.076 0-7.783 0.169-5.415 0.169-5.415-1.607 0.931-1.522 6.514-1.606 7.868-3.807 9.137-3.384 0.593-2.284 3.723 2.538 4.822 2.538 8.46-0.339 5.245-0.339 5.245-3.046-7.107-3.638-9.306-2.623-4.737-2.538-7.36-0.677-6.26 1.607-8.798 3.215-3.807 1.607-6.853-2.707-4.822-2.453-7.022 1.522-5.161 1.522-5.161-2.539 2.622-2.369 5.922 3.046 7.699 0.339 11.506-6.853 6.345-8.037 8.967-5.414 8.714-5.414 8.714-1.27-2.453 0.169-5.33 1.692-3.977 1.692-6.345-0.339-4.314-0.339-4.314-2.453 5.414-5.668 8.291-3.723 5.33-3.469 8.629 1.015 5.922 1.015 5.922-5.752-2.792-4.991-9.052 4.23-9.983 4.399-14.297-2.453-9.729-1.269-13.367 1.523-6.26 0.592-8.291-1.438-3.638-1.438-3.638 1.269 7.698-0.677 11.336 0.676 9.137-0.846 13.621-3.807 4.569-4.568 8.545-1.438 5.753-0.761 9.983 0.931 6.514 0.931 6.514-5.33-5.837-5.499-9.644-0.592-5.415 0.762-7.699 3.045-3.469 3.722-5.837 0.761-3.807 0.761-3.807-2.622 4.399-5.076 7.022-5.33 6.514-4.23 11.083 3.553 7.19 3.553 7.19-5.076-2.708-6.007-5.33-0.423-5.837-0.423-5.837-2.961 2.961-1.438 8.46 2.454 4.822 6.684 7.783 5.668 4.568 6.43 6.514 1.354 3.723 1.354 3.723 1.776-2.031 0.507-4.992-4.822-6.176-4.822-6.176 6.006 0.761 7.106 3.892-0.677 3.808 1.185 6.261 3.553 2.283 3.553 2.283z"/>
<path d="m167.83 30.337s-2.623 3.723-1.776 6.261 1.015 6.176 1.015 6.176-2.369-4.061-2.369-6.768 2.707-4.907 3.13-5.669z"/>
<path d="m152.18 56.986s2.453 4.822 1.354 9.813-1.522 5.33-4.653 8.968-4.653 2.792-4.484 6.345 0.846 5.499 0.846 5.499-3.976-4.822-1.354-10.321 4.738-5.499 6.514-8.122 3.553-3.13 1.777-12.182z"/>
<path d="m144.99 55.463s-1.776 3.638-1.1 5.753 2.961 3.214 3.045 5.752-1.185 4.23-1.185 4.23 0.508-3.891-1.354-6.345-2.961-4.484-2.284-6.43 1.1-2.792 0.931-4.653-1.607-4.991-1.607-4.991 3.638 3.131 3.554 6.684z"/>
<path d="m153.28 37.189s-1.016 2.453 0.338 3.976 3.385 4.23 3.3 6.768-1.607 2.792-0.846 4.568 1.946 5.668 1.946 5.668-4.314-2.961-3.722-6.937 1.353-4.23 0.253-6.599-3.469-4.144-1.269-7.444z"/>
<path d="m153.11 44.803s0.846 2.538-0.338 4.738-1.523 2.03-1.438 3.892 0.169 2.792 0.169 2.792-2.369-1.861-1.692-4.061 2.284-2.792 2.623-4.314 0.676-3.047 0.676-3.047z"/>
<path d="m130.19 48.78s0.847 3.045 1.016 4.314-0.592 2.284-0.592 3.299 0.761 3.976 0.761 3.976-2.368-3.722-1.776-6.006 0.759-3.806 0.591-5.583z"/>
<path d="m132.22 56.14s0 2.538 1.1 3.807 1.946 2.961 1.269 6.091-0.846 3.299-0.084 5.668 1.354 1.946 0.761 5.415-0.677 5.33 0 6.514 1.692 2.538 1.692 2.538-4.23-1.945-3.553-6.429 0.254-6.514-0.507-7.699-1.777-4.822-0.508-7.021 0.762-4.061 0.254-5.076-0.424-3.808-0.424-3.808z"/>
<path d="m140.76 84.48s-1.861 4.484 0.169 8.122 3.892 6.091 3.892 6.091-6.176-2.623-6.091-7.275 2.03-6.938 2.03-6.938z"/>
<path d="m133.06 86.511s-1.861 4.738 4.399 11.336 10.913 9.56 10.913 9.56-9.644-4.061-13.62-9.729-1.692-11.167-1.692-11.167z"/>
<path d="m182.89 37.359s1.777 3.131 0.508 6.007-4.062 3.553-2.623 7.021 1.1 5.922 0.423 7.868-0.761 2.708-0.761 2.708 0.591-2.623-0.17-5.668-2.453-5.33-1.522-8.291 2.961-3.384 3.384-5.076 0.761-4.569 0.761-4.569z"/>
<path d="m183.48 46.834s-1e-3 4.399 1.1 7.106 2.201 5.16 0.678 9.221-2.2 5.668-2.2 5.668 2.116-8.122 1.27-10.914-1.607-7.021-1.607-8.544 0.759-2.537 0.759-2.537z"/>
</g>
<path d="m81.089 368.51s7.59 3.796 18.38 4.763 17.71 0.372 17.71 0.372l-1.339 23.068s-10.79 0.744-22.175-0.818-17.637-5.581-17.637-5.581 7.144-1.116 14.883-6.995c-8.557-6.549-9.822-14.809-9.822-14.809z" fill="#fff" stroke="#000"/>
<polygon points="101.15 384.93 117.18 373.64 119.26 396.64 109.18 406.5" fill="#bacad3" stroke="#000" stroke-linecap="round" stroke-linejoin="round"/>
<path d="m257.16 368.51s-7.59 3.796-18.38 4.763-17.71 0.372-17.71 0.372l1.339 23.068s10.79 0.744 22.175-0.818c11.387-1.563 17.637-5.581 17.637-5.581s-7.144-1.116-14.883-6.995c8.558-6.549 9.822-14.809 9.822-14.809z" fill="#fff" stroke="#000"/>
<polygon points="237.1 384.93 221.07 373.64 218.98 396.64 229.07 406.5" fill="#bacad3" stroke="#000" stroke-linecap="round" stroke-linejoin="round"/>
<path d="m171.59 395.48c34.643 0 57.475 11.022 57.475 11.022l8.03-21.572s-26.139-12.282-65.819-12.282h-4.311c-39.681 0-65.819 12.282-65.819 12.282l8.03 21.572s22.832-11.022 57.474-11.022h4.94z" fill="#fff" stroke="#000"/>
<path d="m106.06 76.455s-22.022 17.298-36.402 37.607-16.659 43.052-16.665 64.458c0 0-0.011 43.784-0.015 63.315-5e-3 19.531 5.769 49.655 28.263 74.816 22.494 25.162 55.304 36.732 81.554 36.738" fill="none" stroke="#9a6104" stroke-linecap="round" stroke-linejoin="round" stroke-width="4"/>
<path d="m122.37 66.05s-2.509 5.266-7.777 8.274-10.535 3.885-10.535 3.885 0.879-5.016 6.774-9.153 11.538-3.006 11.538-3.006z" fill="#e9c31e" stroke="#9a6104" stroke-linecap="round" stroke-linejoin="round"/>
<path d="m119.56 67.419s-5.095 2.266-8.23 4.522c-3.135 2.257-5.268 4.514-5.268 4.514s0.675-3.295 5.567-6.555c4.892-3.259 7.931-2.481 7.931-2.481z" fill="#ffeb95"/>
<path d="m105.12 60.071s1.901 5.515 0.252 11.353c-1.648 5.838-4.791 10.155-4.791 10.155s-2.888-4.194-1.583-11.276c1.304-7.082 6.122-10.232 6.122-10.232z" fill="#e9c31e" stroke="#9a6104" stroke-linecap="round" stroke-linejoin="round"/>
<path d="m104.08 63.016s-2.046 5.187-2.701 8.994-0.594 6.911-0.594 6.911-1.828-2.824-0.623-8.577c1.205-5.754 3.918-7.328 3.918-7.328z" fill="#ffeb95"/>
<path d="m122.63 82.479s-5.118 2.8-11.15 2.154c-6.031-0.645-10.815-3.018-10.815-3.018s3.649-3.551 10.851-3.454 11.114 4.318 11.114 4.318z" fill="#e9c31e" stroke="#9a6104" stroke-linecap="round" stroke-linejoin="round"/>
<path d="m119.55 81.946s-5.457-1.146-9.32-1.152-6.913 0.575-6.913 0.575 2.477-2.276 8.351-2.054c5.874 0.221 7.882 2.631 7.882 2.631z" fill="#ffeb95"/>
<path d="m95.984 67.358s1.901 5.515 0.252 11.353c-1.648 5.838-4.791 10.155-4.791 10.155s-2.888-4.193-1.583-11.276 6.122-10.232 6.122-10.232z" fill="#e9c31e" stroke="#9a6104" stroke-linecap="round" stroke-linejoin="round"/>
<path d="m94.942 70.302s-2.046 5.187-2.701 8.994-0.594 6.911-0.594 6.911-1.828-2.823-0.623-8.577 3.918-7.328 3.918-7.328z" fill="#ffeb95"/>
<path d="m113.5 89.766s-5.118 2.801-11.15 2.155c-6.032-0.645-10.815-3.018-10.815-3.018s3.649-3.551 10.851-3.454c7.201 0.097 11.114 4.317 11.114 4.317z" fill="#e9c31e" stroke="#9a6104" stroke-linecap="round" stroke-linejoin="round"/>
<path d="m110.42 89.233s-5.456-1.146-9.319-1.153-6.913 0.575-6.913 0.575 2.477-2.276 8.351-2.054 7.881 2.632 7.881 2.632z" fill="#ffeb95"/>
<path d="m83.93 76.654s2.746 5.146 2.036 11.172c-0.709 6.024-3.133 10.782-3.133 10.782s-3.512-3.687-3.338-10.887c0.173-7.2 4.435-11.067 4.435-11.067z" fill="#e9c31e" stroke="#9a6104" stroke-linecap="round" stroke-linejoin="round"/>
<path d="m83.363 79.725s-1.205 5.445-1.252 9.308c-0.047 3.862 0.501 6.918 0.501 6.918s-2.25-2.5-1.965-8.372 2.716-7.854 2.716-7.854z" fill="#ffeb95"/>
<path d="m104.75 96.026s-4.613 3.571-10.672 3.883c-6.058 0.313-11.156-1.278-11.156-1.278s3.045-4.081 10.172-5.119c7.127-1.037 11.656 2.514 11.656 2.514z" fill="#e9c31e" stroke="#9a6104" stroke-linecap="round" stroke-linejoin="round"/>
<path d="m101.62 95.984s-5.569-0.273-9.385 0.329-6.736 1.656-6.736 1.656 2.088-2.638 7.923-3.343c5.836-0.707 8.198 1.358 8.198 1.358z" fill="#ffeb95"/>
<path d="m75.594 85.68s2.745 5.146 2.035 11.172c-0.709 6.024-3.133 10.782-3.133 10.782s-3.512-3.687-3.338-10.887 4.436-11.067 4.436-11.067z" fill="#e9c31e" stroke="#9a6104" stroke-linecap="round" stroke-linejoin="round"/>
<path d="m75.027 88.75s-1.204 5.445-1.252 9.308c-0.047 3.862 0.501 6.918 0.501 6.918s-2.249-2.5-1.965-8.372c0.285-5.871 2.716-7.854 2.716-7.854z" fill="#ffeb95"/>
<path d="m96.413 105.05s-4.613 3.571-10.672 3.883c-6.058 0.313-11.155-1.278-11.155-1.278s3.045-4.082 10.172-5.119 11.655 2.514 11.655 2.514z" fill="#e9c31e" stroke="#9a6104" stroke-linecap="round" stroke-linejoin="round"/>
<path d="m93.29 105.01s-5.569-0.273-9.385 0.329-6.736 1.656-6.736 1.656 2.088-2.638 7.923-3.343c5.835-0.707 8.198 1.358 8.198 1.358z" fill="#ffeb95"/>
<path d="m65.912 95.545s3.272 4.829 3.201 10.895-1.981 11.052-1.981 11.052-3.881-3.296-4.466-10.474 3.246-11.473 3.246-11.473z" fill="#e9c31e" stroke="#9a6104" stroke-linecap="round" stroke-linejoin="round"/>
<path d="m65.672 98.658s-0.625 5.541-0.266 9.387c0.36 3.846 1.226 6.827 1.226 6.827s-2.499-2.25-2.834-8.119c-0.336-5.867 1.874-8.095 1.874-8.095z" fill="#ffeb95"/>
<path d="m88.654 112.62s-4.212 4.037-10.204 4.984c-5.992 0.949-11.228-0.097-11.228-0.097s2.598-4.378 9.576-6.161c6.979-1.782 11.856 1.274 11.856 1.274z" fill="#e9c31e" stroke="#9a6104" stroke-linecap="round" stroke-linejoin="round"/>
<path d="m85.544 112.9s-5.567 0.314-9.298 1.314c-3.732 1-6.524 2.356-6.524 2.356s1.798-2.843 7.527-4.158c5.728-1.316 8.295 0.488 8.295 0.488z" fill="#ffeb95"/>
<path d="m56.579 107.24s4.223 4.917 4.91 11.622c0.688 6.706-0.789 12.451-0.789 12.451s-4.7-3.147-6.253-10.998c-1.553-7.85 2.132-13.075 2.132-13.075z" fill="#e9c31e" stroke="#9a6104" stroke-linecap="round" stroke-linejoin="round"/>
<path d="m56.708 110.7s0.01 6.196 0.894 10.396c0.883 4.2 2.217 7.381 2.217 7.381s-3.044-2.168-4.156-8.604c-1.112-6.435 1.045-9.173 1.045-9.173z" fill="#ffeb95"/>
<path d="m82.142 120.15s-3.32 5.566-9.458 8.351c-6.139 2.786-12.056 3.212-12.056 3.212s1.491-5.458 8.439-9.426c6.948-3.97 13.075-2.137 13.075-2.137z" fill="#e9c31e" stroke="#9a6104" stroke-linecap="round" stroke-linejoin="round"/>
<path d="m78.894 121.38s-5.87 1.98-9.571 4.153c-3.702 2.173-6.293 4.449-6.293 4.449s1.087-3.576 6.834-6.676c5.748-3.101 9.03-1.926 9.03-1.926z" fill="#ffeb95"/>
<path d="m48.323 123.01s4.921 4.218 6.618 10.741c1.699 6.523 1.11 12.427 1.11 12.427s-5.124-2.397-7.851-9.921c-2.726-7.523 0.123-13.247 0.123-13.247z" fill="#e9c31e" stroke="#9a6104" stroke-linecap="round" stroke-linejoin="round"/>
<path d="m48.977 126.41s0.951 6.123 2.462 10.14 3.312 6.959 3.312 6.959-3.338-1.68-5.414-7.873c-2.077-6.193-0.36-9.226-0.36-9.226z" fill="#ffeb95"/>
<path d="m75.55 131.89s-2.436 6.005-8.081 9.689c-5.645 3.686-11.428 5.006-11.428 5.006s0.644-5.621 6.91-10.599c6.264-4.978 12.599-4.096 12.599-4.096z" fill="#e9c31e" stroke="#9a6104" stroke-linecap="round" stroke-linejoin="round"/>
<path d="m72.526 133.59s-5.501 2.848-8.83 5.558-5.544 5.353-5.544 5.353 0.531-3.7 5.741-7.636c5.211-3.938 8.633-3.275 8.633-3.275z" fill="#ffeb95"/>
<path d="m44.289 137.41s5.346 3.831 7.681 10.828c2.336 6.995 2.32 13.712 2.32 13.712s-5.373-1.754-8.838-9.684-1.163-14.856-1.163-14.856z" fill="#e9c31e" stroke="#9a6104" stroke-linecap="round" stroke-linejoin="round"/>
<path d="m45.275 141.1s1.547 6.684 3.454 10.908c1.905 4.224 3.997 7.191 3.997 7.191s-3.512-1.277-6.195-7.833c-2.683-6.558-1.256-10.266-1.256-10.266z" fill="#ffeb95"/>
<path d="m72.466 142.41s-1.861 7.167-7.167 12.316c-5.306 5.15-10.981 7.678-10.981 7.678s0.102-6.41 5.906-13.121c5.802-6.71 12.242-6.873 12.242-6.873z" fill="#e9c31e" stroke="#9a6104" stroke-linecap="round" stroke-linejoin="round"/>
<path d="m69.598 144.87s-5.243 4.187-8.319 7.825c-3.078 3.639-5.044 7-5.044 7s0.173-4.238 5.019-9.592c4.846-5.355 8.344-5.233 8.344-5.233z" fill="#ffeb95"/>
<path d="m41.1 152.84s5.627 3.581 8.523 10.361c2.897 6.779 3.432 13.36 3.432 13.36s-5.483-1.546-9.58-9.204c-4.095-7.657-2.375-14.517-2.375-14.517z" fill="#e9c31e" stroke="#9a6104" stroke-linecap="round" stroke-linejoin="round"/>
<path d="m42.384 156.43s2.087 6.499 4.329 10.575c2.24 4.078 4.563 6.917 4.563 6.917s-3.595-1.137-6.8-7.476c-3.206-6.338-2.092-10.016-2.092-10.016z" fill="#ffeb95"/>
<path d="m69.513 156.84s-1.261 7.081-6.11 12.296c-4.85 5.217-10.281 7.875-10.281 7.875s-0.426-6.283 4.79-13.044c5.214-6.762 11.601-7.127 11.601-7.127z" fill="#e9c31e" stroke="#9a6104" stroke-linecap="round" stroke-linejoin="round"/>
<path d="m66.864 159.34s-4.866 4.271-7.624 7.934c-2.759 3.664-4.437 7.02-4.437 7.02s-0.176-4.159 4.2-9.559c4.375-5.402 7.861-5.395 7.861-5.395z" fill="#ffeb95"/>
<path d="m39.452 169.35s5.876 3.156 9.264 9.705c3.388 6.547 4.406 13.071 4.406 13.071s-5.583-1.138-10.231-8.474c-4.648-7.335-3.439-14.302-3.439-14.302z" fill="#e9c31e" stroke="#9a6104" stroke-linecap="round" stroke-linejoin="round"/>
<path d="m40.998 172.83s2.56 6.328 5.095 10.228c2.535 3.902 5.061 6.563 5.061 6.563s-3.669-0.869-7.333-6.955c-3.664-6.085-2.823-9.836-2.823-9.836z" fill="#ffeb95"/>
<path d="m68.083 171.24s-0.736 7.154-5.188 12.712c-4.452 5.56-9.673 8.61-9.673 8.61s-0.888-6.234 3.817-13.361c4.702-7.126 11.044-7.961 11.044-7.961z" fill="#e9c31e" stroke="#9a6104" stroke-linecap="round" stroke-linejoin="round"/>
<path d="m65.625 173.93s-4.538 4.618-7.019 8.474c-2.482 3.857-3.908 7.328-3.908 7.328s-0.481-4.134 3.484-9.842c3.966-5.71 7.443-5.96 7.443-5.96z" fill="#ffeb95"/>
<path d="m39.25 185.18s5.875 3.157 9.263 9.705c3.388 6.547 4.406 13.071 4.406 13.071s-5.583-1.139-10.23-8.474c-4.648-7.335-3.439-14.302-3.439-14.302z" fill="#e9c31e" stroke="#9a6104" stroke-linecap="round" stroke-linejoin="round"/>
<path d="m40.795 188.66s2.56 6.328 5.095 10.228c2.535 3.902 5.061 6.563 5.061 6.563s-3.669-0.87-7.333-6.955c-3.663-6.085-2.823-9.836-2.823-9.836z" fill="#ffeb95"/>
<path d="m67.881 187.08s-0.736 7.154-5.189 12.712c-4.452 5.56-9.673 8.61-9.673 8.61s-0.888-6.234 3.817-13.361c4.703-7.126 11.045-7.961 11.045-7.961z" fill="#e9c31e" stroke="#9a6104" stroke-linecap="round" stroke-linejoin="round"/>
<path d="m65.423 189.76s-4.538 4.618-7.019 8.474c-2.482 3.857-3.908 7.328-3.908 7.328s-0.481-4.134 3.484-9.842c3.966-5.71 7.443-5.96 7.443-5.96z" fill="#ffeb95"/>
<path d="m38.729 201.25s5.988 2.938 9.614 9.357c3.627 6.418 4.885 12.9 4.885 12.9s-5.621-0.933-10.536-8.091c-4.915-7.159-3.963-14.166-3.963-14.166z" fill="#e9c31e" stroke="#9a6104" stroke-linecap="round" stroke-linejoin="round"/>
<path d="m40.401 204.67s2.792 6.229 5.469 10.033c2.677 3.806 5.299 6.372 5.299 6.372s-3.699-0.734-7.584-6.68c-3.885-5.945-3.184-9.725-3.184-9.725z" fill="#ffeb95"/>
<path d="m67.411 202.09s-0.472 7.176-4.717 12.895c-4.244 5.72-9.35 8.961-9.35 8.961s-1.117-6.197 3.322-13.493c4.437-7.296 10.745-8.363 10.745-8.363z" fill="#e9c31e" stroke="#9a6104" stroke-linecap="round" stroke-linejoin="round"/>
<path d="m65.054 204.86s-4.365 4.782-6.702 8.727c-2.338 3.946-3.635 7.467-3.635 7.467s-0.634-4.114 3.119-9.964c3.752-5.851 7.218-6.23 7.218-6.23z" fill="#ffeb95"/>
<path d="m38.825 216.59s5.988 2.938 9.614 9.356c3.627 6.419 4.885 12.901 4.885 12.901s-5.621-0.933-10.536-8.091-3.963-14.166-3.963-14.166z" fill="#e9c31e" stroke="#9a6104" stroke-linecap="round" stroke-linejoin="round"/>
<path d="m40.497 220.01s2.792 6.229 5.469 10.032c2.677 3.807 5.299 6.372 5.299 6.372s-3.698-0.733-7.584-6.68c-3.886-5.945-3.184-9.724-3.184-9.724z" fill="#ffeb95"/>
<path d="m67.506 217.43s-0.472 7.178-4.717 12.896c-4.244 5.72-9.349 8.96-9.349 8.96s-1.117-6.197 3.321-13.492c4.437-7.296 10.745-8.364 10.745-8.364z" fill="#e9c31e" stroke="#9a6104" stroke-linecap="round" stroke-linejoin="round"/>
<path d="m65.149 220.2s-4.365 4.782-6.702 8.727c-2.338 3.946-3.635 7.468-3.635 7.468s-0.634-4.115 3.119-9.965c3.753-5.852 7.218-6.23 7.218-6.23z" fill="#ffeb95"/>
<path d="m38.783 232.03s6.049 2.812 9.81 9.151c3.762 6.341 5.156 12.795 5.156 12.795s-5.64-0.813-10.705-7.866-4.261-14.08-4.261-14.08z" fill="#e9c31e" stroke="#9a6104" stroke-linecap="round" stroke-linejoin="round"/>
<path d="m40.527 235.42s2.922 6.168 5.679 9.915c2.757 3.748 5.433 6.258 5.433 6.258s-3.713-0.655-7.723-6.518-3.389-9.655-3.389-9.655z" fill="#ffeb95"/>
<path d="m67.476 232.27s-0.32 7.185-4.443 12.991c-4.123 5.808-9.159 9.155-9.159 9.155s-1.247-6.173 3.037-13.56c4.281-7.387 10.565-8.586 10.565-8.586z" fill="#e9c31e" stroke="#9a6104" stroke-linecap="round" stroke-linejoin="round"/>
<path d="m65.178 235.09s-4.263 4.872-6.517 8.866-3.476 7.543-3.476 7.543-0.721-4.101 2.908-10.028c3.628-5.93 7.085-6.381 7.085-6.381z" fill="#ffeb95"/>
<path d="m39.012 249.36s6.366 1.988 10.931 7.777c4.565 5.79 6.799 12.003 6.799 12.003s-5.698-0.063-11.649-6.386c-5.952-6.322-6.081-13.394-6.081-13.394z" fill="#e9c31e" stroke="#9a6104" stroke-linecap="round" stroke-linejoin="round"/>
<path d="m41.188 252.49s3.709 5.729 6.937 9.079c3.227 3.353 6.21 5.487 6.21 5.487s-3.768-0.16-8.515-5.443c-4.748-5.282-4.632-9.123-4.632-9.123z" fill="#ffeb95"/>
<path d="m67.484 245.81s0.63 7.164-2.691 13.464c-3.32 6.301-7.871 10.284-7.871 10.284s-2.05-5.955 1.221-13.843 9.341-9.905 9.341-9.905z" fill="#e9c31e" stroke="#9a6104" stroke-linecap="round" stroke-linejoin="round"/>
<path d="m65.579 248.91s-3.583 5.392-5.291 9.648-2.451 7.936-2.451 7.936-1.255-3.97 1.56-10.323c2.815-6.357 6.182-7.261 6.182-7.261z" fill="#ffeb95"/>
<path d="m41.059 267.12s6.688 1.406 12.264 7.259c5.576 5.854 8.91 12.469 8.91 12.469s-5.679 0.649-12.729-5.62c-7.052-6.272-8.445-14.108-8.445-14.108z" fill="#e9c31e" stroke="#9a6104" stroke-linecap="round" stroke-linejoin="round"/>
<path d="m43.783 270.32s4.714 5.893 8.524 9.206c3.809 3.314 7.159 5.31 7.159 5.31s-3.776 0.297-9.443-4.971c-5.668-5.266-6.24-9.545-6.24-9.545z" fill="#ffeb95"/>
<path d="m68.748 259.59s1.907 7.875-0.269 15.29c-2.177 7.414-5.991 12.411-5.991 12.411s-3.104-6.354-1.26-15.523c1.842-9.171 7.52-12.178 7.52-12.178z" fill="#e9c31e" stroke="#9a6104" stroke-linecap="round" stroke-linejoin="round"/>
<path d="m67.407 263.28s-2.6 6.438-3.538 11.379-1.02 9.12-1.02 9.12-1.958-4.25-0.293-11.658c1.663-7.413 4.851-8.841 4.851-8.841z" fill="#ffeb95"/>
<path d="m47.363 287.6s6.828 0.296 13.283 5.162c6.456 4.866 10.823 10.851 10.823 10.851s-5.498 1.565-13.476-3.471c-7.979-5.04-10.63-12.542-10.63-12.542z" fill="#e9c31e" stroke="#9a6104" stroke-linecap="round" stroke-linejoin="round"/>
<path d="m50.572 290.32s5.612 5.045 9.911 7.693c4.298 2.649 7.928 4.071 7.928 4.071s-3.677 0.908-10.127-3.364c-6.45-4.271-7.712-8.4-7.712-8.4z" fill="#ffeb95"/>
<path d="m73.453 275.66s3.166 7.458 2.227 15.129-3.887 13.222-3.887 13.222-4.099-5.764-3.774-15.109c0.323-9.35 5.434-13.242 5.434-13.242z" fill="#e9c31e" stroke="#9a6104" stroke-linecap="round" stroke-linejoin="round"/>
<path d="m72.731 279.51s-1.516 6.775-1.636 11.804 0.48 9.164 0.48 9.164-2.625-3.874-2.189-11.455c0.433-7.586 3.345-9.513 3.345-9.513z" fill="#ffeb95"/>
<path d="m56.771 305.21s6.815-0.51 13.799 3.563c6.984 4.071 12.026 9.5 12.026 9.5s-5.275 2.202-13.791-1.859c-8.517-4.064-12.034-11.204-12.034-11.204z" fill="#e9c31e" stroke="#9a6104" stroke-linecap="round" stroke-linejoin="round"/>
<path d="m60.278 307.53s6.167 4.351 10.748 6.474c4.581 2.125 8.353 3.109 8.353 3.109s-3.544 1.335-10.453-2.148c-6.908-3.483-8.648-7.435-8.648-7.435z" fill="#ffeb95"/>
<path d="m81.273 290.28s4.021 7.033 3.993 14.761c-0.029 7.728-2.303 13.588-2.303 13.588s-4.749-5.241-5.527-14.561c-0.78-9.322 3.837-13.788 3.837-13.788z" fill="#e9c31e" stroke="#9a6104" stroke-linecap="round" stroke-linejoin="round"/>
<path d="m81.011 294.19s-0.708 6.907-0.234 11.914 1.557 9.043 1.557 9.043-3.063-3.536-3.523-11.115c-0.466-7.584 2.2-9.842 2.2-9.842z" fill="#ffeb95"/>
<path d="m66.675 322.05s6.574-1.872 14.234 0.71c7.661 2.583 13.693 6.884 13.693 6.884s-4.724 3.22-13.883 0.957c-9.161-2.267-14.044-8.551-14.044-8.551z" fill="#e9c31e" stroke="#9a6104" stroke-linecap="round" stroke-linejoin="round"/>
<path d="m70.578 323.61s6.917 3.02 11.831 4.176c4.915 1.16 8.808 1.365 8.808 1.365s-3.203 2.021-10.672 0c-7.468-2.019-9.967-5.541-9.967-5.541z" fill="#ffeb95"/>
<path d="m87.669 302.49s5.355 6.078 6.884 13.653c1.527 7.576 0.479 13.774 0.479 13.774s-5.707-4.178-8.346-13.149c-2.641-8.974 0.983-14.278 0.983-14.278z" fill="#e9c31e" stroke="#9a6104" stroke-linecap="round" stroke-linejoin="round"/>
<path d="m88.199 306.37s0.698 6.907 2.169 11.717c1.472 4.809 3.346 8.544 3.346 8.544s-3.712-2.847-5.69-10.178c-1.981-7.335 0.175-10.083 0.175-10.083z" fill="#ffeb95"/>
<path d="m78.271 333.76s6.32-2.604 14.223-0.904c7.904 1.698 14.384 5.289 14.384 5.289s-4.329 3.732-13.685 2.522c-9.36-1.216-14.922-6.907-14.922-6.907z" fill="#e9c31e" stroke="#9a6104" stroke-linecap="round" stroke-linejoin="round"/>
<path d="m82.325 334.87s7.214 2.217 12.228 2.81c5.015 0.597 8.906 0.359 8.906 0.359s-2.954 2.371-10.604 1.208c-7.648-1.161-10.53-4.377-10.53-4.377z" fill="#ffeb95"/>
<path d="m96.915 311.95s6.009 5.434 8.385 12.786c2.376 7.354 2.037 13.632 2.037 13.632s-6.144-3.505-9.781-12.121c-3.641-8.618-0.641-14.297-0.641-14.297z" fill="#e9c31e" stroke="#9a6104" stroke-linecap="round" stroke-linejoin="round"/>
<path d="m97.881 315.75s1.476 6.785 3.482 11.397c2.007 4.61 4.292 8.109 4.292 8.109s-4.01-2.408-6.806-9.468c-2.799-7.062-0.968-10.038-0.968-10.038z" fill="#ffeb95"/>
<path d="m94.196 345.13s5.876-3.494 13.942-2.96c8.066 0.533 14.999 3.146 14.999 3.146s-3.741 4.322-13.174 4.482c-9.438 0.155-15.767-4.668-15.767-4.668z" fill="#e9c31e" stroke="#9a6104" stroke-linecap="round" stroke-linejoin="round"/>
<path d="m98.369 345.64s7.459 1.146 12.506 1.005c5.048-0.137 8.864-0.937 8.864-0.937s-2.578 2.774-10.315 2.734c-7.736-0.04-11.055-2.802-11.055-2.802z" fill="#ffeb95"/>
<path d="m109.48 320.84s6.734 4.504 10.152 11.435c3.417 6.932 3.993 13.191 3.993 13.191s-6.587-2.576-11.437-10.572c-4.853-8-2.708-14.054-2.708-14.054z" fill="#e9c31e" stroke="#9a6104" stroke-linecap="round" stroke-linejoin="round"/>
<path d="m110.98 324.46s2.445 6.498 5.1 10.771c2.655 4.269 5.423 7.4 5.423 7.4s-4.317-1.802-8.108-8.381c-3.794-6.582-2.415-9.79-2.415-9.79z" fill="#ffeb95"/>
<path d="m109.72 354.24s5.392-4.203 13.461-4.682c8.07-0.48 15.275 1.243 15.275 1.243s-3.17 4.757-12.51 6.096c-9.343 1.336-16.226-2.657-16.226-2.657z" fill="#e9c31e" stroke="#9a6104" stroke-linecap="round" stroke-linejoin="round"/>
<path d="m113.93 354.22s7.545 0.204 12.533-0.567c4.991-0.768 8.677-2.039 8.677-2.039s-2.21 3.075-9.892 4.004c-7.68 0.927-11.318-1.398-11.318-1.398z" fill="#ffeb95"/>
<path d="m121.85 328.23s7.245 3.625 11.503 10.073c4.258 6.449 5.612 12.587 5.612 12.587s-6.858-1.729-12.669-9.057c-5.816-7.328-4.446-13.603-4.446-13.603z" fill="#e9c31e" stroke="#9a6104" stroke-linecap="round" stroke-linejoin="round"/>
<path d="m123.8 331.63s3.239 6.141 6.407 10.048c3.168 3.904 6.307 6.665 6.307 6.665s-4.509-1.247-9.093-7.3c-4.588-6.058-3.621-9.413-3.621-9.413z" fill="#ffeb95"/>
<path d="m106.06 76.455s-22.022 17.298-36.402 37.607-16.659 43.052-16.665 64.458c0 0-0.011 43.784-0.015 63.315-5e-3 19.531 5.769 49.655 28.263 74.816 22.494 25.162 55.304 36.732 81.554 36.738" fill="none" stroke="#e9c31e" stroke-linecap="round" stroke-linejoin="round" stroke-width="2"/>
<path d="m217.57 76.566s-2.835 0.367-4.325-2.157c-1.492-2.524 0.733-4.474 0.733-4.474s-2.395-1.979-1-4.137c1.394-2.159 3.808-1.354 3.808-1.354s-1.654-2.658 0.73-3.757c2.382-1.1 2.859-0.159 2.859-0.159s-0.073-2.55 3.805-1.441c3.876 1.108 5.326 3.879 4.904 5.454-0.421 1.575-1.5 4.543-4.22 7.214-2.716 2.672-5.367 4.5-7.294 4.811z" fill="#ccdde7" stroke="#808285" stroke-linecap="round" stroke-linejoin="round"/>
<path d="m236.89 84.793s-2.299-3.538-5.578-4.991c-4.3 2.854-5.95 2.166-9.469 0.645-3.519-1.522-7.31-3.294-7.31-3.294s2.537-0.606 3.609-1.203c1.073-0.596 2.641-0.664 2.641-0.664s-0.33-0.352-1.01-1.578c-0.681-1.226-1.3-2.22-1.3-2.22s0.258-0.142 1.642-0.176c1.385-0.034 2.878 6e-3 2.878 6e-3s-1.079-1.339-1.453-2.134c-0.373-0.795-0.873-2.055-0.873-2.055s2.267 0.347 3.185 0.438c0.919 0.091 1.946 0.857 1.946 0.857s-0.408-2.179-0.556-2.565-0.702-1.75-0.702-1.75 1.855 1.176 2.496 1.488c0.642 0.313 1.562 1.005 1.562 1.005s-0.277-1.583 0.239-2.338 0.086-2.856-0.228-3.418c-0.311-0.562-0.117-0.937-0.117-0.937s5.746 10.713 5.824 13.143-1.129 4.722-1.129 4.722 1.644 1.168 3.314 3.266c1.725 2.159 2.629 3.578 2.629 3.578l-2.24 0.175z" fill="#00ab4e" stroke="#005a24" stroke-linecap="round" stroke-linejoin="round"/>
<path d="m214.33 71.128c-0.964-0.276-0.918 2.456-6e-3 3.396 0.911 0.94 1.97 1.244 2.71 0.775 0.743-0.467 0.28-1.601 0.28-1.601s-1.276 0.208-1.635-1.04c-0.357-1.247-1.018-1.435-1.349-1.53z" fill="#fff"/>
<path d="m216.24 69.956c-0.174-0.1-1.911 0.062-2.616-1.606-0.703-1.667 0.304-3.061 1.12-2.791 0.818 0.269 0.979 1.459 1.913 1.941 0.935 0.483 1.799 1.337 1.44 1.593-0.359 0.254-1.365 1.147-1.857 0.863z" fill="#fff"/>
<path d="m217.92 64.531c-0.21-0.115-1.541-2.127-0.938-2.5 0.604-0.371 0.817 0.579 1.668 0.731 0.85 0.155 1.334 0.217 1.491 0.903 0.155 0.688-0.99 1.545-2.221 0.866z" fill="#fff"/>
<path d="m223.28 62.49c-0.371-0.187-1.725-1.602-1.491-2.286 0.231-0.686 0.976-1.045 1.746-0.359s1.359 1.247 1.267 1.578c-0.094 0.33-0.365 1.648-1.522 1.067z" fill="#fff"/>
<path d="m218.09 68.875c-0.561 0.287-1.101 0.915-1.347 1.481-0.23 0.53-0.035 0.949 0.08 1.448" fill="none" stroke="#808285" stroke-linecap="round" stroke-linejoin="round"/>
<path d="m218.15 66.783c0.198-0.944 0.671-1.597 1.777-1.709" fill="none" stroke="#808285" stroke-linecap="round" stroke-linejoin="round"/>
<path d="m221.29 63.425c0.343-0.393 0.403-0.914 0.985-0.949 0.308-0.018 0.688 0.13 0.904 0.344" fill="none" stroke="#808285" stroke-linecap="round" stroke-linejoin="round"/>
<path d="m220.36 60.439c0.283 0.705 0.806 2.047 1.598 2.173" fill="none" stroke="#808285" stroke-linecap="round" stroke-linejoin="round"/>
<path d="m216.59 64.369c0.251 0.347 0.893 0.449 1.244 0.646 0.352 0.196 0.48 0.359 0.687 0.729" fill="none" stroke="#808285" stroke-linecap="round" stroke-linejoin="round"/>
<path d="m213.96 70.165c0.567-0.306 1.17-0.146 1.752-0.074 0.458 0.057 0.643-0.026 0.922 0.48" fill="none" stroke="#808285" stroke-linecap="round" stroke-linejoin="round"/>
<path d="m230.13 85.722s-2.923 0.379-4.459-2.224c-1.538-2.603 0.756-4.612 0.756-4.612s-2.468-2.04-1.03-4.265c1.436-2.226 3.925-1.397 3.925-1.397s-1.705-2.739 0.753-3.873c2.456-1.134 2.949-0.164 2.949-0.164s-0.076-2.629 3.921-1.486 5.492 4 5.057 5.624c-0.434 1.623-1.547 4.683-4.35 7.437-2.802 2.754-5.535 4.639-7.522 4.96z" fill="#ccdde7" stroke="#808285" stroke-linecap="round" stroke-linejoin="round"/>
<path d="m250.05 94.202s-2.371-3.647-5.752-5.146c-4.432 2.943-6.134 2.233-9.762 0.666-3.627-1.569-7.536-3.396-7.536-3.396s2.615-0.625 3.722-1.24c1.106-0.614 2.722-0.684 2.722-0.684s-0.34-0.363-1.041-1.627-1.34-2.289-1.34-2.289 0.266-0.146 1.692-0.181c1.428-0.035 2.967 6e-3 2.967 6e-3s-1.112-1.38-1.498-2.2c-0.385-0.82-0.9-2.119-0.9-2.119s2.337 0.357 3.284 0.451 2.007 0.883 2.007 0.883-0.422-2.246-0.573-2.644c-0.152-0.398-0.725-1.804-0.725-1.804s1.913 1.212 2.573 1.534c0.662 0.323 1.611 1.036 1.611 1.036s-0.287-1.632 0.245-2.41c0.532-0.779 0.089-2.945-0.233-3.524-0.321-0.579-0.121-0.966-0.121-0.966s5.924 11.045 6.005 13.549c0.081 2.506-1.164 4.869-1.164 4.869s1.694 1.204 3.417 3.366c1.778 2.226 2.711 3.688 2.711 3.688l-2.311 0.182z" fill="#00ab4e" stroke="#005a24" stroke-linecap="round" stroke-linejoin="round"/>
<path d="m226.79 80.115c-0.994-0.284-0.947 2.532-7e-3 3.501 0.939 0.969 2.031 1.282 2.794 0.799 0.766-0.482 0.289-1.65 0.289-1.65s-1.315 0.213-1.686-1.073c-0.367-1.285-1.049-1.479-1.39-1.577z" fill="#fff"/>
<path d="m228.76 78.907c-0.179-0.103-1.971 0.063-2.697-1.656-0.725-1.719 0.313-3.155 1.155-2.877 0.844 0.277 1.009 1.504 1.972 2.001 0.964 0.498 1.854 1.378 1.485 1.642-0.37 0.262-1.408 1.182-1.915 0.89z" fill="#fff"/>
<path d="m230.49 73.314c-0.216-0.119-1.588-2.193-0.967-2.577 0.623-0.383 0.842 0.596 1.719 0.754 0.877 0.16 1.376 0.224 1.538 0.931 0.16 0.708-1.02 1.592-2.29 0.892z" fill="#fff"/>
<path d="m236.01 71.209c-0.383-0.193-1.777-1.652-1.537-2.357 0.238-0.707 1.006-1.077 1.8-0.371 0.795 0.707 1.402 1.286 1.306 1.627s-0.377 1.701-1.569 1.101z" fill="#fff"/>
<path d="m230.66 77.793c-0.577 0.295-1.134 0.943-1.388 1.526-0.237 0.546-0.036 0.978 0.082 1.493" fill="none" stroke="#808285" stroke-linecap="round" stroke-linejoin="round"/>
<path d="m230.72 75.635c0.204-0.973 0.691-1.646 1.832-1.762" fill="none" stroke="#808285" stroke-linecap="round" stroke-linejoin="round"/>
<path d="m233.96 72.174c0.354-0.405 0.416-0.943 1.016-0.979 0.317-0.018 0.71 0.134 0.934 0.355" fill="none" stroke="#808285" stroke-linecap="round" stroke-linejoin="round"/>
<path d="m233 69.095c0.291 0.726 0.83 2.11 1.646 2.24" fill="none" stroke="#808285" stroke-linecap="round" stroke-linejoin="round"/>
<path d="m229.11 73.146c0.259 0.358 0.92 0.463 1.283 0.666 0.362 0.202 0.495 0.37 0.707 0.752" fill="none" stroke="#808285" stroke-linecap="round" stroke-linejoin="round"/>
<path d="m226.41 79.122c0.586-0.315 1.207-0.15 1.807-0.077 0.473 0.059 0.663-0.026 0.951 0.495" fill="none" stroke="#808285" stroke-linecap="round" stroke-linejoin="round"/>
<path d="m240.93 94.711s-2.943 0.146-4.27-2.57c-1.326-2.716 1.12-4.538 1.12-4.538s-2.299-2.229-0.689-4.334c1.608-2.104 4.023-1.081 4.023-1.081s-1.483-2.866 1.058-3.801c2.538-0.936 2.953 0.07 2.953 0.07s0.132-2.626 4.026-1.17 5.157 4.422 4.596 6.006c-0.563 1.584-1.913 4.546-4.926 7.069-3.011 2.524-5.885 4.186-7.891 4.349z" fill="#ccdde7" stroke="#808285" stroke-linecap="round" stroke-linejoin="round"/>
<path d="m260.12 104.74s-2.074-3.823-5.325-5.585c-4.651 2.583-6.292 1.74-9.784-0.111-3.491-1.852-7.243-3.982-7.243-3.982s2.657-0.417 3.809-0.941c1.15-0.525 2.767-0.467 2.767-0.467s-0.31-0.389-0.908-1.704c-0.6-1.315-1.153-2.388-1.153-2.388s0.275-0.124 1.7-0.046c1.426 0.078 2.957 0.241 2.957 0.241s-0.998-1.464-1.318-2.312c-0.319-0.848-0.729-2.184-0.729-2.184s2.301 0.542 3.237 0.71c0.938 0.168 1.931 1.04 1.931 1.04s-0.241-2.273-0.362-2.681c-0.119-0.409-0.578-1.855-0.578-1.855s1.811 1.36 2.443 1.733c0.634 0.374 1.523 1.161 1.523 1.161s-0.157-1.65 0.436-2.383c0.593-0.734 0.322-2.929 0.047-3.532-0.273-0.603-0.045-0.973-0.045-0.973s5.03 11.479 4.912 13.983-1.546 4.761-1.546 4.761 1.593 1.334 3.14 3.626c1.595 2.36 2.409 3.892 2.409 3.892l-2.32-3e-3z" fill="#00ab4e" stroke="#005a24" stroke-linecap="round" stroke-linejoin="round"/>
<path d="m238.05 88.857c-0.969-0.362-1.145 2.449-0.284 3.49 0.859 1.041 1.923 1.439 2.722 1.018 0.802-0.42 0.419-1.623 0.419-1.623s-1.328 0.109-1.596-1.203c-0.265-1.31-0.929-1.557-1.261-1.682z" fill="#fff"/>
<path d="m240.1 87.81c-0.17-0.118-1.969-0.094-2.557-1.865-0.586-1.771 0.562-3.12 1.379-2.777 0.819 0.343 0.887 1.58 1.808 2.151 0.922 0.573 1.739 1.521 1.35 1.755-0.391 0.232-1.497 1.067-1.98 0.736z" fill="#fff"/>
<path d="m242.28 82.372c-0.206-0.136-1.41-2.312-0.761-2.645 0.651-0.333 0.792 0.661 1.654 0.887 0.86 0.229 1.353 0.332 1.459 1.05 0.104 0.719-1.142 1.505-2.352 0.708z" fill="#fff"/>
<path d="m247.94 80.71c-0.366-0.223-1.641-1.787-1.346-2.471 0.294-0.686 1.088-0.994 1.823-0.227 0.736 0.768 1.296 1.393 1.173 1.725-0.122 0.332-0.508 1.665-1.65 0.973z" fill="#fff"/>
<path d="m242.09 86.85c-0.6 0.249-1.206 0.85-1.505 1.412-0.279 0.526-0.113 0.972-0.035 1.495" fill="none" stroke="#808285" stroke-linecap="round" stroke-linejoin="round"/>
<path d="m242.32 84.703c0.28-0.954 0.819-1.585 1.966-1.611" fill="none" stroke="#808285" stroke-linecap="round" stroke-linejoin="round"/>
<path d="m245.83 81.51c0.385-0.376 0.49-0.907 1.091-0.895 0.317 7e-3 0.696 0.189 0.901 0.428" fill="none" stroke="#808285" stroke-linecap="round" stroke-linejoin="round"/>
<path d="m245.11 78.365c0.233 0.747 0.66 2.169 1.465 2.364" fill="none" stroke="#808285" stroke-linecap="round" stroke-linejoin="round"/>
<path d="m240.92 82.095c0.229 0.377 0.88 0.534 1.225 0.765 0.346 0.229 0.465 0.408 0.646 0.806" fill="none" stroke="#808285" stroke-linecap="round" stroke-linejoin="round"/>
<path d="m237.74 87.837c0.608-0.268 1.215-0.054 1.808 0.067 0.465 0.096 0.662 0.026 0.907 0.569" fill="none" stroke="#808285" stroke-linecap="round" stroke-linejoin="round"/>
<path d="m251.64 106.54s-3.09-0.287-4.064-3.316c-0.977-3.029 1.847-4.562 1.847-4.562s-2.063-2.667-0.071-4.62 4.354-0.524 4.354-0.524-1.116-3.209 1.671-3.804c2.785-0.595 3.067 0.515 3.067 0.515s0.53-2.717 4.371-0.617c3.839 2.099 4.713 5.379 3.891 6.946-0.823 1.566-2.675 4.452-6.191 6.629-3.516 2.181-6.76 3.484-8.875 3.353z" fill="#ccdde7" stroke="#808285" stroke-linecap="round" stroke-linejoin="round"/>
<path d="m270.13 119.86s-1.59-4.294-4.714-6.617c-5.232 1.996-6.816 0.873-10.179-1.579-3.361-2.451-6.953-5.233-6.953-5.233s2.831-0.036 4.11-0.411c1.277-0.375 2.953-0.072 2.953-0.072s-0.265-0.452-0.692-1.913c-0.427-1.46-0.846-2.66-0.846-2.66s0.306-0.088 1.78 0.206c1.475 0.295 3.045 0.694 3.045 0.694s-0.82-1.675-1.027-2.606c-0.206-0.931-0.435-2.385-0.435-2.385s2.317 0.909 3.268 1.225c0.952 0.316 1.856 1.372 1.856 1.372s0.089-2.405 0.023-2.849c-0.063-0.443-0.324-2.02-0.324-2.02s1.684 1.688 2.287 2.172c0.604 0.485 1.413 1.437 1.413 1.437s0.084-1.743 0.811-2.418c0.728-0.676 0.774-3.004 0.576-3.674-0.194-0.669 0.101-1.02 0.101-1.02s3.524 12.715 3.025 15.307c-0.496 2.592-2.322 4.73-2.322 4.73s1.461 1.629 2.729 4.249c1.311 2.698 1.93 4.417 1.93 4.417l-2.415-0.352z" fill="#00ab4e" stroke="#005a24" stroke-linecap="round" stroke-linejoin="round"/>
<path d="m249.5 100c-0.955-0.522-1.561 2.381-0.818 3.594 0.74 1.213 1.788 1.788 2.685 1.468 0.896-0.318 0.679-1.629 0.679-1.629s-1.401-0.085-1.483-1.492c-0.082-1.404-0.737-1.761-1.063-1.941z" fill="#fff"/>
<path d="m251.8 99.22c-0.159-0.147-2.038-0.392-2.386-2.325-0.346-1.933 1.053-3.168 1.853-2.687 0.803 0.479 0.688 1.777 1.562 2.511 0.875 0.735 1.585 1.846 1.145 2.03-0.442 0.184-1.72 0.889-2.174 0.471z" fill="#fff"/>
<path d="m254.88 93.878c-0.193-0.172-1.124-2.62-0.397-2.87 0.729-0.249 0.727 0.808 1.592 1.173 0.862 0.367 1.361 0.548 1.363 1.312-1e-3 0.764-1.418 1.398-2.558 0.385z" fill="#fff"/>
<path d="m261.04 92.995c-0.349-0.287-1.444-2.107-1.032-2.776 0.407-0.671 1.281-0.873 1.933 0.037 0.653 0.911 1.143 1.646 0.965 1.973-0.179 0.327-0.781 1.657-1.866 0.766z" fill="#fff"/>
<path d="m254.02 98.517c-0.661 0.17-1.384 0.706-1.78 1.246-0.368 0.506-0.263 0.996-0.259 1.553" fill="none" stroke="#808285" stroke-linecap="round" stroke-linejoin="round"/>
<path d="m254.58 96.315c0.435-0.952 1.092-1.53 2.29-1.385" fill="none" stroke="#808285" stroke-linecap="round" stroke-linejoin="round"/>
<path d="m258.71 93.512c0.458-0.334 0.647-0.872 1.271-0.77 0.33 0.054 0.698 0.302 0.876 0.581" fill="none" stroke="#808285" stroke-linecap="round" stroke-linejoin="round"/>
<path d="m258.44 90.126c0.13 0.813 0.361 2.36 1.172 2.682" fill="none" stroke="#808285" stroke-linecap="round" stroke-linejoin="round"/>
<path d="m253.51 93.387c0.183 0.427 0.837 0.688 1.162 0.98 0.326 0.291 0.423 0.495 0.553 0.937" fill="none" stroke="#808285" stroke-linecap="round" stroke-linejoin="round"/>
<path d="m249.34 98.896c0.675-0.188 1.274 0.125 1.874 0.339 0.472 0.17 0.687 0.127 0.861 0.729" fill="none" stroke="#808285" stroke-linecap="round" stroke-linejoin="round"/>
<path d="m260.57 120.12s-3.155-0.771-3.701-4.056c-0.546-3.286 2.611-4.439 2.611-4.439s-1.729-3.078 0.634-4.794c2.36-1.716 4.588 0.125 4.588 0.125s-0.664-3.493 2.313-3.682c2.975-0.189 3.097 1.003 3.097 1.003s0.965-2.732 4.62 0.031c3.652 2.761 4.056 6.291 2.965 7.787-1.093 1.496-3.451 4.199-7.426 5.915-3.973 1.717-7.532 2.57-9.701 2.11z" fill="#ccdde7" stroke="#808285" stroke-linecap="round" stroke-linejoin="round"/>
<path d="m277.67 136.75s-0.988-4.689-3.867-7.573c-5.723 1.265-7.19-0.141-10.297-3.194-3.104-3.052-6.396-6.483-6.396-6.483s2.937 0.396 4.318 0.204c1.379-0.192 3.068 0.378 3.068 0.378s-0.205-0.508-0.424-2.086c-0.219-1.577-0.469-2.884-0.469-2.884s0.331-0.045 1.813 0.486c1.48 0.531 3.045 1.185 3.045 1.185s-0.592-1.86-0.664-2.855c-0.07-0.996-0.084-2.535-0.084-2.535s2.26 1.295 3.195 1.768c0.937 0.473 1.711 1.705 1.711 1.705s0.46-2.476 0.461-2.945c2e-3 -0.469-0.026-2.141-0.026-2.141s1.485 2.005 2.035 2.599c0.552 0.595 1.243 1.704 1.243 1.704s0.354-1.792 1.209-2.379c0.857-0.589 1.262-2.992 1.16-3.715-0.1-0.722 0.26-1.041 0.26-1.041s1.701 13.704 0.789 16.31c-0.912 2.607-3.13 4.541-3.13 4.541s1.264 1.91 2.176 4.816c0.942 2.994 1.319 4.868 1.319 4.868l-2.445-0.733z" fill="#00ab4e" stroke="#005a24" stroke-linecap="round" stroke-linejoin="round"/>
<path d="m259.36 113.03c-0.91-0.687-1.979 2.226-1.397 3.595 0.581 1.369 1.577 2.125 2.554 1.932 0.978-0.192 0.953-1.582 0.953-1.582s-1.438-0.303-1.309-1.771c0.133-1.468-0.491-1.938-0.801-2.174z" fill="#fff"/>
<path d="m261.86 112.57c-0.142-0.177-2.05-0.718-2.114-2.773-0.062-2.055 1.575-3.118 2.33-2.498 0.757 0.619 0.439 1.945 1.231 2.839 0.794 0.895 1.359 2.154 0.874 2.278-0.483 0.123-1.914 0.656-2.321 0.154z" fill="#fff"/>
<path d="m265.87 107.51c-0.175-0.208-0.762-2.884 0.028-3.032 0.793-0.146 0.629 0.947 1.467 1.458 0.838 0.512 1.326 0.776 1.212 1.567-0.116 0.791-1.681 1.23-2.707 7e-3z" fill="#fff"/>
<path d="m272.38 107.54c-0.317-0.35-1.173-2.403-0.645-3.032 0.526-0.632 1.462-0.708 1.996 0.334 0.537 1.042 0.931 1.878 0.696 2.19-0.233 0.312-1.06 1.597-2.047 0.508z" fill="#fff"/>
<path d="m264.26 112.18c-0.71 0.075-1.54 0.519-2.033 1.018-0.459 0.467-0.425 0.99-0.506 1.567" fill="none" stroke="#808285" stroke-linecap="round" stroke-linejoin="round"/>
<path d="m265.19 109.99c0.595-0.919 1.364-1.417 2.583-1.083" fill="none" stroke="#808285" stroke-linecap="round" stroke-linejoin="round"/>
<path d="m269.89 107.72c0.524-0.276 0.803-0.803 1.433-0.602 0.333 0.107 0.676 0.42 0.817 0.736" fill="none" stroke="#808285" stroke-linecap="round" stroke-linejoin="round"/>
<path d="m270.12 104.17c0.011 0.862 0.014 2.499 0.803 2.957" fill="none" stroke="#808285" stroke-linecap="round" stroke-linejoin="round"/>
<path d="m264.52 106.79c0.124 0.47 0.761 0.84 1.053 1.192 0.294 0.352 0.363 0.578 0.43 1.055" fill="none" stroke="#808285" stroke-linecap="round" stroke-linejoin="round"/>
<path d="m259.36 111.86c0.727-0.091 1.3 0.325 1.888 0.639 0.462 0.249 0.691 0.237 0.779 0.887" fill="none" stroke="#808285" stroke-linecap="round" stroke-linejoin="round"/>
<path d="m267.66 135.21s-2.958-1.341-2.888-4.669c0.07-3.33 3.387-3.88 3.387-3.88s-1.13-3.345 1.509-4.594c2.637-1.25 4.485 0.97 4.485 0.97s-7e-3 -3.556 2.953-3.191c2.958 0.364 2.858 1.558 2.858 1.558s1.452-2.507 4.534 0.884c3.079 3.389 2.823 6.932 1.475 8.201-1.35 1.268-4.167 3.489-8.391 4.44-4.221 0.954-7.875 1.134-9.922 0.281z" fill="#ccdde7" stroke="#808285" stroke-linecap="round" stroke-linejoin="round"/>
<path d="m281.4 154.71s-0.104-4.791-2.401-8.157c-5.857 0.186-7.04-1.467-9.529-5.042-2.486-3.573-5.088-7.553-5.088-7.553s2.813 0.932 4.206 0.999c1.391 0.066 2.945 0.938 2.945 0.938s-0.107-0.538-0.031-2.128c0.077-1.59 0.072-2.92 0.072-2.92s0.334 0.017 1.691 0.812c1.357 0.796 2.774 1.727 2.774 1.727s-0.238-1.937-0.125-2.929c0.114-0.991 0.386-2.507 0.386-2.507s1.981 1.691 2.813 2.328c0.833 0.638 1.366 1.992 1.366 1.992s0.91-2.348 0.997-2.809c0.089-0.461 0.37-2.109 0.37-2.109s1.089 2.245 1.52 2.93c0.433 0.687 0.907 1.904 0.907 1.904s0.68-1.695 1.628-2.114c0.951-0.42 1.793-2.707 1.826-3.437 0.036-0.728 0.448-0.975 0.448-0.975s-0.86 13.782-2.238 16.175c-1.379 2.394-3.915 3.884-3.915 3.884s0.889 2.111 1.248 5.135c0.373 3.117 0.397 5.028 0.397 5.028l-2.267-1.172z" fill="#00ab4e" stroke="#005a24" stroke-linecap="round" stroke-linejoin="round"/>
<path d="m267.78 128.02c-0.769-0.843-2.357 1.822-2.038 3.275 0.318 1.453 1.157 2.379 2.152 2.371 0.997-9e-3 1.229-1.379 1.229-1.379s-1.357-0.563-0.959-1.983c0.402-1.417-0.124-1.994-0.384-2.284z" fill="#fff"/>
<path d="m270.33 128.03c-0.106-0.201-1.882-1.084-1.565-3.116 0.318-2.03 2.124-2.773 2.751-2.024 0.63 0.749 0.072 1.993 0.686 3.018 0.615 1.026 0.938 2.369 0.438 2.4-0.498 0.031-2.004 0.291-2.31-0.278z" fill="#fff"/>
<path d="m275.2 123.8c-0.134-0.237-0.216-2.976 0.588-2.975 0.807 3e-3 0.443 1.047 1.173 1.704 0.729 0.658 1.159 1.008 0.901 1.764-0.26 0.756-1.88 0.898-2.662-0.493z" fill="#fff"/>
<path d="m281.59 125.03c-0.247-0.402-0.709-2.578-0.073-3.099 0.634-0.524 1.567-0.425 1.9 0.697 0.335 1.124 0.567 2.018 0.279 2.282-0.287 0.263-1.338 1.373-2.106 0.12z" fill="#fff"/>
<path d="m272.76 128.09c-0.712-0.057-1.609 0.226-2.187 0.625-0.537 0.375-0.601 0.895-0.787 1.446" fill="none" stroke="#808285" stroke-linecap="round" stroke-linejoin="round"/>
<path d="m274.07 126.11c0.755-0.793 1.603-1.14 2.739-0.587" fill="none" stroke="#808285" stroke-linecap="round" stroke-linejoin="round"/>
<path d="m279.11 124.75c0.566-0.175 0.938-0.641 1.52-0.327 0.307 0.167 0.586 0.538 0.667 0.875" fill="none" stroke="#808285" stroke-linecap="round" stroke-linejoin="round"/>
<path d="m280 121.31c-0.148 0.85-0.448 2.458 0.242 3.055" fill="none" stroke="#808285" stroke-linecap="round" stroke-linejoin="round"/>
<path d="m274.01 122.85c0.035 0.485 0.592 0.966 0.814 1.366 0.224 0.4 0.25 0.636 0.227 1.116" fill="none" stroke="#808285" stroke-linecap="round" stroke-linejoin="round"/>
<path d="m268 126.87c0.731 0.044 1.218 0.559 1.737 0.977 0.408 0.33 0.636 0.36 0.603 1.015" fill="none" stroke="#808285" stroke-linecap="round" stroke-linejoin="round"/>
<path d="m271.61 152.67s-2.676-1.841-2.019-5.105c0.656-3.266 4.018-3.222 4.018-3.222s-0.522-3.492 2.295-4.256c2.816-0.766 4.244 1.746 4.244 1.746s0.621-3.501 3.471-2.621c2.847 0.88 2.538 2.038 2.538 2.038s1.871-2.212 4.307 1.67c2.434 3.879 1.558 7.321 6e-3 8.333-1.552 1.01-4.717 2.699-9.043 2.892-4.323 0.193-7.952-0.274-9.817-1.475z" fill="#ccdde7" stroke="#808285" stroke-linecap="round" stroke-linejoin="round"/>
<path d="m281.69 174.29s0.741-4.734-0.927-8.453c-5.797-0.851-6.67-2.686-8.489-6.644-1.818-3.956-3.677-8.332-3.677-8.332s2.604 1.413 3.964 1.724c1.357 0.311 2.733 1.444 2.733 1.444s-0.01-0.548 0.345-2.101c0.357-1.552 0.586-2.862 0.586-2.862s0.326 0.076 1.522 1.098c1.195 1.022 2.427 2.189 2.427 2.189s0.106-1.949 0.394-2.905c0.287-0.956 0.822-2.4 0.822-2.4s1.651 2.014 2.358 2.788 0.993 2.201 0.993 2.201 1.31-2.15 1.478-2.589 0.735-2.011 0.735-2.011 0.677 2.402 0.979 3.152c0.305 0.752 0.557 2.034 0.557 2.034s0.968-1.548 1.977-1.794c1.01-0.246 2.241-2.348 2.403-3.061 0.163-0.71 0.612-0.88 0.612-0.88s-3.277 13.415-5.056 15.527c-1.779 2.113-4.539 3.133-4.539 3.133s0.503 2.234 0.323 5.275c-0.183 3.134-0.496 5.02-0.496 5.02l-2.024-1.553z" fill="#00ab4e" stroke="#005a24" stroke-linecap="round" stroke-linejoin="round"/>
<path d="m273 145.62c-0.608-0.965-2.643 1.377-2.583 2.865 0.057 1.486 0.719 2.546 1.699 2.713 0.983 0.167 1.454-1.141 1.454-1.141s-1.236-0.794-0.595-2.121c0.646-1.324 0.23-1.985 0.025-2.316z" fill="#fff"/>
<path d="m275.5 146.07c-0.069-0.216-1.66-1.399-0.991-3.344 0.672-1.942 2.581-2.354 3.065-1.507 0.488 0.848-0.28 1.975 0.143 3.091 0.425 1.119 0.506 2.497 9e-3 2.439-0.497-0.056-2.025-0.066-2.226-0.679z" fill="#fff"/>
<path d="m281.04 142.77c-0.089-0.257 0.313-2.967 1.104-2.825 0.794 0.146 0.252 1.109 0.854 1.884 0.602 0.776 0.963 1.197 0.576 1.896-0.39 0.697-2.009 0.552-2.534-0.955z" fill="#fff"/>
<path d="m287.11 145.1c-0.173-0.439-0.243-2.663 0.475-3.063 0.716-0.404 1.617-0.142 1.747 1.021 0.132 1.166 0.203 2.087-0.128 2.295-0.328 0.209-1.559 1.117-2.094-0.253z" fill="#fff"/>
<path d="m277.88 146.56c-0.69-0.182-1.624-0.062-2.263 0.229-0.595 0.274-0.749 0.774-1.03 1.285" fill="none" stroke="#808285" stroke-linecap="round" stroke-linejoin="round"/>
<path d="m279.52 144.84c0.883-0.647 1.779-0.839 2.8-0.095" fill="none" stroke="#808285" stroke-linecap="round" stroke-linejoin="round"/>
<path d="m284.73 144.39c0.588-0.072 1.036-0.466 1.553-0.054 0.272 0.219 0.482 0.632 0.503 0.979" fill="none" stroke="#808285" stroke-linecap="round" stroke-linejoin="round"/>
<path d="m286.2 141.16c-0.296 0.81-0.876 2.341-0.301 3.049" fill="none" stroke="#808285" stroke-linecap="round" stroke-linejoin="round"/>
<path d="m280.04 141.62c-0.052 0.484 0.412 1.056 0.561 1.489 0.148 0.433 0.134 0.669 0.026 1.138" fill="none" stroke="#808285" stroke-linecap="round" stroke-linejoin="round"/>
<path d="m273.42 144.52c0.712 0.172 1.101 0.765 1.538 1.268 0.343 0.396 0.562 0.466 0.413 1.105" fill="none" stroke="#808285" stroke-linecap="round" stroke-linejoin="round"/>
<path d="m273.06 172.27s-2.676-1.841-2.019-5.105c0.656-3.266 4.018-3.222 4.018-3.222s-0.522-3.492 2.295-4.256c2.816-0.766 4.244 1.746 4.244 1.746s0.621-3.501 3.471-2.621c2.847 0.88 2.538 2.038 2.538 2.038s1.871-2.212 4.307 1.67c2.434 3.879 1.558 7.321 6e-3 8.333-1.552 1.01-4.717 2.699-9.043 2.892-4.324 0.193-7.953-0.274-9.817-1.475z" fill="#ccdde7" stroke="#808285" stroke-linecap="round" stroke-linejoin="round"/>
<path d="m283.14 193.89s0.741-4.734-0.927-8.453c-5.797-0.851-6.67-2.686-8.489-6.644-1.818-3.956-3.677-8.332-3.677-8.332s2.604 1.413 3.964 1.724c1.357 0.311 2.733 1.444 2.733 1.444s-0.01-0.548 0.345-2.101c0.357-1.552 0.586-2.862 0.586-2.862s0.326 0.076 1.522 1.098c1.195 1.022 2.427 2.189 2.427 2.189s0.106-1.949 0.394-2.905c0.287-0.956 0.822-2.4 0.822-2.4s1.651 2.014 2.358 2.788 0.993 2.201 0.993 2.201 1.31-2.15 1.478-2.589 0.735-2.011 0.735-2.011 0.677 2.402 0.979 3.152c0.305 0.752 0.557 2.034 0.557 2.034s0.968-1.548 1.977-1.794c1.01-0.246 2.241-2.348 2.403-3.061 0.163-0.71 0.612-0.88 0.612-0.88s-3.277 13.415-5.056 15.527c-1.779 2.113-4.539 3.133-4.539 3.133s0.503 2.234 0.323 5.275c-0.183 3.134-0.496 5.02-0.496 5.02l-2.024-1.553z" fill="#00ab4e" stroke="#005a24" stroke-linecap="round" stroke-linejoin="round"/>
<path d="m274.45 165.21c-0.608-0.965-2.643 1.377-2.583 2.865 0.057 1.486 0.719 2.546 1.699 2.713 0.983 0.167 1.454-1.141 1.454-1.141s-1.236-0.794-0.595-2.121c0.646-1.323 0.23-1.985 0.025-2.316z" fill="#fff"/>
<path d="m276.95 165.67c-0.069-0.216-1.66-1.399-0.991-3.344 0.672-1.942 2.581-2.354 3.065-1.507 0.488 0.848-0.28 1.975 0.143 3.091 0.425 1.119 0.506 2.497 9e-3 2.439-0.497-0.055-2.025-0.065-2.226-0.679z" fill="#fff"/>
<path d="m282.49 162.37c-0.089-0.257 0.313-2.967 1.104-2.825 0.794 0.146 0.252 1.109 0.854 1.884 0.602 0.776 0.963 1.197 0.576 1.896-0.39 0.698-2.008 0.553-2.534-0.955z" fill="#fff"/>
<path d="m288.56 164.7c-0.173-0.439-0.243-2.663 0.475-3.063 0.716-0.404 1.617-0.142 1.747 1.021 0.132 1.166 0.203 2.087-0.128 2.295-0.328 0.209-1.558 1.116-2.094-0.253z" fill="#fff"/>
<path d="m279.33 166.16c-0.69-0.182-1.624-0.062-2.263 0.229-0.595 0.274-0.749 0.774-1.03 1.285" fill="none" stroke="#808285" stroke-linecap="round" stroke-linejoin="round"/>
<path d="m280.97 164.44c0.883-0.647 1.779-0.839 2.8-0.095" fill="none" stroke="#808285" stroke-linecap="round" stroke-linejoin="round"/>
<path d="m286.18 163.99c0.588-0.072 1.036-0.466 1.553-0.054 0.272 0.219 0.482 0.632 0.503 0.979" fill="none" stroke="#808285" stroke-linecap="round" stroke-linejoin="round"/>
<path d="m287.66 160.76c-0.296 0.81-0.876 2.341-0.301 3.049" fill="none" stroke="#808285" stroke-linecap="round" stroke-linejoin="round"/>
<path d="m281.49 161.21c-0.052 0.484 0.412 1.056 0.561 1.489 0.148 0.433 0.134 0.669 0.026 1.138" fill="none" stroke="#808285" stroke-linecap="round" stroke-linejoin="round"/>
<path d="m274.87 164.12c0.712 0.172 1.101 0.765 1.538 1.268 0.343 0.396 0.562 0.466 0.413 1.105" fill="none" stroke="#808285" stroke-linecap="round" stroke-linejoin="round"/>
<path d="m272.81 191.35s-2.71-1.866-2.045-5.172c0.665-3.308 4.07-3.264 4.07-3.264s-0.529-3.537 2.325-4.312c2.853-0.775 4.299 1.769 4.299 1.769s0.63-3.547 3.517-2.655c2.884 0.891 2.571 2.064 2.571 2.064s1.896-2.241 4.363 1.692c2.465 3.929 1.577 7.417 6e-3 8.441-1.572 1.023-4.778 2.734-9.161 2.93-4.38 0.196-8.057-0.277-9.945-1.493z" fill="#ccdde7" stroke="#808285" stroke-linecap="round" stroke-linejoin="round"/>
<path d="m283.02 213.25s0.751-4.796-0.938-8.563c-5.873-0.862-6.757-2.721-8.601-6.73-1.842-4.008-3.725-8.441-3.725-8.441s2.638 1.432 4.016 1.747c1.375 0.315 2.77 1.463 2.77 1.463s-0.01-0.556 0.349-2.128c0.362-1.572 0.594-2.9 0.594-2.9s0.33 0.077 1.542 1.112c1.211 1.036 2.459 2.218 2.459 2.218s0.107-1.974 0.398-2.943c0.291-0.968 0.833-2.431 0.833-2.431s1.673 2.041 2.39 2.824c0.716 0.785 1.006 2.23 1.006 2.23s1.327-2.178 1.497-2.623 0.745-2.037 0.745-2.037 0.686 2.434 0.992 3.194c0.309 0.762 0.563 2.061 0.563 2.061s0.98-1.569 2.003-1.817c1.022-0.25 2.271-2.379 2.435-3.101 0.165-0.72 0.62-0.892 0.62-0.892s-3.32 13.59-5.122 15.729c-1.802 2.141-4.598 3.174-4.598 3.174s0.509 2.264 0.327 5.344c-0.185 3.175-0.502 5.085-0.502 5.085l-2.053-1.575z" fill="#00ab4e" stroke="#005a24" stroke-linecap="round" stroke-linejoin="round"/>
<path d="m274.22 184.2c-0.616-0.978-2.677 1.396-2.617 2.902 0.058 1.505 0.729 2.579 1.722 2.748 0.996 0.169 1.474-1.155 1.474-1.155s-1.253-0.805-0.603-2.148c0.653-1.342 0.232-2.011 0.024-2.347z" fill="#fff"/>
<path d="m276.75 184.67c-0.07-0.219-1.682-1.417-1.004-3.387 0.681-1.968 2.615-2.385 3.105-1.527 0.495 0.858-0.284 2 0.145 3.131 0.431 1.134 0.513 2.53 9e-3 2.471-0.504-0.056-2.051-0.066-2.255-0.688z" fill="#fff"/>
<path d="m282.37 181.32c-0.09-0.26 0.317-3.006 1.118-2.862 0.805 0.147 0.256 1.124 0.866 1.909 0.609 0.786 0.976 1.212 0.583 1.92-0.395 0.707-2.034 0.56-2.567-0.967z" fill="#fff"/>
<path d="m288.52 183.69c-0.176-0.445-0.247-2.698 0.48-3.104 0.726-0.41 1.639-0.144 1.77 1.035 0.134 1.181 0.206 2.114-0.129 2.325-0.332 0.211-1.579 1.131-2.121-0.256z" fill="#fff"/>
<path d="m279.17 185.16c-0.699-0.185-1.645-0.062-2.292 0.232-0.603 0.278-0.759 0.785-1.044 1.302" fill="none" stroke="#808285" stroke-linecap="round" stroke-linejoin="round"/>
<path d="m280.83 183.42c0.895-0.656 1.803-0.85 2.837-0.096" fill="none" stroke="#808285" stroke-linecap="round" stroke-linejoin="round"/>
<path d="m286.1 182.96c0.596-0.073 1.05-0.472 1.573-0.055 0.275 0.221 0.488 0.64 0.509 0.991" fill="none" stroke="#808285" stroke-linecap="round" stroke-linejoin="round"/>
<path d="m287.6 179.69c-0.3 0.82-0.888 2.371-0.305 3.089" fill="none" stroke="#808285" stroke-linecap="round" stroke-linejoin="round"/>
<path d="m281.35 180.15c-0.053 0.49 0.418 1.069 0.568 1.508 0.15 0.438 0.135 0.678 0.026 1.153" fill="none" stroke="#808285" stroke-linecap="round" stroke-linejoin="round"/>
<path d="m274.64 183.1c0.722 0.174 1.115 0.775 1.559 1.284 0.348 0.401 0.569 0.472 0.419 1.12" fill="none" stroke="#808285" stroke-linecap="round" stroke-linejoin="round"/>
<path d="m273.54 212.64s-2.71-1.866-2.045-5.172c0.665-3.308 4.07-3.264 4.07-3.264s-0.529-3.537 2.325-4.312c2.853-0.775 4.299 1.769 4.299 1.769s0.63-3.547 3.517-2.655c2.884 0.891 2.571 2.064 2.571 2.064s1.896-2.241 4.363 1.692c2.465 3.929 1.577 7.417 6e-3 8.441-1.572 1.023-4.778 2.734-9.161 2.93-4.379 0.196-8.056-0.276-9.945-1.493z" fill="#ccdde7" stroke="#808285" stroke-linecap="round" stroke-linejoin="round"/>
<path d="m283.75 234.54s0.751-4.796-0.938-8.563c-5.873-0.861-6.757-2.721-8.601-6.73-1.842-4.008-3.725-8.441-3.725-8.441s2.638 1.432 4.016 1.747c1.375 0.315 2.77 1.463 2.77 1.463s-0.01-0.556 0.349-2.128c0.362-1.572 0.594-2.9 0.594-2.9s0.33 0.077 1.542 1.112c1.211 1.036 2.459 2.218 2.459 2.218s0.107-1.974 0.398-2.943c0.291-0.968 0.833-2.431 0.833-2.431s1.673 2.041 2.39 2.824c0.716 0.785 1.006 2.23 1.006 2.23s1.327-2.178 1.497-2.623 0.745-2.037 0.745-2.037 0.686 2.434 0.992 3.194c0.309 0.762 0.563 2.061 0.563 2.061s0.98-1.569 2.003-1.817c1.022-0.25 2.271-2.379 2.435-3.101 0.165-0.72 0.62-0.892 0.62-0.892s-3.32 13.59-5.122 15.729c-1.802 2.141-4.598 3.174-4.598 3.174s0.509 2.264 0.327 5.344c-0.185 3.176-0.502 5.086-0.502 5.086l-2.053-1.576z" fill="#00ab4e" stroke="#005a24" stroke-linecap="round" stroke-linejoin="round"/>
<path d="m274.95 205.5c-0.616-0.978-2.677 1.396-2.617 2.902 0.058 1.505 0.729 2.579 1.722 2.748 0.996 0.169 1.474-1.155 1.474-1.155s-1.253-0.805-0.603-2.148c0.653-1.342 0.232-2.012 0.024-2.347z" fill="#fff"/>
<path d="m277.48 205.96c-0.07-0.219-1.682-1.417-1.004-3.387 0.681-1.968 2.615-2.385 3.105-1.527 0.495 0.858-0.284 2 0.145 3.131 0.431 1.134 0.513 2.53 9e-3 2.471-0.505-0.056-2.051-0.066-2.255-0.688z" fill="#fff"/>
<path d="m283.09 202.61c-0.09-0.26 0.317-3.006 1.118-2.862 0.805 0.147 0.256 1.124 0.866 1.909 0.609 0.786 0.976 1.212 0.583 1.92-0.395 0.708-2.034 0.561-2.567-0.967z" fill="#fff"/>
<path d="m289.25 204.98c-0.176-0.445-0.247-2.698 0.48-3.104 0.726-0.41 1.639-0.144 1.77 1.035 0.134 1.181 0.206 2.114-0.129 2.325-0.333 0.212-1.579 1.132-2.121-0.256z" fill="#fff"/>
<path d="m279.89 206.46c-0.699-0.185-1.645-0.062-2.292 0.232-0.603 0.278-0.759 0.785-1.044 1.302" fill="none" stroke="#808285" stroke-linecap="round" stroke-linejoin="round"/>
<path d="m281.56 204.71c0.895-0.656 1.803-0.85 2.837-0.096" fill="none" stroke="#808285" stroke-linecap="round" stroke-linejoin="round"/>
<path d="m286.83 204.26c0.596-0.073 1.05-0.472 1.573-0.055 0.275 0.221 0.488 0.64 0.509 0.991" fill="none" stroke="#808285" stroke-linecap="round" stroke-linejoin="round"/>
<path d="m288.32 200.98c-0.3 0.82-0.888 2.371-0.305 3.089" fill="none" stroke="#808285" stroke-linecap="round" stroke-linejoin="round"/>
<path d="m282.08 201.45c-0.053 0.49 0.418 1.069 0.568 1.508 0.15 0.438 0.135 0.678 0.026 1.153" fill="none" stroke="#808285" stroke-linecap="round" stroke-linejoin="round"/>
<path d="m275.37 204.39c0.722 0.174 1.115 0.775 1.559 1.284 0.348 0.401 0.569 0.472 0.419 1.12" fill="none" stroke="#808285" stroke-linecap="round" stroke-linejoin="round"/>
<path d="m273.77 233.11s-2.49-2.149-1.469-5.364c1.021-3.216 4.401-2.801 4.401-2.801s-0.14-3.574 2.782-4.033c2.92-0.459 4.08 2.228 4.08 2.228s1.013-3.458 3.785-2.255c2.77 1.201 2.331 2.333 2.331 2.333s2.128-2.021 4.152 2.158c2.021 4.174 0.759 7.544-0.915 8.391-1.674 0.846-5.048 2.196-9.426 1.913-4.374-0.284-7.977-1.155-9.721-2.57z" fill="#ccdde7" stroke="#808285" stroke-linecap="round" stroke-linejoin="round"/>
<path d="m281.53 256s1.269-4.685 0-8.614c-5.743-1.496-6.419-3.441-7.814-7.627-1.395-4.185-2.782-8.797-2.782-8.797s2.466 1.711 3.801 2.174c1.333 0.464 2.594 1.757 2.594 1.757s0.051-0.554 0.579-2.077c0.531-1.523 0.906-2.817 0.906-2.817s0.319 0.111 1.411 1.272c1.091 1.162 2.202 2.473 2.202 2.473s0.322-1.95 0.718-2.882c0.395-0.931 1.093-2.325 1.093-2.325s1.44 2.21 2.067 3.066c0.626 0.857 0.757 2.326 0.757 2.326s1.557-2.021 1.774-2.443c0.217-0.423 0.963-1.943 0.963-1.943s0.416 2.494 0.638 3.283c0.224 0.791 0.335 2.109 0.335 2.109s1.146-1.452 2.189-1.589c1.044-0.136 2.517-2.117 2.758-2.816 0.243-0.697 0.714-0.818 0.714-0.818s-4.782 13.146-6.807 15.076c-2.024 1.931-4.916 2.653-4.916 2.653s0.259 2.306-0.258 5.348c-0.529 3.136-1.054 5-1.054 5l-1.868-1.789z" fill="#00ab4e" stroke="#005a24" stroke-linecap="round" stroke-linejoin="round"/>
<path d="m275.95 226.16c-0.506-1.039-2.813 1.095-2.918 2.6-0.106 1.503 0.443 2.644 1.412 2.919 0.972 0.277 1.591-0.987 1.591-0.987s-1.158-0.937-0.365-2.201c0.796-1.263 0.45-1.974 0.28-2.331z" fill="#fff"/>
<path d="m278.41 226.9c-0.046-0.226-1.518-1.592-0.629-3.477 0.892-1.882 2.86-2.086 3.254-1.179 0.398 0.907-0.501 1.957-0.198 3.129 0.305 1.173 0.234 2.57-0.261 2.457-0.494-0.11-2.031-0.289-2.166-0.93z" fill="#fff"/>
<path d="m284.36 224.18c-0.061-0.268 0.644-2.952 1.424-2.723 0.784 0.235 0.132 1.146 0.653 1.992 0.52 0.849 0.837 1.313 0.37 1.972-0.47 0.661-2.082 0.336-2.447-1.241z" fill="#fff"/>
<path d="m290.22 227.21c-0.126-0.462 0.049-2.709 0.816-3.032 0.766-0.328 1.645 0.035 1.646 1.221 4e-3 1.188-0.026 2.124-0.382 2.298-0.354 0.172-1.693 0.951-2.08-0.487z" fill="#fff"/>
<path d="m280.76 227.65c-0.675-0.261-1.628-0.241-2.304-0.019-0.629 0.21-0.84 0.697-1.18 1.18" fill="none" stroke="#808285" stroke-linecap="round" stroke-linejoin="round"/>
<path d="m282.6 226.1c0.961-0.555 1.885-0.648 2.831 0.214" fill="none" stroke="#808285" stroke-linecap="round" stroke-linejoin="round"/>
<path d="m287.89 226.22c0.601-8e-3 1.095-0.354 1.57 0.117 0.249 0.25 0.415 0.689 0.397 1.041" fill="none" stroke="#808285" stroke-linecap="round" stroke-linejoin="round"/>
<path d="m289.74 223.13c-0.388 0.782-1.142 2.26-0.64 3.037" fill="none" stroke="#808285" stroke-linecap="round" stroke-linejoin="round"/>
<path d="m283.48 222.91c-0.106 0.481 0.299 1.107 0.4 1.561 0.102 0.451 0.061 0.688-0.1 1.148" fill="none" stroke="#808285" stroke-linecap="round" stroke-linejoin="round"/>
<path d="m276.49 225.1c0.699 0.251 1.024 0.892 1.41 1.445 0.302 0.437 0.514 0.532 0.294 1.159" fill="none" stroke="#808285" stroke-linecap="round" stroke-linejoin="round"/>
<path d="m271.6 254.04s-2.29-2.361-0.987-5.473c1.303-3.113 4.633-2.4 4.633-2.4s0.177-3.571 3.128-3.771c2.95-0.199 3.867 2.58 3.867 2.58s1.315-3.354 3.97-1.91c2.652 1.44 2.115 2.529 2.115 2.529s2.3-1.823 3.945 2.518c1.645 4.337 0.088 7.581-1.654 8.276-1.742 0.693-5.223 1.741-9.559 1.07-4.333-0.667-7.845-1.855-9.458-3.419z" fill="#ccdde7" stroke="#808285" stroke-linecap="round" stroke-linejoin="round"/>
<path d="m277.31 277.52s1.68-4.554 0.765-8.58c-5.59-2-6.091-3.997-7.11-8.29-1.017-4.291-1.992-9.008-1.992-9.008s2.306 1.923 3.594 2.502c1.287 0.58 2.429 1.979 2.429 1.979s0.099-0.546 0.761-2.018c0.664-1.47 1.151-2.726 1.151-2.726s0.309 0.14 1.294 1.393c0.983 1.254 1.975 2.659 1.975 2.659s0.493-1.915 0.97-2.808c0.476-0.893 1.294-2.22 1.294-2.22s1.239 2.329 1.788 3.237c0.547 0.911 0.548 2.384 0.548 2.384s1.729-1.873 1.983-2.275 1.132-1.852 1.132-1.852 0.193 2.521 0.345 3.328c0.152 0.808 0.146 2.131 0.146 2.131s1.27-1.346 2.321-1.39c1.052-0.042 2.694-1.886 2.997-2.561 0.304-0.673 0.783-0.753 0.783-0.753s-5.928 12.671-8.115 14.414c-2.188 1.744-5.132 2.207-5.132 2.207s0.053 2.32-0.73 5.304c-0.806 3.078-1.492 4.888-1.492 4.888l-1.705-1.945z" fill="#00ab4e" stroke="#005a24" stroke-linecap="round" stroke-linejoin="round"/>
<path d="m274.39 247.31c-0.412-1.08-2.899 0.841-3.137 2.33-0.24 1.488 0.207 2.673 1.146 3.033 0.944 0.361 1.673-0.843 1.673-0.843s-1.07-1.035-0.169-2.225c0.906-1.185 0.624-1.926 0.487-2.295z" fill="#fff"/>
<path d="m276.78 248.26c-0.025-0.229-1.369-1.72-0.317-3.519 1.054-1.796 3.033-1.823 3.346-0.886 0.316 0.939-0.673 1.904-0.475 3.1 0.199 1.195 5e-3 2.58-0.478 2.424-0.483-0.155-1.997-0.469-2.076-1.119z" fill="#fff"/>
<path d="m282.94 246.09c-0.037-0.273 0.901-2.885 1.659-2.587 0.76 0.304 0.029 1.152 0.474 2.042 0.442 0.892 0.719 1.381 0.193 1.997s-2.104 0.149-2.326-1.452z" fill="#fff"/>
<path d="m288.51 249.62c-0.085-0.471 0.288-2.693 1.081-2.948 0.792-0.259 1.635 0.181 1.532 1.362-0.102 1.184-0.214 2.113-0.584 2.254-0.368 0.142-1.77 0.799-2.029-0.668z" fill="#fff"/>
<path d="m279.05 249.23c-0.649-0.32-1.6-0.385-2.293-0.224-0.646 0.154-0.898 0.62-1.279 1.07" fill="none" stroke="#808285" stroke-linecap="round" stroke-linejoin="round"/>
<path d="m281.02 247.84c1.006-0.468 1.935-0.479 2.8 0.463" fill="none" stroke="#808285" stroke-linecap="round" stroke-linejoin="round"/>
<path d="m286.28 248.43c0.599 0.046 1.122-0.256 1.554 0.256 0.226 0.271 0.353 0.724 0.304 1.072" fill="none" stroke="#808285" stroke-linecap="round" stroke-linejoin="round"/>
<path d="m288.4 245.52c-0.455 0.745-1.336 2.149-0.906 2.969" fill="none" stroke="#808285" stroke-linecap="round" stroke-linejoin="round"/>
<path d="m282.18 244.74c-0.148 0.471 0.199 1.13 0.261 1.591 0.062 0.458-2e-3 0.691-0.201 1.135" fill="none" stroke="#808285" stroke-linecap="round" stroke-linejoin="round"/>
<path d="m275.02 246.31c0.675 0.313 0.941 0.979 1.276 1.565 0.263 0.462 0.466 0.575 0.19 1.181" fill="none" stroke="#808285" stroke-linecap="round" stroke-linejoin="round"/>
<path d="m268.73 274.4s-1.643-2.938 0.466-5.67c2.107-2.734 5.211-1.152 5.211-1.152s1.116-3.483 4.086-2.902c2.968 0.58 3.143 3.569 3.143 3.569s2.185-2.969 4.427-0.843c2.243 2.123 1.425 3.058 1.425 3.058s2.754-1.196 3.236 3.528c0.482 4.72-1.911 7.517-3.816 7.744-1.904 0.228-5.621 0.345-9.729-1.46-4.108-1.802-7.267-3.901-8.449-5.872z" fill="#ccdde7" stroke="#808285" stroke-linecap="round" stroke-linejoin="round"/>
<path d="m268.19 299.12s2.86-4.059 3.017-8.279c-4.998-3.45-4.967-5.557-4.845-10.068 0.126-4.509 0.405-9.428 0.405-9.428s1.771 2.507 2.893 3.419c1.12 0.913 1.879 2.596 1.879 2.596s0.242-0.514 1.284-1.793c1.044-1.278 1.857-2.391 1.857-2.391s0.268 0.219 0.91 1.717c0.643 1.499 1.252 3.149 1.252 3.149s0.992-1.764 1.698-2.521c0.705-0.757 1.864-1.854 1.864-1.854s0.611 2.629 0.914 3.671c0.301 1.045-0.086 2.501-0.086 2.501s2.203-1.396 2.56-1.727c0.357-0.33 1.606-1.531 1.606-1.531s-0.473 2.542-0.536 3.38c-0.063 0.839-0.416 2.145-0.416 2.145s1.609-0.995 2.66-0.762c1.051 0.236 3.16-1.154 3.638-1.741 0.477-0.585 0.972-0.538 0.972-0.538s-9.197 10.963-11.819 12.109c-2.622 1.148-5.654 0.829-5.654 0.829s-0.559 2.308-2.119 5.05c-1.607 2.83-2.763 4.438-2.763 4.438l-1.171-2.371z" fill="#00ab4e" stroke="#005a24" stroke-linecap="round" stroke-linejoin="round"/>
<path d="m273.26 268.48c-0.123-1.176-3.088 0.068-3.714 1.478-0.631 1.407-0.5 2.696 0.333 3.3 0.839 0.606 1.876-0.392 1.876-0.392s-0.785-1.306 0.419-2.244c1.208-0.933 1.125-1.74 1.086-2.142z" fill="#fff"/>
<path d="m275.37 270.06c0.035-0.232-0.899-2.061 0.614-3.562 1.515-1.497 3.479-1.003 3.54 6e-3 0.065 1.013-1.167 1.706-1.286 2.939-0.117 1.233-0.674 2.552-1.11 2.27-0.437-0.28-1.851-0.99-1.758-1.653z" fill="#fff"/>
<path d="m282.04 269.53c0.034-0.279 1.651-2.614 2.321-2.12 0.671 0.501-0.274 1.147-0.07 2.144 0.203 0.997 0.347 1.554-0.334 2.024-0.684 0.471-2.12-0.406-1.917-2.048z" fill="#fff"/>
<path d="m286.61 274.48c0.04-0.487 0.994-2.586 1.845-2.629 0.852-0.049 1.568 0.609 1.156 1.75-0.413 1.143-0.769 2.031-1.171 2.073-0.401 0.044-1.961 0.324-1.83-1.194z" fill="#fff"/>
<path d="m277.36 271.6c-0.559-0.487-1.48-0.802-2.208-0.825-0.679-0.018-1.052 0.376-1.546 0.721" fill="none" stroke="#808285" stroke-linecap="round" stroke-linejoin="round"/>
<path d="m279.68 270.76c1.118-0.197 2.038 0.037 2.646 1.195" fill="none" stroke="#808285" stroke-linecap="round" stroke-linejoin="round"/>
<path d="m284.72 272.72c0.58 0.204 1.177 0.043 1.469 0.663 0.151 0.327 0.158 0.808 0.018 1.14" fill="none" stroke="#808285" stroke-linecap="round" stroke-linejoin="round"/>
<path d="m287.58 270.4c-0.646 0.616-1.888 1.772-1.678 2.695" fill="none" stroke="#808285" stroke-linecap="round" stroke-linejoin="round"/>
<path d="m281.63 268c-0.271 0.426-0.101 1.169-0.16 1.642-0.061 0.468-0.186 0.682-0.499 1.067" fill="none" stroke="#808285" stroke-linecap="round" stroke-linejoin="round"/>
<path d="m274.15 267.66c0.585 0.486 0.673 1.216 0.85 1.883 0.138 0.525 0.309 0.691-0.123 1.218" fill="none" stroke="#808285" stroke-linecap="round" stroke-linejoin="round"/>
<path d="m260.03 293.43s-1.484-3.154 0.892-5.823c2.375-2.673 5.466-0.813 5.466-0.813s1.406-3.518 4.432-2.702c3.023 0.813 2.987 3.914 2.987 3.914s2.472-2.908 4.635-0.551c2.163 2.356 1.25 3.263 1.25 3.263s2.932-1.037 3.087 3.879c0.157 4.909-2.518 7.626-4.502 7.723s-5.832-0.05-9.945-2.212c-4.111-2.161-7.224-4.557-8.302-6.678z" fill="#ccdde7" stroke="#808285" stroke-linecap="round" stroke-linejoin="round"/>
<path d="m257.68 318.92s3.248-3.985 3.715-8.334c-4.912-3.926-4.728-6.1-4.275-10.751 0.457-4.648 1.101-9.709 1.101-9.709s1.649 2.718 2.741 3.741c1.091 1.023 1.753 2.816 1.753 2.816s0.287-0.513 1.456-1.759c1.171-1.244 2.092-2.335 2.092-2.335s0.261 0.245 0.816 1.84c0.555 1.594 1.064 3.343 1.064 3.343s1.153-1.75 1.938-2.48c0.783-0.73 2.06-1.779 2.06-1.779s0.441 2.76 0.679 3.857c0.234 1.101-0.271 2.577-0.271 2.577s2.377-1.281 2.77-1.598c0.393-0.315 1.771-1.466 1.771-1.466s-0.673 2.592-0.799 3.453c-0.125 0.861-0.585 2.185-0.585 2.185s1.734-0.912 2.804-0.595c1.068 0.321 3.348-0.963 3.883-1.535 0.535-0.57 1.043-0.485 1.043-0.485s-10.294 10.659-13.085 11.653c-2.793 0.996-5.901 0.447-5.901 0.447s-0.744 2.343-2.555 5.063c-1.866 2.808-3.176 4.385-3.176 4.385l-1.039-2.534z" fill="#00ab4e" stroke="#005a24" stroke-linecap="round" stroke-linejoin="round"/>
<path d="m265.14 287.65c-0.041-1.224-3.194-0.153-3.943 1.258-0.753 1.407-0.711 2.749 0.105 3.432 0.823 0.688 1.967-0.269 1.967-0.269s-0.717-1.405 0.595-2.287c1.315-0.876 1.288-1.717 1.276-2.134z" fill="#fff"/>
<path d="m267.21 289.42c0.054-0.238-0.779-2.193 0.893-3.635 1.674-1.437 3.667-0.784 3.656 0.263-5e-3 1.051-1.328 1.678-1.541 2.942-0.21 1.267-0.881 2.588-1.312 2.265-0.43-0.32-1.839-1.156-1.696-1.835z" fill="#fff"/>
<path d="m274.13 289.36c0.056-0.287 1.896-2.581 2.552-2.022 0.656 0.566-0.367 1.165-0.229 2.208 0.138 1.046 0.246 1.631-0.491 2.068-0.739 0.437-2.161-0.574-1.832-2.254z" fill="#fff"/>
<path d="m278.5 294.81c0.076-0.501 1.214-2.6 2.096-2.583 0.884 0.012 1.576 0.743 1.067 1.892-0.509 1.15-0.94 2.043-1.359 2.057-0.417 0.014-2.049 0.191-1.804-1.366z" fill="#fff"/>
<path d="m269.15 291.16c-0.543-0.544-1.472-0.936-2.223-1.013-0.699-0.066-1.113 0.313-1.648 0.633" fill="none" stroke="#808285" stroke-linecap="round" stroke-linejoin="round"/>
<path d="m271.6 290.46c1.169-0.123 2.103 0.186 2.646 1.426" fill="none" stroke="#808285" stroke-linecap="round" stroke-linejoin="round"/>
<path d="m276.67 292.85c0.584 0.253 1.212 0.129 1.47 0.791 0.132 0.35 0.104 0.846-0.065 1.179" fill="none" stroke="#808285" stroke-linecap="round" stroke-linejoin="round"/>
<path d="m279.79 290.66c-0.713 0.59-2.078 1.694-1.928 2.663" fill="none" stroke="#808285" stroke-linecap="round" stroke-linejoin="round"/>
<path d="m273.82 287.75c-0.311 0.419-0.188 1.199-0.284 1.684-0.097 0.479-0.241 0.69-0.593 1.066" fill="none" stroke="#808285" stroke-linecap="round" stroke-linejoin="round"/>
<path d="m266.12 286.86c0.569 0.544 0.606 1.305 0.742 2.006 0.104 0.553 0.269 0.736-0.216 1.249" fill="none" stroke="#808285" stroke-linecap="round" stroke-linejoin="round"/>
<path d="m247.08 309.8s-0.789-3.396 2.094-5.507c2.883-2.115 5.515 0.351 5.515 0.351s2.112-3.144 4.899-1.712c2.786 1.429 2.101 4.453 2.101 4.453s3.026-2.325 4.647 0.434c1.621 2.758 0.538 3.452 0.538 3.452s3.084-0.399 2.204 4.44c-0.875 4.833-4.061 6.928-6.021 6.606-1.96-0.321-5.691-1.271-9.26-4.248-3.566-2.973-6.107-5.969-6.717-8.269z" fill="#ccdde7" stroke="#808285" stroke-linecap="round" stroke-linejoin="round"/>
<path d="m239.43 334.23s4.012-3.215 5.38-7.369c-3.979-4.868-3.343-6.955-1.926-11.408 1.422-4.449 3.112-9.263 3.112-9.263s1.043 3.003 1.896 4.233c0.853 1.229 1.124 3.121 1.124 3.121s0.388-0.441 1.792-1.414c1.406-0.972 2.535-1.845 2.535-1.845s0.203 0.294 0.412 1.97c0.209 1.675 0.34 3.492 0.34 3.492s1.495-1.47 2.415-2.02c0.919-0.55 2.387-1.308 2.387-1.308s-0.147 2.791-0.146 3.914c-1e-3 1.125-0.805 2.463-0.805 2.463s2.593-0.754 3.043-0.981c0.45-0.226 2.039-1.062 2.039-1.062s-1.202 2.394-1.506 3.209c-0.303 0.815-1.03 2.014-1.03 2.014s1.888-0.528 2.866 6e-3c0.978 0.538 3.476-0.239 4.119-0.687 0.643-0.445 1.121-0.256 1.121-0.256s-12.301 8.264-15.238 8.65c-2.939 0.388-5.863-0.801-5.863-0.801s-1.22 2.135-3.56 4.414c-2.414 2.354-4.025 3.621-4.025 3.621l-0.482-2.693z" fill="#00ab4e" stroke="#005a24" stroke-linecap="round" stroke-linejoin="round"/>
<path d="m253.28 305.22c0.217-1.205-3.091-0.819-4.119 0.403-1.031 1.218-1.271 2.538-0.616 3.377 0.66 0.845 1.979 0.15 1.979 0.15s-0.406-1.524 1.061-2.111c1.47-0.581 1.621-1.409 1.695-1.819z" fill="#fff"/>
<path d="m254.93 307.39c0.103-0.222-0.302-2.309 1.635-3.367 1.938-1.054 3.75 2e-3 3.521 1.023-0.226 1.026-1.65 1.362-2.124 2.554-0.471 1.194-1.404 2.346-1.758 1.939-0.354-0.403-1.556-1.515-1.274-2.149z" fill="#fff"/>
<path d="m261.72 308.78c0.114-0.27 2.395-2.127 2.919-1.442 0.523 0.691-0.604 1.062-0.687 2.11-0.085 1.052-0.102 1.646-0.914 1.92-0.814 0.272-1.992-1.014-1.318-2.588z" fill="#fff"/>
<path d="m264.84 315.02c0.179-0.474 1.731-2.287 2.59-2.086 0.862 0.196 1.386 1.057 0.647 2.073-0.738 1.018-1.348 1.8-1.761 1.726-0.411-0.072-2.043-0.241-1.476-1.713z" fill="#fff"/>
<path d="m256.47 309.5c-0.417-0.646-1.243-1.224-1.961-1.456-0.67-0.212-1.154 0.072-1.745 0.272" fill="none" stroke="#808285" stroke-linecap="round" stroke-linejoin="round"/>
<path d="m259.01 309.32c1.168 0.125 2.017 0.623 2.288 1.949" fill="none" stroke="#808285" stroke-linecap="round" stroke-linejoin="round"/>
<path d="m263.46 312.73c0.518 0.37 1.157 0.38 1.271 1.082 0.056 0.369-0.076 0.849-0.311 1.139" fill="none" stroke="#808285" stroke-linecap="round" stroke-linejoin="round"/>
<path d="m266.98 311.24c-0.821 0.427-2.388 1.221-2.443 2.199" fill="none" stroke="#808285" stroke-linecap="round" stroke-linejoin="round"/>
<path d="m261.75 307.14c-0.392 0.345-0.436 1.133-0.631 1.587-0.195 0.448-0.381 0.624-0.804 0.918" fill="none" stroke="#808285" stroke-linecap="round" stroke-linejoin="round"/>
<path d="m254.4 304.65c0.442 0.651 0.319 1.403 0.305 2.117-0.015 0.563 0.108 0.776-0.473 1.176" fill="none" stroke="#808285" stroke-linecap="round" stroke-linejoin="round"/>
<path d="m231.38 323.89s0.254-3.64 3.787-4.866c3.535-1.23 5.41 2.045 5.41 2.045s3.08-2.496 5.429-0.207c2.349 2.286 0.733 5.102 0.733 5.102s3.742-1.396 4.518 1.862c0.773 3.258-0.522 3.619-0.522 3.619s3.207 0.548 0.84 5.12c-2.361 4.567-6.192 5.684-8.056 4.76-1.862-0.924-5.304-3.021-7.959-7.096-2.655-4.072-4.278-7.851-4.18-10.339z" fill="#ccdde7" stroke="#808285" stroke-linecap="round" stroke-linejoin="round"/>
<path d="m216.22 345.98s5.003-1.984 7.648-5.721c-2.486-6.093-1.208-7.986 1.579-12.006 2.789-4.015 5.96-8.312 5.96-8.312s0.121 3.325 0.596 4.818c0.476 1.492 0.166 3.469 0.166 3.469s0.523-0.322 2.228-0.864c1.706-0.541 3.104-1.067 3.104-1.067s0.113 0.357-0.192 2.098-0.734 3.6-0.734 3.6 1.948-1.012 3.037-1.279 2.791-0.574 2.791-0.574-1.006 2.746-1.349 3.871c-0.348 1.125-1.563 2.217-1.563 2.217s2.826 0.043 3.347-0.047c0.521-0.087 2.366-0.436 2.366-0.436s-1.938 2.026-2.493 2.749c-0.553 0.723-1.649 1.697-1.649 1.697s2.051 0.053 2.866 0.888c0.813 0.838 3.551 0.828 4.333 0.578 0.779-0.248 1.2 0.089 1.2 0.089s-14.848 4.487-17.906 3.973c-3.061-0.517-5.621-2.604-5.621-2.604s-1.876 1.761-4.918 3.322c-3.139 1.614-5.141 2.386-5.141 2.386l0.345-2.845z" fill="#00ab4e" stroke="#005a24" stroke-linecap="round" stroke-linejoin="round"/>
<path d="m239 321.2c0.587-1.139-2.841-1.77-4.246-0.862-1.405 0.9-2.052 2.148-1.654 3.189 0.401 1.048 1.935 0.759 1.935 0.759s0.063-1.65 1.71-1.787c1.649-0.129 2.055-0.912 2.255-1.299z" fill="#fff"/>
<path d="m239.98 323.88c0.171-0.19 0.408-2.402 2.67-2.866 2.265-0.459 3.753 1.154 3.209 2.105-0.542 0.958-2.07 0.855-2.91 1.902-0.839 1.051-2.126 1.916-2.355 1.4-0.23-0.511-1.09-1.993-0.614-2.541z" fill="#fff"/>
<path d="m246.34 327.36c0.197-0.235 3.05-1.393 3.364-0.546 0.312 0.853-0.931 0.876-1.336 1.9-0.408 1.026-0.607 1.616-1.505 1.64-0.897 0.022-1.68-1.627-0.523-2.994z" fill="#fff"/>
<path d="m247.55 334.57c0.324-0.418 2.435-1.756 3.232-1.291 0.803 0.462 1.062 1.483 0.01 2.273-1.051 0.791-1.901 1.388-2.291 1.186-0.39-0.198-1.97-0.868-0.951-2.168z" fill="#fff"/>
<path d="m240.87 326.47c-0.219-0.773-0.868-1.605-1.515-2.06-0.604-0.417-1.177-0.282-1.83-0.264" fill="none" stroke="#808285" stroke-linecap="round" stroke-linejoin="round"/>
<path d="m243.47 327.07c1.13 0.483 1.826 1.243 1.689 2.653" fill="none" stroke="#808285" stroke-linecap="round" stroke-linejoin="round"/>
<path d="m246.88 331.85c0.404 0.529 1.041 0.736 0.938 1.474-0.057 0.387-0.337 0.825-0.66 1.044" fill="none" stroke="#808285" stroke-linecap="round" stroke-linejoin="round"/>
<path d="m250.85 331.44c-0.954 0.175-2.765 0.487-3.121 1.449" fill="none" stroke="#808285" stroke-linecap="round" stroke-linejoin="round"/>
<path d="m246.89 325.73c-0.498 0.225-0.784 1-1.12 1.394-0.333 0.389-0.572 0.508-1.086 0.672" fill="none" stroke="#808285" stroke-linecap="round" stroke-linejoin="round"/>
<path d="m240.3 320.98c0.242 0.787-0.112 1.502-0.346 2.213-0.188 0.558-0.13 0.81-0.835 1.03" fill="none" stroke="#808285" stroke-linecap="round" stroke-linejoin="round"/>
<path d="m211.93 334.74s1.443-3.635 5.451-3.741 4.863 3.849 4.863 3.849 3.955-1.55 5.611 1.55-0.908 5.451-0.908 5.451 4.275-0.213 4.008 3.367-1.71 3.527-1.71 3.527 3.1 1.603-0.802 5.504-8.177 3.795-9.78 2.245-4.436-4.811-5.825-9.834-1.817-9.406-0.908-11.918z" fill="#ccdde7" stroke="#808285" stroke-linecap="round" stroke-linejoin="round"/>
<path d="m189.26 352.38s5.756-0.399 9.673-3.357c-0.56-7.035 1.359-8.554 5.516-11.751s8.793-6.555 8.793-6.555-0.959 3.437-0.959 5.115-0.96 3.598-0.96 3.598 0.641-0.16 2.559-0.16 3.517-0.08 3.517-0.08 0 0.4-0.879 2.079-1.918 3.437-1.918 3.437 2.317-0.399 3.517-0.319 3.038 0.319 3.038 0.319-1.92 2.479-2.639 3.518-2.317 1.759-2.317 1.759 2.877 0.959 3.437 1.039 2.559 0.32 2.559 0.32-2.638 1.438-3.438 1.998-2.238 1.199-2.238 1.199 2.078 0.719 2.638 1.838 3.358 1.999 4.237 1.999 1.199 0.479 1.199 0.479-16.627-0.24-19.585-1.759-4.897-4.483-4.897-4.483-2.487 1.188-6.106 1.797c-3.727 0.627-6.023 0.769-6.023 0.769l1.276-2.799z" fill="#00ab4e" stroke="#005a24" stroke-linecap="round" stroke-linejoin="round"/>
<path d="m220.59 334.47c0.97-0.97-2.328-2.728-4.058-2.262s-2.795 1.53-2.728 2.728 1.729 1.396 1.729 1.396 0.6-1.663 2.329-1.264 2.395-0.265 2.728-0.598z" fill="#fff"/>
<path d="m220.72 337.53c0.235-0.141 1.197-2.327 3.658-2.062s3.458 2.394 2.594 3.192-2.395 0.2-3.592 0.998-2.794 1.264-2.86 0.665-0.465-2.394 0.2-2.793z" fill="#fff"/>
<path d="m226.09 343.15c0.277-0.174 3.567-0.431 3.611 0.538s-1.233 0.593-1.981 1.508c-0.749 0.915-1.145 1.452-2.069 1.184-0.926-0.269-1.19-2.207 0.439-3.23z" fill="#fff"/>
<path d="m224.98 350.9c0.47-0.32 3.061-0.999 3.726-0.267s0.6 1.862-0.731 2.328-2.395 0.798-2.728 0.466-1.731-1.529-0.267-2.527z" fill="#fff"/>
<path d="m220.79 340.46c0.029-0.861-0.365-1.922-0.878-2.594-0.479-0.627-1.109-0.672-1.783-0.865" fill="none" stroke="#808285" stroke-linecap="round" stroke-linejoin="round"/>
<path d="m223.25 341.92c0.998 0.864 1.464 1.862 0.864 3.26" fill="none" stroke="#808285" stroke-linecap="round" stroke-linejoin="round"/>
<path d="m225.18 347.91c0.242 0.67 0.826 1.088 0.48 1.808-0.183 0.38-0.612 0.736-1.013 0.854" fill="none" stroke="#808285" stroke-linecap="round" stroke-linejoin="round"/>
<path d="m229.37 348.77c-1.028-0.132-2.982-0.396-3.659 0.466" fill="none" stroke="#808285" stroke-linecap="round" stroke-linejoin="round"/>
<path d="m227.17 341.66c-0.582 0.069-1.13 0.77-1.599 1.06-0.468 0.29-0.749 0.335-1.328 0.337" fill="none" stroke="#808285" stroke-linecap="round" stroke-linejoin="round"/>
<path d="m221.98 334.67c-0.012 0.88-0.604 1.495-1.074 2.142-0.372 0.51-0.396 0.787-1.188 0.785" fill="none" stroke="#808285" stroke-linecap="round" stroke-linejoin="round"/>
<g stroke="#000" stroke-linecap="round" stroke-linejoin="round">
<path d="m165.45 353s-0.854 2.329-5.047 6.91-6.988 6.135-6.988 6.135 0.621-0.776-3.184-1.01-6.911-0.621-7.221-1.708 1.01-1.631 2.252-2.097 6.677-2.64 10.56-5.202 5.901-4.271 5.901-4.271 3.339 0.7 3.727 1.243z" fill="#ccdde7"/>
<path d="m144.87 352.69s1.242 3.184 9.783 2.873 11.647-1.553 11.647-1.553-8.153-4.736-14.054-4.659-7.376 3.339-7.376 3.339z" fill="#839097"/>
<path d="m166.38 346.02s-9.162-9.783-16.228-9.783-9.938 3.494-7.998 6.833 2.174 4.892 2.096 6.444-0.31 3.028 0.622 3.184 4.193-2.406 9.007-1.242 12.423 2.563 12.423 2.563l0.078-7.999z" fill="#ccdde7"/>
<path d="m172.51 353s0.854 2.329 5.047 6.91 6.988 6.135 6.988 6.135-0.621-0.776 3.184-1.01 6.91-0.621 7.221-1.708-1.01-1.631-2.252-2.097-6.678-2.64-10.56-5.202-5.901-4.271-5.901-4.271-3.339 0.7-3.727 1.243z" fill="#ccdde7"/>
<path d="m193.08 352.69s-1.242 3.184-9.783 2.873c-8.542-0.311-11.648-1.553-11.648-1.553s8.154-4.736 14.054-4.659c5.901 0.078 7.377 3.339 7.377 3.339z" fill="#839097"/>
<path d="m171.58 346.02s9.163-9.783 16.228-9.783 9.938 3.494 7.997 6.833c-1.94 3.339-2.174 4.892-2.096 6.444s0.311 3.028-0.621 3.184-4.193-2.406-9.008-1.242c-4.813 1.164-12.423 2.563-12.423 2.563l-0.077-7.999z" fill="#ccdde7"/>
</g>
<path d="m172.98 353.16c0 1.565-1.269 2.835-2.834 2.835h-2.331c-1.565 0-2.834-1.27-2.834-2.835v-6.83c0-1.565 1.269-2.835 2.834-2.835h2.331c1.565 0 2.834 1.27 2.834 2.835v6.83z" fill="#ccdde7" stroke="#000" stroke-linecap="round" stroke-linejoin="round"/>
<path d="m163.15 344.74s-7.198-6.565-12.023-6.724-9.018 1.819-7.277 3.243 1.819 1.503 3.48 2.769 1.819 1.661 1.028 2.294-2.689 2.769 0.158 2.689 6.803-1.107 8.701-0.791 5.537 2.849 5.537 2.849l-3.322-3.323 3.797 0.396-4.271-2.531c-1e-3 -1e-3 3.48-1.425 4.192-0.871z" fill="#fff"/>
<path d="m171.46 345.62s-4.746-2.294-4.904 0.079-1.107 5.775 0.554 6.329 2.927 0.158 3.164-0.633-2.453-5.063 1.186-5.775z" fill="#fff"/>
<path d="m193.13 339.29s-3.085-2.61-7.989-0.949-9.809 6.645-9.809 6.645l4.746-1.424s-3.243 3.322-3.639 3.48 3.797-0.396 3.797-0.396l-4.588 3.798s9.176-3.481 11.628-3.481 4.509 0.554 4.271-1.266-2.61-3.164-1.424-3.639 4.431 0.396 3.007-2.768z" fill="#fff"/>
<path d="m158.8 357.32s-4.113 5.063-5.379 5.695-6.724 1.028-7.119 0.237 1.424-0.87 2.531-1.503 8.701-5.063 8.701-5.063 2.769-0.157 1.266 0.634z" fill="#fff"/>
<path d="m178.74 356.61s10.837 4.271 11.391 5.221-2.848 1.661-3.955 1.187-3.718-1.107-4.351-1.898-5.3-3.007-3.085-4.51z" fill="#fff"/>
<path d="m224.39 274.98s3.11-0.164 3.766 0.818 0.656 2.293 3.931 2.293 5.239-1.146 7.859-0.982 3.438 0.654 3.438 0.654l-1.965 0.982h2.62l-2.947 1.802s2.619 0.164 4.748 0.164 6.714-0.328 6.714-0.328-5.73 2.292-7.859 3.438-5.731 1.474-5.731 1.474l3.766 0.655s-3.111 0.328-7.041 0.164-7.205-1.802-9.497-4.749-3.603-5.894-1.802-6.385z"/>
<path d="m202.94 252.87s5.076 3.275 5.567 5.076 1.965 2.292 1.965 2.292 4.257 2.948 9.006 6.878 6.059 2.946 6.059 4.748 0.164 2.947-0.327 3.438-0.492 1.966-2.293 1.311-2.783-1.474-2.947-0.982-1.147 3.603-6.714 5.076-10.314 0.328-10.643-0.982 0.491-2.293 0.491-2.293 4.257 0 7.204-1.965 3.111-4.258 3.111-4.258l-6.714-6.713s-1.801-2.129-2.783-2.129-2.784 0.819-4.094-1.801-0.982-3.438-0.982-3.438l4.094-4.258z" fill="#725120" stroke="#4a3613" stroke-linecap="round" stroke-linejoin="round"/>
<path d="m93.203 177.67 106.78 80.768s1.069-0.355 2.494-1.959 1.425-4.988 1.425-4.988-53.524-50.664-67.774-62.242-29.926-16.566-42.93-11.579z" fill="#bacad3" stroke="#000" stroke-linecap="round" stroke-linejoin="round"/>
<path d="m198.68 252.87-87.275-71.064s-3.602-1.801-8.678-0.819l-4.257-2.947s9.438-2.279 20.14 2.128c8.35 3.438 14.9 8.187 25.872 18.175s53.708 50.433 53.708 50.433l0.49 4.094z" fill="#fff"/>
<path d="m198.68 252.87-83.792-68.158c-2.957-2.243-6.934-4.079-12.162-3.726" fill="none" stroke="#000" stroke-linecap="round" stroke-linejoin="round"/>
<path d="m209.08 261.04 11.338 9.891s0.12 2.051-0.845 2.051-1.327 0.844-1.327 0.844-1.084 2.775-3.738 3.619-5.187 0.603-5.187 0.603 5.596-3.632 6.199-4.838 0.435-3.243 0.435-3.243l-6.875-6.995c0-1e-3 -1.447-0.967 0-1.932z" fill="#bb7d2b"/>
<path d="m228.69 172.26s-6.784 11.362-10.345 13.566-7.46 7.292-8.817 10.005-2.714 6.444-7.462 9.327-9.157 6.275-11.531 10.514-3.563 8.819-9.497 12.549-9.496 4.748-11.701 7.631-5.257 13.059-11.532 20.011-8.31 4.578-9.157 9.496-1.696 12.21-1.696 12.21l-23.572-25.606s0.339-2.035 1.018-2.035 24.589-7.293 29.168-13.906 4.409-11.193 8.988-14.075 13.228-5.257 17.297-9.327 3.731-8.479 7.292-11.701 8.649-4.24 12.719-7.971 5.257-8.309 8.648-10.005 5.258-1.866 7.801-3.562 7.292-5.596 8.648-6.104 3.731-1.017 3.731-1.017z" fill="#bacad3" stroke="#000" stroke-linecap="round" stroke-linejoin="round"/>
<path d="m224.28 175.48s-4.069 5.936-7.461 7.631-5.936 1.526-5.936 1.526 1.525-1.018 5.087-3.222 8.31-5.935 8.31-5.935z" fill="#fff"/>
<path d="m201.22 198.55s-2.374 2.713-5.257 3.731-5.767 3.222-5.767 3.222-2.543-3.73 1.866-5.766 6.614-1.696 8.31-4.579 1.188 1.866 0.848 3.392z" fill="#fff"/>
<path d="m186.3 210.42s-3.732 7.971-5.767 9.327-4.917 2.544-4.917 2.544-10.175 5.935-12.889 10.344-5.766 11.023-10.175 12.041-5.852 4.915-9.835 7.292c-3.089 1.843-6.097 3.057-6.097 3.057s6.097-8.653 13.559-13.571 8.987-10.005 10.344-12.888 8.649-8.14 12.041-9.327 7.63-3.731 8.987-5.087 4.749-3.732 4.749-3.732z" fill="#fff"/>
<path d="m156.6 249.87s-3.893 7.786-9.307 12.781c-1.5 1.384-0.509 7.462-1.018 8.14s-2.035-1.187-4.409-4.239-5.935-6.274-5.935-6.274 2.374 2.374 6.613-0.17 5.888-6.36 5.888-6.36-1.069 3.531-2.193 5.139c-1.384 1.98-3.797 4.349-3.142 3.6 1.188-1.359 9.754-8.772 13.503-12.617z" fill="#fff"/>
<path d="m212.92 185.32s-3.053 2.543-5.088 5.257-4.409 8.479-9.157 10.854-5.935 0.847-8.987 6.104-3.392 11.362-8.31 13.228-11.192 3.052-15.093 8.479-4.409 8.818-9.327 14.754-18.145 14.923-18.145 14.923" fill="none" stroke="#000" stroke-linecap="round" stroke-linejoin="round"/>
<path d="m131.35 251.46s5.426-0.678 10.005-3.392" fill="none" stroke="#000" stroke-linecap="round" stroke-linejoin="round"/>
<path d="m135.93 255.52s7.971-2.374 12.888-8.648" fill="none" stroke="#000" stroke-linecap="round" stroke-linejoin="round"/>
<path d="m143.05 262.48s5.087-3.052 8.988-7.631 4.918-6.444 4.918-6.444" fill="#bacad3" stroke="#000" stroke-linecap="round" stroke-linejoin="round"/>
<g stroke-linecap="round" stroke-linejoin="round">
<path d="m129.1 267.21s-0.381 0.042-2.52 0.236-10.403 4.861-11.764 11.181 3.986 11.861 7.778 12.833 8.75-1.652 8.944-5.25-4.472-3.305-4.472-3.305-1.944-0.292-2.722-1.848 2.625-4.083 5.153-5.542c2.457-1.418 3.167-4.296 3.205-4.456l-3.602-3.849z" fill="#725120" stroke="#4a3613"/>
<path d="m138.54 268.22s-1.944-1.848-3.5-3.986-4.472-3.111-6.125-1.167c-1.05 1.235-0.844 2.587-0.554 3.41 0.975 0.948 2.92 2.883 4.342 4.578 1e-3 -5e-3 4e-3 -0.016 4e-3 -0.016s2.917 1.458 4.861 0.098 0.972-2.917 0.972-2.917z" fill="#e9c31e" stroke="#9a6104"/>
</g>
<path d="m127.48 268.56c1.163 0.179 2.99 1.771 1.107 2.547s-9.967 3.767-10.631 8.195 2.437 9.302 6.423 9.08 4.873-1.439 4.873-1.439-1.551 3.212-5.205 3.212-8.527-3.986-8.306-10.521 10.3-11.295 11.739-11.074z" fill="#bb7d2b"/>
<path d="m125.04 278.85s-3.765 1.883-3.765 0" fill="none" stroke="#4a3613" stroke-linecap="round" stroke-linejoin="round"/>
<path d="m125.27 282.06s-0.997-0.997-1.772 0-0.443 1.994-0.443 1.994-1.882-2.104-0.886-2.658" fill="none" stroke="#4a3613" stroke-linecap="round" stroke-linejoin="round"/>
<circle cx="130.14" cy="263.92" r=".827" d="m 130.965,263.922 c 0,0.45674 -0.37026,0.827 -0.827,0.827 -0.45674,0 -0.827,-0.37026 -0.827,-0.827 0,-0.45674 0.37026,-0.827 0.827,-0.827 0.45674,0 0.827,0.37026 0.827,0.827 z" fill="#fff" stroke="#9a6104" stroke-linecap="round" stroke-linejoin="round"/>
<circle cx="131.84" cy="265.62" r=".827" d="m 132.663,265.62 c 0,0.45673 -0.37026,0.827 -0.827,0.827 -0.45674,0 -0.827,-0.37027 -0.827,-0.827 0,-0.45674 0.37026,-0.827 0.827,-0.827 0.45674,0 0.827,0.37026 0.827,0.827 z" fill="#fff" stroke="#9a6104" stroke-linecap="round" stroke-linejoin="round"/>
<circle cx="133.4" cy="267.21" r=".827" d="m 134.223,267.207 c 0,0.45674 -0.37026,0.827 -0.827,0.827 -0.45674,0 -0.827,-0.37026 -0.827,-0.827 0,-0.45674 0.37026,-0.827 0.827,-0.827 0.45674,0 0.827,0.37026 0.827,0.827 z" fill="#fff" stroke="#9a6104" stroke-linecap="round" stroke-linejoin="round"/>
<circle cx="134.96" cy="268.82" r=".827" d="m 135.782,268.82199 c 0,0.45674 -0.37026,0.827 -0.827,0.827 -0.45674,0 -0.827,-0.37026 -0.827,-0.827 0,-0.45674 0.37026,-0.827 0.827,-0.827 0.45674,0 0.827,0.37026 0.827,0.827 z" fill="#fff" stroke="#9a6104" stroke-linecap="round" stroke-linejoin="round"/>
<circle cx="136.44" cy="270.3" r=".827" d="m 137.262,270.302 c 0,0.45674 -0.37026,0.827 -0.827,0.827 -0.45674,0 -0.827,-0.37026 -0.827,-0.827 0,-0.45674 0.37026,-0.827 0.827,-0.827 0.45674,0 0.827,0.37026 0.827,0.827 z" fill="#fff" stroke="#9a6104" stroke-linecap="round" stroke-linejoin="round"/>
<path d="m124.14 394.92 0.199-0.05c0.723-0.183 1.147-0.3 1.275-0.352s0.182-0.12 0.159-0.206c-0.016-0.062-0.278-0.42-0.788-1.075-0.51-0.654-0.965-1.213-1.363-1.674l-2.082 0.603-2.183 0.668c-0.077 0.565-0.158 1.223-0.243 1.972-0.086 0.749-0.122 1.147-0.11 1.196 0.05 0.196 0.442 0.2 1.18 0.014l0.243-0.062 0.222-0.055c0.162-0.041 0.267 0.031 0.313 0.217 0.042 0.162 0.059 0.263 0.053 0.301-6e-3 0.039-0.053 0.07-0.142 0.092l-0.265 0.066-1.712 0.394c-0.472 0.118-0.968 0.252-1.486 0.399-0.52 0.147-0.894 0.266-1.121 0.355l-0.133 0.034c-0.133 0.033-0.213-4e-3 -0.24-0.111-0.042-0.168-0.052-0.302-0.03-0.402s0.165-0.185 0.431-0.252l0.993-0.349c0.108-0.065 0.182-0.15 0.219-0.25 0.037-0.101 0.099-0.357 0.183-0.77l0.892-4.854 0.503-2.667 0.477-2.68 0.331-1.764c0.066-0.355 0.119-0.567 0.157-0.636 0.037-0.068 0.137-0.123 0.299-0.164 0.178-0.044 0.3-0.055 0.368-0.032 0.068 0.021 0.189 0.128 0.362 0.319 0.513 0.538 1.111 1.205 1.798 2 0.618 0.708 1.772 2.052 3.463 4.032l1.925 2.223 1.083 1.219c0.285 0.32 0.472 0.519 0.562 0.594 0.09 0.076 0.174 0.116 0.254 0.123 0.08 6e-3 0.275-0.011 0.588-0.051 0.311-0.039 0.577-0.086 0.799-0.143 0.221-0.055 0.354-0.072 0.397-0.053 0.044 0.021 0.091 0.128 0.14 0.318 0.051 0.203 2e-3 0.323-0.145 0.36l-0.398 0.101-3.604 0.812-3.669 0.926c-0.222 0.056-0.359-0.026-0.415-0.248-0.034-0.135-0.036-0.233-4e-3 -0.293s0.118-0.108 0.265-0.145zm-3.931-7.846c-0.159 0.55-0.293 1.155-0.4 1.816s-0.229 1.687-0.363 3.08l0.938-0.198c1.209-0.305 2.163-0.591 2.864-0.86l-1.481-1.86-1.558-1.978z"/>
<path d="m146.31 379.5-1.203 1.232c-0.65 0.698-1.094 1.186-1.33 1.463-0.315 0.366-0.757 0.925-1.323 1.674l0.359 0.255 2.004 1.42c0.137 0.096 0.617 0.449 1.443 1.06 1.41 1.039 2.403 1.792 2.979 2.26 0.329 0.26 0.646 0.505 0.948 0.737 0.302 0.231 0.512 0.377 0.628 0.438s0.354 0.063 0.716 0.011l0.835-0.121c0.104-0.016 0.167 0.042 0.186 0.17 0.053 0.36 4e-3 0.552-0.146 0.573l-0.158 0.022-4.114 0.464-2.891 0.498-0.202 0.028c-0.12 0.018-0.189-0.035-0.207-0.16-0.057-0.39-3e-3 -0.596 0.16-0.62l0.289-0.042 0.267-0.039c0.579-0.084 0.864-0.156 0.854-0.219l-0.086-0.118-4.672-3.362c-0.798-0.563-1.404-0.961-1.819-1.19l0.231 1.748c0.109 0.755 0.226 1.524 0.347 2.308 0.122 0.785 0.23 1.222 0.327 1.308 0.097 0.087 0.254 0.127 0.474 0.12 0.22-6e-3 0.642-0.055 1.267-0.146 0.104-0.016 0.175-1e-3 0.212 0.043 0.036 0.045 0.069 0.171 0.101 0.38 0.03 0.209-0.015 0.321-0.134 0.339l-0.089 0.012c-0.168-1e-3 -0.316 2e-3 -0.445 8e-3 -0.128 6e-3 -0.268 0.02-0.417 0.041l-0.492 0.071-1.677 0.244-1.32 0.191c-0.597 0.088-1.101 0.161-1.51 0.221-0.411 0.06-0.788 0.113-1.13 0.164l-0.451 0.199c-0.104 0.016-0.169-0.011-0.194-0.076-0.024-0.067-0.049-0.184-0.073-0.35-0.036-0.248 0.04-0.386 0.227-0.413l0.345-0.05 0.367-0.054c0.431-0.063 0.697-0.123 0.799-0.183 0.102-0.059 0.141-0.171 0.117-0.333l0.035-0.234-1.155-7.947-0.213-1.461-0.12-0.825-0.029-0.206c-0.048-0.325-0.118-0.499-0.212-0.525-0.094-0.024-0.245-0.03-0.454-0.019-0.208 0.01-0.496 0.042-0.865 0.096l-0.22 0.033-0.199 0.028c-0.117 0.017-0.187-0.045-0.207-0.188-0.027-0.189-0.034-0.309-0.019-0.359s0.062-0.082 0.137-0.093l0.18-0.026c0.182-0.014 0.796-0.083 1.842-0.21s1.884-0.235 2.515-0.328l0.854-0.124 1.147-0.166 0.81-0.118 0.271-0.039c0.09-0.013 0.147 0.065 0.172 0.235 0.034 0.231-0.01 0.361-0.129 0.392l-0.867 0.127c-0.197 0.028-0.391 0.06-0.58 0.094-0.189 0.033-0.302 0.088-0.338 0.164-0.035 0.075-0.049 0.192-0.041 0.352 7e-3 0.159 0.054 0.532 0.14 1.122l0.281 1.937 0.184 1.26 0.101 0.696 0.301-0.295c1.567-1.698 2.736-2.996 3.505-3.894 0.732-0.841 1.236-1.468 1.511-1.883l0.115-0.151 0.036-0.063c-3e-3 -0.025-0.073-0.034-0.208-0.027-0.136 7e-3 -0.381 0.036-0.737 0.087l-0.334 0.05c-0.104 0.015-0.209 0.029-0.312 0.045-0.094-0.011-0.15-0.09-0.171-0.236-0.038-0.255 0.011-0.394 0.146-0.413l0.18-0.026 0.629-0.092 0.719-0.104 1.729-0.251 1.304-0.189c0.299-0.044 0.474-0.057 0.521-0.039 0.048 0.017 0.088 0.132 0.119 0.345 0.022 0.154 4e-3 0.241-0.054 0.262l-0.857 0.125c-0.437 0.063-0.705 0.115-0.808 0.155-0.102 0.04-0.232 0.143-0.393 0.307l-0.361 0.393z"/>
<path d="m181.78 390.09 0.204 0.019c0.741 0.069 1.182 0.101 1.319 0.095s0.21-0.053 0.22-0.142c5e-3 -0.063-0.123-0.488-0.385-1.275-0.263-0.789-0.504-1.467-0.726-2.034l-2.163-0.127-2.281-0.1c-0.262 0.507-0.558 1.1-0.888 1.776-0.331 0.678-0.498 1.041-0.504 1.091-0.018 0.201 0.351 0.336 1.107 0.408l0.25 0.023 0.227 0.021c0.167 0.016 0.241 0.119 0.223 0.31-0.016 0.167-0.032 0.268-0.051 0.302s-0.072 0.048-0.163 0.038l-0.273-0.025-1.744-0.201c-0.485-0.046-0.996-0.086-1.534-0.121-0.539-0.034-0.931-0.047-1.176-0.038l-0.136-0.013c-0.137-0.013-0.199-0.075-0.188-0.186 0.016-0.172 0.051-0.301 0.104-0.389 0.055-0.089 0.218-0.119 0.49-0.094l1.053 3e-3c0.124-0.026 0.221-0.08 0.289-0.163 0.069-0.082 0.212-0.304 0.43-0.663l2.462-4.278 1.365-2.346 1.345-2.366 0.9-1.552c0.182-0.313 0.303-0.495 0.36-0.547 0.059-0.052 0.171-0.069 0.338-0.055 0.182 0.018 0.3 0.048 0.357 0.092 0.057 0.043 0.135 0.186 0.235 0.423 0.303 0.679 0.645 1.507 1.026 2.486 0.345 0.873 0.984 2.526 1.917 4.958l1.071 2.737 0.613 1.511c0.161 0.396 0.271 0.646 0.331 0.747 0.059 0.102 0.125 0.168 0.198 0.201 0.073 0.031 0.264 0.082 0.57 0.148s0.573 0.11 0.801 0.133c0.227 0.021 0.358 0.049 0.393 0.083 0.035 0.035 0.043 0.15 0.024 0.347-0.02 0.208-0.104 0.305-0.257 0.292l-0.408-0.039-3.668-0.439-3.769-0.354c-0.227-0.021-0.33-0.145-0.309-0.371 0.013-0.14 0.044-0.232 0.095-0.278 0.053-0.047 0.155-0.063 0.306-0.048zm-1.084-8.709c-0.334 0.465-0.662 0.99-0.984 1.577s-0.78 1.514-1.371 2.782l0.95 0.127c1.24 0.116 2.235 0.165 2.985 0.146l-0.773-2.249-0.807-2.383z"/>
<path d="m201.1 381.06 0.077 0.166c0.094 0.288 0.51 1.073 1.248 2.362 0.736 1.288 1.304 2.216 1.703 2.789l0.498-0.451 1.427-1.401c0.28-0.272 0.525-0.507 0.732-0.708 0.211-0.199 0.728-0.649 1.544-1.352l0.178-0.201c0.017-0.11-0.1-0.189-0.35-0.234l-0.65-0.113-0.342-0.06-0.48-0.086c-0.25-0.044-0.357-0.182-0.317-0.411 0.04-0.242 0.151-0.351 0.332-0.318l0.139 0.022 2.816 0.632 2.35 0.277 0.102 0.02c0.159 0.027 0.219 0.182 0.172 0.465-0.027 0.152-0.09 0.241-0.187 0.265l-1.471-0.259-0.378-0.066-0.138-0.024c-0.204-0.022-0.352 0.023-0.443 0.135l-0.295 0.295-1.306 1.297c-1.051 1.111-2.392 2.465-4.018 4.057-1.51 1.482-2.662 2.553-3.453 3.213-0.926 0.775-0.961 0.729-1.706 0.984-0.746 0.253-1.717 0.112-2.629-0.046-0.754-0.133-1.359-0.375-1.819-0.728-0.457-0.35-0.65-0.731-0.583-1.143 0.057-0.337 0.283-0.574 0.679-0.711 0.4-0.136 0.92-0.146 1.557-0.034 0.367 0.065 0.646 0.144 0.841 0.245 0.196 0.099 0.5 0.307 0.918 0.624 0.206 0.165 0.435 0.269 0.688 0.313 0.411 0.071 0.72 0.04 0.93-0.096 0.211-0.139 0.065 0.114 0.892-0.745l0.929-0.935c-1.171-1.736-2.031-3.047-2.591-3.93-0.668-1.056-1.548-2.482-2.634-4.284-0.289-0.526-0.534-0.853-0.737-0.979-0.201-0.125-0.713-0.259-1.534-0.403-0.296-0.052-0.429-0.178-0.396-0.374 0.045-0.279 0.172-0.399 0.377-0.362l0.233 0.067 4.876 0.966c0.593 0.103 1.234 0.209 1.92 0.313 0.688 0.107 1.226 0.179 1.618 0.22l0.692 0.076c0.251 0.044 0.359 0.165 0.325 0.364-0.044 0.277-0.169 0.396-0.377 0.36l-0.239-0.043-0.819-0.145c-0.389-0.066-0.634-0.104-0.738-0.109-0.106-6e-3 -0.162 0.03-0.177 0.104l0.014 0.12z"/>
<path d="m215.02 395.55 0.198 0.051c0.722 0.185 1.151 0.286 1.288 0.302s0.217-0.021 0.24-0.106c0.015-0.061-0.045-0.502-0.18-1.321s-0.267-1.526-0.396-2.122l-2.116-0.465-2.237-0.457c-0.338 0.46-0.723 0.999-1.155 1.615-0.433 0.617-0.656 0.95-0.669 0.999-0.05 0.194 0.293 0.387 1.029 0.575l0.242 0.063 0.222 0.058c0.161 0.041 0.219 0.154 0.171 0.341-0.042 0.161-0.074 0.258-0.099 0.289-0.023 0.03-0.079 0.035-0.168 0.012l-0.265-0.068-1.69-0.473c-0.471-0.121-0.97-0.241-1.496-0.359-0.526-0.119-0.912-0.193-1.154-0.224l-0.134-0.034c-0.132-0.034-0.185-0.104-0.156-0.213 0.043-0.166 0.098-0.288 0.164-0.367 0.068-0.078 0.234-0.083 0.499-0.015l1.039 0.168c0.127-6e-3 0.231-0.045 0.313-0.115 0.08-0.07 0.257-0.267 0.527-0.588l3.104-3.838 1.717-2.102 1.699-2.127 1.134-1.391c0.229-0.28 0.376-0.44 0.442-0.482 0.065-0.042 0.179-0.042 0.342-1e-3 0.176 0.046 0.289 0.095 0.339 0.147 0.049 0.051 0.104 0.203 0.165 0.454 0.192 0.718 0.4 1.59 0.623 2.616 0.204 0.916 0.575 2.649 1.114 5.197l0.627 2.872 0.37 1.588c0.096 0.418 0.166 0.682 0.208 0.79 0.043 0.109 0.098 0.187 0.165 0.229 0.066 0.044 0.247 0.122 0.539 0.236 0.293 0.114 0.549 0.2 0.771 0.258 0.221 0.056 0.346 0.104 0.375 0.144 0.028 0.039 0.019 0.155-0.031 0.346-0.051 0.202-0.151 0.285-0.299 0.247l-0.397-0.102-3.553-1.011-3.666-0.941c-0.222-0.057-0.304-0.196-0.246-0.416 0.034-0.135 0.08-0.222 0.137-0.26 0.054-0.037 0.157-0.037 0.304 1e-3zm0.299-8.772c-0.403 0.407-0.81 0.875-1.221 1.403-0.41 0.529-1.008 1.373-1.791 2.531l0.918 0.275c1.207 0.311 2.183 0.516 2.927 0.614l-0.412-2.342-0.421-2.481z"/>
<path d="m169.52 389.65c-0.033-0.063-0.069-0.276-0.111-0.643-0.041-0.366-0.067-0.708-0.076-1.024l0.027-0.571 0.021-1.615c-4e-3 -0.102-0.157-0.147-0.461-0.139-0.091 3e-3 -0.173 0.068-0.245 0.197l-0.475 0.889c-0.332 0.606-0.548 0.986-0.649 1.142-0.103 0.155-0.271 0.351-0.507 0.586-0.324 0.339-0.734 0.614-1.229 0.826-0.182 0.078-0.364 0.128-0.547 0.179 0.176-0.881 0.141-1.149 0.141-1.149-0.732-0.215-1.091 0.322-1.091 0.322s0.069 0.045-0.167 0.978c-0.776-0.015-1.534-0.283-2.273-0.827-0.7-0.511-1.198-1.126-1.493-1.846-0.296-0.72-0.462-1.688-0.499-2.903-0.07-2.316 0.187-3.994 0.771-5.031 0.585-1.039 1.583-1.579 2.996-1.623 1.23-0.037 2.245 0.332 3.044 1.105 0.251 0.246 0.531 0.592 0.842 1.039s0.539 0.839 0.686 1.177c0.099 0.225 0.159 0.351 0.183 0.375s0.081 0.035 0.173 0.032c0.304-9e-3 0.452-0.096 0.447-0.261l-0.012-0.398-0.039-0.531-0.021-0.685-0.044-0.682-0.042-0.646c-8e-3 -0.228-6e-3 -0.434 4e-3 -0.618 9e-3 -0.184 0.028-0.295 0.059-0.334l0.021-0.059c-0.078-0.047-0.132-0.078-0.163-0.089-0.107-0.061-0.192-0.09-0.253-0.088-0.015 0.014-0.045 0.03-0.09 0.05-0.045 0.021-0.104 0.064-0.179 0.129-0.444 0.395-0.742 0.594-0.895 0.598l-0.206-0.031-1.106-0.384c-0.86-0.291-1.86-0.42-2.999-0.385-2.265 0.068-4.151 0.779-5.661 2.13-1.51 1.352-2.235 2.977-2.178 4.876 0.051 1.684 0.745 3.148 2.083 4.395 1.339 1.245 3.038 2.008 5.101 2.287l0.639 0.02 0.752-0.023c0.042-1e-3 0.078-9e-3 0.12-0.011-0.499 1.283-2.45 0.818-3.566 1.339-1.14 0.532-0.971 1.374-0.971 1.374l0.3 0.353s0.187-1.057 0.903-0.952c0.386 0.058 2.183 1.076 3.489-0.301 0.487-0.513 0.805-1.241 1.012-1.954 0.221-0.044 0.444-0.086 0.644-0.149 0.557-0.179 1.239-0.505 2.046-0.979 0.231 0.119 0.433 0.246 0.604 0.38 0.25 0.233 0.426 0.387 0.527 0.459 0.101 0.074 0.174 0.109 0.22 0.108 0.076-3e-3 0.17-0.04 0.282-0.113 0.111-0.073 0.167-0.136 0.165-0.187l-0.054-0.114z"/>
</g>
</svg>
