<?xml version="1.0" encoding="utf-8"?>
<!-- Generator: Adobe Illustrator 25.4.1, SVG Export Plug-In . SVG Version: 6.00 Build 0)  -->
<svg version="1.1" id="Layer_1" xmlns="http://www.w3.org/2000/svg" xmlns:xlink="http://www.w3.org/1999/xlink" x="0px" y="0px"
	 width="1200px" height="800px" viewBox="0 0 1200 800" style="enable-background:new 0 0 1200 800;" xml:space="preserve">
<style type="text/css">
	.st0{fill:#00A652;}
	.st1{fill:#FEF200;stroke:#000000;stroke-width:4;stroke-miterlimit:10;}
	.st2{fill:#0072BB;stroke:#000000;stroke-width:4;stroke-miterlimit:10;}
	.st3{fill:#00A652;stroke:#000000;stroke-width:4;stroke-miterlimit:10;}
	.st4{fill:none;stroke:#000000;stroke-width:1.5;stroke-miterlimit:10;}
	.st5{fill:#FEF200;stroke:#000000;stroke-miterlimit:10;}
	.st6{fill:none;stroke:#000000;stroke-width:2;stroke-miterlimit:10;}
	.st7{fill:none;stroke:#000000;stroke-miterlimit:10;}
	.st8{fill:#FEF200;}
	.st9{fill:none;stroke:#000000;stroke-width:4;stroke-miterlimit:10;}
</style>
<rect class="st0" width="1200" height="800"/>
<g>
	<path class="st1" d="M642.695,576.116c38.261-12.918,62.228-34.976,74.656-46.66c26.454-24.869,40.312-49.694,47.899-63.548
		c7.751-14.154,14.254-28.955,19.436-44.238V166.959H415.314v254.712c5.182,15.284,11.685,30.088,19.436,44.243
		c7.587,13.854,21.445,38.676,47.904,63.548c12.428,11.684,36.395,33.742,74.656,46.66c27.411,10.948,57.979,10.948,85.39,0
		L642.695,576.116z"/>
	<path class="st2" d="M642.695,576.116c38.261-12.918,62.228-34.976,74.656-46.66c26.454-24.869,40.312-49.694,47.899-63.548
		c7.751-14.154,14.254-28.955,19.436-44.238v-46.028H415.314v46.028c5.182,15.284,11.685,30.088,19.436,44.243
		c7.587,13.854,21.445,38.676,47.904,63.548c12.428,11.684,36.395,33.742,74.656,46.66c27.411,10.948,57.979,10.948,85.39,0
		L642.695,576.116z"/>
	<polygon class="st3" points="419.913,375.642 780.087,375.642 600,244.644 	"/>
	<path d="M557.542,543.794c3.198-4.426,6.9-8.466,11.031-12.037c4.129-3.592,8.717-6.621,13.642-9.006
		c7.349-3.576,15.307-5.735,23.455-6.365c0.676-0.053,1.355-0.092,2.03-0.122c0.694-0.028,1.313-0.04,1.875-0.113l1.746-0.165
		c0.585-0.062,1.188-0.207,1.783-0.311c4.894-1.028,9.675-2.533,14.276-4.493c4.696-1.97,9.284-4.19,13.743-6.65
		c8.944-4.993,17.428-10.769,25.352-17.26c1.939-1.672,3.908-3.318,5.807-5.038l2.8-2.632c0.941-0.87,1.872-1.752,2.75-2.687
		c3.646-3.607,6.976-7.514,10.265-11.45c6.459-8.014,12.036-16.701,16.633-25.911c4.642-9.224,8.341-18.893,11.041-28.86
		c1.36-4.985,2.474-10.039,3.375-15.139c0.861-5.101,1.499-10.245,1.866-15.413c-0.22,5.176-0.708,10.344-1.423,15.484
		c-0.754,5.134-1.723,10.239-2.945,15.29c-2.43,10.129-5.876,19.988-10.286,29.425c-4.395,9.484-9.8,18.468-16.119,26.794
		c-3.232,4.105-6.518,8.191-10.131,11.984c-0.87,0.98-1.792,1.908-2.727,2.823l-2.784,2.771c-1.887,1.815-3.847,3.552-5.781,5.32
		c-7.921,6.885-16.438,13.053-25.45,18.432c-4.54,2.681-9.22,5.116-14.021,7.296c-4.876,2.245-9.961,4.002-15.182,5.247
		c-0.678,0.137-1.332,0.311-2.031,0.415l-2.116,0.264c-0.726,0.104-1.399,0.136-1.998,0.178c-0.622,0.046-1.232,0.104-1.846,0.166
		c-17.397,1.818-33.065,11.333-42.699,25.933L557.542,543.794z"/>
	<line class="st4" x1="632.02" y1="513.125" x2="653.971" y2="513.125"/>
	<path class="st5" d="M650.6,514.65c1.557-2.091,3.5-3.865,5.724-5.226c3.156-1.908,6.764-2.939,10.452-2.986
		c5.748-0.164,11.43,1.257,16.424,4.106c-1.393,1.27-12.339,10.951-24.932,7.767C655.499,517.598,652.895,516.354,650.6,514.65z"/>
	<line class="st6" x1="637.74" y1="509.762" x2="637.74" y2="498.609"/>
	<path class="st5" d="M637.309,501.76c-1.952-1.728-3.556-3.814-4.723-6.146c-1.634-3.306-2.356-6.988-2.091-10.666
		c0.323-5.741,2.22-11.283,5.482-16.018c1.147,1.495,9.868,13.217,5.629,25.5C640.662,497.129,639.203,499.618,637.309,501.76z"/>
	<line class="st4" x1="649.032" y1="502.654" x2="670.983" y2="502.654"/>
	<path class="st5" d="M667.78,503.448c1.433-2.178,3.269-4.062,5.41-5.549c3.041-2.089,6.585-3.327,10.265-3.588
		c5.728-0.498,11.484,0.59,16.635,3.145c-1.317,1.348-11.678,11.649-24.439,9.202C672.844,506.109,670.171,505.018,667.78,503.448z"
		/>
	<line class="st6" x1="652.856" y1="498.699" x2="652.856" y2="487.548"/>
	<path class="st5" d="M653.351,491.081c-2.002-1.67-3.665-3.709-4.9-6.005c-1.731-3.257-2.56-6.917-2.402-10.601
		c0.155-5.749,1.889-11.345,5.011-16.175c1.19,1.461,10.25,12.924,6.373,25.325C656.567,486.351,655.181,488.883,653.351,491.081z"
		/>
	<line class="st6" x1="665.815" y1="491.383" x2="683.137" y2="489.348"/>
	<path class="st5" d="M679.191,490.471c1.304-2.258,3.029-4.245,5.081-5.854c2.914-2.26,6.378-3.703,10.035-4.178
		c5.691-0.828,11.499-0.075,16.79,2.177c-1.236,1.424-10.983,12.308-23.865,10.606C684.399,492.836,681.668,491.901,679.191,490.471
		z"/>
	<line class="st6" x1="666.776" y1="489.492" x2="666.776" y2="474.692"/>
	<path class="st5" d="M666.233,478.051c-2.036-1.628-3.742-3.631-5.026-5.9c-1.798-3.22-2.704-6.861-2.623-10.548
		c0.034-5.75,1.648-11.38,4.666-16.274c1.222,1.436,10.522,12.704,6.908,25.185C669.35,473.256,668.017,475.816,666.233,478.051z"/>
	<line class="st6" x1="680.007" y1="476.728" x2="697.329" y2="474.692"/>
	<path class="st5" d="M694.004,475.205c1.013-2.357,2.467-4.497,4.285-6.306c2.585-2.546,5.803-4.356,9.322-5.241
		c5.463-1.468,11.225-1.404,16.654,0.185c-1.043,1.533-9.308,13.293-22.086,13.12C699.367,476.911,696.59,476.315,694.004,475.205z"
		/>
	<line class="st6" x1="681.351" y1="475.71" x2="681.351" y2="460.911"/>
	<path class="st5" d="M681.713,463.561c-2.321-1.188-4.394-2.809-6.105-4.776c-2.406-2.795-4.022-6.181-4.682-9.81
		c-1.117-5.641-0.661-11.48,1.319-16.878c1.484,1.162,12.849,10.344,11.804,23.296C683.806,458.241,683.013,461.015,681.713,463.561
		z"/>
	<line class="st6" x1="694.063" y1="460.129" x2="711.171" y2="456.738"/>
	<path class="st5" d="M709.683,457.246c0.756-2.399,1.964-4.631,3.559-6.576c2.271-2.739,5.231-4.822,8.576-6.034
		c5.185-1.971,10.813-2.478,16.267-1.465c-0.867,1.599-7.768,13.888-20.256,14.981C715.08,458.379,712.314,458.072,709.683,457.246z
		"/>
	<line class="st6" x1="692.09" y1="462.595" x2="691.308" y2="443.054"/>
	<path class="st5" d="M691.868,445.924c-2.344-1.142-4.448-2.722-6.198-4.655c-2.461-2.747-4.143-6.101-4.873-9.716
		c-1.228-5.618-0.887-11.465,0.986-16.901c1.507,1.132,13.05,10.088,12.261,23.058C693.857,440.563,693.118,443.353,691.868,445.924
		z"/>
	<line class="st6" x1="703.589" y1="443.85" x2="720.42" y2="436.181"/>
	<path class="st5" d="M719.153,437.519c0.231-2.504,0.94-4.941,2.088-7.179c1.641-3.157,4.095-5.818,7.108-7.709
		c4.652-3.021,10.045-4.705,15.59-4.868c-0.508,1.746-4.658,15.215-16.633,18.921C724.668,437.487,721.899,437.771,719.153,437.519z
		"/>
	<line class="st6" x1="704.944" y1="440.836" x2="700.176" y2="425.361"/>
	<path class="st5" d="M701.408,427.862c-2.464-0.627-4.785-1.72-6.837-3.221c-2.892-2.137-5.161-5.007-6.573-8.315
		c-2.281-5.121-3.11-10.771-2.396-16.332c1.659,0.784,14.454,7.051,16.26,19.597C702.247,422.352,702.093,425.161,701.408,427.862z"
		/>
	<line class="st4" x1="713.442" y1="420.69" x2="728.104" y2="410.368"/>
	<path class="st5" d="M724.398,413.204c0.017-2.506,0.514-4.985,1.464-7.304c1.36-3.273,3.57-6.123,6.401-8.256
		c4.36-3.396,9.571-5.526,15.062-6.157c-0.358,1.776-3.333,15.499-14.904,20.195C729.87,412.704,727.146,413.22,724.398,413.204z"/>
	<line class="st4" x1="712.997" y1="421.666" x2="708.998" y2="408.688"/>
	<path class="st5" d="M710.171,412.772c-2.517-0.641-4.888-1.758-6.985-3.29c-2.955-2.183-5.273-5.116-6.715-8.495
		c-2.332-5.233-3.178-11.006-2.448-16.688c1.698,0.802,14.767,7.21,16.613,20.021C711.029,407.141,710.871,410.012,710.171,412.772z
		"/>
	<line class="st7" x1="717.199" y1="406.654" x2="730.672" y2="390.142"/>
	<path class="st5" d="M730.026,391.196c-0.984-2.285-1.521-4.738-1.582-7.225c-0.067-3.518,0.805-6.99,2.528-10.058
		c2.611-4.827,6.5-8.842,11.241-11.606c0.384,1.758,3.152,15.424-5.495,24.31C734.804,388.562,732.531,390.117,730.026,391.196z"/>
	<line class="st7" x1="717.895" y1="404.722" x2="708.346" y2="385.395"/>
	<path class="st5" d="M708.99,388.698c-2.256-1.173-4.267-2.766-5.924-4.694c-2.329-2.741-3.883-6.053-4.504-9.595
		c-1.054-5.509-0.572-11.201,1.394-16.454c1.439,1.141,12.464,10.167,11.365,22.789C711.066,383.52,710.275,386.222,708.99,388.698z
		"/>
	<path class="st5" d="M720.772,348.476c-3.995,5.53-5.885,12.305-5.329,19.105c0.491,5.023,2.333,9.819,5.329,13.881
		c2.728-3.148,4.63-6.925,5.534-10.991C728.773,359.021,721.915,349.939,720.772,348.476z"/>
	<path d="M636.518,547.964c-5.474-8.194-12.89-14.906-21.587-19.54c-6.573-3.437-13.734-5.605-21.109-6.39
		c-0.614-0.066-1.227-0.12-1.846-0.166c-0.599-0.042-1.275-0.075-1.998-0.178l-2.116-0.264c-0.699-0.104-1.353-0.278-2.031-0.415
		c-5.221-1.245-10.307-3.002-15.182-5.247c-4.801-2.18-9.481-4.615-14.021-7.296c-9.012-5.379-17.529-11.547-25.45-18.432
		c-1.934-1.768-3.893-3.506-5.781-5.32l-2.784-2.771c-0.933-0.916-1.857-1.844-2.727-2.823c-3.614-3.792-6.899-7.88-10.131-11.984
		c-6.32-8.327-11.724-17.31-16.119-26.794c-4.409-9.437-7.855-19.296-10.285-29.425c-1.221-5.051-2.191-10.156-2.945-15.29
		c-0.714-5.14-1.203-10.308-1.423-15.484c0.371,5.168,1.01,10.312,1.866,15.413c0.901,5.095,2.015,10.149,3.375,15.139
		c2.7,9.967,6.399,19.636,11.041,28.86c4.597,9.21,10.173,17.897,16.633,25.911c3.291,3.94,6.622,7.843,10.265,11.45
		c0.878,0.933,1.808,1.817,2.75,2.687l2.8,2.632c1.898,1.721,3.867,3.366,5.807,5.038c7.924,6.491,16.408,12.267,25.352,17.26
		c4.459,2.46,9.047,4.679,13.743,6.65c4.601,1.96,9.382,3.465,14.276,4.493c0.595,0.104,1.199,0.251,1.783,0.311l1.746,0.165
		c0.562,0.073,1.181,0.085,1.875,0.113c0.675,0.03,1.354,0.069,2.03,0.122c8.149,0.631,16.106,2.79,23.455,6.365
		c4.926,2.386,9.513,5.414,13.642,9.006c4.131,3.571,7.833,7.611,11.031,12.037L636.518,547.964z"/>
	<line class="st4" x1="567.98" y1="513.125" x2="546.029" y2="513.125"/>
	<path class="st5" d="M549.4,514.65c-1.557-2.091-3.5-3.865-5.724-5.226c-3.156-1.908-6.764-2.939-10.452-2.986
		c-5.748-0.164-11.43,1.257-16.424,4.106c1.393,1.27,12.339,10.951,24.932,7.767C544.501,517.598,547.105,516.354,549.4,514.65z"/>
	<line class="st6" x1="562.26" y1="509.762" x2="562.26" y2="498.609"/>
	<path class="st5" d="M562.691,501.76c1.952-1.728,3.556-3.814,4.723-6.146c1.634-3.306,2.356-6.988,2.091-10.666
		c-0.323-5.741-2.22-11.283-5.482-16.018c-1.147,1.495-9.868,13.217-5.629,25.5C559.338,497.129,560.797,499.618,562.691,501.76z"/>
	<line class="st4" x1="550.968" y1="502.654" x2="529.017" y2="502.654"/>
	<path class="st5" d="M532.22,503.448c-1.433-2.178-3.27-4.062-5.411-5.549c-3.041-2.089-6.585-3.327-10.265-3.588
		c-5.728-0.498-11.483,0.59-16.635,3.145c1.317,1.348,11.678,11.649,24.439,9.202C527.156,506.109,529.829,505.018,532.22,503.448z"
		/>
	<line class="st6" x1="547.144" y1="498.699" x2="547.144" y2="487.548"/>
	<path class="st5" d="M546.649,491.081c2.002-1.67,3.665-3.709,4.9-6.005c1.731-3.257,2.56-6.917,2.402-10.601
		c-0.155-5.749-1.889-11.345-5.011-16.175c-1.19,1.461-10.25,12.924-6.373,25.325C543.433,486.351,544.819,488.883,546.649,491.081z
		"/>
	<line class="st6" x1="534.185" y1="491.383" x2="516.863" y2="489.348"/>
	<path class="st5" d="M520.809,490.471c-1.304-2.258-3.029-4.245-5.081-5.854c-2.914-2.26-6.378-3.703-10.035-4.178
		c-5.691-0.828-11.499-0.075-16.79,2.177c1.236,1.424,10.983,12.308,23.865,10.606C515.601,492.836,518.332,491.901,520.809,490.471
		z"/>
	<line class="st6" x1="533.224" y1="489.492" x2="533.224" y2="474.692"/>
	<path class="st5" d="M533.767,478.051c2.036-1.628,3.742-3.631,5.026-5.9c1.798-3.22,2.704-6.861,2.623-10.548
		c-0.034-5.75-1.648-11.38-4.666-16.274c-1.222,1.436-10.522,12.704-6.908,25.185C530.65,473.256,531.983,475.816,533.767,478.051z"
		/>
	<line class="st6" x1="519.993" y1="476.728" x2="502.671" y2="474.692"/>
	<path class="st5" d="M505.996,475.205c-1.013-2.357-2.467-4.497-4.285-6.306c-2.585-2.546-5.803-4.356-9.322-5.241
		c-5.463-1.468-11.225-1.404-16.654,0.185c1.043,1.533,9.308,13.293,22.086,13.12C500.633,476.911,503.41,476.315,505.996,475.205z"
		/>
	<line class="st6" x1="518.649" y1="475.71" x2="518.649" y2="460.911"/>
	<path class="st5" d="M518.287,463.561c2.321-1.188,4.394-2.809,6.105-4.776c2.406-2.795,4.022-6.182,4.682-9.81
		c1.117-5.641,0.661-11.48-1.319-16.878c-1.484,1.162-12.849,10.344-11.804,23.296C516.194,458.241,516.987,461.015,518.287,463.561
		z"/>
	<line class="st6" x1="505.937" y1="460.129" x2="488.829" y2="456.738"/>
	<path class="st5" d="M490.317,457.246c-0.756-2.399-1.964-4.631-3.559-6.576c-2.271-2.739-5.231-4.822-8.576-6.034
		c-5.185-1.971-10.813-2.478-16.267-1.465c0.867,1.599,7.768,13.888,20.256,14.981C484.92,458.379,487.686,458.072,490.317,457.246z
		"/>
	<line class="st6" x1="507.91" y1="462.595" x2="508.692" y2="443.054"/>
	<path class="st5" d="M508.132,445.924c2.344-1.142,4.448-2.722,6.197-4.655c2.461-2.747,4.143-6.101,4.873-9.716
		c1.228-5.618,0.887-11.465-0.986-16.901c-1.507,1.132-13.05,10.088-12.261,23.058C506.143,440.563,506.882,443.353,508.132,445.924
		z"/>
	<line class="st6" x1="496.411" y1="443.85" x2="479.58" y2="436.181"/>
	<path class="st5" d="M480.847,437.519c-0.231-2.504-0.94-4.941-2.088-7.179c-1.641-3.157-4.095-5.818-7.108-7.709
		c-4.652-3.021-10.045-4.705-15.59-4.868c0.508,1.746,4.658,15.215,16.633,18.921C475.332,437.487,478.101,437.771,480.847,437.519z
		"/>
	<line class="st6" x1="495.056" y1="440.836" x2="499.824" y2="425.361"/>
	<path class="st5" d="M498.592,427.862c2.464-0.627,4.785-1.72,6.837-3.221c2.892-2.137,5.161-5.007,6.573-8.315
		c2.281-5.121,3.11-10.771,2.396-16.332c-1.659,0.784-14.454,7.051-16.26,19.597C497.753,422.352,497.907,425.161,498.592,427.862z"
		/>
	<line class="st4" x1="486.558" y1="420.69" x2="471.896" y2="410.368"/>
	<path class="st5" d="M475.602,413.204c-0.017-2.506-0.514-4.985-1.464-7.304c-1.36-3.273-3.57-6.123-6.401-8.256
		c-4.36-3.396-9.571-5.526-15.062-6.157c0.358,1.776,3.333,15.499,14.904,20.195C470.13,412.704,472.854,413.22,475.602,413.204z"/>
	<line class="st4" x1="487.003" y1="421.666" x2="491.002" y2="408.688"/>
	<path class="st5" d="M489.829,412.772c2.517-0.641,4.888-1.758,6.986-3.29c2.955-2.183,5.273-5.116,6.715-8.495
		c2.332-5.233,3.178-11.006,2.448-16.688c-1.698,0.802-14.767,7.21-16.613,20.021C488.971,407.141,489.129,410.012,489.829,412.772z
		"/>
	<line class="st7" x1="482.801" y1="406.654" x2="469.328" y2="390.142"/>
	<path class="st5" d="M469.974,391.196c0.984-2.285,1.521-4.738,1.582-7.225c0.067-3.518-0.805-6.99-2.528-10.058
		c-2.611-4.827-6.5-8.842-11.241-11.606c-0.384,1.758-3.152,15.424,5.496,24.31C465.196,388.562,467.469,390.117,469.974,391.196z"
		/>
	<line class="st7" x1="482.105" y1="404.722" x2="491.654" y2="385.395"/>
	<path class="st5" d="M491.01,388.698c2.256-1.173,4.267-2.766,5.924-4.694c2.329-2.741,3.883-6.053,4.504-9.595
		c1.054-5.509,0.572-11.201-1.394-16.454c-1.439,1.141-12.464,10.167-11.365,22.789C488.934,383.52,489.725,386.222,491.01,388.698z
		"/>
	<path class="st5" d="M479.228,348.476c3.995,5.53,5.885,12.305,5.329,19.105c-0.491,5.023-2.333,9.819-5.329,13.881
		c-2.728-3.148-4.63-6.925-5.534-10.991C471.227,359.021,478.085,349.939,479.228,348.476z"/>
	<path class="st8" d="M769.411,497.914l0.622,36.955l43.3-8.399c-8.375,10.369-17.919,21.302-28.742,32.475
		c-11.327,11.691-23.252,22.167-33.782,31.169c-12.204-12.204-23.6-24.595-35.804-36.799c3.318-2.804,6.642-5.698,9.972-8.682
		C740.909,530.166,755.76,514.551,769.411,497.914z"/>
	<path class="st9" d="M769.411,497.914l0.622,36.955l43.3-8.399c-8.375,10.369-17.919,21.302-28.742,32.475
		c-11.327,11.691-23.252,22.167-33.782,31.169c-12.204-12.204-23.6-24.595-35.804-36.799c3.318-2.804,6.642-5.698,9.972-8.682
		C740.909,530.166,755.76,514.551,769.411,497.914z"/>
	<path class="st8" d="M430.589,497.914l-0.622,36.955l-43.3-8.399c8.375,10.369,17.919,21.302,28.743,32.475
		c11.327,11.691,23.252,22.167,33.782,31.169c12.204-12.204,23.6-24.595,35.804-36.799c-3.318-2.804-6.642-5.698-9.972-8.682
		C459.091,530.166,444.24,514.551,430.589,497.914z"/>
	<path class="st9" d="M430.589,497.914l-0.622,36.955l-43.3-8.399c8.375,10.369,17.919,21.302,28.743,32.475
		c11.327,11.691,23.252,22.167,33.782,31.169c12.204-12.204,23.6-24.595,35.804-36.799c-3.318-2.804-6.642-5.698-9.972-8.682
		C459.091,530.166,444.24,514.551,430.589,497.914z"/>
	<path class="st8" d="M751.365,565.478c-13.199,12.518-27.645,23.65-43.114,33.222c-14.019,8.668-36.602,22.366-69.088,29.624
		c-12.865,2.872-25.984,4.453-39.163,4.718c-13.179-0.265-26.298-1.845-39.163-4.718c-32.486-7.258-55.069-20.955-69.088-29.624
		c-15.469-9.572-29.915-20.704-43.114-33.222l33.046-36.934c0.321,0.301,0.643,0.612,0.964,0.912
		c12.432,11.686,36.395,33.74,74.656,46.66c27.413,10.95,57.985,10.95,85.398,0c38.261-12.92,62.224-34.974,74.656-46.66
		c0.321-0.301,0.643-0.601,0.954-0.912L751.365,565.478z"/>
	<path class="st9" d="M751.365,565.478c-13.199,12.518-27.645,23.65-43.114,33.222c-14.019,8.668-36.602,22.366-69.088,29.624
		c-12.865,2.872-25.984,4.453-39.163,4.718c-13.179-0.265-26.298-1.845-39.163-4.718c-32.486-7.258-55.069-20.955-69.088-29.624
		c-15.469-9.572-29.915-20.704-43.114-33.222l33.046-36.934c0.321,0.301,0.643,0.612,0.964,0.912
		c12.432,11.686,36.395,33.74,74.656,46.66c27.413,10.95,57.985,10.95,85.398,0c38.261-12.92,62.224-34.974,74.656-46.66
		c0.321-0.301,0.643-0.601,0.954-0.912L751.365,565.478z"/>
	<path d="M483.318,568.675l4.09,2.292c-0.625,1.166-0.826,2.512-0.567,3.81c0.366,1.201,1.157,2.228,2.224,2.889
		c0.967,0.782,2.178,1.203,3.422,1.188c0.905-0.029,1.745-0.477,2.274-1.212c0.31-0.42,0.457-0.938,0.415-1.459
		c-0.115-0.671-0.4-1.302-0.829-1.83c-0.349-0.479-1.202-1.493-2.56-3.042c-1.404-1.414-2.465-3.131-3.101-5.019
		c-0.474-1.777-0.132-3.674,0.933-5.173c0.689-0.992,1.658-1.757,2.782-2.198c1.212-0.478,2.54-0.576,3.808-0.283
		c1.555,0.367,3.021,1.044,4.309,1.99c2.447,1.703,3.916,3.52,4.407,5.453c0.49,1.945,0.111,4.007-1.037,5.652l-4.057-2.566
		c0.497-0.886,0.645-1.925,0.415-2.915c-0.393-1.002-1.11-1.844-2.036-2.393c-0.909-0.713-2.021-1.12-3.176-1.163
		c-0.589-0.008-1.142,0.284-1.468,0.776c-0.321,0.465-0.409,1.052-0.237,1.591c0.657,1.432,1.577,2.727,2.711,3.82
		c1.258,1.318,2.357,2.78,3.273,4.355c0.57,1.068,0.839,2.272,0.777,3.481c-0.269,2.712-1.991,5.064-4.496,6.138
		c-1.313,0.545-2.763,0.665-4.148,0.343c-1.711-0.429-3.321-1.19-4.739-2.241c-2.465-1.714-3.962-3.6-4.491-5.658
		C481.72,573.031,482.115,570.659,483.318,568.675z"/>
	<path d="M513.776,569.931l4.176,2.357l-6.325,11.198c-0.687,1.135-1.287,2.319-1.796,3.544c-0.302,0.903-0.257,1.887,0.125,2.759
		c0.497,1.01,1.314,1.828,2.324,2.326c0.911,0.605,2.001,0.883,3.091,0.787c0.82-0.113,1.567-0.531,2.093-1.171
		c0.807-1.08,1.532-2.22,2.167-3.409l6.46-11.442l4.177,2.358l-6.134,10.863c-0.941,1.79-2.049,3.488-3.309,5.07
		c-0.732,0.848-1.665,1.498-2.715,1.891c-1.088,0.372-2.248,0.478-3.385,0.311c-1.535-0.257-3.006-0.806-4.333-1.618
		c-1.571-0.788-2.967-1.884-4.107-3.222c-0.714-0.921-1.199-1.999-1.416-3.144c-0.184-0.981-0.142-1.991,0.124-2.953
		c0.657-1.911,1.512-3.748,2.553-5.48L513.776,569.931z"/>
	<path d="M541.13,600.281l1.441-3.733l9.643,3.722l-3.408,8.827c-1.596,0.599-3.294,0.879-4.998,0.823
		c-1.984,0.015-3.954-0.342-5.807-1.051c-2.132-0.766-4.026-2.076-5.496-3.799c-1.335-1.604-2.13-3.588-2.274-5.67
		c-0.162-2.182,0.173-4.372,0.98-6.405c0.786-2.155,2.102-4.078,3.826-5.591c1.642-1.414,3.683-2.283,5.84-2.489
		c1.958-0.147,3.924,0.177,5.731,0.946c2.331,0.746,4.358,2.226,5.779,4.219c1.105,1.768,1.512,3.884,1.141,5.936l-4.764-0.885
		c0.124-1.141-0.147-2.29-0.766-3.256c-0.692-1.021-1.696-1.789-2.862-2.191c-1.718-0.759-3.68-0.737-5.38,0.059
		c-1.858,1.065-3.239,2.799-3.86,4.848c-1.016,2.627-1.193,4.825-0.532,6.594c0.654,1.76,2.062,3.134,3.836,3.747
		c0.968,0.367,1.997,0.549,3.032,0.536c0.995,0.008,1.986-0.127,2.943-0.401l1.086-2.811L541.13,600.281z"/>
	<path d="M556.506,614.428l5.796-23.033l4.65,1.171l-5.796,23.033L556.506,614.428z"/>
	<path d="M570.335,617.766l3.093-23.549l4.754,0.622l-1.217,9.269l9.317,1.222l1.216-9.268l4.755,0.622l-3.092,23.55l-4.755-0.622
		l1.348-10.297l-9.316-1.224l-1.348,10.297L570.335,617.766z"/>
	<path d="M613.41,620.131l-3.679-23.465l7.091-1.112l6.766,15.339l1.702-16.667l7.106-1.114l3.679,23.465l-4.402,0.69l-2.896-18.47
		l-1.763,19.201l-4.562,0.715l-7.537-17.744l2.896,18.471L613.41,620.131z"/>
	<path d="M638.234,591.532l4.546-1.53l4.102,12.193c0.386,1.269,0.866,2.507,1.436,3.705c0.47,0.829,1.231,1.453,2.135,1.751
		c1.084,0.306,2.238,0.245,3.284-0.173c1.059-0.274,1.994-0.899,2.652-1.772c0.463-0.687,0.652-1.522,0.529-2.341
		c-0.265-1.322-0.628-2.623-1.088-3.89l-4.191-12.453l4.546-1.529l3.979,11.82c0.702,1.897,1.223,3.856,1.555,5.851
		c0.141,1.111,0.001,2.24-0.407,3.283c-0.451,1.057-1.147,1.991-2.031,2.726c-1.217,0.969-2.609,1.696-4.1,2.141
		c-1.637,0.64-3.385,0.946-5.142,0.901c-1.162-0.085-2.288-0.445-3.284-1.049c-0.854-0.517-1.577-1.224-2.114-2.065
		c-0.982-1.766-1.776-3.631-2.368-5.563L638.234,591.532z"/>
	<path d="M673.204,603.956l-10.869-21.119l4.265-2.194l4.826,9.379l3.789-13.812l5.733-2.949l-3.718,12.317l15.019,8.578
		l-5.517,2.839l-10.907-6.922l-1.64,5.308l3.284,6.382L673.204,603.956z"/>
	<path d="M702.755,587.429l-10.658-16.609l-5.931,3.806l-2.169-3.381l15.884-10.194l2.17,3.381l-5.918,3.798l10.665,16.608
		L702.755,587.429z"/>
	<path d="M718.648,576.62l-14.264-18.992l3.836-2.879l14.266,18.991L718.648,576.62z"/>
</g>
</svg>
