<?xml version="1.0" encoding="UTF-8" standalone="no"?>
<svg xmlns:dc="http://purl.org/dc/elements/1.1/" xmlns:cc="http://creativecommons.org/ns#" xmlns:rdf="http://www.w3.org/1999/02/22-rdf-syntax-ns#" xmlns:svg="http://www.w3.org/2000/svg" xmlns="http://www.w3.org/2000/svg" xml:space="preserve" enable-background="new 21 15 438 480" overflow="visible" viewBox="21 15 438 480" height="480" width="438" id="Layer_1" version="1.1"><metadata id="metadata78"><rdf:RDF><cc:Work rdf:about=""><dc:format>image/svg+xml</dc:format><dc:type rdf:resource="http://purl.org/dc/dcmitype/StillImage" /><dc:title>Wappen Igis (CH-GR)</dc:title></cc:Work></rdf:RDF></metadata><defs id="defs76" /><title id="title3">Wappen Igis (CH-GR)</title><path style="fill:white;fill-opacity:1" fill="none" stroke="#202020" stroke-width="2.5" d="M24,276.002  c0,119.293,96.707,216,216.001,216c119.295,0,216.002-96.707,216.002-216V18H24V276.002z" stroke-miterlimit="10" id="clip-boundary" /><path d="M183.001,192.001c-7-3-14-6-20.467-11.467  c-6.533-5.533-12.533-13.533-18.533-17.533s-12-4-16-3s-6,3-8,4s-4,1-13,4s-25,9-34,14.533c-9,5.467-11,10.467-12.467,12.934  c-1.533,2.533-2.533,2.533-3.067,2c-0.466-0.467-0.466-1.467-1.466-2c-1-0.467-3-0.467-7.467,2.533c-4.534,3-11.534,9-15.067,13  c-3.467,4-3.467,6-1.467,7s6,1,7,2s-1,3-1,5.467c0,2.533,2,5.533,6,5.533s10.001-3,15.467-6.467  c5.534-3.533,10.534-7.533,13.534-10.533s4-5,3.533-6.533c-0.533-1.467-2.533-2.467-3.533-4c-1-1.467-1-3.467,0.466-5.467  c1.534-2,4.534-4,6.534-4.533c2-0.467,3,0.533,4.533,3.066c1.467,2.467,3.467,6.467,7.467,3.467s10-13,19-17s21-2,29,4  s12,16,16.533,22c4.467,6,9.467,8,14.467,10" stroke-miterlimit="10" stroke="#202020" id="bock1-1" /><path d="M81.001,192.001c0,1,0,2,1,5.467c1,3.533,3,9.533,4.533,10  c1.467,0.533,2.467-4.467,4.467-4.934c2-0.533,5,3.467,6,2.467s0-7,1-8s4,3,5.467,1.533c1.533-1.533,1.533-8.533,2.533-9.533  s3,4,4.533,3.533c1.467-0.533,2.467-6.533,4-9.533c1.467-3,3.467-3,5.467-3" stroke-miterlimit="10" stroke="#202020" id="bock1x-1" /><path d="M39.467,219.534c2.667-3.333,5.334-6.667,7.756-8.755  c2.423-2.09,4.6-2.934,6.778-3.778" stroke-miterlimit="10" stroke="#FFFFFF" fill="none" id="linie1-1" /><path d="M264.002,294.002c-6,8-12,16-19,22c-7.001,6-15.001,10-20.001,14  s-7,8-8,12s-1,8,1,11s6,5,8,7s2,4-9,8s-33,10-47,15s-20,9-23.467,11c-3.533,2-4.533,2-4.533,3s1,3-0.533,5c-1.467,2-5.467,4-6.467,7  s1,7,1,10s-2,5-7,7s-13,4-18,4s-7-2-7-4s2-4,1-5s-5-1-6-2s1-3,4-6s7-7,11-10s8-5,11-6s5-1,6-2s1-3,1-5s0-4,7-7s21-7,30-11  s13-8,14-11s-1-5-3-11s-4-16-4-23s2-11,6-14s10-5,18-8.467c8-3.533,18-8.533,24.534-12.533c6.466-4,9.466-7,12.466-10" stroke-miterlimit="10" stroke="#202020" id="bock2-1" /><path d="M189.001,309.002c-7,3-14,6-19,7.533c-5,1.467-8,1.467-11,0  c-3-1.533-6-4.533-7.533-4.533c-1.467,0-1.467,3,0,6c1.533,3,4.533,6,10,7.467c5.533,1.533,13.533,1.533,15.066,3.066  c1.467,1.467-3.533,4.467-7.533,6c-4,1.467-7,1.467-10,0.467s-6-3-7.533-3c-1.467,0-1.467,2,0,4.533  c1.533,2.467,4.533,5.467,10.533,6.467s15,0,17,1.533c2,1.467-3,5.467-7,7.467s-7,2-10,1s-6-3-7-2.467c-1,0.467,0,3.467,2,6.467  s5,6,8.467,5.533c3.533-0.533,7.533-4.533,11.066-5.533c3.467-1,6.467,1,9.467,3" stroke-miterlimit="10" stroke="#202020" id="bock2x-1" /><path d="M180.001,375.002c2,5,4,10,3,11.533c-1,1.467-5-0.533-7-0.533  s-2,2-1,4s3,4,2,5s-5,1-8-1s-5-6-5-5s2,7,4,10s4,3,3,4s-5,3-8,1s-5-8-6-8s-1,6,0,9s3,3,3,4s-2,3-5,2s-7-5-9-8.467  c-2-3.533-2-6.533-2-9.533" stroke-miterlimit="10" stroke="#202020" id="bock2x-2" /><path d="M105.001,420.002c4-3,8-6,11-7.467  c3-1.533,5-1.533,7-1.533" stroke-miterlimit="10" stroke="#FFFFFF" fill="none" id="linie2-1" /><g id="g13"><path d="M285.002,321.002c-4,6-8,12-12,15s-8,3-12,1   s-8-6-8.467-11c-0.533-5,2.467-11,0.467-16.533c-2-5.467-9.001-10.467-11.534-14c-2.467-3.467-0.467-5.467,6.534-4   c7,1.533,19,6.533,26,11.066c7,4.467,9,8.467,11,12.467" stroke-miterlimit="10" stroke="#FFFFFF" fill="none" id="bock3-1" /></g><g id="g16"><path d="M285.002,321.002c-4,6-8,12-12,15s-8,3-12,1s-8-6-8.467-11   c-0.533-5,2.467-11,0.467-16.533c-2-5.467-9.001-10.467-11.534-14c-2.467-3.467-0.467-5.467,6.534-4c7,1.533,19,6.533,26,11.066   c7,4.467,9,8.467,11,12.467" stroke-miterlimit="10" stroke="#202020" id="bock3-1_1_" /></g><path d="M259.668,307.936  c0.445-0.646,0.889-1.289,1.111-2.611s0.223-3.322-1.312-5.322c-1.466-2-4.466-4-7.466-5s-6-1-7-0.467  c-1.001,0.467,0,1.467,1.533,2.934c1.467,1.533,3.467,3.533,4.933,5.533c1.534,2,2.534,4,3.534,6" stroke-miterlimit="10" stroke="#202020" fill="#FF0000" id="bewehrung-1" /><path d="M282.002,75c2-1,4-2,5.467-4c1.533-2,2.533-5,5.533-7.534  c3-2.466,8-4.466,12.467-3.466c4.533,1,8.533,5,11.533,7s5,2,7.533,0c2.467-2,5.467-6,9.467-7.534c4-1.466,9-0.466,12.533,2  c3.467,2.534,5.467,6.534,7.467,9.067c2,2.467,4,3.467,7,2.467s7-4,11-4s8,3,10,6.466c2,3.534,2,7.534,3,10c1,2.533,3,3.533,6,3.066  c3-0.533,7.001-2.533,10.001-2.533s5,2,6,4.533c1,2.467,1,5.467,1.533,8.934c0.467,3.533,1.467,7.533,3.467,8.533s5-1,7.466-1  c2.534,0,4.534,2,5.067,4.467c0.467,2.533-0.533,5.533-0.533,7.533s1,3,2.533,4.467c1.467,1.533,3.467,3.533,4.467,5.533s1,4,0,6  s-3,4-4,7c-1,3-1,7-1.533,10c-0.467,3-1.467,5-2.467,7.466c-1,2.534-2,5.534-2.467,5.534c-0.533,0-0.533-3-0.533-9.534  c0-6.466,0-16.467-3-24.467s-9-14-16.467-20c-7.534-6-16.534-12-26-16.467C365.002,90,355.002,87,345.002,86s-20,0-29.533,2.533  C306.002,91,297.002,95,288.002,99" stroke-miterlimit="10" stroke="#202020" id="bock4-1" /><path d="M222.001,123.601c-3-1.2-6-2.4-9-4s-6-3.6-10.467-4.6  c-4.533-1-10.533-1-14.533-2s-6-3-7-6s-1-7-2.467-7.533c-1.533-0.467-4.533,2.533-5.533,6c-1,3.533,0,7.533,2.467,10  c2.533,2.533,6.533,3.533,11.066,4C191.001,120,196.001,120,202.001,121s13,3,20,5" stroke-miterlimit="10" stroke="#202020" fill="#FF0000" id="zunge-1" /><g id="g22"><path d="M276.002,114c1,4,2,8,3,14s2,14,1.533,23   c-0.533,9-2.533,19-7.533,29s-13,20-18,26s-7,8-8,10s-1,4,0,6s3,4,9.533,10.534c6.467,6.466,17.467,17.466,23.467,23.467   c6,6,7,7,8.533,8c1.467,1,3.467,2,6.467,2s7-1,11-4.534c4-3.466,8-9.466,13-12.467c5-3,11-3,15.533-2c4.467,1,7.467,3,12.467,4   c5,1,12,1,15.533-1c3.467-2,3.467-6,2.467-10s-3-8-5-10s-4-2-4-3s2-3,6-2s10,5,13,10s3,11,1,15c-2,4-6,6.001-7.467,11.001   c-1.533,5-0.533,13-2.533,18s-7,7-10.533,8c-3.467,1-5.467,1-4.467-1s5-6,6-10s-1-8-4-10s-7-2-9,0s-2,6-4,9s-6,5-9,6s-5,1-4-1   s5-6,6-10.534c1-4.466-1-9.466-6-9.466s-13,5-18,8.533c-5,3.467-7,5.467-7.533,6.933c-0.467,1.534,0.533,2.534,2.533,4.534   s5,5,8.533,9.467c3.467,4.533,7.467,10.533,10.467,19.533s5,21,8,27s7,6,9,5s2-3,3-4s3-1,6,2s7,9,8,16s-1,15,0,22s5,13,7,19   s2,12-1,16s-9,6-12,8s-3,4-2.467,5.467c0.467,1.533,1.467,2.533,2.467,3.533s2,2,2.467,4.467c0.533,2.533,0.533,6.533-3.467,9.533   s-12,5-19,6s-13,1-14-1s3-6,2-7s-7,1-6-2s9-11,14-15s7-4,8-4.533c1-0.467,1-1.467,1-3.467s0-5,2-6.533c2-1.467,6-1.467,8-6.467   s2-15-1-23s-9-14-16-17s-15-3-23-5s-16-6-19-10s-1-8-3.533-18c-2.467-10-9.467-26-24.467-35c-15.001-9-38.001-11-51.534-14   c-13.467-3-17.467-7-22.467-12s-11-11-15-19.001c-4-8-6-18-6-28s2-20,6-28s10-14,17.467-18c7.533-4,16.533-6,24.533-9s15-7,19-12   s5-11,5-15.534c0-4.467-1-7.467-2-10.467" stroke-miterlimit="10" stroke="#FFFFFF" fill="none" id="bock5-1" /></g><path d="M276.002,114c1,4,2,8,3,14s2,14,1.533,23  c-0.533,9-2.533,19-7.533,29s-13,20-18,26s-7,8-8,10s-1,4,0,6s3,4,9.533,10.534c6.467,6.466,17.467,17.466,23.467,23.467  c6,6,7,7,8.533,8c1.467,1,3.467,2,6.467,2s7-1,11-4.534c4-3.466,8-9.466,13-12.467c5-3,11-3,15.533-2c4.467,1,7.467,3,12.467,4  c5,1,12,1,15.533-1c3.467-2,3.467-6,2.467-10s-3-8-5-10s-4-2-4-3s2-3,6-2s10,5,13,10s3,11,1,15c-2,4-6,6.001-7.467,11.001  c-1.533,5-0.533,13-2.533,18s-7,7-10.533,8c-3.467,1-5.467,1-4.467-1s5-6,6-10s-1-8-4-10s-7-2-9,0s-2,6-4,9s-6,5-9,6s-5,1-4-1  s5-6,6-10.534c1-4.466-1-9.466-6-9.466s-13,5-18,8.533c-5,3.467-7,5.467-7.533,6.933c-0.467,1.534,0.533,2.534,2.533,4.534  s5,5,8.533,9.467c3.467,4.533,7.467,10.533,10.467,19.533s5,21,8,27s7,6,9,5s2-3,3-4s3-1,6,2s7,9,8,16s-1,15,0,22s5,13,7,19  s2,12-1,16s-9,6-12,8s-3,4-2.467,5.467c0.467,1.533,1.467,2.533,2.467,3.533s2,2,2.467,4.467c0.533,2.533,0.533,6.533-3.467,9.533  s-12,5-19,6s-13,1-14-1s3-6,2-7s-7,1-6-2s9-11,14-15s7-4,8-4.533c1-0.467,1-1.467,1-3.467s0-5,2-6.533c2-1.467,6-1.467,8-6.467  s2-15-1-23s-9-14-16-17s-15-3-23-5s-16-6-19-10s-1-8-3.533-18c-2.467-10-9.467-26-24.467-35c-15.001-9-38.001-11-51.534-14  c-13.467-3-17.467-7-22.467-12s-11-11-15-19.001c-4-8-6-18-6-28s2-20,6-28s10-14,17.467-18c7.533-4,16.533-6,24.533-9s15-7,19-12  s5-11,5-15.534c0-4.467-1-7.467-2-10.467" stroke-miterlimit="10" stroke="#202020" id="bock5-1_1_" /><path d="M285.002,339.002c1,3,2,6,1,9s-4,6-6.533,8.533  c-2.467,2.467-4.467,4.467-6.934,4.934c-2.533,0.533-5.533-0.467-5.533,0.533s3,4,6,5.467c3,1.533,6,1.533,9.533-1.467  c3.467-3,7.467-9,8.467-8s-1,9-4.467,13.467c-3.533,4.533-8.533,5.533-10,7.066c-1.533,1.467,0.467,3.467,4,3.467  c3.467,0,8.467-2,12-6c3.467-4,5.467-10,6.467-9s1,9-1,13s-6,4-7,5s1,3,4,3s7-2,10-7s5-13,7-16s4-1,4,2s-2,7-3,10s-1,5,0,5s3-2,5-4  s4-4,5-7s1-7,1-11" stroke-miterlimit="10" stroke="#202020" id="bock5x-1" /><path d="M276.002,138c2,4,4,8,6,11s4,5,6.533,6c2.467,1,5.467,1,6,2.466  c0.467,1.534-1.533,4.534-5.066,5.067c-3.467,0.467-8.467-1.533-8.934,0c-0.533,1.467,3.467,6.467,6.467,8.934  c3,2.533,5,2.533,5,3.533s-2,3-6,3s-10-2-11-0.533c-1,1.533,3,6.533,6,9.066c3,2.467,5,2.467,5,3.467s-2,3-6,2.533  c-4-0.533-10-3.533-11-2c-1,1.467,3,7.467,6,10.467s5,3,5,4s-2,3-6,2s-10-5-12-4s0,7,2,10s4,3,4,4s-2,3-5.467,3  c-3.533,0-8.533-2-11.533-3s-4-1-5-1" stroke-miterlimit="10" stroke="#202020" id="bock5x-2" /><path d="M354.002,372.002c5,2,10,4,10,6s-5,4-4,6s8,4,12.534,5  c4.466,1,6.466,1,6,2c-0.534,1-3.534,3-7.067,4c-3.467,1-7.467,1-6.934,2c0.467,1,5.467,3,9.467,4s7,1,7.467,2  c0.533,1-1.467,3-5.467,4s-10,1-9,2s9,3,10,5s-5,4-9.533,4c-4.467,0-7.467-2-10.467-4" stroke-miterlimit="10" stroke="#202020" id="bock5x-3" /><path d="M318.002,441.002l12-9l6-3" stroke-miterlimit="10" stroke="#FFFFFF" fill="none" id="linie5-1" /><g id="g30"><path d="M183.001,222.001c-6,2-12,4-18.467,2   c-6.533-2-13.533-8-18-13c-4.533-5-6.533-9-11.533-11s-13-2-18,0s-7,6-14,12s-19,14-26,20s-9,10-11,13s-4,5-4.534,7   c-0.466,2,0.534,4-0.466,4.534c-1,0.467-4-0.533-7,2c-3,2.467-6.001,8.467-8.001,14.467s-3,12-1.466,13c1.466,1,5.467-3,7.467-2   s2,7,5,8s9-3,13.533-7.467c4.467-4.533,7.467-9.533,9.467-13.067c2-3.466,3-5.466,2-6.933c-1-1.533-4-2.533-6-3.533s-3-2-3-3   s1-2,2.467-4c1.533-2,3.533-5,6.533-5s7,3,9.467,2.467c2.533-0.467,3.533-4.467,5.066-8c1.467-3.467,3.467-6.467,6.934-10   c3.533-3.467,8.533-7.467,13.066-10c4.467-2.467,8.467-3.467,12.934-0.467c4.533,3,9.533,10,15.066,16.467   c5.467,6.533,11.467,12.534,17.467,16c6,3.534,12,4.534,17,4c5-0.466,9-2.466,13-4.466" stroke-miterlimit="10" stroke="#FFFFFF" fill="none" id="bock6-1" /></g><g id="g33"><path d="M138.001,231.001c2,3,4,6,5,9.534   c1,3.466,1,7.466,0.467,11.467c-0.467,4-1.467,8-2.934,11c-1.533,3-3.533,5-3.066,6c0.533,1,3.533,1,7.066-2   c3.467-3,7.467-9,9.467-9s2,6,1,10s-3,6-3,7s2,1,5-1s7-6,9-6s2,4,1,7s-3,5-2.467,6c0.467,1,3.467,1,6.467-1.533   c3-2.467,6-7.467,7.533-5.467c1.467,2,1.467,11,2.934,12.533c1.533,1.467,4.533-4.533,5.533-9.533s0-9,0.467-12.467   c0.533-3.533,2.533-6.533,4.533-9.534" stroke-miterlimit="10" stroke="#FFFFFF" fill="none" id="bock6x-1" /></g><g id="g36"><path d="M81.001,249.001c2,0,4,0,7,2c3,2,7,6.001,8.533,4.467   c1.467-1.466,0.467-8.467,2-10c1.467-1.467,5.467,2.533,6.467,1.533s-1-7,0-8s5,3,6,2s-1-7,0-8s5,3,6,2s-1-7-0.467-10.467   c0.467-3.533,3.467-4.533,6.467-5.533" stroke-miterlimit="10" stroke="#FFFFFF" fill="none" id="bock6x-2" /></g><g id="g39"><path d="M183.001,222.001c-6,2-12,4-18.467,2c-6.533-2-13.533-8-18-13   c-4.533-5-6.533-9-11.533-11s-13-2-18,0s-7,6-14,12s-19,14-26,20s-9,10-11,13s-4,5-4.534,7c-0.466,2,0.534,4-0.466,4.534   c-1,0.467-4-0.533-7,2c-3,2.467-6.001,8.467-8.001,14.467s-3,12-1.466,13c1.466,1,5.467-3,7.467-2s2,7,5,8s9-3,13.533-7.467   c4.467-4.533,7.467-9.533,9.467-13.067c2-3.466,3-5.466,2-6.933c-1-1.533-4-2.533-6-3.533s-3-2-3-3s1-2,2.467-4   c1.533-2,3.533-5,6.533-5s7,3,9.467,2.467c2.533-0.467,3.533-4.467,5.066-8c1.467-3.467,3.467-6.467,6.934-10   c3.533-3.467,8.533-7.467,13.066-10c4.467-2.467,8.467-3.467,12.934-0.467c4.533,3,9.533,10,15.066,16.467   c5.467,6.533,11.467,12.534,17.467,16c6,3.534,12,4.534,17,4c5-0.466,9-2.466,13-4.466" stroke-miterlimit="10" stroke="#202020" id="bock6-1_1_" /></g><g id="g42"><path d="M138.001,231.001c2,3,4,6,5,9.534c1,3.466,1,7.466,0.467,11.467   c-0.467,4-1.467,8-2.934,11c-1.533,3-3.533,5-3.066,6c0.533,1,3.533,1,7.066-2c3.467-3,7.467-9,9.467-9s2,6,1,10s-3,6-3,7s2,1,5-1   s7-6,9-6s2,4,1,7s-3,5-2.467,6c0.467,1,3.467,1,6.467-1.533c3-2.467,6-7.467,7.533-5.467c1.467,2,1.467,11,2.934,12.533   c1.533,1.467,4.533-4.533,5.533-9.533s0-9,0.467-12.467c0.533-3.533,2.533-6.533,4.533-9.534" stroke-miterlimit="10" stroke="#202020" id="bock6x-1_1_" /></g><g id="g45"><path d="M81.001,249.001c2,0,4,0,7,2c3,2,7,6.001,8.533,4.467   c1.467-1.466,0.467-8.467,2-10c1.467-1.467,5.467,2.533,6.467,1.533s-1-7,0-8s5,3,6,2s-1-7,0-8s5,3,6,2s-1-7-0.467-10.467   c0.467-3.533,3.467-4.533,6.467-5.533" stroke-miterlimit="10" stroke="#202020" id="bock6x-2_1_" /></g><path d="M52.6,282.935c1.467-4.312,2.934-8.622,4.667-11.778  c1.733-3.154,3.733-5.154,5.733-7.154" stroke-miterlimit="10" stroke="#FFFFFF" fill="none" id="linie6-1" /><path d="M291.002,120c-1-10-2-20-3.533-28c-1.467-8-3.467-14-5.467-17  s-4-3-12-1s-22,6-31.001,9c-9,3-13,5-18.155,6.333c-5.155,1.333-11.467,2-14.467,4s-2.689,5.333-1.533,7  c1.155,1.667,3.155,1.667,4.155,2.667s1,3-0.311,3.912c-1.312,0.91-3.934,0.733-4.423,1.644c-0.488,0.912,1.155,2.912,5.578,4.578  c4.422,1.667,11.622,3,15.111,5.089c3.489,2.089,3.267,4.933,1.155,6.356C224.001,126,220.001,126,217.001,126s-5,0-8,0s-7,0-9,2  s-2,6-1,8s3,2,2,4c-1,2-5,6-8,9s-5,5-9,5s-10-2-12-2s0,2,2,4s4,4,8.533,5c4.467,1,11.467,1,17.467-3s11-12,14.533-16  c3.467-4,5.467-4,8.934-5c3.533-1,8.533-3,12-2c3.533,1,5.533,5,8,7c2.534,2,5.534,2,8,1c2.534-1,4.534-3,6.534-5" stroke-miterlimit="10" stroke="#202020" id="bock7-1" /><path d="M258.002,84c0-4,0-8-2.534-10c-2.466-2-7.466-2-8.466-3s2-3,4.466-4  c2.534-1,4.534-1,7.067,0.466C261.002,69,264.002,72,265.002,71s0-6-2-9.534c-2-3.466-5-5.466-5.534-6.467c-0.466-1,1.534-1,4-0.466  C264.002,55,267.002,56,269.469,59c2.533,3,4.533,8,6.533,7.533c2-0.533,4-6.533,3-9.533c-1-3-5-3-6-4s1-3,3.533-3.533  C279.002,49,282.002,50,284.002,52s3,5,2.533,8.534C286.002,64,284.002,68,281.002,72s-7,8-11,12" stroke-miterlimit="10" stroke="#202020" id="bock7x-1" /><g id="g51"><path d="M278,101.75c0-2.051,0.169-4.789,1.194-5.814   s3.075-1.025,5.126-3.076c2.051-2.051,4.102-6.152,8.202-8.202c4.102-2.051,10.253-2.051,14.354,0   c4.102,2.05,6.152,6.151,8.202,8.749c2.051,2.529,4.102,3.555,7.177,1.504c3.076-2.05,7.178-7.177,12.304-8.202   c5.126-1.025,11.278,2.051,14.354,6.152c3.076,4.101,3.076,9.227,4.102,12.85c1.025,3.555,3.075,5.605,6.151,5.059   c3.075-0.479,7.177-3.555,10.799-3.555c3.555,0,6.631,3.076,7.656,6.698c1.024,3.555,0,7.656,0.547,10.731   c0.478,3.076,2.528,5.126,6.152,5.673c3.553,0.478,8.68-0.547,11.755,0.957c3.077,1.572,4.103,5.673,3.555,9.296   c-0.478,3.554-2.529,6.63-2.529,9.159c0,2.598,2.052,4.648,4.58,6.699c2.598,2.05,5.674,4.101,7.246,7.177   c1.503,3.076,1.503,7.177,0,10.252c-1.572,3.076-4.648,5.126-6.152,7.724c-1.571,2.529-1.571,5.605-1.094,8.681   c0.547,3.076,1.572,6.152,1.572,8.681c0,2.598-1.025,4.648-2.528,5.673c-1.572,1.025-3.624,1.025-6.152,1.572   c-2.598,0.479-5.674,1.504-8.749,3.555c-3.076,2.05-6.152,5.126-7.655,5.604c-1.572,0.547-1.572-1.504,0.956-5.604   c2.598-4.101,7.724-10.253,10.253-17.43c2.598-7.177,2.598-15.379,0.547-23.581s-6.151-16.404-13.806-25.154   c-7.725-8.681-19.003-17.908-31.853-24.06c-12.782-6.151-27.136-9.228-37.389-9.228c-10.252,0-16.404,3.076-22.556,6.152" stroke-miterlimit="10" stroke="#FFFFFF" fill="none" id="bock8-1" /></g><g id="g54"><path d="M279.002,102c0-2,0-4,1-5s3-1,5-3s4-6,8-8s10-2,14,0s6,6,8,8.533   c2,2.467,4,3.467,7,1.467s7-7,12-8s11,2,14,6s3,9,4,12.533c1,3.467,3,5.467,6,4.934c3-0.467,7-3.467,10.533-3.467   c3.467,0,6.467,3,7.467,6.533c1,3.467,0,7.467,0.534,10.467c0.466,3,2.466,5,6,5.534c3.466,0.466,8.466-0.534,11.466,0.933   c3.001,1.533,4.001,5.533,3.467,9.067c-0.466,3.467-2.467,6.467-2.467,8.933c0,2.534,2.001,4.534,4.467,6.534   c2.534,2,5.534,4,7.067,7c1.467,3,1.467,7,0,10c-1.533,3-4.533,5-6,7.533c-1.533,2.467-1.533,5.467-1.067,8.467   c0.534,3,1.534,6,1.534,8.467c0,2.533-1,4.533-2.467,5.533c-1.533,1-3.534,1-6,1.533c-2.534,0.467-5.534,1.467-8.534,3.467   s-6,5-7.466,5.467c-1.534,0.533-1.534-1.467,0.933-5.467c2.533-4,7.533-10,10-17c2.533-7,2.533-15,0.533-23s-6-16-13.466-24.534   C367.002,135,356.002,126,343.469,120c-12.467-6-26.467-9-36.467-9s-16,3-22,6" stroke-miterlimit="10" stroke="#202020" id="bock8-1_1_" /></g><path d="M279.085,109c2,0,4,0,8.467,2  c4.533,2,11.533,6,19.066,8c7.467,2,15.467,2,19.467,3s4,3,1,6s-9,7-15,9s-12,2-17,0s-9-6-13-6s-8,4-12,8" stroke-miterlimit="10" stroke="#FFFFFF" fill="none" id="bockl9-1" /><path d="M279.002,108c2,0,4,0,8.467,2c4.533,2,11.533,6,19.066,8  c7.467,2,15.467,2,19.467,3s4,3,1,6s-9,7-15,9s-12,2-17,0s-9-6-13-6s-8,4-10,6s-2,2-2.533,1.467  C269.002,137,268.002,136,267.002,135" stroke-miterlimit="10" stroke="#202020" id="bock9-1" /><path d="M282.002,126c2,6,4,12,6,13s4-3,6-2s4,7,6,7s4-6,6-6s4,6,6,6  s4-6,6-12" stroke-miterlimit="10" stroke="#202020" id="bock9x-1" /><path d="M246.002,90c4,0,8,0,11,2s5,6,6,9s1,5,1,7" stroke-miterlimit="10" stroke="#FFFFFF" fill="none" id="linie9-1" /><path d="M270.002,120c1,2,2,4,3.467,4c1.533,0,3.533-2,6.533-3  s7-1,11.467,0c4.533,1,9.533,3,14,4c4.533,1,8.533,1,12.533,1" stroke-miterlimit="10" stroke="#FFFFFF" fill="none" id="linie9-2" /><path d="M257.849,102.537c0.544-3.269-3.427-6.681-8.869-7.622  c-5.398-0.933-10.226,0.917-10.827,4.149c-0.544,3.269,3.427,6.681,8.869,7.621C252.421,107.618,257.248,105.769,257.849,102.537z" stroke-miterlimit="10" stroke="#202020" fill="#FFFFFF" id="auge-1" /><path d="M251.601,99.734c0-1.694-1.373-3.067-3.066-3.067c-1.694,0-3.067,1.373-3.067,3.067s1.373,3.067,3.067,3.067  C250.228,102.801,251.601,101.428,251.601,99.734z" id="augei-1" /><path id="path64" d="M24,276.002c0,119.293,96.707,216,216.001,216c119.295,0,216.002-96.707,216.002-216V18H24V276.002z" fill="none" /><path d="M163.219,216.344  c0.653-7.877,2.413-16.176,5.59-22.532c1.271-2.543,2.907-5.001,4.566-7.14" stroke-miterlimit="10" stroke="#FFFFFF" fill="none" id="bock5-1_21_" /><path d="M281.5,327.75  c-4.186-13.215-9.044-23.4-23.373-31.998c-7.5-4.5-18.81-7.377-28.127-9.377" stroke-miterlimit="10" stroke="#FFFFFF" fill="none" id="bock5-1_6_" /><path id="path69" d="M162.875,222.25c0,0,6.848,4.496,19.75-1.313" stroke-miterlimit="10" stroke="#FFFFFF" fill="none" /><path d="M185.845,283.687c0.871-1.828,1.646-4.109,2.067-6.214  c1-5,0-9,0.467-12.467c0.533-3.533,2.533-6.533,4.533-9.533" stroke-miterlimit="10" stroke="#FFFFFF" id="bock6x-1_4_" /><path id="path72" d="M279,106.875c0,0,5.25-0.625,17.75,6.5" stroke-miterlimit="10" stroke="#FFFFFF" fill="none" /></svg>