<?xml version="1.0" encoding="utf-8"?>
<!-- Generator: Adobe Illustrator 12.0.0, SVG Export Plug-In  -->
<!DOCTYPE svg PUBLIC "-//W3C//DTD SVG 1.1//EN" "http://www.w3.org/Graphics/SVG/1.1/DTD/svg11.dtd" [
	<!ENTITY ns_flows "http://ns.adobe.com/Flows/1.0/">
	<!ENTITY ns_svg "http://www.w3.org/2000/svg">
	<!ENTITY ns_xlink "http://www.w3.org/1999/xlink">
]>
<svg  version="1.1" xmlns="&ns_svg;" xmlns:xlink="&ns_xlink;" xmlns:a="http://ns.adobe.com/AdobeSVGViewerExtensions/3.0/"
	 width="588" height="742" viewBox="-6.423 -5.686 588 742" enable-background="new -6.423 -5.686 588 742" xml:space="preserve">
<defs>
</defs>
<path id="path3239_5_" fill="#FFFFFF" stroke="#000000" stroke-width="2.5" d="M1.25,1.25v438.972
	c0,159.1,128.488,288.072,286.986,288.072c158.504,0,286.993-128.973,286.993-288.072V1.25H1.25z"/>
<polygon fill="#FF0000" stroke="#000000" stroke-width="2.5" points="174.067,639.459 248.667,579.472 301.882,639.666 
	351.24,580.357 424.638,639.603 381.309,358.407 221.256,358.407 "/>
<path fill="#FF0000" stroke="#000000" stroke-width="2.5" d="M209.763,330.551h182.603c21.221,9.727-0.443,19.896-0.443,19.896
	H209.32C209.32,350.447,186.331,338.951,209.763,330.551z"/>
<path fill="#FF0000" stroke="#000000" stroke-width="2.5" d="M215.68,263.138h170.24c19.784,9.068-0.414,18.548-0.414,18.548
	H215.267C215.267,281.686,193.833,270.969,215.68,263.138z"/>
<path fill="#FF0000" stroke="#000000" stroke-width="2.5" d="M192.959,290.761h213.549c0,0,29.184,15.475,0.444,30.949H193.402
	C193.402,321.709,166.874,307.562,192.959,290.761z"/>
<path fill="#FF0000" stroke="#000000" stroke-width="2.5" d="M239.382,252.736c0,0,11.052-43.771,3.537-77.815
	c0,0-8.4-44.214-52.171-48.635c0,0-44.103-4.642-46.313,44.655c0,0-3.316,20.008,17.133,22.549c0,0,14.313,2.667,16.192-12.807
	c0,0,1.782-7.918-13.098-13.721c0,0-0.884-14.592,19.013-14.148c0,0,29.623,0.001,30.506,34.929c0,0,2.542,44.877-53.499,48.634
	c0,0-69.637,12.491-75.605-82.679c0,0-4.419-106.112,126.893-109.649c0,0,150.769-3.979,153.861,208.688H239.382z"/>
</svg>
