<?xml version="1.0" encoding="utf-8"?>
<!-- Generator: Adobe Illustrator 15.0.0, SVG Export Plug-In  -->
<!DOCTYPE svg PUBLIC "-//W3C//DTD SVG 1.1//EN" "http://www.w3.org/Graphics/SVG/1.1/DTD/svg11.dtd" [
	<!ENTITY ns_flows "http://ns.adobe.com/Flows/1.0/">
]>
<svg version="1.1"
	 xmlns="http://www.w3.org/2000/svg" xmlns:xlink="http://www.w3.org/1999/xlink" xmlns:a="http://ns.adobe.com/AdobeSVGViewerExtensions/3.0/"
	 x="0px" y="0px" width="650px" height="732px" viewBox="-0.35 -0.93 650 732" enable-background="new -0.35 -0.93 650 732"
	 xml:space="preserve">
<defs>
</defs>
<path d="M649.43,403.97V0H0v403.9c-0.01,3.16,0.1,78.3,39.84,156.45c23.53,46.28,56.08,83.91,96.76,111.85
	c50.55,34.72,113.58,54.28,187.33,58.15l0.79,0.04l0.79-0.04c73.76-3.87,136.78-23.43,187.33-58.15
	c40.68-27.94,73.23-65.57,96.76-111.85C649.33,482.2,649.45,407.06,649.43,403.97z"/>
<path fill="#FFFFFF" d="M634.43,403.97V135.54H324.72H15v268.43c0,0-1.35,295.1,309.72,311.4
	C635.78,699.07,634.43,403.97,634.43,403.97z"/>
<path id="path2970_2_" fill="#F00000" stroke="#F00000" stroke-width="0.12" stroke-linecap="round" stroke-linejoin="round" stroke-miterlimit="10" d="
	M634.43,122.37L634.43,122.37H15V15h619.43V122.37z"/>
<path fill-rule="evenodd" clip-rule="evenodd" d="M599.45,392.65c-37.71-20.2-75.41-40.4-113.11-60.6c0.45-1.35,0.9-2.7,1.35-4.04
	c29.62,2.25,59.25,4.49,88.87,6.73c36.68-19.3,51.04-38.6,43.09-57.9c0.64,5.04-4.3,7.28-14.81,6.73c-34.11,0-68.23,0-102.34,0
	c58.13-26.63,120.89-50.22,105.03-125.23c-2.55,8.13-9.28,14.86-20.2,20.2c-45.78,23.45-91.57,48.82-137.35,68.67
	c-15.24,7.98-17.94,18.76-8.08,32.32c0.9,4.49,1.79,8.98,2.69,13.47c-15.72,54.41-64.92,45-75.4,9.42
	c-3.13-13.15-6.26-26.31-9.4-39.46c16.42,13.47,26.07-2.61,21-14.69c-15.13,18.5-27.15-9.49-23.09-28.34
	c22.66,21.03,33.02,2.81,29.39-12.6c-20.01,21.35-28.9-7.19-32.54-27.29c15.34,6.58,28.06,7.17,31.49-13.65
	c-16.98,10.19-32.54-3.89-48.29-14.7c-11.06-6.05-23.98-8.38-36.74-2.1c-4.81,2.37-8.45,6.5-12.27,10.36
	c-3.55-0.49-6.9-0.74-10.02-0.74c-11.77,0-20.34,3.42-25.47,10.17c-5.66,7.44-6.6,18.32-2.83,32.35c-2.19,0.35-4.36,0.76-6.5,1.17
	c-5.09,0.97-9.89,1.89-14.59,1.89c-2.37,0-4.51-0.23-6.54-0.71c-2.47-0.59-4.1-1.72-5.13-3.56c-2.03-3.64-1.72-10.22,0.87-18.06
	l1.88-5.71l-5.99,0.47c-9.69,0.76-16.9,6.28-19.28,14.77c-2.76,9.86,1.58,21.25,10.56,27.71c4.56,3.28,10.74,4.95,18.36,4.95
	c6.33,0,13.75-1.16,22.07-3.45c7.82-2.15,16.42-3.71,24.87-4.55c-0.5,0.54-0.98,1.09-1.43,1.66c-4.94,6.3-6.39,14.64-4.33,24.81
	l1.79,8.79l5.35-7.21c5.19-6.99,10.32-11.33,19.87-11.33c1.17,0,2.41,0.08,3.69,0.22c-0.06,0.7-0.12,1.4-0.17,2.09
	c-0.41,28.79-5.58,51.05-15.51,66.76c-10.49,35.57-59.68,44.99-75.41-9.42c0.9-4.49,1.79-8.98,2.69-13.47
	c9.86-13.56,7.17-24.34-8.08-32.32C153.67,227.36,107.89,202,62.1,178.54c-10.92-5.34-17.65-12.07-20.2-20.2
	c-15.86,75.01,46.9,98.61,105.03,125.23c-34.11,0-68.23,0-102.34,0c-10.52,0.55-15.45-1.7-14.81-6.73
	c-7.95,19.3,6.41,38.6,43.09,57.9c29.62-2.24,59.25-4.49,88.87-6.73c0.45,1.35,0.9,2.69,1.35,4.04
	c-37.71,20.2-75.41,40.39-113.11,60.6c-3.58,4.05-8.21,7.05-20.2,2.69c11.26,35.34,44.05,39.21,91.57,21.54
	c21.54-15.71,43.09-31.42,64.63-47.13c-31.87,44.44-63.74,88.88-95.61,133.31c-8.98,9.57-17.95,14.96-26.93,16.16
	c17.28,17.2,42.84,16.18,74.06,2.7c27.83-39.05,55.66-78.1,83.49-117.15c-6.7,34.57-11.14,69.13-32.32,103.69
	c55.07,0.69,69.23-58.12,91.57-105.03c0.45,13.01,0.9,26.04,1.35,39.05c-20.65,26.93-41.29,53.86-61.94,80.79
	c6-1.71,11.99-3.43,17.99-5.14l-34.9,39.04h-63.31l-1.18,1.2c-0.7,0.71-1.35,1.4-1.96,2.09h-13.42c-0.27-0.01-0.54-0.02-0.8-0.02
	c-15,0-15.66,17.53-15.97,25.95l-0.61,16.12l8.07-13.97c1.37-2.38,4.98-8.63,7.73-8.81c2.67,0.68,5.2,1.19,7.57,1.55
	c0.13,0.42,0.27,0.82,0.43,1.2c2.29,5.46,8.29,8.98,15.3,8.98c5.22,0,9.96-1.98,13-5.45c1.49-1.7,3.1-4.35,3.52-8.15h24.44
	l-32.02,32.41l-0.19,0.26c-4.42,6.23-3.53,11.07-2,14.03c0.11,0.22,0.25,0.42,0.38,0.64c-2.46,3.2-3.49,6.61-3.06,10.15
	c0.81,6.64,6.38,12.17,14.48,18.44l12.76,9.87l-6.67-14.69c-1.14-2.51-4.11-9.05-2.67-11.42c1.58-1.33,3.01-2.63,4.33-3.91
	c0.05,0,0.09,0,0.14,0c8.28,0,14.57-3.03,16.85-8.1c1.35-3.01,1.77-7.84-2.99-14.41l20.98-22.95c0.14,5.26,0.33,10.51,0.52,15.65
	c0.3,8.24,0.61,16.76,0.7,25.12c-1.16,6.74,0.94,11,2.93,13.39c0.6,0.72,1.28,1.35,2.01,1.94l1.04,11.6
	c0.68,14.56,16.5,14.56,21.71,14.56c0,0,0,0,0,0c1.65,0,3.48-0.05,5.61-0.16l16.11-0.83l-14.64-6.79c-2.5-1.16-9.02-4.19-9.47-6.92
	c0.6-3.69,0.92-7.03,0.97-10.08c3.85-1.86,7.02-4.84,8.21-8.89c1.45-4.97,0.38-12.65-12.52-21.46l-2.39-35.09h21.09
	c4.9,5.55,10.74,8.58,16.63,8.58c0,0,0,0,0,0c5.35,0,10.29-2.6,13.34-6.7c2.13-0.35,4.38-0.82,6.74-1.42
	c2.75,0.19,6.36,6.44,7.73,8.82l8.07,13.98l-0.61-16.13c-0.32-8.42-0.98-25.95-15.98-25.95c-0.26,0-0.53,0-0.8,0.02h-6.65
	c-1.29-1.45-2.84-2.8-4.65-4.01l-1.03-0.7l-38.75,0.39l24.21-27.36c-0.46,5.93-0.91,11.86-1.37,17.8
	c12.57-15.26,25.14-30.53,37.7-45.79c4.04,34.57,8.08,69.13,12.12,103.69c-9.09,33.33-36.31,33.18-56.56,12.12
	c1.06,40.31,26.12,43.53,57.9,36.36c-1.33,14.24-8.76,27.6-29.62,39.05c16.16,8.02,32.32,4.87,48.51-9.42
	c16.19,14.3,32.35,17.44,48.51,9.42c-20.86-11.45-28.29-24.81-29.62-39.05c31.78,7.17,56.84,3.95,57.9-36.36
	c-20.25,21.07-47.47,21.21-56.55-12.12c4.04-34.57,8.08-69.13,12.12-103.69c12.57,15.26,25.14,30.53,37.7,45.79
	c-0.49-6.35-0.98-12.69-1.46-19.04l28.95,32.72l-38.75-0.39l-1.03,0.7c-1.86,1.26-3.38,2.61-4.62,4.01h-6.67
	c-0.27-0.01-0.54-0.02-0.8-0.02c-14.99,0-15.65,17.52-15.97,25.94l-0.61,16.11l8.07-13.96c1.37-2.38,4.99-8.63,7.73-8.82
	c2.36,0.6,4.61,1.07,6.74,1.42c3.04,4.1,7.99,6.71,13.34,6.71c5.89,0,11.74-3.03,16.63-8.58h21.1l-2.4,35.09
	c-12.9,8.81-13.98,16.49-12.52,21.46c1.19,4.05,4.36,7.03,8.21,8.89c0.05,3.05,0.37,6.39,0.97,10.08c-0.45,2.74-6.97,5.76-9.47,6.92
	l-14.64,6.79l16.12,0.83c2.13,0.11,3.96,0.16,5.61,0.16c5.21,0,21.03,0,21.71-14.56l1.04-11.6c0.73-0.59,1.41-1.22,2.01-1.94
	c1.99-2.4,4.09-6.66,2.93-13.39c0.08-8.38,0.4-16.92,0.7-25.17c0.19-5.12,0.38-10.36,0.52-15.6l20.98,22.95
	c-4.77,6.58-4.34,11.4-2.99,14.41c2.28,5.07,8.58,8.1,16.85,8.1c0.05,0,0.09,0,0.14,0c1.32,1.28,2.75,2.58,4.33,3.91
	c1.44,2.37-1.53,8.91-2.67,11.43l-6.67,14.69l12.76-9.88c8.11-6.28,13.67-11.82,14.48-18.45c0.43-3.54-0.6-6.95-3.05-10.15
	c0.13-0.21,0.26-0.41,0.38-0.63c1.53-2.96,2.42-7.8-2-14.03l-0.19-0.27l-32.02-32.41h24.45c0.42,3.8,2.03,6.45,3.52,8.15
	c3.04,3.46,7.78,5.45,13,5.45c7.01,0,13.01-3.53,15.3-8.98c0.16-0.38,0.3-0.78,0.43-1.2c2.38-0.35,4.9-0.87,7.57-1.55
	c2.75,0.19,6.36,6.44,7.73,8.82l8.07,13.97l-0.61-16.13c-0.32-8.42-0.98-25.95-15.97-25.95c-0.26,0-0.53,0.01-0.8,0.02h-13.42
	c-0.61-0.69-1.27-1.38-1.96-2.09l-1.18-1.2h-63.31l-38.24-42.78c5.56,1.59,11.13,3.18,16.69,4.77
	c-20.65-26.93-41.29-53.86-61.94-80.79c0.45-13.01,0.9-26.04,1.35-39.05c22.34,46.91,36.49,105.73,91.57,105.03
	c-21.18-34.57-25.62-69.13-32.32-103.69c27.83,39.06,55.66,78.11,83.49,117.15c31.22,13.48,56.79,14.51,74.06-2.7
	c-8.98-1.2-17.95-6.58-26.93-16.16c-31.87-44.43-63.74-88.87-95.61-133.31c21.54,15.71,43.09,31.42,64.63,47.13
	c47.52,17.67,80.31,13.8,91.57-21.54C607.66,399.69,603.03,396.7,599.45,392.65z M286.7,198.37c-8.08,0-17.01,0.78-26.56,2.29
	c5.34-5.88,10.86-8.76,16.78-8.76c5.19,0,10.89,2.25,17.02,6.69C291.58,198.45,289.17,198.37,286.7,198.37z M331.9,166.64
	c1.61,2.35,2.06,5.56,2.06,9.1c0,7.15-1.82,12.99-11.4,12.99c-9.58,0-17.4-5.84-17.4-12.99c0-2.45,0.93-4.74,2.52-6.7
	c5.94-1.43,11.02-2.37,18.78-1.99C328.44,167.15,330.24,166.98,331.9,166.64z M321.73,180.73c-3.76,0-6.82-2.75-6.82-6.12
	s3.06-6.12,6.82-6.12c3.75,0,6.82,2.75,6.82,6.12S325.49,180.73,321.73,180.73L321.73,180.73z"/>
<path fill="#E20613" d="M392.8,521.85c12.81,14.47,25.61,28.95,38.42,43.42c-15.5-0.15-31-0.31-46.51-0.47
	c-19.26,13,2.82,36.96,19.73,15.51c9.08,0,18.16,0,27.25,0c-0.94,13.78-1.88,27.55-2.82,41.34c-37.42,23.96,19.26,39.15,14.09,11.75
	c0.16-17.07,1.25-34.14,1.41-51.21c10.02,10.96,20.04,21.92,30.06,32.89c-22.86,25.69,38.37,23.49,23.02,1.88
	c-12.84-13-25.68-25.99-38.53-38.99c12.69,0,25.37,0,38.06,0c-2.98,23.02,43.69,15.5,15.97-12.69c-21.14,0-42.28,0-63.42,0
	c-14.55-16.28-29.1-32.55-43.65-48.83c-4.6-1.32-9.21-2.63-13.81-3.95C392.32,515.61,392.56,518.73,392.8,521.85z"/>
<path fill="#E20613" d="M244.85,516.06c-13.44,15.03-26.87,30.06-40.31,45.09c-21.14,0-42.28,0-63.42,0
	c-27.72,28.19,18.95,35.7,15.97,12.68c12.69,0,25.37,0,38.05,0c-12.84,13-25.68,25.99-38.52,38.99
	c-15.35,21.61,45.88,23.8,23.02-1.88c10.02-10.96,20.04-21.93,30.07-32.89c0.16,17.07,1.25,34.14,1.41,51.21
	c-5.17,27.4,51.52,12.22,14.09-11.75c-0.94-13.78-1.88-27.56-2.82-41.34c9.08,0,18.16,0,27.25,0c16.91,21.45,38.99-2.51,19.73-15.51
	c-15.5,0.16-31.01,0.31-46.51,0.47c11.23-12.69,22.45-25.38,33.68-38.06c0.27-3.54,0.54-7.07,0.82-10.61
	C253.19,513.68,249.02,514.87,244.85,516.06z"/>
<path fill-rule="evenodd" clip-rule="evenodd" fill="#E20613" d="M512.5,568.56c6.26,0,12.53,0,18.79,0
	c10.51-0.5,12.23,10,12.69,22.08c-3.44-5.96-7.05-11.14-11.75-10.81c-7.21,1.88-13.15,2.51-17.85,1.88
	C513.75,577.33,513.12,572.94,512.5,568.56L512.5,568.56z"/>
<path fill-rule="evenodd" clip-rule="evenodd" fill="#E20613" d="M488.12,616.28c3.64,5.09,7.29,10.19,10.94,15.28
	c6.52,8.26-1.02,15.77-10.58,23.17c2.84-6.27,4.96-12.21,1.96-15.84c-5.72-4.76-9.69-9.24-11.92-13.42
	C481.72,622.4,484.92,619.34,488.12,616.28L488.12,616.28z"/>
<path fill-rule="evenodd" clip-rule="evenodd" fill="#E20613" d="M438.68,641.01c-0.56,6.24-1.12,12.48-1.67,18.71
	c-0.44,10.52-11.05,11.29-23.12,10.67c6.24-2.9,11.72-6.03,11.81-10.74c-1.23-7.34-1.32-13.32-0.28-17.95
	C429.83,641.47,434.25,641.24,438.68,641.01L438.68,641.01z"/>
<path fill-rule="evenodd" clip-rule="evenodd" fill="#E20613" d="M389.88,569.5c-6.26,0-12.53,0-18.79,0
	c-10.51-0.5-12.23,10-12.68,22.08c3.44-5.96,7.05-11.13,11.74-10.8c7.21,1.88,13.15,2.5,17.85,1.88
	C388.63,578.27,389.25,573.88,389.88,569.5L389.88,569.5z"/>
<path fill-rule="evenodd" clip-rule="evenodd" fill="#E20613" d="M141.58,564.44c-6.26,0-12.53,0-18.79,0
	c-10.52-0.5-12.23,10-12.68,22.08c3.44-5.96,7.04-11.13,11.74-10.8c7.2,1.88,13.15,2.5,17.85,1.88
	C140.33,573.21,140.96,568.83,141.58,564.44L141.58,564.44z"/>
<path fill-rule="evenodd" clip-rule="evenodd" fill="#E20613" d="M165.96,612.16c-3.64,5.09-7.29,10.19-10.93,15.29
	c-6.52,8.26,1.02,15.77,10.58,23.16c-2.85-6.26-4.96-12.2-1.96-15.84c5.72-4.77,9.69-9.24,11.92-13.43
	C172.36,618.29,169.16,615.22,165.96,612.16L165.96,612.16z"/>
<path fill-rule="evenodd" clip-rule="evenodd" fill="#E20613" d="M215.4,636.89c0.56,6.24,1.11,12.48,1.67,18.72
	c0.44,10.52,11.05,11.29,23.12,10.67c-6.24-2.9-11.72-6.02-11.81-10.74c1.23-7.34,1.33-13.32,0.28-17.94
	C224.25,637.36,219.82,637.12,215.4,636.89L215.4,636.89z"/>
<path fill-rule="evenodd" clip-rule="evenodd" fill="#E20613" d="M264.2,565.38c6.26,0,12.53,0,18.79,0
	c10.52-0.5,12.23,10,12.69,22.08c-3.44-5.96-7.05-11.13-11.74-10.81c-7.2,1.88-13.15,2.51-17.85,1.88
	C265.45,574.15,264.83,569.77,264.2,565.38L264.2,565.38z"/>
<path fill="#E20613" d="M269.15,242.31c5.78-7.79,12.8-14.24,27.18-12.71c0.74-6.51,1.89-13.41,2.93-20.21
	C276.53,211.91,265,221.88,269.15,242.31z"/>
<path fill="#E20613" d="M291.2,164.36c-30.56-5.21-44.99,7.22-36.77,36.91c12.3-15.94,27.33-18.7,46.3-2.41
	C302.68,182.47,302.23,168.38,291.2,164.36z"/>
<path fill="#E20613" d="M259.33,204.84c-12.64,0.29-25.17,6.04-37.47,3.12c-12.33-2.92-10.28-17.25-7.14-26.77
	c-20,1.56-21.08,24.89-6.69,35.24c6.56,4.72,18.29,6.05,37.03,0.89c9.28-2.55,20.39-4.48,31.42-5.15c5.74-3.6,13.49-5.88,23.38-6.86
	c0.1-0.72,0.2-1.43,0.3-2.14C287.81,201.63,274.07,202.39,259.33,204.84z"/>
<path fill="#FFFFFF" d="M326.46,167.05c-7.76-0.37-12.84,0.56-18.78,1.99c-1.59,1.96-2.52,4.25-2.52,6.7
	c0,7.15,7.82,12.99,17.4,12.99c9.58,0,11.4-5.84,11.4-12.99c0-3.54-0.45-6.76-2.06-9.1C330.24,166.98,328.44,167.15,326.46,167.05z"
	/>
<path fill-rule="evenodd" clip-rule="evenodd" d="M321.73,180.73c3.75,0,6.82-2.75,6.82-6.12s-3.06-6.12-6.82-6.12
	c-3.76,0-6.82,2.75-6.82,6.12S317.98,180.73,321.73,180.73L321.73,180.73z"/>
</svg>
