<?xml version="1.0" encoding="utf-8"?>
<!-- Generator: Adobe Illustrator 12.0.0, SVG Export Plug-In . SVG Version: 6.00 Build 51448)  -->
<!DOCTYPE svg PUBLIC "-//W3C//DTD SVG 1.1//EN" "http://www.w3.org/Graphics/SVG/1.1/DTD/svg11.dtd" [
	<!ENTITY ns_svg "http://www.w3.org/2000/svg">
	<!ENTITY ns_xlink "http://www.w3.org/1999/xlink">
]>
<svg  version="1.1" id="Layer_1" xmlns="&ns_svg;" xmlns:xlink="&ns_xlink;" width="1200" height="800" viewBox="0 0 1200 800"
	 overflow="visible" enable-background="new 0 0 1200 800" xml:space="preserve">
<g>
	<rect fill="#FFFFFF" width="1200" height="800"/>
	<g>
		<rect y="571.429" fill="#27820C" width="1200" height="114.285"/>
		<rect y="342.857" fill="#27820C" width="1200" height="114.282"/>
		<rect y="114.286" fill="#27820C" width="1200" height="114.286"/>
		<rect fill="#27820C" width="514.286" height="800"/>
	</g>
	<g>
		<path fill="#FFFFFF" stroke="#FFFFFF" stroke-width="16" d="M275.376,227.308c0-10.026-6.953-19.293-18.232-24.308l0,0
			c-11.282,5.015-18.232,14.282-18.232,24.308H275.376z"/>
		<path fill="#FFFFFF" stroke="#FFFFFF" stroke-width="16" stroke-linejoin="round" d="M84.308,381.768
			c-10.026,0-19.293,6.95-24.308,18.232l0,0c5.015,11.28,14.282,18.229,24.308,18.229V381.768z"/>
		<path fill="#FFFFFF" stroke="#FFFFFF" stroke-width="16" d="M429.692,418.231c10.026,0,19.293-6.95,24.308-18.229l0,0
			c-5.015-11.283-14.281-18.232-24.308-18.232V418.231z"/>
		<path fill="#FFFFFF" stroke="#FFFFFF" stroke-width="16" d="M238.913,572.692c0,10.026,6.95,19.293,18.232,24.308l0,0
			c11.279-5.015,18.232-14.281,18.232-24.308H238.913z"/>
		<path stroke="#FFFFFF" stroke-width="8" stroke-linejoin="round" d="M232.823,531.988c0,20.059-12.915,37.834-31.991,44.031
			l5.58,3.042c4.939,1.604,10.102,2.423,15.295,2.423c6.937,0,13.795-1.457,20.131-4.278l0.853,2.303
			c0,10.325,28.903,10.325,28.903,0l0.852-2.303c6.337,2.821,13.196,4.278,20.132,4.278c5.193,0,10.356-0.817,15.295-2.423
			l5.58-3.042c-19.076-6.197-31.991-23.974-31.991-44.031l0,0V424.319h107.669c20.059,0,37.833,12.915,44.032,31.99l3.042-5.579
			c1.604-4.939,2.422-10.103,2.422-15.296c0-6.937-1.457-13.795-4.278-20.131l2.303-0.853c10.325,0,10.325-28.904,0-28.904
			l-2.303-0.853c2.822-6.336,4.278-13.195,4.278-20.131c0-5.193-0.816-10.356-2.422-15.295l-3.042-5.58
			c-6.198,19.076-23.974,31.991-44.032,31.991l0,0h-107.67V268.011c0-20.057,12.915-37.833,31.991-44.033l-10.584-4.381
			c-3.382-0.719-6.832-1.082-10.291-1.082c-6.937,0-13.795,1.458-20.132,4.279l-0.852-2.303c0-10.327-28.903-10.327-28.903,0
			l-0.853,2.303c-6.336-2.822-13.195-4.279-20.131-4.279c-5.193,0-10.356,0.817-15.295,2.422l-5.58,3.041
			c19.076,6.199,31.991,23.976,31.991,44.033l0,0V375.68H125.153c-20.057,0-37.833-12.915-44.033-31.991l-4.381,10.584
			c-0.719,3.382-1.082,6.832-1.082,10.291c0,6.937,1.458,13.795,4.279,20.131l-2.303,0.853c-10.326,0-10.326,28.904,0,28.904
			l2.303,0.853c-2.822,6.336-4.279,13.194-4.279,20.131c0,5.193,0.817,10.355,2.422,15.296l3.041,5.579
			c6.199-19.075,23.976-31.99,44.033-31.99h107.669v107.668H232.823z"/>
		<path d="M275.376,227.308c0-10.026-6.953-19.293-18.232-24.308l0,0c-11.282,5.015-18.232,14.282-18.232,24.308H275.376z"/>
		<path d="M238.913,572.692c0,10.026,6.95,19.293,18.232,24.308l0,0c11.279-5.015,18.232-14.281,18.232-24.308H238.913z"/>
		<path d="M84.308,381.768c-10.026,0-19.293,6.95-24.308,18.232l0,0c5.015,11.28,14.282,18.229,24.308,18.229V381.768z"/>
		<path d="M429.692,418.231c10.026,0,19.293-6.95,24.308-18.229l0,0c-5.015-11.283-14.281-18.232-24.308-18.232V418.231z"/>
	</g>
</g>
</svg>
