<?xml version="1.0" encoding="utf-8"?>
<!-- Generator: Adobe Illustrator 14.0.0, SVG Export Plug-In  -->
<!DOCTYPE svg PUBLIC "-//W3C//DTD SVG 1.1//EN" "http://www.w3.org/Graphics/SVG/1.1/DTD/svg11.dtd" [
	<!ENTITY ns_flows "http://ns.adobe.com/Flows/1.0/">
]>
<svg version="1.1"
	 xmlns="http://www.w3.org/2000/svg" xmlns:xlink="http://www.w3.org/1999/xlink" xmlns:a="http://ns.adobe.com/AdobeSVGViewerExtensions/3.0/"
	 x="0px" y="0px" width="288px" height="192px" viewBox="0 0 288 192" enable-background="new 0 0 288 192" xml:space="preserve">
<defs>
</defs>
<rect fill="#FFFFFF" width="288" height="192"/>
<path fill="#008001" d="M227.3,175.8c-9.6-6.6-17.8,5.2-27.399-1.399c-9.601-6.601-1.4-18.5-11-25.101
	c-9.601-6.6-17.801,5.2-27.4-1.399c-9.6-6.601-1.4-18.5-11-25.101c-9.6-6.6-17.8,5.2-27.4-1.399c-9.6-6.601-1.4-18.5-11-25.101
	c-9.6-6.6-17.8,5.2-27.4-1.4c-9.6-6.6-1.4-18.5-11-25.1c-9.6-6.6-17.8,5.2-27.4-1.4c-9.6-6.6-1.4-18.5-11-25.1
	c-9.6-6.6-17.8,5.2-27.3-1.4C-0.2,36,5.3,26,0,19.2V192h233.1C232.3,186.3,233.3,180,227.3,175.8z"/>
<path fill="#FE0000" d="M27.9,0c0.6,0.7,1.3,1.3,2.2,1.9c9.6,6.6,17.8-5.2,27.4,1.4c9.6,6.6,1.4,18.5,11,25.1s17.8-5.2,27.3,1.4
	c9.6,6.6,1.4,18.5,11,25.1c9.6,6.6,17.8-5.2,27.4,1.4c9.6,6.6,1.4,18.5,11,25.1c9.6,6.6,17.8-5.2,27.399,1.4
	c9.601,6.6,1.4,18.5,11,25.101c9.601,6.6,17.801-5.2,27.4,1.399c9.6,6.601,1.4,18.5,11,25.101c9.6,6.6,17.8-5.2,27.4,1.399
	c9.6,6.601,1.399,18.5,11,25.101c9.6,6.6,17.8-5.2,27.399,1.399c0.2,0.2,0.4,0.3,0.7,0.5V0H27.9z"/>
</svg>
