<?xml version="1.0" encoding="UTF-8"?>
<svg width="389.15mm" height="258.97mm" version="1.1" viewBox="0 0 389.15 258.97" xmlns="http://www.w3.org/2000/svg" xmlns:cc="http://creativecommons.org/ns#" xmlns:dc="http://purl.org/dc/elements/1.1/" xmlns:rdf="http://www.w3.org/1999/02/22-rdf-syntax-ns#" xmlns:xlink="http://www.w3.org/1999/xlink">
<defs></defs>
<metadata>
<rdf:RDF>
<cc:Work rdf:about="">
<dc:format>image/svg+xml</dc:format>
<dc:type rdf:resource="http://purl.org/dc/dcmitype/StillImage"/>
<dc:title/>
</cc:Work>
</rdf:RDF>
</metadata>
<g transform="translate(-262.02 39.417)">
<g transform="matrix(2.5897 0 0 2.5897 -885.06 -228.06)">
<g transform="matrix(.60749 0 0 .60749 425.7 16.444)">
<g transform="matrix(.11614 0 0 .11614 112.29 216.72)">
<g transform="matrix(.73232 0 0 .73232 -146.01 -128.43)">
<g transform="translate(-122.35 -1012)">
<path transform="matrix(19.354 0 0 19.354 -4687.5 -1340.2)" d="m208.11 55.336h150v50h-150z" fill="#078930"/>
<path transform="matrix(19.354 0 0 19.354 -4687.5 -1340.2)" d="m208.11 105.34h150v50h-150z" fill="#0f47af"/>
<path transform="matrix(19.354 0 0 19.354 -9237.5 -1679)" d="m517.94 122.84-75 50v-100z" fill="#fff"/>
<g transform="matrix(3.398 0 0 3.398 -1839.5 -930.49)">
<g transform="matrix(.22815 -.016866 .016866 .22815 568.72 270.62)" fill="#078930" stroke="#000" stroke-width="4.3712">
<path d="m-764.41 1032.1c-16.411 72.636-65.464 267.34-49.488 271.58 27.538 7.3044 60.96-150.12 82.396-269.89"/>
<path d="m-790.6 1061.5c-16.411 72.636-68.318 242.62-52.374 246.98 24.47 6.6909 67.509-133.39 80.14-240.9"/>
<path d="m-814.24 1061.1c-16.411 72.636-76.113 249.19-60.136 253.43 27.538 7.3044 77.335-157.47 94.477-249.1"/>
<path d="m-838.85 1060.3c-25.614 75.09-94.369 246.78-68.36 258.52 24.467 11.049 81.495-155.73 102.35-255.91"/>
</g>
<path d="m448.45 526.62s25.901-14.287 39.968-18.474c9.9722-2.9682 20.762-2.1202 30.883-4.5296 8.8673-2.1108 16.908-7.4375 25.942-8.6474 14.716-1.9707 44.472 2.4707 44.472 2.4707s-28.812-0.37464-42.825 2.4706c-7.9988 1.6242-15.255 5.8456-23.06 8.2356-10.027 3.0707-21.157 3.0068-30.472 7.8238-5.1542 2.6654-13.278 11.257-13.278 11.257l-6.0399 1.8284-4.8781 2.5008-6.1948 3.6626c-5.6819 3.775 0 0-18.733 10.479l-14.863-9.1655z" fill="#704d25" stroke="#000" stroke-width="1.153px"/>
<g transform="translate(-27.419 -5.4121)" stroke="#000">
<path d="m497.15 514.7s0.18694 4.5229 0.81103 5.398c1.3625 0.31933 3.0019 0.2595 4.8673 0.80115 1.9606 0.5693 3.8839 1.6093 5.5054 3.4142 1.3954 1.5532 2.3601 4.0676 2.2403 6.3829-0.15114 2.9214-3.1573 3.1424-3.076 1.9448 0.85036-1.8949-0.79012-5.0802-1.7286-6.2796-0.60603-0.77456-2.2201-1.8057-4.6014-2.5411 0.78277 0.93889 1.7808 1.5562 2.8125 3.0366 2.2576 3.2393 1.982 6.9719 0.56709 7.8714-1.0156 0.64565-2.5853 1.1675-3.0895-0.25883 1.3845-0.60719 1.4381-3.7123-0.74568-6.3212-1.1988-1.4321-2.0046-1.9829-4.3425-3.13-2.2114-1.085-5.4834-0.66149-7.1909 0.34019l-1.9362 1.1358c-1.1479-0.9314-0.33672-2.5128 0.83886-3.4091 1.2428-0.9475 3.9445-1.7583 5.7051-1.6229-0.36394-2.0733-1.3548-4.2154-1.3548-4.2154" fill="#ecc974"/>
<path d="m508.82 485.13-6.759 10.961c-3.0712 4.9804-4.0748 15.879-3.1775 20.679-0.46739 0.0513-0.9299 0.0682-1.2617-0.8294 0 0.55666-0.16751 1.3454 0.33937 2.1558-0.53005-0.13223-1.0217-0.73655-1.2751-1.1454-0.12484 0.42827-0.16975 1.2778 0.0167 1.9136-0.78321-0.18485-1.0118-1.0016-1.2924-1.3875-0.11796 0.59912 0.15798 1.3829-0.29338 2.0339-0.16361-0.46264-0.62705-1.1222-0.99811-1.4471 0.16332 0.56421-0.12852 1.5315-0.78698 1.9656-0.0716-0.71374-0.27379-1.1664-0.48099-1.609-0.24641 0.60115-0.39279 1.3023-1.1616 1.3811 0.10201-0.69253-0.0153-1.6155-0.15176-2.4125l-0.44921 0.50693c8e-3 -1.2649-0.27679-1.7295-0.40483-2.5262l-0.25265 1.4414c-0.17297-1.1503-0.44091-3.1519-0.9191-4.4701l-0.49562 1.7506c-0.33698-0.39186-0.58439-1.7297-0.70951-4.3118-0.4253 1.0735-0.58198 2.3514-1.5333 3.0835-0.2688-0.89067-0.77521-1.2597-0.66551-2.6394-0.18377 0.249-0.30859 0.67493-0.38726 1.2392-0.62122-1.1294-0.75434-2.3983-0.64147-3.7375-0.22277 0.39706-0.25786 0.75469-0.37577 1.1517-0.59928-1.0005-0.61118-1.9615-0.60623-2.962l-0.28676 1.5394c-0.64307-0.9801-0.71525-2.0554-0.73822-3.1388l-0.24148 1.1859c-0.4474-0.62308-0.61601-1.525-0.64394-2.5676" fill="#078930"/>
</g>
<g transform="matrix(.22877 0 0 .22877 587.13 284.11)" stroke="#000" stroke-width="4.3712">
<path d="m-725 691.76c-23.758 28.318-48.756 63.058-68.373 101.71-30.995 61.064-48.626 124.22-40.768 125.56 9.5304 1.617 94.808-121.78 142.84-196.53" fill="#078930"/>
<path d="m-589.19 583.37c-22.845 13.61-76.968 57.784-110.7 95.245-24.185 26.862-36.448 51.087-31.266 56.719 6.5458 7.113 31.138-45.467 97.714-107.3" fill="#078930"/>
<path d="m-615.02 594.68c-22.845 13.61-76.246 59.617-109.97 97.078-24.185 26.862-35.672 48.598-30.49 54.23 6.5458 7.113 29.64-44.811 96.216-106.64" fill="#078930"/>
<path d="m-741.26 785.25c-31.941 30.926-80.173 84.886-113.18 149.91-30.995 61.064-48.626 124.22-40.768 125.56 9.5304 1.617 101.55-133.01 132.17-198.22" fill="#078930"/>
<path d="m-771.43 833.72c-27.177 34.101-71.736 95.054-104.74 160.08-30.995 61.064-47.415 139.67-39.478 140.4 5.8981 0.5423 15.85-14.963 21.395-26.565 20.993 0.6671 69.638-106.44 97.872-166.49" fill="#00a7fa"/>
</g>
<path d="m524.69 385.27c1.7694-2.8162 0.41793-5.7605-1.48-7.3364-4.2676-3.5434-10.466-6.5953-21.65-5.9518-12.041 0.69289-20.593 7.1534-26.237 13.836-6.8738 8.1388-9.4033 16.647-11.982 19.344-4.4121 4.6128-8.7795 6.9181-14.654 11.443-11.453 8.8222-18.19 19.789-25.521 30.658-5.8764 8.7118-11.12 17.97-14.946 27.757-5.6562 14.47-11.591 45.144-11.591 45.144l6.215 30.341 10.498-8.5696c3.0072-2.4549 4.6166-6.9232 8.5465-11.137 2.7122-2.9082 5.2295-4.9766 7.9479-7.3081 3.8213-3.2773 7.2149-9.5803 14.154-14.48 14.383-10.155 24.093-13.551 26.505-15.262 6.5426-4.6374 8.9418-10.547 14.326-16.491 3.1855-3.5168 7.1185-7.0776 9.8013-10.991 3.2687-4.7684 5.5441-11.523 8.7346-17.316 2.288-4.1545 4.6544-6.5575 5.866-11.143 1.0911-4.1298-0.62206-8.5792-0.0406-12.811 0.94447-6.8732 2.9355-9.9175 3.6603-14.641l0.25296-12.607z" fill="#078930" stroke="#000"/>
<g transform="matrix(.22877 0 0 .22877 587.13 284.11)" fill="#078930" stroke="#000" stroke-width="4.3712">
<path d="m-765.58 898.76c-22.141 82.242-65.798 224.99-46.289 244.43 15.968 15.915 81.668-111.82 88.418-247.69"/>
<path d="m-820.21 964.24c-17.391 80.686-33.456 169.93-20.905 177.71 15.76 9.7793 67.069-130.35 77.784-249.37"/>
<path d="m-709.99 893.5c-22.141 82.242-82.56 212.63-60.978 229.75 19.357 15.35 70.369-107.3 87.288-221.7"/>
<path d="m-707.29 916.35c-34.198 65.82-58.256 160.88-42.782 176.76 10.284 10.548 55.166-75.932 76.867-173.45"/>
<path d="m-683.86 881.94c-37.176 76.033-52.299 164.29-42.782 176.76 8.9385 11.71 55.166-73.379 76.867-173.45"/>
</g>
<path d="m479.24 465.35c-3.976 10.616-5.0676 17.828-10.38 29.335 3.5174-2.2383 6.7304-5.6297 9.6892-9.3036 2.0378-2.5303 3.7785-5.3669 6.275-8.123 3.1855-3.5168 7.1185-7.0776 9.8013-10.991 3.2687-4.7684 5.5441-11.523 8.7346-17.316 2.288-4.1545 4.6544-6.5575 5.866-11.143 1.0911-4.1298-0.62206-8.5792-0.0406-12.811 0.94447-6.8732 2.9355-9.9175 3.6603-14.641l-3.4146-2.5603-0.0736-3.9428c-3.2622 1.2918-5.5204 2.6045-7.1885 3.8753-2.8424 2.1655-4.1251 6.4101-6.0063 9.9069-2.1185 3.9379-3.4137 7.5182-4.9476 12.082z" fill="#078930" stroke="#010000"/>
<g transform="matrix(.22877 0 0 .22877 587.13 284.11)" stroke="#000" stroke-width="4.3712">
<path d="m-793.8 935.33c-18.024 15.058-76.139 69.228-89.84 81.624-29.028 26.263-51.145 45.691-80.266 74.316 50.919 6.8803 240.29-79.384 324.84-138.83" fill="#009dd1"/>
<path d="m-923.46 1052.8c-8.6254 7.9973-17.023 15.872-25.083 23.555 37.688 13.644 180.72-56.554 262.14-122.7" fill="#009dd1"/>
<path d="m-910.78 1041c-4.907 4.5962-19.958 18.451-24.658 22.93 39.085 2.9934 141.12-47.643 222.54-113.79" fill="#009dd1"/>
<path d="m-883.64 1017c-8.6254 7.9974-19.084 16.406-27.144 24.088 25.806 3.7428 101-32.719 169.55-95.401" fill="#078930"/>
<path transform="translate(29.957 .03125)" d="m-813.91 926.92c-33.537 28.242-61.526 55.03-99.682 90.003 41.061-17.602 68.995-43.193 126.58-83.575" fill="#078930"/>
</g>
<g transform="matrix(.22877 0 0 .22877 587.13 284.11)" stroke="#000" stroke-width="4.3712">
<path transform="translate(29.957 .03125)" d="m-585.73 803.22c-50.488 54.738-164.09 162.65-157.71 180.27 33.012 7.1225 149.17-76.528 213.51-153.56" fill="#009dd1"/>
<path transform="translate(29.957 .03125)" d="m-624.38 804.15c-50.488 54.738-167 164-157.71 180.27 12.742 22.307 151.95-48.75 213.51-153.56" fill="#009dd1"/>
<path transform="translate(29.957 .03125)" d="m-657.84 803.04c-41.473 61.849-179.48 183.58-160.99 186.63 48.29 7.9825 160.65-74.024 220.69-179.01" fill="#078930"/>
<path transform="translate(29.957 .03125)" d="m-671.64 805.66c-41.473 61.849-179.72 186.98-160.99 186.63 43.661-0.81385 151.86-93.006 208.66-187.34" fill="#078930"/>
<path transform="translate(29.957 .03125)" d="m-724.01 792.1c-41.473 61.849-137.13 185.95-128.12 202.37 34.329 5.9152 134.27-111.06 187.36-184.56" fill="#078930"/>
<path transform="translate(29.957 .03125)" d="m-765.49 788.26c-33.981 66.261-118.08 207.84-103.66 215.93 24.852 13.931 120.4-125.95 164.57-205.14" fill="#078930"/>
</g>
<path d="m472.47 476.32c5.7179-5.4307 11.156-12.385 16.422-27.099l-56.016-9.1836c-4.1886 5.074-12.167 20.949-15.708 27.661-6.0385 11.446 2.8653 5.9556 6.0775 1.5553-5.8771 8.1057 0.12344 8.5733 6.366 1.0114-4.8803 8.5899 0.12639 8.3316 7.5782 0.91736-5.4009 7.49-0.55965 8.981 7.0147 1.0251-7.0414 10.07 3.5334 6.4809 6.7524 1.1803-6.7662 9.0499 1.4754 8.5412 7.1254 0.98501-8.1139 8.6129 0.2777 8.5876 6.8898 0.81837-8.0243 8.2375 0.31283 7.9522 7.4977 1.1282z" fill="#078930" stroke="#000"/>
<path d="m487.16 453.8c2.4946-4.7033 4.4901-9.1126 9.1141-19.457 2.2864-5.1149 0.2703-12.14-4.7161-15.375-3.2072-2.0803-6.7407-2.9407-9.8988-3.069-2.4405-0.0991-4.2941 1.7745-6.968 1.7119-9.6391-0.22577-10.022-2.1628-18.296 1.3571-8.3013 3.5317-18.311 13.715-23.519 21.062-8.9438 12.617 3.3794 5.9556 6.5916 1.5553-5.1976 9.0117 0.44499 10.082 7.3671 2.5203-6.0185 8.3622 1.5251 10.011 7.8137 1.8755-7.2745 12.507 4.6229 7.9702 8.3047 1.9792-7.8016 10.258 2.201 10.099 8.2145 2.0806-6.8809 9.4146 2.2017 10.384 8.1899 1.9907-6.4645 8.8614 3.7644 9.3808 7.8025 1.7675z" fill="#078930" stroke="#000"/>
<path d="m508.98 395.91c-1.677 0.29108-3.3708-0.73741-5.0686-0.61787-2.2327 0.1572-4.2476 1.7496-6.4858 1.7385-2.9637-0.0147-5.652-1.8399-8.5647-2.3873-2.6199-0.49232-5.2918-0.78951-7.9576-0.79575-2.1654-5e-3 -5.1916 0.96028-6.4671 0.61614-0.69806-0.18834-1.4027-0.94837-1.3828-1.6711 0.0262-0.95096 0.88205-4.2284 2.2716-6.9749 2.3743-2.9102 5.3255-5.9007 9.9961-8.7306 3.8836-2.353 8.9555-4.6636 16.241-5.1054 9.022-0.54709 18.118 1.6008 23.269 7.828 1.2398 1.4988 0.8427 4.3657-0.13975 5.4601l-11.4 8.477s-2.7273 1.8882-4.3116 2.1632z" fill="#078930" stroke="#000"/>
<path transform="matrix(1.153 0 0 1.153 360.77 253.67)" d="m141.76 108.82c-0.5101 0.23923-1.0339 0.44772-1.582 0.55664-1.1676 0.23204-2.386-0.12123-3.5703 0-1.7536 0.17951-3.4876 0.57835-5.1797 1.0723-0.64202 0.1874-1.4271 0.21616-1.875 0.71289-0.92816 1.0294-1.5806 2.7288-1.0703 4.0176 0.47734 1.2056 2.0367 1.775 3.3027 2.0547 0.66534 0.147 1.487-0.66056 2.0293-0.24804 0.81381 0.61898 0.52288 1.9057 0.34766 3.1152l8.0098-5.9551c0.8521-0.94924 1.1964-3.4364 0.12109-4.7363-0.16971-0.20517-0.35381-0.39481-0.5332-0.58984z" fill="#e32e12"/>
<g stroke="#000">
<g transform="matrix(.22877 0 0 .22877 587.13 284.11)" stroke-width="4.3712">
<path d="m-355.19 415c10.995 0 19.847 8.8518 19.847 19.847s-8.8518 19.847-19.847 19.847-19.847-8.8518-19.847-19.847 8.8518-19.847 19.847-19.847z" fill="#e6e6e6" stroke="#000" stroke-width="4.3712"/>
<path d="m-355.19 422.54c6.8211 0 12.312 5.4914 12.312 12.312s-5.4914 12.312-12.312 12.312-12.312-5.4914-12.312-12.312 5.4914-12.312 12.312-12.312z" fill="#cab313" stroke="#000" stroke-width="4.3712"/>
<path d="m-355.19 429.22c3.1174 0 5.627 2.5097 5.627 5.627s-2.5097 5.627-5.627 5.627-5.627-2.5097-5.627-5.627 2.5097-5.627 5.627-5.627z" stroke="none"/>
</g>
<path d="m509.55 397.76c4.6725-0.88743 8.8945 1.8345 12.999 5.2076 3.8717 3.1819 4.4219 7.9682 4.0255 10.533 2.9473-1.5123 6.811-7.9608 5.7916-15.481-0.758-5.5921-4.4698-10.022-7.6744-12.752-1.5442-1.3154-3.0066-0.87627-4.2947 0.0915-1.5872 1.1926-2.122 3.3301-3.0564 3.8813-0.85011 0.50159-2.0984-0.0587-2.2845-0.69718-1.0564 1.6352-2.4141 2.6594-3.0741 4.1464-0.71549 1.6122-0.65307 3.3799-2.4318 5.0699z" fill="#f6e17f" stroke-linejoin="round"/>
<path d="m509.55 397.76c0.91 0.98432 1.1744 2.1834 1.1229 3.3052-0.0848 1.8459-1.5042 2.1933-1.6702 3.9478-0.10508 1.1107 0.17698 2.2869 0.42723 2.7796 1.1208 0.5134 2.1291 1.7699 2.8221 2.5874 1.5208 0.3887 3.5797 0.47194 5.7597 0.30158 2.2988-0.17965 5.3284-1.5018 6.7314-2.9355-1.7295-0.33237-2.9574-0.93277-4.049-1.7714-1.8776-1.4425-2.3047-3.4988-3.6947-5.4155-1.7112-2.3596-4.3255-3.2883-7.4494-2.7991z" fill="#f6e17f" stroke-linejoin="round"/>
</g>
<g stroke="#000">
<path d="m458.36 514.82s0.18694 4.5229 0.81103 5.398c1.3625 0.31933 3.9563-0.19228 5.8156 0.37012 2.3224 0.70249 4.0485 1.474 5.5054 3.4142 1.0845 1.4443 1.8694 3.2876 1.7496 5.6029-0.15114 2.9214-3.1573 3.1424-3.076 1.9448 0.85036-1.8949-0.29939-4.3002-1.2379-5.4997-0.60603-0.77456-2.2201-1.8057-4.6014-2.5411 0.78277 0.93889 1.7808 1.5562 2.8125 3.0366 2.2576 3.2393 1.9399 7.5089-0.0785 8.9256-0.98502 0.69141-2.5853 1.1675-3.0895-0.25883 2.2466-1.0382 2.0836-4.7665-0.10009-7.3754-1.1988-1.4321-3.6401-2.5523-5.4632-2.9575-2.1282-0.47305-5.311-0.40287-7.0185 0.59881l-1.9362 1.1358c-1.1479-0.9314-0.33672-2.5128 0.83886-3.4091 1.2428-0.9475 3.9445-1.7583 5.7051-1.6229-0.36394-2.0733-1.3548-4.2154-1.3548-4.2154" fill="#ecc974"/>
<path d="m473.24 485c-0.7173 1.6064-0.77094 3.3788-2.3434 4.7714l0.47296-2.5823c-0.67123 1.6118-0.94076 3.6253-2.2626 4.5865l0.30433-2.2946c-0.58182 1.6316-1.2591 3.1996-2.5547 4.3552l0.30763-1.7252c-0.56152 1.3656-1.3022 3.4538-2.3886 4.3315l-0.13801-1.368c-3.7962 4.4526-5.4447 17.02-4.5474 21.82-0.46739 0.0513-0.9299 0.0682-1.2617-0.8294 0 0.55666-0.16751 1.3454 0.33937 2.1558-0.53005-0.13223-1.0217-0.73655-1.2751-1.1454-0.12484 0.42827-0.16975 1.2778 0.0167 1.9136-0.78321-0.18485-1.0118-1.0016-1.2924-1.3875-0.11796 0.59912 0.15798 1.3829-0.29338 2.0339-0.16361-0.46264-0.62705-1.1222-0.99811-1.4471 0.16332 0.56421-0.12852 1.5315-0.78698 1.9656-0.0716-0.71374-0.27379-1.1664-0.48099-1.609-0.24641 0.60115-0.39279 1.3023-1.1616 1.3811 0.10201-0.69253-0.0153-1.6155-0.15176-2.4125l-0.44921 0.50693c8e-3 -1.2649-0.27679-1.7295-0.40483-2.5262l-0.25265 1.4414c-0.17297-1.1503-0.44091-3.1519-0.9191-4.4701l-0.49562 1.7506c-0.33698-0.39186-0.58439-1.7297-0.70951-4.3118-0.4253 1.0735-0.58198 2.3514-1.5333 3.0835-0.2688-0.89067-0.77521-1.2597-0.66551-2.6394-0.18377 0.249-0.30859 0.67493-0.38726 1.2392-0.62122-1.1294-0.75434-2.3983-0.64147-3.7375-0.22277 0.39706-0.25786 0.75469-0.37577 1.1517-0.59928-1.0005-0.61118-1.9615-0.60623-2.962l-0.28676 1.5394c-0.64307-0.9801-0.71525-2.0554-0.73822-3.1388l-0.24148 1.1859c-0.4474-0.62308-0.61601-1.525-0.64394-2.5676" fill="#078930"/>
</g>
</g>
<g transform="matrix(5.2933 -.76318 .76318 5.2933 2180.1 -108.61)">
<path d="m-443.44 106.63 2.4604-4.3023 3.4999-4.122 3.9665-5.2886 1.4777-3.1887-1.7888-2.8776 1.011-1.2444 2.411 3.2665 1.2444-3.7332 2.8776 1.6333-1.1666 1.4777 2.9554-1.2444s0.0778-3.8887 0.62221-3.9665c0.54442-0.07777 1.6333-1.3999 2.0999-1.3999s1.9444 1.2444 1.9444 1.2444-0.38889 0.69997-1.2444 1.3222-2.0999 1.8666-2.0999 2.4888 0.15553 2.3332 0.15553 2.3332l-0.31106 1.8666s-0.93331 1.7888-1.0888 2.0999c-0.15557 0.3111-3.1888 3.8887-3.4221 4.2776-0.23332 0.38887-2.8776 2.7221-2.8776 2.7221l-4.3553 1.3999-2.7221 2.2554-3.3443 2.411z" fill="#704d25" stroke="#141414" stroke-width=".43554px"/>
<g transform="matrix(.10669 .028891 -.028891 .10669 -398.27 75.696)">
<g transform="matrix(.21002 0 0 .33354 -124.66 -67.86)">
<path d="m238 369.66c-20.712-11.874-48.401-27.14-86.5-47.689-8.9844-4.846-20.28-11.491-28.5-16.766-6.765-4.3411-6.4552-4.0826-5.7452-4.7927 0.32349-0.32349 2.536 0.52129 4.9167 1.8773 2.3807 1.356 7.2535 4.041 10.829 5.9667 20.139 10.848 32.156 17.405 61.246 33.423 10.31 5.6769 18.9 10.322 19.088 10.322 0.18808 0 5.4774 2.8192 11.754 6.2648 18.64 10.233 34.715 18.266 35.326 17.654 0.31466-0.31467 0.87003-11.82 1.2341-25.567l0.66201-24.995-2.9053-2.0206c-1.5979-1.1113-6.5053-4.0575-10.905-6.547-4.4-2.4895-12.05-6.9007-17-9.8026s-11.475-6.6244-14.5-8.2722c-3.025-1.6478-11.8-6.4798-19.5-10.738s-16.475-9.0705-19.5-10.694c-27.018-14.504-49.326-27.234-51.5-29.388-1.9948-1.977-1.9897-1.9778 2-0.33375 2.2 0.90659 4.45 2.0038 5 2.4383s3.925 2.3474 7.5 4.2511c3.575 1.9036 10.55 5.6162 15.5 8.2501s12.825 6.9045 17.5 9.4901 12.55 6.8676 17.5 9.5156 12.375 6.694 16.5 8.9912c10.494 5.844 44.73 24 49.237 26.111 2.0556 0.96286 3.9627 1.5254 4.238 1.2501 0.80585-0.80585 1.902-55.218 1.171-58.13-0.48826-1.9454-2.5907-3.7642-7.9058-6.839-3.9824-2.3038-10.391-6.073-14.241-8.3758-6.5454-3.9152-37.534-21.256-51-28.539-3.3-1.7848-8.8608-4.7954-12.357-6.6903-8.8124-4.7757-17.404-10.356-16.829-10.93 0.48008-0.48007 15.835 7.3294 33.686 17.133 5.225 2.8694 14.45 7.8346 20.5 11.034 6.05 3.1991 13.45 7.1328 16.444 8.7415 22.259 11.958 30.331 15.864 31.131 15.064 0.95781-0.95781 1.4024-52.743 0.46584-54.258-0.47575-0.76977-30.189-17.928-63.041-36.403-10.761-6.052-15.8-9.6053-13.67-9.6409 0.73166-0.0122 5.0067 1.9468 9.5 4.3535 30.002 16.069 38.741 20.715 51.407 27.326 7.8303 4.0876 14.693 7.1503 15.25 6.8059 1.1728-0.72483 1.4059-39.382 0.2478-41.095-0.40408-0.59761-2.9847-2.3556-5.7347-3.9067-13.37-7.5408-33.413-20.507-31.699-20.507 1.5832 0 13.34 5.792 18.93 9.3257 2.3266 1.4708 4.5701 2.6743 4.9856 2.6743 0.41553 0 3.0959 1.1841 5.9563 2.6314 7.9682 4.0316 8.3252 3.5673 8.3432-10.85 0.0217-17.368 1.5963-18.208 2.5-1.3339 0.53516 9.992 1.0973 13.85 2.0725 14.225 0.73599 0.28243 6.6423-2.6166 13.125-6.4423 6.4828-3.8257 13.362-7.7113 15.287-8.6346l3.5-1.6788-3.5 3.1127c-1.925 1.712-9.0812 6.9746-15.903 11.695l-12.403 8.582 0.65072 18.713c0.75074 21.589 1.2349 25.007 3.5296 24.92 0.89375-0.0341 6.9218-3.2966 13.396-7.25 32.055-19.575 45.451-27.49 47.729-28.201 2.3886-0.7451 2.3663-0.66806-0.5 1.7286-1.65 1.3797-5.3054 4.033-8.1232 5.8964-2.8178 1.8634-7.5428 5.0065-10.5 6.9848-2.9572 1.9783-13.111 8.4079-22.563 14.288-9.4524 5.8801-18.126 11.462-19.275 12.403-2.064 1.6915-2.079 2.0372-1.2558 28.937 0.45819 14.974 1.1422 27.534 1.5201 27.912 0.91037 0.91037 5.0068-1.3919 39.197-22.029 38.053-22.969 47.438-28.5 56.75-33.447 8.0732-4.2887 10.374-4.4285 3.9577-0.24036-10.026 6.544-32.037 20.262-53.208 33.161-12.925 7.8748-27.325 16.754-32 19.732-4.675 2.9778-9.7501 6.1506-11.278 7.0507s-3.0296 2.6111-3.3372 3.8022c-0.8136 3.1504 1.4974 55.616 2.4936 56.613 0.4629 0.4629 9.3421-4.2117 19.732-10.388 20.35-12.098 65.171-39.096 82.67-49.798 5.9292-3.626 14.704-8.9936 19.5-11.928 4.7958-2.9344 10.52-6.2159 12.72-7.2923l4-1.9571-3 2.6048c-5.3909 4.6808-20.546 14.313-69.572 44.216-16.186 9.8725-33.703 20.694-38.928 24.048s-13.159 8.3768-17.632 11.162c-4.4724 2.7851-8.6916 5.7386-9.3761 6.5633-0.98013 1.181-1.0246 6.438-0.2094 24.745 0.56931 12.785 1.3492 24.033 1.7331 24.996s1.6175 1.75 2.7413 1.75c1.1238 0 28.863-16.038 61.643-35.639 61.318-36.666 66.831-39.944 71.1-42.265l2.5-1.3592-2.4401 2.6482c-1.342 1.4565-15.292 10.581-31 20.277-15.708 9.696-30.135 18.629-32.06 19.851-4.4395 2.818-9.6006 6.0165-41.264 25.573-14.17 8.7522-31.454 16.665-32.573 16.665 0 0-14.241 0.24117-14.241 0.24117-0.78169-0.00406-11.096-5.554-22.921-12.333z" fill="#eee"/>
</g>
</g>
<path d="m-427.43 106.26 1.2099-2.2548 2.1448-2.6397 2.9147-0.60494 0.87992-2.1448 1.3749-4.4546 2.6397-0.87991 1.9248-2.7497 0.71493-4.0696s1.8698-1.7048 2.3098-1.8148c0.43993-0.10999 2.1998-2.6947 2.1998-2.6947l0.65996-0.82492h1.9798l1.0449-0.76992-0.60494 3.1347-2.1998 1.2099s-0.98993 1.2649 0.27495 1.2649 2.1448 0.38496 2.1448 0.38496l-0.10999 1.5948-3.7396 1.0999-2.6947 0.21998-1.2649 0.87991 0.10997 1.6498s1.0449 0.65994 0.98993 0.87991c-0.055 0.21998-0.49499 0.93491-1.3749 1.9248-0.87991 0.9899-2.0348 3.5197-2.3647 3.9596-0.32997 0.43996-1.3749 2.0348-1.3749 2.0348l-2.4198 0.65994-0.60495 1.8148-0.7699 1.3199-1.9798 1.9248z" fill="#704d25" stroke="#141414" stroke-width=".43554px"/>
<path d="m-404.33 106.04 0.43995-3.7396 1.2099-0.49495 1.8148-3.9046 1.8698 0.27497 0.16498 3.0797-1.7598 0.43995s-1.4299-0.055-1.4848 0.65994c-0.055 0.71493 0.055 1.7598 0.055 1.9798 0 0.21998 0.26517 2.6802-0.01 2.7902-0.27498 0.10998-2.3-1.0854-2.3-1.0854zm-0.60495-20.843 1.5398-5.5545s1.7598-2.3098 1.6498-1.2099 0.055 6.1044 0.055 6.1044 2.8597 0.21998 2.4198 0.38496c-0.43996 0.16498-2.9697 0.43996-3.4647 0.60494-0.49495 0.16498-2.1998-0.32997-2.1998-0.32997z" fill="#704d25" stroke="#141414" stroke-width=".43554px"/>
<path d="m-400.47 105.28 3.7396 0.43995 0.49496 1.2099 3.9046 1.8148-0.27498 1.8698-3.0797 0.16498-0.43995-1.7598s0.055-1.4299-0.65994-1.4848c-0.71493-0.055-1.7598 0.055-1.9798 0.055-0.21998 0-2.6802 0.26517-2.7902-0.01-0.10998-0.27498 1.0854-2.3 1.0854-2.3z" fill="#704d25" stroke="#141414" stroke-width=".43554px"/>
</g>
<g transform="matrix(.17077 .022637 -.022428 .16919 -83.48 568.61)">
<g transform="matrix(2.6069 -1.4106 1.4106 2.6069 -1898.8 790.28)" fill="#55d400" fill-rule="evenodd" stroke-width="3">
<path d="m713.92 106.31c-12.439-2.7951-14.853 12.412-13.806 21.256-5.7953 11.033-15.447-5.9597-22.235 1.3598-4.5762 7.7959-4.6904 18.17-0.72907 26.288 3.8266 13.902-14.631 5.3358-20.279 11.766-3.8816 3.7941-2.551 19.147 5.7457 24.806 7.5785 3.2683 12.455 14.158 20.932 22.106 8.6951 4.6183-0.33444 10.382-6.9664 9.1818-9.0922-0.85458-9.0978 16.144-2.3936 20.585 7.6535 8.0109 15.911 15.875 26.423 19.9 7.9827 10.482-16.378 0.84257-11.768 13.297 1.8915 10.446 11.647 9.9127 14.885 20.846-2.8091 10.182 11.436 8.3494 6.7188 19.93-3.3353 9.3932 9.0492 6.707 11.065 0.52458l-1.9621 22.625 4.8005-0.88967c1.1807-5.2444-5.4426-24.365 4.9051-22.54 8.3881 9.5736 16.706-8.525 15.962-16.34-2.963-3.9048-8.4578-7.4101-1.3584-11.576 7.5064-4.0283 7.639-15.456-2.5589-14.483-11.229-3.0916-1.056-11.461 5.3282-12.847 4.4552-7.9519 12.319-13.69 17.008-21.601 6.786-11.726-7.0746-17.223-16.526-13.826-11.66 1.4791 2.603-17.569 7.993-20.689 11.383-7.5164 19.181-21.007 17.588-34.844 3.3805-14.408-15.315-5.6229-22.013-9.9117-1.2148-8.7128 7.1312-17.367 4.607-26.854-1.8732-5.4514-5.1478-15.877-15.408-10.377-5.7028 6.4972-12.465 4.1693-12.734-4.512-2.4696-5.6397-6.336-12.641-13.223-13.182z" fill="#078930" stroke="#000"/>
<path d="m723.19 269.85c11.373-11.786 25.448-20.195 32.436-37.462" fill="#044b1a" stroke="#044b1a"/>
<path d="m721.82 259.8c-15.228-9.1096-30.457-11.486-45.685-29.238" fill="#044b1a" stroke="#044b1a"/>
<g stroke="#044b1a">
<path d="m722.28 317.36 0.45685-49.796-7.3096-67.157 0.45685-44.771-5.0253-44.771" fill="#044b1a"/>
<path d="m743.29 280.82c-4.3708 1.0206-8.4524 9.0615-20.101 15.533-9.0396-7.4694-21.361-13.464-27.868-21.472v-0.91369" fill="#08a339"/>
<path d="m717.25 221.43c20.962-13.759 36.834-46.312 47.969-52.081" fill="#044b1a"/>
<path d="m715.88 207.72c-27.793-8.775-44.004-30.382-52.538-34.72" fill="#044b1a"/>
<path d="m714.97 170.72c18.331-9.9808 25.064-29.614 32.436-39.289" fill="#044b1a"/>
<path d="m715.42 164.32c-13.318-9.9828-31.309-19.498-33.35-30.609" fill="#044b1a"/>
</g>
</g>
</g>
<g transform="matrix(.067197 .15862 -.15715 .066575 60.249 568.2)">
<g transform="matrix(2.6069 -1.4106 1.4106 2.6069 -1898.8 790.28)" fill="#55d400" fill-rule="evenodd" stroke-width="3">
<path d="m713.92 106.31c-12.439-2.7951-14.853 12.412-13.806 21.256-5.7953 11.033-15.447-5.9597-22.235 1.3598-4.5762 7.7959-4.6904 18.17-0.72907 26.288 3.8266 13.902-14.631 5.3358-20.279 11.766-3.8816 3.7941-2.551 19.147 5.7457 24.806 7.5785 3.2683 12.455 14.158 20.932 22.106 8.6951 4.6183-0.33444 10.382-6.9664 9.1818-9.0922-0.85458-9.0978 16.144-2.3936 20.585 7.6535 8.0109 15.911 15.875 26.423 19.9 7.9827 10.482-16.378 0.84257-11.768 13.297 1.8915 10.446 11.647 9.9127 14.885 20.846-2.8091 10.182 11.436 8.3494 6.7188 19.93-3.3353 9.3932 9.0492 6.707 11.065 0.52458l-1.9621 22.625 4.8005-0.88967c1.1807-5.2444-5.4426-24.365 4.9051-22.54 8.3881 9.5736 16.706-8.525 15.962-16.34-2.963-3.9048-8.4578-7.4101-1.3584-11.576 7.5064-4.0283 7.639-15.456-2.5589-14.483-11.229-3.0916-1.056-11.461 5.3282-12.847 4.4552-7.9519 12.319-13.69 17.008-21.601 6.786-11.726-7.0746-17.223-16.526-13.826-11.66 1.4791 2.603-17.569 7.993-20.689 11.383-7.5164 19.181-21.007 17.588-34.844 3.3805-14.408-15.315-5.6229-22.013-9.9117-1.2148-8.7128 7.1312-17.367 4.607-26.854-1.8732-5.4514-5.1478-15.877-15.408-10.377-5.7028 6.4972-12.465 4.1693-12.734-4.512-2.4696-5.6397-6.336-12.641-13.223-13.182z" fill="#078930" stroke="#000"/>
<path d="m723.19 269.85c11.373-11.786 25.448-20.195 32.436-37.462" fill="#044b1a" stroke="#044b1a"/>
<path d="m721.82 259.8c-15.228-9.1096-30.457-11.486-45.685-29.238" fill="#044b1a" stroke="#044b1a"/>
<g stroke="#044b1a">
<path d="m722.28 317.36 0.45685-49.796-7.3096-67.157 0.45685-44.771-5.0253-44.771" fill="#044b1a"/>
<path d="m743.29 280.82c-4.3708 1.0206-8.4524 9.0615-20.101 15.533-9.0396-7.4694-21.361-13.464-27.868-21.472v-0.91369" fill="#08a339"/>
<path d="m717.25 221.43c20.962-13.759 36.834-46.312 47.969-52.081" fill="#044b1a"/>
<path d="m715.88 207.72c-27.793-8.775-44.004-30.382-52.538-34.72" fill="#044b1a"/>
<path d="m714.97 170.72c18.331-9.9808 25.064-29.614 32.436-39.289" fill="#044b1a"/>
<path d="m715.42 164.32c-13.318-9.9828-31.309-19.498-33.35-30.609" fill="#044b1a"/>
</g>
</g>
</g>
<g transform="matrix(.073425 .067413 -.066789 .072745 88.487 557.39)">
<g transform="matrix(2.6069 -1.4106 1.4106 2.6069 -1898.8 790.28)" fill="#55d400" fill-rule="evenodd" stroke-width="3">
<path d="m713.92 106.31c-12.439-2.7951-14.853 12.412-13.806 21.256-5.7953 11.033-15.447-5.9597-22.235 1.3598-4.5762 7.7959-4.6904 18.17-0.72907 26.288 3.8266 13.902-14.631 5.3358-20.279 11.766-3.8816 3.7941-2.551 19.147 5.7457 24.806 7.5785 3.2683 12.455 14.158 20.932 22.106 8.6951 4.6183-0.33444 10.382-6.9664 9.1818-9.0922-0.85458-9.0978 16.144-2.3936 20.585 7.6535 8.0109 15.911 15.875 26.423 19.9 7.9827 10.482-16.378 0.84257-11.768 13.297 1.8915 10.446 11.647 9.9127 14.885 20.846-2.8091 10.182 11.436 8.3494 6.7188 19.93-3.3353 9.3932 9.0492 6.707 11.065 0.52458l-1.9621 22.625 4.8005-0.88967c1.1807-5.2444-5.4426-24.365 4.9051-22.54 8.3881 9.5736 16.706-8.525 15.962-16.34-2.963-3.9048-8.4578-7.4101-1.3584-11.576 7.5064-4.0283 7.639-15.456-2.5589-14.483-11.229-3.0916-1.056-11.461 5.3282-12.847 4.4552-7.9519 12.319-13.69 17.008-21.601 6.786-11.726-7.0746-17.223-16.526-13.826-11.66 1.4791 2.603-17.569 7.993-20.689 11.383-7.5164 19.181-21.007 17.588-34.844 3.3805-14.408-15.315-5.6229-22.013-9.9117-1.2148-8.7128 7.1312-17.367 4.607-26.854-1.8732-5.4514-5.1478-15.877-15.408-10.377-5.7028 6.4972-12.465 4.1693-12.734-4.512-2.4696-5.6397-6.336-12.641-13.223-13.182z" fill="#078930" stroke="#000"/>
<path d="m723.19 269.85c11.373-11.786 25.448-20.195 32.436-37.462" fill="#044b1a" stroke="#044b1a"/>
<path d="m721.82 259.8c-15.228-9.1096-30.457-11.486-45.685-29.238" fill="#044b1a" stroke="#044b1a"/>
<g stroke="#044b1a">
<path d="m722.28 317.36 0.45685-49.796-7.3096-67.157 0.45685-44.771-5.0253-44.771" fill="#044b1a"/>
<path d="m743.29 280.82c-4.3708 1.0206-8.4524 9.0615-20.101 15.533-9.0396-7.4694-21.361-13.464-27.868-21.472v-0.91369" fill="#08a339"/>
<path d="m717.25 221.43c20.962-13.759 36.834-46.312 47.969-52.081" fill="#044b1a"/>
<path d="m715.88 207.72c-27.793-8.775-44.004-30.382-52.538-34.72" fill="#044b1a"/>
<path d="m714.97 170.72c18.331-9.9808 25.064-29.614 32.436-39.289" fill="#044b1a"/>
<path d="m715.42 164.32c-13.318-9.9828-31.309-19.498-33.35-30.609" fill="#044b1a"/>
</g>
</g>
</g>
<g transform="matrix(.024428 .11586 -.11479 .024202 169.88 554.4)">
<g transform="matrix(2.6069 -1.4106 1.4106 2.6069 -1898.8 790.28)" fill="#55d400" fill-rule="evenodd" stroke-width="3">
<path d="m713.92 106.31c-12.439-2.7951-14.853 12.412-13.806 21.256-5.7953 11.033-15.447-5.9597-22.235 1.3598-4.5762 7.7959-4.6904 18.17-0.72907 26.288 3.8266 13.902-14.631 5.3358-20.279 11.766-3.8816 3.7941-2.551 19.147 5.7457 24.806 7.5785 3.2683 12.455 14.158 20.932 22.106 8.6951 4.6183-0.33444 10.382-6.9664 9.1818-9.0922-0.85458-9.0978 16.144-2.3936 20.585 7.6535 8.0109 15.911 15.875 26.423 19.9 7.9827 10.482-16.378 0.84257-11.768 13.297 1.8915 10.446 11.647 9.9127 14.885 20.846-2.8091 10.182 11.436 8.3494 6.7188 19.93-3.3353 9.3932 9.0492 6.707 11.065 0.52458l-1.9621 22.625 4.8005-0.88967c1.1807-5.2444-5.4426-24.365 4.9051-22.54 8.3881 9.5736 16.706-8.525 15.962-16.34-2.963-3.9048-8.4578-7.4101-1.3584-11.576 7.5064-4.0283 7.639-15.456-2.5589-14.483-11.229-3.0916-1.056-11.461 5.3282-12.847 4.4552-7.9519 12.319-13.69 17.008-21.601 6.786-11.726-7.0746-17.223-16.526-13.826-11.66 1.4791 2.603-17.569 7.993-20.689 11.383-7.5164 19.181-21.007 17.588-34.844 3.3805-14.408-15.315-5.6229-22.013-9.9117-1.2148-8.7128 7.1312-17.367 4.607-26.854-1.8732-5.4514-5.1478-15.877-15.408-10.377-5.7028 6.4972-12.465 4.1693-12.734-4.512-2.4696-5.6397-6.336-12.641-13.223-13.182z" fill="#078930" stroke="#000"/>
<path d="m723.19 269.85c11.373-11.786 25.448-20.195 32.436-37.462" fill="#044b1a" stroke="#044b1a"/>
<path d="m721.82 259.8c-15.228-9.1096-30.457-11.486-45.685-29.238" fill="#044b1a" stroke="#044b1a"/>
<g stroke="#044b1a">
<path d="m722.28 317.36 0.45685-49.796-7.3096-67.157 0.45685-44.771-5.0253-44.771" fill="#044b1a"/>
<path d="m743.29 280.82c-4.3708 1.0206-8.4524 9.0615-20.101 15.533-9.0396-7.4694-21.361-13.464-27.868-21.472v-0.91369" fill="#08a339"/>
<path d="m717.25 221.43c20.962-13.759 36.834-46.312 47.969-52.081" fill="#044b1a"/>
<path d="m715.88 207.72c-27.793-8.775-44.004-30.382-52.538-34.72" fill="#044b1a"/>
<path d="m714.97 170.72c18.331-9.9808 25.064-29.614 32.436-39.289" fill="#044b1a"/>
<path d="m715.42 164.32c-13.318-9.9828-31.309-19.498-33.35-30.609" fill="#044b1a"/>
</g>
</g>
</g>
<g transform="matrix(-.085146 .0047293 -.0046855 -.084358 155.92 693.33)">
<g transform="matrix(2.6069 -1.4106 1.4106 2.6069 -1898.8 790.28)" fill="#55d400" fill-rule="evenodd" stroke-width="3">
<path d="m713.92 106.31c-12.439-2.7951-14.853 12.412-13.806 21.256-5.7953 11.033-15.447-5.9597-22.235 1.3598-4.5762 7.7959-4.6904 18.17-0.72907 26.288 3.8266 13.902-14.631 5.3358-20.279 11.766-3.8816 3.7941-2.551 19.147 5.7457 24.806 7.5785 3.2683 12.455 14.158 20.932 22.106 8.6951 4.6183-0.33444 10.382-6.9664 9.1818-9.0922-0.85458-9.0978 16.144-2.3936 20.585 7.6535 8.0109 15.911 15.875 26.423 19.9 7.9827 10.482-16.378 0.84257-11.768 13.297 1.8915 10.446 11.647 9.9127 14.885 20.846-2.8091 10.182 11.436 8.3494 6.7188 19.93-3.3353 9.3932 9.0492 6.707 11.065 0.52458l-1.9621 22.625 4.8005-0.88967c1.1807-5.2444-5.4426-24.365 4.9051-22.54 8.3881 9.5736 16.706-8.525 15.962-16.34-2.963-3.9048-8.4578-7.4101-1.3584-11.576 7.5064-4.0283 7.639-15.456-2.5589-14.483-11.229-3.0916-1.056-11.461 5.3282-12.847 4.4552-7.9519 12.319-13.69 17.008-21.601 6.786-11.726-7.0746-17.223-16.526-13.826-11.66 1.4791 2.603-17.569 7.993-20.689 11.383-7.5164 19.181-21.007 17.588-34.844 3.3805-14.408-15.315-5.6229-22.013-9.9117-1.2148-8.7128 7.1312-17.367 4.607-26.854-1.8732-5.4514-5.1478-15.877-15.408-10.377-5.7028 6.4972-12.465 4.1693-12.734-4.512-2.4696-5.6397-6.336-12.641-13.223-13.182z" fill="#078930" stroke="#000"/>
<path d="m723.19 269.85c11.373-11.786 25.448-20.195 32.436-37.462" fill="#044b1a" stroke="#044b1a"/>
<path d="m721.82 259.8c-15.228-9.1096-30.457-11.486-45.685-29.238" fill="#044b1a" stroke="#044b1a"/>
<g stroke="#044b1a">
<path d="m722.28 317.36 0.45685-49.796-7.3096-67.157 0.45685-44.771-5.0253-44.771" fill="#044b1a"/>
<path d="m743.29 280.82c-4.3708 1.0206-8.4524 9.0615-20.101 15.533-9.0396-7.4694-21.361-13.464-27.868-21.472v-0.91369" fill="#08a339"/>
<path d="m717.25 221.43c20.962-13.759 36.834-46.312 47.969-52.081" fill="#044b1a"/>
<path d="m715.88 207.72c-27.793-8.775-44.004-30.382-52.538-34.72" fill="#044b1a"/>
<path d="m714.97 170.72c18.331-9.9808 25.064-29.614 32.436-39.289" fill="#044b1a"/>
<path d="m715.42 164.32c-13.318-9.9828-31.309-19.498-33.35-30.609" fill="#044b1a"/>
</g>
</g>
</g>
<g transform="matrix(.029967 .079838 -.0791 .02969 176.34 672.28)">
<g transform="matrix(2.6069 -1.4106 1.4106 2.6069 -1898.8 790.28)" fill="#55d400" fill-rule="evenodd" stroke-width="3">
<path d="m713.92 106.31c-12.439-2.7951-14.853 12.412-13.806 21.256-5.7953 11.033-15.447-5.9597-22.235 1.3598-4.5762 7.7959-4.6904 18.17-0.72907 26.288 3.8266 13.902-14.631 5.3358-20.279 11.766-3.8816 3.7941-2.551 19.147 5.7457 24.806 7.5785 3.2683 12.455 14.158 20.932 22.106 8.6951 4.6183-0.33444 10.382-6.9664 9.1818-9.0922-0.85458-9.0978 16.144-2.3936 20.585 7.6535 8.0109 15.911 15.875 26.423 19.9 7.9827 10.482-16.378 0.84257-11.768 13.297 1.8915 10.446 11.647 9.9127 14.885 20.846-2.8091 10.182 11.436 8.3494 6.7188 19.93-3.3353 9.3932 9.0492 6.707 11.065 0.52458l-1.9621 22.625 4.8005-0.88967c1.1807-5.2444-5.4426-24.365 4.9051-22.54 8.3881 9.5736 16.706-8.525 15.962-16.34-2.963-3.9048-8.4578-7.4101-1.3584-11.576 7.5064-4.0283 7.639-15.456-2.5589-14.483-11.229-3.0916-1.056-11.461 5.3282-12.847 4.4552-7.9519 12.319-13.69 17.008-21.601 6.786-11.726-7.0746-17.223-16.526-13.826-11.66 1.4791 2.603-17.569 7.993-20.689 11.383-7.5164 19.181-21.007 17.588-34.844 3.3805-14.408-15.315-5.6229-22.013-9.9117-1.2148-8.7128 7.1312-17.367 4.607-26.854-1.8732-5.4514-5.1478-15.877-15.408-10.377-5.7028 6.4972-12.465 4.1693-12.734-4.512-2.4696-5.6397-6.336-12.641-13.223-13.182z" fill="#078930" stroke="#000"/>
<path d="m723.19 269.85c11.373-11.786 25.448-20.195 32.436-37.462" fill="#044b1a" stroke="#044b1a"/>
<path d="m721.82 259.8c-15.228-9.1096-30.457-11.486-45.685-29.238" fill="#044b1a" stroke="#044b1a"/>
<g stroke="#044b1a">
<path d="m722.28 317.36 0.45685-49.796-7.3096-67.157 0.45685-44.771-5.0253-44.771" fill="#044b1a"/>
<path d="m743.29 280.82c-4.3708 1.0206-8.4524 9.0615-20.101 15.533-9.0396-7.4694-21.361-13.464-27.868-21.472v-0.91369" fill="#08a339"/>
<path d="m717.25 221.43c20.962-13.759 36.834-46.312 47.969-52.081" fill="#044b1a"/>
<path d="m715.88 207.72c-27.793-8.775-44.004-30.382-52.538-34.72" fill="#044b1a"/>
<path d="m714.97 170.72c18.331-9.9808 25.064-29.614 32.436-39.289" fill="#044b1a"/>
<path d="m715.42 164.32c-13.318-9.9828-31.309-19.498-33.35-30.609" fill="#044b1a"/>
</g>
</g>
</g>
<g transform="matrix(-.079838 .029967 -.02969 -.0791 227.58 801.59)">
<g transform="matrix(2.6069 -1.4106 1.4106 2.6069 -1898.8 790.28)" fill="#55d400" fill-rule="evenodd" stroke-width="3">
<path d="m713.92 106.31c-12.439-2.7951-14.853 12.412-13.806 21.256-5.7953 11.033-15.447-5.9597-22.235 1.3598-4.5762 7.7959-4.6904 18.17-0.72907 26.288 3.8266 13.902-14.631 5.3358-20.279 11.766-3.8816 3.7941-2.551 19.147 5.7457 24.806 7.5785 3.2683 12.455 14.158 20.932 22.106 8.6951 4.6183-0.33444 10.382-6.9664 9.1818-9.0922-0.85458-9.0978 16.144-2.3936 20.585 7.6535 8.0109 15.911 15.875 26.423 19.9 7.9827 10.482-16.378 0.84257-11.768 13.297 1.8915 10.446 11.647 9.9127 14.885 20.846-2.8091 10.182 11.436 8.3494 6.7188 19.93-3.3353 9.3932 9.0492 6.707 11.065 0.52458l-1.9621 22.625 4.8005-0.88967c1.1807-5.2444-5.4426-24.365 4.9051-22.54 8.3881 9.5736 16.706-8.525 15.962-16.34-2.963-3.9048-8.4578-7.4101-1.3584-11.576 7.5064-4.0283 7.639-15.456-2.5589-14.483-11.229-3.0916-1.056-11.461 5.3282-12.847 4.4552-7.9519 12.319-13.69 17.008-21.601 6.786-11.726-7.0746-17.223-16.526-13.826-11.66 1.4791 2.603-17.569 7.993-20.689 11.383-7.5164 19.181-21.007 17.588-34.844 3.3805-14.408-15.315-5.6229-22.013-9.9117-1.2148-8.7128 7.1312-17.367 4.607-26.854-1.8732-5.4514-5.1478-15.877-15.408-10.377-5.7028 6.4972-12.465 4.1693-12.734-4.512-2.4696-5.6397-6.336-12.641-13.223-13.182z" fill="#078930" stroke="#000"/>
<path d="m723.19 269.85c11.373-11.786 25.448-20.195 32.436-37.462" fill="#044b1a" stroke="#044b1a"/>
<path d="m721.82 259.8c-15.228-9.1096-30.457-11.486-45.685-29.238" fill="#044b1a" stroke="#044b1a"/>
<g stroke="#044b1a">
<path d="m722.28 317.36 0.45685-49.796-7.3096-67.157 0.45685-44.771-5.0253-44.771" fill="#044b1a"/>
<path d="m743.29 280.82c-4.3708 1.0206-8.4524 9.0615-20.101 15.533-9.0396-7.4694-21.361-13.464-27.868-21.472v-0.91369" fill="#08a339"/>
<path d="m717.25 221.43c20.962-13.759 36.834-46.312 47.969-52.081" fill="#044b1a"/>
<path d="m715.88 207.72c-27.793-8.775-44.004-30.382-52.538-34.72" fill="#044b1a"/>
<path d="m714.97 170.72c18.331-9.9808 25.064-29.614 32.436-39.289" fill="#044b1a"/>
<path d="m715.42 164.32c-13.318-9.9828-31.309-19.498-33.35-30.609" fill="#044b1a"/>
</g>
</g>
</g>
</g>
</g>
</g>
</g>
</g>
</g>
</svg>
