<?xml version="1.0" encoding="utf-8"?>
<!-- Generator: Adobe Illustrator 12.0.0, SVG Export Plug-In . SVG Version: 6.00 Build 51448)  -->
<!DOCTYPE svg PUBLIC "-//W3C//DTD SVG 1.1//EN" "http://www.w3.org/Graphics/SVG/1.1/DTD/svg11.dtd" [
	<!ENTITY ns_svg "http://www.w3.org/2000/svg">
	<!ENTITY ns_xlink "http://www.w3.org/1999/xlink">
]>
<svg  version="1.1" id="Layer_1" xmlns="&ns_svg;" xmlns:xlink="&ns_xlink;" width="790" height="521.398"
	 viewBox="0 0 790 521.398" overflow="visible" enable-background="new 0 0 790 521.398" xml:space="preserve">
<g>
	<rect width="790" height="304.152"/>
	<rect y="304.152" fill="#D50000" width="790" height="217.246"/>
	<rect y="260.699" fill="#FFD525" width="790" height="86.896"/>
	<g>
		<polygon fill="#FFD525" points="111.985,45.424 74.557,211.324 225.645,211.324 188.216,45.424 		"/>
		<path d="M189.796,43.448h-3.159h-73.072h-3.159l-0.694,3.08L73.17,208.478l-1.086,4.822h4.939h146.149h4.944l-1.091-4.822
			L190.49,46.528L189.796,43.448L189.796,43.448z M77.023,209.349l36.541-161.949h73.072l36.536,161.949l0,0l0,0H77.023
			L77.023,209.349L77.023,209.349L77.023,209.349z"/>
	</g>
	<line fill="none" stroke="#000000" stroke-width="3.95" x1="92.823" y1="128.374" x2="207.373" y2="128.374"/>
	<line fill="none" stroke="#000000" stroke-width="3.95" x1="90.849" y1="140.223" x2="209.349" y2="140.223"/>
	<line fill="none" stroke="#000000" stroke-width="3.95" x1="88.877" y1="152.076" x2="211.324" y2="152.076"/>
	<line fill="none" stroke="#000000" stroke-width="3.95" x1="84.926" y1="163.925" x2="215.275" y2="163.925"/>
	<line fill="none" stroke="#000000" stroke-width="3.95" x1="82.95" y1="175.773" x2="217.251" y2="175.773"/>
	<line fill="none" stroke="#000000" stroke-width="3.95" x1="80.975" y1="187.622" x2="219.227" y2="187.622"/>
	<line fill="none" stroke="#000000" stroke-width="3.95" x1="77.023" y1="199.476" x2="223.173" y2="199.476"/>
	<line fill="none" stroke="#000000" stroke-width="3.95" x1="96.774" y1="116.525" x2="203.427" y2="116.525"/>
	<line fill="none" stroke="#000000" stroke-width="3.95" x1="98.75" y1="104.672" x2="201.451" y2="104.672"/>
	<line fill="none" stroke="#000000" stroke-width="3.95" x1="100.726" y1="92.823" x2="199.476" y2="92.823"/>
	<line fill="none" stroke="#000000" stroke-width="3.95" x1="104.677" y1="80.975" x2="195.524" y2="80.975"/>
	<line fill="none" stroke="#000000" stroke-width="3.95" x1="106.652" y1="69.126" x2="193.549" y2="69.126"/>
	<line fill="none" stroke="#000000" stroke-width="3.95" x1="108.623" y1="57.272" x2="191.573" y2="57.272"/>
	<line fill="none" stroke="#000000" stroke-width="3.95" x1="80.975" y1="199.476" x2="80.975" y2="211.324"/>
	<line fill="none" stroke="#000000" stroke-width="3.95" x1="219.227" y1="199.476" x2="219.227" y2="211.324"/>
	<line fill="none" stroke="#000000" stroke-width="3.95" x1="199.476" y1="199.476" x2="199.476" y2="211.324"/>
	<line fill="none" stroke="#000000" stroke-width="3.95" x1="179.725" y1="199.476" x2="179.725" y2="211.324"/>
	<line fill="none" stroke="#000000" stroke-width="3.95" x1="159.974" y1="199.476" x2="159.974" y2="211.324"/>
	<line fill="none" stroke="#000000" stroke-width="3.95" x1="140.223" y1="199.476" x2="140.223" y2="211.324"/>
	<line fill="none" stroke="#000000" stroke-width="3.95" x1="120.477" y1="199.476" x2="120.477" y2="211.324"/>
	<line fill="none" stroke="#000000" stroke-width="3.95" x1="100.726" y1="199.476" x2="100.726" y2="211.324"/>
	<line fill="none" stroke="#000000" stroke-width="3.95" x1="199.476" y1="175.773" x2="199.476" y2="187.622"/>
	<line fill="none" stroke="#000000" stroke-width="3.95" x1="179.725" y1="175.773" x2="179.725" y2="187.622"/>
	<line fill="none" stroke="#000000" stroke-width="3.95" x1="159.974" y1="175.773" x2="159.974" y2="187.622"/>
	<line fill="none" stroke="#000000" stroke-width="3.95" x1="140.223" y1="175.773" x2="140.223" y2="187.622"/>
	<line fill="none" stroke="#000000" stroke-width="3.95" x1="120.477" y1="175.773" x2="120.477" y2="187.622"/>
	<line fill="none" stroke="#000000" stroke-width="3.95" x1="100.726" y1="175.773" x2="100.726" y2="187.622"/>
	<line fill="none" stroke="#000000" stroke-width="3.95" x1="189.598" y1="187.622" x2="189.598" y2="199.476"/>
	<line fill="none" stroke="#000000" stroke-width="3.95" x1="209.349" y1="187.622" x2="209.349" y2="199.476"/>
	<line fill="none" stroke="#000000" stroke-width="3.95" x1="169.852" y1="187.622" x2="169.852" y2="199.476"/>
	<line fill="none" stroke="#000000" stroke-width="3.95" x1="150.101" y1="187.622" x2="150.101" y2="199.476"/>
	<line fill="none" stroke="#000000" stroke-width="3.95" x1="130.35" y1="187.622" x2="130.35" y2="199.476"/>
	<line fill="none" stroke="#000000" stroke-width="3.95" x1="110.599" y1="187.622" x2="110.599" y2="199.476"/>
	<line fill="none" stroke="#000000" stroke-width="3.95" x1="90.849" y1="187.622" x2="90.849" y2="199.476"/>
	<line fill="none" stroke="#000000" stroke-width="3.95" x1="189.598" y1="163.925" x2="189.598" y2="175.773"/>
	<line fill="none" stroke="#000000" stroke-width="3.95" x1="209.349" y1="163.925" x2="209.349" y2="175.773"/>
	<line fill="none" stroke="#000000" stroke-width="3.95" x1="169.852" y1="163.925" x2="169.852" y2="175.773"/>
	<line fill="none" stroke="#000000" stroke-width="3.95" x1="150.101" y1="163.925" x2="150.101" y2="175.773"/>
	<line fill="none" stroke="#000000" stroke-width="3.95" x1="130.35" y1="163.925" x2="130.35" y2="175.773"/>
	<line fill="none" stroke="#000000" stroke-width="3.95" x1="110.599" y1="163.925" x2="110.599" y2="175.773"/>
	<line fill="none" stroke="#000000" stroke-width="3.95" x1="90.849" y1="163.925" x2="90.849" y2="175.773"/>
	<line fill="none" stroke="#000000" stroke-width="3.95" x1="199.476" y1="152.076" x2="199.476" y2="163.925"/>
	<line fill="none" stroke="#000000" stroke-width="3.95" x1="179.725" y1="152.076" x2="179.725" y2="163.925"/>
	<line fill="none" stroke="#000000" stroke-width="3.95" x1="159.974" y1="152.076" x2="159.974" y2="163.925"/>
	<line fill="none" stroke="#000000" stroke-width="3.95" x1="140.223" y1="152.076" x2="140.223" y2="163.925"/>
	<line fill="none" stroke="#000000" stroke-width="3.95" x1="120.477" y1="152.076" x2="120.477" y2="163.925"/>
	<line fill="none" stroke="#000000" stroke-width="3.95" x1="100.726" y1="152.076" x2="100.726" y2="163.925"/>
	<line fill="none" stroke="#000000" stroke-width="3.95" x1="199.476" y1="128.374" x2="199.476" y2="140.223"/>
	<line fill="none" stroke="#000000" stroke-width="3.95" x1="179.725" y1="128.374" x2="179.725" y2="140.223"/>
	<line fill="none" stroke="#000000" stroke-width="3.95" x1="159.974" y1="128.374" x2="159.974" y2="140.223"/>
	<line fill="none" stroke="#000000" stroke-width="3.95" x1="140.223" y1="128.374" x2="140.223" y2="140.223"/>
	<line fill="none" stroke="#000000" stroke-width="3.95" x1="120.477" y1="128.374" x2="120.477" y2="140.223"/>
	<line fill="none" stroke="#000000" stroke-width="3.95" x1="100.726" y1="128.374" x2="100.726" y2="140.223"/>
	<line fill="none" stroke="#000000" stroke-width="3.95" x1="189.598" y1="116.525" x2="189.598" y2="128.374"/>
	<line fill="none" stroke="#000000" stroke-width="3.95" x1="169.852" y1="116.525" x2="169.852" y2="128.374"/>
	<line fill="none" stroke="#000000" stroke-width="3.95" x1="150.101" y1="116.525" x2="150.101" y2="128.374"/>
	<line fill="none" stroke="#000000" stroke-width="3.95" x1="130.35" y1="116.525" x2="130.35" y2="128.374"/>
	<line fill="none" stroke="#000000" stroke-width="3.95" x1="110.599" y1="116.525" x2="110.599" y2="128.374"/>
	<line fill="none" stroke="#000000" stroke-width="3.95" x1="189.598" y1="92.823" x2="189.598" y2="104.672"/>
	<line fill="none" stroke="#000000" stroke-width="3.95" x1="169.852" y1="92.823" x2="169.852" y2="104.672"/>
	<line fill="none" stroke="#000000" stroke-width="3.95" x1="150.101" y1="92.823" x2="150.101" y2="104.672"/>
	<line fill="none" stroke="#000000" stroke-width="3.95" x1="130.35" y1="92.823" x2="130.35" y2="104.672"/>
	<line fill="none" stroke="#000000" stroke-width="3.95" x1="110.599" y1="92.823" x2="110.599" y2="104.672"/>
	<line fill="none" stroke="#000000" stroke-width="3.95" x1="189.598" y1="69.126" x2="189.598" y2="80.975"/>
	<line fill="none" stroke="#000000" stroke-width="3.95" x1="169.852" y1="69.126" x2="169.852" y2="80.975"/>
	<line fill="none" stroke="#000000" stroke-width="3.95" x1="150.101" y1="69.126" x2="150.101" y2="80.975"/>
	<line fill="none" stroke="#000000" stroke-width="3.95" x1="130.35" y1="69.126" x2="130.35" y2="80.975"/>
	<line fill="none" stroke="#000000" stroke-width="3.95" x1="169.852" y1="45.424" x2="169.852" y2="57.272"/>
	<line fill="none" stroke="#000000" stroke-width="3.95" x1="150.101" y1="45.424" x2="150.101" y2="57.272"/>
	<line fill="none" stroke="#000000" stroke-width="3.95" x1="130.35" y1="45.424" x2="130.35" y2="57.272"/>
	<line fill="none" stroke="#000000" stroke-width="3.95" x1="110.599" y1="69.126" x2="110.599" y2="80.975"/>
	<line fill="none" stroke="#000000" stroke-width="3.95" x1="179.725" y1="104.672" x2="179.725" y2="116.525"/>
	<line fill="none" stroke="#000000" stroke-width="3.95" x1="159.974" y1="104.672" x2="159.974" y2="116.525"/>
	<line fill="none" stroke="#000000" stroke-width="3.95" x1="140.223" y1="104.672" x2="140.223" y2="116.525"/>
	<line fill="none" stroke="#000000" stroke-width="3.95" x1="120.477" y1="104.672" x2="120.477" y2="116.525"/>
	<line fill="none" stroke="#000000" stroke-width="3.95" x1="179.725" y1="80.975" x2="179.725" y2="92.823"/>
	<line fill="none" stroke="#000000" stroke-width="3.95" x1="159.974" y1="80.975" x2="159.974" y2="92.823"/>
	<line fill="none" stroke="#000000" stroke-width="3.95" x1="140.223" y1="80.975" x2="140.223" y2="92.823"/>
	<line fill="none" stroke="#000000" stroke-width="3.95" x1="120.477" y1="80.975" x2="120.477" y2="92.823"/>
	<line fill="none" stroke="#000000" stroke-width="3.95" x1="179.725" y1="57.272" x2="179.725" y2="69.126"/>
	<line fill="none" stroke="#000000" stroke-width="3.95" x1="159.974" y1="57.272" x2="159.974" y2="69.126"/>
	<line fill="none" stroke="#000000" stroke-width="3.95" x1="140.223" y1="57.272" x2="140.223" y2="69.126"/>
	<line fill="none" stroke="#000000" stroke-width="3.95" x1="120.477" y1="57.272" x2="120.477" y2="69.126"/>
	<line fill="none" stroke="#000000" stroke-width="3.95" x1="189.598" y1="140.223" x2="189.598" y2="152.076"/>
	<line fill="none" stroke="#000000" stroke-width="3.95" x1="169.852" y1="140.223" x2="169.852" y2="152.076"/>
	<line fill="none" stroke="#000000" stroke-width="3.95" x1="150.101" y1="140.223" x2="150.101" y2="152.076"/>
	<line fill="none" stroke="#000000" stroke-width="3.95" x1="130.35" y1="140.223" x2="130.35" y2="152.076"/>
	<line fill="none" stroke="#000000" stroke-width="3.95" x1="110.599" y1="140.223" x2="110.599" y2="152.076"/>
	<g>
		<polyline fill="#D50000" stroke="#000000" stroke-width="3.95" points="163.925,169.853 163.925,211.324 136.276,211.324 
			136.276,169.853 		"/>
		<path fill="#D50000" stroke="#000000" stroke-width="3.95" d="M136.276,169.852c0-7.64,6.19-13.829,13.824-13.829
			s13.824,6.189,13.824,13.829"/>
	</g>
	<rect x="126.398" y="67.15" fill="#D50000" stroke="#000000" stroke-width="3.95" width="15.8" height="27.648"/>
	<rect x="157.998" y="102.701" fill="#D50000" stroke="#000000" stroke-width="3.95" width="15.8" height="27.648"/>
</g>
</svg>
