<?xml version="1.0" encoding="utf-8"?>
<!-- Generator: Adobe Illustrator 14.0.0, SVG Export Plug-In  -->
<!DOCTYPE svg PUBLIC "-//W3C//DTD SVG 1.1//EN" "http://www.w3.org/Graphics/SVG/1.1/DTD/svg11.dtd" [
	<!ENTITY ns_flows "http://ns.adobe.com/Flows/1.0/">
]>
<svg version="1.1"
	 xmlns="http://www.w3.org/2000/svg" xmlns:xlink="http://www.w3.org/1999/xlink" xmlns:a="http://ns.adobe.com/AdobeSVGViewerExtensions/3.0/"
	 x="0px" y="0px" width="600px" height="400px" viewBox="0 0 600 400" enable-background="new 0 0 600 400" xml:space="preserve">
<defs>
</defs>
<rect fill="#0000CC" width="600" height="400"/>
<path fill="#FFFFFF" d="M587.143,198.47L297.69,390.252L12.857,201.531l0,0L302.311,9.748L587.143,198.47z M87.086,201.531
	L297.69,341.068L512.915,198.47L302.311,58.933L87.086,201.531L87.086,201.531z"/>
<path fill="#FFFFFF" d="M357.313,221.824c-4.169-24.129-23.188-43.157-47.313-47.338v47.338H357.313z"/>
<path fill="#FFFFFF" d="M300,289.975c28.711,0,52.548-20.801,57.303-48.151H242.697C247.453,269.174,271.289,289.975,300,289.975z"
	/>
<path fill="#FFFFFF" d="M290.001,174.486c-24.125,4.181-43.145,23.209-47.314,47.338h47.314V174.486z"/>
<path fill="#FFFFFF" d="M290.001,174.486c3.25-0.563,6.587-0.874,9.999-0.874c3.408,0,6.742,0.31,9.99,0.873v-23.181h21.987v-20
	H309.99v-21.278h-20v21.278h-21.408v20h21.408L290.001,174.486z"/>
</svg>
