<?xml version="1.0" encoding="utf-8"?>
<!-- Generator: Adobe Illustrator 14.0.0, SVG Export Plug-In  -->
<!DOCTYPE svg PUBLIC "-//W3C//DTD SVG 1.1//EN" "http://www.w3.org/Graphics/SVG/1.1/DTD/svg11.dtd" [
	<!ENTITY ns_flows "http://ns.adobe.com/Flows/1.0/">
]>
<svg version="1.1"
	 xmlns="http://www.w3.org/2000/svg" xmlns:xlink="http://www.w3.org/1999/xlink" xmlns:a="http://ns.adobe.com/AdobeSVGViewerExtensions/3.0/"
	 x="0px" y="0px" width="671px" height="440px" viewBox="17.516 16.114 671 440" enable-background="new 17.516 16.114 671 440"
	 xml:space="preserve">
<defs>
</defs>
<rect fill="#FFF400" width="706.221" height="469.412"/>
<rect x="17.516" y="16.114" fill="#FC6605" width="671.189" height="219.993"/>
<rect x="17.516" y="236.107" fill="#046204" width="671.189" height="219.993"/>
<polygon fill="#FFF400" points="0,1.838 368.937,235.753 0,470.377 "/>
<polygon fill="#FF0105" points="260.697,234.006 17.516,456.101 17.516,16.114 "/>
<polygon fill="#FCFCFC" points="129.781,264.127 108.23,252.768 87.513,265.581 90.667,239.843 72.945,222.303 96.446,217.755 
	106.211,194.1 117.58,217.027 141.338,219.948 124.864,238.666 "/>
<polygon fill="#FCFCFC" points="162.776,181.927 157.243,179.123 151.796,182.094 152.751,175.964 148.244,171.701 154.369,170.717 
	157.029,165.112 159.859,170.634 166.012,171.433 161.636,175.829 "/>
<polygon fill="#FCFCFC" points="189.399,229.568 183.866,226.766 178.419,229.734 179.375,223.605 174.867,219.343 180.992,218.358 
	183.653,212.755 186.483,218.275 192.635,219.074 188.259,223.471 "/>
<polygon fill="#FCFCFC" points="181.693,281.414 176.159,278.611 170.713,281.58 171.668,275.451 167.16,271.188 173.285,270.203 
	175.946,264.6 178.776,270.121 184.928,270.919 180.552,275.316 "/>
<polygon fill="#FCFCFC" points="145.961,315.044 140.428,312.24 134.981,315.21 135.937,309.081 131.429,304.818 137.554,303.833 
	140.215,298.229 143.044,303.75 149.197,304.549 144.821,308.946 "/>
<polygon fill="#FCFCFC" points="85.708,316.444 80.175,313.642 74.729,316.611 75.684,310.482 71.176,306.22 77.301,305.234 
	79.962,299.631 82.792,305.151 88.944,305.95 84.568,310.348 "/>
<polygon fill="#FCFCFC" points="44.372,282.815 38.839,280.012 33.392,282.981 34.348,276.853 29.84,272.59 35.965,271.604 
	38.625,266.001 41.456,271.521 47.607,272.32 43.231,276.718 "/>
<polygon fill="#FCFCFC" points="36.666,229.568 31.132,226.766 25.686,229.734 26.641,223.605 22.133,219.343 28.258,218.358 
	30.919,212.755 33.749,218.275 39.901,219.074 35.525,223.471 "/>
<polygon fill="#FCFCFC" points="63.289,181.927 57.755,179.123 52.309,182.093 53.264,175.964 48.756,171.701 54.881,170.717 
	57.542,165.112 60.372,170.634 66.524,171.433 62.148,175.829 "/>
<polygon fill="#FCFCFC" points="113.032,165.112 107.499,162.309 102.052,165.277 103.008,159.149 98.5,154.887 104.625,153.902 
	107.286,148.298 110.116,153.818 116.268,154.617 111.892,159.015 "/>
</svg>
