<?xml version="1.0" encoding="UTF-8"?>
<svg version="1.1" viewBox="0 0 2718.7 1642" xmlns="http://www.w3.org/2000/svg" xmlns:cc="http://creativecommons.org/ns#" xmlns:dc="http://purl.org/dc/elements/1.1/" xmlns:rdf="http://www.w3.org/1999/02/22-rdf-syntax-ns#">
<defs>
<radialGradient id="a" cx="351.25" cy="400.82" r="321.63" gradientTransform="matrix(1 0 0 1.1721 0 -68.997)" gradientUnits="userSpaceOnUse">
<stop stop-color="#f7c400" offset="0"/>
<stop stop-color="#efbc00" offset="1"/>
</radialGradient>
</defs>
<metadata>
<rdf:RDF>
<cc:Work rdf:about="">
<dc:format>image/svg+xml</dc:format>
<dc:type rdf:resource="http://purl.org/dc/dcmitype/StillImage"/>
<dc:title/>
</cc:Work>
</rdf:RDF>
</metadata>
<g transform="translate(179.29 347.64)">
<g transform="translate(285.71 51.429)">
<g transform="matrix(7.5745 0 0 7.5745 -1444.3 -2721.8)" fill-rule="evenodd">
<rect x="129.29" y="306.65" width="119.64" height="216.79" fill="#d40000"/>
<rect x="248.93" y="306.65" width="119.64" height="216.77" fill="#fff"/>
<rect x="368.57" y="306.65" width="119.64" height="216.79" fill="#fbe710"/>
</g>
</g>
<g transform="matrix(1.0907 0 0 1.0907 811.86 581.83)">
<path transform="translate(-13.481 -501.06)" d="m336.99 771.44-6.0323-5.497c0-1.6682 0.375-2.8364 0.375-4.5045-1.2042-0.83219-3.7371-2.9642-4.7952-3.597-1.3183-0.78751-2.7313-1.6892-3.1402-2.0038-5.3526-4.6598-2.3677-6.2418-0.53854-9.3218 4.5656 0.23446 4.5398-0.11882 11.528-0.3694 1.75 2.4746-2.9853-6.566-4.3268-9.5005-5.6258-12.306-12.768-26.003-26.933-46.939l-5.3744-7.9437c-1.1431 20.187-4.4573 49.577-22.665 60.419-1.6922 0.9578-3.0222 1.4958-4.7925 1.9384-1.2692 0.31731-1.7082 0.36145-3.6464 0.36602-1.6378 0-2.4949-0.0567-3.3386-0.23679-6.0589-1.2922-11.809-5.5785-17.837-13.297l-1.2109-1.5505-3.2628-1.4459c-22.777-10.094-48.414-20.317-59.485-23.721-3.8592-1.1867-5.3557-1.5188-12.061-2.6765-13.774-2.3782-39.64-7.2779-44.311-8.3936-2.4545-0.58621-8.8762-4.1983-13.989-7.8686-11.577-8.3106-19.925-19.002-22.651-29.01-0.97259-3.571-1.3391-6.993-1.0846-10.128 0.57413-7.0727 3.7719-11.075 9.1304-17.202 9.4347-10.802 20.257-13.743 30.915-9.6687 13.594 6.8876 26.179 22.103 26.89 30.958 9.5575-18.503 9.786-32.103 6.1041-44.171-2.4753-7.6127-6.6134-14.592-13.261-22.368-1.9352-2.2633-6.3928-6.8246-8.9494-9.1574l-1.8686-1.705-0.80226 0.724c-5.9883 5.4047-12.606 9.3142-19.855 11.729-3.3531 1.1174-6.2371 1.7823-9.9268 2.2888-2.1491 0.29514-8.0387 0.40917-10.377 0.201-9.7116-0.86475-19.11-4.5751-27.417-10.824-0.80794-0.60779-1.6493-1.1534-1.8696-1.2127-0.22035-0.0587-0.66072-0.17506-0.97859-0.25757-0.5714-0.14842-0.57712-0.15568-0.50332-0.64297 0.07167-0.47309 0.03877-0.52418-0.82426-1.2794-4.07-3.5613-7.735-7.5594-11.399-12.434-8.3299-11.084-15.337-25.344-21.001-42.737-0.99068-3.0423-1.0016-3.0915-1.2739-5.7395-0.44561-4.334-0.54049-6.3932-0.54153-11.752-9.93e-4 -3.92 0.05776-5.7432 0.25713-8.0127 1.6642-18.943 8.2333-34.929 22.88-55.678 3.0116-4.2665 8.0273-10.992 16.14-21.644 4.58-6.0129 9.8762-13.153 12.68-17.094 5.3461-7.5145 6.1927-8.8003 20.09-30.515 18.137-28.339 23.021-36.472 28.625-47.675 8.0539-16.1 11.731-28.704 12.448-42.668 0.15001-2.9229 0.0841-8.0511-0.12581-9.7892l-0.5856-3.7083c-1.6365 1.4227-4.8983 5.2201-6.5308 6.6474-1.1915 9.9038-2.7976 13.935-11.249 17.855-8.9581-2.834-18.007-7.0022-24.989-11.511-8.9539-5.782-16.082-12.715-21.669-21.076-7.7996-11.673-12.431-25.823-14.311-43.721-0.5445-5.1842-0.94425-12.421-0.94508-17.11v-2.4203l0.98451-1.3188c0.54148-0.72539 1.7885-2.1559 2.7711-3.1788 8.2168-7.5041 11.974-9.601 20.227-14.737 2.0492 2.0468 4.6287 3.5631 6.6779 5.6098l69.307-50.009 67.716-48.771 0.85895-1.6665c5.5599-10.787 14.877-21.657 26.5-30.917 9.328-7.432 20.5-14.184 32.451-19.611 4.4354-2.0142 7.2424-1.8195 8.7947-3.0957 7.5605 25.635 24.674 52.098 49.887 56.758 1.763 0.29415 4.8433 0.20627 6.555-0.18699 2.6036-0.59814 5.4877-1.6829 8.5624-3.2205 21.076-12.49 32.727-30.68 37.796-52.119 0.34147-1.4805 0.64089-2.504 0.73258-2.504 0.20982 0 6.4528 2.5645 8.8905 3.6521 8.3164 3.7103 16.311 8.028 23.256 12.561 16.088 12.176 27.705 24.09 36.28 39.937-2.3826 0.52126 32.43 22.376 69.633 49.23l68.758 49.632c2.0543-2.0494 3.755-3.215 5.8093-5.2644l2.4311 0.2027c5.5462 3.4823 7.7767 4.9995 11.485 7.8116 4.6914 3.5578 8.2598 6.9562 10.589 10.084l0.93016 1.2495-0.0905 3.6917c-0.46344 18.826-2.8612 32.734-7.7854 45.157-7.3137 18.452-20.598 32.2-39.9 41.292-6.1538 2.7729-9.8553 3.1965-15.637 5.1177-13.616-7.8005-5.918-6.487-10.41-17.493-3.3476-3.6861-4.7126-4.1494-6.6062-5.967-0.19586 0.33829-0.18559 11.764-0.0142 14.175 0.3668 5.1608 1.0095 9.5038 2.0949 14.156 3.3776 14.476 10.336 29.311 24.419 52.062 1.3799 2.2292 4.2953 6.8566 6.4788 10.283 17.65 31.456 39.61 59.7 60.974 87.747 11.698 17.754 17.206 32.209 18.833 49.423 0.11461 1.2119 0.24375 4.2768 0.28719 6.8108 0.0845 4.92-0.0328 7.8863-0.50679 12.82-0.27248 2.8379-0.28569 2.903-1.1457 5.6089-4.2527 13.382-9.8955 26-15.971 35.716-4.8753 7.7961-10.138 14.218-15.944 19.456-1.593 1.437-1.6222 1.4737-1.5046 1.8837 0.0656 0.23003 0.0965 0.44177 0.0676 0.4706-0.0288 0.0288-0.46344 0.15875-0.96585 0.28858-0.76714 0.19822-1.1917 0.43948-2.6495 1.5052-8.6798 6.3454-17.307 9.7272-27.208 10.666-2.484 0.2354-8.2947 0.0974-10.786-0.25628-9.1888-1.3043-17.586-4.8032-25.173-10.489-1.3647-1.0226-3.0841-2.4507-4.1402-3.4386l-0.82694-0.77359-0.98859 0.88284c-4.2743 3.8172-8.8302 8.5899-12.089 12.664-6.0644 7.582-10.093 15.325-11.987 23.038-3.9453 12.659-0.11736 28.775 6.9352 41.025 7.527-31.323 39.659-40.009 55.298-24.153 9.894 10.724 13.162 18.364 10.785 29.6-1.2121 4.5302-3.8248 9.7813-7.0433 14.156-3.6943 5.0211-8.6553 9.9507-14.309 14.218-5.271 3.9787-12.681 8.2604-15.392 8.8938-5.3096 1.2403-30.929 6.1077-43.167 8.2011-8.5701 1.466-9.4052 1.657-14.69 3.3602-11.744 3.7848-36.134 13.551-57.735 23.117l-3.5826 1.5867-1.0602 1.394c-4.2207 5.5497-8.8022 9.643-13.142 11.741-2.7421 1.3259-4.7319 1.8529-7.4117 1.9629-2.9452 0.12088-5.3207-0.41026-8.213-1.8361-2.074-1.0225-3.7394-2.2253-5.7198-4.1307-5.0886-4.8962-9.0511-11.391-12.699-20.814-3.6478-9.4225-4.6852-22.641-5.183-32.898-0.0846-1.7438-0.7283-3.2465-1.4929-1.1378-0.0347-0.0388-6.2866 9.7107-9.5675 14.92-5.4783 8.6981-11.101 18.226-14.738 24.973-3.3382 6.5001-8.4926 16.103-11.285 22.756 3.4801 0.16655 8.0905-0.0704 11.342 0.48371 1.134 3.5286 2.1202 4.5751 0.1566 6.9811-0.96346 1.1363-1.8465 1.8474-4.2313 3.4072-1.1752 0.76862-2.4522 1.6095-2.8378 1.8687l-2.4511 1.7211v6.1978l-5.5616 4.519-7.3116 6.269-12.828 0.02-6.9073-6.372z" fill="url(#a)"/>
<path transform="matrix(2.6814 0 0 2.6814 -2.9615 -468.99)" d="m110.45 32.566c11.302 4.4407 22.253 4.3611 32.872 0" fill="none" stroke="#000" stroke-width=".74589"/>
<path transform="matrix(2.6814 0 0 2.6814 -2.9615 -468.99)" d="m150.67 42.535c-16.727 7.3069-32.377 6.3224-47.285-0.38244" fill="none" stroke="#000" stroke-width=".74589"/>
<path transform="matrix(2.6814 0 0 2.6814 -2.9615 -468.99)" d="m127.06 18.856c-4.0181 0.3121-16.172-6.0656-19.46-21.64-14.769 5.7666-29.991 17.768-28.098 35.155s27.411 14.757 31.112 1.7422-11.903-22.543-17.688-6.4443c9.6988-8.641 14.833-1.3471 13.163 5.2103s-19.848 13.102-21.39-3.5649 18.42-27.259 21.115-26.874c5.1644 17.157 18.334 19.69 21.245 19.581" fill="none" stroke="#000" stroke-width=".74589"/>
<path transform="matrix(2.6814 0 0 2.6814 -2.9615 -468.99)" d="m127.06 25.635c-3.1559 0.16328-17.336-3.108-23.179-18.737-11.216 5.1576-12.752 12.959-10.866 20.969" fill="none" stroke="#000" stroke-width=".74589"/>
<path transform="matrix(2.6814 0 0 2.6814 -2.9615 -468.99)" d="m28.486 52.627c-4.6959 2.8311-7.7813 5.3043-9.1865 7.4041 0.10107 15.722 4.1278 29.443 23.446 35.375 3.9276-1.5637 3.1792-4.0625 3.702-6.3072-15.364-9.772-20.514-21.215-15.768-34.278z" fill="none" stroke="#000" stroke-width=".74589"/>
<path transform="matrix(2.6814 0 0 2.6814 -2.9615 -468.99)" d="m30.82 54.941 51.547-37.191" fill="none" stroke="#000" stroke-width=".74589"/>
<path transform="matrix(2.6814 0 0 2.6814 -2.9615 -468.99)" d="m79.781 25.952-50.61 37.909" fill="none" stroke="#000" stroke-width=".74589"/>
<path transform="matrix(2.6814 0 0 2.6814 -2.9615 -468.99)" d="m46.623 88.875 47.604-41.399 0.29086-2.7147" fill="none" stroke="#000" stroke-width=".74589"/>
<path transform="matrix(2.6814 0 0 2.6814 -2.9615 -468.99)" d="m41.679 85.579 47.701-41.205" fill="none" stroke="#000" stroke-width=".74589"/>
<path transform="matrix(2.6814 0 0 2.6814 -2.9615 -468.99)" d="m49.241 86.257c1.7712 14.995-6.7022 25.854-18.809 44.986s-25.743 27.991-23.075 49.252c15.101 48.929 54.398 19.083 41.69 2.7147-4.6841-4.8396-18.527 1.9594-6.9806 12.798-2.4385 6.679-11.198 9.4545-22.299 6.5928" fill="none" stroke="#000" stroke-width=".74589"/>
<path transform="matrix(2.6814 0 0 2.6814 -2.9615 -468.99)" d="m53.507 83.543s-1.2317 28.658-6.7867 38.2c-16.482 28.31-7.1763 34.381-14.737 35.097s-9.0333-4.614-0.58172-20.166c0 0-16.234 19.859-14.931 31.995s6.5928 16.482 6.5928 16.482c1.4643 1.4741-0.55012 5.6278-3.4903 3.1025l-6.205-5.8172c1.987 4.0667 4.2412 9.8314 9.3075 11.828s8.0761-0.39471 10.859 0.38781 5.8172 5.0416 5.8172 5.0416" fill="none" stroke="#000" stroke-width=".74589"/>
<path transform="matrix(2.6814 0 0 2.6814 -2.9615 -468.99)" d="m48.779 245.96c16.763-8.0701 26.698-23.422 1.9196-50.32" fill="none" stroke="#000" stroke-width=".74589"/>
<path transform="matrix(2.6814 0 0 2.6814 -2.9615 -468.99)" d="m55.909 246.5c13.57-6.9859 25.113-29.268-5.2103-50.869 29.227 13.719 30.041 41.963 10.326 52.45" fill="none" stroke="#000" stroke-width=".74589"/>
<path transform="matrix(2.6814 0 0 2.6814 -2.9615 -468.99)" d="m46.768 201.67c11.768 10.344 12.363 20.031 6.5814 29.342 1.3873-2.2297-9.5033-19.405-20.22-9.5651-10.717 9.8403 0.1851 21.122 8.9772 25.196 1.5384 0.41956 15.122 2.9704 18.922 3.5649s17.879 6.4096 26.273 10.179c11.853 16.371 20.674-7.3949 19.585-18.712 5.2133 8.1227 10.594 16.198 14.058 24.82" fill="none" stroke="#000" stroke-width=".74589"/>
<path transform="matrix(2.6814 0 0 2.6814 -2.9615 -468.99)" d="m127.25 266.93c-3.6676-19.21-16.37-32.86-29.342-46.344 4.6326 17.123 6.1257 32.756-10.558 39.763" fill="none" stroke="#000" stroke-width=".74589"/>
<path transform="matrix(2.6814 0 0 2.6814 -2.9615 -468.99)" d="m94.209 256.17c-7.7572-3.639-16.89-7.0688-28.848-10.966" fill="none" stroke="#000" stroke-width=".74589"/>
<g transform="matrix(2.6814 0 0 2.6814 10.729 -478.81)" stroke-width=".74589">
<path d="m99.766 209.28h43.893v14.496h-43.893z" fill="none" stroke="#000" stroke-width=".74589"/>
<g transform="matrix(.29079 0 0 .29079 -1.0822 159.46)">
<path d="m381.41 191.54v17.12h7.1997v-27.88h-5.6396c-0.0537 1.0401-0.31394 1.9334-0.78064 2.6801-0.46673 0.74668-1.0799 1.3467-1.8396 1.7999-0.7597 0.45331-1.613 0.77985-2.5598 0.97962-0.94686 0.19981-1.9668 0.2997-3.0597 0.29968v5z"/>
<path d="m408.45 196.1c1.3338 1e-5 2.4341 0.3534 3.3008 1.0602 0.86668 0.70679 1.3 1.6868 1.3 2.9401-2e-5 1.333-0.4468 2.3196-1.3403 2.9596-0.89357 0.64006-1.9934 0.96009-3.2996 0.96009-1.307 0-2.4138-0.32674-3.3203-0.98023-0.90658-0.65347-1.3599-1.6333-1.3599-2.9394-1e-5 -1.2801 0.45999-2.2668 1.38-2.9602 0.92-0.69334 2.0331-1.04 3.3392-1.04zm-11.52 4.3604c0 1.5462 0.32674 2.8794 0.98023 3.9996 0.65348 1.1202 1.5336 2.0136 2.6404 2.68 1.1068 0.66651 2.3334 1.1464 3.6798 1.4398 1.3464 0.29338 2.7529 0.44007 4.2194 0.44007 1.4404 0 2.8338-0.16012 4.1803-0.48035 1.3464-0.32023 2.5663-0.82682 3.6597-1.5198 1.0933-0.69295 1.96-1.5928 2.6001-2.6996 0.64003-1.1068 0.96006-2.3934 0.96008-3.8599-2e-5 -1.7334-0.46653-3.1868-1.3995-4.3604-0.93305-1.1735-2.213-1.9202-3.8397-2.24v-0.0806c1.2532-0.2661 2.2532-0.94583 2.9999-2.0392 0.74665-1.0933 1.12-2.2935 1.12-3.6005-2e-5 -1.333-0.2934-2.4929-0.88013-3.4796-0.58677-0.98671-1.3802-1.7934-2.3804-2.42s-2.1002-1.0866-3.3002-1.38c-1.2-0.29335-2.4266-0.44004-3.6798-0.44007-1.2264 3e-5 -2.4463 0.14672-3.6597 0.44007-1.2134 0.2934-2.3267 0.7534-3.3398 1.38-1.0132 0.62666-1.8266 1.4333-2.4402 2.42-0.61361 0.98675-0.92041 2.1332-0.92041 3.4393 0 1.3867 0.36682 2.6001 1.1005 3.6401 0.73364 1.0401 1.7535 1.72 3.0597 2.0398v0.0806c-1.5731 0.26694-2.8597 1.027-3.8599 2.2803s-1.5002 2.6933-1.5002 4.3201zm11.481-15.04c1.1995 3e-5 2.2127 0.26675 3.0396 0.80018 0.8268 0.53346 1.2402 1.3332 1.2402 2.3993-2e-5 1.0938-0.42665 1.9139-1.2799 2.4603-0.85328 0.54649-1.8532 0.81972-2.9999 0.81971-1.2004 1e-5 -2.2072-0.26-3.0206-0.78003-0.81341-0.52-1.2201-1.3533-1.2201-2.5-1e-5 -1.0929 0.39998-1.8994 1.2-2.4194 0.79996-0.51999 1.8136-0.78 3.0408-0.78003z"/>
<path d="m444.64 208.66v-5.7605h-13.24c0.79996-0.79996 1.5132-1.4199 2.1399-1.8597 0.62662-0.43985 1.5397-1.0463 2.7393-1.8195l0.15991-0.0806c0.16031-0.1066 0.41381-0.26651 0.7605-0.47974 1.2532-0.7731 2.2532-1.4197 2.9999-1.9397 0.74664-0.52 1.44-1.1267 2.0801-1.8201 0.64003-0.69334 1.1468-1.5067 1.5204-2.4402 0.37351-0.93341 0.56028-1.9999 0.56031-3.1995-3e-5 -1.4404-0.27346-2.7205-0.82032-3.8403-0.54689-1.1198-1.307-2.0465-2.2803-2.7802-0.97333-0.73361-2.0866-1.287-3.3398-1.6602-1.2533-0.3731-2.5867-0.55967-4.0002-0.5597-1.6537 3e-5 -3.1604 0.25333-4.5203 0.75989-1.3599 0.50662-2.5197 1.2334-3.4796 2.1802-0.95988 0.94688-1.6998 2.0868-2.2198 3.4198-0.52003 1.333-0.78004 2.7865-0.78003 4.3604-1e-5 0.0261 0.0134 0.17254 0.0403 0.43945v0.44068h6.3599c0.0268-1.7073 0.38675-3.0743 1.0797-4.101 0.69295-1.0266 1.8797-1.5399 3.5602-1.5399 1.0929 2e-5 1.9661 0.31333 2.6196 0.93994 0.65347 0.62665 0.98021 1.4734 0.98023 2.5403-2e-5 0.87974-0.30662 1.673-0.9198 2.3798-0.61322 0.7068-1.52 1.4602-2.7203 2.2601-0.42644 0.26694-0.95989 0.6002-1.6003 0.99976-1.2533 0.72023-2.3132 1.3737-3.1799 1.9604-0.86671 0.58676-1.7 1.2268-2.5 1.9202-1.3867 1.1735-2.4534 2.5669-3.2001 4.1803-0.74667 1.6134-1.133 3.3132-1.1591 5.0995z"/>
<path d="m447.11 200.02c0.10661 1.6268 0.46 3.0202 1.0602 4.1803 0.60018 1.1601 1.4002 2.0933 2.3999 2.7997 0.99976 0.70639 2.1596 1.2197 3.4796 1.5399 1.32 0.32023 2.7665 0.48035 4.3396 0.48035 3.387 0 6.1405-0.89335 8.2605-2.6801 2.1199-1.7867 3.1799-4.3333 3.1799-7.6398-3e-5 -2.88-0.84007-5.1135-2.5201-6.7004-1.6801-1.5869-3.9602-2.3804-6.8402-2.3804-2.2396 2e-5 -4.0528 0.66693-5.4395 2.0007h-0.0806l1.04-5.0806h12.361v-5.7593h-17.6l-2.7197 15.759h6.1597c0.50618-0.79996 1.1127-1.3531 1.8195-1.6596 0.70677-0.30638 1.5802-0.45958 2.6202-0.45959 1.3598 1e-5 2.4332 0.41993 3.2202 1.2598 0.78693 0.83986 1.1804 1.9531 1.1804 3.3398-1e-5 1.333-0.44008 2.4129-1.3202 3.2397-0.88014 0.82683-1.9871 1.2402-3.3209 1.2402-1.1198 0-2.1397-0.32002-3.0597-0.96008-0.92001-0.64005-1.3934-1.4801-1.4203-2.5202z"/>
</g>
</g>
<g transform="matrix(1.7218 0 0 1.7218 301.04 -326.76)">
<path d="m-2.4995-18.113-0.2092 0.57783-3.2365-1.1717c0.047946-0.14635 0.12171-0.27705 0.22129-0.39211 0.1622-0.19061 0.37273-0.35995 0.63159-0.50801s0.61054-0.3003 1.055-0.45672c0.69018-0.24376 1.1749-0.45926 1.4543-0.6465 0.27934-0.18724 0.46013-0.39442 0.54236-0.62154 0.086254-0.23825 0.073838-0.47005-0.037247-0.69538-0.11109-0.22533-0.30358-0.38757-0.57746-0.48673-0.28947-0.1048-0.55249-0.10179-0.78905 9e-3 -0.23656 0.11081-0.41158 0.31944-0.52506 0.62592l-0.59493-0.28717c0.20918-0.4456 0.49556-0.73922 0.85914-0.88086 0.36357-0.14163 0.77805-0.1282 1.2434 0.04028 0.46983 0.1701 0.79452 0.43499 0.97409 0.79467 0.17956 0.35968 0.19961 0.73213 0.060149 1.1173-0.070946 0.19595-0.18076 0.37405-0.32944 0.53429-0.14869 0.16025-0.35388 0.31137-0.61559 0.45336-0.26171 0.142-0.67466 0.31739-1.2388 0.52617-0.47036 0.17223-0.7763 0.29381-0.91783 0.36472s-0.26544 0.14883-0.37174 0.23375z"/>
<path d="m-1.6115-18.437 0.60432 0.12521c-0.034597 0.29153-7.153e-4 0.52102 0.10164 0.68849 0.10236 0.16746 0.26338 0.28476 0.48306 0.35188 0.18797 0.05743 0.36588 0.06474 0.53373 0.02193 0.16784-0.04281 0.31903-0.12229 0.45356-0.23842s0.26973-0.28716 0.40562-0.51307c0.13588-0.22591 0.24257-0.4657 0.32007-0.71935 0.0083-0.02718 0.019623-0.06829 0.033969-0.12334-0.18181 0.15741-0.3971 0.26434-0.64588 0.32081s-0.4966 0.04699-0.74346-0.02844c-0.41219-0.12594-0.7153-0.38198-0.90932-0.76812s-0.2163-0.8238-0.066834-1.313c0.15432-0.50504 0.42743-0.86607 0.81936-1.0831 0.39192-0.21701 0.8121-0.25701 1.2605-0.12001 0.32386 0.09896 0.59334 0.27662 0.80844 0.53301 0.21509 0.25639 0.34298 0.56723 0.38366 0.93251 0.040673 0.36529-0.032403 0.85368-0.21923 1.4652-0.19445 0.6364-0.41835 1.122-0.67171 1.4569-0.25337 0.33487-0.54659 0.55914-0.8797 0.67279s-0.68311 0.11443-1.05 0.0023c-0.38954-0.11902-0.67471-0.32438-0.85549-0.61609s-0.23622-0.64108-0.16634-1.0481zm3.1753-1.433c0.10725-0.35104 0.098942-0.65815-0.024929-0.92133-0.12388-0.26318-0.31717-0.4349-0.57988-0.51518-0.27178-0.08303-0.54235-0.04437-0.81173 0.11599-0.26938 0.16037-0.45804 0.4172-0.56599 0.7705-0.096878 0.31707-0.079902 0.60392 0.050926 0.86056 0.13082 0.25664 0.33665 0.42786 0.61749 0.51366 0.28309 0.0865 0.54607 0.05851 0.78894-0.08395 0.24286-0.14246 0.41792-0.38922 0.52518-0.74026z"/>
<path d="m6.3406-15.078 0.10175-0.46499c-0.31363 0.31439-0.69716 0.42198-1.1506 0.32276-0.2938-0.06429-0.54617-0.20436-0.75712-0.4202-0.21094-0.21585-0.35232-0.48374-0.42412-0.80369-0.071806-0.31994-0.066454-0.66846 0.016057-1.0455 0.080485-0.36783 0.21481-0.68812 0.40297-0.96088 0.18816-0.27275 0.42232-0.46211 0.70246-0.56808 0.28015-0.10596 0.57175-0.12579 0.8748-0.05948 0.22208 0.0486 0.40963 0.13872 0.56263 0.27038s0.26742 0.28457 0.34325 0.45873l0.39939-1.8253 0.62115 0.13591-1.1131 5.0872zm-1.5721-2.2712c-0.10327 0.47193-0.080985 0.84649 0.066842 1.1237 0.14782 0.27719 0.35707 0.44539 0.62774 0.50462 0.27298 0.05973 0.52932-0.0011 0.76902-0.18262 0.2397-0.18148 0.40966-0.50125 0.5099-0.9593 0.11035-0.50432 0.094177-0.89572-0.048513-1.1742-0.1427-0.27848-0.35632-0.44886-0.64086-0.51112-0.27761-0.06074-0.53433 0.0019-0.77016 0.18783-0.23584 0.18597-0.40716 0.52301-0.51396 1.0111z"/>
<path d="m10.653-15.553 0.63954 0.18493c-0.1638 0.36473-0.40166 0.63009-0.71356 0.79608-0.31191 0.16599-0.68417 0.21443-1.1168 0.1453-0.54486-0.08706-0.95008-0.32388-1.2157-0.71046-0.26558-0.38657-0.34998-0.88269-0.2532-1.4884 0.10014-0.6267 0.33922-1.0873 0.71723-1.3818 0.37801-0.29452 0.82424-0.40068 1.3387-0.31848 0.49809 0.07959 0.87789 0.31415 1.1394 0.70367s0.34312 0.89179 0.24485 1.5068c-6e-3 0.03742-0.01612 0.09335-0.03041 0.16781l-2.7781-0.44392c-0.042008 0.41297 0.023674 0.74482 0.19705 0.99555 0.17337 0.25073 0.41556 0.40095 0.72658 0.45065 0.23151 0.03699 0.43882 0.0078 0.62195-0.08767 0.18312-0.09544 0.34392-0.2688 0.4824-0.52006zm-1.9099-1.352 2.0801 0.33238c0.02201-0.31784-0.01995-0.56556-0.12586-0.74316-0.16225-0.27533-0.40356-0.4386-0.72392-0.48979-0.28997-0.04633-0.54926 0.01176-0.77788 0.17427-0.22862 0.16252-0.37942 0.40462-0.4524 0.7263z"/>
<path d="m13.94-16.448c0.05028-0.8629 0.32134-1.5249 0.81315-1.9861 0.49181-0.46118 1.1042-0.67042 1.837-0.62772 0.47991 0.02797 0.90586 0.16784 1.2779 0.41961 0.37198 0.25178 0.64709 0.58864 0.82532 1.0106 0.17822 0.42196 0.25218 0.89298 0.22188 1.4131-0.03073 0.5272-0.1646 0.99264-0.40161 1.3963-0.23702 0.40369-0.5568 0.70114-0.95935 0.89236s-0.8296 0.27367-1.2811 0.24736c-0.48937-0.02852-0.91985-0.17221-1.2914-0.43108-0.37158-0.25887-0.64474-0.59858-0.81949-1.0191-0.17475-0.42056-0.24883-0.85898-0.22224-1.3153zm0.70862 0.05197c-0.03651 0.62649 0.10318 1.1298 0.41905 1.51 0.31588 0.38016 0.72796 0.58505 1.2362 0.61467 0.51774 0.03017 0.95448-0.12703 1.3102-0.47161 0.35573-0.34458 0.5531-0.85139 0.59209-1.5204 0.02466-0.42317-0.02533-0.79673-0.14996-1.1207-0.12464-0.32394-0.31961-0.58082-0.5849-0.77064-0.2653-0.18981-0.56934-0.2947-0.91214-0.31468-0.48701-0.02838-0.9158 0.11447-1.2864 0.42853-0.37057 0.31407-0.57865 0.86236-0.62425 1.6449z"/>
<path d="m23.324-15.539 0.69291 0.15831c-0.13153 0.56913-0.38153 1.0065-0.75 1.3122-0.36848 0.30568-0.8238 0.46469-1.366 0.47705-0.5611 0.01279-1.02-0.09104-1.3768-0.31149-0.35678-0.22045-0.63185-0.54521-0.82521-0.97429-0.19336-0.42907-0.2957-0.8922-0.30703-1.3894-0.01236-0.54216 0.08044-1.0174 0.2784-1.4258 0.19796-0.40838 0.48572-0.72169 0.8633-0.93993 0.37758-0.21823 0.79601-0.33259 1.2553-0.34306 0.52085-0.01187 0.96186 0.11073 1.323 0.36779 0.36117 0.25707 0.61707 0.62432 0.76771 1.1017l-0.67465 0.17527c-0.12938-0.37605-0.31086-0.64787-0.54445-0.81547-0.23359-0.16759-0.5244-0.24742-0.87242-0.23949-0.40011 0.0091-0.73234 0.11263-0.99668 0.31052-0.26434 0.1979-0.44728 0.45967-0.54882 0.78531-0.10154 0.32565-0.1484 0.66012-0.14057 1.0034 0.01009 0.44273 0.08341 0.82775 0.21997 1.1551 0.13656 0.32733 0.34283 0.56957 0.61882 0.72672 0.27598 0.15715 0.5726 0.23211 0.88985 0.22488 0.3859-0.0088 0.71008-0.12752 0.97254-0.35616 0.26245-0.22864 0.43604-0.56304 0.52076-1.0032z"/>
<path d="m26.225-13.929-0.43288-4.5725-1.7081 0.1617-0.05792-0.61179 4.1093-0.38902 0.05792 0.61179-1.7151 0.16237 0.43288 4.5725z"/>
<path d="m31.851-19.946 0.67985-0.11269 0.49199 2.9682c0.08558 0.51631 0.09513 0.93601 0.02866 1.2591-0.06648 0.32308-0.23637 0.60508-0.50969 0.84602s-0.65763 0.40246-1.1529 0.48455c-0.48127 0.07977-0.88868 0.06208-1.2222-0.05306-0.33354-0.11514-0.59177-0.31899-0.77468-0.61153-0.18292-0.29254-0.31948-0.71098-0.40971-1.2553l-0.49199-2.9682 0.67985-0.11269 0.49141 2.9647c0.07396 0.44622 0.16994 0.76818 0.28792 0.96586s0.2875 0.33702 0.50856 0.418 0.4776 0.09727 0.76964 0.04886c0.49996-0.08287 0.83745-0.25523 1.0125-0.51709 0.17503-0.26185 0.20911-0.71518 0.10224-1.36z"/>
<path d="m34.483-15.15-1.2087-5.0653 1.9004-0.45346c0.38698-0.09234 0.7096-0.11515 0.96786-0.06844 0.25826 0.04672 0.47903 0.16081 0.66233 0.34227 0.18329 0.18147 0.30269 0.38853 0.35821 0.62117 0.05166 0.21653 0.04157 0.4344-0.03028 0.65362-0.07186 0.21922-0.2124 0.41588-0.42162 0.58996 0.32779 0.01673 0.59987 0.11371 0.81624 0.29093 0.21636 0.17723 0.35972 0.41326 0.43008 0.7081 0.05661 0.23726 0.05914 0.46977 0.0076 0.69753-0.05156 0.22777-0.13786 0.41452-0.25889 0.56026-0.12104 0.14574-0.28597 0.27336-0.49478 0.38283-0.20882 0.10948-0.47447 0.20269-0.79695 0.27964zm-0.0305-3.0969 1.0953-0.26136c0.29714-0.0709 0.50554-0.14132 0.62519-0.21127 0.15836-0.09135 0.26672-0.20606 0.32507-0.34416 0.05835-0.13808 0.06636-0.29581 0.02404-0.47318-0.04013-0.16815-0.11575-0.30652-0.22688-0.41513-0.11113-0.1086-0.24719-0.16865-0.40818-0.18015-0.16099-0.01149-0.42346 0.02619-0.78741 0.11303l-1.0124 0.24157zm0.55817 2.3392 1.2611-0.30093c0.21652-0.05167 0.36663-0.096 0.45031-0.13302 0.14773-0.06447 0.26573-0.14132 0.354-0.23055 0.08826-0.08923 0.15109-0.20343 0.18849-0.34261 0.03739-0.13917 0.03685-0.28938-0.0016-0.45062-0.04507-0.18888-0.13261-0.34146-0.26261-0.45774-0.13-0.11627-0.28754-0.18215-0.47261-0.19764-0.18508-0.01548-0.43886 0.01525-0.76134 0.0922l-1.1713 0.2795z"/>
<path d="m39.24-16.32-1.5405-4.9744 2.2056-0.68302c0.44338-0.1373 0.79427-0.197 1.0527-0.17911 0.25841 0.01791 0.49163 0.1186 0.69968 0.30207 0.20804 0.18349 0.35444 0.41209 0.43921 0.6858 0.10928 0.3529 0.08716 0.68575-0.06636 0.99854-0.15352 0.31281-0.45878 0.57591-0.91577 0.78932 0.2001 0.02976 0.35801 0.07135 0.47371 0.12476 0.24692 0.1169 0.49732 0.28107 0.75121 0.4925l1.2845 1.0859-0.82794 0.25639-0.97878-0.83107c-0.28476-0.23906-0.51386-0.41849-0.68731-0.53832-0.17346-0.11982-0.31919-0.19616-0.43721-0.22903-0.11802-0.03286-0.23178-0.04598-0.34128-0.03934-0.07956 0.0073-0.20416 0.0372-0.37382 0.08973l-0.76347 0.23643 0.68407 2.209zm-0.20232-2.9829 1.415-0.43818c0.30086-0.09317 0.52649-0.19713 0.67689-0.31188 0.15039-0.11474 0.24851-0.25421 0.29436-0.41839 0.04584-0.16418 0.04389-0.32657-0.0058-0.48719-0.07286-0.23526-0.21815-0.40222-0.43587-0.5009-0.21773-0.09867-0.51096-0.09091-0.87968 0.02327l-1.5744 0.48757z"/>
<path d="m44.253-17.919-1.8451-4.8697 3.5211-1.3341 0.21773 0.57466-2.8766 1.0899 0.5651 1.4915 2.6939-1.0207 0.21647 0.57134-2.6939 1.0207 0.62802 1.6576 2.9896-1.1327 0.21773 0.57466z"/>
</g>
<path transform="matrix(2.6814 0 0 2.6814 -2.9615 -468.99)" d="m225.52 52.627c4.6959 2.8311 7.7813 5.3043 9.1865 7.4041-0.10107 15.722-4.1278 29.443-23.446 35.375-3.9276-1.5637-3.1792-4.0625-3.702-6.3072 15.364-9.772 20.514-21.215 15.768-34.278z" fill="none" stroke="#000" stroke-width=".74589"/>
<path transform="matrix(2.6814 0 0 2.6814 -2.9615 -468.99)" d="m223.19 54.941-51.967-37.424" fill="none" stroke="#000" stroke-width=".74589"/>
<path transform="matrix(2.6814 0 0 2.6814 -2.9615 -468.99)" d="m174.23 25.952 50.61 37.909" fill="none" stroke="#000" stroke-width=".74589"/>
<path transform="matrix(2.6814 0 0 2.6814 -2.9615 -468.99)" d="m207.38 88.875-47.604-41.399-0.29086-2.7147" fill="none" stroke="#000" stroke-width=".74589"/>
<path transform="matrix(2.6814 0 0 2.6814 -2.9615 -468.99)" d="m212.33 85.579-47.701-41.205" fill="none" stroke="#000" stroke-width=".74589"/>
<path transform="matrix(2.6814 0 0 2.6814 -2.9615 -468.99)" d="m204.77 86.257c-1.7712 14.995 6.7022 25.854 18.809 44.986 12.107 19.132 25.743 27.991 23.075 49.252-15.101 48.929-54.398 19.083-41.69 2.7147 4.6841-4.8396 18.527 1.9594 6.9806 12.798 2.4385 6.679 11.198 9.4545 22.299 6.5928" fill="none" stroke="#000" stroke-width=".74589"/>
<path transform="matrix(2.6814 0 0 2.6814 -2.9615 -468.99)" d="m200.5 83.543s1.2317 28.658 6.7867 38.2c16.482 28.31 7.1763 34.381 14.737 35.097 7.5606 0.71562 9.0333-4.614 0.58172-20.166 0 0 16.234 19.859 14.931 31.995-1.3031 12.136-6.5928 16.482-6.5928 16.482-1.4643 1.4741 0.55013 5.6278 3.4903 3.1025l6.205-5.8172c-1.987 4.0667-4.2412 9.8314-9.3075 11.828-5.0663 1.9969-8.076-0.39471-10.859 0.38781s-5.8172 5.0416-5.8172 5.0416" fill="none" stroke="#000" stroke-width=".74589"/>
<path transform="matrix(2.6814 0 0 2.6814 -2.9615 -468.99)" d="m205.23 245.96c-16.764-8.0701-26.698-23.422-1.9196-50.32" fill="none" stroke="#000" stroke-width=".74589"/>
<path transform="matrix(2.6814 0 0 2.6814 -2.9615 -468.99)" d="m198.1 246.5c-13.57-6.9859-25.113-29.268 5.2103-50.869-29.227 13.719-30.041 41.963-10.326 52.45" fill="none" stroke="#000" stroke-width=".74589"/>
<path transform="matrix(2.6814 0 0 2.6814 -2.9615 -468.99)" d="m207.24 201.67c-11.768 10.344-12.363 20.031-6.5814 29.342-1.3873-2.2297 9.5033-19.405 20.22-9.5651 10.717 9.8403-0.1851 21.122-8.9772 25.196-1.5384 0.41956-15.122 2.9704-18.922 3.5649s-17.879 6.4096-26.273 10.179c-11.853 16.371-20.674-7.3949-19.585-18.712-5.2133 8.1227-10.594 16.198-14.058 24.82" fill="none" stroke="#000" stroke-width=".74589"/>
<path transform="matrix(2.6814 0 0 2.6814 -2.9615 -468.99)" d="m126.75 266.93c3.6676-19.21 16.37-32.86 29.342-46.344-4.6326 17.123-6.1257 32.756 10.558 39.763" fill="none" stroke="#000" stroke-width=".74589"/>
<path transform="matrix(2.6814 0 0 2.6814 -2.9615 -468.99)" d="m159.8 256.17c7.7572-3.639 16.937-7.0688 28.895-10.966" fill="none" stroke="#000" stroke-width=".74589"/>
<path transform="matrix(2.6814 0 0 2.6814 -2.9615 -468.99)" d="m116.5 266.5h20.938c1.1535 3.257-1.6963 3.9857-3.5 5.375h-14.5c-1.8304-1.349-5.0034-1.9999-2.9375-5.375z" fill="none" stroke="#000" stroke-width=".74589"/>
<path transform="matrix(2.6814 0 0 2.6814 -2.9615 -468.99)" d="m119.62 272.06h14.375v1.9375l-5.1875 4.4375h-4.3125l-4.875-4.5z" fill="none" stroke="#000" stroke-width=".74589"/>
<g transform="matrix(1.3407 -1.0321 1.0321 1.3407 61.433 -467.57)">
<path d="m-47.609 108.62v-11.453h1.5156v10.102h5.6406v1.3516z"/>
<path d="m-38.383 108.62v-11.453h1.5156v11.453z"/>
<path d="m-34.266 108.62v-11.453h4.2969c0.87499 1.1e-5 1.5768 0.1159 2.1055 0.34766 0.52864 0.23178 0.9427 0.58855 1.2422 1.0703 0.29947 0.48178 0.44921 0.98569 0.44922 1.5117-9e-6 0.48959-0.13282 0.95053-0.39844 1.3828-0.26563 0.4323-0.66668 0.78126-1.2031 1.0469 0.6927 0.20313 1.2253 0.54948 1.5977 1.0391 0.37239 0.48959 0.55858 1.0677 0.55859 1.7344-1e-5 0.53646-0.11329 1.0352-0.33984 1.4961-0.22657 0.46094-0.50652 0.8164-0.83984 1.0664-0.33334 0.25-0.75131 0.43881-1.2539 0.56641-0.50261 0.1276-1.1185 0.19141-1.8477 0.19141zm1.5156-6.6406h2.4766c0.67187 1e-5 1.1536-0.0443 1.4453-0.13281 0.38541-0.11458 0.67577-0.30468 0.87109-0.57031 0.1953-0.26562 0.29296-0.59895 0.29297-1-8e-6 -0.3802-0.09115-0.71484-0.27344-1.0039-0.1823-0.28905-0.44272-0.48697-0.78125-0.59375-0.33855-0.10676-0.91928-0.16015-1.7422-0.16016h-2.2891zm0 5.2891h2.8516c0.48958 0 0.83333-0.0182 1.0312-0.0547 0.34895-0.0625 0.64062-0.16667 0.875-0.3125 0.23437-0.14584 0.42708-0.35808 0.57812-0.63672 0.15103-0.27865 0.22655-0.60026 0.22656-0.96485-8e-6 -0.42708-0.10938-0.79817-0.32812-1.1133-0.21876-0.3151-0.52214-0.53645-0.91016-0.66406-0.38803-0.1276-0.94662-0.1914-1.6758-0.19141h-2.6484z"/>
<path d="m-23.484 108.62v-11.453h8.2812v1.3516h-6.7656v3.5078h6.3359v1.3438h-6.3359v3.8984h7.0312v1.3516z"/>
<path d="m-12.805 108.62v-11.453h5.0781c1.0208 1.1e-5 1.7969 0.10288 2.3281 0.30859 0.53124 0.20574 0.95572 0.56902 1.2734 1.0898 0.3177 0.52084 0.47655 1.0964 0.47656 1.7266-1.04e-5 0.81251-0.26303 1.4974-0.78906 2.0547-0.52605 0.5573-1.3386 0.91146-2.4375 1.0625 0.40103 0.19271 0.70572 0.38282 0.91406 0.57031 0.4427 0.40625 0.86197 0.91407 1.2578 1.5234l1.9922 3.1172h-1.9062l-1.5156-2.3828c-0.44272-0.68749-0.8073-1.2135-1.0938-1.5781-0.28646-0.36458-0.54298-0.61979-0.76953-0.76563-0.22657-0.14583-0.45704-0.24739-0.69141-0.30468-0.17188-0.0365-0.45313-0.0547-0.84375-0.0547h-1.7578v5.0859zm1.5156-6.3984h3.2578c0.6927 0 1.2344-0.0716 1.625-0.21485 0.39062-0.14322 0.68749-0.37238 0.89062-0.6875 0.20312-0.31509 0.30468-0.65754 0.30469-1.0273-8.9e-6 -0.54166-0.19662-0.98697-0.58984-1.3359-0.39324-0.34895-1.0143-0.52343-1.8633-0.52344h-3.625z"/>
<path d="m1.6484 108.62v-10.102h-3.7734v-1.3516h9.0781v1.3516h-3.7891v10.102z"/>
<path d="m7.2578 108.62 4.3984-11.453h1.6328l4.6875 11.453h-1.7266l-1.3359-3.4688h-4.7891l-1.2578 3.4688zm3.3047-4.7031h3.8828l-1.1953-3.1719c-0.36459-0.96354-0.63542-1.7552-0.8125-2.375-0.14584 0.73438-0.35157 1.4636-0.61719 2.1875z"/>
<path d="m19.203 108.62v-11.453h3.9453c0.89062 1.1e-5 1.5703 0.0547 2.0391 0.16406 0.65624 0.15105 1.2161 0.42449 1.6797 0.82031 0.60416 0.51043 1.056 1.1628 1.3555 1.957 0.29947 0.79428 0.44921 1.7018 0.44922 2.7226-1.1e-5 0.8698-0.10157 1.6406-0.30469 2.3125-0.20314 0.67188-0.46355 1.2279-0.78125 1.668-0.31772 0.44011-0.66537 0.78646-1.043 1.0391-0.37761 0.25261-0.83334 0.44402-1.3672 0.57422-0.53386 0.13021-1.1471 0.19532-1.8398 0.19532zm1.5156-1.3516h2.4453c0.7552 0 1.3476-0.0703 1.7773-0.21093 0.42968-0.14063 0.77213-0.33854 1.0273-0.59375 0.35937-0.35938 0.63931-0.84245 0.83984-1.4492 0.20051-0.60677 0.30077-1.3424 0.30078-2.207-9e-6 -1.1979-0.19662-2.1185-0.58984-2.7617-0.39324-0.64322-0.8711-1.0742-1.4336-1.293-0.40626-0.15624-1.0599-0.23436-1.9609-0.23438h-2.4062z"/>
</g>
<g transform="matrix(1.3517 1.0178 -1.0178 1.3517 638.28 -450.49)">
<path d="m-47.289 108.62v-11.453h1.5156v11.453z"/>
<path d="m-37.75 104.13v-1.3438l4.8516-8e-3v4.25c-0.7448 0.59375-1.513 1.0404-2.3047 1.3398-0.79168 0.29948-1.6042 0.44922-2.4375 0.44922-1.125 0-2.1471-0.24089-3.0664-0.72266-0.91927-0.48177-1.6133-1.1784-2.082-2.0898-0.46875-0.91146-0.70313-1.9297-0.70312-3.0547-1e-6 -1.1146 0.23307-2.1549 0.69922-3.1211 0.46614-0.96614 1.1367-1.6836 2.0117-2.1523 0.875-0.46874 1.8828-0.70311 3.0234-0.70312 0.82812 1.2e-5 1.5768 0.13413 2.2461 0.40234 0.66926 0.26824 1.194 0.64194 1.5742 1.1211 0.3802 0.47918 0.66926 1.1042 0.86719 1.875l-1.3672 0.375c-0.17188-0.58333-0.38543-1.0417-0.64062-1.375-0.25522-0.33332-0.6198-0.60025-1.0938-0.80078-0.47397-0.20051-1-0.30077-1.5781-0.30078-0.69271 1e-5 -1.2917 0.10548-1.7969 0.31641-0.50521 0.21095-0.91276 0.48829-1.2227 0.83203-0.3099 0.34376-0.55078 0.72136-0.72266 1.1328-0.29167 0.70834-0.4375 1.4766-0.4375 2.3047-3e-6 1.0208 0.17578 1.875 0.52734 2.5625s0.86328 1.1979 1.5352 1.5312c0.67187 0.33334 1.3854 0.5 2.1406 0.5 0.65624 0 1.2969-0.1263 1.9219-0.37891 0.62499-0.2526 1.0989-0.52213 1.4219-0.80859v-2.1328z"/>
<path d="m-23.156 97.166h1.5156v6.6172c-1e-5 1.151-0.13022 2.0651-0.39062 2.7422-0.26043 0.67708-0.73048 1.2279-1.4102 1.6523-0.6797 0.42448-1.5716 0.63672-2.6758 0.63672-1.0729 0-1.9505-0.1849-2.6328-0.55469-0.68229-0.36979-1.1693-0.90495-1.4609-1.6055-0.29167-0.70052-0.4375-1.6576-0.4375-2.8711v-6.6172h1.5156v6.6094c-3e-6 0.99479 0.09245 1.7279 0.27734 2.1992 0.18489 0.47136 0.5026 0.83464 0.95312 1.0898 0.45052 0.25521 1.0013 0.38281 1.6523 0.38281 1.1146 0 1.9088-0.2526 2.3828-0.75781 0.47395-0.50521 0.71093-1.4766 0.71094-2.9141z"/>
<path d="m-20.367 108.62 4.3984-11.453h1.6328l4.6875 11.453h-1.7266l-1.3359-3.4688h-4.7891l-1.2578 3.4688zm3.3047-4.7031h3.8828l-1.1953-3.1719c-0.36459-0.96354-0.63542-1.7552-0.8125-2.375-0.14584 0.73438-0.35157 1.4636-0.61719 2.1875z"/>
<path d="m-8.4844 108.62v-11.453h1.5156v10.102h5.6406v1.3516z"/>
<path d="m0.48438 108.62v-11.453h3.9453c0.89062 1.1e-5 1.5703 0.0547 2.0391 0.16406 0.65624 0.15105 1.2161 0.42449 1.6797 0.82031 0.60416 0.51043 1.056 1.1628 1.3555 1.957 0.29947 0.79428 0.44921 1.7018 0.44922 2.7226-1.07e-5 0.8698-0.10157 1.6406-0.30469 2.3125-0.20314 0.67188-0.46355 1.2279-0.78125 1.668-0.31772 0.44011-0.66537 0.78646-1.043 1.0391-0.37761 0.25261-0.83334 0.44402-1.3672 0.57422-0.53386 0.13021-1.1471 0.19532-1.8398 0.19532zm1.5156-1.3516h2.4453c0.7552 0 1.3476-0.0703 1.7773-0.21093 0.42968-0.14063 0.77213-0.33854 1.0273-0.59375 0.35937-0.35938 0.63931-0.84245 0.83984-1.4492 0.20051-0.60677 0.30077-1.3424 0.30078-2.207-9.1e-6 -1.1979-0.19662-2.1185-0.58984-2.7617-0.39324-0.64322-0.8711-1.0742-1.4336-1.293-0.40626-0.15624-1.0599-0.23436-1.9609-0.23438h-2.4062z"/>
<path d="m10.789 108.62 4.3984-11.453h1.6328l4.6875 11.453h-1.7266l-1.3359-3.4688h-4.7891l-1.2578 3.4688zm3.3047-4.7031h3.8828l-1.1953-3.1719c-0.36459-0.96354-0.63542-1.7552-0.8125-2.375-0.14584 0.73438-0.35157 1.4636-0.61719 2.1875z"/>
<path d="m22.734 108.62v-11.453h3.9453c0.89062 1.1e-5 1.5703 0.0547 2.0391 0.16406 0.65624 0.15105 1.2161 0.42449 1.6797 0.82031 0.60416 0.51043 1.056 1.1628 1.3555 1.957 0.29947 0.79428 0.44921 1.7018 0.44922 2.7226-1.1e-5 0.8698-0.10157 1.6406-0.30469 2.3125-0.20314 0.67188-0.46355 1.2279-0.78125 1.668-0.31772 0.44011-0.66537 0.78646-1.043 1.0391-0.37761 0.25261-0.83334 0.44402-1.3672 0.57422-0.53386 0.13021-1.1471 0.19532-1.8398 0.19532zm1.5156-1.3516h2.4453c0.7552 0 1.3476-0.0703 1.7773-0.21093 0.42968-0.14063 0.77213-0.33854 1.0273-0.59375 0.35937-0.35938 0.63931-0.84245 0.83984-1.4492 0.20051-0.60677 0.30077-1.3424 0.30078-2.207-9e-6 -1.1979-0.19662-2.1185-0.58984-2.7617-0.39324-0.64322-0.8711-1.0742-1.4336-1.293-0.40626-0.15624-1.0599-0.23436-1.9609-0.23438h-2.4062z"/>
</g>
<g transform="matrix(-2.6814 0 0 2.6814 677.46 -468.99)" fill="none" stroke="#000" stroke-width=".74589">
<path d="m127.06 18.856c-4.0181 0.3121-16.172-6.0656-19.46-21.64-14.769 5.7666-29.991 17.768-28.098 35.155s27.411 14.757 31.112 1.7422-11.903-22.543-17.688-6.4443c9.6988-8.641 14.833-1.3471 13.163 5.2103s-19.848 13.102-21.39-3.5649 18.42-27.259 21.115-26.874c5.1644 17.157 18.334 19.69 21.245 19.581"/>
<path d="m127.06 25.635c-3.1559 0.16328-17.336-3.108-23.179-18.737-11.216 5.1576-12.752 12.959-10.866 20.969"/>
</g>
<g transform="matrix(2.6814 0 0 2.6814 -717.1 -582.34)">
<path transform="matrix(1.8614 0 0 1.8614 -321.18 -151.13)" d="m421.5 171.38c0 20.78-16.845 37.625-37.625 37.625s-37.625-16.845-37.625-37.625 16.845-37.625 37.625-37.625 37.625 16.845 37.625 37.625z" fill="#c39232" stroke="#1a1a1a" stroke-width=".40071"/>
<path transform="matrix(1.7492 0 0 1.7492 -278.11 -131.9)" d="m421.5 171.38c0 20.78-16.845 37.625-37.625 37.625s-37.625-16.845-37.625-37.625 16.845-37.625 37.625-37.625 37.625 16.845 37.625 37.625z" fill="#d40000" stroke="#1a1a1a" stroke-width=".42641"/>
<path transform="matrix(1.6502 0 0 1.6502 -240.1 -114.93)" d="m421.5 171.38c0 20.78-16.845 37.625-37.625 37.625s-37.625-16.845-37.625-37.625 16.845-37.625 37.625-37.625 37.625 16.845 37.625 37.625z" fill="#c39232" stroke="#1a1a1a" stroke-width=".452"/>
<path transform="matrix(1.5314 0 0 1.5314 -194.49 -94.57)" d="m421.5 171.38c0 20.78-16.845 37.625-37.625 37.625s-37.625-16.845-37.625-37.625 16.845-37.625 37.625-37.625 37.625 16.845 37.625 37.625z" fill="#fff" stroke="#1a1a1a" stroke-width=".48706"/>
<g transform="translate(.32592)" stroke-width=".74589">
<g stroke="#37792d">
<g transform="translate(1.875,3.75)" stroke-width=".74589">
<path d="m347.33 168.48s-1.9112-2.685-2.4275-3.9238c-0.51625-1.1875-1.29-4.4925-1.91-5.99s-1.085-4.13-4.0275-5.6275c-0.775-0.36125-1.755-2.5812-1.755-2.5812s0.2575 7.125 1.0838 8.6225 2.5812 3.3038 4.4925 5.06c1.91 1.8588 4.1812 5.525 4.595 5.9375l-0.0513-1.4975z" fill="#30a947" fill-rule="evenodd"/>
<path d="m337.52 151.29c0.51625 1.3938 5.06 12.082 7.9 15.386" fill="none"/>
</g>
<g stroke-width=".74589">
<path d="m359 196.21s-2.1175-2.8912-2.995-3.5112c-0.7225-0.51625-0.0512-0.93-1.4975-1.7038-1.1362-0.56875-2.4262-0.775-3.3038-1.3938-0.87875-0.62-4.9062-4.08-8.1075-2.5825 0 0 0.62 0.465 1.705 0.67125 1.0838 0.20625 2.1675 1.4975 2.7875 2.1175 0.62 0.61875 2.375 2.7875 3.4075 3.6138 1.0338 0.775 2.5825 0.67125 3.0988 0.775 0.51625 0.1025 1.1875 0.7225 1.4975 0.92875 0.30875 0.155 3.4075 1.085 3.4075 1.085z" fill="#30a947" fill-rule="evenodd"/>
<path d="m344.13 187.07c1.4962 0.15375 4.0788 1.2388 5.9888 2.9425 1.9112 1.7038 5.7312 4.285 6.9188 4.905" fill="none"/>
</g>
<path d="m367.5 202.72s-6.763-6.9388-8.332-6.1541c-1.6182 0.77056-1.0507 1.0403-2.138 2.018-1.1221 0.91313-2.5948 0.0594-3.305 0.28588-0.7098 0.22523-4.7249 0.73754-5.2109 3.1756 0 0-0.8377-4.0007 2.2926-5.3577 3.094-1.4208 5.416-2.9568 7.1091-1.9331 1.658 0.96024 7.0507 4.4438 8.3445 6.4816l1.2397 1.4838z" fill="#30a947" fill-rule="evenodd" stroke-width=".74589"/>
<g transform="matrix(.65222 -.75803 .75803 .65222 29.386 382.4)" stroke-width=".74589">
<path d="m357.87 138.84s1.9957-2.4604 2.3356-2.9405c0.4061-0.51189 1.8019-2.531 2.341-3.1048 0.53867-0.57267 2.3788-2.7598 3.1746-4.943 0 0-4.4832 1.4446-5.4551 4.7172-0.97304 3.2721-1.3009 4.4711-1.9894 5.1554-0.63989 0.70075-0.40663 1.1157-0.40663 1.1157z" fill="#30a947" fill-rule="evenodd"/>
<path d="m365.1 128.5c-0.71489 0.45389-3.9903 4.3158-5.4489 7.4123" fill="none"/>
</g>
<g transform="matrix(.63383 -.77347 .77347 .63383 -9.6894 373.84)" stroke-width=".74589">
<path d="m380.08 155.11s2.0895-6.5361 2.454-8.0105c0.2712-1.2279 1.5532-4.683 1.1993-6.176-0.20185-0.85145-1.5061-5.7209-1.5061-5.7209s-1.687 5.3906-1.9446 6.201c-0.23021 0.76856-0.78352 6.1901-0.58948 7.6448 0.17905 1.3837-0.18885 3.9472-0.29514 4.61-0.0616 0.69044 0.68204 1.4516 0.68204 1.4516z" fill="#30a947" fill-rule="evenodd"/>
<path d="m382.31 136.16c-0.28138 1.3421-0.11116 9.8196-1.9143 14.713" fill="none"/>
</g>
<g transform="translate(-.70711 -.17678)" stroke-width=".74589">
<path d="m353.73 148.1s1.8096-1.0447 2.0926-1.821c0.26495-0.72697 1.6426-3.3022 2.7855-3.8755 1.1261-0.52354 4.1498-2.9392 4.3874-3.2916 0.22119-0.30388 0.75931-0.27273-0.28347 1.3801-1.0416 1.6533-1.2631 3.1664-2.1548 4.1053-0.86151 1.0058-3.0194 2.8563-5.1953 3.548-2.193 0.73869-1.8262 0.48789-1.8262 0.48789l0.19434-0.53319z" fill="#30a947" fill-rule="evenodd"/>
<path d="m352.79 149.9s2.7944-2.3888 4.6162-2.7147c1.8049-0.27613 6.1865-1.5915 7.343-2.6548 1.2405-1.1404 1.9344-2.5918 1.9344-2.5918s-2.8183-1.4662-4.1289-0.73585c-1.2935 0.68339-4.061 3.3015-5.1564 4.4961-1.0941 1.1951-4.228 3.4602-4.228 3.4602l-0.38041 0.74077z" fill="#30a947" fill-rule="evenodd"/>
<path d="m366.17 142.3c-0.65197-0.018-3.6174 0.87948-5.0219 2.0173" fill="none"/>
<path d="m362.86 139.62c-0.49427 0.75382-5.8628 7.0405-7.5533 7.9079" fill="none"/>
</g>
<g transform="translate(-24.307 -12.286)" stroke-width=".74589">
<path d="m380.08 155.11s1.3678-1.8249 1.7746-2.4845c0.43372-0.70326 2.9829-5.6224 4.1231-6.1924 1.2114-0.58785 2.5792-2.4127 3.2499-2.9096 0.65396-0.56744 1.9261-1.0561 3.3495-0.90669 0 0-1.6649 0.7326-1.9231 1.5441-0.23021 0.76856-1.2751 3.6415-2.1829 4.7206-0.90717 1.078-3.132 3.4068-4.8238 4.183-1.7026 0.89143-3.5673 2.0456-3.5673 2.0456z" fill="#30a947" fill-rule="evenodd"/>
<path d="m392.05 142.78c-0.76421 0.25565-2.7366 0.79862-5.061 4.7652-2.3248 3.9648-5.7732 6.5082-5.7732 6.5082" fill="none"/>
</g>
<path d="m353.87 146.34s-0.83179-1.7879-0.75249-2.3085c0.0613-0.47124 1.0798-4.1672 1.0325-5.9978-0.0966-1.8486-0.41656-4.4385-0.41656-4.4385s-0.051-1.667-0.29411-1.7556c-0.33941-0.1237-1.0422 1.049-1.1922 1.7634-0.14993 0.71435-1.4853 4.0753-0.97055 6.1308 0.49676 2.1049 1.0889 6.0579 2.2047 7.6726l0.38865-1.0664z" fill="#30a947" fill-rule="evenodd" stroke-width=".74589"/>
<g transform="matrix(.69283 .14703 -.14703 .69283 134.48 -47.829)" stroke-width="1.0531">
<path d="m361.37 196.78s-2.065-4.6988-2.375-6.3512c-0.31-1.7038-1.91-4.0788-1.085-7.435 0.67125-2.9425 1.705-4.1812 1.705-4.1812s0.92875-2.995 1.0325-3.615c0 0 0.5675 1.1875 0.5675 3.2012 0 0.41375 0.8775 4.5438 0.31 6.5062-0.31 1.135-1.0325 2.3225-1.6525 3.6138-0.4125 0.93-0.36125 2.375-0.0512 3.0462 0.36125 0.98125 2.375 5.835 2.375 5.835l-0.82625-0.62z" fill="#30a947" fill-rule="evenodd"/>
<path d="m360.75 176.49c-0.20625 0.67125-1.6 8.0025-1.3938 10.378" fill="none"/>
</g>
<path d="m348.36 166.82s1.7839-1.5126 2.5958-1.7295c2.3197-0.53371 3.9377-0.61924 4.6647-1.2291 1.5487-1.2872 1.6184-2.5333 3.0573-4.1687 1.18-1.3646 2.4979-2.6556 2.8726-2.9265 0 0-5.1967 1.2426-8.2428 3.6112-3.0472 2.368-2.1774 1.5987-4.9477 6.4426z" fill="#30a947" fill-rule="evenodd" stroke-width=".74589"/>
<path d="m347.46 172.76s0.34998-5.1206 0.84182-6.7283c0.51562-1.6532 0.19973-4.4994 2.4873-7.0901 1.9595-2.2955 3.4499-2.9134 3.4499-2.9134s2.212-2.2226 2.5915-2.7237c0 0-0.048 1.3153-0.98207 3.0993-0.19191 0.36655-1.3301 4.4324-2.7432 5.9078-0.80108 0.86173-1.992 1.5786-3.1402 2.435-0.79681 0.63258-1.4216 1.9365-1.4583 2.675-0.13509 1.0369-0.60237 6.271-0.60237 6.271l-0.44442-0.93252z" fill="#30a947" fill-rule="evenodd" stroke-width=".74589"/>
<path d="m359.8 157.77c-0.65788 0.58821-8.354 5.826-9.367 6.8689" fill="none" stroke-width=".74589"/>
<path d="m356.33 154.5c-0.49407 0.49901-5.1293 6.3475-6.0481 8.5472" fill="none" stroke-width=".74589"/>
<path d="m359.41 191.1s0.87875-2.1675 1.4975-2.7362c1.8075-1.5488 3.2012-2.375 3.5625-3.2525 0.775-1.8588 0.25875-2.995 0.775-5.1112 0.4125-1.7562 0.98125-3.5112 1.1875-3.925 0 0-4.0275 3.5112-5.6275 7.0225-1.6012 3.5112-1.1875 2.4262-1.395 8.0025z" fill="#30a947" fill-rule="evenodd" stroke-width=".74589"/>
<path d="m384.13 210.57s-0.65381-1.6142-2.4087-3.1081c-0.57621-0.48273-2.4825-0.81564-4.029-3.1982-1.4318-2.3982-0.87137-4.7069-1.2487-5.4491-0.30514-0.72906-1.467-3.5583-2.1437-4.2838 0 0 0.64059-0.61942 3.8128 3.1572 0.46155 0.4983 1.5081 0.66353 2.4048 2.3627 0.94086 1.6708 2.5823 5.6709 2.6185 6.8303 0.0351 1.1602 0.3403 2.0747 0.3403 2.0747l0.65381 1.6142z" fill="#30a947" fill-rule="evenodd" stroke-width=".74589"/>
<g transform="matrix(.24921 .96845 .96845 -.24921 92.709 -99.014)" stroke-width=".74589">
<path d="m375.21 208.7s-4.6988-1.4975-5.4212-1.3938c-0.7225 0.1025-3.9238 1.0838-5.7825 0.98125-5.215-0.25875-5.525-2.8925-6.5062-3.4088-0.82625-0.36125-4.1825-1.3425-4.905-1.4975 0 0 7.9-0.98 11.411 0 3.51 1.0338 4.3888 1.9112 4.8012 2.3238l0.41375 0.41375s-1.1362-0.82625-0.41375-0.41375c0.67125 0.41375 2.685 1.085 3.305 1.085 0 0 2.2712 1.8062 3.0975 1.91z" fill="#30a947" fill-rule="evenodd"/>
<path d="m371.65 207.1c-1.0838-0.1025-4.905-0.36125-7.3838-1.1875-2.53-0.82625-6.1962-2.22-9.9138-2.3225" fill="none"/>
</g>
<g transform="matrix(.20148 .97949 .97949 -.20148 90.323 -122.14)" stroke-width=".74589">
<path d="m373.3 207.21s-4.1825-4.9562-5.0088-9.5c-0.8775-4.5962 0.41375-8.1588 0.98125-9.0362 0 0 0.51625-0.155 0.2575 1.4975-0.2575 1.6525 0.465 4.8012 1.085 5.525 0.62 0.7225 2.7362 4.2338 2.7362 5.1625 0.0513 0.87875 0.155 2.375 0.155 2.995 0 0.56875 0.0513 1.7038 1.2388 2.9438 1.1875 1.2388 1.9112 1.755 1.9112 1.755s-2.4788-0.98125-3.3562-1.3425z" fill="#30a947" fill-rule="evenodd"/>
<path d="m369.27 191.1c-0.36125 1.4462 0.1025 4.6475 1.9625 9.0362 1.8062 4.3888 1.7038 6.1962 2.7875 6.8675" fill="none"/>
</g>
<path d="m397.41 216.6c-2.375-1.91-3.9238-4.905-7.28-4.8025-3.4088 0.10375-8.675-0.82625-10.844-1.3938-5.4725-1.3938-7.7962-4.2338-10.222-6.6088-1.9625-2.0138-2.5825-2.685-3.6662-3.7175-1.085-0.98125-4.0275-2.375-5.3188-4.0788-1.3938-1.9112-4.0788-8.1588-5.2662-9.5012-0.7225-0.82625-3.6138-6.9188-4.13-7.6925-0.5175-0.82625-3.3562-6.61-3.305-10.018 0.10375-3.4075-0.62123-4.8631-0.88875-8.2725s6.6275-12.761 6.6275-12.761c0.10375-0.72375 4.8338-8.5225 4.6275-9.6062l0.31 0.36125c0.20625 1.135-4.3175 8.5212-4.4725 9.245 0 0-6.9431 9.2269-6.5762 12.761s0.9925 4.865 0.88875 8.2725 2.7888 9.1912 3.305 10.018c0.46375 0.77375 3.4075 6.8662 4.0788 7.6925 1.2388 1.3425 3.9238 7.59 5.3175 9.5012 1.24 1.7038 4.6988 3.0975 5.7838 4.0788 1.135 1.0325 1.3938 1.0325 3.2012 3.2525 1.8062 2.1688 6.9188 5.7825 9.1388 5.99 2.1688 0.20625 5.4725 1.0838 8.8812 0.98 3.4075-0.1025 6.66 1.395 15.025 6.61 0 0-2.6338 1.29-5.215-0.31z" fill="#30a947" fill-rule="evenodd" stroke-width=".74589"/>
<path d="m378.41 209.22s-4.13-5.1112-4.1825-7.5388c-0.155-2.375-0.61875-10.275-0.51625-10.791 0 0 1.3938 4.3888 2.0138 5.5762 0.56875 1.24 2.5825 3.615 2.4788 5.1638-0.10375 1.4975-0.7225 4.595-0.31 5.4725 0.51625 0.98125 0.82625 2.2212 0.82625 2.2212l-0.31-0.10375z" fill="#30a947" fill-rule="evenodd" stroke-width=".74589"/>
<path d="m381.97 210.87s-3.4588 0.36125-4.0788 0.7225c-2.5812 1.7562-7.8488 2.3238-6.5062 2.3238-2.7875 0-4.4912-1.7038-5.3175-1.8075-0.775-0.1025-3.77-0.62-4.75-0.4125 0 0-0.2075-0.87875 4.6988-1.6012 0.67125-0.1025 1.3425-0.8775 3.2525-0.77375 1.91 0.0512 6.2475 0.77375 7.2288 1.3938 0.98125 0.5675 3.7688-0.10375 3.7688-0.10375l1.7038 0.25875z" fill="#30a947" fill-rule="evenodd" stroke-width=".74589"/>
<path d="m370.98 205.09s-1.0838-3.975-2.065-5.7825c-1.0325-1.8075-2.2725-4.13-5.0088-4.905-1.0838-0.31-1.3938-1.1875-1.3938-1.1875s-0.10375 0.5675 0.31 1.5488c0.4125 1.0325 0.20625 1.6525 0.2575 2.22 0.155 0.62 1.0325 1.9625 1.91 2.53 1.085 0.67125 5.7312 5.5762 5.99 5.5762z" fill="#30a947" fill-rule="evenodd" stroke-width=".74589"/>
<path d="m357.19 190.74s-1.445-0.51625-2.065-0.46375c-0.5675 0.0512-2.4788-1.1888-3.305-2.2212-0.46375-0.5675-2.6325-2.9938-5.1112-4.905-2.53-1.91-5.835-4.75-6.145-6.0925-0.30875-1.3938-0.98-5.37-2.375-6.1438 0 0 0.67125-0.155 1.1875 0.20625 0.56875 0.36125 2.7888 1.0325 3.8212 2.6325 0.98125 1.6012 5.0088 8.0038 5.6288 8.7788 0.46375 0.5675 1.0325 1.8588 1.29 2.5812 0.20625 0.67125 3.7175 3.8725 4.2862 4.13 0.51625 0.25875 1.29 0.3625 2.1675 0.41375l0.62 1.0838z" fill="#30a947" fill-rule="evenodd" stroke-width=".74589"/>
<path d="m378.93 210.2s-1.7038-0.36125-3.9238 0.2575c-0.7225 0.2075-2.065 1.6012-4.905 1.55-2.7888-0.155-4.3888-1.9112-5.215-2.0138-0.775-0.155-3.77-0.775-4.75-0.62 0 0-0.155-0.8775 4.75-1.3938 0.67125-0.10375 1.3938-0.87875 3.3038-0.67125 1.9112 0.155 6.145 1.0325 7.1262 1.6512 0.98125 0.62 1.91 0.87875 1.91 0.87875l1.7038 0.36125z" fill="#30a947" fill-rule="evenodd" stroke-width=".74589"/>
<g stroke-width=".74589">
<path d="m375.21 208.7s-4.6988-1.4975-5.4212-1.3938c-0.7225 0.1025-3.9238 1.0838-5.7825 0.98125-5.215-0.25875-5.525-2.8925-6.5062-3.4088-0.82625-0.36125-4.1825-1.3425-4.905-1.4975 0 0 7.9-0.98 11.411 0 3.51 1.0338 4.3888 1.9112 4.8012 2.3238l0.41375 0.41375s-1.1362-0.82625-0.41375-0.41375c0.67125 0.41375 2.685 1.085 3.305 1.085 0 0 2.2712 1.8062 3.0975 1.91z" fill="#30a947" fill-rule="evenodd"/>
<path d="m371.65 207.1c-1.0838-0.1025-4.905-0.36125-7.3838-1.1875-2.53-0.82625-6.1962-2.22-9.9138-2.3225" fill="none"/>
</g>
<path d="m365.35 177.78c-0.31 0.82625-4.6988 9.0362-5.1125 10.43" fill="none" stroke-width=".74589"/>
<g stroke-width=".74589">
<path d="m361.37 196.78s-2.065-4.6988-2.375-6.3512c-0.31-1.7038-1.91-4.0788-1.085-7.435 0.67125-2.9425 1.705-4.1812 1.705-4.1812s0.92875-2.995 1.0325-3.615c0 0 0.5675 1.1875 0.5675 3.2012 0 0.41375 0.8775 4.5438 0.31 6.5062-0.31 1.135-1.0325 2.3225-1.6525 3.6138-0.4125 0.93-0.36125 2.375-0.0512 3.0462 0.36125 0.98125 2.375 5.835 2.375 5.835l-0.82625-0.62z" fill="#30a947" fill-rule="evenodd"/>
<path d="m360.75 176.49c-0.20625 0.67125-1.6 8.0025-1.3938 10.378" fill="none"/>
</g>
<path d="m339.22 171.48c0.7225 0.62 4.2338 5.4212 5.3175 7.6938 1.0838 2.3225 4.3888 4.6988 4.905 5.5238" fill="none" stroke-width=".74589"/>
<g transform="matrix(.99179 -.1279 .1279 .99179 -17.71 46.733)" stroke-width=".74589">
<path d="m353.42 183.25s2.1162-2.2725 2.8912-2.8912c0.7225-0.56875 1.4975-3.46 1.755-6.61 0.2075-3.0462 3.6662-7.28 3.6662-7.28s-0.1025-0.98125-0.82625-0.20625c-0.77375 0.82625-5.7312 7.1775-6.4538 9.81-0.775 2.6338-1.085 6.8162-1.0325 7.1775z" fill="#30a947" fill-rule="evenodd"/>
<path d="m359.82 168.28c-0.67125 0.92875-3.77 6.7125-4.0788 8.52" fill="none"/>
<path d="m347.23 170.6s3.9762 3.0462 4.2338 7.28c0.20625 4.2338 0.465 6.4538-0.1025 8.0038 0 0-4.4412-5.1125-5.37-7.7975-0.87875-2.685 1.2388-7.4862 1.2388-7.4862z" fill="#30a947" fill-rule="evenodd"/>
<path d="m347.33 171.12s-0.41375 2.6325 0.51625 4.4912" fill="none"/>
<path d="m349.45 171.63s1.1875 3.3562 1.7562 3.7688c0.5675 0.41375 2.065 2.375 1.8588 4.9575-0.2075 2.53 0 4.595-1.1875 5.4212 0 0-3.7175-3.305-4.08-7.3325-0.36125-3.975 1.6525-6.815 1.6525-6.815z" fill="#30a947" fill-rule="evenodd"/>
<path d="m349.45 172.46c-0.20625 0.92875 0 9.035 1.7038 12.444" fill="none"/>
</g>
<path d="m353.11 132.44c-0.088 0.84736-1.0162 8.9719-0.40496 11.668" fill="none" stroke-width=".74589"/>
<g stroke-width=".74589">
<path d="m357.87 138.84s1.9957-2.4604 2.3356-2.9405c0.4061-0.51189 1.8019-2.531 2.341-3.1048 0.53867-0.57267 2.3788-2.7598 3.1746-4.943 0 0-4.4832 1.4446-5.4551 4.7172-0.97304 3.2721-1.3009 4.4711-1.9894 5.1554-0.63989 0.70075-0.40663 1.1157-0.40663 1.1157z" fill="#30a947" fill-rule="evenodd"/>
<path d="m365.1 128.5c-0.71489 0.45389-3.9903 4.3158-5.4489 7.4123" fill="none"/>
</g>
<path d="m363.9 195.18c0.5675 1.4975-1.3425-1.7038 0 0s3.9238 3.9238 4.75 6.7112" fill="none" stroke-width=".74589"/>
<path d="m374.18 193.42c0.0513 0.465 2.065 6.9712 2.1688 8.2612 0.1025 1.2912 0.20625 4.2338 1.2912 5.6288" fill="none" stroke-width=".74589"/>
<g stroke-width=".74589">
<path d="m373.3 207.21s-4.1825-4.9562-5.0088-9.5c-0.8775-4.5962 0.41375-8.1588 0.98125-9.0362 0 0 0.51625-0.155 0.2575 1.4975-0.2575 1.6525 0.465 4.8012 1.085 5.525 0.62 0.7225 2.7362 4.2338 2.7362 5.1625 0.0513 0.87875 0.155 2.375 0.155 2.995 0 0.56875 0.0513 1.7038 1.2388 2.9438 1.1875 1.2388 1.9112 1.755 1.9112 1.755s-2.4788-0.98125-3.3562-1.3425z" fill="#30a947" fill-rule="evenodd"/>
<path d="m369.27 191.1c-0.36125 1.4462 0.1025 4.6475 1.9625 9.0362 1.8062 4.3888 1.7038 6.1962 2.7875 6.8675" fill="none"/>
</g>
<path d="m378.36 211.23c-1.0325 0.155-5.8862 1.7038-7.9 1.0838-2.0138-0.61875-5.3188-1.6-8.3125-0.92875" fill="none" stroke-width=".74589"/>
<g transform="matrix(.85115 .52493 -.52493 .85115 135.95 -159.21)" stroke-width=".74589">
<path d="m346.92 161.25s0.20625-2.2712 0.20625-3.0462c0-0.82625-0.4125-6.3512 0.25875-7.435 0.7225-1.1362 0.92875-3.4075 1.2388-4.1825 0.25875-0.82625 1.085-1.91 2.375-2.53 0 0-1.0325 1.4975-0.82625 2.3238 0.2075 0.775 0.82625 3.7688 0.62 5.1638-0.20625 1.3938-0.8775 4.5438-1.91 6.0925-0.98125 1.6525-1.9625 3.6138-1.9625 3.6138z" fill="#30a947" fill-rule="evenodd"/>
<path d="m346.92 161.25s-1.6525-6.66-2.1162-8.1062c-0.41375-1.1875-1.1362-4.8012-2.2212-5.8862-0.61875-0.61875-4.285-4.0788-4.285-4.0788s1.3938 5.4738 1.6 6.2988c0.2075 0.775 2.5825 5.68 3.5112 6.8162 0.87875 1.0838 1.9112 3.4588 2.1688 4.0788 0.31 0.62 1.3425 0.8775 1.3425 0.8775z" fill="#30a947" fill-rule="evenodd"/>
<path d="m350.63 144.47c-0.51625 0.61875-1.91 2.1162-1.8062 6.7125 0.1025 4.595-1.4975 8.57-1.4975 8.57" fill="none"/>
<path d="m338.86 143.96c0.465 1.29 5.06 8.4162 6.0938 13.528" fill="none"/>
</g>
<g transform="matrix(.99818 -.060371 .060371 .99818 -25.793 -9.043)" stroke-width=".74589">
<path d="m361.37 196.78s-2.065-4.6988-2.375-6.3512c-0.31-1.7038-1.91-4.0788-1.085-7.435 0.67125-2.9425 1.705-4.1812 1.705-4.1812s0.92875-2.995 1.0325-3.615c0 0 0.5675 1.1875 0.5675 3.2012 0 0.41375 0.8775 4.5438 0.31 6.5062-0.31 1.135-1.0325 2.3225-1.6525 3.6138-0.4125 0.93-0.36125 2.375-0.0512 3.0462 0.36125 0.98125 2.375 5.835 2.375 5.835l-0.82625-0.62z" fill="#30a947" fill-rule="evenodd"/>
<path d="m360.75 176.49c-0.20625 0.67125-1.6 8.0025-1.3938 10.378" fill="none"/>
</g>
<g transform="matrix(.99179 -.1279 .1279 .99179 -17.71 46.733)" stroke-width=".74589">
<path d="m352.6 166.16s-2.2725 4.6988-1.7562 9.6562c0.5175 4.9562 1.7562 8.4162 2.0138 8.7262 0 0 2.9438-4.1825 2.2725-7.1775-0.62-3.0462-1.5488-5.1638-1.9625-6.2475-0.465-1.1362-0.5675-4.9575-0.5675-4.9575z" fill="#30a947" fill-rule="evenodd"/>
<path d="m352.65 167.09c-0.51625 0.8775-0.8775 6.1962-0.31 7.59 0.62 1.3938 1.085 4.905 0.93 6.2988" fill="none"/>
</g>
</g>
<g transform="matrix(-1 0 0 1 786.1 0)" stroke="#37792d">
<g transform="translate(1.875,3.75)" stroke-width=".74589">
<path d="m347.33 168.48s-1.9112-2.685-2.4275-3.9238c-0.51625-1.1875-1.29-4.4925-1.91-5.99s-1.085-4.13-4.0275-5.6275c-0.775-0.36125-1.755-2.5812-1.755-2.5812s0.2575 7.125 1.0838 8.6225 2.5812 3.3038 4.4925 5.06c1.91 1.8588 4.1812 5.525 4.595 5.9375l-0.0513-1.4975z" fill="#30a947" fill-rule="evenodd"/>
<path d="m337.52 151.29c0.51625 1.3938 5.06 12.082 7.9 15.386" fill="none"/>
</g>
<g stroke-width=".74589">
<path d="m359 196.21s-2.1175-2.8912-2.995-3.5112c-0.7225-0.51625-0.0512-0.93-1.4975-1.7038-1.1362-0.56875-2.4262-0.775-3.3038-1.3938-0.87875-0.62-4.9062-4.08-8.1075-2.5825 0 0 0.62 0.465 1.705 0.67125 1.0838 0.20625 2.1675 1.4975 2.7875 2.1175 0.62 0.61875 2.375 2.7875 3.4075 3.6138 1.0338 0.775 2.5825 0.67125 3.0988 0.775 0.51625 0.1025 1.1875 0.7225 1.4975 0.92875 0.30875 0.155 3.4075 1.085 3.4075 1.085z" fill="#30a947" fill-rule="evenodd"/>
<path d="m344.13 187.07c1.4962 0.15375 4.0788 1.2388 5.9888 2.9425 1.9112 1.7038 5.7312 4.285 6.9188 4.905" fill="none"/>
</g>
<path d="m367.5 202.72s-6.763-6.9388-8.332-6.1541c-1.6182 0.77056-1.0507 1.0403-2.138 2.018-1.1221 0.91313-2.5948 0.0594-3.305 0.28588-0.7098 0.22523-4.7249 0.73754-5.2109 3.1756 0 0-0.8377-4.0007 2.2926-5.3577 3.094-1.4208 5.416-2.9568 7.1091-1.9331 1.658 0.96024 7.0507 4.4438 8.3445 6.4816l1.2397 1.4838z" fill="#30a947" fill-rule="evenodd" stroke-width=".74589"/>
<g transform="matrix(.65222 -.75803 .75803 .65222 29.386 382.4)" stroke-width=".74589">
<path d="m357.87 138.84s1.9957-2.4604 2.3356-2.9405c0.4061-0.51189 1.8019-2.531 2.341-3.1048 0.53867-0.57267 2.3788-2.7598 3.1746-4.943 0 0-4.4832 1.4446-5.4551 4.7172-0.97304 3.2721-1.3009 4.4711-1.9894 5.1554-0.63989 0.70075-0.40663 1.1157-0.40663 1.1157z" fill="#30a947" fill-rule="evenodd"/>
<path d="m365.1 128.5c-0.71489 0.45389-3.9903 4.3158-5.4489 7.4123" fill="none"/>
</g>
<g transform="matrix(.63383 -.77347 .77347 .63383 -9.6894 373.84)" stroke-width=".74589">
<path d="m380.08 155.11s2.0895-6.5361 2.454-8.0105c0.2712-1.2279 1.5532-4.683 1.1993-6.176-0.20185-0.85145-1.5061-5.7209-1.5061-5.7209s-1.687 5.3906-1.9446 6.201c-0.23021 0.76856-0.78352 6.1901-0.58948 7.6448 0.17905 1.3837-0.18885 3.9472-0.29514 4.61-0.0616 0.69044 0.68204 1.4516 0.68204 1.4516z" fill="#30a947" fill-rule="evenodd"/>
<path d="m382.31 136.16c-0.28138 1.3421-0.11116 9.8196-1.9143 14.713" fill="none"/>
</g>
<g transform="translate(-.70711 -.17678)" stroke-width=".74589">
<path d="m353.73 148.1s1.8096-1.0447 2.0926-1.821c0.26495-0.72697 1.6426-3.3022 2.7855-3.8755 1.1261-0.52354 4.1498-2.9392 4.3874-3.2916 0.22119-0.30388 0.75931-0.27273-0.28347 1.3801-1.0416 1.6533-1.2631 3.1664-2.1548 4.1053-0.86151 1.0058-3.0194 2.8563-5.1953 3.548-2.193 0.73869-1.8262 0.48789-1.8262 0.48789l0.19434-0.53319z" fill="#30a947" fill-rule="evenodd"/>
<path d="m352.79 149.9s2.7944-2.3888 4.6162-2.7147c1.8049-0.27613 6.1865-1.5915 7.343-2.6548 1.2405-1.1404 1.9344-2.5918 1.9344-2.5918s-2.8183-1.4662-4.1289-0.73585c-1.2935 0.68339-4.061 3.3015-5.1564 4.4961-1.0941 1.1951-4.228 3.4602-4.228 3.4602l-0.38041 0.74077z" fill="#30a947" fill-rule="evenodd"/>
<path d="m366.17 142.3c-0.65197-0.018-3.6174 0.87948-5.0219 2.0173" fill="none"/>
<path d="m362.86 139.62c-0.49427 0.75382-5.8628 7.0405-7.5533 7.9079" fill="none"/>
</g>
<g transform="translate(-24.307 -12.286)" stroke-width=".74589">
<path d="m380.08 155.11s1.3678-1.8249 1.7746-2.4845c0.43372-0.70326 2.9829-5.6224 4.1231-6.1924 1.2114-0.58785 2.5792-2.4127 3.2499-2.9096 0.65396-0.56744 1.9261-1.0561 3.3495-0.90669 0 0-1.6649 0.7326-1.9231 1.5441-0.23021 0.76856-1.2751 3.6415-2.1829 4.7206-0.90717 1.078-3.132 3.4068-4.8238 4.183-1.7026 0.89143-3.5673 2.0456-3.5673 2.0456z" fill="#30a947" fill-rule="evenodd"/>
<path d="m392.05 142.78c-0.76421 0.25565-2.7366 0.79862-5.061 4.7652-2.3248 3.9648-5.7732 6.5082-5.7732 6.5082" fill="none"/>
</g>
<path d="m353.87 146.34s-0.83179-1.7879-0.75249-2.3085c0.0613-0.47124 1.0798-4.1672 1.0325-5.9978-0.0966-1.8486-0.41656-4.4385-0.41656-4.4385s-0.051-1.667-0.29411-1.7556c-0.33941-0.1237-1.0422 1.049-1.1922 1.7634-0.14993 0.71435-1.4853 4.0753-0.97055 6.1308 0.49676 2.1049 1.0889 6.0579 2.2047 7.6726l0.38865-1.0664z" fill="#30a947" fill-rule="evenodd" stroke-width=".74589"/>
<g transform="matrix(.69283 .14703 -.14703 .69283 134.48 -47.829)" stroke-width="1.0531">
<path d="m361.37 196.78s-2.065-4.6988-2.375-6.3512c-0.31-1.7038-1.91-4.0788-1.085-7.435 0.67125-2.9425 1.705-4.1812 1.705-4.1812s0.92875-2.995 1.0325-3.615c0 0 0.5675 1.1875 0.5675 3.2012 0 0.41375 0.8775 4.5438 0.31 6.5062-0.31 1.135-1.0325 2.3225-1.6525 3.6138-0.4125 0.93-0.36125 2.375-0.0512 3.0462 0.36125 0.98125 2.375 5.835 2.375 5.835l-0.82625-0.62z" fill="#30a947" fill-rule="evenodd"/>
<path d="m360.75 176.49c-0.20625 0.67125-1.6 8.0025-1.3938 10.378" fill="none"/>
</g>
<path d="m348.36 166.82s1.7839-1.5126 2.5958-1.7295c2.3197-0.53371 3.9377-0.61924 4.6647-1.2291 1.5487-1.2872 1.6184-2.5333 3.0573-4.1687 1.18-1.3646 2.4979-2.6556 2.8726-2.9265 0 0-5.1967 1.2426-8.2428 3.6112-3.0472 2.368-2.1774 1.5987-4.9477 6.4426z" fill="#30a947" fill-rule="evenodd" stroke-width=".74589"/>
<path d="m347.46 172.76s0.34998-5.1206 0.84182-6.7283c0.51562-1.6532 0.19973-4.4994 2.4873-7.0901 1.9595-2.2955 3.4499-2.9134 3.4499-2.9134s2.212-2.2226 2.5915-2.7237c0 0-0.048 1.3153-0.98207 3.0993-0.19191 0.36655-1.3301 4.4324-2.7432 5.9078-0.80108 0.86173-1.992 1.5786-3.1402 2.435-0.79681 0.63258-1.4216 1.9365-1.4583 2.675-0.13509 1.0369-0.60237 6.271-0.60237 6.271l-0.44442-0.93252z" fill="#30a947" fill-rule="evenodd" stroke-width=".74589"/>
<path d="m359.8 157.77c-0.65788 0.58821-8.354 5.826-9.367 6.8689" fill="none" stroke-width=".74589"/>
<path d="m356.33 154.5c-0.49407 0.49901-5.1293 6.3475-6.0481 8.5472" fill="none" stroke-width=".74589"/>
<path d="m359.41 191.1s0.87875-2.1675 1.4975-2.7362c1.8075-1.5488 3.2012-2.375 3.5625-3.2525 0.775-1.8588 0.25875-2.995 0.775-5.1112 0.4125-1.7562 0.98125-3.5112 1.1875-3.925 0 0-4.0275 3.5112-5.6275 7.0225-1.6012 3.5112-1.1875 2.4262-1.395 8.0025z" fill="#30a947" fill-rule="evenodd" stroke-width=".74589"/>
<path d="m384.13 210.57s-0.65381-1.6142-2.4087-3.1081c-0.57621-0.48273-2.4825-0.81564-4.029-3.1982-1.4318-2.3982-0.87137-4.7069-1.2487-5.4491-0.30514-0.72906-1.467-3.5583-2.1437-4.2838 0 0 0.64059-0.61942 3.8128 3.1572 0.46155 0.4983 1.5081 0.66353 2.4048 2.3627 0.94086 1.6708 2.5823 5.6709 2.6185 6.8303 0.0351 1.1602 0.3403 2.0747 0.3403 2.0747l0.65381 1.6142z" fill="#30a947" fill-rule="evenodd" stroke-width=".74589"/>
<g transform="matrix(.24921 .96845 .96845 -.24921 92.709 -99.014)" stroke-width=".74589">
<path d="m375.21 208.7s-4.6988-1.4975-5.4212-1.3938c-0.7225 0.1025-3.9238 1.0838-5.7825 0.98125-5.215-0.25875-5.525-2.8925-6.5062-3.4088-0.82625-0.36125-4.1825-1.3425-4.905-1.4975 0 0 7.9-0.98 11.411 0 3.51 1.0338 4.3888 1.9112 4.8012 2.3238l0.41375 0.41375s-1.1362-0.82625-0.41375-0.41375c0.67125 0.41375 2.685 1.085 3.305 1.085 0 0 2.2712 1.8062 3.0975 1.91z" fill="#30a947" fill-rule="evenodd"/>
<path d="m371.65 207.1c-1.0838-0.1025-4.905-0.36125-7.3838-1.1875-2.53-0.82625-6.1962-2.22-9.9138-2.3225" fill="none"/>
</g>
<g transform="matrix(.20148 .97949 .97949 -.20148 90.323 -122.14)" stroke-width=".74589">
<path d="m373.3 207.21s-4.1825-4.9562-5.0088-9.5c-0.8775-4.5962 0.41375-8.1588 0.98125-9.0362 0 0 0.51625-0.155 0.2575 1.4975-0.2575 1.6525 0.465 4.8012 1.085 5.525 0.62 0.7225 2.7362 4.2338 2.7362 5.1625 0.0513 0.87875 0.155 2.375 0.155 2.995 0 0.56875 0.0513 1.7038 1.2388 2.9438 1.1875 1.2388 1.9112 1.755 1.9112 1.755s-2.4788-0.98125-3.3562-1.3425z" fill="#30a947" fill-rule="evenodd"/>
<path d="m369.27 191.1c-0.36125 1.4462 0.1025 4.6475 1.9625 9.0362 1.8062 4.3888 1.7038 6.1962 2.7875 6.8675" fill="none"/>
</g>
<path d="m397.41 216.6c-2.375-1.91-3.9238-4.905-7.28-4.8025-3.4088 0.10375-8.675-0.82625-10.844-1.3938-5.4725-1.3938-7.7962-4.2338-10.222-6.6088-1.9625-2.0138-2.5825-2.685-3.6662-3.7175-1.085-0.98125-4.0275-2.375-5.3188-4.0788-1.3938-1.9112-4.0788-8.1588-5.2662-9.5012-0.7225-0.82625-3.6138-6.9188-4.13-7.6925-0.5175-0.82625-3.3562-6.61-3.305-10.018 0.10375-3.4075-0.62123-4.8631-0.88875-8.2725s6.6275-12.761 6.6275-12.761c0.10375-0.72375 4.8338-8.5225 4.6275-9.6062l0.31 0.36125c0.20625 1.135-4.3175 8.5212-4.4725 9.245 0 0-6.9431 9.2269-6.5762 12.761s0.9925 4.865 0.88875 8.2725 2.7888 9.1912 3.305 10.018c0.46375 0.77375 3.4075 6.8662 4.0788 7.6925 1.2388 1.3425 3.9238 7.59 5.3175 9.5012 1.24 1.7038 4.6988 3.0975 5.7838 4.0788 1.135 1.0325 1.3938 1.0325 3.2012 3.2525 1.8062 2.1688 6.9188 5.7825 9.1388 5.99 2.1688 0.20625 5.4725 1.0838 8.8812 0.98 3.4075-0.1025 6.66 1.395 15.025 6.61 0 0-2.6338 1.29-5.215-0.31z" fill="#30a947" fill-rule="evenodd" stroke-width=".74589"/>
<path d="m378.41 209.22s-4.13-5.1112-4.1825-7.5388c-0.155-2.375-0.61875-10.275-0.51625-10.791 0 0 1.3938 4.3888 2.0138 5.5762 0.56875 1.24 2.5825 3.615 2.4788 5.1638-0.10375 1.4975-0.7225 4.595-0.31 5.4725 0.51625 0.98125 0.82625 2.2212 0.82625 2.2212l-0.31-0.10375z" fill="#30a947" fill-rule="evenodd" stroke-width=".74589"/>
<path d="m381.97 210.87s-3.4588 0.36125-4.0788 0.7225c-2.5812 1.7562-7.8488 2.3238-6.5062 2.3238-2.7875 0-4.4912-1.7038-5.3175-1.8075-0.775-0.1025-3.77-0.62-4.75-0.4125 0 0-0.2075-0.87875 4.6988-1.6012 0.67125-0.1025 1.3425-0.8775 3.2525-0.77375 1.91 0.0512 6.2475 0.77375 7.2288 1.3938 0.98125 0.5675 3.7688-0.10375 3.7688-0.10375l1.7038 0.25875z" fill="#30a947" fill-rule="evenodd" stroke-width=".74589"/>
<path d="m370.98 205.09s-1.0838-3.975-2.065-5.7825c-1.0325-1.8075-2.2725-4.13-5.0088-4.905-1.0838-0.31-1.3938-1.1875-1.3938-1.1875s-0.10375 0.5675 0.31 1.5488c0.4125 1.0325 0.20625 1.6525 0.2575 2.22 0.155 0.62 1.0325 1.9625 1.91 2.53 1.085 0.67125 5.7312 5.5762 5.99 5.5762z" fill="#30a947" fill-rule="evenodd" stroke-width=".74589"/>
<path d="m357.19 190.74s-1.445-0.51625-2.065-0.46375c-0.5675 0.0512-2.4788-1.1888-3.305-2.2212-0.46375-0.5675-2.6325-2.9938-5.1112-4.905-2.53-1.91-5.835-4.75-6.145-6.0925-0.30875-1.3938-0.98-5.37-2.375-6.1438 0 0 0.67125-0.155 1.1875 0.20625 0.56875 0.36125 2.7888 1.0325 3.8212 2.6325 0.98125 1.6012 5.0088 8.0038 5.6288 8.7788 0.46375 0.5675 1.0325 1.8588 1.29 2.5812 0.20625 0.67125 3.7175 3.8725 4.2862 4.13 0.51625 0.25875 1.29 0.3625 2.1675 0.41375l0.62 1.0838z" fill="#30a947" fill-rule="evenodd" stroke-width=".74589"/>
<path d="m378.93 210.2s-1.7038-0.36125-3.9238 0.2575c-0.7225 0.2075-2.065 1.6012-4.905 1.55-2.7888-0.155-4.3888-1.9112-5.215-2.0138-0.775-0.155-3.77-0.775-4.75-0.62 0 0-0.155-0.8775 4.75-1.3938 0.67125-0.10375 1.3938-0.87875 3.3038-0.67125 1.9112 0.155 6.145 1.0325 7.1262 1.6512 0.98125 0.62 1.91 0.87875 1.91 0.87875l1.7038 0.36125z" fill="#30a947" fill-rule="evenodd" stroke-width=".74589"/>
<g stroke-width=".74589">
<path d="m375.21 208.7s-4.6988-1.4975-5.4212-1.3938c-0.7225 0.1025-3.9238 1.0838-5.7825 0.98125-5.215-0.25875-5.525-2.8925-6.5062-3.4088-0.82625-0.36125-4.1825-1.3425-4.905-1.4975 0 0 7.9-0.98 11.411 0 3.51 1.0338 4.3888 1.9112 4.8012 2.3238l0.41375 0.41375s-1.1362-0.82625-0.41375-0.41375c0.67125 0.41375 2.685 1.085 3.305 1.085 0 0 2.2712 1.8062 3.0975 1.91z" fill="#30a947" fill-rule="evenodd"/>
<path d="m371.65 207.1c-1.0838-0.1025-4.905-0.36125-7.3838-1.1875-2.53-0.82625-6.1962-2.22-9.9138-2.3225" fill="none"/>
</g>
<path d="m365.35 177.78c-0.31 0.82625-4.6988 9.0362-5.1125 10.43" fill="none" stroke-width=".74589"/>
<g stroke-width=".74589">
<path d="m361.37 196.78s-2.065-4.6988-2.375-6.3512c-0.31-1.7038-1.91-4.0788-1.085-7.435 0.67125-2.9425 1.705-4.1812 1.705-4.1812s0.92875-2.995 1.0325-3.615c0 0 0.5675 1.1875 0.5675 3.2012 0 0.41375 0.8775 4.5438 0.31 6.5062-0.31 1.135-1.0325 2.3225-1.6525 3.6138-0.4125 0.93-0.36125 2.375-0.0512 3.0462 0.36125 0.98125 2.375 5.835 2.375 5.835l-0.82625-0.62z" fill="#30a947" fill-rule="evenodd"/>
<path d="m360.75 176.49c-0.20625 0.67125-1.6 8.0025-1.3938 10.378" fill="none"/>
</g>
<path d="m339.22 171.48c0.7225 0.62 4.2338 5.4212 5.3175 7.6938 1.0838 2.3225 4.3888 4.6988 4.905 5.5238" fill="none" stroke-width=".74589"/>
<g transform="matrix(.99179 -.1279 .1279 .99179 -17.71 46.733)" stroke-width=".74589">
<path d="m353.42 183.25s2.1162-2.2725 2.8912-2.8912c0.7225-0.56875 1.4975-3.46 1.755-6.61 0.2075-3.0462 3.6662-7.28 3.6662-7.28s-0.1025-0.98125-0.82625-0.20625c-0.77375 0.82625-5.7312 7.1775-6.4538 9.81-0.775 2.6338-1.085 6.8162-1.0325 7.1775z" fill="#30a947" fill-rule="evenodd"/>
<path d="m359.82 168.28c-0.67125 0.92875-3.77 6.7125-4.0788 8.52" fill="none"/>
<path d="m347.23 170.6s3.9762 3.0462 4.2338 7.28c0.20625 4.2338 0.465 6.4538-0.1025 8.0038 0 0-4.4412-5.1125-5.37-7.7975-0.87875-2.685 1.2388-7.4862 1.2388-7.4862z" fill="#30a947" fill-rule="evenodd"/>
<path d="m347.33 171.12s-0.41375 2.6325 0.51625 4.4912" fill="none"/>
<path d="m349.45 171.63s1.1875 3.3562 1.7562 3.7688c0.5675 0.41375 2.065 2.375 1.8588 4.9575-0.2075 2.53 0 4.595-1.1875 5.4212 0 0-3.7175-3.305-4.08-7.3325-0.36125-3.975 1.6525-6.815 1.6525-6.815z" fill="#30a947" fill-rule="evenodd"/>
<path d="m349.45 172.46c-0.20625 0.92875 0 9.035 1.7038 12.444" fill="none"/>
</g>
<path d="m353.11 132.44c-0.088 0.84736-1.0162 8.9719-0.40496 11.668" fill="none" stroke-width=".74589"/>
<g stroke-width=".74589">
<path d="m357.87 138.84s1.9957-2.4604 2.3356-2.9405c0.4061-0.51189 1.8019-2.531 2.341-3.1048 0.53867-0.57267 2.3788-2.7598 3.1746-4.943 0 0-4.4832 1.4446-5.4551 4.7172-0.97304 3.2721-1.3009 4.4711-1.9894 5.1554-0.63989 0.70075-0.40663 1.1157-0.40663 1.1157z" fill="#30a947" fill-rule="evenodd"/>
<path d="m365.1 128.5c-0.71489 0.45389-3.9903 4.3158-5.4489 7.4123" fill="none"/>
</g>
<path d="m363.9 195.18c0.5675 1.4975-1.3425-1.7038 0 0s3.9238 3.9238 4.75 6.7112" fill="none" stroke-width=".74589"/>
<path d="m374.18 193.42c0.0513 0.465 2.065 6.9712 2.1688 8.2612 0.1025 1.2912 0.20625 4.2338 1.2912 5.6288" fill="none" stroke-width=".74589"/>
<g stroke-width=".74589">
<path d="m373.3 207.21s-4.1825-4.9562-5.0088-9.5c-0.8775-4.5962 0.41375-8.1588 0.98125-9.0362 0 0 0.51625-0.155 0.2575 1.4975-0.2575 1.6525 0.465 4.8012 1.085 5.525 0.62 0.7225 2.7362 4.2338 2.7362 5.1625 0.0513 0.87875 0.155 2.375 0.155 2.995 0 0.56875 0.0513 1.7038 1.2388 2.9438 1.1875 1.2388 1.9112 1.755 1.9112 1.755s-2.4788-0.98125-3.3562-1.3425z" fill="#30a947" fill-rule="evenodd"/>
<path d="m369.27 191.1c-0.36125 1.4462 0.1025 4.6475 1.9625 9.0362 1.8062 4.3888 1.7038 6.1962 2.7875 6.8675" fill="none"/>
</g>
<path d="m378.36 211.23c-1.0325 0.155-5.8862 1.7038-7.9 1.0838-2.0138-0.61875-5.3188-1.6-8.3125-0.92875" fill="none" stroke-width=".74589"/>
<g transform="matrix(.85115 .52493 -.52493 .85115 135.95 -159.21)" stroke-width=".74589">
<path d="m346.92 161.25s0.20625-2.2712 0.20625-3.0462c0-0.82625-0.4125-6.3512 0.25875-7.435 0.7225-1.1362 0.92875-3.4075 1.2388-4.1825 0.25875-0.82625 1.085-1.91 2.375-2.53 0 0-1.0325 1.4975-0.82625 2.3238 0.2075 0.775 0.82625 3.7688 0.62 5.1638-0.20625 1.3938-0.8775 4.5438-1.91 6.0925-0.98125 1.6525-1.9625 3.6138-1.9625 3.6138z" fill="#30a947" fill-rule="evenodd"/>
<path d="m346.92 161.25s-1.6525-6.66-2.1162-8.1062c-0.41375-1.1875-1.1362-4.8012-2.2212-5.8862-0.61875-0.61875-4.285-4.0788-4.285-4.0788s1.3938 5.4738 1.6 6.2988c0.2075 0.775 2.5825 5.68 3.5112 6.8162 0.87875 1.0838 1.9112 3.4588 2.1688 4.0788 0.31 0.62 1.3425 0.8775 1.3425 0.8775z" fill="#30a947" fill-rule="evenodd"/>
<path d="m350.63 144.47c-0.51625 0.61875-1.91 2.1162-1.8062 6.7125 0.1025 4.595-1.4975 8.57-1.4975 8.57" fill="none"/>
<path d="m338.86 143.96c0.465 1.29 5.06 8.4162 6.0938 13.528" fill="none"/>
</g>
<g transform="matrix(.99818 -.060371 .060371 .99818 -25.793 -9.043)" stroke-width=".74589">
<path d="m361.37 196.78s-2.065-4.6988-2.375-6.3512c-0.31-1.7038-1.91-4.0788-1.085-7.435 0.67125-2.9425 1.705-4.1812 1.705-4.1812s0.92875-2.995 1.0325-3.615c0 0 0.5675 1.1875 0.5675 3.2012 0 0.41375 0.8775 4.5438 0.31 6.5062-0.31 1.135-1.0325 2.3225-1.6525 3.6138-0.4125 0.93-0.36125 2.375-0.0512 3.0462 0.36125 0.98125 2.375 5.835 2.375 5.835l-0.82625-0.62z" fill="#30a947" fill-rule="evenodd"/>
<path d="m360.75 176.49c-0.20625 0.67125-1.6 8.0025-1.3938 10.378" fill="none"/>
</g>
<g transform="matrix(.99179 -.1279 .1279 .99179 -17.71 46.733)" stroke-width=".74589">
<path d="m352.6 166.16s-2.2725 4.6988-1.7562 9.6562c0.5175 4.9562 1.7562 8.4162 2.0138 8.7262 0 0 2.9438-4.1825 2.2725-7.1775-0.62-3.0462-1.5488-5.1638-1.9625-6.2475-0.465-1.1362-0.5675-4.9575-0.5675-4.9575z" fill="#30a947" fill-rule="evenodd"/>
<path d="m352.65 167.09c-0.51625 0.8775-0.8775 6.1962-0.31 7.59 0.62 1.3938 1.085 4.905 0.93 6.2988" fill="none"/>
</g>
</g>
<g transform="matrix(.85509 0 0 .85509 57.006 30.924)" fill="#d40000" fill-rule="evenodd" stroke="#500">
<g transform="matrix(.2656 -.12967 -.13515 -.23161 276.1 291.41)" stroke-width="3.1027">
<path d="m432.32 71.008c1.147 0.8919 11.215 7.6897 12.66 8.5394 1.487 0.8919 2.082 0.8919 3.271 0.5947 1.147-0.2974 24.769-3.2291 27.997-4.1211 3.271-0.892 12.108-0.5947 13.892-0.892 1.743-0.2973 4.717 1.1893 5.609 1.4866 0.892 0.2974 2.039 10.919 2.039 10.919s-2.337 1.1893-3.527 1.784c-1.189 0.5524-18.863 5.5654-22.431 5.3104-3.526-0.2973-25.066 1.7417-27.742 1.7417-2.634 0-2.932-0.2973-4.716-1.1893-2.932-1.4444-21.837-13.85-24.174-16.484-1.274-1.4444-2.676-2.6767-1.19-4.7587 1.488-2.0391 3.23-8.5388 3.23-10.324 0-1.7417 0.594-3.5264 2.082-3.8237 1.486-0.2974 5.31 0.5946 7.094 0.8927 1.742 0.2973 2.932-0.2981 2.932-0.2981l0.892-3.2284s2.931 0.5524 2.676 3.8238c-0.297 3.2284-0.594 10.026-0.594 10.026z"/>
<path d="m430.23 57.158s4.121 3.8238-2.082 4.4184"/>
<path d="m432.32 71.008s-8.795-6.0757-10.919-7.3925c-2.677-1.6142-1.487-1.9115 2.209-1.1471"/>
</g>
<g transform="matrix(.26245 .03872 .044503 -.30165 256.58 215.06)" stroke-width="3.067">
<path d="m557.39 71.008c-1.189 0.8919-12.405 8.5394-13.85 9.4313-1.487 0.8921-2.081 0.8921-3.271 0.5948-1.147-0.2974-23.579-4.1211-26.85-5.0131-3.229-0.892-12.066-0.5947-13.85-0.892s-4.715 1.1893-5.608 1.4866c-0.892 0.2974 2.932 7.0952 2.932 7.0952s-2.635 5.013-1.445 5.6077c1.19 0.5524 18.863 5.5654 22.432 5.3104 3.526-0.2973 22.687 2.9317 25.363 2.9317 2.634 0 2.931-0.2973 4.715-1.19 2.932-1.4867 24.174-15.039 26.553-17.673 1.232-1.4444 2.635-2.6767 1.19-4.7587-1.487-2.0391-3.271-8.5388-3.271-10.324 0-1.7417-0.595-3.5264-2.039-3.8237-1.488-0.2974-5.311 0.5946-7.095 0.8927-1.785 0.2973-2.932-0.2981-2.932-0.2981l-0.892-3.2284s-2.974 0.5524-2.677 3.8238c0.298 3.2284 0.595 10.026 0.595 10.026z"/>
<path d="m559.47 57.158s-4.163 3.8238 2.039 4.4184"/>
<path d="m557.39 71.008s8.794-6.0757 10.919-7.3925c2.676-1.6142 1.486-1.9115-2.21-1.1471"/>
</g>
<path d="m392.83 209.4s2.1603-0.57877 2.4564-0.97397c0.29641-0.39521 0.59283-0.87542 0.87528-1.3695 0.29675-0.49403 1.0873-1.087 1.7649-1.4682 0.69185-0.39524 2.8518-1.567 3.2469-1.8634 0.38115-0.29641 0.48018 0 0.97398 0 0.49446 0 1.4684 0.57877 1.8639 1.7647 0.39511 1.1718 1.6658 4.5035 1.8636 4.9975 0.19739 0.4943-2.8518 1.7649-3.9248 2.0613-1.073 0.29641-3.233 0.29641-3.9245-0.0988-0.6779-0.39544-4.9978-2.1601-5.2942-2.1601-0.29641 0 0.0987-0.88947 0.0987-0.88947z" stroke-width=".87229"/>
<path d="m394.52 209.69s-2.146-0.57877-2.4424-0.97398c-0.29641-0.3952-0.59283-0.87541-0.88957-1.3694-0.28213-0.49403-1.0727-1.0871-1.7645-1.4682-0.67757-0.39524-2.8375-1.567-3.233-1.8634-0.39511-0.29641-0.4938 0-0.97398 0-0.49413 0-1.4681 0.57877-1.8636 1.7647-0.39543 1.1718-1.6658 4.5035-1.8635 4.9975-0.19772 0.4943 2.8378 1.7649 3.9248 2.0613 1.0727 0.29641 3.233 0.29641 3.9105-0.0988 0.69185-0.39544 5.0118-2.1601 5.2942-2.1601 0.29641 0-0.099-0.88947-0.099-0.88947z" stroke-width=".87229"/>
<path d="m391.22 207.06c0.57887-0.0988 0.53667-0.39521 1.5811-0.56472 0.50842-0.0707 0.69185 0.32473 1.0587 0.56472-0.15519-0.18357-0.63503-0.46592-0.46556-0.5364 1.1577-0.5507 1.8071 0.0141 2.1882 0.57876 0.70581 1.0588 1.5106 1.9342 1.6519 2.8941 0.0565 0.39524 0.014 0.6352-0.3107 1.1716-0.29641 0.46592-0.77626 0.88947-1.2142 0.63543-0.0987-0.0564 0.21201-0.39521 0.21201-0.63543-0.29642 1.2142-1.5106 2.1601-2.5132 2.753-1.0305 0.59303-1.8493-0.81876-2.6823-1.3692 0.93177-0.31066 1.7226-0.55065 2.7528-0.83301 0 0.28236-0.0987 0.23999-0.0987 0.53637 0.0708-0.47995 0.0987-0.56472 0.18343-1.0447 0.0851-0.50806 0.24026-1.2847 0.0286-1.9058-0.21201-0.63517-0.39544-1.1151-0.6779-1.6235-0.31037-0.53641-1.1152-0.38115-1.6941-0.62114z" stroke-width=".87229"/>
</g>
</g>
<g transform="translate(1.7704)" stroke-width=".74589">
<g fill-rule="evenodd" stroke="#504416" stroke-width=".74589">
<rect transform="matrix(0,-1,-1,0,0,0)" x="-173.2" y="-376.72" width="43.524" height="2.2684" fill="#ad7b10"/>
<rect transform="matrix(0,-1,-1,0,0,0)" x="-173.2" y="-409.59" width="43.524" height="2.2684" fill="#ad7b10"/>
<rect x="365.84" y="177.64" width="51.53" height="3.2704" fill="#a57b29"/>
<rect x="368.88" y="174.95" width="46.125" height="2.5175" fill="#dea539"/>
<rect transform="scale(1,-1)" x="371.86" y="-174.92" width="40.2" height="2.2684" fill="#dea539"/>
<rect transform="scale(1,-1)" x="365.84" y="-126.04" width="51.53" height="3.2704" fill="#a57b29"/>
<rect transform="scale(1,-1)" x="368.88" y="-128.74" width="46.125" height="2.5175" fill="#dea539"/>
<rect x="371.86" y="128.77" width="40.2" height="2.2684" fill="#dea539"/>
</g>
<path d="m401.62 163.3 4.125 9.3244h-27l4.625-9.2017z" fill="#de8787" stroke="#c83737" stroke-width=".74589"/>
<path d="m402.12 132.88-5.875-0.125-4 17.625 4.25 12.875 2.5 0.125-5.5-13.625z" fill="#87decd"/>
<path d="m380.62 131.16h24.25l-8.875 19.508 9.75 21.961h-27l10.75-22.084z" fill="none" stroke="#333" stroke-width=".74589"/>
</g>
</g>
</g>
</g>
</svg>
