<?xml version="1.0" encoding="utf-8"?>
<!-- Generator: Adobe Illustrator 26.0.3, SVG Export Plug-In . SVG Version: 6.00 Build 0)  -->
<svg version="1.1" id="Layer_1" xmlns="http://www.w3.org/2000/svg" xmlns:xlink="http://www.w3.org/1999/xlink" x="0px" y="0px"
	 viewBox="0 0 596.3 533" style="enable-background:new 0 0 596.3 533;" xml:space="preserve">
<style type="text/css">
	.st0{fill:#FFFFFF;}
	.st1{fill:none;stroke:#000000;stroke-width:2.5;stroke-linecap:round;}
	.st2{fill:#F7D618;stroke:#000000;stroke-width:0.5426;}
	.st3{fill:#E3ADA5;stroke:#000000;stroke-width:0.5426;}
	.st4{fill:#FFFFFF;stroke:#000000;stroke-width:2.0507;}
	.st5{fill:#FFFFFF;stroke:#000000;stroke-width:0.5426;}
	.st6{fill:#789497;}
	.st7{fill:#007FFF;}
	.st8{fill:#F7D618;}
	.st9{fill:#CE1021;}
	.st10{fill:none;stroke:#000000;stroke-width:5;stroke-miterlimit:10;}
	.st11{fill:none;stroke:#F7D618;stroke-miterlimit:10;}
</style>
<rect class="st0" width="596.7" height="533"/>
<path id="Sankuru_00000023256093955561063830000006890370816059933879_" class="st1" d="M421.7,301.6c-1.4-0.6-5,2.9-5.7,5.2
	c-0.7,2.3-4.2,5.2-7.8,5.8c-3.5,0.6-3.2,4.5-5,4.8s-5.7,6.5-5.7,6.5s-1.4,9.7-1.4,11.3s0,2.9-1.8,4.2s-6,5.2-7.8,7.1
	c-1.8,1.9-6.4,3.2-9.6,4.2c-3.2,1-24.8-1.3-24.8-1.3s0.4,4.5,1.1,6.1c0.7,1.6-0.4,9.1-0.4,9.1s0.7,1.6,2.8,2.6c2.1,1,4.6,2.3,6,3.6
	c1.4,1.3,1.1,3.6,0.4,4.8c-0.7,1.3-1.4,4.2-3.5,4.5c-2.1,0.3-8.5,0.3-10.6,0.6c-2.1,0.3-5.3,0-7.4-0.6s-3.2-1.6-6.4-1.6
	c-3.2,0-6.3,0.7-6.3,0.7l0-0.3c-0.3-0.4-0.9-1-2-1.2c0,0,0,0,0,0c-0.2-0.4-0.8-1.4-2.2-1.5c-0.1-0.1-0.2-0.2-0.3-0.3
	c0-0.2,0.1-0.4,0.1-0.7c0-0.1,0-0.2,0-0.3c0.2-0.2,0.4-0.4,0.5-0.6c0.8-0.5,2-1.5,1.6-2.9c-0.1-0.3-0.3-0.8-0.9-1.3
	c0.4-0.5,0.8-1.1,1-2c0.1-0.4,0.2-0.8,0.2-1.2c0-0.4,0.1-0.7,0.2-1c0.1-0.3,0.5-1.4-0.4-2.4c0.2-0.2,0.4-0.4,0.6-0.7
	c0.2-0.3,0.3-0.5,0.5-0.8l-3.5-2.4l0.9-0.8l0.2-0.8l0-1l0-1.9l-0.1-0.9l0.1-1l-0.1-0.8v-1.9l0.1-2l-0.2-4.8l-0.1-0.9l-0.2-0.9
	l-0.5-0.8l-5.5-1.4l-1.2-0.4l-2.2-1.2l-3.1-1.6l-1.1-0.6l-1-0.5l-1-0.4l-4.2-1l-2.3-0.7l-1.1-0.4l-1.1-0.8l-0.2-0.9l-0.1-1l-0.5-1
	l-0.9-0.7l-1,0.1l-2.1,0.5l-1.3,0.4l-4.3,1.6l-1.3,0.4l-2.1,0.3h-1l-2.1-0.4l-1.1-0.9l-1-1.7l-1.8-1.9l-1.9-2.1l-0.7-0.9l-0.9-0.9
	l-4.5-3.6l-2.3-1.7l-4.3-3.2L262,313l-1.3-1l-0.9-0.8l-0.6-0.8l-0.3-1l-0.1-1.1l-0.2-3.4l0.1-1.7l0.2-0.9l0.3-0.8l1-1.7l0.4-0.9
	l0.8-0.8l1-0.5l6.2-1.5l3.4-0.6l2.1-0.5l0.9-0.4l1.1-0.7l1-1.1l0.4-0.8l-0.1-0.9l0.1-1l-0.2-1.8l-1.3-5.7l-0.4-2.1l-0.7-1.8l-1-1.9
	l-1-0.9l-2-0.1h-2.1l-3.4-0.3l-2-0.3l-3.1-0.8l-1.2-0.2l-1-0.1l-1.2,0l-1.2,0.1h-1.3l-2.2-0.2l-1.1-0.3l-1.1-0.5l-1-0.7l-0.8-0.9
	l-1.3-2.1l-0.7-0.9l-1-1.1l-1.8-1.7l-0.7-0.8l-7.3-6.8l-0.9-0.7l-2.1-1.4l-2.2-1.4l-2.5-1.1l-2.4-1l-3.3-1l-2.3-1.3l-1.5-1l-2-1.6
	l-1-0.6l-1-0.7l-1-0.8l-1.1-1.1l-1.8-2.9l-0.9-0.8l-1-0.7l-1.9-1.8l-1.7-1.9l0.2,0.2c-1,0.5-2.2,0.8-3.7,0.8c0,0,0,0-0.1,0
	c-0.7,0-1.4,0.4-2.3,0.8c-0.6,0.3-1.2,0.5-1.8,0.8c-0.6,0.2-1.1,0.5-1.7,0.8l-0.4,0.2c-1.2,0.7-2.3,0.6-3.1,0.5c-0.2,0-0.3,0-0.5,0
	c-2.9,0-4.7-2-5.9-3.3l-0.4-0.4c-0.2-0.3-0.6-0.7-0.8-0.8c-0.2-0.1-0.7-0.2-1.1-0.2c-0.5-0.1-0.9-0.1-1.4-0.2
	c-0.5-0.1-1.1-0.1-1.8,0l0.1-2l0-0.7l0.9-1.6l0.7-0.9l1-0.6l1-0.4l1.2-0.4l2-0.3l1.1-0.1l2.2,0.4l1,0.1l2.1-0.1l1.4-0.3l0.6-1
	l0.2-1.2v-1l-1-2.4l-1-2.1l-1.3-3.1l-0.5-1l-0.3-0.9l-1.7-3l-0.9-0.9l-0.9-0.4l-1.3-0.4l-0.9-0.1l-2.1-0.5l-2-0.3l-0.9-0.2l-0.9-0.4
	l-1-0.6l-0.9-0.8l-0.7-0.9l-0.6-1.1l-0.3-1l-0.2-1l-0.1-0.9l-0.1-1.8l0.2-2.4l0.3-1.7l0.5-1l0.8-1l3.1-2.4l1-1.2l1.1-2.3l0.3-1.2
	l0.2-2v-0.9l0.3-1.1l1-1.1l0.7-1.2l1.1-1.2l1-1.6l1.1-2.4l1.9-4.4l2.9-7.5l1.1-3.2l0.3-1.2l0.1-0.8v-1.1l-0.5-1.9l-0.4-1.1l-1-2.4
	l-0.6-1.3l-3.1-4.8l-1.2-1.7l-1.3-1.7l-0.8-1l-1.8-1.9l-1-0.8l-1-1l-1-0.8l-1-1l-2.1-1.4l-0.6-1l-0.3-0.9l-0.1-0.9l-0.3-1l-0.2-0.9
	l-0.3-2.1v-0.8l-0.2-1.3L176,125l-0.6-1l-1-0.9l-2.4-1.7l-1.6-1.2l1-1l0.6-0.8l1.2-2.1l0.6-0.9l0.9-0.9l2-1.2l1-0.4l0.9-0.2l2-0.7
	l1-0.4l1.3-0.6l1.1-0.9l2.5-2.9l1.3-0.9l0.8-1.2l1.1-0.7l0.9-0.5h1l2,1.1l0.8,0.8l0.4,0.9l0.3,0.9l0.2,0.8l-0.1,1.9l-0.5,1.9l-0.4,2
	l0.1,0.9l0.3,0.8l0.9,1l1.2,0.6l1.1,0.4l2.1,0.4l1.1-0.2l1-0.5l0.9-0.9l0.5-1l0.2-0.9l-0.2-1.9l-0.2-1l-0.5-1.8l-1.1-2.9l-0.6-1.7
	l-0.9-1.9l-1.3-4l-0.5-1.8l-0.7-4.9l-0.2-0.9l-0.3-2.1l-1-4.4l-0.7-2.1l-1.8-3.1l-0.5-1.1l-0.3-1.1l-0.2-0.9l0-0.9l0.6-0.8l1.1-0.3
	l1,0l1.4,0.2l6.8,2.1l2.2,0.5l4.9,0.6l4.5,0.5l1.9,0.1l1-0.1l3.4,0.3l0.9-0.2l1-0.8l0.6-0.8l1.7-1.7l0.9-1l1.6-1.9l0.7-0.9l1-1.9
	l1.3-2.8l0.4,0.2l0.3,0.3l0.2,0.4l0.2,0.3l0.4,0.1l1.1-0.5l1,0l0.4-0.2l0.6,0l0.9,0.2l0.9,0.7l1.4,0.8l0.5,0.1l1.6,0.6l0.7,0.4
	l0.2,0.3l0.3,0.3l0.4,0.2l1.6,0.1h1.7l1.4,0.3l0.4,0.2l0.6,0.5l0.4,0.2l1,0.2l0.3,0.2l1.6,0.7l0.9,0.7l1.8,1.1l0.6,0.5l0.2,0.4
	l0.5,0.6l0.5,1.1l1.1,1.6l3-1.4l1.9-0.7l0.9-0.3l2.3-0.3h0.9l2.5,0.3l1.9,0.6l1.1,0.5l1,0.6l1.2,0.8l1.6,1.8l0.7,1l0.7,1l0.9,1.7
	l1.5,2.2l0.7,0.9l1,0.6l1-0.4l2.8-1.7l1.1-0.4l1.1-0.2l2.2-0.2l2.8-0.4l2.7-0.6l3.1-0.8l2.4-0.5l4.2-0.6l3.7-0.3l3,0l2.1,0.2
	l2.1,0.4l4.1,0.6l1.3-0.2l0-2.8l-0.1-1.1l-0.2-0.9l0.6-1.8l5.3-0.6l1.1-0.5l0.5-0.9L328,74l0-5.9l0.5-1l1-0.9l0.9-0.6l1.1-0.5
	l1.1-0.3l2.4-0.3h1l2,0.2l3.7,0.5l3.3,0l1.1-0.3l2-1.5l1.1-1l6.6,0.7l7,1.3l3.4,0.8l2.2,0.4l1,0.1l5.5,0.2l2.3,0.2l2.1,0.3l2.6,0.4
	c0.5,0.3,0.1,0.7,0.2,1.4l0.4,0.5l0.5,3.6l0.1,2.7l0.5,2.2l0.4,1c0.1,0.2,0.1,0.4,0.2,0.6l0.3,2.9l0.2,1.6l0.2,0.8l0.9,3.3l0.3,0.9
	l0.5,1l0.6,1l1.3,1.9l2.4,3.2l3.3,3.8l1.8,1.8l0.9,1l0.7,1.1l1.8,3l0.4,0.9l1,1.8l1.8,3.9l1.5,4l0.8,0.9l0.9,0.4l1,0.3l1.8,0.3
	l1,0.1h4l1.1-0.1l5.6-0.1l4.3-0.3h1l1-0.2l3.4-0.4l3.7-0.5l1.3-0.1l2.1-0.1l-0.9,0.9c-0.1,0.4-0.2,0.7-0.3,1.1
	c-0.3,1.1-0.3,2.3-0.3,3.3c0,0.7,0,1.4-0.1,1.9c-0.1,0.4-0.3,0.9-0.5,1.5c-0.4,1.1-1,2.4-0.8,4c0.1,0.8,0.4,1.5,0.6,2.1
	c0.1,0.2,0.2,0.5,0.2,0.7c0.1,0.4,0.1,0.8,0.1,1.4c0,0.2,0,0.4,0,0.6c0,1.8,0.5,3.7,1.6,5.6c1,1.7,0.7,2.5,0.4,2.9
	c-0.3,0.4-0.6,0.8-0.8,1.1c-0.8,1-1.6,2.1-2,3.7l-0.1,0.7c-0.3,1.4-0.6,2.8-1.3,3.8c-0.3,0.4-0.5,0.8-0.8,1.2
	c-0.6,1-1.1,1.9-1.8,2.7c-1.1,1.4-2.4,4.2-1.2,6.4c-0.4,0.2-0.7,0.5-0.9,0.7c-0.8,1-0.6,2.4,0.4,3.5c-0.3,0.5-0.4,1-0.3,1.3
	c0,0.5,0.2,1,0.5,1.3c-0.3,0.3-0.6,0.6-0.8,1.1c-0.3,0.7-0.3,1.3-0.3,1.7c-0.6,0.1-1.5,0.5-2.1,1.3c-0.4,0.6-0.5,1.1-0.5,1.5
	c-0.2,0.2-0.4,0.4-0.5,0.7c-0.4,0.7-0.4,1.4-0.4,1.9c-1.2-0.1-3.3-0.2-4.6,1.6c-0.6,0.9-0.6,1.7-0.5,2.2c0.2,0.6,0.5,1,0.9,1.3
	c-0.2,0.5-0.3,1.1-0.2,1.9c0,0.2,0,0.4,0.1,0.6c-0.6,0-1.2,0.1-1.9,0.5c-1.2,0.6-2,1.8-2.3,3.2c0,0,0,0-0.1,0
	c-0.4,0.3-1,0.7-1.5,1.5c-0.3,0.5-0.4,1-0.4,1.4c-0.6,0-1.3,0-2.1,0.3c-1.3,0.5-2.2,1.3-2.5,2.4c-0.5,1.6,0.6,2.9,1.4,3.9
	c0.1,0.1,0.2,0.2,0.3,0.4c-0.4,0-0.9,0.1-1.5,0.3c-0.7,0.3-1.2,0.9-1.3,1.6c-0.2,0.8,0.1,1.4,0.4,1.8c0,0.1-0.1,0.3-0.1,0.4
	c-0.1,1.4,0.5,2.2,1,2.7c0,0.2,0,0.5,0.1,0.7c0,0.4,0,0.9,0.2,1.5c-0.1,1.1,0.4,1.7,0.9,2.1c0,0,0,0.1,0,0.1c-0.1,0.4,0,0.8,0,1.1
	c-0.3,0.1-0.7,0.3-1,0.6c-0.5,0.5-1.8,1.7-2.1,2.8c-0.1,0.2-0.1,0.4-0.1,0.6c-0.3,0.3-0.6,0.6-0.8,1.1c0,0,0,0,0,0
	c-0.9,0.4-1.6,1.3-1.3,2.7c0.1,0.4,0.3,0.7,0.5,1c-0.1,0.4,0,0.8,0.2,1.3c0.3,0.6,0.9,1,1.7,1.3c0.1,0,0.1,0,0.2,0.1
	c-0.1,0.5,0,1.2,0.5,1.7c0.4,0.5,1.1,0.9,2.3,0.8c0.1,0.6,0.5,1.3,1.3,2.2c0.1,0.1,0.1,0.1,0.2,0.1c0.2,0.3,0.4,0.6,0.6,0.9
	c0.2,0.4,0.5,0.8,0.7,1.2c0.2,0.3,0.7,1,1.7,1.3c0.1,0.5,0.3,0.9,0.7,1.4c0.6,0.6,1.4,0.7,2,0.7l0.1,0.1c0.2,0.3,0.6,0.6,0.9,0.9
	c0,0,0,0,0,0c-0.3,0.9-0.6,2.1,0.4,3.4c0.4,0.5,0.9,0.8,1.2,1l0,0c0,0,0,0.1,0.1,0.1c0.1,0.2,0.3,0.5,0.5,0.8
	c0.2,0.4,0.9,1.5,2.5,1.6c0.6,0,1.5-0.1,2.2-0.8c0,0,0,0,0,0c0,0,0.1,0.1,0.1,0.5c0,0.1-0.1,0.3-0.1,0.4c-0.2,0.8-0.6,2.3,0.7,3.6
	c0.1,0.1,0.2,0.2,0.3,0.2c-0.6,1-0.4,2-0.2,2.5c0.4,0.9,1.1,1.4,1.6,1.6c-0.1,0.1-0.2,0.3-0.3,0.4c-0.4,0.8-0.4,1.7-0.3,2.3
	c0,0.2,0,0.3,0,0.4c-0.4,1.7,0.4,2.8,0.9,3.5l0.2,0.2c0,0.2-0.4,0.6-0.6,0.9c-0.4,0.5-0.9,1.2-1.2,1.9c-0.3,0.8-0.2,1.6-0.2,2.2
	c0,0.2,0,0.3,0,0.5c0,0-0.1,0.2-0.6,0.6c-0.7,0.6-1.2,1.5-1.2,2.4c0,1,0.5,2,1.3,2.7c0.2,0.2,0.5,0.3,0.7,0.5c0,0,0,0,0,0
	c0,0,0,0,0,0c0.1,0.3,0.2,0.6,0.4,1c0.2,0.3,0.4,0.5,0.6,0.8c0,0,0.1,0.1,0.1,0.1c0,0.1-0.2,0.2-0.7,0.5c-0.1,0.1-0.3,0.1-0.4,0.2
	c-0.7,0.3-1.8,0.7-2.4,2c-0.1,0.1-0.2,0.1-0.3,0.2c-0.4,0.2-0.8,0.5-1.3,1c-0.4,0.5-1.5,1.7-1.6,3.1c0,0.1,0,0.1,0,0.1
	c-0.7,0.3-1.1,0.6-1.4,1.2c-0.1,0.1-0.2,0.2-0.5,0.3l-0.3,0.1c-1.2,0.6-2.1,1.2-2.6,2.9c0,0.1-0.2,0.3-0.3,0.4
	c-0.3,0.4-0.7,1-0.9,1.8c-0.3,1.5,0,2.6,0.5,3.6c0.1,0.2,0.2,0.3,0.3,0.5c-0.1,0.5-0.2,1.2,0.3,2c0.5,0.9,1.3,1.2,1.8,1.3
	c0,0.1,0.1,0.1,0.1,0.2c0.2,0.3,0.3,0.7,0.4,1c0.3,1.1,0.8,2.9,3.1,3.7c0.2,0.5,0.6,1.4,1.8,1.9c0.3,0.1,0.5,0.2,0.8,0.3
	c0.1,0,0.2,0.1,0.4,0.1c0.1,0.2,0.1,0.3,0.2,0.4c0.3,0.7,1.4,2.3,2,2.7C427.1,301.4,423.1,302.2,421.7,301.6L421.7,301.6z"/>
<g id="g858_00000107551060035487084800000017833850012552754816_">
	<path id="path1045_00000096058419715906785770000006568191958768700351_" class="st2" d="M312.8,89.1c-1.3-1-2.4-1.2-2.4-1.2
		c-1.5,0.9-2.2,2.2-2.2,2.2c-1.1-0.5-2.3-1-2.3-1c-1.7,0.7-1.9,1.9-1.9,1.9c-2.1-0.9-4-0.7-4-0.7l-0.4,1.9c-4-0.7-9,0.5-9,0.5
		l0.3,1.4c-5.6,1.7-12.4,5.3-15.7,7.3c-3.3,2-6.2,2-10.1-0.2c-3.9-2.2-6.4-1.4-9.5-4.9c-3.1-3.5-9.7-3.9-9.7,2.8s4,11.5,4,11.5
		s-0.5,9,5.4,14.4c0,0-3.3,12.8,2.7,22.2c0,0,1.8,6.7,8.3,8.6c0,0,0.9,2.7,1.2,4.4c0,0,5.9,1.5,10.7,4.2c0,0,5.9,10.4,8.9,16.8
		c3,6.4,4.8,7.4,4.8,7.4s-0.6,3.7,2.7,5.2c0,0,1.8,6.8,12.2,5.7c0,0,3.2,1.4,8.5,1.4c5.3,0,8.5-1.4,8.5-1.4
		c10.4,1,12.2-5.7,12.2-5.7c3.3-1.5,2.7-5.2,2.7-5.2s1.8-1,4.8-7.4c3-6.4,8.9-16.8,8.9-16.8c4.8-2.7,10.7-4.2,10.7-4.2
		c0.3-1.7,1.2-4.4,1.2-4.4c6.5-2,8.3-8.6,8.3-8.6c5.9-9.4,2.7-22.2,2.7-22.2c5.9-5.4,5.4-14.4,5.4-14.4s4-4.8,4-11.5
		s-6.6-6.3-9.7-2.8c-3.1,3.5-5.6,2.7-9.5,4.9s-6.8,2.2-10.1,0.2c-3.3-2-10-5.6-15.7-7.3l0.3-1.4c0,0-5-1.2-9-0.5l-0.4-1.9
		c0,0-1.9-0.2-4,0.7c0,0-0.2-1.2-1.9-1.9c0,0-1.3,0.5-2.3,1c0,0-0.7-1.4-2.2-2.2c0,0-1,0.2-2.4,1.2c0,0-0.9-1.5-2.4-2
		C313.7,87.6,312.8,89.1,312.8,89.1L312.8,89.1z"/>
	<path id="path925_00000157278221570103745740000001147963986598234250_" class="st3" d="M307.7,157.9l-8.2,2.8l-0.8,9.3
		c0,0,0.9,2.6,0.7,6.1l-0.1,12.1l15.9-0.1l15.9,0.1l-0.1-12.1c-0.2-3.6,0.7-6.1,0.7-6.1l-0.8-9.3l-8.2-2.8c-4.4-0.1-7.5-2-7.5-2
		S312.1,157.8,307.7,157.9L307.7,157.9z"/>
	<path id="path1061_00000160179646426973332320000006812010834849414017_" class="st3" d="M317.6,151c1.5-1.8,2.9-2.7,6.8-3.3
		s6-3.1,5.9-5.9c0,0-4.1-2.4-7.2,0c-3.2,2.4-4.9,3.1-7.7,3.1c-2.8,0-4.6-0.7-7.7-3.1c-3.2-2.4-7.2,0-7.2,0c-0.2,2.8,2,5.3,5.9,5.9
		s5.3,1.5,6.8,3.3c1.6,1.9,2.3,5,2.3,5S316,152.9,317.6,151L317.6,151z"/>
	<path id="path873_00000163761610438443636260000005116473743827061175_" d="M250.4,97.7c0,0-2.7,7.3,4,11.7c0,0-1.5,6.3,2.3,10.8
		c0,0,1.3-5.2,5.5-5.4c0,0-4.4-3.7-3.2-9.2c0,0-4-1.4-5.3-4.5C252.5,97.9,250.4,97.7,250.4,97.7L250.4,97.7z"/>
	<path id="path875_00000173125137634571274460000007650052202870362291_" d="M296.2,118.3c0.3,3.7,5,5.1,6.5,7.4
		c0,6.3-5.9,10.4-5.9,10.4s6.9-3,6.7-10.5C301.1,122.7,297.4,120.9,296.2,118.3z M334.3,118.3c-1.2,2.6-5,4.4-7.3,7.2
		c-0.2,7.6,6.7,10.5,6.7,10.5s-5.9-4-5.9-10.4C329.4,123.3,334.1,121.9,334.3,118.3z M279.4,125.4c0,0,3.1,1.7,6.1,4.8
		c3,3,6.7-0.4,8.8-0.1c-2-1-5.4,2.2-8.5-0.7C282.8,126.5,279.4,125.4,279.4,125.4z M351.1,125.4c0,0-3.4,1.1-6.5,4
		c-3.1,2.9-6.4-0.3-8.5,0.7c2.1-0.4,5.8,3.1,8.8,0.1C348,127.1,351.1,125.4,351.1,125.4z M286,139c-0.5,2.9-7,2.6-10.4,4.2
		c-3.5,1.5-5.6,4.7-5.5,7.5c0.2,5.6,5.2,8.4,5.2,8.4s-4.2-3.1-4.4-8.4c-0.1-2.7,1.6-5,5.2-6.7C279.7,142.1,287.1,142.2,286,139z
		 M344.5,139c-1.1,3.2,6.3,3.2,9.9,4.9c3.6,1.8,5.3,4.1,5.2,6.7c-0.2,5.2-4.4,8.4-4.4,8.4s5-2.8,5.2-8.4c0.1-2.9-2-6-5.5-7.5
		C351.5,141.6,344.9,141.9,344.5,139z M262.3,144.9c2.3,5.5,3.7,10.9,3.7,10.9l1.2,0.7C267.1,156.4,265.9,150.6,262.3,144.9z
		 M368.2,144.9c-3.6,5.7-4.9,11.5-4.9,11.5l1.2-0.7C364.5,155.7,365.9,150.4,368.2,144.9z M285.5,162.1c0,0,1.2,1.2,2.7,3.1
		c1.5,2,3.1,5,3.8,9.2c0.1-4.4-1.5-7.5-3.1-9.6C287.3,162.8,285.5,162.1,285.5,162.1z M345,162.1c0,0-1.8,0.7-3.4,2.7
		c-1.6,2-3.3,5.2-3.1,9.6c0.7-4.2,2.3-7.3,3.8-9.2C343.9,163.2,345,162.1,345,162.1z M292.3,163.3c0,0,1.5,2.8,1.9,6.9
		c0.5,4,0.3,8.8-1.3,11.9c2.5-3,2.6-7.9,2.1-12C294.6,166,292.3,163.3,292.3,163.3z M338.2,163.3c0,0-2.3,2.7-2.7,6.8
		c-0.5,4.1-0.4,8.9,2.1,12c-1.6-3.1-1.7-7.9-1.3-11.9C336.8,166.1,338.2,163.3,338.2,163.3z M307.2,192.7c-4.4-0.1-8,2-12.8,0.5
		l-0.2,0.7C298.7,195.4,303.1,193.3,307.2,192.7z M323.3,192.7c4.1,0.6,8.5,2.8,12.9,1.1l-0.2-0.7
		C331.3,194.7,327.7,192.6,323.3,192.7z"/>
	<path id="path877_00000098918043288310302620000005567802505815764662_" class="st4" d="M287.2,119.2c-3.6,0-6.1,1.6-6.1,1.6
		s0.6,4.2,5,4.5s7.1,2.6,12.6,0.9c0,0-1.9-4.7-7.6-6.5C289.7,119.4,288.4,119.2,287.2,119.2z M343.3,119.2c-1.2,0-2.6,0.1-4,0.6
		c-5.7,1.7-7.6,6.5-7.6,6.5c5.5,1.7,8.2-0.5,12.6-0.9c4.4-0.3,5-4.5,5-4.5S347,119.3,343.3,119.2z"/>
	<path id="path879_00000065039202617379020250000012579101080525366182_" d="M289.3,119.4c0,0-3.4,1.5-1.8,6.4l3.7,0.6
		c0,0,2.7-2,1.9-5.8l-1.9-0.7c0,0,0.4,2.6-1.6,4.4c0,0-1-1.4,1-4.4L289.3,119.4z M341.2,119.4l-1.3,0.5c2.1,3.1,1,4.4,1,4.4
		c-2.1-1.7-1.6-4.4-1.6-4.4l-1.9,0.7c-0.7,3.8,1.9,5.8,1.9,5.8l3.7-0.6C344.6,120.8,341.2,119.4,341.2,119.4z"/>
	<path id="path938_00000011714956377757534580000018203834948476228011_" d="M292.7,155.2c-1.5,0.1-2.2,4,0.5,7.6
		c3.2,4.4,3.8,8.9,2.9,14.8c0,0,1.5-2.6,1-7.2c0,0,1.9,2.7,2.3,5.6c0,0,0.2-7.2-1.3-10.5c-1.5-3.3-1.1-8.4-1.1-8.4s-1.5,0.1-3.6-1.7
		C293.3,155.3,292.9,155.1,292.7,155.2z M337.8,155.2c-0.3,0-0.6,0.1-0.9,0.4c-2.1,1.7-3.6,1.7-3.6,1.7s0.4,5.1-1.1,8.4
		c-1.5,3.3-1.3,10.5-1.3,10.5c0.4-2.9,2.3-5.6,2.3-5.6c-0.4,4.5,1,7.2,1,7.2c-0.8-5.9-0.2-10.5,2.9-14.8
		C340,159.1,339.4,155.2,337.8,155.2z M315.3,158.9l-8.7,1.5l0.3,1.1c0,0,1.2,1.5,4.8,2.5c3.6,1,2.2,3.8,3.7,8.1
		c1.5-4.3,0.1-7.1,3.7-8.1c3.6-1,4.8-2.5,4.8-2.5l0.3-1.1L315.3,158.9z"/>
	<path id="path999_00000096052991848196606450000010645923679010078634_" d="M304.2,142.8c0,0-1.2,1.9,1,2.7
		c2.2,0.9,2.5,2.3,2.5,2.3l4.5,2c0,0-0.1-3-3.3-3.8C305.9,145.2,304.8,143.7,304.2,142.8z M326.3,142.8c-0.6,0.9-1.6,2.3-4.8,3.2
		c-3.1,0.9-3.3,3.8-3.3,3.8l4.5-2c0,0,0.3-1.5,2.5-2.3C327.5,144.7,326.3,142.8,326.3,142.8z"/>
	<path id="path1047_00000104675480326020938020000014609969697698758291_" d="M380.1,97.7c0,0,2.7,7.3-4,11.7c0,0,1.5,6.3-2.3,10.8
		c0,0-1.3-5.2-5.5-5.4c0,0,4.4-3.7,3.2-9.2c0,0,4-1.4,5.3-4.5C378,97.9,380.1,97.7,380.1,97.7L380.1,97.7z"/>
	<path id="path892_00000009575666801798709430000008561558296951483786_" class="st5" d="M303.3,189.9c-5,0.5-8.4-1-7.8-4.7
		c0.6-3.7,4-9.1,4-9.1c2.1,4.1,2.4,9.2,3.6,11c2.3,0,1.5-1,3.6-2.1c0,0,1.5,0.7,2.7,1.9c0,0,1.1-1,2.9-1.6c0,0,1.9,1.2,3,2.1
		c1.1-0.9,3-2.1,3-2.1c1.9,0.5,2.9,1.6,2.9,1.6c1.3-1.2,2.7-1.9,2.7-1.9c2.1,1,1.3,2.1,3.6,2.1c1.2-1.7,1.5-6.9,3.6-11
		c0,0,3.4,5.4,4,9.1c0.6,3.7-2.7,5.2-7.8,4.7c-5-0.5-8.8-0.7-12-0.2C312.1,189.2,308.3,189.4,303.3,189.9z"/>
	<path id="path1059_00000101817828867083816900000018024945252401951367_" class="st5" d="M318.3,163.2c1.8-1,3.7-2.4,3.7-2.4
		c0.6,1,1.8,1.8,1.8,1.8c2.3-0.7,4.2-1.4,4.2-1.4c1.6,5.7,3.8,8.7,3.8,8.7s4.2-6.4,3.9-13.1c0,0-3.8,1.6-10.8,1.1
		c-7-0.5-9.5,0.9-9.5,0.9s-2.5-1.3-9.5-0.9c-7,0.5-10.8-1.1-10.8-1.1c-0.3,6.7,3.9,13.1,3.9,13.1s2.2-3.1,3.8-8.7
		c0,0,1.9,0.7,4.2,1.4c0,0,1.3-0.8,1.8-1.8c0,0,1.9,1.4,3.7,2.4c0,0,1.8-1.3,3.1-3C316.5,161.9,318.3,163.2,318.3,163.2L318.3,163.2
		z"/>
	<path id="path1012_00000181079154202801236050000004176276635986228112_" d="M264.4,122.8c-2.3,0.9-2.1,1.5-2.7,3
		c-0.7,1.7-3.8,0.1-3.8,2.4c0,0.7,2.2,1.5,2.7,1.9c1,0.8,0.8,3.5,3.4,2.8c2.3-0.6-0.3-2.3-0.8-2.8c-0.7-0.5,0.9-2.8,0-3.5
		C262.8,126.4,266.7,123.8,264.4,122.8z M258.1,136.3c-4.3-0.6-2.4,4.8,0.2,2.6C259.7,137.7,258.8,137.5,258.1,136.3z M262.5,136.8
		c-1.6,0.1-1.1,1.1-1.5,1.7c-1.5,2.6,4.5,2.5,2.9,0C263.3,137.4,263.7,137.3,262.5,136.8z M255.2,125.6c0.7,0.3,1,0.9,1.5,1.2
		c0.6,0.5-0.7,3.6-1.7,2.8C254,128.8,255.8,126.7,255.2,125.6z M269.9,130.7c-0.1-0.5-1.3-1.4-1.7-0.7c-0.4,0.7,0.6,2.3,0.2,2.6
		c-0.3,0.2-2.3,3.2-1.7,3.7c2.1,1.7,2.9-1.9,2.9-1.9c0.4-0.3,1.7,1.6,2.9,1.2c1.7-0.5-1.3-3.3-1.3-2.6c0,1.2,2.3-1.3,1.7-1.7
		C272,130.4,270.6,131.9,269.9,130.7L269.9,130.7z M266.7,137.2C264,139.3,271.5,139.2,266.7,137.2z M271.1,141.2
		c-2.1-4.7-3.9,0.8-2.1,1.6C270.3,143.3,270.5,141.4,271.1,141.2z M265,142.4c-4.1-0.3-3.8-0.1-3.8,2.6c0,0.6-0.6,1.1-0.2,1.4
		c0.8,0.7,1-1.8,1.1-1.9c1.2-1,1,2.3,2.7-0.5c0.2-0.3,1.6-0.8,1.1-1.2C265.5,142.4,265.4,143.1,265,142.4z M277.4,138.2
		c-1.2,0-3.8-1-4.6-0.7c-0.7,0.3,0.6,3,1.1,3.1c1.8,0.7,1.5-0.7,2.1-1.2c1.2-1,2.2,1.7,3.4,1.2C280.9,140,277.9,138.4,277.4,138.2
		L277.4,138.2z M282.2,137.3c-2.9-0.6-2.8,2.9-0.6,1.7C282.6,138.5,282,137.7,282.2,137.3z M277.4,134
		C274,135.5,279.3,137.1,277.4,134z M280.8,132.4c-1.1-0.5-0.9-1.8-1.7-2.4c-0.2-0.2-1.1,0.2-1.3,0c-0.3-0.2-0.8-2.5-1.9-1.6
		c-2.1,1.8-0.4,2.3,1.5,2.8c0.6,0.2,0,1.4,0.2,1.7C277.9,133.4,281.4,133.5,280.8,132.4z M282.5,134c-0.9-0.4-1.4,0.1-2.1,0.5
		C278.1,136,285,135.1,282.5,134z M285.6,135.2c-3.7,0.8,0.6,3.3,0.6,0.9C286.2,135.4,286.3,135.5,285.6,135.2z M288.8,136.5
		C286.3,136.5,290.1,138.7,288.8,136.5z M292.7,136.1C288.2,138.5,294.3,138.7,292.7,136.1z M293,131.9c-4,0.7,0.6,3.6,0.6,0.9
		C293.6,132.3,293.4,132.1,293,131.9z M296.7,131.2c-3,0.2-1.1,2.5,0.2,1.4C297.2,132.4,296.7,131.5,296.7,131.2z M290.2,134.2
		C287.8,134.1,291.9,137,290.2,134.2z M273,123.7c-1,0.2-0.4,1.7-0.8,2.1c-0.4,0.3-1.2,0.2-1.7,0.9c-1.3,2.2,2.6,1.9,3.6,1
		C274.8,127.1,273,123.7,273,123.7z M275.9,123C270.5,127.4,279.8,124.6,275.9,123z M272.8,118.5c-0.3,2.4-3.4,1.9-4.8,3.1
		c-0.9,0.7-0.9,6.6,0.2,6.3c0.9-0.3,1.6-4.8,1.9-5.1c0.2-0.2,1.2,0,1.5-0.2C272.5,122.1,273.6,119.8,272.8,118.5L272.8,118.5z
		 M279.1,118.1c-1.6-0.3-5.9,0.3-5,2.4c0.5,1.2,2.9-0.9,3.6-0.3c0.3,0.2,0.7,3.3,1.7,2.4c0.4-0.3,0.1-1.1,0.4-1.4
		C281.6,119.7,282.5,119.6,279.1,118.1L279.1,118.1z M266.5,115c-5.3,0.1,0.4,4.5,0.4,0.9C266.9,115.4,267.1,115.2,266.5,115z
		 M262.3,103.3c-2-1.3-2.6,4.5-1.7,4C261.8,106.7,264.3,104.1,262.3,103.3z M263.6,109.6c-0.7,0-1.7-0.1-2.1,0.2
		c-1.4,1.2,2.7,3.4,4,3C268,111.9,265.5,109,263.6,109.6z M270.3,110.8c-1.2-0.4-1.2-0.4-2.3,0.2c-1.2,0.6-1.2,1.8,0,2.1
		c1.2,0.3,0.4-0.7,1.3-0.7c0.3,0,1.9,0.5,2.1,0.3C272.4,112,271.1,110.8,270.3,110.8L270.3,110.8z M254.7,97.9
		C251.7,100.6,258.7,99.6,254.7,97.9z M277,108.2c-3-0.2-3.3,3.5-1.7,4.9c0.7,0.6,6.7-0.9,5.3-3.3c-0.7-1.2-2.6,1.5-3.4,0.9
		C277,110.5,278.3,109.2,277,108.2z M277.6,114.3c-1.7-1.3-4.7,1.8-3.6,2.8C275.6,118.4,278.5,115.7,277.6,114.3z M281.2,113.4
		c-4,0.7,0.8,3.9,0.8,1.2C282,114,281.9,113.7,281.2,113.4z M283,102.1c0.3-1.4-0.8-2-1.9-1c-0.3,0.2,0,0.6-0.1,0.7
		c-0.2,0.2-2.2,0.9-2.7,0.7c-0.2-0.1-0.9-1.2-1.3-0.9c-0.2,0.2-0.3,0.7-0.4,0.9c-2.1,3.5,3.5,0.8,4,1.1c0.4,0.2,0.6,0.6,1,0.9
		C283.5,105.6,283.3,102.8,283,102.1z M282,106.7c0-0.3-0.3-0.9-0.6-0.9c-0.9,0-0.9,0-1.3,0.7C278.5,109.1,283.8,109.6,282,106.7
		L282,106.7z M286.4,103.2c-0.6,0.2-0.8,0.2-1.2,0.6c-0.7,0.7-1.6,1.6-2.2,2.1c-0.6,0.5,1.4,0.5,1.6,0.4
		C285.5,105.9,286.9,103.9,286.4,103.2L286.4,103.2z M287.5,107.2c-1.9-0.6-5.3,3.5-4.5,4.2c0.7,0.6,2.3,0.3,2.8,0.7
		c0.2,0.2,0.5,3.2,2.1,1.9c0.3-0.2,0.4-0.7,0.6-0.9c1.7-1.4-4.3-2.6-2.7-3.9C286.5,108.6,290,108.2,287.5,107.2L287.5,107.2z
		 M295.3,103.2c-0.7,0-2.5,0.4-2.8,1c-0.2,0.4-0.1,1.1-0.3,1.5c-0.3,0.6-2.3,1.5,0.3,1.5c0.4,0,0.4,0.1,0.7-0.1
		c0.5-0.3,0.9-2.1,1.6-2.3c0.5-0.1,2.5-0.1,2.5-1C297.4,103,295.8,103.1,295.3,103.2L295.3,103.2z M298.6,97.4c-1,0-2.5,0.3-3,1.1
		c-0.1,0.2,0.1,0.5,0,0.6c-0.5,0.7-1.6,0.5-2.4,1.7c-0.4,0.6,2.5,0.9,2.8,0.7c1.3-0.7,1.2-1.5,1.6-2.5
		C298.1,98.3,300.4,98.1,298.6,97.4L298.6,97.4z M294.1,96.4c-1.1-0.4-2.1,0.6-2.7,1.1c-0.1,0.1-0.4-0.3-0.6-0.4
		c-0.4-0.2-0.9-0.1-1.3-0.2c-0.6-0.2-1.9,1.1-1.8,1.1c0.7,0.6,2.5,0.1,2.8,0.4c0.4,0.3,1.1,0.9,1.8,0.7c0.7-0.1,0.2-0.8,0.6-1.1
		C293.6,97.5,295.4,96.9,294.1,96.4L294.1,96.4z M290.9,100.7c-4.4,0.2-0.3,4.1,1.2,1.1C292.4,101.2,291.3,100.5,290.9,100.7z
		 M298,104.9c-1.1,0-4,3.5-3.9,3.7c0.4,0.6,3.2,0.4,3.6-0.1C298.2,107.8,299.2,104.6,298,104.9L298,104.9z M298,111
		c-2.9-1-1,2.8-2.4,3.3c-5,2.1-0.1-4.4-4-3.3c-0.6,0.2-1.4,5.6-1.2,5.8c1.1,0.9,2.1-1,2.7-0.6c0.6,0.3,0.9,2.2,1.6,2.2
		c0.1,0,0-0.2,0-0.4c0.1-0.5,0.4-0.7,0.6-1.1c0.3-0.5,1-0.6,1.2-1C297.3,114.6,296.1,111.8,298,111z M301.6,110.4
		c-3.8,0.4-1.4,4.7-0.1,3C302.4,112,301.1,111.1,301.6,110.4z M306.2,111.7c-3.3-0.9-4,4.4-0.4,3.2
		C307.7,114.3,307.5,112.1,306.2,111.7z M307.1,105.4c-2.2-2.1-3.7,0.2-1.3,1.5c0.4,0.2,0.4,1.4,0.9,1.6
		C308.5,109.1,307.8,106,307.1,105.4z M310.3,102.6c-4.7,0.6-0.8,3.5-0.1,1.4C310.3,103.4,310.7,103.1,310.3,102.6z M305.9,97.2
		c-0.3-0.2-0.6-0.2-0.9-0.4c-0.3-0.1-0.8,0.1-1,0c-1.1-0.5,0.1-2.1-0.9-2.5c-1.5-0.6-3,0.4-2.4,2c0.1,0.3,0.8,0.4,1,0.6
		c1.2,1-1.4,2.8,1.2,3.2c1.3,0.2,1.1,0.1,1.9-0.5c0.3-0.2,0.7-0.4,0.9-0.6C306.2,98.5,305.5,97.7,305.9,97.2L305.9,97.2z
		 M293.8,94.4c1.3,0.6,4.7,0.2,3.6-1.4C296.3,91.6,292.2,93.7,293.8,94.4z M285.5,96.3c-0.4,0.1-1.4,0.2-1.8,0.5
		c-0.6,0.5-0.9,0.9-1.6,1.2c-0.8,0.3,1,0.6,1.5,0.5C284.4,98.3,287.3,96.3,285.5,96.3L285.5,96.3z M306.8,92.2c0.5-1.4-3-1.9-3-0.6
		c0,0.3,0.8,0.5,0.9,0.7c0.5,1.3,0.5,3,1.8,4.1c0.1,0.1,0.3-0.2,0.4-0.4C307.9,94.7,307.6,93.6,306.8,92.2L306.8,92.2z M311.4,96.9
		c-0.9,0-1.8,0.1-2.5,0.5c-0.6,0.3-0.4,0.7-0.7,1.2c-1.7,2.4,1,0.4,1.3,0.4c0.2-0.1,2.4,0,2.5-0.1C312.7,97.9,312.3,97.3,311.4,96.9
		z M312,90.9c-0.1-0.5-0.8-0.3-1-0.7c-1-1.7-3.3,2.8-1.6,3.7C311.2,94.9,312.5,91.8,312,90.9z M315.7,102.6
		c-3.3,0.1-2.8,0.2-3.4,2.3c-0.1,0.2-0.4,0.9,0,1.1C314.2,106.8,316.1,103.6,315.7,102.6z M314.9,108c-0.6-1.6-3.9,0.2-3.3,1.2
		c0.1,0.2,0.5,0.2,0.7,0.2C315.9,110,316.1,107.5,314.9,108z M310.2,109.4c-3,0.2-0.9,3.2,0,2.7
		C311.4,111.3,312.1,109.4,310.2,109.4z M312.4,112.5c-0.2,0.4-0.8,0.7-1,1.1c-0.1,0.2,0.1,0.7,0.1,0.9
		C312.1,116.8,315.6,113.8,312.4,112.5L312.4,112.5z M309.4,115.3c-0.2,0-0.8-0.4-1-0.2c-0.6,0.5-0.3,3.1,1,2.3
		C310.2,117,310.5,115.3,309.4,115.3L309.4,115.3z M306,118.9c-0.8,0-0.9,0-1,0.7C304.4,122.4,307.4,118.3,306,118.9z M311.2,119.9
		C305.6,119.9,311.2,124.7,311.2,119.9z M314.9,120.5c-0.5,0.1-0.7,0.1-0.9,0.6C313.4,122.9,317.5,121.6,314.9,120.5z M318.6,120.1
		c-0.9,0-1.1,0.6-1.5,1.1C316.2,122.4,319.7,121.9,318.6,120.1z M321.6,120.2C318,122.2,324.3,121.3,321.6,120.2z M323.7,118.3
		C321.7,122,326.1,119.3,323.7,118.3z M327,117.3c-3.9,0.8,0.4,2.2,0.4,0.6C327.4,117.5,327.4,117.4,327,117.3z M313.6,117
		c-1,2.4,4.4,0.5,1.6-0.6c-0.3-0.1-0.3-0.4-0.7-0.2C314,115.9,313.7,116.7,313.6,117z M320.1,115.5c-2.1-0.2-1.9,2.7-0.3,1.4
		C320.5,116.4,320.4,116.2,320.1,115.5z M316.6,113.2c-0.1-0.2-0.8-0.4-1-0.2c-0.2,0.1-0.3,0.7-0.3,1
		C315.2,115.8,318.9,114.2,316.6,113.2L316.6,113.2z M322.5,105.1c-1.1,0-1-1.2-1.9-1.4c-5-1.4,2.3,6.9,2.3,3.3
		C322.9,106,323,106,322.5,105.1z M318.5,109.8c-2.5,0.1-1.1,3,0.8,1.4c0.4-0.3,0.2-0.4,0-0.5C319,110.3,319.2,110,318.5,109.8
		L318.5,109.8z M323.8,112.6c-0.7-1.3-3.9,0.5-2.5,1.2c0.5,0.2,5.3,1.7,4.8,1C325.4,113.7,324.2,113.3,323.8,112.6z M327.8,110.5
		C322.1,114.5,332.1,112.2,327.8,110.5z M328.8,105.7c-0.5-0.2-2.3-0.1-2.5,0.3C323.1,111.5,332.1,105.7,328.8,105.7z M330.9,100.5
		c-0.5-0.9-1.7-0.9-2.7-0.9c-1.6,0,1.2,1.3,1.7,1.7c1.4,1.2-4.1,0.3-1.9,2.1C329.8,105,334.2,101.9,330.9,100.5z M335.3,101.2
		C331.8,102.7,337.7,105.2,335.3,101.2z M342.2,97.9c-1.4-1.8-1.9,1-3.2,0.5c-1-0.4-3.1-1.8-4.6-0.5c-0.1,0.1,2.1,0.9,2.3,1
		c0.8,0.5,3.6,1.4,4.8,0.3C342,99,341.7,98.4,342.2,97.9z M331.1,98.8c0.2,0-0.3-1.9-0.2-1.9c0.5-0.3,1.1-0.7,1.7-0.5
		c0.2,0.1,0.6,0.6,0.8,0.3c1.2-1-1.6-3.4-3.8-2.6C327.3,94.9,327.8,98.8,331.1,98.8L331.1,98.8z M337.4,92.1c-9.4-0.9-1.7,3.8,0,3.3
		c0.4-0.1,1.5-2.5,1.3-3C338.5,92.2,337.6,92.2,337.4,92.1z M327.1,92.5c-0.5-0.1-1.3-0.1-1.5-0.5c-0.3-0.5,0-1.6-0.4-1.9
		c-0.7-0.6-1.4-0.1-0.8,0.7c0.2,0.2-0.1,0.6-0.3,0.8c-1.1,0.9-1.6-0.4-2.4,1c-0.4,0.6,1.5,1.4,2.1,1.6
		C325.3,94.5,328.3,94.4,327.1,92.5L327.1,92.5z M324,96C315.8,96,329.7,100.7,324,96z M320,96C314.7,94.5,320,100.7,320,96z
		 M322.9,101c-0.9-0.6-2.8-1.9-3.8-1c-1.5,1.2-2.4-2.9-3.4-2.1c-0.4,0.3-0.3,1.6,0,1.9c3.6,4,3.5,1.1,5,1.7
		C321.8,102,324.4,103.5,322.9,101z M315.4,94.1c-0.6,0-1.3-0.1-1.3,0.5C314.1,100.7,318.7,92.7,315.4,94.1z M318.5,90.4
		c-3.1-0.4-2.5,4.2-0.6,3.1C318.5,93.2,319.7,90.9,318.5,90.4z M315.2,88.5c-0.8,0.4-0.9,1.5-1.5,1.9
		C311.9,91.9,318.5,89.9,315.2,88.5z M342.7,104c-0.9,1.1-3.1-1-4-0.3c-1.2,1,3.7,2.7,4,2.3C343.4,104.7,344.3,104.7,342.7,104z
		 M336.2,104.5c-3.3-1-3.7,0.4-1.5,2.3c0.7,0.6,1.9,3,1.9,0.5C336.6,106.3,336.6,105.2,336.2,104.5L336.2,104.5z M341,107.7
		c-5.2-1.6-1.2,3.4-0.2,3.1C341.8,110.5,341.7,108,341,107.7z M342.2,113.1c-0.5-0.5-0.9-0.8-1.5-1c-4.6-1.9,1.5,4.1,1.5,1.9
		C342.2,113.4,342.6,113.7,342.2,113.1L342.2,113.1z M346.2,111.5C340.6,106.8,346.2,117.5,346.2,111.5z M347.5,106.6
		c-0.2-0.4-1.6-2-2.3-1.4c-1.7,1.4,1.1,4.8,2.1,4c0.2-0.2,0.1-1.3,0.2-1.6C347.8,107.2,348.3,106.9,347.5,106.6L347.5,106.6z
		 M352.5,102.4c-1.3-0.4-3,1-3.8,0.3c-0.7-0.6-2.2,0.6-1.5,1.2C348.1,104.7,357.2,104.4,352.5,102.4L352.5,102.4z M343.1,95.1
		c-0.1,0.8,0,1.4,0.6,1.9c1.1,0.9,5.3,1.6,3.4,0C346,96.1,343.7,96.2,343.1,95.1z M334.9,109.8c-1.6-0.2-1.2,0.7-1.9,1.2
		c-3.6,3,0.2,2.9-1.1,5.1c-0.2,0.3-1.5,2.1-1.1,2.4C333.2,120.4,335.8,111.3,334.9,109.8L334.9,109.8z M336.4,112
		c-0.5,0.6-1.1,3.7-0.4,4.5c0.8,1,3.2,0.6,3.8-0.3c0.8-1.4-1.9-0.5-2.3-0.9C336.9,114.9,336.7,112.6,336.4,112L336.4,112z
		 M350.2,113.6c-1.5-0.6-5.2,1.1-4,2.1c0.2,0.2,2.7-0.5,3.4-0.3c0.7,0.1,3.9,1.2,4.4,0.7C354.4,115.7,350.4,113.7,350.2,113.6
		L350.2,113.6z M349.6,116.7c-1,1.4,0.4,4,2.5,4.4c0.6,0.1,1.6-0.6,1.1-1c-0.8-0.7-1.8-0.6-2.5-1.2
		C350.1,118.4,350.3,117.3,349.6,116.7L349.6,116.7z M355.9,108.4c-1-0.2-1.8,0.3-2.3,0.7c-0.9,0.7-0.9,5,1.5,4
		C356.6,112.4,357.2,107.8,355.9,108.4L355.9,108.4z M363.5,109.6c-1.1,0-4.5,1.6-3.8,2.8c0.5,0.9,4.7,0.7,5.3-0.2
		C365.3,111.5,363.7,109.9,363.5,109.6L363.5,109.6z M366,109.9c-0.4,0.7,1.5,1.9,1.9,1.6c2-1.7-0.4-6.4-2.5-7.2
		c-0.4-0.1-1.8-0.5-2.1,0C361.4,107.4,367.9,106.8,366,109.9L366,109.9z M373.5,100.5c-0.8-0.5-1.7-1.1-2.3-0.5
		c-1.5,1.3,2.1,3.5,3.4,2.4C375,102.1,373.7,100.8,373.5,100.5z M370.4,117.3c-0.9-1.8-2.1-0.9-3.2,0c-0.3,0.2,0.1,0.7,0,1
		c-0.5,2.5,2.2,0,2.9,1.2c0.2,0.4,1.6,3.5,2.5,3.1C373.8,122.2,371.1,117.5,370.4,117.3L370.4,117.3z M379.4,114.8
		c-2.1-1-1,0.5-1.3,1.4c-0.1,0.3-1.2,1.6-0.6,2.1c1,0.8,1.6-0.6,1.7-0.9C379.5,116.4,379.4,115.7,379.4,114.8L379.4,114.8z
		 M360.7,116c-0.6,0.5-1.6,0.4-1.9,1c-0.8,2,1.4,4.3,2.1,1.9c0.1-0.5-0.1-1.1,0-1.6C361.1,116.7,361.4,116.3,360.7,116z
		 M361.2,123.2c-0.7-0.5-2.1-1.6-2.9-0.7c-2.1,2.3,1.9,7.1,3.6,5.8c1.5-1.2-1.4-2.8-1.3-3.1C360.8,124.6,362.5,123.7,361.2,123.2
		L361.2,123.2z M365.8,123.9c-3.9-0.8-2.6,5.5,0.2,4.4C368.4,127.2,367,124.4,365.8,123.9z M374,126.3c-5.8-1.6-2.2,6.5-0.6,5.2
		C375.1,130.1,377.3,127.7,374,126.3z M355.7,124.6c-1.5-0.6-1.6-0.4-2.1,0.5c-0.2,0.3,0.6,1.3,0.6,1.7c0,3.8,1.7,2.1,3.2,0.9
		c0.3-0.3-0.6-1.2-0.6-1.6C356.7,125.2,357,124.6,355.7,124.6z M360.3,130.3c-1.7-0.3-0.9,0.7-1.5,1.2c-0.8,0.7-2.8,0.2-3.6,0.9
		c-1.2,1,0.1,3.3,1.3,3.8c1.8,0.8,0.4-1.8,0.6-2.3C358.1,132.5,360.3,133.7,360.3,130.3L360.3,130.3z M361.4,134.2
		c-0.7-0.4-2.1-0.6-2.1,0.3c0,0.6,0,1,0.4,1.6c0.6,0.8-0.7,2.5,0.4,3C361.1,139.5,363.6,135.1,361.4,134.2L361.4,134.2z
		 M368.7,131.6c-0.7,0.2-4.8-1.1-5-0.7c-0.8,1.3,0.2,3.4,2.3,2.8C366.7,133.5,370.5,132.3,368.7,131.6z M372.5,136.8
		c-0.6,0-1.4-0.2-1.9,0.2c-1.5,0.9-1.1,3.1-0.2,3.8c0.4,0.3,1.2-0.4,1.5-0.2c0.9,0.8,1.9,0.4,1.9-1
		C373.8,138.2,373.6,137.7,372.5,136.8L372.5,136.8z M367.2,139.4c-1.1,0.2-1.3,1.1-2.3,1.4c-1.8,0.5-4-1.3-4,1.7
		c0,0.1-0.1,0.8,0,0.9c0.6,0.5,3.5-1.3,3.8-1.6c0.2-0.2-0.1,0.6,0,0.9c0.2,0.6,1.4,0.3,1.7,0C366.9,142.3,369.4,139.4,367.2,139.4z
		 M372.3,143.3c-0.5-1.3-4.9,0.1-3.8,1c0.4,0.3,2.3,0.5,1.3,1.4c-0.2,0.2-1.8,1.4-1.1,1.7C371.9,148.8,373.1,144.6,372.3,143.3
		L372.3,143.3z M368.3,151.8c0.2-0.6,1-0.9,1.3-1.4c0.7-1.5-1.3-1.5-1.9-0.5C366.9,151.2,366.9,154.2,368.3,151.8z M352.3,130.8
		c-1-0.7,1.4-2.3,1.1-2.8c-0.3-0.5-1.2-0.4-1.7-0.2c-0.5,0.3-0.9,1.4-1.3,1.7c-1.4,1.2-2.6,0.8-3.2,2.6c0,0-0.4,0.9-0.2,1
		c1.9,1.6,1.4-1.2,2.7-1.6C351.3,131.3,351.2,131.7,352.3,130.8L352.3,130.8z M351.8,134.5C345.5,137.1,353.6,137.5,351.8,134.5z
		 M355.2,139.2c-1.6-3.9-2.7,1.6-1.9,3C354,143.3,355.5,139.7,355.2,139.2z M346.2,134.3c-4.7-1.7,0.4,5.7,0.4,1
		C346.6,134.8,346.8,134.5,346.2,134.3z M348.5,138.5c-0.5,0-1.1-0.4-1.7-0.2c-0.3,0.1-0.1,0.5-0.2,0.7
		C345.8,141.7,350.9,138.5,348.5,138.5z M342.2,134.7C338.3,138.1,347.4,136.8,342.2,134.7z M338.2,134.1
		C333.7,134.1,340.2,137.5,338.2,134.1z M334.2,132.7c-2,1.1,2.4,2.1,1.7,0.5S334.8,132.4,334.2,132.7z M338,136.9
		c-3.9-0.6-1.5,2.1,0.4,1C338.9,137.7,339,136.5,338,136.9z M343,138.5c-0.9-0.1-1.5,0.1-2.3,0.5C338.4,140.1,344.6,141.2,343,138.5
		z M338.4,131.3c-2.6-0.1,0.4,2.4,0.4,0.5C338.8,131.5,338.9,131.5,338.4,131.3z M354.2,147c0.2-0.4,0.9-1.1,0.7-1.6
		c-0.3-0.8-1.2-1.7-2.5-1.1c-0.3,0.1-0.6,0.8-0.7,1C350.7,146.1,353.3,148.5,354.2,147z M353.5,148.6c-1.2-0.7-2.2,1.3-1.6,1.9
		C352.6,151,355,149.2,353.5,148.6z M363,152.7C358.8,154.8,364.9,155.9,363,152.7z M357.8,159.1c-1.1-0.1-1.3,0.2-2.1,0.9
		c-0.2,0.2-0.9,0.5-1,0.7C354.5,161,357.8,161.9,357.8,159.1z M351.7,159.1c-0.8-1.5-2.6,0.8-1.9,1.4c0.6,0.5,4.3,0.8,3-0.2
		C352.3,159.8,352,159.6,351.7,159.1z M349.2,151.9c0,0.8-0.6,0.6-1,1.2c-1.1,1.5,2.6,2.6,1.6-0.5
		C349.6,152.2,350,151.9,349.2,151.9L349.2,151.9z M346.1,153.8c-6,0,0,3.9,0,0.9C346.1,154.1,346.6,154.2,346.1,153.8L346.1,153.8z
		 M341.6,153.9c-1.5,1,0.6,2.9,0.6,0.4C342.2,153.8,342.1,153.9,341.6,153.9z M336.4,148.1c-1.6-1.2-2.8,1.5-0.6,1.5
		C336.7,149.6,336.4,148.7,336.4,148.1z M340.7,150.7c-0.4-0.2-0.7,0-0.7,0.4C340,153.8,342.2,151.9,340.7,150.7z M344,150
		c-2.1,0.7,0.4,2.5,1.2,1.2C345.7,150.4,345,149.5,344,150z M340.7,147.4c-2.7,2.1,2.2,2.3,0.7,1.1c-0.1-0.1,0.1-0.6,0-0.7
		C341.2,147.5,341,147.8,340.7,147.4L340.7,147.4z M345.5,143.9c-2.4,0.1-1.4,1.5-1.9,2c-0.5,0.4-2,1.2-0.7,1.7
		c0.1,0.1,0.6,0.2,0.7,0.1c0.1-0.1,0.3-0.6,0.3-0.7C344.2,146.2,347.4,144.7,345.5,143.9L345.5,143.9z M348.6,144.8
		c-0.3,0-0.8-0.1-0.9,0.2c-0.2,0.4,0.4,1,0,1.4c-0.9,0.8-2.8,0.2-2.8,2.1c0,0.2-0.1,0.4,0.1,0.5c0.2,0.1,1.6,0.1,1.8,0
		c0.7-0.3-0.1-1,0.1-1.1c0.3-0.1,1.2-0.2,1.3-0.2C350.8,147,349,145.4,348.6,144.8L348.6,144.8z M348.7,149.2
		c-0.4,0-0.9,0.1-1.2,0.4c-0.5,0.4-0.4,2.1,0.4,1.5c0.4-0.3,0.4-0.6,0.6-0.9c0.2-0.4,1.3-0.1,1.5-0.2
		C350.8,149.4,349,149.2,348.7,149.2L348.7,149.2z M341.6,142.7c-0.5,0.1-1.1-0.3-1.6-0.1c-1,0.4,1,1.8,1.9,0.7
		C342.4,142.8,342.3,143,341.6,142.7L341.6,142.7z M338.9,144.4c-0.7-0.3-0.9,0-1.2,0.5c-0.3,0.6,1.5,1.2,1.9,1
		C340.6,145.5,339.8,144.4,338.9,144.4z M336.6,142.6c-2.2-0.2-0.7,2.2,0,1.6C337.2,143.7,337.5,142.6,336.6,142.6z M335.4,140.1
		C331.2,140.2,337.3,143.2,335.4,140.1z M333.6,137.4c-0.4,0-0.9,0-1.2,0.2c-0.6,0.5,1.4,1.1,1.8,0.7
		C334.8,137.9,334.8,136.9,333.6,137.4z M292,140c-5.4-1.3-1.2,2.3,0.2,1.7C292.5,141.6,292,140.1,292,140z M289.9,141.9
		c-2.5-0.2-0.4,3.4,0.6,1.7C290.8,143.1,289.9,142.4,289.9,141.9z M287.4,143.5C282.2,146,292.9,145.8,287.4,143.5z M290.9,147.7
		c-0.5,0-1.6-0.2-1.9,0.3c-1.6,2.6,4.2,2.3,2.3,0C291.1,147.7,291.8,147.3,290.9,147.7L290.9,147.7z M286.1,145.9
		c-1.3-0.2-0.9,0.4-1.5,0.9c-0.2,0.2-1.2-0.4-1.3-0.3c-1,0.8,3.6,5,3.6,1.2c0-0.2,0.2-1.1,0-1.2
		C286.6,146.2,286.4,146.4,286.1,145.9z M281.7,143.5c-2,0.1-1,3.4,0.4,2.3C282.8,145.2,282.2,143.7,281.7,143.5z M278.1,144.4
		C274.2,145.8,281.4,149.9,278.1,144.4z M278.1,148C271.9,150.5,283.5,150.3,278.1,148z M281.7,149.4c-3.6,1.7,4.6,3.6,1.3,0.9
		C282.4,149.9,282.5,149.8,281.7,149.4z M286.7,150.1c-0.4,0-1.5,0-1.5,0.5C285.3,152.9,289.2,150.1,286.7,150.1z M289,150.5
		C286.5,151.6,290.8,153.5,289,150.5z M280.4,152.6C274.8,154.2,286.6,155.1,280.4,152.6z M285.7,154.1c-0.5,0.1-2.1-0.2-2.1,0.2
		c0,0.2-0.6,0.7-0.4,0.9C284.7,156.5,288.1,154.6,285.7,154.1L285.7,154.1z M288.2,154.5C286.2,158.4,290.8,153.4,288.2,154.5z
		 M289.5,157.4C285.2,160,294.1,159.4,289.5,157.4z M281.1,157.6c-5-0.1,2.7,4.9,0.4,1.2C281.1,158.3,281.9,158,281.1,157.6z
		 M277.9,158.5c-0.1-0.4-1.2-1.1-1.7-0.7C272.2,161.2,281.1,161.2,277.9,158.5z M281.5,161.6c-1.6,2.5,2.6,3.3,1.1,0.7
		C282.1,161.7,282.5,161.6,281.5,161.6z M284.4,164.4C281.5,170.2,291.1,164.4,284.4,164.4z M286.5,167.9c-3.4,0.1-2.3,3.5,0,1.6
		c0.5-0.4,0.3,0.8,0.8-0.5C287.6,168.3,287.3,168.2,286.5,167.9z M288.6,173.1c-0.2-1.9-4.4-0.7-3.6,0
		C286.1,174,290.1,175.6,288.6,173.1z M292.8,175.6c-7-0.2,0.4,4.6,0.4,0.9C293.2,175.8,293.4,175.8,292.8,175.6z M291.6,180.5
		c-1-1.7-4.3-0.1-2.5,0.7C289.9,181.6,292.4,182,291.6,180.5z M293.7,182.7c-0.5,0-1.1,0.4-1.1,0.9
		C292.6,186.8,295.7,181.9,293.7,182.7z M339.2,179.3c0.3,0.1,2.6-2.5,1.1-3.1C338.8,175.6,337.3,178.5,339.2,179.3z M344.9,172.3
		c-0.3,0.2-0.5,0.5-0.8,0.7c-3.8,2.1-0.8,2.6-0.6,2.4c0.7-0.6,0.3-1.3,0.6-1.9c0.2-0.3,0.9-0.2,1.3-0.5
		C345.5,172.8,344.7,172.7,344.9,172.3L344.9,172.3z M346.4,169.8c-0.1-0.7-0.6-0.9-1.5-0.9C341.7,169,348.6,173.5,346.4,169.8z
		 M348.5,164.6c-5.9,2.2-0.4,4.7-0.4,1.9c0-0.4,1.6-1.1,1.3-1.4C349,164.9,348.8,165.1,348.5,164.6L348.5,164.6z M350.2,162.3
		c-2.1,1,0.4,4.1,0.4,1C350.6,162.8,350.8,162.6,350.2,162.3z M344.7,158.1C336.4,153.9,347.3,164.5,344.7,158.1z M342,180.1
		c-1.5-0.6-3.6,3-2.1,3c0.1,0,0.4-0.7,0.6-0.9C340.9,181.9,343.7,180.8,342,180.1z M338.2,184.1c-0.3,0.4-1-0.5-1.3-0.3
		c-0.5,0.4,0.2,4.5,1.7,2.1C339.2,184.9,338.8,185.1,338.2,184.1L338.2,184.1z M267.3,148.5c-0.5-0.1-1.1-1.2-1.7-0.7
		c-0.2,0.1,1.7,4.3,2.1,3.7C268.2,150.8,268.7,148.5,267.3,148.5L267.3,148.5z M269,153c-0.7,0-0.8,0.3-0.8,0.9
		C268.2,156.6,270.7,153.7,269,153z"/>
	<path id="path1164_00000043447717752331525690000017874873948648443828_" d="M268.2,146.4c-5.4,0-10.8,0.2-16.8,0.6
		c0,0,24-0.2,39.9,1.4C282.3,147,275.2,146.5,268.2,146.4L268.2,146.4z M362.3,146.4c-7,0-14.1,0.5-23.1,2
		c15.9-1.6,39.9-1.4,39.9-1.4C373.1,146.7,367.7,146.4,362.3,146.4z M288.4,150.5c-20.7,0.1-39.1,6.3-39.1,6.3s22.8-5.5,43.3-6.3
		C291.1,150.5,289.7,150.5,288.4,150.5L288.4,150.5z M342.1,150.5c-1.4,0-2.8,0-4.2,0.1c20.5,0.8,43.3,6.3,43.3,6.3
		S362.9,150.6,342.1,150.5L342.1,150.5z M290.4,154c-18.9,0.6-34,11.9-34,11.9S273.9,155.9,290.4,154L290.4,154z M340.1,154
		c16.5,1.8,34,11.9,34,11.9S359,154.7,340.1,154L340.1,154z"/>
</g>
<path class="st6" d="M285.2,441.5c0,0,23.6-39.5,42.9-42.9s98.5,4.2,106.2,0.8c7.7-3.4,23.2-16.8,23.2-16.8s-19.7,2.6-26.3,2.6
	c-6.6,0-79.4-4-91.5-0.2c-12.1,3.8-56.9,46.9-56.9,49.9S285.2,441.5,285.2,441.5z"/>
<path class="st6" d="M401,377.9c0,0,58-3.6,63.5-6s45.5-28.5,29.1-24.2c-16.4,4.3-75.6,17.2-77.3,17.4c-1.7,0.2,25.9-50.8,25.9-50.8
	L401,377.9z"/>
<path class="st6" d="M463.6,277.5c0,0-31.4,77.7-30.4,77.9c0.9,0.2,56.3-18.7,60.5-25.1c4.2-6.4,29.1-32.9,20.4-31.4
	c-8.7,1.5-54.8,36.7-59.3,37s5.7-24.6,7.9-32.9c2.3-8.3,5.7-19.7,4-22.4C464.9,277.9,463.6,277.5,463.6,277.5z"/>
<path class="st6" d="M477.2,241c0,0-7.2,75-5.1,74.6c2.1-0.4,56.7-61.4,57.6-67.3c0.9-5.9-13.8,6-20.6,14s-24.9,35.5-26.1,33.1
	s5.3-54,2.3-54.4C482.3,240.7,477.2,241,477.2,241z"/>
<path class="st6" d="M481.5,187.5c0,0,7.4,76,10.8,75.7c3.4-0.3,36.6-47.1,37.6-63.8s-3.3-22.1-4.4-19.8s-23.5,64-26.6,61.3
	c-3.1-2.7-9.9-49.4-12.2-52.3C484.3,185.8,481.5,187.5,481.5,187.5z"/>
<path class="st6" d="M476.8,149.9c0,0-0.6,13.2,3.1,20.3c3.7,7.1,18.3,31.5,20.1,38.1c1.8,6.7,1.6,15.3,4.1,14s6.8-22.1,8.8-25.9
	c2-3.8,8.4-24.2,8.4-31.2c0-7.2-5.4-32.3-7.5-30.9c-2.1,1.4-5.2,58.8-8.1,61.2c-2.8,2.4-11.1-29.6-14.6-33.7
	C487.6,157.7,476.8,149.9,476.8,149.9z"/>
<path class="st6" d="M454.5,109c0,0,9.3,19.6,20.6,27.8c11.3,8.2,14.6,12.2,17.2,15.1c2.6,2.8,5.4,11.7,7.7,12.3
	c2.3,0.6,4.4-7.4,4-15.7c-0.4-8.3-3.4-50-7.2-50.7c-3.8-0.7-6.2,0.8-6.2,10.5s7.7,35,2.8,30.7s-24.9-26.6-28.3-28.8
	C461.7,107.8,454.5,109,454.5,109z"/>
<path class="st6" d="M439.6,69.3c0,0,23.7,30.8,28.6,36.1s23.8,15.6,20.1,8.4c-3.7-7.2-31.2-42.8-35.4-44.5
	C448.7,67.6,439.6,69.3,439.6,69.3z"/>
<path class="st7" d="M80.3,209.5c0,0-9.5-31-5.9-85.8c3.7-54.7,8.8-67.2,8.8-67.2l46.6,94.5l-39.3,81.2L80.3,209.5z"/>
<path class="st8" d="M81.9,224.4l-1.6-14.9c0,0,22.6-39.4,36.1-48.9s13.5-9.5,13.5-9.5l4.6,5.8c0,0-34.8,69.2-40.4,70.7
	C88.3,229.1,81.9,224.4,81.9,224.4z"/>
<path class="st9" d="M106.3,313.2c0,0-16.7-34.7-20-55c-3-18.7-4.4-33.8-4.4-33.8s21.4-41.6,33.1-51.4s19.5-16.2,19.5-16.2l34,64.8
	l-46.1,93.6L106.3,313.2z"/>
<path class="st8" d="M109.5,320.4l-3.2-7.2c0,0,41.7-75.7,47.1-82.1c6.5-7.7,15-9.4,15-9.4l4.2,7.5l-48.4,97.5L109.5,320.4z"/>
<path class="st7" d="M109.5,320.4c0,0,29.9-63.7,43.1-74.6c13.2-11,20-16.6,20-16.6s20,38.2,20.8,41.8S185,424.1,185,424.1
	L109.5,320.4z"/>
<path d="M330.1,338.1c0.3-0.4,28.2-51.6,28.2-51.6v-4h-6.5v-5.1h7.4l6.5-17.6l29.5,7.5l4.8-25.2l-37.7-3.3v-5.8l-24.7,5.2h-27.8
	l-6-27.8l-26.9,11.1l23.2,45.7h7.9l22.6,28.6l-16.5,24.4L330.1,338.1z"/>
<polygon class="st0" points="321.6,257.2 334.8,276 346.1,269.1 340.4,252.9 "/>
<path class="st10" d="M240.6,245.5c0,0,9.4-22.4,5.3-27.3c-4.2-4.9-41.4-28.2-41.4-28.2"/>
<line class="st10" x1="259.2" y1="175.6" x2="212.8" y2="229.9"/>
<g>
	<g>
		<line class="st11" x1="253.7" y1="167.9" x2="204.5" y2="165.3"/>
		<line class="st11" x1="257.3" y1="161.6" x2="200.4" y2="156.4"/>
		<line class="st11" x1="249.3" y1="152.5" x2="196.1" y2="147.3"/>
		<line class="st11" x1="248.1" y1="147.3" x2="192.9" y2="140.5"/>
		<line class="st11" x1="244.5" y1="138.3" x2="191" y2="131.2"/>
		<line class="st11" x1="243.4" y1="132.1" x2="191.4" y2="125.6"/>
		<line class="st11" x1="241.2" y1="128" x2="205.5" y2="117.5"/>
		<line class="st11" x1="239.2" y1="119.4" x2="207" y2="109.6"/>
		<path class="st11" d="M234.3,110.4c-0.5-0.4-31.8-11.8-31.8-11.8"/>
		<line class="st11" x1="236.3" y1="105.8" x2="201" y2="82.9"/>
		<path class="st11" d="M241.1,100.1c-0.2-0.1-27.5-18.6-27.5-18.6"/>
		<path class="st11" d="M243.3,95.4c-0.2-0.4-16.9-15.5-16.9-15.5"/>
		<line class="st11" x1="267.9" y1="94.4" x2="245.9" y2="45.8"/>
		<line class="st11" x1="275.8" y1="92" x2="258.7" y2="39.7"/>
		<line class="st11" x1="284.7" y1="90.4" x2="269.1" y2="37.7"/>
		<line class="st11" x1="296.2" y1="87.4" x2="282.3" y2="36.3"/>
		<line class="st11" x1="304.5" y1="86.4" x2="294.1" y2="33.6"/>
		<line class="st11" x1="313.4" y1="84.7" x2="302" y2="31.5"/>
		<line class="st11" x1="325.6" y1="82.6" x2="315.6" y2="29.9"/>
		<line class="st11" x1="332" y1="82.6" x2="332" y2="31.5"/>
		<line class="st11" x1="337" y1="82.6" x2="346.4" y2="33.6"/>
		<line class="st11" x1="344.8" y1="82.6" x2="357.9" y2="35.4"/>
		<line class="st11" x1="353.4" y1="82.6" x2="367.2" y2="39.8"/>
		<line class="st11" x1="360.3" y1="82.8" x2="376.6" y2="46.1"/>
		<line class="st11" x1="366.7" y1="82.8" x2="383.1" y2="51.3"/>
		<line class="st11" x1="374.9" y1="82.6" x2="395.8" y2="54.1"/>
		<line class="st11" x1="380.7" y1="87.1" x2="401.4" y2="60.7"/>
		<line class="st11" x1="384.6" y1="92" x2="412.6" y2="68.3"/>
		<line class="st11" x1="388.1" y1="97.2" x2="418.4" y2="78.5"/>
		<line class="st11" x1="389.4" y1="109" x2="424.3" y2="85.3"/>
		<line class="st11" x1="394.1" y1="118" x2="432.3" y2="94.7"/>
		<line class="st11" x1="394.1" y1="126.1" x2="438.6" y2="107.9"/>
		<line class="st11" x1="398.2" y1="131.7" x2="443.3" y2="117.7"/>
		<line class="st11" x1="401.2" y1="138.5" x2="447.6" y2="124.7"/>
		<line class="st11" x1="402.9" y1="148.4" x2="438" y2="140.3"/>
		<path class="st11" d="M396.6,160c0.4-0.3,36.4-8.4,36.4-8.4"/>
	</g>
	<path class="st11" d="M254.7,91.5c-1-0.9-27.3-26.1-27.3-26.1"/>
</g>
<g>
	<path class="st9" d="M57.7,410.1l17.5-23.7l7.7,5.6c2.9,2.1,4.8,3.6,5.5,4.5c1.1,1.3,1.7,3,1.7,4.8c0,1.9-0.6,3.7-2,5.6
		c-1.1,1.5-2.2,2.5-3.5,3.1c-1.3,0.6-2.5,0.9-3.8,0.9c-1.2,0-2.4-0.3-3.3-0.7c-1.3-0.6-3.1-1.7-5.3-3.3l-3.1-2.3l-6.6,8.9
		L57.7,410.1z M77.1,393.9l-5,6.7l2.6,1.9c1.9,1.4,3.3,2.2,4.1,2.4c0.8,0.2,1.6,0.2,2.4-0.1c0.8-0.3,1.4-0.7,1.9-1.4
		c0.6-0.9,0.9-1.8,0.8-2.7c-0.1-0.9-0.5-1.8-1.2-2.5c-0.5-0.5-1.6-1.4-3.4-2.7L77.1,393.9z"/>
	<path class="st9" d="M81.4,427l15.4-25.1l10.8,6.5c2.7,1.6,4.5,3,5.5,4.2c0.9,1.2,1.4,2.6,1.5,4.2c0,1.6-0.4,3.1-1.3,4.6
		c-1.2,1.9-2.7,3.1-4.5,3.7c-1.9,0.6-4,0.3-6.4-0.7c0.7,1.3,1.2,2.6,1.4,3.8c0.3,1.2,0.4,3.1,0.4,5.8l0.1,6.8L98,437l-0.3-7.7
		c-0.1-2.7-0.3-4.5-0.4-5.3c-0.2-0.8-0.5-1.5-0.9-2c-0.4-0.5-1.2-1.1-2.4-1.8l-1-0.6L86.5,430L81.4,427z M95.4,415.6l3.8,2.3
		c2.5,1.5,4,2.3,4.8,2.5c0.7,0.2,1.4,0.1,2.1-0.2c0.7-0.3,1.2-0.8,1.7-1.6c0.5-0.8,0.7-1.7,0.6-2.5c-0.1-0.8-0.6-1.5-1.3-2.1
		c-0.4-0.3-1.6-1.1-3.7-2.3l-4-2.4L95.4,415.6z"/>
	<path class="st9" d="M113.8,429.3c1.3-2.7,2.9-4.7,4.6-6.2c1.3-1,2.7-1.8,4.3-2.4c1.6-0.6,3.1-0.8,4.6-0.7c2,0.1,4.1,0.7,6.2,1.8
		c3.9,1.9,6.5,4.6,7.6,8.2c1.2,3.6,0.7,7.5-1.5,11.8c-2.1,4.3-4.9,7-8.5,8.3c-3.5,1.3-7.2,0.9-11.2-1c-4-1.9-6.5-4.7-7.6-8.2
		C111.2,437.4,111.7,433.5,113.8,429.3z M119.4,431.9c-1.5,3-1.9,5.6-1.3,7.8c0.6,2.2,2,3.9,4.1,4.9c2.1,1,4.3,1.1,6.4,0.3
		c2.1-0.9,4-2.8,5.5-5.9c1.5-3,2-5.6,1.4-7.7c-0.6-2.1-2-3.7-4.2-4.8c-2.2-1.1-4.4-1.2-6.5-0.4C122.7,426.9,120.9,428.8,119.4,431.9
		z"/>
	<path class="st9" d="M145.8,460l1.1-31.2l6,2.4l-1.1,22.9l14.8-17.5l5.9,2.3l-20.8,23.4L145.8,460z"/>
	<path class="st9" d="M165.3,467.3l9.5-27.8l5.7,1.9l-9.5,27.8L165.3,467.3z"/>
	<path class="st9" d="M177.2,471.3l8-28.3l5.6,1.6l6.3,22.1l5.4-18.9l5.4,1.5l-8,28.3l-5.8-1.6l-6.3-21.6l-5.2,18.4L177.2,471.3z"/>
	<path class="st9" d="M228.1,472.6l5.3,2.9c-1.5,3-3.4,5-5.8,6.1c-2.3,1.1-5.1,1.4-8.2,0.7c-3.9-0.8-6.8-2.7-8.7-5.8
		c-2-3.1-2.5-6.9-1.5-11.5c1-4.8,3-8.3,6-10.4c3-2.1,6.6-2.8,10.7-2c3.6,0.7,6.2,2.3,8,4.9c1.1,1.5,1.7,3.5,1.9,5.9l-6.1,0.2
		c0-1.6-0.5-2.9-1.4-4c-0.9-1.1-2.2-1.8-3.7-2.1c-2.2-0.4-4.1,0-5.7,1.2c-1.7,1.3-2.8,3.6-3.5,7c-0.7,3.6-0.6,6.4,0.4,8.2
		c1,1.8,2.6,2.9,4.7,3.4c1.6,0.3,3,0.1,4.3-0.7C226.1,476,227.2,474.6,228.1,472.6z"/>
	<path class="st9" d="M237.9,485.3l3.9-29.1l21.8,2.8l-0.7,4.9l-15.9-2.1l-0.9,6.5l14.8,1.9l-0.7,4.9l-14.8-1.9l-1.1,7.9l16.4,2.1
		l-0.7,4.9L237.9,485.3z"/>
	<path class="st9" d="M279.5,460.3l10.9,0.4c2.5,0.1,4.3,0.3,5.6,0.8c1.7,0.6,3.2,1.5,4.4,2.9c1.2,1.3,2.1,3,2.7,4.9
		c0.6,1.9,0.8,4.2,0.7,7c-0.1,2.4-0.5,4.5-1.1,6.2c-0.8,2.1-1.9,3.8-3.4,5.1c-1.1,1-2.5,1.7-4.3,2.2c-1.3,0.4-3.1,0.5-5.3,0.4
		l-11.3-0.4L279.5,460.3z M285.3,465.5l-0.7,19.4l4.5,0.2c1.7,0.1,2.9,0,3.6-0.2c1-0.2,1.8-0.6,2.5-1.1c0.7-0.6,1.2-1.5,1.7-2.8
		c0.5-1.3,0.7-3.1,0.8-5.4c0.1-2.3-0.1-4-0.4-5.2c-0.4-1.2-0.9-2.2-1.6-2.9c-0.7-0.7-1.6-1.2-2.7-1.5c-0.8-0.2-2.5-0.4-4.9-0.5
		L285.3,465.5z"/>
	<path class="st9" d="M308.5,461.2l6-0.2l0.5,15.9c0.1,2.5,0.2,4.2,0.4,4.9c0.3,1.2,0.9,2.1,1.9,2.8c1,0.7,2.3,1,4,1
		c1.7-0.1,3-0.4,3.8-1.2c0.8-0.7,1.3-1.6,1.5-2.6c0.1-1,0.2-2.7,0.1-5l-0.5-16.2l6-0.2l0.5,15.4c0.1,3.5,0,6-0.2,7.5
		c-0.3,1.5-0.8,2.7-1.7,3.7c-0.8,1-2,1.9-3.4,2.5c-1.4,0.6-3.3,1-5.7,1.1c-2.8,0.1-5-0.2-6.5-0.8c-1.5-0.6-2.7-1.4-3.5-2.4
		c-0.9-1-1.5-2.1-1.8-3.2c-0.4-1.7-0.7-4.1-0.8-7.4L308.5,461.2z"/>
	<path class="st9" d="M349.7,478.9l5.7-1.3c0.6,1.9,1.5,3.2,2.7,4c1.2,0.8,2.7,1,4.5,0.8c1.9-0.2,3.3-0.8,4.2-1.7
		c0.9-0.9,1.2-1.9,1.1-3c-0.1-0.7-0.4-1.2-0.8-1.7s-1.2-0.8-2.3-1c-0.7-0.2-2.4-0.4-4.9-0.7c-3.3-0.4-5.6-1.1-7.1-2
		c-2-1.4-3.2-3.2-3.5-5.5c-0.2-1.5,0.1-2.9,0.7-4.3c0.7-1.4,1.8-2.5,3.3-3.4c1.5-0.9,3.4-1.5,5.7-1.7c3.7-0.5,6.6,0,8.6,1.4
		c2.1,1.4,3.3,3.4,3.8,6l-5.9,1c-0.4-1.5-1.1-2.5-2-3c-0.9-0.6-2.2-0.7-3.9-0.5c-1.7,0.2-3,0.7-3.9,1.6c-0.6,0.5-0.8,1.2-0.7,1.9
		c0.1,0.7,0.5,1.2,1.1,1.7c0.8,0.5,2.7,0.9,5.7,1.3c3,0.3,5.2,0.7,6.7,1.3c1.5,0.5,2.7,1.4,3.6,2.6c0.9,1.2,1.5,2.7,1.8,4.5
		c0.2,1.7-0.1,3.3-0.8,4.9c-0.7,1.6-1.9,2.8-3.6,3.7c-1.6,0.9-3.7,1.5-6.3,1.9c-3.7,0.5-6.7,0-8.9-1.5
		C352.1,484.5,350.6,482.1,349.7,478.9z"/>
	<path class="st9" d="M407.3,479.3l-6.4,1.3l-3.9-6l-11.6,2.3l-1.1,7l-6.2,1.2l5.6-31l6.2-1.2L407.3,479.3z M394.2,470l-6.1-9.9
		l-1.8,11.5L394.2,470z"/>
	<path class="st9" d="M411.7,478.1l-7.9-28.3l5.6-1.5l17,15.7l-5.3-18.9l5.4-1.5l7.9,28.3l-5.8,1.6l-16.7-15.3l5.2,18.5L411.7,478.1
		z"/>
	<path class="st9" d="M441.8,469.6L431.7,442l5.6-2l4.5,12.3l6.9-16.3l7.6-2.7l-6.6,14.5l17.2,12.9l-7.3,2.6L447.2,453l-2.9,6.2
		l3,8.3L441.8,469.6z"/>
	<path class="st9" d="M458.8,432.1l5.5-2.4l6.6,14.5c1.1,2.3,1.8,3.8,2.2,4.4c0.7,1,1.7,1.6,2.9,1.9c1.2,0.3,2.5,0.1,4.1-0.6
		c1.5-0.7,2.6-1.5,3.1-2.5c0.5-1,0.6-2,0.4-2.9c-0.3-1-0.9-2.5-1.8-4.7l-6.8-14.8l5.5-2.4l6.4,14c1.5,3.2,2.4,5.5,2.7,7
		c0.3,1.5,0.3,2.8-0.1,4.1c-0.4,1.3-1.1,2.5-2.2,3.6c-1.1,1.1-2.7,2.2-4.8,3.1c-2.6,1.2-4.7,1.7-6.3,1.7c-1.6,0-3-0.3-4.2-0.9
		c-1.2-0.6-2.2-1.4-2.9-2.3c-1.1-1.4-2.3-3.6-3.6-6.5L458.8,432.1z"/>
	<path class="st9" d="M499.5,445.7l-14.4-25.6l11-6.1c2.8-1.5,4.9-2.4,6.4-2.6c1.5-0.2,3,0,4.4,0.8c1.4,0.8,2.6,1.9,3.4,3.4
		c1.1,1.9,1.4,3.8,1,5.7c-0.4,1.9-1.7,3.6-3.8,5.2c1.5,0,2.8,0.2,4,0.6c1.2,0.4,2.9,1.2,5.3,2.5l6,3.3l-6.3,3.5l-6.9-3.5
		c-2.5-1.3-4.1-2-4.9-2.2c-0.8-0.2-1.5-0.3-2.2-0.2c-0.7,0.1-1.6,0.5-2.8,1.2l-1.1,0.6l6,10.7L499.5,445.7z M496.4,428l3.9-2.1
		c2.5-1.4,4-2.4,4.5-2.9c0.5-0.6,0.8-1.2,0.9-1.9c0.1-0.7-0.1-1.4-0.6-2.2c-0.5-0.9-1.1-1.4-1.9-1.7c-0.8-0.3-1.6-0.2-2.5,0.1
		c-0.5,0.2-1.7,0.8-3.9,2l-4.1,2.3L496.4,428z"/>
	<path class="st9" d="M510.2,406l5-3.3l9,13.2c1.4,2.1,2.4,3.4,3,3.9c0.9,0.9,1.9,1.3,3.2,1.4c1.2,0.1,2.5-0.4,3.9-1.3
		c1.4-0.9,2.3-1.9,2.6-3c0.3-1,0.3-2-0.1-3c-0.4-0.9-1.3-2.4-2.6-4.3l-9.2-13.4l5-3.3l8.7,12.8c2,2.9,3.3,5.1,3.8,6.5
		c0.6,1.4,0.8,2.7,0.6,4c-0.2,1.3-0.7,2.6-1.5,3.9c-0.9,1.3-2.3,2.6-4.2,3.9c-2.3,1.6-4.3,2.5-5.9,2.8c-1.6,0.3-3,0.2-4.3-0.2
		c-1.3-0.4-2.4-1-3.2-1.8c-1.3-1.2-2.8-3.1-4.7-5.8L510.2,406z"/>
</g>
</svg>
