<svg xmlns:rdf="http://www.w3.org/1999/02/22-rdf-syntax-ns#" xmlns="http://www.w3.org/2000/svg" height="600" width="1e3" version="1.1" xmlns:cc="http://creativecommons.org/ns#" xmlns:dc="http://purl.org/dc/elements/1.1/" viewBox="0 0 999.99999 600.00001">
 <g transform="translate(0,-452.36216)">
  <g transform="matrix(.66666664 0 0 .66666664 0 350.78743)">
   <path d="m0 152.36216h1500v900.00004h-1500z" fill="#fff"/>
   <g fill-rule="evenodd">
    <path d="m65 1052.3622h84l-42-82.00004z" fill="#00911a"/>
    <path d="m156.85715 1052.3622h84l-42-82.00004z" fill="#ce000c"/>
    <path d="m248.7143 1052.3622h84l-42-82.00004z" fill="#00911a"/>
    <path d="m340.57141 1052.3622h84l-42-82.00004z" fill="#ce000c"/>
    <path d="m432.42856 1052.3622h84l-42-82.00004z" fill="#00911a"/>
    <path d="m524.2857 1052.3622h84l-42-82.00004z" fill="#ce000c"/>
    <path d="m616.14283 1052.3622h84l-42-82.00004z" fill="#00911a"/>
    <path d="m708 1052.3622h84l-42-82.00004z" fill="#ce000c"/>
    <path d="m799.85712 1052.3622h84l-42-82.00004z" fill="#00911a"/>
    <path d="m891.71424 1052.3622h84l-42-82.00004z" fill="#ce000c"/>
    <path d="m983.57141 1052.3622h84.00009l-42-82.00004z" fill="#00911a"/>
    <path d="m1075.4285 1052.3622h84l-42-82.00004z" fill="#ce000c"/>
    <path d="m1167.2857 1052.3622h84l-42-82.00004z" fill="#00911a"/>
    <path d="m1259.1428 1052.3622h84l-42-82.00004z" fill="#ce000c"/>
    <path d="m1351 1052.3622h84l-42-82.00004z" fill="#00911a"/>
   </g>
   <g fill-rule="evenodd">
    <path d="m0 217.36216v84l82-42z" fill="#00911a"/>
    <path d="m0 303.11219v83.99999l82-42z" fill="#ce000c"/>
    <path d="m0 388.86215v84l82-41.99999z" fill="#00911a"/>
    <path d="m0 474.61215v84.00001l82-42.00001z" fill="#ce000c"/>
    <path d="m0 560.36216v84l82-42z" fill="#00911a"/>
    <path d="m0 646.11215v84l82-42z" fill="#ce000c"/>
    <path d="m0 731.86216v84l82-42z" fill="#00911a"/>
    <path d="m0 817.61216v84l82-42z" fill="#ce000c"/>
    <path d="m0 903.36216v84l82-42z" fill="#00911a"/>
   </g>
   <g fill-rule="evenodd" transform="matrix(-1,0,0,1,1500,0)">
    <path d="m0 217.36216v84l82-42z" fill="#00911a"/>
    <path d="m0 303.11219v83.99999l82-42z" fill="#ce000c"/>
    <path d="m0 388.86215v84l82-41.99999z" fill="#00911a"/>
    <path d="m0 474.61215v84.00001l82-42.00001z" fill="#ce000c"/>
    <path d="m0 560.36216v84l82-42z" fill="#00911a"/>
    <path d="m0 646.11215v84l82-42z" fill="#ce000c"/>
    <path d="m0 731.86216v84l82-42z" fill="#00911a"/>
    <path d="m0 817.61216v84l82-42z" fill="#ce000c"/>
    <path d="m0 903.36216v84l82-42z" fill="#00911a"/>
   </g>
   <g fill-rule="evenodd" transform="matrix(1,0,0,-1,0,1204.7244)">
    <path d="m65 1052.3622h84l-42-82.00004z" fill="#00911a"/>
    <path d="m156.85715 1052.3622h84l-42-82.00004z" fill="#ce000c"/>
    <path d="m248.7143 1052.3622h84l-42-82.00004z" fill="#00911a"/>
    <path d="m340.57141 1052.3622h84l-42-82.00004z" fill="#ce000c"/>
    <path d="m432.42856 1052.3622h84l-42-82.00004z" fill="#00911a"/>
    <path d="m524.2857 1052.3622h84l-42-82.00004z" fill="#ce000c"/>
    <path d="m616.14283 1052.3622h84l-42-82.00004z" fill="#00911a"/>
    <path d="m708 1052.3622h84l-42-82.00004z" fill="#ce000c"/>
    <path d="m799.85712 1052.3622h84l-42-82.00004z" fill="#00911a"/>
    <path d="m891.71424 1052.3622h84l-42-82.00004z" fill="#ce000c"/>
    <path d="m983.57141 1052.3622h84.00009l-42-82.00004z" fill="#00911a"/>
    <path d="m1075.4285 1052.3622h84l-42-82.00004z" fill="#ce000c"/>
    <path d="m1167.2857 1052.3622h84l-42-82.00004z" fill="#00911a"/>
    <path d="m1259.1428 1052.3622h84l-42-82.00004z" fill="#ce000c"/>
    <path d="m1351 1052.3622h84l-42-82.00004z" fill="#00911a"/>
   </g>
   <g fill="#ce000c" transform="translate(-858.15305,-9.638545)">
    <path d="m1345.6999 771.93636c29.2 0 63.875-3.19375 82.125-10.49375 7.7562-3.19375 9.5812-5.475 11.8625-13.23125 4.5625-15.5125 10.0375-55.20625 10.0375-60.68125 0-3.65-0.9125-6.84375-4.1063-6.84375-3.65 0-4.5625 1.825-5.9312 9.125-1.825 8.2125-7.7563 21.44375-15.5125 30.1125-18.25 20.9875-42.8875 25.55-83.4938 25.55-61.1375 0-143.7187-53.8375-143.7187-162.425 0-44.25625 8.6687-87.6 41.975-118.16875 20.075-18.25 46.0812-28.2875 85.775-28.2875 41.975 0 77.5625 12.31875 92.6187 28.2875 11.4063 11.8625 17.3375 27.83125 17.7938 41.975 0 6.3875 0.9125 10.0375 4.5625 10.0375 4.1062 0 5.0187-3.65 5.475-10.49375 0.9125-9.125 0.4562-34.21875 1.3687-49.275 0.9125-15.96875 2.2813-21.44375 2.2813-25.09375 0-2.7375-1.825-5.01875-6.8438-5.475-13.6875-1.36875-28.2875-5.475-45.625-7.75625-20.9875-2.7375-37.8687-4.5625-66.1562-4.5625-67.9813 0-111.325 18.25-144.175 48.3625-43.8 40.15-53.3813 93.9875-53.3813 125.0125 0 44.25625 11.8625 95.35625 56.575 134.59375 41.5188 36.04375 93.9875 49.73125 156.4938 49.73125z"/>
    <path d="m1649.5314 771.93636c115.8875 0 188.8875-82.58125 188.8875-187.0625s-70.7188-170.6375-184.325-170.6375c-136.875 0-188.4313 100.83125-188.4313 178.85 0 80.75625 52.925 178.85 183.8688 178.85zm19.1625-22.8125c-87.6 0-140.0688-75.28125-140.0688-170.18125 0-113.60625 59.7688-142.80625 112.2375-142.80625 74.825 0 133.6813 63.41875 133.6813 165.61875 0 131.85625-73.9125 147.36875-105.85 147.36875zm31.025-363.63125c13.2312 0 21.9-10.0375 21.9-22.8125s-9.5813-20.075-21.4438-20.075c-14.6 0-20.9875 12.31875-20.9875 21.44375 0 9.58125 5.9313 21.44375 20.5313 21.44375zm-96.2688 0c13.2313 0 21.9-10.0375 21.9-22.8125 0-12.31875-9.5812-19.61875-21.4437-19.61875-14.6 0-20.9875 12.31875-20.9875 20.9875 0 9.58125 5.9312 21.44375 20.5312 21.44375z"/>
    <path d="m1961.4 596.28011c0-3.19375 0.9125-4.10625 3.1938-4.10625 7.7562 0 56.1187 0 67.525 1.36875 14.1437 1.825 20.9875 10.0375 23.2687 16.425 1.825 5.475 2.7375 10.95 2.7375 14.14375s0.9125 6.3875 3.65 6.3875c4.5625 0 4.5625-4.5625 4.5625-8.66875 0-3.19375 0.9125-24.18125 1.825-33.30625 1.3688-14.14375 3.65-25.55 3.65-28.2875s-0.9125-4.10625-2.7375-4.10625c-2.7375 0-3.65 1.825-5.9312 4.5625-4.5625 5.93125-10.95 7.75625-19.6188 8.2125-6.3875 0.45625-12.775 0.45625-20.5312 0.45625l-58.4 0.45625c-2.7375 0-3.1938-1.36875-3.1938-4.10625v-114.0625c0-5.01875 1.3688-6.3875 4.1063-6.3875l70.2625 1.36875c17.3375 0.45625 26.9187 7.3 30.1125 13.6875 2.7375 6.3875 2.7375 13.6875 2.7375 17.3375 0.4562 5.01875 1.3687 7.3 4.5625 7.3 3.1937 0 4.1062-2.7375 4.5625-6.3875 0.9125-5.475 1.825-32.39375 2.2812-36.95625 1.3688-11.8625 3.65-17.3375 3.65-20.53125 0-2.28125-1.3687-4.10625-3.1937-4.10625-2.2813 0-4.5625 1.825-7.3 2.7375-4.5625 1.36875-10.0375 1.36875-18.7063 1.825-10.4937 0.45625-103.1125 0.45625-120.45 0.45625-6.3875 0-16.8812-0.45625-28.7437-0.9125-11.8625 0-25.0938-0.45625-36.9563-0.45625-6.8437 0-10.4937 0.9125-10.4937 4.5625 0 2.7375 3.1937 3.65 7.7562 3.65 6.3875 0 14.1438 0.45625 17.7938 1.36875 15.0562 3.19375 18.7062 10.49375 19.6187 26.00625 0.9125 14.6 0.9125 27.375 0.9125 96.725v80.3c0 43.8 0 78.01875-2.2812 97.18125-1.825 13.23125-4.1063 23.26875-13.2313 25.09375-4.1062 0.9125-9.5812 1.825-16.425 1.825-5.0187 0-6.8437 1.36875-6.8437 3.65 0 3.65 3.1937 4.5625 9.5812 4.5625 17.3375 0 46.0813-1.36875 57.9438-1.36875s40.6062 1.36875 69.35 1.36875c6.8437 0 10.0375-1.36875 10.0375-4.5625 0-2.28125-1.825-3.65-7.7563-3.65-6.3875 0-16.425-0.9125-22.8125-1.825-13.6875-1.825-16.425-11.8625-17.7937-25.09375-2.2813-19.1625-2.2813-53.38125-2.2813-97.18125v-36.95625z"/>
   </g>
   <g fill="#00911a" transform="translate(-868.32695,-9.638545)">
    <path d="m1184.7552 881.1438c4.4082 0 9.6429-0.48214 12.3979-1.58418 1.171-0.48214 1.4465-0.82654 1.7909-1.99745 0.6887-2.34184 1.5153-8.33419 1.5153-9.16072 0-0.55102-0.1377-1.03316-0.6199-1.03316-0.551 0-0.6887 0.27551-0.8954 1.37755-0.2755 1.23979-1.1709 3.23724-2.3419 4.54592-2.755 3.16836-6.4745 3.85714-12.6045 3.85714-9.2296 0-21.6964-8.12755-21.6964-24.52041 0-6.68111 1.3086-13.22449 6.3367-17.83928 3.0306-2.7551 6.9566-4.27041 12.9489-4.27041 6.3368 0 11.7093 1.85969 13.9822 4.27041 1.7219 1.79082 2.6173 4.20153 2.6862 6.33673 0 0.96428 0.1378 1.51531 0.6888 1.51531 0.6199 0 0.7577-0.55103 0.8265-1.58418 0.1378-1.37755 0.069-5.16582 0.2066-7.43878 0.1378-2.41072 0.3445-3.23725 0.3445-3.78826 0-0.41327-0.2755-0.75765-1.0332-0.82654-2.0663-0.20663-4.2704-0.82652-6.8877-1.17092-3.1685-0.41326-5.7169-0.68877-9.9873-0.68877-10.2627 0-16.8062 2.7551-21.7653 7.30102-6.6123 6.06122-8.0587 14.18878-8.0587 18.87245 0 6.68112 1.7908 14.3954 8.5408 20.31888 6.2679 5.44133 14.1888 7.50765 23.625 7.50765z"/>
    <path d="m1214.121 863.15634c0 5.82 0 10.56-0.3 13.08-0.18 1.74-0.54 2.76-1.74 3-0.54 0.12-1.26 0.24-2.16 0.24-0.72 0-0.96 0.18-0.96 0.48 0 0.42 0.42 0.6 1.2 0.6 2.4 0 6.18-0.18 7.56-0.18 1.62 0 5.4 0.18 9.36 0.18 0.66 0 1.14-0.18 1.14-0.6 0-0.3-0.3-0.48-0.96-0.48-0.9 0-2.22-0.12-3.06-0.24-1.8-0.24-2.22-1.32-2.4-2.94-0.24-2.58-0.24-7.32-0.24-13.14v-10.56c0-9.12 0-10.8 0.12-12.72 0.12-2.1 0.6-3.12 2.22-3.42 0.72-0.12 1.2-0.18 1.8-0.18s0.96-0.12 0.96-0.6c0-0.36-0.48-0.48-1.26-0.48-2.28 0-5.82 0.18-7.32 0.18-1.74 0-5.52-0.18-7.8-0.18-0.96 0-1.44 0.12-1.44 0.48 0 0.48 0.36 0.6 0.96 0.6 0.72 0 1.5 0.06 2.16 0.24 1.32 0.3 1.92 1.32 2.04 3.36 0.12 1.92 0.12 3.6 0.12 12.72v10.56z"/>
    <path d="m1251.4227 877.73634c1.14 2.82 1.5 3.66 2.28 3.66 0.84 0 1.2-0.96 2.76-4.44 1.32-3 4.14-9.54 7.98-18.3 3.24-7.38 4.86-10.62 7.2-16.26 1.62-3.84 2.52-4.86 3.3-5.4 1.08-0.72 2.34-0.72 2.94-0.72s0.96-0.12 0.96-0.54-0.48-0.54-1.26-0.54c-1.8 0-4.62 0.18-5.64 0.18-0.78 0-3.3-0.18-6.3-0.18-1.14 0-1.68 0.12-1.68 0.6 0 0.42 0.48 0.48 1.02 0.48 0.78 0 1.68 0.06 2.4 0.3 0.54 0.18 0.78 0.66 0.78 1.14 0 0.54-0.24 1.44-0.54 2.22-1.44 3.96-9.24 23.28-11.82 29.88h-0.24l-10.32-27.24c-0.84-2.16-1.38-3.84-1.38-4.62 0-0.54 0.18-0.96 0.6-1.26 0.48-0.36 1.38-0.42 2.34-0.42 0.54 0 0.9-0.12 0.9-0.54s-0.66-0.54-1.38-0.54c-3 0-5.88 0.18-7.38 0.18-2.1 0-5.52-0.18-8.7-0.18-0.9 0-1.56 0.06-1.56 0.54 0 0.36 0.18 0.54 0.72 0.54 0.48 0 1.44 0 2.34 0.24 2.16 0.6 3.18 1.26 4.56 4.56l15.12 36.66z"/>
    <path d="m1286.0569 863.15634c0 5.82 0 10.56-0.3 13.08-0.18 1.74-0.54 2.76-1.74 3-0.54 0.12-1.26 0.24-2.16 0.24-0.72 0-0.96 0.18-0.96 0.48 0 0.42 0.42 0.6 1.2 0.6 2.4 0 6.18-0.18 7.56-0.18 1.62 0 5.4 0.18 9.36 0.18 0.66 0 1.14-0.18 1.14-0.6 0-0.3-0.3-0.48-0.96-0.48-0.9 0-2.22-0.12-3.06-0.24-1.8-0.24-2.22-1.32-2.4-2.94-0.24-2.58-0.24-7.32-0.24-13.14v-10.56c0-9.12 0-10.8 0.12-12.72 0.12-2.1 0.6-3.12 2.22-3.42 0.72-0.12 1.2-0.18 1.8-0.18s0.96-0.12 0.96-0.6c0-0.36-0.48-0.48-1.26-0.48-2.28 0-5.82 0.18-7.32 0.18-1.74 0-5.52-0.18-7.8-0.18-0.96 0-1.44 0.12-1.44 0.48 0 0.48 0.36 0.6 0.96 0.6 0.72 0 1.5 0.06 2.16 0.24 1.32 0.3 1.92 1.32 2.04 3.36 0.12 1.92 0.12 3.6 0.12 12.72v10.56z"/>
    <path d="m1321.6373 852.59634c0-9.12 0-10.8 0.12-12.72 0.12-2.1 0.6-3.12 2.22-3.42 0.72-0.12 1.68-0.18 2.34-0.18 0.72 0 1.08-0.12 1.08-0.54s-0.42-0.54-1.26-0.54c-2.34 0-6.72 0.18-8.16 0.18-1.62 0-5.4-0.18-8.22-0.18-0.9 0-1.32 0.12-1.32 0.54s0.36 0.54 1.02 0.54c0.78 0 1.5 0.06 1.98 0.18 1.98 0.42 2.46 1.38 2.58 3.42 0.12 1.92 0.12 3.6 0.12 12.72v10.56c0 5.52 0 10.26-0.3 12.78-0.24 1.74-0.54 3.06-1.74 3.3-0.54 0.12-1.26 0.24-2.16 0.24-0.72 0-0.96 0.18-0.96 0.48 0 0.42 0.42 0.6 1.2 0.6 1.2 0 2.76-0.12 4.14-0.12 1.44-0.06 2.76-0.06 3.42-0.06 2.46 0 4.62 0.06 7.32 0.18 2.7 0.06 5.82 0.18 10.14 0.18 3.12 0 3.42-0.3 3.78-1.62 0.48-1.74 0.9-6.24 0.9-6.9 0-0.72-0.06-1.02-0.48-1.02-0.48 0-0.6 0.36-0.66 0.9-0.12 1.14-0.84 2.82-1.56 3.6-1.5 1.62-3.84 1.68-7.02 1.68-4.68 0-6.24-0.42-7.26-1.32-1.26-1.08-1.26-5.22-1.26-12.9v-10.56z"/>
    <path d="m1390.1929 881.39634c15.24 0 24.84-10.86 24.84-24.6s-9.3-22.44-24.24-22.44c-18 0-24.78 13.26-24.78 23.52 0 10.62 6.96 23.52 24.18 23.52zm2.52-3c-11.52 0-18.42-9.9-18.42-22.38 0-14.94 7.86-18.78 14.76-18.78 9.84 0 17.58 8.34 17.58 21.78 0 17.34-9.72 19.38-13.92 19.38zm4.08-47.82c1.74 0 2.88-1.32 2.88-3s-1.26-2.64-2.82-2.64c-1.92 0-2.76 1.62-2.76 2.82 0 1.26 0.78 2.82 2.7 2.82zm-12.66 0c1.74 0 2.88-1.32 2.88-3 0-1.62-1.26-2.58-2.82-2.58-1.92 0-2.76 1.62-2.76 2.76 0 1.26 0.78 2.82 2.7 2.82z"/>
    <path d="m1434.8134 881.39634c3.18 0 6.54-0.54 9.54-2.46 4.32-2.82 5.64-6.96 5.64-10.44 0-5.7-2.58-9.84-9.84-15.3l-1.68-1.26c-4.98-3.78-6.36-5.88-6.36-8.64 0-3.6 2.7-6.18 7.14-6.18 3.9 0 5.64 1.8 6.54 2.94 1.26 1.56 1.56 3.42 1.56 3.96 0 0.72 0.18 1.08 0.6 1.08 0.48 0 0.66-0.48 0.66-1.8 0-4.68 0.24-6.42 0.24-7.2 0-0.42-0.3-0.6-0.84-0.72-1.56-0.42-4.08-1.02-7.98-1.02-8.34 0-13.86 4.74-13.86 11.34 0 4.86 2.28 9.06 8.88 14.22l2.76 2.16c4.98 3.9 5.88 6.66 5.88 9.6 0 3.18-2.64 6.84-8.04 6.84-3.72 0-7.26-1.62-8.58-6.06-0.3-1.02-0.54-2.28-0.54-3.06 0-0.48-0.06-1.02-0.6-1.02-0.48 0-0.66 0.66-0.72 1.56-0.06 0.96-0.3 4.56-0.3 7.86 0 1.32 0.18 1.62 1.14 2.04 2.58 1.14 5.28 1.56 8.76 1.56z"/>
    <path d="m1472.0082 881.39634c3.18 0 6.54-0.54 9.54-2.46 4.32-2.82 5.64-6.96 5.64-10.44 0-5.7-2.58-9.84-9.84-15.3l-1.68-1.26c-4.98-3.78-6.36-5.88-6.36-8.64 0-3.6 2.7-6.18 7.14-6.18 3.9 0 5.64 1.8 6.54 2.94 1.26 1.56 1.56 3.42 1.56 3.96 0 0.72 0.18 1.08 0.6 1.08 0.48 0 0.66-0.48 0.66-1.8 0-4.68 0.24-6.42 0.24-7.2 0-0.42-0.3-0.6-0.84-0.72-1.56-0.42-4.08-1.02-7.98-1.02-8.34 0-13.86 4.74-13.86 11.34 0 4.86 2.28 9.06 8.88 14.22l2.76 2.16c4.98 3.9 5.88 6.66 5.88 9.6 0 3.18-2.64 6.84-8.04 6.84-3.72 0-7.26-1.62-8.58-6.06-0.3-1.02-0.54-2.28-0.54-3.06 0-0.48-0.06-1.02-0.6-1.02-0.48 0-0.66 0.66-0.72 1.56-0.06 0.96-0.3 4.56-0.3 7.86 0 1.32 0.18 1.62 1.14 2.04 2.58 1.14 5.28 1.56 8.76 1.56z"/>
    <path d="m1506.9703 877.07634c8.46-12.9 17.58-26.64 25.86-40.08 0.24-0.42 0.48-0.78 0.48-1.14 0-0.3-0.42-0.48-1.02-0.48h-18.3c-2.46 0-5.34 0.06-11.04-0.18-1.5-0.06-1.86-0.42-2.4-0.42-0.36 0-0.6 0.3-0.72 1.14-0.3 1.8-1.2 7.26-1.2 8.64 0 0.72 0.06 1.02 0.48 1.02 0.36 0 0.6-0.24 0.72-1.08 0.18-1.38 1.26-3.6 3.24-4.68 1.92-1.08 5.58-1.26 8.64-1.26h11.76c-8.04 12.66-16.92 26.22-25.38 39.42-0.72 1.08-0.9 1.38-0.9 1.8s0.36 0.6 1.02 0.6c12.12 0 22.2 0.3 32.22 0.3 1.08 0 1.5-0.48 1.8-1.56 0.42-1.5 1.2-5.4 1.2-7.32 0-1.44-0.12-1.86-0.6-1.86-0.36 0-0.48 0.36-0.6 0.96-0.18 0.84-0.54 1.92-1.08 2.88-0.96 1.8-3.3 3.3-9.42 3.3h-14.76z"/>
    <path d="m1547.1567 863.15634c0 5.52 0 10.26-0.3 12.78-0.24 1.74-0.54 3.06-1.74 3.3-0.54 0.12-1.26 0.24-2.16 0.24-0.72 0-0.96 0.18-0.96 0.48 0 0.42 0.42 0.6 1.2 0.6 1.2 0 2.76-0.12 4.14-0.12 1.44-0.06 2.76-0.06 3.42-0.06 1.8 0 3.66 0.06 6.24 0.18 2.58 0.06 5.88 0.18 10.38 0.18 2.28 0 2.82 0 3.24-1.56 0.3-1.2 0.78-5.28 0.78-6.66 0-0.6 0-1.08-0.48-1.08-0.42 0-0.54 0.24-0.66 0.9-0.42 2.46-1.14 3.72-2.7 4.44s-4.08 0.72-5.64 0.72c-6.12 0-7.08-0.9-7.2-5.04-0.06-1.74 0-7.26 0-9.3v-4.74c0-0.36 0.06-0.6 0.36-0.6 1.44 0 7.38 0.06 8.52 0.18 2.22 0.24 3.06 1.14 3.36 2.34 0.18 0.78 0.18 1.56 0.24 2.16 0 0.3 0.12 0.54 0.54 0.54 0.54 0 0.54-0.66 0.54-1.14 0-0.42 0.18-2.82 0.24-4.02 0.24-3.06 0.48-4.02 0.48-4.38s-0.18-0.48-0.42-0.48c-0.3 0-0.54 0.3-0.96 0.78-0.54 0.6-1.44 0.78-2.88 0.9-1.38 0.12-8.28 0.12-9.6 0.12-0.36 0-0.42-0.24-0.42-0.66v-15.18c0-0.42 0.12-0.6 0.42-0.6 1.2 0 7.5 0.12 8.52 0.24 3 0.36 3.6 1.08 4.02 2.16 0.3 0.72 0.36 1.74 0.36 2.16 0 0.54 0.12 0.84 0.54 0.84s0.54-0.36 0.6-0.66c0.12-0.72 0.24-3.36 0.3-3.96 0.18-2.76 0.48-3.48 0.48-3.9 0-0.3-0.06-0.54-0.36-0.54s-0.66 0.18-0.96 0.24c-0.48 0.12-1.44 0.24-2.58 0.36-1.14 0.06-13.08 0.06-15 0.06-0.84 0-2.22-0.06-3.78-0.12-1.5 0-3.24-0.06-4.86-0.06-0.9 0-1.32 0.12-1.32 0.54s0.36 0.54 1.02 0.54c0.84 0 1.86 0.06 2.34 0.18 1.98 0.42 2.46 1.38 2.58 3.42 0.12 1.92 0.12 3.6 0.12 12.72v10.56z"/>
    <path d="m1592.6854 858.29634c0-0.42 0.12-0.54 0.42-0.54 1.02 0 7.38 0 8.88 0.18 1.86 0.24 2.76 1.32 3.06 2.16 0.24 0.72 0.36 1.44 0.36 1.86s0.12 0.84 0.48 0.84c0.6 0 0.6-0.6 0.6-1.14 0-0.42 0.12-3.18 0.24-4.38 0.18-1.86 0.48-3.36 0.48-3.72s-0.12-0.54-0.36-0.54c-0.36 0-0.48 0.24-0.78 0.6-0.6 0.78-1.44 1.02-2.58 1.08-0.84 0.06-1.68 0.06-2.7 0.06l-7.68 0.06c-0.36 0-0.42-0.18-0.42-0.54v-15c0-0.66 0.18-0.84 0.54-0.84l9.24 0.18c2.28 0.06 3.54 0.96 3.96 1.8 0.36 0.84 0.36 1.8 0.36 2.28 0.06 0.66 0.18 0.96 0.6 0.96s0.54-0.36 0.6-0.84c0.12-0.72 0.24-4.26 0.3-4.86 0.18-1.56 0.48-2.28 0.48-2.7 0-0.3-0.18-0.54-0.42-0.54-0.3 0-0.6 0.24-0.96 0.36-0.6 0.18-1.32 0.18-2.46 0.24-1.38 0.06-13.56 0.06-15.84 0.06-0.84 0-2.22-0.06-3.78-0.12-1.56 0-3.3-0.06-4.86-0.06-0.9 0-1.38 0.12-1.38 0.6 0 0.36 0.42 0.48 1.02 0.48 0.84 0 1.86 0.06 2.34 0.18 1.98 0.42 2.46 1.38 2.58 3.42 0.12 1.92 0.12 3.6 0.12 12.72v10.56c0 5.76 0 10.26-0.3 12.78-0.24 1.74-0.54 3.06-1.74 3.3-0.54 0.12-1.26 0.24-2.16 0.24-0.66 0-0.9 0.18-0.9 0.48 0 0.48 0.42 0.6 1.26 0.6 2.28 0 6.06-0.18 7.62-0.18s5.34 0.18 9.12 0.18c0.9 0 1.32-0.18 1.32-0.6 0-0.3-0.24-0.48-1.02-0.48-0.84 0-2.16-0.12-3-0.24-1.8-0.24-2.16-1.56-2.34-3.3-0.3-2.52-0.3-7.02-0.3-12.78v-4.86z"/>
    <path d="m1641.7989 881.39634c15.24 0 24.84-10.86 24.84-24.6s-9.3-22.44-24.24-22.44c-18 0-24.78 13.26-24.78 23.52 0 10.62 6.96 23.52 24.18 23.52zm2.52-3c-11.52 0-18.42-9.9-18.42-22.38 0-14.94 7.86-18.78 14.76-18.78 9.84 0 17.58 8.34 17.58 21.78 0 17.34-9.72 19.38-13.92 19.38z"/>
    <path d="m1717.1268 869.93634c0-3 0-5.4 0.06-7.2 0.06-2.1 0.66-3.12 2.28-3.42 0.72-0.12 1.14-0.18 1.62-0.18 0.42 0 0.78-0.12 0.78-0.48 0-0.48-0.42-0.6-1.2-0.6-1.98 0-5.16 0.18-7.02 0.18-1.8 0-5.58-0.18-8.7-0.18-0.84 0-1.26 0.12-1.26 0.6 0 0.36 0.36 0.48 0.9 0.48 0.84 0 1.86 0.06 2.34 0.18 1.98 0.42 2.52 1.38 2.58 3.42 0.06 1.8 0.06 4.08 0.06 7.08v5.64c0 1.02-0.24 1.8-1.14 2.22-1.44 0.66-3.54 0.66-5.1 0.66-12.66 0-20.88-9.66-20.88-22.56 0-7.38 2.16-11.88 5.52-14.7 4.2-3.48 8.58-3.72 11.88-3.72 6.78 0 11.58 2.76 13.38 4.68 1.56 1.68 1.86 3.6 2.04 4.98 0.06 0.48 0.18 0.78 0.6 0.78 0.48 0 0.66-0.3 0.66-1.26 0-7.5 0.42-9.18 0.42-9.84 0-0.42-0.12-0.66-0.84-0.72-1.38-0.06-3.48-0.42-4.74-0.66-1.2-0.24-6.48-0.96-10.62-0.96-5.04 0-10.38 0.42-16.14 3.9-5.46 3.3-10.44 10.02-10.44 19.62 0 16.56 13.02 23.52 27.72 23.52 4.68 0 10.56-0.66 14.46-2.7 0.72-0.42 0.78-0.54 0.78-2.16v-6.6z"/>
    <path d="m1750.8264 864.89634c0.3 0 0.48 0.12 0.6 0.42l4.8 12.72c0.3 0.72-0.12 1.26-0.54 1.38-0.6 0.06-0.84 0.18-0.84 0.54 0 0.42 0.72 0.42 1.8 0.48 4.8 0.12 9.18 0.12 11.34 0.12 2.22 0 2.76-0.12 2.76-0.6 0-0.42-0.3-0.48-0.78-0.48-0.72 0-1.62-0.06-2.52-0.24-1.26-0.3-3-1.14-5.28-6.54-3.84-9.12-13.44-33.6-14.88-36.9-0.6-1.38-0.96-1.92-1.5-1.92-0.6 0-0.96 0.66-1.68 2.4l-15.06 37.68c-1.2 3-2.34 5.04-5.1 5.4-0.48 0.06-1.32 0.12-1.86 0.12-0.48 0-0.72 0.12-0.72 0.48 0 0.48 0.36 0.6 1.14 0.6 3.12 0 6.42-0.18 7.08-0.18 1.86 0 4.44 0.18 6.36 0.18 0.66 0 1.02-0.12 1.02-0.6 0-0.36-0.18-0.48-0.9-0.48h-0.9c-1.86 0-2.4-0.78-2.4-1.86 0-0.72 0.3-2.16 0.9-3.66l3.24-8.58c0.12-0.36 0.24-0.48 0.54-0.48h13.38zm-12.18-3c-0.24 0-0.3-0.18-0.24-0.42l5.52-14.76c0.06-0.24 0.18-0.54 0.36-0.54s0.24 0.3 0.3 0.54l5.4 14.82c0.06 0.18 0 0.36-0.3 0.36h-11.04zm15.78-39.84c-0.3-0.54-0.42-0.72-0.84-0.72-0.18 0-0.6 0.12-1.2 0.54-0.96 0.6-7.26 5.28-9.66 7.56-0.3 0.3-0.54 0.54-0.54 0.78s0.24 0.36 0.36 0.36 0.54-0.24 1.02-0.48c2.22-1.2 6.96-3.12 10.26-3.54 1.2-0.12 1.74 0 2.04 0s0.66-0.18 0.3-0.9c-0.72-1.62-1.26-2.76-1.74-3.6z"/>
    <path d="m1783.515 881.39634c3.18 0 6.54-0.54 9.54-2.46 4.32-2.82 5.64-6.96 5.64-10.44 0-5.7-2.58-9.84-9.84-15.3l-1.68-1.26c-4.98-3.78-6.36-5.88-6.36-8.64 0-3.6 2.7-6.18 7.14-6.18 3.9 0 5.64 1.8 6.54 2.94 1.26 1.56 1.56 3.42 1.56 3.96 0 0.72 0.18 1.08 0.6 1.08 0.48 0 0.66-0.48 0.66-1.8 0-4.68 0.24-6.42 0.24-7.2 0-0.42-0.3-0.6-0.84-0.72-1.56-0.42-4.08-1.02-7.98-1.02-8.34 0-13.86 4.74-13.86 11.34 0 4.86 2.28 9.06 8.88 14.22l2.76 2.16c4.98 3.9 5.88 6.66 5.88 9.6 0 3.18-2.64 6.84-8.04 6.84-3.72 0-7.26-1.62-8.58-6.06-0.3-1.02-0.54-2.28-0.54-3.06 0-0.48-0.06-1.02-0.6-1.02-0.48 0-0.66 0.66-0.72 1.56-0.06 0.96-0.3 4.56-0.3 7.86 0 1.32 0.18 1.62 1.14 2.04 2.58 1.14 5.28 1.56 8.76 1.56z"/>
    <path d="m1845.0044 854.65922c0-0.48559 0.1388-0.62434 0.4855-0.62434 1.1795 0 8.5328 0 10.2671 0.20812 2.1505 0.27749 3.1911 1.52617 3.5379 2.49738 0.2775 0.83246 0.4163 1.66492 0.4163 2.15052s0.1388 0.97121 0.5549 0.97121c0.6937 0 0.6937-0.69374 0.6937-1.31808 0-0.48559 0.1388-3.67669 0.2776-5.06414 0.2081-2.1505 0.5549-3.8848 0.5549-4.30103s-0.1388-0.62434-0.4161-0.62434c-0.4164 0-0.555 0.27748-0.9019 0.69371-0.6937 0.90184-1.665 1.17932-2.983 1.24869-0.9712 0.0694-1.9425 0.0694-3.1217 0.0694l-8.8797 0.0694c-0.4161 0-0.4855-0.20811-0.4855-0.62434v-17.34294c0-0.76308 0.2081-0.97119 0.6243-0.97119l10.6832 0.20811c2.6362 0.0694 4.093 1.10995 4.5785 2.08115 0.4164 0.97121 0.4164 2.08116 0.4164 2.63613 0.07 0.76309 0.2081 1.10994 0.6937 1.10994 0.4855 0 0.6243-0.41622 0.6937-0.97119 0.1387-0.83247 0.2775-4.9254 0.3469-5.61912 0.208-1.80366 0.5549-2.63612 0.5549-3.12172 0-0.34687-0.2082-0.62435-0.4855-0.62435-0.347 0-0.6939 0.27748-1.11 0.41624-0.6937 0.20811-1.5262 0.20811-2.8442 0.27748-1.5956 0.0694-15.678 0.0694-18.3142 0.0694-0.9713 0-2.5669-0.0694-4.3704-0.13873-1.8037 0-3.8154-0.0694-5.6191-0.0694-1.0407 0-1.5956 0.13874-1.5956 0.69371 0 0.41624 0.4855 0.55498 1.1793 0.55498 0.9712 0 2.1506 0.0694 2.7055 0.20811 2.2893 0.4856 2.8442 1.59556 2.983 3.95418 0.1387 2.2199 0.1387 4.16231 0.1387 14.70681v12.20942c0 6.65969 0 11.86257-0.3469 14.77619-0.2774 2.01177-0.6243 3.53794-2.0117 3.81544-0.6243 0.13874-1.4568 0.27748-2.4974 0.27748-0.7631 0-1.0405 0.20811-1.0405 0.55497 0 0.55498 0.4856 0.69372 1.4568 0.69372 2.636 0 7.0066-0.20811 8.8101-0.20811 1.8037 0 6.1741 0.20811 10.5446 0.20811 1.0406 0 1.5262-0.20811 1.5262-0.69372 0-0.34686-0.2776-0.55497-1.1795-0.55497-0.971 0-2.4972-0.13874-3.4684-0.27748-2.0811-0.2775-2.4975-1.80367-2.7056-3.81544-0.3468-2.91362-0.3468-8.1165-0.3468-14.77619v-5.61911z"/>
    <path d="m1896.0309 881.39634c15.24 0 24.84-10.86 24.84-24.6s-9.3-22.44-24.24-22.44c-18 0-24.78 13.26-24.78 23.52 0 10.62 6.96 23.52 24.18 23.52zm2.52-3c-11.52 0-18.42-9.9-18.42-22.38 0-14.94 7.86-18.78 14.76-18.78 9.84 0 17.58 8.34 17.58 21.78 0 17.34-9.72 19.38-13.92 19.38zm6-56.34c-0.3-0.54-0.42-0.72-0.84-0.72-0.18 0-0.6 0.12-1.2 0.54-0.96 0.6-7.26 5.28-9.66 7.56-0.3 0.3-0.54 0.54-0.54 0.78s0.24 0.36 0.36 0.36 0.54-0.24 1.02-0.48c2.22-1.2 6.96-3.12 10.26-3.54 1.2-0.12 1.74 0 2.04 0s0.66-0.18 0.3-0.9c-0.72-1.62-1.26-2.76-1.74-3.6z"/>
    <path d="m1933.2165 863.15634c0 5.52 0 10.26-0.3 12.78-0.24 1.74-0.54 3.06-1.74 3.3-0.54 0.12-1.26 0.24-2.16 0.24-0.72 0-0.96 0.18-0.96 0.48 0 0.42 0.42 0.6 1.2 0.6 2.4 0 6.18-0.18 7.32-0.18 0.9 0 5.34 0.18 8.82 0.18 0.78 0 1.2-0.18 1.2-0.6 0-0.3-0.24-0.48-0.72-0.48-0.72 0-2.04-0.12-2.94-0.24-1.8-0.24-2.16-1.56-2.34-3.3-0.3-2.52-0.3-7.26-0.3-12.84v-0.84c0-0.36 0.18-0.48 0.48-0.48l5.22 0.12c0.42 0 0.78 0.06 1.08 0.42 0.78 0.9 3.54 4.98 5.94 8.28 3.36 4.62 5.64 7.44 8.22 8.82 1.56 0.84 3.06 1.14 6.42 1.14h5.7c0.72 0 1.14-0.12 1.14-0.6 0-0.3-0.24-0.48-0.72-0.48s-1.02-0.06-1.68-0.18c-0.9-0.18-3.36-0.6-6.72-4.08-3.54-3.72-7.68-9.06-13.02-15.78 6.06-4.92 7.92-9 7.92-13.44 0-4.02-2.4-7.08-4.08-8.22-3.24-2.22-7.26-2.58-11.04-2.58-1.86 0-6.42 0.18-8.46 0.18-1.26 0-5.04-0.18-8.22-0.18-0.9 0-1.32 0.12-1.32 0.54s0.36 0.54 1.02 0.54c0.84 0 1.86 0.06 2.34 0.18 1.98 0.42 2.46 1.38 2.58 3.42 0.12 1.92 0.12 3.6 0.12 12.72v10.56zm7.08-24.06c0-0.48 0.12-0.72 0.54-0.84 0.6-0.18 1.68-0.24 3.18-0.24 3.54 0 9.18 2.46 9.18 10.98 0 4.92-1.74 7.68-3.54 9-1.08 0.78-1.86 1.02-4.26 1.02-1.5 0-3.3-0.18-4.56-0.6-0.42-0.18-0.54-0.42-0.54-1.08v-18.24z"/>
    <path d="m1977.278 861.35634c0 8.7 2.28 13.14 5.34 15.9 4.38 3.96 10.14 4.14 13.32 4.14 3.9 0 8.22-0.66 12.48-4.32 5.04-4.32 5.7-11.4 5.7-18.06v-6.42c0-9.12 0-10.8 0.12-12.72 0.12-2.1 0.6-3.12 2.22-3.42 0.72-0.12 1.08-0.18 1.74-0.18 0.72 0 1.08-0.12 1.08-0.54s-0.42-0.54-1.26-0.54c-2.34 0-6.12 0.18-6.84 0.18-0.06 0-3.84-0.18-6.9-0.18-0.84 0-1.26 0.12-1.26 0.54s0.36 0.54 1.02 0.54 1.68 0.06 2.16 0.18c1.98 0.42 2.46 1.38 2.58 3.42 0.12 1.92 0.12 3.6 0.12 12.72v7.5c0 6.18-0.18 11.58-3.48 14.88-2.4 2.4-5.64 3.24-8.28 3.24-2.04 0-4.8-0.24-7.5-2.46-2.94-2.4-4.68-6.06-4.68-14.76v-8.4c0-9.12 0-10.8 0.12-12.72 0.12-2.1 0.6-3.12 2.22-3.42 0.72-0.12 1.08-0.18 1.74-0.18 0.6 0 0.96-0.12 0.96-0.54s-0.42-0.54-1.32-0.54c-2.16 0-5.94 0.18-7.38 0.18-1.8 0-5.58-0.18-8.76-0.18-0.9 0-1.32 0.12-1.32 0.54s0.36 0.54 1.02 0.54c0.84 0 1.86 0.06 2.34 0.18 1.98 0.42 2.46 1.38 2.58 3.42 0.12 1.92 0.12 3.6 0.12 12.72v8.76z"/>
    <path d="m2027.3045 874.55634c-0.3 2.04-0.78 4.38-2.46 4.74-0.9 0.18-1.32 0.18-1.8 0.18-0.6 0-0.96 0.12-0.96 0.42 0 0.54 0.48 0.66 1.08 0.66 1.92 0 4.8-0.18 5.94-0.18 1.08 0 3.78 0.18 6.3 0.18 0.9 0 1.44-0.12 1.44-0.66 0-0.3-0.42-0.42-0.9-0.42-0.6 0-1.44-0.06-2.52-0.3-1.02-0.24-1.8-0.78-1.8-1.92 0-0.96 0.06-1.74 0.18-2.82l3.12-23.88h0.24c2.1 4.5 5.7 12.06 6.24 13.32 0.72 1.68 5.46 10.86 6.9 13.62 0.96 1.8 1.56 3 2.1 3s0.84-0.54 2.22-3.36l13.08-27.24h0.24l3.6 26.4c0.24 1.68 0.06 2.46-0.3 2.58-0.42 0.18-0.66 0.36-0.66 0.66 0 0.36 0.36 0.54 1.74 0.66 2.4 0.18 10.68 0.36 12.18 0.36 0.84 0 1.56-0.18 1.56-0.66 0-0.36-0.42-0.42-0.96-0.42-0.78 0-1.98-0.06-3.72-0.6-1.8-0.54-2.4-2.28-2.94-6.06l-5.46-37.08c-0.18-1.26-0.54-1.86-1.08-1.86s-0.84 0.48-1.32 1.44l-16.32 34.26-16.38-33.84c-0.78-1.56-1.14-1.86-1.62-1.86s-0.84 0.54-1.02 1.56l-5.94 39.12z"/>
   </g>
   <g fill-rule="evenodd" fill="#ce000c">
    <path d="m0 987.36216v65.00004h65z"/>
    <path d="m0 217.3622v-65.00004h65z"/>
    <path d="m1500 987.36216v65.00004h-65z"/>
    <path d="m1500 217.3622v-65.00004h-65z"/>
   </g>
  </g>
 </g>
</svg>
