<svg xmlns:rdf="http://www.w3.org/1999/02/22-rdf-syntax-ns#" xmlns="http://www.w3.org/2000/svg" height="600" width="900" version="1.1" xmlns:cc="http://creativecommons.org/ns#" xmlns:dc="http://purl.org/dc/elements/1.1/" viewBox="0 0 900.00001 600.00001">
 <g transform="translate(0,-452.36216)">
  <path d="m-0.0000010437856 452.36214h899.999941v600.00006h-899.999941z" fill="#fff"/>
  <g transform="translate(4.4781071e-6,2.4978107e-5)">
   <path d="m598.49238 900.85456a209.99999 209.99999 0 0 1 -296.98483 0 209.99999 209.99999 0 0 1 0 -296.98483 209.99999 209.99999 0 0 1 296.98483 0 209.99999 209.99999 0 0 1 -0.00001 296.98484z" fill="#cd2a3e"/>
   <path d="m548.99491 851.35709a140 140 0 0 1 -197.9899 0 140 140 0 0 1 0 -197.98989 140 140 0 0 1 197.9899 0 140 140 0 0 1 0 197.9899z" fill="#fff"/>
   <path d="m541.92385 660.43826a130.00001 130.00001 0 0 0 -183.84777 0 130.00001 130.00001 0 0 0 0 183.84777 130.00001 130.00001 0 0 0 183.84777 0 130.00001 130.00001 0 0 0 0 -183.84777zm-50.47197 18.2986-41.45193 41.45193-41.39627-41.39627a84.500008 84.500008 0 0 1 82.8482 -0.0557zm32.1177 32.22902a84.500008 84.500008 0 0 1 0.0557 82.8482l-41.45193-41.45193 41.39627-41.39627zm-147.19491-0.0557 41.45193 41.45192-41.39628 41.39628a84.500008 84.500008 0 0 1 -0.0557 -82.8482zm73.62528 73.62528 41.39628 41.39626a84.500008 84.500008 0 0 1 -82.84821 0.0557l41.45193-41.45192z" fill="#f8c300"/>
  </g>
 </g>
</svg>
