<svg xmlns:rdf="http://www.w3.org/1999/02/22-rdf-syntax-ns#" xmlns="http://www.w3.org/2000/svg" height="600" width="900" version="1.1" xmlns:cc="http://creativecommons.org/ns#" xmlns:dc="http://purl.org/dc/elements/1.1/" viewBox="0 0 899.99999 600.00001">
 <defs>
  <clipPath id="a" clipPathUnits="userSpaceOnUse">
   <path d="m253.977 393.259 1.431-13.622 37.861 3.979-1.431 13.621-37.861-3.978z"/>
  </clipPath>
 </defs>
 <g transform="translate(0,-452.36216)">
  <g transform="matrix(2.7777778,0,0,2.7777778,0,-1870.8661)">
   <rect height="216" width="324" y="836.36218" x="0" fill="#cd1719"/>
   <g fill="#fff" transform="matrix(7.4334759 .78128979 .78128979 -7.4334759 -2164.8409 3628.2099)">
    <g fill="#fff" clip-path="url(#a)">
     <g transform="translate(263.3451,394.2431)">
      <path d="m0 0c-0.578-0.061-1.118-0.164-1.614-0.34-0.798-0.269-1.111-0.564-1.36-0.806-0.385 0.236-1.122 0.715-2.789 0.54-0.697-0.073-2.295-0.412-3.073-1.018-0.411-0.338-0.407-0.552-0.341-1.18l0.627-5.961c0.03-0.291 0.156-0.34 0.445-0.309l1.869 0.196c0.358 0.038 0.415 0.151 0.386 0.427l-0.54 5.138c-0.04 0.381-0.073 0.686 0.19 0.976 0.169 0.188 0.446 0.326 0.752 0.358 0.324 0.034 0.85-0.066 1.04-0.57 0.051-0.15 0.083-0.301 0.115-0.607l0.535-5.09c0.034-0.32 0.192-0.351 0.499-0.319l1.852 0.195c0.324 0.034 0.382 0.133 0.355 0.393l-0.533 5.076c-0.052 0.488-0.079 0.749 0.183 1.023 0.123 0.151 0.346 0.316 0.77 0.361 0.987 0.104 1.082-0.631 1.138-1.164l0.533-5.076c0.026-0.247 0.122-0.343 0.428-0.311l1.971 0.207c0.289 0.03 0.328 0.158 0.302 0.403l-0.545 5.183c-0.075 0.718-0.356 2.573-3.195 2.275" fill="#fff"/>
     </g>
     <g transform="translate(272.1163,391.6006)">
      <path d="m0 0-1.048 0.277c-0.622 0.166-1.376 0.334-1.445 0.992-0.037 0.351 0.184 0.761 0.745 0.819 0.542 0.057 0.86-0.296 1.097-0.565 0.3-0.339 0.6-0.679 1.31-0.604 0.728 0.077 1.034 0.573 0.986 1.032-0.074 0.703-1.02 1.624-3.409 1.373-3.212-0.338-3.301-2.187-3.245-2.721 0.154-1.468 1.594-1.874 2.293-2.063l0.838-0.237c0.991-0.282 1.537-0.441 1.602-1.053 0.049-0.473-0.353-0.794-0.781-0.839-0.504-0.053-0.857 0.267-1.005 0.405-0.065 0.07-0.399 0.375-0.463 0.445-0.457 0.415-0.896 0.447-1.176 0.417-0.728-0.076-1.126-0.596-1.068-1.146 0.076-0.721 1.173-1.841 3.882-1.556 2.782 0.292 3.375 1.822 3.264 2.878-0.158 1.499-1.619 1.948-2.377 2.146" fill="#fff"/>
     </g>
     <g transform="translate(285.1428,389.4536)">
      <path d="m0 0-0.797-0.084c-0.065-0.002-0.128-0.007-0.199-0.008l-0.479 4.558c-0.04 0.382-0.071 0.843 0.695 0.924 0.635 0.067 1.124-0.283 1.432-0.684 0.417-0.559 0.563-1.239 0.634-1.912 0.082-0.776 0.086-2.566-1.286-2.794m2.636 6.306c-1.149 0.698-2.684 0.568-3.318 0.501-1.961-0.206-3.365-0.864-3.663-1.249-0.185-0.223-0.159-0.466-0.113-0.91l0.532-5.061-3.369-0.354 2.484 6.367c0.072 0.21 0.087 0.241 0.079 0.317-0.026 0.245-0.324 0.214-0.455 0.2l-5.714-0.6c-0.168-0.018-0.315-0.05-0.349-0.27l0.084-0.793c0.024-0.231 0.123-0.281 0.403-0.252l2.597 0.273-2.574-6.408c-0.088-0.24-0.085-0.27-0.079-0.33 0.023-0.216 0.264-0.191 0.377-0.179l6.656 0.7 0.235-2.241c0.034-0.321 0.26-0.314 0.522-0.286l2.035 0.214c0.354 0.037 0.396 0.181 0.373 0.395l-0.234 2.226 1.037 0.109c0.071 0.007 0.131 0.015 0.183 0.028l0.455 0.048c2.931 0.308 3.695 2.606 3.475 4.701-0.14 1.33-0.832 2.352-1.659 2.854" fill="#fff"/>
     </g>
    </g>
   </g>
  </g>
 </g>
</svg>
