<!-- Created with Inkscape (http://www.inkscape.org/) -->
<svg xmlns:rdf="http://www.w3.org/1999/02/22-rdf-syntax-ns#" xmlns="http://www.w3.org/2000/svg" height="600" width="1200" version="1.1" xmlns:cc="http://creativecommons.org/ns#" xmlns:dc="http://purl.org/dc/elements/1.1/">
 <metadata>
  <rdf:RDF>
   <cc:Work rdf:about="">
    <dc:format>image/svg+xml</dc:format>
    <dc:type rdf:resource="http://purl.org/dc/dcmitype/StillImage"/>
    <dc:title/>
   </cc:Work>
  </rdf:RDF>
 </metadata>
 <g transform="translate(17.1429,-269.50504)">
  <g transform="translate(-1017.1429,417.14286)">
   <path fill="#D00" d="m1000-147.63782,1200,0,0,600-1200,0z"/>
   <g fill-rule="nonzero">
    <path style="enable-background:accumulate;color:#000000;" fill="#FFF" d="m1825,152.36213c0,124.26403-100.7359,225.00005-225,225.00005-124.264,0-225-100.73602-225-225.00005,0-124.26407,100.736-225,225-225,124.2641,0,225,100.73593,225,225z"/>
    <path style="enable-background:accumulate;color:#000000;" fill="#000" d="m1576.8747-32.63784-5.1388,38.54164c-12.2251,2.34899-23.8828,6.26303-34.848,11.40192l-26.9791-28.26388-37.4176,27.13975,18.6285,34.36629c-8.3636,8.94423-15.5454,18.91266-21.5191,29.70946l-38.381-7.06599-14.2926,44.00131,35.3298,16.70137c-0.7451,6.04025-1.2847,12.22644-1.2847,18.46814,0,6.24168,0.5396,12.42787,1.2847,18.46812l-35.3298,16.70138,14.2926,44.00116,38.381-7.0659c5.9737,10.79574,13.1555,20.76516,21.5191,29.70939l-18.6285,34.36634,37.4176,27.13945,26.9791-28.26387c10.9652,5.13887,22.6229,9.05321,34.848,11.40216l5.1388,38.54178h46.2499l5.139-38.54178c12.2251-2.34895,23.8829-6.26329,34.8481-11.40216l26.9792,28.26387,37.4175-27.13945-18.6286-34.36634c8.3637-8.94423,15.5456-18.91365,21.5192-29.70939l38.3811,7.0659,14.2924-44.00116-35.3299-16.70138c0.7453-6.04025,1.2848-12.22644,1.2848-18.46812,0-6.2417-0.5395-12.42789-1.2848-18.46814l35.3299-16.70137-14.2924-44.00131-38.3811,7.06599c-5.9736-10.7968-13.1555-20.76523-21.5192-29.70946l18.6286-34.36629-37.4175-27.13975-26.9792,28.26388c-10.9652-5.13889-22.623-9.05293-34.8481-11.40192l-5.139-38.54164h-46.2499zm23.125,128.47216c31.2195,0,56.5278,25.30861,56.5278,56.52785,0,31.21927-25.3083,56.52777-56.5278,56.52777-24.7153,0-45.634-15.9614-53.3158-38.05965h-23.7674v-36.93626h23.7674c7.6543-22.14869,28.5651-38.05971,53.3158-38.05971z"/>
   </g>
  </g>
 </g>
</svg>
