<?xml version="1.0" encoding="utf-8"?>
<!-- Generator: Adobe Illustrator 16.0.0, SVG Export Plug-In . SVG Version: 6.00 Build 0)  -->
<!DOCTYPE svg PUBLIC "-//W3C//DTD SVG 1.1//EN" "http://www.w3.org/Graphics/SVG/1.1/DTD/svg11.dtd">
<svg version="1.1" id="Layer_1" xmlns="http://www.w3.org/2000/svg" xmlns:xlink="http://www.w3.org/1999/xlink" x="0px" y="0px"
	 width="800px" height="400px" viewBox="0 0 800 400" enable-background="new 0 0 800 400" xml:space="preserve">
<rect x="0" fill="#CD2A3E" width="800" height="400"/>
<rect x="0" y="133" fill="#FFFFFF" width="800" height="267"/>
<rect x="0" y="267" fill="#436F4D" width="800" height="134"/>
<g>
	<path d="M374.313,132.307c0,0,0.27,1.904-1.396,3.278c0,0-4.451-0.964-7.955-1.983c0,0-2.279,2.999-3.371,2.094
		c0,0-1.144-0.815,1.592-2.985c0,0-2.854-2.337-5.828-3.149c0,0,0.48,1.789-2.25,1.134c-2.729-0.655,0.285-5.064,1.653-3.922
		s6.165,3.695,8.571,3.891c0,0,1.609-2.29,2.911-1.52c0,0,0.903,0.728-0.835,2.041C367.405,131.187,372.905,132.141,374.313,132.307
		z"/>
	<path fill="#B2B2B2" d="M373.916,133.344c0,0-0.662,0.523-0.656,1.219c0,0-5.031-1.156-7.25-1.906l0.75-0.781
		C366.76,131.875,372.287,133.118,373.916,133.344z"/>
	<path fill="#B2B2B2" d="M354.916,128.542c0,0,0.139,1.365,1.292,1.458C356.208,130,354.334,130.625,354.916,128.542z"/>
	<path d="M461.395,201.167c0,0,0.146-3.655,2.479-10.489c2.334-6.833,6.188-22.667-1.239-33.333c0,0,32.563,1.999,21.906,42.501
		C484.541,199.844,464.25,224.656,461.395,201.167z"/>
	<path d="M312.041,201.167c0,0-12.333-37.656,23-45.323c0,0-4.833,12.666-4.333,18.833s3.833,17.833-3,30.667
		C327.708,205.344,325.541,232.323,312.041,201.167z"/>
	<path fill="#436F4D" d="M463.874,203.125c0,0,10.292-24.25,3.292-42.375c0,0,21.25,3.25,15.875,35.375l-6.25,3.125
		c0,0,4.5-18.875-3.875-30.625c0,0,7.375,20.25-3.625,36.5C469.291,205.125,465.208,211.191,463.874,203.125z"/>
	<path d="M461.708,214.51c0,0,6.5-21.833,35-24.667c0,0-7.499,26.833-18.333,27.667S459.708,234.51,461.708,214.51z"/>
	<path fill="#436F4D" d="M463.874,224.389c0,0,0.292-27.139,30.417-32.264c0,0-9.545,25.625-20.396,24.75l-2.729,1.875
		c0,0,3.375-13,17.375-21.375c0,0-14.875,2.375-21.25,23.75L463.874,224.389z"/>
	<path d="M457.208,228.174c0,0,20.167-21.501,35-11.834c0,0-9.167,7-13.667,18s-25.666,16-29.666,7.167
		C448.875,241.507,446.659,236.846,457.208,228.174z"/>
	<path fill="#436F4D" d="M487.916,217.125c0,0-14.25-6.5-35.125,20.75c0,0-2.375,4.277,4.625,2.951c0,0,11.75-18.906,24.875-20.305
		c0,0-16.625,8.891-19,20.56c0,0,4.5,0.669,8.625-4.081S481.416,225.125,487.916,217.125z"/>
	<path d="M438.041,243.672c0,0-3-6.166,1-15.333s18.5-26.667,20.167-35.167c0,0,20.501,15.333-9.333,53.333
		C449.875,246.506,443.541,251.005,438.041,243.672z"/>
	<path fill="#436F4D" d="M459.916,198.75c0,0-6.846,11.5-11.234,18.125c-4.39,6.625-14.266,18.875-4.766,27.5
		c0,0,6.125,4.25,10.625-7.25C454.541,237.125,473.791,207.125,459.916,198.75z M446.666,238.75c0,0-1.096-4.375,2.016-9.25
		c3.11-4.875,11.733-17.997,11.859-24.125C460.541,205.375,465.166,210.125,446.666,238.75z"/>
	<path fill="#436F4D" d="M331.403,159.375c-29.639,9.125-16.236,43.25-16.236,43.25c9.625,23.125,12.5-1.458,12.5-1.458
		c3.25-18.958,0.375-16.917,0.375-25.542S331.403,159.375,331.403,159.375z M323.166,199.75c0.875,6-0.667,4.125-0.667,4.125
		c-9.668-11.125,2.042-36.5,2.042-36.5C318.916,189.375,322.291,193.75,323.166,199.75z"/>
	<path d="M325.208,212.01c0,0-10.5-14.666-21-20.667c0,0-6.167,25.5,13.5,43.667C317.708,235.01,339.374,248.343,325.208,212.01z"/>
	<path fill="#436F4D" d="M323.541,233c0,0-19.25-4.5-17.75-36.875c0,0,10.5,5.604,19.375,22.052c0,0,4.25,9.573-0.75,9.698
		c0,0-7.295-13-12.271-17.125C312.145,210.75,317.541,226,323.541,233z"/>
	<path d="M325.874,235.844c0,0-11.667-23.01,6.167-42.671c0,0,9.833,7.67,8.167,34.337
		C340.208,227.51,344.708,262.344,325.874,235.844z"/>
	<path fill="#436F4D" d="M338.541,229.938c0.25-24.063-6.625-32.313-6.625-32.313c-14,20.625-0.514,41.125-0.514,41.125l6.158,4.975
		l1.48-2.61L338.541,229.938z M331.403,204.375c0.986,17.25,3.639,26.563,3.639,26.563
		C326.791,217.127,331.403,204.375,331.403,204.375z"/>
	<path d="M346.374,251.675c0,0-16-28.833-38.833-18.5c0,0,8,3.136,8.333,7.651C316.207,245.341,330.208,267.175,346.374,251.675z"/>
	<path fill="#436F4D" d="M314.416,233.875c0,0,4.75,3.395,6.625,7.697c1.875,4.302,6.875,10.803,15.875,11.803l5.238-3.575
		C342.155,249.8,328.791,229.875,314.416,233.875z M324.291,238.875c0,0,7.125,2.75,10.75,9.75
		C335.041,248.625,326.883,244.027,324.291,238.875z"/>
	<path d="M339.374,246.034c0,0-6.333-20.357,4.667-27.857c0,0,26.5,23.333,16.333,40
		C360.374,258.177,347.374,269.225,339.374,246.034z"/>
	<path fill="#436F4D" d="M343.666,221.945c0,0-9.875,14.18,3.375,31.43c0,0,5.625,2.5,5.375-1.625c0,0-10.383-11.982-7.375-20.813
		c0,0,6,18.688,12.875,20.063c0,0,3.5,1.125,0-9.125S347.028,226.161,343.666,221.945z"/>
	<path d="M329.541,252.667c0,0,23.167,25.667,55.333,20.167c0,0,14.333-4.001,33.333,14.166c0,0,4.833,4.5,9.833-1
		c0,0,3.334-2.333,0.667-5.333s-17-14.5-33.333-13.5C395.374,267.167,371.708,239.5,329.541,252.667z"/>
	<path fill="#436F4D" d="M387.041,264.551c0,0-15.75-17.676-50.5-10.176c0,0,13.896,19.205,53.76,15.29c0,0-15.537-6.22-32.76-8.858
		C357.541,260.807,365.041,258.977,387.041,264.551z"/>
	<path fill="#436F4D" d="M403.166,270.191l-4,1.184c0,0,11.875,4.625,20.125,11.75c0,0,2.375,3.25,5.5,0.75c0,0,1.875-0.5-0.75-2.5
		S409.538,272.482,403.166,270.191z"/>
	<path d="M394.374,264.168c0,0,33.5-37.834,69.5-17.167c0,0-18,15.167-28.5,19.667s-30.167-2.334-42.667,6.666
		s-21.667,18.168-27.167,13.834c0,0-2.333-3-6.667-8.5C358.874,278.668,379.073,276.963,394.374,264.168z"/>
	<path fill="#436F4D" d="M362.698,279.995c0,0,3.511,7.417,7.844,6c0,0,8.75-3.083,13.167-8.75s13.25-9.453,14.833-10.119
		l-1.083-1.381C397.458,265.745,373.938,279.495,362.698,279.995z"/>
	<path fill="#436F4D" d="M399.944,263.816l0.076-0.01c0,0,20.271-12.869,44.354-14.65c0,0-27.974,8.458-41.802,16.89
		c1.178-0.248,2.687-0.478,3.717-0.301c1.917,0.327,25.666,2.493,39.25-7.507c0,0,5-3.576,13.25-10.993
		C458.79,247.245,427.94,232.354,399.944,263.816z"/>
	<path d="M391.041,130.625c0,0,1.875-8.5-6.875-8.75s-6.619-5.75-8.311-7.625c-1.69-1.875-11.189-0.809-16.939-4.217
		c0,0-9.875-5.033-20.875-1.658c0,0-13.625,3.603-18.125,3.364c0,0,11.25,3.261,23.25,3.011c0,0,3.375,6.25,13.75,5.375
		c0,0,5.581,8.089,16.125,8.875C373.041,129,369.874,138.167,391.041,130.625z"/>
	<path fill="#7C6B53" d="M388.229,130.125c0,0,3.188-6.938-6.688-6.625s-6.938-5.372-6.875-7.625s-7.375-0.25-12.875-2.938
		s-15.313-5.75-20.5-3.5s-11.064,2.444-15.25,2.625c0,0,10.563,1.563,18.063,0.563c0,0,4.125,8.5,19.625,3.813
		c0,0,6.5-0.375,7.438,3.375c0,0-11.5-3.375-6.563,0.875c0,0-5.438,1.688-0.563,2.875c0,0,5,3.625,10.063,3.75
		c0,0-1.938,6.75,5.813,4.688C379.916,132,385.858,132.426,388.229,130.125z"/>
	<path d="M391.208,128.169c0,0-13-6.5-16.5,3.5c0,0-4.167,3.333,0,6.333c0,0,2.815-5.667,7.324-4.5c0,0,2.842,8.167,7.342,9.667
		s2.167,10.167-3.167,12c0,0,10.666,3,15.333-3.167c0,0,3.834,3.5,6.667-1c0,0,8.833,6.5,18.333-3.333c0,0,1.5-1.5-1.333-4.167
		s-22.833-5.667-15.666-9.833c0,0,11.667-3,22.667-11.5c0,0,0.333-2.5,5.5,0s21.069,2.333,28.368-5.833c0,0-11.701,0.167-21.868-3
		s-5.166-7.333-18.833-1s-15.5,4.833-20.5,4C404.875,116.335,403.041,114.169,391.208,128.169z"/>
	<path fill="#7C6B53" d="M437.791,112.124c0,0-3-3.499-9.375,0.626s-17.5,6.875-21.5,5s-9.5,6.5-15.75,12.375
		c0,0-10.125-6.25-14.25,0.875c0,0-3.75,2.5-2.25,5.375c0,0,3.375-6.693,8.625-3.909c0,0,9.875,8.784,16.875-4.091
		s6.5-7.5,10.375-7.5s12.832-1.75,20.082-7.375c0,0,2.543-3,5.918,0.25s13,6.125,22.125,4.5
		C458.666,118.25,443.041,116.497,437.791,112.124z M379.541,130.375c0,0-0.125-2.5,3-1.375L379.541,130.375z"/>
	<path fill="#7C6B53" d="M386.874,136.375c0,0-0.75,4.208,4.417,5.791s1.046,12.75-2.227,12.917c0,0,14.477,2.875,7.727-9.354
		c0,0,10.833,13.357,9.75,0.147c0,0,6.916,9.874,16.583,2.707c0,0-9.416-5.917,1.084-0.917c0,0,3.25-1.583-1.167-3.833
		s-16.635-3.334-16.941-9.167C406.098,134.666,395.647,140.178,386.874,136.375z"/>
	<path fill="#7C6B53" d="M437.11,115.624c0,0-3.317-3.291-6.276-0.499s-15.916,9.445-21.979,6.681c0,0-2.666-2.554-5.813,6.278
		c0,0-0.25,0.542,0.833,0.292s2.999-0.083,1.458,0.958s-2.046,1.307-3.502,0.945c0,0-0.77,0.241-1.309,1.379l-0.004-0.001
		c0,0-3.062,3.795-6.645,4.17c0,0,0.793,1.173,10.867-2.827h-0.002c7.722-2,18.232-6.386,24.357-11.52c0,0,5.15-3.6,9.901-1.229
		s13.46,1.852,16.793-0.69C455.792,119.561,447.094,121.832,437.11,115.624z"/>
	<path d="M399.541,154h-37v48.75c7,21.75,37,41.25,37,41.25s30-19.5,37-41.25V154H399.541z"/>
	<path fill="#CD2A3E" d="M399.541,156h-35v45.744c6.363,20.867,35,39.58,35,39.58s28.637-18.713,35-39.58V156H399.541z"/>
	<rect x="397.541" y="161" fill="#FFFFFF" width="6" height="65"/>
	<rect x="380.541" y="186" fill="#FFFFFF" width="39" height="6"/>
	<rect x="387.541" y="171" fill="#FFFFFF" width="25" height="6"/>
	<path d="M379.373,132.814c0,0-2.813,0.357-3.489,3.396c0,0,28.657,6.493,48.157-3.609l-8.667-5.769
		C415.374,126.833,401.637,135.07,379.373,132.814z"/>
	<path fill="#B2B2B2" d="M379.385,133.833c0,0-0.931,0.733-0.926,1.667c0,0,22.12,5.308,42.77-3.034l-5.817-3.716
		C415.411,128.75,402.934,136.604,379.385,133.833z"/>
</g>
</svg>
