<?xml version="1.0" encoding="UTF-8" standalone="no"?>
<svg
   xmlns:dc="http://purl.org/dc/elements/1.1/"
   xmlns:cc="http://creativecommons.org/ns#"
   xmlns:rdf="http://www.w3.org/1999/02/22-rdf-syntax-ns#"
   xmlns:svg="http://www.w3.org/2000/svg"
   xmlns="http://www.w3.org/2000/svg"
   xmlns:sodipodi="http://sodipodi.sourceforge.net/DTD/sodipodi-0.dtd"
   xmlns:inkscape="http://www.inkscape.org/namespaces/inkscape"
   width="1000"
   height="600"
   id="svg2"
   version="1.1"
   inkscape:version="1.0.2 (e86c870879, 2021-01-15)"
   sodipodi:docname="Alianza_Patriotica_(Costa_Rica).svg">
  <defs
     id="defs4" />
  <sodipodi:namedview
     id="base"
     pagecolor="#ffffff"
     bordercolor="#666666"
     borderopacity="1.0"
     inkscape:pageopacity="0.0"
     inkscape:pageshadow="2"
     inkscape:zoom="0.48379247"
     inkscape:cx="708.34371"
     inkscape:cy="392.27748"
     inkscape:document-units="px"
     inkscape:current-layer="layer1"
     showgrid="false"
     inkscape:window-width="1920"
     inkscape:window-height="1025"
     inkscape:window-x="0"
     inkscape:window-y="0"
     inkscape:window-maximized="1"
     inkscape:snap-bbox="true"
     inkscape:bbox-paths="true"
     inkscape:bbox-nodes="true"
     inkscape:snap-bbox-midpoints="true"
     inkscape:snap-bbox-edge-midpoints="true"
     inkscape:object-paths="true"
     inkscape:snap-intersection-paths="true"
     inkscape:object-nodes="true"
     inkscape:snap-smooth-nodes="true"
     inkscape:snap-midpoints="true"
     inkscape:snap-global="false"
     showguides="true"
     inkscape:guide-bbox="true"
     fit-margin-top="0"
     fit-margin-left="0"
     fit-margin-right="0"
     fit-margin-bottom="0"
     borderlayer="true"
     inkscape:document-rotation="0"
     units="px" />
  <metadata
     id="metadata7">
    <rdf:RDF>
      <cc:Work
         rdf:about="">
        <dc:format>image/svg+xml</dc:format>
        <dc:type
           rdf:resource="http://purl.org/dc/dcmitype/StillImage" />
        <dc:title></dc:title>
      </cc:Work>
    </rdf:RDF>
  </metadata>
  <g
     inkscape:label="Capa 1"
     inkscape:groupmode="layer"
     id="layer1"
     style="display:inline"
     transform="translate(4.9614024e-8,-932.36221)">
    <rect
       y="932.36206"
       x="-4.961403e-08"
       height="600"
       width="1000"
       id="rect2996"
       style="fill:#ffffff;fill-rule:evenodd;stroke:none;stroke-width:5.22232" />
    <g
       id="g4197"
       transform="matrix(5.9979318,0,0,5.9999977,-271.20166,-4848.8337)">
      <path
         style="opacity:1;fill:#00a654;fill-opacity:1;stroke:none"
         d="m 176.53125,969.28125 c -6.05635,0 -10.96875,4.9124 -10.96875,10.96875 0,4.14045 0.95208,8.00061 2.63672,11.45508 4.81617,-8.28562 10.97061,-16.80906 15.2793,-19.9375 -1.89137,-1.5546 -4.30101,-2.48633 -6.94727,-2.48633 z"
         id="path4185"
         inkscape:connector-curvature="0" />
      <path
         style="opacity:1;fill:#ec1b26;fill-opacity:1;stroke:none"
         d="m 193.53125,969.28125 c -3.45331,0 -6.56477,1.37796 -8.84375,3.625 -6.25359,5.86617 -10.25768,12.88784 -15.00977,21.42969 0.51442,0.80393 1.05593,1.59025 1.6543,2.33594 2.17231,2.70704 4.82446,4.74772 8.14649,6.18162 1.30384,-3.01139 5.92454,-9.14453 10.36328,-13.27928 3.77724,-3.51855 7.47371,-5.60819 11.86718,-6.86719 1.54905,-0.4439 4.41016,-0.14844 4.41016,-0.14844 0.0197,-0.22146 0.0371,-0.44151 0.0371,-0.65234 0,-6.97107 -5.65393,-12.625 -12.625,-12.625 z"
         id="path4183"
         inkscape:connector-curvature="0" />
      <path
         style="opacity:1;fill:#00a654;fill-opacity:1;stroke:none"
         d="m 204.47656,985.20117 c -4.17578,-0.11313 -8.92554,2.46737 -13.01562,6.27735 -4.46823,4.16221 -7.31551,7.57745 -7.5586,12.64448 6.47275,-1.0981 10.67331,-4.1183 14.61719,-8.06441 2.84899,-2.85063 5.72958,-7.09161 6.98438,-10.76757 -0.3388,-0.0476 -0.67991,-0.0805 -1.02735,-0.0898 z"
         id="path2999"
         inkscape:connector-curvature="0" />
      <g
         transform="scale(1.0528821,0.94977395)"
         style="font-style:normal;font-weight:normal;font-size:12.3874px;line-height:125%;font-family:sans-serif;letter-spacing:0px;word-spacing:0px;opacity:1;fill:#ffffff;fill-opacity:1;stroke:#ffffff;stroke-width:0.416667;stroke-linecap:butt;stroke-linejoin:miter;stroke-miterlimit:4;stroke-dasharray:none;stroke-opacity:1"
         id="text4158">
        <path
           d="m 176.65148,1039.6719 h -1.26979 l -0.87863,-2.4451 h -3.87557 l -0.87863,2.4451 h -1.20961 l 3.26174,-8.7726 h 1.58874 z m -2.51552,-3.4466 -1.57069,-4.3067 -1.57671,4.3067 z"
           style="fill:#ffffff;stroke:#ffffff;stroke-width:0.416667;stroke-miterlimit:4;stroke-dasharray:none"
           id="path4195"
           inkscape:connector-curvature="0" />
      </g>
      <g
         transform="scale(1.0528821,0.94977395)"
         style="font-style:normal;font-weight:normal;font-size:12.3874px;line-height:125%;font-family:sans-serif;letter-spacing:0px;word-spacing:0px;opacity:1;fill:#ffffff;fill-opacity:1;stroke:#ffffff;stroke-width:0.416667;stroke-linecap:butt;stroke-linejoin:miter;stroke-miterlimit:4;stroke-dasharray:none;stroke-opacity:1"
         id="text4162">
        <path
           d="m 184.71934,1033.505 q 0,0.5832 -0.21063,1.0841 -0.20461,0.4948 -0.57772,0.8601 -0.46338,0.4536 -1.09528,0.6834 -0.63188,0.2239 -1.59476,0.2239 h -1.19156 v 3.2698 h -1.19156 v -8.7725 h 2.43127 q 0.8064,0 1.36608,0.1355 0.55967,0.1296 0.99296,0.4124 0.51153,0.3358 0.78836,0.8366 0.28284,0.5008 0.28284,1.2667 z m -1.2397,0.029 q 0,-0.4538 -0.16248,-0.7895 -0.1625,-0.3359 -0.49348,-0.5478 -0.28886,-0.1829 -0.66197,-0.2594 -0.3671,-0.082 -0.9328,-0.082 h -1.17952 v 3.5055 h 1.00501 q 0.72215,0 1.1735,-0.1237 0.45135,-0.1296 0.73419,-0.4065 0.28285,-0.2828 0.3972,-0.5952 0.12035,-0.3121 0.12035,-0.7009 z"
           style="fill:#ffffff;stroke:#ffffff;stroke-width:0.416667;stroke-miterlimit:4;stroke-dasharray:none"
           id="path4192"
           inkscape:connector-curvature="0" />
      </g>
    </g>
    <path
       sodipodi:nodetypes="ccccc"
       inkscape:connector-curvature="0"
       id="path4171"
       d="M -4.9614024e-8,1076.0814 734.04219,1533.0275 H 1000 L -4.9614024e-8,933.02747 Z"
       style="fill:#ec1b26;fill-opacity:1;fill-rule:evenodd;stroke:none;stroke-width:5.47779px;stroke-linecap:butt;stroke-linejoin:miter;stroke-opacity:1" />
    <path
       inkscape:connector-curvature="0"
       id="path4179"
       d="m -4.9614024e-8,1074.4029 v 457.9593 H 739.86483 Z"
       style="fill:#00a654;fill-opacity:1;fill-rule:evenodd;stroke:none;stroke-width:5.50557px;stroke-linecap:butt;stroke-linejoin:miter;stroke-opacity:1"
       sodipodi:nodetypes="cccc" />
  </g>
</svg>
