<?xml version="1.0" encoding="UTF-8" standalone="no"?>
<svg
   xmlns:dc="http://purl.org/dc/elements/1.1/"
   xmlns:cc="http://creativecommons.org/ns#"
   xmlns:rdf="http://www.w3.org/1999/02/22-rdf-syntax-ns#"
   xmlns:svg="http://www.w3.org/2000/svg"
   xmlns="http://www.w3.org/2000/svg"
   xmlns:sodipodi="http://sodipodi.sourceforge.net/DTD/sodipodi-0.dtd"
   xmlns:inkscape="http://www.inkscape.org/namespaces/inkscape"
   width="1000"
   height="600"
   viewBox="0 0 264.58336 158.75"
   version="1.1"
   id="svg8"
   inkscape:version="1.0.2 (e86c870879, 2021-01-15)"
   sodipodi:docname="Bandera_Partido_Nueva_Generación_Costa_Rica.svg">
  <defs
     id="defs2" />
  <sodipodi:namedview
     id="base"
     pagecolor="#ffffff"
     bordercolor="#666666"
     borderopacity="1.0"
     inkscape:pageopacity="0.0"
     inkscape:pageshadow="2"
     inkscape:zoom="0.35"
     inkscape:cx="303.58562"
     inkscape:cy="628.16661"
     inkscape:document-units="mm"
     inkscape:current-layer="layer1"
     inkscape:document-rotation="0"
     showgrid="false"
     inkscape:window-width="1920"
     inkscape:window-height="1025"
     inkscape:window-x="0"
     inkscape:window-y="0"
     inkscape:window-maximized="1"
     fit-margin-top="0"
     fit-margin-left="0"
     fit-margin-right="0"
     fit-margin-bottom="0"
     units="px"
     width="1000mm" />
  <metadata
     id="metadata5">
    <rdf:RDF>
      <cc:Work
         rdf:about="">
        <dc:format>image/svg+xml</dc:format>
        <dc:type
           rdf:resource="http://purl.org/dc/dcmitype/StillImage" />
        <dc:title></dc:title>
      </cc:Work>
    </rdf:RDF>
  </metadata>
  <g
     inkscape:label="Layer 1"
     inkscape:groupmode="layer"
     id="layer1"
     transform="translate(0.7383427,-93.659935)">
    <rect
       style="fill:#ffffff;stroke-width:1.40364;stroke-linecap:round;stroke-linejoin:round"
       id="rect3859"
       width="264.58334"
       height="158.75"
       x="-0.73835289"
       y="93.659935" />
    <g
       id="g3857"
       transform="matrix(2.0379465,0,0,2.0379465,-1.0045509,-72.145223)">
      <path
         style="opacity:1;fill:none;fill-opacity:1;stroke:#dd7229;stroke-width:5.098;stroke-miterlimit:4;stroke-dasharray:none;stroke-opacity:1"
         id="path940"
         sodipodi:type="arc"
         sodipodi:cx="33.89119"
         sodipodi:cy="117.93124"
         sodipodi:rx="7.7450852"
         sodipodi:ry="7.726748"
         sodipodi:start="5.4224029"
         sodipodi:end="3.9420027"
         sodipodi:arc-type="arc"
         d="m 38.939779,112.07164 a 7.7450852,7.726748 0 0 1 2.253348,8.43574 7.7450852,7.726748 0 0 1 -7.068178,5.14708 7.7450852,7.726748 0 0 1 -7.366592,-4.71225 7.7450852,7.726748 0 0 1 1.739058,-8.55601"
         sodipodi:open="true" />
      <path
         style="opacity:1;fill:none;fill-opacity:1;stroke:#006eaa;stroke-width:4.94123;stroke-miterlimit:4;stroke-dasharray:none;stroke-opacity:1"
         id="path940-6"
         sodipodi:type="arc"
         sodipodi:cx="33.890583"
         sodipodi:cy="117.86871"
         sodipodi:rx="18.384506"
         sodipodi:ry="17.81584"
         sodipodi:start="5.4224029"
         sodipodi:end="3.9420027"
         sodipodi:arc-type="arc"
         d="m 45.874419,104.35802 a 18.384506,17.81584 0 0 1 5.348771,19.4506 18.384506,17.81584 0 0 1 -16.777733,11.86782 18.384506,17.81584 0 0 1 -17.486076,-10.86522 18.384506,17.81584 0 0 1 4.128002,-19.7279"
         sodipodi:open="true" />
      <path
         id="path959"
         style="fill:#006eaa;fill-opacity:1;fill-rule:evenodd;stroke:#006eaa;stroke-width:0.999999px;stroke-linecap:butt;stroke-linejoin:miter;stroke-opacity:1"
         d="m 223.38867,394.375 c -6.2069,0.91064 -6.83343,3.89088 -6.90429,6.9043 v 85.02148 h 18.2871 l -0.61914,-33.75195 h 24.32032 c 44.39201,-0.90875 34.31966,-58.59861 0,-58.17383 z m 10.47071,15.96094 h 22.6582 c 17.09211,-0.25172 16.45289,25.42338 0,26.58203 l -22.6582,0.43945 z"
         transform="scale(0.26458333)" />
      <path
         id="path986"
         style="fill:#006eaa;fill-opacity:1;fill-rule:evenodd;stroke:#006eaa;stroke-width:0.264583px;stroke-linecap:butt;stroke-linejoin:miter;stroke-opacity:1"
         d="m 111.83428,112.01018 c -0.73607,-1.84886 -2.20393,-3.59938 -4.27993,-3.88621 -2.29107,-0.46976 -4.90244,0.0881 -6.57732,1.78351 -1.458906,1.58521 -1.767445,3.83477 -2.061583,5.87718 0.146922,2.54319 0.349619,5.35367 2.076573,7.37667 1.16515,1.27455 2.94171,1.71855 4.56892,2.02384 2.08564,0.0798 4.57538,-0.43888 5.62402,-2.46024 0.47318,-0.87443 0.63276,-1.87439 0.70252,-2.85448 m -0.0532,-7.86027 c 1.51881,0 3.03762,0 4.55643,0 -1.08942,-2.61318 -2.36699,-5.47563 -5.04113,-6.80981 -3.75656,-1.83612 -8.46405,-1.59663 -12.007996,0.62914 -2.90613,1.82555 -4.403461,5.14018 -5.155176,8.3678 -0.33832,1.03327 -0.677653,1.98583 -0.14399,3.01834 0.863071,3.24212 1.616633,6.82251 4.242718,9.1455 2.157354,1.90544 5.089214,2.72407 7.902774,2.91173 1.78007,-0.18878 3.70505,-0.46431 5.01674,-1.81168 0.46246,-0.15214 1.71016,-2.08446 1.6057,-0.96273 -0.0788,0.6311 0.0557,1.22276 0.51491,1.69389 0.47354,0.85365 1.47528,0.52189 2.26009,0.58724 0.44334,0 0.88668,0 1.33002,0 0,-4.41849 0,-8.83698 0,-13.25547 -3.50602,0 -7.01205,0 -10.51807,0 0,0.83513 0,1.67026 0,2.50539 0.36167,0.82172 0.97247,1.88351 2.02929,1.70176 1.15363,0.0464 2.30726,0.0928 3.46089,0.13917" />
      <path
         style="fill:#dd7229;fill-opacity:1;fill-rule:evenodd;stroke:#dd7229;stroke-width:0.264583px;stroke-linecap:butt;stroke-linejoin:miter;stroke-opacity:1"
         d="m 94.958719,104.17375 v 24.32601 h -4.698434 l -10.25094,-16.53051 v 16.50584 H 75.38677 v -22.16116 c 0.297793,-0.78684 0.781995,-1.52989 2.081443,-2.08144 h 2.674239 l 10.447155,16.88218 v -16.92272 z"
         id="path957"
         sodipodi:nodetypes="cccccccccccc" />
      <g
         aria-label="Nueva Generación"
         transform="scale(0.93093439,1.0741896)"
         id="text1038"
         style="font-style:normal;font-weight:normal;font-size:6.89522px;line-height:125%;font-family:Sans;letter-spacing:0px;word-spacing:0px;fill:#006eaa;fill-opacity:1;stroke:none;stroke-width:0.17238px;stroke-linecap:butt;stroke-linejoin:miter;stroke-opacity:1">
        <path
           d="M 61.679746,122.90771 H 62.9827 l 1.646369,3.44761 v -3.44761 h 1.104312 v 5.02665 h -1.302954 l -1.643001,-3.44761 v 3.44761 h -1.10768 z"
           style="font-style:normal;font-variant:normal;font-weight:bold;font-stretch:semi-condensed;font-size:6.89522px;font-family:'DejaVu Sans';-inkscape-font-specification:'DejaVu Sans, Bold Semi-Condensed';font-variant-ligatures:normal;font-variant-caps:normal;font-variant-numeric:normal;font-variant-east-asian:normal;opacity:0.995;fill:#006eaa;fill-opacity:1;stroke-width:0.17238px"
           id="path1040" />
        <path
           d="m 66.787192,126.46643 v -2.3029 h 1.090845 v 0.37709 q 0,0.30638 -0.0034,0.77099 -0.0034,0.46126 -0.0034,0.61613 0,0.45452 0.0202,0.65653 0.02357,0.19864 0.07407,0.28954 0.06734,0.11784 0.175074,0.18181 0.107738,0.064 0.245777,0.064 0.340047,0 0.531955,-0.28955 0.195275,-0.28954 0.195275,-0.80466 v -1.86185 H 70.1977 v 3.77083 h -1.084112 v -0.54543 q -0.245777,0.32995 -0.521855,0.48819 -0.272711,0.15487 -0.602658,0.15487 -0.585825,0 -0.895571,-0.40065 -0.306379,-0.40065 -0.306379,-1.16491 z"
           style="font-style:normal;font-variant:normal;font-weight:bold;font-stretch:semi-condensed;font-size:6.89522px;font-family:'DejaVu Sans';-inkscape-font-specification:'DejaVu Sans, Bold Semi-Condensed';font-variant-ligatures:normal;font-variant-caps:normal;font-variant-numeric:normal;font-variant-east-asian:normal;opacity:0.995;fill:#006eaa;fill-opacity:1;stroke-width:0.17238px"
           id="path1042" />
        <path
           d="m 74.628484,126.03884 v 0.34342 h -2.535205 q 0.03704,0.42422 0.272711,0.63633 0.239043,0.2121 0.663261,0.2121 0.343414,0 0.700296,-0.1111 0.360248,-0.11447 0.73733,-0.34341 v 0.92923 q -0.383816,0.16161 -0.770998,0.24241 -0.383816,0.0842 -0.767632,0.0842 -0.922505,0 -1.43426,-0.51848 -0.508388,-0.52186 -0.508388,-1.4612 0,-0.9225 0.501655,-1.45109 0.501654,-0.52859 1.38039,-0.52859 0.8013,0 1.279387,0.53532 0.481453,0.53532 0.481453,1.43089 z m -1.114413,-0.40065 q 0,-0.34341 -0.181807,-0.55215 -0.178441,-0.21211 -0.471353,-0.21211 -0.313113,0 -0.511755,0.19864 -0.195275,0.19528 -0.245777,0.56562 z"
           style="font-style:normal;font-variant:normal;font-weight:bold;font-stretch:semi-condensed;font-size:6.89522px;font-family:'DejaVu Sans';-inkscape-font-specification:'DejaVu Sans, Bold Semi-Condensed';font-variant-ligatures:normal;font-variant-caps:normal;font-variant-numeric:normal;font-variant-east-asian:normal;opacity:0.995;fill:#006eaa;fill-opacity:1;stroke-width:0.17238px"
           id="path1044" />
        <path
           d="m 75.0224,124.16353 h 1.084111 l 0.845069,2.60591 0.841702,-2.60591 h 1.087478 l -1.333255,3.77083 h -1.19185 z"
           style="font-style:normal;font-variant:normal;font-weight:bold;font-stretch:semi-condensed;font-size:6.89522px;font-family:'DejaVu Sans';-inkscape-font-specification:'DejaVu Sans, Bold Semi-Condensed';font-variant-ligatures:normal;font-variant-caps:normal;font-variant-numeric:normal;font-variant-east-asian:normal;opacity:0.995;fill:#006eaa;fill-opacity:1;stroke-width:0.17238px"
           id="path1046" />
        <path
           d="m 81.015316,126.23749 q -0.340047,0 -0.511755,0.12793 -0.171707,0.12794 -0.171707,0.37709 0,0.22894 0.138039,0.36025 0.138039,0.12793 0.383816,0.12793 0.30638,0 0.515122,-0.24241 0.208742,-0.24577 0.208742,-0.61275 v -0.13804 z m 1.656469,-0.45452 v 2.15139 h -1.094212 v -0.55889 q -0.218843,0.34341 -0.491554,0.50165 -0.272711,0.15487 -0.663261,0.15487 -0.528589,0 -0.858536,-0.34004 -0.32658,-0.34342 -0.32658,-0.88884 0,-0.66326 0.410751,-0.97301 0.41075,-0.30974 1.289486,-0.30974 h 0.639694 v -0.0943 q 0,-0.28618 -0.205376,-0.41749 -0.202008,-0.13467 -0.629592,-0.13467 -0.350148,0 -0.649794,0.0774 -0.299646,0.0774 -0.55889,0.23231 v -0.91914 q 0.350148,-0.0943 0.700296,-0.14141 0.353515,-0.0505 0.703662,-0.0505 0.919139,0 1.326522,0.40402 0.407384,0.40065 0.407384,1.30632 z"
           style="font-style:normal;font-variant:normal;font-weight:bold;font-stretch:semi-condensed;font-size:6.89522px;font-family:'DejaVu Sans';-inkscape-font-specification:'DejaVu Sans, Bold Semi-Condensed';font-variant-ligatures:normal;font-variant-caps:normal;font-variant-numeric:normal;font-variant-east-asian:normal;opacity:0.995;fill:#006eaa;fill-opacity:1;stroke-width:0.17238px"
           id="path1048" />
        <path
           d="m 89.95082,127.56064 q -0.437684,0.23568 -0.909037,0.35352 -0.467986,0.11783 -0.966274,0.11783 -1.131247,0 -1.791141,-0.70029 -0.659894,-0.70366 -0.659894,-1.90561 0,-1.21542 0.669994,-1.91235 0.673362,-0.69693 1.84501,-0.69693 0.451153,0 0.86527,0.0943 0.414117,0.0943 0.781099,0.27945 v 1.04034 q -0.380449,-0.23904 -0.754165,-0.35688 -0.373715,-0.11784 -0.750798,-0.11784 -0.696929,0 -1.074011,0.43432 -0.377082,0.43095 -0.377082,1.23562 0,0.79793 0.363615,1.23225 0.363615,0.43432 1.033609,0.43432 0.181808,0 0.336681,-0.0236 0.15824,-0.0269 0.279445,-0.0808 v -0.97637 h -0.710396 v -0.86864 h 1.818075 z"
           style="font-style:normal;font-variant:normal;font-weight:bold;font-stretch:semi-condensed;font-size:6.89522px;font-family:'DejaVu Sans';-inkscape-font-specification:'DejaVu Sans, Bold Semi-Condensed';font-variant-ligatures:normal;font-variant-caps:normal;font-variant-numeric:normal;font-variant-east-asian:normal;opacity:0.995;fill:#006eaa;fill-opacity:1;stroke-width:0.17238px"
           id="path1050" />
        <path
           d="m 94.314201,126.03884 v 0.34342 h -2.535206 q 0.03704,0.42422 0.272712,0.63633 0.239043,0.2121 0.663261,0.2121 0.343414,0 0.700295,-0.1111 0.360249,-0.11447 0.737331,-0.34341 v 0.92923 q -0.383816,0.16161 -0.770999,0.24241 -0.383816,0.0842 -0.767632,0.0842 -0.922505,0 -1.434259,-0.51848 -0.508388,-0.52186 -0.508388,-1.4612 0,-0.9225 0.501654,-1.45109 0.501654,-0.52859 1.380391,-0.52859 0.8013,0 1.279386,0.53532 0.481454,0.53532 0.481454,1.43089 z m -1.114413,-0.40065 q 0,-0.34341 -0.181808,-0.55215 -0.178441,-0.21211 -0.471353,-0.21211 -0.313113,0 -0.511754,0.19864 -0.195275,0.19528 -0.245777,0.56562 z"
           style="font-style:normal;font-variant:normal;font-weight:bold;font-stretch:semi-condensed;font-size:6.89522px;font-family:'DejaVu Sans';-inkscape-font-specification:'DejaVu Sans, Bold Semi-Condensed';font-variant-ligatures:normal;font-variant-caps:normal;font-variant-numeric:normal;font-variant-east-asian:normal;opacity:0.995;fill:#006eaa;fill-opacity:1;stroke-width:0.17238px"
           id="path1052" />
        <path
           d="m 98.546276,125.63819 v 2.29617 h -1.090845 v -0.37372 -1.38376 q 0,-0.48818 -0.0202,-0.67336 -0.0202,-0.18517 -0.06734,-0.27271 -0.06397,-0.11784 -0.175074,-0.18181 -0.107738,-0.0673 -0.245777,-0.0673 -0.340048,0 -0.535322,0.29291 -0.191908,0.28954 -0.191908,0.80467 v 1.85511 h -1.084112 v -3.77083 h 1.084112 v 0.55216 q 0.245776,-0.32995 0.521855,-0.48482 0.276078,-0.15824 0.609392,-0.15824 0.585824,0 0.888836,0.40065 0.30638,0.40065 0.30638,1.16491 z"
           style="font-style:normal;font-variant:normal;font-weight:bold;font-stretch:semi-condensed;font-size:6.89522px;font-family:'DejaVu Sans';-inkscape-font-specification:'DejaVu Sans, Bold Semi-Condensed';font-variant-ligatures:normal;font-variant-caps:normal;font-variant-numeric:normal;font-variant-east-asian:normal;opacity:0.995;fill:#006eaa;fill-opacity:1;stroke-width:0.17238px"
           id="path1054" />
        <path
           d="m 102.93996,126.03884 v 0.34342 h -2.53521 q 0.037,0.42422 0.27272,0.63633 0.23904,0.2121 0.66326,0.2121 0.34341,0 0.70029,-0.1111 0.36025,-0.11447 0.73733,-0.34341 v 0.92923 q -0.38381,0.16161 -0.771,0.24241 -0.38381,0.0842 -0.76763,0.0842 -0.9225,0 -1.434257,-0.51848 -0.508388,-0.52186 -0.508388,-1.4612 0,-0.9225 0.501654,-1.45109 0.501651,-0.52859 1.380391,-0.52859 0.8013,0 1.27939,0.53532 0.48145,0.53532 0.48145,1.43089 z m -1.11441,-0.40065 q 0,-0.34341 -0.18181,-0.55215 -0.17844,-0.21211 -0.47135,-0.21211 -0.31312,0 -0.51176,0.19864 -0.19527,0.19528 -0.24578,0.56562 z"
           style="font-style:normal;font-variant:normal;font-weight:bold;font-stretch:semi-condensed;font-size:6.89522px;font-family:'DejaVu Sans';-inkscape-font-specification:'DejaVu Sans, Bold Semi-Condensed';font-variant-ligatures:normal;font-variant-caps:normal;font-variant-numeric:normal;font-variant-east-asian:normal;opacity:0.995;fill:#006eaa;fill-opacity:1;stroke-width:0.17238px"
           id="path1056" />
        <path
           d="m 106.2832,125.19041 q -0.14477,-0.0741 -0.28618,-0.10774 -0.13804,-0.037 -0.28281,-0.037 -0.41749,0 -0.64306,0.29964 -0.22558,0.29628 -0.22558,0.8518 v 1.73728 h -1.08411 v -3.77083 h 1.08411 v 0.6195 q 0.20874,-0.37035 0.47809,-0.53869 0.27271,-0.17171 0.65316,-0.17171 0.0539,0 0.11784,0.007 0.064,0.003 0.18517,0.0202 z"
           style="font-style:normal;font-variant:normal;font-weight:bold;font-stretch:semi-condensed;font-size:6.89522px;font-family:'DejaVu Sans';-inkscape-font-specification:'DejaVu Sans, Bold Semi-Condensed';font-variant-ligatures:normal;font-variant-caps:normal;font-variant-numeric:normal;font-variant-east-asian:normal;opacity:0.995;fill:#006eaa;fill-opacity:1;stroke-width:0.17238px"
           id="path1058" />
        <path
           d="m 108.34369,126.23749 q -0.34005,0 -0.51176,0.12793 -0.17171,0.12794 -0.17171,0.37709 0,0.22894 0.13804,0.36025 0.13804,0.12793 0.38382,0.12793 0.30638,0 0.51512,-0.24241 0.20874,-0.24577 0.20874,-0.61275 v -0.13804 z m 1.65646,-0.45452 v 2.15139 h -1.09421 v -0.55889 q -0.21884,0.34341 -0.49155,0.50165 -0.27271,0.15487 -0.66326,0.15487 -0.52859,0 -0.85854,-0.34004 -0.32658,-0.34342 -0.32658,-0.88884 0,-0.66326 0.41075,-0.97301 0.41075,-0.30974 1.28949,-0.30974 h 0.63969 v -0.0943 q 0,-0.28618 -0.20537,-0.41749 -0.20201,-0.13467 -0.6296,-0.13467 -0.35014,0 -0.64979,0.0774 -0.29965,0.0774 -0.55889,0.23231 v -0.91914 q 0.35015,-0.0943 0.7003,-0.14141 0.35351,-0.0505 0.70366,-0.0505 0.91914,0 1.32652,0.40402 0.40738,0.40065 0.40738,1.30632 z"
           style="font-style:normal;font-variant:normal;font-weight:bold;font-stretch:semi-condensed;font-size:6.89522px;font-family:'DejaVu Sans';-inkscape-font-specification:'DejaVu Sans, Bold Semi-Condensed';font-variant-ligatures:normal;font-variant-caps:normal;font-variant-numeric:normal;font-variant-east-asian:normal;opacity:0.995;fill:#006eaa;fill-opacity:1;stroke-width:0.17238px"
           id="path1060" />
        <path
           d="m 113.74741,124.28137 v 0.98311 q -0.21884,-0.16834 -0.44442,-0.24914 -0.22221,-0.0808 -0.46125,-0.0808 -0.45452,0 -0.70703,0.29628 -0.25251,0.29291 -0.25251,0.8215 0,0.52859 0.25251,0.82487 0.25251,0.29291 0.70703,0.29291 0.25588,0 0.48482,-0.0842 0.22894,-0.0842 0.42085,-0.24914 v 0.98647 q -0.25251,0.10437 -0.51512,0.15488 -0.26261,0.0539 -0.52522,0.0539 -0.91914,0 -1.43763,-0.52185 -0.51849,-0.52522 -0.51849,-1.45783 0,-0.9326 0.51849,-1.45446 0.51849,-0.52522 1.43763,-0.52522 0.26597,0 0.52522,0.0539 0.25924,0.0505 0.51512,0.15487 z"
           style="font-style:normal;font-variant:normal;font-weight:bold;font-stretch:semi-condensed;font-size:6.89522px;font-family:'DejaVu Sans';-inkscape-font-specification:'DejaVu Sans, Bold Semi-Condensed';font-variant-ligatures:normal;font-variant-caps:normal;font-variant-numeric:normal;font-variant-east-asian:normal;opacity:0.995;fill:#006eaa;fill-opacity:1;stroke-width:0.17238px"
           id="path1062" />
        <path
           d="m 114.68338,124.16353 h 1.08411 v 3.77083 h -1.08411 z m 0,-1.46792 h 1.08411 v 0.9831 h -1.08411 z"
           style="font-style:normal;font-variant:normal;font-weight:bold;font-stretch:semi-condensed;font-size:6.89522px;font-family:'DejaVu Sans';-inkscape-font-specification:'DejaVu Sans, Bold Semi-Condensed';font-variant-ligatures:normal;font-variant-caps:normal;font-variant-numeric:normal;font-variant-east-asian:normal;opacity:0.995;fill:#006eaa;fill-opacity:1;stroke-width:0.17238px"
           id="path1064" />
        <path
           d="m 118.42054,124.93453 q -0.36025,0 -0.54879,0.28955 -0.18855,0.28618 -0.18855,0.82823 0,0.54206 0.18855,0.8316 0.18854,0.28618 0.54879,0.28618 0.35688,0 0.54205,-0.28618 0.18854,-0.28954 0.18854,-0.8316 0,-0.54205 -0.18854,-0.82823 -0.18517,-0.28955 -0.54205,-0.28955 z m 0,-0.8619 q 0.87873,0 1.37029,0.52522 0.49155,0.52522 0.49155,1.45446 0,0.92924 -0.49155,1.45446 -0.49156,0.52522 -1.37029,0.52522 -0.87537,0 -1.37366,-0.52522 -0.49492,-0.52522 -0.49492,-1.45446 0,-0.92924 0.49492,-1.45446 0.49829,-0.52522 1.37366,-0.52522 z m 0.47808,-1.6531 h 0.85854 l -1.11778,1.26592 h -0.59593 z"
           style="font-style:normal;font-variant:normal;font-weight:bold;font-stretch:semi-condensed;font-size:6.89522px;font-family:'DejaVu Sans';-inkscape-font-specification:'DejaVu Sans, Bold Semi-Condensed';font-variant-ligatures:normal;font-variant-caps:normal;font-variant-numeric:normal;font-variant-east-asian:normal;opacity:0.995;fill:#006eaa;fill-opacity:1;stroke-width:0.17238px"
           id="path1066" />
        <path
           d="m 124.48079,125.63819 v 2.29617 h -1.09085 v -0.37372 -1.38376 q 0,-0.48818 -0.0202,-0.67336 -0.0202,-0.18517 -0.0673,-0.27271 -0.064,-0.11784 -0.17508,-0.18181 -0.10774,-0.0673 -0.24577,-0.0673 -0.34005,0 -0.53533,0.29291 -0.1919,0.28954 -0.1919,0.80467 v 1.85511 h -1.08412 v -3.77083 h 1.08412 v 0.55216 q 0.24577,-0.32995 0.52185,-0.48482 0.27608,-0.15824 0.60939,-0.15824 0.58583,0 0.88884,0.40065 0.30638,0.40065 0.30638,1.16491 z"
           style="font-style:normal;font-variant:normal;font-weight:bold;font-stretch:semi-condensed;font-size:6.89522px;font-family:'DejaVu Sans';-inkscape-font-specification:'DejaVu Sans, Bold Semi-Condensed';font-variant-ligatures:normal;font-variant-caps:normal;font-variant-numeric:normal;font-variant-east-asian:normal;opacity:0.995;fill:#006eaa;fill-opacity:1;stroke-width:0.17238px"
           id="path1068" />
      </g>
    </g>
  </g>
</svg>
