<?xml version="1.0" encoding="UTF-8" standalone="no"?>
<svg
   xmlns:dc="http://purl.org/dc/elements/1.1/"
   xmlns:cc="http://creativecommons.org/ns#"
   xmlns:rdf="http://www.w3.org/1999/02/22-rdf-syntax-ns#"
   xmlns:svg="http://www.w3.org/2000/svg"
   xmlns="http://www.w3.org/2000/svg"
   xmlns:sodipodi="http://sodipodi.sourceforge.net/DTD/sodipodi-0.dtd"
   xmlns:inkscape="http://www.inkscape.org/namespaces/inkscape"
   width="1000"
   height="600"
   viewBox="0 0 264.58333 158.75"
   version="1.1"
   id="svg8"
   inkscape:version="1.0.2 (e86c870879, 2021-01-15)"
   sodipodi:docname="Bandera Partido Nueva República Costa Rica.svg">
  <defs
     id="defs2" />
  <sodipodi:namedview
     id="base"
     pagecolor="#ffffff"
     bordercolor="#666666"
     borderopacity="1.0"
     inkscape:pageopacity="0.0"
     inkscape:pageshadow="2"
     inkscape:zoom="0.7"
     inkscape:cx="590.84552"
     inkscape:cy="360.06225"
     inkscape:document-units="mm"
     inkscape:current-layer="layer1"
     inkscape:document-rotation="0"
     showgrid="false"
     units="px"
     inkscape:window-width="1920"
     inkscape:window-height="1025"
     inkscape:window-x="0"
     inkscape:window-y="0"
     inkscape:window-maximized="1" />
  <metadata
     id="metadata5">
    <rdf:RDF>
      <cc:Work
         rdf:about="">
        <dc:format>image/svg+xml</dc:format>
        <dc:type
           rdf:resource="http://purl.org/dc/dcmitype/StillImage" />
        <dc:title></dc:title>
      </cc:Work>
    </rdf:RDF>
  </metadata>
  <g
     inkscape:label="Layer 1"
     inkscape:groupmode="layer"
     id="layer1">
    <rect
       style="fill:#ffffff;fill-opacity:1;stroke-width:2.20644;stroke-linecap:round;stroke-linejoin:round"
       id="rect833-6"
       width="264.58334"
       height="158.75"
       x="-1.0172526e-05"
       y="0" />
    <g
       id="g3183"
       transform="translate(-3.0694882,3.9813135)">
      <path
         id="path4909"
         d="m 102.17539,47.55924 6.11724,30.884614 24.91657,22.380156 29.09421,-25.513377 2.23801,-27.602192 -31.03382,-9.250465 z"
         style="fill:#1d65ac;fill-opacity:1;stroke:#000000;stroke-width:0.184461px;stroke-linecap:butt;stroke-linejoin:miter;stroke-opacity:1" />
      <g
         transform="matrix(0.18446112,0,0,0.18446112,-158.9071,-2.0877701)"
         id="g4907">
        <g
           id="g1190">
          <path
             id="path1135"
             d="m 1582.9314,93.16937 a 168.30087,169.78014 0 0 0 -168.3008,169.78125 168.30087,169.78014 0 0 0 0.211,5.99609 170.05534,169.77191 0 0 1 58.0898,-10.36523 170.05534,169.77191 0 0 1 111.0078,41.27539 170.05534,169.77191 0 0 1 110.7422,-41.19727 170.05534,169.77191 0 0 1 56.2793,9.77735 168.30087,169.78014 0 0 0 0.2714,-5.48633 168.30087,169.78014 0 0 0 -168.3007,-169.78125 z m 168.0293,175.26758 a 168.30087,169.78014 0 0 1 -108.2149,153.14648 170.05534,169.77191 0 0 1 0.2402,6.76953 170.05534,169.77191 0 0 1 -59.3144,128.57227 170.05534,169.77191 0 0 0 111.0098,41.27734 170.05534,169.77191 0 0 0 170.0546,-169.77148 170.05534,169.77191 0 0 0 -113.7753,-159.99414 z m -167.2891,288.48828 a 170.05534,169.77191 0 0 1 -59.0469,-128.49414 170.05534,169.77191 0 0 1 0.3164,-6.32227 168.30087,169.78014 0 0 1 -110.0995,-153.16211 170.05534,169.77191 0 0 0 -111.9668,159.40625 170.05534,169.77191 0 0 0 170.0566,169.77149 170.05534,169.77191 0 0 0 110.7402,-41.19922 z m -58.7305,-134.81641 a 168.30087,169.78014 0 0 0 57.9903,10.6211 168.30087,169.78014 0 0 0 59.8144,-11.14649 170.05534,169.77191 0 0 0 -58.8066,-121.72656 170.05534,169.77191 0 0 0 -58.9981,122.25195 z"
             style="opacity:1;fill:#9ad9e9;fill-opacity:1;fill-rule:evenodd;stroke:#ffffff;stroke-width:3.2;stroke-linecap:round;stroke-miterlimit:4;stroke-dasharray:none;stroke-opacity:1;paint-order:stroke fill markers" />
          <path
             id="path1183"
             d="m 1442.934,595.01091 c -111.5603,-21.54117 -171.9126,-141.89703 -121.4469,-242.19186 18.2984,-36.36594 52.4523,-67.82403 88.2453,-81.28007 4.2793,-1.60874 4.2859,-1.5982 5.3604,8.46032 1.5829,14.81897 7.0943,35.81842 13.2007,50.2974 15.4706,36.68221 49.576,71.77369 84.5759,87.02131 l 10.0841,4.39308 1.8675,18.93111 c 4.1739,42.30947 19.4615,76.60081 46.9679,105.35295 5.7508,6.01126 10.0737,11.54817 9.6064,12.30425 -0.4672,0.7561 -7.0603,5.5072 -14.6513,10.55805 -16.0146,10.65577 -35.2375,19.16571 -53.727,23.7849 -16.9764,4.24117 -53.9188,5.48969 -70.083,2.36856 z"
             style="opacity:1;fill:#5ac1db;fill-opacity:1;fill-rule:evenodd;stroke:#ffffff;stroke-width:5.21548;stroke-linecap:round;stroke-miterlimit:4;stroke-dasharray:none;stroke-opacity:1;paint-order:stroke fill markers" />
          <path
             id="path1185"
             d="m 1580.7065,296.65155 c -3.7929,-4.57017 -28.6704,-19.48829 -41.6121,-24.95323 -23.5688,-9.95245 -37.4033,-12.52227 -66.8233,-12.41272 -22.3582,0.0833 -28.2206,0.66965 -41.1049,4.11149 -9.6761,2.58483 -15.2613,3.40506 -15.6841,2.30335 -0.3611,-0.94106 -0.033,-9.08883 0.7298,-18.10615 7,-82.78466 74.1829,-148.367172 157.109,-153.366482 91.4816,-5.515089 171.6138,65.859752 176.4254,157.144412 l 0.8811,16.71629 -7.1124,-2.50938 c -11.3435,-4.00222 -33.3414,-7.29058 -48.7713,-7.29058 -35.0099,0 -69.9066,11.24344 -98.4434,31.71769 -6.9209,4.96552 -12.8158,9.02822 -13.0998,9.02822 -0.284,0 -1.4063,-1.07231 -2.494,-2.38291 z"
             style="opacity:1;fill:#458bc0;fill-opacity:1;fill-rule:evenodd;stroke:#ffffff;stroke-width:5.21548;stroke-linecap:round;stroke-miterlimit:4;stroke-dasharray:none;stroke-opacity:1;paint-order:stroke fill markers" />
        </g>
        <path
           style="opacity:1;fill:#9ad9e9;fill-opacity:1;fill-rule:evenodd;stroke:#ffffff;stroke-width:7.41747;stroke-linecap:round;stroke-miterlimit:4;stroke-dasharray:none;stroke-opacity:1;paint-order:stroke fill markers"
           d="m 1657.1293,593.1414 c -16.6171,-3.55027 -53.6344,-20.79983 -64.8023,-30.19702 l -7.1361,-6.0046 13.3691,-14.43286 c 25.8506,-27.90743 41.5944,-63.91098 43.9679,-100.54767 l 1.3062,-20.16039 11.863,-5.24693 c 30.2504,-13.37949 62.0675,-45.29366 77.9407,-78.17838 8.6633,-17.94781 16.2099,-42.04421 16.2099,-51.75826 0,-2.60146 1.0383,-7.46083 2.3073,-10.79861 l 2.3073,-6.06868 18.3606,9.55223 c 68.4123,35.59203 104.5776,115.10761 86.0007,189.08771 -7.9429,31.63177 -21.1892,54.71182 -45.1557,78.67829 -23.9664,23.96648 -47.0465,37.21276 -78.6783,45.15569 -21.617,5.42817 -54.9167,5.82143 -77.8603,0.91948 z"
           id="path1192" />
        <path
           style="opacity:1;fill:#1d65ac;fill-opacity:1;fill-rule:evenodd;stroke:#ffffff;stroke-width:7.41747;stroke-linecap:round;stroke-miterlimit:4;stroke-dasharray:none;stroke-opacity:1;paint-order:stroke fill markers"
           d="m 1556.2981,429.91159 c -6.3744,-1.16259 -15.7621,-3.58248 -20.8616,-5.37752 -9.0955,-3.20165 -9.2585,-3.45682 -8.5718,-13.41967 2.0728,-30.0739 19.7802,-70.71133 41.039,-94.18196 7.2171,-7.96799 14.4662,-14.48725 16.1092,-14.48725 3.6802,0 18.4996,15.88566 28.7868,30.85795 18.8307,27.40694 33.3094,75.56292 26.1245,86.8896 -5.0299,7.92928 -58.1681,14.17964 -82.6261,9.71885 z"
           id="path1196" />
      </g>
      <g
         id="text4915-0"
         style="font-style:normal;font-variant:normal;font-weight:normal;font-stretch:normal;font-size:40px;line-height:1.25;font-family:Interface;-inkscape-font-specification:Interface;letter-spacing:0px;word-spacing:0px;fill:#9ad9e9;fill-opacity:1;stroke:none"
         aria-label="NUEVA REPÚBLICA"
         transform="matrix(0.18446112,0,0,0.18446112,65.308953,14.757338)">
        <path
           id="path4972"
           style="font-style:normal;font-variant:normal;font-weight:normal;font-stretch:normal;font-size:141.333px;font-family:'Bebas Neue';-inkscape-font-specification:'Bebas Neue';fill:#9ad9e9;fill-opacity:1"
           d="M 36.041563,656.17114 H 52.012229 V 557.23781 H 38.161563 v 59.21867 H 37.878896 L 22.190897,557.23781 H 2.6868972 v 98.93333 H 16.678897 v -71.65599 h 0.282666 z" />
        <path
           id="path4974"
           style="font-style:normal;font-variant:normal;font-weight:normal;font-stretch:normal;font-size:141.333px;font-family:'Bebas Neue';-inkscape-font-specification:'Bebas Neue';fill:#9ad9e9;fill-opacity:1"
           d="m 62.574685,557.23781 v 75.33067 c 0,15.82933 7.914666,24.87466 23.178666,24.87466 15.263999,0 23.178669,-9.04533 23.178669,-24.87466 V 557.23781 H 94.233351 v 76.32 c 0,7.06667 -3.109334,9.61067 -8.056,9.61067 -4.946667,0 -8.056,-2.544 -8.056,-9.61067 v -76.32 z" />
        <path
           id="path4976"
           style="font-style:normal;font-variant:normal;font-weight:normal;font-stretch:normal;font-size:141.333px;font-family:'Bebas Neue';-inkscape-font-specification:'Bebas Neue';fill:#9ad9e9;fill-opacity:1"
           d="m 135.14051,571.37115 h 26.85334 v -14.13334 h -42.4 v 98.93333 h 42.4 v -14.13333 h -26.85334 v -28.97333 h 21.34134 v -14.13334 h -21.34134 z" />
        <path
           id="path4978"
           style="font-style:normal;font-variant:normal;font-weight:normal;font-stretch:normal;font-size:141.333px;font-family:'Bebas Neue';-inkscape-font-specification:'Bebas Neue';fill:#9ad9e9;fill-opacity:1"
           d="m 183.07902,557.23781 h -15.688 l 15.264,98.93333 h 23.17866 l 15.264,-98.93333 h -14.27466 l -11.73067,80.70133 h -0.28267 z" />
        <path
           id="path4980"
           style="font-style:normal;font-variant:normal;font-weight:normal;font-stretch:normal;font-size:141.333px;font-family:'Bebas Neue';-inkscape-font-specification:'Bebas Neue';fill:#9ad9e9;fill-opacity:1"
           d="m 259.25105,557.23781 h -22.75467 l -15.82933,98.93333 h 14.27466 l 2.68534,-17.94933 h 19.08 l 2.68533,17.94933 h 15.688 z m -12.296,17.52534 h 0.28266 l 7.34934,50.03199 h -14.98134 z" />
        <path
           id="path4982"
           style="font-style:normal;font-variant:normal;font-weight:normal;font-stretch:normal;font-size:141.333px;font-family:'Bebas Neue';-inkscape-font-specification:'Bebas Neue';fill:#9ad9e9;fill-opacity:1"
           d="m 352.32567,656.17114 c -1.55467,-3.67466 -1.696,-7.208 -1.696,-12.01333 v -15.264 c 0,-10.31733 -2.544,-17.66667 -10.31734,-20.91733 v -0.28267 c 6.92534,-3.25067 10.176,-9.752 10.176,-19.928 v -7.77333 c 0,-15.264 -6.92533,-22.75467 -23.03733,-22.75467 h -23.46133 v 98.93333 h 15.54666 v -40.28 h 5.37067 c 7.06667,0 10.176,3.392 10.176,12.57867 v 15.54667 c 0,8.056 0.56533,9.61066 1.41333,12.15466 z M 327.027,571.37115 c 5.512,0 7.91467,3.10933 7.91467,10.176 v 9.75199 c 0,7.91467 -3.53334,10.45867 -9.328,10.45867 h -6.07734 v -30.38666 z" />
        <path
           id="path4984"
           style="font-style:normal;font-variant:normal;font-weight:normal;font-stretch:normal;font-size:141.333px;font-family:'Bebas Neue';-inkscape-font-specification:'Bebas Neue';fill:#9ad9e9;fill-opacity:1"
           d="m 376.40093,571.37115 h 26.85333 v -14.13334 h -42.4 v 98.93333 h 42.4 v -14.13333 h -26.85333 v -28.97333 h 21.34133 v -14.13334 h -21.34133 z" />
        <path
           id="path4986"
           style="font-style:normal;font-variant:normal;font-weight:normal;font-stretch:normal;font-size:141.333px;font-family:'Bebas Neue';-inkscape-font-specification:'Bebas Neue';fill:#9ad9e9;fill-opacity:1"
           d="m 435.64607,557.23781 h -22.89599 v 98.93333 h 15.54666 v -37.17066 h 7.34933 c 15.54667,0 23.17867,-8.62134 23.17867,-24.45067 v -12.86133 c 0,-15.82933 -7.632,-24.45067 -23.17867,-24.45067 z m 0,14.13334 c 4.94667,0 7.632,2.26133 7.632,9.328 v 14.83999 c 0,7.06667 -2.68533,9.328 -7.632,9.328 h -7.34933 v -33.49599 z" />
        <path
           id="path4988"
           style="font-style:normal;font-variant:normal;font-weight:normal;font-stretch:normal;font-size:141.333px;font-family:'Bebas Neue';-inkscape-font-specification:'Bebas Neue';fill:#9ad9e9;fill-opacity:1"
           d="m 465.31947,557.23781 v 75.33067 c 0,15.82933 7.91467,24.87466 23.17867,24.87466 15.264,0 23.17866,-9.04533 23.17866,-24.87466 v -75.33067 h -14.69866 v 76.32 c 0,7.06667 -3.10934,9.61067 -8.056,9.61067 -4.94667,0 -8.056,-2.544 -8.056,-9.61067 v -76.32 z m 24.73333,-20.91733 -9.61066,15.688 h 10.45866 l 14.416,-15.688 z" />
        <path
           id="path4990"
           style="font-style:normal;font-variant:normal;font-weight:normal;font-stretch:normal;font-size:141.333px;font-family:'Bebas Neue';-inkscape-font-specification:'Bebas Neue';fill:#9ad9e9;fill-opacity:1"
           d="m 545.79994,557.23781 h -23.46133 v 98.93333 h 24.45066 c 15.54667,0 23.60267,-8.19733 23.60267,-23.46133 v -8.056 c 0,-10.45867 -3.25067,-17.808 -11.58933,-21.05867 v -0.28266 c 6.92533,-3.25067 10.03466,-9.61067 10.03466,-19.78667 v -3.53333 c 0,-15.264 -6.92533,-22.75467 -23.03733,-22.75467 z m -0.98933,54.41333 c 7.06666,0 10.03466,2.82667 10.03466,12.01334 v 8.62133 c 0,7.34933 -2.82666,9.752 -8.056,9.752 h -8.904 v -30.38667 z m 0.56533,-40.27999 c 5.512,0 7.91467,3.10933 7.91467,10.176 v 5.512 c 0,7.91466 -3.53334,10.45866 -9.328,10.45866 h -6.07734 v -26.14666 z" />
        <path
           id="path4992"
           style="font-style:normal;font-variant:normal;font-weight:normal;font-stretch:normal;font-size:141.333px;font-family:'Bebas Neue';-inkscape-font-specification:'Bebas Neue';fill:#9ad9e9;fill-opacity:1"
           d="m 579.75529,656.17114 h 41.128 v -14.13333 h -25.58133 v -84.8 h -15.54667 z" />
        <path
           id="path4994"
           style="font-style:normal;font-variant:normal;font-weight:normal;font-stretch:normal;font-size:141.333px;font-family:'Bebas Neue';-inkscape-font-specification:'Bebas Neue';fill:#9ad9e9;fill-opacity:1"
           d="m 627.78654,656.17114 h 15.54667 v -98.93333 h -15.54667 z" />
        <path
           id="path4996"
           style="font-style:normal;font-variant:normal;font-weight:normal;font-stretch:normal;font-size:141.333px;font-family:'Bebas Neue';-inkscape-font-specification:'Bebas Neue';fill:#9ad9e9;fill-opacity:1"
           d="m 684.94927,619.28314 v 14.13334 c 0,7.06666 -3.10933,9.61066 -8.056,9.61066 -4.94667,0 -8.056,-2.544 -8.056,-9.61066 v -53.424 c 0,-7.06667 3.10933,-9.752 8.056,-9.752 4.94667,0 8.056,2.68533 8.056,9.752 v 10.6 h 14.69867 v -9.61067 c 0,-15.82933 -7.91467,-24.87466 -23.17867,-24.87466 -15.264,0 -23.17866,9.04533 -23.17866,24.87466 v 51.44533 c 0,15.82934 7.91466,24.87467 23.17866,24.87467 15.264,0 23.17867,-9.04533 23.17867,-24.87467 v -13.144 z" />
        <path
           id="path4998"
           style="font-style:normal;font-variant:normal;font-weight:normal;font-stretch:normal;font-size:141.333px;font-family:'Bebas Neue';-inkscape-font-specification:'Bebas Neue';fill:#9ad9e9;fill-opacity:1"
           d="m 743.70419,557.23781 h -22.75467 l -15.82933,98.93333 h 14.27467 l 2.68533,-17.94933 h 19.08 l 2.68533,17.94933 h 15.688 z m -12.296,17.52534 h 0.28266 l 7.34934,50.03199 h -14.98133 z" />
      </g>
      <g
         id="text4915"
         style="font-style:normal;font-variant:normal;font-weight:normal;font-stretch:normal;font-size:40px;line-height:1.25;font-family:Interface;-inkscape-font-specification:Interface;letter-spacing:0px;word-spacing:0px;fill:#1d65ac;fill-opacity:1;stroke:none"
         aria-label="NUEVA REPÚBLICA"
         transform="matrix(0.18446112,0,0,0.18446112,65.308953,14.757338)">
        <path
           id="path4943"
           style="font-style:normal;font-variant:normal;font-weight:normal;font-stretch:normal;font-size:141.333px;font-family:'Bebas Neue';-inkscape-font-specification:'Bebas Neue';fill:#1d65ac;fill-opacity:1"
           d="M 33.354666,653.25323 H 49.325332 V 554.31991 H 35.474666 v 59.21866 h -0.282667 l -15.688,-59.21866 H 1.9454956e-7 v 98.93332 H 13.992 v -71.65599 h 0.282666 z" />
        <path
           id="path4945"
           style="font-style:normal;font-variant:normal;font-weight:normal;font-stretch:normal;font-size:141.333px;font-family:'Bebas Neue';-inkscape-font-specification:'Bebas Neue';fill:#1d65ac;fill-opacity:1"
           d="m 59.887788,554.31991 v 75.33066 c 0,15.82933 7.914666,24.87466 23.178666,24.87466 15.263999,0 23.178666,-9.04533 23.178666,-24.87466 V 554.31991 H 91.546454 v 76.31999 c 0,7.06667 -3.109334,9.61067 -8.056,9.61067 -4.946667,0 -8.056,-2.544 -8.056,-9.61067 v -76.31999 z" />
        <path
           id="path4947"
           style="font-style:normal;font-variant:normal;font-weight:normal;font-stretch:normal;font-size:141.333px;font-family:'Bebas Neue';-inkscape-font-specification:'Bebas Neue';fill:#1d65ac;fill-opacity:1"
           d="m 132.45362,568.45324 h 26.85333 v -14.13333 h -42.4 v 98.93332 h 42.4 V 639.1199 h -26.85333 v -28.97333 h 21.34133 v -14.13333 h -21.34133 z" />
        <path
           id="path4949"
           style="font-style:normal;font-variant:normal;font-weight:normal;font-stretch:normal;font-size:141.333px;font-family:'Bebas Neue';-inkscape-font-specification:'Bebas Neue';fill:#1d65ac;fill-opacity:1"
           d="m 180.39212,554.31991 h -15.688 l 15.264,98.93332 h 23.17867 l 15.26399,-98.93332 h -14.27466 l -11.73067,80.70133 h -0.28266 z" />
        <path
           id="path4951"
           style="font-style:normal;font-variant:normal;font-weight:normal;font-stretch:normal;font-size:141.333px;font-family:'Bebas Neue';-inkscape-font-specification:'Bebas Neue';fill:#1d65ac;fill-opacity:1"
           d="m 256.56415,554.31991 h -22.75467 l -15.82933,98.93332 h 14.27467 l 2.68533,-17.94933 h 19.08 l 2.68533,17.94933 h 15.688 z m -12.296,17.52533 h 0.28267 l 7.34933,50.032 h -14.98133 z" />
        <path
           id="path4953"
           style="font-style:normal;font-variant:normal;font-weight:normal;font-stretch:normal;font-size:141.333px;font-family:'Bebas Neue';-inkscape-font-specification:'Bebas Neue';fill:#1d65ac;fill-opacity:1"
           d="m 349.63877,653.25323 c -1.55467,-3.67466 -1.696,-7.20799 -1.696,-12.01333 v -15.264 c 0,-10.31733 -2.544,-17.66666 -10.31733,-20.91733 v -0.28267 c 6.92533,-3.25066 10.176,-9.752 10.176,-19.928 v -7.77333 c 0,-15.264 -6.92534,-22.75466 -23.03734,-22.75466 h -23.46133 v 98.93332 h 15.54667 v -40.27999 h 5.37066 c 7.06667,0 10.176,3.392 10.176,12.57866 v 15.54667 c 0,8.056 0.56534,9.61066 1.41334,12.15466 z M 324.3401,568.45324 c 5.512,0 7.91467,3.10933 7.91467,10.176 v 9.752 c 0,7.91466 -3.53333,10.45866 -9.328,10.45866 h -6.07733 v -30.38666 z" />
        <path
           id="path4955"
           style="font-style:normal;font-variant:normal;font-weight:normal;font-stretch:normal;font-size:141.333px;font-family:'Bebas Neue';-inkscape-font-specification:'Bebas Neue';fill:#1d65ac;fill-opacity:1"
           d="m 373.71403,568.45324 h 26.85333 v -14.13333 h -42.39999 v 98.93332 h 42.39999 V 639.1199 h -26.85333 v -28.97333 h 21.34133 v -14.13333 h -21.34133 z" />
        <path
           id="path4957"
           style="font-style:normal;font-variant:normal;font-weight:normal;font-stretch:normal;font-size:141.333px;font-family:'Bebas Neue';-inkscape-font-specification:'Bebas Neue';fill:#1d65ac;fill-opacity:1"
           d="m 432.95918,554.31991 h -22.896 v 98.93332 h 15.54666 v -37.17066 h 7.34934 c 15.54666,0 23.17866,-8.62133 23.17866,-24.45067 v -12.86133 c 0,-15.82933 -7.632,-24.45066 -23.17866,-24.45066 z m 0,14.13333 c 4.94666,0 7.632,2.26133 7.632,9.328 v 14.84 c 0,7.06666 -2.68534,9.328 -7.632,9.328 h -7.34934 v -33.496 z" />
        <path
           id="path4959"
           style="font-style:normal;font-variant:normal;font-weight:normal;font-stretch:normal;font-size:141.333px;font-family:'Bebas Neue';-inkscape-font-specification:'Bebas Neue';fill:#1d65ac;fill-opacity:1"
           d="m 462.63257,554.31991 v 75.33066 c 0,15.82933 7.91467,24.87466 23.17867,24.87466 15.264,0 23.17867,-9.04533 23.17867,-24.87466 v -75.33066 h -14.69867 v 76.31999 c 0,7.06667 -3.10933,9.61067 -8.056,9.61067 -4.94667,0 -8.056,-2.544 -8.056,-9.61067 v -76.31999 z m 24.73334,-20.91734 -9.61067,15.688 h 10.45867 l 14.416,-15.688 z" />
        <path
           id="path4961"
           style="font-style:normal;font-variant:normal;font-weight:normal;font-stretch:normal;font-size:141.333px;font-family:'Bebas Neue';-inkscape-font-specification:'Bebas Neue';fill:#1d65ac;fill-opacity:1"
           d="m 543.11304,554.31991 h -23.46133 v 98.93332 h 24.45067 c 15.54666,0 23.60266,-8.19733 23.60266,-23.46133 v -8.056 c 0,-10.45866 -3.25067,-17.808 -11.58933,-21.05866 v -0.28267 c 6.92533,-3.25067 10.03466,-9.61067 10.03466,-19.78667 v -3.53333 c 0,-15.264 -6.92533,-22.75466 -23.03733,-22.75466 z m -0.98933,54.41333 c 7.06667,0 10.03466,2.82666 10.03466,12.01333 v 8.62133 c 0,7.34934 -2.82666,9.752 -8.05599,9.752 h -8.904 v -30.38666 z m 0.56533,-40.28 c 5.512,0 7.91467,3.10933 7.91467,10.176 v 5.512 c 0,7.91466 -3.53333,10.45866 -9.328,10.45866 h -6.07733 v -26.14666 z" />
        <path
           id="path4963"
           style="font-style:normal;font-variant:normal;font-weight:normal;font-stretch:normal;font-size:141.333px;font-family:'Bebas Neue';-inkscape-font-specification:'Bebas Neue';fill:#1d65ac;fill-opacity:1"
           d="m 577.0684,653.25323 h 41.128 V 639.1199 H 592.61506 V 554.31991 H 577.0684 Z" />
        <path
           id="path4965"
           style="font-style:normal;font-variant:normal;font-weight:normal;font-stretch:normal;font-size:141.333px;font-family:'Bebas Neue';-inkscape-font-specification:'Bebas Neue';fill:#1d65ac;fill-opacity:1"
           d="m 625.09965,653.25323 h 15.54666 v -98.93332 h -15.54666 z" />
        <path
           id="path4967"
           style="font-style:normal;font-variant:normal;font-weight:normal;font-stretch:normal;font-size:141.333px;font-family:'Bebas Neue';-inkscape-font-specification:'Bebas Neue';fill:#1d65ac;fill-opacity:1"
           d="m 682.26237,616.36524 v 14.13333 c 0,7.06667 -3.10933,9.61067 -8.056,9.61067 -4.94666,0 -8.056,-2.544 -8.056,-9.61067 v -53.424 c 0,-7.06667 3.10934,-9.752 8.056,-9.752 4.94667,0 8.056,2.68533 8.056,9.752 v 10.6 h 14.69867 v -9.61067 c 0,-15.82933 -7.91467,-24.87466 -23.17867,-24.87466 -15.264,0 -23.17866,9.04533 -23.17866,24.87466 v 51.44534 c 0,15.82933 7.91466,24.87466 23.17866,24.87466 15.264,0 23.17867,-9.04533 23.17867,-24.87466 v -13.144 z" />
        <path
           id="path4969"
           style="font-style:normal;font-variant:normal;font-weight:normal;font-stretch:normal;font-size:141.333px;font-family:'Bebas Neue';-inkscape-font-specification:'Bebas Neue';fill:#1d65ac;fill-opacity:1"
           d="m 741.01729,554.31991 h -22.75467 l -15.82933,98.93332 h 14.27467 l 2.68533,-17.94933 h 19.08 l 2.68533,17.94933 h 15.688 z m -12.296,17.52533 h 0.28267 l 7.34933,50.032 h -14.98133 z" />
      </g>
    </g>
  </g>
</svg>
