<?xml version="1.0" encoding="UTF-8" standalone="no"?>
<svg
   xmlns:dc="http://purl.org/dc/elements/1.1/"
   xmlns:cc="http://creativecommons.org/ns#"
   xmlns:rdf="http://www.w3.org/1999/02/22-rdf-syntax-ns#"
   xmlns:svg="http://www.w3.org/2000/svg"
   xmlns="http://www.w3.org/2000/svg"
   xmlns:sodipodi="http://sodipodi.sourceforge.net/DTD/sodipodi-0.dtd"
   xmlns:inkscape="http://www.inkscape.org/namespaces/inkscape"
   width="1000"
   height="600"
   viewBox="0 0 264.58333 158.75"
   version="1.1"
   id="svg8"
   inkscape:version="1.0.2 (e86c870879, 2021-01-15)"
   sodipodi:docname="Bandera Partido Vanguardia Popular Costa Rica.svg">
  <defs
     id="defs2" />
  <sodipodi:namedview
     id="base"
     pagecolor="#ffffff"
     bordercolor="#666666"
     borderopacity="1.0"
     inkscape:pageopacity="0.0"
     inkscape:pageshadow="2"
     inkscape:zoom="0.9455"
     inkscape:cx="533.06638"
     inkscape:cy="400.45595"
     inkscape:document-units="mm"
     inkscape:current-layer="layer1"
     inkscape:document-rotation="0"
     showgrid="false"
     units="px"
     inkscape:window-width="2560"
     inkscape:window-height="1385"
     inkscape:window-x="0"
     inkscape:window-y="0"
     inkscape:window-maximized="1" />
  <metadata
     id="metadata5">
    <rdf:RDF>
      <cc:Work
         rdf:about="">
        <dc:format>image/svg+xml</dc:format>
        <dc:type
           rdf:resource="http://purl.org/dc/dcmitype/StillImage" />
        <dc:title />
      </cc:Work>
    </rdf:RDF>
  </metadata>
  <g
     inkscape:label="Layer 1"
     inkscape:groupmode="layer"
     id="layer1">
    <rect
       style="fill:#cd0000;fill-opacity:1;stroke-width:0.493809;stroke-linecap:square;paint-order:fill markers stroke"
       id="rect901"
       width="264.58334"
       height="158.75"
       x="-1.0172526e-05"
       y="-3.9968029e-14" />
    <path
       id="path899"
       style="fill:#ffd700;fill-opacity:1;stroke:none;stroke-width:0.377976px;stroke-linecap:butt;stroke-linejoin:miter;stroke-opacity:1"
       d="m 63.919441,16.184016 c -2.658188,1.777978 -6.305109,0.108636 -8.787569,1.650996 -2.45641,2.092164 -5.010842,4.439391 -8.307735,5.00419 -1.197322,-0.938504 2.989212,-4.081201 1.420201,-4.730991 -3.9013,1.87579 -6.896126,5.116379 -10.57136,7.346556 -1.708293,0.08341 1.711143,-3.763935 -1.017409,-2.19412 -1.684976,1.451996 -3.450452,2.791099 -5.450191,3.798854 -2.902743,1.590495 -6.119607,3.125477 -7.866702,6.089886 -0.250977,1.65352 1.101429,5.432502 -0.132295,5.747804 -0.372136,-1.260617 -2.086093,-3.924816 -2.044066,-1.13583 -0.676111,2.653858 1.857088,4.227722 2.352807,6.578477 0.790029,3.169508 -0.01397,6.440579 0.310858,9.64918 -1.158282,4.932463 -3.428764,9.529507 -4.49149,14.488594 2.485107,0.69589 4.481681,-1.610621 5.70402,-3.472718 3.348601,-4.773388 5.392177,-10.397167 9.288788,-14.796378 3.060036,0.476926 5.897386,-0.928171 8.649643,-2.004732 2.786532,-0.970583 5.156001,1.041853 7.74997,1.525369 1.074769,0.163027 4.669613,0.255543 2.035406,-0.736893 -1.474515,-0.931236 -4.283004,-2.916288 -3.839036,-4.363265 2.326586,0.731868 4.512743,2.273973 7.102497,2.190844 2.61011,0.136764 5.224096,-0.190297 7.826728,-0.224803 1.829943,-1.065943 -2.25432,-1.273685 -2.90853,-2.026745 -0.987946,-0.530289 -4.339139,-1.880313 -1.45614,-1.49178 1.848942,0.141621 5.462416,1.04362 6.108337,-0.918887 -2.927959,-0.03156 -5.55062,-1.733665 -8.168362,-2.908402 -2.562948,-1.172467 2.057421,-0.159824 3.094882,-0.220477 2.295801,0.192713 4.843721,0.0521 6.692228,-1.492027 -3.123582,-0.16047 -5.740409,-2.216882 -8.787428,-2.552971 -2.389389,-0.197851 -4.841318,0.274298 -7.179115,-0.405875 1.688744,-1.360353 4.765188,-2.764401 4.966846,-4.81939 -3.44688,0.255201 1.008679,-2.47909 2.237408,-2.65664 2.424423,-0.881415 5.708011,-0.403063 7.303649,-2.792695 -1.031331,0.01968 -5.54117,0.360645 -5.960861,-1.249758 1.172245,-0.389637 3.364148,-1.951797 0.806076,-1.889978 -2.038199,-0.462846 -4.46416,0.538917 -5.870311,1.387529 2.335524,-3.26777 7.788379,-2.199222 9.60837,-6.023815 0.03398,-0.220219 -0.198766,-0.439148 -0.420114,-0.349109 z" />
  </g>
</svg>
