<?xml version="1.0" encoding="UTF-8"?>
<svg version="1.1" viewBox="0 0 384 230.4" xmlns="http://www.w3.org/2000/svg" xmlns:cc="http://creativecommons.org/ns#" xmlns:dc="http://purl.org/dc/elements/1.1/" xmlns:rdf="http://www.w3.org/1999/02/22-rdf-syntax-ns#">
<metadata>
<rdf:RDF>
<cc:Work rdf:about="">
<dc:format>image/svg+xml</dc:format>
<dc:type rdf:resource="http://purl.org/dc/dcmitype/StillImage"/>
<dc:title/>
</cc:Work>
</rdf:RDF>
</metadata>
<rect y="-.3" width="384" height="230.7" fill="#ffd100" fill-rule="evenodd"/>
<path d="m3.0104 217.6c2.1355-3.1798 3.6688-4.9857 8.0346-9.463 3.9877-4.0896 7.1608-5.6035 12.562-8.4736 3.7373-1.9859 10.791-4.7275 13.481-5.2401 7.939-1.5123 12.397-2.1855 15.241-2.3014 2.4977-0.10188 3.6887 0.3616 4.2449 0.30051 12.51-1.3741 41.383-3.607 73.272-3.5657 12.52 0.0162 22.706 2.7967 28.46 1.8568 9.437-1.5415 26.462 1.1648 50.029 0.50637 9.8294-0.27462 18.226-0.94313 28.093-1.0227l8.2252-0.0663c4.5239-0.0365 10.727-0.20522 13.785-0.375 10.058-0.55845 15.522-0.33309 21.44 0.88424 1.7339 0.35665 5.9121 0.80753 9.9 1.0683 3.795 0.24819 7.71 0.58757 8.7 0.75418 3.7784 0.63588 10.503 0.67172 23.082 0.12303 17.42-0.75984 24.343-0.31754 31.668 2.0232 6.0126 1.9213 11.211 5.1691 18.3 11.433 5.2167 4.6096 7.6732 7.0126 9.8703 9.6553 3.2092 3.8601 4.0904 3.4956 4.0904 9.3162v6.7016l-386.3-0.35355 1.0606-7.7183c0.27311-1.9875-0.0489-1.8634 2.758-6.0431z" fill="#027433" stroke="#000" stroke-width=".8"/>
<g transform="translate(-7.6861 240.19)" stroke="#000">
<path d="m159.1-170.3c0.52624-2.8974-0.32812-5.2333-1.0568-6.1945-0.96952 0.75189-2.3624 1.7987-3.1477 3.7038-0.10096 0.24491-0.37466 0.611-0.29683 1.0491z" fill="#9f2d20" stroke-width=".8"/>
<path d="m157.19-173.96c0.5 1.6562 0.34375 2.2188 0.34375 2.2188" fill="none" stroke-linecap="round" stroke-width=".6"/>
<path d="m158.71-170.25c0.18762-0.0445 0.79628-3.426 3.6042-3.8151 1.0808-0.14986 1.2883 0.0503 2.1973-9e-3 6.3145-4.0189 9.5166-3.4567 11.887-3.433-1.1574 0.9138-2.1822 1.8718-2.9861 3.2717 1.9747 0.0163 4.5972 0.10364 6.8399 0.30737 6.7959 0.61737 10.415 0.25098 15.397-1.0095 3.4012-0.86039 5.8021-2.0946 9.2468-5.614 0.66736-0.68185 1.5524-1.678 1.7559-2.8832 1.3913 1.3043 1.4403 2.9683 1.7477 4.1808 3.3502-2.1731 4.51-4.4855 6.2868-6.6928 0.55383 0.66734 0.27038 3.529-0.55614 5.4843-0.37229 0.88073-2.8418 4.1912-4.0213 4.9864-0.78294 0.52785 2.2981 0.89458 4.658 1.1558 0.39334 0.70286-3.5389 4.4392-14.466 3.9938-2.3324-0.0951 2.3387 1.7633 1.8576 2.4894-1.0716 1.6174-13.891-0.10714-16.539-0.97549-0.70672-0.23175 0.38302 1.5615 1.2374 2.2097-2.8137 0.60398-6.9199-0.70503-11.093-2.1655-2.3093-0.80827-4.0659-1.1932-4.0659-1.1932-12.816 2.3423-12.728 2.3423-12.728 2.3423z" fill="#a16a38" opacity=".99" stroke-width=".8"/>
<path d="m208.49-179.27c-0.61872 0.33882-1.127 0.52296-1.7899 0.77339" fill="none" stroke-linecap="round" stroke-width=".8"/>
</g>
<path d="m244.26 106.25 1.6794-0.0884" fill="none" stroke="#000" stroke-linecap="round" stroke-width=".7"/>
<path d="m53.493 523.15c6.4145-0.81328 12.783-3.4442 18.921-7.8168 3.8588-2.7488 5.0385-3.7999 4.7638-4.2444-0.29798-0.48213-3.9863-0.0874-9.1848 0.98296l-4.4958 0.92568-2.6388-0.48493c-1.4513-0.26672-3.7651-0.8061-5.1416-1.1986-1.3766-0.39253-3.5154-0.94157-4.7529-1.2201s-2.9925-0.71031-3.9-0.95951c-3.7491-1.0295-4.7615-1.2348-7.0582-1.4314-5.3832-0.46076-9.3415 1.2692-10.777 4.7099-0.48141 1.1542-0.6042 3.3647-0.27761 4.9976 0.4145 2.0725 3.4884 4.5689 6.686 5.4299 3.2855 0.88468 12.113 1.0378 17.855 0.30979z" fill="#6e361c"/>
<path d="m297.81 686.14c0.21657-0.0867 0.47532-0.076 0.57501 0.0237 0.0997 0.0997-0.0775 0.17059-0.39375 0.15756-0.3495-0.0144-0.42057-0.0855-0.18126-0.18125z" fill="#6e361c"/>
<path d="m126.26 505.56c-89.3-23.109-44.65-11.554 0 0z" fill="#6e361c"/>
<path d="m402.72 626.94c1.467-0.18553 1.5502-0.2312 0.75-0.4119-0.73643-0.16629-0.61646-0.20967 0.66009-0.23872 1.1434-0.026 1.6418-0.17572 1.8659-0.56049 0.25172-0.43217 0.3074-0.44278 0.31491-0.06 5e-3 0.25575-0.15288 0.627-0.35088 0.825-0.26537 0.26537-0.26871 0.36-0.0127 0.36 0.19102 0 0.61981-0.91125 0.95288-2.025 0.64352-2.1519 1.437-3.2146 3.341-4.4746 0.64834-0.42905 1.1788-0.8344 1.1788-0.90078 0-0.21569-1.3234 0.56639-2.4432 1.4438-1.2355 0.9681-1.4568 1.0343-1.4568 0.43576 0-0.39305 2.6427-2.3458 3.7493-2.7704 0.59429-0.22805 0.89144-0.93841 1.8139-4.3364 0.98314-3.6213 2.2807-7.4664 3.5847-10.622 2.3153-5.6037 3.8176-8.9157 4.6652-10.285 1.021-1.6496 0.93945-2.4272-0.33352-3.1792-1.6272-0.96122-6.4805-5.2253-7.7218-6.7844-1.5349-1.9278-2.4093-4.218-2.609-6.8338-0.0847-1.1096-0.35625-4.8525-0.60339-8.3175-0.24713-3.465-0.5005-6.8839-0.56304-7.5976-0.0831-0.94872 6e-3 -1.3436 0.33227-1.4687 0.60423-0.23187 0.91064 0.3509 1.1315 2.1519 0.34846 2.8418 0.45764 3.1073 1.541 3.7465 1.1801 0.69629 2.0504 0.8087 1.8308 0.2365-0.0805-0.20977-0.30366-1.661-0.49593-3.225-0.79025-6.4282-0.95958-7.3107-1.8417-9.598-1.003-2.6007-2.4915-4.9876-4.6033-7.3814-1.6305-1.8482-5.1791-3.7993-7.8269-4.3034-5.6611-1.0777-9.3002-0.9089-15.9 0.73736-2.31 0.5762-5.28 1.186-6.6 1.3551-2.9488 0.37778-16.27 0.36165-20-0.0242-2.3412-0.24222-6.5573-1.4167-9.077-2.5286-0.48887-0.21573-0.54099-0.16644-0.34096 0.32243 0.55512 1.3567 0.54673 1.6271-0.0505 1.6271-0.32367 0-0.80012-0.23625-1.0588-0.525-0.52104-0.58166-1.8133-3.3919-2.1153-4.6-0.47619-1.905-2.8962-5.1857-3.4312-4.6516-0.29946 0.29893-0.28898 3.5589 0.0172 5.3516 0.21956 1.2856 0.18758 1.425-0.32685 1.425-1.3693 0-1.6757-3.6514-0.80462-9.591 0.45079-3.0739 0.45085-3.5141 9e-4 -5.7348-0.50139-2.4745-1.276-4.4742-1.7331-4.4742-0.48154 0-2.3934 4.485-2.5872 6.0695-0.1381 1.1286-0.3334 1.5996-0.69179 1.6686-1.313 0.25256-0.80541-3.3484 0.96925-6.8766 1.8302-3.6388 2.3801-5.4455 2.3801-7.8203 0-2.8365-0.70953-4.2041-2.5448-4.905-1.2565-0.47986-3.4552-2.4648-3.4552-3.1192 0-0.69006 0.69904-0.59204 1.6344 0.22918 2.1264 1.867 6.9039 3.0221 8.4121 2.0339 0.41448-0.27157 0.75359-0.61408 0.75359-0.76112s-0.66006-0.67349-1.4668-1.1699c-1.7368-1.0687-3.2277-2.5082-4.4183-4.2662-0.67957-1.0034-1.1662-1.3642-2.2709-1.6835-0.83668-0.24181-1.67-0.73898-2.0578-1.2278-0.56233-0.70866-0.62877-1.0736-0.48386-2.6581 0.23778-2.5999-0.16697-2.9151-5.4117-4.2144-4.3572-1.0794-5.4482-1.1107-7.9499-0.22803-1.135 0.40046-1.3684 0.37389-3.8-0.43249-1.4249-0.47254-3.823-1.1634-5.3292-1.5353l-2.7385-0.67613-1.2156 1.2156 0.87133 0.83479c0.98851 0.94705 1.0726 1.2641 0.40343 1.5209-0.28312 0.10864-0.81503-0.15301-1.3469-0.66255-1.0124-0.96999-1.1455-0.913-1.3903 0.59546-0.17644 1.0872-0.12604 1.1559 3.0309 4.1292 2.8351 2.6701 3.369 3.3395 4.5679 5.7266 1.8063 3.5966 3.7211 5.6106 6.3528 6.682 2.571 1.0467 4.9083 1.0992 7.4035 0.16638 2.6824-1.0028 3.15-1.0831 3.15-0.54086 0 0.66431-1.3829 1.5585-3.5276 2.281-2.1919 0.7384-3.363 0.77909-5.3357 0.18539-0.80228-0.24145-1.5045-0.3932-1.5605-0.33722-0.056 0.056-0.14364 1.0973-0.19482 2.314-0.10413 2.4755-1.0738 4.9737-3.1954 8.2324-1.112 1.708-2.303 4.5128-2.0315 4.7843 0.0671 0.0671 1.1068-0.68274 2.3105-1.6663 2.2981-1.8777 3.035-2.1708 3.035-1.207 0 0.34941-0.80762 1.2602-2.025 2.2836-3.8239 3.2147-5.175 5.667-5.175 9.393 0 1.9857 0.66444 4.6612 1.247 5.0212 0.41274 0.25509 1.3404-0.65658 2.7007-2.654 0.64609-0.94875 1.2967-1.725 1.4458-1.725 1.0869 0 0.13665 2.334-1.8932 4.65-1.9341 2.2067-2.9002 4.2913-2.9002 6.2576 0 0.89517 0.42487 3.2284 0.94415 5.185 0.72457 2.7301 2.1831 8.9662 2.3362 9.9885 0.0638 0.42594 1.992-1.8402 2.4727-2.9061 0.39172-0.86855 0.76183-1.275 1.161-1.275 0.85043 0 0.75943 1.253-0.21719 2.9903-0.7432 1.3221-0.77261 1.5025-0.39404 2.4164 1.0605 2.5603 5.4628 8.3672 8.3668 11.036 1.4442 1.3274 6.9304 5.5253 6.9304 5.303 0-0.36607-1.053-2.2032-3.0231-5.2744-3.8961-6.0736-5.8532-10.598-5.2569-12.152 0.2684-0.69944 0.95781-0.0556 1.1915 1.1126 0.35281 1.7641 2.5002 5.8494 5.0299 9.5694 1.4018 2.0614 3.0537 4.6522 3.6707 5.7573l1.1219 2.0093 0.0246 7.8907c0.0254 8.154-0.55875 16.541-1.4481 20.791-0.53233 2.5441-0.87357 7.5596-0.59094 8.6856 0.11287 0.44972 0.70098 1.2718 1.3069 1.8269 1.1902 1.0903 1.1443 1.6482-0.0893 1.0862-0.42097-0.1918-1.029-0.34873-1.3513-0.34873-0.49221 0-0.59356-0.22784-0.63389-1.425-0.0409-1.2146-0.0664-1.27-0.17236-0.375-0.0684 0.5775-0.38552 1.33-0.70473 1.6723-0.31922 0.34224-0.50267 0.69997-0.40769 0.79495 0.095 0.095 8e-3 0.27459-0.1936 0.3991-0.23408 0.14467-0.28905 0.10137-0.15226-0.11996 0.11774-0.19049 0.0946-0.34635-0.0514-0.34635-0.37211 0-1.6103 1.3597-1.4155 1.5545 0.088 0.088-0.0458 0.33076-0.29726 0.53947-0.50289 0.41736-0.62619 1.506-0.17057 1.506 0.15767 0 1.0576-0.54 1.9997-1.2s1.8257-1.2 1.9633-1.2c0.54407 0 0.20558 0.60893-0.57473 1.0339-0.45375 0.24714-1.292 0.84396-1.8628 1.3263-0.8526 0.72039-0.97261 0.9555-0.67238 1.3172 0.30807 0.37121 0.24728 0.41776-0.38717 0.29648-0.41394-0.0791-0.75262-0.28626-0.75262-0.46028s-0.22553-0.56561-0.50117-0.8702c-0.4723-0.52187-0.45177-0.60536 0.35612-1.4486 0.47152-0.49216 0.70624-0.89483 0.52161-0.89483-0.36771 0-1.5766 1.5636-1.5766 2.0392 0 0.16313 0.2025 0.3743 0.45 0.46928 0.2475 0.095 0.45 0.4408 0.45 0.7685 0 0.84296 1.4883 1.0564 4.8787 0.6995 3.1959-0.33636 5.0235-0.98706 5.0167-1.7862-4e-3 -0.45859-0.0486-0.47225-0.29541-0.0903-0.20842 0.32251-0.29211 9e-3 -0.29541-1.1073-2e-3 -0.85652-0.12965-1.6346-0.28249-1.729-0.4178-0.25822 0.11425-1.7891 1.0466-3.0115 0.79719-1.0452 0.81332-1.1467 0.65077-4.0967-0.17843-3.2379 0.12218-7.4451 0.8435-11.805 1.5709-9.4963 3.7701-15.464 8.2357-22.35 2.0651-3.1842 2.0452-3.0405 1.0393-7.5-0.5191-2.3014-0.71446-8.5563-0.3073-9.8391 0.19386-0.6108 1.0402-0.94864 1.0921-0.43591 0.0125 0.12375 0.0596 2.25 0.10469 4.725 0.0705 3.8716 0.1913 4.8473 0.86513 6.9874 0.9134 2.9009 0.97982 2.636-1.7085 6.8126-1.062 1.65-1.829 3.1072-1.7044 3.2381 0.32014 0.33641 9.5345-1.1489 12.77-2.0586 1.897-0.53327 3.8598-1.4197 6.6-2.9805 2.145-1.2218 4.9125-2.6223 6.15-3.1122 2.8234-1.1176 10.921-3.6369 11.69-3.6369 0.91179 0 0.94068-0.41622 0.1134-1.6337-0.42377-0.62364-1.4621-2.6374-2.3073-4.4751l-1.5368-3.3412 4e-3 -3.3913c3e-3 -2.6064 0.10304-3.4524 0.43127-3.6552 0.75977-0.46956 0.9057-0.0169 0.9057 2.8097 0 3.4578 0.475 5.1348 2.5982 9.1729 4.4586 8.4797 9.3983 14.343 18.852 22.376 3.4255 2.9108 4.8574 4.286 6.1848 5.94 1.4404 1.7948 1.4892 2.7312 0.39676 7.6022-1.2115 5.4018-2.7293 9.3128-5.3086 13.679-1.1212 1.898-1.1686 2.0692-0.71201 2.5736 0.93555 1.0338 0.62675 1.4263-1.1085 1.409-1.265-0.0126-1.8115 0.1447-2.625 0.75539-1.5937 1.1964-2.0582 1.3355-0.75606 0.22639 0.64423-0.54871 1.5811-1.142 2.0819-1.3183 0.5008-0.17637 0.96209-0.47528 1.0251-0.66426 0.22733-0.68199-2.9331 1.3213-4.5854 2.9065-2.6162 2.51-3.1204 3.6284-1.6358 3.6284 0.31446 0 0.71624 0.27 0.89285 0.6 0.35446 0.66231 1.3166 0.75076 4.2 0.38611z" fill="#6e361c"/>
<path d="m1.0034 573.62c-1.5335 0.04-2.9282 0.19894-3.8828 0.48242-3.471 1.0308-5.4546 3.6169-5.6973 7.4277-0.14969 2.3508 0.00283 2.9101 2.623 9.6641 0.70413 1.815 1.8912 5.2579 2.6367 7.6504 1.1404 3.6598 1.3591 4.7644 1.3867 6.959 0.04418 3.5143-0.14301 3.6561-2.6973 2.043-1.9218-1.2137-2.0429-1.2497-2.4297-0.7207-0.22383 0.30611-0.56059 1.0696-0.74805 1.6953-0.31267 1.0436-0.27691 1.2046 0.41797 1.9551 0.95851 1.0352 2.9144 3.9673 3.9473 5.916 0.924 1.7434 0.98184 2.8772 0.30078 5.9082-0.3123 1.3899-0.49927 3.6238-0.50977 6.0938-0.0158 3.7321 0.036314 4.0736 1.2148 7.9492 1.5849 5.2118 2.9708 11.647 3.3281 15.451 0.61257 6.522-0.99501 16.152-2.8125 16.85-0.24224 0.0929-1.5609-0.39178-2.9297-1.0762-1.3688-0.68439-2.951-1.3186-3.5176-1.4102-0.95566-0.15447-1.1014-0.0662-2.0059 1.2188-0.53625 0.76186-0.97461 1.5285-0.97461 1.7031 0 0.17461 0.46252 1.1492 1.0293 2.166 0.56677 1.0168 1.7939 3.603 2.7266 5.748 0.93268 2.145 2.1629 4.6696 2.7324 5.6094 2.3712 3.9125 4.8228 10.197 6.3906 16.377 1.9427 7.6575 2.0614 16.635 0.33984 25.715-0.31285 1.65-0.85876 4.9571-1.2129 7.3496-1.004 6.7831-1.4445 8.711-2.2207 9.7266-1.4925 1.9529-8.7505 9.5824-9.6211 10.113l-0.91406 0.55665 1.7988 0.0469c0.99 0.0253 1.3954 0.0927 0.90039 0.15039 0.18548-0.018 1.3781-0.13225 1.6777-0.16211 0.088725 0.0889 0.19879 0.16104 0.34766 0.18359 0.49314 0.0747 0.82422 0.31267 0.82422 0.5918 0 0.55276-2.0619 3.4998-4.1836 5.9785-0.83084 0.97068-1.5122 1.8551-1.5137 1.9668-0.0075 0.57252 5.2603 0.71886 7.9551 0.22071 2.0524-0.3794 4.0625-1.3359 6.5938-3.1367 3.7861-2.6936 10.338-6.0647 10.996-5.6582 0.16282 0.10063 0.41171 0.47375 0.55469 0.82812 0.14562 0.36091 0.21079 0.60511 0.36719 0.90625-0.02341 0.014-0.04217 0.0338-0.06641 0.0469-1e-3 0.17016 0.46593 1.0556 1.0371 1.9688 1.5687 2.5079 10.574 10.384 11.477 10.037 0.21293-0.0817 1.5668-0.95856 3.0098-1.9492 4.6929-3.2217 7.5361-5.6449 8.6328-7.3594 0.57282-0.89546 1.035-1.8034 1.0273-2.0176-0.0042-7.8e-4 -0.0075-5e-3 -0.01172-6e-3l0.24219-1.3594c0.0754-0.60786 0.28872-0.97461 0.56641-0.97461 0.70293 0 3.3931 1.838 5.6758 3.877 1.1502 1.0274 3.1722 2.5409 4.4922 3.3652 2.3274 1.4536 2.4507 1.495 4.0938 1.3184 2.1464-0.23074 7.774 0.3214 10.396 1.0215 2.9345 0.78336 3.4473 0.77509 3.1953-0.0566-0.50886-1.6794-2.435-4.8212-4.6367-7.5625-1.3195-1.643-2.4004-3.2246-2.4004-3.5156 0-0.33927 0.35146-0.63005 0.97656-0.81055 0.33987-0.0981 0.52772-0.18633 0.56445-0.24414 0.43706-0.0401 0.99862-0.15424 1.3105-0.15039 0.40795 5e-3 1.6004-0.20371 1.7773-0.30664 0.09566-2e-3 0.25173-0.0121 0.32227-0.0117 0.66 3e-3 1.6208-0.39759 1.334-0.47266l-0.0625-0.0312c0.02369 6e-3 0.05478 0.0114 0.07813 0.0176 0-0.14475-1.3074-1.326-2.9062-2.625-3.1517-2.5606-9.4011-9.1984-10.303-10.943-0.30734-0.59481-0.63823-1.811-0.73633-2.7012-0.85832-7.7857-1.4926-11.257-3.4883-19.115l-1.168-4.5957 1.2266-2.9043c0.67395-1.5968 1.7007-4.1844 2.2832-5.752 1.0238-2.7554 1.0473-2.9102 0.70312-4.6504-0.1958-0.99-1.0772-3.4883-1.959-5.5508s-2.4725-5.775-3.5352-8.25c-2.2162-5.1614-3.204-8.8259-4.3008-15.953-1.0539-6.8486-1.1132-11.532-0.17969-14.232 0.73176-2.117 4.5271-8.673 6.5801-11.365 1.3334-1.7486 1.3313-1.9942-0.01563-3.2539-0.98203-0.91843-1.8603-0.7264-4.6953 1.0215-2.9907 1.8439-3.1305 1.8099-2.8828-0.69141 0.11029-1.1138 0.40033-2.9021 0.64453-3.9746 0.95281-4.1846 0.91013-5.5256-0.31445-9.7227-1.7428-5.9732-1.5892-6.6255 3.8574-16.377 2.1385-3.8287 3.5239-5.6231 4.543-5.8789 0.73432-0.1843 4.5448 1.2182 6.6504 2.4473 2.5142 1.4675 3.0627 0.76367 1.8594-2.3809-0.35028-0.91534-0.56496-1.8515-0.47656-2.082 0.23539-0.6134 4.8577-1.0367 8.4629-0.77539 6.3069 0.45713 17.642 2.9651 25.051 5.5449 2.2732 0.79155 4.5836 1.4102 5.2676 1.4082 0.67024-1e-3 2.3506-0.36845 3.7344-0.8164 3.3643-1.0891 10.544-2.7714 14.248-3.3379 4.3155-0.65994 14.118-0.90123 18.076-0.44532 6.1003 0.70272 14.461 2.7315 15.703 3.8106 0.26428 0.22953 1.3136 1.7306 2.3301 3.3359 2.2006 3.4754 5.0328 7.5328 6.4297 9.209 5.1138 6.136 7.4994 9.5749 9.1133 13.139 1.0143 2.2397 1.2796 2.2363 1.8828-0.0195 0.18978-0.70974 0.53491-1.3627 0.76562-1.4512 0.23074-0.0885 1.8104 0.70739 3.5098 1.7695 4.2832 2.6771 9.5107 5.5255 12.539 6.8301 2.3527 1.0135 2.6261 1.2238 3.5274 2.7109 1.1424 1.8852 2.8527 6.2078 3.5508 8.9726 0.45815 1.8145 0.45552 2.0479-0.0312 3.5996-1.0825 3.4507-4.423 8.8908-7.4473 12.127l-1.6504 1.7656-0.36914 3.1133c-0.38525 3.2507-0.22914 7.8254 0.29688 8.7285 0.26406 0.45336 0.30645 0.41874 0.31445-0.25391 0.0127-1.0808 1.0532-4.0022 2.0117-5.6465 2.3546-4.0393 6.3018-7.9147 9.918-9.7383 1.1558-0.58285 1.7301-1.107 2.1797-1.9883 0.72849-1.428 1.3186-1.5184 1.9492-0.29883 0.79133 1.5303 5.0586 6.6431 7.4043 8.8711 1.2281 1.1665 3.0361 2.5753 4.0156 3.1289 3.255 1.8396 5.4961 3.6208 8.2441 6.5488 1.4963 1.5943 2.9235 3.0105 3.1699 3.1484 0.5867 0.32833-1.3362-3.5096-3.1289-6.2461-1.3792-2.1052-4.8433-6.5834-6.6152-8.5508-0.52014-0.5775-1.0264-1.3534-1.125-1.7246-0.10228-0.385-0.41327-0.67578-0.72266-0.67578-0.64669 0-4.5233-4.109-5.6055-5.9414-0.41963-0.71051-1.3336-2.5997-2.0312-4.1992-1.9495-4.4696-4.7743-10.192-6.1309-12.418-0.67317-1.1047-1.2246-2.1421-1.2246-2.3066 0-0.16453 0.94439-0.60449 2.0996-0.97656l2.1016-0.67578-4.7266-2.4277c-5.6694-2.9137-5.9537-3.0906-15.762-9.75-4.2555-2.8894-9.2223-6.1868-11.037-7.3262-4.8256-3.0298-6.1984-4.539-8.748-9.627-1.4042-2.8023-3.2893-8.1134-3.1719-8.9356 0.0518-0.36253 0.43125-0.82113 0.84375-1.0176 2.2566-1.0746 10.048-2.498 13.672-2.498 2.3416 0 6.3684 1.2533 18.279 5.6914 4.7053 1.7532 10.505 3.4284 11.092 3.2031 0.16218-0.0521 0.45703-0.0502 1.0371-0.47852 1.4881-0.0538 12.716-6.6196 12.201-7.1348-0.0813-0.0813-1.5401 0.19425-3.2402 0.61328-9.114 2.2464-11.442 1.9624-22.891-2.7949-2.475-1.0285-5.5804-2.3109-6.9004-2.8496-3.2188-1.3136-8.1907-3.7431-9.332-4.5606-0.52433-0.37558-1.041-0.55033-1.1953-0.40429-0.14959 0.14157-1.959 0.41125-4.0215 0.60156-2.0625 0.19032-6.1125 0.75381-9 1.252-11.761 2.029-12.301 2.0887-12.301 1.3301 0-0.23807 0.26914-0.88851 0.59766-1.4453 0.9899-1.6778 1.7956-4.3756 2.4297-8.1328 0.33051-1.9585 0.54165-3.6205 0.46875-3.6934s-0.74324 0.65054-1.4883 1.6094c-3.2458 4.1774-5.2159 5.4993-12.658 8.4844-12.081 4.8457-18.765 6.0747-27.02 4.9707-6.9423-0.92857-7.4897-1.1738-5.8301-2.6094 4.9494-4.2813 5.7516-5.1273 5.2949-5.584-0.24793-0.24793-1.1024-0.51099-1.8984-0.58399-1.198-0.10992-2.0613 0.10648-5.0098 1.252-8.3258 3.2346-9.0012 3.255-21.336 0.66211-1.98-0.41622-5.0854-0.92317-6.9004-1.125s-3.4178-0.47041-3.5625-0.59766c-0.14491-0.12747 0.0325-0.71185 0.39648-1.3008l0.66016-1.0684-0.99609 0.17969c-0.5487 0.0984-1.8767 0.37711-2.9492 0.62109-2.5638 0.58326-9.0153 0.9819-11.1 0.68555-3.55-0.50475-7.0099-2.38-11.193-6.0684l-2.0449-1.8027-2.2168 0.20118c-1.2196 0.11052-4.4847 0.5916-7.2559 1.0703-6.7629 1.1683-7.1985 1.1032-23.189-3.4648-1.9499-0.55701-4.8933-0.81853-7.4492-0.75195z" fill="#6e361c"/>
<path d="m16.982 589.85c6.4145-0.81328 12.783-3.4442 18.921-7.8168 3.8588-2.7488 5.0385-3.7999 4.7638-4.2444-0.29798-0.48214-3.9864-0.0874-9.1848 0.98295l-4.4958 0.92569-2.6388-0.48494c-1.4513-0.26672-3.765-0.80609-5.1416-1.1986-1.3766-0.39252-3.5154-0.94157-4.7529-1.2201s-2.9925-0.7103-3.9-0.9595c-3.7491-1.0295-4.7615-1.2348-7.0582-1.4314-5.3832-0.46077-9.3415 1.2692-10.777 4.7099-0.48141 1.1542-0.60419 3.3647-0.27761 4.9976 0.4145 2.0725 3.4884 4.5689 6.686 5.4299 3.2855 0.88468 12.113 1.0378 17.855 0.30979z" fill="#6e361c"/>
<path d="m192.82 152.84c3.9996 5.3723 8.4475 11.117 13.824 15.488-0.71221 7.359-6.1917 14.287-10.35 20.906 0.0665 0.91601 0.38726 2.0723 0.38726 2.0723l-0.42858 0.5042 2.7232 2.5163 0.96654-0.72168c2.9375 0.17064 3.6937-5.7473 9.3984-12.818 1.9874-2.6718 8.346-8.2184 10.557-9.6328-0.0258-0.87312-0.15456-1.9688-0.58399-2.9531-0.89165-0.85435-1.4442-1.4195-2.5996-2.9531-0.51698-0.68625-0.55918-1.8241-0.49218-3.1016 0.0409-0.77959 0.77621-4.0435 0.85351-5.1114l0.0513-10.518h-24.312z" fill="#9f2d20" stroke="#000" stroke-width=".8"/>
<path d="m-357.85 741.44c0.44682-0.99618 1.2537-3.2172 1.9609-4.8672 2.9002-6.7663 4.2001-10.67 5.4902-16.5 1.1836-5.3482 1.5705-8.5939 1.334-11.162-0.18552-2.0143-0.21254-2.0686-2.4062-4.5762-1.2208-1.3955-3.1801-3.9843-4.3535-5.7539l-2.1328-3.2168-1.0977 0.63086c-1.7632 1.0147-2.0804 0.67214-2.0684-2.2344 0.0106-2.5735-0.29012-4.2669-1.6699-9.3887-1.0794-4.0069-1.3099-7.2147-0.64453-8.957 0.49028-1.2838 0.48339-1.374-0.25782-3.582-0.48438-1.4429-0.6944-2.699-0.70836-4.3988-0.0187-2.2736 0.3593-4.4417 1.1849-6.0739 0.37494-0.7412 0.5625-1.7515 0.5625-3.0215 0-2.0294-0.0448-1.9162 3.1348-7.7988 1.2545-2.321 1.4412-2.9097 1.582-4.9648 0.19253-2.809-0.13194-3.5968-2.5234-6.123-1.0739-1.1344-2.0198-2.5676-2.7754-4.2031-0.93772-2.0297-1.5491-2.8634-3.3574-4.5801-1.216-1.1544-2.8006-2.5718-3.5215-3.1484l-1.3106-1.0469 0.1836-2.2051c0.19104-2.2837 0.92961-4.3986 1.7812-5.1016 0.64607-0.5333 2.2816-0.34737 6.0566 0.68946 7.032 1.9314 7.0797 1.9382 9.041 1.3066 1.5568-0.50136 1.9919-0.52572 3.7793-0.20704l2.0195 0.36133 0.65039-0.82812c1.3251-1.6846 2.1782-2.289 3.1035-2.2012 0.75536 0.0716 0.97078 0.294 1.4004 1.4355 0.27943 0.7425 0.66199 1.3121 0.84961 1.2676s0.97391-0.22934 1.748-0.41211c0.77414-0.18278 2.4595-0.80371 3.7441-1.3789 7.1397-3.1968 14.761-3.2483 10.959-0.0742l-0.95313 0.79687 2.4492 0.2168c0.76337 0.0676 1.4297 0.13476 1.4297 0.13476 6.7959 0.61698 10.596 0.40278 15.574-0.87695 4.5503-1.1698 7.7337-3.3819 9.6758-6.7246 0.47929-0.82496 1.1104-1.5453 1.4023-1.6016 0.71372-0.13746 1.9009 1.0252 2.1348 2.0898 0.10417 0.47428 0.34787 0.85836 0.54101 0.85352 0.5832-0.0146 2.1171-1.5775 3.627-3.6934 1.4503-2.0324 2.159-2.4107 2.8809-1.541 0.55383 0.66734 0.18199 4.2361-0.64453 6.1914-0.37229 0.88073-1.1221 2.2722-1.666 3.0918-1.0821 1.6307-1.0351 1.7398 0.87109 2.082 0.61427 0.11029 1.2442 0.42985 1.4004 0.70898 0.39334 0.70286-0.41378 1.9904-1.6719 2.668-1.0338 0.55675-1.2033 0.83689-0.69922 1.1484 0.16279 0.10061 0.58894 1.1484 0.94727 2.3281l0.65039 2.1445 1.1426-1.2871c1.5984-1.8012 2.6008-3.7082 3.2402-6.1699 0.48248-1.8575 0.63209-2.1133 1.248-2.1133 0.9436 0 1.965 1.5641 2.2168 3.3945 0.33577 2.4414-0.77718 6.1505-2.8613 9.5332-0.31479 0.51094-0.48478 1.0172-0.37696 1.125 0.10781 0.10781 0.81602 0.19892 1.5723 0.20117 2.0722 6e-3 2.7246 0.25808 2.7246 1.0527 0 0.99706-2.6462 3.2503-5.3379 4.5449l-2.2539 1.084-4.0781-0.19531c-2.2438-0.10747-4.8102-0.28214-5.7031-0.38672-1.513-0.17722-1.6085-0.15029-1.3809 0.3789 0.46704 1.0858 0.52445 2.5214 0.11914 3.0098-0.32418 0.3906-0.77899 0.44963-2.3594 0.31055-2.4946-0.21953-6.1528-1.5625-10.408-3.8223-1.8437-0.97906-3.4062-1.7812-3.4726-1.7812s-0.0624 0.40241 0.01 0.89453c0.11178 0.76167 4e-3 0.94473-0.72656 1.2305-1.3581 0.53115-5.1329 0.12301-7.4551-0.80664-1.1072-0.44325-3.693-1.9242-5.7461-3.291s-4.1663-2.5714-4.6953-2.6777-1.2108-0.26381-1.5137-0.34961c-1.1348-0.3214 0.0935 1.0792 2.2871 2.6094 3.1298 2.1832 3.2148 2.2715 3.2148 3.3848 0 1.5872-1.7437 2.9062-3.8438 2.9062h-1.1836l-0.01 2.625c-6e-3 1.4438-0.20937 3.3532-0.45313 4.2422-0.42813 1.5614-0.41778 1.665 0.29102 3.0762 1.5968 3.1791 1.942 4.6905 1.8496 8.0898l-0.0879 3.1836 1.5605 1.707c0.85819 0.93899 1.9778 2.579 2.4863 3.6445l0.92383 1.9375 2.8457 1.3652c4.4752 2.1479 7.2159 2.5648 16.775 2.5469 8.5458-0.016 10.712-0.20573 15.797-1.3848 9.7252-2.2549 16.356-2.1681 21.719 0.28711 2.1676 0.99236 6.1141 4.8282 7.7148 7.498 2.5703 4.287 3.4332 6.9835 3.957 12.373 0.3052 3.1403 0.61356 4.7441 1.1856 6.1738 1.3815 3.4532 0.85743 3.9332-2.1484 1.9688-1.1164-0.72958-2.2181-1.439-2.4492-1.5762-0.35562-0.21105-0.3862 0.32176-0.20313 3.4707 0.26252 4.5153 0.78697 7.6289 1.6894 10.016 0.16721 0.44221 0.35684 0.83505 0.60938 1.2949 0.51244 0.93318 1.1718 1.6015 2.498 2.9277 1.3364 1.3364 3.2397 2.9529 4.2285 3.5918 2.8559 1.8452 3.1484 2.178 3.1484 3.5938 0 0.96127-0.23638 1.5546-1.0234 2.5742-0.56222 0.72833-1.7211 2.8759-2.5762 4.7734m-46.201 12.473c0-0.21306 1.0769-2.0084 2.3926-3.9883 4.0672-6.1203 6.4239-10.863 7.2226-14.535l0.36914-1.6992-3.5293-3.5508c-1.9411-1.9524-4.6101-4.8988-5.9316-6.5488s-2.4386-3.0436-2.4824-3.0957h5e-5c-0.11234-0.13341-3.5674 1.6182-5.5684 2.8223-2.5069 1.5086-7.2342 2.6635-16.922 4.1348l-2.4004 0.36328-1.4102 3.4375c-0.77507 1.8903-1.7502 4.8554-2.168 6.5879-0.99834 4.1395-1.9682 10.715-1.9707 13.365l-2e-3 2.1133m65.301 0.74605 0.46289-2.125c1.1888-2.9713 2.2826-7.405 2.5215-10.223l0.19336-2.2734-1.9141-2.0449c-1.0522-1.1248-3.1275-3.0709-4.6113-4.3262-1.4838-1.2552-3.7634-3.2608-5.0664-4.457s-2.4847-2.1758-2.627-2.1758v4e-5c-0.14229 0-0.25976 0.3172-0.25976 0.70508 0 1.2793 0.66266 2.7278 1.8047 3.9453 1.3136 1.4004 1.6455 2.005 1.9121 3.4844 0.27318 1.5155 0.0269 1.955-1.7285 3.0781-2.2106 1.4144-8.1004 7.1485-10.088 9.8203-1.5173 2.0398-4.5 6.8796-4.5 7.3027m-51.025-0.64256c0.165-0.031 0.47737-1.9394 0.8457-4.3184 1.2748-8.2334 1.9772-17.393 1.3691-17.555v-2e-5c-0.0196-5e-3 -0.0401-1.5e-4 -0.0625 0.0137-0.41078 0.25387-2.5548 4.2556-3.4648 6.4688-2.5742 6.2606-5.2533 14.507-4.8457 14.914" fill="none" stroke="#2b0000"/>
<path d="m-298.29 631.24c2.1926-0.55075 4.7623-1.9882 5.6083-3.137 0.63118-0.85715 1.1896-2.9043 0.84952-3.1144-0.11965-0.074-0.87749 0.0642-1.6841 0.3069-0.80659 0.24275-2.6184 0.49327-4.0262 0.55671l-2.5597 0.11534v1.1544c0 1.641-1.1967 2.2061-4.65 2.1958-2.5929-8e-3 -7.0962-0.37317-9-0.73023-0.90718-0.17014-1.0908-0.10269-1.35 0.49595-0.22349 0.51616-0.58693 0.71662-1.425 0.78598-0.61875 0.0512-1.125 0.20309-1.125 0.3375 0 0.3665 1.5172 0.63489 6 1.0614 5.9501 0.56607 11.039 0.55535 13.362-0.0281z" fill="none" stroke="#2b0000"/>
<path d="m-324.86 628.66c-0.4125-0.17911-1.4561-0.63381-2.3192-1.0104-0.86305-0.37662-1.6415-0.56776-1.7299-0.42476-0.21531 0.34838 0.22953 0.59516 2.2219 1.2326 1.8404 0.58881 3.0171 0.71928 1.8272 0.20259z" fill="none" stroke="#2b0000"/>
<path d="m-399.33 555c52.841-0.0418 139.31-0.0418 192.15 0s9.6075 0.0759-96.075 0.0759-148.92-0.0342-96.075-0.0759z" fill="none" stroke="#2b0000"/>
<path d="m-268.1 758.1c0.18751-0.45375 0.64937-1.5331 1.0264-2.3987 0.6324-1.4519 0.64614-1.5946 0.17764-1.8445-0.27929-0.14897-1.3364-0.23401-2.349-0.18898-1.4804 0.0658-2.0978 0.25977-3.15 0.98956-1.8365 1.2737-3.0935 2.6489-2.6639 2.9144 0.20299 0.12545 0.92065-0.41455 1.7504-1.3171 1.4321-1.5577 2.3271-1.9113 2.6577-1.05 0.12731 0.33178-0.36124 0.97507-1.5844 2.0862l-1.7685 1.6065 2.7814 0.0138c2.7569 0.0137 2.7844 7e-3 3.1224-0.81122z" fill="#9c2b1f"/>
<path d="m-336.63 756.65c0.91755-0.37427 0.975-0.48637 0.975-1.9025 0-1.6737-0.44143-2.1342-1.9881-2.074-0.47403 0.0185-1.2741-0.0647-1.7778-0.18488-0.79913-0.19055-1.134-0.0408-2.625 1.1738-0.93997 0.7657-1.709 1.5277-1.709 1.6934 0 0.34357 0.25828 0.21236 1.9933-1.0126 1.2179-0.85987 2.3567-1.0102 2.3567-0.31122 0 0.19369-0.77859 0.9097-1.7302 1.5911s-1.6474 1.373-1.5461 1.5368c0.24404 0.39488 4.7676 0.0136 6.0513-0.51001z" fill="#9c2b1f"/>
<path d="m-356.51 752.18c0.66-0.10154 1.9223-0.38836 2.8052-0.63737l1.6052-0.45274-0.20702-1.1078c-0.26899-1.4396-0.5786-1.7814-1.9985-2.2068-0.8446-0.25305-1.2654-0.26034-1.4998-0.026-0.17918 0.17917-0.75521 0.25608-1.2801 0.1709-0.85624-0.13895-1.0742-5e-3 -2.1209 1.2996-0.64235 0.80084-0.83797 1.168-0.43529 0.81695 1.1892-1.0366 2.0963-1.4175 2.4748-1.039 0.23871 0.23871-0.0172 0.6818-0.93221 1.6141-1.4878 1.516-1.628 2.1284-0.43624 1.9065 0.45375-0.0845 1.365-0.2367 2.025-0.33824z" fill="#9c2b1f"/>
<path d="m-296.08 751.14c0.54822-0.2934 0.61702-0.51519 0.45134-1.455-0.26162-1.4839-0.71687-1.8987-2.2697-2.0677-1.1428-0.12438-1.5401 0.0101-3.1809 1.0768-1.0312 0.67042-1.875 1.4384-1.875 1.7066 0 0.36653 0.26335 0.2564 1.0604-0.44345 0.58324-0.51209 1.2503-0.93108 1.4823-0.93108 0.90707 0 0.79293 0.71288-0.27005 1.6867-0.60905 0.55797-1.0353 1.131-0.94728 1.2735 0.19493 0.31542 4.6469-0.36368 5.5489-0.84643z" fill="#9c2b1f"/>
<path d="m-299.96 641.61c0-0.17601-0.3375-0.7625-0.75-1.3033-0.8817-1.156-0.95149-1.8488-0.225-2.2337 0.58969-0.31236 5.9258 0.0178 9.1942 0.56881 2.4433 0.41195 4.9023 0.0421 7.0897-1.0663 2.3244-1.1779 2.3621-1.4892 0.2283-1.886-1.0177-0.18926-2.0477-0.54142-2.2888-0.78258-0.38462-0.38462-0.26915-0.62679 0.94033-1.972 0.91849-1.0216 1.6738-2.305 2.2626-3.8442 0.82554-2.1584 1.4736-4.8606 1.1656-4.8606-0.0747 0-0.74584 1.0498-1.4914 2.3328-2.5632 4.4114-9.2255 9.3456-9.2255 6.8327 0-0.24932 0.51528-0.71619 1.1451-1.0375 1.5671-0.79945 1.8926-1.2648 1.6685-2.3851-0.23183-1.1592-0.42852-1.1759-1.221-0.10403-0.7476 1.0112-3.7838 2.6797-5.9031 3.244-2.301 0.6127-10.222 0.52598-15.489-0.16959-5.8803-0.77644-14.772-2.5846-16.138-3.2819-2.293-1.1703-2.8633-2.655-1.5056-3.9198l0.65657-0.61169-1.0316 5e-3c-1.9986 9e-3 -8.9179 2.1804-9.1876 2.8831-0.0873 0.22746-0.0753 0.74573 0.0266 1.1517 0.21109 0.84106 1.102 1.1604 4.6406 1.663 2.7206 0.38649 4.5411 1.23 8.7467 4.0528 3.5726 2.3978 5.8742 3.4073 8.3637 3.6683 1.7562 0.18408 1.7442 0.2144 0.57919-1.4699-0.30294-0.43797-0.55081-1.0792-0.55081-1.425 0-1.3709 2.4098-0.66326 7.8881 2.3164 3.2501 1.7678 8.6261 3.9113 9.8869 3.9421 0.28875 7e-3 0.525-0.13117 0.525-0.30718z" fill="#9c2b1f"/>
<path d="m-345.5 629.27c-0.28-0.28-0.44278-0.27722-0.73249 0.0125-0.29666 0.29667-0.2819 0.4285 0.0725 0.64752 0.6016 0.37181 1.1467-0.17329 0.66-0.66z" fill="#9c2b1f"/>
<path d="m-317.96 627.08c0-1.2302 0.2607-1.2856 2.9295-0.62264 3.5803 0.88935 11.877 1.4662 12.476 0.86737 0.1129-0.11291-0.21996-0.64401-0.73969-1.1802-1.6025-1.6533-1.1759-1.9145 3.127-1.9145 3.8254 0 7.1759-0.59947 9.1997-1.646 1.0186-0.52675 0.96096-1.054-0.11527-1.054-1.0474 0-2.5084-0.58833-2.6998-1.0872-0.10819-0.28194 0.43435-1.0361 1.4792-2.0562 1.589-1.5513 3.1345-4.193 3.1407-5.368 2e-3 -0.41085-0.57087-0.02-2.1374 1.4577-2.047 1.931-4.008 3.1329-5.1347 3.147-0.71522 9e-3 -0.6702-0.93574 0.075-1.5738 0.61633-0.52772 0.78817-1.2679 0.35633-1.5348-0.13402-0.0828-1.211 0.77912-2.3933 1.9154-4.6571 4.4761-11.255 6.2983-21.063 5.8176-2.7225-0.13344-6.2475-0.20328-7.8333-0.1552-3.3431 0.10135-3.7323-0.18839-2.636-1.9622 0.35078-0.56758 0.57075-1.099 0.48883-1.1809-0.34173-0.34173-4.4345 0.88513-6.5511 1.9638-1.3921 0.70941-2.9371 1.2446-3.9629 1.3728-0.92467 0.11552-1.9135 0.37991-2.1974 0.58751-0.4756 0.34777-0.45885 0.40654 0.21286 0.74721 0.40099 0.20336 1.0806 0.78256 1.5102 1.2871 0.74237 0.87183 0.83915 0.90117 1.95 0.59113 0.64287-0.17942 2.0862-0.67336 3.2075-1.0976 1.6215-0.61355 2.573-0.7713 4.65-0.77094 3.2716 6e-4 4.7114 0.58677 4.7114 1.9181 0 0.74047 0.17698 0.93304 1.2 1.3057 2.3392 0.85218 3.9176 1.2224 5.325 1.2489l1.425 0.0268v-1.05z" fill="#9c2b1f"/>
<path d="m141.85 832.93v-4.476l2.3032-3.3479c2.2927-3.3326 7.8542-9.6613 10.874-12.374 2.8296-2.5418 10.961-7.0712 17.048-9.4964 3.6718-1.4628 4.4846-1.6798 9.752-2.6029 2.3497-0.41179 5.2172-0.95834 6.3722-1.2145 1.155-0.2562 2.4327-0.53106 2.8392-0.61081 1.2329-0.2418 9.9035-9.16 11.036-11.351 0.31279-0.60514 0.80818-3.4145 1.7192-9.75 0.27287-1.8975 0.75249-4.7325 1.0658-6.3 1.484-7.4236 1.558-16.828 0.18304-23.25-1.4141-6.6046-4.7789-15.567-7.1521-19.05-0.39349-0.5775-1.4437-2.7375-2.3337-4.8s-2.2098-4.8622-2.9326-6.2215l-1.3144-2.4715 1.2947-1.5034c0.88004-1.0219 1.5237-1.5034 2.0099-1.5035 0.39341-8e-5 1.9977 0.60735 3.5652 1.3498s2.9737 1.35 3.125 1.35c0.77214 0 2.3167-6.1097 2.6166-10.35 0.21912-3.0988-0.0446-7.9867-0.55845-10.35-1.3886-6.3869-1.9158-8.5719-2.5696-10.65-1.7788-5.6543-2.0176-8.3504-1.1696-13.2 0.90945-5.2008 0.90193-5.5863-0.14703-7.5432-0.5179-0.96621-1.7484-2.8792-2.7345-4.2511-0.98609-1.3719-1.7929-2.6896-1.7929-2.9283 0-0.7162 1.2401-3.1275 1.608-3.1267 0.18808 3e-4 1.125 0.47293 2.082 1.05 0.95702 0.57708 1.8657 1.0492 2.0193 1.0492 0.46709 0 0.68105-1.4619 0.49857-3.4065-0.19977-2.1287-2.6334-10.101-4.5217-14.812-2.1794-5.4378-2.374-6.2036-2.2223-8.7432 0.16545-2.7693 0.86889-4.2877 2.7557-5.9485 1.9392-1.707 4.2646-2.3457 8.4304-2.3156 3.4594 0.025 4.7494 0.30569 15.3 3.329 3.2741 0.93821 9.0386 1.9869 9.4797 1.7246 0.48073-0.28585 11.339-1.9274 12.749-1.9274 1.51 0 1.7185 0.0942 3.2222 1.456 2.6594 2.4084 4.7576 3.87 7.2672 5.0625l2.3814 1.1315 5.1-0.0107c4.19-9e-3 5.6329-0.13184 8.0868-0.68951 3.1465-0.71509 3.7632-1.0129 3.7632-1.817 0-0.27157 0.55243-1.1623 1.2276-1.9794 1.4947-1.8088 2.2528-3.248 2.5374-4.8174 0.60937-3.3594 2.3606-4.3411 4.2224-2.367 1.125 1.1929 1.6126 1.1335 1.6126-0.19639 0-0.49057 0.1936-1.3553 0.43023-1.9216 0.79585-1.9047 3.1348-1.6855 4.0489 0.37947 0.23603 0.53322 0.57757 0.96949 0.75899 0.96949 0.18141 0 0.77552-0.4725 1.3202-1.05 1.0883-1.1538 1.7278-1.2794 3.045-0.59826 1.0898 0.56357 1.7529 2.4089 1.222 3.4009-0.39076 0.73014-1.5254 1.3782-2.9503 1.685-1.2302 0.26493-1.2689 0.99106-0.075 1.4072 0.72601 0.25309 0.9 0.48502 0.9 1.1997 0 1.2849-1.3406 1.7841-4.1572 1.548-1.8272-0.15318-2.1428-0.10995-2.1428 0.29344 0 0.26019 0.405 0.76147 0.9 1.1139 1.174 0.83599 1.2387 2.1642 0.1404 2.8839-0.67559 0.44266-1.0061 0.45555-2.988 0.11654-1.2535-0.21442-2.857-0.29286-3.6654-0.17931-3.5484 0.49846-4.3044 0.53155-5.1788 0.22672-0.79236-0.27622-1.0192-0.23685-1.5198 0.26374-1.0889 1.0889-0.7644 1.3901 1.7366 1.6117 2.7378 0.24258 7.3198 1.053 11.925 2.1092 6.8295 1.5663 9.7438 1.3515 16.2-1.1943 4.3567-1.7179 5.5798-2.026 6.562-1.6526 0.91505 0.3479 1.047 0.19239 2.0909-2.4637 0.65433-1.6649 0.7971-2.5136 0.7971-4.7386 0-2.4778 0.0632-2.7737 0.73636-3.4468 0.88413-0.88412 1.849-0.93006 2.8636-0.13636 1.306 1.0216 1.5532 0.80683 1.3311-1.1565-0.23706-2.0953 0.11053-2.9171 1.3488-3.1891 1.0144-0.2228 2.0021 0.21463 2.8134 1.2461 0.6573 0.83562 1.0201 0.68008 1.5888-0.68124 0.84685-2.0268 2.6609-2.4034 4.1937-0.8707 1.4112 1.4112 0.71014 3.4366-1.6008 4.6253-0.96499 0.49638-0.86678 1.2261 0.165 1.2261 1.0217 0 1.56 0.4881 1.56 1.4144 0 0.82162-1.418 1.795-3 2.0593-2.652 0.44311-3.3496 1.0604-1.8986 1.68 1.2773 0.54538 1.8986 1.1659 1.8986 1.8963 0 1.1346-0.98604 1.6922-3.4886 1.9729-1.7318 0.19422-2.8994 0.54815-4.5919 1.392-1.794 0.89443-2.5806 1.122-3.7538 1.0859-1.4691-0.0452-1.5115-0.0199-4.1638 2.4768-1.4738 1.3874-2.7971 2.5225-2.9408 2.5225-0.48583 0-0.26515 0.85832 0.2638 1.026 1.1008 0.34902 6.6446 1.095 9.375 1.2615 5.791 0.35318 12.965-1.2606 22.35-5.0272 7.5901-3.0464 8.4121-3.5135 11.105-6.3115 1.3228-1.3744 2.7495-2.9608 3.1703-3.5254 1.1983-1.6077 1.4169-1.0239 0.85991 2.2964-0.72532 4.3234-1.1635 6.0029-2.1254 8.1466-1.4033 3.1272-1.4875 3.082 3.94 2.1145 8.1432-1.4516 12.175-2.0735 15.722-2.4254 2.1552-0.21378 3.7912-0.51019 3.8093-0.69016 0.0175-0.1735 0.01-0.66237-0.017-1.0864-0.0268-0.42401 0.25327-1.504 0.62239-2.4 0.57089-1.3858 0.66292-2.1182 0.61624-4.9047-0.0449-2.6821 0.0352-3.3752 0.44232-3.825 0.5987-0.66155 1.8726-0.71349 2.6719-0.10893 0.32028 0.24225 0.8247 0.44475 1.1209 0.45 0.46478 8e-3 0.50649-0.14463 0.30433-1.1155-0.38119-1.8306-0.24991-3.1183 0.36367-3.5669 0.92111-0.67353 2.4595-0.50912 3.1995 0.34192 0.92363 1.0623 1.3316 0.94045 2.0136-0.60121 0.74158-1.6765 1.7013-2.1361 3.1748-1.5204 0.57221 0.23908 1.2257 0.83051 1.4967 1.3544 0.44203 0.85479 0.44138 1.0135-8e-3 1.9605-0.26894 0.56674-0.9489 1.3018-1.511 1.6335-1.2877 0.75977-1.3574 1.5233-0.13906 1.5233 1.1217 0 1.9344 1.0202 1.4836 1.8624-0.44528 0.832-1.9416 1.6507-3.4231 1.8728-2.0931 0.31389-2.379 1.2286-0.55809 1.7856 1.0424 0.31886 1.7097 1.259 1.4966 2.1083-0.2455 0.97817-0.85527 1.2801-3.6753 1.8196-1.5874 0.30371-2.8063 0.75812-3.841 1.4319-0.83365 0.54286-1.887 1.1489-2.3407 1.3467-0.45375 0.19782-0.825 0.47575-0.825 0.61763 0 0.6805 16.451 7.7248 23.1 9.8917 3.7557 1.2239 6.5529 1.4502 10.2 0.82542 3.3392-0.5721 8.4243-1.89 8.8389-2.2908 0.1589-0.15359 0.30192-0.85125 0.31783-1.5504 0.0159-0.6991 0.27002-2.1346 0.56468-3.1899 0.47696-1.7083 0.49367-2.178 0.15231-4.28-0.36258-2.2327-0.35017-2.4057 0.22821-3.1812 0.78125-1.0474 1.3898-1.1551 2.8378-0.50214 0.64154 0.2893 1.2446 0.44785 1.3401 0.35233 0.0955-0.0955 0.0101-0.90459-0.18983-1.798-0.28054-1.2536-0.28248-1.7757-8e-3 -2.2876 0.73641-1.376 2.605-1.4388 3.8696-0.13005 0.81202 0.84032 1.3727 0.58921 1.6441-0.73631 0.29887-1.4598 0.92599-2.0046 2.3074-2.0046 1.0072 0 1.4055 0.16802 1.9792 0.83491 1.1541 1.3417 0.96668 2.4781-0.65829 3.9913-1.4673 1.3664-1.5079 1.9101-0.14257 1.9101 1.769 0 1.9863 1.8174 0.33407 2.7934-0.50031 0.29554-1.5943 0.74065-2.431 0.98915-1.7416 0.51718-1.9222 1.2281-0.434 1.7079 1.3114 0.42276 1.65 0.77972 1.65 1.7394 0 1.0903-0.92319 1.7172-3.3567 2.2794-1.8866 0.43584-3.9579 1.348-4.2933 1.8907-0.36665 0.59326-2.5351 1.5-3.5872 1.5-0.78974 0-1.5408 0.3534-2.937 1.3819-2.3815 1.7544-6.3019 4.0746-8.7937 5.2044-2.517 1.1412-2.5025 1.6134 0.0736 2.4091 1.623 0.50128 2.4265 0.58138 4.2106 0.41971 2.0367-0.18456 2.2612-0.14683 2.9443 0.49484 0.89049 0.83658 0.943 1.9627 0.1394 2.99-0.32266 0.4125-0.58966 0.86869-0.59333 1.0138-4e-3 0.14507 0.80031 0.17245 1.7866 0.0609 2.0281-0.22945 2.8896 0.0783 3.3094 1.1824 0.34552 0.90879-0.15573 2.4432-0.93422 2.8599-0.93484 0.50031-0.6499 1.1695 0.75423 1.7714 1.4654 0.62817 1.8368 1.3176 1.5456 2.8696-0.13545 0.72199-0.49006 1.192-1.2569 1.6659-1.0167 0.62835-1.117 0.63692-2.08 0.17768-0.55651-0.26538-1.361-1.0356-1.7878-1.7116-0.8941-1.4163-1.4298-1.4154-1.6436 3e-3 -0.1656 1.0986-0.85369 1.7043-1.6075 1.415-0.70798-0.27167-1.5925-1.8621-1.8172-3.2675-0.1069-0.66849-0.34354-1.4942-0.52587-1.8349-0.33119-0.61884-0.33207-0.61877-0.89045 0.0708-0.30741 0.37963-0.55893 0.87468-0.55893 1.1001 0 0.22541-0.3375 0.63098-0.75 0.90126-0.69569 0.45583-0.80528 0.4552-1.5134-9e-3 -0.92001-0.60281-1.1864-1.263-1.4522-3.5982-0.1427-1.254-0.56187-2.4305-1.4197-3.9844-0.66946-1.2128-1.3067-2.8275-1.416-3.5882l-0.19878-1.3832-4.5-1.3963c-2.475-0.76798-5.9175-1.9506-7.65-2.6281-5.4353-2.1254-13.175-4.5973-14.948-4.774-2.3202-0.23119-8.557 0.59399-12.202 1.6144l-3 0.83986 0.0331 1.0397c0.0465 1.4594 2.2588 7.1492 3.9482 10.154 1.8695 3.3255 4.0045 5.442 8.0186 7.9487 3.4863 2.1771 6.4622 4.1571 13.8 9.1816 5.4685 3.7446 7.5816 5.0342 12.476 7.6143 3.9796 2.0978 4.9182 2.3536 5.2142 1.4209 0.27333-0.86118 1.5327-2.0014 3.3323-3.0171 1.0399-0.58687 2.1544-1.5968 3.1249-2.8318 1.5657-1.9929 1.9663-2.2815 3.166-2.2815 0.9518 0 1.447 0.98529 1.2173 2.4219-0.28569 1.7866 0.31081 1.7507 2.1156-0.12751 2.782-2.8951 4.8703-2.553 3.8495 0.63064-0.17268 0.5386-0.10159 0.675 0.35182 0.675 0.31253 0 0.83453-0.18525 1.16-0.41167 0.89983-0.62599 2.4277-0.87047 3.121-0.49941 0.90595 0.48485 1.5455 1.912 1.333 2.9746-0.29182 1.4591-1.1019 1.9742-2.9812 1.8955-1.7604-0.0737-1.9406 0.1335-1.3132 1.5104 0.417 0.91521-0.0439 2.1373-1.0562 2.8006-0.63798 0.41801-0.90954 0.44155-1.6338 0.14156-0.47773-0.19788-1.1755-0.68643-1.5505-1.0857-1.0495-1.1171-1.4773-0.93637-1.4773 0.62412 0 2.4596-1.8833 3.3088-3.9167 1.766-1.5333-1.1634-3.838-2.1478-5.5333-2.3634-0.825-0.10495-2.0117-0.40766-2.637-0.6727-1.0497-0.44487-1.2604-0.44301-2.7425 0.0242-2.318 0.7307-2.4131 0.96517-1.1763 2.9008 1.4262 2.2321 4.0624 7.4822 5.9475 11.845 1.8426 4.2643 2.502 5.3551 4.9588 8.2026 1.9631 2.2752 2.6995 2.6524 2.6995 1.3825 0-0.9663 0.5843-2.1005 1.8828-3.6547 1.103-1.3202 1.4223-2.0096 2.1552-4.6536 0.57197-2.0634 1.5404-2.9151 2.7091-2.3826 0.47436 0.21613 0.83362 0.74166 1.0459 1.5299 0.55002 2.0426 1.1497 1.8929 1.9312-0.48202 0.74489-2.2636 1.5262-3.1461 2.6854-3.0334 0.87477 0.085 0.94674 0.18029 1.0326 1.3664 0.11117 1.5366 0.64108 1.6624 1.561 0.37048 0.6742-0.94683 2.0236-1.7955 2.855-1.7955 0.26838 0 0.88259 0.39462 1.3649 0.87693 0.6711 0.6711 0.87692 1.1531 0.87692 2.0535 0 1.368-0.61394 2.0674-2.0705 2.3587-1.2457 0.24913-1.4807 0.85489-0.66748 1.7205 1.1963 1.2734 0.51587 3.7904-1.0248 3.7904-0.40078 0-1.3338-0.16184-2.0734-0.35964-0.73957-0.19781-1.4382-0.26611-1.5525-0.1518-0.11432 0.11432 0.0442 0.67595 0.35234 1.2481 0.43525 0.8082 0.49507 1.2254 0.26822 1.8704-0.48061 1.3666-1.2832 1.5665-4.2024 1.0468-2.3426-0.4171-2.7457-0.41292-4.7205 0.0489-1.1875 0.27773-2.3954 0.50323-2.6842 0.50112-0.66154-5e-3 -0.67328 0.40006-0.0271 0.93442 0.70332 0.5816 5.0271 6.0369 6.4772 8.1723 0.66784 0.98343 1.9704 3.1427 2.8946 4.7984 1.4474 2.5931 1.8148 3.0446 2.6504 3.258 0.9601 0.24513 2.4394 1.5665 4.0756 3.6407 0.46509 0.58957 1.6126 1.5025 2.55 2.0287 2.3194 1.302 2.7544 1.7227 2.7544 2.6637 0 1.0861-0.865 1.8-2.1809 1.8-1.89 0-1.6893 0.7348 0.59863 2.1916 1.5815 1.007 2.3076 2.0684 2.068 3.0231-0.22819 0.90918-0.88119 1.1656-1.8474 0.72537-0.5526-0.25179-0.84366-0.25474-1.0874-0.011-0.2437 0.2437-0.0809 0.71301 0.60814 1.7533 1.3617 2.0559 1.1886 3.2639-0.6003 4.189-1.886 0.97527-3.5588-0.1059-3.5588-2.3001 0-1.669-0.34183-2.0094-1.3526-1.3471-0.98891 0.64796-2.0118 0.59748-2.9569-0.14592-1.0174-0.80028-1.0226-1.8973-0.0161-3.3786 1.0246-1.5078 0.82301-2.0654-0.5899-1.6318-0.85916 0.26368-1.191 0.23141-1.8133-0.17633-1.2344-0.80879-1.2694-1.7543-0.15458-4.1729 0.79449-1.7237 1.0132-2.6241 1.1074-4.5583 0.0645-1.3257 0.2575-2.777 0.42887-3.2252 0.29464-0.77064 0.13671-1.0018-2.9052-4.2531-3.0836-3.2958-4.4784-4.3995-9.8977-7.8316-2.4036-1.5223-5.4643-4.6686-8.5314-8.7701-2.6472-3.5401-2.8791-3.6656-3.592-1.9444-0.21745 0.52495-0.94246 1.1324-2.033 1.7034-3.6938 1.934-8.0024 6.2447-9.8989 9.904-0.89667 1.7301-1.8946 4.512-1.8946 5.2814 0 0.29189 1.1812 1.743 2.625 3.2246 1.8668 1.9158 3.1698 2.9649 4.5112 3.6323 2.8603 1.423 3.2055 3.2884 0.81917 4.4263-1.3596 0.64832-1.3375 1.1562 0.0696 1.6023 1.9147 0.60709 2.475 1.1006 2.475 2.18 0 1.4172-0.72707 2.2751-2.1164 2.4972-1.3825 0.22108-1.4528 0.53114-0.43364 1.9126 0.93989 1.274 0.94846 2.1358 0.0318 3.2014-0.57247 0.66554-0.97257 0.83491-1.9723 0.83491-1.6281 0-2.3934-0.90807-2.4029-2.8514-9e-3 -1.9388-0.51159-2.3228-1.5503-1.1856-0.93726 1.0262-1.2229 1.0912-1.8849 0.42913-0.61204-0.61204-0.59887-2.2215 0.0346-4.2312 0.66354-2.105 0.30348-2.5251-1.2568-1.4663-1.3471 0.91415-1.6953 0.94675-2.3528 0.22025-0.70164-0.7753-0.61857-1.8843 0.30227-4.0354 0.58878-1.3754 0.82183-2.4827 0.8865-4.2121 0.098-2.6206 0.27702-3.416 0.93833-4.1696 0.39286-0.44764 0.40233-0.83907 0.0717-2.9643-0.25335-1.6286-0.31325-3.6457-0.17887-6.0235l0.20203-3.575-1.2261 0.68928c-1.9744 1.1099-3.4196 2.4813-4.6497 4.4122-1.7574 2.7586-3.6241 3.0155-4.562 0.62793-0.56358-1.4347-1.0727-1.5274-1.5858-0.28858-0.69167 1.6698-1.4568 2.3877-2.5449 2.3877-1.2606 0-2.25-1.1391-2.25-2.5905 0-1.1718-0.36297-1.2619-1.65-0.40954-1.2595 0.83411-2.4248 0.76597-3.3143-0.19381-0.89314-0.96371-0.96933-2.4512-0.17577-3.4312 0.45756-0.56506 0.92374-0.71464 2.55-0.81819 2.1049-0.13403 2.5774-0.58494 1.3901-1.3264-0.72477-0.45263-0.80849-1.8862-0.12546-2.1483 0.96004-0.36841 2.4165-0.15712 4.0009 0.5804 2.0521 0.95525 2.5007 0.65408 1.6172-1.0857-0.72068-1.4191-0.59821-2.296 0.38311-2.7432 0.57516-0.26206 1.1399-0.10432 3.3334 0.93114 1.8323 0.86495 3.2909 1.3261 4.7638 1.5063 2.0361 0.24901 3.7802 0.88667 4.1757 1.5268 0.43464 0.70326 1.34 0.18569 2.7514-1.5729 2.1568-2.6874 3.7432-5.125 5.1251-7.875 1.941-3.8627 2.0483-4.4505 1.3062-7.1554-0.80299-2.9269-2.392-6.8741-3.4245-8.5068-0.68675-1.0859-1.2702-1.487-4.1776-2.8716-3.6784-1.7518-9.3682-4.9137-12.661-7.0358-1.947-1.2548-2.1071-1.3068-2.475-0.80364-0.21634 0.29587-0.39335 0.72134-0.39335 0.9455s-0.2104 0.81442-0.46755 1.3117c-0.43601 0.84315-0.42434 0.99339 0.17311 2.2276 0.56439 1.1659 0.61736 1.6368 0.44491 3.956-0.16431 2.2097-0.0957 2.94 0.42689 4.5466 0.74596 2.2932 0.76374 2.701 0.15563 3.5692-0.6161 0.87961-1.6607 0.84528-2.533-0.0832-0.38753-0.4125-0.96638-0.75-1.2863-0.75-0.49356 0-0.55425 0.14781-0.40031 0.975 0.56692 3.0463 0.56141 4.2678-0.0225 4.9881-0.71447 0.88134-1.7997 0.65457-2.0727-0.43311-0.21526-0.85766-1.3172-1.0288-1.3198-0.205-3e-3 1.0298-0.64677 2.8234-1.2178 3.3945-0.81174 0.81174-2.1559 0.73081-3.2575-0.19615-1.2563-1.0571-1.2505-2.3069 0.0167-3.6143 1.0623-1.0959 0.99464-1.9091-0.15871-1.9091-0.84742 0-1.603-0.65626-2.0208-1.7551-0.43717-1.1498 0.48665-2.1963 2.3952-2.7133 1.7648-0.47799 1.9605-1.0012 0.63173-1.6883-1.2558-0.6494-1.6686-1.6328-1.1444-2.7264 0.31294-0.65293 0.89696-1.035 2.5077-1.6405 1.5544-0.58434 2.6061-1.2566 4.0497-2.5886 1.0725-0.9896 2.2538-1.9589 2.625-2.1541 0.88472-0.46503 0.85878-0.71739-0.32807-3.1922-1.4622-3.049-3.3408-5.8422-6.5514-9.7415-3.251-3.9484-6.5584-8.5177-9.0514-12.505l-1.7225-2.755-2.7608-0.906c-3.5077-1.1511-8.9891-2.2781-13.393-2.7537-3.7808-0.40831-12.599-0.23391-16.668 0.32964-3.203 0.44362-10.723 2.1582-14.315 3.2639-4.6308 1.4255-4.3075 1.4391-9.9606-0.42068-12.608-4.1479-24.24-6.1702-31.006-5.3909-1.0349 0.11921-1.9532 0.33242-2.0406 0.47381s0.2042 1.1866 0.64796 2.3228l0.80684 2.0657 1.5454 0.1595c0.84996 0.0877 2.1395 0.46918 2.8657 0.84767 0.96411 0.50252 2.0535 0.73767 4.0384 0.87165 3.2044 0.21632 4.07 0.58528 4.0635 1.7322-6e-3 1.0535-0.2351 1.373-1.4204 1.9803-0.53625 0.27476-0.975 0.63443-0.975 0.79928 0 0.44856 1.3757 0.88473 2.7945 0.88599 1.7798 2e-3 3.2735 0.9598 3.1497 2.0205-0.0751 0.64321-0.29526 0.84784-1.0844 1.008-0.54462 0.11049-1.054 0.26472-1.132 0.34273-0.34279 0.34278 0.27591 1.0161 1.3487 1.4677 0.64013 0.26948 1.3918 0.83774 1.6703 1.2628 0.94236 1.4382-0.10877 3.461-2.0355 3.9171-0.86017 0.20361-1.545-0.31278-2.9925-2.2563-0.51389-0.69003-0.54349-0.69462-0.9-0.13982-0.79182 1.2322-1.4401 1.6763-2.4472 1.6763-1.5471 0-1.9714-0.61801-1.9714-2.8714 0-2.0874-0.34681-2.4371-1.3346-1.3456-1.5205 1.6801-3.7654 0.69975-3.7654-1.6443 0-1.997-0.52961-4.2638-1.3876-5.9393-0.43639-0.85213-0.88002-1.9447-0.98583-2.428-0.1264-0.57725-0.54984-1.083-1.2345-1.4743-1.855-1.0604-4.325-2.2165-5.82-2.724-1.4296-0.48535-1.4818-0.48134-2.4962 0.1918-0.76236 0.50593-1.7022 1.8759-3.5579 5.1864-5.3312 9.5105-5.5443 10.332-4.0095 15.449 1.5476 5.1594 1.5733 5.3529 1.0422 7.8269-0.80259 3.7386-1.3804 7.5634-1.2097 8.0081 0.13068 0.34053 0.34983 0.29831 1.1354-0.21873 0.53541-0.35239 1.8877-1.1109 3.005-1.6856 1.6116-0.82885 2.1517-0.98054 2.6128-0.73376 0.59434 0.31808 2.1057 2.1334 2.1057 2.5291 0 0.12071-0.58806 0.98546-1.3068 1.9217-2.1996 2.8652-5.6224 8.6694-6.4546 10.946-0.68277 1.8673-0.78496 2.5994-0.76168 5.4567 0.0148 1.815 0.24235 4.7175 0.50569 6.45s0.5652 3.825 0.67081 4.65c0.18958 1.481 0.63062 3.5443 1.5712 7.35 0.26505 1.0725 1.2151 3.6375 2.1113 5.7 4.0072 9.2226 5.2029 12.181 5.662 14.009 0.5819 2.3166 0.46368 2.8204-2.1819 9.2984-0.88879 2.1763-1.616 4.3217-1.616 4.7676s0.72316 3.7952 1.607 7.443c1.5465 6.3826 2.5967 12.481 2.5942 15.063-2e-3 1.5868 0.4702 2.9408 1.6066 4.6114 1.3227 1.9444 7.4467 8.1656 10.241 10.403l2.3986 1.921 8.0498-0.166 1.2515-3.3c0.68835-1.815 1.492-3.762 1.786-4.3267 0.81163-1.5593 3.7543-9.7847 4.3913-12.274 1.7163-6.709 2.171-9.4866 2.1762-13.294l5e-3 -3.7953-1.9658-2.2047c-2.3334-2.617-5.9809-7.6016-6.5267-8.9195-0.45462-1.0975-0.9278-1.1614-2.3042-0.31071-0.55573 0.34346-1.0128 0.51221-1.0157 0.375-0.0658-3.1-0.48833-5.8638-1.5058-9.8495-1.5613-6.1162-1.7866-8.5405-0.96613-10.395l0.60087-1.3584-0.73257-1.7372c-1.3267-3.1461-1.1937-8.3914 0.27778-10.959 0.42894-0.74846 0.61315-1.6531 0.64143-3.15 0.0378-2.002 0.13516-2.2726 2.0851-5.7976 2.3638-4.2731 3.0786-6.7831 2.575-9.0412-0.35783-1.605-0.64431-2.0693-2.5062-4.0613-0.77554-0.82973-1.956-2.6394-2.6418-4.05-1.3379-2.7517-2.9121-4.6139-6.2531-7.397-1.8506-1.5415-2.0685-1.8359-2.0644-2.7883 7e-3 -1.6502 0.76125-4.4694 1.3774-5.1503 0.69245-0.76514 1.4146-0.69372 6.2679 0.6199 7.0362 1.9044 6.6616 1.8541 8.8945 1.1961 1.8455-0.54382 2.1342-0.55516 3.8634-0.15175l1.8689 0.43598 0.63659-0.77887c2.2453-2.7472 3.4005-3.1314 3.8658-1.2858 0.43283 1.7168 0.81017 1.9292 2.4421 1.3752 0.76978-0.26135 1.6299-0.47518 1.9114-0.47518 0.28153 0 1.4581-0.46134 2.6145-1.0252 3.657-1.783 10.513-3.2284 11.067-2.3329 0.1094 0.17701-0.34056 0.82098-0.99992 1.431-0.65935 0.61006-1.138 1.2076-1.0637 1.3278 0.2491 0.40305 9.6435 0.99365 13.09 0.82297 6.9373-0.34352 12.676-2.3765 15.533-5.5026 0.85473-0.9352 1.8204-2.2225 2.146-2.8608s0.70332-1.1604 0.83939-1.1604c0.46837 0 1.2698 1.1312 1.5689 2.2145 0.16857 0.61049 0.49008 1.0855 0.73475 1.0855 0.66973 0 2.7434-2.0117 4.2499-4.1228 0.74703-1.0469 1.5109-1.8533 1.6976-1.792 0.62127 0.20401 0.55181 2.6544-0.13585 4.7931-0.36577 1.1376-1.1927 2.8847-1.8376 3.8825s-1.1071 1.9848-1.0271 2.1933 0.83047 0.55463 1.6677 0.7692c1.6251 0.41651 1.8624 0.83659 0.97412 1.7248-1.6011 1.6011-5.6563 2.7519-9.6972 2.7519-1.6056 0-2.9904 0.11512-3.0774 0.25581s0.0358 0.51194 0.27276 0.825c1.1997 1.5849-0.16424 2.5218-3.6602 2.514-2.7943-6e-3 -7.429-0.46084-9.6168-0.94333-1.695-0.37384-2.1769-0.22894-1.5901 0.47814 0.63069 0.75994 0.0557 1.0704-1.9825 1.0704-2.696 0-5.3569-0.67652-9.1723-2.332-1.4068-0.61041-1.8046-0.67821-2.175-0.3708-0.64408 0.53454-0.56178 1.1178 0.23101 1.6373 0.72064 0.47218 5.0226 1.637 8.3157 2.2516 1.0725 0.20016 2.8525 0.55478 3.9556 0.78804 2.78 0.58788 10.271 1.1611 14.003 1.0716 6.3139-0.15142 10.802-2.5815 11.583-6.2708 0.41158-1.9461 1.2677-1.0293 1.9702 2.1099 0.21766 0.9726 0.54693 1.7151 0.76058 1.7151 0.48699 0 2.6716-2.4808 3.6446-4.1388 0.41599-0.70884 1.0647-2.2613 1.4416-3.45s0.78458-2.1612 0.90603-2.1612 0.48664 0.35604 0.81153 0.79119c0.46568 0.62373 0.58834 1.2587 0.57953 3-0.0129 2.5501-0.73254 4.8986-2.3151 7.5553-1.5594 2.6178-1.5195 2.6884 1.7346 3.0702 0.94875 0.11131 1.725 0.30464 1.725 0.42961 0 0.5717-2.9327 2.8386-4.879 3.7714-2.4754 1.1863-4.0758 1.2958-9.9649 0.68196-1.8485-0.19269-3.5806-0.26607-3.849-0.16308-0.4506 0.17292-0.45051 0.28848 1e-3 1.5071 0.26904 0.72591 0.40399 1.5418 0.29989 1.8131-0.51689 1.347-5.6761-0.0937-12.178-3.4006-2.2441-1.1414-4.384-2.1588-4.7552-2.2609-0.86615-0.23825-0.909 0.45-0.075 1.2048 1.4724 1.3326-0.13867 1.9254-3.7662 1.3859-2.6439-0.39323-4.7274-1.3736-9.0564-4.2615-2.8984-1.9336-5.3064-2.9744-6.8817-2.9744-0.38255 0-0.69555 0.0853-0.69555 0.18959 0 0.76245 1.6203 2.4398 3.7623 3.8948 2.1498 1.4603 2.5377 1.8498 2.5377 2.5483 0 1.4978-1.4258 2.3673-3.8819 2.3673h-1.4428l0.14929 2.625c0.10445 1.8365 8e-3 3.1761-0.32114 4.4597l-0.47043 1.8347 2.517 5.6305 0.014 7.5989 1.5882 1.6793c0.8735 0.9236 1.975 2.5214 2.4476 3.5506 0.98054 2.1349 1.6666 2.6846 5.2495 4.2062 3.5178 1.4939 7.198 2.1077 12.9 2.1515 8.7496 0.0671 13.673-0.2908 18.15-1.3196 13.616-3.1287 20.987-2.18 26.428 3.4011 4.1917 4.3 6.3106 9.1783 7.0091 16.137 0.34591 3.4461 0.84931 5.6343 1.7991 7.8202 0.37852 0.8712-0.32492 0.62007-2.7596-0.98521-1.2598-0.83061-2.4601-1.4451-2.6673-1.3656-0.42168 0.16182-0.3461 1.9109 0.35959 8.3216 0.45006 4.0884 1.1096 6.2637 2.5656 8.4619 1.1663 1.7608 3.9999 4.3572 6.7157 6.1534 1.155 0.76393 2.1992 1.524 2.3204 1.689 0.4656 0.63374 0.21527 2.221-0.4813 3.052-0.391 0.46641-1.2809 1.9835-1.9776 3.3713-1.412 2.8127-5.3466 12.527-5.6128 13.858-0.29744 1.4872 0.31275 1.5498 12.651 1.2983 6.105-0.12441 14.408-0.22417 18.45-0.22167 6.7647 4e-3 7.6396 0.0665 10.987 0.7823 3.4826 0.74468 7.8611 1.3321 8.8127 1.1823 0.58725-0.0924 6.6461 0.38758 13.004 1.0303 4.7948 0.48465 5.5807 0.48309 15.3-0.0304 13.405-0.70816 23.205-0.74313 27.946-0.0997 4.4664 0.60623 10.683 2.2466 13.654 3.6029 5.8548 2.6727 17.457 12.057 24.365 19.706l2.3188 2.5679 0.012 12.15h-384v-4.476z" fill="#9c2b1f"/>
<path d="m143.56 193.79c1.112-1.1577 2.4182-2.7436 2.4391-2.9408 0.88631-8.3486 8.4501-26.228 14.568-30.936l0.0572-11.955-14.413-8e-3c0.77433 1.865 0.84573 5.1869 1.0312 7.2012 0.23653 2.5682-0.33785 5.2826-1.5215 10.631-1.2902 5.8295-2.5901 9.515-5.4902 16.281-0.70723 1.65-2.4851 6.2083-2.8359 7.2422-0.54677 1.6111 0.82578 2.6052 1.5816 3.123" fill="#9f2d20" stroke="#000" stroke-width=".8"/>
<path d="m230.14 141.48c2.9047 1.7885 5.5528 2.7811 7.9726 5.1074-1.0095-1.9298-2.2398-6.0215-2.373-9.1738-0.14393-3.4039-1.4021-7.7524-2.957-10.686-1.458-2.7504-5.2455-6.5316-7.4131-7.5239-5.3629-2.4552-11.055-3.0572-22.194-0.31614-5.0687 1.2472-6.7649 1.2362-15.311 1.2522-9.5595 0.0179-12.3-0.35481-17.173-2.5027-0.9627-0.42433-3.7448-2.2768-3.7448-2.2768-1.3405-3.4156-2.7983-5.8174-5.0149-6.582 1.1453-6.3739-0.36977-10.404-2.513-13.395 1.531-4.2092 1.6587-7.689-0.35822-10.209 1.5528 0.36278 2.7006 0.54153 3.9236 0.57453 0.74463 0.0201 3.234-1.5347 2.4295-2.4643-1.6009-1.85-4.5155-1.5057-7.2255-7.1432-1.1811-2.457-3.5892-7.1412-6.7204-7.5566-1.3746-0.18239-7.9181-2.1407-8.3669-2.0297-2.0733 0.51281-3.0403 0.87475-4.1035 1.1934-3.775-1.0368-12.109-3.5639-12.4-3.2832-1.4845 1.4697-1.6726 3.8642-1.7461 6.0879 3.9034 3.5994 7.1903 6.2339 8.377 9.4941 0.6162 1.693 1.264 2.6937 2.3379 3.8281 2.3915 2.5263 3.341 3.7828 3.1484 6.5918-0.14087 2.0552-0.64332 3.1456-1.957 5.4336-2.0858 3.6327-4.291 6.6757-2.6973 8.5801-0.61119 1.1643-1.0001 1.7178-1.375 2.459-0.82563 1.6322-1.1622 3.0201-1.0912 5.2926 0.10771 3.4498 2.0209 6.055 2.0209 6.055s-0.40815 1.2358-0.89843 2.5195c-0.6654 1.7423 0.0146 5.3214 0.98828 8.4883 0.88476 2.8778 1.7722 8.2401 1.6445 10.717l2.5664-1.8184c0.86719 2.0514 1.6336 3.311 2.7891 5.123 2.9081 4.5606 7.0427 8.9589 12.572 12.754 1.3826 0.94893 2.4238 1.9272 3.5935 2.62 3.8769 2.2964 8.0413 3.4908 9.5589 3.4054 5.755-0.32355 14.68-1.8326 18.572-3.2168 1.12-0.3983 6.447-3.4458 8.8183-4.6035 3.6465-1.7802 12.775-4.6359 19.068-5.8672 5.6071-1.0971 11.501-4.6198 17.252-6.9297z" fill="#9f2d20" stroke="#000" stroke-linecap="round" stroke-width=".8"/>
<path d="m231.33 137.11c0.51597 0.45588 0.88054 10.63 1.2344 14.471 0.40463 4.392 0.57725 7.9634 5.0469 11.863 1.4241 1.2426 4.735 3.5371 6.6035 4.9043 0.5179 0.37894 0.24344 1.6888 0.0493 1.9246-2.693 3.2703-7.6131 16.005-10.063 25.767-1.9919 1.0653-3.3314 2.0734-4.6499 3.1958l-0.30392 0.30091c-1.246-0.0882-2.6614-0.90713-3.6995-1.2254 2.2e-4 -0.74329 0.0706-2.3741 0.15923-2.8964 4.2351-5.5275 6.8598-15.266 7.0586-20.965-2.0657-2.138-4.2084-4.4984-6.0566-6.0898-1.4728-1.2682-4.1696-3.417-5.4726-4.6133-1.303-1.1962-10.131-9.8053-14.033-17.52-2.5574-5.055-3.945-7.9075-3.1987-13.643" fill="#9f2d20" stroke="#000" stroke-linecap="round" stroke-width=".8"/>
<path d="m138.1 191.27c-2.4375 1.25-4.5924 4.653-4.875 5.0625-0.51042 0.73958 1.2292 0.29167 1.7812 0.34375-0.15625 0.32291-0.95171 1.2889-0.59375 1.3125 4.2427 0.27966 9.4375-1.625 9.4375-1.625 0.0794-1.4669-0.0533-2.6244-0.0533-2.6244-2.525-0.98518-4.376-0.74397-5.6967-2.4694z" fill="#a16a38"/>
<path d="m146.88 138.33c0.73095 5.0684 7.0869 14.012 9.5054 18.018 1.646 9.7976-0.61885 25.959-1.0332 28.656-0.36556 2.3793-1.0244 6.7793-0.18945 10.896 0.21816 0.74433 0.0175 1.0624 0.58027 1.5783 0.20664 0.18942 2.5685 1.6803 3.2328 1.6033 1.0944-0.12693 1.0292-1.5019 1.0292-1.5019 0.2765-1.1022 1.0218-1.9857 2.4076-3.1348-0.39811-3.6627-0.34278-5.7383-0.4355-8.332-0.0947-2.6486 1.3262-9.9262 2.377-14.053 1.6095-6.3206 5.4152-14.113 8.7656-18.4-1.1632-5.3184-1.8265-9.1992-1.4272-14.518" fill="#9f2d20" stroke="#000" stroke-linecap="round" stroke-width=".8"/>
<path d="m134.91 196.8c2.0938-2.3125 2.9375-2.8438 2.9375-2.8438" fill="none" stroke="#000" stroke-linecap="round" stroke-width=".6"/>
<path d="m155.44 196.16c-2.4375 1.25-4.8999 3.9122-5.25 4.2656-1.1042 1.1146 0.76042 0.94792 1.3125 1-0.15625 0.32292-1.233 1.1952-0.875 1.2188 6.899 0.65467 9.7188-1.4375 9.7188-1.4375-0.0769-1.4044-0.70308-3.7969-0.70308-3.7969-1.4479 0.40104-3.0677 0.19271-4.2032-1.25z" fill="#a16a38"/>
<path d="m155.38 196.18c-2.4375 1.25-4.8374 3.8966-5.1875 4.25-1.1042 1.1146 0.76042 0.94792 1.3125 1-0.15625 0.32292-1.233 1.1952-0.875 1.2188 6.899 0.65467 9.7188-1.4375 9.7188-1.4375-0.0769-1.4044-0.3437-3.8438-0.3437-3.8438" fill="none" stroke="#000" stroke-linecap="round" stroke-width=".6"/>
<path d="m151.25 201.69c2.5-2.0312 4.1875-2.9062 4.1875-2.9062" fill="none" stroke="#000" stroke-linecap="round" stroke-width=".6"/>
<g transform="translate(-7.6861 240.19)">
<g stroke="#000" stroke-width=".5">
<path d="m140.65-221.59c1.4018-1.8057 1.6672-2.772 2.5502-6.006 0.59816-2.1909 2.8571-2.2073 3.8202-0.0935 0.23095 0.50686 0.54028 0.84851 0.96134 0.79171 0.38697-0.0522 0.6944-0.47158 0.76278-2.0634 0.0668-1.5544 0.51224-2.0281 1.0695-2.3932 1.0093-0.66129 2.3988-0.0739 2.7259 1.3888 0.37285 1.6671 1.1111 2.0764 2.3696 0.16363 0.58898-0.89514 1.0185-1.1776 1.8284-1.1776 1.326 0 2.4354 1.0205 2.4354 2.3458 0 1.2268-0.22897 2.0261-2.2891 2.45-1.2676 0.26082-1.894 0.66913-1.9663 1.1776-0.0734 0.51584 0.34373 1.012 1.2402 1.1097 0.63229 0.0689 1.1135 0.34205 1.0693 0.90152-0.0763 0.96609-1.1924 1.3405-3.9977 1.0874-2.4263-0.2189-2.7081-0.12089-2.7901 0.45244-0.0545 0.38095 0.16246 1.0577 0.825 1.4273 2.6704 1.4896 0.93152 3.3332-1.5548 2.7405-1.5757-0.37563-4.7622-0.47978-6.0466-0.0986-1.5726 0.46674-2.9385 0.45998-3.727 0.18708-0.78845-0.27286-1.2036-0.85636-1.0235-1.9364 0.0884-0.53014 0.91377-1.3937 1.7375-2.4547z" fill="#007935"/>
<path transform="translate(-2.5398e-6)" d="m139.06-217.96c11.026-6.0104 13.744-8.5074 13.744-8.5074" fill="none" stroke-linecap="round"/>
<path transform="translate(-2.5398e-6)" d="m146.02-224.32c-0.44195 2.3202-0.86179 2.9168-0.86179 2.9168 1.8562 0.28726 2.3865 0.44194 2.3865 0.44194" fill="none" stroke-linecap="round"/>
<path d="m150.26-227c-0.19888 1.7899-0.33146 2.6296-0.33146 2.6296 1.37 0.22097 2.3865 0.44194 2.3865 0.44194" fill="none" stroke-linecap="round"/>
<g transform="matrix(.96177 -.27387 .27387 .96177 102.72 33.14)">
<path d="m140.65-221.59c1.4018-1.8057 1.6672-2.772 2.5502-6.006 0.59816-2.1909 2.8571-2.2073 3.8202-0.0935 0.23095 0.50686 0.54028 0.84851 0.96134 0.79171 0.38697-0.0522 0.6944-0.47158 0.76278-2.0634 0.0668-1.5544 0.51224-2.0281 1.0695-2.3932 1.0093-0.66129 2.3988-0.0739 2.7259 1.3888 0.37285 1.6671 1.1111 2.0764 2.3696 0.16363 0.58898-0.89514 1.0185-1.1776 1.8284-1.1776 1.326 0 2.4354 1.0205 2.4354 2.3458 0 1.2268-0.22897 2.0261-2.2891 2.45-1.2676 0.26082-1.894 0.66913-1.9663 1.1776-0.0734 0.51584 0.34373 1.012 1.2402 1.1097 0.63229 0.0689 1.1135 0.34205 1.0693 0.90152-0.0763 0.96609-1.1924 1.3405-3.9977 1.0874-2.4263-0.2189-2.7081-0.12089-2.7901 0.45244-0.0545 0.38095 0.16246 1.0577 0.825 1.4273 2.6704 1.4896 0.93152 3.3332-1.5548 2.7405-1.5757-0.37563-4.7622-0.47978-6.0466-0.0986-1.5726 0.46674-2.9385 0.45998-3.727 0.18708-0.78845-0.27286-1.2036-0.85636-1.0235-1.9364 0.0884-0.53014 0.91377-1.3937 1.7375-2.4547z" fill="#007935"/>
<path transform="translate(-2.5398e-6)" d="m139.06-217.96c11.026-6.0104 13.744-8.5074 13.744-8.5074" fill="none" stroke-linecap="round"/>
<path transform="translate(-2.5398e-6)" d="m146.02-224.32c-0.44195 2.3202-0.86179 2.9168-0.86179 2.9168 1.8562 0.28726 2.3865 0.44194 2.3865 0.44194" fill="none" stroke-linecap="round"/>
<path d="m150.26-227c-0.19888 1.7899-0.33146 2.6296-0.33146 2.6296 1.37 0.22097 2.3865 0.44194 2.3865 0.44194" fill="none" stroke-linecap="round"/>
</g>
<g transform="matrix(.98309 .18314 .18314 -.98309 32.276 -435)">
<path d="m140.65-221.59c1.4018-1.8057 1.6672-2.772 2.5502-6.006 0.59816-2.1909 2.8571-2.2073 3.8202-0.0935 0.23095 0.50686 0.54028 0.84851 0.96134 0.79171 0.38697-0.0522 0.6944-0.47158 0.76278-2.0634 0.0668-1.5544 0.51224-2.0281 1.0695-2.3932 1.0093-0.66129 2.3988-0.0739 2.7259 1.3888 0.37285 1.6671 1.1111 2.0764 2.3696 0.16363 0.58898-0.89514 1.0185-1.1776 1.8284-1.1776 1.326 0 2.4354 1.0205 2.4354 2.3458 0 1.2268-0.22897 2.0261-2.2891 2.45-1.2676 0.26082-1.894 0.66913-1.9663 1.1776-0.0734 0.51584 0.34373 1.012 1.2402 1.1097 0.63229 0.0689 1.1135 0.34205 1.0693 0.90152-0.0763 0.96609-1.1924 1.3405-3.9977 1.0874-2.4263-0.2189-2.7081-0.12089-2.7901 0.45244-0.0545 0.38095 0.16246 1.0577 0.825 1.4273 2.6704 1.4896 0.93152 3.3332-1.5548 2.7405-1.5757-0.37563-4.7622-0.47978-6.0466-0.0986-1.5726 0.46674-2.9385 0.45998-3.727 0.18708-0.78845-0.27286-1.2036-0.85636-1.0235-1.9364 0.0884-0.53014 0.91377-1.3937 1.7375-2.4547z" fill="#007935"/>
<path transform="translate(-2.5398e-6)" d="m139.06-217.96c11.026-6.0104 13.744-8.5074 13.744-8.5074" fill="none" stroke-linecap="round"/>
<path transform="translate(-2.5398e-6)" d="m146.02-224.32c-0.44195 2.3202-0.86179 2.9168-0.86179 2.9168 1.8562 0.28726 2.3865 0.44194 2.3865 0.44194" fill="none" stroke-linecap="round"/>
<path d="m150.26-227c-0.19888 1.7899-0.33146 2.6296-0.33146 2.6296 1.37 0.22097 2.3865 0.44194 2.3865 0.44194" fill="none" stroke-linecap="round"/>
</g>
<g transform="matrix(.92964 -.36848 .36848 .92964 191.49 41.938)">
<path d="m140.65-221.59c1.4018-1.8057 1.6672-2.772 2.5502-6.006 0.59816-2.1909 2.8571-2.2073 3.8202-0.0935 0.23095 0.50686 0.54028 0.84851 0.96134 0.79171 0.38697-0.0522 0.6944-0.47158 0.76278-2.0634 0.0668-1.5544 0.51224-2.0281 1.0695-2.3932 1.0093-0.66129 2.3988-0.0739 2.7259 1.3888 0.37285 1.6671 1.1111 2.0764 2.3696 0.16363 0.58898-0.89514 1.0185-1.1776 1.8284-1.1776 1.326 0 2.4354 1.0205 2.4354 2.3458 0 1.2268-0.22897 2.0261-2.2891 2.45-1.2676 0.26082-1.894 0.66913-1.9663 1.1776-0.0734 0.51584 0.34373 1.012 1.2402 1.1097 0.63229 0.0689 1.1135 0.34205 1.0693 0.90152-0.0763 0.96609-1.1924 1.3405-3.9977 1.0874-2.4263-0.2189-2.7081-0.12089-2.7901 0.45244-0.0545 0.38095 0.16246 1.0577 0.825 1.4273 2.6704 1.4896 0.93152 3.3332-1.5548 2.7405-1.5757-0.37563-4.7622-0.47978-6.0466-0.0986-1.5726 0.46674-2.9385 0.45998-3.727 0.18708-0.78845-0.27286-1.2036-0.85636-1.0235-1.9364 0.0884-0.53014 0.91377-1.3937 1.7375-2.4547z" fill="#007935"/>
<path transform="translate(-2.5398e-6)" d="m139.06-217.96c11.026-6.0104 13.744-8.5074 13.744-8.5074" fill="none" stroke-linecap="round"/>
<path transform="translate(-2.5398e-6)" d="m146.02-224.32c-0.44195 2.3202-0.86179 2.9168-0.86179 2.9168 1.8562 0.28726 2.3865 0.44194 2.3865 0.44194" fill="none" stroke-linecap="round"/>
<path d="m150.26-227c-0.19888 1.7899-0.33146 2.6296-0.33146 2.6296 1.37 0.22097 2.3865 0.44194 2.3865 0.44194" fill="none" stroke-linecap="round"/>
</g>
<g transform="matrix(.92534 -.37913 .37913 .92534 239.01 51.441)">
<path d="m140.65-221.59c1.4018-1.8057 1.6672-2.772 2.5502-6.006 0.59816-2.1909 2.8571-2.2073 3.8202-0.0935 0.23095 0.50686 0.54028 0.84851 0.96134 0.79171 0.38697-0.0522 0.6944-0.47158 0.76278-2.0634 0.0668-1.5544 0.51224-2.0281 1.0695-2.3932 1.0093-0.66129 2.3988-0.0739 2.7259 1.3888 0.37285 1.6671 1.1111 2.0764 2.3696 0.16363 0.58898-0.89514 1.0185-1.1776 1.8284-1.1776 1.326 0 2.4354 1.0205 2.4354 2.3458 0 1.2268-0.22897 2.0261-2.2891 2.45-1.2676 0.26082-1.894 0.66913-1.9663 1.1776-0.0734 0.51584 0.34373 1.012 1.2402 1.1097 0.63229 0.0689 1.1135 0.34205 1.0693 0.90152-0.0763 0.96609-1.1924 1.3405-3.9977 1.0874-2.4263-0.2189-2.7081-0.12089-2.7901 0.45244-0.0545 0.38095 0.16246 1.0577 0.825 1.4273 2.6704 1.4896 0.93152 3.3332-1.5548 2.7405-1.5757-0.37563-4.7622-0.47978-6.0466-0.0986-1.5726 0.46674-2.9385 0.45998-3.727 0.18708-0.78845-0.27286-1.2036-0.85636-1.0235-1.9364 0.0884-0.53014 0.91377-1.3937 1.7375-2.4547z" fill="#007935"/>
<path transform="translate(-2.5398e-6)" d="m139.06-217.96c11.026-6.0104 13.744-8.5074 13.744-8.5074" fill="none" stroke-linecap="round"/>
<path transform="translate(-2.5398e-6)" d="m146.02-224.32c-0.44195 2.3202-0.86179 2.9168-0.86179 2.9168 1.8562 0.28726 2.3865 0.44194 2.3865 0.44194" fill="none" stroke-linecap="round"/>
<path d="m150.26-227c-0.19888 1.7899-0.33146 2.6296-0.33146 2.6296 1.37 0.22097 2.3865 0.44194 2.3865 0.44194" fill="none" stroke-linecap="round"/>
</g>
<g transform="matrix(.32145 .94693 -.94693 .32145 18.582 -255.28)">
<path d="m140.65-221.59c1.4018-1.8057 1.6672-2.772 2.5502-6.006 0.59816-2.1909 2.8571-2.2073 3.8202-0.0935 0.23095 0.50686 0.54028 0.84851 0.96134 0.79171 0.38697-0.0522 0.6944-0.47158 0.76278-2.0634 0.0668-1.5544 0.51224-2.0281 1.0695-2.3932 1.0093-0.66129 2.3988-0.0739 2.7259 1.3888 0.37285 1.6671 1.1111 2.0764 2.3696 0.16363 0.58898-0.89514 1.0185-1.1776 1.8284-1.1776 1.326 0 2.4354 1.0205 2.4354 2.3458 0 1.2268-0.22897 2.0261-2.2891 2.45-1.2676 0.26082-1.894 0.66913-1.9663 1.1776-0.0734 0.51584 0.34373 1.012 1.2402 1.1097 0.63229 0.0689 1.1135 0.34205 1.0693 0.90152-0.0763 0.96609-1.1924 1.3405-3.9977 1.0874-2.4263-0.2189-2.7081-0.12089-2.7901 0.45244-0.0545 0.38095 0.16246 1.0577 0.825 1.4273 2.6704 1.4896 0.93152 3.3332-1.5548 2.7405-1.5757-0.37563-4.7622-0.47978-6.0466-0.0986-1.5726 0.46674-2.9385 0.45998-3.727 0.18708-0.78845-0.27286-1.2036-0.85636-1.0235-1.9364 0.0884-0.53014 0.91377-1.3937 1.7375-2.4547z" fill="#007935"/>
<path transform="translate(-2.5398e-6)" d="m139.06-217.96c11.026-6.0104 13.744-8.5074 13.744-8.5074" fill="none" stroke-linecap="round"/>
<path transform="translate(-2.5398e-6)" d="m146.02-224.32c-0.44195 2.3202-0.86179 2.9168-0.86179 2.9168 1.8562 0.28726 2.3865 0.44194 2.3865 0.44194" fill="none" stroke-linecap="round"/>
<path d="m150.26-227c-0.19888 1.7899-0.33146 2.6296-0.33146 2.6296 1.37 0.22097 2.3865 0.44194 2.3865 0.44194" fill="none" stroke-linecap="round"/>
</g>
<g transform="matrix(.731 -.68238 -.68238 -.731 19.69 -226.14)">
<path d="m140.65-221.59c1.4018-1.8057 1.6672-2.772 2.5502-6.006 0.59816-2.1909 2.8571-2.2073 3.8202-0.0935 0.23095 0.50686 0.54028 0.84851 0.96134 0.79171 0.38697-0.0522 0.6944-0.47158 0.76278-2.0634 0.0668-1.5544 0.51224-2.0281 1.0695-2.3932 1.0093-0.66129 2.3988-0.0739 2.7259 1.3888 0.37285 1.6671 1.1111 2.0764 2.3696 0.16363 0.58898-0.89514 1.0185-1.1776 1.8284-1.1776 1.326 0 2.4354 1.0205 2.4354 2.3458 0 1.2268-0.22897 2.0261-2.2891 2.45-1.2676 0.26082-1.894 0.66913-1.9663 1.1776-0.0734 0.51584 0.34373 1.012 1.2402 1.1097 0.63229 0.0689 1.1135 0.34205 1.0693 0.90152-0.0763 0.96609-1.1924 1.3405-3.9977 1.0874-2.4263-0.2189-2.7081-0.12089-2.7901 0.45244-0.0545 0.38095 0.16246 1.0577 0.825 1.4273 2.6704 1.4896 0.93152 3.3332-1.5548 2.7405-1.5757-0.37563-4.7622-0.47978-6.0466-0.0986-1.5726 0.46674-2.9385 0.45998-3.727 0.18708-0.78845-0.27286-1.2036-0.85636-1.0235-1.9364 0.0884-0.53014 0.91377-1.3937 1.7375-2.4547z" fill="#007935"/>
<path transform="translate(-2.5398e-6)" d="m139.06-217.96c11.026-6.0104 13.744-8.5074 13.744-8.5074" fill="none" stroke-linecap="round"/>
<path transform="translate(-2.5398e-6)" d="m146.02-224.32c-0.44195 2.3202-0.86179 2.9168-0.86179 2.9168 1.8562 0.28726 2.3865 0.44194 2.3865 0.44194" fill="none" stroke-linecap="round"/>
<path d="m150.26-227c-0.19888 1.7899-0.33146 2.6296-0.33146 2.6296 1.37 0.22097 2.3865 0.44194 2.3865 0.44194" fill="none" stroke-linecap="round"/>
</g>
<g transform="matrix(.43822 -.89887 -.89887 -.43822 23.853 -105.28)">
<path d="m140.65-221.59c1.4018-1.8057 1.6672-2.772 2.5502-6.006 0.59816-2.1909 2.8571-2.2073 3.8202-0.0935 0.23095 0.50686 0.54028 0.84851 0.96134 0.79171 0.38697-0.0522 0.6944-0.47158 0.76278-2.0634 0.0668-1.5544 0.51224-2.0281 1.0695-2.3932 1.0093-0.66129 2.3988-0.0739 2.7259 1.3888 0.37285 1.6671 1.1111 2.0764 2.3696 0.16363 0.58898-0.89514 1.0185-1.1776 1.8284-1.1776 1.326 0 2.4354 1.0205 2.4354 2.3458 0 1.2268-0.22897 2.0261-2.2891 2.45-1.2676 0.26082-1.894 0.66913-1.9663 1.1776-0.0734 0.51584 0.34373 1.012 1.2402 1.1097 0.63229 0.0689 1.1135 0.34205 1.0693 0.90152-0.0763 0.96609-1.1924 1.3405-3.9977 1.0874-2.4263-0.2189-2.7081-0.12089-2.7901 0.45244-0.0545 0.38095 0.16246 1.0577 0.825 1.4273 2.6704 1.4896 0.93152 3.3332-1.5548 2.7405-1.5757-0.37563-4.7622-0.47978-6.0466-0.0986-1.5726 0.46674-2.9385 0.45998-3.727 0.18708-0.78845-0.27286-1.2036-0.85636-1.0235-1.9364 0.0884-0.53014 0.91377-1.3937 1.7375-2.4547z" fill="#007935"/>
<path transform="translate(-2.5398e-6)" d="m139.06-217.96c11.026-6.0104 13.744-8.5074 13.744-8.5074" fill="none" stroke-linecap="round"/>
<path transform="translate(-2.5398e-6)" d="m146.02-224.32c-0.44195 2.3202-0.86179 2.9168-0.86179 2.9168 1.8562 0.28726 2.3865 0.44194 2.3865 0.44194" fill="none" stroke-linecap="round"/>
<path d="m150.26-227c-0.19888 1.7899-0.33146 2.6296-0.33146 2.6296 1.37 0.22097 2.3865 0.44194 2.3865 0.44194" fill="none" stroke-linecap="round"/>
</g>
<g transform="matrix(.76508 .64393 .64393 -.76508 327.27 -372.78)">
<path d="m140.65-221.59c1.4018-1.8057 1.6672-2.772 2.5502-6.006 0.59816-2.1909 2.8571-2.2073 3.8202-0.0935 0.23095 0.50686 0.54028 0.84851 0.96134 0.79171 0.38697-0.0522 0.6944-0.47158 0.76278-2.0634 0.0668-1.5544 0.51224-2.0281 1.0695-2.3932 1.0093-0.66129 2.3988-0.0739 2.7259 1.3888 0.37285 1.6671 1.1111 2.0764 2.3696 0.16363 0.58898-0.89514 1.0185-1.1776 1.8284-1.1776 1.326 0 2.4354 1.0205 2.4354 2.3458 0 1.2268-0.22897 2.0261-2.2891 2.45-1.2676 0.26082-1.894 0.66913-1.9663 1.1776-0.0734 0.51584 0.34373 1.012 1.2402 1.1097 0.63229 0.0689 1.1135 0.34205 1.0693 0.90152-0.0763 0.96609-1.1924 1.3405-3.9977 1.0874-2.4263-0.2189-2.7081-0.12089-2.7901 0.45244-0.0545 0.38095 0.16246 1.0577 0.825 1.4273 2.6704 1.4896 0.93152 3.3332-1.5548 2.7405-1.5757-0.37563-4.7622-0.47978-6.0466-0.0986-1.5726 0.46674-2.9385 0.45998-3.727 0.18708-0.78845-0.27286-1.2036-0.85636-1.0235-1.9364 0.0884-0.53014 0.91377-1.3937 1.7375-2.4547z" fill="#007935"/>
<path transform="translate(-2.5398e-6)" d="m139.06-217.96c11.026-6.0104 13.744-8.5074 13.744-8.5074" fill="none" stroke-linecap="round"/>
<path transform="translate(-2.5398e-6)" d="m146.02-224.32c-0.44195 2.3202-0.86179 2.9168-0.86179 2.9168 1.8562 0.28726 2.3865 0.44194 2.3865 0.44194" fill="none" stroke-linecap="round"/>
<path d="m150.26-227c-0.19888 1.7899-0.33146 2.6296-0.33146 2.6296 1.37 0.22097 2.3865 0.44194 2.3865 0.44194" fill="none" stroke-linecap="round"/>
</g>
<g transform="matrix(-.22199 .97505 -.97505 -.22199 71.543 -304.02)">
<path d="m140.65-221.59c1.4018-1.8057 1.6672-2.772 2.5502-6.006 0.59816-2.1909 2.8571-2.2073 3.8202-0.0935 0.23095 0.50686 0.54028 0.84851 0.96134 0.79171 0.38697-0.0522 0.6944-0.47158 0.76278-2.0634 0.0668-1.5544 0.51224-2.0281 1.0695-2.3932 1.0093-0.66129 2.3988-0.0739 2.7259 1.3888 0.37285 1.6671 1.1111 2.0764 2.3696 0.16363 0.58898-0.89514 1.0185-1.1776 1.8284-1.1776 1.326 0 2.4354 1.0205 2.4354 2.3458 0 1.2268-0.22897 2.0261-2.2891 2.45-1.2676 0.26082-1.894 0.66913-1.9663 1.1776-0.0734 0.51584 0.34373 1.012 1.2402 1.1097 0.63229 0.0689 1.1135 0.34205 1.0693 0.90152-0.0763 0.96609-1.1924 1.3405-3.9977 1.0874-2.4263-0.2189-2.7081-0.12089-2.7901 0.45244-0.0545 0.38095 0.16246 1.0577 0.825 1.4273 2.6704 1.4896 0.93152 3.3332-1.5548 2.7405-1.5757-0.37563-4.7622-0.47978-6.0466-0.0986-1.5726 0.46674-2.9385 0.45998-3.727 0.18708-0.78845-0.27286-1.2036-0.85636-1.0235-1.9364 0.0884-0.53014 0.91377-1.3937 1.7375-2.4547z" fill="#007935"/>
<path transform="translate(-2.5398e-6)" d="m139.06-217.96c11.026-6.0104 13.744-8.5074 13.744-8.5074" fill="none" stroke-linecap="round"/>
<path transform="translate(-2.5398e-6)" d="m146.02-224.32c-0.44195 2.3202-0.86179 2.9168-0.86179 2.9168 1.8562 0.28726 2.3865 0.44194 2.3865 0.44194" fill="none" stroke-linecap="round"/>
<path d="m150.26-227c-0.19888 1.7899-0.33146 2.6296-0.33146 2.6296 1.37 0.22097 2.3865 0.44194 2.3865 0.44194" fill="none" stroke-linecap="round"/>
</g>
<g transform="matrix(-.95312 -.3026 .3026 -.95312 450.75 -299.71)">
<path d="m140.65-221.59c1.4018-1.8057 1.6672-2.772 2.5502-6.006 0.59816-2.1909 2.8571-2.2073 3.8202-0.0935 0.23095 0.50686 0.54028 0.84851 0.96134 0.79171 0.38697-0.0522 0.6944-0.47158 0.76278-2.0634 0.0668-1.5544 0.51224-2.0281 1.0695-2.3932 1.0093-0.66129 2.3988-0.0739 2.7259 1.3888 0.37285 1.6671 1.1111 2.0764 2.3696 0.16363 0.58898-0.89514 1.0185-1.1776 1.8284-1.1776 1.326 0 2.4354 1.0205 2.4354 2.3458 0 1.2268-0.22897 2.0261-2.2891 2.45-1.2676 0.26082-1.894 0.66913-1.9663 1.1776-0.0734 0.51584 0.34373 1.012 1.2402 1.1097 0.63229 0.0689 1.1135 0.34205 1.0693 0.90152-0.0763 0.96609-1.1924 1.3405-3.9977 1.0874-2.4263-0.2189-2.7081-0.12089-2.7901 0.45244-0.0545 0.38095 0.16246 1.0577 0.825 1.4273 2.6704 1.4896 0.93152 3.3332-1.5548 2.7405-1.5757-0.37563-4.7622-0.47978-6.0466-0.0986-1.5726 0.46674-2.9385 0.45998-3.727 0.18708-0.78845-0.27286-1.2036-0.85636-1.0235-1.9364 0.0884-0.53014 0.91377-1.3937 1.7375-2.4547z" fill="#007935"/>
<path transform="translate(-2.5398e-6)" d="m139.06-217.96c11.026-6.0104 13.744-8.5074 13.744-8.5074" fill="none" stroke-linecap="round"/>
<path transform="translate(-2.5398e-6)" d="m146.02-224.32c-0.44195 2.3202-0.86179 2.9168-0.86179 2.9168 1.8562 0.28726 2.3865 0.44194 2.3865 0.44194" fill="none" stroke-linecap="round"/>
<path d="m150.26-227c-0.19888 1.7899-0.33146 2.6296-0.33146 2.6296 1.37 0.22097 2.3865 0.44194 2.3865 0.44194" fill="none" stroke-linecap="round"/>
</g>
<g transform="matrix(.12495 .99216 .99216 -.12495 435.82 -331.97)">
<path d="m140.65-221.59c1.4018-1.8057 1.6672-2.772 2.5502-6.006 0.59816-2.1909 2.8571-2.2073 3.8202-0.0935 0.23095 0.50686 0.54028 0.84851 0.96134 0.79171 0.38697-0.0522 0.6944-0.47158 0.76278-2.0634 0.0668-1.5544 0.51224-2.0281 1.0695-2.3932 1.0093-0.66129 2.3988-0.0739 2.7259 1.3888 0.37285 1.6671 1.1111 2.0764 2.3696 0.16363 0.58898-0.89514 1.0185-1.1776 1.8284-1.1776 1.326 0 2.4354 1.0205 2.4354 2.3458 0 1.2268-0.22897 2.0261-2.2891 2.45-1.2676 0.26082-1.894 0.66913-1.9663 1.1776-0.0734 0.51584 0.34373 1.012 1.2402 1.1097 0.63229 0.0689 1.1135 0.34205 1.0693 0.90152-0.0763 0.96609-1.1924 1.3405-3.9977 1.0874-2.4263-0.2189-2.7081-0.12089-2.7901 0.45244-0.0545 0.38095 0.16246 1.0577 0.825 1.4273 2.6704 1.4896 0.93152 3.3332-1.5548 2.7405-1.5757-0.37563-4.7622-0.47978-6.0466-0.0986-1.5726 0.46674-2.9385 0.45998-3.727 0.18708-0.78845-0.27286-1.2036-0.85636-1.0235-1.9364 0.0884-0.53014 0.91377-1.3937 1.7375-2.4547z" fill="#007935"/>
<path transform="translate(-2.5398e-6)" d="m139.06-217.96c11.026-6.0104 13.744-8.5074 13.744-8.5074" fill="none" stroke-linecap="round"/>
<path transform="translate(-2.5398e-6)" d="m146.02-224.32c-0.44195 2.3202-0.86179 2.9168-0.86179 2.9168 1.8562 0.28726 2.3865 0.44194 2.3865 0.44194" fill="none" stroke-linecap="round"/>
<path d="m150.26-227c-0.19888 1.7899-0.33146 2.6296-0.33146 2.6296 1.37 0.22097 2.3865 0.44194 2.3865 0.44194" fill="none" stroke-linecap="round"/>
</g>
</g>
<g stroke="#000">
<path d="m61.105-215.56c0.3892 1.2445 1.056 2.9929 2.1641 5.8492 0.70414 1.815 1.8912 5.2579 2.6367 7.6504 1.1404 3.6598 1.2971 4.7661 1.3867 6.959 0.08621 2.1092 0.06424 3.0543-0.4289 3.8048-0.48793-0.40646-1.0405-0.73094-2.2371-1.5118-0.9452-0.61679-1.3554-1.1559-2.2109-1.5332-0.77981 1.3068-1.0554 2.5736-1.4551 3.4629 0.95851 1.0352 3.7894 4.7173 4.8223 6.666 0.924 1.7434 1.2943 2.4084 0.30078 6.0644-0.37359 1.3747-0.77268 3.6238-0.75977 6.0938 0.01542 2.9508 0.28631 3.9174 1.4648 7.793 1.5848 5.2118 2.9708 11.647 3.3281 15.451 0.61257 6.522-0.74501 15.183-2.6875 17.475-1.1797-0.55847-1.7484-0.86053-3.1172-1.5449-1.3688-0.68439-2.8885-1.4748-3.4551-1.5664-0.95566-0.15447-1.1014-0.0662-2.0059 1.2188-0.53625 0.76186-0.84961 1.1848-1.2871 1.6094 0.375 0.83086 0.77502 1.493 1.3418 2.5098s1.9175 3.5734 2.6953 5.7793c0.93268 2.645 2.1941 4.3883 2.7637 5.3281 2.3712 3.9125 4.8228 10.197 6.3906 16.377 1.9427 7.6575 2.0614 16.635 0.33984 25.715-0.31285 1.65-0.85876 4.9571-1.2129 7.3496-1.004 6.7831-1.4235 8.7273-2.2207 9.7266-3.7106 4.6511-6.2452 7.3411-10.579 10.979 2.0087-0.12297 5.0977-0.1052 6.7575-0.04639-1.5793 2.8683-4.8671 6.4926-6.518 8.6492 3.8926 0.3937 4.9166 0.56261 7.6113 0.06446 2.0524-0.3794 4.0845-1.3053 6.5938-3.1367 5.3174-3.8811 10.401-5.9085 11.09-6.127 0.16282 0.38188 0.31796 0.9425 0.46094 1.2969 0.32941 1.0395 0.78877 2.0427 1.3379 2.9219 1.567 2.5089 10.574 10.384 11.477 10.037 0.21293-0.0817 1.5668-0.95856 3.0098-1.9492 4.6929-3.2217 8.0999-6.843 8.8203-8.4219 0.56347-1.235 0.5827-2.477 0.69924-4.0763 0.70293 0 4.3306 2.6193 6.6133 4.6582 1.1502 1.0274 3.1674 2.5486 4.4922 3.3652 1.9524 1.2036 2.443 1.3948 4.0938 1.3184 5.075-0.23509 9.5959 0.14873 13.279 1.5899-0.50886-1.6794-2.56-5.0087-4.8242-7.9375-1.2888-1.6672-2.9629-3.6933-2.9629-3.9844 2.0516-0.87182 2.9977-0.97996 4.9512-1.1484 0.65757-0.05671 1.7146-0.24134 2.6465-0.37891-1.0204-0.83195-2.4388-2.161-3.6406-3.1074-3.2708-2.3975-7.9636-7.8859-9.8027-10.725-0.36404-0.5619-0.63823-1.811-0.73633-2.7012-0.85832-7.7857-1.4926-11.257-3.4883-19.115l-1.2564-4.5957 1.315-2.9043c0.67395-1.5968 1.7007-4.1844 2.2832-5.752 1.0238-2.7554 1.0473-2.9102 0.70313-4.6504-0.1958-0.99-1.0772-3.4883-1.959-5.5508s-2.7818-5.9076-3.8445-8.3826c-2.2162-5.1614-2.9831-7.4117-3.9914-15.821-0.82501-6.88-1.4014-11.145-0.66583-13.083 1.5618-4.1162 5.411-10.264 7.9943-13.619 0.53794-0.51118-0.46367-1.587-1.916-2.7236-0.4959-0.3881-4.4236 2.3672-7.2586 4.1151 0.10293-1.2055 0.22825-2.256 0.6969-4.2711 0.25352-1.0901 0.35614-1.8414 0.60034-2.914 0.95281-4.1846 0.97083-5.6348-0.57962-9.7227-1.9638-5.1777-1.7659-6.5371 4.1226-16.377 2.252-3.7631 3.5239-5.6231 4.543-5.8789 0.73432-0.1843 3.0863 0.64373 5.192 1.8728 2.5142 1.4675 5.184 3.9456 3.141-1.8947-0.32361-0.92509-1.7399-1.8943-1.2279-2.1262 0.9638-0.43656 5.7858-0.90412 9.391-0.6428 6.3069 0.45713 16.891 3.0093 25.051 5.5449 2.2986 0.71427 3.4788 1.4544 4.6489 1.8943 2.3378-0.63051 2.9693-0.85459 4.3531-1.3025 3.3643-1.0891 10.544-2.7714 14.248-3.3379 4.3155-0.65994 12.66-1.1222 17.59-0.40113 6.076 0.88869 14.947 2.6873 16.189 3.7664 0.26428 0.22954 1.3136 1.7306 2.3301 3.336 2.2006 3.4754 4.7676 7.5328 6.1645 9.209 5.1138 6.136 7.7646 9.5749 9.3784 13.139 0.52904 1.1682 0.76594 1.8146 0.77652 2.7774 0.56228-0.84468 0.81772-1.7177 1.1063-2.7969 0.18978-0.70974 0.093-1.1417 0.32368-1.8931 0.45171 0.26505 1.8104 1.1493 3.5098 2.2115 4.2832 2.6771 9.5107 5.5255 12.539 6.8301 2.3527 1.0135 3.0681 1.2238 3.9693 2.7109 1.1424 1.8852 2.8527 6.2078 3.5508 8.9726 0.45815 1.8145 0.53754 2.076-0.0312 3.5996-1.5686 4.202-4.0252 8.493-7.4915 12.348l-1.0759 1.1469-0.89947 3.511c-0.38525 3.2507-8e-3 8.8861 0.51785 9.7892 0.26406 0.45336 0.0413-1.2164 0.0493-1.8891 0.79193-2.834 1.1539-3.5547 2.0559-5.072 2.3892-4.0189 6.3018-7.9147 9.918-9.7383 1.1558-0.58285 1.7066-0.48196 2.1797-1.9883 0 0 0.25789-0.98809 0.75598-1.7572 0.79133 1.5303 6.0751 8.4993 8.4208 10.727 1.2281 1.1665 3.3896 2.4869 4.3692 3.0405 3.255 1.8396 5.3193 3.3115 8.0674 6.2395 1.4963 1.5943 3.1002 3.4524 3.7444 3.8113-0.60654-1.0859-1.9107-4.1726-3.7034-6.909-1.3792-2.1052-4.7107-6.2299-6.4826-8.1972-0.52014-0.5775-2.0907-1.895-2.3624-2.1666-2.8374-2.8351-4.9127-5.1762-5.6652-6.8824-0.333-0.75501-0.89166-2.2462-1.5893-3.8457-1.9495-4.4696-4.7743-10.192-6.1309-12.418-0.67317-1.1047-0.82686-1.6118-1.534-2.3066 1.4832-0.55417 2.6176-0.98376 4.5105-1.6523l-4.6382-2.0742c-3.7691-1.8089-6.5283-3.3557-15.85-9.8826-4.2136-2.9502-9.0014-6.01-10.816-7.1494-4.8256-3.0298-5.9775-3.7877-9.0132-9.6712-1.4372-2.7855-3.6429-8.9973-3.5254-9.8194 4.4534-1.67 9.5399-2.7629 15.002-2.7643 2.3416-6.1e-4 6.3684 1.2533 18.279 5.6914 4.7053 1.7532 10.416 3.2074 11.003 2.9822 0.16218-0.0521 0.73828-0.26895 1.1621-0.41602 4.3318-1.8976 11.654-5.6821 13.076-7.666-0.96684 0.42917-2.3479 0.84054-4.0527 1.2383-10.833 2.5273-12.067 2.1187-23.109-2.7949-2.4487-1.0896-5.5491-2.4671-6.8691-3.0059-3.2188-1.3136-8.2532-3.2743-9.3945-4.0918-0.14933-0.87558-1.0098-0.58158-1.1641-0.43554-0.14959 0.14157-1.9277-0.0263-3.9902 0.16406-2.0625 0.19032-5.8938 0.81631-8.7812 1.3144-11.761 2.029-11.957 1.9637-13.426 2.2363 0.46875-0.58182 1.1754-1.8573 1.5039-2.4141 0.9899-1.6778 1.7956-4.3756 2.4297-8.1328 0.33051-1.9585 0.29165-2.2767 0.46875-3.4746-1.3093 1.622-1.3798 1.4686-2.2383 2.3594-3.671 3.8092-4.4659 4.5305-11.908 7.5156-12.081 4.8457-18.013 6.5203-26.957 5.252-3.9356-0.55811-5.7397-0.95501-7.6426-1.1719 4.9494-4.2813 7.5641-6.5336 7.1074-6.9902-0.24793-0.24793-1.1649-0.82346-1.9609-0.89649-1.198-0.10989-2.0748 0.0722-5.0098 1.252-8.5132 3.422-8.2824 3.8175-21.336 0.78711-1.9709-0.45754-5.0854-1.0482-6.9004-1.25s-3.5428-0.12666-4.5312-0.19141c1.0062-1.0426 1.3375-1.6608 1.9316-2.6504l-0.90235 0.0547c-0.5487 0.0984-1.8767 0.59586-2.9492 0.83984-2.5638 0.58326-8.6715 1.0756-10.756 0.7793-3.55-0.50475-6.5598-1.7723-11.537-6.3809-0.55056-0.50976-0.89454-0.75391-1.7012-1.1465-10.569 6.3024-30.021 3.6858-49.576 8.1233z" fill="#75391c" stroke-width=".8"/>
<path d="m86.205-210.12c6.2895-0.43828 11.22-2.9442 19.359-8.0043 4.0234-2.5016 5.0385-4.0499 4.8888-5.6194-0.29798-0.48213-4.9079-0.10518-10.06 1.1705l-4.1208 0.80068-2.9513-0.42243c-1.4607-0.20908-3.7651-0.8061-5.1416-1.1986-1.3766-0.39253-3.5154-0.94157-4.7529-1.2201s-2.9925-0.71031-3.9-0.95951c-3.7491-1.0295-4.7615-1.2348-7.0582-1.4314-5.3832-0.46076-9.904 1.5817-11.339 5.0224-0.48141 1.1542-0.6042 4.3647-0.27761 5.9976 0.4145 2.0725 3.9259 4.5689 7.1235 5.4299 3.2855 0.88468 12.456 0.83716 18.23 0.43479z" fill="#c2531b"/>
<g fill="none" stroke-linecap="round" stroke-width=".8">
<path d="m122.95-65.136c1.1785 5.6274 2.6222 11.52 6.1872 15.822"/>
<path d="m105.98-54.529c0.91335 1.5321 1.9593 3.3735 2.4749 5.922"/>
<path d="m85.206-53.513c-0.96332 1.5571-1.9978 3.1497-2.5633 5.0381"/>
<path d="m68.033-59.07c-0.33007 2.8577-2.6218 8.5541-4.2766 11.336"/>
<path d="m72.206-128.75c-1.7375-0.79822-2.8113-1.3109-5.0004-2.6355"/>
<path d="m70.412-188.42c-1.3937-0.95447-2.03-1.5296-3.6879-2.9168"/>
<path d="m110.55-159.88c-0.79996 0.70178-1.4675 1.3766-2.5316 2.3332"/>
<path d="m119.93-199.01c-2.925-0.64197-6.3113-1.0609-9.1254-1.0105"/>
<path d="m136.8-215.37c-0.33121 0.35803-1.155 1.0016-1.6254 1.3645"/>
<path d="m213.58-207.9c-0.58121 0.48303-1.28 1.0016-2.0629 1.302"/>
<path d="m238.37-173.14c0.0779 0.63512 0.0631 1.1664 0.0758 1.5598"/>
<path d="m265.13-159.95c-0.52464 0.0779-0.98963 0.21778-1.3168 0.34096"/>
<path d="m268.08-142.12c5.6e-4 0.36995-0.0474 0.8018-0.0347 1.1952"/>
</g>
</g>
<path d="m165.48-164.09c5.2918-0.0459 8.5403 3.0097 10.231 4.1322 2.0547 1.3644 4.4621 2.5826 5.5693 3.0258 2.3222 0.92965 4.9081 1.3156 6.2176 0.67405 1.0798-0.52899-1.8424-2.4725-2.1561-3.4066-0.30418-0.90598 6.6671 2.7025 8.5108 3.6816 4.2554 2.2598 6.1904 2.67 9.1266 3.4687 0.54634 0.14862 1.2024-0.0588 1.3871-0.53152 0.29479-0.7544-1.1761-2.597-2.1079-3.4959-0.67655-0.65271 6.6054 0.34193 9.7798 0.49396 2.4257 0.1876 3.9454 0.44949 6.5088-1.0212 2.1767-1.4223 3.0231-2.1031 4.1601-3.3438-0.75625-2e-3 -4.4855-0.0491-5.9917-0.55472-0.11295-0.0379 0.40941-0.29178 0.65104-0.58767 0.93487-1.1448 3.5323-3.9326 4.2095-9.1482 0.23788-1.8322 0.0288-2.524-0.97935-4.1016-0.82351 4.5003-3.6084 8.6043-7.1205 10.99 0.0686-2.8134-0.48475-4.5572-1.1144-5.9231-0.53185 8.41-14.669 9.1286-36.919 3.6558-0.9997-0.24589-2.8126-0.95599-2.8755-2.2766-0.08-1.6795 3.7257-0.8181 3.6875-1.875-0.0452-1.251-4.3463-1.7337-8.875 0.0312-1.4167 0.55208-2.2083 0.97917-4.4375 1.375-1.4551 0.25838-1.9337 4.7762 2.5386 4.7374z" fill="#a16a38" opacity=".99" stroke="#000" stroke-width=".8"/>
<path d="m213.69-163.96c-0.98873 0.81569-1.9018 1.2311-3.125 1.9375" fill="none" stroke="#000" stroke-linecap="round" stroke-width=".8"/>
<path d="m155.82-167.86c-0.92854 1.0637-1.7025 2.2691-1.5299 3.2385 1.5445-0.64464 2.9843-0.38444 4.9453 0.30702-0.45539-1.1818-1.789-2.6889-3.4154-3.5455z" fill="#ffd100"/>
<path transform="translate(-2.5398e-6)" d="m150.31-169.81c7.4488 1.3011 9.0101 5.5947 9.0101 5.5947" fill="none" stroke="#000" stroke-linecap="round" stroke-width=".8"/>
<path d="m155.82-167.86c-1.0261 0.86853-1.7025 2.2691-1.5299 3.2385 1.5445-0.64464 2.9843-0.38444 4.9453 0.30702" fill="none" stroke="#000" stroke-linecap="round" stroke-width=".8"/>
<path transform="translate(-2.5398e-6)" d="m156.78-167.21c-0.91077 1.236-0.81319 2.1793-0.81319 2.1793" fill="none" stroke="#000" stroke-width=".55"/>
<path d="m134.33-175.47 0.66291 0.97227" fill="none" stroke="#000" stroke-linecap="round" stroke-width="1px"/>
<path d="m133.18-173.79c1.2087 0.91376 2.112 1.5913 2.961 2.3423" fill="none" stroke="#000" stroke-linecap="round" stroke-width=".6"/>
<path d="m157.57-155.3c-0.0766-1e-3 -0.15181 0.02-0.2168 0.0605-2.5797 1.5416-4.345 2.1177-6.1035 2.0176s-4.6302-0.96824-7.168-2.5156c0.72262 0.83324 2.0819 3.2338 2.6094 4.8691 0.0847-1.1338-0.7212-3.3468 1.0959-2.4908 1.2573 0.59228 1.852 0.8087 3.5408 0.90483 1.9473 0.11084 3.2861-0.32876 5.9356-1.9121 0.35054-0.20313 0.71171-0.9263 0.30664-0.9336z" color="#000000" color-rendering="auto" fill-rule="evenodd" image-rendering="auto" shape-rendering="auto" solid-color="#000000" style="block-progression:tb;isolation:auto;mix-blend-mode:normal;text-decoration-color:#000000;text-decoration-line:none;text-decoration-style:solid;text-indent:0;text-transform:none;white-space:normal"/>
<path d="m165.17-159.43c1.5759 0.99968 1.9117 1.1661 2.4902 1.3887 0.40777 0.15685 0.70034 0.15672 0.53517 0.0566-0.0533-0.0323-0.21208-0.1253-0.33983-0.21094-0.35378-0.23715-1.0097-0.71381-2.3457-1.7285-0.37725-0.28653-0.62872 0.31093-0.33986 0.49417z" color="#000000" color-rendering="auto" fill-rule="evenodd" image-rendering="auto" shape-rendering="auto" solid-color="#000000" style="block-progression:tb;isolation:auto;mix-blend-mode:normal;text-decoration-color:#000000;text-decoration-line:none;text-decoration-style:solid;text-indent:0;text-transform:none;white-space:normal"/>
<path d="m161.79-157.62c1.5148 2.0838 2.7024 2.3917 4.8809 3.0058 0.51432 0.14583 0.73306-0.62565 0.21874-0.77148-2.1444-0.60458-3.4457-0.99886-4.7676-2.7988-0.26397-0.35944-0.66575 0.10539-0.33203 0.56447z" color="#000000" color-rendering="auto" fill-rule="evenodd" image-rendering="auto" shape-rendering="auto" solid-color="#000000" style="block-progression:tb;isolation:auto;mix-blend-mode:normal;text-decoration-color:#000000;text-decoration-line:none;text-decoration-style:solid;text-indent:0;text-transform:none;white-space:normal"/>
<path d="m146.77-140.26c-1.188 1.463-4.4301 3.5188-4.9857 4.5178" fill="none" stroke="#000" stroke-linecap="round" stroke-width=".8"/>
<path d="m145.67-127.31c-0.71128 1.7453-3.528 4.5768-4.6128 6.2567" fill="none" stroke="#000" stroke-linecap="round" stroke-width=".8"/>
<path d="m147.7-105.53c-0.14116 1.713-1.2739 2.5501-2.2357 3.721" fill="none" stroke="#000" stroke-linecap="round" stroke-width=".8"/>
<path d="m167.09-144.86c-0.90496 2.2438-2.9639 4.6433-3.2932 9.0667" fill="none" stroke="#000" stroke-linecap="round" stroke-width=".8"/>
<path d="m169.6-131.28c-0.69084 1.916-0.62947 6.7596 0.0414 7.5341" fill="none" stroke="#000" stroke-linecap="round" stroke-width=".8"/>
<path d="m174.59-124.82c0.40237 1.5195 0.71251 2.5961 1.8662 4.0134" fill="none" stroke="#000" stroke-linecap="round" stroke-width=".8"/>
</g>
<path d="m196.65 191.69c-3.3731 0.98903-6.5396 4.241-6.0398 4.6366 0.34356 0.36438 0.99944 0.22904 1.7178 0.15616 0.12493 0.35397 0.34356 1.2389 0.81205 1.1556 3.1128-0.33315 4.8202-0.32273 7.2772-1.0931 0.5726-0.16657 0.14935-1.7978-0.49617-3.1512" fill="#a16a38" fill-rule="evenodd"/>
<path d="m196.83 191.45c-3.3731 0.98903-6.7192 4.4831-6.2195 4.8788 0.34356 0.36438 0.99944 0.22904 1.7178 0.15616 0.12493 0.35397 0.34356 1.2389 0.81205 1.1556 3.1128-0.33315 4.8202-0.32273 7.2772-1.0931 0.5726-0.16657 0.17279-1.6962-0.47273-3.0496" fill="none" stroke="#000" stroke-linecap="round" stroke-width=".6"/>
<path d="m195.17 194.33c-1.2389 0.64548-1.8219 1.2285-2.686 2.3112" fill="none" stroke="#000" stroke-linecap="round" stroke-width=".6"/>
<path d="m225.51 197.76c-2.7532-0.55212-8.0292 5.5119-7.1353 5.5577 0.83077 0.0426 1.3766-0.0442 2.3631-0.15459-0.43434 0.4785-1.2014 1.4716-0.37545 1.4576 2.6351-0.0448 4.4318-0.14229 7.1113-0.17668 0.28329-4e-3 0.4293-1.1512 0.77096-2.7099 0.21963-1.0019 1.0544-1.8915 1.3492-2.6346-1.3689-0.40469-1.9834-0.90887-3.6573-1.2001-0.0912-0.0159-0.33345-0.13205-0.42653-0.13943z" fill="#a16a38" fill-rule="evenodd"/>
<path d="m224.03 200.16c-1.0601 0.79506-2.1422 1.7447-3.1802 2.8931" fill="none" stroke="#000" stroke-linecap="round" stroke-width=".6"/>
<path d="m229.66 198.96c-7e-3 0.0176-0.23695 0.32435-0.24455 0.34212-0.31218 0.73233-0.95666 1.455-1.1711 2.4332-0.34167 1.5586-0.48767 2.7063-0.77096 2.7099-2.6796 0.0344-4.4762 0.13183-7.1113 0.17668-0.82599 0.0141-0.0589-0.9791 0.37545-1.4576-0.98646 0.11042-1.5323 0.19719-2.3631 0.15459-0.89395-0.0458 4.6341-6.2962 7.3874-5.7441 0.11116 0.0189 0.18928 0.0189 0.18928 0.0189" fill="none" stroke="#000" stroke-width=".6"/>
<path d="m138.92 192.17s-0.14363-0.12153-0.9523-0.76105c-2.4838 1.2513-4.462 4.5107-4.7445 4.9202-0.51042 0.73958 1.2292 0.29167 1.7812 0.34375-0.15625 0.32291-0.95171 1.2889-0.59375 1.3125 4.2427 0.27966 9.4375-1.625 9.4375-1.625 0.0794-1.4669-0.0312-3-0.0312-3" fill="none" stroke="#000" stroke-linecap="round" stroke-width=".6"/>
<path d="m143.52 193.68c0.25219 0.30969 0.37939 0.5647 0.34642 1.058" fill="none" stroke="#000" stroke-linecap="round" stroke-width=".6"/>
<path d="m155.27 195.91c0.27604 0.53125 0.48958 0.76563 1.1562 1.0781" fill="none" stroke="#000" stroke-linecap="round" stroke-width=".6"/>
<path d="m155.14 195.35c0.33854 0.75 0.61458 1.3281 1.2812 1.6406" fill="none" stroke="#000" stroke-linecap="round" stroke-width=".6"/>
</svg>
