<?xml version="1.0" encoding="UTF-8" standalone="no"?>
<!-- Created with Inkscape (http://www.inkscape.org/) -->

<svg
   xmlns:dc="http://purl.org/dc/elements/1.1/"
   xmlns:cc="http://creativecommons.org/ns#"
   xmlns:rdf="http://www.w3.org/1999/02/22-rdf-syntax-ns#"
   xmlns:svg="http://www.w3.org/2000/svg"
   xmlns="http://www.w3.org/2000/svg"
   xmlns:sodipodi="http://sodipodi.sourceforge.net/DTD/sodipodi-0.dtd"
   xmlns:inkscape="http://www.inkscape.org/namespaces/inkscape"
   version="1.0"
   width="800"
   height="400"
   id="svg2"
   inkscape:version="0.47 r22583"
   sodipodi:docname="ZZ.svg">
  <metadata
     id="metadata12">
    <rdf:RDF>
      <cc:Work
         rdf:about="">
        <dc:format>image/svg+xml</dc:format>
        <dc:type
           rdf:resource="http://purl.org/dc/dcmitype/StillImage" />
      </cc:Work>
    </rdf:RDF>
  </metadata>
  <sodipodi:namedview
     pagecolor="#ffffff"
     bordercolor="#666666"
     borderopacity="1"
     objecttolerance="10"
     gridtolerance="10"
     guidetolerance="10"
     inkscape:pageopacity="0"
     inkscape:pageshadow="2"
     inkscape:window-width="1280"
     inkscape:window-height="1004"
     id="namedview10"
     showgrid="false"
     inkscape:zoom="0.59"
     inkscape:cx="400"
     inkscape:cy="200"
     inkscape:window-x="-8"
     inkscape:window-y="-8"
     inkscape:window-maximized="1"
     inkscape:current-layer="svg2" />
  <defs
     id="defs4">
    <inkscape:perspective
       sodipodi:type="inkscape:persp3d"
       inkscape:vp_x="0 : 200 : 1"
       inkscape:vp_y="0 : 1000 : 0"
       inkscape:vp_z="800 : 200 : 1"
       inkscape:persp3d-origin="400 : 133.33333 : 1"
       id="perspective14" />
    <inkscape:perspective
       id="perspective2828"
       inkscape:persp3d-origin="0.5 : 0.33333333 : 1"
       inkscape:vp_z="1 : 0.5 : 1"
       inkscape:vp_y="0 : 1000 : 0"
       inkscape:vp_x="0 : 0.5 : 1"
       sodipodi:type="inkscape:persp3d" />
  </defs>
  <g
     id="layer1">
    <g
       transform="translate(0,-498.5625)"
       id="g3743">
      <path
         d="m 0,498.5625 0,400 800,0 -125,-200 125,-200 -800,0 z"
         style="fill:#036638;fill-opacity:1;fill-rule:nonzero;stroke:none"
         id="rect2738" />
      <g
         transform="translate(-30.260724,-2.343689)"
         id="g3736">
        <path
           d="m 393.78125,557.84375 c -41.23313,0 -78.37833,17.57061 -104.40625,45.59375 21.52393,-17.54884 48.99047,-28.09375 78.90625,-28.09375 69,-10e-6 125,56 125,125 0,68.99999 -56,125 -125,125 -29.91578,0 -57.38232,-10.51366 -78.90625,-28.0625 26.02792,28.02314 63.17312,45.5625 104.40625,45.5625 78.66,0 142.50001,-63.84 142.5,-142.5 0,-78.66 -63.84,-142.50001 -142.5,-142.5 z"
           style="fill:#ffffff;fill-opacity:1;fill-rule:nonzero;stroke:none"
           id="path2740" />
        <path
           d="m -391.42855,291.13571 31.87446,146.19823 125.91641,-80.8391 -80.83911,125.9164 146.19823,31.87447 -146.19823,31.87446 80.8391,125.91641 -125.91641,-80.83911 -31.87446,146.19823 -31.87447,-146.19823 -125.91641,80.83911 80.83911,-125.91641 -146.19822,-31.87447 146.19823,-31.87446 -80.83911,-125.91641 125.91641,80.83911 31.87447,-146.19823 z"
           transform="matrix(0.4047275,0,0,0.4047275,447.97704,492.37675)"
           style="fill:#ffffff;fill-opacity:1;fill-rule:nonzero;stroke:none"
           id="path2746" />
      </g>
    </g>
  </g>
</svg>
