<?xml version="1.0" encoding="UTF-8"?>
<svg version="1.1" viewBox="0 0 800 900" xmlns="http://www.w3.org/2000/svg" xmlns:cc="http://creativecommons.org/ns#" xmlns:dc="http://purl.org/dc/elements/1.1/" xmlns:rdf="http://www.w3.org/1999/02/22-rdf-syntax-ns#">
<metadata>
<rdf:RDF>
<cc:Work rdf:about="">
<dc:format>image/svg+xml</dc:format>
<dc:type rdf:resource="http://purl.org/dc/dcmitype/StillImage"/>
<dc:title/>
</cc:Work>
</rdf:RDF>
</metadata>
<rect width="800" height="900" ry="0" fill="#00ceff"/>
<g fill-rule="evenodd">
<rect x="-3.75" y="800" width="803.75" height="100" fill="#009833"/>
<rect x="585" y="772.47" width="215" height="127.53" fill="#009833"/>
<path d="m680.64 597.37c-1.8296 0.55771-2.2478 2.8337-3.2816 4.2351-11.205 20.382-18.114 42.775-23.896 65.203-0.86002 3.0538-0.81241 6.4778-2.917 9.0483-4.0974 5.5209-10.241 8.9707-15.734 12.913-7.3665 5.1647-15.333 9.6726-21.693 16.121-4.4175 4.5232-5.9339 10.891-8.2608 16.579-3.1097 7.89-5.4156 16.301-10.395 23.286-1.4569 2.1192-3.5758 3.6594-5.5641 5.1839-1.1023 1.2545 0.46295 2.8417 1.8746 2.5246 23.607 0.35194 47.22 0.15215 70.83 0.22123 12.855 3e-3 25.71 7e-3 38.565 0.0102 2.2633-0.35274 1.2048-2.8991 1.1182-4.4287-1.5375-12.034-2.8697-24.105-4.4918-36.12-4.0872-12.795-7.1762-25.952-8.1586-39.29-0.54761-7.8404-0.52706-15.672-0.0894-23.526-0.45203-5.574-3.1777-10.718-4.2554-16.079-0.67862-5.7166 0.72694-11.392 0.84326-17.088-0.60411-5.7162-1.0145-11.51-2.4551-17.089-0.262-0.91402-0.9869-1.8344-2.04-1.7051z" fill="#009833"/>
<path d="m739.09 423.29c-3.7204 0.48891-4.1768 5.3102-3.1064 8.1826 6.0996 25.069-0.51755 51.533-12.041 74.025-7.3747 14.697-17.622 28.067-28.38 40.58-0.5104 4.2308 0.96948 8.6288 0.86649 12.933-0.14052 7.7048 1.5745 15.268 3.488 22.638 7.7947 35.467 7.9871 71.921 10.61 108.01 0.81729 14.826 2.591 29.64 6.6771 43.953 1.6986 5.9275 2.6626 12.203 4.9644 17.886 3.4679 1.7454 7.7336 0.66108 11.503 1.0723 22.047 0.1138 44.094 0.0363 66.141 0.0596 2.9215-1.2424 0.90168-5.4799 1.5-8v-210.93c-1.9066-3.2296-6.054-4.4459-8.9082-6.8379-10.606-7.7526-17.092-19.412-22.479-31.135-10.029-21.401-16.929-44.052-24.773-66.291-0.99239-2.6668-2.8446-6.0141-6.0622-6.1515z" fill="#009833"/>
<path d="m509.14 605.67c-27.699 2.1352-55.319 5.2918-83.001 7.506-8.4472 0.83192-16.956 1.1457-25.371 2.2402-2.0196 1.229-2.2317 4.0658-3.4032 5.9941-11.769 26.029-27.395 49.999-43.87 73.25-15.119 21.523-30.965 42.536-45.785 64.266-1.1827 1.7583 1.2558 3.2672 2.6605 2.0234 20.382-10.501 41.382-19.718 62.659-28.262 2.323-0.82568 4.7274-2.1273 7.0243-2.625 5.0394 4.798 9.5004 10.279 12.435 16.587 3.3114 6.8222 6.7124 13.742 12.063 19.24 12.415 13.386 27.353 24.058 41.848 35.033 4.4469 0.68857 9.0995 0.11053 13.627 0.30293 5.0481-0.14259 10.175 0.29206 15.174-0.21178 13.031-8.547 28.816-12.402 44.32-11.898 14.449-0.1673 28.563 3.119 42.384 7.0453 5.1318 1.3275 9.9769 3.6166 15.108 4.889 2.9738 0.16485 6.1177 0.53769 8.9887-0.19473 1.1212-2.617 0.21705-5.7306 0.50824-8.5502-0.0833-13.386 0.16654-26.832-0.12485-40.18-1.0184-2.0794-3.9986-0.96677-5.8917-1.7813-2.0428-0.49542-4.4782-1.8814-6.2736-0.0189-5.079 2.9118-11.148 0.52495-15.89-1.9549-2.7876-1.3832-6.5382-0.5527-8.6068-3.3311-1.6992-2.0684-3.2506-4.6216-6.1271-5.121-1.8076-0.6932-2.8092-2.5336-2.307-4.3639 0.29245-16.45 8.9548-31.333 18.391-44.345 10.835-14.688 23.732-27.593 35.297-41.722 2.1543-5.1186 3.471-11.648 0.19059-16.587-2.2933-2.8588-5.3746-5.409-8.8886-6.4399-16.177 11.386-31.669 24.066-44.668 39.08-7.9515 9.3673-15.526 19.115-22.126 29.488-2.8938 4.7869-0.42203 10.486 0.94759 15.339 1.4592 3.8887 2.2707 8.2973 1.438 12.471-1.9268 3.5936-6.7126 4.632-10.317 3.2842-3.5376-1.796-4.9093-5.8134-6.924-8.912-2.2185-1.0227-3.4233 2.3833-5.7432 1.7028-3.2142-0.12349-5.215-2.9959-7.9108-4.1522-2.0854 0.92933-3.8645 2.9054-6.4095 2.4673-2.4519-0.32435-4.1146-2.6952-6.5076-3.3712-2.4469-0.74716-3.1007-4.7796-6.0387-4.0376-2.6646 0.96915-5.6004 1.3485-8.3879 1.3652-1.8938-7.5742-1.7054-15.493-0.79619-23.201 3.3452-16.733 13.476-30.859 23.879-43.984 8.7182-11.413 18.375-22.464 24.225-35.718 0.62247-1.3275-0.24928-2.8018-1.7988-2.6102z" fill="#009833"/>
<path d="m379.36 730.97c-7.462 1.8672-14.374 5.5879-21.555 8.325-24.075 10.356-48.399 20.838-69.788 36.214-7.2801 5.5826-15.437 9.7227-24.408 11.701-8.7214 2.154-18.13 4.6602-26.91 2.0008-17.403-4.5761-31.942-15.663-46.588-25.642-5.0558-3.4363-9.8774-7.3728-15.06-10.52-3.7695 0.49629-7.7357 1.9844-11.036 4.0555-2.1474 2.383 1.6532 5.7405 4.2451 5.1299 6.1707-0.0142 11.627 3.8378 16.645 7.0342 3.7561 2.5666 6.5903 6.5734 11.189 7.6903 5.268 2.9942 11.423 3.9159 16.461 7.2042 2.55 1.3589 2.0746 5.2555-0.84668 5.8145-5.9409 1.915-12.458 2.285-18.624 1.4629-4.32-0.89145-7.8607-3.9799-12.038-5.0625-6.7485 1.6298-13.909 3.6861-19.153 8.4443-1.3132 1.8567-4.6292 4.0698-3.042 6.4307 10.203 0.64082 20.591 0.0931 30.865 0.27539 76.05-0.0589 152.1 0.14696 228.15-0.20899 3.1296-1.3616-0.37358-4.7477-0.88149-6.8593-3.6812-7.9042-8.0267-16.902-16.915-19.923-5.7212-3.4287-12.311-1.0497-18.465-1.0037-5.4194-0.19927-10.076-3.6102-13.877-7.2373-4.8502-4.6486-2.4589-11.59-0.69141-17.069 2.0646-6.8981 8.3652-11.423 14.552-14.403 1.779-1.5088-0.39659-4.0168-2.2266-3.8535z" fill="#009833"/>
<path d="m143.27 787.34c-20.5 0.84044-41.046 1.4644-61.55 2.354-10.443 3.5646-21.256 5.679-32.22 6.6001-3.1479 0.0288-6.076-1.874-7.263-4.7896-1.6052-2.0307-3.9379 0.52574-5.6618 1.1339-3.6625 2.1038-7.7009 3.7765-11.113 6.1978-1.3345 1.6642 1.042 2.9143 2.5495 2.4705 38.001 0.19435 76.002 0.0843 114 0.11448 2.4464-0.63449 1.1749-3.7624 2.2038-5.5351 0.50503-2.4693 2.3196-4.7102 2.0996-7.2875-0.46486-1.2517-1.9299-1.3061-3.048-1.2588z" fill="#009833"/>
<path d="m133.79 501.34c-2.9786 0.33177-6.2894 0.82713-8.6779 2.7428-1.2176 1.4807 0.53509 3.1096 2.0916 2.8857 5.0523 1.9337 6.3433 7.8452 7.0462 12.626 0.60337 8.472-0.73343 16.949-1.037 25.414-1.6966 28.257 0.53381 56.634-2.4781 84.758-1.6898 20.514-4.8204 41.077-3.2319 61.714 1.2332 17.084 0.78382 34.611-3.7788 51.059-0.93557 3.0452-2.0157 7.3906-5.9669 7.4025-4.151-0.053-5.989-4.4228-8.0402-7.3402-4.3732-7.0477-7.1718-15.099-7.4279-23.506-0.60358-10.261-1.4566-20.767-0.18355-30.932 2.0332-11.989 7.6366-23.667 6.7315-36.14-0.52917-9.2578-1.6789-18.501-1.1194-27.793 0.40173-11.374 1.0528-22.814 0.8966-34.24 0.074-8.8429 0.0219-18.009 3.6103-26.307 1.137-3.3492 2.032-8.3741-1.7512-10.376-2.6879-1.5658-5.4623 0.7901-6.5014 3.2213-1.8946 4.993-6.4551 8.1362-10.969 10.472-5.6793 2.9031-10.664 7.1363-16.642 9.4292-6.947 2.5763-15.363-0.9377-18.366-7.7254-1.9095-3.7364-1.4637-8.0866-0.05483-11.893 0.26608-2.1075-2.4543-2.2583-3.4575-0.87698-1.7662 3.4751-2.0701 7.5601-3.1466 11.295-14.96 66.945-29.375 134.01-44.041 201.02-2.2383 10.474-4.635 20.917-6.7654 31.412 0.27018 2.8238 3.8197 1.4231 5.7211 1.7533 4.5246-0.11855 9.1078 0.23821 13.596-0.17677 25.066-13.339 50.079-27.18 77.075-36.295 8.3492-2.9094 16.874-5.3741 25.465-7.5434 2.4678 0.79709 4.8038 2.3024 7.4011 2.5708 2.2406-1.0741 1.0082-4.087 1.457-6.073 1.7758-64.148 5.5612-128.22 7.1749-192.38 0.16937-16.244 0.62849-32.523-0.4196-48.746-0.45209-3.4924-0.33172-7.2139-1.7137-10.494-0.55504-0.79861-1.5948-0.95954-2.4963-0.93844z" fill="#009833"/>
<path d="m112.11 511.41c-1.9368 0.7218-3.465 2.2596-5.1795 3.3864-13.391 9.9532-25.999 20.883-39.081 31.224-1.1672 0.54732-1.5865 2.2882-0.33446 2.9873 2.2799 0.65317 4.7968-0.11251 7.0376 0.83382 1.59 0.0529 2.9619-1.0591 4.4225-1.5695 10.114-4.4364 18.69-11.988 24.894-21.077 3.1513-4.5048 6.2811-9.0217 9.6898-13.345 0.76108-1.0358-0.14218-2.6619-1.4494-2.44z" fill="#009833"/>
<path d="m74.356 414.73c-2.7172 6.5429-4.6545 13.47-6.6377 20.296-7.5754 27.388-10.256 55.922-10.147 84.273-0.20612 6.7808 0.15778 13.626-0.40968 20.366-0.88161 4.3423-2.05 8.6444-2.6805 13.029 0.52713 2.4568 3.0714 1.0976 4.2268 4e-3 18.886-13.894 36.115-30.026 55.481-43.19 6.4975-4.0164 13.41-8.6526 21.385-8.3512 1.5516-0.1292 1.276 2.2509 1.718 3.2959 2.0074 13.538 1.6381 27.241 1.665 40.89-0.79183 54.687-3.9014 109.31-5.9184 163.97-0.64671 16.771-1.2971 33.545-1.5167 50.328 0.75346 2.3631 4.0021 1.8804 6.0249 2.4238 7.2113 1.0166 14.517-0.44709 21.115-3.403 5.3325-2.0904 10.521-4.8044 16.107-6.1009 7.7033 4.7196 14.769 10.524 22.327 15.554 12.35 8.3223 25.036 16.926 39.595 20.818 10.105 2.7616 20.497-0.54441 30.302-2.992 7.6077-1.7594 14.338-5.8603 20.539-10.466 4.8335-3.643 10.194-6.6901 15.096-10.312 3.9-4.3202 6.7048-9.5279 10.209-14.169 23.366-33.543 48.821-65.739 69.541-101.06 5.9533-10.471 11.682-21.136 16.234-32.295 0.43517-2.2641-2.3906-2.199-3.877-1.943-11.19 0.67588-22.362 1.1947-33.534 2.01-2.1733 0.89897-1.6412 3.8437-2.7364 5.6716-5.1686 13.454-16.985 22.643-28.609 30.382-9.916 6.8525-20.744 12.401-30.538 19.474-6.9088 6.2608-9.3144 15.69-12.723 24.026-3.0306 7.272-5.9714 15.22-12.556 20.076-1.3436 0.60572-3.7825 0.53513-3.3574 2.7462 0.47496 3.6697 1.5409 7.6114 1.7243 11.113-4.7112-2.0894-7.4432-6.8442-10.899-10.38-2.331-1.2534-2.6951 2.0773-2.6192 3.7447 0.37323 2.8629 2.6082 5.0734 3.4237 7.7623-4.289-0.94179-9.6339-2.4625-11.004-7.223-1.3451-2.4829-4.9305-0.83865-6.123 0.99713-3.7085 4.8057-6.7523 10.283-10.289 15.08-0.35079-4.3171-0.77771-8.8135-2.4928-12.834-1.2083-1.541-4.7049-2.063-4.927 0.53585-1.4809 3.3878-3.6464 6.619-3.6067 10.468-0.1622 1.3986-1.1908-1.1821-1.6294-1.6284-1.7088-2.8726-3.8772-5.7686-3.6608-9.2904-0.0145-2.0146-3.194-2.1077-3.2628-0.0711-0.35598 1.6201 0.0593 4.0548-0.38601 5.2211-1.9488-3.3621-4.1141-6.7602-5.1334-10.532-0.51472-6.9247-0.87202-14.31 2.4513-20.703 7.4573-15.774 20.894-27.553 32.759-40.169 10.208-10.845 21.341-21.122 29.218-33.886 2.9613-6.7171 2.3502-14.955 7.3868-20.76 1.2623-1.1332 1.3092-3.592-0.70158-3.887-4.2479-1.417-7.558-4.6284-9.8063-8.4287-2.5259-3.7214-4.26-7.927-6.106-11.968-1.6422-1.4152-4.1995-0.18689-6.2373-0.3735-12.654 0.8649-26.263 3.743-35.447 13.162-8.7365 8.8844-10.97 21.661-14.15 33.163-2.4664 9.4111-6.7132 18.778-14.22 25.242-5.8638 4.8026-13.4 6.95-20.92 6.8526-5.572-0.31663-11.29-2.8563-16.813-1.0701-1.72 0.58349-3.3802 2.0128-5.1003 2.1552-4.4729-3.6826-3.7126-10.09-3.1794-15.223 2.5496-16.458 9.6077-31.795 13.024-48.063 0.43757-1.9163-0.13695-4.1537 1.6663-5.5256 10.557-11.882 18.958-25.778 23.754-40.973 2.776-6.8076 10.101-10.007 16.397-12.782 13.582-5.7036 27.957-9.3227 41.435-15.272 2.3038-0.81412 1.4516-3.5382 0.1823-4.88-5.2116-6.6414-12.708-11.393-17.216-18.542-1.3232-1.5701-1.8306-3.6616-3.1395-5.1812-7.3314-0.81689-15.615 0.47593-22.083-3.9091-4.6898-4.2491-8.5642-9.4356-13.829-13.067-5.7857-4.0158-12.607-7.0469-19.789-6.7148-6.1673-0.38324-12.244 0.73358-18.215 2.1467-6.0408 1.0065-12.737 2.8178-18.556-0.0178-5.3532-3.0305-8.0266-9.0101-9.8822-14.599-1.9893-1.9693-5.2696-1.8692-7.7216-3.2206-3.8484-1.3843-7.5156-5.019-6.6581-9.4078 0.10148-1.9828 2.6094-4.6483 3e-3 -5.7991-3.3558-0.58628-7.8314-1.5512-8.8547-5.3005-0.24695-4.0374 2.5938-7.7812 5.806-9.932 6.7796-3.1227 14.226-4.4548 21.273-6.8549 2.2206-0.88008 4.817-1.093 6.7258-2.564 0.82032-2.9422-3.0529-2.2136-4.8254-2.2665-17.693-0.0214-35.386-0.0433-53.079-0.0654-0.33077 0.12429-0.66153 0.24859-0.9923 0.37289z" fill="#009833"/>
<path d="m179.83 212.03c-3.4242 2.4845-5.3234 6.6887-7.9632 9.9649-22.508 32.398-36.862 69.448-56.415 103.55-3.6704 7.0814-10.241 12.471-12.361 20.351-8.2274 22.917-19.751 44.554-28.211 67.4 0.01057 3.1588 4.3428 1.6294 6.3232 2.0713 17.007 0.45107 34.156 0.0553 51.066 1.0967 2.5966 1.2742 5.3762-1.3721 7.9536-1.76 10.31-4.0115 21.379-7.5254 29.715-15.107 3.8213-4.4354 5.2636-10.399 8.2412-15.32 0.0952-7.5036-1.9575-15.095 0.043-22.559 0.6701-4.5 3.5627-9.5617 8.7881-9.1699 4.1365 0.66021 6.4498 4.9918 8.7646 8.081 1.9139 2.6207 2.9174 5.975 5.292 8.1631 8.7062-2.4854 17.23-5.7759 26.164-7.6992 16.555-3.8566 34.328-6.2052 50.855-0.72754 2.7486 0.18136 2.107-3.3177 0.53808-4.4209-6.3542-8.485-16.726-11.952-26.216-15.59-14.462-5.6519-29.775-13.394-37.506-27.454-7.9417-14.629-6.9556-31.755-7.1152-47.917-0.83731-8.5613-4.9594-16.41-8.5452-24.099-5.1956-9.9107-10.86-19.71-17.89-28.432-0.40948-0.43416-0.97055-0.43667-1.5234-0.41992zm-52.98 139.99c3.6988-0.0382 7.9698 0.927 9.7266 4.5596 3.4177 3.0784 5.2945 7.5259 7.0137 11.75 1.5604 5.5098 1.7086 11.396 2.5928 17.161-0.70504 2.7157-1.507 5.7173-3.0195 8.0586-3.0543 3.3143-8.84 3.0215-11.282-0.92578-2.1592-3.0193-2.5939-7.4577-6.4023-9.1162-3.4327-1.8303-6.9884-4.0812-11.023-2.7792-4.4881 0.39714-10.693 1.8474-13.61-2.7511-2.7474-4.5232 0.66387-10.001 4.7686-12.306 5.4048-3.2165 10.296-7.1547 15.172-11.1 1.7909-1.2372 3.7914-2.6216 6.0636-2.551z" fill="#009833"/>
<path d="m343.47 68.86c-4.1535 0.806-4.6348 6.0472-5.9648 9.293-1.0704 3.9025-3.6434 8.1987-8.166 8.3604-4.3247 0.47662-8.039-2.2562-11.353-4.5274-2.8125-0.2592-2.3283 3.9693-3.2986 5.8009-3.6682 15.783-9.656 30.863-16.084 45.694-15.161 36.098-26.442 73.642-37.11 111.26-1.1244 3.4762-1.7665 7.1776-4.3832 9.8415-2.0304 5.795 1.6436 11.668 4.4522 16.546 9.2944 14.053 21.336 26.001 32.327 38.696 14.813 16.434 29.706 33.05 41.06 52.163 10.002 15.799 19.151 32.268 29.885 47.524 3.7759 0.81747 7.9932-0.46337 11.941-0.2457 30.753-0.66117 61.405 3.6885 92.209 2.741 32.91-0.48733 65.816-1.4438 98.734-1.1704 2.7097-1.222 2.3358-5.2324 3.7339-7.6074 1.6198-4.1122 2.6647-8.5885 4.0151-12.678 7.6659-17.879 13.958-36.316 21.113-54.407 3.1522-8.6084 6.8637-17.086 9.6873-25.77-1.1444-3.6534-6.2877-3.8233-7.8311-7.3701-2.1671-4.0577-8.6435-3.7767-9.2393-9.0108-1.4313-6.2601 0.25149-14.257-5.6514-18.621-4.5656-3.18-10.124-5.4242-12.957-10.532-3.2921-4.9618-10.061-7.6651-10.389-14.352-0.61765-5.7497 1.6298-11.42 5.6017-15.546 3.0495-3.1951 3.3155-7.6532 3.2969-11.808 0.71107-5.09 3.9337-9.8903 8.6355-12.093 2.5158-2.543-0.21444-6.3452-0.1868-9.3733-5.095-28.062-7.1885-56.66-13.937-84.418-1.6534-2.819-3.6575 0.69222-4.21 2.4482-6.4514 14.451-12.632 29.07-17.818 44.023-0.7548 2.103 2.0144 3.288 3.1279 1.6855 2.713 1.8568 3.1339 5.9663 6.5049 7.2461 3.6704 1.8809 9.3828 2.7671 10.166 7.5752-0.32421 4.3318-4.2856 7.4234-4.4795 11.876-1.6128 5.5497-4.9728 10.494-8.4199 15.073-3.1458 4.2768-9.8601-0.0691-12.706 4.5566-2.7421 2.2176-4.3186 5.5281-4.2826 8.9979 0.16963 4.8718-5.6772 6.5383-9.4869 5.0431-1.7328-0.87319-4.4775-1.0524-4.9356 1.374-6.1017 15.367-13.31 30.23-20.256 45.246-2.3751 5.0058-5.7182 9.5263-8.3501 14.374-13.555 22.047-30.721 41.601-44.286 63.648-5.95 10.164-10.602 21.438-11.343 33.305-0.72278-1.3167 0.13231-4.2474 0.31836-6.2041 4.0919-21.659 18.396-39.346 31.117-56.732 8.2193-11.445 17.077-22.533 24.122-34.757 1.1277-1.9275-0.99145-3.0172-2.4082-3.6006-3.6414-2.6606-2.1416-7.6036-2.5361-11.426 0.14824-8.8556-7.4525-14.906-11.044-22.284-6.0759-12.517-2.263-27.837-9.7324-39.851-4.1861-6.8196-13.348-8.8426-16.524-16.45-5.4361-10.86-11.178-21.888-19.878-30.528-2.7489-1.4153-3.8557 2.732-5.1627 4.3366-5.8435 9.8114-10.93 20.533-11.296 32.155-0.3571 0.51211-0.10555-2.9858 0.016-3.8293 1.5568-15.04 10.53-27.657 18.153-40.274 5.1124-8.4238 10.817-16.62 15.482-25.239-0.0986-3.251-4.3384-0.82363-6.3946-1.3872-2.7953-0.51326-4.4176-3.3241-7.209-4.0859-4.7214-2.7783-4.1789-9.43-7.7676-13.225-3.7844-5.0785-11.945-6.1065-16.412-1.3135-2.37 2.9859-5.895 5.9092-10.007 4.5459-4.2315-0.85783-7.9377-3.2496-11.672-5.1602-2.3718 0.33324-3.7075 3.3145-5.1714 5.165-1.8714 4.3361 0.27637 9.1669 0.62255 13.623 5.6364 30.831 21.08 58.758 29.792 88.53 5.2717 20.323 6.0144 41.434 5.9291 62.34 0.30845 23.394-0.45407 46.825 0.87729 70.194 1.6141 17.41 5.8097 35.494 17.047 49.312 1.9854 2.563-0.0503 0.45743-0.91304-0.65913-1.1426-1.7532-3.748-4.603-5.6289-2.0215-2.8653 3.2812-8.7499 2.2966-10.137-1.9596-3.0384-4.9238-4.1627-11.477-9.5137-14.563-3.1618-2.0122-3.9112-5.8611-2.9768-9.26 1.0695-6.5818 1.7943-14.751 8.2756-18.419 2.1962-0.5003 4.204-1.9446 3.2636-4.4703-0.58645-3.9306 0.26602-8.3198-1.2878-11.949-11.06-11.828-15.231-27.817-19.293-42.939-4.6225-16.537-0.15367-34.223-5.1247-50.748-1.7282-5.8634-6.1558-10.321-11.291-13.394-6.087-3.7106-10.744-9.7786-11.907-16.893-2.3733-12.932 1.949-26.392 2.8642-39.484 0.95571-7.9498 0.19942-17.446 6.7013-23.363 1.6519-2.0842 4.5485-2.6412 6.1934-4.5605-0.73064-5.7242-2.6066-11.331-3.6143-17.041-0.67923-2.792-3.9765-1.7098-5.1602 0.0664-3.5553 2.885-6.7084 8.5622-12.104 7.2676-5.8532-1.9413-5.6419-9.1231-7.1043-14.048-2.0468-9.0464-6.7565-17.409-7.7668-26.677-0.78563-6.6483 1.8276-13.093 1.6582-19.674-0.48822-2.1697-2.4304-4.0977-4.7607-3.9336zm230.78 322.46c-0.26028-0.0144 0.87168-0.22269 0 0z" fill="#009833"/>
<path d="m519.19 20.059c-7.6118 0.9066-13.749 6.2576-18.384 12.014-9.2498 11.51-15.177 25.159-21.94 38.167-7.8932 15.366-14.917 31.409-26.261 44.608-3.8179 4.0062-5.7564 9.4279-8.6734 14.096-2.1283 3.8941-4.5789 7.6113-6.7407 11.477-0.3488 2.2819 2.4927 2.2536 3.9248 2.9756 5.4947 2.3691 8.6561 7.8263 11.88 12.561 4.6396 7.7038 10.712 14.371 16.844 20.895 6.7289 7.1915 12.799 15.6 14.764 25.438 1.8437 9.1336 1.5394 18.723 5.0521 27.508 1.6886 4.3457 3.2362 8.7956 5.4948 12.882 2.5504 3.4397 6.4007 5.7947 8.5287 9.5441 1.2634 1.4444 2.8615-0.27903 3.0943-1.6765 13.51-30.073 24.339-61.241 36.242-91.961 5.872-15.208 11.857-30.392 18.985-45.072 0.4247-1.3786 0.81295-0.52149 0.98564 0.40041 9.3392 34.325 9.6499 70.42 18.709 104.89 4.6395 18.029 12.044 35.467 22.949 50.624 3.1588 4.3231 6.4153 8.6387 10.212 12.42 1.198 1.1184 2.8566-3e-3 3.0444-1.4165 4.9026-13.261 9.7442-26.555 14.067-40.018 0.6726-1.1878 0.12607-3.2327-1.5228-2.8877-1.0352 0.0363-1.2985 1.3606-1.7672 1.9287-3.8921-2.0698-6.911-5.7346-8.3223-9.8491-1.21-2.874-1.8485-6.4481-4.9092-7.9976-3.1836-1.579-6.5697-4.409-6.227-8.335 0.55261-3.0276 2.3004-5.7082 2.6921-8.794 0.38291-3.4745 2.7844-6.1739 5.3166-8.3687 2.4634-1.9839 4.9335-4.4538 8.1569-5.0404 3.1665-0.48294 5.4655 2.9699 4.919 5.852-0.60769 3.8961-3.5198 7.0515-3.9507 10.971-0.2468 5.7513 2.9943 10.832 5.4125 15.817 0.93555 1.2945 1.257 3.5242 3.0126 3.9065 2.1464 0.0337 2.0346-2.7478 2.6393-4.1833 2.8348-9.8338 5.5951-19.736 7.2583-29.842-0.43829-2.2066-2.8651-3.2305-4.3181-4.7171-19.193-16.132-34.607-36.164-48.551-56.843-18.554-27.843-33.937-57.611-50.721-86.541-4.6006-7.583-9.055-15.443-15.359-21.772-1.8273-1.6343-3.9281-3.6286-6.5371-3.6572zm-3.8867 34.775c4.1701 0.12221 8.2865 3.0276 9.0598 7.2673 2.0084 7.3261 5.2454 14.424 10.339 20.135 3.8781 4.5543 7.4557 9.5549 9.0546 15.402 1.1264 3.7902 2.1544 8.5179-0.53806 11.881-2.8072 2.8595-7.0904 4.9599-11.097 3.4829-5.4444-1.9126-8.5556-7.3909-9.8519-12.724-1.7696-6.3639-2.6043-13.385-7.1383-18.537-2.7545-3.2454-7.3847-4.7349-9.0747-8.9136-1.5411-3.5985-0.7363-7.7481 0.35107-11.364 1.1664-3.8464 4.7618-6.8623 8.896-6.6299z" fill="#009833"/>
<path d="m662.66 162.62c-5.1231 4.4181-8.8125 10.173-11.518 16.322-3.1671 7.249-7.2727 14.586-7.3114 22.692 0.89016 2.1604 3.3606 0.66139 4.1819-0.7292 2.8227-2.7926 3.3127-6.8175 4.6093-10.364 1.417-3.9026 7.1253-2.7833 8.4611 0.60422 3.3295 7.1481 0.89351 15.334-1.7905 22.29-1.5411 3.5956-3.2274 8.2892-0.19821 11.624 2.5765 2.4625 3.9548 5.9558 3.6049 9.5245 0.0314 4.609-2.8617 8.5464-4.9219 12.465-5.4271 7.4296-6.0347 17.009-10.194 24.986-1.1004 2.1187-4.1414 3.136-5.9151 1.1753-5.169-5.1434-2.2618-14.093-7.8445-19.013-1.3609-1.3482-4.0695-3.5116-5.6361-1.3155-2.5636 6.3864-4.5578 13.019-7.0686 19.439-16.839 45.836-35.254 91.079-51.57 137.11-0.16859 2.7037 3.4856 2.3383 5.2615 3.2686 23.578 7.2716 48.428 9.1046 72.979 9.2874 10.439 0.0658 20.894 0.46186 31.323 0.2817 2.3164-1.1761 0.11651-3.7218-0.20583-5.4754-1.7217-5.1433-2.3245-11.088 0.62197-15.918 2.3632-4.2949 6.335-8.134 6.8705-13.341 2.0434-6.9211 5.0436-13.582 6.8044-20.569-9.9055-64.893-16.962-130.18-26.654-195.11-0.69554-3.0784-0.58878-6.4563-1.9081-9.3182-0.7292-0.37313-1.2783-0.35479-1.9811 0.0808zm-0.19542 92.287c4.2917 2.1848 5.7748 7.9901 3.3953 12.106-2.0881 4.6176-0.57896 10.525-4.438 14.393-2.0853 2.3413-5.5545 0.35419-6.3688-2.1248-1.5418-3.6363-0.89609-7.903 1.5852-10.97 1.9378-2.5738 2.535-5.7537 2.4745-8.9005 0.15937-1.992 1.0841-4.2706 3.3518-4.5044zm9.9023 29.974c1.6548 5.4667 2.4713 11.193 3.2869 16.845 1.1019 9.6123-4.2489 18.474-3.5245 28.119-0.47029 4.7278 2.3124 9.3926 6.6719 11.265 5.1688 2.3314 7.6839 8.6911 5.8509 13.994-1.6304 5.8146-5.822 10.475-9.8954 14.753-1.7228 2.3602-5.4239 2.3257-7.0352-0.13603-2.9976-4.0968-0.33796-9.1908 0.73611-13.487 1.2707-3.6205 0.74123-7.7495-1.7747-10.714-2.2999-2.5077-3.1159-5.7871-3.0624-9.0738 0.0551-11.794-6.5658-22.146-8.5484-33.499-1.2584-7.7828 5.2239-14.559 12.142-16.927 1.6696-0.53324 3.3878-1.0886 5.1522-1.1397z" fill="#009833"/>
<path d="m186.03 352.88c-6.5341 1.184-8.0501 9.3098-7.8776 14.907 0.28864 4.3418-1.1258 9.46 1.1532 13.326 1.9367 1.4472 4.2994-1.4558 5.5201-1.4819-4.8233 3.3248-8.7584 7.8379-10.492 13.54-5.1408 11.746-18.598 15.852-29.532 20.257-12.631 5.0718-26.055 7.895-38.694 12.855-3.9128 2.1947-8.77 8.4461-4.3255 12.369 2.614 2.3088 6.7087 1.3431 9.452 2.6876-1.4712 3.391-4.9158 7.826-1.1946 11.055 5.2255 5.5886 13.539 6.9272 20.684 4.8022 8.3467-1.3299 17.119-3.4093 25.489-1.6602-9.4918-0.39311-18.999 0.42699-28.203 2.9072-2.5425-0.0287-5.2907 1.9497-3.6419 4.6183 2.402 6.8247 8.4539 13.283 16.301 12.278 11.327-0.67112 22.483-5.0984 33.791-2.8795 11.79 1.1908 19.935 10.584 28.025 18.179 5.952 5.7972 15.005 3.8351 22.49 4.0791 19.04-0.88414 37.764-6.029 55.293-13.341 5.3274-2.0455 10.414-5.3613 12.412-10.994 4.315-7.3573 3.6729-16.18 3.7979-24.225 1.326 7.2815 0.44623 15.431-2.258 22.514 0.87757 3.7249 4.4558 0.12885 5.5533-1.6062 2.8074-3.2807 5.6671-8.1098 8.1925-10.796-5.8973 10.541-14.452 20.015-25.86 24.703-15.542 7.39-32.459 11.334-49.435 13.92-2.4138-0.38312-6.9267 0.61809-5.2826 3.9996 5.6977 10.279 17.246 15.969 21.821 27.057 4.1467 7.0375 7.038 14.87 11.293 21.765 3.6067 0.8772 3.0347-4.4783 3.3408-6.723-0.46013-3.2062 0.5674-2.1894 0.27306 0.37906 0.39928 5.151-3.5786 9.8319-1.386 14.911 0.68108 2.2276 1.479 8.0826 4.9399 5.9559 1.6915-1.5257 2.5663-4.9608 3.9692-5.9192-0.56925 5.3324-7.7401 7.6473-6.1526 13.398 0.12588 7.4614-0.46813 15.488 4.0563 21.929 3.0135 6.0998 8.417 13.022 16.119 11.481 5.3529 0.55262 2.7801-6.1577 3.4622-9.3753 0.23514-10.821 4.2052-20.826 7.9236-30.846-3.523 12.981-9.4395 26.09-7.02 39.852-8.602 1.9313-11.906 11.002-13.403 18.698-1.8226 10.794-10.75 18.415-17.459 26.453-14.03 15.862-30.664 29.583-42.509 47.276-4.0499 7.0239-8.5552 15.459-6.2048 23.749 2.361 3.1562 6.5125 5.048 10.308 5.7535 3.9217-0.88836 3.4538-6.2745 5.6408-8.9732 2.2584-4.0463 4.6112-9.6311 7.9434-12.08-4.4019 6.3006-8.6805 13.122-10.622 20.596 0.94777 3.6117 6.0236 1.6158 8.6662 2.1641 5.1884 1.5858 5.0743-3.4332 4.7481-7.0379 0.69076-2.3091 0.45884 2.7416 0.59938 3.5949 0.56739 4.3161 5.8645 2.1099 8.4038 1.2582 4.9948-0.0967 6.5181-3.8105 6.2106-8.2205-0.0869-0.93517 1.0803-5.5905 0.96129-2.4717-0.14646 2.3983-2.5032 7.5236 1.5123 7.5061 6.3647-1.5874 12.666-3.0271 19.019-4.3573 7.6942-5.1575 10.205-14.957 13.671-23.052 3.3164-9.2549 7.4596-19.175 16.564-24.121 14.843-9.6351 30.85-18.038 43.559-30.539 7.0786-6.8869 11.206-16.095 13.275-25.627 3.1298-10.633 13.907-17.166 16.73-27.934 0.95432-6.2801 0.59288-12.935-0.0635-19.099 1.5772 0.66118 0.79701 4.147 1.2798 5.7988 0.84266 8.1804-0.17394 16.892-5.8367 23.433-4.6372 6.2395-10.343 12.351-12.223 19.996 4.2711 2.461 9.9036 0.6749 14.735 0.8726 3.2489-0.79042 10.457 1.4915 9.3703-4.0725-0.2423-3.4744 0.5464-2.1418 0.52682 0.47027 0.30543 4.5573 6.9195 2.1319 9.932 2.2961 2.1711-2.0618-0.19109-6.8262 1.3134-8.9011 0.52155 3.2139-1.6318 9.5751 3.7026 8.4788 3.5194-0.20747 10.096 1.1562 10.601-3.9835 0.42596-1.2808-0.50707-4.0152 0.56071-4.4457 0.43966 2.7909-1.4497 9.0174 3.2429 7.5977 3.0676-1.3917 7.8688 0.90361 9.7184-2.0776 0.36992-2.1331-0.64863-6.4271 0.47233-7.5779 0.39451 3.3204-1.5131 9.6728 3.9775 8.3706 3.1367-0.37021 9.3776 0.36908 8.2781-4.505 0.18659-4.2936-0.36713-9.3275 0.26793-13.173 0.94677 4.8846-0.56447 11.204 0.77202 16.355 3.5958 0.16122 8.1914 0.73968 11.437-1.37 1.7781-1.4132 0.12374-4.8098 1.4404-5.7894 0.16034 2.4948-0.89632 7.758 3.2346 6.2314 3.279-0.98653 6.8889 4e-3 10.047-1.0814 1.187-1.1132-0.56074-4.9885 0.88803-5.0547-0.91523 3.6472 1.3212 6.306 5.0713 4.6031 9.8732-1.2609 19.996-1.5693 29.736-3.1594 1.9956-1.7151-0.32445-6.449 1.2169-7.8629 0.51422 2.8024-1.5395 8.6433 3.1123 7.7168 2.5605-0.0101 5.6296-0.9553 7.9846-0.33228-6.0481 16.396-18.435 29.372-28.577 43.302-11.14 14.548-22.047 31.321-21.269 50.427 0.50212 3.6012-0.71957 8.7279 2.4816 11.241 2.7912 0.83064 5.7073-0.38862 8.1607-1.3479 2.4619 0.85225 3.7854 6.6707 7.0407 3.9858 1.5154-1.3861-0.0866-4.7118 1.3396-5.4304-0.30139 3.2278-1.5989 9.2083 3.2621 9.5252 3.9844 0.0952 5.6316-4.1382 7.6635-6.6678-0.90521 2.1179-0.68855 5.1512 1.9929 6.2493 2.1958 2.0017 6.2627 3.2258 7.7464-0.25826 0.29013-0.77969 2.0905-3.7674 2.1793-1.486 1.8611 5.0023 4.9238 12.373 11.446 11.593 4.654-0.44451 7.3298-5.4365 5.7673-9.6923-1.4816-7.8454-6.9776-16.963-0.9916-24.185 13.38-19.286 28.417-37.634 46.888-52.288 5.3587-4.8272 11.871-8.5008 16.808-13.589-2.3288-3.5344-7.6109-4.3862-11.155-6.8225-17.061-8.1133-30.144-23.517-35.737-41.523-4.1487-11.135-4.7104-22.952-7.4163-34.343-1.9325-5.0833-8.5092-6.9664-11.409-10.732 4.0374 2.3909 8.5792 5.8428 11.669 9.7213 2.9434 10.744 3.1403 22.354 6.9412 33.018 5.2603 18.026 17.603 34.043 34.532 42.49 8.2597 5.1643 19.116 7.5254 24.647 16.138 2.2687 6.3719 0.58106 14.05-4.3189 18.8-16.213 20.008-35.831 38.174-46.083 62.26-2.3486 7.0543-5.3072 14.808-3.6612 22.3 1.6683 3.8038 6.2085 0.96674 7.5199-1.6255 4.3241-5.6603 7.128-12.558 11.734-17.896-0.74572 2.4435-3.5119 5.1181-4.7288 7.7685-2.8458 5.3072-6.5856 10.136-9.5335 15.241 1.6957 3.3598 6.3557 7.7538 10.072 4.2813 7.7224-7.7832 10.99-18.754 15.367-28.56 1.3512-3.0624 2.5949-6.9568 4.1657-9.451-4.0615 10.698-8.0338 21.59-13.648 31.593-1.3322 2.8536-4.6886 5.4067-4.3441 8.7209 5.4805 4.6586 15.871 4.7515 19.204-2.6268 4.1026-8.0858 6.0764-17.457 9.6772-25.489 0.8599 1.7336-1.6487 4.0232-1.7332 5.9759-2.5327 7.355-4.9847 14.772-8.1359 21.811 0.77335 3.4835 5.8497 2.7771 8.5474 2.4473 9.4351-3.0406 12.003-14.027 15.477-22.103 3.4114-7.6156 5.1273-16.356 10.491-22.9 11.327-11.264 26.79-17.488 37.6-29.29 3.1261-4.8468 2.9829-11.082 5.0585-16.409 6.8238-25.503 15.993-50.719 31.001-72.641 4.225-7.1998 10.637-14.153 9.8058-23.12 0.1656-5.7617-0.50214-11.503-1.3744-17.188 20.818-23.367 38.542-51.47 42.34-83.115 0.66378-10.822 1.6014-22.193-1.8609-32.633-2.4722-3.8107-8.0216-3.3076-11.897-4.7108-15.449-3.3604-31.414-2.1024-47.104-2.9072-29.865-0.94998-60.181 0.14256-89.43-6.6374-8.441-1.6847-16.533-6.228-25.417-5.0017-22.052 0.21901-44.138-0.2978-66.16 1.0892-3.5623 2.0822 1.8128 4.6758 2.9679 6.9316 1.8253 2.5261 3.9924 5.3394 5.2412 8.1925-1.5736-0.28579-2.198-3.6336-3.5687-4.9663-3.796-4.9557-8.5347-11.564-15.681-10.328-5.1748 0.26627-0.29849 4.5968 1.2627 6.6176 0.94579 1.7017 3.472 4.9008 2.897 6.2995-2.2911-4.9234-5.6345-9.664-10.068-12.744-29.422 0.48-58.714-1.5022-88.078-2.8588-18.108-0.34928-38.061 0.62576-52.862 12.385-2.7107 2.1991-4.9445-2.1837-7.0863-3.4872-6.3223-5.2059-13.126-10.539-21.036-12.957-7.2918 0.51897-10.005 8.8702-13.121 14.255-2.241 4.7815-6.911 10.064-12.813 8.1926-4.1829-1.2333-9.1167-3.2693-12.077-6.0339 3.5027 0.81834 6.8257 5.2868 10.771 4.3407 0.69396-1.8452 0.73588 2.3386 2.7221 1.6421 7.7504 0.40262 10.765-8.1907 13.797-13.743 2.2825-4.4339 5.6938-8.6345 10.763-9.789 3.171-2.8827 5.3912-7.4555 5.527-11.75-2.236-3.6265-7.5944-2.0004-11.115-1.8962-8.9593 2.1209-18.056 3.1972-27.007 5.5284-5.932 1.3018-9.7298 6.6121-12.251 11.459 1.7581-7.3928 9.0397-11.827 16.237-12.982 7.1478-1.8641 14.967-1.9219 21.806-4.8793 1.5814-3.1807-1.8996-6.5563-2.8858-9.5529-4.5717-10.078-13.801-17.364-24.339-20.396-9.2285-2.9964-19.169-1.3718-28.701-1.5855-16.627 1.3093-32.634 6.7944-48.271 12.303-1.0636 0.1737-4.7292 2.2752-4.2348 1.0418 2.1114-0.73527 6.5323-1.5632 4.8807-4.7467-3.0127-5.2276-5.8989-12.193-12.174-14.047-0.18276-0.016-0.36667-0.0161-0.54967-4e-3zm16.519 42.576c6.6796 0.21505 11.299 5.9565 15.146 10.732-3.3112 2.2518-6.9532 4.0299-10.159 6.4675 0.43804-4.4155-1.1868-9.5626-5.9869-10.765-2.2649-1.2232-6.1135-0.70411-7.676-2.1876 1.7191-3.0105 5.3375-4.384 8.6759-4.2468zm90.311 10.984c2.5845 6.5754-4.7085 10.828-8.1234 15.275-0.89362 1.0967-1.9569 2.1731-2.3368 3.577-0.49812-2.7505-4.0958-4.0304-4.5037-7.1015-2.2977-3.9872 3.3782-5.1776 5.6002-6.9687 3.0282-1.7214 6.1127-3.6328 9.3637-4.7814zm-102.85 14.485c1.0046-0.22632 6.0895 0.26772 2.3713 0.52066-1.8355-0.26905-4.996 0.57919-6.143-0.42813 1.2525-0.12497 2.5152-0.0744 3.7717-0.0925zm88.64 229.11c-1.3516 5.5156-4.5871 10.8-8.0171 15.146 2.636-4.9576 6.0786-9.9268 7.6829-15.146l0.16849-4e-3zm-1.1698 36.067c-0.74923 6.6236-1.4738 14.543-6.4178 19.708-0.4089-1.6354 2.44-3.1763 2.6917-5.1293 2.3026-4.5516 2.1475-10.115 3.7261-14.579z" fill="#fff"/>
<path d="m246.8 524.38c-2.205 0.53205-4.2116 1.6818-6.3435 2.4436-10.828 4.2086-22.065 7.4116-32.922 11.592-5.5146 2.2235-11.148 4.5416-15.765 8.3786-1.9207 1.5908-3.55 3.6002-4.2869 6.0156-3.3069 10.212-8.0006 19.957-14.16 28.759-3.0646 4.4755-6.5516 8.6371-10.086 12.742-1.0702 1.338-0.70856 3.168-1.1068 4.7399-1.3082 7.3527-3.8675 14.386-6.0433 21.526-2.8241 9.0485-5.874 18.109-7.148 27.537-0.22403 2.6435-0.24139 5.3142-0.0576 7.9597 0.40373 2.1254 1.1483 4.4378 2.9363 5.793 1.2757 0.57333 2.3394-0.62467 3.4443-1.0769 3.1002-1.7114 6.7957-1.728 10.183-1.0282 4.6162 0.8937 9.4072 1.9435 14.131 1.0462 6.5084-0.98552 12.892-3.728 17.515-8.5082 4.6051-4.7225 7.5006-10.773 10.082-16.763 1.5347-4.3705 2.4171-8.936 3.6348-13.399 1.9072-7.3297 3.9761-14.808 8.2738-21.151 3.4278-5.2238 8.3169-9.5007 13.965-12.288 8.0988-4.0208 17.233-5.5152 26.121-6.0425 1.6275-0.12735 3.276-0.064 4.8906-0.30698 1.3574-0.46378 1.1286-2.0661 1.2376-3.1968 0.63631-9.8851-1.483-19.761-4.8596-29.009-3.1804-8.6345-7.3938-16.855-12.024-24.792-0.32168-0.58179-0.92469-1.0184-1.6099-0.97168zm-41.48 38.344c-0.0466 2.0778-1.8459 3.5436-2.997 5.032-1.1636 1.335-2.4078 2.5976-3.7008 3.8072 0.11558-0.41999 0.80998-0.80108 1.1436-1.2195 1.8308-1.8824 3.7194-3.7824 5.0574-6.0588 0.30647-0.47168 0.33125-1.1239 0.49634-1.585zm28.988 3.5598c-1.2397 1.8606-3.3373 2.9914-5.5337 3.2502-1.1726 0.16966-2.1848 0.86244-2.9548 1.7368-0.0611-0.2106 0.45384-0.53578 0.66187-0.75562 1.503-1.3243 3.7138-1.036 5.3706-2.085 0.964-0.51101 1.7589-1.2902 2.3896-2.1726zm-14.511 0.1477c-0.96123 0.29958-2.2348 0.34951-3.314 0.548-0.8259 0.072-1.8049 0.35117-2.5391 0.30332 1.8113-0.32802 3.9701-0.61919 5.853-0.85132zm-33.463 15.686c-2.4896 1.775-5.6789 3.0034-7.2095 5.8699-0.93822 1.6902-1.1029 3.7189-0.7522 5.5952-0.30545 0.0431-0.14693-0.71128-0.21875-0.98242-0.12747-1.6744 0.11324-3.3896 1.011-4.8379 1.5055-2.7984 4.6721-3.9343 7.1128-5.7219zm3.4817 8.0064c-2.1746 0.3976-4.1813 1.7295-5.3787 3.5896-0.0352-0.33804 0.51615-0.83328 0.7771-1.1812 1.1787-1.3548 2.8515-2.1667 4.6035-2.4729z" fill="#fff"/>
<path d="m117.46 758.95c-17.099 4.6694-33.954 10.583-49.938 18.191-1.3648 1.836-0.31117 4.5758-0.6431 6.7822 0.21262 2.765-0.45304 5.6902 0.37427 8.343 2.9604 1.363 6.2508-0.54462 9.2262-1.178 7.5528-2.1817 14.813-5.6574 22.469-7.2209 9.3784-1.4315 18.866 3.471 28.197 0.78928 5.1186-1.3471 10.499-4.9408 15.869-2.6917 2.514 1.0759 4.229 3.7529 3.7676 6.5131 0.75042 2.6245 4.0963 0.99457 6.0788 1.2782 6.5594-0.52614 13.24-0.0954 19.721-1.321 1.5956-0.39496 3.8276-1.758 2.6912-3.6724-3.0895-7.3543-5.7676-14.926-9.4957-21.986-1.0879-1.3434-2.2536-2.5975-3.1067-4.1011-1.8984-1.5489-4.0504 0.82865-5.9966 1.1338-9.1928 3.6746-19.472 3.588-28.668 0.15606-2.6606-0.70223-5.2827-3.1863-8.1952-1.6559l-2.3507 0.64083z" fill="#016234"/>
<path d="m208.25 184.1c-4.0669-0.19184-7.4878 2.2062-9.8812 5.3002-5.7672 6.4819-12.072 12.652-16.868 19.897-0.90544 3.1016 2.7089 5.2924 3.7959 7.874 5.8006 8.0491 10.585 16.691 15.427 25.338 21.89 33.473 44.142 66.715 66.8 99.672 3.1491 5.0356 7.5181 9.1964 11.316 13.593 2.2168 3.1428 3.6591 7.1149 7.4609 8.7676 8.6803 5.354 13.915 14.596 17.243 23.967 2.3772 2.1302 6.2681 0.39185 9.1455 1.7637 3.3462 0.69811 2.7386 4.7535 1.5137 7.0225-0.77459 2.5805-3.334 5.0129-2.6904 7.7988 1.8398 1.6147 4.1231 2.8302 6.3848 3.7617 3.1278-0.31951 1.4413-4.4978 1.9807-6.5405 0.29205-20.347 0.13733-40.697 0.17754-61.045-3.6446-5.7453-8.6851-10.664-13.028-15.957-14.327-16.863-30.053-32.574-43.312-50.322-3.9005-5.9462-8.7965-12.779-7.3232-20.284 2.0947-4.1152-2.0661-7.5035-3.41-11.099-8.4038-16.085-14.319-33.688-25.492-48.184-4.715-5.8391-11.268-11.564-19.24-11.324z" fill="#016234"/>
<path d="m318.63 340.31c-2.449 0.69671-1.2214 3.8431-1.5968 5.7003-0.26042 20.568-0.11907 41.138-0.15648 61.707 1.0363 2.4618 4.304 2.8939 6.7348 2.9624 12.259 0.29356 24.604 0.25245 36.81 0.47854 1.6517 9e-3 3.8968-1.2989 2.7235-3.1696-11.108-16.962-21.185-34.631-32.152-51.714-3.6279-5.2613-6.8211-10.935-11.212-15.604-0.33123-0.26013-0.73614-0.35951-1.1511-0.36115z" fill="#016234"/>
<path d="m384.72 153.97c-1.7024 0.15223-1.7182 2.145-1.2868 3.3896 6.4192 38.124 12.916 76.235 19.379 114.35 0.82342 2.0927 3.5044 0.96258 5.229 1.249 2.1759-0.15487 4.4573 0.33902 6.5542-0.30127 1.1941-1.5666 0.26107-3.7292 0.43863-5.5675-0.77075-21.483-2.3607-43.356-9.9012-63.683-5.8284-15.988-12.678-31.599-18.379-47.616-0.33933-0.90791-0.88371-1.9404-2.0337-1.8223z" fill="#016234"/>
<path d="m421.5 56.825c-1.0901 0.77127-1.6819 2.0609-2.5556 3.0525-11.587 15.385-23.176 30.77-34.65 46.24-0.63043 0.94036 0.0284 2.0366 0.90991 2.522 3.6007 2.5941 7.8045 4.6484 12.292 4.9384 2.4517 0.15029 5.1649-0.70145 6.4847-2.9134 0.98537-1.5605 2.2518-2.9862 3.9534-3.7752 2.1735-1.2209 4.7566-1.3303 7.1798-1.0757 4.683 0.86504 8.2436 4.7766 9.842 9.1069 1.0894 2.617 1.5701 5.6616 3.6391 7.744 1.5357 1.4129 3.9184 1.3664 5.325 2.9765 1.1231 1.0488 2.4465 2.3711 4.1413 1.9817 1.5834-0.29208 3.3678-1.0321 4.8572-0.02 1.0436 0.46772 1.9879-0.37655 2.3721-1.3003 1.501-2.7819 3.0846-5.5436 4.3878-8.4155 0.28653-1.1891-0.6936-2.2332-1.0279-3.3313-8.3893-19.008-16.683-38.059-25.175-57.021-0.3943-0.70433-1.2208-0.99465-1.9761-0.70972z" fill="#016234"/>
<path d="m342.17 21.253c-1.6926 0.29393-1.978 2.35-2.9099 3.5321-9.5764 16.368-16.865 34.039-21.829 52.335-0.37665 1.1561-1.0351 2.9798 0.49504 3.5735 1.9892 2.5877 4.7162 4.713 7.9636 5.3986 2.8804 0.76899 6.3331 0.38392 8.3627-2.0084 3.618-3.9701 3.2155-9.9628 6.521-14.103 1.5564-2.0275 4.8783-1.8978 6.3702 0.1426 2.1838 2.5374 1.4188 6.1586 0.83278 9.0425-1.0094 4.2425-1.6583 8.6037-1.2626 12.972 0.47344 7.7116 4.2468 14.647 6.5522 21.89 1.6206 4.4692 2.0019 9.2511 3.34 13.791 0.95087 2.8172 3.4204 5.7265 6.6668 5.4248 2.7372-0.0686 4.8088-2.0485 6.573-3.9166 2.4333-2.4308 4.6543-5.1869 7.6606-6.9359 0.99739-1.3043 0.23752-3.0787 0.23409-4.5648-0.40243-4.1338-2.3199-7.896-3.3339-11.851-5.5726-19.18-8.748-39.077-14.232-58.334-2.2272-7.3614-4.5761-14.903-9.1143-21.214-2.0637-2.8522-5.2024-5.299-8.8903-5.1735z" fill="#016234"/>
<path d="m593.3 256.72c-1.4184-0.18964-2.4936 1.353-1.8573 2.6234 4.5226 15.757 8.9765 31.536 13.686 47.238 0.5168 1.4541 2.673 1.214 3.0056-0.23685 2.7713-7.0834 5.3926-14.227 8.1179-21.329 0.34667-1.6573-1.4351-2.4705-2.251-3.6433-6.5736-7.2911-12.338-15.413-17.207-23.908-0.81828-1.1311-2.3047-0.65031-3.4938-0.74508z" fill="#016234"/>
<path d="m691.04 580.01c-1.8318 2.2358-3.2193 4.8355-4.8695 7.2194-1.5088 2.433-3.2325 4.7706-4.566 7.2885-0.30465 1.3563 0.71777 2.6115 1.0251 3.9247 2.2082 6.6169 3.3322 13.607 2.5297 20.542-0.46781 4.8484-1.3445 9.8069-0.62387 14.694 1.1899 4.9024 3.1243 9.597 4.1861 14.538 0.15057 2.0333-0.28037 4.1172-0.2242 6.1777-0.0691 4.1769-0.18745 8.3674-0.0272 12.538 1.2183 9.1442 2.0755 18.342 3.63 27.438 1.6592 8.2741 4.5162 16.268 6.7208 24.385 3.1079 10.544 4.8582 21.452 5.0948 32.467 0.18434 1.6434 2.035 1.4988 3.2666 1.4391 4.3286-0.0331 8.6757 0.0656 12.993-0.0489 1.4598-0.16593 1.4777-1.8696 0.98686-2.928-3.1734-12.056-6.7776-24.113-8.6981-36.423-1.5833-11.765-2.2058-23.629-2.9708-35.46-1.5812-25.808-2.4165-51.737-6.3179-77.338-1.0513-6.626-2.2501-13.247-3.7587-19.777-0.94298-1.3158-2.7745-0.74014-4.1574-0.90548-1.3988 0.0882-2.8748-0.2207-4.2192 0.22839z" fill="#016234"/>
<path d="m695.82 572.13c-0.58578 0.17433-0.94598 0.70643-1.138 1.2571-0.85051 1.9809-2.0166 3.789-3.1388 5.6086-0.41453 0.7259-0.10097 1.7557 0.67688 2.0876 0.61281 0.26628 1.3068 0.14252 1.9571 0.18659 1.2507-4.5e-4 2.5046 0.0479 3.7533 6e-3 0.85494-0.0603 1.4863-0.96285 1.3015-1.7905-0.47793-2.1264-0.9808-4.2484-1.5372-6.3556-0.23371-0.77694-1.0995-1.2327-1.8747-0.99981z" fill="#016234"/>
<path d="m712.87 751.16c-2.5856 0.0482-5.1905-0.0621-7.764 0.0842-1.2118 0.15189-1.3575 1.548-1.2774 2.5312-0.0395 4.5078-0.33034 8.9288-0.86799 13.36-0.26055 1.2007 0.88094 2.1972 2.033 2.1042 4.4301 0.14415 8.6276 0.4327 13.004 1.2168 2.0411 0.30476 4.0099 0.94219 6.0098 1.4116 1.1839 0.18328 2.1266-1.0994 1.737-2.1997-1.018-5.8994-2.3887-11.744-3.9531-17.515-0.49375-1.3711-2.1436-0.96059-3.2744-1.0114-1.8822 6e-3 -3.7643 0.0123-5.6465 0.0185z" fill="#016234"/>
<path d="m703.56 769.45c-2.9642-0.0202-5.9276 0.098-8.8735 0.43693-2.4792 0.26723-4.9699 0.50346-7.4208 0.9671-1.0384 0.28119-1.4502 1.7375-0.65164 2.4844 0.74191 0.75806 1.9037 0.44117 2.8517 0.53282 9.2008 0.0219 18.402 0.0438 27.603-8e-3 0.97687-0.0806 2.2796 0.18953 2.9024-0.77385 0.68479-0.88849-4e-3 -2.2567-1.0823-2.3848-4.045-0.76466-8.1526-1.2925-12.276-1.2476-1.0174-0.01-2.0349-0.0105-3.0524-7e-3z" fill="#009833"/>
<path d="m723.52 750.68c-1.4298 0.21622-1.5475 1.8905-1.1473 2.9904 1.5032 5.9664 2.7427 11.962 3.924 17.993 0.44309 1.6024 2.4209 2.0176 3.8732 2.0996 12.389 0.2535 24.784 0.0902 37.175 0.14569 10.941-0.0296 21.9 0.0713 32.829-0.0399 1.7948-0.29225 1.2577-2.4442 1.3303-3.749-0.0326-5.888 0.0652-11.794-0.0489-17.671-0.2925-1.7944-2.4443-1.2574-3.749-1.3302-22.949-0.0451-45.899 0.0948-68.846-0.11437-1.7683-3e-3 -3.5807-0.10608-5.3403-0.32459z" fill="#009833"/>
<path d="m587.98 750.25c-1.9923-0.093-3.2336 1.6145-2.7336 3.5375 0.026 6.2799-0.28409 12.618-0.0496 18.862 0.99036 2.1697 4.0545 0.79519 5.9742 1.1818 26.777-0.0221 53.559 0.0442 80.334-0.0331 9.695-2.2907 19.489-3.8719 29.423-4.7032 2.737-0.48658 1.8216-3.9849 1.9363-5.9586-0.30808-3.6596-0.41183-7.4629-1.3502-10.978-1.7743-1.469-4.6129-0.36073-6.8202-0.71318-34.035-0.16612-68.075 0.046-102.11-0.43039-1.5461 0.17686-2.8525-0.39504-4.313-0.76394-0.0977-5e-3 -0.19572-5e-3 -0.29348-6.9e-4z" fill="#009833"/>
</g>
<g>
<path d="m259.77 721.22c-0.5033 0.1004-0.9948 0.2683-1.4788 0.4383-0.3002 0.142-0.3626 0.5366-0.1891 0.8012 0.3786 0.7463 0.7933 1.4757 1.2061 2.2023 0.1944 0.3382 0.7631 0.2822 0.8759-0.094 0.09-0.3146 0.019-0.6581 0.043-0.984-0.01-0.6258 0.031-1.2505 0.069-1.8741-0.01-0.2717-0.257-0.4969-0.5256-0.49z" fill="#009833" fill-rule="evenodd"/>
<path d="m574.01 389.67c-0.5995 0.15217-0.4201 0.88319-0.4507 1.338 0.036 0.42843-0.1346 1.1013 0.4166 1.2511 0.5271 0.11773 0.6728-0.50505 0.8038-0.87697 0.1072-0.45022 0.5735-1.036 0.1285-1.4182-0.2475-0.10766-0.4662-0.14638-0.6974-0.29081-0.067-2e-3 -0.1342-4e-3 -0.2008-3e-3z" fill="#009833" fill-rule="evenodd"/>
<path d="m42.5 792.5v-2.5c-0.08711 1.6668 0.62154 3.3577 1.871 4.4643 1.1764 1.042 2.7533 1.5439 4.3188 1.6818 1.5655 0.13783 3.139-0.0607 4.6969-0.26754 6.7186-0.89224 13.431-1.9507 19.976-3.7123 3.0421-0.81882 6.042-1.7881 9.0156-2.8284 2.6041-0.91109 5.1886-1.8769 7.7782-2.8284 3.4454-1.266 6.9491-2.518 10.607-2.8284 3.6954-0.31369 7.3962 0.34623 11.048 0.99574s7.357 1.2938 11.05 0.94881c2.2973-0.21462 4.5463-0.81033 6.7175-1.591 2.0722-0.74509 4.088-1.6614 6.216-2.2281 2.128-0.56669 4.4231-0.76723 6.5119-0.07 0.96445 0.32193 1.8698 0.83386 2.6138 1.5269 0.74402 0.693 1.3234 1.5692 1.6289 2.539 0.40978 1.3007 0.31669 2.7167-0.0181 4.0387-0.33482 1.322-0.9011 2.5716-1.4404 3.8242-0.5393 1.2526-1.058 2.5283-1.2892 3.8722s-0.15649 2.7764 0.44965 3.998c0.64425 1.2984 1.8472 2.2634 3.182 2.8284 1.1653 0.49326 2.4593 0.70692 3.7123 0.53033 1.3736-0.19359 2.6546-0.84705 3.7382-1.7132 1.0836-0.86613 1.9835-1.9402 2.8025-3.0598 1.5412-2.107 2.8451-4.4271 4.773-6.1872 1.9197-1.7527 4.339-2.8403 6.7175-3.8891 1.9387-0.85485 3.8803-1.7032 5.8247-2.5449" fill="#016234" fill-rule="evenodd" stroke="#016234" stroke-linejoin="round" stroke-width="3"/>
<path d="m175 787.5c0.37713 0.0952 0.77213 0.11907 1.158 0.07 0.96418-0.12261 1.8123-0.68248 2.74-0.97227 0.87106-0.27209 1.8074-0.30131 2.709-0.16043 0.90162 0.14089 1.7712 0.44782 2.5981 0.83375 1.6539 0.77187 3.1432 1.8563 4.7691 2.6854 1.2573 0.64118 2.5955 1.1278 3.9775 1.4142 4.0223 0.83344 8.1784-0.0511 12.286-0.0884 0.73773-7e-3 1.4791 0.0139 2.2097-0.0884 1.1283-0.15797 2.1926-0.60277 3.2704-0.97227 0.76659-0.26282 1.5555-0.49348 2.2425-0.92342 0.34347-0.21497 0.65891-0.47977 0.90533-0.80142 0.24643-0.32165 0.4221-0.70201 0.47611-1.1036 0.0437-0.32502 7e-3 -0.65859-0.0884-0.97227-0.21234-0.69628-0.70237-1.2742-1.2374-1.7678-1.7788-1.6408-4.1129-2.5319-6.4275-3.2381s-4.6978-1.2754-6.8307-2.4187c-0.89563-0.48007-1.7383-1.0572-2.6516-1.5026-1.9393-0.94574-4.1795-1.2909-5.922-2.5633-1.0113-0.73844-1.7888-1.7441-2.6516-2.6516-3.4399-3.6182-8.179-5.6333-12.551-8.0433-0.4387-0.24182-0.87508-0.48856-1.3258-0.70711-2.203-1.0682-4.7407-1.4329-7.1554-1.0284-1.1276 0.0711-2.2776-0.37481-3.0625-1.1875-0.52302-0.54149-0.88052-1.2255-1.125-1.9375-0.0962-0.28009-0.17674-0.56774-0.31575-0.82923s-0.34611-0.50001-0.62175-0.60827c-0.0659-0.0259-0.1347-0.044-0.20038-0.0704-0.0657-0.0265-0.12948-0.0625-0.17462-0.11706-0.0548-0.0663-0.0774-0.15799-0.0597-0.24212 0.0178-0.0841 0.0755-0.1589 0.15241-0.19736 0.0769-0.0385 0.17137-0.0398 0.24933-4e-3 0.078 0.0363 0.13779 0.10939 0.15791 0.19299" fill="#016234" fill-rule="evenodd" stroke="#016234" stroke-linejoin="round" stroke-width="3"/>
<path d="m67.462 778.12c-7.523 3.4692-14.935 7.1967-22.275 11.041-0.832 0.3937-1.8867 1.0845-1.4794 2.1649 0.1806 0.8363 0.6568 1.9477 1.7221 1.5462 7.3816-0.3901 14.83-0.5481 22.196-0.9241 0.8616-0.7162 0.3582-2.0877 0.5261-3.0663-0.037-3.4915 0.1117-7.0064-0.1142-10.484-0.1859-0.1843-0.2894-0.3342-0.5759-0.2772z" fill="#016234" fill-rule="evenodd" stroke="#016234" stroke-linejoin="round" stroke-width=".53033"/>
<path d="m382.5 735c-5.0363 1.5045-9.5581 4.6798-12.683 8.9062-0.74012 1.001-1.4047 2.0602-1.9446 3.182-1.0203 2.1203-1.5797 4.4277-2.1213 6.7175-0.6321 2.6725-1.2487 5.4811-0.53033 8.1317 0.54765 2.0208 1.841 3.7765 3.3809 5.1952s3.3283 2.5351 5.1044 3.6437c1.2999 0.81134 2.6143 1.6304 4.0659 2.1213 2.8722 0.9715 6.0075 0.57893 9.003 0.10973 2.9955-0.4692 6.0817-1.0018 9.0282-0.28651 2.1089 0.51195 4.0099 1.6338 6.0104 2.4749 0.94927 0.39912 1.928 0.73787 2.8284 1.2374 2.2027 1.2221 3.7721 3.3031 5.3033 5.3033 1.4422 1.884 2.9159 3.7583 4.0659 5.8336 1.4709 2.6545 2.3808 5.5814 3.7123 8.3085 1.1427 2.3405 2.5929 4.5252 4.2426 6.5407 1.0573 1.2917 2.1962 2.5145 3.3588 3.7123 1.948 2.007 3.9704 3.9514 6.1872 5.6569 2.1648 1.6655 4.5365 3.1097 7.1418 3.9301 2.6052 0.82041 5.4657 0.98693 8.061 0.13572 1.0052-0.32968 1.9616-0.80786 2.8284-1.4142l6.2069-5.4401" fill="none" stroke="#016234" stroke-linejoin="round" stroke-width="3"/>
<path d="m382.45 734.66c-0.6049 0.3176-0.1751 1.0371-0.1059 1.4878-5.9205 1.9438-11.153 6.2682-13.773 11.968-1.2659 3.1046-1.9989 6.4123-2.5005 9.7191-0.3979 2.4587 0.2112 5.0644 1.83 6.9836 2.2641 2.718 5.3874 4.5355 8.4268 6.2567 1.5767 0.9141 3.3777 1.4181 5.2068 1.3066 3.9605 0.1433 7.775-1.1997 11.706-0.975 2.4027-0.074 4.7497 0.8544 6.9085 1.8942 2.6978 1.265 5.7335 2.1393 7.7913 4.4276 2.3098 2.5411 4.3481 5.2971 6.2539 8.1548 2.6825 4.2995 3.8061 9.4067 6.8281 13.519 2.5868 3.6912 5.7833 6.9235 9.1338 9.9214 3.2557 2.7633 6.9873 5.384 11.329 5.9294 2.5529 0.145 5.4012 0.026 7.4297-1.7444 1.8565-1.5583 3.7948-3.0576 5.4629-4.8161 0.2412-0.8343-0.9052-1.0899-1.352-1.5826-13.55-9.8043-27.117-19.683-39.612-30.793-4.0295-3.6448-7.9181-7.4471-11.481-11.554-3.5571-4.1175-6.4193-8.802-8.5862-13.786-1.9237-4.2993-4.0403-8.5581-6.9987-12.253-1.1072-1.3676-2.1342-2.8337-3.4319-4.0264-0.1481-0.1027-0.3007-0.062-0.4653-0.036z" fill="#016234" fill-rule="evenodd" stroke="#016234" stroke-linejoin="round" stroke-width=".375"/>
<path d="m462.5 812.5c-0.7886 2.0642-0.88018 4.3878-0.25648 6.5077 0.6237 2.1199 1.959 4.0236 3.7398 5.3319 1.1557 0.849 2.4909 1.4493 3.8891 1.7678 1.9066 0.4343 3.9099 0.34378 5.8165-0.0904 1.9066-0.43413 3.7236-1.2039 5.4531-2.1163 3.459-1.8248 6.5984-4.2251 10.12-5.9251 2.8453-1.3733 5.9059-2.2702 9.0156-2.8284 6.1068-1.0963 12.359-0.89713 18.562-1.0607 6.1955-0.16335 12.375-0.69192 18.562-1.0607 11.091-0.66105 22.434-0.77931 33.057 2.4749 6.1966 1.8981 11.991 4.8983 18.031 7.2478 2.1405 0.83267 4.3128 1.5839 6.5104 2.2514 0.87696 0.24703 1.8646 0.0629 2.5936-0.48365 0.42742-0.32043 0.76253-0.75225 1.0207-1.2199s0.44263-0.97223 0.60615-1.4808c0.32705-1.0171 0.58554-2.0833 1.2016-2.9561 0.54114-0.76669 1.3357-1.3376 2.2097-1.6794 0.8538-0.3339 1.7988-0.46623 2.5633-0.97227 0.45114-0.29864 0.81974-0.72064 1.055-1.2078" fill="#016234" fill-rule="evenodd" stroke="#016234" stroke-linejoin="round" stroke-width="3"/>
<path d="m517.3 790.25c-14.193 0.062-28.664 3.4065-40.602 11.309-4.5611 2.9325-8.642 6.5658-12.34 10.514-0.4366 0.9415 0.9247 0.9203 1.4957 0.872 12.729 0.2564 25.46 0.611 38.193 0.5839 8.9239-0.5197 17.877-0.4231 26.796-1.1451 11.879-0.7829 24.039-1.6108 35.727 1.0302 2.4336 0.4615 4.7302 1.6431 7.2719 1.4212 9.8415 0.2119 19.683 0.4184 29.526 0.5803 1.3201-0.6122-0.5501-1.4042-1.1836-1.6673-14.713-7.3527-30.045-13.554-45.904-17.964-10.274-2.7857-20.802-4.838-31.448-5.3938-2.5092-0.1047-5.021-0.1472-7.5323-0.1403z" fill="#016234" fill-rule="evenodd" stroke="#016234" stroke-linejoin="round" stroke-width=".53033"/>
<path d="m610 816.25c0.2859-0.25663 0.57766-0.50672 0.875-0.75 2.3922-1.9574 5.2018-3.4875 8.25-4 0.78535-0.13205 1.5804-0.19603 2.375-0.25 1.748-0.11874 3.499-0.1897 5.25-0.25 1.4602-0.0503 2.9224-0.0933 4.375-0.25 3.4237-0.36938 6.7488-1.3652 10-2.5 3.1808-1.1102 6.3834-2.3725 9.75-2.5 0.66626-0.0252 1.3333-5e-3 2 0 6.4489 0.0527 12.828-1.2332 19.125-2.625 0.87834-0.19414 1.7566-0.39054 2.625-0.625 3.3524-0.90509 6.5634-2.3775 10-2.875 0.66495-0.0963 1.3348-0.15532 2-0.25 2.7988-0.39839 5.4648-1.4181 8.125-2.375 2.7774-0.99906 5.5764-1.9368 8.375-2.875 1.1748-0.39382 2.3503-0.78801 3.5-1.25 0.62465-0.25101 1.2416-0.522 1.875-0.75 2.2316-0.80325 4.6275-1.0594 6.8742-1.8193 1.1234-0.37994 2.2136-0.89047 3.1479-1.6208s1.7088-1.6915 2.1029-2.81c0.28894-0.82001 0.36788-1.7094 0.25797-2.5719-0.10991-0.86245-0.40635-1.6976-0.83839-2.4521-0.86409-1.509-2.2529-2.6716-3.7946-3.476-0.68004-0.35481-1.3931-0.6455-2.125-0.875-3.3246-1.0425-6.895-0.79484-10.375-0.625-8.4316 0.4115-17.004 0.32093-25.125 2.625-6.1699 1.7505-11.865 4.8261-17.75 7.375-2.1186 0.91758-4.2718 1.7703-6.5 2.375-3.4003 0.92272-6.9311 1.2565-10.375 2-2.541 0.54858-5.0286 1.3189-7.5 2.125-3.5712 1.1648-7.1204 2.4076-10.75 3.375-2.4901 0.66367-5.0139 1.1966-7.5 1.875-2.0975 0.57239-4.1811 1.2542-6.0869 2.3008s-3.6369 2.4797-4.7881 4.3242c-0.75165 1.2043-1.239 2.5505-1.75 3.875-0.4373 1.1334-0.89574 2.2587-1.375 3.375" fill="#016234" fill-rule="evenodd" stroke="#016234" stroke-linejoin="round" stroke-width="3"/>
<path d="m75 550c-3.797-1.3161-8.1699-0.8538-11.608 1.2271-3.4379 2.0809-5.8753 5.7408-6.4701 9.7152-0.61926 4.1379 0.77051 8.5153 3.6096 11.589 2.8391 3.0733 7.0575 4.8004 11.24 4.6749 0.95112-0.0285 1.8994-0.14769 2.8284-0.35355 2.5623-0.56778 4.9366-1.7833 7.1697-3.1622s4.3567-2.9319 6.6189-4.2625c2.5438-1.4961 5.2506-2.7037 7.7699-4.2407 2.5193-1.537 4.8923-3.4591 6.3722-6.0123 0.6944-1.198 1.1779-2.5102 1.8926-3.6962 0.35737-0.593 0.77409-1.155 1.282-1.6255 0.5079-0.47052 1.1106-0.84814 1.7752-1.0423 0.76259-0.22277 1.591-0.19587 2.3485 0.0439 0.75742 0.23974 1.4434 0.68785 1.9925 1.262 1.0983 1.1482 1.622 2.7628 1.6695 4.351 0.0461 1.54-0.32216 3.0654-0.82339 4.5223-0.50122 1.4569-1.1364 2.8645-1.6515 4.3166-1.5217 4.2902-1.9664 8.8856-2.1213 13.435-0.20059 5.8896 0.0642 11.785 0 17.678-0.1388 12.738-1.8144 25.467-1.0607 38.184 0.44734 7.5476 1.7492 15.098 1.0607 22.627-0.90456 9.8911-5.1912 19.177-6.7175 28.991-1.3973 8.9847-0.44676 18.142 0 27.224 0.15107 3.071 0.24486 6.1527 0.70711 9.1924 1.1209 7.3709 4.3844 14.28 8.4853 20.506 0.89516 1.3592 1.857 2.7176 3.1743 3.6732 0.65867 0.47782 1.4025 0.84769 2.1962 1.0269 0.79375 0.17923 1.6387 0.16245 2.4076-0.10392 1.0756-0.37264 1.9427-1.2097 2.5521-2.1712 0.60938-0.96151 0.98756-2.0487 1.337-3.1321 3.7388-11.591 4.7583-23.885 4.9498-36.062 0.0296-1.8855 0.04-3.7716 0-5.6568-0.13539-6.3729-0.84691-12.721-1.0607-19.092-0.24132-7.1925 0.15252-14.392 0.7071-21.567 1.4581-18.865 4.0289-37.656 4.5962-56.569 0.39575-13.194-0.18544-26.399 0-39.598 0.16249-11.565 0.91338-23.114 1.7678-34.648 0.45829-6.1872 0.90917-12.632-1.4142-18.385-0.43287-1.0718-0.96166-2.1115-1.657-3.0348s-1.5631-1.7294-2.5856-2.2685c-1.1393-0.60061-2.4472-0.85421-3.7341-0.80314-1.2869 0.0511-2.553 0.39986-3.7213 0.94191-2.3366 1.0841-4.2483 2.9039-5.9797 4.811-3.2822 3.6153-6.0714 7.6442-8.8388 11.667-1.8175 2.6421-3.6327 5.2909-5.6569 7.7782-6.638 8.1568-15.522 14.467-25.409 18.049z" fill="#016234" fill-rule="evenodd" stroke="#016234" stroke-linejoin="round" stroke-width="3"/>
<path d="m681.25 595c0.68495 1.6096 1.291 3.2527 1.8152 4.9216 1.7544 5.5855 2.5848 11.482 2.2097 17.324-0.29202 4.5481-1.3076 9.0571-1.149 13.612 0.0372 1.0678 0.13929 2.1352 0.35356 3.182 0.30303 1.4804 0.82683 2.9047 1.3258 4.331 0.86512 2.4728 1.6615 4.9718 2.2981 7.513 0.23806 0.95024 0.45371 1.9061 0.64671 2.8665-1.3656 16.748 0.0772 33.722 4.25 50 1.0546 4.114 2.2814 8.1815 3.5 12.25 1.8565 6.1986 3.6971 12.412 5 18.75 2.7166 13.216 3.057 26.916 1 40.25" fill="#016234" fill-rule="evenodd" stroke="#016234" stroke-linejoin="round" stroke-width="3"/>
<path d="m137.5 357.5c-0.25376 0.0545-0.52763 9e-3 -0.75-0.125-0.25308-0.15232-0.42972-0.40648-0.55552-0.67374-0.12581-0.26725-0.2079-0.55276-0.31948-0.82626-0.48468-1.1881-1.513-2.0952-2.6675-2.655s-2.4349-0.80537-3.7075-0.97c-0.95312-0.12331-1.9172-0.20443-2.875-0.125-2.8477 0.23615-5.3943 1.8636-7.56 3.7278-2.1656 1.8642-4.0932 4.0171-6.44 5.6472-0.99815 0.69333-2.0625 1.285-3.125 1.875-2.8584 1.5873-5.8088 3.2493-7.7533 5.8778-0.97226 1.3142-1.6642 2.8606-1.8302 4.487-0.16604 1.6263 0.22186 3.3317 1.2085 4.6352 0.62421 0.82467 1.4688 1.4707 2.4 1.9208 0.93119 0.4501 1.9478 0.70888 2.975 0.82922 2.3556 0.27597 4.7274-0.1647 7.0774-0.48468 2.3501-0.31998 4.7964-0.51192 7.0476 0.23468 0.9567 0.31728 1.8502 0.79584 2.75 1.25 1.8639 0.94073 3.8518 1.8453 5.125 3.5 1.2322 1.6014 1.6186 3.6818 2.5 5.5 0.49111 1.0131 1.1444 1.9538 1.9678 2.7216 0.82342 0.76785 1.8203 1.3595 2.9072 1.6534 0.57002 0.15413 1.16 0.22608 1.75 0.25 0.45803 0.0186 0.91667 8e-3 1.375 0 0.33741-6e-3 0.68174-0.0128 1-0.125 0.36762-0.12964 0.67241-0.39028 0.95874-0.65479 0.28632-0.26452 0.56927-0.54259 0.91626-0.72021 0.2254-0.11538 0.47092-0.18462 0.70973-0.26882s0.47697-0.18688 0.66527-0.35618c0.25043-0.22515 0.39103-0.54964 0.46896-0.87725 0.0779-0.32762 0.10028-0.66564 0.15604-0.99775 0.15231-0.90711 0.55006-1.7523 0.95703-2.5772 0.40697-0.82488 0.83116-1.6528 1.043-2.5478 0.29226-1.235 0.16382-2.532-0.0833-3.7769-0.24713-1.2448-0.61106-2.4669-0.79169-3.7231-0.30909-2.1497-0.0746-4.3491-0.375-6.5-0.13015-0.93186-0.35984-1.8472-0.625-2.75-1.3217-4.4999-3.5451-8.7329-6.5-12.375z" fill="#016234" fill-rule="evenodd" stroke="#016234" stroke-linejoin="round" stroke-width="3"/>
<path d="m180 210c5.1796 6.7823 9.9416 13.883 14.25 21.25 4.258 7.2804 8.0805 14.837 11 22.75 1.0515 2.85 1.988 5.7557 2.5 8.75 1.2942 7.5693-0.17054 15.332 0.25 23 0.24035 4.3822 1.0953 8.7055 2 13 0.3709 1.7607 0.75096 3.5212 1.25 5.25 1.731 5.9966 4.8946 11.549 9 16.25 9.1684 10.499 22.446 16.362 35.5 21.25 5.8158 2.1779 11.778 4.2797 16.75 8 4.4322 3.3161 7.9318 7.8654 10 13" fill="#016234" fill-rule="evenodd" stroke="#016234" stroke-linejoin="round" stroke-width="3"/>
<path d="m323.66 409.34c-0.5996 0.0932-1.3567-0.19959-1.8444 0.21457-0.4034 0.56614 0.3912 0.92808 0.7671 1.1906 2.4503 1.5343 4.799 3.1842 6.8327 5.2204 1.9393 1.8245 3.6945 3.8776 5.8752 5.4247 0.6524 0.23935 1.1075-0.49223 1.595-0.80188 4.8673-4.0315 10.63-6.8441 16.667-8.6874 1.8695-0.60066 3.8008-1.014 5.6887-1.5194 0.6216-0.26863 0.1312-1.14-0.4538-0.9402-11.709-0.0363-23.418-0.0978-35.127-0.10143z" fill="#016234" fill-rule="evenodd" stroke="#016234" stroke-linejoin="round" stroke-width=".26517"/>
<path d="m317.5 80c1.0886 1.8953 2.6651 3.5076 4.5354 4.6386 1.8704 1.1309 4.0305 1.7779 6.2146 1.8614 0.88159 0.03371 1.7723-0.02378 2.625-0.25 1.3362-0.35447 2.5487-1.122 3.5-2.125 1.5863-1.6726 2.4158-3.9127 3.0673-6.1239 0.65153-2.2112 1.1782-4.4916 2.3077-6.5011 0.36468-0.64883 0.79343-1.2681 1.3325-1.7813 0.53906-0.51322 1.1942-0.91806 1.9175-1.0937 0.61947-0.15039 1.277-0.12861 1.8915 0.04116 0.61444 0.16977 1.1856 0.48539 1.6711 0.89846 0.97104 0.82614 1.581 2.0237 1.8495 3.27s0.21564 2.5432 0.0227 3.8034c-0.19296 1.2602-0.52332 2.4946-0.80974 3.7369-0.92441 4.0096-1.3936 8.154-1 12.25 0.37514 3.9038 1.5246 7.693 2.875 11.375 1.3756 3.7507 2.9675 7.4263 4.125 11.25 0.68265 2.2551 1.212 4.5553 1.625 6.875 0.40398 2.269 0.7072 4.5925 1.6614 6.6904 0.47708 1.0489 1.1183 2.0328 1.9557 2.8244 0.83739 0.79161 1.8778 1.3852 3.008 1.6101 1.1688 0.23264 2.397 0.0644 3.5091-0.36386 1.1122-0.42825 2.1148-1.1076 3.0111-1.893 1.7928-1.5707 3.1717-3.5554 4.8547-5.2432 1.2631-1.2666 2.6967-2.3629 4.25-3.25" fill="none" stroke="#016234" stroke-linejoin="round" stroke-width="3"/>
<path d="m382.5 143.75c-3.9839 1.2773-7.4487 4.1038-9.5 7.75-1.6519 2.9362-2.3835 6.3065-2.7203 9.6586-0.33689 3.352-0.30048 6.7303-0.52966 10.091-0.46341 6.7964-2.0074 13.467-3.0086 20.205s-1.4482 13.7 0.25859 20.295c0.33041 1.2767 0.74042 2.5337 1.25 3.75 1.5565 3.7152 4.0616 7.0384 7.25 9.5 2.5634 1.9791 5.5382 3.3958 8 5.5 3.1753 2.714 5.3471 6.466 6.6655 10.43s1.8288 8.1511 2.0845 12.32c0.69557 11.342-0.43078 22.848 1.75 34 0.64413 3.2939 1.5719 6.5246 2.5 9.75 2.6693 9.2763 5.3968 18.656 10.25 27 2.3096 3.9709 5.0846 7.6709 8.25 11" fill="#016234" fill-rule="evenodd" stroke="#016234" stroke-linejoin="round" stroke-width="3"/>
<path d="m412.8 313.82c-0.4487 3e-3 -0.8977-2e-3 -1.3461 7e-3 -0.257 0.0101-0.4734 0.24844-0.4644 0.50467 0.034 0.29162 0.096 0.58033 0.1411 0.87079 0.583 3.4268 1.1628 6.8544 1.7483 10.281 0.044 0.2569 0.3124 0.44576 0.5692 0.3973 0.2445-0.0332 0.4328-0.26931 0.4207-0.51433 0-3.4111-0.013-6.8222 0.012-10.233-1e-3 -0.28666 0.01-0.57395 0-0.86023-0.021-0.25344-0.2571-0.45887-0.5102-0.45084-0.1895-2e-3 -0.3791-2e-3 -0.5687-2e-3z" fill="#016234" fill-rule="evenodd" stroke="#016234" stroke-linejoin="round" stroke-width=".033146"/>
<path d="m407.62 271.6c-1.1016 0.0185-2.2076-0.0332-3.3065 0.0506-0.3852 0.0433-0.5486 0.47869-0.4208 0.81199 2.3307 13.79 4.6667 27.579 7.0207 41.365 0.039 0.38674 0.4422 0.55303 0.7887 0.48018 0.6016-0.0311 1.2104-3e-3 1.8074-0.0861 0.4141-0.13314 0.3767-0.60051 0.3803-0.94698 0.1408-12.46 0.4271-24.919 0.3629-37.38-0.018-1.2809-0.015-2.5654-0.054-3.8439-0.034-0.41613-0.5033-0.49781-0.8423-0.45141-1.9121 1.2e-4 -3.8242-3.4e-4 -5.7363 4.3e-4z" fill="#016234" fill-rule="evenodd" stroke="#016234" stroke-linejoin="round" stroke-width=".13258"/>
<path d="m383.66 150.45c-0.1784 0.0214-0.3393 0.14619-0.4032 0.31431-0.041 0.10171-0.041 0.21486-0.018 0.32096 0.2217 1.313 0.444 2.626 0.6681 3.9386 0.027 0.16193 0.1357 0.30746 0.2856 0.37516 0.088 0.0422 0.1868 0.0492 0.2829 0.0458 0.1931-1e-3 0.3865 3e-3 0.5796-3e-3 0.178-8e-3 0.3486-0.11576 0.4272-0.2766 0.067-0.12911 0.07-0.2861 0.016-0.42043-0.3349-1.0001-0.6679-1.9991-0.9929-3.0025-0.1044-0.3206-0.2072-0.64037-0.3102-0.96174-0.059-0.16542-0.2082-0.29543-0.3818-0.32519-0.05-0.01-0.1021-0.0103-0.153-5e-3z" fill="#016234" fill-rule="evenodd" stroke="#016234" stroke-linejoin="round" stroke-width=".011719"/>
<path d="m415 350c-0.60695 0.069-1.2064 0.20378-1.7845 0.40125-2.4517 0.83751-4.4162 2.7812-5.702 5.0305-1.2857 2.2493-1.9546 4.797-2.4298 7.3439-0.36691 1.9666-0.62645 3.9516-0.97227 5.922-0.3135 1.7862-0.69704 3.6303-0.26517 5.3917 0.29616 1.2079 0.97105 2.3083 1.8562 3.182 1.3778 1.36 3.2245 2.1694 4.5962 3.5355 0.8144 0.8111 1.4376 1.7969 1.9445 2.8284 0.25603 0.52093 0.48398 1.0551 0.70711 1.591 0.9237 2.2183 1.7682 4.4727 2.8284 6.6291 0.80688 1.6411 1.7995 3.2872 3.3588 4.2426 1.3524 0.82867 3.0645 1.0449 4.5804 0.57846s2.8103-1.6078 3.4629-3.0533" fill="none" stroke="#016234" stroke-linejoin="round" stroke-width="3"/>
<path d="m414.6 351.11c-2.0932 0.32205-3.8702 1.6954-5.1695 3.3094-1.822 2.2883-2.6768 5.1664-3.2312 7.9942-0.4842 2.5662-0.8628 5.1488-1.2916 7.7244-0.2092 1.2935-0.4042 2.6463 1e-3 3.9243 0.4124 1.4461 1.4693 2.6096 2.6865 3.447 1.2988 0.93467 2.6854 1.7452 3.7562 2.958 1.6143 1.7409 2.3772 4.0422 3.2826 6.1879 0.8769 2.0802 1.6841 4.2039 2.8187 6.1619 0.8162 1.3663 2.0281 2.6516 3.647 2.9821 0.7859 0.15173 1.6209 0.11482 2.3854-0.12525 0.8482-0.27487 1.6041-0.79643 2.156-1.4974 0.1413-0.17063 0.2744-0.34858 0.3899-0.53775 0.7355 0.30682 1.4459 0.68333 2.1956 0.95009 0.4389 0.0898 0.7651-0.47743 0.4795-0.81889-1.3275-2.0008-2.5994-4.0507-3.7082-6.1739-3.269-6.1863-5.5262-12.858-7.1165-19.627-1.2499-5.3015-2.0809-10.692-2.686-16.105-0.01-0.32384-0.1442-0.7327-0.5236-0.75365-0.024 1e-3 -0.048-3e-3 -0.072-7.8e-4z" fill="#016234" fill-rule="evenodd" stroke="#016234" stroke-linejoin="round" stroke-width=".13258"/>
<path d="m383.75 107.5c2.8895 2.5271 6.3351 4.4149 10.02 5.4902 1.7107 0.49915 3.5032 0.8264 5.2736 0.62294 1.7704-0.20345 3.5263-0.9884 4.6259-2.3907 0.39345-0.50175 0.695-1.0686 1.0607-1.591 0.81094-1.1584 1.9343-2.0844 3.1926-2.7298s2.6486-1.0152 4.0553-1.1593c0.82224-0.0842 1.6535-0.0925 2.4749 0 2.4789 0.27924 4.8086 1.4875 6.6206 3.202 1.8121 1.7144 3.1248 3.9144 3.986 6.2556 0.41818 1.1368 0.73408 2.3091 1.149 3.4471 0.20817 0.57089 0.44124 1.133 0.70711 1.6794 0.57598 1.1837 1.3447 2.3302 2.4749 3.0052 1.102 0.6581 2.4534 0.81238 3.5355 1.5026 0.66267 0.42267 1.1879 1.0234 1.7504 1.5724 0.56252 0.54895 1.1989 1.0673 1.9619 1.2561 0.8279 0.20481 1.6963-3e-3 2.5202-0.22331 0.82385-0.22055 1.6784-0.45672 2.518-0.30702 0.89796 0.1601 1.6997 0.78566 2.0734 1.6177" fill="none" stroke="#016234" stroke-linejoin="round" stroke-width="3"/>
<path d="m421.85 57.76c-4.0275 5.196-7.9411 10.483-11.91 15.725-8.2848 11.034-16.608 22.04-24.82 33.129-0.3731 0.65242 0.4682 1.0077 0.8614 1.3574 3.0962 2.2345 6.659 3.9341 10.445 4.5574 2.0842 0.25264 4.5108 0.0341 6.0422-1.5651 1.0401-1.1602 1.7484-2.603 2.9801-3.5962 2.2477-1.9845 5.2679-2.7628 8.2191-2.7091 4.3456 0.14557 8.2934 2.8756 10.553 6.5361 1.3789 2.1174 2.1232 4.5844 2.9195 6.9718 0.6266 1.6101 1.3281 3.4161 2.8932 4.3323 1.4218 0.69546 3.1003 0.9571 4.2561 2.1251 0.8289 0.67158 1.5023 1.6272 2.5302 2.0027 1.4582 0.27189 2.8353-0.58854 4.2938-0.54707 0.8616-0.074 1.6216 0.36618 2.4008 0.63995 0.6703-0.0112 0.813-0.85422 1.1416-1.2956 1.3997-2.5764 2.8343-5.1405 4.084-7.7932-0.026-0.77127-0.5616-1.4458-0.8007-2.1741-8.396-19.174-16.804-38.344-25.278-57.483-0.146-0.30997-0.533-0.43194-0.8117-0.2132z" fill="none" stroke="#016234" stroke-linejoin="round" stroke-width=".26517"/>
<path d="m425 160c8.3841 8.7007 15.193 18.914 20 30 0.47483 1.0951 0.9313 2.2006 1.5 3.25 1.2761 2.3546 3.1076 4.3929 5.25 6 2.1643 1.6236 4.6351 2.8126 6.75 4.5 3.1748 2.533 5.4136 6.1005 6.8498 9.8996 1.4361 3.799 2.1139 7.8415 2.573 11.877 0.9183 8.0708 1.0726 16.521 4.8272 23.724 1.8335 3.5174 4.4447 6.5581 6.685 9.8315 2.2403 3.2734 4.1629 6.9548 4.315 10.919 0.0602 1.5683-0.15965 3.1318-0.27345 4.6971-0.11381 1.5653-0.1171 3.17 0.35995 4.6651 0.23852 0.74758 0.59766 1.461 1.0936 2.069 0.49598 0.60809 1.1317 1.1087 1.858 1.4057s1.544 0.3844 2.3075 0.20294c0.76343-0.18147 1.466-0.63902 1.9044-1.2898 0.37835-0.56165 0.54901-1.2333 0.72295-1.8878 0.17394-0.65448 0.36612-1.324 0.77705-1.8622 0.46756-0.61244 1.1698-0.99303 1.75-1.5 0.75306-0.65798 1.2955-1.5272 1.7096-2.4374 0.41408-0.91026 0.70899-1.8691 1.0404-2.8126 1.3972-3.9782 3.4446-7.6896 5.25-11.5 0.46577-0.98303 0.91751-1.9781 1.217-3.0239s0.44329-2.1502 0.28304-3.2261c-0.15778-1.0593-0.60673-2.0615-1.2046-2.9502-0.59789-0.88862-1.3424-1.6699-2.1299-2.3958-1.575-1.4518-3.3489-2.7144-4.6655-4.4041-1.2181-1.5633-1.9879-3.4205-2.75-5.25-2.111-5.0675-4.2833-10.147-5.5-15.5-1.8549-8.161-1.4467-16.78-4-24.75-1.622-5.0629-4.3903-9.688-7.5-14-0.48747-0.67596-0.98396-1.3456-1.5-2-0.95164-1.2068-1.9687-2.3605-3-3.5-4.5579-5.0357-9.4187-9.8208-13.5-15.25-1.8754-2.4948-3.5777-5.1147-5.25-7.75-2.5872-4.077-5.2295-8.3258-9.25-11-1.3741-0.91395-2.893-1.6248-4.5-2-0.49396-0.11533-0.99534-0.19889-1.5-0.25" fill="#016234" fill-rule="evenodd" stroke="#016234" stroke-linejoin="round" stroke-width="3"/>
<path d="m523.75 60c-0.67567-1.1534-1.5715-2.1772-2.625-3-1.7377-1.3572-3.9236-2.1552-6.1284-2.1413-2.2048 0.01392-4.4108 0.85933-5.9966 2.3913-1.0937 1.0566-1.876 2.405-2.4155 3.8269-0.53953 1.4219-0.84617 2.9211-1.0845 4.4231-0.21648 1.3642-0.3787 2.7498-0.25 4.125 0.28089 3.0015 1.9847 5.7881 4.375 7.625 0.99906 0.76776 2.1088 1.3801 3.125 2.125 2.9024 2.1273 4.9399 5.2734 6.25 8.625 2.1594 5.5243 2.4885 11.675 5.0041 17.046 1.2578 2.6858 3.1 5.1693 5.6106 6.7479 1.2553 0.78932 2.6668 1.3416 4.1349 1.5498 1.4682 0.20818 2.9925 0.0665 4.3754-0.46888 0.83543-0.32346 1.6098-0.78413 2.375-1.25 0.84233-0.51283 1.6884-1.0421 2.375-1.75 1.2551-1.294 1.8802-3.1044 2.0101-4.9025 0.12989-1.7981-0.19795-3.5986-0.6351-5.3475-0.95965-3.8393-2.4641-7.5596-4.625-10.875-2.4496-3.7584-5.6954-6.9371-8.25-10.625-1.2874-1.8585-2.3933-3.8385-3.375-5.875-1.8809-3.902-3.3102-8.0215-4.25-12.25z" fill="#016234" fill-rule="evenodd" stroke="#016234" stroke-linejoin="round" stroke-width="3"/>
<path d="m635 230c-0.12378-0.25061-0.24878-0.50061-0.375-0.75-2.578-5.0938-5.6774-9.9648-7.5-15.375-0.69139-2.0523-1.1965-4.2334-0.875-6.375 0.22647-1.5085 0.85284-2.926 1.5361-4.2898 0.68328-1.3638 1.4329-2.7023 1.9347-4.1428 0.5018-1.4405 0.74611-3.0144 0.38542-4.4965-0.18035-0.74105-0.51261-1.4494-0.99953-2.0364s-1.1312-1.0494-1.8567-1.2845c-0.95624-0.30996-2.0093-0.21479-2.9634 0.10166-0.95411 0.31646-1.8239 0.84259-2.6616 1.3983-0.72255 0.4794-1.4281 0.98407-2.125 1.5-2.41 1.784-4.7721 3.7661-6.25 6.375-0.3594 0.63444-0.66345 1.3022-0.875 2-0.43182 1.4244-0.47065 2.9426-0.875 4.375-0.31292 1.1085-0.83808 2.1429-1.3038 3.1963-0.46574 1.0535-0.87913 2.1538-0.94619 3.3037-0.0869 1.4895 0.42622 2.9798 1.2843 4.2004 0.85812 1.2205 2.0451 2.1846 3.3407 2.9246 1.1079 0.63282 2.3212 1.1252 3.25 2 0.62388 0.58763 1.0913 1.3249 1.4582 2.0994 0.36696 0.77452 0.63852 1.59 0.91677 2.4006 0.81968 2.388 1.718 4.7787 3.125 6.875 1.7924 2.6704 4.3958 4.7884 7.375 6" fill="#016234" fill-rule="evenodd" stroke="#016234" stroke-linejoin="round" stroke-width="3"/>
<path d="m518.75 223.75c1.188 1.0612 2.649 1.8143 4.2025 2.1664 1.5536 0.35212 3.1964 0.30251 4.7259-0.14273 0.84397-0.24568 1.6708-0.62172 2.2981-1.2374 0.53782-0.52788 0.90601-1.2115 1.1346-1.9296s0.32326-1.4724 0.36804-2.2246c0.0581-0.97697 0.0341-1.9598 0.1549-2.931 0.12081-0.97122 0.399-1.9488 0.99414-2.7258 0.39408-0.51447 0.91-0.91996 1.4188-1.3213 0.5088-0.40138 1.0224-0.81067 1.4096-1.3303 0.44538-0.59765 0.71254-1.327 1.2374-1.8562 0.47065-0.47448 1.1136-0.74705 1.7678-0.88388 0.95472-0.19969 1.943-0.13173 2.9148-0.0471 0.97171 0.0846 1.9532 0.18469 2.9189 0.0471 1.2078-0.17203 2.3455-0.71515 3.3133-1.458s1.7731-1.6805 2.462-2.6875c1.3776-2.0139 2.3013-4.3033 3.5939-6.3728 0.93975-1.5046 2.0853-2.9151 2.6516-4.5962 0.65455-1.9429 0.48266-4.1042 1.2374-6.0104 0.46923-1.185 1.27-2.2026 2.0137-3.2377s1.4546-2.1404 1.6986-3.3914c0.2013-1.0318 0.0646-2.1267-0.38417-3.0773-0.44878-0.95062-1.2073-1.752-2.1318-2.2522-1.1013-0.64417-2.239-1.2259-3.406-1.7416-1.3159-0.58141-2.6695-1.0791-3.9574-1.72-1.2879-0.64091-2.5223-1.4379-3.4672-2.5226-0.65249-0.749-1.1513-1.6162-1.6788-2.458s-1.0973-1.6747-1.8568-2.315c-0.66094-0.55726-1.4557-0.95466-2.2981-1.149" fill="#016234" fill-rule="evenodd" stroke="#016234" stroke-linejoin="round" stroke-width="3"/>
<path d="m579 211c-2.1024 0.44447-4.0615 1.5437-5.5364 3.1064-1.4771 1.565-2.4418 3.5333-3.3588 5.4801-0.35045 0.744-0.69964 1.4966-0.88388 2.2981-0.24504 1.066-0.18901 2.1762-0.0987 3.2663 0.0903 1.09 0.21354 2.1867 0.0987 3.2745-0.24857 2.3546-1.5841 4.4494-3.0519 6.3072-1.4678 1.8578-3.1209 3.604-4.1959 5.7136-0.92035 1.8061-1.3812 3.8175-1.591 5.8336-0.19693 1.8929-0.17778 3.8206 0.22245 5.6811 0.40023 1.8605 1.1933 3.6551 2.4292 5.1023 1.6297 1.9082 3.934 3.1252 5.6568 4.9497 1.9697 2.086 3.0917 4.8718 5.1265 6.8943 1.3377 1.3296 3.0086 2.2669 4.6811 3.1388s3.3835 1.7042 4.8649 2.8716c3.3954 2.6759 5.3009 6.9943 5.4801 11.314 0.10796 2.6024-0.35434 5.2716 0.35356 7.7782 0.59829 2.1185 2.0766 4.0069 4.0659 4.9497 0.76014 0.36027 1.5778 0.58157 2.3586 0.89472s1.547 0.73741 2.0608 1.4034c0.32289 0.41844 0.53084 0.91232 0.72781 1.4028 0.19698 0.49046 0.3891 0.98865 0.6864 1.4256 0.33481 0.49215 0.79271 0.89005 1.2852 1.2244 0.49245 0.33436 1.022 0.60953 1.5433 0.8969 1.9713 1.0867 3.8406 2.3584 5.5754 3.7929" fill="#016234" fill-rule="evenodd" stroke="#016234" stroke-linejoin="round" stroke-width="3"/>
<path d="m588.47 243.66c-0.2917 0.0564-0.4751 0.38127-0.3784 0.66088 1.2829 4.5125 2.5888 9.0185 3.8857 13.527 0.082 0.28171 0.4142 0.43442 0.6831 0.32052 0.2789-0.0604 0.5728-0.0239 0.8576-0.0393 0.5922-0.0109 1.1864 6e-3 1.7775-0.0268 0.3141-0.05 0.5049-0.42161 0.3654-0.70671-0.8089-1.4699-1.6135-2.9451-2.3765-4.4378-1.497-2.9064-2.8895-5.8659-4.1924-8.8641-0.079-0.23415-0.2799-0.46286-0.5479-0.43557-0.025 6.4e-4 -0.049 1e-3 -0.074 2e-3z" fill="#016234" fill-rule="evenodd" stroke="#016234" stroke-linejoin="round" stroke-width=".066291"/>
<path d="m693.5 366.75c-1.6225 5.5818-3.5001 11.089-5.625 16.5-0.46762 1.1907-0.94883 2.3817-1.25 3.625-0.29061 1.1997-0.41101 2.4381-0.75 3.625-0.88792 3.1089-3.172 5.5832-5 8.25-1.433 2.0906-2.6249 4.3903-3.125 6.875-0.7527 3.7395 0.10519 7.6114 1.25 11.25 0.18598 0.59113 0.37999 1.1808 0.625 1.75 0.40836 0.94869 0.95793 1.8365 1.625 2.625" fill="#016234" fill-rule="evenodd" stroke="#016234" stroke-linejoin="round" stroke-width="3"/>
<path d="m692.42 372.78c-0.8134 2.4075-1.4441 4.8928-2.3022 7.288-0.7896 2.2701-1.6875 4.5102-2.1115 6.8884-2.3363 10.74-4.533 21.51-6.8043 32.264 0.1693 0.71344 0.8801 1.0122 0.054 1.5872 0.1254 0.9535 1.338 0.45242 1.9934 0.57831 6.7366 0.0175 13.462 0.34413 20.192 0.61774 0.5003 0.11743 1.2275-0.20923 0.9226-0.81934-2.6649-5.8078-4.0619-12.086-5.5193-18.278-2.2039-9.8848-3.9485-19.857-5.5759-29.852-0.1152-0.3874-0.5297-0.51999-0.8489-0.27344z" fill="#016234" fill-rule="evenodd" stroke="#016234" stroke-linejoin="round" stroke-width=".375"/>
<path d="m672.5 285c-6.0703 0.32796-11.903 3.6749-15.25 8.75-0.90875 1.3782-1.6471 2.8874-2 4.5-0.55841 2.5518-0.12783 5.2144 0.5 7.75 1.2397 5.0067 3.2332 9.7887 4.9234 14.662 1.6902 4.8731 3.0922 9.9303 3.0766 15.088-5e-3 1.5905-0.14192 3.2085 0.25 4.75 0.42523 1.6725 1.4402 3.1246 2.4503 4.5239s2.0533 2.8234 2.5497 4.4761c0.69161 2.3026 0.24433 4.7928-0.46297 7.0906-0.70731 2.2978-1.6733 4.5329-2.037 6.9094-0.25694 1.6788-0.19457 3.4502 0.5 5 0.42945 0.95825 1.1052 1.8191 1.9891 2.3859s1.9818 0.82269 3.0109 0.61406c0.77384-0.15687 1.4794-0.56331 2.09-1.0639 0.6106-0.5006 1.1358-1.0956 1.66-1.6861 3.3612-3.7872 6.884-7.6555 8.516-12.449 0.81602-2.3967 1.1231-4.9995 0.62493-7.4818-0.49814-2.4823-1.8426-4.8311-3.8909-6.3192-1.4817-1.0765-3.2664-1.6762-4.75-2.75-1.9087-1.3815-3.2138-3.493-3.8974-5.7478-0.6836-2.2549-0.78139-4.6527-0.60261-7.0022 0.30227-3.9724 1.3729-7.8393 2.3308-11.706 0.95786-3.867 1.8126-7.8124 1.6692-11.794-0.0726-2.0159-0.40064-4.0132-0.75-6-0.73598-4.1854-1.5696-8.3535-2.5-12.5z" fill="#016234" fill-rule="evenodd" stroke="#016234" stroke-linejoin="round" stroke-width="3"/>
<path d="m662.5 255c-0.44339 0.0341-0.879 0.16608-1.2668 0.38378-0.70695 0.39689-1.2352 1.0673-1.5618 1.8094-0.32664 0.74202-0.46431 1.5547-0.51798 2.3637-0.10733 1.6179 0.10674 3.2747-0.30669 4.8426-0.27899 1.058-0.83222 2.023-1.4407 2.9324-0.6085 0.90941-1.2789 1.7789-1.8296 2.7244-0.67704 1.1625-1.172 2.457-1.2374 3.8007-0.0143 0.29436-8e-3 0.5893 0 0.88389 0.0489 1.7872 0.18283 3.6428 1.0552 5.2035 0.43616 0.78032 1.0582 1.4688 1.837 1.9076 0.77882 0.43884 1.7195 0.61388 2.5879 0.40192 0.95254-0.23249 1.7514-0.90533 2.3234-1.7017 0.57197-0.79638 0.94391-1.716 1.3005-2.6293 0.22717-0.5818 0.45068-1.1662 0.61872-1.7678 0.12139-0.43453 0.21361-0.87762 0.26516-1.3258 0.16869-1.4668-0.0992-2.969 0.17678-4.4194 0.15187-0.7982 0.46441-1.5561 0.7955-2.2981 0.32795-0.73495 0.6763-1.4613 0.97227-2.2097 0.17143-0.43348 0.32528-0.87451 0.44194-1.3258 0.47055-1.8204 0.31052-3.7974-0.44668-5.5184s-2.1067-3.1748-3.7666-4.0577z" fill="#016234" fill-rule="evenodd" stroke="#016234" stroke-linejoin="round" stroke-width="3"/>
<path d="m628.75 251.25c3.3488 0.76628 6.2917 3.1395 7.75 6.25 1.1439 2.4398 1.3823 5.187 1.808 7.8478 0.21283 1.3304 0.47786 2.6584 0.93063 3.9274 0.45278 1.269 1.1001 2.4824 2.0114 3.4748 0.57942 0.631 1.2904 1.1817 2.125 1.375 0.64671 0.14981 1.3362 0.0734 1.9545-0.16797 0.61839-0.24141 1.1676-0.64252 1.6245-1.124 0.91397-0.96299 1.4506-2.2164 1.9209-3.458 1.9564-5.1646 3.0868-10.617 5.125-15.75 0.73104-1.841 1.5845-3.6484 2.75-5.25 0.24517-0.33691 0.50362-0.66397 0.75-1 1.0844-1.479 1.9318-3.1313 2.5-4.875 2.0241-2.8218 3.0115-6.3703 2.7358-9.832-0.13914-1.7472-0.60519-3.5006-1.591-4.9497-1.0173-1.4954-2.552-2.6239-3.3588-4.2426-0.44111-0.88509-0.64012-1.8797-0.65161-2.8686-0.0115-0.98885 0.16011-1.9736 0.42979-2.9251 0.53938-1.9029 1.4638-3.6712 2.1664-5.52 0.48337-1.2721 0.86127-2.5813 1.2374-3.8891 0.38727-1.3464 0.77368-2.6946 1.0607-4.0659 0.65623-3.1356 0.78349-6.4004 0.17677-9.546-0.33099-1.716-0.90575-3.4392-2.0525-4.758-0.57339-0.6594-1.2859-1.2058-2.0952-1.5355-0.80923-0.32975-1.7167-0.43628-2.5698-0.24716-1.0999 0.24382-2.0692 0.98024-2.6516 1.9445-0.41247 0.68283-0.63641 1.4628-0.79527 2.2445s-0.25722 1.5756-0.44217 2.3516c-0.20345 0.85363-0.51075 1.6806-0.88388 2.4749-1.6488 3.5097-4.6367 6.37-8.215 7.8641" fill="#016234" fill-rule="evenodd" stroke="#016234" stroke-linejoin="round" stroke-width="3"/>
<path d="m588.75 806.25c134.14-65.097 146.75-27.006 166.25-13.75" fill="none" stroke="#000" stroke-linejoin="round" stroke-width="3"/>
<path d="m618.75 821.25c-17.969-9.8917-109.86-61.53-156.25-8.75-88.264-61.756-55-55-82.5-82.5-121.18 48.154-76.932 49.797-130 60-20.945 3.0081-48.24-18.268-75-37.5-16.063 4.0072-26.435 17.286-52.5 5-54.419 13.569-84.566 36.206-125 55" fill="none" stroke="#000" stroke-linejoin="round" stroke-width="3"/>
<path d="m131.25 761.25c1.6632-86.665 12.54-242.72 5-260-17.292-2.7536-55.417 37.083-82.5 55" fill="none" stroke="#000" stroke-linejoin="round" stroke-width="3"/>
<path d="m-2.5 812.5 60-275c-3.3319-112.19 28.253-139.92 47.5-197.5 27.533-32.495 42.658-101.31 97.5-155 29.246-10.396 43.327 52.908 56.25 67.5 3.75-7.5 15.903-65.734 45.89-133.83 12.165-27.626 10.36-53.667 36.61-97.417 20.026-2.793 24.167 62.5 36.25 93.75l45-60 27.5 62.5c26.25-26.25 40.784-94.075 68.75-97.5 18.822-2.5693 60.443 122.11 126.25 172.5 5.4791-12.035 9.6721-25.823 20-31.25 14.167 87.083 30 254.75 42.5 262.25" fill="none" stroke="#000" stroke-linejoin="round" stroke-width="3"/>
<path d="m735 428c1.669-6.7258 5.0317-7.1074 10-0.5 31.116 98.763 42.64 95.125 56.25 105" fill="none" stroke="#000" stroke-linejoin="round" stroke-width="3"/>
<path d="m265 565c3.0695-2.7617 6.6999-5.1984 6.25-10" fill-rule="evenodd" stroke="#000" stroke-linejoin="round" stroke-width="3"/>
<path d="m261.25 551.25c2.0177-3.4332 3.5393-7.3482 2.5-13.75" fill-rule="evenodd" stroke="#000" stroke-linejoin="round" stroke-width="3"/>
<path d="m257.5 252.5c-8.4684 14.456 24.436 41.757 60.889 85.814 14.608 17.655 37.353 60.407 46.611 71.686" fill="none" stroke="#000" stroke-linejoin="round" stroke-width="3"/>
<path d="m302.5 766.25c34.609-51.69 76.331-99.8 97.5-151.25" fill="none" stroke="#000" stroke-linejoin="round" stroke-width="3"/>
<path d="m726.25 772.5c-2.9926-20.453-12.243-43.655-14.34-64.02-4.9086-47.674-2.2924-92.474-15.66-140.98" fill="none" stroke="#000" stroke-linejoin="round" stroke-width="3"/>
<path d="m377.5 115c3.8308 40.819 26.593 76.53 32.704 105.25 14.368 67.522-10.204 142.25 24.796 179.75" fill="none" stroke="#000" stroke-linejoin="round" stroke-width="3"/>
<path d="m410 200c-2.3264-22.893 23.166-48.615 40-82.5" fill="none" stroke="#000" stroke-linejoin="round" stroke-width="3"/>
<path d="m568.75 411.25c25.417-72.917 68.915-171.98 76.25-218.75" fill="none" stroke="#000" stroke-linejoin="round" stroke-width="3"/>
<path d="m616.25 283.75c-47.809-51.016-37.583-113.81-53.75-171.25-24.116 50.552-41.49 115-69.738 166.6-22.509 41.11-58.952 70.132-60.262 105.9" fill="none" stroke="#000" stroke-linejoin="round" stroke-width="3"/>
<path d="m286.25 603.75c-7.1662 1.131-14.282-2.6961-21.25-21.25-51.226 0.54614-50.548 29.134-57.5 52.5-5 11.25-10.665 24.599-31.25 26.25-10.844-0.036-14.799-5.025-23.75 1.25-12.813-8.0693 10-52.5 10-67.5 10.874-11.901 19.773-25.563 25-42.5 4.2324-13.073 39.49-18.935 60-28.75-3.0236-10.413-15.504-12.494-22.5-28.75" fill="none" stroke="#000" stroke-linejoin="round" stroke-width="3"/>
<path d="m225 572.5c0.55806-1.3862 1.7814-2.4868 3.2187-2.8956 0.57822-0.16449 1.1812-0.2217 1.7678-0.35356 2.2228-0.49971 4.157-2.1397 5.0135-4.2508" fill="none" stroke="#000" stroke-linejoin="round" stroke-width="3"/>
<path d="m197.5 572.5c2.3532-2.0112 4.5047-4.2582 6.4119-6.6963 0.56548-0.72291 1.1232-1.4913 1.3258-2.3865 0.16346-0.72197 0.0784-1.4978-0.23774-2.1672" fill="none" stroke="#000" stroke-linejoin="round" stroke-width="3"/>
<path d="m212.5 567.5 8.75-1.25" fill="none" stroke="#000" stroke-linejoin="round" stroke-width="3"/>
<path d="m187.5 581.25c-1.0375 0.76161-2.109 1.4769-3.2103 2.1429-1.2545 0.75873-2.5619 1.4642-3.6239 2.4749-1.198 1.14-2.0394 2.6495-2.3789 4.268s-0.17573 3.3389 0.46314 4.8642" fill="none" stroke="#000" stroke-linejoin="round" stroke-width="3"/>
<path d="m191.25 590c-2.4165-0.0889-4.8474 1.0376-6.3416 2.9389-0.48891 0.62212-0.88117 1.32-1.1584 2.0611" fill="none" stroke="#000" stroke-linejoin="round" stroke-width="3"/>
<path d="m265 582.5c2.0469-14.861-2.3071-33.558-17.5-58.75" fill="none" stroke="#000" stroke-linejoin="round" stroke-width="3"/>
<path d="m297.5 561.25c-3.9398 13.517-10.668 26.582-7.5 41.25-13.143 3.9852-12.228 15.477-15 25-20.051 32.589-71.819 64.008-65 92.5 25.145 16.843 43.176-1.9941 63.75-2.5 14.761-10.748 13.296-37.573 28.618-46.858 26.774-16.224 51.465-29.266 57.077-50.642 3.7375-25.159 25.786-21.509 18.056-55" fill="none" stroke="#000" stroke-linejoin="round" stroke-width="3"/>
<path d="m278.75 648.75c-0.7014 6.5922-5.6536 12.207-8.75 17.5" fill="none" stroke="#000" stroke-linejoin="round" stroke-width="3"/>
<path d="m270 706.25c5.1461-3.4628 6.5182-12.089 7.5-21.25" fill="none" stroke="#000" stroke-linejoin="round" stroke-width="3"/>
<path d="m222.5 726.25c2.4501-7.3524 5.0649-14.759 12.5-23.75" fill="none" stroke="#000" stroke-linejoin="round" stroke-width="3"/>
<path d="m232.5 727.5c1.3881 5.4335 2.8372 9.0864 2.5 13.75 3.6635-6.0454 6.8836-11.251 11.25-17" fill-rule="evenodd" stroke="#000" stroke-linejoin="round" stroke-width="3"/>
<path d="m251.25 723.75c0.7696 7.1478 7.5129 6.8741 11.25 8.75l-6.25-11.25" fill-rule="evenodd" stroke="#000" stroke-linejoin="round" stroke-width="3"/>
<path d="m261.25 720c3.5413 4.42 6.9509 9.2628 11.25 11.25l-2.5-13.75" fill-rule="evenodd" stroke="#000" stroke-linejoin="round" stroke-width="3"/>
<path d="m220 726.25c-3.6579 4.4718 1.5883 9.5442 3.75 13.75-0.3176-7.0962 4.0482-9.144 3.75-12.5" fill-rule="evenodd" stroke="#000" stroke-linejoin="round" stroke-width="3"/>
<path d="m210 721.25c-1.3875 2.2673 3.2197 8.2627 5 12.5-0.7351-8.7157 1.5896-6.1184 2.5-8.75" fill-rule="evenodd" stroke="#000" stroke-linejoin="round" stroke-width="3"/>
<path d="m237.5 726.25v-8.75" fill="none" stroke="#000" stroke-linejoin="round" stroke-width="3"/>
<path d="m252.5 722.5c-0.026-3.4478-0.6109-6.514 1.25-11.25" fill="none" stroke="#000" stroke-linejoin="round" stroke-width="3"/>
<path d="m517.5 532.5c4.7761 3.9178 13.282 7.1271 13.915 14.188 8.5849 95.812 79.857 63.068 63.585 103.31-24.061 28.058-53.711 55.107-53.75 87.5 7.0799 10.993 14.167-13.333 21.25-20" fill="none" stroke="#000" stroke-linejoin="round" stroke-width="3"/>
<path d="m546.25 740c11.942 21.817 21.387-10.506 31.25-33.75" fill="none" stroke="#000" stroke-linejoin="round" stroke-width="3"/>
<path d="m556.25 747c26.406 16.276 24.158-14.529 32.5-28.25" fill="none" stroke="#000" stroke-linejoin="round" stroke-width="3"/>
<path d="m576.25 748.75c19.978 9.3391 23.167-16.05 32.852-38.388 6.2106-14.323 44.648-27.862 43.398-40.362 13.432-53.624 26.028-70.981 33.415-82.53 10.377-16.224 12.419-14.5 9.0853-41.22 52.31-57.518 44.242-105.04 40-117.5-38.151-13.989-107.62 2.7509-165-17.5-30-1.25-72.425 1.0384-110.3 1.1274-52.202 0.1226-99.05-11.912-123.45 10.123h-1.25c-7.7126-5.7569-3.5507-6.601-25-17.5-18.442 0.4282-8.3545 38.203-40 16.25" fill="none" stroke="#000" stroke-linejoin="round" stroke-width="3"/>
<path d="m478.75 412.5c5.8871 4.3388 8.3207 9.0083 10 13.75" fill="none" stroke="#000" stroke-linejoin="round" stroke-width="3"/>
<path d="m490 412.5c8.8433 5.3286 10.311 10.81 13.75 16.25" fill="none" stroke="#000" stroke-linejoin="round" stroke-width="3"/>
<path d="m310 405c3.7835-7.5113 12.001-16.92-6.25-15-12.258 4.1044-22.037 3.8729-27.48 5.8561-9.8721 3.5968-9.5293 8.0032-12.52 12.894" fill="none" stroke="#000" stroke-linejoin="round" stroke-width="3"/>
<path d="m292.5 406.25c3.9708 5.8637-5.3287 11.672-10 17.5-3.7673-2.2828-4.8694-5.3698-5-8.75z" fill-rule="evenodd" stroke="#000" stroke-linejoin="round" stroke-width="3"/>
<path d="m193.75 400c12.029 1.3863 15.264 4.8975 13.75 12.5 4.9828-4.04 7.5-5 10-6.25-5.2137-6.6592-5-6.25-8.75-8.75s-11.399-3.3545-15 2.5z" fill-rule="evenodd" stroke="#000" stroke-linejoin="round" stroke-width="3"/>
<path d="m185 421.25h10" fill-rule="evenodd" stroke="#000" stroke-linejoin="round" stroke-width="3"/>
<path d="m473.75 707.5c-0.364 3.0945-5.6706 3.1187-10 3.75-10.951-45.37 35.905-71.689 48.75-106.25-50.446 4.6313-97.5 10-152.5 12.5" fill="none" stroke="#000" stroke-linejoin="round" stroke-width="3"/>
<path d="m473.75 708.75c2.5 5 8.5431 10.3 7.5-2.5" fill="none" stroke="#000" stroke-linejoin="round" stroke-width="3"/>
<path d="m492.5 708.75c0 5-6.8936 13.297-12.5 5" fill="none" stroke="#000" stroke-linejoin="round" stroke-width="3"/>
<path d="m491.25 713.75c5.0618 6.6514 12.472 7.2597 12.5-1.25" fill="none" stroke="#000" stroke-linejoin="round" stroke-width="3"/>
<path d="m503.75 713.75c4.9039 14.168 9.324 13.242 13.75 12.5 9.6518-3.3065 2.3448-14.375 0.481-23.914-0.9795-5.0135 2.019-8.5856 4.519-12.336 13.53-18.385 25.996-37.244 63.75-63.75" fill="none" stroke="#000" stroke-linejoin="round" stroke-width="3"/>
<path d="m501.25 606.25v-10" fill="none" stroke="#000" stroke-linejoin="round" stroke-width="3"/>
<path d="m465 610v-7.5" fill="none" stroke="#000" stroke-linejoin="round" stroke-width="3"/>
<path d="m451.25 611.25v-8.75" fill="none" stroke="#000" stroke-linejoin="round" stroke-width="3"/>
<path d="m437.5 611.25v-17.5" fill="none" stroke="#000" stroke-linejoin="round" stroke-width="3"/>
<path d="m425 612.5v-10" fill="none" stroke="#000" stroke-linejoin="round" stroke-width="3"/>
<path d="m411.25 613.75v-8.75" fill="none" stroke="#000" stroke-linejoin="round" stroke-width="3"/>
<path d="m396.25 615v-10" fill="none" stroke="#000" stroke-linejoin="round" stroke-width="3"/>
<path d="m385 616.25v-7.5" fill="none" stroke="#000" stroke-linejoin="round" stroke-width="3"/>
<path d="m308.75 455c-7.5 11.25-13.28 20.018-23.707 24.219-11.532 7.9826-72.688 25.112-84.149 10.875-35.379-43.947-65.724 10.936-78.394-31.344" fill="none" stroke="#000" stroke-linejoin="round" stroke-width="3"/>
<path d="m288.75 477.5c8.4902-11.989 9.4258-22.521 7.5-32.5" fill="none" stroke="#000" stroke-linejoin="round" stroke-width="3"/>
<path d="m122.5 458.75c11.667-0.83361 23.127-6.377 35-2.5" fill="none" stroke="#000" stroke-linejoin="round" stroke-width="3"/>
<path d="m123.75 458.75c-2.5 0-23.232-3.64-12.5-17.5-20.746-0.30616-8.75-15-3.75-16.25 92.033-25.595 52.5-30.833 78.75-46.25" fill="none" stroke="#000" stroke-linejoin="round" stroke-width="3"/>
<path d="m178.75 383.75c-0.6718-7.5136-2.4416-14.368 0-23.75 2.425-8.0564 5.8721-6.8127 8.75-7.5 7.0518 3.1181 9.304 11.516 13.75 17.5" fill="none" stroke="#000" stroke-linejoin="round" stroke-width="3"/>
<path d="m192.5 372.5c95.946-37.985 106.99 5.5296 111.25 17.5" fill="none" stroke="#000" stroke-linejoin="round" stroke-width="3"/>
</g>
</svg>
