<?xml version="1.0" encoding="UTF-8" standalone="no"?>
<!-- Created with Inkscape (http://www.inkscape.org/) -->

<svg
   xmlns:dc="http://purl.org/dc/elements/1.1/"
   xmlns:cc="http://creativecommons.org/ns#"
   xmlns:rdf="http://www.w3.org/1999/02/22-rdf-syntax-ns#"
   xmlns:svg="http://www.w3.org/2000/svg"
   xmlns="http://www.w3.org/2000/svg"
   xmlns:sodipodi="http://sodipodi.sourceforge.net/DTD/sodipodi-0.dtd"
   xmlns:inkscape="http://www.inkscape.org/namespaces/inkscape"
   width="800"
   height="400"
   id="svg2"
   version="1.1"
   inkscape:version="0.92.4 (5da689c313, 2019-01-14)"
   sodipodi:docname="Flag_of_the_Georgian_Soviet_Socialist_Republic_(1921–1922).svg">
  <defs
     id="defs4" />
  <sodipodi:namedview
     id="base"
     pagecolor="#ffffff"
     bordercolor="#666666"
     borderopacity="1.0"
     inkscape:pageopacity="0.0"
     inkscape:pageshadow="2"
     inkscape:zoom="0.5"
     inkscape:cx="1595.645"
     inkscape:cy="413.82498"
     inkscape:document-units="px"
     inkscape:current-layer="layer1"
     showgrid="false"
     fit-margin-top="0"
     fit-margin-left="0"
     fit-margin-right="0"
     fit-margin-bottom="0"
     showguides="true"
     inkscape:guide-bbox="true"
     inkscape:window-width="1920"
     inkscape:window-height="1003"
     inkscape:window-x="-9"
     inkscape:window-y="-9"
     inkscape:window-maximized="1" />
  <metadata
     id="metadata7">
    <rdf:RDF>
      <cc:Work
         rdf:about="">
        <dc:format>image/svg+xml</dc:format>
        <dc:type
           rdf:resource="http://purl.org/dc/dcmitype/StillImage" />
        <dc:title />
      </cc:Work>
    </rdf:RDF>
  </metadata>
  <g
     inkscape:label="Layer 1"
     inkscape:groupmode="layer"
     id="layer1"
     transform="translate(-468.21429,-423.7193)">
    <rect
       style="fill:#cc0000;fill-opacity:1;fill-rule:nonzero;stroke:none"
       id="rect3809"
       width="800"
       height="400"
       x="468.21429"
       y="423.7193"
       ry="0" />
    <g
       transform="matrix(1.2233421,0,0,1.5548436,474.07866,413.64594)"
       style="font-size:4px;font-style:normal;font-variant:normal;font-weight:normal;font-stretch:normal;line-height:125%;letter-spacing:0px;word-spacing:0px;fill:#ffce00;fill-opacity:1;stroke:none;font-family:DejaVu Sans;-inkscape-font-specification:DejaVu Sans"
       id="flowRoot3014">
      <path
         d="m 73.179687,70.791191 11.210938,3.554687 c -1.718802,6.250011 -4.576872,10.891934 -8.574219,13.925781 -3.997437,3.033855 -9.069046,4.550781 -15.214844,4.550782 -7.604188,-10e-7 -13.854182,-2.597655 -18.75,-7.792969 -4.895839,-5.195301 -7.343753,-12.298158 -7.34375,-21.308594 -3e-6,-9.531212 2.460932,-16.933549 7.382813,-22.207031 4.921859,-5.273382 11.393207,-7.910098 19.414062,-7.910156 7.005171,5.8e-5 12.69527,2.070368 17.070313,6.210937 2.604116,2.447966 4.557239,5.963588 5.859375,10.546875 l -11.445313,2.734375 c -0.677124,-2.968708 -2.089883,-5.312456 -4.238281,-7.03125 -2.148473,-1.718702 -4.759147,-2.578077 -7.832031,-2.578125 -4.244817,4.8e-5 -7.688824,1.523484 -10.332031,4.570313 -2.643246,3.046915 -3.96486,7.981806 -3.964844,14.804687 -1.6e-5,7.239605 1.302066,12.39585 3.90625,15.46875 2.604144,3.072927 5.989558,4.609384 10.15625,4.609375 3.072884,9e-6 5.71611,-0.976552 7.929687,-2.929687 2.213502,-1.953112 3.802042,-5.026025 4.765625,-9.21875 z"
         style="font-size:80px;font-weight:bold;font-family:Arial;-inkscape-font-specification:Arial Bold;fill:#fcd116;fill-opacity:1"
         id="path3023" />
      <path
         d="m 130.99219,70.791191 11.21093,3.554687 c -1.7188,6.250011 -4.57687,10.891934 -8.57421,13.925781 -3.99744,3.033855 -9.06905,4.550781 -15.21485,4.550782 -7.60419,-10e-7 -13.85418,-2.597655 -18.749998,-7.792969 -4.895839,-5.195301 -7.343753,-12.298158 -7.34375,-21.308594 -3e-6,-9.531212 2.460932,-16.933549 7.382813,-22.207031 4.921855,-5.273382 11.393205,-7.910098 19.414065,-7.910156 7.00517,5.8e-5 12.69527,2.070368 17.07031,6.210937 2.60412,2.447966 4.55724,5.963588 5.85937,10.546875 l -11.44531,2.734375 c -0.67712,-2.968708 -2.08988,-5.312456 -4.23828,-7.03125 -2.14847,-1.718702 -4.75915,-2.578077 -7.83203,-2.578125 -4.24482,4.8e-5 -7.68882,1.523484 -10.33203,4.570313 -2.64325,3.046915 -3.96486,7.981806 -3.96484,14.804687 -2e-5,7.239605 1.30206,12.39585 3.90625,15.46875 2.60414,3.072927 5.98955,4.609384 10.15625,4.609375 3.07288,9e-6 5.71611,-0.976552 7.92968,-2.929687 2.2135,-1.953112 3.80204,-5.026025 4.76563,-9.21875 z"
         style="font-size:80px;font-weight:bold;font-family:Arial;-inkscape-font-specification:Arial Bold;fill:#fcd116;fill-opacity:1"
         id="path3025" />
      <path
         style="font-size:80px;font-weight:bold;fill:#fcd116;fill-opacity:1;font-family:Arial;-inkscape-font-specification:Arial Bold"
         d="m 192,43.6875 0,89.03125 14.15625,0 0,-22.97487 25.6875,-13.093754 c 1.8705,-0.78539 3.70652,-1.781449 5.53125,-3.394125 2.40521,-2.125722 4.40766,-4.65581 5.96875,-8.381001 1.56097,-3.725094 2.34369,-8.314947 2.34375,-13.78125 -6e-5,-7.085808 -1.35464,-12.869451 -4.0625,-17.34375 -2.70798,-4.474142 -6.07971,-7.382469 -10.09375,-8.71875 -2.61239,-0.890708 -8.21091,-1.343661 -16.8125,-1.34375 z M 206.15625,58.75 213,58.75 c 5.09723,7.5e-5 8.46774,0.220167 10.15625,0.625 2.29373,0.526453 4.19014,1.832054 5.6875,3.9375 1.49727,2.105585 2.24995,4.792057 2.25,8.03125 -5e-5,2.631955 -0.52656,4.92226 -1.59375,6.90625 -1.34765,2.147422 -2.40355,4.082618 -4.40625,5.175001 l -18.9375,9.625 z"
         transform="matrix(0.81743283,0,0,0.6431515,-4.793725,6.4786962)"
         id="path3027"
         inkscape:connector-curvature="0"
         sodipodi:nodetypes="cccccsccccccccccccccc" />
      <path
         d="m 205.91406,35.049003 0,56.796875 11.5625,0 0,-47.148438 28.75,0 0,-9.648437 z"
         style="font-size:80px;font-weight:bold;font-family:Arial;-inkscape-font-specification:Arial Bold;fill:#fcd116;fill-opacity:1"
         id="path3029"
         inkscape:connector-curvature="0" />
    </g>
  </g>
</svg>
