<?xml version="1.0" encoding="UTF-8"?>
<!DOCTYPE svg  PUBLIC '-//W3C//DTD SVG 1.1//EN'  'http://www.w3.org/Graphics/SVG/1.1/DTD/svg11.dtd'>
<svg width="4252px" height="2598px" clip-rule="evenodd" fill-rule="evenodd" image-rendering="optimizeQuality" shape-rendering="geometricPrecision" text-rendering="geometricPrecision" viewBox="0 0 7289.1 4454.5" xml:space="preserve" xmlns="http://www.w3.org/2000/svg">
 <defs>
  <style type="text/css">
   <![CDATA[
    .str2 {stroke:#003882;stroke-width:1.54084}
    .str0 {stroke:#003882;stroke-width:1.54287}
    .str1 {stroke:#003882;stroke-width:1.54489}
    .str3 {stroke:#003882;stroke-width:1.54692}
    .fil3 {fill:none}
    .fil6 {fill:black}
    .fil0 {fill:#3399FF}
    .fil1 {fill:#FFCC00}
    .fil4 {fill:#FFCC33}
    .fil2 {fill:white}
    .fil5 {fill:#003882}
   ]]>
  </style>
 </defs>
 
  
  <polygon class="fil0" points="0 4454.5 7289.1 4100.1 5669.3 2227.2 7289.1 354.33 0 0"/>
  <polygon class="fil1" points="0 4454.5 7289.1 4100.1 6311.5 2969.7 0 2969.7"/>
  <polygon class="fil2" points="6311.3 1485 7289.1 354.33 0 0 0 1485"/>
  
   <path class="fil3 str0" d="m1822.3 739.57c553.14 0 1001.7 448.58 1001.7 1001.7 0 553.14-448.58 1001.7-1001.7 1001.7-553.14 0-1001.7-448.58-1001.7-1001.7 0-553.14 448.58-1001.7 1001.7-1001.7z"/>
   <path id="1" class="fil2" d="m1822.3 739.57c553.14 0 1001.7 448.58 1001.7 1001.7 0 553.14-448.58 1001.7-1001.7 1001.7-553.14 0-1001.7-448.58-1001.7-1001.7 0-553.14 448.58-1001.7 1001.7-1001.7z"/>
  
  
   <path class="fil3 str1" d="m1822.3 526.44c669.12 0 1214.9 545.73 1214.9 1214.9 0 669.12-545.73 1214.9-1214.9 1214.9-669.13 0-1214.9-545.73-1214.9-1214.9 0-669.12 545.73-1214.9 1214.9-1214.9zm0 213.12c551.74 0 1001.7 450 1001.7 1001.7 0 551.74-450 1001.7-1001.7 1001.7-551.74 0-1001.7-450-1001.7-1001.7 0-551.74 450-1001.7 1001.7-1001.7z"/>
   <path id="1" class="fil4" d="m1822.3 526.44c669.12 0 1214.9 545.73 1214.9 1214.9 0 669.12-545.73 1214.9-1214.9 1214.9-669.13 0-1214.9-545.73-1214.9-1214.9 0-669.12 545.73-1214.9 1214.9-1214.9zm0 213.12c551.74 0 1001.7 450 1001.7 1001.7 0 551.74-450 1001.7-1001.7 1001.7-551.74 0-1001.7-450-1001.7-1001.7 0-551.74 450-1001.7 1001.7-1001.7z"/>
  
  
   <path class="fil3 str0" d="m848.42 1506.8c6.9773-28.914 15.161-57.366 24.599-85.253h629.56v-629.58c27.887-9.4374 56.343-17.618 85.253-24.595v739.43h-739.42z"/>
   <path id="1" class="fil5" d="m848.42 1506.8c6.9773-28.914 15.161-57.366 24.599-85.253h629.56v-629.58c27.887-9.4374 56.343-17.618 85.253-24.595v739.43h-739.42z"/>
  
  
   <path class="fil3 str0" d="m2142 792.01v629.58h629.56c9.4374 27.887 17.622 56.339 24.599 85.253h-739.42v-739.43c28.914 6.9814 57.364 15.161 85.253 24.599z"/>
   <path id="1" class="fil5" d="m2142 792.01v629.58h629.56c9.4374 27.887 17.622 56.339 24.599 85.253h-739.42v-739.43c28.914 6.9814 57.364 15.161 85.253 24.599z"/>
  
  
   <path class="fil3 str0" d="m1587.8 2715.2c-28.914-6.9773-57.366-15.161-85.253-24.599v-629.56h-629.56c-9.4374-27.887-17.622-56.341-24.601-85.255h739.41v739.41z"/>
   <path id="1" class="fil5" d="m1587.8 2715.2c-28.914-6.9773-57.366-15.161-85.253-24.599v-629.56h-629.56c-9.4374-27.887-17.622-56.341-24.601-85.255h739.41v739.41z"/>
  
  
   <path class="fil3 str0" d="m2796.1 1975.7c-6.9773 28.914-15.161 57.368-24.599 85.255h-629.56v629.56c-27.885 9.4374-56.339 17.622-85.253 24.599v-739.41h739.41z"/>
   <path id="1" class="fil5" d="m2796.1 1975.7c-6.9773 28.914-15.161 57.368-24.599 85.255h-629.56v629.56c-27.885 9.4374-56.339 17.622-85.253 24.599v-739.41h739.41z"/>
  
  
   <path class="fil3 str0" d="m1822.3 739.57c50.686 0 100.49 3.8207 149.19 11.146v841.39h841.37c7.3236 48.692 11.158 98.513 11.158 149.19 0 50.688-3.8349 100.49-11.162 149.19h-841.37v841.37c-48.702 7.3276-98.507 11.162-149.19 11.162-50.688 0-100.49-3.8349-149.2-11.162v-841.37h-841.37c-7.3276-48.702-11.164-98.505-11.164-149.19 0-50.68 3.8369-100.5 11.16-149.19h841.37v-841.39c48.702-7.3256 98.507-11.146 149.2-11.146z"/>
   <path id="1" class="fil5" d="m1822.3 739.57c50.686 0 100.49 3.8207 149.19 11.146v841.39h841.37c7.3236 48.692 11.158 98.513 11.158 149.19 0 50.688-3.8349 100.49-11.162 149.19h-841.37v841.37c-48.702 7.3276-98.507 11.162-149.19 11.162-50.688 0-100.49-3.8349-149.2-11.162v-841.37h-841.37c-7.3276-48.702-11.164-98.505-11.164-149.19 0-50.68 3.8369-100.5 11.16-149.19h841.37v-841.39c48.702-7.3256 98.507-11.146 149.2-11.146z"/>
  
  
   <path class="fil3 str0" d="m1537 1274.2c-9.816-29.566-18.118-59.538-24.467-90.302 24.793-3.3976 49.194 3.8632 73.681-2.699l542.67-145.68 70.792 2.6767-54.166 47.252-546.02 146.3c-23.981 6.4266-41.884 27.458-62.488 42.447z"/>
   <path id="1" class="fil2" d="m1537 1274.2c-9.816-29.566-18.118-59.538-24.467-90.302 24.793-3.3976 49.194 3.8632 73.681-2.699l542.67-145.68 70.792 2.6767-54.166 47.252-546.02 146.3c-23.981 6.4266-41.884 27.458-62.488 42.447z"/>
  
  
   <path class="fil3 str1" d="m1342.2 1247.1 122.18-32.738c17.417-4.6671 35.342 5.6815 40.009 23.1l0.066817 0.25107c4.6671 17.419-5.6815 35.342-23.098 40.009l-122.18 32.738c-17.419 4.6671-35.342-5.6815-40.009-23.098l-0.068842-0.2531c-4.6671-17.419 5.6815-35.342 23.1-40.009z"/>
   <path id="1" class="fil4" d="m1342.2 1247.1 122.18-32.738c17.417-4.6671 35.342 5.6815 40.009 23.1l0.066817 0.25107c4.6671 17.419-5.6815 35.342-23.098 40.009l-122.18 32.738c-17.419 4.6671-35.342-5.6815-40.009-23.098l-0.068842-0.2531c-4.6671-17.419 5.6815-35.342 23.1-40.009z"/>
  
  
   <path class="fil3 str2" d="m1385.1 1314.9c3.6506 13.631 23.038 35.494 37.426 31.637l51.749-13.866c14.894-3.9908 29.163-37.576 25.172-52.47l-19.547-72.952c-4.0576-15.147-51.447-28.424-47.794-14.791l3.8572 14.388-62.227 65.645 11.365 42.409z"/>
   <path id="1" class="fil2" d="m1385.1 1314.9c3.6506 13.631 23.038 35.494 37.426 31.637l51.749-13.866c14.894-3.9908 29.163-37.576 25.172-52.47l-19.547-72.952c-4.0576-15.147-51.447-28.424-47.794-14.791l3.8572 14.388-62.227 65.645 11.365 42.409z"/>
  
  
   <path class="fil3 str0" d="m1528.4 1437.8-8.4676 43.123-61.107 15.291c-18.377-37.284-25.178-79.832-37.448-119.56l66.896-17.923c16.966 24.945 30.278 51.409 40.127 79.073z"/>
   <path id="1" class="fil2" d="m1528.4 1437.8-8.4676 43.123-61.107 15.291c-18.377-37.284-25.178-79.832-37.448-119.56l66.896-17.923c16.966 24.945 30.278 51.409 40.127 79.073z"/>
  
  
   <path class="fil3 str2" d="m1709.6 1528.5c-14.844 3.1647-30.483 4.3796-38.464 15.988-13.317-15.37-7.5767-28.272 5.5418-39.904 1.059-1.0954 1.9336-1.8709 3.1283-2.4621-26.458-8.8725-56.197-16.868-89.79-24.101l-18.328 18.44-27.533 6.295-8.2813 57.955c20.527 18.039 66.922 32.664 126.78 45.031 23.625-23.916 42.583-50.099 47.503-74.145l-0.81193-3.029c0.2531-0.066817 0.2531-0.066817 0.50619-0.13566l-0.2531 0.068842z"/>
   <path id="1" class="fil2" d="m1709.6 1528.5c-14.844 3.1647-30.483 4.3796-38.464 15.988-13.317-15.37-7.5767-28.272 5.5418-39.904 1.059-1.0954 1.9336-1.8709 3.1283-2.4621-26.458-8.8725-56.197-16.868-89.79-24.101l-18.328 18.44-27.533 6.295-8.2813 57.955c20.527 18.039 66.922 32.664 126.78 45.031 23.625-23.916 42.583-50.099 47.503-74.145l-0.81193-3.029c0.2531-0.066817 0.2531-0.066817 0.50619-0.13566l-0.2531 0.068842z"/>
  
  
   <polygon class="fil3 str2" points="1447.6 1499.4 1467.5 1556.6 1534 1572.8 1543.8 1503.1 1571.6 1496.7 1596.8 1471.8 1529.7 1429.5 1519.8 1481.1"/>
   <polygon id="1" class="fil4" points="1447.6 1499.4 1467.5 1556.6 1534 1572.8 1543.8 1503.1 1571.6 1496.7 1596.8 1471.8 1529.7 1429.5 1519.8 1481.1"/>
  
  
   <path class="fil3 str1" d="m1412 1346.1 68.664-18.399c5.3008-1.4194 10.741 1.721 12.163 7.0239l3.1121 11.612c1.4194 5.3008-1.7231 10.741-7.0239 12.163l-68.662 18.397c-5.3008 1.4214-10.741-1.721-12.163-7.0219l-3.1121-11.612c-1.4194-5.3008 1.721-10.743 7.0219-12.163z"/>
   <path id="1" class="fil4" d="m1412 1346.1 68.664-18.399c5.3008-1.4194 10.741 1.721 12.163 7.0239l3.1121 11.612c1.4194 5.3008-1.7231 10.741-7.0239 12.163l-68.662 18.397c-5.3008 1.4214-10.741-1.721-12.163-7.0219l-3.1121-11.612c-1.4194-5.3008 1.721-10.743 7.0219-12.163z"/>
  
  
   <path class="fil3 str2" d="m1359.8 1240 22.524 84.06 16.65-27.729-16.706-62.35c-5.6147-20.952-24.362-1.0488-22.467 6.0196z"/>
   <path id="1" class="fil2" d="m1359.8 1240 22.524 84.06 16.65-27.729-16.706-62.35c-5.6147-20.952-24.362-1.0488-22.467 6.0196z"/>
  
  
   <path class="fil3 str1" d="m1383.7 1227 23.809 88.857 16.65-27.729-17.992-67.149c-5.6147-20.95-24.226-0.54264-22.467 6.0216z"/>
   <path id="1" class="fil2" d="m1383.7 1227 23.809 88.857 16.65-27.729-17.992-67.149c-5.6147-20.95-24.226-0.54264-22.467 6.0216z"/>
  
  
   <path class="fil3 str1" d="m1406.6 1215.8 25.095 93.653 14.378-27.122-19.278-71.944c-4.6671-17.417-21.886-0.89899-20.195 5.4122z"/>
   <path id="1" class="fil2" d="m1406.6 1215.8 25.095 93.653 14.378-27.122-19.278-71.944c-4.6671-17.417-21.886-0.89899-20.195 5.4122z"/>
  
  
   <path class="fil3 str1" d="m1455.9 1141.5 46.701-12.513c9.1884 67.611 27.093 133.43 53.399 197.27l-47.712 12.782c0.20248-70.94-18.529-136.81-52.389-197.54z"/>
   <path id="1" class="fil4" d="m1455.9 1141.5 46.701-12.513c9.1884 67.611 27.093 133.43 53.399 197.27l-47.712 12.782c0.20248-70.94-18.529-136.81-52.389-197.54z"/>
  
  
   <path class="fil3 str0" d="m1440.6 1314.6c15.526-11.734 17.024-24.311 12.547-37.993"/>
  
  
   <path class="fil3 str1" d="m1431.2 1207 21.442 80.021 15.496-20.926-11.972-44.682c-3.517-13.126-27.739-24.763-24.965-14.412z"/>
   <path id="1" class="fil2" d="m1431.2 1207 21.442 80.021 15.496-20.926-11.972-44.682c-3.517-13.126-27.739-24.763-24.965-14.412z"/>
  
  
   <path class="fil3 str3" d="m1543.6 2301 8.6255-18.032 22.475-12.023-4.1811-22.475 7.8399-16.724c177.71 94.344 338.44 98.002 486.88 26.395 27.44 18.816 58.279 36.849 99.047 53.053-161.77 114.2-389.92 145.57-620.68-10.193z"/>
   <path id="1" class="fil2" d="m1543.6 2301 8.6255-18.032 22.475-12.023-4.1811-22.475 7.8399-16.724c177.71 94.344 338.44 98.002 486.88 26.395 27.44 18.816 58.279 36.849 99.047 53.053-161.77 114.2-389.92 145.57-620.68-10.193z"/>
  
  
   <path class="fil3 str0" d="m1552.7 2228.2-2.6119 5.2259-17.249 13.59 1.5672 20.383-8.6235 17.249c-75.789-49.655-153.67-106.63-162.03-53.051-25.089 3.3955-35.28-9.9315-17.508-43.121-10.976-45.735 53.573-25.611 72.389-48.088 2.614 9.6703 0.52441 19.34-6.7931 28.486 51.222 9.1479 96.694 33.19 140.86 59.326z"/>
   <path id="1" class="fil4" d="m1552.7 2228.2-2.6119 5.2259-17.249 13.59 1.5672 20.383-8.6235 17.249c-75.789-49.655-153.67-106.63-162.03-53.051-25.089 3.3955-35.28-9.9315-17.508-43.121-10.976-45.735 53.573-25.611 72.389-48.088 2.614 9.6703 0.52441 19.34-6.7931 28.486 51.222 9.1479 96.694 33.19 140.86 59.326z"/>
  
  
   <path class="fil3 str0" d="m1896.4 1168.1c-8.1011-3.3976-17.51 6.7951-24.044 5.7503-6.5319-1.0468-10.715-7.3175-9.9294-12.545 0.78358-5.2259 8.6235-10.715 14.111-10.715 5.4891 0 12.284 2.0916 17.249 8.3643 3.3976-14.113 2.0916-30.578-9.407-35.02 2.3508-12.021 2.0896-23.52-3.3976-36.326-17.51-0.52239-29.531 4.1811-32.929 16.465-18.555-6.0115-29.531 2.3508-35.804 12.543 10.976 1.0448 20.383 7.5787 22.214 16.202 1.8284 8.6255-6.2727 16.465-11.499 18.294-5.2279 1.8304-10.454-2.3508-13.068-7.0543-2.614-4.7056 3.6587-8.6255-2.3528-16.727-15.68-1.8304-18.816 9.1458-25.872 9.1458s-9.407-4.9647-10.191-10.191c-0.78561-5.2279 2.0896-11.237 7.3175-13.068 5.2259-1.8284 10.191 1.8304 16.202 3.1364 9.9315-11.499 3.9199-23.522-8.3623-35.804-2.8752-21.169-13.851-34.235-30.578-42.338-4.4423 58.018-15.157 88.857-21.691 99.31-2.3508 3.3976-4.9647 8.1011-4.9647 14.896 0 7.8399 2.3528 11.237 6.7951 14.374l163.6 83.629c1.8284 4.1811 9.407 7.3175 11.237 0 4.1811-15.157 19.6-25.089 37.11-47.302 11.499-14.635 28.748-29.009 50.961-43.121-19.861-6.2727-38.155-8.6235-54.359-4.1811-9.1458-12.023-26.134-8.8867-42.597 3.1364 5.4871 4.1811 15.68 7.3175 17.769 13.588 2.0916 6.2727 1.0468 10.976-3.1343 15.421-4.1832 4.4423-12.023 6.0095-16.465 1.0448-4.4423-4.9647 0.52239-13.068-3.9199-20.908z"/>
   <path id="1" class="fil4" d="m1896.4 1168.1c-8.1011-3.3976-17.51 6.7951-24.044 5.7503-6.5319-1.0468-10.715-7.3175-9.9294-12.545 0.78358-5.2259 8.6235-10.715 14.111-10.715 5.4891 0 12.284 2.0916 17.249 8.3643 3.3976-14.113 2.0916-30.578-9.407-35.02 2.3508-12.021 2.0896-23.52-3.3976-36.326-17.51-0.52239-29.531 4.1811-32.929 16.465-18.555-6.0115-29.531 2.3508-35.804 12.543 10.976 1.0448 20.383 7.5787 22.214 16.202 1.8284 8.6255-6.2727 16.465-11.499 18.294-5.2279 1.8304-10.454-2.3508-13.068-7.0543-2.614-4.7056 3.6587-8.6255-2.3528-16.727-15.68-1.8304-18.816 9.1458-25.872 9.1458s-9.407-4.9647-10.191-10.191c-0.78561-5.2279 2.0896-11.237 7.3175-13.068 5.2259-1.8284 10.191 1.8304 16.202 3.1364 9.9315-11.499 3.9199-23.522-8.3623-35.804-2.8752-21.169-13.851-34.235-30.578-42.338-4.4423 58.018-15.157 88.857-21.691 99.31-2.3508 3.3976-4.9647 8.1011-4.9647 14.896 0 7.8399 2.3528 11.237 6.7951 14.374l163.6 83.629c1.8284 4.1811 9.407 7.3175 11.237 0 4.1811-15.157 19.6-25.089 37.11-47.302 11.499-14.635 28.748-29.009 50.961-43.121-19.861-6.2727-38.155-8.6235-54.359-4.1811-9.1458-12.023-26.134-8.8867-42.597 3.1364 5.4871 4.1811 15.68 7.3175 17.769 13.588 2.0916 6.2727 1.0468 10.976-3.1343 15.421-4.1832 4.4423-12.023 6.0095-16.465 1.0448-4.4423-4.9647 0.52239-13.068-3.9199-20.908z"/>
  
  
   <path class="fil3 str0" d="m2021 1857.3c-7.5787-25.089-18.294-47.302-39.985-67.688-8.1011-7.8399-19.861-15.157-34.235-22.214-36.849 10.193-76.572 33.19-111.33 55.665-12.805 8.3623-31.098 20.908-44.688 23.522-16.463 3.1364-28.748-5.2279-44.688-20.908-7.0563 13.851-2.3528 22.736 10.976 33.712-13.068 9.6703-16.988 23.522-19.602 34.237-2.6119 8.8847-4.1811 15.68-9.6682 17.769 10.454 14.113 17.771 8.1031 21.691-3.9199 4.7035-14.635 14.113-36.326 32.145-30.837-11.501 8.3623-28.225 27.178-25.611 36.065 5.4871 18.816 6.7931 37.371-5.2279 54.359-13.329 19.338-37.893 37.893-64.551 52.006-28.223 15.419-58.54 27.964-75.787 28.748-14.113 1.0448-30.317-5.4891-36.851-15.941-4.1811-7.3175-18.032-25.35-21.167-39.463-8.6255-1.8304-14.113-2.8752-21.169 0.26119-29.792-19.338-48.349-10.715-58.801 10.454 18.032-3.6587 27.178-4.9667 35.541 8.6235-6.0095 6.0115-4.9647 17.771-2.3508 23.258 6.0095 10.976 28.223 21.169 31.621 24.566 6.7951 7.3175 16.727 1.5692 27.18 10.454-5.4891 2.8752-16.204 0.78358-27.964-3.9199-13.851-6.0115-44.688-23.52-54.359-27.703-8.6235 2.3528-5.4871 4.4444-10.193 9.9315-38.155-0.78358-48.87 12.545-55.926 42.86 14.635-15.941 26.917-20.908 48.608-13.59-3.3955 10.454-3.3955 17.51 4.1832 22.736 10.191 9.4091 27.962 3.6587 33.712 5.2279 9.6703 2.614 24.828-1.0448 46.519-1.306 9.6682 0-7.8399 14.635-19.602 14.372-8.6235-0.26119-20.383 6.2727-35.018 6.5339-3.1364 8.3643-7.0563 13.068-5.4891 20.124-18.294 16.463-21.691 33.712-4.9647 68.21-4.1811-21.691 7.3175-32.931 21.691-39.724 4.9647 6.7931 16.986 4.7035 22.997 3.3976 6.2727-2.3528 26.134-22.216 32.406-27.964 5.2259-4.9647 16.463-7.0563 27.964-14.374 2.0896-1.5692 25.611-3.3976 25.35 0.26119-1.0468 4.1811 0.78358 13.59-2.0916 18.816 2.0916 4.9667 8.3623 7.0563 14.635 8.3623 1.306 14.635-3.1364 18.557-12.543 24.305 15.68 7.5787 28.748-3.1364 34.235-21.43 2.8752 3.3976 8.8847-3.3976 12.807-4.9647 4.9647-10.976 0.26119-31.1 6.0095-35.282 14.896-11.237 19.863-18.555 32.929-22.214 4.9667-13.59 9.6703-27.178 14.374-40.507 3.1364 9.4091 1.5692 19.861-0.78358 29.009-1.8304 7.3175-1.8304 13.068 2.3528 20.385 6.7951-0.52441 12.543-2.3528 15.68-7.8419-4.1811-7.3175-4.4423-21.167 7.8399-30.054 7.8399-5.4871 3.1364-19.077 6.2727-26.395 12.805 6.5339 2.0896 17.51 1.5672 27.178-0.78358 10.193-1.306 19.863 2.3528 22.738 2.3528 1.8284 6.7951 1.0448 13.851-3.6587-3.6587-3.922-4.9667-8.8867-4.4423-14.635 1.5672-16.204 20.383-18.557 22.997-55.667 6.7951 27.442-5.2279 32.929-5.7503 47.041-0.26119 11.499 4.7056 18.032 19.863 14.896-0.78561-7.5787-0.26119-15.419 1.0448-22.997 2.8752-16.204 14.635-1.0448 12.021-49.655 8.8867 5.2279 7.0563 15.943 6.5339 26.397-0.52239 10.191-2.3528 21.167-1.0448 27.701 1.306 7.0563 5.7483 10.454 16.986 5.7503 0.78561-16.727 4.4444-26.919 10.193-33.714 8.8867-11.237 10.976-20.644 31.884-26.134 0.52239-6.7951 1.5672-14.635 5.4891-20.906 8.8847-14.635-14.898-27.703-4.4444-49.394 3.9199-8.3623 13.329-19.338 32.668-31.884 21.952-14.896 60.632-17.771 113.16-53.051z"/>
   <path id="1" class="fil4" d="m2021 1857.3c-7.5787-25.089-18.294-47.302-39.985-67.688-8.1011-7.8399-19.861-15.157-34.235-22.214-36.849 10.193-76.572 33.19-111.33 55.665-12.805 8.3623-31.098 20.908-44.688 23.522-16.463 3.1364-28.748-5.2279-44.688-20.908-7.0563 13.851-2.3528 22.736 10.976 33.712-13.068 9.6703-16.988 23.522-19.602 34.237-2.6119 8.8847-4.1811 15.68-9.6682 17.769 10.454 14.113 17.771 8.1031 21.691-3.9199 4.7035-14.635 14.113-36.326 32.145-30.837-11.501 8.3623-28.225 27.178-25.611 36.065 5.4871 18.816 6.7931 37.371-5.2279 54.359-13.329 19.338-37.893 37.893-64.551 52.006-28.223 15.419-58.54 27.964-75.787 28.748-14.113 1.0448-30.317-5.4891-36.851-15.941-4.1811-7.3175-18.032-25.35-21.167-39.463-8.6255-1.8304-14.113-2.8752-21.169 0.26119-29.792-19.338-48.349-10.715-58.801 10.454 18.032-3.6587 27.178-4.9667 35.541 8.6235-6.0095 6.0115-4.9647 17.771-2.3508 23.258 6.0095 10.976 28.223 21.169 31.621 24.566 6.7951 7.3175 16.727 1.5692 27.18 10.454-5.4891 2.8752-16.204 0.78358-27.964-3.9199-13.851-6.0115-44.688-23.52-54.359-27.703-8.6235 2.3528-5.4871 4.4444-10.193 9.9315-38.155-0.78358-48.87 12.545-55.926 42.86 14.635-15.941 26.917-20.908 48.608-13.59-3.3955 10.454-3.3955 17.51 4.1832 22.736 10.191 9.4091 27.962 3.6587 33.712 5.2279 9.6703 2.614 24.828-1.0448 46.519-1.306 9.6682 0-7.8399 14.635-19.602 14.372-8.6235-0.26119-20.383 6.2727-35.018 6.5339-3.1364 8.3643-7.0563 13.068-5.4891 20.124-18.294 16.463-21.691 33.712-4.9647 68.21-4.1811-21.691 7.3175-32.931 21.691-39.724 4.9647 6.7931 16.986 4.7035 22.997 3.3976 6.2727-2.3528 26.134-22.216 32.406-27.964 5.2259-4.9647 16.463-7.0563 27.964-14.374 2.0896-1.5692 25.611-3.3976 25.35 0.26119-1.0468 4.1811 0.78358 13.59-2.0916 18.816 2.0916 4.9667 8.3623 7.0563 14.635 8.3623 1.306 14.635-3.1364 18.557-12.543 24.305 15.68 7.5787 28.748-3.1364 34.235-21.43 2.8752 3.3976 8.8847-3.3976 12.807-4.9647 4.9647-10.976 0.26119-31.1 6.0095-35.282 14.896-11.237 19.863-18.555 32.929-22.214 4.9667-13.59 9.6703-27.178 14.374-40.507 3.1364 9.4091 1.5692 19.861-0.78358 29.009-1.8304 7.3175-1.8304 13.068 2.3528 20.385 6.7951-0.52441 12.543-2.3528 15.68-7.8419-4.1811-7.3175-4.4423-21.167 7.8399-30.054 7.8399-5.4871 3.1364-19.077 6.2727-26.395 12.805 6.5339 2.0896 17.51 1.5672 27.178-0.78358 10.193-1.306 19.863 2.3528 22.738 2.3528 1.8284 6.7951 1.0448 13.851-3.6587-3.6587-3.922-4.9667-8.8867-4.4423-14.635 1.5672-16.204 20.383-18.557 22.997-55.667 6.7951 27.442-5.2279 32.929-5.7503 47.041-0.26119 11.499 4.7056 18.032 19.863 14.896-0.78561-7.5787-0.26119-15.419 1.0448-22.997 2.8752-16.204 14.635-1.0448 12.021-49.655 8.8867 5.2279 7.0563 15.943 6.5339 26.397-0.52239 10.191-2.3528 21.167-1.0448 27.701 1.306 7.0563 5.7483 10.454 16.986 5.7503 0.78561-16.727 4.4444-26.919 10.193-33.714 8.8867-11.237 10.976-20.644 31.884-26.134 0.52239-6.7951 1.5672-14.635 5.4891-20.906 8.8847-14.635-14.898-27.703-4.4444-49.394 3.9199-8.3623 13.329-19.338 32.668-31.884 21.952-14.896 60.632-17.771 113.16-53.051z"/>
  
  
   <path class="fil3 str0" d="m2020.1 1855.7c-7.5787-24.305-18.294-45.733-39.463-65.596-5.2279-5.2259-12.284-10.193-20.385-15.157-6.0095 5.7503-11.237 12.805-11.76 21.169 31.884 10.976 53.575 18.294 71.346 59.846l0.26119-0.26119z"/>
   <path id="1" class="fil4" d="m2020.1 1855.7c-7.5787-24.305-18.294-45.733-39.463-65.596-5.2279-5.2259-12.284-10.193-20.385-15.157-6.0095 5.7503-11.237 12.805-11.76 21.169 31.884 10.976 53.575 18.294 71.346 59.846l0.26119-0.26119z"/>
  
  
   <path class="fil3 str0" d="m1881.2 1547.3c0 2.8731 0 5.7483-0.26119 8.8847-0.52239 11.499-1.5692 22.997 8.8847 33.974-51.222 18.294-36.587-30.837-54.881-45.994 1.0448 19.338-21.43 36.587-5.2259 54.881-29.794 2.6119-36.587-9.9315-37.112-27.18 0-16.202 5.7503-36.587-0.52239-49.653 4.1811 22.997-4.7035 35.541-12.543 45.994-7.3175 9.9315-13.59 17.771-4.1811 29.27-14.635 2.0916-22.477-2.6119-25.611-12.021-4.1832-14.113 1.0448-38.155 6.2707-63.243 0 22.997-8.8847 35.018-17.247 43.382-8.8867 9.407-17.249 14.111-13.068 24.564-28.748-3.1364-28.225-16.202-21.43-32.406 5.7503-15.157 17.249-32.404 14.113-48.086-2.614 32.406-19.861 39.724-33.451 42.338-5.7503 1.0448-12.021 1.0448-18.032 0.78358v2.8752c-29.009 58.801-156.8 104.54-192.61 108.46-35.804 3.9199-48.608-4.4444-51.222-11.762-2.614-8.1011-37.371-35.28-39.724-49.653-8.6235-2.0916-12.282-3.6587-19.338-1.0468-32.929-12.543-32.406-5.4871-53.836 12.284 20.908-6.7951 27.701-2.3528 34.496 12.805-6.2707 5.7503-5.2259 15.159-2.8752 20.646 5.4891 11.499 39.201 24.305 41.815 27.442 6.0115 7.0563 11.499 2.3508 26.134 10.191-5.2259 2.614-15.157 2.614-26.134-3.6587-12.543-7.3175-58.279-15.157-66.38-27.178-8.8867 2.0916-11.762 9.6703-16.727 15.157-18.032-2.614-38.94 16.988-34.757 47.825 15.419-15.157 28.746-22.475 39.461-19.338-2.8731 8.1011-1.8284 14.113 2.614 18.032 10.193 7.3175 29.792 2.3528 34.498 5.4871 8.6235 5.7503 28.484-4.4423 50.437-4.1811 9.6703 0-7.0543 12.023-19.077 11.499-8.8847-0.52239-23.52 7.3175-38.155 6.7951-3.3976 8.6255-1.5692 9.9315-0.26119 17.249-20.646 31.1-18.555 39.985-2.3528 62.982-3.1364-21.691 1.5672-31.098 16.202-37.371 4.4444 7.0563 12.284 8.6235 18.296 7.5787 11.499-3.6587 20.644-13.851 25.872-16.202 5.4871-2.3528 12.021-9.4091 20.122-13.59 3.9199-1.8304 10.715-7.5787 21.691-3.6587 7.3175 2.8752 4.4423 0.52239 5.2279 12.543 2.0896 5.2279 4.1811 6.7951 10.191 8.6255 1.5692 8.8847-3.1364 13.066-16.202 19.861 10.976 8.1011 27.703 4.1811 32.668-13.066 5.4871 3.9199 10.976-0.26119 15.157-4.1832 7.8399-9.6682 1.8304-19.861 7.8399-25.087 12.023-10.454 39.985-10.193 50.7-18.557 6.0115-10.976 6.7951-27.962 14.896-33.451 6.7951 5.7503 0.78358 16.727-3.3976 27.18-4.1811 10.715-2.3508 24.042 19.602 22.214-0.26119-13.329 2.0896-28.225 15.68-33.974 9.4091-3.922 13.329-18.294 17.771-31.1 1.306 8.1011 0.52239 23.783-7.5787 31.884-8.6255 8.6235-4.4423 25.35 17.249 24.303 0.26119-10.191 4.4423-20.906 9.1458-30.837 6.7951-14.635 21.43-26.395 23.783-45.474 4.4423 8.6255-1.0468 22.738-6.2727 34.759-7.0563 16.727-7.8399 33.974 19.861 30.315-1.306-19.338 2.3528-32.668 13.068-43.382 8.1011-8.1011 13.068-20.122 17.249-35.541 4.9647 8.8847 1.0448 23.781-4.1811 35.802-5.7503 13.329-11.501 37.895 16.986 30.317-1.5672-22.475 9.1479-24.566 13.068-36.326 3.9199-12.021 10.715-22.997 12.543-36.849 8.1011 9.6682 1.8304 22.736-2.8752 33.712-8.1011 19.861-8.6235 41.03 20.646 35.282-2.0896-26.919 3.3976-46.519 12.021-62.723 4.4444-8.8847-11.237-18.294 4.7056-31.36 5.7483 18.032 3.9199 31.621 0.78358 42.336-3.1364 11.24-9.6703 21.691-9.6703 34.237 94.866 39.724 190.26 63.766 224.75 96.433 41.291 39.201 42.077 83.89 59.062 144.26 2.0916 7.5787 4.9667 17.51 4.7056 26.134-0.52441 10.715-18.818 30.054-30.839 23.26-0.26119 11.237 6.2727 18.032 13.068 18.555 6.5339 0.26119 18.294-4.4444 20.383-13.851-2.8731 27.703 0 32.668 20.646 35.282-4.1811-26.397 4.1811-40.246 0.78358-60.632 8.3643 9.9315 12.545 4.9647 31.623 7.3175 74.481 8.8847 76.311 43.905 83.89 88.332 3.6587 20.646 3.6587 42.338 2.8752 55.142-0.52239 7.5787-8.6255 18.294-14.635 22.999-4.4423 3.3976-21.169 14.635-32.145 8.3623-9.1479-5.2259-30.054-9.1458-42.338-16.727-7.3175 5.2279-10.715 7.0563-13.327 14.113-34.498 8.6255-39.985 15.682-37.634 49.916 8.3643-20.385 20.908-22.475 36.849-17.771 0.26119 8.6255 3.3976 13.59 9.1479 15.419 12.282 3.1364 25.872-0.52239 30.837-0.52239 9.9315 0 17.249-0.26119 32.929-6.2707-1.5672 5.7483-9.9294 12.805-27.962 10.452-15.419-2.0896-33.714 3.9199-48.086 2.3528-4.1832 8.1011-6.0115 14.113-5.2279 21.43-30.315 25.872-35.543 51.745-15.157 78.664-1.5692-21.691 7.0563-37.895 27.178-48.61 4.1832 7.3175 9.4091 10.454 15.421 9.6703 12.021-2.8752 20.906-12.807 27.178-14.374 10.715-2.8752 20.124-13.068 35.282-29.531 7.0563-7.5787 1.306 9.9294-7.3175 18.816-6.7951 6.7951-9.4091 19.338-19.34 30.054 4.1832 8.1011 6.5339 7.5787 12.807 11.237 2.8752 39.724 10.715 57.234 44.427 56.973-18.555-11.76-17.771-35.804-13.066-50.961 8.3623 1.0448 14.111-1.306 17.247-6.5339 4.7056-11.237 2.8752-24.566 4.4444-30.315 1.8284-6.0115 0.52239-14.896 2.8731-24.044 1.0468-4.9647 8.3643-1.306 13.329-19.861 0.26119-1.308 7.8399-3.1364 8.6235-1.8304 3.3976 4.1811 1.5692 10.193 3.3976 15.943 5.2279 1.8284 10.454 0.52239 15.682-3.1364 11.499 9.1458 14.113 21.169 8.3623 36.065 13.329-3.1364 19.077-18.555 17.771-46.258 4.4423 0.26119 9.407-2.614 11.76-5.7503-2.3528-12.282-14.374-17.247-14.374-25.089 0-15.941 3.6587-31.882 0-48.086-15.419-19.077-29.792-13.588-40.507-29.009 10.193-1.5672 24.044 2.0916 30.576 10.454 7.0563 8.6255 18.032 17.771 25.872 16.988 6.5339-0.78358 10.715-7.8399 10.715-25.611-8.1011 2.8752-17.769 1.5672-24.564-5.4891-10.976-11.76-18.555-21.691-40.771-33.974 7.8419 0.52239 22.477 4.9647 31.623 14.374 8.6255 8.6235 21.169 10.976 26.919 9.6703 4.4423-1.0468 8.6235-7.0563 6.0095-19.602-15.941 2.3528-20.383-8.8847-31.884-22.475-8.1011-9.4091-19.6-19.861-40.507-27.703 20.385-10.191 35.02 17.51 51.484 24.566 14.898 6.2727 25.35 6.0115 21.691-15.68-10.976 2.0896-15.419-5.7503-24.826-15.943-8.1031-8.3623-19.602-18.294-41.293-24.303 7.8399-3.1364 19.079 1.8284 29.531 7.8399 8.1031 4.4423 18.032 6.7951 24.566 6.7951 8.8867 0.26119 13.851-4.7056 10.193-20.124-30.054-4.7035-48.87-21.43-52.792-57.495-9.1458-0.78358-17.769-2.8731-27.701-16.202-36.065 15.941-45.996-8.8847-70.563-25.872-7.0563-4.9667-19.6-3.9199-25.087-11.76 6.2707-4.7056 13.327 1.0448 20.906 3.3976 8.3643 2.6119 17.51 5.7483 23.26 0.26119 3.3976-3.3976 5.7483-10.193 6.0095-21.43-14.374 7.8399-23.781 3.1364-33.19-3.3976-7.5787-5.2279-15.419-12.021-25.872-14.635 6.2727-2.8752 14.374 0 22.736 2.8752 7.8399 2.8731 16.204 6.0095 21.43 5.2259 4.7056-0.52239 7.8399-7.8399 7.8399-20.385-7.3175 5.4891-17.771 3.1364-23.781-0.52239-8.3623-5.4871-13.59-15.157-30.054-17.771 3.1343-4.7035 15.68-3.1343 26.656-0.26119 8.1011 1.8304 16.988 2.614 21.169-1.0448 2.3508-1.8284 3.1364-8.8847 2.0896-14.635-7.3175 3.3976-15.157 4.1811-21.43 2.8752-9.9294-1.8304-17.508-8.1011-18.555-12.023-1.8284-7.3175 0-10.713 6.7951-10.976 6.7951-0.26119 11.237 6.5339 27.18 6.5339 15.941 0 66.119-11.499 96.956-47.564 12.284-14.374 33.976-11.237 48.349 4.7035 8.1011-6.5319 10.976-13.327 9.407-19.6-2.0896-7.8399-12.021-18.294-28.748-18.032 1.308-11.76 6.5339-20.383 12.807-24.042 7.8399-4.9667 16.986-2.8752 20.122 7.0543 10.454-13.849 9.1479-24.303 2.3528-30.576-6.5339-5.7503-18.032-8.1011-29.27-5.7503 0-13.327 3.1364-22.475 8.6235-26.134 5.7503-4.1811 14.374-3.1364 23.783 3.1364 3.1364-18.294-4.4423-28.486-15.68-29.792-8.3643-1.0448-19.079 3.1364-27.442 12.543-4.4423-32.668-21.43-60.63-62.199-81.798-7.8399 4.1811-17.771 16.202-23.522 23.52 41.554 32.145 62.462 71.869 61.938 113.95-0.52239 42.075-59.846 83.629-94.081 83.629-34.237 0-62.462-8.6255-89.379-19.863-47.302-19.6-125.7-113.42-180.59-158.11l-5.7483-4.4423z"/>
   <path id="1" class="fil4" d="m1881.2 1547.3c0 2.8731 0 5.7483-0.26119 8.8847-0.52239 11.499-1.5692 22.997 8.8847 33.974-51.222 18.294-36.587-30.837-54.881-45.994 1.0448 19.338-21.43 36.587-5.2259 54.881-29.794 2.6119-36.587-9.9315-37.112-27.18 0-16.202 5.7503-36.587-0.52239-49.653 4.1811 22.997-4.7035 35.541-12.543 45.994-7.3175 9.9315-13.59 17.771-4.1811 29.27-14.635 2.0916-22.477-2.6119-25.611-12.021-4.1832-14.113 1.0448-38.155 6.2707-63.243 0 22.997-8.8847 35.018-17.247 43.382-8.8867 9.407-17.249 14.111-13.068 24.564-28.748-3.1364-28.225-16.202-21.43-32.406 5.7503-15.157 17.249-32.404 14.113-48.086-2.614 32.406-19.861 39.724-33.451 42.338-5.7503 1.0448-12.021 1.0448-18.032 0.78358v2.8752c-29.009 58.801-156.8 104.54-192.61 108.46-35.804 3.9199-48.608-4.4444-51.222-11.762-2.614-8.1011-37.371-35.28-39.724-49.653-8.6235-2.0916-12.282-3.6587-19.338-1.0468-32.929-12.543-32.406-5.4871-53.836 12.284 20.908-6.7951 27.701-2.3528 34.496 12.805-6.2707 5.7503-5.2259 15.159-2.8752 20.646 5.4891 11.499 39.201 24.305 41.815 27.442 6.0115 7.0563 11.499 2.3508 26.134 10.191-5.2259 2.614-15.157 2.614-26.134-3.6587-12.543-7.3175-58.279-15.157-66.38-27.178-8.8867 2.0916-11.762 9.6703-16.727 15.157-18.032-2.614-38.94 16.988-34.757 47.825 15.419-15.157 28.746-22.475 39.461-19.338-2.8731 8.1011-1.8284 14.113 2.614 18.032 10.193 7.3175 29.792 2.3528 34.498 5.4871 8.6235 5.7503 28.484-4.4423 50.437-4.1811 9.6703 0-7.0543 12.023-19.077 11.499-8.8847-0.52239-23.52 7.3175-38.155 6.7951-3.3976 8.6255-1.5692 9.9315-0.26119 17.249-20.646 31.1-18.555 39.985-2.3528 62.982-3.1364-21.691 1.5672-31.098 16.202-37.371 4.4444 7.0563 12.284 8.6235 18.296 7.5787 11.499-3.6587 20.644-13.851 25.872-16.202 5.4871-2.3528 12.021-9.4091 20.122-13.59 3.9199-1.8304 10.715-7.5787 21.691-3.6587 7.3175 2.8752 4.4423 0.52239 5.2279 12.543 2.0896 5.2279 4.1811 6.7951 10.191 8.6255 1.5692 8.8847-3.1364 13.066-16.202 19.861 10.976 8.1011 27.703 4.1811 32.668-13.066 5.4871 3.9199 10.976-0.26119 15.157-4.1832 7.8399-9.6682 1.8304-19.861 7.8399-25.087 12.023-10.454 39.985-10.193 50.7-18.557 6.0115-10.976 6.7951-27.962 14.896-33.451 6.7951 5.7503 0.78358 16.727-3.3976 27.18-4.1811 10.715-2.3508 24.042 19.602 22.214-0.26119-13.329 2.0896-28.225 15.68-33.974 9.4091-3.922 13.329-18.294 17.771-31.1 1.306 8.1011 0.52239 23.783-7.5787 31.884-8.6255 8.6235-4.4423 25.35 17.249 24.303 0.26119-10.191 4.4423-20.906 9.1458-30.837 6.7951-14.635 21.43-26.395 23.783-45.474 4.4423 8.6255-1.0468 22.738-6.2727 34.759-7.0563 16.727-7.8399 33.974 19.861 30.315-1.306-19.338 2.3528-32.668 13.068-43.382 8.1011-8.1011 13.068-20.122 17.249-35.541 4.9647 8.8847 1.0448 23.781-4.1811 35.802-5.7503 13.329-11.501 37.895 16.986 30.317-1.5672-22.475 9.1479-24.566 13.068-36.326 3.9199-12.021 10.715-22.997 12.543-36.849 8.1011 9.6682 1.8304 22.736-2.8752 33.712-8.1011 19.861-8.6235 41.03 20.646 35.282-2.0896-26.919 3.3976-46.519 12.021-62.723 4.4444-8.8847-11.237-18.294 4.7056-31.36 5.7483 18.032 3.9199 31.621 0.78358 42.336-3.1364 11.24-9.6703 21.691-9.6703 34.237 94.866 39.724 190.26 63.766 224.75 96.433 41.291 39.201 42.077 83.89 59.062 144.26 2.0916 7.5787 4.9667 17.51 4.7056 26.134-0.52441 10.715-18.818 30.054-30.839 23.26-0.26119 11.237 6.2727 18.032 13.068 18.555 6.5339 0.26119 18.294-4.4444 20.383-13.851-2.8731 27.703 0 32.668 20.646 35.282-4.1811-26.397 4.1811-40.246 0.78358-60.632 8.3643 9.9315 12.545 4.9647 31.623 7.3175 74.481 8.8847 76.311 43.905 83.89 88.332 3.6587 20.646 3.6587 42.338 2.8752 55.142-0.52239 7.5787-8.6255 18.294-14.635 22.999-4.4423 3.3976-21.169 14.635-32.145 8.3623-9.1479-5.2259-30.054-9.1458-42.338-16.727-7.3175 5.2279-10.715 7.0563-13.327 14.113-34.498 8.6255-39.985 15.682-37.634 49.916 8.3643-20.385 20.908-22.475 36.849-17.771 0.26119 8.6255 3.3976 13.59 9.1479 15.419 12.282 3.1364 25.872-0.52239 30.837-0.52239 9.9315 0 17.249-0.26119 32.929-6.2707-1.5672 5.7483-9.9294 12.805-27.962 10.452-15.419-2.0896-33.714 3.9199-48.086 2.3528-4.1832 8.1011-6.0115 14.113-5.2279 21.43-30.315 25.872-35.543 51.745-15.157 78.664-1.5692-21.691 7.0563-37.895 27.178-48.61 4.1832 7.3175 9.4091 10.454 15.421 9.6703 12.021-2.8752 20.906-12.807 27.178-14.374 10.715-2.8752 20.124-13.068 35.282-29.531 7.0563-7.5787 1.306 9.9294-7.3175 18.816-6.7951 6.7951-9.4091 19.338-19.34 30.054 4.1832 8.1011 6.5339 7.5787 12.807 11.237 2.8752 39.724 10.715 57.234 44.427 56.973-18.555-11.76-17.771-35.804-13.066-50.961 8.3623 1.0448 14.111-1.306 17.247-6.5339 4.7056-11.237 2.8752-24.566 4.4444-30.315 1.8284-6.0115 0.52239-14.896 2.8731-24.044 1.0468-4.9647 8.3643-1.306 13.329-19.861 0.26119-1.308 7.8399-3.1364 8.6235-1.8304 3.3976 4.1811 1.5692 10.193 3.3976 15.943 5.2279 1.8284 10.454 0.52239 15.682-3.1364 11.499 9.1458 14.113 21.169 8.3623 36.065 13.329-3.1364 19.077-18.555 17.771-46.258 4.4423 0.26119 9.407-2.614 11.76-5.7503-2.3528-12.282-14.374-17.247-14.374-25.089 0-15.941 3.6587-31.882 0-48.086-15.419-19.077-29.792-13.588-40.507-29.009 10.193-1.5672 24.044 2.0916 30.576 10.454 7.0563 8.6255 18.032 17.771 25.872 16.988 6.5339-0.78358 10.715-7.8399 10.715-25.611-8.1011 2.8752-17.769 1.5672-24.564-5.4891-10.976-11.76-18.555-21.691-40.771-33.974 7.8419 0.52239 22.477 4.9647 31.623 14.374 8.6255 8.6235 21.169 10.976 26.919 9.6703 4.4423-1.0468 8.6235-7.0563 6.0095-19.602-15.941 2.3528-20.383-8.8847-31.884-22.475-8.1011-9.4091-19.6-19.861-40.507-27.703 20.385-10.191 35.02 17.51 51.484 24.566 14.898 6.2727 25.35 6.0115 21.691-15.68-10.976 2.0896-15.419-5.7503-24.826-15.943-8.1031-8.3623-19.602-18.294-41.293-24.303 7.8399-3.1364 19.079 1.8284 29.531 7.8399 8.1031 4.4423 18.032 6.7951 24.566 6.7951 8.8867 0.26119 13.851-4.7056 10.193-20.124-30.054-4.7035-48.87-21.43-52.792-57.495-9.1458-0.78358-17.769-2.8731-27.701-16.202-36.065 15.941-45.996-8.8847-70.563-25.872-7.0563-4.9667-19.6-3.9199-25.087-11.76 6.2707-4.7056 13.327 1.0448 20.906 3.3976 8.3643 2.6119 17.51 5.7483 23.26 0.26119 3.3976-3.3976 5.7483-10.193 6.0095-21.43-14.374 7.8399-23.781 3.1364-33.19-3.3976-7.5787-5.2279-15.419-12.021-25.872-14.635 6.2727-2.8752 14.374 0 22.736 2.8752 7.8399 2.8731 16.204 6.0095 21.43 5.2259 4.7056-0.52239 7.8399-7.8399 7.8399-20.385-7.3175 5.4891-17.771 3.1364-23.781-0.52239-8.3623-5.4871-13.59-15.157-30.054-17.771 3.1343-4.7035 15.68-3.1343 26.656-0.26119 8.1011 1.8304 16.988 2.614 21.169-1.0448 2.3508-1.8284 3.1364-8.8847 2.0896-14.635-7.3175 3.3976-15.157 4.1811-21.43 2.8752-9.9294-1.8304-17.508-8.1011-18.555-12.023-1.8284-7.3175 0-10.713 6.7951-10.976 6.7951-0.26119 11.237 6.5339 27.18 6.5339 15.941 0 66.119-11.499 96.956-47.564 12.284-14.374 33.976-11.237 48.349 4.7035 8.1011-6.5319 10.976-13.327 9.407-19.6-2.0896-7.8399-12.021-18.294-28.748-18.032 1.308-11.76 6.5339-20.383 12.807-24.042 7.8399-4.9667 16.986-2.8752 20.122 7.0543 10.454-13.849 9.1479-24.303 2.3528-30.576-6.5339-5.7503-18.032-8.1011-29.27-5.7503 0-13.327 3.1364-22.475 8.6235-26.134 5.7503-4.1811 14.374-3.1364 23.783 3.1364 3.1364-18.294-4.4423-28.486-15.68-29.792-8.3643-1.0448-19.079 3.1364-27.442 12.543-4.4423-32.668-21.43-60.63-62.199-81.798-7.8399 4.1811-17.771 16.202-23.522 23.52 41.554 32.145 62.462 71.869 61.938 113.95-0.52239 42.075-59.846 83.629-94.081 83.629-34.237 0-62.462-8.6255-89.379-19.863-47.302-19.6-125.7-113.42-180.59-158.11l-5.7483-4.4423z"/>
  
  
   <path class="fil3 str0" d="m1694.2 1311.4c9.9315-3.9199 27.442-13.068 23.522-18.294-3.9199-5.2279-16.465 7.3175-25.611 16.724-6.2727-12.021-16.988-12.282-25.611-24.042 22.214-20.124 19.077-50.439 37.632-56.973 3.9199-10.715-2.614-17.51 2.0916-26.656 7.5787-14.896 19.861-30.578 30.576-33.451l95.389 49.653c12.284-4.9647 29.531-12.021 38.94-6.5339 9.407 5.4891 11.237 18.032 8.1011 27.703l17.51 12.545c2.614 14.111 1.0448 28.746 0 42.075-12.807-12.021-29.27-24.305-37.371-23.781 26.656 5.7483 26.656 37.371 67.947 27.701-2.3508 22.997-9.1458 26.134-22.736 25.35-14.113-0.78358-28.486-16.202-44.427-14.374 16.724 3.9199 27.178 14.896 37.371 23.522 10.193 8.8847 20.385 15.157 36.326 10.191 0.52239 18.557-6.2727 22.738-16.463 21.691-10.193-1.306-23.522-9.407-35.543-13.588-7.0563-2.3528-13.851-3.6587-19.602-0.78561 15.943 2.614 26.397 8.8867 34.759 14.898 13.59 9.9294 21.169 19.338 38.155 13.066 9.1479 20.124-7.5787 24.566-18.032 24.305-8.8847 0-18.816-8.6255-29.007-14.113-7.8419-4.4423-15.943-7.5787-23.783-4.4423 15.68 2.6119 26.395 11.499 35.282 19.861 11.499 10.454 20.644 20.124 35.018 16.727 11.237 22.475-3.6587 26.395-12.543 26.656-15.68 0.52239-35.02-28.486-50.961-20.646 16.724 3.1364 22.214 13.59 28.748 23.26 6.7951 9.6682 14.635 18.816 36.065 20.644 3.3976 21.691-14.635 26.136-26.919 25.089-20.906-1.5672-20.383-31.098-45.211-25.089 18.294 0.78561 25.611 14.637 32.145 28.486 8.6235 18.555 15.941 37.895 42.336 34.498-3.1364 21.952-10.454 30.576-19.077 30.576-10.976 0-21.691-8.6235-31.884-19.077-12.543-13.068-2.6119-19.077-28.748-30.576 23.783 13.327 22.999 27.701 22.477 42.075-0.52441 11.237-1.308 22.997 8.8847 33.974-51.222 18.032-36.587-30.837-54.62-45.994 1.0448 19.077-21.43 36.587-5.2259 54.881-30.056 2.3528-36.587-10.193-37.112-27.18-0.26119-16.202 5.4891-36.849-0.78358-49.653 4.1811 22.736-4.7035 35.543-12.282 45.733-7.3175 9.9315-13.59 17.771-4.4423 29.531-14.635 2.0916-22.477-2.6119-25.35-12.282-4.1832-13.851 1.0448-37.893 6.2707-62.982-0.26119 22.736-9.1458 34.757-17.247 43.121-9.1479 9.407-17.51 14.374-13.329 24.826-28.748-3.3955-27.964-16.463-21.43-32.404 6.0115-15.159 17.249-32.668 14.113-48.088-2.614 32.406-19.602 39.463-33.451 42.077-20.646 4.1811-44.166-6.5339-58.54 6.2727-8.8867-18.555 0-29.531 15.68-37.373 19.338-9.9294 36.587 1.0468 64.551-27.178-20.385 14.374-37.373 18.032-47.302 13.329-7.8419-3.3976-13.068-12.023-8.8867-27.964 16.988 8.6235 35.543-2.8752 41.293-14.113 4.4423-8.6235 3.3955-20.124 2.3508-31.1 8.6255 0 16.204-2.6119 24.305-8.8847 1.8284-6.5339 6.7951-11.499 10.193-17.51 1.5672 9.4091 6.0095 18.555 4.9647 27.703 13.329 9.9315 16.465 28.225 40.246 29.27 23.783 1.0448 42.077-37.11 40.769-71.608-1.306-34.496-21.167-68.994-43.644-69.516-22.475-0.52239-26.395 19.077-39.463 28.486 0 4.4423-2.0896 8.8847-2.8731 13.066-3.1364-6.7931-10.454-12.805-8.8867-20.383-8.3623 0.78358-16.463 0.52239-24.828-3.6587 0.78561-9.6703-2.3508-19.338-0.78358-29.27z"/>
   <path id="1" class="fil4" d="m1694.2 1311.4c9.9315-3.9199 27.442-13.068 23.522-18.294-3.9199-5.2279-16.465 7.3175-25.611 16.724-6.2727-12.021-16.988-12.282-25.611-24.042 22.214-20.124 19.077-50.439 37.632-56.973 3.9199-10.715-2.614-17.51 2.0916-26.656 7.5787-14.896 19.861-30.578 30.576-33.451l95.389 49.653c12.284-4.9647 29.531-12.021 38.94-6.5339 9.407 5.4891 11.237 18.032 8.1011 27.703l17.51 12.545c2.614 14.111 1.0448 28.746 0 42.075-12.807-12.021-29.27-24.305-37.371-23.781 26.656 5.7483 26.656 37.371 67.947 27.701-2.3508 22.997-9.1458 26.134-22.736 25.35-14.113-0.78358-28.486-16.202-44.427-14.374 16.724 3.9199 27.178 14.896 37.371 23.522 10.193 8.8847 20.385 15.157 36.326 10.191 0.52239 18.557-6.2727 22.738-16.463 21.691-10.193-1.306-23.522-9.407-35.543-13.588-7.0563-2.3528-13.851-3.6587-19.602-0.78561 15.943 2.614 26.397 8.8867 34.759 14.898 13.59 9.9294 21.169 19.338 38.155 13.066 9.1479 20.124-7.5787 24.566-18.032 24.305-8.8847 0-18.816-8.6255-29.007-14.113-7.8419-4.4423-15.943-7.5787-23.783-4.4423 15.68 2.6119 26.395 11.499 35.282 19.861 11.499 10.454 20.644 20.124 35.018 16.727 11.237 22.475-3.6587 26.395-12.543 26.656-15.68 0.52239-35.02-28.486-50.961-20.646 16.724 3.1364 22.214 13.59 28.748 23.26 6.7951 9.6682 14.635 18.816 36.065 20.644 3.3976 21.691-14.635 26.136-26.919 25.089-20.906-1.5672-20.383-31.098-45.211-25.089 18.294 0.78561 25.611 14.637 32.145 28.486 8.6235 18.555 15.941 37.895 42.336 34.498-3.1364 21.952-10.454 30.576-19.077 30.576-10.976 0-21.691-8.6235-31.884-19.077-12.543-13.068-2.6119-19.077-28.748-30.576 23.783 13.327 22.999 27.701 22.477 42.075-0.52441 11.237-1.308 22.997 8.8847 33.974-51.222 18.032-36.587-30.837-54.62-45.994 1.0448 19.077-21.43 36.587-5.2259 54.881-30.056 2.3528-36.587-10.193-37.112-27.18-0.26119-16.202 5.4891-36.849-0.78358-49.653 4.1811 22.736-4.7035 35.543-12.282 45.733-7.3175 9.9315-13.59 17.771-4.4423 29.531-14.635 2.0916-22.477-2.6119-25.35-12.282-4.1832-13.851 1.0448-37.893 6.2707-62.982-0.26119 22.736-9.1458 34.757-17.247 43.121-9.1479 9.407-17.51 14.374-13.329 24.826-28.748-3.3955-27.964-16.463-21.43-32.404 6.0115-15.159 17.249-32.668 14.113-48.088-2.614 32.406-19.602 39.463-33.451 42.077-20.646 4.1811-44.166-6.5339-58.54 6.2727-8.8867-18.555 0-29.531 15.68-37.373 19.338-9.9294 36.587 1.0468 64.551-27.178-20.385 14.374-37.373 18.032-47.302 13.329-7.8419-3.3976-13.068-12.023-8.8867-27.964 16.988 8.6235 35.543-2.8752 41.293-14.113 4.4423-8.6235 3.3955-20.124 2.3508-31.1 8.6255 0 16.204-2.6119 24.305-8.8847 1.8284-6.5339 6.7951-11.499 10.193-17.51 1.5672 9.4091 6.0095 18.555 4.9647 27.703 13.329 9.9315 16.465 28.225 40.246 29.27 23.783 1.0448 42.077-37.11 40.769-71.608-1.306-34.496-21.167-68.994-43.644-69.516-22.475-0.52239-26.395 19.077-39.463 28.486 0 4.4423-2.0896 8.8847-2.8731 13.066-3.1364-6.7931-10.454-12.805-8.8867-20.383-8.3623 0.78358-16.463 0.52239-24.828-3.6587 0.78561-9.6703-2.3508-19.338-0.78358-29.27z"/>
  
  
   <path class="fil3 str0" d="m1764.4 1241c-14.374-6.0095-27.18-12.805-35.804-22.475 8.1011 8.1031 6.2707 29.792-0.78358 35.282 12.021-4.4423 24.303-8.6235 36.587-12.807z"/>
  
  
   <path class="fil3 str0" d="m1739.9 1245c3.681 0 6.6635-2.9825 6.6635-6.6635s-2.9825-6.6635-6.6635-6.6635-6.6635 2.9825-6.6635 6.6635 2.9825 6.6635 6.6635 6.6635z"/>
   <path id="1" class="fil6" d="m1739.9 1245c3.681 0 6.6635-2.9825 6.6635-6.6635s-2.9825-6.6635-6.6635-6.6635-6.6635 2.9825-6.6635 6.6635 2.9825 6.6635 6.6635 6.6635z"/>
  
  
   <path class="fil3 str0" d="m1832 1218.5c-7.3175 3.6587-13.327 6.0095-20.906 12.805"/>
  
  
   <path class="fil3 str0" d="m1878.7 1239.6c-2.6119 6.7951-6.7931 13.068-14.372 16.988"/>
  
  
   <path class="fil3 str0" d="m1844.3 1231.2c10.715-0.52239 12.021 4.1811 9.1458 12.282"/>
  
  
   <path class="fil3 str0" d="m1658.3 1330.3c-50.961-16.463-53.053 14.374-52.53 33.712 0.52239 19.34 20.385 34.498 44.427 35.02 24.044 0.52239 51.747-7.8399 78.142-6.5339 26.395 1.308 60.107 18.294 70.038 24.044 9.9315 5.7483 13.329-9.4091 6.2727-14.374-7.0563-4.9647-35.543-27.18-65.074-26.395-29.531 0.78358-62.982 1.5672-78.403-1.5692-15.419-3.1364-21.428-8.6235-21.952-18.555-0.52239-9.9315 12.807-16.988 19.079-25.35z"/>
   <path id="1" class="fil4" d="m1658.3 1330.3c-50.961-16.463-53.053 14.374-52.53 33.712 0.52239 19.34 20.385 34.498 44.427 35.02 24.044 0.52239 51.747-7.8399 78.142-6.5339 26.395 1.308 60.107 18.294 70.038 24.044 9.9315 5.7483 13.329-9.4091 6.2727-14.374-7.0563-4.9647-35.543-27.18-65.074-26.395-29.531 0.78358-62.982 1.5672-78.403-1.5692-15.419-3.1364-21.428-8.6235-21.952-18.555-0.52239-9.9315 12.807-16.988 19.079-25.35z"/>
  
  
   <path class="fil3 str0" d="m2106.5 1314.3c-13.851 10.715-26.658 23.52-27.18 64.549-0.52239 41.032 47.041 87.026 98.525 99.31-7.5787 7.5787-22.736 15.419-38.155 23.258-53.836-24.305-100.09-56.45-100.88-130.15-0.78358-73.697 79.448-124.4 137.99-124.4 58.54 0 127.53 64.29 128.06 119.96 0.52239 55.665-45.996 100.36-80.492 123.88-34.498 23.522-43.121 40.507-58.018 72.391-8.1011 17.771 16.727 81.798-31.1 92.775 20.908-45.994-11.76-60.107 0-89.377-13.849 15.941-0.52239 35.543-0.52239 54.098 0 9.6682-2.0896 20.644-6.0095 27.44-4.7056 7.8399-12.023 11.237-20.908 3.9199 11.76-26.656 3.9199-33.19 0-44.688-4.1811-12.021-11.76-19.6-6.7951-39.724-8.1011 11.76-4.9647 30.578 2.8752 46.519 9.9315 20.646 1.5672 43.644-27.964 39.201 7.0563-9.4091 7.3175-20.646 5.7503-31.362-2.0916-15.157-7.8399-31.36-7.8399-45.472 0-30.578 37.893-59.326 90.946-85.72 41.552-20.908 106.63-71.608 106.89-116.04 0.26119-44.427-26.656-69.255-47.825-80.231 5.2259 32.145-6.7951 40.769-25.35 31.362 4.4423-5.2279 4.9647-12.807 2.0896-19.863-2.8731-6.7951-9.6682-13.327-19.6-15.68 4.4423 18.032 4.7035 30.837-0.52239 36.587-3.6587 3.9199-10.976 3.9199-21.952-1.0448 4.7035-4.1811 6.5339-10.715 5.4871-15.682-1.306-7.5787-9.407-14.111-20.644-14.635 3.9199 10.193 6.0095 21.691 3.1364 28.748-2.8752 6.5339-9.9315 9.6703-22.738 6.7951 2.3528-6.0095 1.8304-10.454-0.78358-13.066-2.8752-2.8752-8.3623-3.9199-16.463-3.6587z"/>
   <path id="1" class="fil4" d="m2106.5 1314.3c-13.851 10.715-26.658 23.52-27.18 64.549-0.52239 41.032 47.041 87.026 98.525 99.31-7.5787 7.5787-22.736 15.419-38.155 23.258-53.836-24.305-100.09-56.45-100.88-130.15-0.78358-73.697 79.448-124.4 137.99-124.4 58.54 0 127.53 64.29 128.06 119.96 0.52239 55.665-45.996 100.36-80.492 123.88-34.498 23.522-43.121 40.507-58.018 72.391-8.1011 17.771 16.727 81.798-31.1 92.775 20.908-45.994-11.76-60.107 0-89.377-13.849 15.941-0.52239 35.543-0.52239 54.098 0 9.6682-2.0896 20.644-6.0095 27.44-4.7056 7.8399-12.023 11.237-20.908 3.9199 11.76-26.656 3.9199-33.19 0-44.688-4.1811-12.021-11.76-19.6-6.7951-39.724-8.1011 11.76-4.9647 30.578 2.8752 46.519 9.9315 20.646 1.5672 43.644-27.964 39.201 7.0563-9.4091 7.3175-20.646 5.7503-31.362-2.0916-15.157-7.8399-31.36-7.8399-45.472 0-30.578 37.893-59.326 90.946-85.72 41.552-20.908 106.63-71.608 106.89-116.04 0.26119-44.427-26.656-69.255-47.825-80.231 5.2259 32.145-6.7951 40.769-25.35 31.362 4.4423-5.2279 4.9647-12.807 2.0896-19.863-2.8731-6.7951-9.6682-13.327-19.6-15.68 4.4423 18.032 4.7035 30.837-0.52239 36.587-3.6587 3.9199-10.976 3.9199-21.952-1.0448 4.7035-4.1811 6.5339-10.715 5.4871-15.682-1.306-7.5787-9.407-14.111-20.644-14.635 3.9199 10.193 6.0095 21.691 3.1364 28.748-2.8752 6.5339-9.9315 9.6703-22.738 6.7951 2.3528-6.0095 1.8304-10.454-0.78358-13.066-2.8752-2.8752-8.3623-3.9199-16.463-3.6587z"/>
  
  
   <path class="fil3 str0" d="m1575.4 2184.3-25.089 49.133-17.249 13.588 1.5692 20.385-31.1 61.938c-4.4423 9.1479-3.6587 17.249-3.3976 24.566 0 10.193 12.021 19.861 22.214 19.861s18.555-8.3623 18.555-18.555c0-8.8847-6.7931-16.463-15.157-18.032l26.134-54.098 22.477-12.021-4.1832-22.475 29.27-62.199c2.614-5.2279 3.1364-12.023 3.1364-18.294 0-9.9315-12.021-18.818-21.952-18.818-9.9294 0-17.771 7.8419-17.771 17.771 0 8.3643 5.2279 15.159 12.545 17.249z"/>
   <path class="fil4" d="m1575.4 2184.3-25.089 49.133-17.249 13.588 1.5692 20.385-31.1 61.938c-4.4423 9.1479-3.6587 17.249-3.3976 24.566 0 10.193 12.021 19.861 22.214 19.861s18.555-8.3623 18.555-18.555c0-8.8847-6.7931-16.463-15.157-18.032l26.134-54.098 22.477-12.021-4.1832-22.475 29.27-62.199c2.614-5.2279 3.1364-12.023 3.1364-18.294 0-9.9315-12.021-18.818-21.952-18.818-9.9294 0-17.771 7.8419-17.771 17.771 0 8.3643 5.2279 15.159 12.545 17.249z"/>
  
  
   <path class="fil3 str0" d="m1573.8 2275.2c214.56 123.9 362.64 72.527 362.64 72.527 60.439 0 135.99-42.307 135.99-42.307"/>
  
 
</svg>
