<?xml version="1.0" encoding="UTF-8" standalone="no"?>
<svg
   xmlns:dc="http://purl.org/dc/elements/1.1/"
   xmlns:cc="http://creativecommons.org/ns#"
   xmlns:rdf="http://www.w3.org/1999/02/22-rdf-syntax-ns#"
   xmlns:svg="http://www.w3.org/2000/svg"
   xmlns="http://www.w3.org/2000/svg"
   id="svg8"
   version="1.1"
   viewBox="0 0 105.83017 80.166345"
   height="80.168747mm"
   width="105.83334mm">
  <title
     id="title8858">Meripataljoonan lippu</title>
  <defs
     id="defs2" />
  <metadata
     id="metadata5">
    <rdf:RDF>
      <cc:Work
         rdf:about="">
        <dc:format>image/svg+xml</dc:format>
        <dc:type
           rdf:resource="http://purl.org/dc/dcmitype/StillImage" />
        <dc:title>Meripataljoonan lippu</dc:title>
        <dc:date>26.2.2020</dc:date>
        <dc:creator>
          <cc:Agent>
            <dc:title>Tatu Vartiainen/ SVG:Kissa21782/Wikimedia</dc:title>
          </cc:Agent>
        </dc:creator>
      </cc:Work>
    </rdf:RDF>
  </metadata>
  <g
     transform="translate(-47.624996,-99.677536)"
     id="layer1">
    <path
       style="fill:#081e67;fill-opacity:1;stroke-width:0.26458335"
       d="M 47.624996,139.76191 V 99.677533 h 52.916674 52.91667 v 40.084377 40.08437 H 100.54167 47.624996 Z"
       id="path3748" />
    <path
       d="m 261.35938,44.646484 c -0.45778,-0.0089 -0.95977,0.140149 -1.51172,0.435547 -1.06859,0.571881 -2.3429,2.08773 -2.83008,3.369141 -1.81467,4.772938 -13.25948,15.028918 -21.00781,18.826172 l -7.48829,3.671875 -3.375,-3.47461 c -4.21167,-4.336138 -6.76062,-4.510284 -7.63671,-0.521484 -0.99772,4.542614 -4.01464,7.673993 -11.32032,11.746094 -15.14233,8.440138 -19.53819,12.421535 -21.15429,19.158203 -1.39093,5.798018 -0.76153,8.777818 2.04296,9.667968 2.91662,0.92568 5.25174,5.02212 4.52149,7.93164 1.18196,4.2644 -6.46568,5.0902 -8.63477,3.52149 -0.80039,-0.49471 -0.96495,-1.44782 -0.45312,-2.62696 1.15906,-2.6702 0.6302,-4.62463 -1.75391,-6.48242 -1.5147,-1.18027 -2.05201,-2.65027 -1.95117,-5.33203 l 0.13867,-3.70313 -4.05078,0.6836 -4.04883,0.68359 0.32618,-3.222654 c 0.32629,-3.211843 -0.006,-3.59671 -5.17188,-5.988282 -2.28948,-1.05993 -2.32897,-4.383207 -0.10156,-8.539062 1.45364,-2.712189 1.74421,-4.249224 1.05078,-5.544922 -0.90616,-1.693153 -1.26624,-1.656353 -6.51758,0.666016 -3.05749,1.352163 -7.21864,2.685914 -9.24609,2.964843 -3.75888,0.517191 -9.75857,1.815448 -16.38282,3.544922 -2.033,0.530759 -4.61348,2.133095 -5.73632,3.560547 -1.12286,1.42749 -3.86418,3.497461 -6.0918,4.59961 -6.67015,3.300125 -8.51857,10.944762 -4.22852,17.492192 0.81614,1.24551 2.09159,2.26562 2.83399,2.26562 1.66624,-3.39434 11.1118,-10.81639 13.94726,-6.95508 0.35501,0.57445 -1.19386,3.03828 -3.4414,5.47656 -3.08933,3.35154 -4.08594,5.25217 -4.08594,7.78907 0,4.51396 0.56933,4.84588 5.16797,3.00586 8.88754,-3.55609 15.84006,1.36796 19.31836,13.68359 0.85435,3.02502 1.99393,6.28128 2.5332,7.23633 0.53926,0.95505 0.98047,2.31687 0.98047,3.02734 0,0.71052 1.53941,4.50379 3.41992,8.42774 3.59703,7.50572 15.97328,21.4069 20.22266,22.71484 1.7181,1.22609 3.19783,3.99077 0.76953,7.23047 -3.07729,3.985 -4.63926,9.31958 -3.99023,13.74219 0.35779,2.81601 0.66141,5.9086 0.67578,6.87109 0.0177,1.18091 0.81975,1.75 2.46484,1.75 2.85972,0 2.90639,0.19377 0.94922,3.97852 -1.99464,3.85723 -4.87845,4.61135 -9.56055,2.5 -6.05842,-2.73196 -9.28039,-1.37751 -12.79297,5.38086 l -1.74609,3.36132 -9.95508,0.0762 -9.95703,0.0742 -0.30664,-5.91015 c -0.16865,-3.25164 -0.84365,-6.25458 -1.5,-6.67188 -0.65634,-0.41722 -9.66902,-0.76588 -20.02734,-0.77344 -14.04642,-0.0114 -18.733195,0.28475 -18.439458,1.16602 6.967658,7.36871 15.742248,6.61215 24.785158,7.32031 3.43125,0.75364 4.2376,1.68577 3.38476,3.90821 -0.41322,1.07682 -1.86775,1.58984 -4.5039,1.58984 -7.06235,0.12586 -13.99908,1.077 -19.68946,3.02344 -13.803899,4.92349 21.48383,8.65699 23.32026,10.05004 2.14798,1.14146 0.47197,2.26038 0.24414,2.48828 -5.74137,0.54307 -23.0542,1.3043 -24.26752,7.72925 0,0.76979 2.35968,1.39032 6.49805,1.70898 H 106 c 6.86267,0.52763 26.62624,0.1637 28.74805,-0.5293 0.75155,-0.24548 1.25,-2.18216 1.25,-4.85742 0,-7.96656 -0.8552,-7.61328 18.40625,-7.61328 16.99323,0.2374 45.43747,-1.96173 65.59375,0.72656 -2.7e-4,1.80344 4.46021,4.41693 6.32031,3.70313 0.88157,-0.33827 1.87601,-1.47229 2.20898,-2.52149 0.6742,-2.12424 0.44928,-2.06685 9.47071,-2.42968 4.60297,-0.18513 6.98567,0.16712 8.16601,1.20898 1.27249,1.1232 2.14535,1.21686 3.68555,0.39258 1.3118,-0.70212 12.20613,-1.08008 31.14844,-1.08008 18.16871,0 29.86005,-0.38954 31.0664,-1.03516 2.33624,-1.2503 2.62721,-6.63213 0.51563,-9.52343 -1.30881,-1.79214 -2.97651,-1.96547 -21.7207,-2.25196 -11.93965,-0.18251 -20.8114,-0.73399 -21.53907,-1.33789 -0.74747,-0.62041 -1.00617,-2.17727 -0.65429,-3.93554 0.65952,-3.29764 -0.64866,-5.33728 -4.79688,-7.48243 -2.19417,-1.13476 -3.30686,-1.19175 -5.32226,-0.27343 -1.40164,0.63862 -2.54883,1.73033 -2.54883,2.42773 0,2.40941 -2.7505,4.10269 -5.91211,3.63867 -1.69879,-0.24933 -3.09408,-0.73986 -3.10156,-1.08984 -0.008,-0.3501 -0.28573,-1.64923 -0.61719,-2.88672 -0.43639,-1.62841 -0.17221,-2.25 0.95508,-2.25 2.46939,0 2.89596,-1.73409 1.10156,-4.47266 -1.32148,-2.41099 -2.8142,-4.41291 -0.56055,-5.45507 1.1743,-0.62846 2.13477,-1.80174 2.13477,-2.60743 0,-0.80564 0.63776,-1.46484 1.41797,-1.46484 1.72286,0 13.56754,5.65211 19.08203,9.10547 4.02629,2.5214 14.6593,5.89453 18.58007,5.89453 2.7837,0 7.91989,-3.08077 7.91993,-4.75 0,-0.72469 1.125,-3.53656 2.5,-6.25 1.37503,-2.71344 2.5,-5.82238 2.5,-6.9082 0,-1.08582 0.386,-2.21251 0.85742,-2.50391 0.47142,-0.29136 1.39726,-3.35501 2.05664,-6.80859 0.65938,-3.45362 1.6394,-7.9642 2.17969,-10.02344 0.6542,-2.48636 0.64584,-4.37877 -0.0254,-5.63281 -1.22453,-2.28813 -6.28502,-3.17841 -10.8711,-1.91211 -3.19532,0.88225 -23.62514,0.2593 -25.29297,-0.77149 -0.43245,-0.26725 -3.39944,-0.96846 -6.59375,-1.55859 -3.19434,-0.5901 -8.95861,-2.58348 -12.80859,-4.42774 -9.95157,-4.76712 -9.82412,-4.64872 -8.39062,-7.79492 0.66637,-1.46264 1.60119,-2.6582 2.07617,-2.6582 0.47501,0 3.15273,-1.57501 5.95117,-3.5 2.79847,-1.92499 5.82383,-3.51235 6.72461,-3.53125 2.14877,-0.0415 6.73651,-4.12589 7.56445,-6.73437 0.35894,-1.13095 1.76065,-2.78238 3.11524,-3.66993 1.35458,-0.88758 3.69946,-3.5157 5.21093,-5.83984 1.51147,-2.32415 3.54174,-4.89958 4.51172,-5.72461 3.55068,-3.01996 11.16032,-30.887889 9.26953,-33.947266 -0.33785,-0.546633 0.0783,-2.335768 0.92578,-3.974609 1.72011,-3.326287 2.07421,-10.630898 0.56055,-11.566406 -0.53934,-0.333317 -3.35186,1.171088 -6.25,3.34375 -4.54412,3.406601 -10.85482,6.119774 -14.2793,6.138672 -0.55532,0.0031 -1.08595,-2.581659 -1.17968,-5.744141 -0.0936,-3.16252 -0.40909,-7.325011 -0.70117,-9.25 -0.29209,-1.924989 -0.89846,-6.709524 -1.34766,-10.630859 -0.76747,-6.700078 -1.91873,-9.684103 -3.90234,-9.722657 z m -0.55469,3.365235 c 0.68403,0.02286 1.19531,1.955147 1.19531,5.361328 0,5.065663 -0.25139,5.602258 -4.38672,9.414062 -5.89531,5.43413 -11.57168,8.930803 -20.94336,12.898438 C 232.36391,77.508564 228.45766,79 227.98828,79 c -0.82987,0 -2.51232,-3.976944 -1.83008,-4.326172 0.18773,-0.09604 4.82035,-2.394918 10.29492,-5.109375 7.44605,-3.691956 11.51304,-6.493503 16.14258,-11.123047 3.40385,-3.403842 6.49409,-7.147171 6.86524,-8.316406 0.46144,-1.453861 0.93333,-2.126999 1.34375,-2.113281 z M 264,60.607422 v 4.148437 c 0,3.756019 -0.40172,4.423894 -4.25,7.064453 -5.47181,3.754621 -17.52331,9.806832 -25.52344,12.81836 -7.40092,2.785927 -7.13715,2.756531 -7.8457,0.910156 -0.82753,-2.156561 0.22828,-3.268335 4.38281,-4.607422 9.76362,-3.146948 23.078,-10.823979 29.98633,-17.291015 z m -43.19336,6.564453 c 0.78579,0.04707 1.95345,1.226844 2.59961,3.054687 0.7135,2.018457 0.44814,3.143869 -1.25,5.302735 -2.73483,3.475653 -2.73942,4.791659 -0.0176,3.927734 1.93614,-0.614513 2.07157,-0.409565 1.43555,2.181641 -0.38623,1.573606 -0.77112,3.648493 -0.85352,4.611328 -0.16543,1.932586 -0.31988,1.997605 -9.99218,4.193359 -9.37493,2.128252 -14.12155,4.756248 -16.0918,8.908203 -2.27901,4.802688 -2.08316,7.527388 0.61328,8.558598 1.23749,0.47327 3.09492,1.79755 4.12695,2.94336 2.79719,3.10541 1.87527,11.81613 -1.7539,16.57421 -1.49855,1.96468 -3.03932,3.55588 -3.42383,3.53321 -0.96502,-0.054 -7.19827,-2.79436 -7.19336,-3.16211 0.002,-0.16407 1.1273,-2.51306 2.5,-5.21875 3.97954,-7.84403 3.08303,-14.64629 -2.19336,-16.65235 -2.35849,-0.89669 -2.52524,-1.34504 -2.05273,-5.53711 C 187.93315,94.416966 191.7332,90.481354 203.56639,83.5 212.63416,78.150268 220,71.388059 220,68.414062 c 0,-0.89044 0.33517,-1.270427 0.80664,-1.242187 z m 43.44727,4.982422 c 0.61592,0.01416 0.74609,0.778362 0.74609,2.298828 0,4.029203 -2.08577,7.382066 -5.28711,8.498047 v -0.002 C 258.05663,83.526946 255.41946,84 253.85156,84 c -4.10577,0 -3.86313,-3.428162 0.39844,-5.623047 1.78753,-0.920655 4.64187,-2.731923 6.34375,-4.025391 1.94192,-1.475804 3.04423,-2.211424 3.66016,-2.197265 z m 23.3789,2.3125 c 0.10216,-0.0072 0.17401,0.006 0.21289,0.04492 0.31113,0.31113 -0.09,2.457153 -0.89062,4.767578 -1.64285,4.740699 -5.17741,6.931091 -17.24805,10.689453 -3.73561,1.16315 -9.62616,2.379597 -13.0918,2.703125 -5.25516,0.490734 -6.40608,0.318405 -6.92773,-1.041016 C 248.66155,88.957273 250.03655,87 252.93945,87 c 2.42877,0 5.27864,-0.732892 20.56055,-5.287109 2.20003,-0.655635 6.20118,-2.670692 8.89062,-4.478516 2.35333,-1.581846 4.52711,-2.716862 5.24219,-2.767578 z m -123.14648,6.330078 c 0.84854,-0.02961 0.37919,1.103947 -1.41797,3.388672 -2.15412,2.738532 -6.72153,4.333813 -15.35547,5.363281 -6.83068,0.814488 -10.27794,3.094014 -9.30664,6.154297 0.66527,2.096088 3.24274,3.256746 7.28711,3.283203 2.44399,0.01523 5.4264,-3.509059 4.66016,-5.505859 -0.3335,-0.869103 1.07682,-1.626355 4.32617,-2.326172 4.67486,-1.006828 4.89011,-0.949171 7.14258,1.904297 1.27735,1.618204 2.85235,2.949472 3.5,2.957031 0.64763,0.0084 1.83554,0.431447 2.63867,0.939453 1.24652,0.788447 1.17847,1.233394 -0.46094,3.044922 -2.30706,2.54925 -1.19341,3.63489 4.75,4.62891 4.12175,0.68938 4.8517,1.88667 1.75,2.87109 -4.45025,1.41249 -1.23417,4.44853 4.75,4.48633 1.2375,0.007 2.25,0.32202 2.25,0.69922 0,0.37704 -1.0125,1.76287 -2.25,3.08007 -2.18491,2.32578 -2.19575,2.43492 -0.36523,3.77344 1.03675,0.75814 3.87719,1.67825 6.31054,2.04297 l 4.42383,0.66211 -2.20703,2.34961 c -2.5597,2.72466 -1.747,4.37825 3.51562,7.16406 l 3.07227,1.62696 -2.75,1 c -1.5125,0.55026 -2.75,1.58976 -2.75,2.30859 0,1.80015 1.42531,1.64084 5.94336,-0.66406 7.71642,-3.93665 13.01549,-13.73093 11.72656,-21.67383 C 205.05204,110.54812 201.5996,106 199.32617,106 c -1.57932,0 -1.74186,-3.35522 -0.29297,-6.0625 1.60396,-2.997014 7.44322,-5.432579 19.9668,-8.330078 6.325,-1.463358 15.32499,-4.216236 20,-6.117188 4.67497,-1.900913 8.61243,-3.465097 8.75,-3.472656 0.1372,-0.0093 0.25,1.167682 0.25,2.615234 0,1.721424 -1.23369,3.794015 -3.56445,5.992188 -3.69922,3.488806 -3.89352,5.568314 -0.43555,4.664062 3.70008,-0.967589 2.40971,1.770206 -2.40234,5.093748 -2.25049,1.55433 -1.34719,3.61719 1.58398,3.61719 1.78035,0 1.8811,0.21941 0.73242,1.60352 -0.73224,0.88229 -2.36295,1.99747 -3.62304,2.47656 -2.93802,1.117 -2.9633,3.67171 -0.041,4.14453 2.04537,0.33093 1.90898,0.57324 -1.5,2.66797 -3.936,2.41859 -4.83183,4.10742 -2.17773,4.10742 2.75523,0 1.08891,3.26858 -2.25,4.41211 -4.34389,1.48777 -5.16147,2.55484 -2.48829,3.25391 3.04509,0.7963 2.22776,2.56097 -1.65234,3.5664 -3.55593,0.92145 -4.05044,2.18285 -1.43164,3.64844 1.54847,0.86661 1.42648,1.10175 -1.06445,2.04883 -1.54829,0.5887 -3.6858,1.07031 -4.75,1.07031 -2.20676,0 -2.48429,1.05286 -0.73633,2.80078 0.93332,0.93354 0.35471,1.19922 -2.60742,1.19922 -3.56296,0 -3.76868,0.16111 -3.18164,2.5 0.54814,2.18404 0.30056,2.5 -1.95899,2.5 -2.18457,0 -2.48166,0.33025 -1.91015,2.13086 0.62861,1.9807 0.42167,2.08418 -2.93164,1.45508 -3.42233,-0.64203 -4.94169,0.47262 -2.60938,1.91406 0.55,0.33993 1,1.30245 1,2.13867 0,1.1692 -0.69317,1.36801 -3,0.86133 -3.85051,-0.84574 -4.04797,1.16713 -0.25,2.55078 1.51249,0.55102 4.77498,2.06777 7.25,3.36914 6.88683,3.62121 10.16713,4.02266 13.22266,1.61914 C 226.64819,160.91764 228.734,160 229.85742,160 c 1.12339,0 2.40393,-0.57242 2.84375,-1.27148 0.43986,-0.6991 1.94531,-1.77173 3.34571,-2.38477 2.00164,-0.87636 2.96388,-0.80142 4.5,0.35156 3.9145,2.93817 13.46872,7.30568 20.625,9.42774 6.0841,1.80412 10.36014,2.22346 25.1875,2.46875 9.82299,0.16259 18.07313,0.50672 18.33203,0.76562 0.25901,0.25901 -0.007,1.36169 -0.58985,2.45117 -1.21871,2.27717 -8.9077,4.45011 -14.77734,4.17579 C 283.88166,175.73001 283,175.87215 283,177 c 0,1.26917 13.39088,1.32228 17.75586,0.0703 2.85891,-0.81989 3.24414,-0.70139 3.24414,1 0,1.0616 -0.94869,2.87838 -2.10742,4.03711 -1.84275,1.84267 -2.93943,2.04378 -8.75,1.60547 -3.65375,-0.27564 -7.71623,-0.84322 -9.02735,-1.25977 -1.76307,-0.55998 -2.26877,-0.4121 -1.94335,0.56446 0.77193,2.31594 7.92029,4.171 14.07812,3.6543 6.42032,-0.53878 7.41847,0.65773 3.67383,4.40234 -1.71519,1.71503 -2.79944,1.95994 -6.25,1.40234 -2.29614,-0.37107 -6.16634,-1.54007 -8.60156,-2.59765 -2.95174,-1.28194 -4.76107,-1.5905 -5.42774,-0.92383 -1.47175,1.47171 7.77128,5.30131 14.10547,5.84375 5.59434,0.47905 6.23789,1.34571 3.69336,4.97851 -2.58308,3.68784 -7.55167,2.7472 -16.26367,-3.08007 -2.37615,-1.58937 -4.5855,-2.62349 -4.91016,-2.29883 -1.69024,1.69024 8.35934,8.38243 14.98047,9.97656 3.40282,0.81929 3.5252,2.31566 0.30859,3.78125 -3.3651,1.53324 -8.9415,-0.41504 -28.04882,-9.79492 C 248.47843,190.9824 243.83349,188 247.37695,188 c 2.2918,0 2.01637,-2.41873 -0.7832,-6.85352 C 244.247,177.42902 238.60517,172 237.08984,172 c -2.0906,0 -1.2574,1.46032 3.83204,6.71484 l 5.5625,5.74219 -2.74219,0.96485 c -3.33045,1.17116 -3.43954,2.18875 -0.49219,4.59374 2.04635,1.6698 2.0916,1.89797 0.5,2.51758 -2.42426,0.94375 -2.19167,3.19189 0.41602,4.01953 l 2.16601,0.6875 -2.2207,1.67579 -2.22071,1.67578 2.05469,1.85937 c 2.952,2.67141 2.54485,3.50188 -1.40234,2.86133 -2.4878,-0.40369 -4.46638,0.0362 -7.05664,1.56445 -4.39514,2.59306 -4.48633,2.5954 -4.48633,0.1875 0,-1.0642 -0.47118,-3.17342 -1.04688,-4.6875 l -1.04687,-2.75195 -2.07813,3.4375 c -2.73075,4.51533 -3.92277,5.1614 -6.01757,3.26562 -2.67965,-2.42495 -4.0781,-7.90401 -3.35157,-13.13476 0.35853,-2.58142 0.88772,-8.18085 1.17383,-12.44336 0.44379,-6.60877 0.28744,-7.75 -1.05664,-7.75 C 216.28123,173 216,174.33895 216,180.5 v 7.5 h -2.76953 C 208.57779,188 195.91635,184.09269 188,180.21289 176.97996,174.81195 166.56367,164.23003 161.21289,153 c -2.22751,-4.67497 -5.03135,-12.09999 -6.23242,-16.5 -2.48774,-9.11357 -5.75798,-14.09064 -10.58008,-16.10547 -4.28189,-1.78923 -7.18574,-1.75534 -10.79883,0.12891 -3.46965,1.80941 -3.90449,1.53405 -3.03711,-1.92188 0.8586,-3.42089 4.95975,-6.60156 8.51172,-6.60156 4.01993,0 4.27515,-1.28835 0.89844,-4.52344 -2.41908,-2.3176 -3.87486,-2.8442 -8.04492,-2.90429 -4.52118,-0.065 -5.41438,0.28929 -7.98242,3.16211 -2.71872,3.04131 -2.9542,3.12086 -3.91993,1.3164 -1.49009,-2.7843 -1.26003,-7.27348 0.50196,-9.789061 2.25695,-3.222236 8.24958,-4.637598 11.26758,-2.660157 2.94539,1.929941 4.10017,1.047908 1.86328,-1.423828 -2.16731,-2.394897 -2.12105,-5.784386 0.0898,-6.644531 0.9625,-0.374438 6.82903,-1.51399 13.03711,-2.53125 6.62736,-1.085934 12.71697,-2.691078 14.75,-3.890625 1.45571,-0.858883 2.44009,-1.296687 2.94922,-1.314453 z m 120.97461,6.546875 c 0.12798,-0.01324 0.20955,-0.0072 0.23828,0.02148 0.22987,0.229871 -0.24213,1.998954 -1.04883,3.929688 -1.2528,2.998299 -2.2461,3.734762 -6.80859,5.048828 -2.93802,0.846198 -8.26682,2.004153 -11.8418,2.574219 -7.7099,1.229525 -19.01373,1.902395 -18.96875,1.128915 C 247.14354,98.117529 250.15942,96 252.79492,96 c 5.19462,0 17.02605,-2.86063 24.94922,-6.033203 3.62731,-1.452439 6.82095,-2.530361 7.7168,-2.623047 z m -139.71289,5.166016 c 1.98035,-0.06871 2.77324,1.156591 1.28711,2.947265 -1.57901,1.90269 -2.14247,1.917074 -4.59375,0.117188 -1.86855,-1.372007 -1.83323,-1.466823 0.9707,-2.53711 0.88383,-0.33737 1.67582,-0.504439 2.33594,-0.527343 z m 136.97461,5.537109 c 0.17542,-0.0049 0.32878,3.66e-4 0.46093,0.01563 0.63434,0.0731 0.80201,0.374138 0.79493,0.880859 -0.0574,4.016366 -3.2852,5.855236 -12.97852,7.396486 -5.22497,0.83082 -13.2088,1.80091 -17.74219,2.1543 l -8.24219,0.64258 1.68165,-2.93165 c 1.60119,-2.78992 2.09658,-2.9615 10.24218,-3.54102 4.70797,-0.33497 12.72304,-1.65996 17.81055,-2.943352 4.39239,-1.10806 6.74472,-1.63981 7.97266,-1.673828 z m -3.82227,9.921875 c 2.75631,-0.082 2.63056,0.9223 0.75,3.49414 -1.09837,1.5021 -3.83714,2.08397 -14.75,3.13672 -7.37065,0.71108 -15.36691,1.31547 -17.77148,1.3457 -4.31237,0.053 -4.35279,0.024 -2.88282,-2.19531 1.31309,-1.98244 2.66653,-2.33639 11.37305,-2.97656 5.43492,-0.39957 13.36835,-1.32817 17.63086,-2.06446 2.54868,-0.44023 4.39752,-0.70298 5.65039,-0.74023 z m -3.20508,8.3125 c 2.05416,0.11385 1.44363,1.42358 -1.77148,4.12891 -3.01058,2.5333 -3.39962,2.58984 -18.07031,2.58984 -14.976,0 -14.9932,-0.002 -14.67383,-2.25 0.30837,-2.17138 0.79209,-2.27094 13.82031,-2.85352 7.425,-0.33203 15.41251,-0.93408 17.75,-1.33789 1.27903,-0.22097 2.26059,-0.31529 2.94531,-0.27734 z m -21.66015,8.70703 c 8.03419,-0.0435 15.96484,0.24927 15.96484,0.92188 0,0.50109 -1.38396,2.0761 -3.07617,3.5 v 0.002 c -2.75293,2.31655 -3.88423,2.57817 -10.75,2.49805 -11.29958,-0.13168 -20.48176,-2.98539 -18.72852,-5.82227 0.41709,-0.67489 8.55565,-1.05615 16.58985,-1.09961 z m -18.82422,6.32617 c 1.14802,-0.0563 2.94236,0.30652 5.85937,1.125 3.39738,0.95324 9.49583,1.98412 13.55274,2.29102 4.0569,0.30682 7.37695,0.96539 7.37695,1.46289 0,0.4975 -1.91248,1.77296 -4.25,2.83398 -5.3904,2.44683 -5.74271,2.43131 -14.75,-0.61718 -8.42438,-2.85124 -11.07987,-4.72872 -9.25977,-6.54883 0.32694,-0.32692 0.78189,-0.51312 1.47071,-0.54688 z m -3.93555,5.76758 c 0.69469,-0.0526 1.55942,0.22349 2.97852,0.79883 1.78552,0.72393 6.14868,2.33301 9.69531,3.57617 5.8741,2.05901 6.2572,2.36263 4.31445,3.40235 -3.66032,1.95885 -5.74162,1.61101 -15.20117,-2.53321 -5.10474,-2.23638 -5.33319,-2.48516 -3.74609,-4.07226 0.73889,-0.73892 1.26429,-1.11923 1.95898,-1.17188 z m -5.81641,5.72461 c 1.24214,-0.069 3.26704,0.49956 6.03711,1.70313 2.75218,1.19576 6.32987,2.72578 7.95118,3.40039 2.33117,0.97001 2.64497,1.41823 1.5,2.14257 -0.79635,0.50382 -2.12227,0.92409 -2.94727,0.93165 -2.22716,0.0215 -14,-5.7468 -14,-6.85938 0,-0.82565 0.49288,-1.26468 1.45898,-1.31836 z m -5.34765,3.88477 c 1.04806,-0.10946 3.99806,1.06328 7.83008,3.14257 7.00682,3.8021 8.3278,5.66173 2.94726,4.14844 -4.46782,-1.25658 -12.0934,-6.17613 -11.10547,-7.16406 0.0691,-0.0691 0.17841,-0.11132 0.32813,-0.12695 z m -3.41406,3.69531 c 1.10471,0.0358 3.55024,1.08283 5.87109,2.55469 2.6524,1.68207 5.40964,3.05859 6.12695,3.05859 0.71732,0 1.30469,0.45 1.30469,1 0,1.72418 -4.31104,1.005 -9.18164,-1.53125 -5.28601,-2.75259 -6.60719,-4.2276 -4.50781,-5.0332 0.0988,-0.0379 0.2289,-0.054 0.38672,-0.0488 z m -4.44336,3.52344 c 0.82945,0.0134 2.31314,0.74703 5.15625,2.39453 3.03314,1.75759 5.53383,3.53281 5.55273,3.94531 0.0644,1.28988 -4.32702,0.80842 -7.46289,-0.81836 -4.0656,-2.10913 -4.86817,-3.03164 -4.18555,-4.81055 0.17958,-0.46797 0.44179,-0.71895 0.93946,-0.71093 z m -26.60547,28.90429 10.51367,3.59375 c 5.78256,1.97583 11.46042,3.5918 12.61719,3.5918 3.32549,0 3.37013,1.37191 0.21093,6.35352 -3.21807,5.07435 -3.26696,5.10342 -6.0039,3.63867 -1.49496,-0.80009 -2.4187,-0.46997 -4.49219,1.60351 -2.52453,2.52454 -2.67393,2.55226 -4.58984,0.81836 -1.70566,-1.54359 -2.63608,-1.64861 -6.69336,-0.75195 -2.59144,0.57271 -5.49844,1.38143 -6.46094,1.79687 -1.53763,0.66369 -1.75,0.13068 -1.75,-4.38476 0,-5.37237 1.56894,-9.95821 4.75977,-13.91602 z m 28.23828,12.88867 0.69922,2.89844 c 1.81697,7.54288 6.55576,13.18856 9.5039,11.32227 2.31345,-1.46449 3.91016,-1.04884 3.91016,1.01758 0,2.81624 1.83688,3.51556 4.02734,1.5332 1.8158,-1.64326 1.95507,-1.60557 3.06836,0.83789 1.7014,3.73417 0.60719,5.32924 -4.08789,5.95898 -2.29028,0.3072 -4.69129,1.24916 -5.33593,2.0918 -0.86975,1.13677 -3.55885,1.60948 -10.42383,1.83399 -8.21552,0.26876 -9.25201,0.10964 -9.25,-1.42383 0.004,-3.16078 -4.38755,-5.04523 -9.97071,-4.27735 -2.76469,0.38034 -5.02734,0.38088 -5.02734,0.002 0,-0.37924 0.8222,-1.88384 1.82617,-3.34375 1.00398,-1.45988 2.41526,-4.13486 3.13672,-5.94336 1.48957,-3.73399 3.66723,-5.21094 7.67969,-5.21094 1.84184,0 4.02881,-1.22584 6.50976,-3.64844 z M 189.68359,204 c 3.76902,0 3.96737,2.80438 0.64649,9.13672 -2.10862,4.02074 -2.70879,6.08619 -1.97852,6.8164 1.39405,1.39408 5.93591,1.32842 9.13867,-0.13085 3.24075,-1.47659 5.28649,0.25166 6.46094,5.45898 1.07705,4.77543 -0.44004,6.26629 -3.73828,3.67187 C 198.84761,227.87928 196.46971,227 194.92969,227 c -1.54002,0 -4.06614,-0.4821 -5.61328,-1.07031 -2.41648,-0.91873 -3.00515,-0.77778 -4.18555,1 -0.75575,1.13824 -2.4117,2.07031 -3.67969,2.07031 -1.29955,0 -3.21062,1.14952 -4.3789,2.63477 -1.61035,2.04721 -2.07227,2.25011 -2.07227,0.91015 0,-0.94851 -0.96748,-2.50891 -2.15039,-3.4668 -1.63575,-1.32446 -1.99218,-2.37313 -1.48828,-4.38085 1.04865,-4.17816 4.08331,-5.22252 8.16797,-2.8125 4.13389,2.43904 5.34379,1.2842 1.97265,-1.88282 l -2.4375,-2.28906 2.21875,-2.63672 c 1.21975,-1.45005 3.07311,-4.53664 4.11914,-6.85742 C 186.86468,204.97437 187.85402,204 189.68359,204 Z m 51.20703,4.10742 c 2.16047,0.10157 3.07722,1.84097 3.09376,5.69141 0.0127,2.74443 0.54386,3.5199 3.1582,4.61914 2.08524,0.87681 2.67383,1.51185 1.75,1.88867 -1.02524,0.41821 -0.66807,1.13402 1.35742,2.71484 3.30376,2.57844 3.38503,3.3101 0.64453,5.86329 -1.1585,1.07928 -1.86341,2.35506 -1.56641,2.83593 0.29723,0.48087 0.12642,1.52936 -0.3789,2.32813 -0.50529,0.79857 -0.92604,0.9576 -0.9336,0.35351 -0.008,-0.60404 -1.79457,-1.79828 -3.96874,-2.65234 -3.79303,-1.48993 -3.92911,-1.69908 -3.36524,-5.17383 0.40845,-2.51705 0.11816,-4.14904 -0.94922,-5.34961 -0.85833,-0.96544 -1.68779,-4.15256 -1.88281,-7.22656 -0.32682,-5.15323 -0.19931,-5.52154 2.03711,-5.83789 0.36035,-0.051 0.69534,-0.0692 1.0039,-0.0547 z M 101.5,212.05469 l 16,0.22265 16,0.22266 0.29492,6.75 0.29688,6.75 h 11.45312 c 9.51494,0 11.45508,0.25397 11.45508,1.5 0,0.825 0.9,2.40001 2,3.5 1.1,1.10003 2.00103,2.11243 2.00195,2.25 9.3e-4,0.1372 -6.05299,0.11411 -13.45312,-0.0527 l -13.45508,-0.30469 -0.29687,6.80469 -0.29688,6.8027 -16,0.22461 c -15.22503,0.214 -15.85741,0.14779 -13.04102,-1.39063 1.62786,-0.88924 5.00286,-1.75116 7.5,-1.91406 2.49714,-0.16297 7.12852,-0.59382 10.29102,-0.95703 l 5.75,-0.66016 v -3.84179 c 0,-2.11351 -0.35206,-4.0589 -0.78125,-4.32422 -0.42919,-0.26525 -5.36747,-0.73695 -10.97461,-1.04688 -5.60714,-0.31007 -11.66758,-1.16855 -13.46875,-1.9082 l -3.27539,-1.3457 3.78906,-1.25782 c 2.08345,-0.69199 6.58345,-1.36815 10,-1.50195 3.41654,-0.1336 8.12344,-0.31831 10.46094,-0.41015 L 128,226 v -4.38672 -4.38672 l -4.25,-0.60742 c -2.3375,-0.3346 -6.77248,-0.67863 -9.85547,-0.76367 -3.24264,-0.0895 -7.03631,-0.92369 -9,-1.97852 z m 159.69141,0.1914 c 0.57668,-0.0321 1.2069,0.0637 1.89843,0.28321 1.82423,0.57898 2.27251,1.50777 3.35743,6.9707 l 0.5957,3 -6.47852,0.1543 c -4.21769,0.10065 -6.84995,-0.29198 -7.54297,-1.12696 -0.79789,-0.96143 -0.54432,-1.41874 1.01368,-1.82617 1.14304,-0.29892 2.59693,-1.91714 3.23046,-3.5957 0.9497,-2.516 2.19574,-3.76308 3.92579,-3.85938 z m -93.98047,4.18555 c 0.95651,0.01 1.96396,0.22745 3.0039,0.6582 2.74826,1.1384 2.77921,1.22582 0.88477,2.55274 -1.07942,0.75605 -2.10615,2.38258 -2.28125,3.61523 -0.26075,1.83553 -0.85399,2.18493 -3.2793,1.92188 -1.93346,-0.20958 -3.39939,0.2765 -4.22265,1.40234 -2.07479,2.83744 -2.64177,-0.56058 -0.82032,-4.91992 1.43555,-3.43517 3.84532,-5.2602 6.71485,-5.23047 z m 67.08398,4.8125 c 2.29825,-0.0147 3.70508,1.22268 3.70508,3.58398 0,3.85233 -2.24425,6.55707 -5.64258,6.80274 -1.57202,0.11339 -3.33806,0.24251 -3.92578,0.28711 -0.58772,0.0447 -1.75608,1.53374 -2.5957,3.30664 -1.43739,3.03507 -1.58823,3.10509 -2.59571,1.22266 -0.76278,-1.42436 -0.7576,-2.55744 0.0156,-3.93946 0.59709,-1.06696 1.35559,-3.3038 1.68555,-4.97265 0.44137,-2.23189 1.59567,-3.5244 4.36523,-4.88477 1.91041,-0.93837 3.60934,-1.3974 4.98828,-1.40625 z M 311,225.94727 V 229.47266 233 h -29.5 c -16.25594,0 -29.5,-0.39336 -29.5,-0.87695 0,-0.48265 0.67497,-1.43835 1.5,-2.12305 0.825,-0.6847 1.5,-1.82406 1.5,-2.53125 0,-1.01431 5.91203,-1.31094 28,-1.4043 z M 214.5,226 c 6.48469,0 7.49741,0.2369 7.47852,1.75 -0.0122,0.96249 -0.79972,2.64997 -1.75,3.75 -1.5111,1.74905 -2.60629,1.93729 -8.72852,1.5 -4.09455,-0.29246 -6.48119,-0.8354 -5.75,-1.30859 0.6875,-0.44497 1.25,-1.90748 1.25,-3.25 C 207,226.07036 207.21504,226 214.5,226 Z m -49.25,2.0332 c 2.08599,0.0308 7.52369,3.59448 6.64258,4.35352 -0.21541,0.18557 -2.30508,0.58265 -4.64258,0.88086 -4.14912,0.52955 -4.25,0.47261 -4.25,-2.36328 0,-2.35563 0.42541,-2.89755 2.25,-2.8711 z m 24.72266,0.97266 c 3.68155,0.008 10.02734,1.93252 10.02734,3.04102 0,0.54932 -4.33922,0.90478 -10.25,0.83789 -5.6375,-0.0638 -9.35,-0.34368 -8.25,-0.6211 1.1,-0.2773 2.88778,-1.12591 3.97266,-1.88476 1.08487,-0.7589 3.10987,-1.37604 4.5,-1.37305 z"
       style="fill:#251e16;stroke-width:1.00000012"
       transform="matrix(0.26458333,0,0,0.26458333,47.624996,99.677536)"
       id="path3744" />
    <path
       transform="matrix(0.26458333,0,0,0.26458333,47.624996,99.677536)"
       id="path8790"
       d="m 230.95922,208.71534 c -0.24427,-0.24427 -0.44413,-1.30688 -0.44413,-2.36135 0,-1.05447 -0.35587,-2.93809 -0.79084,-4.18581 l -0.79083,-2.26859 -1.94431,3.05485 c -3.18769,5.00842 -3.936,5.34563 -6.39833,2.8833 -3.21816,-3.21816 -3.92938,-6.98174 -3.00033,-15.87701 1.07887,-10.32985 1.03571,-16.65441 -0.11108,-16.27534 -0.60062,0.19853 -1.00975,2.61435 -1.25,7.38095 l -0.35714,7.08582 -3.21428,-0.19834 c -7.3796,-0.45535 -22.20843,-5.64053 -29.37163,-10.27033 -5.71286,-3.6924 -13.42856,-11.0893 -17.50733,-16.78395 -3.89792,-5.44217 -6.63283,-11.40921 -10.37239,-22.63061 -4.52002,-13.56333 -6.77704,-16.59822 -13.72614,-18.45682 -2.8823,-0.7709 -3.77888,-0.72037 -6.71037,0.37819 -4.7025,1.76223 -4.83453,1.75504 -4.63187,-0.25243 0.40577,-4.01933 4.35194,-7.84387 8.11832,-7.86808 4.45488,-0.0286 4.42036,-2.46121 -0.0784,-5.52477 -1.7991,-1.22516 -3.37703,-1.60715 -6.63881,-1.60715 -4.01468,0 -4.47437,0.18029 -7.44758,2.9209 -2.9934,2.75922 -3.2239,2.84818 -4.1643,1.60714 -1.16053,-1.53153 -1.34756,-6.48571 -0.34446,-9.12407 1.09815,-2.888347 4.79115,-4.803627 8.58923,-4.454576 1.76786,0.16247 4.004,0.552342 4.9692,0.866384 l 1.75491,0.570983 -1.57634,-2.003993 c -1.80182,-2.29064 -2.0338,-4.823263 -0.57539,-6.281673 0.55052,-0.550522 4.32731,-1.567705 8.39286,-2.260408 9.71277,-1.654896 17.90547,-3.658372 20.54805,-5.024906 2.61633,-1.352954 2.91528,-1.363625 2.91528,-0.104059 0,1.764083 -4.89455,5.362007 -8.75318,6.434356 -2.06075,0.572702 -6.06899,1.412497 -8.90721,1.866213 -5.20934,0.832762 -8.76818,2.733266 -8.76818,4.682412 0,3.585035 7.69146,5.393707 10.36658,2.437733 0.71625,-0.791447 1.3528,-2.157518 1.41457,-3.035714 0.12866,-1.829385 3.39685,-3.276327 7.54881,-3.342118 2.02886,-0.03215 2.86822,0.397889 4.14358,2.122905 0.87964,1.189771 2.86866,2.671101 4.42004,3.291843 3.17893,1.271956 3.26241,1.453594 1.69589,3.690117 -1.6793,2.397531 -0.97914,3.244551 3.65875,4.426251 4.63844,1.18183 5.19724,2.0276 2.26741,3.43183 -3.46378,1.66015 -1.98342,3.18929 3.94866,4.07877 1.86607,0.27981 3.39285,0.65441 3.39285,0.83244 0,0.17804 -0.80357,1.37724 -1.78571,2.66489 -0.98214,1.28766 -1.78571,2.68606 -1.78571,3.10755 0,0.88171 4.80638,2.73013 8.78131,3.37709 l 2.70989,0.44105 -1.81703,2.15942 c -0.99937,1.18768 -1.81211,2.37583 -1.80609,2.64033 0.0269,1.18311 1.49805,2.5792 4.66988,4.43166 l 3.42231,1.99873 -2.623,1.09596 c -1.44264,0.60277 -2.62299,1.5945 -2.62299,2.20383 0,1.51337 0.90969,1.3977 4.84517,-0.61613 6.8532,-3.50683 11.51957,-10.43145 12.12673,-17.99532 0.29666,-3.69578 0.087,-4.8785 -1.30378,-7.35298 -0.91153,-1.62183 -2.75834,-3.59841 -4.10403,-4.39239 -2.18885,-1.29145 -2.39905,-1.68194 -1.99441,-3.70511 0.98045,-4.902249 4.82224,-6.960553 20.98028,-11.24055 10.40609,-2.756401 16.96406,-4.859814 24.29791,-7.793355 4.6816,-1.872639 5.15213,-1.875839 5.15213,-0.03505 0,1.977894 -1.15046,4.054296 -4.03166,7.276529 -2.95352,3.303115 -3.00315,4.105085 -0.25405,4.105085 2.90026,0 2.69588,1.088091 -0.80557,4.288734 -2.95053,2.697047 -3.18119,4.282697 -0.623,4.282697 3.1514,0 1.96,2.52118 -2.21053,4.67785 -2.39392,1.23794 -2.72794,3.14234 -0.64662,3.68662 2.1062,0.55078 1.7625,1.39428 -1.42857,3.50603 -1.57143,1.03992 -2.85714,2.09216 -2.85714,2.33831 0,0.24616 0.67311,0.86792 1.4958,1.3817 1.45761,0.91029 1.46218,0.97134 0.17857,2.39114 -0.72447,0.80135 -2.52259,1.93963 -3.9958,2.52952 -2.65774,1.06418 -3.58364,2.34597 -1.6946,2.34597 0.54118,0 1.34871,0.4395 1.79452,0.97666 0.99622,1.20037 -0.058,2.24331 -3.01875,2.9864 -2.53843,0.63711 -3.20231,2.23709 -1.4576,3.51286 1.71981,1.25755 1.36628,1.55277 -3.34039,2.78941 -2.13968,0.56218 -3.80997,1.37532 -3.71175,1.80698 0.0982,0.43166 0.25893,1.18662 0.35714,1.67769 0.11532,0.57656 -0.89584,0.97062 -2.85431,1.11236 -2.93142,0.21216 -3.027,0.2958 -2.85714,2.5 0.15478,2.00859 -0.0585,2.30745 -1.78855,2.50652 -1.54283,0.17752 -1.96428,0.59897 -1.96428,1.96428 0,1.5853 -0.28433,1.73827 -3.23075,1.73827 h -3.23076 l 1.14946,1.7543 c 1.55187,2.36846 0.69927,3.49546 -2.27876,3.01219 -4.2875,-0.69577 -2.58154,0.90761 4.81326,4.52384 9.52257,4.65676 11.17663,4.93644 15.21115,2.57207 1.74786,-1.02432 3.79391,-1.8624 4.54677,-1.8624 0.75288,0 2.30278,-0.81188 3.44424,-1.80417 3.09143,-2.68744 5.15376,-2.97582 8.11424,-1.13461 4.25506,2.64637 12.33317,6.33348 18.16537,8.29128 6.46477,2.17016 15.73313,3.15695 30.08149,3.20274 15.03619,0.048 17.53049,0.7929 13.91955,4.15701 -2.15146,2.00439 -6.02946,3.01248 -13.45687,3.49814 -4.91952,0.32167 -6.34959,0.6218 -5.42586,1.13875 1.25916,0.70466 13.78079,0.25405 17.64175,-0.63487 1.71748,-0.39541 1.96384,-0.23984 1.96074,1.23818 -0.002,0.92972 -0.77765,2.6547 -1.72376,3.83327 -1.68052,2.09342 -1.85758,2.14015 -7.67502,2.02591 -3.27515,-0.0643 -7.33753,-0.43567 -9.02752,-0.82523 -2.27465,-0.52435 -3.00301,-0.49398 -2.8044,0.11693 0.57782,1.77725 4.66049,2.94275 11.58415,3.30699 8.05056,0.42353 9.00136,1.18647 5.65231,4.53552 -2.35318,2.35318 -4.91467,2.4549 -11.11715,0.44146 -2.49036,-0.80843 -5.40751,-1.74903 -6.48258,-2.09024 -3.1973,-1.01478 -3.00253,0.51354 0.27877,2.18754 2.20718,1.12602 13.51301,4.08225 16.14018,4.2203 0.78698,0.0414 -0.16005,2.44507 -1.67064,4.2403 -3.04929,3.62386 -5.89622,3.0084 -17.61508,-3.8081 -3.83603,-2.2313 -4.51008,-1.48988 -1.18733,1.30602 3.1576,2.65695 7.67257,5.15002 11.19582,6.18208 4.01288,1.17548 5.2422,2.60465 3.39945,3.9521 -1.9485,1.42477 -6.10959,1.22717 -10.88115,-0.51675 -4.57674,-1.67271 -29.93847,-13.9639 -33.59822,-16.28288 -2.4547,-1.55541 -3.03898,-2.92052 -1.25,-2.92052 1.70954,0 1.26876,-2.98263 -0.95575,-6.4673 -2.12429,-3.3277 -8.13221,-9.24699 -9.38543,-9.24699 -1.58172,0 -0.52052,1.64504 4.40862,6.83416 4.06685,4.28133 4.92364,5.54605 4.10714,6.06264 -0.56744,0.35901 -1.39415,0.65768 -1.83712,0.66369 -0.44296,0.006 -1.19563,0.48114 -1.67258,1.05583 -0.7062,0.85092 -0.49166,1.39291 1.15576,2.91969 1.87398,1.73674 1.93139,1.94173 0.77972,2.78385 -1.83882,1.34458 -1.51054,3.18431 0.72107,4.04095 l 1.96429,0.75402 -2.12247,1.70268 -2.12245,1.70269 1.95388,2.03942 c 1.07464,1.12169 1.73511,2.25822 1.4677,2.52562 -0.2674,0.2674 -2.05044,0.48619 -3.96231,0.48619 -2.27502,0 -4.6719,0.60594 -6.93682,1.75366 -1.90338,0.96452 -3.66055,1.5538 -3.90483,1.30952 z"
       style="fill:#facb1d;fill-opacity:1;stroke:none;stroke-width:0.71428573" />
    <path
       transform="matrix(0.26458333,0,0,0.26458333,47.624996,99.677536)"
       id="path8796"
       d="m 192.44303,129.79406 c -1.75342,-0.79489 -3.28305,-1.54027 -3.39917,-1.65639 -0.11613,-0.11613 0.77535,-2.38681 1.98107,-5.04596 3.86414,-8.52218 3.47811,-13.4712 -1.28394,-16.46068 -2.91601,-1.83058 -3.35217,-3.21639 -2.34008,-7.435216 1.21277,-5.055411 4.26372,-8.178443 14.48807,-14.830356 10.2906,-6.695019 15.96841,-11.601192 17.42543,-15.057247 1.15197,-2.732447 1.90584,-2.894275 3.41901,-0.733924 1.58584,2.264104 1.37953,4.524643 -0.68974,7.557534 l -1.80168,2.640676 1.86139,0.231777 c 1.80966,0.225337 1.84787,0.334508 1.37524,3.928572 -0.26737,2.033236 -0.87805,4.10841 -1.35706,4.611496 -0.47901,0.503086 -4.50977,1.869393 -8.95725,3.036238 -4.44748,1.166845 -9.39588,2.844514 -10.99643,3.728155 -3.38713,1.869975 -5.94331,5.334582 -6.6278,8.983205 -0.42643,2.2731 -0.24798,2.74399 1.52622,4.02732 5.02298,3.63324 5.52605,4.31236 5.87356,7.92903 0.1868,1.94402 -0.024,4.88481 -0.46831,6.53508 -0.78517,2.91589 -4.68613,8.79826 -6.12621,9.23789 -0.39285,0.11993 -2.1489,-0.43231 -3.90232,-1.2272 z"
       style="fill:#facb1d;fill-opacity:1;stroke:none;stroke-width:0.71428573" />
    <path
       transform="matrix(0.26458333,0,0,0.26458333,47.624996,99.677536)"
       id="path8798"
       d="m 226.72763,77.748026 c -0.40668,-0.759887 -0.7357,-1.80453 -0.73116,-2.321429 0.005,-0.516898 4.42418,-3.183718 9.82143,-5.926265 8.51041,-4.324468 10.6348,-5.776283 16.00223,-10.935945 3.40398,-3.272222 6.72954,-7.088475 7.39013,-8.480562 1.70016,-3.582839 2.84938,-2.052958 2.84938,3.793217 v 4.675974 l -4.75172,4.501806 c -2.61345,2.475994 -6.95273,5.786524 -9.64286,7.356734 -4.50745,2.630971 -18.18686,8.718083 -19.59192,8.718083 -0.33335,0 -0.93883,-0.621725 -1.34551,-1.381613 z"
       style="fill:#facb1d;fill-opacity:1;stroke:none;stroke-width:0.71428573" />
    <path
       transform="matrix(0.26458333,0,0,0.26458333,47.624996,99.677536)"
       id="path8806"
       d="m 251.01765,92.889147 c -1.24521,-0.275802 -2.04136,-2.27215 -1.52757,-3.830421 0.37676,-1.142679 1.68584,-2.069055 2.92751,-2.071659 2.37205,-0.005 6.70394,-1.062102 17.04305,-4.159083 5.99011,-1.794282 8.61516,-2.954798 13.21501,-5.842272 2.95555,-1.855292 4.74911,-2.728488 5.12597,-2.495576 0.36386,0.224878 0.31173,0.802183 -0.27493,3.044231 -0.7036,2.68901 -1.82649,4.714371 -3.37301,6.083924 -3.44826,3.053679 -15.07517,7.179229 -24.3867,8.653079 -3.23035,0.511307 -7.77973,0.832532 -8.74933,0.617777 z"
       style="fill:#facb1d;fill-opacity:1;stroke:none;stroke-width:0.25253814" />
    <path
       transform="matrix(0.26458333,0,0,0.26458333,47.624996,99.677536)"
       id="path8808"
       d="m 226.88365,86.556599 c -0.66975,-0.753162 -0.93848,-2.160455 -0.5768,-3.020642 0.42606,-1.013289 1.40937,-1.548582 5.70479,-3.105557 10.52278,-3.814231 22.51241,-10.972725 29.57477,-17.657837 1.1897,-1.126155 2.23299,-2.047554 2.31841,-2.047554 0.27001,0 0.16498,5.888989 -0.12386,6.944799 -0.64266,2.349183 -5.45902,5.645087 -15.88327,10.869143 -5.91831,2.965929 -10.47518,4.978533 -15.27856,6.747987 -4.76238,1.754353 -5.21531,1.854616 -5.73548,1.269661 z"
       style="fill:#facb1d;fill-opacity:1;stroke:none;stroke-width:0.25253814" />
    <path
       transform="matrix(0.26458333,0,0,0.26458333,47.624996,99.677536)"
       id="path8810"
       d="m 251.59355,83.435112 c -1.65873,-1.304757 -0.39182,-3.381806 3.37895,-5.53965 1.22424,-0.700582 3.45727,-2.137305 4.96228,-3.192718 1.50501,-1.055412 3.11651,-2.101404 3.5811,-2.324426 0.80089,-0.384455 0.86434,-0.379544 1.223,0.09465 0.64464,0.85231 0.30536,4.288703 -0.6156,6.23517 -1.32633,2.803217 -3.13421,4.138722 -6.58252,4.862579 -2.72718,0.572481 -5.11628,0.518006 -5.94721,-0.135603 z"
       style="fill:#facb1d;fill-opacity:1;stroke:none;stroke-width:0.25253814" />
    <path
       transform="matrix(0.26458333,0,0,0.26458333,47.624996,99.677536)"
       id="path8812"
       d="m 247.01839,100.12837 c -0.21137,-0.341988 0.44454,-1.518686 1.29869,-2.32985 1.25836,-1.195027 2.93961,-1.755298 5.99508,-1.997841 6.70319,-0.532096 14.48328,-2.592329 26.41549,-6.995045 1.87509,-0.691868 3.79515,-1.339497 4.26679,-1.439174 l 0.85752,-0.181233 -0.16929,1.05868 c -0.22094,1.381682 -1.25686,3.912814 -2.0984,5.12716 -0.9139,1.318755 -3.36056,2.436733 -7.78112,3.555504 -6.21152,1.572035 -12.38806,2.583336 -19.44544,3.183849 -3.8587,0.32834 -9.14122,0.3385 -9.33932,0.0179 z"
       style="fill:#facb1d;fill-opacity:1;stroke:none;stroke-width:0.25253814" />
    <path
       transform="matrix(0.26458333,0,0,0.26458333,47.624996,99.677536)"
       id="path8814"
       d="m 245.22948,108.77039 c 0.39996,-1.07947 2.57972,-4.40569 3.11852,-4.75872 0.86933,-0.56961 3.47802,-1.03506 7.63091,-1.36154 6.4068,-0.50367 12.60437,-1.53409 20.07678,-3.338007 2.74427,-0.662494 4.93092,-1.04521 6.06091,-1.060805 1.67805,-0.02316 1.77209,0.0061 1.85281,0.576895 0.38155,2.698057 -2.0966,5.003867 -6.7773,6.305977 -4.08356,1.13599 -15.04914,2.65512 -25.75889,3.56854 -3.26405,0.27839 -6.03204,0.50693 -6.15107,0.50788 -0.11903,9.5e-4 -0.14273,-0.19715 -0.0527,-0.44022 z"
       style="fill:#facb1d;fill-opacity:1;stroke:none;stroke-width:0.25253814" />
    <path
       transform="matrix(0.26458333,0,0,0.26458333,47.624996,99.677536)"
       id="path8816"
       d="m 243.66767,115.88313 c -0.49929,-0.23234 -0.37367,-0.81339 0.42765,-1.97807 1.44354,-2.09811 2.58532,-2.42371 11.12597,-3.1727 8.43014,-0.73931 13.08866,-1.30022 20.07679,-2.41735 2.38632,-0.38148 4.60869,-0.4707 5.28264,-0.21208 0.22006,0.0844 0.39946,0.44313 0.39946,0.79864 0,0.84953 -1.30115,2.85336 -2.19583,3.38168 -1.87167,1.10525 -7.41367,1.88831 -22.04783,3.11527 -5.21177,0.43697 -12.58379,0.71033 -13.06885,0.48461 z"
       style="fill:#facb1d;fill-opacity:1;stroke:none;stroke-width:0.25253814" />
    <path
       transform="matrix(0.26458333,0,0,0.26458333,47.624996,99.677536)"
       id="path8818"
       d="m 243.68881,122.86082 c -0.99537,-0.0919 -1.98974,-0.31641 -2.20971,-0.49896 -0.76269,-0.63298 -0.36637,-2.77789 0.60981,-3.30033 0.93648,-0.50119 3.1934,-0.73418 10.95596,-1.13103 9.28628,-0.47476 13.58774,-0.77893 18.24281,-1.29002 4.53389,-0.49779 5.49651,-0.43634 5.60903,0.35806 0.0646,0.45593 -0.35526,1.01079 -1.85967,2.45775 -2.6975,2.59449 -3.85238,3.1114 -7.59966,3.40153 -3.35507,0.25976 -20.94268,0.26198 -23.74857,0.003 z"
       style="fill:#facb1d;fill-opacity:1;stroke:none;stroke-width:0.25253814" />
    <path
       transform="matrix(0.26458333,0,0,0.26458333,47.624996,99.677536)"
       id="path8820"
       d="m 251.18068,131.77124 c -2.59126,-0.23299 -7.39231,-1.12311 -9.2883,-1.72205 -4.61642,-1.45833 -6.2066,-3.84029 -2.9677,-4.44538 1.65387,-0.30898 11.34579,-0.72772 16.80169,-0.72593 5.50432,0.002 12.83434,0.39623 13.73621,0.73912 0.5914,0.22485 0.64247,0.32594 0.39667,0.78522 -0.60416,1.12888 -3.69509,3.82157 -5.28772,4.60644 l -1.63517,0.80583 -5.30963,0.0295 c -2.92029,0.0162 -5.82101,-0.0165 -6.44605,-0.0727 z"
       style="fill:#facb1d;fill-opacity:1;stroke:none;stroke-width:0.25253814" />
    <path
       transform="matrix(0.26458333,0,0,0.26458333,47.624996,99.677536)"
       id="path8822"
       d="m 247.30402,139.88755 c -3.50595,-1.05033 -9.37595,-3.2028 -11.0769,-4.06178 -2.7097,-1.3684 -3.65985,-2.93728 -2.44386,-4.03527 0.78616,-0.70986 2.74702,-0.57512 6.93032,0.47622 4.33905,1.09048 8.4064,1.78316 14.39467,2.45144 4.74197,0.52919 6.69774,0.94051 6.86553,1.44389 0.16164,0.48491 -2.15334,1.99889 -4.98472,3.25999 -2.29911,1.02401 -2.92026,1.19307 -4.67196,1.27157 -1.74322,0.0781 -2.43075,-0.0324 -5.01308,-0.80606 z"
       style="fill:#facb1d;fill-opacity:1;stroke:none;stroke-width:0.25253814" />
    <path
       transform="matrix(0.26458333,0,0,0.26458333,47.624996,99.677536)"
       id="path8824"
       d="m 241.58423,145.69279 c -2.07114,-0.57715 -8.67992,-3.27507 -10.9854,-4.48461 -1.41802,-0.74394 -2.04268,-1.21646 -2.09536,-1.585 -0.10065,-0.70421 1.97557,-2.63165 2.8348,-2.63165 0.34345,0 1.68128,0.38874 2.97296,0.86387 1.29168,0.47512 5.0049,1.83407 8.25159,3.01988 5.42052,1.97977 6.8501,2.65235 6.8501,3.22282 0,0.11537 -0.71027,0.56898 -1.57837,1.00803 -1.91352,0.96778 -4.13454,1.17625 -6.25032,0.58666 z"
       style="fill:#facb1d;fill-opacity:1;stroke:none;stroke-width:0.25253814" />
    <path
       transform="matrix(0.26458333,0,0,0.26458333,47.624996,99.677536)"
       id="path8826"
       d="m 236.28093,150.65372 c -3.28009,-1.06927 -10.41048,-4.63814 -11.80615,-5.90917 -1.5669,-1.42695 0.46401,-2.44178 3.34613,-1.67204 1.80575,0.48227 13.54874,5.59338 13.68864,5.95795 0.21842,0.56918 -0.66691,1.32126 -2.03287,1.72691 -1.53488,0.45581 -1.47342,0.4578 -3.19575,-0.10365 z"
       style="fill:#facb1d;fill-opacity:1;stroke:none;stroke-width:0.25253814" />
    <path
       transform="matrix(0.26458333,0,0,0.26458333,47.624996,99.677536)"
       id="path8828"
       d="m 218.38809,160.5858 c -1.97441,-0.53115 -5.71326,-2.54231 -6.59656,-3.54834 -0.82564,-0.94035 -0.92812,-1.48012 -0.47134,-2.48265 0.55183,-1.21114 2.08684,-0.71903 6.99971,2.24402 4.93565,2.97679 5.78113,4.20023 2.87981,4.1672 -0.80302,-0.009 -2.06824,-0.18024 -2.81162,-0.38023 z"
       style="fill:#facb1d;fill-opacity:1;stroke:none;stroke-width:0.25253814" />
    <path
       transform="matrix(0.26458333,0,0,0.26458333,47.624996,99.677536)"
       id="path8830"
       d="m 231.60898,154.26553 c -3.26714,-0.77965 -11.29833,-5.39682 -11.83925,-6.80643 -0.50056,-1.30444 1.38678,-0.98292 5.37709,0.916 5.20604,2.47748 9.43979,5.3098 9.00022,6.02104 -0.21231,0.34352 -0.64437,0.32129 -2.53806,-0.13061 z"
       style="fill:#facb1d;fill-opacity:1;stroke:none;stroke-width:0.25253814" />
    <path
       transform="matrix(0.26458333,0,0,0.26458333,47.624996,99.677536)"
       id="path8832"
       d="m 225.67433,157.54332 c -0.76393,-0.19963 -2.86631,-1.09549 -4.67195,-1.99078 -4.99949,-2.47889 -6.80843,-4.34882 -4.86531,-5.02937 0.94116,-0.32963 2.80071,0.28224 5.37038,1.76708 4.14263,2.39373 5.33918,3.01171 6.81612,3.52029 1.56388,0.53853 1.97211,1.0631 1.3813,1.77498 -0.38531,0.46427 -2.16374,0.44565 -4.03054,-0.0422 z"
       style="fill:#facb1d;fill-opacity:1;stroke:none;stroke-width:0.25253814" />
    <path
       transform="matrix(0.26458333,0,0,0.26458333,47.624996,99.677536)"
       id="path8834"
       d="m 257.26743,232.68305 c -4.36732,-0.20679 -5.32913,-0.34023 -5.32913,-0.73932 0,-0.13478 0.55669,-0.85977 1.23709,-1.61109 0.68039,-0.75132 1.38455,-1.77385 1.56479,-2.27229 0.23765,-0.65722 0.54608,-0.97832 1.12237,-1.16852 1.60015,-0.52809 9.07677,-0.74259 31.87303,-0.91442 l 23.29664,-0.17559 v 3.5771 3.5771 l -24.81187,-0.0384 c -13.64653,-0.0212 -26.67535,-0.12668 -28.95292,-0.23452 z"
       style="fill:#facb1d;fill-opacity:1;stroke:none;stroke-width:0.25253814" />
    <path
       transform="matrix(0.26458333,0,0,0.26458333,47.624996,99.677536)"
       id="path8836"
       d="m 247.76817,234.15557 c -0.16741,-0.38157 -1.28618,-1.07862 -3.40602,-2.12211 -1.76911,-0.87084 -3.36639,-1.83376 -3.63369,-2.19058 -0.44557,-0.59476 -0.45601,-0.79505 -0.15868,-3.04156 0.37452,-2.82967 0.31235,-3.18673 -1.01703,-5.84086 -1.23015,-2.45602 -1.75002,-4.99722 -1.82483,-8.91999 -0.0513,-2.68961 -0.0196,-2.89875 0.50271,-3.32172 0.82908,-0.67135 2.61912,-0.86664 3.72155,-0.40601 1.29938,0.54291 1.90697,2.02863 2.09098,5.11301 0.18403,3.08458 0.53939,3.64163 3.13875,4.92027 2.2431,1.10338 2.5363,1.42381 1.76904,1.93326 -0.3015,0.20018 -0.54819,0.50214 -0.54819,0.67101 0,0.16887 0.96594,1.18634 2.14654,2.26104 1.18059,1.07471 2.2159,2.23039 2.30068,2.56819 0.18514,0.73766 -0.21067,1.38976 -2.07337,3.41591 -1.27467,1.38652 -1.36369,1.56675 -1.36369,2.76078 0,2.11779 -1.05917,3.53411 -1.64475,2.19936 z"
       style="fill:#facb1d;fill-opacity:1;stroke:none;stroke-width:0.25253814" />
    <path
       transform="matrix(0.26458333,0,0,0.26458333,47.624996,99.677536)"
       id="path8838"
       d="m 256.73652,222.56963 c -1.18061,-0.0872 -2.44762,-0.27893 -2.81557,-0.42601 -0.63706,-0.25464 -1.47758,-1.18303 -1.47758,-1.63206 0,-0.11563 0.60703,-0.4787 1.34894,-0.80681 1.59647,-0.70603 2.51984,-1.7212 3.47699,-3.82265 1.31939,-2.89676 2.52115,-3.79328 4.79226,-3.57505 1.4933,0.14348 2.40847,0.74597 3.07029,2.02126 0.41171,0.79335 2.08884,7.98754 1.90125,8.15561 -0.17644,0.1581 -8.39134,0.22647 -10.29658,0.0857 z"
       style="fill:#facb1d;fill-opacity:1;stroke:none;stroke-width:0.25253814" />
    <path
       transform="matrix(0.26458333,0,0,0.26458333,47.624996,99.677536)"
       id="path8840"
       d="m 223.38874,236.84973 c -0.91146,-1.47478 -0.92112,-2.7755 -0.0356,-4.79774 0.42089,-0.96119 1.04392,-2.73964 1.3845,-3.95211 0.34058,-1.21247 0.80792,-2.49246 1.03854,-2.84443 0.67237,-1.02616 2.6454,-2.33221 4.82266,-3.19235 5.56884,-2.20001 8.59268,0.0977 7.04638,5.35438 -0.29694,1.00944 -0.7142,1.67302 -1.5801,2.51285 -1.38071,1.33913 -2.32537,1.6645 -5.53204,1.9054 -2.23813,0.16814 -2.37016,0.21165 -3.07343,1.01263 -0.40417,0.46031 -1.21115,1.75245 -1.79329,2.87141 -0.58215,1.11896 -1.20698,2.03447 -1.38852,2.03447 -0.18154,0 -0.58163,-0.40703 -0.88909,-0.90451 z"
       style="fill:#facb1d;fill-opacity:1;stroke:none;stroke-width:0.25253814" />
    <path
       transform="matrix(0.26458333,0,0,0.26458333,47.624996,99.677536)"
       id="path8842"
       d="m 210.90085,233.03501 c -2.04111,-0.1791 -4.4917,-0.60498 -4.97764,-0.86505 -0.49702,-0.266 -0.49699,-0.26989 0.005,-0.8139 0.59164,-0.64089 1.0547,-2.17821 1.05669,-3.50812 10e-4,-0.74353 0.14493,-1.03523 0.68478,-1.38896 0.60428,-0.39593 1.35698,-0.44776 6.50286,-0.44776 3.20072,0 6.13056,0.087 6.51077,0.19341 0.38021,0.10638 0.87468,0.47332 1.09884,0.81542 0.3697,0.56423 0.37171,0.72722 0.0217,1.75456 -0.60363,1.77155 -1.79419,3.30909 -3.02289,3.9039 -0.9374,0.45378 -1.5104,0.52394 -3.98253,0.48759 -1.58817,-0.0233 -3.34216,-0.0823 -3.89774,-0.13109 z"
       style="fill:#facb1d;fill-opacity:1;stroke:none;stroke-width:0.25253814" />
    <path
       transform="matrix(0.26458333,0,0,0.26458333,47.624996,99.677536)"
       id="path8844"
       d="m 175.06135,233.14542 c -0.0492,-0.17362 -0.21524,-0.78048 -0.36892,-1.34859 -0.1909,-0.70567 -0.71726,-1.46235 -1.66143,-2.38842 -0.7601,-0.74553 -1.51503,-1.67667 -1.67762,-2.0692 -0.65283,-1.57606 0.26358,-4.54799 1.80141,-5.84198 1.586,-1.33454 3.30289,-1.21904 6.62287,0.44555 1.28361,0.64358 2.58954,1.16882 2.90205,1.1672 1.28167,-0.007 0.33522,-1.69232 -2.27086,-4.04449 l -1.45012,-1.30883 1.48574,-1.80737 c 1.95684,-2.38043 3.32244,-4.53273 4.84,-7.62823 0.68765,-1.40268 1.64632,-2.92765 2.14322,-3.40927 0.81736,-0.79221 1.0336,-0.87139 2.37991,-0.87139 1.20138,0 1.59855,0.11058 2.10452,0.5859 1.36242,1.27993 1.01659,3.16679 -1.58206,8.63174 -2.69114,5.65947 -2.77131,6.62101 -0.61146,7.33383 1.43472,0.4735 4.9144,0.17567 7.14727,-0.61173 2.4324,-0.85777 3.53568,-0.85703 4.55784,0.003 1.47608,1.24204 2.80579,4.80721 2.86053,7.66952 0.0536,2.80361 -1.12142,3.26786 -3.83384,1.51474 -2.25918,-1.46018 -3.11393,-1.7547 -6.21707,-2.14225 -1.52785,-0.19081 -3.71975,-0.64537 -4.87088,-1.01013 -1.15113,-0.36476 -2.31697,-0.5921 -2.59077,-0.5052 -0.27379,0.0869 -0.92295,0.67121 -1.44257,1.29846 -1.08307,1.30742 -2.31663,2.02312 -3.88891,2.25631 -1.5807,0.23443 -3.0226,1.15242 -4.52711,2.8822 -1.33642,1.53651 -1.69088,1.76594 -1.85174,1.19857 z"
       style="fill:#facb1d;fill-opacity:1;stroke:none;stroke-width:0.25253814" />
    <path
       transform="matrix(0.26458333,0,0,0.26458333,47.624996,99.677536)"
       id="path8846"
       d="m 179.17556,202.96711 c -0.3963,-1.0126 -0.11066,-7.62942 0.41699,-9.65958 0.67288,-2.58896 2.41518,-5.99198 4.28394,-8.36732 l 1.71518,-2.18013 7.47756,2.50922 c 8.90235,2.98732 12.91729,4.17886 15.30609,4.54248 2.64229,0.40221 2.90434,0.54699 2.90434,1.6047 0,1.04885 -0.78451,2.694 -2.70814,5.67912 -1.59381,2.47331 -2.7641,3.78807 -3.3718,3.78807 -0.23376,0 -1.06482,-0.2929 -1.84679,-0.6509 -1.94265,-0.88938 -2.50315,-0.71417 -4.97474,1.555 -1.12252,1.0306 -2.24159,1.87382 -2.48681,1.87382 -0.24521,0 -0.92954,-0.36933 -1.52072,-0.82074 -1.63125,-1.24558 -2.57668,-1.70381 -3.51618,-1.70424 -1.07669,-5e-4 -6.12191,1.12102 -8.61671,1.91543 -2.42411,0.7719 -2.73021,0.76341 -3.06221,-0.0849 z"
       style="fill:#facb1d;fill-opacity:1;stroke:none;stroke-width:0.25253814" />
    <path
       transform="matrix(0.26458333,0,0,0.26458333,47.624996,99.677536)"
       id="path8848"
       d="m 183.87927,232.79566 c -0.83338,-0.0528 -1.79933,-0.16172 -2.14657,-0.24215 -0.55684,-0.12897 -0.45552,-0.21792 0.85852,-0.75366 0.81943,-0.33409 2.01268,-0.94006 2.65165,-1.3466 2.70481,-1.72089 5.44463,-1.89367 10.13292,-0.63901 3.85912,1.03277 5.40045,2.17324 3.65577,2.70501 -0.776,0.23652 -12.4255,0.44903 -15.15229,0.27641 z"
       style="fill:#facb1d;fill-opacity:1;stroke:none;stroke-width:0.25253814" />
    <path
       transform="matrix(0.26458333,0,0,0.26458333,47.624996,99.677536)"
       id="path8850"
       d="m 159.46076,227.01561 c -0.38832,-0.85228 0.25352,-3.83884 1.29316,-6.01721 1.57573,-3.30165 4.61865,-5.1164 7.552,-4.50392 1.72497,0.36017 4.0829,1.4364 4.08274,1.86349 -7e-5,0.1813 -0.58192,0.83068 -1.293,1.44305 -1.29784,1.11768 -2.22652,2.67849 -2.23686,3.75943 -0.003,0.31883 -0.2992,0.87335 -0.65812,1.23226 -0.60341,0.60342 -0.76984,0.64103 -2.2097,0.49936 -2.19423,-0.21588 -3.32847,0.11475 -4.56841,1.33165 -1.2192,1.19656 -1.56381,1.2654 -1.96181,0.39189 z"
       style="fill:#facb1d;fill-opacity:1;stroke:none;stroke-width:0.25253814" />
    <path
       transform="matrix(0.26458333,0,0,0.26458333,47.624996,99.677536)"
       id="path8852"
       d="m 163.34792,233.15805 c -0.37264,-0.37264 -0.40903,-3.82528 -0.0474,-4.50092 0.38327,-0.71614 1.77295,-0.8736 3.28315,-0.372 1.47167,0.48881 4.76748,2.61334 5.22563,3.36852 0.44557,0.73443 0.0648,0.93326 -2.68484,1.4018 -2.82425,0.48127 -5.35292,0.52618 -5.7765,0.1026 z"
       style="fill:#facb1d;fill-opacity:1;stroke:none;stroke-width:0.25253814" />
    <path
       transform="matrix(0.26458333,0,0,0.26458333,47.624996,99.677536)"
       id="path8854"
       d="m 103.3357,246.5376 c -0.32103,-0.21232 -0.28252,-0.32684 0.25254,-0.75085 1.65919,-1.31486 5.07406,-2.14578 10.88816,-2.64937 4.5083,-0.39049 10.7275,-1.03867 12.40848,-1.29325 l 0.94702,-0.14343 -0.002,-3.07139 c -0.002,-3.80385 -0.25699,-4.87674 -1.20488,-5.06446 -0.93469,-0.18512 -5.66822,-0.60211 -10.41036,-0.91709 -7.81383,-0.519 -12.28022,-1.29757 -15.27855,-2.66331 l -1.515232,-0.69018 2.576222,-0.84222 c 4.49594,-1.4698 8.43956,-1.93384 19.01579,-2.23752 2.98626,-0.0857 5.74208,-0.2152 6.12405,-0.28768 l 0.69448,-0.13179 v -4.24497 -4.24498 l -0.82075,-0.14888 c -2.07354,-0.37614 -7.52055,-0.92341 -11.44171,-1.14957 -4.37716,-0.25246 -7.44843,-0.73983 -9.30864,-1.47717 -1.3128,-0.52035 -4.74803,-2.36037 -4.62898,-2.47942 0.0495,-0.0495 6.67509,0.0173 14.72344,0.14852 8.04835,0.13122 15.21417,0.24162 15.92405,0.24533 l 1.29068,0.007 0.16633,4.10375 c 0.0915,2.25706 0.23644,5.26858 0.32214,6.69226 l 0.15582,2.58852 7.22601,0.0138 c 12.73703,0.0243 15.68603,0.35749 15.68603,1.77236 0,0.81795 0.66712,1.89201 2.28189,3.67384 0.8284,0.91411 1.50618,1.78126 1.50618,1.927 0,0.27213 -18.83793,0.0964 -24.14422,-0.22527 l -2.55222,-0.1547 -0.1601,2.87309 c -0.0881,1.58019 -0.2336,4.64532 -0.32343,6.81138 l -0.16333,3.9383 -5.45811,0.16483 c -8.45439,0.25531 -24.34123,0.19619 -24.77728,-0.0922 z"
       style="fill:#facb1d;fill-opacity:1;stroke:none;stroke-width:0.25253814" />
    <path
       transform="matrix(0.26458333,0,0,0.26458333,47.624996,99.677536)"
       id="path8856"
       d="m 143.86807,96.530499 c -0.55558,-0.280417 -1.4079,-0.842714 -1.89404,-1.249547 -1.1353,-0.950102 -0.89811,-1.400127 1.15175,-2.185307 1.61172,-0.617355 3.37956,-0.761204 4.16816,-0.339162 0.96404,0.515942 0.42742,2.390551 -1.03706,3.622836 -0.94464,0.794856 -1.09469,0.804353 -2.38881,0.15118 z"
       style="fill:#facb1d;fill-opacity:1;stroke:none;stroke-width:0.25253814" />
  </g>
  <g
     id="layer4" />
</svg>
