<?xml version="1.0" encoding="UTF-8" standalone="no"?>
<svg
   xmlns:dc="http://purl.org/dc/elements/1.1/"
   xmlns:cc="http://creativecommons.org/ns#"
   xmlns:rdf="http://www.w3.org/1999/02/22-rdf-syntax-ns#"
   xmlns:svg="http://www.w3.org/2000/svg"
   xmlns="http://www.w3.org/2000/svg"
   xmlns:sodipodi="http://sodipodi.sourceforge.net/DTD/sodipodi-0.dtd"
   xmlns:inkscape="http://www.inkscape.org/namespaces/inkscape"
   fill-rule="evenodd"
   height="1100"
   width="1800"
   version="1.1"
   viewBox="0 0 1440.0001 879.99996"
   id="svg132"
   sodipodi:docname="svg.svg"
   inkscape:version="1.0.2 (e86c870879, 2021-01-15, custom)">
  <defs
     id="defs136" />
  <sodipodi:namedview
     pagecolor="#ffffff"
     bordercolor="#666666"
     borderopacity="1"
     objecttolerance="10"
     gridtolerance="10"
     guidetolerance="10"
     inkscape:pageopacity="0"
     inkscape:pageshadow="2"
     inkscape:window-width="1920"
     inkscape:window-height="1017"
     id="namedview134"
     showgrid="false"
     inkscape:zoom="0.48122545"
     inkscape:cx="643.7225"
     inkscape:cy="461.96896"
     inkscape:window-x="-8"
     inkscape:window-y="-4"
     inkscape:window-maximized="1"
     inkscape:current-layer="svg132" />
  <metadata
     id="metadata2">
    <rdf:RDF>
      <cc:Work
         rdf:about="">
        <dc:format>image/svg+xml</dc:format>
        <dc:type
           rdf:resource="http://purl.org/dc/dcmitype/StillImage" />
        <dc:title />
      </cc:Work>
    </rdf:RDF>
  </metadata>
  <rect
     height="880"
     width="1440"
     y="-0.000080185"
     x="2.3453E-15"
     fill="#FFF"
     id="rect4" />
  <path
     d="m0,320,1440,0,0,240-1440,0,0-240z"
     fill="#03C"
     id="path6"
     style="fill:#003580;fill-opacity:1" />
  <path
     d="m400-0.000049444,240,0,0,880-240,0,0-880z"
     fill="#03C"
     id="path8"
     style="fill:#003580;fill-opacity:1" />
  <path
     d="m227.27,154.35c-34.936,0-63.282,28.132-63.282,62.802,0,34.669,28.346,62.759,63.282,62.759,34.934,0,63.239-28.089,63.239-62.759,0-34.669-28.304-62.802-63.239-62.802zm0,24.168c21.498,0,38.929,17.298,38.929,38.634s-17.432,38.634-38.929,38.634c-21.499,0-38.929-17.298-38.929-38.634s17.43-38.634,38.929-38.634z"
     fill="#FC0"
     id="path10" />
  <path
     d="m120.19,171.26c-25.953,14.489-42.172,35.737-48.66,63.746-6.4882,28.01,3.0815,34.449,28.709,19.317,25.629-15.131,41.85-36.379,48.662-63.746,6.8135-27.365-2.7579-33.804-28.711-19.317z"
     fill="#FC0"
     id="path12" />
  <path
     d="m335.28,191.06c-4.5418,3.8634-8.1094,8.6935-10.705,14.489l-14.599-6.7618c1.2976-5.7934,1.9465-10.945,1.9465-15.454l23.358,7.7268z"
     fill="#FC0"
     id="path14" />
  <path
     d="m150.36,169.81c4.5418,25.756,10.056,47.97,16.544,66.643,5.1906,12.234,25.306,18.673,60.342,19.317,31.144,0,58.718-18.994,82.724-56.986l14.599,6.7618c-18.167,50.224-50.608,75.015-97.324,74.369-27.901-0.64218-54.826-4.1845-80.779-10.623-25.953-6.439-48.662-8.6935-68.127-6.7601l72.019-92.721z"
     fill="#FC0"
     id="path16" />
  <path
     d="m314.84,186.71c5.1906,3.5423,10.544,5.3126,16.06,5.3126,5.5141,0,6.0003-1.4492,1.4603-4.3459-4.5435-2.8984-9.895-4.6687-16.06-5.3126-6.163-0.64389-6.6509,0.80531-1.4603,4.3459z"
     fill="#FC0"
     id="path18" />
  <path
     stroke="#000"
     stroke-width="0.96953464"
     d="m266.18,217.14c0,21.336-17.432,38.634-38.929,38.634-21.499,0-38.929-17.298-38.929-38.634s17.43-38.634,38.929-38.634c21.498,0,38.929,17.298,38.929,38.634"
     fill="none"
     id="path20" />
  <path
     d="m197.08,91.575-40.876-20.284,0.9741,5.7968-12.653-3.8634,2.9188-2.8984-19.465-1.9317,12.653,14.487,0.9741-5.7934,29.195,11.59-3.893-7.7268,30.171,15.454,0-4.8301z"
     fill="#FC0"
     id="path22" />
  <path
     d="m126.03,91.575,0,7.7268,67.152-5.7951-67.152-1.9317z"
     fill="#FC0"
     id="path24" />
  <path
     d="m197.08,84.815-42.822-28.977-7.7859,3.8634,50.608,25.114z"
     fill="#FC0"
     id="path26" />
  <path
     d="m197.08,100.27-33.09,5.7934,2.9188,4.8301-36.009,8.6935,0.97237,5.7934-18.491-2.8967,14.598-12.557,0.9741,6.7618,23.358-5.7951-5.8394-5.7951,50.608-8.6918,0,3.8634z"
     fill="#FC0"
     id="path28" />
  <path
     d="m159.12,136.97-15.572,0,54.501-35.735-38.929,35.735z"
     fill="#FC0"
     id="path30" />
  <path
     d="m166.91,48.111,8.76-1.93,5.8394,13.52,1.9465-5.7934,12.653,25.11-9.7341-11.59-0.97237,4.8301-18.492-24.147z"
     fill="#FC0"
     id="path32" />
  <path
     d="m204.86,91.575,40.876-20.284-0.9741,5.7968,12.653-3.8634-2.9188-2.8984,19.465-1.9317-12.653,14.487-0.9741-5.7934-29.195,11.59,3.893-7.7268-30.171,15.454,0-4.8301z"
     fill="#FC0"
     id="path34" />
  <path
     d="m275.91,91.575,0,7.7268-67.152-5.7951,67.152-1.9317z"
     fill="#FC0"
     id="path36" />
  <path
     d="m204.86,84.815,42.822-28.977,7.7859,3.8634-50.608,25.114z"
     fill="#FC0"
     id="path38" />
  <path
     d="m204.86,100.27,33.09,5.7934-2.9188,4.8301,36.009,8.6935-0.97237,5.7934,18.491-2.8967-14.598-12.557-0.9741,6.7618-23.358-5.7951,5.8394-5.7951-50.608-8.6918,0,3.8634z"
     fill="#FC0"
     id="path40" />
  <path
     d="m242.82,136.97,15.572,0-54.501-35.735,38.929,35.735z"
     fill="#FC0"
     id="path42" />
  <path
     d="m235.04,48.111-8.76-1.93-5.8394,13.52-1.9465-5.7934-12.653,25.11,9.7341-11.59,0.97237,4.8301,18.492-24.147z"
     fill="#FC0"
     id="path44" />
  <path
     stroke="#000"
     stroke-width="0.96953464000000000"
     d="m194.86,40.385,12.222,0-4.4361,90.447,7.0834-2.5545-8.7583,18.352-8.7583-18.352,6.772,2.2431z"
     fill="#FC0"
     id="path46" />
  <path
     stroke="#000"
     stroke-width="0.96953464"
     d="m197.08,91.575-40.876-20.284,0.9741,5.7968-12.653-3.8634,2.9188-2.8984-19.465-1.9317,12.653,14.487,0.9741-5.7934,29.195,11.59-3.893-7.7268,30.171,15.454,0-4.8301z"
     fill="none"
     id="path48" />
  <path
     stroke="#000"
     stroke-width="0.96953464"
     d="m126.03,91.575,0,7.7268,67.152-5.7951-67.152-1.9317z"
     fill="none"
     id="path50" />
  <path
     stroke="#000"
     stroke-width="0.96953464"
     d="m197.08,84.815-42.822-28.977-7.7859,3.8634,50.608,25.114z"
     fill="none"
     id="path52" />
  <path
     stroke="#000"
     stroke-width="0.96953464"
     d="m197.08,100.27-33.09,5.7934,2.9188,4.8301-36.009,8.6935,0.97237,5.7934-18.491-2.8967,14.598-12.557,0.9741,6.7618,23.358-5.7951-5.8394-5.7951,50.608-8.6918,0,3.8634z"
     fill="none"
     id="path54" />
  <path
     stroke="#000"
     stroke-width="0.96953464"
     d="m159.12,136.97-15.572,0,54.501-35.735-38.929,35.735z"
     fill="none"
     id="path56" />
  <path
     stroke="#000"
     stroke-width="0.96953464"
     d="m166.91,48.111,8.76-1.93,5.8394,13.52,1.9465-5.7934,12.653,25.11-9.7341-11.59-0.97237,4.8301-18.492-24.147z"
     fill="none"
     id="path58" />
  <path
     stroke="#000"
     stroke-width="0.96953464"
     d="m204.86,91.575,40.876-20.284-0.9741,5.7968,12.653-3.8634-2.9188-2.8984,19.465-1.9317-12.653,14.487-0.9741-5.7934-29.195,11.59,3.893-7.7268-30.171,15.454,0-4.8301z"
     fill="none"
     id="path60" />
  <path
     stroke="#000"
     stroke-width="0.96953464"
     d="m275.91,91.575,0,7.7268-67.152-5.7951,67.152-1.9317z"
     fill="none"
     id="path62" />
  <path
     stroke="#000"
     stroke-width="0.96953464"
     d="m204.86,84.815,42.822-28.977,7.7859,3.8634-50.608,25.114z"
     fill="none"
     id="path64" />
  <path
     stroke="#000"
     stroke-width="0.96953464"
     d="m204.86,100.27,33.09,5.7934-2.9188,4.8301,36.009,8.6935-0.97237,5.7934,18.491-2.8967-14.598-12.557-0.9741,6.7618-23.358-5.7951,5.8394-5.7951-50.608-8.6918,0,3.8634z"
     fill="none"
     id="path66" />
  <path
     stroke="#000"
     stroke-width="0.96953464"
     d="m242.82,136.97,15.572,0-54.501-35.735,38.929,35.735z"
     fill="none"
     id="path68" />
  <path
     stroke="#000"
     stroke-width="0.96953464"
     d="m235.04,48.111-8.76-1.93-5.8394,13.52-1.9465-5.7934-12.653,25.11,9.7341-11.59,0.97237,4.8301,18.492-24.147z"
     fill="none"
     id="path70" />
  <path
     d="m178.66,100.46,5.8394,0.95125,1.744-3.4066-3.4327-1.7308-4.1508,4.1862z"
     fill="#FC0"
     id="path72" />
  <path
     stroke="#000"
     stroke-width="0.96953464"
     d="m178.66,100.46,5.8394,0.95125,1.744-3.4066-3.4327-1.7308-4.1508,4.1862z"
     fill="none"
     id="path74" />
  <path
     d="m200.97,116.69,2.9206-4.8284-2.9206-2.8984-2.9206,2.8984,2.9206,4.8284z"
     fill="#FC0"
     id="path76" />
  <path
     stroke="#000"
     stroke-width="0.96953464"
     d="m200.97,116.69,2.9206-4.8284-2.9206-2.8984-2.9206,2.8984,2.9206,4.8284z"
     fill="none"
     id="path78" />
  <path
     d="m223.28,100.46-5.8394,0.95125-1.744-3.4066,3.4327-1.7308,4.1508,4.1862z"
     fill="#FC0"
     id="path80" />
  <path
     stroke="#000"
     stroke-width="0.96953464"
     d="m223.28,100.46-5.8394,0.95125-1.744-3.4066,3.4327-1.7308,4.1508,4.1862z"
     fill="none"
     id="path82" />
  <path
     d="m214.7,75.162-0.89279,5.8226-3.8116,0.59754-0.60211-3.7896,5.3065-2.6305z"
     fill="#FC0"
     id="path84" />
  <path
     stroke="#000"
     stroke-width="0.96953464"
     d="m214.7,75.162-0.89279,5.8226-3.8116,0.59754-0.60211-3.7896,5.3065-2.6305z"
     fill="none"
     id="path86" />
  <path
     d="m187.24,75.162,0.89278,5.8226,3.8116,0.59754,0.60211-3.7896-5.3065-2.6305z"
     fill="#FC0"
     id="path88" />
  <path
     stroke="#000"
     stroke-width="0.96953464"
     d="m187.24,75.162,0.89278,5.8226,3.8116,0.59754,0.60211-3.7896-5.3065-2.6305z"
     fill="none"
     id="path90" />
  <path
     d="m210.7,80.952c1.2976-1.9334,3.2441-1.2878,5.8394,1.93,2.5953,3.2212,3.7303,6.7618,3.4068,10.625-0.32528,3.8634-1.7838,5.474-4.3791,4.8284,1.9447,1.2878,1.9447,3.3809,0,6.2793-1.9482,2.8967-4.7044,4.9898-8.2738,6.2776-3.5677,1.2878-5.6768,0.6439-6.3256-1.9317-0.64882,2.5756-2.7579,3.2195-6.3256,1.9317-3.5694-1.2878-6.3256-3.3809-8.2738-6.2776-1.9447-2.8984-1.9447-4.9915,0-6.2793-2.5953,0.64562-4.0538-0.96499-4.3791-4.8284-0.32354-3.8634,0.81147-7.404,3.4068-10.625,2.5953-3.2178,4.5418-3.8634,5.8394-1.93-0.64883-1.9334,0.81146-3.5423,4.3791-4.8301,3.5694-1.2878,7.1371-1.2878,10.706,0,3.5677,1.2878,5.028,2.8967,4.3791,4.8301z"
     fill="#FC0"
     id="path92" />
  <path
     stroke="#000"
     stroke-width="0.96953464"
     d="m210.7,80.952c1.2976-1.9334,3.2441-1.2878,5.8394,1.93,2.5953,3.2212,3.7303,6.7618,3.4068,10.625-0.32528,3.8634-1.7838,5.474-4.3791,4.8284,1.9447,1.2878,1.9447,3.3809,0,6.2793-1.9482,2.8967-4.7044,4.9898-8.2738,6.2776-3.5677,1.2878-5.6768,0.6439-6.3256-1.9317-0.64882,2.5756-2.7579,3.2195-6.3256,1.9317-3.5694-1.2878-6.3256-3.3809-8.2738-6.2776-1.9447-2.8984-1.9447-4.9915,0-6.2793-2.5953,0.64562-4.0538-0.96499-4.3791-4.8284-0.32354-3.8634,0.81147-7.404,3.4068-10.625,2.5953-3.2178,4.5418-3.8634,5.8394-1.93-0.64883-1.9334,0.81146-3.5423,4.3791-4.8301,3.5694-1.2878,7.1371-1.2878,10.706,0,3.5677,1.2878,5.028,2.8967,4.3791,4.8301z"
     fill="none"
     id="path94" />
  <path
     d="m216.54,93.507c0,8.5321-6.9744,15.454-15.572,15.454-8.5974,0-15.572-6.9215-15.572-15.454,0-8.5321,6.9744-15.454,15.572-15.454,8.5974,0,15.572,6.9215,15.572,15.454"
     fill="#FC0"
     id="path96" />
  <path
     stroke="#000"
     stroke-width="0.96953464"
     d="m208.76,93.507c0,4.2652-3.4881,7.7268-7.7859,7.7268s-7.7859-3.4616-7.7859-7.7268,3.4881-7.7268,7.7859-7.7268,7.7859,3.4616,7.7859,7.7268"
     fill="none"
     id="path98" />
  <path
     stroke="#000"
     stroke-width="0.96953464"
     d="m194.16,83.848c-0.64709,1.2878-1.2976,1.2878-1.9447,0-0.65055-1.2878-1.4603-1.6089-2.4344-0.96671-0.97237,0.64562-1.2976,1.9334-0.97237,3.8634,0.32355,1.9334-0.16264,3.5423-1.4603,4.8301-1.2976,1.2878-1.7838,2.5756-1.4603,3.8634,0.32527,1.2878,0.9741,1.6089,1.9465,0.96671,0.9741-0.64562,1.7856-0.32281,2.4327,0.96499,0.65055,1.2878,0.32527,1.9317-0.97237,1.9317s-1.7838,0.48249-1.4603,1.4492c0.32528,0.96498,1.2976,1.6089,2.9206,1.9317,1.6212,0.32109,2.9188,1.2878,3.893,2.8967,0.97237,1.6106,1.9465,2.5756,2.9188,2.8984,0.9741,0.32109,1.4603-0.1614,1.4603-1.4492s0.64882-1.9317,1.9465-1.9317c1.2976,0,1.9465,0.6439,1.9465,1.9317s0.48619,1.7703,1.4603,1.4492c0.97237-0.3228,1.9465-1.2878,2.9188-2.8984,0.9741-1.6089,2.2718-2.5756,3.893-2.8967,1.6229-0.32281,2.5953-0.96671,2.9206-1.9317,0.32355-0.96671-0.16264-1.4492-1.4603-1.4492-1.2976,0-1.6229-0.6439-0.97237-1.9317,0.6471-1.2878,1.4586-1.6106,2.4327-0.96499,0.97237,0.64218,1.6212,0.32109,1.9465-0.96671,0.32355-1.2878-0.16264-2.5756-1.4603-3.8634-1.2976-1.2878-1.7838-2.8967-1.4603-4.8301,0.32528-1.93,0-3.2178-0.97237-3.8634-0.9741-0.64218-1.7838-0.32109-2.4344,0.96671-0.64709,1.2878-1.2976,1.2878-1.9447,0-1.2976-0.6439-1.4603-1.4492-0.48792-2.4142,0.9741-0.96671,0.9741-1.6106,0-1.9317-0.97237-0.32281-2.27-0.1614-3.8929,0.48249-1.6212,0.6439-3.2441,0.6439-4.8653,0-1.6229-0.6439-2.9206-0.8053-3.8929-0.48249-0.9741,0.32109-0.9741,0.96499,0,1.9317,0.97237,0.96499,0.80973,1.7703-0.48792,2.4142z"
     fill="none"
     id="path100" />
  <path
     stroke="#000"
     stroke-width="0.96953464"
     d="m120.19,171.26c-25.953,14.489-42.172,35.737-48.66,63.746-6.4882,28.01,3.0815,34.449,28.709,19.317,25.629-15.131,41.85-36.379,48.662-63.746,6.8135-27.365-2.7579-33.804-28.711-19.317z"
     fill="none"
     id="path102" />
  <path
     stroke="#000"
     stroke-width="0.96953464"
     d="m78.344,262.53c19.465-1.9334,42.174,0.32109,68.127,6.7601s52.878,9.9813,80.779,10.623c46.715,0.64562,79.157-24.145,97.324-74.369l-14.599-6.7618c-24.006,37.992-51.581,56.986-82.724,56.986"
     fill="none"
     id="path104" />
  <path
     stroke="#000"
     stroke-width="0.96953464"
     d="m77.37,249.97c2.5953-34.127,21.736-60.205,57.422-78.234"
     fill="none"
     id="path106" />
  <path
     stroke="#000"
     stroke-width="0.96953464"
     d="m88.076,246.11c5.1906-25.756,19.79-45.717,43.795-59.883"
     fill="none"
     id="path108" />
  <path
     stroke="#000"
     stroke-width="0.96953464"
     d="M97.808,237.42c7.782-18.03,18.812-30.59,33.092-37.67"
     fill="none"
     id="path110" />
  <path
     stroke="#000"
     stroke-width="0.96953464"
     d="m151.34,218.1c-5.8377,12.236-12.651,21.25-20.437,27.044"
     fill="none"
     id="path112" />
  <path
     stroke="#000"
     stroke-width="0.96953464"
     d="m196.11,184.3c-11.679,14.166-16.546,28.332-14.599,42.497"
     fill="none"
     id="path114" />
  <path
     stroke="#000"
     stroke-width="0.96953464"
     d="m274.94,189.13c5.8394,9.0146,8.4347,18.994,7.7859,29.94"
     fill="none"
     id="path116" />
  <path
     stroke="#000"
     stroke-width="0.96953464"
     d="m314.84,186.71c5.1906,3.5423,10.544,5.3126,16.06,5.3126,5.5141,0,6.0003-1.4492,1.4603-4.3459-4.5435-2.8984-9.895-4.6687-16.06-5.3126-6.163-0.64389-6.6509,0.80531-1.4603,4.3459z"
     fill="none"
     id="path118" />
  <path
     stroke="#000"
     stroke-width="0.96953464"
     d="m311.92,183.33c0,4.509-0.64882,9.6602-1.9465,15.454"
     fill="none"
     id="path120" />
  <path
     stroke="#000"
     stroke-width="0.96953464"
     d="m335.28,191.06c-4.5418,3.8634-8.1094,8.6935-10.705,14.489"
     fill="none"
     id="path122" />
  <path
     stroke="#000"
     stroke-width="0.96953464"
     d="m166.91,236.45c-6.4882-18.673-12.002-40.887-16.544-66.643"
     fill="none"
     id="path124" />
  <path
     stroke="#000"
     stroke-width="0.96953464"
     d="m227.25,279.91c-34.936,0-63.261-28.11-63.261-62.779s28.325-62.779,63.261-62.779c34.934,0,63.259,28.11,63.259,62.779,0,2.5481-0.16264,5.1168-0.47234,7.653"
     fill="none"
     id="path126" />
  <path
     d="m315.81,204.58c7.7859,3.8634,12.165,4.3459,13.139,1.4475,0.97237-2.8967-2.2718-6.1162-9.7324-9.6585-7.4623-3.5406-11.841-4.0248-13.139-1.4492-1.2976,2.5756,1.9465,5.7968,9.7324,9.6602z"
     fill="#FC0"
     id="path128" />
  <path
     stroke="#000"
     stroke-width="0.96953464"
     d="m315.81,204.58c7.7859,3.8634,12.165,4.3459,13.139,1.4475,0.97237-2.8967-2.2718-6.1162-9.7324-9.6585-7.4623-3.5406-11.841-4.0248-13.139-1.4492-1.2976,2.5756,1.9465,5.7968,9.7324,9.6602z"
     fill="none"
     id="path130" />
</svg>
