<?xml version="1.0" encoding="UTF-8"?>
<svg width="1e3mm" height="500mm" version="1.1" viewBox="0 0 1e3 500" xmlns="http://www.w3.org/2000/svg" xmlns:cc="http://creativecommons.org/ns#" xmlns:dc="http://purl.org/dc/elements/1.1/" xmlns:rdf="http://www.w3.org/1999/02/22-rdf-syntax-ns#">
<metadata>
<rdf:RDF>
<cc:Work rdf:about="">
<dc:format>image/svg+xml</dc:format>
<dc:type rdf:resource="http://purl.org/dc/dcmitype/StillImage"/>
<dc:title/>
</cc:Work>
</rdf:RDF>
</metadata>
<g transform="translate(0,203)">
<rect x="2.8422e-14" y="-203" width="1e3" height="500" fill="#0f64e1" fill-rule="evenodd" style="paint-order:normal"/>
<rect x="3.0518e-5" y="-203" width="1e3" height="250" fill="#fff" fill-rule="evenodd" style="paint-order:normal"/>
<path d="m496.01 16.666c-8.4e-4 -1.1579-0.0843-1.5078-0.27945-1.2057-0.31153 0.48188-0.3692 1.7169-0.11158 2.3881 0.30028 0.78223 0.39545 0.49441 0.39097-1.1824z" fill="#fdfdfc" stroke-width=".28373"/>
<path transform="matrix(.59121 0 0 .59102 673.71 -12.31)" d="m-188.17-160.17c14.002 14.582 29.351 27.871 45.788 39.64 18.023 12.905 37.353 23.982 57.599 33.006-5.7871 11.86-10.556 24.217-14.238 36.889-6.515 22.425-9.6074 46.029-7.119 69.249 3.3382 31.149 16.937 61.113 38.184 84.134 2.2358 22.628 1.3621 45.562-2.5887 67.954-5.0023 28.352-15.009 55.932-30.418 80.251-19.498 30.773-47.215 55.717-77.662 75.72-35.142 23.087-74.309 40.03-115.2 49.833-40.889-9.8026-80.056-26.746-115.2-49.833-30.447-20.003-58.163-44.947-77.662-75.72-15.409-24.319-25.415-51.899-30.418-80.251-3.9509-22.393-4.8245-45.326-2.5887-67.954 21.247-23.021 34.846-52.985 38.184-84.134 2.4884-23.219-0.60404-46.823-7.119-69.249-3.6817-12.673-8.4509-25.029-14.238-36.889 20.246-9.0246 39.577-20.102 57.599-33.006 16.437-11.769 31.786-25.058 45.788-39.64 32.211 16.011 68.101 24.566 104.07 24.805 37.025 0.24664 74.078-8.3247 107.23-24.805z" fill="#0f64e1" stroke="#ff0" stroke-width="11"/>
<rect x="469.96" y="-48.348" width="57.776" height="46.664" fill="#fff" fill-rule="evenodd" stroke="#000" stroke-linecap="square" stroke-width="1.7733" style="paint-order:normal"/>
<rect x="447.24" y="-9.7485" width="102.85" height="9.5545" fill="#fff" fill-rule="evenodd" stroke="#000" stroke-linecap="square" stroke-width="2.0076" style="paint-order:normal"/>
<rect x="446.99" y="-17.065" width="103.1" height="7.3169" fill="#fff" fill-rule="evenodd" stroke="#000" stroke-linecap="square" stroke-width="1.759" style="paint-order:normal"/>
<path transform="matrix(.59121 0 0 .59102 670.96 -12.853)" d="m-434.29-64.068c3.6104 8.8532 10.726 16.22 19.449 20.136 9.1803 4.1206 19.99 4.3588 29.419 0.84623 9.4297-3.5126 17.399-10.693 22.064-19.609 4.9453-9.4516 6.1483-20.849 3.0362-31.052-3.1121-10.203-10.562-19.056-20.197-23.634-7.0626-3.3562-15.195-4.4134-22.881-2.9746v0c9.3926 2.6334 17.452 9.6629 21.336 18.611 3.8847 8.9479 3.5176 19.636-0.97198 28.296-4.6091 8.8908-13.477 15.449-23.328 17.252-9.8509 1.8031-20.467-1.189-27.926-7.8709z" fill="#ff0" stroke="#000" stroke-linecap="square" stroke-miterlimit="5" stroke-width="4" style="paint-order:normal"/>
<path d="m537.45-44.011 23.309-15.556-8.1833 16.6z" fill="#ff0"/>
<path d="m534.18-70.217 25.91 10.678-18.348 2.4584z" fill="#ff0"/>
<path d="m585.24-49.323-26.509-9.0925 18.166-3.563z" fill="#ff0"/>
<path d="m581.87-77.028-21.656 17.783 6.5018-17.327z" fill="#ff0"/>
<path d="m555.98-87.506 4.1376 27.709-11.531-14.478z" fill="#ff0"/>
<path d="m563.33-32.351-4.0465-27.723 11.484 14.515z" fill="#ff0"/>
<path d="m556.02-87.323 10.687 10.751 15.083-0.27048-3.9906 14.808 7.4402 12.712-14.542 3.9894-7.3726 12.982-10.754-10.616h-14.948l4.0583-14.673-7.5079-12.577 14.407-4.057z" fill="none" stroke="#000" stroke-linejoin="round" stroke-width="2.3644"/>
<path d="m548.58-74.274 22.118 28.94" fill="none" stroke="#000" stroke-width="2.3644"/>
<path d="m556.02-87.323 7.3049 54.972" fill="none" stroke="#000" stroke-width="2.3644"/>
<path d="m566.71-76.572-14.136 33.605" fill="none" stroke="#000" stroke-width="2.3644"/>
<path d="m581.79-76.843-44.168 33.876" fill="none" stroke="#000" stroke-width="2.3644"/>
<path d="m577.8-62.035-36.119 4.395" fill="none" stroke="#000" stroke-width="2.3644"/>
<path d="m585.24-49.323-51.067-20.893" fill="none" stroke="#000" stroke-width="2.3644"/>
<path d="m556.02-87.323 3.4842 27.799 7.2026-17.048z"/>
<path d="m563.17-32.129-3.2572-27.827-7.3415 16.989z"/>
<path d="m585.06-50.212-26.514-9.0765 12.159 13.954z"/>
<path d="m581.77-76.663-22.337 16.921 18.37-2.2922z"/>
<path d="m533.51-69.992 25.996 10.467-11.403-14.579z"/>
<path d="m538.62-42.796 21.257-18.258-18.195 3.4136z"/>
<rect x="466.04" y="-57.027" width="8.6659" height="16.088" fill="#fff" fill-rule="evenodd" stroke="#000" stroke-linecap="square" stroke-width="1.6393" style="paint-order:normal"/>
<rect x="480.25" y="-57.027" width="8.6659" height="16.088" fill="#fff" fill-rule="evenodd" stroke="#000" stroke-linecap="square" stroke-width="1.6393" style="paint-order:normal"/>
<rect x="480.25" y="-57.027" width="8.6659" height="16.088" fill="#fff" fill-rule="evenodd" stroke="#000" stroke-linecap="square" stroke-width="1.6393" style="paint-order:normal"/>
<rect x="494.46" y="-57.027" width="8.6659" height="16.088" fill="#fff" fill-rule="evenodd" stroke="#000" stroke-linecap="square" stroke-width="1.6393" style="paint-order:normal"/>
<rect x="494.46" y="-57.027" width="8.6659" height="16.088" fill="#fff" fill-rule="evenodd" stroke="#000" stroke-linecap="square" stroke-width="1.6393" style="paint-order:normal"/>
<rect x="508.67" y="-57.027" width="8.6659" height="16.088" fill="#fff" fill-rule="evenodd" stroke="#000" stroke-linecap="square" stroke-width="1.6393" style="paint-order:normal"/>
<rect x="508.67" y="-57.027" width="8.6659" height="16.088" fill="#fff" fill-rule="evenodd" stroke="#000" stroke-linecap="square" stroke-width="1.6393" style="paint-order:normal"/>
<rect x="522.88" y="-57.027" width="8.6659" height="16.088" fill="#fff" fill-rule="evenodd" stroke="#000" stroke-linecap="square" stroke-width="1.6393" style="paint-order:normal"/>
<rect x="443.74" y="-26.307" width="9.99" height="19.49" fill="#fff" fill-rule="evenodd" stroke="#000" stroke-linecap="square" stroke-width="1.9373" style="paint-order:normal"/>
<rect x="463.7" y="-26.307" width="9.99" height="19.49" fill="#fff" fill-rule="evenodd" stroke="#000" stroke-linecap="square" stroke-width="1.9373" style="paint-order:normal"/>
<rect x="463.7" y="-26.307" width="9.99" height="19.49" fill="#fff" fill-rule="evenodd" stroke="#000" stroke-linecap="square" stroke-width="1.9373" style="paint-order:normal"/>
<rect x="483.65" y="-26.307" width="9.99" height="19.49" fill="#fff" fill-rule="evenodd" stroke="#000" stroke-linecap="square" stroke-width="1.9373" style="paint-order:normal"/>
<rect x="483.65" y="-26.307" width="9.99" height="19.49" fill="#fff" fill-rule="evenodd" stroke="#000" stroke-linecap="square" stroke-width="1.9373" style="paint-order:normal"/>
<rect x="503.61" y="-26.307" width="9.99" height="19.49" fill="#fff" fill-rule="evenodd" stroke="#000" stroke-linecap="square" stroke-width="1.9373" style="paint-order:normal"/>
<rect x="503.61" y="-26.307" width="9.99" height="19.49" fill="#fff" fill-rule="evenodd" stroke="#000" stroke-linecap="square" stroke-width="1.9373" style="paint-order:normal"/>
<rect x="523.57" y="-26.307" width="9.99" height="19.49" fill="#fff" fill-rule="evenodd" stroke="#000" stroke-linecap="square" stroke-width="1.9373" style="paint-order:normal"/>
<rect x="523.57" y="-26.307" width="9.99" height="19.49" fill="#fff" fill-rule="evenodd" stroke="#000" stroke-linecap="square" stroke-width="1.9373" style="paint-order:normal"/>
<rect x="543.52" y="-26.307" width="9.99" height="19.49" fill="#fff" fill-rule="evenodd" stroke="#000" stroke-linecap="square" stroke-width="1.9373" style="paint-order:normal"/>
<path d="m447.24-0.194h102.85v137.42h-102.85z" fill="#fff" fill-rule="evenodd" stroke="#000" stroke-linecap="square" stroke-width="1.7733" style="paint-order:normal"/>
<path d="m549.36 27.816-102.27 8.3e-4" fill="none" stroke="#000" stroke-width="1.7733"/>
<path d="m549.34 18.404-102.27 8.2e-4" fill="none" stroke="#000" stroke-width="1.7733"/>
<path d="m549.59 9.0219-102.27 8.2e-4" fill="none" stroke="#000" stroke-width="1.7733"/>
<path d="m527.84 28.216v9.3383" fill="none" stroke="#000" stroke-width="1.827"/>
<path d="m550.1 38.023-102.27 8.2e-4" fill="none" stroke="#000" stroke-width="1.7733"/>
<path d="m549.88 56.817-102.27 8.4e-4" fill="none" stroke="#000" stroke-width="1.7733"/>
<path d="m549.86 47.406-102.27 8.3e-4" fill="none" stroke="#000" stroke-width="1.7733"/>
<path d="m550.1 38.023-102.27 8.2e-4" fill="none" stroke="#000" stroke-width="1.7733"/>
<path d="m550.62 67.025-103.04 8.4e-4" fill="none" stroke="#000" stroke-width="1.7799"/>
<path d="m549.63 85.819-102.27 8.4e-4" fill="none" stroke="#000" stroke-width="1.7733"/>
<path d="m549.61 76.407-102.27 8.5e-4" fill="none" stroke="#000" stroke-width="1.7733"/>
<path d="m549.86 67.025-102.27 8.4e-4" fill="none" stroke="#000" stroke-width="1.7733"/>
<path d="m550.37 96.026-103.04 8.4e-4" fill="none" stroke="#000" stroke-width="1.7799"/>
<path d="m550.15 114.82-102.27 8.4e-4" fill="none" stroke="#000" stroke-width="1.7733"/>
<path d="m550.13 105.41-102.27 8.5e-4" fill="none" stroke="#000" stroke-width="1.7733"/>
<path d="m550.37 96.026-102.27 8.4e-4" fill="none" stroke="#000" stroke-width="1.7733"/>
<path d="m550.89 125.03-103.04 8.3e-4" fill="none" stroke="#000" stroke-width="1.7799"/>
<path d="m451.52-0.33741v8.7974" fill="none" stroke="#000" stroke-width="1.7733"/>
<path d="m464.15-0.52865v8.7974" fill="none" stroke="#000" stroke-width="1.7733"/>
<path transform="matrix(.59121 0 0 .59102 871.27 -13.696)" d="m-683.24 254.44 0.40714-174.77c-3.8299-6.9264-4.3304-15.601-1.3224-22.922 1.6904-4.1143 4.4141-7.7689 7.7071-10.759 3.293-2.9901 7.1466-5.3288 11.222-7.1098 8.1517-3.5621 17.082-4.891 25.918-5.9278 12.308-1.4443 25.289-2.293 36.61 2.7458 7.7892 3.4667 14.327 9.6716 18.196 17.269 3.8686 7.5976 5.0408 16.535 3.2625 24.873l-0.40714 177.06" fill="#fff" stroke="#000" stroke-width="3"/>
<path d="m525.85-0.64168v8.7974" fill="none" stroke="#000" stroke-width="1.7733"/>
<path d="m542.22-0.020547v8.7974" fill="none" stroke="#000" stroke-width="1.7733"/>
<path d="m538.58 8.9681v8.7974" fill="none" stroke="#000" stroke-width="1.7733"/>
<path d="m456.13 9.3506v8.7974" fill="none" stroke="#000" stroke-width="1.7733"/>
<path d="m450.01 18.339v8.7974" fill="none" stroke="#000" stroke-width="1.7733"/>
<path d="m545.47 18.626v8.7974" fill="none" stroke="#000" stroke-width="1.7733"/>
<path d="m453.51 28.52v8.7974" fill="none" stroke="#000" stroke-width="1.7733"/>
<path d="m544.2 28.296v9.3383" fill="none" stroke="#000" stroke-width="1.827"/>
<path d="m540.57 37.825v8.7974" fill="none" stroke="#000" stroke-width="1.7733"/>
<path d="m547.46 47.483v8.7974" fill="none" stroke="#000" stroke-width="1.7733"/>
<path d="m449.74 38.12v8.7974" fill="none" stroke="#000" stroke-width="1.7733"/>
<path d="m458.41 38.162v8.7974" fill="none" stroke="#000" stroke-width="1.7733"/>
<path d="m536.06 47.898v8.7974" fill="none" stroke="#000" stroke-width="1.7733"/>
<path d="m527.64 32.306c4.8706-1.6234 9.7405-3.2462 14.61-4.8684-7.3672-13.934-18.068-27.789-43.559-27.858-28.825-0.078-43.766 23.474-45.182 28.94l14.069 4.8683c6.5803-14.867 19.147-20.609 30.843-20.555 12.355 0.057 23.403 7.4372 29.22 19.473z" fill="#fff" stroke="#000" stroke-width="1.7733"/>
<path transform="matrix(.59121 0 0 .59102 675.36 -9.3451)" d="m-366.63 49.027 19.254 14.885" fill="none" stroke="#000" stroke-width="3"/>
<path transform="matrix(.59121 0 0 .59102 675.36 -9.3451)" d="m-358.38 39.643 17.798 15.371" fill="none" stroke="#000" stroke-width="3"/>
<path transform="matrix(.59121 0 0 .59102 675.36 -9.3451)" d="m-347.54 30.259 15.047 18.283" fill="none" stroke="#000" stroke-width="3"/>
<path transform="matrix(.59121 0 0 .59102 675.36 -9.3451)" d="m-335.89 23.463 11.973 19.577" fill="none" stroke="#000" stroke-width="3"/>
<path transform="matrix(.59121 0 0 .59102 675.36 -9.3451)" d="m-323.59 18.448 8.4134 21.195" fill="none" stroke="#000" stroke-width="3"/>
<path transform="matrix(.59121 0 0 .59102 675.36 -9.3451)" d="m-307.57 15.373 1.618 22.166" fill="none" stroke="#000" stroke-width="3"/>
<path transform="matrix(.59121 0 0 .59102 675.36 -9.3451)" d="m-288.32 15.697-3.5595 22.328" fill="none" stroke="#000" stroke-width="3"/>
<path transform="matrix(.59121 0 0 .59102 675.36 -9.3451)" d="m-276.67 18.124-7.928 21.519" fill="none" stroke="#000" stroke-width="3"/>
<path transform="matrix(.59121 0 0 .59102 675.36 -9.3451)" d="m-264.86 23.14-11.487 19.739" fill="none" stroke="#000" stroke-width="3"/>
<path transform="matrix(.59121 0 0 .59102 675.36 -9.3451)" d="m-252.89 29.611-14.4 18.121" fill="none" stroke="#000" stroke-width="3"/>
<path transform="matrix(.59121 0 0 .59102 675.36 -9.3451)" d="m-243.66 37.378-16.827 16.989" fill="none" stroke="#000" stroke-width="3"/>
<path transform="matrix(.59121 0 0 .59102 675.36 -9.3451)" d="m-235.09 46.438-18.606 16.018" fill="none" stroke="#000" stroke-width="3"/>
<path d="m456.24 48.169v8.7974" fill="none" stroke="#000" stroke-width="1.7733"/>
<path d="m464.63 47.898v8.7974" fill="none" stroke="#000" stroke-width="1.7733"/>
<path d="m453.54 57.365v8.7974" fill="none" stroke="#000" stroke-width="1.7733"/>
<path d="m463.28 67.372v8.7974" fill="none" stroke="#000" stroke-width="1.7733"/>
<path d="m450.83 67.101v8.7974" fill="none" stroke="#000" stroke-width="1.7733"/>
<path d="m457.87 76.467v8.7974" fill="none" stroke="#000" stroke-width="1.7733"/>
<path d="m451.37 86.475v8.7974" fill="none" stroke="#000" stroke-width="1.7733"/>
<path d="m461.65 86.575v8.7974" fill="none" stroke="#000" stroke-width="1.7733"/>
<path d="m457.87 96.311v8.7974" fill="none" stroke="#000" stroke-width="1.7733"/>
<path d="m463.82 105.78v8.7974" fill="none" stroke="#000" stroke-width="1.7733"/>
<path d="m540.38 57.365v8.7974" fill="none" stroke="#000" stroke-width="1.7733"/>
<path d="m529.83 67.913v8.7974" fill="none" stroke="#000" stroke-width="1.7733"/>
<path d="m545.52 67.642v8.7974" fill="none" stroke="#000" stroke-width="1.7733"/>
<path d="m537.68 76.838v8.7974" fill="none" stroke="#000" stroke-width="1.7733"/>
<path d="m546.88 86.304v8.7974" fill="none" stroke="#000" stroke-width="1.7733"/>
<path d="m533.62 86.304v8.7974" fill="none" stroke="#000" stroke-width="1.7733"/>
<path d="m536.87 95.771v8.7974" fill="none" stroke="#000" stroke-width="1.7733"/>
<path d="m533.35 105.41v8.7974" fill="none" stroke="#000" stroke-width="1.7733"/>
<path d="m541.74 115.51v8.7974" fill="none" stroke="#000" stroke-width="1.7733"/>
<path transform="matrix(.59121 0 0 .59102 675.78 -12.51)" d="m-181.88 114.1c2.0778-5.5667 2.9722-11.572 2.6068-17.503-0.19813-3.216-0.76083-6.3998-1.4562-9.5459-0.89696-4.0585-2.024-8.1472-1.7798-12.296 0.15572-2.645 0.87772-5.2553 2.1033-7.6044-3.2177 1.5003-5.6383 4.6036-6.31 8.0898-0.50131 2.6018-0.0746 5.2794 0 7.928 0.0935 3.3195-0.37124 6.6372-1.1326 9.8695-1.5392 6.535-4.304 12.779-8.1079 18.311" fill="#f40000" stroke="#000" stroke-width="3"/>
<path d="m556.79 64.234 2.435-3.7189-2.435-3.4484c-0.42781 1.2616-1.3823 2.5237-1.2852 3.7865-0.14197 1.454 0.85734 2.2533 1.2852 3.3808z" fill="#fff" stroke="#000" stroke-linejoin="round" stroke-width="1.7733"/>
<ellipse cx="562.02" cy="43.485" rx="1.6369" ry="1.5886" fill="none" stroke="#000" stroke-linecap="square" stroke-width="1.8986" style="paint-order:normal"/>
<path transform="matrix(-.59121 0 0 .59102 321.68 -14.34)" d="m-276.29 253.3c-3.5358-0.4866-7.1589-0.33076-10.64 0.45763-5.8438 1.3236-11.187 4.3994-15.788 8.2373-5.2246 4.3578-9.621 9.7874-12.356 16.017-2.2329 5.086-3.3356 10.723-2.7458 16.246 0.7507 7.0291 4.2646 13.656 9.3814 18.534 5.079 4.8416 11.551 7.9457 18.076 10.525 8.5147 3.3662 17.409 5.9927 26.542 6.6356 9.5093 0.66938 19.113-0.83931 28.144-3.8898 7.4197-2.5061 14.475-6.0426 21.051-10.297 10.558-6.8307 19.855-15.484 28.144-24.941 7.7443-8.8357 14.667-18.432 20.136-28.83 2.8981-5.511 5.3853-11.243 7.322-17.161 2.346-7.1684 3.8851-14.652 3.8898-22.195 5e-3 -8.3214-1.8522-16.545-4.3475-24.483-1.7435-5.547-3.8247-11.118-3.8898-16.932-0.0402-3.5936 0.6966-7.1604 0.68644-10.754-0.0126-4.4715-1.208-8.9344-3.4322-12.814 0.3853 2.8094 0.30767 5.6817-0.22882 8.4661-0.74966 3.8908-2.3769 7.5654-3.2034 11.441-0.84703 3.9717-0.83624 8.0838-0.45762 12.127 0.55429 5.9193 1.8838 11.736 2.7458 17.619 0.63309 4.3204 1.0138 8.6777 1.1441 13.042 0.14615 4.898-0.0254 9.8254-0.91526 14.644-1.2704 6.8791-3.9806 13.413-7.0932 19.678-7.6143 15.325-17.786 29.412-30.203 41.186-9.6627 9.1623-20.967 17.051-33.864 20.364-10.335 2.6553-21.22 2.2599-31.805 0.91525-5.1512-0.65434-10.308-1.5374-15.189-3.3098-4.8808-1.7724-9.5029-4.4811-12.955-8.3596-1.9015-2.1361-3.4334-4.6193-4.3492-7.3285-0.9158-2.7092-1.2033-5.6472-0.68472-8.4596 0.86127-4.6708 3.8366-8.6699 7.0932-12.127 5.4335-5.7681 11.903-10.558 19.006-14.07" fill="#00e200" stroke="#000" stroke-linejoin="round" stroke-width="3"/>
<path transform="matrix(.59121 0 0 .59102 676.2 -15.134)" d="m-276.29 253.3c-3.5358-0.4866-7.1589-0.33076-10.64 0.45763-5.8438 1.3236-11.187 4.3994-15.788 8.2373-5.2246 4.3578-9.621 9.7874-12.356 16.017-2.2329 5.086-3.3356 10.723-2.7458 16.246 0.7507 7.0291 4.2646 13.656 9.3814 18.534 5.079 4.8416 11.551 7.9457 18.076 10.525 8.5147 3.3662 17.409 5.9927 26.542 6.6356 9.5093 0.66938 19.113-0.83931 28.144-3.8898 7.4197-2.5061 14.475-6.0426 21.051-10.297 10.558-6.8307 19.855-15.484 28.144-24.941 7.7443-8.8357 14.667-18.432 20.136-28.83 2.8981-5.511 5.3853-11.243 7.322-17.161 2.346-7.1684 3.8851-14.652 3.8898-22.195 5e-3 -8.3214-1.8522-16.545-4.3475-24.483-1.7435-5.547-3.8247-11.118-3.8898-16.932-0.0402-3.5936 0.6966-7.1604 0.68644-10.754-0.0126-4.4715-1.208-8.9344-3.4322-12.814 0.3853 2.8094 0.30767 5.6817-0.22882 8.4661-0.74966 3.8908-2.3769 7.5654-3.2034 11.441-0.84703 3.9717-0.83624 8.0838-0.45762 12.127 0.55429 5.9193 1.8838 11.736 2.7458 17.619 0.63309 4.3204 1.0138 8.6777 1.1441 13.042 0.14615 4.898-0.0254 9.8254-0.91526 14.644-1.2704 6.8791-3.9806 13.413-7.0932 19.678-7.6143 15.325-17.786 29.412-30.203 41.186-9.6627 9.1623-20.967 17.051-33.864 20.364-10.335 2.6553-21.22 2.2599-31.805 0.91525-5.1512-0.65434-10.308-1.5374-15.189-3.3098-4.8808-1.7724-9.5029-4.4811-12.955-8.3596-1.9015-2.1361-3.4334-4.6193-4.3492-7.3285-0.9158-2.7092-1.2033-5.6472-0.68472-8.4596 0.86127-4.6708 3.8366-8.6699 7.0932-12.127 5.4335-5.7681 11.903-10.558 19.006-14.07" fill="#00e200" stroke="#000" stroke-linejoin="round" stroke-width="3"/>
<path transform="matrix(.59121 0 0 .59102 674.54 -10.439)" d="m-175.87 211.47c-0.15056-4.5567 0.80088-9.146 2.7505-13.267 1.3137-2.777 3.1626-5.4239 5.8246-6.9572 2.7142-1.5634 6.1472-1.7976 9.0606-0.64718 2.8034 1.107 5.0836 3.4688 6.0915 6.3093s0.72634 6.1113-0.75227 8.7377c-3.5646 0.48699-6.9792 2.0236-9.7077 4.3685-3.5732 3.0709-5.8503 7.3422-8.0898 11.487-3.2021 5.9271-6.4924 11.807-9.8695 17.636" fill="#00e200" stroke="#000" stroke-linejoin="round" stroke-width="3"/>
<path transform="matrix(.59121 0 0 .59102 676.2 -15.134)" d="m-209.69 263.08c-2.7155 5.256-7.5114 9.4006-13.105 11.326-6.5261 2.2458-14.046 1.3899-19.901-2.2651l-8.5141-4.7831c-4.738-2.6617-9.7201-5.183-15.127-5.7279-5.407-0.54488-11.026 0.91742-15.353 4.2053l-2.0502-7.1285 6.988-5.6984c4.8655-3.9676 9.4692-8.4438 15.159-11.097 3.7448-1.7466 7.9542-2.4847 12.07-2.1165 1.8422-2.712 4.1326-5.1189 6.75-7.0932 4.1218-3.1091 8.9568-5.0946 13.614-7.322 5.4008-2.5829 10.623-5.5264 16.017-8.1229 3.6994-1.7806 7.5188-3.4216 10.754-5.9492 2.1263-1.6611 4.0069-3.7532 4.9195-6.2924 0.87371-2.431 0.80523-5.0926 0.57203-7.6653-0.50155-5.5331-1.7115-10.978-3.089-16.36-1.4941-5.8383-3.2011-11.711-3.2322-17.737-0.0221-4.2615 0.8096-8.5256 2.4314-12.466-1.2413 1.7857-3.0148 3.1964-5.0339 4.0042-1.3417 0.53679-2.788 0.81043-4.233 0.80085-0.0186-2.6121 0.2505-5.2261 0.80085-7.7797 0.12185-0.56537 0.25932-1.1331 0.51309-1.6528 0.25378-0.5197 0.63491-0.99348 1.1458-1.2645 0.39602-0.21011 0.84624-0.28837 1.2744-0.42115 0.21409-0.0664 0.42508-0.14748 0.61679-0.26364 0.1917-0.11617 0.36424-0.26899 0.48271-0.45928 0.0583-0.0936 0.10336-0.19658 0.12185-0.30528 0.0185-0.10871 9e-3 -0.22348-0.036-0.32396-0.0404-0.0894-0.10855-0.16522-0.19007-0.21987-0.0815-0.0546-0.17602-0.0886-0.27289-0.10429-0.19375-0.0314-0.39245 9e-3 -0.57861 0.0716-0.18616 0.0622-0.36477 0.14581-0.55213 0.20428-0.18737 0.0585-0.3885 0.0912-0.58003 0.0483-0.13327-0.0299-0.25723-0.0958-0.36241-0.1829s-0.19204-0.19507-0.26255-0.31204c-0.14103-0.23394-0.21633-0.50057-0.29029-0.76353-0.8145-2.896-1.6541-5.7949-2.116-8.7676-0.46188-2.9727-0.53737-6.0417 0.17105-8.9655 0.31321-1.2927 0.78222-2.5573 1.4949-3.6803 0.71269-1.123 1.6781-2.102 2.8525-2.7265 1.5744-0.8371 3.406-0.99349 5.1483-1.3729 0.42287-0.0921 0.84671-0.19951 1.2336-0.39351s0.73797-0.48232 0.94016-0.86496c0.22124-0.41868 0.24773-0.91763 0.1725-1.3852-0.0752-0.46753-0.24527-0.91352-0.40132-1.3606-1.4425-4.1327-1.7427-8.5622-2.0593-12.928-0.0765-1.0543-0.15445-2.1165-0.0258-3.1657 0.12866-1.0492 0.47954-2.0973 1.1699-2.8979 0.8014-0.92932 1.9711-1.4388 3.089-1.9449 0.90695-0.41059 1.812-0.8401 2.7734-1.0986 0.9614-0.25854 1.9955-0.33842 2.9469-0.04543 0.68388 0.21059 1.3056 0.61052 1.7965 1.1312s0.85146 1.16 1.0637 1.8434c0.43599 1.4037 0.22089 2.9954-0.57203 4.2331-0.71124 2.7202-1.0758 5.5309-1.0821 8.3426-8e-3 3.5174 0.54114 7.0095 0.80898 10.517 0.25486 3.3373 0.25486 6.694 0 10.031 1.0054-3.4573 2.0301-6.909 3.0741-10.355 0.57437-1.8958 1.1563-3.7972 1.4674-5.7535 0.31108-1.9563 0.34399-3.9836-0.17304-5.8958-0.1879-0.69496-0.4469-1.37-0.61185-2.0708-0.16494-0.70076-0.23274-1.4436-0.0353-2.1359 0.15618-0.54772 0.47412-1.042 0.87462-1.4469 0.4005-0.40496 0.88184-0.72379 1.3905-0.97999 1.3869-0.69853 3.0043-0.93509 4.5303-0.64718 1.3547 0.25561 2.6449 0.93415 3.5388 1.9838 0.89384 1.0496 1.3622 2.4781 1.1533 3.8409-0.18775 1.2245-0.87921 2.3015-1.4562 3.3977-2.5022 4.7543-2.9863 10.336-2.5887 15.694 0.40088 5.403 1.645 10.773 1.2944 16.18-0.24629 3.7978-1.2998 7.5638-3.2359 10.84-1.3103 2.2174-3.0173 4.1997-5.0157 5.8246-0.0347 3.515 0.18172 7.0325 0.64718 10.517 0.71623 5.3613 2.0183 10.626 3.3977 15.856 1.9064 7.228 3.9707 14.441 5.0157 21.842 2.0788 14.725-0.15741 30.401-8.2516 42.876-1.4046 2.1648-2.9747 4.2222-4.6921 6.1482z" fill="#00e200" stroke="#000" stroke-linejoin="round" stroke-width="3"/>
<path transform="matrix(.59121 0 0 .59102 678.88 -17.142)" d="m-213.73 223.28c3.4801-0.0296 6.9635 0.35138 10.355 1.1326 3.1478 0.72508 6.342 1.8728 8.5752 4.2067 2.3328 2.438 3.3235 5.8716 3.7213 9.2224 0.33768 2.8445 0.3064 5.7272 0 8.5752-0.33099 3.0766-0.98283 6.1185-1.9415 9.0606 2.6249-2.1585 5.0638-4.5432 7.2808-7.119 3.1004-3.6022 5.7669-7.5758 9.0606-11.002 2.1918-2.2801 4.6646-4.3128 7.4426-5.8246 2.7928-1.5199 5.8907-2.5013 9.0606-2.7505 1.4596-0.11477 2.9497-0.0724 4.3548 0.33916 1.4051 0.41153 2.7259 1.2173 3.5732 2.4114 0.67912 0.95705 1.0264 2.1165 1.1802 3.2799 0.1538 1.1634 0.12466 2.342 0.11418 3.5155-0.0128 1.433-7.3e-4 2.8908-0.41082 4.2639-0.20505 0.68654-0.51697 1.3463-0.96272 1.9073-0.44576 0.56097-1.0294 1.0205-1.7006 1.2714-0.71686 0.268-1.5043 0.29082-2.2655 0.21221-0.76128-0.0786-1.5088-0.25464-2.2648-0.374-3.0435-0.48053-6.2044-0.0234-9.0606 1.1326-4.742 1.9193-8.5358 5.6486-11.649 9.7077-2.6479 3.4522-4.9129 7.2183-7.928 10.355-2.8561 2.9712-6.3288 5.3087-10.031 7.119-1.3875 0.67841-2.8231 1.2897-4.3382 1.5896-1.5151 0.29991-3.1247 0.27367-4.5606-0.29522-1.3273-0.52587-2.4511-1.495-3.2999-2.643-0.84883-1.148-1.4362-2.4711-1.8776-3.8289-1.2344-3.7975-1.3482-7.9517-0.32359-11.811" fill="#00e200" stroke="#000" stroke-linejoin="round" stroke-width="3"/>
<path transform="matrix(.59121 0 0 .59102 679.1 -17.398)" d="m-245.28 259.36c2.7313 0.62099 5.2575 2.1137 7.119 4.2067 2.0431 2.2971 3.2735 5.3393 3.2359 8.4134-0.0427 3.4935-1.6571 6.7773-3.5595 9.7077-3.0107 4.6377-6.9598 8.8312-11.973 11.164-3.3656 1.5661-7.1404 2.2422-10.84 1.9416 1.823 0.24253 3.6781 0.24253 5.5011 0 4.4087-0.58653 8.4909-2.5543 12.62-4.2067 2.5706-1.0287 5.2012-1.9467 7.928-2.4269 1.8299-0.32228 3.7645-0.47 5.3392-1.4562 0.8324-0.52127 1.5182-1.255 2.0669-2.0696 0.54867-0.81461 0.96566-1.7108 1.3308-2.6225 0.37118-0.92669 0.69256-1.8766 1.1542-2.7617s1.0796-1.7151 1.9199-2.254c0.87031-0.55815 1.9155-0.76718 2.9403-0.90407 1.0248-0.1369 2.0686-0.21513 3.0461-0.55209 0.58771-0.20261 1.1412-0.49565 1.7299-0.69546 0.58867-0.19982 1.2375-0.30276 1.8296-0.11352 0.60205 0.1924 1.0841 0.67486 1.3698 1.2386 0.2858 0.56375 0.3915 1.2037 0.4099 1.8355 0.0441 1.5134-0.39608 3.0166-1.111 4.3512-0.71491 1.3346-1.6969 2.5108-2.7721 3.5767-2.8797 2.8551-6.4231 4.9449-10.031 6.7954-10.757 5.5166-22.555 9.1851-34.624 9.8695-3.5018 0.19857-7.0137 0.14725-10.517 0.32359-2.2316 0.11234-4.5439 0.30554-6.6336-0.48538-1.3121-0.49661-2.4799-1.379-3.2924-2.5228s-1.2624-2.5463-1.2379-3.949c0.0211-1.2094 0.39092-2.4054 1.0211-3.4379 0.63016-1.0325 1.5161-1.902 2.5384-2.5485 1.2329-0.77972 2.6473-1.2333 4.0777-1.5194 1.4304-0.28611 2.8871-0.41187 4.3357-0.58397 3.5537-0.42221 7.074-1.1262 10.517-2.1033-4.3929 0.75282-8.9411 0.58642-13.267-0.48539-1.563-0.38725-3.107-0.89546-4.5172-1.6729-1.4102-0.77742-2.6871-1.836-3.5726-3.181-0.96384-1.464-1.43-3.2158-1.5471-4.9647-0.11708-1.7489 0.10014-3.504 0.41456-5.2284 0.35924-1.9702 0.84598-3.9172 1.4562-5.8246" fill="#00e200" stroke="#000" stroke-linejoin="round" stroke-width="3"/>
<path transform="matrix(-.59121 0 0 .59102 322.09 -11.717)" d="m-181.88 114.1c2.0778-5.5667 2.9722-11.572 2.6068-17.503-0.19813-3.216-0.76083-6.3998-1.4562-9.5459-0.89696-4.0585-2.024-8.1472-1.7798-12.296 0.15572-2.645 0.87772-5.2553 2.1033-7.6044-3.2177 1.5003-5.6383 4.6036-6.31 8.0898-0.50131 2.6018-0.0746 5.2794 0 7.928 0.0935 3.3195-0.37124 6.6372-1.1326 9.8695-1.5392 6.535-4.304 12.779-8.1079 18.311" fill="#f40000" stroke="#000" stroke-width="3"/>
<path transform="matrix(-.59121 0 0 .59102 323.34 -9.6457)" d="m-175.87 211.47c-0.15056-4.5567 0.80088-9.146 2.7505-13.267 1.3137-2.777 3.1626-5.4239 5.8246-6.9572 2.7142-1.5634 6.1472-1.7976 9.0606-0.64718 2.8034 1.107 5.0836 3.4688 6.0915 6.3093s0.72634 6.1113-0.75227 8.7377c-3.5646 0.48699-6.9792 2.0236-9.7077 4.3685-3.5732 3.0709-5.8503 7.3422-8.0898 11.487-3.2021 5.9271-6.4924 11.807-9.8695 17.636" fill="#00e200" stroke="#000" stroke-linejoin="round" stroke-width="3"/>
<path transform="matrix(-.59121 0 0 .59102 321.68 -14.34)" d="m-209.69 263.08c-2.7155 5.256-7.5114 9.4006-13.105 11.326-6.5261 2.2458-14.046 1.3899-19.901-2.2651l-8.5141-4.7831c-4.738-2.6617-9.7201-5.183-15.127-5.7279-5.407-0.54488-11.026 0.91742-15.353 4.2053l-2.0502-7.1285 6.988-5.6984c4.8655-3.9676 9.4692-8.4438 15.159-11.097 3.7448-1.7466 7.9542-2.4847 12.07-2.1165 1.8422-2.712 4.1326-5.1189 6.75-7.0932 4.1218-3.1091 8.9568-5.0946 13.614-7.322 5.4008-2.5829 10.623-5.5264 16.017-8.1229 3.6994-1.7806 7.5188-3.4216 10.754-5.9492 2.1263-1.6611 4.0069-3.7532 4.9195-6.2924 0.87371-2.431 0.80523-5.0926 0.57203-7.6653-0.50155-5.5331-1.7115-10.978-3.089-16.36-1.4941-5.8383-3.2011-11.711-3.2322-17.737-0.0221-4.2615 0.8096-8.5256 2.4314-12.466-1.2413 1.7857-3.0148 3.1964-5.0339 4.0042-1.3417 0.53679-2.788 0.81043-4.233 0.80085-0.0186-2.6121 0.2505-5.2261 0.80085-7.7797 0.12185-0.56537 0.25932-1.1331 0.51309-1.6528 0.25378-0.5197 0.63491-0.99348 1.1458-1.2645 0.39602-0.21011 0.84624-0.28837 1.2744-0.42115 0.21409-0.0664 0.42508-0.14748 0.61679-0.26364 0.1917-0.11617 0.36424-0.26899 0.48271-0.45928 0.0583-0.0936 0.10336-0.19658 0.12185-0.30528 0.0185-0.10871 9e-3 -0.22348-0.036-0.32396-0.0404-0.0894-0.10855-0.16522-0.19007-0.21987-0.0815-0.0546-0.17602-0.0886-0.27289-0.10429-0.19375-0.0314-0.39245 9e-3 -0.57861 0.0716-0.18616 0.0622-0.36477 0.14581-0.55213 0.20428-0.18737 0.0585-0.3885 0.0912-0.58003 0.0483-0.13327-0.0299-0.25723-0.0958-0.36241-0.1829s-0.19204-0.19507-0.26255-0.31204c-0.14103-0.23394-0.21633-0.50057-0.29029-0.76353-0.8145-2.896-1.6541-5.7949-2.116-8.7676-0.46188-2.9727-0.53737-6.0417 0.17105-8.9655 0.31321-1.2927 0.78222-2.5573 1.4949-3.6803 0.71269-1.123 1.6781-2.102 2.8525-2.7265 1.5744-0.8371 3.406-0.99349 5.1483-1.3729 0.42287-0.0921 0.84671-0.19951 1.2336-0.39351s0.73797-0.48232 0.94016-0.86496c0.22124-0.41868 0.24773-0.91763 0.1725-1.3852-0.0752-0.46753-0.24527-0.91352-0.40132-1.3606-1.4425-4.1327-1.7427-8.5622-2.0593-12.928-0.0765-1.0543-0.15445-2.1165-0.0258-3.1657 0.12866-1.0492 0.47954-2.0973 1.1699-2.8979 0.8014-0.92932 1.9711-1.4388 3.089-1.9449 0.90695-0.41059 1.812-0.8401 2.7734-1.0986 0.9614-0.25854 1.9955-0.33842 2.9469-0.04543 0.68388 0.21059 1.3056 0.61052 1.7965 1.1312s0.85146 1.16 1.0637 1.8434c0.43599 1.4037 0.22089 2.9954-0.57203 4.2331-0.71124 2.7202-1.0758 5.5309-1.0821 8.3426-8e-3 3.5174 0.54114 7.0095 0.80898 10.517 0.25486 3.3373 0.25486 6.694 0 10.031 1.0054-3.4573 2.0301-6.909 3.0741-10.355 0.57437-1.8958 1.1563-3.7972 1.4674-5.7535 0.31108-1.9563 0.34399-3.9836-0.17304-5.8958-0.1879-0.69496-0.4469-1.37-0.61185-2.0708-0.16494-0.70076-0.23274-1.4436-0.0353-2.1359 0.15618-0.54772 0.47412-1.042 0.87462-1.4469 0.4005-0.40496 0.88184-0.72379 1.3905-0.97999 1.3869-0.69853 3.0043-0.93509 4.5303-0.64718 1.3547 0.25561 2.6449 0.93415 3.5388 1.9838 0.89384 1.0496 1.3622 2.4781 1.1533 3.8409-0.18775 1.2245-0.87921 2.3015-1.4562 3.3977-2.5022 4.7543-2.9863 10.336-2.5887 15.694 0.40088 5.403 1.645 10.773 1.2944 16.18-0.24629 3.7978-1.2998 7.5638-3.2359 10.84-1.3103 2.2174-3.0173 4.1997-5.0157 5.8246-0.0347 3.515 0.18172 7.0325 0.64718 10.517 0.71623 5.3613 2.0183 10.626 3.3977 15.856 1.9064 7.228 3.9707 14.441 5.0157 21.842 2.0788 14.725-0.15741 30.401-8.2516 42.876-1.4046 2.1648-2.9747 4.2222-4.6921 6.1482z" fill="#00e200" stroke="#000" stroke-linejoin="round" stroke-width="3"/>
<path d="m441.09 65.027-2.435-3.7189 2.435-3.4484c0.42779 1.2616 1.3823 2.5238 1.2851 3.7865 0.14195 1.454-0.85734 2.2533-1.2851 3.3808z" fill="#fff" stroke="#000" stroke-linejoin="round" stroke-width="1.7733"/>
<ellipse transform="scale(-1,1)" cx="-435.85" cy="44.279" rx="1.6369" ry="1.5886" fill="none" stroke="#000" stroke-linecap="square" stroke-width="1.8986" style="paint-order:normal"/>
<path transform="matrix(-.59121 0 0 .59102 319 -16.348)" d="m-213.73 223.28c3.4801-0.0296 6.9635 0.35138 10.355 1.1326 3.1478 0.72508 6.342 1.8728 8.5752 4.2067 2.3328 2.438 3.3235 5.8716 3.7213 9.2224 0.33768 2.8445 0.3064 5.7272 0 8.5752-0.33099 3.0766-0.98283 6.1185-1.9415 9.0606 2.6249-2.1585 5.0638-4.5432 7.2808-7.119 3.1004-3.6022 5.7669-7.5758 9.0606-11.002 2.1918-2.2801 4.6646-4.3128 7.4426-5.8246 2.7928-1.5199 5.8907-2.5013 9.0606-2.7505 1.4596-0.11477 2.9497-0.0724 4.3548 0.33916 1.4051 0.41153 2.7259 1.2173 3.5732 2.4114 0.67912 0.95705 1.0264 2.1165 1.1802 3.2799 0.1538 1.1634 0.12466 2.342 0.11418 3.5155-0.0128 1.433-7.3e-4 2.8908-0.41082 4.2639-0.20505 0.68654-0.51697 1.3463-0.96272 1.9073-0.44576 0.56097-1.0294 1.0205-1.7006 1.2714-0.71686 0.268-1.5043 0.29082-2.2655 0.21221-0.76128-0.0786-1.5088-0.25464-2.2648-0.374-3.0435-0.48053-6.2044-0.0234-9.0606 1.1326-4.742 1.9193-8.5358 5.6486-11.649 9.7077-2.6479 3.4522-4.9129 7.2183-7.928 10.355-2.8561 2.9712-6.3288 5.3087-10.031 7.119-1.3875 0.67841-2.8231 1.2897-4.3382 1.5896-1.5151 0.29991-3.1247 0.27367-4.5606-0.29522-1.3273-0.52587-2.4511-1.495-3.2999-2.643-0.84883-1.148-1.4362-2.4711-1.8776-3.8289-1.2344-3.7975-1.3482-7.9517-0.32359-11.811" fill="#00e200" stroke="#000" stroke-linejoin="round" stroke-width="3"/>
<path transform="matrix(-.59121 0 0 .59102 321.68 -14.34)" d="m-276.29 253.3c-3.5355-0.4895-7.1594-0.33364-10.64 0.45763-5.8419 1.3281-11.176 4.4135-15.788 8.2373-5.2404 4.3449-9.6917 9.7526-12.356 16.017-2.1693 5.1007-3.1183 10.716-2.7458 16.246l14.644-4.5763c1.7403-4.3667 4.1402-8.4698 7.0932-12.127 5.0057-6.1995 11.615-11.093 19.006-14.07" fill="#00e200" stroke="#000" stroke-linejoin="round" stroke-width="3"/>
<path transform="matrix(-.59121 0 0 .59102 318.77 -16.605)" d="m-245.28 259.36c2.7313 0.62099 5.2575 2.1137 7.119 4.2067 2.0431 2.2971 3.2735 5.3393 3.2359 8.4134-0.0427 3.4935-1.6571 6.7773-3.5595 9.7077-3.0107 4.6377-6.9598 8.8312-11.973 11.164-3.3656 1.5661-7.1404 2.2422-10.84 1.9416 1.823 0.24253 3.6781 0.24253 5.5011 0 4.4087-0.58653 8.4909-2.5543 12.62-4.2067 2.5706-1.0287 5.2012-1.9467 7.928-2.4269 1.8299-0.32228 3.7645-0.47 5.3392-1.4562 0.8324-0.52127 1.5182-1.255 2.0669-2.0696 0.54867-0.81461 0.96566-1.7108 1.3308-2.6225 0.37118-0.92669 0.69256-1.8766 1.1542-2.7617s1.0796-1.7151 1.9199-2.254c0.87031-0.55815 1.9155-0.76718 2.9403-0.90407 1.0248-0.1369 2.0686-0.21513 3.0461-0.55209 0.58771-0.20261 1.1412-0.49565 1.7299-0.69546 0.58867-0.19982 1.2375-0.30276 1.8296-0.11352 0.60205 0.1924 1.0841 0.67486 1.3698 1.2386 0.2858 0.56375 0.3915 1.2037 0.4099 1.8355 0.0441 1.5134-0.39608 3.0166-1.111 4.3512-0.71491 1.3346-1.6969 2.5108-2.7721 3.5767-2.8797 2.8551-6.4231 4.9449-10.031 6.7954-10.757 5.5166-22.555 9.1851-34.624 9.8695-3.5018 0.19857-7.0137 0.14725-10.517 0.32359-2.2316 0.11234-4.5439 0.30554-6.6336-0.48538-1.3121-0.49661-2.4799-1.379-3.2924-2.5228s-1.2624-2.5463-1.2379-3.949c0.0211-1.2094 0.39092-2.4054 1.0211-3.4379 0.63016-1.0325 1.5161-1.902 2.5384-2.5485 1.2329-0.77972 2.6473-1.2333 4.0777-1.5194 1.4304-0.28611 2.8871-0.41187 4.3357-0.58397 3.5537-0.42221 7.074-1.1262 10.517-2.1033-4.3929 0.75282-8.9411 0.58642-13.267-0.48539-1.563-0.38725-3.107-0.89546-4.5172-1.6729-1.4102-0.77742-2.6871-1.836-3.5726-3.181-0.96384-1.464-1.43-3.2158-1.5471-4.9647-0.11708-1.7489 0.10014-3.504 0.41456-5.2284 0.35924-1.9702 0.84598-3.9172 1.4562-5.8246" fill="#00e200" stroke="#000" stroke-linejoin="round" stroke-width="3"/>
<path transform="matrix(.59121 0 0 .59102 951.68 -12.514)" d="m-749.48 284.56c0.32227 1.8942 0.41754 3.827 0.28314 5.7438-0.11899 1.697-0.41782 3.3813-0.88987 5.0157l-10.84-2.9528c0.26282-1.3701 0.31757-2.7799 0.1618-4.1662-0.18147-1.6151-0.64933-3.1975-1.3753-4.6516l12.661 1.0112" fill="#00e200"/>
<path d="m492.32 33.655-0.13529-13.929-2.9085 3.4484-4.5317-4.936 0.0674 6.6264-4.9376-1.2171 6.5609 10.954" fill="#ff0" stroke="#000" stroke-linejoin="round" stroke-width="1.1822"/>
<path transform="matrix(.59121 0 0 .59102 674.91 -12.693)" d="m-287.85 114.75c0.34083 0.16248 0.75231 0.16916 1.0982 0.0178 0.34593-0.15134 0.62029-0.45807 0.73228-0.81866 0.11437-0.36827 0.0619-0.77126-0.065-1.1354-0.12689-0.36416-0.32435-0.6987-0.50701-1.0383-1.4058-2.6138-1.966-5.614-2.0593-8.5805-0.11043-3.5097 0.40378-7.0373 0-10.525-0.59658-5.1536-3.2616-10.017-7.2076-13.386-3.1751-2.7101-7.2686-4.4856-11.441-4.3475-2.3118 0.07654-4.5662 0.72499-6.75 1.4873-2.7072 0.94502-5.4028 2.1047-7.5508 4.0042-2.8095 2.4845-4.4439 6.0128-5.8347 9.4958-0.88004 2.2039-1.7053 4.4913-1.7161 6.8644-0.015 3.311 1.5428 6.3959 2.9746 9.3814 1.8947 3.9508 3.6463 8.0308 4.3475 12.356 0.36125 2.2282 0.43834 4.5024 0.22881 6.75" fill="#ff0" stroke="#000" stroke-linejoin="round" stroke-width="2"/>
<path transform="matrix(.59121 0 0 .59102 674.46 -12.651)" d="m-284.53 134.89c2.0359 2.5589 4.2141 5.0046 6.5212 7.322 1.1254 1.1305 2.2912 2.2382 3.6365 3.0953 1.3453 0.85718 2.8914 1.4575 4.4864 1.4809 1.2716 0.0187 2.5452-0.33604 3.6288-1.0018 1.0836-0.66571 1.9742-1.6393 2.5491-2.7737 0.73447-1.4492 0.9427-3.097 1.2585-4.6907 0.38837-1.9601 0.95346-3.8811 1.3729-5.8348 0.87933-4.0959 1.1114-8.298 1.4873-12.47 0.24549-2.7252 0.55429-5.4509 1.1441-8.1229 0.66412-3.0088 1.6948-5.9614 3.3178-8.5805 0.45157-0.72871 0.94919-1.4324 1.3201-2.2053 0.37089-0.7729 0.61243-1.6341 0.51042-2.4853-0.0867-0.72306-0.42283-1.4084-0.91525-1.9449-0.64327-0.70088-1.5474-1.1461-2.4901-1.2741s-1.9183 0.05451-2.7726 0.47321c-1.4015 0.68695-2.4324 1.9607-3.2034 3.3178-1.7832 3.1389-2.3757 6.81-2.6314 10.411-0.28975 4.0809-0.18839 8.1965-0.80085 12.242-0.5987 3.9542-1.8819 7.8037-3.7754 11.326-1.2019-1.1696-2.3124-2.4332-3.3178-3.7754-1.9412-2.5914-3.4857-5.4668-5.4915-8.0085-2.6877-3.4057-6.3644-6.2418-10.64-6.9788-1.6333-0.28153-3.3196-0.25369-4.9195-0.68644-2.2597-0.61124-4.1979-2.1116-5.7203-3.8898-1.7229-2.0124-2.9846-4.4174-3.661-6.9788l-5.8794 2.4801c0.33583 2.6269 0.39017 5.2896 0.1618 7.928-0.0817 0.94449-0.20043 1.89-0.45518 2.8032-0.25474 0.91315-0.65028 1.7968-1.2437 2.5361-0.64313 0.80129-1.4981 1.4092-2.3979 1.9051s-1.852 0.88886-2.7796 1.3308c-1.7948 0.85513-3.5267 1.9175-4.8539 3.3977-1.4914 1.6633-2.3923 3.758-3.5595 5.6628-1.4049 2.2927-3.2038 4.3193-5.0966 6.2291-0.76526 0.77214-1.5475 1.5274-2.346 2.2651-0.96543-0.59319-1.8031-1.3932-2.4399-2.3304-0.79924-1.1762-1.271-2.5393-1.7161-3.8898-1.6653-5.053-3.0926-10.244-3.3178-15.559-0.042-0.99093-0.042-1.9836 0-2.9746 0.45783-0.49557 0.91546-0.99134 1.3729-1.4873 1.327-1.4388 2.6625-2.8928 3.661-4.5763 0.44976-0.75829 0.83074-1.5665 1.0239-2.4267 0.19321-0.86021 0.19089-1.778-0.10869-2.6072-0.1978-0.54748-0.52501-1.0506-0.96062-1.4368-0.4356-0.38615-0.98038-0.65248-1.5563-0.73698-0.51739-0.0759-1.0515-5e-3 -1.5435 0.17179-0.49208 0.17698-0.94321 0.45798-1.3418 0.7965-0.79716 0.67703-1.3773 1.5697-1.9198 2.4639-0.9842 1.6223-1.8976 3.3139-3.2034 4.6907-0.67426 0.71092-1.4466 1.3288-2.2881 1.8305 0.10545 3.1381 0.37287 6.2708 0.80085 9.3814 0.9201 6.6874 2.5777 13.248 4.233 19.792 0.69809 2.7598 1.4522 5.6295 3.3178 7.7797 1.2751 1.4696 3.0907 2.5325 5.0339 2.6314 1.5866 0.0807 3.1383-0.46896 4.5763-1.1441 1.6237-0.7623 3.1625-1.6921 4.6907-2.6314 1.7333-1.0654 3.4596-2.1466 5.2627-3.089 2.5092-1.3114 5.1612-2.3491 7.8941-3.089" fill="#ff0" stroke="#000" stroke-linejoin="round" stroke-miterlimit="4.35" stroke-width="2"/>
<path transform="matrix(.59121 0 0 .59102 674.46 -12.651)" d="m-324 217.83c-1.9694 1.839-4.4534 3.121-7.0932 3.661-2.5892 0.52967-5.3438 0.33874-7.7797-0.68645-2.2901-0.96386-4.2654-2.6593-5.5671-4.7758s-1.9236-4.6436-1.7549-7.1225c0.13947-2.05 0.80612-4.0447 1.7887-5.8493s2.2758-3.4265 3.7028-4.9049c2.8682-2.9714 6.3045-5.3924 10.068-7.0932" fill="#ff0" stroke="#000" stroke-miterlimit="4.35" stroke-width="2"/>
<path transform="matrix(.59121 0 0 .59102 674.46 -12.651)" d="m-299.29 190.14c6.7186 2.8059 13.431 5.6279 20.136 8.4661 3.6013 1.5244 7.2416 3.0656 11.097 3.7182 0.83482 0.14129 1.6849 0.24037 2.5275 0.15728 0.8426-0.0831 1.6836-0.35973 2.3348-0.90092 0.54098-0.44962 0.93281-1.071 1.1268-1.7471 0.19404-0.67615 0.19248-1.4042 0.0172-2.0855-0.35193-1.368-1.3485-2.4574-2.1737-3.6038-0.77235-1.0729-1.4132-2.2338-2.1305-3.3443-0.71726-1.1105-1.524-2.1843-2.5602-3.0053-0.84288-0.66777-1.8369-1.1691-2.517-2.0021-0.56116-0.68734-0.86532-1.5566-0.99427-2.4345s-0.0925-1.7712-0.0354-2.6566c0.063-0.97655 0.15186-1.9582 0.41586-2.9006s0.71388-1.8507 1.4146-2.5338c1.0087-0.98317 2.4171-1.4054 3.7182-1.9449 2.3344-0.96797 4.4675-2.4026 6.8644-3.2034 0.37233-0.1244 0.75155-0.23371 1.1051-0.40435 0.35353-0.17064 0.68508-0.40932 0.89705-0.73972 0.26128-0.40726 0.31721-0.92182 0.23623-1.3989-0.081-0.47704-0.28839-0.9233-0.52225-1.3469-0.65258-1.182-1.5227-2.2312-2.4597-3.2034-1.7394-1.8046-3.7281-3.3686-5.892-4.6335 2.7742 0.40449 5.4855 1.2372 8.0085 2.4597 0.98232 0.47598 1.9423 1.0148 2.7812 1.7132 0.83886 0.69843 1.5559 1.5657 1.9667 2.577 0.62654 1.5425 0.49819 3.2869 0.17161 4.9195-0.18567 0.92817-0.43404 1.85-0.84066 2.7047-0.40663 0.85476-0.97866 1.6436-1.7335 2.2148-0.67055 0.50736-1.4622 0.82827-2.2583 1.0991s-1.6094 0.49838-2.3752 0.84583c-0.59734 0.27105-1.1646 0.61587-1.6525 1.0543-0.4879 0.43844-0.89532 0.97273-1.1505 1.577-0.19635 0.46506-0.30126 0.97342-0.2644 1.4769 0.0368 0.50347 0.22049 1.0012 0.55042 1.3833 0.43853 0.50784 1.086 0.77256 1.6935 1.0575 2.3149 1.0857 4.3727 2.7089 5.9864 4.6921 1.676 2.0596 2.8755 4.5155 3.3977 7.119 0.63796 3.1809 0.25025 6.5402-0.97077 9.5459-1.0423 2.5658-2.7215 4.9204-5.0157 6.4718-2.5747 1.7411-5.8027 2.3778-8.8988 2.1033-3.7187-0.3297-7.1984-1.8845-10.679-3.2359-11.282-4.3811-23.325-6.796-35.424-7.1033" fill="#ff0" stroke="#000" stroke-linejoin="round" stroke-miterlimit="4.35" stroke-width="2"/>
<path transform="matrix(.59121 0 0 .59102 674.46 -12.651)" d="m-306.02 212.71c3.1599-0.57246 6.3936-0.73565 9.5951-0.4842 1.8556 0.14574 3.7137 0.43366 5.4629 1.0698s3.3925 1.6366 4.6049 3.0489c1.0688 1.2451 1.778 2.789 2.064 4.4048 0.28606 1.6158 0.15248 3.2994-0.34792 4.8622-0.69521 2.1711-2.1379 4.1341-4.1186 5.2627-2.2646 1.2903-5.1209 1.4002-7.5508 0.45763-1.727-0.66991-3.2378-1.8321-4.4644-3.2203-1.2266-1.3882-2.1802-2.9992-2.9721-4.6738-1.1364-2.4033-1.9606-5.0069-1.9449-7.6652 0.0197-3.3518 1.3651-6.5556 2.9746-9.4958 1.3631-2.49 2.9293-4.863 4.3475-7.322 2.976-5.1601 5.2848-10.671 7.6652-16.131 1.7006-3.9009 3.4558-7.8288 4.233-12.013 0.3372-1.8152 0.48279-3.7095 0-5.4915-0.35331-1.3041-1.0284-2.4954-1.7287-3.6508s-1.4368-2.2999-1.9323-3.5568c-0.75654-1.919-0.91941-4.034-0.73115-6.0882 0.18825-2.0542 0.71585-4.0616 1.3032-6.0389 0.71096-2.3936 1.5126-4.7603 2.4025-7.0932-2.7313-3.5498-7.2527-5.6451-11.727-5.4342-2.4253 0.11429-4.8172 0.87481-6.8631 2.1822-2.0459 1.3074-3.741 3.1585-4.8636 5.3114-0.70136 0.16786-1.3562 0.52592-1.8761 1.0258-0.51984 0.49985-0.90329 1.1402-1.0985 1.8344-0.28029 0.99674-0.172 2.0551-0.22882 3.089-0.082 1.4927-0.51144 2.9452-1.0297 4.3475-1.3586 3.6762-3.3405 7.0985-5.6059 10.297-1.9147 2.7031-4.034 5.2545-6.178 7.7797-1.546 1.821-3.1267 3.6616-4.1186 5.8348-0.85513 1.8735-1.2389 3.922-1.6017 5.9492-0.59873 3.3453-1.1606 6.6981-1.6017 10.068-0.96756 7.3909-1.3362 15.021 0.68644 22.195 1.5465 5.4853 4.4301 10.489 7.4364 15.331 3.1057 5.0017 6.4915 10.026 11.326 13.386 3.9619 2.7531 8.7097 4.2315 13.5 4.8051 5.2246 0.62559 10.615 0.1996 15.559-1.6017 2.9623-1.0793 5.7938-2.6825 7.8941-5.0339 2.0259-2.2681 3.2798-5.1206 4.233-8.0085 0.94251-2.8555 1.6252-5.8093 1.8305-8.8093 0.30379-4.4392-0.49454-9.045-2.8602-12.814-2.3459-3.7371-6.1016-6.4443-10.182-8.1229-4.8184-1.9821-10.181-2.6224-15.331-1.8305" fill="#ff0" stroke="#000" stroke-miterlimit="4.35" stroke-width="2"/>
<path transform="matrix(.59121 0 0 .59102 674.27 -11.718)" d="m-290.14 123.9c2.1813 1.4431 4.1532 3.2023 5.8347 5.2055 0.90921 1.0831 1.7539 2.2803 2.0593 3.661 0.29308 1.3248 0.0551 2.7438-0.57203 3.947-0.87833 1.6852-2.5116 2.9416-4.3475 3.4322-1.3769 0.36794-2.8446 0.32163-4.233 0-2.1877-0.50677-4.1616-1.6664-6.0636-2.8602-0.92285-0.57923-1.8382-1.1704-2.7458-1.7733v0c-0.88541 1.6473-2.0512 3.1435-3.4322 4.4047-1.9582 1.7883-4.4032 3.1143-7.036 3.4322-1.4368 0.1735-2.9171 0.0425-4.2798-0.4447-1.3628-0.48715-2.6036-1.3364-3.4998-2.4727-0.66395-0.84177-1.1357-1.8377-1.3425-2.8897-0.20677-1.052-0.1458-2.1585 0.19841-3.1739 0.51376-1.5155 1.6182-2.757 2.803-3.8326 1.0699-0.97137 2.2308-1.8485 3.2034-2.9174 0.76079-0.83612 1.3989-1.7836 1.8877-2.803" fill="#ff0" stroke="#000" stroke-linecap="round" stroke-linejoin="round" stroke-width="2"/>
<path transform="matrix(.59121 0 0 .59102 675.32 -12.043)" d="m-311.53 83.517c-1.8896 0.34777-3.6594 1.2889-5.0339 2.6314-1.1634 1.1362-2.0491 2.5612-2.517 4.1186-0.50903 1.6946-0.5197 3.5021-0.34322 5.2627 0.32089 3.2013 1.2722 6.3828 3.089 9.0381 1.0113 1.478 2.2922 2.7871 3.8211 3.7197 1.5289 0.93263 3.3124 1.4774 5.1027 1.4286 1.5562-0.0424 3.1097-0.54311 4.3475-1.4873 1.0778-0.82216 1.8937-1.9562 2.4581-3.1887s0.88678-2.564 1.0886-3.9045c0.49082-3.2608 0.2807-6.601-0.34322-9.839-0.25724-1.335-0.58888-2.6692-1.1943-3.8866-0.60538-1.2174-1.5057-2.32-2.6956-2.9778-1.0103-0.55855-2.1724-0.77128-3.3178-0.91525-1.4816-0.18623-2.9933-0.27029-4.4619 0z" fill="#ff0" stroke="#000" stroke-width="2"/>
<path transform="matrix(-.59121 0 0 -.59102 304.07 99.677)" d="m-316.71 94.37c0.51654-0.66378 1.278-1.1324 2.1034-1.2944 0.94775-0.18601 1.969 0.03926 2.7505 0.60674-0.51654 0.66377-1.278 1.1324-2.1034 1.2944-0.94775 0.18602-1.969-0.03925-2.7505-0.60673z" fill="none" stroke="#000" stroke-width="1px"/>
<path transform="matrix(-.58116 .10849 -.10852 -.58097 322.41 132.12)" d="m-316.71 94.37c0.51654-0.66378 1.278-1.1324 2.1034-1.2944 0.94775-0.18601 1.969 0.03926 2.7505 0.60674-0.51654 0.66377-1.278 1.1324-2.1034 1.2944-0.94775 0.18602-1.969-0.03925-2.7505-0.60673z" fill="none" stroke="#000" stroke-width="1px"/>
<path transform="matrix(.58519 -.084113 .084141 .585 666.09 -37.197)" d="m-317.52 93.116c0.49316-0.60607 1.2431-0.99602 2.0224-1.0517 0.62198-0.04441 1.2389 0.1139 1.8606 0.1618 0.26913 0.02073 0.53985 0.02073 0.80898 0" fill="none" stroke="#000" stroke-linecap="square" stroke-width="1px"/>
<path transform="matrix(-.58201 .10385 .10388 .58182 301.93 21.438)" d="m-317.52 93.116c0.49316-0.60607 1.2431-0.99602 2.0224-1.0517 0.62198-0.04441 1.2389 0.1139 1.8606 0.1618 0.26913 0.02073 0.53985 0.02073 0.80898 0" fill="none" stroke="#000" stroke-linecap="square" stroke-width="1px"/>
<path transform="matrix(.59121 0 0 .59102 675.48 -11.815)" d="m-310.11 99.448 0.55773 0.48623" fill="none" stroke="#000" stroke-linecap="round" stroke-width="1px"/>
<path transform="matrix(-.59121 0 0 .59102 310.42 -11.95)" d="m-310.11 99.448 0.55773 0.48623" fill="none" stroke="#000" stroke-linecap="round" stroke-width="1px"/>
<path transform="matrix(.59121 0 0 .59102 675.27 -11.937)" d="m-310.73 103.27c0.29634 0.15545 0.66255 0.17069 0.97078 0.0404 0.21154-0.0894 0.39093-0.24047 0.59446-0.34687 0.10176-0.0532 0.21061-0.0954 0.32448-0.11022 0.11387-0.0148 0.23338-9.3e-4 0.33497 0.0526 0.11003 0.058 0.19137 0.15693 0.28129 0.24285 0.045 0.043 0.093 0.0834 0.14746 0.11341 0.0544 0.03 0.11582 0.0494 0.17799 0.0483 0.062-1e-3 0.12262-0.0228 0.17508-0.056 0.0524-0.0331 0.0972-0.0773 0.13634-0.12544 0.0783-0.0962 0.13525-0.20846 0.21441-0.30399 0.11494-0.13872 0.27334-0.23719 0.44233-0.29962 0.16899-0.0624 0.34886-0.0905 0.52844-0.10487 0.48927-0.0391 0.99953 0.0182 1.4562-0.16179 0.23593-0.093 0.44714-0.24787 0.60673-0.44494" fill="none" stroke="#000" stroke-width="1px"/>
<path transform="matrix(.59121 0 0 .59102 675.27 -11.937)" d="m-308.71 104.16c0.59058 0.171 1.2296 0.171 1.8202 0 0.58984-0.17078 1.1294-0.51156 1.5371-0.97078" fill="none" stroke="#000" stroke-width="1px"/>
<ellipse cx="489.53" cy="69.691" rx=".96519" ry=".96487" fill-rule="evenodd" style="paint-order:normal"/>
<ellipse cx="504.4" cy="67.319" rx=".96519" ry=".96487" fill-rule="evenodd" style="paint-order:normal"/>
<ellipse cx="494.1" cy="83.732" rx="1.4048" ry="1.4044" fill-rule="evenodd" style="paint-order:normal"/>
<path transform="matrix(.59121 0 0 .59102 951.68 -12.514)" d="m-743.96 257.56c-0.92228 0.41465-1.8205 0.88287-2.6886 1.4015-0.95413 0.57003-1.8719 1.201-2.7458 1.8877-1.1894-0.39817-2.2144-1.2663-2.803-2.3739-0.41402-0.7792-0.61435-1.6676-0.597-2.5497 0.0173-0.88219 0.25027-1.7569 0.6542-2.5414 0.87842-1.706 2.5964-2.9534 4.4905-3.2606 1.0746-0.0985 2.153-0.15575 3.232-0.17161 1.3836-0.0203 2.7683 0.0274 4.1472 0.14301l-2.1165 2.1165c-0.14201 0.49605-0.28502 0.99181-0.42902 1.4873-0.37464 1.289-0.756 2.5762-1.1441 3.8612" fill="#00e200"/>
<path d="m556.79 64.234 2.435-3.7189-2.435-3.4484c-0.42781 1.2616-1.3823 2.5237-1.2852 3.7865-0.14197 1.454 0.85734 2.2533 1.2852 3.3808z" fill="#fff" stroke="#000" stroke-linejoin="round" stroke-width="1.7733"/>
<ellipse transform="scale(-1,1)" cx="-561.86" cy="43.821" rx="1.6369" ry="1.5886" fill="none" stroke="#000" stroke-linecap="square" stroke-width="1.8986" style="paint-order:normal"/>
</g>
</svg>
