<?xml version="1.0" encoding="UTF-8" standalone="no"?>
<svg
   xmlns:dc="http://purl.org/dc/elements/1.1/"
   xmlns:cc="http://creativecommons.org/ns#"
   xmlns:rdf="http://www.w3.org/1999/02/22-rdf-syntax-ns#"
   xmlns:svg="http://www.w3.org/2000/svg"
   xmlns="http://www.w3.org/2000/svg"
   xmlns:xlink="http://www.w3.org/1999/xlink"
   xmlns:sodipodi="http://sodipodi.sourceforge.net/DTD/sodipodi-0.dtd"
   xmlns:inkscape="http://www.inkscape.org/namespaces/inkscape"
   version="1.1"
   preserveAspectRatio="xMidYMid meet"
   zoomAndPan="magnify"
   id="Ensign_of_the_Royal_Australian_Air_Force"
   viewBox="-15 -7.5 30 15"
   width="1200"
   height="600"
   inkscape:version="0.91 r13725"
   sodipodi:docname="Drawing.svg">
  <metadata
     id="metadata36">
    <rdf:RDF>
      <cc:Work
         rdf:about="">
        <dc:format>image/svg+xml</dc:format>
        <dc:type
           rdf:resource="http://purl.org/dc/dcmitype/StillImage" />
        <dc:title></dc:title>
      </cc:Work>
    </rdf:RDF>
  </metadata>
  <sodipodi:namedview
     pagecolor="#ffffff"
     bordercolor="#666666"
     borderopacity="1"
     objecttolerance="10"
     gridtolerance="10"
     guidetolerance="10"
     inkscape:pageopacity="0"
     inkscape:pageshadow="2"
     inkscape:window-width="1920"
     inkscape:window-height="1057"
     id="namedview34"
     showgrid="false"
     fit-margin-top="0"
     fit-margin-left="0"
     fit-margin-right="0"
     fit-margin-bottom="0"
     inkscape:zoom="0.67882251"
     inkscape:cx="699.95969"
     inkscape:cy="153.26626"
     inkscape:window-x="-8"
     inkscape:window-y="-8"
     inkscape:window-maximized="1"
     inkscape:current-layer="Ensign_of_the_Royal_Australian_Air_Force" />
  <defs
     id="defs3">
    <clipPath
       id="border">
      <rect
         x="-15"
         y="-7.5"
         width="30"
         height="15"
         id="rect6" />
    </clipPath>
  </defs>
  <rect
     x="-15"
     y="-7.5"
     width="30"
     height="15"
     id="rect8"
     style="fill:#6ba4b8;stroke:none" />
  <g
     id="canton"
     transform="matrix(0.5,0,0,0.5,-7.4999986,-3.7500005)">
    <g
       clip-path="url(#border)"
       id="g11">
      <circle
         r="20"
         id="circle13"
         cx="0"
         cy="0"
         style="fill:#012169;fill-opacity:1" />
      <path
         d="m -20,-10 40,20 m -40,0 40,-20"
         id="diags_white"
         inkscape:connector-curvature="0"
         style="stroke:#ffffff;stroke-width:3" />
      <path
         d="m -20,-10 40,20 m -40,0 40,-20"
         id="diags_red"
         inkscape:connector-curvature="0"
         style="stroke:#e4002b;stroke-width:2;stroke-opacity:1" />
      <path
         d="M 0,0 20,10 17,10 -3,0 m 3,0 20,-10 3,0 L 3,0 M 0,0 -20,10 -23,10 -3,0 m 3,0 -20,-10 3,0 20,10"
         id="eraser_white"
         inkscape:connector-curvature="0"
         style="fill:#ffffff;stroke:none" />
      <!--I think the above two lines give the simplest way to make the diagonals-->
      <path
         d="M -20,0 20,0 M 0,-10 0,10"
         id="cross_white"
         inkscape:connector-curvature="0"
         style="stroke:#ffffff;stroke-width:5" />
      <path
         d="M -20,0 20,0 M 0,-10 0,10"
         id="cross_red"
         inkscape:connector-curvature="0"
         style="stroke:#e4002b;stroke-width:3;stroke-opacity:1" />
    </g>
  </g>
  <g
     id="stars"
     transform="translate(1.373291e-6,-4.3405762e-7)">
    <!--All the stars are grouped as one for convenience...-->
    <path
       d="m 5.3098676,3.8949626 0.044639,0.6733262 0.6701883,-0.0788 L 5.5260972,4.9442005 6.0055619,5.4190427 5.3391836,5.3127331 5.2668776,5.9836526 4.934515,5.3963744 4.3648867,5.7581543 4.6168148,5.1321406 3.9788061,4.9123537 4.6253169,4.7190056 4.3993613,4.0831556 4.953622,4.4680678 5.3098676,3.8949626 Z"
       id="StarAlphaCrucis"
       inkscape:connector-curvature="0"
       style="fill:#ffffff" />
    <path
       d="M 7.7953431,0.32806063 7.8446511,0.76604831 8.2672643,0.89119636 7.8659496,1.0734354 7.8775222,1.5140381 7.580189,1.18868 7.1647264,1.3358395 7.3822805,0.95251788 7.1139378,0.60286524 7.5457265,0.69131753 7.7953431,0.32806063 Z"
       id="StarEpsilonCrucis"
       inkscape:connector-curvature="0"
       style="fill:#ffffff" />
    <use
       transform="translate(-2.265649,-6.875003)"
       id="StarBetaCrucis"
       xlink:href="#StarAlphaCrucis"
       x="0"
       y="0"
       width="100%"
       height="100%" />
    <use
       transform="translate(5.067702,-6.104152)"
       id="StarDeltaCrucis"
       xlink:href="#StarAlphaCrucis"
       x="0"
       y="0"
       width="100%"
       height="100%" />
    <use
       transform="translate(2.500004,-10)"
       id="StarGammaCrucis"
       xlink:href="#StarAlphaCrucis"
       x="0"
       y="0"
       width="100%"
       height="100%" />
    <use
       transform="matrix(2.037313,-0.509319,0.50932,2.037309,-20.25164,-3.796425)"
       id="StarCommonwealthStar"
       xlink:href="#StarAlphaCrucis"
       x="0"
       y="0"
       width="100%"
       height="100%" />
  </g>
  <circle
     cx="11.685001"
     cy="4.1849995"
     r="2.5"
     id="circle4"
     style="fill:#012169;fill-opacity:1;stroke:none" />
  <circle
     cx="11.685001"
     cy="4.1849995"
     r="1.49575"
     id="circle6"
     style="fill:#ffffff;stroke:none;stroke-width:38" />
  <circle
     style="fill:#e4002b;fill-opacity:1;stroke:none;stroke-width:38"
     id="circle4183"
     r="0.49849999"
     cy="4.1849995"
     cx="11.685001" />
</svg>
