<?xml version="1.0" encoding="UTF-8" standalone="no"?>
<!-- Created with Inkscape (http://www.inkscape.org/) -->

<svg
   xmlns:dc="http://purl.org/dc/elements/1.1/"
   xmlns:cc="http://creativecommons.org/ns#"
   xmlns:rdf="http://www.w3.org/1999/02/22-rdf-syntax-ns#"
   xmlns:svg="http://www.w3.org/2000/svg"
   xmlns="http://www.w3.org/2000/svg"
   xmlns:sodipodi="http://sodipodi.sourceforge.net/DTD/sodipodi-0.dtd"
   xmlns:inkscape="http://www.inkscape.org/namespaces/inkscape"
   version="1.1"
   width="1320"
   height="720"
   id="svg2"
   inkscape:version="0.48.4 r9939"
   sodipodi:docname="AJAX1.svg">
  <metadata
     id="metadata44">
    <rdf:RDF>
      <cc:Work
         rdf:about="">
        <dc:format>image/svg+xml</dc:format>
        <dc:type
           rdf:resource="http://purl.org/dc/dcmitype/StillImage" />
      </cc:Work>
    </rdf:RDF>
  </metadata>
  <sodipodi:namedview
     pagecolor="#ffffff"
     bordercolor="#666666"
     borderopacity="1"
     objecttolerance="10"
     gridtolerance="10"
     guidetolerance="10"
     inkscape:pageopacity="0"
     inkscape:pageshadow="2"
     inkscape:window-width="1280"
     inkscape:window-height="1004"
     id="namedview42"
     showgrid="false"
     inkscape:zoom="0.44713395"
     inkscape:cx="549.57423"
     inkscape:cy="110.92468"
     inkscape:window-x="-8"
     inkscape:window-y="-8"
     inkscape:window-maximized="1"
     inkscape:current-layer="g1339"
     showguides="true"
     inkscape:guide-bbox="true"
     fit-margin-top="0"
     fit-margin-left="0"
     fit-margin-right="0"
     fit-margin-bottom="0" />
  <defs
     id="defs3" />
  <g
     transform="matrix(5,0,0,5,46.7432,70.093975)"
     id="g1339"
     style="stroke:none">
    <path
       d="m 254.65136,-14.018795 0,144.000005 -264,0 0,-144.000005 z"
       id="path3212"
       style="fill:#ce1126;fill-opacity:1;fill-rule:evenodd;stroke:none"
       inkscape:connector-curvature="0"
       sodipodi:nodetypes="ccccc" />
    <path
       d="m 242.65136,-2.018795 0,120.000005 -240,0 0,-120.000005 z"
       id="path3236"
       style="fill:#ffffff;fill-opacity:1;fill-rule:evenodd;stroke:none"
       inkscape:connector-curvature="0"
       sodipodi:nodetypes="ccccc" />
    <path
       style="fill:#002868;fill-opacity:1;fill-rule:evenodd;stroke-width:1pt;stroke:none"
       d="m 62.651388,66.44741 0,0 4.36878,13.583623 13.344226,-5.053487 -7.896277,11.884945 12.271099,7.282049 -14.215465,1.23676 1.957707,14.13391 -9.83007,-10.34285 -9.83007,10.34285 L 54.779025,95.3813 40.56356,94.14454 52.834659,86.862491 44.938382,74.977546 58.282607,80.031033 z"
       id="polygon3410"
       inkscape:connector-curvature="0" />
    <path
       style="color:#000000;fill:#002868;fill-opacity:1;fill-rule:nonzero;stroke:none;stroke-width:0.50000000000000000;marker:none;visibility:visible;display:inline;overflow:visible;enable-background:accumulate"
       d="m 145.15136,1.981205 15,0 0,112.000005 -15,0 z"
       id="rect3416"
       inkscape:connector-curvature="0"
       sodipodi:nodetypes="ccccc" />
    <path
       sodipodi:nodetypes="ccccc"
       inkscape:connector-curvature="0"
       id="path3419"
       d="m 175.15136,1.981205 15,0 0,112.000005 -15,0 z"
       style="color:#000000;fill:#002868;fill-opacity:1;fill-rule:nonzero;stroke:none;stroke-width:0.50000000000000000;marker:none;visibility:visible;display:inline;overflow:visible;enable-background:accumulate" />
    <path
       style="color:#000000;fill:#002868;fill-opacity:1;fill-rule:nonzero;stroke:none;stroke-width:0.50000000000000000;marker:none;visibility:visible;display:inline;overflow:visible;enable-background:accumulate"
       d="m 205.15136,1.981205 15,0 0,112.000005 -15,0 z"
       id="path3421"
       inkscape:connector-curvature="0"
       sodipodi:nodetypes="ccccc" />
    <path
       sodipodi:nodetypes="ccccc"
       inkscape:connector-curvature="0"
       id="path3039"
       style="fill:#002868;fill-opacity:1;stroke:none"
       d="m 2.65136,-2.018785 120,0 0,59.999995 -120,0 z" />
    <path
       sodipodi:nodetypes="ccccc"
       inkscape:connector-curvature="0"
       id="path3041"
       style="fill:#002868;fill-opacity:1;stroke:none"
       d="m 2.65136,-2.018785 60,0 0,29.999995 -60,0 z" />
    <path
       style="fill:#ffffff;stroke:none"
       id="path3045"
       d="m 27.65136,-2.018785 10,0 0,10 25,0 0,9.999995 -25,0 0,10 -10,0 0,-10 -25,0 0,-9.999995 25,0 0,-10 z"
       inkscape:connector-curvature="0" />
    <path
       style="fill:#ffffff;stroke:none"
       id="path3047"
       d="m 2.65136,-2.018785 6.7082021,0 53.2917979,26.645895 0,3.3541 -6.708202,0 L 2.65136,1.335315 l 0,-3.3541 z"
       inkscape:connector-curvature="0" />
    <path
       style="fill:#ffffff;stroke:none"
       id="use3049"
       d="m 62.65136,-2.018785 -6.708202,0 -53.291798,26.645895 0,3.3541 6.7082021,0 53.2917979,-26.645895 0,-3.3541 z"
       inkscape:connector-curvature="0" />
    <path
       style="fill:#ce1126;fill-opacity:1;stroke:none"
       id="path3051"
       d="m 29.65136,-2.018785 6.000001,0 0,12 26.999999,0 0,5.999995 -26.999999,0 0,12 -6.000001,0 0,-12 -27,0 0,-5.999995 27,0 0,-12 z"
       inkscape:connector-curvature="0" />
    <path
       style="fill:#ce1126;stroke:none;fill-opacity:1"
       id="path3053"
       d="m 2.65136,-2.018785 20,10 -4.472135,0 -15.527865,-7.76393 0,-2.23607 z m 60,0 -4.472133,0 -20.000002,10 4.472135,0 20,-10 z"
       inkscape:connector-curvature="0" />
    <path
       style="fill:#ce1126;stroke:none;fill-opacity:1"
       id="use3055"
       d="m 62.65136,27.98121 -20,-10 4.472136,0 15.527864,7.76393 0,2.23607 z m -60,0 4.472135,0 20,-10 -4.472135,0 -20,10 z"
       inkscape:connector-curvature="0" />
    <path
       inkscape:connector-curvature="0"
       style="fill:#ffffff;stroke:none"
       d="m 39.687845,37.8154 -3.136774,4.72133 4.874639,2.89276 -5.647024,0.49127 0.777627,5.61476 -3.904953,-4.10872 -3.904952,4.10872 0.777627,-5.61476 -5.647024,-0.49127 4.874639,-2.89276 -3.136773,-4.72133 5.300948,2.00754 1.735535,-5.39613 0,0 1.735536,5.39613 z"
       id="path3015" />
    <path
       inkscape:connector-curvature="0"
       style="fill:#ffffff;stroke:none"
       d="m 96.002081,45.52132 -1.493705,2.24825 2.32126,1.3775 -2.68906,0.23395 0.370303,2.67369 -1.859507,-1.95653 -1.859499,1.95653 0.370298,-2.67369 -2.689059,-0.23395 2.321259,-1.3775 -1.493704,-2.24825 2.524261,0.95596 0.826444,-2.56958 0,0 0.826448,2.56958 z"
       id="Star_Alpha_Crucis" />
    <path
       inkscape:connector-curvature="0"
       style="fill:#ffffff;stroke:none"
       d="m 101.02906,29.9474 -1.320912,1.1159 0.412732,1.67919 -1.469462,-0.91143 -1.46947,0.91143 0.412735,-1.67919 -1.32091,-1.1159 1.724541,-0.12636 0.653104,-1.60109 0,0 0.65309,1.60109 z"
       id="Star_Epsilon_Crucis" />
    <path
       id="path3114"
       d="m 96.002081,5.521295 -1.493705,2.24825 2.32126,1.37751 -2.68906,0.23394 0.370303,2.67369 -1.859507,-1.95653 -1.859499,1.95653 0.370298,-2.67369 -2.689059,-0.23394 2.321259,-1.37751 -1.493704,-2.24825 2.524261,0.95597 0.826444,-2.56959 0,0 0.826448,2.56959 z"
       style="fill:#ffffff;stroke:none"
       inkscape:connector-curvature="0" />
    <path
       id="path3140"
       d="m 81.002085,21.77211 -1.493705,2.24824 2.321259,1.37751 -2.689059,0.23394 0.370303,2.67369 -1.859503,-1.95653 -1.859504,1.95653 0.370299,-2.67369 -2.68906,-0.23394 2.32126,-1.37751 -1.493705,-2.24824 2.524261,0.95596 0.826449,-2.56958 0,0 0.826444,2.56958 z"
       style="fill:#ffffff;stroke:none"
       inkscape:connector-curvature="0" />
    <path
       id="path3156"
       d="m 109.3354,17.77132 -1.4937,2.24825 2.32125,1.3775 -2.68906,0.23395 0.3703,2.67369 -1.8595,-1.95653 -1.85949,1.95653 0.37029,-2.67369 -2.68906,-0.23395 2.32126,-1.3775 -1.4937,-2.24825 2.52426,0.95596 0.82644,-2.56958 0,0 0.82644,2.56958 z"
       style="fill:#ffffff;stroke:none"
       inkscape:connector-curvature="0" />
  </g>
</svg>
