<?xml version="1.0" encoding="UTF-8" standalone="no"?>
<!-- Creator: CorelDRAW -->
<svg id="svg10295" xmlns:rdf="http://www.w3.org/1999/02/22-rdf-syntax-ns#" style="shape-rendering:geometricPrecision;text-rendering:geometricPrecision;image-rendering:optimizeQuality;" xmlns="http://www.w3.org/2000/svg" fill-rule="evenodd" xml:space="preserve" height="300px" width="500px" version="1.1" clip-rule="evenodd" xmlns:cc="http://creativecommons.org/ns#" xmlns:dc="http://purl.org/dc/elements/1.1/" viewBox="0 0 487.929 292.696"><metadata id="metadata10390"><rdf:RDF><cc:Work rdf:about=""><dc:format>image/svg+xml</dc:format><dc:type rdf:resource="http://purl.org/dc/dcmitype/StillImage"/><dc:title/></cc:Work></rdf:RDF></metadata>
 <defs id="defs10297">
  <style id="style10299" type="text/css">
    .str6 {stroke:black;stroke-width:0.0964559}
    .str3 {stroke:black;stroke-width:0.119562}
    .str11 {stroke:black;stroke-width:0.124399}
    .str4 {stroke:black;stroke-width:0.137833}
    .str7 {stroke:black;stroke-width:0.144818}
    .str9 {stroke:black;stroke-width:0.149654}
    .str5 {stroke:black;stroke-width:0.161208}
    .str8 {stroke:black;stroke-width:0.192912}
    .str0 {stroke:#1F1A17;stroke-width:0.204734}
    .str10 {stroke:black;stroke-width:0.26653}
    .str2 {stroke:black;stroke-width:0.289368}
    .str12 {stroke:black;stroke-width:0.304682}
    .str13 {stroke:black;stroke-width:0.429618}
    .str1 {stroke:black;stroke-width:0.629785}
    .str14 {stroke:black;stroke-width:0.951662}
    .fil2 {fill:none}
    .fil9 {fill:black}
    .fil0 {fill:#000099}
    .fil7 {fill:#002B7F}
    .fil8 {fill:#3E8225}
    .fil3 {fill:#9D9D9D}
    .fil6 {fill:#F7D917}
    .fil4 {fill:red}
    .fil5 {fill:#FFCC33}
    .fil1 {fill:white}
  </style>
 </defs>
 <g id="Capa_x0020_1">
  <polygon id="polygon10302" points="0.10156,0,406.85,122.02,487.93,146.35,406.5,170.78,0.10156,292.7" class="fil0"/>
  <polygon id="polygon10304" points="138.32,41.467,187.1,56.099,187.1,121.96,406.62,121.96,406.85,122.02,487.93,146.35,406.62,170.74,187.1,170.74,187.1,236.6,138.32,251.23,138.32,251.23,138.32,170.74,0.10156,170.74,0.10156,121.96,138.32,121.96,138.32,41.467" class="fil1"/>
  <line id="line10306" y2="91.468" class="fil2 str0" x2="0.10237" y1="201.23" x1="0.10237"/>
  <polygon id="path41975" points="35.663,97.593,61.303,92.992,88.011,97.593,75.618,102.74,52.756,103.11" class="fil3 str1"/>
  <path id="path560" class="fil4 str2" nodetypes="cccsssscssscssccscscsscccz" d="m61.498,56.16c-4.4818,1.5578-9.4462-2.1922-17.528,3.9276,0,0-14.088-6.027-15.158,7.9027-0.042989,0.56423,2.23,3.9614,2.5463,3.7182,1.7706-1.3592-0.8407,1.3203-0.8407,1.7072,0,0.39039,0.26008,0.60695,0.3474,0.7789,0.086246,0.17357,0.3028,0.43365,0.34579,1.1696,0.04272,0.73591-1.5968,2.7435-0.90357,3.4794,0.69104,0.73618,0.73403,2.8579,0.73403,3.4633,0,0.6056,0.43338,2.2942,0.73591,2.6417,0.30307,0.34579,0.82216,1.2109,0.82216,1.9468,0,0.73591,0.30253,2.7701,0.17196,3.2878-0.12897,0.51936,0.77917,1.1696,1.6027,1.4291,0.82216,0.25981,11.432,0.44386,26.323,0.18431,14.892-0.25981,19.861,2.0965,26.014-0.14132,0.95086-0.34579,1.1247-1.1247,1.0384-1.5578-0.08759-0.43204,0-1.8163,0.25981-2.1637,0.25954-0.34579,1.9917-3.1159,1.6443-3.6352,0.32671-0.29528,2.7553,1.4025,1.2085-0.11365-0.39657-0.38851,0.2222-4.4794,0.43526-5.3414,0.21521-0.86327,0.54542-2.485,0.94226-2.7859,0.39845-0.30092-0.67573-1.4278-0.59996-1.6312,0.077917-0.205,0.36702-0.84043,0.77057-1.1298,0,0,0.75096-3.5197,0.28802-5.2497-0.45971-1.7316-2.1518-9.519-12.714-7.9594,0,0-14.14-5.4381-18.486-3.9276z"/>
  <path id="path13497" class="fil5 str3" nodetypes="cccssssssccscsssscsccssssssccsccssccccssc" d="m43.418,65.144c-0.69292,0.24718-1.3891,6.1963-0.79126,8.1155,0.41404,1.3289,0.9127,2.2266,1.2007,2.7792-0.59647-0.91942-1.9458-2.6795-3.4716-2.5428-1.9186,0.17196-1.4095,6.3438-1.3136,6.735,0.00053736,0.0013434,0.00053736,0.0051049,0.00080604,0.0064483,0,0.0010747,0.0048362,0.0053736,0.0051049,0.0061796,0-0.00026868,0.0040302-0.00026868,0.0042989-0.00026868,0.068245-0.15476,0.53145-2.7663,2.4289-2.9367,1.2494-0.11177,2.4004,1.2453,2.8335,1.8284,0.023912,0.19399,0.050243,0.38126,0.074693,0.57094-0.20957,0.6056-0.21978,1.9982-0.87536,3.8085-0.7918,2.1876-3.9802,2.6908-4.5176,2.7604,0.13622-0.012091,5.2685-0.47288,6.9542-0.62387,0.006717-0.00080604,0.015852-0.00080604,0.022032-0.0018808,0.0032242,0,0.0056423-0.00080604,0.0085977-0.00080604,0.006717,0,0.015315-0.0016121,0.022032-0.0018808,1.6857-0.15154,6.8186-0.61232,6.9548-0.62441-0.543,0.027405-3.8453,0.10667-5.1527-1.8926-1.082-1.6545-1.3697-3.0205-1.7225-3.5758-0.022032-0.18969-0.041645-0.3775-0.065558-0.57121,0.28158-0.64752,1.0769-2.1793,2.3262-2.2913,1.8974-0.17034,2.9866,2.302,3.0909,2.441,0.00053736,0.00026868,0.0040302-0.00053736,0.0042989-0.00053736,0-0.00080604,0.0034928-0.005911,0.0034928-0.006717,0-0.0010747-0.00080604-0.0051049-0.00080604-0.006717-0.0013434-0.39953-1.0065-6.5268-2.9246-6.3545-1.5261,0.13676-2.417,2.0986-2.7765,3.1038,0.1467-0.59163,0.38556-1.8152,0.45111-2.9275,0.11929-2.0154-2.024-7.8613-2.7386-7.799-0.011553,0.0013434-0.023912-0.00053736-0.034928,0.0032242zm0.4315,10.932c0.062065,0.096187,0.11607,0.17894,0.1596,0.25175,0.00080604,0.0016121,0.15154,0.60426,0.15234,0.60587,0.0010747,0.012897,0.62629,2.0581,0.6279,2.0715-0.047288-0.077111-0.8767-2.8104-0.93984-2.9291zm1.8781-0.16846c-0.032779,0.12762-0.2093,2.9509-0.23644,3.0345-0.0021494-0.013165,0.14428-2.7405,0.1424-2.7534-0.00053736-0.0024181,0.013165,0.61393,0.013165,0.61151,0.024987-0.078723,0.043795-0.7875,0.080872-0.89255z"/>
  <path id="path13500" class="fil6 str3" nodetypes="czcczcc" d="m44.035,79.092s0.51452-0.4323,1.0763-0.48282c0.56154-0.050243,1.1701,0.28104,1.1701,0.28104l0.12547,1.0172s-0.6091-0.33155-1.1704-0.28131c-0.56181,0.050243-1.0763,0.48255-1.0763,0.48255l-0.1252-1.0167z"/>
  <path id="path27451" class="fil5 str3" nodetypes="cccssssssccscsssscsccssssssccsccssccccssc" d="m78.485,65.494c-0.72893,0.097531-2.6465,5.7715-2.4608,7.7734,0.12843,1.3858,0.42935,2.3679,0.5962,2.9681-0.392-1.0231-1.3461-3.0259-2.8668-3.2091-1.9122-0.23053-2.6978,5.912-2.6852,6.3148,0,0.0016121-0.00080604,0.0053736-0.00053736,0.0064483,0,0.0010747,0.0034928,0.0061796,0.0034928,0.0069857,0.00053736,0,0.0042989,0.00080604,0.0042989,0.00053736,0.098874-0.13703,1.0949-2.5949,2.9866-2.3671,1.2451,0.15019,2.089,1.7171,2.3912,2.3775-0.016658,0.19452-0.030092,0.38314-0.045407,0.57363-0.33128,0.54918-0.63059,1.909-1.6481,3.5436-1.2295,1.9751-4.4526,1.8044-4.9931,1.7607,0.13622,0.016658,5.2521,0.63301,6.9322,0.83559,0.006717,0.00080604,0.015315,0.0024181,0.022032,0.0026868,0.0032242,0.00080604,0.005911,0.00053736,0.0085977,0.00080604,0.006717,0.0016121,0.015315,0.0021494,0.022032,0.0026868,1.6803,0.20258,6.7965,0.8192,6.9322,0.83559-0.53655-0.085977-3.783-0.69507-4.6465-2.9224-0.71442-1.8434-0.71173-3.2389-0.94092-3.8558,0.017733-0.18996,0.037346-0.37803,0.054273-0.57282,0.40974-0.57417,1.5065-1.9074,2.7516-1.7572,1.8918,0.22784,2.4431,2.8724,2.5162,3.0302l0.0042989,0.00053736c0.00026868-0.00080604,0.0048362-0.0048362,0.0048362-0.005911,0.00026868-0.0013434,0.00026868-0.0051049,0.00053736-0.0064483,0.081947-0.39174,0.37266-6.5939-1.5395-6.8245-1.5213-0.18324-2.8004,1.5506-3.3614,2.4587,0.26707-0.54784,0.75499-1.6951,1.0503-2.7693,0.53575-1.9466-0.34498-8.1109-1.0572-8.1982-0.011553-0.0010747-0.023644-0.0053736-0.035197-0.0037615zm-1.8504,10.782c0.040571,0.1072,0.076305,0.19909,0.10398,0.27943,0.00026868,0.0016121,0.0223,0.62226,0.022569,0.62441-0.0013434,0.012897,0.18512,2.1435,0.18351,2.1564-0.030092-0.084903-0.27298-2.9308-0.31006-3.0603zm1.8716,0.22542c-0.058035,0.11822-0.81786,2.8432-0.86192,2.9195,0.00080604-0.013434,0.71093-2.6511,0.71173-2.664,0-0.0024181-0.11446,0.60345-0.11419,0.60104,0.040571-0.071737,0.20661-0.76117,0.26438-0.85655z"/>
  <path id="path27453" class="fil6 str3" nodetypes="czcczcc" d="m76.189,79.265s0.59324-0.31597,1.1529-0.24853c0.55966,0.067438,1.086,0.51828,1.086,0.51828l-0.088664,1.021s-0.52634-0.45084-1.0863-0.51855c-0.55966-0.06717-1.1534,0.24853-1.1534,0.24853l0.08947-1.0207z"/>
  <path id="path28377" class="fil5 str4" nodetypes="ccsssssccssssssssc" d="m30.668,75.355l2.7376-3.3373c-5.6124-7.2557-5.8964-11.418-5.2648-13.526,0.63193-2.1078,1.8953-4.3918,5.2648-7.202,3.3692-2.8109,5.6944-1.2488,8.8532-1.2488,3.1589,0,4.0012,0.7026,6.739,1.054,2.7376,0.35116,10.108,0.7026,10.108,0.7026v-1.9323c-3.254-0.60668-7.3704,0-10.108-0.7026-2.7378-0.7026-5.0541-0.87831-8.0024-0.87831-2.9482,0-5.063-0.8595-6.9583,0.36997-1.8953,1.2298-4.2116,3.3381-5.8964,5.0944-1.6844,1.7569-2.5269,5.2702-2.316,7.5536,0.21038,2.2835,1.0527,4.2158,2.316,5.9727,1.2636,1.7564,1.0532,3.1618,1.474,4.3916,0.42129,1.2298,1.0532,3.8647,1.0532,3.6887z"/>
  <path id="path29282" class="fil5 str4" nodetypes="ccsssssccssssssssc" d="m91.396,75.355l-2.7376-3.3373c5.6127-7.2557,5.8964-11.418,5.2645-13.526-0.63166-2.1078-1.8953-4.3918-5.2645-7.202-3.3692-2.8109-5.6947-1.2488-8.8535-1.2488-3.1589,0-4.0009,0.7026-6.7385,1.054-2.7376,0.35116-10.108,0.7026-10.108,0.7026v-1.9323c3.2542-0.60668,7.3707,0,10.108-0.7026,2.7376-0.7026,5.0541-0.87831,8.0021-0.87831,2.9485,0,5.0627-0.8595,6.9583,0.36997,1.8953,1.2298,4.2118,3.3381,5.8962,5.0944,1.6849,1.7569,2.5272,5.2702,2.3168,7.5536-0.21064,2.2835-1.0532,4.2158-2.3168,5.9727-1.2633,1.7564-1.0527,3.1618-1.474,4.3916-0.42129,1.2298-1.053,3.8647-1.053,3.6887z"/>
  <rect id="rect29364" class="fil5 str5" height="20.029" width="9.765" y="48.273" x="56.448"/>
  <path id="path29388" class="fil5 str6" nodetypes="cscsccscsccscsccscscc" d="m57.614,30.615s1.0511,0.85548,1.8576,1.956c0.80684,1.0997,1.3689,2.4439,1.3689,2.4439s-1.3442-0.56208-2.4444-1.3684c-1.1-0.80684-1.9554-1.8582-1.9554-1.8582v7.4311s0.85548-1.0511,1.9554-1.8576c1.1002-0.80684,2.4444-1.3689,2.4444-1.3689s-0.43311,1.1094-0.71281,2.4444c-0.25175,1.201-2.312,3.9735-2.312,3.9735l6.0184,0.40356s-1.0008-3.1761-1.4036-4.3771c-0.43392-1.2929-0.61205-2.4444-0.61205-2.4444s1.3442,0.56208,2.4444,1.3689c1.0997,0.80658,1.9554,1.8576,1.9554,1.8576v-7.4311s-0.85574,1.0513-1.9554,1.8582c-1.1002,0.80631-2.4444,1.3684-2.4444,1.3684s0.56208-1.3442,1.3689-2.4439c0.80631-1.1005,1.8574-1.956,1.8574-1.956h-7.4309z"/>
  <path id="path29366" d="m66.173,43.859c0.00026868,0.0026868,0.00026868,0.0026868,0.00026868,0.0026868,0,2.6677-2.1758,4.8435-4.8432,4.8435s-4.8432-2.1758-4.8432-4.8435v-0.075768,0.0712c0-2.6674,2.1758-4.8432,4.8432-4.8432s4.8432,2.1758,4.8432,4.8432v0.075499l-0.00026868-0.073618z" rx="17.142857" ry="17.142857" cy="23.076468" cx="132.85715" type="arc" class="fil5 str7"/>
  <path id="path31255" class="fil5 str6" nodetypes="ccccccccccc" d="m56.595,44.554h9.6346s0.13971-1.8636-0.55778-2.561h-2.9928l-0.05078-2.7932h-2.837l-0.050512,2.7932s-2.0138,0.10129-2.9412,0.10129c-0.42048,1.1416-0.35573,1.2375-0.35573,1.2375l0.15127,1.2222z"/>
  <path id="path11917" class="fil5 str7" nodetypes="cscsccscsccscsccscscc" d="m55.126,67.632s1.755,1.4283,3.1019,3.265,2.2857,4.0812,2.2857,4.0812-2.2448-0.9385-4.0815-2.2854-3.265-3.1019-3.265-3.1019v12.407s1.4283-1.755,3.265-3.1019,4.0815-2.2857,4.0815-2.2857-0.93877,2.2451-2.2857,4.0815c-1.3469,1.8367-3.1019,3.2653-3.1019,3.2653h12.407s-1.755-1.4286-3.1019-3.2653c-1.3469-1.8364-2.2854-4.0815-2.2854-4.0815s2.2446,0.93877,4.0812,2.2857c1.8367,1.3469,3.265,3.1019,3.265,3.1019v-12.407s-1.4283,1.755-3.265,3.1019-4.0812,2.2854-4.0812,2.2854,0.9385-2.2446,2.2854-4.0812c1.3469-1.8367,3.1019-3.265,3.1019-3.265h-12.407z"/>
  <path id="path27435" class="fil5 str7" nodetypes="ccscsccscsccc" d="m31.497,88.697l6.1098-1.0774s-1.9764-1.1018-3.6221-2.6771c-1.6451-1.5747-2.9592-3.6221-2.9592-3.6221s2.3735,0.5344,4.416,1.542c2.0428,1.0076,3.7545,2.4877,3.7545,2.4877l-2.1545-12.219s-1.1024,1.9764-2.6771,3.6215c-1.575,1.6454-3.6226,2.9598-3.6226,2.9598s0.53467-2.3738,1.5422-4.4166c1.0073-2.0425,2.4877-3.754,2.4877-3.754l-6.1092,1.0771,2.8346,16.078z"/>
  <path id="path27433" class="fil5 str7" nodetypes="cscsccscscccc" d="m87.889,71.542s1.4802,1.7115,2.4877,3.754c1.0073,2.0428,1.542,4.4166,1.542,4.4166s-2.0476-1.3144-3.6226-2.9598c-1.5747-1.6451-2.6768-3.6215-2.6768-3.6215l-2.1545,12.219s1.7115-1.4802,3.7543-2.4877c2.0425-1.0076,4.4163-1.542,4.4163-1.542s-1.3144,2.0473-2.9595,3.6221c-1.6454,1.5753-3.6218,2.6771-3.6218,2.6771l6.1095,1.0774,2.8348-16.078-6.1092-1.0771z"/>
  <path id="path14537" class="fil5 str7" nodetypes="cczcczc" d="m31.56,88.062l0.042183,8.9014s14.874-5.0651,29.749-5.0651c14.874,0,29.748,5.0651,29.748,5.0651v-8.9014s-14.885-5.0651-29.77-5.0651-29.77,5.0651-29.77,5.0651z"/>
  <path id="path23567" d="m30.181,70.617v0.00026868c0,1.2475-1.0172,2.2644-2.2644,2.2644s-2.2647-1.017-2.2647-2.2644v-0.035466,0.03466c0-1.2475,1.0175-2.2647,2.2647-2.2647s2.2644,1.0172,2.2644,2.2647v0.035466-0.034928z" rx="12.121831" ry="12.121831" cy="723.05243" cx="-10.101525" type="arc" class="fil1 str2"/>
  <path id="path29252" d="m27.276,65.452v0.00080604c0,1.2469-1.017,2.2642-2.2644,2.2642-1.2475,0-2.2647-1.0172-2.2647-2.2642v-0.035466,0.034122c0-1.2469,1.0172-2.2642,2.2647-2.2642s2.2644,1.0172,2.2644,2.2642v0.035466-0.034928z" rx="12.121831" ry="12.121831" cy="723.05243" cx="-10.101525" type="arc" class="fil1 str2"/>
  <path id="path29254" d="m26.671,59.398v0.00080604c0,1.2469-1.0167,2.2642-2.2642,2.2642s-2.2647-1.0172-2.2647-2.2642v-0.035466,0.03466c0-1.2475,1.0172-2.2647,2.2647-2.2647s2.2642,1.0172,2.2642,2.2647v0.034928-0.034928z" rx="12.121831" ry="12.121831" cy="723.05243" cx="-10.101525" type="arc" class="fil1 str2"/>
  <path id="path29256" d="m28.487,53.747v0.00080604c0,1.2469-1.017,2.2642-2.2642,2.2642-1.2475,0-2.2647-1.0172-2.2647-2.2642v-0.035466,0.03466c0-1.2475,1.0172-2.2647,2.2647-2.2647,1.2472,0,2.2642,1.0172,2.2642,2.2647v0.034928-0.034928z" rx="12.121831" ry="12.121831" cy="723.05243" cx="-10.101525" type="arc" class="fil1 str2"/>
  <path id="path29258" d="m32.321,49.106v0.00080604c0,1.2469-1.017,2.2642-2.2642,2.2642-1.2475,0-2.2647-1.0172-2.2647-2.2642v-0.035466,0.03466c0-1.2475,1.0172-2.2647,2.2647-2.2647,1.2472,0,2.2642,1.0172,2.2642,2.2647v0.034928-0.034928z" rx="12.121831" ry="12.121831" cy="723.05243" cx="-10.101525" type="arc" class="fil1 str2"/>
  <path id="path29260" d="m37.568,45.877v0.00080604c0,1.2469-1.0175,2.2644-2.2644,2.2644-1.2475,0-2.2647-1.0175-2.2647-2.2644v-0.035466,0.03466c0-1.2475,1.0172-2.2647,2.2647-2.2647,1.2469,0,2.2644,1.0172,2.2644,2.2647v0.035466-0.035466z" rx="12.121831" ry="12.121831" cy="723.05243" cx="-10.101525" type="arc" class="fil1 str2"/>
  <path id="path29262" d="m43.42,46.28v0.00080604c0,1.2472-1.0172,2.2644-2.2642,2.2644-1.2475,0-2.2647-1.0172-2.2647-2.2644v-0.035197,0.034391c0-1.2472,1.0172-2.2647,2.2647-2.2647,1.2469,0,2.2642,1.0175,2.2642,2.2647v0.035466-0.035466z" rx="12.121831" ry="12.121831" cy="723.05243" cx="-10.101525" type="arc" class="fil1 str2"/>
  <path id="path29264" d="m49.273,47.249v0.00026868c0,1.2475-1.0172,2.2647-2.2642,2.2647-1.2475,0-2.2647-1.0172-2.2647-2.2647v-0.035466,0.03466c0-1.2475,1.0172-2.2647,2.2647-2.2647,1.2469,0,2.2642,1.0172,2.2642,2.2647v0.035466-0.034928z" rx="12.121831" ry="12.121831" cy="723.05243" cx="-10.101525" type="arc" class="fil1 str2"/>
  <path id="path29266" d="m55.125,47.855v0.00026868c0,1.2475-1.0172,2.2647-2.2642,2.2647-1.2475,0-2.2647-1.0172-2.2647-2.2647v-0.035197,0.034391c0-1.2472,1.0172-2.2647,2.2647-2.2647,1.2469,0,2.2642,1.0175,2.2642,2.2647v0.035466-0.034928z" rx="12.121831" ry="12.121831" cy="723.05243" cx="-10.101525" type="arc" class="fil1 str2"/>
  <path id="path29284" d="m91.884,70.617v0.00026868c0,1.2475,1.0175,2.2644,2.2647,2.2644s2.2644-1.017,2.2644-2.2644v-0.035466,0.03466c0-1.2475-1.0172-2.2647-2.2644-2.2647s-2.2647,1.0172-2.2647,2.2647v0.035466-0.034928z" rx="12.121831" ry="12.121831" cy="723.05243" cx="-10.101525" type="arc" class="fil1 str2"/>
  <path id="path29286" d="m94.788,65.452v0.00080604c0,1.2469,1.0175,2.2642,2.2647,2.2642s2.2644-1.0172,2.2644-2.2642v-0.035466,0.034122c0-1.2469-1.0172-2.2642-2.2644-2.2642s-2.2647,1.0172-2.2647,2.2642v0.035466-0.034928z" rx="12.121831" ry="12.121831" cy="723.05243" cx="-10.101525" type="arc" class="fil1 str2"/>
  <path id="path29288" d="m95.394,59.398v0.00080604c0,1.2469,1.0172,2.2642,2.2647,2.2642,1.2469,0,2.2642-1.0172,2.2642-2.2642v-0.035466,0.03466c0-1.2475-1.0172-2.2647-2.2642-2.2647-1.2475,0-2.2647,1.0172-2.2647,2.2647v0.034928-0.034928z" rx="12.121831" ry="12.121831" cy="723.05243" cx="-10.101525" type="arc" class="fil1 str2"/>
  <path id="path29290" d="m93.578,53.747v0.00080604c0,1.2469,1.0172,2.2642,2.2647,2.2642,1.2469,0,2.2642-1.0172,2.2642-2.2642v-0.035466,0.03466c0-1.2475-1.0172-2.2647-2.2642-2.2647-1.2475,0-2.2647,1.0172-2.2647,2.2647v0.034928-0.034928z" rx="12.121831" ry="12.121831" cy="723.05243" cx="-10.101525" type="arc" class="fil1 str2"/>
  <path id="path29292" d="m89.744,49.106v0.00080604c0,1.2469,1.0172,2.2642,2.2647,2.2642,1.2469,0,2.2644-1.0172,2.2644-2.2642v-0.035466,0.03466c0-1.2475-1.0175-2.2647-2.2644-2.2647-1.2475,0-2.2647,1.0172-2.2647,2.2647v0.034928-0.034928z" rx="12.121831" ry="12.121831" cy="723.05243" cx="-10.101525" type="arc" class="fil1 str2"/>
  <path id="path29294" d="m84.497,45.877v0.00080604c0,1.2469,1.0172,2.2644,2.2647,2.2644,1.2469,0,2.2642-1.0175,2.2642-2.2644v-0.035466,0.03466c0-1.2475-1.0172-2.2647-2.2642-2.2647-1.2475,0-2.2647,1.0172-2.2647,2.2647v0.035466-0.035466z" rx="12.121831" ry="12.121831" cy="723.05243" cx="-10.101525" type="arc" class="fil1 str2"/>
  <path id="path29296" d="m78.644,46.28v0.00080604c0,1.2472,1.0172,2.2644,2.2647,2.2644,1.2469,0,2.2642-1.0172,2.2642-2.2644v-0.035197,0.034391c0-1.2472-1.0172-2.2647-2.2642-2.2647-1.2475,0-2.2647,1.0175-2.2647,2.2647v0.035466-0.035466z" rx="12.121831" ry="12.121831" cy="723.05243" cx="-10.101525" type="arc" class="fil1 str2"/>
  <path id="path29298" d="m72.792,47.249v0.00026868c0,1.2475,1.0172,2.2647,2.2647,2.2647,1.2469,0,2.2642-1.0172,2.2642-2.2647v-0.035466,0.03466c0-1.2475-1.0172-2.2647-2.2642-2.2647-1.2475,0-2.2647,1.0172-2.2647,2.2647v0.035466-0.034928z" rx="12.121831" ry="12.121831" cy="723.05243" cx="-10.101525" type="arc" class="fil1 str2"/>
  <path id="path29300" d="m66.94,47.855v0.00026868c0,1.2475,1.0172,2.2647,2.2647,2.2647,1.2469,0,2.2644-1.0172,2.2644-2.2647v-0.035197,0.034391c0-1.2472-1.0175-2.2647-2.2644-2.2647-1.2475,0-2.2647,1.0175-2.2647,2.2647v0.035466-0.034928z" rx="12.121831" ry="12.121831" cy="723.05243" cx="-10.101525" type="arc" class="fil1 str2"/>
  <path id="path29306" d="m63.595,65.531v0.00080604c0,1.2472-1.0175,2.2644-2.2644,2.2644-1.2475,0-2.2647-1.0172-2.2647-2.2644v-0.035466,0.034391c0-1.2469,1.0172-2.2644,2.2647-2.2644,1.2469,0,2.2644,1.0175,2.2644,2.2644v0.035466-0.035197z" rx="12.121831" ry="12.121831" cy="723.05243" cx="-10.101525" type="arc" class="fil1 str2"/>
  <path id="path29308" d="m63.595,61.496v0.00080604c0,1.2469-1.0175,2.2642-2.2644,2.2642-1.2475,0-2.2647-1.0172-2.2647-2.2642v-0.035466,0.03466c0-1.2475,1.0172-2.2647,2.2647-2.2647,1.2469,0,2.2644,1.0172,2.2644,2.2647v0.035466-0.035466z" rx="12.121831" ry="12.121831" cy="723.05243" cx="-10.101525" type="arc" class="fil1 str2"/>
  <path id="path29312" d="m63.595,58.267v0.00080604c0,1.2475-1.0175,2.2644-2.2644,2.2644-1.2475,0-2.2647-1.017-2.2647-2.2644v-0.035466,0.03466c0-1.2472,1.0172-2.2647,2.2647-2.2647,1.2469,0,2.2644,1.0175,2.2644,2.2647v0.035466-0.035466z" rx="12.121831" ry="12.121831" cy="723.05243" cx="-10.101525" type="arc" class="fil1 str2"/>
  <path id="path29314" d="m63.595,55.321v0.00053736c0,1.2475-1.0175,2.2647-2.2644,2.2647-1.2475,0-2.2647-1.0172-2.2647-2.2647v-0.035466,0.03466c0-1.2475,1.0172-2.2647,2.2647-2.2647,1.2469,0,2.2644,1.0172,2.2644,2.2647v0.035466-0.035197z" rx="12.121831" ry="12.121831" cy="723.05243" cx="-10.101525" type="arc" class="fil1 str2"/>
  <path id="path29316" d="m63.595,45.877v0.00080604c0,1.2469-1.0175,2.2644-2.2644,2.2644-1.2475,0-2.2647-1.0175-2.2647-2.2644v-0.035466,0.03466c0-1.2475,1.0172-2.2647,2.2647-2.2647,1.2469,0,2.2644,1.0172,2.2644,2.2647v0.035466-0.035466z" rx="12.121831" ry="12.121831" cy="723.05243" cx="-10.101525" type="arc" class="fil1 str2"/>
  <path id="path29318" d="m63.595,46.28v0.00080604c0,1.2472-1.0175,2.2644-2.2644,2.2644-1.2475,0-2.2647-1.0172-2.2647-2.2644v-0.035197,0.034391c0-1.2472,1.0172-2.2647,2.2647-2.2647,1.2469,0,2.2644,1.0175,2.2644,2.2647v0.035466-0.035466z" rx="12.121831" ry="12.121831" cy="723.05243" cx="-10.101525" type="arc" class="fil1 str2"/>
  <path id="path29320" d="m63.595,48.38v0.00026868c0,1.2475-1.0175,2.2647-2.2644,2.2647-1.2475,0-2.2647-1.0172-2.2647-2.2647v-0.035197,0.03466c0-1.2475,1.0172-2.2647,2.2647-2.2647,1.2469,0,2.2644,1.0172,2.2644,2.2647v0.035197-0.034928z" rx="12.121831" ry="12.121831" cy="723.05243" cx="-10.101525" type="arc" class="fil1 str2"/>
  <path id="path29322" d="m63.595,51.245v0.00080604c0,1.2469-1.0175,2.2642-2.2644,2.2642-1.2475,0-2.2647-1.0172-2.2647-2.2642v-0.035466,0.034122c0-1.2469,1.0172-2.2642,2.2647-2.2642,1.2469,0,2.2644,1.0172,2.2644,2.2642v0.035466-0.034928z" rx="12.121831" ry="12.121831" cy="723.05243" cx="-10.101525" type="arc" class="fil1 str2"/>
  <path id="path33378" d="m64.234,75.28v0.0016121c0,1.6115-1.3141,2.9259-2.9259,2.9259-1.6115,0-2.9259-1.3144-2.9259-2.9259v-0.045676,0.042183c0-1.6118,1.3144-2.9256,2.9259-2.9256,1.6118,0,2.9259,1.3138,2.9259,2.9256v0.045407-0.043526z" rx="10.357142" ry="10.357142" cy="136.29076" cx="133.21428" type="arc" class="fil1 str8"/>
  <path id="path34253" d="m33.649,80.587v0.0016121c0,1.6115-1.3144,2.9259-2.9262,2.9259-1.6115,0-2.9259-1.3144-2.9259-2.9259v-0.045676,0.042183c0-1.6118,1.3144-2.9265,2.9259-2.9265,1.6118,0,2.9262,1.3146,2.9262,2.9265v0.045407-0.043526z" rx="10.357142" ry="10.357142" cy="136.29076" cx="133.21428" type="arc" class="fil1 str8"/>
  <path id="path34255" d="m94.674,80.587c0.00053736,0.0016121,0.00053736,0.0016121,0.00053736,0.0016121,0,1.6115-1.3146,2.9259-2.9259,2.9259-1.6118,0-2.9265-1.3144-2.9265-2.9259v-0.045676,0.042183c0-1.6118,1.3146-2.9265,2.9265-2.9265,1.6113,0,2.9259,1.3146,2.9259,2.9265v0.045407l-0.00053736-0.043526z" rx="10.357142" ry="10.357142" cy="136.29076" cx="133.21428" type="arc" class="fil1 str8"/>
  <rect id="rect36472" class="fil7 str9" height="3.9428" width="9.0452" y="85.213" x="57.075"/>
  <path id="path37350" d="m71.48,88.132c0.029286,1.1739,1.8759,2.3166,4.1108,2.5436,2.2351,0.2265,4.034-0.54596,4.0047-1.7204-0.029286-1.1747-1.8756-2.3174-4.1105-2.5439-2.2349-0.22703-4.0337,0.54542-4.0047,1.7201l-0.00026868,0.00053736z" rx="22.994652" ry="8.5561495" cy="233.11084" cx="-6.9518719" type="arc" class="fil8 str10"/>
  <polygon id="path37352" points="31.613,90.206,29.346,92.472,31.975,93.99,38.088,92.352,36.998,88.89" nodetypes="cccccc" class="fil4 str1"/>
  <polygon id="path37354" points="91.582,90.206,93.848,92.472,91.22,93.99,85.107,92.352,86.196,88.89" nodetypes="cccccc" class="fil4 str1"/>
  <path id="path37356" d="m51.715,88.132c-0.029286,1.1739-1.8756,2.3166-4.1105,2.5436-2.2351,0.2265-4.0337-0.54596-4.0047-1.7204,0.029017-1.1747,1.8756-2.3174,4.1105-2.5439,2.2351-0.22703,4.034,0.54542,4.0047,1.7201v0.00053736z" rx="22.994652" ry="8.5561495" cy="233.11084" cx="-6.9518719" type="arc" class="fil8 str10"/>
  <path id="path1994" d="m55.118,85.507c0.00053736,0.61286-0.49948,1.1129-1.1129,1.1129-0.61286,0-1.1131-0.50001-1.1131-1.1134,0-0.61286,0.50028-1.1129,1.1131-1.1129,0.6134,0,1.1134,0.50001,1.1134,1.1129l-0.00053736,0.00053736z" rx="4.2780747" ry="4.2780747" cy="214.70358" cx="121.92513" type="arc" class="fil1 str11"/>
  <path id="path1996" d="m55.466,89.055c0.00053736,0.61286-0.49948,1.1129-1.1129,1.1129-0.61286,0-1.1129-0.50001-1.1129-1.1131,0-0.61286,0.50001-1.1134,1.1129-1.1134,0.6134,0,1.1134,0.50055,1.1134,1.1134l-0.00053736,0.00026868z" rx="4.2780747" ry="4.2780747" cy="214.70358" cx="121.92513" type="arc" class="fil1 str11"/>
  <path id="path1998" d="m41.204,88.012c0.00053736,0.61286-0.49948,1.1129-1.1129,1.1129-0.61286,0-1.1131-0.50001-1.1131-1.1134,0-0.61286,0.50028-1.1129,1.1131-1.1129,0.6134,0,1.1134,0.50001,1.1134,1.1129l-0.00053736,0.00053736z" rx="4.2780747" ry="4.2780747" cy="214.70358" cx="121.92513" type="arc" class="fil1 str11"/>
  <path id="path2000" d="m42.595,91.351c0.00026868,0.61286-0.49974,1.1129-1.1129,1.1129-0.61286,0-1.1129-0.50001-1.1129-1.1129,0-0.6134,0.50001-1.1134,1.1129-1.1134,0.61313,0,1.1131,0.50001,1.1131,1.1134h-0.00026868z" rx="4.2780747" ry="4.2780747" cy="214.70358" cx="121.92513" type="arc" class="fil1 str11"/>
  <path id="path2020" d="m68.024,85.507c0,0.61286,0.50001,1.1129,1.1134,1.1129,0.61286,0,1.1129-0.50001,1.1129-1.1134,0-0.61286-0.50001-1.1129-1.1129-1.1129-0.6134,0-1.1134,0.50001-1.1134,1.1129v0.00053736z" rx="4.2780747" ry="4.2780747" cy="214.70358" cx="121.92513" type="arc" class="fil1 str11"/>
  <path id="path2022" d="m67.676,89.055c0,0.61286,0.50055,1.1129,1.1134,1.1129,0.61313,0,1.1131-0.50001,1.1131-1.1131,0-0.61286-0.50001-1.1134-1.1131-1.1134-0.61286,0-1.1134,0.50055-1.1134,1.1134v0.00026868z" rx="4.2780747" ry="4.2780747" cy="214.70358" cx="121.92513" type="arc" class="fil1 str11"/>
  <path id="path2024" d="m81.939,88.012c0,0.61286,0.50001,1.1129,1.1134,1.1129,0.61286,0,1.1129-0.50001,1.1129-1.1134,0-0.61286-0.50001-1.1129-1.1129-1.1129-0.6134,0-1.1134,0.50001-1.1134,1.1129v0.00053736z" rx="4.2780747" ry="4.2780747" cy="214.70358" cx="121.92513" type="arc" class="fil1 str11"/>
  <path id="path2026" d="m80.547,91.351c0.00053736,0.61286,0.50055,1.1129,1.1134,1.1129,0.61313,0,1.1131-0.50001,1.1131-1.1129,0-0.6134-0.50001-1.1134-1.1131-1.1134-0.61286,0-1.1129,0.50001-1.1129,1.1134h-0.00053736z" rx="4.2780747" ry="4.2780747" cy="214.70358" cx="121.92513" type="arc" class="fil1 str11"/>
  <path id="path2159" class="fil1 str12" nodetypes="ccsczcscscs" d="m84.07,103.56c0.85064-0.1475,5.9792-1.3665,7.059-2.0191-0.69722-1.2566-1.9477-2.2392-0.9745-1.8262,0.52446,0.22274,0.9385-1.5089-0.5825-2.8324-4.4166,1.4484-15.008,4.0955-28.318,4.0955-13.62,0-24.345-2.7859-28.762-4.2347-1.5213,1.3238-1.0473,2.8273-1.1392,3.3891-0.00080604,0.0042989,0.00080604,0.70878,0.27808,1.2692,1.4971,1.6266,6.3476,2.4283,7.1976,2.5758,3.9947,0.694,7.99,1.7432,22.416,1.7432,13.345,0,18.83-1.4664,22.825-2.1604z"/>
  <path id="path34451" class="fil1 str12" nodetypes="ccsczcscscs" d="m38.386,94.396c-0.85037,0.14777-6.2575,2.0626-7.3368,2.715,0.00080604,0.0040302-0.00080604,0.012897,0,0.017196,0.091888,0.56181-0.93877,3.1785,0.5825,4.502,4.4166-1.4484,16.817-5.765,30.127-5.765,13.62,0,24.902,4.3166,29.318,5.765,1.521-1.3235,0.49088-3.9402,0.58277-4.502,0.00080604-0.0042989-0.0010747-0.013165,0-0.017196-1.0798-0.65235-6.4867-2.5672-7.3368-2.715-3.9947-0.69373-8.1289-3.2733-22.555-3.2733-13.346,0-19.387,2.5796-23.381,3.2733z"/>
  <path id="path35329" d="m34.501,97.641c0.022838,0.18404-0.12252,0.3517-0.32403,0.37266-0.20151,0.020688-0.38448-0.11311-0.40705-0.29716-0.022838-0.18431,0.12306-0.35197,0.32403-0.37293,0.20151-0.020688,0.38421,0.11258,0.40705,0.29716v0.00026868z" rx="1.8716577" ry="1.8716577" cy="301.56003" cx="113.63636" type="arc" class="fil9 str13"/>
  <path id="path35331" d="m34.084,98.557c0.022838,0.18431-0.12279,0.3517-0.3243,0.37239-0.20124,0.020957-0.38421-0.11258-0.40705-0.29689-0.022838-0.18458,0.12306-0.35224,0.32456-0.37293,0.20151-0.02042,0.38394,0.11284,0.40678,0.29743z" rx="1.8716577" ry="1.8716577" cy="301.56003" cx="113.63636" type="arc" class="fil9 str13"/>
  <path id="path35333" d="m34.887,99.056c0.022838,0.18404-0.12279,0.35143-0.32403,0.37239-0.20151,0.02042-0.38448-0.11284-0.40732-0.29743-0.022838-0.18431,0.12332-0.3517,0.32456-0.37239,0.20151-0.020957,0.38448,0.11231,0.40678,0.29689v0.00053736z" rx="1.8716577" ry="1.8716577" cy="301.56003" cx="113.63636" type="arc" class="fil9 str13"/>
  <polygon id="path35335" points="34.182,98.439,37.376,96.96,35.846,97.986,36.892,97.848,35.969,98.367,37.546,98.304" class="fil9 str14"/>
  <path id="path35345" d="m46.252,94.278c0.022838,0.18431-0.12279,0.3517-0.32403,0.37266-0.20151,0.020688-0.38448-0.11258-0.40732-0.29716-0.022838-0.18431,0.12332-0.35197,0.32456-0.37293,0.20151-0.020688,0.38448,0.11258,0.40732,0.29716l-0.00053736,0.00026868z" rx="1.8716577" ry="1.8716577" cy="301.56003" cx="113.63636" type="arc" class="fil9 str13"/>
  <path id="path35347" d="m45.836,95.194c0.022838,0.18404-0.12279,0.35143-0.3243,0.37212-0.20124,0.020957-0.38421-0.11231-0.40705-0.29689-0.022838-0.18458,0.12306-0.3517,0.32456-0.37266,0.20124-0.020688,0.38421,0.11258,0.40705,0.29716l-0.00026868,0.00026868z" rx="1.8716577" ry="1.8716577" cy="301.56003" cx="113.63636" type="arc" class="fil9 str13"/>
  <path id="path35349" d="m46.638,95.693c0.023106,0.18404-0.12279,0.3517-0.32403,0.37239-0.20151,0.020957-0.38448-0.11284-0.40732-0.29743-0.0223-0.18404,0.12306-0.3517,0.32456-0.37239,0.20151-0.020957,0.38448,0.11258,0.40705,0.29689l-0.00026868,0.00053736z" rx="1.8716577" ry="1.8716577" cy="301.56003" cx="113.63636" type="arc" class="fil9 str13"/>
  <polygon id="path35351" points="45.933,95.076,49.128,93.597,47.597,94.623,48.644,94.485,47.721,95.004,49.298,94.941" class="fil9 str14"/>
  <path id="path35355" d="m60.837,92.703c-0.021763,0.18431-0.20339,0.3122-0.40409,0.28426-0.20017-0.027943-0.34606-0.20151-0.32403-0.38609,0.0223-0.18431,0.20366-0.3122,0.40436-0.28426,0.20044,0.027943,0.34606,0.20124,0.32403,0.38582l-0.00026868,0.00026868z" rx="1.8716577" ry="1.8716577" cy="301.56003" cx="113.63636" type="arc" class="fil9 str13"/>
  <path id="path35357" d="m60.213,93.492c-0.022032,0.18404-0.20339,0.31194-0.40409,0.28399-0.20044-0.027943-0.34606-0.20151-0.32403-0.38582,0.022032-0.18458,0.20366-0.31247,0.40409-0.28453,0.20044,0.02848,0.34606,0.20151,0.32403,0.38609v0.00026868z" rx="1.8716577" ry="1.8716577" cy="301.56003" cx="113.63636" type="arc" class="fil9 str13"/>
  <path id="path35359" d="m60.873,94.169c-0.022032,0.18404-0.20339,0.31194-0.40409,0.28399-0.2007-0.027943-0.34606-0.20124-0.32403-0.38582,0.022032-0.18458,0.20366-0.3122,0.40436-0.28453,0.20017,0.02848,0.34606,0.20151,0.32376,0.38609v0.00026868z" rx="1.8716577" ry="1.8716577" cy="301.56003" cx="113.63636" type="arc" class="fil9 str13"/>
  <polygon id="path35361" points="60.336,93.401,63.792,92.73,62.06,93.36,63.11,93.476,62.089,93.759,63.635,94.075" class="fil9 str14"/>
  <path id="path35375" d="m74.354,95.5c0.022569-0.18458-0.12279-0.35224-0.3243-0.37293-0.20151-0.020957-0.38421,0.11284-0.40705,0.29743-0.022838,0.18404,0.12306,0.3517,0.32456,0.37239,0.20124,0.020957,0.38394-0.11231,0.40678-0.29689z" rx="1.8716577" ry="1.8716577" cy="301.56003" cx="113.63636" type="arc" class="fil9 str13"/>
  <path id="path35377" d="m73.937,94.584c0.022838-0.18431-0.12279-0.35197-0.32403-0.37293-0.20151-0.020688-0.38448,0.11258-0.40732,0.29716-0.022838,0.18431,0.12306,0.35197,0.32456,0.37293,0.20151,0.020688,0.38448-0.11284,0.40678-0.29716z" rx="1.8716577" ry="1.8716577" cy="301.56003" cx="113.63636" type="arc" class="fil9 str13"/>
  <path id="path35379" d="m74.74,94.085c0.022838-0.18431-0.12279-0.3517-0.32403-0.37239-0.20151-0.020957-0.38448,0.11258-0.40732,0.29689-0.022569,0.18458,0.12332,0.3517,0.32456,0.37266,0.20151,0.020688,0.38448-0.11258,0.40732-0.29716h-0.00053736z" rx="1.8716577" ry="1.8716577" cy="301.56003" cx="113.63636" type="arc" class="fil9 str13"/>
  <polygon id="path35381" points="74.035,94.702,77.23,96.182,75.698,95.155,76.745,95.294,75.822,94.774,77.399,94.838" class="fil9 str14"/>
  <path id="path35385" d="m86.214,98.598c0.022838-0.18485-0.12252-0.35197-0.32403-0.37293-0.20151-0.020688-0.38421,0.11258-0.40705,0.29716-0.022838,0.18431,0.12252,0.35197,0.32403,0.37239,0.20151,0.020957,0.38448-0.11231,0.40705-0.29689v0.00026868z" rx="1.8716577" ry="1.8716577" cy="301.56003" cx="113.63636" type="arc" class="fil9 str13"/>
  <path id="path35387" d="m85.797,97.681c0.022838-0.18431-0.12279-0.35197-0.3243-0.37293-0.20124-0.020688-0.38421,0.11311-0.40705,0.29716-0.022838,0.18458,0.12306,0.35197,0.32456,0.37293,0.20097,0.020688,0.38394-0.11258,0.40678-0.29716z" rx="1.8716577" ry="1.8716577" cy="301.56003" cx="113.63636" type="arc" class="fil9 str13"/>
  <path id="path35389" d="m86.6,97.183c0.022838-0.18458-0.12279-0.35197-0.32403-0.37293-0.20151-0.020957-0.38448,0.11258-0.40732,0.29689-0.022838,0.18458,0.12332,0.35224,0.32456,0.37293,0.20151,0.020957,0.38448-0.11284,0.40678-0.29689z" rx="1.8716577" ry="1.8716577" cy="301.56003" cx="113.63636" type="arc" class="fil9 str13"/>
  <polygon id="path35391" points="85.895,97.8,89.089,99.279,87.559,98.252,88.605,98.391,87.682,97.872,89.259,97.935" class="fil9 str14"/>
 </g>
</svg>
