<?xml version="1.0" encoding="UTF-8"?>
<svg version="1.0" viewBox="0 0 1200 600" xmlns="http://www.w3.org/2000/svg" xmlns:cc="http://creativecommons.org/ns#" xmlns:dc="http://purl.org/dc/elements/1.1/" xmlns:rdf="http://www.w3.org/1999/02/22-rdf-syntax-ns#">
<defs>
<clipPath id="a">
<rect x="-15" y="-7.5" width="30" height="15"/>
</clipPath>
</defs>
<metadata>
<rdf:RDF>
<cc:Work rdf:about="">
<dc:format>image/svg+xml</dc:format>
<dc:type rdf:resource="http://purl.org/dc/dcmitype/StillImage"/>
<dc:title/>
</cc:Work>
</rdf:RDF>
</metadata>
<path d="m1200 0v600h-1200v-600h1200z" fill="#012169" fill-rule="evenodd"/>
<rect x="2.2737e-13" y="-7.4023e-6" width="1200" height="600" fill="none"/>
<g transform="scale(1.2)">
<g transform="matrix(8.3333 0 0 8.3333 0 -.0002257)">
<g transform="matrix(2 0 0 2 30 15)" clip-path="url(#a)">
<circle r="20" fill="#012169"/>
<path d="m-20-10 40 20m-40 0 40-20" fill="none" stroke="#fff" stroke-width="3"/>
<path d="m-20-10 40 20m-40 0 40-20" fill="none" stroke="#c8102e" stroke-width="2"/>
<path d="m0 0 20 10h-3l-20-10m3 0 20-10h3l-20 10m-3 0-20 10h-3l20-10m3 0-20-10h3l20 10" fill="#fff"/>
<path d="m-20 0h40m-20-10v20" fill="none" stroke="#fff" stroke-width="5"/>
<path d="m-20 0h40m-20-10v20" fill="none" stroke="#c8102e" stroke-width="3"/>
</g>
</g>
</g>
<g transform="matrix(5.1119 0 0 -5.1119 843.8 165.39)" fill="#fedd00" stroke="#000" stroke-width=".11737">
<path d="M 0,0 C 0,0 -0.355,0.861 -1.267,3.242 1.584,4.586 7.741,5.57 10.968,5.589 14.246,5.57 20.403,4.586 23.254,3.242 22.342,0.861 21.988,0 21.988,0 21.988,0 16.303,2.348 11.019,2.024 5.684,2.348 0,0 0,0"/>
<path d="M 0,0 C 0,0 -0.355,0.861 -1.267,3.242 1.584,4.586 7.741,5.57 10.968,5.589 14.246,5.57 20.403,4.586 23.254,3.242 22.342,0.861 21.988,0 21.988,0 21.988,0 16.303,2.348 11.019,2.024 5.684,2.348 0,0 0,0 Z"/>
</g>
<g transform="matrix(5.1119 0 0 -5.1119 884.77 104.79)" fill="#fedd00" stroke="#000" stroke-width=".11737">
<path d="M 0,0 0.775,0.768 1.55,0 0,0 Z"/>
<path d="M 0,0 0.775,0.768 1.55,0 0,0 Z"/>
</g>
<g transform="matrix(5.1119 0 0 -5.1119 887.1 110.48)" fill="#fedd00" stroke="#000" stroke-width=".11737">
<path d="m 0,0 -0.342,1.115 1.322,0 L 0.638,0 0,0 Z"/>
<path d="m 0,0 -0.342,1.115 1.322,0 L 0.638,0 0,0 Z"/>
</g>
<g transform="matrix(5.1119 0 0 -5.1119 915.23 104.79)" fill="#fedd00" stroke="#000" stroke-width=".11737">
<path d="M 0,0 -0.775,0.768 -1.55,0 0,0 Z"/>
<path d="M 0,0 -0.775,0.768 -1.55,0 0,0 Z"/>
</g>
<g transform="matrix(5.1119 0 0 -5.1119 912.9 110.48)" fill="#fedd00" stroke="#000" stroke-width=".11737">
<path d="m0 0 0.342 1.115h-1.322l0.342-1.115h0.638z"/>
<path d="m0 0 0.342 1.115h-1.322l0.342-1.115h0.638z"/>
</g>
<g transform="matrix(5.1119 0 0 -5.1119 887.7 116.83)" fill="#fedd00" stroke="#000" stroke-width=".11737">
<path d="m0 0c0.015 1.51 0.713 3.192 2.381 3.435l0.051 7e-3c1.667-0.25 2.366-1.932 2.381-3.442 0.025-2.41-1.258-3.58-2.381-3.647h-0.051c-1.124 0.067-2.406 1.237-2.381 3.647"/>
<path d="m0 0c0.015 1.51 0.713 3.192 2.381 3.435l0.051 7e-3c1.667-0.25 2.366-1.932 2.381-3.442 0.025-2.41-1.258-3.58-2.381-3.647h-0.051c-1.124 0.067-2.406 1.237-2.381 3.647z"/>
</g>
<g transform="matrix(5.1119 0 0 -5.1119 896.17 94.168)" fill="#fedd00" stroke="#000" stroke-width=".11737">
<path d="M 0,0 0.775,0.768 1.55,0 0,0 Z"/>
<path d="M 0,0 0.775,0.768 1.55,0 0,0 Z"/>
</g>
<g transform="matrix(5.1119 0 0 -5.1119 898.5 99.866)" fill="#fedd00" stroke="#000" stroke-width=".11737">
<path d="m 0,0 -0.342,1.115 1.322,0 L 0.638,0 0,0 Z"/>
<path d="m 0,0 -0.342,1.115 1.322,0 L 0.638,0 0,0 Z"/>
</g>
<g transform="matrix(5.1119 0 0 -5.1119 860.12 94.686)" fill="#fedd00" stroke="#000" stroke-width=".11737">
<path d="m0 0c0.146 0.057 0.247 0.076 0.405 0.076 0.285 0 0.412-0.152 0.697-0.152 0.374 0 0.842 0.032 1.165 0.215 0 0-0.886-0.874-1.583-0.874-0.228 0-0.355 0.051-0.583 0.051 0 0.228-0.025 0.361-0.076 0.583l-0.025 0.101z" fill-rule="evenodd"/>
<path d="m0 0c0.146 0.057 0.247 0.076 0.405 0.076 0.285 0 0.412-0.152 0.697-0.152 0.374 0 0.842 0.032 1.165 0.215 0 0-0.886-0.874-1.583-0.874-0.228 0-0.355 0.051-0.583 0.051 0 0.228-0.025 0.361-0.076 0.583l-0.025 0.101zm0.38-2.204 2.989-5.953m-2.964 5.928 2.356-6.004m-2.33 5.978 0.253-6.307"/>
</g>
<g transform="matrix(5.1119 0 0 -5.1119 859.34 94.168)" fill="#fedd00" stroke="#000" stroke-width=".11737">
<path d="M 0,0 1.571,-8.663 2.128,-8.562 0.203,0.051 0,0 Z" fill-rule="evenodd"/>
<path d="M 0,0 1.571,-8.663 2.128,-8.562 0.203,0.051 0,0 Z"/>
</g>
<g transform="matrix(5.1119 0 0 -5.1119 853.12 108.8)" fill="#fedd00" stroke="#000" stroke-width=".11737">
<path d="m0 0c-0.557-2.254 0.203-5.117 1.342-5.928 0.482 2.711 3.927 1.596 4.408 0.709-1.925 2.61-1.558 6.143-1.317 6.384-0.887-0.202-3.673-0.962-4.433-1.165" fill-rule="evenodd"/>
<path d="m0 0c-0.557-2.254 0.203-5.117 1.342-5.928 0.482 2.711 3.927 1.596 4.408 0.709-1.925 2.61-1.558 6.143-1.317 6.384-0.887-0.202-3.673-0.962-4.433-1.165zm0.507-2.736c-0.102-0.557 0.126-1.393 0.532-1.798m0.025 1.266c0-0.38 0.051-0.557 0.203-0.861m-1.115 4.256 1.393 1.621 2.635-0.583m2.583-2.14h0.811v-1.191h-0.811v1.191zm0.811 0.139h0.811v-1.191h-0.811v1.191zm0.811 0.089h0.785v-1.197h-0.785v1.197zm-0.938-1.305c0.038-1.444 0.45-2.52 1.748-3.166m-1.114 3.192c0-0.684 0.43-2.8 1.102-3.078m-0.444 3.103c0.051-0.735 0.152-2.293 0.456-2.939"/>
</g>
<g transform="matrix(5.1119 0 0 -5.1119 842.97 111.96)" fill="#fedd00" stroke="#000" stroke-width=".11737">
<path d="M 0,0 -0.999,0.439 -1.447,-0.555 0,0 Z"/>
<path d="M 0,0 -0.999,0.439 -1.447,-0.555 0,0 Z"/>
</g>
<g transform="matrix(5.1119 0 0 -5.1119 842.83 118.11)" fill="#fedd00" stroke="#000" stroke-width=".11737">
<path d="M 0,0 -0.08,1.163 -1.314,0.689 -0.596,-0.229 0,0 Z"/>
<path d="M 0,0 -0.08,1.163 -1.314,0.689 -0.596,-0.229 0,0 Z"/>
</g>
<g transform="matrix(5.1119 0 0 -5.1119 844.55 124.25)" fill="#fedd00" stroke="#000" stroke-width=".11737">
<path d="m0 0c-0.561 1.418-1.835 2.75-3.504 2.342l2.541-6.619c1.047 0.439 1.863 2.002 0.963 4.277" fill-rule="evenodd"/>
<path d="m0 0c-0.561 1.418-1.835 2.75-3.504 2.342l2.541-6.619c1.047 0.439 1.863 2.002 0.963 4.277zm-2.346 1.623c-0.114-0.234-0.632-0.406-0.891 0.024l0.647-1.685c0.429 0.16 0.712 0.226 1.156 0.396 0.261 0.1 0.622 0.185 0.898 0.243-1-0.045-1.057 0.686-1.057 0.686-0.498-0.258-0.675 0.026-0.753 0.336zm1.364-1.371 0.756 0.29 0.427-1.111-0.757-0.291-0.426 1.112zm-0.807-0.161 0.757 0.291 0.426-1.112-0.756-0.29-0.427 1.111zm-0.788-0.207 0.756 0.29 0.427-1.111-0.757-0.291-0.426 1.112z"/>
</g>
<g transform="matrix(5.1119 0 0 -5.1119 843.52 121)" fill="#fedd00" stroke="#000" stroke-width=".11737">
<path d="m0 0c-0.055 0.056-0.752-0.031-2.406-0.622l0.1-0.261c1.487 0.548 2.328 0.606 2.38 0.674 0.036 0.048 4e-3 0.131-0.074 0.209"/>
<path d="m0 0c-0.055 0.056-0.752-0.031-2.406-0.622l0.1-0.261c1.487 0.548 2.328 0.606 2.38 0.674 0.036 0.048 4e-3 0.131-0.074 0.209zm-0.263-1.329c0.482-1.361 0.483-2.514-0.497-3.582m-0.103 3.379c0.245-0.639 0.601-2.768 0.074-3.268m-0.698 3.056c0.216-0.704 0.679-2.195 0.627-2.907"/>
</g>
<g transform="matrix(5.1119 0 0 -5.1119 846.83 133.15)" fill="#fedd00" stroke="#000" stroke-width=".11737">
<path d="m0 0c-0.064 0.081-0.73 0.196-2.234-0.383l0.155-0.402c1.481 0.555 1.978 0.308 2.049 0.405 0.057 0.078 0.099 0.293 0.03 0.38"/>
<path d="m0 0c-0.064 0.081-0.73 0.196-2.234-0.383l0.155-0.402c1.481 0.555 1.978 0.308 2.049 0.405 0.057 0.078 0.099 0.293 0.03 0.38z"/>
</g>
<g transform="matrix(5.1119 0 0 -5.1119 845.71 126.72)" fill="#fedd00" stroke="#000" stroke-width=".11737">
<path d="m0 0c-0.055 0.056-0.752-0.031-2.407-0.622l0.1-0.261c1.488 0.548 2.329 0.605 2.381 0.674 0.036 0.047 4e-3 0.131-0.074 0.209"/>
<path d="m0 0c-0.055 0.056-0.752-0.031-2.407-0.622l0.1-0.261c1.488 0.548 2.329 0.605 2.381 0.674 0.036 0.047 4e-3 0.131-0.074 0.209z"/>
</g>
<g transform="matrix(5.1119 0 0 -5.1119 837.71 136.58)" fill="#fedd00" stroke="#000" stroke-width=".11737">
<path d="M 0,0 -0.296,-0.114 0.415,-1.964 0.862,-1.785 0,0 Z" fill-rule="evenodd"/>
<path d="M 0,0 -0.296,-0.114 0.415,-1.964 0.862,-1.785 0,0 Z"/>
</g>
<g transform="matrix(5.1119 0 0 -5.1119 830.02 105.74)" fill="#fedd00" stroke="#000" stroke-width=".11737">
<path d="M 0,0 -0.999,0.439 -1.447,-0.555 0,0 Z"/>
<path d="M 0,0 -0.999,0.439 -1.447,-0.555 0,0 Z"/>
</g>
<g transform="matrix(5.1119 0 0 -5.1119 829.89 111.89)" fill="#fedd00" stroke="#000" stroke-width=".11737">
<path d="M 0,0 -0.08,1.163 -1.314,0.689 -0.596,-0.229 0,0 Z"/>
<path d="M 0,0 -0.08,1.163 -1.314,0.689 -0.596,-0.229 0,0 Z"/>
</g>
<g transform="matrix(5.1119 0 0 -5.1119 848.95 109.15)" fill="#fedd00" stroke="#000" stroke-width=".11737">
<path d="M 0,0 5.774,1.547 5.853,1.254 0.078,-0.294 0,0 Z"/>
<path d="M 0,0 5.774,1.547 5.853,1.254 0.078,-0.294 0,0 Z"/>
</g>
<g transform="matrix(5.1119 0 0 -5.1119 864.36 146.32)" fill="#fedd00" stroke="#000" stroke-width=".11737">
<path d="M 0,0 2.131,0.453 2.373,-0.687 0.242,-1.14 0,0 Z"/>
<path d="M 0,0 2.131,0.453 2.373,-0.687 0.242,-1.14 0,0 Z"/>
</g>
<g transform="matrix(5.1119 0 0 -5.1119 893.65 144.93)" fill="#fedd00" stroke="#000" stroke-width=".11737">
<path d="m0 0c0 0.419 0.567 0.76 1.267 0.76 0.699 0 1.266-0.341 1.266-0.76 0-0.42-0.567-0.76-1.266-0.76-0.7 0-1.267 0.34-1.267 0.76"/>
<path d="m0 0c0 0.419 0.567 0.76 1.267 0.76 0.699 0 1.266-0.341 1.266-0.76 0-0.42-0.567-0.76-1.266-0.76-0.7 0-1.267 0.34-1.267 0.76z"/>
</g>
<g transform="matrix(5.1119 0 0 -5.1119 838.23 157.23)" fill="#fedd00" stroke="#000" stroke-width=".11737">
<path d="m0 0c-0.086 0.259-0.101 0.785 0.544 1.02 0.658 0.239 1.307 0.113 1.45-0.281 0.144-0.394-0.272-0.908-0.93-1.147-0.657-0.24-0.988 0.18-1.064 0.408" fill-rule="evenodd"/>
<path d="m0 0c-0.086 0.259-0.101 0.785 0.544 1.02 0.658 0.239 1.307 0.113 1.45-0.281 0.144-0.394-0.272-0.908-0.93-1.147-0.657-0.24-0.988 0.18-1.064 0.408z"/>
</g>
<g transform="matrix(5.1119 0 0 -5.1119 939.88 94.686)" fill="#fedd00" stroke="#000" stroke-width=".11737">
<path d="m0 0c0.156-2e-3 0.258-0.022 0.404-0.081 0.264-0.107 0.325-0.295 0.589-0.402 0.347-0.14 0.793-0.287 1.161-0.237 0 0-1.149-0.478-1.795-0.217-0.211 0.085-0.31 0.179-0.521 0.265 0.085 0.211 0.111 0.344 0.147 0.569l0.015 0.103z" fill-rule="evenodd"/>
<path d="m0 0c0.156-2e-3 0.258-0.022 0.404-0.081 0.264-0.107 0.325-0.295 0.589-0.402 0.347-0.14 0.793-0.287 1.161-0.237 0 0-1.149-0.478-1.795-0.217-0.211 0.085-0.31 0.179-0.521 0.265 0.085 0.211 0.111 0.344 0.147 0.569l0.015 0.103zm-0.38-2.204-2.989-5.953m2.964 5.928-2.356-6.004m2.331 5.978-0.254-6.307"/>
</g>
<g transform="matrix(5.1119 0 0 -5.1119 940.66 94.168)" fill="#fedd00" stroke="#000" stroke-width=".11737">
<path d="M 0,0 -1.571,-8.663 -2.128,-8.562 -0.203,0.051 0,0 Z" fill-rule="evenodd"/>
<path d="M 0,0 -1.571,-8.663 -2.128,-8.562 -0.203,0.051 0,0 Z"/>
</g>
<g transform="matrix(5.1119 0 0 -5.1119 946.88 108.8)" fill="#fedd00" stroke="#000" stroke-width=".11737">
<path d="m0 0c0.557-2.254-0.203-5.117-1.343-5.928-0.481 2.711-3.926 1.596-4.407 0.709 1.925 2.61 1.558 6.143 1.317 6.384 0.887-0.202 3.673-0.962 4.433-1.165" fill-rule="evenodd"/>
<path d="m0 0c0.557-2.254-0.203-5.117-1.343-5.928-0.481 2.711-3.926 1.596-4.407 0.709 1.925 2.61 1.558 6.143 1.317 6.384 0.887-0.202 3.673-0.962 4.433-1.165zm-0.507-2.736c0.102-0.557-0.126-1.393-0.532-1.798m-0.025 1.266c0-0.38-0.051-0.557-0.203-0.861m1.115 4.256-1.393 1.621-2.635-0.583m-3.394-2.14h0.811v-1.191h-0.811v1.191zm-0.811 0.139h0.811v-1.191h-0.811v1.191zm-0.785 0.089h0.785v-1.197h-0.785v1.197zm1.723-1.305c-0.038-1.444-0.45-2.52-1.748-3.166m1.114 3.192c0-0.684-0.43-2.8-1.102-3.078m0.444 3.103c-0.051-0.735-0.152-2.293-0.456-2.939"/>
</g>
<g transform="matrix(5.1119 0 0 -5.1119 957.03 111.96)" fill="#fedd00" stroke="#000" stroke-width=".11737">
<path d="M 0,0 0.999,0.439 1.447,-0.555 0,0 Z"/>
<path d="M 0,0 0.999,0.439 1.447,-0.555 0,0 Z"/>
</g>
<g transform="matrix(5.1119 0 0 -5.1119 957.17 118.11)" fill="#fedd00" stroke="#000" stroke-width=".11737">
<path d="M 0,0 0.08,1.163 1.314,0.689 0.596,-0.229 0,0 Z"/>
<path d="M 0,0 0.08,1.163 1.314,0.689 0.596,-0.229 0,0 Z"/>
</g>
<g transform="matrix(5.1119 0 0 -5.1119 955.45 124.25)" fill="#fedd00" stroke="#000" stroke-width=".11737">
<path d="m0 0c0.561 1.418 1.835 2.75 3.504 2.342l-2.541-6.619c-1.047 0.439-1.863 2.002-0.963 4.277" fill-rule="evenodd"/>
<path d="m0 0c0.561 1.418 1.835 2.75 3.504 2.342l-2.541-6.619c-1.047 0.439-1.863 2.002-0.963 4.277zm2.346 1.623c0.114-0.234 0.632-0.406 0.891 0.024l-0.647-1.685c-0.429 0.16-0.712 0.226-1.156 0.396-0.261 0.1-0.622 0.185-0.898 0.243 1-0.045 1.057 0.686 1.057 0.686 0.498-0.258 0.675 0.026 0.753 0.336zm-1.388-1.371-0.757 0.29-0.427-1.111 0.757-0.291 0.427 1.112zm0.807-0.161-0.757 0.291-0.427-1.112 0.757-0.29 0.427 1.111zm0.788-0.207-0.757 0.29-0.426-1.111 0.756-0.291 0.427 1.112z"/>
</g>
<g transform="matrix(5.1119 0 0 -5.1119 956.48 121)" fill="#fedd00" stroke="#000" stroke-width=".11737">
<path d="m0 0c0.055 0.056 0.752-0.031 2.406-0.622l-0.1-0.261c-1.487 0.548-2.328 0.606-2.38 0.674-0.036 0.048-4e-3 0.131 0.074 0.209"/>
<path d="m0 0c0.055 0.056 0.752-0.031 2.406-0.622l-0.1-0.261c-1.487 0.548-2.328 0.606-2.38 0.674-0.036 0.048-4e-3 0.131 0.074 0.209zm0.263-1.329c-0.482-1.361-0.483-2.514 0.497-3.582m0.103 3.379c-0.245-0.639-0.601-2.768-0.074-3.268m0.698 3.056c-0.216-0.704-0.679-2.195-0.627-2.907"/>
</g>
<g transform="matrix(5.1119 0 0 -5.1119 953.17 133.15)" fill="#fedd00" stroke="#000" stroke-width=".11737">
<path d="m0 0c0.064 0.081 0.73 0.196 2.234-0.383l-0.154-0.402c-1.483 0.555-1.979 0.308-2.05 0.405-0.057 0.078-0.098 0.293-0.03 0.38"/>
<path d="m0 0c0.064 0.081 0.73 0.196 2.234-0.383l-0.154-0.402c-1.483 0.555-1.979 0.308-2.05 0.405-0.057 0.078-0.098 0.293-0.03 0.38z"/>
</g>
<g transform="matrix(5.1119 0 0 -5.1119 954.29 126.72)" fill="#fedd00" stroke="#000" stroke-width=".11737">
<path d="m0 0c0.055 0.056 0.752-0.031 2.407-0.622l-0.1-0.261c-1.488 0.548-2.329 0.605-2.381 0.674-0.036 0.047-4e-3 0.131 0.074 0.209"/>
<path d="m0 0c0.055 0.056 0.752-0.031 2.407-0.622l-0.1-0.261c-1.488 0.548-2.329 0.605-2.381 0.674-0.036 0.047-4e-3 0.131 0.074 0.209z"/>
</g>
<g transform="matrix(5.1119 0 0 -5.1119 962.29 136.58)" fill="#fedd00" stroke="#000" stroke-width=".11737">
<path d="m0 0 0.296-0.114-0.711-1.85-0.447 0.179 0.862 1.785z" fill-rule="evenodd"/>
<path d="m0 0 0.296-0.114-0.711-1.85-0.447 0.179 0.862 1.785z"/>
</g>
<g transform="matrix(5.1119 0 0 -5.1119 969.98 105.74)" fill="#fedd00" stroke="#000" stroke-width=".11737">
<path d="M 0,0 0.999,0.439 1.447,-0.555 0,0 Z"/>
<path d="M 0,0 0.999,0.439 1.447,-0.555 0,0 Z"/>
</g>
<g transform="matrix(5.1119 0 0 -5.1119 970.11 111.89)" fill="#fedd00" stroke="#000" stroke-width=".11737">
<path d="M 0,0 0.08,1.163 1.314,0.689 0.596,-0.229 0,0 Z"/>
<path d="M 0,0 0.08,1.163 1.314,0.689 0.596,-0.229 0,0 Z"/>
</g>
<g transform="matrix(5.1119 0 0 -5.1119 950.92 109.15)" fill="#fedd00" stroke="#000" stroke-width=".11737">
<path d="M 0,0 -5.775,1.547 -5.853,1.254 -0.079,-0.294 0,0 Z"/>
<path d="M 0,0 -5.775,1.547 -5.853,1.254 -0.079,-0.294 0,0 Z"/>
</g>
<g transform="matrix(5.1119 0 0 -5.1119 935.51 146.32)" fill="#fedd00" stroke="#000" stroke-width=".11737">
<path d="m0 0-2.131 0.453-0.242-1.14 2.131-0.453 0.242 1.14z"/>
<path d="m0 0-2.131 0.453-0.242-1.14 2.131-0.453 0.242 1.14z"/>
</g>
<g transform="matrix(5.1119 0 0 -5.1119 961.77 157.23)" fill="#fedd00" stroke="#000" stroke-width=".11737">
<path d="m0 0c0.086 0.259 0.101 0.785-0.544 1.02-0.658 0.239-1.307 0.113-1.45-0.281-0.144-0.394 0.272-0.908 0.93-1.147 0.657-0.24 0.988 0.18 1.064 0.408" fill-rule="evenodd"/>
<path d="m0 0c0.086 0.259 0.101 0.785-0.544 1.02-0.658 0.239-1.307 0.113-1.45-0.281-0.144-0.394 0.272-0.908 0.93-1.147 0.657-0.24 0.988 0.18 1.064 0.408z"/>
</g>
<g transform="matrix(5.1119 0 0 -5.1119 898.51 125.89)" fill="#fedd00" stroke="#000" stroke-width=".11737">
<path d="m0 0h0.266 0.051 0.266l0.164-1.976-0.43-7e-3h-0.051l-0.431 7e-3 0.165 1.976z"/>
<path d="m0 0h0.266 0.051 0.266l0.164-1.976-0.43-7e-3h-0.051l-0.431 7e-3 0.165 1.976z"/>
</g>
<g transform="matrix(5.1119 0 0 -5.1119 836.81 145.97)" fill="#fedd00" stroke="#000" stroke-width=".11737">
<path d="m0 0c4.494 1.673 8.738 2.238 12.336 2.262h0.051c3.598-0.024 7.841-0.588 12.336-2.262 0.355-0.253 0.152-1.115-0.354-0.912-4.452 1.781-8.542 2.343-11.982 2.339h-0.051c-3.44 4e-3 -7.53-0.558-11.981-2.339-0.507-0.203-0.71 0.659-0.355 0.912"/>
<path d="m0 0c4.494 1.673 8.738 2.238 12.336 2.262h0.051c3.598-0.024 7.841-0.588 12.336-2.262 0.355-0.253 0.152-1.115-0.354-0.912-4.452 1.781-8.542 2.343-11.982 2.339h-0.051c-3.44 4e-3 -7.53-0.558-11.981-2.339-0.507-0.203-0.71 0.659-0.355 0.912zm11.564 8.055c0.167-0.156 0.608-0.155 0.772 0.183v0.159c7e-3 -0.035 0.015-0.067 0.026-0.098 0.01 0.031 0.019 0.063 0.025 0.098v-0.159c0.164-0.338 0.606-0.339 0.773-0.183-0.038-0.316 0.025-0.646 0.582-0.582 0 0-0.209-0.703 0.741-1.02-0.279 0.044-0.646 0.095-0.924 0.095-0.459 0-0.743 0.038-1.172 0.044h-0.051c-0.43-6e-3 -0.712-0.044-1.171-0.044-0.279 0-0.646-0.051-0.925-0.095 0.95 0.317 0.741 1.02 0.741 1.02 0.557-0.064 0.621 0.266 0.583 0.582z"/>
</g>
<g transform="matrix(5.1119 0 0 -5.1119 888.77 125.96)" fill="#fedd00" stroke="#000" stroke-width=".11737">
<path d="m0 0c0.03 0.098 0.6 0.437 2.172 0.443h0.051c1.574-6e-3 2.142-0.345 2.172-0.443 0.033-0.105-0.082-0.291-0.164-0.344-0.1-0.064-0.468 0.336-2.008 0.356h-0.051c-1.54-0.02-1.908-0.42-2.008-0.356-0.082 0.053-0.197 0.239-0.164 0.344"/>
<path d="m0 0c0.03 0.098 0.6 0.437 2.172 0.443h0.051c1.574-6e-3 2.142-0.345 2.172-0.443 0.033-0.105-0.082-0.291-0.164-0.344-0.1-0.064-0.468 0.336-2.008 0.356h-0.051c-1.54-0.02-1.908-0.42-2.008-0.356-0.082 0.053-0.197 0.239-0.164 0.344z"/>
</g>
<g transform="matrix(5.1119 0 0 -5.1119 887.5 119.55)" fill="#fedd00" stroke="#000" stroke-width=".11737">
<path d="m0 0c0.031 0.071 0.7 0.239 2.419 0.282h0.051c1.719-0.043 2.388-0.211 2.419-0.282 0.044-0.101 0.044-0.19-6e-3 -0.222-0.072-0.045-0.862 0.198-2.413 0.224h-0.051c-1.551-0.026-2.341-0.269-2.413-0.224-0.05 0.032-0.05 0.121-6e-3 0.222"/>
<path d="m0 0c0.031 0.071 0.7 0.239 2.419 0.282h0.051c1.719-0.043 2.388-0.211 2.419-0.282 0.044-0.101 0.044-0.19-6e-3 -0.222-0.072-0.045-0.862 0.198-2.413 0.224h-0.051c-1.551-0.026-2.341-0.269-2.413-0.224-0.05 0.032-0.05 0.121-6e-3 0.222z"/>
</g>
<g transform="matrix(5.1119 0 0 -5.1119 887.5 113.43)" fill="#fedd00" stroke="#000" stroke-width=".11737">
<path d="m0 0c0.031 0.071 0.7 0.239 2.419 0.282h0.051c1.719-0.043 2.388-0.211 2.419-0.282 0.044-0.101 0.044-0.19-6e-3 -0.222-0.072-0.044-0.862 0.198-2.413 0.224h-0.051c-1.551-0.026-2.341-0.268-2.413-0.224-0.05 0.032-0.05 0.121-6e-3 0.222"/>
<path d="m0 0c0.031 0.071 0.7 0.239 2.419 0.282h0.051c1.719-0.043 2.388-0.211 2.419-0.282 0.044-0.101 0.044-0.19-6e-3 -0.222-0.072-0.044-0.862 0.198-2.413 0.224h-0.051c-1.551-0.026-2.341-0.268-2.413-0.224-0.05 0.032-0.05 0.121-6e-3 0.222z"/>
</g>
<g transform="matrix(5.1119 0 0 -5.1119 853.9 148.3)" fill="#fedd00" stroke="#000" stroke-width=".11737">
<path d="m0 0c0 0.154 0.125 0.279 0.279 0.279 0.153 0 0.278-0.125 0.278-0.279s-0.125-0.279-0.278-0.279c-0.154 0-0.279 0.125-0.279 0.279"/>
<path d="m0 0c0 0.154 0.125 0.279 0.279 0.279 0.153 0 0.278-0.125 0.278-0.279s-0.125-0.279-0.278-0.279c-0.154 0-0.279 0.125-0.279 0.279z"/>
</g>
<g transform="matrix(5.1119 0 0 -5.1119 855.58 153.54)" fill="#fedd00" stroke="#000" stroke-width=".11737">
<path d="m0 0c0 0.147 0.119 0.266 0.266 0.266s0.266-0.119 0.266-0.266-0.119-0.266-0.266-0.266-0.266 0.119-0.266 0.266"/>
<path d="m0 0c0 0.147 0.119 0.266 0.266 0.266s0.266-0.119 0.266-0.266-0.119-0.266-0.266-0.266-0.266 0.119-0.266 0.266z"/>
</g>
<g transform="matrix(5.1119 0 0 -5.1119 883.43 142.35)" fill="#fedd00" stroke="#000" stroke-width=".11737">
<path d="m0 0c0.034 0.15 0.184 0.243 0.334 0.209 0.15-0.035 0.243-0.184 0.209-0.334-0.035-0.15-0.184-0.244-0.334-0.209-0.15 0.034-0.243 0.184-0.209 0.334"/>
<path d="m0 0c0.034 0.15 0.184 0.243 0.334 0.209 0.15-0.035 0.243-0.184 0.209-0.334-0.035-0.15-0.184-0.244-0.334-0.209-0.15 0.034-0.243 0.184-0.209 0.334z"/>
</g>
<g transform="matrix(5.1119 0 0 -5.1119 883.89 147.84)" fill="#fedd00" stroke="#000" stroke-width=".11737">
<path d="m0 0c0.033 0.143 0.176 0.232 0.319 0.199s0.233-0.176 0.199-0.318c-0.032-0.144-0.175-0.233-0.319-0.2-0.142 0.033-0.232 0.176-0.199 0.319"/>
<path d="m0 0c0.033 0.143 0.176 0.232 0.319 0.199s0.233-0.176 0.199-0.318c-0.032-0.144-0.175-0.233-0.319-0.2-0.142 0.033-0.232 0.176-0.199 0.319z"/>
</g>
<g transform="matrix(5.1119 0 0 -5.1119 943.94 148.3)" fill="#fedd00" stroke="#000" stroke-width=".11737">
<path d="m0 0c0 0.154 0.125 0.279 0.279 0.279s0.278-0.125 0.278-0.279-0.124-0.279-0.278-0.279-0.279 0.125-0.279 0.279"/>
<path d="m0 0c0 0.154 0.125 0.279 0.279 0.279s0.278-0.125 0.278-0.279-0.124-0.279-0.278-0.279-0.279 0.125-0.279 0.279z"/>
</g>
<g transform="matrix(5.1119 0 0 -5.1119 942.39 153.54)" fill="#fedd00" stroke="#000" stroke-width=".11737">
<path d="m0 0c0 0.147 0.119 0.266 0.266 0.266s0.266-0.119 0.266-0.266-0.119-0.266-0.266-0.266-0.266 0.119-0.266 0.266"/>
<path d="m0 0c0 0.147 0.119 0.266 0.266 0.266s0.266-0.119 0.266-0.266-0.119-0.266-0.266-0.266-0.266 0.119-0.266 0.266z"/>
</g>
<g transform="matrix(5.1119 0 0 -5.1119 917 142.35)" fill="#fedd00" stroke="#000" stroke-width=".11737">
<path d="m0 0c-0.034 0.15-0.184 0.243-0.334 0.209-0.15-0.035-0.243-0.184-0.209-0.334 0.035-0.15 0.184-0.244 0.334-0.209 0.15 0.034 0.244 0.184 0.209 0.334"/>
<path d="m0 0c-0.034 0.15-0.184 0.243-0.334 0.209-0.15-0.035-0.243-0.184-0.209-0.334 0.035-0.15 0.184-0.244 0.334-0.209 0.15 0.034 0.244 0.184 0.209 0.334z"/>
</g>
<g transform="matrix(5.1119 0 0 -5.1119 916.54 147.84)" fill="#fedd00" stroke="#000" stroke-width=".11737">
<path d="m0 0c-0.033 0.143-0.176 0.232-0.319 0.199s-0.232-0.176-0.2-0.318c0.034-0.144 0.176-0.233 0.32-0.2 0.143 0.033 0.232 0.176 0.199 0.319"/>
<path d="m0 0c-0.033 0.143-0.176 0.232-0.319 0.199s-0.232-0.176-0.2-0.318c0.034-0.144 0.176-0.233 0.32-0.2 0.143 0.033 0.232 0.176 0.199 0.319z"/>
</g>
<circle cx="900" cy="304.18" r="150"/>
<circle cx="900" cy="304.18" r="149" fill="#fedd00"/>
<circle cx="900" cy="304.18" r="144"/>
<circle cx="900" cy="304.18" r="143.2" fill="#6ba4b8"/>
<circle cx="900" cy="304.18" r="105.9"/>
<circle cx="900" cy="304.18" r="105.1" fill="#fedd00"/>
<circle cx="900" cy="304.18" r="100.1"/>
<circle cx="900" cy="304.18" r="99.3" fill="#012169"/>
<path d="m808.78 382.42-0.6498-0.89856c1.7413-2.0357 2.6804-3.9699 2.8226-5.7873 0.132-1.8326-0.32998-3.4775-1.391-4.9344-1.0306-1.4214-2.0916-2.188-3.1779-2.3149-1.0965-0.1117-2.0103 0.0914-2.7363 0.61934-0.84779 0.61427-1.3098 1.4316-1.391 2.4469-0.0455 0.67011 0.10153 1.8377 0.45692 3.5028l0.55335 2.6855c0.55842 2.6601 0.69042 4.7263 0.40104 6.1884-0.28934 1.4621-1.0813 2.6652-2.3809 3.6094-1.3808 1.0051-3.0662 1.4011-5.0512 1.1879-1.99-0.22846-3.8024-1.4671-5.437-3.7109-0.83255-1.1473-1.4773-2.3657-1.9392-3.6551-0.46704-1.3047-0.75641-2.0306-0.8681-2.1829-0.24875-0.34522-0.50768-0.51781-0.78179-0.52289-0.27923 0-0.59397 0.0711-0.94933 0.20305l-0.67011-0.92901 6.163-4.4725 0.6295 0.86302c-1.127 1.4519-1.8225 3.0815-2.0916 4.8837-0.27411 1.792 0.13705 3.4419 1.2234 4.9395 0.76657 1.0559 1.6347 1.7006 2.6094 1.9342 0.95948 0.23353 1.8123 0.0812 2.5586-0.46198 0.89348-0.64979 1.3504-1.4214 1.3758-2.32 0.0358-0.89856-0.2183-2.6398-0.7615-5.2289l-0.6498-3.1069c-0.28934-1.3859-0.37058-2.5941-0.24875-3.6247 0.22846-1.9342 1.1067-3.4521 2.6348-4.5638 1.4265-1.0407 3.2287-1.3961 5.4066-1.0762 2.1626 0.31982 4.2339 1.8479 6.2239 4.5842 0.45692 0.6295 0.86302 1.3047 1.2235 2.0357 0.36551 0.71072 0.65995 1.462 0.89855 2.254l0.23352 0.75641c0.066 0.16753 0.13705 0.32493 0.21323 0.47211 0.0711 0.15229 0.13705 0.26905 0.20305 0.36551 0.23352 0.31982 0.48733 0.48228 0.74625 0.47722 0.25893 0 0.57366-0.066 0.95441-0.20306l0.6498 0.89348-7.0057 5.0918z" fill="#fff" fill-rule="evenodd"/>
<path d="m799.09 353.78-0.83764 0.28935c-0.39599-1.0306-0.77673-1.726-1.1524-2.0865-0.57873-0.55842-1.3402-0.67011-2.2895-0.34522l-16.001 5.5081c-0.96962 0.33505-1.4976 0.90871-1.594 1.721-0.066 0.47723 0.0558 1.2488 0.36552 2.32l-0.83764 0.28934-7.2189-20.961 6.6706-2.2946 0.30459 0.8884c-1.9748 1.193-3.1627 2.4824-3.5638 3.8684-0.40611 1.3707-0.10659 3.5181 0.89855 6.4473 0.38581 1.1118 0.73611 1.7819 1.0559 2.0154 0.30969 0.22846 0.77671 0.23352 1.3961 0.0205l7.6606-2.6398c-0.69549-2.0763-1.5179-3.3658-2.4723-3.8582-0.95948-0.48734-2.4469-0.60411-4.4572-0.35028l-0.31475-0.92394 11.174-3.8481 0.31982 0.92394c-1.792 0.90871-2.9343 1.8986-3.4216 2.9647-0.50257 1.061-0.39599 2.6297 0.31475 4.7009l8.0108-2.7566c0.70057-0.2437 1.1118-0.60411 1.2387-1.0813 0.10659-0.48734-0.0506-1.3504-0.4721-2.584-0.8021-2.32-1.8631-4.0714-3.1881-5.2593-1.325-1.1879-3.3048-1.9596-5.9498-2.3251l-0.34522-1.0102 7.3864-0.89347 7.3204 21.261z" fill="#fff" fill-rule="evenodd"/>
<path d="m780.2 307.28-7.9601 3.9648 0.0102 0.31475 8.2139 3.1932-0.26398-7.4727zm7.8586 14.164c-0.0863-0.92393-0.49245-1.655-1.2184-2.1931-0.45692-0.35028-1.4519-0.83256-2.9901-1.457l-19.433-7.8738-0.0404-1.0712 18.073-9.2242c2.0205-1.0356 3.3302-1.8022 3.914-2.2946 0.57873-0.49751 0.83764-1.1828 0.78179-2.0611l0.88841-0.0307 0.43658 12.448-0.8884 0.0307c-0.0863-1.2488-0.21323-2.0662-0.37569-2.4469-0.16247-0.39598-0.54321-0.58381-1.1473-0.5635-0.27411 0.0102-0.68534 0.12693-1.2336 0.34522-0.32493 0.13705-0.72088 0.31981-1.1778 0.54828l-2.0814 1.0508 0.29952 8.6353c1.4062 0.51781 2.3251 0.84779 2.7515 0.99502 0.91378 0.30458 1.5737 0.45181 1.9799 0.43658 0.50257-0.0153 0.85287-0.39599 1.0559-1.1473 0.10659-0.44163 0.15229-1.1016 0.13706-1.9748l0.88332-0.0307 0.27411 7.8484-0.8884 0.0307z" fill="#fff" fill-rule="evenodd"/>
<path d="m790.44 225.09c1.3402-1.0813 2.0611-1.7057 2.1677-1.8631 0.26399-0.41121 0.33505-0.82748 0.20305-1.2539-0.12182-0.44169-0.31982-0.79195-0.59397-1.061l0.58382-0.89855 6.8585 4.4572-0.53304 0.81733c-1.9951-0.18782-3.6805-0.1574-5.0664 0.0913-2.5688 0.48228-4.4725 1.6804-5.7112 3.5942-1.4113 2.1626-1.5585 4.2542-0.45181 6.2696 1.1067 2.0052 3.0815 3.9293 5.9396 5.7822 2.1017 1.3656 4.0003 2.2185 5.7061 2.5688 3.1881 0.6498 5.6604-0.38075 7.422-3.0916 1.0762-1.66 1.66-3.4774 1.7464-5.4522 0.0455-1.1321-0.10659-2.6043-0.45181-4.4116l1.3402-0.49751c0.46198 2.0916 0.67011 3.8024 0.61934 5.1273-0.0812 2.3657-0.79702 4.5892-2.1474 6.6706-2.0712 3.183-4.6603 5.2898-7.7773 6.3305-3.447 1.1473-6.7823 0.68026-10.001-1.4113-3.1881-2.0712-5.0309-4.8888-5.5284-8.4525-0.46198-3.3455 0.31982-6.5691 2.3403-9.681 0.8681-1.3453 1.9849-2.5535 3.3353-3.6348" fill="#fff" fill-rule="evenodd"/>
<path d="m826.76 209.22-7.955-3.975-0.24876 0.20305 2.3911 8.4779 5.8127-4.706zm-6.5792 14.798c0.68534-0.62441 1.0204-1.391 1.0153-2.2946 5e-3 -0.57365-0.20811-1.66-0.63965-3.2642l-5.4015-20.261 0.83256-0.67011 18.235 8.879c2.0459 0.99501 3.447 1.5737 4.1933 1.7463 0.74625 0.16246 1.4468-0.0455 2.1169-0.61427l0.55842 0.69041-9.681 7.8383-0.55843-0.69042c0.94424-0.8224 1.523-1.4164 1.7311-1.7768 0.21829-0.36551 0.13706-0.78179-0.24369-1.2539-0.17259-0.21323-0.50768-0.47211-1.0204-0.77672-0.29952-0.1777-0.68535-0.38075-1.1422-0.61426l-2.0966-1.0255-6.7112 5.437c0.43657 1.4316 0.72088 2.3657 0.85794 2.7972 0.30458 0.90871 0.58888 1.5281 0.84271 1.8428 0.31476 0.39087 0.83256 0.44168 1.5484 0.15229 0.42133-0.1777 0.97471-0.53812 1.6651-1.0813l0.55843 0.69041-6.102 4.9395-0.55843-0.69042z" fill="#fff" fill-rule="evenodd"/>
<path d="m849.36 202.73c0.89349-0.36551 1.5128-0.71072 1.853-1.0305 0.59397-0.57873 0.74119-1.3098 0.43657-2.1931l-5.6147-16.311c-0.29445-0.85287-0.83764-1.325-1.6296-1.4316-0.45181-0.0558-1.1778 0.0404-2.1626 0.29447l-0.28935-0.83764 11.123-3.8277c4.4877-1.5484 8.285-1.6347 11.392-0.27416 2.8226 1.2438 4.8126 3.5333 5.9599 6.8686 1.0306 2.9952 0.82241 5.899-0.61426 8.7216-1.6245 3.1729-4.5131 5.4726-8.6708 6.9042l-11.493 3.9547-0.28935-0.83764zm9.0719-3.9546c0.35028 0.21829 0.92393 0.18782 1.7159-0.0863 2.1575-0.74117 3.6907-2.0357 4.5994-3.8937 0.9087-1.8631 0.68533-4.7669-0.66504-8.6911-0.80718-2.3403-1.8682-4.2186-3.1932-5.6401-2.1372-2.2844-4.64-2.9343-7.5083-1.9494-0.94425 0.32492-1.4976 0.72087-1.655 1.1828-0.11171 0.30458-0.0455 0.79702 0.18782 1.4722l5.6045 16.276c0.26905 0.67011 0.57365 1.1118 0.91379 1.3301" fill="#fff" fill-rule="evenodd"/>
<path d="m884.11 193.11-0.0307-0.88841c1.1016-0.0711 1.8784-0.23352 2.3302-0.48733 0.70057-0.39087 1.0356-1.0864 1.0001-2.0865l-0.58889-16.92c-0.0358-1.0204-0.43151-1.6956-1.1828-2.0256-0.43152-0.19799-1.2082-0.30969-2.32-0.32999l-0.0358-0.88332 22.154-0.77672 0.24876 7.0514-0.93917 0.0307c-0.5635-2.2337-1.4519-3.7465-2.6601-4.5385-1.1879-0.78687-3.3302-1.127-6.427-1.0204-1.1727 0.0404-1.924 0.1777-2.2388 0.42134-0.30457 0.22335-0.44674 0.67011-0.42133 1.3301l0.27922 8.087c2.1931-0.0506 3.6653-0.46198 4.4116-1.2285 0.75133-0.77671 1.2945-2.1626 1.6448-4.1577l0.9747-0.0358 0.41122 11.813-0.9747 0.0307c-0.34522-1.9799-0.95948-3.3607-1.8377-4.1374-0.86809-0.78688-2.3962-1.1473-4.5892-1.0712l0.29446 8.4678c0.0307 0.74118 0.25381 1.2387 0.67518 1.4976 0.43657 0.24369 1.3047 0.34522 2.6043 0.29951 2.4571-0.0863 4.442-0.5838 5.965-1.5077 1.523-0.91378 2.8429-2.584 3.9597-5.0055l1.0712-0.0404-1.3047 7.3306-22.474 0.7818z" fill="#fff" fill-rule="evenodd"/>
<path d="m924.41 170.66 22.378 5.9954-1.792 6.8229-1.0712-0.28429c0.29952-2.5281-0.26399-4.442-1.6905-5.7416-0.80718-0.72088-2.1271-1.3554-3.9648-1.8936l-4.7669 17.783c-0.32999 1.2438-0.31982 2.1322 0.0455 2.6652 0.3757 0.53812 1.3199 1.0052 2.8327 1.4113l-0.23352 0.85795-13.245-3.5485 0.22846-0.85795c1.4519 0.3858 2.4672 0.44169 3.051 0.16246 0.59396-0.28935 1.0559-1.0509 1.3859-2.2794l4.7669-17.783c-1.8276-0.44169-3.2896-0.55843-4.3811-0.34522-2.0154 0.40104-3.4572 1.7768-4.3354 4.1273l-1.0712-0.28934 1.8631-6.8026z" fill="#fff" fill-rule="evenodd"/>
<path d="m1008.7 224.01c0.6194 1.6093 0.9849 2.4926 1.1017 2.6398 0.3045 0.37568 0.6853 0.56857 1.132 0.57873 0.457 0.0204 0.8529-0.0609 1.188-0.23858l0.6751 0.83256-6.3558 5.1476-0.6143-0.75641c0.797-1.8377 1.2894-3.4572 1.4773-4.8481 0.335-2.5941-0.2133-4.772-1.6499-6.5488-1.6245-2.0053-3.5689-2.7921-5.8279-2.3606-2.2439 0.43151-4.6857 1.7159-7.3357 3.8582-1.9443 1.5788-3.3455 3.1221-4.1983 4.6349-1.6042 2.8327-1.391 5.503 0.6447 8.0159 1.2438 1.5382 2.7921 2.65 4.64 3.3455 1.0661 0.39598 2.5129 0.70564 4.3405 0.93409l0.056 1.4265c-2.1322-0.20305-3.8227-0.53811-5.0664-0.99501-2.2287-0.80717-4.1172-2.1778-5.6807-4.107-2.386-2.9495-3.5943-6.0665-3.6146-9.3511-0.026-3.6348 1.4469-6.6605 4.4319-9.0769 2.9546-2.3911 6.2036-3.2744 9.7419-2.6449 3.3252 0.59903 6.1529 2.3352 8.4881 5.2187 1.0102 1.2438 1.8174 2.6754 2.4266 4.2948" fill="#fff" fill-rule="evenodd"/>
<path d="m1011.6 270.07c1.7819 0 3.9547-0.44674 6.5184-1.3301 3.518-1.2082 5.97-2.7058 7.361-4.4826 1.391-1.7616 1.7463-3.6348 1.0661-5.6096-0.9493-2.7515-3.0866-4.1171-6.4219-4.112-1.7667 0.0153-3.914 0.45687-6.4422 1.325-2.5738 0.88841-4.5588 1.8784-5.9497 2.9647-2.5942 2.0205-3.4166 4.4014-2.4723 7.1478 0.9391 2.7261 3.051 4.0917 6.3406 4.0968m15.976-1.5433c-1.3453 3.2541-3.7566 5.4827-7.2341 6.6808s-6.7519 0.92901-9.8181-0.81225c-2.9901-1.7007-5.1172-4.376-6.3762-8.0362-1.3402-3.8836-1.2539-7.4575 0.2589-10.722 1.4316-3.0459 3.7212-5.1121 6.8636-6.1985 3.4673-1.193 6.7264-0.97978 9.7775 0.6498 3.0967 1.6347 5.2948 4.3608 6.6097 8.1733 1.264 3.6704 1.2387 7.092-0.081 10.265" fill="#fff" fill-rule="evenodd"/>
<path d="m1012.3 289.02c0.076 1.2996 0.3147 2.188 0.7107 2.655 0.396 0.46706 1.2438 0.69043 2.5383 0.67012l15.458-0.26905c1.3554-0.0256 2.2286-0.31982 2.6297-0.89348 0.269-0.38075 0.4417-1.2285 0.5229-2.5434l0.8833-0.0153 0.2183 12.377c0.045 2.5687-0.1625 4.6502-0.6245 6.2493-0.9391 3.0967-2.6905 4.6705-5.2644 4.7161-1.9037 0.0307-3.4114-0.71072-4.5333-2.2337-0.8377-1.1625-1.386-2.4012-1.6347-3.711l-9.8232 7.9144c-0.2691 0.21829-0.4468 0.44675-0.533 0.68534-0.076 0.23858-0.1219 0.53304-0.1371 0.88333l-0.8376 0.0153-0.1371-7.8687 10.788-8.1733-0.015-1.0153-6.8483 0.12183c-1.2285 0.0204-2.056 0.25892-2.4824 0.7158-0.4112 0.46198-0.6295 1.3656-0.6498 2.716l-0.8884 0.0204-0.2285-13.001 0.8884-0.0153zm12.387 14.798c0.6346 1.0762 2.0561 1.5991 4.2644 1.5585 1.3504-0.0204 2.4164-0.24876 3.1982-0.67519 1.3199-0.7361 1.9596-2.0509 1.9291-3.9394-0.015-1.0306-0.1523-1.7057-0.396-2.0256-0.2284-0.30969-0.6142-0.46198-1.1523-0.44675l-8.8942 0.15229c0.076 2.518 0.4264 4.305 1.0508 5.3761" fill="#fff" fill-rule="evenodd"/>
<path d="m1018.2 342c0.3198 1.3707 1.5941 2.3911 3.8278 3.0764 1.5229 0.46704 2.8429 0.55843 3.9496 0.28428 1.1067-0.27411 1.9037-1.2082 2.3961-2.8023 0.2183-0.73103 0.2995-1.2844 0.2386-1.66-0.061-0.35534-0.3198-0.60411-0.7767-0.74626l-8.9805-2.7464c-0.6397 2.2032-0.858 3.7364-0.6549 4.5943m-7.0412-16.809c-0.2945 1.2336-0.3148 2.1119-0.056 2.6348 0.264 0.53812 0.9899 0.98993 2.1778 1.3554l14.778 4.5182c1.264 0.38581 2.122 0.42134 2.5789 0.10152 0.467-0.31475 0.9391-1.0559 1.4265-2.2185l0.8478 0.25893-3.6145 11.844c-0.9646 3.1373-2.1525 5.3761-3.579 6.7214-1.4266 1.3605-3.2643 1.6956-5.5234 1.0052-1.0965-0.33505-2.0357-0.9747-2.8022-1.919-0.7666-0.92901-1.2184-2.2185-1.3555-3.8684-0.071-1.2438 0.02-2.4317 0.2742-3.5739 0.2487-1.1422 0.7107-2.8074 1.3859-4.9954l-6.2391-1.9088c-1.2336-0.37564-2.1119-0.39598-2.6297-0.0609-0.5178 0.3401-0.9899 1.127-1.4164 2.3606l-0.8478-0.25893 3.7466-12.255 0.8477 0.25893z" fill="#fff" fill-rule="evenodd"/>
<path d="m1006.5 359.75-0.5889 0.93916c-2.5434-0.85286-4.6857-1.0001-6.427-0.4518-1.7463 0.56349-3.0967 1.6093-4.0562 3.1424-0.9239 1.4874-1.2437 2.7566-0.9493 3.8125 0.3046 1.061 0.8376 1.8276 1.5991 2.3048 0.8884 0.55843 1.8174 0.68027 2.7922 0.37057 0.6345-0.20811 1.66-0.78179 3.0764-1.7311l2.2794-1.523c2.259-1.5128 4.1221-2.4114 5.5893-2.6855 1.462-0.28428 2.8733 0 4.2338 0.85288 1.4519 0.90363 2.447 2.3149 2.9901 4.2339 0.5382 1.9342 0.071 4.0816-1.4011 6.4371-0.7513 1.1981-1.6347 2.254-2.6601 3.1678-1.0356 0.91886-1.5991 1.457-1.7007 1.6194-0.2233 0.36045-0.2893 0.66504-0.1878 0.91886 0.1066 0.25893 0.2843 0.52797 0.5381 0.80718l-0.6041 0.96963-6.4625-4.0359 0.5686-0.90871c1.7717 0.50257 3.5384 0.53304 5.3152 0.10659 1.7616-0.41628 3.1373-1.4164 4.1171-2.985 0.6904-1.1016 0.9645-2.1525 0.8173-3.1424-0.1421-0.97978-0.6041-1.7108-1.3859-2.1982-0.9392-0.58381-1.8276-0.72087-2.6652-0.40611-0.8478 0.29952-2.3708 1.1879-4.5689 2.6652l-2.6297 1.7666c-1.1778 0.78687-2.2692 1.3148-3.2693 1.589-1.8783 0.51274-3.6196 0.26399-5.2238-0.73611-1.4976-0.93409-2.5028-2.4723-3.0206-4.6095-0.5127-2.122 0.127-4.6197 1.919-7.488 0.4112-0.65488 0.8884-1.2894 1.4316-1.8986 0.5228-0.60411 1.1067-1.1625 1.7514-1.6753l0.61431-0.50257c0.1319-0.12183 0.2487-0.24876 0.3553-0.37569 0.1168-0.11676 0.203-0.22335 0.264-0.31982 0.2132-0.34015 0.264-0.63457 0.1624-0.87317-0.096-0.23858-0.2741-0.50257-0.5431-0.80718l0.5838-0.93916 7.3458 4.5892z" fill="#fff" fill-rule="evenodd"/>
<circle cx="900" cy="233.89" r="20"/>
<circle cx="900" cy="233.89" r="19" fill="#fff"/>
<circle cx="900" cy="233.89" r="14"/>
<circle cx="900" cy="233.89" r="13" fill="#012169"/>
<path d="m900 260.39c-7.1862-0.1174-37.694 1.1205-43.137 2.3574-0.5208 4.6617-0.52015 7.5094 0.25586 12.432 0.2604 1.651 31.925 2.55 41.514 2.7851l1.3672 0.028 1.3672-0.028c9.5884-0.2351 41.253-1.1341 41.514-2.7851 0.77601-4.9223 0.77666-7.77 0.25586-12.432-5.4422-1.2369-35.95-2.4748-43.137-2.3574z" fill="#fff" stroke="#000"/>
<rect x="875.6" y="259.78" width="3.8" height="18.8" rx="1" fill="#fff" stroke="#000" stroke-linejoin="round"/>
<rect x="866.68" y="260.28" width="3.8" height="17.8" rx="1" fill="#fff" stroke="#000" stroke-linejoin="round"/>
<rect transform="scale(-1,1)" x="-933.32" y="260.28" width="3.8" height="17.8" rx="1" fill="#fff" stroke="#000" stroke-linejoin="round"/>
<path d="m905.93 242.12c1.3951-1.7542 3.7699-6.3652 5.9754-6.3652 3.7032 0 5.3292 3.18 5.3292 6.8833 0 3.2826-2.8262 5.719-6.1088 5.719-3.1185 0-5.7138-2.3389-5.1958-6.237" fill="#fff" fill-rule="evenodd" stroke="#000"/>
<path d="m917.1 241.35c-7.5347 6.4935-6.6268 11.043-1.9491 15.331 8.7041-7.7962 7.1448-11.566 1.9491-15.331" fill="#fff" fill-rule="evenodd" stroke="#000"/>
<path d="m921.22 248.09c-8.4579 5.2368-6.3345 12.397-3.4724 15.09 9.8171-6.3396 8.0168-10.556 3.4724-15.09" fill="#fff" fill-rule="evenodd" stroke="#000"/>
<path d="m924.24 255.9c-8.0578 4.6778-8.1245 12.315-5.4574 15.203 8.1861-5.9806 8.4476-9.7453 5.4574-15.203" fill="#fff" fill-rule="evenodd" stroke="#000"/>
<path d="m924.5 265.38c-8.0578 4.6778-9.5555 12.838-6.8833 15.721 8.1809-5.9754 9.8735-10.263 6.8833-15.721" fill="#fff" fill-rule="evenodd" stroke="#000"/>
<path d="m924.76 274.09c-7.7962 5.5856-10.653 11.171-10.781 14.161 11.043-0.77963 13.772-8.7041 10.781-14.161" fill="#fff" fill-rule="evenodd" stroke="#000"/>
<path d="m921.26 285.78c-10.392 2.4671-12.412 7.9194-13.905 10.397 10.72 3.6314 14.295-0.52317 13.905-10.397" fill="#fff" fill-rule="evenodd" stroke="#000"/>
<path d="m917.36 296.43c-1.9132 4.0417-3.8314 6.3447-10.099 7.8988l-0.0872-8.3143c2.2722-0.76937 5.5394-0.80014 10.186 0.41546" fill="#fff" fill-rule="evenodd" stroke="#000"/>
<path d="m888.64 307.22c0.74373-1.231 1.8773-2.7851 4.1084-4.3392l-0.0564 5.483c-1.2361-0.2667-2.5902-0.64626-4.052-1.1438" fill="#fff" fill-rule="evenodd" stroke="#000"/>
<path d="m881.37 317.48c1.3951-2.3081 0.86683-9.3658 11.356-11.771l-0.10258 9.6376c-2.1029 1.9901-5.6625 2.5953-11.253 2.1337" fill="#fff" fill-rule="evenodd" stroke="#000"/>
<path d="m892.54 313.71c-12.992 1.8208-16.5 7.7962-10.525 15.721 5.3292-7.0166 10.915-5.8472 10.525-15.721" fill="#fff" fill-rule="evenodd" stroke="#000"/>
<path d="m899.79 237.19-6.3379 0.77859-1.2988 120.96c0 5.7343-7.5355 8.5736-11.475 8.2812-5.1444-0.3846-16.849-3.3492-20.49-12.961l4.4219-5.1953c-6.9858-1.0003-14.295-3.1182-22.609-6.4982 0.99503 10.976 2.8983 18.44 3.8984 24.426 0 0 3.6364-2.595 5.7188-4.1543 1.5592 4.6777 4.61 6.7529 7.6055 8.9942 4.7392 3.4929 13.213 7.9554 17.08 9.4531 7.7294 2.8672 13.68 2.6709 23.697 12.211 10.017-9.54 15.968-9.3436 23.697-12.211 3.8672-1.4977 12.341-5.9602 17.08-9.4531 2.9954-2.2413 6.0463-4.3165 7.6055-8.9942 2.0824 1.5593 5.7188 4.1543 5.7188 4.1543 1.0002-5.9856 2.9034-13.45 3.8984-24.426-8.3142 3.38-15.624 5.4979-22.609 6.4981l4.4219 5.1953c-3.6416 9.6117-15.346 12.576-20.49 12.961-3.9391 0.2924-11.475-2.5469-11.475-8.2812l-1.2988-120.96-6.3379-0.77859z" fill="#fff" stroke="#000"/>
<path d="m891.11 320.86c-10.915 2.7287-11.951 12.084-3.8981 16.629 5.3292-7.0115 4.4162-6.755 3.8981-16.629" fill="#fff" fill-rule="evenodd" stroke="#000"/>
<path d="m891.5 328.92c-4.9393 4.0264-8.0578 11.694 2.3389 16.111 3.2467-7.4064 2.2106-12.084-2.3389-16.111" fill="#fff" fill-rule="evenodd" stroke="#000"/>
<path d="m895.27 334.24c-1.431 4.5495-5.9754 13.905 6.4986 15.459 0.90785-7.0115 0.25645-13.382-6.4986-15.459" fill="#fff" fill-rule="evenodd" stroke="#000"/>
<path d="m900.73 338.27c-0.65139 4.806-0.51804 15.592 7.6629 17.28 2.7338-7.7962 0.77962-15.721-7.6629-17.28" fill="#fff" fill-rule="evenodd" stroke="#000"/>
<path d="m909.04 344.77c-0.65139 4.806-2.0773 15.849 4.0264 18.967 5.0676-7.5347 5.9754-16.239-4.0264-18.967" fill="#fff" fill-rule="evenodd" stroke="#000"/>
<path d="m916.71 353.86c6.5499 5.3804 5.8318 7.4988 1.9286 13.372-1.431-0.0205-3.1903-0.37955-4.8675-1.0771-2.9903-4.5649 2.621-8.4733 2.939-12.294" fill="#fff" fill-rule="evenodd" stroke="#000"/>
<path d="m921.52 360.75c2.1491 2.2004 3.1493 3.9546 3.1749 5.4933-2.0773 0.56932-3.9648 0.86681-5.3702 0.96939-0.318 0.0257-0.66679 0.0257-1.031 0.0102 0.51291-2.4825 2.0363-3.7545 3.2262-6.473" fill="#fff" fill-rule="evenodd" stroke="#000"/>
<path d="m924.24 385.95c-1.9132 0-3.5237-1.4926-4.0058-3.5237 1.1233-0.34365 2.2722-0.71296 3.4622-1.1541 1.1335-0.43597 2.662-1.1335 4.3803-1.985 0.20517 0.57447 0.32314 1.2002 0.32314 1.8567 0 2.6569-1.8619 4.806-4.1597 4.806" fill="#fff" stroke="#000"/>
<g transform="matrix(5.1029 .035893 .035893 -5.1029 784.16 466.14)" stroke-width=".13671">
<path d="m0 0c0 2.989-0.147 7.444-0.203 8.562-0.101 2.027-6.484 3.698-7.396-2.584 0.101-1.976 0.571-9.112 0.506-9.524-0.456-2.888 5.674-4.205 7.093-4.104s6.792 0.662 8.511 0.811c2.939 0.253 8.816-1.483 12.818-1.52 5.472-0.051 8.765 1.722 12.412 1.824 1.826 0.05 7.042-0.963 10.589-0.76 3.546 0.202 8.005 2.989 8.41 4.205 0.317 0.951 0.198 9.933 0.05 11.449-0.202 2.078-5.674 3.952-6.636 0.456 0-1.57-0.152-7.751-0.051-8.359-3.394-0.76-8.207 0.912-12.564 0.861-2.138-0.025-8.208-1.368-10.741-1.368s-7.901 1.078-10.234 1.115c-3.242 0.051-7.244-0.861-12.564-1.064" fill="#fedd00" fill-rule="evenodd"/>
<path d="m0 0c0 2.989-0.147 7.444-0.203 8.562-0.101 2.027-6.484 3.698-7.396-2.584 0.101-1.976 0.571-9.112 0.506-9.524-0.456-2.888 5.674-4.205 7.093-4.104s6.792 0.662 8.511 0.811c2.939 0.253 8.816-1.483 12.818-1.52 5.472-0.051 8.765 1.722 12.412 1.824 1.826 0.05 7.042-0.963 10.589-0.76 3.546 0.202 8.005 2.989 8.41 4.205 0.317 0.951 0.198 9.933 0.05 11.449-0.202 2.078-5.674 3.952-6.636 0.456 0-1.57-0.152-7.751-0.051-8.359-3.394-0.76-8.207 0.912-12.564 0.861-2.138-0.025-8.208-1.368-10.741-1.368s-7.901 1.078-10.234 1.115c-3.242 0.051-7.244-0.861-12.564-1.064zm-0.152 8.613c-0.405-1.419-1.723-1.926-3.293-2.027 0 0 0.215-5.636 0.253-6.231m49.396 8.41c0.102-1.419 1.47-1.672 2.888-1.672l0.101-5.725m-3.191-0.912c3.584 0.291 6.294 2.495 6.89 6.079m-52.892-6.535c-6.282-0.608-7.194 4.306-7.599 5.421m0.506-7.751c0.887-3.851 5.674-4.205 7.093-4.104s6.792 0.662 8.511 0.81c2.939 0.254 8.816-1.482 12.818-1.519 5.472-0.051 8.765 1.722 12.412 1.823 1.826 0.051 7.042-0.962 10.589-0.76 3.546 0.203 7.498 2.432 8.536 4.636m-60.212 3.825c0.608-1.317 1.57-3.141 7.346-3.597 5.32 0.203 9.322 1.115 12.564 1.064 2.333-0.036 7.701-1.115 10.234-1.115s8.603 1.343 10.741 1.368c4.357 0.051 9.068-1.621 12.463-0.861 3.584 0.291 5.522 2.229 6.94 4.306" fill="none" stroke="#000" stroke-width=".23435"/>
</g>
<g transform="matrix(5.1029 .035893 .035893 -5.1029 765.58 491.71)">
<path d="m0 0c0.178-0.01 0.303 0.01 0.374 0.061 0.071 0.052 0.116 0.174 0.137 0.369l0.243 2.315c0.021 0.203-3e-3 0.339-0.073 0.409-0.047 0.046-0.159 0.086-0.337 0.121l0.014 0.133 1.686-0.177c0.35-0.037 0.629-0.103 0.838-0.2 0.404-0.192 0.586-0.481 0.545-0.867-0.029-0.284-0.158-0.498-0.385-0.639-0.173-0.106-0.351-0.167-0.534-0.182l0.898-1.603c0.024-0.044 0.052-0.074 0.083-0.091 0.031-0.016 0.07-0.028 0.118-0.036l-0.013-0.126-1.072 0.113-0.916 1.752-0.138 0.015-0.108-1.026c-0.019-0.185-2e-3 -0.313 0.053-0.384 0.055-0.069 0.174-0.117 0.357-0.143l-0.013-0.133-1.771 0.186 0.014 0.133zm2.235 1.602c0.158 0.076 0.255 0.28 0.289 0.611 0.022 0.202 0.01 0.366-0.034 0.489-0.076 0.21-0.243 0.329-0.5 0.356-0.14 0.015-0.234 6e-3 -0.282-0.025-0.046-0.029-0.074-0.084-0.082-0.165l-0.14-1.333c0.343-0.031 0.593-8e-3 0.749 0.067" fill-rule="evenodd"/>
</g>
<g transform="matrix(5.1029 .035893 .035893 -5.1029 786.24 494.33)">
<path d="m0 0-9e-3 0.133c0.15 0.016 0.255 0.044 0.316 0.084 0.094 0.062 0.135 0.168 0.125 0.319l-0.178 2.543c-0.011 0.154-0.068 0.254-0.173 0.3-0.06 0.028-0.167 0.041-0.32 0.04l-9e-3 0.133 3.028 0.212 0.074-1.06-0.128-9e-3c-0.09 0.334-0.221 0.558-0.39 0.672-0.168 0.113-0.463 0.155-0.886 0.125-0.161-0.011-0.262-0.035-0.304-0.072-0.041-0.036-0.058-0.103-0.051-0.202l0.086-1.217c0.299 0.018 0.498 0.086 0.596 0.204 0.099 0.121 0.166 0.332 0.201 0.634l0.134 9e-3 0.124-1.776-0.134-9e-3c-0.058 0.296-0.15 0.501-0.275 0.615-0.123 0.115-0.334 0.162-0.634 0.141l0.089-1.273c8e-3 -0.111 0.042-0.185 0.101-0.222 0.061-0.036 0.18-0.047 0.358-0.035 0.336 0.024 0.605 0.108 0.808 0.253s0.374 0.402 0.513 0.771l0.147 0.01-0.137-1.108-3.072-0.215z" fill-rule="evenodd"/>
</g>
<g transform="matrix(5.1029 .035893 .035893 -5.1029 813.04 485.38)">
<path d="m0 0-0.629 1.16-0.043-5e-3 -0.346-1.262 1.018 0.107zm-1.849-1.309c0.125 0.021 0.221 0.089 0.286 0.203 0.043 0.072 0.098 0.226 0.166 0.462l0.863 2.991 0.146 0.016 1.458-2.631c0.164-0.295 0.283-0.484 0.358-0.568 0.074-0.081 0.17-0.114 0.289-0.098l0.014-0.133-1.696-0.179-0.014 0.133c0.17 0.025 0.28 0.051 0.331 0.079 0.052 0.028 0.073 0.087 0.064 0.177-4e-3 0.041-0.025 0.102-0.061 0.183-0.022 0.047-0.051 0.105-0.088 0.172l-0.166 0.303-1.177-0.124c-0.055-0.216-0.09-0.357-0.105-0.422-0.032-0.14-0.045-0.24-0.039-0.302 8e-3 -0.075 0.064-0.124 0.168-0.148 0.062-0.012 0.153-0.013 0.272-2e-3l0.014-0.133-1.069-0.112-0.014 0.133z" fill-rule="evenodd"/>
</g>
<g transform="matrix(5.1029 .035893 .035893 -5.1029 823.7 489.8)">
<path d="m0 0c0.132 2e-3 0.228 0.016 0.288 0.042 0.106 0.048 0.162 0.142 0.17 0.282l0.136 2.595c6e-3 0.135-0.037 0.232-0.132 0.29-0.055 0.034-0.152 0.06-0.29 0.08l7e-3 0.134 1.608-0.085c0.65-0.034 1.136-0.233 1.459-0.597 0.293-0.331 0.426-0.762 0.398-1.293-0.025-0.476-0.202-0.872-0.531-1.186-0.371-0.353-0.857-0.514-1.458-0.482l-1.662 0.087 7e-3 0.133zm1.355 0.047c0.033-0.049 0.107-0.077 0.222-0.083 0.312-0.016 0.574 0.08 0.786 0.289 0.212 0.21 0.334 0.628 0.367 1.253 0.019 0.372-0.018 0.694-0.112 0.967-0.152 0.439-0.435 0.669-0.85 0.691-0.137 7e-3 -0.228-0.017-0.271-0.074-0.03-0.036-0.048-0.108-0.053-0.216l-0.136-2.589c0-0.108 0.015-0.188 0.047-0.238" fill-rule="evenodd"/>
</g>
<g transform="matrix(5.1029 .035893 .035893 -5.1029 854.44 475.35)">
<path d="m0 0-0.023-0.132c-0.181 0.022-0.298 0.029-0.352 0.02-0.054-8e-3 -0.085-0.038-0.095-0.093-4e-3 -0.023-4e-3 -0.05-1e-3 -0.08 6e-3 -0.029 0.019-0.083 0.04-0.161l0.429-1.361 0.043-8e-3 0.718 0.814c0.045 0.05 0.094 0.111 0.147 0.186 0.081 0.112 0.127 0.198 0.137 0.258 0.017 0.091-9e-3 0.158-0.076 0.201-0.046 0.029-0.151 0.064-0.316 0.105l0.023 0.132 1.14-0.201-0.023-0.132c-0.085 0-0.155-6e-3 -0.207-0.018-0.068-0.021-0.129-0.061-0.183-0.119l-1.275-1.439-0.169-0.956c-0.035-0.197-0.023-0.331 0.034-0.4 0.058-0.068 0.179-0.12 0.364-0.158l-0.023-0.132-1.802 0.318 0.024 0.131c0.193-0.028 0.326-0.018 0.4 0.032 0.075 0.049 0.129 0.169 0.162 0.358l0.135 0.762-0.644 1.89c-0.043 0.124-0.105 0.217-0.189 0.279-0.055 0.039-0.114 0.065-0.176 0.079l0.022 0.131 1.736-0.306z" fill-rule="evenodd"/>
</g>
<g transform="matrix(5.1029 .035893 .035893 -5.1029 880.71 489.87)">
<path d="m0 0-0.352 1.272-0.043 5e-3 -0.621-1.152 1.016-0.125zm-2.096-0.86c0.126-7e-3 0.235 0.037 0.325 0.134 0.057 0.06 0.146 0.198 0.265 0.413l1.514 2.72 0.146-0.018 0.829-2.891c0.093-0.324 0.167-0.535 0.22-0.634 0.054-0.096 0.141-0.15 0.26-0.161l-0.016-0.133-1.693 0.208 0.016 0.133c0.171-0.014 0.285-0.014 0.34 2e-3 0.057 0.015 0.091 0.069 0.103 0.159 5e-3 0.041-1e-3 0.104-0.018 0.191-0.011 0.051-0.027 0.114-0.047 0.187l-0.094 0.333-1.175 0.145c-0.102-0.199-0.168-0.328-0.198-0.388-0.062-0.129-0.097-0.224-0.105-0.286-9e-3 -0.075 0.034-0.135 0.131-0.181 0.057-0.026 0.145-0.048 0.264-0.064l-0.016-0.133-1.067 0.131 0.016 0.133z" fill-rule="evenodd"/>
</g>
<g transform="matrix(5.1029 .035893 .035893 -5.1029 896.44 478.9)">
<path d="m0 0 5e-3 -0.134c-0.182-0.016-0.297-0.034-0.349-0.053-0.05-0.019-0.075-0.056-0.073-0.111 1e-3 -0.024 6e-3 -0.05 0.016-0.079 0.011-0.027 0.035-0.077 0.072-0.149l0.702-1.243 0.044 2e-3 0.533 0.946c0.034 0.058 0.07 0.128 0.106 0.212 0.056 0.127 0.083 0.221 0.08 0.28-3e-3 0.093-0.042 0.154-0.116 0.182-0.051 0.019-0.161 0.031-0.331 0.037l-5e-3 0.134 1.157 0.041 5e-3 -0.134c-0.084-0.019-0.15-0.039-0.199-0.061-0.062-0.035-0.114-0.087-0.154-0.155l-0.948-1.673 0.034-0.969c6e-3 -0.201 0.045-0.329 0.116-0.385 0.07-0.054 0.2-0.08 0.389-0.079l4e-3 -0.134-1.827-0.064-5e-3 0.134c0.195 0.012 0.323 0.05 0.385 0.114 0.063 0.064 0.091 0.192 0.084 0.384l-0.027 0.774-1.023 1.715c-0.067 0.112-0.148 0.19-0.242 0.233-0.063 0.027-0.126 0.04-0.19 0.04l-4e-3 0.134 1.761 0.061z" fill-rule="evenodd"/>
</g>
<g transform="matrix(5.1029 .035893 .035893 -5.1029 908.76 496.55)">
<path d="m0 0-0.023 0.131c0.147 0.032 0.249 0.071 0.306 0.117 0.086 0.071 0.117 0.181 0.091 0.33l-0.443 2.51c-0.027 0.152-0.095 0.246-0.204 0.281-0.063 0.022-0.17 0.024-0.322 6e-3l-0.023 0.131 2.989 0.528 0.185-1.047-0.127-0.022c-0.125 0.323-0.277 0.531-0.458 0.627-0.179 0.096-0.477 0.106-0.894 0.033-0.159-0.028-0.257-0.063-0.295-0.104-0.037-0.04-0.046-0.108-0.029-0.207l0.212-1.2c0.296 0.048 0.487 0.137 0.572 0.265 0.085 0.13 0.13 0.347 0.134 0.651l0.132 0.023 0.309-1.754-0.132-0.023c-0.09 0.289-0.202 0.484-0.338 0.583-0.135 0.102-0.35 0.127-0.645 0.075l0.221-1.257c0.019-0.11 0.061-0.18 0.123-0.211 0.065-0.029 0.185-0.027 0.361 4e-3 0.33 0.058 0.589 0.17 0.776 0.335 0.187 0.166 0.33 0.439 0.43 0.821l0.145 0.025-0.02-1.116-3.033-0.535z" fill-rule="evenodd"/>
</g>
<g transform="matrix(5.1029 .035893 .035893 -5.1029 936.54 491.33)">
<path d="m0 0c0.177 0.024 0.295 0.068 0.355 0.132s0.082 0.193 0.064 0.388l-0.202 2.319c-0.018 0.204-0.068 0.333-0.151 0.387-0.055 0.037-0.172 0.055-0.353 0.055l-0.012 0.133 1.689 0.148c0.35 0.03 0.637 0.018 0.861-0.036 0.433-0.112 0.667-0.361 0.701-0.747 0.024-0.286-0.061-0.519-0.257-0.702-0.15-0.137-0.313-0.23-0.489-0.28l1.186-1.402c0.033-0.038 0.066-0.063 0.1-0.074 0.033-9e-3 0.074-0.013 0.123-0.012l0.01-0.126-1.073-0.094-1.233 1.545-0.139-0.012 0.09-1.028c0.016-0.184 0.058-0.306 0.125-0.366 0.068-0.058 0.193-0.082 0.379-0.073l0.011-0.133-1.773-0.155-0.012 0.133zm1.888 1.999c0.141 0.105 0.197 0.324 0.168 0.655-0.018 0.203-0.06 0.362-0.127 0.474-0.115 0.192-0.301 0.276-0.559 0.254-0.14-0.013-0.231-0.039-0.272-0.078-0.04-0.038-0.056-0.098-0.049-0.178l0.117-1.335c0.342 0.035 0.583 0.105 0.722 0.208" fill-rule="evenodd"/>
</g>
<g transform="matrix(5.1029 .035893 .035893 -5.1029 956.62 490.04)">
<path d="m0 0 0.014 0.133c0.151-0.011 0.26-1e-3 0.326 0.028 0.103 0.044 0.163 0.141 0.179 0.291l0.266 2.536c0.016 0.154-0.023 0.262-0.118 0.326-0.055 0.038-0.158 0.07-0.309 0.094l0.014 0.133 3.019-0.317-0.111-1.057-0.127 0.014c-0.032 0.344-0.121 0.587-0.268 0.729-0.146 0.141-0.429 0.233-0.85 0.278-0.161 0.017-0.265 0.01-0.313-0.019-0.046-0.028-0.074-0.091-0.084-0.19l-0.128-1.213c0.298-0.035 0.506-2e-3 0.623 0.097 0.118 0.102 0.221 0.298 0.308 0.589l0.133-0.014-0.186-1.771-0.133 0.014c-6e-3 0.303-0.061 0.521-0.164 0.654-0.102 0.135-0.301 0.218-0.6 0.249l-0.133-1.269c-0.012-0.111 8e-3 -0.189 0.06-0.236 0.054-0.046 0.17-0.078 0.347-0.096 0.334-0.036 0.614 1e-3 0.839 0.108s0.439 0.331 0.64 0.67l0.146-0.015-0.327-1.068-3.063 0.322z" fill-rule="evenodd"/>
</g>
<g transform="matrix(5.1029 .035893 .035893 -5.1029 986.54 487.16)">
<path d="m0 0-0.374 1.265-0.044 5e-3 -0.6-1.163 1.018-0.107zm-2.081-0.896c0.127-5e-3 0.235 0.041 0.322 0.139 0.057 0.061 0.143 0.201 0.259 0.418l1.466 2.746 0.146-0.016 0.88-2.875c0.098-0.323 0.175-0.533 0.231-0.631 0.055-0.095 0.143-0.147 0.263-0.156l-0.014-0.133-1.697 0.178 0.014 0.133c0.171-0.011 0.285-8e-3 0.34 8e-3 0.057 0.017 0.09 0.07 0.099 0.16 5e-3 0.042-2e-3 0.105-0.021 0.192-0.011 0.051-0.029 0.113-0.05 0.186l-0.1 0.331-1.177 0.124c-0.098-0.2-0.162-0.331-0.191-0.391-0.06-0.13-0.093-0.226-0.1-0.287-8e-3 -0.075 0.037-0.135 0.134-0.18 0.058-0.025 0.146-0.045 0.265-0.059l-0.013-0.133-1.07 0.113 0.014 0.133z" fill-rule="evenodd"/>
</g>
<g transform="matrix(5.1029 .035893 .035893 -5.1029 996.35 494)">
<path d="m0 0c0.132 8e-3 0.227 0.027 0.285 0.057 0.103 0.053 0.155 0.15 0.155 0.29v2.599c0 0.135-0.049 0.23-0.147 0.283-0.056 0.03-0.154 0.052-0.293 0.064v0.134h1.611c0.649 0 1.145-0.173 1.487-0.52 0.31-0.315 0.465-0.739 0.465-1.271 0-0.477-0.156-0.88-0.468-1.211-0.352-0.373-0.828-0.559-1.43-0.559h-1.665v0.134zm1.351 0.118c0.036-0.048 0.111-0.072 0.226-0.072 0.312 0 0.569 0.11 0.769 0.33 0.201 0.221 0.301 0.644 0.301 1.271 0 0.372-0.054 0.691-0.162 0.959-0.175 0.431-0.47 0.646-0.885 0.646-0.137 0-0.226-0.029-0.267-0.088-0.028-0.037-0.041-0.11-0.041-0.218v-2.594c5e-3 -0.108 0.025-0.186 0.059-0.234" fill-rule="evenodd"/>
</g>
<g transform="matrix(5.1029 .035893 .035893 -5.1029 1020.8 474.08)">
<path d="m0 0 0.03-0.13c-0.175-0.051-0.285-0.091-0.332-0.119-0.046-0.029-0.063-0.069-0.051-0.123 6e-3 -0.023 0.016-0.048 0.031-0.075 0.016-0.024 0.049-0.068 0.099-0.132l0.927-1.086 0.042 0.01 0.344 1.03c0.022 0.063 0.043 0.139 0.063 0.228 0.03 0.136 0.038 0.233 0.025 0.292-0.021 0.09-0.071 0.141-0.149 0.155-0.053 9e-3 -0.164 0-0.332-0.026l-0.031 0.13 1.128 0.26 0.031-0.13c-0.079-0.034-0.14-0.066-0.184-0.098-0.054-0.046-0.095-0.106-0.122-0.181l-0.611-1.823 0.218-0.945c0.046-0.196 0.108-0.314 0.188-0.355 0.08-0.04 0.212-0.041 0.397-4e-3l0.03-0.13-1.783-0.412-0.03 0.131c0.19 0.049 0.308 0.11 0.356 0.185 0.05 0.075 0.053 0.205 0.01 0.393l-0.174 0.754-1.331 1.489c-0.088 0.097-0.182 0.158-0.283 0.182-0.066 0.015-0.131 0.016-0.193 3e-3l-0.03 0.131 1.717 0.396z" fill-rule="evenodd"/>
</g>
<path d="m886 436.79h28l-14-24.17z" fill="#fff"/>
<path d="m886 420.67h28l-14 24.17z" fill="#fff"/>
</svg>
