<?xml version="1.0" encoding="UTF-8" standalone="no"?>
<svg
   xmlns:dc="http://purl.org/dc/elements/1.1/"
   xmlns:cc="http://creativecommons.org/ns#"
   xmlns:rdf="http://www.w3.org/1999/02/22-rdf-syntax-ns#"
   xmlns:svg="http://www.w3.org/2000/svg"
   xmlns="http://www.w3.org/2000/svg"
   xmlns:sodipodi="http://sodipodi.sourceforge.net/DTD/sodipodi-0.dtd"
   xmlns:inkscape="http://www.inkscape.org/namespaces/inkscape"
   width="2560"
   height="1279.9999"
   viewBox="0 0 60480.006 30239.996"
   id="svg2"
   version="1.1"
   inkscape:version="0.48.2 r9819"
   sodipodi:docname="AJAX1.svg">
  <metadata
     id="metadata23">
    <rdf:RDF>
      <cc:Work
         rdf:about="">
        <dc:format>image/svg+xml</dc:format>
        <dc:type
           rdf:resource="http://purl.org/dc/dcmitype/StillImage" />
        <dc:title />
      </cc:Work>
    </rdf:RDF>
  </metadata>
  <sodipodi:namedview
     pagecolor="#ffffff"
     bordercolor="#666666"
     borderopacity="1"
     objecttolerance="10"
     gridtolerance="10"
     guidetolerance="10"
     inkscape:pageopacity="0"
     inkscape:pageshadow="2"
     inkscape:window-width="1280"
     inkscape:window-height="1004"
     id="namedview21"
     showgrid="false"
     fit-margin-top="0"
     fit-margin-left="0"
     fit-margin-right="0"
     fit-margin-bottom="0"
     inkscape:zoom="0.19976932"
     inkscape:cx="1855.751"
     inkscape:cy="-179.51352"
     inkscape:window-x="-8"
     inkscape:window-y="-8"
     inkscape:window-maximized="1"
     inkscape:current-layer="svg2" />
  <defs
     id="defs6">
    <polygon
       points="0,-9 0,-9 1.735535,-3.6038755 7.0364833,-5.6114082 3.8997116,-0.89008374 8.7743512,2.0026884 3.1273259,2.4939592 3.9049537,8.1087198 0,4 -3.9049537,8.1087198 -3.1273259,2.4939592 -8.7743512,2.0026884 -3.8997116,-0.89008374 -7.0364833,-5.6114082 -1.735535,-3.6038755 "
       id="Star7" />
    <polygon
       points="0,4 -5.2900673,7.2811529 -3.8042261,1.236068 -8.5595086,-2.7811529 -2.351141,-3.236068 0,-9 0,-9 2.351141,-3.236068 8.5595086,-2.7811529 3.8042261,1.236068 5.2900673,7.2811529 "
       id="Star5" />
  </defs>
  <path
     d="m 0,-0.00205804 60480.006,0 0,30240.00105804 -60480.006,0 z"
     style="fill:#002776;fill-opacity:1;stroke:none"
     id="path2997"
     inkscape:connector-curvature="0"
     sodipodi:nodetypes="ccccc" />
  <path
     d="m 0,-0.00205804 30240,0 0,15120.00005804 -30240,0 z"
     style="fill:#ffffff;fill-opacity:1;stroke:none"
     id="path2999"
     inkscape:connector-curvature="0"
     sodipodi:nodetypes="ccccc" />
  <path
     d="m 0,-0.00205804 15120,0 0,7560.00045804 -15120,0 z"
     style="fill:#002776;fill-opacity:1;stroke:none"
     id="path3001"
     inkscape:connector-curvature="0"
     sodipodi:nodetypes="ccccc" />
  <path
     inkscape:connector-curvature="0"
     d="m 6300,-0.00205804 2520,0 0,2520.00025804 6300,0 0,2519.9999 -6300,0 0,2520.0003 -2520,0 0,-2520.0003 -6300,0 0,-2519.9999 6300,0 0,-2520.00025804 z"
     id="path3003"
     style="fill:#ffffff;stroke:none" />
  <path
     inkscape:connector-curvature="0"
     d="m 0,-0.00205804 1690.467,0 L 15120,6714.7645 l 0,845.2339 -1690.467,0 L 0,845.23214 0,-0.00205804 z"
     id="path3005"
     style="fill:#ffffff;stroke:none" />
  <path
     inkscape:connector-curvature="0"
     d="m 15120,-0.00205804 -1690.467,0 L 0,6714.7645 l 0,845.2339 1690.467,0 L 15120,845.23214 l 0,-845.23419804 z"
     id="path3007"
     style="fill:#ffffff;stroke:none" />
  <path
     inkscape:connector-curvature="0"
     d="m 6804,-0.00205804 1512,0 0,3024.00035804 6804,0 0,1511.9999 -6804,0 0,3024.0002 -1512,0 0,-3024.0002 -6804,0 0,-1511.9999 6804,0 0,-3024.00035804 z"
     id="path3009"
     style="fill:#e00034;fill-opacity:1;stroke:none" />
  <path
     inkscape:connector-curvature="0"
     d="M 0,-0.00205804 5040,2519.9982 l -1126.978,0 L 0,563.48714 0,-0.00205804 z m 15120,0 -1126.978,0 -5040,2520.00025804 1126.978,0 5040,-2520.00025804 z"
     id="path3011"
     style="fill:#e00034;stroke:none" />
  <path
     inkscape:connector-curvature="0"
     d="m 15120,7559.9984 -5040,-2520.0003 1126.978,0 3913.022,1956.5111 0,563.4892 z m -15120,0 1126.978,0 5040,-2520.0003 -1126.978,0 L 0,7559.9984 z"
     id="path3013"
     style="fill:#e00034;stroke:none" />
  <path
     id="path3016"
     d="m 9333.194,10038.215 -790.467,1189.773 1228.409,728.977 -1423.05,123.801 195.962,1414.919 -984.048,-1035.397 -984.048,1035.397 195.962,-1414.919 -1423.05,-123.801 1228.409,-728.977 -790.467,-1189.773 1335.839,505.898 437.355,-1359.8243 0,0 437.355,1359.8243 z"
     style="fill:#002776;fill-opacity:1;stroke:none"
     inkscape:connector-curvature="0" />
  <path
     id="path3018"
     d="m 23524.381,11980.106 -376.413,566.558 584.957,347.132 -677.643,58.953 93.316,673.771 -468.595,-493.046 -468.594,493.046 93.315,-673.771 -677.643,-58.953 584.957,-347.132 -376.413,-566.558 636.114,240.903 208.264,-647.535 0,0 208.264,647.535 z"
     style="fill:#002776;fill-opacity:1;stroke:none"
     inkscape:connector-curvature="0" />
  <path
     id="path3020"
     d="m 24791.178,8055.4795 -332.869,281.205 104.009,423.156 -370.305,-229.68 -370.305,229.68 104.009,-423.156 -332.869,-281.205 434.585,-31.844 164.58,-403.476 0,0 164.58,403.476 z"
     style="fill:#002776;fill-opacity:1;stroke:none"
     inkscape:connector-curvature="0" />
  <path
     inkscape:connector-curvature="0"
     style="fill:#002776;fill-opacity:1;stroke:none"
     d="m 23524.381,1900.0984 -376.413,566.558 584.957,347.132 -677.643,58.953 93.316,673.771 -468.595,-493.046 -468.594,493.046 93.315,-673.771 -677.643,-58.953 584.957,-347.132 -376.413,-566.558 636.114,240.903 208.264,-647.535 0,0 208.264,647.535 z"
     id="path3022" />
  <path
     inkscape:connector-curvature="0"
     style="fill:#002776;fill-opacity:1;stroke:none"
     d="m 19744.382,5995.3036 -376.413,566.558 584.957,347.132 -677.643,58.953 93.316,673.7712 -468.595,-493.0461 -468.594,493.0461 93.315,-673.7712 -677.643,-58.953 584.957,-347.132 -376.413,-566.558 636.114,240.903 208.264,-647.5351 0,0 208.264,647.5351 z"
     id="path3024" />
  <path
     inkscape:connector-curvature="0"
     style="fill:#002776;fill-opacity:1;stroke:none"
     d="m 26884.377,4987.1058 -376.413,566.558 584.957,347.1321 -677.643,58.953 93.316,673.7705 -468.595,-493.0455 -468.594,493.0455 93.315,-673.7705 -677.643,-58.953 584.957,-347.1321 -376.413,-566.558 636.114,240.903 208.264,-647.535 0,0 208.264,647.535 z"
     id="path3026" />
</svg>
