<?xml version="1.0" encoding="UTF-8" standalone="no"?>
<!-- Created with Inkscape (http://www.inkscape.org/) -->

<svg
   xmlns:dc="http://purl.org/dc/elements/1.1/"
   xmlns:cc="http://creativecommons.org/ns#"
   xmlns:rdf="http://www.w3.org/1999/02/22-rdf-syntax-ns#"
   xmlns:svg="http://www.w3.org/2000/svg"
   xmlns="http://www.w3.org/2000/svg"
   xmlns:xlink="http://www.w3.org/1999/xlink"
   xmlns:sodipodi="http://sodipodi.sourceforge.net/DTD/sodipodi-0.dtd"
   xmlns:inkscape="http://www.inkscape.org/namespaces/inkscape"
   version="1.0"
   width="999.99988"
   height="499.99994"
   id="svg1"
   inkscape:version="0.48.4 r9939"
   sodipodi:docname="Flag_of_Queensland.svg">
  <metadata
     id="metadata191">
    <rdf:RDF>
      <cc:Work
         rdf:about="">
        <dc:format>image/svg+xml</dc:format>
        <dc:type
           rdf:resource="http://purl.org/dc/dcmitype/StillImage" />
        <dc:title></dc:title>
      </cc:Work>
    </rdf:RDF>
  </metadata>
  <sodipodi:namedview
     pagecolor="#ffffff"
     bordercolor="#666666"
     borderopacity="1"
     objecttolerance="10"
     gridtolerance="10"
     guidetolerance="10"
     inkscape:pageopacity="0"
     inkscape:pageshadow="2"
     inkscape:window-width="1920"
     inkscape:window-height="1005"
     id="namedview189"
     showgrid="false"
     fit-margin-top="0"
     fit-margin-left="0"
     fit-margin-right="0"
     fit-margin-bottom="0"
     inkscape:zoom="0.70710678"
     inkscape:cx="741.3743"
     inkscape:cy="318.65208"
     inkscape:window-x="-9"
     inkscape:window-y="-9"
     inkscape:window-maximized="1"
     inkscape:current-layer="svg1" />
  <defs
     id="defs3">
    <linearGradient
       id="linearGradient1108">
      <stop
         id="stop1109"
         style="stop-color:#000000;stop-opacity:1"
         offset="0" />
      <stop
         id="stop1110"
         style="stop-color:#ffffff;stop-opacity:1"
         offset="1" />
    </linearGradient>
    <linearGradient
       id="linearGradient1111"
       xlink:href="#linearGradient1108" />
    <linearGradient
       id="linearGradient1112"
       xlink:href="#linearGradient1108" />
    <linearGradient
       id="linearGradient1113"
       xlink:href="#linearGradient1108" />
    <linearGradient
       id="linearGradient1114"
       xlink:href="#linearGradient1108" />
    <linearGradient
       id="linearGradient1115"
       xlink:href="#linearGradient1108" />
    <linearGradient
       id="linearGradient1116"
       xlink:href="#linearGradient1108" />
    <linearGradient
       id="linearGradient1117"
       xlink:href="#linearGradient1108" />
    <linearGradient
       id="linearGradient1118"
       xlink:href="#linearGradient1108" />
    <linearGradient
       id="linearGradient1119"
       xlink:href="#linearGradient1108" />
    <linearGradient
       id="linearGradient1120"
       xlink:href="#linearGradient1108" />
    <linearGradient
       id="linearGradient1121"
       xlink:href="#linearGradient1108" />
    <linearGradient
       id="linearGradient1122"
       xlink:href="#linearGradient1108" />
    <linearGradient
       id="linearGradient1123"
       xlink:href="#linearGradient1108" />
    <linearGradient
       id="linearGradient1124"
       xlink:href="#linearGradient1108" />
    <linearGradient
       id="linearGradient1125"
       xlink:href="#linearGradient1108" />
    <linearGradient
       id="linearGradient1126"
       xlink:href="#linearGradient1108" />
    <linearGradient
       id="linearGradient1127"
       xlink:href="#linearGradient1108" />
    <linearGradient
       id="linearGradient1128"
       xlink:href="#linearGradient1108" />
    <linearGradient
       id="linearGradient1129"
       xlink:href="#linearGradient1108" />
    <linearGradient
       id="linearGradient1130"
       xlink:href="#linearGradient1108" />
    <linearGradient
       id="linearGradient1131"
       xlink:href="#linearGradient1108" />
    <linearGradient
       id="linearGradient1132"
       xlink:href="#linearGradient1108" />
    <linearGradient
       id="linearGradient1133"
       xlink:href="#linearGradient1108" />
    <linearGradient
       id="linearGradient1134"
       xlink:href="#linearGradient1108" />
    <linearGradient
       id="linearGradient1135"
       xlink:href="#linearGradient1108" />
    <linearGradient
       id="linearGradient1136"
       xlink:href="#linearGradient1108" />
    <linearGradient
       id="linearGradient1137"
       xlink:href="#linearGradient1108" />
    <linearGradient
       id="linearGradient1138"
       xlink:href="#linearGradient1108" />
    <linearGradient
       id="linearGradient1139"
       xlink:href="#linearGradient1108" />
    <linearGradient
       id="linearGradient1140"
       xlink:href="#linearGradient1108" />
    <linearGradient
       id="linearGradient1141"
       xlink:href="#linearGradient1108" />
    <linearGradient
       id="linearGradient1142"
       xlink:href="#linearGradient1108" />
    <linearGradient
       id="linearGradient1143"
       xlink:href="#linearGradient1108" />
    <linearGradient
       id="linearGradient1144"
       xlink:href="#linearGradient1108" />
    <linearGradient
       id="linearGradient1145"
       xlink:href="#linearGradient1108" />
    <linearGradient
       id="linearGradient1146"
       xlink:href="#linearGradient1108" />
    <linearGradient
       id="linearGradient1147"
       xlink:href="#linearGradient1108" />
    <linearGradient
       id="linearGradient1148"
       xlink:href="#linearGradient1108" />
    <linearGradient
       id="linearGradient1149"
       xlink:href="#linearGradient1108" />
    <linearGradient
       id="linearGradient1150"
       xlink:href="#linearGradient1108" />
    <linearGradient
       id="linearGradient1151"
       xlink:href="#linearGradient1108" />
    <linearGradient
       id="linearGradient1152"
       xlink:href="#linearGradient1108" />
    <linearGradient
       id="linearGradient1153"
       xlink:href="#linearGradient1108" />
    <linearGradient
       id="linearGradient1154"
       xlink:href="#linearGradient1108" />
    <linearGradient
       id="linearGradient1155"
       xlink:href="#linearGradient1108" />
    <linearGradient
       id="linearGradient1156"
       xlink:href="#linearGradient1108" />
    <linearGradient
       id="linearGradient1157"
       xlink:href="#linearGradient1108" />
    <linearGradient
       id="linearGradient1158"
       xlink:href="#linearGradient1108" />
    <linearGradient
       id="linearGradient1159"
       xlink:href="#linearGradient1108" />
    <linearGradient
       id="linearGradient1160"
       xlink:href="#linearGradient1108" />
    <linearGradient
       id="linearGradient1161"
       xlink:href="#linearGradient1108" />
    <linearGradient
       id="linearGradient1162"
       xlink:href="#linearGradient1108" />
    <linearGradient
       id="linearGradient1163"
       xlink:href="#linearGradient1108" />
    <linearGradient
       id="linearGradient1164"
       xlink:href="#linearGradient1108" />
    <linearGradient
       id="linearGradient1165"
       xlink:href="#linearGradient1108" />
    <linearGradient
       id="linearGradient1166"
       xlink:href="#linearGradient1108" />
    <linearGradient
       id="linearGradient1167"
       xlink:href="#linearGradient1108" />
    <linearGradient
       id="linearGradient1168"
       xlink:href="#linearGradient1108" />
    <linearGradient
       id="linearGradient1169"
       xlink:href="#linearGradient1108" />
    <linearGradient
       id="linearGradient1170"
       xlink:href="#linearGradient1108" />
    <linearGradient
       id="linearGradient1171"
       xlink:href="#linearGradient1108" />
    <linearGradient
       id="linearGradient1172"
       xlink:href="#linearGradient1108" />
  </defs>
  <path
     style="fill:#002b7f;stroke:none"
     d="m 0,0 999.99988,0 0,499.99993 -999.99988,0 z"
     id="rect1680"
     inkscape:connector-curvature="0" />
  <g
     transform="matrix(-0.95693695,0,0,0.95693695,1467.7029,10.76488)"
     id="g3592" />
  <rect
     width="499.99994"
     height="249.99997"
     x="3.9843749e-006"
     y="-6.6015622e-005"
     id="rect1683"
     style="fill:#002b7f;stroke:none" />
  <g
     transform="matrix(0.33333296,0,0,0.33333296,1e-5,-5e-5)"
     id="upper_half"
     style="stroke:none">
    <polygon
       points="675,0 750,325 0,300 0,250 332.2949,250 0,83.852549 0,0 0,0 167.7051,0 625,228.64745 625,0 "
       id="upper_left_white"
       style="fill:#ffffff;stroke:none" />
    <use
       transform="matrix(-1,0,0,1,1500,0)"
       id="use1687"
       x="0"
       y="0"
       width="1000"
       height="500"
       xlink:href="#upper_left_white"
       style="stroke:none" />
    <path
       d="M 0,0 500,250 388.1966,250 0,55.901699 0,0 z m 1500,0 -500,250 -111.8034,0 500,-250 L 1500,0 z"
       id="upper_red_diagonals"
       style="fill:#ce1126;stroke:none"
       inkscape:connector-curvature="0" />
  </g>
  <use
     transform="matrix(-1,0,0,-1,499.99995,249.99998)"
     id="use1690"
     x="0"
     y="0"
     width="1000"
     height="500"
     xlink:href="#upper_half"
     style="stroke:none" />
  <path
     d="m 224.99997,-5e-5 50,0 0,99.999978 224.99998,0 0,50.000002 -224.99998,0 0,99.99999 -50,0 0,-99.99999 -224.99996,0 0,-50.000002 224.99996,0 0,-99.999978 z"
     id="path1692"
     style="fill:#ce1126;stroke:none"
     inkscape:connector-curvature="0" />
  <g
     transform="matrix(0.85,0,0,0.85,-15.375069,-5.0000586)"
     id="g4387">
    <path
       class="fil1"
       d="m 978.51732,244.42649 44.85358,-67.27185 -67.25116,44.86832 c -10.11611,-7.2279 -21.69931,-12.5381 -34.21311,-15.39424 l 0.0583,0 -21.44404,-170.172494 -21.41195,170.172494 0.0207,0 c -12.50168,2.85609 -24.07444,8.1559 -34.18447,15.37421 l -67.26925,-44.85179 44.86831,67.24981 c -7.22531,10.11262 -12.53641,21.68714 -15.39333,34.19659 l 0,-0.0408 -170.17315,21.44404 170.17315,21.41195 0,-0.0104 c 2.85523,12.50076 8.15415,24.0701 15.37078,34.17837 l -44.8492,67.26472 67.24398,-44.86397 c 10.11003,7.22356 21.68195,12.53207 34.1879,15.38989 l -0.0259,0 21.44404,170.1725 21.41195,-170.1712 c 12.49558,-2.85609 24.06226,-8.15765 34.16794,-15.37253 l 67.26471,44.8492 -44.86565,-67.24528 c 7.22531,-10.11346 12.53551,-21.69063 15.39158,-34.20008 l 0,0.0399 170.17257,-21.44404 -170.17257,-21.41195 0,0.0148 c -2.85432,-12.50077 -8.15849,-24.06751 -15.37596,-34.17579 z"
       id="path4279"
       inkscape:connector-curvature="0"
       style="fill:#ffffff;fill-rule:evenodd" />
    <path
       inkscape:connector-curvature="0"
       id="path4289"
       d="m 925.71875,244.28125 c -12.64061,0.24103 -27.34944,10.31397 -35.4375,18.15625 -18.5437,17.98116 -45.00423,23.92067 -71.53125,29.5625 83.69771,-5.72171 127.66095,2.93291 107.53125,34.75 -21.00308,-2.46456 -43.96678,-5.27479 -47.625,2.375 40.49733,-2.25882 36.49913,16.74791 36.25,36.25 5.35887,-5.92138 14.22213,-14.8046 15.4375,-29.84375 29.95677,-13.07724 25.05119,-42.17698 11.5,-57.625 4.32581,-2.33869 13.85123,-5.03564 19.46875,-4.1875 -8.78526,-3.39431 -16.95953,-5.56691 -26.34375,-4.46875 -2.4958,-2.59565 -5.77329,-4.65345 -7.5,-7.8125 -3.05925,-5.59757 -0.33867,-10.62462 0.75,-17.0625 -0.82172,-0.0749 -1.65729,-0.10982 -2.5,-0.0937 z M 923.75,247.75 c -2.81265,5.03418 -2.7319,9.51449 -1.34375,13.75 -1.45063,-0.4983 -2.99646,-0.87932 -4.59375,-1.15625 -0.27258,-3.82924 0.0112,-7.64125 1,-11.46875 1.64246,-0.46618 3.27767,-0.83592 4.9375,-1.125 z m -7.75,2 c -0.94278,3.35608 -1.03388,6.75759 -0.8125,10.21875 -1.50272,-0.17102 -3.06414,-0.2917 -4.625,-0.375 -0.0469,-2.64777 0.22563,-5.31493 0.9375,-8 1.48795,-0.70577 2.99468,-1.31247 4.5,-1.84375 z m -6.71875,3 c -0.6113,2.25621 -0.77433,4.49205 -0.65625,6.75 -1.16501,-0.0469 -2.3315,-0.0842 -3.5,-0.125 -0.83513,-1.36293 -0.57387,-2.76119 0.1875,-4.21875 1.31692,-0.8794 2.63446,-1.68484 3.96875,-2.40625 z m -2.65625,21.3125 c 4.58836,0.0913 6.72976,3.47428 8.46875,5.9375 4.42827,6.27212 14.27474,-5.24144 21.125,-3.34375 -5.30242,1.47142 -13.3692,7.51202 -8.75,9.53125 10.93122,4.77721 19.52437,11.59993 18.8125,23.625 -0.96274,16.25274 -10.68882,18.23502 -17.15625,21.78125 -5.85019,2.05568 -7.74635,10.43089 -10.75,18.53125 1.93935,-11.99642 -3.09992,-19.41389 -15.09375,-22.25 15.67803,3.18509 24.18743,3.18509 25.53125,0 16.49152,-25.58236 -6.85044,-34.01111 -24.25,-36.90625 -2.77357,-0.46097 -7.90881,-1.37398 -8.15625,-3.65625 -0.56423,-5.21299 1.71146,-11.40616 6.84375,-12.78125 0.87777,-0.23515 1.68693,-0.38178 2.4375,-0.4375 0.32838,-0.0244 0.63161,-0.0373 0.9375,-0.0312 z"
       style="fill:#00247d;fill-opacity:1;fill-rule:evenodd" />
  </g>
</svg>
