<?xml version="1.0" encoding="UTF-8" standalone="no"?>
<!-- Created with Inkscape (http://www.inkscape.org/) -->

<svg
   xmlns:dc="http://purl.org/dc/elements/1.1/"
   xmlns:cc="http://creativecommons.org/ns#"
   xmlns:rdf="http://www.w3.org/1999/02/22-rdf-syntax-ns#"
   xmlns:svg="http://www.w3.org/2000/svg"
   xmlns="http://www.w3.org/2000/svg"
   xmlns:sodipodi="http://sodipodi.sourceforge.net/DTD/sodipodi-0.dtd"
   xmlns:inkscape="http://www.inkscape.org/namespaces/inkscape"
   width="800"
   height="400"
   id="svg2"
   version="1.1"
   inkscape:version="0.92.1 r15371"
   sodipodi:docname="2 Flag_of_the_Uzbek_Soviet_Socialist_Republic_(1941-1952).svg">
  <defs
     id="defs4" />
  <sodipodi:namedview
     id="base"
     pagecolor="#ffffff"
     bordercolor="#666666"
     borderopacity="1.0"
     inkscape:pageopacity="0.0"
     inkscape:pageshadow="2"
     inkscape:zoom="0.93566975"
     inkscape:cx="264.84148"
     inkscape:cy="154.71378"
     inkscape:document-units="px"
     inkscape:current-layer="layer1"
     showgrid="false"
     fit-margin-top="0"
     fit-margin-left="0"
     fit-margin-right="0"
     fit-margin-bottom="0"
     inkscape:window-width="1920"
     inkscape:window-height="1018"
     inkscape:window-x="-8"
     inkscape:window-y="-8"
     inkscape:window-maximized="1" />
  <metadata
     id="metadata7">
    <rdf:RDF>
      <cc:Work
         rdf:about="">
        <dc:format>image/svg+xml</dc:format>
        <dc:type
           rdf:resource="http://purl.org/dc/dcmitype/StillImage" />
        <dc:title></dc:title>
      </cc:Work>
    </rdf:RDF>
  </metadata>
  <g
     inkscape:label="Layer 1"
     inkscape:groupmode="layer"
     id="layer1"
     transform="translate(280,-458.07648)">
    <rect
       style="fill:#cd0000;fill-opacity:1;stroke:none"
       id="rect2985"
       width="800"
       height="400"
       x="-280"
       y="458.07648" />
    <g
       transform="translate(-270.65623,465.28274)"
       style="font-size:40px;font-style:normal;font-weight:normal;line-height:125%;letter-spacing:0px;word-spacing:0px;fill:#ffd700;fill-opacity:1;stroke:none;font-family:Sans"
       id="flowRoot2987">
      <path
         d="m 26.914062,33.946377 3.828125,0 9.335938,17.539062 8.164062,-17.539062 3.769532,0 -10.742188,22.265625 c -1.341159,2.786461 -2.441418,4.609376 -3.300781,5.46875 -0.859385,0.859375 -2.089853,1.289062 -3.691406,1.289062 -0.976569,0 -2.174485,-0.227865 -3.59375,-0.683594 l 0,-3.242187 c 1.01562,0.58594 2.089837,0.878909 3.222656,0.878906 0.924471,3e-6 1.721996,-0.296221 2.392578,-0.888672 0.670563,-0.592444 1.409494,-1.943354 2.216797,-4.052734 z m 16.796875,-6.835938 2.402344,0 c -0.195331,1.627638 -0.791034,2.877637 -1.787109,3.75 -0.99611,0.872427 -2.320979,1.308624 -3.97461,1.308594 -1.666678,3e-5 -2.998057,-0.432912 -3.99414,-1.298828 -0.996103,-0.865853 -1.591805,-2.119107 -1.78711,-3.759766 l 2.402344,0 c 0.182281,0.885451 0.543609,1.546258 1.083985,1.982422 0.540352,0.436231 1.266263,0.65433 2.177734,0.654297 1.054673,3.3e-5 1.852198,-0.211556 2.392578,-0.634766 0.540348,-0.423143 0.901676,-1.09046 1.083984,-2.001953 z"
         style="fill:#ffd700;fill-opacity:1"
         id="path2998" />
      <path
         d="m 59.335937,53.204189 0,-2.753906 c 1.484367,-0.01301 2.496736,-0.0716 3.03711,-0.175781 0.540354,-0.104155 1.051421,-0.416654 1.533203,-0.9375 0.481759,-0.52082 0.722644,-1.171861 0.722656,-1.953125 -1.2e-5,-0.950505 -0.315767,-1.708968 -0.947265,-2.275391 -0.631522,-0.566388 -1.448578,-0.849591 -2.451172,-0.849609 -1.979174,1.8e-5 -3.365891,1.165381 -4.160157,3.496093 l -3.339843,-0.546875 c 1.041664,-3.89321 3.554682,-5.839822 7.539062,-5.839843 2.213531,2.1e-5 3.948555,0.605489 5.205078,1.816406 1.256495,1.210956 1.88475,2.656267 1.884766,4.335937 -1.6e-5,1.692722 -0.820328,3.040377 -2.460938,4.042969 1.041652,0.559906 1.822902,1.272796 2.34375,2.138672 0.520817,0.865893 0.781234,1.891283 0.78125,3.076172 -1.6e-5,1.861983 -0.677099,3.372398 -2.03125,4.53125 -1.35418,1.158854 -3.248709,1.738281 -5.683593,1.738281 -4.726567,0 -7.46745,-2.102863 -8.222657,-6.308594 l 3.300782,-0.703125 c 0.299474,1.328131 0.908198,2.356775 1.826172,3.085938 0.917961,0.729169 1.969393,1.093752 3.154296,1.09375 1.184886,2e-6 2.171213,-0.335284 2.958985,-1.00586 0.787747,-0.670568 1.181627,-1.526687 1.18164,-2.568359 -1.3e-5,-0.807285 -0.247408,-1.510409 -0.742187,-2.109375 -0.494804,-0.59895 -1.022147,-0.973298 -1.582031,-1.123047 -0.559907,-0.14973 -1.575531,-0.2246 -3.046875,-0.224609 -0.117196,9e-6 -0.384122,0.0065 -0.800782,0.01953 z"
         style="fill:#ffd700;fill-opacity:1"
         id="path3000" />
      <path
         d="m 88.300781,33.262783 3.105469,0.03906 c -0.14325,1.393257 -0.452494,2.363308 -0.927734,2.910157 -0.47528,0.5469 -1.087259,0.898463 -1.835938,1.054687 -0.748715,0.156275 -2.216813,0.2344 -4.404297,0.234375 -2.903656,2.5e-5 -4.882821,0.279973 -5.9375,0.839844 -1.054694,0.559919 -1.813157,1.455101 -2.27539,2.685547 -0.462245,1.230489 -0.719406,2.815774 -0.771485,4.755859 0.885411,-1.315086 1.920566,-2.301413 3.105469,-2.958984 1.184887,-0.657532 2.519521,-0.986308 4.003906,-0.986328 2.72134,2e-5 4.973942,0.934264 6.757813,2.802734 1.783833,1.868506 2.67576,4.3978 2.675781,7.587891 -2.1e-5,2.421882 -0.44924,4.407558 -1.347656,5.957031 -0.898457,1.549482 -1.962909,2.747397 -3.19336,3.59375 -1.230484,0.846354 -2.906915,1.269531 -5.029297,1.269531 -2.460946,0 -4.375007,-0.563151 -5.742187,-1.689453 -1.367192,-1.1263 -2.415368,-2.568356 -3.144531,-4.326172 -0.729169,-1.757805 -1.093752,-4.817698 -1.09375,-9.179687 -2e-6,-5.481751 0.927731,-9.173154 2.783203,-11.074219 1.855462,-1.901014 4.710277,-2.851534 8.564453,-2.851563 2.395818,2.9e-5 3.756494,-0.03903 4.082031,-0.117187 0.325504,-0.0781 0.533837,-0.260388 0.625,-0.546875 z M 88.125,52.12997 c -1.8e-5,-2.161445 -0.511085,-3.932277 -1.533203,-5.3125 -1.022151,-1.380191 -2.464206,-2.070294 -4.326172,-2.070312 -1.940114,1.8e-5 -3.437508,0.729184 -4.492188,2.1875 -1.054693,1.458347 -1.582036,3.40496 -1.582031,5.839844 -5e-6,2.408861 0.582676,4.251307 1.748047,5.527343 1.165356,1.276045 2.600902,1.914065 4.306641,1.914063 1.744778,2e-6 3.160792,-0.738929 4.248047,-2.216797 1.087222,-1.477859 1.630841,-3.434237 1.630859,-5.869141 z"
         style="fill:#ffd700;fill-opacity:1"
         id="path3002" />
      <path
         d="m 110.19531,55.899502 3.63282,0.449218 c -0.57294,2.1224 -1.63414,3.769534 -3.1836,4.941407 -1.54949,1.171875 -3.52866,1.757812 -5.9375,1.757812 -3.03386,0 -5.439458,-0.934244 -7.216796,-2.802734 -1.777346,-1.868486 -2.666017,-4.488926 -2.666015,-7.861328 -2e-6,-3.48957 0.898435,-6.197901 2.695312,-8.125 1.796869,-1.927064 4.127599,-2.890604 6.992189,-2.890625 2.77342,2.1e-5 5.03905,0.94403 6.79687,2.832031 1.7578,1.888037 2.6367,4.544284 2.63672,7.96875 -2e-5,0.208343 -0.007,0.520843 -0.0195,0.9375 l -15.468749,0 c 0.130203,2.278653 0.774734,4.023443 1.933599,5.234375 1.15884,1.21094 2.60415,1.816408 4.33593,1.816406 1.28905,2e-6 2.38931,-0.338539 3.30078,-1.015625 0.91145,-0.677079 1.6341,-1.757807 2.16797,-3.242187 z m -11.542966,-5.683594 11.582036,0 c -0.15627,-1.744778 -0.59898,-3.05337 -1.32813,-3.925781 -1.11981,-1.354149 -2.57163,-2.031232 -4.35547,-2.03125 -1.61459,1.8e-5 -2.97201,0.540382 -4.07226,1.621093 -1.100271,1.080745 -1.708994,2.526056 -1.826176,4.335938 z"
         style="fill:#ffd700;fill-opacity:1"
         id="path3004" />
      <path
         d="m 118.24219,41.837002 3.51562,0 0,8.964843 c 1.11979,1.2e-5 1.90429,-0.214831 2.35352,-0.644531 0.44921,-0.429675 1.11001,-1.679673 1.98242,-3.75 0.69009,-1.640607 1.24999,-2.721335 1.67969,-3.242187 0.42967,-0.520814 0.92446,-0.872376 1.48437,-1.054688 0.55988,-0.182271 1.45832,-0.273417 2.69531,-0.273437 l 0.70313,0 0,2.910156 -0.97656,-0.01953 c -0.9245,1.7e-5 -1.51694,0.136736 -1.77735,0.410156 -0.27345,0.286475 -0.69011,1.139339 -1.25,2.558594 -0.53386,1.35418 -1.02214,2.291679 -1.46484,2.8125 -0.44272,0.520844 -1.12631,0.996104 -2.05078,1.425781 1.5104,0.403656 2.99478,1.809904 4.45312,4.21875 l 3.84766,6.425781 -3.86719,0 -3.75,-6.425781 c -0.76824,-1.289055 -1.43881,-2.138663 -2.01172,-2.548828 -0.57292,-0.410147 -1.25651,-0.615225 -2.05078,-0.615235 l 0,9.589844 -3.51562,0 z"
         style="fill:#ffd700;fill-opacity:1"
         id="path3006" />
      <path
         d="m 135.76172,41.837002 3.51562,0 0,15.820312 9.7461,-15.820312 3.78906,0 0,20.742187 -3.51563,0 0,-15.722656 -9.74609,15.722656 -3.78906,0 z"
         style="fill:#ffd700;fill-opacity:1"
         id="path3008" />
      <path
         d="m 171.64062,54.981533 3.45704,0.449219 c -0.37763,2.382817 -1.34442,4.248049 -2.90039,5.595703 -1.55601,1.347656 -3.46681,2.021484 -5.73243,2.021484 -2.83855,0 -5.12044,-0.927734 -6.8457,-2.783203 -1.72526,-1.855465 -2.58789,-4.514967 -2.58789,-7.978516 0,-2.23957 0.37109,-4.199204 1.11328,-5.878906 0.74219,-1.67967 1.87174,-2.939434 3.38867,-3.779297 1.51692,-0.839823 3.16731,-1.259744 4.95117,-1.259765 2.2526,2.1e-5 4.09504,0.569682 5.52735,1.708984 1.43227,1.139341 2.35024,2.757178 2.7539,4.853516 l -3.41796,0.527343 c -0.32554,-1.393213 -0.90171,-2.441389 -1.72852,-3.144531 -0.82684,-0.703107 -1.82618,-1.054669 -2.99805,-1.054687 -1.77084,1.8e-5 -3.20964,0.634783 -4.3164,1.904296 -1.10678,1.269547 -1.66016,3.278008 -1.66016,6.025391 0,2.786466 0.53385,4.811204 1.60156,6.074219 1.0677,1.263024 2.46093,1.894533 4.17969,1.894531 1.3802,2e-6 2.53254,-0.423174 3.45703,-1.269531 0.92447,-0.84635 1.5104,-2.148432 1.75781,-3.90625 z"
         style="fill:#ffd700;fill-opacity:1"
         id="path3010" />
      <path
         d="m 176.21094,41.837002 16.85547,0 0,2.910156 -6.67969,0 0,17.832031 -3.4961,0 0,-17.832031 -6.67968,0 z"
         style="fill:#ffd700;fill-opacity:1"
         id="path3012" />
      <path
         d="m 195.15625,52.208095 c 0,-3.841131 1.06771,-6.686181 3.20312,-8.535156 1.78385,-1.536438 3.95833,-2.304666 6.52344,-2.304687 2.85155,2.1e-5 5.18228,0.934265 6.99219,2.802734 1.80988,1.868506 2.71482,4.449884 2.71484,7.744141 -2e-5,2.669278 -0.40041,4.768886 -1.20117,6.298828 -0.8008,1.52995 -1.96616,2.7181 -3.49609,3.564453 -1.52996,0.846354 -3.19988,1.269531 -5.00977,1.269531 -2.90365,0 -5.25065,-0.930989 -7.04101,-2.792969 -1.79037,-1.861975 -2.68555,-4.544264 -2.68555,-8.046875 z m 3.61328,0 c 0,2.656258 0.57942,4.645188 1.73828,5.966797 1.15885,1.321618 2.61718,1.982424 4.375,1.982422 1.74478,2e-6 3.1966,-0.664059 4.35547,-1.992187 1.15884,-1.32812 1.73827,-3.352857 1.73828,-6.074219 -1e-5,-2.565091 -0.5827,-4.508449 -1.74804,-5.830078 -1.16538,-1.321597 -2.61395,-1.982404 -4.34571,-1.982422 -1.75782,1.8e-5 -3.21615,0.65757 -4.375,1.972656 -1.15886,1.315119 -1.73828,3.300794 -1.73828,5.957031 z"
         style="fill:#ffd700;fill-opacity:1"
         id="path3014" />
      <path
         d="m 218.75,41.837002 3.51562,0 0,8.632812 9.7461,0 0,-8.632812 3.51562,0 0,20.742187 -3.51562,0 0,-9.199219 -9.7461,0 0,9.199219 -3.51562,0 z"
         style="fill:#ffd700;fill-opacity:1"
         id="path3016" />
      <path
         d="m 272.8125,52.540127 3.78906,0.957031 c -0.79429,3.111985 -2.22333,5.485029 -4.28711,7.11914 -2.06382,1.634115 -4.5866,2.451172 -7.56836,2.451172 -3.08595,0 -5.59571,-0.628255 -7.52929,-1.884765 -1.9336,-1.256508 -3.40496,-3.076168 -4.41407,-5.458985 -1.00911,-2.382803 -1.51367,-4.941394 -1.51367,-7.675781 0,-2.981753 0.56966,-5.582662 1.70899,-7.802734 1.13931,-2.220028 2.76041,-3.906224 4.86328,-5.058594 2.10285,-1.152315 4.4173,-1.728487 6.94336,-1.728516 2.86456,2.9e-5 5.27341,0.729195 7.22656,2.1875 1.9531,1.458359 3.31378,3.509138 4.08203,6.152344 l -3.73047,0.878906 c -0.66408,-2.083311 -1.62762,-3.600237 -2.89062,-4.550781 -1.26304,-0.950495 -2.85158,-1.425755 -4.76563,-1.425781 -2.20053,2.6e-5 -4.03972,0.527369 -5.51758,1.582031 -1.47787,1.054711 -2.51628,2.470725 -3.11523,4.248047 -0.59896,1.777362 -0.89844,3.610042 -0.89844,5.498047 0,2.434908 0.35481,4.560557 1.06446,6.376953 0.70962,1.816413 1.81314,3.173833 3.31054,4.072266 1.49739,0.89844 3.11848,1.347659 4.86328,1.347656 2.12238,3e-6 3.91926,-0.611976 5.39063,-1.835938 1.47133,-1.223952 2.46742,-3.040357 2.98828,-5.449218 z"
         style="fill:#ffd700;fill-opacity:1"
         id="path3018" />
      <path
         d="m 301.71875,52.540127 3.78906,0.957031 c -0.79429,3.111985 -2.22333,5.485029 -4.28711,7.11914 -2.06382,1.634115 -4.5866,2.451172 -7.56836,2.451172 -3.08595,0 -5.59571,-0.628255 -7.52929,-1.884765 -1.9336,-1.256508 -3.40496,-3.076168 -4.41407,-5.458985 -1.00911,-2.382803 -1.51367,-4.941394 -1.51367,-7.675781 0,-2.981753 0.56966,-5.582662 1.70899,-7.802734 1.13931,-2.220028 2.76041,-3.906224 4.86328,-5.058594 2.10285,-1.152315 4.4173,-1.728487 6.94336,-1.728516 2.86456,2.9e-5 5.27341,0.729195 7.22656,2.1875 1.9531,1.458359 3.31378,3.509138 4.08203,6.152344 l -3.73047,0.878906 c -0.66408,-2.083311 -1.62762,-3.600237 -2.89062,-4.550781 -1.26304,-0.950495 -2.85158,-1.425755 -4.76563,-1.425781 -2.20053,2.6e-5 -4.03972,0.527369 -5.51758,1.582031 -1.47787,1.054711 -2.51628,2.470725 -3.11523,4.248047 -0.59896,1.777362 -0.89844,3.610042 -0.89844,5.498047 0,2.434908 0.35481,4.560557 1.06446,6.376953 0.70962,1.816413 1.81314,3.173833 3.31054,4.072266 1.49739,0.89844 3.11848,1.347659 4.86328,1.347656 2.12238,3e-6 3.91926,-0.611976 5.39063,-1.835938 1.47133,-1.223952 2.46742,-3.040357 2.98828,-5.449218 z"
         style="fill:#ffd700;fill-opacity:1"
         id="path3020" />
      <path
         d="m 310.19531,62.579189 0,-28.632812 10.80078,0 c 1.90103,2.8e-5 3.35285,0.09117 4.35547,0.273437 1.40623,0.234403 2.58462,0.680366 3.53516,1.337891 0.9505,0.657578 1.71547,1.578801 2.29492,2.763672 0.5794,1.184918 0.86912,2.487001 0.86914,3.90625 -2e-5,2.434913 -0.77476,4.495458 -2.32422,6.18164 -1.5495,1.686211 -4.34897,2.529309 -8.39844,2.529297 l -7.34375,0 0,11.640625 z m 3.78906,-15.019531 7.40235,0 c 2.4479,1.5e-5 4.18618,-0.455714 5.21484,-1.367188 1.02863,-0.911441 1.54295,-2.193992 1.54297,-3.847656 -2e-5,-1.197895 -0.30275,-2.223285 -0.9082,-3.076172 -0.60549,-0.85284 -1.40302,-1.415991 -2.39258,-1.689453 -0.63804,-0.169246 -1.81642,-0.253881 -3.53516,-0.253906 l -7.32422,0 z"
         style="fill:#ffd700;fill-opacity:1"
         id="path3022" />
      <path
         d="m 26.914062,83.946377 3.828125,0 9.335938,17.539063 8.164062,-17.539063 3.769532,0 L 41.269531,106.212 c -1.341159,2.78646 -2.441418,4.60938 -3.300781,5.46875 -0.859385,0.85938 -2.089853,1.28906 -3.691406,1.28906 -0.976569,0 -2.174485,-0.22786 -3.59375,-0.68359 l 0,-3.24219 c 1.01562,0.58594 2.089837,0.87891 3.222656,0.87891 0.924471,0 1.721996,-0.29622 2.392578,-0.88867 0.670563,-0.59245 1.409494,-1.94336 2.216797,-4.05274 z"
         style="fill:#ffd700;fill-opacity:1"
         id="path3024" />
      <path
         d="m 59.335937,103.20419 0,-2.75391 c 1.484367,-0.013 2.496736,-0.0716 3.03711,-0.17578 0.540354,-0.10415 1.051421,-0.416652 1.533203,-0.937498 0.481759,-0.52082 0.722644,-1.171861 0.722656,-1.953125 -1.2e-5,-0.950505 -0.315767,-1.708968 -0.947265,-2.275391 -0.631522,-0.566388 -1.448578,-0.849591 -2.451172,-0.849609 -1.979174,1.8e-5 -3.365891,1.165381 -4.160157,3.496093 l -3.339843,-0.546875 c 1.041664,-3.89321 3.554682,-5.839822 7.539062,-5.839843 2.213531,2.1e-5 3.948555,0.605489 5.205078,1.816406 1.256495,1.210956 1.88475,2.656267 1.884766,4.335937 -1.6e-5,1.692722 -0.820328,3.040375 -2.460938,4.042965 1.041652,0.55991 1.822902,1.2728 2.34375,2.13868 0.520817,0.86589 0.781234,1.89128 0.78125,3.07617 -1.6e-5,1.86198 -0.677099,3.3724 -2.03125,4.53125 -1.35418,1.15885 -3.248709,1.73828 -5.683593,1.73828 -4.726567,0 -7.46745,-2.10286 -8.222657,-6.30859 l 3.300782,-0.70313 c 0.299474,1.32813 0.908198,2.35678 1.826172,3.08594 0.917961,0.72917 1.969393,1.09375 3.154296,1.09375 1.184886,0 2.171213,-0.33529 2.958985,-1.00586 0.787747,-0.67057 1.181627,-1.52669 1.18164,-2.56836 -1.3e-5,-0.80729 -0.247408,-1.51041 -0.742187,-2.10938 -0.494804,-0.59895 -1.022147,-0.97329 -1.582031,-1.12304 -0.559907,-0.14973 -1.575531,-0.2246 -3.046875,-0.22461 -0.117196,1e-5 -0.384122,0.007 -0.800782,0.0195 z"
         style="fill:#ffd700;fill-opacity:1"
         id="path3026" />
      <path
         d="m 88.300781,83.262783 3.105469,0.03906 c -0.14325,1.393257 -0.452494,2.363308 -0.927734,2.910157 -0.47528,0.5469 -1.087259,0.898463 -1.835938,1.054687 -0.748715,0.156275 -2.216813,0.2344 -4.404297,0.234375 -2.903656,2.5e-5 -4.882821,0.279973 -5.9375,0.839844 -1.054694,0.559919 -1.813157,1.455101 -2.27539,2.685547 -0.462245,1.230489 -0.719406,2.815774 -0.771485,4.755859 0.885411,-1.315086 1.920566,-2.301413 3.105469,-2.958984 1.184887,-0.657532 2.519521,-0.986308 4.003906,-0.986328 2.72134,2e-5 4.973942,0.934264 6.757813,2.802734 1.783833,1.868506 2.67576,4.3978 2.675781,7.587894 -2.1e-5,2.42188 -0.44924,4.40755 -1.347656,5.95703 -0.898457,1.54948 -1.962909,2.7474 -3.19336,3.59375 -1.230484,0.84635 -2.906915,1.26953 -5.029297,1.26953 -2.460946,0 -4.375007,-0.56315 -5.742187,-1.68945 -1.367192,-1.1263 -2.415368,-2.56836 -3.144531,-4.32618 -0.729169,-1.7578 -1.093752,-4.81769 -1.09375,-9.179683 -2e-6,-5.481751 0.927731,-9.173154 2.783203,-11.074219 1.855462,-1.901014 4.710277,-2.851534 8.564453,-2.851563 2.395818,2.9e-5 3.756494,-0.03903 4.082031,-0.117187 0.325504,-0.0781 0.533837,-0.260388 0.625,-0.546875 z M 88.125,102.12997 c -1.8e-5,-2.161445 -0.511085,-3.932277 -1.533203,-5.3125 -1.022151,-1.380191 -2.464206,-2.070294 -4.326172,-2.070312 -1.940114,1.8e-5 -3.437508,0.729184 -4.492188,2.1875 -1.054693,1.458347 -1.582036,3.404962 -1.582031,5.839842 -5e-6,2.40886 0.582676,4.25131 1.748047,5.52735 1.165356,1.27604 2.600902,1.91406 4.306641,1.91406 1.744778,0 3.160792,-0.73893 4.248047,-2.2168 1.087222,-1.47786 1.630841,-3.43424 1.630859,-5.86914 z"
         style="fill:#ffd700;fill-opacity:1"
         id="path3028" />
      <path
         d="m 110.19531,105.8995 3.63282,0.44922 c -0.57294,2.1224 -1.63414,3.76953 -3.1836,4.94141 -1.54949,1.17187 -3.52866,1.75781 -5.9375,1.75781 -3.03386,0 -5.439458,-0.93425 -7.216796,-2.80274 -1.777346,-1.86848 -2.666017,-4.48892 -2.666015,-7.86132 -2e-6,-3.489573 0.898435,-6.197904 2.695312,-8.125003 1.796869,-1.927064 4.127599,-2.890604 6.992189,-2.890625 2.77342,2.1e-5 5.03905,0.94403 6.79687,2.832031 1.7578,1.888037 2.6367,4.544284 2.63672,7.968747 -2e-5,0.20835 -0.007,0.52085 -0.0195,0.9375 l -15.468749,0 c 0.130203,2.27866 0.774734,4.02345 1.933599,5.23438 1.15884,1.21094 2.60415,1.81641 4.33593,1.8164 1.28905,1e-5 2.38931,-0.33853 3.30078,-1.01562 0.91145,-0.67708 1.6341,-1.75781 2.16797,-3.24219 z m -11.542966,-5.68359 11.582036,0 c -0.15627,-1.74478 -0.59898,-3.053372 -1.32813,-3.925783 -1.11981,-1.354149 -2.57163,-2.031232 -4.35547,-2.03125 -1.61459,1.8e-5 -2.97201,0.540382 -4.07226,1.621093 -1.100271,1.080745 -1.708994,2.526056 -1.826176,4.33594 z"
         style="fill:#ffd700;fill-opacity:1"
         id="path3030" />
      <path
         d="m 118.24219,91.837002 3.51562,0 0,8.964848 c 1.11979,1e-5 1.90429,-0.21484 2.35352,-0.64454 0.44921,-0.429671 1.11001,-1.679669 1.98242,-3.749996 0.69009,-1.640607 1.24999,-2.721335 1.67969,-3.242187 0.42967,-0.520814 0.92446,-0.872376 1.48437,-1.054688 0.55988,-0.182271 1.45832,-0.273417 2.69531,-0.273437 l 0.70313,0 0,2.910156 -0.97656,-0.01953 c -0.9245,1.7e-5 -1.51694,0.136736 -1.77735,0.410156 -0.27345,0.286475 -0.69011,1.139339 -1.25,2.558594 -0.53386,1.35418 -1.02214,2.291679 -1.46484,2.812503 -0.44272,0.52084 -1.12631,0.9961 -2.05078,1.42578 1.5104,0.40365 2.99478,1.8099 4.45312,4.21875 l 3.84766,6.42578 -3.86719,0 -3.75,-6.42578 c -0.76824,-1.28906 -1.43881,-2.13867 -2.01172,-2.54883 -0.57292,-0.41015 -1.25651,-0.61523 -2.05078,-0.61523 l 0,9.58984 -3.51562,0 z"
         style="fill:#ffd700;fill-opacity:1"
         id="path3032" />
      <path
         d="m 149.29687,104.98153 3.45704,0.44922 c -0.37763,2.38282 -1.34442,4.24805 -2.90039,5.5957 -1.55601,1.34766 -3.46681,2.02149 -5.73243,2.02149 -2.83855,0 -5.12044,-0.92773 -6.8457,-2.7832 -1.72526,-1.85547 -2.58789,-4.51497 -2.58789,-7.97852 0,-2.23957 0.37109,-4.199204 1.11328,-5.878906 0.74219,-1.67967 1.87174,-2.939434 3.38867,-3.779297 1.51692,-0.839823 3.16731,-1.259744 4.95117,-1.259765 2.2526,2.1e-5 4.09504,0.569682 5.52735,1.708984 1.43227,1.139341 2.35024,2.757178 2.7539,4.853516 l -3.41796,0.527343 c -0.32554,-1.393213 -0.90171,-2.441389 -1.72852,-3.144531 -0.82684,-0.703107 -1.82618,-1.054669 -2.99805,-1.054687 -1.77084,1.8e-5 -3.20964,0.634783 -4.3164,1.904296 -1.10678,1.269547 -1.66016,3.278008 -1.66016,6.025387 0,2.78647 0.53385,4.81121 1.60156,6.07422 1.0677,1.26303 2.46093,1.89454 4.17969,1.89453 1.3802,1e-5 2.53254,-0.42317 3.45703,-1.26953 0.92447,-0.84635 1.5104,-2.14843 1.75781,-3.90625 z"
         style="fill:#ffd700;fill-opacity:1"
         id="path3034" />
      <path
         d="m 155.74219,91.837002 3.51562,0 0,8.964848 c 1.11979,1e-5 1.90429,-0.21484 2.35352,-0.64454 0.44921,-0.429671 1.11001,-1.679669 1.98242,-3.749996 0.69009,-1.640607 1.24999,-2.721335 1.67969,-3.242187 0.42967,-0.520814 0.92446,-0.872376 1.48437,-1.054688 0.55988,-0.182271 1.45832,-0.273417 2.69531,-0.273437 l 0.70313,0 0,2.910156 -0.97656,-0.01953 c -0.9245,1.7e-5 -1.51694,0.136736 -1.77735,0.410156 -0.27345,0.286475 -0.69011,1.139339 -1.25,2.558594 -0.53386,1.35418 -1.02214,2.291679 -1.46484,2.812503 -0.44272,0.52084 -1.12631,0.9961 -2.05078,1.42578 1.5104,0.40365 2.99478,1.8099 4.45312,4.21875 l 3.84766,6.42578 -3.86719,0 -3.75,-6.42578 c -0.76824,-1.28906 -1.43881,-2.13867 -2.01172,-2.54883 -0.57292,-0.41015 -1.25651,-0.61523 -2.05078,-0.61523 l 0,9.58984 -3.51562,0 z"
         style="fill:#ffd700;fill-opacity:1"
         id="path3036" />
      <path
         d="m 186.79687,110.0206 c -1.30209,1.10677 -2.55535,1.88802 -3.75976,2.34375 -1.20444,0.45572 -2.49676,0.68359 -3.87695,0.68359 -2.27866,0 -4.02996,-0.55664 -5.25391,-1.66992 -1.22396,-1.11328 -1.83594,-2.53581 -1.83594,-4.26758 0,-1.01562 0.23112,-1.94335 0.69336,-2.7832 0.46224,-0.83984 1.06771,-1.51367 1.81641,-2.02149 0.74869,-0.5078 1.59179,-0.89191 2.52929,-1.15234 0.6901,-0.18228 1.73177,-0.35806 3.125,-0.52735 2.83853,-0.33853 4.92838,-0.742171 6.26954,-1.210933 0.013,-0.481758 0.0195,-0.787747 0.0195,-0.917969 -2e-5,-1.432276 -0.33205,-2.44139 -0.9961,-3.027344 -0.89845,-0.794253 -2.23308,-1.191388 -4.0039,-1.191406 -1.65366,1.8e-5 -2.87436,0.289731 -3.66211,0.86914 -0.78777,0.579444 -1.37045,1.604834 -1.74805,3.076172 l -3.4375,-0.46875 c 0.3125,-1.471338 0.82682,-2.659487 1.54297,-3.564453 0.71614,-0.904928 1.7513,-1.601542 3.10547,-2.089844 1.35416,-0.48826 2.92317,-0.7324 4.70703,-0.732421 1.77082,2.1e-5 3.20962,0.208354 4.31641,0.625 1.10675,0.416686 1.92055,0.940774 2.4414,1.572265 0.52082,0.631529 0.8854,1.429054 1.09375,2.392578 0.11717,0.598975 0.17576,1.679703 0.17578,3.242188 l 0,4.687497 c -2e-5,3.26824 0.0748,5.33529 0.22461,6.20117 0.14972,0.86589 0.44595,1.69597 0.88867,2.49024 l -3.67187,0 c -0.3646,-0.72917 -0.59897,-1.58203 -0.70313,-2.55859 z m -0.29296,-7.85157 c -1.27606,0.52085 -3.19012,0.96355 -5.74219,1.32813 -1.44532,0.20834 -2.46746,0.44271 -3.06641,0.70312 -0.59896,0.26043 -1.0612,0.64129 -1.38672,1.14258 -0.32552,0.50131 -0.48828,1.05795 -0.48828,1.66992 0,0.93751 0.35481,1.71876 1.06446,2.34375 0.70962,0.62501 1.74803,0.93751 3.11523,0.9375 1.35416,10e-6 2.55858,-0.29622 3.61328,-0.88867 1.05467,-0.59244 1.82941,-1.40299 2.32422,-2.43164 0.37759,-0.79426 0.56639,-1.96614 0.56641,-3.51562 z"
         style="fill:#ffd700;fill-opacity:1"
         id="path3038" />
      <path
         d="m 211.85547,91.837002 0,20.742188 -3.4961,0 0,-8.08594 -2.03125,0 c -1.23699,1e-5 -2.15821,0.15951 -2.76367,0.47852 -0.60548,0.31901 -1.48764,1.3444 -2.64648,3.07617 l -3.06641,4.53125 -4.35547,0 3.78907,-5.58594 c 1.15884,-1.70572 2.31119,-2.66926 3.45703,-2.89062 -2.00522,-0.27343 -3.49285,-0.99609 -4.46289,-2.16797 -0.97006,-1.17187 -1.45508,-2.51952 -1.45508,-4.042971 0,-1.796858 0.63476,-3.25519 1.9043,-4.375 1.26952,-1.119771 3.10871,-1.679667 5.51757,-1.679687 z m -3.4961,2.910156 -5,0 c -2.09636,1.8e-5 -3.44727,0.325538 -4.05273,0.976562 -0.60547,0.651058 -0.90821,1.412776 -0.9082,2.285157 -1e-5,1.236992 0.44596,2.145193 1.33789,2.724613 0.89192,0.57943 2.47069,0.86915 4.73633,0.86914 l 3.88671,0 z"
         style="fill:#ffd700;fill-opacity:1"
         id="path3040" />
      <path
         d="m 249.14062,102.54013 3.78907,0.95703 c -0.7943,3.11198 -2.22333,5.48503 -4.28711,7.11914 -2.06382,1.63411 -4.58661,2.45117 -7.56836,2.45117 -3.08595,0 -5.59571,-0.62825 -7.5293,-1.88477 -1.9336,-1.2565 -3.40495,-3.07616 -4.41406,-5.45898 -1.00912,-2.3828 -1.51367,-4.94139 -1.51367,-7.675781 0,-2.981753 0.56966,-5.582662 1.70898,-7.802734 1.13932,-2.220028 2.76041,-3.906224 4.86328,-5.058594 2.10286,-1.152315 4.41731,-1.728487 6.94336,-1.728516 2.86457,2.9e-5 5.27342,0.729195 7.22656,2.1875 1.95311,1.458359 3.31378,3.509138 4.08204,6.152344 l -3.73047,0.878906 c -0.66409,-2.083311 -1.62763,-3.600237 -2.89063,-4.550781 -1.26304,-0.950495 -2.85158,-1.425755 -4.76562,-1.425781 -2.20054,2.6e-5 -4.03973,0.527369 -5.51758,1.582031 -1.47787,1.054711 -2.51628,2.470725 -3.11524,4.248047 -0.59896,1.777362 -0.89844,3.610042 -0.89843,5.498047 -1e-5,2.434912 0.35481,4.560552 1.06445,6.376952 0.70963,1.81641 1.81314,3.17383 3.31055,4.07227 1.49738,0.89844 3.11847,1.34766 4.86328,1.34765 2.12238,10e-6 3.91925,-0.61197 5.39062,-1.83593 1.47134,-1.22396 2.46743,-3.04036 2.98828,-5.44922 z"
         style="fill:#ffd700;fill-opacity:1"
         id="path3042" />
      <path
         d="m 278.04687,102.54013 3.78907,0.95703 c -0.7943,3.11198 -2.22333,5.48503 -4.28711,7.11914 -2.06382,1.63411 -4.58661,2.45117 -7.56836,2.45117 -3.08595,0 -5.59571,-0.62825 -7.5293,-1.88477 -1.9336,-1.2565 -3.40495,-3.07616 -4.41406,-5.45898 -1.00912,-2.3828 -1.51367,-4.94139 -1.51367,-7.675781 0,-2.981753 0.56966,-5.582662 1.70898,-7.802734 1.13932,-2.220028 2.76041,-3.906224 4.86328,-5.058594 2.10286,-1.152315 4.41731,-1.728487 6.94336,-1.728516 2.86457,2.9e-5 5.27342,0.729195 7.22656,2.1875 1.95311,1.458359 3.31378,3.509138 4.08204,6.152344 l -3.73047,0.878906 c -0.66409,-2.083311 -1.62763,-3.600237 -2.89063,-4.550781 -1.26304,-0.950495 -2.85158,-1.425755 -4.76562,-1.425781 -2.20054,2.6e-5 -4.03973,0.527369 -5.51758,1.582031 -1.47787,1.054711 -2.51628,2.470725 -3.11524,4.248047 -0.59896,1.777362 -0.89844,3.610042 -0.89843,5.498047 -10e-6,2.434912 0.35481,4.560552 1.06445,6.376952 0.70963,1.81641 1.81314,3.17383 3.31055,4.07227 1.49738,0.89844 3.11847,1.34766 4.86328,1.34765 2.12238,10e-6 3.91925,-0.61197 5.39062,-1.83593 1.47134,-1.22396 2.46743,-3.04036 2.98828,-5.44922 z"
         style="fill:#ffd700;fill-opacity:1"
         id="path3044" />
      <path
         d="m 286.52344,112.57919 0,-28.632813 10.80078,0 c 1.90102,2.8e-5 3.35285,0.09117 4.35547,0.273437 1.40623,0.234403 2.58461,0.680366 3.53515,1.337891 0.9505,0.657578 1.71548,1.578801 2.29493,2.763672 0.5794,1.184918 0.86911,2.487001 0.86914,3.90625 -3e-5,2.434913 -0.77477,4.495458 -2.32422,6.18164 -1.5495,1.686213 -4.34898,2.529313 -8.39844,2.529293 l -7.34375,0 0,11.64063 z m 3.78906,-15.019532 7.40234,0 c 2.4479,1.5e-5 4.18618,-0.455714 5.21485,-1.367188 1.02862,-0.911441 1.54295,-2.193992 1.54297,-3.847656 -2e-5,-1.197895 -0.30276,-2.223285 -0.90821,-3.076172 -0.60549,-0.85284 -1.40301,-1.415991 -2.39258,-1.689453 -0.63803,-0.169246 -1.81642,-0.253881 -3.53515,-0.253906 l -7.32422,0 z"
         style="fill:#ffd700;fill-opacity:1"
         id="path3046" />
    </g>
  </g>
</svg>
