<?xml version="1.0" encoding="UTF-8"?>
<!DOCTYPE svg  PUBLIC '-//W3C//DTD SVG 20010904//EN'  'http://www.w3.org/TR/2001/REC-SVG-20010904/DTD/svg10.dtd'>
<svg width="540px" height="360px" version="1.0" viewBox="0 0 5400 3600" xmlns="http://www.w3.org/2000/svg">
<g fill="#69ace5">
<path d="m0 1801v-1801h2702c1616 0 2698 4 2693 9-15 14-5367 3583-5382 3588-11 4-13-329-13-1796z"/>
</g>
<g fill="#91c0eb">
<path d="m26 3583c-11-11-6-73 8-106 17-42 89-104 137-119 45-13 85-5 99 21 9 17 6 19-28 14-79-11-157 54-150 123 3 26-2 35-28 52-18 11-35 18-38 15z"/>
<path d="m160 3491c0-10 39-41 52-41 17 0 6 17-22 33-16 10-30 14-30 8z"/>
<path d="m0 3263v-101l32 32c18 17 43 38 56 46l23 15-56 55-55 54v-101z"/>
<path d="m348 3332c-89-95-63-176 76-228 166-62 203-99 170-169-25-53-67-77-131-73l-52 3 21-22c57-61 202 13 238 122 26 80-8 150-109 218-67 47-101 83-101 109 0 7-10 19-22 27-13 8-32 20-44 27-18 12-23 11-46-14z"/>
<path d="m90 3203c-42-22-60-54-59-108v-40l13 31c21 48 50 64 105 57 36-4 50-1 61 11 11 15 11 20-6 36-28 29-73 34-114 13z"/>
<path d="m737 3103c-19-30-27-97-17-133 30-110 179-190 238-127l21 22-45-4c-77-6-131 31-148 101-4 20 0 34 19 56 14 17 25 32 25 35 0 5-77 57-84 57-3 0-7-3-9-7z"/>
<path d="m115 3048c-37-20-75-61-75-81 0-17 5-15 35 12 20 17 40 31 46 31 24 0 49-22 49-44 0-28-16-43-50-48-25-4-25-4 7-21 53-28 106-23 147 17 39 37 44 60 20 94-32 47-128 68-179 40z"/>
<path d="m525 3004c-14-11-32-13-61-9-48 7-79-13-90-57l-6-28 63 6c74 7 106 24 115 59 9 36 2 46-21 29z"/>
<path d="m840 2995c0-38 42-75 83-75 19 0 49-3 66-6 17-4 31-2 31 3 0 16-92 77-114 75-12 0-31 6-43 14-22 14-23 13-23-11z"/>
<path d="m1 2858-1-108 50 20c54 21 90 42 90 50 0 3-15 11-33 18-40 14-81 56-95 97-9 25-11 10-11-77z"/>
<path d="m221 2821c-11-7-10-13 3-32 21-32 5-62-54-106-93-69-123-97-136-129-39-92 6-193 108-245 45-23 86-24 116-3 33 23 27 30-22 26-54-5-100 18-126 61-46 75-16 114 135 172 111 43 155 78 155 124 0 79-55 141-124 141-22 0-47-4-55-9z"/>
<path d="m635 2778-47-52 23-16c13-8 38-28 55-45l31-30 29 30c16 17 40 38 53 46l25 16-48 51c-27 29-54 52-61 52s-34-24-60-52z"/>
<path d="m1036 2798c-61-61-58-147 8-187 17-11 68-33 114-51 45-17 96-43 113-58 28-23 31-30 26-65-9-67-69-111-142-105-31 2-41 0-38-10 26-66 175-19 229 73 22 39 26 54 22 101-6 65-25 95-93 144-108 77-143 134-98 159 26 14 9 24-52 29-52 4-56 3-89-30z"/>
<path d="m0 2678v-42l42 42-42 42v-42z"/>
<path d="m512 2680c-28-12-39-37-23-53 7-7 38-12 69-12 55 0 57-1 82-39l25-39 3 31c8 82-77 143-156 112z"/>
<path d="m774 2671c-33-20-54-65-53-110 0-24 1-25 12-7 33 53 56 67 100 61 73-11 106 41 42 65-39 15-66 12-101-9z"/>
<path d="m1350 2682c0-5 9-17 20-27 16-15 22-15 35-5 14 11 13 14-2 26-20 15-53 18-53 6z"/>
<path d="m1452 2598c-66-71-52-194 28-256 67-52 127-65 168-36 33 23 27 30-22 26-76-6-146 51-146 120 0 27 42 71 80 83 11 3 20 10 20 15 0 7-93 70-103 70-2 0-13-10-25-22z"/>
<path d="m474 2529c-18-5-46-25-63-44-29-34-30-38-17-63 26-51 54-67 112-67 36 0 59 5 69 16 15 15 14 17-14 22-39 8-54 53-26 74 27 19 44 16 81-12 39-30 45-31 37-7-22 61-111 101-179 81z"/>
<path d="m827 2525c-44-15-83-48-90-76-7-25-2-24 37 6 37 28 54 31 81 12 28-21 13-66-26-74-28-5-29-7-14-22 10-11 33-16 69-16 58 0 86 16 112 67 13 25 12 29-17 62-17 20-47 40-67 46-44 12-38 12-85-5z"/>
<path d="m144 2463c11-44 50-73 101-73 24 0 50-3 59-6 12-5 16 1 16 25 0 42-36 65-90 58-25-3-45 0-57 9-27 21-36 17-29-13z"/>
<path d="m1221 2476c-14-8-42-11-66-8-34 3-47 0-64-17-11-11-21-31-21-44 0-23 3-23 58-19 66 5 99 22 113 59 13 36 8 44-20 29z"/>
<path d="m1534 2463c11-44 50-73 101-73 24 0 50-3 59-6 24-9 21 41-5 67-16 16-30 20-62 17-25-3-54 1-71 10-29 14-29 14-22-15z"/>
<path d="m686 2412c-10-42-65-98-107-107-26-6-29-9-18-21 8-7 41-24 74-38l59-24 51 20c27 11 60 26 73 34 23 15 23 15-28 41-50 25-65 42-86 98l-11 30-7-33z"/>
<path d="m1800 2402c0-11 30-37 53-45 25-9 21-2-18 27-19 15-35 23-35 18z"/>
<path d="m370 2292c-64-32-93-121-56-177 17-26 34-35 190-101 87-37 113-68 97-116-6-19-25-48-42-64-26-25-38-29-85-29-59 0-65-6-32-29 31-22 61-20 117 9 107 54 146 157 96 255-7 14-48 52-91 85s-85 72-93 87c-14 24-14 28 2 46 24 26 22 30-20 41-48 14-42 14-83-7z"/>
<path d="m933 2299c-38-11-39-15-16-41 24-27 5-59-64-110-90-68-120-101-133-146-22-85 12-156 100-210 38-23 65-32 85-30l30 3v-115c0-97 3-122 22-162l22-47-37 19c-20 11-50 20-66 20-48 0-116-39-131-74-18-42-11-45 24-12 20 19 37 27 56 24 58-7 58-69 1-76-19-3-26-8-22-18 6-17-39-38-61-30-8 3-22 24-32 47-18 39-19 39-25 16-9-39-56-88-100-107l-41-17 66-34-23-30c-13-17-31-42-40-57l-17-25-35 35c-40 40-44 62-20 89 16 17 15 19-10 29-72 27-142-13-165-95-19-71 31-126 149-164 34-11 35-12 32-56-4-45-4-45-42-45-42 0-57-13-66-56l-6-29 56 3c52 4 55 3 62-23 9-34 3-38-39-27-30 8-35 8-30-4 7-19 61-47 78-41 7 3 21-14 36-44 12-27 29-55 36-61 11-9 4-15-34-27-85-28-61-85 28-67 40 8 64-6 89-52l21-37-3 42-3 41 27-14c20-10 28-22 28-41 0-25 1-25 13-9s17 17 63 3c40-12 45-16 29-22-35-14-82-53-88-75-7-25-4-25 41 5 24 16 45 22 59 19 48-13 35-84-15-84l-27-1 24-19c37-32 102-27 144 10 19 17 37 39 40 49 6 25-16 57-57 82l-31 19h48c26 0 74 9 107 20l59 20 53-21c128-50 152-107 78-181-38-38-42-40-95-36-60 3-65 0-37-25 29-27 91-21 144 12 64 41 91 83 96 150 4 69-17 113-74 157l-42 31 32 41c17 22 36 48 41 57 9 15 14 16 34 6 12-7 35-10 52-6 16 4 29 2 29-3s17-30 37-56l36-47-35-29c-97-80-89-218 18-293 53-37 126-48 154-22 11 10 20 21 20 24s-24 4-54 3c-50-3-57-1-91 30-24 22-38 45-42 70-5 33-2 41 25 66 17 16 52 37 78 47 45 17 51 17 110 2 34-10 86-17 116-17h53l-31-19c-41-25-63-57-57-82 3-10 21-32 40-49 42-37 107-42 144-10l24 19-27 1c-50 0-63 71-15 84 14 3 35-3 59-19 45-30 48-30 41-5-7 26-58 66-96 75-27 7-26 8 25 26 67 23 63 23 76-4 10-21 11-21 11 9 1 21 9 36 31 52l29 22-5-53-5-52 21 37c26 48 44 57 100 52 54-6 75 5 66 34-9 26-64 45-102 36l-29-7 25 29c14 16 34 49 44 72 17 37 23 42 43 37 26-6 78 17 86 39 5 12 0 13-26 5-48-14-70-3-62 29 4 15 7 27 8 28 1 0 31-2 65-5l64-7-6 30c-9 45-24 56-77 56h-49v40c0 35 4 42 28 52 91 36 150 70 162 92 27 51 6 124-46 165-29 23-68 27-108 11-25-9-25-10-9-38s16-31 0-55c-9-14-30-35-46-46l-30-22-12 23c-7 13-23 36-35 51-13 16-24 32-24 36s17 15 38 25l37 19-41 17c-45 19-91 68-100 107-6 24-7 23-24-14-25-57-40-66-80-49-19 8-28 16-21 20 19 12 12 25-15 28-58 7-57 69 1 76 19 3 36-5 56-24 28-27 29-27 29-5 0 48-90 98-156 88-39-7-89-39-105-68-8-16-6-28 10-55l20-34h-28c-15 0-50-7-77-15-41-12-46-12-29 0 24 17 27 20 60 62 14 17 40 62 57 100 27 57 33 83 36 158 2 50 0 107-6 128-10 37-10 37 11 22 31-22 65-18 122 13 70 38 109 98 109 165 0 72-20 103-110 172-43 33-85 72-93 87-14 24-14 28 2 46 24 26 22 30-23 42-123 33-213-145-108-214 14-9 64-31 112-50 106-42 134-59 146-92 12-31-6-79-43-113-35-31-116-41-140-16-30 29-21 45 24 45 64 0 108 31 109 78 0 19-3 21-19 12-11-5-41-10-66-10-53 0-85-14-85-37 0-9-13 1-33 26-42 53-90 92-152 123l-49 25 32 8c17 3 34 10 37 15 9 14-5 37-31 49-43 19-81 13-117-19-23-20-45-30-67-30s-44 10-67 30c-36 32-78 39-116 19-42-22-43-52-4-63 19-6 14-11-35-36-31-16-79-52-107-80-43-43-54-49-70-40-11 5-41 10-66 10s-55 5-66 10c-16 9-19 7-19-12 1-45 45-78 105-78h36l-17-31c-15-30-18-31-61-26-50 5-88 35-109 84-27 63 6 96 150 152 100 39 125 55 141 96 24 57-10 136-70 161-39 16-38 16-82 3zm594-216c-4-3-10-3-14 0-3 4 0 7 7 7s10-3 7-7zm-474-746 42-42-61 15-60 15 15 27c9 15 18 28 19 28 2 0 23-19 45-43zm259-138c15-4 15-6-2-27l-19-23-78 78 41-12c23-7 49-14 58-16zm223 16c-11-9-27-24-36-35-16-19-17-19-34 0-16 18-15 19 32 33 62 19 62 19 38 2zm-166-141 20-26 26 29 25 28-25-55c-14-30-25-63-25-72 0-33-18-19-25 19-4 21-18 57-33 81-24 42-24 44-4 33 11-6 30-23 41-37z"/>
<path d="m0 2204v-95l36 35c20 20 45 38 55 41 17 6 15 12-22 55-65 77-69 75-69-36z"/>
<path d="m1331 2246c-50-50-52-54-32-61 12-4 38-23 58-42 35-36 36-36 52-16 9 12 33 32 53 46l36 24-50 52c-28 28-54 51-57 51-4 0-31-24-60-54z"/>
<path d="m1945 2290c9-15 65-42 77-38 7 3-4 14-24 26-37 23-63 29-53 12z"/>
<path d="m677 2172c-22-24-12-52 18-52 31 0 41 29 17 52-18 18-19 18-35 0z"/>
<path d="m2067 2172c-20-22-13-52 13-52 10 0 23 7 30 16 11 12 10 18-6 35-20 19-21 19-37 1z"/>
<path d="m64 2126c-28-28-34-41-34-77l1-44 20 38c21 40 20 40 96 41 29 1 57 6 63 12 26 26-23 64-81 64-22 0-41-10-65-34z"/>
<path d="m2167 2088c-40-38-67-91-67-133 0-29 24-88 47-115 29-35 111-80 145-80 24 0 68 25 68 38 0 4-25 7-54 7-47 0-59 4-85 29-17 16-36 44-42 63-16 49 7 78 94 117l71 33-62 41c-33 23-63 42-65 42s-25-19-50-42z"/>
<path d="m109 1987c-44-23-80-69-66-83 4-4 20 5 35 19 43 42 92 34 92-14 0-32-30-55-58-44-12 4-10-1 6-17 18-18 34-23 73-23 46 0 54 4 85 37 41 46 43 66 7 100-55 53-107 60-174 25z"/>
<path d="m530 1950c-8-5-38-10-66-10-59 0-82-14-90-56l-6-31 54 4c69 6 103 19 118 47 16 31 10 59-10 46z"/>
<path d="m2230 1938c0-14 12-37 26-52 21-21 36-26 75-26 26 0 55-3 65-7 15-5 16-2 10 28-9 46-30 59-96 59-31 0-61 5-68 12-9 9-12 6-12-14z"/>
<path d="m2477 1944c-25-26 33-108 83-119 32-7 90 2 90 13 0 6-140 102-160 110-3 1-9-1-13-4z"/>
<path d="m0 1803c0-60 4-103 10-103 16 0 117 47 124 58 3 6-4 14-16 18-42 13-80 47-99 88l-19 41v-102z"/>
<path d="m2672 1781c-39-20-34-28 42-60 51-22 83-26 105-12 10 6-2 19-47 50-34 22-62 41-64 40l-36-18z"/>
<path d="m233 1770c-27-11-28-18-8-44 22-29-2-64-89-125-92-66-121-114-114-192 7-64 46-115 118-151 66-34 81-35 117-3l28 25-45-6c-56-7-106 18-132 67-40 74-11 111 130 165 154 60 190 111 142 204-30 60-89 83-147 60z"/>
<path d="m640 1724c-39-40-51-58-41-62 8-2 33-22 55-43l41-37 36 32c19 18 44 38 55 44 18 10 15 15-36 67l-55 55-55-56z"/>
<path d="m2030 1725c-51-52-54-57-36-67 11-6 36-26 55-44l36-32 41 37c22 21 47 41 55 43 10 4-2 22-41 62l-55 56-55-55z"/>
<path d="m2451 1766c-33-18-71-84-71-124 0-52 47-91 161-136 53-20 109-48 123-61 71-66-20-188-127-171-36 6-39 5-27-9 39-47 109-38 181 23 48 41 69 84 69 143 0 63-33 111-117 171-95 67-113 99-77 139 14 15 12 18-17 28-41 14-68 13-98-3z"/>
<path d="m0 1627c0-40 10-46 30-21 11 13 10 19-8 37l-22 21v-37z"/>
<path d="m2756 1640c-16-16-17-22-6-35 16-20 47-19 58 1 7 12 4 22-9 35-22 22-19 23-43-1z"/>
<path d="m502 1614c-24-16-29-39-11-50 6-3 34-6 62-5 55 1 81-14 100-59l11-25 4 29c5 37-14 82-46 106-30 24-89 26-120 4z"/>
<path d="m768 1610c-32-24-51-69-46-106l4-29 11 25c19 45 45 60 100 59 55-2 73 5 73 26 0 42-99 60-142 25z"/>
<path d="m1892 1614c-24-16-29-39-11-50 6-3 34-6 62-5 55 1 81-14 100-59l11-25 4 29c5 37-14 82-46 106-30 24-89 26-120 4z"/>
<path d="m2158 1610c-32-24-51-69-46-106l4-29 11 25c19 45 45 60 100 59 55-2 73 5 73 26 0 42-99 60-142 25z"/>
<path d="m2897 1589c-120-83-132-212-28-301 72-61 142-70 181-23 12 14 9 15-27 9-108-17-198 105-127 171 15 14 64 39 110 57 46 17 84 35 84 39 0 6-122 90-131 88-2 0-30-18-62-40z"/>
<path d="m455 1464c-74-38-85-82-35-133 39-38 85-48 133-27 43 18 48 33 11 38-58 7-57 69 1 76 19 3 36-5 56-24 35-33 46-27 25 14-18 34-87 72-132 72-16 0-42-7-59-16z"/>
<path d="m2192 1459c-40-20-81-73-68-87 4-3 19 7 35 22 20 19 37 27 56 24 58-7 59-69 1-76-37-5-32-20 11-38 48-21 94-11 133 27 42 43 41 80-5 115-48 37-107 41-163 13z"/>
<path d="m3186 1429c-32-37-32-38-3-80 32-48 91-68 143-48 44 17 57 39 22 39-30 0-48 17-48 46 0 14-14 30-40 48-22 14-42 26-44 26s-16-14-30-31z"/>
<path d="m140 1426c0-1 5-17 11-35 14-40 39-54 112-61 57-6 57-6 57 21 0 44-24 59-90 59-32 0-62 5-65 10-6 9-25 14-25 6z"/>
<path d="m2615 1420c-3-5-32-10-64-10-65 0-91-18-91-61 0-23 3-25 38-22 89 8 103 14 122 46 11 18 20 38 20 45 0 14-16 16-25 2z"/>
<path d="m2920 1418c0-7 9-27 20-45 19-32 33-38 123-46 34-3 37-1 37 23 0 42-28 60-93 60-31 0-59 5-62 10-9 14-25 12-25-2z"/>
<path d="m3425 1290c-11-10-38-28-60-39l-40-19 65-31c36-17 73-31 82-31 22 0 108 37 108 47 0 7-107 81-129 91-4 1-15-7-26-18z"/>
<path d="m0 1151v-103l24 29c13 16 36 35 50 42 14 8 26 19 26 26 0 6-22 33-50 60l-50 49v-103z"/>
<path d="m2727 1202c-26-26-47-52-47-58s12-17 26-25c14-7 37-26 50-42l24-29 24 29c13 16 36 35 50 42 14 8 26 18 26 23 0 10-90 108-99 108-4 0-28-22-54-48z"/>
<path d="m3131 1225c-16-14-37-45-46-69-15-39-15-47-2-79 17-39 48-59 163-102 75-28 129-65 136-92 7-29-10-77-36-102-29-28-87-42-126-31-23 7-28 5-23-6 3-8 18-21 34-30 43-22 102-1 160 56 54 52 73 104 60 163-13 56-32 79-118 143-88 67-108 101-79 133 18 20 18 21-8 31-45 17-83 12-115-15z"/>
<path d="m3650 1104c-107-81-139-115-151-156-20-77 10-154 79-202 53-37 100-49 134-35 47 19 42 37-12 36-51-1-90 18-114 56-49 75-19 119 120 173 52 20 104 44 116 54 21 17 21 17-51 63-39 26-73 47-74 46-1 0-22-16-47-35z"/>
<path d="m3453 1111c-21-18-21-19-4-35 22-20 35-20 51 0 11 12 10 18-6 34-18 18-20 18-41 1z"/>
<path d="m77 1089c-26-15-47-63-46-106 0-35 1-36 10-13 20 49 38 60 99 60 41 0 61 5 71 16 31 37-81 74-134 43z"/>
<path d="m2579 1081c-37-30-12-51 61-51 51 0 61-3 79-26 12-15 21-34 21-43 1-15 1-15 10 0 13 22-6 86-35 115-31 31-101 33-136 5z"/>
<path d="m2840 1070c-31-33-48-96-31-113 8-8 11-6 11 5 0 8 9 27 21 42 18 23 28 26 79 26 71 0 92 18 61 49-15 15-34 21-67 21-38 0-51-5-74-30z"/>
<path d="m112 934c-36-19-72-59-72-81 0-10 9-7 31 12 23 18 41 25 63 23 28-3 31-6 31-38s-3-35-35-40l-35-5 28-19c55-37 135-20 173 39 50 76-88 158-184 109z"/>
<path d="m2545 941c-30-13-75-61-75-81 0-26 39-71 77-86 38-16 101-5 123 21 10 13 9 15-11 15-37 0-51 14-47 46 4 41 53 46 97 9 28-24 31-25 31-8 0 24-45 68-83 82-33 13-83 13-112 2z"/>
<path d="m2900 939c-36-14-80-59-80-82 0-17 3-16 31 8 43 35 93 32 97-6 3-29-12-45-48-51l-25-3 28-19c57-39 141-17 177 47 12 21 12 29 1 50-28 53-119 81-181 56z"/>
<path d="m3920 931c-19-10-42-30-50-45-13-23-13-29 0-53 37-65 118-87 177-47l28 19-35 5c-30 4-36 9-38 34-4 34 5 45 41 48 15 1 27 3 27 4s-18 13-40 28c-47 31-64 32-110 7z"/>
<path d="m3305 890c-3-5-33-10-65-10-49 0-61-4-74-22-9-12-16-32-16-43 0-20 4-21 67-14 56 6 71 11 90 33 13 15 23 36 23 47 0 20-15 26-25 9z"/>
<path d="m3620 881c0-11 10-32 23-47 19-22 34-27 91-33l68-7-6 29c-10 48-23 57-87 57-32 0-61 5-64 10-10 17-25 11-25-9z"/>
<path d="m4100 866c0-2 7-9 15-16 9-7 15-8 15-2 0 5-7 12-15 16-8 3-15 4-15 2z"/>
<path d="m1 747c-1-124-6-120 92-70 44 22 55 43 21 43-23 0-93 70-103 104-7 23-9 5-10-77z"/>
<path d="m2766 817c-7-31-53-76-94-94-18-7-30-17-28-22 3-5 35-21 71-36l65-28 65 28c36 15 67 31 70 35s-16 18-42 32c-34 17-53 35-68 65-23 48-31 52-39 20z"/>
<path d="m4155 811c-7-25-80-91-99-91-8 0-18-5-21-10-6-10 108-70 133-70 18 0 146 59 140 65-2 3-24 15-48 28-28 14-51 36-63 60-21 41-33 46-42 18z"/>
<path d="m221 709-24-9 20-23c34-36 8-73-110-154-115-80-115-223 0-305 53-38 124-49 153-23 29 27 25 30-30 27-58-5-90 12-120 61-44 72-12 114 130 167 147 55 184 104 146 194-27 65-96 93-165 65z"/>
<path d="m2424 685c-36-39-52-93-38-134 12-34 59-64 160-102 47-18 99-45 116-61 27-25 30-33 25-66-4-25-18-48-42-70-34-31-41-33-91-30-30 1-54 0-54-3s9-14 20-24c47-42 171 9 217 90s23 173-58 233c-130 96-149 124-113 163 16 17 15 19-10 29-55 21-96 13-132-25z"/>
<path d="m3001 709c-22-9-23-11-7-27 36-41 20-65-114-164-61-46-82-88-77-160 4-64 33-112 93-148 50-31 118-38 144-15 11 10 20 21 20 24s-24 4-54 3c-50-3-57-1-91 30-27 24-38 44-42 74-5 38-3 43 29 67 19 15 65 38 102 52 138 52 176 82 176 138 0 36-33 101-62 121-25 18-80 20-117 5z"/>
<path d="m3419 670-51-55 28-20c16-11 40-32 54-46l24-26 31 31c16 18 40 38 53 46l23 15-56 55-55 54-51-54z"/>
<path d="m3825 698c-32-25-55-74-55-119 0-48 50-88 159-128 52-19 105-46 123-62 27-26 30-34 25-67-4-25-18-48-42-70-34-31-41-33-91-30-30 1-54 0-54-3s9-14 20-24c29-26 100-15 153 23 114 81 117 217 6 300-134 99-150 122-116 159l20 22-27 11c-44 16-91 12-121-12z"/>
<path d="m4400 647c0-26-25-51-130-129-61-46-82-88-78-159 5-67 32-109 96-150 52-33 105-38 140-13 34 24 27 29-33 26-53-4-57-2-95 36-32 31-40 47-40 75 0 45 36 75 134 112 104 39 144 63 160 93l14 28-61 39c-34 21-72 45-84 53-22 14-23 13-23-11z"/>
<path d="m0 567c0-27 4-35 14-31 24 9 26 31 5 50-18 17-19 16-19-19z"/>
<path d="m1366 582c-15-18-15-20 4-37s21-17 40 0 19 19 4 37c-10 10-20 18-24 18s-14-8-24-18z"/>
<path d="m2756 582c-15-18-15-20 4-37s21-17 40 0 19 19 4 37c-10 10-20 18-24 18s-14-8-24-18z"/>
<path d="m4146 581c-16-17-16-20-1-35 21-20 28-20 49 2 15 18 15 20-2 35-23 21-25 21-46-2z"/>
<path d="m3293 565c-66-29-28-76 48-61 40 8 64-6 89-52l21-37-4 49c-8 85-82 134-154 101z"/>
<path d="m3564 565c-39-20-64-63-64-112l1-38 20 37c23 46 48 60 88 52 39-8 81 2 81 20 0 40-77 65-126 41z"/>
<path d="m444 401c-41-25-63-57-57-82 3-10 21-32 40-49 42-37 107-42 144-10l24 19-27 1c-50 0-63 71-15 84 14 3 35-3 59-19 45-30 48-30 41-5-17 64-146 101-209 61z"/>
<path d="m2195 404c-40-21-62-41-68-65-7-24-4-24 41 6 24 16 45 22 59 19 48-13 35-84-15-84l-27-1 24-19c38-32 102-27 146 11 55 49 43 99-32 138-31 16-93 14-128-5z"/>
<path d="m3224 401c-41-25-63-57-57-82 3-10 21-32 40-49 42-37 107-42 144-10l24 19-25 1c-52 0-71 61-25 82 21 9 30 7 65-16 36-24 40-24 40-8 0 36-76 82-137 82-21 0-52-9-69-19z"/>
<path d="m3583 404c-38-19-58-41-68-74l-7-25 23 21c45 40 68 47 95 29 27-17 29-27 14-56-7-11-21-19-38-19l-27-1 24-19c15-13 38-20 68-20 38 0 50 5 79 34 40 40 44 74 12 103-51 46-115 56-175 27z"/>
<path d="m4624 410c-23-9-74-66-74-82 0-6 17-28 39-49 33-34 45-39 84-39 30 0 53 7 68 20l24 19-25 1c-32 0-50 17-50 47 0 21 25 43 49 43 6 0 26-14 46-31 27-24 35-27 35-14 0 65-118 117-196 85z"/>
<path d="m144 354c12-49 44-71 114-78 60-5 62-5 62 17 0 45-23 62-81 60-35-2-62 3-78 13-23 16-24 16-17-12z"/>
<path d="m1226 365c-13-9-38-14-73-12-60 2-83-15-83-60 0-22 2-22 63-17 52 5 67 11 90 35 15 16 27 38 27 49 0 24 0 23-24 5z"/>
<path d="m1534 354c12-49 44-71 114-78 60-5 62-5 62 17 0 45-23 62-81 60-35-2-62 3-78 13-23 16-24 16-17-12z"/>
<path d="m2616 364c-12-8-40-13-73-11-60 2-83-15-83-60 0-22 2-22 63-17 68 7 101 28 112 71 8 32 5 35-19 17z"/>
<path d="m2920 360c0-11 12-33 28-49 22-24 37-30 90-35 60-5 62-5 62 17 0 45-23 62-81 60-34-2-62 3-76 13-21 13-23 13-23-6z"/>
<path d="m4006 364c-12-8-40-13-73-11-60 2-83-15-83-60 0-22 2-22 63-17 68 7 101 28 112 71 8 32 5 35-19 17z"/>
<path d="m4310 365c0-29 30-75 53-79 12-3 46-7 75-11 50-5 52-5 52 18 0 45-23 62-81 60-34-2-62 3-76 13-21 13-23 13-23-1z"/>
<path d="m687 304c-8-42-51-90-93-106-19-6-33-17-31-23 2-5 33-23 69-39l64-28 75 34 74 34-48 23c-49 24-78 56-94 106l-10 30-6-31z"/>
<path d="m2076 304c-12-45-43-81-93-105l-47-23 73-34 73-35 66 29c36 16 67 34 69 39 2 6-12 16-30 23-43 15-75 50-91 97l-13 37-7-28z"/>
<path d="m3466 304c-12-45-43-81-93-105l-47-23 73-34 73-35 66 29c36 16 67 34 69 39 2 6-12 16-30 23-43 15-75 50-91 97l-13 37-7-28z"/>
<path d="m4856 304c-12-45-43-81-93-105l-47-23 73-34 73-35 66 29c36 16 67 34 69 39 2 6-12 16-30 23-43 15-75 50-91 97l-13 37-7-28z"/>
<path d="m4900 319c0-5 5-7 10-4 6 3 10 8 10 11 0 2-4 4-10 4-5 0-10-5-10-11z"/>
<path d="m4970 272c0-11 45-32 68-32 12 0 8 6-13 20-31 21-55 26-55 12z"/>
<path d="m0 96v-98l38 33c21 19 46 39 56 44 15 9 10 17-38 65l-56 54v-98z"/>
<path d="m343 162c-36-36-54-95-40-135l9-27h135 136l-40 29c-42 31-83 77-83 94 0 6 7 19 17 29 22 24 13 31-50 36-49 4-56 2-84-26z"/>
<path d="m918 183c-22-6-23-17-3-33 32-27 11-65-64-119l-45-32 278 6 7 28c10 38-6 90-40 126-24 26-36 31-73 30-23-1-51-3-60-6z"/>
<path d="m1330 135c-30-30-49-55-44-55 6 0 32-19 58-41l47-42 32 30c18 17 43 36 56 43l23 12-53 54c-29 30-56 54-59 54s-30-25-60-55z"/>
<path d="m1730 160c-37-39-54-98-40-134l10-26h136 137l-44 31c-77 55-93 86-62 121 22 24 13 31-52 36-51 4-57 2-85-28z"/>
<path d="m2308 183c-22-6-23-17-3-33 8-7 15-18 15-25 0-19-39-64-83-96l-40-29h136 135l9 27c14 40-4 99-39 134-24 23-38 29-71 28-23-1-50-3-59-6z"/>
<path d="m2721 136-53-54 23-12c13-7 38-26 56-43l32-30 47 42c26 22 52 41 58 41 5 0-14 25-44 55s-57 55-60 55-30-24-59-54z"/>
<path d="m3119 159c-36-38-53-97-39-133l10-26h136 137l-44 31c-76 54-96 92-63 120 14 12 14 14-2 26-10 7-38 13-62 13-36 0-49-5-73-31z"/>
<path d="m3698 183c-22-6-23-17-3-33 8-7 15-18 15-25 0-19-39-64-83-96l-40-29h135c148 0 148 0 148 60 0 74-50 131-114 129-23-1-49-3-58-6z"/>
<path d="m4111 136-53-54 23-12c13-7 38-26 56-43l32-30 47 42c26 22 52 41 58 41 5 0-14 25-44 55s-57 55-60 55-30-24-59-54z"/>
<path d="m4510 162c-37-37-55-97-41-134l11-28h132 133l-35 28c-78 61-97 96-64 123 14 12 14 14-2 26-10 7-38 13-62 13-35 0-49-6-72-28z"/>
<path d="m5080 180c-12-8-12-11 3-28 9-10 17-23 17-29 0-17-41-63-83-94l-40-29h135c149 0 148-1 148 65 0 30-7 38-65 79-67 46-88 53-115 36z"/>
<path d="m677 60c-21-25-21-37 0-49 19-10 53 2 53 20 0 5-8 19-18 29-18 19-18 19-35 0z"/>
<path d="m2067 60c-21-25-21-37 0-49 19-10 53 2 53 20 0 5-8 19-18 29-18 19-18 19-35 0z"/>
<path d="m3457 62c-22-24-21-39 2-52 15-7 23-6 35 6 20 19 20 21-2 45-18 19-19 19-35 1z"/>
<path d="m4846 61c-20-22-20-35-2-50 33-27 67 18 37 48-18 18-20 19-35 2z"/>
<path d="m95 40c-12-4-27-15-34-24-12-15-5-16 75-16l89 1-28 24c-28 25-65 31-102 15z"/>
<path d="m1215 41c-12-5-27-16-34-25-12-14-5-16 75-16h88l-20 20c-23 23-79 34-109 21z"/>
<path d="m1485 40c-12-4-27-15-34-24-12-15-5-16 75-16l89 1-28 24c-28 25-65 31-102 15z"/>
<path d="m2584 26-29-25 90-1h89l-20 21c-12 11-39 23-61 26-33 4-44 1-69-21z"/>
<path d="m2875 41c-12-5-27-16-34-25-12-14-5-16 75-16h88l-20 20c-23 23-79 34-109 21z"/>
<path d="m3974 26-29-25 90-1h89l-20 21c-12 11-39 23-61 26-33 4-44 1-69-21z"/>
<path d="m4265 41c-12-5-27-16-34-25-12-14-5-16 75-16h88l-20 20c-23 23-79 34-109 21z"/>
<path d="m5350 15c-11-13-8-15 19-15 36 0 39 5 12 19-14 8-22 7-31-4z"/>
</g>
<g fill="#b2d4f1">
<path d="m1234 2076c-83-31-122-56-183-121-76-80-112-165-119-274-7-138 29-241 121-338 27-29 48-53 46-53s-26 7-53 15-82 15-121 15c-171 0-322-97-403-259-36-73-37-77-37-190 0-106 2-121 27-175 42-89 93-151 159-195 239-159 548-74 670 184 16 33 29 68 29 78 0 9 5 17 10 17 6 0 10-8 10-19 0-30 67-153 107-196 146-155 382-190 565-82 65 38 145 128 181 204 30 64 32 74 32 183 0 108-2 119-31 180-59 123-152 207-275 249-75 25-183 28-254 6-27-8-50-13-52-12-1 2 14 19 34 38 137 129 173 354 83 528-28 56-112 146-166 177-115 68-264 84-380 40zm30-861c27-8 79-15 116-15s89 7 116 15 51 15 53 15-19-25-48-55c-52-55-96-133-107-192-7-37-24-45-24-10 0 40-58 146-111 202-29 30-50 55-48 55s26-7 53-15z"/>
</g>
<g fill="#dadada">
<path d="m1239 2076c-126-44-227-138-276-256-24-57-27-78-27-170s3-113 28-172c17-42 48-89 84-129 34-37 49-60 37-55-148 56-337 19-454-89-195-182-203-465-17-651 132-131 315-168 489-99 116 47 229 171 258 285 7 28 16 50 19 50s12-22 19-50c29-114 142-238 258-285 174-69 357-32 489 99 186 186 178 469-17 651-122 113-318 146-470 81-9-4 10 19 41 51 94 97 137 216 127 348-22 289-318 486-588 391zm277-886c-56-53-113-152-123-215-7-46-19-44-27 4-9 56-60 149-114 205-29 30-39 46-27 42 87-31 228-32 295-3 53 23 53 21-4-33z"/>
</g>
<g fill="#c4def5">
<path d="m1239 2076c-126-44-227-138-276-256-24-57-27-78-27-170s3-113 28-172c17-42 48-89 84-129 34-37 49-60 37-55-148 56-337 19-454-89-195-182-203-465-17-651 132-131 315-168 489-99 116 47 229 171 258 285 7 28 16 50 19 50s12-22 19-50c29-114 142-238 258-285 174-69 357-32 489 99 186 186 178 469-17 651-122 113-318 146-470 81-9-4 10 19 41 51 94 97 137 216 127 348-22 289-318 486-588 391zm184-36 34-29 24 52 52-58c29-32 56-64 60-72 7-12 12-11 24 6 19 28 41 26 48-4 3-14 7-36 10-50 4-18 12-25 29-25 18 0 23-5 23-27 0-16 10-49 22-76 12-26 22-63 23-82s5-35 10-35c15 0 8-23-13-47-20-20-20-23-5-29 22-8 20-27-4-49-13-12-18-25-14-41s0-25-14-33c-11-6-22-7-26-4-3 3-6-5-6-18 0-25-20-65-20-41 0 6-4 12-10 12-5 0-7-7-3-15 14-37-79-83-112-55-10 8-28 10-52 5l-37-7 24-19c32-24 38-24 42 4l3 22 7-23c8-28-16-41-43-24-22 14-29 15-29 4 0-5 10-14 23-21l22-11-22 6c-13 3-23 1-23-5 0-15-43-14-59 2-11 9-14 9-18 0-7-18-68-16-83 2-11 13-15 13-21 3-6-9-9-3-9 17-1 28-2 29-10 8-12-29-34-29-54-2-9 14-19 18-28 13-10-6-10-4 1 9 17 22 9 32-16 19-23-12-43-5-43 14 0 9-5 12-12 8-10-6-10-4 0 7 16 17 16 37 0 21-22-22-38-13-38 22 0 30-3 35-27 38-19 2-29 10-31 23-2 11-10 25-19 32-10 8-12 19-8 34 5 16 4 19-5 14s-11-4-6 4c4 6 12 9 17 6 17-11 9 4-12 24-15 14-20 27-16 42 4 13 1 29-5 36-7 9-6 19 6 37 8 14 12 26 8 29-4 2-1 2 6 1 14-4 16 12 2 21-17 10-11 32 15 63 15 19 23 36 19 47-9 22 30 61 73 76 26 8 32 15 28 29-7 22 22 53 43 45 8-3 18-1 22 5s7-5 8-25c2-39-20-57-41-36-9 10-8 16 7 27 19 14 19 14-2 14-27 0-29-26-3-59 22-28 62-22 54 8-3 10 0 22 6 25 8 5 8 13 0 27-5 11-7 29-4 39 9 27 64 27 98 0 32-26 37-25 37 3 0 23 16 47 32 47 4 0 23-13 41-30zm-92 2c-7-2-18 1-23 6-8 8-4 9 13 5 13-4 18-8 10-11zm124 8c3-6-1-7-9-4-18 7-21 14-7 14 6 0 13-4 16-10zm102-30c3-11 9-17 14-14s9 0 9-5c0-19-17-12-34 14-10 15-12 25-5 25 6 0 13-9 16-20zm59-32c4-7 3-8-4-4s-12 2-12-3c0-6-5-11-11-11-8 0-8 5 1 15 15 18 17 18 26 3zm87-88c3-11 1-18-4-14-5 3-9 12-9 20 0 20 7 17 13-6zm67-125c0-5-5-3-10 5s-10 20-10 25c0 6 5 3 10-5s10-19 10-25zm17-92c-4-3-7 0-7 7s3 10 7 7c3-4 3-10 0-14zm0-110c-4-3-10-3-14 0-3 4 0 7 7 7s10-3 7-7zm-718-187c-3-3-11 5-18 17-13 21-12 21 5 5 10-10 16-20 13-22zm521-90c0-2-7-7-16-10-8-3-12-2-9 4 6 10 25 14 25 6zm-617-36 34-29 24 52 52-58c29-32 56-64 60-72 7-12 12-11 24 6 19 28 41 26 48-4 3-14 7-36 10-50 4-18 12-25 29-25 18 0 23-5 23-27 0-16 10-49 22-76 12-26 22-63 23-82s5-35 10-35c15 0 8-23-13-47-20-20-20-23-5-29 22-8 20-27-4-49-13-12-18-25-14-41s0-25-14-33c-11-6-22-7-26-4-3 3-6-5-6-18 0-25-20-65-20-41 0 6-4 12-10 12-5 0-7-7-3-15 14-37-79-83-112-55-10 8-28 10-52 5l-37-7 24-19c32-24 38-24 42 3l3 23 7-23c8-28-16-41-43-24-22 14-29 15-29 4 0-5 10-14 23-21l22-11-22 6c-13 3-23 1-23-5 0-15-43-14-59 1-11 10-14 10-18 1-7-18-68-16-83 2-11 13-15 13-21 3-6-9-9-3-9 17-1 28-2 29-10 8-12-29-34-29-54-2-9 14-19 18-28 13-10-6-10-4 1 9 17 22 9 32-16 19-23-12-43-5-43 14 0 9-5 12-12 8-10-6-10-4 0 7 16 17 16 37 0 21-22-22-38-13-38 22 0 30-3 35-27 38-19 2-29 10-31 23-2 11-10 25-19 32-10 8-12 19-8 34 5 16 4 19-5 14s-11-4-6 4c4 6 12 9 17 6 17-11 9 4-12 24-15 14-20 27-16 42 4 13 1 29-5 36-7 9-6 19 6 37 8 14 12 26 8 29-4 2-1 2 6 1 14-4 16 12 2 21-17 10-11 32 15 63 15 19 23 36 19 47-9 22 30 61 73 76 26 8 32 15 28 29-7 22 22 53 43 45 8-3 18-1 22 5s7-5 8-25c2-39-20-57-41-36-9 10-8 16 7 27 19 14 19 14-2 14-27 0-29-26-3-59 22-28 62-22 54 8-3 10 0 22 6 25 8 5 8 13 0 27-5 11-7 29-4 39 9 27 64 27 98 0 32-26 37-25 37 3 0 23 16 47 32 47 4 0 23-13 41-30zm900 0 34-29 24 52 52-58c29-32 56-64 60-72 7-12 12-11 24 6 19 28 41 26 48-4 3-14 7-36 10-50 4-18 12-25 29-25 18 0 23-5 23-27 0-16 10-49 22-76 12-26 22-63 23-82s5-35 10-35c15 0 8-23-13-47-20-20-20-23-5-29 22-8 20-27-4-49-13-12-18-25-14-41s0-25-14-33c-11-6-22-7-26-4-3 3-6-5-6-18 0-25-20-65-20-41 0 6-4 12-10 12-5 0-7-7-3-15 14-37-79-83-112-55-10 8-28 10-52 5l-37-7 24-19c32-24 38-24 42 3l3 23 7-23c8-28-16-41-43-24-22 14-29 15-29 4 0-5 10-14 23-21l22-11-22 6c-13 3-23 1-23-5 0-15-43-14-59 1-11 10-14 10-18 1-7-18-68-16-83 2-11 13-15 13-21 3-6-9-9-3-9 17-1 28-2 29-10 8-12-29-34-29-54-2-9 14-19 18-28 13-10-6-10-4 1 9 17 22 9 32-16 19-23-12-43-5-43 14 0 9-5 12-12 8-10-6-10-4 0 7 16 17 16 37 0 21-22-22-38-13-38 22 0 30-3 35-27 38-19 2-29 10-31 23-2 11-10 25-19 32-10 8-12 19-8 34 5 16 4 19-5 14s-11-4-6 4c4 6 12 9 17 6 17-11 9 4-12 24-15 14-20 27-16 42 4 13 1 29-5 36-7 9-6 19 6 37 8 14 12 26 8 29-4 2-1 2 6 1 14-4 16 12 2 21-17 10-11 32 15 63 15 19 23 36 19 47-9 22 30 61 73 76 26 8 32 15 28 29-7 22 22 53 43 45 8-3 18-1 22 5s7-5 8-25c2-39-20-57-41-36-9 10-8 16 7 27 19 14 19 14-2 14-27 0-29-26-3-59 22-28 62-22 54 8-3 10 0 22 6 25 8 5 8 13 0 27-5 11-7 29-4 39 9 27 64 27 98 0 32-26 37-25 37 3 0 23 16 47 32 47 4 0 23-13 41-30zm-992 2c-7-2-18 1-23 6-8 8-4 9 13 5 13-4 18-8 10-11zm124 8c3-6-1-7-9-4-18 7-21 14-7 14 6 0 13-4 16-10zm776-8c-7-2-18 1-23 6-8 8-4 9 13 5 13-4 18-8 10-11zm124 8c3-6-1-7-9-4-18 7-21 14-7 14 6 0 13-4 16-10zm-798-30c3-11 9-17 14-14s9 0 9-5c0-19-17-12-34 14-10 15-12 25-5 25 6 0 13-9 16-20zm900 0c3-11 9-17 14-14s9 0 9-5c0-19-17-12-34 14-10 15-12 25-5 25 6 0 13-9 16-20zm-491-50c-56-53-113-152-123-215-7-46-19-44-27 4-9 56-60 149-114 205-29 30-39 46-27 42 87-31 228-32 295-3 53 23 53 21-4-33zm-350 18c4-7 3-8-4-4s-12 2-12-3c0-6-5-11-11-11-8 0-8 5 1 15 15 18 17 18 26 3zm900 0c4-7 3-8-4-4s-12 2-12-3c0-6-5-11-11-11-8 0-8 5 1 15 15 18 17 18 26 3zm-813-88c3-11 1-18-4-14-5 3-9 12-9 20 0 20 7 17 13-6zm900 0c3-11 1-18-4-14-5 3-9 12-9 20 0 20 7 17 13-6zm-833-125c0-5-5-3-10 5s-10 20-10 25c0 6 5 3 10-5s10-19 10-25zm900 0c0-5-5-3-10 5s-10 20-10 25c0 6 5 3 10-5s10-19 10-25zm-883-92c-4-3-7 0-7 7s3 10 7 7c3-4 3-10 0-14zm900 0c-4-3-7 0-7 7s3 10 7 7c3-4 3-10 0-14zm-900-110c-4-3-10-3-14 0-3 4 0 7 7 7s10-3 7-7zm900 0c-4-3-10-3-14 0-3 4 0 7 7 7s10-3 7-7zm-1618-187c-3-3-11 5-18 17-13 21-12 21 5 5 10-10 16-20 13-22zm900 0c-3-3-11 5-18 17-13 21-12 21 5 5 10-10 16-20 13-22zm-379-90c0-2-7-7-16-10-8-3-12-2-9 4 6 10 25 14 25 6zm900 0c0-2-7-7-16-10-8-3-12-2-9 4 6 10 25 14 25 6z"/>
</g>
<g fill="#d4e7f7">
<path d="m1259 2081c-178-57-291-184-321-362-24-136 31-299 133-394 28-26 43-45 33-41-103 40-202 45-300 15-277-84-402-384-267-641 94-180 303-273 498-223 93 24 145 54 210 119 62 62 112 150 122 212 7 43 19 44 26 0 10-64 59-150 121-212 66-65 118-95 211-119 195-50 404 43 498 223 198 375-170 781-567 626-10-4 4 14 31 40 83 76 143 215 143 326 0 55-22 143-51 205-85 181-329 287-520 226zm164-41 34-29 24 52 52-58c29-32 56-64 60-72 7-12 12-11 24 6 19 28 41 26 48-4 3-14 7-36 10-50 4-18 12-25 29-25 18 0 23-5 23-27 0-16 10-49 22-76 12-26 22-63 23-82s5-35 10-35c15 0 8-23-13-47-20-20-20-23-5-29 22-8 20-27-4-49-13-12-18-25-14-41s0-25-14-33c-11-6-22-7-26-4-3 3-6-5-6-18 0-25-20-65-20-41 0 6-4 12-10 12-5 0-7-7-3-15 14-37-79-83-112-55-10 8-28 10-52 5l-37-7 24-19c32-24 38-24 42 4l3 22 7-23c8-28-16-41-43-24-22 14-29 15-29 4 0-5 10-14 23-21l22-11-22 6c-13 3-23 1-23-5 0-15-43-14-59 2-11 9-14 9-18 0-7-18-68-16-83 2-11 13-15 13-21 3-6-9-9-3-9 17-1 28-2 29-10 8-12-29-34-29-54-2-9 14-19 18-28 13-10-6-10-4 1 9 17 22 9 32-16 19-23-12-43-5-43 14 0 9-5 12-12 8-10-6-10-4 0 7 16 17 16 37 0 21-22-22-38-13-38 22 0 30-3 35-27 38-19 2-29 10-31 23-2 11-10 25-19 32-10 8-12 19-8 34 5 16 4 19-5 14s-11-4-6 4c4 6 12 9 17 6 17-11 9 4-12 24-15 14-20 27-16 42 4 13 1 29-5 36-7 9-6 19 6 37 8 14 12 26 8 29-4 2-1 2 6 1 14-4 16 12 2 21-17 10-11 32 15 63 15 19 23 36 19 47-9 22 30 61 73 76 26 8 32 15 28 29-7 22 22 53 43 45 8-3 18-1 22 5s7-5 8-25c2-39-20-57-41-36-9 10-8 16 7 27 19 14 19 14-2 14-27 0-29-26-3-59 22-28 62-22 54 8-3 10 0 22 6 25 8 5 8 13 0 27-5 11-7 29-4 39 9 27 64 27 98 0 32-26 37-25 37 3 0 23 16 47 32 47 4 0 23-13 41-30zm-92 2c-7-2-18 1-23 6-8 8-4 9 13 5 13-4 18-8 10-11zm124 8c3-6-1-7-9-4-18 7-21 14-7 14 6 0 13-4 16-10zm102-30c3-11 9-17 14-14s9 0 9-5c0-19-17-12-34 14-10 15-12 25-5 25 6 0 13-9 16-20zm59-32c4-7 3-8-4-4s-12 2-12-3c0-6-5-11-11-11-8 0-8 5 1 15 15 18 17 18 26 3zm87-88c3-11 1-18-4-14-5 3-9 12-9 20 0 20 7 17 13-6zm67-125c0-5-5-3-10 5s-10 20-10 25c0 6 5 3 10-5s10-19 10-25zm17-92c-4-3-7 0-7 7s3 10 7 7c3-4 3-10 0-14zm0-110c-4-3-10-3-14 0-3 4 0 7 7 7s10-3 7-7zm-718-187c-3-3-11 5-18 17-13 21-12 21 5 5 10-10 16-20 13-22zm521-90c0-2-7-7-16-10-8-3-12-2-9 4 6 10 25 14 25 6zm-617-36 34-29 24 52 52-58c29-32 56-64 60-72 7-12 12-11 24 6 19 28 41 26 48-4 3-14 7-36 10-50 4-18 12-25 29-25 18 0 23-5 23-27 0-16 10-49 22-76 12-26 22-63 23-82s5-35 10-35c15 0 8-23-13-47-20-20-20-23-5-29 22-8 20-27-4-49-13-12-18-25-14-41s0-25-14-33c-11-6-22-7-26-4-3 3-6-5-6-18 0-25-20-65-20-41 0 6-4 12-10 12-5 0-7-7-3-15 14-37-79-83-112-55-10 8-28 10-52 5l-37-7 24-19c32-24 38-24 42 3l3 23 7-23c8-28-16-41-43-24-22 14-29 15-29 4 0-5 10-14 23-21l22-11-22 6c-13 3-23 1-23-5 0-15-43-14-59 1-11 10-14 10-18 1-7-18-68-16-83 2-11 13-15 13-21 3-6-9-9-3-9 17-1 28-2 29-10 8-12-29-34-29-54-2-9 14-19 18-28 13-10-6-10-4 1 9 17 22 9 32-16 19-23-12-43-5-43 14 0 9-5 12-12 8-10-6-10-4 0 7 16 17 16 37 0 21-22-22-38-13-38 22 0 30-3 35-27 38-19 2-29 10-31 23-2 11-10 25-19 32-10 8-12 19-8 34 5 16 4 19-5 14s-11-4-6 4c4 6 12 9 17 6 17-11 9 4-12 24-15 14-20 27-16 42 4 13 1 29-5 36-7 9-6 19 6 37 8 14 12 26 8 29-4 2-1 2 6 1 14-4 16 12 2 21-17 10-11 32 15 63 15 19 23 36 19 47-9 22 30 61 73 76 26 8 32 15 28 29-7 22 22 53 43 45 8-3 18-1 22 5s7-5 8-25c2-39-20-57-41-36-9 10-8 16 7 27 19 14 19 14-2 14-27 0-29-26-3-59 22-28 62-22 54 8-3 10 0 22 6 25 8 5 8 13 0 27-5 11-7 29-4 39 9 27 64 27 98 0 32-26 37-25 37 3 0 23 16 47 32 47 4 0 23-13 41-30zm900 0 34-29 24 52 52-58c29-32 56-64 60-72 7-12 12-11 24 6 19 28 41 26 48-4 3-14 7-36 10-50 4-18 12-25 29-25 18 0 23-5 23-27 0-16 10-49 22-76 12-26 22-63 23-82s5-35 10-35c15 0 8-23-13-47-20-20-20-23-5-29 22-8 20-27-4-49-13-12-18-25-14-41s0-25-14-33c-11-6-22-7-26-4-3 3-6-5-6-18 0-25-20-65-20-41 0 6-4 12-10 12-5 0-7-7-3-15 14-37-79-83-112-55-10 8-28 10-52 5l-37-7 24-19c32-24 38-24 42 3l3 23 7-23c8-28-16-41-43-24-22 14-29 15-29 4 0-5 10-14 23-21l22-11-22 6c-13 3-23 1-23-5 0-15-43-14-59 1-11 10-14 10-18 1-7-18-68-16-83 2-11 13-15 13-21 3-6-9-9-3-9 17-1 28-2 29-10 8-12-29-34-29-54-2-9 14-19 18-28 13-10-6-10-4 1 9 17 22 9 32-16 19-23-12-43-5-43 14 0 9-5 12-12 8-10-6-10-4 0 7 16 17 16 37 0 21-22-22-38-13-38 22 0 30-3 35-27 38-19 2-29 10-31 23-2 11-10 25-19 32-10 8-12 19-8 34 5 16 4 19-5 14s-11-4-6 4c4 6 12 9 17 6 17-11 9 4-12 24-15 14-20 27-16 42 4 13 1 29-5 36-7 9-6 19 6 37 8 14 12 26 8 29-4 2-1 2 6 1 14-4 16 12 2 21-17 10-11 32 15 63 15 19 23 36 19 47-9 22 30 61 73 76 26 8 32 15 28 29-7 22 22 53 43 45 8-3 18-1 22 5s7-5 8-25c2-39-20-57-41-36-9 10-8 16 7 27 19 14 19 14-2 14-27 0-29-26-3-59 22-28 62-22 54 8-3 10 0 22 6 25 8 5 8 13 0 27-5 11-7 29-4 39 9 27 64 27 98 0 32-26 37-25 37 3 0 23 16 47 32 47 4 0 23-13 41-30zm-992 2c-7-2-18 1-23 6-8 8-4 9 13 5 13-4 18-8 10-11zm124 8c3-6-1-7-9-4-18 7-21 14-7 14 6 0 13-4 16-10zm776-8c-7-2-18 1-23 6-8 8-4 9 13 5 13-4 18-8 10-11zm124 8c3-6-1-7-9-4-18 7-21 14-7 14 6 0 13-4 16-10zm-798-30c3-11 9-17 14-14s9 0 9-5c0-19-17-12-34 14-10 15-12 25-5 25 6 0 13-9 16-20zm900 0c3-11 9-17 14-14s9 0 9-5c0-19-17-12-34 14-10 15-12 25-5 25 6 0 13-9 16-20zm-727-26c85-22 179-15 274 22 10 4-5-14-33-41-55-52-117-161-127-227-8-49-20-49-26 0-9 62-59 153-119 215-31 32-49 55-40 52 9-4 41-13 71-21zm-114-6c4-7 3-8-4-4s-12 2-12-3c0-6-5-11-11-11-8 0-8 5 1 15 15 18 17 18 26 3zm900 0c4-7 3-8-4-4s-12 2-12-3c0-6-5-11-11-11-8 0-8 5 1 15 15 18 17 18 26 3zm-813-88c3-11 1-18-4-14-5 3-9 12-9 20 0 20 7 17 13-6zm900 0c3-11 1-18-4-14-5 3-9 12-9 20 0 20 7 17 13-6zm-833-125c0-5-5-3-10 5s-10 20-10 25c0 6 5 3 10-5s10-19 10-25zm900 0c0-5-5-3-10 5s-10 20-10 25c0 6 5 3 10-5s10-19 10-25zm-883-92c-4-3-7 0-7 7s3 10 7 7c3-4 3-10 0-14zm900 0c-4-3-7 0-7 7s3 10 7 7c3-4 3-10 0-14zm-900-110c-4-3-10-3-14 0-3 4 0 7 7 7s10-3 7-7zm900 0c-4-3-10-3-14 0-3 4 0 7 7 7s10-3 7-7zm-1618-187c-3-3-11 5-18 17-13 21-12 21 5 5 10-10 16-20 13-22zm900 0c-3-3-11 5-18 17-13 21-12 21 5 5 10-10 16-20 13-22zm-379-90c0-2-7-7-16-10-8-3-12-2-9 4 6 10 25 14 25 6zm900 0c0-2-7-7-16-10-8-3-12-2-9 4 6 10 25 14 25 6z"/>
</g>
<g fill="#f6f6f6">
<path d="m1269 2082c-175-46-299-182-329-363-24-139 26-287 130-389l56-56-51 18c-213 72-445-23-544-223-47-95-59-192-37-291 39-177 167-305 344-344 195-43 402 56 491 237 18 36 36 88 40 115 8 51 15 46 25-17 11-61 67-161 123-217 202-202 551-157 697 92 159 269-2 613-314 668-68 12-172 0-235-27-32-13-30-9 24 43 104 103 155 252 132 390-31 183-164 326-341 366-86 20-128 19-211-2zm154-42 34-29 24 52 52-58c29-32 56-64 60-72 7-12 12-11 24 6 19 28 41 26 48-4 3-14 7-36 10-50 4-18 12-25 29-25 18 0 23-5 23-27 0-16 10-49 22-76 12-26 22-63 23-82s5-35 10-35c15 0 8-23-13-47-20-20-20-23-5-29 22-8 20-27-4-49-13-12-18-25-14-41s0-25-14-33c-11-6-22-7-26-4-3 3-6-5-6-18 0-25-20-65-20-41 0 6-4 12-10 12-5 0-7-7-3-15 14-37-79-83-112-55-10 8-28 10-52 5l-37-7 24-19c32-24 38-24 42 4l3 22 7-23c8-28-16-41-43-24-22 14-29 15-29 4 0-5 10-14 23-21l22-11-22 6c-13 3-23 1-23-5 0-15-43-14-59 2-11 9-14 9-18 0-7-18-68-16-83 2-11 13-15 13-21 3-6-9-9-3-9 17-1 28-2 29-10 8-12-29-34-29-54-2-9 14-19 18-28 13-10-6-10-4 1 9 17 22 9 32-16 19-23-12-43-5-43 14 0 9-5 12-12 8-10-6-10-4 0 7 16 17 16 37 0 21-22-22-38-13-38 22 0 30-3 35-27 38-19 2-29 10-31 23-2 11-10 25-19 32-10 8-12 19-8 34 5 16 4 19-5 14s-11-4-6 4c4 6 12 9 17 6 17-11 9 4-12 24-15 14-20 27-16 42 4 13 1 29-5 36-7 9-6 19 6 37 8 14 12 26 8 29-4 2-1 2 6 1 14-4 16 12 2 21-17 10-11 32 15 63 15 19 23 36 19 47-9 22 30 61 73 76 26 8 32 15 28 29-7 22 22 53 43 45 8-3 18-1 22 5s7-5 8-25c2-39-20-57-41-36-9 10-8 16 7 27 19 14 19 14-2 14-27 0-29-26-3-59 22-28 62-22 54 8-3 10 0 22 6 25 8 5 8 13 0 27-5 11-7 29-4 39 9 27 64 27 98 0 32-26 37-25 37 3 0 23 16 47 32 47 4 0 23-13 41-30zm-92 2c-7-2-18 1-23 6-8 8-4 9 13 5 13-4 18-8 10-11zm124 8c3-6-1-7-9-4-18 7-21 14-7 14 6 0 13-4 16-10zm102-30c3-11 9-17 14-14s9 0 9-5c0-19-17-12-34 14-10 15-12 25-5 25 6 0 13-9 16-20zm59-32c4-7 3-8-4-4s-12 2-12-3c0-6-5-11-11-11-8 0-8 5 1 15 15 18 17 18 26 3zm87-88c3-11 1-18-4-14-5 3-9 12-9 20 0 20 7 17 13-6zm67-125c0-5-5-3-10 5s-10 20-10 25c0 6 5 3 10-5s10-19 10-25zm17-92c-4-3-7 0-7 7s3 10 7 7c3-4 3-10 0-14zm0-110c-4-3-10-3-14 0-3 4 0 7 7 7s10-3 7-7zm-718-187c-3-3-11 5-18 17-13 21-12 21 5 5 10-10 16-20 13-22zm521-90c0-2-7-7-16-10-8-3-12-2-9 4 6 10 25 14 25 6zm-617-36 34-29 24 52 52-58c29-32 56-64 60-72 7-12 12-11 24 6 19 28 41 26 48-4 3-14 7-36 10-50 4-18 12-25 29-25 18 0 23-5 23-27 0-16 10-49 22-76 12-26 22-63 23-82s5-35 10-35c15 0 8-23-13-47-20-20-20-23-5-29 22-8 20-27-4-49-13-12-18-25-14-41s0-25-14-33c-11-6-22-7-26-4-3 3-6-5-6-18 0-25-20-65-20-41 0 6-4 12-10 12-5 0-7-7-3-15 14-37-79-83-112-55-10 8-28 10-52 5l-37-7 24-19c32-24 38-24 42 3l3 23 7-23c8-28-16-41-43-24-22 14-29 15-29 4 0-5 10-14 23-21l22-11-22 6c-13 3-23 1-23-5 0-15-43-14-59 1-11 10-14 10-18 1-7-18-68-16-83 2-11 13-15 13-21 3-6-9-9-3-9 17-1 28-2 29-10 8-12-29-34-29-54-2-9 14-19 18-28 13-10-6-10-4 1 9 17 22 9 32-16 19-23-12-43-5-43 14 0 9-5 12-12 8-10-6-10-4 0 7 16 17 16 37 0 21-22-22-38-13-38 22 0 30-3 35-27 38-19 2-29 10-31 23-2 11-10 25-19 32-10 8-12 19-8 34 5 16 4 19-5 14s-11-4-6 4c4 6 12 9 17 6 17-11 9 4-12 24-15 14-20 27-16 42 4 13 1 29-5 36-7 9-6 19 6 37 8 14 12 26 8 29-4 2-1 2 6 1 14-4 16 12 2 21-17 10-11 32 15 63 15 19 23 36 19 47-9 22 30 61 73 76 26 8 32 15 28 29-7 22 22 53 43 45 8-3 18-1 22 5s7-5 8-25c2-39-20-57-41-36-9 10-8 16 7 27 19 14 19 14-2 14-27 0-29-26-3-59 22-28 62-22 54 8-3 10 0 22 6 25 8 5 8 13 0 27-5 11-7 29-4 39 9 27 64 27 98 0 32-26 37-25 37 3 0 23 16 47 32 47 4 0 23-13 41-30zm900 0 34-29 24 52 52-58c29-32 56-64 60-72 7-12 12-11 24 6 19 28 41 26 48-4 3-14 7-36 10-50 4-18 12-25 29-25 18 0 23-5 23-27 0-16 10-49 22-76 12-26 22-63 23-82s5-35 10-35c15 0 8-23-13-47-20-20-20-23-5-29 22-8 20-27-4-49-13-12-18-25-14-41s0-25-14-33c-11-6-22-7-26-4-3 3-6-5-6-18 0-25-20-65-20-41 0 6-4 12-10 12-5 0-7-7-3-15 14-37-79-83-112-55-10 8-28 10-52 5l-37-7 24-19c32-24 38-24 42 3l3 23 7-23c8-28-16-41-43-24-22 14-29 15-29 4 0-5 10-14 23-21l22-11-22 6c-13 3-23 1-23-5 0-15-43-14-59 1-11 10-14 10-18 1-7-18-68-16-83 2-11 13-15 13-21 3-6-9-9-3-9 17-1 28-2 29-10 8-12-29-34-29-54-2-9 14-19 18-28 13-10-6-10-4 1 9 17 22 9 32-16 19-23-12-43-5-43 14 0 9-5 12-12 8-10-6-10-4 0 7 16 17 16 37 0 21-22-22-38-13-38 22 0 30-3 35-27 38-19 2-29 10-31 23-2 11-10 25-19 32-10 8-12 19-8 34 5 16 4 19-5 14s-11-4-6 4c4 6 12 9 17 6 17-11 9 4-12 24-15 14-20 27-16 42 4 13 1 29-5 36-7 9-6 19 6 37 8 14 12 26 8 29-4 2-1 2 6 1 14-4 16 12 2 21-17 10-11 32 15 63 15 19 23 36 19 47-9 22 30 61 73 76 26 8 32 15 28 29-7 22 22 53 43 45 8-3 18-1 22 5s7-5 8-25c2-39-20-57-41-36-9 10-8 16 7 27 19 14 19 14-2 14-27 0-29-26-3-59 22-28 62-22 54 8-3 10 0 22 6 25 8 5 8 13 0 27-5 11-7 29-4 39 9 27 64 27 98 0 32-26 37-25 37 3 0 23 16 47 32 47 4 0 23-13 41-30zm-992 2c-7-2-18 1-23 6-8 8-4 9 13 5 13-4 18-8 10-11zm124 8c3-6-1-7-9-4-18 7-21 14-7 14 6 0 13-4 16-10zm776-8c-7-2-18 1-23 6-8 8-4 9 13 5 13-4 18-8 10-11zm124 8c3-6-1-7-9-4-18 7-21 14-7 14 6 0 13-4 16-10zm-798-30c3-11 9-17 14-14s9 0 9-5c0-19-17-12-34 14-10 15-12 25-5 25 6 0 13-9 16-20zm900 0c3-11 9-17 14-14s9 0 9-5c0-19-17-12-34 14-10 15-12 25-5 25 6 0 13-9 16-20zm-627-33c60-1 102 5 140 19l56 20-58-57c-65-63-114-156-124-231-8-60-20-61-27-3-7 70-63 172-127 235l-56 56 56-20c37-13 83-19 140-19zm-214 1c4-7 3-8-4-4s-12 2-12-3c0-6-5-11-11-11-8 0-8 5 1 15 15 18 17 18 26 3zm900 0c4-7 3-8-4-4s-12 2-12-3c0-6-5-11-11-11-8 0-8 5 1 15 15 18 17 18 26 3zm-813-88c3-11 1-18-4-14-5 3-9 12-9 20 0 20 7 17 13-6zm900 0c3-11 1-18-4-14-5 3-9 12-9 20 0 20 7 17 13-6zm-833-125c0-5-5-3-10 5s-10 20-10 25c0 6 5 3 10-5s10-19 10-25zm900 0c0-5-5-3-10 5s-10 20-10 25c0 6 5 3 10-5s10-19 10-25zm-883-92c-4-3-7 0-7 7s3 10 7 7c3-4 3-10 0-14zm900 0c-4-3-7 0-7 7s3 10 7 7c3-4 3-10 0-14zm-900-110c-4-3-10-3-14 0-3 4 0 7 7 7s10-3 7-7zm900 0c-4-3-10-3-14 0-3 4 0 7 7 7s10-3 7-7zm-1618-187c-3-3-11 5-18 17-13 21-12 21 5 5 10-10 16-20 13-22zm900 0c-3-3-11 5-18 17-13 21-12 21 5 5 10-10 16-20 13-22zm-379-90c0-2-7-7-16-10-8-3-12-2-9 4 6 10 25 14 25 6zm900 0c0-2-7-7-16-10-8-3-12-2-9 4 6 10 25 14 25 6z"/>
<path d="m1366 2034c-5-14-4-15 9-4 8 7 15 8 15 2 0-5-6-14-13-20-17-14-10-102 9-102 9 0 14 18 17 63l3 62 2-63c2-50 6-64 20-68 38-12 97-39 103-46 3-5 18 5 33 21 32 34 32 36-36 110-41 46-47 49-53 31-8-26 4-47 17-29 6 11 8 9 6-6-2-16 2-19 21-17s22 0 12-12c-9-11-6-18 16-36l28-22-57 4c-69 5-81 15-50 36l23 15-48 49c-50 51-67 58-77 32zm71-91c-3-10-5-4-5 12 0 17 2 24 5 18 2-7 2-21 0-30zm-50 5c-3-8-6-5-6 6-1 11 2 17 5 13 3-3 4-12 1-19z"/>
<path d="m1230 2005c0-41 35-68 81-62 43 6 47 2 22-25-20-22-10-36 12-18 19 16 17 81-2 88-7 2-13-3-13-12s-4-16-10-16c-5 0-10 11-10 25 0 26-25 45-59 45-16 0-21-6-21-25zm27-12c-4-3-10-3-14 0-3 4 0 7 7 7s10-3 7-7zm30 0c-4-3-10-3-14 0-3 4 0 7 7 7s10-3 7-7zm0-29c-3-3-12-4-19-1-8 3-5 6 6 6 11 1 17-2 13-5z"/>
<path d="m1173 1953c4-3 10-3 14 0 3 4 0 7-7 7s-10-3-7-7z"/>
<path d="m1226 1943c-7-8 12-43 24-43 15 0 12 37-4 43-8 3-17 3-20 0z"/>
<path d="m1631 1937c-9-12-8-16 5-21 22-8 28-1 17 19-8 14-11 14-22 2z"/>
<path d="m1480 1930c-8-5-10-10-5-10 6 0 21-3 35-7 22-6 24-5 11 10-16 20-20 20-41 7z"/>
<path d="m1105 1909c-36-10-78-46-69-60 3-5 14 1 25 13l19 23-6-28c-5-21-2-32 12-43 18-15 18-15-1-10-16 5-23-1-32-24-6-17-16-30-23-30s-6 8 4 22c24 34 21 56-5 32-43-39-43-51 1-80 36-24 43-26 56-13 12 13 12 18-5 36-20 21-20 21 5 27 15 4 24 14 24 26 0 29 41 26 70-5 13-14 19-25 13-25-5 0-18 9-28 20s-25 20-34 20c-10-1-2-13 23-35 39-34 40-48 2-20-11 8-29 15-40 14-16 0-14-3 9-11 42-15 67-39 62-59-3-11 3-20 17-24 20-7 20-7-4-14l-25-7 25-9c19-7 6-10-55-12-118-5-125-7-125-48 0-21 7-39 18-47 16-12 42-51 42-63 0-3-7-5-15-5-9 0-12 6-8 16 4 12 2 15-8 12-17-6-24-37-11-50 7-7 22-6 45 3 29 10 35 17 32 38-2 19-8 26-24 25-22-1-27 7-13 20 4 4 7 24 7 44 0 37 0 37 45 38l45 2-39-7c-22-3-41-11-43-18-3-8 6-10 29-7 45 8 88-10 88-36 0-11-4-20-9-20s-8 8-7 18c1 13-5 16-24 13-33-4-68-23-53-28 7-3 22 1 33 7 33 18 39 1 9-23-26-22-26-22-8-41 11-11 18-27 18-35-1-13-2-12-6 2-5 20-12 21-47 7-21-8-26-16-26-45 0-23 4-34 10-30s8 15 5 25c-6 19 18 50 38 50 7 0 4-5-5-11-21-12-24-49-5-49 16 0 57 41 57 57 0 6-7 16-15 23-19 16-19 34 0 26 9-3 23 6 37 24 12 17 29 30 37 30 10 0 3-13-21-37-50-53-38-76 15-26 22 21 37 30 34 21-4-10-2-18 3-18 6 0 10 5 10 10 0 6 6 10 14 10 7 0-4 17-25 39-22 21-39 47-38 57 0 15 2 14 10-6 14-35 39-61 74-76 21-9 24-13 11-14-16 0-17-2-5-17 13-16 12-17-4-4-15 12-19 12-31-4-10-13-15-15-21-6-10 17-65-35-65-61 0-23 19-23 36 0 12 15 13 14 10-11-4-35-10-41-34-28-16 8-21 7-26-4-3-8-13-15-23-15-15 0-14 4 7 20 14 10 21 22 17 26-10 11-57-36-57-58 0-23 19-23 50 2 27 21 51 27 32 8-16-16-15-39 4-67 11-16 20-19 27-12s6 15-4 27c-12 16-12 17 4 11 19-7 23 3 7 19-11 11 14 54 32 54 6 0 3-9-7-20-20-22-14-34 17-35 12 0 23-6 25-12 3-8-4-13-16-13s-21-4-21-8c0-17 47-52 68-52 34 0 26 28-10 35-26 6-28 9-15 17 30 16 21 63-18 92-19 15-35 35-35 46 0 19 32 36 50 25 19-12 10-25-17-25l-28-1 29-25c34-30 49-18 40 32-3 18-1 35 5 38 8 5 11-12 11-53 0-48 3-61 15-61 17 0 20 32 6 59-6 10-7 28-4 41 6 22 7 23 14 4 4-10 8-41 9-69 1-27 4-42 7-32 2 9 11 17 20 17 10 0 13-6 9-16-3-9-6-20-6-25s-7-9-15-9c-18 0-21-45-4-56 15-9 26 11 34 62 7 50-2 94-20 94-14 0-27 25-18 34 4 3 27 6 51 6 45 0 45 0 27 20-10 11-16 23-13 25 3 3 24-15 46-40 28-32 45-43 56-39 15 6 14 10-10 35-15 16-33 29-40 29-15 0-28 34-15 38 6 2 8 9 5 14-4 7-2 8 5 4 6-4 9-11 6-15-2-5 4-16 14-25 19-17 19-16 11 17-4 19-10 39-14 45-3 6 3 13 14 16s30 9 42 12c19 6 21 5 10-8-10-12-8-18 8-33 19-18 20-17 20 4 0 15-4 20-12 15-9-5-9-2 1 9 14 18 26 23 17 8-7-10 70-9 80 1s-84 21-126 14c-22-3-41-2-45 4s20 10 64 10c56 0 71 3 71 15 0 16-15 20-24 7-7-11-91-6-113 7-13 8 9 10 87 11 71 0 100-3 90-10-12-8-12-10 5-10 15 0 20 7 20 25 0 14-4 25-9 25-4 0-5 7-2 15 3 9-1 18-9 21-8 4-15 18-15 34 0 15-9 35-21 46-20 18-21 18-35-1-14-18-13-20 6-23 16-3 20-10 18-30-2-15 4-32 12-39 10-8 12-15 5-21-15-14-75-23-75-12 0 6 14 10 30 10 47 0 35 20-12 21-24 1-34 4-24 6 15 4 16 7 5 15s-10 9 4 4c23-7 47 3 47 21 0 15-17 14-67-4-13-4-10 3 11 25 16 18 27 34 24 38-9 8-49-16-43-26 3-5 1-11-4-14s-12 2-15 11c-6 14-11 12-36-15-16-18-35-32-42-32s21 31 62 69 71 73 67 77c-4 5-12 2-17-6-9-13-10-13-10 0 0 10-5 7-16-8-8-12-12-27-9-32 3-6-3-10-13-10-11 0-34-16-51-35-32-37-44-44-35-21 4 11-1 14-20 12-13-2-30 1-38 6-10 8-9 9 4 5 9-3 19-1 21 6 3 9 9 9 25 0 16-10 23-9 37 7 21 23 12 27-52 22-41-3-53-8-59-25s-8-11-11 26c-2 26-9 47-15 47s-8-11-5-27c2-16 1-37-3-48-7-15-9-9-9 24-1 37-3 42-16 31-18-15-35-5-35 21 0 10-4 19-10 19-12 0-13-37-1-44 5-3 11-15 14-26 4-17 3-19-8-10-10 8-15 7-19-2s-5-9-5 2c3 40-1 43-24 19l-23-24 25-27c13-15 22-30 19-33-3-4-23 15-43 40-28 33-40 42-46 33s5-26 33-51c22-20 38-40 34-44-3-4-12-1-18 5-9 9-15 9-27-1-14-10-14-10-4 4 10 13 5 23-33 60-40 39-46 42-55 27-6-10-15-18-22-18-8 0-9 3-1 8 17 12 23 39 11 51-6 6-7 11-1 11s14-4 20-10c5-5 15-6 22-1 23 14-9 29-43 20zm228-106c-7-2-21-2-30 0-10 3-4 5 12 5 17 0 24-2 18-5zm60-10c-7-2-19-2-25 0-7 3-2 5 12 5s19-2 13-5zm183-39c-3-8-10-13-15-10-5 4-4 16 2 31 9 18 13 20 15 9 2-8 1-22-2-30zm-251 22c-35-15-60-41-74-76-8-20-10-21-10-6-1 24 71 96 95 96 13-1 10-5-11-14zm156-25c22-21 39-47 39-57-1-13-5-10-14 11-15 35-41 60-76 74-20 8-21 10-6 10 10 1 36-16 57-38zm-97 2c4-5 20-8 34-8 25 0 27-3 27-43 0-24-4-46-9-49s-6 14-2 41c6 37 4 46-8 46-10 0-17-15-23-47l-8-48-5 50c-4 35-9 50-20 50-10 0-16-12-18-37-2-21-7-38-12-38-11 0-1 60 13 78 11 14 20 15 31 5zm-56-32c2-13 0-27-5-32-6-6-8 3-5 22 3 22 1 30-7 25-6-4-11-19-12-34 0-15-3-21-6-14-8 20 6 64 20 59 7-2 14-14 15-26zm-253 9c3-6-1-7-9-4-18 7-21 14-7 14 6 0 13-4 16-10zm165 1c0-12-28-22-34-12-3 5-3 11 1 15 9 9 33 7 33-3zm297-23c-3-7-5-2-5 12s2 19 5 13c2-7 2-19 0-25zm51-1c2-9-3-17-10-17-8 0-14 9-15 21-2 24 20 20 25-4zm-211-24c-3-10-5-4-5 12 0 17 2 24 5 18 2-7 2-21 0-30zm100 20c-4-3-7 0-7 7s3 10 7 7c3-4 3-10 0-14zm250-10c-4-3-7 0-7 7s3 10 7 7c3-4 3-10 0-14zm-456-20c-12-20-14-14-5 12 4 9 9 14 11 11 3-2 0-13-6-23zm216-50c-2-16-4-5-4 22 0 28 2 40 4 28 2-13 2-35 0-50zm-250 15c-3-7-5-2-5 12s2 19 5 13c2-7 2-19 0-25zm230 10c-3-8-6-5-6 6-1 11 2 17 5 13 3-3 4-12 1-19zm60-10c-3-7-5-2-5 12s2 19 5 13c2-7 2-19 0-25zm-194 6c3-3 31-8 63-10s63-9 68-15c8-7-1-9-29-5-22 3-47 1-55-4-12-8-11-10 8-10 13 0 22-6 22-16 0-15-2-15-26 1-31 20-54 6-48-28 2-12 2-16-2-9-3 6-10 12-15 12-6 0-7-6-3-12 5-10 4-10-5-2-10 9-10 17 3 36 14 22 14 25 1 25-8 0-15-7-15-16 0-12-3-12-12-3s-8 15 7 26c11 8 26 12 35 9 10-3 10-1-3 7-9 6-22 8-27 5-6-3-10-1-10 4 0 12 33 15 43 5zm-66-26c-3-8-6-5-6 6-1 11 2 17 5 13 3-3 4-12 1-19zm-207-22c0-13-7-29-15-36-9-8-15-9-15-2 0 6 5 14 11 18 6 3 9 15 6 25-3 11-1 19 4 19s9-11 9-24zm150 9c0-8-4-15-10-15-5 0-10 7-10 15s5 15 10 15c6 0 10-7 10-15zm310-1c0-23-74-94-96-94-13 1-9 5 12 14 33 15 74 60 74 82 0 8 2 14 5 14s5-7 5-16zm-48-25c-4-4-18-9-32-13-14-3-19-3-12 0 6 3 10 9 8 12-2 4 7 7 19 7 13 0 21-3 17-6zm-66-25c18-14 18-14-6-3-31 14-36 19-24 19 6 0 19-7 30-16zm-26-14c8-5 11-10 5-10-5 0-17 5-25 10s-10 10-5 10c6 0 17-5 25-10zm13-37c-7-2-19-2-25 0-7 3-2 5 12 5s19-2 13-5zm70-10c-7-2-21-2-30 0-10 3-4 5 12 5 17 0 24-2 18-5zm-193-37c0-3-4-8-10-11-5-3-10-1-10 4 0 6 5 11 10 11 6 0 10-2 10-4zm80-31c0-8-4-15-10-15-5 0-7 7-4 15 4 8 8 15 10 15s4-7 4-15zm87-12c-4-3-7 0-7 7s3 10 7 7c3-4 3-10 0-14zm-110-60c-4-3-7 0-7 7s3 10 7 7c3-4 3-10 0-14zm-90-20c-4-3-10-3-14 0-3 4 0 7 7 7s10-3 7-7zm194-26c-10-9-11-8-5 6 3 10 9 15 12 12s0-11-7-18z"/>
<path d="m1350 1621c0-5 9-7 20-4s20 7 20 9-9 4-20 4-20-4-20-9z"/>
<path d="m1270 1900c0-7 3-10 7-7 3 4 3 10 0 14-4 3-7 0-7-7z"/>
<path d="m1207 1891c-16-6-17-9-4-19 11-10 17-9 26 2 14 17 3 26-22 17z"/>
<path d="m1634 1873-21-28h29c29 0 32 6 20 38-7 16-10 15-28-10z"/>
<path d="m1410 1875c0-10 10-15 30-15 32 0 40 14 14 24-27 10-44 7-44-9z"/>
<path d="m1150 1871c0-5 6-14 14-20 10-9 15-8 19 3 3 8 3 17 0 20-9 9-33 7-33-3z"/>
<path d="m1703 1843c4-3 10-3 14 0 3 4 0 7-7 7s-10-3-7-7z"/>
<path d="m1100 1747c0-3 17-13 38-23l37-18-35-8c-19-4-41-5-47-3-7 2-13 0-13-5 0-6 20-10 44-10 49 0 65 19 38 43-17 15-62 32-62 24z"/>
<path d="m1104 1708c-4-7-3-8 4-4s12 9 12 12c0 8-9 4-16-8z"/>
<path d="m997 1692c-23-26-22-46 3-39 11 3 20 1 20-4s5-9 10-9c6 0 10 7 10 15 0 9-10 15-27 16s-21 3-10 6c9 2 17 9 17 14 0 6 7 6 19-1 29-15 38-12 15 5-25 19-38 19-57-3z"/>
<path d="m1065 1650c-3-5 3-10 14-10 12 0 21 5 21 10 0 6-6 10-14 10s-18-4-21-10z"/>
<path d="m1125 1650c-3-5 3-10 14-10s23 5 26 10c3 6-3 10-14 10s-23-4-26-10z"/>
<path d="m1723 1643c4-3 10-3 14 0 3 4 0 7-7 7s-10-3-7-7z"/>
<path d="m986 1614c-8-22 4-40 15-23 11 18 11 39 0 39-5 0-12-7-15-16z"/>
<path d="m1745 1614c-9-9-13-19-10-22s15 4 28 16c12 12 16 22 10 22s-19-7-28-16z"/>
<path d="m1574 1594c-8-3-9-16-4-41 11-45 26-61 42-45 9 9 8 15-8 27-16 13-17 16-4 25s8 14-12 11c-4 0-5 6-2 14 6 16 6 16-12 9z"/>
<path d="m1670 1579c0-18 2-19 15-9 15 12 12 30-6 30-5 0-9-10-9-21z"/>
<path d="m1114 1564c-19-15-19-15 1-6 11 5 27 12 35 15 13 5 13 6-1 6-8 1-24-6-35-15z"/>
<path d="m1695 1559c-12-18 3-22 20-5 14 14 14 16 1 16-8 0-18-5-21-11z"/>
<path d="m1720 1523c0-21 2-24 15-13 8 7 15 16 15 20s-7 10-15 14c-11 4-15-2-15-21z"/>
<path d="m1636 1524c-10-26 2-29 26-8 13 10 17 12 11 3-7-8-10-25-6-38 4-17 1-23-16-28-17-4-19-8-10-19 6-8 15-11 20-8s8 0 7-7c-2-6 3-14 10-16 9-4 12 3 10 23-3 24 1 29 27 35 29 6 29 10 3 13-7 0-15 12-17 26-5 40-52 57-65 24z"/>
<path d="m1020 1515c7-8 17-12 22-9 6 4 5 10-3 15-22 14-33 10-19-6z"/>
<path d="m1607 1492c-14-3-16-7-6-18 13-16 45-19 54-5 7 13-25 29-48 23z"/>
<path d="m1430 1461c0-15 27-20 39-8 8 8 14 8 23-1s8-16-6-31c-16-17-16-19 0-25 21-8 20-9 28 37l7 37h-46c-25 0-45-4-45-9z"/>
<path d="m1526 1427c-3-12-6-26-6-31 0-9 62-3 91 8 11 5 15 0 15-19 0-15-6-25-14-25-9 0-12 6-8 16 5 12 2 15-10 10-8-3-29-6-45-6-24 0-29-4-29-22 1-22 1-22 15-4s15 18 25-9c7-19 15-25 26-21 9 3 22 6 29 6 42 0 51 62 14 96-16 14-24 15-44 6-14-6-25-16-25-22 0-5-5-10-11-10s-8 8-4 19c3 11 2 22-3 25-6 3-12-4-16-17zm64-77c0-5-2-10-4-10-3 0-8 5-11 10-3 6-1 10 4 10 6 0 11-4 11-10z"/>
<path d="m1472 1358c2-13 8-23 13-23 6 0 11 10 13 23 2 15-2 22-13 22s-15-7-13-22z"/>
<path d="m1370 1342c0-11-3-27-6-36s-1-16 5-16 11 8 11 18c0 14 2 15 10 2 8-12 10-11 10 6 0 12-7 27-15 34-12 10-15 9-15-8z"/>
<path d="m1452 1284c-7-12-17-15-33-11-23 6-23 5-5-8 29-22 43-18 48 10 6 29 3 32-10 9z"/>
<path d="m916 1254c-5-14-4-15 9-4 8 7 15 8 15 2 0-5-6-14-13-20-17-14-10-102 9-102 9 0 14 18 17 63l3 62 2-63c2-50 6-64 20-68 38-12 97-39 103-46 3-5 18 5 33 21 32 34 32 36-36 110-41 46-47 49-53 31-8-26 4-47 17-29 6 11 8 9 6-6-2-16 2-19 21-17s22 0 12-12c-9-11-6-18 16-36l28-22-57 4c-69 5-81 15-50 36l23 15-48 49c-50 51-67 58-77 32zm71-91c-3-10-5-4-5 12 0 17 2 24 5 18 2-7 2-21 0-30zm-50 5c-3-8-6-5-6 6-1 11 2 17 5 13 3-3 4-12 1-19z"/>
<path d="m780 1225c0-41 35-68 81-62 43 6 47 2 22-25-20-22-10-36 12-18 19 16 17 81-2 88-7 2-13-3-13-12s-4-16-10-16c-5 0-10 11-10 25 0 26-25 45-59 45-16 0-21-6-21-25zm27-12c-4-3-10-3-14 0-3 4 0 7 7 7s10-3 7-7zm30 0c-4-3-10-3-14 0-3 4 0 7 7 7s10-3 7-7zm0-29c-3-3-12-4-19-1-8 3-5 6 6 6 11 1 17-2 13-5z"/>
<path d="m723 1173c4-3 10-3 14 0 3 4 0 7-7 7s-10-3-7-7z"/>
<path d="m776 1163c-7-8 12-43 24-43 15 0 12 37-4 43-8 3-17 3-20 0z"/>
<path d="m1181 1157c-9-12-8-16 5-21 22-8 28-1 17 19-8 14-11 14-22 2z"/>
<path d="m1030 1150c-8-5-10-10-5-10 6 0 21-3 35-7 22-6 24-5 11 10-16 20-20 20-41 7z"/>
<path d="m655 1129c-36-10-78-46-69-60 3-5 14 1 25 13l19 23-6-28c-5-21-2-32 12-43 18-15 18-15-1-10-16 5-23-1-32-24-6-17-16-30-23-30s-6 8 4 22c24 34 21 56-5 32-43-39-43-51 1-80 36-24 43-26 56-13 12 13 12 18-5 36-20 21-20 21 5 27 15 4 24 14 24 26 0 29 41 26 70-5 13-14 19-25 13-25-5 0-18 9-28 20s-25 20-34 20c-10-1-2-13 23-35 39-34 40-48 2-20-11 8-29 15-40 14-16 0-14-3 9-11 42-15 67-39 62-59-3-11 3-20 17-24 20-7 20-7-4-14l-25-7 25-9c19-7 6-10-55-12-118-5-125-7-125-48 0-21 7-39 18-47 16-12 42-51 42-63 0-3-7-5-15-5-9 0-12 6-8 16 4 12 2 15-8 12-17-6-24-37-11-50 7-7 22-6 45 3 29 10 35 17 32 38-2 19-8 26-24 25-22-1-27 7-13 20 4 4 7 24 7 44 0 37 0 37 45 38l45 2-39-7c-22-3-41-11-43-18-3-8 6-10 29-7 45 8 88-10 88-36 0-11-4-20-9-20s-8 8-7 18c1 13-5 16-24 13-33-4-68-23-53-28 7-3 22 1 33 7 33 18 39 1 9-23-26-22-26-22-8-41 11-11 18-27 18-35-1-13-2-12-6 2-5 20-12 21-47 7-21-8-26-16-26-45 0-23 4-34 10-30s8 15 5 25c-6 19 18 50 38 50 7 0 4-5-5-11-21-12-24-49-5-49 16 0 57 41 57 57 0 6-7 16-15 23-19 16-19 34 0 26 9-3 23 6 37 24 12 17 29 30 37 30 10 0 3-13-21-37-50-53-38-76 15-26 22 21 37 30 34 21-4-10-2-18 3-18 6 0 10 5 10 10 0 6 6 10 14 10 7 0-4 17-25 39-22 21-39 47-38 57 0 15 2 14 10-6 14-35 39-61 74-76 21-9 24-13 11-14-16 0-17-2-5-17 13-16 12-17-4-4-15 12-19 12-31-4-10-13-15-15-21-6-10 17-65-35-65-61 0-23 19-23 36 0 12 15 13 14 10-11-4-35-10-41-34-28-16 8-21 7-26-4-3-8-13-15-23-15-15 0-14 4 7 20 14 10 21 22 17 26-10 11-57-36-57-58 0-23 19-23 50 2 27 21 51 27 32 8-16-16-15-39 4-67 11-16 20-19 27-12s6 15-4 27c-12 16-12 17 4 11 19-7 23 3 7 19-11 11 14 54 32 54 6 0 3-9-7-20-20-22-14-34 17-35 12 0 23-6 25-12 3-8-4-13-16-13s-21-4-21-8c0-17 47-52 68-52 34 0 26 28-10 35-26 6-28 9-15 17 30 16 21 63-18 92-19 15-35 35-35 46 0 19 32 36 50 25 19-12 10-25-17-25l-28-1 29-25c34-30 49-18 40 32-3 18-1 35 5 38 8 5 11-12 11-53 0-48 3-61 15-61 17 0 20 32 6 59-6 10-7 28-4 41 6 22 7 23 14 4 4-10 8-41 9-69 1-27 4-42 7-32 2 9 11 17 20 17 10 0 13-6 9-16-3-9-6-20-6-25s-7-9-15-9c-18 0-21-45-4-56 15-9 26 11 34 62 7 50-2 94-20 94-14 0-27 25-18 34 4 3 27 6 51 6 45 0 45 0 27 20-10 11-16 23-13 25 3 3 24-15 46-40 28-32 45-43 56-39 15 6 14 10-10 35-15 16-33 29-40 29-15 0-28 34-15 38 6 2 8 9 5 14-4 7-2 8 5 4 6-4 9-11 6-15-2-5 4-16 14-25 19-17 19-16 11 17-4 19-10 39-14 45-3 6 3 13 14 16s30 9 42 12c19 6 21 5 10-8-10-12-8-18 8-33 19-18 20-17 20 4 0 15-4 20-12 15-9-5-9-2 1 9 14 18 26 23 17 8-7-10 70-9 80 1s-84 21-126 14c-22-3-41-2-45 4s20 10 64 10c56 0 71 3 71 15 0 16-15 20-24 7-7-11-91-6-113 7-13 8 9 10 87 11 71 0 100-3 90-10-12-8-12-10 5-10 15 0 20 7 20 25 0 14-4 25-9 25-4 0-5 7-2 15 3 9-1 18-9 21-8 4-15 18-15 34 0 15-9 35-21 46-20 18-21 18-35-1-14-18-13-20 6-23 16-3 20-10 18-30-2-15 4-32 12-39 10-8 12-15 5-21-15-14-75-23-75-12 0 6 14 10 30 10 47 0 35 20-12 21-24 1-34 4-24 6 15 4 16 7 5 15s-10 9 4 4c23-7 47 3 47 21 0 15-17 14-67-4-13-4-10 3 11 25 16 18 27 34 24 38-9 8-49-16-43-26 3-5 1-11-4-14s-12 2-15 11c-6 14-11 12-36-15-16-18-35-32-42-32s21 31 62 69 71 73 67 77c-4 5-12 2-17-6-9-13-10-13-10 0 0 10-5 7-16-8-8-12-12-27-9-32 3-6-3-10-13-10-11 0-34-16-51-35-32-37-44-44-35-21 4 11-1 14-20 12-13-2-30 1-38 6-10 8-9 9 4 5 9-3 19-1 21 6 3 9 9 9 25 0 16-10 23-9 37 7 21 23 12 27-52 22-41-3-53-8-59-25s-8-11-11 26c-2 26-9 47-15 47s-8-11-5-27c2-16 1-37-3-48-7-15-9-9-9 24-1 37-3 42-16 31-18-15-35-5-35 21 0 10-4 19-10 19-12 0-13-37-1-44 5-3 11-15 14-26 4-17 3-19-8-10-10 8-15 7-19-2s-5-9-5 2c3 40-1 43-24 19l-23-24 25-27c13-15 22-30 19-33-3-4-23 15-43 40-28 33-40 42-46 33s5-26 33-51c22-20 38-40 34-44-3-4-12-1-18 5-9 9-15 9-27-1-14-10-14-10-4 4 10 13 5 23-33 60-40 39-46 42-55 27-6-10-15-18-22-18-8 0-9 3-1 8 17 12 23 39 11 51-6 6-7 11-1 11 5 0 14-4 20-10 5-5 15-6 22-1 23 14-9 29-43 20zm228-106c-7-2-21-2-30 0-10 3-4 5 12 5 17 0 24-2 18-5zm60-10c-7-2-19-2-25 0-7 3-2 5 12 5s19-2 13-5zm183-39c-3-8-10-13-15-10-5 4-4 16 2 31 9 18 13 20 15 9 2-8 1-22-2-30zm-251 22c-35-15-60-41-74-76-8-20-10-21-10-6-1 24 71 96 95 96 13-1 10-5-11-14zm156-25c22-21 39-47 39-57-1-13-5-10-14 11-15 35-41 60-76 74-20 8-21 10-6 10 10 1 36-16 57-38zm-97 2c4-5 20-8 34-8 25 0 27-3 27-43 0-24-4-46-9-49s-6 14-2 41c6 37 4 46-8 46-10 0-17-15-23-47l-8-48-5 50c-4 35-9 50-20 50-10 0-16-12-18-37-2-21-7-38-12-38-11 0-1 60 13 78 11 14 20 15 31 5zm-56-32c2-13 0-27-5-32-6-6-8 3-5 22 3 22 1 30-7 25-6-4-11-19-12-34 0-15-3-21-6-14-8 20 6 64 20 59 7-2 14-14 15-26zm-253 9c3-6-1-7-9-4-18 7-21 14-7 14 6 0 13-4 16-10zm165 1c0-12-28-22-34-12-3 5-3 11 1 15 9 9 33 7 33-3zm297-23c-3-7-5-2-5 12s2 19 5 13c2-7 2-19 0-25zm51-1c2-9-3-17-10-17-8 0-14 9-15 21-2 24 20 20 25-4zm-211-24c-3-10-5-4-5 12 0 17 2 24 5 18 2-7 2-21 0-30zm100 20c-4-3-7 0-7 7s3 10 7 7c3-4 3-10 0-14zm250-10c-4-3-7 0-7 7s3 10 7 7c3-4 3-10 0-14zm-456-20c-12-20-14-14-5 12 4 9 9 14 11 11 3-2 0-13-6-23zm216-50c-2-16-4-5-4 22 0 28 2 40 4 28 2-13 2-35 0-50zm-250 15c-3-7-5-2-5 12s2 19 5 13c2-7 2-19 0-25zm230 10c-3-8-6-5-6 6-1 11 2 17 5 13 3-3 4-12 1-19zm60-10c-3-7-5-2-5 12s2 19 5 13c2-7 2-19 0-25zm-194 6c3-3 31-8 63-10s63-9 68-15c8-7-1-9-29-5-22 3-47 1-55-4-12-8-11-10 8-10 13 0 22-6 22-16 0-15-2-15-26 1-31 20-54 6-48-28 2-12 2-16-2-9-3 6-10 12-15 12-6 0-7-6-3-12 5-10 4-10-5-2-10 9-10 17 3 36 14 22 14 25 1 25-8 0-15-7-15-16 0-12-3-12-12-3s-8 15 7 26c11 8 26 12 35 9 10-3 10-1-3 7-9 6-22 8-27 5-6-3-10-1-10 4 0 12 33 15 43 5zm-66-26c-3-8-6-5-6 6-1 11 2 17 5 13 3-3 4-12 1-19zm-207-22c0-13-7-29-15-36-9-8-15-9-15-2 0 6 5 14 11 18 6 3 9 15 6 25-3 11-1 19 4 19s9-11 9-24zm150 9c0-8-4-15-10-15-5 0-10 7-10 15s5 15 10 15c6 0 10-7 10-15zm310-1c0-23-74-94-96-94-13 1-9 5 12 14 33 15 74 60 74 82 0 8 2 14 5 14s5-7 5-16zm-48-25c-4-4-18-9-32-13-14-3-19-3-12 0 6 3 10 9 8 12-2 4 7 7 19 7 13 0 21-3 17-6zm-66-25c18-14 18-14-6-3-31 14-36 19-24 19 6 0 19-7 30-16zm-26-14c8-5 11-10 5-10-5 0-17 5-25 10s-10 10-5 10c6 0 17-5 25-10zm13-37c-7-2-19-2-25 0-7 3-2 5 12 5s19-2 13-5zm70-10c-7-2-21-2-30 0-10 3-4 5 12 5 17 0 24-2 18-5zm-193-37c0-3-4-8-10-11-5-3-10-1-10 4 0 6 5 11 10 11 6 0 10-2 10-4zm80-31c0-8-4-15-10-15-5 0-7 7-4 15 4 8 8 15 10 15s4-7 4-15zm87-12c-4-3-7 0-7 7s3 10 7 7c3-4 3-10 0-14zm-110-60c-4-3-7 0-7 7s3 10 7 7c3-4 3-10 0-14zm-90-20c-4-3-10-3-14 0-3 4 0 7 7 7s10-3 7-7zm194-26c-10-9-11-8-5 6 3 10 9 15 12 12s0-11-7-18z"/>
<path d="m900 841c0-5 9-7 20-4s20 7 20 9-9 4-20 4-20-4-20-9z"/>
<path d="m820 1120c0-7 3-10 7-7 3 4 3 10 0 14-4 3-7 0-7-7z"/>
<path d="m757 1111c-16-6-17-9-4-19 11-10 17-9 26 2 14 17 3 26-22 17z"/>
<path d="m1184 1093-21-28h29c29 0 32 6 20 38-7 16-10 15-28-10z"/>
<path d="m960 1095c0-10 10-15 30-15 32 0 40 14 14 24-27 10-44 7-44-9z"/>
<path d="m700 1091c0-5 6-14 14-20 10-9 15-8 19 3 3 8 3 17 0 20-9 9-33 7-33-3z"/>
<path d="m1253 1063c4-3 10-3 14 0 3 4 0 7-7 7s-10-3-7-7z"/>
<path d="m650 967c0-3 17-13 38-23l37-18-35-8c-19-4-41-5-47-3-7 2-13 0-13-5 0-6 20-10 44-10 49 0 65 19 38 43-17 15-62 32-62 24z"/>
<path d="m654 928c-4-7-3-8 4-4s12 9 12 12c0 8-9 4-16-8z"/>
<path d="m547 912c-23-26-22-46 3-39 11 3 20 1 20-4s5-9 10-9c6 0 10 7 10 15 0 9-10 15-27 16s-21 3-10 6c9 2 17 9 17 14 0 6 7 6 19-1 29-15 38-12 15 5-25 19-38 19-57-3z"/>
<path d="m615 870c-3-5 3-10 14-10 12 0 21 5 21 10 0 6-6 10-14 10s-18-4-21-10z"/>
<path d="m675 870c-3-5 3-10 14-10s23 5 26 10c3 6-3 10-14 10s-23-4-26-10z"/>
<path d="m1273 863c4-3 10-3 14 0 3 4 0 7-7 7s-10-3-7-7z"/>
<path d="m536 834c-8-22 4-40 15-23 11 18 11 39 0 39-5 0-12-7-15-16z"/>
<path d="m1295 834c-9-9-13-19-10-22s15 4 28 16c12 12 16 22 10 22s-19-7-28-16z"/>
<path d="m1124 814c-8-3-9-16-4-41 11-45 26-61 42-45 9 9 8 15-8 27-16 13-17 16-4 25s8 14-12 11c-4 0-5 6-2 14 6 16 6 16-12 9z"/>
<path d="m1220 799c0-18 2-19 15-9 15 12 12 30-6 30-5 0-9-10-9-21z"/>
<path d="m664 784c-19-15-19-15 1-6 11 5 27 12 35 15 13 5 13 6-1 6-8 1-24-6-35-15z"/>
<path d="m1245 779c-12-18 3-22 20-5 14 14 14 16 1 16-8 0-18-5-21-11z"/>
<path d="m1270 743c0-21 2-24 15-13 8 7 15 16 15 20s-7 10-15 14c-11 4-15-2-15-21z"/>
<path d="m1186 744c-10-26 2-29 26-8 13 10 17 12 11 3-7-8-10-25-6-38 4-17 1-23-16-28-17-4-19-8-10-19 6-8 15-11 20-8s8 0 7-7c-2-6 3-14 10-16 9-4 12 3 10 23-3 24 1 29 27 35 29 6 29 10 3 13-7 0-15 12-17 26-5 40-52 57-65 24z"/>
<path d="m570 735c7-8 17-12 22-9 6 4 5 10-3 15-22 14-33 10-19-6z"/>
<path d="m1157 712c-14-3-16-7-6-18 13-16 45-19 54-5 7 13-25 29-48 23z"/>
<path d="m980 681c0-15 27-20 39-8 8 8 14 8 23-1s8-16-6-31c-16-17-16-19 0-25 21-8 20-9 28 37l7 37h-46c-25 0-45-4-45-9z"/>
<path d="m1076 647c-3-12-6-26-6-31 0-9 62-3 91 8 11 5 15 0 15-19 0-15-6-25-14-25-9 0-12 6-8 16 5 12 2 15-10 10-8-3-29-6-45-6-24 0-29-4-29-22 1-22 1-22 15-4s15 18 25-9c7-19 15-25 26-21 9 3 22 6 29 6 42 0 51 62 14 96-16 14-24 15-44 6-14-6-25-16-25-22 0-5-5-10-11-10s-8 8-4 19c3 11 2 22-3 25-6 3-12-4-16-17zm64-77c0-5-2-10-4-10-3 0-8 5-11 10-3 6-1 10 4 10 6 0 11-4 11-10z"/>
<path d="m1022 578c2-13 8-23 13-23 6 0 11 10 13 23 2 15-2 22-13 22s-15-7-13-22z"/>
<path d="m920 562c0-11-3-27-6-36s-1-16 5-16 11 8 11 18c0 14 2 15 10 2 8-12 10-11 10 6 0 12-7 27-15 34-12 10-15 9-15-8z"/>
<path d="m1002 504c-7-12-17-15-33-11-23 6-23 5-5-8 29-22 43-18 48 10 6 29 3 32-10 9z"/>
<path d="m1816 1254c-5-14-4-15 9-4 8 7 15 8 15 2 0-5-6-14-13-20-17-14-10-102 9-102 9 0 14 18 17 63l3 62 2-63c2-50 6-64 20-68 38-12 97-39 103-46 3-5 18 5 33 21 32 34 32 36-36 110-41 46-47 49-53 31-8-26 4-47 17-29 6 11 8 9 6-6-2-16 2-19 21-17s22 0 12-12c-9-11-6-18 16-36l28-22-57 4c-69 5-81 15-50 36l23 15-48 49c-50 51-67 58-77 32zm71-91c-3-10-5-4-5 12 0 17 2 24 5 18 2-7 2-21 0-30zm-50 5c-3-8-6-5-6 6-1 11 2 17 5 13 3-3 4-12 1-19z"/>
<path d="m1680 1225c0-41 35-68 81-62 43 6 47 2 22-25-20-22-10-36 12-18 19 16 17 81-2 88-7 2-13-3-13-12s-4-16-10-16c-5 0-10 11-10 25 0 26-25 45-59 45-16 0-21-6-21-25zm27-12c-4-3-10-3-14 0-3 4 0 7 7 7s10-3 7-7zm30 0c-4-3-10-3-14 0-3 4 0 7 7 7s10-3 7-7zm0-29c-3-3-12-4-19-1-8 3-5 6 6 6 11 1 17-2 13-5z"/>
<path d="m1623 1173c4-3 10-3 14 0 3 4 0 7-7 7s-10-3-7-7z"/>
<path d="m1676 1163c-7-8 12-43 24-43 15 0 12 37-4 43-8 3-17 3-20 0z"/>
<path d="m2081 1157c-9-12-8-16 5-21 22-8 28-1 17 19-8 14-11 14-22 2z"/>
<path d="m1930 1150c-8-5-10-10-5-10 6 0 21-3 35-7 22-6 24-5 11 10-16 20-20 20-41 7z"/>
<path d="m1555 1129c-36-10-78-46-69-60 3-5 14 1 25 13l19 23-6-28c-5-21-2-32 12-43 18-15 18-15-1-10-16 5-23-1-32-24-6-17-16-30-23-30s-6 8 4 22c24 34 21 56-5 32-43-39-43-51 1-80 36-24 43-26 56-13 12 13 12 18-5 36-20 21-20 21 5 27 15 4 24 14 24 26 0 29 41 26 70-5 13-14 19-25 13-25-5 0-18 9-28 20s-25 20-34 20c-10-1-2-13 23-35 39-34 40-48 2-20-11 8-29 15-40 14-16 0-14-3 9-11 42-15 67-39 62-59-3-11 3-20 17-24 20-7 20-7-4-14l-25-7 25-9c19-7 6-10-55-12-118-5-125-7-125-48 0-21 7-39 18-47 16-12 42-51 42-63 0-3-7-5-15-5-9 0-12 6-8 16 4 12 2 15-8 12-17-6-24-37-11-50 7-7 22-6 45 3 29 10 35 17 32 38-2 19-8 26-24 25-22-1-27 7-13 20 4 4 7 24 7 44 0 37 0 37 45 38l45 2-39-7c-22-3-41-11-43-18-3-8 6-10 29-7 45 8 88-10 88-36 0-11-4-20-9-20s-8 8-7 18c1 13-5 16-24 13-33-4-68-23-53-28 7-3 22 1 33 7 33 18 39 1 9-23-26-22-26-22-8-41 11-11 18-27 18-35-1-13-2-12-6 2-5 20-12 21-47 7-21-8-26-16-26-45 0-23 4-34 10-30s8 15 5 25c-6 19 18 50 38 50 7 0 4-5-5-11-21-12-24-49-5-49 16 0 57 41 57 57 0 6-7 16-15 23-19 16-19 34 0 26 9-3 23 6 37 24 12 17 29 30 37 30 10 0 3-13-21-37-50-53-38-76 15-26 22 21 37 30 34 21-4-10-2-18 3-18 6 0 10 5 10 10 0 6 6 10 14 10 7 0-4 17-25 39-22 21-39 47-38 57 0 15 2 14 10-6 14-35 39-61 74-76 21-9 24-13 11-14-16 0-17-2-5-17 13-16 12-17-4-4-15 12-19 12-31-4-10-13-15-15-21-6-10 17-65-35-65-61 0-23 19-23 36 0 12 15 13 14 10-11-4-35-10-41-34-28-16 8-21 7-26-4-3-8-13-15-23-15-15 0-14 4 7 20 14 10 21 22 17 26-10 11-57-36-57-58 0-23 19-23 50 2 27 21 51 27 32 8-16-16-15-39 4-67 11-16 20-19 27-12s6 15-4 27c-12 16-12 17 4 11 19-7 23 3 7 19-11 11 14 54 32 54 6 0 3-9-7-20-20-22-14-34 17-35 12 0 23-6 25-12 3-8-4-13-16-13s-21-4-21-8c0-17 47-52 68-52 34 0 26 28-10 35-26 6-28 9-15 17 30 16 21 63-18 92-19 15-35 35-35 46 0 19 32 36 50 25 19-12 10-25-17-25l-28-1 29-25c34-30 49-18 40 32-3 18-1 35 5 38 8 5 11-12 11-53 0-48 3-61 15-61 17 0 20 32 6 59-6 10-7 28-4 41 6 22 7 23 14 4 4-10 8-41 9-69 1-27 4-42 7-32 2 9 11 17 20 17 10 0 13-6 9-16-3-9-6-20-6-25s-7-9-15-9c-18 0-21-45-4-56 15-9 26 11 34 62 7 50-2 94-20 94-14 0-27 25-18 34 4 3 27 6 51 6 45 0 45 0 27 20-10 11-16 23-13 25 3 3 24-15 46-40 28-32 45-43 56-39 15 6 14 10-10 35-15 16-33 29-40 29-15 0-28 34-15 38 6 2 8 9 5 14-4 7-2 8 5 4 6-4 9-11 6-15-2-5 4-16 14-25 19-17 19-16 11 17-4 19-10 39-14 45-3 6 3 13 14 16s30 9 42 12c19 6 21 5 10-8-10-12-8-18 8-33 19-18 20-17 20 4 0 15-4 20-12 15-9-5-9-2 1 9 14 18 26 23 17 8-7-10 70-9 80 1s-84 21-126 14c-22-3-41-2-45 4s20 10 64 10c56 0 71 3 71 15 0 16-15 20-24 7-7-11-91-6-113 7-13 8 9 10 87 11 71 0 100-3 90-10-12-8-12-10 5-10 15 0 20 7 20 25 0 14-4 25-9 25-4 0-5 7-2 15 3 9-1 18-9 21-8 4-15 18-15 34 0 15-9 35-21 46-20 18-21 18-35-1-14-18-13-20 6-23 16-3 20-10 18-30-2-15 4-32 12-39 10-8 12-15 5-21-15-14-75-23-75-12 0 6 14 10 30 10 47 0 35 20-12 21-24 1-34 4-24 6 15 4 16 7 5 15s-10 9 4 4c23-7 47 3 47 21 0 15-17 14-67-4-13-4-10 3 11 25 16 18 27 34 24 38-9 8-49-16-43-26 3-5 1-11-4-14s-12 2-15 11c-6 14-11 12-36-15-16-18-35-32-42-32s21 31 62 69 71 73 67 77c-4 5-12 2-17-6-9-13-10-13-10 0 0 10-5 7-16-8-8-12-12-27-9-32 3-6-3-10-13-10-11 0-34-16-51-35-32-37-44-44-35-21 4 11-1 14-20 12-13-2-30 1-38 6-10 8-9 9 4 5 9-3 19-1 21 6 3 9 9 9 25 0 16-10 23-9 37 7 21 23 12 27-52 22-41-3-53-8-59-25s-8-11-11 26c-2 26-9 47-15 47s-8-11-5-27c2-16 1-37-3-48-7-15-9-9-9 24-1 37-3 42-16 31-18-15-35-5-35 21 0 10-4 19-10 19-12 0-13-37-1-44 5-3 11-15 14-26 4-17 3-19-8-10-10 8-15 7-19-2s-5-9-5 2c3 40-1 43-24 19l-23-24 25-27c13-15 22-30 19-33-3-4-23 15-43 40-28 33-40 42-46 33s5-26 33-51c22-20 38-40 34-44-3-4-12-1-18 5-9 9-15 9-27-1-14-10-14-10-4 4 10 13 5 23-33 60-40 39-46 42-55 27-6-10-15-18-22-18-8 0-9 3-1 8 17 12 23 39 11 51-6 6-7 11-1 11s14-4 20-10c5-5 15-6 22-1 23 14-9 29-43 20zm228-106c-7-2-21-2-30 0-10 3-4 5 12 5 17 0 24-2 18-5zm60-10c-7-2-19-2-25 0-7 3-2 5 12 5s19-2 13-5zm183-39c-3-8-10-13-15-10-5 4-4 16 2 31 9 18 13 20 15 9 2-8 1-22-2-30zm-251 22c-35-15-60-41-74-76-8-20-10-21-10-6-1 24 71 96 95 96 13-1 10-5-11-14zm156-25c22-21 39-47 39-57-1-13-5-10-14 11-15 35-41 60-76 74-20 8-21 10-6 10 10 1 36-16 57-38zm-97 2c4-5 20-8 34-8 25 0 27-3 27-43 0-24-4-46-9-49s-6 14-2 41c6 37 4 46-8 46-10 0-17-15-23-47l-8-48-5 50c-4 35-9 50-20 50-10 0-16-12-18-37-2-21-7-38-12-38-11 0-1 60 13 78 11 14 20 15 31 5zm-56-32c2-13 0-27-5-32-6-6-8 3-5 22 3 22 1 30-7 25-6-4-11-19-12-34 0-15-3-21-6-14-8 20 6 64 20 59 7-2 14-14 15-26zm-253 9c3-6-1-7-9-4-18 7-21 14-7 14 6 0 13-4 16-10zm165 1c0-12-28-22-34-12-3 5-3 11 1 15 9 9 33 7 33-3zm297-23c-3-7-5-2-5 12s2 19 5 13c2-7 2-19 0-25zm51-1c2-9-3-17-10-17-8 0-14 9-15 21-2 24 20 20 25-4zm-211-24c-3-10-5-4-5 12 0 17 2 24 5 18 2-7 2-21 0-30zm100 20c-4-3-7 0-7 7s3 10 7 7c3-4 3-10 0-14zm250-10c-4-3-7 0-7 7s3 10 7 7c3-4 3-10 0-14zm-456-20c-12-20-14-14-5 12 4 9 9 14 11 11 3-2 0-13-6-23zm216-50c-2-16-4-5-4 22 0 28 2 40 4 28 2-13 2-35 0-50zm-250 15c-3-7-5-2-5 12s2 19 5 13c2-7 2-19 0-25zm230 10c-3-8-6-5-6 6-1 11 2 17 5 13 3-3 4-12 1-19zm60-10c-3-7-5-2-5 12s2 19 5 13c2-7 2-19 0-25zm-194 6c3-3 31-8 63-10s63-9 68-15c8-7-1-9-29-5-22 3-47 1-55-4-12-8-11-10 8-10 13 0 22-6 22-16 0-15-2-15-26 1-31 20-54 6-48-28 2-12 2-16-2-9-3 6-10 12-15 12-6 0-7-6-3-12 5-10 4-10-5-2-10 9-10 17 3 36 14 22 14 25 1 25-8 0-15-7-15-16 0-12-3-12-12-3s-8 15 7 26c11 8 26 12 35 9 10-3 10-1-3 7-9 6-22 8-27 5-6-3-10-1-10 4 0 12 33 15 43 5zm-66-26c-3-8-6-5-6 6-1 11 2 17 5 13 3-3 4-12 1-19zm-207-22c0-13-7-29-15-36-9-8-15-9-15-2 0 6 5 14 11 18 6 3 9 15 6 25-3 11-1 19 4 19s9-11 9-24zm150 9c0-8-4-15-10-15-5 0-10 7-10 15s5 15 10 15c6 0 10-7 10-15zm310-1c0-23-74-94-96-94-13 1-9 5 12 14 33 15 74 60 74 82 0 8 2 14 5 14s5-7 5-16zm-48-25c-4-4-18-9-32-13-14-3-19-3-12 0 6 3 10 9 8 12-2 4 7 7 19 7 13 0 21-3 17-6zm-66-25c18-14 18-14-6-3-31 14-36 19-24 19 6 0 19-7 30-16zm-26-14c8-5 11-10 5-10-5 0-17 5-25 10s-10 10-5 10c6 0 17-5 25-10zm13-37c-7-2-19-2-25 0-7 3-2 5 12 5s19-2 13-5zm70-10c-7-2-21-2-30 0-10 3-4 5 12 5 17 0 24-2 18-5zm-193-37c0-3-4-8-10-11-5-3-10-1-10 4 0 6 5 11 10 11 6 0 10-2 10-4zm80-31c0-8-4-15-10-15-5 0-7 7-4 15 4 8 8 15 10 15s4-7 4-15zm87-12c-4-3-7 0-7 7s3 10 7 7c3-4 3-10 0-14zm-110-60c-4-3-7 0-7 7s3 10 7 7c3-4 3-10 0-14zm-90-20c-4-3-10-3-14 0-3 4 0 7 7 7s10-3 7-7zm194-26c-10-9-11-8-5 6 3 10 9 15 12 12s0-11-7-18z"/>
<path d="m1800 841c0-5 9-7 20-4s20 7 20 9-9 4-20 4-20-4-20-9z"/>
<path d="m1720 1120c0-7 3-10 7-7 3 4 3 10 0 14-4 3-7 0-7-7z"/>
<path d="m1657 1111c-16-6-17-9-4-19 11-10 17-9 26 2 14 17 3 26-22 17z"/>
<path d="m2084 1093-21-28h29c29 0 32 6 20 38-7 16-10 15-28-10z"/>
<path d="m1860 1095c0-10 10-15 30-15 32 0 40 14 14 24-27 10-44 7-44-9z"/>
<path d="m1600 1091c0-5 6-14 14-20 10-9 15-8 19 3 3 8 3 17 0 20-9 9-33 7-33-3z"/>
<path d="m2153 1063c4-3 10-3 14 0 3 4 0 7-7 7s-10-3-7-7z"/>
<path d="m1550 967c0-3 17-13 38-23l37-18-35-8c-19-4-41-5-47-3-7 2-13 0-13-5 0-6 20-10 44-10 49 0 65 19 38 43-17 15-62 32-62 24z"/>
<path d="m1554 928c-4-7-3-8 4-4 12 7 16 16 8 16-3 0-8-5-12-12z"/>
<path d="m1447 912c-23-26-22-46 3-39 11 3 20 1 20-4s5-9 10-9c6 0 10 7 10 15 0 9-10 15-27 16s-21 3-10 6c9 2 17 9 17 14 0 6 7 6 19-1 29-15 38-12 15 5-25 19-38 19-57-3z"/>
<path d="m1515 870c-3-5 3-10 14-10 12 0 21 5 21 10 0 6-6 10-14 10s-18-4-21-10z"/>
<path d="m1575 870c-3-5 3-10 14-10s23 5 26 10c3 6-3 10-14 10s-23-4-26-10z"/>
<path d="m2173 863c4-3 10-3 14 0 3 4 0 7-7 7s-10-3-7-7z"/>
<path d="m1436 834c-8-22 4-40 15-23 11 18 11 39 0 39-5 0-12-7-15-16z"/>
<path d="m2195 834c-9-9-13-19-10-22s15 4 28 16c12 12 16 22 10 22s-19-7-28-16z"/>
<path d="m2024 814c-8-3-9-16-4-41 11-45 26-61 42-45 9 9 8 15-8 27-16 13-17 16-4 25s8 14-12 11c-4 0-5 6-2 14 6 16 6 16-12 9z"/>
<path d="m2120 799c0-18 2-19 15-9 15 12 12 30-6 30-5 0-9-10-9-21z"/>
<path d="m1564 784c-19-15-19-15 1-6 11 5 27 12 35 15 13 5 13 6-1 6-8 1-24-6-35-15z"/>
<path d="m2145 779c-12-18 3-22 20-5 14 14 14 16 1 16-8 0-18-5-21-11z"/>
<path d="m2170 743c0-21 2-24 15-13 8 7 15 16 15 20s-7 10-15 14c-11 4-15-2-15-21z"/>
<path d="m2086 744c-10-26 2-29 26-8 13 10 17 12 11 3-7-8-10-25-6-38 4-17 1-23-16-28-17-4-19-8-10-19 6-8 15-11 20-8s8 0 7-7c-2-6 3-14 10-16 9-4 12 3 10 23-3 24 1 29 27 35 29 6 29 10 3 13-7 0-15 12-17 26-5 40-52 57-65 24z"/>
<path d="m1470 735c7-8 17-12 22-9 6 4 5 10-3 15-22 14-33 10-19-6z"/>
<path d="m2057 712c-14-3-16-7-6-18 13-16 45-19 54-5 7 13-25 29-48 23z"/>
<path d="m1880 681c0-15 27-20 39-8 8 8 14 8 23-1s8-16-6-31c-16-17-16-19 0-25 21-8 20-9 28 37l7 37h-46c-25 0-45-4-45-9z"/>
<path d="m1976 647c-3-12-6-26-6-31 0-9 62-3 91 8 11 5 15 0 15-19 0-15-6-25-14-25-9 0-12 6-8 16 5 12 2 15-10 10-8-3-29-6-45-6-24 0-29-4-29-22 1-22 1-22 15-4s15 18 25-9c7-19 15-25 26-21 9 3 22 6 29 6 42 0 51 62 14 96-16 14-24 15-44 6-14-6-25-16-25-22 0-5-5-10-11-10s-8 8-4 19c3 11 2 22-3 25-6 3-12-4-16-17zm64-77c0-5-2-10-4-10-3 0-8 5-11 10-3 6-1 10 4 10 6 0 11-4 11-10z"/>
<path d="m1922 578c2-13 8-23 13-23 6 0 11 10 13 23 2 15-2 22-13 22s-15-7-13-22z"/>
<path d="m1820 562c0-11-3-27-6-36s-1-16 5-16 11 8 11 18c0 14 2 15 10 2 8-12 10-11 10 6 0 12-7 27-15 34-12 10-15 9-15-8z"/>
<path d="m1902 504c-7-12-17-15-33-11-23 6-23 5-5-8 29-22 43-18 48 10 6 29 3 32-10 9z"/>
</g>
</svg>
