<?xml version="1.0" encoding="UTF-8" standalone="no"?>
<svg
   xmlns:dc="http://purl.org/dc/elements/1.1/"
   xmlns:cc="http://creativecommons.org/ns#"
   xmlns:rdf="http://www.w3.org/1999/02/22-rdf-syntax-ns#"
   xmlns:svg="http://www.w3.org/2000/svg"
   xmlns="http://www.w3.org/2000/svg"
   xmlns:sodipodi="http://sodipodi.sourceforge.net/DTD/sodipodi-0.dtd"
   xmlns:inkscape="http://www.inkscape.org/namespaces/inkscape"
   width="808"
   height="808"
   id="svg2"
   version="1.1"
   inkscape:version="1.0 (4035a4fb49, 2020-05-01)"
   sodipodi:docname="Zastava Zapovjednika Oružanih Snaga Nezavisne Države Hrvatske.svg">
  <defs
     id="defs4">
    <inkscape:perspective
       id="perspective2486"
       inkscape:persp3d-origin="372.04724 : 358.78739 : 1"
       inkscape:vp_z="744.09448 : 534.18109 : 1"
       inkscape:vp_y="0 : 1000 : 0"
       inkscape:vp_x="0 : 534.18109 : 1"
       sodipodi:type="inkscape:persp3d" />
    <inkscape:perspective
       id="perspective2486-9"
       inkscape:persp3d-origin="372.04724 : 358.78739 : 1"
       inkscape:vp_z="744.09448 : 534.18109 : 1"
       inkscape:vp_y="0 : 1000 : 0"
       inkscape:vp_x="0 : 534.18109 : 1"
       sodipodi:type="inkscape:persp3d" />
    <rect
       id="rect175"
       height="46.25"
       width="85"
       y="232.076"
       x="-301.75" />
    <inkscape:perspective
       id="perspective9066"
       inkscape:persp3d-origin="372.04724 : 358.78739 : 1"
       inkscape:vp_z="744.09448 : 534.18109 : 1"
       inkscape:vp_y="0 : 1000 : 0"
       inkscape:vp_x="0 : 534.18109 : 1"
       sodipodi:type="inkscape:persp3d" />
    <inkscape:perspective
       id="perspective2486-98"
       inkscape:persp3d-origin="372.04724 : 358.78739 : 1"
       inkscape:vp_z="744.09448 : 534.18109 : 1"
       inkscape:vp_y="0 : 1000 : 0"
       inkscape:vp_x="0 : 534.18109 : 1"
       sodipodi:type="inkscape:persp3d" />
    <rect
       id="rect175-6"
       height="46.25"
       width="85"
       y="232.076"
       x="-301.75" />
    <inkscape:perspective
       id="perspective9066-5"
       inkscape:persp3d-origin="372.04724 : 358.78739 : 1"
       inkscape:vp_z="744.09448 : 534.18109 : 1"
       inkscape:vp_y="0 : 1000 : 0"
       inkscape:vp_x="0 : 534.18109 : 1"
       sodipodi:type="inkscape:persp3d" />
    <inkscape:perspective
       sodipodi:type="inkscape:persp3d"
       inkscape:vp_x="0 : 542.1737 : 1"
       inkscape:vp_y="0 : 1000 : 0"
       inkscape:vp_z="744.09448 : 542.1737 : 1"
       inkscape:persp3d-origin="372.04724 : 366.78 : 1"
       id="perspective2486-7" />
    <rect
       x="-301.75"
       y="232.076"
       width="85"
       height="46.25"
       id="rect175-7" />
    <inkscape:perspective
       sodipodi:type="inkscape:persp3d"
       inkscape:vp_x="0 : 542.1737 : 1"
       inkscape:vp_y="0 : 1000 : 0"
       inkscape:vp_z="744.09448 : 542.1737 : 1"
       inkscape:persp3d-origin="372.04724 : 366.78 : 1"
       id="perspective9066-55" />
    <inkscape:perspective
       sodipodi:type="inkscape:persp3d"
       inkscape:vp_x="0 : 558.1737 : 1"
       inkscape:vp_y="0 : 1000 : 0"
       inkscape:vp_z="744.09448 : 558.1737 : 1"
       inkscape:persp3d-origin="372.04724 : 382.78 : 1"
       id="perspective2486-4" />
    <rect
       x="-301.75"
       y="232.076"
       width="85"
       height="46.25"
       id="rect175-4" />
    <inkscape:perspective
       sodipodi:type="inkscape:persp3d"
       inkscape:vp_x="0 : 558.1737 : 1"
       inkscape:vp_y="0 : 1000 : 0"
       inkscape:vp_z="744.09448 : 558.1737 : 1"
       inkscape:persp3d-origin="372.04724 : 382.78 : 1"
       id="perspective9066-2" />
  </defs>
  <sodipodi:namedview
     id="base"
     pagecolor="#ffffff"
     bordercolor="#666666"
     borderopacity="1.0"
     inkscape:pageopacity="0.0"
     inkscape:pageshadow="2"
     inkscape:zoom="0.90509668"
     inkscape:cx="368.10047"
     inkscape:cy="429.21375"
     inkscape:document-units="px"
     inkscape:current-layer="layer1"
     showgrid="false"
     inkscape:window-width="1920"
     inkscape:window-height="1017"
     inkscape:window-x="-8"
     inkscape:window-y="-8"
     inkscape:window-maximized="1"
     inkscape:document-rotation="0"
     showguides="false" />
  <metadata
     id="metadata7">
    <rdf:RDF>
      <cc:Work
         rdf:about="">
        <dc:format>image/svg+xml</dc:format>
        <dc:type
           rdf:resource="http://purl.org/dc/dcmitype/StillImage" />
        <dc:title />
      </cc:Work>
    </rdf:RDF>
  </metadata>
  <g
     inkscape:label="Layer 1"
     inkscape:groupmode="layer"
     id="layer1"
     transform="translate(0,-252.36218)">
    <g
       id="g86">
      <rect
         style="opacity:0.99;fill:#ffffff;fill-opacity:1;fill-rule:evenodd;stroke:none"
         id="rect2985-6"
         width="800"
         height="800"
         x="4.2495046"
         y="256.60739" />
      <rect
         style="opacity:0.99;fill:#011171;fill-opacity:1;fill-rule:evenodd;stroke:none;stroke-width:1.00002"
         id="rect2987-7"
         width="100"
         height="800.00201"
         x="354.01675"
         y="256.6058" />
      <rect
         style="opacity:0.99;fill:#011171;fill-opacity:1;fill-rule:evenodd;stroke:none;stroke-width:1.00007"
         id="rect2987-1-5"
         width="100"
         height="800.00696"
         x="606.4751"
         y="-804.2536"
         transform="rotate(90)" />
      <path
         inkscape:connector-curvature="0"
         style="fill:#ffffff;fill-opacity:1;fill-rule:nonzero;stroke:none;stroke-width:4.2232;stroke-linecap:round;stroke-linejoin:round;stroke-miterlimit:4;stroke-dasharray:none;stroke-opacity:1"
         d="m 179.9487,286.43518 c 0.31753,3.38377 -0.4784,5.08184 0,0 1.76498,3.08646 6.39936,12.10916 9.43659,16.19187 1.18208,1.58897 2.46989,2.98451 3.83423,4.12108 2.63312,-7.59165 9.31469,-11.50466 15.30151,-11.05246 2.56043,0.19339 5.02865,1.20083 6.88037,3.0704 6.18629,6.2459 2.82833,18.55384 -7.91596,22.38036 1.1275,1.38129 2.51221,2.68858 4.09184,3.88649 4.04457,3.06714 12.3303,7.88713 15.38572,9.66816 -0.0249,0.0136 -3.34854,0.62327 -2.019,0.0633 1.0245,-0.43149 -2.47447,-0.98241 1.84092,-0.0608 0.17677,0.0378 -0.25824,0.30604 -2.12381,-0.46967 -0.048,-0.0199 1.94499,0.33704 2.30189,0.46712 -3.05542,1.78104 -11.34118,6.61546 -15.38572,9.68258 -1.57963,1.19791 -2.96434,2.5052 -4.09184,3.88649 10.74429,3.82652 14.10227,16.13447 7.91596,22.38036 -6.18633,6.24594 -18.37232,2.85129 -22.16168,-7.99736 -1.37157,1.13919 -2.66679,2.53992 -3.85443,4.13638 -3.03723,4.08271 -7.813,13.09819 -9.57797,16.18465 0.15346,-10.72028 0.0159,-0.23762 0,-0.31015 -1.12694,-5.14952 0.30785,-3.31649 0,0.31015 -1.76403,-3.08482 -6.55022,-12.10108 -9.58807,-16.18465 -1.18891,-1.59818 -2.4839,-3.0017 -3.85441,-4.14149 -3.78771,10.85169 -15.97466,14.24911 -22.1617,8.00247 -6.18701,-6.24665 -2.82202,-18.55105 7.92607,-22.37527 -1.12891,-1.38372 -2.51903,-2.69118 -4.10196,-3.89158 -4.04456,-3.06714 -12.97687,-7.89433 -16.03225,-9.67537 -0.003,-0.002 1.76493,-0.15395 1.76128,-0.153 -0.58057,0.15115 -1.133,0.25469 -1.11473,0.25038 3.56297,-0.8414 0.69661,-0.11794 0.87225,-0.0923 0.004,6.6e-4 -1.52219,-0.003 -1.5188,-0.005 3.05538,-1.78101 11.98768,-6.60823 16.03225,-9.67537 1.58294,-1.2004 2.97305,-2.50786 4.10196,-3.89158 -10.74809,-3.82422 -14.11307,-16.12863 -7.92607,-22.37527 6.18703,-6.24664 18.37396,-2.84918 22.1617,8.00247 1.3705,-1.13979 2.66547,-2.54331 3.85441,-4.14149 3.03786,-4.08355 7.96538,-13.10702 9.72945,-16.19187 -0.10166,3.40053 -0.99331,13.85587 0,0 z"
         id="path4119-6"
         sodipodi:nodetypes="ccscsscscssscscscscscscccscssscscscscc" />
      <path
         sodipodi:nodetypes="scsssccsscccssccscccssccccccssscsssccccscccsscccccccssscscscccssssscsccsccccsccssccsscccccccscccssscccccscccccsscccscscccsssscscccsscccccccccscsccscccsscscsccccccccccscsccssscccccscsscssssccccccscsccscccsssscsccscscssssscsccccsscccsscccscsscsccsccscsccsscccccssccscscscsccssscssccsccscscsscscsccccsccscscscccssccccccc"
         inkscape:connector-curvature="0"
         style="fill:#dd0000;fill-opacity:1;fill-rule:nonzero;stroke:none;stroke-width:1.78674;stroke-linecap:round;stroke-linejoin:round;stroke-miterlimit:4;stroke-dasharray:none;stroke-opacity:1"
         d="m 179.84954,290.52273 c -0.0167,1.91192 -0.28308,3.50983 1e-5,-7.5e-4 1.64678,2.87978 4.62864,9.04227 7.85534,13.37966 3.22669,4.33739 7.30922,7.83415 12.58372,7.83415 3.14643,0 5.49724,-1.23808 6.8248,-2.61139 0.66382,-0.68666 1.06123,-1.40802 1.1922,-1.95853 0.13102,-0.55052 0.0397,-0.84733 -0.17176,-1.06088 -0.21152,-0.21354 -0.50552,-0.30568 -1.05075,-0.17341 -0.54527,0.13227 -1.25978,0.53349 -1.93984,1.20368 -0.46262,0.45589 -0.90458,1.03731 -1.29323,1.72393 -3.2e-4,6.5e-4 -0.005,-6.6e-4 -0.005,0 -0.63823,0.29954 -1.40024,0.54001 -2.27325,0.66304 0.57272,-1.51671 1.40725,-2.75912 2.33387,-3.67226 0.86315,-0.85057 1.80482,-1.4302 2.76326,-1.66271 0.23964,-0.0581 0.48778,-0.0904 0.7325,-0.0969 0.70428,-0.0186 1.39297,0.19064 1.91963,0.68345 0.0233,0.0192 0.049,0.0393 0.0707,0.0612 0.0217,0.0219 0.0416,0.0428 0.0606,0.0663 0.65851,0.71687 0.80426,1.74415 0.58094,2.68279 -0.2303,0.96771 -0.80434,1.92352 -1.64685,2.79499 -1.68491,1.74294 -4.49066,3.15202 -8.09783,3.15202 -6.05142,0 -10.61774,-3.99734 -14.00323,-8.5482 -2.94141,-3.95389 -4.95979,-8.14208 -6.4813,-11.01167 -1.52151,2.86962 -3.53528,7.05843 -6.47625,11.01167 -1.68394,2.26362 -3.66034,4.39131 -5.96602,5.95722 -0.0871,-0.66993 -0.20249,-1.3194 -0.34351,-1.94834 1.82044,-1.36743 3.43794,-3.14505 4.88496,-5.09015 3.22669,-4.33739 6.29947,-10.49911 7.94628,-13.3789 0.14858,1.02258 -0.004,0.49147 1e-5,-7.5e-4 z m 0,6.44226 c -0.0458,0.98683 -0.1972,2.69093 -1e-5,2.1e-4 1.5482,2.7138 4.36781,8.14033 7.51184,11.76646 3.14399,3.62609 7.24287,6.51316 12.92724,6.51316 4.64537,0 8.04223,-2.10853 9.82045,-4.60052 0.8891,-1.246 1.36407,-2.58104 1.40941,-3.77426 0.0454,-1.19323 -0.31005,-2.22867 -1.12147,-3.05002 -0.011,-0.011 -0.0192,-0.0248 -0.0303,-0.0357 -0.01,-0.0109 -0.0212,-0.0193 -0.0303,-0.0306 -0.80287,-0.77292 -1.81038,-1.11056 -2.96028,-1.06597 -1.18181,0.0458 -2.50409,0.52534 -3.73823,1.423 -1.60741,1.16923 -3.05122,3.03426 -3.86453,5.48798 -0.61123,-0.0326 -1.20486,-0.12242 -1.78324,-0.26522 0.9044,-2.93955 2.61521,-5.22747 4.60712,-6.67636 1.47727,-1.07457 3.11538,-1.69769 4.71321,-1.75963 0.0999,-0.004 0.19847,-0.006 0.29805,-0.005 1.46459,0.0113 2.88632,0.52909 3.98072,1.59641 0.002,0.002 0.003,0.003 0.005,0.005 0.0214,0.018 0.0456,0.0358 0.0657,0.0561 0.0244,0.0247 0.0469,0.0514 0.0707,0.0765 0.004,0.005 0.006,0.0106 0.0101,0.0153 1.11362,1.17719 1.61583,2.72069 1.55592,4.2945 -0.0614,1.61322 -0.67852,3.26711 -1.74283,4.75863 -2.12862,2.98303 -6.08559,5.34518 -11.26523,5.34518 -6.28816,0 -10.91997,-3.26622 -14.26592,-7.1252 -2.8293,-3.26313 -4.77247,-6.91196 -6.21356,-9.55297 -1.44121,2.64115 -3.39358,6.28889 -6.22366,9.55297 -1.6767,1.93381 -3.67395,3.71908 -6.0418,5.01875 0.0107,-0.29765 0.0151,-0.59872 0.0151,-0.90276 -1e-5,-0.38885 -0.008,-0.77008 -0.0252,-1.14758 1.78874,-1.12277 3.34013,-2.5681 4.71321,-4.15169 3.14399,-3.6261 6.05453,-9.05287 7.60278,-11.76667 0.18142,0.91837 -0.0166,0.35713 -10e-6,2.1e-4 z m 27.61244,0.81621 c 0.30455,-0.003 0.60516,0.008 0.90425,0.0306 2.12708,0.16066 4.09151,0.97888 5.55179,2.45327 0.0217,0.0219 0.0416,0.0428 0.0606,0.0663 5.74393,5.93494 1.14782,19.89139 -13.69003,19.89139 -6.21415,0 -10.82665,-2.44256 -14.1952,-5.54409 -2.85854,-2.63189 -4.82194,-5.69154 -6.28934,-8.19627 -1.46736,2.50456 -3.43113,5.5647 -6.28933,8.19627 -1.77758,1.63666 -3.89909,3.08801 -6.42068,4.09559 0.13475,-0.67317 0.2408,-1.36336 0.31826,-2.07584 1.87717,-0.88301 3.49389,-2.04641 4.90517,-3.34584 3.1214,-2.87392 5.97977,-7.53165 7.49164,-10.18173 0.32762,0.77855 -0.0128,0.14495 0,0.17468 0.30661,0.7134 -0.16078,0.21257 0,-0.17468 1.51184,2.65008 4.36017,7.30781 7.48152,10.18173 3.1214,2.87394 7.23957,5.07486 12.99796,5.07486 13.81039,0 16.8379,-12.38295 12.37154,-16.89238 -3.84977,-3.88687 -13.49006,-2.14862 -16.07947,7.33431 -0.54486,-0.22336 -1.07428,-0.49308 -1.59128,-0.80586 2.05852,-6.79134 7.55662,-10.22815 12.47258,-10.28232 z m -55.31581,0 c 6.19251,0.0682 13.31112,5.50153 13.31115,16.24974 0,6.27402 -2.41927,10.92585 -5.49116,14.3269 -2.60514,2.88426 -5.633,4.86865 -8.11299,6.34994 2.47999,1.48129 5.50785,3.46571 8.11299,6.34995 1.62008,1.79367 3.05858,3.93349 4.05648,6.47745 -0.66575,-0.13523 -1.35145,-0.23868 -2.05602,-0.31622 -0.87459,-1.89526 -2.02689,-3.52755 -3.3139,-4.95245 -2.84649,-3.15148 -7.45768,-6.03229 -10.08245,-7.55873 1.67776,-0.0278 1.73101,0.58052 0.0682,0 6.45567,-0.52364 1.44752,0.14365 -0.0682,0 2.62477,-1.52641 7.23597,-4.40724 10.08245,-7.55872 2.8465,-3.15149 5.02641,-7.30424 5.02641,-13.11812 -10e-6,-13.94346 -12.26473,-17.00533 -16.73114,-12.49588 -3.84974,3.88685 -2.12807,13.62005 7.26431,16.23444 -0.22168,0.55092 -0.48257,1.08898 -0.79311,1.61171 -10.06668,-3.10622 -12.68563,-13.99198 -7.78968,-19.04983 0.019,-0.0235 0.0389,-0.0444 0.0606,-0.0663 0.0208,-0.0219 0.043,-0.0418 0.0657,-0.0612 1.45346,-1.4343 3.38986,-2.23373 5.48611,-2.39207 0.29913,-0.0226 0.59971,-0.034 0.90426,-0.0306 z m -0.14651,3.11122 c 0.0995,-9.8e-4 0.19819,9.8e-4 0.29806,0.005 1.59784,0.062 3.2359,0.68506 4.7132,1.75962 2.95456,2.14914 5.29416,6.14424 5.29416,11.3738 0,6.34876 -3.23498,11.02011 -7.05718,14.39831 -3.23034,2.8551 -6.84118,4.82373 -9.45673,6.27853 2.61555,1.45481 6.22639,3.42341 9.45673,6.27855 1.91535,1.69286 3.6836,3.70935 4.97084,6.10002 -0.2955,-0.0107 -0.59233,-0.0153 -0.89415,-0.0153 -0.38441,0 -0.76312,0.008 -1.13662,0.0255 -1.11206,-1.80599 -2.54357,-3.37233 -4.11206,-4.75863 -3.59149,-3.17431 -8.9713,-6.02729 -11.65919,-7.59047 0.84393,0.0226 1.66778,0.0343 0.21432,0.004 0.8616,-0.0895 4.74116,0.19908 -0.21432,-0.004 2.68789,-1.56314 8.0677,-4.4955 11.65919,-7.6698 3.59149,-3.1743 6.45098,-7.30758 6.45098,-13.04672 0,-4.69014 -2.08839,-8.1248 -4.55661,-9.92019 -1.23409,-0.89768 -2.55641,-1.37717 -3.73824,-1.423 -1.18181,-0.0458 -2.20739,0.31299 -3.0209,1.13228 -0.81147,0.82135 -1.1618,1.85679 -1.11641,3.05001 0.0454,1.19323 0.51526,2.52826 1.40436,3.77427 1.15806,1.62289 3.0053,3.0806 5.4356,3.90177 -0.0318,0.61784 -0.12133,1.2161 -0.26268,1.80043 -2.9115,-0.91312 -5.17762,-2.64044 -6.61265,-4.65153 -1.0643,-1.49152 -1.68146,-3.14545 -1.74282,-4.75863 -0.0603,-1.58425 0.44688,-3.13998 1.57612,-4.32 0.019,-0.0235 0.0389,-0.0444 0.0606,-0.0663 0.0217,-0.0219 0.0425,-0.042 0.0657,-0.0612 1.0943,-1.06676 2.51646,-1.58513 3.98071,-1.59641 z m 0.21217,3.19792 c 0.24473,0.006 0.48783,0.0388 0.72745,0.0969 0.95849,0.23251 1.9052,0.81214 2.76831,1.66271 1.7263,1.70117 3.12191,4.53906 3.12194,8.18098 0,6.10974 -3.9592,10.72007 -8.46661,14.13819 -3.91614,2.96974 -8.06439,5.00244 -10.90655,6.53865 2.84216,1.53622 6.99039,3.56892 10.90655,6.53866 2.24199,1.70017 4.34939,3.69561 5.90036,6.02352 -0.66286,0.0878 -1.30663,0.20488 -1.92974,0.34683 -1.35439,-1.83799 -3.11505,-3.47109 -5.04157,-4.93205 -4.29598,-3.2578 -10.39105,-6.3143 -13.24332,-7.97696 1.39421,-0.012 1.35067,0.32202 0.0783,0 1.59921,-0.69179 1.28819,0.10092 -0.0783,0 2.8523,-1.66263 8.94733,-4.71916 13.24332,-7.97695 4.29597,-3.2578 7.75937,-7.37457 7.75937,-12.69989 -2e-5,-3.17675 -1.22629,-5.55528 -2.58646,-6.89569 -0.68011,-0.67019 -1.39458,-1.07141 -1.93984,-1.20368 -0.54528,-0.13227 -0.83927,-0.0401 -1.05075,0.17341 -0.21151,0.21355 -0.2977,0.51036 -0.1667,1.06088 0.13101,0.55051 0.52338,1.27187 1.18714,1.95853 0.45069,0.4662 1.02406,0.91381 1.70242,1.3057 0.29888,0.64687 0.544,1.41472 0.66682,2.30026 -1.50422,-0.57694 -2.73696,-1.41481 -3.64226,-2.35127 -0.84246,-0.87147 -1.41657,-1.82728 -1.64685,-2.79499 -0.22352,-0.93918 -0.0786,-1.9659 0.58095,-2.68279 0.019,-0.0235 0.0389,-0.0444 0.0606,-0.0663 0.0217,-0.0219 0.0425,-0.042 0.0657,-0.0612 0.52717,-0.49345 1.22502,-0.70208 1.92973,-0.68345 z m 53.06783,17.70844 c 1.35413,1.83698 3.11082,3.47173 5.03651,4.93205 4.29598,3.25779 10.39813,6.3143 13.25048,7.97695 -0.81252,0.1756 -1.49516,-0.13564 -0.096,10e-4 0.1004,0.01 -0.68256,-0.0435 0.096,-10e-4 -2.85232,1.66266 -8.95453,4.71916 -13.25048,7.97696 -4.29599,3.2578 -7.75936,7.37456 -7.75936,12.69989 -1e-5,3.17676 1.22622,5.55529 2.58645,6.89568 0.68009,0.6702 1.39455,1.07142 1.93984,1.20369 0.54524,0.13226 0.8392,0.0401 1.05075,-0.17341 0.21151,-0.21355 0.30281,-0.51037 0.17176,-1.06088 -0.13101,-0.55051 -0.52835,-1.27187 -1.1922,-1.95854 -0.45246,-0.46806 -1.0263,-0.91783 -1.70746,-1.31079 -0.29788,-0.64571 -0.53421,-1.4116 -0.65672,-2.29516 1.50207,0.57692 2.73229,1.41517 3.63721,2.35127 0.84247,0.87146 1.41652,1.82728 1.64684,2.79499 0.22335,0.93863 0.0776,1.96595 -0.58094,2.68279 -0.0204,0.0222 -0.0392,0.0447 -0.0606,0.0663 -0.0217,0.0219 -0.0474,0.042 -0.0707,0.0612 -0.70997,0.66375 -1.72303,0.81191 -2.65213,0.58654 -0.95848,-0.23251 -1.90012,-0.81214 -2.76327,-1.66272 -1.7263,-1.70117 -3.12698,-4.53904 -3.12698,-8.18097 -1e-5,-6.10974 3.95918,-10.72007 8.4666,-14.13819 3.91733,-2.97066 8.0695,-5.00235 10.91161,-6.53866 -2.84208,-1.53631 -6.99431,-3.56799 -10.91161,-6.53865 -2.24201,-1.70018 -4.3494,-3.69561 -5.90035,-6.02352 0.66557,-0.0881 1.3094,-0.20402 1.93479,-0.34683 z m -9.69416,0.0765 c 0.66855,0.13603 1.35851,0.24855 2.06613,0.32642 0.87537,1.89264 2.02322,3.52398 3.30885,4.94735 2.84649,3.15148 7.46329,6.03229 10.08812,7.55872 -1.24953,0.18126 -5.45304,-0.45478 -0.0972,-0.003 0.0707,0.006 -1.97362,-0.088 0.0972,0.003 -2.62479,1.52644 -7.24166,4.40725 -10.08812,7.55873 -2.84651,3.15148 -5.03147,7.30424 -5.03147,13.11812 0,13.94349 12.26469,17.00533 16.73114,12.49588 3.8512,-3.88832 2.13123,-13.62951 -7.26935,-16.23954 0.22114,-0.55009 0.48846,-1.08473 0.79816,-1.60662 10.06721,3.10544 12.68596,13.99166 7.78968,19.04984 -0.0209,0.0216 -0.0395,0.0449 -0.0606,0.0663 -5.84111,5.8974 -19.7672,1.26989 -19.7672,-13.76586 1e-5,-6.27403 2.41929,-10.92588 5.49117,-14.3269 2.60515,-2.88426 5.633,-4.86866 8.11299,-6.34995 -2.48,-1.48129 -5.50784,-3.4657 -8.11299,-6.34994 -1.62103,-1.7947 -3.05854,-3.93665 -4.05649,-6.48255 z m 5.83468,0.44373 c 1.11206,1.80598 2.54357,3.37233 4.11206,4.75863 3.59149,3.1743 8.97125,6.06696 11.65919,7.63013 -1.90587,0.19325 -0.0536,-10e-4 -0.0707,0.004 -0.36493,0.11098 -0.56386,-0.12356 0.0707,-0.004 -2.68791,1.56315 -8.0677,4.45584 -11.65919,7.63014 -3.59149,3.17429 -6.45099,7.30756 -6.45099,13.04671 -1e-5,4.69802 2.03826,8.20178 4.47074,10.0222 1.21623,0.91018 2.52148,1.39285 3.70792,1.4281 1.17522,0.0349 2.23269,-0.3363 3.11688,-1.21388 0.008,-0.008 0.0127,-0.0179 0.0202,-0.0255 0.88717,-0.89786 1.26248,-1.96946 1.22756,-3.16732 -0.0349,-1.19789 -0.50795,-2.51569 -1.40942,-3.74366 -1.17907,-1.60602 -3.07209,-3.03915 -5.54168,-3.84057 0.0333,-0.61642 0.12559,-1.21199 0.26774,-1.79533 2.9314,0.88737 5.23534,2.57175 6.69851,4.56482 1.08428,1.47689 1.71545,3.13071 1.76304,4.76373 0.0465,1.59565 -0.49294,3.17204 -1.662,4.40161 -0.0274,0.0289 -0.0527,0.0582 -0.0808,0.0867 -9.7e-4,6.5e-4 -0.004,-6.5e-4 -0.005,0 -0.0209,0.021 -0.0434,0.0428 -0.0657,0.0612 -1.22095,1.19499 -2.7901,1.75073 -4.3798,1.70352 -1.61747,-0.0481 -3.25546,-0.68531 -4.71826,-1.78002 -2.92561,-2.18942 -5.18812,-6.24391 -5.18807,-11.4656 1e-5,-6.34877 3.24009,-11.02011 7.06224,-14.39831 3.23036,-2.8551 6.83612,-4.82374 9.45168,-6.27854 -2.61556,-1.4548 -6.22129,-3.4234 -9.45168,-6.27854 -1.91642,-1.69381 -3.68719,-3.71269 -4.97589,-6.10513 0.29706,0.0109 0.59577,0.0204 0.89919,0.0204 0.38341,-10e-6 0.75912,-0.008 1.13158,-0.0255 z m -42.09559,26.87378 c 6.21414,-10e-6 10.8216,2.44256 14.19015,5.54408 2.8582,2.6316 4.82196,5.69172 6.28933,8.19628 1.46742,-2.50473 3.4308,-5.56437 6.28934,-8.19628 1.77406,-1.63341 3.89421,-3.08313 6.41057,-4.09048 -0.13342,0.67241 -0.23685,1.36434 -0.31321,2.07584 -1.87571,0.88266 -3.49032,2.04272 -4.90012,3.34074 -3.1214,2.87392 -5.96968,7.53526 -7.48152,10.18534 0.004,-0.39579 6.4e-4,-0.0672 0,-0.0982 -0.0931,-3.5757 0.25803,-0.64366 0,0.0982 -1.51185,-2.65006 -4.37022,-7.31142 -7.49164,-10.18534 -3.12139,-2.87394 -7.23446,-5.07486 -12.9929,-5.07486 -13.81037,2e-5 -16.84303,12.38294 -12.3766,16.89239 3.84994,3.88702 13.4956,2.14969 16.08453,-7.33432 0.54372,0.2229 1.07034,0.49388 1.58622,0.80586 -3.07903,10.15862 -13.85435,12.80182 -18.86294,7.85965 -0.0233,-0.0192 -0.0439,-0.0393 -0.0657,-0.0612 -0.0217,-0.0219 -0.0416,-0.0428 -0.0606,-0.0663 -5.74479,-5.93461 -1.14319,-19.89138 13.69508,-19.89139 z m 0,3.18262 c 6.28818,0 10.91491,3.26621 14.26088,7.1252 2.83008,3.26406 4.78245,6.91181 6.22366,9.55297 1.44109,-2.64101 3.38426,-6.28981 6.21355,-9.55297 1.67531,-1.93221 3.67524,-3.71426 6.0418,-5.01365 -0.0105,0.29694 -0.0152,0.59448 -0.0152,0.89766 0,0.38973 0.008,0.77397 0.0252,1.15268 -1.78741,1.12226 -3.34165,2.56472 -4.71321,4.14659 -3.144,3.6261 -6.00405,9.04905 -7.55225,11.76285 -0.20836,-0.89111 0.004,-0.029 0,-0.0472 -0.22035,-1.00105 0.34735,-1.94576 0,0.0472 -1.54822,-2.7138 -4.41839,-8.13672 -7.56236,-11.76285 -3.14399,-3.62608 -7.23778,-6.51315 -12.92218,-6.51315 -4.64537,-1e-5 -8.04727,2.10852 -9.82549,4.60052 -0.88911,1.246 -1.35897,2.58104 -1.40437,3.77426 -0.0454,1.19322 0.30491,2.22867 1.11641,3.05002 0.81351,0.81928 1.83912,1.1781 3.0209,1.13227 1.18184,-0.0458 2.50418,-0.52533 3.73824,-1.423 1.60742,-1.16923 3.05121,-3.03426 3.86454,-5.48798 0.61094,0.0321 1.20513,0.12313 1.78323,0.26522 -0.90442,2.93955 -2.61524,5.22747 -4.60712,6.67637 -1.47729,1.07456 -3.11537,1.69768 -4.71321,1.75962 -1.56879,0.0608 -3.11006,-0.45169 -4.27877,-1.59131 -0.0233,-0.0192 -0.044,-0.0393 -0.0657,-0.0612 -0.0217,-0.0219 -0.0416,-0.0428 -0.0606,-0.0663 -1.12875,-1.17995 -1.63637,-2.73608 -1.57613,-4.32 0.0614,-1.61322 0.67848,-3.26711 1.74282,-4.75864 2.12861,-2.98303 6.0856,-5.34517 11.26523,-5.34517 z m 0,3.50905 c 6.05142,-10e-6 10.61775,3.99734 14.00324,8.54819 2.94093,3.95324 4.95471,8.14204 6.47624,11.01167 1.52155,-2.86957 3.5399,-7.05777 6.4813,-11.01167 1.68252,-2.26168 3.65778,-4.38657 5.96097,-5.95211 0.0865,0.66934 0.19841,1.31909 0.33846,1.94833 -1.81878,1.36675 -3.43471,3.14237 -4.87991,5.08506 -3.2267,4.33739 -6.24898,10.50348 -7.89576,13.38327 -0.61636,-3.45089 0.0173,0.003 0,-0.0816 -0.0861,-0.41922 -0.0703,-1.23316 0,0.0816 -1.64678,-2.87979 -4.67922,-9.04587 -7.90587,-13.38326 -3.2267,-4.3374 -7.30413,-7.83415 -12.57867,-7.83415 -3.14642,-1e-5 -5.50222,1.23807 -6.82986,2.61138 -0.6638,0.68666 -1.05613,1.40803 -1.18714,1.95854 -0.131,0.55051 -0.0449,0.84733 0.1667,1.06087 0.21151,0.21354 0.50546,0.30568 1.05075,0.17341 0.54526,-0.13226 1.2597,-0.53349 1.93984,-1.20368 0.46175,-0.45504 0.90508,-1.03391 1.29323,-1.71882 0.64094,-0.30165 1.40068,-0.54952 2.27831,-0.67325 -0.57143,1.51873 -1.40128,2.76334 -2.32883,3.67736 -0.86315,0.85057 -1.80981,1.43021 -2.76831,1.66272 -0.92967,0.22552 -1.94714,0.0783 -2.65718,-0.58655 -0.0233,-0.0192 -0.044,-0.0393 -0.0657,-0.0612 -0.0217,-0.0219 -0.0416,-0.0428 -0.0606,-0.0663 -0.6595,-0.71693 -0.8045,-1.74362 -0.58095,-2.68279 0.2303,-0.96772 0.80442,-1.92353 1.64685,-2.795 1.68493,-1.74293 4.49576,-3.152 8.10288,-3.15202 z"
         id="path4121-3" />
      <path
         sodipodi:nodetypes="cccccccccccccccccccccccccccccccccccccccccc"
         id="path3411-2"
         d="m 167.27466,322.54788 6e-5,1.75191 c 1.6975,0.0218 1.24956,0.028 1.7337,0.0516 0.4971,0.017 0.93428,0.1275 1.20763,0.30585 0.21659,0.16209 0.30713,0.37344 0.30843,1.27203 0.0117,3.2717 -0.0396,9.05335 0.0516,12.32427 0.0545,1.22745 0.16133,2.47229 0.57135,3.63692 0.79594,2.16018 2.64896,3.89811 4.85601,4.5029 1.55396,0.44023 3.18522,0.52266 4.7911,0.44657 1.3283,-0.0671 2.66515,-0.32004 3.8682,-0.9081 0.99863,-0.48924 1.8952,-1.1948 2.60557,-2.05581 0.57851,-0.70013 1.01746,-1.51785 1.26806,-2.3954 0.32335,-1.08742 0.4425,-2.22432 0.51259,-3.35432 0.1047,-1.92358 0.019,-3.85041 0.0518,-5.77537 0.008,-2.10745 -0.0384,-4.21619 0.0511,-6.32244 0.0202,-1.03554 0.22523,-1.25299 0.44264,-1.41392 0.10539,-0.07 0.27361,-0.24865 1.53727,-0.25245 0.36213,-0.0134 0.67634,0.0296 0.94198,-0.11281 0.202,-0.1214 0.24999,-0.28381 0.25016,-0.69287 -6.5e-4,-0.33017 0.005,-0.67137 2.2e-4,-1.00858 h -9.11722 v 1.7468 c 1.74901,0.0231 1.5365,0.0247 2.11855,0.0763 0.63681,0.0526 0.78574,0.20539 0.89381,0.28513 0.13231,0.10895 0.20096,0.31015 0.19725,1.29059 0.008,0.77923 -6e-5,2.8423 0.004,3.62163 -0.002,2.17767 0.01,4.35539 -0.003,6.53302 -0.0127,1.11642 -0.027,2.23765 -0.16741,3.34591 -0.0984,0.71703 -0.25517,1.4384 -0.5934,2.08083 -0.45624,0.81209 -1.19664,1.43057 -2.00602,1.85887 -1.57633,0.83422 -3.44958,1.0478 -5.18545,0.66546 -1.1103,-0.27526 -2.15472,-0.95477 -2.71921,-1.97284 -0.38695,-0.70777 -0.53472,-1.51767 -0.65278,-2.31119 -0.11089,-0.81925 -0.17268,-1.64647 -0.20045,-2.47333 -0.0419,-1.60897 0.0174,-3.21841 -0.008,-4.82756 -0.002,-2.13937 -0.0304,-4.27976 0.0457,-6.41818 0.0437,-0.9538 0.17615,-1.22355 0.39976,-1.40196 0.34155,-0.28389 0.90372,-0.26103 1.21546,-0.27805 0.86496,-0.0215 1.03022,0.0147 1.27293,-0.0523 0.16943,-0.0412 0.32455,-0.22895 0.31374,-0.73765 -0.002,-0.34385 -3.2e-4,-0.6877 -3.2e-4,-1.03154 z"
         style="font-style:normal;font-variant:normal;font-weight:normal;font-stretch:normal;font-size:3600px;line-height:125%;font-family:'Times New Roman';text-align:start;text-anchor:start;fill:#011171;fill-opacity:1;stroke:none;stroke-width:0.726646px;stroke-linecap:butt;stroke-linejoin:miter;stroke-opacity:1"
         inkscape:connector-curvature="0" />
      <path
         style="fill:#ffffff;fill-opacity:1;stroke:#dd0000;stroke-width:2.49252;stroke-opacity:1"
         d="M 92.665048,392.79038 H 266.31108 v 103.34467 c -0.42763,12.97038 3.29745,46.44237 -21.03542,60.24957 -15.67349,8.78635 -46.60816,6.69429 -65.58136,18.82788 -19.38567,-12.13359 -49.90777,-10.04161 -65.58129,-18.82799 -24.335054,-13.8072 -21.130501,-47.3669 -21.447962,-60.24946 z"
         id="path4238"
         sodipodi:nodetypes="cccccccc"
         inkscape:connector-curvature="0" />
      <path
         style="fill:#dd0000;fill-opacity:1;stroke-width:0.342567"
         d="m 196.76085,393.25231 v 35.5159 h 34.23588 v -35.5159 z m 34.23588,35.5159 v 34.72881 h 34.75674 v -34.72881 z m 0,34.72881 h -34.23588 v 34.72882 h 34.22526 v 34.72883 h 32.4396 c 1.16967,-3.12212 1.99645,-6.32771 2.58286,-9.50976 v -25.21907 h -35.02246 z m -0.0106,69.45765 h -34.22526 v 34.9768 c 11.65434,-3.26055 23.98044,-4.52033 34.22526,-7.36412 z m -34.22526,0 v -34.72883 h -34.23588 v 34.72883 z m -34.23588,0 h -34.23592 v 27.61268 c 10.24483,2.84379 22.58161,4.10357 34.23592,7.36412 z m -34.23592,0 V 498.22584 H 93.319758 v 25.21907 c 0.585699,3.18205 1.40401,6.38764 2.57221,9.50976 z m 0,-34.72883 h 34.23592 v -34.72882 h -34.23592 z m 0,-34.72882 V 428.76821 H 93.011535 v 34.72881 z m 0,-34.72881 h 34.23592 v -35.24635 h -34.23592 z m 34.23592,0 v 34.72881 h 34.23588 v -34.72881 z"
         id="path4240"
         inkscape:connector-curvature="0"
         sodipodi:nodetypes="ccccccccccccccccccccccccccccccccccccccccccccccccccccccccccccc" />
    </g>
  </g>
</svg>
