<?xml version="1.0" encoding="UTF-8"?>
<svg width="600" height="300" version="1.1" xmlns="http://www.w3.org/2000/svg" xmlns:xlink="http://www.w3.org/1999/xlink">
 <rect x="4.8828e-5" y="-6.1035e-6" width="600" height="300" fill="#ff7e00"/>
 <use transform="translate(-92.2,61.24)" xlink:href="#a"/>
 <use transform="translate(92.1,61.24)" xlink:href="#a"/>
 <use transform="translate(0,223.24)" xlink:href="#a"/>
 <path d="m409.4 166.18 23.607 2.2877 9.6046-2.2877s6.8782-8.0243 7.4197-12.826c0.2493-2.2122-1.9581-4.1903-2.0288-6.4132-0.038-1.1501 0.8427-2.2189 0.8371-3.3672-0.011-1.9879-0.2428-4.1694-1.5039-5.7962-1.003-1.2942-3.1703-2.8649-4.8661-3.2388-4.8492-1.0689-6.5667 0.72519-10.72 3.2388-5.3898-6.0041-14.101-7.1722-22.01-7.7055-0.7592-0.049-1.5249-0.0544-2.2841 0-7.622 0.53996-14.839 1.3388-20.06 7.7055-4.1528-2.5135-7.8198-4.3075-12.669-3.2388-1.6958 0.37394-3.8632 1.9446-4.8662 3.2388-1.2609 1.6268-1.5083 3.8085-1.5181 5.7962-0.01 1.1484 0.8856 2.2161 0.8513 3.3672-0.066 2.2229-2.2782 4.2008-2.0288 6.4132 0.5416 4.8019 7.4198 12.826 7.4198 12.826l9.6046 2.2877 23.607-2.2877z" fill="#cf142b" stroke="#000" stroke-width=".97479"/>
 <path d="m440.3 113.09c2.6037-0.12302 5.3831 0.28413 8.2565 1.5112 6.9982 2.9888 9.7261 9.709 9.4728 16.144-0.2531 6.4353-2.9199 12.976-6.303 18.024l-4.9022-3.2804c2.8369-4.2332 5.1152-10.074 5.3077-14.965 0.1927-4.8911-1.1139-8.4618-5.8975-10.505-4.211-1.7985-7.3393-1.2315-11.094 0.22099-3.7553 1.4527-7.8463 3.9948-12.901 5.5658-7.9503 2.471-12.606 1.8061-12.606 1.8061v-5.8974s4.1456 0.53179 10.837-1.5481c4.1371-1.2858 8.0591-3.6879 12.532-5.4183 2.2365-0.86513 4.6944-1.5358 7.2982-1.6586z" fill="#e1bb16" stroke="#000" stroke-width=".97479"/>
 <g fill="#fff" stroke="#000" stroke-width=".97479">
  <circle cx="418" cy="117.58" r="3.1967"/>
  <circle cx="424.1" cy="115.31" r="3.1967"/>
  <circle cx="430.1" cy="112.46" r="3.1967"/>
  <circle cx="436.5" cy="110.4" r="3.1967"/>
  <circle cx="443" cy="110.01" r="3.1967"/>
  <circle cx="449.5" cy="111.38" r="3.1967"/>
  <circle cx="454.9" cy="114.92" r="3.1967"/>
  <circle cx="458.9" cy="120.13" r="3.1967"/>
  <circle cx="461" cy="126.52" r="3.1967"/>
  <circle cx="461" cy="133" r="3.1967"/>
  <circle cx="459.6" cy="139.39" r="3.1967"/>
  <circle cx="457.1" cy="145.87" r="3.1967"/>
 </g>
 <path d="m376.9 113.09c-2.6036-0.12302-5.383 0.28413-8.2564 1.5112-6.9982 2.9888-9.7262 9.709-9.4728 16.144 0.2531 6.4353 2.9199 12.976 6.303 18.024l4.9021-3.2804c-2.8368-4.2332-5.1151-10.074-5.3077-14.965-0.1926-4.8911 1.1139-8.4618 5.8975-10.505 4.211-1.7985 7.3393-1.2315 11.095 0.22099 3.7552 1.4527 7.8463 3.9948 12.901 5.5658 7.9502 2.471 12.606 1.8061 12.606 1.8061v-5.8974s-4.1455 0.53179-10.837-1.5481c-4.1371-1.2858-8.0591-3.6879-12.532-5.4183-2.2364-0.86513-4.6943-1.5358-7.2982-1.6586z" fill="#e1bb16" stroke="#000" stroke-width=".97479"/>
 <g fill="#fff" stroke="#000" stroke-width=".97479">
  <circle transform="scale(-1,1)" cx="-399.2" cy="117.58" r="3.1967"/>
  <circle transform="scale(-1,1)" cx="-393.1" cy="115.31" r="3.1967"/>
  <circle transform="scale(-1,1)" cx="-387.1" cy="112.46" r="3.1967"/>
  <circle transform="scale(-1,1)" cx="-380.7" cy="110.4" r="3.1967"/>
  <circle transform="scale(-1,1)" cx="-374.2" cy="110.01" r="3.1967"/>
  <circle transform="scale(-1,1)" cx="-367.7" cy="111.38" r="3.1967"/>
  <circle transform="scale(-1,1)" cx="-362.3" cy="114.92" r="3.1967"/>
  <circle transform="scale(-1,1)" cx="-358.3" cy="120.13" r="3.1967"/>
  <circle transform="scale(-1,1)" cx="-356.2" cy="126.52" r="3.1967"/>
  <circle transform="scale(-1,1)" cx="-356.2" cy="133" r="3.1967"/>
  <circle transform="scale(-1,1)" cx="-357.6" cy="139.39" r="3.1967"/>
  <circle transform="scale(-1,1)" cx="-360.1" cy="145.87" r="3.1967"/>
 </g>
 <path d="m406.8 93.872c-0.5512-2.6031-2.8925-4.6328-5.1749-6.6813 4.6373-0.43763 9.2745-0.42456 13.912 0-2.0944 2.1358-5.0861 4.0225-5.2969 6.6813 2.7006-1.1705 4.4407-3.541 6.5195-5.4886-0.4921 3.9198-0.153 7.8395 0 11.759-2.0655-1.6576-3.8268-3.7588-6.5195-4.5023 0.8006 2.4318 2.7723 4.301 5.3483 5.8796h-14.117c2.3362-1.6339 4.4561-3.4126 5.3289-5.8796-2.5653 0.82665-4.4091 2.9673-6.4681 4.7162 0.3625-3.9554 0.3211-7.9108 0-11.866 1.9833 2.1538 3.8324 4.5867 6.4681 5.3818z" fill="#e1bb16" stroke="#000" stroke-width=".97479"/>
 <circle transform="scale(-1,1)" cx="-408.6" cy="94.355" r="3.0778" fill="#fff" stroke="#000" stroke-width=".97479"/>
 <g fill="#e1bb16" stroke="#000">
  <ellipse cx="408.6" cy="110.07" rx="8.3574" ry="8.3577" stroke-width=".97477"/>
  <path d="m408.3 100.86c-0.7704 0-1.3881 0.61758-1.3881 1.388v5.5482h-5.5725c-0.7705 0-1.4138 0.61758-1.4138 1.3881v0.62079c0 0.77042 0.6433 1.388 1.4138 1.388h14.626c0.7704 0 1.388-0.61758 1.388-1.388v-0.62079c0-0.77042-0.6175-1.3881-1.388-1.3881h-5.5726v-5.5482c0-0.77042-0.6176-1.388-1.388-1.388z" stroke-width=".97479"/>
  <rect x="402.5" y="118.83" width="12.142" height="20.609" ry="2.7053" stroke-width=".97479"/>
  <rect x="401.7" y="117.85" width="3.3374" height="22.092" ry="2.1084" stroke-width=".97476"/>
  <rect x="412.2" y="117.85" width="3.3374" height="22.092" ry="2.1084" stroke-width=".97476"/>
 </g>
 <g fill="#fff" stroke="#000" stroke-width=".97479">
  <circle transform="scale(-1,1)" cx="-408.6" cy="118.95" r="3.1967"/>
  <circle transform="scale(-1,1)" cx="-408.6" cy="124.88" r="3.1967"/>
  <circle transform="scale(-1,1)" cx="-408.6" cy="130.81" r="3.1967"/>
  <circle transform="scale(-1,1)" cx="-408.6" cy="136.79" r="3.1967"/>
 </g>
 <g stroke="#000">
  <path d="m370.1 158.56c8.9223 7.1217 15.666 7.7088 19.252-1.1795 6.4174 4.0625 12.835 4.8751 19.252-1.1795 6.4174 6.471 12.835 5.9072 19.252 1.1795 2.3111 9.4271 8.9309 9.3749 19.252 1.1795l-4.5201 20.986-67.816 0.20031z" fill="#e1bb16" stroke-width=".97479"/>
  <rect x="403.2" y="164.95" width="10.755" height="5.7991" ry="1.8502" fill="#0c3fa0" stroke-width=".97479"/>
  <ellipse transform="matrix(.9901 -.14034 .23198 .97272 0 0)" cx="342.41" cy="223.5" rx="5.0943" ry="2.9277" fill="#217821" stroke-width=".97692"/>
  <path d="m373.8 174.06 5.2148-3.6587-7.8872-2.8102s-1.2064 1.0766-1.434 2.0073c-0.3152 1.2879-0.3081 2.1782 0.5736 3.2117 0.7862 0.9212 3.5329 1.25 3.5329 1.25z" fill="#cf142b" stroke-width=".97479"/>
  <ellipse transform="matrix(-.9901 -.14034 -.23198 .97272 0 0)" cx="-455.98" cy="108.32" rx="5.0943" ry="2.9277" fill="#217821" stroke-width=".97692"/>
  <path d="m443.4 174.06-5.2149-3.6587 7.8874-2.8102s1.2064 1.0766 1.434 2.0073c0.3152 1.2879 0.3081 2.1782-0.5736 3.2117-0.7862 0.9212-3.5329 1.25-3.5329 1.25z" fill="#cf142b" stroke-width=".97479"/>
  <path d="m400.3 162.79c-2.9589 0.40443-6.0029-0.7222-8.6024-3.1334-2.2272 3.9727-6.0579 6.0195-10.024 6.2304-3.9072 0.20793-7.9454-1.3667-10.71-4.6373-0.8425-2.1137-1.6952-4.1076-2.4713-5.6666-1.5112-3.0357-4.6457-8.6804-4.6457-8.6804 3.1501-2.0057 5.8881-3.6181 9.6331-3.8524-1.6089 4.0034-1.4969 6.8025-1.529 9.7025 3.3711-0.54214 4.9193-2.9304 6.728-4.5658l2.1407 8.4184c-3.3748-1.3994-5.6245-0.69912-7.7984 0.14261 0 0 1.3932 2.541 2.4466 3.4244 1.2048 1.0102 2.5341 1.588 4.1285 1.8547 1.5084 0.25256 3.2087 0.33911 4.5872-0.28522 2.9036-1.3159 4.3836-4.1854 3.9755-3.995 0 0 0.2913-2.5177-0.4588-3.4244-0.5615-0.67876-1.7145-1.2299-2.5995-0.99876-1.3952 0.36415-2.1407 3.2817-2.1407 3.2817s-1.3411-2.4837-1.6819-3.8524c-0.3005-1.2054-0.7477-2.6037-0.153-3.7097 0.4436-0.8254 1.4735-1.4012 2.4465-1.5695 1.2885-0.22317 3.6699 0.8561 3.6699 0.8561s-0.7109-2.2367-0.9175-3.4244c-0.1061-0.61028 0.054-1.4263 0.3059-1.9975 0.5793-1.3049 1.5021-1.9947 2.0895-2.7412 0.7854 0.73074 1.753 0.99288 2.6583 2.1249 0.3962 0.49533 0.7647 1.2502 0.8227 1.8662 0.1126 1.1986 0.011 3.5298 0.011 3.5298s2.0241-1.5922 3.3317-1.6716c0.9876-0.0599 2.1374 0.26181 2.785 0.96012 0.8679 0.93573 0.8025 2.3937 0.8291 3.631 0.033 1.4049-0.6154 4.12-0.6154 4.12s-1.4913-2.6568-2.9396-2.6899c-0.9185-0.0218-1.8912 0.77772-2.2565 1.5645-0.4883 1.051 0.4572 3.4245 0.4572 3.4245 5.7215 4.1678 11.642-0.10723 12.856-4.273v-1.5695c-2.3956 0.30754-3.4149 0.70053-5.8105 3.2817l-0.7645-10.416c2.2935 1.935 4.2814 2.6305 6.575 2.283-0.2155-3.0262-1.9393-4.3091-4.5872-6.957 4.3156-1.079 8.9085-1.3474 13.083 0-2.6479 2.6479-4.3719 3.9308-4.5872 6.957 2.2936 0.34782 4.2813-0.34782 6.5751-2.283l-0.7646 10.416c-2.3956-2.5812-3.4149-2.9739-5.8105-3.2817v1.5695c1.2143 4.166 7.1346 8.4409 12.856 4.273 0 0 0.9456-2.3735 0.4572-3.4245-0.3652-0.78675-1.338-1.5854-2.2566-1.5645-1.4483 0.0327-2.9395 2.6899-2.9395 2.6899s-0.6456-2.7151-0.6154-4.12c0.027-1.2372-0.038-2.6953 0.8291-3.631 0.6476-0.6983 1.7975-1.0201 2.785-0.96012 1.3077 0.0795 3.3316 1.6716 3.3316 1.6716s-0.1-2.3311 0.011-3.5298c0.058-0.61595 0.4268-1.3706 0.8228-1.8662 0.9052-1.132 1.8727-1.3942 2.6582-2.1249 0.5874 0.74642 1.5103 1.4362 2.0895 2.7412 0.2537 0.57126 0.4121 1.3872 0.3059 1.9975-0.2068 1.1877-0.9174 3.4244-0.9174 3.4244s2.3813-1.0791 3.6698-0.8561c0.9731 0.16819 2.0027 0.74413 2.4466 1.5695 0.5947 1.1061 0.1475 2.5043-0.153 3.7097-0.3407 1.3688-1.6819 3.8524-1.6819 3.8524s-0.7455-2.9173-2.1407-3.2817c-0.8849-0.23133-2.038 0.32006-2.5995 0.99876-0.75 0.90672-0.4589 3.4244-0.4589 3.4244-0.4082-0.19051 1.072 2.6792 3.9757 3.995 1.3785 0.62465 3.0789 0.53778 4.5872 0.28522 1.5944-0.26671 2.9236-0.84456 4.1285-1.8547 1.0533-0.88331 2.4465-3.4244 2.4465-3.4244-2.1739-0.84178-4.4236-1.542-7.7983-0.14261l2.1406-8.4184c1.8086 1.6354 3.3568 4.024 6.728 4.5658-0.033-2.9 0.08-5.699-1.529-9.7025 3.6343 0.0109 6.6204 1.9302 9.6331 3.8524 0 0-3.1345 5.6447-4.6457 8.6804-0.7761 1.5591-1.6288 3.5528-2.4713 5.6666-2.7646 3.2708-6.8029 4.8452-10.71 4.6373-3.9657-0.21065-7.7962-2.2578-10.024-6.2304-2.5996 2.4113-5.6437 3.5378-8.6024 3.1334-2.9285-0.40007-5.7733-2.2997-8.3156-5.9374-2.5421 3.6375-5.3871 5.5371-8.3154 5.9374z" fill="#e1bb16" stroke-width=".97479"/>
 </g>
 <g fill="#fff" stroke="#000" stroke-width=".97479">
  <circle transform="scale(-1,1)" cx="-408.6" cy="148.54" r="3.1967"/>
  <circle transform="scale(-1,1)" cx="-370" cy="155.25" r="3.1967"/>
  <circle transform="scale(-1,1)" cx="-447.2" cy="155.25" r="3.1967"/>
 </g>
 <g stroke="#000">
  <g stroke-width=".97479">
   <rect transform="rotate(-8.1181)" x="360.21" y="207.4" width="9.1646" height="3.9278" ry="1.964" fill="#e1bb16"/>
   <rect transform="matrix(-.98998 -.14121 -.14121 .98998 0 0)" x="-448.81" y="92.006" width="9.1646" height="3.9278" ry="1.964" fill="#e1bb16"/>
   <ellipse cx="408.6" cy="184.81" rx="36.053" ry="6.4923" fill="#ccc"/>
  </g>
  <path d="m374.3 186.36c23.701-4.8523 46.537-4.389 68.905 0.0218 3.8515 1.1828 4.7248-7.0237 0.962-8.7709-23.325-6.456-64.724-2.748-71.245 0-1.9626-0.32713-4.6615 8.5213 1.3797 8.748z" fill="#fff" stroke-width=".97481"/>
 </g>
 <g stroke-width=".33989">
  <path d="m404.4 180.51s3.0293-1.1607 4.6267-1.4458c1.6441-0.29338 5.0142-0.25637 5.0142-0.25637l-1.8835-0.8795s-1.8044-0.258-3.3312-0.6965c-0.8727-0.25038-1.891-0.69155-2.7626-0.72737-1.1089-0.0435-2.6872 0.36088-2.6872 0.36088l2.9915 0.69901s-0.8686 0.19704-1.5237 0.41313c-0.4681 0.15404-1.7456 0.80069-1.7456 0.80069l3.4073 0.0272s-0.9887 0.43545-1.3854 0.77499c-0.3021 0.25855-0.7206 0.93023-0.7206 0.93023z"/>
  <path d="m390.5 181.3s2.8456-1.5126 4.3908-1.986c1.5904-0.48716 4.9376-0.85278 4.9376-0.85278l-1.9884-0.64762s-1.825-0.0381-3.3993-0.29338c-0.8999-0.14424-1.9703-0.46049-2.8396-0.39191-1.1061 0.0871-2.6157 0.67854-2.6157 0.67854l3.0627 0.33639s-0.8345 0.29937-1.4547 0.59145c-0.4431 0.20847-1.6215 1.0024-1.6215 1.0024l3.3831-0.37939s-0.921 0.54965-1.2679 0.93388c-0.2639 0.29284-0.5872 1.0086-0.5872 1.0086z"/>
  <path d="m418.5 181.17s3.0991-0.98749 4.7121-1.1819c1.6601-0.19976 5.0214 0.0272 5.0214 0.0272l-1.8229-0.98423s-1.7844-0.35925-3.28-0.88331c-0.8548-0.29937-1.8427-0.79709-2.7102-0.88212-1.104-0.10832-2.7058 0.20847-2.7058 0.20847l2.9407 0.86666s-0.8799 0.14805-1.5478 0.32604c-0.4774 0.12737-1.7943 0.70064-1.7943 0.70064l3.3994 0.21936s-1.0152 0.37884-1.4332 0.69531c-0.3184 0.24113-0.7797 0.88788-0.7797 0.88788v-5e-5z"/>
  <path d="m376.8 182.86s2.6364-1.8126 4.1118-2.4512c1.5185-0.65726 4.7973-1.3854 4.7973-1.3854l-2.056-0.4262s-1.8174 0.15894-3.4128 0.0795c-0.9118-0.0435-2.0144-0.24222-2.8691-0.0795-1.0876 0.20738-2.5128 0.95919-2.5128 0.95919h3.084s-0.7913 0.3881-1.3707 0.74604c-0.4142 0.25583-1.4848 1.1723-1.4848 1.1723l3.3124-0.74604s-0.8458 0.64632-1.1422 1.0658c-0.2259 0.31951-0.4566 1.0657-0.4566 1.0657z"/>
  <path d="m432.5 182.61s3.192-0.68284 4.8181-0.72034c1.6733-0.0381 4.9919 0.51166 4.9919 0.51166l-1.7039-1.155s-1.735-0.53016-3.1643-1.1955c-0.817-0.38048-1.7443-0.97078-2.5979-1.1391-1.086-0.21392-2.7143-0.0544-2.7143-0.0544l2.8288 1.1461s-0.8915 0.062-1.5757 0.17472c-0.4888 0.0806-1.8624 0.52363-1.8624 0.52363l3.3567 0.54665s-1.0517 0.27869-1.5027 0.55313c-0.3434 0.20902-0.8739 0.80771-0.8739 0.80771z"/>
 </g>
 <path d="m409.7 232.98c3.3447-7.0872 7.3868-14.326 14.398-18.224 7.0186-3.8666 15.344-2.2042 22.626-0.0576 11.219 3.1669 23.002 1.8895 34.489 1.648 6.6283-0.27402 13.254-0.60631 19.88-0.93616 0.8777 3.6707 1.7555 7.3413 2.6331 11.012-14.377 0.56277-28.786 1.0677-43.172 0.93737-9.9646-0.27595-16.302-4.0667-24.728-3.7467-7.0159 0.4328-11.024 5.0861-14.051 9.3898zm-12.484-21.993c-5.9193-3.7903-13.235-4.1438-19.992-3.0112-4.1109 0.87866-8.2437 1.6651-12.458 1.8892-15.728 1.7032-31.55 0.47506-47.302-0.15815 0.8263-3.3876 1.6525-6.7751 2.4788-10.163 11.813 0.87316 23.734 2.1971 35.548 0.61399 10.52-1.205 20.556-4.8549 31.277-3.7706 8.8347 0.74005 16.431 5.8642 21.781 12.587 5.3494-6.7228 13.035-11.847 21.869-12.587 10.723-1.0842 20.758 2.5656 31.277 3.7706 11.813 1.5831 23.734 0.2593 35.548-0.61399 0.8263 3.3876 1.6525 6.775 2.4788 10.163-15.751 0.63384-31.574 1.8615-47.302 0.15815-4.2145-0.22408-8.3473-1.0106-12.458-1.8892-6.7572-1.1326-14.073-0.77904-19.992 3.0112-5.8592 3.2566-9.1371 9.4282-11.422 15.492-2.2852-6.0641-5.4736-12.236-11.333-15.492zm10.272 21.993c-3.3447-7.0872-7.3869-14.326-14.398-18.224-7.0186-3.8666-15.344-2.2042-22.626-0.0576-11.219 3.1669-23.002 1.8895-34.489 1.648-6.6283-0.27402-13.254-0.60631-19.88-0.93616-0.8776 3.6707-1.7554 7.3413-2.6331 11.012 14.377 0.56277 28.786 1.0677 43.172 0.93737 9.9646-0.27595 16.302-4.0667 24.728-3.7467 7.0159 0.4328 11.024 5.0861 14.051 9.3898z" fill="#fff" stroke-width="1.694"/>
 <path d="m508.3 232.69h-75.934c-3.3962 0-6.133 2.6051-6.4054 5.9289h-34.831c-0.2721-3.3237-3.0092-5.9289-6.4054-5.9289h-75.934l0.5724 12.916h69.261c2.8699 0 5.2618 1.8669 6.1076 4.4467h47.629c0.8458-2.5797 3.2377-4.4467 6.1075-4.4467h69.261z" fill="#4d487b" stroke-width="1.694"/>
 <path id="a" d="m390.2 49.43 11.263 8.4166-4.5384 13.307 11.499-8.1052 11.263 8.4165-4.1561-13.426 11.499-8.1052-14.068-0.19232-4.1562-13.426-4.5383 13.307z" fill="#c8102e" stroke="#fff" stroke-linecap="square" stroke-width="2.4977"/>
 <rect x="-3.6" y="-2.65" width="203.54" height="152.65" fill="#fff"/>
 <path d="m80.5 0v55.5h-80.5v39h80.5v55.5h39v-55.5h80.5v-39h-80.5v-55.5z" fill="#c8102e"/>
</svg>
