<?xml version="1.0" encoding="UTF-8" standalone="no"?>
<svg
   xmlns:dc="http://purl.org/dc/elements/1.1/"
   xmlns:cc="http://creativecommons.org/ns#"
   xmlns:rdf="http://www.w3.org/1999/02/22-rdf-syntax-ns#"
   xmlns:svg="http://www.w3.org/2000/svg"
   xmlns="http://www.w3.org/2000/svg"
   xmlns:xlink="http://www.w3.org/1999/xlink"
   xmlns:sodipodi="http://sodipodi.sourceforge.net/DTD/sodipodi-0.dtd"
   xmlns:inkscape="http://www.inkscape.org/namespaces/inkscape"
   version="1.1"
   preserveAspectRatio="xMidYMid meet"
   zoomAndPan="magnify"
   id="Flag_of_New_Zealand"
   viewBox="-15 -7.5 63.75 33.75"
   width="2550"
   height="1350"
   inkscape:version="0.48.2 r9819"
   sodipodi:docname="AJAX.svg">
  <metadata
     id="metadata29">
    <rdf:RDF>
      <cc:Work
         rdf:about="">
        <dc:format>image/svg+xml</dc:format>
        <dc:type
           rdf:resource="http://purl.org/dc/dcmitype/StillImage" />
      </cc:Work>
    </rdf:RDF>
  </metadata>
  <sodipodi:namedview
     pagecolor="#ffffff"
     bordercolor="#666666"
     borderopacity="1"
     objecttolerance="10"
     gridtolerance="10"
     guidetolerance="10"
     inkscape:pageopacity="0"
     inkscape:pageshadow="2"
     inkscape:window-width="1280"
     inkscape:window-height="1004"
     id="namedview27"
     showgrid="false"
     fit-margin-top="0"
     fit-margin-left="0"
     fit-margin-right="0"
     fit-margin-bottom="0"
     inkscape:zoom="0.26833333"
     inkscape:cx="1499.7862"
     inkscape:cy="643.06672"
     inkscape:window-x="-8"
     inkscape:window-y="-8"
     inkscape:window-maximized="1"
     inkscape:current-layer="Flag_of_New_Zealand" />
  <defs
     id="defs3">
    <clipPath
       id="border">
      <rect
         x="-15"
         y="-7.5"
         width="30"
         height="15"
         id="rect6" />
    </clipPath>
    <path
       id="star12"
       d="m 0,-0.8746205 0.1963645,0.6043479 0.6354491,0 L 0.3177245,0.103235 0.5140891,0.7075829 0,0.3340753 -0.5140891,0.7075829 -0.3177245,0.103235 l -0.5140891,-0.3735076 0.6354491,0 z"
       inkscape:connector-curvature="0"
       style="fill:#c60c30;stroke:#ffffff;stroke-width:0.125" />
    <clipPath
       id="border-1">
      <rect
         x="-15"
         y="-7.5"
         width="30"
         height="15"
         id="rect6-7" />
    </clipPath>
  </defs>
  <!--The above line is the ensign field color: #C60C30 red and #002776 blue-->
  <path
     style="fill:#002776;fill-opacity:1"
     d="m -15,-7.5 0,33.75 63.75,0 0,-33.75 z"
     id="rect3006"
     inkscape:connector-curvature="0"
     sodipodi:nodetypes="ccccc" />
  <path
     style="opacity:0.98999999;fill:#ffffff;fill-opacity:1;stroke:none"
     d="m 15,-7.5 0,15 -30,0 0,3.75 30,0 0,15 3.75,0 0,-15 30,0 0,-3.75 -30,0 0,-15 z"
     id="rect3051"
     inkscape:connector-curvature="0"
     sodipodi:nodetypes="ccccccccccccc" />
  <rect
     style="fill:#002776"
     x="-15"
     y="-7.5"
     width="30"
     height="15"
     id="rect9" />
  <g
     id="canton"
     transform="matrix(0.5,0,0,0.5,-7.5,-3.75)">
    <g
       clip-path="url(#border-1)"
       id="g12">
      <circle
         style="fill:#002776"
         sodipodi:ry="20"
         sodipodi:rx="20"
         sodipodi:cy="0"
         sodipodi:cx="0"
         cy="0"
         cx="0"
         r="20"
         id="circle14"
         d="m 20,0 c 0,11.045695 -8.954305,20 -20,20 -11.045695,0 -20,-8.954305 -20,-20 0,-11.045695 8.954305,-20 20,-20 11.045695,0 20,8.954305 20,20 z" />
      <path
         style="stroke:#ffffff;stroke-width:3"
         inkscape:connector-curvature="0"
         d="m -20,-10 40,20 m -40,0 40,-20"
         id="diags_white" />
      <path
         style="stroke:#c60c30;stroke-width:2"
         inkscape:connector-curvature="0"
         d="m -20,-10 40,20 m -40,0 40,-20"
         id="diags_red" />
      <path
         style="fill:#ffffff;stroke:none"
         inkscape:connector-curvature="0"
         d="M 0,0 20,10 H 17 L -3,0 m 3,0 20,-10 h 3 L 3,0 M 0,0 -20,10 h -3 L -3,0 m 3,0 -20,-10 h 3 L 3,0"
         id="eraser_white" />
      <!--I think the above two lines give the simplest way to make the diagonals-->
      <path
         style="stroke:#ffffff;stroke-width:5"
         inkscape:connector-curvature="0"
         d="M -20,0 H 20 M 0,-10 v 20"
         id="cross_white" />
      <path
         style="stroke:#c60c30;stroke-width:3"
         inkscape:connector-curvature="0"
         d="M -20,0 H 20 M 0,-10 v 20"
         id="cross_red" />
    </g>
  </g>
  <path
     style="fill:#c60c30;stroke:#ffffff;stroke-width:0.125"
     inkscape:connector-curvature="0"
     id="star14"
     d="m 7.5,3.493947 0.225873,0.695165 0.730941,0 L 7.86547,4.618748 8.091343,5.313914 7.5,4.884278 6.908657,5.313914 7.13453,4.618748 6.543186,4.189112 l 0.730941,0 z" />
  <use
     height="1052.3622"
     width="744.09448"
     y="0"
     x="0"
     transform="translate(7.5,-4.5)"
     xlink:href="#star12"
     id="use22" />
  <use
     height="1052.3622"
     width="744.09448"
     y="0"
     x="0"
     transform="translate(4.034062,-1.012894)"
     xlink:href="#star12"
     id="use24" />
  <path
     style="fill:#c60c30;stroke:#ffffff;stroke-width:0.125"
     inkscape:connector-curvature="0"
     id="star10"
     d="m 10.4708,-2.660707 0.16686,0.51353 0.53996,0 -0.43684,0.317379 0.16686,0.51353 -0.43684,-0.317379 -0.43683,0.317379 0.16686,-0.51353 -0.43684,-0.317379 0.53996,0 z" />
</svg>
