<?xml version="1.0" encoding="UTF-8"?>
<svg version="1.0" viewBox="0 0 700 350" xmlns="http://www.w3.org/2000/svg">
<g transform="scale(.78125)">
<path d="m0 224v-224h896v448h-896v-224z" fill="#fdfdfd"/>
<path d="m5.5967e-17 430.86 5.5967e-17 -17.138 7.75 0.69806c13.198 1.1888 35.17 5.3227 48.25 9.0778 6.875 1.9738 19.025 4.7659 27 6.2046 27.164 4.9005 52.85 3.0256 85-6.2046 14.733-4.2299 37.651-8.3502 51-9.1691 7.0891-0.4349 13.41-0.01722 24.908 1.6459 14.8 2.1407 19.599 3.186 45.092 9.8228 6.325 1.6466 18.356 3.9753 26.735 5.1749 14.892 2.132 15.544 2.1437 29 0.52092 19.415-2.3414 32.82-4.8945 47.265-9.0015 13.36-3.7986 35.681-8.1458 36.683-7.1442 0.33316 0.33316-0.13422 2.5433-1.0386 4.9115-0.9044 2.3682-1.6444 5.5282-1.6444 7.0223 0 2.5677 0.25594 2.7166 4.6713 2.7166 2.8762 0 5.3498-0.61407 6.437-1.598 1.9278-1.7446 3.8918-1.143 3.8918 1.1922 0 0.81189 0.72675 2.5853 1.615 3.941 1.2429 1.8969 2.482 2.4648 5.3776 2.4648 4.1268 0 5.4924-1.0998 6.5378-5.265 0.90519-3.6066 2.1929-4.2954 4.3614-2.3329 1.0872 0.98389 3.5608 1.598 6.437 1.598 4.4153 0 4.6713-0.14884 4.6713-2.7166 0-1.4941-0.73997-4.6541-1.6444-7.0223-0.90441-2.3682-1.3718-4.5783-1.0386-4.9115 1.0016-1.0016 23.323 3.3457 36.683 7.1442 14.445 4.107 27.85 6.6601 47.265 9.0015 13.457 1.6229 14.104 1.6112 28.908-0.52039 14.546-2.0945 19.347-3.1413 44.826-9.7746 17.412-4.5331 40.458-7.5776 52-6.8695 13.349 0.81894 36.267 4.9392 51 9.1691 6.875 1.9738 19.025 4.7659 27 6.2046 27.164 4.9005 52.85 3.0256 85-6.2046 13.08-3.7551 35.052-7.889 48.25-9.0778l7.75-0.69806v34.276h-896l5.5967e-17 -17.138zm443.77 1.8879c-0.80125-1.2375-1.7616-3.4875-2.1341-5-0.80733-3.2782-1.5531-3.3921-4.912-0.75-1.4708 1.157-4.0568 2-6.1349 2-4.3027 0-4.5028-1.1016-1.5918-8.7607 1.8893-4.9708 1.9995-7.6851 1.9995-49.25v-43.989h-43.989c-41.565 0-44.279 0.1102-49.25 1.9995-7.6376 2.9029-8.7607 2.7054-8.7607-1.54 0-2.069 0.90559-4.7654 2.179-6.4877 1.1984-1.621 1.9859-3.1194 1.75-3.3298-0.23594-0.21044-2.5665-1.3157-5.179-2.4561-4.2051-1.8356-4.75-2.4305-4.75-5.1859s0.54487-3.3503 4.75-5.1859c2.6125-1.1404 4.943-2.2456 5.179-2.4561 0.23593-0.21045-0.55157-1.7089-1.75-3.3298-1.2734-1.7223-2.179-4.4187-2.179-6.4877 0-4.2454 1.1232-4.4429 8.7607-1.54 4.9708 1.8893 7.6851 1.9995 49.25 1.9995h43.989v-43.989c0-41.565-0.1102-44.279-1.9995-49.25-2.9111-7.6591-2.7109-8.7607 1.5918-8.7607 2.0781 0 4.664 0.84303 6.1349 2 3.3589 2.6421 4.1047 2.5282 4.912-0.75 1.166-4.7345 3.3704-7.25 6.3534-7.25 3.2267 0 4.3066 1.1335 5.9547 6.25 1.3912 4.3192 1.8626 4.474 5.3256 1.75 1.4708-1.157 4.0568-2 6.1349-2 4.3027 0 4.5028 1.1016 1.5918 8.7607-1.8893 4.9708-1.9995 7.6851-1.9995 49.25v43.989h43.989c41.565 0 44.279-0.1102 49.25-1.9995 7.6376-2.9029 8.7607-2.7054 8.7607 1.54 0 2.069-0.90559 4.7654-2.179 6.4877-1.1984 1.621-1.9859 3.1194-1.75 3.3298 0.23594 0.21044 2.5665 1.3157 5.179 2.4561 4.2051 1.8356 4.75 2.4305 4.75 5.1859s-0.54487 3.3503-4.75 5.1859c-2.6125 1.1404-4.943 2.2456-5.179 2.4561-0.23593 0.21045 0.55157 1.7089 1.75 3.3298 1.2734 1.7223 2.179 4.4187 2.179 6.4877 0 4.2454-1.1232 4.4429-8.7607 1.54-4.9708-1.8893-7.6851-1.9995-49.25-1.9995h-43.989v43.989c0 41.565 0.1102 44.279 1.9995 49.25 2.9111 7.6591 2.7109 8.7607-1.5918 8.7607-2.0781 0-4.664-0.84303-6.1349-2-3.4631-2.724-3.9344-2.5692-5.3256 1.75-0.66433 2.0625-1.6543 4.3125-2.2 5-1.6556 2.0859-6.3578 1.4962-7.974-1zm6.974 0c0.54567-0.6875 1.5336-2.9312 2.1954-4.9861 0.66181-2.0548 1.5671-3.9609 2.0118-4.2358 0.44467-0.27482 2.4568 0.61891 4.4714 1.9861 3.4533 2.3435 8.5747 3.3803 8.5736 1.7358-2.8e-4 -0.4125-0.90028-3.1173-2-6.0107-1.8918-4.9772-1.9995-7.6852-1.9995-50.25v-44.989h44.989c42.565 0 45.273 0.10775 50.25 1.9995 2.8934 1.0997 5.5982 1.9997 6.0107 2 1.1299 7.6e-4 0.90102-5.7881-0.25711-6.5039-0.55391-0.34233-1.6907-1.9444-2.5262-3.56l-1.5191-2.9376 5.5262-2.444c7.5667-3.3464 7.5667-5.7616 0-9.108l-5.5262-2.444 1.5191-2.9376c0.8355-1.6157 1.9723-3.2177 2.5262-3.56 1.1581-0.71577 1.387-6.5047 0.25711-6.5039-0.4125 2.8e-4 -3.1173 0.90028-6.0107 2-4.9772 1.8918-7.6852 1.9995-50.25 1.9995h-44.989v-44.989c0-42.565 0.10775-45.273 1.9995-50.25 1.0997-2.8934 1.9997-5.5982 2-6.0107 0.0011-1.6446-5.1203-0.60774-8.5736 1.7358-2.0146 1.3672-4.0268 2.2609-4.4714 1.9861-0.44468-0.27482-1.35-2.1809-2.0118-4.2358-1.5187-4.7155-2.7257-6.2361-4.9501-6.2361-1.8427 0-4.9926 3.9581-4.9926 6.2737 0 0.73923-0.57495 2.1303-1.2777 3.0914-1.1973 1.6374-1.5147 1.5865-5.0444-0.80887-3.5374-2.4005-8.6785-3.4706-8.6774-1.8062 2.8e-4 0.4125 0.90028 3.1173 2 6.0107 1.8918 4.9772 1.9995 7.6852 1.9995 50.25v44.989h-44.989c-42.565 0-45.273-0.10775-50.25-1.9995-2.8934-1.0997-5.5982-1.9997-6.0107-2-1.1299-7.6e-4 -0.90102 5.7881 0.25711 6.5039 0.55391 0.34233 1.6907 1.9444 2.5262 3.56l1.5191 2.9376-5.5262 2.444c-4.1835 1.8501-5.5262 2.9566-5.5262 4.554s1.3428 2.7039 5.5262 4.554l5.5262 2.444-1.5191 2.9376c-0.8355 1.6157-1.9723 3.2177-2.5262 3.56-1.1581 0.71577-1.387 6.5047-0.25711 6.5039 0.4125-2.8e-4 3.1173-0.90028 6.0107-2 4.9772-1.8918 7.6852-1.9995 50.25-1.9995h44.989v44.989c0 42.565-0.10775 45.273-1.9995 50.25-1.0997 2.8934-1.9997 5.5982-2 6.0107-0.00111 1.6645 5.1401 0.59434 8.6774-1.8062 3.5297-2.3953 3.8471-2.4462 5.0444-0.80887 0.70272 0.96102 1.2777 2.3521 1.2777 3.0914 0 2.3156 3.1498 6.2737 4.9926 6.2737 0.9694 0 2.209-0.5625 2.7547-1.25zm-6.2896-5.25c-1.3378-3.025-3.0502-5.5-3.8054-5.5-0.75519 0-3.0308 1.125-5.057 2.5-5.786 3.9265-6.7423 3.3929-4.4991-2.5107 1.7717-4.6626 1.9039-8.2055 1.9039-51v-45.989h-45.989c-42.795 0-46.337 0.13226-51 1.9039-5.9036 2.2432-6.4372 1.287-2.5107-4.4991 1.375-2.0262 2.5-4.3018 2.5-5.057 0-0.75518-2.475-2.4676-5.5-3.8054s-5.5-2.9319-5.5-3.5424 2.475-2.2046 5.5-3.5424 5.5-3.0502 5.5-3.8054c0-0.75519-1.125-3.0308-2.5-5.057-3.9265-5.786-3.3929-6.7423 2.5107-4.4991 4.6626 1.7717 8.2055 1.9039 51 1.9039h45.989v-45.989c0-42.795-0.13226-46.337-1.9039-51-2.2432-5.9036-1.287-6.4372 4.4991-2.5107 2.0262 1.375 4.3018 2.5 5.057 2.5 0.75518 0 2.4676-2.475 3.8054-5.5s2.9319-5.5 3.5424-5.5 2.2046 2.475 3.5424 5.5 3.0502 5.5 3.8054 5.5c0.75519 0 3.0308-1.125 5.057-2.5 5.786-3.9265 6.7423-3.3929 4.4991 2.5107-1.7717 4.6626-1.9039 8.2055-1.9039 51v45.989h45.989c42.795 0 46.337-0.13226 51-1.9039 5.9036-2.2432 6.4372-1.287 2.5107 4.4991-1.375 2.0262-2.5 4.3018-2.5 5.057 0 0.75518 2.475 2.4676 5.5 3.8054s5.5 2.9319 5.5 3.5424-2.475 2.2046-5.5 3.5424-5.5 3.0502-5.5 3.8054c0 0.75519 1.125 3.0308 2.5 5.057 3.9265 5.786 3.3929 6.7423-2.5107 4.4991-4.6626-1.7717-8.2055-1.9039-51-1.9039h-45.989v45.989c0 42.795 0.13226 46.337 1.9039 51 2.2432 5.9036 1.287 6.4372-4.4991 2.5107-2.0262-1.375-4.3018-2.5-5.057-2.5-0.75518 0-2.4676 2.475-3.8054 5.5s-2.9319 5.5-3.5424 5.5-2.2046-2.475-3.5424-5.5zm-344.46-34.161c-14.049-1.9138-33.464-5.8139-44-8.8387-13.08-3.7551-35.052-7.889-48.25-9.0778l-7.75-0.69806 1.9498e-15 -41 7.75 0.69806c13.198 1.1888 35.17 5.3227 48.25 9.0778 6.875 1.9738 19.025 4.7659 27 6.2046 27.164 4.9005 52.85 3.0256 85-6.2046 14.733-4.2299 37.651-8.3502 51-9.1691 7.0891-0.4349 13.41-0.01722 24.908 1.6459 14.8 2.1407 19.599 3.186 45.092 9.8228 6.325 1.6466 18.356 3.9753 26.735 5.1749 14.892 2.132 15.544 2.1437 29 0.52092 19.393-2.3388 32.808-4.892 47.265-8.9954 11.562-3.2817 31.908-7.5 36.175-7.5 1.7068 0 1.8251 1.314 1.8251 20.266v20.266l-12.75 2.19c-7.0125 1.2045-18.375 3.7957-25.25 5.7583-14.417 4.1154-27.799 6.668-47.265 9.0156-13.456 1.6228-14.108 1.611-29-0.52092-8.3792-1.1996-20.41-3.5282-26.735-5.1749-25.493-6.6368-30.291-7.6821-45.092-9.8228-11.498-1.6631-17.819-2.0808-24.908-1.6459-13.349 0.81894-36.267 4.9392-51 9.1691-22.728 6.5252-54.585 10.666-68 8.8387zm447-1.2657c-19.19-2.6318-28.742-4.5428-43.002-8.603-6.8738-1.9571-18.235-4.5439-25.248-5.7485l-12.75-2.19v-20.266c0-18.952 0.11834-20.266 1.8251-20.266 4.2669 0 24.613 4.2183 36.175 7.5 14.457 4.1034 27.872 6.6566 47.265 8.9954 13.457 1.6229 14.104 1.6112 28.908-0.52039 14.546-2.0945 19.347-3.1413 44.826-9.7746 17.412-4.5331 40.458-7.5776 52-6.8695 13.349 0.81894 36.267 4.9392 51 9.1691 6.875 1.9738 19.025 4.7659 27 6.2046 27.164 4.9005 52.85 3.0256 85-6.2046 13.08-3.7551 35.052-7.889 48.25-9.0778l7.75-0.69806v41l-7.75 0.69806c-13.198 1.1888-35.17 5.3227-48.25 9.0778-6.875 1.9738-19.025 4.7659-27 6.2046-27.164 4.9005-52.85 3.0256-85-6.2046-6.875-1.9738-19.025-4.7659-27-6.2046-27.164-4.9005-52.85-3.0256-85 6.2046-13.583 3.8997-36.08 8.0719-48 8.9021-4.6677 0.32508-12.598-0.17686-21-1.3291zm-447-78.734c-14.049-1.9138-33.464-5.8139-44-8.8387-13.08-3.7551-35.052-7.889-48.25-9.0778l-7.75-0.69806 1.9498e-15 -41 7.75 0.69806c13.198 1.1888 35.17 5.3227 48.25 9.0778 6.875 1.9738 19.025 4.7659 27 6.2046 27.164 4.9005 52.85 3.0256 85-6.2046 14.733-4.2299 37.651-8.3502 51-9.1691 7.0891-0.4349 13.41-0.01722 24.908 1.6459 14.8 2.1407 19.599 3.186 45.092 9.8228 6.325 1.6466 18.356 3.9753 26.735 5.1749 14.892 2.132 15.544 2.1437 29 0.52092 19.393-2.3388 32.808-4.892 47.265-8.9954 11.562-3.2817 31.908-7.5 36.175-7.5 1.701 0 1.8251 1.2576 1.8251 18.5v18.5h-42.989c-40.565 0-43.286-0.11276-48.25-1.9995-2.8934-1.0997-6.4982-1.9997-8.0107-2-2.6242-4.8e-4 -2.75 0.22263-2.75 4.8771 0 3.1156 0.54184 5.3272 1.5 6.1224 2.3385 1.9408 1.8387 2.7566-3 4.897-4.1319 1.8277-4.5 2.2852-4.5 5.5921 0 3.5053-0.08687 3.5874-3.25 3.0718-17.937-2.9238-28.166-5.0565-38.75-8.0794-40.865-11.672-71.299-11.667-112 0.01854-22.728 6.5252-54.585 10.666-68 8.8387zm662.5-1.3901c-12.619-1.951-19.449-3.4812-43.5-9.7464-17.404-4.5337-40.455-7.5796-52-6.8713-13.294 0.81554-36.219 4.9288-51 9.1506-10.584 3.0229-20.813 5.1556-38.75 8.0794-3.1631 0.5156-3.25 0.43349-3.25-3.0718 0-3.3069-0.36811-3.7644-4.5-5.5921-4.8387-2.1404-5.3385-2.9562-3-4.897 0.95816-0.7952 1.5-3.0068 1.5-6.1224 0-4.6544-0.1258-4.8775-2.75-4.8771-1.5125 2.8e-4 -5.1173 0.90028-8.0107 2-4.964 1.8867-7.685 1.9995-48.25 1.9995h-42.989v-18.5c0-17.242 0.12407-18.5 1.8251-18.5 4.2669 0 24.613 4.2183 36.175 7.5 14.457 4.1034 27.872 6.6566 47.265 8.9954 13.457 1.6229 14.104 1.6112 28.908-0.52039 14.546-2.0945 19.347-3.1413 44.826-9.7746 17.412-4.5331 40.458-7.5776 52-6.8695 13.349 0.81894 36.267 4.9392 51 9.1691 6.875 1.9738 19.025 4.7659 27 6.2046 27.164 4.9005 52.85 3.0256 85-6.2046 13.08-3.7551 35.052-7.889 48.25-9.0778l7.75-0.69806v41l-7.75 0.69806c-13.198 1.1888-35.17 5.3227-48.25 9.0778-29.071 8.3463-55.354 10.872-77.5 7.4486zm-662.5-78.61c-14.049-1.9138-33.464-5.8139-44-8.8387-13.08-3.7551-35.052-7.889-48.25-9.0778l-7.75-0.69806 1.9498e-15 -41 7.75 0.69806c13.198 1.1888 35.17 5.3227 48.25 9.0778 6.875 1.9738 19.025 4.7659 27 6.2046 27.164 4.9005 52.85 3.0256 85-6.2046 14.733-4.2299 37.651-8.3502 51-9.1691 7.0891-0.4349 13.41-0.01722 24.908 1.6459 14.8 2.1407 19.599 3.186 45.092 9.8228 6.325 1.6466 18.356 3.9753 26.735 5.1749 14.892 2.132 15.544 2.1437 29 0.52092 19.466-2.3476 32.849-4.9002 47.265-9.0158 6.875-1.9626 19.025-4.7455 27-6.1842 27.139-4.8959 52.701-3.0361 85 6.1842 14.417 4.1155 27.799 6.6681 47.265 9.0158 13.456 1.6228 14.108 1.611 29-0.52092 8.3792-1.1996 20.41-3.5282 26.735-5.1749 25.493-6.6368 30.291-7.6821 45.092-9.8228 11.498-1.6631 17.819-2.0808 24.908-1.6459 13.349 0.81894 36.267 4.9392 51 9.1691 40.718 11.69 71.282 11.69 112 0 13.08-3.7551 35.052-7.889 48.25-9.0778l7.75-0.69806v41l-7.75 0.69806c-13.198 1.1888-35.17 5.3227-48.25 9.0778-6.875 1.9738-19.025 4.7659-27 6.2046-27.164 4.9005-52.85 3.0256-85-6.2046-14.733-4.2299-37.651-8.3502-51-9.1691-7.0891-0.4349-13.41-0.01722-24.908 1.6459-14.8 2.1407-19.599 3.186-45.092 9.8228-6.325 1.6466-18.356 3.9753-26.735 5.1749-14.892 2.132-15.544 2.1437-29 0.52092-19.466-2.3476-32.848-4.9002-47.265-9.0156-6.875-1.9625-18.238-4.5537-25.25-5.7583l-12.75-2.19v-4.755c0-2.6153 0.89977-7.1223 1.9995-10.016 1.0997-2.8934 1.9997-6.4982 2-8.0107 4.7e-4 -2.6076-0.24138-2.75-4.6708-2.75-2.8762 0-5.3498 0.61407-6.437 1.598-2.1685 1.9624-3.4562 1.2737-4.3614-2.3329-1.0454-4.1652-2.4111-5.265-6.5378-5.265-2.8956 0-4.1347 0.56795-5.3776 2.4648-0.88826 1.3556-1.615 3.1291-1.615 3.941 0 2.3352-1.964 2.9368-3.8918 1.1922-1.0872-0.98389-3.5608-1.598-6.437-1.598-4.4294 0-4.6712 0.1424-4.6708 2.75 2.8e-4 1.5125 0.90028 5.1173 2 8.0107 1.0997 2.8934 1.9995 7.4005 1.9995 10.016v4.755l-12.75 2.19c-7.0125 1.2045-18.375 3.7957-25.25 5.7583-14.417 4.1154-27.799 6.668-47.265 9.0156-13.456 1.6228-14.108 1.611-29-0.52092-8.3792-1.1996-20.41-3.5282-26.735-5.1749-25.493-6.6368-30.291-7.6821-45.092-9.8228-11.498-1.6631-17.819-2.0808-24.908-1.6459-13.349 0.81894-36.267 4.9392-51 9.1691-22.728 6.5252-54.585 10.666-68 8.8387zm-100-151.34v-82h896v164h-896v-82zm409.89 31c0.94627 0 3.247-1.575 5.1128-3.5 4.0254-4.1532 5.8475-4.3556 9-1 2.417 2.5727 5.4101 3.2635 6.5 1.5 0.33992-0.55 0.15713-1-0.40619-1-1.6525 0-8.1399-6.1164-7.5316-7.1007 1.8018-2.9155 9.4377 0.52778 9.4377 4.2557 0 1.52 0.79267 1.845 4.5 1.845 2.475 0 4.5-0.45 4.5-1s-0.75207-1-1.6713-1-2.5052-0.75471-3.5245-1.6771c-1.7904-1.6203-1.744-1.7898 1.3674-5 3.6351-3.7505 5.9795-4.1357 9.2954-1.5274 2.2126 1.7404 2.2278 1.8631 0.49744 4-0.98182 1.2125-2.5005 2.2045-3.3748 2.2045s-1.5897 0.45-1.5897 1 0.71652 1 1.5923 1 2.7364 0.9 4.1349 2c2.7395 2.1549 11.629 2.8508 12.773 1 0.85013-1.3755 5.8397-1.2603 7.2679 0.16788 1.8065 1.8065 8.3268 3.8004 12.482 3.8171 4.072 0.01635 4.7713-1.3767 2.5094-4.9985-0.96042-1.5379-0.97371-2.4137-0.05885-3.8786 1.5096-2.4172 0.76804-3.1078-3.3368-3.1078-1.8166 0-4.9053-0.9-6.8638-2-3.7944-2.1312-12.899-2.7815-14-1-1.0899 1.7635-4.083 1.0727-6.5-1.5-1.4305-1.5227-3.4532-2.5-5.1743-2.5-2.7987 0-3.7541-1.3082-1.8257-2.5 0.55-0.33992 1-3.0665 1-6.059 0-4.7743-0.24505-5.441-2-5.441-1.1 0-2-0.60526-2-1.345 0-0.73976 0.9-2.1595 2-3.155 2.0501-1.8554 2.8028-7.5 1-7.5-0.56316 0-1-2.8137-1-6.441 0-3.5425-0.45-6.7191-1-7.059-1.7596-1.0875-1.0703-3.5 1-3.5 1.6534 0 2-0.66667 2-3.8464 0-3.7594-2.1962-9.5389-4.0633-10.693-0.51518-0.31839-0.93668-1.5423-0.93668-2.7199 0-1.6652-0.26667-1.8743-1.2-0.94098-1.8974 1.8974-2.5311 1.4467-3.234-2.3-0.36113-1.925-1.0862-3.5-1.6113-3.5-1.585 0-1.0707-4.0183 0.59619-4.6579 2.3429-0.89904 6.4491 3.4887 6.4491 6.8912 0 1.6685 0.42161 2.6241 1 2.2667 1.6561-1.0235 1.0622-6.8456-0.94356-9.25-3.4391-4.1224-13.332-1.8052-11.117 2.6039 3.6255 7.2171 3.7963 10.146 0.59162 10.146-2.4644 0-2.082 8.1616 0.46862 10 2.1008 1.5141 2.7056 5.4459 1 6.5-1.0236 0.63263-1.4372 6.5-0.45819 6.5 0.298 0 1.5078-0.9 2.6886-2 2.6338-2.4538 3.369-2.4983 4.124-0.25 0.32318 0.9625 1.1442 2.5112 1.8246 3.4415 1.0159 1.3892 0.90409 2.0593-0.62596 3.75-2.4275 2.6824-2.8559 2.6175-6.215-0.94146-1.5573-1.65-3.1705-3-3.5848-3-1.5706 0-0.6679 3.62 1.2468 5 1.1 0.79284 2 1.9474 2 2.5658 0 0.61834-0.9 1.9387-2 2.9342-2.2908 2.0732-2.6786 7.4406-0.75945 10.514 0.98739 1.5811 0.98739 2.3918 0 3.9729-1.8238 2.9203-1.5159 6.0915 0.83415 8.5931 1.8015 1.9176 1.9015 2.4858 0.75945 4.3145-0.99821 1.5984-2.3278 2.106-5.5157 2.106-2.3102 0-4.4786-0.45-4.8185-1-0.81269-1.315-6.6324-1.2786-10.185 0.063618-3.3871 1.2797-8.3151 5.7979-8.3151 7.6235 0 2.1915 1.4079 1.5036 5.5-2.6871 4.0679-4.1659 7.1431-5.0936 8.1538-2.4597 0.72886 1.8994-7.3649 10.441-9.9038 10.452-0.9625 0.00414-1.75 0.60752-1.75 1.3408 0 1.7736 1.364 3.0748 1.8125 1.7292 0.19479-0.58437 1.1284-1.0625 2.0747-1.0625zm65.113-2.8609c0-0.55-0.97725-1.1438-2.1717-1.3196-3.0819-0.45348-3.1696-2.0212-0.23302-4.1626 1.6712-1.2186 3.3743-1.6305 5.0269-1.2157 2.1117 0.53001 2.4512 1.1261 2.1886 3.843-0.2374 2.4562-0.8422 3.2912-2.5608 3.5352-1.2375 0.17575-2.25-0.13045-2.25-0.68045zm-22.75-1.8014c-1.5845-0.63934-1.663-7.3377-0.08602-7.3377 0.64019 0 2.8881 0.76069 4.9954 1.6904l3.8314 1.6904-2.1697 2.3096c-2.0985 2.2337-3.9608 2.7006-6.5711 1.6473zm10.75-4.2787c0-1.0675-0.45-2.2191-1-2.559-1.9881-1.2287-0.93469-2.5 2.0714-2.5 3.064 0 5.9286 1.8982 5.9286 3.9286 0 0.58929-0.87344 1.0714-1.941 1.0714s-2.2191 0.45-2.559 1c-1.033 1.6715-2.5 1.1193-2.5-0.94098zm-28.286-12.678c-1.038-1.038-0.87546-6.1629 0.21684-6.838 0.512-0.31643 1.2136-0.11799 1.559 0.44098 1.0678 1.7277 2.5101 1.1225 2.5101-1.0532 0-2.9952 4.3836-2.2498 4.8196 0.81955 0.17575 1.2375-0.13045 2.25-0.68045 2.25s-1.1438 1.0125-1.3196 2.25c-0.23938 1.6855-1.0812 2.3246-3.3555 2.5474-1.6698 0.16357-3.3573-0.023933-3.75-0.41667zm-1.1467-13.306c-2.6258-2.9015-1.6529-5.5162 2.1909-5.8878 2.4824-0.23995 3.2418-0.78654 3.2418-2.3333 0-2.8784 2.4352-1.7399 2.8006 1.3094 0.1653 1.3797-0.3972 3.0876-1.25 3.7953-0.85281 0.70777-1.5506 2.1317-1.5506 3.1644 0 2.4792-3.1709 2.4512-5.4327-0.048041zm3.0295-32.41c-0.42326-2.2561-1.3275-3.6223-2.6215-3.9607-1.1736-0.30692-1.9754-1.3663-1.9754-2.6102 0-1.7076 0.61681-2.0936 3.345-2.0936 3.5633 0 6.655 2.4755 6.655 5.3287 0 0.91919 0.4813 1.6713 1.0696 1.6713s0.92575 1.0125 0.75 2.25c-0.24187 1.703-1.0801 2.324-3.4481 2.5543-2.8569 0.27788-3.1846 0.005317-3.7746-3.1398zm-35.083 52.313c1.1426-1.8488 11.874-6.6173 17.736-7.8813l5.75-1.2397v-30.46c0-25.686-0.22725-30.547-1.45-31.016-0.82616-0.31703-3.7896 1.3098-6.8881 3.7814-4.0224 3.2085-8.4316 8.7883-16.937 21.433-6.3242 9.4024-11.814 18.531-12.199 20.285-0.49712 2.2633-0.149 4.2687 1.1986 6.9047 2.0822 4.0729 9.0632 17.063 9.8808 18.386 0.70266 1.1369 2.1454 1.041 2.9082-0.19326zm2.8541-19.228c-2.1762-4.2012-2.3863-11.494-0.36789-12.771 3.6422-2.3047 7.8669-2.2398 10.837 0.1666 2.5106 2.0344 2.9044 3.0351 2.8945 7.3548-0.01435 6.2629-2.0314 8.5-7.6636 8.5-3.519 0-4.2245-0.40228-5.6996-3.25zm86.279 16.5c0.84973-2.0625 3.3018-7.4182 5.449-11.902 4.4828-9.36 4.6762-10.694 1.8384-12.682-2.1471-1.5039-10.928-13.058-10.943-14.401-0.01874-1.5957-12.76-15.351-18.991-20.502-5.3662-4.4362-14.363-9.7639-16.489-9.7639-0.281 0-0.5109 14.109-0.5109 31.353v31.353l7.3553 0.62175c4.0454 0.34196 10.008 1.347 13.25 2.2334 3.2421 0.8864 7.4252 1.9906 9.2957 2.4537 1.8705 0.46315 4.333 1.7742 5.4722 2.9134s2.2192 2.0713 2.4001 2.0713 1.024-1.6875 1.8738-3.75zm-26.747-18.357c-3.2363-4.1909-3.8852-7.791-2.0083-11.143 1.2921-2.3074 2.2045-2.75 5.6694-2.75 5.5778 0 7.4394 2.195 7.4394 8.772 0 4.1516-0.41844 5.4076-2.2225 6.6713-3.4002 2.3816-6.2219 1.8888-8.8779-1.5507z" fill="#f8d609"/>
<path d="m5.5967e-17 430.86 5.5967e-17 -17.138 7.75 0.69806c13.198 1.1888 35.17 5.3227 48.25 9.0778 6.875 1.9738 19.025 4.7659 27 6.2046 27.164 4.9005 52.85 3.0256 85-6.2046 14.733-4.2299 37.651-8.3502 51-9.1691 7.0891-0.4349 13.41-0.01722 24.908 1.6459 14.8 2.1407 19.599 3.186 45.092 9.8228 6.325 1.6466 18.356 3.9753 26.735 5.1749 14.892 2.132 15.544 2.1437 29 0.52092 19.415-2.3414 32.82-4.8945 47.265-9.0015 13.36-3.7986 35.681-8.1458 36.683-7.1442 0.33316 0.33316-0.13422 2.5433-1.0386 4.9115-0.9044 2.3682-1.6444 5.5282-1.6444 7.0223 0 2.5677 0.25594 2.7166 4.6713 2.7166 2.8762 0 5.3498-0.61407 6.437-1.598 1.9278-1.7446 3.8918-1.143 3.8918 1.1922 0 0.81189 0.72675 2.5853 1.615 3.941 1.2429 1.8969 2.482 2.4648 5.3776 2.4648 4.1268 0 5.4924-1.0998 6.5378-5.265 0.90519-3.6066 2.1929-4.2954 4.3614-2.3329 1.0872 0.98389 3.5608 1.598 6.437 1.598 4.4153 0 4.6713-0.14884 4.6713-2.7166 0-1.4941-0.73997-4.6541-1.6444-7.0223-0.90441-2.3682-1.3718-4.5783-1.0386-4.9115 1.0016-1.0016 23.323 3.3457 36.683 7.1442 14.445 4.107 27.85 6.6601 47.265 9.0015 13.457 1.6229 14.104 1.6112 28.908-0.52039 14.546-2.0945 19.347-3.1413 44.826-9.7746 17.412-4.5331 40.458-7.5776 52-6.8695 13.349 0.81894 36.267 4.9392 51 9.1691 6.875 1.9738 19.025 4.7659 27 6.2046 27.164 4.9005 52.85 3.0256 85-6.2046 13.08-3.7551 35.052-7.889 48.25-9.0778l7.75-0.69806v34.276h-896l5.5967e-17 -17.138zm443.77 1.8879c-0.80125-1.2375-1.7616-3.4875-2.1341-5-0.80733-3.2782-1.5531-3.3921-4.912-0.75-1.4708 1.157-4.0568 2-6.1349 2-4.3027 0-4.5028-1.1016-1.5918-8.7607 1.8893-4.9708 1.9995-7.6851 1.9995-49.25v-43.989h-43.989c-41.565 0-44.279 0.1102-49.25 1.9995-7.6376 2.9029-8.7607 2.7054-8.7607-1.54 0-2.069 0.90559-4.7654 2.179-6.4877 1.1984-1.621 1.9859-3.1194 1.75-3.3298-0.23594-0.21044-2.5665-1.3157-5.179-2.4561-4.2051-1.8356-4.75-2.4305-4.75-5.1859s0.54487-3.3503 4.75-5.1859c2.6125-1.1404 4.943-2.2456 5.179-2.4561 0.23593-0.21045-0.55157-1.7089-1.75-3.3298-1.2734-1.7223-2.179-4.4187-2.179-6.4877 0-4.2454 1.1232-4.4429 8.7607-1.54 4.9708 1.8893 7.6851 1.9995 49.25 1.9995h43.989v-43.989c0-41.565-0.1102-44.279-1.9995-49.25-2.9111-7.6591-2.7109-8.7607 1.5918-8.7607 2.0781 0 4.664 0.84303 6.1349 2 3.3589 2.6421 4.1047 2.5282 4.912-0.75 1.166-4.7345 3.3704-7.25 6.3534-7.25 3.2267 0 4.3066 1.1335 5.9547 6.25 1.3912 4.3192 1.8626 4.474 5.3256 1.75 1.4708-1.157 4.0568-2 6.1349-2 4.3027 0 4.5028 1.1016 1.5918 8.7607-1.8893 4.9708-1.9995 7.6851-1.9995 49.25v43.989h43.989c41.565 0 44.279-0.1102 49.25-1.9995 7.6376-2.9029 8.7607-2.7054 8.7607 1.54 0 2.069-0.90559 4.7654-2.179 6.4877-1.1984 1.621-1.9859 3.1194-1.75 3.3298 0.23594 0.21044 2.5665 1.3157 5.179 2.4561 4.2051 1.8356 4.75 2.4305 4.75 5.1859s-0.54487 3.3503-4.75 5.1859c-2.6125 1.1404-4.943 2.2456-5.179 2.4561-0.23593 0.21045 0.55157 1.7089 1.75 3.3298 1.2734 1.7223 2.179 4.4187 2.179 6.4877 0 4.2454-1.1232 4.4429-8.7607 1.54-4.9708-1.8893-7.6851-1.9995-49.25-1.9995h-43.989v43.989c0 41.565 0.1102 44.279 1.9995 49.25 2.9111 7.6591 2.7109 8.7607-1.5918 8.7607-2.0781 0-4.664-0.84303-6.1349-2-3.4631-2.724-3.9344-2.5692-5.3256 1.75-0.66433 2.0625-1.6543 4.3125-2.2 5-1.6556 2.0859-6.3578 1.4962-7.974-1zm6.974 0c0.54567-0.6875 1.5336-2.9312 2.1954-4.9861 0.66181-2.0548 1.5671-3.9609 2.0118-4.2358 0.44467-0.27482 2.4568 0.61891 4.4714 1.9861 3.4533 2.3435 8.5747 3.3803 8.5736 1.7358-2.8e-4 -0.4125-0.90028-3.1173-2-6.0107-1.8918-4.9772-1.9995-7.6852-1.9995-50.25v-44.989h44.989c42.565 0 45.273 0.10775 50.25 1.9995 2.8934 1.0997 5.5982 1.9997 6.0107 2 1.1299 7.6e-4 0.90102-5.7881-0.25711-6.5039-0.55391-0.34233-1.6907-1.9444-2.5262-3.56l-1.5191-2.9376 5.5262-2.444c7.5667-3.3464 7.5667-5.7616 0-9.108l-5.5262-2.444 1.5191-2.9376c0.8355-1.6157 1.9723-3.2177 2.5262-3.56 1.1581-0.71577 1.387-6.5047 0.25711-6.5039-0.4125 2.8e-4 -3.1173 0.90028-6.0107 2-4.9772 1.8918-7.6852 1.9995-50.25 1.9995h-44.989v-44.989c0-42.565 0.10775-45.273 1.9995-50.25 1.0997-2.8934 1.9997-5.5982 2-6.0107 0.0011-1.6446-5.1203-0.60774-8.5736 1.7358-2.0146 1.3672-4.0268 2.2609-4.4714 1.9861-0.44468-0.27482-1.35-2.1809-2.0118-4.2358-1.5187-4.7155-2.7257-6.2361-4.9501-6.2361-1.8427 0-4.9926 3.9581-4.9926 6.2737 0 0.73923-0.57495 2.1303-1.2777 3.0914-1.1973 1.6374-1.5147 1.5865-5.0444-0.80887-3.5374-2.4005-8.6785-3.4706-8.6774-1.8062 2.8e-4 0.4125 0.90028 3.1173 2 6.0107 1.8918 4.9772 1.9995 7.6852 1.9995 50.25v44.989h-44.989c-42.565 0-45.273-0.10775-50.25-1.9995-2.8934-1.0997-5.5982-1.9997-6.0107-2-1.1299-7.6e-4 -0.90102 5.7881 0.25711 6.5039 0.55391 0.34233 1.6907 1.9444 2.5262 3.56l1.5191 2.9376-5.5262 2.444c-4.1835 1.8501-5.5262 2.9566-5.5262 4.554s1.3428 2.7039 5.5262 4.554l5.5262 2.444-1.5191 2.9376c-0.8355 1.6157-1.9723 3.2177-2.5262 3.56-1.1581 0.71577-1.387 6.5047-0.25711 6.5039 0.4125-2.8e-4 3.1173-0.90028 6.0107-2 4.9772-1.8918 7.6852-1.9995 50.25-1.9995h44.989v44.989c0 42.565-0.10775 45.273-1.9995 50.25-1.0997 2.8934-1.9997 5.5982-2 6.0107-0.00111 1.6645 5.1401 0.59434 8.6774-1.8062 3.5297-2.3953 3.8471-2.4462 5.0444-0.80887 0.70272 0.96102 1.2777 2.3521 1.2777 3.0914 0 2.3156 3.1498 6.2737 4.9926 6.2737 0.9694 0 2.209-0.5625 2.7547-1.25zm-6.2896-5.25c-1.3378-3.025-3.0502-5.5-3.8054-5.5-0.75519 0-3.0308 1.125-5.057 2.5-5.786 3.9265-6.7423 3.3929-4.4991-2.5107 1.7717-4.6626 1.9039-8.2055 1.9039-51v-45.989h-45.989c-42.795 0-46.337 0.13226-51 1.9039-5.9036 2.2432-6.4372 1.287-2.5107-4.4991 1.375-2.0262 2.5-4.3018 2.5-5.057 0-0.75518-2.475-2.4676-5.5-3.8054s-5.5-2.9319-5.5-3.5424 2.475-2.2046 5.5-3.5424 5.5-3.0502 5.5-3.8054c0-0.75519-1.125-3.0308-2.5-5.057-3.9265-5.786-3.3929-6.7423 2.5107-4.4991 4.6626 1.7717 8.2055 1.9039 51 1.9039h45.989v-45.989c0-42.795-0.13226-46.337-1.9039-51-2.2432-5.9036-1.287-6.4372 4.4991-2.5107 2.0262 1.375 4.3018 2.5 5.057 2.5 0.75518 0 2.4676-2.475 3.8054-5.5s2.9319-5.5 3.5424-5.5 2.2046 2.475 3.5424 5.5 3.0502 5.5 3.8054 5.5c0.75519 0 3.0308-1.125 5.057-2.5 5.786-3.9265 6.7423-3.3929 4.4991 2.5107-1.7717 4.6626-1.9039 8.2055-1.9039 51v45.989h45.989c42.795 0 46.337-0.13226 51-1.9039 5.9036-2.2432 6.4372-1.287 2.5107 4.4991-1.375 2.0262-2.5 4.3018-2.5 5.057 0 0.75518 2.475 2.4676 5.5 3.8054s5.5 2.9319 5.5 3.5424-2.475 2.2046-5.5 3.5424-5.5 3.0502-5.5 3.8054c0 0.75519 1.125 3.0308 2.5 5.057 3.9265 5.786 3.3929 6.7423-2.5107 4.4991-4.6626-1.7717-8.2055-1.9039-51-1.9039h-45.989v45.989c0 42.795 0.13226 46.337 1.9039 51 2.2432 5.9036 1.287 6.4372-4.4991 2.5107-2.0262-1.375-4.3018-2.5-5.057-2.5-0.75518 0-2.4676 2.475-3.8054 5.5s-2.9319 5.5-3.5424 5.5-2.2046-2.475-3.5424-5.5zm-344.46-34.161c-14.049-1.9138-33.464-5.8139-44-8.8387-13.08-3.7551-35.052-7.889-48.25-9.0778l-7.75-0.69806 1.9498e-15 -41 7.75 0.69806c13.198 1.1888 35.17 5.3227 48.25 9.0778 6.875 1.9738 19.025 4.7659 27 6.2046 27.164 4.9005 52.85 3.0256 85-6.2046 14.733-4.2299 37.651-8.3502 51-9.1691 7.0891-0.4349 13.41-0.01722 24.908 1.6459 14.8 2.1407 19.599 3.186 45.092 9.8228 6.325 1.6466 18.356 3.9753 26.735 5.1749 14.892 2.132 15.544 2.1437 29 0.52092 19.393-2.3388 32.808-4.892 47.265-8.9954 11.562-3.2817 31.908-7.5 36.175-7.5 1.7068 0 1.8251 1.314 1.8251 20.266v20.266l-12.75 2.19c-7.0125 1.2045-18.375 3.7957-25.25 5.7583-14.417 4.1154-27.799 6.668-47.265 9.0156-13.456 1.6228-14.108 1.611-29-0.52092-8.3792-1.1996-20.41-3.5282-26.735-5.1749-25.493-6.6368-30.291-7.6821-45.092-9.8228-11.498-1.6631-17.819-2.0808-24.908-1.6459-13.349 0.81894-36.267 4.9392-51 9.1691-22.728 6.5252-54.585 10.666-68 8.8387zm447-1.2657c-19.19-2.6318-28.742-4.5428-43.002-8.603-6.8738-1.9571-18.235-4.5439-25.248-5.7485l-12.75-2.19v-20.266c0-18.952 0.11834-20.266 1.8251-20.266 4.2669 0 24.613 4.2183 36.175 7.5 14.457 4.1034 27.872 6.6566 47.265 8.9954 13.457 1.6229 14.104 1.6112 28.908-0.52039 14.546-2.0945 19.347-3.1413 44.826-9.7746 17.412-4.5331 40.458-7.5776 52-6.8695 13.349 0.81894 36.267 4.9392 51 9.1691 6.875 1.9738 19.025 4.7659 27 6.2046 27.164 4.9005 52.85 3.0256 85-6.2046 13.08-3.7551 35.052-7.889 48.25-9.0778l7.75-0.69806v41l-7.75 0.69806c-13.198 1.1888-35.17 5.3227-48.25 9.0778-6.875 1.9738-19.025 4.7659-27 6.2046-27.164 4.9005-52.85 3.0256-85-6.2046-6.875-1.9738-19.025-4.7659-27-6.2046-27.164-4.9005-52.85-3.0256-85 6.2046-13.583 3.8997-36.08 8.0719-48 8.9021-4.6677 0.32508-12.598-0.17686-21-1.3291zm-447-78.734c-14.049-1.9138-33.464-5.8139-44-8.8387-13.08-3.7551-35.052-7.889-48.25-9.0778l-7.75-0.69806 1.9498e-15 -41 7.75 0.69806c13.198 1.1888 35.17 5.3227 48.25 9.0778 6.875 1.9738 19.025 4.7659 27 6.2046 27.164 4.9005 52.85 3.0256 85-6.2046 14.733-4.2299 37.651-8.3502 51-9.1691 7.0891-0.4349 13.41-0.01722 24.908 1.6459 14.8 2.1407 19.599 3.186 45.092 9.8228 6.325 1.6466 18.356 3.9753 26.735 5.1749 14.892 2.132 15.544 2.1437 29 0.52092 19.393-2.3388 32.808-4.892 47.265-8.9954 11.562-3.2817 31.908-7.5 36.175-7.5 1.701 0 1.8251 1.2576 1.8251 18.5v18.5h-42.989c-40.565 0-43.286-0.11276-48.25-1.9995-2.8934-1.0997-6.4982-1.9997-8.0107-2-2.6242-4.8e-4 -2.75 0.22263-2.75 4.8771 0 3.1156 0.54184 5.3272 1.5 6.1224 2.3385 1.9408 1.8387 2.7566-3 4.897-4.1319 1.8277-4.5 2.2852-4.5 5.5921 0 3.5053-0.08687 3.5874-3.25 3.0718-17.937-2.9238-28.166-5.0565-38.75-8.0794-40.865-11.672-71.299-11.667-112 0.01854-22.728 6.5252-54.585 10.666-68 8.8387zm662.5-1.3901c-12.619-1.951-19.449-3.4812-43.5-9.7464-17.404-4.5337-40.455-7.5796-52-6.8713-13.294 0.81554-36.219 4.9288-51 9.1506-10.584 3.0229-20.813 5.1556-38.75 8.0794-3.1631 0.5156-3.25 0.43349-3.25-3.0718 0-3.3069-0.36811-3.7644-4.5-5.5921-4.8387-2.1404-5.3385-2.9562-3-4.897 0.95816-0.7952 1.5-3.0068 1.5-6.1224 0-4.6544-0.1258-4.8775-2.75-4.8771-1.5125 2.8e-4 -5.1173 0.90028-8.0107 2-4.964 1.8867-7.685 1.9995-48.25 1.9995h-42.989v-18.5c0-17.242 0.12407-18.5 1.8251-18.5 4.2669 0 24.613 4.2183 36.175 7.5 14.457 4.1034 27.872 6.6566 47.265 8.9954 13.457 1.6229 14.104 1.6112 28.908-0.52039 14.546-2.0945 19.347-3.1413 44.826-9.7746 17.412-4.5331 40.458-7.5776 52-6.8695 13.349 0.81894 36.267 4.9392 51 9.1691 6.875 1.9738 19.025 4.7659 27 6.2046 27.164 4.9005 52.85 3.0256 85-6.2046 13.08-3.7551 35.052-7.889 48.25-9.0778l7.75-0.69806v41l-7.75 0.69806c-13.198 1.1888-35.17 5.3227-48.25 9.0778-29.071 8.3463-55.354 10.872-77.5 7.4486zm-662.5-78.61c-14.049-1.9138-33.464-5.8139-44-8.8387-13.08-3.7551-35.052-7.889-48.25-9.0778l-7.75-0.69806 1.9498e-15 -41 7.75 0.69806c13.198 1.1888 35.17 5.3227 48.25 9.0778 6.875 1.9738 19.025 4.7659 27 6.2046 27.164 4.9005 52.85 3.0256 85-6.2046 14.733-4.2299 37.651-8.3502 51-9.1691 7.0891-0.4349 13.41-0.01722 24.908 1.6459 14.8 2.1407 19.599 3.186 45.092 9.8228 6.325 1.6466 18.356 3.9753 26.735 5.1749 14.892 2.132 15.544 2.1437 29 0.52092 19.466-2.3476 32.849-4.9002 47.265-9.0158 6.875-1.9626 19.025-4.7455 27-6.1842 27.139-4.8959 52.701-3.0361 85 6.1842 14.417 4.1155 27.799 6.6681 47.265 9.0158 13.456 1.6228 14.108 1.611 29-0.52092 8.3792-1.1996 20.41-3.5282 26.735-5.1749 25.493-6.6368 30.291-7.6821 45.092-9.8228 11.498-1.6631 17.819-2.0808 24.908-1.6459 13.349 0.81894 36.267 4.9392 51 9.1691 40.718 11.69 71.282 11.69 112 0 13.08-3.7551 35.052-7.889 48.25-9.0778l7.75-0.69806v41l-7.75 0.69806c-13.198 1.1888-35.17 5.3227-48.25 9.0778-6.875 1.9738-19.025 4.7659-27 6.2046-27.164 4.9005-52.85 3.0256-85-6.2046-14.733-4.2299-37.651-8.3502-51-9.1691-7.0891-0.4349-13.41-0.01722-24.908 1.6459-14.8 2.1407-19.599 3.186-45.092 9.8228-6.325 1.6466-18.356 3.9753-26.735 5.1749-14.892 2.132-15.544 2.1437-29 0.52092-19.466-2.3476-32.848-4.9002-47.265-9.0156-6.875-1.9625-18.238-4.5537-25.25-5.7583l-12.75-2.19v-4.755c0-2.6153 0.89977-7.1223 1.9995-10.016 1.0997-2.8934 1.9997-6.4982 2-8.0107 4.7e-4 -2.6076-0.24138-2.75-4.6708-2.75-2.8762 0-5.3498 0.61407-6.437 1.598-2.1685 1.9624-3.4562 1.2737-4.3614-2.3329-1.0454-4.1652-2.4111-5.265-6.5378-5.265-2.8956 0-4.1347 0.56795-5.3776 2.4648-0.88826 1.3556-1.615 3.1291-1.615 3.941 0 2.3352-1.964 2.9368-3.8918 1.1922-1.0872-0.98389-3.5608-1.598-6.437-1.598-4.4294 0-4.6712 0.1424-4.6708 2.75 2.8e-4 1.5125 0.90028 5.1173 2 8.0107 1.0997 2.8934 1.9995 7.4005 1.9995 10.016v4.755l-12.75 2.19c-7.0125 1.2045-18.375 3.7957-25.25 5.7583-14.417 4.1154-27.799 6.668-47.265 9.0156-13.456 1.6228-14.108 1.611-29-0.52092-8.3792-1.1996-20.41-3.5282-26.735-5.1749-25.493-6.6368-30.291-7.6821-45.092-9.8228-11.498-1.6631-17.819-2.0808-24.908-1.6459-13.349 0.81894-36.267 4.9392-51 9.1691-22.728 6.5252-54.585 10.666-68 8.8387zm-100-151.34v-82h896v164h-896v-82zm401.36 61.055c8.7382-2.2561 24.346-10.593 27.617-14.751 2.9093-3.6986 2.6842-8.1027-0.47551-9.304-6.9468-2.6412 0.61226-4.1893 19.84-4.0636 14.543 0.09511 20.779 0.92141 21.418 2.8378 0.24019 0.72057-0.91037 1.7316-2.6679 2.3442-1.6996 0.59249-3.0902 1.6564-3.0902 2.3643 0 2.5691 8.7134 9.699 18 14.729l9.5 5.1454 16.786-0.21124c9.2324-0.11619 19.132-0.64802 22-1.1818 7.7487-1.4425 21.305-8.6472 27.215-14.464 4.4607-4.3903 13.026-17.544 22.208-34.105 4.112-7.4163 4.3249-7.673 10.13-12.216 3.5193-2.7542 6.3456-4.179 8.2898-4.179 3.4806 0 10.186 3.215 12.054 5.7797 0.72384 0.99356 3.3579 3.6687 5.8535 5.9448l4.5374 4.1383 4.608-2.8681c3.9967-2.4876 4.8504-2.6908 6.4354-1.5319 1.5928 1.1647 1.6597 1.6496 0.52103 3.7772-0.7185 1.3425-2.5979 3.9542-4.1765 5.8038-3.0453 3.568-2.603 5.9563 1.103 5.9563 1.0015 0 2.511 0.98535 3.3546 2.1897 0.84353 1.2043 1.7823 1.9411 2.0861 1.6372 0.30383-0.30384-0.8091-2.0099-2.4732-3.7913s-2.7758-3.6432-2.4704-4.1372c0.67215-1.0876 6.4372-1.2119 6.4372-0.13888 0 0.4177 1.0125 1.3768 2.25 2.1313 1.2375 0.75451 1.9164 1.0167 1.5087 0.58256-0.40773-0.4341-0.24013-1.3932 0.37244-2.1313 0.82572-0.99494 0.78272-1.7409-0.16629-2.8844-1.8258-2.2 0.0393-3.6744 4.1498-3.2805 2.4312 0.23298 3.4743 0.87956 3.7474 2.3228 0.20812 1.1 1.0547 2.9 1.8812 4 1.5028 2 1.5028 2 0.79472 0-1.5782-4.4573-1.8148-8.5-0.49755-8.5 1.7958 0 4.9596 3.0071 4.9596 4.714 0 0.77222 0.45 1.1259 1 0.786 1.6214-1.0021 1.16-4.5-0.59362-4.5-0.87649 0-1.829-0.9-2.1166-2s-1.3084-2-2.2682-2c-2.4422 0-15.221-6.739-23.267-12.271-3.7102-2.5505-8.4307-4.9534-10.49-5.3397-2.0592-0.38631-5.5485-1.5222-7.7541-2.5241-2.8836-1.31-6.117-1.7773-11.51-1.6635-5.3905 0.11377-6.164 0.26363-2.75 0.53283 3.9324 0.31008 4.75 0.71361 4.75 2.3445 0 1.241-1.0177 2.3385-2.75 2.9658-5.1092 1.8502-7.5912 3.4388-12.819 8.2046-4.2815 3.9028-6.4996 7.3383-12.437 19.263-3.9743 7.9821-7.6339 14.765-8.1324 15.073-0.49851 0.3081-2.3639 2.7244-4.1452 5.3696-2.9535 4.3857-9.2536 10.065-15.74 14.19-3.9001 2.4799-12.315 3.356-13.899 1.4471-1.0929-1.3168-0.38382-2.4451 4.7842-7.6131 4.8561-4.8561 7.3793-8.6899 12.64-19.206 3.8695-7.7348 6.3165-13.783 5.9494-14.706-0.39794-1.0004-2.0455 1.9836-4.5552 8.2501-4.992 12.465-9.9876 19.202-18.887 25.472-6.4558 4.5484-7.7132 5.0414-14.47 5.6746-9.416 0.88235-16.957-1.6142-24.313-8.0485-2.7764-2.4287-5.3757-4.4158-5.7763-4.4158s-1.2438-0.70487-1.8738-1.5664c-0.62995-0.8615-4.2189-2.6007-7.9754-3.8649-7.7532-2.6092-16.271-3.1909-41.588-2.8405-16.291 0.22549-16.537 0.26201-20.5 3.0397-2.8748 2.0148-4.1059 3.6503-4.3451 5.7718-0.62459 5.5414-5.7846 9.4748-17.783 13.556-11.817 4.0194-20.237 4.0335-26.438 0.04423-8.3033-5.3422-22.145-18.527-27.327-26.031-2.8152-4.0763-6.6294-9.5958-8.4758-12.266-4.4142-6.3825-19.352-23.095-22.466-25.136-4.3634-2.859-18.749-6.9673-23.984-6.8494-3.6342 0.081878-7.2813 1.2234-13.454 4.2112-8.3106 4.0226-17.633 9.9494-19.872 12.634-0.88257 1.0583-2.0987 1.1397-5.5 0.36816-3.6384-0.82532-4.9774-0.67423-8.0269 0.90574-2.8513 1.4773-4.8952 1.7688-9.25 1.3194-4.5681-0.47147-5.59-0.30156-5.59 0.92944 0 1.2435 1.2654 1.4302 7.25 1.0699 3.9875-0.24009 8.2034-0.89939 9.3686-1.4651 2.7461-1.3333 5.8742-0.70581 5.9079 1.185 0.01454 0.816 0.3786 2.0461 0.80902 2.7336s0.64353 1.2825 0.47357 1.3222c-0.16996 0.039704-3.5558 0.1522-7.5241 0.25-4.8983 0.12072-7.6984 0.66141-8.7204 1.6839-1.3407 1.3414-0.60639 1.467 6.715 1.1491 5.6154-0.24385 8.7768-0.85121 9.9765-1.9166 1.925-1.7096 2.9754-1.1918 3.4142 1.6832 0.45597 2.9878-1.7557 3.9622-9.715 4.2803-4.1049 0.16405-7.4553 0.74735-7.4553 1.298 0 1.4252 4.5203 1.8797 5.8153 0.58466 0.6053-0.60531 4.7528-1.0847 9.3847-1.0847 6.4001 0 8.3 0.31666 8.3 1.3834 0 1.5689-2.996 2.5829-7.691 2.603-1.755 0.00751-3.4691 0.46365-3.809 1.0136s-2.279 1.0305-4.309 1.0677c-3.4623 0.06349-3.5465 0.13718-1.359 1.1894 1.7908 0.86139 2.8318 0.80954 4.4858-0.22342 1.1846-0.73981 4.6353-1.433 7.6681-1.5404 3.0328-0.10738 6.3051-0.53674 7.2717-0.95413 2.4559-1.0604 1.9019-6.0408-0.97231-8.7409-1.6079-1.5106-2.2852-3.2806-2.2852-5.9725 0-5.0111 1.414-4.8824 7 0.63707 5.4007 5.3364 7.5169 5.623 9.7965 1.3268 0.93692-1.7657 3.777-5.4407 6.3112-8.1667 6.3238-6.8022 9.5587-6.8432 15.575-0.19762 5.7366 6.3363 9.5191 11.728 13.732 19.575 1.9196 3.575 5.1989 8.608 7.2874 11.185 2.0884 2.5765 5.5972 6.8963 7.7972 9.5996 3.99 4.9028 12.29 11.577 18.028 14.497 2.7687 1.4089 8.3697 3.147 18.972 5.8875 12.556 3.2455 32.153 3.6511 42.858 0.88703zm-48.036-4.0469c-11.996-3.1443-17.855-6.5224-26.727-15.409-9.0604-9.0757-16.596-18.173-16.596-20.036 0-0.67738-1.6875-3.6698-3.75-6.6499s-4.425-6.7622-5.25-8.4048c-1.6315-3.2483-10.059-12.225-13.881-14.786-1.5162-1.0157-2.1607-2.1706-1.774-3.1784 0.50227-1.3089 1.694-1.4742 6.8815-0.95461 8.1144 0.81276 11.713 2.7943 20.397 11.231 7.5874 7.3715 13.361 14.604 21.789 27.295 5.9777 9.001 14.822 18.038 28.389 29.006 1.0023 0.81031 1.0315 1.3756 0.12756 2.4648-1.4096 1.6985-0.77436 1.7367-9.6057-0.57814zm103.57-7.1222c5.7023-1.9878 3.0212-3.3728-6.9787-3.605-10.443-0.24241-12.871 0.1656-11.161 1.8755 0.90801 0.90801 4.335 1.5794 13.844 2.712 0.60542 0.07212 2.5384-0.37003 4.2954-0.98255zm-47.009-18.886c0.94627 0 3.247-1.575 5.1128-3.5 4.0254-4.1532 5.8475-4.3556 9-1 2.417 2.5727 5.4101 3.2635 6.5 1.5 0.33992-0.55 0.15713-1-0.40619-1-1.6525 0-8.1399-6.1164-7.5316-7.1007 1.8018-2.9155 9.4377 0.52778 9.4377 4.2557 0 1.52 0.79267 1.845 4.5 1.845 2.475 0 4.5-0.45 4.5-1s-0.75207-1-1.6713-1-2.5052-0.75471-3.5245-1.6771c-1.7904-1.6203-1.744-1.7898 1.3674-5 3.6351-3.7505 5.9795-4.1357 9.2954-1.5274 2.2126 1.7404 2.2278 1.8631 0.49744 4-0.98182 1.2125-2.5005 2.2045-3.3748 2.2045s-1.5897 0.45-1.5897 1 0.69322 1 1.5405 1 2.8987 1.0042 4.5588 2.2315c3.2699 2.4175 10.146 2.9229 12.174 0.89472 1.4712-1.4712 6.0065-1.446 7.4941 0.04163 1.8065 1.8065 8.3268 3.8004 12.482 3.8171 4.072 0.01635 4.7713-1.3767 2.5094-4.9985-0.96042-1.5379-0.97371-2.4137-0.05885-3.8786 1.5096-2.4172 0.76804-3.1078-3.3368-3.1078-1.8166 0-4.9053-0.9-6.8638-2-3.7944-2.1312-12.899-2.7815-14-1-1.0899 1.7635-4.083 1.0727-6.5-1.5-1.4305-1.5227-3.4532-2.5-5.1743-2.5-2.7987 0-3.7541-1.3082-1.8257-2.5 0.55-0.33992 1-3.0665 1-6.059 0-4.7743-0.24505-5.441-2-5.441-1.1 0-2-0.60526-2-1.345 0-0.73976 0.9-2.1595 2-3.155 2.0501-1.8554 2.8028-7.5 1-7.5-0.56316 0-1-2.8137-1-6.441 0-3.5425-0.45-6.7191-1-7.059-1.7596-1.0875-1.0703-3.5 1-3.5 1.6534 0 2-0.66667 2-3.8464 0-3.7594-2.1962-9.5389-4.0633-10.693-0.51518-0.31839-0.93668-1.5423-0.93668-2.7199 0-1.6652-0.26667-1.8743-1.2-0.94098-1.8974 1.8974-2.5311 1.4467-3.234-2.3-0.36113-1.925-1.0862-3.5-1.6113-3.5-1.585 0-1.0707-4.0183 0.59619-4.6579 2.3429-0.89904 6.4491 3.4887 6.4491 6.8912 0 1.6685 0.42161 2.6241 1 2.2667 1.6561-1.0235 1.0622-6.8456-0.94356-9.25-3.4391-4.1224-13.332-1.8052-11.117 2.6039 3.6255 7.2171 3.7963 10.146 0.59162 10.146-2.4644 0-2.082 8.1616 0.46862 10 2.1008 1.5141 2.7056 5.4459 1 6.5-1.0236 0.63263-1.4372 6.5-0.45819 6.5 0.298 0 1.5078-0.9 2.6886-2 2.6338-2.4538 3.369-2.4983 4.124-0.25 0.32318 0.9625 1.1442 2.5112 1.8246 3.4415 1.0159 1.3892 0.90409 2.0593-0.62596 3.75-2.4275 2.6824-2.8559 2.6175-6.215-0.94146-1.5573-1.65-3.1705-3-3.5848-3-1.5706 0-0.6679 3.62 1.2468 5 1.1 0.79284 2 1.9474 2 2.5658 0 0.61834-0.9 1.9387-2 2.9342-2.2908 2.0732-2.6786 7.4406-0.75945 10.514 0.98739 1.5811 0.98739 2.3918 0 3.9729-1.8238 2.9203-1.5159 6.0915 0.83415 8.5931 1.8015 1.9176 1.9015 2.4858 0.75945 4.3145-0.99821 1.5984-2.3278 2.106-5.5157 2.106-2.3102 0-4.4786-0.45-4.8185-1-0.81269-1.315-6.6324-1.2786-10.185 0.063618-3.3871 1.2797-8.3151 5.7979-8.3151 7.6235 0 2.1915 1.4079 1.5036 5.5-2.6871 4.0679-4.1659 7.1431-5.0936 8.1538-2.4597 0.72886 1.8994-7.3649 10.441-9.9038 10.452-0.9625 0.00414-1.75 0.60752-1.75 1.3408 0 1.7736 1.364 3.0748 1.8125 1.7292 0.19479-0.58437 1.1284-1.0625 2.0747-1.0625zm65.113-2.8609c0-0.55-0.97725-1.1438-2.1717-1.3196-3.0819-0.45348-3.1696-2.0212-0.23302-4.1626 1.6712-1.2186 3.3743-1.6305 5.0269-1.2157 2.1117 0.53001 2.4512 1.1261 2.1886 3.843-0.2374 2.4562-0.8422 3.2912-2.5608 3.5352-1.2375 0.17575-2.25-0.13045-2.25-0.68045zm-22.75-1.8014c-1.5845-0.63934-1.663-7.3377-0.08602-7.3377 0.64019 0 2.8881 0.76069 4.9954 1.6904l3.8314 1.6904-2.1697 2.3096c-2.0985 2.2337-3.9608 2.7006-6.5711 1.6473zm10.75-4.2787c0-1.0675-0.45-2.2191-1-2.559-1.9881-1.2287-0.93469-2.5 2.0714-2.5 3.064 0 5.9286 1.8982 5.9286 3.9286 0 0.58929-0.87344 1.0714-1.941 1.0714s-2.2191 0.45-2.559 1c-1.033 1.6715-2.5 1.1193-2.5-0.94098zm-28.286-12.678c-1.038-1.038-0.87546-6.1629 0.21684-6.838 0.512-0.31643 1.2136-0.11799 1.559 0.44098 1.0678 1.7277 2.5101 1.1225 2.5101-1.0532 0-2.9952 4.3836-2.2498 4.8196 0.81955 0.17575 1.2375-0.13045 2.25-0.68045 2.25s-1.1438 1.0125-1.3196 2.25c-0.23938 1.6855-1.0812 2.3246-3.3555 2.5474-1.6698 0.16357-3.3573-0.023933-3.75-0.41667zm-1.1467-13.306c-2.6258-2.9015-1.6529-5.5162 2.1909-5.8878 2.4824-0.23995 3.2418-0.78654 3.2418-2.3333 0-2.8784 2.4352-1.7399 2.8006 1.3094 0.1653 1.3797-0.3972 3.0876-1.25 3.7953-0.85281 0.70777-1.5506 2.1317-1.5506 3.1644 0 2.4792-3.1709 2.4512-5.4327-0.048041zm3.0295-32.41c-0.42326-2.2561-1.3275-3.6223-2.6215-3.9607-1.1736-0.30692-1.9754-1.3663-1.9754-2.6102 0-1.7076 0.61681-2.0936 3.345-2.0936 3.5633 0 6.655 2.4755 6.655 5.3287 0 0.91919 0.4813 1.6713 1.0696 1.6713s0.92575 1.0125 0.75 2.25c-0.24187 1.703-1.0801 2.324-3.4481 2.5543-2.8569 0.27788-3.1846 0.005317-3.7746-3.1398zm207.75 57.868c0.30982-0.80739 0.13297-1.734-0.39301-2.059-0.52598-0.32508-0.95633 0.33551-0.95633 1.468 0 2.4146 0.55611 2.6582 1.3493 0.59105zm-224.1-11.454 5.75-1.2215v-34.928c0-19.211-0.17356-34.928-0.38569-34.928-2.036 0-13.304 7.9429-17.243 12.155-5.9084 6.3176-15.071 19.616-18.835 27.337-3.6718 7.5319-3.7394 7.8711-2.6496 13.298 0.61511 3.0629 1.7661 6.5574 2.5578 7.7657 0.79169 1.2083 2.9636 5.065 4.8266 8.5706 1.8629 3.5056 3.9953 7.3431 4.7386 8.5278l1.3515 2.154 7.0694-3.7542c3.8882-2.0648 9.6569-4.3039 12.819-4.9757zm-13-13.022c-1.7928-1.4956-2.25-2.9113-2.25-6.9667v-5.0897h3.845c4.7509 0 7.155 2.39 7.155 7.1131 0 2.7538-0.58984 3.8041-2.9043 5.1713-3.4906 2.062-3.0817 2.0779-5.8457-0.22795zm249.35 19.214c-0.33229-0.33229-0.56864 0.25833-0.52522 1.3125 0.04798 1.1649 0.28494 1.4019 0.60416 0.60417 0.28887-0.72188 0.25335-1.5844-0.07894-1.9167zm-166.9-1.2779c0.69801-1.3711 3.2423-6.7679 5.654-11.993 5.0404-10.92 6.2935-15.814 4.2498-16.598-0.74855-0.28725-3.5469-3.7576-6.2185-7.7119-9.2146-13.639-22.094-27.668-28.358-30.889-1.3905-0.71515-3.1228-1.8628-3.8496-2.5503-0.72678-0.6875-1.9092-1.25-2.6276-1.25s-1.8207-0.62004-2.4496-1.3779c-1.7001-2.0485 2.0929-2.7528 5.4488-1.0117 1.4732 0.76428 3.2515 1.3896 3.9519 1.3896 0.70042 0 3.4798 1.4625 6.1764 3.25s5.6048 3.7 6.4626 4.25c10.181 6.5276 16.414 12.639 22.342 21.906 3.4552 5.4013 5.5167 7.0042 5.5167 4.2893 0-2.2419-5.9121-10.752-11.645-16.763-10.126-10.616-30.495-22.351-37.336-21.509-1.9355 0.23818-4.3067 0.46513-5.2692 0.50434-1.6318 0.06647-1.75 2.4256-1.75 34.942v34.871l8.25 0.68062c9.1748 0.75692 20.923 3.9507 24.75 6.7285 3.1848 2.3115 5.1029 1.98 6.7004-1.1579zm-24.582-22.183c-1.7153-1.7544-3.1187-3.7106-3.1187-4.347 0-1.9833 3.6386-5.4632 5.7123-5.4632 4.7201 0 7.1583 7.9971 3.459 11.345-2.4042 2.1758-2.4316 2.1688-6.0526-1.5348zm197.88 20.725c0-0.25565-1.0125-1.0043-2.25-1.6637-2.0402-1.0871-2.122-1.0438-0.87756 0.46482 1.2778 1.549 3.1276 2.2581 3.1276 1.1989z" fill="#eea70b"/>
<path d="m5.5967e-17 430.86 5.5967e-17 -17.138 7.75 0.69806c13.198 1.1888 35.17 5.3227 48.25 9.0778 6.875 1.9738 19.025 4.7659 27 6.2046 27.164 4.9005 52.85 3.0256 85-6.2046 14.733-4.2299 37.651-8.3502 51-9.1691 7.0891-0.4349 13.41-0.01722 24.908 1.6459 14.8 2.1407 19.599 3.186 45.092 9.8228 6.325 1.6466 18.356 3.9753 26.735 5.1749 14.892 2.132 15.544 2.1437 29 0.52092 19.415-2.3414 32.82-4.8945 47.265-9.0015 13.36-3.7986 35.681-8.1458 36.683-7.1442 0.33316 0.33316-0.13422 2.5433-1.0386 4.9115-0.9044 2.3682-1.6444 5.5282-1.6444 7.0223 0 2.5677 0.25594 2.7166 4.6713 2.7166 2.8762 0 5.3498-0.61407 6.437-1.598 1.9278-1.7446 3.8918-1.143 3.8918 1.1922 0 0.81189 0.72675 2.5853 1.615 3.941 1.2429 1.8969 2.482 2.4648 5.3776 2.4648 4.1268 0 5.4924-1.0998 6.5378-5.265 0.90519-3.6066 2.1929-4.2954 4.3614-2.3329 1.0872 0.98389 3.5608 1.598 6.437 1.598 4.4153 0 4.6713-0.14884 4.6713-2.7166 0-1.4941-0.73997-4.6541-1.6444-7.0223-0.90441-2.3682-1.3718-4.5783-1.0386-4.9115 1.0016-1.0016 23.323 3.3457 36.683 7.1442 14.445 4.107 27.85 6.6601 47.265 9.0015 13.457 1.6229 14.104 1.6112 28.908-0.52039 14.546-2.0945 19.347-3.1413 44.826-9.7746 17.412-4.5331 40.458-7.5776 52-6.8695 13.349 0.81894 36.267 4.9392 51 9.1691 6.875 1.9738 19.025 4.7659 27 6.2046 27.164 4.9005 52.85 3.0256 85-6.2046 13.08-3.7551 35.052-7.889 48.25-9.0778l7.75-0.69806v34.276h-896l5.5967e-17 -17.138zm443.77 1.8879c-0.80125-1.2375-1.7616-3.4875-2.1341-5-0.80733-3.2782-1.5531-3.3921-4.912-0.75-1.4708 1.157-4.0568 2-6.1349 2-4.3027 0-4.5028-1.1016-1.5918-8.7607 1.8893-4.9708 1.9995-7.6851 1.9995-49.25v-43.989h-43.989c-41.565 0-44.279 0.1102-49.25 1.9995-7.6376 2.9029-8.7607 2.7054-8.7607-1.54 0-2.069 0.90559-4.7654 2.179-6.4877 1.1984-1.621 1.9859-3.1194 1.75-3.3298-0.23594-0.21044-2.5665-1.3157-5.179-2.4561-4.2051-1.8356-4.75-2.4305-4.75-5.1859s0.54487-3.3503 4.75-5.1859c2.6125-1.1404 4.943-2.2456 5.179-2.4561 0.23593-0.21045-0.55157-1.7089-1.75-3.3298-1.2734-1.7223-2.179-4.4187-2.179-6.4877 0-4.2454 1.1232-4.4429 8.7607-1.54 4.9708 1.8893 7.6851 1.9995 49.25 1.9995h43.989v-43.989c0-41.565-0.1102-44.279-1.9995-49.25-2.9111-7.6591-2.7109-8.7607 1.5918-8.7607 2.0781 0 4.664 0.84303 6.1349 2 3.3589 2.6421 4.1047 2.5282 4.912-0.75 1.166-4.7345 3.3704-7.25 6.3534-7.25 3.2267 0 4.3066 1.1335 5.9547 6.25 1.3912 4.3192 1.8626 4.474 5.3256 1.75 1.4708-1.157 4.0568-2 6.1349-2 4.3027 0 4.5028 1.1016 1.5918 8.7607-1.8893 4.9708-1.9995 7.6851-1.9995 49.25v43.989h43.989c41.565 0 44.279-0.1102 49.25-1.9995 7.6376-2.9029 8.7607-2.7054 8.7607 1.54 0 2.069-0.90559 4.7654-2.179 6.4877-1.1984 1.621-1.9859 3.1194-1.75 3.3298 0.23594 0.21044 2.5665 1.3157 5.179 2.4561 4.2051 1.8356 4.75 2.4305 4.75 5.1859s-0.54487 3.3503-4.75 5.1859c-2.6125 1.1404-4.943 2.2456-5.179 2.4561-0.23593 0.21045 0.55157 1.7089 1.75 3.3298 1.2734 1.7223 2.179 4.4187 2.179 6.4877 0 4.2454-1.1232 4.4429-8.7607 1.54-4.9708-1.8893-7.6851-1.9995-49.25-1.9995h-43.989v43.989c0 41.565 0.1102 44.279 1.9995 49.25 2.9111 7.6591 2.7109 8.7607-1.5918 8.7607-2.0781 0-4.664-0.84303-6.1349-2-3.4631-2.724-3.9344-2.5692-5.3256 1.75-0.66433 2.0625-1.6543 4.3125-2.2 5-1.6556 2.0859-6.3578 1.4962-7.974-1zm6.974 0c0.54567-0.6875 1.5336-2.9312 2.1954-4.9861 0.66181-2.0548 1.5671-3.9609 2.0118-4.2358 0.44467-0.27482 2.4568 0.61891 4.4714 1.9861 3.4533 2.3435 8.5747 3.3803 8.5736 1.7358-2.8e-4 -0.4125-0.90028-3.1173-2-6.0107-1.8918-4.9772-1.9995-7.6852-1.9995-50.25v-44.989h44.989c42.565 0 45.273 0.10775 50.25 1.9995 2.8934 1.0997 5.5982 1.9997 6.0107 2 1.1299 7.6e-4 0.90102-5.7881-0.25711-6.5039-0.55391-0.34233-1.6907-1.9444-2.5262-3.56l-1.5191-2.9376 5.5262-2.444c7.5667-3.3464 7.5667-5.7616 0-9.108l-5.5262-2.444 1.5191-2.9376c0.8355-1.6157 1.9723-3.2177 2.5262-3.56 1.1581-0.71577 1.387-6.5047 0.25711-6.5039-0.4125 2.8e-4 -3.1173 0.90028-6.0107 2-4.9772 1.8918-7.6852 1.9995-50.25 1.9995h-44.989v-44.989c0-42.565 0.10775-45.273 1.9995-50.25 1.0997-2.8934 1.9997-5.5982 2-6.0107 0.0011-1.6446-5.1203-0.60774-8.5736 1.7358-2.0146 1.3672-4.0268 2.2609-4.4714 1.9861-0.44468-0.27482-1.35-2.1809-2.0118-4.2358-1.5187-4.7155-2.7257-6.2361-4.9501-6.2361-1.8427 0-4.9926 3.9581-4.9926 6.2737 0 0.73923-0.57495 2.1303-1.2777 3.0914-1.1973 1.6374-1.5147 1.5865-5.0444-0.80887-3.5374-2.4005-8.6785-3.4706-8.6774-1.8062 2.8e-4 0.4125 0.90028 3.1173 2 6.0107 1.8918 4.9772 1.9995 7.6852 1.9995 50.25v44.989h-44.989c-42.565 0-45.273-0.10775-50.25-1.9995-2.8934-1.0997-5.5982-1.9997-6.0107-2-1.1299-7.6e-4 -0.90102 5.7881 0.25711 6.5039 0.55391 0.34233 1.6907 1.9444 2.5262 3.56l1.5191 2.9376-5.5262 2.444c-4.1835 1.8501-5.5262 2.9566-5.5262 4.554s1.3428 2.7039 5.5262 4.554l5.5262 2.444-1.5191 2.9376c-0.8355 1.6157-1.9723 3.2177-2.5262 3.56-1.1581 0.71577-1.387 6.5047-0.25711 6.5039 0.4125-2.8e-4 3.1173-0.90028 6.0107-2 4.9772-1.8918 7.6852-1.9995 50.25-1.9995h44.989v44.989c0 42.565-0.10775 45.273-1.9995 50.25-1.0997 2.8934-1.9997 5.5982-2 6.0107-0.00111 1.6645 5.1401 0.59434 8.6774-1.8062 3.5297-2.3953 3.8471-2.4462 5.0444-0.80887 0.70272 0.96102 1.2777 2.3521 1.2777 3.0914 0 2.3156 3.1498 6.2737 4.9926 6.2737 0.9694 0 2.209-0.5625 2.7547-1.25zm-6.2896-5.25c-1.3378-3.025-3.0502-5.5-3.8054-5.5-0.75519 0-3.0308 1.125-5.057 2.5-5.786 3.9265-6.7423 3.3929-4.4991-2.5107 1.7717-4.6626 1.9039-8.2055 1.9039-51v-45.989h-45.989c-42.795 0-46.337 0.13226-51 1.9039-5.9036 2.2432-6.4372 1.287-2.5107-4.4991 1.375-2.0262 2.5-4.3018 2.5-5.057 0-0.75518-2.475-2.4676-5.5-3.8054s-5.5-2.9319-5.5-3.5424 2.475-2.2046 5.5-3.5424 5.5-3.0502 5.5-3.8054c0-0.75519-1.125-3.0308-2.5-5.057-3.9265-5.786-3.3929-6.7423 2.5107-4.4991 4.6626 1.7717 8.2055 1.9039 51 1.9039h45.989v-45.989c0-42.795-0.13226-46.337-1.9039-51-2.2432-5.9036-1.287-6.4372 4.4991-2.5107 2.0262 1.375 4.3018 2.5 5.057 2.5 0.75518 0 2.4676-2.475 3.8054-5.5s2.9319-5.5 3.5424-5.5 2.2046 2.475 3.5424 5.5 3.0502 5.5 3.8054 5.5c0.75519 0 3.0308-1.125 5.057-2.5 5.786-3.9265 6.7423-3.3929 4.4991 2.5107-1.7717 4.6626-1.9039 8.2055-1.9039 51v45.989h45.989c42.795 0 46.337-0.13226 51-1.9039 5.9036-2.2432 6.4372-1.287 2.5107 4.4991-1.375 2.0262-2.5 4.3018-2.5 5.057 0 0.75518 2.475 2.4676 5.5 3.8054s5.5 2.9319 5.5 3.5424-2.475 2.2046-5.5 3.5424-5.5 3.0502-5.5 3.8054c0 0.75519 1.125 3.0308 2.5 5.057 3.9265 5.786 3.3929 6.7423-2.5107 4.4991-4.6626-1.7717-8.2055-1.9039-51-1.9039h-45.989v45.989c0 42.795 0.13226 46.337 1.9039 51 2.2432 5.9036 1.287 6.4372-4.4991 2.5107-2.0262-1.375-4.3018-2.5-5.057-2.5-0.75518 0-2.4676 2.475-3.8054 5.5s-2.9319 5.5-3.5424 5.5-2.2046-2.475-3.5424-5.5zm-344.46-34.161c-14.049-1.9138-33.464-5.8139-44-8.8387-13.08-3.7551-35.052-7.889-48.25-9.0778l-7.75-0.69806 1.9498e-15 -41 7.75 0.69806c13.198 1.1888 35.17 5.3227 48.25 9.0778 6.875 1.9738 19.025 4.7659 27 6.2046 27.164 4.9005 52.85 3.0256 85-6.2046 14.733-4.2299 37.651-8.3502 51-9.1691 7.0891-0.4349 13.41-0.01722 24.908 1.6459 14.8 2.1407 19.599 3.186 45.092 9.8228 6.325 1.6466 18.356 3.9753 26.735 5.1749 14.892 2.132 15.544 2.1437 29 0.52092 19.393-2.3388 32.808-4.892 47.265-8.9954 11.562-3.2817 31.908-7.5 36.175-7.5 1.7068 0 1.8251 1.314 1.8251 20.266v20.266l-12.75 2.19c-7.0125 1.2045-18.375 3.7957-25.25 5.7583-14.417 4.1154-27.799 6.668-47.265 9.0156-13.456 1.6228-14.108 1.611-29-0.52092-8.3792-1.1996-20.41-3.5282-26.735-5.1749-25.493-6.6368-30.291-7.6821-45.092-9.8228-11.498-1.6631-17.819-2.0808-24.908-1.6459-13.349 0.81894-36.267 4.9392-51 9.1691-22.728 6.5252-54.585 10.666-68 8.8387zm447-1.2657c-19.19-2.6318-28.742-4.5428-43.002-8.603-6.8738-1.9571-18.235-4.5439-25.248-5.7485l-12.75-2.19v-20.266c0-18.952 0.11834-20.266 1.8251-20.266 4.2669 0 24.613 4.2183 36.175 7.5 14.457 4.1034 27.872 6.6566 47.265 8.9954 13.457 1.6229 14.104 1.6112 28.908-0.52039 14.546-2.0945 19.347-3.1413 44.826-9.7746 17.412-4.5331 40.458-7.5776 52-6.8695 13.349 0.81894 36.267 4.9392 51 9.1691 6.875 1.9738 19.025 4.7659 27 6.2046 27.164 4.9005 52.85 3.0256 85-6.2046 13.08-3.7551 35.052-7.889 48.25-9.0778l7.75-0.69806v41l-7.75 0.69806c-13.198 1.1888-35.17 5.3227-48.25 9.0778-6.875 1.9738-19.025 4.7659-27 6.2046-27.164 4.9005-52.85 3.0256-85-6.2046-6.875-1.9738-19.025-4.7659-27-6.2046-27.164-4.9005-52.85-3.0256-85 6.2046-13.583 3.8997-36.08 8.0719-48 8.9021-4.6677 0.32508-12.598-0.17686-21-1.3291zm-447-78.734c-14.049-1.9138-33.464-5.8139-44-8.8387-13.08-3.7551-35.052-7.889-48.25-9.0778l-7.75-0.69806 1.9498e-15 -41 7.75 0.69806c13.198 1.1888 35.17 5.3227 48.25 9.0778 6.875 1.9738 19.025 4.7659 27 6.2046 27.164 4.9005 52.85 3.0256 85-6.2046 14.733-4.2299 37.651-8.3502 51-9.1691 7.0891-0.4349 13.41-0.01722 24.908 1.6459 14.8 2.1407 19.599 3.186 45.092 9.8228 6.325 1.6466 18.356 3.9753 26.735 5.1749 14.892 2.132 15.544 2.1437 29 0.52092 19.393-2.3388 32.808-4.892 47.265-8.9954 11.562-3.2817 31.908-7.5 36.175-7.5 1.701 0 1.8251 1.2576 1.8251 18.5v18.5h-42.989c-40.565 0-43.286-0.11276-48.25-1.9995-2.8934-1.0997-6.4982-1.9997-8.0107-2-2.6242-4.8e-4 -2.75 0.22263-2.75 4.8771 0 3.1156 0.54184 5.3272 1.5 6.1224 2.3385 1.9408 1.8387 2.7566-3 4.897-4.1319 1.8277-4.5 2.2852-4.5 5.5921 0 3.5053-0.08687 3.5874-3.25 3.0718-17.937-2.9238-28.166-5.0565-38.75-8.0794-40.865-11.672-71.299-11.667-112 0.01854-22.728 6.5252-54.585 10.666-68 8.8387zm662.5-1.3901c-12.619-1.951-19.449-3.4812-43.5-9.7464-17.404-4.5337-40.455-7.5796-52-6.8713-13.294 0.81554-36.219 4.9288-51 9.1506-10.584 3.0229-20.813 5.1556-38.75 8.0794-3.1631 0.5156-3.25 0.43349-3.25-3.0718 0-3.3069-0.36811-3.7644-4.5-5.5921-4.8387-2.1404-5.3385-2.9562-3-4.897 0.95816-0.7952 1.5-3.0068 1.5-6.1224 0-4.6544-0.1258-4.8775-2.75-4.8771-1.5125 2.8e-4 -5.1173 0.90028-8.0107 2-4.964 1.8867-7.685 1.9995-48.25 1.9995h-42.989v-18.5c0-17.242 0.12407-18.5 1.8251-18.5 4.2669 0 24.613 4.2183 36.175 7.5 14.457 4.1034 27.872 6.6566 47.265 8.9954 13.457 1.6229 14.104 1.6112 28.908-0.52039 14.546-2.0945 19.347-3.1413 44.826-9.7746 17.412-4.5331 40.458-7.5776 52-6.8695 13.349 0.81894 36.267 4.9392 51 9.1691 6.875 1.9738 19.025 4.7659 27 6.2046 27.164 4.9005 52.85 3.0256 85-6.2046 13.08-3.7551 35.052-7.889 48.25-9.0778l7.75-0.69806v41l-7.75 0.69806c-13.198 1.1888-35.17 5.3227-48.25 9.0778-29.071 8.3463-55.354 10.872-77.5 7.4486zm-662.5-78.61c-14.049-1.9138-33.464-5.8139-44-8.8387-13.08-3.7551-35.052-7.889-48.25-9.0778l-7.75-0.69806 1.9498e-15 -41 7.75 0.69806c13.198 1.1888 35.17 5.3227 48.25 9.0778 6.875 1.9738 19.025 4.7659 27 6.2046 27.164 4.9005 52.85 3.0256 85-6.2046 14.733-4.2299 37.651-8.3502 51-9.1691 7.0891-0.4349 13.41-0.01722 24.908 1.6459 14.8 2.1407 19.599 3.186 45.092 9.8228 6.325 1.6466 18.356 3.9753 26.735 5.1749 14.892 2.132 15.544 2.1437 29 0.52092 19.466-2.3476 32.849-4.9002 47.265-9.0158 6.875-1.9626 19.025-4.7455 27-6.1842 27.139-4.8959 52.701-3.0361 85 6.1842 14.417 4.1155 27.799 6.6681 47.265 9.0158 13.456 1.6228 14.108 1.611 29-0.52092 8.3792-1.1996 20.41-3.5282 26.735-5.1749 25.493-6.6368 30.291-7.6821 45.092-9.8228 11.498-1.6631 17.819-2.0808 24.908-1.6459 13.349 0.81894 36.267 4.9392 51 9.1691 40.718 11.69 71.282 11.69 112 0 13.08-3.7551 35.052-7.889 48.25-9.0778l7.75-0.69806v41l-7.75 0.69806c-13.198 1.1888-35.17 5.3227-48.25 9.0778-6.875 1.9738-19.025 4.7659-27 6.2046-27.164 4.9005-52.85 3.0256-85-6.2046-14.733-4.2299-37.651-8.3502-51-9.1691-7.0891-0.4349-13.41-0.01722-24.908 1.6459-14.8 2.1407-19.599 3.186-45.092 9.8228-6.325 1.6466-18.356 3.9753-26.735 5.1749-14.892 2.132-15.544 2.1437-29 0.52092-19.466-2.3476-32.848-4.9002-47.265-9.0156-6.875-1.9625-18.238-4.5537-25.25-5.7583l-12.75-2.19v-4.755c0-2.6153 0.89977-7.1223 1.9995-10.016 1.0997-2.8934 1.9997-6.4982 2-8.0107 4.7e-4 -2.6076-0.24138-2.75-4.6708-2.75-2.8762 0-5.3498 0.61407-6.437 1.598-2.1685 1.9624-3.4562 1.2737-4.3614-2.3329-1.0454-4.1652-2.4111-5.265-6.5378-5.265-2.8956 0-4.1347 0.56795-5.3776 2.4648-0.88826 1.3556-1.615 3.1291-1.615 3.941 0 2.3352-1.964 2.9368-3.8918 1.1922-1.0872-0.98389-3.5608-1.598-6.437-1.598-4.4294 0-4.6712 0.1424-4.6708 2.75 2.8e-4 1.5125 0.90028 5.1173 2 8.0107 1.0997 2.8934 1.9995 7.4005 1.9995 10.016v4.755l-12.75 2.19c-7.0125 1.2045-18.375 3.7957-25.25 5.7583-14.417 4.1154-27.799 6.668-47.265 9.0156-13.456 1.6228-14.108 1.611-29-0.52092-8.3792-1.1996-20.41-3.5282-26.735-5.1749-25.493-6.6368-30.291-7.6821-45.092-9.8228-11.498-1.6631-17.819-2.0808-24.908-1.6459-13.349 0.81894-36.267 4.9392-51 9.1691-22.728 6.5252-54.585 10.666-68 8.8387zm-100-151.34v-82h896v164h-896v-82zm404.14 61.17c7.0882-1.9655 21.008-9.5948 25.255-13.842 3.2856-3.2856 3.5523-8.5467 0.54021-10.656-1.9505-1.3662-1.7813-1.5094 3.1911-2.7023 5.2147-1.251 28.466-0.81299 33.619 0.63329 3.1566 0.88594 2.7992 2.3384-0.75 3.0482-8.287 1.6574 1.3493 11.344 21 21.111 2.9434 1.4628 6.2832 1.728 21 1.6677 9.9663-0.04088 20.083-0.61559 23.5-1.335 12.682-2.6701 25.777-10.865 31.698-19.836 3.4341-5.2041 15.017-24.938 17.367-29.587 2.2833-4.5183 5.5567-8.2044 10.588-11.923 4.0399-2.9859 7.9192-3.5951 12.111-1.9018 3.3828 1.3665 15.736 13.015 15.736 14.839 0 1.4565 1.6403 1.8096 2.1667 0.4664 0.5946-1.5172 8.8788-6.2394 9.8705-5.6265 1.8543 1.146 0.92658 3.2644-3.4133 7.7939l-4.3761 4.5673 2.1905 2.0579c1.2048 1.1318 2.6689 2.0579 3.2536 2.0579s1.5955 0.64147 2.2461 1.4255c0.65068 0.78401 2.9558 2.3026 5.1224 3.3745 3.825 1.8925 3.9394 1.8946 3.9394 0.07452 0-1.031-0.58367-1.8745-1.297-1.8745-1.7777 0-9.1037-7.6343-7.9877-8.324 0.96327-0.59534 2.6099 0.23287 9.2312 4.6429 3.9417 2.6254 4.3194 2.6998 5.5011 1.0838 1.0411-1.4238 0.98261-2.2337-0.32623-4.5143-0.87725-1.5285-2.4337-2.9984-3.4587-3.2665-2.6596-0.6955-1.0605-2.622 2.1764-2.622 2.3396 0 2.9927 0.70052 4.6611 5 1.0672 2.75 2.3501 5 2.851 5 0.84771 0 0.60434-2.3238-0.97844-9.3423-0.60285-2.6732-0.51783-2.7654 1.429-1.5496 2.1465 1.3405 3.1613 3.7755 3.1848 7.6419 0.00751 1.2375 0.41551 2.25 0.90666 2.25 1.3206 0 2.2386-3.0101 1.5651-5.1319-0.95531-3.0099 0.48488-4.2296 2.6648-2.2568 1.4718 1.3319 2.2001 1.4657 3.097 0.56889 0.89684-0.89683 0.71488-1.5188-0.77363-2.6446-1.0704-0.80957-2.7106-1.4863-3.6447-1.5037-0.93416-0.017491-2.9124-1.1568-4.396-2.5318s-3.1904-2.5-3.7927-2.5c-2.0664 0-16.114-7.3734-21.113-11.082-2.75-2.0401-7.475-4.5086-10.5-5.4854s-7.4076-2.5988-9.7391-3.6043c-5.5424-2.3902-19.261-2.6239-19.261-0.32817 0 1.1111 1.1667 1.5 4.5 1.5 2.475 0 4.5 0.25714 4.5 0.57143 0 1.0106-2.8198 3.4286-3.9984 3.4286-1.9317 0-9.3372 5.5532-13.524 10.142-2.1874 2.397-5.0385 6.6082-6.3358 9.3582-1.2972 2.75-2.7442 5.675-3.2156 6.5s-2.4896 4.762-4.4852 8.749-4.08 7.5282-4.6322 7.8694c-0.55219 0.34127-2.2834 2.6379-3.8471 5.1036-2.9268 4.6152-12.653 12.416-18.557 14.882-3.8495 1.6084-9.0139 1.8366-9.8792 0.43653-0.32602-0.52751 2.05-3.6432 5.2799-6.9237 4.5658-4.6373 7.2422-8.74 12.027-18.437 6.2443-12.654 7.5321-16.65 5.5901-17.346-1.2249-0.43887-2.5457 2.1717-6.1554 12.166-1.3905 3.85-3.482 8.2094-4.6476 9.6876s-2.9152 3.8239-3.8879 5.2127c-3.0982 4.4237-14.326 11.686-20.166 13.043-10.072 2.3414-20.62-1.3385-30.694-10.709-5.8736-5.4631-11.972-7.937-23.158-9.3936-2.8346-0.36912-4.6376-1.0756-4.4217-1.7324 0.49961-1.5194 4.5524-1.9938 7.1073-0.83199 5.378 2.4456 7.3675 3.1003 10.908 3.5897 6.4822 0.89584 8.5082-1.382 5.1628-5.8048-1.3171-1.7413-1.2454-2.1727 0.70612-4.25 1.1946-1.2716 2.6782-2.312 3.2968-2.312 0.61863 0 1.7245-1.6875 2.4574-3.75 0.73294-2.0625 3.4659-8.25 6.0732-13.75 6.476-13.661 6.5347-13.919 3.6609-16.142-1.3208-1.0217-4.3465-4.7826-6.7238-8.3576-5.2142-7.8412-12.713-17.075-18.251-22.473-4.6974-4.5786-14.601-11.521-16.44-11.525-0.6875-0.00131-1.25-0.50487-1.25-1.119 0-3.6353 22.572 8.7764 31.855 17.516 4.58 4.312 10.709 12.209 13.079 16.851 1.4737 2.8869 3.5932 3.6197 4.3389 1.5 1.8988-5.3973-15.034-24.336-28.273-31.623-13.834-7.6147-16.634-8.6301-22.85-8.2877l-6.1505 0.33882-0.02273 14.411c-0.0125 7.9261-0.02272 23.186-0.02272 33.911s0.01022 20.335 0.02272 21.357c0.0198 1.6171 1.1729 1.9433 8.9416 2.5298 11.676 0.88142 26.081 5.1495 26.081 7.7276 0 1.5061-7.6672 0.99194-8.9909-0.60293-0.67967-0.81894-1.5985-1.2648-2.0418-0.99081-0.44334 0.274-1.4852-0.18096-2.3153-1.011-1.7178-1.7178-11.161-2.1135-12.152-0.50919-1.0163 1.6443-4.0671 1.1359-6-1-0.99549-1.1-3.0637-2-4.596-2-3.1816 0-4.6552-1.4978-2.3456-2.384 1.1814-0.45336 1.4754-1.8308 1.2443-5.8305-0.24603-4.2571-0.72146-5.4447-2.5412-6.3477l-2.2385-1.1108 2.4885-2.3378c2.8011-2.6315 3.2335-6.1261 0.98851-7.9892-1.0371-0.86073-1.5-3.1512-1.5-7.4224 0-3.3977-0.52328-6.7008-1.1628-7.3404-0.88379-0.88379-0.52382-1.4058 1.5-2.1752 2.2797-0.86675 2.6628-1.596 2.6628-5.0685 0-2.683-0.50781-4.251-1.5-4.6317-0.825-0.31658-1.5-1.4009-1.5-2.4096s-0.45-2.1121-1-2.452-1-1.4915-1-2.559 0.45-1.941 1-1.941c1.6773 0 1.1508-8.1759-0.65499-10.171-2.2697-2.508-9.4358-2.4909-11.715 0.027877-1.4999 1.6574-1.5166 1.9924-0.15499 3.1224 0.83888 0.6962 1.5252 2.1107 1.5252 3.1434s0.45 1.8776 1 1.8776c2.1342 0 0.97891 3.8639-1.25 4.1804-1.8228 0.25888-2.3103 1.0552-2.5678 4.1941-0.2565 3.1273 0.21972 4.4356 2.4694 6.7838 2.3874 2.4919 2.6123 3.1894 1.5678 4.8619-0.6707 1.074-1.2194 3.0287-1.2194 4.3438s-0.675 2.9513-1.5 3.636c-2.0945 1.7383-1.8841 2.9896 1.0106 6.011l2.5106 2.6205-2.5106 2.3586c-2.9776 2.7973-3.4037 8.3656-0.85558 11.181 1.54 1.7017 1.54 1.9558 0 3.6575-2.3738 2.6231-2.0407 6.4603 0.79196 9.1214 2.2246 2.0899 2.3041 2.4416 0.87543 3.8703-1.683 1.683-7.8889 1.7842-9.8452 0.16056-0.61576-0.51104-3.4191-0.65681-6.2296-0.32394-6.1961 0.73384-12.248 5.139-12.248 8.9157 0 3.3991 0.95278 3.0699 6-2.0728 4.6298-4.7175 7-5.6629 7-2.7922 0 1.9386-6.7904 9.2922-8.5805 9.2922-2.3931 0-3.4705 2.5519-1.9344 4.582 0.79819 1.0549 1.4656 1.3858 1.4831 0.73535 0.01749-0.65044 1.0443-1.4973 2.2818-1.8819 1.2375-0.38459 3.7342-2.2149 5.5481-4.0674 1.814-1.8525 3.6423-3.3681 4.0629-3.3681 0.42062 0 2.0582 1.35 3.639 3 2.5678 2.6802 2.6677 3.0122 0.93709 3.114-5.3898 0.31725-7.86 0.96882-11.719 3.091-3.5392 1.9465-4.2706 2.8816-4.5429 5.8075-0.55602 5.975-5.4552 9.7335-18.097 13.884-7.042 2.3118-19.773 2.8724-23.229 1.0228-6.2216-3.3297-24.006-20.245-29.214-27.786-2.8241-4.0894-6.6691-9.6551-8.5444-12.368-1.8753-2.713-7.1459-9.1293-11.712-14.258-6.2583-7.0292-9.6512-9.9634-13.778-11.916-3.0116-1.4247-6.3135-2.5904-7.3375-2.5904-1.0241 0-2.4185-0.55658-3.0988-1.2368-0.77136-0.77136-4.1397-1.2317-8.95-1.2233-7.3254 0.012855-8.1807 0.26356-17.013 4.9868-5.1151 2.7353-11.553 6.673-14.306 8.7503-4.6504 3.5089-5.3472 3.7317-9.8155 3.139-3.6587-0.48535-5.4338-0.22916-7.4173 1.0705-1.9879 1.3025-3.7427 1.554-7.3842 1.0581-5.9212-0.80626-9.606 1.1487-7.3313 3.8896 0.95037 1.1451 1.6891 1.3314 2.4122 0.60821 0.57331-0.57331 2.7781-1.0424 4.8996-1.0424s5.8766-0.50849 8.3447-1.13c3.9995-1.0071 4.6423-0.92553 5.911 0.75 0.78292 1.034 1.4378 2.1114 1.4553 2.3941 0.01749 0.28279-2.867 0.5514-6.4101 0.59691-6.0831 0.078137-11.558 2.0831-11.558 4.2327 0 1.498 17.375 0.037262 19.256-1.6189 2.1341-1.8786 3.1596-1.11 2.2678 1.6998-0.56259 1.7725-1.5243 2.0936-6.5913 2.2004-3.2629 0.06875-6.3826 0.2375-6.9326 0.375s-1.45 0.30625-2 0.375-1 1.0742-1 2.2344c0 1.8849 0.39918 2.0411 3.75 1.4682 7.5877-1.2975 17.772-2.3405 18.516-1.8964 1.8071 1.0778-0.74949 2.2194-7.5199 3.3579-3.9856 0.67021-8.1464 1.5643-9.2464 1.9868-1.8342 0.7045-1.7585 0.86273 0.91226 1.9081 2.3266 0.91066 3.5637 0.83082 6.1511-0.39702 1.7814-0.84532 5.1959-1.5686 7.5877-1.6072 6.3166-0.10208 8.0819-1.0775 8.4767-4.6838 0.24284-2.2182-0.38027-3.9867-2.1427-6.0812-2.329-2.7679-3.4483-8.1647-1.6933-8.1647 0.43549 0 2.7792 2.025 5.2082 4.5s5.2038 4.5 6.166 4.5c1.0112 0 2.8413-1.8627 4.3361-4.4135 3.4252-5.8446 10.822-12.586 13.81-12.586 4.1104 0 12.132 9.8239 22.454 27.5 5.6485 9.6728 18.616 24.161 26.141 29.205 6.055 4.0594 9.5704 5.395 24.594 9.3446 10.027 2.636 36.322 2.7051 45.645 0.11989zm-46.645-3.8108c-6.2074-1.2703-13.244-3.685-19.455-6.6763-5.9758-2.878-24.748-23.087-27.761-29.886-2.7607-6.2291-14.737-23.076-18.846-26.511-6.314-5.2779-5.9504-6.729 1.4913-5.9512 3.261 0.34084 7.4235 1.4603 9.25 2.4877 6.7473 3.7953 18.632 16.865 28.821 31.695 8.9807 13.071 22.857 27.698 29.75 31.358 1.2375 0.65714 2.25 1.854 2.25 2.6596 0 1.4313-1.4611 1.6501-5.5 0.82353zm76.25-28.013c-3.3676-0.94766-1.7098-2.3458 2.7814-2.3458 3.1054 0 4.7125-0.47203 5.107-1.5 0.83926-2.1871 2.6922-1.8415 5.3616 1l2.3486 2.5h-4.0493c-2.2271 0-5.3431 0.18861-6.9243 0.41913s-3.6625 0.19752-4.625-0.07332zm41.25-2.3458c0-0.55-0.9-1-2-1s-2-0.25714-2-0.57143c0-1.4632 3.1118-3.4286 5.4286-3.4286 2.1905 0 2.5714 0.44444 2.5714 3 0 2.3333-0.44444 3-2 3-1.1 0-2-0.45-2-1zm-49.327-3.8193c-3.0176-3.1497-2.7947-4.1177 0.79057-3.4324 2.9069 0.5557 5.9904 3.708 5.0753 5.1887-1.1006 1.7807-3.0308 1.2028-5.8658-1.7563zm25.689 1.3193c-1.2437-3.2411 2.3959-6.3194 4.1384-3.5 0.33992 0.55 1.4915 1 2.559 1 2.3106 0 2.4391 0.64474 0.51241 2.5714-1.8783 1.8783-6.4791 1.8327-7.2098-0.07143zm-14.723-2.3471c-1.5744-1.7397-1.5173-2.0013 0.98138-4.5 2.9509-2.9509 6.7408-3.4352 9.0231-1.1529 1.3333 1.3333 1.3333 1.6667 0 3-0.825 0.825-2.2213 1.5-3.1028 1.5-0.88154 0-1.8618 0.675-2.1784 1.5-0.77878 2.0294-2.7003 1.8882-4.7232-0.34706zm26.362-0.57115c0-0.78002-0.27314-2.13-0.60699-3-0.81594-2.1263 3.8704-2.1743 5.627-0.05762 0.69572 0.83829 1.0883 1.6258 0.87244 1.75-5.538 3.1864-5.8925 3.2651-5.8925 1.3076zm177.64-2.2756c-1.1262-1.1262-0.68589-2.3062 0.86052-2.3062 0.825 0 1.5 0.42344 1.5 0.94098 0 1.261-1.5616 2.1641-2.3605 1.3652zm-205.64-13.506c0-2.4889 0.26667-2.9333 1.2-2 1.7699 1.7699 2.622 1.4726 2.9804-1.0398 0.37283-2.6132 3.2999-3.5568 4.1512-1.3382 0.32084 0.83608-0.07254 2.176-0.87417 2.9777-0.80163 0.80163-1.4575 2.1647-1.4575 3.0289 0 1.0794-0.93939 1.5714-3 1.5714-2.7083 0-3-0.31111-3-3.2zm-1.443-10.737c-2.234-2.4686-1.2522-4.063 2.502-4.063 2.2445 0 2.941-0.45966 2.941-1.941 0-1.0675 0.45-2.2191 1-2.559 0.59512-0.3678 1 0.82295 1 2.941 0 1.9575-0.45 3.559-1 3.559s-1 0.9-1 2c0 2.6029-3.1118 2.6389-5.443 0.063013zm31.945-3.1151c-3.1664-3.1027-2.9572-4.9966 0.81491-7.376 3.9522-2.493 7.7952 5.4588 4.3185 8.9356-1.8554 1.8554-1.5552 1.9467-5.1334-1.5596zm-30.645-11.947-2.6427-2.8619 5.6787-5.0598 1.5534 3.1138c1.9139 3.8364 1.9283 4.5744 0.1248 6.378-1.7783 1.7783-1.5528 1.8535-4.7142-1.5701zm2.1427-17.026c0-2.3317-0.59147-3.2496-2.5813-4.0062-3.0132-1.1456-2.7464-3.3246 0.46465-3.7959 2.8087-0.41217 4.4636 0.96126 6.9835 5.7959 2.2598 4.3356 1.9788 5.0309-2.0336 5.0309-2.4866 0-2.8333-0.37012-2.8333-3.0248zm0-13.916c0-1.6175-0.45-3.2191-1-3.559-1.6074-0.99345-1.1622-4.5 0.57143-4.5 2.3806 0 4.4286 2.5434 4.4286 5.5 0 2.3748-1.9482 5.5-3.4286 5.5-0.31429 0-0.57143-1.3234-0.57143-2.941zm22.471 100.59c1.1548-0.84442 1.6109-1.9878 1.2099-3.0329-0.55909-1.457-2.1254-1.6403-11.912-1.3946-9.1211 0.22901-11.269 0.56317-11.269 1.7534 0 0.80875 1.125 2.0396 2.5 2.7353 3.4097 1.725 17.087 1.6821 19.471-0.06112zm-56.55-31.015c2.7167-2.3581 10.491-6.3101 13.601-6.9139 1.6377-0.31798 4.5527-0.96493 6.4777-1.4377l3.5-0.8595 0.26263-35.709c0.2302-31.299 0.07611-35.709-1.2477-35.709-1.6135 0-10.136 5.6764-14.902 9.9258-7.5775 6.7555-23.129 30.533-24.946 38.142-0.68282 2.8593 2.0086 10.827 5.6465 16.716 1.2626 2.044 3.786 6.7538 5.6074 10.466 1.8214 3.7125 3.5615 6.75 3.8668 6.75 0.30532 0 1.2656-0.61667 2.1339-1.3704zm4.2787-22.83c-0.66-0.66-1.2-3.135-1.2-5.5 0-4.0591 0.15942-4.3 2.845-4.3 3.3524 0 6.155 2.7176 6.155 5.9685 0 3.9459-5.1539 6.4776-7.8 3.8315z" fill="#fb120c"/>
<path d="m5.5967e-17 430.86 5.5967e-17 -17.138 7.75 0.69806c13.198 1.1888 35.17 5.3227 48.25 9.0778 6.875 1.9738 19.025 4.7659 27 6.2046 27.164 4.9005 52.85 3.0256 85-6.2046 14.733-4.2299 37.651-8.3502 51-9.1691 7.0891-0.4349 13.41-0.01722 24.908 1.6459 14.8 2.1407 19.599 3.186 45.092 9.8228 6.325 1.6466 18.356 3.9753 26.735 5.1749 14.892 2.132 15.544 2.1437 29 0.52092 19.415-2.3414 32.82-4.8945 47.265-9.0015 13.36-3.7986 35.681-8.1458 36.683-7.1442 0.33316 0.33316-0.13422 2.5433-1.0386 4.9115-0.9044 2.3682-1.6444 5.5282-1.6444 7.0223 0 2.5677 0.25594 2.7166 4.6713 2.7166 2.8762 0 5.3498-0.61407 6.437-1.598 1.9278-1.7446 3.8918-1.143 3.8918 1.1922 0 0.81189 0.72675 2.5853 1.615 3.941 1.2429 1.8969 2.482 2.4648 5.3776 2.4648 4.1268 0 5.4924-1.0998 6.5378-5.265 0.90519-3.6066 2.1929-4.2954 4.3614-2.3329 1.0872 0.98389 3.5608 1.598 6.437 1.598 4.4153 0 4.6713-0.14884 4.6713-2.7166 0-1.4941-0.73997-4.6541-1.6444-7.0223-0.90441-2.3682-1.3718-4.5783-1.0386-4.9115 1.0016-1.0016 23.323 3.3457 36.683 7.1442 14.445 4.107 27.85 6.6601 47.265 9.0015 13.457 1.6229 14.104 1.6112 28.908-0.52039 14.546-2.0945 19.347-3.1413 44.826-9.7746 17.412-4.5331 40.458-7.5776 52-6.8695 13.349 0.81894 36.267 4.9392 51 9.1691 6.875 1.9738 19.025 4.7659 27 6.2046 27.164 4.9005 52.85 3.0256 85-6.2046 13.08-3.7551 35.052-7.889 48.25-9.0778l7.75-0.69806v34.276h-896l5.5967e-17 -17.138zm444.46-3.3621c-1.3378-3.025-3.0502-5.5-3.8054-5.5-0.75519 0-3.0308 1.125-5.057 2.5-5.786 3.9265-6.7423 3.3929-4.4991-2.5107 1.7717-4.6626 1.9039-8.2055 1.9039-51v-45.989h-45.989c-42.795 0-46.337 0.13226-51 1.9039-5.9036 2.2432-6.4372 1.287-2.5107-4.4991 1.375-2.0262 2.5-4.3018 2.5-5.057 0-0.75518-2.475-2.4676-5.5-3.8054s-5.5-2.9319-5.5-3.5424 2.475-2.2046 5.5-3.5424 5.5-3.0502 5.5-3.8054c0-0.75519-1.125-3.0308-2.5-5.057-3.9265-5.786-3.3929-6.7423 2.5107-4.4991 4.6626 1.7717 8.2055 1.9039 51 1.9039h45.989v-45.989c0-42.795-0.13226-46.337-1.9039-51-2.2432-5.9036-1.287-6.4372 4.4991-2.5107 2.0262 1.375 4.3018 2.5 5.057 2.5 0.75518 0 2.4676-2.475 3.8054-5.5s2.9319-5.5 3.5424-5.5 2.2046 2.475 3.5424 5.5 3.0502 5.5 3.8054 5.5c0.75519 0 3.0308-1.125 5.057-2.5 5.786-3.9265 6.7423-3.3929 4.4991 2.5107-1.7717 4.6626-1.9039 8.2055-1.9039 51v45.989h45.989c42.795 0 46.337-0.13226 51-1.9039 5.9036-2.2432 6.4372-1.287 2.5107 4.4991-1.375 2.0262-2.5 4.3018-2.5 5.057 0 0.75518 2.475 2.4676 5.5 3.8054s5.5 2.9319 5.5 3.5424-2.475 2.2046-5.5 3.5424-5.5 3.0502-5.5 3.8054c0 0.75519 1.125 3.0308 2.5 5.057 3.9265 5.786 3.3929 6.7423-2.5107 4.4991-4.6626-1.7717-8.2055-1.9039-51-1.9039h-45.989v45.989c0 42.795 0.13226 46.337 1.9039 51 2.2432 5.9036 1.287 6.4372-4.4991 2.5107-2.0262-1.375-4.3018-2.5-5.057-2.5-0.75518 0-2.4676 2.475-3.8054 5.5s-2.9319 5.5-3.5424 5.5-2.2046-2.475-3.5424-5.5zm-344.46-34.161c-14.049-1.9138-33.464-5.8139-44-8.8387-13.08-3.7551-35.052-7.889-48.25-9.0778l-7.75-0.69806 1.9498e-15 -41 7.75 0.69806c13.198 1.1888 35.17 5.3227 48.25 9.0778 6.875 1.9738 19.025 4.7659 27 6.2046 27.164 4.9005 52.85 3.0256 85-6.2046 14.733-4.2299 37.651-8.3502 51-9.1691 7.0891-0.4349 13.41-0.01722 24.908 1.6459 14.8 2.1407 19.599 3.186 45.092 9.8228 6.325 1.6466 18.356 3.9753 26.735 5.1749 14.892 2.132 15.544 2.1437 29 0.52092 19.393-2.3388 32.808-4.892 47.265-8.9954 11.562-3.2817 31.908-7.5 36.175-7.5 1.7068 0 1.8251 1.314 1.8251 20.266v20.266l-12.75 2.19c-7.0125 1.2045-18.375 3.7957-25.25 5.7583-14.417 4.1154-27.799 6.668-47.265 9.0156-13.456 1.6228-14.108 1.611-29-0.52092-8.3792-1.1996-20.41-3.5282-26.735-5.1749-25.493-6.6368-30.291-7.6821-45.092-9.8228-11.498-1.6631-17.819-2.0808-24.908-1.6459-13.349 0.81894-36.267 4.9392-51 9.1691-22.728 6.5252-54.585 10.666-68 8.8387zm447-1.2657c-19.19-2.6318-28.742-4.5428-43.002-8.603-6.8738-1.9571-18.235-4.5439-25.248-5.7485l-12.75-2.19v-20.266c0-18.952 0.11834-20.266 1.8251-20.266 4.2669 0 24.613 4.2183 36.175 7.5 14.457 4.1034 27.872 6.6566 47.265 8.9954 13.457 1.6229 14.104 1.6112 28.908-0.52039 14.546-2.0945 19.347-3.1413 44.826-9.7746 17.412-4.5331 40.458-7.5776 52-6.8695 13.349 0.81894 36.267 4.9392 51 9.1691 6.875 1.9738 19.025 4.7659 27 6.2046 27.164 4.9005 52.85 3.0256 85-6.2046 13.08-3.7551 35.052-7.889 48.25-9.0778l7.75-0.69806v41l-7.75 0.69806c-13.198 1.1888-35.17 5.3227-48.25 9.0778-6.875 1.9738-19.025 4.7659-27 6.2046-27.164 4.9005-52.85 3.0256-85-6.2046-6.875-1.9738-19.025-4.7659-27-6.2046-27.164-4.9005-52.85-3.0256-85 6.2046-13.583 3.8997-36.08 8.0719-48 8.9021-4.6677 0.32508-12.598-0.17686-21-1.3291zm-447-78.734c-14.049-1.9138-33.464-5.8139-44-8.8387-13.08-3.7551-35.052-7.889-48.25-9.0778l-7.75-0.69806 1.9498e-15 -41 7.75 0.69806c13.198 1.1888 35.17 5.3227 48.25 9.0778 6.875 1.9738 19.025 4.7659 27 6.2046 27.164 4.9005 52.85 3.0256 85-6.2046 14.733-4.2299 37.651-8.3502 51-9.1691 7.0891-0.4349 13.41-0.01722 24.908 1.6459 14.8 2.1407 19.599 3.186 45.092 9.8228 6.325 1.6466 18.356 3.9753 26.735 5.1749 14.892 2.132 15.544 2.1437 29 0.52092 19.393-2.3388 32.808-4.892 47.265-8.9954 11.562-3.2817 31.908-7.5 36.175-7.5 1.701 0 1.8251 1.2576 1.8251 18.5v18.5h-42.989c-40.565 0-43.286-0.11276-48.25-1.9995-2.8934-1.0997-6.4982-1.9997-8.0107-2-2.6242-4.8e-4 -2.75 0.22263-2.75 4.8771 0 3.1156 0.54184 5.3272 1.5 6.1224 2.3385 1.9408 1.8387 2.7566-3 4.897-4.1319 1.8277-4.5 2.2852-4.5 5.5921 0 3.5053-0.08687 3.5874-3.25 3.0718-17.937-2.9238-28.166-5.0565-38.75-8.0794-40.865-11.672-71.299-11.667-112 0.01854-22.728 6.5252-54.585 10.666-68 8.8387zm662.5-1.3901c-12.619-1.951-19.449-3.4812-43.5-9.7464-17.404-4.5337-40.455-7.5796-52-6.8713-13.294 0.81554-36.219 4.9288-51 9.1506-10.584 3.0229-20.813 5.1556-38.75 8.0794-3.1631 0.5156-3.25 0.43349-3.25-3.0718 0-3.3069-0.36811-3.7644-4.5-5.5921-4.8387-2.1404-5.3385-2.9562-3-4.897 0.95816-0.7952 1.5-3.0068 1.5-6.1224 0-4.6544-0.1258-4.8775-2.75-4.8771-1.5125 2.8e-4 -5.1173 0.90028-8.0107 2-4.964 1.8867-7.685 1.9995-48.25 1.9995h-42.989v-18.5c0-17.242 0.12407-18.5 1.8251-18.5 4.2669 0 24.613 4.2183 36.175 7.5 14.457 4.1034 27.872 6.6566 47.265 8.9954 13.457 1.6229 14.104 1.6112 28.908-0.52039 14.546-2.0945 19.347-3.1413 44.826-9.7746 17.412-4.5331 40.458-7.5776 52-6.8695 13.349 0.81894 36.267 4.9392 51 9.1691 6.875 1.9738 19.025 4.7659 27 6.2046 27.164 4.9005 52.85 3.0256 85-6.2046 13.08-3.7551 35.052-7.889 48.25-9.0778l7.75-0.69806v41l-7.75 0.69806c-13.198 1.1888-35.17 5.3227-48.25 9.0778-29.071 8.3463-55.354 10.872-77.5 7.4486zm-662.5-78.61c-14.049-1.9138-33.464-5.8139-44-8.8387-13.08-3.7551-35.052-7.889-48.25-9.0778l-7.75-0.69806 1.9498e-15 -41 7.75 0.69806c13.198 1.1888 35.17 5.3227 48.25 9.0778 6.875 1.9738 19.025 4.7659 27 6.2046 27.164 4.9005 52.85 3.0256 85-6.2046 14.733-4.2299 37.651-8.3502 51-9.1691 7.0891-0.4349 13.41-0.01722 24.908 1.6459 14.8 2.1407 19.599 3.186 45.092 9.8228 6.325 1.6466 18.356 3.9753 26.735 5.1749 14.892 2.132 15.544 2.1437 29 0.52092 19.466-2.3476 32.849-4.9002 47.265-9.0158 6.875-1.9626 19.025-4.7455 27-6.1842 27.139-4.8959 52.701-3.0361 85 6.1842 14.417 4.1155 27.799 6.6681 47.265 9.0158 13.456 1.6228 14.108 1.611 29-0.52092 8.3792-1.1996 20.41-3.5282 26.735-5.1749 25.493-6.6368 30.291-7.6821 45.092-9.8228 11.498-1.6631 17.819-2.0808 24.908-1.6459 13.349 0.81894 36.267 4.9392 51 9.1691 40.718 11.69 71.282 11.69 112 0 13.08-3.7551 35.052-7.889 48.25-9.0778l7.75-0.69806v41l-7.75 0.69806c-13.198 1.1888-35.17 5.3227-48.25 9.0778-6.875 1.9738-19.025 4.7659-27 6.2046-27.164 4.9005-52.85 3.0256-85-6.2046-14.733-4.2299-37.651-8.3502-51-9.1691-7.0891-0.4349-13.41-0.01722-24.908 1.6459-14.8 2.1407-19.599 3.186-45.092 9.8228-6.325 1.6466-18.356 3.9753-26.735 5.1749-14.892 2.132-15.544 2.1437-29 0.52092-19.466-2.3476-32.848-4.9002-47.265-9.0156-6.875-1.9625-18.238-4.5537-25.25-5.7583l-12.75-2.19v-4.755c0-2.6153 0.89977-7.1223 1.9995-10.016 1.0997-2.8934 1.9997-6.4982 2-8.0107 4.7e-4 -2.6076-0.24138-2.75-4.6708-2.75-2.8762 0-5.3498 0.61407-6.437 1.598-2.1685 1.9624-3.4562 1.2737-4.3614-2.3329-1.0454-4.1652-2.4111-5.265-6.5378-5.265-2.8956 0-4.1347 0.56795-5.3776 2.4648-0.88826 1.3556-1.615 3.1291-1.615 3.941 0 2.3352-1.964 2.9368-3.8918 1.1922-1.0872-0.98389-3.5608-1.598-6.437-1.598-4.4294 0-4.6712 0.1424-4.6708 2.75 2.8e-4 1.5125 0.90028 5.1173 2 8.0107 1.0997 2.8934 1.9995 7.4005 1.9995 10.016v4.755l-12.75 2.19c-7.0125 1.2045-18.375 3.7957-25.25 5.7583-14.417 4.1154-27.799 6.668-47.265 9.0156-13.456 1.6228-14.108 1.611-29-0.52092-8.3792-1.1996-20.41-3.5282-26.735-5.1749-25.493-6.6368-30.291-7.6821-45.092-9.8228-11.498-1.6631-17.819-2.0808-24.908-1.6459-13.349 0.81894-36.267 4.9392-51 9.1691-22.728 6.5252-54.585 10.666-68 8.8387zm-100-151.34v-82h896v164h-896v-82zm415.55 60.771c4.5198-1.4203 13.537-6.8265 17.654-10.584 2.6274-2.3982 2.7904-2.4201 6.1511-0.82532 4.6671 2.2147 17.342 2.2426 20.479 0.04507 2.1292-1.4913 2.3958-1.4532 4.174 0.59702 2.6086 3.0077 13.469 7.9961 17.408 7.9961 1.7776 0 5.4022 0.73943 8.0546 1.6432 4.0063 1.3651 7.5483 1.5475 20.928 1.0779 8.8581-0.31092 18.581-1.0919 21.606-1.7355 12.249-2.6061 25.377-10.908 31.198-19.729 3.4341-5.2041 15.017-24.938 17.367-29.587 2.2833-4.5183 5.5567-8.2044 10.588-11.923 4.0362-2.9832 7.9193-3.5952 12.098-1.9069 4.0601 1.6406 14.689 12.126 16.382 16.161 1.628 3.8794 7.1006 10 8.9412 10 0.64977 0 1.7138 0.64147 2.3644 1.4255 0.65068 0.78401 2.9558 2.3026 5.1224 3.3745 3.825 1.8925 3.9394 1.8946 3.9394 0.07452 0-1.031-0.58367-1.8745-1.297-1.8745-1.7777 0-9.1037-7.6343-7.9877-8.324 0.96327-0.59534 2.6099 0.23287 9.2312 4.6429 3.9417 2.6254 4.3194 2.6998 5.5011 1.0838 1.0411-1.4238 0.98261-2.2337-0.32623-4.5143-0.87725-1.5285-2.4337-2.9984-3.4587-3.2665-2.6596-0.6955-1.0605-2.622 2.1764-2.622 2.3396 0 2.9927 0.70052 4.6611 5 1.0672 2.75 2.3501 5 2.851 5 0.84771 0 0.60434-2.3238-0.97844-9.3423-0.60285-2.6732-0.51783-2.7654 1.429-1.5496 2.1465 1.3405 3.1613 3.7755 3.1848 7.6419 0.00751 1.2375 0.43333 2.25 0.94626 2.25 1.238 0 2.3711-3.6996 1.5433-5.0389-0.35923-0.58126-0.3789-1.7715-0.04369-2.6451 0.54369-1.4168 0.8256-1.3926 2.6122 0.22426 1.5317 1.3862 2.2786 1.5367 3.1754 0.63987 0.89684-0.89683 0.71488-1.5188-0.77363-2.6446-1.0704-0.80957-2.7106-1.4863-3.6447-1.5037-0.93416-0.017491-2.9124-1.1568-4.396-2.5318s-3.1904-2.5-3.7927-2.5c-2.0664 0-16.114-7.3734-21.113-11.082-2.75-2.0401-7.475-4.5086-10.5-5.4854s-7.4076-2.5988-9.7391-3.6043c-4.9807-2.148-21.797-2.5627-27.362-0.67485-4.6814 1.5883-16.597 9.2792-21.22 13.696-4.1764 3.9904-9.471 13.719-13.415 24.651-1.389 3.85-3.4792 8.2094-4.6449 9.6876-1.1656 1.4782-2.9152 3.8239-3.8879 5.2127-0.97271 1.3888-4.6875 4.6081-8.255 7.1538-7.393 5.2756-14.929 7.5279-21.655 6.4723-6.0391-0.94762-14.567-5.3114-19.456-9.9564-3.9512-3.7534-4.1246-4.1698-3.8944-9.3501 0.26257-5.9081 3.4657-15.219 10.053-29.22 2.3287-4.95 4.9104-10.575 5.737-12.5s2.2876-5.2615 3.2466-7.4145 1.7436-4.9726 1.7436-6.2659c0-2.8791-3.9828-8.7902-11.174-16.584-7.4481-8.0723-11.202-10.643-29.076-19.909-5.225-2.7088-10.175-5.3368-11-5.8398-4.2868-2.614-10.741-4.9861-13.567-4.9861-4.151 0-13.396 4.2588-16.498 7.6-1.3393 1.4425-4.91 4.3274-7.935 6.4108-6.6843 4.6036-9.9704 8.0546-17.71 18.598-6.0783 8.2804-12.523 19.851-13.623 24.458-0.68491 2.868 2.0197 10.857 5.6592 16.716 3.3751 5.4336 9.6742 18.727 9.6742 20.417 0 1.8131 4.849 13.96 6.0877 15.25 3.7611 3.9165-3.3645 9.9702-17.003 14.445-7.0488 2.3128-19.78 2.8738-23.236 1.024-6.2216-3.3297-24.006-20.245-29.214-27.786-2.8241-4.0894-6.6691-9.6551-8.5444-12.368-1.8753-2.713-7.1459-9.1293-11.712-14.258-6.2583-7.0292-9.6512-9.9634-13.778-11.916-3.0116-1.4247-6.3135-2.5904-7.3375-2.5904-1.0241 0-2.4185-0.55658-3.0988-1.2368-0.77136-0.77136-4.1397-1.2317-8.95-1.2233-7.3254 0.012855-8.1807 0.26356-17.013 4.9868-5.1151 2.7353-11.553 6.673-14.306 8.7503-4.6504 3.5089-5.3472 3.7317-9.8155 3.139-3.6587-0.48535-5.4338-0.22916-7.4173 1.0705-1.9879 1.3025-3.7427 1.554-7.3842 1.0581-5.9212-0.80626-9.606 1.1487-7.3313 3.8896 0.95037 1.1451 1.6891 1.3314 2.4122 0.60821 0.57331-0.57331 2.7781-1.0424 4.8996-1.0424s5.8766-0.50849 8.3447-1.13c3.9995-1.0071 4.6423-0.92553 5.911 0.75 0.78292 1.034 1.4378 2.1114 1.4553 2.3941 0.01749 0.28279-2.867 0.5514-6.4101 0.59691-6.0831 0.078137-11.558 2.0831-11.558 4.2327 0 1.498 17.375 0.037262 19.256-1.6189 2.1341-1.8786 3.1596-1.11 2.2678 1.6998-0.56259 1.7725-1.5243 2.0936-6.5913 2.2004-3.2629 0.06875-6.3826 0.2375-6.9326 0.375s-1.45 0.30625-2 0.375-1 1.0742-1 2.2344c0 1.8849 0.39918 2.0411 3.75 1.4682 7.5877-1.2975 17.772-2.3405 18.516-1.8964 1.8071 1.0778-0.74949 2.2194-7.5199 3.3579-3.9856 0.67021-8.1464 1.5643-9.2464 1.9868-1.8342 0.7045-1.7585 0.86273 0.91226 1.9081 2.3266 0.91066 3.5637 0.83082 6.1511-0.39702 1.7814-0.84532 5.0162-1.5369 7.1885-1.5369 8.4929 0 15.023-4.3678 20.288-13.57 3.6952-6.4585 11.104-13.43 14.272-13.43 4.1104 0 12.132 9.8239 22.454 27.5 5.6485 9.6728 18.616 24.161 26.141 29.205 3.4497 2.3127 8.8196 4.9473 11.933 5.8547 19.461 5.6713 18.146 5.5178 42.661 4.9837 14.427-0.3143 24.508-0.97487 27.045-1.7722zm225.09-41.465c-1.1262-1.1262-0.68589-2.3062 0.86052-2.3062 0.825 0 1.5 0.42344 1.5 0.94098 0 1.261-1.5616 2.1641-2.3605 1.3652z" fill="#027dca"/>
<path d="m444.46 427.5c-1.3378-3.025-3.0502-5.5-3.8054-5.5-0.75519 0-3.0308 1.125-5.057 2.5-5.786 3.9265-6.7423 3.3929-4.4991-2.5107 1.7717-4.6626 1.9039-8.2055 1.9039-51v-45.989h-45.989c-42.795 0-46.337 0.13226-51 1.9039-5.9036 2.2432-6.4372 1.287-2.5107-4.4991 1.375-2.0262 2.5-4.3018 2.5-5.057 0-0.75518-2.475-2.4676-5.5-3.8054s-5.5-2.9319-5.5-3.5424 2.475-2.2046 5.5-3.5424 5.5-3.0502 5.5-3.8054c0-0.75519-1.125-3.0308-2.5-5.057-3.9265-5.786-3.3929-6.7423 2.5107-4.4991 4.6626 1.7717 8.2055 1.9039 51 1.9039h45.989v-45.989c0-42.795-0.13226-46.337-1.9039-51-2.2432-5.9036-1.287-6.4372 4.4991-2.5107 2.0262 1.375 4.3018 2.5 5.057 2.5 0.75518 0 2.4676-2.475 3.8054-5.5s2.9319-5.5 3.5424-5.5 2.2046 2.475 3.5424 5.5 3.0502 5.5 3.8054 5.5c0.75519 0 3.0308-1.125 5.057-2.5 5.786-3.9265 6.7423-3.3929 4.4991 2.5107-1.7717 4.6626-1.9039 8.2055-1.9039 51v45.989h45.989c42.795 0 46.337-0.13226 51-1.9039 5.9036-2.2432 6.4372-1.287 2.5107 4.4991-1.375 2.0262-2.5 4.3018-2.5 5.057 0 0.75518 2.475 2.4676 5.5 3.8054s5.5 2.9319 5.5 3.5424-2.475 2.2046-5.5 3.5424-5.5 3.0502-5.5 3.8054c0 0.75519 1.125 3.0308 2.5 5.057 3.9265 5.786 3.3929 6.7423-2.5107 4.4991-4.6626-1.7717-8.2055-1.9039-51-1.9039h-45.989v45.989c0 42.795 0.13226 46.337 1.9039 51 2.2432 5.9036 1.287 6.4372-4.4991 2.5107-2.0262-1.375-4.3018-2.5-5.057-2.5-0.75518 0-2.4676 2.475-3.8054 5.5s-2.9319 5.5-3.5424 5.5-2.2046-2.475-3.5424-5.5z"/>
</g>
</svg>
