<?xml version="1.0" encoding="utf-8"?>
<!-- Generator: Adobe Illustrator 24.2.1, SVG Export Plug-In . SVG Version: 6.00 Build 0)  -->
<svg version="1.1" id="svg38" xmlns="http://www.w3.org/2000/svg" xmlns:xlink="http://www.w3.org/1999/xlink" x="0px" y="0px"
	 viewBox="0 0 340.16 170.08" style="enable-background:new 0 0 340.16 170.08;" xml:space="preserve">
<style type="text/css">
	.st0{fill-rule:evenodd;clip-rule:evenodd;fill:#009BC9;}
	.st1{fill-rule:evenodd;clip-rule:evenodd;fill:#FFDE00;}
	.st2{fill-rule:evenodd;clip-rule:evenodd;fill:#EE2E24;}
	.st3{fill-rule:evenodd;clip-rule:evenodd;fill:#A90000;}
	.st4{fill:#009BC9;}
	.st5{fill:#FFDE00;}
	.st6{fill:#EE2E24;}
</style>
<g id="Слой_x0020_1">
	<g id="_153616072">
		<rect id="_153618936" y="0" class="st0" width="340.16" height="170.08"/>
		<path id="_153618864" class="st1" d="M5.42,0h11.45l103.37,57.25c-0.4,0.72-0.79,1.45-1.16,2.19L5.42,0z M59.27,0h7.04l59.71,48.8
			c-0.53,0.64-1.04,1.29-1.53,1.95L59.27,0z M92.72,0h5.08l35.4,41.52c-0.63,0.54-1.25,1.08-1.86,1.65L92.72,0z M116.78,0h4.07
			l20.7,35.62c-0.72,0.41-1.42,0.84-2.12,1.29L116.78,0z M135.99,0h3.52l11.32,31.32c-0.78,0.28-1.55,0.58-2.32,0.89L135.99,0z
			 M152.64,0h3.24l4.86,28.76c-0.82,0.13-1.63,0.29-2.44,0.46L152.64,0z M168.12,0h3.15l-0.34,28c-0.29,0-0.57-0.01-0.86-0.01
			c-0.54,0-1.08,0.01-1.62,0.02L168.12,0z M184.28,0h3.24l-5.66,29.21c-0.81-0.17-1.62-0.32-2.44-0.46L184.28,0z M200.65,0h3.52
			l-12.53,32.21c-0.77-0.31-1.54-0.61-2.32-0.89L200.65,0z M219.31,0h4.07l-22.65,36.91c-0.7-0.45-1.4-0.88-2.12-1.29L219.31,0z
			 M242.36,0h5.08l-38.62,43.17c-0.61-0.56-1.23-1.11-1.86-1.65L242.36,0z M273.85,0h7.04l-65.21,50.75
			c-0.5-0.66-1.01-1.31-1.53-1.95L273.85,0z M323.28,0h11.45L221.07,59.44c-0.37-0.74-0.76-1.47-1.16-2.19L323.28,0z M340.16,27.32
			v5.67L224.83,68.96c-0.23-0.79-0.48-1.58-0.75-2.37L340.16,27.32z M340.16,59.73V65L226.81,78.99c-0.09-0.82-0.19-1.64-0.31-2.46
			L340.16,59.73z M340.16,90.45v5.2l-113.18-6.42c0.06-0.82,0.1-1.65,0.13-2.48L340.16,90.45z M340.16,121.53v5.43L225.33,99.31
			c0.21-0.8,0.39-1.61,0.56-2.42L340.16,121.53z M340.16,155.13v6.03l-118.27-52.22c0.35-0.75,0.68-1.51,0.99-2.28L340.16,155.13z
			 M302.67,170.08h-8.71l-77.18-52.27c0.48-0.68,0.94-1.36,1.39-2.06L302.67,170.08z M261.45,170.08h-5.86l-45.41-44.46
			c0.59-0.58,1.16-1.18,1.73-1.78L261.45,170.08z M233.66,170.08h-4.48l-26.89-37.95c0.68-0.47,1.36-0.95,2.02-1.45L233.66,170.08z
			 M212.49,170.08h-3.74l-15.39-32.95c0.76-0.34,1.5-0.69,2.24-1.07L212.49,170.08z M194.83,170.08h-3.35l-7.8-29.63
			c0.81-0.2,1.61-0.41,2.4-0.64L194.83,170.08z M178.94,170.08h-3.17l-2.19-28.1c0.83-0.05,1.66-0.11,2.47-0.2L178.94,170.08z
			 M164.39,170.08h-3.17l2.89-28.3c0.82,0.09,1.64,0.15,2.47,0.2L164.39,170.08z M148.67,170.08h-3.35l8.75-30.27
			c0.79,0.23,1.59,0.44,2.4,0.64L148.67,170.08z M131.41,170.08h-3.74l16.89-34.01c0.74,0.37,1.49,0.73,2.24,1.07L131.41,170.08z
			 M110.98,170.08h-4.48l29.36-39.4c0.66,0.5,1.33,0.98,2.02,1.45L110.98,170.08z M84.57,170.08h-5.86l49.55-46.24
			c0.56,0.61,1.14,1.2,1.73,1.78L84.57,170.08z M46.2,170.08h-8.71L122,115.75c0.45,0.7,0.91,1.38,1.39,2.06L46.2,170.08z M0,161.16
			v-6.03l117.28-48.46c0.31,0.77,0.65,1.53,0.99,2.28L0,161.16z M0,126.96v-5.43L114.27,96.9c0.17,0.81,0.36,1.62,0.56,2.42
			L0,126.96z M0,95.64v-5.19l113.06-3.71c0.02,0.83,0.07,1.66,0.13,2.48L0,95.64z M0,65v-5.27l113.66,16.8
			c-0.12,0.82-0.23,1.64-0.31,2.46L0,65z M0,32.99v-5.67l116.08,39.27c-0.27,0.78-0.52,1.57-0.75,2.37L0,32.99z"/>
		<g>
			<g image-rendering="optimizeQuality" shape-rendering="geometricPrecision" text-rendering="geometricPrecision">
				<circle class="st2" cx="170.08" cy="84.92" r="53.39"/>
				<circle class="st1" cx="170.08" cy="84.92" r="52.75"/>
				<path class="st3" d="M181.61,83.41c0.57,0,1.02,0.45,1.02,1.02v1.02c0,0.57-0.45,1.02-1.02,1.02h-1.02v-3.01h1.02V83.41z
					 M181.61,87.44c1.09,0,2-0.9,2-2v-1.02c0-1.09-0.9-2-2-2h-2v5.01H181.61z M177.61,82.43h1.02v5.01h-1.02V82.43z M175.58,82.43
					h1.02v5.01h-1.02l-2-3.16v3.13h-1.02v-5.01h1.02l2,3.13V82.43z M160.58,82.43h3.01v1.02h-2v1.02h2v1.02h-2v1.02h2v1.02h-3.01
					V82.43z M156.59,82.43h1.02v3.99h2v1.02h-3.01V82.43z M167.1,86.43h1.02c0.83,0,1.51-0.68,1.51-1.51c0-0.83-0.68-1.51-1.51-1.51
					h-1.02v1.02h1.02c0.26,0,0.49,0.23,0.49,0.49s-0.23,0.49-0.49,0.49h-1.02V86.43z M168.08,81.41c1.92,0,3.5,1.58,3.5,3.5
					s-1.58,3.5-3.5,3.5c-1.92,0-3.5-1.58-3.5-3.5S166.16,81.41,168.08,81.41z M168.08,82.43c1.39,0,2.49,1.13,2.49,2.49
					c0,1.39-1.13,2.49-2.49,2.49c-1.39,0-2.49-1.13-2.49-2.49C165.6,83.56,166.69,82.43,168.08,82.43z"/>
				<circle class="st0" cx="170.08" cy="84.92" r="38.73"/>
				<path class="st1" d="M147.28,52.44l-2.56,2.34c13.38,11.83,18.24,30.93,19.74,52.22h0.64C164.2,96.3,164.54,70.53,147.28,52.44
					L147.28,52.44z M161.41,69.58c0.53,1.7,1.13,4.03,1.36,5.73c1.58,3.28,4.14,6.37,4.48,26.22h0.64
					C167.74,88.39,167.44,76.37,161.41,69.58L161.41,69.58z M169.74,76.29h0.75v21.81h-0.75V76.29z M178.74,69.58
					c-0.53,1.7-1.13,4.03-1.36,5.73c-1.58,3.28-4.14,6.37-4.48,26.22h-0.64C172.42,88.39,172.72,76.37,178.74,69.58L178.74,69.58z
					 M192.91,52.44l2.56,2.34C182.1,66.61,177.24,85.71,175.73,107h-0.64C175.99,96.3,175.66,70.53,192.91,52.44L192.91,52.44z"/>
				<path class="st2" d="M170.08,45.7c21.66,0,39.22,17.56,39.22,39.22s-17.56,39.22-39.22,39.22s-39.22-17.56-39.22-39.22
					S148.45,45.7,170.08,45.7L170.08,45.7z M170.08,46.23c21.36,0,38.73,17.33,38.73,38.73s-17.33,38.73-38.73,38.73
					s-38.69-17.37-38.69-38.77S148.72,46.23,170.08,46.23z"/>
				<path class="st1" d="M170.08,97.16c-1.43,1.36-1.39,3.05-0.72,4.6l0,0c-0.68-0.49-1.28-0.68-1.81-0.68
					c-0.98,0-1.88,1.02-1.92,1.81c-0.04,0.72,0.04,1.36,0.68,1.77c0.45,0.26,1.05,0.34,1.51,0c-0.6-0.19-0.6-0.87-0.41-1.21
					s0.49-0.57,0.9-0.53c0.72,0.04,1.13,0.64,1.13,1.21c-0.04,0.87-1.24,1.96-1.85,2.34c0.41,0.79,1.02,2.11,1.28,3.09l-0.34,0.23
					c-6.63-8.25-13.45-5.8-18.8-11.53c0.68,7.23,7.38,9.95,11.42,10.89c-1.88,1.09-2.34,2.86-2.3,4.45
					c0.08,2.22,1.96,3.92,4.41,3.88c2.56-0.04,4.37-2.52,3.05-4.86c-0.49,0.98-1.02,1.85-2.15,1.81c-1.17-0.08-1.58-1.09-1.58-2.03
					c0-1.13,0.83-1.96,1.88-2.15c0.75-0.15,1.58,0.04,2.34,0.41c1.28,0.64,2.26,2.07,2.22,3.62c-0.04,1.54-1.02,3.28-3.2,4.97
					c1.36,1.7,2.86,3.88,4.26,6.97c1.39-3.09,2.9-5.27,4.26-6.97c-2.19-1.7-3.13-3.43-3.2-4.97c-0.04-1.54,0.94-3.01,2.22-3.62
					c0.72-0.34,1.58-0.53,2.34-0.41c1.09,0.19,1.92,1.02,1.88,2.15c0,0.94-0.45,1.96-1.58,2.03c-1.17,0.08-1.66-0.83-2.15-1.81
					c-1.32,2.34,0.49,4.78,3.05,4.86c2.45,0.04,4.33-1.62,4.41-3.88c0.04-1.58-0.38-3.35-2.3-4.45c4.03-0.94,10.74-3.65,11.42-10.89
					c-5.35,5.73-12.17,3.28-18.8,11.53l-0.34-0.23c0.26-0.98,0.87-2.3,1.28-3.09c-0.64-0.34-1.85-1.47-1.85-2.34
					c0-0.6,0.41-1.21,1.13-1.21c0.41,0,0.72,0.23,0.9,0.53c0.19,0.3,0.19,0.98-0.41,1.21c0.45,0.34,1.05,0.26,1.51,0
					c0.64-0.41,0.72-1.09,0.68-1.77c-0.04-0.79-0.9-1.81-1.92-1.81c-0.53,0-1.13,0.19-1.81,0.68l0,0
					C171.47,100.22,171.55,98.52,170.08,97.16L170.08,97.16z"/>
				<path class="st4" d="M171.02,104.17c0-0.41,0.3-0.87,0.83-0.9c0.34,0,0.53,0.23,0.64,0.38c0.08,0.11,0.11,0.3,0.04,0.49
					c-0.04,0.11-0.15,0.23-0.26,0.26l-0.53,0.19c0.45,0.34,0.87,0.68,1.51,0.64c0.3-0.04,0.57-0.15,0.79-0.26
					c0.79-0.49,0.87-1.32,0.83-2.03c-0.04-0.94-1.05-2.11-2.22-2.11c-0.41,0-0.83,0.11-1.24,0.3c0.15-0.45,0.23-0.9,0.23-1.36
					c0-1.05-0.41-2.03-1.28-2.83l-0.19-0.19l-0.19,0.19c-0.83,0.79-1.28,1.73-1.28,2.83c0,0.41,0.08,0.87,0.23,1.36
					c-0.41-0.19-0.87-0.3-1.24-0.3c-1.13,0-2.19,1.17-2.22,2.11c-0.04,0.72,0.04,1.54,0.83,2.03c0.26,0.19,0.6,0.3,0.94,0.3
					c0.57,0,0.94-0.3,1.36-0.64c-0.26-0.08-0.72-0.15-0.83-0.45c-0.08-0.19-0.04-0.38,0.04-0.49c0.08-0.15,0.3-0.41,0.64-0.38
					c0.57,0,0.83,0.45,0.83,0.9c0,0.72-1.13,1.73-1.7,2.07l-0.26,0.15l0.15,0.26c0.38,0.75,0.87,1.77,1.13,2.64
					c-3.62-4.33-7.23-5.58-10.74-6.82c-2.79-0.98-5.43-1.88-7.8-4.37l-0.6-0.64l0.08,0.87c0.68,7.31,7.46,10.06,11,10.96
					c-1.21,0.94-1.85,2.34-1.85,4.07c0,0.08,0,0.15,0,0.23c0.08,2.41,2.11,4.22,4.71,4.14c1.43-0.04,2.71-0.75,3.35-1.92
					c0.6-1.05,0.57-2.3-0.04-3.39l-0.26-0.49l-0.26,0.49c-0.49,0.98-0.94,1.7-1.88,1.66c-1.21-0.08-1.32-1.32-1.32-1.73
					c0-0.9,0.64-1.66,1.66-1.85c0.64-0.11,1.39,0.04,2.15,0.38c1.24,0.6,2.07,1.96,2.03,3.35c-0.04,1.58-1.09,3.2-3.05,4.71
					l-0.23,0.19l0.19,0.23c1.7,2.07,3.01,4.26,4.22,6.89l0.26,0.6l0.26-0.6c1.21-2.64,2.52-4.82,4.22-6.89l0.19-0.23l-0.23-0.19
					c-1.96-1.54-3.01-3.16-3.05-4.71c-0.04-1.36,0.79-2.75,2.03-3.35c0.75-0.38,1.51-0.49,2.15-0.38c0.98,0.19,1.66,0.9,1.66,1.85
					c0,0.38-0.11,1.66-1.32,1.73c-0.94,0.04-1.36-0.64-1.88-1.66l-0.26-0.49l-0.26,0.49c-0.64,1.09-0.64,2.34-0.04,3.39
					c0.64,1.17,1.96,1.88,3.35,1.92c2.6,0.04,4.63-1.73,4.71-4.14c0-0.08,0-0.15,0-0.23c0-1.73-0.64-3.13-1.85-4.07
					c3.54-0.94,10.29-3.65,11-10.96l0.08-0.87l-0.6,0.64c-2.34,2.49-4.97,3.43-7.8,4.37c-3.5,1.21-7.12,2.49-10.74,6.82
					c0.26-0.87,0.75-1.88,1.13-2.64l0.15-0.26l-0.26-0.15C172.11,105.9,171.02,104.89,171.02,104.17L171.02,104.17z M170.42,104.17
					c0.04,0.94,1.05,1.96,1.77,2.45c-0.53,1.05-1.09,2.19-1.24,3.35l0.75,0.26l0.19-0.23c3.62-4.48,7.23-5.76,10.78-6.97
					c2.6-0.9,5.09-1.77,7.38-3.92c-1.17,6.74-8.06,9.04-11.08,9.76l-0.75,0.19l0.68,0.38c1.43,0.83,2.15,2.15,2.15,3.92
					c0,0.08,0,0.15,0,0.23c-0.08,2.07-1.81,3.62-4.07,3.58c-1.21-0.04-2.3-0.64-2.86-1.62c-0.23-0.41-0.38-0.87-0.38-1.32
					c0-0.3,0.08-0.6,0.19-0.9c0.41,0.75,1.02,1.47,2.15,1.39c1.36-0.08,1.88-1.28,1.88-2.3c0-1.21-0.87-2.22-2.15-2.45
					c-0.75-0.15-1.66,0-2.52,0.41c-1.43,0.68-2.37,2.22-2.37,3.81c0,0.04,0,0.08,0,0.11c0.04,1.7,1.13,3.39,3.09,5.01
					c-1.51,1.88-2.75,3.92-3.84,6.22c-1.09-2.3-2.37-4.37-3.84-6.22c1.96-1.58,3.01-3.32,3.09-5.01c0-0.04,0-0.08,0-0.11
					c0-1.54-0.98-3.09-2.37-3.81c-0.87-0.41-1.73-0.57-2.52-0.41c-1.28,0.23-2.15,1.24-2.15,2.45c0,1.02,0.53,2.22,1.88,2.3
					c1.13,0.08,1.73-0.68,2.15-1.39c0.11,0.3,0.19,0.6,0.19,0.9c0,0.45-0.11,0.9-0.38,1.32c-0.57,0.98-1.66,1.58-2.86,1.62
					c-2.26,0.04-4.03-1.47-4.07-3.58c0-0.08,0-0.15,0-0.23c0-1.77,0.72-3.13,2.15-3.92l0.68-0.38l-0.75-0.19
					c-3.01-0.68-9.87-3.01-11.08-9.76c2.26,2.11,4.75,3.01,7.38,3.92c3.5,1.21,7.16,2.49,10.78,6.97l0.19,0.23l0.75-0.26
					c-0.15-1.17-0.72-2.3-1.24-3.35c0.72-0.49,1.77-1.51,1.77-2.45c0-0.72-0.53-1.47-1.43-1.51c-0.49,0-0.9,0.23-1.17,0.68
					c-0.11,0.15-0.15,0.38-0.15,0.6c0,0.15,0.04,0.3,0.08,0.41c0.04,0.11,0.11,0.15,0.15,0.23c-0.26,0.04-0.57-0.04-0.75-0.19
					c-0.49-0.3-0.57-0.83-0.57-1.51c0.04-0.6,0.75-1.54,1.62-1.54c0.79,0,1.39,0.45,2,0.87l0.26-0.23c-0.3-0.72-0.6-1.43-0.6-2.26
					c0-0.79,0.3-1.51,0.87-2.15c0.57,0.64,0.87,1.36,0.87,2.15c0,0.83-0.3,1.51-0.6,2.26l0.23,0.23c0.6-0.41,1.24-0.87,2-0.87
					c0.87,0,1.58,0.9,1.62,1.54c0.04,0.68-0.08,1.21-0.57,1.51c-0.19,0.11-0.49,0.23-0.75,0.19c0.08-0.08,0.11-0.15,0.15-0.23
					c0.04-0.15,0.08-0.26,0.08-0.41c0-0.23-0.04-0.41-0.15-0.6c-0.26-0.45-0.68-0.72-1.17-0.68
					C170.91,102.7,170.42,103.46,170.42,104.17z"/>
				<path class="st0" d="M170.08,110.69c0.45-1.36,0.94-2.79,1.54-3.88c-0.53-0.34-1.05-0.87-1.54-1.54
					c-0.49,0.64-1.02,1.21-1.54,1.54C169.14,107.9,169.63,109.33,170.08,110.69z"/>
				<path class="st0" d="M170.08,124.18c0.75-1.47,1.66-3.09,2.83-4.41c-0.98-0.83-1.96-2-2.83-3.39c-0.87,1.39-1.85,2.56-2.83,3.39
					C168.46,121.09,169.36,122.71,170.08,124.18z"/>
				<path class="st5" d="M170.87,118.19c-0.15,0-0.3,0.08-0.45,0.23c-0.34,0.34-0.49,0.87-0.6,1.28v0.04
					c-0.04,0.08-0.04,0.19-0.08,0.3c-0.08-0.04-0.19-0.08-0.3-0.08c0.08-0.23,0.15-0.45,0.15-0.64c0-0.08-0.08-0.11-0.15-0.11
					s-0.11,0.08-0.11,0.15c0,0.34-0.19,0.72-0.41,1.13c-0.04,0.08,0,0.15,0.04,0.19c0.08,0.04,0.15,0,0.19-0.04
					c0.08-0.11,0.11-0.23,0.19-0.34c0.11,0,0.23,0.04,0.34,0.08c-0.19,0.72-0.34,1.47-0.45,2.03c0,0,0,0,0,0.04
					c0,0.08,0.04,0.11,0.11,0.11s0.15-0.04,0.15-0.11c0.11-0.53,0.26-1.28,0.41-1.96c0.11,0.04,0.23,0.08,0.34,0.08
					c0.6,0.04,0.9-0.49,0.98-0.98c0.08-0.38,0.11-1.02-0.11-1.24C171.06,118.22,170.98,118.19,170.87,118.19L170.87,118.19
					L170.87,118.19z M170.08,119.85v-0.04c0.11-0.41,0.26-0.9,0.53-1.17c0.11-0.11,0.23-0.15,0.26-0.15l0,0c0.04,0,0.04,0,0.04,0.04
					c0.08,0.08,0.15,0.53,0.04,1.02c-0.08,0.38-0.3,0.79-0.72,0.75c-0.08,0-0.19-0.04-0.3-0.08
					C170,120.03,170.04,119.92,170.08,119.85z"/>
				<path class="st2" d="M170.08,33.53c28.37,0,51.39,23.02,51.39,51.39c0,15.67-7.01,29.69-18.08,39.11l-6.03-8.48
					c6.93-6.18,11.79-14.73,13.26-24.34c0.04-0.19,0-0.23,0.19-0.3c0.15-0.04,0.34-0.11,0.49-0.15c0.08-0.04,0.11-0.08,0.19-0.11
					c0.04-0.04,0.08-0.11,0.08-0.23c0.04-0.19,0.08-0.41,0.38-0.49c0.34-0.11,0.6,0.11,0.98,0.41c0.19,0.15,0.41,0.34,0.72,0.53
					c0.72,0.41,1.36,0.6,2.22,0.6c0.75,0.04,1.39-0.08,2.19-0.72c0.3-0.23,0.53-0.49,0.75-0.79c0.19-0.26,0.45-0.53,0.79-0.53
					c0.26,0,0.49,0.11,0.6,0.34c0.04,0.08,0.08,0.19,0.08,0.3v0.04c0.11-0.15,0.19-0.26,0.19-0.41c0,0,0,0,0-0.04
					c0-0.26-0.11-0.41-0.23-0.53c-0.23-0.23-0.53-0.34-0.83-0.34c-0.57,0-1.05,0.3-1.58,0.6c-0.26,0.15-0.53,0.3-0.79,0.41
					c-0.6,0.26-1.28,0.38-2.19,0.34c-1.32-0.04-2.15-0.64-2.6-1.13c-0.53-0.57-0.87-1.28-0.83-1.88c0.04-1.02,0.41-1.28,0.45-1.32
					h0.04l1.66-0.11l-0.15,0.23c0,0-0.23,0.41-0.26,1.24c0,0.04,0,0.04,0,0.08c0,1.05,0.72,1.47,0.87,1.54
					c0.08,0,0.38-0.08,0.64-0.15c-0.34-0.26-0.87-0.79-0.87-1.58v-0.04c0.04-1.02,0.68-1.58,1.88-1.54
					c0.79,0.04,1.66,0.57,1.66,1.39c0,0.3-0.11,0.53-0.3,0.72c-0.26,0.26-0.6,0.26-0.75,0.26c-0.23,0-0.45-0.11-0.6-0.26
					c0.04,0.15,0.08,0.3,0.19,0.41c0.23,0.26,0.57,0.38,1.05,0.38s1.28-0.45,1.32-1.21c0-0.34-0.04-0.49-0.08-0.64
					c-0.08-0.19-0.08-0.34,0.11-0.57c0.23-0.26,0.53-0.15,0.75-0.08l0.19,0.04c0.15,0,0.64-0.45,1.13-1.02
					c-0.49-0.6-0.98-1.02-1.13-1.02l-0.19,0.04c-0.23,0.08-0.53,0.19-0.75-0.08c-0.19-0.23-0.15-0.34-0.11-0.57
					c0.04-0.11,0.08-0.3,0.08-0.64c-0.04-0.75-0.79-1.24-1.32-1.21c-0.49,0-0.83,0.15-1.05,0.38c-0.11,0.15-0.19,0.3-0.19,0.41
					c0.15-0.11,0.34-0.26,0.6-0.26c0.15,0,0.49,0,0.75,0.26c0.19,0.19,0.26,0.41,0.3,0.72c0.04,0.83-0.83,1.36-1.66,1.39
					c-1.21,0.04-1.85-0.53-1.88-1.54v-0.04c0-0.79,0.57-1.36,0.87-1.58c-0.26-0.08-0.57-0.15-0.64-0.15
					c-0.15,0.08-0.87,0.49-0.87,1.54c0,0.04,0,0.04,0,0.08c0.04,0.83,0.26,1.24,0.26,1.24l0.15,0.23h-0.26l-1.39-0.08h-0.04
					c-0.04-0.04-0.41-0.3-0.45-1.32c0-0.57,0.3-1.32,0.83-1.88c0.45-0.49,1.28-1.09,2.6-1.13c0.87-0.04,1.58,0.08,2.19,0.34
					c0.26,0.11,0.53,0.26,0.79,0.41c0.49,0.3,0.98,0.6,1.58,0.6c0.3,0,0.6-0.11,0.83-0.34c0.11-0.11,0.23-0.3,0.23-0.53
					c0,0,0,0,0-0.04c0-0.15-0.08-0.3-0.19-0.41v0.04c0,0.11-0.04,0.19-0.08,0.3c-0.11,0.23-0.3,0.34-0.6,0.34
					c-0.34,0-0.6-0.23-0.79-0.53c-0.23-0.3-0.45-0.57-0.75-0.79c-0.75-0.6-1.43-0.72-2.19-0.72c-0.87,0.04-1.51,0.19-2.22,0.6
					c-0.26,0.15-0.53,0.34-0.72,0.53c-0.38,0.3-0.64,0.53-0.98,0.41c-0.3-0.08-0.34-0.34-0.38-0.49c0-0.11-0.04-0.19-0.08-0.23
					c-0.08-0.08-0.15-0.11-0.23-0.15c-0.15-0.08-0.3-0.11-0.45-0.15c-0.23-0.08-0.23-0.15-0.23-0.34
					c-3.05-19.67-20.04-34.7-40.58-34.7c-20.5,0-37.53,15.07-40.58,34.7c-0.04,0.19,0,0.26-0.19,0.3c-0.15,0.04-0.34,0.11-0.49,0.15
					c-0.19,0.08-0.26,0.15-0.3,0.34s-0.08,0.41-0.38,0.49c-0.34,0.11-0.6-0.11-0.98-0.41c-0.19-0.15-0.41-0.34-0.72-0.53
					c-0.72-0.41-1.36-0.6-2.22-0.6c-0.75-0.04-1.39,0.08-2.19,0.72c-0.3,0.23-0.53,0.49-0.75,0.79c-0.19,0.26-0.45,0.53-0.79,0.53
					c-0.26,0-0.49-0.11-0.6-0.34c-0.04-0.08-0.08-0.19-0.08-0.3v-0.04c-0.11,0.15-0.19,0.26-0.19,0.41c0,0,0,0,0,0.04
					c0,0.26,0.11,0.41,0.23,0.53c0.23,0.23,0.53,0.34,0.83,0.34c0.57,0,1.05-0.3,1.58-0.6c0.26-0.15,0.53-0.3,0.79-0.41
					c0.6-0.26,1.28-0.38,2.19-0.34c1.32,0.04,2.15,0.64,2.6,1.13c0.53,0.57,0.87,1.28,0.83,1.88c-0.04,1.02-0.41,1.28-0.45,1.32
					h-0.04l-1.39,0.08h-0.26l0.15-0.23c0,0,0.23-0.41,0.26-1.24c0-0.04,0-0.04,0-0.08c0-1.05-0.72-1.47-0.87-1.54
					c-0.08,0-0.38,0.08-0.64,0.15c0.34,0.26,0.87,0.79,0.87,1.58v0.04c-0.04,1.02-0.68,1.58-1.88,1.54
					c-0.79-0.04-1.66-0.57-1.66-1.39c0-0.3,0.11-0.53,0.3-0.72c0.26-0.26,0.6-0.26,0.75-0.26c0.23,0,0.45,0.11,0.6,0.26
					c-0.04-0.15-0.08-0.3-0.19-0.41c-0.23-0.26-0.57-0.38-1.05-0.38c-0.49,0-1.28,0.45-1.32,1.21c0,0.34,0.04,0.49,0.08,0.64
					c0.08,0.19,0.08,0.34-0.11,0.57c-0.23,0.26-0.53,0.15-0.75,0.08l-0.19-0.04c-0.15,0-0.64,0.45-1.13,1.02
					c0.49,0.6,0.98,1.02,1.13,1.02l0.19-0.04c0.23-0.08,0.53-0.19,0.75,0.08c0.19,0.23,0.15,0.34,0.11,0.57
					c-0.04,0.11-0.08,0.3-0.08,0.64c0.04,0.75,0.79,1.24,1.32,1.21c0.49,0,0.83-0.15,1.05-0.38c0.11-0.15,0.19-0.3,0.19-0.41
					c-0.15,0.11-0.34,0.26-0.6,0.26c-0.15,0-0.49,0-0.75-0.26c-0.19-0.19-0.26-0.41-0.3-0.72c-0.04-0.83,0.83-1.36,1.66-1.39
					c1.21-0.04,1.85,0.53,1.88,1.54v0.04c0,0.79-0.57,1.36-0.87,1.58c0.26,0.08,0.57,0.15,0.64,0.15c0.15-0.08,0.87-0.49,0.87-1.54
					c0-0.04,0-0.04,0-0.08c-0.04-0.83-0.26-1.21-0.26-1.24l-0.15-0.23l1.66,0.11h0.04c0.04,0.04,0.41,0.3,0.45,1.32
					c0,0.57-0.3,1.32-0.83,1.88c-0.45,0.49-1.28,1.09-2.6,1.13c-0.87,0.04-1.58-0.08-2.19-0.34c-0.26-0.11-0.53-0.26-0.79-0.41
					c-0.49-0.3-0.98-0.6-1.58-0.6c-0.3,0-0.6,0.11-0.83,0.34c-0.11,0.11-0.23,0.3-0.23,0.53c0,0,0,0,0,0.04
					c0,0.15,0.08,0.3,0.19,0.41v-0.04c0-0.11,0.04-0.19,0.08-0.3c0.11-0.23,0.3-0.34,0.6-0.34c0.38,0,0.6,0.23,0.79,0.53
					c0.23,0.3,0.45,0.57,0.75,0.79c0.75,0.6,1.43,0.72,2.19,0.72c0.87-0.04,1.51-0.19,2.22-0.6c0.26-0.15,0.53-0.34,0.72-0.53
					c0.38-0.3,0.64-0.53,0.98-0.41c0.3,0.08,0.34,0.34,0.38,0.49c0.04,0.15,0.08,0.23,0.23,0.3c0.15,0.08,0.38,0.15,0.53,0.19
					c0.19,0.04,0.19,0.11,0.19,0.26c1.21,7.76,4.56,14.81,9.46,20.46c1.21,1.39,2.49,2.68,3.84,3.88l-6.03,8.48
					c-1.51-1.28-2.9-2.64-4.26-4.07c-8.55-9.19-13.83-21.51-13.83-35.04C118.69,56.55,141.71,33.53,170.08,33.53L170.08,33.53z
					 M196.94,116l6.03,8.44c-0.15,0.11-0.3,0.26-0.45,0.38l-6.03-8.44C196.64,116.27,196.79,116.12,196.94,116z M196,116.76
					l6.03,8.44c-0.15,0.11-0.3,0.26-0.49,0.38l-6.03-8.44C195.7,117.02,195.85,116.91,196,116.76L196,116.76z M195.06,117.51
					l6.03,8.44c-0.38,0.3-0.75,0.57-1.13,0.83l-6.03-8.44C194.31,118.07,194.68,117.81,195.06,117.51z M146.27,118.34l-5.99,8.44
					c-0.38-0.26-0.75-0.57-1.13-0.83l6.03-8.44C145.48,117.81,145.85,118.07,146.27,118.34L146.27,118.34z M144.65,117.13
					l-6.03,8.44c-0.15-0.11-0.3-0.26-0.49-0.38l6.03-8.44C144.35,116.91,144.5,117.02,144.65,117.13z M143.71,116.38l-6.03,8.44
					c-0.15-0.11-0.3-0.26-0.45-0.38l6.03-8.44C143.4,116.12,143.55,116.27,143.71,116.38z"/>
				<circle class="st0" cx="170.08" cy="54.1" r="16.16"/>
				<circle class="st1" cx="170.08" cy="54.1" r="15.56"/>
				<circle class="st2" cx="170.08" cy="54.1" r="13.26"/>
				<circle class="st0" cx="170.08" cy="54.1" r="13.04"/>
				<circle class="st2" cx="170.08" cy="54.1" r="12.43"/>
				<circle class="st1" cx="170.08" cy="54.1" r="12.24"/>
				<circle class="st2" cx="170.08" cy="54.1" r="11.23"/>
				<circle class="st0" cx="170.08" cy="54.1" r="11"/>
				<path class="st1" d="M179.12,48.18l-0.83-0.83l-0.79,0.79l-0.04,0.41l-3.54,3.54l-0.41,0.04l-0.79,0.79l0.83,0.83l0.79-0.79
					l0.04-0.41l3.54-3.54l0.41-0.04L179.12,48.18z M177.95,47.05l-0.83-0.83l-0.79,0.79l-0.04,0.41l-3.54,3.54l-0.41,0.04
					l-0.79,0.79l0.83,0.83l0.79-0.79l0.04-0.41l3.54-3.54l0.41-0.04L177.95,47.05z M176.82,45.89l-0.83-0.83l-0.79,0.79l-0.04,0.41
					l-3.54,3.54l-0.41,0.04l-0.79,0.79l0.83,0.83l0.79-0.79l0.04-0.41l3.54-3.54l0.41-0.04L176.82,45.89z M164.16,63.14l-0.83-0.83
					l0.79-0.79l0.41-0.04l3.54-3.54l0.04-0.41l0.79-0.79l0.83,0.83l-0.79,0.79l-0.41,0.04l-3.54,3.54l-0.04,0.41L164.16,63.14z
					 M163.03,61.97l-0.83-0.83l0.79-0.79l0.41-0.04l3.54-3.54l0.04-0.41l0.79-0.79l0.83,0.83l-0.79,0.79l-0.41,0.04l-3.54,3.54
					l-0.04,0.41L163.03,61.97z M161.87,60.81l-0.83-0.83l0.79-0.79l0.41-0.04l3.54-3.54l0.04-0.41l0.79-0.79l0.83,0.83l-0.79,0.79
					l-0.41,0.04l-3.54,3.54l-0.04,0.41L161.87,60.81z M179.12,60.01l-0.83,0.83l-0.79-0.79l-0.04-0.41l-3.54-3.54l-0.41-0.04
					l-0.79-0.79l0.83-0.83l0.79,0.79l0.04,0.41l3.54,3.54l0.41,0.04L179.12,60.01z M177.95,61.14l-0.83,0.83l-0.79-0.79l-0.04-0.41
					l-3.54-3.54l-0.41-0.04l-0.79-0.79l0.83-0.83l0.79,0.79l0.04,0.41l3.54,3.54l0.41,0.04L177.95,61.14z M176.82,62.31l-0.83,0.83
					l-0.79-0.79l-0.04-0.41l-3.54-3.54l-0.41-0.04l-0.79-0.79l0.83-0.83l0.79,0.79l0.04,0.41l3.54,3.54l0.41,0.04L176.82,62.31z
					 M164.16,45.06l-0.83,0.83l0.79,0.79l0.41,0.04l3.54,3.54l0.04,0.41l0.79,0.79l0.83-0.83l-0.79-0.79l-0.41-0.04l-3.54-3.54
					l-0.04-0.41L164.16,45.06z M163.03,46.23l-0.83,0.83l0.79,0.79l0.41,0.04l3.54,3.54l0.04,0.41l0.79,0.79l0.83-0.83l-0.79-0.79
					l-0.41-0.04l-3.54-3.54l-0.04-0.41L163.03,46.23z M161.87,47.36l-0.83,0.83l0.79,0.79l0.41,0.04l3.54,3.54l0.04,0.41l0.79,0.79
					l0.83-0.83l-0.79-0.79l-0.41-0.04l-3.54-3.54l-0.04-0.41L161.87,47.36z M170.08,55.57l0.83,0.83l-0.83,0.83l-0.83-0.83
					L170.08,55.57z M168.91,54.4l0.83,0.83l-0.83,0.83l-0.83-0.83L168.91,54.4z M167.78,53.27l0.83,0.83l-0.83,0.83l-0.83-0.83
					L167.78,53.27z M168.91,52.1l0.83,0.83l-0.83,0.83l-0.83-0.83L168.91,52.1z M170.08,53.27l0.83,0.83l-0.83,0.83l-0.83-0.83
					L170.08,53.27z M171.25,54.4l0.83,0.83l-0.83,0.83l-0.83-0.83L171.25,54.4z M172.38,53.27l0.83,0.83l-0.83,0.83l-0.83-0.83
					L172.38,53.27z M171.25,52.1l0.83,0.83l-0.83,0.83l-0.83-0.83L171.25,52.1z M170.08,50.93l0.83,0.83l-0.83,0.83l-0.83-0.83
					L170.08,50.93z"/>
				<path class="st6" d="M170.08,41.85c-0.04,0-0.08,0-0.08,0.04c0,0-0.3,0.53-0.41,0.72c-0.11-0.19-0.49-0.68-0.49-0.68
					c-0.04-0.04-0.04-0.04-0.08-0.04c-0.04,0-0.08,0.04-0.08,0.04s-0.26,0.57-0.38,0.75c-0.15-0.15-0.57-0.64-0.57-0.64
					c-0.04-0.04-0.08-0.04-0.08-0.04c-0.04,0-0.08,0.04-0.08,0.08c0,0-0.23,0.57-0.3,0.79c-0.15-0.15-0.6-0.57-0.6-0.57
					c-0.04-0.04-0.08-0.04-0.11-0.04c-0.04,0-0.08,0.04-0.08,0.08c0,0-0.15,0.6-0.23,0.79c-0.15-0.15-0.64-0.53-0.64-0.53
					c-0.04-0.04-0.08-0.04-0.11,0c-0.04,0-0.08,0.04-0.08,0.08c0,0-0.11,0.6-0.15,0.83c-0.19-0.11-0.72-0.45-0.72-0.45
					c-0.04-0.04-0.08-0.04-0.11,0c-0.04,0-0.04,0.04-0.04,0.08c0,0-0.08,0.6-0.08,0.83c-0.19-0.11-0.75-0.38-0.75-0.38
					c-0.04,0-0.08,0-0.11,0s-0.04,0.04-0.04,0.08c0,0,0,0.6,0,0.83c-0.19-0.08-0.75-0.34-0.75-0.34c-0.04,0-0.08,0-0.11,0
					c-0.04,0.04-0.04,0.04-0.04,0.08l0,0c0,0,0.04,0.6,0.08,0.83c-0.19-0.08-0.79-0.26-0.79-0.26c-0.04,0-0.08,0-0.11,0.04
					c-0.04,0.04-0.04,0.04-0.04,0.08l0,0c0,0,0.11,0.6,0.15,0.83c-0.23-0.04-0.83-0.19-0.83-0.19c-0.04,0-0.08,0-0.11,0.04
					c0,0-0.04,0.04-0.04,0.08c0,0,0,0,0,0.04c0,0,0.15,0.6,0.23,0.79c-0.23-0.04-0.83-0.11-0.83-0.11c-0.04,0-0.08,0-0.08,0.04
					c0,0-0.04,0.04-0.04,0.08v0.04c0,0,0.23,0.57,0.3,0.79c-0.23,0-0.83-0.04-0.83-0.04c-0.04,0-0.08,0-0.08,0.04v0.04v0.04
					c0,0,0.26,0.57,0.38,0.75c-0.23,0-0.83,0.04-0.83,0.04c-0.04,0-0.08,0.04-0.08,0.04v0.04v0.04c0,0,0.3,0.53,0.41,0.72
					c-0.23,0.04-0.83,0.11-0.83,0.11c-0.04,0-0.08,0.04-0.08,0.08v0.04c0,0.04,0,0.04,0.04,0.08c0,0,0.38,0.49,0.49,0.68
					c-0.23,0.04-0.83,0.19-0.83,0.19c-0.04,0-0.08,0.04-0.08,0.08v0.04c0,0.04,0,0.04,0.04,0.08c0,0,0.41,0.45,0.57,0.64
					c-0.19,0.08-0.79,0.26-0.79,0.26c-0.04,0-0.08,0.04-0.08,0.08c0,0,0,0,0,0.04c0,0.04,0,0.04,0.04,0.08c0,0,0.45,0.41,0.6,0.57
					c-0.19,0.08-0.75,0.34-0.75,0.34c-0.04,0-0.04,0.04-0.08,0.08l0,0c0,0.04,0,0.08,0.04,0.08c0,0,0.49,0.38,0.64,0.53
					c-0.19,0.11-0.75,0.41-0.75,0.41c-0.04,0-0.04,0.04-0.04,0.08l0,0c0,0.04,0,0.08,0.04,0.08c0,0,0.53,0.34,0.68,0.45
					c-0.19,0.11-0.68,0.45-0.68,0.45c-0.04,0-0.04,0.04-0.04,0.08l0,0c0,0.04,0.04,0.08,0.04,0.08s0.53,0.3,0.75,0.41
					c-0.15,0.15-0.64,0.53-0.64,0.53c-0.04,0.04-0.04,0.04-0.04,0.08l0,0c0,0.04,0.04,0.08,0.08,0.08c0,0,0.57,0.26,0.75,0.34
					c-0.15,0.15-0.6,0.57-0.6,0.57c-0.04,0.04-0.04,0.04-0.04,0.08c0,0,0,0,0,0.04c0,0.04,0.04,0.08,0.08,0.08
					c0,0,0.6,0.19,0.79,0.26c-0.15,0.15-0.57,0.64-0.57,0.64s-0.04,0.04-0.04,0.08v0.04c0,0.04,0.04,0.08,0.08,0.08
					c0,0,0.6,0.15,0.83,0.19c-0.11,0.19-0.49,0.68-0.49,0.68s-0.04,0.04-0.04,0.08v0.04c0,0.04,0.04,0.04,0.08,0.08
					c0,0,0.6,0.08,0.83,0.11c-0.11,0.19-0.41,0.72-0.41,0.72v0.04v0.04c0,0.04,0.04,0.04,0.08,0.04c0,0,0.6,0.04,0.83,0.04
					c-0.08,0.19-0.38,0.75-0.38,0.75v0.04c0,0.04,0,0.04,0,0.04c0.04,0.04,0.04,0.04,0.08,0.04c0,0,0.6-0.04,0.83-0.04
					c-0.08,0.19-0.3,0.79-0.3,0.79v0.04c0,0.04,0,0.04,0.04,0.08c0.04,0.04,0.08,0.04,0.08,0.04s0.6-0.08,0.83-0.11
					c-0.08,0.23-0.23,0.79-0.23,0.79s0,0,0,0.04c0,0.04,0,0.04,0.04,0.08c0.04,0.04,0.08,0.04,0.11,0.04c0,0,0.6-0.15,0.83-0.19
					c-0.04,0.23-0.15,0.83-0.15,0.83l0,0c0,0.04,0,0.04,0.04,0.08c0.04,0.04,0.08,0.04,0.11,0.04c0,0,0.6-0.19,0.79-0.26
					c-0.04,0.23-0.08,0.83-0.08,0.83l0,0c0,0.04,0,0.08,0.04,0.08c0.04,0.04,0.08,0.04,0.11,0c0,0,0.57-0.23,0.75-0.34
					c0,0.23,0,0.83,0,0.83c0,0.04,0,0.08,0.04,0.08s0.08,0.04,0.11,0c0,0,0.53-0.3,0.75-0.38c0.04,0.23,0.08,0.83,0.08,0.83
					c0,0.04,0.04,0.08,0.04,0.08c0.04,0,0.08,0,0.11,0c0,0,0.53-0.34,0.72-0.45c0.04,0.23,0.15,0.83,0.15,0.83
					c0,0.04,0.04,0.08,0.08,0.08s0.08,0,0.11,0c0,0,0.49-0.38,0.64-0.53c0.08,0.23,0.23,0.79,0.23,0.79c0,0.04,0.04,0.08,0.08,0.08
					s0.08,0,0.11-0.04c0,0,0.45-0.41,0.6-0.57c0.08,0.19,0.3,0.79,0.3,0.79c0,0.04,0.04,0.08,0.08,0.08s0.08,0,0.08-0.04
					c0,0,0.41-0.45,0.57-0.64c0.11,0.19,0.38,0.75,0.38,0.75c0,0.04,0.04,0.04,0.08,0.04s0.08,0,0.08-0.04c0,0,0.38-0.49,0.49-0.68
					c0.11,0.19,0.41,0.72,0.41,0.72c0,0.04,0.04,0.04,0.08,0.04l0,0c0.04,0,0.08,0,0.08-0.04c0,0,0.3-0.53,0.41-0.72
					c0.11,0.19,0.49,0.68,0.49,0.68c0.04,0.04,0.04,0.04,0.08,0.04s0.08-0.04,0.08-0.04s0.26-0.57,0.38-0.75
					c0.15,0.15,0.57,0.64,0.57,0.64c0.04,0.04,0.08,0.04,0.08,0.04c0.04,0,0.08-0.04,0.08-0.08c0,0,0.23-0.57,0.3-0.79
					c0.15,0.15,0.6,0.57,0.6,0.57c0.04,0.04,0.08,0.04,0.11,0.04c0.04,0,0.08-0.04,0.08-0.08c0,0,0.15-0.6,0.23-0.79
					c0.19,0.15,0.64,0.53,0.64,0.53c0.04,0.04,0.08,0.04,0.11,0c0.04-0.04,0.08-0.04,0.08-0.08c0,0,0.11-0.6,0.15-0.83
					c0.19,0.11,0.72,0.45,0.72,0.45c0.04,0.04,0.08,0.04,0.11,0c0.04,0,0.04-0.04,0.04-0.08c0,0,0.08-0.6,0.08-0.83
					c0.19,0.11,0.75,0.38,0.75,0.38c0.04,0,0.08,0,0.11,0c0.04,0,0.04-0.04,0.04-0.08c0,0,0-0.6,0-0.83
					c0.19,0.08,0.75,0.34,0.75,0.34c0.04,0,0.08,0,0.11,0c0.04-0.04,0.04-0.04,0.04-0.08l0,0c0,0-0.04-0.6-0.08-0.83
					c0.19,0.08,0.79,0.26,0.79,0.26c0.04,0,0.08,0,0.11-0.04c0.04-0.04,0.04-0.04,0.04-0.08l0,0c0,0-0.11-0.6-0.15-0.83
					c0.23,0.08,0.87,0.23,0.87,0.23c0.04,0,0.08,0,0.11-0.04c0-0.04,0.04-0.04,0.04-0.08v-0.04c0,0-0.23-0.64-0.3-0.87
					c0.23,0.04,0.83,0.11,0.83,0.11c0.04,0,0.08,0,0.08-0.04c0,0,0.04-0.04,0.04-0.08v-0.04c0,0-0.23-0.57-0.3-0.79
					c0.23,0,0.83,0.04,0.83,0.04c0.04,0,0.08,0,0.08-0.04v-0.04v-0.04c0,0-0.26-0.57-0.38-0.75c0.23,0,0.83-0.04,0.83-0.04
					c0.04,0,0.08-0.04,0.08-0.04v-0.04v-0.04c0,0-0.3-0.53-0.41-0.72c0.23-0.04,0.83-0.11,0.83-0.11c0.04,0,0.08-0.04,0.08-0.08
					v-0.04c0-0.04,0-0.04-0.04-0.08c0,0-0.38-0.49-0.49-0.68c0.23-0.04,0.83-0.19,0.83-0.19c0.04,0,0.08-0.04,0.08-0.08v-0.04
					c0-0.04,0-0.04-0.04-0.08c0,0-0.41-0.45-0.57-0.64c0.19-0.08,0.79-0.26,0.79-0.26c0.04,0,0.08-0.04,0.08-0.08c0,0,0,0,0-0.04
					c0-0.04,0-0.04-0.04-0.08c0,0-0.45-0.41-0.6-0.57c0.19-0.08,0.75-0.34,0.75-0.34c0.04,0,0.04-0.04,0.08-0.08l0,0
					c0-0.04,0-0.08-0.04-0.08c0,0-0.49-0.38-0.64-0.53c0.19-0.11,0.75-0.41,0.75-0.41c0.04,0,0.04-0.04,0.04-0.08l0,0
					c0-0.04,0-0.08-0.04-0.08c0,0-0.53-0.34-0.68-0.45c0.19-0.11,0.72-0.45,0.72-0.45c0.04,0,0.04-0.04,0.04-0.08l0,0
					c0-0.04-0.04-0.08-0.04-0.08s-0.53-0.3-0.72-0.41c0.15-0.15,0.64-0.53,0.64-0.53c0.04-0.04,0.04-0.04,0.04-0.08l0,0
					c0-0.04-0.04-0.08-0.08-0.08c0,0-0.57-0.23-0.75-0.34c0.15-0.15,0.6-0.57,0.6-0.57c0.04-0.04,0.04-0.04,0.04-0.08
					c0,0,0,0,0-0.04c0-0.04-0.04-0.08-0.08-0.08c0,0-0.6-0.19-0.79-0.26c0.15-0.15,0.57-0.64,0.57-0.64s0.04-0.04,0.04-0.08v-0.04
					c0-0.04-0.04-0.08-0.08-0.08c0,0-0.6-0.15-0.83-0.19c0.11-0.19,0.49-0.68,0.49-0.68s0.04-0.04,0.04-0.08v-0.04
					c0-0.04-0.04-0.04-0.08-0.08c0,0-0.6-0.08-0.83-0.11c0.11-0.19,0.41-0.72,0.41-0.72v-0.04v-0.04c0-0.04-0.04-0.04-0.08-0.04
					c0,0-0.6-0.04-0.83-0.04c0.08-0.19,0.38-0.75,0.38-0.75v-0.04c0-0.04,0-0.04,0-0.04c-0.04-0.04-0.04-0.04-0.08-0.04
					c0,0-0.6,0.04-0.83,0.04c0.08-0.19,0.3-0.79,0.3-0.79v-0.04c0-0.04,0-0.04-0.04-0.08s-0.08-0.04-0.08-0.04s-0.6,0.08-0.83,0.11
					c0.08-0.23,0.23-0.79,0.23-0.79s0,0,0-0.04c0-0.04,0-0.04-0.04-0.08c-0.04-0.04-0.08-0.04-0.11-0.04c0,0-0.6,0.15-0.83,0.19
					c0.04-0.23,0.15-0.83,0.15-0.83l0,0c0-0.04,0-0.04-0.04-0.08c-0.04-0.04-0.08-0.04-0.11-0.04c0,0-0.6,0.19-0.79,0.26
					c0.04-0.23,0.08-0.83,0.08-0.83l0,0c0-0.04,0-0.08-0.04-0.08c-0.04-0.04-0.08-0.04-0.11,0c0,0-0.57,0.23-0.75,0.34
					c0-0.23,0-0.83,0-0.83c0-0.04,0-0.08-0.04-0.08s-0.08-0.04-0.11,0c0,0-0.53,0.3-0.75,0.38c-0.04-0.23-0.08-0.83-0.08-0.83
					c0-0.04-0.04-0.08-0.04-0.08c-0.04,0-0.08,0-0.11,0c0,0-0.53,0.34-0.72,0.45c-0.04-0.23-0.15-0.83-0.15-0.83
					c0-0.04-0.04-0.08-0.08-0.08s-0.08,0-0.11,0c0,0-0.49,0.38-0.64,0.53c-0.08-0.23-0.23-0.79-0.23-0.79
					c0-0.04-0.04-0.08-0.08-0.08s-0.08,0-0.11,0.04c0,0-0.45,0.41-0.6,0.57c-0.08-0.19-0.3-0.79-0.3-0.79
					c0-0.04-0.04-0.08-0.08-0.08c-0.04,0-0.08,0-0.08,0.04c0,0-0.41,0.45-0.57,0.64c-0.08-0.19-0.38-0.75-0.38-0.75
					c0-0.04-0.04-0.04-0.08-0.04s-0.08,0-0.08,0.04c0,0-0.38,0.49-0.49,0.68c-0.11-0.19-0.45-0.72-0.45-0.72
					C170.15,41.85,170.12,41.85,170.08,41.85L170.08,41.85z M169.59,42.87c0.04,0,0.08-0.04,0.08-0.04s0.3-0.49,0.41-0.68
					c0.11,0.19,0.45,0.68,0.45,0.68c0,0.04,0.04,0.04,0.08,0.04s0.08,0,0.08-0.04c0,0,0.34-0.49,0.49-0.68
					c0.11,0.23,0.34,0.75,0.34,0.75c0,0.04,0.04,0.04,0.08,0.04c0.04,0,0.08,0,0.08-0.04c0,0,0.38-0.45,0.53-0.6
					c0.08,0.23,0.3,0.75,0.3,0.75c0,0.04,0.04,0.04,0.08,0.08c0.04,0,0.08,0,0.08-0.04c0,0,0.41-0.41,0.6-0.57
					c0.08,0.23,0.23,0.79,0.23,0.79c0,0.04,0.04,0.08,0.08,0.08s0.08,0,0.08,0s0.45-0.38,0.64-0.53c0.04,0.23,0.15,0.79,0.15,0.79
					c0,0.04,0.04,0.08,0.08,0.08s0.08,0,0.11,0c0,0,0.49-0.34,0.68-0.45c0.04,0.23,0.08,0.83,0.08,0.83c0,0.04,0.04,0.08,0.04,0.08
					c0.04,0,0.08,0,0.11,0c0,0,0.53-0.26,0.72-0.38c0,0.23,0,0.83,0,0.83c0,0.04,0,0.08,0.04,0.08c0.04,0,0.08,0.04,0.11,0
					c0,0,0.53-0.23,0.75-0.3c-0.04,0.23-0.08,0.83-0.08,0.83l0,0c0,0.04,0,0.08,0.04,0.08c0.04,0.04,0.08,0.04,0.08,0
					c0,0,0.57-0.19,0.79-0.26c-0.04,0.23-0.15,0.79-0.15,0.79l0,0c0,0.04,0,0.04,0.04,0.08c0.04,0.04,0.08,0.04,0.08,0.04
					s0.57-0.11,0.79-0.19c-0.08,0.23-0.23,0.79-0.23,0.79s0,0,0,0.04c0,0.04,0,0.04,0.04,0.08c0.04,0.04,0.04,0.04,0.08,0.04
					c0,0,0.6-0.08,0.83-0.11c-0.08,0.23-0.3,0.75-0.3,0.75v0.04c0,0.04,0,0.04,0,0.08c0.04,0.04,0.04,0.04,0.08,0.04
					c0,0,0.6-0.04,0.83-0.04c-0.11,0.23-0.34,0.75-0.34,0.75v0.04v0.04c0,0.04,0.04,0.04,0.08,0.04c0,0,0.6,0.04,0.83,0.04
					c-0.11,0.19-0.41,0.72-0.41,0.72v0.04v0.04c0,0.04,0.04,0.04,0.08,0.04c0,0,0.57,0.08,0.83,0.11c-0.15,0.19-0.49,0.68-0.49,0.68
					s-0.04,0.04-0.04,0.08v0.04c0,0.04,0.04,0.04,0.08,0.08c0,0,0.57,0.15,0.79,0.19c-0.15,0.19-0.53,0.6-0.53,0.6
					s-0.04,0.04-0.04,0.08c0,0,0,0,0,0.04c0,0.04,0.04,0.08,0.08,0.08c0,0,0.57,0.19,0.79,0.26c-0.15,0.15-0.6,0.57-0.6,0.57
					c-0.04,0.04-0.04,0.04-0.04,0.08l0,0c0,0.04,0.04,0.08,0.08,0.08c0,0,0.53,0.23,0.75,0.34c-0.19,0.15-0.64,0.53-0.64,0.53
					c-0.04,0.04-0.04,0.04-0.04,0.08l0,0c0,0.04,0.04,0.08,0.04,0.08s0.53,0.26,0.72,0.38c-0.19,0.11-0.68,0.45-0.68,0.45
					c-0.04,0-0.04,0.04-0.04,0.08l0,0c0,0.04,0,0.08,0.04,0.08c0,0,0.49,0.34,0.68,0.45c-0.19,0.11-0.72,0.38-0.72,0.38
					c-0.04,0-0.04,0.04-0.04,0.08l0,0c0,0.04,0,0.08,0.04,0.08c0,0,0.45,0.38,0.64,0.53c-0.23,0.08-0.75,0.34-0.75,0.34
					c-0.04,0-0.04,0.04-0.08,0.08l0,0c0,0.04,0,0.04,0.04,0.08c0,0,0.41,0.41,0.6,0.57c-0.23,0.08-0.79,0.26-0.79,0.26
					c-0.04,0-0.04,0.04-0.08,0.08c0,0,0,0,0,0.04c0,0.04,0,0.04,0.04,0.08c0,0,0.38,0.45,0.53,0.6c-0.23,0.04-0.79,0.19-0.79,0.19
					c-0.04,0-0.08,0.04-0.08,0.08v0.04c0,0.04,0,0.04,0.04,0.08c0,0,0.34,0.49,0.49,0.68c-0.23,0.04-0.83,0.11-0.83,0.11
					c-0.04,0-0.08,0.04-0.08,0.04V59v0.04c0,0,0.3,0.49,0.41,0.72c-0.23,0-0.83,0.04-0.83,0.04c-0.04,0-0.08,0.04-0.08,0.04v0.04
					v0.04c0,0,0.26,0.53,0.34,0.75c-0.23,0-0.83-0.04-0.83-0.04c-0.04,0-0.08,0-0.08,0.04c0,0-0.04,0.04-0.04,0.08v0.04
					c0,0,0.19,0.57,0.3,0.75c-0.23-0.04-0.83-0.11-0.83-0.11c-0.04,0-0.08,0-0.08,0.04c0,0-0.04,0.04-0.04,0.08v0.04
					c0,0,0.19,0.6,0.26,0.83c-0.26-0.08-0.87-0.23-0.87-0.23c-0.04,0-0.08,0-0.08,0.04c-0.04,0.04-0.04,0.04-0.04,0.08l0,0
					c0,0,0.11,0.57,0.15,0.79c-0.23-0.08-0.79-0.26-0.79-0.26c-0.04,0-0.08,0-0.08,0c-0.04,0.04-0.04,0.04-0.04,0.08l0,0
					c0,0,0.04,0.6,0.08,0.83c-0.23-0.08-0.75-0.3-0.75-0.3c-0.04,0-0.08,0-0.11,0c-0.04,0-0.04,0.04-0.04,0.08c0,0,0,0.6,0,0.83
					c-0.19-0.11-0.72-0.38-0.72-0.38c-0.04,0-0.08,0-0.11,0c-0.04,0-0.04,0.04-0.04,0.08c0,0-0.04,0.6-0.08,0.83
					c-0.19-0.11-0.68-0.45-0.68-0.45c-0.04,0-0.08-0.04-0.11,0c-0.04,0-0.04,0.04-0.08,0.08c0,0-0.11,0.57-0.15,0.79
					c-0.19-0.15-0.64-0.53-0.64-0.53c-0.04-0.04-0.08-0.04-0.08,0c-0.04,0-0.04,0.04-0.08,0.08c0,0-0.15,0.57-0.23,0.79
					c-0.15-0.15-0.6-0.57-0.6-0.57c-0.04-0.04-0.08-0.04-0.08-0.04c-0.04,0-0.08,0.04-0.08,0.08c0,0-0.23,0.57-0.3,0.75
					c-0.15-0.19-0.53-0.6-0.53-0.6c-0.04-0.04-0.04-0.04-0.08-0.04c-0.04,0-0.08,0.04-0.08,0.04s-0.26,0.53-0.34,0.75
					c-0.15-0.19-0.49-0.68-0.49-0.68c-0.04-0.04-0.04-0.04-0.08-0.04s-0.08,0.04-0.08,0.04s-0.3,0.49-0.41,0.72
					c-0.11-0.19-0.41-0.72-0.41-0.72c0-0.04-0.04-0.04-0.08-0.04c-0.04,0-0.08,0-0.08,0.04c0,0-0.34,0.49-0.49,0.68
					c-0.11-0.23-0.34-0.75-0.34-0.75c0-0.04-0.04-0.04-0.08-0.04s-0.08,0-0.08,0.04c0,0-0.38,0.45-0.53,0.6
					c-0.08-0.23-0.3-0.75-0.3-0.75c0-0.04-0.04-0.04-0.08-0.08c-0.04,0-0.08,0-0.08,0.04c0,0-0.41,0.41-0.6,0.57
					c-0.08-0.23-0.23-0.79-0.23-0.79c0-0.04-0.04-0.08-0.08-0.08c-0.04,0-0.08,0-0.08,0s-0.45,0.38-0.64,0.53
					c-0.04-0.23-0.15-0.79-0.15-0.79c0-0.04-0.04-0.08-0.08-0.08c-0.04,0-0.08,0-0.11,0c0,0-0.49,0.34-0.68,0.45
					c-0.04-0.23-0.08-0.83-0.08-0.83c0-0.04-0.04-0.08-0.04-0.08c-0.04,0-0.08,0-0.11,0c0,0-0.53,0.26-0.72,0.38
					c0-0.23,0-0.83,0-0.83c0-0.04,0-0.08-0.04-0.08c-0.04,0-0.08-0.04-0.11,0c0,0-0.53,0.23-0.75,0.3c0.04-0.23,0.08-0.83,0.08-0.83
					l0,0c0-0.04,0-0.08-0.04-0.08c-0.04-0.04-0.08-0.04-0.08,0c0,0-0.57,0.19-0.79,0.26c0.04-0.23,0.15-0.79,0.15-0.79l0,0
					c0-0.04,0-0.04-0.04-0.08s-0.08-0.04-0.08-0.04s-0.57,0.11-0.79,0.19c0.08-0.23,0.23-0.79,0.23-0.79s0,0,0-0.04
					c0-0.04,0-0.04-0.04-0.08s-0.04-0.04-0.08-0.04c0,0-0.57,0.08-0.83,0.11c0.08-0.23,0.3-0.75,0.3-0.75v-0.04
					c0-0.04,0-0.04-0.04-0.08c-0.04-0.04-0.04-0.04-0.08-0.04c0,0-0.6,0.04-0.83,0.04c0.11-0.23,0.34-0.75,0.34-0.75v-0.04v-0.04
					c0-0.04-0.04-0.04-0.08-0.04c0,0-0.6-0.04-0.83-0.04c0.11-0.19,0.41-0.72,0.41-0.72V59v-0.04c0-0.04-0.04-0.04-0.08-0.04
					c0,0-0.57-0.08-0.83-0.11c0.15-0.19,0.49-0.68,0.49-0.68s0.04-0.04,0.04-0.08v-0.04c0-0.04-0.04-0.04-0.08-0.08
					c0,0-0.57-0.15-0.79-0.19c0.19-0.15,0.57-0.6,0.57-0.6s0.04-0.04,0.04-0.08c0,0,0,0,0-0.04c0-0.04-0.04-0.08-0.08-0.08
					c0,0-0.57-0.19-0.79-0.26c0.15-0.15,0.6-0.57,0.6-0.57c0.04-0.04,0.04-0.04,0.04-0.08l0,0c0-0.04-0.04-0.08-0.08-0.08
					c0,0-0.53-0.23-0.75-0.34c0.19-0.15,0.64-0.53,0.64-0.53c0.04-0.04,0.04-0.04,0.04-0.08l0,0c0-0.04-0.04-0.08-0.04-0.08
					s-0.53-0.26-0.72-0.38c0.19-0.11,0.68-0.45,0.68-0.45c0.04,0,0.04-0.04,0.04-0.08l0,0c0-0.04,0-0.08-0.04-0.08
					c0,0-0.49-0.34-0.68-0.45c0.19-0.11,0.72-0.38,0.72-0.38c0.04,0,0.04-0.04,0.04-0.08l0,0c0-0.04,0-0.08-0.04-0.08
					c0,0-0.45-0.38-0.64-0.53c0.23-0.08,0.75-0.34,0.75-0.34c0.04,0,0.04-0.04,0.08-0.08l0,0c0-0.04,0-0.04-0.04-0.08
					c0,0-0.41-0.41-0.6-0.57c0.23-0.08,0.79-0.26,0.79-0.26c0.04,0,0.08-0.04,0.08-0.08c0,0,0,0,0-0.04c0-0.04,0-0.04-0.04-0.08
					c0,0-0.38-0.45-0.53-0.6c0.23-0.04,0.79-0.19,0.79-0.19c0.04,0,0.08-0.04,0.08-0.08v-0.04c0-0.04,0-0.04-0.04-0.08
					c0,0-0.34-0.49-0.49-0.68c0.23-0.04,0.83-0.11,0.83-0.11c0.04,0,0.08-0.04,0.08-0.04v-0.04v-0.04c0,0-0.3-0.49-0.41-0.72
					c0.23,0,0.83-0.04,0.83-0.04c0.04,0,0.08-0.04,0.08-0.04v-0.04v-0.04c0,0-0.26-0.53-0.34-0.75c0.23,0,0.83,0.04,0.83,0.04
					c0.04,0,0.08,0,0.08-0.04c0,0,0.04-0.04,0.04-0.08v-0.04c0,0-0.19-0.57-0.3-0.75c0.23,0.04,0.83,0.11,0.83,0.11
					c0.04,0,0.08,0,0.08-0.04c0,0,0.04-0.04,0.04-0.08c0,0,0,0,0-0.04c0,0-0.15-0.57-0.23-0.79c0.23,0.04,0.79,0.19,0.79,0.19
					c0.04,0,0.08,0,0.08-0.04c0.04-0.04,0.04-0.04,0.04-0.08l0,0c0,0-0.11-0.57-0.15-0.79c0.23,0.08,0.79,0.26,0.79,0.26
					c0.04,0,0.08,0,0.08,0c0.04-0.04,0.04-0.04,0.04-0.08l0,0c0,0-0.04-0.6-0.08-0.83c0.23,0.08,0.75,0.34,0.75,0.34
					c0.04,0,0.08,0,0.11,0c0.04,0,0.04-0.04,0.04-0.08c0,0,0-0.6,0-0.83c0.19,0.11,0.72,0.38,0.72,0.38c0.04,0,0.08,0,0.11,0
					c0.04,0,0.04-0.04,0.04-0.08c0,0,0.04-0.6,0.08-0.83c0.19,0.11,0.68,0.45,0.68,0.45c0.04,0,0.08,0.04,0.11,0
					c0.04,0,0.04-0.04,0.08-0.08c0,0,0.11-0.57,0.15-0.79c0.19,0.15,0.64,0.53,0.64,0.53c0.04,0.04,0.08,0.04,0.08,0
					c0.04,0,0.04-0.04,0.08-0.08c0,0,0.15-0.57,0.23-0.79c0.15,0.15,0.6,0.57,0.6,0.57c0.04,0.04,0.08,0.04,0.08,0.04
					c0.04,0,0.08-0.04,0.08-0.08c0,0,0.23-0.57,0.3-0.75c0.15,0.19,0.53,0.6,0.53,0.6c0.04,0.04,0.04,0.04,0.08,0.04
					s0.08-0.04,0.08-0.04s0.26-0.53,0.34-0.75c0.15,0.19,0.49,0.68,0.49,0.68C169.51,42.87,169.55,42.87,169.59,42.87L169.59,42.87z
					"/>
				<path class="st6" d="M178.22,47.28l-0.79,0.79c0,0-0.04,0.04-0.04,0.08c0,0-0.04,0.34-0.04,0.38c-0.04,0.04-3.43,3.43-3.5,3.5
					c-0.08,0-0.38,0.04-0.38,0.04c-0.04,0-0.04,0-0.08,0.04l-0.79,0.79c-0.04,0.04-0.04,0.04-0.04,0.08s0,0.04,0.04,0.08l0.83,0.83
					c0.04,0,0.04,0.04,0.08,0.04l0,0c0.04,0,0.04,0,0.08-0.04l0.79-0.79c0,0,0.04-0.04,0.04-0.08c0,0,0.04-0.34,0.04-0.38
					c0.04-0.04,3.43-3.43,3.5-3.5c0.08,0,0.38-0.04,0.38-0.04c0.04,0,0.04,0,0.08-0.04l0.79-0.79c0.04,0,0.04-0.04,0.04-0.08l0,0
					c0-0.04,0-0.04-0.04-0.08l-0.83-0.83C178.33,47.24,178.26,47.24,178.22,47.28L178.22,47.28z M178.29,47.51
					c0.11,0.11,0.57,0.57,0.68,0.68c-0.11,0.11-0.64,0.64-0.72,0.72c-0.08,0-0.38,0.04-0.38,0.04c-0.04,0-0.04,0-0.08,0.04
					l-3.54,3.54c0,0-0.04,0.04-0.04,0.08c0,0-0.04,0.34-0.04,0.38c-0.04,0.04-0.6,0.6-0.72,0.72c-0.11-0.11-0.57-0.57-0.68-0.68
					c0.11-0.11,0.64-0.64,0.72-0.72c0.08,0,0.38-0.04,0.38-0.04c0.04,0,0.04,0,0.08-0.04l3.54-3.54c0,0,0.04-0.04,0.04-0.08
					c0,0,0.04-0.34,0.04-0.38C177.65,48.15,178.18,47.62,178.29,47.51L178.29,47.51z M177.05,46.15l-0.79,0.79
					c0,0-0.04,0.04-0.04,0.08c0,0-0.04,0.34-0.04,0.38c-0.04,0.04-3.43,3.43-3.5,3.5c-0.08,0-0.38,0.04-0.38,0.04
					c-0.04,0-0.04,0-0.08,0.04l-0.79,0.79c-0.04,0.04-0.04,0.04-0.04,0.08l0,0c0,0.04,0,0.04,0.04,0.08l0.83,0.83
					c0.04,0.04,0.11,0.04,0.15,0l0.79-0.79c0,0,0.04-0.04,0.04-0.08c0,0,0.04-0.34,0.04-0.38c0.04-0.04,3.43-3.43,3.5-3.5
					c0.08,0,0.38-0.04,0.38-0.04c0.04,0,0.04,0,0.08-0.04l0.79-0.79c0,0,0.04-0.04,0.04-0.08l0,0c0-0.04,0-0.04-0.04-0.08
					l-0.83-0.83C177.16,46.11,177.09,46.11,177.05,46.15z M177.12,46.34c0.11,0.11,0.57,0.57,0.68,0.68
					c-0.11,0.11-0.64,0.64-0.72,0.72c-0.08,0-0.38,0.04-0.38,0.04c-0.04,0-0.04,0-0.08,0.04l-3.54,3.54c0,0-0.04,0.04-0.04,0.08
					c0,0-0.04,0.34-0.04,0.38c-0.04,0.04-0.6,0.6-0.72,0.72c-0.11-0.11-0.57-0.57-0.68-0.68c0.11-0.11,0.64-0.64,0.72-0.72
					c0.08,0,0.38-0.04,0.38-0.04c0.04,0,0.04,0,0.08-0.04l3.54-3.54c0,0,0.04-0.04,0.04-0.08c0,0,0.04-0.34,0.04-0.38
					C176.48,47.02,177.01,46.45,177.12,46.34z M175.99,44.94c-0.04,0-0.04,0-0.08,0.04l-0.79,0.79c0,0-0.04,0.04-0.04,0.08
					c0,0-0.04,0.34-0.04,0.38c-0.04,0.04-3.43,3.43-3.5,3.5c-0.08,0-0.38,0.04-0.38,0.04c-0.04,0-0.04,0-0.08,0.04l-0.79,0.79
					c0,0-0.04,0.04-0.04,0.08l0,0c0,0.04,0,0.04,0.04,0.08l0.83,0.83c0.04,0.04,0.11,0.04,0.15,0l0.79-0.83c0,0,0.04-0.04,0.04-0.08
					c0,0,0.04-0.34,0.04-0.38c0.04-0.04,3.43-3.43,3.5-3.5c0.08,0,0.38-0.04,0.38-0.04c0.04,0,0.04,0,0.08-0.04l0.79-0.79
					c0.04-0.04,0.04-0.04,0.04-0.08s0-0.04-0.04-0.08l-0.83-0.83C176.03,44.98,175.99,44.94,175.99,44.94L175.99,44.94z
					 M175.99,45.21c0.11,0.11,0.6,0.57,0.68,0.68c-0.11,0.11-0.64,0.64-0.72,0.72c-0.08,0-0.38,0.04-0.38,0.04
					c-0.04,0-0.04,0-0.08,0.04l-3.54,3.54c0,0-0.04,0.04-0.04,0.08c0,0-0.04,0.34-0.04,0.38c-0.04,0.04-0.6,0.6-0.72,0.72
					c-0.11-0.11-0.57-0.57-0.68-0.68c0.11-0.11,0.64-0.64,0.72-0.72c0.08,0,0.38-0.04,0.38-0.04c0.04,0,0.04,0,0.08-0.04l3.54-3.54
					c0,0,0.04-0.04,0.04-0.08c0,0,0.04-0.34,0.04-0.38C175.32,45.85,175.88,45.32,175.99,45.21z M168.95,56.62
					c-0.04,0-0.04,0-0.08,0.04l-0.79,0.79c0,0-0.04,0.04-0.04,0.08c0,0-0.04,0.34-0.04,0.38c-0.04,0.04-3.43,3.43-3.5,3.5
					c-0.08,0-0.38,0.04-0.38,0.04c-0.04,0-0.04,0-0.08,0.04l-0.79,0.79c0,0-0.04,0.04-0.04,0.08l0,0c0,0.04,0,0.04,0.04,0.08
					l0.83,0.83c0.04,0,0.04,0.04,0.08,0.04s0.04,0,0.08-0.04l0.79-0.79c0,0,0.04-0.04,0.04-0.08c0,0,0.04-0.34,0.04-0.38
					c0.04-0.04,3.43-3.43,3.5-3.5c0.08,0,0.38-0.04,0.38-0.04c0.04,0,0.04,0,0.08-0.04l0.79-0.79c0.04-0.04,0.04-0.04,0.04-0.08
					c0-0.04,0-0.04-0.04-0.08l-0.83-0.83C168.99,56.62,168.95,56.62,168.95,56.62z M168.95,56.85c0.11,0.11,0.57,0.57,0.68,0.68
					c-0.11,0.11-0.64,0.64-0.72,0.72c-0.08,0-0.38,0.04-0.38,0.04c-0.04,0-0.04,0-0.08,0.04l-3.54,3.54c0,0-0.04,0.04-0.04,0.08
					c0,0-0.04,0.34-0.04,0.38c-0.04,0.04-0.6,0.6-0.72,0.72c-0.11-0.11-0.6-0.57-0.68-0.68c0.11-0.11,0.64-0.64,0.72-0.72
					c0.08,0,0.38-0.04,0.38-0.04c0.04,0,0.04,0,0.08-0.04l3.54-3.54c0,0,0.04-0.04,0.04-0.08c0,0,0.04-0.34,0.04-0.38
					C168.27,57.53,168.84,56.96,168.95,56.85L168.95,56.85z M167.74,55.46l-0.79,0.79c0,0-0.04,0.04-0.04,0.08
					c0,0-0.04,0.34-0.04,0.38c-0.04,0.04-3.43,3.43-3.5,3.5c-0.08,0-0.38,0.04-0.38,0.04c-0.04,0-0.04,0-0.08,0.04l-0.79,0.79
					c-0.04,0.04-0.04,0.04-0.04,0.08c0,0.04,0,0.04,0.04,0.08l0.83,0.83c0,0,0.04,0.04,0.08,0.04s0.04,0,0.08-0.04l0.79-0.79
					c0,0,0.04-0.04,0.04-0.08c0,0,0.04-0.34,0.04-0.38c0.04-0.04,3.43-3.43,3.5-3.5c0.08,0,0.38-0.04,0.38-0.04
					c0.04,0,0.04,0,0.08-0.04l0.79-0.79c0.04-0.04,0.04-0.04,0.04-0.08c0-0.04,0-0.04-0.04-0.08l-0.83-0.83
					C167.82,55.42,167.78,55.42,167.74,55.46L167.74,55.46z M167.82,55.68c0.11,0.11,0.57,0.57,0.68,0.68
					c-0.11,0.11-0.64,0.64-0.72,0.72c-0.08,0-0.38,0.04-0.38,0.04c-0.04,0-0.04,0-0.08,0.04l-3.54,3.54c0,0-0.04,0.04-0.04,0.08
					c0,0-0.04,0.34-0.04,0.38c-0.04,0.04-0.6,0.6-0.72,0.72c-0.11-0.11-0.57-0.57-0.68-0.68c0.11-0.11,0.64-0.64,0.72-0.72
					c0.08,0,0.38-0.04,0.38-0.04c0.04,0,0.04,0,0.08-0.04l3.54-3.54c0,0,0.04-0.04,0.04-0.08c0,0,0.04-0.34,0.04-0.38
					C167.14,56.36,167.67,55.79,167.82,55.68L167.82,55.68z M166.65,54.29c-0.04,0-0.04,0-0.08,0.04l-0.79,0.79
					c0,0-0.04,0.04-0.04,0.08c0,0-0.04,0.34-0.04,0.38c-0.04,0.04-3.43,3.43-3.5,3.5c-0.08,0-0.38,0.04-0.38,0.04
					c-0.04,0-0.04,0-0.08,0.04l-0.79,0.79c0,0-0.04,0.04-0.04,0.08l0,0c0,0.04,0,0.04,0.04,0.08l0.83,0.83c0,0,0.04,0.04,0.08,0.04
					l0,0c0.04,0,0.04,0,0.08-0.04l0.79-0.79c0,0,0.04-0.04,0.04-0.08c0,0,0.04-0.34,0.04-0.38c0.04-0.04,3.43-3.43,3.5-3.5
					c0.08,0,0.38-0.04,0.38-0.04c0.04,0,0.04,0,0.08-0.04l0.79-0.79c0.04-0.04,0.04-0.04,0.04-0.08s0-0.04-0.04-0.08l-0.83-0.83
					C166.69,54.29,166.69,54.29,166.65,54.29z M166.65,54.51c0.11,0.11,0.57,0.57,0.68,0.68c-0.11,0.11-0.64,0.64-0.72,0.72
					c-0.08,0-0.38,0.04-0.38,0.04c-0.04,0-0.04,0-0.08,0.04l-3.54,3.54c0,0-0.04,0.04-0.04,0.08c0,0-0.04,0.34-0.04,0.38
					c-0.04,0.04-0.6,0.6-0.72,0.72c-0.11-0.11-0.57-0.57-0.68-0.68c0.11-0.11,0.64-0.64,0.72-0.72c0.08,0,0.38-0.04,0.38-0.04
					c0.04,0,0.04,0,0.08-0.04l3.54-3.54c0,0,0.04-0.04,0.04-0.08c0,0,0.04-0.34,0.04-0.38C165.97,55.19,166.54,54.63,166.65,54.51
					L166.65,54.51z M173.55,54.29c-0.04,0-0.04,0-0.08,0.04l-0.83,0.83c-0.04,0.04-0.04,0.04-0.04,0.08s0,0.04,0.04,0.08l0.79,0.79
					c0,0,0.04,0.04,0.08,0.04c0,0,0.34,0.04,0.38,0.04c0.04,0.04,3.43,3.43,3.5,3.5c0,0.08,0.04,0.38,0.04,0.38
					c0,0.04,0,0.04,0.04,0.08l0.79,0.79c0.04,0,0.04,0.04,0.08,0.04l0,0c0.04,0,0.04,0,0.08-0.04l0.83-0.83
					c0.04-0.04,0.04-0.04,0.04-0.08s0-0.04-0.04-0.08l-0.79-0.79c0,0-0.04-0.04-0.08-0.04c0,0-0.34-0.04-0.38-0.04
					c-0.04-0.04-3.43-3.43-3.5-3.5c0-0.08-0.04-0.38-0.04-0.38c0-0.04,0-0.04-0.04-0.08l-0.79-0.79
					C173.58,54.33,173.55,54.29,173.55,54.29z M173.55,54.55c0.11,0.11,0.64,0.64,0.72,0.72c0,0.08,0.04,0.38,0.04,0.38
					c0,0.04,0,0.04,0.04,0.08l3.54,3.54c0,0,0.04,0.04,0.08,0.04c0,0,0.34,0.04,0.38,0.04c0.04,0.04,0.6,0.6,0.72,0.72
					c-0.11,0.11-0.57,0.57-0.68,0.68c-0.11-0.11-0.64-0.64-0.72-0.72c0-0.08-0.04-0.38-0.04-0.38c0-0.04,0-0.04-0.04-0.08
					l-3.54-3.54c0,0-0.04-0.04-0.08-0.04c0,0-0.34-0.04-0.38-0.04c-0.04-0.04-0.6-0.6-0.72-0.72
					C172.94,55.12,173.43,54.66,173.55,54.55L173.55,54.55z M172.3,55.46l-0.83,0.83c-0.04,0.04-0.04,0.04-0.04,0.08
					c0,0.04,0,0.04,0.04,0.08l0.79,0.79c0,0,0.04,0.04,0.08,0.04c0,0,0.34,0.04,0.38,0.04c0.04,0.04,3.43,3.43,3.5,3.5
					c0,0.08,0.04,0.38,0.04,0.38c0,0.04,0,0.04,0.04,0.08l0.79,0.79c0,0,0.04,0.04,0.08,0.04l0,0c0.04,0,0.04,0,0.08-0.04l0.83-0.83
					c0,0,0.04-0.04,0.04-0.08l0,0c0-0.04,0-0.04-0.04-0.08l-0.79-0.79c0,0-0.04-0.04-0.08-0.04c0,0-0.34-0.04-0.38-0.04
					c-0.04-0.04-3.43-3.43-3.5-3.5c0-0.08-0.04-0.38-0.04-0.38c0-0.04,0-0.04-0.04-0.08l-0.79-0.79
					C172.42,55.42,172.34,55.42,172.3,55.46L172.3,55.46z M172.38,55.68c0.11,0.11,0.64,0.64,0.72,0.72c0,0.08,0.04,0.38,0.04,0.38
					c0,0.04,0,0.04,0.04,0.08l3.54,3.54c0,0,0.04,0.04,0.08,0.04c0,0,0.34,0.04,0.38,0.04c0.04,0.04,0.6,0.6,0.72,0.72
					c-0.11,0.11-0.57,0.57-0.68,0.68c-0.11-0.11-0.64-0.64-0.72-0.72c0-0.08-0.04-0.38-0.04-0.38c0-0.04,0-0.04-0.04-0.08
					l-3.58-3.54c0,0-0.04-0.04-0.08-0.04c0,0-0.34-0.04-0.38-0.04c-0.04-0.04-0.6-0.6-0.72-0.72
					C171.77,56.28,172.26,55.79,172.38,55.68z M171.21,56.59c-0.04,0-0.04,0-0.08,0.04l-0.83,0.83c0,0-0.04,0.04-0.04,0.08l0,0
					c0,0.04,0,0.04,0.04,0.08l0.79,0.79c0,0,0.04,0.04,0.08,0.04c0,0,0.34,0.04,0.38,0.04c0.04,0.04,3.43,3.43,3.5,3.5
					c0,0.08,0.04,0.38,0.04,0.38c0,0.04,0,0.04,0.04,0.08l0.79,0.79c0.04,0.04,0.11,0.04,0.15,0l0.83-0.83
					c0.04-0.04,0.04-0.04,0.04-0.08c0-0.04,0-0.04-0.04-0.08l-0.79-0.79c0,0-0.04-0.04-0.08-0.04c0,0-0.34-0.04-0.38-0.04
					c-0.04-0.04-3.43-3.43-3.5-3.5c0-0.08-0.04-0.38-0.04-0.38c0-0.04,0-0.04-0.04-0.08l-0.79-0.79
					C171.28,56.62,171.25,56.59,171.21,56.59L171.21,56.59z M171.21,56.85c0.11,0.11,0.64,0.64,0.72,0.72
					c0,0.08,0.04,0.38,0.04,0.38c0,0.04,0,0.04,0.04,0.08l3.54,3.54c0,0,0.04,0.04,0.08,0.04c0,0,0.34,0.04,0.38,0.04
					c0.04,0.04,0.6,0.6,0.72,0.72c-0.11,0.11-0.57,0.57-0.68,0.68c-0.11-0.11-0.64-0.64-0.72-0.72c0-0.08-0.04-0.38-0.04-0.38
					c0-0.04,0-0.04-0.04-0.08l-3.54-3.58c0,0-0.04-0.04-0.08-0.04c0,0-0.34-0.04-0.38-0.04c-0.04-0.04-0.6-0.6-0.72-0.72
					C170.64,57.41,171.1,56.96,171.21,56.85z M164.16,44.94c-0.04,0-0.04,0-0.08,0.04l-0.83,0.83c0,0.04-0.04,0.04-0.04,0.08l0,0
					c0,0.04,0,0.04,0.04,0.08l0.79,0.79c0,0,0.04,0.04,0.08,0.04c0,0,0.34,0.04,0.38,0.04c0.04,0.04,3.43,3.43,3.5,3.5
					c0,0.08,0.04,0.38,0.04,0.38c0,0.04,0,0.04,0.04,0.08l0.79,0.79c0,0,0.04,0.04,0.08,0.04s0.04,0,0.08-0.04l0.83-0.83
					c0-0.04,0.04-0.04,0.04-0.08l0,0c0-0.04,0-0.04-0.04-0.08l-0.79-0.79c0,0-0.04-0.04-0.08-0.04c0,0-0.34-0.04-0.38-0.04
					c-0.04-0.04-3.43-3.43-3.5-3.5c0-0.08-0.04-0.38-0.04-0.38c0-0.04,0-0.04-0.04-0.08l-0.79-0.79
					C164.24,44.94,164.2,44.94,164.16,44.94z M164.16,45.17c0.11,0.11,0.64,0.64,0.72,0.72c0,0.08,0.04,0.38,0.04,0.38
					c0,0.04,0,0.04,0.04,0.08l3.54,3.54c0,0,0.04,0.04,0.08,0.04c0,0,0.34,0.04,0.38,0.04c0.04,0.04,0.6,0.6,0.72,0.72
					c-0.11,0.11-0.57,0.57-0.68,0.68c-0.11-0.11-0.64-0.64-0.72-0.72c0-0.08-0.04-0.38-0.04-0.38c0-0.04,0-0.04-0.04-0.08
					l-3.54-3.54c0,0-0.04-0.04-0.08-0.04c0,0-0.34-0.04-0.38-0.04c-0.04-0.04-0.6-0.6-0.72-0.72
					C163.6,45.77,164.05,45.28,164.16,45.17L164.16,45.17z M162.96,46.15l-0.83,0.83c-0.04,0.04-0.04,0.04-0.04,0.08
					s0,0.04,0.04,0.08l0.79,0.79c0,0,0.04,0.04,0.08,0.04c0,0,0.34,0.04,0.38,0.04c0.04,0.04,3.43,3.43,3.5,3.5
					c0,0.08,0.04,0.38,0.04,0.38c0,0.04,0,0.04,0.04,0.08l0.79,0.79c0.04,0.04,0.11,0.04,0.15,0l0.79-0.87
					c0.04-0.04,0.04-0.04,0.04-0.08c0-0.04,0-0.04-0.04-0.08l-0.79-0.79c0,0-0.04-0.04-0.08-0.04c0,0-0.34-0.04-0.38-0.04
					c-0.04-0.04-3.43-3.43-3.5-3.5c0-0.08-0.04-0.38-0.04-0.38c0-0.04,0-0.04-0.04-0.08l-0.79-0.79
					C163.07,46.11,163,46.11,162.96,46.15L162.96,46.15z M163.03,46.34c0.11,0.11,0.64,0.64,0.72,0.72c0,0.08,0.04,0.38,0.04,0.38
					c0,0.04,0,0.04,0.04,0.08l3.54,3.54c0,0,0.04,0.04,0.08,0.04c0,0,0.34,0.04,0.38,0.04c0.04,0.04,0.6,0.6,0.72,0.72
					c-0.11,0.11-0.57,0.57-0.68,0.68c-0.11-0.11-0.64-0.64-0.72-0.72c0-0.08-0.04-0.38-0.04-0.38c0-0.04,0-0.04-0.04-0.08
					l-3.54-3.54c0,0-0.04-0.04-0.08-0.04c0,0-0.34-0.04-0.38-0.04c-0.04-0.04-0.6-0.6-0.72-0.72
					C162.47,46.94,162.92,46.45,163.03,46.34L163.03,46.34z M161.79,47.28l-0.83,0.83c-0.04,0.04-0.04,0.04-0.04,0.08
					s0,0.04,0.04,0.08l0.79,0.79c0,0,0.04,0.04,0.08,0.04c0,0,0.34,0.04,0.38,0.04c0.04,0.04,3.43,3.43,3.5,3.5
					c0,0.08,0.04,0.38,0.04,0.38c0,0.04,0,0.04,0.04,0.08l0.79,0.79c0.04,0.04,0.11,0.04,0.15,0l0.83-0.83
					c0.04-0.04,0.04-0.04,0.04-0.08s0-0.04-0.04-0.08l-0.79-0.79c0,0-0.04-0.04-0.08-0.04c0,0-0.34-0.04-0.38-0.04
					c-0.04-0.04-3.43-3.43-3.5-3.5c0-0.08-0.04-0.38-0.04-0.38c0-0.04,0-0.04-0.04-0.08l-0.79-0.79
					C161.9,47.24,161.87,47.24,161.79,47.28z M161.87,47.51c0.11,0.11,0.64,0.64,0.72,0.72c0,0.08,0.04,0.38,0.04,0.38
					c0,0.04,0,0.04,0.04,0.08l3.54,3.54c0,0,0.04,0.04,0.08,0.04c0,0,0.34,0.04,0.38,0.04c0.04,0.04,0.6,0.6,0.72,0.72
					c-0.11,0.11-0.57,0.57-0.68,0.68c-0.11-0.11-0.64-0.64-0.72-0.72c0-0.08-0.04-0.38-0.04-0.38c0-0.04,0-0.04-0.04-0.08
					l-3.54-3.54c0,0-0.04-0.04-0.08-0.04c0,0-0.34-0.04-0.38-0.04c-0.04-0.04-0.6-0.6-0.72-0.72
					C161.3,48.07,161.79,47.62,161.87,47.51L161.87,47.51z M170,55.49l-0.83,0.83c-0.04,0.04-0.04,0.11,0,0.15L170,57.3
					c0.04,0.04,0.11,0.04,0.15,0l0.83-0.83c0.04-0.04,0.04-0.11,0-0.15l-0.83-0.83c-0.04,0-0.04-0.04-0.08-0.04
					S170.04,55.49,170,55.49L170,55.49z M170.08,55.72c0.11,0.11,0.57,0.57,0.68,0.68c-0.11,0.11-0.57,0.57-0.68,0.68
					c-0.11-0.11-0.57-0.57-0.68-0.68C169.51,56.28,169.97,55.83,170.08,55.72z M168.87,54.33l-0.83,0.83c0,0.04-0.04,0.04-0.04,0.08
					s0,0.04,0.04,0.08l0.83,0.83c0.04,0.04,0.11,0.04,0.15,0l0.83-0.83c0.04-0.04,0.04-0.11,0-0.15l-0.83-0.83
					c-0.04,0-0.04-0.04-0.08-0.04C168.91,54.33,168.87,54.33,168.87,54.33L168.87,54.33z M168.91,54.55
					c0.11,0.11,0.57,0.57,0.68,0.68c-0.11,0.11-0.57,0.57-0.68,0.68c-0.11-0.11-0.6-0.57-0.68-0.68
					C168.35,55.15,168.84,54.66,168.91,54.55z M167.71,53.2l-0.83,0.83c0,0-0.04,0.04-0.04,0.08s0,0.04,0.04,0.08l0.83,0.83
					c0.04,0.04,0.11,0.04,0.15,0l0.83-0.83c0.04-0.04,0.04-0.11,0-0.15l-0.83-0.83C167.82,53.16,167.74,53.16,167.71,53.2z
					 M167.78,53.38c0.11,0.11,0.57,0.57,0.68,0.68c-0.11,0.11-0.57,0.57-0.68,0.68c-0.11-0.11-0.57-0.57-0.68-0.68
					C167.18,53.99,167.67,53.5,167.78,53.38z M168.87,52.03l-0.83,0.83c0,0.04-0.04,0.04-0.04,0.08s0,0.04,0.04,0.08l0.83,0.83
					c0.04,0.04,0.11,0.04,0.15,0l0.79-0.83c0.04-0.04,0.04-0.11,0-0.15l-0.83-0.83c-0.04,0-0.04-0.04-0.08-0.04L168.87,52.03
					L168.87,52.03z M168.91,52.25c0.11,0.11,0.57,0.57,0.68,0.68c-0.11,0.11-0.57,0.57-0.68,0.68c-0.11-0.11-0.6-0.57-0.68-0.68
					C168.35,52.82,168.84,52.37,168.91,52.25z M170,53.2l-0.83,0.83c-0.04,0.04-0.04,0.11,0,0.15L170,55c0.04,0.04,0.11,0.04,0.15,0
					l0.83-0.83c0.04-0.04,0.04-0.11,0-0.15l-0.83-0.83C170.12,53.16,170.04,53.16,170,53.2z M170.08,53.38
					c0.11,0.11,0.57,0.57,0.68,0.68c-0.11,0.11-0.57,0.57-0.68,0.68c-0.11-0.11-0.57-0.57-0.68-0.68
					C169.51,53.99,169.97,53.5,170.08,53.38z M171.25,54.33c-0.04,0-0.04,0-0.08,0.04l-0.83,0.83c-0.04,0.04-0.04,0.11,0,0.15
					l0.83,0.83c0.04,0.04,0.11,0.04,0.15,0l0.83-0.83c0,0,0.04-0.04,0.04-0.08c0-0.04,0-0.04-0.04-0.08l-0.83-0.83
					C171.28,54.33,171.25,54.33,171.25,54.33z M171.25,54.55c0.11,0.11,0.6,0.57,0.68,0.68c-0.11,0.11-0.57,0.57-0.68,0.68
					c-0.11-0.11-0.57-0.57-0.68-0.68C170.64,55.15,171.13,54.66,171.25,54.55z M172.34,53.2l-0.83,0.83c-0.04,0-0.04,0.04-0.04,0.08
					s0,0.04,0.04,0.08l0.83,0.83c0.04,0,0.04,0.04,0.08,0.04c0.04,0,0.04,0,0.08-0.04l0.83-0.83c0.04-0.04,0.04-0.11,0-0.15
					l-0.83-0.83c-0.04,0-0.04-0.04-0.08-0.04S172.34,53.16,172.34,53.2z M172.38,53.38c0.11,0.11,0.57,0.57,0.68,0.68
					c-0.11,0.11-0.57,0.57-0.68,0.68c-0.11-0.11-0.57-0.57-0.68-0.68C171.81,53.99,172.3,53.5,172.38,53.38z M171.25,51.99
					c-0.04,0-0.04,0-0.08,0.04l-0.83,0.83c-0.04,0.04-0.04,0.11,0,0.15l0.83,0.83c0.04,0.04,0.11,0.04,0.15,0l0.83-0.83
					c0,0,0.04-0.04,0.04-0.08s0-0.04-0.04-0.08l-0.83-0.83C171.28,52.03,171.25,51.99,171.25,51.99z M171.25,52.25
					c0.11,0.11,0.6,0.57,0.68,0.68c-0.11,0.11-0.57,0.57-0.68,0.68c-0.11-0.11-0.57-0.57-0.68-0.68
					C170.64,52.82,171.13,52.37,171.25,52.25z M170,50.9l-0.83,0.83c-0.04,0.04-0.04,0.11,0,0.15l0.83,0.83
					c0.04,0.04,0.11,0.04,0.15,0l0.83-0.83c0.04-0.04,0.04-0.11,0-0.15l-0.83-0.83c-0.04,0-0.04-0.04-0.08-0.04
					S170.04,50.86,170,50.9L170,50.9z M170.08,51.09c0.11,0.11,0.57,0.57,0.68,0.68c-0.11,0.11-0.57,0.57-0.68,0.68
					c-0.11-0.11-0.57-0.57-0.68-0.68C169.51,51.69,169.97,51.2,170.08,51.09z"/>
			</g>
			<g>
				<path class="st6" d="M151.45,124.21l-2.59,4.53l-1.31-0.75l-0.01-3.26l0.04-0.87l-0.01,0l-0.45,0.85l-1.31,2.29l-1.04-0.6
					l2.59-4.53l1.31,0.75l0.01,3.26l-0.04,0.87l0.01,0l0.45-0.85l1.31-2.29L151.45,124.21z"/>
				<path class="st6" d="M156.49,126.32l-1.17,2.86c-0.28,0.68-0.67,1.12-1.17,1.31c-0.5,0.19-1.11,0.14-1.82-0.15
					c-0.71-0.29-1.18-0.68-1.4-1.17c-0.23-0.49-0.2-1.08,0.08-1.76l1.17-2.86l1.27,0.52l-1.18,2.89c-0.14,0.35-0.17,0.64-0.09,0.87
					c0.08,0.23,0.27,0.41,0.57,0.53c0.3,0.12,0.56,0.13,0.78,0.02c0.22-0.11,0.4-0.34,0.54-0.69l1.18-2.89L156.49,126.32z"/>
				<path class="st6" d="M159.67,127.2c0.6,0.16,1.03,0.43,1.29,0.8c0.26,0.37,0.33,0.79,0.2,1.26c-0.14,0.51-0.41,0.86-0.81,1.05
					c-0.4,0.18-0.91,0.19-1.51,0.03l-0.14,0.04l-1-0.27l-0.49,1.84l-1.29-0.34l1.34-5.05L159.67,127.2z M158.88,129.42
					c0.25,0.07,0.46,0.07,0.61,0c0.15-0.07,0.26-0.21,0.32-0.44c0.06-0.22,0.04-0.4-0.06-0.53c-0.1-0.14-0.28-0.24-0.53-0.31
					l-0.93-0.25l-0.34,1.28L158.88,129.42z M159.58,129.9l0.95,2.93l-1.45-0.39l-0.7-2.55L159.58,129.9z"/>
				<path class="st6" d="M164.76,130.77l-0.17,1.09l-2.86-0.44l0.17-1.09L164.76,130.77z"/>
				<path class="st6" d="M168.03,128.38c0.48,0.02,0.91,0.12,1.27,0.29c0.36,0.17,0.68,0.4,0.93,0.71l-0.7,0.84
					c-0.21-0.25-0.45-0.44-0.7-0.57c-0.25-0.13-0.55-0.21-0.88-0.22c-0.2-0.01-0.35,0-0.48,0.04c-0.12,0.04-0.21,0.09-0.27,0.16
					c-0.06,0.07-0.09,0.15-0.09,0.25c-0.01,0.11,0.04,0.21,0.14,0.29c0.1,0.08,0.26,0.15,0.49,0.22l0.87,0.24
					c0.52,0.15,0.89,0.34,1.12,0.59c0.23,0.24,0.34,0.56,0.32,0.94c-0.02,0.37-0.13,0.68-0.33,0.92c-0.2,0.25-0.47,0.42-0.81,0.54
					c-0.34,0.11-0.72,0.16-1.15,0.14c-0.35-0.02-0.68-0.07-0.99-0.16c-0.31-0.09-0.59-0.22-0.84-0.37
					c-0.25-0.15-0.45-0.33-0.62-0.52l0.7-0.88c0.12,0.16,0.28,0.3,0.47,0.43c0.19,0.13,0.39,0.23,0.62,0.31
					c0.23,0.08,0.46,0.13,0.69,0.14c0.18,0.01,0.34,0,0.47-0.03c0.13-0.03,0.22-0.08,0.28-0.15c0.06-0.07,0.09-0.16,0.1-0.26
					c0.01-0.11-0.03-0.21-0.1-0.29c-0.08-0.08-0.22-0.15-0.44-0.22l-0.95-0.26c-0.29-0.08-0.55-0.19-0.77-0.31
					c-0.22-0.12-0.4-0.29-0.52-0.49c-0.12-0.2-0.18-0.44-0.16-0.73c0.02-0.33,0.12-0.61,0.31-0.86c0.19-0.25,0.46-0.43,0.8-0.57
					S167.56,128.36,168.03,128.38z"/>
				<path class="st6" d="M175.41,128.24l0.22,3.09c0.05,0.74-0.11,1.3-0.47,1.69c-0.37,0.39-0.93,0.62-1.7,0.67
					c-0.76,0.05-1.35-0.09-1.77-0.43c-0.42-0.34-0.66-0.88-0.71-1.61l-0.22-3.09l1.37-0.1l0.22,3.11c0.03,0.37,0.13,0.65,0.3,0.82
					c0.17,0.17,0.42,0.25,0.74,0.23c0.33-0.02,0.56-0.13,0.71-0.33s0.21-0.48,0.18-0.85l-0.22-3.11L175.41,128.24z"/>
				<path class="st6" d="M178.34,131.95l2.57-0.49l0.2,1.03l-3.91,0.75l-0.98-5.13l1.34-0.26L178.34,131.95z"/>
				<path class="st6" d="M183.89,126.25l0.29,1.01l-1.64,0.47l1.15,4.01l-1.31,0.37l-1.15-4.01l-1.64,0.47l-0.29-1.01L183.89,126.25
					z"/>
				<path class="st6" d="M185.26,131.31l-0.26-5.53l1.51-0.61l3.65,4.16l-1.3,0.53l-2.2-2.73l-0.52-0.68l-0.01,0.01l0.11,0.84
					l0.29,3.51L185.26,131.31z M185.93,129.77l-0.35-0.86l2.69-1.09l0.35,0.86L185.93,129.77z"/>
				<path class="st6" d="M192.63,122l2.56,4.55l-1.32,0.74l-2.8-1.66l-0.73-0.48l-0.01,0l0.5,0.83l1.29,2.3l-1.05,0.59l-2.56-4.55
					l1.32-0.74l2.8,1.66l0.73,0.48l0.01,0l-0.5-0.83l-1.29-2.3L192.63,122z"/>
			</g>
		</g>
	</g>
</g>
</svg>
