<?xml version="1.0" encoding="UTF-8"?>
<svg width="1335.2" height="1335.2" version="1.0" viewBox="0 0 1068.2 1068.2" xmlns="http://www.w3.org/2000/svg" xmlns:cc="http://creativecommons.org/ns#" xmlns:dc="http://purl.org/dc/elements/1.1/" xmlns:rdf="http://www.w3.org/1999/02/22-rdf-syntax-ns#">
<metadata>
<rdf:RDF>
<cc:Work rdf:about="">
<dc:format>image/svg+xml</dc:format>
<dc:type rdf:resource="http://purl.org/dc/dcmitype/StillImage"/>
</cc:Work>
</rdf:RDF>
</metadata>
<g transform="matrix(2 0 0 2 214.87 727.18)">
<path transform="matrix(2.602 0 0 2.602 3378.6 -1124.8)" d="m-1165.7 395.18c0 39.439-31.972 71.411-71.411 71.411s-71.411-31.972-71.411-71.411 31.972-71.411 71.411-71.411 71.411 31.972 71.411 71.411z" fill="#b9dbe6"/>
<g fill="#fdec1c" stroke="#000" stroke-linecap="square" stroke-linejoin="round">
<path transform="matrix(1.2225 0 0 1.2225 1671.8 -556.44)" d="m-1165.7 395.18c0 39.439-31.972 71.411-71.411 71.411s-71.411-31.972-71.411-71.411 31.972-71.411 71.411-71.411 71.411 31.972 71.411 71.411z" stroke-width="1.3742"/>
<g stroke-width=".48">
<path d="m156.16-266.64h5.6l-1.1314 100.64h-3.3373z"/>
<path d="m193.96-263.4 5.4776 1.1643-22.432 97.81-3.2644-0.69386z"/>
<path d="m229.29-253.67 5.1159 2.2777-42.169 91.483-3.0487-1.3574z"/>
<path d="m260.22-233.5 4.5305 3.2916-57.673 76.958-2.6999-1.9616z"/>
<path d="m287.37-209.29 3.7471 4.1616-70.15 61.903-2.2331-2.4801z"/>
<path d="m308.51-180.08 2.8 4.8498-79.326 43.942-1.6686-2.8902z"/>
<path d="m322.71-147.73 1.7305 5.3259-82.868 26.225-1.0313-3.1739z"/>
<path d="m330.08-113.72 0.58538 5.5693-83.211 8.595-0.34885-3.319z"/>
<path d="m174.46-276.39 5.5693 0.58536-10.685 110.02-3.319-0.34884z"/>
<path d="m214.78-267.36 5.3259 1.7305-35.326 103.39-3.1739-1.0313z"/>
<path d="m249.42-251.6 4.8498 2.8-54.71 92.161-2.8902-1.6686z"/>
<path d="m281.29-228.96 4.1616 3.7471-71.912 76.927-2.4801-2.2331z"/>
<path d="m307.22-200.78 3.2916 4.5305-83.91 58.276-1.9616-2.6999z"/>
<path d="m325.89-168.24 2.2777 5.1159-91.422 39.156-1.3574-3.0487z"/>
<path d="m337.26-132.75 1.1643 5.4776-93.736 19.036-0.69387-3.2643z"/>
<path d="m341.05-95.485 1e-5 5.6-92.209-0.50736-1e-5 -3.3373z"/>
<path d="m329.17-77.556-0.58534 5.5693-80.18-8.4934 0.34883-3.319z"/>
<path d="m124.72-263.4-5.4776 1.1643 22.432 97.81 3.2643-0.69386z"/>
<path d="m89.391-253.67-5.1159 2.2777 42.169 91.483 3.0487-1.3574z"/>
<path d="m58.456-233.5-4.5305 3.2916 57.673 76.958 2.6999-1.9616z"/>
<path d="m31.311-209.29-3.7471 4.1616 70.15 61.903 2.2331-2.4801z"/>
<path d="m10.161-180.08-2.8 4.8498 79.326 43.942 1.6686-2.8902z"/>
<path d="m-4.0345-147.73-1.7305 5.3259 82.868 26.225 1.0313-3.1739z"/>
<path d="m-11.404-113.72-0.58538 5.5693 83.211 8.595 0.34885-3.319z"/>
<path d="m144.22-276.39-5.5693 0.58536 10.685 110.02 3.319-0.34884z"/>
<path d="m103.9-267.36-5.3259 1.7305 35.326 103.39 3.1739-1.0313z"/>
<path d="m69.254-251.6-4.8498 2.8 54.71 92.161 2.8902-1.6686z"/>
<path d="m37.391-228.96-4.1616 3.7471 71.912 76.927 2.4801-2.2331z"/>
<path d="m11.46-200.78-3.2916 4.5305 83.91 58.276 1.9616-2.6999z"/>
<path d="m-7.214-168.24-2.2777 5.1159 91.422 39.156 1.3574-3.0487z"/>
<path d="m-18.58-132.75-1.1643 5.4776 93.736 19.036 0.69386-3.2643z"/>
<path d="m-22.374-95.485-8e-6 5.6 92.209-0.50736 8e-6 -3.3373z"/>
<path d="m-10.492-77.556 0.58534 5.5693 80.18-8.4934-0.34883-3.319z"/>
</g>
</g>
<path d="m-19.75-33.485 19.2 40.4 322.4 4 22.4-55.2-32.4-17.6-42 16.4-38-30-140.8-5.6-53.2 30.4-32-8.8z" fill="#009647" stroke="#000" stroke-width=".8px"/>
<path d="m157.05-132.68-44.8 49.4-27-16.6-47 45.8-31.2-15.4-30.75 15.45c1.7444 7.6043 4.7542 15.434 7.4 22.65l35.55-20.3 28.8 15.4-6.6 14.2 58.8-51.4 48.2 28-12.2-11.6 23.2-17.4 71.6 32-10.4-13.2 13.4-5 52.6 41.2-6.6-10.6 34.2-24 24.625 14.575c1.9095-6.0658 4.1137-12.458 5.4-18.775l-29.825-12.6-46.2 16.6-36-42.2-30.2 18.8z" fill="#d6dad8" stroke="#000" stroke-width="1.6"/>
<path d="m287.45-48.485-5.4-5.6 32-13 24 13.2-25-7.8zm-71.2-12.2-8.6-9.2 24.8-18 39.4 51-38.4-30.2zm-95.6-17.2 36.6-44.6 52.6 66.6-51.6-31.8-22.8 20.4zm-37.6-9.2 14 9.2-45.6 37.9zm-101 41.4 24.8-18.6 6.4 5.8z" fill="#fff" stroke="#000" stroke-width="1.6"/>
<g transform="matrix(.8 0 0 .8 737.85 -490.18)">
<path d="m-523.47 627.32c-8.4976 0.50209-8.967-6.2761-20.536-6.2761s-12.024 6.2761-21.008 6.2761-9.4391-6.2761-21.008-6.2761-12.024 6.2761-21.008 6.2761-9.4391-6.2761-21.008-6.2761c-11.569 0-12.024 6.2761-21.008 6.2761s-9.4391-6.2761-21.008-6.2761c-11.569 0-12.024 6.2761-21.008 6.2761s-9.4391-6.2761-21.008-6.2761c-11.569 0-12.024 6.2761-21.008 6.2761s-9.439-6.2761-21.008-6.2761-12.024 6.2761-21.008 6.2761-9.4391-6.2761-21.008-6.2761-12.024 6.2761-21.008 6.2761-9.4391-6.2761-21.008-6.2761-12.024 6.2761-21.008 6.2761-9.4391-6.2761-21.008-6.2761-12.024 6.2761-21.008 6.2761-9.4418-6.5272-20.536-6.2761" fill="none" stroke="#0f6eac" stroke-width="11.674"/>
<path d="m-921.72 613.31 0.0937 3.5625c5.1963-0.11759 7.5238 1.214 10.094 2.7812s5.4816 3.5 10.406 3.5c4.908 0 7.8086-1.8375 10.438-3.375s5.1012-2.9062 10.562-2.9062 7.9336 1.3688 10.562 2.9062 5.5295 3.375 10.438 3.375 7.8086-1.8375 10.438-3.375 5.1012-2.9062 10.562-2.9062 7.9648 1.3688 10.594 2.9062 5.5295 3.375 10.438 3.375 7.8086-1.8375 10.438-3.375 5.1012-2.9062 10.562-2.9062 7.9336 1.3688 10.562 2.9062 5.5295 3.375 10.438 3.375 7.8086-1.8375 10.438-3.375 5.1012-2.9062 10.562-2.9062 7.9648 1.3688 10.594 2.9062 5.5295 3.375 10.438 3.375 7.8086-1.8375 10.438-3.375 5.1012-2.9062 10.562-2.9062c5.4613 0 7.9336 1.3688 10.562 2.9062s5.5295 3.375 10.438 3.375 7.8086-1.8375 10.438-3.375 5.1012-2.9062 10.562-2.9062c5.4613 0 7.9648 1.3688 10.594 2.9062s5.5295 3.375 10.438 3.375 7.8086-1.8375 10.438-3.375 5.1012-2.9062 10.562-2.9062 7.9336 1.3688 10.562 2.9062 5.5295 3.375 10.438 3.375 7.8086-1.8375 10.438-3.375 5.1012-2.9062 10.562-2.9062 7.9648 1.3688 10.594 2.9062 5.5295 3.375 10.438 3.375 7.8086-1.8375 10.438-3.375 5.1012-2.9062 10.562-2.9062c5.4354 0 7.892 1.4611 10.469 3.0625s5.4328 3.4978 10.156 3.2188l-0.1875-3.5625c-3.7742 0.223-5.388-1.0253-8.0625-2.6875s-6.2416-3.5938-12.375-3.5938c-6.1076 0-9.6381 1.7744-12.375 3.375s-4.5493 2.9062-8.625 2.9062-5.9194-1.3056-8.6562-2.9062-6.2674-3.375-12.375-3.375-9.6381 1.7744-12.375 3.375-4.5493 2.9062-8.625 2.9062-5.8881-1.3056-8.625-2.9062-6.2674-3.375-12.375-3.375-9.6381 1.7744-12.375 3.375-4.5493 2.9062-8.625 2.9062-5.9194-1.3056-8.6562-2.9062-6.2674-3.375-12.375-3.375-9.6381 1.7744-12.375 3.375-4.5493 2.9062-8.625 2.9062-5.8881-1.3056-8.625-2.9062-6.2674-3.375-12.375-3.375-9.6381 1.7744-12.375 3.375-4.5493 2.9062-8.625 2.9062-5.9194-1.3056-8.6562-2.9062-6.2674-3.375-12.375-3.375-9.6381 1.7744-12.375 3.375-4.5493 2.9062-8.625 2.9062-5.8881-1.3056-8.625-2.9062-6.2674-3.375-12.375-3.375-9.6381 1.7744-12.375 3.375-4.5493 2.9062-8.625 2.9062-5.9194-1.3056-8.6562-2.9062-6.2674-3.375-12.375-3.375-9.6381 1.7744-12.375 3.375-4.5493 2.9062-8.625 2.9062-5.8881-1.3056-8.625-2.9062-6.2674-3.375-12.375-3.375-9.6381 1.7744-12.375 3.375-4.5493 2.9062-8.625 2.9062c-4.0591 0-5.8839-1.3352-8.5625-2.9688s-6.1334-3.446-12.031-3.3125z" color="#000000" fill="#fff" stroke="#000" stroke-width="2" style="block-progression:tb;text-indent:0;text-transform:none"/>
<path d="m-523.47 639.22c-8.4976 0.50209-8.967-6.2761-20.536-6.2761s-12.024 6.2761-21.008 6.2761-9.4391-6.2761-21.008-6.2761-12.024 6.2761-21.008 6.2761-9.4391-6.2761-21.008-6.2761c-11.569 0-12.024 6.2761-21.008 6.2761s-9.4391-6.2761-21.008-6.2761c-11.569 0-12.024 6.2761-21.008 6.2761s-9.4391-6.2761-21.008-6.2761c-11.569 0-12.024 6.2761-21.008 6.2761s-9.439-6.2761-21.008-6.2761-12.024 6.2761-21.008 6.2761-9.4391-6.2761-21.008-6.2761-12.024 6.2761-21.008 6.2761-9.4391-6.2761-21.008-6.2761-12.024 6.2761-21.008 6.2761-9.4391-6.2761-21.008-6.2761-12.024 6.2761-21.008 6.2761-9.4418-6.5272-20.536-6.2761" fill="none" stroke="#aad8ef" stroke-width="11.674"/>
<path d="m-921.72 625.21 0.0937 3.5625c5.1963-0.11759 7.5238 1.214 10.094 2.7812s5.4816 3.5 10.406 3.5c4.908 0 7.8086-1.8375 10.438-3.375s5.1012-2.9062 10.562-2.9062 7.9336 1.3688 10.562 2.9062 5.5295 3.375 10.438 3.375 7.8086-1.8375 10.438-3.375 5.1012-2.9062 10.562-2.9062 7.9648 1.3688 10.594 2.9062 5.5295 3.375 10.438 3.375 7.8086-1.8375 10.438-3.375 5.1012-2.9062 10.562-2.9062 7.9336 1.3688 10.562 2.9062 5.5295 3.375 10.438 3.375 7.8086-1.8375 10.438-3.375 5.1012-2.9062 10.562-2.9062 7.9648 1.3688 10.594 2.9062 5.5295 3.375 10.438 3.375 7.8086-1.8375 10.438-3.375 5.1012-2.9062 10.562-2.9062c5.4613 0 7.9336 1.3688 10.562 2.9062s5.5295 3.375 10.438 3.375 7.8086-1.8375 10.438-3.375 5.1012-2.9062 10.562-2.9062c5.4613 0 7.9648 1.3688 10.594 2.9062s5.5295 3.375 10.438 3.375 7.8086-1.8375 10.438-3.375 5.1012-2.9062 10.562-2.9062 7.9336 1.3688 10.562 2.9062 5.5295 3.375 10.438 3.375 7.8086-1.8375 10.438-3.375 5.1012-2.9062 10.562-2.9062 7.9648 1.3688 10.594 2.9062 5.5295 3.375 10.438 3.375 7.8086-1.8375 10.438-3.375 5.1012-2.9062 10.562-2.9062c5.4354 0 7.892 1.4611 10.469 3.0625s5.4328 3.4978 10.156 3.2188l-0.1875-3.5625c-3.7742 0.223-5.388-1.0253-8.0625-2.6875s-6.2416-3.5938-12.375-3.5938c-6.1076 0-9.6381 1.7744-12.375 3.375s-4.5493 2.9062-8.625 2.9062-5.9194-1.3056-8.6562-2.9062-6.2674-3.375-12.375-3.375-9.6381 1.7744-12.375 3.375-4.5493 2.9062-8.625 2.9062-5.8881-1.3056-8.625-2.9062-6.2674-3.375-12.375-3.375-9.6381 1.7744-12.375 3.375-4.5493 2.9062-8.625 2.9062-5.9194-1.3056-8.6562-2.9062-6.2674-3.375-12.375-3.375-9.6381 1.7744-12.375 3.375-4.5493 2.9062-8.625 2.9062-5.8881-1.3056-8.625-2.9062-6.2674-3.375-12.375-3.375-9.6381 1.7744-12.375 3.375-4.5493 2.9062-8.625 2.9062-5.9194-1.3056-8.6562-2.9062-6.2674-3.375-12.375-3.375-9.6381 1.7744-12.375 3.375-4.5493 2.9062-8.625 2.9062-5.8881-1.3056-8.625-2.9062-6.2674-3.375-12.375-3.375-9.6381 1.7744-12.375 3.375-4.5493 2.9062-8.625 2.9062-5.9194-1.3056-8.6562-2.9062-6.2674-3.375-12.375-3.375-9.6381 1.7744-12.375 3.375-4.5493 2.9062-8.625 2.9062-5.8881-1.3056-8.625-2.9062-6.2674-3.375-12.375-3.375-9.6381 1.7744-12.375 3.375-4.5493 2.9062-8.625 2.9062c-4.0591 0-5.8839-1.3352-8.5625-2.9688s-6.1334-3.446-12.031-3.3125z" color="#000000" fill="#fff" stroke="#000" stroke-width="2" style="block-progression:tb;text-indent:0;text-transform:none"/>
<path d="m-544 644.73c-11.569 0-12.024 6.2761-21.008 6.2761s-9.4391-6.2761-21.008-6.2761-12.024 6.2761-21.008 6.2761-9.4391-6.2761-21.008-6.2761c-11.569 0-12.024 6.2761-21.008 6.2761s-9.4391-6.2761-21.008-6.2761c-11.569 0-12.024 6.2761-21.008 6.2761s-9.4391-6.2761-21.008-6.2761c-11.569 0-12.024 6.2761-21.008 6.2761s-9.439-6.2761-21.008-6.2761-12.024 6.2761-21.008 6.2761-9.4391-6.2761-21.008-6.2761-12.024 6.2761-21.008 6.2761-9.4391-6.2761-21.008-6.2761-12.024 6.2761-21.008 6.2761-9.4391-6.2761-21.008-6.2761-12.024 6.2761-21.008 6.2761" fill="none" stroke="#0f6eac" stroke-width="11.674"/>
<path d="m-921.72 637.11 0.0937 3.5625c5.1963-0.11759 7.5238 1.214 10.094 2.7812s5.4816 3.5 10.406 3.5c4.908 0 7.8086-1.8375 10.438-3.375s5.1012-2.9062 10.562-2.9062 7.9336 1.3688 10.562 2.9062 5.5295 3.375 10.438 3.375 7.8086-1.8375 10.438-3.375 5.1012-2.9062 10.562-2.9062 7.9648 1.3688 10.594 2.9062 5.5295 3.375 10.438 3.375 7.8086-1.8375 10.438-3.375 5.1012-2.9062 10.562-2.9062 7.9336 1.3688 10.562 2.9062 5.5295 3.375 10.438 3.375 7.8086-1.8375 10.438-3.375 5.1012-2.9062 10.562-2.9062 7.9648 1.3688 10.594 2.9062 5.5295 3.375 10.438 3.375 7.8086-1.8375 10.438-3.375 5.1012-2.9062 10.562-2.9062c5.4613 0 7.9336 1.3688 10.562 2.9062s5.5295 3.375 10.438 3.375 7.8086-1.8375 10.438-3.375 5.1012-2.9062 10.562-2.9062c5.4613 0 7.9648 1.3688 10.594 2.9062s5.5295 3.375 10.438 3.375 7.8086-1.8375 10.438-3.375 5.1012-2.9062 10.562-2.9062 7.9336 1.3688 10.562 2.9062 5.5295 3.375 10.438 3.375 7.8086-1.8375 10.438-3.375 5.1012-2.9062 10.562-2.9062 7.9648 1.3688 10.594 2.9062 5.5295 3.375 10.438 3.375 7.8086-1.8375 10.438-3.375 5.1012-2.9062 10.562-2.9062c5.4354 0 7.892 1.4611 10.469 3.0625s5.4328 3.4978 10.156 3.2188l-0.1875-3.5625c-3.7742 0.223-5.388-1.0253-8.0625-2.6875s-6.2416-3.5938-12.375-3.5938c-6.1076 0-9.6381 1.7744-12.375 3.375s-4.5493 2.9062-8.625 2.9062-5.9194-1.3056-8.6562-2.9062-6.2674-3.375-12.375-3.375-9.6381 1.7744-12.375 3.375-4.5493 2.9062-8.625 2.9062-5.8881-1.3056-8.625-2.9062-6.2674-3.375-12.375-3.375-9.6381 1.7744-12.375 3.375-4.5493 2.9062-8.625 2.9062-5.9194-1.3056-8.6562-2.9062-6.2674-3.375-12.375-3.375-9.6381 1.7744-12.375 3.375-4.5493 2.9062-8.625 2.9062-5.8881-1.3056-8.625-2.9062-6.2674-3.375-12.375-3.375-9.6381 1.7744-12.375 3.375-4.5493 2.9062-8.625 2.9062-5.9194-1.3056-8.6562-2.9062-6.2674-3.375-12.375-3.375-9.6381 1.7744-12.375 3.375-4.5493 2.9062-8.625 2.9062-5.8881-1.3056-8.625-2.9062-6.2674-3.375-12.375-3.375-9.6381 1.7744-12.375 3.375-4.5493 2.9062-8.625 2.9062-5.9194-1.3056-8.6562-2.9062-6.2674-3.375-12.375-3.375-9.6381 1.7744-12.375 3.375-4.5493 2.9062-8.625 2.9062-5.8881-1.3056-8.625-2.9062-6.2674-3.375-12.375-3.375-9.6381 1.7744-12.375 3.375-4.5493 2.9062-8.625 2.9062c-4.0591 0-5.8839-1.3352-8.5625-2.9688s-6.1334-3.446-12.031-3.3125z" color="#000000" fill="#fff" stroke="#000" stroke-width="2" style="block-progression:tb;text-indent:0;text-transform:none"/>
<path d="m-544 656.63c-11.569 0-12.024 6.2761-21.008 6.2761s-9.4391-6.2761-21.008-6.2761-12.024 6.2761-21.008 6.2761-9.4391-6.2761-21.008-6.2761c-11.569 0-12.024 6.2761-21.008 6.2761s-9.4391-6.2761-21.008-6.2761c-11.569 0-12.024 6.2761-21.008 6.2761s-9.4391-6.2761-21.008-6.2761c-11.569 0-12.024 6.2761-21.008 6.2761s-9.439-6.2761-21.008-6.2761-12.024 6.2761-21.008 6.2761-9.4391-6.2761-21.008-6.2761-12.024 6.2761-21.008 6.2761-9.4391-6.2761-21.008-6.2761-12.024 6.2761-21.008 6.2761-9.4391-6.2761-21.008-6.2761-12.024 6.2761-21.008 6.2761" fill="none" stroke="#aad8ef" stroke-width="11.674"/>
<path d="m-901.13 658.85c4.908 0 7.8086-1.8375 10.438-3.375s5.1012-2.9062 10.562-2.9062 7.9336 1.3688 10.562 2.9062 5.5295 3.375 10.438 3.375 7.8086-1.8375 10.438-3.375 5.1012-2.9062 10.562-2.9062 7.9648 1.3688 10.594 2.9062 5.5295 3.375 10.438 3.375 7.8086-1.8375 10.438-3.375 5.1012-2.9062 10.562-2.9062 7.9336 1.3688 10.562 2.9062 5.5295 3.375 10.438 3.375 7.8086-1.8375 10.438-3.375 5.1012-2.9062 10.562-2.9062 7.9648 1.3688 10.594 2.9062 5.5295 3.375 10.438 3.375 7.8086-1.8375 10.438-3.375 5.1012-2.9062 10.562-2.9062c5.4613 0 7.9336 1.3688 10.562 2.9062s5.5295 3.375 10.438 3.375 7.8086-1.8375 10.438-3.375 5.1012-2.9062 10.562-2.9062c5.4613 0 7.9648 1.3688 10.594 2.9062s5.5295 3.375 10.438 3.375 7.8086-1.8375 10.438-3.375 5.1012-2.9062 10.562-2.9062 7.9336 1.3688 10.562 2.9062 5.5295 3.375 10.438 3.375 7.8086-1.8375 10.438-3.375 5.1012-2.9062 10.562-2.9062 7.9648 1.3688 10.594 2.9062 5.5295 3.375 10.438 3.375 7.8086-1.8375 10.438-3.375 5.1012-2.9062 10.562-2.9062v-3.5625c-6.1076 0-9.6381 1.7744-12.375 3.375s-4.5493 2.9062-8.625 2.9062-5.9194-1.3056-8.6562-2.9062-6.2674-3.375-12.375-3.375-9.6381 1.7744-12.375 3.375-4.5493 2.9062-8.625 2.9062-5.8881-1.3056-8.625-2.9062-6.2674-3.375-12.375-3.375-9.6381 1.7744-12.375 3.375-4.5493 2.9062-8.625 2.9062-5.9194-1.3056-8.6562-2.9062-6.2674-3.375-12.375-3.375-9.6381 1.7744-12.375 3.375-4.5493 2.9062-8.625 2.9062-5.8881-1.3056-8.625-2.9062-6.2674-3.375-12.375-3.375-9.6381 1.7744-12.375 3.375-4.5493 2.9062-8.625 2.9062-5.9194-1.3056-8.6562-2.9062-6.2674-3.375-12.375-3.375-9.6381 1.7744-12.375 3.375-4.5493 2.9062-8.625 2.9062-5.8881-1.3056-8.625-2.9062-6.2674-3.375-12.375-3.375-9.6381 1.7744-12.375 3.375-4.5493 2.9062-8.625 2.9062-5.9194-1.3056-8.6562-2.9062-6.2674-3.375-12.375-3.375-9.6381 1.7744-12.375 3.375-4.5493 2.9062-8.625 2.9062-5.8881-1.3056-8.625-2.9062-6.2674-3.375-12.375-3.375-9.6381 1.7744-12.375 3.375-4.5493 2.9062-8.625 2.9062z" color="#000000" fill="#fff" stroke="#000" stroke-width="2" style="block-progression:tb;text-indent:0;text-transform:none"/>
<path d="m-565.01 674.9c-8.9837 0-9.4391-6.2761-21.008-6.2761s-12.024 6.2761-21.008 6.2761-9.4391-6.2761-21.008-6.2761c-11.569 0-12.024 6.2761-21.008 6.2761s-9.4391-6.2761-21.008-6.2761c-11.569 0-12.024 6.2761-21.008 6.2761s-9.4391-6.2761-21.008-6.2761c-11.569 0-12.024 6.2761-21.008 6.2761s-9.439-6.2761-21.008-6.2761-12.024 6.2761-21.008 6.2761-9.4391-6.2761-21.008-6.2761-12.024 6.2761-21.008 6.2761-9.4391-6.2761-21.008-6.2761-12.024 6.2761-21.008 6.2761-9.4391-6.2761-21.008-6.2761" fill="none" stroke="#0f6eac" stroke-width="11.674"/>
<path d="m-890.69 667.37c2.6289-1.5375 5.1012-2.9062 10.562-2.9062s7.9336 1.3688 10.562 2.9062 5.5295 3.375 10.438 3.375 7.8086-1.8375 10.438-3.375 5.1012-2.9062 10.562-2.9062 7.9648 1.3688 10.594 2.9062 5.5295 3.375 10.438 3.375 7.8086-1.8375 10.438-3.375 5.1012-2.9062 10.562-2.9062 7.9336 1.3688 10.562 2.9062 5.5295 3.375 10.438 3.375 7.8086-1.8375 10.438-3.375 5.1012-2.9062 10.562-2.9062 7.9648 1.3688 10.594 2.9062 5.5295 3.375 10.438 3.375 7.8086-1.8375 10.438-3.375 5.1012-2.9062 10.562-2.9062c5.4613 0 7.9336 1.3688 10.562 2.9062s5.5295 3.375 10.438 3.375 7.8086-1.8375 10.438-3.375 5.1012-2.9062 10.562-2.9062c5.4613 0 7.9648 1.3688 10.594 2.9062s5.5295 3.375 10.438 3.375 7.8086-1.8375 10.438-3.375 5.1012-2.9062 10.562-2.9062 7.9336 1.3688 10.562 2.9062 5.5295 3.375 10.438 3.375 7.8086-1.8375 10.438-3.375 5.1012-2.9062 10.562-2.9062 7.9648 1.3688 10.594 2.9062 5.5295 3.375 10.438 3.375v-3.5625c-4.0757 0-5.9194-1.3056-8.6562-2.9062s-6.2674-3.375-12.375-3.375-9.6381 1.7744-12.375 3.375-4.5493 2.9062-8.625 2.9062-5.8881-1.3056-8.625-2.9062-6.2674-3.375-12.375-3.375-9.6381 1.7744-12.375 3.375-4.5493 2.9062-8.625 2.9062-5.9194-1.3056-8.6562-2.9062-6.2674-3.375-12.375-3.375-9.6381 1.7744-12.375 3.375-4.5493 2.9062-8.625 2.9062-5.8881-1.3056-8.625-2.9062-6.2674-3.375-12.375-3.375-9.6381 1.7744-12.375 3.375-4.5493 2.9062-8.625 2.9062-5.9194-1.3056-8.6562-2.9062-6.2674-3.375-12.375-3.375-9.6381 1.7744-12.375 3.375-4.5493 2.9062-8.625 2.9062-5.8881-1.3056-8.625-2.9062-6.2674-3.375-12.375-3.375-9.6381 1.7744-12.375 3.375-4.5493 2.9062-8.625 2.9062-5.9194-1.3056-8.6562-2.9062-6.2674-3.375-12.375-3.375-9.6381 1.7744-12.375 3.375-4.5493 2.9062-8.625 2.9062-5.8881-1.3056-8.625-2.9062-6.2674-3.375-12.375-3.375-9.6381 1.7744-12.375 3.375z" color="#000000" fill="#fff" stroke="#000" stroke-width="2" style="block-progression:tb;text-indent:0;text-transform:none"/>
<path d="m-586.02 680.42c-11.569 0-12.024 6.2761-21.008 6.2761s-9.4391-6.2761-21.008-6.2761c-11.569 0-12.024 6.2761-21.008 6.2761s-9.4391-6.2761-21.008-6.2761c-11.569 0-12.024 6.2761-21.008 6.2761s-9.4391-6.2761-21.008-6.2761c-11.569 0-12.024 6.2761-21.008 6.2761s-9.439-6.2761-21.008-6.2761-12.024 6.2761-21.008 6.2761-9.4391-6.2761-21.008-6.2761-12.024 6.2761-21.008 6.2761-9.4391-6.2761-21.008-6.2761-12.024 6.2761-21.008 6.2761" fill="none" stroke="#aad8ef" stroke-width="11.674"/>
<path d="m-869.56 679.26c2.6289 1.5375 5.5295 3.375 10.438 3.375s7.8086-1.8375 10.438-3.375 5.1012-2.9062 10.562-2.9062 7.9648 1.3688 10.594 2.9062 5.5295 3.375 10.438 3.375 7.8086-1.8375 10.438-3.375 5.1012-2.9062 10.562-2.9062 7.9336 1.3688 10.562 2.9062 5.5295 3.375 10.438 3.375 7.8086-1.8375 10.438-3.375 5.1012-2.9062 10.562-2.9062 7.9648 1.3688 10.594 2.9062 5.5295 3.375 10.438 3.375 7.8086-1.8375 10.438-3.375 5.1012-2.9062 10.562-2.9062c5.4613 0 7.9336 1.3688 10.562 2.9062s5.5295 3.375 10.438 3.375 7.8086-1.8375 10.438-3.375 5.1012-2.9062 10.562-2.9062c5.4613 0 7.9648 1.3688 10.594 2.9062s5.5295 3.375 10.438 3.375 7.8086-1.8375 10.438-3.375 5.1012-2.9062 10.562-2.9062 7.9336 1.3688 10.562 2.9062 5.5295 3.375 10.438 3.375 7.8086-1.8375 10.438-3.375 5.1012-2.9062 10.562-2.9062 7.9648 1.3688 10.594 2.9062l1.7812-3.0938c-2.7369-1.6006-6.2674-3.375-12.375-3.375s-9.6381 1.7744-12.375 3.375-4.5493 2.9062-8.625 2.9062-5.8881-1.3056-8.625-2.9062-6.2674-3.375-12.375-3.375-9.6381 1.7744-12.375 3.375-4.5493 2.9062-8.625 2.9062-5.9194-1.3056-8.6562-2.9062-6.2674-3.375-12.375-3.375-9.6381 1.7744-12.375 3.375-4.5493 2.9062-8.625 2.9062-5.8881-1.3056-8.625-2.9062-6.2674-3.375-12.375-3.375-9.6381 1.7744-12.375 3.375-4.5493 2.9062-8.625 2.9062-5.9194-1.3056-8.6562-2.9062-6.2674-3.375-12.375-3.375-9.6381 1.7744-12.375 3.375-4.5493 2.9062-8.625 2.9062-5.8881-1.3056-8.625-2.9062-6.2674-3.375-12.375-3.375-9.6381 1.7744-12.375 3.375-4.5493 2.9062-8.625 2.9062-5.9194-1.3056-8.6562-2.9062-6.2674-3.375-12.375-3.375-9.6381 1.7744-12.375 3.375-4.5493 2.9062-8.625 2.9062-5.8881-1.3056-8.625-2.9062z" color="#000000" fill="#fff" stroke="#000" stroke-width="2" style="block-progression:tb;text-indent:0;text-transform:none"/>
<path d="m-607.03 698.69c-8.9837 0-9.4391-6.2761-21.008-6.2761-11.569 0-12.024 6.2761-21.008 6.2761s-9.4391-6.2761-21.008-6.2761c-11.569 0-12.024 6.2761-21.008 6.2761s-9.4391-6.2761-21.008-6.2761c-11.569 0-12.024 6.2761-21.008 6.2761s-9.439-6.2761-21.008-6.2761-12.024 6.2761-21.008 6.2761-9.4391-6.2761-21.008-6.2761-12.024 6.2761-21.008 6.2761-9.4391-6.2761-21.008-6.2761-12.024 6.2761-21.008 6.2761" fill="none" stroke="#0f6eac" stroke-width="11.674"/>
<path d="m-859.13 694.54c4.908 0 7.8086-1.8375 10.438-3.375s5.1012-2.9062 10.562-2.9062 7.9648 1.3688 10.594 2.9062 5.5295 3.375 10.438 3.375 7.8086-1.8375 10.438-3.375 5.1012-2.9062 10.562-2.9062 7.9336 1.3688 10.562 2.9062 5.5295 3.375 10.438 3.375 7.8086-1.8375 10.438-3.375 5.1012-2.9062 10.562-2.9062 7.9648 1.3688 10.594 2.9062 5.5295 3.375 10.438 3.375 7.8086-1.8375 10.438-3.375 5.1012-2.9062 10.562-2.9062c5.4613 0 7.9336 1.3688 10.562 2.9062s5.5295 3.375 10.438 3.375 7.8086-1.8375 10.438-3.375 5.1012-2.9062 10.562-2.9062c5.4613 0 7.9648 1.3688 10.594 2.9062s5.5295 3.375 10.438 3.375 7.8086-1.8375 10.438-3.375 5.1012-2.9062 10.562-2.9062 7.9336 1.3688 10.562 2.9062 5.5295 3.375 10.438 3.375 7.8086-1.8375 10.438-3.375 5.1012-2.9062 10.562-2.9062v-3.5625c-6.1076 0-9.6381 1.7744-12.375 3.375s-4.5493 2.9062-8.625 2.9062-5.8881-1.3056-8.625-2.9062-6.2674-3.375-12.375-3.375-9.6381 1.7744-12.375 3.375-4.5493 2.9062-8.625 2.9062-5.9194-1.3056-8.6562-2.9062-6.2674-3.375-12.375-3.375-9.6381 1.7744-12.375 3.375-4.5493 2.9062-8.625 2.9062-5.8881-1.3056-8.625-2.9062-6.2674-3.375-12.375-3.375-9.6381 1.7744-12.375 3.375-4.5493 2.9062-8.625 2.9062-5.9194-1.3056-8.6562-2.9062-6.2674-3.375-12.375-3.375-9.6381 1.7744-12.375 3.375-4.5493 2.9062-8.625 2.9062-5.8881-1.3056-8.625-2.9062-6.2674-3.375-12.375-3.375-9.6381 1.7744-12.375 3.375-4.5493 2.9062-8.625 2.9062-5.9194-1.3056-8.6562-2.9062-6.2674-3.375-12.375-3.375-9.6381 1.7744-12.375 3.375-4.5493 2.9062-8.625 2.9062z" color="#000000" fill="#fff" stroke="#000" stroke-width="2" style="block-progression:tb;text-indent:0;text-transform:none"/>
<path d="m-607.03 710.58c-8.9837 0-9.4391-6.2761-21.008-6.2761-11.569 0-12.024 6.2761-21.008 6.2761s-9.4391-6.2761-21.008-6.2761c-11.569 0-12.024 6.2761-21.008 6.2761s-9.4391-6.2761-21.008-6.2761c-11.569 0-12.024 6.2761-21.008 6.2761s-9.439-6.2761-21.008-6.2761-12.024 6.2761-21.008 6.2761-9.4391-6.2761-21.008-6.2761-12.024 6.2761-21.008 6.2761-9.4391-6.2761-21.008-6.2761" fill="none" stroke="#aad8ef" stroke-width="11.674"/>
<path d="m-838.13 700.15c5.4613 0 7.9648 1.3688 10.594 2.9062s5.5295 3.375 10.438 3.375 7.8086-1.8375 10.438-3.375 5.1012-2.9062 10.562-2.9062 7.9336 1.3688 10.562 2.9062 5.5295 3.375 10.438 3.375 7.8086-1.8375 10.438-3.375 5.1012-2.9062 10.562-2.9062 7.9648 1.3688 10.594 2.9062 5.5295 3.375 10.438 3.375 7.8086-1.8375 10.438-3.375 5.1012-2.9062 10.562-2.9062c5.4613 0 7.9336 1.3688 10.562 2.9062s5.5295 3.375 10.438 3.375 7.8086-1.8375 10.438-3.375 5.1012-2.9062 10.562-2.9062c5.4613 0 7.9648 1.3688 10.594 2.9062s5.5295 3.375 10.438 3.375 7.8086-1.8375 10.438-3.375 5.1012-2.9062 10.562-2.9062 7.9336 1.3688 10.562 2.9062 5.5295 3.375 10.438 3.375v-3.5625c-4.0757 0-5.8881-1.3056-8.625-2.9062s-6.2674-3.375-12.375-3.375-9.6381 1.7744-12.375 3.375-4.5493 2.9062-8.625 2.9062-5.9194-1.3056-8.6562-2.9062-6.2674-3.375-12.375-3.375-9.6381 1.7744-12.375 3.375-4.5493 2.9062-8.625 2.9062-5.8881-1.3056-8.625-2.9062-6.2674-3.375-12.375-3.375-9.6381 1.7744-12.375 3.375-4.5493 2.9062-8.625 2.9062-5.9194-1.3056-8.6562-2.9062-6.2674-3.375-12.375-3.375-9.6381 1.7744-12.375 3.375-4.5493 2.9062-8.625 2.9062-5.8881-1.3056-8.625-2.9062-6.2674-3.375-12.375-3.375-9.6381 1.7744-12.375 3.375-4.5493 2.9062-8.625 2.9062-5.9194-1.3056-8.6562-2.9062-6.2674-3.375-12.375-3.375z" color="#000000" fill="#fff" stroke="#000" stroke-width="2" style="block-progression:tb;text-indent:0;text-transform:none"/>
<path d="m-628.04 716.2c-11.569 0-12.024 6.2761-21.008 6.2761s-9.4391-6.2761-21.008-6.2761c-11.569 0-12.024 6.2761-21.008 6.2761s-9.4391-6.2761-21.008-6.2761c-11.569 0-12.024 6.2761-21.008 6.2761s-9.439-6.2761-21.008-6.2761-12.024 6.2761-21.008 6.2761-9.4391-6.2761-21.008-6.2761-12.024 6.2761-21.008 6.2761" fill="none" stroke="#0f6eac" stroke-width="11.674"/>
<path d="m-806.66 714.95c2.6289-1.5375 5.1012-2.9062 10.562-2.9062s7.9336 1.3688 10.562 2.9062 5.5295 3.375 10.438 3.375 7.8086-1.8375 10.438-3.375 5.1012-2.9062 10.562-2.9062 7.9648 1.3688 10.594 2.9062 5.5295 3.375 10.438 3.375 7.8086-1.8375 10.438-3.375 5.1012-2.9062 10.562-2.9062c5.4613 0 7.9336 1.3688 10.562 2.9062s5.5295 3.375 10.438 3.375 7.8086-1.8375 10.438-3.375 5.1012-2.9062 10.562-2.9062c5.4613 0 7.9648 1.3688 10.594 2.9062s5.5295 3.375 10.438 3.375 7.8086-1.8375 10.438-3.375 5.1012-2.9062 10.562-2.9062v-3.5625c-6.1076 0-9.6381 1.7744-12.375 3.375s-4.5493 2.9062-8.625 2.9062-5.9194-1.3056-8.6562-2.9062-6.2674-3.375-12.375-3.375-9.6381 1.7744-12.375 3.375-4.5493 2.9062-8.625 2.9062-5.8881-1.3056-8.625-2.9062-6.2674-3.375-12.375-3.375-9.6381 1.7744-12.375 3.375-4.5493 2.9062-8.625 2.9062-5.9194-1.3056-8.6562-2.9062-6.2674-3.375-12.375-3.375-9.6381 1.7744-12.375 3.375-4.5493 2.9062-8.625 2.9062-5.8881-1.3056-8.625-2.9062-6.2674-3.375-12.375-3.375-9.6381 1.7744-12.375 3.375z" color="#000000" fill="#fff" stroke="#000" stroke-width="2" style="block-progression:tb;text-indent:0;text-transform:none"/>
<path d="m-785.53 726.85c2.6289 1.5375 5.5295 3.375 10.438 3.375s7.8086-1.8375 10.438-3.375 5.1012-2.9062 10.562-2.9062 7.9648 1.3688 10.594 2.9062 5.5295 3.375 10.438 3.375 7.8086-1.8375 10.438-3.375 5.1012-2.9062 10.562-2.9062c5.4613 0 7.9336 1.3688 10.562 2.9062s5.5295 3.375 10.438 3.375 7.8086-1.8375 10.438-3.375 5.1012-2.9062 10.562-2.9062c5.4613 0 7.9648 1.3688 10.594 2.9062l1.7812-3.0938c-2.7369-1.6006-6.2674-3.375-12.375-3.375s-9.6381 1.7744-12.375 3.375-4.5493 2.9062-8.625 2.9062-5.8881-1.3056-8.625-2.9062-6.2674-3.375-12.375-3.375-9.6381 1.7744-12.375 3.375-4.5493 2.9062-8.625 2.9062-5.9194-1.3056-8.6562-2.9062-6.2674-3.375-12.375-3.375-9.6381 1.7744-12.375 3.375-4.5493 2.9062-8.625 2.9062-5.8881-1.3056-8.625-2.9062z" color="#000000" fill="#fff" stroke="#000" stroke-width="2" style="block-progression:tb;text-indent:0;text-transform:none"/>
</g>
<path transform="matrix(3.1437 0 0 3.1437 4048.9 -1338.9)" d="m-1165.7 395.18c0 39.439-31.972 71.411-71.411 71.411s-71.411-31.972-71.411-71.411 31.972-71.411 71.411-71.411 71.411 31.972 71.411 71.411z" fill="none" stroke="#09a0e0" stroke-linecap="square" stroke-linejoin="round" stroke-width="19.091"/>
<g transform="matrix(.8 0 0 .8 737.85 -490.18)" stroke-linecap="square" stroke-linejoin="round">
<path transform="matrix(1.3787 0 0 1.0198 273.46 -2.4107)" d="m-703.25 209.74c0 18.294-7.7231 33.125-17.25 33.125s-17.25-14.831-17.25-33.125 7.7231-33.125 17.25-33.125 17.25 14.831 17.25 33.125z" fill="none" stroke="#fff" stroke-width="1.265"/>
<path transform="matrix(1.0976 -.68187 1.1685 .56178 -174.12 -396.38)" d="m-703.25 209.74c0 18.294-7.7231 33.125-17.25 33.125s-17.25-14.831-17.25-33.125 7.7231-33.125 17.25-33.125 17.25 14.831 17.25 33.125z" fill="none" stroke="#fff" stroke-width="1.265"/>
<path transform="matrix(-1.0976 -.68187 -1.1685 .56178 -1265.6 -396.38)" d="m-703.25 209.74c0 18.294-7.7231 33.125-17.25 33.125s-17.25-14.831-17.25-33.125 7.7231-33.125 17.25-33.125 17.25 14.831 17.25 33.125z" fill="none" stroke="#fff" stroke-width="1.265"/>
<path transform="matrix(0 1.3636 -1.8723 0 -327.17 1189.4)" d="m-703.25 209.74c0 18.294-7.7231 33.125-17.25 33.125s-17.25-14.831-17.25-33.125 7.7231-33.125 17.25-33.125 17.25 14.831 17.25 33.125z" fill="none" stroke="#fff" stroke-width="1.265"/>
<path transform="matrix(0 .77097 -1.1977 0 -468.67 751.85)" d="m-703.25 209.74c0 18.294-7.7231 33.125-17.25 33.125s-17.25-14.831-17.25-33.125 7.7231-33.125 17.25-33.125 17.25 14.831 17.25 33.125z" fill="none" stroke="#fff" stroke-width="1.265"/>
<path d="m-683.29 191.25c-10.398-6.4976-37.434-2.0565-58.691 8.2233-3.1602 1.5283-6.0452 3.13-8.6327 4.7709" fill="none" stroke="#fff" stroke-width="1.2616"/>
<path d="m-677.92 197.88c-10.398-6.4976-35.684-5.9315-56.941 4.3483-3.1602 1.5283-6.0452 3.13-8.6327 4.7709" fill="none" stroke="#fff" stroke-width="1.2616"/>
<path d="m-756.74 191.25c10.398-6.4976 37.434-2.0565 58.691 8.2233 3.1602 1.5283 6.0452 3.13 8.6327 4.7709" fill="none" stroke="#fff" stroke-width="1.2616"/>
<path d="m-762.12 197.88c10.398-6.4976 35.684-5.9315 56.941 4.3483 3.1602 1.5283 6.0452 3.13 8.6327 4.7709" fill="none" stroke="#fff" stroke-width="1.2616"/>
<path d="m-742.5 234.61c0 1.3807-1.1193 2.5-2.5 2.5s-2.5-1.1193-2.5-2.5 1.1193-2.5 2.5-2.5 2.5 1.1193 2.5 2.5z" fill="#fff" stroke="#000"/>
<path transform="translate(1.375,-21.25)" d="m-742.5 234.61c0 1.3807-1.1193 2.5-2.5 2.5s-2.5-1.1193-2.5-2.5 1.1193-2.5 2.5-2.5 2.5 1.1193 2.5 2.5z" fill="#fff" stroke="#000"/>
<path transform="translate(65.125,-17.625)" d="m-742.5 234.61c0 1.3807-1.1193 2.5-2.5 2.5s-2.5-1.1193-2.5-2.5 1.1193-2.5 2.5-2.5 2.5 1.1193 2.5 2.5z" fill="#fff" stroke="#000"/>
</g>
<g transform="matrix(.8 0 0 .8 737.85 -490.18)" fill="#fad239" stroke="#000" stroke-linecap="square" stroke-linejoin="round">
<path d="m-528.84 257.06v5.0938c-2.1347 0.17563-4.2169 0.59017-6.1875 1.2188l-1.9375-4.6875-4.4062 1.8125 1.9375 4.7188c-1.8757 0.97972-3.6212 2.1687-5.2188 3.5312l-3.625-3.625-3.375 3.375 3.625 3.625c-1.344 1.6075-2.5034 3.3681-3.4688 5.25l-4.7812-2-1.8125 4.4375 4.8125 1.9688c-0.61866 1.9642-1.0407 4.0354-1.2188 6.1562h-5.2188v4.7812h5.2188c0.17715 2.1282 0.59809 4.1858 1.2188 6.1562l-4.8125 1.9688 1.8125 4.4062 4.7812-1.9688c0.9625 1.8763 2.1298 3.6464 3.4688 5.25l-3.625 3.625 3.375 3.375 3.625-3.625c1.5964 1.3621 3.3445 2.5515 5.2188 3.5312l-1.9375 4.7188 4.4062 1.8125 1.9375-4.6562c1.9706 0.62858 4.0528 1.0431 6.1875 1.2188v5.0625h4.7812v-5.0938c2.1396-0.18785 4.2085-0.60825 6.1875-1.25l1.9375 4.7188 4.4375-1.8125-1.9688-4.75c1.8666-0.97783 3.5928-2.1781 5.1875-3.5312l3.6562 3.6562 3.375-3.375-3.6562-3.6562c1.3439-1.5963 2.4994-3.3527 3.4688-5.2188l4.8125 1.9688 1.8125-4.4062-4.7812-1.9688c0.62897-1.9705 1.039-4.0281 1.2188-6.1562h5.1875v-4.7812h-5.1875c-0.18073-2.1209-0.59181-4.1921-1.2188-6.1562l4.7812-1.9688-1.8125-4.4375-4.8125 2c-0.97219-1.8715-2.1198-3.6186-3.4688-5.2188l3.6562-3.6562-3.375-3.375-3.6562 3.6562c-1.5992-1.3565-3.3463-2.521-5.2188-3.5l2-4.7812-4.4375-1.8125-1.9688 4.75c-1.9705-0.63667-4.0268-1.063-6.1562-1.25v-5.125h-4.7812zm2.3125 10c5.5372 0 10.629 1.9281 14.625 5.1562l-6.3438 7.6562c-2.2618-1.7792-5.0865-2.8438-8.1875-2.8438-2.795 0-5.3904 0.87085-7.5312 2.3438l-6.3438-7.75c3.8322-2.8642 8.5982-4.5625 13.781-4.5625zm-17.75 8.3438 7.6875 6.3438c-1.9649 2.318-3.1562 5.317-3.1562 8.5938 0 2.7702 0.86345 5.3078 2.3125 7.4375l-7.75 6.3125c-2.7877-3.8526-4.4375-8.6073-4.4375-13.75 0-5.6819 2.0032-10.896 5.3438-14.938zm36.188 0.71875c3.0359 3.9323 4.8438 8.8666 4.8438 14.219 0 5.4244-1.8583 10.417-4.9688 14.375l-7.6875-6.3438c1.712-2.2384 2.75-4.9956 2.75-8.0312 0-2.9794-1.0014-5.7203-2.6562-7.9375l7.7188-6.2812zm-27.031 24.25c2.3315 2.0161 5.3633 3.25 8.6875 3.25 3.0043 0 5.7421-1.0075 7.9688-2.6875l6.2812 7.75c-3.9524 3.094-8.9352 4.9375-14.344 4.9375-5.7593 0-10.977-2.098-15-5.5625l6.4062-7.6875z" stroke-width=".7"/>
<path transform="matrix(2.3239 0 0 2.3239 692.41 -386.14)" d="m-520.31 291.09c0 2.3083-1.8712 4.1795-4.1795 4.1795s-4.1795-1.8712-4.1795-4.1795 1.8712-4.1795 4.1795-4.1795 4.1795 1.8712 4.1795 4.1795z" stroke-width=".64546"/>
</g>
<g transform="matrix(.61565 .11017 -.11017 .61565 634.98 -403.08)" fill="#fad239" stroke="#000" stroke-linecap="square" stroke-linejoin="round">
<path d="m-528.84 257.06v5.0938c-2.1347 0.17563-4.2169 0.59017-6.1875 1.2188l-1.9375-4.6875-4.4062 1.8125 1.9375 4.7188c-1.8757 0.97972-3.6212 2.1687-5.2188 3.5312l-3.625-3.625-3.375 3.375 3.625 3.625c-1.344 1.6075-2.5034 3.3681-3.4688 5.25l-4.7812-2-1.8125 4.4375 4.8125 1.9688c-0.61866 1.9642-1.0407 4.0354-1.2188 6.1562h-5.2188v4.7812h5.2188c0.17715 2.1282 0.59809 4.1858 1.2188 6.1562l-4.8125 1.9688 1.8125 4.4062 4.7812-1.9688c0.9625 1.8763 2.1298 3.6464 3.4688 5.25l-3.625 3.625 3.375 3.375 3.625-3.625c1.5964 1.3621 3.3445 2.5515 5.2188 3.5312l-1.9375 4.7188 4.4062 1.8125 1.9375-4.6562c1.9706 0.62858 4.0528 1.0431 6.1875 1.2188v5.0625h4.7812v-5.0938c2.1396-0.18785 4.2085-0.60825 6.1875-1.25l1.9375 4.7188 4.4375-1.8125-1.9688-4.75c1.8666-0.97783 3.5928-2.1781 5.1875-3.5312l3.6562 3.6562 3.375-3.375-3.6562-3.6562c1.3439-1.5963 2.4994-3.3527 3.4688-5.2188l4.8125 1.9688 1.8125-4.4062-4.7812-1.9688c0.62897-1.9705 1.039-4.0281 1.2188-6.1562h5.1875v-4.7812h-5.1875c-0.18073-2.1209-0.59181-4.1921-1.2188-6.1562l4.7812-1.9688-1.8125-4.4375-4.8125 2c-0.97219-1.8715-2.1198-3.6186-3.4688-5.2188l3.6562-3.6562-3.375-3.375-3.6562 3.6562c-1.5992-1.3565-3.3463-2.521-5.2188-3.5l2-4.7812-4.4375-1.8125-1.9688 4.75c-1.9705-0.63667-4.0268-1.063-6.1562-1.25v-5.125h-4.7812zm2.3125 10c5.5372 0 10.629 1.9281 14.625 5.1562l-6.3438 7.6562c-2.2618-1.7792-5.0865-2.8438-8.1875-2.8438-2.795 0-5.3904 0.87085-7.5312 2.3438l-6.3438-7.75c3.8322-2.8642 8.5982-4.5625 13.781-4.5625zm-17.75 8.3438 7.6875 6.3438c-1.9649 2.318-3.1562 5.317-3.1562 8.5938 0 2.7702 0.86345 5.3078 2.3125 7.4375l-7.75 6.3125c-2.7877-3.8526-4.4375-8.6073-4.4375-13.75 0-5.6819 2.0032-10.896 5.3438-14.938zm36.188 0.71875c3.0359 3.9323 4.8438 8.8666 4.8438 14.219 0 5.4244-1.8583 10.417-4.9688 14.375l-7.6875-6.3438c1.712-2.2384 2.75-4.9956 2.75-8.0312 0-2.9794-1.0014-5.7203-2.6562-7.9375l7.7188-6.2812zm-27.031 24.25c2.3315 2.0161 5.3633 3.25 8.6875 3.25 3.0043 0 5.7421-1.0075 7.9688-2.6875l6.2812 7.75c-3.9524 3.094-8.9352 4.9375-14.344 4.9375-5.7593 0-10.977-2.098-15-5.5625l6.4062-7.6875z" stroke-width=".7"/>
<path transform="matrix(2.3239 0 0 2.3239 692.41 -386.14)" d="m-520.31 291.09c0 2.3083-1.8712 4.1795-4.1795 4.1795s-4.1795-1.8712-4.1795-4.1795 1.8712-4.1795 4.1795-4.1795 4.1795 1.8712 4.1795 4.1795z" stroke-width=".64546"/>
</g>
<g transform="matrix(.8 0 0 .8 737.85 -490.18)" fill="#fad239" stroke="#000">
<path d="m-893.19 219.09v19.75c-2.949 0.53444-5.25 4.5611-5.25 9.4688v13.406c0 5.274 2.639 9.5312 5.9062 9.5312h5.5312c3.2672 0 5.9062-4.2572 5.9062-9.5312v-13.406c0-4.053-1.548-7.4967-3.75-8.875v-20.344h-8.3438z" stroke-linecap="square" stroke-linejoin="round" stroke-width=".5"/>
<rect x="-895.8" y="243.41" width="11.604" height="24.42" rx="3.9487" ry="7.1625" stroke-linecap="square" stroke-linejoin="round" stroke-width="1.2"/>
<path transform="matrix(.83822 -.22167 .21987 .843 -201.51 -156.06)" d="m-885.58 261.15c0 2.1659-0.90535 3.9218-2.0222 3.9218s-2.0222-1.7558-2.0222-3.9218 0.90535-3.9218 2.0222-3.9218 2.0222 1.7558 2.0222 3.9218z" stroke-linecap="square" stroke-linejoin="round" stroke-width="1.3807"/>
<path d="m-890.36 256.24 2.9413-1.8383-3.9218-7.8435z" stroke-width="1.2"/>
<path d="m-876.64 246.44 11.888-8.5789-1.3481-13.849-15.197 10.785c2.7864 1.2587 4.4836 4.8318 4.6571 11.643z" stroke-width=".5"/>
<path d="m-902.99 248.52-0.24511 16.545-18.996 14.462-17.035-1.8383z" stroke-width=".5"/>
<path d="m-920.76 283.08 18.996-13.971s2.2068 7.8454 11.398 7.9661c9.1816 0.12054 14.18-6.5443 14.339-10.907l-0.36767-15.319 15.074-9.4367 16.177 39.463-46.939 35.296z" stroke-width=".5"/>
<path d="m-845.02 278.67-6.0052-14.584 6.2503-4.5345 5.1473 12.01z" stroke-width=".5"/>
<path d="m-906.53 302.09-7.25 4.7812 9.6875 9.5312h10.062l-12.5-14.312zm0.71875 5.375c1.083 0 1.9688 0.88579 1.9688 1.9688s-0.88579 1.9688-1.9688 1.9688-1.9375-0.88579-1.9375-1.9688 0.85454-1.9688 1.9375-1.9688z" stroke-width=".5"/>
<path d="m-925.7 261.33-4.6796-2.7731-30.158 25.131-0.86659 150.96 25.131-60.142-8.666-95.672z" stroke-width=".5"/>
</g>
<g fill="#fff">
<g transform="matrix(.30161 -.30161 .30161 .30161 319.79 -22.173)">
<path d="m389.15-193.27-15.139 2.4085v-4.817z"/>
<path d="m358.87-193.27 15.139 2.4085v-4.817z"/>
</g>
<g transform="matrix(.30161 .30161 -.30161 .30161 203.21 -247.78)">
<path d="m389.15-193.27-15.139 2.4085v-4.817z"/>
<path d="m358.87-193.27 15.139 2.4085v-4.817z"/>
<path d="m389.15-193.27-15.139 2.4085v-4.817z"/>
<path d="m358.87-193.27 15.139 2.4085v-4.817z"/>
</g>
<g transform="matrix(.42654 0 0 .73266 214.77 -51.668)">
<path d="m395.49-193.27-21.477 2.4085v-4.817z"/>
<path d="m353.91-193.27 20.094 2.4085v-4.817z"/>
</g>
<g transform="matrix(0 .42654 -.42654 0 291.87 -352.8)">
<path d="m389.15-193.27-15.139 2.4085v-4.817z"/>
<path d="m358.87-193.27 15.139 2.4085v-4.817z"/>
</g>
<g transform="matrix(0 .42654 -.73266 0 232.7 -352.8)">
<path d="m432.02-193.27-58.008 2.4085v-4.817z"/>
<path d="m345.5-193.27 28.507 2.4085v-4.817z"/>
</g>
<g transform="matrix(.78902 0 0 .78902 91.962 -18.872)">
<g transform="matrix(.30161 -.30161 .30161 .30161 319.79 -22.173)">
<path d="m389.15-193.27-15.139 2.4085v-4.817z"/>
<path d="m358.87-193.27 15.139 2.4085v-4.817z"/>
</g>
<g transform="matrix(.30161 .30161 -.30161 .30161 203.21 -247.78)">
<path d="m389.15-193.27-15.139 2.4085v-4.817z"/>
<path d="m358.87-193.27 15.139 2.4085v-4.817z"/>
<path d="m389.15-193.27-15.139 2.4085v-4.817z"/>
<path d="m358.87-193.27 15.139 2.4085v-4.817z"/>
</g>
<g transform="matrix(.42654 0 0 .73266 214.77 -51.668)">
<path d="m395.49-193.27-21.477 2.4085v-4.817z"/>
<path d="m353.91-193.27 20.094 2.4085v-4.817z"/>
</g>
<g transform="matrix(0 .42654 -.42654 0 291.87 -352.8)">
<path d="m389.15-193.27-15.139 2.4085v-4.817z"/>
<path d="m358.87-193.27 15.139 2.4085v-4.817z"/>
</g>
<g transform="matrix(0 .42654 -.73266 0 232.7 -352.8)">
<path d="m432.02-193.27-58.008 2.4085v-4.817z"/>
<path d="m345.5-193.27 28.507 2.4085v-4.817z"/>
</g>
</g>
<g transform="matrix(.78902 0 0 .78902 76.947 4.4843)">
<g transform="matrix(.30161 -.30161 .30161 .30161 319.79 -22.173)">
<path d="m389.15-193.27-15.139 2.4085v-4.817z"/>
<path d="m358.87-193.27 15.139 2.4085v-4.817z"/>
</g>
<g transform="matrix(.30161 .30161 -.30161 .30161 203.21 -247.78)">
<path d="m389.15-193.27-15.139 2.4085v-4.817z"/>
<path d="m358.87-193.27 15.139 2.4085v-4.817z"/>
<path d="m389.15-193.27-15.139 2.4085v-4.817z"/>
<path d="m358.87-193.27 15.139 2.4085v-4.817z"/>
</g>
<g transform="matrix(.42654 0 0 .73266 214.77 -51.668)">
<path d="m395.49-193.27-21.477 2.4085v-4.817z"/>
<path d="m353.91-193.27 20.094 2.4085v-4.817z"/>
</g>
<g transform="matrix(0 .42654 -.42654 0 291.87 -352.8)">
<path d="m389.15-193.27-15.139 2.4085v-4.817z"/>
<path d="m358.87-193.27 15.139 2.4085v-4.817z"/>
</g>
<g transform="matrix(0 .42654 -.73266 0 232.7 -352.8)">
<path d="m432.02-193.27-58.008 2.4085v-4.817z"/>
<path d="m345.5-193.27 28.507 2.4085v-4.817z"/>
</g>
</g>
<g transform="matrix(.69494 0 0 .69494 84.663 -80.813)">
<g transform="matrix(.30161 -.30161 .30161 .30161 319.79 -22.173)">
<path d="m389.15-193.27-15.139 2.4085v-4.817z"/>
<path d="m358.87-193.27 15.139 2.4085v-4.817z"/>
</g>
<g transform="matrix(.30161 .30161 -.30161 .30161 203.21 -247.78)">
<path d="m389.15-193.27-15.139 2.4085v-4.817z"/>
<path d="m358.87-193.27 15.139 2.4085v-4.817z"/>
<path d="m389.15-193.27-15.139 2.4085v-4.817z"/>
<path d="m358.87-193.27 15.139 2.4085v-4.817z"/>
</g>
<g transform="matrix(.42654 0 0 .73266 214.77 -51.668)">
<path d="m395.49-193.27-21.477 2.4085v-4.817z"/>
<path d="m353.91-193.27 20.094 2.4085v-4.817z"/>
</g>
<g transform="matrix(0 .42654 -.42654 0 291.87 -352.8)">
<path d="m389.15-193.27-15.139 2.4085v-4.817z"/>
<path d="m358.87-193.27 15.139 2.4085v-4.817z"/>
</g>
<g transform="matrix(0 .42654 -.73266 0 232.7 -352.8)">
<path d="m432.02-193.27-58.008 2.4085v-4.817z"/>
<path d="m345.5-193.27 28.507 2.4085v-4.817z"/>
</g>
</g>
<g transform="matrix(.52245 0 0 .52245 169.71 -119.74)">
<g transform="matrix(.30161 -.30161 .30161 .30161 319.79 -22.173)">
<path d="m389.15-193.27-15.139 2.4085v-4.817z"/>
<path d="m358.87-193.27 15.139 2.4085v-4.817z"/>
</g>
<g transform="matrix(.30161 .30161 -.30161 .30161 203.21 -247.78)">
<path d="m389.15-193.27-15.139 2.4085v-4.817z"/>
<path d="m358.87-193.27 15.139 2.4085v-4.817z"/>
<path d="m389.15-193.27-15.139 2.4085v-4.817z"/>
<path d="m358.87-193.27 15.139 2.4085v-4.817z"/>
</g>
<g transform="matrix(.42654 0 0 .73266 214.77 -51.668)">
<path d="m395.49-193.27-21.477 2.4085v-4.817z"/>
<path d="m353.91-193.27 20.094 2.4085v-4.817z"/>
</g>
<g transform="matrix(0 .42654 -.42654 0 291.87 -352.8)">
<path d="m389.15-193.27-15.139 2.4085v-4.817z"/>
<path d="m358.87-193.27 15.139 2.4085v-4.817z"/>
</g>
<g transform="matrix(0 .42654 -.73266 0 232.7 -352.8)">
<path d="m432.02-193.27-58.008 2.4085v-4.817z"/>
<path d="m345.5-193.27 28.507 2.4085v-4.817z"/>
</g>
</g>
<g transform="matrix(.52245 0 0 .52245 144.13 -102.22)">
<g transform="matrix(.30161 -.30161 .30161 .30161 319.79 -22.173)">
<path d="m389.15-193.27-15.139 2.4085v-4.817z"/>
<path d="m358.87-193.27 15.139 2.4085v-4.817z"/>
</g>
<g transform="matrix(.30161 .30161 -.30161 .30161 203.21 -247.78)">
<path d="m389.15-193.27-15.139 2.4085v-4.817z"/>
<path d="m358.87-193.27 15.139 2.4085v-4.817z"/>
<path d="m389.15-193.27-15.139 2.4085v-4.817z"/>
<path d="m358.87-193.27 15.139 2.4085v-4.817z"/>
</g>
<g transform="matrix(.42654 0 0 .73266 214.77 -51.668)">
<path d="m395.49-193.27-21.477 2.4085v-4.817z"/>
<path d="m353.91-193.27 20.094 2.4085v-4.817z"/>
</g>
<g transform="matrix(0 .42654 -.42654 0 291.87 -352.8)">
<path d="m389.15-193.27-15.139 2.4085v-4.817z"/>
<path d="m358.87-193.27 15.139 2.4085v-4.817z"/>
</g>
<g transform="matrix(0 .42654 -.73266 0 232.7 -352.8)">
<path d="m432.02-193.27-58.008 2.4085v-4.817z"/>
<path d="m345.5-193.27 28.507 2.4085v-4.817z"/>
</g>
</g>
<g transform="matrix(.7711 0 0 .7711 34.306 -86.592)">
<g transform="matrix(.30161 -.30161 .30161 .30161 319.79 -22.173)">
<path d="m389.15-193.27-15.139 2.4085v-4.817z"/>
<path d="m358.87-193.27 15.139 2.4085v-4.817z"/>
</g>
<g transform="matrix(.30161 .30161 -.30161 .30161 203.21 -247.78)">
<path d="m389.15-193.27-15.139 2.4085v-4.817z"/>
<path d="m358.87-193.27 15.139 2.4085v-4.817z"/>
<path d="m389.15-193.27-15.139 2.4085v-4.817z"/>
<path d="m358.87-193.27 15.139 2.4085v-4.817z"/>
</g>
<g transform="matrix(.42654 0 0 .73266 214.77 -51.668)">
<path d="m395.49-193.27-21.477 2.4085v-4.817z"/>
<path d="m353.91-193.27 20.094 2.4085v-4.817z"/>
</g>
<g transform="matrix(0 .42654 -.42654 0 291.87 -352.8)">
<path d="m389.15-193.27-15.139 2.4085v-4.817z"/>
<path d="m358.87-193.27 15.139 2.4085v-4.817z"/>
</g>
<g transform="matrix(0 .42654 -.73266 0 232.7 -352.8)">
<path d="m432.02-193.27-58.008 2.4085v-4.817z"/>
<path d="m345.5-193.27 28.507 2.4085v-4.817z"/>
</g>
</g>
<g transform="matrix(.87766 0 0 .87766 -330.67 -66.553)">
<g transform="matrix(.30161 -.30161 .30161 .30161 319.79 -22.173)">
<path d="m389.15-193.27-15.139 2.4085v-4.817z"/>
<path d="m358.87-193.27 15.139 2.4085v-4.817z"/>
</g>
<g transform="matrix(.30161 .30161 -.30161 .30161 203.21 -247.78)">
<path d="m389.15-193.27-15.139 2.4085v-4.817z"/>
<path d="m358.87-193.27 15.139 2.4085v-4.817z"/>
<path d="m389.15-193.27-15.139 2.4085v-4.817z"/>
<path d="m358.87-193.27 15.139 2.4085v-4.817z"/>
</g>
<g transform="matrix(.42654 0 0 .73266 214.77 -51.668)">
<path d="m395.49-193.27-21.477 2.4085v-4.817z"/>
<path d="m353.91-193.27 20.094 2.4085v-4.817z"/>
</g>
<g transform="matrix(0 .42654 -.42654 0 291.87 -352.8)">
<path d="m389.15-193.27-15.139 2.4085v-4.817z"/>
<path d="m358.87-193.27 15.139 2.4085v-4.817z"/>
</g>
<g transform="matrix(0 .42654 -.73266 0 232.7 -352.8)">
<path d="m432.02-193.27-58.008 2.4085v-4.817z"/>
<path d="m345.5-193.27 28.507 2.4085v-4.817z"/>
</g>
</g>
<g transform="matrix(.72085 0 0 .72085 -295.15 -76.965)">
<g transform="matrix(.30161 -.30161 .30161 .30161 319.79 -22.173)">
<path d="m389.15-193.27-15.139 2.4085v-4.817z"/>
<path d="m358.87-193.27 15.139 2.4085v-4.817z"/>
</g>
<g transform="matrix(.30161 .30161 -.30161 .30161 203.21 -247.78)">
<path d="m389.15-193.27-15.139 2.4085v-4.817z"/>
<path d="m358.87-193.27 15.139 2.4085v-4.817z"/>
<path d="m389.15-193.27-15.139 2.4085v-4.817z"/>
<path d="m358.87-193.27 15.139 2.4085v-4.817z"/>
</g>
<g transform="matrix(.42654 0 0 .73266 214.77 -51.668)">
<path d="m395.49-193.27-21.477 2.4085v-4.817z"/>
<path d="m353.91-193.27 20.094 2.4085v-4.817z"/>
</g>
<g transform="matrix(0 .42654 -.42654 0 291.87 -352.8)">
<path d="m389.15-193.27-15.139 2.4085v-4.817z"/>
<path d="m358.87-193.27 15.139 2.4085v-4.817z"/>
</g>
<g transform="matrix(0 .42654 -.73266 0 232.7 -352.8)">
<path d="m432.02-193.27-58.008 2.4085v-4.817z"/>
<path d="m345.5-193.27 28.507 2.4085v-4.817z"/>
</g>
</g>
<g transform="matrix(.44206 0 0 .44206 -185.43 -119.5)">
<g transform="matrix(.30161 -.30161 .30161 .30161 319.79 -22.173)">
<path d="m389.15-193.27-15.139 2.4085v-4.817z"/>
<path d="m358.87-193.27 15.139 2.4085v-4.817z"/>
</g>
<g transform="matrix(.30161 .30161 -.30161 .30161 203.21 -247.78)">
<path d="m389.15-193.27-15.139 2.4085v-4.817z"/>
<path d="m358.87-193.27 15.139 2.4085v-4.817z"/>
<path d="m389.15-193.27-15.139 2.4085v-4.817z"/>
<path d="m358.87-193.27 15.139 2.4085v-4.817z"/>
</g>
<g transform="matrix(.42654 0 0 .73266 214.77 -51.668)">
<path d="m395.49-193.27-21.477 2.4085v-4.817z"/>
<path d="m353.91-193.27 20.094 2.4085v-4.817z"/>
</g>
<g transform="matrix(0 .42654 -.42654 0 291.87 -352.8)">
<path d="m389.15-193.27-15.139 2.4085v-4.817z"/>
<path d="m358.87-193.27 15.139 2.4085v-4.817z"/>
</g>
<g transform="matrix(0 .42654 -.73266 0 232.7 -352.8)">
<path d="m432.02-193.27-58.008 2.4085v-4.817z"/>
<path d="m345.5-193.27 28.507 2.4085v-4.817z"/>
</g>
</g>
<g transform="matrix(.73592 0 0 .73592 -320.68 -80.125)">
<g transform="matrix(.30161 -.30161 .30161 .30161 319.79 -22.173)">
<path d="m389.15-193.27-15.139 2.4085v-4.817z"/>
<path d="m358.87-193.27 15.139 2.4085v-4.817z"/>
</g>
<g transform="matrix(.30161 .30161 -.30161 .30161 203.21 -247.78)">
<path d="m389.15-193.27-15.139 2.4085v-4.817z"/>
<path d="m358.87-193.27 15.139 2.4085v-4.817z"/>
<path d="m389.15-193.27-15.139 2.4085v-4.817z"/>
<path d="m358.87-193.27 15.139 2.4085v-4.817z"/>
</g>
<g transform="matrix(.42654 0 0 .73266 214.77 -51.668)">
<path d="m395.49-193.27-21.477 2.4085v-4.817z"/>
<path d="m353.91-193.27 20.094 2.4085v-4.817z"/>
</g>
<g transform="matrix(0 .42654 -.42654 0 291.87 -352.8)">
<path d="m389.15-193.27-15.139 2.4085v-4.817z"/>
<path d="m358.87-193.27 15.139 2.4085v-4.817z"/>
</g>
<g transform="matrix(0 .42654 -.73266 0 232.7 -352.8)">
<path d="m432.02-193.27-58.008 2.4085v-4.817z"/>
<path d="m345.5-193.27 28.507 2.4085v-4.817z"/>
</g>
</g>
<g transform="matrix(1.0825 0 0 1.0825 -459.69 11.932)">
<g transform="matrix(.30161 -.30161 .30161 .30161 319.79 -22.173)">
<path d="m389.15-193.27-15.139 2.4085v-4.817z"/>
<path d="m358.87-193.27 15.139 2.4085v-4.817z"/>
</g>
<g transform="matrix(.30161 .30161 -.30161 .30161 203.21 -247.78)">
<path d="m389.15-193.27-15.139 2.4085v-4.817z"/>
<path d="m358.87-193.27 15.139 2.4085v-4.817z"/>
<path d="m389.15-193.27-15.139 2.4085v-4.817z"/>
<path d="m358.87-193.27 15.139 2.4085v-4.817z"/>
</g>
<g transform="matrix(.42654 0 0 .73266 214.77 -51.668)">
<path d="m395.49-193.27-21.477 2.4085v-4.817z"/>
<path d="m353.91-193.27 20.094 2.4085v-4.817z"/>
</g>
<g transform="matrix(0 .42654 -.42654 0 291.87 -352.8)">
<path d="m389.15-193.27-15.139 2.4085v-4.817z"/>
<path d="m358.87-193.27 15.139 2.4085v-4.817z"/>
</g>
<g transform="matrix(0 .42654 -.73266 0 232.7 -352.8)">
<path d="m432.02-193.27-58.008 2.4085v-4.817z"/>
<path d="m345.5-193.27 28.507 2.4085v-4.817z"/>
</g>
</g>
<g transform="matrix(.70619 0 0 .70619 -332.48 -38.277)">
<g transform="matrix(.30161 -.30161 .30161 .30161 319.79 -22.173)">
<path d="m389.15-193.27-15.139 2.4085v-4.817z"/>
<path d="m358.87-193.27 15.139 2.4085v-4.817z"/>
</g>
<g transform="matrix(.30161 .30161 -.30161 .30161 203.21 -247.78)">
<path d="m389.15-193.27-15.139 2.4085v-4.817z"/>
<path d="m358.87-193.27 15.139 2.4085v-4.817z"/>
<path d="m389.15-193.27-15.139 2.4085v-4.817z"/>
<path d="m358.87-193.27 15.139 2.4085v-4.817z"/>
</g>
<g transform="matrix(.42654 0 0 .73266 214.77 -51.668)">
<path d="m395.49-193.27-21.477 2.4085v-4.817z"/>
<path d="m353.91-193.27 20.094 2.4085v-4.817z"/>
</g>
<g transform="matrix(0 .42654 -.42654 0 291.87 -352.8)">
<path d="m389.15-193.27-15.139 2.4085v-4.817z"/>
<path d="m358.87-193.27 15.139 2.4085v-4.817z"/>
</g>
<g transform="matrix(0 .42654 -.73266 0 232.7 -352.8)">
<path d="m432.02-193.27-58.008 2.4085v-4.817z"/>
<path d="m345.5-193.27 28.507 2.4085v-4.817z"/>
</g>
</g>
<g transform="matrix(.70619 0 0 .70619 -317.18 -14.225)">
<g transform="matrix(.30161 -.30161 .30161 .30161 319.79 -22.173)">
<path d="m389.15-193.27-15.139 2.4085v-4.817z"/>
<path d="m358.87-193.27 15.139 2.4085v-4.817z"/>
</g>
<g transform="matrix(.30161 .30161 -.30161 .30161 203.21 -247.78)">
<path d="m389.15-193.27-15.139 2.4085v-4.817z"/>
<path d="m358.87-193.27 15.139 2.4085v-4.817z"/>
<path d="m389.15-193.27-15.139 2.4085v-4.817z"/>
<path d="m358.87-193.27 15.139 2.4085v-4.817z"/>
</g>
<g transform="matrix(.42654 0 0 .73266 214.77 -51.668)">
<path d="m395.49-193.27-21.477 2.4085v-4.817z"/>
<path d="m353.91-193.27 20.094 2.4085v-4.817z"/>
</g>
<g transform="matrix(0 .42654 -.42654 0 291.87 -352.8)">
<path d="m389.15-193.27-15.139 2.4085v-4.817z"/>
<path d="m358.87-193.27 15.139 2.4085v-4.817z"/>
</g>
<g transform="matrix(0 .42654 -.73266 0 232.7 -352.8)">
<path d="m432.02-193.27-58.008 2.4085v-4.817z"/>
<path d="m345.5-193.27 28.507 2.4085v-4.817z"/>
</g>
</g>
</g>
<path d="m414.07-82.964c-3.8624-4.1263-9.6664-8.8685-14.75-9.7425-2.0118-0.34589-10.685-1.6672-11.844 5.2664-0.21298 1.2731 0.68515 5.442 6.525 5.3128 0.48043-0.0106 4.847-0.11873 4.849-2.6072 2e-3 -2.8492-2.2286-2.9193-5.9157-3.7347 3.4521-1.0134 10.326-2.3878 10.814 6.5865 3.0439 0.54166 7.6078-1.6189 8.5527 2.6543-12.803-1.9943-11.009 6.9164-26.15-1.5729 1.6917 2.4885 3.0066 5.2855 7.4713 5.5052-1.8185 1.3932-3.5218 3.1321-6.095 2.2611 0.35878 1.7846-1.4193 3.8528-3.8899 5.1119-2.4705-1.2592-4.2486-3.3274-3.8899-5.1119-2.5732 0.871-4.2765-0.86786-6.095-2.2611 4.4648-0.21971 5.7796-3.0166 7.4713-5.5052-15.14 8.4893-13.347-0.42143-26.15 1.5729 0.94489-4.2732 5.5088-2.1126 8.5527-2.6543 0.48821-8.9744 7.3616-7.5999 10.814-6.5865-3.6871 0.81541-5.9177 0.88553-5.9157 3.7347 2e-3 2.4884 4.3686 2.5966 4.849 2.6072 5.8398 0.12915 6.738-4.0397 6.525-5.3128-1.1599-6.9337-9.8327-5.6123-11.844-5.2664-5.0833 0.87401-10.101 4.928-13.963 9.0544l0.0983-25.663c3.8624 4.1263 8.7817 8.1804 13.865 9.0544 2.0118 0.34589 10.685 1.6672 11.844-5.2664 0.21299-1.2731-0.68515-5.442-6.525-5.3128-0.48042 0.0106-4.847 0.11873-4.849 2.6072-2e-3 2.8492 2.2286 2.9193 5.9157 3.7347-3.4521 1.0134-10.326 2.3878-10.814-6.5865-3.0439-0.54166-7.6078 1.6189-8.5527-2.6543 12.803 1.9943 11.009-6.9164 26.15 1.5729-1.6917-2.4885-3.0066-5.2855-7.4713-5.5052 1.8185-1.3932 3.5218-3.1321 6.095-2.2611-0.35877-1.7846 1.4194-3.8528 3.8899-5.1119 2.4705 1.2592 4.2487 3.3274 3.8899 5.1119 2.5732-0.871 4.2765 0.86786 6.095 2.2611-4.4648 0.21971-5.7796 3.0166-7.4713 5.5052 15.14-8.4893 13.347 0.42143 26.15-1.5729-0.94489 4.2732-5.5088 2.1126-8.5527 2.6543-0.4882 8.9744-7.3616 7.5999-10.814 6.5865 3.6871-0.81541 5.9177-0.88553 5.9157-3.7347-2e-3 -2.4884-4.3686-2.5966-4.849-2.6072-5.8398-0.12915-6.7379 4.0397-6.525 5.3128 1.16 6.9337 9.8327 5.6123 11.844 5.2664 5.0833-0.87401 10.642-5.4196 14.504-9.5459 0.86543 8.7908 0.67913 17.792 0.24578 26.842z" fill="#fad239" stroke="#000" stroke-width=".48"/>
<path d="m-34.844-83.357c-3.8624-4.1263-9.0766-8.4753-14.16-9.3493-2.0118-0.34589-10.685-1.6672-11.844 5.2664-0.21298 1.2731 0.68515 5.442 6.525 5.3128 0.48043-0.0106 4.847-0.11873 4.849-2.6072 2e-3 -2.8492-2.2286-2.9193-5.9157-3.7347 3.4521-1.0134 10.326-2.3878 10.814 6.5865 3.0439 0.54166 7.6078-1.6189 8.5527 2.6543-12.803-1.9943-11.009 6.9164-26.15-1.5729 1.6917 2.4885 3.0066 5.2855 7.4713 5.5052-1.8185 1.3932-3.5218 3.1321-6.095 2.2611 0.35878 1.7846-1.4193 3.8528-3.8899 5.1119-2.4705-1.2592-4.2486-3.3274-3.8899-5.1119-2.5732 0.871-4.2765-0.86786-6.095-2.2611 4.4648-0.21971 5.7796-3.0166 7.4713-5.5052-15.14 8.4893-13.347-0.42143-26.15 1.5729 0.94489-4.2732 5.5088-2.1126 8.5527-2.6543 0.48821-8.9744 7.3616-7.5999 10.814-6.5865-3.6871 0.81541-5.9177 0.88553-5.9157 3.7347 2e-3 2.4884 4.3686 2.5966 4.849 2.6072 5.8398 0.12915 6.738-4.0397 6.525-5.3128-1.1599-6.9337-9.8327-5.6123-11.844-5.2664-5.0833 0.87401-10.347 5.4687-14.209 9.595-0.56237-8.8655-0.74307-17.731-6e-6 -26.597 3.8624 4.1263 9.1258 8.5736 14.209 9.4476 2.0118 0.34589 10.685 1.6672 11.844-5.2664 0.21299-1.2731-0.68515-5.442-6.525-5.3128-0.48042 0.0106-4.847 0.11873-4.849 2.6072-2e-3 2.8492 2.2286 2.9193 5.9157 3.7347-3.4521 1.0134-10.326 2.3878-10.814-6.5865-3.0439-0.54166-7.6078 1.6189-8.5527-2.6543 12.803 1.9943 11.009-6.9164 26.15 1.5729-1.6917-2.4885-3.0066-5.2855-7.4713-5.5052 1.8185-1.3932 3.5218-3.1321 6.095-2.2611-0.35877-1.7846 1.4194-3.8528 3.8899-5.1119 2.4705 1.2592 4.2487 3.3274 3.8899 5.1119 2.5732-0.871 4.2765 0.86786 6.095 2.2611-4.4648 0.21971-5.7796 3.0166-7.4713 5.5052 15.14-8.4893 13.347 0.42143 26.15-1.5729-0.94489 4.2732-5.5088 2.1126-8.5527 2.6543-0.4882 8.9744-7.3616 7.5999-10.814 6.5865 3.6871-0.81541 5.9177-0.88553 5.9157-3.7347-2e-3 -2.4884-4.3686-2.5966-4.849-2.6072-5.8398-0.12915-6.7379 4.0397-6.525 5.3128 1.16 6.9337 9.8327 5.6123 11.844 5.2664 5.0833-0.87401 10.298-5.0263 14.16-9.1527z" fill="#fad239" stroke="#000" stroke-width=".56"/>
<path transform="matrix(2.6809 0 0 2.6809 3476.3 -1156)" d="m-1165.7 395.18c0 39.439-31.972 71.411-71.411 71.411s-71.411-31.972-71.411-71.411 31.972-71.411 71.411-71.411 71.411 31.972 71.411 71.411z" fill="none" stroke="#fff" stroke-linecap="square" stroke-linejoin="round" stroke-width="3.8793"/>
<path transform="matrix(3.6428 0 0 3.6428 4666.3 -1536.1)" d="m-1165.7 395.18c0 39.439-31.972 71.411-71.411 71.411s-71.411-31.972-71.411-71.411 31.972-71.411 71.411-71.411 71.411 31.972 71.411 71.411z" fill="none" stroke="#fff" stroke-linecap="square" stroke-linejoin="round" stroke-width="3.2976"/>
<path transform="matrix(3.7283 0 0 3.7283 4772.1 -1569.9)" d="m-1165.7 395.18c0 39.439-31.972 71.411-71.411 71.411s-71.411-31.972-71.411-71.411 31.972-71.411 71.411-71.411 71.411 31.972 71.411 71.411z" fill="none" stroke="#000" stroke-linecap="square" stroke-linejoin="round" stroke-width=".42915"/>
<g transform="translate(640 1.2728)" fill="#fff">
<path d="m-276.38-48.156-1.4375 4.7188 11.969 3.625a1.0106 1.0106 0 0 1 0.6875 1.25l-3.9375 13a1.0106 1.0106 0 0 1-1.25 0.6875l-12-3.6562-1.4375 4.75 30.969 9.4062 1.4375-4.75-13.406-4.0625a1.0106 1.0106 0 0 1-0.6875-1.25l3.9375-13a1.0106 1.0106 0 0 1 1.25-0.6875l13.438 4.0938 1.4375-4.7188-30.969-9.4062zm-403.47 5.2812-30.375 11.156 13.438 36.625 30.375-11.219-1.6875-4.5938-25.906 9.5a1.0106 1.0106 0 0 1-1.2812-0.59375l-3.5312-9.625a1.0106 1.0106 0 0 1 0.59375-1.2812l25.906-9.5312-1.6875-4.5938-25.906 9.5a1.0106 1.0106 0 0 1-1.2812-0.59375l-3.4375-9.3125a1.0106 1.0106 0 0 1 0.59375-1.2812l25.906-9.5312-1.7188-4.625zm387.28 38.438-2.7188 5.3438 23.062 25.906 2.375-4.5938-5.2188-5.5625a1.0106 1.0106 0 0 1-0.15625-1.1562l6.25-12.25a1.0106 1.0106 0 0 1 1-0.53125l7.625 0.8125 2.4375-4.7812-34.656-3.1875zm4.625 4.9375a1.0106 1.0106 0 0 1 0.34375 0l13.5 1.5938a1.0106 1.0106 0 0 1 0.78125 1.4688l-4.25 8.3438a1.0106 1.0106 0 0 1-1.6562 0.21875l-9.25-9.9375a1.0106 1.0106 0 0 1 0.53125-1.6875zm-374 1.9062-26.969 17.812 8.375 12.688c1.5523 2.3495 2.9289 3.9679 4.0312 4.7812 1.0837 0.79956 2.5426 1.2905 4.4688 1.375 1.8437 0.08088 3.6383-0.46761 5.4375-1.6562 1.7005-1.1235 2.8562-2.5142 3.5625-4.25 0.7174-1.7633 0.86705-3.4098 0.5-5.0312-0.37909-1.6744-1.2031-3.4744-2.5-5.4375l-5.0938-7.75a1.0106 1.0106 0 0 1 0.28125-1.4062l10.594-7-2.6875-4.125zm-12.344 14.156a1.0106 1.0106 0 0 1 1.0312 0.4375l3.875 5.875c1.6088 2.4352 2.4902 4.3824 2.4375 6.125-0.0497 1.6413-0.93029 3.0874-2.4062 4.0625-1.0715 0.70789-2.3275 1.0189-3.5625 0.84375-1.1507-0.16318-2.1856-0.59391-3-1.3438-0.7938-0.73086-1.7-1.9555-2.9062-3.7812l-3.7188-5.6562a1.0106 1.0106 0 0 1 0.28125-1.4062l7.5938-5a1.0106 1.0106 0 0 1 0.375-0.15625zm369.88 0.53125-15.062 20.312 3.0625 2.25 5.4688-7.375a1.0106 1.0106 0 0 1 1.4062-0.21875l22.125 16.406 2.9375-3.9688-22.125-16.375a1.0106 1.0106 0 0 1-0.21875-1.4062l5.4688-7.375-3.0625-2.25zm-339.53 12.594-26.969 17.812 2.6875 4.0938 27-17.812-2.7188-4.0938zm10.531 12.312-10 9.75a1.0106 1.0106 0 0 1-1.4375-0.03125l-2-2.0625-1.7188 1.625 2.0312 2.0938a1.0106 1.0106 0 0 1 0 1.4062l-10.031 9.7812 3.4375 3.5 10-9.75a1.0106 1.0106 0 0 1 1.4375 0.03125l4.0938 4.2188 1.6875-1.6562-4.0938-4.1875a1.0106 1.0106 0 0 1 0-1.4375l6.625-6.4375a1.0106 1.0106 0 0 1 1.4375 0l10.688 11 2.6875-2.5938-14.844-15.25zm308.34 5.8438c-3.3436 0.03249-6.4003 1.3762-9.2812 4.1562-3.3023 3.1867-4.8176 6.6926-4.75 10.75 0.0671 4.0242 1.9306 8.0097 5.7812 12 3.6291 3.7607 7.3905 5.6544 11.375 5.8438 4.0191 0.19097 7.4771-1.1487 10.594-4.1562 2.5343-2.4456 3.9518-5.0239 4.375-7.75 0.38009-2.4487-0.2373-5.1519-1.6562-8.0625l-4.4688 2.2188c1.0154 1.9539 1.6095 3.8434 1.4688 5.5938-0.16002 1.9901-1.0116 3.7825-2.5 5.2188-1.9818 1.9125-4.4307 2.7677-7.0938 2.5-2.7888-0.28034-5.6486-2.1298-8.75-5.3438-2.9338-3.0402-4.6018-5.8947-4.75-8.6875-0.14249-2.6858 0.86867-5.1263 2.875-7.0625 1.4694-1.418 3.1954-2.2324 5.0625-2.4062 1.5386-0.14324 3.0347 0.2707 4.4688 1l2.6875-4.25c-1.9637-0.99747-3.8016-1.5839-5.4375-1.5625zm-288.12 14.75-18.562 26.469 12.469 8.75c2.2994 1.6145 4.1662 2.5814 5.5 2.9375 1.2943 0.34551 2.8271 0.22217 4.6562-0.40625 1.7498-0.60122 3.2299-1.7356 4.4688-3.5 1.1733-1.6711 1.7282-3.3452 1.75-5.2188 0.0221-1.9048-0.44383-3.5376-1.375-4.9062-0.96468-1.4178-2.4173-2.8036-4.3438-4.1562l-7.5938-5.3438a1.0106 1.0106 0 0 1-0.21875-1.4062l7.3125-10.375-4.0625-2.8438zm262.38 4.8438c-2.7574 1.8892-4.275 3.6521-4.7188 5.0312-0.3912 1.2148-0.31612 3.6603 0.5 7.125a1.0106 1.0106 0 0 1 0.0312 0c0.31541 1.3627 0.52453 2.423 0.6875 3.2188s0.25617 1.2509 0.28125 1.625a1.0106 1.0106 0 0 1 0 0.03125c0.0281 1.8042-0.80635 3.4828-2.3125 4.75a1.0106 1.0106 0 0 1-1.5-0.21875l-7.6562-11.219-4.0625 2.75 18.25 26.688 4.0625-2.75-7.9375-11.625a1.0106 1.0106 0 0 1 0.28125-1.4062c1.2417-0.82939 2.5282-1.2353 3.7812-1.0312a1.0106 1.0106 0 0 1 0.0312 0c0.84307 0.15756 1.8381 0.61999 3.3438 1.4062 0.88837 0.46891 1.464 0.78234 1.5938 0.84375 0.37005 0.18137 0.62741 0.30359 0.8125 0.40625a1.0106 1.0106 0 0 1 0.0312 0l7.8438 4.6875 1.3125-0.90625a1.0106 1.0106 0 0 1 1.4375 0.25l3.6562 5.3438 3.0938-2.0938-6.3438-9.2812-1.5312 1.0312a1.0106 1.0106 0 0 1-1.0625 0.03125l-3.5-2.0312c-2.1277-1.2352-4.0418-2.1288-5.7188-2.6875-1.3834-0.46572-2.6873-0.45682-4.0312 0a1.0106 1.0106 0 0 1-1.2186-1.4062c0.5286-1.0712 0.77724-2.019 0.78125-2.8125a1.0106 1.0106 0 0 1 0-0.03125c0.0152-0.57112-0.15901-1.6266-0.53125-3.0312-0.61187-2.3179-0.94702-3.8692-1.0312-4.8438-0.19084-2.0733 0.96131-3.9403 3.0625-5.3125l-1.7188-2.5312zm-268.28 12.688a1.0106 1.0106 0 0 1 0.75 0.1875l5.7812 4.0625c2.3877 1.6765 3.9098 3.1366 4.5 4.7812 0.55712 1.5526 0.23309 3.2428-0.78125 4.6875-0.74647 1.0631-1.804 1.7462-3 2.0312-1.1359 0.27067-2.2588 0.23954-3.2812-0.15625-0.98945-0.38302-2.2976-1.1763-4.0938-2.4375l-5.5312-3.9062a1.0106 1.0106 0 0 1-0.21875-1.4062l5.2188-7.4375a1.0106 1.0106 0 0 1 0.65625-0.40625zm32.656 1.25-18.562 26.438 4.0312 2.8438 18.594-26.438-4.0625-2.8438zm197.69 9.3438-5.4062 2.5 2.1562 34.656 4.7188-2.1875-0.65625-7.5625a1.0106 1.0106 0 0 1 0.5625-1l12.469-5.75a1.0106 1.0106 0 0 1 1.125 0.1875l5.5 5.3438 4.875-2.25-25.344-23.938zm-177.31 1.6562c-1.9496-0.04608-3.8279 0.34951-5.6875 1.1562-3.6932 1.6023-6.6308 4.8223-8.8438 9.9062-2.0842 4.7884-2.4128 8.9948-1.0625 12.75 1.3611 3.7851 3.9311 6.426 7.9062 8.1562 3.2306 1.4062 6.1331 1.7769 8.8125 1.125 2.4143-0.58744 4.6938-2.1955 6.8438-4.625l-3.75-3.2812c-1.4246 1.7009-2.9447 2.9885-4.625 3.5312-1.904 0.61503-3.8928 0.50949-5.7812-0.3125-2.5217-1.0976-4.259-3.0602-5.0312-5.625-0.80839-2.6846-0.2214-6.0579 1.5625-10.156 1.6875-3.877 3.7337-6.4853 6.25-7.6875 2.4277-1.1598 5.0698-1.1747 7.625-0.0625 1.8599 0.8096 3.307 2.0813 4.1875 3.75 0.72362 1.3715 0.88045 2.909 0.75 4.5l4.9688 0.875c0.15749-2.1833-0.0417-4.0906-0.6875-5.5938-1.3118-3.0821-3.6735-5.3712-7.3438-6.9688-2.0997-0.91393-4.1389-1.3913-6.0938-1.4375zm177.34 5a1.0106 1.0106 0 0 1 0.875 0.28125l9.6562 9.5625a1.0106 1.0106 0 0 1-0.28125 1.625l-8.5 3.9375a1.0106 1.0106 0 0 1-1.4375-0.8125l-1.1562-13.5a1.0106 1.0106 0 0 1 0.84375-1.0938zm-31.25 5.3438c-1.4542-0.0246-3.087 0.23606-4.9688 0.75-3.1533 0.86129-5.4182 2.1814-6.875 3.875-1.2494 1.4525-1.846 3.2972-2 5.4688l4.9062-0.1875c0.14157-1.2344 0.4496-2.3783 1.125-3.2812 0.85416-1.1419 2.1248-1.9169 3.6875-2.3438 1.7988-0.49126 3.4815-0.48955 4.875 0.25 1.3227 0.70205 2.2619 1.8687 2.6562 3.3125 0.4793 1.7549 0.24281 3.5216-0.75 4.9688-0.98251 1.4322-2.611 2.3963-4.7188 3l0.84375 3.0625 0.5625-0.15625c2.3241-0.63478 4.2938-0.71092 5.9062-0.0625 1.5662 0.62988 2.7113 1.8709 3.1562 3.5 0.39317 1.4396 0.13683 2.9585-0.6875 4.3125-0.90555 1.4874-2.5858 2.477-4.8438 3.0938-1.6707 0.45632-3.2533 0.50663-4.6562 0.15625-1.3206-0.3298-2.434-1.3672-3.5-2.7812l-3.9062 2.5312c1.6029 2.1743 3.298 3.6019 5.0625 4.0625 2.0808 0.54319 4.7673 0.4171 8.125-0.5 4.1126-1.1233 6.8263-2.8018 8.2812-4.9062 1.4901-2.1552 1.8851-4.4252 1.1562-7.0938-0.5038-1.8444-1.3701-3.1544-2.6562-4.0938-1.2803-0.93495-3.0419-1.5123-5.3125-1.6562a1.0106 1.0106 0 0 1-0.625-1.75c1.4624-1.3805 2.4181-2.7287 2.9062-4.0625 0.48868-1.3354 0.53765-2.6348 0.15625-4.0312-0.55329-2.0256-1.8476-3.5213-4.0938-4.5938-1.0844-0.51773-2.3564-0.81911-3.8125-0.84375zm-35.375 7.125-5.9375 0.59375-9.2812 33.438 5.1562-0.5 1.875-7.375a1.0106 1.0106 0 0 1 0.875-0.75l13.656-1.375a1.0106 1.0106 0 0 1 1 0.53125l3.4375 6.875 5.3438-0.53125-16.125-30.906zm-47.094 0.1875-2.1562 32.281 4.9062 0.3125 0.96875-14a1.0106 1.0106 0 0 1 1.0938-0.9375c1.4942 0.1176 2.7426 0.60264 3.5938 1.5312a1.0106 1.0106 0 0 1 0 0.0312c0.55385 0.63328 1.0526 1.6034 1.75 3.1562a1.0106 1.0106 0 0 1 0.0312 0c0.41057 0.92511 0.67128 1.5607 0.71875 1.6562 0.18408 0.38338 0.30941 0.65596 0.375 0.8125l3.2812 8.5312 1.6562 0.125a1.0106 1.0106 0 0 1 0.9375 1.0625l-0.4375 6.5 3.75 0.25 0.75-11.25-1.8438-0.125a1.0106 1.0106 0 0 1-0.875-0.625l-1.5-3.75c-0.90773-2.29-1.8435-4.1828-2.8125-5.6562-0.79554-1.2179-1.8541-2.0599-3.1875-2.5312a1.0106 1.0106 0 0 1-0.0937-1.8438c1.0869-0.51828 1.8904-1.11 2.375-1.7188a1.0106 1.0106 0 0 1 0-0.0312c0.37692-0.45293 0.89524-1.3621 1.4688-2.6875 0.95129-2.1927 1.6392-3.634 2.1875-4.4688 1.1364-1.751 3.2277-2.4674 5.7188-2.25l0.21875-3.0625c-3.3368-0.2231-5.6439 0.22434-6.8438 1.0312-1.0528 0.70767-2.4956 2.7092-4 5.9375-0.59572 1.2654-1.0768 2.2506-1.4375 2.9688s-0.54044 1.1002-0.75 1.4062a1.0106 1.0106 0 0 1-0.0312 0.0625c-1.0914 1.43-2.7822 2.187-4.75 2.25a1.0106 1.0106 0 0 1-1.0312-1.0625l0.90625-13.594-4.9375-0.3125zm44.531 6.0938a1.0106 1.0106 0 0 1 1.125 0.5625l5.9688 12.219a1.0106 1.0106 0 0 1-0.8125 1.4375l-9.3125 0.9375a1.0106 1.0106 0 0 1-1.0625-1.25l3.3438-13.156a1.0106 1.0106 0 0 1 0.75-0.75z" fill="#fff"/>
</g>
</g>
<text x="-341.36548" y="1042.5576" fill="#000000" font-family="DejaVu Sans" font-size="12.8px" letter-spacing="0px" word-spacing="0px" style="line-height:125%" xml:space="preserve"><tspan x="-341.36548" y="1042.5576"/></text>
<text x="-402.16547" y="589.75763" fill="#000000" font-family="DejaVu Sans" font-size="12.8px" letter-spacing="0px" word-spacing="0px" style="line-height:125%" xml:space="preserve"><tspan x="-402.16547" y="589.75763"/></text>
<flowRoot transform="matrix(.8 0 0 .8 107.43 897.68)" fill="#000000" font-family="DejaVu Sans" font-size="16px" letter-spacing="0px" word-spacing="0px" style="line-height:125%" xml:space="preserve"><flowRegion><rect x="-874" y="-59.906" width="102" height="47"/></flowRegion><flowPara/></flowRoot>
</svg>
