<?xml version="1.0" encoding="UTF-8"?>
<svg version="1.1" viewBox="0 0 5000 3000" xmlns="http://www.w3.org/2000/svg" xmlns:cc="http://creativecommons.org/ns#" xmlns:dc="http://purl.org/dc/elements/1.1/" xmlns:rdf="http://www.w3.org/1999/02/22-rdf-syntax-ns#">
<metadata>
<rdf:RDF>
<cc:Work rdf:about="">
<dc:format>image/svg+xml</dc:format>
<dc:type rdf:resource="http://purl.org/dc/dcmitype/StillImage"/>
<dc:title/>
</cc:Work>
</rdf:RDF>
</metadata>
<rect width="5e3" height="3e3" fill="#f9d616" stroke="#000"/>
<path transform="matrix(.99549 0 0 .99266 90.26 -123.64)" d="m3425.4 2450a1005.4 493.82 0 1 1-2010.8 0 1005.4 493.82 0 1 1 2010.8 0z" fill="#ce1126" stroke="#000"/>
<path transform="matrix(.26173 -.79153 .80979 .25398 -116.66 3598.2)" d="m2929.3 2450a509.26 207.22 0 1 1-1018.5 0 509.26 207.22 0 1 1 1018.5 0z" fill="none" stroke="#f9d616" stroke-width="23.778"/>
<path transform="matrix(.17536 -.53032 .54256 .17016 191.01 3171.1)" d="m2929.3 2450a509.26 207.22 0 1 1-1018.5 0 509.26 207.22 0 1 1 1018.5 0z" fill="none" stroke="#f9d616" stroke-width="35.49"/>
<path transform="matrix(.17536 -.53032 .54256 .17016 1300.4 3171.1)" d="m2929.3 2450a509.26 207.22 0 1 1-1018.5 0 509.26 207.22 0 1 1 1018.5 0z" fill="none" stroke="#f9d616" stroke-width="35.49"/>
<path d="m2500 0h2500v3e3l-2500-2e3z" fill="#ce1126" stroke="#000"/>
<path d="m2497.9 2.8214h-2500v3e3l2502.1-2002.8z" fill="#0038a8" stroke="#000"/>
<path d="m3586 6422.9c6.6891-16.653 21.42-22.367 37.233-27.604" fill="none" stroke="#000" stroke-linecap="round" stroke-width="10"/>
<g transform="translate(0 10.894)" stroke="#000">
<g transform="translate(2798.4 -811.43)">
<g transform="translate(-2793.8 -2280.2)" fill="#f9d616">
<path d="m2923.9 4180.4c-7.4791-32.67 51.723-56.486 79.423-46.72 8.5664 4.9278 20.427 18.716 21.775 21.827 1.2585 2.8518-43.024 29.56-45.266 28.259-8.0946-4.6995-25.273-17.012-55.932-3.3659z" stroke-width="10"/>
<path d="m2947.9 4270.7c-0.7539-38.514 26.075-61.348 45.824-66.905 60.54-3.4199 116.09 48.185 38.475 64.364-7.914 1.6496-56.176-18.864-84.299 2.5417z" stroke-width="10"/>
<path d="m2973.2 4113.4c15.531-21.991 69.636-23.013 84.383 3.5861 2.2828 5.9632 2.6239 13.242-3.436 21.134-16.509 7.871-51.279-18.967-80.947-24.721z" stroke-width="10.608"/>
<path d="m3156.9 4384.3c44.065 3.6588 61.081-22.354 62.297-44.988 0.7736-14.404-24.64-28.988-24.64-28.988s-30.739 21.455-30.308 24.011c1.345 7.9713 21.664 25.6-7.3495 49.965z" stroke-width="10"/>
</g>
<path d="m791.34 1302.1c9.9006 34.322-17.704 67.062-17.704 67.062 22.369 49.457-14.864 67.432-14.864 67.432 16.592 45.976-19.358 77.432-19.358 77.432 18.628 48.109-12.681 69.432-18.34 73.476 11.663 44.651-12.333 67.519-23.268 73.41 17.975 33.382 2.5678 57.134 2.5678 57.134 0.642 8.9874 0 25.036 0 25.036" fill="none" stroke-width="8"/>
<path d="m775.48 1975.4c39.159-3.2098 48.789 18.617 48.789 18.617 41.07-10.062 53.326 9.9981 53.282 14.765 39.801-19.901 63.554 5.1356 63.554 5.1356 38.517-3.2098 55.208 16.049 55.208 16.049 7.7036-5.1356 13.481 1.9259 13.481 1.9259 19.259-34.666 49.431 3.8518 49.431 3.8518 36.592-29.53 83.454-0.642 83.454-0.642 48.147-25.678 95.01 10.271 95.01 10.271 59.06-14.765 85.38 15.407 85.38 15.407 57.134-14.765 79.603 23.11 79.603 23.11 49.431-16.691 80.244 29.53 80.244 29.53 46.863-18.617 72.541 37.234 72.541 37.234 60.344 5.7776 62.912 64.838 62.912 64.838 63.223 21.01 45.689 85.004 45.689 85.004 36.903 19.414 9.6294 82.592 9.6294 82.592" fill="none" stroke-linecap="round" stroke-width="10"/>
<path d="m1904.8 1999.9c56.825-105.92 82.836-200.29 89.589-339.59-29.794 141.12-206.27 196.7-206.27 196.7 57.383 3.7838 49.58 6.8094 66.545 14.78-71.158 55.972-155.15 62.056-222.19 104.9 20.341 31.439 36.49 48.474 59.092 77.601 96.508-46.159 151.47-90.206 201.04-133.18 0 0 1.0335 14.456 12.199 78.786z" fill="#ffdf1b" stroke-linecap="round" stroke-width="10"/>
<g transform="translate(-2793.8 -2280.2)" fill="#f9d616" stroke-width="10">
<path d="m2963.4 3691.1c4.5824 32.769 12.352 40.765 46.28 51.498 9.8148-1.1559 14.35-2.9673 33.505-9.1477 26.444-12.643 15.368-55.604 6.0713-56.06-9.7334-0.4778-57.986 39.562-85.856 13.71z"/>
<path d="m2920.2 3633c-13.989-23.002-11.915-62.331 21.275-82.469 9.0719-3.9202 25.502-6.4606 28.803-5.6814 32.568-5.7233 23.406 39.153 2.6602 45.126-7.7685 2.2368-39.337 13.699-52.738 43.024z"/>
<path d="m2918.8 3377.1c24.823-21.876 56.283-27.005 80.028-2.7748 27.574 11.81 21.954 41.896 22.307 45.269 11.828 26.819-38.975 12.746-49.958-11.122-4.0737-8.853-24.28-31.169-52.378-31.372z"/>
<path d="m2875.4 3478.2c12.869-37.068 16.075-44.799 61.9-47.174 9.6106 2.3027 29.827 4.61 32.001 7.2125 51.791 17.346 25.75 47.54-30.066 51.832-8.0603 0.6197-38.094-24.734-63.835-11.87z"/>
</g>
<path d="m613.7 1676.8c-13.868 9.9316-51.926-46.67-72.215-62.754-8.3241 24.527 5.3013 69.796 6.4966 93.974-51.912-23.483-136.31-149.05-155.93-197.64-8.4324-20.878-37.602-56.173-51.677-80.847-13.2-23.139-21.961-28.403-26.84-34.591-10.255-13.008-20.806-12.744-20.806-12.744s-7.314 57.781-25.564 67.659c-9.6181-0.016-12.094 0.7195-20.901 0.8519 0.2598-7.1208 3.5577-28.747 1.257-36.013-6.093 0-40.297 8.4139-47.596 7.2798-0.7527-6.0436 0.6746-16.174 0.6294-21.096-0.012-1.2336 38.867-27.67 46.057-44.407 4.0856-9.5114 0.9834-17.66-2.7831-26.53-4.9627-11.688-13.191-20.949-13.824-28.075-12.05 2.4527-14.699 12.554-16.401 15.092-3.1957 4.7665-6.0771 5.9445-12.679 8.0871-2.8751 0.933-18.988 9.3743-33.408 0.2951-2.5618-8.304 15.692-37.389 20.59-45.06-8.3994-1.9284-7.6717-10.067-27.725-7.9513-8.5307-0.1168-30.338 11.302-24.505-5.0531 20.554-57.626 105.03-30.128 126.99-29.498 10.121 0.29-5.5196-1.341-11.714-2.57-47.282-9.3819-64.262-0.8295-88.623 0.3711-50.255 2.4767-22.424-53.357 27.654-48.047-0.8868-6.7396-20.652-25.913-36.108-36.048-5.6588-3.7103 12.11-15.357 17.939-17.948 12.919 1.7616 33.602 2.3239 41.866 4.8524 2.1487-19.78-0.3085-31.562-8.6143-48.92 32.393-0.4375 38.457 17.286 48.042 35.448 4.0873 7.7447 21.145 45.234 23.232 53.544 7.6754 30.568 18.093 36.253 25.316 52.361 12.253 27.327 26.812 49.374 41.106 103.98 16.603 1.7687 43.149-11.47 66.316 28.603 12.868-5.6419 45.097 8.517 54.238 35.369 23.42-9.5654 51.389 11.33 56.935 37.061 0 0 36.165-12.833 58.364 26.733 39.577 2.7078 64.104 39.553 59.375 77.159 8.9492 21.842 26.522 56.7 14.957 66.612z" fill="#ffdf1b" stroke-width="10"/>
<path d="m344.69 1336.2c14.306 26.825 25.885 46.197 49.025 44.939 1.6854 25.736 27.782 43.559 51.294 43.577 3.3679 18.114 11.366 37.302 42.67 40.4 7.8308 38.072 40.914 36.023 51.748 36.314 8.9391 30.099 26.651 39.307 54.472 35.861 3.7089 20.825 16.897 29.753 32.683 39.038" fill="none" stroke-linecap="round" stroke-width="10"/>
<g transform="translate(-2793.8 -2280.2)" fill="#f9d616" stroke-width="10">
<path d="m3702.7 3469.5s54.143 21.024 65.324 77.889c-19.353-13.604-33.458-16.61-56.485-13.822z"/>
<path d="m4537.3 4373.7s19.966-31.591 58.539-23.837c-19.758-28.209-51.401-38.573-100.39-34.513z"/>
<path d="m4383.9 4207.1s15.237-30.212 54.492-27.571c-24.11-23.511-65.46-35.615-106.31-20.696z"/>
<path d="m4625.5 4537s25.292-22.478 60.816-5.5659c-10.749-38.334-39.765-61.184-89.818-63.01z"/>
<path d="m4654.8 4715.8s33.866-6.7559 59.717 19.626c3.4241-37.904-15.105-68.753-58.204-94.27z"/>
<path d="m4597.7 4888.3s31.595 8.99 42.796 43.567c16.525-29.858 13.669-59.651-15.684-105.01z"/>
<path d="m4478.9 5029.9s29.315 21.439 19.947 60.486c32.978-22.304 41.624-59.442 32.998-107.51z"/>
<path d="m4314.1 5101.3s23.075 33.388 3.3353 67.422c39.08-16.68 59.747-37.463 65.63-87.202z"/>
<path d="m4122.6 5058.8s-5.6445 35.593-42.731 48.728c34.693 19.53 68.649 13.91 105.36-20.166z"/>
<path d="m3985.1 4945.7s-15.431 27.39-54.669 30.851c32.076 23.666 54.299 35.093 107.06 19.57z"/>
<path d="m3944.5 4777.5s-30.71 22.04-65.195-6.367c-3.5379 39.655 21.205 67.149 67.36 86.599z"/>
<path d="m4022.7 4593.3s-33.145-6.8115-40.854-45.393c-24.28 31.552-23.951 68.658 4.5393 109.85z"/>
<path d="m3690.9 3805c13.501 0.7539 55.163 11.718 79.372 67.963-27.246-9.8008-62.97-5.713-62.97-5.713-6.9651-14.972-15.214-44.068-16.402-62.25z"/>
<path d="m3711.6 3625.4s57.455 66.019 51.068 99.164c-28.243-23.083-68.109-31.524-68.109-31.524z"/>
<path d="m3491.6 3480.8c-28.777-4.9715-54.752 1.4058-101.86 3.305-15.558 0.6272-26.7 0.7826-39.288 0.9046-17.79 0.1725-10.364 9.8626-36.079 7.4033-14.317-1.3693-22.71 5.2107-22.71 5.2107s-1.6396-14.089 2.1925-21.193c-24.287 13.134-32.397 8.3487-43.67 8.8415-23.606 1.0321-67.197-21.793-67.197-21.793s-1.2653 4.3807 70.607 53.532c12.632 10.885 69.265 33.498 69.265 33.498l-18.546-30.597c29.392-5.5761 38.304-8.018 77.335-6.0777 46.498 2.3115 93.596 19.723 118.95 33.441 0 0 30.201-59.704-8.9957-66.476z"/>
</g>
<path d="m1535.6 2207.8c-68.418 56.417-180.75 110.38-196.44 240.62-9.906 82.248 44.193 126.85 89.874 149.69 27.9 12.5 74.289 13.375 115.55-2.5678 45.514-17.958 94.482-55.011 118.12-101.43 16.323-32.053 20.542-72.555 11.148-108.66 0 0 23.188-133.95-241.26-234.78-132.22-50.416-333.54-27.834-480.94-60.326-147.4-32.492-240.88-120.06-248.58-122.43-7.3643-2.2689-51.953 12.135-64.131 12.947-20.542 1.3695-127.28 4.4165-142.36 3.7807-11.281-0.4758-51.054-3.6609-86.518 4.1999-8.0129 2.4256-34.513-20.565-28.52-12.265 7.6888 10.649 38.361 24.17 48.518 36.746 3.6485 4.518 21.148 10.926 16.704 25.648-11.02 36.515-25.205 10.281-25.205 10.281s-10.545-9.5386-21.161-16.742c-8.7995 4.795-38.117 34.173-43.403 18.208-2.6039-7.865-0.023-22.694-1.2872-33.979-2.0654-18.441-20.478-25.389-38.477-28.645-42.839-7.7493-92.885 46.972-113.61-4.0781 0-12.811 22.73-26.795 36.128-38.892-16.298-12.391-49.247-14.395-45.785-19.63-4.8338-6.4451-15.62-15.454-13.677-25.644 10.828-10.828 29.71-17.035 47.869-20.515-2.8901-11.56-11.651-20.168-27.354-27.354 10.258-5.3309 17.231-5.0398 21.37-3.4193 13.648 2.2097 23.765 5.7033 37.091 11.444 0 0 4.7126-14.67 0.5201-24.31 7.9426-0.724 24.432-1.3765 26.938 3.409 20.544 39.233 63.418 73.267 63.276 73.125 0 0 8.6244 4.5672 17.93 5.1527 6.7418-0.1237 12.076 7.0427 32.898-3.3988 12.185-6.1102 139.29-35.897 184.87-56.096-18.364-20.501-38.668-63.253-14.574-90.276-20.543-26.621-14.145-51.947 10.505-69.74-6.202-34.035-7.1914-46.297 19.192-69.073-4.1675-25.974-2.8025-56.499 21.91-72.224 0.4455-26.124 1.3544-58.18 33.927-72.433-5.9449-27.091 3.0829-59.489 28.754-67.035-6.4272-29.373 6.3563-53.153 28.465-70.714-12.557-21.413-4.2324-31.471-1.6033-51.373 7.7729-122.81 19.655-131.71 167.91-148.28 67.913 61.834 32.091 262.48 32.091 262.48-10.69 32.05-25.424 119.14 12.671 203.1 7.3269 16.149 81.92 15.964 121.28 8.4221 46.127-8.8393 411.85 189.83 485.42 246.62 16.364 12.632 118.41 108.72 128.46 126.12 71.32 81.007 61.757 63.57 89.827 97.554 55.414 67.088 112.88 207.9 116.41 267.03 7.0457 137.38-65.472 264.03-88.223 295.07-105.58 144.08-228.03 196.37-364.4 164.65-73.341-17.06-107-44.537-152.01-76.77-68.66-49.164-118.19-141.94-116.4-221.87 0.9091-40.673 34.855-139.41 61.076-180.77 35.347-55.752 57.807-74.874 101.96-119.03 24.616-24.616 42.555-21.646 62.912-48.789" fill="#f9d616" stroke-width="10"/>
<path d="m1641.2 2320c-30.215 5.2057-59.084-20.976-56.445-48.589-33.275 5.364-69.12-12.511-69.494-37.863-42.124 9.0598-51.534-5.5015-67.317-25.717-32.316 7.7269-50.817-10.664-66.043-28.367-34.484 9.2587-60.714 5.0811-82.183-20.486-18.058 24.286-62.666 16.159-76.26-7.6279-19.283 15.806-40.395 25.154-84.375-2.6519-15.229 27.735-52.951 25.348-80.29 4.1905-51.048 38.743-70.102 9.2126-84.277-1.4383-8.105 13.825-37.668 34.944-75.117 2.4692-33.917 27.348-55.449 11.625-88.26-12.048-25.588 15.613-57.159 6.4752-78.962-21.795-32.931 6.7395-71.754-29.829-67.732-52.204-33.028-4.7262-62.138-44.22-50.727-69.602-15.552-11.26-11.988-6.3726-20.243-13.963 2.5324-2.2114 53.854-2.4969 106.46-11.449 47.042-11.52 51.714-24.323 73.077 3.9581 39.159-3.2098 50.394 17.333 50.394 17.333 41.07-10.062 53.326 9.9981 53.282 14.765 39.801-19.901 63.554 5.1356 63.554 5.1356 38.517-3.2098 55.208 16.049 55.208 16.049 7.7036-5.1356 13.481 1.9259 13.481 1.9259 19.259-34.666 49.431 3.8518 49.431 3.8518 36.592-29.53 83.454-0.642 83.454-0.642 48.147-25.678 95.01 10.271 95.01 10.271 59.06-14.765 85.38 15.407 85.38 15.407 57.134-14.765 79.603 23.11 79.603 23.11 49.431-16.691 80.244 29.53 80.244 29.53 46.863-18.617 72.541 37.234 72.541 37.234 60.344 5.7776 62.912 64.838 62.912 64.838 63.223 21.01 45.689 85.004 45.689 85.004 36.903 19.414 10.951 86.45 10.951 86.45-17.982-12.808-39.108-45.444-32.946-67.077z" fill="#f9d616" stroke-width="10"/>
<path d="m1205.3 1743.5 339.06-384.33c-10.828-46.16 468.35-290.07 461.79-322.55-134.19 87.142-263.73 75.733-568.88 201.39-340.45 140.19-354.76 217.04-354.76 217.04-6.0799 29.616 90.908 143.27-34.511 166.52" fill="#ffdf1b" stroke-width="10.608"/>
<path d="m1889.1 1131.7c-512.82 144.69-734.19 361.28-707.77 371.15 21.662 81.599 10.444 148.36-28.919 187.05-60.938 48.857-74.617 42.257-201.4 83.664-6.0826-5.2259-58.429 29.862-47.758 39.3 90.648 87.007 88.368 250.76 88.368 250.76 93.892-99.648 199.61-95.016 276.22-7.7339 4.7912-118.35 133.03-190.53 239.59-179.57-33.523-97.788 59.253-219.32 187.79-235.55-23.158-108.08 30.911-213.71 179.11-332.57-40.841-47.725-32.455-111.49 14.782-176.51z" fill="#f9d616" stroke-width="10.608"/>
<path d="m928.16 1618.4c-31.349-2.4633-70.868-4.9266-84.059 16.214" fill="none" stroke-width="10.608"/>
<g transform="matrix(1.253 .43382 -.43382 1.253 -444.81 105.6)" fill="none" stroke-width="7.5415">
<path d="m1945.9 284.43c-195.65 98.598-420.77 341.05-420.77 341.05"/>
<path d="m1897.4 562.17c-230.22 23.999-359.09 122.88-359.09 122.88"/>
<path d="m1825.1 775.9c-90.44-49.046-293.58-40.887-293.58-40.887"/>
<path d="m1701.3 965.53c-11.971-44.816-143.06-169.16-192.77-197.89"/>
<path d="m1505.8 1040.6c15.472-109.59-32.54-241.54-32.54-241.54"/>
</g>
<path d="m879.21 1148.4c20.595-25.004 24.97-39.072 25.512-69.168 0.365-20.276-9.7714-67.788-9.7714-67.788s-15.647 33.05-48.21 51.452c-41.586 16.427-41.716 16.541-65.551 25.728-11.877-8.1191-87.446-36.286-108.42-38.874-22.592-2.7876-57.776-20.884-51.356 20.543 0.3836 2.4756 6.4195 30.814 6.4195 30.814s-11.768-6.9029-14.123-7.7035c-36.963-12.569-58.965-17.395-75.751-20.543-22.987-4.3108-88.775-8.3644-121.97 6.4195 17.975 4.4893 33.965 6.6142 37.234 7.7035 7.6388 2.5463 45.542 26.357 46.221 25.678 0.422-0.4219-5.2822-1.2839 6.4196-7.7035 0.1866 0 1.2839 21.225 1.2839 35.95 0 22.308 14.41 58.063 26.962 71.899 5.8567-23.673 6.681-47.877 19.259-43.011 36.726 29.645 93.729-4.4903 125.82 27.604 43.469 43.469 9.3361 66.649-49.431 73.183-11.566 1.2859-18.534 7.8229-25.058 4.4155-7.9357-4.1446-16.464-30.969-19.878-37.797-3.4927-6.9853-4.4938-22.468-4.4938-22.468s-6.2288 12.751-8.9873 17.333c-30.298 50.324-4.4937 115.55-4.4937 115.55s23.995-28.468 88.952-42.976c75.521-16.868 150.98-0.6302 163.34-3.2448 16.477-14.016 10.811-41.332 7.7035-53.924-5.953-24.124-23.308-55.959-31.456-68.689 18.829 2.7798 53.03-15.881 64.838-23.752 8.5876-3.8745 18.557-6.2896 18.987-6.6309 5.4897-5.4897 0.3585 0.6571 7.0811-8.8539" fill="#f9d616" stroke-linecap="round" stroke-width="10"/>
<path d="m627.83 1101.1c61.628 38.518 75.751 56.492 75.751 56.492 25.678-10.271 50.073-19.259 50.073-19.259l2.5679-28.246c-33.382 8.9873-47.505 14.123-47.505 14.123-24.394-19.259-42.369-26.962-42.369-26.962l-3.8517 25.678" fill="none" stroke-width="10"/>
<path d="m707.44 1128.1-2.5678 23.11" fill="none" stroke-linecap="round" stroke-width="18"/>
<g transform="translate(-2793.8 -2280.2)" stroke-linecap="round">
<path d="m3017.3 4128.6c42.256 1.6789 95.296 79.755 150.86 72.426" fill="none" stroke-width="7.956"/>
<path d="m3121.8 4222.4c-67.157-15.314-85.376-32.43-95.144-32.993-14.334-0.8268-24.75 4.5107-41.976 14.887" fill="none" stroke-width="9.282"/>
<path d="m3381.6 4262.6c65.266 0.2385 107.13-2.729 162.64-10.592 13.217-1.8719 54.674-6.3338 62.707-16.433-17.591-4.7101-78.984-24.027-86.247-36.315 10.894-0.2291 25.487-2.677 31.775-2.7235 15.641-0.1158 22.532-0.8163 34.499-1.8157 27.092-2.2624 61.115-22.365 90.786-67.182" fill="#ffdf1b" stroke-width="10"/>
</g>
<path d="m228.94 1303.1c18.001-21.43 40.821-7.3846 55.834-3.6315" fill="none" stroke-linecap="round" stroke-width="8"/>
<path d="m790.43 1302.2c9.9006 34.322-17.704 67.062-17.704 67.062 22.369 49.457-14.864 67.432-14.864 67.432 16.592 45.976-19.358 77.432-19.358 77.432 18.628 48.109-12.681 69.432-18.34 73.476 11.663 44.651-12.333 67.519-23.268 73.41 17.975 33.382 2.5678 57.134 2.5678 57.134 0.642 8.9874 0 25.036 0 25.036" fill="none" stroke-width="8"/>
<path d="m441.83 1921.8c11.006 6.7364 30.867 26.328 60.827-12.71 0 0 36.314 16.076 50.84-18.423 24.274 15.369 52.647 0.4217 59.653-16.452 14.526 16.039 62.001 3.4022 71.079-22.321 0 0 43.156 4.9154 45.017-31.885 0 0 40.432-0.6875 38.506-38.928 0 0 19.973 4.5393 27.236-13.618 0 0 14.526 3.6315-5.4472-50.84-5.4472-24.512 7.2629-49.025-2.7236-62.643 0 0-71.942 15.168-65.898 64.192 0 0-47.475-1.2384-43.954 57.461 0 0-29.959 0.9078-22.696 39.038 0 0-33.591-14.526-59.011 22.697 0 0-28.144-13.618-59.011 17.249 0 0-29.648-8.1708-46.833 17.626 0 0-31.931-11.115-53.032 20.505 0 0-41.762-9.9865-60.827 25.42 12.408 10.289 28.126 17.162 42.67 18.533 7.1058 0.6699 18.328-7.8108 23.604-14.902z" fill="#f9d616" stroke-width="9"/>
<path d="m770.35 1105.9c6.6891-16.653 21.42-22.367 37.233-27.604" fill="none" stroke-linecap="round" stroke-width="10"/>
<path d="m174.84 1132.7c66.714 5.3559 75.323 23.358 113.64 76.856" fill="none" stroke-linecap="round" stroke-width="7.956"/>
</g>
<g transform="matrix(-1 0 0 1 2201.6 -811.43)">
<g transform="translate(-2793.8 -2280.2)" fill="#f9d616">
<path d="m2923.9 4180.4c-7.4791-32.67 51.723-56.486 79.423-46.72 8.5664 4.9278 20.427 18.716 21.775 21.827 1.2585 2.8518-43.024 29.56-45.266 28.259-8.0946-4.6995-25.273-17.012-55.932-3.3659z" stroke-width="10"/>
<path d="m2947.9 4270.7c-0.7539-38.514 26.075-61.348 45.824-66.905 60.54-3.4199 116.09 48.185 38.475 64.364-7.914 1.6496-56.176-18.864-84.299 2.5417z" stroke-width="10"/>
<path d="m2973.2 4113.4c15.531-21.991 69.636-23.013 84.383 3.5861 2.2828 5.9632 2.6239 13.242-3.436 21.134-16.509 7.871-51.279-18.967-80.947-24.721z" stroke-width="10.608"/>
<path d="m3156.9 4384.3c44.065 3.6588 61.081-22.354 62.297-44.988 0.7736-14.404-24.64-28.988-24.64-28.988s-30.739 21.455-30.308 24.011c1.345 7.9713 21.664 25.6-7.3495 49.965z" stroke-width="10"/>
</g>
<path d="m791.34 1302.1c9.9006 34.322-17.704 67.062-17.704 67.062 22.369 49.457-14.864 67.432-14.864 67.432 16.592 45.976-19.358 77.432-19.358 77.432 18.628 48.109-12.681 69.432-18.34 73.476 11.663 44.651-12.333 67.519-23.268 73.41 17.975 33.382 2.5678 57.134 2.5678 57.134 0.642 8.9874 0 25.036 0 25.036" fill="none" stroke-width="8"/>
<path d="m775.48 1975.4c39.159-3.2098 48.789 18.617 48.789 18.617 41.07-10.062 53.326 9.9981 53.282 14.765 39.801-19.901 63.554 5.1356 63.554 5.1356 38.517-3.2098 55.208 16.049 55.208 16.049 7.7036-5.1356 13.481 1.9259 13.481 1.9259 19.259-34.666 49.431 3.8518 49.431 3.8518 36.592-29.53 83.454-0.642 83.454-0.642 48.147-25.678 95.01 10.271 95.01 10.271 59.06-14.765 85.38 15.407 85.38 15.407 57.134-14.765 79.603 23.11 79.603 23.11 49.431-16.691 80.244 29.53 80.244 29.53 46.863-18.617 72.541 37.234 72.541 37.234 60.344 5.7776 62.912 64.838 62.912 64.838 63.223 21.01 45.689 85.004 45.689 85.004 36.903 19.414 9.6294 82.592 9.6294 82.592" fill="none" stroke-linecap="round" stroke-width="10"/>
<path d="m1904.8 1999.9c56.825-105.92 82.836-200.29 89.589-339.59-29.794 141.12-206.27 196.7-206.27 196.7 57.383 3.7838 49.58 6.8094 66.545 14.78-71.158 55.972-155.15 62.056-222.19 104.9 20.341 31.439 36.49 48.474 59.092 77.601 96.508-46.159 151.47-90.206 201.04-133.18 0 0 1.0335 14.456 12.199 78.786z" fill="#ffdf1b" stroke-linecap="round" stroke-width="10"/>
<g transform="translate(-2793.8 -2280.2)" fill="#f9d616" stroke-width="10">
<path d="m2963.4 3691.1c4.5824 32.769 12.352 40.765 46.28 51.498 9.8148-1.1559 14.35-2.9673 33.505-9.1477 26.444-12.643 15.368-55.604 6.0713-56.06-9.7334-0.4778-57.986 39.562-85.856 13.71z"/>
<path d="m2920.2 3633c-13.989-23.002-11.915-62.331 21.275-82.469 9.0719-3.9202 25.502-6.4606 28.803-5.6814 32.568-5.7233 23.406 39.153 2.6602 45.126-7.7685 2.2368-39.337 13.699-52.738 43.024z"/>
<path d="m2918.8 3377.1c24.823-21.876 56.283-27.005 80.028-2.7748 27.574 11.81 21.954 41.896 22.307 45.269 11.828 26.819-38.975 12.746-49.958-11.122-4.0737-8.853-24.28-31.169-52.378-31.372z"/>
<path d="m2875.4 3478.2c12.869-37.068 16.075-44.799 61.9-47.174 9.6106 2.3027 29.827 4.61 32.001 7.2125 51.791 17.346 25.75 47.54-30.066 51.832-8.0603 0.6197-38.094-24.734-63.835-11.87z"/>
</g>
<path d="m613.7 1676.8c-13.868 9.9316-51.926-46.67-72.215-62.754-8.3241 24.527 5.3013 69.796 6.4966 93.974-51.912-23.483-136.31-149.05-155.93-197.64-8.4324-20.878-37.602-56.173-51.677-80.847-13.2-23.139-21.961-28.403-26.84-34.591-10.255-13.008-20.806-12.744-20.806-12.744s-7.314 57.781-25.564 67.659c-9.6181-0.016-12.094 0.7195-20.901 0.8519 0.2598-7.1208 3.5577-28.747 1.257-36.013-6.093 0-40.297 8.4139-47.596 7.2798-0.7527-6.0436 0.6746-16.174 0.6294-21.096-0.012-1.2336 38.867-27.67 46.057-44.407 4.0856-9.5114 0.9834-17.66-2.7831-26.53-4.9627-11.688-13.191-20.949-13.824-28.075-12.05 2.4527-14.699 12.554-16.401 15.092-3.1957 4.7665-6.0771 5.9445-12.679 8.0871-2.8751 0.933-18.988 9.3743-33.408 0.2951-2.5618-8.304 15.692-37.389 20.59-45.06-8.3994-1.9284-7.6717-10.067-27.725-7.9513-8.5307-0.1168-30.338 11.302-24.505-5.0531 20.554-57.626 105.03-30.128 126.99-29.498 10.121 0.29-5.5196-1.341-11.714-2.57-47.282-9.3819-64.262-0.8295-88.623 0.3711-50.255 2.4767-22.424-53.357 27.654-48.047-0.8868-6.7396-20.652-25.913-36.108-36.048-5.6588-3.7103 12.11-15.357 17.939-17.948 12.919 1.7616 33.602 2.3239 41.866 4.8524 2.1487-19.78-0.3085-31.562-8.6143-48.92 32.393-0.4375 38.457 17.286 48.042 35.448 4.0873 7.7447 21.145 45.234 23.232 53.544 7.6754 30.568 18.093 36.253 25.316 52.361 12.253 27.327 26.812 49.374 41.106 103.98 16.603 1.7687 43.149-11.47 66.316 28.603 12.868-5.6419 45.097 8.517 54.238 35.369 23.42-9.5654 51.389 11.33 56.935 37.061 0 0 36.165-12.833 58.364 26.733 39.577 2.7078 64.104 39.553 59.375 77.159 8.9492 21.842 26.522 56.7 14.957 66.612z" fill="#ffdf1b" stroke-width="10"/>
<path d="m344.69 1336.2c14.306 26.825 25.885 46.197 49.025 44.939 1.6854 25.736 27.782 43.559 51.294 43.577 3.3679 18.114 11.366 37.302 42.67 40.4 7.8308 38.072 40.914 36.023 51.748 36.314 8.9391 30.099 26.651 39.307 54.472 35.861 3.7089 20.825 16.897 29.753 32.683 39.038" fill="none" stroke-linecap="round" stroke-width="10"/>
<g transform="translate(-2793.8 -2280.2)" fill="#f9d616" stroke-width="10">
<path d="m3702.7 3469.5s54.143 21.024 65.324 77.889c-19.353-13.604-33.458-16.61-56.485-13.822z"/>
<path d="m4537.3 4373.7s19.966-31.591 58.539-23.837c-19.758-28.209-51.401-38.573-100.39-34.513z"/>
<path d="m4383.9 4207.1s15.237-30.212 54.492-27.571c-24.11-23.511-65.46-35.615-106.31-20.696z"/>
<path d="m4625.5 4537s25.292-22.478 60.816-5.5659c-10.749-38.334-39.765-61.184-89.818-63.01z"/>
<path d="m4654.8 4715.8s33.866-6.7559 59.717 19.626c3.4241-37.904-15.105-68.753-58.204-94.27z"/>
<path d="m4597.7 4888.3s31.595 8.99 42.796 43.567c16.525-29.858 13.669-59.651-15.684-105.01z"/>
<path d="m4478.9 5029.9s29.315 21.439 19.947 60.486c32.978-22.304 41.624-59.442 32.998-107.51z"/>
<path d="m4314.1 5101.3s23.075 33.388 3.3353 67.422c39.08-16.68 59.747-37.463 65.63-87.202z"/>
<path d="m4122.6 5058.8s-5.6445 35.593-42.731 48.728c34.693 19.53 68.649 13.91 105.36-20.166z"/>
<path d="m3985.1 4945.7s-15.431 27.39-54.669 30.851c32.076 23.666 54.299 35.093 107.06 19.57z"/>
<path d="m3944.5 4777.5s-30.71 22.04-65.195-6.367c-3.5379 39.655 21.205 67.149 67.36 86.599z"/>
<path d="m4022.7 4593.3s-33.145-6.8115-40.854-45.393c-24.28 31.552-23.951 68.658 4.5393 109.85z"/>
<path d="m3690.9 3805c13.501 0.7539 55.163 11.718 79.372 67.963-27.246-9.8008-62.97-5.713-62.97-5.713-6.9651-14.972-15.214-44.068-16.402-62.25z"/>
<path d="m3711.6 3625.4s57.455 66.019 51.068 99.164c-28.243-23.083-68.109-31.524-68.109-31.524z"/>
<path d="m3491.6 3480.8c-28.777-4.9715-54.752 1.4058-101.86 3.305-15.558 0.6272-26.7 0.7826-39.288 0.9046-17.79 0.1725-10.364 9.8626-36.079 7.4033-14.317-1.3693-22.71 5.2107-22.71 5.2107s-1.6396-14.089 2.1925-21.193c-24.287 13.134-32.397 8.3487-43.67 8.8415-23.606 1.0321-67.197-21.793-67.197-21.793s-1.2653 4.3807 70.607 53.532c12.632 10.885 69.265 33.498 69.265 33.498l-18.546-30.597c29.392-5.5761 38.304-8.018 77.335-6.0777 46.498 2.3115 93.596 19.723 118.95 33.441 0 0 30.201-59.704-8.9957-66.476z"/>
</g>
<path d="m1535.6 2207.8c-68.418 56.417-180.75 110.38-196.44 240.62-9.906 82.248 44.193 126.85 89.874 149.69 27.9 12.5 74.289 13.375 115.55-2.5678 45.514-17.958 94.482-55.011 118.12-101.43 16.323-32.053 20.542-72.555 11.148-108.66 0 0 23.188-133.95-241.26-234.78-132.22-50.416-333.54-27.834-480.94-60.326-147.4-32.492-240.88-120.06-248.58-122.43-7.3643-2.2689-51.953 12.135-64.131 12.947-20.542 1.3695-127.28 4.4165-142.36 3.7807-11.281-0.4758-51.054-3.6609-86.518 4.1999-8.0129 2.4256-34.513-20.565-28.52-12.265 7.6888 10.649 38.361 24.17 48.518 36.746 3.6485 4.518 21.148 10.926 16.704 25.648-11.02 36.515-25.205 10.281-25.205 10.281s-10.545-9.5386-21.161-16.742c-8.7995 4.795-38.117 34.173-43.403 18.208-2.6039-7.865-0.023-22.694-1.2872-33.979-2.0654-18.441-20.478-25.389-38.477-28.645-42.839-7.7493-92.885 46.972-113.61-4.0781 0-12.811 22.73-26.795 36.128-38.892-16.298-12.391-49.247-14.395-45.785-19.63-4.8338-6.4451-15.62-15.454-13.677-25.644 10.828-10.828 29.71-17.035 47.869-20.515-2.8901-11.56-11.651-20.168-27.354-27.354 10.258-5.3309 17.231-5.0398 21.37-3.4193 13.648 2.2097 23.765 5.7033 37.091 11.444 0 0 4.7126-14.67 0.5201-24.31 7.9426-0.724 24.432-1.3765 26.938 3.409 20.544 39.233 63.418 73.267 63.276 73.125 0 0 8.6244 4.5672 17.93 5.1527 6.7418-0.1237 12.076 7.0427 32.898-3.3988 12.185-6.1102 139.29-35.897 184.87-56.096-18.364-20.501-38.668-63.253-14.574-90.276-20.543-26.621-14.145-51.947 10.505-69.74-6.202-34.035-7.1914-46.297 19.192-69.073-4.1675-25.974-2.8025-56.499 21.91-72.224 0.4455-26.124 1.3544-58.18 33.927-72.433-5.9449-27.091 3.0829-59.489 28.754-67.035-6.4272-29.373 6.3563-53.153 28.465-70.714-12.557-21.413-4.2324-31.471-1.6033-51.373 7.7729-122.81 19.655-131.71 167.91-148.28 67.913 61.834 32.091 262.48 32.091 262.48-10.69 32.05-25.424 119.14 12.671 203.1 7.3269 16.149 81.92 15.964 121.28 8.4221 46.127-8.8393 411.85 189.83 485.42 246.62 16.364 12.632 118.41 108.72 128.46 126.12 71.32 81.007 61.757 63.57 89.827 97.554 55.414 67.088 112.88 207.9 116.41 267.03 7.0457 137.38-65.472 264.03-88.223 295.07-105.58 144.08-228.03 196.37-364.4 164.65-73.341-17.06-107-44.537-152.01-76.77-68.66-49.164-118.19-141.94-116.4-221.87 0.9091-40.673 34.855-139.41 61.076-180.77 35.347-55.752 57.807-74.874 101.96-119.03 24.616-24.616 42.555-21.646 62.912-48.789" fill="#f9d616" stroke-width="10"/>
<path d="m1641.2 2320c-30.215 5.2057-59.084-20.976-56.445-48.589-33.275 5.364-69.12-12.511-69.494-37.863-42.124 9.0598-51.534-5.5015-67.317-25.717-32.316 7.7269-50.817-10.664-66.043-28.367-34.484 9.2587-60.714 5.0811-82.183-20.486-18.058 24.286-62.666 16.159-76.26-7.6279-19.283 15.806-40.395 25.154-84.375-2.6519-15.229 27.735-52.951 25.348-80.29 4.1905-51.048 38.743-70.102 9.2126-84.277-1.4383-8.105 13.825-37.668 34.944-75.117 2.4692-33.917 27.348-55.449 11.625-88.26-12.048-25.588 15.613-57.159 6.4752-78.962-21.795-32.931 6.7395-71.754-29.829-67.732-52.204-33.028-4.7262-62.138-44.22-50.727-69.602-15.552-11.26-11.988-6.3726-20.243-13.963 2.5324-2.2114 53.854-2.4969 106.46-11.449 47.042-11.52 51.714-24.323 73.077 3.9581 39.159-3.2098 50.394 17.333 50.394 17.333 41.07-10.062 53.326 9.9981 53.282 14.765 39.801-19.901 63.554 5.1356 63.554 5.1356 38.517-3.2098 55.208 16.049 55.208 16.049 7.7036-5.1356 13.481 1.9259 13.481 1.9259 19.259-34.666 49.431 3.8518 49.431 3.8518 36.592-29.53 83.454-0.642 83.454-0.642 48.147-25.678 95.01 10.271 95.01 10.271 59.06-14.765 85.38 15.407 85.38 15.407 57.134-14.765 79.603 23.11 79.603 23.11 49.431-16.691 80.244 29.53 80.244 29.53 46.863-18.617 72.541 37.234 72.541 37.234 60.344 5.7776 62.912 64.838 62.912 64.838 63.223 21.01 45.689 85.004 45.689 85.004 36.903 19.414 10.951 86.45 10.951 86.45-17.982-12.808-39.108-45.444-32.946-67.077z" fill="#f9d616" stroke-width="10"/>
<path d="m1205.3 1743.5 339.06-384.33c-10.828-46.16 468.35-290.07 461.79-322.55-134.19 87.142-263.73 75.733-568.88 201.39-340.45 140.19-354.76 217.04-354.76 217.04-6.0799 29.616 90.908 143.27-34.511 166.52" fill="#ffdf1b" stroke-width="10.608"/>
<path d="m1889.1 1131.7c-512.82 144.69-734.19 361.28-707.77 371.15 21.662 81.599 10.444 148.36-28.919 187.05-60.938 48.857-74.617 42.257-201.4 83.664-6.0826-5.2259-58.429 29.862-47.758 39.3 90.648 87.007 88.368 250.76 88.368 250.76 93.892-99.648 199.61-95.016 276.22-7.7339 4.7912-118.35 133.03-190.53 239.59-179.57-33.523-97.788 59.253-219.32 187.79-235.55-23.158-108.08 30.911-213.71 179.11-332.57-40.841-47.725-32.455-111.49 14.782-176.51z" fill="#f9d616" stroke-width="10.608"/>
<path d="m928.16 1618.4c-31.349-2.4633-70.868-4.9266-84.059 16.214" fill="none" stroke-width="10.608"/>
<g transform="matrix(1.253 .43382 -.43382 1.253 -444.81 105.6)" fill="none" stroke-width="7.5415">
<path d="m1945.9 284.43c-195.65 98.598-420.77 341.05-420.77 341.05"/>
<path d="m1897.4 562.17c-230.22 23.999-359.09 122.88-359.09 122.88"/>
<path d="m1825.1 775.9c-90.44-49.046-293.58-40.887-293.58-40.887"/>
<path d="m1701.3 965.53c-11.971-44.816-143.06-169.16-192.77-197.89"/>
<path d="m1505.8 1040.6c15.472-109.59-32.54-241.54-32.54-241.54"/>
</g>
<path d="m879.21 1148.4c20.595-25.004 24.97-39.072 25.512-69.168 0.365-20.276-9.7714-67.788-9.7714-67.788s-15.647 33.05-48.21 51.452c-41.586 16.427-41.716 16.541-65.551 25.728-11.877-8.1191-87.446-36.286-108.42-38.874-22.592-2.7876-57.776-20.884-51.356 20.543 0.3836 2.4756 6.4195 30.814 6.4195 30.814s-11.768-6.9029-14.123-7.7035c-36.963-12.569-58.965-17.395-75.751-20.543-22.987-4.3108-88.775-8.3644-121.97 6.4195 17.975 4.4893 33.965 6.6142 37.234 7.7035 7.6388 2.5463 45.542 26.357 46.221 25.678 0.422-0.4219-5.2822-1.2839 6.4196-7.7035 0.1866 0 1.2839 21.225 1.2839 35.95 0 22.308 14.41 58.063 26.962 71.899 5.8567-23.673 6.681-47.877 19.259-43.011 36.726 29.645 93.729-4.4903 125.82 27.604 43.469 43.469 9.3361 66.649-49.431 73.183-11.566 1.2859-18.534 7.8229-25.058 4.4155-7.9357-4.1446-16.464-30.969-19.878-37.797-3.4927-6.9853-4.4938-22.468-4.4938-22.468s-6.2288 12.751-8.9873 17.333c-30.298 50.324-4.4937 115.55-4.4937 115.55s23.995-28.468 88.952-42.976c75.521-16.868 150.98-0.6302 163.34-3.2448 16.477-14.016 10.811-41.332 7.7035-53.924-5.953-24.124-23.308-55.959-31.456-68.689 18.829 2.7798 53.03-15.881 64.838-23.752 8.5876-3.8745 18.557-6.2896 18.987-6.6309 5.4897-5.4897 0.3585 0.6571 7.0811-8.8539" fill="#f9d616" stroke-linecap="round" stroke-width="10"/>
<path d="m627.83 1101.1c61.628 38.518 75.751 56.492 75.751 56.492 25.678-10.271 50.073-19.259 50.073-19.259l2.5679-28.246c-33.382 8.9873-47.505 14.123-47.505 14.123-24.394-19.259-42.369-26.962-42.369-26.962l-3.8517 25.678" fill="none" stroke-width="10"/>
<path d="m707.44 1128.1-2.5678 23.11" fill="none" stroke-linecap="round" stroke-width="18"/>
<g transform="translate(-2793.8 -2280.2)" stroke-linecap="round">
<path d="m3017.3 4128.6c42.256 1.6789 95.296 79.755 150.86 72.426" fill="none" stroke-width="7.956"/>
<path d="m3121.8 4222.4c-67.157-15.314-85.376-32.43-95.144-32.993-14.334-0.8268-24.75 4.5107-41.976 14.887" fill="none" stroke-width="9.282"/>
<path d="m3381.6 4262.6c65.266 0.2385 107.13-2.729 162.64-10.592 13.217-1.8719 54.674-6.3338 62.707-16.433-17.591-4.7101-78.984-24.027-86.247-36.315 10.894-0.2291 25.487-2.677 31.775-2.7235 15.641-0.1158 22.532-0.8163 34.499-1.8157 27.092-2.2624 61.115-22.365 90.786-67.182" fill="#ffdf1b" stroke-width="10"/>
</g>
<path d="m228.94 1303.1c18.001-21.43 40.821-7.3846 55.834-3.6315" fill="none" stroke-linecap="round" stroke-width="8"/>
<path d="m790.43 1302.2c9.9006 34.322-17.704 67.062-17.704 67.062 22.369 49.457-14.864 67.432-14.864 67.432 16.592 45.976-19.358 77.432-19.358 77.432 18.628 48.109-12.681 69.432-18.34 73.476 11.663 44.651-12.333 67.519-23.268 73.41 17.975 33.382 2.5678 57.134 2.5678 57.134 0.642 8.9874 0 25.036 0 25.036" fill="none" stroke-width="8"/>
<path d="m441.83 1921.8c11.006 6.7364 30.867 26.328 60.827-12.71 0 0 36.314 16.076 50.84-18.423 24.274 15.369 52.647 0.4217 59.653-16.452 14.526 16.039 62.001 3.4022 71.079-22.321 0 0 43.156 4.9154 45.017-31.885 0 0 40.432-0.6875 38.506-38.928 0 0 19.973 4.5393 27.236-13.618 0 0 14.526 3.6315-5.4472-50.84-5.4472-24.512 7.2629-49.025-2.7236-62.643 0 0-71.942 15.168-65.898 64.192 0 0-47.475-1.2384-43.954 57.461 0 0-29.959 0.9078-22.696 39.038 0 0-33.591-14.526-59.011 22.697 0 0-28.144-13.618-59.011 17.249 0 0-29.648-8.1708-46.833 17.626 0 0-31.931-11.115-53.032 20.505 0 0-41.762-9.9865-60.827 25.42 12.408 10.289 28.126 17.162 42.67 18.533 7.1058 0.6699 18.328-7.8108 23.604-14.902z" fill="#f9d616" stroke-width="9"/>
<path d="m770.35 1105.9c6.6891-16.653 21.42-22.367 37.233-27.604" fill="none" stroke-linecap="round" stroke-width="10"/>
<path d="m174.84 1132.7c66.714 5.3559 75.323 23.358 113.64 76.856" fill="none" stroke-linecap="round" stroke-width="7.956"/>
</g>
</g>
</svg>
