<?xml version="1.0" encoding="UTF-8"?>
<svg fill-rule="evenodd" version="1.0" viewBox="0 0 500 500" xml:space="preserve" xmlns="http://www.w3.org/2000/svg" xmlns:cc="http://creativecommons.org/ns#" xmlns:dc="http://purl.org/dc/elements/1.1/" xmlns:rdf="http://www.w3.org/1999/02/22-rdf-syntax-ns#"><metadata><rdf:RDF><cc:Work rdf:about=""><dc:format>image/svg+xml</dc:format><dc:type rdf:resource="http://purl.org/dc/dcmitype/StillImage"/></cc:Work></rdf:RDF></metadata><defs>
  <style type="text/css">
   
    .fil6 {fill:none}
    .fil4 {fill:#1F1A17}
    .fil1 {fill:#DA251D}
    .fil2 {fill:white}
    .fil0 {fill:#34377B}
    .fil5 {fill:#E7B400}
    .fil3 {fill:#1F1A17;fill-rule:nonzero}
   
  </style>
 
  
  
 
   
   
   
   
   
   
   
  
    
    
    
    
    
    
    
    
    
    
    
    
    
    
    
    
    
    
    
    
    
    
    
    
    
    
    
    
    
    
    
    
    
    
    
    
    
    
    
    
    
    
    
    
    
    
    
    
    
   
    
    
    
    
    
   
     
     
    
     
     
    
     
     
    
     
     
    
     
     
    
     
     
    
     
     
    
     
     
    
     
     
    
     
     
    
     
     
    
     
     
    
     
     
    
     
     
    
     
     
    </defs><rect width="500" height="340" fill="#002079"/><rect y="344.99" width="500" height="155.01" fill="#c3010d"/><path class="fil1" d="m-0.26421 340.88c2.9816 74.036 107.32 71.997 174.87 102.72 25.235 11.48 53.799 25.893 75.364 56.392 15.624-22.021 37.217-39.896 74.88-56.26 69.179-30.06 173.68-31.606 176.01-104.05l-93.692-81.238h-313.44l-93.99 82.431z" fill="#c3010d"/><path d="m80.416 315.38c-13.941 0.36132-22.548 6.233-29.065 10.959-8.4975 7.1891-45.682 16.663-54.465 13.427 3.5075 11.65-0.37858 16.828 0.67019 19.747 15.107 5.3055 47.7-1.7394 60.825-10.869 6.727-4.8787 11.238-8.5453 23.396-8.5453 12.159 0 16.669 3.6666 23.396 8.5453 6.727 4.8786 15.677 10.959 30.426 10.959 14.749 0 23.671-6.0805 30.398-10.959 6.727-4.8787 11.265-8.5453 23.424-8.5453 12.159 0 16.669 3.6666 23.396 8.5453 6.727 4.8786 15.649 10.959 30.398 10.959 14.749 0 23.699-6.0805 30.426-10.959 6.7269-4.8787 11.238-8.5453 23.396-8.5453 12.159 0 16.669 3.6666 23.396 8.5453 6.727 4.8786 15.677 10.959 30.426 10.959 14.75 0 23.699-6.0805 30.426-10.959 6.7271-4.8787 11.238-8.5453 23.396-8.5453 12.159 0 16.669 3.6666 23.396 8.5453 6.7271 4.8786 15.677 10.959 30.426 10.959 14.75 0 29.605-0.17498 36.332-5.0536 10.937 0.18579 10.397-19.442-7.03-22.305-6.727 4.8786-17.143 2.6397-29.302 2.6397-12.159 0-16.669-3.6666-23.396-8.5453-6.727-4.8785-15.677-10.959-30.426-10.959-14.75 0-23.699 6.0806-30.426 10.959-6.7271 4.8786-11.238 8.5453-23.396 8.5453-12.159 0-16.669-3.6666-23.396-8.5453-6.727-4.8785-15.677-10.959-30.426-10.959-14.75 0-23.699 6.0806-30.426 10.959-6.7271 4.8786-11.238 8.5453-23.396 8.5453-12.159 0-16.669-3.6666-23.396-8.5453-6.727-4.8785-15.649-10.959-30.398-10.959-14.749 0-23.699 6.0806-30.426 10.959-6.7271 4.8786-11.238 8.5453-23.396 8.5453-12.159 0-16.669-3.6666-23.396-8.5453-6.7271-4.8785-15.677-10.959-30.426-10.959-0.46096 0-0.9119-0.0115-1.3616 0z" fill="#fff" fill-rule="evenodd"/><path d="m80.416 375.78c-13.941 0.36132-22.548 6.233-29.065 10.959-6.727 4.8786-11.238 8.5453-23.396 8.5453-12.159 0-16.669-3.6666-23.396-8.5453-6.473-4.6942-14.983-10.479-28.759-10.911v24.67c10.926 0.32262 15.345 3.8954 21.757 8.5453 6.7271 4.8786 15.649 10.959 30.398 10.959 14.75 0 23.699-6.0805 30.426-10.959 6.727-4.8787 11.238-8.5453 23.396-8.5453 12.159 0 16.669 3.6666 23.396 8.5453 6.727 4.8786 15.677 10.959 30.426 10.959 14.749 0 23.671-6.0805 30.398-10.959 6.727-4.8787 11.265-8.5453 23.424-8.5453 12.159 0 16.669 3.6666 23.396 8.5453 6.727 4.8786 15.649 10.959 30.398 10.959 14.749 0 23.699-6.0805 30.426-10.959 6.7269-4.8787 11.238-8.5453 23.396-8.5453 12.159 0 16.669 3.6666 23.396 8.5453 6.727 4.8786 15.677 10.959 30.426 10.959 14.75 0 23.699-6.0805 30.426-10.959 6.7271-4.8787 11.238-8.5453 23.396-8.5453 12.159 0 16.669 3.6666 23.396 8.5453 6.7271 4.8786 15.677 10.959 30.426 10.959 14.75 0 23.699-6.0805 30.426-10.959 6.1358-4.4498 10.434-7.878 20.367-8.4486v-24.718c-12.97 0.76144-21.143 6.327-27.397 10.863-6.727 4.8786-11.238 8.5453-23.396 8.5453-12.159 0-16.669-3.6666-23.396-8.5453-6.727-4.8785-15.677-10.959-30.426-10.959-14.75 0-23.699 6.0806-30.426 10.959-6.7271 4.8786-11.238 8.5453-23.396 8.5453-12.159 0-16.669-3.6666-23.396-8.5453-6.727-4.8785-15.677-10.959-30.426-10.959-14.75 0-23.699 6.0806-30.426 10.959-6.7271 4.8786-11.238 8.5453-23.396 8.5453-12.159 0-16.669-3.6666-23.396-8.5453-6.727-4.8785-15.649-10.959-30.398-10.959-14.749 0-23.699 6.0806-30.426 10.959-6.7271 4.8786-11.238 8.5453-23.396 8.5453-12.159 0-16.669-3.6666-23.396-8.5453-6.7271-4.8785-15.677-10.959-30.426-10.959-0.46096 0-0.9119-0.0115-1.3616 0z" fill="#fff" fill-rule="evenodd"/><polygon class="fil2" transform="matrix(33.141 0 0 33.141 31.292 -22.899)" points="10.21 5.1169 9.5917 5.1169 9.5917 5.7632 8.4837 5.7632 8.4837 5.136 8.1449 5.1356 8.1449 3.0826 8.5432 2.6991 8.5432 1.461 7.7777 1.461 7.7777 1.9922 7.0827 1.9922 7.0827 1.461 6.1332 1.461 6.1332 1.9922 5.4382 1.9922 5.4382 1.461 4.6727 1.461 4.6727 2.6991 5.071 3.0826 5.071 5.1356 4.7322 5.136 4.7322 5.7632 3.6242 5.7632 3.6242 5.1169 3.0054 5.1169 3.0054 4.4058 2.5511 3.8947 2.0776 4.396 2.0776 6.1734 2.374 6.5255 1.8843 8.4887 11.332 8.4887 11.332 8.4887 10.842 6.5255 11.138 6.1734 11.138 4.396 10.665 3.8947 10.21 4.4058" fill="#fff"/><path class="fil3" d="m213.5 193.26v16.848h5.047v-11.269c-1.5938-2.125-2.922-3.9845-5.047-5.5783zm-6.1095-3.7701v20.618h5.047v-17.696c-1.6513-1.3554-3.1322-2.284-5.047-2.922v1e-5zm-6.9064 20.618h5.8439l0.0512-21.048c-1.8594-0.7969-4.0357-1.3167-5.8951-1.3282v22.376l3e-5 1e-5zm81.806 39.313v8.5002h4.5241v-8.5002h-4.5241zm5.5866 8.5002h5.047v-8.5002h-5.047v8.5002zm6.1096 0h6.1095v-8.5002h-6.1095v8.5002zm-7.1721-40.642h-4.5241v24.859h4.5241v-24.859zm6.1095 0h-5.047v24.859h5.047v-24.859zm7.1721 24.859v-24.859h-6.1095v24.859h6.1095zm-13.016-49.031c-2.125 1.5938-3.1959 3.4532-4.7897 5.5783v11.422h4.7897v-17zm5.8439-3.7188c-1.5938 0.79688-3.4532 1.8594-4.7814 2.9219v17.797h4.7814v-20.719zm7.1721 20.719v-22.375c-2.1251 0.26563-4.2501 0.58146-6.1095 1.3784v20.996h6.1095zm0 38.251v-5.3126h-1.8594v5.3126h1.8594zm0-32.141v-5.047h-1.8594v5.047h1.8594zm11.688 41.704v-20.985h-5.047v20.985h5.047zm-6.1095 0v-70.392h-4.5638v70.392h4.5638zm0.95377-22.002h29.594v-25.28h-29.485l-0.10876 25.28zm73.689-42.015-7.3268-7.7033h-12.33v23.376h33.735c-1.3281-5.3126-2.6563-10.36-4.2501-15.672h-9.8284 6e-5zm14.078 16.735h-15.672l-0.10876 25.28h21.782c-2.125-8.5002-3.8757-16.78-6.0008-25.28zm-3.9845-17.908 9.0315-10.78h-28.688l9.9936 10.78h9.6631zm-53.126 43.188h40.267l0.10878-25.28h-40.376v25.28h-6e-5zm22.313-49.718h-46.751v23.376h46.751v-23.376zm0 71.721v-20.985h-46.751v20.985h46.751zm-109.97-174.79h-49.587v21.11h49.587v-21.11zm1.0625-1.0625h49.939v-2.0634l-49.939-0.10981v2.1732zm-1.0625-2.1732h-49.587v2.1732h49.587v-2.1732zm1.0625-1.0144h50.204l12.485-11.953h-62.689v11.953h5e-5zm-1.0625-11.953-62.24-0.09099 12.218 11.953 50.022 0.09099v-11.953h-7e-5zm15.938-40.907h-30.548v17.532h-24.172v-17.532h-24.171v39.845h127.24v-39.845h-24.438v17.532h-23.907v-17.532h3e-5zm141.94 232.92h-314.43c6.1472-21.644 10.222-43.798 16.327-65.452l-9.7719-11.611v-59.302l16.225-17.18 15.894 17.513v23.244h20.508v21.418h35.02v-20.785l11.554-0.0126v-67.293l-13.199-12.712v-41.774h26.415v17.601h21.988v-17.601h32.511v17.601h21.988v-17.601h26.415v41.774l-13.199 12.712v67.293l11.228 0.0126v20.785h35.674v-21.418h20.243v-23.244l15.831-17.513 16.225 17.18v59.302l-9.7719 11.611c6.1054 21.654 10.18 43.808 16.327 65.452h2e-4zm-156.82-154.7h49.939v-21.11h-49.939v21.11zm-50.65 32.547h49.587v-31.345h-49.587v31.345zm50.65 0h49.939v-31.345h-49.939v31.345zm120.13-14.344h28.628l-14.654-15.338-13.974 15.338zm-0.85755 58.439h30.016v-57.376h-30.016v57.376zm-119.27 0h118.21v-33.735h-19.065v21.516h-38.046v-20.767h-33.204v-1.1242h22.047v-8.9217h-49.939v29.332h10.36v1.2152h-10.36v12.485l4e-5 -6e-5zm-1.0625-12.485h-10.36v-1.2152h10.36v-29.332h-49.587v8.9217h21.696v1.1242h-33.204v20.767h-37.453v-21.516h-19.391v33.735h117.94v-12.485l-3.2e-4 4e-5zm-119 12.485v-57.376h-29.751v57.376h29.751zm-0.75296-58.439-13.989-15.469-14.653 15.56 28.641-0.091v1e-5zm-19.48 70.283h9.6077l10.094-10.781h-28.799l9.0974 10.781zm9.8734 1.1723h-9.8284c-1.3282 5.3126-2.6563 10.36-3.9845 15.672h33.47v-23.376h-12.219l-7.4377 7.7033h-1.4e-4zm11.422-11.953-2.9219 3.1876h109.97c2.1251-1.0625 4.2501-1.5938 6.3752-2.125l-0.20185-1.0625h-113.22 5e-5zm31.876 53.855v-25.167h-40.419v25.167h40.419zm-57.376-25.167c-2.1251 8.5002-3.9845 16.667-6.1096 25.167h22.047v-25.167h-15.938zm-6.3752 26.298c-1.5938 7.1721-3.1876 14.078-5.3126 20.985h46.22v-20.985h-40.907-1.36e-4zm41.97 20.985h45.953v-20.985h-45.953v20.985zm52.063-22.115v-25.167h-29.261v25.167h29.261zm-52.86-49.605v23.376h46.75v-23.376h-46.75zm78.36 71.721h61.892v-8.5002h-10.36v-7.2829h10.36v-24.859h-10.36v-7.1721h3.1876c1.3282-2.6563 2.1251-4.2501 3.4532-6.6408-3.4532-9.8284-12.316-17.564-22.41-19.424l-1.0615 5.6107-0.96632-0.26563 1.3282-7.4377h-8.5002l1.3282 7.7033-0.8931 0.0648-1.0636-5.6431c-2.125 0.26563-4.1528 1.0625-6.2779 1.8594-7.7033 3.7188-12.485 9.2971-15.938 17.797 1.3282 2.3907 2.125 3.7188 3.1876 6.3752h3.1876v7.1721h-10.094v24.859h10.094v7.2829h-10.094v8.5002l5e-5 3e-5zm-30.548-71.721v23.376h5.047v-23.11l5.7602 0.13805c10.116 0.24263 17.12 6.5059 22.662 16.065 2.3907-6.3752 7.7033-13.016 14.344-16.469h-47.814l-2e-5 2e-5zm6.0614 71.721h4.5638v-70.341l-4.5638-0.10981v70.451-2.2e-4zm-6.0614 0h5.047v-20.985h-5.047v20.985zm211.97-20.985h-40.11v20.985h45.423c-1.8594-6.9064-3.7188-13.813-5.3127-20.985h2.1e-4zm-182.49 12.485h-4.7814v8.5002h4.7814v-8.5002zm-5.8439 8.5002v-8.5002h-4.7814v8.5002h4.7814zm-5.8439 0v-8.5002h-6.1095v8.5002h6.1095zm-6.1095-9.5627h1.8594v-5.3126h-1.8594v5.3126zm0-6.2204h6.1095v-24.859h-6.1095v24.859zm0-25.921h1.8594v-5.047h-1.8594v5.047zm19.125-16.204v10.094h5.5782c-1.5938-3.4532-3.4532-6.9064-5.5782-10.094zm-11.953 17.266v24.859h4.7814v-24.859h-4.7814zm5.8439 0v24.859h4.7814v-24.859h-4.7814zm14.875-6.1095h-25.124v5.047h25.124v-5.047zm0 31.876h-25.124v5.3126h25.124v-5.3126zm43.564-31.876v5.047h25.235v-5.047h-25.235zm0 31.876v5.3126h25.235v-5.3126h-25.235zm39.845-56.845h-48.079c6.9064 3.4532 12.219 9.5627 14.61 16.204 6.325-10.432 12.368-15.007 22.824-15.89l5.5981-0.0481v23.11h5.047v-23.376l9e-5 2e-5zm-30.548 13.813c-2.3907 3.1876-4.2501 6.6408-5.8439 10.094h5.8439v-10.094zm87.924-18.063h-113.69l-0.16837 1.0625c2.3907 0.53127 4.4185 1.0625 6.2779 2.1251h110.61l-3.0328-3.1876h7e-5z" fill="#1f1a17" fill-rule="nonzero"/><path class="fil4" d="m225.58 168.4h14.047v-31.122h-17.953v10.476h3.8935l0.0126 20.646h-4e-5zm50.102 0h-14.92l0.0188-31.122h18.093l0.0125 10.476h-3.2064l2e-3 20.646zm-54.008-76.629h17.953v29.227h-17.953v-29.227zm39.259 0h17.953v29.227h-17.953v-29.227zm-149.8 38.827h9.0325v27.36h-9.0325v-27.36zm269.26 0h9.0336v27.36h-9.0336v-27.36z" fill="#1f1a17"/><path class="fil0" d="m265.07 258.26-29.806-1e-3 0.0701-44.818c0.0262-16.884 28.292-19.059 29.736-0.73415v45.554l2e-5 -2e-4z" fill="#002079"/><path class="fil4" d="m235.67 258.46v-44.841c0-16.816 27.717-18.981 29.131-0.73204v45.573l9.3515-0.0126v-9.1277h-3.2148v-7.0842h3.2148v-25.044h-3.2137v-7.0194h3.1572c-1.3177-13.344-11.291-19.826-20.834-20.735-0.84709-0.0805-1.7026-0.11922-2.5402-0.11608-1.2246 6e-3 -2.4388 0.0973-3.6142 0.26144-9.7091 1.3648-17.768 8.2733-20.841 20.591h3.1228v7.0162h-3.221v25.011h3.2137v7.1323h-3.2137v9.1266h9.5021l1e-5 -1e-5z" fill="#1f1a17"/><path class="fil5" d="m107.63 311.35 23.892 10.123c0.0115 2.0456-0.24888 4.0169 2.8571 5.6954 4.4906 2.4283 15.01 8.2618 22.356 14.566 3.2556 31.003 24.365 55.139 67.022 70.992 17.031-14.245 35.548-14.916 53.416 0 17.237-5.4915 35.973-11.668 50.575-22.73l39.563 0.0408c-0.74882-15.034-6.0918-22.999-13.523-27.754 6.5341-9.0221 9.3797-18.689 9.1915-29.674h13.558v-8.1739l-8.2764-7.0602h-32.323l-6.896 7.0602v8.1739h8.7167c-57.203 47.188-106.91 31.076-155.01-2.1439l-6e-3 -4e-3c-5.8481-4.7531-12.508-11.329-16.252-17.695l-58.872-7.535 9e-3 6.12 1.2e-4 1.7e-4z" fill="#e7b400"/><path class="fil2" d="m225.11 369.1c2.4168 0 4.3871 1.9703 4.3871 4.3871 0 2.4168-1.9703 4.3882-4.3871 4.3882s-4.3871-1.9713-4.3871-4.3882c0-2.4168 1.9703-4.3871 4.3871-4.3871z" fill="#fff"/><path class="fil3" d="m225.11 368.6h7e-3c1.3407 2e-3 2.5622 0.55219 3.4448 1.4369 0.87848 0.88058 1.4265 2.0948 1.4306 3.4302v0.0157 7e-3c-2e-3 1.3428-0.55323 2.5643-1.4348 3.4459h-2e-3c-0.88057 0.87949-2.0958 1.4264-3.4302 1.4306h-0.0157-7e-3c-1.3418-2e-3 -2.5622-0.55322-3.4459-1.438-0.87743-0.87951-1.4254-2.0948-1.4296-3.4302v-0.0157-7e-3c2e-3 -1.3417 0.55216-2.5621 1.4369-3.4459 0.8795-0.8774 2.0937-1.4254 3.4302-1.4296h0.0157zm7e-3 0.99141h-7e-3 -0.0157c-1.0646 3e-3 -2.033 0.4403-2.7337 1.1389-0.70277 0.70277-1.141 1.6753-1.142 2.7452v7e-3 0.0157c3e-3 1.0636 0.44028 2.0331 1.1389 2.7337 0.70276 0.70278 1.6754 1.142 2.7452 1.1431h7e-3 0.0157c1.0625-3e-3 2.0309-0.43922 2.7327-1.1388l-1e-3 -1e-3c0.70382-0.70381 1.1431-1.6764 1.1441-2.7452v-7e-3 -0.0157c-3e-3 -1.0636-0.44028-2.033-1.1399-2.7337-0.70069-0.70278-1.6743-1.141-2.7442-1.142z" fill="#1f1a17" fill-rule="nonzero"/><path class="fil2" d="m203.87 374.45c2.4168 0 4.3871 1.9703 4.3871 4.3871 0 2.4168-1.9703 4.3882-4.3871 4.3882-2.4168 0-4.3871-1.9713-4.3871-4.3882 0-2.4168 1.9703-4.3871 4.3871-4.3871z" fill="#fff"/><path class="fil3" d="m203.87 373.95h7e-3c1.3407 2e-3 2.5622 0.55219 3.4448 1.4369 0.87846 0.88058 1.4265 2.0948 1.4306 3.4302v0.0157 7e-3c-2e-3 1.3428-0.55323 2.5643-1.4348 3.4459h-2e-3c-0.88057 0.87948-2.0958 1.4264-3.4302 1.4306h-0.0157-7e-3c-1.3418-2e-3 -2.5622-0.55321-3.4459-1.4379-0.87742-0.87953-1.4254-2.0948-1.4296-3.4302v-0.0157-7e-3c2e-3 -1.3417 0.55218-2.5622 1.4369-3.4459 0.87951-0.8774 2.0937-1.4254 3.4302-1.4296h0.0157 2e-5zm7e-3 0.99141h-7e-3 -0.0157c-1.0646 3e-3 -2.033 0.4403-2.7337 1.1389-0.70276 0.70277-1.141 1.6754-1.142 2.7452v7e-3 0.0157c3e-3 1.0636 0.44028 2.033 1.1389 2.7337 0.70279 0.70279 1.6754 1.142 2.7452 1.1431h7e-3 0.0157c1.0625-3e-3 2.0309-0.43921 2.7327-1.1388l-1e-3 -1e-3c0.70384-0.70381 1.1431-1.6764 1.1441-2.7452v-7e-3 -0.0157c-3e-3 -1.0636-0.44028-2.033-1.1399-2.7337-0.70067-0.70279-1.6743-1.141-2.7442-1.142z" fill="#1f1a17" fill-rule="nonzero"/><path class="fil2" d="m209.73 389.64c2.4168 0 4.3871 1.9703 4.3871 4.3871 0 2.4168-1.9703 4.3882-4.3871 4.3882s-4.3871-1.9713-4.3871-4.3882c0-2.4168 1.9703-4.3871 4.3871-4.3871z" fill="#fff"/><path class="fil3" d="m209.73 389.14h7e-3c1.3407 2e-3 2.5622 0.55219 3.4448 1.4369 0.87848 0.88058 1.4265 2.0948 1.4306 3.4302v0.0157 7e-3c-2e-3 1.3428-0.55323 2.5643-1.4348 3.4459h-2e-3c-0.88057 0.8795-2.0958 1.4264-3.4302 1.4306h-0.0157-7e-3c-1.3418-2e-3 -2.5622-0.55321-3.4459-1.4379-0.87742-0.87952-1.4254-2.0948-1.4296-3.4302v-0.0157-7e-3c2e-3 -1.3417 0.55217-2.5622 1.4369-3.4459 0.87953-0.8774 2.0937-1.4254 3.4302-1.4296h0.0157zm7e-3 0.9914h-7e-3 -0.0157c-1.0646 3e-3 -2.033 0.44032-2.7337 1.1389-0.70276 0.70278-1.141 1.6754-1.142 2.7452v7e-3 0.0157c3e-3 1.0636 0.44028 2.033 1.1389 2.7337 0.70277 0.70279 1.6754 1.142 2.7452 1.1431h7e-3 0.0157c1.0625-3e-3 2.0309-0.43922 2.7327-1.1388l-1e-3 -1e-3c0.70382-0.70381 1.1431-1.6764 1.1441-2.7452v-7e-3 -0.0157c-3e-3 -1.0636-0.44028-2.033-1.1399-2.7337-0.7007-0.70278-1.6743-1.141-2.7442-1.142z" fill="#1f1a17" fill-rule="nonzero"/><path class="fil2" d="m233.1 385.94c2.4168 0 4.3871 1.9702 4.3871 4.3871 0 2.4168-1.9703 4.3882-4.3871 4.3882-2.4168 0-4.3871-1.9713-4.3871-4.3882 0-2.4168 1.9703-4.3871 4.3871-4.3871z" fill="#fff"/><path class="fil3" d="m233.1 385.45h7e-3c1.3407 2e-3 2.5622 0.55219 3.4448 1.4369 0.87847 0.88058 1.4265 2.0948 1.4306 3.4302v0.0157 7e-3c-2e-3 1.3428-0.55323 2.5643-1.4348 3.4459h-2e-3c-0.88056 0.87948-2.0958 1.4264-3.4302 1.4306h-0.0157-7e-3c-1.3418-2e-3 -2.5622-0.55323-3.4459-1.438-0.8774-0.87952-1.4254-2.0948-1.4296-3.4302v-0.0157-7e-3c2e-3 -1.3417 0.55218-2.5622 1.4369-3.4459 0.87952-0.87736 2.0937-1.4254 3.4302-1.4296h0.0157 2e-5zm7e-3 0.9914h-7e-3 -0.0157c-1.0646 3e-3 -2.033 0.44027-2.7337 1.1388-0.70277 0.70278-1.141 1.6754-1.142 2.7452v7e-3 0.0157c3e-3 1.0636 0.44028 2.0331 1.1389 2.7337 0.70278 0.70278 1.6754 1.142 2.7452 1.1431h7e-3 0.0157c1.0625-3e-3 2.0309-0.43921 2.7327-1.1388l-1e-3 -1e-3c0.70382-0.70381 1.143-1.6764 1.1441-2.7452v-7e-3 -0.0157c-3e-3 -1.0636-0.44028-2.0331-1.1399-2.7337-0.70068-0.70278-1.6743-1.1409-2.7442-1.142z" fill="#1f1a17" fill-rule="nonzero"/><path class="fil2" d="m249.84 374.54c2.4168 0 4.3871 1.9703 4.3871 4.3871s-1.9703 4.3882-4.3871 4.3882c-2.4168 0-4.3871-1.9713-4.3871-4.3882 0-2.4168 1.9703-4.3871 4.3871-4.3871z" fill="#fff"/><path class="fil3" d="m249.84 374.05h7e-3c1.3407 2e-3 2.5622 0.55219 3.4448 1.4369 0.87846 0.88058 1.4265 2.0948 1.4306 3.4302v0.0157 7e-3c-2e-3 1.3428-0.55325 2.5643-1.4348 3.4459h-2e-3c-0.88055 0.87948-2.0958 1.4264-3.4302 1.4306h-0.0157-7e-3c-1.3418-2e-3 -2.5622-0.55322-3.4459-1.438-0.87742-0.87952-1.4254-2.0948-1.4296-3.4302v-0.0157-7e-3c2e-3 -1.3417 0.55216-2.5622 1.4369-3.4459 0.87953-0.87739 2.0937-1.4254 3.4302-1.4296h0.0157 2e-5zm7e-3 0.9914h-7e-3 -0.0157c-1.0646 3e-3 -2.033 0.4403-2.7337 1.1389-0.70279 0.70278-1.141 1.6754-1.142 2.7452v7e-3 0.0157c3e-3 1.0636 0.44029 2.033 1.1389 2.7337 0.70278 0.70277 1.6754 1.142 2.7452 1.143h7e-3 0.0157c1.0625-3e-3 2.0309-0.43921 2.7327-1.1388l-1e-3 -1e-3c0.70382-0.70381 1.143-1.6764 1.1441-2.7452v-7e-3 -0.0157c-3e-3 -1.0636-0.44028-2.0331-1.1399-2.7337-0.70068-0.70279-1.6743-1.141-2.7442-1.142z" fill="#1f1a17" fill-rule="nonzero"/><path class="fil2" d="m276.71 373.01c2.4168 0 4.3871 1.9703 4.3871 4.3871 0 2.4168-1.9703 4.3882-4.3871 4.3882-2.4168 0-4.3871-1.9714-4.3871-4.3882 0-2.4168 1.9703-4.3871 4.3871-4.3871z" fill="#fff"/><path class="fil3" d="m276.71 372.51h7e-3c1.3407 2e-3 2.5622 0.55219 3.4448 1.4369 0.87847 0.88058 1.4265 2.0948 1.4306 3.4302v0.0157 7e-3c-2e-3 1.3428-0.55322 2.5643-1.4348 3.4459h-2e-3c-0.88056 0.87948-2.0958 1.4264-3.4302 1.4306h-0.0157-7e-3c-1.3417-2e-3 -2.5622-0.55321-3.4459-1.4379-0.87742-0.87952-1.4254-2.0948-1.4296-3.4302v-0.0157-7e-3c2e-3 -1.3417 0.55218-2.5622 1.4369-3.4459 0.87951-0.8774 2.0937-1.4254 3.4302-1.4296h0.0157 2e-5zm7e-3 0.99141h-7e-3 -0.0157c-1.0646 3e-3 -2.033 0.4403-2.7337 1.1389-0.70278 0.70278-1.141 1.6754-1.142 2.7452v7e-3 0.0157c3e-3 1.0636 0.44028 2.033 1.1389 2.7337 0.70277 0.70277 1.6754 1.142 2.7452 1.143h7e-3 0.0157c1.0625-3e-3 2.0309-0.43921 2.7327-1.1388l-1e-3 -1e-3c0.70382-0.70381 1.143-1.6764 1.1441-2.7452v-7e-3 -0.0157c-3e-3 -1.0636-0.44028-2.0331-1.1399-2.7337-0.70069-0.70279-1.6743-1.141-2.7442-1.142z" fill="#1f1a17" fill-rule="nonzero"/><path class="fil2" d="m297.94 380.39c2.4168 0 4.3871 1.9703 4.3871 4.3871 0 2.4168-1.9703 4.3881-4.3871 4.3881-2.4168 0-4.3871-1.9713-4.3871-4.3881 0-2.4168 1.9703-4.3871 4.3871-4.3871z" fill="#fff"/><path class="fil3" d="m297.94 379.89h7e-3c1.3407 2e-3 2.5622 0.55219 3.4448 1.4369 0.87846 0.88058 1.4265 2.0948 1.4306 3.4302v0.0157 7e-3c-2e-3 1.3428-0.55324 2.5642-1.4348 3.4459h-2e-3c-0.88056 0.87949-2.0958 1.4264-3.4302 1.4306h-0.0157-7e-3c-1.3418-2e-3 -2.5622-0.55321-3.4459-1.4379-0.87742-0.87953-1.4254-2.0947-1.4296-3.4302v-0.0157-7e-3c2e-3 -1.3417 0.55217-2.5622 1.4369-3.4459 0.87952-0.8774 2.0937-1.4254 3.4302-1.4296h0.0157 2e-5zm7e-3 0.9914h-7e-3 -0.0157c-1.0646 3e-3 -2.033 0.44031-2.7337 1.1389-0.70277 0.70279-1.141 1.6754-1.142 2.7452v7e-3 0.0157c3e-3 1.0636 0.44028 2.033 1.1389 2.7337 0.70279 0.70278 1.6754 1.142 2.7452 1.143h7e-3 0.0157c1.0625-3e-3 2.0309-0.43921 2.7327-1.1388l-1e-3 -1e-3c0.70382-0.70381 1.143-1.6764 1.1441-2.7452v-7e-3 -0.0157c-3e-3 -1.0636-0.44028-2.033-1.1399-2.7337-0.70068-0.70279-1.6743-1.141-2.7442-1.142z" fill="#1f1a17" fill-rule="nonzero"/><path class="fil2" d="m266.96 388.01c2.4168 0 4.3871 1.9703 4.3871 4.3871 0 2.4169-1.9703 4.3882-4.3871 4.3882-2.4168 0-4.3871-1.9713-4.3871-4.3882 0-2.4168 1.9703-4.3871 4.3871-4.3871z" fill="#fff"/><path class="fil3" d="m266.96 387.52h7e-3c1.3407 2e-3 2.5622 0.55219 3.4448 1.4369 0.87848 0.88058 1.4265 2.0948 1.4306 3.4302v0.0157 7e-3c-2e-3 1.3428-0.55322 2.5643-1.4348 3.4459h-2e-3c-0.88056 0.87949-2.0958 1.4264-3.4302 1.4306h-0.0157-7e-3c-1.3418-2e-3 -2.5622-0.55321-3.4459-1.4379-0.87742-0.87952-1.4254-2.0948-1.4296-3.4302v-0.0157-7e-3c2e-3 -1.3417 0.55217-2.5622 1.4369-3.4459 0.87952-0.8774 2.0937-1.4254 3.4302-1.4296h0.0157zm7e-3 0.9914h-7e-3 -0.0157c-1.0646 3e-3 -2.033 0.44031-2.7337 1.1389-0.70276 0.70277-1.141 1.6754-1.142 2.7452v7e-3 0.0157c3e-3 1.0636 0.44027 2.033 1.1389 2.7337 0.70278 0.70278 1.6754 1.142 2.7452 1.1431h7e-3 0.0157c1.0625-3e-3 2.0309-0.43922 2.7327-1.1388l-1e-3 -1e-3c0.70382-0.70381 1.1431-1.6764 1.1441-2.7452v-7e-3 -0.0157c-3e-3 -1.0636-0.44028-2.033-1.1399-2.7337-0.70069-0.70278-1.6743-1.141-2.7442-1.142z" fill="#1f1a17" fill-rule="nonzero"/><path class="fil2" d="m292 394.98c2.4168 0 4.3871 1.9703 4.3871 4.3871 0 2.4168-1.9703 4.3881-4.3871 4.3881-2.4168 0-4.3871-1.9714-4.3871-4.3881 0-2.4168 1.9703-4.3871 4.3871-4.3871z" fill="#fff"/><path class="fil3" d="m292 394.49h7e-3c1.3407 2e-3 2.5622 0.55219 3.4448 1.4369 0.87846 0.88058 1.4265 2.0947 1.4306 3.4302v0.0157 7e-3c-2e-3 1.3428-0.55325 2.5642-1.4348 3.4459h-2e-3c-0.88055 0.87949-2.0958 1.4264-3.4302 1.4306h-0.0157-7e-3c-1.3417-2e-3 -2.5622-0.55322-3.4459-1.438-0.87742-0.87952-1.4254-2.0947-1.4296-3.4302v-0.0157-7e-3c2e-3 -1.3417 0.55217-2.5622 1.4369-3.4459 0.87951-0.8774 2.0937-1.4254 3.4302-1.4296h0.0157 1e-5zm7e-3 0.99141h-7e-3 -0.0157c-1.0646 3e-3 -2.033 0.44031-2.7337 1.1389-0.70279 0.70278-1.141 1.6754-1.142 2.7452v7e-3 0.0157c3e-3 1.0636 0.44028 2.033 1.1389 2.7337 0.70276 0.70279 1.6754 1.142 2.7452 1.1431h7e-3 0.0157c1.0625-3e-3 2.0309-0.43921 2.7327-1.1388l-1e-3 -1e-3c0.70382-0.70381 1.143-1.6764 1.1441-2.7452v-7e-3 -0.0157c-3e-3 -1.0636-0.44028-2.033-1.1399-2.7337-0.70068-0.70278-1.6743-1.141-2.7442-1.142z" fill="#1f1a17" fill-rule="nonzero"/><path class="fil4" d="m299.67 384.11 12.35 23.286-2.6469 1.2508-12.644-22.569c-1.4735-2.6323 1.9284-3.8747 2.9408-1.9671h-1e-5zm-5.6651 14.723 5.505 13.928c-0.95898 0.30434-2.0226 0.60658-3.1405 0.86489l-5.4998-13.155c-1.1629-2.7829 2.3405-3.6477 3.1353-1.6377zm-15.575-22.227 9.6527 38.472c-0.89729 0.10979-1.8239 0.16106-2.7713 0.17465l-10.205-37.432c-0.79271-2.9104 2.7975-3.3089 3.3236-1.2142v-9e-5zm-9.6182 15.824 1.6147 15.344-3.4836-2.0393-1.5917-12.567c-0.37962-2.9931 3.2325-2.8874 3.4605-0.73729zm-17.137-13.25-0.54276 22.213-3.1301 0.12132 0.14641-22.059c0.0199-3.0171 3.5787-2.4346 3.5264-0.27506h-1e-5zm-16.874 11.616-2.535 15.984c-1.1138 0.60134-2.4262 1.4672-3.7136 2.3258l2.718-18.538c0.43821-2.9857 3.8684-1.9044 3.5306 0.22797h-2e-5zm-8.0369-16.694-8.8129 41.176c-1.1012 0.26768-2.2725 0.47895-3.3246 0.55007l8.6226-42.131c0.60551-2.9554 3.9656-1.7088 3.5149 0.40471l-4e-5 -3e-5zm-15.763 21.228-7.9731 18.74c-0.9182-0.41622-1.8375-0.87429-2.7588-1.3763l7.3467-18.392c1.119-2.8017 4.2292-0.9569 3.3852 1.0291l-2e-5 4e-5zm-5.8721-15.395-16.126 26.752-2.5695-1.2037 15.499-27.063c1.4976-2.6176 4.3118-0.33466 3.197 1.5143l-2e-5 3e-5z" fill="#1f1a17"/><path class="fil3" d="m329.2 389.5 37.587 0.0387c-0.4131-7.1867-1.8992-12.707-4.1685-17.005-2.2286-4.2218-5.2248-7.2735-8.7073-9.5794-0.0544 0.0753-0.11085 0.15162-0.16627 0.22692-0.0282 0.0387-0.0554 0.0764-0.0837 0.114-3.586 4.9236-7.4147 9.6746-11.538 14.159-4.0106 4.3547-8.3099 8.4322-12.923 12.045h9e-5zm24.545-26.318c-0.0282 0.0376-0.0554 0.0764-0.0836 0.114m13.65 27.236-39.399-0.0408c-7.3038 5.5082-15.629 9.8096-24.274 13.415-8.6822 3.6206-17.625 6.5017-26.573 9.3745-11.003-9.1967-24.344-13.954-38.38-8.8757-5.3001 1.917-10.132 4.9801-14.452 8.5693l-1e-3 -1e-3 -0.37753 0.31689c-17.875-6.6942-35.598-15.848-48.749-30.042-11.043-11.919-17.171-25.736-18.841-41.264-3.6206-3.0862-8.0035-6.0635-12.038-8.5661-4.0859-2.534-7.8372-4.5994-10.082-5.8135-2.5957-1.4014-3.1269-3.1447-3.1175-5.8345-7.9878-3.3047-15.934-6.7192-23.892-10.094l-0.0104-7.0068 59.586 7.6374c2.9575 5.0303 7.0968 9.4414 11.34 13.406 0.84291 0.78748 1.6869 1.5478 2.5141 2.2673h2e-3c3.541 3.0809 7.7724 5.7069 11.879 8.5044 6.0688 4.132 12.662 7.6677 19.483 11.12 14.492 7.3352 30.326 12.286 44.95 13.588 25.148 2.2422 51.41-5.276 79.492-28.089h-7.8257v-8.6696l0.14118-0.34514 7.0434-7.2107h32.715l8.588 7.33v8.8955h-13.552c0.046 5.3555-0.62749 10.405-2.101 15.219-1.4735 4.8159-3.746 9.4017-6.8886 13.828 3.5933 2.3865 6.692 5.549 9.0022 9.9246 2.3917 4.5283 3.9364 10.347 4.3139 17.938l0.0262 0.51978-0.52184-1e-3 -1e-4 -2e-4zm-25.623-14.072c4.1999-4.567 8.062-9.4456 11.699-14.469 3.2315-4.4634 5.5542-9.089 7.0424-13.955 1.4443-4.7207 2.1094-9.6757 2.0623-14.933h-4.4017c-7.6646 21.436-22.915 37.987-41.754 49.037-46.754 27.424-116.47 20.708-145.94-29.527-2.3101-3.9385-4.5743-7.535-6.8939-10.879-2.2704-3.2755-4.5931-6.3061-7.0612-9.1789l-24.426-10.337c0 2.1324 0.61389 3.4438 2.5957 4.5137 2.2432 1.2131 5.9987 3.2806 10.133 5.8449 4.1089 2.5486 9.0409 5.5124 12.467 8.9384 6.5142 8.4625 9.7353 15.647 12.586 22.003 3.0935 6.9002 5.7466 12.816 11.745 18.3 14.007 12.805 32.717 19.546 50.728 24.429l-1.3166 0.71007c-17.86-4.8975-36.191-11.709-50.081-24.407-6.143-5.6159-8.837-11.623-11.977-18.629-2.6762-5.9694-5.6818-12.674-11.463-20.475 1.8814 14.674 7.878 27.77 18.4 39.126 10.917 11.784 26.711 21.708 47.825 29.588 2.3771-1.9703 4.7918-3.6864 7.2359-5.1338 2.4587-1.4578 4.9477-2.6448 7.4534-3.5515 12.796-4.6297 26.037-1.9776 38.931 8.6948 8.5337-2.7201 17.43-5.6138 25.98-9.179 0.60344-0.25203 1.2079-0.50824 1.8082-0.7676-10.765 3.1991-22.433 5.0428-33.547 5.7592l-1.5426-0.94434c13.972-0.53439 29.268-3.2399 42.22-8.1206 11.028-4.8525 21.413-13.672 29.49-22.459l-8e-5 2.6e-4zm15.35-43.357h-6.439c-15.76 37.143-61.261 52.71-98.88 51.319l-0.16314-6e-3c-20.659-0.79478-41.229-8.7178-60.676-24.54-8.1007-6.5895-15.454-14.09-22.136-22.105l-0.0147-0.0178-10.28-4.3505c2.0299 2.4566 3.9677 5.0282 5.869 7.7703 2.329 3.358 4.6067 6.9754 6.9315 10.94 29.183 49.759 98.297 56.325 144.59 29.176 18.551-10.881 33.582-27.145 41.202-48.186l-1.2e-4 7e-5zm-7.5203 0h-3.8663c-14 13.964-25.679 24.129-39.891 30.706-14.251 6.5948-31.02 9.5732-55.186 9.1465-17.994-0.31791-36.306-5.8334-53.872-17.641-7.3153-4.9173-14.091-10.646-20.294-16.901-0.55742 0.62643-1.1169 1.2549-1.6691 1.8856l-3e-3 -1e-3 -1e-3 1e-3c-1.3271-0.56787-2.6605-1.1284-3.9897-1.6911 6.3093 7.4147 13.201 14.356 20.758 20.502 19.271 15.679 39.641 23.528 60.088 24.316l0.16315 6e-3c37.074 1.3784 82.017-13.858 97.763-50.328l-1.1e-4 -6e-5zm-5.2666 0h-2.2087c-16.805 13.016-28.866 21.82-41.787 27.455-12.953 5.6494-26.738 8.106-46.969 8.4134-20.492 0.31268-39.77-6.7883-56.204-18.287-6.4536-4.5147-12.477-9.6987-17.929-15.381-0.6965 0.78329-1.393 1.5802-2.0884 2.3666 6.1524 6.2287 12.918 11.935 20.187 16.821 17.398 11.695 35.527 17.157 53.337 17.472 24.009 0.42354 40.647-2.5245 54.758-9.0545 13.844-6.4076 25.293-16.28 38.904-29.806l-1.7e-4 7e-5zm-3.8224 0h-2.4963c-28.662 23.596-55.468 31.369-81.139 29.08-25.558-2.2788-49.97-14.745-73.967-31.271-1.0929 1.2487-2.0968 2.603-3.0161 3.6477 19.123 19.889 45.291 33.85 73.464 33.42 20.094-0.30539 33.767-2.7369 46.586-8.3277 12.56-5.4778 24.345-14.007 40.568-26.55l1e-4 7e-5zm-4.2846-15.234-5.916 6.0573 44.966 0.0115-7.1135-6.0688h-31.936 1.6e-4zm-6.6073 7.0487v7.194h8.2189l3e-3 -1e-3c12.762 0 25.523 1e-3 38.282 1e-3v-7.1825l-46.504-0.0115h-1.9e-4zm-154.09 13.073 6.6868-7.628c-0.69338-0.56892-1.4892-1.0531-2.1794-1.6534l-4.4049 5.0543-0.10248 4.2271-2e-5 3e-5zm-9.2584-24.768-56.437-7.2244 65.169 26.979 4.2909-4.8724c-4.8985-4.3484-9.6485-9.2344-13.022-14.883l-2.4e-4 3e-5zm-58.066-6.8311v4.6318l66.358 28.052 0.0722-5.1809-66.43-27.503h-2.5e-4z" fill="#1f1a17" fill-rule="nonzero"/><path class="fil5" d="m353.11 363.2c0.22484-0.30747 0.45073-0.61389 0.67348-0.9224m-0.69963 0.95797c-9.7165 13.296-9.7656 13.318 0 0z" fill="#e7b400"/><path class="fil2" d="m279.29 281.24 36.475 21.332c-4.6726 1.6764-9.4728 4.0169-13.258 7.2923-12.025 10.412-10.22 26.112 4.568 47.135-6.8677-2.2777-12.741-4.6099-18.644-8.6425-12.254-8.3695-21.766-22.065-25.047-47.137 3.3131-7.5391 7.879-14.524 15.905-19.98l-3e-5 -9e-5z" fill="#fff"/><path class="fil3" d="m279.54 280.81 36.475 21.332 0.91403 0.53544-0.99768 0.35662c-2.3185 0.83141-4.6663 1.828-6.8939 3.0171-2.2254 1.188-4.3442 2.5727-6.2068 4.1821-5.8763 5.0909-8.2314 11.583-7.3101 19.372 0.93181 7.8749 4.9309 16.664 12.277 27.106l-1.1985 0.70069c-3.448-1.1441-5.8909-1.9305-9.1214-3.4177-3.2346-1.4882-6.3511-3.2022-9.3254-5.2332-6.1838-4.224-11.678-9.7949-16.039-17.471-4.3494-7.6552-7.5694-17.407-9.2176-30.011l0.0366-0.26144c1.6733-3.8077 3.6624-7.4753 6.2423-10.874 2.5894-3.4114 5.777-6.5602 9.8367-9.3191l0.25726-0.1736 0.27192 0.15896-4e-5 6e-5zm35.075 21.657-35.299-20.644c-3.8444 2.6521-6.8792 5.663-9.3515 8.9206-2.5089 3.3047-4.4446 6.8604-6.0719 10.547 1.6367 12.4 4.8054 21.99 9.0796 29.512 4.2784 7.5297 9.6694 12.995 15.738 17.141 2.9272 1.9985 5.9955 3.6854 9.181 5.1516 2.7462 1.2654 5.5887 2.3719 8.5065 3.3779-6.9148-10.073-10.946-19.023-11.86-26.75-0.96214-8.13 1.5018-14.912 7.6468-20.236 1.9243-1.6628 4.1026-3.0882 6.3888-4.3076 1.964-1.0489 4.0106-1.9441 6.0415-2.7118l9e-5 -5e-5z" fill="#1f1a17" fill-rule="nonzero"/><path class="fil6" d="m261.96 304.81 36.188 56.085m-95.98-58.555 35.574 65.05m-10.675-2.3604-27.535-60.222m-2.0006 2.4106 21.142 54.702m42.088-53.589 28.811 55.743m-30.164-50.392 22.227 52.308m21.159-89.683 33.137 41.063m-35.278-38.209 28.382 45.269m-25.506-15.357 16.942 39.504m-17.97-38.715 13.246 41.75m-14.013-41.061 9.7938 43.521" fill="none"/><path class="fil5" d="m197.84 340.47-0.20078 9.797-2.5162-1.781 0.0429-9.6631c0.82722 0.52813 1.8155 1.1211 2.6741 1.6471z" fill="#e7b400"/><path class="fil3" d="m198.34 340.48-0.20079 9.797-0.0188 0.936-0.76342-0.5407-2.5162-1.781-0.21021-0.14851 1e-3 -0.2583 0.0429-9.6631 4e-3 -0.92032 0.76654 0.51033 1e-3 1e-3 1e-3 -1e-3c0.68605 0.43716 1.3302 0.82935 1.9473 1.2058v-1e-3c0.25622 0.15481 0.50303 0.30539 0.70905 0.43192l0.24262 0.14957-6e-3 0.28236h2e-5zm-1.1734 8.8432 0.17569-8.5765c-0.15791-0.0962-0.3127-0.19349-0.46224-0.28343v-1e-3c-0.41204-0.25101-0.83351-0.50617-1.2184-0.74461l-0.0377 8.5128 1.5426 1.0928z" fill="#1f1a17" fill-rule="nonzero"/><path class="fil5" d="m197.54 307.22 0.21229 23.936c-1.0667-1.8741-2.1219-3.9458-2.7431-5.7801l4e-3 -13.534c0.62224-1.6074 1.4693-3.152 2.5266-4.6224z" fill="#e7b400"/><path class="fil3" d="m198.03 307.21 0.2123 23.936-0.92554 0.24786c-0.54068-0.95065-1.0782-1.9494-1.554-2.9334-0.48212-0.99667-0.91088-1.9943-1.2278-2.9314l-0.0272-0.15895 4e-3 -13.534 0.0366-0.18406 6e-3 -0.0157 2e-3 1e-3c0.0931-0.24156 0.18616-0.47268 0.27713-0.6829 0.10249-0.23844 0.20708-0.46748 0.30851-0.68081h1e-3c0.54592-1.1483 1.2121-2.2694 1.9902-3.3486l0.89625 0.28446zm-0.7969 21.967-0.17987-20.341c-0.37335 0.60866-0.71429 1.2288-1.0155 1.8626v2e-3c-0.10668 0.2238-0.20602 0.44134-0.29387 0.64525-0.0889 0.20392-0.16837 0.40263-0.24053 0.58669l-4e-3 13.353c0.29907 0.87429 0.70068 1.8071 1.1545 2.7442 0.1851 0.38274 0.38171 0.7676 0.57937 1.1472z" fill="#1f1a17" fill-rule="nonzero"/><polygon class="fil5" transform="matrix(33.141 0 0 33.141 31.292 -22.899)" points="5.0163 8.8375 5.0163 9.0631 4.9401 9.0035 4.9401 8.8375 4.9401 8.8375" fill="#e7b400"/><path class="fil3" d="m195.01 269.49h2.5266 0.49571v0.49571 7.4785 1.0155l-0.80003-0.62642-2.5266-1.9766-0.19138-0.14954v-0.23949-5.5019-0.49571h0.4957l-1e-5 -2e-5zm2.0309 0.99142h-1.5352v4.7667l1.5352 1.2016v-5.9684 3e-5z" fill="#1f1a17" fill-rule="nonzero"/><path class="fil5" d="m252.74 350.1 0.26666 18.316-5.5897-0.10668 0.31269-21.222c0-1e-3 1e-3 2e-3 3e-3 2e-3l8e-3 4e-3c3e-3 2e-3 6e-3 3e-3 9e-3 6e-3 1.6503 1.0354 3.2942 2.0393 4.9895 3.0004z" fill="#e7b400"/><path class="fil3" d="m253.51 368.41 8e-3 0.51245-0.5114-0.0105-5.5898-0.10669-0.49465-9e-3 6e-3 -0.49257 0.32523-22.011c2.0707 1.0333 3.9751 2.3792 5.9861 3.5191l0.26982 18.598h-1e-5zm-0.99875-0.49883-0.15791-17.944c-1.3606-0.77808-2.7693-1.5896-4.1005-2.4158l-0.32526 20.272 4.5837 0.0879z" fill="#1f1a17" fill-rule="nonzero"/><polygon class="fil5" transform="matrix(33.141 0 0 33.141 31.292 -22.899)" points="6.6396 8.3205 6.5664 8.2793 6.571 7.9741 6.6354 7.9769 6.6354 7.9769" fill="#e7b400"/><path class="fil3" d="m251.97 253.71-3.8935-2.1449 0.16106-10.891 3.5766 0.28864 0.15581 12.747 3e-5 1e-5zm-1.0134-1.7277-0.12237-10.025-1.6199-0.29595-0.13805 9.3389 1.8803 0.982z" fill="#1f1a17" fill-rule="nonzero"/><path class="fil5" d="m290.87 280.4c2.1846 1.2853 4.75-0.25308 2.6814-3.1708l-67.983-39.239c-2.649-1.3062-3.518 1.9054-2.6155 2.4357l67.917 39.975 8e-5 -2e-4z" fill="#e7b400"/><path class="fil3" d="m291.12 279.98c0.66827 0.39217 1.7883 0.6327 2.4032 2e-3 0.57938-0.5961 0.25726-2.0424-0.31478-2.3729l-67.886-39.183c-0.75089-0.36185-1.2968-0.28028-1.6482-9e-3 -0.14745 0.11295-0.26772 0.26354-0.35871 0.42564-0.0931 0.16733-0.15791 0.35139-0.18824 0.52708l-2e-3 2e-3c-0.0544 0.30642-0.0314 0.56996 0.0774 0.63376l67.917 39.975-1.2e-4 -6e-5zm1.9975 1.3031c-0.7425 0.17465-1.6502 0.046-2.4974-0.45178l-67.917-39.975c-0.48525-0.28446-0.67452-0.96108-0.55008-1.6565h-2e-3c0.0491-0.27923 0.15058-0.57205 0.30117-0.84082 0.1527-0.27086 0.35872-0.52499 0.61807-0.72473 0.62958-0.48525 1.5436-0.66199 2.717-0.0826l0.0293 0.0136 67.983 39.239c0.78226 0.48943 1.0981 1.8124 0.99143 2.6866-0.0586 0.47479-0.25936 0.87429-0.55846 1.1807-0.29282 0.29909-0.67872 0.50825-1.1148 0.61074l-8e-5 2e-4z" fill="#1f1a17" fill-rule="nonzero"/><polygon class="fil5" transform="matrix(33.141 0 0 33.141 31.292 -22.899)" points="8.0746 9.3977 8.1464 9.4397 8.1334 9.1103 8.0746 9.1098 8.0746 9.1098" fill="#e7b400"/><path class="fil3" d="m299.39 279.51v8.7585l1.3522 0.79167-0.37545-9.5408-0.97675-9e-3zm-0.99142 9.0409v-9.5418-0.49989l0.49989 4e-3 1.9494 0.0188 0.47375 5e-3 0.0178 0.4706 0.42981 10.915 0.0356 0.90356-0.78119-0.45805-2.3792-1.392-0.24576-0.14327v-0.28237-2e-5z" fill="#1f1a17" fill-rule="nonzero"/><path class="fil5" d="m298.89 354.12 0.15792 6.3427 4.1528-1.7935-0.17047-2.8717c-1.3982-0.52711-2.7787-1.0835-4.1403-1.6775h-2e-5z" fill="#e7b400"/><path class="fil3" d="m299.4 354.88 0.12133 4.8357 3.1583-1.3648-0.13073-2.2055c-0.60551-0.23006-1.2058-0.46642-1.7935-0.70381-0.44133-0.1778-0.89207-0.36395-1.3554-0.5616zm-0.85232 5.5929-0.15791-6.3427-0.0188-0.77493 0.71218 0.31059c0.64526 0.28133 1.3292 0.56893 2.0445 0.85756 0.69232 0.28026 1.3857 0.55112 2.0728 0.80945l0.30223 0.11397 0.0188 0.32002 0.17047 2.8717 0.0209 0.29075-0.32105 0.19347-4.1529 1.7935-0.67243 0.29071-0.0188-0.73413z" fill="#1f1a17" fill-rule="nonzero"/><path class="fil5" d="m298.89 313.74v28.769c1.1054 2.4314 2.4304 4.9476 3.9761 7.5527l-1.1274-39.507c-1.0803 1.0113-2.0246 2.0738-2.8487 3.1855h-2e-5z" fill="#e7b400"/><path class="fil3" d="m299.39 313.9v28.496c0.53649 1.1775 1.1252 2.3739 1.7642 3.587 0.36811 0.69964 0.75924 1.4108 1.165 2.1293l-1.0395-36.413c-0.23426 0.2405-0.46538 0.48316-0.68709 0.73205-0.43191 0.48418-0.8335 0.97782-1.2027 1.4683v1.4e-4zm-0.99142 28.601v-28.769l0.0983-0.29386c0.42564-0.57519 0.87951-1.1316 1.3554-1.666 0.47686-0.53443 0.99559-1.0657 1.554-1.5875l0.80212-0.74775 0.0303 1.096 1.1274 39.507-0.92133 0.26566c-0.7718-1.301-1.4944-2.5904-2.1648-3.8632-0.66826-1.2686-1.2822-2.5172-1.8364-3.7387l-0.045-0.20289v3e-5z" fill="#1f1a17" fill-rule="nonzero"/><path class="fil5" d="m299.65 273.55c1.3428 0 2.4398 1.095 2.4398 2.4388 0 1.3418-1.097 2.4388-2.4398 2.4388-1.3428 0-2.4378-1.097-2.4378-2.4388 0-1.3438 1.0949-2.4388 2.4378-2.4388z" fill="#e7b400"/><path class="fil4" d="m299.65 272.62c1.8542 0 3.3674 1.5122 3.3674 3.3685 0 1.8532-1.5133 3.3664-3.3674 3.3664-1.8552 0-3.3675-1.5133-3.3675-3.3664 0-1.8563 1.5122-3.3685 3.3675-3.3685zm-1e-3 0.92866c1.3428 0 2.4398 1.095 2.4398 2.4378s-1.097 2.4398-2.4398 2.4398c-1.3428 0-2.4377-1.097-2.4377-2.4398s1.095-2.4378 2.4377-2.4378z" fill="#1f1a17"/><path class="fil5" d="m250.22 236.2c1.3428 0 2.4398 1.095 2.4398 2.4388 0 1.3418-1.097 2.4388-2.4398 2.4388-1.3428 0-2.4377-1.097-2.4377-2.4388 0-1.3438 1.0949-2.4388 2.4377-2.4388z" fill="#e7b400"/><path class="fil4" d="m250.22 235.27c1.8542 0 3.3674 1.5122 3.3674 3.3685 0 1.8532-1.5133 3.3664-3.3674 3.3664-1.8552 0-3.3675-1.5133-3.3675-3.3664 0-1.8563 1.5122-3.3685 3.3675-3.3685zm-1e-3 0.92865c1.3428 0 2.4398 1.095 2.4398 2.4378s-1.097 2.4398-2.4398 2.4398c-1.3428 0-2.4377-1.097-2.4377-2.4398s1.095-2.4378 2.4377-2.4378z" fill="#1f1a17"/><path class="fil5" d="m196.28 264.82c1.3428 0 2.4398 1.095 2.4398 2.4388 0 1.3418-1.097 2.4388-2.4398 2.4388s-2.4378-1.097-2.4378-2.4388c0-1.3438 1.095-2.4388 2.4378-2.4388z" fill="#e7b400"/><path class="fil4" d="m196.28 263.89c1.8542 0 3.3674 1.5122 3.3674 3.3685 0 1.8531-1.5133 3.3664-3.3674 3.3664-1.8552 0-3.3674-1.5133-3.3674-3.3664 0-1.8563 1.5122-3.3685 3.3674-3.3685zm-1e-3 0.92867c1.3428 0 2.4398 1.0949 2.4398 2.4377 0 1.3428-1.097 2.4398-2.4398 2.4398-1.3428 0-2.4377-1.097-2.4377-2.4398 0-1.3428 1.095-2.4377 2.4377-2.4377z" fill="#1f1a17"/><path class="fil5" d="m292.43 277.05c0.98617 0 1.7914 0.80423 1.7914 1.7904s-0.80526 1.7914-1.7914 1.7914c-0.9862 0-1.7904-0.80526-1.7904-1.7914s0.8042-1.7904 1.7904-1.7904z" fill="#e7b400"/><path class="fil4" d="m292.44 276.36c1.3606 0 2.4722 1.1106 2.4722 2.4733 0 1.3606-1.1117 2.4723-2.4722 2.4723-1.3627 0-2.4733-1.1117-2.4733-2.4723 0-1.3627 1.1106-2.4733 2.4733-2.4733zm-1e-3 0.68186c0.98616 0 1.7914 0.80421 1.7914 1.7904s-0.80527 1.7914-1.7914 1.7914c-0.9862 0-1.7904-0.80527-1.7904-1.7914s0.80422-1.7904 1.7904-1.7904z" fill="#1f1a17"/><path class="fil2" d="m225.26 241.81 60.311 35.456c-27.073 13.676-47.606 64.237 8.2649 84.867-56.894-3.4072-116.45-67.855-68.576-120.32h2e-5z" fill="#fff"/><path class="fil3" d="m225.51 241.38 60.311 35.455 0.7833 0.46015-0.8105 0.4089c-10.245 5.1746-19.548 15.695-24.039 27.857-1.8678 5.0616-2.9031 10.411-2.8216 15.774 0.0805 5.3524 1.2748 10.724 3.86 15.839 4.8598 9.6223 14.984 18.542 31.548 24.659l-0.53545 0.79375c-21.732-1.301-43.851-11.462-60.278-26.452-8.2963-7.5694-15.146-16.377-19.766-25.897-4.6276-9.5376-7.0204-19.794-6.3961-30.247 0.77179-12.884 6.1273-26.063 17.526-38.556l0.27086-0.29596 0.34617 0.20288-4e-5 1.7e-4zm59.042 35.857-59.193-34.799c-11.047 12.221-16.247 25.082-16.999 37.65-0.61493 10.28 1.7412 20.371 6.2957 29.758 4.5628 9.4038 11.335 18.108 19.54 25.594 15.418 14.07 35.897 23.845 56.306 25.922-14.922-6.1336-23.944-14.542-28.592-23.743-2.6574-5.2593-3.8851-10.777-3.9688-16.272-0.0826-5.4842 0.97467-10.953 2.8843-16.127 4.4593-12.077 13.589-22.568 23.728-27.983l1e-4 -2.6e-4z" fill="#1f1a17" fill-rule="nonzero"/><path class="fil5" d="m174.51 264.67 42.176 33.313c2.2004 0.73415 4.3066 0.63689 3.5076-2.7902l-42.22-33.002c-2.5319-1.8008-5.1474 0.96424-3.4637 2.4796l1.5e-4 8e-5z" fill="#e7b400"/><path class="fil3" d="m174.83 264.29 42.103 33.255c0.76866 0.40264 2.2484 0.74043 2.8477-0.37544l2e-3 -2e-3c0.1255-0.37648 0.20916-1.0824-0.0303-1.6942l-42.066-32.882c-0.82828-0.58774-1.6565-0.59506-2.2652-0.31061-0.23008 0.10772-0.43611 0.2625-0.5961 0.44238l-1e-3 -1e-3c-0.14954 0.16942-0.25935 0.3608-0.31268 0.55532-0.092 0.33674-7e-3 0.708 0.31897 1.0123l1.4e-4 -9e-5zm41.55 34.082-42.176-33.313-0.024-0.0209c-0.65468-0.58983-0.81363-1.3323-0.62539-2.0205 0.0941-0.34406 0.27817-0.67349 0.52918-0.95585v-2e-3c0.24158-0.26982 0.55636-0.50512 0.9182-0.67454 0.89834-0.41832 2.0947-0.42669 3.2597 0.40263l0.0178 0.0136 42.22 33.002c0.4455 0.69441 0.47793 1.8992 0.22066 2.6751h1e-3c-0.2217 0.67349-0.75192 1.1347-1.4369 1.2936-0.84709 0.19556-2.1439 1e-3 -2.9042-0.40054l-1.5e-4 -7e-5z" fill="#1f1a17" fill-rule="nonzero"/><path class="fil2" d="m176.18 265.99c-28.547 26.56-18.663 56.045 42.483 85.339-26.622-17.723-31.458-36.739-16.492-48.988 3.105-2.5402 7.0507-4.7322 11.808-6.4714l-37.799-29.879v1.4e-4z" fill="#fff"/><path class="fil3" d="m176.21 266.64c-5.3137 4.9957-9.2574 10.093-11.736 15.266-2.9816 6.2246-3.8464 12.567-2.4409 18.986 1.4097 6.4442 4.9455 13.217 11.081 19.812 8.5149 9.1517 21.883 18.172 40.171 27.421-5.0721-3.8224-9.1622-7.6834-12.284-11.497-4.2752-5.2227-6.7527-10.379-7.4774-15.265-0.73101-4.9215 0.3127-9.5627 3.0778-13.716 1.348-2.0257 3.1039-3.9332 5.2562-5.6944l0.0115-9e-3c0.42982-0.35139 0.88891-0.70487 1.3742-1.0604v-2e-3c0.46015-0.3357 0.95272-0.67559 1.4735-1.0165h2e-3c2.3917-1.5614 5.1558-2.9533 8.2702-4.1497l-36.779-29.074-1.1e-4 -3e-5zm-12.631 14.84c2.58-5.3848 6.6993-10.679 12.265-15.856l0.31268-0.28969 0.33151 0.2625 37.799 29.879 0.69439 0.54904-0.83348 0.30433c-3.381 1.2361-6.3501 2.7034-8.8903 4.362l1e-3 1e-3c-0.47688 0.3127-0.95587 0.64421-1.4296 0.98933l-1e-3 -1e-3c-0.4476 0.32733-0.89205 0.6714-1.3313 1.0301l-0.0115 9e-3c-2.0801 1.7026-3.7711 3.5358-5.0596 5.4726-2.626 3.9448-3.6174 8.3528-2.923 13.025 0.69859 4.7061 3.106 9.6997 7.2662 14.782 4.0524 4.9518 9.7614 9.9821 17.168 14.912l-0.38381 0.66199c-21.329-10.218-36.604-20.014-46.051-30.168-6.2622-6.7297-9.9905-13.686-11.438-20.304-1.4547-6.6418-0.56265-13.198 2.5141-19.622l6e-5 -2e-5z" fill="#1f1a17" fill-rule="nonzero"/><path class="fil5" d="m218.49 294.67c1.0981 0 1.9933 0.8952 1.9933 1.9933 0 1.097-0.8952 1.9922-1.9933 1.9922-1.097 0-1.9922-0.89521-1.9922-1.9922 0-1.0981 0.89521-1.9933 1.9922-1.9933z" fill="#e7b400"/><path class="fil4" d="m218.49 293.91c1.5154 0 2.7515 1.2361 2.7515 2.7525 0 1.5143-1.2361 2.7504-2.7515 2.7504-1.5164 0-2.7515-1.2361-2.7515-2.7504 0-1.5164 1.2351-2.7525 2.7515-2.7525zm-1e-3 0.75924c1.097 0 1.9933 0.89415 1.9933 1.9912s-0.89626 1.9933-1.9933 1.9933c-1.097 0-1.9912-0.89624-1.9912-1.9933s0.89414-1.9912 1.9912-1.9912z" fill="#1f1a17"/><path class="fil3" d="m262.13 304.17 36.434 56.455-0.83245 0.53545-36.434-56.455 0.83244-0.53545zm-59.528-2.0686 35.574 65.05-0.86801 0.47269-35.574-65.05 0.86801-0.47269zm24.015 63.132-27.535-60.222 0.8994-0.40994 27.535 60.222-0.89938 0.40994zm-28.624-58.194 21.142 54.702-0.92239 0.35557-21.142-54.702 0.92239-0.35557zm62.838 0.46851 29.181 56.339-0.87846 0.45386-29.096-56.085 0.79375-0.708v-6e-5zm-1.2602 5.39 22.52 52.899-0.90982 0.38695-22.351-52.617 0.74042-0.66931zm42.738-35.557 34.007 39.72-0.76971 0.6191-33.634-39.16 0.39636-1.1797-1.5e-4 -1.9e-4zm-0.78644 1.3125 27.933 45.514-0.84081 0.52707-27.933-45.514 0.84082-0.52707zm2.4618 30.227 16.942 39.504-0.90984 0.38694-16.942-39.504 0.90984-0.38696zm-1.0102 0.83246 13.246 41.75-0.9454 0.29909-12.932-40.761 9.6684 42.962-0.96423 0.21754-9.7938-43.521 0.91612-0.2071-0.14013-0.44129 0.9454-0.2991v3e-5z" fill="#1f1a17" fill-rule="nonzero"/><path class="fil5" d="m279.29 281.24 36.475 21.331 3.9311 2.5204c1.7067 0.16942 2.6751-0.32629 2.0226-2.2872l-3.5944-2.3646c-16.112-10.076-33.521-20.64-34.996-21.457l-3.8391 2.2568 9e-5 1e-5z" fill="#e7b400"/><path class="fil3" d="m280.26 281.24 35.749 20.906 0.0178 9e-3 3.8328 2.4576c0.65571 0.0533 1.1493-4e-3 1.3899-0.22799 0.20916-0.19347 0.24681-0.59087 0.0471-1.2602l-3.4512-2.2704 1e-3 -1e-3 -0.11293-0.0701c-1e-3 0-2e-3 -2e-3 -2e-3 -2e-3 -2.444-1.529-4.7061-2.9356-6.7872-4.2271-2.2558-1.3993-4.4917-2.7818-6.6554-4.1152-10.496-6.4682-19.347-11.831-21.164-12.884l-2.8655 1.6848-3e-5 -1e-5zm35.232 21.747-36.457-21.321-0.72578-0.42354 0.72578-0.42773 3.8391-2.2568 0.24367-0.14222 0.24683 0.13595c1.0573 0.58565 10.332 6.1984 21.444 13.046 2.1638 1.3334 4.3996 2.7159 6.6554 4.1152 2.4294 1.507 4.7312 2.9397 6.7935 4.2292l2e-3 2e-3 0.12339 0.0774 9e-3 4e-3 3.5944 2.3645 0.19766 0.25936c0.39532 1.1891 0.25935 1.9744-0.26041 2.4586-0.49151 0.45702-1.2916 0.57205-2.2809 0.47479l-0.21963-0.0753-3.9311-2.5204v-1e-3l-7e-5 2e-5z" fill="#1f1a17" fill-rule="nonzero"/><path class="fil5" d="m320.68 302.48c0.80631 0 1.4631 0.65676 1.4631 1.4631 0 0.80526-0.65676 1.462-1.4631 1.462-0.80526 0-1.462-0.65676-1.462-1.462 0-0.80631 0.65677-1.4631 1.462-1.4631z" fill="#e7b400"/><path class="fil4" d="m320.69 301.92c1.1117 0 2.0194 0.9067 2.0194 2.0205 0 1.1106-0.90774 2.0184-2.0194 2.0184-1.1127 0-2.0194-0.90775-2.0194-2.0184 0-1.1138 0.90671-2.0205 2.0194-2.0205zm-1e-3 0.55741c0.80526 0 1.4631 0.65571 1.4631 1.461s-0.65781 1.4631-1.4631 1.4631c-0.80527 0-1.461-0.65781-1.461-1.4631s0.65571-1.461 1.461-1.461z" fill="#1f1a17"/><path class="fil1" d="m174.6 443.61c25.236 11.48 53.801 25.893 75.365 56.392 15.625-22.021 37.217-39.896 74.88-56.26-17.553 21.212 28.951-42.664-28.465-30.142-6.737 1.3282-13.263 3.381-19.067-1.5468-7.3927-6.2758-16.246-10.827-26.182-10.853-1.006-1e-3 -2.1376 0.0419-3.13 0.12132-10.003 0.80735-16.649 4.7835-24.266 10.732-5.5375 4.3254-13.306 5.0878-19.784 2.4011-46.989-31.561-41.348 38.703-29.35 29.155z" fill="#c3010d"/></svg>
