<?xml version="1.0" encoding="UTF-8"?>
<svg version="1.1" viewBox="0 0 900 600" xmlns="http://www.w3.org/2000/svg" xmlns:xlink="http://www.w3.org/1999/xlink">
<rect width="900" height="600" fill="#fff"/>
<defs>
<g id="h">
<path id="a" d="m60 60 30-60 30 60h-60z"/>
<use transform="translate(120)" xlink:href="#a"/>
<use transform="translate(240)" xlink:href="#a"/>
<use transform="translate(360)" xlink:href="#a"/>
<use transform="translate(480)" xlink:href="#a"/>
<use transform="translate(600)" xlink:href="#a"/>
<use transform="translate(720)" xlink:href="#a"/>
<path id="d" d="m840 60 60 30-60 30v-60z"/>
<use transform="translate(0,120)" xlink:href="#d"/>
<use transform="translate(0,240)" xlink:href="#d"/>
<use transform="translate(0,360)" xlink:href="#d"/>
</g>
<g id="g">
<path id="b" d="m120 60 30-60 30 60h-60z"/>
<use transform="translate(120)" xlink:href="#b"/>
<use transform="translate(240)" xlink:href="#b"/>
<use transform="translate(360)" xlink:href="#b"/>
<use transform="translate(480)" xlink:href="#b"/>
<use transform="translate(600)" xlink:href="#b"/>
<path id="c" d="m840 120 60 30-60 30v-60z"/>
<use transform="translate(0,120)" xlink:href="#c"/>
<use transform="translate(0,240)" xlink:href="#c"/>
<use transform="translate(0,360)" xlink:href="#c"/>
</g>
</defs>
<use fill="#fd0" xlink:href="#h"/>
<use fill="#06b" xlink:href="#g"/>
<use transform="rotate(180 450,300)" fill="#c34" xlink:href="#h"/>
<use transform="rotate(180 450,300)" fill="#475" xlink:href="#g"/>
<g fill="#0a609b" stroke="#000" stroke-width="1.5px">
<path id="r" d="m303 358c9.5 25.6 67.7 18.1 70 43l-10 30c-15.5-22-53.3-9.9-67-39 9.5 5.6 18.8 3.6 28 1-11-8.9-21.2-17-21-35z"/>
<use transform="scale(-1 1) translate(-900)" xlink:href="#r"/>
<path id="s" d="m373 401c-3.6-0.2-7.3-0.3-9 3-1.2 2.4 1.8 6.3 5 9l4-12z" fill="#ffc914" stroke-linejoin="round"/>
<use transform="scale(-1 1) translate(-900)" xlink:href="#s"/>
<path d="m364 404c-1.2 2.4 1.8 6.3 5 9 24.4 18.7 51.3 24 81 24s56.6-5.3 81-24c3.2-2.7 6.2-6.6 5-9l14 27c1.2 2.6 1.7 5.8 0 8-26.1 29.8-63.8 37-100 37s-73.9-7.2-100-37c-1.7-2.2-1.2-5.4 0-8z"/>
</g>
<g fill="#ffc914">
<path d="m532.85 419.89-4.62 3.04 0.16 0.24 0.29-0.19c0.25-0.16 0.47-0.25 0.68-0.26 0.2-0.01 0.37 0.02 0.49 0.1s0.33 0.35 0.63 0.8l1.65 2.51-3.12 2.06-1.65-2.51c-0.29-0.44-0.45-0.73-0.47-0.87-0.03-0.19-0.01-0.35 0.06-0.49 0.1-0.19 0.27-0.38 0.53-0.54l0.29-0.19-0.16-0.24-4.62 3.04 0.16 0.24 0.29-0.19c0.25-0.16 0.47-0.25 0.67-0.26s0.37 0.02 0.49 0.1 0.33 0.35 0.63 0.8l3.83 5.82c0.29 0.44 0.45 0.73 0.47 0.87 0.04 0.19 0.02 0.35-0.05 0.49-0.1 0.19-0.27 0.38-0.53 0.54l-0.29 0.19 0.16 0.24 4.62-3.04-0.16-0.24-0.29 0.19c-0.25 0.16-0.47 0.25-0.68 0.27-0.2 0.01-0.37-0.03-0.49-0.11s-0.33-0.35-0.63-0.8l-1.8-2.74 3.12-2.06 1.8 2.74c0.29 0.44 0.45 0.73 0.47 0.87 0.03 0.19 0.01 0.35-0.06 0.49-0.09 0.19-0.27 0.37-0.53 0.54l-0.29 0.19 0.16 0.24 4.62-3.04-0.16-0.24-0.29 0.19c-0.25 0.16-0.47 0.25-0.68 0.27-0.21 0.01-0.37-0.03-0.49-0.11s-0.33-0.35-0.63-0.8l-3.83-5.82c-0.29-0.44-0.45-0.73-0.47-0.87-0.03-0.19-0.01-0.35 0.06-0.49 0.09-0.19 0.27-0.38 0.53-0.55l0.29-0.19zm-165.3 0.38-0.16 0.24c0.54 0.36 0.85 0.66 0.9 0.91 0.06 0.25-0.08 0.63-0.41 1.13l-4 6.05c-0.3 0.46-0.58 0.71-0.83 0.74-0.24 0.03-0.64-0.13-1.19-0.48l-0.16 0.24 4.74 3.13c0.84 0.55 1.53 0.89 2.09 0.99 0.56 0.11 1.1 0.08 1.63-0.1 0.53-0.17 0.97-0.51 1.3-1.01 0.49-0.74 0.59-1.52 0.32-2.34-0.28-0.82-1.04-1.65-2.3-2.48l-1.17-0.77 2.27-3.44 1.62 1.07c0.56 0.37 0.93 0.69 1.13 0.98 0.2 0.28 0.3 0.63 0.31 1.04s-0.09 0.86-0.3 1.36l0.25 0.16 1.58-2.4zm8.14 5.39-0.14 0.25 0.31 0.17c0.3 0.16 0.5 0.36 0.61 0.58 0.08 0.15 0.09 0.32 0.05 0.51-0.03 0.11-0.16 0.37-0.39 0.79l-3.34 6.12c-0.25 0.47-0.44 0.74-0.55 0.82-0.15 0.12-0.3 0.18-0.45 0.18-0.22 0.01-0.46-0.06-0.73-0.21l-0.31-0.17-0.14 0.25 8.04 4.39 2.03-2.73-0.25-0.14c-0.68 0.7-1.39 1.11-2.13 1.22-0.74 0.12-1.55-0.06-2.41-0.54l-0.55-0.3c-0.27-0.14-0.44-0.29-0.52-0.43s-0.11-0.28-0.09-0.42 0.17-0.46 0.45-0.97l1.43-2.62c0.44 0.24 0.75 0.49 0.92 0.73s0.25 0.58 0.24 1.01c-0.01 0.44-0.13 0.93-0.36 1.49l0.26 0.14 2.66-4.87-0.26-0.14c-0.47 0.68-0.94 1.14-1.4 1.36-0.47 0.23-0.99 0.18-1.58-0.14l-0.19-0.1 2.07-3.79 0.96 0.52c0.7 0.38 1.16 0.69 1.37 0.91 0.36 0.38 0.59 0.78 0.66 1.2 0.08 0.42 0.01 1.01-0.23 1.75l0.26 0.14 1.5-2.75zm-7.76 1.45c0.53 0.35 0.91 0.66 1.14 0.94s0.35 0.67 0.37 1.16c0.01 0.49-0.14 0.98-0.47 1.48-0.34 0.51-0.75 0.85-1.24 1.03-0.48 0.17-0.98 0.09-1.49-0.24-0.32-0.21-0.48-0.44-0.48-0.68-0-0.25 0.14-0.59 0.41-1.01zm152.76 0.89c-0.9 0.03-1.8 0.3-2.72 0.83-1.41 0.67-2.35 1.72-2.81 3.15-0.46 1.42-0.32 2.83 0.41 4.22 0.65 1.24 1.58 2.12 2.78 2.64 1.52 0.66 3.13 0.54 4.81-0.34 1.68-0.89 2.67-2.17 2.96-3.85 0.22-1.27 0.02-2.5-0.61-3.69-0.73-1.39-1.81-2.3-3.23-2.74-0.53-0.16-1.07-0.24-1.61-0.22zm-1.34 0.94c0.12-0 0.24 0 0.36 0.02 0.49 0.06 1.02 0.34 1.57 0.84 0.55 0.49 1.16 1.36 1.81 2.6 0.55 1.04 0.88 1.95 1 2.72 0.11 0.76 0.05 1.4-0.21 1.91-0.2 0.4-0.53 0.72-1.01 0.97-0.71 0.37-1.39 0.39-2.07 0.06-0.96-0.47-1.87-1.5-2.71-3.1-0.71-1.35-1.07-2.47-1.08-3.38-0.01-1.11 0.41-1.89 1.26-2.34 0.35-0.18 0.71-0.28 1.07-0.29zm-10.47 0.92c-0.1 0-0.2 0.02-0.3 0.07-0.38 0.15-0.58 0.52-0.61 1.09-0.02 0.36-0.09 0.63-0.22 0.81-0.12 0.18-0.36 0.34-0.72 0.49-0.3 0.13-0.57 0.17-0.79 0.13s-0.44-0.17-0.67-0.4c-0.42-0.42-0.82-0.55-1.21-0.39-0.2 0.08-0.35 0.22-0.43 0.41-0.09 0.19-0.09 0.38-0.01 0.58 0.16 0.39 0.51 0.62 1.07 0.7 0.55 0.08 1.32-0.09 2.3-0.49 0.99-0.41 1.66-0.83 2.01-1.27s0.45-0.85 0.3-1.22c-0.09-0.23-0.24-0.37-0.44-0.45-0.1-0.04-0.19-0.05-0.29-0.05zm-124.45 0.55-0.12 0.26c0.44 0.2 0.72 0.37 0.85 0.53 0.13 0.15 0.19 0.31 0.19 0.48 0.01 0.16-0.11 0.5-0.34 1.03l-2.81 6.27c-0.23 0.52-0.42 0.84-0.54 0.94-0.12 0.11-0.28 0.16-0.48 0.18-0.19 0.01-0.51-0.08-0.96-0.29l-0.12 0.26 4.91 2.21 0.12-0.26c-0.44-0.2-0.72-0.37-0.85-0.53-0.13-0.15-0.19-0.31-0.2-0.47 1e-4 -0.17 0.12-0.51 0.35-1.03l1.2-2.68c1.1 0.49 1.9 0.79 2.41 0.88 0.76 0.15 1.43 0.08 2.02-0.19s1.03-0.72 1.31-1.35c0.33-0.74 0.31-1.49-0.07-2.26s-1.26-1.46-2.65-2.08zm128.81 1.09-5.25 2.17 0.11 0.27 0.33-0.13c0.49-0.2 0.84-0.24 1.03-0.1 0.2 0.13 0.41 0.46 0.63 0.99l-1.22 6.84-2.21-5.37c-0.23-0.55-0.31-0.95-0.24-1.2s0.33-0.47 0.77-0.66l0.34-0.14-0.11-0.27-5.25 2.16 0.11 0.27 0.32-0.13c0.52-0.21 0.87-0.25 1.05-0.13 0.19 0.13 0.4 0.48 0.64 1.07l2.66 6.44c0.24 0.58 0.33 1 0.26 1.24s-0.34 0.45-0.79 0.64l-0.33 0.13 0.11 0.27 5.25-2.17-0.11-0.27-0.34 0.14c-0.51 0.21-0.87 0.24-1.06 0.08-0.2-0.16-0.4-0.47-0.59-0.94l1.22-6.84 2.19 5.32c0.24 0.58 0.33 1 0.26 1.24s-0.33 0.45-0.79 0.64l-0.33 0.13 0.11 0.27 5.25-2.16-0.11-0.27-0.34 0.14c-0.45 0.18-0.78 0.22-1 0.12-0.22-0.11-0.45-0.47-0.7-1.07l-2.66-6.44c-0.24-0.59-0.33-1-0.25-1.23s0.34-0.44 0.79-0.63l0.34-0.14zm-125.49 1.07 0.29 0.13c0.62 0.28 1.02 0.66 1.18 1.13s0.09 1.07-0.24 1.79c-0.32 0.72-0.72 1.19-1.19 1.39s-0.99 0.17-1.57-0.09c-0.08-0.04-0.2-0.09-0.35-0.17zm4.8 1.51-0.1 0.27 0.33 0.12c0.32 0.12 0.55 0.28 0.69 0.48 0.1 0.14 0.14 0.31 0.13 0.49-0.01 0.11-0.1 0.39-0.26 0.84l-2.38 6.55c-0.18 0.5-0.32 0.8-0.42 0.9-0.13 0.14-0.27 0.22-0.42 0.25-0.21 0.04-0.47 0.01-0.75-0.1l-0.33-0.12-0.1 0.27 8.61 3.12 1.6-3-0.27-0.1c-0.56 0.79-1.21 1.3-1.93 1.53-0.71 0.23-1.54 0.18-2.47-0.16l-0.6-0.22c-0.28-0.1-0.48-0.22-0.57-0.34-0.1-0.12-0.15-0.26-0.15-0.4 3.2e-4 -0.14 0.1-0.48 0.3-1.03l1.02-2.81c0.47 0.17 0.82 0.37 1.02 0.59 0.21 0.21 0.33 0.54 0.39 0.96 0.06 0.43 0.02 0.94-0.13 1.53l0.28 0.1 1.89-5.21-0.28-0.1c-0.36 0.75-0.75 1.26-1.18 1.56-0.43 0.29-0.96 0.32-1.59 0.1l-0.2-0.07 1.47-4.05 1.03 0.37c0.75 0.27 1.25 0.5 1.49 0.69 0.42 0.32 0.69 0.68 0.84 1.08 0.15 0.41 0.16 1 0.04 1.77l0.28 0.1 1.07-2.95zm104.76 3.25-0.14 0.04-1.06 9.2c-0.1 0.88-0.23 1.48-0.38 1.8-0.16 0.32-0.41 0.56-0.75 0.73l0.09 0.28 3.36-1.06-0.09-0.28c-0.54 0.13-0.89 0.17-1.05 0.13-0.27-0.06-0.45-0.23-0.54-0.52-0.07-0.21-0.08-0.51-0.05-0.88l0.11-1.12 3.57-1.13 0.93 1.09c0.24 0.28 0.38 0.45 0.4 0.49 0.06 0.08 0.1 0.17 0.13 0.26 0.05 0.15 0.03 0.28-0.06 0.39-0.12 0.16-0.38 0.3-0.78 0.42l-0.2 0.06 0.09 0.28 4.89-1.54-0.09-0.28c-0.32 0.07-0.58 0.06-0.8-0.04-0.29-0.13-0.73-0.54-1.33-1.21zm-95.42 0.13-0.08 0.28 0.32 0.09c0.47 0.13 0.74 0.32 0.82 0.55s0.06 0.57-0.07 1.04l-1.99 7.04c-0.16 0.55-0.34 0.89-0.55 1.01s-0.53 0.12-0.97-0.01l-0.29-0.08-0.08 0.28 5.31 1.51 0.08-0.28-0.26-0.07c-0.45-0.13-0.73-0.29-0.86-0.5-0.12-0.21-0.1-0.6 0.06-1.17l2.24-7.92 2.08 0.59c0.8 0.23 1.33 0.42 1.57 0.58 0.25 0.16 0.42 0.4 0.53 0.73s0.13 0.86 0.06 1.58l0.28 0.08 0.78-2.77zm75.59 1.57c-0.4 0.06-0.68 0.37-0.85 0.91-0.1 0.34-0.24 0.59-0.4 0.73-0.16 0.15-0.43 0.25-0.81 0.31-0.32 0.05-0.59 0.03-0.8-0.06-0.2-0.09-0.39-0.27-0.56-0.55-0.31-0.51-0.67-0.73-1.08-0.66-0.22 0.03-0.39 0.13-0.52 0.29s-0.18 0.35-0.14 0.56c0.06 0.41 0.36 0.72 0.87 0.93 0.52 0.2 1.3 0.22 2.36 0.06s1.81-0.42 2.25-0.76c0.45-0.34 0.64-0.72 0.58-1.12-0.04-0.24-0.14-0.42-0.32-0.54-0.17-0.12-0.37-0.16-0.58-0.12zm14.21 0.42c-0.56-8.4e-4 -1.21 0.09-1.95 0.27l-4.48 1.11 0.07 0.28c0.47-0.12 0.8-0.15 1-0.11 0.19 0.04 0.34 0.13 0.44 0.26 0.11 0.12 0.23 0.46 0.37 1.02l1.65 6.68c0.14 0.56 0.19 0.91 0.15 1.07-0.03 0.16-0.12 0.3-0.27 0.44-0.15 0.13-0.46 0.25-0.93 0.37l0.07 0.28 5.23-1.29-0.07-0.28c-0.47 0.11-0.8 0.15-1 0.11-0.19-0.04-0.34-0.13-0.45-0.25-0.1-0.13-0.22-0.47-0.36-1.03l-0.7-2.85c1.17-0.29 1.98-0.55 2.44-0.79 0.69-0.35 1.18-0.82 1.47-1.39 0.3-0.58 0.36-1.2 0.2-1.87-0.19-0.79-0.68-1.37-1.45-1.73-0.39-0.18-0.86-0.28-1.42-0.28zm-80.53 0.57-0.06 0.28 0.34 0.08c0.29 0.07 0.51 0.17 0.65 0.31 0.15 0.14 0.24 0.28 0.27 0.42s-0.02 0.48-0.14 1.01l-1.54 6.8c-0.12 0.52-0.22 0.83-0.3 0.94-0.11 0.16-0.24 0.26-0.39 0.3-0.21 0.07-0.46 0.06-0.76-0l-0.34-0.08-0.06 0.28 5.4 1.22 0.06-0.28-0.34-0.08c-0.29-0.07-0.51-0.17-0.66-0.3-0.14-0.14-0.23-0.28-0.26-0.43-0.03-0.14 0.02-0.48 0.14-1.01l1.54-6.8c0.12-0.52 0.22-0.83 0.3-0.94 0.12-0.16 0.25-0.25 0.4-0.29 0.21-0.07 0.46-0.06 0.76 0l0.34 0.08 0.06-0.28zm78.82 0.3c0.45-0.04 0.84 0.04 1.15 0.24 0.42 0.27 0.72 0.79 0.91 1.55 0.19 0.77 0.16 1.38-0.08 1.83s-0.67 0.75-1.29 0.9c-0.09 0.02-0.22 0.05-0.38 0.08l-1.1-4.45 0.31-0.08c0.17-0.04 0.32-0.07 0.47-0.08zm7.36 0.74 2.61 3-3.05 0.96zm-80.66 0.27-0.05 0.29c0.48 0.08 0.8 0.18 0.96 0.3s0.26 0.26 0.3 0.42c0.05 0.16 0.02 0.52-0.07 1.08l-1.16 6.78c-0.1 0.56-0.19 0.91-0.29 1.04-0.09 0.13-0.23 0.23-0.42 0.29-0.18 0.06-0.52 0.05-1-0.04l-0.05 0.29 5.3 0.91c1.48 0.25 2.66 0.14 3.54-0.35 0.72-0.41 1.15-1 1.28-1.79 0.13-0.74-0.06-1.4-0.55-1.96-0.34-0.4-0.99-0.8-1.94-1.2 0.96-0.07 1.65-0.27 2.09-0.6 0.43-0.33 0.69-0.75 0.78-1.25 0.08-0.48 0.01-0.95-0.2-1.42-0.21-0.48-0.55-0.86-1.01-1.16s-1.29-0.55-2.49-0.76zm64.96 0.32-5.61 0.87 0.04 0.29 0.35-0.05c0.52-0.08 0.87-0.03 1.03 0.15 0.16 0.17 0.29 0.54 0.38 1.11l-2.79 6.36-0.89-5.74c-0.09-0.59-0.07-1 0.05-1.23 0.13-0.23 0.43-0.38 0.9-0.46l0.36-0.06-0.04-0.29-5.38 0.83-5.61 0.46 0.02 0.29 0.35-0.03c0.53-0.04 0.87 0.03 1.01 0.22 0.15 0.19 0.25 0.56 0.3 1.13l-3.24 6.15-0.47-5.79c-0.05-0.6 2e-4 -1 0.14-1.22 0.14-0.22 0.45-0.35 0.93-0.39l0.37-0.03-0.02-0.29-5.66 0.46 0.02 0.29 0.35-0.03c0.56-0.05 0.9 0.02 1.04 0.2s0.24 0.58 0.29 1.21l0.57 6.95c0.05 0.63 0.01 1.05-0.13 1.26-0.14 0.2-0.46 0.33-0.95 0.37l-0.35 0.03 0.02 0.29 5.66-0.46-0.02-0.29-0.37 0.03c-0.55 0.05-0.9-0.04-1.04-0.24-0.14-0.21-0.24-0.57-0.28-1.08l3.24-6.14 0.47 5.73c0.05 0.63 0.01 1.05-0.13 1.26-0.13 0.2-0.45 0.33-0.94 0.37l-0.35 0.03 0.02 0.29 5.66-0.46-0.03-0.29-0.37 0.03c-0.48 0.04-0.81-0.02-0.99-0.19s-0.29-0.59-0.34-1.23l-0.57-6.95c-0.05-0.63-0.01-1.05 0.13-1.25 0.15-0.2 0.46-0.32 0.95-0.36l0.1-0.01v0.02l0.23-0.04h0.04l0.08-0.01c0.55-0.09 0.9-0.04 1.05 0.12 0.15 0.17 0.28 0.56 0.38 1.19l1.07 6.89c0.1 0.62 0.08 1.04-0.04 1.26-0.12 0.21-0.43 0.36-0.92 0.44l-0.35 0.05 0.04 0.29 5.61-0.87-0.04-0.29-0.36 0.06c-0.55 0.08-0.9 0.03-1.05-0.17-0.16-0.2-0.28-0.55-0.35-1.05l2.79-6.36 0.88 5.68c0.1 0.62 0.08 1.04-0.04 1.26-0.12 0.21-0.43 0.36-0.91 0.43l-0.35 0.05 0.04 0.29 5.61-0.87-0.04-0.29-0.36 0.05c-0.48 0.07-0.81 0.03-1-0.12-0.19-0.16-0.33-0.56-0.43-1.21l-1.07-6.89c-0.1-0.63-0.08-1.05 0.04-1.26 0.13-0.21 0.44-0.35 0.92-0.43l0.36-0.06zm-61.18 0.93c0.75 0.12 1.28 0.29 1.6 0.5 0.31 0.21 0.53 0.48 0.66 0.81 0.13 0.32 0.16 0.72 0.08 1.18s-0.24 0.83-0.47 1.09c-0.24 0.27-0.54 0.45-0.92 0.56-0.37 0.11-0.92 0.1-1.65-0.03zm11.41 0.81c-0.74 0.02-1.47 0.18-2.18 0.48-0.94 0.4-1.73 1.03-2.35 1.88s-0.98 1.77-1.08 2.78c-0.1 0.95 0.04 1.88 0.43 2.77s0.99 1.61 1.82 2.15 1.8 0.87 2.93 0.99c0.85 0.09 1.62 0.03 2.28-0.18 0.67-0.21 1.34-0.6 1.99-1.15l0.1-0.91c-0.69 0.65-1.32 1.08-1.91 1.32-0.58 0.23-1.2 0.32-1.86 0.25-0.81-0.08-1.45-0.35-1.91-0.8-0.47-0.45-0.78-1.08-0.94-1.87-0.16-0.8-0.19-1.67-0.09-2.62 0.1-0.96 0.36-1.81 0.76-2.56 0.32-0.58 0.77-1.04 1.36-1.36s1.21-0.45 1.87-0.38c0.79 0.08 1.46 0.41 2.03 0.98s0.92 1.35 1.05 2.32l0.3 0.03 0.38-3.65-0.3-0.03c-0.06 0.26-0.16 0.45-0.3 0.56-0.13 0.11-0.28 0.15-0.45 0.13-0.13-0.01-0.42-0.14-0.88-0.38-0.79-0.41-1.56-0.65-2.3-0.73-0.25-0.03-0.5-0.04-0.75-0.03zm5.53 0.75-0.01 0.29c0.66 0.04 1.06 0.15 1.21 0.32s0.21 0.63 0.18 1.38l-0.3 7.03c-0.02 0.55-0.13 0.91-0.33 1.06-0.19 0.15-0.61 0.22-1.27 0.21l-0.01 0.29 5.67 0.24c1 0.04 1.77-0.03 2.3-0.22s0.98-0.5 1.34-0.92c0.37-0.42 0.56-0.94 0.59-1.54 0.04-0.88-0.27-1.61-0.93-2.17s-1.74-0.87-3.25-0.94l-1.4-0.06 0.13-3.08c0.02-0.52 0.07-0.84 0.14-0.96 0.08-0.13 0.2-0.23 0.37-0.31s0.51-0.11 1.01-0.1l0.01-0.29zm19.18 0.16c-0.51 0.01-0.93 0.13-1.26 0.37-0.33 0.23-0.59 0.55-0.77 0.95s-0.37 0.99-0.56 1.79c-0.16 0.68-0.33 1.14-0.52 1.38-0.18 0.24-0.39 0.38-0.6 0.44-0.22 0.05-0.69 0.08-1.42 0.09l-0.05-3.16c-0.01-0.53 0.07-0.89 0.24-1.08 0.17-0.2 0.52-0.3 1.04-0.31h0.18l-0.01-0.29-5.51 0.09v0.29h0.23c0.54-0.01 0.88 0.09 1.04 0.3 0.15 0.21 0.24 0.63 0.25 1.25l0.12 7.09c0.01 0.56-0.08 0.92-0.27 1.1-0.18 0.17-0.58 0.26-1.19 0.29l0.01 0.29 5.51-0.09v-0.29c-0.57 0.01-0.96-0.05-1.18-0.19-0.21-0.14-0.32-0.46-0.33-0.97l-0.06-3.58c0.36 0.01 0.6 0.06 0.71 0.16 0.12 0.09 0.31 0.36 0.57 0.82l2.25 4.03 3.55-0.06-0.01-0.29c-0.33 0-0.61-0.06-0.85-0.19-0.23-0.14-0.43-0.35-0.61-0.63l-1.11-1.9c-0.49-0.87-0.81-1.41-0.96-1.62-0.15-0.22-0.32-0.39-0.5-0.52s-0.43-0.24-0.77-0.31c0.25-0.23 0.43-0.52 0.56-0.85 0.13-0.34 0.28-0.85 0.46-1.52 0.18-0.69 0.35-1.17 0.52-1.44 0.16-0.27 0.36-0.4 0.59-0.41 0.22-0 0.34 0.17 0.37 0.51 0.06 0.69 0.38 1.03 0.98 1.02 0.3-0 0.55-0.1 0.75-0.29s0.3-0.45 0.29-0.77c-0.01-0.42-0.16-0.76-0.47-1.04s-0.71-0.42-1.21-0.41zm-36.93 2.99c0.79 0.13 1.36 0.31 1.73 0.53s0.63 0.55 0.79 0.98c0.16 0.42 0.2 0.88 0.12 1.37-0.07 0.43-0.23 0.8-0.48 1.12-0.24 0.31-0.56 0.53-0.94 0.65-0.37 0.12-0.77 0.15-1.18 0.08-0.28-0.05-0.48-0.15-0.6-0.32-0.11-0.17-0.15-0.39-0.1-0.67l0.07-0.38zm21.51 2.52c0.63 0.03 1.12 0.1 1.46 0.22s0.65 0.39 0.91 0.8 0.38 0.91 0.36 1.51c-0.03 0.61-0.21 1.12-0.54 1.52-0.32 0.4-0.79 0.58-1.4 0.56-0.38-0.02-0.64-0.13-0.77-0.34s-0.19-0.58-0.17-1.08z"/>
<path d="m525.77 442.72-0.2 0.12c0.11 0.31 0.15 0.52 0.13 0.63s-0.09 0.2-0.21 0.27-0.37 0.13-0.76 0.17c-0.39 0.03-0.7 0.09-0.95 0.16-0.32 0.1-0.62 0.23-0.92 0.41-0.81 0.49-1.32 1.15-1.54 1.98s-0.11 1.6 0.33 2.32c0.26 0.42 0.59 0.75 0.99 0.99 0.41 0.23 0.88 0.38 1.41 0.45s1.33 0.05 2.4-0.04c0.76-0.07 1.32-0.08 1.66-0.04s0.63 0.12 0.86 0.26c0.24 0.13 0.42 0.3 0.55 0.52 0.22 0.36 0.26 0.77 0.13 1.22s-0.44 0.83-0.94 1.13c-0.65 0.39-1.4 0.51-2.27 0.35-0.86-0.17-1.69-0.68-2.47-1.52l-0.25 0.15 2.08 3.42 0.25-0.15c-0.03-0.23-0.01-0.43 0.07-0.6s0.17-0.29 0.29-0.36c0.14-0.08 0.34-0.15 0.61-0.19 0.48-0.07 0.87-0.16 1.15-0.25 0.29-0.1 0.57-0.23 0.86-0.4 0.91-0.55 1.49-1.28 1.75-2.18 0.26-0.91 0.16-1.74-0.3-2.49-0.36-0.6-0.87-1.01-1.51-1.26-0.65-0.24-1.66-0.3-3.04-0.17-0.98 0.09-1.63 0.12-1.92 0.1-0.41-0.03-0.74-0.11-1-0.24-0.19-0.1-0.34-0.25-0.46-0.45-0.19-0.32-0.23-0.67-0.11-1.07 0.12-0.41 0.4-0.75 0.86-1.03 0.59-0.36 1.27-0.46 2.06-0.3 0.79 0.15 1.47 0.56 2.06 1.24l0.27-0.17zm-149.56 1.65-0.14 0.25c0.43 0.23 0.7 0.43 0.81 0.59s0.16 0.33 0.15 0.49c-0 0.16-0.14 0.5-0.42 1l-3.28 6.04c-0.27 0.5-0.48 0.8-0.61 0.89-0.13 0.1-0.29 0.14-0.49 0.14-0.19-0-0.51-0.12-0.94-0.36l-0.14 0.25 4.73 2.57c1.32 0.72 2.47 0.98 3.46 0.8 0.81-0.15 1.41-0.58 1.79-1.28 0.36-0.66 0.4-1.34 0.11-2.04-0.2-0.49-0.68-1.07-1.46-1.76 0.93 0.24 1.65 0.27 2.17 0.1 0.52-0.18 0.9-0.49 1.14-0.94 0.23-0.43 0.32-0.9 0.27-1.41-0.05-0.52-0.25-0.99-0.59-1.42s-1.04-0.94-2.11-1.52zm139.52 0.26-2.12 1.02 0.36 2.84 0.61-0.29zm-136.34 2.14c0.67 0.36 1.12 0.69 1.35 0.99s0.35 0.63 0.37 0.98-0.08 0.73-0.3 1.14-0.49 0.71-0.8 0.88c-0.31 0.18-0.66 0.25-1.05 0.23s-0.9-0.21-1.55-0.56zm135.82 1.88-0.13 0.06 0.25 9.26c0.03 0.88-0.01 1.5-0.12 1.84-0.11 0.33-0.32 0.6-0.63 0.82-0.27 0.08-0.52 0.08-0.78 0-0.17-0.06-0.49-0.25-0.96-0.57l-3.62-2.5c0.55-0.37 0.94-0.77 1.17-1.2 0.35-0.67 0.4-1.38 0.13-2.11-0.22-0.6-0.59-1.06-1.1-1.38-0.52-0.32-1.08-0.47-1.7-0.43s-1.53 0.27-2.73 0.71l-4.63 1.68 0.1 0.27c0.46-0.17 0.78-0.24 0.98-0.21 0.2 0.02 0.35 0.09 0.47 0.21 0.12 0.11 0.28 0.44 0.47 0.98l2.35 6.46c0.2 0.54 0.28 0.89 0.27 1.05s-0.09 0.31-0.22 0.46c-0.13 0.14-0.43 0.3-0.89 0.46l0.1 0.27 5.1-1.85-0.1-0.27c-0.46 0.17-0.78 0.24-0.98 0.21-0.2-0.02-0.35-0.09-0.47-0.2-0.12-0.12-0.27-0.45-0.46-0.99l-1.01-2.79 0.65-0.24 4.86 3.37 3.14-1.14 3.18-1.53-0.12-0.26c-0.52 0.2-0.85 0.3-1.02 0.28-0.28-0.02-0.48-0.17-0.61-0.44-0.1-0.2-0.15-0.49-0.17-0.86l-0.04-1.12 3.37-1.62 1.08 0.95c0.28 0.25 0.44 0.39 0.46 0.43 0.07 0.08 0.13 0.16 0.17 0.24 0.07 0.14 0.07 0.27 0 0.4-0.1 0.18-0.34 0.35-0.71 0.53l-0.19 0.09 0.12 0.26 4.62-2.22-0.12-0.26c-0.3 0.12-0.57 0.14-0.8 0.07-0.3-0.09-0.8-0.43-1.48-1.01zm-130.53 0.33-0.11 0.27 0.32 0.14c0.32 0.13 0.54 0.31 0.66 0.52 0.09 0.15 0.12 0.31 0.1 0.5-0.02 0.11-0.12 0.39-0.31 0.83l-2.71 6.42c-0.21 0.49-0.36 0.78-0.46 0.87-0.14 0.13-0.28 0.21-0.44 0.22-0.22 0.03-0.46-0.02-0.75-0.14l-0.32-0.14-0.11 0.27 8.44 3.56 1.75-2.92-0.27-0.11c-0.6 0.76-1.27 1.24-2 1.43s-1.54 0.1-2.46-0.29l-0.58-0.25c-0.28-0.12-0.46-0.24-0.56-0.37-0.09-0.13-0.14-0.26-0.13-0.4s0.12-0.48 0.35-1.01l1.16-2.75c0.47 0.2 0.79 0.41 0.99 0.64 0.19 0.22 0.31 0.55 0.34 0.98 0.04 0.43-0.03 0.94-0.21 1.52l0.27 0.12 2.16-5.11-0.27-0.12c-0.4 0.73-0.82 1.22-1.26 1.5-0.44 0.27-0.97 0.27-1.59 0.01l-0.19-0.08 1.68-3.97 1.01 0.43c0.74 0.31 1.22 0.57 1.46 0.77 0.4 0.34 0.66 0.71 0.78 1.12s0.11 1-0.05 1.77l0.27 0.12 1.22-2.89zm-7.58 2c0.7 0.38 1.19 0.73 1.47 1.06s0.42 0.72 0.44 1.18c0.02 0.45-0.09 0.9-0.33 1.33-0.21 0.38-0.48 0.68-0.81 0.9s-0.7 0.32-1.1 0.32c-0.39-0.01-0.77-0.11-1.14-0.31-0.25-0.13-0.4-0.3-0.46-0.49-0.05-0.2-0.01-0.42 0.12-0.66l0.19-0.34zm119.59 1.05-2.27 0.6-0.18 2.85 0.65-0.17zm19.08 0.32 3 2.6-2.89 1.39zm-122.16 0.43-0.09 0.28c0.46 0.15 0.76 0.29 0.9 0.43s0.22 0.29 0.24 0.45c0.03 0.16-0.05 0.51-0.22 1.06l-2.09 6.55c-0.17 0.55-0.32 0.88-0.43 0.99-0.11 0.12-0.26 0.2-0.46 0.23-0.19 0.03-0.52-0.03-0.99-0.18l-0.09 0.28 5.17 1.65 0.09-0.28c-0.46-0.15-0.76-0.29-0.9-0.43s-0.22-0.29-0.25-0.45c-0.02-0.16 0.06-0.52 0.23-1.07l0.9-2.83 0.66 0.21 1.79 5.64 3.18 1.01 0.09-0.28c-0.26-0.1-0.47-0.26-0.63-0.48-0.1-0.15-0.24-0.5-0.41-1.04l-1.34-4.19c0.66 0.04 1.22-0.04 1.66-0.23 0.69-0.32 1.16-0.85 1.39-1.59 0.19-0.61 0.18-1.2-0.03-1.77s-0.57-1.03-1.09-1.38c-0.51-0.35-1.38-0.72-2.6-1.11zm112.51 0.72c0.32-0.01 0.6 0.04 0.84 0.16 0.49 0.23 0.87 0.73 1.15 1.49 0.19 0.52 0.25 0.99 0.17 1.38-0.07 0.39-0.26 0.71-0.55 0.96s-0.78 0.49-1.46 0.74l-0.42 0.15-1.58-4.36 0.79-0.29c0.39-0.14 0.75-0.22 1.07-0.23zm-108.91 1.02 0.8 0.25c0.8 0.25 1.32 0.62 1.56 1.1 0.25 0.48 0.25 1.11 0 1.88-0.17 0.53-0.41 0.93-0.71 1.2s-0.64 0.41-1.02 0.43-0.92-0.09-1.61-0.31l-0.43-0.14zm98.22 1.36-0.14 0.04-1.49 9.14c-0.14 0.87-0.29 1.47-0.46 1.78s-0.43 0.54-0.79 0.69l0.07 0.28 3.41-0.91-0.07-0.28c-0.54 0.1-0.9 0.13-1.05 0.09-0.27-0.07-0.44-0.25-0.52-0.54-0.06-0.22-0.06-0.51-0.01-0.88l0.16-1.11 3.62-0.96 0.88 1.13c0.23 0.29 0.35 0.46 0.38 0.51 0.06 0.09 0.1 0.18 0.12 0.27 0.04 0.15 0.02 0.28-0.07 0.39-0.13 0.15-0.4 0.28-0.79 0.39l-0.2 0.05 0.07 0.28 4.95-1.32-0.07-0.28c-0.32 0.06-0.58 0.03-0.8-0.08-0.28-0.15-0.71-0.57-1.27-1.27zm-91.58 0.13-0.06 0.28 0.34 0.08c0.33 0.08 0.58 0.21 0.74 0.4 0.11 0.13 0.18 0.29 0.19 0.48 6.2e-4 0.11-0.05 0.4-0.16 0.87l-1.58 6.79c-0.12 0.52-0.22 0.83-0.31 0.94-0.11 0.16-0.24 0.25-0.39 0.29-0.21 0.06-0.46 0.06-0.76-0.01l-0.34-0.08-0.07 0.28 8.92 2.07 1.22-3.17-0.28-0.07c-0.47 0.85-1.04 1.44-1.73 1.75-0.68 0.31-1.5 0.36-2.47 0.13l-0.62-0.14c-0.29-0.07-0.5-0.16-0.61-0.27s-0.18-0.24-0.2-0.38 0.04-0.49 0.17-1.06l0.68-2.91c0.49 0.11 0.85 0.27 1.08 0.46s0.4 0.49 0.5 0.91c0.11 0.42 0.13 0.93 0.05 1.54l0.29 0.07 1.25-5.4-0.29-0.07c-0.27 0.78-0.59 1.35-0.98 1.69s-0.91 0.44-1.57 0.29l-0.21-0.05 0.98-4.2 1.06 0.25c0.78 0.18 1.3 0.35 1.57 0.51 0.45 0.27 0.77 0.59 0.96 0.98s0.28 0.97 0.25 1.75l0.29 0.07 0.71-3.05zm86.49 1.39-5.53 1.09 0.05 0.28 0.44-0.09c0.29-0.06 0.53-0.05 0.72 0.02 0.19 0.06 0.33 0.16 0.41 0.28 0.09 0.12 0.18 0.45 0.29 0.98l1.09 5.56c0.21 1.08 0.31 1.75 0.3 2s-0.08 0.44-0.2 0.58-0.29 0.23-0.51 0.28c-0.31 0.06-0.58 0.04-0.8-0.06-0.15-0.07-0.24-0.17-0.27-0.31-0.02-0.09 0.02-0.25 0.12-0.48 0.1-0.24 0.16-0.38 0.17-0.44 0.01-0.11 0.01-0.24-0.02-0.39-0.06-0.29-0.21-0.51-0.47-0.67-0.25-0.16-0.53-0.21-0.84-0.15-0.32 0.06-0.56 0.23-0.74 0.5-0.18 0.26-0.23 0.57-0.16 0.93 0.11 0.56 0.48 1.01 1.11 1.37 0.63 0.35 1.39 0.44 2.26 0.27 0.72-0.14 1.3-0.41 1.74-0.81 0.45-0.41 0.73-0.85 0.84-1.34s0.07-1.24-0.13-2.24l-1-5.09c-0.1-0.52-0.14-0.85-0.11-0.98 0.04-0.19 0.12-0.33 0.23-0.43 0.16-0.14 0.4-0.25 0.7-0.31l0.34-0.07zm-41.14 0.39-0.92 2.71h0.67l2.6-2.7zm-30.71 1.12c-1.18 0.02-2.25 0.38-3.21 1.06-1.28 0.91-2.04 2.16-2.29 3.73-0.14 0.88-0.08 1.7 0.16 2.47 0.2 0.6 0.51 1.15 0.94 1.67 0.44 0.52 0.96 0.96 1.57 1.34 0.62 0.37 1.42 0.63 2.41 0.79 0.78 0.12 1.54 0.16 2.28 0.12 0.75-0.04 1.48-0.15 2.2-0.34l0.34-2.18c0.06-0.38 0.12-0.62 0.18-0.71 0.11-0.17 0.25-0.28 0.41-0.34 0.17-0.06 0.45-0.07 0.84-0.04l0.04-0.29-5.09-0.8-0.04 0.29 0.27 0.04c0.25 0.04 0.46 0.12 0.62 0.25s0.27 0.26 0.3 0.39c0.04 0.13 0.03 0.4-0.04 0.81l-0.34 2.18c-0.29 0.06-0.58 0.09-0.86 0.11-0.27 0.01-0.53-0-0.79-0.04-0.73-0.11-1.32-0.39-1.8-0.83-0.47-0.44-0.76-1.05-0.88-1.85-0.12-0.79-0.1-1.69 0.06-2.7 0.13-0.83 0.37-1.62 0.71-2.37s0.8-1.31 1.39-1.66c0.59-0.36 1.27-0.48 2.06-0.36 0.82 0.13 1.53 0.51 2.14 1.14s1.01 1.48 1.19 2.54l0.29 0.04 0.58-3.69-0.29-0.04c-0.15 0.28-0.29 0.46-0.43 0.55-0.14 0.08-0.28 0.11-0.43 0.09-0.09-0.01-0.38-0.16-0.86-0.43-0.47-0.27-0.82-0.45-1.04-0.53-0.4-0.15-0.87-0.26-1.38-0.34-0.42-0.07-0.83-0.1-1.22-0.09zm60.46 0.56-5.49 0.71 0.04 0.29 0.35-0.04c0.29-0.04 0.53-0.02 0.72 0.06s0.32 0.18 0.39 0.3c0.07 0.13 0.15 0.46 0.21 1l0.89 6.91c0.07 0.53 0.08 0.86 0.04 0.99-0.05 0.18-0.14 0.32-0.26 0.41-0.17 0.13-0.41 0.22-0.71 0.26l-0.35 0.04 0.04 0.29 5.49-0.71-0.04-0.29-0.35 0.04c-0.29 0.04-0.54 0.02-0.72-0.06s-0.32-0.18-0.39-0.31-0.15-0.46-0.22-1l-0.89-6.91c-0.07-0.53-0.08-0.86-0.04-0.99 0.05-0.19 0.14-0.32 0.27-0.41 0.17-0.13 0.41-0.22 0.71-0.26l0.35-0.04zm16.33 0.14 2.46 3.12-3.1 0.82zm-66.97 0.56c-0.65 0.05-1.23 0.27-1.74 0.67-0.67 0.53-1.05 1.22-1.13 2.06-0.05 0.49 0.02 0.95 0.2 1.38 0.19 0.43 0.48 0.83 0.86 1.21 0.39 0.37 1.04 0.84 1.95 1.41 0.65 0.4 1.1 0.72 1.35 0.96 0.25 0.23 0.43 0.47 0.54 0.72s0.16 0.49 0.13 0.74c-0.04 0.42-0.25 0.77-0.63 1.05-0.37 0.28-0.85 0.4-1.43 0.34-0.75-0.07-1.43-0.44-2.02-1.09s-0.95-1.55-1.06-2.69l-0.29-0.03-0.39 3.98 0.29 0.03c0.11-0.2 0.25-0.35 0.41-0.44s0.31-0.13 0.44-0.12c0.16 0.02 0.36 0.09 0.6 0.22 0.43 0.23 0.79 0.39 1.08 0.49s0.6 0.16 0.93 0.19c1.06 0.1 1.96-0.13 2.71-0.69 0.75-0.57 1.17-1.29 1.26-2.18 0.07-0.69-0.08-1.33-0.46-1.91s-1.15-1.23-2.33-1.96c-0.84-0.52-1.37-0.88-1.6-1.08-0.31-0.27-0.53-0.53-0.65-0.79-0.09-0.19-0.13-0.41-0.1-0.64 0.04-0.37 0.22-0.68 0.55-0.93 0.34-0.25 0.77-0.36 1.3-0.3 0.68 0.07 1.29 0.4 1.83 0.99s0.84 1.34 0.9 2.23l0.32 0.03 0.26-3.52-0.23-0.02c-0.1 0.31-0.19 0.5-0.28 0.58s-0.2 0.11-0.33 0.09c-0.14-0.01-0.38-0.12-0.71-0.32-0.33-0.21-0.61-0.35-0.85-0.44-0.31-0.11-0.64-0.19-0.98-0.22-0.23-0.02-0.46-0.03-0.68-0.01zm44.38 0.13-8.34 0.71-0.03 3.12 0.29-0.03c0.08-0.52 0.2-0.95 0.38-1.3s0.43-0.64 0.73-0.86c0.3-0.23 0.64-0.39 0.99-0.49 0.19-0.05 0.59-0.1 1.19-0.16l1.56-0.13-5.36 10.51 9.67-0.82 0.1-3.85-0.3 0.03c-0.1 0.86-0.35 1.55-0.75 2.1-0.4 0.54-0.91 0.92-1.51 1.16-0.37 0.15-1.03 0.27-1.98 0.35l-2.01 0.17zm-10.65 0.58-0.23 0.01c-0.06 0.32-0.12 0.52-0.2 0.61-0.07 0.09-0.18 0.13-0.32 0.14s-0.39-0.07-0.75-0.22c-0.36-0.16-0.66-0.26-0.9-0.32-0.33-0.07-0.66-0.1-1-0.09-0.94 0.04-1.71 0.36-2.31 0.98s-0.88 1.35-0.85 2.19c0.02 0.49 0.15 0.94 0.39 1.35 0.25 0.4 0.58 0.76 1.02 1.08 0.43 0.32 1.14 0.69 2.12 1.13 0.7 0.31 1.19 0.57 1.47 0.77s0.49 0.41 0.63 0.64 0.22 0.47 0.23 0.72c0.02 0.42-0.14 0.8-0.48 1.13-0.33 0.33-0.79 0.51-1.37 0.53-0.75 0.03-1.47-0.24-2.15-0.8-0.67-0.57-1.15-1.41-1.42-2.53l-0.29 0.01 0.16 4 0.29-0.01c0.09-0.22 0.2-0.38 0.35-0.49s0.29-0.17 0.42-0.17c0.16-0.01 0.37 0.04 0.62 0.13 0.45 0.17 0.83 0.28 1.13 0.34s0.62 0.08 0.95 0.06c1.06-0.04 1.92-0.39 2.59-1.06s0.98-1.44 0.95-2.33c-0.03-0.7-0.26-1.31-0.71-1.83s-1.31-1.07-2.57-1.63c-0.9-0.4-1.48-0.69-1.73-0.85-0.34-0.23-0.59-0.46-0.75-0.7-0.12-0.18-0.18-0.38-0.19-0.62-0.01-0.37 0.13-0.7 0.42-0.99 0.3-0.3 0.72-0.46 1.25-0.48 0.69-0.03 1.33 0.22 1.94 0.74 0.61 0.51 1.01 1.21 1.2 2.09l0.32-0.01zm-27.39 0.06-0.45 3.08 0.29 0.01c0.15-0.5 0.33-0.92 0.55-1.24 0.23-0.32 0.51-0.57 0.84-0.76s0.68-0.3 1.05-0.35c0.19-0.03 0.6-0.02 1.21 0.01l1.57 0.08-6.73 9.69 9.69 0.49 0.62-3.8-0.3-0.02c-0.21 0.83-0.56 1.49-1.03 1.97s-1.02 0.79-1.65 0.95c-0.39 0.1-1.05 0.13-2.01 0.08l-2.01-0.1 6.72-9.67zm14.54 0.26-3.82 8.44c-0.36 0.81-0.67 1.34-0.91 1.6-0.25 0.25-0.56 0.41-0.94 0.47v0.29l3.52 0.01v-0.29c-0.55-0.04-0.9-0.11-1.04-0.19-0.24-0.14-0.36-0.36-0.36-0.66 7.4e-4 -0.22 0.07-0.51 0.22-0.85l0.45-1.03 3.74 0.01 0.56 1.32c0.14 0.34 0.22 0.54 0.23 0.59 0.03 0.1 0.05 0.2 0.04 0.29-5.2e-4 0.16-0.06 0.28-0.17 0.36-0.17 0.11-0.46 0.17-0.87 0.17h-0.21v0.29l5.12 0.02v-0.29c-0.32-0.03-0.57-0.12-0.75-0.28-0.23-0.21-0.53-0.73-0.89-1.56l-3.79-8.7zm-0.96 3.57 1.57 3.65-3.2-0.01z"/>
<path d="m331.79 393.83v0.26c0.34 0 0.61 0.05 0.81 0.14 0.12 0.06 0.21 0.14 0.27 0.25 0.07 0.11 0.1 0.21 0.09 0.32 0 0.11-0.09 0.34-0.26 0.7l-1.87 4.05c-0.23 0.49-0.4 0.79-0.51 0.91-0.11 0.11-0.26 0.17-0.43 0.18-0.18 0.01-0.44-0.06-0.77-0.21l-0.21-0.1-0.1 0.21 4.12 1.9 0.1-0.21-0.18-0.08c-0.3-0.14-0.49-0.28-0.59-0.43-0.09-0.14-0.13-0.29-0.12-0.44 0.02-0.16 0.15-0.47 0.37-0.95l2.95-6.39-0.19-0.09-3.48-0.02zm7.03 1.4c-0.23-0.01-0.47 0.02-0.72 0.08-0.49 0.12-0.92 0.36-1.29 0.74s-0.64 0.84-0.81 1.38c-0.24 0.78-0.23 1.46 0.04 2.04s0.72 0.96 1.34 1.16c0.2 0.06 0.39 0.1 0.58 0.1 0.19 0.01 0.43-0.02 0.72-0.07-0.29 0.54-0.64 0.99-1.05 1.34s-0.9 0.61-1.46 0.76-1.2 0.2-1.91 0.14l-0.06 0.17c1.13 0.31 2.18 0.36 3.15 0.14s1.79-0.66 2.45-1.32c0.67-0.66 1.14-1.42 1.41-2.29 0.21-0.66 0.27-1.3 0.18-1.9s-0.3-1.1-0.65-1.51c-0.34-0.41-0.75-0.69-1.23-0.84-0.22-0.08-0.45-0.11-0.69-0.12zm0.12 0.46c0.09-0.02 0.19-0.01 0.29 0.02 0.16 0.05 0.28 0.14 0.35 0.26 0.14 0.22 0.2 0.53 0.19 0.91-0.03 0.68-0.16 1.4-0.4 2.13-0.11 0.34-0.25 0.73-0.43 1.17-0.3 0.05-0.53 0.05-0.69 0-0.29-0.09-0.48-0.31-0.57-0.64-0.13-0.5-0.02-1.31 0.33-2.43 0.21-0.67 0.44-1.1 0.67-1.29 0.08-0.07 0.17-0.11 0.26-0.13zm7.89 1.8-5.5 4.15-0.37 1.26 2.99 0.89-0.56 1.84 1.68 0.5 0.55-1.85 0.75 0.23 0.38-1.26-0.76-0.23 1.58-5.31-0.74-0.22zm4.6 1.68-3.06 3.45c0.21 0.08 0.37 0.15 0.48 0.19 1.05 0.42 1.84 0.99 2.35 1.7 0.52 0.71 0.63 1.41 0.35 2.1-0.13 0.33-0.36 0.57-0.68 0.71-0.32 0.15-0.64 0.16-0.96 0.03-0.15-0.07-0.28-0.14-0.38-0.24-0.15-0.13-0.31-0.33-0.48-0.59-0.28-0.42-0.48-0.7-0.61-0.82-0.13-0.13-0.27-0.22-0.43-0.29-0.17-0.06-0.34-0.06-0.52 0.02s-0.3 0.2-0.37 0.37c-0.09 0.22-0.05 0.46 0.13 0.74 0.25 0.38 0.7 0.7 1.35 0.97 0.6 0.24 1.21 0.34 1.82 0.29s1.14-0.25 1.61-0.6c0.47-0.36 0.8-0.79 1-1.28 0.31-0.76 0.27-1.52-0.12-2.28-0.48-0.92-1.38-1.68-2.72-2.27l0.62-0.68 3.15 1.27 1.2-1.27-3.73-1.52zm-6.14 0.1-0.97 3.26-2.4-0.72 3.37-2.54z"/>
<path d="m566.48 393.38c-0.41-0.04-0.81 0.04-1.21 0.22-0.55 0.25-0.96 0.65-1.22 1.2s-0.33 1.24-0.19 2.08l0.24-0.03c0.06-0.74 0.38-1.25 0.97-1.52 0.37-0.17 0.73-0.17 1.11-0.02 0.37 0.15 0.65 0.43 0.83 0.83 0.26 0.56 0.37 1.19 0.33 1.91-0.03 0.72-0.37 2.25-1.01 4.57l0.06 0.13 4.6-2.11-0.6-2.47-0.21 0.1c-0.01 0.32-0.03 0.55-0.07 0.67-0.05 0.12-0.12 0.22-0.23 0.32-0.11 0.09-0.37 0.23-0.79 0.42l-1.69 0.78c0.72-1.88 1.12-3.26 1.18-4.15 0.04-0.66-0.06-1.24-0.29-1.75-0.13-0.28-0.36-0.54-0.69-0.77-0.34-0.24-0.71-0.38-1.12-0.41zm-5.44 1.92c-0.25-0.01-0.49 0.03-0.73 0.1-0.47 0.15-0.86 0.45-1.17 0.92-0.32 0.46-0.48 1.03-0.5 1.71-0.01 0.82 0.12 1.68 0.4 2.58 0.21 0.65 0.5 1.26 0.87 1.83 0.28 0.41 0.55 0.73 0.81 0.94 0.37 0.3 0.74 0.5 1.12 0.6 0.38 0.11 0.77 0.09 1.17-0.03 0.34-0.11 0.64-0.29 0.88-0.55 0.25-0.26 0.44-0.56 0.58-0.91 0.15-0.35 0.22-0.77 0.22-1.25 0.01-0.78-0.12-1.58-0.38-2.4-0.28-0.9-0.68-1.68-1.19-2.35-0.36-0.49-0.81-0.83-1.32-1.02-0.26-0.1-0.51-0.15-0.76-0.17zm-0.31 0.48c0.09 0.01 0.18 0.03 0.25 0.08 0.21 0.15 0.43 0.5 0.65 1.05 0.09 0.23 0.36 1.07 0.81 2.5l0.8 2.62c0.12 0.48 0.14 0.85 0.04 1.13-0.06 0.17-0.19 0.28-0.39 0.34-0.19 0.06-0.35 0.06-0.5 0-0.14-0.07-0.29-0.23-0.44-0.5-0.2-0.37-0.49-1.13-0.86-2.29-0.67-2.14-1.04-3.39-1.1-3.76-0.06-0.38-0.04-0.66 0.07-0.85 0.07-0.13 0.19-0.22 0.37-0.28 0.11-0.03 0.21-0.05 0.3-0.04zm-5.79 1.32c-0.25-0.02-0.49 0.01-0.73 0.08-0.47 0.14-0.87 0.44-1.19 0.9-0.32 0.45-0.5 1.02-0.52 1.7-0.03 0.83 0.09 1.69 0.36 2.59 0.19 0.66 0.47 1.27 0.83 1.84 0.27 0.42 0.54 0.74 0.8 0.96 0.36 0.31 0.73 0.51 1.11 0.62s0.77 0.1 1.17-0.02c0.34-0.1 0.64-0.28 0.89-0.53s0.44-0.56 0.59-0.9c0.15-0.35 0.23-0.77 0.24-1.25 0.02-0.78-0.09-1.58-0.34-2.41-0.27-0.9-0.65-1.69-1.15-2.36-0.35-0.5-0.79-0.84-1.31-1.04-0.25-0.11-0.5-0.16-0.75-0.18zm-0.32 0.47c0.09 0.01 0.18 0.04 0.25 0.09 0.21 0.15 0.42 0.5 0.63 1.05 0.09 0.24 0.35 1.08 0.78 2.52l0.75 2.62c0.12 0.49 0.12 0.86 0.02 1.14-0.06 0.16-0.19 0.27-0.4 0.33-0.18 0.06-0.35 0.05-0.49-0.01s-0.29-0.23-0.44-0.5c-0.19-0.37-0.47-1.14-0.82-2.31-0.63-2.15-0.98-3.41-1.03-3.78-0.06-0.38-0.03-0.66 0.08-0.84 0.07-0.13 0.19-0.22 0.37-0.27 0.11-0.04 0.21-0.05 0.3-0.04zm-6.27 1.83c-0.41-0.05-0.81 0-1.22 0.16-0.56 0.23-0.99 0.62-1.27 1.15-0.29 0.54-0.38 1.23-0.29 2.07l0.25-0.02c0.09-0.74 0.44-1.23 1.04-1.47 0.37-0.15 0.73-0.14 1.1 0.03s0.63 0.45 0.8 0.87c0.23 0.56 0.31 1.2 0.24 1.92s-0.47 2.22-1.21 4.52l0.05 0.13 4.69-1.91-0.49-2.48-0.21 0.08c-0.02 0.33-0.06 0.55-0.1 0.67-0.05 0.11-0.13 0.22-0.25 0.3-0.11 0.09-0.38 0.22-0.8 0.39l-1.72 0.7c0.8-1.84 1.25-3.2 1.35-4.09 0.08-0.65 0.01-1.24-0.2-1.76-0.12-0.29-0.34-0.56-0.66-0.8-0.32-0.26-0.69-0.41-1.1-0.46z"/>
</g>
<g transform="translate(325,100)">
<defs>
<path id="i" d="m23.5 141c1.4-33.6-3.7-70.2-15.5-89l37-39c15 8.2 34.1 2.9 53.2-3 8.8-2.7 15.2-5 26.8-5v136h-101.5z"/>
<path id="j" d="m125 293c-9-12-16.6-17.5-35.1-22-32.7-7.9-65.9-36.8-76.9-75 6.1-13.7 9.6-33.7 10.5-55h101.5v152z"/>
<path id="f" d="m23.5 141h203m-101.5 152v-288"/>
<path id="e" d="m125 293c-9-12-16.6-17.5-35.1-22-32.7-7.9-65.9-36.8-76.9-75 6.1-13.7 9.6-33.7 10.5-55 1.4-33.6-3.7-70.2-15.5-89l37-39c15 8.2 34.1 2.9 53.2-3 8.8-2.7 15.2-5 26.8-5s18 2.3 26.8 5c19.1 5.9 38.2 11.2 53.2 3l37 39c-11.8 18.8-16.9 55.4-15.5 89 0.9 21.3 4.4 41.3 10.5 55-11 38.2-44.2 67.1-76.9 75-18.5 4.5-26.1 10-35.1 22z"/>
</defs>
<use fill="#0a609b" xlink:href="#i"/>
<use transform="scale(-1 1) translate(-250)" fill="#d23e32" xlink:href="#i"/>
<use fill="#d23e32" xlink:href="#j"/>
<use transform="scale(-1 1) translate(-250)" fill="#0a609b" xlink:href="#j"/>
<use fill="none" stroke="black" stroke-width="6px" xlink:href="#f"/>
<use fill="none" stroke="white" stroke-width="4px" xlink:href="#f"/>
<use fill="none" stroke="black" stroke-width="8px" xlink:href="#e"/>
<use fill="none" stroke="#ffc914" stroke-width="6px" xlink:href="#e"/>
<defs>
<g id="n">
<path d="m62 66c-7.2 6.9-16.8 0.9-14.2-6.8-3.5-2.3-4.7-6.5-3.2-9.5-1.9-3.8 0.7-8.5 4.5-8.9-0.1-3.7 4.5-5.6 4.8-9.6 5 2 6.4-0.9 8.2-3.2 1.8 2.3 3.2 5.2 8.2 3.2 0.3 4 4.9 5.9 4.8 9.6 3.8 0.4 6.4 5.1 4.5 8.9 1.5 3 0.3 7.2-3.2 9.5 2.6 7.7-7 13.7-14.2 6.8z" fill="#00834d" stroke="#000" stroke-width="1px"/>
<path d="m47.8 59.2c2.6 1 5.7 0.8 8.5 0.3m19.9-0.3c-2.6 1-5.7 0.8-8.5 0.3m-18.7-18.8c1 2.2 3.1 4 5.6 5.2m20.4-5.2c-1 2.2-3.1 4-5.6 5.2" fill="none" stroke="#000" stroke-linecap="round" stroke-width="1px"/>
</g>
</defs>
<use transform="rotate(-52 62,64)" xlink:href="#n"/>
<use transform="rotate(52 62,64) translate(14,-17)" xlink:href="#n"/>
<path d="m74 125c-4.2-2.9-6.3-6-10.3-8.9-4.2-3-17.2-7.4-15.3-18.7 1.7-10.2 0.2-17.7-4.8-18-2.3-0.1-4.2 1.6-4.2 4.3 0 3.7 7 4.6 7 8.3 0 3.1-4.1 3.4-4 6 0.1 2.7 4.5 2.4 4.4 5.9-0.1 3.8-5 4.9-6.2 3.2 0.6-1.8 2.8-1.6 2.8-2.9-0-1.6-5-2.8-4.9-5.5 0.1-2.5 3.2-3 3.2-5.3 8.25e-4 -1.9-1.7-1.6-4-3.6-2.2-1.9-2.3-7.3-1.2-9.6 3.4-7 18-5.6 16 9.5-0.7 5.5-1.4 12.4 2.9 16.4-6.8-13.4 1.1-21.9 6.9-29.5 7.2-9.4-6.3-17.6-16.5-25.5 18.6 10.6 22 13.4 22.1 21.7 10.1-9.2 21.9-16.5 34-23.6-9.6 7.7-18.8 14.4-26.7 23.4 10-0 13.7 7.7 10.4 18.3-0.4-31.1-38.1-4.4-24.8 14.8-1.8-10.9 5-9.1 3.9-0.8-0.8 6.3 5.9 5.7 9.2 8z" fill="#00834d" stroke="#000" stroke-width="1px"/>
<g fill="#fc3" stroke="#000" stroke-width="1px">
<circle cx="89" cy="116" r="4.5"/>
<circle cx="81" cy="113" r="4.5"/>
<circle cx="87" cy="108" r="4.5"/>
<circle cx="95" cy="110" r="4.5"/>
<circle cx="75" cy="100" r="4.5"/>
<circle cx="98" cy="98" r="4.5"/>
<circle cx="77.5" cy="106" r="4.5"/>
<circle cx="83.5" cy="101" r="4.5"/>
<circle cx="92" cy="102" r="4.5"/>
<circle cx="72.5" cy="92" r="4.5"/>
<circle cx="81" cy="93" r="4.5"/>
<circle cx="89" cy="94" r="4.5"/>
<circle cx="97" cy="92" r="4.5"/>
<circle cx="77" cy="85" r="4.5"/>
<circle cx="85" cy="86" r="4.5"/>
<circle cx="93" cy="85.5" r="4.5"/>
</g>
<clipPath id="t">
<path id="o" d="m160.5 87c-3.1 14.2 3.9 12.9 5 16 1.1-3.1 8.1-1.8 5-16h-10zm0 0a6.5 5 0 1 1 10 0z"/>
</clipPath>
<path d="m166 80c10-5 18-5 28 0" fill="none" stroke="#000" stroke-width="4px"/>
<path d="m166 80c10-5 18-5 28 0" fill="none" stroke="#00834d" stroke-width="2px"/>
<g id="u" transform="rotate(53 165,79)">
<use fill="#fc3" xlink:href="#o"/>
<path d="m161 87 8-8m-5.5 8 8-8m-5.5 8 8-8m-5.5 8 8-8m-18 8 8-8m-10.5 8 8-8m-1 8-8-8m10.5 8-8-8m10.5 8-8-8m10.5 8-8-8m10.5 8-8-8m10.5 8-8-8" clip-path="url(#t)" fill="none" stroke="#000" stroke-width=".5px"/>
<use fill="none" stroke="black" stroke-width="1px" xlink:href="#o"/>
</g>
<use transform="scale(-1 1) translate(-360)" xlink:href="#u"/>
<path d="m178 83c0-3.4-2-7.3-4.6-10.3l3.1-2.6c2.2 1.1 4.8 1.1 7 0l3.1 2.6c-2.6 3-4.6 6.9-4.6 10.3z" fill="#00834d"/>
<path d="m178 83.1c-0.2-3.4-2.3-7.5-4.7-10.5m3.1-2.5c1.6 1.7 5.6 1.7 7.2 0m-1.6 13c0.2-3.4 2.3-7.5 4.7-10.5" fill="none" stroke="#000" stroke-width="1px"/>
<g id="k">
<path d="m182 83c-0.3 5.4 13.3 7.6 12.5 13.3-0.9 6.1-6-2.5-7.2 0.2-1.5 3.6 10.4 6.4 9.4 11.7-1.2 6.5-7.9-2.8-8.6 0-0.6 2.1 6.9 5 5.6 9.4-1.2 4.2-5.8-1-6.9-0.4-1.5 0.8 0.8 3.4-0.2 4.9-0.4 0.6-1.5 0.4-2.5 1.4-1.5 1.6-1.1 4.2-4.1 4.4-3-0.2-2.6-2.8-4.1-4.4-1-1-2.1-0.8-2.5-1.4-1-1.5 1.3-4.1-0.2-4.9-1.1-0.6-5.7 4.6-6.9 0.4-1.3-4.4 6.2-7.3 5.6-9.4-0.7-2.8-7.4 6.5-8.6 0-1-5.3 10.9-8.1 9.4-11.7-1.2-2.7-6.3 5.9-7.2-0.2-0.8-5.7 12.8-7.9 12.5-13.3" fill="#00834d" stroke="#000" stroke-width="1px"/>
<path d="m180 86v34m-7-27 7-5 7 5m-17 12 10-7 10 7m-19 9.5 9-6.5 9 6.5m-13 4.5 4-3 4 3" fill="none" stroke="#000" stroke-linecap="round" stroke-width="1px"/>
</g>
<use transform="rotate(140 180,79) translate(-1,5)" xlink:href="#k"/>
<use transform="rotate(220 180 79) translate(1 5)" xlink:href="#k"/>
<g transform="scale(-.3 .3) translate(-510 440)">
<g fill="#fff" stroke="#000" stroke-width="1px">
<path d="m264.1 123.2c-1.6 1.6-2.9 3.4-3.8 5.4h7.9c-1.1-2.1-2.3-4-4.1-5.4z"/>
<path d="m272.5 122.4c-3.9 1.6-2.8 4.4-1.8 7.3l4.7-0.9c-0.5-2.5-1.1-4.9-2.9-6.4z"/>
<path d="m258.4 116.1c-2.7-1.5-3-4.7-3.5-7h7.3c-0.9 2.6-2 5.1-3.8 7z"/>
<path d="m265.9 116.1c-2.2-1.9-2.8-4.5-3.7-7h7.4c-1 2.4-1.7 4.9-3.7 7z"/>
<path d="m274.4 116.2c-3.1-1.8-3.5-4.6-4.8-7.1h9.6c-1.3 2.5-2.6 5.1-4.8 7.1z"/>
<path d="m237.6 99.2c-6.4 12.3 7.9 18.5 18.2 18.6l44.8-0.2-45.5 5.1c-21 2.6-31.2-11.9-17.5-23.4z" fill="#ffc914"/>
</g>
<g>
<path d="m274 250.8c-24.9 2.3-79.8 31-46.1 76.2 4.1 5.6-1 12.2-9.5 5.8l-13.6-9.2c-10.9-5.6-21 14.3-15 19.4l12.7 9.9c12.2 6.2 25.2 0.8 38 9.7 6 3.9 12.7 1.3 12.7-4.4 0.1-47.2 19-64.1 44.9-74.6z"/>
<path d="m263.2 162c-41.7 4.7-50.3-12.8-50.2-21.6l-0.2-18.2c0.1-5.9-20.5-10-24.7 9-1.7 8.4-0 16.2 3 23.7 0.1 4.9 3.4 7.9 8.5 9.4 18.3 12.4 23.2 36.3 57.8 34.5z"/>
<path d="m320.2 320.3c-23.9 4.2-30.7-13.9-35.2-36.2-36.1-18.2-56-127.4-6.2-139.8" fill="none" stroke="#d23e32" stroke-linecap="round" stroke-width="4px"/>
<path d="m287.4 133.4c-10.2 4.5-18.7 4.6-26.2 2.2-3.1-0.9-2.5-9.9 1.2-9.5 5.6 0.6 10.7 1.7 19-0.4 8.5-2.8 4-13.5-3.4-13.5-10.3-0.2-16.3-1.2-23-2-5.1-0.8-10.1-9.3-3.4-17.4 3.3-3.6 11.9 0.7 17.5 1.6 7.7-9.9 19.7-10.2 33.8-6.2 0.3-6.8 8.5-9.2 15.1-4.6 2.3 2.3 1.1 6.2 0.6 9.1 18.4 11.9 35.7 50.4 23.6 81-10.5 26-15.5 53.7 3 69.8 6.7 5 14 9.6 14.3 18.5-0.1 3.7-3.6 5.5-6.2 3.2l-6.2-6.2c-2.4 14.4-2.9 28.8-2 43.2 7 6.7 12.5 14.1 15.3 22.8 1.2 3.9 2.6 10-1.2 12-7.4 4.1-15 8.1-19 14.5-8 10.7-19.8 15.4-35.5 13.8-12.5-1.8-9.5-23.2-1-25 7.5-1.4 15.1-3 23-6 5.1-2.1 0-15.5-6.5-14-23.9 4.2-30.7-13.9-35.2-36.2-36.1-18.2-56-127.4-6.2-139.8 6.6-1.4 8-6 8.9-10.9z"/>
</g>
<g transform="rotate(-28 310,180)">
<defs>
<path id="m" d="m311.7 152.5c-15.7 3.8-25.5 14.6-34.8 25.5-8.1 7.9-17.9 17.2-28.1 20.5-13.5 4.4-27 8.9-38.2 15.6-6-4.2-7.4-9-10.4-13.6-6.7-10.2-26.3-1.8-23.2 8 2.4 10.6 8.4 19.9 20.7 26.7 2.7 2.5 5.9 4.4 13.8 0.4l41.9-2.1c19.5-1.2 37.1-12.3 53.2-28.5"/>
</defs>
<use fill="none" stroke="#d23e32" stroke-width="4px" xlink:href="#m"/>
<use fill="black" xlink:href="#m"/>
<path d="m311.7 152.5c-15.7 3.8-25.5 14.6-34.8 25.5l40-20z"/>
<use transform="translate(19,78) rotate(-22 190,205)" xlink:href="#l"/>
</g>
<g fill="none" stroke="#d23e32" stroke-linecap="round">
<path d="m290 256.6c-8.5 4.1-7.1 16.2-6 27.4" stroke-width="2px"/>
<path d="m259.4 99.2c0 4.9-2.1 8.3-6.4 10.2" stroke-width="1px"/>
<path d="m307.3 89.7c-1.6-5.6 5-8.1 11.8-3.1" stroke-width="1px"/>
</g>
<path d="m287.7 96.2-8.8-0.9c-5-0.4-5.7 9.8 2 7.3 3.2-1.4 5.4-3.6 6.7-6.5z" fill="#fff"/>
<circle cx="280" cy="99" r="2"/>
<g id="l">
<g fill="#ffc914" stroke="#000" stroke-width="1px">
<path d="m202 107.2c6.4 1.4 10.5 5 10.4 10.2l-0.2 6.6c-0 2.6-4.1-2.2-4.5-5.1-0.4-4.6-3.2-8.1-5.7-11.6z"/>
<path d="m190.4 110.5c9-1.9 12.7 2 15 7.5 1.6 4-4.7 5.6-5 2.8-0.7-4.8-4.5-8-10-10.3z"/>
<path d="m181.8 116.7c7.9-5 12.2-1 16.4 3.4 2.2 2.4-3.3 6.7-4.9 4.1-2.1-4-5.2-7-11.4-7.5z"/>
<path d="m177.5 123.7c4-2.9 8.9-5.2 14.5 1.9 1.8 2.3-2.5 7.6-3.1 6.2-2-4.9-6.5-6.7-11.4-8z"/>
</g>
</g>
<use id="p" transform="translate(134,160) rotate(-40 200,335)" xlink:href="#l"/>
<use transform="translate(102,-33) rotate(-26 310,353)" xlink:href="#p"/>
</g>
<use transform="scale(.15) translate(550 1080)" fill="#ffc914" stroke="black" stroke-width="5px" xlink:href="#e"/>
<use transform="scale(.15) translate(550 1080)" stroke="black" stroke-width="5px" xlink:href="#f"/>
<g transform="scale(-.12 .12) translate(-1820 1140)">
<g id="q" fill="none" stroke="#000" stroke-linecap="round" stroke-width="3px">
<path d="m522.3 592.4c-20.1-21.7-44.6-38.8-70.8-54.1-8.7 6.3-15.9 14.3-31.9 12.4-8.4-1-15.1 0.7-21.1 5.8-5.4 4.7-14.3-0.2-24.8 11.1-7 8-17.5 11.7-26 15.8" fill="#ddd"/>
<path d="m495.2 586.5c-12.9 26.9-26.9 16.7-42.2 10.2m15.8-14.1c-8-10.2-18.4-16.9-30.9-20.6m14.3 19.1c-12-10.9-26.3-17.2-41.3-21.9m21.5 20.4c-9.2-7.5-19.9-12.3-32.2-13.6m8.1 13.8c-8-6.4-17-10.1-27-11.3"/>
<path d="m292.1 599.1c-13.2-0.8-52-10.7-46.9 6.6-24.1 8.5-30.8 13.4-32.4 18.8" fill="#ddd"/>
<path d="m245.2 605.7c8.9 1.3 18.5 1.2 28.4 0.5"/>
<path d="m365.4 725.6v15.6c-4.4 2.8-8.2 11.5-10.7 18.6-4.6 12.6-14.6 13.4-16.2-8-16.9 23.4-53-24.2-88.6-29.3-9.4-1.5-10.2-6.3-8.8-11.7" fill="#ddd"/>
<path d="m338.5 751.9c0.6-6.6 6-11.3 12.8-15.3m-13.9-1.6c-6.6 5-12.4 10.2-9.5 16.9m-3.6-17.7c-6.2 5.1-8.7 9.5-8.6 13.5m-4.4-15.8c-3.4 2.8-6.2 5.9-7.1 9.7m-4.6-12.7c-4.9 2.8-9.9 5.6-11.5 10.7"/>
<path d="m499.1 752.1c2.3 1.8 5.1 3.7 3.3 12.1-3.3 13.9 10.3 17.4 20.2 19.8-3.9-13.4-7.9-26.8 0.2-41l-30-10" fill="#ddd"/>
<path d="m689.2 687c30.7-11.9 24.2-38.5 4.2-28.4-14.3 6.2-58.1-16.3-82.1-29.9-16.2-8.7-23.8-16.6-37.9-13.5-59.3-41.8-212.2-44-268.6-20.7-27.6 11.9-102.3 37-154.2 42.2-38.7 3-70.9-63.1-109.2-65 17.3 12 24.9 37.7 31.1 65.4 3.3 14.5 8.6 23.5 19.1 28.3-15.4 0.9-25.9 5.3-35.5 30.7-7 17.6-19.6 24.9-31.5 32.3 28.6 10.4 52.5 2 72.5-10.8 19.5-14.1 39.3-20 56.2-20.7 34.3-0.3 99.4 15.7 126.3 25.1 21.8 6.7 43.1 15.6 68.1 11.6 37.3 19.3 86.5 22 132.3 8.8 23.9 6.1 49.9 3.5 68.9-13.5 27.7 1.6 58.1 1.9 89.3-13.9 17.8-9.9 35.2-11.3 52.2-13.9 10.2-1.8 8.8-11.8-1.4-13.8z" fill="#ddd"/>
<path d="m689.2 687c-4.9 0.8-15.9 9.7-32.3 12.9"/>
<path d="m693.4 658.6c-35.1 34.2-63.2 52.5-81.8 48.8"/>
<circle cx="582" cy="656" r="11"/>
<circle cx="582" cy="656" r="3"/>
<path d="m560.1 662.3c6.5 10.8 16.4 14.6 28.2 14.2"/>
<path d="m67.5 592.8c22 18.5 35.3 49.1 69 49.9m-62.1-22.4c15.3 12.9 29 28.7 50.7 30.1m-41.2-8.4c14 14 28 17.7 47.6 21.4-13.6 1.6-30 3.7-39.9 2m-16.5 18.3c19-1.7 20-10 40.7-11m-49.8 24.1c22 4.4 57-24 73-21.6m-87.5 39.1c40.2 1.2 68.2-34.9 91.1-30.6"/>
<path d="m509.3 639.8c-7.6-21.1 1.4-34.7 23.8-43.4m-39.7 47.2c-13.9-0.3-19.2-38.8 14.6-25.8-13.2-4.9-27.8-8.2-20.9-32m-12.7 152.9c-20.6-3-24.7-30-7.7-45.8-28.3 13-34.6-56.1 1-44.4-21.1-9.1-17.8-54.5 17.9-49.7m-40 149.7c-23.2-7.4-20-35.8 10.4-32.1-50.9-4-40.4-56.1-12.1-54.7-22.6-9.2-23.6-40 11.7-44.6-10.6-3-20.5-14.2-15.2-36.4m-9.7 153.9c-41.1 2.5-51-37.6-10.3-47.3-47-5.8-39.2-57.2 8-50.8-28-9-37-41.4 12.1-55.8m-80.3 158.2c4.1-10 12.5-22.6 36.3-21.8-48.3-5.8-41.7-54-7.7-55.2-28.5 7-47.6-55.3 17.7-56.9-12.3-1.6-28.1 3.7-26.9-23.9m-36.6 152.4c-15-18.7-11-48.7 19.4-50.5-39.1-7.8-35.8-47.9 0.6-51-28-7.1-30.5-23.8-25.5-46.2m-20.6 146.6c-11.3-13.4-0.9-26.7 18-25.1-33 1.8-47.7-71.6 0.3-56.5-36.9-3.9-33.6-47 0.1-49.7-10.4 0.7-21.8-1.3-21.8-9.6m-22.3 133.8c-23.6-15.6-16.5-38.7 15-43.6-29 1.7-42.7-53.2 2.5-56-11.5-0.9-29.6 0.6-27.6-22m-28 110c-4.7-8.8 5.8-18.3 24.6-12.4-39.1-5.8-32.4-45.3 2.2-44.1-22.6-1.5-38.8-23.7-18-46.7m-32.9 97.2c-15.5-12.6-14.4-35.4 22.2-31.2-27.2-1.6-33.2-42 0.8-44.3-11.5-0.4-20.5-3.7-18.1-13.1m-36.2 82.1c-0.1-6.6 6.2-11.8 22.2-9.7-36.4-9.2-16.9-40.7 9.1-42-18.8 0-29.9-10.9-11.5-25.9m-28.8 76.1c-17.4-15.5-8.6-33.5 12.7-32.9-16.1 1.6-25.4-21.6-9.5-37"/>
<path d="m538.1 642.4c-9.8 0.2-17.2-4.5-25.8-8.7-51.6-25.1-54 24.3-30.2 28.9-36.8-3.2-21.4 60.4 14 30.4 10-9 18.8-10.7 30-6.9" fill="#ddd"/>
<path d="m485.9 641.3c9.6 9.1 21 12 32.9 12.9m-34.8 28.5c9.5-6.3 18.9-11.5 27.9-11.5"/>
<path d="m573.4 615.1c-38.9 3.8-66.2 84.9-31.1 100.8"/>
<path d="m507.3 693.2c0.6 12.3-9.8 24-27.3 35.3-16 10.1-36.1 36.2-24 41 6.9 2.5 9.1 8.6 4.2 14-4.6 4.3-9 8.8-12.2 14.6-4.9 8.2 1.8 7.7 6.7 6 22.1-9.7 43.7-37.6 44.1-52.1 0.8-17.1 7.8-28.4 16.6-38" fill="#ddd"/>
<path d="m465.8 767.3c5.9-14.3 16.5-26.5 29.1-37.9"/>
</g>
<use transform="translate(0,-350)" xlink:href="#q"/>
</g>
</g>
</svg>
