<?xml version="1.0" encoding="UTF-8"?><svg id="a" xmlns="http://www.w3.org/2000/svg" width="560" height="400" viewBox="0 0 560 400"><rect width="560" height="400" fill="#fff"/><rect width="168" height="400" fill="#f0003f"/><rect x="205" width="355" height="400" fill="#006eb8"/><g><circle cx="497.26" cy="258.03" r="13.5"/><circle cx="439.64" cy="85" r="13.5"/><circle cx="267.26" cy="142.62" r="13.5"/><circle cx="324.26" cy="314.62" r="13.5" transform="translate(-122.76 248.99) rotate(-35.78)"/><path d="M489.66,153.36c5.97,4.46,14.43,3.24,18.9-2.73s3.24-14.43-2.73-18.9c-5.97-4.46-14.43-3.24-18.9,2.73-4.46,5.97-3.24,14.43,2.73,18.9Z"/><path d="M447.59,304.18c-4.34-3.24-9.97-3.47-14.45-1.07,0-3.06,0-24.07,0-51.6,29.61,0,51.6,0,51.6,0l-50.68-50.68,51.7-51.7s-22.48,0-52.64,0c0-29.61,0-51.6,0-51.6l-50.48,50.48-51.21-51.21c1.53-.89,2.9-2.09,4.02-3.59,4.46-5.97,3.24-14.43-2.73-18.9s-14.43-3.24-18.9,2.73c-4.46,5.97-3.24,14.43,2.73,18.9,4.26,3.18,9.77,3.46,14.2,1.21,0,4.71,0,25.43,0,52-29.3,0-50.98,0-50.98,0l50.68,50.68-51.15,51.15c-.89-1.55-2.1-2.95-3.62-4.09-5.97-4.46-14.43-3.24-18.9,2.73s-3.24,14.43,2.73,18.9c5.97,4.46,14.43,3.24,18.9-2.73,3.19-4.27,3.46-9.81,1.18-14.25,4.3,0,24.74,0,51.17,0,0,29.09,0,50.58,0,50.58l50.48-50.48,51.62,51.62c-1.59,.89-3.03,2.12-4.19,3.67-4.46,5.97-3.24,14.43,2.73,18.9,5.97,4.46,14.43,3.24,18.9-2.73,4.46-5.97,3.24-14.43-2.73-18.9Z"/></g></svg>