<?xml version="1.0" encoding="UTF-8" standalone="no"?>
<svg
   xmlns:dc="http://purl.org/dc/elements/1.1/"
   xmlns:cc="http://creativecommons.org/ns#"
   xmlns:rdf="http://www.w3.org/1999/02/22-rdf-syntax-ns#"
   xmlns:svg="http://www.w3.org/2000/svg"
   xmlns="http://www.w3.org/2000/svg"
   xmlns:sodipodi="http://sodipodi.sourceforge.net/DTD/sodipodi-0.dtd"
   xmlns:inkscape="http://www.inkscape.org/namespaces/inkscape"
   inkscape:version="1.0 (4035a4f, 2020-05-01)"
   sodipodi:docname="Black_Flag_Army_Flag.svg"
   xml:space="preserve"
   id="svg2"
   viewBox="0 0 454 341.333"
   height="341.33301"
   width="454"
   version="1.1"><sodipodi:namedview
   inkscape:current-layer="svg2"
   inkscape:window-maximized="0"
   inkscape:window-y="25"
   inkscape:window-x="0"
   inkscape:cy="170.6665"
   inkscape:cx="227"
   inkscape:zoom="2.3171806"
   showgrid="false"
   id="namedview845"
   inkscape:window-height="938"
   inkscape:window-width="1920"
   inkscape:pageshadow="2"
   inkscape:pageopacity="0"
   guidetolerance="10"
   gridtolerance="10"
   objecttolerance="10"
   borderopacity="1"
   bordercolor="#666666"
   pagecolor="#ffffff" /><metadata
   id="metadata9"><rdf:RDF><cc:Work
       rdf:about=""><dc:format>image/svg+xml</dc:format><dc:type
         rdf:resource="http://purl.org/dc/dcmitype/StillImage" /><dc:title /></cc:Work></rdf:RDF></metadata><defs
   id="defs7" />
<rect
   id="rect3"
   y="0"
   x="0"
   height="341.33301"
   width="454" />

<path
   d="m 398.87908,244.43063 c -0.281,1.474 -2.207,1.923 -4.246,2.19 -4.997,0.653 -23.464,2.547 -42.124,2.673 -4.696,0.032 -9.854,-0.059 -15.332,-0.269 -14.759,-0.565 -28.066,-1.866 -30.32,-2.164 -2.816,-0.374 -5.027,-2.944 -7.368,-5.665 -0.313,-0.364 -0.632,-0.734 -0.956,-1.104 -3.037,-3.468 -15.144,-19.506 -26.852,-35.016 -8.55,-11.325 -16.625,-22.021 -21.166,-27.834 -10.233,-13.097 -31.946,-43.497 -42.118,-58.617 -7.187,6.924 -16.094,15.498 -25.528,24.577 -12.7,12.222 -26.353,25.362 -38.04399,36.635 -22.774,21.957 -80.842,71.437 -82.44,72.629 -1.499,1.12 -4.065,2.291 -5.595,2.233 -1.244,-0.048 -1.572,-0.888 -1.643,-1.144 -0.32,-1.158 0.71,-1.897 2.27,-3.016 1.274,-0.913 2.86,-2.05 4.013,-3.525 1.276,-1.634 44.129,-62.678 60.887,-89.825 7.027,-11.384 16.93,-29.191 26.505,-46.412 12.57799,-22.618995 24.45799,-43.982995 28.92899,-49.212995 1.686,-1.972 3.614,-2.964999 5.44,-3.007999 2.341,-0.054 16.024,0.421 18.781,0.527 l 0.127,0.004 c 2.9,0.111 4.035,1.556999 5.028,3.278999 1.075,1.865 18.432,33.488 18.951,34.532 0.359,0.723 1.453,2.895 -0.868,5.472995 -0.156,0.172 -0.888,0.891 -5.055,4.923 18.592,21.441 42.439,42.324 72.867,63.828 38.302,27.07 94.141,64.967 103.01,69.919 1.564,0.87 3.124,1.955 2.847,3.39 z m -144.206,-58.286 c -3.913,-7.77 -14.644,-12.043 -31.892,-12.704 -1.487,-0.057 -3.04,-0.087 -4.631,-0.091 1.903,-11.587 0.381,-20.563 -4.532,-26.694 -5.788,-7.222 -14.232,-7.901 -15.867,-7.963 -0.118,-0.004 -0.226,-0.007 -0.325,-0.008 -0.611,-0.006 -1.112,0.485 -1.119,1.096 -0.087,7.318 -1.142,12.318 -1.912,15.968 -0.309,1.466 -0.577,2.732 -0.701,3.806 -0.212,1.846 0.455,3.591 1.161,5.438 0.798,2.085 1.624,4.241 1.173,6.663 -0.176,0.945 -0.337,1.977 -0.483,3.078 -3.656,0.41 -7.431,0.904 -11.234,1.471 -5.693,0.85 -10.473,0.869 -15.094,0.888 -6.798,0.028 -13.219,0.054 -21.19999,2.808 -0.309,0.106 -0.555,0.344 -0.673,0.649 -0.117,0.305 -0.094,0.647 0.064,0.934 1.034,1.876 10.25299,18.4 15.34499,20.765 1.68,0.78 6.872,1.116 15.903,1.642 6.411,0.374 13.676,0.798 19.408,1.53 9.059,1.155 9.54,2.543 9.554,2.601 -2.491,11.938 -22.504,23.188 -38.584,32.227 -8.922,5.016 -16.62899,9.346 -20.91999,13.321 -0.35,0.324 -0.453,0.831 -0.256,1.266 0.197,0.435 0.645,0.685 1.125,0.637 4.593,-0.479 9.04199,-0.659 13.22199,-0.499 18.787,0.718 28.92,7.828 28.742,12.492 -0.103,2.691 -4.058,4.458 -10.08,4.229 l -0.327,0.088 c -0.004,0 -0.008,0 -0.011,0 -0.497,0 -0.951,0.176 -1.103,0.65 -0.153,0.478 0.029,1.536 0.451,1.807 8.037,5.167 15.407,7.542 21.904,8.542 0.001,0 0.002,0 0.003,0 5.564,0 10.448,-1.996 13.755,-5.304 2.231,-2.231 3.56,-5.319 3.469,-7.676 -0.318,-8.27 -5.676,-12.75 -9.979,-16.244 -2.59,-2.102 -4.827,-3.983 -4.896,-5.947 -0.051,-1.419 0.983,-3.133 3.161,-5.169 1.839,-1.72 4.13,-2.993 6.784,-4.447 3.773,-2.068 8.051,-4.42 12.684,-8.909 16.105,-15.604 32.873,-33.088 27.911,-42.941 z"
   id="path7"
   style="fill:#ffffff;fill-opacity:1" /></svg>
