<svg height="600" viewBox="0 0 238.125 158.75" width="900" xmlns="http://www.w3.org/2000/svg"><path d="m0 0h238.125v158.75h-238.125z" fill="#fff"/><g transform="translate(0 3.409031)"><path d="m86.8893 35.0923c3.8509-14.1538 16.8281-24.6148 32.1732-24.6148s28.3235 10.461 32.1745 24.6148c14.6514-.7115 28.6087 8.3982 33.3508 22.9924 4.7419 14.5939-1.195 30.1682-13.4661 38.2042 5.2041 13.7144.8519 29.8056-11.5624 38.8254-12.4142 9.0193-29.0617 8.1846-40.4962-1.0026-11.4347 9.1868-28.0832 10.0219-40.4977 1.0023-12.414-9.0192-16.7643-25.111-11.5602-38.8251-12.2714-8.036-18.2099-23.6103-13.468-38.2045 4.7418-14.5939 18.701-23.7033 33.3521-22.9921zm32.1732-29.3773c-16.243 0-30.1657 10.2562-35.6292 24.6218-15.3515.7566-29.4062 10.828-34.4256 26.276-5.0193 15.448.4328 31.8586 12.4073 41.4941-4.0237 14.8336 1.2106 31.3131 14.3513 40.8603 13.1407 9.5476 30.4327 9.4329 43.2968 1.022 12.8642 8.4109 30.1549 8.5256 43.2956-1.022 13.1407-9.5472 18.3769-26.028 14.3529-40.8616 11.9742-9.6355 17.425-26.0448 12.4057-41.4928-5.0194-15.4483-19.0741-25.5194-34.4256-26.276-5.4635-14.3659-19.3862-24.6218-35.6292-24.6218z" fill="#000095"/><path d="m119.063 14.4463c-14.6787 0-26.8999 10.8648-29.0366 24.9631-14.0688-2.3244-28.1785 5.9413-32.7143 19.9015-4.5361 13.9605 2.0199 28.9404 14.7682 35.3292-6.558 12.6619-3.0566 28.6359 8.8186 37.2634 11.8751 8.628 28.1495 7.0218 38.1647-3.128 10.0156 10.1498 26.2887 11.756 38.1635 3.128 11.8752-8.6281 15.3781-24.6018 8.8199-37.2634 12.7479-6.3891 19.303-21.369 14.7669-35.3292s-18.6446-22.2259-32.713-19.9015c-2.1368-14.0983-14.3592-24.9631-29.0379-24.9631zm-25.4 29.3687c0-13.9897 11.4103-25.4 25.4-25.4s25.4 11.4103 25.4 25.4c0 .2042-.002.408-.007.6109.1918-.0673.3835-.1334.5778-.1966 13.3052-4.323 27.6826 3.0033 32.0056 16.3081 4.3234 13.3048-3.0026 27.6825-16.3077 32.0056-.194.0632-.3877.1225-.5823.1807.1235.1616.2448.3251.3648.4902 8.2229 11.3179 5.6982 27.2558-5.6198 35.4787-11.3176 8.2229-27.2554 5.6985-35.4784-5.6194-.12-.1651-.2368-.3318-.3521-.4988-.1152.1673-.233.334-.353.4991-8.223 11.3179-24.1611 13.842-35.4791 5.6191-11.3179-8.2229-13.842-24.1608-5.6191-35.4787.12-.1651.2423-.3283.3655-.4896-.1947-.0581-.3893-.1178-.5836-.181-13.3051-4.3231-20.6311-18.7011-16.3081-32.0059 4.3231-13.3051 18.7011-20.6308 32.006-16.3077.1939.0631.3867.1292.5784.1965-.0047-.2032-.0079-.407-.0079-.6112z" fill="#fe0000"/><circle cx="119.062" cy="44.449902" fill="#000095" r="20.6374"/><g fill="#fff" transform="matrix(.08933925 0 0 .08955537 119.062 -26.074952)"><ellipse cy="787" rx="103" ry="103"/><path d="m0 581 24 92c-7-2-16-3-24-3s-17 1-24 3zm36 95 67-68-25 92c-12-10-26-19-42-24zm51 33 92-25-68 67c-5-16-13-30-24-42zm28 54 92 24-92 25c1-8 2-16 2-25 0-8-1-16-2-24zm-4 60 68 68-92-25c11-12 19-27 24-43zm-33 51 25 92-67-67c16-5 30-14 42-25zm-54 28-24 92-24-92c7 2 16 2 24 2s17 0 24-2zm-60-3-67 67 25-92c12 11 26 20 42 25zm-51-33-92 25 68-68c5 16 13 31 24 43zm-28-54-92-25 92-24c-1 8-2 16-2 24 0 9 1 17 2 25zm4-61-68-67 92 25c-11 12-19 26-24 42zm33-51-25-92 67 68c-16 5-30 14-42 24z"/></g><g fill-rule="evenodd" transform="matrix(.31112169 0 0 .31112169 -21.381634 -18.280681)"><path d="m453.73 372.05c-7.89 27.56 7.6 56.55 35.12 65.18 27.44 8.62 56.62-6.23 65.97-33.23.02-.06.06-.13.08-.19.03-.08.05-.18.08-.27.01-.01.03-.04.04-.06.02-.06.03-.12.05-.18v-.02c0-.01.02-.03.01-.04v-.02c.03-.09.09-.17.11-.25.01-.01.01-.05.01-.06.03-.09.06-.18.09-.27 1.56-4.86 1.75-10.23.21-15.5-4.1-14.06-18.82-22.13-32.88-18.03-8.49 2.47-14.81 8.81-17.58 16.54 0 .01-.01.02-.01.03-.04.1-.07.2-.11.3 0 .02 0 .04-.01.06-.01.03-.02.06-.02.09-.02.03-.02.06-.03.09-.02.07-.06.14-.08.21 0 .01.01.02.01.02-2.53 8.25-9.02 15.08-17.92 17.68-14.06 4.1-28.81-3.96-32.91-18.02-1.38-4.76-1.38-9.59-.23-14.06z" fill="#0059d0"/><path d="m348.34 372.05c-7.9 27.56 7.59 56.55 35.11 65.18 27.44 8.62 56.62-6.23 65.97-33.23.02-.06.06-.13.08-.19.03-.08.06-.18.09-.27 0-.01.02-.04.03-.06.02-.06.04-.12.06-.18 0 0-.01-.02-.01-.02 0-.01.02-.03.02-.04 0 0-.01-.02-.01-.02.03-.09.09-.17.12-.25 0-.01.01-.05.01-.06.03-.09.05-.18.08-.27 1.56-4.86 1.75-10.23.21-15.5-4.1-14.06-18.82-22.13-32.88-18.03-8.48 2.47-14.81 8.81-17.57 16.54-.01.01-.02.02-.02.03-.04.1-.07.2-.1.3-.01.02-.01.04-.01.06-.01.03-.02.06-.03.09s-.02.06-.03.09c-.02.07-.05.14-.07.21-.01.01.01.02 0 .02-2.53 8.25-9.02 15.08-17.92 17.68-14.06 4.1-28.8-3.96-32.9-18.02-1.39-4.76-1.39-9.59-.23-14.06z" fill="#fc3517"/><path d="m393.15 302.33c-7.89 27.56 7.6 56.54 35.12 65.18 27.44 8.61 56.62-6.24 65.97-33.24.02-.06.06-.12.08-.18.03-.09.05-.18.08-.27.01-.02.03-.05.04-.07.02-.05.03-.11.05-.17 0-.01 0-.03 0-.03 0-.01.02-.02.01-.03 0 0 0-.02 0-.03.03-.08.09-.16.11-.25.01-.01.01-.04.01-.05.03-.09.06-.18.09-.27 1.56-4.86 1.75-10.24.21-15.51-4.1-14.06-18.82-22.13-32.88-18.03-8.49 2.48-14.81 8.81-17.58 16.54 0 .01-.01.03-.01.04-.04.09-.07.2-.11.3 0 .01 0 .04-.01.05-.01.04-.01.06-.02.09-.01.04-.02.06-.03.09-.02.07-.05.15-.08.21 0 .01.01.02.01.03-2.53 8.24-9.02 15.08-17.92 17.67-14.06 4.1-28.81-3.96-32.91-18.02-1.38-4.75-1.38-9.59-.23-14.05z" fill="#309f3d"/></g></g></svg>