<?xml version="1.0" encoding="UTF-8"?>
<svg width="900" height="600" data-name="Layer 1" version="1.1" viewBox="0 0 900 600" xmlns="http://www.w3.org/2000/svg" xmlns:cc="http://creativecommons.org/ns#" xmlns:dc="http://purl.org/dc/elements/1.1/" xmlns:rdf="http://www.w3.org/1999/02/22-rdf-syntax-ns#">
<rect width="900" height="600" fill="#fff"/>
<polygon transform="matrix(1.4062 0 0 1.4062 -.70312 -38.203)" points="248.2 149.8 243 149.8 219.7 149.8 204.6 149.8 149.5 149.8 44 149.8 80.8 186.9 80.8 215.9 103.3 238.1 125.5 238.1 155.7 268.5 165 268.5 165 331.2 206.4 307.4 206.4 331 254.1 304 254.1 309.1 277.1 309.1 277.1 331.1 300.4 317.8 300.4 331.2 352.2 301.5 352.2 291.6 374.1 291.6 374.1 309.1 444.4 309.1 444.4 331.1 496.1 301.6 496.1 261.5 496.2 261.4 496.1 261.4 496.1 238.1 515.9 238.1 563.6 190.4 560 190.4 579.7 170.7 576.2 170.7 597 149.8 508.7 149.8 456.4 149.8 439 149.8 395.6 149.8 343.9 149.8 315.3 149.8 292.1 149.8 292.1 160.8 278.8 149.8 271.5 149.8" fill="#dcdcdc" stroke-width=".71111"/>
<g>
<path d="m788.34 213.94 29.25-29.391h-398.67v25.453l-30.797-25.453h-103.78v29.391h-10.969v-29.391h-190.97l39.375 39.656v40.781l26.438 26.016h31.219l42.328 42.75h18.281v81.703l55.125-31.5v-50.203h3.2344v81.562l55.125-31.219v-14.344h11.812v21.094h32.344v24.609l32.766-18.562v18.703l55.125-31.5v-17.859h43.734l4.9219-6.6094v31.219h92.109l6.6094-6.6094v31.219l55.125-31.359v-93.094h33.047l49.359-49.359h-5.0625l27.703-27.703zm-383.34 52.594 21.656 17.859h-22.078l0.42187-0.28125zm-131.62-4.6406h10.969v22.5h-10.969zm-96.469-27.984h39.797l1.6875-1.6875v9.4219h-41.484z" fill="#fff"/>
<path d="m776.11 220.83 29.25-29.391h-381.37v31.078l-37.547-31.078h-97.031v29.391h-21.094v-29.391h-173.67l32.344 32.484v40.641l23.484 23.062h61.453l11.531-11.531v15.047h-38.391l38.953 39.234h21.234v78.047l45-25.734v-52.172h13.359v78.047l45-25.453v-16.594h21.938v21.094h32.344v20.953l32.766-18.562v18.703l45-25.734v-19.688h46.266l12.516-17.016v41.484h84.938l13.781-13.781v34.734l45-25.594v-91.828h-143.86v13.219l-9.7031-13.219h-126.7v10.688l-10.828-10.688h-6.4688l14.344-8.2969v-25.312l36.703 30.094h206.02l12.375-16.734v16.734h63.984l39.234-39.234h-5.0625l27.703-27.703zm-138.09 98.438v1.2656h-1.2656zm0 18.562v10.406h-10.406zm-466.17-89.297v-17.859h42.75l8.8594-8.8594v26.719zm82.266 42.75 14.203-8.0156v-24.609h21.094v29.109h32.766v3.5156zm98.859 0 2.1094-1.125v1.125zm197.58-48.234 4.0781 5.4844h-9.7031zm96.328-17.297 8.2969-8.2969v19.266z" fill="#dadada"/>
<path d="m767.11 224.62 29.109-29.391h-368.44v35.297l-42.75-35.297h-91.828v29.391h-28.688v-29.391h-160.73l27 27.141v40.641l21.094 20.812h58.359l16.875-17.016v27.984h-32.906l31.359 31.641h23.484v75.516l37.406-21.375v-54h17.438l3.5156-3.6562v79.031l37.406-21.234v-18h29.531v21.094h32.344v18.141l32.766-18.562v18.562l37.406-21.516v-21.375h48.094l18.281-24.609v49.219h79.594l19.125-19.125v37.406l37.406-21.234v-85.641h-136.27v21.094l-15.469-21.094h-120.94v15.891l-16.172-15.891h-19.266l24.891-14.203v-31.359l41.766 34.453h202.78l18.141-24.469v24.469h58.641l31.641-31.641h-5.0625l27.703-27.562zm-148.5 127.41 23.203-23.203v23.344zm23.344-27.703h-14.344l14.203-14.344zm-133.59 2.5312-0.28125 0.42187h-31.219v-0.70312h31.5zm-134.02-0.28125v4.6406h-29.531v-4.6406zm-206.44-74.391v-25.312h45l14.203-14.344v39.656zm96.609 28.688v-26.016h28.688v29.109h32.766v11.109h-86.203zm73.969 14.062 20.25-11.531v11.531zm197.16-42.75 15.047-15.047 11.25 15.047zm106.03-26.859 17.156-17.016v39.797z" fill="#525151"/>
</g>
<g fill="#fff">
<polygon transform="matrix(1.4062 0 0 1.4062 -.70312 -38.203)" points="200.3 295.5 200.3 255.8 214.5 255.8 230.5 239.6 145.4 239.6 161.5 255.8 180 255.8 180 307.1" stroke-width=".71111"/>
<path d="m329.34 298.73-18.562 18.281v76.5l28.547-16.172v-19.828h38.391v21.094h28.547v-61.594l-18.562-18.281zm48.375 36.281h-38.391v-13.5h38.391z"/>
<polygon transform="matrix(1.4062 0 0 1.4062 -.70312 -38.203)" points="292.1 307.1 312.4 295.6 312.4 239.6 292.1 239.6" stroke-width=".71111"/>
<path d="m442.83 298.73v94.781l28.547-16.172v-23.203h50.344l21.797-29.531-18.984-25.875zm66.375 32.203h-37.828v-9.5625h37.969l3.5156 4.5z"/>
<g stroke-width=".71111">
<polygon transform="matrix(1.4062 0 0 1.4062 -.70312 -38.203)" points="443.2 255.8 459.3 239.6 389.2 239.6 389.2 296.4 441.3 296.4 457.4 280.2 409.4 280.2 409.4 275.7 436.6 275.7 451.7 260.5 409.4 260.5 409.4 255.8"/>
<polygon transform="matrix(1.4062 0 0 1.4062 -.70312 -38.203)" points="459.4 307.1 479.7 295.6 479.7 239.6 459.4 239.6"/>
<polygon transform="matrix(1.4062 0 0 1.4062 -.70312 -38.203)" points="213.2 168.7 213.2 189.6 186.5 189.6 186.5 168.7 167.8 168.7 166.2 168.7 82.8 168.7 97.6 183.5 97.6 212.4 110.8 225.4 149.7 225.4 165.9 209.3 117.9 209.3 117.9 184.8 151.7 184.8 166.2 170.2 166.2 236.1 186.5 224.6 186.5 204.7 213.2 204.7 213.2 225.4 233.5 225.4 233.5 168.7"/>
<polygon transform="matrix(1.4062 0 0 1.4062 -.70312 -38.203)" points="256.8 168.7 236.5 168.7 236.5 236.1 256.8 224.6"/>
<polygon transform="matrix(1.4062 0 0 1.4062 -.70312 -38.203)" points="308.8 197.3 274.1 168.7 259.8 168.7 259.8 236.1 280.1 224.4 280.1 197.4 314.1 225.4 329.1 225.4 329.1 168.7 308.8 168.7"/>
<polygon transform="matrix(1.4062 0 0 1.4062 -.70312 -38.203)" points="392.9 189.6 352.3 189.6 352.3 184.8 386.1 184.8 402.2 168.7 332 168.7 332 225.4 384.1 225.4 400.3 209.3 352.3 209.3 352.3 204.7 379.5 204.7 393.6 190.6 404.1 204.7 444 204.7 446 207.1 444.1 209.3 404.4 209.3 388.4 225.4 455.5 225.4 469.1 207.1 455.9 189.6 416 189.6 414 187.1 415.9 184.8 455.5 184.8 471.7 168.7 404.5 168.7 391 187"/>
<polygon transform="matrix(1.4062 0 0 1.4062 -.70312 -38.203)" points="544.1 184.8 560.2 168.7 473.2 168.7 473.2 225.4 510.4 225.4 526.6 209.3 493.4 209.3 493.4 204.7 527.5 204.7 542.7 189.6 493.4 189.6 493.4 184.8"/>
</g>
</g>
<path d="m315.84 302.81-16.312 16.453h-21.797v57.094l-22.219 12.656v-69.75h-27.844l-16.312-16.453z" fill="#d42a36"/>
<g fill="#2d2d2d">
<path d="m330.61 302.81-16.734 16.453v69.891l22.219-12.656v-21.234h44.719v21.094h22.219v-57.094l-16.734-16.453zm50.203 36.281h-44.719v-19.828h44.719z"/>
<polygon transform="matrix(1.4062 0 0 1.4062 -.70312 -38.203)" points="294.3 303.9 310.1 294.9 310.1 242.5 294.3 242.5" stroke-width=".71111"/>
<path d="m445.92 302.81v86.203l22.219-12.656v-24.469h51.891l19.406-26.297-16.734-22.641zm64.828 32.203h-42.609v-15.75h42.75l5.7656 7.7344z"/>
<g stroke-width=".71111">
<polygon transform="matrix(1.4062 0 0 1.4062 -.70312 -38.203)" points="442.3 254.2 453.9 242.5 391.4 242.5 391.4 294.8 440.3 294.8 452 283.1 407.2 283.1 407.2 274.1 435.6 274.1 446.3 263.5 407.2 263.5 407.2 254.2"/>
<polygon transform="matrix(1.4062 0 0 1.4062 -.70312 -38.203)" points="461.6 242.5 461.6 303.9 477.4 294.9 477.4 242.5"/>
<polygon transform="matrix(1.4062 0 0 1.4062 -.70312 -38.203)" points="215.7 191.6 184.5 191.6 184.5 170.7 168.7 170.7 168.7 232.1 184.5 223.1 184.5 202.3 215.7 202.3 215.7 223 231.5 223 231.5 170.7 215.7 170.7"/>
<polygon transform="matrix(1.4062 0 0 1.4062 -.70312 -38.203)" points="239 232.1 254.8 223.1 254.8 170.7 239 170.7"/>
<polygon transform="matrix(1.4062 0 0 1.4062 -.70312 -38.203)" points="273.6 170.7 262.3 170.7 262.3 232 278 223 278 192.5 315.1 223 327.1 223 327.1 170.7 311.3 170.7 311.3 201.9"/>
<polygon transform="matrix(1.4062 0 0 1.4062 -.70312 -38.203)" points="350.3 211.3 350.3 202.3 378.8 202.3 389.4 191.6 350.3 191.6 350.3 182.4 385.4 182.4 397 170.7 334.5 170.7 334.5 223 383.5 223 395.2 211.3"/>
<polygon transform="matrix(1.4062 0 0 1.4062 -.70312 -38.203)" points="455 191.6 415.1 191.6 411.3 186.9 415.1 182.4 454.8 182.4 466.5 170.7 405.9 170.7 394 186.8 405.5 202.2 445.4 202.2 449.1 206.9 445.4 211.3 405.6 211.3 394 223 454.6 223 466.5 207"/>
<polygon transform="matrix(1.4062 0 0 1.4062 -.70312 -38.203)" points="543.4 182.4 555 170.7 475.7 170.7 475.7 223 509.8 223 521.4 211.3 491.4 211.3 491.4 202.3 526.8 202.3 537.4 191.6 491.4 191.6 491.4 182.4"/>
</g>
</g>
<polygon transform="matrix(1.4062 0 0 1.4062 -.70312 -38.203)" points="115.9 211.3 115.9 182.4 151 182.4 162.6 170.7 112 170.7 88.5 170.7 100.1 182.4 100.1 182.6 100.1 185.1 100.1 211.3 112 223 149 223 160.7 211.3" fill="#3a81c4" stroke-width=".71111"/>
</svg>