<?xml version="1.0" encoding="UTF-8"?>
<!DOCTYPE svg  PUBLIC '-//W3C//DTD SVG 1.1//EN'  'http://www.w3.org/Graphics/SVG/1.1/DTD/svg11.dtd'>
<svg enable-background="new 0 0 1125 750" version="1.1" viewBox="0 0 1125 750" xml:space="preserve" xmlns="http://www.w3.org/2000/svg">

<rect width="1125" height="750" fill="#fff"/>
<g transform="matrix(7.3246 0 0 7.3246 -1620.2 -2787.6)">
	<path d="m326.29 421.62c0 15.661-12.661 28.322-28.321 28.322-15.661 0-28.321-12.661-28.321-28.322 0-15.66 12.66-28.38 28.321-28.38 15.66-1e-3 28.321 12.72 28.321 28.38" fill="#fff"/>
	<path d="m292.81 439.08 1.141 1.5v-25.741h-1.141v24.241zm2.28 3 1.14 1.559v-28.799h-1.14v27.24zm4.5 1.559 1.14-1.559v-27.241h-1.14v28.8zm2.28-28.8v25.741l1.14-1.5v-24.241h-1.14zm-4.5 30.301 0.54 0.781 0.6-0.781v-30.3h-1.14v30.3z" fill="#1B0F7F"/>
	<path d="m289.21 414.84h-14.281l16.441 22.26v-20.041c0-1.199-0.96-2.219-2.16-2.219" fill="#1B0F7F"/>
	<path d="m306.61 414.84h14.279l-16.439 22.26v-20.041c0-1.199 0.96-2.219 2.16-2.219" fill="#1B0F7F"/>
	<path d="m271.93 421.62c0-14.4 11.641-26.04 26.041-26.04s26.041 11.64 26.041 26.04c0 14.34-11.641 25.982-26.041 26.041-14.341-0.059-26.041-11.701-26.041-26.041m8.101-18.001c-4.62 4.62-7.44 10.981-7.44 18 0 7.02 2.82 13.381 7.44 17.94 4.56 4.621 10.92 7.442 17.94 7.442 7.021 0 13.38-2.821 18-7.442 4.561-4.559 7.441-10.92 7.441-17.94s-2.881-13.38-7.441-18c-4.62-4.56-10.979-7.439-18-7.439-7.02 0-13.381 2.88-17.94 7.439" fill="#1B0F7F"/>
	<path d="m269.65 421.62c0-15.66 12.66-28.38 28.321-28.38 15.66 0 28.321 12.721 28.321 28.38 0 15.661-12.661 28.322-28.321 28.322-15.661-1e-3 -28.321-12.662-28.321-28.322m8.52-19.86c-5.1 5.1-8.22 12.121-8.22 19.86 0 7.741 3.12 14.76 8.22 19.801 5.04 5.101 12.06 8.22 19.8 8.22s14.76-3.119 19.8-8.22c5.102-5.041 8.222-12.061 8.222-19.801 0-7.739-3.12-14.76-8.222-19.86-5.04-5.04-12.06-8.22-19.8-8.22s-14.76 3.18-19.8 8.22" fill="#1B0F7F"/>
	<path d="m281.05 411c-0.24 0.479-0.54 0.84-0.84 1.14 0.6 0.36 1.2 0.54 1.8 0.72l-0.3 0.601c-0.78-0.24-1.44-0.54-2.04-0.9-0.54 0.36-1.26 0.66-2.04 0.9l-0.36-0.66c0.721-0.12 1.32-0.36 1.86-0.66-0.36-0.24-0.72-0.6-1.02-0.96l0.539-0.361c0.24 0.361 0.601 0.721 0.961 0.96 0.359-0.239 0.6-0.6 0.84-0.96l0.6 0.18zm-1.08-2.281v0.479h1.92v0.601h-1.08c0.181 0.12 0.36 0.3 0.54 0.42 0.181 0.12 0.36 0.18 0.54 0.3l-0.359 0.6c-0.181-0.119-0.42-0.239-0.601-0.42-0.24-0.18-0.42-0.359-0.6-0.6l0.359-0.3h-2.04l0.36 0.3c-0.12 0.18-0.36 0.42-0.6 0.6-0.24 0.181-0.48 0.301-0.66 0.42l-0.36-0.54c0.181-0.12 0.42-0.24 0.66-0.36 0.18-0.18 0.3-0.3 0.48-0.42h-1.141v-0.601h1.92v-0.479h0.662zm3.72 2.099v1.681c0.24 0.18 0.48 0.3 0.78 0.3 0.18 0.06 0.72 0.06 1.561 0.06 0.48 0 0.9 0 1.26-0.06-0.12 0.18-0.18 0.42-0.24 0.66h-1.56c-0.54 0-0.96-0.061-1.32-0.12-0.24-0.12-0.48-0.24-0.72-0.42-0.181 0.18-0.36 0.359-0.601 0.54-0.12-0.24-0.239-0.42-0.359-0.601 0.18-0.06 0.42-0.18 0.6-0.24v-1.26h-0.54v-0.541h1.139v1e-3zm0.06-0.599-0.42 0.479c-0.181-0.239-0.42-0.42-0.66-0.6l0.36-0.42c0.301 0.18 0.48 0.361 0.72 0.541zm0-1.021-0.36 0.48c-0.24-0.24-0.479-0.42-0.72-0.6l0.42-0.36c0.241 0.121 0.481 0.301 0.66 0.48zm3.301-0.42v0.42c-0.3 0.24-0.6 0.42-0.901 0.601h0.901v2.161c0 0.42-0.24 0.659-0.661 0.659h-0.359l-0.12-0.6c0.18 0.061 0.359 0.061 0.479 0.061 0.061 0 0.121-0.061 0.121-0.24h-0.72v0.72h-0.54v-0.72h-0.66v0.779h-0.54v-2.82h0.96c-0.12-0.12-0.3-0.181-0.42-0.3l0.3-0.181h-0.779v-0.54h2.939zm-1.801 1.801v-0.24h-0.66v0.24h0.66zm0 0.78v-0.3h-0.66v0.3h0.66zm0.241-1.68c0.239-0.12 0.42-0.24 0.6-0.36h-0.96c0.119 0.12 0.24 0.24 0.36 0.36zm1.02 0.9v-0.24h-0.72v0.24h0.72zm0 0.78v-0.3h-0.72v0.3h0.72zm2.82-2.64v0.42h0.96v0.6h-0.54l0.3 0.061c-0.06 0.18-0.12 0.359-0.18 0.54-0.061 0.12-0.061 0.18-0.12 0.24h0.66v0.54h-2.7v-0.54h0.479c-0.06-0.24-0.119-0.421-0.239-0.54l0.54-0.24c0.12 0.18 0.239 0.42 0.3 0.66l-0.24 0.12h0.54c0.06-0.12 0.12-0.24 0.12-0.36 0.06-0.12 0.12-0.3 0.18-0.48h-1.56v-0.6h0.96v-0.42h0.54v-1e-3zm0.78 4.62h-0.54v-0.24h-1.021v0.3h-0.6v-2.04h2.16l1e-3 1.98zm-0.54-0.78v-0.66h-1.021v0.66h1.021zm2.22-1.861c0.18 0.181 0.359 0.361 0.42 0.601 0.12 0.24 0.18 0.479 0.18 0.72 0 0.54-0.24 0.84-0.779 0.84-0.061 0-0.181 0-0.36-0.06l-0.12-0.66c0.18 0.06 0.36 0.12 0.48 0.12 0.119 0 0.239-0.061 0.239-0.24s-0.06-0.36-0.18-0.54c-0.06-0.18-0.24-0.42-0.48-0.6l0.48-1.441h-0.6v4.021h-0.601v-4.561h1.98l-0.659 1.8zm2.22-0.599-0.42 0.48c-0.18-0.24-0.42-0.421-0.66-0.601l0.42-0.36c0.24 0.12 0.42 0.301 0.66 0.481zm0.12 0.78v1.56c0.18 0.18 0.42 0.24 0.72 0.3 0.24 0 0.721 0.061 1.561 0.061 0.479 0 0.899-0.061 1.26-0.12-0.12 0.18-0.18 0.42-0.24 0.66h-1.56c-0.54 0-0.96-0.061-1.32-0.12-0.24-0.061-0.42-0.18-0.66-0.36-0.18 0.181-0.359 0.36-0.54 0.601-0.12-0.24-0.239-0.42-0.42-0.601 0.24-0.12 0.42-0.18 0.601-0.3v-1.08h-0.601v-0.6h1.199v-1e-3zm3.42-1.2h-0.42v0.3h-0.96v0.12h1.08v1.621h-1.08v0.24h1.26v0.42h-1.26v0.3h-0.54v-0.3h-1.26v-0.42h1.26v-0.24h-1.08v-1.621h1.08v-0.12h-1.02v-0.3h-0.36v-0.42l-0.36 0.479c-0.18-0.239-0.42-0.42-0.6-0.6l0.359-0.42c0.24 0.18 0.421 0.3 0.601 0.479v-0.359h3.3v0.841zm-1.92-0.18v-0.181h-0.84v0.181h0.84zm0 1.199v-0.119h-0.54v0.119h0.54zm0 0.601v-0.181h-0.54v0.181h0.54zm0.54-1.8h0.9v-0.181h-0.9v0.181zm0 1.199h0.54v-0.119h-0.54v0.119zm0 0.601h0.54v-0.181h-0.54v0.181zm2.7-2.16v-0.42h0.54v0.42h0.66v0.54h-0.66v0.18h0.6v0.061c0.24-0.181 0.48-0.36 0.601-0.54 0.239-0.181 0.42-0.42 0.6-0.66l0.54 0.12c-0.061 0.06-0.061 0.12-0.12 0.18 0.18 0.18 0.42 0.3 0.6 0.42 0.24 0.18 0.48 0.3 0.721 0.36l-0.301 0.54c-0.18-0.12-0.42-0.24-0.6-0.36v0.42h-1.32v-0.3c-0.18 0.06-0.3 0.18-0.479 0.3l-0.24-0.3v1.92h-0.6v0.18h0.66v0.54h-0.66v0.66h-0.54v-0.66h-0.66v-0.54h0.66v-0.18h-0.66v-2.161h0.66v-0.18h-0.66v-0.54h0.658zm0 1.559v-0.3h-0.181v0.3h0.181zm0 0.781v-0.3h-0.181v0.3h0.181zm0.48-0.781h0.181v-0.3h-0.181v0.3zm0 0.781h0.181v-0.3h-0.181v0.3zm2.22 1.38c0 0.42-0.181 0.601-0.601 0.601h-0.12l-0.12-0.54c0.061 0.06 0.181 0.06 0.24 0.06 0.061 0 0.12-0.06 0.12-0.24v-0.239h-0.42v0.96h-0.48v-2.821h1.381v2.219zm-0.48-1.5v-0.3h-0.42v0.3h0.42zm0 0.66v-0.24h-0.42v0.24h0.42zm0.059-2.34c-0.119 0.06-0.18 0.18-0.239 0.24h1.02c-0.18-0.181-0.42-0.36-0.6-0.48-0.06 0.06-0.12 0.179-0.181 0.24zm1.021 1.2v1.68h-0.48v-1.68h0.48zm0.6-0.36v2.34c0 0.181 0 0.36-0.06 0.42-0.12 0.12-0.24 0.181-0.48 0.181h-0.3l-0.12-0.54c0.12 0.06 0.24 0.06 0.36 0.06 0.06 0 0.06 0 0.12-0.06v-0.181-2.22h0.48zm2.58-1.68v0.6h-0.72c-0.12 0.36-0.18 0.72-0.3 1.021h1.02v2.46h-0.96v0.42h-0.6v-1.681c0 0.061-0.061 0.061-0.061 0.12l-0.359-0.479c0.18-0.3 0.3-0.661 0.42-1.081 0.12-0.24 0.18-0.54 0.24-0.78h-0.54v-0.6h1.86zm-0.6 3.54v-1.38h-0.36v1.38h0.36zm3.24-3.54v0.54h-0.301v1.319h0.421v0.541h-0.421v2.221h-0.6v-2.221h-0.54v0.061c0 0.479-0.06 0.899-0.24 1.26-0.12 0.36-0.3 0.66-0.479 0.9l-0.48-0.42c0.181-0.24 0.36-0.48 0.48-0.841 0.06-0.3 0.12-0.6 0.12-0.899v-0.061h-0.48v-0.541h0.48v-1.319h-0.36v-0.54h2.4zm-0.9 0.54h-0.54v1.319h0.54v-1.319zm3.18 1.86v-0.6l0.601 0.06v0.541h1.26v1.32c0 0.12 0 0.24 0.06 0.24h0.181 0.18s0.061 0 0.061-0.061c0.06-0.06 0.119-0.239 0.119-0.6l0.601 0.3c0 0.42-0.12 0.72-0.3 0.84-0.061 0.061-0.181 0.061-0.24 0.12h-0.42c-0.36 0-0.54-0.06-0.601-0.12-0.18 0-0.239-0.18-0.239-0.54v-0.899h-0.78c-0.12 0.3-0.24 0.54-0.36 0.779-0.359 0.36-0.84 0.601-1.5 0.841l-0.24-0.54c0.601-0.24 1.021-0.48 1.261-0.721 0.06-0.119 0.12-0.239 0.18-0.359h-1.14v-0.601h1.316zm1.02-2.52v0.42h1.92v0.9h-0.6v-0.36h-0.841v0.479c0 0.181 0.061 0.24 0.061 0.24h0.24 0.239c0.061-0.06 0.061-0.06 0.12-0.06 0.061 0 0.061-0.12 0.061-0.3l0.6 0.239c-0.06 0.301-0.12 0.48-0.18 0.54-0.061 0.061-0.24 0.061-0.42 0.061-0.12 0.06-0.24 0.06-0.42 0.06-0.421 0-0.601 0-0.601-0.06-0.18 0-0.3-0.181-0.3-0.541v-0.66h-0.54c-0.06 0.24-0.18 0.479-0.36 0.72-0.3 0.3-0.72 0.541-1.319 0.601l-0.24-0.601c0.479-0.06 0.84-0.18 1.02-0.359 0.12-0.12 0.24-0.24 0.301-0.36h-0.66v0.36h-0.601v-0.9h1.86v-0.42h0.66v1e-3zm3.24 3.781c-0.061 0.359-0.181 0.659-0.36 0.96l-0.42-0.42c0.12-0.24 0.24-0.48 0.3-0.78 0.061-0.24 0.061-0.54 0.061-0.84v-2.46c0.72 0 1.319-0.061 1.859-0.24l0.3 0.54c-0.479 0.12-0.96 0.24-1.56 0.24v0.54h1.38v1.98h-0.54v-0.24h-0.84c-0.061 0.239-0.12 0.479-0.18 0.72zm0.18-1.261h0.84v-0.66h-0.84v0.66zm3.78-1.98c-0.48 0.18-1.021 0.24-1.561 0.3v0.72h1.62v0.601h-0.479v2.58h-0.601v-2.58h-0.54v0.239c0 0.421-0.12 0.841-0.24 1.261-0.18 0.359-0.359 0.72-0.6 1.08l-0.42-0.42c0.24-0.301 0.36-0.601 0.479-0.9 0.12-0.3 0.181-0.66 0.181-1.021v-2.16c0.66 0 1.26-0.061 1.8-0.24l0.361 0.54z" fill="#1B0F7F"/>
</g>
<g transform="matrix(1.7045 0 0 1.7045 696.53 -454.84)">
	<g transform="matrix(.9856 0 0 .9856 -580.97 -37.568)" fill="#f00">
		<g transform="translate(117.12)">
			<path d="m227.13 668.8h-6.471v-0.507c0.996-0.052 1.666-0.264 2.015-0.635 0.359-0.373 0.541-1.065 0.541-2.082v-12.18c0-1.049-0.189-1.768-0.567-2.157-0.33-0.322-0.993-0.516-1.989-0.584v-0.508h6.471v0.508c-0.921 0.051-1.552 0.221-1.901 0.508-0.453 0.406-0.677 1.151-0.677 2.233v12.18c0 1.066 0.225 1.794 0.677 2.182 0.348 0.321 0.981 0.5 1.901 0.534v0.508z"/>
			<path d="m242.92 650.58c-0.801 0.12-1.298 0.305-1.494 0.559-0.285 0.423-0.429 1.412-0.429 2.969v14.945h-0.044l-10.248-16.037h-0.226v11.394c0 1.472 0.165 2.461 0.495 2.969 0.318 0.524 0.9 0.829 1.743 0.914v0.507h-4.931v-0.507c0.966-0.12 1.56-0.558 1.787-1.321 0.09-0.305 0.137-1.158 0.137-2.562v-12.459c-0.378-0.659-0.694-1.065-0.95-1.217-0.151-0.085-0.476-0.136-0.974-0.153v-0.508h3.121l9.367 14.871v-10.834c0-1.523-0.189-2.512-0.564-2.969-0.258-0.288-0.829-0.474-1.722-0.558v-0.509h4.934v0.506h-2e-3z"/>
			<path d="m253.96 664.12c0 1.338-0.363 2.462-1.086 3.375-0.86 1.083-2.027 1.625-3.507 1.625-0.65 0-1.303-0.17-1.968-0.508-0.649-0.305-1.04-0.456-1.176-0.456-0.514 0-0.802 0.311-0.857 0.938h-0.498l-0.68-5.759h0.521c0.877 3.331 2.359 4.998 4.456 4.998 0.889 0 1.651-0.354 2.286-1.065 0.586-0.676 0.879-1.438 0.879-2.284 0-0.88-0.225-1.649-0.676-2.308-0.53-0.727-1.6-1.71-3.214-2.945-1.326-0.999-2.17-1.733-2.532-2.207-0.71-0.846-1.064-1.886-1.064-3.12 0-1.489 0.399-2.665 1.197-3.528 0.724-0.795 1.624-1.192 2.694-1.192 0.496 0 1.114 0.16 1.855 0.481 0.724 0.321 1.138 0.482 1.243 0.482 0.285 0 0.462-0.118 0.52-0.355 0.032-0.203 0.068-0.406 0.112-0.609h0.497l0.497 5.786h-0.541c-0.242-1.386-0.672-2.529-1.29-3.426-0.768-1.082-1.695-1.624-2.783-1.624-0.664 0-1.253 0.227-1.764 0.684-0.618 0.576-0.927 1.329-0.927 2.258 0 1.202 0.657 2.377 1.967 3.527 1.219 0.982 2.45 1.971 3.686 2.97 1.36 1.302 2.075 2.725 2.153 4.262z"/>
			<path d="m268.23 654.66h-0.497c-0.242-1.573-0.61-2.587-1.105-3.044-0.454-0.423-1.321-0.635-2.604-0.635h-1.309v14.489c0 1 0.164 1.709 0.496 2.131 0.346 0.391 0.986 0.618 1.921 0.686v0.507h-6.219v-0.507c0.965-0.085 1.614-0.364 1.947-0.838 0.268-0.406 0.407-1.183 0.407-2.333v-14.134h-1.357c-1.269 0-2.135 0.227-2.604 0.685-0.466 0.423-0.829 1.421-1.084 2.993h-0.52l0.133-4.542h12.263l0.132 4.542z"/>
			<path d="m275.5 668.8h-6.472v-0.507c0.996-0.052 1.665-0.264 2.012-0.635 0.363-0.373 0.546-1.065 0.546-2.082v-12.18c0-1.049-0.19-1.768-0.569-2.157-0.33-0.322-0.993-0.516-1.988-0.584v-0.508h6.472v0.508c-0.921 0.051-1.555 0.221-1.903 0.508-0.45 0.406-0.674 1.151-0.674 2.233v12.18c0 1.066 0.224 1.794 0.674 2.182 0.348 0.321 0.983 0.5 1.903 0.534v0.508z"/>
			<path d="m288.79 654.66h-0.496c-0.244-1.573-0.612-2.587-1.111-3.044-0.449-0.423-1.32-0.635-2.599-0.635h-1.314v14.489c0 1 0.169 1.709 0.499 2.131 0.345 0.391 0.987 0.618 1.922 0.686v0.507h-6.223v-0.507c0.97-0.085 1.616-0.364 1.946-0.838 0.274-0.406 0.407-1.183 0.407-2.333v-14.134h-1.356c-1.264 0-2.137 0.227-2.6 0.685-0.473 0.423-0.831 1.421-1.09 2.993h-0.52l0.136-4.542h12.261l0.138 4.542z"/>
			<path d="m304.54 650.58c-0.904 0.153-1.483 0.424-1.743 0.812-0.3 0.457-0.448 1.413-0.448 2.867v7.359c0 2.047-0.218 3.577-0.655 4.593-0.8 1.946-2.411 2.919-4.82 2.919-2.291 0-3.815-0.982-4.569-2.944-0.349-0.947-0.52-2.343-0.52-4.188v-8.78c0-1.049-0.167-1.75-0.496-2.106-0.274-0.27-0.872-0.448-1.791-0.533v-0.508h6.042v0.508c-0.935 0.102-1.539 0.297-1.812 0.584-0.346 0.355-0.519 1.04-0.519 2.055v9.009c0 4.061 1.423 6.09 4.277 6.09 1.595 0 2.79-0.828 3.572-2.487 0.349-0.71 0.52-2.03 0.52-3.958v-7.613c0-1.521-0.121-2.495-0.361-2.918-0.225-0.423-0.738-0.677-1.539-0.761v-0.508h4.862v0.508z"/>
			<path d="m317.8 654.66h-0.499c-0.243-1.573-0.612-2.587-1.11-3.044-0.449-0.423-1.32-0.635-2.599-0.635h-1.314v14.489c0 1 0.169 1.709 0.498 2.131 0.346 0.391 0.99 0.618 1.926 0.686v0.507h-6.226v-0.507c0.969-0.085 1.615-0.364 1.945-0.838 0.274-0.406 0.408-1.183 0.408-2.333v-14.134h-1.356c-1.264 0-2.136 0.227-2.6 0.685-0.472 0.423-0.829 1.421-1.089 2.993h-0.52l0.138-4.542h12.258l0.14 4.542z"/>
			<path d="m331.18 664.23-0.951 4.568h-11.783v-0.507c0.816-0.085 1.363-0.255 1.651-0.509 0.394-0.373 0.591-1.074 0.591-2.105v-12.408c0-1.084-0.197-1.801-0.591-2.158-0.254-0.235-0.808-0.397-1.651-0.481v-0.508h11.605l0.067 3.806h-0.471c-0.182-1.302-0.47-2.115-0.863-2.436-0.391-0.338-1.231-0.508-2.508-0.508h-3.26c-0.406 0-0.632 0.018-0.674 0.051-0.155 0.085-0.224 0.389-0.224 0.913v6.521h3.71c0.962 0 1.601-0.185 1.918-0.557 0.262-0.305 0.456-0.989 0.591-2.055h0.473v6.319h-0.473c-0.135-1.151-0.347-1.878-0.631-2.183-0.303-0.32-0.928-0.482-1.877-0.482h-3.71v7.055c0 0.609 0.193 0.999 0.583 1.168 0.38 0.135 1.433 0.203 3.169 0.203 1.406 0 2.43-0.255 3.078-0.762 0.645-0.509 1.236-1.489 1.763-2.944h0.468v-1e-3z"/>
			<path d="m352.47 659.43c0 2.926-0.689 5.294-2.059 7.104-1.328 1.726-3.007 2.589-5.046 2.589-2.025 0-3.696-0.863-5.024-2.589-1.384-1.81-2.08-4.178-2.08-7.104 0-3.063 0.737-5.498 2.221-7.309 1.322-1.624 2.951-2.436 4.883-2.436 1.947 0 3.585 0.813 4.91 2.436 1.464 1.795 2.195 4.23 2.195 7.309zm-1.587-0.026c0-3.01-0.627-5.354-1.877-7.029-1.04-1.352-2.256-2.029-3.639-2.029-1.37 0-2.572 0.677-3.598 2.029-1.251 1.675-1.876 4.019-1.876 7.029 0 2.961 0.605 5.261 1.809 6.903 1.009 1.386 2.231 2.082 3.666 2.082 1.434 0 2.67-0.694 3.71-2.082 1.206-1.642 1.805-3.943 1.805-6.903z"/>
			<path d="m365.09 653.92h-0.498c-0.196-1.302-0.476-2.115-0.857-2.436-0.38-0.338-1.193-0.508-2.445-0.508h-3.303c-0.344 0-0.575 0.085-0.697 0.255-0.108 0.169-0.159 0.456-0.159 0.862v6.47h3.663c0.89 0 1.481-0.177 1.769-0.532 0.211-0.305 0.364-1.031 0.469-2.181h0.571v6.318h-0.571c-0.119-1.202-0.301-1.955-0.54-2.258-0.26-0.27-0.822-0.406-1.698-0.406l-3.663-0.025v6.192c0 1.014 0.19 1.708 0.563 2.08 0.287 0.27 0.864 0.448 1.721 0.533v0.508h-5.949v-0.508c0.89-0.102 1.487-0.33 1.79-0.685 0.302-0.355 0.448-1.116 0.448-2.283v-12.054c0-1.083-0.196-1.81-0.588-2.182-0.241-0.22-0.789-0.372-1.65-0.456v-0.508h11.562l0.062 3.804z"/>
			<path d="m384.24 654.66h-0.499c-0.246-1.573-0.611-2.587-1.111-3.044-0.448-0.423-1.321-0.635-2.598-0.635h-1.315v14.489c0 1 0.17 1.709 0.499 2.131 0.344 0.391 0.987 0.618 1.926 0.686v0.507h-6.227v-0.507c0.971-0.085 1.617-0.364 1.947-0.838 0.274-0.406 0.408-1.183 0.408-2.333v-14.134h-1.356c-1.264 0-2.137 0.227-2.6 0.685-0.473 0.423-0.83 1.421-1.09 2.993h-0.52l0.14-4.542h12.255l0.141 4.542z"/>
			<path d="m398.98 668.8h-3.12l-5.361-8.856-1.897 0.102v5.429c0 1 0.169 1.701 0.499 2.107 0.316 0.389 0.914 0.627 1.785 0.711v0.507h-5.882v-0.507c0.878-0.102 1.454-0.373 1.743-0.813 0.288-0.423 0.428-1.209 0.428-2.359v-11.622c0-1.065-0.169-1.801-0.498-2.207-0.267-0.338-0.829-0.557-1.672-0.659v-0.509h6.014c1.406 0 2.558 0.271 3.457 0.813 1.349 0.811 2.015 2.173 2.015 4.086 0 1.606-0.524 2.808-1.608 3.603-0.589 0.456-1.459 0.804-2.592 1.041l4.568 7.613c0.294 0.524 1.013 0.862 2.121 1.015v0.505zm-4.06-13.829c0-1.76-0.705-2.936-2.089-3.529-0.788-0.371-1.701-0.524-2.741-0.456-0.598 0.034-0.975 0.094-1.125 0.178-0.244 0.169-0.363 0.516-0.363 1.041v6.952c1.792-0.017 3.106-0.194 3.934-0.532 1.589-0.626 2.384-1.845 2.384-3.654z"/>
			<path d="m414.53 668.8h-5.361v-0.507c0.574-0.034 0.988-0.102 1.243-0.203 0.368-0.186 0.552-0.542 0.552-1.065 0-0.423-0.116-1.032-0.374-1.829l-0.809-2.511h-6.34l-1.139 3.222c-0.111 0.338-0.166 0.711-0.166 1.117 0 0.541 0.166 0.896 0.531 1.065 0.17 0.102 0.478 0.169 0.958 0.203v0.507h-4.139v-0.507c0.198-0.034 0.393-0.077 0.591-0.127 0.165-0.052 0.341-0.195 0.51-0.432 0.421-0.609 0.977-1.946 1.651-4.01l4.566-13.93h0.101l5.362 16.011c0.32 1.016 0.687 1.7 1.08 2.057 0.225 0.202 0.618 0.346 1.182 0.431v0.508h1e-3zm-5.053-7.054-2.854-9.313-2.978 9.313h5.832z"/>
			<path d="m430.25 650.58c-0.8 0.12-1.292 0.305-1.489 0.559-0.298 0.423-0.444 1.412-0.444 2.969v14.945h-0.042l-10.235-16.037h-0.226v11.394c0 1.472 0.153 2.461 0.493 2.969 0.306 0.524 0.891 0.829 1.732 0.914v0.507h-4.933v-0.507c0.971-0.12 1.568-0.558 1.792-1.321 0.101-0.305 0.142-1.158 0.142-2.562v-12.459c-0.38-0.659-0.706-1.065-0.957-1.217-0.155-0.085-0.469-0.136-0.977-0.153v-0.508h3.138l9.358 14.871v-10.834c0-1.523-0.191-2.512-0.57-2.969-0.252-0.288-0.83-0.474-1.713-0.558v-0.509h4.933v0.506h-2e-3z"/>
			<path d="m441.28 664.12c0 1.338-0.352 2.462-1.082 3.375-0.857 1.083-2.03 1.625-3.506 1.625-0.647 0-1.299-0.17-1.969-0.508-0.653-0.305-1.047-0.456-1.171-0.456-0.523 0-0.8 0.311-0.857 0.938h-0.507l-0.674-5.759h0.511c0.888 3.331 2.37 4.998 4.463 4.998 0.884 0 1.651-0.354 2.283-1.065 0.59-0.676 0.876-1.438 0.876-2.284 0-0.88-0.223-1.649-0.673-2.308-0.52-0.727-1.603-1.71-3.21-2.945-1.33-0.999-2.172-1.733-2.538-2.207-0.702-0.846-1.06-1.886-1.06-3.12 0-1.489 0.401-2.665 1.202-3.528 0.715-0.795 1.624-1.192 2.69-1.192 0.491 0 1.11 0.16 1.855 0.481 0.716 0.321 1.13 0.482 1.242 0.482 0.281 0 0.457-0.118 0.516-0.355 0.04-0.203 0.076-0.406 0.116-0.609h0.492l0.507 5.786h-0.548c-0.238-1.386-0.667-2.529-1.285-3.426-0.774-1.082-1.693-1.624-2.79-1.624-0.661 0-1.252 0.227-1.755 0.684-0.618 0.576-0.936 1.329-0.936 2.258 0 1.202 0.67 2.377 1.975 3.527 1.224 0.982 2.453 1.971 3.69 2.97 1.349 1.302 2.074 2.725 2.143 4.262z"/>
			<path d="m454.45 655.14c0 1.506-0.422 2.749-1.265 3.731-0.943 1.082-2.487 1.624-4.668 1.624-0.857 0-1.503-0.017-1.937-0.052v5.024c0 1.032 0.19 1.76 0.569 2.183 0.307 0.355 0.913 0.567 1.797 0.635v0.508h-5.935v-0.508c0.884-0.102 1.475-0.39 1.755-0.863 0.252-0.406 0.387-1.176 0.387-2.309v-11.851c0-1.015-0.149-1.683-0.429-2.004-0.265-0.305-0.842-0.516-1.713-0.635v-0.508h5.737c1.639 0 2.976 0.39 3.988 1.168 1.136 0.897 1.714 2.183 1.714 3.857zm-1.59 0.051c0-2.808-1.733-4.213-5.219-4.213-0.435 0-0.708 0.051-0.835 0.152-0.157 0.17-0.226 0.507-0.226 1.014v7.385c0.49 0.067 1.088 0.102 1.792 0.102 2.992 1e-3 4.488-1.479 4.488-4.44z"/>
			<path d="m469.72 659.43c0 2.926-0.682 5.294-2.059 7.104-1.32 1.726-3.005 2.589-5.036 2.589-2.025 0-3.697-0.863-5.035-2.589-1.374-1.81-2.079-4.178-2.079-7.104 0-3.063 0.746-5.498 2.221-7.309 1.32-1.624 2.951-2.436 4.893-2.436 1.937 0 3.576 0.813 4.894 2.436 1.474 1.795 2.201 4.23 2.201 7.309zm-1.589-0.026c0-3.01-0.626-5.354-1.876-7.029-1.04-1.352-2.257-2.029-3.63-2.029-1.38 0-2.58 0.677-3.607 2.029-1.251 1.675-1.875 4.019-1.875 7.029 0 2.961 0.605 5.261 1.813 6.903 1.013 1.386 2.236 2.082 3.67 2.082 1.432 0 2.669-0.694 3.71-2.082 1.193-1.642 1.795-3.943 1.795-6.903z"/>
			<path d="m484.8 668.8h-3.119l-5.362-8.856-1.896 0.102v5.429c0 1 0.167 1.701 0.49 2.107 0.324 0.389 0.923 0.627 1.792 0.711v0.507h-5.89v-0.507c0.889-0.102 1.464-0.373 1.751-0.813 0.28-0.423 0.428-1.209 0.428-2.359v-11.622c0-1.065-0.17-1.801-0.496-2.207-0.278-0.338-0.829-0.557-1.685-0.659v-0.509h6.031c1.39 0 2.551 0.271 3.449 0.813 1.35 0.811 2.017 2.173 2.017 4.086 0 1.606-0.53 2.808-1.61 3.603-0.604 0.456-1.467 0.804-2.591 1.041l4.568 7.613c0.294 0.524 1.013 0.862 2.121 1.015v0.506h2e-3zm-4.077-13.829c0-1.76-0.688-2.936-2.08-3.529-0.773-0.371-1.691-0.524-2.732-0.456-0.605 0.034-0.984 0.094-1.122 0.178-0.256 0.169-0.366 0.516-0.366 1.041v6.952c1.797-0.017 3.105-0.194 3.935-0.532 1.588-0.626 2.365-1.845 2.365-3.654z"/>
			<path d="m497.89 654.66h-0.505c-0.238-1.573-0.61-2.587-1.102-3.044-0.449-0.423-1.329-0.635-2.608-0.635h-1.305v14.489c0 1 0.167 1.709 0.49 2.131 0.353 0.391 0.993 0.618 1.929 0.686v0.507h-6.23v-0.507c0.971-0.085 1.617-0.364 1.955-0.838 0.267-0.406 0.409-1.183 0.409-2.333v-14.134h-1.365c-1.265 0-2.129 0.227-2.591 0.685-0.48 0.423-0.831 1.421-1.098 2.993h-0.511l0.133-4.542h12.262l0.137 4.542z"/>
			<path d="m513.65 668.8h-5.361v-0.507c0.591-0.034 1.005-0.102 1.243-0.203 0.381-0.186 0.57-0.542 0.57-1.065 0-0.423-0.134-1.032-0.386-1.829l-0.815-2.511h-6.341l-1.122 3.222c-0.128 0.338-0.184 0.711-0.184 1.117 0 0.541 0.184 0.896 0.544 1.065 0.158 0.102 0.482 0.169 0.945 0.203v0.507h-4.138v-0.507c0.197-0.034 0.393-0.077 0.591-0.127 0.183-0.052 0.358-0.195 0.51-0.432 0.427-0.609 0.978-1.946 1.652-4.01l4.577-13.93h0.09l5.361 16.011c0.336 1.016 0.688 1.7 1.08 2.057 0.225 0.202 0.62 0.346 1.182 0.431l2e-3 0.508zm-5.043-7.054-2.847-9.313-2.996 9.313h5.843z"/>
			<path d="m526.88 654.66h-0.492c-0.245-1.573-0.61-2.587-1.118-3.044-0.448-0.423-1.313-0.635-2.591-0.635h-1.322v14.489c0 1 0.168 1.709 0.507 2.131 0.34 0.391 0.986 0.618 1.917 0.686v0.507h-6.219v-0.507c0.97-0.085 1.616-0.364 1.938-0.838 0.284-0.406 0.409-1.183 0.409-2.333v-14.134h-1.349c-1.265 0-2.143 0.227-2.607 0.685-0.463 0.423-0.829 1.421-1.081 2.993h-0.529l0.142-4.542h12.258l0.137 4.542z"/>
			<path d="m534.14 668.8h-6.464v-0.507c0.999-0.052 1.665-0.264 2.016-0.635 0.355-0.373 0.532-1.065 0.532-2.082v-12.18c0-1.049-0.188-1.768-0.556-2.157-0.335-0.322-0.994-0.516-1.993-0.584v-0.508h6.464v0.508c-0.913 0.051-1.545 0.221-1.897 0.508-0.449 0.406-0.674 1.151-0.674 2.233v12.18c0 1.066 0.225 1.794 0.674 2.182 0.352 0.321 0.985 0.5 1.897 0.534v0.508h1e-3z"/>
			<path d="m549.51 659.43c0 2.926-0.698 5.294-2.058 7.104-1.338 1.726-3.017 2.589-5.055 2.589-2.013 0-3.695-0.863-5.016-2.589-1.392-1.81-2.08-4.178-2.08-7.104 0-3.063 0.734-5.498 2.22-7.309 1.32-1.624 2.953-2.436 4.876-2.436 1.956 0 3.592 0.813 4.912 2.436 1.462 1.795 2.201 4.23 2.201 7.309zm-1.588-0.026c0-3.01-0.625-5.354-1.875-7.029-1.04-1.352-2.257-2.029-3.649-2.029-1.361 0-2.563 0.677-3.589 2.029-1.251 1.675-1.875 4.019-1.875 7.029 0 2.961 0.605 5.261 1.807 6.903 1.006 1.386 2.225 2.082 3.658 2.082s2.67-0.694 3.71-2.082c1.207-1.642 1.813-3.943 1.813-6.903z"/>
			<path d="m565.63 650.58c-0.801 0.12-1.295 0.305-1.49 0.559-0.296 0.423-0.432 1.412-0.432 2.969v14.945h-0.053l-10.235-16.037h-0.23v11.394c0 1.472 0.157 2.461 0.496 2.969 0.317 0.524 0.891 0.829 1.738 0.914v0.507h-4.928v-0.507c0.962-0.12 1.559-0.558 1.783-1.321 0.098-0.305 0.141-1.158 0.141-2.562v-12.459c-0.379-0.659-0.695-1.065-0.956-1.217-0.146-0.085-0.47-0.136-0.968-0.153v-0.508h3.127l9.359 14.871v-10.834c0-1.523-0.191-2.512-0.57-2.969-0.251-0.288-0.829-0.474-1.712-0.558v-0.509h4.933v0.506h-3e-3z"/>
		</g>
		
			<path d="m229.3 699.98h-5.907v-0.508c0.92-0.085 1.532-0.305 1.835-0.659 0.302-0.373 0.451-1.142 0.451-2.309v-13.804l-0.227 0.152-5.881 17.128h-0.18l-5.767-17.103-0.158-0.052v13.119c0 1.438 0.174 2.385 0.519 2.842 0.272 0.373 0.844 0.601 1.721 0.685v0.508h-4.933v-0.508c0.888-0.102 1.44-0.33 1.651-0.685 0.211-0.371 0.316-1.318 0.316-2.842v-11.647c0-1.132-0.106-1.843-0.316-2.131-0.183-0.203-0.717-0.33-1.609-0.381v-0.481h3.893l5.178 15.606 5.321-15.606h4.093v0.481c-0.847 0.085-1.388 0.221-1.627 0.406-0.407 0.339-0.611 1.041-0.611 2.106v12.562c0 1.031 0.203 1.733 0.611 2.106 0.268 0.253 0.813 0.423 1.627 0.508v0.507z"/>
			<path d="m236.72 699.98h-6.467v-0.508c0.991-0.052 1.665-0.263 2.009-0.635 0.365-0.372 0.545-1.065 0.545-2.081v-12.181c0-1.049-0.187-1.768-0.565-2.156-0.331-0.322-0.997-0.516-1.989-0.585v-0.508h6.467v0.508c-0.919 0.051-1.554 0.221-1.898 0.509-0.452 0.406-0.679 1.15-0.679 2.232v12.181c0 1.065 0.228 1.793 0.679 2.182 0.344 0.321 0.981 0.499 1.898 0.533v0.509z"/>
			<path d="m252.51 681.76c-0.799 0.12-1.296 0.305-1.492 0.559-0.289 0.423-0.429 1.412-0.429 2.968v14.946h-0.048l-10.247-16.037h-0.224v11.394c0 1.472 0.164 2.461 0.497 2.969 0.317 0.524 0.895 0.829 1.742 0.914v0.509h-4.931v-0.509c0.963-0.118 1.56-0.557 1.786-1.32 0.091-0.305 0.135-1.159 0.135-2.562v-12.459c-0.375-0.659-0.691-1.066-0.95-1.217-0.148-0.085-0.472-0.136-0.97-0.153v-0.508h3.12l9.367 14.87v-10.835c0-1.522-0.189-2.512-0.568-2.968-0.254-0.288-0.829-0.474-1.717-0.559v-0.508h4.932v0.506h-3e-3z"/>
			<path d="m259.68 699.98h-6.472v-0.508c0.996-0.052 1.666-0.263 2.014-0.635 0.36-0.372 0.542-1.065 0.542-2.081v-12.181c0-1.049-0.19-1.768-0.564-2.156-0.335-0.322-0.996-0.516-1.992-0.585v-0.508h6.472v0.508c-0.921 0.051-1.553 0.221-1.9 0.509-0.454 0.406-0.678 1.15-0.678 2.232v12.181c0 1.065 0.224 1.793 0.678 2.182 0.347 0.321 0.979 0.499 1.9 0.533v0.509z"/>
			<path d="m270.81 695.31c0 1.336-0.363 2.462-1.087 3.375-0.858 1.083-2.028 1.625-3.506 1.625-0.648 0-1.305-0.17-1.969-0.509-0.647-0.305-1.04-0.456-1.174-0.456-0.514 0-0.801 0.312-0.859 0.939h-0.498l-0.68-5.759h0.52c0.877 3.331 2.361 4.998 4.456 4.998 0.892 0 1.652-0.355 2.287-1.065 0.587-0.676 0.881-1.438 0.881-2.284 0-0.879-0.226-1.648-0.678-2.308-0.53-0.726-1.599-1.708-3.215-2.944-1.324-0.998-2.17-1.733-2.532-2.207-0.708-0.846-1.062-1.886-1.062-3.12 0-1.49 0.398-2.665 1.198-3.528 0.724-0.795 1.624-1.192 2.691-1.192 0.499 0 1.118 0.161 1.856 0.482 0.723 0.321 1.138 0.482 1.243 0.482 0.288 0 0.462-0.118 0.521-0.355 0.031-0.202 0.07-0.405 0.113-0.609h0.496l0.499 5.786h-0.543c-0.242-1.386-0.673-2.529-1.29-3.426-0.767-1.082-1.694-1.624-2.783-1.624-0.662 0-1.252 0.228-1.764 0.685-0.619 0.576-0.927 1.329-0.927 2.258 0 1.202 0.657 2.377 1.968 3.527 1.221 0.982 2.451 1.972 3.688 2.97 1.357 1.299 2.073 2.722 2.15 4.259z"/>
			<path d="m285.09 685.84h-0.497c-0.24-1.574-0.609-2.587-1.107-3.045-0.454-0.423-1.319-0.635-2.601-0.635h-1.312v14.489c0 0.999 0.165 1.709 0.498 2.131 0.346 0.39 0.986 0.619 1.92 0.685v0.508h-6.219v-0.508c0.963-0.085 1.614-0.363 1.944-0.838 0.27-0.406 0.408-1.183 0.408-2.334v-14.133h-1.357c-1.269 0-2.134 0.228-2.604 0.685-0.467 0.423-0.831 1.421-1.084 2.994h-0.521l0.136-4.542h12.262l0.134 4.543z"/>
			<path d="m299.84 699.98h-3.121l-5.361-8.857-1.899 0.102v5.43c0 0.999 0.164 1.7 0.495 2.106 0.318 0.389 0.912 0.626 1.789 0.711v0.509h-5.882v-0.509c0.873-0.102 1.454-0.372 1.743-0.812 0.284-0.423 0.428-1.209 0.428-2.359v-11.622c0-1.066-0.167-1.801-0.496-2.207-0.274-0.339-0.831-0.558-1.674-0.66v-0.507h6.018c1.403 0 2.554 0.27 3.461 0.811 1.342 0.81 2.013 2.173 2.013 4.086 0 1.607-0.537 2.808-1.606 3.603-0.604 0.456-1.473 0.804-2.604 1.04l4.572 7.613c0.301 0.524 1.009 0.862 2.125 1.015v0.506h-1e-3zm-4.072-13.83c0-1.759-0.694-2.935-2.08-3.528-0.785-0.371-1.698-0.524-2.738-0.457-0.605 0.034-0.98 0.094-1.131 0.179-0.242 0.169-0.361 0.515-0.361 1.041v6.952c1.794-0.016 3.106-0.194 3.935-0.533 1.585-0.625 2.375-1.843 2.375-3.654z"/>
			<path d="m315.31 681.88c-0.619 0.035-1.079 0.17-1.38 0.407-0.347 0.321-0.844 1.083-1.494 2.284l-3.732 6.927v5.151c0 1.05 0.181 1.776 0.543 2.183 0.347 0.389 1.025 0.6 2.037 0.634v0.509h-6.514v-0.509c1.054-0.067 1.74-0.33 2.057-0.786 0.286-0.389 0.43-1.184 0.43-2.384v-4.771l-3.144-6.064c-0.77-1.489-1.396-2.496-1.878-3.02-0.361-0.389-0.732-0.584-1.108-0.584h-0.294c-0.135 0.017-0.247 0.024-0.337 0.024v-0.584h5.971v0.582c-0.618 0.052-1.058 0.128-1.312 0.229-0.315 0.136-0.475 0.389-0.475 0.761 0 0.305 0.127 0.702 0.384 1.192l3.374 6.244 3.414-6.496c0.211-0.39 0.316-0.72 0.316-0.991 0-0.625-0.476-0.939-1.426-0.939v-0.582h4.57l-2e-3 0.583z"/>
			<path d="m336.69 690.61c0 2.926-0.686 5.294-2.057 7.104-1.326 1.726-3.01 2.589-5.043 2.589-2.023 0-3.697-0.863-5.025-2.589-1.388-1.81-2.079-4.179-2.079-7.104 0-3.063 0.737-5.498 2.216-7.309 1.327-1.624 2.956-2.436 4.889-2.436 1.943 0 3.579 0.813 4.908 2.436 1.458 1.795 2.191 4.231 2.191 7.309zm-1.584-0.025c0-3.01-0.628-5.354-1.878-7.029-1.039-1.353-2.255-2.03-3.639-2.03-1.375 0-2.573 0.677-3.598 2.03-1.251 1.674-1.878 4.018-1.878 7.029 0 2.961 0.603 5.261 1.81 6.902 1.01 1.386 2.232 2.082 3.667 2.082 1.431 0 2.666-0.694 3.709-2.082 1.203-1.642 1.807-3.942 1.807-6.902z"/>
			<path d="m349.31 685.11h-0.499c-0.196-1.302-0.482-2.114-0.856-2.436-0.379-0.339-1.194-0.508-2.445-0.508h-3.302c-0.344 0-0.581 0.085-0.699 0.255-0.106 0.169-0.157 0.456-0.157 0.861v6.47h3.663c0.89 0 1.477-0.177 1.764-0.532 0.211-0.306 0.369-1.032 0.475-2.182h0.564v6.318h-0.564c-0.119-1.201-0.302-1.955-0.541-2.259-0.26-0.269-0.823-0.406-1.699-0.406l-3.663-0.024v6.191c0 1.015 0.186 1.709 0.564 2.081 0.285 0.27 0.859 0.448 1.719 0.533v0.507h-5.949v-0.507c0.89-0.102 1.485-0.33 1.786-0.685 0.3-0.355 0.452-1.115 0.452-2.283v-12.054c0-1.083-0.197-1.81-0.589-2.182-0.24-0.219-0.791-0.372-1.65-0.457v-0.507h11.559l0.067 3.806z"/>
			<path d="m368.45 685.84h-0.497c-0.243-1.574-0.609-2.587-1.107-3.045-0.454-0.423-1.321-0.635-2.6-0.635h-1.313v14.489c0 0.999 0.165 1.709 0.499 2.131 0.343 0.39 0.986 0.619 1.921 0.685v0.508h-6.222v-0.508c0.966-0.085 1.617-0.363 1.946-0.838 0.271-0.406 0.408-1.183 0.408-2.334v-14.133h-1.356c-1.269 0-2.136 0.228-2.605 0.685-0.467 0.423-0.83 1.421-1.084 2.994h-0.519l0.135-4.542h12.26l0.134 4.543z"/>
			<path d="m383.2 699.98h-3.122l-5.362-8.857-1.897 0.102v5.43c0 0.999 0.164 1.7 0.494 2.106 0.318 0.389 0.912 0.626 1.789 0.711v0.509h-5.882v-0.509c0.873-0.102 1.454-0.372 1.743-0.812 0.284-0.423 0.429-1.209 0.429-2.359v-11.622c0-1.066-0.167-1.801-0.498-2.207-0.272-0.339-0.83-0.558-1.672-0.66v-0.507h6.015c1.406 0 2.558 0.27 3.464 0.811 1.342 0.81 2.01 2.173 2.01 4.086 0 1.607-0.535 2.808-1.603 3.603-0.604 0.456-1.472 0.804-2.604 1.04l4.573 7.613c0.301 0.524 1.008 0.862 2.124 1.015v0.506h-1e-3zm-4.07-13.83c0-1.759-0.697-2.935-2.08-3.528-0.787-0.371-1.699-0.524-2.741-0.457-0.601 0.034-0.976 0.094-1.129 0.179-0.241 0.169-0.36 0.515-0.36 1.041v6.952c1.792-0.016 3.106-0.194 3.935-0.533 1.58-0.625 2.375-1.843 2.375-3.654z"/>
			<path d="m398.74 699.98h-5.361v-0.508c0.591-0.034 1.006-0.102 1.244-0.203 0.38-0.186 0.565-0.542 0.565-1.065 0-0.423-0.128-1.032-0.382-1.828l-0.816-2.512h-6.335l-1.13 3.223c-0.123 0.339-0.18 0.711-0.18 1.117 0 0.541 0.18 0.896 0.54 1.065 0.169 0.102 0.485 0.17 0.95 0.203v0.508h-4.14v-0.508c0.197-0.034 0.393-0.077 0.591-0.127 0.182-0.051 0.352-0.195 0.518-0.431 0.421-0.609 0.972-1.946 1.652-4.01l4.567-13.93h0.091l5.362 16.011c0.33 1.016 0.697 1.701 1.087 2.057 0.228 0.202 0.619 0.346 1.175 0.431v0.508h2e-3zm-5.044-7.054-2.851-9.313-2.986 9.313h5.837z"/>
			<path d="m414.46 681.76c-0.796 0.12-1.295 0.305-1.493 0.559-0.289 0.423-0.428 1.412-0.428 2.968v14.946h-0.05l-10.244-16.037h-0.225v11.394c0 1.472 0.162 2.461 0.498 2.969 0.317 0.524 0.893 0.829 1.738 0.914v0.509h-4.929v-0.509c0.963-0.118 1.56-0.557 1.785-1.32 0.091-0.305 0.134-1.159 0.134-2.562v-12.459c-0.373-0.659-0.693-1.066-0.95-1.217-0.149-0.085-0.474-0.136-0.969-0.153v-0.508h3.121l9.368 14.87v-10.835c0-1.522-0.191-2.512-0.57-2.968-0.252-0.288-0.829-0.474-1.714-0.559v-0.508h4.929l-1e-3 0.506z"/>
			<path d="m425.49 695.31c0 1.336-0.359 2.462-1.082 3.375-0.861 1.083-2.031 1.625-3.507 1.625-0.648 0-1.307-0.17-1.966-0.509-0.65-0.305-1.04-0.456-1.178-0.456-0.513 0-0.796 0.312-0.86 0.939h-0.499l-0.674-5.759h0.519c0.872 3.331 2.361 4.998 4.456 4.998 0.888 0 1.651-0.355 2.283-1.065 0.591-0.676 0.883-1.438 0.883-2.284 0-0.879-0.229-1.648-0.68-2.308-0.526-0.726-1.599-1.708-3.211-2.944-1.329-0.998-2.171-1.733-2.537-2.207-0.708-0.846-1.06-1.886-1.06-3.12 0-1.49 0.4-2.665 1.201-3.528 0.723-0.795 1.617-1.192 2.691-1.192 0.494 0 1.113 0.161 1.855 0.482 0.725 0.321 1.139 0.482 1.243 0.482 0.285 0 0.456-0.118 0.52-0.355 0.027-0.202 0.066-0.405 0.112-0.609h0.5l0.494 5.786h-0.544c-0.238-1.386-0.667-2.529-1.285-3.426-0.774-1.082-1.7-1.624-2.782-1.624-0.668 0-1.251 0.228-1.764 0.685-0.619 0.576-0.927 1.329-0.927 2.258 0 1.202 0.652 2.377 1.966 3.527 1.223 0.982 2.45 1.972 3.685 2.97 1.362 1.299 2.078 2.722 2.148 4.259z"/>
			<path d="m438.66 686.32c0 1.507-0.422 2.749-1.265 3.731-0.934 1.083-2.488 1.625-4.663 1.625-0.861 0-1.508-0.017-1.943-0.052v5.024c0 1.032 0.185 1.76 0.56 2.183 0.317 0.354 0.922 0.567 1.814 0.634v0.509h-5.952v-0.509c0.892-0.102 1.476-0.39 1.763-0.862 0.258-0.406 0.387-1.177 0.387-2.309v-11.851c0-1.014-0.146-1.682-0.429-2.004-0.273-0.305-0.847-0.516-1.721-0.635v-0.508h5.749c1.644 0 2.967 0.389 3.976 1.168 1.149 0.895 1.724 2.181 1.724 3.856zm-1.582 0.051c0-2.808-1.742-4.213-5.228-4.213-0.436 0-0.717 0.052-0.835 0.153-0.155 0.169-0.224 0.506-0.224 1.013v7.385c0.494 0.067 1.088 0.102 1.783 0.102 3.001 0 4.504-1.48 4.504-4.44z"/>
			<path d="m453.93 690.61c0 2.926-0.69 5.294-2.059 7.104-1.329 1.726-3.008 2.589-5.045 2.589-2.019 0-3.697-0.863-5.024-2.589-1.385-1.81-2.081-4.179-2.081-7.104 0-3.063 0.74-5.498 2.221-7.309 1.329-1.624 2.953-2.436 4.884-2.436 1.946 0 3.585 0.813 4.911 2.436 1.462 1.795 2.193 4.231 2.193 7.309zm-1.581-0.025c0-3.01-0.629-5.354-1.883-7.029-1.041-1.353-2.25-2.03-3.64-2.03-1.371 0-2.573 0.677-3.598 2.03-1.251 1.674-1.876 4.018-1.876 7.029 0 2.961 0.604 5.261 1.813 6.902 1.006 1.386 2.227 2.082 3.661 2.082 1.433 0 2.67-0.694 3.71-2.082 1.208-1.642 1.813-3.942 1.813-6.902z"/>
			<path d="m469.02 699.98h-3.119l-5.362-8.857-1.896 0.102v5.43c0 0.999 0.159 1.7 0.489 2.106 0.32 0.389 0.914 0.626 1.793 0.711v0.509h-5.881v-0.509c0.87-0.102 1.454-0.372 1.742-0.812 0.281-0.423 0.428-1.209 0.428-2.359v-11.622c0-1.066-0.169-1.801-0.498-2.207-0.275-0.339-0.829-0.558-1.673-0.66v-0.507h6.015c1.407 0 2.557 0.27 3.464 0.811 1.342 0.81 2.009 2.173 2.009 4.086 0 1.607-0.534 2.808-1.605 3.603-0.6 0.456-1.472 0.804-2.604 1.04l4.576 7.613c0.298 0.524 1.004 0.862 2.121 1.015v0.506h1e-3zm-4.068-13.83c0-1.759-0.697-2.935-2.082-3.528-0.787-0.371-1.699-0.524-2.74-0.457-0.605 0.034-0.978 0.094-1.131 0.179-0.24 0.169-0.357 0.515-0.357 1.041v6.952c1.791-0.016 3.104-0.194 3.934-0.533 1.581-0.625 2.376-1.843 2.376-3.654z"/>
			<path d="m482.1 685.84h-0.5c-0.239-1.574-0.61-2.587-1.11-3.045-0.449-0.423-1.314-0.635-2.6-0.635h-1.311v14.489c0 0.999 0.165 1.709 0.496 2.131 0.352 0.39 0.992 0.619 1.926 0.685v0.508h-6.218v-0.508c0.962-0.085 1.608-0.363 1.941-0.838 0.273-0.406 0.407-1.183 0.407-2.334v-14.133h-1.358c-1.265 0-2.129 0.228-2.599 0.685-0.467 0.423-0.831 1.421-1.086 2.994h-0.521l0.139-4.542h12.262l0.132 4.543z"/>
			<path d="m497.86 699.98h-5.361v-0.508c0.59-0.034 1.005-0.102 1.243-0.203 0.381-0.186 0.561-0.542 0.561-1.065 0-0.423-0.126-1.032-0.378-1.828l-0.814-2.512h-6.34l-1.131 3.223c-0.12 0.339-0.174 0.711-0.174 1.117 0 0.541 0.174 0.896 0.541 1.065 0.16 0.102 0.484 0.17 0.948 0.203v0.508h-4.138v-0.508c0.197-0.034 0.393-0.077 0.591-0.127 0.176-0.051 0.35-0.195 0.518-0.431 0.421-0.609 0.969-1.946 1.652-4.01l4.566-13.93h0.092l5.362 16.011c0.329 1.016 0.694 1.701 1.08 2.057 0.227 0.202 0.619 0.346 1.183 0.431l-1e-3 0.507zm-5.045-7.054-2.854-9.313-2.987 9.313h5.841z"/>
			<path d="m511.1 685.84h-0.49c-0.248-1.574-0.62-2.587-1.12-3.045-0.448-0.423-1.312-0.635-2.599-0.635h-1.313v14.489c0 0.999 0.167 1.709 0.498 2.131 0.352 0.39 0.992 0.619 1.926 0.685v0.508h-6.219v-0.508c0.962-0.085 1.608-0.363 1.944-0.838 0.27-0.406 0.402-1.183 0.402-2.334v-14.133h-1.356c-1.264 0-2.128 0.228-2.599 0.685-0.463 0.423-0.83 1.421-1.083 2.994h-0.521l0.136-4.542h12.253l0.141 4.543z"/>
			<path d="m518.35 699.98h-6.464v-0.508c0.997-0.052 1.664-0.263 2.016-0.635 0.349-0.372 0.532-1.065 0.532-2.081v-12.181c0-1.049-0.19-1.768-0.554-2.156-0.337-0.322-0.997-0.516-1.994-0.585v-0.508h6.464v0.508c-0.913 0.051-1.544 0.221-1.898 0.509-0.449 0.406-0.673 1.15-0.673 2.232v12.181c0 1.065 0.224 1.793 0.673 2.182 0.353 0.321 0.985 0.499 1.898 0.533v0.509z"/>
			<path d="m533.72 690.61c0 2.926-0.699 5.294-2.059 7.104-1.338 1.726-3.016 2.589-5.055 2.589-2.024 0-3.696-0.863-5.016-2.589-1.392-1.81-2.079-4.179-2.079-7.104 0-3.063 0.729-5.498 2.222-7.309 1.32-1.624 2.95-2.436 4.873-2.436 1.956 0 3.593 0.813 4.912 2.436 1.463 1.795 2.202 4.231 2.202 7.309zm-1.59-0.025c0-3.01-0.625-5.354-1.876-7.029-1.039-1.353-2.255-2.03-3.648-2.03-1.362 0-2.563 0.677-3.588 2.03-1.251 1.674-1.876 4.018-1.876 7.029 0 2.961 0.605 5.261 1.796 6.902 1.012 1.386 2.235 2.082 3.668 2.082s2.671-0.694 3.71-2.082c1.209-1.642 1.814-3.942 1.814-6.902z"/>
			<path d="m549.85 681.76c-0.802 0.12-1.294 0.305-1.49 0.559-0.297 0.423-0.443 1.412-0.443 2.968v14.946h-0.043l-10.236-16.037h-0.226v11.394c0 1.472 0.153 2.461 0.493 2.969 0.307 0.524 0.89 0.829 1.732 0.914v0.509h-4.932v-0.509c0.971-0.118 1.568-0.557 1.792-1.32 0.101-0.305 0.142-1.159 0.142-2.562v-12.459c-0.38-0.659-0.705-1.066-0.957-1.217-0.156-0.085-0.469-0.136-0.977-0.153v-0.508h3.137l9.36 14.87v-10.835c0-1.522-0.191-2.512-0.57-2.968-0.252-0.288-0.829-0.474-1.713-0.559v-0.508h4.934v0.506h-3e-3z"/>
			<path d="m571.54 699.98h-5.361v-0.508c0.592-0.034 1.006-0.102 1.243-0.203 0.381-0.186 0.569-0.542 0.569-1.065 0-0.423-0.134-1.032-0.385-1.828l-0.816-2.512h-6.34l-1.123 3.223c-0.128 0.339-0.183 0.711-0.183 1.117 0 0.541 0.183 0.896 0.537 1.065 0.164 0.102 0.488 0.17 0.952 0.203v0.508h-4.137v-0.508c0.197-0.034 0.392-0.077 0.591-0.127 0.183-0.051 0.358-0.195 0.51-0.431 0.421-0.609 0.978-1.946 1.652-4.01l4.582-13.93h0.085l5.361 16.011c0.339 1.016 0.688 1.701 1.082 2.057 0.224 0.202 0.618 0.346 1.181 0.431v0.507zm-5.052-7.054-2.838-9.313-2.995 9.313h5.833z"/>
			<path d="m587.26 681.76c-0.802 0.12-1.292 0.305-1.49 0.559-0.298 0.423-0.427 1.412-0.427 2.968v14.946h-0.043l-10.251-16.037h-0.226v11.394c0 1.472 0.17 2.461 0.491 2.969 0.324 0.524 0.907 0.829 1.751 0.914v0.509h-4.934v-0.509c0.956-0.118 1.551-0.557 1.776-1.32 0.099-0.305 0.141-1.159 0.141-2.562v-12.459c-0.38-0.659-0.688-1.066-0.957-1.217-0.14-0.085-0.469-0.136-0.96-0.153v-0.508h3.121l9.358 14.87v-10.835c0-1.522-0.191-2.512-0.555-2.968-0.266-0.288-0.832-0.474-1.729-0.559v-0.508h4.933l1e-3 0.506z"/>
			<path d="m602.47 690.69c0 2.369-0.563 4.381-1.672 6.04-1.484 2.166-3.703 3.248-6.685 3.248h-6.198v-0.508c0.903-0.085 1.488-0.288 1.793-0.609 0.293-0.339 0.449-1.008 0.449-2.004v-12.409c0-1.049-0.162-1.742-0.469-2.081-0.253-0.27-0.843-0.456-1.773-0.557v-0.508h5.891c2.698 0 4.792 0.786 6.28 2.359 1.59 1.624 2.384 3.968 2.384 7.029zm-1.793 0.027c0-2.808-0.688-5.008-2.079-6.598-1.095-1.302-3.052-1.954-5.833-1.954-0.549 0-0.898 0.127-1.039 0.381-0.101 0.152-0.144 0.466-0.144 0.939v14.286c0 0.576 0.127 0.956 0.367 1.142 0.184 0.134 0.539 0.203 1.102 0.203 5.09-1e-3 7.626-2.801 7.626-8.399z"/>
			<path d="m623.14 696.83c-0.339 0.642-0.877 1.285-1.651 1.928-1.264 1.032-2.691 1.548-4.28 1.548-1.983 0-3.643-0.745-4.976-2.233-1.546-1.743-2.323-4.238-2.323-7.487 0-2.993 0.767-5.404 2.304-7.232 1.406-1.657 3.113-2.487 5.136-2.487 0.802 0 1.645 0.152 2.529 0.457 0.893 0.305 1.357 0.456 1.385 0.456 0.394 0 0.652-0.287 0.794-0.863l0.585-0.051 0.175 6.116-0.473 0.052c-0.716-3.57-2.325-5.354-4.813-5.354-0.718 0-1.433 0.143-2.18 0.431-0.816 0.355-1.454 0.811-1.916 1.371-1.25 1.573-1.883 3.957-1.897 7.156-0.015 2.841 0.668 5.057 2.059 6.648 1.166 1.353 2.584 2.029 4.243 2.029 1.855 0 3.528-0.979 5.033-2.943l0.266 0.458z"/>
			<path d="m638.78 690.61c0 2.926-0.697 5.294-2.058 7.104-1.338 1.726-3.017 2.589-5.054 2.589-2.014 0-3.695-0.863-5.017-2.589-1.392-1.81-2.08-4.179-2.08-7.104 0-3.063 0.734-5.498 2.221-7.309 1.321-1.624 2.952-2.436 4.876-2.436 1.955 0 3.592 0.813 4.912 2.436 1.46 1.795 2.2 4.231 2.2 7.309zm-1.589-0.025c0-3.01-0.625-5.354-1.876-7.029-1.039-1.353-2.257-2.03-3.648-2.03-1.362 0-2.563 0.677-3.588 2.03-1.252 1.674-1.876 4.018-1.876 7.029 0 2.961 0.605 5.261 1.808 6.902 1.006 1.386 2.224 2.082 3.658 2.082 1.433 0 2.67-0.694 3.71-2.082 1.206-1.642 1.812-3.942 1.812-6.902z"/>
			<path d="m658.29 699.98h-5.895v-0.508c0.913-0.085 1.524-0.305 1.83-0.659 0.298-0.373 0.453-1.142 0.453-2.309v-13.804l-0.224 0.152-5.89 17.128h-0.184l-5.769-17.103-0.151-0.052v13.119c0 1.438 0.17 2.385 0.517 2.842 0.269 0.373 0.843 0.601 1.719 0.685v0.508h-4.928v-0.508c0.89-0.102 1.44-0.33 1.655-0.685 0.207-0.371 0.31-1.318 0.31-2.842v-11.647c0-1.132-0.103-1.843-0.31-2.131-0.182-0.203-0.723-0.33-1.608-0.381v-0.481h3.891l5.182 15.606 5.312-15.606h4.088v0.481c-0.843 0.085-1.381 0.221-1.625 0.406-0.408 0.339-0.612 1.041-0.612 2.106v12.562c0 1.031 0.203 1.733 0.612 2.106 0.277 0.253 0.812 0.423 1.625 0.508v0.507h2e-3z"/>
			<path d="m677.63 699.98h-5.903v-0.508c0.922-0.085 1.532-0.305 1.826-0.659 0.311-0.373 0.461-1.142 0.461-2.309v-13.804l-0.234 0.152-5.874 17.128h-0.183l-5.77-17.103-0.162-0.052v13.119c0 1.438 0.176 2.385 0.528 2.842 0.267 0.373 0.843 0.601 1.714 0.685v0.508h-4.934v-0.508c0.898-0.102 1.442-0.33 1.652-0.685 0.209-0.371 0.324-1.318 0.324-2.842v-11.647c0-1.132-0.115-1.843-0.324-2.131-0.184-0.203-0.709-0.33-1.6-0.381v-0.481h3.885l5.183 15.606 5.314-15.606h4.096v0.481c-0.842 0.085-1.392 0.221-1.63 0.406-0.408 0.339-0.612 1.041-0.612 2.106v12.562c0 1.031 0.203 1.733 0.612 2.106 0.274 0.253 0.816 0.423 1.63 0.508v0.507h1e-3z"/>
			<path d="m693.53 681.76c-0.899 0.153-1.482 0.424-1.736 0.813-0.308 0.456-0.453 1.413-0.453 2.867v7.359c0 2.047-0.224 3.578-0.663 4.593-0.797 1.946-2.397 2.919-4.811 2.919-2.291 0-3.814-0.981-4.568-2.944-0.352-0.948-0.529-2.343-0.529-4.187v-8.78c0-1.049-0.158-1.751-0.49-2.105-0.272-0.27-0.865-0.448-1.793-0.534v-0.507h6.046v0.507c-0.936 0.102-1.541 0.297-1.808 0.585-0.352 0.355-0.527 1.041-0.527 2.054v9.009c0 4.061 1.427 6.089 4.279 6.089 1.601 0 2.787-0.828 3.569-2.487 0.352-0.709 0.529-2.03 0.529-3.957v-7.613c0-1.521-0.129-2.495-0.367-2.917-0.224-0.423-0.742-0.676-1.537-0.762v-0.507h4.86v0.507h-1e-3z"/>
			<path d="m709.28 681.76c-0.796 0.12-1.296 0.305-1.494 0.559-0.281 0.423-0.428 1.412-0.428 2.968v14.946h-0.042l-10.253-16.037h-0.226v11.394c0 1.472 0.17 2.461 0.502 2.969 0.313 0.524 0.897 0.829 1.74 0.914v0.509h-4.934v-0.509c0.972-0.118 1.564-0.557 1.793-1.32 0.083-0.305 0.126-1.159 0.126-2.562v-12.459c-0.371-0.659-0.689-1.066-0.941-1.217-0.156-0.085-0.476-0.136-0.978-0.153v-0.508h3.121l9.37 14.87v-10.835c0-1.522-0.188-2.512-0.564-2.968-0.256-0.288-0.829-0.474-1.721-0.559v-0.508h4.928v0.506h1e-3z"/>
			<path d="m716.45 699.98h-6.465v-0.508c0.994-0.052 1.665-0.263 2.011-0.635 0.355-0.372 0.538-1.065 0.538-2.081v-12.181c0-1.049-0.19-1.768-0.559-2.156-0.332-0.322-0.996-0.516-1.99-0.585v-0.508h6.465v0.508c-0.914 0.051-1.549 0.221-1.897 0.509-0.449 0.406-0.676 1.15-0.676 2.232v12.181c0 1.065 0.227 1.793 0.676 2.182 0.348 0.321 0.983 0.499 1.897 0.533v0.509z"/>
			<path d="m730.7 696.83c-0.328 0.642-0.878 1.285-1.651 1.928-1.265 1.032-2.691 1.548-4.269 1.548-1.991 0-3.649-0.745-4.981-2.233-1.55-1.743-2.329-4.238-2.329-7.487 0-2.993 0.774-5.404 2.304-7.232 1.406-1.657 3.115-2.487 5.137-2.487 0.802 0 1.645 0.152 2.538 0.457 0.892 0.305 1.348 0.456 1.376 0.456 0.392 0 0.652-0.287 0.793-0.863l0.591-0.051 0.18 6.116-0.481 0.052c-0.718-3.57-2.327-5.354-4.815-5.354-0.705 0-1.433 0.143-2.169 0.431-0.816 0.355-1.456 0.811-1.927 1.371-1.251 1.573-1.884 3.957-1.897 7.156-0.014 2.841 0.667 5.057 2.058 6.648 1.181 1.353 2.597 2.029 4.255 2.029 1.854 0 3.532-0.979 5.022-2.943l0.265 0.458z"/>
			<path d="m746.74 699.98h-5.361v-0.508c0.591-0.034 1.006-0.102 1.243-0.203 0.381-0.186 0.569-0.542 0.569-1.065 0-0.423-0.134-1.032-0.385-1.828l-0.816-2.512h-6.339l-1.122 3.223c-0.129 0.339-0.184 0.711-0.184 1.117 0 0.541 0.184 0.896 0.544 1.065 0.159 0.102 0.482 0.17 0.946 0.203v0.508h-4.138v-0.508c0.197-0.034 0.393-0.077 0.591-0.127 0.183-0.051 0.355-0.195 0.516-0.431 0.425-0.609 0.972-1.946 1.654-4.01l4.57-13.93h0.09l5.361 16.011c0.333 1.016 0.69 1.701 1.081 2.057 0.227 0.202 0.618 0.346 1.181 0.431v0.508h-1e-3zm-5.042-7.054-2.849-9.313-2.995 9.313h5.844z"/>
			<path d="m759.97 685.84h-0.496c-0.24-1.574-0.608-2.587-1.114-3.045-0.449-0.423-1.313-0.635-2.593-0.635h-1.32v14.489c0 0.999 0.166 1.709 0.505 2.131 0.345 0.39 0.985 0.619 1.918 0.685v0.508h-6.219v-0.508c0.966-0.085 1.616-0.363 1.94-0.838 0.279-0.406 0.407-1.183 0.407-2.334v-14.133h-1.349c-1.27 0-2.141 0.228-2.608 0.685-0.463 0.423-0.831 1.421-1.081 2.994h-0.527l0.14-4.542h12.262l0.135 4.543z"/>
			<path d="m767.23 699.98h-6.464v-0.508c0.997-0.052 1.665-0.263 2.014-0.635 0.361-0.372 0.535-1.065 0.535-2.081v-12.181c0-1.049-0.184-1.768-0.557-2.156-0.333-0.322-0.993-0.516-1.991-0.585v-0.508h6.464v0.508c-0.913 0.051-1.546 0.221-1.897 0.509-0.448 0.406-0.673 1.15-0.673 2.232v12.181c0 1.065 0.225 1.793 0.673 2.182 0.351 0.321 0.985 0.499 1.897 0.533v0.509h-1e-3z"/>
			<path d="m782.6 690.61c0 2.926-0.692 5.294-2.058 7.104-1.334 1.726-3.015 2.589-5.051 2.589-2.015 0-3.692-0.863-5.018-2.589-1.392-1.81-2.08-4.179-2.08-7.104 0-3.063 0.738-5.498 2.215-7.309 1.326-1.624 2.957-2.436 4.883-2.436 1.951 0 3.586 0.813 4.91 2.436 1.461 1.795 2.199 4.231 2.199 7.309zm-1.586-0.025c0-3.01-0.626-5.354-1.875-7.029-1.041-1.353-2.257-2.03-3.647-2.03-1.369 0-2.565 0.677-3.591 2.03-1.251 1.674-1.875 4.018-1.875 7.029 0 2.961 0.6 5.261 1.807 6.902 1.01 1.386 2.227 2.082 3.66 2.082 1.432 0 2.668-0.694 3.71-2.082 1.206-1.642 1.811-3.942 1.811-6.902z"/>
			<path d="m798.73 681.76c-0.802 0.12-1.298 0.305-1.496 0.559-0.291 0.423-0.427 1.412-0.427 2.968v14.946h-0.052l-10.243-16.037h-0.224v11.394c0 1.472 0.162 2.461 0.497 2.969 0.319 0.524 0.893 0.829 1.743 0.914v0.509h-4.933v-0.509c0.962-0.118 1.558-0.557 1.783-1.32 0.094-0.305 0.141-1.159 0.141-2.562v-12.459c-0.38-0.659-0.695-1.066-0.956-1.217-0.146-0.085-0.47-0.136-0.968-0.153v-0.508h3.123l9.363 14.87v-10.835c0-1.522-0.191-2.512-0.569-2.968-0.252-0.288-0.829-0.474-1.713-0.559v-0.508h4.932v0.506h-1e-3z"/>
			<path d="m809.76 695.31c0 1.336-0.362 2.462-1.088 3.375-0.857 1.083-2.031 1.625-3.507 1.625-0.646 0-1.3-0.17-1.964-0.509-0.65-0.305-1.041-0.456-1.175-0.456-0.516 0-0.802 0.312-0.86 0.939h-0.504l-0.675-5.759h0.522c0.875 3.331 2.359 4.998 4.452 4.998 0.891 0 1.651-0.355 2.283-1.065 0.591-0.676 0.888-1.438 0.888-2.284 0-0.879-0.233-1.648-0.684-2.308-0.523-0.726-1.597-1.708-3.209-2.944-1.331-0.998-2.173-1.733-2.538-2.207-0.704-0.846-1.061-1.886-1.061-3.12 0-1.49 0.399-2.665 1.201-3.528 0.725-0.795 1.623-1.192 2.691-1.192 0.5 0 1.117 0.161 1.855 0.482 0.727 0.321 1.141 0.482 1.243 0.482 0.287 0 0.457-0.118 0.521-0.355 0.033-0.202 0.07-0.405 0.11-0.609h0.501l0.498 5.786h-0.547c-0.241-1.386-0.67-2.529-1.286-3.426-0.774-1.082-1.693-1.624-2.781-1.624-0.666 0-1.251 0.228-1.766 0.685-0.618 0.576-0.925 1.329-0.925 2.258 0 1.202 0.653 2.377 1.965 3.527 1.224 0.982 2.453 1.972 3.689 2.97 1.361 1.299 2.076 2.722 2.151 4.259z"/>
		
	</g>
</g>
</svg>
