<?xml version="1.0" encoding="utf-8"?>
<!-- Generator: Adobe Illustrator 16.0.0, SVG Export Plug-In . SVG Version: 6.00 Build 0)  -->
<!DOCTYPE svg PUBLIC "-//W3C//DTD SVG 1.1//EN" "http://www.w3.org/Graphics/SVG/1.1/DTD/svg11.dtd">
<svg version="1.1"
	 id="svg2" xmlns:dc="http://purl.org/dc/elements/1.1/" xmlns:cc="http://creativecommons.org/ns#" xmlns:rdf="http://www.w3.org/1999/02/22-rdf-syntax-ns#" xmlns:svg="http://www.w3.org/2000/svg" xmlns:sodipodi="http://sodipodi.sourceforge.net/DTD/sodipodi-0.dtd" xmlns:inkscape="http://www.inkscape.org/namespaces/inkscape" inkscape:version="0.48.3.1 r9886" sodipodi:docname="闁哄倹婢樼紓鎾诲棘閸ャ劊鈧"
	 xmlns="http://www.w3.org/2000/svg" xmlns:xlink="http://www.w3.org/1999/xlink" x="0px" y="0px" width="744.063px"
	 height="535.765px" viewBox="0 0 744.063 535.765" enable-background="new 0 0 744.063 535.765" xml:space="preserve">
<sodipodi:namedview  id="base" pagecolor="#ffffff" bordercolor="#666666" borderopacity="1.0" inkscape:zoom="0.49497475" inkscape:cx="41.847433" inkscape:cy="179.24921" showgrid="false" fit-margin-top="0" fit-margin-left="0" fit-margin-right="0" inkscape:pageopacity="0.0" inkscape:pageshadow="2" inkscape:document-units="px" inkscape:window-x="-8" inkscape:window-y="-8" fit-margin-bottom="0" inkscape:window-maximized="1" inkscape:current-layer="layer1" inkscape:window-width="1600" inkscape:window-height="848">
	</sodipodi:namedview>
<g id="layer1" transform="translate(-29.504847,-246.06833)" inkscape:label="Layer 1" inkscape:groupmode="layer">
	<rect id="rect3853" x="29.505" y="246.068" fill="#082B6C" width="744.063" height="535.765"/>
	<rect id="rect3851" x="85.235" y="296.455" fill="#FFFFFF" width="632.598" height="434.994"/>
	<rect id="rect3849" x="105.438" y="319.867" width="592.191" height="388.17"/>
	<rect id="rect3847" x="118.153" y="332.939" fill="#DE2119" width="566.764" height="362.023"/>
	<rect id="rect3843" x="127.278" y="342.226" fill="#FFC500" width="548.512" height="343.452"/>
	<rect id="rect3833" x="127.278" y="447.283" fill="#DE2119" width="203.042" height="8.081"/>
	<rect id="rect3837" x="127.278" y="566.48" fill="#DE2119" width="203.042" height="8.08"/>
	<rect id="rect3839" x="472.749" y="447.283" fill="#DE2119" width="203.041" height="8.081"/>
	<rect id="rect3841" x="472.749" y="566.48" fill="#DE2119" width="203.041" height="8.08"/>
</g>
<rect x="427.031" y="216.883" fill="#C4291F" width="7.5" height="48"/>
<path fill="#C4291F" d="M383.281,176.383v-13.5h-22.5v13.5h-51.25v21h104v6h-104v21h104v6h-104v21h104v6h-104v20.999h90.5v6h-90.5
	v21h90.5v6h-90.5v21h90.5v6h-90.5v34.5h7.5v-27h83v6h-77v20.971h7.5v-13.471h96.5v6h-90.5v7.5h98v-21h-27v-39.75h6v33.75h21v-75h-21
	v33.75h-6v-6.75h-90.5v-6h90.5v-21h-90.5v-5.999h104v-48h-104v-6h104v-21h-104v-6h51.25v-13.5h7.5v13.5h51.25v27h7.5v-34.5H383.281z
	 M400.031,324.882h-83v-6h83V324.882z M421.031,278.382h6v60h-6V278.382z M413.531,243.883h-96.5v-6h96.5V243.883z"/>
<rect x="323" y="351.97" fill="#C4291F" width="7.5" height="0.029"/>
<rect x="427" y="351.97" fill="#C4291F" width="7.5" height="0.029"/>
</svg>
