<?xml version="1.0" encoding="UTF-8" standalone="no"?>
<!-- Generator: Adobe Illustrator 16.0.0, SVG Export Plug-In . SVG Version: 6.00 Build 0)  -->

<svg
   xmlns:dc="http://purl.org/dc/elements/1.1/"
   xmlns:cc="http://creativecommons.org/ns#"
   xmlns:rdf="http://www.w3.org/1999/02/22-rdf-syntax-ns#"
   xmlns:svg="http://www.w3.org/2000/svg"
   xmlns="http://www.w3.org/2000/svg"
   xmlns:sodipodi="http://sodipodi.sourceforge.net/DTD/sodipodi-0.dtd"
   xmlns:inkscape="http://www.inkscape.org/namespaces/inkscape"
   version="1.1"
   id="圖層_1"
   sodipodi:docname="Tainan_flag.svg"
   inkscape:version="0.48.4 r9939"
   x="0px"
   y="0px"
   width="1125px"
   height="750px"
   viewBox="0 0 1125 750"
   enable-background="new 0 0 1125 750"
   xml:space="preserve"><metadata
   id="metadata15"><rdf:RDF><cc:Work
       rdf:about=""><dc:format>image/svg+xml</dc:format><dc:type
         rdf:resource="http://purl.org/dc/dcmitype/StillImage" /></cc:Work></rdf:RDF></metadata><defs
   id="defs13">
	
	
	
</defs>
<sodipodi:namedview
   inkscape:cy="377.03607"
   inkscape:cx="565.51201"
   inkscape:zoom="1"
   fit-margin-left="0"
   fit-margin-top="0"
   showgrid="false"
   guidetolerance="10"
   gridtolerance="10"
   pagecolor="#ffffff"
   borderopacity="1"
   bordercolor="#666666"
   objecttolerance="10"
   id="namedview8090"
   inkscape:pageopacity="0"
   inkscape:current-layer="圖層_1"
   inkscape:window-maximized="1"
   inkscape:window-y="-8"
   inkscape:window-x="-8"
   fit-margin-bottom="0"
   fit-margin-right="0"
   inkscape:window-width="1680"
   inkscape:window-height="998"
   inkscape:pageshadow="2">
	</sodipodi:namedview>
<rect
   id="rect8037"
   x="0"
   y="0"
   width="1125"
   height="750"
   fill="#0075B6"
   style="fill:#095f9a;fill-opacity:1" />
<path
   style="fill:#fd9a3d;fill-rule:evenodd;fill-opacity:1"
   inkscape:connector-curvature="0"
   id="path7"
   d="m 470.067,362.523 c -8.176,-1.895 -16.363,-3.72 -24.559,-5.414 -13.567,-2.527 -25.005,-3.917 -37.238,3.031 -8.344,5.636 -13.738,12.813 -19.187,21.222 -5.504,9.531 -10.291,19.572 -16.574,28.606 -17.201,23.198 -36.608,27.667 -57.307,7.355 -26.78,-29.89 -27.753,-79.236 -15.99,-115.783 11.762,-36.546 41.285,-75.894 80.352,-84.184 28.575,-4.151 41.675,10.979 42.08,39.955 -0.177,11.038 -2.149,21.999 -3.246,32.976 -0.49,10.037 -0.305,19.043 3.164,28.554 5.851,12.879 15.917,18.543 28.363,24.548 7.621,3.494 15.312,6.879 23.032,10.199 -1.103,2.915 -2.068,5.895 -2.89,8.935 l 0,0 z m 153.085,0.342 c 3.147,7.73 4.892,16.187 4.892,25.042 0,1.852 -0.082,3.684 -0.229,5.497 H 497.181 c -0.148,-1.813 -0.229,-3.646 -0.229,-5.497 0,-8.854 1.744,-17.311 4.893,-25.042 h 17.218 v -8.822 h 26.891 v 8.822 h 33.089 v -8.822 h 26.89 v 8.822 h 17.219 l 0,0 z m 28.897,-9.256 c 7.72,-3.322 15.407,-6.704 23.028,-10.197 12.442,-6.005 22.509,-11.668 28.358,-24.548 3.472,-9.51 3.654,-18.517 3.167,-28.553 -1.096,-10.977 -3.07,-21.938 -3.247,-32.976 0.404,-28.976 13.506,-44.106 42.079,-39.954 39.067,8.29 68.588,47.635 80.355,84.182 11.761,36.546 10.787,85.896 -15.992,115.78 -20.701,20.314 -40.107,15.849 -57.309,-7.354 -6.282,-9.036 -11.068,-19.074 -16.572,-28.603 -5.447,-8.412 -10.844,-15.587 -19.187,-21.225 -12.234,-6.949 -23.674,-5.559 -37.24,-3.032 -8.192,1.695 -16.378,3.522 -24.555,5.414 -0.819,-3.038 -1.784,-6.02 -2.885,-8.934 l 0,0 z m -31.723,-86.304 c 20.954,-28.83 47.485,-51.208 77.019,-66.75 -5.521,33.178 -18.423,65.582 -39.131,94.624 -10.849,-11.402 -23.665,-20.884 -37.888,-27.874 l 0,0 z M 466.783,295.18 c -20.711,-29.042 -33.609,-61.452 -39.128,-94.629 29.533,15.542 56.062,37.923 77.018,66.755 -14.224,6.99 -27.042,16.47 -37.89,27.874 l 0,0 z m 86.612,-40.98 c -1.929,-8.66 -5.19,-16.244 -12.396,-22.941 -7.888,-6.269 -16.316,-9.227 -25.922,-11.86 -10.681,-2.339 -21.618,-3.833 -32.072,-7.073 -27.173,-9.344 -37.379,-26.596 -24.639,-52.746 19.883,-34.946 66.076,-51.13 104.142,-51.13 38.065,0 84.258,16.184 104.143,51.13 12.74,26.15 2.531,43.402 -24.639,52.746 -10.456,3.24 -21.394,4.733 -32.074,7.073 -9.606,2.633 -18.033,5.592 -25.922,11.86 -7.206,6.697 -10.47,14.281 -12.398,22.941 -3.014,-0.208 -6.054,-0.324 -9.117,-0.324 -3.063,0 -6.095,0.116 -9.106,0.324 l 0,0 z m 140.633,151.971 c 33.622,11.211 62.888,29.765 86.646,53.306 -32.943,4.951 -67.443,2.584 -101.185,-8.313 7.331,-13.749 12.353,-28.923 14.539,-44.993 l 0,0 z M 585.932,519.84 c -0.173,35.738 -8.606,69.569 -23.441,99.65 -14.836,-30.081 -23.266,-63.912 -23.438,-99.654 7.615,1.38 15.449,2.102 23.447,2.102 7.991,0 15.823,-0.722 23.432,-2.098 l 0,0 z M 445.507,451.159 c -33.746,10.895 -68.247,13.259 -101.195,8.308 23.76,-23.543 53.032,-42.092 86.657,-53.303 2.186,16.068 7.202,31.246 14.538,44.995 l 0,0 z m 202.129,39.454 c 6.623,5.896 13.694,10.123 23.463,11.272 10.029,0.391 18.573,-2.215 27.879,-5.786 10.004,-4.443 19.719,-9.727 30.062,-13.308 27.426,-8.563 45.729,-0.662 50.646,28.055 4.263,40.067 -23.684,80.57 -54.478,103.154 -30.797,22.589 -77.591,36.902 -114.024,20.428 -25.534,-13.595 -27.323,-33.608 -10.779,-57.289 6.572,-8.826 14.55,-16.521 21.828,-24.752 6.24,-7.83 11.332,-15.227 14.065,-24.978 1.935,-9.721 0.141,-17.812 -3.361,-25.987 5.146,-3.267 10.058,-6.88 14.699,-10.809 l 0,0 z m -155.601,10.793 c -3.502,8.177 -5.296,16.265 -3.36,25.988 2.732,9.752 7.826,17.147 14.065,24.979 7.278,8.231 15.258,15.926 21.828,24.749 16.542,23.687 14.754,43.697 -10.778,57.295 -36.433,16.474 -83.228,2.158 -114.023,-20.428 -30.797,-22.588 -58.745,-63.09 -54.482,-103.157 4.919,-28.718 23.222,-36.619 50.645,-28.055 10.346,3.584 20.062,8.863 30.065,13.308 9.305,3.573 17.848,6.179 27.88,5.785 9.767,-1.146 16.841,-5.376 23.466,-11.278 4.642,3.931 9.55,7.548 14.694,10.814 l 0,0 z"
   clip-rule="evenodd" /><path
   style="fill:#e60002;fill-rule:evenodd;fill-opacity:1"
   inkscape:connector-curvature="0"
   id="path9"
   d="m 488.592,499.152 c -9.441,21.584 -6.774,38.666 21.874,67.709 22.197,22.499 29.728,45.587 7.55,60.442 -30.573,20.479 -84.499,7.331 -115.869,-16.605 -32.244,-22.721 -61.297,-70.43 -51.451,-106.107 7.144,-25.885 31.222,-25.79 59.277,-11.432 36.221,18.537 53.142,15.811 70.563,0.067 2.608,2.072 5.296,4.05 8.056,5.926 l 0,0 z M 653.328,357.193 c 44.379,-18.591 64.483,-24.882 55.462,-83.188 -4.858,-31.374 2.492,-54.519 29.084,-53.378 36.659,1.573 72.63,44.207 84.069,82.186 12.858,37.514 8.587,93.35 -20.156,116.372 -20.855,16.703 -40.275,2.337 -54.615,-25.926 -26.648,-52.525 -46.58,-45.679 -93.302,-34.391 -0.176,-0.561 -0.36,-1.118 -0.542,-1.675 l 0,0 z m -182.199,1.673 c -46.73,-11.292 -66.658,-18.138 -93.31,34.389 -14.338,28.262 -33.76,42.628 -54.611,25.928 -28.741,-23.024 -33.017,-78.86 -20.16,-116.375 11.441,-37.978 47.413,-80.612 84.07,-82.185 26.594,-1.141 33.945,22.006 29.087,53.378 -9.028,58.308 11.089,64.598 55.467,83.189 -0.187,0.557 -0.367,1.115 -0.543,1.676 l 0,0 z m 152.84,-89.692 c 18.751,-25.638 42.002,-46.054 67.858,-60.958 -6.053,29.45 -18.115,58.097 -36.495,84.034 -9.246,-9.149 -19.807,-16.946 -31.363,-23.076 l 0,0 z m -154.306,23.074 c -18.378,-25.937 -30.442,-54.584 -36.495,-84.036 25.86,14.904 49.11,35.323 67.861,60.96 -11.555,6.132 -22.118,13.927 -31.366,23.076 l 0,0 z m 87.835,-38.266 c -4.94,-23.015 -17.064,-35.231 -57.107,-41.722 -31.058,-5.032 -50.595,-19.24 -41.302,-44.42 12.809,-34.708 64.093,-56.065 103.409,-55.316 39.317,-0.749 90.601,20.609 103.408,55.316 9.293,25.18 -10.243,39.39 -41.302,44.42 -40.041,6.488 -52.165,18.707 -57.106,41.722 -1.661,-0.063 -3.326,-0.105 -4.998,-0.105 -1.676,-0.001 -3.341,0.042 -5.002,0.105 l 0,0 z m 135.909,156.272 c 29.927,10.08 56.333,26.086 78.348,46.294 -29.595,3.288 -60.29,0.562 -90.387,-9.052 5.724,-11.572 9.837,-24.085 12.039,-37.242 l 0,0 z m -111.51,110.243 c -0.25,31.848 -7.166,62.141 -19.404,89.527 -12.238,-27.387 -19.155,-57.68 -19.403,-89.53 6.338,0.943 12.817,1.443 19.41,1.443 6.587,10e-4 13.059,-0.496 19.397,-1.44 l 0,0 z M 443.625,447.491 c -30.098,9.613 -60.794,12.338 -90.392,9.052 22.019,-20.212 48.426,-36.218 78.354,-46.299 2.206,13.156 6.315,25.673 12.038,37.247 l 0,0 z m 200.831,45.739 c 17.421,15.739 34.338,18.466 70.56,-0.069 28.059,-14.355 52.136,-14.455 59.279,11.43 9.842,35.681 -19.205,83.389 -51.452,106.11 -31.37,23.937 -85.296,37.086 -115.87,16.606 -22.178,-14.858 -14.647,-37.944 7.551,-60.443 28.649,-29.039 31.315,-46.122 21.876,-67.706 2.758,-1.876 5.447,-3.855 8.056,-5.928 l 0,0 z"
   clip-rule="evenodd" /><path
   style="fill:#ffffff;fill-rule:evenodd"
   inkscape:connector-curvature="0"
   id="path11"
   d="m 498.862,393.404 h 127.269 c 0.189,-2.259 0.258,-4.519 0.216,-6.788 H 498.648 c -0.045,2.269 0.023,4.536 0.214,6.788 l 0,0 z m 127.151,-12.216 c -3.163,-30.59 -27.665,-54.933 -58.138,-57.52 v 57.52 h 58.138 l 0,0 z m -68.893,0 v -57.52 c -30.476,2.585 -54.977,26.929 -58.139,57.52 h 58.139 l 0,0 z m 68.317,17.644 H 499.553 c 0.393,2.305 0.908,4.57 1.538,6.787 h 122.81 c 0.628,-2.216 1.143,-4.482 1.536,-6.787 l 0,0 z M 567.876,289.658 c 51.206,2.833 92.102,45.872 92.102,98.249 0,6.046 -0.548,11.964 -1.59,17.713 h 37.415 c -8.646,66.438 -65.196,118.013 -133.305,118.013 -68.109,0 -124.661,-51.575 -133.304,-118.013 h 37.416 c -1.044,-5.749 -1.592,-11.667 -1.592,-17.713 0,-52.377 40.896,-95.417 92.102,-98.249 v -6.798 c -28.619,1.48 -54.243,14.709 -72.229,34.983 l -22.53,-20.339 c 23.531,-26.529 57.203,-43.711 94.759,-45.215 v -30.624 h 10.756 v 30.624 c 37.556,1.503 71.227,18.686 94.76,45.214 l -22.531,20.34 C 622.123,297.57 596.495,284.341 567.876,282.86 v 6.798 l 0,0 z M 479.593,439.55 c 17.21,28.024 47.958,46.759 82.905,46.759 34.947,0 65.699,-18.734 82.908,-46.759 H 479.593 l 0,0 z"
   clip-rule="evenodd" />
</svg>