<?xml version="1.0" encoding="UTF-8" standalone="no"?>
<svg
   xmlns:dc="http://purl.org/dc/elements/1.1/"
   xmlns:cc="http://creativecommons.org/ns#"
   xmlns:rdf="http://www.w3.org/1999/02/22-rdf-syntax-ns#"
   xmlns:svg="http://www.w3.org/2000/svg"
   xmlns="http://www.w3.org/2000/svg"
   xmlns:sodipodi="http://sodipodi.sourceforge.net/DTD/sodipodi-0.dtd"
   xmlns:inkscape="http://www.inkscape.org/namespaces/inkscape"
   version="1.1"
   width="900"
   height="600"
   id="svg2"
   sodipodi:version="0.32"
   inkscape:version="0.46dev+devel"
   sodipodi:docname="Flag_of_the Minister of Defence of Manchukuo.svg"
   inkscape:output_extension="org.inkscape.output.svg.inkscape">
  <metadata
     id="metadata17">
    <rdf:RDF>
      <cc:Work
         rdf:about="">
        <dc:format>image/svg+xml</dc:format>
        <dc:type
           rdf:resource="http://purl.org/dc/dcmitype/StillImage" />
      </cc:Work>
    </rdf:RDF>
  </metadata>
  <defs
     id="defs15" />
  <sodipodi:namedview
     inkscape:window-height="1029"
     inkscape:window-width="1680"
     inkscape:pageshadow="2"
     inkscape:pageopacity="0.0"
     guidetolerance="10.0"
     gridtolerance="10.0"
     objecttolerance="10.0"
     borderopacity="1.0"
     bordercolor="#666666"
     pagecolor="#ffffff"
     id="base"
     showgrid="false"
     showguides="true"
     inkscape:guide-bbox="true"
     inkscape:zoom="0.42740677"
     inkscape:cx="3.7658953"
     inkscape:cy="431.63742"
     inkscape:window-x="0"
     inkscape:window-y="0"
     inkscape:current-layer="svg2" />
  <rect
     width="900"
     height="600"
     fill="#ffc500"
     id="rect4" />
  <rect
     width="450"
     height="75"
     fill="#de2119"
     id="rect6" />
  <rect
     width="450"
     height="75"
     fill="#08639c"
     y="75"
     id="rect8" />
  <rect
     width="450"
     height="75"
     fill="#fff"
     y="150"
     id="rect10" />
  <rect
     width="450"
     height="75"
     fill="#000"
     y="225"
     id="rect12" />
  <g
     id="g2941"
     transform="translate(951.90625,7.9406778)">
    <path
       id="path2354"
       d="M -276.90625,137.09375 C -296.8145,137.09375 -313.15626,153.46675 -313.15625,173.375 C -313.15624,189.82197 -302.00734,203.83879 -286.90625,208.21875 L -286.90625,234.21875 L -323.65625,234.21875 L -323.65625,254.21875 L -286.90625,254.21875 L -286.90625,365.8125 C -287.45277,385.48716 -290.72832,401.43749 -309.9375,401.4375 C -327.98583,401.4375 -340.91662,388.79149 -348.0625,378.84375 L -338.4375,370.5 C -355.81143,365.18922 -367.99697,353.71142 -376.21875,344.09375 C -379.98612,362.04778 -376.60383,386.73114 -368.75,397.59375 L -360.28125,391.03125 C -329.82205,439.84469 -286.61165,428.1993 -276.90625,442.34375 C -267.20086,428.1993 -223.99046,439.84469 -193.53125,391.03125 L -185.0625,397.59375 C -177.20867,386.73114 -173.82639,362.04778 -177.59375,344.09375 C -185.81553,353.71142 -198.00108,365.18922 -215.375,370.5 L -205.75,378.84375 C -212.89588,388.79149 -225.82668,401.4375 -243.875,401.4375 C -263.08418,401.43749 -266.35974,385.48716 -266.90625,365.8125 L -266.90625,254.21875 L -230.15625,254.21875 L -230.15625,234.21875 L -266.90625,234.21875 L -266.90625,208.21875 C -251.81286,203.82935 -240.65625,189.81155 -240.65625,173.375 C -240.65625,153.46676 -256.99801,137.09375 -276.90625,137.09375 z M -276.90625,157.09375 C -267.81927,157.09375 -260.625,164.28802 -260.625,173.375 C -260.62502,182.46198 -267.81927,189.625 -276.90625,189.625 C -285.99323,189.62499 -293.15625,182.46198 -293.15625,173.375 C -293.15627,164.28803 -285.99323,157.09375 -276.90625,157.09375 z"
       style="opacity:1;fill:#08639c;fill-opacity:1;fill-rule:nonzero;stroke:#000000;stroke-width:1;stroke-linecap:round;stroke-linejoin:round;stroke-miterlimit:4;stroke-dasharray:none;stroke-dashoffset:0;stroke-opacity:1" />
    <path
       id="path2929"
       d="M -272.375,170.125 C -275.2909,170.18171 -277.91424,171.92645 -279.09375,174.59375 C -280.27326,177.26104 -279.79507,180.36727 -277.875,182.5625 C -268.80662,193.208 -250.28125,219.01918 -250.28125,241.8125 C -250.28125,257.0868 -257.32321,268.6765 -266.90625,280.5 L -266.90625,303.59375 C -266.34852,302.94826 -265.81402,302.30573 -265.25,301.65625 C -251.24542,285.52964 -235.28125,267.97464 -235.28125,241.8125 C -235.28125,211.5372 -256.48015,184.53282 -266.4375,172.84375 C -267.8976,171.07829 -270.08449,170.07692 -272.375,170.125 z M -286.90625,304.28125 C -297.43776,317.84141 -306.53125,333.82294 -306.53125,355.15625 C -306.53124,375.70278 -294.33712,392.67475 -282.34375,407.03125 C -270.35038,421.38775 -258.3028,434.2369 -255.6875,441.9375 C -254.35856,445.8639 -250.11389,447.95394 -246.1875,446.625 C -242.2611,445.29606 -240.13981,441.0514 -241.46875,437.125 C -246.2983,422.90464 -259.46856,411.02276 -270.84375,397.40625 C -282.21894,383.78974 -291.53124,369.54675 -291.53125,355.15625 C -291.53125,346.65566 -289.80278,339.28711 -286.90625,332.53125 L -286.90625,304.28125 z"
       style="opacity:1;fill:#08639c;fill-opacity:1;fill-rule:nonzero;stroke:#000000;stroke-width:1;stroke-linecap:round;stroke-linejoin:round;stroke-miterlimit:4;stroke-dasharray:none;stroke-dashoffset:0;stroke-opacity:1" />
  </g>
</svg>
