<?xml version="1.0" encoding="UTF-8" standalone="no"?>
<!-- Created with Inkscape (http://www.inkscape.org/) -->

<svg
   xmlns:dc="http://purl.org/dc/elements/1.1/"
   xmlns:cc="http://creativecommons.org/ns#"
   xmlns:rdf="http://www.w3.org/1999/02/22-rdf-syntax-ns#"
   xmlns:svg="http://www.w3.org/2000/svg"
   xmlns="http://www.w3.org/2000/svg"
   xmlns:sodipodi="http://sodipodi.sourceforge.net/DTD/sodipodi-0.dtd"
   xmlns:inkscape="http://www.inkscape.org/namespaces/inkscape"
   width="100.0125mm"
   height="66.675003mm"
   viewBox="0 0 100.0125 66.675003"
   version="1.1"
   id="svg904"
   inkscape:version="0.92.2 (5c3e80d, 2017-08-06)"
   sodipodi:docname="Flag of Kaohsiung City (1978-2009).svg">
  <defs
     id="defs898" />
  <sodipodi:namedview
     id="base"
     pagecolor="#ffffff"
     bordercolor="#666666"
     borderopacity="1.0"
     inkscape:pageopacity="0.0"
     inkscape:pageshadow="2"
     inkscape:zoom="0.98994949"
     inkscape:cx="492.59797"
     inkscape:cy="58.044257"
     inkscape:document-units="mm"
     inkscape:current-layer="g3950"
     showgrid="false"
     fit-margin-top="0"
     fit-margin-left="0"
     fit-margin-right="0"
     fit-margin-bottom="0"
     inkscape:window-width="1920"
     inkscape:window-height="1018"
     inkscape:window-x="-8"
     inkscape:window-y="-8"
     inkscape:window-maximized="1" />
  <metadata
     id="metadata901">
    <rdf:RDF>
      <cc:Work
         rdf:about="">
        <dc:format>image/svg+xml</dc:format>
        <dc:type
           rdf:resource="http://purl.org/dc/dcmitype/StillImage" />
        <dc:title></dc:title>
      </cc:Work>
    </rdf:RDF>
  </metadata>
  <g
     inkscape:label="Layer 1"
     inkscape:groupmode="layer"
     id="layer1"
     transform="translate(163.02113,-34.986913)">
    <g
       transform="matrix(0.02540243,0,0,0.02540243,-63.008627,101.17927)"
       style="image-rendering:optimizeQuality;shape-rendering:geometricPrecision;text-rendering:geometricPrecision"
       id="g3950">
      <rect
         style="opacity:1;fill:#ffffff;fill-opacity:1;stroke:none;stroke-width:25.82430077;stroke-linecap:butt;stroke-linejoin:miter;stroke-miterlimit:4;stroke-dasharray:none;stroke-dashoffset:0;stroke-opacity:1;paint-order:stroke fill markers"
         id="rect4033"
         width="3937.1233"
         height="2624.749"
         x="-3937.1233"
         y="-2605.749" />
      <g
         id="g4031"
         transform="matrix(0.44443207,0,0,0.44443207,-1970.0412,-2179.9026)">
        <path
           id="61988200"
           transform="matrix(10.41567,0,0,10.41567,-3937.1233,-2605.7491)"
           d="m 343.24414,252 2.87305,24.11914 a 168.11208,168.11208 0 0 0 -39.22266,12.79492 l -11.8457,-21.16797 -56.26172,40.80274 16.49805,17.89648 a 168.11208,168.11208 0 0 0 -24.34961,33.23438 l -21.91211,-10.13477 -21.50586,66.15039 23.79297,4.70703 a 168.11208,168.11208 0 0 0 -1.42188,20.64063 168.11208,168.11208 0 0 0 1.48047,20.62695 l -23.85156,4.71875 21.50586,66.15039 22.04883,-10.19531 a 168.11208,168.11208 0 0 0 24.16211,33.35156 l -16.44727,17.83985 56.26172,40.80273 11.85156,-21.17578 a 168.11208,168.11208 0 0 0 39.20899,12.86914 l -2.86524,24.05273 h 69.51172 l -2.87305,-24.11718 a 168.11208,168.11208 0 0 0 39.22266,-12.79688 l 11.8457,21.16797 56.26172,-40.80273 -16.49805,-17.89649 a 168.11208,168.11208 0 0 0 24.34766,-33.23242 l 21.91406,10.13281 21.50586,-66.15039 -23.79297,-4.70703 a 168.11208,168.11208 0 0 0 1.42188,-20.63867 168.11208,168.11208 0 0 0 -1.48047,-20.62891 l 23.85156,-4.71875 -21.50586,-66.15039 -22.04883,10.19727 a 168.11208,168.11208 0 0 0 -24.16211,-33.35352 l 16.44727,-17.83984 -56.26172,-40.80274 -11.85156,21.17579 A 168.11208,168.11208 0 0 0 409.89062,276.05273 L 412.75586,252 Z"
           style="fill:#29166f;fill-opacity:1;stroke-width:0.09600919"
           inkscape:connector-curvature="0" />
        <path
           transform="matrix(10.41567,0,0,10.41567,-3937.1233,-2605.7491)"
           id="61986352"
           d="m 378,293.1875 c -11.80913,0 -25.4424,2.40055 -36.77148,4.80078 l 3.3496,13.3418 C 294.80167,323.8345 255.64826,363.58406 243.875,413.67969 h 47.8125 c 12.86523,-35.23537 46.75672,-60.58203 86.3125,-60.58203 39.55578,0 73.44727,25.34666 86.3125,60.58203 H 512.125 C 500.35174,363.58406 461.19833,323.8345 411.42188,311.33008 l 3.3496,-13.3418 C 403.4424,295.58805 389.80913,293.1875 378,293.1875 Z m 0,74.4082 c -37.24221,0 -68.52005,26.64719 -75.72461,61.83008 h -14.7168 -6.14453 -40.22656 c -0.57606,5.08849 -0.86523,10.27254 -0.86523,15.45703 0,71.91088 55.68581,131.2447 126.06054,137.19727 v -46.08399 c -40.02917,-5.1101 -72.10395,-36.14306 -78.84179,-75.65625 h 14.72851 c 7.19401,35.24257 38.47867,61.83008 75.73047,61.83008 37.2518,0 68.53646,-26.58751 75.73047,-61.83008 h 14.72851 c -6.73784,39.51319 -38.81262,70.54615 -78.84179,75.65625 v 46.08399 c 70.37473,-5.95257 126.06054,-65.28639 126.06054,-137.19727 0,-5.18449 -0.28917,-10.36854 -0.86523,-15.45703 h -40.13086 -6.24023 -14.7168 C 446.52005,394.24289 415.24221,367.5957 378,367.5957 Z m 0,48.29297 c 10.26615,0 19.33065,5.4217 24.48633,13.53711 H 353.51367 C 358.66935,421.31037 367.73385,415.88867 378,415.88867 Z m -24.51367,44.45117 h 49.02734 c -5.15102,8.13624 -14.22975,13.53711 -24.51367,13.53711 -10.28392,0 -19.36265,-5.40087 -24.51367,-13.53711 z"
           style="fill:#fff500;fill-opacity:1;stroke-width:0.09600919"
           inkscape:connector-curvature="0" />
      </g>
    </g>
  </g>
</svg>
