<svg xmlns="http://www.w3.org/2000/svg" viewBox="0 0 2403.0055 1599.0909"><rect width="2403.0055" height="1599.0909" style="fill:#e5252a"/><path d="M447.7229,97.8826l-10.54,60.0359.0406.04a194.1991,194.1991,0,0,0-37.2544,9.9723v-.04l-39.1185-46.74-36.768,21.2417L344.96,199.6321l.081.04a196.728,196.728,0,0,0-27.2815,27.323l-.04-.1219L260.48,205.9962l-21.2418,36.7679,46.74,39.16a194.04,194.04,0,0,0-9.9316,37.2142l-.0406-.04-60.036,10.54v42.4835l60.036,10.54.0406-.04a194.0467,194.0467,0,0,0,9.9316,37.2142l-46.74,39.16L260.48,495.763l57.2391-20.8772.04-.122a196.7576,196.7576,0,0,0,27.2815,27.3218l-.081.04-20.8772,57.2391,36.768,21.2417,39.1185-46.7395v-.0405a194.1644,194.1644,0,0,0,37.2544,9.9723l-.0406.04,10.54,60.0359h42.4433l10.54-60.0359-.04-.04a194.2066,194.2066,0,0,0,37.2544-9.9318l39.1587,46.7395,36.768-21.2417-20.9174-57.2391a196.8647,196.8647,0,0,0,27.2413-27.2413L677.45,495.7617l21.2015-36.768-46.6993-39.16a194.0784,194.0784,0,0,0,9.9722-37.2142L721.96,372.12V329.637l-60.0359-10.54a194.0466,194.0466,0,0,0-9.9722-37.1727l46.6993-39.16L677.45,205.9966l-57.2793,20.8772a196.8592,196.8592,0,0,0-27.2413-27.2413l20.9174-57.2392-36.768-21.2417-39.1587,46.74a194.2049,194.2049,0,0,0-37.2544-9.9317l.0405-.04-10.54-60.0359H447.723Zm21.2418,103.3716" transform="translate(1.5936)" style="fill:#f3e600"/><polygon points="829.747 512.908 777.097 549.545 795.671 488.151 744.558 449.399 808.687 448.092 829.747 387.506 850.807 448.092 914.936 449.399 863.823 488.151 882.397 549.545 829.747 512.908" style="fill:#f3e600"/><polygon points="1064.716 512.908 1012.066 549.545 1030.64 488.151 979.526 449.399 1043.656 448.092 1064.716 387.506 1085.776 448.092 1149.905 449.399 1098.792 488.151 1117.366 549.545 1064.716 512.908" style="fill:#f3e600"/><polygon points="1299.685 512.908 1247.035 549.545 1265.609 488.151 1214.495 449.399 1278.625 448.092 1299.685 387.506 1320.745 448.092 1384.874 449.399 1333.76 488.151 1352.335 549.545 1299.685 512.908" style="fill:#f3e600"/><path d="M468.9543,201.1249a212.9323,212.9323,0,0,1,72.5114,43.8583c20.0638,18.6986,37.0883,41.6046,45.1908,68.0713,5.4916,17.0182,4.3616,35.4089.7315,52.6864a109.8073,109.8073,0,0,1-21.02,44.3476c11.6951,11.4349,23.2777,22.9831,35.0028,34.3878-1.5616,5.8427-3.9547,11.8136-8.7588,15.7521-4.0172,3.4674-9.16,5.1438-14.2213,6.4043q-17.1762-17.8452-34.417-35.6248c-14.2717,9.75-31.4952,14.8893-48.694,15.6485-21.6619.9575-43.3168-6.0251-60.9916-18.4278a159.4918,159.4918,0,0,1-26.003-22.8237,42.2652,42.2652,0,0,1-4.3377,3.6539c.3757,2.8327.7827,5.6617,1.1733,8.495a16.66,16.66,0,0,0-8.3958,2.56c-7.6678,4.8594-12.9922,12.4029-18.4349,19.4843-6.7488,8.7614-12.8144,18.4862-22.2194,24.6925-5.7,3.521-14.1337,2.0329-17.6244-3.8855-3.6508-5.8066-1.5447-13.3011,2.3874-18.3951,9.61-14.1248,26.7693-20.1621,37.5122-33.1747a30.694,30.694,0,0,0,5.9553-11.9109l8.233.5325c2.3248-2.3581,4.661-4.7042,6.9771-7.07,2.5822-.0667,5.2138.2093,7.7633-.2885,2.6612-2.3472,4.7827-5.2331,7.1862-7.8329,2.6325.7376,4.1284,3.2068,6.0335,4.97,11.7746,10.7244,25.24,20.07,40.587,24.8359a80.6531,80.6531,0,0,0,59.8988-4.8585q-55.31-56.9464-110.4466-114.0656c-8.2571,8.6939-16.482,17.4209-24.8571,26.0012-10.2279-10.4341-20.5559-20.77-30.836-31.1528,19.3764-19.3958,38.97-38.574,58.4539-57.8627,16.8448,4.5857,33.6675,9.2519,50.5274,13.7832-11.5216,10.46-23.2335,20.7081-34.7949,31.1227,38.4192,37.6644,76.6472,75.5288,115.1274,113.1365a69.0071,69.0071,0,0,0,15.2282-40.264c1.31-19.2791-3.1507-38.4581-9.5059-56.5426-8.9829-23.867-26.1578-43.5159-44.8245-60.4191-11.6667-10.37-23.6909-20.3533-36.1027-29.82Z" transform="translate(1.5936)" style="fill:#e5252a"/></svg>