<?xml version="1.0" encoding="UTF-8"?>
<svg enable-background="new 0 0 1125 750" version="1.1" viewBox="0 0 1125 750" xml:space="preserve" xmlns="http://www.w3.org/2000/svg" xmlns:cc="http://creativecommons.org/ns#" xmlns:dc="http://purl.org/dc/elements/1.1/" xmlns:rdf="http://www.w3.org/1999/02/22-rdf-syntax-ns#"><metadata><rdf:RDF><cc:Work rdf:about=""><dc:format>image/svg+xml</dc:format><dc:type rdf:resource="http://purl.org/dc/dcmitype/StillImage"/><dc:title/></cc:Work></rdf:RDF></metadata>
<rect width="1125" height="750" enable-background="new    " fill="#0093dd"/>

<path d="m566.76 625.47c-5.5397-1.069-3.9938 5.3912-3.9938 5.3912 11.541 3.551 47.321 25.155 48.613 20.733 1.7916-5.4627-25.159-16.181-44.619-26.125z" fill="#fedb01" stroke="#000" stroke-miterlimit="7" stroke-width="1.7229"/><path d="m664.71 580.59c-47.052 38.318-83.829 24.919-95.44 40.628 0.15518-0.0497 0.28418-0.0762 0.4375-0.125 15.549-9.7616 39.493-4.9495 55.469 3.3125 15.734-17.137 26.528-16.646 39.534-43.816z" fill="#fedb01" stroke="#000" stroke-miterlimit="10" stroke-width="2.5"/><path d="m723.08 599.37c-0.15718 0.33102-0.32692 0.66626-0.53125 1-4.7256 0.37387-11.141 1.763-18.438 3.75-4.9236 13.315-9.7606 22.813-17.031 35.594 23.758-20.754 34.387-34.509 36-40.344z" fill="#fedb01" stroke="#000" stroke-miterlimit="10" stroke-width="2.5"/><path d="m720.49 585.47c-17.988 2.3083-53.716 17.753-81.5 27.906-4.5217 2.8272-9.1842 5.9901-13.812 11.031 3.1037 1.6051 5.9003 3.3431 8.2812 5.125 21.306-9.0745 69.553-27.61 89.094-29.156 3.2693-5.3399 0.28851-10.334-2.0625-14.906z" fill="#fedb01" stroke="#000" stroke-miterlimit="7" stroke-width="2.5"/><path d="m802.93 499.12c-19.546 22.012-54.612 47.999-90.719 70.25-9.7298 11.32-20.138 20.148-31.625 28.156 15.735-5.8853 30.342-10.835 39.906-12.062 0.17544 0.34123 0.35165 0.68536 0.53125 1.0312 27.49-18.96 65.238-53.8 81.906-87.375z" fill="#fedb01" stroke="#000" stroke-miterlimit="10" stroke-width="2.5"/><path d="m787.61 237.78c-8.5114 2.6255-14.071 13.749-17.438 24.875 6.3445 8.0272 12.202 17.815 17.281 28.969-4.2766-21.847-3.513-39.761 0.15625-53.844zm14.438 99.656c11.35 55.681 5.6962 126.96-33.281 192.84 1.1363-0.8946 2.2334-1.7948 3.3438-2.6875 20.934-27.446 50.067-82.837 48.969-152.41-7.7221-13.379-13.981-25.947-19.031-37.75zm-36.94 195.65c-1.2311 0.94209-2.4667 1.8995-3.7188 2.8438 1.2544-0.94766 2.4898-1.8963 3.7188-2.8438z" fill="#fedb01" stroke="#000" stroke-miterlimit="10" stroke-width="2.5"/><path d="m730.46 237.97c74.618 94.406 72.891 226.23 12.656 311.19 8.9959-6.2402 17.647-12.569 25.656-18.875 79.261-133.98 20.66-290.28-38.312-292.31z" fill="#fedb01" stroke="#000" stroke-miterlimit="10" stroke-width="2.5"/><path d="m744.3 516.34c-15.744 19.339-56.399 60.134-89.688 80.969-8.5633 10.84-16.988 14.24-27.656 25.25 4.0441-4.0036 8.0854-6.7203 12.031-9.1875 13.01-4.7545 27.737-10.661 41.594-15.844 24.991-17.424 44.921-38.686 63.719-81.188z" fill="#fedb01" stroke="#000" stroke-miterlimit="10" stroke-width="2.5"/><path d="m564.87 624.86c28.391 17.516 58.688 13.823 73.854 9.4687-11.697-13.699-53.926-28.855-73.854-9.4687z" fill="#fedb01" stroke="#000" stroke-miterlimit="10" stroke-width="2.5"/><path d="m786.99 238.04c-5.1353 7.857-10.407 19.998-11.888 30.305" fill="none" stroke="#000" stroke-linecap="round" stroke-linejoin="round" stroke-miterlimit="10" stroke-width="2.5"/><path d="m799.75 503.35c-18.273 27.624-71.234 69.7-108.22 86.074" fill="none" stroke="#000" stroke-linecap="round" stroke-linejoin="round" stroke-miterlimit="10" stroke-width="2.5"/><path d="m742.84 518.47c-14.362 25.943-61.701 71.043-84.873 86.592" fill="none" stroke="#000" stroke-linecap="round" stroke-linejoin="round" stroke-miterlimit="10" stroke-width="2.5"/><path d="m714 602.07c-6.1294 10.554-13.785 22.025-25.377 35.453" fill="none" stroke="#000" stroke-linecap="round" stroke-linejoin="round" stroke-miterlimit="10" stroke-width="2.5"/><path d="m662.47 582.05c-3.5629 9.6022-37.04 34.862-49.96 36.339" fill="none" stroke="#000" stroke-linecap="round" stroke-linejoin="round" stroke-miterlimit="10" stroke-width="2.5"/><path d="m722.01 592.2c-23.658 3.6649-62.881 19.758-94.728 32.291" fill="none" stroke="#000" stroke-linecap="round" stroke-linejoin="round" stroke-miterlimit="10" stroke-width="2.5"/><path d="m637.25 634.39c-14.997-6.3389-56.039-9.9417-72.232-9.8219" fill="none" stroke="#000" stroke-linecap="round" stroke-linejoin="round" stroke-miterlimit="10" stroke-width="2.5"/><path d="m720.33 206.21c-0.0488 0.5285-0.0923 1.0801-0.15625 1.625 0.14222 1.0792 3e-3 2.0378-0.4375 2.7812-0.25981 0.43822-0.68493 0.71164-1.2188 0.90625 13.5 8.4585 29.894 25.312 36.688 36.188 4.2354 3.1992 8.3637 7.1225 12.312 11.719-8.9996-20.034-26.281-36.588-47.188-53.219z" fill="#fedb01" stroke="#000" stroke-miterlimit="10" stroke-width="2.1804"/><path d="m733.59 238.94c52.965 32.752 92.56 175.44 26.124 296.35" fill="none" stroke="#000" stroke-linecap="round" stroke-linejoin="round" stroke-miterlimit="10" stroke-width="2.5"/><path d="m635.93 144.5c7.8355-0.60203 19.117 3.1937 21.675 21.766-7.6565-4.8528-20.309-7.3597-21.675-21.766z" fill="#fedb01" stroke="#000" stroke-miterlimit="10" stroke-width="2.0455"/><path d="m624.36 164.33c3.5044 6.3178 14.249 15.183 30.152 2.9123-11.717-8.6858-25.998-7.0863-30.152-2.9123z" fill="#fedb01" stroke="#000" stroke-miterlimit="10" stroke-width="2.0455"/><path d="m635.12 148.3c-5.2537-0.6704-10.184 0.52315-10.184 0.52315s-1.043 10.061 8.344 14.785c2.8767 1.4485 5.9264 2.5916 8.6015 3.0222-4.0197-5.0973-3.6371-11.201-3.6371-11.201s3.9464-0.98787 8.5329-0.57496c-1.2269-1.5171-2.8387-2.9639-4.7389-4.2059-2.0833-1.3618-4.5303-2.043-6.9183-2.3477z" fill="#fedb01" stroke="#000" stroke-miterlimit="10" stroke-width="2.0455"/><path d="m650.75 148.15c6.9645-0.29473 26.53 9.3689 22.611 26.975-15.637-3.5147-23.626-21.758-22.611-26.975z" fill="#fedb01" stroke="#000" stroke-miterlimit="10" stroke-width="2.0455"/><path d="m634.82 175.68c3.0742 5.5903 19.985 12.806 35.351 1.2393-10.996-10.535-30.728-4.5532-35.351-1.2393z" fill="#fedb01" stroke="#000" stroke-miterlimit="10" stroke-width="2.0455"/><path d="m648.11 155.02c-5.125-0.76711-9.8601 0.40899-9.8601 0.40899s-0.6513 10.348 8.6354 15.354c3.8384 2.069 7.9693 3.572 11.018 3.4584-2.4369-4.2982-2.5614-8.4389-2.5614-8.4389s2.6785-0.75657 6.23-0.80288c-1.2577-2.6315-3.5698-5.3025-6.6536-7.435-2.0725-1.4336-4.4791-2.1952-6.8087-2.5438z" fill="#fedb01" stroke="#000" stroke-miterlimit="10" stroke-width="2.0455"/><path d="m672.23 158.49c6.8621-0.27928 20.034 9.3778 15.959 28.69-13.445-4.7049-17.28-23.048-15.959-28.69z" fill="#fedb01" stroke="#000" stroke-miterlimit="10" stroke-width="2.0455"/><path d="m651.58 185.59c2.338 5.7082 17.479 12.759 36.102 2.0311-10.07-9.171-30.712-5.2712-36.102-2.0311z" fill="#fedb01" stroke="#000" stroke-miterlimit="10" stroke-width="2.0455"/><path d="m689.69 168.37c6.6841 0.92071 18.309 13.271 14.626 29.131-14.139-7.0207-16.274-24.84-14.626-29.131z" fill="#fedb01" stroke="#000" stroke-miterlimit="10" stroke-width="2.0455"/><path d="m664.94 165.18c-5.083-0.66591-9.6064 0.61609-9.6064 0.61609s0.35138 10.591 9.9113 15.487c4.2066 2.1546 8.7117 3.6366 11.697 3.2113-1.6457-3.62-1.833-6.6834-1.833-6.6834s2.0404-0.54587 4.8941-0.68527c-1.1514-3.2875-4.0887-6.8695-8.1536-9.5284-2.1645-1.4162-4.5989-2.1149-6.9093-2.4176z" fill="#fedb01" stroke="#000" stroke-miterlimit="10" stroke-width="2.0455"/><path d="m667.29 195.48c2.8391 5.372 19.599 11.778 36.035 4.3452-10.644-11.661-31.419-7.5269-36.035-4.3452z" fill="#fedb01" stroke="#000" stroke-miterlimit="10" stroke-width="2.0455"/><path d="m684.64 177.33c-5.068-0.7508-9.5328 0.48535-9.5328 0.48535s0.6198 10.65 10.245 15.731c3.3424 1.7646 6.8631 3.1236 9.6452 3.4276-2.2031-3.9411-2.7725-7.0245-2.7725-7.0245s3.4067-0.83947 7.6465-0.45635c-1.2509-3.3016-4.2466-6.8871-8.3122-9.6018-2.187-1.4599-4.6152-2.2203-6.9188-2.5615z" fill="#fedb01" stroke="#000" stroke-miterlimit="10" stroke-width="2.0455"/><path d="m719.75 210.61c-1.8476 3.1162-11.458-0.3327-16.952-4.5752-8.9645-6.9232-10.562-16.081-10.562-16.081s9.377-2.3461 16.454 2.5327c6.8786 4.7438 13.367 14.229 11.059 18.123z" fill="#fedb01" stroke="#000" stroke-miterlimit="10" stroke-width="2.0455"/><path d="m705.42 179.57c6.4194 0.16304 17.499 10.95 14.626 29.131-13.347-6.3523-16.235-24.512-14.626-29.131z" fill="#fedb01" stroke="#000" stroke-miterlimit="10" stroke-width="2.0455"/><path d="m683.15 206.26c2.1067 5.3192 17.17 11.343 36.085 3.4763-10.921-9.2519-31.544-6.2102-36.085-3.4763z" fill="#fedb01" stroke="#000" stroke-miterlimit="10" stroke-width="2.0455"/><path d="m1046.8 233.15c-32.319 2.8162-12.274 37.792-236.31 27.531 1.793 11.406-1.0198 26.515-16.094 36 67.37 6.36 173.98 1.91 236.6-18.09 25.626-8.8103 33.197-38.518 15.844-45.438z" fill="#fedb01" stroke="#000" stroke-width="2.5"/><path d="m1043.9 271.34c-3.5797 2.9959-7.8931 5.5265-12.906 7.25-62.62 19.998-169.23 24.45-236.56 18.094-0.45511 0.28637-0.89731 0.56792-1.375 0.84375-15.225 4.476-29.351 5.406-48.156 2.75-0.17439 0.56756-0.35689 1.097-0.53125 1.6562 2.0447 4.1768 2.3458 8.3377 0.53125 11.125 121.08 8.1661 195.76 11.265 292.72-13.25 14.954-4.9293 16.619-24.407 6.2812-28.469z" fill="#fedb01" stroke="#000" stroke-width="2.5"/><path d="m706.9 377.56c-0.88419 3.3022-2.6416 5.9568-5.25 7.3438 22.784 12.494 40.273 30.906 49.25 51.688 6.6488 1.6191 14.928-5.29 13.031-18.719-0.14175-0.61281-0.33229-1.2577-0.5625-1.9062-12.359-16.88-38.381-34.53-56.469-38.406z" fill="#fedb01" stroke="#000" stroke-width="2.5"/><path d="m718.55 366.93c-0.81535 5.0662-4.3144 8.4804-11.031 7.3438l0.0312-0.5c-0.0215 9e-3 -0.0412 0.022-0.0625 0.0312-0.0932 1.3159-0.30969 2.5688-0.625 3.75 18.845 4.025 46.316 23.031 57.969 40.531 16.746 3.145 25.521-3.9514 26.031-17.156-65.529-28.402-43.27-21.305-72.312-34z" fill="#fedb01" stroke="#000" stroke-width="2.5"/><path d="m719.31 430.31c0.34409 0.11934 0.70451 0.21847 1.0625 0.3125-0.35451-0.0935-0.72152-0.19423-1.0625-0.3125z" fill="#fedb01" stroke="#000" stroke-width="2.5"/><path d="m807.76 281.94c94.952 7.7694 209.05-7.0355 229.45-26.384" fill="#fedb01" stroke="#000" stroke-linecap="round" stroke-linejoin="round" stroke-miterlimit="10" stroke-width="2.5"/><path d="m744.92 300.27c18.805 2.656 32.935 1.7465 48.16-2.7295 19.806-11.436 20.024-32.15 15.699-43.791-3.5755 2.5689-5.0576 5.5554-8.2752 7.19-13.755 1.9219-112.86-2.1334-117.9-0.46998-6.8366 0.57703-27.038 22.908-12.265 37.267 5.4756 5.4136 9.276 10.827 12.651 16.241 32.939 48.672-23.854 55.346-36.677 39.732-3.7994-1.7471-12.275 18.037 1.6169 39.267 48.581-0.0425 71.363-9.3012 96.99-92.706z" fill="#fedb01" stroke="#000" stroke-linecap="round" stroke-linejoin="round" stroke-miterlimit="10" stroke-width="2.5"/><path d="m694.19 385.57c15.014 3.5663 17.419-18.759 6.9719-31.08" fill="#fedb01" stroke="#000" stroke-linecap="round" stroke-linejoin="round" stroke-miterlimit="10" stroke-width="2.5"/><path d="m738.43 316.4c14.083-1.0815 7.7087-21.937-9.7859-27.759" fill="#fedb01" stroke="#000" stroke-linecap="round" stroke-linejoin="round" stroke-miterlimit="10" stroke-width="2.5"/><path d="m732.89 332.11c10.256-0.58724 9.5707-18.768-5.7822-27.839" fill="#fedb01" stroke="#000" stroke-linecap="round" stroke-linejoin="round" stroke-miterlimit="10" stroke-width="2.5"/><path d="m725.54 346.61c12.243-0.58724 9.9679-20.159-3.9946-28.832" fill="#fedb01" stroke="#000" stroke-linecap="round" stroke-linejoin="round" stroke-miterlimit="10" stroke-width="2.5"/><path d="m718.19 361.91c11.051-0.98448 10.365-21.946-3.5974-30.62" fill="#fedb01" stroke="#000" stroke-linecap="round" stroke-linejoin="round" stroke-miterlimit="10" stroke-width="2.5"/><path d="m732.99 289.99c5.389-6.1422 10.312-7.1506 15.662-14.614" fill="#fedb01" stroke="#000" stroke-linecap="round" stroke-linejoin="round" stroke-miterlimit="10" stroke-width="2.5"/><path d="m741.93 296.35c5.5877-5.6263 17.065-11.19 22.812-19.381" fill="#fedb01" stroke="#000" stroke-linecap="round" stroke-linejoin="round" stroke-miterlimit="10" stroke-width="2.5"/><path d="m739.74 323.87c-0.12207 4.5525-2.4867 8.0005-6.8438 8.25 0 0-0.01 0.0113 0.1875 1.5312 120.55 22.062 174.73 28.466 264.31 26.531 18.28-0.23287 34.482-17.276 27.312-31.875-110.27 17.122-207.51 4.2021-284.97-4.4374z" fill="#fedb01" stroke="#000" stroke-width="2.5"/><path d="m733.21 333.68c-0.0293 0.0716-0.0644 0.14732-0.0937 0.21875 0.95778 4.7062 0.0343 8.9601-2.9375 11.156 92.361 21.663 114.54 32.327 205.34 41.344 50.63 2.692 64.493-9.888 61.25-26.219-89.173 1.8895-143.39-4.5095-263.56-26.5z" fill="#fedb01" stroke="#000" stroke-width="2.5"/><path d="m724.93 356.43c-1.1086 2.9315-3.2518 4.9837-6.375 5.4062 0.24091 1.7949 0.25178 3.5293 0 5.0938 30.065 13.142 4.8474 4.9632 79.281 37.031 45.376 13.237 45.064-0.0577 47.25-9.2812-61.974-19.498-80.829-26.211-120.16-38.25z" fill="#fedb01" stroke="#000" stroke-width="2.5"/><path d="m707.53 374.28c15.821 2.6773 13.714-19.877 1.0144-29.86" fill="#fedb01" stroke="#000" stroke-linecap="round" stroke-linejoin="round" stroke-miterlimit="10" stroke-width="2.5"/><path d="m724.93 356.43c44.312 13.564 62.308 20.279 145.69 46.25 47.443 8.5845 63.417-9.6954 64.688-16.312-90.604-9.0107-112.83-19.672-205.09-41.312-6e-3 5e-3 -0.0248-5e-3 -0.0312 0-6.6049 5.0687-2.9629 4.5714-5.25 11.375z" fill="#fedb01" stroke="#000" stroke-width="2.5"/><path d="m1040.1 298.81c-0.784 0.38187-1.6253 0.71168-2.5 1-96.96 24.515-171.64 21.416-292.72 13.25-9.8599 8.3047-5.321-1.5913-5.1875 10.781 5e-3 9e-3 -5e-3 0.0222 0 0.0312 119.23 13.104 159.38 24.043 285.34 4.375 18.555-2.543 22.838-22.05 15.062-29.438z" fill="#fedb01" stroke="#000" stroke-width="2.5"/><path d="m754.45 300.91c6.978-5.9436 15.079-8.9382 21.621-16.004" fill="#fedb01" stroke="#000" stroke-linecap="round" stroke-linejoin="round" stroke-miterlimit="10" stroke-width="2.5"/><path d="m701.64 384.9c-1.8123 0.96362-4.0435 1.2976-6.6875 0.8125-0.54743 0.37033-1.0852 0.69423-1.625 1-0.50627 0.77554-1.1053 1.4907-1.7812 2.125 19.833 15.692 39.241 40.617 42.312 65.469 8.118-0.18971 19.017-4.0016 17.5-17.625-0.15747-0.0286-0.31292-0.0558-0.46875-0.0937-8.9767-20.781-26.466-39.193-49.25-51.688z" fill="#fedb01" stroke="#000" stroke-width="2.5"/><path d="m694.19 385.57c15.014 3.5663 17.419-18.759 6.9719-31.08" fill="#fedb01" stroke="#000" stroke-linecap="round" stroke-linejoin="round" stroke-miterlimit="10" stroke-width="2.5"/><path d="m674.79 392.1c18.878 2.8379 23.548-8.4822 19.755-24.185" fill="#fedb01" stroke="#000" stroke-linecap="round" stroke-linejoin="round" stroke-miterlimit="10" stroke-width="2.5"/><path d="m659.49 392.49c16.46 6.9339 23.408-6.2744 22.712-22.413" fill="#fedb01" stroke="#000" stroke-linecap="round" stroke-linejoin="round" stroke-miterlimit="10" stroke-width="2.5"/><path d="m648.17 393.28c14.474 4.3518 20.627-10.048 20.527-22.413" fill="#fedb01" stroke="#000" stroke-linecap="round" stroke-linejoin="round" stroke-miterlimit="10" stroke-width="2.5"/><path d="m687.24 391.43c-2.5133 0.9147-5.6302 1.2799-9.4062 1 20.437 29.26 25.827 57.685 21.844 87.062 14.165 2.9236 17.891-7.2468 19.344-12.531-0.24842-0.096-0.49528-0.19988-0.75-0.3125 0.0928-23.93-10.647-52.728-31.031-75.219z" fill="#fedb01" stroke="#000" stroke-width="2.5"/><path d="m674.96 392.12c-1.585 1.1557-3.4292 1.9019-5.5625 2.1562 17.82 32.517 16.778 69.282 5.7188 96.344 9.2067 8.365 21.113-4.5161 23.844-10.062 0.25409-0.40651 0.51281-0.80521 0.75-1.2188 3.9421-29.321-1.475-57.699-21.875-86.906-0.92031-0.0682-1.876-0.16596-2.875-0.3125z" fill="#fedb01" stroke="#000" stroke-width="2.5"/><path d="m659.68 392.31c-1.1441 0.68955-2.402 1.2126-3.7812 1.5 6.2633 34.675-4.2054 69.399-21.875 88.562 2.9169 9.6635 13.9 11.553 17.562 6.9062-3e-3 -9e-3 3e-3 -0.0218 0-0.0312 15.756-22.867 25.189-60.436 11.031-95.656-1.0028-0.28695-2.04-0.6367-3.125-1.0938l0.1875-0.1875z" fill="#fedb01" stroke="#000" stroke-width="2.5"/><path d="m649.14 393.53c-0.0529 32.193-14.479 62.111-32.594 78 1.7801 10.053 9.7339 11.935 18.781 9.3438 16.86-19.436 26.667-53.266 20.562-87.062-1.9982 0.4163-4.2384 0.34524-6.75-0.28125z" fill="#fedb01" stroke="#000" stroke-width="2.5"/><path d="m662.61 393.59c14.158 35.22 4.725 72.789-11.031 95.656 4.0284 11.53 20.212 8.6468 23.469 1.0312 0.12846-0.14663 0.24909-0.31173 0.375-0.46875 10.753-26.983 11.613-63.336-6.0312-95.531-2.0075 0.23931-4.271 0.0308-6.7812-0.6875z" fill="#fedb01" stroke="#000" stroke-width="2.5"/><path d="m691.55 388.84c-1.1743 1.102-2.5962 1.9691-4.3125 2.5938 20.384 22.491 31.124 51.289 31.031 75.219 10.539 4.6595 15.677-5.0802 15.844-12.344-0.0814 3e-3 -0.16911-2e-3 -0.25 0-3.0717-24.852-22.479-49.777-42.312-65.469z" fill="#fedb01" stroke="#000" stroke-width="2.5"/><path d="m558.24 625.47c5.5397-1.069 3.9938 5.3912 3.9938 5.3912-11.541 3.551-47.321 25.155-48.613 20.733-1.7916-5.4627 25.159-16.181 44.619-26.125z" fill="#fedb01" stroke="#000" stroke-miterlimit="7" stroke-width="1.7229"/><path d="m460.29 580.59c47.052 38.318 83.829 24.919 95.44 40.628-0.15518-0.0497-0.28418-0.0762-0.4375-0.125-15.549-9.7616-39.493-4.9495-55.469 3.3125-15.734-17.137-26.528-16.646-39.534-43.816z" fill="#fedb01" stroke="#000" stroke-miterlimit="10" stroke-width="2.5"/><path d="m401.92 599.37c0.15718 0.33102 0.32692 0.66626 0.53125 1 4.7256 0.37387 11.141 1.763 18.438 3.75 4.9236 13.315 9.7606 22.813 17.031 35.594-23.758-20.754-34.387-34.509-36-40.344z" fill="#fedb01" stroke="#000" stroke-miterlimit="10" stroke-width="2.5"/><path d="m404.51 585.47c17.988 2.3083 53.716 17.753 81.5 27.906 4.5217 2.8272 9.1842 5.9901 13.812 11.031-3.1037 1.6051-5.9003 3.3431-8.2812 5.125-21.306-9.0745-69.553-27.61-89.094-29.156-3.2693-5.3399-0.28851-10.334 2.0625-14.906z" fill="#fedb01" stroke="#000" stroke-miterlimit="7" stroke-width="2.5"/><path d="m322.07 499.12c19.546 22.012 54.612 47.999 90.719 70.25 9.7298 11.32 20.138 20.148 31.625 28.156-15.735-5.8853-30.342-10.835-39.906-12.062-0.17544 0.34123-0.35165 0.68536-0.53125 1.0312-27.49-18.96-65.238-53.8-81.906-87.375z" fill="#fedb01" stroke="#000" stroke-miterlimit="10" stroke-width="2.5"/><path d="m337.39 237.78c8.5114 2.6255 14.071 13.749 17.438 24.875-6.3445 8.0272-12.202 17.815-17.281 28.969 4.2766-21.847 3.513-39.761-0.15625-53.844zm-14.438 99.656c-11.35 55.681-5.6962 126.96 33.281 192.84-1.1363-0.8946-2.2334-1.7948-3.3438-2.6875-20.934-27.446-50.067-82.837-48.969-152.41 7.7221-13.379 13.981-25.947 19.031-37.75zm36.94 195.65c1.2311 0.94209 2.4667 1.8995 3.7188 2.8438-1.2544-0.94766-2.4898-1.8963-3.7188-2.8438z" fill="#fedb01" stroke="#000" stroke-miterlimit="10" stroke-width="2.5"/><path d="m394.54 237.97c-74.618 94.406-72.891 226.23-12.656 311.19-8.9959-6.2402-17.647-12.569-25.656-18.875-79.261-133.98-20.66-290.28 38.312-292.31z" fill="#fedb01" stroke="#000" stroke-miterlimit="10" stroke-width="2.5"/><path d="m380.7 516.34c15.744 19.339 56.399 60.134 89.688 80.969 8.5633 10.84 16.988 14.24 27.656 25.25-4.0441-4.0036-8.0854-6.7203-12.031-9.1875-13.01-4.7545-27.737-10.661-41.594-15.844-24.991-17.424-44.921-38.686-63.719-81.188z" fill="#fedb01" stroke="#000" stroke-miterlimit="10" stroke-width="2.5"/><path d="m560.13 624.86c-28.391 17.516-58.688 13.823-73.854 9.4687 11.697-13.699 53.926-28.855 73.854-9.4687z" fill="#fedb01" stroke="#000" stroke-miterlimit="10" stroke-width="2.5"/><path d="m338.01 238.04c5.1353 7.857 10.407 19.998 11.888 30.305" fill="none" stroke="#000" stroke-linecap="round" stroke-linejoin="round" stroke-miterlimit="10" stroke-width="2.5"/><path d="m325.25 503.35c18.273 27.624 71.234 69.7 108.22 86.074" fill="none" stroke="#000" stroke-linecap="round" stroke-linejoin="round" stroke-miterlimit="10" stroke-width="2.5"/><path d="m382.16 518.47c14.362 25.943 61.701 71.043 84.873 86.592" fill="none" stroke="#000" stroke-linecap="round" stroke-linejoin="round" stroke-miterlimit="10" stroke-width="2.5"/><path d="m411 602.07c6.1294 10.554 13.785 22.025 25.377 35.453" fill="none" stroke="#000" stroke-linecap="round" stroke-linejoin="round" stroke-miterlimit="10" stroke-width="2.5"/><path d="m462.53 582.05c3.5629 9.6022 37.04 34.862 49.96 36.339" fill="none" stroke="#000" stroke-linecap="round" stroke-linejoin="round" stroke-miterlimit="10" stroke-width="2.5"/><path d="m402.99 592.2c23.658 3.6649 62.881 19.758 94.728 32.291" fill="none" stroke="#000" stroke-linecap="round" stroke-linejoin="round" stroke-miterlimit="10" stroke-width="2.5"/><path d="m487.75 634.39c14.997-6.3389 56.039-9.9417 72.232-9.8219" fill="none" stroke="#000" stroke-linecap="round" stroke-linejoin="round" stroke-miterlimit="10" stroke-width="2.5"/><path d="m404.67 206.21c0.0488 0.5285 0.0923 1.0801 0.15625 1.625-0.14222 1.0792-3e-3 2.0378 0.4375 2.7812 0.25981 0.43822 0.68493 0.71164 1.2188 0.90625-13.5 8.4585-29.894 25.312-36.688 36.188-4.2354 3.1992-8.3637 7.1225-12.312 11.719 8.9996-20.034 26.281-36.588 47.188-53.219z" fill="#fedb01" stroke="#000" stroke-miterlimit="10" stroke-width="2.1804"/><path d="m391.41 238.94c-52.965 32.752-92.56 175.44-26.124 296.35" fill="none" stroke="#000" stroke-linecap="round" stroke-linejoin="round" stroke-miterlimit="10" stroke-width="2.5"/><path d="m489.07 144.5c-7.8355-0.60203-19.117 3.1937-21.675 21.766 7.6565-4.8528 20.309-7.3597 21.675-21.766z" fill="#fedb01" stroke="#000" stroke-miterlimit="10" stroke-width="2.0455"/><path d="m500.64 164.33c-3.5044 6.3178-14.249 15.183-30.152 2.9123 11.717-8.6858 25.998-7.0863 30.152-2.9123z" fill="#fedb01" stroke="#000" stroke-miterlimit="10" stroke-width="2.0455"/><path d="m489.88 148.3c5.2537-0.6704 10.184 0.52315 10.184 0.52315s1.043 10.061-8.344 14.785c-2.8767 1.4485-5.9264 2.5916-8.6015 3.0222 4.0197-5.0973 3.6371-11.201 3.6371-11.201s-3.9464-0.98787-8.5329-0.57496c1.2269-1.5171 2.8387-2.9639 4.7389-4.2059 2.0833-1.3618 4.5303-2.043 6.9183-2.3477z" fill="#fedb01" stroke="#000" stroke-miterlimit="10" stroke-width="2.0455"/><path d="m474.25 148.15c-6.9645-0.29473-26.53 9.3689-22.611 26.975 15.637-3.5147 23.626-21.758 22.611-26.975z" fill="#fedb01" stroke="#000" stroke-miterlimit="10" stroke-width="2.0455"/><path d="m490.18 175.68c-3.0742 5.5903-19.985 12.806-35.351 1.2393 10.996-10.535 30.728-4.5532 35.351-1.2393z" fill="#fedb01" stroke="#000" stroke-miterlimit="10" stroke-width="2.0455"/><path d="m476.89 155.02c5.125-0.76711 9.8601 0.40899 9.8601 0.40899s0.6513 10.348-8.6354 15.354c-3.8384 2.069-7.9693 3.572-11.018 3.4584 2.4369-4.2982 2.5614-8.4389 2.5614-8.4389s-2.6785-0.75657-6.23-0.80288c1.2577-2.6315 3.5698-5.3025 6.6536-7.435 2.0725-1.4336 4.4791-2.1952 6.8087-2.5438z" fill="#fedb01" stroke="#000" stroke-miterlimit="10" stroke-width="2.0455"/><path d="m452.77 158.49c-6.8621-0.27928-20.034 9.3778-15.959 28.69 13.445-4.7049 17.28-23.048 15.959-28.69z" fill="#fedb01" stroke="#000" stroke-miterlimit="10" stroke-width="2.0455"/><path d="m473.42 185.59c-2.338 5.7082-17.479 12.759-36.102 2.0311 10.07-9.171 30.712-5.2712 36.102-2.0311z" fill="#fedb01" stroke="#000" stroke-miterlimit="10" stroke-width="2.0455"/><path d="m435.31 168.37c-6.6841 0.92071-18.309 13.271-14.626 29.131 14.139-7.0207 16.274-24.84 14.626-29.131z" fill="#fedb01" stroke="#000" stroke-miterlimit="10" stroke-width="2.0455"/><path d="m460.06 165.18c5.083-0.66591 9.6064 0.61609 9.6064 0.61609s-0.35138 10.591-9.9113 15.487c-4.2066 2.1546-8.7117 3.6366-11.697 3.2113 1.6457-3.62 1.833-6.6834 1.833-6.6834s-2.0404-0.54587-4.8941-0.68527c1.1514-3.2875 4.0887-6.8695 8.1536-9.5284 2.1645-1.4162 4.5989-2.1149 6.9093-2.4176z" fill="#fedb01" stroke="#000" stroke-miterlimit="10" stroke-width="2.0455"/><path d="m457.71 195.48c-2.8391 5.372-19.599 11.778-36.035 4.3452 10.644-11.661 31.419-7.5269 36.035-4.3452z" fill="#fedb01" stroke="#000" stroke-miterlimit="10" stroke-width="2.0455"/><path d="m440.36 177.33c5.068-0.7508 9.5328 0.48535 9.5328 0.48535s-0.6198 10.65-10.245 15.731c-3.3424 1.7646-6.8631 3.1236-9.6452 3.4276 2.2031-3.9411 2.7725-7.0245 2.7725-7.0245s-3.4067-0.83947-7.6465-0.45635c1.2509-3.3016 4.2466-6.8871 8.3122-9.6018 2.187-1.4599 4.6152-2.2203 6.9188-2.5615z" fill="#fedb01" stroke="#000" stroke-miterlimit="10" stroke-width="2.0455"/><path d="m405.25 210.61c1.8476 3.1162 11.458-0.3327 16.952-4.5752 8.9645-6.9232 10.562-16.081 10.562-16.081s-9.377-2.3461-16.454 2.5327c-6.8786 4.7438-13.367 14.229-11.059 18.123z" fill="#fedb01" stroke="#000" stroke-miterlimit="10" stroke-width="2.0455"/><path d="m419.58 179.57c-6.4194 0.16304-17.499 10.95-14.626 29.131 13.347-6.3523 16.235-24.512 14.626-29.131z" fill="#fedb01" stroke="#000" stroke-miterlimit="10" stroke-width="2.0455"/><path d="m441.85 206.26c-2.1067 5.3192-17.17 11.343-36.085 3.4763 10.921-9.2519 31.544-6.2102 36.085-3.4763z" fill="#fedb01" stroke="#000" stroke-miterlimit="10" stroke-width="2.0455"/><path d="m78.183 233.15c32.319 2.8162 12.274 37.792 236.31 27.531-1.793 11.406 1.0198 26.515 16.094 36-67.37 6.36-173.98 1.91-236.6-18.09-25.626-8.8103-33.197-38.518-15.844-45.438z" fill="#fedb01" stroke="#000" stroke-width="2.5"/><path d="m81.083 271.34c3.5797 2.9959 7.8931 5.5265 12.906 7.25 62.62 19.998 169.23 24.45 236.56 18.094 0.45511 0.28637 0.89731 0.56792 1.375 0.84375 15.225 4.476 29.351 5.406 48.156 2.75 0.17439 0.56756 0.35689 1.097 0.53125 1.6562-2.0447 4.1768-2.3458 8.3377-0.53125 11.125-121.08 8.1661-195.76 11.265-292.72-13.25-14.954-4.9293-16.619-24.407-6.2812-28.469z" fill="#fedb01" stroke="#000" stroke-width="2.5"/><path d="m418.1 377.56c0.88419 3.3022 2.6416 5.9568 5.25 7.3438-22.784 12.494-40.273 30.906-49.25 51.688-6.6488 1.6191-14.928-5.29-13.031-18.719 0.14175-0.61281 0.33229-1.2577 0.5625-1.9062 12.359-16.88 38.381-34.53 56.469-38.406z" fill="#fedb01" stroke="#000" stroke-width="2.5"/><path d="m406.45 366.93c0.81535 5.0662 4.3144 8.4804 11.031 7.3438l-0.0312-0.5c0.0215 9e-3 0.0412 0.022 0.0625 0.0312 0.0932 1.3159 0.30969 2.5688 0.625 3.75-18.845 4.025-46.316 23.031-57.969 40.531-16.746 3.145-25.521-3.9514-26.031-17.156 65.529-28.402 43.27-21.305 72.312-34z" fill="#fedb01" stroke="#000" stroke-width="2.5"/><path d="m405.69 430.31c-0.34409 0.11934-0.70451 0.21847-1.0625 0.3125 0.35451-0.0935 0.72152-0.19423 1.0625-0.3125z" fill="#fedb01" stroke="#000" stroke-width="2.5"/><path d="m317.24 281.94c-94.952 7.7694-209.05-7.0355-229.45-26.384" fill="#fedb01" stroke="#000" stroke-linecap="round" stroke-linejoin="round" stroke-miterlimit="10" stroke-width="2.5"/><path d="m380.08 300.27c-18.805 2.656-32.935 1.7465-48.16-2.7295-19.806-11.436-20.024-32.15-15.699-43.791 3.5755 2.5689 5.0576 5.5554 8.2752 7.19 13.755 1.9219 112.86-2.1334 117.9-0.46998 6.8366 0.57703 27.038 22.908 12.265 37.267-5.4756 5.4136-9.276 10.827-12.651 16.241-32.939 48.672 23.854 55.346 36.677 39.732 3.7994-1.7471 12.275 18.037-1.6169 39.267-48.581-0.0425-71.363-9.3012-96.99-92.706z" fill="#fedb01" stroke="#000" stroke-linecap="round" stroke-linejoin="round" stroke-miterlimit="10" stroke-width="2.5"/><path d="m430.81 385.57c-15.014 3.5663-17.419-18.759-6.9719-31.08" fill="#fedb01" stroke="#000" stroke-linecap="round" stroke-linejoin="round" stroke-miterlimit="10" stroke-width="2.5"/><path d="m386.57 316.4c-14.083-1.0815-7.7087-21.937 9.7859-27.759" fill="#fedb01" stroke="#000" stroke-linecap="round" stroke-linejoin="round" stroke-miterlimit="10" stroke-width="2.5"/><path d="m392.11 332.11c-10.256-0.58724-9.5707-18.768 5.7822-27.839" fill="#fedb01" stroke="#000" stroke-linecap="round" stroke-linejoin="round" stroke-miterlimit="10" stroke-width="2.5"/><path d="m399.46 346.61c-12.243-0.58724-9.9679-20.159 3.9946-28.832" fill="#fedb01" stroke="#000" stroke-linecap="round" stroke-linejoin="round" stroke-miterlimit="10" stroke-width="2.5"/><path d="m406.81 361.91c-11.051-0.98448-10.365-21.946 3.5974-30.62" fill="#fedb01" stroke="#000" stroke-linecap="round" stroke-linejoin="round" stroke-miterlimit="10" stroke-width="2.5"/><path d="m392.01 289.99c-5.389-6.1422-10.312-7.1506-15.662-14.614" fill="#fedb01" stroke="#000" stroke-linecap="round" stroke-linejoin="round" stroke-miterlimit="10" stroke-width="2.5"/><path d="m383.07 296.35c-5.5877-5.6263-17.065-11.19-22.812-19.381" fill="#fedb01" stroke="#000" stroke-linecap="round" stroke-linejoin="round" stroke-miterlimit="10" stroke-width="2.5"/><path d="m385.26 323.87c0.12207 4.5525 2.4867 8.0005 6.8438 8.25 0 0 0.01 0.0113-0.1875 1.5312-120.55 22.062-174.73 28.466-264.31 26.531-18.28-0.23287-34.482-17.276-27.312-31.875 110.27 17.122 207.51 4.2021 284.97-4.4374z" fill="#fedb01" stroke="#000" stroke-width="2.5"/><path d="m391.79 333.68c0.0293 0.0716 0.0644 0.14732 0.0937 0.21875-0.95778 4.7062-0.0343 8.9601 2.9375 11.156-92.361 21.663-114.54 32.327-205.34 41.344-50.63 2.692-64.493-9.888-61.25-26.219 89.173 1.8895 143.39-4.5095 263.56-26.5z" fill="#fedb01" stroke="#000" stroke-width="2.5"/><path d="m400.07 356.43c1.1086 2.9315 3.2518 4.9837 6.375 5.4062-0.24091 1.7949-0.25178 3.5293 0 5.0938-30.065 13.142-4.8474 4.9632-79.281 37.031-45.376 13.237-45.064-0.0577-47.25-9.2812 61.974-19.498 80.829-26.211 120.16-38.25z" fill="#fedb01" stroke="#000" stroke-width="2.5"/><path d="m417.47 374.28c-15.821 2.6773-13.714-19.877-1.0144-29.86" fill="#fedb01" stroke="#000" stroke-linecap="round" stroke-linejoin="round" stroke-miterlimit="10" stroke-width="2.5"/><path d="m400.07 356.43c-44.312 13.564-62.308 20.279-145.69 46.25-47.443 8.5845-63.417-9.6954-64.688-16.312 90.604-9.0107 112.83-19.672 205.09-41.312 6e-3 5e-3 0.0248-5e-3 0.0312 0 6.6049 5.0687 2.9629 4.5714 5.25 11.375z" fill="#fedb01" stroke="#000" stroke-width="2.5"/><path d="m84.883 298.81c0.784 0.38187 1.6253 0.71168 2.5 1 96.96 24.515 171.64 21.416 292.72 13.25 9.8599 8.3047 5.321-1.5913 5.1875 10.781-5e-3 9e-3 5e-3 0.0222 0 0.0312-119.23 13.104-159.38 24.043-285.34 4.375-18.555-2.543-22.838-22.05-15.062-29.438z" fill="#fedb01" stroke="#000" stroke-width="2.5"/><path d="m370.55 300.91c-6.978-5.9436-15.079-8.9382-21.621-16.004" fill="#fedb01" stroke="#000" stroke-linecap="round" stroke-linejoin="round" stroke-miterlimit="10" stroke-width="2.5"/><path d="m423.36 384.9c1.8123 0.96362 4.0435 1.2976 6.6875 0.8125 0.54743 0.37033 1.0852 0.69423 1.625 1 0.50627 0.77554 1.1053 1.4907 1.7812 2.125-19.833 15.692-39.241 40.617-42.312 65.469-8.118-0.18971-19.017-4.0016-17.5-17.625 0.15747-0.0286 0.31292-0.0558 0.46875-0.0937 8.9767-20.781 26.466-39.193 49.25-51.688z" fill="#fedb01" stroke="#000" stroke-width="2.5"/><path d="m430.81 385.57c-15.014 3.5663-17.419-18.759-6.9719-31.08" fill="#fedb01" stroke="#000" stroke-linecap="round" stroke-linejoin="round" stroke-miterlimit="10" stroke-width="2.5"/><path d="m450.21 392.1c-18.878 2.8379-23.548-8.4822-19.755-24.185" fill="#fedb01" stroke="#000" stroke-linecap="round" stroke-linejoin="round" stroke-miterlimit="10" stroke-width="2.5"/><path d="m465.51 392.49c-16.46 6.9339-23.408-6.2744-22.712-22.413" fill="#fedb01" stroke="#000" stroke-linecap="round" stroke-linejoin="round" stroke-miterlimit="10" stroke-width="2.5"/><path d="m476.83 393.28c-14.474 4.3518-20.627-10.048-20.527-22.413" fill="#fedb01" stroke="#000" stroke-linecap="round" stroke-linejoin="round" stroke-miterlimit="10" stroke-width="2.5"/><path d="m437.76 391.43c2.5133 0.9147 5.6302 1.2799 9.4062 1-20.437 29.26-25.827 57.685-21.844 87.062-14.165 2.9236-17.891-7.2468-19.344-12.531 0.24842-0.096 0.49528-0.19988 0.75-0.3125-0.0928-23.93 10.647-52.728 31.031-75.219z" fill="#fedb01" stroke="#000" stroke-width="2.5"/><path d="m450.04 392.12c1.585 1.1557 3.4292 1.9019 5.5625 2.1562-17.82 32.517-16.778 69.282-5.7188 96.344-9.2067 8.365-21.113-4.5161-23.844-10.062-0.25409-0.40651-0.51281-0.80521-0.75-1.2188-3.9421-29.321 1.475-57.699 21.875-86.906 0.92031-0.0682 1.876-0.16596 2.875-0.3125z" fill="#fedb01" stroke="#000" stroke-width="2.5"/><path d="m465.32 392.31c1.1441 0.68955 2.402 1.2126 3.7812 1.5-6.2633 34.675 4.2054 69.399 21.875 88.562-2.9169 9.6635-13.9 11.553-17.562 6.9062 3e-3 -9e-3 -3e-3 -0.0218 0-0.0312-15.756-22.867-25.189-60.436-11.031-95.656 1.0028-0.28695 2.04-0.6367 3.125-1.0938l-0.1875-0.1875z" fill="#fedb01" stroke="#000" stroke-width="2.5"/><path d="m475.86 393.53c0.0529 32.193 14.479 62.111 32.594 78-1.7801 10.053-9.7339 11.935-18.781 9.3438-16.86-19.436-26.667-53.266-20.562-87.062 1.9982 0.4163 4.2384 0.34524 6.75-0.28125z" fill="#fedb01" stroke="#000" stroke-width="2.5"/><path d="m462.39 393.59c-14.158 35.22-4.725 72.789 11.031 95.656-4.0284 11.53-20.212 8.6468-23.469 1.0312-0.12846-0.14663-0.24909-0.31173-0.375-0.46875-10.753-26.983-11.613-63.336 6.0312-95.531 2.0075 0.23931 4.271 0.0308 6.7812-0.6875z" fill="#fedb01" stroke="#000" stroke-width="2.5"/><path d="m433.45 388.84c1.1743 1.102 2.5962 1.9691 4.3125 2.5938-20.384 22.491-31.124 51.289-31.031 75.219-10.539 4.6595-15.677-5.0802-15.844-12.344 0.0814 3e-3 0.16911-2e-3 0.25 0 3.0717-24.852 22.479-49.777 42.312-65.469z" fill="#fedb01" stroke="#000" stroke-width="2.5"/><ellipse transform="matrix(-1.3516 -.21165 .21108 -1.3552 1895.3 1578.2)" cx="1095.7" cy="701.65" rx="69.808" ry="69.61" d="m 1165.5079,701.65002 c 0,38.44455 -31.2541,69.61001 -69.8079,69.61001 -38.5539,0 -69.808,-31.16546 -69.808,-69.61001 0,-38.44454 31.2541,-69.61 69.808,-69.61 38.5538,0 69.8079,31.16546 69.8079,69.61 z" fill="#000096">
	</ellipse><path d="m562.52 331.67 8.5279 31.753 23.258-23.202-8.4499 31.794 31.746-8.4728-23.179 23.32 31.668 8.5524-31.668 8.5524 23.179 23.321-31.746-8.4728 8.4499 31.832-23.258-23.242-8.5279 31.754-8.5293-31.754-23.258 23.242 8.4499-31.832-31.746 8.4728 23.179-23.281-31.668-8.5908 31.668-8.5524-23.179-23.32 31.746 8.4728-8.4499-31.794 23.258 23.202 8.5293-31.754z" fill="#fff"/><ellipse transform="matrix(-1.3516 -.21165 .21108 -1.3552 1895.3 1578.2)" cx="1095.7" cy="701.65" rx="26.362" ry="26.288" d="m 1122.062,701.65002 c 0,14.51847 -11.8027,26.288 -26.362,26.288 -14.5594,0 -26.362,-11.76953 -26.362,-26.288 0,-14.51846 11.8026,-26.288 26.362,-26.288 14.5593,0 26.362,11.76954 26.362,26.288 z" fill="#000096">
		</ellipse><ellipse transform="matrix(-1.3516 -.21165 .21108 -1.3552 1895.3 1578.2)" cx="1095.7" cy="701.65" rx="23.269" ry="23.204" d="m 1118.969,701.65002 c 0,12.81522 -10.4179,23.204 -23.269,23.204 -12.8512,0 -23.269,-10.38878 -23.269,-23.204 0,-12.81521 10.4178,-23.204 23.269,-23.204 12.8511,0 23.269,10.38879 23.269,23.204 z" fill="#fff">
		</ellipse><path d="m603.12 171.45c1.548 2.1349 2.803 4.5209 3.6816 7.1582 4.2673 13.186-2.9704 27.335-16.149 31.605-10.626 3.4744-21.922-0.58605-28.156-9.2512-1.5061 2.1768-3.3888 4.1024-5.6479 5.7349-11.212 8.1209-26.901 5.6512-35.059-5.5675-6.5683-9.0419-6.1918-21.098 0.12551-29.637-2.5102-0.79536-4.9367-2.0093-7.1959-3.6-11.212-8.1628-13.681-23.861-5.5224-35.079 6.5683-9.0838 18.115-12.433 28.198-9.0838-0.0418-2.6372 0.37652-5.3163 1.2133-7.9535 4.3092-13.186 18.45-20.386 31.628-16.116 10.668 3.4744 17.446 13.395 17.362 24.07 2.4684-0.83721 5.1459-1.2977 7.9071-1.2977 13.89 0 25.102 11.219 25.102 25.116 0 11.177-7.3632 20.679-17.488 23.902z" fill="#fedb01" stroke="#000" stroke-width="2.9526"/><g transform="translate(229.07 -74.158)" fill-rule="evenodd" stroke-width="2.5"><path transform="translate(-229.08)" d="m562.47 190.38c-0.15541 4e-3 -0.30424 0.035-0.46875 0.0625-1.2577 0.2113-2.5009 1.301-2.4688 2.5625 0.0238 0.91818 0.43282 1.989 1.0312 2.6875 0.59903 0.69924 0.97233 1.3228 0.96875 2.2188-0.0125 3.0548-0.037 6.1021 0 9.1562 7e-3 0.53766 0.0239 1.1108-0.0625 1.5625-1.859 6e-3 -3.7387 0.25649-5.5625 0.78125-0.95366-2.3177-1.9882-4.6962-2.875-7.125-0.14663-0.40245 0.35746-1.0315 0.5625-1.5625 0.8434-2.1867-0.23903-4.1234-2.4062-4.3125-1.5628-0.13553-2.786 0.58702-3.2188 1.9062-0.47624 1.4499 2e-3 3.1871 1.4375 3.6562 1.4502 0.47403 1.9142 1.4434 2.375 2.625 0.67803 1.739 1.548 3.8934 2.1875 5.5-3.5866 1.4029-6.8924 3.7554-9.5 6.8438-1.7291-1.4273-4.0268-3.4238-5.9062-5.0625-0.38385-0.33433-0.49259-1.0016-0.6875-1.5312-0.23007-0.62695-0.30578-1.3301-0.65625-1.875-0.81122-1.2636-2.5146-1.661-3.8438-1-1.2708 0.63182-2.004 2.1183-1.6875 3.4062 0.34631 1.4096 1.7993 2.7497 3.1875 2.3438 1.7834-0.52199 2.7428 0.41584 3.8438 1.3438 1.478 1.2466 2.9609 2.4623 4.5938 3.8125-1.0683 1.4837-1.9445 3.1302-2.6562 4.875-0.01-3e-3 -0.0217 3e-3 -0.0312 0-2.0275-0.61697-4.0308-1.2607-6.0312-1.875-1.1384-0.34962-2.2762-0.68786-3.4062-1.0625-1.2821-0.42469-2.4623-0.79862-3.0625-2.3438-0.55074-1.4179-2.1459-1.8469-3.4375-1.4375-1.2571 0.39827-2.1779 1.5378-2.25 2.7812-0.0769 1.3373 0.80135 2.7143 2.2188 3.0625 0.67591 0.16612 1.6037 0.13087 2.1562-0.21875 1.2469-0.78889 2.3524-0.56497 3.625-0.125 2.9106 1.0074 6.3681 1.9646 9.5625 2.9688-0.53062 1.6787-0.89264 3.4562-1.0312 5.3125-2e-3 0.01 2e-3 0.0214 0 0.0312-2.5368 0.24397-4.8879 0.54507-7.25 0.625-0.60559 0.0208-1.2769-0.61836-1.8438-1.0625-1.3727-1.0753-3.0463-1.1683-4.2188-0.15625-1.2267 1.0593-1.412 2.8433-0.4375 4.125 0.96143 1.2643 3.0691 1.5676 4.375 0.5625 0.5275-0.40592 0.9065-0.98913 1.375-1.5 1.2624-0.0945 2.5382-0.17491 3.8125-0.28125 1.1192-0.0934 2.9484-0.16611 4.125-0.25 1.3e-4 0.0106-1.4e-4 0.0207 0 0.0312 0.0569 4.2834 1.2175 8.2826 3.1875 11.719-1.8448 1.5454-4.8716 3.207-7.125 4.7188-0.45836 0.30722-1.3967-0.2986-2.0625-0.3125-1.9175-0.0403-3.1518 1.3527-3.3438 3.0312-0.18179 1.5973 0.91716 3.5123 2.5312 3.75 1.8269 0.26899 3.3742-1.1011 3.5-2.9688 0.11325-1.6925 1.1348-2.3556 2.25-3.125 1.5636-1.0794 3.4041-2.4591 5.125-3.6562 1.0692 1.589 2.338 3.0366 3.75 4.3125-2.077 3.1672-4.1142 6.3406-6.25 9.4375-0.30995 0.44901-1.389 0.14221-2 0.3125-1.9526 0.54424-2.6723 2.456-2.2812 4.25 0.33021 1.5125 2.1726 2.8197 3.7188 2.5312 1.8316-0.34266 2.467-1.9947 2.25-4.0625-0.0745-0.71314-0.1817-1.6064 0.15625-2.1562 1.8515-3.0121 3.8619-5.9111 5.9062-9.0312 1.4908 1.1338 3.1299 2.0614 4.875 2.8125-0.38735 2.1019-0.68495 4.2255-1.25 6.2812-0.18239 0.66517-1.0792 0.81205-1.7188 1.3125-1.0651 0.83338-1.3825 2.2753-1.125 3.5312 0.26822 1.3074 1.1792 2.0498 2.4375 2.3125 1.2016 0.25022 2.1118 0.11332 2.8438-0.8125 0.81956-1.0363 1.0689-2.6936 0.3125-3.6875-0.97632-1.281-0.81505-2.4592-0.46875-3.8125 0.34407-1.3444 0.5823-2.7546 0.90625-4.375 2.2943 0.7528 4.7492 1.1488 7.3125 1.1562 2.5024 7e-3 4.9179-0.35869 7.1875-1.0625 0.30818 2.2163 0.84516 4.2192 1 6.2812 0.0483 0.65475-0.59784 1.3383-0.875 2.0312-0.55015 1.3721-0.0184 3.1687 1.0938 4.0312 1.0735 0.8313 2.6875 0.95987 3.5625-0.0937 1.5939-1.9194 0.94477-4.3194-0.28125-5.6875-0.75477-0.84226-1.5364-0.91723-1.7188-1.8438-0.33525-1.7148-0.64878-3.4398-1-5.3438 1.7459-0.69839 3.3953-1.6183 4.9062-2.6875 0.4486 0.55051 0.91888 1.0665 1.3125 1.6562 1.3208 1.9782 2.5821 4.0142 3.9375 5.9688 0.75459 1.0878 0.9334 2.0486 0.84375 3.5-0.14607 2.3648 1.0199 3.9445 3.0312 3.9062 1.4907-0.0283 2.7171-1.869 2.5-3.2812-0.27099-1.7631-0.78379-2.6394-2.0625-3.4062-1.1216-0.67264-1.8483-0.404-2.4688-1.375-1.7381-2.7191-3.5394-5.4287-5.4062-8.2812 1.4619-1.2473 2.7899-2.655 3.9062-4.2188 2.1058 1.4574 4.2191 2.8531 6.2188 4.375 0.4232 0.32251 0.52095 1.1349 0.65625 1.75 0.42081 1.9309 1.744 3.0959 3.5625 2.9688 1.6135-0.1126 2.4832-1.4146 2.5625-3 0.15362-2.1528-1.8815-3.93-3.4688-3.75-4.2183 0.47833-5.2947-2.4294-8.5-3.9688 2.0659-3.4685 3.255-7.5096 3.25-11.844 1.0611-0.0219 2.3594-0.0814 3.2812-0.0312 1.0192 0.0549 2.0438 0.26523 3.0625 0.3125 1.0484 0.0486 1.8519 0.20471 2.625 1.1562 1.1802 1.4541 3.357 1.3983 4.5312 0.1875 1.108-1.1413 1.119-2.9858 0.0312-4.1562-1.2082-1.3012-3.0295-1.2824-4.5625-0.0312-0.54359 0.44345-1.2623 1.0208-1.875 1-2.1311-0.0738-4.874-0.23248-7.1875-0.4375-0.14273-1.8958-0.47307-3.6824-0.96875-5.3438 0.5817-0.21341 1.2515-0.47041 1.625-0.59375 2.8217-0.93486 5.6477-1.811 8.4688-2.75 1.0121-0.33642 1.8629-0.36788 2.875 0.21875 1.5712 0.91193 3.3834 0.35404 4.1875-1.0625 0.82612-1.4562 0.28508-3.3374-1.2188-4.1875-1.533-0.86744-3.3487-0.50848-4.0938 1.2188-0.60558 1.402-1.6117 1.8399-2.8438 2.2188-3.021 0.92995-6.4828 2.0743-9.6562 3.0625-0.70192-1.7912-1.5826-3.4311-2.625-4.9062 2.0846-1.7231 4.072-3.4759 6.2188-5.0625 0.47207-0.34823 1.4237-0.0715 2.1562-0.0625 1.4436 0.0174 2.7415-0.89051 3.0938-2.1875 0.40412-1.4881-0.24251-2.998-1.5938-3.6562-1.2272-0.59775-2.859-0.24823-3.6875 0.875-0.33557 0.45457-0.69235 1.0884-0.625 1.5938 0.16988 1.2553-0.5769 1.848-1.375 2.5-1.778 1.4534-3.5526 2.9111-5.4062 4.4375-2.7146-3.2146-6.1394-5.5333-9.6875-6.875 0.8816-2.2057 1.6871-4.4391 2.6875-6.5938 0.26047-0.56022 1.1042-0.92677 1.7188-1.2812 1.4853-0.85632 2.1017-2.3445 1.5312-3.875-0.50664-1.3602-1.9749-2.0843-3.5938-1.7812-1.8638 0.34823-2.9998 2.3039-2.0312 4.125 0.71704 1.3477 0.4465 2.3205-0.0625 3.5-0.75889 1.7561-1.4466 3.5394-2.1562 5.2812-1.8234-0.5098-3.6377-0.75703-5.375-0.75-2e-3 -3.9174-0.0545-7.7297 0.0625-11.531 0.0185-0.58247 0.86785-1.137 1.3125-1.7188 0.83387-1.0933 0.91859-2.5122 0.15625-3.5625-0.66183-0.91105-1.5371-1.4372-2.625-1.4062zm0 21.125c1.5581 5e-3 3.0511 0.17142 4.4688 0.46875 0.0511 0.0107 0.10539 0.0202 0.15625 0.0312 0.0718 0.0196 0.14709 0.0421 0.21875 0.0625 8.0401 2.2893 15.042 9.8782 15.969 18.062 9e-3 0.0823 0.0232 0.16761 0.0312 0.25 2e-3 0.0306-2e-3 0.0632 0 0.0937 0.0277 0.30036 0.0515 0.60468 0.0625 0.90625 2e-4 0.0104-1.8e-4 0.0208 0 0.0312 6e-3 0.31478-0.0199 0.62383-0.0312 0.9375 3e-3 0.17528 1e-3 0.35686 0 0.53125-0.50201 9.3008-7.9212 18.112-17.281 19.906-1.1003 0.1984-2.2338 0.29875-3.375 0.3125-0.0412 2.4e-4 -0.0838 5e-5 -0.125 0-0.52955 3e-3 -1.0539-0.0196-1.5938-0.0625-0.0621-6e-3 -0.12556 6e-3 -0.1875 0-0.0832-7e-3 -0.16663-0.0227-0.25-0.0312-0.0852-0.01-0.1651-0.0203-0.25-0.0312-0.26222-0.0302-0.51792-0.0842-0.78125-0.125-9.2553-1.6179-16.749-10.258-17.75-18.719-0.0504-0.62498-0.0952-1.2522-0.0937-1.9062 2e-3 -1.0928 0.0679-2.1622 0.21875-3.1875 8e-3 -0.0528 0.0231-0.10361 0.0312-0.15625 4e-3 -0.0203-4e-3 -0.0422 0-0.0625 0.0477-0.30237 0.12754-0.61015 0.1875-0.90625 0.0142-0.0611 0.0164-0.12656 0.0312-0.1875 1.7095-7.0131 7.4883-13.069 14.344-15.375 0.0408-0.0121 0.0842-0.0194 0.125-0.0312 0.0193-6e-3 0.0432 6e-3 0.0625 0 1.8791-0.53925 3.8388-0.81843 5.8125-0.8125z"/><path d="m333.4 218.34c-6.8599-0.3107-14.162 5.6502-14.049 14.063 0.10371 7.7083 6.2448 13.835 14.021 13.858 7.872 0.0222 14.302-6.2104 14.21-13.958-0.11146-9.4487-8.2183-14.4-14.182-13.962zm-11.37 13.873c0.0382-6.3244 5.0264-11.277 11.387-11.308 6.3848-0.0306 11.696 5.1845 11.526 11.487-0.16749 6.2486-4.8292 11.303-11.451 11.34-6.9028 0.0396-11.615-5.5716-11.463-11.519z" clip-rule="evenodd"/></g></svg>
