<?xml version="1.0" encoding="UTF-8"?>
<svg version="1.1" viewBox="0 0 1170 900" xmlns="http://www.w3.org/2000/svg" xmlns:cc="http://creativecommons.org/ns#" xmlns:dc="http://purl.org/dc/elements/1.1/" xmlns:rdf="http://www.w3.org/1999/02/22-rdf-syntax-ns#" xmlns:xlink="http://www.w3.org/1999/xlink">
<metadata>
<rdf:RDF>
<cc:Work rdf:about="">
<dc:format>image/svg+xml</dc:format>
<dc:type rdf:resource="http://purl.org/dc/dcmitype/StillImage"/>
<dc:title/>
</cc:Work>
</rdf:RDF>
</metadata>
<defs>
<path id="y" d="m425 25c110.4 0 200 89.6 200 200s-89.6 200-200 200-200 89.6-200 200 89.6 200 200 200c220.8 0 400-179.2 400-400s-179.2-400-400-400zm0 537.5c34.5 0 62.5 28 62.5 62.5s-28 62.5-62.5 62.5-62.5-28-62.5-62.5 28-62.5 62.5-62.5z"/>
<path id="d" d="m450 200c0 27.614-22.386 50-50 50s-50-22.386-50-50 22.386-50 50-50 50 22.386 50 50z"/>
<style type="text/css">.fil4 {fill:#1F1A17}
    .fil1 {fill:#DA251D}
    .fil3 {fill:#FFFFFF}
    .fil0 {fill:#FCDB00}
    .fil2 {fill:#282175}</style>
</defs>
<g transform="translate(2.3239e-6 -1.1294e-5)" stroke="#ffdb00">
<g transform="matrix(.024016 0 0 .019237 447.25 22.154)" stroke-width="174.47">
<g fill="none" stroke="#ffdb00" stroke-width="174.47">
<path class="fil1 str1" d="m26302 3976 2894-3246.8"/>
<path class="fil1 str1" d="m26302 4438 3132-3177.9"/>
<path class="fil1 str1" d="m26302 4901 3340-3193.5"/>
<path class="fil1 str1" d="m26302 5363c1171-1055 2342-2110 3512-3165"/>
<path class="fil1 str1" d="m26302 5825c1213-1063 2426-2126 3639-3190"/>
<path class="fil1 str1" d="m26302 6287c1236-1053 2472-2105 3708-3158"/>
<path class="fil1 str1" d="m26302 6750c1238-1025 2477-2049 3715-3073"/>
<path class="fil1 str1" d="m26302 7212c1238-994 2477-1988 3715-2981"/>
<path class="fil1 str1" d="m26302 7674c1238-963 2477-1926 3715-2889"/>
<path class="fil1 str1" d="m26302 8136c1238-932 2477-1865 3715-2797"/>
<path class="fil1 str1" d="m26302 8599c1238-902 2477-1804 3715-2706"/>
<path class="fil1 str1" d="m26302 9061c1238-872 2477-1743 3715-2614"/>
<path class="fil1 str1" d="m26302 9523c1238-841 2477-1682 3715-2522"/>
<path class="fil1 str1" d="m26302 9985c1238-810 2477-1620 3715-2430"/>
<path class="fil1 str1" d="m26302 10447c1238-779 2477-1559 3715-2339"/>
<path class="fil1 str1" d="m26302 10910c1238-749 2477-1498 3715-2248"/>
<path class="fil1 str1" d="m26302 11372c1238-719 2477-1437 3715-2156"/>
<path class="fil1 str1" d="m26302 11834c1238-688 2477-1376 3715-2064"/>
<path class="fil1 str1" d="m26302 12296c1238-657 2477-1314 3715-1972"/>
<path class="fil1 str1" d="m26302 12759c1238-627 2477-1254 3715-1881"/>
<path class="fil1 str1" d="m26302 13221c1238-596 2477-1193 3715-1789"/>
<path class="fil1 str1" d="m26302 13683c1238-566 2477-1131 3715-1697"/>
<path class="fil1 str1" d="m26302 14145c1238-535 2477-1070 3715-1605"/>
<path class="fil1 str1" d="m26302 14608c1238-505 2477-1009 3715-1514"/>
<path class="fil1 str1" d="m26302 15070c1238-474 2477-948 3715-1422"/>
<path class="fil1 str1" d="m26302 15532c1238-443 2477-887 3715-1330"/>
<path class="fil1 str1" d="m26302 15994c1238-412 2477-825 3715-1238"/>
<path class="fil1 str1" d="m26302 16457c1238-383 2477-765 3715-1147"/>
<path class="fil1 str1" d="m26302 16919c1238-352 2477-703 3715-1055"/>
<path class="fil1 str1" d="m26302 17381c1238-321 2477-642 3715-963"/>
<path class="fil1 str1" d="m26302 17843c1238-290 2477-581 3715-871"/>
<path class="fil1 str1" d="m26302 18305c1238-259 2477-519 3715-779"/>
<path class="fil1 str1" d="m26302 18768c1238-230 2477-459 3715-688"/>
<path class="fil1 str1" d="m26302 19230c1238-199 2477-398 3715-596"/>
<path class="fil1 str1" d="m26302 19692c1238-168 2477-336 3715-504"/>
<path class="fil1 str1" d="m26302 20154c1238-137 2477-275 3715-412"/>
<path class="fil1 str1" d="m26302 20617c1238-107 2477-214 3715-321"/>
<path class="fil1 str1" d="m26302 21079c1238-77 2477-153 3715-229"/>
<path class="fil1 str1" d="m26302 21541c1238-46 2477-92 3715-137"/>
<path class="fil1 str1" d="m26302 22003c1238-15 2477-30 3715-45"/>
<path class="fil1 str1" d="m26302 22466c1238 15 2477 30 3715 45"/>
<path class="fil1 str1" d="m26302 22928c1238 46 2477 92 3715 137"/>
<path class="fil1 str1" d="m26302 23390c1238 77 2477 153 3715 229"/>
<path class="fil1 str1" d="m26302 23852c1238 107 2477 214 3715 321"/>
<path class="fil1 str1" d="m26302 24315c1238 137 2477 275 3715 412"/>
<path class="fil1 str1" d="m26302 24777c1238 168 2477 336 3715 504"/>
<path class="fil1 str1" d="m26302 25239c1238 199 2477 397 3715 596"/>
<path class="fil1 str1" d="m26302 25701c1238 230 2477 459 3715 688"/>
<path class="fil1 str1" d="m26302 26163c1238 260 2477 520 3715 780"/>
<path class="fil1 str1" d="m26302 26626c1238 290 2477 581 3715 871"/>
<path class="fil1 str1" d="m26302 27088c1238 321 2477 642 3715 963"/>
<path class="fil1 str1" d="m26302 27550c1238 352 2477 703 3715 1055"/>
<path class="fil1 str1" d="m26302 28012c1238 383 2477 765 3715 1147"/>
<path class="fil1 str1" d="m26302 28475c1238 412 2477 825 3715 1238"/>
<path class="fil1 str1" d="m26302 28937c1238 443 2477 887 3715 1330"/>
<path class="fil1 str1" d="m26302 29399c1238 474 2477 948 3715 1422"/>
<path class="fil1 str1" d="m26302 29861c1238 505 2477 1009 3715 1514"/>
<path class="fil1 str1" d="m26302 30324c1238 535 2477 1070 3715 1605"/>
<path class="fil1 str1" d="m26302 30786c1238 565 2477 1131 3715 1697"/>
<path class="fil1 str1" d="m26302 31248c1238 596 2477 1193 3715 1789"/>
<path class="fil1 str1" d="m26302 31710c1238 627 2477 1254 3715 1881"/>
<path class="fil1 str1" d="m26302 32173c1238 657 2477 1314 3715 1972"/>
<path class="fil1 str1" d="m26302 32635c1238 688 2477 1376 3715 2064"/>
<path class="fil1 str1" d="m26302 33097c1238 719 2477 1437 3715 2156"/>
<path class="fil1 str1" d="m26302 33559c1238 749 2477 1498 3715 2248"/>
<path class="fil1 str1" d="m26302 34022c1238 779 2477 1559 3715 2338"/>
<path class="fil1 str1" d="m26302 34484c1238 810 2477 1620 3715 2430"/>
<path class="fil1 str1" d="m26302 34946c1238 841 2477 1682 3715 2522"/>
<path class="fil1 str1" d="m26302 35408c1238 872 2477 1743 3715 2614"/>
<path class="fil1 str1" d="m26302 35870c1238 902 2477 1804 3715 2706"/>
<path class="fil1 str1" d="m26302 36333c1238 932 2477 1865 3715 2797"/>
<path class="fil1 str1" d="m26302 36795c1238 963 2477 1926 3715 2889"/>
<path class="fil1 str1" d="m26302 37257c1238 994 2477 1988 3715 2981"/>
<path class="fil1 str1" d="m26302 37719c1238 1025 2477 2049 3715 3073"/>
<path class="fil1 str1" d="m26302 38182c1236 1053 2472 2106 3709 3159"/>
<path class="fil1 str1" d="m26302 38644c1214 1064 2427 2128 3641 3191"/>
<path class="fil1 str1" d="m26302 39106c1172 1056 2344 2112 3515 3168"/>
<path class="fil1 str1" d="m26302 39568c1115 1032 2229 2065 3344 3097"/>
<path class="fil1 str1" d="m26302 40031 3137 3181.9"/>
<path class="fil1 str1" d="m26302 40493 2900 3251.8"/>
</g>
</g>
<g transform="matrix(.019375 0 0 .024765 579.26 -203.42)" fill="none" stroke-width="171.19">
<path class="fil1 str0" d="m-29800 40955 3523 3524"/>
<path class="fil1 str1" d="m-29245 40955 3524 3524"/>
<path class="fil1 str1" d="m-28689 40955c1174 1175 2349 2349 3523 3524"/>
<path class="fil1 str1" d="m-28134 40955 3524 3524"/>
<path class="fil1 str1" d="m-27578 40955c1174 1175 2349 2349 3523 3524"/>
<path class="fil1 str1" d="m-27023 40955 3524 3524"/>
<path class="fil1 str1" d="m-26467 40955c1174 1175 2349 2349 3523 3524"/>
<path class="fil1 str1" d="m-25912 40955 3524 3524"/>
<path class="fil1 str1" d="m-25357 40955 3524 3524"/>
<path class="fil1 str1" d="m-24801 40955c1174 1175 2349 2349 3523 3524"/>
<path class="fil1 str1" d="m-24246 40955 3524 3524"/>
<path class="fil1 str1" d="m-23690 40955c1174 1175 2349 2349 3523 3524"/>
<path class="fil1 str1" d="m-23135 40955 3524 3524"/>
<path class="fil1 str1" d="m-22579 40955c1174 1175 2349 2349 3523 3524"/>
<path class="fil1 str1" d="m-22024 40955 3524 3524"/>
<path class="fil1 str1" d="m-21468 40955c1174 1175 2349 2349 3523 3524"/>
<path class="fil1 str1" d="m-20913 40955 3524 3524"/>
<path class="fil1 str1" d="m-20357 40955c1174 1175 2349 2349 3523 3524"/>
<path class="fil1 str1" d="m-19802 40955 3524 3524"/>
<path class="fil1 str1" d="m-19246 40955c1174 1175 2349 2349 3523 3524"/>
<path class="fil1 str1" d="m-18691 40955 3524 3524"/>
<path class="fil1 str1" d="m-18135 40955c1174 1175 2349 2349 3523 3524"/>
<path class="fil1 str1" d="m-17580 40955 3524 3524"/>
<path class="fil1 str1" d="m-17025 40955c1175 1175 2350 2349 3524 3524"/>
<path class="fil1 str1" d="m-16469 40955c1174 1175 2349 2349 3523 3524"/>
<path class="fil1 str1" d="m-15914 40955 3524 3524"/>
<path class="fil1 str1" d="m-15358 40955c1174 1175 2349 2349 3523 3524"/>
<path class="fil1 str1" d="m-14803 40955 3524 3524"/>
<path class="fil1 str1" d="m-14247 40955c1174 1175 2349 2349 3523 3524"/>
<path class="fil1 str1" d="m-13692 40955 3524 3524"/>
<path class="fil1 str1" d="m-13136 40955c1174 1175 2349 2349 3523 3524"/>
<path class="fil1 str1" d="m-12581 40955 3524 3524"/>
<path class="fil1 str1" d="m-12025 40955c1174 1175 2349 2349 3523 3524"/>
<path class="fil1 str1" d="m-11470 40955 3524 3524"/>
<path class="fil1 str1" d="m-10914 40955c1174 1175 2349 2349 3523 3524"/>
<path class="fil1 str1" d="m-10359 40955 3524 3524"/>
<path class="fil1 str1" d="m-9803 40955c1174 1175 2349 2349 3523 3524"/>
<path class="fil1 str1" d="m-9248 40955 3524 3524"/>
<path class="fil1 str1" d="m-8692 40955c1174 1175 2349 2349 3523 3524"/>
<path class="fil1 str1" d="m-8137 40955 3524 3524"/>
<path class="fil1 str1" d="m-7582 40955 3524 3524"/>
<path class="fil1 str1" d="m-7026 40955c1174 1175 2349 2349 3523 3524"/>
<path class="fil1 str1" d="m-6471 40955 3524 3524"/>
<path class="fil1 str1" d="m-5915 40955c1174 1175 2349 2349 3523 3524"/>
<path class="fil1 str1" d="m-5360 40955 3524 3524"/>
<path class="fil1 str1" d="m-4804 40955c1174 1175 2349 2349 3523 3524"/>
<path class="fil1 str1" d="m-4249 40955 3524 3524"/>
<path class="fil1 str1" d="m-3693 40955c1174 1175 2349 2349 3523 3524"/>
<path class="fil1 str1" d="m-3138 40955 3524 3524"/>
<path class="fil1 str1" d="m-2582 40955c1174 1175 2349 2349 3523 3524"/>
<path class="fil1 str1" d="m-2027 40955 3524 3524"/>
<path class="fil1 str1" d="m-1471 40955c1174 1175 2349 2349 3523 3524"/>
<path class="fil1 str1" d="m-916 40955 3524 3524"/>
<path class="fil1 str1" d="m-360 40955c1174 1175 2349 2349 3523 3524"/>
<path class="fil1 str1" d="m195 40955 3524 3524"/>
<path class="fil1 str1" d="m750 40955c1175 1175 2350 2349 3524 3524"/>
<path class="fil1 str1" d="m1306 40955c1174 1175 2349 2349 3523 3524"/>
<path class="fil1 str1" d="m1861 40955 3524 3524"/>
<path class="fil1 str1" d="m2417 40955c1174 1175 2349 2349 3523 3524"/>
<path class="fil1 str1" d="m2972 40955 3524 3524"/>
<path class="fil1 str1" d="m3528 40955c1174 1175 2349 2349 3523 3524"/>
<path class="fil1 str1" d="m4083 40955 3524 3524"/>
<path class="fil1 str1" d="m4639 40955c1174 1175 2349 2349 3523 3524"/>
<path class="fil1 str1" d="m5194 40955 3524 3524"/>
<path class="fil1 str1" d="m5750 40955c1174 1175 2349 2349 3523 3524"/>
<path class="fil1 str1" d="m6305 40955 3524 3524"/>
<path class="fil1 str1" d="m6861 40955c1174 1175 2349 2349 3523 3524"/>
<path class="fil1 str1" d="m7416 40955 3524 3524"/>
<path class="fil1 str1" d="m7972 40955c1174 1175 2349 2349 3523 3524"/>
<path class="fil1 str1" d="m8527 40955 3524 3524"/>
<path class="fil1 str1" d="m9083 40955c1174 1175 2349 2349 3523 3524"/>
<path class="fil1 str1" d="m9638 40955 3524 3524"/>
<path class="fil1 str1" d="m10193 40955 3524 3524"/>
<path class="fil1 str1" d="m10749 40955c1174 1175 2349 2349 3523 3524"/>
<path class="fil1 str1" d="m11304 40955 3524 3524"/>
<path class="fil1 str1" d="m11860 40955c1174 1175 2349 2349 3523 3524"/>
<path class="fil1 str1" d="m12415 40955 3524 3524"/>
<path class="fil1 str1" d="m12971 40955c1174 1175 2349 2349 3523 3524"/>
<path class="fil1 str1" d="m13526 40955 3524 3524"/>
<path class="fil1 str1" d="m14082 40955c1174 1175 2349 2349 3523 3524"/>
<path class="fil1 str1" d="m14637 40955 3524 3524"/>
<path class="fil1 str1" d="m15193 40955c1174 1175 2349 2349 3523 3524"/>
<path class="fil1 str1" d="m15748 40955 3524 3524"/>
<path class="fil1 str1" d="m16304 40955c1174 1175 2349 2349 3523 3524"/>
<path class="fil1 str1" d="m16859 40955 3524 3524"/>
<path class="fil1 str1" d="m17415 40955c1174 1175 2349 2349 3523 3524"/>
<path class="fil1 str1" d="m17970 40955 3524 3524"/>
<path class="fil1 str1" d="m18526 40955c1174 1175 2349 2349 3523 3524"/>
<path class="fil1 str1" d="m19081 40955c1174 1175 2349 2349 3523 3524"/>
<path class="fil1 str1" d="m19636 40955 3524 3524"/>
<path class="fil1 str1" d="m20192 40955c1174 1175 2349 2349 3523 3524"/>
<path class="fil1 str1" d="m20747 40955 3524 3524"/>
<path class="fil1 str1" d="m21303 40955c1174 1175 2349 2349 3523 3524"/>
<path class="fil1 str1" d="m21858 40955 3524 3524"/>
<path class="fil1 str1" d="m22414 40955c1174 1175 2349 2349 3523 3524"/>
<path class="fil1 str1" d="m22969 40955 3524 3524"/>
<path class="fil1 str1" d="m23525 40955c1168 1168 2336 2337 3504 3505"/>
<path class="fil1 str1" d="m24080 40955 3420 3420"/>
<path class="fil1 str1" d="m24636 40955 3382.3 3223.2"/>
<path class="fil1 str1" d="m25191 40955 3302.6 2983.4"/>
<path class="fil1 str1" d="m25747 40955 3193.3 2588"/>
</g>
<g transform="matrix(.019375 0 0 .026191 579.26 1.8488)" fill="none" stroke-width="166.47">
<path class="fil1 str0" d="m-29800 3514 3512-3513"/>
<path class="fil1 str1" d="m-29245 3514 3513-3513"/>
<path class="fil1 str1" d="m-28689 3514c1170-1171 2341-2342 3512-3513"/>
<path class="fil1 str1" d="m-28134 3514 3513-3513"/>
<path class="fil1 str1" d="m-27578 3514c1170-1171 2341-2342 3512-3513"/>
<path class="fil1 str1" d="m-27023 3514 3513-3513"/>
<path class="fil1 str1" d="m-26467 3514c1170-1171 2341-2342 3512-3513"/>
<path class="fil1 str1" d="m-25912 3514c1171-1171 2342-2342 3512-3513"/>
<path class="fil1 str1" d="m-25357 3514 3513-3513"/>
<path class="fil1 str1" d="m-24801 3514c1171-1171 2342-2342 3512-3513"/>
<path class="fil1 str1" d="m-24246 3514 3513-3513"/>
<path class="fil1 str1" d="m-23690 3514c1171-1171 2342-2342 3512-3513"/>
<path class="fil1 str1" d="m-23135 3514 3513-3513"/>
<path class="fil1 str1" d="m-22579 3514c1171-1171 2341-2342 3512-3513"/>
<path class="fil1 str1" d="m-22024 3514 3513-3513"/>
<path class="fil1 str1" d="m-21468 3514c1171-1171 2341-2342 3512-3513"/>
<path class="fil1 str1" d="m-20913 3514 3513-3513"/>
<path class="fil1 str1" d="m-20357 3514c1171-1171 2341-2342 3512-3513"/>
<path class="fil1 str1" d="m-19802 3514 3513-3513"/>
<path class="fil1 str1" d="m-19246 3514c1170-1171 2341-2342 3512-3513"/>
<path class="fil1 str1" d="m-18691 3514 3513-3513"/>
<path class="fil1 str1" d="m-18135 3514c1170-1171 2341-2342 3512-3513"/>
<path class="fil1 str1" d="m-17580 3514 3513-3513"/>
<path class="fil1 str1" d="m-17025 3514 3513-3513"/>
<path class="fil1 str1" d="m-16469 3514c1171-1171 2342-2342 3512-3513"/>
<path class="fil1 str1" d="m-15914 3514 3513-3513"/>
<path class="fil1 str1" d="m-15358 3514c1171-1171 2342-2342 3512-3513"/>
<path class="fil1 str1" d="m-14803 3514 3513-3513"/>
<path class="fil1 str1" d="m-14247 3514c1171-1171 2342-2342 3512-3513"/>
<path class="fil1 str1" d="m-13692 3514 3513-3513"/>
<path class="fil1 str1" d="m-13136 3514c1171-1171 2341-2342 3512-3513"/>
<path class="fil1 str1" d="m-12581 3514 3513-3513"/>
<path class="fil1 str1" d="m-12025 3514c1171-1171 2341-2342 3512-3513"/>
<path class="fil1 str1" d="m-11470 3514 3513-3513"/>
<path class="fil1 str1" d="m-10914 3514c1170-1171 2341-2342 3512-3513"/>
<path class="fil1 str1" d="m-10359 3514 3513-3513"/>
<path class="fil1 str1" d="m-9803 3514c1170-1171 2341-2342 3512-3513"/>
<path class="fil1 str1" d="m-9248 3514 3513-3513"/>
<path class="fil1 str1" d="m-8692 3514c1170-1171 2341-2342 3512-3513"/>
<path class="fil1 str1" d="m-8137 3514c1171-1171 2342-2342 3512-3513"/>
<path class="fil1 str1" d="m-7582 3514 3513-3513"/>
<path class="fil1 str1" d="m-7026 3514c1171-1171 2342-2342 3512-3513"/>
<path class="fil1 str1" d="m-6471 3514 3513-3513"/>
<path class="fil1 str1" d="m-5915 3514c1171-1171 2342-2342 3512-3513"/>
<path class="fil1 str1" d="m-5360 3514 3513-3513"/>
<path class="fil1 str1" d="m-4804 3514c1171-1171 2341-2342 3512-3513"/>
<path class="fil1 str1" d="m-4249 3514 3513-3513"/>
<path class="fil1 str1" d="m-3693 3514c1171-1171 2341-2342 3512-3513"/>
<path class="fil1 str1" d="m-3138 3514 3513-3513"/>
<path class="fil1 str1" d="m-2582 3514c1171-1171 2341-2342 3512-3513"/>
<path class="fil1 str1" d="m-2027 3514 3513-3513"/>
<path class="fil1 str1" d="M -1471,3514 C -301,2343 870,1172 2041,1"/>
<path class="fil1 str1" d="m-916 3514 3513-3513"/>
<path class="fil1 str1" d="M -360,3514 C 810,2343 1981,1172 3152,1"/>
<path class="fil1 str1" d="m195 3514 3513-3513"/>
<path class="fil1 str1" d="m750 3514 3513-3513"/>
<path class="fil1 str1" d="m1306 3514c1171-1171 2342-2342 3512-3513"/>
<path class="fil1 str1" d="m1861 3514 3513-3513"/>
<path class="fil1 str1" d="m2417 3514c1171-1171 2342-2342 3512-3513"/>
<path class="fil1 str1" d="m2972 3514 3513-3513"/>
<path class="fil1 str1" d="m3528 3514c1171-1171 2342-2342 3512-3513"/>
<path class="fil1 str1" d="m4083 3514 3513-3513"/>
<path class="fil1 str1" d="m4639 3514c1171-1171 2341-2342 3512-3513"/>
<path class="fil1 str1" d="m5194 3514 3513-3513"/>
<path class="fil1 str1" d="m5750 3514c1171-1171 2341-2342 3512-3513"/>
<path class="fil1 str1" d="m6305 3514 3513-3513"/>
<path class="fil1 str1" d="m6861 3514c1170-1171 2341-2342 3512-3513"/>
<path class="fil1 str1" d="m7416 3514 3513-3513"/>
<path class="fil1 str1" d="m7972 3514c1170-1171 2341-2342 3512-3513"/>
<path class="fil1 str1" d="m8527 3514 3513-3513"/>
<path class="fil1 str1" d="m9083 3514c1170-1171 2341-2342 3512-3513"/>
<path class="fil1 str1" d="m9638 3514 3513-3513"/>
<path class="fil1 str1" d="m10193 3514 3513-3513"/>
<path class="fil1 str1" d="m10749 3514c1171-1171 2342-2342 3512-3513"/>
<path class="fil1 str1" d="m11304 3514 3513-3513"/>
<path class="fil1 str1" d="m11860 3514c1171-1171 2342-2342 3512-3513"/>
<path class="fil1 str1" d="m12415 3514 3513-3513"/>
<path class="fil1 str1" d="m12971 3514c1171-1171 2341-2342 3512-3513"/>
<path class="fil1 str1" d="m13526 3514 3513-3513"/>
<path class="fil1 str1" d="m14082 3514c1171-1171 2341-2342 3512-3513"/>
<path class="fil1 str1" d="m14637 3514 3513-3513"/>
<path class="fil1 str1" d="m15193 3514c1171-1171 2341-2342 3512-3513"/>
<path class="fil1 str1" d="m15748 3514 3513-3513"/>
<path class="fil1 str1" d="m16304 3514c1170-1171 2341-2342 3512-3513"/>
<path class="fil1 str1" d="m16859 3514 3513-3513"/>
<path class="fil1 str1" d="m17415 3514c1170-1171 2341-2342 3512-3513"/>
<path class="fil1 str1" d="m17970 3514 3513-3513"/>
<path class="fil1 str1" d="m18526 3514c1170-1171 2341-2342 3512-3513"/>
<path class="fil1 str1" d="m19081 3514c1171-1171 2342-2342 3512-3513"/>
<path class="fil1 str1" d="m19636 3514 3513-3513"/>
<path class="fil1 str1" d="m20192 3514c1171-1171 2342-2342 3512-3513"/>
<path class="fil1 str1" d="m20747 3514 3513-3513"/>
<path class="fil1 str1" d="m21303 3514c1171-1171 2342-2342 3512-3513"/>
<path class="fil1 str1" d="m21858 3514 3513-3513"/>
<path class="fil1 str1" d="m22414 3514c1171-1171 2341-2342 3512-3513"/>
<path class="fil1 str1" d="m22969 3514 3513-3513"/>
<path class="fil1 str1" d="m23525 3514c1165-1165 2330-2330 3495-3495"/>
<path class="fil1 str1" d="m24080 3514c1137-1137 2274-2274 3412-3411"/>
<path class="fil1 str1" d="m24636 3514 3473.6-3216.2"/>
<path class="fil1 str1" d="m25191 3514 3393.8-2978.4"/>
<path class="fil1 str1" d="m25747 3514 3185.1-2645.8"/>
</g>
</g>
<g transform="translate(0,60)">
<rect y="30" width="1080" height="720" fill="#f00"/>
<g transform="matrix(.96 0 0 .96 -335.02 -425.97)">
<g transform="translate(-460.52 -708.03)">
<path transform="matrix(6.5889 0 0 5.6477 -2327.3 -3192.9)" d="m608.11 841.22c0 30.07-20.894 54.447-46.669 54.447s-46.669-24.377-46.669-54.447 20.894-54.447 46.669-54.447 46.669 24.377 46.669 54.447z" fill="#ffdb00"/>
<path transform="matrix(6.0533 0 0 5.1885 -2026.6 -2806.7)" d="m608.11 841.22c0 30.07-20.894 54.447-46.669 54.447s-46.669-24.377-46.669-54.447 20.894-54.447 46.669-54.447 46.669 24.377 46.669 54.447z" fill="#4d4d4d"/>
</g>
<g transform="translate(1.2648)">
<g transform="matrix(-.33125 0 0 -.33125 1051 994.25)" stroke="#000000" stroke-width="7.5472">
<g transform="matrix(-1,0,0,-1,825,825)">
<use transform="translate(-25,-25)" width="250" height="250" stroke-width="7.5472" xlink:href="#y"/>
<use transform="matrix(1.25,0,0,1.25,-100,-50)" width="250" height="250" stroke-width="6.0377" xlink:href="#d"/>
</g>
<g fill="#fff">
<use width="250" height="250" stroke-width="7.5472" xlink:href="#y"/>
<use transform="matrix(1.25,0,0,-1.25,-75,475)" width="250" height="250" stroke-width="6.0377" xlink:href="#d"/>
</g>
</g>
<g transform="translate(90.779 -6.7661)">
<path d="m819.42 595.36c-13.088 0-24.484 10.652-24.402 24.608-13.625-4.3765-26.879 3.1379-30.883 15.442-4.005 12.263 1.8579 26.259 15.772 31.007-8.2989 11.519-5.2848 26.548 5.2435 34.186 10.487 7.597 25.805 6.3171 34.268-5.4499 8.5054 11.768 23.823 13.047 34.31 5.4499 10.528-7.6383 13.501-22.667 5.2023-34.186 13.914-4.748 19.818-18.745 15.813-31.007-4.005-12.304-17.3-19.818-30.925-15.442 0.082-13.955-11.271-24.608-24.402-24.608z" fill="#4d4d4d" stroke="#ffdb00" stroke-width="10"/>
<g transform="matrix(1.0593 0 0 1.0593 92.207 567.94)" fill="#ffdb00" stroke-width="2.4952">
<path d="m675.76 58.252 1.1693-0.5315 10.169 22.854-1.1693 0.5315z"/>
<path d="m679.65 59.28c0.5315 1.2402-0.0354 2.7283-1.2756 3.2953-1.2756 0.56693-2.7284 0-3.2953-1.2756-0.56693-1.2756 0-2.7283 1.2402-3.2953 1.2756-0.56693 2.7638 0 3.3307 1.2756z"/>
<path d="m661.72 84.083-0.14174-1.2756 24.839-2.622 0.14173 1.2756z"/>
<path d="m663.89 80.682c1.3465-0.14173 2.5866 0.85039 2.7284 2.2323 0.14173 1.3819-0.85039 2.622-2.2323 2.7638-1.3465 0.14173-2.5866-0.85039-2.7284-2.2323-0.14173-1.3819 0.85039-2.622 2.2323-2.7638z"/>
<path d="m681.96 105.41-1.2756-0.28347 5.1732-24.449 1.2756 0.28346z"/>
<path d="m679.37 102.33c0.28347-1.3819 1.6299-2.2323 2.9764-1.9488 1.3465 0.28347 2.1968 1.6299 1.9134 2.9764-0.28347 1.3465-1.5945 2.1968-2.941 1.9134-1.3464-0.28347-2.2323-1.5945-1.9488-2.941z"/>
<path d="m708.46 92.764-0.6378 1.1339-21.65-12.508 0.67322-1.1339z"/>
<path d="m704.74 94.252c-1.2047-0.70866-1.5945-2.2323-0.92126-3.437 0.70867-1.1693 2.2323-1.5945 3.4016-0.88583 1.2047 0.67323 1.6299 2.1968 0.92126 3.4016-0.67323 1.2047-2.1968 1.5945-3.4016 0.92126z"/>
<path d="m704.63 63.638 0.88583 0.95669-18.567 16.724-0.88582-0.95669z"/>
<path d="m704.88 67.642c-1.0276 0.92126-2.5866 0.85039-3.5079-0.17716-0.92126-1.0276-0.85039-2.622 0.17717-3.5433 1.0276-0.92126 2.622-0.85039 3.5433 0.17716 0.92126 1.0276 0.81497 2.622-0.21259 3.5433z"/>
<path d="m696.09 57.721 1.1693 0.5315-10.169 22.854-1.1693-0.5315z"/>
<path d="m697.94 61.3c-0.56693 1.2756-2.0551 1.8425-3.2953 1.2756-1.2756-0.56693-1.8425-2.0551-1.2756-3.2953 0.56693-1.2756 2.0551-1.8425 3.2953-1.2756 1.2756 0.56693 1.8425 2.0197 1.2756 3.2953z"/>
<path d="m667.5 64.595 0.85039-0.95669 18.602 16.724-0.88582 0.95669z"/>
<path d="m671.47 63.922c1.0276 0.92126 1.0984 2.5157 0.17717 3.5433-0.92126 1.0276-2.5158 1.0984-3.5433 0.17716-1.0276-0.92126-1.0984-2.5157-0.17717-3.5433 0.92126-1.0276 2.5158-1.0984 3.5433-0.17716z"/>
<path d="m665.2 93.898-0.67323-1.1339 21.65-12.508 0.67322 1.1339z"/>
<path d="m665.76 89.93c1.2047-0.70866 2.7283-0.28346 3.437 0.88583 0.67323 1.2047 0.28347 2.7283-0.92126 3.437-1.2047 0.67323-2.7283 0.28346-3.4016-0.92126-0.70866-1.2047-0.28347-2.7283 0.88583-3.4016z"/>
<path d="m692.34 105.13-1.2756 0.28347-5.2087-24.449 1.2756-0.28346z"/>
<path d="m688.72 103.36c-0.28347-1.3465 0.60236-2.6929 1.9488-2.9764 1.3464-0.28346 2.6575 0.56693 2.9409 1.9488 0.28346 1.3465-0.56693 2.6575-1.9134 2.941-1.3464 0.28346-2.6929-0.56693-2.9764-1.9134z"/>
<path d="m711.44 82.808-0.14173 1.2756-24.874-2.622 0.14173-1.2756z"/>
<path d="m708.6 85.678c-1.3465-0.14173-2.3386-1.3819-2.1968-2.7638 0.14173-1.3819 1.3464-2.374 2.7283-2.2323 1.3819 0.14173 2.374 1.3819 2.2323 2.7638-0.14174 1.3819-1.3819 2.374-2.7638 2.2323z"/>
<path d="m685.61 45.815h1.8071v35.008h-1.8071z"/>
<path d="m690 49.323c0 1.9488-1.5591 3.5079-3.5079 3.5079-1.9134 0-3.4724-1.5591-3.4724-3.5079 0-1.9134 1.5591-3.5079 3.4724-3.5079 1.9488 0 3.5079 1.5945 3.5079 3.5079z"/>
<path d="m652.94 70.867 0.56692-1.7008 33.272 10.807-0.56693 1.7362z"/>
<path d="m657.61 67.784c1.8425 0.56693 2.8701 2.5512 2.2677 4.3937-0.60237 1.8425-2.5866 2.8346-4.4291 2.2323-1.8425-0.56693-2.8346-2.5512-2.2323-4.3937 0.60236-1.8425 2.5866-2.8346 4.3937-2.2323z"/>
<path d="m666.68 109.67-1.4882-1.063 20.587-28.311 1.4528 1.063z"/>
<path d="m665.16 104.24c1.1339-1.5591 3.3307-1.9134 4.8898-0.7441 1.559 1.1339 1.9134 3.2953 0.77953 4.8543-1.1339 1.5945-3.3307 1.9134-4.8898 0.77953-1.559-1.1339-1.9134-3.3307-0.77953-4.8898z"/>
<path d="m707.82 108.6-1.4882 1.063-20.551-28.311 1.4528-1.063z"/>
<path d="m702.19 108.35c-1.1339-1.559-0.77952-3.7205 0.77953-4.8543 1.5591-1.1693 3.7559-0.81496 4.8898 0.7441 1.1339 1.559 0.77953 3.7559-0.77952 4.8898-1.5591 1.1339-3.7559 0.81496-4.8898-0.77953z"/>
<path d="m719.52 69.166 0.56693 1.7008-33.307 10.843-0.56693-1.7362z"/>
<path d="m717.53 74.41c-1.8071 0.60236-3.7913-0.38976-4.3937-2.2323-0.60236-1.8425 0.38977-3.8268 2.2323-4.3937 1.8425-0.60236 3.8268 0.38976 4.4291 2.2323 0.60236 1.8425-0.4252 3.8268-2.2677 4.3937z"/>
<path d="m695 80.823c0 4.7126-3.7913 8.5039-8.5039 8.5039-4.6772 0-8.5039-3.7913-8.5039-8.5039 0-4.6772 3.8268-8.5039 8.5039-8.5039 4.7126 0 8.5039 3.8268 8.5039 8.5039z"/>
</g>
</g>
<g transform="translate(-2.5e-5)">
<g fill="#ffdb00">
<path d="m755.35 1037.7c7.2312-5.6289 16.704-8.1768 21.688-7.4062-1.2604-2.4137-5.5376-4.7479-6.0312-5.9688-5.7602-0.5431-14.443-3.5086-11.812-17.094 7.2717-0.9973 17.934 4.3484 16.469 15 1.5713 1.5771 5.952 4.2559 8.9375 5.6563-4.1454-12.428-5.0001-19.317 2.2812-27.688 9.5638 12.646 6.8706 22.182 3.375 32.594 1.2074 0.9891 6.9176 3.1046 8.125 4.0938-2.1761-12.648 0.63897-25.891 4.6562-29.5 7.8614 13.066 4.5673 23.026-0.625 31.5 1.8567 0.9153 10.643 5.3659 12.5 6.2812-4.1175-11.245-3.738-19.557 3.3125-28.625 8.9647 8.7364 5.3775 24.901 3.2812 30.875 2.8758 2.6884 11.78 5.9467 17.25 7.2812-5.2926-10.593-27.879-46.771 7.4375-61.031 4.6568 0.5456-15.226 36.531 4.0938 64 0.47962 0.3559 6.1307 2.0855 16.938 3.2812-22.519-20.446-22.827-44.715-6.5312-55.5 3.3386 13.969-7.9977 29.885 14.719 56.906 2.7581 0.3918 6.0087 1.2919 11.219 1.7187-16.35-5.0803-15.968-36.051-11.969-38.125 3.5779 10.208 16.61 39.434 35.562 43.813 18.937-4.4028 31.955-33.61 35.531-43.813 3.9995 2.0743 4.3814 33.045-11.969 38.125 5.2101-0.4268 8.4606-1.3269 11.219-1.7187 22.716-27.021 11.38-42.938 14.719-56.906 16.296 10.785 15.988 35.054-6.5312 55.5 10.807-1.1957 16.458-2.9253 16.938-3.2812 19.319-27.469-0.56306-63.454 4.0938-64 35.316 14.26 12.73 50.438 7.4375 61.031 5.4699-1.3345 14.374-4.5928 17.25-7.2812-2.0963-5.9743-5.6834-22.139 3.2812-30.875 7.0505 9.0681 7.43 17.38 3.3125 28.625 1.8567-0.9153 10.643-5.3659 12.5-6.2812-5.1923-8.4743-8.4864-18.434-0.625-31.5 4.0173 3.6088 6.8323 16.852 4.6562 29.5 1.2074-0.9892 6.9177-3.1047 8.1251-4.0938-3.4957-10.411-6.1888-19.948 3.375-32.594 7.2813 8.3708 6.4266 15.26 2.2812 27.688 2.9855-1.4004 7.3662-4.0792 8.9375-5.6563-1.4652-10.652 9.197-15.997 16.469-15 2.6303 13.585-6.0523 16.551-11.812 17.094-0.4937 1.2209-4.7709 3.5551-6.0313 5.9688 4.9837-0.7706 14.456 1.7773 21.688 7.4062-11.651 8.093-24.844 1.9782-29.375-1.4374-11.236 9.7195-25.981 16.903-47.875 24.906-20.782 6.8739-55.706 15.664-77.469 15.312h-0.28125c-21.763 0.352-56.687-8.4386-77.469-15.312-21.894-8.003-36.639-15.187-47.875-24.906-4.5307 3.4156-17.724 9.5304-29.375 1.4374z"/>
<path d="m1054.5 1054.8c-13.25 5.4185-24.139-2.3364-29.944-9.8622 9.9958-3.2095 27.138 2.3823 29.944 9.8622z"/>
<path d="m1039.7 1066.8c-10.852 3.6883-28.529 3.3459-36.798-11.305 17.583-1.2568 35.905 4.8847 36.798 11.305z"/>
<path d="m1025 1109.6c-4.161-8.1596-21.85-25.415-27.443-28.934-5.0685-4.1022-23.619-14.526-21.654-15.737 37.228 2.8892 55.111 22.429 49.097 44.672z"/>
<path d="m1000.9 1115.7c-23.361-27.244-44.296-33.138-66.347-41.922 48.007-0.5114 65.933 8.9196 66.347 41.922z"/>
<path d="m979.69 1112.1c-12.571 1.1133-45.717-22.212-49.266-37.085 21.607 2.8493 46.795 24.762 49.266 37.085z"/>
<path d="m765.92 1054.8c13.25 5.4185 24.139-2.3364 29.944-9.8622-9.9958-3.2095-27.138 2.3823-29.944 9.8622z"/>
<path d="m780.75 1066.8c10.852 3.6883 28.529 3.3459 36.797-11.305-17.583-1.2568-35.905 4.8847-36.797 11.305z"/>
<path d="m795.41 1109.6c4.161-8.1596 21.85-25.415 27.443-28.934 5.0685-4.1022 23.619-14.526 21.654-15.737-37.228 2.8892-55.111 22.429-49.097 44.672z"/>
<path d="m819.54 1115.7c23.361-27.244 44.296-33.138 66.347-41.922-48.007-0.5114-65.933 8.9196-66.347 41.922z"/>
<path d="m840.74 1112.1c12.571 1.1133 45.717-22.212 49.266-37.085-21.607 2.8493-46.795 24.762-49.266 37.085z"/>
</g>
<g stroke="#000" stroke-width=".793">
<g transform="matrix(1.4832 -.32632 .36181 1.3377 626.11 930.76)" fill="#ffdb00">
<path d="m208.41 95.678 0.89213 2.5108 2.0775-1.2921 1.4264 4.8252-8.356 5.3318-1.7621-4.7417 2.8668-1.8952-0.69376-2.6036z" color="#000000" stroke-width=".54694" style="block-progression:tb;text-indent:0;text-transform:none"/>
<path d="m202.16 100.47 3.1307 9.4356-3.2908 2.4475-3.0817-9.7852z" color="#000000" stroke-width=".54694" style="block-progression:tb;text-indent:0;text-transform:none"/>
<path d="m199.38 104.15 1.009 3.0379-46.402 28.231c-0.25631-0.93227-0.89602-2.4254-1.4528-3.8727z" color="#000000" stroke-width=".54694" style="block-progression:tb;text-indent:0;text-transform:none"/>
<path transform="matrix(.288 0 0 .288 -116.04 -179.34)" d="m1098.9 995.34-162.37 98.772c-28.321 4.7692-29.955 3.0802-52.287-1.2256-27.001 8.4531-102.07 58.016-99.079 61.36 1.5472 6.9205 6.084 16.426 6.2295 24.947 1.0862 7.1746-4.5815 22.023 2.0379 26.524 10.983-0.042 60.546-51.967 89.025-82.119 37.47-1.8148 66.303-11.579 95.802-36.59l124.38-79.731z" color="#000000" stroke-width="1.8991" style="block-progression:tb;text-indent:0;text-transform:none"/>
</g>
<g transform="matrix(-.41651 0 0 .50756 1426.2 689.78)" stroke-width="1.7247">
<path d="m1387.4 602.25c-9.1594 0.0884-17.972 3.8914-25.469 9.6562l-222.06 178.66c3.3443 2.4168 5.9327 5.4477 7.4063 8.9688 0.1081 0.25837 0.2192 0.52498 0.3437 0.78125l246.16-197.5c-2.1403-0.39539-4.2613-0.58289-6.375-0.5625z" fill="#ffdb00"/>
<g fill="#ffdb00" stroke="#000" stroke-width="1.7247">
<path transform="translate(7.5e-6)" d="m1112.5 784.32c14.987-1.7803 30.265 4.333 34.821 15.219 1.8715 4.472 6.1347 8.7162 15.228 9.7293 2.7085 4.7162-14.114 5.1716-16.758 0.49633-5.1802-16.182-32.697-28.461-45.597-9.3172-8.4711 12.217-5.8373 28.794 3.1665 36.163 4.939 1.5014 3.2055 6.4678-1.7334 4.9665-11.117-7.5437-14.675-25.508-9.9842-39.396 3.2076-8.9728 12.279-16.842 20.858-17.861z"/>
<path transform="translate(7.5e-6)" d="m1133.8 795.47-37.531 30.188c1.2993 4.2061 3.5499 7.8897 6.5625 10.531 0.2927-0.20881 0.5194-0.39562 0.8438-0.625l39.25-31.5c-2.2717-3.3384-5.4666-6.3072-9.125-8.5938z"/>
<path d="m1104.3 819.05 8.7557 7.6553"/>
<path d="m1112.9 811.95 8.7557 7.6553"/>
<path d="m1123 804.54 8.7557 7.6553"/>
</g>
</g>
</g>
<g transform="translate(391.71 885.84)">
<ellipse transform="matrix(-.35027 -.054851 .054703 -.35122 863.91 485.41)" cx="1095.7" cy="701.65" rx="69.808" ry="69.61" d="m 1165.5079,701.65002 c 0,38.44455 -31.2541,69.61001 -69.8079,69.61001 -38.5539,0 -69.808,-31.16546 -69.808,-69.61001 0,-38.44454 31.2541,-69.61 69.808,-69.61 38.5538,0 69.8079,31.16546 69.8079,69.61 z" fill="#000094"/>
<path d="m518.51 162.35 2.2101 8.2291 6.0276-6.013-2.1899 8.2398 8.2275-2.1958-6.0071 6.0436 8.2073 2.2164-8.2073 2.2165 6.0071 6.044-8.2275-2.1958 2.1899 8.2498-6.0276-6.0234-2.2101 8.2295-2.2105-8.2295-6.0276 6.0234 2.1899-8.2498-8.2275 2.1958 6.0071-6.0337-8.2073-2.2264 8.2073-2.2164-6.0071-6.0436 8.2275 2.1958-2.1899-8.2398 6.0276 6.013 2.2105-8.2295z" fill="#fff"/>
<ellipse transform="matrix(-.35027 -.054851 .054703 -.35122 863.91 485.41)" cx="1095.7" cy="701.65" rx="26.362" ry="26.288" d="m 1122.062,701.65002 c 0,14.51847 -11.8027,26.288 -26.362,26.288 -14.5594,0 -26.362,-11.76953 -26.362,-26.288 0,-14.51846 11.8026,-26.288 26.362,-26.288 14.5593,0 26.362,11.76954 26.362,26.288 z" fill="#000094"/>
<ellipse transform="matrix(-.35027 -.054851 .054703 -.35122 863.91 485.41)" cx="1095.7" cy="701.65" rx="23.269" ry="23.204" d="m 1118.969,701.65002 c 0,12.81522 -10.4179,23.204 -23.269,23.204 -12.8512,0 -23.269,-10.38878 -23.269,-23.204 0,-12.81521 10.4178,-23.204 23.269,-23.204 12.8511,0 23.269,10.38879 23.269,23.204 z" fill="#fff"/>
</g>
</g>
<g fill="#ffdb00">
<path d="m727.77 698.88c5.6289 7.2312 8.1768 16.704 7.4062 21.688 2.4137-1.2604 4.7479-5.5376 5.9688-6.0312 0.5431-5.7602 3.5086-14.443 17.094-11.812 0.9973 7.2717-4.3484 17.934-15 16.469-1.5771 1.5713-4.2559 5.952-5.6563 8.9375 12.428-4.1454 19.317-5.0001 27.688 2.2812-12.646 9.5638-22.182 6.8706-32.594 3.375-0.9891 1.2074-3.1046 6.9176-4.0938 8.125 12.648-2.1761 25.891 0.63897 29.5 4.6562-13.066 7.8614-23.026 4.5673-31.5-0.625-0.9153 1.8567-5.3659 10.643-6.2812 12.5 11.245-4.1175 19.557-3.738 28.625 3.3125-8.7364 8.9647-24.901 5.3775-30.875 3.2812-2.6884 2.8758-5.9467 11.78-7.2812 17.25 10.593-5.2926 46.771-27.879 61.031 7.4375-0.5456 4.6568-36.531-15.226-64 4.0938-0.3559 0.47962-2.0855 6.1307-3.2812 16.938 20.446-22.519 44.715-22.827 55.5-6.5312-13.969 3.3386-29.885-7.9977-56.906 14.719-0.3918 2.7581-1.2919 6.0087-1.7187 11.219 5.0803-16.35 36.051-15.968 38.125-11.969-10.208 3.5779-39.434 16.61-43.813 35.562 4.4028 18.937 33.61 31.955 43.813 35.531-2.0743 3.9995-33.045 4.3814-38.125-11.969 0.4268 5.2101 1.3269 8.4606 1.7187 11.219 27.021 22.716 42.938 11.38 56.906 14.719-10.785 16.296-35.054 15.988-55.5-6.5312 1.1957 10.807 2.9253 16.458 3.2812 16.938 27.469 19.319 63.454-0.56306 64 4.0938-14.26 35.316-50.438 12.73-61.031 7.4375 1.3345 5.4699 4.5928 14.374 7.2812 17.25 5.9743-2.0963 22.139-5.6834 30.875 3.2812-9.0681 7.0505-17.38 7.43-28.625 3.3125 0.9153 1.8567 5.3659 10.643 6.2812 12.5 8.4743-5.1923 18.434-8.4864 31.5-0.625-3.6088 4.0173-16.852 6.8323-29.5 4.6562 0.9892 1.2074 3.1047 6.9176 4.0938 8.125 10.411-3.4956 19.948-6.1888 32.594 3.375-8.3708 7.2813-15.26 6.4266-27.688 2.2812 1.4004 2.9855 4.0792 7.3662 5.6563 8.9375 10.652-1.4652 15.997 9.197 15 16.469-13.585 2.6303-16.551-6.0523-17.094-11.812-1.2209-0.49361-3.5551-4.7708-5.9688-6.0312 0.7706 4.9837-1.7773 14.456-7.4062 21.688-8.093-11.651-1.9782-24.844 1.4374-29.375-9.7195-11.236-16.903-25.981-24.906-47.875-6.8739-20.782-15.664-55.706-15.312-77.469v-0.28125c-0.352-21.763 8.4386-56.687 15.312-77.469 8.003-21.894 15.187-36.639 24.906-47.875-3.4156-4.5307-9.5304-17.724-1.4374-29.375z"/>
<path d="m710.69 998.03c-5.4185-13.25 2.3364-24.139 9.8622-29.944 3.2095 9.9958-2.3823 27.138-9.8622 29.944z"/>
<path d="m698.75 983.2c-3.6883-10.852-3.3459-28.529 11.305-36.797 1.2568 17.583-4.8847 35.905-11.305 36.797z"/>
<path d="m655.93 968.54c8.1596-4.161 25.415-21.85 28.934-27.443 4.1022-5.0685 14.526-23.619 15.737-21.654-2.8892 37.228-22.429 55.111-44.672 49.097z"/>
<path d="m649.8 944.41c27.244-23.361 33.138-44.296 41.922-66.347 0.5114 48.007-8.9196 65.933-41.922 66.347z"/>
<path d="m653.44 923.21c-1.1133-12.571 22.212-45.717 37.085-49.266-2.8493 21.607-24.762 46.795-37.085 49.266z"/>
<path d="m710.69 709.44c-5.4185 13.25 2.3364 24.139 9.8622 29.944 3.2095-9.9958-2.3823-27.138-9.8622-29.944z"/>
<path d="m698.75 724.27c-3.6883 10.852-3.3459 28.529 11.305 36.797 1.2568-17.583-4.8847-35.905-11.305-36.797z"/>
<path d="m655.93 738.93c8.1596 4.161 25.415 21.85 28.934 27.443 4.1022 5.0685 14.526 23.619 15.737 21.654-2.8892-37.228-22.429-55.111-44.672-49.097z"/>
<path d="m649.8 763.06c27.244 23.361 33.138 44.296 41.922 66.347 0.5114-48.007-8.9196-65.933-41.922-66.347z"/>
<path d="m653.44 784.26c-1.1133 12.571 22.212 45.717 37.085 49.266-2.8493-21.607-24.762-46.795-37.085-49.266z"/>
</g>
<g transform="translate(0 .26562)">
<g transform="matrix(0 .27536 -.27536 0 1133.3 645.13)" stroke="#000" stroke-width="2.88">
<path class="fil1 str0" d="m825.09 1495.4c3.2467-18.058 15.947-42.368 38.434-44.227 22.224-4.3383 47.753 9.0466 59.046 10.745 19.809 6.1409 46.984 5.1024 61.482 2.6827 10.073-1.6813-6.9449 21.32-10.698 21.37-19.347 0.2619-33.899 1.517-58.906-2.7431-26.705-4.0174-36.098-15.4-55.947-6.6634-10.709 6.6308-23.741 60.225-23.557 47.412 0.1286-8.9594-10.535-26.829-9.8558-28.576z" fill="#ccc"/>
<path d="m853.66 1482.2c-4.4952 7.3287-8.9266 19.442-12.387 29.145-0.9063 2.8083-1.7844 5.5562-2.9145 8.0959-3e-3 0.01 3e-3 0.02 0 0.027-1.7307 4.6856-2.9287 7.4062-3.2923 6.1259 0.31917 8.7703 0.40617 26.841-2.7526 36.243 0.11621 10.763 32.457-4.2587 31.601-32.465-0.26556-14.974-2.583-34.203-10.255-47.172z" fill="#ccc"/>
<path d="m871.86 1473.4c-3.9018 0.094-8.0049 0.9664-12.684 2.9414-1.333 0.9309-2.5195 1.9143-3.4542 2.9415-0.0167 0.018-0.0374 0.036-0.054 0.054-0.0738 0.094-0.14206 0.1731-0.21589 0.2699-0.48736 0.6393-0.96787 1.387-1.4572 2.1589-0.0945 0.1909-0.19243 0.3988-0.26986 0.5937 3.9358 6.6866 6.4338 15.028 7.9879 23.586 0.0235 0.1073 0.0308 0.2166 0.054 0.3239 1.7505 8.1026 2.5597 16.098 2.2399 22.183 6.6738 7.6026 9.81 9.3532 16.381 9.1209 7.0562-1.3018 11.484-6.4493 12.872-13.925 0.23565-14.048-0.35034-34.852-8.0419-48.117-4.5639-1.3319-8.8428-2.2408-13.358-2.1319z" fill="#ccc"/>
<path d="m892.55 1502.6c0.30697 3.1562 0.51424 6.3044 0.62068 9.3368 2e-3 0.044-2e-3 0.091 0 0.135 0.35729 4.3882 0.43241 8.6545 0.16192 13.925 7.7984 0.8187 12.085-1.0382 20.32-3.2652 4.3297-1.3192 10.41-8.0461 4.3988-15.301l-1.4033-0.2699c-9e-3 1e-4 -0.0178-1e-4 -0.0269 0-0.35936 0-0.70473 0-1.0525-0.027-9.3074-0.7779-13.228-1.0735-20.915-4.1289l-2.1049-0.4048z" fill="#ccc"/>
<path d="m832.18 1562.1c-4.6298 24.9-32.698 44.025-38.752 48.386-3.9807 2.8676 2.1614 7.3778 14.599 5.0734 7.8893-2.0842 32.176-31.75 30.143-50.356-3.3168 0.5816-5.6398-0.3494-5.829-3.0225l-0.16192-0.081z" fill="#ccc"/>
<path d="m852.67 1556.9c-0.37189 0.3616-0.80339 0.6522-1.2143 0.9175-0.0284 0.026-0.0525 0.055-0.0809 0.081-4.7076 4.2588-9.8066 6.7965-13.548 7.3403 0.11924-0.017 0.22883-0.01 0.35082-0.027 1.5882 14.536-12.875 35.833-23.047 45.445-0.0152 0.018-0.0389 0.036-0.054 0.054-1.661 2.0025-3.0444 3.5156-3.94 4.4527-3.3897 3.5468 6.3414 8.2563 18.162 3.7511 5.6357-2.148 28.258-30.352 23.37-62.014z" fill="#ccc"/>
<path d="m922.83 1484.9c4.3434 2.8081 7.0342 8.7763 6.6926 12.171-0.60885 5.9612-6.2252 9.3886-11.415 9.9844l-0.0269 0.4048c1.0028 1.2168 1.6342 2.4255 2.024 3.5892 11.297 4.4652 39.54 9.6485 56.374 3.4272 17.65-3.2282 18.072-22.092-2.8335-28.147-16.403 0.1765-33.628 0.3436-50.815-1.4302z" fill="#efefef"/>
<path d="m885.37 1475.8c4.1653 7.3295 6.1978 16.89 7.1513 26.338 9.2202 3.9142 12.896 4.1442 23.047 4.9925 5.7064 0.4173 13.242-3.1107 13.952-10.066 0.3454-3.432-2.3997-9.5112-6.8275-12.279-14.813-1.7095-23.412-5.0481-37.322-8.9862z" fill="#ccc"/>
<path d="m892.61 1526.2c-1.8657 6.0415-6.0315 10.137-12.225 11.28-6.1624 0.2175-9.3489-1.3645-15.22-7.826 2.2147 9.0794 3.169 17.838 5.7211 24.638 2.2575 6.0146 6.8953 10.082 13.466 9.8497 7.0562-1.3018 10.843-6.343 11.415-13.925 0.5248-6.9553 0.7974-15.598 0-24.153-1.1979-0.048-2.1485-0.2798-3.1573 0.135z" fill="#ccc"/>
<path d="m920.13 1511c1.9222 5.7621-2.88 10.589-6.4767 11.685-4.2024 1.1363-7.3877 2.1691-10.525 2.8065 11.796 6.1473 31.121 12.904 44.797 10.605 12.358 0.2195 17.709-9.627 12.548-18.864-15.155 0.603-32.168-3.0073-40.345-6.2339z" fill="#ccc"/>
<path d="m1018.1 1455.2c-0.2935 0.01-0.5907 0.056-0.9176 0.135-7.0875 4.5716-20.804 8.4183-30.035 10.605 1.0829 4.7937-10.741 19.983-13.79 20.024-0.0282 0.1117-0.0536 0.2136-0.0809 0.3239h0.3778c6.7914 1.9668 11.306 5.2911 13.736 8.9862 2.0986-0.412 4.1441-0.8626 6.0989-1.3223 26.687-5.9223 33.708-38.998 24.611-38.752z" fill="#ccc"/>
<path d="m903.13 1525.5c-2.3613 0.4767-4.7048 0.7291-7.4482 0.6206 0.47394 6.4134 0.60981 12.693 0.40479 18.054 6.6738 7.6026 9.8472 9.8567 16.381 9.1209 7.1303-0.8025 12.301-6.343 12.872-13.925 0.12425-1.6468 0.19457-3.3966 0.24287-5.2083-8.2793-2.1689-16.37-5.4929-22.453-8.6623z" fill="#ccc"/>
<path d="m865.08 1530.6c0.18718 0.6862-0.39058 1.4644-1.2143 2.3748-0.68884 10.076-5.6166 18.235-11.361 23.856-0.0531 0.1716-0.0334 0.2419 0.16192 0.081 3.8525 24.952-9.3757 47.756-17.919 57.346-0.38422 0.5515-0.77041 1.101-1.0525 1.4842-2.9082 3.9513 8.532 9.1831 18.485 1.3764 12.044-9.4465 23.489-50.782 18.701-62.743-0.54534-0.7785-0.78971-1.5759-0.83657-2.4287-2.041-7.5414-3.2539-15.098-4.9655-21.346z" fill="#ccc"/>
<path d="m870.88 1554.3c4.2064 10.51-4.132 43.684-14.383 57.993 0.66217 3.8454 12.383 7.4407 20.915-0.2159 8.9197-8.0039 9.6019-28.394 8.7168-48.359-0.57003 0.1716-1.1605 0.3173-1.7811 0.4318-6.1475 0.217-10.583-3.3333-12.98-8.7167-5e-3 -0.011-0.022-0.016-0.0269-0.027-0.15958-0.3601-0.31767-0.7305-0.45877-1.1064z" fill="#ccc"/>
<path d="m922.83 1484.9c4.3434 2.8081 7.0342 8.7763 6.6926 12.171-0.60885 5.9612-6.2252 9.3886-11.415 9.9844l-0.0269 0.4048c1.0028 1.2168 1.6342 2.4255 2.024 3.5892 11.297 4.4652 39.54 9.6485 56.374 3.4272 17.65-3.2282 18.072-22.092-2.8335-28.147-16.403 0.1765-33.628 0.3436-50.815-1.4302z" fill="#ccc"/>
<path d="m1175.4 1451.4c-51.017 13.7-103.05 20.103-154.96 17.514-2.5272 7.68-8.5037 16.699-18.27 21.805 49.408 9.2927 104.92 3.6426 154.68-2.024 12.391-1.4111 27.636-37.54 18.54-37.295z" fill="#ccc"/>
<path d="m1158 1488.5c-0.3832 0.1059-0.7547 0.1997-1.1334 0.2428-43.523 4.9563-91.46 9.8869-135.85 4.8306h-0.054c-3.154-0.3599-6.2757-0.7769-9.3912-1.2414h-0.054c-1.5488-0.2312-3.1034-0.4702-4.6417-0.7286h-0.054c-1.5468-0.2602-3.0793-0.548-4.6147-0.8366h-0.027c-2.6264 1.373-5.5097 2.4788-8.6891 3.1844-1.9548 0.4598-4.0003 0.9104-6.0989 1.3223 3.6655 5.5731 2.5646 12.008-2.8876 15.949 45.927 14.338 99.517 12.047 152.01 5.0194 12.361-1.6547 29.989-27.334 24.045-27.31-0.8386-0.1473-1.6895-0.2944-2.5368-0.4317h-0.027z" fill="#ccc"/>
<path d="m984.9 1510.9c-2.1084 1.64-4.9304 2.897-8.4197 3.5352-4.7833 1.7677-10.51 2.604-16.489 2.8066 0.1612-0.01 0.32496 0.01 0.48576 0 2.2031 3.9434 2.4896 7.9992 1.1334 11.334 42.337 16.855 100.19 21.039 150.29 16.597 12.422-1.1015 33.662-28.743 27.742-29.28-0.169-0.046-0.9056 0.014-1.8351 0.1079-0.4396 0.113-0.8672 0.1856-1.2953 0.2429-52.495 7.0271-106.09 9.3187-152.01-5.0194 0.14351-0.1038 0.26732-0.2167 0.40479-0.3239z" fill="#ccc"/>
<path d="m961.61 1528.6c-1.8243 4.4718-6.6017 7.655-13.682 7.5292-0.82021 0.1379-1.6517 0.249-2.5097 0.3239 36.155 25.169 86.934 33.725 141.76 32.869 11.69-0.1825 26.61-20.482 23.64-24.045-49.851 4.2884-107.18 0.057-149.21-16.677z" fill="#ccc"/>
<path d="m925.59 1534.2c-0.0483 1.8117-0.11862 3.5615-0.24287 5.2082-0.33834 4.4842-2.307 8.2424-5.3162 10.741 0.12603 0.149 0.25059 0.2991 0.37781 0.4318 22.102 14.494 54.681 25.529 110.5 40.94 31.831 8.7911 46.166-15.812 46.442-22.133-51.036-0.2849-97.945-9.266-131.93-32.928-6.0708 0.5354-13.014-0.4749-19.827-2.2625z" fill="#ccc"/>
<path d="m896.11 1544.2c-0.0873 2.1217-0.20705 4.1665-0.35082 6.0719-0.21937 2.9073-0.91002 5.4365-2.0779 7.5292 21.439 16.013 63.257 37.627 101.04 44.743 16.179 3.0475 28.708-4.6666 33.841-11.469-1.0298-0.3796-2.0898-0.7347-3.1304-1.1064-52.452-14.618-83.669-25.42-105.03-39.427-0.12722-0.1327-0.25177-0.2828-0.37781-0.4318-2.0771 1.7248-4.6453 2.8568-7.5561 3.1844-6.5249 0.7344-9.6986-1.5165-16.354-9.0941z" fill="#ccc"/>
<path d="m893.69 1557.8c-1.6178 2.8988-4.158 4.9381-7.6101 5.9639 5.3703 18.247 33.718 33.953 59.801 47.091 25.605 12.896 43.72-0.5034 49.034-8.2848-0.063-0.012-0.12588-0.015-0.1889-0.027-37.78-7.1163-79.598-28.73-101.04-44.743z" fill="#ccc"/>
<path d="m879.49 1563.5c0.29714 0.103 0.60838 0.1886 0.91753 0.2698-0.30614-0.081-0.62308-0.1677-0.91753-0.2698z" fill="#efefef"/>
<path d="m886.13 1563.9c0.49389 11.27 0.47613 22.659-1.2414 31.87 4.847 8.9603 11.903 16.083 21.13 17.784 12.155 2.2413 20.105-2.7371 19.187-13.277-2.189-0.8816-4.3882-2.3954-6.5846-4.3178-15.824-9.6313-28.928-20.31-32.491-32.06z" fill="#ccc"/>
<path d="m845.42 1563.4c-1.1416 16.041-5.3231 29.628-13.577 40.496" fill="none" stroke-linecap="round" stroke-linejoin="round"/>
<path d="m860.15 1546.6c3.5539 19.767-0.28219 44.111-8.7254 54.808" fill="none" stroke-linecap="round" stroke-linejoin="round"/>
<path d="m877.85 1563.3c0.0712 16.041-1.442 20.652-3.6313 30.793" fill="none" stroke-linecap="round" stroke-linejoin="round"/>
<path d="m886.87 1579.6c9.9767 11.187 11.692 13.872 23.738 22.091" fill="none" stroke-linecap="round" stroke-linejoin="round"/>
<path d="m881.68 1537.8c0.47367 3.628 1.3538 13.075 0.49241 16.724" fill="none" stroke-linecap="round" stroke-linejoin="round"/>
<path d="m899.5 1526.7c4.5973 4.5982 10.086 10.164 13.349 16.481" fill="none" stroke-linecap="round" stroke-linejoin="round"/>
<path d="m846.87 1496.7c6.2221 10.549 6.9949 39.502-0.23531 51.168" fill="none" stroke-linecap="round" stroke-linejoin="round"/>
<path d="m864.84 1475.2c9.6062 11.033 15.557 29.67 14.804 45.59" fill="none" stroke-linecap="round" stroke-linejoin="round"/>
<path d="m890.35 1486.8c6.7805 5.3259 13.725 8.2238 20.868 9.9318" fill="none" stroke-linecap="round" stroke-linejoin="round"/>
<path d="m893.38 1510.4c5.0825 4.1131 11.299 6.0406 16.744 6.2932" fill="none" stroke-linecap="round" stroke-linejoin="round"/>
<path d="m977.79 1483.7c10.662 0.232 20.275-4.3899 26.933-8.5035" fill="none" stroke-linecap="round" stroke-linejoin="round"/>
<path d="m929.77 1496.6c7.9934 6.7814 26.824 12.104 42.942 10.174" fill="none" stroke-linecap="round" stroke-linejoin="round"/>
<path d="m918.12 1519.9c7.9934 4.8408 18.091 6.7683 26.447 6.2932" fill="none" stroke-linecap="round" stroke-linejoin="round"/>
<path d="m890 1562.8c9.9767 11.187 42.498 30.124 58.91 35.432" fill="none" stroke-linecap="round" stroke-linejoin="round"/>
<path d="m909.53 1553.9c9.9767 11.187 63.844 30.852 81.712 33.249" fill="none" stroke-linecap="round" stroke-linejoin="round"/>
<path d="m924.81 1541.4c33.748 15.829 60.206 26.937 115.19 36.16" fill="none" stroke-linecap="round" stroke-linejoin="round"/>
<path d="m977.94 1514.5c28.655 16.282 103.14 16.055 130.22 13.601" fill="none" stroke-linecap="round" stroke-linejoin="round"/>
<path d="m989.09 1498.3c33.748 7.5492 107.5 6.3526 137.5 0.2596" fill="none" stroke-linecap="round" stroke-linejoin="round"/>
<path d="m1018 1475.6c35.931 2.6978 91.986 0.2883 121.98-5.8047" fill="none" stroke-linecap="round" stroke-linejoin="round"/>
<path class="fil1 str0" d="m688.12 1495.4c-3.2467-18.058-15.947-42.368-38.434-44.227-22.224-4.3382-47.753 9.0467-59.046 10.745-19.809 6.1409-46.984 5.1024-61.482 2.6827-10.073-1.6813 6.9449 21.32 10.698 21.37 19.347 0.2619 33.899 1.517 58.906-2.7431 26.705-4.0174 36.098-15.4 55.947-6.6634 10.709 6.6308 23.741 60.225 23.557 47.412-0.12859-8.9594 10.535-26.829 9.8558-28.576z" fill="#ccc"/>
<path d="m659.55 1482.2c4.4952 7.3287 8.9266 19.442 12.387 29.145 0.90631 2.8083 1.7844 5.5562 2.9145 8.0959 3e-3 0.01-3e-3 0.02 0 0.027 1.7308 4.6856 2.9287 7.4062 3.2923 6.1259-0.31917 8.7703-0.40618 26.841 2.7526 36.243-0.11621 10.763-32.457-4.2587-31.601-32.465 0.26555-14.974 2.583-34.203 10.255-47.172z" fill="#ccc"/>
<path d="m641.35 1473.4c3.9018 0.094 8.0049 0.9664 12.684 2.9414 1.333 0.9309 2.5195 1.9143 3.4542 2.9415 0.0167 0.018 0.0374 0.035 0.054 0.054 0.0738 0.094 0.14207 0.1731 0.21589 0.2699 0.48737 0.6393 0.96788 1.387 1.4573 2.1589 0.0945 0.1909 0.19242 0.3988 0.26986 0.5937-3.9358 6.6866-6.4338 15.028-7.9879 23.586-0.0235 0.1073-0.0308 0.2166-0.054 0.3239-1.7505 8.1026-2.5597 16.098-2.2399 22.183-6.6738 7.6026-9.81 9.3532-16.381 9.1209-7.0562-1.3018-11.484-6.4494-12.872-13.925-0.23564-14.048 0.35034-34.852 8.0419-48.117 4.5639-1.3319 8.8428-2.2408 13.358-2.1319z" fill="#ccc"/>
<path d="m620.66 1502.6c-0.30697 3.1562-0.51424 6.3043-0.62068 9.3368-2e-3 0.044 2e-3 0.091 0 0.135-0.35729 4.3882-0.43241 8.6545-0.16192 13.925-7.7984 0.8187-12.085-1.0382-20.32-3.2652-4.3297-1.3192-10.41-8.0461-4.3988-15.301l1.4033-0.2699c9e-3 1e-4 0.0178-1e-4 0.027 0 0.35936 0 0.70472 0 1.0525-0.027 9.3074-0.7778 13.228-1.0734 20.915-4.1288l2.1049-0.4048z" fill="#ccc"/>
<path d="m681.02 1562.1c4.6298 24.9 32.698 44.025 38.752 48.386 3.9808 2.8676-2.1614 7.3777-14.599 5.0734-7.8893-2.0842-32.176-31.75-30.143-50.356 3.3168 0.5816 5.6398-0.3494 5.829-3.0225l0.16192-0.081z" fill="#ccc"/>
<path d="m660.54 1556.9c0.37188 0.3616 0.80339 0.6522 1.2143 0.9175 0.0284 0.026 0.0525 0.055 0.0809 0.081 4.7076 4.2588 9.8066 6.7965 13.548 7.3403-0.11924-0.017-0.22884-0.01-0.35082-0.027-1.5883 14.536 12.875 35.833 23.047 45.445 0.0152 0.018 0.0389 0.036 0.054 0.054 1.6611 2.0025 3.0444 3.5156 3.94 4.4527 3.3897 3.5468-6.3414 8.2563-18.162 3.7511-5.6357-2.148-28.258-30.352-23.37-62.014z" fill="#ccc"/>
<path d="m590.38 1484.9c-4.3434 2.8081-7.0342 8.7763-6.6926 12.171 0.60886 5.9612 6.2252 9.3886 11.415 9.9844l0.0269 0.4048c-1.0028 1.2168-1.6342 2.4255-2.024 3.5891-11.297 4.4653-39.54 9.6486-56.374 3.4273-17.65-3.2282-18.072-22.092 2.8335-28.147 16.403 0.1765 33.628 0.3436 50.815-1.4302z" fill="#efefef"/>
<path d="m627.84 1475.8c-4.1653 7.3295-6.1978 16.89-7.1513 26.338-9.2202 3.9142-12.896 4.1442-23.047 4.9924-5.7064 0.4174-13.242-3.1106-13.952-10.066-0.34541-3.432 2.3997-9.5112 6.8275-12.279 14.813-1.7095 23.412-5.0481 37.322-8.9862z" fill="#ccc"/>
<path d="m620.6 1526.2c1.8657 6.0416 6.0315 10.137 12.225 11.28 6.1624 0.2175 9.3489-1.3646 15.22-7.8261-2.2147 9.0795-3.169 17.839-5.7211 24.638-2.2575 6.0146-6.8952 10.082-13.466 9.8497-7.0562-1.3018-10.843-6.343-11.415-13.925-0.52479-6.9553-0.79739-15.598 0-24.153 1.1979-0.048 2.1485-0.2798 3.1573 0.135z" fill="#ccc"/>
<path d="m593.08 1511c-1.9222 5.7621 2.8801 10.589 6.4767 11.685 4.2024 1.1364 7.3877 2.1692 10.525 2.8066-11.796 6.1473-31.121 12.904-44.797 10.605-12.358 0.2195-17.709-9.627-12.548-18.864 15.155 0.603 32.168-3.0073 40.345-6.2339z" fill="#ccc"/>
<path d="m495.12 1455.2c0.29345 0.01 0.59065 0.056 0.91754 0.1349 7.0875 4.5717 20.804 8.4184 30.035 10.605-1.0829 4.7937 10.741 19.983 13.79 20.024 0.0282 0.1117 0.0536 0.2136 0.0809 0.3239h-0.37781c-6.7914 1.9668-11.306 5.2911-13.736 8.9861-2.0986-0.4119-4.1441-0.8625-6.0989-1.3222-26.687-5.9223-33.708-38.998-24.611-38.752z" fill="#ccc"/>
<path d="m610.07 1525.5c2.3613 0.4768 4.7048 0.7292 7.4482 0.6207-0.47394 6.4134-0.60981 12.693-0.4048 18.054-6.6738 7.6026-9.8472 9.8567-16.381 9.1209-7.1303-0.8025-12.301-6.343-12.872-13.925-0.12425-1.6468-0.19458-3.3966-0.24288-5.2083 8.2793-2.1689 16.37-5.4929 22.453-8.6623z" fill="#ccc"/>
<path d="m648.13 1530.6c-0.18717 0.6862 0.39059 1.4644 1.2143 2.3748 0.68883 10.076 5.6166 18.235 11.361 23.856 0.0531 0.1717 0.0334 0.242-0.16192 0.081-3.8525 24.952 9.3756 47.756 17.919 57.346 0.38421 0.5515 0.77041 1.101 1.0525 1.4842 2.9082 3.9513-8.532 9.1831-18.485 1.3764-12.044-9.4465-23.489-50.782-18.701-62.743 0.54534-0.7785 0.78972-1.576 0.83658-2.4287 2.041-7.5414 3.2539-15.098 4.9655-21.346z" fill="#ccc"/>
<path d="m642.33 1554.3c-4.2064 10.51 4.132 43.684 14.383 57.993-0.66217 3.8454-12.383 7.4407-20.915-0.2159-8.9197-8.004-9.6019-28.394-8.7168-48.359 0.57003 0.1715 1.1605 0.3173 1.7811 0.4318 6.1475 0.217 10.583-3.3333 12.98-8.7168 5e-3 -0.011 0.022-0.016 0.027-0.027 0.15957-0.3601 0.31766-0.7305 0.45876-1.1064z" fill="#ccc"/>
<path d="m590.38 1484.9c-4.3434 2.8081-7.0342 8.7763-6.6926 12.171 0.60886 5.9612 6.2252 9.3886 11.415 9.9844l0.0269 0.4048c-1.0028 1.2168-1.6342 2.4255-2.024 3.5891-11.297 4.4653-39.54 9.6486-56.374 3.4273-17.65-3.2282-18.072-22.092 2.8335-28.147 16.403 0.1765 33.628 0.3436 50.815-1.4302z" fill="#ccc"/>
<path d="m337.78 1451.4c51.017 13.7 103.05 20.103 154.96 17.514 2.5272 7.68 8.5036 16.699 18.269 21.805-49.408 9.2927-104.92 3.6426-154.68-2.024-12.391-1.4111-27.636-37.54-18.54-37.295z" fill="#ccc"/>
<path d="m355.22 1488.5c0.38325 0.106 0.75475 0.1998 1.1334 0.2429 43.523 4.9563 91.459 9.8869 135.85 4.8306h0.054c3.1541-0.3599 6.2757-0.7769 9.3912-1.2414h0.054c1.5488-0.2312 3.1034-0.4702 4.6416-0.7286h0.054c1.5468-0.2602 3.0793-0.548 4.6147-0.8366h0.0269c2.6264 1.373 5.5098 2.4788 8.6891 3.1844 1.9548 0.4598 4.0003 0.9104 6.0989 1.3223-3.6655 5.5731-2.5646 12.008 2.8876 15.949-45.927 14.338-99.516 12.047-152.01 5.0194-12.361-1.6547-29.989-27.334-24.045-27.31 0.8386-0.1473 1.6896-0.2944 2.5368-0.4317h0.0268z" fill="#ccc"/>
<path d="m528.31 1510.9c2.1084 1.64 4.9304 2.8969 8.4197 3.5352 4.7833 1.7677 10.51 2.604 16.489 2.8066-0.1612-0.01-0.32496 0.01-0.48575 0-2.2031 3.9434-2.4896 7.9992-1.1334 11.334-42.337 16.855-100.19 21.039-150.29 16.597-12.422-1.1015-33.662-28.743-27.742-29.28 0.16899-0.047 0.90552 0.014 1.8351 0.1079 0.43964 0.1129 0.86718 0.1856 1.2953 0.2429 52.495 7.0271 106.09 9.3187 152.01-5.0194-0.14352-0.1038-0.26733-0.2167-0.4048-0.3239z" fill="#ccc"/>
<path d="m535.27 1514.5c-28.655 16.282-101.77 16.398-130.22 13.601" fill="none" stroke-linecap="round" stroke-linejoin="round"/>
<path d="m551.6 1528.6c1.8243 4.4718 6.6017 7.655 13.682 7.5292 0.82021 0.1379 1.6517 0.249 2.5097 0.3239-36.155 25.169-86.934 33.725-141.76 32.869-11.69-0.1825-26.61-20.482-23.64-24.045 49.851 4.2884 107.18 0.057 149.21-16.677z" fill="#ccc"/>
<path d="m587.62 1534.2c0.0483 1.8118 0.11863 3.5616 0.24288 5.2083 0.33833 4.4842 2.307 8.2424 5.3162 10.741-0.12604 0.149-0.25059 0.2991-0.37781 0.4318-22.102 14.494-54.681 25.529-110.5 40.94-31.831 8.7911-46.166-15.812-46.442-22.133 51.036-0.285 97.945-9.266 131.93-32.928 6.0708 0.5354 13.014-0.4749 19.827-2.2625z" fill="#ccc"/>
<path d="m617.09 1544.2c0.0872 2.1217 0.20704 4.1665 0.35082 6.0719 0.21937 2.9073 0.91001 5.4365 2.0779 7.5292-21.439 16.013-63.257 37.627-101.04 44.743-16.179 3.0475-28.708-4.6666-33.841-11.469 1.0298-0.3795 2.0898-0.7346 3.1304-1.1063 52.452-14.618 83.669-25.42 105.03-39.427 0.12722-0.1327 0.25177-0.2828 0.3778-0.4318 2.0771 1.7248 4.6454 2.8568 7.5561 3.1844 6.5249 0.7344 9.6986-1.5165 16.354-9.0941z" fill="#ccc"/>
<path d="m619.52 1557.8c1.6178 2.8988 4.158 4.9381 7.6101 5.9639-5.3703 18.247-33.718 33.953-59.801 47.091-25.605 12.896-43.72-0.5034-49.034-8.2848 0.063-0.012 0.12588-0.015 0.18891-0.027 37.78-7.1163 79.598-28.73 101.04-44.743z" fill="#ccc"/>
<path d="m633.72 1563.5c-0.29714 0.1031-0.60839 0.1887-0.91753 0.2699 0.30614-0.081 0.62307-0.1677 0.91753-0.2699z" fill="#efefef"/>
<path d="m627.08 1563.9c-0.49388 11.27-0.47613 22.659 1.2414 31.87-4.847 8.9603-11.903 16.083-21.13 17.784-12.155 2.2413-20.104-2.7371-19.187-13.277 2.189-0.8817 4.3882-2.3954 6.5846-4.3178 15.824-9.6313 28.928-20.31 32.491-32.06z" fill="#ccc"/>
<path d="m667.79 1563.4c1.1416 16.041 5.3231 29.628 13.577 40.496" fill="none" stroke-linecap="round" stroke-linejoin="round"/>
<path d="m653.06 1546.6c-3.5539 19.767 0.2822 44.11 8.7254 54.807" fill="none" stroke-linecap="round" stroke-linejoin="round"/>
<path d="m635.36 1563.3c-0.0712 16.041 1.442 20.652 3.6313 30.793" fill="none" stroke-linecap="round" stroke-linejoin="round"/>
<path d="m626.33 1579.6c-9.9767 11.187-11.692 13.872-23.738 22.091" fill="none" stroke-linecap="round" stroke-linejoin="round"/>
<path d="m631.53 1537.8c-0.47367 3.628-1.3538 13.075-0.49241 16.724" fill="none" stroke-linecap="round" stroke-linejoin="round"/>
<path d="m613.71 1526.7c-4.5973 4.5982-10.086 10.164-13.349 16.481" fill="none" stroke-linecap="round" stroke-linejoin="round"/>
<path d="m666.33 1496.7c-6.2221 10.549-6.9949 39.502 0.2353 51.168" fill="none" stroke-linecap="round" stroke-linejoin="round"/>
<path d="m648.37 1475.2c-9.6062 11.033-15.557 29.67-14.804 45.59" fill="none" stroke-linecap="round" stroke-linejoin="round"/>
<path d="m622.86 1486.8c-6.7805 5.3259-13.725 8.2238-20.868 9.9318" fill="none" stroke-linecap="round" stroke-linejoin="round"/>
<path d="m619.83 1510.4c-5.0825 4.1131-11.299 6.0406-16.744 6.2932" fill="none" stroke-linecap="round" stroke-linejoin="round"/>
<path d="m535.42 1483.7c-10.661 0.232-20.275-4.3899-26.933-8.5036" fill="none" stroke-linecap="round" stroke-linejoin="round"/>
<path d="m583.44 1496.6c-7.9934 6.7814-26.824 12.104-42.942 10.174" fill="none" stroke-linecap="round" stroke-linejoin="round"/>
<path d="m595.09 1519.9c-7.9934 4.8408-18.091 6.7683-26.447 6.2932" fill="none" stroke-linecap="round" stroke-linejoin="round"/>
<path d="m623.21 1562.8c-9.9767 11.187-42.498 30.124-58.91 35.432" fill="none" stroke-linecap="round" stroke-linejoin="round"/>
<path d="m603.68 1553.9c-9.9767 11.188-63.844 30.852-81.712 33.249" fill="none" stroke-linecap="round" stroke-linejoin="round"/>
<path d="m588.4 1541.4c-33.748 15.829-60.206 26.937-115.19 36.16" fill="none" stroke-linecap="round" stroke-linejoin="round"/>
<path d="m524.12 1498.3c-33.748 7.5492-107.5 6.3526-137.5 0.2596" fill="none" stroke-linecap="round" stroke-linejoin="round"/>
<path d="m495.25 1475.6c-35.931 2.6978-91.986 0.2883-121.98-5.8047" fill="none" stroke-linecap="round" stroke-linejoin="round"/>
</g>
<g transform="matrix(0 .29395 -.29395 0 1162.1 631.07)">
<ellipse transform="matrix(-1.1916 -.1866 .18609 -1.1948 1931.6 2579.5)" cx="1095.7" cy="701.65" rx="69.808" ry="69.61" d="m 1165.5079,701.65002 c 0,38.44455 -31.2541,69.61001 -69.8079,69.61001 -38.5539,0 -69.808,-31.16546 -69.808,-69.61001 0,-38.44454 31.2541,-69.61 69.808,-69.61 38.5538,0 69.8079,31.16546 69.8079,69.61 z" fill="#000096"/>
<path d="m756.6 1480.5 7.5186 27.995 20.505-20.456-7.4498 28.031 27.989-7.47-20.435 20.56 27.92 7.5401-27.92 7.5402 20.435 20.561-27.989-7.47 7.4498 28.065-20.505-20.491-7.5186 27.996-7.5198-27.996-20.505 20.491 7.4498-28.065-27.989 7.47 20.435-20.526-27.92-7.574 27.92-7.5401-20.435-20.56 27.989 7.47-7.4498-28.031 20.505 20.456 7.5198-27.996z" fill="#fff"/>
<ellipse transform="matrix(-1.1916 -.1866 .18609 -1.1948 1931.6 2579.5)" cx="1095.7" cy="701.65" rx="26.362" ry="26.288" d="m 1122.062,701.65002 c 0,14.51847 -11.8027,26.288 -26.362,26.288 -14.5594,0 -26.362,-11.76953 -26.362,-26.288 0,-14.51846 11.8026,-26.288 26.362,-26.288 14.5593,0 26.362,11.76954 26.362,26.288 z" fill="#000096"/>
<ellipse transform="matrix(-1.1916 -.1866 .18609 -1.1948 1931.6 2579.5)" cx="1095.7" cy="701.65" rx="23.269" ry="23.204" d="m 1118.969,701.65002 c 0,12.81522 -10.4179,23.204 -23.269,23.204 -12.8512,0 -23.269,-10.38878 -23.269,-23.204 0,-12.81521 10.4178,-23.204 23.269,-23.204 12.8511,0 23.269,10.38879 23.269,23.204 z" fill="#fff"/>
</g>
</g>
<g fill="#ffdb00">
<path d="m1092.7 698.88c-5.6289 7.2312-8.1768 16.704-7.4062 21.688-2.4137-1.2604-4.7479-5.5376-5.9688-6.0312-0.5431-5.7602-3.5086-14.443-17.094-11.812-0.9973 7.2717 4.3484 17.934 15 16.469 1.5771 1.5713 4.2559 5.952 5.6563 8.9375-12.428-4.1454-19.317-5.0001-27.688 2.2812 12.646 9.5638 22.182 6.8706 32.594 3.375 0.9891 1.2074 3.1046 6.9176 4.0938 8.125-12.648-2.1761-25.891 0.63897-29.5 4.6562 13.066 7.8614 23.026 4.5673 31.5-0.625 0.9153 1.8567 5.3659 10.643 6.2812 12.5-11.245-4.1175-19.557-3.738-28.625 3.3125 8.7364 8.9647 24.901 5.3775 30.875 3.2812 2.6884 2.8758 5.9467 11.78 7.2812 17.25-10.593-5.2926-46.771-27.879-61.031 7.4375 0.5456 4.6568 36.531-15.226 64 4.0938 0.3559 0.47962 2.0855 6.1307 3.2812 16.938-20.446-22.519-44.715-22.827-55.5-6.5312 13.969 3.3386 29.885-7.9977 56.906 14.719 0.3918 2.7581 1.2919 6.0087 1.7187 11.219-5.0803-16.35-36.051-15.968-38.125-11.969 10.208 3.5779 39.434 16.61 43.813 35.562-4.4028 18.937-33.61 31.955-43.813 35.531 2.0743 3.9995 33.045 4.3814 38.125-11.969-0.4268 5.2101-1.3269 8.4606-1.7187 11.219-27.021 22.716-42.938 11.38-56.906 14.719 10.785 16.296 35.054 15.988 55.5-6.5312-1.1957 10.807-2.9253 16.458-3.2812 16.938-27.469 19.319-63.454-0.56306-64 4.0938 14.26 35.316 50.438 12.73 61.031 7.4375-1.3345 5.4699-4.5928 14.374-7.2812 17.25-5.9743-2.0963-22.139-5.6834-30.875 3.2812 9.0681 7.0505 17.38 7.43 28.625 3.3125-0.9153 1.8567-5.3659 10.643-6.2812 12.5-8.4743-5.1923-18.434-8.4864-31.5-0.625 3.6088 4.0173 16.852 6.8323 29.5 4.6562-0.9892 1.2074-3.1047 6.9176-4.0938 8.125-10.411-3.4956-19.948-6.1888-32.594 3.375 8.3708 7.2813 15.26 6.4266 27.688 2.2812-1.4004 2.9855-4.0792 7.3662-5.6563 8.9375-10.652-1.4652-15.997 9.197-15 16.469 13.585 2.6303 16.551-6.0523 17.094-11.812 1.2209-0.49361 3.5551-4.7708 5.9688-6.0312-0.7706 4.9837 1.7773 14.456 7.4062 21.688 8.093-11.651 1.9782-24.844-1.4374-29.375 9.7195-11.236 16.903-25.981 24.906-47.875 6.8739-20.782 15.664-55.706 15.312-77.469v-0.28125c0.352-21.763-8.4386-56.687-15.312-77.469-8.003-21.894-15.187-36.639-24.906-47.875 3.4156-4.5307 9.5304-17.724 1.4374-29.375z"/>
<path d="m1109.7 998.03c5.4185-13.25-2.3364-24.139-9.8622-29.944-3.2095 9.9958 2.3823 27.138 9.8622 29.944z"/>
<path d="m1121.7 983.2c3.6883-10.852 3.3459-28.529-11.305-36.797-1.2568 17.583 4.8847 35.905 11.305 36.797z"/>
<path d="m1164.5 968.54c-8.1596-4.161-25.415-21.85-28.934-27.443-4.1022-5.0685-14.526-23.619-15.737-21.654 2.8892 37.228 22.429 55.111 44.672 49.097z"/>
<path d="m1170.6 944.41c-27.244-23.361-33.138-44.296-41.922-66.347-0.5114 48.007 8.9196 65.933 41.922 66.347z"/>
<path d="m1167 923.21c1.1133-12.571-22.212-45.717-37.085-49.266 2.8493 21.607 24.762 46.795 37.085 49.266z"/>
<path d="m1109.7 709.44c5.4185 13.25-2.3364 24.139-9.8622 29.944-3.2095-9.9958 2.3823-27.138 9.8622-29.944z"/>
<path d="m1121.7 724.27c3.6883 10.852 3.3459 28.529-11.305 36.797-1.2568-17.583 4.8847-35.905 11.305-36.797z"/>
<path d="m1164.5 738.93c-8.1596 4.161-25.415 21.85-28.934 27.443-4.1022 5.0685-14.526 23.619-15.737 21.654 2.8892-37.228 22.429-55.111 44.672-49.097z"/>
<path d="m1170.6 763.06c-27.244 23.361-33.138 44.296-41.922 66.347-0.5114-48.007 8.9196-65.933 41.922-66.347z"/>
<path d="m1167 784.26c1.1133 12.571-22.212 45.717-37.085 49.266 2.8493-21.607 24.762-46.795 37.085-49.266z"/>
</g>
<g transform="translate(0,-2.0297)">
<g fill="#ccc" stroke="#000" stroke-miterlimit="4.5217" stroke-width=".793">
<path d="m1157.6 840.17c-8.0977 0.34204-12.635-1.9054-14.904-9.2602-0.8641-2.2981 2.6893-3.2788 3.5487-0.99847 2.4647 7.1046 6.2947 6.4417 13.338 6.4114 0.863 2.3004-0.1285 3.8207-1.9834 3.8472z"/>
<path d="m1100.5 868.06c-5.0258-6.3586-9.4814-9.4418-16.535-6.361-2.3051 0.84515-1.2462 4.3897 1.0424 3.5526 6.9914-2.7694 9.2978 1.4655 13.872 6.822 2.3062-0.84755 2.811-2.591 1.6205-4.0136z"/>
<path d="m1080.8 863.07c-7.2631 3.9341-11.92 14.675-12.08 22.37-0.1992 2.4471 3.4627 2.9719 3.6623 0.54314 0.417-7.5083 3.7365-15.136 10.666-19.895 0.1975-2.4491-0.4576-3.5023-2.2483-3.018z"/>
<path d="m1130 819.9c6.8459-3.498 12.165-0.56393 15.032 5.7702 1.4323 1.9941-1.2131 3.6888-2.6363 1.7107-4.2284-6.2185-6.163-6.3497-11.719-3.9573-2.6694 0.83182-2.4611-3.0154-0.677-3.5237z"/>
<path d="m1119.8 835.97c5.3313 0.82175 11.8-4.4148 10.619-11.267 0.067-2.4543-3.0741-2.3726-3.1421 0.0633-0.011 7.5199-2.9525 6.7695-8.8935 7.9067-2.6763 0.80936-0.3451 3.8769 1.4168 3.2965z"/>
<path d="m1077.4 903.77c-6.0404 0-10.937-4.5617-10.937-10.189 0-5.6271 4.8964-10.189 10.937-10.189 1.6118 0 3.1431 0.32706 4.5206 0.91033l2.7105-2.63-10.808-11.663 3.5927-4.0896 11.266 11.881 40.055-41.943c20.92-20.076 13.477-23.89 1.5476-23.247-0.2592 1.9721 2.3894 3.5116 3.3338 4.277-5.8325-1.6151-9.0172-1.6018-14.586-0.88758 1.3219-4.8413 3.4036-8.2107 6.6389-12.233 0.07 1.4282 0.3856 3.5498 1.6301 4.367 7.1398-1.4555 20.766-5.595 26.351-0.11388 2.9002 2.8388 9.5508-2.462 9.6147-2.5242-0.063 0.0615-2.8934 5.97-0.2236 9.0262 5.1628 5.8925 4.3166 23.046-1.8969 27.494 0.5432 1.5954 1.8946 1.0068 3.1876 1.2219-1.4299 2.4868-4.2351 5.5572-9.8704 9.1518 0.9498-2.3145 1.1351-7.3073-0.766-12.462 0.9004 1.434 3.7964 1.5326 4.8823 0.87315-2.0891-12.125-7.9833-19.203-24.311 0.0791l-41.055 42.443 10.509 10.966-4.0499 3.8715-10.259-10.966-2.0312 2.2067c0.6152 1.2742 0.9536 2.691 0.9536 4.1787 0 5.6271-4.8966 10.189-10.937 10.189zm0-5.1656c2.978 0 5.3919-2.2486 5.3919-5.0233 0-2.7744-2.4138-5.0232-5.3919-5.0232-2.9783 0-5.3922 2.2487-5.3922 5.0232 0 2.7746 2.4138 5.0233 5.3922 5.0233z"/>
<g transform="matrix(1 0 0 -1 0 1711.5)">
<path d="m1157.6 840.17c-8.0977 0.34204-12.635-1.9054-14.904-9.2602-0.8641-2.2981 2.6893-3.2788 3.5487-0.99847 2.4647 7.1046 6.2947 6.4417 13.338 6.4114 0.863 2.3004-0.1285 3.8207-1.9834 3.8472z"/>
<path d="m1100.5 868.06c-5.0258-6.3586-9.4814-9.4418-16.535-6.361-2.3051 0.84515-1.2462 4.3897 1.0424 3.5526 6.9914-2.7694 9.2978 1.4655 13.872 6.822 2.3062-0.84755 2.811-2.591 1.6205-4.0136z"/>
<path d="m1080.8 863.07c-7.2631 3.9341-11.92 14.675-12.08 22.37-0.1992 2.4471 3.4627 2.9719 3.6623 0.54314 0.417-7.5083 3.7365-15.136 10.666-19.895 0.1975-2.4491-0.4576-3.5023-2.2483-3.018z"/>
<path d="m1130 819.9c6.8459-3.498 12.165-0.56393 15.032 5.7702 1.4323 1.9941-1.2131 3.6888-2.6363 1.7107-4.2284-6.2185-6.163-6.3497-11.719-3.9573-2.6694 0.83182-2.4611-3.0154-0.677-3.5237z"/>
<path d="m1119.8 835.97c5.3313 0.82175 11.8-4.4148 10.619-11.267 0.067-2.4543-3.0741-2.3726-3.1421 0.0633-0.011 7.5199-2.9525 6.7695-8.8935 7.9067-2.6763 0.80936-0.3451 3.8769 1.4168 3.2965z"/>
<path d="m1077.4 903.77c-6.0404 0-10.937-4.5617-10.937-10.189 0-5.6271 4.8964-10.189 10.937-10.189 1.6118 0 3.1431 0.32706 4.5206 0.91033l2.7105-2.63-10.808-11.663 3.5927-4.0896 11.266 11.881 40.055-41.943c20.92-20.076 13.477-23.89 1.5476-23.247-0.2592 1.9721 2.3894 3.5116 3.3338 4.277-5.8325-1.6151-9.0172-1.6018-14.586-0.88758 1.3219-4.8413 3.4036-8.2107 6.6389-12.233 0.07 1.4282 0.3856 3.5498 1.6301 4.367 7.1398-1.4555 20.766-5.595 26.351-0.11388 2.9002 2.8388 9.5508-2.462 9.6147-2.5242-0.063 0.0615-2.8934 5.97-0.2236 9.0262 5.1628 5.8925 4.3166 23.046-1.8969 27.494 0.5432 1.5954 1.8946 1.0068 3.1876 1.2219-1.4299 2.4868-4.2351 5.5572-9.8704 9.1518 0.9498-2.3145 1.1351-7.3073-0.766-12.462 0.9004 1.434 3.7964 1.5326 4.8823 0.87315-2.0891-12.125-7.9833-19.203-24.311 0.0791l-41.055 42.443 10.509 10.966-4.0499 3.8715-10.259-10.966-2.0312 2.2067c0.6152 1.2742 0.9536 2.691 0.9536 4.1787 0 5.6271-4.8966 10.189-10.937 10.189zm0-5.1656c2.978 0 5.3919-2.2486 5.3919-5.0233 0-2.7744-2.4138-5.0232-5.3919-5.0232-2.9783 0-5.3922 2.2487-5.3922 5.0232 0 2.7746 2.4138 5.0233 5.3922 5.0233z"/>
</g>
</g>
<g transform="matrix(.49107 0 0 .49107 421.75 437.88)">
<ellipse transform="matrix(-.71328 -.1117 .1114 -.71521 2118.1 1475.2)" cx="1095.7" cy="701.65" rx="69.808" ry="69.61" d="m 1165.5079,701.65002 c 0,38.44455 -31.2541,69.61001 -69.8079,69.61001 -38.5539,0 -69.808,-31.16546 -69.808,-69.61001 0,-38.44454 31.2541,-69.61 69.808,-69.61 38.5538,0 69.8079,31.16546 69.8079,69.61 z" fill="#000096"/>
<path d="m1414.7 817.32 4.5006 16.758 12.274-12.245-4.4595 16.779 16.754-4.4715-12.233 12.307 16.713 4.5135-16.713 4.5135 12.233 12.308-16.754-4.4715 4.4595 16.8-12.274-12.266-4.5006 16.758-4.5013-16.758-12.274 12.266 4.4595-16.8-16.754 4.4715 12.233-12.287-16.713-4.5338 16.713-4.5135-12.233-12.307 16.754 4.4715-4.4595-16.779 12.274 12.245 4.5013-16.758z" fill="#fff"/>
<ellipse transform="matrix(-.71328 -.1117 .1114 -.71521 2118.1 1475.2)" cx="1095.7" cy="701.65" rx="26.362" ry="26.288" d="m 1122.062,701.65002 c 0,14.51847 -11.8027,26.288 -26.362,26.288 -14.5594,0 -26.362,-11.76953 -26.362,-26.288 0,-14.51846 11.8026,-26.288 26.362,-26.288 14.5593,0 26.362,11.76954 26.362,26.288 z" fill="#000096"/>
<ellipse transform="matrix(-.71328 -.1117 .1114 -.71521 2118.1 1475.2)" cx="1095.7" cy="701.65" rx="23.269" ry="23.204" d="m 1118.969,701.65002 c 0,12.81522 -10.4179,23.204 -23.269,23.204 -12.8512,0 -23.269,-10.38878 -23.269,-23.204 0,-12.81521 10.4178,-23.204 23.269,-23.204 12.8511,0 23.269,10.38879 23.269,23.204 z" fill="#fff"/>
</g>
</g>
</g>
</g>
<rect x="37.5" y="135" width="67.5" height="510" fill="#fff"/>
<g transform="matrix(4.6231 0 0 5.1389 45.45 145.64)">
<path d="m0.4252 0.035433c0.56693 0.14173 1.063 0.35433 1.5591 0.56693h7.0157c0.14173-0.1063 0.24803-0.2126 0.38976-0.35433 0.14173-0.14173 0.28346-0.2126 0.35433-0.2126 0.14173 0 0.38976 0.1063 0.70866 0.3189 0.38976 0.3189 0.60236 0.5315 0.60236 0.6378 0 0.1063-0.07087 0.2126-0.24803 0.35433-0.14173 0.14173-0.2126 0.28346-0.2126 0.38976v6.378l0.07087 2.4094c0 0.14173-0.2126 0.24803-0.6378 0.3189-0.17717 0.03543-0.3189 0.03543-0.4252 0.03543-0.2126 0-0.3189-0.1063-0.3189-0.35433v-0.17716h-7.5118v0.2126c0 0.14173-0.17717 0.28346-0.56693 0.35433-0.17717 0-0.28346 0.03543-0.35433 0.03543-0.28346 0-0.4252-0.14173-0.4252-0.38976 0.070866-0.85039 0.1063-1.5945 0.1063-2.2323v-6.2008c0-0.56693-0.035433-1.2756-0.1063-2.0906zm1.3465 9.9567h7.5118v-6.8031h-2.5512c0.035433 0.95669 0.14173 1.8071 0.28346 2.5512 0.2126-0.49606 0.38976-1.0984 0.56693-1.8425 0.35433 0.17717 0.70866 0.35433 1.0276 0.5315 0.38976 0.17717 0.56693 0.3189 0.56693 0.4252s-0.14173 0.17717-0.4252 0.17717c-0.17717 0-0.28346 0.035433-0.3189 0.14173-0.35433 0.77953-0.67323 1.4173-1.0276 1.9134 0.28346 0.67323 0.56693 1.0276 0.85039 1.0276 0.070866 0 0.24803-0.56693 0.56693-1.6654l0.2126 0.070866c-0.1063 1.1339-0.17717 1.7362-0.17717 1.878 0 0.070866 0.035433 0.2126 0.1063 0.46063 0.070866 0.17717 0.1063 0.3189 0.1063 0.38976 0 0.28346-0.14173 0.4252-0.35433 0.46063-0.5315 0-1.063-0.28346-1.5945-0.81496-0.2126-0.24803-0.38976-0.49606-0.56693-0.81496-0.2126 0.2126-0.4252 0.38976-0.6378 0.56693-0.60236 0.46063-1.2402 0.81496-1.9843 1.063l-0.1063-0.17717c0.6378-0.38976 1.2402-0.88583 1.8425-1.5591 0.17717-0.2126 0.38976-0.46063 0.5315-0.70866-0.035433-0.14173-0.070866-0.28346-0.1063-0.4252-0.24803-0.85039-0.4252-2.0551-0.5315-3.6496h-2.0197c-0.67323 0-1.1693 0.035433-1.4528 0.035433l-0.17717-0.46063c0.38976 0.070866 0.92126 0.1063 1.6299 0.1063h1.9843c-0.035433-0.5315-0.070866-1.1339-0.1063-1.7362 0.38976 0.070866 0.77953 0.14173 1.0984 0.2126 0.28346 0.035433 0.49606 0.070866 0.6378 0.1063 0-0.035433-0.035433-0.1063-0.1063-0.17717l0.14173-0.14173c0.46063 0.1063 0.74409 0.17717 0.88583 0.28346 0.2126 0.1063 0.3189 0.2126 0.3189 0.28346 0 0.24803-0.070866 0.4252-0.17717 0.56693-0.14173 0.14173-0.3189 0.24803-0.49606 0.24803-0.1063 0-0.17717-0.035433-0.2126-0.070866-0.035433-0.035433-0.1063-0.17717-0.14173-0.38976 0-0.070866 0-0.14173-0.035433-0.2126-0.070866 0.070866-0.17717 0.1063-0.3189 0.14173-0.2126 0.035433-0.3189 0.14173-0.3189 0.28346v0.60236h1.311c0.035433 0 0.1063-0.1063 0.28346-0.3189 0.2126-0.2126 0.3189-0.35433 0.35433-0.35433 0.1063 0 0.28346 0.14173 0.5315 0.38976l0.1063 0.1063v-1.7362h-7.5118v9.0354zm4.0394-2.8701 0.035433 0.14173c-0.88583 0.77953-1.8071 1.311-2.7992 1.6654-0.1063 0.035433-0.14173 0.070866-0.14173 0.1063 0 0.070866-0.035433 0.1063-0.035433 0.14173-0.035433 0.1063-0.070866 0.17717-0.1063 0.17717-0.14173 0-0.35433-0.28346-0.56693-0.81496-0.035433-0.14173-0.14173-0.35433-0.28346-0.70866 1.4173-0.14173 2.7283-0.35433 3.8976-0.70866zm-3.5079-3.2598c0.4252 0.1063 0.85039 0.24803 1.311 0.46063h0.35433c0.14173-0.14173 0.24803-0.28346 0.38976-0.38976 0.070866-0.1063 0.14173-0.17717 0.2126-0.17717 0.1063 0 0.24803 0.070866 0.5315 0.24803 0.3189 0.2126 0.46063 0.38976 0.46063 0.46063 0 0.1063-0.035433 0.17717-0.14173 0.28346-0.035433 0.070866-0.070866 0.17717-0.070866 0.28346v0.46063c0 0.3189 0 0.74409 0.035433 1.2756 0 0.14173-0.17717 0.2126-0.49606 0.28346-0.17717 0.035433-0.28346 0.035433-0.35433 0.035433-0.17717 0-0.28346-0.1063-0.28346-0.3189h-0.77953v0.17717c0 0.14173-0.17717 0.24803-0.49606 0.28346-0.14173 0.035433-0.24803 0.035433-0.3189 0.035433-0.2126 0-0.3189-0.1063-0.3189-0.3189 0.035433-0.3189 0.070866-0.67323 0.070866-1.0276v-0.67323c0-0.46063-0.035433-0.92126-0.1063-1.3819zm1.1693 2.5866h0.77953v-1.8071h-0.77953v1.8071z"/>
<path d="m3.7913 12.154c0.14173 0 0.4252 0.17716 0.85039 0.5315 0.3189 0.24803 0.46063 0.46063 0.46063 0.5315 0 0.1063-0.14173 0.17716-0.35433 0.24803-0.28346 0.03543-0.46063 0.1063-0.49606 0.17717-0.49606 1.0276-0.99213 1.8425-1.4882 2.4449 0.56693 0.49606 0.95669 0.92126 1.2047 1.311 0.14173 0.24803 0.24803 0.5315 0.35433 0.85039 0.14173 0.3189 0.17717 0.6378 0.17717 0.99213 0 0.46063-0.070866 0.77953-0.24803 0.99213-0.14173 0.24803-0.3189 0.46063-0.49606 0.56693-0.2126 0.14173-0.35433 0.2126-0.49606 0.2126-0.070866 0-0.14173-0.14173-0.2126-0.4252-0.070866-0.35433-0.46063-0.6378-1.1339-0.92126l0.070866-0.24803c0.35433 0.07087 0.67323 0.1063 0.92126 0.1063 0.1063 0 0.17717-0.03543 0.24803-0.1063 0.035433-0.14173 0.070866-0.35433 0.070866-0.6378 0-0.56693-0.070866-0.99213-0.17717-1.3465-0.14173-0.4252-0.38976-0.88583-0.70866-1.3465 0.3189-0.88583 0.56693-1.878 0.74409-3.0118h-1.2402v9.5669c0 0.17716-0.2126 0.28346-0.60236 0.35433-0.14173 0.03543-0.28346 0.03543-0.35433 0.03543-0.24803 0-0.35433-0.1063-0.35433-0.38976 0-0.38976 0.035433-0.77953 0.035433-1.2047v-7.5472c0-0.56693-0.035433-1.1339-0.1063-1.7008 0.49606 0.14173 0.99213 0.35433 1.5236 0.56693h0.95669c0.2126-0.17716 0.35433-0.3189 0.49606-0.4252 0.14173-0.14173 0.24803-0.17716 0.35433-0.17716zm2.7638-0.03543c0.56693 0.03543 1.063 0.1063 1.5945 0.2126 0.3189 0 0.46063 0.1063 0.46063 0.24803 0 0.03543-0.1063 0.1063-0.28346 0.2126-0.2126 0.07087-0.3189 0.17716-0.3189 0.28346v1.3465h0.6378c0.070866-0.03543 0.2126-0.2126 0.46063-0.5315 0.35433-0.4252 0.5315-0.60236 0.60236-0.60236 0.14173 0 0.4252 0.17716 0.77953 0.56693 0.35433 0.38976 0.5315 0.60236 0.5315 0.70866 0 0.1063-0.07087 0.17716-0.24803 0.17716h-3.685c0 0.70866-0.070866 1.3465-0.1063 1.9134h1.311c0.14173-0.14173 0.28346-0.24803 0.35433-0.35433 0.17717-0.17716 0.28346-0.24803 0.38976-0.24803 0.14173 0 0.4252 0.14173 0.85039 0.46063 0.35433 0.28346 0.5315 0.46063 0.5315 0.60236 0 0.07087-0.07087 0.17716-0.24803 0.28346-0.14173 0.1063-0.2126 0.24803-0.24803 0.3189 0 0.77953-0.1063 1.6654-0.24803 2.6929-0.14173 0.85039-0.3189 1.4173-0.5315 1.7008-0.14173 0.2126-0.38976 0.35433-0.6378 0.49606-0.3189 0.1063-0.5315 0.17716-0.67323 0.17716-0.1063 0-0.17717-0.14173-0.24803-0.38976-0.1063-0.35433-0.56693-0.67323-1.3465-1.0276l0.035433-0.3189c0.60236 0.07087 1.0276 0.1063 1.2756 0.1063 0.2126 0 0.35433-0.07087 0.46063-0.17716 0.1063-0.17717 0.17717-0.6378 0.24803-1.4173 0.14173-0.92126 0.2126-1.7717 0.2126-2.5512h-1.5236c-0.070866 0.46063-0.14173 0.88583-0.24803 1.2402-0.17717 0.81496-0.38976 1.4528-0.67323 1.9488-0.28346 0.5315-0.6378 1.0276-1.063 1.4528-0.56693 0.5315-1.2047 0.99213-1.9134 1.3819l-0.14173-0.24803c0.38976-0.3189 0.77953-0.74409 1.1339-1.2402 0.35433-0.46063 0.67323-1.063 0.95669-1.8071 0.17717-0.56693 0.3189-1.2402 0.4252-2.0197 0.14173-0.92126 0.2126-1.9134 0.24803-2.9764-0.67323 0-1.1693 0-1.4528 0.03543l-0.17717-0.46063c0.35433 0.07087 0.92126 0.1063 1.6299 0.1063h0.99213v-1.2402c0-0.35433-0.035433-0.70866-0.1063-1.063z"/>
<path d="m0.14173 27.248c0.70866 0.07087 1.3465 0.14173 1.9488 0.14173h2.4803c0.070866-0.5315 0.1063-1.063 0.1063-1.6654 0-0.6378 0-1.2047-0.035433-1.6299 0.38976 0.07087 0.81496 0.1063 1.2047 0.2126 0.56693 0.1063 0.85039 0.2126 0.85039 0.3189s-0.1063 0.17717-0.24803 0.28346c-0.2126 0.1063-0.3189 0.17716-0.3189 0.24803-0.070866 0.85039-0.14173 1.5591-0.2126 2.2323h2.622c0.035433-0.03543 0.17717-0.2126 0.46063-0.56693 0.35433-0.4252 0.5315-0.60236 0.60236-0.60236 0.17717 0 0.46063 0.17717 0.81496 0.56693 0.35433 0.4252 0.56693 0.6378 0.56693 0.74409s-0.1063 0.17716-0.24803 0.17716h-4.3937c0.17717 0.77953 0.4252 1.5236 0.74409 2.1969 0.38976 0.74409 0.85039 1.4173 1.4528 1.9488 0.74409 0.67323 1.5591 1.2047 2.4803 1.5945l-0.03543 0.24803c-0.46063 0.17716-0.70866 0.38976-0.85039 0.6378-0.14173 0.35433-0.28346 0.49606-0.38976 0.49606-0.14173 0-0.38976-0.17716-0.74409-0.49606-0.4252-0.35433-0.8504-0.85039-1.311-1.4882-0.35433-0.49606-0.67323-1.1339-0.99213-1.9134-0.28346-0.74409-0.5315-1.8425-0.70866-3.2244h-0.14173c-0.17717 1.2402-0.4252 2.1614-0.74409 2.7992-0.46063 1.0276-1.0984 1.9134-1.9488 2.622-0.70866 0.6378-1.7008 1.2402-2.9409 1.8071l-0.070866-0.24803c0.95669-0.6378 1.7717-1.3819 2.4803-2.2323 0.67323-0.70866 1.1693-1.7008 1.5591-2.9055 0.17717-0.56693 0.28346-1.1693 0.35433-1.8425h-2.622c-0.6378 0-1.1693 0.03543-1.5945 0.1063l-0.17717-0.56693z"/>
<path d="m3.437 36.106c0.28346 0.17716 0.5315 0.3189 0.74409 0.4252 0.28346 0.14173 0.46063 0.28346 0.46063 0.38976 0 0.03543-0.1063 0.1063-0.24803 0.1063-0.17717 0-0.28346 0-0.3189 0.07087-0.2126 0.03543-0.4252 0.07087-0.6378 0.1063-0.2126 0.03543-0.46063 0.07087-0.81496 0.07087v0.92126h0.17717c0.035433 0 0.1063-0.07087 0.24803-0.24803 0.2126-0.2126 0.35433-0.35433 0.4252-0.35433 0.035433 0 0.24803 0.14173 0.5315 0.4252 0.2126 0.17717 0.3189 0.28346 0.3189 0.35433 0 0.1063-0.070866 0.17717-0.17717 0.17717h-1.4882v1.2047h0.2126s0.070866-0.07087 0.2126-0.24803c0.24803-0.24803 0.35433-0.35433 0.4252-0.35433 0.070866 0 0.24803 0.14173 0.56693 0.4252 0.17717 0.17716 0.28346 0.28346 0.28346 0.3189 0 0.14173-0.035433 0.17717-0.14173 0.17717h-1.5236v0.99213h5.7756l0.035433-1.0276c-0.49606 0-0.92126 0.03543-1.2402 0.03543l-0.2126-0.46063c0.4252 0.07087 0.92126 0.1063 1.4882 0.1063l0.035433-1.1339c-0.5315 0-0.99213 0-1.311 0.03543l-0.2126-0.46063c0.46063 0.07087 0.95669 0.1063 1.5591 0.1063l0.035433-0.99213c-0.49606 0-0.95669 0-1.3465 0.07087l-0.17717-0.49607c0.56693 0.07087 1.0276 0.1063 1.4173 0.1063 0.14173-0.14173 0.24803-0.28346 0.38976-0.38976 0.17717-0.17716 0.3189-0.28346 0.38976-0.28346 0.14173 0 0.35433 0.14173 0.6378 0.38976 0.35433 0.24803 0.5315 0.4252 0.5315 0.49606 0 0.14173-0.1063 0.24803-0.35433 0.35433-0.2126 0.1063-0.3189 0.24803-0.3189 0.35433l-0.14173 2.7992c0.1063-0.1063 0.2126-0.14173 0.28346-0.14173 0.070866 0 0.3189 0.14173 0.67323 0.46063 0.35433 0.28346 0.5315 0.46063 0.5315 0.60236 0 0.1063-0.1063 0.14173-0.28346 0.17716-0.2126 0-0.35433 0.03543-0.38976 0.07087-0.38976 0.2126-0.85039 0.46063-1.4528 0.70866l-0.17717-0.07087c0.2126-0.35433 0.35433-0.70866 0.5315-1.063h-8.0433c0 0.24803-0.035433 0.46063-0.070866 0.56693-0.035433 0.28346-0.14173 0.46063-0.24803 0.56693-0.070866 0.07087-0.14173 0.1063-0.2126 0.1063-0.24803 0-0.46063-0.07087-0.60236-0.2126-0.14173-0.1063-0.2126-0.24803-0.2126-0.46063 0-0.1063 0.1063-0.2126 0.3189-0.35433s0.35433-0.28346 0.49606-0.4252 0.2126-0.38976 0.28346-0.67323l0.24803 0.03543v0.49606h0.28346l-0.1063-2.7638c0-0.56693-0.035433-1.1339-0.17717-1.7362l1.1339 0.4252c0.14173-0.1063 0.28346-0.2126 0.4252-0.31889 0.24803-0.17717 0.4252-0.38976 0.5315-0.56693zm-1.3465 6.0945c0.49606 0.1063 1.063 0.14173 1.6654 0.14173h2.8346c0.14173-0.1063 0.2126-0.2126 0.3189-0.28346 0.2126-0.17717 0.38976-0.28346 0.49606-0.28346 0.14173 0 0.38976 0.14173 0.74409 0.46063s0.56693 0.5315 0.56693 0.67323c0 0.1063-0.17717 0.14173-0.46063 0.17717-0.28346 0-0.46063 0.03543-0.5315 0.1063-0.4252 0.17716-0.77953 0.35433-1.0984 0.46063 0.035433 0.03543 0.070866 0.1063 0.070866 0.14173 0 0.1063-0.1063 0.2126-0.28346 0.28346-0.17717 0.03543-0.28346 0.1063-0.3189 0.17716h2.622c0.035433-0.03543 0.14173-0.17716 0.38976-0.49606 0.28346-0.35433 0.46063-0.5315 0.49606-0.5315 0.14173 0 0.38976 0.17716 0.70866 0.5315 0.35433 0.35433 0.5315 0.56693 0.5315 0.6378 0 0.14173-0.1063 0.17717-0.24803 0.17717h-4.5v1.1693c0 0.49606-0.17717 0.85039-0.46063 1.0276-0.35433 0.2126-0.70866 0.35433-1.063 0.35433-0.1063 0-0.17717-0.1063-0.2126-0.35433-0.070866-0.35433-0.49606-0.70866-1.2756-1.063l0.035433-0.2126c0.6378 0.1063 1.1339 0.17716 1.4173 0.17716 0.2126 0 0.28346-0.07087 0.28346-0.17716v-0.92126h-3.0472c-0.67323 0-1.1693 0.03543-1.4528 0.07087l-0.17717-0.49607c0.38976 0.07087 0.92126 0.1063 1.6299 0.1063h3.0472c0-0.24803-0.035433-0.56693-0.1063-1.0276 0.6378 0.1063 1.063 0.17716 1.2402 0.2126h0.035433c0.2126-0.2126 0.4252-0.49606 0.67323-0.77953h-2.9055c-0.5315 0-0.99213 0.03543-1.4528 0.1063l-0.2126-0.56693zm3.8268-3.7559c0.24803 0.14173 0.49606 0.28346 0.70866 0.38976 0.28346 0.14173 0.38976 0.24803 0.38976 0.3189 0 0.07087-0.070866 0.14173-0.2126 0.14173-0.17717 0-0.28346 0.03543-0.28346 0.1063-0.070866 0.03543-0.14173 0.1063-0.2126 0.17717 0.17717 0.1063 0.3189 0.2126 0.4252 0.3189 0.14173 0.14173 0.2126 0.3189 0.2126 0.46063 0 0.17717-0.070866 0.28346-0.17717 0.4252-0.1063 0.14173-0.2126 0.2126-0.35433 0.2126-0.1063 0-0.35433-0.24803-0.70866-0.70866-0.035433-0.07087-0.070866-0.1063-0.14173-0.17716-0.35433 0.24803-0.88583 0.49606-1.5945 0.74409l-0.035433-0.17716c0.4252-0.28346 0.81496-0.6378 1.1693-0.99213v-0.03543c-0.24803-0.17717-0.49606-0.35433-0.74409-0.49607l0.1063-0.17717c0.38976 0.07087 0.70866 0.14173 0.99213 0.24803 0.2126-0.28346 0.35433-0.5315 0.46063-0.77953zm0.035433-2.4094c0.28346 0.17717 0.49606 0.28346 0.70866 0.38976 0.28346 0.14173 0.38976 0.24803 0.38976 0.3189 0 0.1063-0.070866 0.14173-0.17717 0.17716-0.2126 0-0.28346 0-0.3189 0.07087-0.035433 0.03543-0.070866 0.07087-0.1063 0.14173 0.1063 0.07087 0.2126 0.17716 0.28346 0.24803 0.14173 0.17717 0.2126 0.3189 0.2126 0.49606 0 0.17717-0.070866 0.28346-0.17717 0.4252-0.1063 0.14173-0.2126 0.2126-0.35433 0.2126-0.1063 0-0.3189-0.24803-0.6378-0.74409-0.28346 0.24803-0.74409 0.49606-1.311 0.77953l-0.070866-0.14174c0.35433-0.3189 0.67323-0.67323 0.92126-1.063 0-0.03543 0.035433-0.07087 0.035433-0.07087-0.24803-0.24803-0.5315-0.46063-0.81496-0.67323l0.1063-0.17717c0.38976 0.1063 0.74409 0.17717 1.0276 0.28346 0.14173-0.2126 0.2126-0.4252 0.28346-0.67323z"/>
<path d="m0.28346 48.295c0.38976 0.1063 0.81496 0.24803 1.2047 0.4252h0.24803c0.14173-0.17716 0.28346-0.35433 0.38976-0.49606 0.1063-0.1063 0.17717-0.17716 0.28346-0.17716 0.035433 0 0.24803 0.1063 0.5315 0.24803 0.3189 0.24803 0.49606 0.38976 0.49606 0.46063 0 0.07087-0.070866 0.17717-0.17717 0.24803-0.1063 0.07087-0.14173 0.17716-0.14173 0.24803v0.49606c0 0.28346 0.035433 0.70866 0.070866 1.2047 0 0.14173-0.17717 0.2126-0.49606 0.24803-0.14173 0.03543-0.24803 0.03543-0.28346 0.03543-0.2126 0-0.3189-0.1063-0.3189-0.28346v-0.17717h-0.6378v0.28346c0 0.1063-0.14173 0.2126-0.4252 0.28346 0.35433 0.1063 0.70866 0.24803 1.063 0.4252h2.4094c0.14173-0.17716 0.28346-0.28346 0.4252-0.4252 0.1063-0.1063 0.17717-0.14173 0.28346-0.14173 0.070866 0 0.28346 0.07087 0.56693 0.28346 0.38976 0.24803 0.56693 0.4252 0.56693 0.5315 0 0.07087-0.070866 0.17716-0.2126 0.24803-0.070866 0.1063-0.14173 0.2126-0.14173 0.3189v1.3465c0 0.3189 0.035433 0.77953 0.035433 1.3465 0 0.14173-0.17717 0.24803-0.56693 0.28346-0.14173 0.03543-0.28346 0.03543-0.35433 0.03543-0.17717 0-0.28346-0.1063-0.28346-0.3189h-0.88583v1.1339h1.2756c0-0.03543 0.14173-0.14173 0.3189-0.38976 0.28346-0.3189 0.4252-0.46063 0.46063-0.46063 0.14173 0 0.3189 0.14173 0.60236 0.46063 0.24803 0.28346 0.38976 0.46063 0.38976 0.5315 0 0.1063-0.070866 0.17717-0.17717 0.17717h-2.8701v0.3189c0 0.70866 0.035433 1.2756 0.035433 1.7008 0 0.14173-0.17717 0.24803-0.56693 0.28346-0.17717 0.03543-0.28346 0.03543-0.35433 0.03543-0.2126 0-0.28346-0.1063-0.28346-0.3189 0.035433-0.38976 0.035433-0.95669 0.035433-1.7008v-0.3189h-1.1693c-0.67323 0-1.1693 0-1.4528 0.03543l-0.17716-0.46062c0.38976 0.07087 0.92126 0.1063 1.6299 0.1063h1.1693v-1.1339h-0.81496v0.24803c0 0.1063-0.2126 0.2126-0.56693 0.28346-0.14173 0.03543-0.28346 0.03543-0.35433 0.03543-0.2126 0-0.3189-0.1063-0.3189-0.3189 0.035433-0.38976 0.070866-0.74409 0.070866-1.1339v-1.5945c0-0.49606-0.035433-0.95669-0.1063-1.4173h-0.070866c-0.2126 0-0.3189-0.1063-0.3189-0.3189 0.035433-0.35433 0.070866-0.67323 0.070866-1.0276v-0.35433c0-0.46063-0.035433-0.92126-0.1063-1.3819zm1.1693 2.1614h0.6378v-1.4173h-0.6378v1.4173zm0.5315 2.8701h0.81496v-1.2402h-0.81496v1.2402zm0 1.6299h0.81496v-1.311h-0.81496v1.311zm1.6654-6.6614c0.38976 0.1063 0.81496 0.24803 1.2047 0.4252h0.2126c0.14173-0.17716 0.24803-0.3189 0.38976-0.46063 0.1063-0.1063 0.17717-0.17716 0.24803-0.17716 0.1063 0 0.28346 0.1063 0.56693 0.28346 0.35433 0.24803 0.5315 0.38976 0.5315 0.49606 0 0.07087-0.070866 0.14173-0.2126 0.24803-0.070866 0.07087-0.1063 0.17716-0.1063 0.24803v0.3189c0 0.3189 0 0.70866 0.035433 1.2402 0 0.1063-0.17717 0.17716-0.49606 0.24803-0.14173 0-0.24803 0.03543-0.3189 0.03543-0.17717 0-0.24803-0.1063-0.24803-0.28346v-0.14173h-0.6378v0.17717c0 0.14173-0.14173 0.24803-0.46063 0.28346-0.14173 0.03543-0.24803 0.03543-0.3189 0.03543-0.24803 0-0.35433-0.1063-0.35433-0.3189 0.035433-0.3189 0.070866-0.67323 0.070866-1.0276v-0.24803c0-0.46063-0.035433-0.92126-0.1063-1.3819zm0.28346 3.7913v1.2402h0.88583v-1.2402h-0.88583zm0 1.5591v1.311h0.88583v-1.311h-0.88583zm5.9173-3.0118c0.070866 0 0.28346 0.14173 0.56693 0.38976 0.35433 0.28346 0.49606 0.46063 0.49606 0.5315 0 0.14173-0.07087 0.2126-0.24803 0.2126l-2.374 0.28346c0.035433 1.0276 0.1063 1.7717 0.17717 2.2323 0.035433 0.14173 0.070866 0.28346 0.1063 0.38976 0.24803-0.60236 0.46063-1.311 0.60236-2.1614 0.4252 0.14173 0.74409 0.24803 0.99213 0.3189 0.38976 0.14173 0.60236 0.28346 0.60236 0.38976 0 0.1063-0.07087 0.17717-0.24803 0.2126-0.17717 0.03543-0.24803 0.07087-0.28346 0.14173-0.38976 1.0276-0.81496 1.8425-1.2402 2.4094 0.070866 0.14173 0.14173 0.24803 0.17717 0.35433 0.4252 0.6378 0.70866 0.95669 0.85039 0.95669 0.07087 0 0.17716-0.24803 0.35433-0.67323 0.03543-0.24803 0.14173-0.5315 0.24803-0.88583l0.2126 0.03543c-0.14173 1.0276-0.2126 1.5945-0.2126 1.8071 0 0.14173 0.03543 0.3189 0.1063 0.5315 0.07087 0.17717 0.1063 0.28346 0.1063 0.38976-0.03543 0.24803-0.14173 0.38976-0.35433 0.4252-0.28346 0-0.6378-0.14173-1.0276-0.46063-0.4252-0.3189-0.81496-0.74409-1.0984-1.3465-0.070866-0.070866-0.1063-0.14173-0.14173-0.24803-0.35433 0.3189-0.70866 0.56693-1.0276 0.77953-0.60236 0.35433-1.4173 0.70866-2.4803 1.0276l-0.070866-0.17717c1.0984-0.60236 1.9134-1.1339 2.4094-1.6299 0.28346-0.28346 0.5315-0.56693 0.77953-0.88583-0.14173-0.35433-0.24803-0.74409-0.3189-1.0984-0.17717-0.6378-0.28346-1.5236-0.35433-2.7283-0.17717 0.035433-0.35433 0.070866-0.56693 0.1063l-0.24803-0.49606c0.28346 0 0.5315 0.03543 0.81496 0.03543-0.035433-0.60236-0.035433-1.311-0.035433-2.0551 0-0.60236-0.035433-1.1339-0.14173-1.5591 0.56693 0.07087 0.99213 0.1063 1.2402 0.17717 0.46063 0.03543 0.67323 0.1063 0.67323 0.24803 0 0.1063-0.1063 0.2126-0.35433 0.3189-0.2126 0.07087-0.3189 0.17716-0.3189 0.35433 0 0.92126 0.035433 1.7008 0.035433 2.4094l0.88583-0.1063c0.14173-0.2126 0.24803-0.38976 0.35433-0.56693 0.14173-0.24803 0.24803-0.38976 0.35433-0.38976zm-5.0315-0.17716h0.6378v-1.4173h-0.6378v1.4173zm4.1457-1.6299c0.60236 0.1063 1.0276 0.2126 1.2402 0.35433 0.2126 0.1063 0.3189 0.24803 0.3189 0.4252 0 0.2126-0.07087 0.4252-0.28346 0.6378-0.1063 0.14173-0.28346 0.2126-0.49606 0.2126-0.1063 0-0.2126-0.14173-0.28346-0.38976-0.14173-0.35433-0.3189-0.70866-0.60236-1.063l0.1063-0.17717z"/>
<path d="m1.4882 63.815c0.5315 0.07087 1.1693 0.1063 1.9488 0.1063h4.252c0.14173-0.14173 0.28346-0.24803 0.38976-0.35433 0.17717-0.14173 0.3189-0.2126 0.38976-0.2126 0.14173 0 0.38976 0.1063 0.70866 0.38976 0.35433 0.28346 0.56693 0.49606 0.56693 0.60236s-0.1063 0.2126-0.24803 0.28346c-0.2126 0.14173-0.3189 0.28346-0.3189 0.38976v0.56693c0.070866-0.1063 0.17717-0.2126 0.28346-0.35433 0.28346-0.3189 0.4252-0.49606 0.46063-0.49606 0.14173 0 0.35433 0.17716 0.67323 0.49606s0.46063 0.5315 0.46063 0.60236c0 0.1063-0.07087 0.17716-0.17717 0.17716h-1.7008c0 0.88583 0.035433 1.4882 0.035433 1.7717v0.56693c0 0.14173-0.2126 0.28346-0.60236 0.35433-0.2126 0-0.3189 0.03543-0.4252 0.03543-0.2126 0-0.3189-0.14173-0.3189-0.38976v-0.49606h-1.9134v1.4173c0 0.70866-0.2126 1.1693-0.6378 1.3819-0.4252 0.2126-0.74409 0.3189-0.95669 0.3189-0.14173 0-0.24803-0.14173-0.35433-0.46063-0.1063-0.46063-0.6378-0.85039-1.5591-1.1693l0.035433-0.24803c0.67323 0.17716 1.2756 0.24803 1.7362 0.24803 0.24803 0 0.35433-0.1063 0.35433-0.38976v-1.0984h-2.0197c-0.5315 0-0.99213 0-1.3465 0.03543l-0.17717-0.46063c0.4252 0.07087 0.92126 0.07087 1.5236 0.07087h2.0197v-1.4882h-2.8346c-0.70866 0-1.1693 0-1.4528 0.03543l-0.2126-0.46063c0.38976 0.07087 0.95669 0.1063 1.6654 0.1063h2.8346v-1.4528h-1.1339c-0.85039 0-1.4173 0-1.7717 0.03543l-0.17717-0.46063zm7.937-2.5512c-0.28346 0.03543-0.60236 0.07087-0.88583 0.1063 0.2126 0.07087 0.38976 0.14173 0.60236 0.2126 0.3189 0.14173 0.49606 0.28346 0.49606 0.46063 0 0.03543-0.070866 0.07087-0.24803 0.1063-0.17717 0-0.28346 0.03543-0.3189 0.07087-0.49606 0.60236-1.1693 1.1339-1.9134 1.6299l-0.14173-0.14174c0.38976-0.70866 0.70866-1.4882 0.92126-2.3032-1.9488 0.17716-4.3583 0.24803-7.1929 0.28346l-0.1063-0.28346c2.0906-0.14173 3.7559-0.3189 4.9606-0.49606 1.2047-0.2126 2.3031-0.46063 3.2953-0.77953 0.38976 0.24803 0.6378 0.4252 0.81496 0.56693 0.35433 0.2126 0.5315 0.4252 0.5315 0.5315s-0.07087 0.14173-0.2126 0.14173l-0.60236-0.1063zm-7.5827 0.6378c0.46063 0.1063 0.81496 0.24803 1.063 0.4252 0.3189 0.17716 0.46063 0.35433 0.46063 0.49606 0 0.28346-0.1063 0.5315-0.3189 0.70866-0.1063 0.1063-0.28346 0.17717-0.46063 0.17717-0.1063 0-0.17717-0.03543-0.24803-0.1063-0.070866-0.07087-0.1063-0.2126-0.17717-0.4252-0.070866-0.35433-0.2126-0.7441-0.49606-1.2047l0.17717-0.07087zm2.622-0.17716c0.60236 0.17716 1.0276 0.3189 1.2402 0.49606 0.2126 0.14173 0.3189 0.35433 0.3189 0.56693 0 0.2126-0.1063 0.46063-0.28346 0.67323-0.14173 0.14173-0.3189 0.2126-0.5315 0.2126-0.14173 0-0.2126-0.14173-0.3189-0.46063-0.1063-0.4252-0.3189-0.85039-0.56693-1.2402l0.14173-0.24803zm1.4882 2.5157v1.4528h1.9134v-1.4528h-1.9134zm0 1.7717v1.4882h1.9134v-1.4882h-1.9134z"/>
<path d="m3.437 72.106c0.28346 0.17716 0.5315 0.3189 0.74409 0.4252 0.28346 0.14173 0.46063 0.28346 0.46063 0.38976 0 0.03543-0.1063 0.1063-0.24803 0.1063-0.17717 0-0.28346 0-0.3189 0.07087-0.2126 0.03543-0.4252 0.07087-0.6378 0.1063-0.2126 0.03543-0.46063 0.07087-0.81496 0.07087v0.92126h0.17717c0.035433 0 0.1063-0.07087 0.24803-0.24803 0.2126-0.2126 0.35433-0.35433 0.4252-0.35433 0.035433 0 0.24803 0.14173 0.5315 0.4252 0.2126 0.17716 0.3189 0.28346 0.3189 0.35433 0 0.1063-0.070866 0.17716-0.17717 0.17716h-1.4882v1.2047h0.2126s0.070866-0.07087 0.2126-0.24803c0.24803-0.24803 0.35433-0.35433 0.4252-0.35433 0.070866 0 0.24803 0.14173 0.56693 0.4252 0.17717 0.17716 0.28346 0.28346 0.28346 0.3189 0 0.14173-0.035433 0.17716-0.14173 0.17716h-1.5236v0.99213h5.7756l0.035433-1.0276c-0.49606 0-0.92126 0.03543-1.2402 0.03543l-0.2126-0.46063c0.4252 0.07087 0.92126 0.1063 1.4882 0.1063l0.035433-1.1339c-0.5315 0-0.99213 0-1.311 0.03543l-0.2126-0.46063c0.46063 0.07087 0.95669 0.1063 1.5591 0.1063l0.035433-0.99213c-0.49606 0-0.95669 0-1.3465 0.07087l-0.17717-0.49607c0.56693 0.07087 1.0276 0.1063 1.4173 0.1063 0.14173-0.14173 0.24803-0.28346 0.38976-0.38976 0.17717-0.17717 0.3189-0.28346 0.38976-0.28346 0.14173 0 0.35433 0.14173 0.6378 0.38976 0.35433 0.24803 0.5315 0.4252 0.5315 0.49606 0 0.14173-0.1063 0.24803-0.35433 0.35433-0.2126 0.1063-0.3189 0.24803-0.3189 0.35433l-0.14173 2.7992c0.1063-0.1063 0.2126-0.14173 0.28346-0.14173 0.070866 0 0.3189 0.14173 0.67323 0.46063 0.35433 0.28346 0.5315 0.46063 0.5315 0.60236 0 0.1063-0.1063 0.14173-0.28346 0.17716-0.2126 0-0.35433 0.03543-0.38976 0.07087-0.38976 0.2126-0.85039 0.46063-1.4528 0.70866l-0.17717-0.07087c0.2126-0.35433 0.35433-0.70866 0.5315-1.063h-8.0433c0 0.24803-0.035433 0.46063-0.070866 0.56693-0.035433 0.28346-0.14173 0.46063-0.24803 0.56693-0.070866 0.07087-0.14173 0.1063-0.2126 0.1063-0.24803 0-0.46063-0.07087-0.60236-0.2126-0.14173-0.1063-0.2126-0.24803-0.2126-0.46063 0-0.1063 0.1063-0.2126 0.3189-0.35433s0.35433-0.28346 0.49606-0.4252c0.14173-0.14173 0.2126-0.38976 0.28346-0.67323l0.24803 0.03543v0.49606h0.28346l-0.1063-2.7638c0-0.56693-0.035433-1.1339-0.17717-1.7362l1.1339 0.4252c0.14173-0.1063 0.28346-0.2126 0.4252-0.3189 0.24803-0.17716 0.4252-0.38976 0.5315-0.56693zm-1.3465 6.0945c0.49606 0.1063 1.063 0.14173 1.6654 0.14173h2.8346c0.14173-0.1063 0.2126-0.2126 0.3189-0.28346 0.2126-0.17716 0.38976-0.28346 0.49606-0.28346 0.14173 0 0.38976 0.14173 0.74409 0.46063 0.35433 0.3189 0.56693 0.5315 0.56693 0.67323 0 0.1063-0.17717 0.14173-0.46063 0.17716-0.28346 0-0.46063 0.03543-0.5315 0.1063-0.4252 0.17717-0.77953 0.35433-1.0984 0.46063 0.035433 0.03543 0.070866 0.1063 0.070866 0.14173 0 0.1063-0.1063 0.2126-0.28346 0.28346-0.17717 0.03543-0.28346 0.1063-0.3189 0.17717h2.622c0.035433-0.03543 0.14173-0.17717 0.38976-0.49606 0.28346-0.35433 0.46063-0.5315 0.49606-0.5315 0.14173 0 0.38976 0.17717 0.70866 0.5315 0.35433 0.35433 0.5315 0.56693 0.5315 0.6378 0 0.14173-0.1063 0.17716-0.24803 0.17716h-4.5v1.1693c0 0.49606-0.17717 0.85039-0.46063 1.0276-0.35433 0.2126-0.70866 0.35433-1.063 0.35433-0.1063 0-0.17717-0.1063-0.2126-0.35433-0.070866-0.35433-0.49606-0.70866-1.2756-1.063l0.035433-0.2126c0.6378 0.1063 1.1339 0.17716 1.4173 0.17716 0.2126 0 0.28346-0.07087 0.28346-0.17716v-0.92126h-3.0472c-0.67323 0-1.1693 0.03543-1.4528 0.07087l-0.17717-0.49607c0.38976 0.07087 0.92126 0.1063 1.6299 0.1063h3.0472c0-0.24803-0.035433-0.56693-0.1063-1.0276 0.6378 0.1063 1.063 0.17717 1.2402 0.2126h0.035433c0.2126-0.2126 0.4252-0.49606 0.67323-0.77953h-2.9055c-0.5315 0-0.99213 0.03543-1.4528 0.1063l-0.2126-0.56693zm3.8268-3.7559c0.24803 0.14173 0.49606 0.28346 0.70866 0.38976 0.28346 0.14173 0.38976 0.24803 0.38976 0.3189 0 0.07087-0.070866 0.14173-0.2126 0.14173-0.17717 0-0.28346 0.03543-0.28346 0.1063-0.070866 0.03543-0.14173 0.1063-0.2126 0.17716 0.17717 0.1063 0.3189 0.2126 0.4252 0.3189 0.14173 0.14173 0.2126 0.3189 0.2126 0.46063 0 0.17716-0.070866 0.28346-0.17717 0.4252-0.1063 0.14173-0.2126 0.2126-0.35433 0.2126-0.1063 0-0.35433-0.24803-0.70866-0.70866-0.035433-0.07087-0.070866-0.1063-0.14173-0.17716-0.35433 0.24803-0.88583 0.49606-1.5945 0.7441l-0.035433-0.17717c0.4252-0.28346 0.81496-0.6378 1.1693-0.99213v-0.03543c-0.24803-0.17717-0.49606-0.35433-0.74409-0.49607l0.1063-0.17716c0.38976 0.07087 0.70866 0.14173 0.99213 0.24803 0.2126-0.28346 0.35433-0.5315 0.46063-0.77953zm0.035433-2.4094c0.28346 0.17716 0.49606 0.28346 0.70866 0.38976 0.28346 0.14173 0.38976 0.24803 0.38976 0.3189 0 0.1063-0.070866 0.14173-0.17717 0.17717-0.2126 0-0.28346 0-0.3189 0.07087-0.035433 0.03543-0.070866 0.07087-0.1063 0.14173 0.1063 0.07087 0.2126 0.17716 0.28346 0.24803 0.14173 0.17717 0.2126 0.3189 0.2126 0.49606 0 0.17716-0.070866 0.28346-0.17717 0.4252-0.1063 0.14173-0.2126 0.2126-0.35433 0.2126-0.1063 0-0.3189-0.24803-0.6378-0.7441-0.28346 0.24803-0.74409 0.49606-1.311 0.77953l-0.070866-0.14173c0.35433-0.3189 0.67323-0.67323 0.92126-1.063 0-0.03543 0.035433-0.07087 0.035433-0.07087-0.24803-0.24803-0.5315-0.46063-0.81496-0.67323l0.1063-0.17716c0.38976 0.1063 0.74409 0.17716 1.0276 0.28346 0.14173-0.2126 0.2126-0.4252 0.28346-0.67323z"/>
<path d="m3.4724 84.047c0.1063 0 0.38976 0.17717 0.77953 0.49606 0.3189 0.24803 0.46063 0.46063 0.46063 0.5315 0 0.1063-0.1063 0.17717-0.3189 0.2126-0.24803 0.07087-0.4252 0.14173-0.46063 0.2126-0.46063 1.063-0.95669 1.9134-1.4173 2.5512 0.56693 0.46063 0.95669 0.85039 1.1693 1.2402 0.14173 0.2126 0.28346 0.49606 0.35433 0.81496 0.1063 0.28346 0.17717 0.60236 0.17717 0.95669 0 0.4252-0.070866 0.70866-0.24803 0.92126-0.17717 0.24803-0.35433 0.4252-0.56693 0.56693-0.2126 0.1063-0.35433 0.17716-0.49606 0.17716-0.1063 0-0.17717-0.14173-0.24803-0.38976-0.070866-0.28346-0.35433-0.5315-0.81496-0.74409v3.0827c0 0.17716-0.2126 0.28346-0.6378 0.35433-0.14173 0.03543-0.28346 0.03543-0.35433 0.03543-0.24803 0-0.38976-0.14173-0.38976-0.38976 0.035433-0.38976 0.070866-0.81496 0.070866-1.2402v-7.5472c0-0.60236-0.035433-1.1693-0.1063-1.7362 0.56693 0.14173 1.0984 0.35433 1.7008 0.60236h0.5315c0.17717-0.2126 0.3189-0.38976 0.46063-0.5315 0.14173-0.1063 0.24803-0.17717 0.35433-0.17717zm-1.6299 1.0276v6.1654c0.28346 0.07087 0.49606 0.07087 0.67323 0.07087 0.2126 0 0.3189-0.03543 0.38976-0.1063 0.1063-0.1063 0.14173-0.3189 0.14173-0.60236 0-0.49606-0.070866-0.95669-0.2126-1.2756-0.14173-0.4252-0.38976-0.8504-0.74409-1.2756 0.3189-0.88583 0.5315-1.878 0.70866-2.9764h-0.95669zm2.1969 4.5354c0.35433 0.07087 0.92126 0.1063 1.6299 0.1063h3.2953c0.035433 0 0.14173-0.17717 0.38976-0.46063 0.28346-0.35433 0.4252-0.5315 0.49606-0.5315 0.14173 0 0.35433 0.17716 0.67323 0.5315 0.3189 0.3189 0.49606 0.5315 0.49606 0.60236 0 0.14173-0.07087 0.17716-0.24803 0.17716h-2.0551v3.189c0 0.24803 0.035433 0.35433 0.17717 0.38976 0.1063 0.03543 0.24803 0.03543 0.49606 0.03543 0.17717 0 0.28346-0.07087 0.38976-0.17717 0.1063-0.2126 0.24803-0.70866 0.4252-1.5236l0.24803 0.03543 0.03543 0.77953c0 0.28346 0.1063 0.5315 0.3189 0.7441 0.17717 0.17716 0.24803 0.3189 0.24803 0.49606 0 0.2126-0.07087 0.38976-0.24803 0.46063-0.28346 0.17717-0.77953 0.28346-1.4173 0.28346h-0.70866c-0.24803 0-0.46063-0.03543-0.67323-0.1063-0.38976-0.07086-0.60236-0.35432-0.60236-0.88582v-3.7205h-0.70866c-0.070866 0.92126-0.2126 1.5945-0.38976 2.0551-0.17717 0.4252-0.38976 0.81496-0.6378 1.1339s-0.60236 0.60236-1.0276 0.85039c-0.5315 0.3189-1.1339 0.60236-1.7717 0.81496l-0.17717-0.28346c0.35433-0.17717 0.70866-0.38976 1.063-0.70866 0.3189-0.28346 0.60236-0.6378 0.85039-1.0276 0.2126-0.38976 0.38976-0.74409 0.46063-1.1339 0.14173-0.46063 0.2126-1.0276 0.24803-1.7008-0.49606 0.03543-0.88583 0.03543-1.0984 0.07087l-0.17717-0.49607zm2.4449-5.563c0.49606 0.03543 0.99213 0.1063 1.4528 0.2126 0.3189 0 0.46063 0.07087 0.46063 0.2126 0 0.07087-0.1063 0.1063-0.28346 0.2126-0.17717 0.07087-0.28346 0.17716-0.28346 0.3189v0.77953h1.2047c0.14173-0.14173 0.28346-0.28346 0.38976-0.38976 0.17717-0.17716 0.28346-0.28346 0.38976-0.28346 0.1063 0 0.35433 0.17717 0.77953 0.5315 0.35433 0.3189 0.56693 0.5315 0.56693 0.67323 0 0.1063-0.1063 0.14173-0.28346 0.17716-0.2126 0-0.35433 0.03543-0.38976 0.03543-0.3189 0.24803-0.74409 0.49606-1.2047 0.7441h0.035433c0.28346 0.3189 0.4252 0.49606 0.4252 0.60236s-0.070866 0.17716-0.17717 0.17716h-3.3307c-0.70866 0-1.1693 0-1.4528 0.03543l-0.2126-0.46062c0.38976 0.03543 0.95669 0.07087 1.6654 0.07087h1.5945c0.035433 0 0.14173-0.14173 0.35433-0.4252 0.28346-0.28346 0.4252-0.46063 0.46063-0.46063 0.070866 0 0.17717 0.03543 0.24803 0.1063 0.14173-0.24803 0.24803-0.5315 0.3189-0.81496h-4.0394c-0.035433 0.3189-0.035433 0.5315-0.070866 0.67323-0.070866 0.28346-0.2126 0.5315-0.38976 0.6378-0.1063 0.07087-0.24803 0.1063-0.35433 0.1063-0.24803 0-0.4252-0.07087-0.60236-0.2126-0.14173-0.1063-0.2126-0.28347-0.2126-0.49607 0-0.1063 0.14173-0.2126 0.38976-0.38976 0.28346-0.14173 0.49606-0.3189 0.6378-0.49606 0.17717-0.17716 0.28346-0.4252 0.38976-0.81496l0.24803 0.07087c0 0.2126-0.035433 0.4252-0.035433 0.60236h1.3819v-0.7441c0-0.3189-0.035433-0.6378-0.070866-0.99213z"/>
</g>
</g>
</svg>
