<?xml version="1.0" encoding="UTF-8" standalone="no"?>
<!-- Created with Inkscape (http://www.inkscape.org/) -->
<svg id="svg3947" xmlns:rdf="http://www.w3.org/1999/02/22-rdf-syntax-ns#" xmlns="http://www.w3.org/2000/svg" height="400" width="600" version="1.1" xmlns:cc="http://creativecommons.org/ns#" xmlns:dc="http://purl.org/dc/elements/1.1/">
 <metadata id="metadata3952">
  <rdf:RDF>
   <cc:Work rdf:about="">
    <dc:format>image/svg+xml</dc:format>
    <dc:type rdf:resource="http://purl.org/dc/dcmitype/StillImage"/>
    <dc:title/>
   </cc:Work>
  </rdf:RDF>
 </metadata>
 <g id="layer1" transform="translate(-54.813343,-720.19849)">
  <rect id="rect4211" style="fill:#ffffff;" height="400" width="600" y="720.2" x="54.813"/>
  <g id="g4331" transform="matrix(0.50761421,0,0,0.50761421,26.989311,551.56981)">
   <path id="rect4092" style="fill:#000080;" d="m360.09,924.43,0,15,18,0,0,30-18,15,38.656,0,509.19,0,38.656,0-18-15,0-30,18,0,0-15-38.656,0-509.19,0-38.656,0z"/>
   <g id="g4261" transform="translate(0,1.4285714)">
    <g id="g4176" style="fill:#000080;" transform="translate(-76.400177,-698.70616)">
     <path id="path4001" d="m722.21,1173.1c-124.26,0-225,100.74-225,225s100.74,225,225,225,225-100.74,225-225-100.74-225-225-225zm0,25c110.46,0,200,89.543,200,200s-89.543,200-200,200-200-89.543-200-200,89.543-200,200-200zm0,125c-41.421,0-75,33.578-75,75,0,41.421,33.579,75,75,75s75-33.579,75-75c0-41.422-33.579-75-75-75zm0,25c27.614,0,50,22.386,50,50s-22.386,50-50,50-50-22.386-50-50,22.386-50,50-50z" style="fill:#000080;"/>
     <path id="n" style="fill-rule:evenodd;stroke-width:0;fill:#000080;" d="m694.71,1187.1,11.5,161,32,0,11.5-161-55,0z"/>
     <path id="path4072" style="fill-rule:evenodd;stroke-width:0;fill:#000080;" d="m768.88,1422.2,121.98,105.7-38.906,38.906-105.7-121.98"/>
     <path id="path4078" style="fill-rule:evenodd;stroke-width:0;fill:#000080;" d="m738.21,1448.1,11.511,161-55.021,0,11.511-161"/>
     <path id="path4084" style="fill-rule:evenodd;stroke-width:0;fill:#000080;" d="m698.17,1444.8-105.7,121.98-38.906-38.906,121.98-105.7"/>
    </g>
    <g id="g4251">
     <path id="path4249" style="fill:#000080;" d="m131.81,467.97c0,80.336,23.067,210.11,193.44,261.62,126.93,41.416,303.53,23.769,337.88-34.344-115.16-54.072-124.07-170.73-331.81-172.75-105.72,0-174.25-40.924-199.5-54.531z"/>
     <path id="path4247" style="fill:#ffffff;" d="m212.62,543.72c36.366,10.577,68.515,22.23,157.06,27.281,123.9,6.0609,175.27,107.54,185.38,125.25-37.376-33.811-85.846-105.43-183.34-111.09-49.152-3.0304-74.241,2.5334-159.09-41.438z"/>
     <path id="path4245" style="fill:#ffffff;" d="m223.71,583.12c36.366,10.577,46.546,22.23,135.09,27.281,95.332,5.4477,150.77,69.168,160.88,86.875-45.457-31.79-79.128-71.095-158.88-72.719-23.898-1.0102-72.444-4.5377-137.09-41.438z"/>
     <path id="path4152" style="fill:#ffffff;" d="m223.71,614.44c36.366,10.577,46.546,22.23,135.09,27.281,78.446,4.0406,124.52,57.043,134.62,74.75-45.457-31.79-75.392-57.563-132.62-60.594-23.898-1.0102-72.444-4.5377-137.09-41.438z"/>
     <path id="path4241" style="fill:#000080;" d="m1159.8,467.97c0,80.336-23.067,210.11-193.44,261.62-126.93,41.416-303.53,23.769-337.87-34.344,115.16-54.072,124.07-170.73,331.81-172.75,105.72,0,174.25-40.924,199.5-54.531z"/>
     <path id="path4239" style="fill:#ffffff;" d="m1079,543.72c-36.366,10.577-68.515,22.23-157.06,27.281-123.9,6.0609-175.27,107.54-185.38,125.25,37.376-33.811,88.66-108.24,183.34-111.09,49.152-3.0304,74.241,2.5334,159.09-41.438z"/>
     <path id="path4237" style="fill:#ffffff;" d="m1067.9,583.12c-36.366,10.577-46.546,22.23-135.09,27.281-89.704,1.2263-150.77,69.168-160.87,86.875,45.457-31.79,72.092-68.281,158.87-72.719,23.898-1.0102,72.444-4.5377,137.09-41.438z"/>
     <path id="path4166" style="fill:#ffffff;" d="m1067.9,614.44c-36.366,10.577-46.546,22.23-135.09,27.281-78.446,4.0406-124.52,57.043-134.62,74.75,45.457-31.79,75.392-57.563,132.62-60.594,23.898-1.0102,72.444-4.5377,137.09-41.438z"/>
    </g>
   </g>
  </g>
 </g>
</svg>
