<svg xmlns="http://www.w3.org/2000/svg" width="900" height="648"><g transform="translate(-67.680222,-285.54987)"><path fill="#d4000e" d="M67.68 285.55H967.6800000000001V933.55H67.68z"/><g transform="matrix(0.47203173,0,0,0.47203173,578.23688,176.03706) matrix(1.0051443,0,0,1.0051443,-2.7559243,-10.947817)"><path class="fil1 str0" transform="matrix(642.45018,0,0,642.45018,-3839.8505,-1001.6411)" fill="#fc0" fill-rule="evenodd" d="M4.7374 2.29754L4.80484 2.10673 4.87228 2.29754 5.07459 2.30271 4.91396 2.42581 4.97156 2.61983 4.80484 2.50509 4.63812 2.61983 4.69572 2.42581 4.53509 2.30271z"/><g transform="matrix(13.946828,0,0,13.946828,-2681.7596,-635.79285) translate(-303,-185)" fill-rule="evenodd" fill="#fc0"><g transform="translate(-1.0455207,-0.44357326)"><path d="m 471.9136,293.01997 4.01834,3.89567 4.13846,-3.90551 c 7.71726,7.96148 13.54427,13.71575 21.26153,21.67723 1.92701,0.38722 3.17265,-0.85402 3.29458,-2.83828 l -21.53188,-21.84559 5.35913,-4.85697 -6.97387,-1.03238 z"/><path d="m 487.22357,279.56373 c 9.59569,2.88611 15.34735,11.4145 15.71573,17.43484 0.10746,14.01806 -15.73915,19.84769 -25.0712,10.55642 -1.79933,2.15544 -3.46963,3.56766 -5.37598,5.63063 0,0 -2.20321,-1.90067 -3.08562,-2.98514 2.85386,-2.67586 3.89992,-3.76053 5.4314,-5.11044 -0.15573,-0.16084 -0.40743,-0.36826 -0.40743,-0.36826 0.70641,-0.71004 2.12556,-2.10373 2.50289,-2.53743 9.62215,10.15944 23.0757,2.66569 21.30631,-7.29521 -0.4023,-4.28732 -4.23759,-11.40115 -11.06497,-15.3254 h 0.0488 v 0 0 0 0 0 z"/></g></g></g></g></svg>