<?xml version="1.0" encoding="UTF-8" standalone="no"?>
<svg
   xmlns:dc="http://purl.org/dc/elements/1.1/"
   xmlns:cc="http://creativecommons.org/ns#"
   xmlns:rdf="http://www.w3.org/1999/02/22-rdf-syntax-ns#"
   xmlns:svg="http://www.w3.org/2000/svg"
   xmlns="http://www.w3.org/2000/svg"
   xmlns:sodipodi="http://sodipodi.sourceforge.net/DTD/sodipodi-0.dtd"
   xmlns:inkscape="http://www.inkscape.org/namespaces/inkscape"
   version="1.0"
   width="2666.7754pt"
   height="1777.8502pt"
   viewBox="0 0 2666.7753 1777.8502"
   preserveAspectRatio="xMidYMid meet"
   id="svg26"
   sodipodi:docname="ji9.svg"
   inkscape:version="0.92.2 (5c3e80d, 2017-08-06)">
  <defs
     id="defs30" />
  <sodipodi:namedview
     pagecolor="#ffffff"
     bordercolor="#666666"
     borderopacity="1"
     objecttolerance="10"
     gridtolerance="10"
     guidetolerance="10"
     inkscape:pageopacity="0"
     inkscape:pageshadow="2"
     inkscape:window-width="716"
     inkscape:window-height="480"
     id="namedview28"
     showgrid="false"
     fit-margin-top="0"
     fit-margin-left="0"
     fit-margin-right="0"
     fit-margin-bottom="0"
     inkscape:zoom="0.287"
     inkscape:cx="1493.1161"
     inkscape:cy="1023.675"
     inkscape:window-x="-8"
     inkscape:window-y="0"
     inkscape:window-maximized="0"
     inkscape:current-layer="g24" />
  <metadata
     id="metadata2">
Created by potrace 1.15, written by Peter Selinger 2001-2017
<rdf:RDF>
  <cc:Work
     rdf:about="">
    <dc:format>image/svg+xml</dc:format>
    <dc:type
       rdf:resource="http://purl.org/dc/dcmitype/StillImage" />
    <dc:title></dc:title>
  </cc:Work>
</rdf:RDF>
</metadata>
  <g
     transform="matrix(0.1,0,0,-0.1,-77.762213,1766.974)"
     id="g24"
     style="fill:#000000;stroke:none">
    <rect
       style="opacity:1;fill:#ffdb00;fill-opacity:1;stroke:none;stroke-width:15;stroke-linecap:square;stroke-linejoin:miter;stroke-miterlimit:4;stroke-dasharray:none;stroke-dashoffset:0;stroke-opacity:1;paint-order:normal"
       id="rect2266"
       width="26667.752"
       height="17778.502"
       x="777.62213"
       y="-17669.74"
       transform="scale(1,-1)" />
    <g
       id="g2282"
       transform="translate(-82.033642)">
      <path
         inkscape:connector-curvature="0"
         style="fill:#dbca3d;fill-opacity:1;fill-rule:evenodd;stroke:none;stroke-width:102.65567017"
         d="m 14189.425,16560.223 c -517.384,0 -837.67,-583.084 -492.747,-1042.968 l -295.648,-32.85 c 131.399,229.935 82.124,1051.181 -763.745,927.994 -229.949,-32.85 -837.67,-615.934 -213.524,-1149.729 l -320.285,-90.338 c 106.762,558.434 -377.773,1001.906 -911.569,771.957 -361.348,-156.037 -599.509,-829.444 -8.212,-1174.367 l -279.224,-156.037 c 24.637,722.696 -862.307,919.795 -1149.7429,484.535 -410.6089,-591.297 147.8238,-1231.871 681.6329,-1034.771 l 303.861,-558.434 -1371.4655,-320.286 1584.9895,-1929.912 V 7436.2526 c 0,-410.6227 566.646,-985.4944 919.781,-1190.7921 542.022,-320.2856 1084.044,-24.6373 1535.715,-147.8242 336.711,-90.337 673.421,-418.8351 780.183,-771.9706 114.975,353.1355 451.685,681.6336 788.395,771.9706 451.672,123.1869 985.482,-172.4614 1535.716,147.8242 353.135,205.2977 919.782,780.1694 919.782,1190.7921 v 3818.7644 l 1584.989,1929.912 -1371.467,320.286 303.862,558.434 c 533.809,-197.1 1084.029,443.474 681.633,1034.771 -295.648,435.26 -1174.38,238.161 -1149.743,-484.535 l -279.224,156.037 c 591.297,344.923 353.136,1018.33 -8.212,1174.367 -533.796,229.949 -1018.33,-213.523 -911.569,-771.957 l -320.285,90.338 c 542.021,533.795 172.461,1100.455 -221.737,1149.729 -837.656,123.187 -886.931,-698.059 -755.532,-927.994 l -295.648,32.85 c 344.923,459.884 24.637,1042.968 -500.96,1042.968 z m 172.462,-1371.466 c 1108.667,0 2332.323,-410.623 3317.803,-1084.047 l -147.823,-246.374 c -960.843,640.575 -2200.924,1034.773 -3169.98,1026.56 z m -295.648,0 v -303.861 c -960.844,8.213 -2209.137,-385.985 -3161.768,-1026.56 l -147.824,246.374 c 977.269,673.424 2209.136,1084.047 3309.592,1084.047 z m 295.648,-615.934 c 1141.517,-24.637 2340.536,-533.812 3030.368,-1018.334 l -3030.368,698.046 z m -295.648,0 v -320.288 l -3022.156,-698.046 c 689.833,484.522 1888.85,993.697 3022.156,1018.334 z"
         id="path2194" />
      <path
         inkscape:connector-curvature="0"
         style="fill:#3d3d79;fill-opacity:1;fill-rule:evenodd;stroke:none;stroke-width:102.65567017"
         d="m 15552.679,9850.7 c 49.274,-139.6109 180.673,-566.659 -188.887,-1116.8934 0,0 -2307.671,435.2601 -484.521,-2373.3717 500.947,123.1731 862.294,-65.6996 1190.793,49.261 632.359,205.3114 1108.667,730.9084 1108.667,1215.4432 V 9850.7 Z"
         id="path2196" />
      <path
         inkscape:connector-curvature="0"
         style="fill:#3d3d79;fill-opacity:1;fill-rule:evenodd;stroke:none;stroke-width:102.65567017"
         d="m 9845.0656,13028.892 4221.1734,936.206 V 11369.99 c -114.975,-114.973 -205.312,-246.373 -287.436,-394.197 -180.674,-49.275 -533.797,-344.924 -624.133,-903.356 h -1905.276 v 1330.403 z"
         id="path2198" />
      <path
         inkscape:connector-curvature="0"
         style="fill:#df3d3d;fill-opacity:1;fill-rule:evenodd;stroke:none;stroke-width:102.65567017"
         d="m 18591.273,13028.892 -4229.386,936.206 V 11369.99 c 123.187,-114.973 385.985,-476.321 542.022,-706.271 188.886,-123.186 468.096,-312.073 591.282,-591.282 h 1683.54 v 1330.403 z"
         id="path2200" />
      <path
         inkscape:connector-curvature="0"
         style="fill:#dbca3d;fill-opacity:1;fill-rule:nonzero;stroke:none;stroke-width:102.65567017"
         d="m 13450.304,13414.878 v -1658.902 h 689.846 v 213.51 h -451.685 v 1231.869 h 451.685 v 213.523 z"
         id="path2202" />
      <path
         inkscape:connector-curvature="0"
         style="fill:#dbca3d;fill-opacity:1;fill-rule:nonzero;stroke:none;stroke-width:102.65567017"
         d="m 14969.609,13414.878 v -1658.902 h -698.059 v 213.51 h 451.685 v 1231.869 h -451.685 v 213.523 z"
         id="path2204" />
      <path
         inkscape:connector-curvature="0"
         style="fill:#dbca3d;fill-opacity:1;fill-rule:evenodd;stroke:none;stroke-width:102.65567017"
         d="m 12785.11,13455.94 -804.821,-418.835 82.124,-188.886 229.949,106.762 -57.487,-730.908 254.586,82.124 -49.275,-615.921 295.649,114.975 57.486,-131.399 -172.461,-8.213 32.85,-459.897 -295.648,336.71 -106.762,-172.462 353.136,-435.259 164.248,147.823 -65.699,73.913 197.098,-8.212 -24.637,328.497 139.612,-320.285 197.099,82.124 -279.224,640.572 361.335,147.81 -459.884,394.198 287.436,98.55 -624.146,533.809 361.347,164.249 z m -960.858,-500.959 -566.645,-262.799 377.758,-993.693 599.51,246.359 z m 665.209,-156.037 262.798,-180.674 -271.011,-106.762 z m -788.395,-114.975 57.487,-114.973 -213.524,-98.551 -57.487,123.188 z m -517.371,-24.637 h -238.161 l 500.946,-1371.465 509.171,213.522 -8.211,-8.211 287.435,-706.271 197.099,82.124 -295.649,706.271 246.374,98.55 -82.125,213.523 -722.695,-295.648 z m 640.557,-254.586 57.487,-123.186 -213.524,-90.338 -57.487,114.975 z m 878.733,-123.186 254.586,-180.675 -271.011,-106.762 z m -763.758,-139.612 57.487,-123.187 -213.524,-98.535 -57.487,123.173 z m 1289.355,-287.423 -172.461,-106.762 287.421,-468.109 205.311,131.399 z m -1272.931,-550.234 -238.161,-16.424 82.125,-607.722 271.011,24.637 z"
         id="path2206" />
      <path
         inkscape:connector-curvature="0"
         style="fill:#dbca3d;fill-opacity:1;fill-rule:evenodd;stroke:none;stroke-width:102.65567017"
         d="m 16291.799,13135.654 -796.608,-706.27 1305.781,-648.77 164.235,870.506 -221.722,8.212 -98.55,-550.234 -747.333,353.136 509.172,427.048 z m -829.457,-985.493 -377.76,-845.87 1199.005,-542.021 418.836,829.457 z m 106.762,-270.998 837.67,-394.198 -221.736,-451.685 -821.246,377.773 z"
         id="path2208" />
      <path
         inkscape:connector-curvature="0"
         style="fill:#df3d3d;fill-opacity:1;fill-rule:evenodd;stroke:none;stroke-width:102.65567017"
         d="M 11249.394,9850.7 V 7625.1391 c 0,-484.5348 484.522,-1010.1318 1108.668,-1215.4432 328.498,-114.9606 689.846,73.9121 1199.004,-49.261 l 1609.628,2488.346 -665.196,303.8608 c 73.913,-385.9852 147.825,-771.9706 147.825,-771.9706 l -1626.052,377.7729 c -377.773,706.2711 -24.638,1092.256 -24.638,1092.256 z"
         id="path2210" />
      <path
         inkscape:connector-curvature="0"
         style="fill:#dbca3d;fill-opacity:1;fill-rule:nonzero;stroke:none;stroke-width:102.65567017"
         d="m 12308.787,8774.8689 v -796.5943 h 451.685 v -689.8462 h 804.807 V 6138.6987 h 1330.417 v 1149.7297 h 804.807 v 689.8462 h 369.561 v 796.5943 z"
         id="path2212" />
      <path
         inkscape:connector-curvature="0"
         style="fill:#df7900;fill-opacity:1;fill-rule:nonzero;stroke:none;stroke-width:102.65567017"
         d="m 12514.098,8594.1949 h 3358.866 v -468.0962 h -3358.866 z"
         id="path2214" />
      <path
         inkscape:connector-curvature="0"
         style="fill:#df7900;fill-opacity:1;fill-rule:nonzero;stroke:none;stroke-width:102.65567017"
         d="m 12908.296,7945.4247 h 2570.471 v -468.1098 h -2570.471 z"
         id="path2216" />
      <path
         inkscape:connector-curvature="0"
         style="fill:#df7900;fill-opacity:1;fill-rule:nonzero;stroke:none;stroke-width:102.65567017"
         d="m 13770.59,7288.4284 v -410.6226 h 895.157 v 410.6226 z m 0,-599.509 v -410.609 c 172.462,-90.3371 336.71,-197.099 451.685,-344.9231 139.612,147.8241 295.649,262.7985 443.472,344.9231 v 410.609 z"
         id="path2218" />
      <path
         inkscape:connector-curvature="0"
         style="fill:#df3d3d;fill-opacity:1;fill-rule:evenodd;stroke:none;stroke-width:102.65567017"
         d="m 13302.48,8783.0813 h 1814.939 c 0,0 262.799,262.7986 262.799,747.3329 0,648.7708 -451.672,780.1708 -730.895,1100.4548 -295.649,344.924 -410.623,624.148 -410.623,624.148 l -336.711,-435.261 c -65.699,-722.695 410.624,-1034.755 238.161,-1149.7298 -164.249,-114.9747 -377.773,542.0078 -451.685,1034.7558 -49.274,-98.55 -402.41,-558.447 -344.923,-845.8692 65.7,-377.7732 476.323,-574.8718 377.773,-689.8461 -114.974,-147.8242 -468.096,287.4356 -533.795,591.297 -246.374,-369.5604 -82.125,-722.6963 114.96,-977.2824 z"
         id="path2220" />
    </g>
    <g
       transform="matrix(0.42149853,0,0,0.42149853,4996.9379,-2215.6096)"
       id="g16"
       style="fill:#000000;stroke:none">
      <path
         style="fill:#db1c04;fill-opacity:1;stroke-width:0.0561998"
         d="m 1851.3438,1807.457 -1.6856,3.3164 -1.6309,3.3164 -5.3945,1.7969 c -4.3274,1.4612 -5.3381,1.9686 -5.1133,2.6992 0.562,1.9108 1.9661,13.0941 2.8653,22.5918 0.5058,5.3952 1.6292,15.3991 2.416,22.1993 1.2364,10.3969 1.5184,15.2852 1.6308,30.7402 l 0.2246,18.3789 -6.3515,1.9668 c -10.2284,3.1472 -19.6696,5.6194 -31.0781,8.1484 -15.3426,3.3158 -19.7263,4.3266 -24.1661,5.6192 -7.0249,2.0232 -17.1401,1.3502 -36.248,-2.3028 -19.7823,-3.7654 -30.6287,-1.8557 -39.5645,7.0801 -3.1471,3.1472 -3.2595,3.3731 -2.9785,5.6211 0.5058,3.372 2.8662,11.3514 5.2266,17.3086 1.124,2.8662 6.912,15.3431 12.8691,27.707 11.8582,24.6717 12.6447,26.4128 17.6465,38.9453 9.8912,24.8404 17.871,40.24 26.0762,50.4122 4.496,5.5637 14.0507,14.8925 15.2871,14.8925 3.4844,0 15.0626,-3.8766 31.7539,-10.5644 12.5326,-5.0018 25.2887,-9.3857 29.2227,-10.0039 l 2.08,-0.3379 0.3926,11.4082 c 0.1686,6.2944 0.5628,14.8939 0.8438,19.0527 0.3372,4.1588 0.5625,24.2772 0.5625,44.6778 0.056,20.4005 0.3362,41.1384 0.6172,46.0839 1.3488,20.9626 4.7773,40.6895 10.0039,56.875 l 1.4609,4.6641 h 3.4844 c 3.372,0 3.541,-0.056 9.2734,-4.1582 7.6432,-5.4514 17.703,-13.6007 25.9082,-20.9629 l 6.6309,-5.9004 0.1133,-80.9844 0.1679,-80.9843 9.5547,-1.8536 c 5.2828,-1.0115 10.7888,-1.7992 12.25,-1.8554 1.7984,0 3.7106,-0.5049 5.9024,-1.6289 11.6895,-5.8448 26.4126,-7.0268 46.6445,-3.711 10.3408,1.686 12.9834,1.7425 17.5918,0.2813 6.8002,-2.0794 10.2842,-5.1138 13.1504,-11.4082 3.8778,-8.43 2.4167,-17.4774 -4.2149,-26.3008 l -2.1914,-2.9219 2.584,-2.8672 c 1.405,-1.5736 6.9141,-7.8108 12.1406,-13.8242 12.645,-14.5557 16.3533,-18.2658 20.0625,-20.289 5.5638,-2.9786 9.329,-6.4065 11.1836,-10.1719 1.5736,-3.091 1.7422,-3.9897 1.7422,-8.6543 0,-6.5754 -1.0685,-10.0613 -5.5644,-18.3789 l -3.4844,-6.4063 -8.541,-7.25 c -21.5246,-18.3773 -31.529,-25.6263 -43.4434,-31.5273 l -7.418,-3.6524 -7.4746,2.8086 c -12.5325,4.6646 -22.6492,7.4184 -38.4414,10.4532 -6.9687,1.3488 -25.796,4.2714 -27.4258,4.2714 -0.562,0 -0.8982,-0.9553 -1.123,-2.9785 -0.2248,-1.5736 -0.6179,-4.7198 -0.9551,-6.8554 -0.7306,-4.6646 -0.1121,-9.1617 2.0235,-14.8379 2.0232,-5.3952 5.114,-9.7777 11.1836,-15.791 4.6083,-4.5522 5.3378,-5.5636 5.3378,-7.1934 0,-4.7208 -9.3846,-18.3226 -17.0839,-24.8418 -8.5424,-7.1936 -22.8177,-15.1165 -32.9336,-18.2637 -5.6762,-1.7422 -16.3534,-3.6543 -20.5684,-3.6543 z m 1033.5624,0 -8.9355,9.1055 c -8.992,9.1606 -23.5476,25.9072 -41.8125,47.9375 -19.7261,23.8287 -38.8904,43.3859 -53.0527,54.2324 -1.0678,0.7868 -1.0677,0.7316 -0.7305,-2.3594 1.0116,-8.4861 7.1931,-20.0628 19.1074,-35.7988 5.6762,-7.4184 5.7324,-7.7004 3.4844,-15.5683 -1.967,-6.8564 -5.2827,-13.15 -10.4531,-20.0625 -5.5638,-7.4184 -11.4085,-12.8707 -17.4219,-16.2989 -7.6432,-4.3274 -11.2972,-4.8327 -12.084,-1.6855 -0.3372,1.1802 -1.4598,1.9668 -6.293,4.2148 -12.5887,5.9572 -27.3702,7.6991 -42.207,4.9453 -4.7208,-0.843 -4.5508,-0.9548 -4.5508,2.8106 0,3.0348 0.3928,4.1028 3.6524,10.7344 6.2944,12.4763 16.7471,29.0556 23.0976,36.6425 1.2926,1.5174 1.3496,2.0219 1.3496,8.5411 v 6.9687 l -3.2031,0.4512 c -1.7984,0.2248 -6.1821,0.4488 -9.7226,0.3926 -5.3952,0 -7.0251,-0.2252 -9.7227,-1.293 -1.7984,-0.6744 -3.9339,-1.8549 -4.7207,-2.5293 -1.405,-1.1802 -1.4057,-1.2928 -0.8437,-5.002 1.2363,-7.8117 -1.4055,-15.4546 -7.0254,-20.625 -5.058,-4.6083 -17.5342,-10.0601 -26.8633,-11.7461 -1.8546,-0.3372 -6.7431,-0.8424 -10.8457,-1.1796 l -7.4746,-0.5625 -3.6543,1.8554 c -2.5852,1.2364 -3.5959,2.0225 -3.3711,2.6407 0.1686,0.4495 2.0792,6.0146 4.2148,12.3652 7.306,21.2997 11.9151,43.6671 15.2871,74.1836 l 1.1797,10.959 -1.7422,20.8496 c -2.4166,29.0553 -2.2479,52.9404 0.5059,75.4765 0.6182,4.777 0.9542,8.8232 0.8418,8.9356 -0.7306,0.7306 -26.4688,10.3405 -37.9336,14.1621 -14.1062,4.7208 -22.8174,7.0814 -33.1582,8.9922 -3.5406,0.6182 -7.0248,1.2923 -7.6992,1.4609 -1.2364,0.2248 -1.293,0.5065 -1.293,5.5645 v 5.3379 l 7.1934,5.7324 c 16.6913,13.3755 30.2921,20.4018 41.6445,21.582 1.9108,0.2248 3.4277,0.4497 3.4277,0.5059 0,0.056 -1.6287,3.4838 -3.5957,7.6426 -5.339,11.2399 -6.7449,15.567 -6.3515,19.3886 0.6182,6.0134 5.3946,11.8027 15.623,18.7715 2.7538,1.9108 5.5081,3.3711 6.2949,3.3711 1.9108,0 7.5874,-4.8881 10.5098,-9.0469 5.339,-7.6431 6.4633,-12.59 6.0137,-26.3027 -0.2248,-7.3622 -0.6747,-11.0716 -2.0235,-17.7031 -0.9554,-4.6084 -1.7422,-8.8232 -1.7422,-9.4414 0,-0.7868 3.3162,-2.6415 13.9942,-7.9805 l 13.9922,-7.0254 0.3379,2.6426 c 1.967,15.5111 3.1464,42.2618 3.1464,72.1601 v 24.0528 h -8.7109 -8.7109 v 3.3164 3.3164 l 3.9355,2.8652 c 7.4184,5.3952 13.1496,12.1957 15.791,18.7149 1.1802,2.8661 1.574,3.2603 4.7774,4.8339 l 3.4844,1.7422 2.6972,-1.7422 c 1.5174,-0.9554 4.2709,-2.9787 6.1817,-4.4961 3.3719,-2.7537 5.2275,-4.7207 19.0527,-20.9062 l 7.1934,-8.4297 -0.3946,-11.5215 c -0.6182,-18.7707 -2.6974,-43.0502 -5.4512,-65.1367 -0.6182,-5.0018 -1.0674,-9.3284 -0.955,-9.6094 0.1124,-0.281 2.0235,0.5629 4.2715,1.8555 2.8099,1.686 5.9019,4.27 9.8359,8.3164 7.9242,8.149 13.3743,11.5773 21.748,13.7129 3.5406,0.8992 10.7916,0.8436 15.3438,-0.168 l 1.6289,-0.3379 -0.3926,2.7539 c -0.6182,4.6646 -2.5864,11.5211 -4.8906,17.1973 -1.967,4.8894 -2.1347,5.6771 -1.6289,7.5879 1.2926,4.6646 5.5633,9.834 12.6445,15.0605 4.1026,2.9786 4.3266,3.0918 7.8672,3.0918 h 3.6543 l 2.1914,-3.2597 c 4.777,-6.9688 7.363,-13.7687 8.8242,-22.8731 0.6744,-4.2712 2.5274,-20.8515 2.5274,-22.5937 0,-0.281 -1.4614,-1.2351 -3.2598,-2.0781 l -3.2578,-1.5743 -3.541,-10.6211 -3.4844,-10.623 h -8.7109 -8.6543 v 5.0586 c 0,2.7538 -0.1127,5.0586 -0.2813,5.0586 -0.1124,0 -1.686,-0.8999 -3.4844,-2.0801 -10.8465,-6.9126 -21.0195,-9.0489 -39.4531,-8.3183 -8.9358,0.3371 -9.7224,0.2809 -9.4414,-0.5059 1.7984,-4.6646 3.2031,-13.544 3.2031,-20.4004 v -3.5391 l 3.3731,-1.6875 c 5.058,-2.5852 10.9581,-4.3822 16.5781,-5.0566 l 5.0586,-0.6191 7.418,-5.6192 c 12.6449,-9.554 20.0628,-20.0073 19.1074,-26.9199 -0.4496,-3.3158 -2.6406,-7.193 -5.6191,-9.8906 -2.5852,-2.3042 -2.8664,-2.4174 -6.7442,-2.586 l -4.0469,-0.1679 0.1133,-21.918 c 0.1124,-22.8733 0.6745,-35.0133 2.2481,-49.9063 l 0.8984,-8.8222 h 3.9902 c 8.2614,-0.056 15.792,-2.5856 25.627,-8.7676 12.6449,-7.9242 27.5938,-20.007 33.832,-27.3691 6.0134,-7.025 18.7705,-19.7836 35.5742,-35.5196 23.0982,-21.6369 35.4066,-34.5067 43.1621,-45.0722 l 2.1348,-2.9219 -2.0781,-3.2031 c -2.6414,-4.215 -7.5311,-9.33 -11.7461,-12.3086 -7.1374,-5.058 -16.6359,-8.711 -22.7617,-8.711 z m -1929.09761,6.8008 -5.05859,5.2266 c -2.75379,2.8662 -6.91305,7.7551 -9.27344,10.9023 -8.26137,11.0714 -12.13793,18.2097 -23.99609,43.9492 -7.47458,16.2418 -12.08277,25.4024 -16.41016,32.877 -2.02319,3.4282 -4.10338,8.4301 -6.57617,15.4551 -6.35058,18.4335 -10.05882,26.0198 -15.56641,32.0332 -6.35057,6.8001 -16.07368,12.5879 -24.22265,14.33 -21.97413,4.7208 -24.78458,5.6766 -28.94336,10.004 -2.75379,2.7537 -5.2258,7.4184 -6.125,11.4648 -0.6182,2.5852 -0.56251,2.9234 1.17969,6.3516 4.77698,9.4977 11.97059,18.6582 23.66015,30.123 6.68778,6.5192 19.50213,16.8591 22.76172,18.3203 0.8992,0.4496 7.52934,-1.4599 31.18945,-9.0469 58.0544,-18.4897 92.89945,-28.7184 126.39457,-37.1484 18.4897,-4.6646 39.5083,-9.4993 40.0703,-9.1621 0.2248,0.1124 0.3926,0.8441 0.3926,1.6309 0,1.0678 0.2818,1.3496 1.3496,1.3496 1.1802,0 1.7986,0.7292 3.7656,4.5508 2.81,5.3389 7.4172,10.2285 11.8008,12.4765 4.5522,2.3042 9.5551,2.1926 14.8379,-0.3926 7.4183,-3.5406 16.3533,-11.3529 21.8047,-18.9961 3.0909,-4.2711 8.6552,-14.8357 11.0156,-20.7929 2.0232,-4.9456 2.191,-8.0933 0.8984,-15.0059 -1.9108,-9.8912 -6.7439,-21.2439 -12.1953,-28.4375 -11.1276,-14.6681 -32.7085,-29.7305 -48.332,-33.7207 -9.273,-2.3042 -21.0185,-2.9773 -28.0996,-1.5723 l -1.7422,0.336 0.3945,4.6094 c 0.6182,8.3737 4.7199,19.7819 10.3398,28.83 1.6298,2.5852 2.9219,4.8905 2.9219,5.1153 0,1.0678 -25.7385,7.6989 -40.4629,10.3965 -15.73591,2.8661 -52.37886,7.4745 -55.86325,6.9687 -1.1802,-0.1686 -0.61728,-1.3497 7.58789,-15.0625 17.81534,-30.0107 25.90654,-41.7002 31.91992,-46.3086 9.55394,-7.3622 14.78234,-16.579 16.41214,-28.8867 0.6182,-4.496 0.5617,-6.0128 -0.2813,-11.6328 l -1.0117,-6.5196 -2.8105,-2.416 c -3.5968,-3.1472 -10.39739,-7.1378 -15.73637,-9.2734 -2.30419,-0.9554 -8.59896,-2.9787 -13.99414,-4.4961 -10.62177,-3.0348 -18.71458,-5.7882 -21.91797,-7.418 z m 1932.50781,66.3496 c -1.5186,0.034 -2.2154,0.2622 -2.8476,0.7539 -1.686,1.1802 -12.1954,14.161 -27.1446,33.4375 -6.6316,8.4862 -15.0623,19.2217 -18.7715,23.8301 -3.7654,4.5522 -8.5417,10.4519 -10.6211,13.0371 -6.2381,7.6994 -13.5442,12.7579 -24.166,16.7481 -7.4745,2.81 -13.9935,6.5755 -17.6465,10.2285 -3.9339,3.8778 -3.9918,4.1589 -2.6992,9.7226 2.0232,8.5424 8.3179,16.9727 16.9727,22.7051 6.9126,4.5522 18.6583,10.2831 27.1445,13.2617 4.496,1.5174 8.8797,3.0359 9.7227,3.3731 l 1.5742,0.6172 -3.4844,5.1718 c -5.5076,8.2614 -12.5886,16.3537 -18.1523,20.8497 -2.0232,1.6297 -2.5295,1.7413 -5.7891,1.6289 -4.4398,-0.2248 -7.4176,1.069 -11.3516,4.8906 -5.5075,5.3952 -13.5449,17.7586 -13.5449,20.8496 0,1.967 3.5963,8.8798 6.4063,12.4766 3.8216,4.7769 10.0599,9.7217 15.9609,12.5878 l 5.1699,2.5293 5.4532,-0.6171 c 7.9803,-0.8992 16.2965,-3.8778 24.2207,-8.711 l 2.3613,-1.4629 v 56.2012 56.2559 h -5.3399 -5.3379 v 3.3711 3.373 l 3.8204,3.5957 c 4.3835,4.215 6.7455,7.8679 9.6679,15.1738 3.1472,7.868 5.6748,11.1276 9.7774,12.7012 1.124,0.3934 1.9684,0.1133 4.666,-1.6289 4.1588,-2.6976 9.8907,-8.487 12.1387,-12.3086 1.2926,-2.0794 2.8099,-3.5963 5.2265,-5.1699 4.6646,-2.9786 10.3957,-9.216 12.5313,-13.5996 2.5852,-5.2266 3.4292,-10.7344 3.373,-21.6934 0,-5.1704 -0.2248,-10.7906 -0.5058,-12.4766 -0.281,-1.6859 -0.7878,-7.755 -1.125,-13.375 -0.3372,-5.6761 -1.3474,-16.9731 -2.3028,-25.0097 -3.0348,-26.0767 -2.8096,-42.0933 0.7871,-54.7383 l 1.2364,-4.3828 4.7754,-0.1133 c 14.2747,-0.4496 28.1577,-2.9785 35.0703,-6.4629 4.7208,-2.3604 10.0024,-7.8113 12.3066,-12.6445 1.686,-3.5968 1.7984,-4.1591 1.7422,-10.0039 -0.056,-4.9456 -0.394,-7.1934 -1.5742,-11.1836 -2.1356,-7.1936 -6.463,-15.2297 -10.4531,-19.6133 -5.7324,-6.182 -16.0715,-12.0837 -23.9395,-13.5449 l -3.6543,-0.6192 3.8223,-5.4511 c 2.0794,-2.9786 6.0129,-8.3164 8.6543,-11.8008 8.1489,-10.6218 14.725,-22.3676 16.5234,-29.3926 2.0794,-8.2614 -0.3375,-18.3222 -6.0137,-24.7851 l -1.7988,-2.0235 -3.709,0.3379 c -6.6316,0.6182 -14.4426,3.6529 -21.0742,8.2051 -8.0928,5.6762 -18.6581,18.2098 -30.3477,36.25 -8.0365,12.4201 -11.5208,17.5328 -13.4316,19.7246 l -1.7422,1.9668 -6.9707,-7.0234 -6.9687,-7.0254 17.3671,-17.8711 c 26.976,-27.8189 52.5461,-53.447 61.6504,-61.877 4.5522,-4.1588 8.2613,-7.7552 8.2051,-7.9238 -0.056,-0.6182 -19.8949,-13.432 -24.6719,-15.9609 -6.7439,-3.5968 -11.0146,-4.8894 -17.3652,-5.2266 -1.6649,-0.1054 -2.872,-0.1549 -3.7832,-0.1348 z m -181.7891,42.6211 c 0.3372,0 4.4394,1.5736 9.1602,3.4844 8.43,3.4844 8.712,3.541 13.8262,3.541 h 5.1699 l -0.1113,8.7109 -0.17,8.711 h -14.0488 -14.0508 l -0.1679,-12.252 c -0.056,-7.5869 0.055,-12.1953 0.3925,-12.1953 z m -737.164,17.4785 c 0.7868,-0.056 2.0225,0.6178 3.1465,1.6856 l 1.7422,1.6875 -2.4727,7.1367 c -1.405,3.934 -4.1018,12.4203 -6.125,18.9394 -1.967,6.463 -4.7771,15.1733 -6.2383,19.3321 l -2.5859,7.5312 -5.6758,2.6407 c -6.8564,3.2595 -12.533,5.0594 -21.4688,6.914 -6.0695,1.2926 -21.8618,3.8217 -24.6718,3.9903 -1.124,0.056 -1.1231,-0.2818 -1.1231,-29.7305 v -29.7852 l 32.0332,-5.1152 c 17.6468,-2.8662 32.6527,-5.1704 33.4395,-5.2266 z m -124.7637,24.6719 -0.1113,26.2461 -0.1699,26.1895 -12.252,3.8203 c -14.3309,4.4959 -21.1298,6.0137 -28.2109,6.5195 l -5.2266,0.3379 -0.5059,-2.4727 c -3.2033,-15.0615 -9.8908,-49.9627 -9.666,-50.1875 0.3934,-0.3934 52.4894,-10.3403 54.625,-10.3965 z m 862.1172,6.959 c 0.093,-0.013 0.197,0.017 0.3164,0.066 0.5058,0.2248 5.6758,1.3495 11.4082,2.5859 5.7324,1.1802 11.6896,2.5845 13.207,3.1465 l 2.7539,1.0684 0.17,7.0234 0.1679,7.082 -2.1347,0.6172 c -1.1802,0.3372 -6.4067,1.5182 -11.6895,2.586 -5.2266,1.0678 -10.6785,2.3609 -12.0273,2.8105 -1.3488,0.5058 -2.5302,0.8985 -2.6426,0.8985 -0.1124,0 -0.2246,-6.3499 -0.2246,-14.1055 0,-11.5561 0.044,-13.6902 0.6953,-13.7793 z m 13.6367,52.6133 h 14.3867 l -0.1679,8.8222 -0.17,8.7676 -15.6796,5.2266 c -8.6548,2.9224 -15.7919,5.1714 -15.9043,5.1152 -0.056,-0.1124 0.6183,-6.1272 1.5175,-13.3769 0.8992,-7.2498 1.6856,-13.4875 1.6856,-13.8809 0,-0.5058 3.2607,-0.6738 14.332,-0.6738 z m 175.1953,0.051 c 0.2845,-0.055 1.0754,0.9895 2.8457,3.7714 1.3488,2.0794 5.2261,6.8553 8.6543,10.5645 l 6.1817,6.7441 -25.0645,5.002 -26.1328,5.2265 c -0.6744,0.1686 -0.9568,0.056 -0.6758,-0.3378 0.1686,-0.3372 6.0137,-5.1691 12.9824,-10.7891 10.959,-8.8234 21.0762,-18.322 21.0762,-19.7832 0,-0.2389 0.038,-0.38 0.1328,-0.3984 z m -1859.5,24.9101 c -4.5278,0.034 -8.768,0.23 -11.5078,0.6094 -11.4085,1.6298 -27.37066,4.8326 -38.27342,7.6426 -6.12578,1.5736 -14.9487,3.8784 -19.61328,5.0586 -4.60839,1.2364 -11.85684,2.6982 -16.01563,3.3164 -4.15878,0.6182 -8.59954,1.4045 -9.83594,1.6855 -1.23639,0.281 -6.182,0.7878 -10.95898,1.125 -11.68956,0.7868 -23.43471,2.5289 -29.05469,4.2149 -7.75557,2.3603 -13.03861,6.9118 -16.46679,14.1054 -3.48439,7.4184 -1.40599,16.5797 11.57617,50.6367 7.30597,19.2204 7.92596,21.0747 11.18554,33.3262 2.75379,10.3408 7.13658,22.1985 11.35157,30.5723 4.94558,9.8349 10.17273,16.5792 17.2539,22.1992 4.04639,3.2596 11.35112,7.3613 13.03711,7.3613 0.6182,0 2.58637,-0.5048 4.38477,-1.123 4.60838,-1.5736 13.82388,-3.7653 20.00586,-4.7207 7.36217,-1.1802 15.62461,-1.8556 34.00191,-2.8672 18.3774,-0.9554 20.681,-1.1792 25.5704,-2.3594 2.5851,-0.6182 8.6543,-0.9558 21.3554,-1.293 16.0732,-0.3372 18.04,-0.5049 21.6367,-1.6289 7.5308,-2.4166 15.8496,-7.868 19.334,-12.7011 5.7324,-7.9804 7.3617,-15.7378 5.1699,-24.3926 -1.3487,-5.3952 -2.9793,-8.4296 -6.0703,-11.4082 -2.6414,-2.529 -8.5419,-5.7883 -12.1386,-6.6875 -2.0794,-0.5058 -2.6413,-0.8998 -2.4727,-1.5742 0.1686,-0.5058 1.2929,-4.4383 2.5293,-8.7657 1.2926,-4.3273 2.6973,-8.8232 3.2031,-9.9472 0.4496,-1.1802 0.8438,-3.0347 0.8438,-4.2149 0,-4.0464 2.9773,-13.4319 9.0469,-28.6621 4.2149,-10.6217 5.1716,-14.8939 4.8906,-22.0312 -0.3372,-8.149 -1.687,-11.5763 -6.3516,-16.0723 -9.6102,-9.273 -24.6145,-17.2543 -38.2148,-20.2891 -3.5125,-0.7727 -11.856,-1.1712 -19.4024,-1.1152 z m -22.0644,59.3926 c 1.6623,0.047 1.8318,0.2681 1.6211,0.9004 -0.6182,2.1356 -2.0802,14.3323 -2.586,22.0879 -0.281,4.496 -0.5625,13.712 -0.5625,20.5683 v 12.3653 l -11.0703,2.9218 c -16.91612,4.496 -21.41333,5.2815 -28.0449,5.0567 -3.70919,-0.1124 -6.01266,-0.4493 -6.63086,-0.9551 -1.6298,-1.3488 -3.20382,-7.8113 -3.54102,-14.3867 -0.1686,-3.653 -0.72946,-7.6437 -1.34765,-9.7793 -1.8546,-6.1258 -1.06844,-13.5987 1.91015,-18.7129 0.7868,-1.405 2.97939,-3.9351 4.83399,-5.6211 6.29437,-5.8448 20.90533,-12.082 31.24609,-13.3184 2.81,-0.3372 5.6761,-0.7313 6.4629,-0.8437 0.7868,-0.1124 3.2598,-0.2251 5.5078,-0.2813 0.9273,-0.014 1.6471,-0.018 2.2012,0 z m 1915.2636,2.9394 c -1.2544,-0.027 -2.4596,0.04 -3.5976,0.209 -1.5174,0.2248 -1.5723,0.3949 -1.5723,3.4297 0,1.7422 0.7853,7.2502 1.7969,12.252 l 1.7988,9.0468 -3.541,12.252 c -2.8662,10.1722 -3.3717,12.3644 -2.6973,12.7578 2.3604,1.2926 7.7563,5.7324 9.0489,7.4746 2.1918,2.8662 4.2706,7.0813 5.9004,11.9707 l 1.4609,4.3262 6.1816,0.3945 c 3.4282,0.2248 7.8128,0.1673 9.836,-0.1699 8.2052,-1.2364 16.4671,-7.3619 18.9961,-14.1621 4.5522,-12.083 -3.4295,-35.8549 -15.8496,-47.4883 -7.7697,-7.2779 -18.981,-12.1039 -27.7618,-12.293 z"
         transform="matrix(17.793656,0,0,-17.793656,-12125.323,47961.281)"
         id="path4"
         inkscape:connector-curvature="0" />
    </g>
  </g>
</svg>
