<?xml version="1.0" encoding="UTF-8" standalone="no"?>
<svg xmlns="http://www.w3.org/2000/svg" width="800" height="427">
  <path fill="#005936" d="M0 0v142h800V0Z"/>
  <path fill="#005733" d="M0 141c6.19396 2.599 15.3141 1 22 1h778c-6.194-2.599-15.314-1-22-1H0z"/>
  <path fill="#8cb4a5" d="M0 142c6.19396 2.599 15.3141 1 22 1h778c-6.194-2.599-15.314-1-22-1H0z"/>
  <path fill="#fff" d="M0 142v142h800V142Z"/>
  <path fill="#a3a3a3" d="M0 284c6.19395 2.599 15.3141 1 22 1h778c-6.194-2.599-15.314-1-22-1H0z"/>
  <path fill="#030303" d="M0 285c6.19396 2.599 15.3141 1 22 1h778c-6.194-2.599-15.314-1-22-1H0z"/>
  <path d="M0 284v143h800V284Z"/>
</svg>