<?xml version="1.0" encoding="UTF-8" standalone="no"?>
<svg xmlns:rdf="http://www.w3.org/1999/02/22-rdf-syntax-ns#" xmlns="http://www.w3.org/2000/svg" height="333" width="500" version="1.1" xmlns:cc="http://creativecommons.org/ns#" xmlns:dc="http://purl.org/dc/elements/1.1/" viewBox="0 0 499.99998 333.00001">
	<rect opacity="0.98" height="333" width="500" y="0" x="-.000061035" fill="#d20e0e"/>
	<path d="m27.896 29.938v56.16h23.484v-13.994c21.765 14.611 43.561 29.208 68.943 42.174l8.08-19.7c-24.54-12.459-33.624-20.164-45.705-28.789 14.248-13.476 11.353-35.853-12.752-35.853zm23.453 14.166h12.215c7.174 0 8.0351 6.6591 3.7949 10.67h-16.01z" fill-rule="evenodd" transform="translate(-.000015259)" stroke="#ffffff" stroke-width="4" fill="#000000"/>
	<path d="m28.655 134.58h66.75c8.7602-7.8254 14.056-14.489 19.643-21.25h-34.115v-13.75h-20v-12.143h-33.036v45.283c0.27153 1.2098-0.3563 1.909 0.75839 1.8596z" fill-rule="evenodd" stroke="#ffffff" stroke-width="4" fill="#000000"/>
	<path opacity="0.98" d="m231.17 24.31-4.0488 11.705-14.426-4.9883-6 17.348 14.426 4.9902-24.973 72.211 18.791 6.498 24.973-72.211 13.082 4.5254 6-17.35-13.082-4.5235 4.0488-11.707-18.791-6.4981z" stroke="#ffffff" stroke-linecap="round" stroke-width="4" fill="#000000"/>
	<path d="m127.77 133.79c29.427 1.4813 58.07 7.975 85.232 23.928-36.188 20.712-72.639 15.394-109.16 3.0313 29.642-28.366 43.709-56.928 54.107-84.631h-25.508c-5.4475 23.647-32.754 57.607-52.779 71.498-6.088-3.0115-10.416-8.8993-12.52-13.022h-39.25c0 1.8435 1.0737 3.8923 2.547 5.9218 6.2616 8.0721 14.022 16.49 20.937 22.758-5.3804 5.5777-14.671 8.0282-23.484 10.859v23.664c16.917-3.8749 33.435-9.5459 48.93-19.82 20.965 9.9642 41.835 20.039 74.643 16.07l4.6426-9.6426c32.425 2.4364 56.539-5.8957 75.203-18.226 6.162-24.106 11.738-44.588 35.988-69.934 7.2992-0.1853 13.121-6.1536 13.125-13.455 0.00008-7.4375-6.0292-13.467-13.467-13.467-7.4375-0.0001-13.467 6.0293-13.467 13.467 0.00062 3.5126 1.3736 6.8859 3.8262 9.4004-25.408 25.371-66.748 16.93-70.232-19.826 5.6854-1.7119 9.5787-6.9453 9.584-12.883 0.00008-7.4368-6.0281-13.466-13.465-13.467-7.4375-0.0001-13.467 6.0293-13.467 13.467 0.003 4.9954 2.7715 9.5785 7.1914 11.906-7.9438 15.683-17.773 25.865-29.648 29.889" fill-rule="evenodd" stroke="#ffffff" stroke-width="4" fill="#000000"/>
</svg>
