<?xml version="1.0" encoding="UTF-8"?>
<svg version="1.0" viewBox="0 0 300 200" xmlns="http://www.w3.org/2000/svg" xmlns:cc="http://creativecommons.org/ns#" xmlns:dc="http://purl.org/dc/elements/1.1/" xmlns:rdf="http://www.w3.org/1999/02/22-rdf-syntax-ns#">
<metadata>
<rdf:RDF>
<cc:Work rdf:about="">
<dc:title>Clipart by Cedric de Launois - Belgium - Flanders</dc:title>
<dc:description/>
<dc:subject>
<rdf:Bag>
<rdf:li/>
<rdf:li>0x8f45c80</rdf:li>
<rdf:li>europe</rdf:li>
<rdf:li>belgium</rdf:li>
<rdf:li>flag</rdf:li>
<rdf:li>sign</rdf:li>
</rdf:Bag>
</dc:subject>
<dc:publisher>
<cc:Agent rdf:about="http://www.openclipart.org">
<dc:title>Cedric de Launois</dc:title>
</cc:Agent>
</dc:publisher>
<dc:creator>
<cc:Agent>
<dc:title>Cedric de Launois</dc:title>
</cc:Agent>
</dc:creator>
<dc:rights>
<cc:Agent>
<dc:title>Cedric de Launois</dc:title>
</cc:Agent>
</dc:rights>
<dc:date/>
<dc:format>image/svg+xml</dc:format>
<dc:type rdf:resource="http://purl.org/dc/dcmitype/StillImage"/>
<cc:license rdf:resource="http://web.resource.org/cc/PublicDomain"/>
<dc:language>en</dc:language>
</cc:Work>
<cc:License rdf:about="http://web.resource.org/cc/PublicDomain">
<cc:permits rdf:resource="http://web.resource.org/cc/Reproduction"/>
<cc:permits rdf:resource="http://web.resource.org/cc/Distribution"/>
<cc:permits rdf:resource="http://web.resource.org/cc/DerivativeWorks"/>
</cc:License>
</rdf:RDF>
</metadata>
<defs>
<clipPath id="b">
<path d="m50.52 35.249h85.039v62.362h-85.039v-62.362z"/>
</clipPath>
<clipPath id="a">
<path d="m61.52 40.607h50.666v49.504h-50.666v-49.504z"/>
</clipPath>
</defs>
<rect x="100" y="2.656e-7" width="200" height="200" fill="#ff0" fill-rule="evenodd" stroke-width="1pt"/>
<g transform="matrix(.98288 0 0 .98288 58.517 11.208)">
<path d="m122.99 49.406c-0.8788-1.6099-8.0625-8.4576-13.98-8.0055-1.4115 0.16484-6.3658-3.4227-6.2133-8.364 0.11574-3.9295 1.9454-4.8123 6.9302-5.4963 1.5951-0.33473 5.033 2.1844 5.1488 4.6636 0.0874 1.6908-2.331 5.2359-1.6764 5.7317 2.2458 1.9044 8.0098 5.4667 10.395 8.7152 0.46181 0.59891 0.14792 1.2704 0.11948 1.8032-0.0582 1.2106-0.28192 1.5893-0.7242 0.95224z" fill="#f00" fill-rule="evenodd" stroke="#000" stroke-width=".38235pt"/>
<path d="m193.15 10.429c-7.6282-0.02722-20.063 5.1689-21.029 19.596-0.45125 6.5164-1.8019 16.085-4.6121 22.415-0.31564-1.2409-0.64405-2.5968-0.66911-4.0506-0.0356-0.5578-2.3538-0.49358-2.0193-0.84834 0.93164-0.80885 1.6853-1.5588 1.3502-4.7316-2.7413 2.0496-5.2384 1.5255-5.4127 0.68107-0.0115-2.1847-0.37434-8.0082 0.68106-8.113 1.9031-0.35806 9.6615-4.2681 4.3971-10.312-0.44427-0.49414 0.31994 5.2437-3.5487 5.4127-0.82396 0-2.203-1.4144-0.17923-3.5487 2.2464-2.3803 2.1036-9.7097-1.3502-13.514-0.0761-0.07996-0.19679-0.11787-0.37041-0.10754-1.2154 0.07233-4.5875 2.0871-6.727 2.2941-6.2854 0.60827-18.453-0.61623-19.094 0.34651-3.9622 5.7809-9.9631 5.3161-12.665 6.0818-0.67727 0.1919-0.60636 3.0085-0.51378 4.3971 0.0201 0.30122 1.0415-0.28995 0.84834 0.66912 1e-5 0.83882-0.60165 0.59388-0.84834 1.5175-0.26458 1.6231 0.28818 6.1971-0.50184 7.0974-0.61791 0.89574-0.16738 2.3856 1.0156 2.8796 0.78024 0.21435 0.0381-2.2835 3.2022-0.68106 1.1237 0.6012 2.6878 2.4284 2.7123 3.716 0.11662 6.454-9.1089 10.462-10.479 8.7941-1.2614-1.8467-4.3349-5.8355-7.7785-5.7472-2.041 0.058-5.3558 3.207-5.4007 5.7472-8e-3 0.37788-0.44954 1.2393-1.0634 2.2941-0.10175-0.22792-0.25438-0.44009-0.46599-0.60938-8.7007-6.825-8.3127-11.943-8.2803-18.245 0.18561-3.4055 4.9665-3.5104 4.3971-6.5956-0.46385-2.3752-4.798-5.5745-8.4476-5.568-1.5838 3e-3 -3.3246 0.99-3.0469 3.2022 0.0494 1.0048-1.6856 0.73562-1.6847 0.34651 0.17182-1.2489-0.35436-3.9747 1.0156-4.7316 0.60195-0.37935-0.94733-1.6184-1.6967-1.6967-3.0245-0.31599-8.5527-1.1477-9.6305 0.51379-0.51349 0.6226-0.26536 4.1517 0.68107 4.3851 0.93038 0.19468-0.08367 3.3927-0.33456 2.7123-1.7542-4.468-3.9594-3.6293-5.4127-2.5331-1.5621 1.0555-4.7486 3.7499-4.3971 5.7353 0.38679 2.3702-0.05694 4.8416 6.7629 4.5643 0.63056-0.02629 0.14054 1.5373-0.33456 1.864-1.3273 0.91255-3.2405 1.3964-4.8392 1.5175-0.14746 3.3148-0.62087 10.056 4.8392 10.144 1.8878-0.05193 2.1751-0.95038 2.8676-1.864 0.45333-0.48076 1.0678-0.82197 2.3658-0.33456-1.6225 3.9191-3.365 4.4896-8.2803 4.3851 0.1839 1.2873 3.7901 4.8196 8.7941 4.3971 0.34696 1.3801-3.5046 5.5022-4.2298 3.3814-0.23968-0.75677-1.3073 0.49987-1.864 1.3502 0.72567 1.2901 4.0557 3.255 4.7316 3.716 0.36741 0.33408-2.636 0.56161-5.0662-0.66912 1.3002 8.625 6.4433 7.9269 9.7978 7.7665 1.0111-0.04026 0.11195 1.181-2.0193 2.0312 2.5787 4.1197 7.8695 2.0139 10.885 0.16728 0.22476-0.03336 0.41806-0.14561 0.63327-0.20312-0.15252 0.27469-0.39805 0.6208-0.53768 0.88419-0.90107 1.6997 0.52167 4.0416-1.0156 6.0818-0.88004 0.97445-5.56 7.5047-8.1131-3.716-6.4219 7.9164-2.7791 15.387 5.58 15.545 4.0952 0.41553 9.5948-3.0172 12.164-6.7629 3.373 0.22707 5.3274-4.0091 6.5956-2.7004 0.66471 0.61523 0.94831 1.8369 1.2068 2.9991-6e-3 0.0072-0.0181 0.02873-0.0239 0.03585-5.4903 6.9377-18.67 17.707-24.339 13.358-0.92643-0.76082 2.1925-4.1488 0-5.4127-1.6167-1.0293-7.703 0.95364-10.132 2.8676-1.2882 1.0149 0.35826 5.4527-0.68107 6.261-0.98842 0.76877-3.4419-2.3397-5.4007-1.0156-2.0625 1.5721-1.7747 6.343-1.0156 8.7822 0.6085 1.4123 2.111 0.4041 2.3658 1.0156 0.30846 0.7403-0.22192 2.1712 0.16728 3.0469 0.96263 2.1659 1.4957 6.0493 3.3814 6.2491 3.6702 0.37088 6.2574 1.2296 6.0818-3.716 0.67372-0.78923 0.13308-3.1579 2.1985-3.2142 0.65307-0.0712 0.39542 3.4454 0.50184 5.0662-0.05975 1.5479 5.6676 2.2482 6.5956 2.1985 3.3815-0.0121 3.7-3.5163 3.8833-8.6149 1.8445-0.36505 1.1584 6.7794 3.8833 7.5993 0.22767-7.0658 3.7447-6.6133 4.0625-9.4632 1.1467 1.4981 2.0936 2.9596 1.3502 3.3814-0.83967 0.30749-1.2566 4.9575 2.8676 3.3814-1.5054-1.2382-1.3801-2.2131-0.94394-2.3539 0.98162-0.14779 2.556-2.466 2.6406-3.3934 1.0803-0.0157 2.6842-0.30228 2.5331 0-0.50694 0.84489-1.5243 3.3786 0.33455 3.716 1.9958 0.33158 1.1851-3.529 2.5331-5.2335 0.8842-1.2782 2.3263-2.3001 2.8796-3.8833 0.31201-0.79742 1.8216 3.9634 2.3658 3.716 1.2019-2.3436 0.86649-5.5388 1.6847-5.7472 1.1881-0.64062 0.92814 2.4535 2.0312 2.8676 1.0373-1.4843 1.5562-4.468 2.8676-4.3851 1.1554 0.0839 0.94473-0.1863 2.5331 1.3502 0.37562-2.0532 2.826-5.5014 2.7004-11.16 0.80805-0.27664 3.2321 6.4329 3.3814 5.4127 0.15056-3.3121 4.2735-4.9087 3.5607-12.116 9.9115 1.6703 9.6374-0.37043 10.216 0.07169 5.2258 3.6549 4.8197 1.8955 11.757 7.7904 0.31967 0.32102 0.31135 1.0201 0.16728 1.8879-4e-3 -3.37e-4 -8e-3 3.1e-4 -0.0119 0-11.585-0.89868-22.006 8.999-25.176 13.514-0.71865 1.1071-10.235 0.43282-14.267 1.7684-7.2832 2.3336-11.91 10.738-17.409 13.717-2.5212 1.1266-7.8162 0.31511-9.4632-0.34651-0.9833 8.0884 3.2739 8.8153 6.8346 8.9972 8.2973 0.43621 8.8694-3.6965 11.315-3.011 1.9751 0.31455 7.2686 5.9703 7.0974 7.7785-0.14848 1.7756-2.8224 5.1295-4.3851 5.9384-2.1817 0.97956-5.398 0.60639-8.113 0.47794-0.0457-1.5694 0.36921-2.9948-0.4421-3.716-1.2164-1.0813-3.4212-0.79332-5.6397-1.6847-1.1871-0.53458-3.0784 0.71766-3.716 1.7803-0.71422 1.1904-0.86418 3.6477-0.34651 4.9706 0.4962 1.2681 3.47 2.2048 3.3814 3.0469-2.9224 1.6056-7.198-0.82536-8.113 0-2.0684 2.1045-0.75232 7.7869 0.34651 10.479 0.83612 1.4629 2.1825 0.84562 3.1305 0.8364 0.4613 1.0919-0.03372 2.704 0.68107 3.5487 1.144 1.352 3.9823 3.1426 5.4724 2.8796 1.3825-0.24398 2.2081-0.64473 3.0469-3.8952 0.39502-1.5308 2.4512 2.9027 3.3814 3.2142 2.3427 0.35881 5.9791 0.27061 7.5993-0.66911 2.391-2.1276-0.8295-4.0848 0.51378-5.58 1.0908 0.0153 2.2008 3.0993 4.0506 4.2178 0.29067-1.4002-0.29527-4.2661 0.33456-4.5524 0.60935 1.7508 2.4385 3.1218 3.8952 2.7004-0.27384-2.5638-0.0127-7.0399 0.16728-8.113 0.8339-0.22237 2.4254 5.7978 4.0506 6.0818 0.0364-3.1848-0.11081-6.7721 0.68107-7.432 0.55995 2.068 2.5682 4.544 3.716 4.2178-0.41557-3.7856 0.41893-4.4017 1.5175-7.2647 1.0505-2.5689 1.3166-5.4095 2.5331-6.0818 1.0848-0.52638 2.9697 0.77785 1.0395 3.2261-0.70399 0.67861-0.39871 3.1247 0.14338 5.0542 1.1226-2.4751 6.9695-4.9952 7.0974-8.6149 0.18074-4.9462-5.7046-10.408-6.7509-11.829-0.93253-1.2662-1.4699-5.6284-0.17922-6.4164 4.033-2.4623 8.3914-4.389 18.437-4.1581 3.9055 6.3202 7.7757 10.593 6.5836 14.852-1.4786 4.9447-5.9793 2.1771-8.125-0.47794-1.1168 6.8938 1.8959 10.01 4.7794 10.754 7.8586 1.9398 8.8762-2.5869 10.515-2.8676 7.0473-1.5214 11.753 0.31649 18.305-2.8676 1.0649-0.54564 2.863 10.112-3.011 13.179-0.87045 1.3744-4.0959 1.0802-5.4007 0.47794-0.76623-0.35364 0.36226-1.8557-0.8125-2.6645-3.6843-2.5368-6.3596 1.8613-9.0809 3.3456-0.3057 1.8613-1.5898 2.3269-1.6728 3.1066-0.31534 2.9642 4.2922 3.3596 4.0625 4.5404-3.1159 0.49191-4.8647-1.9412-7.1691-1.1949 0.3926 2.44-1.4922 1.5746-1.1948 3.5846 0.54978 2.0606 2.8852 6.0968 4.7794 7.4081 1.2125-0.1165 2.5249-0.17102 3.5846-1.1948 1.0911 3.7322 8.3897 4.4629 10.993 4.0625-0.1336-4.5383 0.16882-6.0422 2.6287-5.9743-0.30912 3.198 1.0649 4.4257 2.3897 5.0184 1.7021 0.76149 5.0317 1.1599 6.2132 0 2.715-2.4264 2.9636-4.5888 1.9118-5.2574 0.33488-1.5619 2.28-1.6969 2.3897-2.8676 0.69742-4.8917-0.79215-6.4535-0.47794-9.5588 0.80099-0.47927 3.3085 9.7854 5.7353 8.364-0.037-2.5614 0.0598-4.852 1.4338-5.9743 1.4894 3.2493 4.2608 3.9654 5.4963 4.3015-4.5014-5.1155-0.90263-5.11-0.47794-8.6029 0.15658-0.8241 2.5767 2.7625 4.0625 2.6287 0.13473-2.4463 0.4019-9.4215-0.23897-10.276-2.0234-2.9361-1.482-5.7783-0.23897-5.4963 2.2323 0.4522 0.64476 6.5804 3.8235 8.364 1.3562-5.5953 2.9983-8.0198 2.8676-9.0809-0.68766-5.824-5.9617-7.9919-11.71-7.4081-0.72621 0.0708-11.808-9.4281-20.79-8.6029 0.79403-2.7279 2.446-7.5322 3.3934-12.498 7.5757 9.9884 16.018 12.608 26.956 15.461 5.2213 1.9174 2.4146 5.1712 2.8676 8.2684 0.66215 1.5229 2.806 3.253 4.7794 3.8235 0.0977-1.845-1.3237-2.4626-1.1949-5.0184 0.31142-2.1642 2.2022-5.0511 2.1507-6.9302-0.10783-3.9359-2.9939-6.9993-5.7353-6.6912 6.087-10.982 5.5975-17.168-2.3897-28.437-1.1733-2.193 0.30407-9.991 9.0809-5.4963-2.2051-9.2741-14.598-6.5181-16.011-0.71691-2.3306-0.7828-3.0707-5.2242-1.6728-7.1691 2.2663-3.1531 7.4081-7.5975 16.489-3.5846-1.1949-2.9774-5.9786-10.392-16.967-6.4522 0.79222-4.9754 21.088-10.35 19.596-35.607-0.8576 1.5591-12.723 24.591-20.551 24.614 2.3317-3.8858 11.228-18.152 11.232-26.048 3e-3 -6.6786-7.305-20.254-23.18-20.312zm7.1691 13.143c4.7794-0.26369 9.006 3.7105 9.0809 8.6029-3.8985 11.517-21.64 28.441-21.507 42.059 0.13999 13.987 20.055 29.066 20.492 31.819 1.1116 3.346-4.4088 6.8822-7.1094 6.8943-3.2599 0.0133-8.5348-8.9426-13.263-12.594-0.19702-0.87541-0.46074-1.712-0.8364-2.4614-11.257-21.981-19.157-24.38-27.804-32.882-1.4281-1.4032-1.5508 0.58204-2.9991-2.6765 1.0081-0.6268 0.93743-1.6214 1.3502-1.2665 4.473 4.0141 7.2805-0.16772 7.2647-3.0469-3e-3 -0.44812-2.5298 1.3025-4.2298 0.68107-0.48432-0.16104 0.74425-3.293 1.3502-2.7123 0.43532 0.57912 3.9961 1.1856 5.4127 0.68107 0.23852-0.12876 0.36565-0.33231 0.45405-0.57353 2.6095-0.14518 3.0771-2.1955 4.863-2.1746-2.3804 6.6652 1.5446 16.287 5.2574 16.25-1.801-8.7257-0.77803-12.476 2.8676-17.062 1.2931-1.6268 1.4808-5.7848 3.3456-7.3125 2.4367 3.4395 0.0927 9.2262 0.47794 14.816 3.8366-2.8019 8.7239-15.405 5.4963-22.702 3.6259 0.20744 9.1042-0.15022 11.471-6.6912-3.8002 0.48703-6.1407-1.2293-6.2132-2.3897-0.0868-1.3886 2.9979-4.9809 4.7794-5.2574z" fill-rule="evenodd" stroke="#fff" stroke-width=".38235pt"/>
<path d="m67.066 27.3c-2.3897-1.9118-1.3326-3.0017-3.4833-5.1525 3.5846 0.03983 4.5769 1.2745 6.0108 2.2702-0.07966 1.9118-0.77496 3.1212-2.5274 2.8823z" fill="#f00" fill-rule="evenodd" stroke="#000" stroke-width=".38235pt"/>
<path d="m77.94 18.816c-0.23897-2.3101-0.25354-3.3313-0.97046-4.9245 3.5846 0.15932 5.5328 3.5703 6.4887 5.1634-0.95589 0.47794-5.0403 0.95589-5.5182-0.23898z" fill="#f00" fill-rule="evenodd" stroke="#000" stroke-width=".38235pt"/>
<path d="m92.517 22.162c1.1949-1.1152 2.1993-2.641 2.1993-5.907 1.5135 2.1906 3.8454 5.2682 2.1318 7.0591-0.53098 0.47301 0.35525 1.4195 0.27784 2.1184-0.63726 0.79658-5.4054-2.1553-4.6089-3.2705z" fill="#f00" fill-rule="evenodd" stroke="#000" stroke-width=".38235pt"/>
<path d="m68.276 44.98c-2.56 0.76039-4.8737-1.948-5.1525-5.3732 1.557 1.0644 2.5201 0.9486 4.193 1.1876 0.6409 0.78929 1.6366 3.867 0.95953 4.1857z" fill="#f00" fill-rule="evenodd" stroke="#000" stroke-width=".38235pt"/>
<path d="m75.195 94.455c-1.4471-1.0372-2.3837-3.4103-4.7794-5.8657 4.9013-0.40496 8.2808 2.4198 8.7553 3.9467 0.22641 0.61284-2.157 1.7581-3.9758 1.9191z" fill="#f00" fill-rule="evenodd" stroke="#000" stroke-width=".38235pt"/>
<path d="m58.941 108.07c-0.4491-3.9051 4.5482-4.8694 5.7499-5.7353 1.1083-0.0899 1.3634 3.835 0.83276 4.5405-2.5759 0.0911-3.7658 0.23707-6.5826 1.1949z" fill="#f00" fill-rule="evenodd" stroke="#000" stroke-width=".38235pt"/>
<path d="m67.667 114c-1.208 0.21573-3.7774 3.5273-0.60107 8.7698 0.9658-2.8528 2.6543-3.0227 3.7223-3.8381 0.60479-2.6895-2.0988-5.1143-3.1212-4.9317z" fill="#f00" fill-rule="evenodd" stroke="#000" stroke-width=".38235pt"/>
<path d="m134.87 17.59c-0.2764-0.03252-1.8748 4.6803-0.22438 5.5295 1.1584 0.67796 1.2669 1.8647 0.57523 2.2769-0.97199 0.6611-0.71883 1.3451-0.7017 2.3291 0.018 0.94938-0.77606 1.0936-0.6089 1.6629 0.55668 2.1688 7.5922 0.39115 10.92 2.0833 0.473 0.22884-1.0695-3.8519-2.4697-5.4077-1.2333-1.3704-3.4701-1.7351-4.9394-2.8793-1.5625-1.071-0.46334-5.267-2.5516-5.5947z" fill="#fff" stroke="#fff" stroke-width=".38235"/>
<path d="m78.298 121.69c2.8458-1.1371 2.5904-0.81162 2.5128-3.6064 1.7106-0.033 3.6564 0.61861 5.4206 1.4375 0.39388 1.0929-4.7581 4.9098-7.9334 2.169z" fill="#f00" fill-rule="evenodd" stroke="#000" stroke-width=".38235pt"/>
<path d="m93.712 170.8c-2.8677-1.6728-4.315-4.7524-2.6422-7.6201 2.1553 0.0616 5.0274 1.4954 5.3461 2.4514-0.79658 1.1949-3.5801 2.54-2.7038 5.1687z" fill="#f00" fill-rule="evenodd" stroke="#000" stroke-width=".38235pt"/>
<path d="m79.015 156.82c1.9118-4.3413 3.3937-4.279 6.7393-6.4696 0.5576 2.1417 0.96491 4.1196 0.89427 6.7529-1.8276-1.651-4.9252-1.1994-7.6336-0.28331z" fill="#f00" fill-rule="evenodd" stroke="#000" stroke-width=".38235pt"/>
<path d="m93.951 140.81c-2.2304-1.394-4.2219-3.266-5.7353-4.8989 4.2218-0.63726 6.1907 1.3542 7.067 2.1508 0.15932 1.3144 1.3767 3.3456-1.3316 2.7482z" fill="#f00" fill-rule="evenodd" stroke="#000" stroke-width=".38235pt"/>
<path d="m102.79 169.97c1.8321-2.0711 2.4694-2.8587 1.1949-5.6467 1.9118-0.31863 3.8236-0.47344 5.7354-0.0752-1.6202 3.1066-2.1553 5.08-6.9302 5.7218z" fill="#f00" fill-rule="evenodd" stroke="#000" stroke-width=".38235pt"/>
<path d="m167.65 155.34c-2.1967-2.1404-3.8865-4.9567-6.5902-6.4212 1.6616-0.74632 6.1444 0.91117 8.7776 1.3688s2.4341-0.61218 4.2338 0.0675c-0.61959 1.7743-4.7878 6.0832-6.4212 4.9849z" fill="#f00" fill-rule="evenodd" stroke="#000" stroke-width=".38235pt"/>
<path d="m155.48 171.74c0.58904-3.7124 1.736-5.3409 4.7314-7.3892 2.1993 1.0626 3.3131 3.728 3.1313 4.8571-3.5204-0.5351-5.5251 0.53252-7.8627 2.5321z" fill="#f00" fill-rule="evenodd" stroke="#000" stroke-width=".38235pt"/>
<path d="m171.37 172.4c-0.45061 5.3792 3.9121 7.3891 7.179 8.0368-1.8869-3.1261-4.2602-3.3847-2.4296-6.8488-1.7947-0.25108-3.2005-1.6386-4.7494-1.188z" fill="#f00" fill-rule="evenodd" stroke="#000" stroke-width=".38235pt"/>
<path d="m185.64 172.33c-0.59143 2.3939-1.6898 4.4498-1.6053 6.3367 3.0416-1.8306 5.2384-3.8302 6.0832-5.9988-0.7604-0.9012-3.5486-1.6334-4.478-0.33796z" fill="#f00" fill-rule="evenodd" stroke="#000" stroke-width=".38235pt"/>
<path d="m186.06 46.379c0.14199 1.1452 0.0747 8.0497 0.55019 7.8636 0.74346-0.03479 0.8692-9.8951-0.6553-16.011-1.4913-5.4895-1.5189-11.597-0.28125-14.818 0.66514-1.8934 1.8494-2.3646 3.0199-4.1203-4.522 1.9004-5.1032 5.9771-5.1032 10.698 0.16382 7.4606 1.4806 7.0895 2.4697 16.388z" fill="#fff" stroke="#fff" stroke-width=".38235"/>
<path d="m128.73 41.046c0.16382 4.808-3.009 9.577-7.0227 9.8201-0.17568 0.01064-0.17637 0.5304 0 0.55019 4.2663 0.39678 8.9509-6.4759 7.0227-10.37" fill="#fff" stroke="#fff" stroke-width=".38235"/>
<path d="m158.49 45.518c1.5195 1.3787 3.0102 2.4424 1.4048 2.4697-1.2424 0.02253-1.8225-2.8712-1.4048-2.4697z" fill="#fff" stroke="#fff" stroke-width=".38235"/>
<path d="m105.77 52.486c0.2118 0.8191 0.67668 0.97338 0.64616-0.11584-0.0324-5.2879 0.2372-3.784 1.7068-4.7548 1.2988-0.78141 1.2127-1.2121-0.11179-1.0295-0.44909 0.1012-2.2971 1.7958-2.8873 3.3644-0.41753 1.0687 0.46805 1.2304 0.64615 2.5357z" fill="#fff" stroke="#fff" stroke-width=".38235"/>
<path d="m178.91 47.575c-0.0829-1.1684-4.6182 7.4679-4.9039 9.6236-0.71135 5.2047 0.47379 10.13 1.1236 10.075 1.1961-0.11559-0.9995-3.8164-0.38637-8.9422 0.56659-3.738 4.1913-8.0995 4.1667-10.757z" fill="#fff" stroke="#fff" stroke-width=".38235"/>
<path d="m163.84 49.029c0.46202-0.08843 0.6024 0.54574 0.22254 0.6321-0.56666 0.25103-0.74402-0.43984-0.22254-0.6321z" fill="#fff" stroke="#fff" stroke-width=".38235"/>
<path d="m158.9 52.622c-1.2097 0.50093-0.5854 1.3668 0.39869 1.428 3.3266 0.2173 2.522-0.59979 1.1468-0.71402-1.0485-0.09887-0.25491-1.0168-1.5455-0.71401z" fill="#fff" stroke="#fff" stroke-width=".38235"/>
<path d="m157.31 56.625c-0.55328-1.6049-1.8229 2.7323 0.66763 2.6922 2.0168 0.10024-0.15108-0.71866-0.66763-2.6922z" fill="#fff" stroke="#fff" stroke-width=".38235"/>
<path d="m147.71 58.603c0.0685 0.0065 2.5134 2.5192 3.1127 2.5161 2.3797-0.0097 4.2857 0.04413 4.6241-0.37404 0.89696-0.67417-4.1918-0.32616-4.4233-0.46828-1.3929-0.95577-0.6155-1.8576-3.3135-1.6738z" fill="#fff" stroke="#fff" stroke-width=".38235"/>
<path d="m113.84 60.71c0.20418 4.7109-3.7069 7.6146-4.5066 8.9792-1.3545 2.1725-1.337 3.6137-1.5847 4.7524-0.24769 1.1387 0.45709 2.0508 0.49664 0.81771 0.10071-3.2217 2.089-5.6898 2.8549-6.9178 0.24798-0.35919 1.5812-0.20587 3.198-4.8899 0.1971-0.5435 1.0015-1.1927 0.51041-1.2357-0.60564-0.0025-0.56581-1.1463-0.54032-1.5152 0.10434-1.4288-0.46575-1.4343-0.42828 0.0094z" fill="#fff" stroke="#fff" stroke-width=".38235"/>
<path d="m121.7 59.809c-0.52556 4.7376 2.3033 5.9702 2.6335 8.9422 0.255 2.295-0.23796 5.5938-1.2055 6.5312-0.91741 0.73355-3.4687-2.8157-5.9811-1.9782-6.1563 2.0522-6.4102 9.1192-1.5919 12.185 0.46841 0.31393-1.534 1.4289-2.0833 1.2055-6.1856-2.3516-5.613-6.7452-6.3674-6.1449-1.6506 1.0791 2.6515 7.2968 7.2453 7.0227 3.0441-0.29018 5.096-0.84545 5.1032-2.142 3e-3 -0.60181-3.323-0.73764-4.2254-1.3693-3.7634-2.6344-1.3211-10.344 3.5114-9.2699 1.3352 0.29674 2.666 2.4367 2.9612 3.1837 0.22233 0.97729 1.0606 0.65255 1.2642 0.16382 1.2594-3.0226 2.6335-4.4979 2.6335-7.9129 0-1.852-1.5918-5.6411-2.4697-7.3968-0.4214-1.1705-1.2742-4.0772-1.428-3.0199z" fill="#fff" stroke="#fff" stroke-width=".38235"/>
<path d="m142.77 59.481c-0.36751-0.41212-0.23585 3.7139 2.0261 5.1032 2.7182 1.8334 5.1421-0.77462 4.5052-0.71402-5.1707 0.50757-5.275-2.8166-6.5312-4.3892z" fill="#fff" stroke="#fff" stroke-width=".38235"/>
<path d="m99.862 76.571c-0.19275 4.0112-1.4286 5.439-0.6785 5.4062 0.97866-0.04635 2.2776-4.1686 2.7742-9.8911 0.52675-5.1265 6.278-9.5255 4.7988-9.0118-1.8457 0.61251-6.6082 5.8366-6.8944 13.497z" fill="#fff" stroke="#fff" stroke-width=".38235"/>
<path d="m75.322 67.507c-1.6762-1.3774-0.01882-0.95239 0.78005-0.32948 1.146 0.98392 0.47136 1.2627-0.78005 0.32948z" fill="#fff" stroke="#fff" stroke-width=".38235"/>
<path d="m86.271 67.159c-0.17531-2.2607-0.77645 2.1677-2.3168 3.0119-1.5088 0.71343-1.6432 0.97582-1.6579 1.7429-0.01809 1.0578 0.95715-0.24923 2.2213-0.73341 1.1181-0.53072 1.8904-2.3466 1.7535-4.0214z" fill="#fff" stroke="#fff" stroke-width=".38235"/>
<path d="m127.99 66.744c-0.40208-0.09788-0.15962 1.8943-0.35674 3.7677-0.0296 1.3822-1.5046 4.4101-1.6152 5.1853-0.33569 4.9423 0.83321 7.615 1.3175 5.4398 0.62808-2.5608 6.8976-8.4584 6.1042-9.1258-0.5792-0.37136-5.4302 6.8145-6.5594 4.9195-0.34141-0.53795 3.961-9.5206 1.1095-10.187z" fill="#fff" stroke="#fff" stroke-width=".38235"/>
<path d="m136.63 67.382c-0.22776-0.01664 0.46584 1.469 1.3106 1.5331 6.4936 0.50539 5.3132-1.9149 9.446-0.10511 0.81152-1.0917-2.0474-2.4879-6.9176-0.71401-0.80487 0.28361-3.0021-0.64088-3.839-0.71402z" fill="#fff" stroke="#fff" stroke-width=".38235"/>
<path d="m202.14 75.118c1.428 0.50283 1.4818-2.1943 4.9394-4.3892 5.6925-3.4499 11.224 0.39411 9.9839-0.87784-3.1502-2.9001-14.288-1.1659-14.923 5.267" fill="#fff" stroke="#fff" stroke-width=".38235"/>
<path d="m137.25 75.242c1.6094 0 4.0628-0.25921 4.8281-0.49147 0.86031-0.3322 2.2358-0.49148 4.8281 0.49147-1.0565-1.761-3.7982-1.998-6.2758-1.1029-2.098 0.61929-3.2166-0.0264-3.3805 1.1029z" fill="#fff" stroke="#fff" stroke-width=".38235"/>
<path d="m80.242 79.516c-1.0507-0.19428-1.3387 3.2467-0.69596 5.4679 0.44793 1.6637 1.5734 2.5446 1.4289 2.105-1.693-4.7967-0.37451-7.4984-0.73298-7.5729z" fill="#fff" stroke="#fff" stroke-width=".38235"/>
<path d="m209.57 84.986c-0.5029 0.97338-1.1867 4.3424-0.10511 4.0956 1.4466-8.4843 8.6037-7.7999 8.0644-8.2282-1.1688-1.0921-5.7156 0.10685-7.9593 4.1326z" fill="#fff" stroke="#fff" stroke-width=".38235"/>
<path d="m137.48 81.619c-0.8995 1.1311-2.8278 0.49651-2.8652 0.87784-0.0519 0.6092 1.3338 0.05042 1.5639 0.53031 1.2246 2.4969 2.1705-2.5764 1.3014-1.4082z" fill="#fff" stroke="#fff" stroke-width=".38235"/>
<path d="m107.13 87.301c-6.295 6.4067-12.06 10.666-19.563 11.693-0.26526 0.03577-0.26005 0.86236 0 0.82819 5.0844-0.65285 10.222-3.0365 14.322-6.3766 2.1534-1.7541 6.0781-4.1897 5.242-6.1449z" fill="#fff" stroke="#fff" stroke-width=".36483"/>
<path d="m128.65 88.642c-0.19703 0.78814 0.0593 1.4689 0.53032 2.4109 0.11423 0.22846 0.64555 0.58162 0.70408 0.34753 0.23409-0.93636 0.39015-1.8622 0-2.6425-0.19508-0.39015-1.1388-0.49815-1.2344-0.11584z" fill="#fff" stroke="#fff" stroke-width=".38235"/>
<path d="m107.87 103.31c-0.32676 0.74575-0.26576 2.3237-0.1837 3.7819 0.0157 0.0931 0.38846 0.20627 0.43435-0.048 0.32545-0.89553-0.48136-2.7948 0.41447-3.1828 1.3567-0.63775-0.4641-0.84603-0.66512-0.55109z" fill="#fff" stroke="#fff" stroke-width=".38235"/>
<path d="m72.225 106.61c-0.94564 0.13224 1.2794 1.6792 1.1765 3.2797-0.0181 0.26107 1.0469 0.21179 0.99368-0.69505 0.03798-1.4421-1.4625-2.6674-2.1702-2.5846z" fill="#fff" stroke="#fff" stroke-width=".38235"/>
<path d="m100.3 107.7c1.2014 1.3243 0.26156 0.97331 0.41448 3.0578 0.0359 0.60492 0.52257 1.184 0.5022 0.44349-0.0706-1.763 0.83247-0.75497 0.87784-3.685-0.0196-0.81368-2.7914-1.0324-1.7945 0.18369z" fill="#fff" stroke="#fff" stroke-width=".38235"/>
<path d="m186.5 106.72c2.005 5.2059 12.991 16.411 22.332 15.965-2.5105-0.8136-6.586-2.2823-10.92-5.267-4.5992-3.2915-11.414-12.21-11.412-10.698z" fill="#fff" stroke="#fff" stroke-width=".38235"/>
<path d="m69.36 109.36c-0.29056 0-0.38863 0.60967-0.11584 0.762 0.52782 0.29474 2.7104 0.0907 2.5177-0.46336-0.04101-0.45107-1.8146-0.29864-2.4018-0.29864z" fill="#fff" stroke="#fff" stroke-width=".38235"/>
<path d="m92 109.57c-0.11584 0.82273 0.49109 0.0674 0.98454 1.1202 0.10765 0.19394 0.60728-0.85757 0.32765-1.2162-0.26698-0.34242-1.2757-0.12692-1.3122 0.096z" fill="#fff" stroke="#fff" stroke-width=".38235"/>
<path d="m99.39 125.69c7.5615-3.4402 5.8402-5.0893 13.881-11.826 2.9697-2.2942 7.2038-2.2963 9.5893-2.8652-7.1696-2.9993-13.97 5.2406-17.624 9.5893-2.9599 2.9599-5.3748 2.2739-5.8462 5.1023z" fill="#fff" stroke="#fff" stroke-width=".38235"/>
<path d="m81.052 111.54c-0.81565-0.46567-1.016 5.4412 0.39551 5.3258 2.2333-0.44192 4.17 1.4839 4.0325 0.29864-0.16904-1.2936-2.6683-0.11087-3.3955-1.0805-1.0285-1.3713 0.65464-3.4168-1.0325-4.5439z" fill="#fff" stroke="#fff" stroke-width=".38235"/>
<path d="m68.251 111.76c-0.11669 2.153 2.2708 1.8122 3.0679 3.4062 0.37342 0.74685 0.56246 3.2476 1.678 3.4527 1.1237 0.23665 1.9266-0.0741-0.13504-1.41-0.74425-0.58839-0.64397-3.7146-4.6108-5.4489z" fill="#fff" stroke="#fff" stroke-width=".38235"/>
<path d="m123.02 92.895c-1.5385-0.03095 0.41767-0.03746 0.34662 3.9075-0.022 1.1832 0.58396 2.3234 0.55018 1.2626-0.069-1.9305 0.64026-5.0234-0.8968-5.1702z" fill="#fff" stroke="#fff" stroke-width=".38235"/>
<path d="m80.078 94.169c-0.17488-0.52949-2.2311 1.2986-4.5729 2.142-0.25548 0.09895 0.09259 0.65748 0.32765 0.55019 2.0193-1.0855 4.5423-1.2969 4.2452-2.6922z" fill="#fff" stroke="#fff" stroke-width=".38235"/>
<path d="m158.24 93.225c0.40293 2.0917 1.6401 6.3277 0.55019 9.5975-0.74409 2.8885-5.6451 12.162-3.2424 19.371 1.7566 5.2706 3.9564 6.1122 4.2841 9.2945 0.12879 2.4574-0.0701 4.5871 0.71402 4.7509 0.32765-0.0473 0.23504-3.0464 0.16382-5.3845-0.0693-2.1103-4.6728-7.4884-4.553-13.038 0.12578-5.9898 1.0928-6.8836 2.3059-10.652 1.2315-3.9912 2.2075-6.0066 1.9195-8.0644-0.2353-2.852-0.93655-6.047-2.142-5.876z" fill="#fff" stroke="#fff" stroke-width=".38235"/>
<path d="m118.52 95.549c-0.94722 0.2154 0.75806 2.9946 0.8968 2.8842 0.4185-0.46337 0.51235-3.2419-0.8968-2.8842z" fill="#fff" stroke="#fff" stroke-width=".38235"/>
<path d="m133.67 107.82c0.78807 1.0957 8.6482-8.5787 11.634-8.2869 4.2387 0.39809 3.0293 2.265 3.6056 2.6103 2.7588 0.86903-0.16668-5.3263 0.23503-4.9184 3.607 3.4966 0.99221 6.216 2.55 6.1456 1.0228-0.0418 0.10811-6.5674 0.79592-6.4711 1.9614 0.74173-0.0522 7.2756 0.87784 7.0227 2.6194-0.75671 1.8249-7.266 2.3523-6.893 1.8889 1.5001-0.5641 6.359 0.11743 6.179 1.5563-0.45454 2.0954-5.6152 1.0161-6.8782-0.97289-1.2863-3.4492-1.086-6.073-0.8585-5.3743 0.63382-17.846 11.504-17.112 12.348z" fill="#fff" stroke="#fff" stroke-width=".38235"/>
<path d="m72.852 96.638c-0.24893 1.3485 0.74841 1.0852 0.762 3.2614 4e-3 0.75451 0.51381 1.7291 0.5022 1.0988-0.02815-1.6921-0.18613-2.9691-0.04799-4.2923 0.0071-0.45584-1.1339-0.51368-1.2162-0.06786z" fill="#fff" stroke="#fff" stroke-width=".38235"/>
<path d="m113.83 99.571c-0.10344 1.4433-0.11389 4.499 0.29954 4.1964 0.54899-0.28778-0.25042-0.92566 0.59818-1.0906 0.70475-0.0211 0.40253-1.5176 0.41447-3.1257-0.0298-0.46131-1.247-1.0054-1.3122 0.01987z" fill="#fff" stroke="#fff" stroke-width=".38235"/>
<path d="m67.19 101.67c-1.3679 0.13633-0.40407 2.2715 0.23078 2.3728 0.2488 0.68935-0.80282 0.6976-0.69414 1.4381-0.21744 2.9195 0.11032 2.8086 2.1222 2.4887-1.3511-0.92197-1.1458-2.4344-0.39551-3.1828 0.64164-0.87149-0.27574-0.0151-0.3176-1.0126-0.01784-0.54091-1.5104-1.0647-0.97562-1.3412 0.69262-0.24221 1.1731-1.0138 0.02993-0.76291z" fill="#fff" stroke="#fff" stroke-width=".38235"/>
<path d="m115.65 137.62c0.28684 2.9527-5.0095 6.171-4.6209 6.5105 0.92885 0.71021 5.9759-3.3424 5.7974-6.858-0.0435-0.97195-1.2951-0.98932-1.1765 0.34753z" fill="#fff" stroke="#fff" stroke-width=".38235"/>
<path d="m197.75 136.4c-0.42031 2.4419 2.9163 4.2037-1.0881 8.9299-2.3513 2.7585-3.484 5.7338-1.2765 8.5095 1.3202 1.454 2.347 1.2503 2.3646 6.2623 1e-3 0.27768 0.34456-0.40449 0.38636-0.6553 0.25081-1.5049 0.72121-2.3946 0-3.9564-0.98248-2.2915-2.6637-2.1719-2.7973-5.3258 0.0126-1.3204 4.1097-6.5872 4.3892-8.5435 0.30574-2.1402-1.8257-6.673-1.9782-5.2206z" fill="#fff" stroke="#fff" stroke-width=".38235"/>
<path d="m209.16 137.45c-0.2388-0.0228 0.0992 0.92743 1.3106 1.2055 1.0485 0.0989 1.9504-0.47714 2.0369 1.8608 0.0705 2.0689 0.0614 4.4762 1.5331 4.179 0.087-0.0272-1.1804-2.4708-0.98295-5.3845-0.0625-1.496-2.3469-1.697-3.8977-1.8608z" fill="#fff" stroke="#fff" stroke-width=".38235"/>
<path d="m152.43 138.87c-1.2963 0.93608 1.9914 4.347 6.2036 4.2254 0.6238-0.0173 0.63429-0.54243-0.98295-0.87784-3.7273-0.60919-4.9113-3.6033-5.2206-3.3475z" fill="#fff" stroke="#fff" stroke-width=".38235"/>
<path d="m95.637 141.89c-1.5952 0.99849-1.5968 1.2699 0.6553 1.2055 1.481-0.20151 3.2136-1.2644 1.4404-2.0833-0.27072-0.11445-1.1274 0.37121-2.0957 0.87784z" fill="#fff" stroke="#fff" stroke-width=".38235"/>
<path d="m132.98 140.73c0 1.1035 0.87934 0.52501 1.0988 0.59817 0.65838 0.21946 1.6657-0.195 1.6986 0.41538 0.20823 4.0321-1.1648 2.955-0.9457 4.524 0.11526 0.7391 0.57988-0.16801 0.6859-0.64707 0.8234-1.7779 1.8127-3.001 1.2923-4.2153-0.35743-0.83398-2.3668-0.67517-3.8299-0.67517z" fill="#fff" stroke="#fff" stroke-width=".38235"/>
<path d="m92.734 143.26c-0.24241 0-0.12879 1.2992 0.16383 1.5918 0.29261 0.29262 1.2642 0.24241 1.2642 0 0-0.67046-1.0852-1.5918-1.428-1.5918z" fill="#fff" stroke="#fff" stroke-width=".38235"/>
<path d="m95.532 145.35c-0.62242 0.12159 2.0745 2.6088 2.142 1.9782 0.27204-2.7032-0.74946-2.0864-2.142-1.9782z" fill="#fff" stroke="#fff" stroke-width=".38235"/>
<path d="m126.36 145.67c-0.1028-0.64931-2.7192-0.43789-0.59658 0.3523 0.24086 0.0972 0.13418 4.0871 0.38637 4.0956 0.59033 0.0255 0.35764-2.482 0.21021-4.4479z" fill="#fff" stroke="#fff" stroke-width=".38235"/>
<path d="m205.48 146.39c-0.85475 0.61945 1.6706 1.7 1.9782 2.7046 0.35178 1.6838 0.93645 3.6831 1.2055 2.4574 0.88701-3.8772-2.4474-5.5317-3.1837-5.1619z" fill="#fff" stroke="#fff" stroke-width=".38235"/>
<path d="m119.78 148.86c1e-3 0.74157 1.5164 0.17733 1.7557 0.56251 0.42008 0.67606 2e-3 2.4007 0.22254 2.4574 0.58303 0.19219 0.85296-3.0584 0.16383-3.0199-0.29514-0.14733-2.1425-0.33256-2.142 0z" fill="#fff" stroke="#fff" stroke-width=".38235"/>
<path d="m87.631 149.57c0.01491 1.6917-0.38001 10.154 1.8144 7.9593 0.33927-0.17542-1.7693-8.4711-1.8144-7.9593z" fill="#fff" stroke="#fff" stroke-width=".38235"/>
<path d="m123.79 124.05c-1.591 1.9916-6.3096 3.1724-8.3639 0.87784-0.11584 3.615 2.8939 2.5846 5.9621 2.5846l-0.69505 1.9204c-2.9931 2.3657-6.6812 0.0978-10.949-2.1702 2.104 4.5736 8.6374 6.1172 13.003 2.2371 1.3362-0.90437 1.1324-3.5066 1.0426-5.4498z" fill="#fff" stroke="#fff" stroke-width=".38235"/>
<path d="m217.06 124.44c-0.96176 0.7652 2.2869 2.2866 1.5919 6.9176-0.26658 1.7132 0.56265-0.58612 0.71401-0.81913 1.2783-1.7157-1.984-6.4849-2.3059-6.0985z" fill="#fff" stroke="#fff" stroke-width=".38235"/>
<path d="m90.428 126.11c1.1753 4.3863 2.3867 4.0918 4.4561 4.6878-1.1952-1.1191-3.9841-4.8149-4.4561-4.6878z" fill="#fff" stroke="#fff" stroke-width=".38235"/>
<path d="m127.83 126.51c-0.15381 3.4109 1.4763 3.7754 0.97381 7.1484-0.50562 3.2293-3.2585 4.6425-3.6752 5.7286-0.41128 1.4848 0.0247 2.4526 0.48233 2.2209-0.24472-2.9319 2.7548-4.447 3.7522-6.4719 1.3151-3.1413-1.5372-10.015-1.5332-8.626z" fill="#fff" stroke="#fff" stroke-width=".38235"/>
<path d="m202.3 152.37c-0.30903 0-0.29312 0.73874-0.18703 2.9503-0.0328 1.256 1.0562 2.9157 1.1236 2.3755 0.42514-4.7205-0.78914-5.3258-0.93655-5.3258z" fill="#fff" stroke="#fff" stroke-width=".38235"/>
<path d="m117.64 153.08c0.49965 0 0.26098 2.3192-0.1051 2.3059-0.55198 0.14366-0.55019-2.3059 0.1051-2.3059z" fill="#fff" stroke="#fff" stroke-width=".38235"/>
<path d="m112.82 155.94c0.92613 0.73882 1.0251-0.95479 0.16382-1.1004-1.297 0.0274-1.5152 0.18613-0.16382 1.1004z" fill="#fff" stroke="#fff" stroke-width=".38235"/>
<path d="m94.49 156.04c0.94226 0.61354 0.86341 2.1977 1.428 1.9782 0.6645-0.20019 0.33407-1.3753 0-1.9782-0.55413-0.70447-1.6795-0.11999-1.428 1e-5z" fill="#fff" stroke="#fff" stroke-width=".38235"/>
<path d="m165.27 156.76c0.13288 0.59371 3.4167 1.0751 3.4294 3.5291 3e-3 0.466 0.54252 0.75117 0.6321-0.12287 0.35315-2.6465-4.1842-4.0301-4.0616-3.4062z" fill="#fff" stroke="#fff" stroke-width=".38235"/>
<path d="m111.17 157.47c0.25182-0.20187 1.4656-0.15005 1.428 0.55019-0.0994 0.42635-2.1479 0.19071-1.428-0.55019z" fill="#fff" stroke="#fff" stroke-width=".38235"/>
<path d="m93.389 159.06c-0.92732 0.22777 0.01338 1.3336-1.2055 2.5284-0.7062 0.69006 3.2718 1.4217 4.3428 2.3523 0.3513 0.44759 2.2307-0.63003-2.0369-1.7557-2.3055-0.44431-0.65471-3.1557-1.1004-3.125z" fill="#fff" stroke="#fff" stroke-width=".38235"/>
<path d="m102.33 160.27c-0.4642 0.13197 0.62708 2.7986 1.7557 2.856 2.0383 0.12128 3.0267 0.14696 5.2206 0 0.6751-0.0956 0.96141-1.8607 0.49148-1.9782-0.70053-0.17513 0.25012 1.9166-3.1837 1.5918-1.6105-0.31613-2.9265-2.8091-4.2841-2.4697z" fill="#fff" stroke="#fff" stroke-width=".38235"/>
<path d="m161.84 161.23c-0.077-0.43901 1.4374-0.33239 1.428 0.0587-7e-3 0.33778-1.367 0.35447-1.428-0.0587z" fill="#fff" stroke="#fff" stroke-width=".38235"/>
<path d="m166.64 130.42c0.48558 4.2184 5.1161 6.7407 10.757 3.0199 1.4469-0.91244-0.22283 8.1832-10.206 5.4309-0.2696-0.0711 1.6912 1.2916 1.9659 1.3693 4.161 1.0134 12.45-3.2255 8.7907-9.8201-0.69994-1.0975-3.4413 3.6752-5.4896 3.6752-3.3589 0-5.9922-5.1364-5.8172-3.6752z" fill="#fff" stroke="#fff" stroke-width=".38235"/>
<path d="m115.04 133.76c-0.22847 0-0.39229 0.43596-0.16382 0.55019 0.94199 0.47099 2.2417 1.0417 3.1837 1.0417 0.22846 0 0.0646-0.59978-0.16382-0.71401-0.94199-0.471-1.9141-0.87784-2.8561-0.87784z" fill="#fff" stroke="#fff" stroke-width=".38235"/>
<path d="m207.25 24.559c1.0718 2.1444 2.0913 2.8498 2.4018 6.6082 0.68676 5.8677-3.8988 11.238-6.9738 15.338-1.6003 2.2879-3.8872 5.5224-5.5476 8.2481-4.0974 7.0122-9.1264 13.818-6.6263 23.818 2.0076 8.0313 10.239 15.65 15.251 22.332 1.4608 1.9478 3.7288 3.7932 4.1203 6.1449-0.17458 3.7052-4.3666 5.3988-3.3475 5.6534 4.4635-2.2935 5.7604-5.558 2.4697-10.265-4.9312-7.0538-13.861-14.021-16.651-22.389-4.9677-13.975 8.4611-27.012 15.732-38.644 3.6846-6.01 4.8003-16.736-0.82894-16.844z" fill="#fff" stroke="#fff" stroke-width=".38235"/>
<path d="m124.34 26.451c-0.47216 0.13425-1.3368 1.6769-1.6746 2.7138-0.11711 0.47446-0.0676 4.4783-0.0811 6.0414 0.0323 0.738 1.2367 0.66218 1.2642-0.08191-0.0311-1.3755-0.0827-6.3551 0.26978-6.7608 0.71754-0.74383 0.98253-2.1742 0.2217-1.9125z" fill="#fff" stroke="#fff" stroke-width=".38235"/>
<path d="m160 31.858c0-0.44111 3.3475-0.32765 3.3475 0 0 0.57849-3.2656 0.40956-3.3475 0z" fill="#fff" stroke="#fff" stroke-width=".38235"/>
<path d="m179.65 33.318c-0.51737-0.03134-0.78984 5.4666-1.5331 8.2869-0.57713 2.026-1.5919 4.2604-2.4697 6.3087 3.9336-1.1067 4.9917-14.526 4.0028-14.596z" fill="#fff" stroke="#fff" stroke-width=".38235"/>
<path d="m157.45 34.433c0.90104 0.50979 0.83601 1.2522 1.1823 1.2642 0.40292 0.01116 0.29245-0.71237 0.24573-1.1823-0.0507-0.42077-1.6404-0.19207-1.428-0.08191z" fill="#fff" stroke="#fff" stroke-width=".38235"/>
<path d="m142.49 42.824c-0.95811-0.96592-1.9176-5.3304-2.607-5.0537-0.48312 0.23306 0.7133 4.0575 1.7074 5.4516 0.55092 0.61017 0.77931 4.572 1.3991 4.6916 0.33823-0.05055 0.61505-4.0817-0.49947-5.0895z" fill="#fff" stroke="#fff" stroke-width=".38235"/>
<path d="m223.16 38.257c-2.0129 6.0375-7.9604 14.096-13.814 18.435-3.3288 2.4012-9.4686 4.8898-7.2544 4.6878 5.9926-0.6624 12.897-5.9922 17.325-13.582 1.9926-3.6306 4.9671-7.5056 3.743-9.5404" fill="#fff" stroke="#fff" stroke-width=".38235"/>
<path d="m168.21 54.174c3.1578-2.562 4.377-10.457 5.6534-19.371 0.42616-2.9761 0.93129-7.8387 1.9195-10.803 1.6032-4.8089 7.9839-9.7621 10.862-10.206-2.9199-1.2818-8.6252 4.0737-10.534 7.0227-2.5951 4.173-3.3929 12.647-4.2254 18.153-0.56987 3.6573-0.82618 5.521-1.3106 7.8418-1.2455 5.1824-3.1229 7.3436-2.3646 7.3627z" fill="#fff" stroke="#fff" stroke-width=".38235"/>
<path d="m191.07 34.93c0.80859 0.02774 0.46038-1.0474-0.72254-1.5224-0.78853-0.20741-1.6229-1.6697-2.0748-4.6102-0.69923-4.7139 3.6193-6.3935 1.7557-6.1572-4.7012 0.57532-3.4587 12.141 1.0417 12.29z" fill="#fff" stroke="#fff" stroke-width=".38235"/>
<path d="m159.24 15.367c0.23987 1.5931-1.5908 1.434-0.46337 2.0904 0.81521 0.54209 0.24241 3.3932 0.762 3.3594 0.45208-0.03688 1.219-2.1971 0.99368-4.8706-0.0915-1.039-1.3682-1.0465-1.2923-0.57921z" fill="#fff" stroke="#fff" stroke-width=".38235"/>
<path d="m171.49 166.36c0.24638 3.4602-1.592 3.8154-0.38637 4.1203 2.2492 0.46612 4.6868 1.1331 6.0166 2.224 0.90382 0.68577 2.1809-0.99454-3.8745-2.8329-0.60721-0.17613-0.0982-2.9053-0.45052-3.7571-0.26893-0.8472-1.4438-1.2151-1.3052 0.24574z" fill="#fff" stroke="#fff" stroke-width=".38235"/>
<path d="m182.99 166.25c-0.43335 0.17675-4e-3 4.8676 1.2055 4.7756 1.5538-0.0129-0.59916-1.1415 5.0568-0.87784 2.529 0.0812-0.13538-1.1967-0.53243-1.2464-1.5038-0.1067-3.7801 0.22403-3.9974-0.0178-0.65636-0.97791-1.0476-2.8309-1.7325-2.6335z" fill="#fff" stroke="#fff" stroke-width=".38235"/>
<path d="m162.82 163.53c-2.0932-0.13935 0.51191 0.31817 1.0895 3.4418 0.6026 3.7973 3.1847 2.2037 2.7441 2.071-3.0956-0.90757-1.6114-5.3703-3.8336-5.5128z" fill="#fff" stroke="#fff" stroke-width=".38235"/>
<path transform="matrix(.16728 0 0 .14869 77.585 48.854)" d="m372.05 232.63c0 1.5059-1.0852 2.7267-2.4238 2.7267s-2.4238-1.2208-2.4238-2.7267 1.0852-2.7267 2.4238-2.7267 2.4238 1.2208 2.4238 2.7267z" fill="#fff" fill-rule="evenodd" stroke="#fff" stroke-width="2.357"/>
<path transform="matrix(.16728 0 0 .14869 79.322 48.854)" d="m372.05 232.63c0 1.5059-1.0852 2.7267-2.4238 2.7267s-2.4238-1.2208-2.4238-2.7267 1.0852-2.7267 2.4238-2.7267 2.4238 1.2208 2.4238 2.7267z" fill="#fff" fill-rule="evenodd" stroke="#fff" stroke-width="2.357"/>
<path d="m196.24 32.876c-0.0652-0.44092 2.5959-2.4175 1.6597-0.17297-0.14248 0.30634-1.367 0.58615-1.6597 0.17297z" fill="#fff" stroke="#fff" stroke-width=".38235"/>
<path d="m122.47 23.867c0.90104 0.50979 0.83601 1.2522 1.1823 1.2642 0.40292 0.01115 0.29245-0.71237 0.24573-1.1823-0.0507-0.42077-1.6404-0.19207-1.428-0.08191z" fill="#fff" stroke="#fff" stroke-width=".38235"/>
<path d="m67.748 30.701c-0.40623 0-0.52664 1.3343 0.08192 1.428 1.2378 0.17798 1.3461-0.4948 0.69082-0.49148-0.67046 3e-3 -0.42991-0.93655-0.77273-0.93655z" fill="#fff" stroke="#fff" stroke-width=".38235"/>
<path d="m73.85 32.462c-0.40623 0-0.52664 1.3343 0.08192 1.428 1.2378 0.17798 1.3461-0.4948 0.69082-0.49148-0.67046 3e-3 -0.42991-0.93655-0.77273-0.93655z" fill="#fff" stroke="#fff" stroke-width=".38235"/>
<path d="m138.67 46.183c-0.67008-1.184-1.3384-4.2878-2.0278-4.0112-0.48312 0.23306 0.59746 3.1308 1.3598 4.6407 0.39444 0.72127 0.89516 2.8343 1.515 2.954 0.33823-0.05055-0.19584-2.2283-0.84699-3.5836z" fill="#fff" stroke="#fff" stroke-width=".38235"/>
<path d="m135.02 50.238c-0.85361-1.0594-0.64334-3.7086-1.912-2.3894-0.37105 0.38736 0.36577 1.9724 1.3598 3.3665 0.55092 0.61017 0.20955 2.2355 0.70408 2.954 1.7927 2.4362 0.84673-2.5758-0.15195-3.9311z" fill="#fff" stroke="#fff" stroke-width=".38235"/>
<path d="m132.24 53.597c-0.88707-1.0316-0.29581-1.7393-1.7961-2.7369-0.46245-0.27178 0.48161 1.8565 1.1282 3.5982 0.32965 0.75309 0.31595 1.4442 0.81992 2.1431 0.22364 0.25872 0.61505-2.2283-0.15195-3.0043z" fill="#fff" stroke="#fff" stroke-width=".38235"/>
<path d="m129 56.436c-0.80707-1.0953-0.29581-3.1294-0.98522-2.8527-0.48313 0.23306-0.37996 1.9281 0.54893 3.3665 0.43508 0.49432-0.38534 2.1736 0.81992 2.3748 1.035 0.15338 0.7309-1.5332-0.38363-2.8885z" fill="#fff" stroke="#fff" stroke-width=".38235"/>
<path d="m126.91 59.911c-0.93096-1.034-1.5211-4.2734-1.6803-3.5478-0.48313 2.3182 0.13408 3.0149 1.1281 4.4091 0.55092 0.61017 0.44583 2.1703 1.6308 2.0272 0.46757-0.06257-0.63359-2.3387-1.0787-2.8885z" fill="#fff" stroke="#fff" stroke-width=".38235"/>
<path d="m117.52 59.61c-0.36756 0.10172-0.20953 0.80978-0.16474 2.5538 0.0285 1.183-0.17327 2.4019 0.18279 2.3168 0.38997-0.07029 0.47294-5.0386-0.0181-4.8706z" fill="#fff" stroke="#fff" stroke-width=".38235"/>
<path d="m92.032 75.383c-0.66842 4.2365-3.3683 6.0299-2.6783 5.7339 2.7807-1.275 3.5464-5.097 5.0677-11.202 1.6388-6.6581 7.9639-11.912 6.6008-11.142-1.4361 0.85825-7.1336 5.3613-8.9902 16.609z" fill="#fff" stroke="#fff" stroke-width=".38235"/>
<path d="m101.91 54.243c0.44148-2.188-1.2517 1.2479-2.6644 2.201-1.1877 0.89878-2.0923 0.97623-2.1213 1.627-0.02247 0.59424 1.2032 0.27455 2.2213-0.61756 1.0023-0.99409 1.8667-0.47147 2.5644-3.2105z" fill="#fff" stroke="#fff" stroke-width=".38235"/>
<path d="m100.35 52.911c0.0919-0.63481-0.66631-0.59881-1.9693 0.57921-0.92954 0.94512-2.0949 0.29392-2.2371 1.0478-0.13393 0.59439 2.1312 0.39276 2.6846-0.27004 1.0103-0.99854 1.3966-0.60801 1.5218-1.357z" fill="#fff" stroke="#fff" stroke-width=".38235"/>
<path d="m97.45 50.014c-0.46922-0.28985-0.75332 1.6435-2.3168 2.3168-0.88929 0.44888-1.4349 0.05911-1.4262 0.58446 0.16383 0.69131 2.3581 0.1637 3.0322-0.50172 1.1603-1.0311 2.4104-1.2339 0.71088-2.3996z" fill="#fff" stroke="#fff" stroke-width=".38235"/>
<path d="m95.133 48.335c-0.62925 0.12292-0.56833 0.50917-1.5059 1.506-1.2539 1.4489-2.6664 0.55981-2.5846 1.3954-0.01145 0.28062 2.9503 0.34832 3.4955-0.38588 1.8982-2.4003 1.5731-2.8223 0.59504-2.5154z" fill="#fff" stroke="#fff" stroke-width=".38235"/>
<path d="m80.247 62.062c-0.05947-0.98647-1.3557-0.84424-1.3901-0.23168-0.07883 1.6671-1.759 1.7867-2.4688 2.2062-0.94314 0.47924 2.4631 0.56167 2.6846 0.30917 0.63791-1.0606 1.2648-0.60578 1.1743-2.2837z" fill="#fff" stroke="#fff" stroke-width=".38235"/>
<path d="m79.436 55.343c-1.102 0.28779-0.03973 0.83557-1.2743 2.0852-1.1612 1.2926-1.8368 0.8786-1.8896 1.3954-0.04134 0.49521 1.4232 0.80219 2.453-0.38588 1.42-1.5047 2.3712-3.3537 0.71088-3.0946z" fill="#fff" stroke="#fff" stroke-width=".38235"/>
<path d="m78.451 46.713c-0.1062-0.48703-0.5031 1.1831-1.3901 2.201-1.2183 1.239-2.416 1.5737-2.4688 2.0904-0.04134 0.49521 1.4232 0.80219 2.453-0.38588 1.42-1.5047 1.7196-1.9356 1.4059-3.9055z" fill="#fff" stroke="#fff" stroke-width=".38235"/>
<path d="m71.443 24.877c-1.102 0.28779-0.03973 0.83557-1.2743 2.0852-1.1612 1.2926-1.8368 0.8786-1.8896 1.3954-0.04134 0.49521 1.4232 0.80219 2.453-0.38588 1.42-1.5047 2.3712-3.3537 0.71088-3.0946z" fill="#fff" stroke="#fff" stroke-width=".38235"/>
<path d="m71.489 44.174c0.22146-2.2891-1.0992-1.8513-1.3901-2.8776-0.76864-3.2894-0.9758-0.88477-0.83053 0.28832-0.02858 1.8068 0.70608 2.1069 0.65087 2.7268-0.07255 1.0299 1.5196 1.8565 1.5698-0.13753z" fill="#fff" stroke="#fff" stroke-width=".38235"/>
<path d="m78.451 24.515c0.47985-0.71416-0.54776-0.70457-0.89862-1.7308-1.0191-2.5016-1.2927-1.3848-1.322-0.20315 0.13524 1.1515 0.86991 0.79627 0.81469 2.0715-0.05123 1.0312 0.18267 2.6268 1.4059-0.13753z" fill="#fff" stroke="#fff" stroke-width=".38235"/>
<path d="m83.255 20.402c-0.64108-0.0091-1.1938-0.29422-1.8336 0.523-0.24495 0.52214-1.6834-0.09549-1.6017 0.57622 0.02735 0.27952 3.1829 0.21351 3.6594-0.05823 1.6069-0.68199 1.2454-1.1841-0.22409-1.041z" fill="#fff" stroke="#fff" stroke-width=".38235"/>
<path d="m93.167 25.187c-0.696-0.47117-1.6174-1.7008-1.9775-1.2112-0.40203 0.41353 0.8538 2.217 1.6269 2.0788 1.5346-0.15852 2.3488 1.6608 2.309 0.38527-0.04355-1.5125-0.75267-0.32079-1.9583-1.2528z" fill="#fff" stroke="#fff" stroke-width=".38235"/>
<path d="m89.688 25.905c0.10357-0.85414-0.54276 0.04168-0.66694-1.0358-0.20822-1.6907-0.59762-0.92147-0.62695 0.26022 0.13524 1.1515-1.2732 1.6607-0.8071 1.6081 0.4832-0.06758 1.1585 1.6308 1.2583 1.0475 0.49102-2.9882 0.86823-1.135 0.84273-1.8801z" fill="#fff" stroke="#fff" stroke-width=".38235"/>
<path d="m145.09 82.418c-1.0861-0.09421-0.62741 0.506-1.4325 0.99278-0.83138 0.38305 1.3907 0.28126 2.1843 1.4461 0.44765 0.76929 2.507 0.68419 2.5274 0.30277 0.0204-0.38142-1.5857-0.83795-2.0187-0.95887-2.4931-0.81198 2.4385-1.8564-1.2604-1.7827z" fill="#fff" stroke="#fff" stroke-width=".38235"/>
<path d="m151.11 84.04c-0.94673-0.0646-2.3097 1.3449 0.34635 2.9601 2.8045 1.7435 2.3119 2.1755 6.9958 1.9504 0.5681-0.02028 0.60303-0.71403-1.434-0.47468-3.7215 0.46363-5.7471-2.2273-5.277-2.4557 0.98283-0.54474 0.37227-1.9021-0.63108-1.9801z" fill="#fff" stroke="#fff" stroke-width=".38235"/>
<path d="m155.59 90.228c0.0602 0.3967 1.2115 1.2885 1.8094 1.3287 2.4376 0.10615 1.5376 0.86216 2.2203 0.92919 2.2224 0.2125-0.7382-1.2911-1.4693-1.2792-1.8169 0.02755-2.5628-1.3927-2.5605-0.97872z" fill="#fff" stroke="#fff" stroke-width=".38235"/>
<path d="m136.87 24.695c-0.80073-0.23707-0.33218 1.897 1.0864 3.3594 0.85514 0.93096 1.7556 0.88759 1.6878-0.11701-0.097-1.3547 0.32325-1.2978-1.1424-1.5826-0.65506-0.0907-1.4836-1.6979-1.6318-1.6598z" stroke="#000" stroke-width=".38235"/>
</g>
<g transform="matrix(.38235 0 0 .40318 -2.9059e-5 3.2254e-6)">
<rect x="7.6e-5" y="-8e-6" width="261.54" height="496.06" fill="#002776" fill-rule="evenodd" stroke-width="1pt"/>
<g transform="matrix(.41724 0 0 .41724 -19.516 12.028)">
<path transform="translate(.59441 -1.5259e-5)" d="m338.47 205.11c-0.131-59.814 17.407-116.88 26.307-125.26 0.524 12.303 1.001 29.583 1e-3 36.124-0.641 4.69-25.523 97.77-26.308 89.132z" fill="#00c" fill-rule="evenodd" stroke-width="1pt"/>
<path transform="translate(.59441 -1.5259e-5)" d="m327.47 318.19c2.617-34.815 26.337-49.576 43.191-54.971 3.516-1.289 14.679 3.705 10.209 4.711-12.775 2.7-40.835 28.795-53.4 50.26z" fill="#fff" fill-rule="evenodd" stroke-width="1pt"/>
<g transform="matrix(8.8525 0 0 -8.8525 -408.4 838.51)">
<g clip-path="url(#b)">
<g clip-path="url(#a)">
<path transform="matrix(.12986 0 0 -.12986 39.848 98.911)" d="m368.47 68.344c-16.758 3e-6 -30.349 6.1042-40.438 18.125-7.2833 8.6787-12.014 19.794-15 31.688-0.45125-15.774-2.4398-30.094-12.656-30.094-1.4246-1e-6 -2.8366 0.37605-4.0625 1.0938-28.336 16.586-21.136 66.813-20.812 68.938 0.16942 1.1397 0.58223 2.1848 1.1875 3.125 0.28648 0.79318 1.0839 3.3979 2.3438 10.031 0.81935 4.3016 2.8577 11.411 5.2188 18.969-7.0276-3.3952-12.594-4.3316-13.094-4.4062-0.30804-0.0454-0.62177-0.0548-0.9375-0.0625-0.76315-0.0339-1.4818-0.0625-2.2188-0.0625-27.016 8e-3 -37.877 19.997-39.844 30.562 0.0138-0.0741 0.0448-0.0976 0.0625-0.15625-0.28686 1.203-0.73597 3.1986-0.8125 4.6562-21.48 0.93101-36.081 11.344-39.188 13.75-12.51 7.4674-19.043 18.834-18.438 32.062 0.43971 9.6182 4.4511 16.883 4.9062 17.688 0.22177 0.3835 0.47201 0.74722 0.75 1.0938 6.6295 8.0911 15.241 12.406 24.875 12.406 16.564 0 30.66-12.366 32.844-14.375 6e-3 -4e-3 -5e-3 -0.0267 0-0.0312 0.02-0.0175 0.0447-0.0453 0.0625-0.0625 0.037-0.03 0.0676-0.0394 0.0937-0.0625 9.7767-8.5962 16.47-10.406 20.375-10.406 3.8049 1e-5 5.7058 1.776 5.7812 1.8438 0.0223 0.0223 0.0274 0.0312 0.0312 0.0312 0.5891 0.57159 1.3601 1.1904 2.0938 1.5938 4.0798 3.7525 11.077 27.574 15.062 51.375 3.0872 22.786 13.362 30.974 20.969 33.906-2.9671 50.19 25.033 70.073 26.281 70.938 0.30032 0.20253 0.60714 0.38923 0.9375 0.5625 5.0686 2.5266 8.7576 3.6562 11.969 3.6562 4.0875 0 7.4565-1.8874 9.25-5.2188 3.0572-5.6477-0.14027-12.698-3.3438-17.594-0.16941-0.26335-0.36305-0.51667-0.5625-0.75-11.743-14.018-1.2648-38.134-1.1562-38.375 0.0978-0.24025 0.195-0.48542 0.28125-0.71875 7.2841-21.854 31.818-29.276 32.062-29.344 0.16173-0.0454 0.36954-0.12743 0.53125-0.1875 2.1323-0.7824 4.5396-1.1562 7.1562-1.1562 13.822 0 28.51 10.527 28.656 10.625 0.2595 0.19558 0.53374 0.37339 0.8125 0.53125 7.4112 4.1214 14.261 6.2188 20.375 6.2188 11.032 1e-5 16.22-6.5233 17.656-8.7188 0.049-0.0707 0.077-0.14802 0.125-0.21875 0.0678-0.1055 0.12745-0.17653 0.1875-0.28125 9.0164-13.644 0.29332-27.309-5.6875-32.719-0.0377-0.03-0.0873-0.095-0.125-0.125-12.152-10.551-26.503-15.875-42.656-15.875-25.997 1e-5 -47.414 14.054-48.312 14.656-8.2832 5.2232-14.792 11.127-19.938 17.25 0.71077-1.226 1.1575-1.9233 1.1875-1.9688 0.0523-0.0824 0.10004-0.19885 0.15625-0.28125 24.388-39.24 79.842-44.143 80.406-44.188 0.28568-0.0223 0.59239-0.0719 0.875-0.125 5.268-1.0073 10.503-1.5312 15.594-1.5312 36.458 8e-3 56.384 25.511 57.219 26.594 0.15016 0.21101 0.3275 0.39815 0.5 0.59375 10.724 11.513 21.819 13.938 29.219 13.938 4.6096 0 8.1284-0.90794 10.031-1.5625 10.626-1.1582 15.946-6.1651 18.562-10.219 5.6477-8.7611 3.032-19.293 2.0625-22.406-4.4449-24.975-34.102-40.093-36.906-41.469-14.108-7.7946-32.434-11.75-54.469-11.75-19.665-1e-5 -37.815 3.143-48.344 5.4062-1.1767-6.1929-3.7057-11.339-7.5938-15.344-5.2033-5.3658-12.423-8.3653-21.5-8.9375 44.952-36.341 50.256-66.537 50.812-71 3.061-16.078 1.243-28.292-5.375-36.312-6.8205-8.269-16.326-9.1875-20.094-9.1875-1.0681 0-1.7717 0.095-2.0312 0.125-0.46665 0.0493-0.90019 0.12217-1.3438 0.25-1.7334-9.6412-5.2292-14.739-6-15.781-0.40275-0.53751-0.84904-1.0437-1.375-1.4688-4.196-3.4029-8.0747-5.4765-11.719-6.2812 1.5871-1.9629 2.2081-4.5818 1.5312-7.0938-0.85709-3.185-3.5884-5.5528-6.875-5.9062-2.82-0.30803-5.5777-0.46875-8.1875-0.46875zm-28.75 135.12c0.61297-4.4934 1.29-9.4826 2-15.062 3.1134-24.418 5.7512-48.533 5.7812-48.781 35.245-95.678 0.92096 44.057-7.7812 63.844z" fill="#fff"/>
<path d="m79.157 70.336s-1.7476 4.9356-2.0508 6.5308c-0.3037 1.5947-0.4555 1.6709-0.4555 1.6709s-0.9117 6.0752 2.2021 7.8979c0 0 0.5317 0.0762 0.6074-3.0376 0 0-0.5312-10.86 1.7466-14.657 0 0 0.6079 0.5317 0.1519 4.1016 0 0-3.0371 17.239 7.2905 16.099 0 0-4.1768-3.0371-4.7085-8.0494 0 0-1.3667-12.454-1.8984-13.138 0 0 0.0761-1.3672 0.6074-0.3042 0 0 4.7847 8.9614 4.8603 12.455 0 0 0.7598 5.0121 0.5318 5.4677 0 0-0.1524 3.2656 2.2778 1.2906 0 0 1.7471-2.3541-0.3037-7.67 0 0-1.4429-4.4047-5.0117-8.809 0 0-1.5952-1.6709 0.3037-0.8355 0 0 7.9741 7.063 6.9101 14.884 0 0 3.4175 0.3799 2.4302-4.708 0 0-0.3789-4.6324-8.2768-10.101 0 0-0.6075-0.6836-0.0762-0.6836 0 0 5.7715 1.9751 5.6196-3.0371 0 0 8.6572 2.4302 13.821-0.4566 0 0 3.7969-1.8222 4.2529-4.707 0 0 0.9873-2.7344-1.8984-2.9629 0 0-2.0508-0.9101-4.1016 1.291 0 0-3.7207 4.9375-10.48 3.6465 0 0-7.7456-0.6074-11.24-6.2285 0 0-2.9609-4.3281-1.2148-9.1875 0 0 0.6836-0.7598 0.5317 1.1387 0 0-0.5317 5.3906 4.5561 8.582 0 0 5.9239 3.9473 10.556-0.0781 0 0 1.5947-1.4414 0.5312-2.961 0 0-0.8349-1.5175-3.5693 0 0 0-3.1133 2.2793-5.6191 1.3672 0 0-3.7212-1.0625-4.8604-4.4804 0 0-1.6704-3.7207 0.3037-6.0762 0 0 1.4434-2.2012-0.9873-0.9863 0 0-3.645 2.5058-2.8857 9.1894 0 0-2.2783-0.2285-2.8096 3.7207 0 0-1.1396 6.834-2.5058 7.4434 0 0-1.5953 1.8218-4.8604-1.0645 0 0-3.5698-3.3418-5.9995-0.3789 0 0-1.8228 3.189 1.4429 5.0874 0 0 3.7207 3.1138 8.8095 0.6836 0 0 3.2652-1.8984 3.189-5.4682 0 0 0.3037-6.2266 1.8984-7.5938 0 0 2.2784-2.1269 1.6709 1.0625 0 0-1.8227 0.4551-1.8989 4.4043 0 0 0.6084 7.2915-3.2651 8.7339 0 0-3.6455 1.3672-4.7842 1.2158 0 0 0.6074 3.2651 4.4043 3.1133 0 0 2.9619-0.4556 4.2534-3.4175" fill="#fecb00" fill-rule="evenodd"/>
<path d="m88.877 64.413s-6.3794-3.7227-7.4424-6.6075c0 0-2.3545 0.6075 0.5318 4.5567 0 0 2.5058 2.6582 6.9106 2.0508" fill="#fff" fill-rule="evenodd"/>
</g>
</g>
</g>
</g>
</g>
</svg>
