<?xml version="1.0" encoding="UTF-8"?>
<svg xmlns="http://www.w3.org/2000/svg" width="675" height="450" viewBox="0 0 225 150">
<clipPath id="r">
<path d="M0,0H225L0,150H225"/>
</clipPath>
<clipPath id="b">
<path d="M0,0V150L225,0V150"/>
</clipPath>
<rect width="225" height="150" fill="#fff"/>
<path d="M0,0 225,150M225,0 0,150" stroke="#ef3340" stroke-width="36" clip-path="url(#r)"/>
<path d="M0,0 225,150M225,0 0,150" stroke="#000" stroke-width="36" clip-path="url(#b)"/>
<path d="M0,0 225,150M225,0 0,150" stroke="#fdda25" stroke-width="12"/>
<g fill="#000">
<path d="M130.404 23.2422l2.5752 -1.705 1.9253 3.6221 -2.9615 0.9082 -1.539 -2.8253zm-13.5187 11.8031c0.1657,0.3305 0.2593,0.702 0.2593,1.0958 0,1.3803 -1.1479,2.4988 -2.5602,2.4988 -0.831,0 -1.5696,-0.3867 -2.0373,-0.9855 -2.3253,1.398 -4.0658,2.4398 -4.5647,2.7279 -1.024,0.5969 -2.053,0.6843 -2.9404,0.3659 -0.3252,0.148 -0.6918,0.2302 -1.074,0.2302 -1.4135,0 -2.5604,-1.1188 -2.5604,-2.4988 0,-0.9924 0.5906,-1.85 1.4532,-2.2542 0.2843,-0.8159 0.8457,-1.4576 1.4135,-1.7127 0.3063,-0.1374 2.3719,-1.0302 5.2227,-2.2583 -0.0645,-0.222 -0.1019,-0.4563 -0.1019,-0.6988 0,-1.3803 1.1468,-2.4987 2.5602,-2.4987 0.926,0 1.7342,0.4791 2.1866,1.1968l15.8834 -6.8355 1.522 2.7926c-0.8172,0.4917 -8.3152,5.0137 -14.662,8.8345z"/>
<path d="M119.831 33.7453c1.0634,0.4468 1.7583,0.7386 1.919,0.8134 0.8709,0.3999 1.5897,1.2917 1.902,2.324 0.5601,0.4582 0.9165,1.1481 0.9165,1.9165 0,1.3803 -1.1469,2.4989 -2.5614,2.4989 -0.2127,0 -0.4197,-0.0252 -0.6177,-0.0729 -1.1336,0.3688 -2.4722,0.2614 -3.5867,-0.3854l-3.0865 -1.8c1.581,-0.0678 2.8425,-1.3405 2.8425,-2.9001 0,-0.3252 -0.0576,-0.6385 -0.1551,-0.9322l2.4274 -1.4622zm-25.9842 -10.7989c1.3102,0.5426 8.9728,3.719 15.9468,6.6158 -0.5031,0.5198 -0.8114,1.2221 -0.8114,1.9937 0,0.1575 0.0126,0.3126 0.0374,0.4635l-3.6342 1.5688 -13.1468 -7.6822 1.6082 -2.9596zm-2.6378 -1.9146l2.2728 1.7064 -1.627 2.9906 -2.7575 -0.9823 2.1117 -3.7147z"/>
<ellipse cx="112.423" cy="24.0132" rx="8.15072" ry="1.37595"/>
<path d="M119.184 20.6307c0.6323,0.1449 1.2708,0.3114 1.9127,0.5031 0.6228,-1.1574 1.7925,-3.5728 1.8271,-5.422 0.048,-2.522 -1.9189,-2.2334 -2.2543,-0.5957 -0.3,1.4544 -0.7115,3.7355 -1.4855,5.5146zm-15.1772 0.15c0.7949,-0.174 1.65,-0.3373 2.5563,-0.4771 -1.5126,-2.3627 -2.0658,-4.5083 -1.9335,-6.0812 -0.5499,-0.5719 -1.2228,-0.9063 -2.0031,-0.6177 -1.957,0.7209 0.0315,5.4887 1.3803,7.176zm4.5669 -0.733c0.8583,-0.0867 1.752,-0.1469 2.6721,-0.1721 0.15,-4.4905 -0.6625,-6.7665 -2.5126,-6.5469 -1.6377,0.195 -1.5138,3.7146 -0.1595,6.719zm5.2685 -0.1437c1.0868,0.0543 2.2032,0.1645 3.3407,0.3436 0.6,-2.3082 1.5094,-6.9196 -0.7425,-7.0563 -3.045,-0.1866 -2.6906,4.7135 -2.5982,6.7127zm-9.9936 3.1905c0,0 -4.6665,-4.0811 -4.6043,-7.7031 0.0468,-2.7051 2.7708,-4.8146 6.248,-3.2094 0.9519,-1.547 4.174,-1.9013 5.5803,-0.9386 -0.1449,-0.2677 -0.2261,-0.5728 -0.2261,-0.8958 0,-0.624 0.3044,-1.1779 0.7752,-1.5303l0 -0.0739 -2.0908 0 0 -2.2013 2.0905 0 0 -1.0999 2.3969 0 0 1.0999 2.0906 0 0 2.2013 -2.0906 0 0 0.0739c0.4709,0.3521 0.7752,0.9063 0.7752,1.5303 0,0.3356 -0.0886,0.6513 -0.2425,0.9261 1.5,-0.876 4.3563,-0.7698 5.1291,1.3665 2.352,-2.0178 6.1074,-0.8251 5.6842,2.3385 -0.3397,2.5602 -1.8792,6.1898 -3.6177,8.4374 -8.2669,-2.2007 -14.3271,-1.1007 -17.898,-0.3216z"/>
</g>
<g fill="#000">
<path d="M120.195 139.13c0.9114,-0.3698 1.7666,-0.7665 2.3334,-1.0697 -0.0405,-0.3133 -0.4708,-0.5469 -0.5488,-1.0968 1.2543,-0.5488 4.1532,-2.2342 4.3126,-2.352 0.1146,1.0988 0.1146,4.1133 -0.0397,4.7792 -0.5489,0.0405 -0.5874,0.1582 -1.452,0 -0.4791,0.6633 -2.5052,2.25 -5.2842,3.481 0.298,-0.6511 0.5062,-1.3708 0.6252,-2.1543 0.0858,-0.5905 0.1003,-1.1178 0.0535,-1.5874zm-5.7145 -11.7272c0.3487,5.3595 0.7011,10.7583 0.7219,11.3627 0.0375,1.1353 0.9,1.6842 2.4666,1.2531 0.326,-0.0899 0.6803,-0.2012 1.0457,-0.3272 0,0.2417 -0.0221,0.5102 -0.0647,0.8051 -0.2043,1.3791 -0.7479,2.4925 -1.5916,3.2811 -1.3874,0.4114 -2.8779,0.6835 -4.4031,0.7063 -0.0543,-0.0208 -0.2596,-0.0208 -0.3134,0 -5.919,-0.0772 -11.3229,-3.9574 -12.1449,-5.0968 -0.8627,0.1582 -0.9012,0.0405 -1.4532,0 -0.1544,-0.6657 -0.1544,-3.678 -0.0374,-4.7792 0.1551,0.1178 3.0575,1.802 4.3115,2.3544 -0.078,0.5448 -0.5096,0.7835 -0.5481,1.0968 1.0968,0.5855 3.2905,1.5279 4.8574,1.9595 1.5678,0.4311 2.4291,-0.1178 2.4689,-1.2531 0.0178,-0.5166 0.2791,-4.5596 0.574,-9.0773 0.5583,-0.4416 1.352,-0.8979 2.4958,-1.4499 0.5949,-0.2874 1.1311,-0.5653 1.6146,-0.8355zm-0.6875 -10.7727c0.0645,1.1821 0.3102,4.975 0.5792,9.098 -0.5886,0.3582 -1.3032,0.7405 -2.1575,1.1551 -0.6635,0.3197 -1.2323,0.6197 -1.7178,0.9114 0.3166,-4.8615 0.6375,-9.7874 0.7158,-11.1657l0.5074 -0.4311 1.5667 0 0.5062 0.4323z"/>
<path d="M109.071 114.298c0,-1.8937 1.5373,-3.4279 3.4279,-3.4279 1.8926,0 3.428,1.5342 3.428,3.4279 0,0.3989 -0.0678,0.7823 -0.1926,1.1385 -0.2665,-0.2208 -0.529,-0.4279 -0.7854,-0.6219 -0.3574,-0.2697 -0.6792,-0.5335 -0.9897,-0.8064 -0.1374,-0.6834 -0.7374,-1.1988 -1.4603,-1.1988 -0.8221,0 -1.4886,0.6666 -1.4886,1.4898 0,0.822 0.6665,1.4886 1.4886,1.4886 0.3311,0 0.6386,-0.1083 0.8887,-0.2925 0.2074,0.174 0.4258,0.3456 0.6594,0.5208 0.3031,0.2292 0.5956,0.4658 0.8779,0.7074 -0.622,0.621 -1.476,1.0044 -2.424,1.0044 -1.8945,-0.0019 -3.4299,-1.5361 -3.4299,-3.4299z"/>
<path d="M110.469 122.367l-6.6645 -0.724 0 -1.8803 6.8779 -0.6792 -0.2134 3.2835zm10.7271 -2.6043l0 1.8803 -6.6657 0.724 -0.2103 -3.2835 6.876 0.6792z"/>
<path d="M115.421 136.118c0.6519,0.022 1.2999,0.0834 1.9365,0.252 1.6626,0.4417 2.8044,1.6134 2.4084,4.2904 -0.4426,2.9823 -2.3013,5.0033 -5.1804,5.4899 -0.5062,0.0853 -0.8365,0.081 -0.8365,0.081l0.0051 -0.7512c0,0 0.2791,0 0.7063,-0.0708 2.5602,-0.4335 4.1676,-2.2011 4.5602,-4.8582 0.4563,-3.0584 -1.4343,-3.6032 -3.5543,-3.6867l-0.0453 -0.7464zm3.0248 -13.7969c-0.2135,1.8574 -1.2761,3.419 -5.7425,5.5772 -3.4103,1.648 -3.8855,2.5366 -4.1387,4.6822 -0.1093,0.9335 0.2697,1.8419 1.0791,2.4981l-0.0562 0.8792c-1.2519,-0.7917 -1.9406,-2.0406 -1.7729,-3.4665 0.2918,-2.4773 0.9969,-3.5489 4.5594,-5.2697 2.8084,-1.3575 4.1407,-2.4167 4.7741,-3.4001 0.3,-0.4645 0.4563,-0.9228 0.5292,-1.4166l0.7685 -0.0838zm-5.8658 -9.1322c0.6804,0.7229 1.3311,1.3103 2.1449,1.926 1.3543,1.022 2.8032,2.3582 3.4335,3.9708l-0.8574 -0.0843c-0.6075,-1.2417 -1.7843,-2.3467 -3.0273,-3.2866 -0.95,-0.7188 -1.6905,-1.4051 -2.4823,-2.2728 0.1937,-0.1595 0.4406,-0.2562 0.7115,-0.2562l0.0771 0.0031zm-2.6457 -3.1417l0.7374 0.9145c-0.222,0.1221 -0.4302,0.2646 -0.6221,0.4272l-0.703 -0.8709 0.5877 -0.4708z"/>
</g>
</svg>