<?xml version="1.0" encoding="UTF-8" ?>
<!DOCTYPE svg PUBLIC "-//W3C//DTD SVG 1.1//EN" "http://www.w3.org/Graphics/SVG/1.1/DTD/svg11.dtd">
<svg width="320pt" height="175pt" viewBox="0 0 2292 1252" version="1.1" xmlns="http://www.w3.org/2000/svg">
<g id="f099137ff">
<path fill="#099137" opacity="1.00" d=" M 0.00 0.00 L 2292.00 0.00 L 2292.00 -0.00 C 2290.21 1.18 2287.95 0.46 2285.99 0.65 C 1525.31 0.62 764.63 0.66 3.95 0.63 C 2.63 0.63 1.31 0.75 0.00 0.97 L 0.00 0.00 Z" />
<path fill="#099137" opacity="1.00" d=" M 1128.54 449.79 C 1172.71 445.31 1218.39 458.19 1253.54 485.38 C 1284.99 509.36 1308.09 544.14 1317.64 582.56 C 1328.97 626.90 1322.39 675.61 1299.17 715.12 C 1278.15 751.58 1243.67 780.05 1203.84 793.68 C 1160.43 808.83 1111.14 806.18 1069.67 786.27 C 1032.71 768.78 1002.25 738.06 985.09 700.95 C 965.09 658.40 963.27 607.78 979.87 563.83 C 994.06 525.76 1021.86 493.00 1057.06 472.72 C 1078.85 460.03 1103.43 452.17 1128.54 449.79 M 1113.05 468.49 C 1116.01 469.15 1119.07 468.87 1122.10 469.14 C 1133.62 469.57 1145.10 471.46 1156.15 474.76 C 1193.86 485.77 1226.19 513.64 1242.67 549.30 C 1261.57 589.08 1259.91 637.87 1238.23 676.24 C 1220.27 708.72 1188.81 733.44 1152.93 743.01 C 1128.81 749.51 1102.94 749.44 1078.87 742.75 C 1041.05 732.43 1008.38 705.21 991.20 670.00 C 1002.59 711.32 1031.64 747.31 1069.39 767.55 C 1108.25 788.82 1156.07 792.62 1197.90 778.16 C 1237.27 764.87 1270.81 735.47 1289.35 698.31 C 1309.01 659.59 1311.73 612.76 1297.01 571.94 C 1283.85 534.77 1256.37 503.00 1221.57 484.49 C 1198.17 471.85 1171.55 465.44 1144.99 465.49 C 1134.26 465.49 1123.64 467.04 1113.05 468.49 M 1116.09 485.07 C 1108.08 491.89 1100.13 498.80 1092.05 505.55 C 1082.17 499.63 1072.46 493.43 1062.52 487.62 C 1065.91 498.57 1071.76 509.14 1075.22 520.00 C 1066.70 527.62 1057.53 534.62 1049.35 542.53 C 1060.86 542.07 1072.36 540.72 1083.88 540.01 C 1088.28 550.67 1092.67 561.34 1097.16 571.97 C 1098.50 571.32 1097.89 569.24 1098.50 568.04 C 1100.81 558.15 1103.38 548.31 1105.51 538.38 C 1116.90 537.27 1128.34 536.39 1139.77 535.65 C 1139.96 534.27 1138.39 534.03 1137.56 533.40 C 1128.64 528.00 1119.76 522.52 1110.86 517.08 C 1113.29 505.69 1116.12 494.34 1118.96 483.03 C 1117.76 483.31 1117.01 484.36 1116.09 485.07 M 1195.15 568.62 C 1185.22 562.71 1175.48 556.47 1165.51 550.63 C 1169.12 561.59 1174.59 572.11 1178.39 583.04 C 1169.60 590.63 1160.55 597.97 1152.01 605.81 C 1163.65 604.91 1175.28 603.98 1186.92 603.03 C 1191.33 613.60 1195.62 624.23 1200.13 634.76 L 1200.76 634.95 C 1203.41 623.73 1205.74 612.27 1209.02 601.29 C 1220.32 600.47 1231.60 599.37 1242.91 598.70 C 1242.86 597.11 1241.08 596.93 1240.07 596.15 C 1231.36 590.74 1222.52 585.54 1213.87 580.03 C 1216.25 568.72 1219.54 557.56 1221.67 546.22 C 1212.61 553.39 1204.07 561.26 1195.15 568.62 M 1029.04 608.58 C 1020.53 603.62 1012.22 598.31 1003.79 593.23 C 1002.26 592.40 1000.94 591.03 999.13 591.01 C 1003.62 601.33 1007.65 611.85 1012.21 622.13 C 1011.93 624.17 1009.54 624.95 1008.29 626.38 C 1001.06 632.91 993.11 638.79 986.27 645.65 C 997.81 645.08 1009.32 643.81 1020.86 643.09 C 1024.64 652.59 1028.71 661.97 1032.55 671.45 C 1033.10 672.70 1033.40 674.24 1034.66 675.04 C 1036.96 663.76 1040.03 652.65 1042.50 641.41 C 1053.95 640.41 1065.43 639.35 1076.92 638.76 C 1076.66 637.48 1075.38 637.07 1074.44 636.45 C 1066.41 631.56 1058.41 626.61 1050.36 621.76 C 1049.40 621.04 1047.70 620.66 1047.80 619.16 C 1050.48 608.20 1053.33 597.24 1055.55 586.20 C 1046.50 593.38 1037.98 601.25 1029.04 608.58 M 1132.06 671.69 C 1125.47 667.72 1118.92 663.70 1112.37 659.66 C 1108.95 657.86 1105.91 655.08 1102.20 654.02 C 1106.66 664.65 1111.08 675.30 1115.45 685.97 C 1106.76 693.66 1097.42 700.84 1089.16 708.87 C 1100.76 708.14 1112.40 706.62 1123.97 706.40 C 1128.04 716.25 1132.16 726.08 1136.20 735.94 C 1136.43 736.81 1136.92 737.53 1137.64 738.10 C 1140.12 726.87 1143.06 715.74 1145.55 704.51 C 1156.99 703.40 1168.50 702.53 1179.98 701.76 L 1179.89 701.11 C 1170.45 694.88 1160.32 689.43 1151.04 683.08 C 1152.89 671.78 1156.64 660.67 1158.55 649.38 C 1149.49 656.48 1140.99 664.38 1132.06 671.69 Z" />
<path fill="#099137" opacity="1.00" d=" M 0.00 1251.33 C 8.98 1250.74 18.04 1251.06 27.02 1251.49 C 779.01 1251.48 1531.01 1251.49 2283.00 1251.49 C 2285.95 1251.17 2289.22 1252.13 2292.00 1250.97 L 2292.00 1252.00 L 0.00 1252.00 L 0.00 1251.33 Z" />
</g>
<g id="f0038a8ff">
<path fill="#0038a8" opacity="1.00" d=" M 0.00 0.97 C 1.31 0.75 2.63 0.63 3.95 0.63 C 764.63 0.66 1525.31 0.62 2285.99 0.65 C 2287.95 0.46 2290.21 1.18 2292.00 -0.00 L 2292.00 417.96 L 2291.70 418.08 C 2086.49 417.89 1881.27 418.05 1676.05 418.00 C 1117.36 418.00 558.68 418.00 0.00 418.00 L 0.00 0.97 M 412.28 76.42 C 401.25 110.14 390.35 143.91 379.35 177.65 L 378.96 177.95 C 343.47 178.09 307.98 177.93 272.49 178.03 C 272.95 178.45 273.87 179.30 274.33 179.72 C 302.45 200.12 330.52 220.60 358.67 240.96 C 348.26 273.87 337.32 306.66 326.79 339.56 C 326.40 340.66 326.08 341.82 325.40 342.80 C 327.04 342.67 328.10 341.36 329.38 340.51 C 356.41 320.83 383.49 301.22 410.52 281.54 C 411.31 281.15 412.29 279.70 413.22 280.64 C 441.54 301.31 470.07 321.72 498.25 342.57 L 499.28 342.46 C 488.13 308.69 477.20 274.84 466.29 240.99 C 489.63 224.12 512.88 207.13 536.21 190.24 C 541.62 186.11 547.52 182.38 552.63 178.03 C 517.07 177.91 481.50 178.12 445.95 177.92 L 445.62 177.56 C 434.66 143.66 423.46 109.84 412.68 75.89 L 412.28 76.42 Z" />
</g>
<g id="fcd116ff">
<path fill="#fcd116" opacity="1.00" d=" M 412.28 76.42 L 412.68 75.89 C 423.46 109.84 434.66 143.66 445.62 177.56 L 445.95 177.92 C 481.50 178.12 517.07 177.91 552.63 178.03 C 547.52 182.38 541.62 186.11 536.21 190.24 C 512.88 207.13 489.63 224.12 466.29 240.99 C 477.20 274.84 488.13 308.69 499.28 342.46 L 498.25 342.57 C 470.07 321.72 441.54 301.31 413.22 280.64 C 412.29 279.70 411.31 281.15 410.52 281.54 C 383.49 301.22 356.41 320.83 329.38 340.51 C 328.10 341.36 327.04 342.67 325.40 342.80 C 326.08 341.82 326.40 340.66 326.79 339.56 C 337.32 306.66 348.26 273.87 358.67 240.96 C 330.52 220.60 302.45 200.12 274.33 179.72 C 273.87 179.30 272.95 178.45 272.49 178.03 C 307.98 177.93 343.47 178.09 378.96 177.95 L 379.35 177.65 C 390.35 143.91 401.25 110.14 412.28 76.42 Z" />
<path fill="#fcd116" opacity="1.00" d=" M 1113.05 468.49 C 1123.64 467.04 1134.26 465.49 1144.99 465.49 C 1171.55 465.44 1198.17 471.85 1221.57 484.49 C 1256.37 503.00 1283.85 534.77 1297.01 571.94 C 1311.73 612.76 1309.01 659.59 1289.35 698.31 C 1270.81 735.47 1237.27 764.87 1197.90 778.16 C 1156.07 792.62 1108.25 788.82 1069.39 767.55 C 1031.64 747.31 1002.59 711.32 991.20 670.00 C 1008.38 705.21 1041.05 732.43 1078.87 742.75 C 1102.94 749.44 1128.81 749.51 1152.93 743.01 C 1188.81 733.44 1220.27 708.72 1238.23 676.24 C 1259.91 637.87 1261.57 589.08 1242.67 549.30 C 1226.19 513.64 1193.86 485.77 1156.15 474.76 C 1145.10 471.46 1133.62 469.57 1122.10 469.14 C 1119.07 468.87 1116.01 469.15 1113.05 468.49 Z" />
<path fill="#fcd116" opacity="1.00" d=" M 1116.09 485.07 C 1117.01 484.36 1117.76 483.31 1118.96 483.03 C 1116.12 494.34 1113.29 505.69 1110.86 517.08 C 1119.76 522.52 1128.64 528.00 1137.56 533.40 C 1138.39 534.03 1139.96 534.27 1139.77 535.65 C 1128.34 536.39 1116.90 537.27 1105.51 538.38 C 1103.38 548.31 1100.81 558.15 1098.50 568.04 C 1097.89 569.24 1098.50 571.32 1097.16 571.97 C 1092.67 561.34 1088.28 550.67 1083.88 540.01 C 1072.36 540.72 1060.86 542.07 1049.35 542.53 C 1057.53 534.62 1066.70 527.62 1075.22 520.00 C 1071.76 509.14 1065.91 498.57 1062.52 487.62 C 1072.46 493.43 1082.17 499.63 1092.05 505.55 C 1100.13 498.80 1108.08 491.89 1116.09 485.07 Z" />
<path fill="#fcd116" opacity="1.00" d=" M 1195.15 568.62 C 1204.07 561.26 1212.61 553.39 1221.67 546.22 C 1219.54 557.56 1216.25 568.72 1213.87 580.03 C 1222.52 585.54 1231.36 590.74 1240.07 596.15 C 1241.08 596.93 1242.86 597.11 1242.91 598.70 C 1231.60 599.37 1220.32 600.47 1209.02 601.29 C 1205.74 612.27 1203.41 623.73 1200.76 634.95 L 1200.13 634.76 C 1195.62 624.23 1191.33 613.60 1186.92 603.03 C 1175.28 603.98 1163.65 604.91 1152.01 605.81 C 1160.55 597.97 1169.60 590.63 1178.39 583.04 C 1174.59 572.11 1169.12 561.59 1165.51 550.63 C 1175.48 556.47 1185.22 562.71 1195.15 568.62 Z" />
<path fill="#fcd116" opacity="1.00" d=" M 1029.04 608.58 C 1037.98 601.25 1046.50 593.38 1055.55 586.20 C 1053.33 597.24 1050.48 608.20 1047.80 619.16 C 1047.70 620.66 1049.40 621.04 1050.36 621.76 C 1058.41 626.61 1066.41 631.56 1074.44 636.45 C 1075.38 637.07 1076.66 637.48 1076.92 638.76 C 1065.43 639.35 1053.95 640.41 1042.50 641.41 C 1040.03 652.65 1036.96 663.76 1034.66 675.04 C 1033.40 674.24 1033.10 672.70 1032.55 671.45 C 1028.71 661.97 1024.64 652.59 1020.86 643.09 C 1009.32 643.81 997.81 645.08 986.27 645.65 C 993.11 638.79 1001.06 632.91 1008.29 626.38 C 1009.54 624.95 1011.93 624.17 1012.21 622.13 C 1007.65 611.85 1003.62 601.33 999.13 591.01 C 1000.94 591.03 1002.26 592.40 1003.79 593.23 C 1012.22 598.31 1020.53 603.62 1029.04 608.58 Z" />
<path fill="#fcd116" opacity="1.00" d=" M 1132.06 671.69 C 1140.99 664.38 1149.49 656.48 1158.55 649.38 C 1156.64 660.67 1152.89 671.78 1151.04 683.08 C 1160.32 689.43 1170.45 694.88 1179.89 701.11 L 1179.98 701.76 C 1168.50 702.53 1156.99 703.40 1145.55 704.51 C 1143.06 715.74 1140.12 726.87 1137.64 738.10 C 1136.92 737.53 1136.43 736.81 1136.20 735.94 C 1132.16 726.08 1128.04 716.25 1123.97 706.40 C 1112.40 706.62 1100.76 708.14 1089.16 708.87 C 1097.42 700.84 1106.76 693.66 1115.45 685.97 C 1111.08 675.30 1106.66 664.65 1102.20 654.02 C 1105.91 655.08 1108.95 657.86 1112.37 659.66 C 1118.92 663.70 1125.47 667.72 1132.06 671.69 Z" />
</g>
<g id="ffffffff">
<path fill="#ffffff" opacity="1.00" d=" M 0.00 418.00 C 558.68 418.00 1117.36 418.00 1676.05 418.00 C 1881.27 418.05 2086.49 417.89 2291.70 418.08 C 2291.71 556.91 2291.68 695.73 2291.72 834.56 C 1874.48 834.42 1457.25 834.54 1040.02 834.50 C 731.33 834.50 422.63 834.50 113.94 834.50 C 75.96 834.40 37.96 834.70 0.00 834.35 L 0.00 418.00 M 1128.54 449.79 C 1103.43 452.17 1078.85 460.03 1057.06 472.72 C 1021.86 493.00 994.06 525.76 979.87 563.83 C 963.27 607.78 965.09 658.40 985.09 700.95 C 1002.25 738.06 1032.71 768.78 1069.67 786.27 C 1111.14 806.18 1160.43 808.83 1203.84 793.68 C 1243.67 780.05 1278.15 751.58 1299.17 715.12 C 1322.39 675.61 1328.97 626.90 1317.64 582.56 C 1308.09 544.14 1284.99 509.36 1253.54 485.38 C 1218.39 458.19 1172.71 445.31 1128.54 449.79 Z" />
</g>
<g id="ce1126ff">
<path fill="#ce1126" opacity="1.00" d=" M 2291.70 418.08 L 2292.00 417.96 L 2292.00 1250.97 C 2289.22 1252.13 2285.95 1251.17 2283.00 1251.49 C 1531.01 1251.49 779.01 1251.48 27.02 1251.49 C 18.04 1251.06 8.98 1250.74 0.00 1251.33 L 0.00 834.35 C 37.96 834.70 75.96 834.40 113.94 834.50 C 422.63 834.50 731.33 834.50 1040.02 834.50 C 1457.25 834.54 1874.48 834.42 2291.72 834.56 C 2291.68 695.73 2291.71 556.91 2291.70 418.08 M 474.05 901.02 C 478.34 915.14 482.39 929.36 485.30 943.85 C 487.76 958.87 490.80 973.83 492.08 989.02 C 492.68 997.47 493.29 1006.15 491.20 1014.45 C 489.78 1014.53 488.36 1014.53 486.95 1014.45 C 482.19 1011.76 477.81 1008.36 472.93 1005.96 C 467.63 1007.90 463.08 1011.77 458.06 1014.45 C 454.07 1014.49 450.07 1014.59 446.10 1014.41 C 441.31 1011.71 436.81 1008.50 431.95 1005.95 C 426.04 1008.11 420.59 1011.65 414.89 1014.42 C 410.26 1014.59 405.61 1014.46 400.97 1014.49 C 395.82 1011.99 391.40 1007.76 386.02 1005.97 C 380.58 1008.59 375.34 1011.59 369.94 1014.29 C 364.65 1014.51 358.55 1015.56 354.15 1011.82 C 346.40 1005.55 344.29 994.50 345.60 985.07 C 347.72 975.33 354.19 967.39 359.17 959.00 C 357.43 954.98 355.71 950.95 353.99 946.94 C 343.48 950.25 333.50 955.23 324.03 960.86 C 310.08 969.22 298.36 981.23 290.49 995.48 C 284.87 1005.94 279.74 1017.01 278.32 1028.92 C 276.32 1044.49 279.63 1060.29 285.32 1074.77 C 290.59 1087.42 291.27 1101.77 287.98 1115.01 C 286.51 1120.72 282.77 1125.59 280.66 1130.94 C 283.73 1135.76 286.58 1140.72 289.53 1145.61 C 290.16 1146.34 290.40 1148.06 291.71 1147.80 C 305.88 1135.40 320.88 1123.74 334.77 1111.15 C 331.21 1104.63 327.56 1098.13 324.69 1091.27 C 322.39 1085.22 323.07 1077.52 327.95 1072.89 C 330.72 1069.85 334.99 1069.08 338.88 1068.54 C 348.86 1067.41 358.92 1067.79 368.94 1067.79 C 373.75 1070.88 378.27 1074.41 383.12 1077.44 C 384.94 1078.07 386.35 1076.55 387.84 1075.81 C 392.23 1073.16 396.68 1070.60 401.06 1067.94 C 405.67 1067.64 410.40 1067.58 414.99 1067.97 C 419.34 1071.13 423.70 1074.27 428.10 1077.36 C 428.58 1077.40 429.53 1077.47 430.00 1077.51 C 435.46 1074.52 440.60 1070.92 446.02 1067.83 C 448.65 1067.75 451.35 1067.53 453.97 1067.95 C 459.03 1071.01 464.03 1074.19 469.09 1077.28 C 470.89 1078.24 472.47 1076.72 473.96 1075.90 C 478.66 1073.26 483.14 1070.25 487.91 1067.75 C 490.96 1068.68 489.99 1072.62 490.49 1075.05 C 490.00 1089.70 488.46 1104.30 487.22 1118.92 C 485.61 1141.14 480.14 1163.22 470.31 1183.25 L 470.28 1184.65 C 481.64 1183.95 493.09 1183.07 504.12 1180.10 C 512.31 1177.11 521.09 1173.93 526.90 1167.09 C 528.88 1165.04 528.47 1162.15 528.55 1159.58 C 536.41 1159.39 543.30 1154.98 549.71 1150.87 C 557.83 1145.57 562.71 1135.81 561.82 1126.13 C 566.24 1125.74 569.99 1123.02 573.20 1120.16 C 581.36 1111.83 586.10 1100.41 586.87 1088.83 C 594.65 1088.63 602.59 1088.35 610.12 1090.71 C 624.58 1094.65 639.20 1098.15 654.03 1100.35 C 679.94 1103.28 705.97 1099.07 731.40 1094.26 C 751.57 1089.92 772.32 1086.73 792.97 1088.95 C 808.52 1090.37 823.51 1095.12 838.98 1097.08 C 859.08 1099.69 879.38 1096.72 898.95 1092.05 C 912.75 1089.15 926.93 1087.33 941.05 1088.28 C 955.22 1089.00 969.04 1092.51 983.09 1094.22 C 1007.38 1097.36 1032.00 1094.64 1055.85 1089.66 C 1076.13 1084.95 1097.13 1082.35 1117.90 1084.96 C 1130.69 1086.48 1143.26 1089.52 1156.09 1090.80 C 1180.20 1093.48 1204.54 1090.53 1228.19 1085.63 C 1248.49 1081.43 1269.38 1078.83 1290.09 1081.11 C 1305.12 1082.61 1319.85 1086.32 1334.92 1087.53 C 1358.74 1089.76 1382.66 1086.55 1406.02 1081.97 C 1427.30 1077.64 1449.22 1075.17 1470.89 1077.78 C 1486.30 1079.60 1501.49 1083.29 1517.04 1083.98 C 1538.82 1085.21 1560.59 1082.15 1581.94 1078.03 C 1596.41 1075.37 1611.20 1073.82 1625.91 1074.84 C 1650.18 1076.38 1673.46 1085.42 1697.94 1085.00 C 1723.03 1085.51 1747.25 1078.15 1771.97 1075.12 C 1790.52 1072.58 1809.39 1071.77 1828.02 1073.96 C 1840.64 1075.43 1853.25 1077.62 1866.00 1077.50 C 1880.57 1077.75 1895.09 1075.97 1909.44 1073.55 C 1944.18 1067.06 1979.02 1060.98 2013.89 1055.33 C 2008.32 1047.45 2000.06 1041.90 1991.69 1037.35 C 1973.38 1027.92 1952.45 1024.72 1932.04 1025.00 C 1921.62 1024.86 1911.29 1026.46 1900.92 1027.06 C 1888.14 1027.91 1875.25 1027.44 1862.63 1025.24 C 1846.58 1022.40 1831.31 1016.15 1815.09 1014.20 C 1791.42 1011.15 1767.53 1014.34 1744.18 1018.36 C 1728.47 1020.90 1712.44 1021.91 1696.59 1020.22 C 1674.16 1017.79 1652.75 1008.73 1629.97 1009.00 C 1616.55 1008.66 1603.19 1010.37 1590.05 1012.93 C 1569.41 1017.24 1548.19 1020.47 1527.09 1018.27 C 1513.13 1016.99 1499.63 1012.95 1485.82 1010.78 C 1463.62 1007.19 1440.92 1009.25 1418.94 1013.35 C 1397.94 1017.34 1376.37 1019.88 1355.05 1017.23 C 1339.81 1015.37 1325.14 1010.59 1310.01 1008.20 C 1285.81 1004.14 1261.10 1005.66 1236.89 1008.81 C 1215.40 1011.89 1193.55 1014.12 1171.89 1011.62 C 1157.50 1010.11 1143.46 1006.23 1129.02 1005.04 C 1106.89 1003.10 1084.72 1006.22 1062.99 1010.20 C 1042.58 1013.53 1021.57 1015.72 1001.07 1011.87 C 986.92 1009.32 973.41 1003.82 959.06 1002.25 C 944.78 1000.64 930.31 1001.52 916.12 1003.65 C 893.59 1007.41 870.73 1011.75 847.80 1009.36 C 836.02 1008.27 824.70 1004.62 813.10 1002.52 C 790.88 998.48 768.14 1000.96 746.02 1004.45 C 722.62 1008.45 698.66 1011.98 674.99 1008.45 C 662.76 1006.76 651.13 1002.19 638.86 1000.78 C 624.63 998.72 610.31 997.09 595.93 996.99 C 592.48 996.94 589.55 994.91 587.02 992.79 C 586.57 983.79 582.46 975.20 576.54 968.48 C 572.57 964.11 567.12 961.55 561.87 959.08 C 562.76 953.59 558.13 949.83 554.83 946.18 C 547.27 939.02 538.28 933.16 528.43 929.74 C 528.40 927.94 528.99 925.84 527.58 924.41 C 521.99 917.15 513.95 912.20 505.78 908.31 C 495.67 904.31 484.85 902.02 474.05 901.02 Z" />
</g>
<g id="ccccccff">
<path fill="#cccccc" opacity="1.00" d=" M 474.05 901.02 C 484.85 902.02 495.67 904.31 505.78 908.31 C 513.95 912.20 521.99 917.15 527.58 924.41 C 528.99 925.84 528.40 927.94 528.43 929.74 C 538.28 933.16 547.27 939.02 554.83 946.18 C 558.13 949.83 562.76 953.59 561.87 959.08 C 567.12 961.55 572.57 964.11 576.54 968.48 C 582.46 975.20 586.57 983.79 587.02 992.79 C 589.55 994.91 592.48 996.94 595.93 996.99 C 610.31 997.09 624.63 998.72 638.86 1000.78 C 651.13 1002.19 662.76 1006.76 674.99 1008.45 C 698.66 1011.98 722.62 1008.45 746.02 1004.45 C 768.14 1000.96 790.88 998.48 813.10 1002.52 C 824.70 1004.62 836.02 1008.27 847.80 1009.36 C 870.73 1011.75 893.59 1007.41 916.12 1003.65 C 930.31 1001.52 944.78 1000.64 959.06 1002.25 C 973.41 1003.82 986.92 1009.32 1001.07 1011.87 C 1021.57 1015.72 1042.58 1013.53 1062.99 1010.20 C 1084.72 1006.22 1106.89 1003.10 1129.02 1005.04 C 1143.46 1006.23 1157.50 1010.11 1171.89 1011.62 C 1193.55 1014.12 1215.40 1011.89 1236.89 1008.81 C 1261.10 1005.66 1285.81 1004.14 1310.01 1008.20 C 1325.14 1010.59 1339.81 1015.37 1355.05 1017.23 C 1376.37 1019.88 1397.94 1017.34 1418.94 1013.35 C 1440.92 1009.25 1463.62 1007.19 1485.82 1010.78 C 1499.63 1012.95 1513.13 1016.99 1527.09 1018.27 C 1548.19 1020.47 1569.41 1017.24 1590.05 1012.93 C 1603.19 1010.37 1616.55 1008.66 1629.97 1009.00 C 1652.75 1008.73 1674.16 1017.79 1696.59 1020.22 C 1712.44 1021.91 1728.47 1020.90 1744.18 1018.36 C 1767.53 1014.34 1791.42 1011.15 1815.09 1014.20 C 1831.31 1016.15 1846.58 1022.40 1862.63 1025.24 C 1875.25 1027.44 1888.14 1027.91 1900.92 1027.06 C 1911.29 1026.46 1921.62 1024.86 1932.04 1025.00 C 1952.45 1024.72 1973.38 1027.92 1991.69 1037.35 C 2000.06 1041.90 2008.32 1047.45 2013.89 1055.33 C 1979.02 1060.98 1944.18 1067.06 1909.44 1073.55 C 1895.09 1075.97 1880.57 1077.75 1866.00 1077.50 C 1853.25 1077.62 1840.64 1075.43 1828.02 1073.96 C 1809.39 1071.77 1790.52 1072.58 1771.97 1075.12 C 1747.25 1078.15 1723.03 1085.51 1697.94 1085.00 C 1673.46 1085.42 1650.18 1076.38 1625.91 1074.84 C 1611.20 1073.82 1596.41 1075.37 1581.94 1078.03 C 1560.59 1082.15 1538.82 1085.21 1517.04 1083.98 C 1501.49 1083.29 1486.30 1079.60 1470.89 1077.78 C 1449.22 1075.17 1427.30 1077.64 1406.02 1081.97 C 1382.66 1086.55 1358.74 1089.76 1334.92 1087.53 C 1319.85 1086.32 1305.12 1082.61 1290.09 1081.11 C 1269.38 1078.83 1248.49 1081.43 1228.19 1085.63 C 1204.54 1090.53 1180.20 1093.48 1156.09 1090.80 C 1143.26 1089.52 1130.69 1086.48 1117.90 1084.96 C 1097.13 1082.35 1076.13 1084.95 1055.85 1089.66 C 1032.00 1094.64 1007.38 1097.36 983.09 1094.22 C 969.04 1092.51 955.22 1089.00 941.05 1088.28 C 926.93 1087.33 912.75 1089.15 898.95 1092.05 C 879.38 1096.72 859.08 1099.69 838.98 1097.08 C 823.51 1095.12 808.52 1090.37 792.97 1088.95 C 772.32 1086.73 751.57 1089.92 731.40 1094.26 C 705.97 1099.07 679.94 1103.28 654.03 1100.35 C 639.20 1098.15 624.58 1094.65 610.12 1090.71 C 602.59 1088.35 594.65 1088.63 586.87 1088.83 C 586.10 1100.41 581.36 1111.83 573.20 1120.16 C 569.99 1123.02 566.24 1125.74 561.82 1126.13 C 562.71 1135.81 557.83 1145.57 549.71 1150.87 C 543.30 1154.98 536.41 1159.39 528.55 1159.58 C 528.47 1162.15 528.88 1165.04 526.90 1167.09 C 521.09 1173.93 512.31 1177.11 504.12 1180.10 C 493.09 1183.07 481.64 1183.95 470.28 1184.65 L 470.31 1183.25 C 480.14 1163.22 485.61 1141.14 487.22 1118.92 C 488.46 1104.30 490.00 1089.70 490.49 1075.05 C 489.99 1072.62 490.96 1068.68 487.91 1067.75 C 483.14 1070.25 478.66 1073.26 473.96 1075.90 C 472.47 1076.72 470.89 1078.24 469.09 1077.28 C 464.03 1074.19 459.03 1071.01 453.97 1067.95 C 451.35 1067.53 448.65 1067.75 446.02 1067.83 C 440.60 1070.92 435.46 1074.52 430.00 1077.51 C 429.53 1077.47 428.58 1077.40 428.10 1077.36 C 423.70 1074.27 419.34 1071.13 414.99 1067.97 C 410.40 1067.58 405.67 1067.64 401.06 1067.94 C 396.68 1070.60 392.23 1073.16 387.84 1075.81 C 386.35 1076.55 384.94 1078.07 383.12 1077.44 C 378.27 1074.41 373.75 1070.88 368.94 1067.79 C 358.92 1067.79 348.86 1067.41 338.88 1068.54 C 334.99 1069.08 330.72 1069.85 327.95 1072.89 C 323.07 1077.52 322.39 1085.22 324.69 1091.27 C 327.56 1098.13 331.21 1104.63 334.77 1111.15 C 320.88 1123.74 305.88 1135.40 291.71 1147.80 C 290.40 1148.06 290.16 1146.34 289.53 1145.61 C 286.58 1140.72 283.73 1135.76 280.66 1130.94 C 282.77 1125.59 286.51 1120.72 287.98 1115.01 C 291.27 1101.77 290.59 1087.42 285.32 1074.77 C 279.63 1060.29 276.32 1044.49 278.32 1028.92 C 279.74 1017.01 284.87 1005.94 290.49 995.48 C 298.36 981.23 310.08 969.22 324.03 960.86 C 333.50 955.23 343.48 950.25 353.99 946.94 C 355.71 950.95 357.43 954.98 359.17 959.00 C 354.19 967.39 347.72 975.33 345.60 985.07 C 344.29 994.50 346.40 1005.55 354.15 1011.82 C 358.55 1015.56 364.65 1014.51 369.94 1014.29 C 375.34 1011.59 380.58 1008.59 386.02 1005.97 C 391.40 1007.76 395.82 1011.99 400.97 1014.49 C 405.61 1014.46 410.26 1014.59 414.89 1014.42 C 420.59 1011.65 426.04 1008.11 431.95 1005.95 C 436.81 1008.50 441.31 1011.71 446.10 1014.41 C 450.07 1014.59 454.07 1014.49 458.06 1014.45 C 463.08 1011.77 467.63 1007.90 472.93 1005.96 C 477.81 1008.36 482.19 1011.76 486.95 1014.45 C 488.36 1014.53 489.78 1014.53 491.20 1014.45 C 493.29 1006.15 492.68 997.47 492.08 989.02 C 490.80 973.83 487.76 958.87 485.30 943.85 C 482.39 929.36 478.34 915.14 474.05 901.02 Z" />
</g>
</svg>
