<?xml version="1.0" encoding="UTF-8"?>
<svg version="1.1" viewBox="0 0 400.19 200" xmlns="http://www.w3.org/2000/svg" xmlns:cc="http://creativecommons.org/ns#" xmlns:dc="http://purl.org/dc/elements/1.1/" xmlns:rdf="http://www.w3.org/1999/02/22-rdf-syntax-ns#">
<metadata>
<rdf:RDF>
<cc:Work rdf:about="">
<dc:format>image/svg+xml</dc:format>
<dc:type rdf:resource="http://purl.org/dc/dcmitype/StillImage"/>
<dc:title/>
</cc:Work>
</rdf:RDF>
</metadata>
<defs>
<clipPath id="a">
<path d="m427.19 370.62-78.781 108.31s27.631 15.87 49.469 60.562c31.149 8e-3 189.63 0.11071 201.19 1 12.767 0.98209 45.197 18.657 49.125 25.531s25.527 29.462 30.438 80.531c0 0-3.9421 82.482-5.9062 88.375-1.9642 5.8926-0.95997 41.264-3.9062 47.156-2.9463 5.8926-4.9284 21.599-1 37.312 3.9284 15.713-4.9062 107.06-4.9062 107.06s-2.9421 29.465-4.9062 34.375c-1.9642 4.9105 5.8883 12.76 4.9062 37.312-0.98209 24.552-2.9417 17.68 1.9688 48.125 3.2875 20.382-1.7542 89.414-5.4688 133.25 31.096 7.6478 60.235 10.546 90.625 52.719 17.954-17.402 39.545-39.75 78.844-48.656 4.7485-22.539 7.1512-54.496 0-96.063 0 0 8.8655-77.591-1.9375-116.87 0 0 15.701-19.656 14.719-93.312-0.98209-73.657 1.9688-53.031 1.9688-53.031v-15.719l-3.9375-16.688s-7.8571-52.059-6.875-63.844c0.9821-11.785 1.9688-97.219 1.9688-97.219s3.9291-22.572 13.75-40.25 26.518-25.54 34.375-29.469c7.8568-3.9284 47.125-7.875 47.125-7.875l167.25 0.78125c22.381-55.845 55.906-75.094 55.906-75.094l-78.781-108.31h-647.22z" fill="#2a6bb5" stroke="#000" stroke-width="5"/>
</clipPath>
</defs>
<g transform="translate(204.96 -1424.1)">
<g transform="matrix(.13346 0 0 .13346 -177.61 1407.4)">
<g transform="matrix(.73822 0 0 .73716 142.85 347.98)">
<g transform="translate(-9.8985)"></g>
</g>
<g fill-rule="evenodd">
<rect x="-204.45" y="126.04" width="2997.6" height="1497.6" fill="#fc0"/>
<rect x="-204.96" y="1126.2" width="2998.6" height="497.89" fill="#106333"/>
<rect x="-204.96" y="125.53" width="2998.6" height="497.89" fill="#020163"/>
</g>
<g transform="translate(71.956)">
<path d="m450.9 621.19-58.152 79.837s80.791 46.29 47.88 214.37c-21.837 111.53-38.755 169.9 50.19 252 0 0 53.026 35.926 119.73 46.758 27.491 9.0562 52.444 5.8401 78.672 42.184 14.653-14.182 32.589-32.832 67.84-37.609 62.718-7.9822 131.71-51.334 131.71-51.334 88.945-82.102 72.027-140.48 50.19-252-32.91-168.08 47.88-214.37 47.88-214.37l-58.152-79.837h-477.79z" fill="#106333"/>
<path d="m450.9 621.19-58.158 79.843s20.397 11.698 36.519 44.644c22.995 6e-3 139.99 0.0816 148.52 0.73715 9.425 0.72396 33.365 13.753 36.265 18.821 2.9 5.0677 18.844 21.718 22.469 59.364 0 0-2.9101 60.802-4.3601 65.146-1.45 4.3437-0.70867 30.418-2.8837 34.762-2.175 4.3437-3.6382 15.922-0.73822 27.505 2.9 11.583-3.6219 78.922-3.6219 78.922s-2.1719 21.72-3.6219 25.34c-1.45 3.6197 4.3469 9.4062 3.6219 27.505-0.72499 18.099-2.1716 13.033 1.4534 35.476 2.4269 15.025-1.295 65.912-4.0371 98.226 22.956 5.6376 44.466 7.7743 66.901 38.862 13.254-12.828 29.193-29.302 58.204-35.867 3.5054-16.615 5.2791-40.172 0-70.813 0 0 6.5447-57.197-1.4303-86.155 0 0 11.591-14.489 10.866-68.786-0.72499-54.297 1.4534-39.092 1.4534-39.092v-11.587l-2.9067-12.301s-5.8002-38.375-5.0752-47.063 1.4534-71.665 1.4534-71.665 2.9005-16.639 10.15-29.671c7.25-13.031 19.576-18.827 25.376-21.723 5.8-2.8958 34.788-5.8051 34.788-5.8051l123.47 0.5759c16.522-41.166 41.271-55.356 41.271-55.356l-58.158-79.843h-477.79z" fill="#2a6bb5" stroke="#000" stroke-width="3.6884"/>
<g transform="matrix(.73822 0 0 .73716 135.54 347.98)" clip-path="url(#a)" fill="none" stroke="#000" stroke-width="5">
<path d="m404.02 393.61s153.32 8.2876 169.9 8.2876 192.69 1.036 215.48-1.036 48.69-5.1797 79.768-2.0719c31.078 3.1078 53.869-2.0719 61.121-3.1078 7.2516-1.036 92.199 1.036 98.415-1.036s46.618-1.036 85.984-18.647"/>
<path d="m1156.1 416.4s-19.683 13.467-95.307 13.467c-75.624 0-138.82 11.395-204.08 34.186 0 0-73.552 27.971-78.732 50.761s-17.611 78.732-15.539 112.92c2.0719 34.186 5.1797 142.96 5.1797 142.96l10.359 154.36s6.2157 96.343-5.1797 131.57-21.755 193.72-21.755 193.72"/>
<path d="m376.05 432.97s97.379-11.395 123.28-10.359 144 12.431 144 12.431l52.833 2.0719s17.611-5.1797 48.69 20.719c0 0 10.359 6.2157 11.395 41.438 1.036 35.222-9.3235 149.18-9.3235 149.18l-6.2157 89.092s7.2516 19.683 3.1078 36.258l4.1438 65.265s-2.0719 247.59-5.1797 262.09c-3.1078 14.503-4.1438 151.25-4.1438 151.25"/>
<path d="m717.91 1241-8.2876-151.25s-6.2157-81.84-6.2157-97.379c0-15.539-3.0221-103.63-1.036-128.46 2.0719-25.899 16.575-161.61 16.575-161.61l13.467-131.57 1.036-32.114s13.467-13.467-45.582-45.582l-130.53-20.719-103.59-2.0719s-75.624-3.1078-113.95 6.2157"/>
<path d="m347.04 510.67s33.15-15.539 109.81-8.2876c76.66 7.2516 189.58 12.431 189.58 12.431s45.582 6.2157 52.833 15.539c7.2516 9.3235 7.2516 26.935 4.1438 47.654-3.1078 20.719-11.395 177.15-11.395 177.15l-6.2157 76.66s4.1438 40.402 0 60.085c-4.1438 19.683 0 20.719 0 20.719s2.0719 42.474-1.036 54.905 0 153.32 0 153.32l-1.036 100.49"/>
<path d="m786.28 1209.9s1.036-40.402 2.0719-76.66c1.0359-36.258 11.395-194.76 11.395-194.76s-1.0359-153.32-2.0719-161.61c-1.036-8.2876-7.2516-157.46-7.2516-157.46l-4.1438-56.977s16.086-29.064 20.719-38.33c8.2876-16.575 85.984-31.078 112.92-32.114 27.95-1.075 266.24-24.863 266.24-24.863"/>
<path d="m1140.6 524.14-154.36-7.2516s-41.127-5.9688-98.415 7.2516c-67.337 15.539-49.726 7.2516-74.588 45.582 0 0-10.359 51.797-8.2876 76.66 2.0719 24.863 3.1078 81.84 3.1078 81.84s14.503 55.941 14.503 72.516c0 17.642-9.4313 136.68-8.2876 160.57 1.7592 36.746-2.0719 91.163-4.1438 125.35-2.0404 33.666-5.1797 152.28-5.1797 152.28"/>
</g>
<g transform="matrix(.73822 0 0 .73716 135.54 347.98)" fill="#0e6735" stroke="#000" stroke-width="4">
<path d="m527.78 453.12s-5.5556 4.8611-5.2083 6.25c0.34722 1.3889 0 7.6389 2.4306 10.069 2.4306 2.4306 5.5556 4.1667 5.5556 4.1667s6.25 0 8.3333-1.3889 4.5139-5.2083 4.5139-6.5972-2.4306-9.0278-5.2083-10.069c-2.7778-1.0417-5.2083-4.5139-9.0278-2.7778-3.8194 1.7361-1.3889 0.34722-1.3889 0.34722z"/>
<path d="m522.57 471.18s-10.069 0.34723-10.417 2.7778c-0.34722 2.4306-3.8194 5.9028 1.0417 9.0278 4.8611 3.125 6.9444 0.69444 8.3333 2.7778 1.3889 2.0833 3.125 3.125 4.5139 1.7361s13.542-3.125-3.4722-16.319z"/>
<path d="m543.4 468.4s12.5-7.9861 17.014-8.6806c4.5139-0.69444 29.861-3.8194 38.542 2.0833 8.6806 5.9028 10.417 11.806 10.069 13.542s-0.34722 6.25-3.4722 8.6806c-3.125 2.4306-5.5556 9.375-17.014 4.5139-11.458-4.8611-29.514-6.25-35.069-6.5972-5.5556-0.34722-13.194-5.9028-10.069-13.542z"/>
<path d="m631.25 421.18s10.069-2.0833 16.667-6.9444 36.458-2.4306 36.458-2.4306 16.667 3.8194 18.403 5.9028 6.25 8.3333 6.25 9.7222 0.69444 9.375-1.7361 11.111c-2.4306 1.7361-13.194 11.458-21.181 11.458s-23.264-1.0417-27.083-4.1667c-3.8194-3.125-14.583 1.3889-18.056-0.69444-3.4722-2.0833-10.069-1.7361-13.889-12.847 0 0-2.7778-3.4722 4.1667-11.111z"/>
<path d="m778.47 449.65s14.931-4.1667 21.181-6.9444 14.583-10.417 17.708-10.069c3.125 0.34722 6.5972 1.7361 10.069 1.7361 3.4722 0 14.236-0.69445 16.667 0.69444 2.4306 1.3889 12.153 7.6389 13.889 10.069 1.7361 2.4306 6.25 13.542 5.9028 15.625-0.34722 2.0833-12.847 14.583-14.583 14.931-1.7361 0.34723-7.6389 9.375-7.6389 9.375s-5.2083 10.417-18.056 4.8611c-12.847-5.5556-24.306-1.0417-30.556-3.125-6.25-2.0833-13.889-5.2083-17.014-10.417-3.125-5.2083-8.3333-10.764-7.9861-12.847 0.34722-2.0833 1.0417-3.125 10.417-13.889z"/>
<path d="m805.9 410.07s-4.8611 3.125-4.8611 5.5556c0 2.4306-1.3889 6.9444 4.8611 7.2917 0 0 2.4306 1.3889 4.8611 4.1667s5.5556 2.0833 7.2917 1.3889 5.9028-3.4722 5.5556-7.9861-1.3889-6.5972-7.2917-9.7222c-5.9028-3.125-10.417-0.69445-10.417-0.69445z"/>
<path d="m855.56 398.96s6.9444-4.8611 10.417-4.1667c3.4722 0.69445 5.2083 3.125 15.972-0.69444 10.764-3.8194 31.944-1.0417 34.375 3.8194 2.4306 4.8611 5.5556 7.6389 5.9028 12.847 0.34723 5.2083-7.2917 13.194-12.5 13.194-5.2083 0-4.8611 4.1667-8.3333 3.4722-3.4722-0.69444-12.5-8.3333-19.444-2.4306-6.9444 5.9028-4.8611 3.125-15.625-2.4306-10.764-5.5556-7.2917 0.34722-15.625-13.194 0 0 0.34722-3.4722 2.4306-5.5556 2.0833-2.0833-1.3889-0.69444 2.4306-4.8611z"/>
</g>
<path d="m450.9 621.19-58.152 79.837s80.791 46.29 47.88 214.37c-21.837 111.53-38.755 169.9 50.19 252 0 0 53.026 35.926 119.73 46.758 27.491 9.0562 52.444 5.8401 78.672 42.184 14.653-14.182 32.589-32.832 67.84-37.609 62.718-7.9822 131.71-51.334 131.71-51.334 88.945-82.102 72.027-140.48 50.19-252-32.91-168.08 47.88-214.37 47.88-214.37l-58.152-79.837h-477.79z" fill="none" stroke="#000" stroke-width="12.977"/>
<g transform="matrix(.41607 0 0 .41547 151.86 -565.76)" fill="#fff352" fill-rule="evenodd" stroke="#000" stroke-width="9.0111">
<path d="m933.62 3920.2c-7.3648 39.827-10.311 56.052-4.4189 66.378s14.729 38.352 13.256 48.677c-1.4729 10.325-5.8918 20.651-5.8918 20.651s25.04-19.176 27.986-33.926c2.9459-14.751 4.4189-51.627 4.4189-51.627l-14.729-51.627-19.148-10.325z"/>
<path d="m929.23 3898.7s10.444-19.175 19.148-38.35c8.7037-19.175 8.7037-27.891 20.888-40.093 12.184-12.202 34.813-17.432 34.813-17.432s-13.926 17.432-19.147 34.864c-5.2222 17.432-12.185 41.836-27.851 55.782-15.666 13.945-27.851 5.2295-27.851 5.2295z"/>
<path d="m948.35 3918.7s19.148 20.651 23.567 35.402c4.4188 14.751 10.311 25.076 27.986 22.126 17.675-2.9501 32.405-23.601 51.553-13.276 19.148 10.325 33.878 20.651 33.878 20.651s-2.9459-26.551-11.784-42.777c-8.8377-16.226-25.04-23.601-50.08-23.601-25.04 0-66.282-5.9003-66.282-5.9003l-19.148-2.9501z"/>
<path d="m930.68 3904s16.202 10.326 13.256 30.976c-2.9459 20.651-14.729 67.853-26.513 79.653-11.783 11.8-64.809 26.551-64.809 26.551s1.4729-35.402 10.311-51.627c8.8377-16.226 39.77-61.953 51.553-69.328 11.784-7.3753 16.202-16.226 16.202-16.226z"/>
<path d="m952.77 3914.3s22.094 5.9001 42.715 4.4251c20.621-1.475 30.932-5.9003 42.715-14.751 11.783-8.8503 22.094-5.9002 29.459-19.176 7.3647-13.276 0-33.926 2.9459-42.777 2.9459-8.8504 4.4188-22.126 4.4188-22.126s-23.567 1.475-36.824 22.126c-13.257 20.651-14.73 47.202-35.351 54.577-20.621 7.3752-55.972 13.276-50.08 17.701z"/>
<path d="m940.99 3911.3s5.8918-8.8504 13.256-20.651c7.3647-11.8 20.621-50.152 35.351-57.528 14.729-7.3752 32.405-8.8504 42.715-14.751 10.311-5.9003 19.148-11.801 19.148-11.801s-7.3647 19.176-11.784 30.976c-4.4188 11.8-14.73 44.252-22.094 51.627-7.3647 7.3753-76.593 22.126-76.593 22.126z"/>
<path d="m842.3 3816.9c1.4729 14.75 2.9458 26.551 16.202 39.827 13.256 13.276 66.282 45.727 66.282 45.727s-22.094-36.877-22.094-45.727c0-8.8503-11.784-29.501-27.986-30.976-16.202-1.4752-32.405-8.8504-32.405-8.8504z"/>
<path d="m920.37 3917.2c-27.986-5.9003-55.972-19.176-67.755-28.026-11.784-8.8504-41.242-19.176-48.607-16.226-7.3647 2.9501 5.8918-14.751 25.04-19.176 19.148-4.4252 30.932-5.9002 48.607-2.9502 17.675 2.9502 13.256 20.651 26.513 33.926 13.256 13.276 29.459 28.026 29.459 28.026l-20.621 4.4253z"/>
<path d="m923.13 3892c-1.4729-19.176-8.8376-48.677-14.545-60.109-4.2179-8.4479-14.545-30.976-22.278-44.252-7.3471-12.613-11.599-20.835-11.599-20.835s-13.256-2.9501-17.675-10.325c-4.4188-7.3754-3.3141-16.779 3.4983-22.31 5.7206-4.645 13.32-4.3585 20.069-0.1843 6.26 3.872 15.466 11.985 9.5741 19.36-5.8917 7.3753 6.6283 28.211 6.6283 28.211l13.256 26.551s10.021 32.195 5.3972-5.5229c-4.6238-37.718-2.4513-50.53-2.4513-50.53s-16.202-8.8504-14.729-22.126c1.473-13.276 8.7341-17.859 19.148-17.701 12.152 0.1844 19.4 8.351 20.621 18.438 1.5232 12.576-13.072 22.126-13.072 22.126s-1.755 20.699 0.33664 39.042c2.0916 18.343 10.994-14.546 15.892-22.224 7.1043-11.136 14.519-19.031 20.411-21.981 5.8918-2.9501 1.473-14.751 14.729-17.701 13.256-2.9501 19.148 10.325 17.675 16.226-1.473 5.9002-2.9459 19.176-10.311 20.651-7.3647 1.475-16.202-7.7441-16.202-7.7441s-14.093 10.065-18.57 22.624c-4.4291 12.425-18.204 33.979-18.717 45.851-0.83033 19.215 6.1706 67.416 6.1706 67.416l-4.2347 9.0347z"/>
<path d="m932.15 3911.3s-35.351 0-48.607 2.9502c-13.257 2.9501-58.918 32.451-58.918 32.451s-23.567 17.701-38.297 23.601c-14.729 5.9002-26.513 7.3754-26.513 7.3754s33.878 19.176 47.134 17.701c13.257-1.4751 44.188-4.4252 55.972-10.326 11.784-5.9002 41.242-28.026 48.607-36.877 7.3647-8.8503 20.621-36.876 20.621-36.876z"/>
</g>
<g transform="matrix(.41607 0 0 .41547 152.76 -740)" fill="#fff352" fill-rule="evenodd" stroke="#000" stroke-width="9.0111">
<path d="m933.62 3920.2c-7.3648 39.827-10.311 56.052-4.4189 66.378s14.729 38.352 13.256 48.677c-1.4729 10.325-5.8918 20.651-5.8918 20.651s25.04-19.176 27.986-33.926c2.9459-14.751 4.4189-51.627 4.4189-51.627l-14.729-51.627-19.148-10.325z"/>
<path d="m929.23 3898.7s10.444-19.175 19.148-38.35c8.7037-19.175 8.7037-27.891 20.888-40.093 12.184-12.202 34.813-17.432 34.813-17.432s-13.926 17.432-19.147 34.864c-5.2222 17.432-12.185 41.836-27.851 55.782-15.666 13.945-27.851 5.2295-27.851 5.2295z"/>
<path d="m948.35 3918.7s19.148 20.651 23.567 35.402c4.4188 14.751 10.311 25.076 27.986 22.126 17.675-2.9501 32.405-23.601 51.553-13.276 19.148 10.325 33.878 20.651 33.878 20.651s-2.9459-26.551-11.784-42.777c-8.8377-16.226-25.04-23.601-50.08-23.601-25.04 0-66.282-5.9003-66.282-5.9003l-19.148-2.9501z"/>
<path d="m930.68 3904s16.202 10.326 13.256 30.976c-2.9459 20.651-14.729 67.853-26.513 79.653-11.783 11.8-64.809 26.551-64.809 26.551s1.4729-35.402 10.311-51.627c8.8377-16.226 39.77-61.953 51.553-69.328 11.784-7.3753 16.202-16.226 16.202-16.226z"/>
<path d="m952.77 3914.3s22.094 5.9001 42.715 4.4251c20.621-1.475 30.932-5.9003 42.715-14.751 11.783-8.8503 22.094-5.9002 29.459-19.176 7.3647-13.276 0-33.926 2.9459-42.777 2.9459-8.8504 4.4188-22.126 4.4188-22.126s-23.567 1.475-36.824 22.126c-13.257 20.651-14.73 47.202-35.351 54.577-20.621 7.3752-55.972 13.276-50.08 17.701z"/>
<path d="m1039.7 3837.6c-4.4188 11.8-14.73 44.252-22.094 51.627-7.3647 7.3753-76.593 22.126-76.593 22.126s5.8918-8.8504 13.256-20.651c7.3647-11.8 20.621-50.152 35.351-57.528 14.729-7.3752 32.405-8.8504 42.715-14.751 10.311-5.9003 19.148-11.801 19.148-11.801s-7.3647 19.176-11.784 30.976"/>
<path d="m842.3 3816.9c1.4729 14.75 2.9458 26.551 16.202 39.827 13.256 13.276 66.282 45.727 66.282 45.727s-22.094-36.877-22.094-45.727c0-8.8503-11.784-29.501-27.986-30.976-16.202-1.4752-32.405-8.8504-32.405-8.8504z"/>
<path d="m920.37 3917.2c-27.986-5.9003-55.972-19.176-67.755-28.026-11.784-8.8504-41.242-19.176-48.607-16.226-7.3647 2.9501 5.8918-14.751 25.04-19.176 19.148-4.4252 30.932-5.9002 48.607-2.9502 17.675 2.9502 13.256 20.651 26.513 33.926 13.256 13.276 29.459 28.026 29.459 28.026l-20.621 4.4253z"/>
<path d="m923.13 3892c-1.4729-19.176-8.8376-48.677-14.545-60.109-4.2179-8.4479-14.545-30.976-22.278-44.252-7.3471-12.613-11.599-20.835-11.599-20.835s-13.256-2.9501-17.675-10.325c-4.4188-7.3754-3.3141-16.779 3.4983-22.31 5.7206-4.645 13.32-4.3585 20.069-0.1843 6.26 3.872 15.466 11.985 9.5741 19.36-5.8917 7.3753 6.6283 28.211 6.6283 28.211l13.256 26.551s10.021 32.195 5.3972-5.5229c-4.6238-37.718-2.4513-50.53-2.4513-50.53s-16.202-8.8504-14.729-22.126c1.473-13.276 8.7341-17.859 19.148-17.701 12.152 0.1844 19.4 8.351 20.621 18.438 1.5232 12.576-13.072 22.126-13.072 22.126s-1.755 20.699 0.33664 39.042c2.0916 18.343 10.994-14.546 15.892-22.224 7.1043-11.136 14.519-19.031 20.411-21.981 5.8918-2.9501 1.473-14.751 14.729-17.701 13.256-2.9501 19.148 10.325 17.675 16.226-1.473 5.9002-2.9459 19.176-10.311 20.651-7.3647 1.475-16.202-7.7441-16.202-7.7441s-14.093 10.065-18.57 22.624c-4.4291 12.425-18.204 33.979-18.717 45.851-0.83033 19.215 6.1706 67.416 6.1706 67.416l-4.2347 9.0347z"/>
<path d="m932.15 3911.3s-35.351 0-48.607 2.9502c-13.257 2.9501-58.918 32.451-58.918 32.451s-23.567 17.701-38.297 23.601c-14.729 5.9002-26.513 7.3754-26.513 7.3754s33.878 19.176 47.134 17.701c13.257-1.4751 44.188-4.4252 55.972-10.326 11.784-5.9002 41.242-28.026 48.607-36.877 7.3647-8.8503 20.621-36.876 20.621-36.876z"/>
</g>
<g transform="matrix(.46389 .043084 -.043022 .46322 236.91 -993.51)" stroke="#000">
<path transform="matrix(.56361 0 0 .56361 833.25 1386.9)" d="m1348.6 4401.3s70.852 64.663 73.465 101.3c2.6133 36.64-41.815 185.82-41.815 185.82l23.521 7.8514 20.907-5.2343 31.361 13.086 20.907-7.8516 28.748 7.8516 44.428-13.086 13.067 2.6172 39.201-15.703 28.747-20.937-75.789-128.24s-20.907-36.64-15.68-49.726c5.2269-13.086 41.814-73.281 41.814-73.281l28.748-23.555 23.521 26.172-15.68-47.109-62.722 31.406s-5.8337-26.779-0.6069-34.631c5.2268-7.8514 31.968-41.267 31.968-41.267l31.361 20.937-27.375-45.1-57.495 42.8s-14.439 15.386 9.0813-21.255c23.521-36.64 39.201-49.726 39.201-49.726l29.065 5.2343-40.759-29.238-45.8 63.261 10.454-81.132 26.134-65.429-45.828 68.786-24.128 54.829-13.674-39.865-5.2268-47.109-15.68-36.64-65.335-28.789 53.192 47.268 6.3092 49.091 4.4341 83.908-21.356-9.888-24.445-64.477-35.849-25.405-29.327-7.2164-9.661 36.482 9.2126 44.995 9.054-45.762 5.0412-14.515 34.608 24.003 13.86 79.522-43.291-22.022-49.179-15.413-19.218 11.684-36.669 58.054 55.253-50.493 76.713 43.462-54.646-21.31-24.259 2.4584 9.6609 57.288 7.8402-39.258 44.428 18.32 7.8402 31.406-41.814-15.703-16.736 52.053z" fill="#fff352" fill-rule="evenodd" stroke-width="9.0111"/>
<path d="m1614 3869.4 28.121 49.022-1e-4 15.645-18.748 100.13" fill="none" stroke-width="3.0473"/>
<path d="m1615.6 3839.1 35.412 77.706-0.5208 16.167-13.019 97.523" fill="none" stroke-width="3.0473"/>
<path d="m1627 3825.6 31.767 90.743 1e-4 15.645-6.2492 106.39" fill="none" stroke-width="3.0473"/>
<path d="m1710.9 3861.1-16.144 51.108 1.0415 14.602 44.265 91.265" fill="none" stroke-width="3.0473"/>
<path d="m1707.7 3843.8-19.789 68.318 1.0415 16.167 41.661 98.044" fill="none" stroke-width="3.0473"/>
<path d="m1695.2 3830.8-13.019 84.485 0.5208 13.559 32.287 101.7" fill="none" stroke-width="3.0473"/>
<path d="m1666.1 4034.2 0.5207-104.82-1.0416-13.559-10.936-98.045" fill="none" stroke-width="3.0473"/>
<path d="m1682.7 4038.4-11.457-108.47-1.0415-14.081 2.0831-114.21" fill="none" stroke-width="3.0473"/>
<path d="m1704.6 4030-27.601-100.65-2.083-15.124 16.664-103.78" fill="none" stroke-width="3.0473"/>
<path d="m1628.9 3921.7 2.9458 13.276 75.12-8.8504-0.7735-13.618z" fill="#fff352" fill-rule="evenodd" stroke-width="5.0788"/>
</g>
<g transform="matrix(.46389 .043084 -.043022 .46322 239.58 -819.86)" stroke="#000">
<path transform="matrix(.56361 0 0 .56361 833.25 1386.9)" d="m1348.6 4401.3s70.852 64.663 73.465 101.3c2.6133 36.64-41.815 185.82-41.815 185.82l23.521 7.8514 20.907-5.2343 31.361 13.086 20.907-7.8516 28.748 7.8516 44.428-13.086 13.067 2.6172 39.201-15.703 28.747-20.937-75.789-128.24s-20.907-36.64-15.68-49.726c5.2269-13.086 41.814-73.281 41.814-73.281l28.748-23.555 23.521 26.172-15.68-47.109-62.722 31.406s-5.8337-26.779-0.6069-34.631c5.2268-7.8514 31.968-41.267 31.968-41.267l31.361 20.937-27.375-45.1-57.495 42.8s-14.439 15.386 9.0813-21.255c23.521-36.64 39.201-49.726 39.201-49.726l29.065 5.2343-40.759-29.238-45.8 63.261 10.454-81.132 26.134-65.429-45.828 68.786-24.128 54.829-13.674-39.865-5.2268-47.109-15.68-36.64-65.335-28.789 53.192 47.268 6.3092 49.091 4.4341 83.908-21.356-9.888-24.445-64.477-35.849-25.405-29.327-7.2164-9.661 36.482 9.2126 44.995 9.054-45.762 5.0412-14.515 34.608 24.003 13.86 79.522-43.291-22.022-49.179-15.413-19.218 11.684-36.669 58.054 55.253-50.493 76.713 43.462-54.646-21.31-24.259 2.4584 9.6609 57.288 7.8402-39.258 44.428 18.32 7.8402 31.406-41.814-15.703-16.736 52.053z" fill="#fff352" fill-rule="evenodd" stroke-width="9.0111"/>
<path d="m1614 3869.4 28.121 49.022-1e-4 15.645-18.748 100.13" fill="none" stroke-width="3.0473"/>
<path d="m1615.6 3839.1 35.412 77.706-0.5208 16.167-13.019 97.523" fill="none" stroke-width="3.0473"/>
<path d="m1627 3825.6 31.767 90.743 1e-4 15.645-6.2492 106.39" fill="none" stroke-width="3.0473"/>
<path d="m1710.9 3861.1-16.144 51.108 1.0415 14.602 44.265 91.265" fill="none" stroke-width="3.0473"/>
<path d="m1707.7 3843.8-19.789 68.318 1.0415 16.167 41.661 98.044" fill="none" stroke-width="3.0473"/>
<path d="m1695.2 3830.8-13.019 84.485 0.5208 13.559 32.287 101.7" fill="none" stroke-width="3.0473"/>
<path d="m1666.1 4034.2 0.5207-104.82-1.0416-13.559-10.936-98.045" fill="none" stroke-width="3.0473"/>
<path d="m1682.7 4038.4-11.457-108.47-1.0415-14.081 2.0831-114.21" fill="none" stroke-width="3.0473"/>
<path d="m1704.6 4030-27.601-100.65-2.083-15.124 16.664-103.78" fill="none" stroke-width="3.0473"/>
<path d="m1628.9 3921.7 2.9458 13.276 75.12-8.8504-0.7735-13.618z" fill="#fff352" fill-rule="evenodd" stroke-width="5.0788"/>
</g>
<g transform="translate(22.092 -5.1653)">
<path transform="matrix(1.1343 .18946 -.18946 1.1343 13.098 -165.48)" d="m667.07 430.13-22.348-11.552-17.684 17.892 4.0807-24.824-22.481-11.29 24.87-3.79 3.79-24.87 11.29 22.481 24.824-4.0807-17.892 17.684z" fill="#fff"/>
</g>
<g transform="translate(-66.469)">
<g transform="matrix(.97799 .20865 -.20865 .97799 292.47 -124.51)">
<path transform="matrix(1.1343 .18946 -.18946 1.1343 13.098 -165.48)" d="m667.07 430.13-22.348-11.552-17.684 17.892 4.0807-24.824-22.481-11.29 24.87-3.79 3.79-24.87 11.29 22.481 24.824-4.0807-17.892 17.684z" fill="#fff"/>
</g>
<g transform="matrix(.91422 .40522 -.40522 .91422 508.84 -198.87)">
<path transform="matrix(1.1343 .18946 -.18946 1.1343 13.098 -165.48)" d="m667.07 430.13-22.348-11.552-17.684 17.892 4.0807-24.824-22.481-11.29 24.87-3.79 3.79-24.87 11.29 22.481 24.824-4.0807-17.892 17.684z" fill="#fff"/>
</g>
<g transform="matrix(.808 .58919 -.58919 .808 742.32 -227.24)">
<path transform="matrix(1.1343 .18946 -.18946 1.1343 13.098 -165.48)" d="m667.07 430.13-22.348-11.552-17.684 17.892 4.0807-24.824-22.481-11.29 24.87-3.79 3.79-24.87 11.29 22.481 24.824-4.0807-17.892 17.684z" fill="#fff"/>
</g>
<g transform="matrix(.67876 .73436 -.73436 .67876 956.75 -209.44)">
<path transform="matrix(1.1343 .18946 -.18946 1.1343 13.098 -165.48)" d="m667.07 430.13-22.348-11.552-17.684 17.892 4.0807-24.824-22.481-11.29 24.87-3.79 3.79-24.87 11.29 22.481 24.824-4.0807-17.892 17.684z" fill="#fff"/>
</g>
<g transform="matrix(.50361 .86393 -.86393 .50361 1187.9 -140.61)">
<path transform="matrix(1.1343 .18946 -.18946 1.1343 13.098 -165.48)" d="m667.07 430.13-22.348-11.552-17.684 17.892 4.0807-24.824-22.481-11.29 24.87-3.79 3.79-24.87 11.29 22.481 24.824-4.0807-17.892 17.684z" fill="#fff"/>
</g>
<g transform="matrix(.30899 .95107 -.95107 .30899 1394.5 -26.393)">
<path transform="matrix(1.1343 .18946 -.18946 1.1343 13.098 -165.48)" d="m667.07 430.13-22.348-11.552-17.684 17.892 4.0807-24.824-22.481-11.29 24.87-3.79 3.79-24.87 11.29 22.481 24.824-4.0807-17.892 17.684z" fill="#fff"/>
</g>
<g transform="matrix(.082307 .99661 -.99661 .082307 1585.6 143.88)">
<path transform="matrix(1.1343 .18946 -.18946 1.1343 13.098 -165.48)" d="m667.07 430.13-22.348-11.552-17.684 17.892 4.0807-24.824-22.481-11.29 24.87-3.79 3.79-24.87 11.29 22.481 24.824-4.0807-17.892 17.684z" fill="#fff"/>
</g>
<g transform="matrix(-.1377 .99047 -.99047 -.1377 1726.5 342.63)">
<path transform="matrix(1.1343 .18946 -.18946 1.1343 13.098 -165.48)" d="m667.07 430.13-22.348-11.552-17.684 17.892 4.0807-24.824-22.481-11.29 24.87-3.79 3.79-24.87 11.29 22.481 24.824-4.0807-17.892 17.684z" fill="#fff"/>
</g>
<g transform="matrix(-.35119 .93631 -.93631 -.35119 1820.6 567.6)">
<path transform="matrix(1.1343 .18946 -.18946 1.1343 13.098 -165.48)" d="m667.07 430.13-22.348-11.552-17.684 17.892 4.0807-24.824-22.481-11.29 24.87-3.79 3.79-24.87 11.29 22.481 24.824-4.0807-17.892 17.684z" fill="#fff"/>
</g>
<g transform="matrix(-.55552 .8315 -.8315 -.55552 1863.8 818.16)">
<path transform="matrix(1.1343 .18946 -.18946 1.1343 13.098 -165.48)" d="m667.07 430.13-22.348-11.552-17.684 17.892 4.0807-24.824-22.481-11.29 24.87-3.79 3.79-24.87 11.29 22.481 24.824-4.0807-17.892 17.684z" fill="#fff"/>
</g>
<g transform="matrix(-.72236 .69152 -.69152 -.72236 1850.9 1058.9)">
<path transform="matrix(1.1343 .18946 -.18946 1.1343 13.098 -165.48)" d="m667.07 430.13-22.348-11.552-17.684 17.892 4.0807-24.824-22.481-11.29 24.87-3.79 3.79-24.87 11.29 22.481 24.824-4.0807-17.892 17.684z" fill="#fff"/>
</g>
<g transform="matrix(-.8576 .51431 -.51431 -.8576 1784 1296.5)">
<path transform="matrix(1.1343 .18946 -.18946 1.1343 13.098 -165.48)" d="m667.07 430.13-22.348-11.552-17.684 17.892 4.0807-24.824-22.481-11.29 24.87-3.79 3.79-24.87 11.29 22.481 24.824-4.0807-17.892 17.684z" fill="#fff"/>
</g>
<g transform="matrix(-.94702 .32118 -.32118 -.94702 1672.6 1504.1)">
<path transform="matrix(1.1343 .18946 -.18946 1.1343 13.098 -165.48)" d="m667.07 430.13-22.348-11.552-17.684 17.892 4.0807-24.824-22.481-11.29 24.87-3.79 3.79-24.87 11.29 22.481 24.824-4.0807-17.892 17.684z" fill="#fff"/>
</g>
<g transform="matrix(-.99471 .10275 -.10275 -.99471 1511.1 1691.6)">
<path transform="matrix(1.1343 .18946 -.18946 1.1343 13.098 -165.48)" d="m667.07 430.13-22.348-11.552-17.684 17.892 4.0807-24.824-22.481-11.29 24.87-3.79 3.79-24.87 11.29 22.481 24.824-4.0807-17.892 17.684z" fill="#fff"/>
</g>
</g>
<g transform="matrix(-.99177 -.128 .128 -.99177 1238.5 1842.5)">
<path transform="matrix(1.1343 .18946 -.18946 1.1343 13.098 -165.48)" d="m667.07 430.13-22.348-11.552-17.684 17.892 4.0807-24.824-22.481-11.29 24.87-3.79 3.79-24.87 11.29 22.481 24.824-4.0807-17.892 17.684z" fill="#fff"/>
</g>
<g transform="matrix(-1 0 0 1 1435.2 0)">
<g transform="matrix(.97799 .20865 -.20865 .97799 292.47 -124.51)">
<path transform="matrix(1.1343 .18946 -.18946 1.1343 13.098 -165.48)" d="m667.07 430.13-22.348-11.552-17.684 17.892 4.0807-24.824-22.481-11.29 24.87-3.79 3.79-24.87 11.29 22.481 24.824-4.0807-17.892 17.684z" fill="#fff"/>
</g>
<g transform="matrix(.91422 .40522 -.40522 .91422 508.84 -198.87)">
<path transform="matrix(1.1343 .18946 -.18946 1.1343 13.098 -165.48)" d="m667.07 430.13-22.348-11.552-17.684 17.892 4.0807-24.824-22.481-11.29 24.87-3.79 3.79-24.87 11.29 22.481 24.824-4.0807-17.892 17.684z" fill="#fff"/>
</g>
<g transform="matrix(.808 .58919 -.58919 .808 742.32 -227.24)">
<path transform="matrix(1.1343 .18946 -.18946 1.1343 13.098 -165.48)" d="m667.07 430.13-22.348-11.552-17.684 17.892 4.0807-24.824-22.481-11.29 24.87-3.79 3.79-24.87 11.29 22.481 24.824-4.0807-17.892 17.684z" fill="#fff"/>
</g>
<g transform="matrix(.67876 .73436 -.73436 .67876 956.75 -209.44)">
<path transform="matrix(1.1343 .18946 -.18946 1.1343 13.098 -165.48)" d="m667.07 430.13-22.348-11.552-17.684 17.892 4.0807-24.824-22.481-11.29 24.87-3.79 3.79-24.87 11.29 22.481 24.824-4.0807-17.892 17.684z" fill="#fff"/>
</g>
<g transform="matrix(.50361 .86393 -.86393 .50361 1187.9 -140.61)">
<path transform="matrix(1.1343 .18946 -.18946 1.1343 13.098 -165.48)" d="m667.07 430.13-22.348-11.552-17.684 17.892 4.0807-24.824-22.481-11.29 24.87-3.79 3.79-24.87 11.29 22.481 24.824-4.0807-17.892 17.684z" fill="#fff"/>
</g>
<g transform="matrix(.30899 .95107 -.95107 .30899 1394.5 -26.393)">
<path transform="matrix(1.1343 .18946 -.18946 1.1343 13.098 -165.48)" d="m667.07 430.13-22.348-11.552-17.684 17.892 4.0807-24.824-22.481-11.29 24.87-3.79 3.79-24.87 11.29 22.481 24.824-4.0807-17.892 17.684z" fill="#fff"/>
</g>
<g transform="matrix(.082307 .99661 -.99661 .082307 1585.6 143.88)">
<path transform="matrix(1.1343 .18946 -.18946 1.1343 13.098 -165.48)" d="m667.07 430.13-22.348-11.552-17.684 17.892 4.0807-24.824-22.481-11.29 24.87-3.79 3.79-24.87 11.29 22.481 24.824-4.0807-17.892 17.684z" fill="#fff"/>
</g>
<g transform="matrix(-.1377 .99047 -.99047 -.1377 1726.5 342.63)">
<path transform="matrix(1.1343 .18946 -.18946 1.1343 13.098 -165.48)" d="m667.07 430.13-22.348-11.552-17.684 17.892 4.0807-24.824-22.481-11.29 24.87-3.79 3.79-24.87 11.29 22.481 24.824-4.0807-17.892 17.684z" fill="#fff"/>
</g>
<g transform="matrix(-.35119 .93631 -.93631 -.35119 1820.6 567.6)">
<path transform="matrix(1.1343 .18946 -.18946 1.1343 13.098 -165.48)" d="m667.07 430.13-22.348-11.552-17.684 17.892 4.0807-24.824-22.481-11.29 24.87-3.79 3.79-24.87 11.29 22.481 24.824-4.0807-17.892 17.684z" fill="#fff"/>
</g>
<g transform="matrix(-.55552 .8315 -.8315 -.55552 1863.8 818.16)">
<path transform="matrix(1.1343 .18946 -.18946 1.1343 13.098 -165.48)" d="m667.07 430.13-22.348-11.552-17.684 17.892 4.0807-24.824-22.481-11.29 24.87-3.79 3.79-24.87 11.29 22.481 24.824-4.0807-17.892 17.684z" fill="#fff"/>
</g>
<g transform="matrix(-.72236 .69152 -.69152 -.72236 1850.9 1058.9)">
<path transform="matrix(1.1343 .18946 -.18946 1.1343 13.098 -165.48)" d="m667.07 430.13-22.348-11.552-17.684 17.892 4.0807-24.824-22.481-11.29 24.87-3.79 3.79-24.87 11.29 22.481 24.824-4.0807-17.892 17.684z" fill="#fff"/>
</g>
<g transform="matrix(-.8576 .51431 -.51431 -.8576 1784 1296.5)">
<path transform="matrix(1.1343 .18946 -.18946 1.1343 13.098 -165.48)" d="m667.07 430.13-22.348-11.552-17.684 17.892 4.0807-24.824-22.481-11.29 24.87-3.79 3.79-24.87 11.29 22.481 24.824-4.0807-17.892 17.684z" fill="#fff"/>
</g>
<g transform="matrix(-.94702 .32118 -.32118 -.94702 1672.6 1504.1)">
<path transform="matrix(1.1343 .18946 -.18946 1.1343 13.098 -165.48)" d="m667.07 430.13-22.348-11.552-17.684 17.892 4.0807-24.824-22.481-11.29 24.87-3.79 3.79-24.87 11.29 22.481 24.824-4.0807-17.892 17.684z" fill="#fff"/>
</g>
</g>
<g transform="matrix(.41607 0 0 .41547 152.76 -740)" fill="#fff352" fill-rule="evenodd" stroke="#000" stroke-width="5.4067">
<path d="m933.62 3920.2c-7.3648 39.827-10.311 56.052-4.4189 66.378s14.729 38.352 13.256 48.677c-1.4729 10.325-5.8918 20.651-5.8918 20.651s25.04-19.176 27.986-33.926c2.9459-14.751 4.4189-51.627 4.4189-51.627l-14.729-51.627-19.148-10.325z"/>
<path d="m929.23 3898.7s10.444-19.175 19.148-38.35c8.7037-19.175 8.7037-27.891 20.888-40.093 12.184-12.202 34.813-17.432 34.813-17.432s-13.926 17.432-19.147 34.864c-5.2222 17.432-12.185 41.836-27.851 55.782-15.666 13.945-27.851 5.2295-27.851 5.2295z"/>
<path d="m948.35 3918.7s19.148 20.651 23.567 35.402c4.4188 14.751 10.311 25.076 27.986 22.126 17.675-2.9501 32.405-23.601 51.553-13.276 19.148 10.325 33.878 20.651 33.878 20.651s-2.9459-26.551-11.784-42.777c-8.8377-16.226-25.04-23.601-50.08-23.601-25.04 0-66.282-5.9003-66.282-5.9003l-19.148-2.9501z"/>
<path d="m930.68 3904s16.202 10.326 13.256 30.976c-2.9459 20.651-14.729 67.853-26.513 79.653-11.783 11.8-64.809 26.551-64.809 26.551s1.4729-35.402 10.311-51.627c8.8377-16.226 39.77-61.953 51.553-69.328 11.784-7.3753 16.202-16.226 16.202-16.226z"/>
<path d="m952.77 3914.3s22.094 5.9001 42.715 4.4251c20.621-1.475 30.932-5.9003 42.715-14.751 11.783-8.8503 22.094-5.9002 29.459-19.176 7.3647-13.276 0-33.926 2.9459-42.777 2.9459-8.8504 4.4188-22.126 4.4188-22.126s-23.567 1.475-36.824 22.126c-13.257 20.651-14.73 47.202-35.351 54.577-20.621 7.3752-55.972 13.276-50.08 17.701z"/>
<path d="m1039.7 3837.6c-4.4188 11.8-14.73 44.252-22.094 51.627-7.3647 7.3753-76.593 22.126-76.593 22.126s5.8918-8.8504 13.256-20.651c7.3647-11.8 20.621-50.152 35.351-57.528 14.729-7.3752 32.405-8.8504 42.715-14.751 10.311-5.9003 19.148-11.801 19.148-11.801s-7.3647 19.176-11.784 30.976"/>
<path d="m842.3 3816.9c1.4729 14.75 2.9458 26.551 16.202 39.827 13.256 13.276 66.282 45.727 66.282 45.727s-22.094-36.877-22.094-45.727c0-8.8503-11.784-29.501-27.986-30.976-16.202-1.4752-32.405-8.8504-32.405-8.8504z"/>
<path d="m920.37 3917.2c-27.986-5.9003-55.972-19.176-67.755-28.026-11.784-8.8504-41.242-19.176-48.607-16.226-7.3647 2.9501 5.8918-14.751 25.04-19.176 19.148-4.4252 30.932-5.9002 48.607-2.9502 17.675 2.9502 13.256 20.651 26.513 33.926 13.256 13.276 29.459 28.026 29.459 28.026l-20.621 4.4253z"/>
<path d="m923.13 3892c-1.4729-19.176-8.8376-48.677-14.545-60.109-4.2179-8.4479-14.545-30.976-22.278-44.252-7.3471-12.613-11.599-20.835-11.599-20.835s-13.256-2.9501-17.675-10.325c-4.4188-7.3754-3.3141-16.779 3.4983-22.31 5.7206-4.645 13.32-4.3585 20.069-0.1843 6.26 3.872 15.466 11.985 9.5741 19.36-5.8917 7.3753 6.6283 28.211 6.6283 28.211l13.256 26.551s10.021 32.195 5.3972-5.5229c-4.6238-37.718-2.4513-50.53-2.4513-50.53s-16.202-8.8504-14.729-22.126c1.473-13.276 8.7341-17.859 19.148-17.701 12.152 0.1844 19.4 8.351 20.621 18.438 1.5232 12.576-13.072 22.126-13.072 22.126s-1.755 20.699 0.33664 39.042c2.0916 18.343 10.994-14.546 15.892-22.224 7.1043-11.136 14.519-19.031 20.411-21.981 5.8918-2.9501 1.473-14.751 14.729-17.701 13.256-2.9501 19.148 10.325 17.675 16.226-1.473 5.9002-2.9459 19.176-10.311 20.651-7.3647 1.475-16.202-7.7441-16.202-7.7441s-14.093 10.065-18.57 22.624c-4.4291 12.425-18.204 33.979-18.717 45.851-0.83033 19.215 6.1706 67.416 6.1706 67.416l-4.2347 9.0347z"/>
<path d="m932.15 3911.3s-35.351 0-48.607 2.9502c-13.257 2.9501-58.918 32.451-58.918 32.451s-23.567 17.701-38.297 23.601c-14.729 5.9002-26.513 7.3754-26.513 7.3754s33.878 19.176 47.134 17.701c13.257-1.4751 44.188-4.4252 55.972-10.326 11.784-5.9002 41.242-28.026 48.607-36.877 7.3647-8.8503 20.621-36.876 20.621-36.876z"/>
</g>
<g transform="matrix(.41607 0 0 .41547 151.86 -565.76)" fill="#fff352" fill-rule="evenodd" stroke="#000" stroke-width="5.4067">
<path d="m933.62 3920.2c-7.3648 39.827-10.311 56.052-4.4189 66.378s14.729 38.352 13.256 48.677c-1.4729 10.325-5.8918 20.651-5.8918 20.651s25.04-19.176 27.986-33.926c2.9459-14.751 4.4189-51.627 4.4189-51.627l-14.729-51.627-19.148-10.325z"/>
<path d="m929.23 3898.7s10.444-19.175 19.148-38.35c8.7037-19.175 8.7037-27.891 20.888-40.093 12.184-12.202 34.813-17.432 34.813-17.432s-13.926 17.432-19.147 34.864c-5.2222 17.432-12.185 41.836-27.851 55.782-15.666 13.945-27.851 5.2295-27.851 5.2295z"/>
<path d="m948.35 3918.7s19.148 20.651 23.567 35.402c4.4188 14.751 10.311 25.076 27.986 22.126 17.675-2.9501 32.405-23.601 51.553-13.276 19.148 10.325 33.878 20.651 33.878 20.651s-2.9459-26.551-11.784-42.777c-8.8377-16.226-25.04-23.601-50.08-23.601-25.04 0-66.282-5.9003-66.282-5.9003l-19.148-2.9501z"/>
<path d="m930.68 3904s16.202 10.326 13.256 30.976c-2.9459 20.651-14.729 67.853-26.513 79.653-11.783 11.8-64.809 26.551-64.809 26.551s1.4729-35.402 10.311-51.627c8.8377-16.226 39.77-61.953 51.553-69.328 11.784-7.3753 16.202-16.226 16.202-16.226z"/>
<path d="m952.77 3914.3s22.094 5.9001 42.715 4.4251c20.621-1.475 30.932-5.9003 42.715-14.751 11.783-8.8503 22.094-5.9002 29.459-19.176 7.3647-13.276 0-33.926 2.9459-42.777 2.9459-8.8504 4.4188-22.126 4.4188-22.126s-23.567 1.475-36.824 22.126c-13.257 20.651-14.73 47.202-35.351 54.577-20.621 7.3752-55.972 13.276-50.08 17.701z"/>
<path d="m940.99 3911.3s5.8918-8.8504 13.256-20.651c7.3647-11.8 20.621-50.152 35.351-57.528 14.729-7.3752 32.405-8.8504 42.715-14.751 10.311-5.9003 19.148-11.801 19.148-11.801s-7.3647 19.176-11.784 30.976c-4.4188 11.8-14.73 44.252-22.094 51.627-7.3647 7.3753-76.593 22.126-76.593 22.126z"/>
<path d="m842.3 3816.9c1.4729 14.75 2.9458 26.551 16.202 39.827 13.256 13.276 66.282 45.727 66.282 45.727s-22.094-36.877-22.094-45.727c0-8.8503-11.784-29.501-27.986-30.976-16.202-1.4752-32.405-8.8504-32.405-8.8504z"/>
<path d="m920.37 3917.2c-27.986-5.9003-55.972-19.176-67.755-28.026-11.784-8.8504-41.242-19.176-48.607-16.226-7.3647 2.9501 5.8918-14.751 25.04-19.176 19.148-4.4252 30.932-5.9002 48.607-2.9502 17.675 2.9502 13.256 20.651 26.513 33.926 13.256 13.276 29.459 28.026 29.459 28.026l-20.621 4.4253z"/>
<path d="m923.13 3892c-1.4729-19.176-8.8376-48.677-14.545-60.109-4.2179-8.4479-14.545-30.976-22.278-44.252-7.3471-12.613-11.599-20.835-11.599-20.835s-13.256-2.9501-17.675-10.325c-4.4188-7.3754-3.3141-16.779 3.4983-22.31 5.7206-4.645 13.32-4.3585 20.069-0.1843 6.26 3.872 15.466 11.985 9.5741 19.36-5.8917 7.3753 6.6283 28.211 6.6283 28.211l13.256 26.551s10.021 32.195 5.3972-5.5229c-4.6238-37.718-2.4513-50.53-2.4513-50.53s-16.202-8.8504-14.729-22.126c1.473-13.276 8.7341-17.859 19.148-17.701 12.152 0.1844 19.4 8.351 20.621 18.438 1.5232 12.576-13.072 22.126-13.072 22.126s-1.755 20.699 0.33664 39.042c2.0916 18.343 10.994-14.546 15.892-22.224 7.1043-11.136 14.519-19.031 20.411-21.981 5.8918-2.9501 1.473-14.751 14.729-17.701 13.256-2.9501 19.148 10.325 17.675 16.226-1.473 5.9002-2.9459 19.176-10.311 20.651-7.3647 1.475-16.202-7.7441-16.202-7.7441s-14.093 10.065-18.57 22.624c-4.4291 12.425-18.204 33.979-18.717 45.851-0.83033 19.215 6.1706 67.416 6.1706 67.416l-4.2347 9.0347z"/>
<path d="m932.15 3911.3s-35.351 0-48.607 2.9502c-13.257 2.9501-58.918 32.451-58.918 32.451s-23.567 17.701-38.297 23.601c-14.729 5.9002-26.513 7.3754-26.513 7.3754s33.878 19.176 47.134 17.701c13.257-1.4751 44.188-4.4252 55.972-10.326 11.784-5.9002 41.242-28.026 48.607-36.877 7.3647-8.8503 20.621-36.876 20.621-36.876z"/>
</g>
</g>
</g>
</g>
</svg>
