<?xml version="1.0" encoding="UTF-8" standalone="no"?>
<!-- Created with Inkscape (http://www.inkscape.org/) -->

<svg
   xmlns:dc="http://purl.org/dc/elements/1.1/"
   xmlns:cc="http://creativecommons.org/ns#"
   xmlns:rdf="http://www.w3.org/1999/02/22-rdf-syntax-ns#"
   xmlns:svg="http://www.w3.org/2000/svg"
   xmlns="http://www.w3.org/2000/svg"
   xmlns:sodipodi="http://sodipodi.sourceforge.net/DTD/sodipodi-0.dtd"
   xmlns:inkscape="http://www.inkscape.org/namespaces/inkscape"
   width="194.27548mm"
   height="229.68224mm"
   viewBox="0 0 194.27549 229.68224"
   version="1.1"
   id="svg8"
   inkscape:version="0.92.4 (5da689c313, 2019-01-14)"
   sodipodi:docname="Sermersooq-coat-of-arms.svg">
  <defs
     id="defs2">
    <clipPath
       clipPathUnits="userSpaceOnUse"
       id="clipPath58">
      <path
         style="fill:#00ffff;stroke:none;stroke-width:3.77952743px;stroke-linecap:butt;stroke-linejoin:miter;stroke-opacity:1"
         d="m 26.847453,404.5386 c -1.424629,106.74739 18.089787,220.45258 93.432577,300.34696 41.82016,51.91532 96.10131,92.03278 157.0128,119.15845 32.90908,16.27241 66.70048,30.71671 100.99163,43.81153 93.39154,-36.76974 191.57712,-78.78497 255.62745,-159.8696 51.50102,-56.46225 83.00871,-129.15492 89.99108,-205.17876 12.89602,-112.65706 2.33692,-226.83625 5.98088,-340.35767 0,-43.4498 0,-86.899599 0,-130.349404 -234.34545,0 -468.69095,0 -703.036417,0 0,124.146164 0,248.292344 0,372.438494 z"
         id="path60"
         inkscape:connector-curvature="0" />
    </clipPath>
  </defs>
  <sodipodi:namedview
     id="base"
     pagecolor="#ffffff"
     bordercolor="#666666"
     borderopacity="1.0"
     inkscape:pageopacity="0.0"
     inkscape:pageshadow="2"
     inkscape:zoom="0.49497475"
     inkscape:cx="-279.63471"
     inkscape:cy="267.84869"
     inkscape:document-units="mm"
     inkscape:current-layer="layer1"
     showgrid="false"
     fit-margin-top="0"
     fit-margin-left="0"
     fit-margin-right="0"
     fit-margin-bottom="0"
     showguides="false"
     inkscape:snap-others="false"
     inkscape:object-nodes="false"
     inkscape:snap-nodes="false"
     inkscape:window-width="1920"
     inkscape:window-height="1017"
     inkscape:window-x="-8"
     inkscape:window-y="-8"
     inkscape:window-maximized="1" />
  <metadata
     id="metadata5">
    <rdf:RDF>
      <cc:Work
         rdf:about="">
        <dc:format>image/svg+xml</dc:format>
        <dc:type
           rdf:resource="http://purl.org/dc/dcmitype/StillImage" />
        <dc:title></dc:title>
      </cc:Work>
    </rdf:RDF>
  </metadata>
  <g
     inkscape:label="Layer 1"
     inkscape:groupmode="layer"
     id="layer1"
     transform="translate(-8.3953503,-47.039696)">
    <path
       style="opacity:1;fill:#ffffff;fill-opacity:1;stroke:none;stroke-width:7.14285707;stroke-miterlimit:4;stroke-dasharray:none"
       d="m 343.89844,496.70703 c -36.90624,0.16614 -62.20417,1.55977 -96.32422,4.87305 -11.78571,1.14446 -28.49972,2.7319 -37.14258,3.52734 -31.28665,2.87943 -46.02697,4.37647 -62.85742,6.38477 -9.42857,1.12506 -23.89258,2.73354 -32.14258,3.57422 -29.672023,3.02359 -74.574692,8.53681 -75.402343,9.25781 -0.617806,0.53819 5.460585,34.82639 7.601562,42.88086 5.711948,21.48865 20.312495,55.26182 25.232422,58.36523 2.494025,1.57319 16.952245,-0.10967 42.794919,-4.98047 8.37541,-1.57858 20.9114,-3.4409 27.85742,-4.13867 6.94602,-0.69777 18.4149,-1.98696 25.48633,-2.86523 21.42646,-2.66116 68.98021,1.94601 87.85743,8.51172 1.96428,0.6832 7.42829,2.34626 12.14257,3.69531 9.00134,2.57584 34.4088,13.0167 37.54688,15.42969 4.4981,3.45872 33.55738,15.2182 57.45312,23.25 3.53572,1.18841 7.71373,2.71902 9.28516,3.40039 6.99668,3.03377 13.65172,4.83192 24.28711,6.5625 16.12063,2.62313 60.25828,0.22094 89.28516,-4.85938 9.03571,-1.58143 22.8577,-3.59652 30.71484,-4.47656 7.85714,-0.88003 19.74916,-2.35759 26.42773,-3.2832 16.4618,-2.28155 59.58178,-2.08893 72.14258,0.32226 10.33966,1.9848 25.92345,6.70602 35.48242,10.74805 6.52129,2.75755 7.83653,2.00544 13.48828,-7.71094 4.55219,-7.82605 9.7283,-15.88995 11.72461,-18.26758 0.79677,-0.94898 1.44727,-2.96144 1.44727,-4.4707 0,-2.8448 -2.47741,-4.1283 -14.28516,-7.39648 -3.53571,-0.97863 -8.99972,-2.58783 -12.14257,-3.57618 -3.14285,-0.98834 -9.60951,-2.51062 -14.3711,-3.38476 -10.72759,-1.96941 -79.78772,-2.11613 -93.10156,-0.19727 -5.31816,0.76647 -17.70592,2.40908 -27.52734,3.65039 -9.82142,1.24131 -22.35743,2.83306 -27.85743,3.53516 -5.5,0.70211 -15.78599,1.98096 -22.85742,2.84375 -7.07143,0.86277 -17.03544,2.26395 -22.14258,3.11328 -34.50916,5.73885 -55.76243,1.67286 -102.14257,-19.54101 -3.92857,-1.7969 -13.57059,-5.93225 -21.42774,-9.18946 -16.68823,-6.91815 -19.93759,-8.29281 -25.71484,-10.88672 -2.35715,-1.05832 -9.42913,-3.6055 -15.71485,-5.66015 -6.28571,-2.05466 -12.03872,-4.33549 -12.78515,-5.06836 -0.74643,-0.73287 -2.35441,-1.33489 -3.57227,-1.33789 -1.21786,-0.003 -7.03488,-1.98721 -12.92773,-4.41016 -15.92416,-6.5475 -31.30075,-8.38652 -70.35742,-8.41602 -33.55016,-0.0253 -45.62012,-1.85799 -21.42774,-3.2539 6.875,-0.39668 20.21401,-1.42701 29.64258,-2.28906 9.42857,-0.86205 27.42857,-2.21403 40,-3.00391 12.57143,-0.78988 33.78543,-2.23163 47.14258,-3.20508 33.0224,-2.40666 182.02682,-2.41521 213.57031,-0.0117 12.96428,0.98783 33.85826,2.44221 46.42969,3.23243 21.03595,1.32228 48.1653,3.55184 86.49414,7.10742 8.2862,0.76867 18.07841,1.39843 21.75976,1.39843 7.26602,0 21.27478,1.86701 38.20703,5.09375 5.9108,1.12641 13.68333,2.04883 17.27149,2.04883 h 6.52344 l 1.81445,-10.35742 c 0.99796,-5.69643 2.40546,-12.34961 3.12695,-14.78516 0.72148,-2.43555 1.96337,-8.22154 2.76172,-12.85742 3.95112,-22.94346 3.88557,-21.90737 1.4668,-22.59179 -5.09865,-1.44271 -47.72973,-5.89043 -131.56836,-13.72657 -7.46429,-0.69767 -20.64426,-1.93186 -29.28711,-2.74218 -8.64286,-0.81031 -24.71289,-2.14387 -35.71289,-2.96485 -11,-0.82099 -21.15262,-1.84581 -22.56055,-2.27734 -6.05419,-1.85563 -51.8372,-3.69698 -109.58203,-4.40625 -15.6381,-0.19208 -29.23112,-0.27218 -41.5332,-0.2168 z M 183.4082,659.50391 c -20.54223,-0.13176 -32.62632,1.0807 -62.97656,5.68554 -14.79137,2.2442 -15.44027,2.49527 -12.92969,5.00586 1.14435,1.14434 4.52015,5.11742 7.5,8.83008 2.97985,3.71265 6.54562,7.78982 7.92383,9.06055 1.37821,1.27073 2.50586,2.76315 2.50586,3.3164 0,4.56181 9.7092,6.40967 20,3.80664 2.75,-0.6956 12.66929,-2.09583 22.04492,-3.11132 24.77432,-2.68335 51.21931,0.56069 80.09766,9.82617 2.35714,0.75628 7.17717,2.18707 10.71289,3.17773 14.32202,4.01283 19.91711,6.21159 37.77539,14.85352 27.63156,13.37139 34.69007,16.53515 36.89844,16.53515 1.09627,0 2.43418,0.44004 2.97265,0.97852 1.03283,1.03282 4.9306,2.51639 22.35352,8.50195 5.89285,2.02447 12.32282,4.4982 14.28711,5.49805 3.37993,1.72042 17.61691,4.48628 28.57031,5.55078 7.76033,0.75419 43.81511,-0.58492 55.46094,-2.06055 5.75329,-0.72899 12.93259,-1.32617 15.95312,-1.32617 3.02053,0 5.70488,-0.60789 5.9668,-1.34961 0.2619,-0.74173 6.90457,-2.06502 14.76172,-2.9414 7.85714,-0.87638 19.10714,-2.18663 25,-2.91211 14.98154,-1.84443 52.86642,-4.38892 54.08984,-3.63281 0.55745,0.34451 7.28701,0.7936 14.95508,0.99804 l 13.94336,0.3711 14.85938,-14.8086 c 8.1733,-8.14549 14.59247,-15.24534 14.26367,-15.77734 -0.32879,-0.53201 -4.31267,-1.68197 -8.85352,-2.55469 -32.04098,-6.15808 -42.15222,-6.1097 -91.82812,0.44336 -14.69937,1.93909 -27.46887,3.5233 -52.5,6.51367 -6.875,0.82133 -18.60799,2.38449 -26.07227,3.47266 -35.27063,5.14191 -37.96097,5.33766 -49.5,3.59765 -10.25613,-1.54655 -29.94159,-6.8376 -36.92773,-9.92578 -1.57143,-0.69464 -6.51323,-2.9235 -10.98242,-4.95117 -4.46921,-2.02767 -8.52741,-3.68555 -9.01758,-3.68555 -0.49017,0 -4.54836,-1.65983 -9.01758,-3.6875 -4.4692,-2.02767 -9.41099,-4.19376 -10.98242,-4.81445 -1.57143,-0.62069 -6.39342,-2.7341 -10.71485,-4.69726 -12.12816,-5.50963 -32.51146,-13.40487 -43.57031,-16.875 -5.5,-1.72583 -12.25,-4.00141 -15,-5.05664 -2.75,-1.05523 -10.14397,-3.28715 -16.42969,-4.96094 -6.28571,-1.67379 -13.03571,-3.75585 -15,-4.625 -2.04078,-0.903 -15.41077,-1.81858 -31.19531,-2.13672 -3.35773,-0.0677 -6.46383,-0.11399 -9.39844,-0.13281 z m -20.65625,75.58007 c -1.12328,0.0287 8.46425,8.54022 9.65821,8.57422 0.48282,0.0138 4.1777,3.06678 8.21093,6.78516 4.03323,3.71839 10.43568,9.33175 14.22852,12.47461 3.79284,3.14285 8.66868,7.48187 10.83398,9.64258 2.16531,2.16072 4.60187,3.92968 5.41407,3.92968 0.8122,0 1.48132,0.48104 1.48632,1.07032 0.005,0.58929 2.24249,2.59133 4.97071,4.44922 2.72822,1.8579 6.41886,4.6475 8.20312,6.19726 16.52982,14.35734 55.20519,33.3769 95.38672,46.91016 4.32143,1.45547 14.28543,4.99319 22.14258,7.86133 7.85714,2.86813 16.21513,5.76027 18.57227,6.42578 2.35714,0.66551 8.78515,2.79983 14.28515,4.74414 10.74526,3.79856 13.56387,3.70816 25.69336,-0.83008 3.9409,-1.47448 11.98605,-4.28822 17.87891,-6.25195 5.89285,-1.96373 12.64285,-4.45624 15,-5.53907 2.35714,-1.08282 6.54484,-2.93896 9.30664,-4.125 2.76178,-1.18604 6.61976,-2.85116 8.57226,-3.69922 1.95248,-0.84804 8.04883,-3.97887 13.54883,-6.95898 5.5,-2.98011 13.53599,-7.33073 17.85742,-9.66797 4.32143,-2.33724 9.46541,-5.2826 11.42969,-6.54492 6.80286,-4.37173 16.45113,-9.8144 21.76953,-12.2793 8.31606,-3.8542 6.52078,-6.14572 -2.6289,-3.35547 -2.27796,0.69468 -8.64063,2.01828 -14.14063,2.94141 -5.5,0.92314 -13.85798,2.55271 -18.57226,3.62305 -10.94001,2.48385 -23.42201,4.46635 -41.50391,6.58984 -29.26203,3.43646 -72.57971,-1.76729 -108.59766,-13.04492 -2.41293,-0.75552 -5.77105,-1.37305 -7.46289,-1.37305 -2.54873,0 -21.89051,-4.72186 -41.00781,-10.01172 -4.5256,-1.25225 -19.45658,-6.50277 -24.28516,-8.53906 -1.57143,-0.6627 -8.96344,-3.58832 -16.42773,-6.50195 -7.46429,-2.91364 -16.90608,-6.82526 -20.98242,-8.69336 -4.07635,-1.86809 -7.75561,-3.39649 -8.17383,-3.39649 -0.41823,0 -4.15446,-1.55006 -8.30274,-3.44335 -12.976,-5.92233 -41.42864,-17.9868 -42.36328,-17.9629 z"
       id="path98"
       transform="matrix(0.26458333,0,0,0.26458333,5.4239554,42.678722)"
       inkscape:connector-curvature="0" />
    <path
       style="fill:#5b71c8;fill-opacity:1;stroke:#000000;stroke-width:1;stroke-linecap:butt;stroke-linejoin:miter;stroke-miterlimit:4;stroke-dasharray:none;stroke-opacity:1"
       d="M 11.730469,16.982422 V 404.57227 c 0,213.99121 65.884076,278.08891 137.035151,352.96679 62.80732,66.0971 229.59961,126.50196 229.59961,126.50196 0,0 166.79229,-60.40486 229.59961,-126.50196 C 679.11592,682.66118 745,618.56348 745,404.57227 V 16.982422 Z"
       id="path21"
       inkscape:connector-curvature="0"
       sodipodi:nodetypes="csscsscc"
       transform="matrix(0.26458333,0,0,0.26458333,5.4239554,42.678722)" />
    <circle
       style="opacity:1;fill:#ffff00;fill-opacity:1;stroke:none;stroke-width:3.02884579;stroke-miterlimit:4;stroke-dasharray:none"
       id="path105"
       cx="130.5549"
       cy="99.429909"
       r="45" />
    <path
       style="opacity:1;fill:#000080;fill-opacity:1;stroke:none;stroke-width:3.57142854;stroke-miterlimit:4;stroke-dasharray:none"
       d="m 457.70898,96.056641 c -14.2619,0.484678 -25.58113,13.812469 -30.19921,27.048829 -9.88445,14.26668 -8.56633,36.13824 11.37109,40.35547 17.86454,5.03161 31.61851,18.76019 49.28516,23.92968 14.83982,4.79375 17.54306,-8.39226 21.54101,-18.64257 5.33159,-15.1003 -2.58434,-30.16795 -8.75586,-43.00586 -7.46222,-13.62432 -19.31451,-25.5691 -35.04101,-28.550784 -2.81903,-0.873204 -5.56008,-1.224521 -8.20118,-1.134765 z M 332.24609,150.05078 c -13.58781,0.2235 -21.08057,11.15589 -18.6875,26.46484 -1.2161,9.45675 10.42777,15.41811 17.19727,19.61719 19.36574,0.67513 38.67872,2.42435 57.94531,4.33985 3.69857,0.11837 7.39923,0.1795 11.09961,0.19726 16.48781,1.36842 39.23979,-2.31153 44.08008,-20.77539 -8.79288,-13.14579 -28.69684,-18.16419 -43.57227,-23.93359 -19.16693,-6.96687 -39.79691,-5.77695 -59.91015,-4.89258 -2.91017,-0.73334 -5.63608,-1.05897 -8.15235,-1.01758 z m 135.66797,36.75195 c -1.01531,0.002 -2.03931,0.042 -3.07226,0.125 -14.91538,1.20033 -27.66661,9.71512 -36.44532,20.39258 -9.71731,10.28068 -6.25806,26.02152 -6.78515,39.21094 -0.0164,12.91355 19.16382,15.1043 28.69726,15.85937 12.30607,1.6269 24.90629,-1.86214 37.44922,-1.82812 12.52056,-3.36476 28.28107,-5.68946 34.66602,-19.60156 4.70275,-14.05898 3.34245,-34.36947 -11.40039,-41.47656 -14.53167,-4.06826 -27.87966,-12.71087 -43.10938,-12.68165 z m -151.64844,12.19532 c -1.97363,0.0355 -3.95824,0.20325 -5.95703,0.53515 -16.60235,3.45663 -18.57326,24.16302 -19.91992,38.01563 1.5334,13.2692 9.52185,25.94781 19.04102,35.28906 8.07981,3.07253 16.55498,-1.70725 24.61523,-2.54101 17.73928,-7.35806 33.56103,-18.06635 50.30078,-27.19141 8.39683,-5.25215 32.59257,-16.06795 20.35352,-25.35156 -13.68885,-9.80411 -31.88524,-6.93589 -47.5625,-11.07813 -13.78122,-1.69907 -27.05566,-7.92623 -40.8711,-7.67773 z m 154.61524,68.46093 c -23.83801,1.97655 -47.78112,3.78174 -71.59766,6.24414 -27.38332,3.51228 -54.97238,4.68535 -82.53711,5.87696 -16.35956,1.99502 -38.97555,5.65737 -42.25,25.66797 -3.04546,15.5455 1.80557,36.3265 20.8125,37.14257 20.96278,1.69811 41.99976,0.85636 62.5,-3.57226 16.74671,-5.64215 36.4311,-1.84518 54.28907,-5.39453 21.07763,-2.97528 42.29845,-5.48836 63.16015,-9.60547 18.65866,-3.9577 38.0631,-5.42146 57.14453,-7.29297 6.22814,1.37012 14.46647,-2.88664 13.63868,-9.82227 2.7126,-16.22641 -11.99458,-27.94115 -26.36914,-30.99414 -14.85926,-6.78674 -32.71087,-8.20011 -48.79102,-8.25 z m 55.73828,62.38868 c -12.75044,-0.21726 -26.20788,9.43919 -35.58594,16.49218 -15.26052,12.34194 -7.18562,38.25664 13.91797,34.6543 15.06153,4.07354 25.14855,-6.35284 37.72266,-11.06641 10.25148,-9.22726 5.30191,-27.55467 -3.7168,-36.10937 -3.91549,-2.72874 -8.08774,-3.89829 -12.33789,-3.9707 z m -91.36328,21.63476 c -6.29948,-0.14315 -12.66423,0.58425 -18.89844,2.15235 -16.89211,4.11541 -33.92034,5.93065 -51.41797,5.30468 -21.22316,3.04014 -42.35273,-1.42027 -63.69531,-0.41015 -6.39487,0.96593 -14.86999,-2.08675 -19.88867,1.53906 -9.78322,1.85968 -8.66946,8.55359 -7.83399,16.74023 6.66452,12.79276 24.12942,13.04975 36.78711,15.73243 11.27316,0.91113 22.64159,0.47996 33.94532,0.46484 38.02167,-2.3915 76.02019,-5.70742 113.85156,-10.05078 17.78948,3.21936 23.50838,-17.40767 7.20312,-23.39063 -9.23577,-5.19009 -19.55361,-7.84344 -30.05273,-8.08203 z m -178.48828,38.84766 c -11.87182,-0.11662 -24.09999,0.81699 -29.13672,11.06445 -3.07292,15.14011 -1.68781,31.31766 4.10742,45.20508 3.64241,12.24189 13.38942,20.78732 23.11524,28.81836 9.20431,7.37106 15.23159,17.49618 26.16992,22.4375 l 0.5,0.45703 c 28.84748,-0.51481 57.73567,-3.15774 86.66797,-3.0625 18.04667,2.03074 17.26112,-23.7818 21.46679,-36.44727 4.75862,-14.68996 9.90958,-32.28556 -0.77734,-45.7539 -10.99805,-13.45822 -31.62615,-8.72723 -46.7832,-14.09571 -23.36555,-2.90195 -46.38291,-8.38039 -70.07227,-8.58789 -4.54004,0.28904 -9.86153,0.0179 -15.25781,-0.0351 z m 303.05741,5.74683 c -28.72076,0.39987 -57.44992,0.6134 -86.17069,-0.39531 -13.28089,1.5586 -37.8959,-3.16276 -43.45899,12.27344 0.83612,5.72595 -0.33996,12.51916 0.0191,18.56791 1.15635,9.49761 10.12516,9.67862 20.85765,9.521 29.59247,-0.43493 59.28641,-0.89185 88.70136,2.24117 14.11743,-0.1188 28.62796,0.94579 42.74676,0.29641 8.90923,-0.83668 9.70626,1.62399 11.45973,-6.6502 1.98443,-9.38987 0.16028,-20.23469 -2.67579,-28.68679 -2.18303,-8.5938 -18.03578,-7.35583 -31.47913,-7.16763 z m -141.70585,47.9309 c -6.57876,0.0245 -12.6548,1.54364 -17.5,6.59766 -1.25775,13.41789 -5.15577,34.79432 6.375,44.01172 47.65667,2.91152 95.41742,5.07628 142.95703,9.875 9.87077,0.0786 20.09235,3.90907 29.75195,0.56445 13.62996,-4.89524 10.28751,-21.18069 11.30469,-32.86328 2.53342,-11.31133 -11.99831,-16.06967 -19.55469,-21.12891 -39.59009,-5.05069 -79.97743,0.11348 -119.63476,-4.18554 -10.37464,1.19593 -22.73462,-2.91191 -33.69922,-2.8711 z"
       id="path67"
       transform="matrix(0.26458333,0,0,0.26458333,5.4239554,42.678722)"
       inkscape:connector-curvature="0"
       sodipodi:nodetypes="sccccccsscccccccscccccccccscccccccsccccccccccccccccccscccccccccscccccccccccscccccccccccccccccscc" />
    <path
       style="fill:#ffffff;stroke:none;stroke-width:0.99999994px;stroke-linecap:butt;stroke-linejoin:miter;stroke-opacity:1"
       d="M 383.57227,495.28516 C 240.71513,495.28516 -80,539.57227 -80,539.57227 L -37.857422,651 C -37.857422,651 170,590.99945 250,620.28516 330,649.57086 385.21432,687.48387 459.28516,676 c 92.14284,-14.28571 152.85713,-43.57143 300,50 L 780,690.28516 c 0,0 -37.36544,-44.24 -156.42773,-63.57032 -46.04202,-7.47515 -148.57285,7.14149 -184.28711,15.71289 C 403.42931,651.03315 359.57713,629.30904 320,613.85742 281.2727,598.73761 252.85714,569.57225 145,574.57227 c 0,0 472.8574,-42.14451 647.85742,37.85546 l 14.00196,-78.46679 c 0,0 -280.42997,-38.67578 -423.28711,-38.67578 z M 759.28516,726 c 0,0 -24.96401,9.2813 -63.04883,21.61914 l 6.32422,-6.32422 C 610.63665,688.76701 533.36107,710.48558 457.59961,720.08203 381.83819,729.67848 387.39336,728.16271 288.39844,683.21094 139.72258,615.69996 10.607422,708.96875 10.607422,708.96875 L 76.716797,723.13477 57.857422,899.57227 352.85742,1008.8574 540.71484,871.71484 Z m -579.375,-34.87305 c 11.68024,0.0296 24.73256,0.9935 39.29296,3.19532 103.54064,15.65737 135.36061,85.35887 254.5586,58.58984 98.44854,-22.10922 158.35827,-5.37074 185.14258,6.41601 -84.78049,25.71402 -203.82506,55.71874 -277.47657,48.09961 -94.10842,-9.73533 -218.37162,-70.59074 -273.24023,-99.60351 14.02671,-8.48204 36.70965,-16.78589 71.72266,-16.69727 z"
       id="path26"
       transform="matrix(0.26458333,0,0,0.26458333,5.4239554,42.678722)"
       clip-path="url(#clipPath58)"
       inkscape:connector-curvature="0" />
  </g>
</svg>
