<?xml version="1.0" encoding="UTF-8" standalone="no"?>
<!-- Created with Inkscape (http://www.inkscape.org/) -->
<svg
   xmlns:dc="http://purl.org/dc/elements/1.1/"
   xmlns:cc="http://web.resource.org/cc/"
   xmlns:rdf="http://www.w3.org/1999/02/22-rdf-syntax-ns#"
   xmlns:svg="http://www.w3.org/2000/svg"
   xmlns="http://www.w3.org/2000/svg"
   xmlns:sodipodi="http://sodipodi.sourceforge.net/DTD/sodipodi-0.dtd"
   xmlns:inkscape="http://www.inkscape.org/namespaces/inkscape"
   width="709.79999"
   height="429.79999"
   id="svg2"
   sodipodi:version="0.32"
   inkscape:version="0.45"
   sodipodi:docbase="/home/monkey/Desktop/Public Domain"
   sodipodi:docname="Flag_of_East_New_Britain.svg"
   inkscape:output_extension="org.inkscape.output.svg.inkscape"
   version="1.0"
   sodipodi:modified="true">
  <defs
     id="defs4" />
  <sodipodi:namedview
     id="base"
     pagecolor="#ffffff"
     bordercolor="#666666"
     borderopacity="1.0"
     gridtolerance="10000"
     guidetolerance="10"
     objecttolerance="10"
     inkscape:pageopacity="0.0"
     inkscape:pageshadow="2"
     inkscape:zoom="1"
     inkscape:cx="369.45031"
     inkscape:cy="138.87775"
     inkscape:document-units="px"
     inkscape:current-layer="layer1"
     showguides="true"
     inkscape:guide-bbox="true"
     inkscape:window-width="798"
     inkscape:window-height="622"
     inkscape:window-x="165"
     inkscape:window-y="93" />
  <metadata
     id="metadata7">
    <rdf:RDF>
      <cc:Work
         rdf:about="">
        <dc:format>image/svg+xml</dc:format>
        <dc:type
           rdf:resource="http://purl.org/dc/dcmitype/StillImage" />
      </cc:Work>
    </rdf:RDF>
  </metadata>
  <g
     inkscape:label="Layer 1"
     inkscape:groupmode="layer"
     id="layer1"
     transform="translate(-7.1,-465.46218)">
    <rect
       style="opacity:1;color:#000000;fill:#008033;fill-opacity:1;fill-rule:nonzero;stroke:#000000;stroke-width:1.79999995;stroke-linecap:butt;stroke-linejoin:miter;marker:none;marker-start:none;marker-mid:none;marker-end:none;stroke-miterlimit:4;stroke-dasharray:none;stroke-dashoffset:0;stroke-opacity:1;visibility:visible;display:inline;overflow:visible;enable-background:accumulate"
       id="rect4611"
       width="708"
       height="428"
       x="8"
       y="466.36218" />
    <path
       style="fill:#000000;fill-rule:evenodd;stroke:none;stroke-width:1px;stroke-linecap:butt;stroke-linejoin:miter;stroke-opacity:1"
       d="M 114,466.36218 L 716,813.36218 L 715,465.36218 L 114,466.36218 z "
       id="path4617" />
    <path
       style="fill:#800000;fill-opacity:1;fill-rule:evenodd;stroke:none;stroke-width:1px;stroke-linecap:butt;stroke-linejoin:miter;stroke-opacity:1"
       d="M 610,892.36218 L 8.0000002,545.36218 L 9.0000002,893.36218 L 610,892.36218 z "
       id="path5588" />
    <path
       style="fill:#fff6f6;fill-opacity:1;stroke:#000000;stroke-width:1.80533659;stroke-miterlimit:4;stroke-dasharray:none;stroke-opacity:1"
       d="M 356.49672,842.99667 C 355.93694,842.43268 344.41247,840.73994 335.73298,839.94684 C 333.23822,839.71889 331.19706,838.88045 331.19706,838.08366 C 331.19706,837.28689 329.67879,837.21759 327.82312,837.92966 C 325.27409,838.90782 324.76347,838.40539 325.7346,835.87461 C 326.44158,834.03226 326.37229,832.62141 325.5806,832.73942 C 321.31061,833.37586 319.3572,832.13933 320.3882,829.45255 C 321.02644,827.78939 320.61995,826.4286 319.48495,826.4286 C 318.34994,826.4286 317.06846,827.48715 316.6372,828.78092 C 316.15888,830.21592 314.12801,829.28154 311.4293,826.38483 C 308.99619,823.77321 307.00549,822.32586 307.00549,823.16853 C 307.00549,824.01119 305.57157,823.26673 303.81902,821.51417 C 302.06646,819.76162 299.5717,818.99514 298.27511,819.8109 C 296.67573,820.81718 297.05211,821.51891 299.44562,821.9932 C 301.38599,822.37773 302.95967,824.21337 302.9427,826.07243 C 302.91603,828.99154 302.64528,829.04012 300.9576,826.4286 C 299.88276,824.76544 298.98947,824.25844 298.97249,825.30194 C 298.95552,826.34545 297.71849,825.52647 296.22351,823.48197 C 294.72855,821.4375 292.46059,820.41048 291.1836,821.19968 C 289.90662,821.98891 288.86182,821.57685 288.86182,820.28401 C 288.86182,818.99117 287.72306,818.37035 286.33126,818.90444 C 282.98531,820.18842 279.25071,816.03274 280.37186,812.27321 C 280.88095,810.56605 279.89741,811.01529 278.06947,813.32484 C 276.15839,815.73941 274.85257,816.3121 274.81417,814.75253 C 274.77892,813.32019 272.9357,810.20079 270.71814,807.82052 C 268.50058,805.44022 266.68621,802.75662 266.68621,801.85691 C 266.68621,800.95721 268.50058,802.03545 270.71814,804.253 C 274.98824,808.5231 278.78199,809.53546 278.78199,806.40482 C 278.78199,805.37076 276.96763,803.94885 274.75007,803.24502 C 272.53251,802.54119 270.71814,801.11929 270.71814,800.08522 C 270.71814,797.27271 265.13684,797.8171 264.15809,800.72506 C 263.48422,802.7273 262.6672,802.71465 260.18143,800.6635 C 256.25402,797.4228 254.43642,788.6181 257.40338,787.20625 C 258.6282,786.62342 257.73261,786.60737 255.41318,787.1706 C 252.49,787.88044 248.96492,786.09046 243.92463,781.33686 C 239.92536,777.56505 237.25951,773.87277 238.00052,773.13177 C 238.74153,772.39076 237.93524,772.32653 236.20879,772.98904 C 234.0716,773.80915 231.47559,771.75206 228.07482,766.54371 C 223.98798,760.28459 223.36615,757.61104 224.6546,751.83794 C 225.52069,747.95721 225.66967,743.42129 224.98566,741.75813 C 224.30163,740.09495 223.5111,737.827 223.2289,736.71822 C 221.19522,728.72762 219.09322,725.91211 216.40266,727.57495 C 214.22454,728.92113 214.07669,730.02288 215.79614,732.09472 C 217.04669,733.60154 219.05842,737.43447 220.26665,740.61235 C 222.21645,745.7407 222.11075,746.09762 219.32656,743.78695 C 217.60128,742.35509 216.64128,740.73196 217.19325,740.17999 C 217.74522,739.62802 216.9405,736.80896 215.40497,733.91538 C 211.90419,727.31844 208.43272,717.93649 207.3043,712.02266 C 206.66616,708.67835 207.39196,707.48674 210.06698,707.48674 C 213.04404,707.48674 213.69517,705.7926 213.69517,698.0466 C 213.69517,688.67004 213.67094,688.63639 210.09697,693.05001 C 207.86242,695.80961 205.9958,696.6797 205.17152,695.34598 C 204.44151,694.16481 204.82164,692.02067 206.01624,690.58125 C 207.21086,689.14181 207.51575,687.22265 206.69379,686.31642 C 205.87184,685.4102 206.77396,685.23344 208.69852,685.92363 C 211.46765,686.91669 212.11197,686.14248 211.78676,682.2129 C 211.29714,676.29689 211.43533,676.33915 207.01925,680.75526 C 203.68592,684.08857 203.58271,683.9786 204.94609,678.54645 C 205.81614,675.07993 205.45605,671.7153 204.03128,669.99858 C 202.50377,668.158 202.42481,667.16746 203.80562,667.16746 C 205.054,667.16746 205.68359,663.63549 205.33287,658.59962 C 205.00469,653.8873 205.66281,648.86049 206.79534,647.42896 C 207.92786,645.9974 209.07293,641.46148 209.33992,637.34914 C 209.7387,631.20701 210.57677,629.90013 214.03417,630.02897 C 217.2713,630.14961 219.52987,627.39838 223.81694,618.11231 C 226.88261,611.47186 229.16409,605.50459 228.88689,604.8517 C 227.68456,602.01978 223.99325,604.10934 220.30006,609.71249 C 215.16165,617.50818 215.07193,613.74607 220.19585,605.34283 C 222.33737,601.83072 225.19011,595.28367 226.53531,590.79382 C 229.5104,580.86385 237.53338,573.35722 245.0146,573.50384 C 250.86862,573.61857 252.1738,570.80691 248.13934,566.77246 C 246.25779,564.8909 246.25779,564.3533 248.13934,564.3533 C 249.46988,564.3533 250.5585,563.44612 250.5585,562.33734 C 250.5585,559.66223 258.05063,552.25752 260.7573,552.25752 C 261.94952,552.25752 262.2065,551.14481 261.33925,549.73756 C 260.48512,548.35159 262.24595,548.82609 265.25222,550.79201 C 268.25846,552.75794 270.71814,553.89192 270.71814,553.31197 C 270.71814,550.84661 269.60554,549.26845 268.19818,549.73756 C 267.3666,550.01476 266.68621,548.90924 266.68621,547.28087 C 266.68621,545.34768 267.85043,544.76696 270.04086,545.6075 C 272.2965,546.47307 272.91798,546.12211 271.93786,544.53625 C 271.09034,543.16494 271.6603,542.1777 273.29952,542.1777 C 274.85014,542.1777 277.15219,539.90974 278.41519,537.13779 C 279.67817,534.36584 281.99468,532.09788 283.56299,532.09788 C 285.13131,532.09788 286.9176,530.7868 287.53251,529.18437 C 288.38153,526.97183 290.10278,526.68733 294.68649,528.00194 C 299.86077,529.4859 301.1776,529.03843 303.91046,524.86756 C 305.66384,522.19155 308.43829,520.0021 310.07591,520.0021 C 311.71351,520.0021 313.05338,519.20071 313.05338,518.22126 C 313.05338,517.2418 314.86775,515.96596 317.08531,515.38604 C 319.39347,514.78244 321.13044,515.32835 321.14811,516.66289 C 321.16855,518.20549 321.68002,518.28859 322.66007,516.90856 C 323.47468,515.76149 325.95555,514.85431 328.17311,514.8926 C 330.39067,514.93086 332.81081,514.12217 333.55122,513.09551 C 334.29162,512.06881 336.69637,510.95427 338.8951,510.61871 C 342.03294,510.13984 342.66259,510.88893 341.82248,514.10147 C 340.89378,517.65283 341.52039,518.06913 346.55844,517.24803 C 349.75187,516.72755 353.5957,516.22712 355.10032,516.13594 C 356.61035,516.04444 357.34264,514.68461 356.73484,513.10071 C 355.70227,510.40984 363.27296,506.39791 368.49239,506.87007 C 376.14453,507.56227 381.34495,510.24715 380.30132,512.96677 C 379.64021,514.68963 380.31519,516.04085 381.88445,516.13594 C 383.38907,516.22712 387.23291,516.72755 390.42633,517.24803 C 395.4644,518.06913 396.091,517.65283 395.1623,514.10147 C 394.32219,510.88893 394.95183,510.13984 398.08968,510.61871 C 400.28842,510.95427 402.69315,512.06881 403.43355,513.09551 C 404.17396,514.12217 406.59411,514.93086 408.81166,514.8926 C 411.02923,514.85431 413.51009,515.76149 414.3247,516.90856 C 415.30476,518.28859 415.81624,518.20549 415.83668,516.66289 C 415.85434,515.32835 417.59131,514.78244 419.89947,515.38604 C 422.11703,515.96596 423.9314,517.2418 423.9314,518.22126 C 423.9314,519.20071 425.27127,520.0021 426.90888,520.0021 C 428.54648,520.0021 431.32093,522.19155 433.07431,524.86756 C 435.80718,529.03843 437.124,529.4859 442.29828,528.00194 C 446.882,526.68733 448.60325,526.97183 449.45227,529.18437 C 450.06717,530.7868 451.85346,532.09788 453.42178,532.09788 C 454.99011,532.09788 457.3066,534.36584 458.56959,537.13779 C 459.83259,539.90974 462.13464,542.1777 463.68526,542.1777 C 465.32447,542.1777 465.89443,543.16494 465.04691,544.53625 C 464.0668,546.12211 464.68827,546.47307 466.94392,545.6075 C 469.13435,544.76696 470.29857,545.34768 470.29857,547.28087 C 470.29857,548.90924 469.61818,550.13412 468.78659,550.00282 C 465.45263,549.47642 464.07605,550.34403 465.24481,552.23512 C 465.99323,553.44609 468.58128,552.85257 471.8377,550.72315 C 474.78614,548.7951 476.49965,548.35159 475.64552,549.73756 C 474.77828,551.14481 475.03525,552.25752 476.22747,552.25752 C 478.93414,552.25752 486.42627,559.66223 486.42627,562.33734 C 486.42627,563.44612 487.5149,564.3533 488.84543,564.3533 C 490.72699,564.3533 490.72699,564.8909 488.84543,566.77246 C 484.81099,570.80691 486.11616,573.61857 491.97018,573.50384 C 499.45139,573.35722 507.47437,580.86385 510.44947,590.79382 C 511.79466,595.28367 514.64741,601.83072 516.78893,605.34283 C 521.91284,613.74607 521.82314,617.50818 516.68473,609.71249 C 512.74924,603.74177 508.7165,601.7599 508.48055,605.68056 C 508.41381,606.78935 510.69529,612.75661 513.55048,618.94117 C 517.50293,627.5024 519.74615,630.14838 522.9506,630.02897 C 526.408,629.90013 527.24608,631.20701 527.64486,637.34914 C 527.91184,641.46148 529.05692,645.9974 530.18945,647.42896 C 531.32197,648.86049 531.98008,653.8873 531.65191,658.59962 C 531.30119,663.63549 531.93077,667.16746 533.17916,667.16746 C 534.55998,667.16746 534.48101,668.158 532.9535,669.99858 C 531.52873,671.7153 531.16864,675.07993 532.03869,678.54645 C 533.40206,683.9786 533.29885,684.08857 529.96554,680.75526 C 525.54944,676.33915 525.68764,676.29689 525.19802,682.2129 C 524.8728,686.14248 525.51713,686.91669 528.28625,685.92363 C 530.21081,685.23344 531.11294,685.4102 530.29099,686.31642 C 529.46902,687.22265 529.77392,689.14181 530.96853,690.58125 C 532.16313,692.02067 532.54326,694.16481 531.81327,695.34598 C 530.98898,696.6797 529.12235,695.80961 526.8878,693.05001 C 523.31384,688.63639 523.28961,688.67004 523.28961,698.0466 C 523.28961,705.7926 523.94075,707.48674 526.9178,707.48674 C 529.59282,707.48674 530.31861,708.67835 529.68047,712.02266 C 528.55206,717.93649 525.08059,727.31844 521.57981,733.91538 C 520.04427,736.80896 519.23956,739.62802 519.79153,740.17999 C 520.3435,740.73196 519.38349,742.35509 517.65821,743.78695 C 514.87402,746.09762 514.76833,745.7407 516.71813,740.61235 C 517.92636,737.43447 519.93808,733.60154 521.18863,732.09472 C 522.90808,730.02288 522.76024,728.92113 520.58211,727.57495 C 517.89156,725.91211 515.78956,728.72762 513.75587,736.71822 C 513.47367,737.827 512.68314,740.09495 511.99912,741.75813 C 511.3151,743.42129 511.46408,747.95721 512.33018,751.83794 C 513.61862,757.61104 512.99681,760.28459 508.90995,766.54371 C 505.50919,771.75206 502.91317,773.80915 500.77599,772.98904 C 499.04954,772.32653 498.24325,772.39076 498.98426,773.13177 C 499.72526,773.87277 497.05941,777.56505 493.06015,781.33686 C 488.01985,786.09046 484.49478,787.88044 481.57159,787.1706 C 479.25216,786.60737 478.35658,786.62342 479.58139,787.20625 C 482.54835,788.6181 480.73076,797.4228 476.80336,800.6635 C 474.31757,802.71465 473.50056,802.7273 472.82668,800.72506 C 471.84794,797.8171 466.26664,797.27271 466.26664,800.08522 C 466.26664,801.11929 464.45227,802.54119 462.23471,803.24502 C 460.01715,803.94885 458.20278,805.37076 458.20278,806.40482 C 458.20278,809.53546 461.99655,808.5231 466.26664,804.253 C 468.48419,802.03545 470.29857,800.95721 470.29857,801.85691 C 470.29857,802.75662 468.48419,805.44022 466.26664,807.82052 C 464.04907,810.20079 462.20586,813.32019 462.1706,814.75253 C 462.13204,816.31891 460.81882,815.74995 458.87543,813.32484 C 457.02143,811.01128 456.0819,810.58621 456.67099,812.32746 C 457.89323,815.94037 454.0977,820.02034 450.59927,818.85418 C 449.23731,818.40021 448.12297,819.06508 448.12297,820.33169 C 448.12297,821.59832 447.07815,821.98891 445.80117,821.19968 C 444.52419,820.41048 442.25622,821.4375 440.76126,823.48197 C 439.26629,825.52647 438.02925,826.34545 438.01228,825.30194 C 437.9953,824.25844 437.10201,824.76544 436.02718,826.4286 C 434.33949,829.04012 434.06875,828.99154 434.04208,826.07243 C 434.0251,824.21337 435.59878,822.37773 437.53915,821.9932 C 439.93267,821.51891 440.30905,820.81718 438.70966,819.8109 C 437.41308,818.99514 434.91831,819.76162 433.16576,821.51417 C 431.4132,823.26673 429.97928,824.01119 429.97928,823.16853 C 429.97928,822.32586 427.98858,823.77321 425.55548,826.38483 C 422.85677,829.28154 420.82591,830.21592 420.34757,828.78092 C 419.91632,827.48715 418.63483,826.4286 417.49982,826.4286 C 416.36482,826.4286 415.95834,827.78939 416.59657,829.45255 C 417.62758,832.13933 415.67417,833.37586 411.40417,832.73942 C 410.61248,832.62141 410.5432,834.03226 411.25018,835.87461 C 412.22131,838.40539 411.71068,838.90782 409.16166,837.92966 C 407.30598,837.21759 405.78772,837.28689 405.78772,838.08366 C 405.78772,838.88045 403.74656,839.71889 401.2518,839.94684 C 398.75705,840.1748 393.08715,840.8872 388.65203,841.52993 C 379.54501,842.84975 357.35548,843.86188 356.49672,842.99667 z M 357.40459,835.28475 C 357.40459,834.84901 356.04381,834.49246 354.38064,834.49246 C 352.71748,834.49246 351.35669,835.37118 351.35669,836.44516 C 351.35669,837.51913 352.71748,837.87567 354.38064,837.23746 C 356.04381,836.59923 357.40459,835.72053 357.40459,835.28475 z M 385.62808,836.50843 C 385.62808,835.39964 384.04051,834.50635 382.10014,834.52333 C 379.08517,834.54972 379.01189,834.83834 381.59615,836.50843 C 385.4007,838.96712 385.62808,838.96712 385.62808,836.50843 z M 396.71589,827.85849 C 398.93344,827.49031 402.86667,826.03729 405.45639,824.62955 C 408.04611,823.2218 410.68032,822.58535 411.31019,823.21525 C 412.86538,824.77041 447.34774,806.44177 453.37415,800.85669 C 456.0299,798.39544 458.20278,796.78594 458.20278,797.28007 C 458.20278,798.44398 467.58807,790.46853 473.2827,784.46537 C 475.71812,781.89804 479.89853,774.8865 482.5725,768.88417 C 486.30657,760.50221 488.24012,758.22239 490.90859,759.05518 C 493.60932,759.89805 495.84169,757.0831 500.93444,746.41289 C 504.53778,738.86326 507.58625,732.2327 507.70884,731.6783 C 507.83144,731.12391 508.92438,728.28838 510.13758,725.37708 C 514.99927,713.71069 518.95238,692.41449 518.88459,678.25526 C 518.84258,669.48205 516.0173,646.51585 514.17255,639.95194 C 512.92608,635.51682 511.81279,631.4345 511.69856,630.88011 C 510.51717,625.14601 502.33451,607.47378 496.76353,598.62469 C 490.2985,588.35542 487.23335,584.40002 477.85843,574.22881 C 475.91806,572.12361 475.0001,570.40119 475.81852,570.40119 C 477.45689,570.40119 462.48697,559.41927 460.46692,559.13927 C 456.02996,558.52428 451.60658,555.02892 449.07849,550.14013 C 447.4685,547.02672 444.1001,543.8425 441.59319,543.06406 C 439.08628,542.28563 434.31361,539.72798 430.98727,537.38043 C 427.66093,535.03286 424.48578,533.03236 423.9314,532.93489 C 423.37701,532.8374 421.56263,532.26256 419.89947,531.65747 C 418.2363,531.0524 412.79319,529.43679 407.80368,528.06722 C 402.81417,526.69768 395.10311,524.45697 390.66799,523.08789 C 380.01324,519.79889 355.11782,520.57753 341.27688,524.63269 C 335.17858,526.41937 327.92112,528.45703 325.14916,529.1608 C 322.37722,529.8646 318.74848,530.96178 317.08531,531.59903 C 315.42214,532.23626 313.60778,532.8374 313.05338,532.93489 C 312.49899,533.03236 309.32385,535.03286 305.99751,537.38043 C 302.67117,539.72798 297.89849,542.28563 295.39158,543.06406 C 292.88467,543.8425 289.51628,547.02672 287.90629,550.14013 C 285.37819,555.02892 280.95482,558.52428 276.51787,559.13927 C 274.49781,559.41927 259.52788,570.40119 261.16626,570.40119 C 261.98468,570.40119 261.06671,572.12361 259.12635,574.22881 C 249.75142,584.40002 246.68627,588.35542 240.22124,598.62469 C 234.65027,607.47378 226.46761,625.14601 225.28621,630.88011 C 225.17199,631.4345 224.0587,635.51682 222.81222,639.95194 C 220.96748,646.51585 218.14221,669.48205 218.10019,678.25526 C 218.03239,692.41449 221.9855,713.71069 226.8472,725.37708 C 228.06041,728.28838 229.15334,731.12391 229.27593,731.6783 C 229.39852,732.2327 232.447,738.86326 236.05033,746.41289 C 241.14308,757.0831 243.37546,759.89805 246.07619,759.05518 C 248.74466,758.22239 250.6782,760.50221 254.41227,768.88417 C 257.08626,774.8865 261.26665,781.89804 263.70208,784.46537 C 269.39672,790.46853 278.78199,798.44398 278.78199,797.28007 C 278.78199,796.78594 280.95488,798.39544 283.61063,800.85669 C 289.63704,806.44177 324.11939,824.77041 325.67459,823.21525 C 326.30446,822.58535 328.93867,823.21494 331.52838,824.61428 C 334.1181,826.01362 338.89294,827.45792 342.13911,827.8238 C 345.38529,828.18969 348.36272,828.81053 348.75563,829.20344 C 349.57375,830.02156 390.62066,828.87048 396.71589,827.85849 z M 245.95059,774.58953 C 244.10262,772.74157 242.07225,771.74799 241.43866,772.38158 C 240.80507,773.01516 241.79866,775.04552 243.64663,776.89349 C 245.4946,778.74147 247.52496,779.73506 248.15854,779.10145 C 248.79213,778.46786 247.79854,776.4375 245.95059,774.58953 z M 495.27898,774.86565 C 495.88429,773.28822 495.68227,771.99759 494.83006,771.99759 C 492.82467,771.99759 488.44224,776.38001 488.44224,778.38541 C 488.44224,780.89518 494.07875,777.99334 495.27898,774.86565 z M 239.12857,765.23446 C 232.56957,753.82272 226.36693,748.47566 226.36693,754.23315 C 226.36693,758.58447 235.1717,769.57076 237.83876,768.54733 C 239.27797,767.99502 239.85839,766.50425 239.12857,765.23446 z M 510.61784,754.47022 C 510.61784,749.67614 506.80122,751.73501 501.65838,759.30336 C 498.05168,764.61111 497.27043,767.19211 498.95533,768.23342 C 501.49657,769.80401 510.61784,759.03981 510.61784,754.47022 z M 213.0555,668.84742 C 212.48446,667.92345 210.65647,667.16746 208.99329,667.16746 C 207.33013,667.16746 206.43657,667.92345 207.00761,668.84742 C 207.57867,669.77142 209.40666,670.52741 211.06984,670.52741 C 212.73301,670.52741 213.62657,669.77142 213.0555,668.84742 z M 530.04714,668.56979 C 530.81843,667.7985 529.99103,667.16746 528.2085,667.16746 C 526.42598,667.16746 524.45609,667.99501 523.83097,669.00646 C 522.54114,671.09347 527.8999,670.71703 530.04714,668.56979 z M 212.74492,660.41426 C 214.17329,661.29703 214.46607,660.10486 213.60826,656.89889 C 212.89434,654.23075 212.29784,651.36734 212.28271,650.53576 C 212.26756,649.70417 211.348,649.02378 210.23923,649.02378 C 209.13044,649.02378 208.29489,652.42573 208.38242,656.58365 C 208.46996,660.74158 209.00102,663.00389 209.56259,661.611 C 210.12414,660.21811 211.55619,659.67959 212.74492,660.41426 z M 527.89572,649.50197 C 526.22914,647.8354 525.24439,649.29471 523.59145,655.88048 C 522.54555,660.04768 522.78739,661.31194 524.43558,660.2933 C 525.70606,659.50808 526.89075,660.05316 527.06819,661.50457 C 527.24563,662.956 527.76321,661.10795 528.21836,657.39782 C 528.6735,653.6877 528.52831,650.13456 527.89572,649.50197 z M 216.28711,639.95194 C 216.28711,637.18 217.4211,634.89815 218.80707,634.88118 C 220.48703,634.86059 220.31904,634.19889 218.30308,632.89608 C 213.30707,629.6674 212.25518,630.54398 212.25518,637.93599 C 212.25518,641.81672 213.16237,644.99185 214.27115,644.99185 C 215.37993,644.99185 216.28711,642.7239 216.28711,639.95194 z M 524.72959,637.93599 C 524.72959,630.54398 523.6777,629.6674 518.6817,632.89608 C 516.66573,634.19889 516.49774,634.86059 518.17771,634.88118 C 519.56369,634.89815 520.69766,637.18 520.69766,639.95194 C 520.69766,642.7239 521.60485,644.99185 522.71363,644.99185 C 523.82241,644.99185 524.72959,641.81672 524.72959,637.93599 z M 238.24227,589.23158 C 240.15374,585.03638 240.15428,583.54242 238.24469,582.36223 C 234.33535,579.94614 231.04376,582.29508 231.58195,587.11692 C 231.85523,589.56547 232.15443,592.2492 232.24683,593.08078 C 232.61749,596.4167 235.94061,594.28319 238.24227,589.23158 z M 504.73794,593.08078 C 504.83035,592.2492 505.12954,589.56547 505.40283,587.11692 C 505.94101,582.29508 502.64942,579.94614 498.74008,582.36223 C 496.83051,583.54242 496.83103,585.03638 498.74251,589.23158 C 501.04417,594.28319 504.36729,596.4167 504.73794,593.08078 z M 265.55437,558.50582 C 267.62956,555.14809 261.11845,554.56557 256.63252,557.70764 C 253.24507,560.08029 252.79697,561.22892 254.78047,562.45479 C 257.40925,564.07945 263.48632,561.85201 265.55437,558.50582 z M 480.59034,558.07166 C 478.14784,556.09384 474.69327,555.03441 472.91353,555.71736 C 470.13128,556.78501 470.30021,557.46322 474.11853,560.55512 C 476.56104,562.53295 480.01561,563.59238 481.79534,562.90943 C 484.5776,561.84177 484.40866,561.16356 480.59034,558.07166 z M 278.78199,549.11459 C 278.78199,548.62564 277.87481,548.22559 276.76603,548.22559 C 275.65725,548.22559 274.75007,549.18632 274.75007,550.36054 C 274.75007,551.53476 275.65725,551.9348 276.76603,551.24954 C 277.87481,550.56427 278.78199,549.60354 278.78199,549.11459 z M 462.23471,550.24155 C 462.23471,549.13278 461.27398,548.22559 460.09976,548.22559 C 458.92555,548.22559 458.5255,549.13278 459.21076,550.24155 C 459.89603,551.35033 460.85676,552.25752 461.34571,552.25752 C 461.83466,552.25752 462.23471,551.35033 462.23471,550.24155 z M 280.79796,542.60285 C 280.79796,540.22272 280.22645,540.14236 277.77401,542.1777 C 276.11084,543.55801 274.75007,544.87867 274.75007,545.1125 C 274.75007,545.34633 276.11084,545.53765 277.77401,545.53765 C 279.43719,545.53765 280.79796,544.21699 280.79796,542.60285 z M 459.9399,542.84968 C 458.71296,541.37131 457.36658,540.16174 456.94796,540.16174 C 456.52933,540.16174 456.18681,541.37131 456.18681,542.84968 C 456.18681,544.32807 457.5332,545.53765 459.17875,545.53765 C 461.44346,545.53765 461.62847,544.88429 459.9399,542.84968 z M 296.00728,533.96888 C 298.30281,530.25464 295.25854,529.44826 288.89381,532.08461 C 284.06183,534.0861 283.23165,535.21204 285.00893,537.35352 C 287.3663,540.19395 293.28584,538.37226 296.00728,533.96888 z M 448.3569,532.32544 C 440.45641,528.58383 437.51442,531.19912 443.84789,536.3337 C 447.71413,539.4681 449.22211,539.7432 451.62149,537.75191 C 454.15493,535.64934 453.66866,534.84104 448.3569,532.32544 z M 310.10036,526.82611 C 312.8333,525.03541 315.06935,524.23931 315.06935,525.057 C 315.06935,525.87468 316.28678,525.53328 317.77478,524.29836 C 319.26277,523.06344 321.07714,522.64996 321.80671,523.37952 C 322.53627,524.1091 323.1332,523.70117 323.1332,522.47302 C 323.1332,521.2449 322.37762,519.77306 321.45412,519.20232 C 319.17088,517.79119 305.42642,524.42601 304.13657,527.56196 C 302.76023,530.90822 304.12782,530.73948 310.10036,526.82611 z M 432.8482,527.56196 C 431.55835,524.42601 417.81389,517.79119 415.53065,519.20232 C 414.60716,519.77306 413.85158,521.14722 413.85158,522.256 C 413.85158,523.36478 414.69609,523.75005 415.72824,523.11212 C 416.76041,522.47421 418.18387,522.88908 418.89149,524.03402 C 419.59911,525.17897 420.88892,525.67643 421.75774,525.13948 C 422.62656,524.60251 425.05862,525.46604 427.16234,527.05843 C 431.92201,530.66122 434.20616,530.8635 432.8482,527.56196 z M 373.53229,513.47279 C 373.53229,510.9665 372.09588,510.08632 368.49239,510.38456 C 365.49134,510.63292 363.45248,512.05099 363.45248,513.88991 C 363.45248,515.84006 365.30981,516.97815 368.49239,516.97815 C 371.93596,516.97815 373.53229,515.86786 373.53229,513.47279 z M 214.27115,619.91129 C 214.27115,619.42234 215.17834,618.46161 216.28711,617.77634 C 217.39589,617.09108 218.30308,617.49113 218.30308,618.66534 C 218.30308,619.83956 217.39589,620.80029 216.28711,620.80029 C 215.17834,620.80029 214.27115,620.40024 214.27115,619.91129 z M 518.6817,618.78432 C 518.6817,617.67555 519.08174,616.76836 519.5707,616.76836 C 520.05965,616.76836 521.02037,617.67555 521.70565,618.78432 C 522.39091,619.89311 521.99086,620.80029 520.81664,620.80029 C 519.64243,620.80029 518.6817,619.89311 518.6817,618.78432 z M 347.32476,511.04924 C 347.32476,508.92143 351.19362,508.02749 352.34435,509.8894 C 353.04079,511.01626 352.1963,511.93824 350.46769,511.93824 C 348.73908,511.93824 347.32476,511.53819 347.32476,511.04924 z M 383.61212,511.04924 C 383.61212,508.92143 387.48098,508.02749 388.63171,509.8894 C 389.32814,511.01626 388.48365,511.93824 386.75504,511.93824 C 385.02644,511.93824 383.61212,511.53819 383.61212,511.04924 z "
       id="path3234" />
    <path
       sodipodi:type="arc"
       style="color:#000000;fill:#112b00;fill-opacity:1;fill-rule:nonzero;stroke:none;stroke-width:1.79999995;stroke-linecap:butt;stroke-linejoin:miter;marker:none;marker-start:none;marker-mid:none;marker-end:none;stroke-miterlimit:4;stroke-dasharray:none;stroke-dashoffset:0;stroke-opacity:1;visibility:visible;display:inline;overflow:visible;enable-background:accumulate"
       id="path3236"
       sodipodi:cx="421.5"
       sodipodi:cy="211.36218"
       sodipodi:rx="135.5"
       sodipodi:ry="150"
       d="M 557 211.36218 A 135.5 150 0 1 1  286,211.36218 A 135.5 150 0 1 1  557 211.36218 z"
       transform="matrix(1.129243,0,0,1.0329058,-106.89935,456.04495)" />
    <path
       sodipodi:type="arc"
       style="color:#000000;fill:#800000;fill-opacity:1;fill-rule:nonzero;stroke:none;stroke-width:1.79999995;stroke-linecap:butt;stroke-linejoin:miter;marker:none;marker-start:none;marker-mid:none;marker-end:none;stroke-miterlimit:4;stroke-dasharray:none;stroke-dashoffset:0;stroke-opacity:1;visibility:visible;display:inline;overflow:visible;enable-background:accumulate"
       id="path4207"
       sodipodi:cx="370.5"
       sodipodi:cy="207.36218"
       sodipodi:rx="141.5"
       sodipodi:ry="137"
       d="M 512 207.36218 A 141.5 137 0 1 1  229,207.36218 A 141.5 137 0 1 1  512 207.36218 z"
       transform="matrix(1.04947,0,0,1.0985402,-20.328621,446.0665)" />
    <path
       sodipodi:type="arc"
       style="color:#000000;fill:#ffffff;fill-opacity:1;fill-rule:nonzero;stroke:none;stroke-width:1.79999995;stroke-linecap:butt;stroke-linejoin:miter;marker:none;marker-start:none;marker-mid:none;marker-end:none;stroke-miterlimit:4;stroke-dasharray:none;stroke-dashoffset:0;stroke-opacity:1;visibility:visible;display:inline;overflow:visible;enable-background:accumulate"
       id="path4299"
       sodipodi:cx="270"
       sodipodi:cy="5.3621826"
       sodipodi:rx="33.5"
       sodipodi:ry="28.5"
       d="M 303.5 5.3621826 A 33.5 28.5 0 1 1  236.5,5.3621826 A 33.5 28.5 0 1 1  303.5 5.3621826 z"
       transform="matrix(4.0895523,0,0,4.8503536,-736.67911,647.08876)" />
    <g
       id="g4229"
       transform="matrix(0.9999468,-1.0315383e-2,1.0315383e-2,0.9999468,8.9058411,477.72831)"
       inkscape:transform-center-y="-121.0096"
       inkscape:transform-center-x="3.7184706">
      <rect
         y="48.862183"
         x="348.5"
         height="33"
         width="9"
         id="rect4209"
         style="opacity:1;color:#000000;fill:#112b00;fill-opacity:1;fill-rule:nonzero;stroke:none;stroke-width:1.79999995;stroke-linecap:butt;stroke-linejoin:miter;marker:none;marker-start:none;marker-mid:none;marker-end:none;stroke-miterlimit:4;stroke-dasharray:none;stroke-dashoffset:0;stroke-opacity:1;visibility:visible;display:inline;overflow:visible;enable-background:accumulate" />
      <rect
         y="48.862183"
         x="357.5"
         height="33"
         width="9"
         id="rect4213"
         style="opacity:1;color:#000000;fill:#676266;fill-opacity:1;fill-rule:nonzero;stroke:none;stroke-width:1.79999995;stroke-linecap:butt;stroke-linejoin:miter;marker:none;marker-start:none;marker-mid:none;marker-end:none;stroke-miterlimit:4;stroke-dasharray:none;stroke-dashoffset:0;stroke-opacity:1;visibility:visible;display:inline;overflow:visible;enable-background:accumulate" />
      <rect
         y="80.362183"
         x="348.5"
         height="32.5"
         width="18"
         id="rect4215"
         style="opacity:1;color:#000000;fill:#800000;fill-opacity:1;fill-rule:nonzero;stroke:none;stroke-width:1.79999995;stroke-linecap:butt;stroke-linejoin:miter;marker:none;marker-start:none;marker-mid:none;marker-end:none;stroke-miterlimit:4;stroke-dasharray:none;stroke-dashoffset:0;stroke-opacity:1;visibility:visible;display:inline;overflow:visible;enable-background:accumulate" />
      <path
         sodipodi:nodetypes="cccccccc"
         id="path4217"
         d="M 356.07453,103.84264 L 355.83785,110.36407 L 352.98046,113.36533 L 357.359,118.88172 L 361.51954,113.36533 L 358.46764,109.36407 L 358.46764,103.84264 L 356.07453,103.84264 z "
         style="fill:#676266;fill-opacity:1;fill-rule:evenodd;stroke:none;stroke-width:0.96091324px;stroke-linecap:butt;stroke-linejoin:miter;stroke-opacity:1" />
      <path
         id="path4219"
         d="M 385,86.862183 L 366,86.862183 L 366,112.86218 L 385,86.862183 z "
         style="fill:#676266;fill-opacity:1;fill-rule:evenodd;stroke:none;stroke-width:1px;stroke-linecap:butt;stroke-linejoin:miter;stroke-opacity:1" />
      <path
         sodipodi:nodetypes="cccc"
         id="path4221"
         d="M 366.5,86.862183 L 366,60.362183 L 386.5,86.862183 L 366.5,86.862183 z "
         style="fill:#112b00;fill-opacity:1;fill-rule:evenodd;stroke:none;stroke-width:1px;stroke-linecap:butt;stroke-linejoin:miter;stroke-opacity:1" />
      <path
         id="path4225"
         d="M 329.75,86.61218 L 348.75,86.61218 L 348.75,60.612183 L 329.75,86.61218 z "
         style="fill:#676266;fill-opacity:1;fill-rule:evenodd;stroke:none;stroke-width:1px;stroke-linecap:butt;stroke-linejoin:miter;stroke-opacity:1" />
      <path
         sodipodi:nodetypes="cccc"
         id="path4227"
         d="M 348.75,86.61218 L 349.75,113.11218 L 329.25,86.61218 L 348.75,86.61218 z "
         style="fill:#112b00;fill-opacity:1;fill-rule:evenodd;stroke:none;stroke-width:1px;stroke-linecap:butt;stroke-linejoin:miter;stroke-opacity:1" />
    </g>
    <g
       id="g4239"
       transform="matrix(1.2621383e-3,-0.9999992,0.9999992,1.2621383e-3,170.04836,1034.4881)"
       inkscape:transform-center-y="2.3508963"
       inkscape:transform-center-x="121.00931">
      <rect
         y="48.862183"
         x="348.5"
         height="33"
         width="9"
         id="rect4241"
         style="opacity:1;color:#000000;fill:#112b00;fill-opacity:1;fill-rule:nonzero;stroke:none;stroke-width:1.79999995;stroke-linecap:butt;stroke-linejoin:miter;marker:none;marker-start:none;marker-mid:none;marker-end:none;stroke-miterlimit:4;stroke-dasharray:none;stroke-dashoffset:0;stroke-opacity:1;visibility:visible;display:inline;overflow:visible;enable-background:accumulate" />
      <rect
         y="48.862183"
         x="357.5"
         height="33"
         width="9"
         id="rect4243"
         style="opacity:1;color:#000000;fill:#676266;fill-opacity:1;fill-rule:nonzero;stroke:none;stroke-width:1.79999995;stroke-linecap:butt;stroke-linejoin:miter;marker:none;marker-start:none;marker-mid:none;marker-end:none;stroke-miterlimit:4;stroke-dasharray:none;stroke-dashoffset:0;stroke-opacity:1;visibility:visible;display:inline;overflow:visible;enable-background:accumulate" />
      <rect
         y="80.362183"
         x="348.5"
         height="32.5"
         width="18"
         id="rect4245"
         style="opacity:1;color:#000000;fill:#800000;fill-opacity:1;fill-rule:nonzero;stroke:none;stroke-width:1.79999995;stroke-linecap:butt;stroke-linejoin:miter;marker:none;marker-start:none;marker-mid:none;marker-end:none;stroke-miterlimit:4;stroke-dasharray:none;stroke-dashoffset:0;stroke-opacity:1;visibility:visible;display:inline;overflow:visible;enable-background:accumulate" />
      <path
         sodipodi:nodetypes="cccccccc"
         id="path4247"
         d="M 356.07453,103.84264 L 355.83785,110.36407 L 352.98046,113.36533 L 357.359,118.88172 L 361.51954,113.36533 L 358.46764,109.36407 L 358.46764,103.84264 L 356.07453,103.84264 z "
         style="fill:#676266;fill-opacity:1;fill-rule:evenodd;stroke:none;stroke-width:0.96091324px;stroke-linecap:butt;stroke-linejoin:miter;stroke-opacity:1" />
      <path
         id="path4249"
         d="M 385,86.862183 L 366,86.862183 L 366,112.86218 L 385,86.862183 z "
         style="fill:#676266;fill-opacity:1;fill-rule:evenodd;stroke:none;stroke-width:1px;stroke-linecap:butt;stroke-linejoin:miter;stroke-opacity:1" />
      <path
         sodipodi:nodetypes="cccc"
         id="path4251"
         d="M 366.5,86.862183 L 366,60.362183 L 386.5,86.862183 L 366.5,86.862183 z "
         style="fill:#112b00;fill-opacity:1;fill-rule:evenodd;stroke:none;stroke-width:1px;stroke-linecap:butt;stroke-linejoin:miter;stroke-opacity:1" />
      <path
         id="path4253"
         d="M 329.75,86.61218 L 348.75,86.61218 L 348.75,60.612183 L 329.75,86.61218 z "
         style="fill:#676266;fill-opacity:1;fill-rule:evenodd;stroke:none;stroke-width:1px;stroke-linecap:butt;stroke-linejoin:miter;stroke-opacity:1" />
      <path
         sodipodi:nodetypes="cccc"
         id="path4255"
         d="M 348.75,86.61218 L 349.75,113.11218 L 329.25,86.61218 L 348.75,86.61218 z "
         style="fill:#112b00;fill-opacity:1;fill-rule:evenodd;stroke:none;stroke-width:1px;stroke-linecap:butt;stroke-linejoin:miter;stroke-opacity:1" />
    </g>
    <rect
       style="color:#000000;fill:#112b00;fill-opacity:1;fill-rule:nonzero;stroke:none;stroke-width:1.79999995;stroke-linecap:butt;stroke-linejoin:miter;marker:none;marker-start:none;marker-mid:none;marker-end:none;stroke-miterlimit:4;stroke-dasharray:none;stroke-dashoffset:0;stroke-opacity:1;visibility:visible;display:inline;overflow:visible;enable-background:accumulate"
       id="rect4259"
       width="9"
       height="33"
       x="663.38806"
       y="-525.43695"
       transform="matrix(-1.2621419e-2,0.9999203,-0.9999203,-1.2621419e-2,0,0)" />
    <rect
       style="color:#000000;fill:#676266;fill-opacity:1;fill-rule:nonzero;stroke:none;stroke-width:1.79999995;stroke-linecap:butt;stroke-linejoin:miter;marker:none;marker-start:none;marker-mid:none;marker-end:none;stroke-miterlimit:4;stroke-dasharray:none;stroke-dashoffset:0;stroke-opacity:1;visibility:visible;display:inline;overflow:visible;enable-background:accumulate"
       id="rect4261"
       width="9"
       height="33"
       x="672.388"
       y="-525.43695"
       transform="matrix(-1.2621419e-2,0.9999203,-0.9999203,-1.2621419e-2,0,0)" />
    <rect
       style="color:#000000;fill:#800000;fill-opacity:1;fill-rule:nonzero;stroke:none;stroke-width:1.79999995;stroke-linecap:butt;stroke-linejoin:miter;marker:none;marker-start:none;marker-mid:none;marker-end:none;stroke-miterlimit:4;stroke-dasharray:none;stroke-dashoffset:0;stroke-opacity:1;visibility:visible;display:inline;overflow:visible;enable-background:accumulate"
       id="rect4263"
       width="18"
       height="32.5"
       x="663.38806"
       y="-493.93695"
       transform="matrix(-1.2621419e-2,0.9999203,-0.9999203,-1.2621419e-2,0,0)" />
    <path
       style="fill:#676266;fill-opacity:1;fill-rule:evenodd;stroke:none;stroke-width:0.96091324px;stroke-linecap:butt;stroke-linejoin:miter;stroke-opacity:1"
       d="M 461.95055,676.84695 L 455.43263,676.52798 L 452.46767,673.63294 L 446.89646,677.9415 L 452.3599,682.17134 L 456.39936,679.17018 L 461.92035,679.23987 L 461.95055,676.84695 z "
       id="path4265"
       sodipodi:nodetypes="cccccccc" />
    <path
       style="fill:#676266;fill-opacity:1;fill-rule:evenodd;stroke:none;stroke-width:1px;stroke-linecap:butt;stroke-linejoin:miter;stroke-opacity:1"
       d="M 479.06457,707.48443 L 478.80438,686.98595 L 452.80646,686.65779 L 479.06457,707.48443 z "
       id="path4267"
       sodipodi:nodetypes="cccc" />
    <path
       style="fill:#112b00;fill-opacity:1;fill-rule:evenodd;stroke:none;stroke-width:1px;stroke-linecap:butt;stroke-linejoin:miter;stroke-opacity:1"
       d="M 478.79807,687.48591 L 505.30227,687.32041 L 478.54564,707.48431 L 478.79807,687.48591 z "
       id="path4269"
       sodipodi:nodetypes="cccc" />
    <path
       style="fill:#676266;fill-opacity:1;fill-rule:evenodd;stroke:none;stroke-width:1px;stroke-linecap:butt;stroke-linejoin:miter;stroke-opacity:1"
       d="M 479.51189,650.74199 L 479.27208,669.74048 L 505.27001,670.06863 L 479.51189,650.74199 z "
       id="path4271" />
    <path
       style="fill:#112b00;fill-opacity:1;fill-rule:evenodd;stroke:none;stroke-width:1px;stroke-linecap:butt;stroke-linejoin:miter;stroke-opacity:1"
       d="M 479.27208,669.74048 L 452.76157,670.40593 L 479.5182,650.24203 L 479.27208,669.74048 z "
       id="path4273"
       sodipodi:nodetypes="cccc" />
    <g
       id="g4275"
       transform="matrix(-0.9997969,2.0151443e-2,-2.0151443e-2,-0.9997969,727.30529,866.44023)"
       inkscape:transform-center-y="121.00676"
       inkscape:transform-center-x="-4.880095">
      <rect
         y="48.862183"
         x="348.5"
         height="33"
         width="9"
         id="rect4277"
         style="opacity:1;color:#000000;fill:#112b00;fill-opacity:1;fill-rule:nonzero;stroke:none;stroke-width:1.79999995;stroke-linecap:butt;stroke-linejoin:miter;marker:none;marker-start:none;marker-mid:none;marker-end:none;stroke-miterlimit:4;stroke-dasharray:none;stroke-dashoffset:0;stroke-opacity:1;visibility:visible;display:inline;overflow:visible;enable-background:accumulate" />
      <rect
         y="48.862183"
         x="357.5"
         height="33"
         width="9"
         id="rect4279"
         style="opacity:1;color:#000000;fill:#676266;fill-opacity:1;fill-rule:nonzero;stroke:none;stroke-width:1.79999995;stroke-linecap:butt;stroke-linejoin:miter;marker:none;marker-start:none;marker-mid:none;marker-end:none;stroke-miterlimit:4;stroke-dasharray:none;stroke-dashoffset:0;stroke-opacity:1;visibility:visible;display:inline;overflow:visible;enable-background:accumulate" />
      <rect
         y="80.362183"
         x="348.5"
         height="32.5"
         width="18"
         id="rect4281"
         style="opacity:1;color:#000000;fill:#800000;fill-opacity:1;fill-rule:nonzero;stroke:none;stroke-width:1.79999995;stroke-linecap:butt;stroke-linejoin:miter;marker:none;marker-start:none;marker-mid:none;marker-end:none;stroke-miterlimit:4;stroke-dasharray:none;stroke-dashoffset:0;stroke-opacity:1;visibility:visible;display:inline;overflow:visible;enable-background:accumulate" />
      <path
         sodipodi:nodetypes="cccccccc"
         id="path4283"
         d="M 356.07453,103.84264 L 355.83785,110.36407 L 352.98046,113.36533 L 357.359,118.88172 L 361.51954,113.36533 L 358.46764,109.36407 L 358.46764,103.84264 L 356.07453,103.84264 z "
         style="fill:#676266;fill-opacity:1;fill-rule:evenodd;stroke:none;stroke-width:0.96091324px;stroke-linecap:butt;stroke-linejoin:miter;stroke-opacity:1" />
      <path
         id="path4285"
         d="M 385,86.862183 L 366,86.862183 L 366,112.86218 L 385,86.862183 z "
         style="fill:#676266;fill-opacity:1;fill-rule:evenodd;stroke:none;stroke-width:1px;stroke-linecap:butt;stroke-linejoin:miter;stroke-opacity:1" />
      <path
         sodipodi:nodetypes="cccc"
         id="path4287"
         d="M 366.5,86.862183 L 366,60.362183 L 386.5,86.862183 L 366.5,86.862183 z "
         style="fill:#112b00;fill-opacity:1;fill-rule:evenodd;stroke:none;stroke-width:1px;stroke-linecap:butt;stroke-linejoin:miter;stroke-opacity:1" />
      <path
         id="path4289"
         d="M 329.75,86.61218 L 348.75,86.61218 L 348.75,60.612183 L 329.75,86.61218 z "
         style="fill:#676266;fill-opacity:1;fill-rule:evenodd;stroke:none;stroke-width:1px;stroke-linecap:butt;stroke-linejoin:miter;stroke-opacity:1" />
      <path
         sodipodi:nodetypes="cccc"
         id="path4291"
         d="M 348.75,86.61218 L 349.75,113.11218 L 329.25,86.61218 L 348.75,86.61218 z "
         style="fill:#112b00;fill-opacity:1;fill-rule:evenodd;stroke:none;stroke-width:1px;stroke-linecap:butt;stroke-linejoin:miter;stroke-opacity:1" />
    </g>
    <g
       id="g4321"
       transform="translate(8,473)">
      <path
         id="path4317"
         d="M 252.5,112.36218 C 252.5,112.36218 294,94.362183 299,85.862183 C 304,77.362183 348.5,61.362183 348.5,61.362183 C 348.5,61.362183 295,62.862183 252.5,112.36218 z "
         style="fill:#676266;fill-opacity:1;fill-rule:evenodd;stroke:none;stroke-width:1px;stroke-linecap:butt;stroke-linejoin:miter;stroke-opacity:1" />
      <path
         id="path4319"
         d="M 221.56504,201.31036 C 221.56504,201.31036 240.62446,162.50046 238.71452,153.34786 C 236.80458,144.19525 259.43496,104.914 259.43496,104.914 C 259.43496,104.914 220.44468,139.59913 221.56504,201.31036 z "
         style="fill:#112b00;fill-opacity:1;fill-rule:evenodd;stroke:none;stroke-width:1px;stroke-linecap:butt;stroke-linejoin:miter;stroke-opacity:1" />
    </g>
    <g
       id="g4325"
       transform="matrix(-6.7632535e-2,0.9977103,-0.9977103,-6.7632535e-2,590.31222,327.37673)">
      <path
         id="path4327"
         d="M 252.5,112.36218 C 252.5,112.36218 294,94.362183 299,85.862183 C 304,77.362183 348.5,61.362183 348.5,61.362183 C 348.5,61.362183 295,62.862183 252.5,112.36218 z "
         style="fill:#676266;fill-opacity:1;fill-rule:evenodd;stroke:none;stroke-width:1px;stroke-linecap:butt;stroke-linejoin:miter;stroke-opacity:1" />
      <path
         id="path4329"
         d="M 221.56504,201.31036 C 221.56504,201.31036 240.62446,162.50046 238.71452,153.34786 C 236.80458,144.19525 259.43496,104.914 259.43496,104.914 C 259.43496,104.914 220.44468,139.59913 221.56504,201.31036 z "
         style="fill:#112b00;fill-opacity:1;fill-rule:evenodd;stroke:none;stroke-width:1px;stroke-linecap:butt;stroke-linejoin:miter;stroke-opacity:1" />
    </g>
    <g
       id="g4331"
       transform="matrix(-3.3194245e-2,-1.0034713,0.8867797,-3.2635739e-2,188.48385,1040.9082)">
      <path
         id="path4333"
         d="M 252.5,112.36218 C 252.5,112.36218 294,94.362183 299,85.862183 C 304,77.362183 348.5,61.362183 348.5,61.362183 C 348.5,61.362183 295,62.862183 252.5,112.36218 z "
         style="fill:#676266;fill-opacity:1;fill-rule:evenodd;stroke:none;stroke-width:1px;stroke-linecap:butt;stroke-linejoin:miter;stroke-opacity:1" />
      <path
         id="path4335"
         d="M 221.56504,201.31036 C 221.56504,201.31036 240.62446,162.50046 238.71452,153.34786 C 236.80458,144.19525 259.43496,104.914 259.43496,104.914 C 259.43496,104.914 220.44468,139.59913 221.56504,201.31036 z "
         style="fill:#112b00;fill-opacity:1;fill-rule:evenodd;stroke:none;stroke-width:1px;stroke-linecap:butt;stroke-linejoin:miter;stroke-opacity:1" />
    </g>
    <g
       id="g4337"
       transform="matrix(-1.0039837,8.5509518e-3,-1.0857172e-2,-0.8873136,727.99922,863.45046)">
      <path
         id="path4339"
         d="M 252.5,112.36218 C 252.5,112.36218 294,94.362183 299,85.862183 C 304,77.362183 348.5,61.362183 348.5,61.362183 C 348.5,61.362183 295,62.862183 252.5,112.36218 z "
         style="fill:#676266;fill-opacity:1;fill-rule:evenodd;stroke:none;stroke-width:1px;stroke-linecap:butt;stroke-linejoin:miter;stroke-opacity:1" />
      <path
         id="path4341"
         d="M 221.56504,201.31036 C 221.56504,201.31036 240.62446,162.50046 238.71452,153.34786 C 236.80458,144.19525 259.43496,104.914 259.43496,104.914 C 259.43496,104.914 220.44468,139.59913 221.56504,201.31036 z "
         style="fill:#112b00;fill-opacity:1;fill-rule:evenodd;stroke:none;stroke-width:1px;stroke-linecap:butt;stroke-linejoin:miter;stroke-opacity:1" />
    </g>
    <g
       id="g4375"
       style="fill:#800000;fill-opacity:1"
       transform="matrix(0.9099334,0,0,0.8524758,35.184508,494.55794)">
      <path
         id="path4371"
         d="M 273.99105,209.37906 C 273.99105,209.37906 260.97407,184.05565 276.99497,169.98708 C 293.01588,155.91852 289.01066,134.34672 289.01066,134.34672 C 289.01066,134.34672 299.02372,176.55241 286.00674,178.42822 C 272.98975,180.30403 274.99236,210.31697 273.99105,209.37906 z "
         style="fill:#800000;fill-opacity:1;fill-rule:evenodd;stroke:#000000;stroke-width:0.96908712px;stroke-linecap:butt;stroke-linejoin:miter;stroke-opacity:1" />
      <path
         id="path4373"
         d="M 360.00491,107.77042 C 360.00491,107.77042 333.05645,99.57051 321.79779,117.91963 C 310.53914,136.26878 288.71402,136.26099 288.71402,136.26099 C 288.71402,136.26099 331.76289,138.42041 331.5267,125.25579 C 331.29053,112.09119 361.0859,108.58555 360.00491,107.77042 z "
         style="fill:#800000;fill-opacity:1;fill-rule:evenodd;stroke:#000000;stroke-width:0.96741247px;stroke-linecap:butt;stroke-linejoin:miter;stroke-opacity:1" />
    </g>
    <g
       id="g4379"
       style="fill:#800000;fill-opacity:1"
       transform="matrix(-8.6258461e-2,0.8435169,-0.8435169,-8.6258461e-2,575.16336,373.61458)">
      <path
         id="path4381"
         d="M 273.99105,209.37906 C 273.99105,209.37906 260.97407,184.05565 276.99497,169.98708 C 293.01588,155.91852 289.01066,134.34672 289.01066,134.34672 C 289.01066,134.34672 299.02372,176.55241 286.00674,178.42822 C 272.98975,180.30403 274.99236,210.31697 273.99105,209.37906 z "
         style="fill:#800000;fill-opacity:1;fill-rule:evenodd;stroke:#000000;stroke-width:0.96908712px;stroke-linecap:butt;stroke-linejoin:miter;stroke-opacity:1" />
      <path
         id="path4383"
         d="M 360.00491,107.77042 C 360.00491,107.77042 333.05645,99.57051 321.79779,117.91963 C 310.53914,136.26878 288.71402,136.26099 288.71402,136.26099 C 288.71402,136.26099 331.76289,138.42041 331.5267,125.25579 C 331.29053,112.09119 361.0859,108.58555 360.00491,107.77042 z "
         style="fill:#800000;fill-opacity:1;fill-rule:evenodd;stroke:#000000;stroke-width:0.96741247px;stroke-linecap:butt;stroke-linejoin:miter;stroke-opacity:1" />
    </g>
    <g
       id="g4385"
       style="fill:#800000;fill-opacity:1"
       transform="matrix(-0.9093695,-2.8227779e-2,3.2029888e-2,-0.8014228,695.9626,857.12054)">
      <path
         id="path4387"
         d="M 273.99105,209.37906 C 273.99105,209.37906 260.97407,184.05565 276.99497,169.98708 C 293.01588,155.91852 289.01066,134.34672 289.01066,134.34672 C 289.01066,134.34672 299.02372,176.55241 286.00674,178.42822 C 272.98975,180.30403 274.99236,210.31697 273.99105,209.37906 z "
         style="fill:#800000;fill-opacity:1;fill-rule:evenodd;stroke:#000000;stroke-width:0.96908712px;stroke-linecap:butt;stroke-linejoin:miter;stroke-opacity:1" />
      <path
         id="path4389"
         d="M 360.00491,107.77042 C 360.00491,107.77042 333.05645,99.57051 321.79779,117.91963 C 310.53914,136.26878 288.71402,136.26099 288.71402,136.26099 C 288.71402,136.26099 331.76289,138.42041 331.5267,125.25579 C 331.29053,112.09119 361.0859,108.58555 360.00491,107.77042 z "
         style="fill:#800000;fill-opacity:1;fill-rule:evenodd;stroke:#000000;stroke-width:0.96741247px;stroke-linecap:butt;stroke-linejoin:miter;stroke-opacity:1" />
    </g>
    <g
       id="g4391"
       style="fill:#800000;fill-opacity:1"
       transform="matrix(0.2671938,-0.7122093,0.9334785,0.2038589,88.397578,914.42161)">
      <path
         id="path4393"
         d="M 273.99105,209.37906 C 273.99105,209.37906 260.97407,184.05565 276.99497,169.98708 C 293.01588,155.91852 289.01066,134.34672 289.01066,134.34672 C 289.01066,134.34672 299.02372,176.55241 286.00674,178.42822 C 272.98975,180.30403 274.99236,210.31697 273.99105,209.37906 z "
         style="fill:#800000;fill-opacity:1;fill-rule:evenodd;stroke:#000000;stroke-width:0.96908712px;stroke-linecap:butt;stroke-linejoin:miter;stroke-opacity:1" />
      <path
         id="path4395"
         d="M 360.00491,107.77042 C 360.00491,107.77042 333.05645,99.57051 321.79779,117.91963 C 310.53914,136.26878 288.71402,136.26099 288.71402,136.26099 C 288.71402,136.26099 331.76289,138.42041 331.5267,125.25579 C 331.29053,112.09119 361.0859,108.58555 360.00491,107.77042 z "
         style="fill:#800000;fill-opacity:1;fill-rule:evenodd;stroke:#000000;stroke-width:0.96741247px;stroke-linecap:butt;stroke-linejoin:miter;stroke-opacity:1" />
    </g>
    <path
       style="color:#000000;fill:#ffffff;fill-opacity:1;fill-rule:nonzero;stroke:#000000;stroke-width:2.33245826;stroke-linecap:butt;stroke-linejoin:miter;marker:none;marker-start:none;marker-mid:none;marker-end:none;stroke-miterlimit:4;stroke-dashoffset:0;stroke-opacity:1;visibility:visible;display:inline;overflow:visible;enable-background:accumulate"
       d="M 431.20357,651.25165 C 426.06164,669.04391 404.09298,714.48503 392.19238,711.8827 C 380.29178,709.28036 376.88375,655.79775 382.02568,638.00549 C 384.59665,629.10936 409.89788,619.84393 399.27191,641.22534 C 396.0971,647.61364 395.46915,652.96568 400.65697,654.23137 C 415.86504,657.94174 411.29187,647.36091 411.56223,646.40521 C 417.96541,623.77049 433.11952,629.75071 431.20357,651.25165 z "
       id="path4409"
       sodipodi:nodetypes="csssssc" />
    <g
       id="g4430"
       transform="matrix(1,0,0,0.8076923,0,507.70427)">
      <path
         d="M 400 190.86218 A 9 9.5 0 1 1  382,190.86218 A 9 9.5 0 1 1  400 190.86218 z"
         sodipodi:ry="9.5"
         sodipodi:rx="9"
         sodipodi:cy="190.86218"
         sodipodi:cx="391"
         id="path4412"
         style="opacity:1;color:#000000;fill:#ffffff;fill-opacity:1;fill-rule:nonzero;stroke:#000000;stroke-width:1.79999995;stroke-linecap:butt;stroke-linejoin:miter;marker:none;marker-start:none;marker-mid:none;marker-end:none;stroke-miterlimit:4;stroke-dasharray:none;stroke-dashoffset:0;stroke-opacity:1;visibility:visible;display:inline;overflow:visible;enable-background:accumulate"
         sodipodi:type="arc" />
      <path
         d="M 395.7098 190.84454 A 4.6392155 5.1490197 0 1 1  386.43137,190.84454 A 4.6392155 5.1490197 0 1 1  395.7098 190.84454 z"
         sodipodi:ry="5.1490197"
         sodipodi:rx="4.6392155"
         sodipodi:cy="190.84454"
         sodipodi:cx="391.07059"
         id="path4426"
         style="opacity:1;color:#000000;fill:#ffffff;fill-opacity:1;fill-rule:nonzero;stroke:#000000;stroke-width:1.79999995;stroke-linecap:butt;stroke-linejoin:miter;marker:none;marker-start:none;marker-mid:none;marker-end:none;stroke-miterlimit:4;stroke-dasharray:none;stroke-dashoffset:0;stroke-opacity:1;visibility:visible;display:inline;overflow:visible;enable-background:accumulate"
         sodipodi:type="arc" />
      <path
         d="M 392.65099 190.9465 A 1.427451 1.2745098 0 1 1  389.79609,190.9465 A 1.427451 1.2745098 0 1 1  392.65099 190.9465 z"
         sodipodi:ry="1.2745098"
         sodipodi:rx="1.427451"
         sodipodi:cy="190.9465"
         sodipodi:cx="391.22354"
         id="path4428"
         style="opacity:1;color:#000000;fill:#ffffff;fill-opacity:1;fill-rule:nonzero;stroke:#000000;stroke-width:1.79999995;stroke-linecap:butt;stroke-linejoin:miter;marker:none;marker-start:none;marker-mid:none;marker-end:none;stroke-miterlimit:4;stroke-dasharray:none;stroke-dashoffset:0;stroke-opacity:1;visibility:visible;display:inline;overflow:visible;enable-background:accumulate"
         sodipodi:type="arc" />
    </g>
    <g
       id="g4435"
       transform="matrix(1,0,0,0.8557692,23.066666,500.95957)">
      <path
         d="M 400 190.86218 A 9 9.5 0 1 1  382,190.86218 A 9 9.5 0 1 1  400 190.86218 z"
         sodipodi:ry="9.5"
         sodipodi:rx="9"
         sodipodi:cy="190.86218"
         sodipodi:cx="391"
         id="path4437"
         style="opacity:1;color:#000000;fill:#ffffff;fill-opacity:1;fill-rule:nonzero;stroke:#000000;stroke-width:1.79999995;stroke-linecap:butt;stroke-linejoin:miter;marker:none;marker-start:none;marker-mid:none;marker-end:none;stroke-miterlimit:4;stroke-dasharray:none;stroke-dashoffset:0;stroke-opacity:1;visibility:visible;display:inline;overflow:visible;enable-background:accumulate"
         sodipodi:type="arc" />
      <path
         d="M 395.7098 190.84454 A 4.6392155 5.1490197 0 1 1  386.43137,190.84454 A 4.6392155 5.1490197 0 1 1  395.7098 190.84454 z"
         sodipodi:ry="5.1490197"
         sodipodi:rx="4.6392155"
         sodipodi:cy="190.84454"
         sodipodi:cx="391.07059"
         id="path4439"
         style="opacity:1;color:#000000;fill:#ffffff;fill-opacity:1;fill-rule:nonzero;stroke:#000000;stroke-width:1.79999995;stroke-linecap:butt;stroke-linejoin:miter;marker:none;marker-start:none;marker-mid:none;marker-end:none;stroke-miterlimit:4;stroke-dasharray:none;stroke-dashoffset:0;stroke-opacity:1;visibility:visible;display:inline;overflow:visible;enable-background:accumulate"
         sodipodi:type="arc" />
      <path
         d="M 392.65099 190.9465 A 1.427451 1.2745098 0 1 1  389.79609,190.9465 A 1.427451 1.2745098 0 1 1  392.65099 190.9465 z"
         sodipodi:ry="1.2745098"
         sodipodi:rx="1.427451"
         sodipodi:cy="190.9465"
         sodipodi:cx="391.22354"
         id="path4441"
         style="opacity:1;color:#000000;fill:#ffffff;fill-opacity:1;fill-rule:nonzero;stroke:#000000;stroke-width:1.79999995;stroke-linecap:butt;stroke-linejoin:miter;marker:none;marker-start:none;marker-mid:none;marker-end:none;stroke-miterlimit:4;stroke-dasharray:none;stroke-dashoffset:0;stroke-opacity:1;visibility:visible;display:inline;overflow:visible;enable-background:accumulate"
         sodipodi:type="arc" />
    </g>
    <path
       style="fill:#112b00;fill-opacity:1"
       d="M 372.65508,730.95796 C 372.54667,730.25006 372.11022,729.04403 371.68518,728.27791 C 371.26016,727.5118 370.37296,725.63555 369.71366,724.10848 C 368.69606,721.75156 368.49006,721.58581 368.3505,723.01173 C 368.26006,723.93559 368.5122,725.91441 368.91081,727.40908 C 369.59815,729.98644 369.53919,730.14143 367.7683,730.41262 C 366.31759,730.63478 365.84468,730.33036 365.6483,729.04797 C 365.50927,728.14015 365.11217,727.21562 364.76585,726.99343 C 364.41953,726.77126 363.71387,723.87209 363.19773,720.55083 C 362.68159,717.22957 362.08034,714.32525 361.86161,714.09677 C 361.64288,713.86828 361.64951,714.89315 361.87631,716.37423 C 362.10312,717.85533 362.02031,719.10823 361.69229,719.15846 C 361.36427,719.20869 361.27169,720.39781 361.48657,721.80095 C 361.81647,723.95526 361.64531,724.38764 360.38622,724.58045 C 359.20889,724.76075 358.82929,724.37828 358.58184,722.76241 C 358.33259,721.13474 358.03836,720.84442 357.14378,721.34349 C 356.17985,721.88123 356.1286,722.6861 356.78524,726.97405 C 357.51567,731.74382 357.48185,731.98785 356.06039,732.20553 C 354.66252,732.41959 354.52509,732.1552 353.86043,727.97319 C 353.47051,725.51982 352.48541,721.46253 351.67131,718.95696 L 350.19114,714.40138 L 349.98177,721.39151 C 349.86382,725.3294 350.09643,729.5671 350.51449,731.09656 L 351.25656,733.81151 L 348.20686,734.27853 L 345.15715,734.74555 L 343.85489,726.24166 L 342.55264,717.7378 L 340.80092,718.00605 C 339.13204,718.26162 339.08678,718.41259 339.84373,721.19877 C 340.61004,724.01938 340.57193,724.13341 338.77101,724.4092 C 336.93369,724.69055 336.89356,724.62853 336.26742,720.53972 C 335.65992,716.57272 335.54735,716.37975 333.78452,716.28386 C 331.95287,716.18424 331.9423,716.21844 332.47346,720.51992 C 332.76798,722.905 333.38831,726.85448 333.85196,729.29656 C 334.662,733.56309 334.63485,733.7459 333.15748,733.97214 C 330.7336,734.34333 329.59751,731.3695 329.36074,724.03373 C 329.25388,720.72328 328.90995,716.39676 328.59645,714.41927 C 328.06125,711.04339 327.98772,710.93489 327.39227,712.64255 C 326.9391,713.9422 327.02592,715.48149 327.69645,718.03554 C 328.58085,721.40417 328.55202,721.62246 327.19537,721.83021 C 325.38405,722.10759 324.09867,720.79477 323.7125,718.273 C 323.4937,716.84424 323.0706,716.36954 322.14261,716.51165 C 320.96872,716.69142 320.94949,717.00839 321.88941,720.6845 C 325.02884,732.96307 324.98677,732.61239 323.35012,732.86302 C 322.06978,733.05909 321.65505,732.52645 320.47414,729.16937 C 319.66012,726.85531 319.08606,725.87247 319.07431,726.77275 C 319.0633,727.61694 318.50372,728.3832 317.82197,728.4876 C 317.14414,728.5914 316.13046,728.06125 315.56937,727.30948 C 313.98072,725.18099 312.89282,716.69994 313.65482,712.38396 C 314.01437,710.34739 314.23302,708.18787 314.1407,707.585 C 314.04838,706.98216 315.13652,704.68843 316.5588,702.48779 C 317.98106,700.28716 319.29407,697.43337 319.47658,696.14601 C 319.88506,693.26487 321.74536,690.03045 323.56135,689.04405 C 324.75432,688.39608 325.52423,683.64979 329.80848,650.53291 C 334.46119,614.56778 334.76839,612.74957 336.22984,612.52577 C 337.75547,612.29214 337.83428,612.49774 349.30796,646.64173 C 355.65673,665.53479 361.09312,680.95571 361.3888,680.91043 C 361.68449,680.86515 362.04747,681.61858 362.19543,682.58476 C 362.71576,685.98263 364.04726,687.33734 367.07786,687.55232 C 368.68913,687.66662 369.56291,687.97618 369.01958,688.24024 C 368.11291,688.68087 368.13731,688.91369 369.31641,691.07264 C 370.71927,693.64133 372.49364,694.03045 372.13536,691.69083 C 371.95546,690.51608 372.16399,690.58908 373.18853,692.05946 C 374.26056,693.59799 374.35243,694.03765 373.75976,694.79316 C 373.16925,695.54591 373.23544,695.8412 374.16361,696.59484 C 374.77416,697.0906 375.85181,698.9743 376.55838,700.78081 C 377.26496,702.58734 378.41443,704.7612 379.11275,705.61162 C 381.6353,708.68357 383.10645,711.51641 383.49421,714.04851 C 383.85912,716.43138 383.72918,716.65415 381.80205,716.94926 C 379.90404,717.23992 379.68091,717.04869 379.34298,714.84193 C 379.11943,713.38213 378.18032,711.53158 376.98647,710.1984 C 375.54925,708.59341 375.20692,708.43067 375.74571,709.60857 C 376.88169,712.092 378.39253,716.80847 378.73549,718.94193 C 379.15721,721.56526 376.62373,721.9154 374.75783,719.49167 C 373.99363,718.49899 372.75002,717.55827 371.99425,717.40118 C 370.6426,717.12021 370.64302,717.16382 372.01988,720.06762 C 372.78976,721.69128 373.75703,723.64813 374.16937,724.41616 C 374.58171,725.18422 375.12499,727.15718 375.37665,728.80053 C 375.77789,731.42069 375.65071,731.81652 374.34319,732.01675 C 373.40951,732.15973 372.77851,731.76398 372.65508,730.95796 z M 345.71502,715.72028 C 345.44124,714.93009 345.45706,715.81346 345.75017,717.68329 C 346.04328,719.55313 346.26729,720.19965 346.24796,719.11999 C 346.22862,718.04033 345.9888,716.51047 345.71502,715.72028 z M 316.91218,719.289 C 316.67072,719.03677 316.60668,719.56062 316.76985,720.4531 C 316.95017,721.43937 317.12235,721.61923 317.20886,720.91171 C 317.28714,720.27144 317.15364,719.54124 316.91218,719.289 z M 325.69185,703.29698 C 325.66026,703.09073 325.36604,702.96307 325.03802,703.01331 C 324.71,703.06354 324.50368,703.50991 324.57953,704.00522 C 324.65538,704.50053 324.9496,704.62819 325.23336,704.2889 C 325.51711,703.94959 325.72343,703.50324 325.69185,703.29698 z M 370.29033,695.58621 C 370.2494,695.31893 369.72543,694.58789 369.12596,693.96169 C 368.22281,693.01823 368.06737,693.02782 368.21896,694.01768 C 368.31957,694.67471 368.61988,695.44001 368.88632,695.71832 C 369.47926,696.33775 370.39226,696.25183 370.29033,695.58621 z "
       id="path4504" />
    <g
       id="g4506"
       transform="translate(-39,487.5)">
      <path
         d="M 400 190.86218 A 9 9.5 0 1 1  382,190.86218 A 9 9.5 0 1 1  400 190.86218 z"
         sodipodi:ry="9.5"
         sodipodi:rx="9"
         sodipodi:cy="190.86218"
         sodipodi:cx="391"
         id="path4508"
         style="opacity:1;color:#000000;fill:#ffffff;fill-opacity:1;fill-rule:nonzero;stroke:#000000;stroke-width:1.79999995;stroke-linecap:butt;stroke-linejoin:miter;marker:none;marker-start:none;marker-mid:none;marker-end:none;stroke-miterlimit:4;stroke-dasharray:none;stroke-dashoffset:0;stroke-opacity:1;visibility:visible;display:inline;overflow:visible;enable-background:accumulate"
         sodipodi:type="arc" />
      <path
         d="M 395.7098 190.84454 A 4.6392155 5.1490197 0 1 1  386.43137,190.84454 A 4.6392155 5.1490197 0 1 1  395.7098 190.84454 z"
         sodipodi:ry="5.1490197"
         sodipodi:rx="4.6392155"
         sodipodi:cy="190.84454"
         sodipodi:cx="391.07059"
         id="path4510"
         style="opacity:1;color:#000000;fill:#ffffff;fill-opacity:1;fill-rule:nonzero;stroke:#000000;stroke-width:1.79999995;stroke-linecap:butt;stroke-linejoin:miter;marker:none;marker-start:none;marker-mid:none;marker-end:none;stroke-miterlimit:4;stroke-dasharray:none;stroke-dashoffset:0;stroke-opacity:1;visibility:visible;display:inline;overflow:visible;enable-background:accumulate"
         sodipodi:type="arc" />
      <path
         d="M 392.65099 190.9465 A 1.427451 1.2745098 0 1 1  389.79609,190.9465 A 1.427451 1.2745098 0 1 1  392.65099 190.9465 z"
         sodipodi:ry="1.2745098"
         sodipodi:rx="1.427451"
         sodipodi:cy="190.9465"
         sodipodi:cx="391.22354"
         id="path4512"
         style="opacity:1;color:#000000;fill:#ffffff;fill-opacity:1;fill-rule:nonzero;stroke:#000000;stroke-width:1.79999995;stroke-linecap:butt;stroke-linejoin:miter;marker:none;marker-start:none;marker-mid:none;marker-end:none;stroke-miterlimit:4;stroke-dasharray:none;stroke-dashoffset:0;stroke-opacity:1;visibility:visible;display:inline;overflow:visible;enable-background:accumulate"
         sodipodi:type="arc" />
    </g>
    <g
       id="g4514"
       transform="translate(-55,489.5)">
      <path
         d="M 400 190.86218 A 9 9.5 0 1 1  382,190.86218 A 9 9.5 0 1 1  400 190.86218 z"
         sodipodi:ry="9.5"
         sodipodi:rx="9"
         sodipodi:cy="190.86218"
         sodipodi:cx="391"
         id="path4516"
         style="opacity:1;color:#000000;fill:#ffffff;fill-opacity:1;fill-rule:nonzero;stroke:#000000;stroke-width:1.79999995;stroke-linecap:butt;stroke-linejoin:miter;marker:none;marker-start:none;marker-mid:none;marker-end:none;stroke-miterlimit:4;stroke-dasharray:none;stroke-dashoffset:0;stroke-opacity:1;visibility:visible;display:inline;overflow:visible;enable-background:accumulate"
         sodipodi:type="arc" />
      <path
         d="M 395.7098 190.84454 A 4.6392155 5.1490197 0 1 1  386.43137,190.84454 A 4.6392155 5.1490197 0 1 1  395.7098 190.84454 z"
         sodipodi:ry="5.1490197"
         sodipodi:rx="4.6392155"
         sodipodi:cy="190.84454"
         sodipodi:cx="391.07059"
         id="path4518"
         style="opacity:1;color:#000000;fill:#ffffff;fill-opacity:1;fill-rule:nonzero;stroke:#000000;stroke-width:1.79999995;stroke-linecap:butt;stroke-linejoin:miter;marker:none;marker-start:none;marker-mid:none;marker-end:none;stroke-miterlimit:4;stroke-dasharray:none;stroke-dashoffset:0;stroke-opacity:1;visibility:visible;display:inline;overflow:visible;enable-background:accumulate"
         sodipodi:type="arc" />
      <path
         d="M 392.65099 190.9465 A 1.427451 1.2745098 0 1 1  389.79609,190.9465 A 1.427451 1.2745098 0 1 1  392.65099 190.9465 z"
         sodipodi:ry="1.2745098"
         sodipodi:rx="1.427451"
         sodipodi:cy="190.9465"
         sodipodi:cx="391.22354"
         id="path4520"
         style="opacity:1;color:#000000;fill:#ffffff;fill-opacity:1;fill-rule:nonzero;stroke:#000000;stroke-width:1.79999995;stroke-linecap:butt;stroke-linejoin:miter;marker:none;marker-start:none;marker-mid:none;marker-end:none;stroke-miterlimit:4;stroke-dasharray:none;stroke-dashoffset:0;stroke-opacity:1;visibility:visible;display:inline;overflow:visible;enable-background:accumulate"
         sodipodi:type="arc" />
    </g>
    <path
       sodipodi:type="arc"
       style="color:#000000;fill:#ffffff;fill-opacity:1;fill-rule:nonzero;stroke:#000000;stroke-width:1.79999995;stroke-linecap:butt;stroke-linejoin:miter;marker:none;marker-start:none;marker-mid:none;marker-end:none;stroke-miterlimit:4;stroke-dasharray:none;stroke-dashoffset:0;stroke-opacity:1;visibility:visible;display:inline;overflow:visible;enable-background:accumulate"
       id="path4522"
       sodipodi:cx="402.5"
       sodipodi:cy="211.86218"
       sodipodi:rx="3.5"
       sodipodi:ry="6.5"
       d="M 406 211.86218 A 3.5 6.5 0 1 1  399,211.86218 A 3.5 6.5 0 1 1  406 211.86218 z"
       transform="translate(-5,479)" />
    <g
       id="g5599"
       transform="translate(-7,478)">
      <path
         transform="matrix(0.72937,0.49228,-0.49228,0.72937,240.71928,-274.84311)"
         d="M 603,35.362182 L 581.38513,35.919278 L 573.45093,56.03299 L 566.24174,35.648179 L 544.66066,34.317785 L 561.82,21.162183 L 556.41636,0.22624128 L 574.23061,12.480443 L 592.47206,0.87171457 L 586.32252,21.60083 L 603,35.362182 z "
         inkscape:randomized="0"
         inkscape:rounded="2.810252e-16"
         inkscape:flatsided="false"
         sodipodi:arg2="0.960378"
         sodipodi:arg1="0.33205947"
         sodipodi:r2="12.883803"
         sodipodi:r1="30.675722"
         sodipodi:cy="25.362183"
         sodipodi:cx="574"
         sodipodi:sides="5"
         id="path5591"
         style="opacity:1;color:#000000;fill:#ffffff;fill-opacity:1;fill-rule:nonzero;stroke:none;stroke-width:1.79999995;stroke-linecap:butt;stroke-linejoin:miter;marker:none;marker-start:none;marker-mid:none;marker-end:none;stroke-miterlimit:4;stroke-dasharray:none;stroke-dashoffset:0;stroke-opacity:1;visibility:visible;display:inline;overflow:visible;enable-background:accumulate"
         sodipodi:type="star" />
      <path
         transform="matrix(0.72937,0.49228,-0.49228,0.72937,240.9663,-193.26025)"
         d="M 603,35.362182 L 581.38513,35.919278 L 573.45093,56.03299 L 566.24174,35.648179 L 544.66066,34.317785 L 561.82,21.162183 L 556.41636,0.22624128 L 574.23061,12.480443 L 592.47206,0.87171457 L 586.32252,21.60083 L 603,35.362182 z "
         inkscape:randomized="0"
         inkscape:rounded="2.810252e-16"
         inkscape:flatsided="false"
         sodipodi:arg2="0.960378"
         sodipodi:arg1="0.33205947"
         sodipodi:r2="12.883803"
         sodipodi:r1="30.675722"
         sodipodi:cy="25.362183"
         sodipodi:cx="574"
         sodipodi:sides="5"
         id="path5593"
         style="opacity:1;color:#000000;fill:#ffffff;fill-opacity:1;fill-rule:nonzero;stroke:none;stroke-width:1.79999995;stroke-linecap:butt;stroke-linejoin:miter;marker:none;marker-start:none;marker-mid:none;marker-end:none;stroke-miterlimit:4;stroke-dasharray:none;stroke-dashoffset:0;stroke-opacity:1;visibility:visible;display:inline;overflow:visible;enable-background:accumulate"
         sodipodi:type="star" />
      <path
         transform="matrix(0.72937,0.49228,-0.49228,0.72937,200.9663,-233.26025)"
         d="M 603,35.362182 L 581.38513,35.919278 L 573.45093,56.03299 L 566.24174,35.648179 L 544.66066,34.317785 L 561.82,21.162183 L 556.41636,0.22624128 L 574.23061,12.480443 L 592.47206,0.87171457 L 586.32252,21.60083 L 603,35.362182 z "
         inkscape:randomized="0"
         inkscape:rounded="2.810252e-16"
         inkscape:flatsided="false"
         sodipodi:arg2="0.960378"
         sodipodi:arg1="0.33205947"
         sodipodi:r2="12.883803"
         sodipodi:r1="30.675722"
         sodipodi:cy="25.362183"
         sodipodi:cx="574"
         sodipodi:sides="5"
         id="path5595"
         style="opacity:1;color:#000000;fill:#ffffff;fill-opacity:1;fill-rule:nonzero;stroke:none;stroke-width:1.79999995;stroke-linecap:butt;stroke-linejoin:miter;marker:none;marker-start:none;marker-mid:none;marker-end:none;stroke-miterlimit:4;stroke-dasharray:none;stroke-dashoffset:0;stroke-opacity:1;visibility:visible;display:inline;overflow:visible;enable-background:accumulate"
         sodipodi:type="star" />
      <path
         transform="matrix(0.72937,0.49228,-0.49228,0.72937,280.9663,-234.26025)"
         d="M 603,35.362182 L 581.38513,35.919278 L 573.45093,56.03299 L 566.24174,35.648179 L 544.66066,34.317785 L 561.82,21.162183 L 556.41636,0.22624128 L 574.23061,12.480443 L 592.47206,0.87171457 L 586.32252,21.60083 L 603,35.362182 z "
         inkscape:randomized="0"
         inkscape:rounded="2.810252e-16"
         inkscape:flatsided="false"
         sodipodi:arg2="0.960378"
         sodipodi:arg1="0.33205947"
         sodipodi:r2="12.883803"
         sodipodi:r1="30.675722"
         sodipodi:cy="25.362183"
         sodipodi:cx="574"
         sodipodi:sides="5"
         id="path5597"
         style="opacity:1;color:#000000;fill:#ffffff;fill-opacity:1;fill-rule:nonzero;stroke:none;stroke-width:1.79999995;stroke-linecap:butt;stroke-linejoin:miter;marker:none;marker-start:none;marker-mid:none;marker-end:none;stroke-miterlimit:4;stroke-dasharray:none;stroke-dashoffset:0;stroke-opacity:1;visibility:visible;display:inline;overflow:visible;enable-background:accumulate"
         sodipodi:type="star" />
    </g>
    <path
       sodipodi:type="arc"
       style="opacity:1;color:#000000;fill:#ffffff;fill-opacity:1;fill-rule:nonzero;stroke:#194119;stroke-width:4;stroke-linecap:butt;stroke-linejoin:miter;marker:none;marker-start:none;marker-mid:none;marker-end:none;stroke-miterlimit:4;stroke-dasharray:none;stroke-dashoffset:0;stroke-opacity:1;visibility:visible;display:inline;overflow:visible;enable-background:accumulate"
       id="path2332"
       sodipodi:cx="331.5"
       sodipodi:cy="148.29999"
       sodipodi:rx="10.5"
       sodipodi:ry="9.5"
       d="M 342 148.29999 A 10.5 9.5 0 1 1  321,148.29999 A 10.5 9.5 0 1 1  342 148.29999 z"
       transform="matrix(0.6100001,0,0,1.0426317,133.88497,463.1399)" />
  </g>
</svg>
