<?xml version="1.0" encoding="UTF-8"?>
<svg width="824.77mm" height="440.69mm" version="1.1" viewBox="0 0 824.77 440.69" xmlns="http://www.w3.org/2000/svg">
<g>
<rect x=".0089477" y=".0022877" width="824.75" height="440.69" fill="#fff" fill-rule="evenodd" style="paint-order:markers fill stroke"/>
<path d="m384.56 122.02c-1.1885-1.214-2.3903-0.42133-2.7731 0.28568-0.39616 0.91409 7e-3 2.6138 1.7525 2.7137 3.4042 0.19282 6.8017 0.38564 10.206 0.5856l7e-3 -1.0069c-3.3572-0.12141-6.7547-0.0644-10.078-0.35706-0.87288-0.0715-1.4705-0.93555-1.0877-1.6997 0.16114-0.25709 1.0944-0.92838 1.6383 0.12141 0.16786 0.31422 0 0.77842-0.15443 1.0641l0.62444 0.18568c0.17457-0.48561 0.29543-1.4497-0.1343-1.8925z" fill="#fff" fill-rule="evenodd"/>
<path transform="matrix(.69721 .71687 -.69721 .71687 0 0)" d="m509.02-36.098a10.903 10.903 0 0 1-14.947-3.7874 10.903 10.903 0 0 1 3.7866-14.947 10.903 10.903 0 0 1 14.947 3.7858 10.903 10.903 0 0 1-3.785 14.948" fill="#d00" fill-rule="evenodd" style="paint-order:markers fill stroke"/>
<path transform="matrix(.69721 .71687 -.69721 .71687 0 0)" d="m519.79-36.1a10.903 10.903 0 0 1-14.947-3.7874 10.903 10.903 0 0 1 3.7866-14.947 10.903 10.903 0 0 1 14.947 3.7858 10.903 10.903 0 0 1-3.785 14.948" fill="#d00" fill-rule="evenodd" style="paint-order:markers fill stroke"/>
<path transform="matrix(.69721 .71687 -.69721 .71687 0 0)" d="m513.62-25.971a8.8222 8.8222 0 0 1-12.094-3.0645 8.8222 8.8222 0 0 1 3.0639-12.094 8.8222 8.8222 0 0 1 12.094 3.0632 8.8222 8.8222 0 0 1-3.0626 12.094" fill="#d00" fill-rule="evenodd" style="paint-order:markers fill stroke"/>
<path d="m335.89 182.36c7.6468 20.056 7.7385 45.311 1.1509 56.773 49.606-11.48 99.072-12.12 150.96 0.28173-7.1301-19.223-7.9411-38.265 0-57.054-54.613 14.364-104.32 10.714-152.11 0z" fill="#d00"/>
<path transform="matrix(-.69721 .71687 .69721 .71687 0 0)" d="m-82.439 555.36a10.903 10.903 0 0 1-14.947-3.7874 10.903 10.903 0 0 1 3.7866-14.947 10.903 10.903 0 0 1 14.947 3.7858 10.903 10.903 0 0 1-3.785 14.948" fill="#d00" fill-rule="evenodd" style="paint-order:markers fill stroke"/>
<path transform="matrix(-.69721 .71687 .69721 .71687 0 0)" d="m-71.668 555.36a10.903 10.903 0 0 1-14.947-3.7874 10.903 10.903 0 0 1 3.7866-14.947 10.903 10.903 0 0 1 14.947 3.7858 10.903 10.903 0 0 1-3.785 14.948" fill="#d00" fill-rule="evenodd" style="paint-order:markers fill stroke"/>
<path transform="matrix(-.69721 .71687 .69721 .71687 0 0)" d="m-77.837 565.49a8.8222 8.8222 0 0 1-12.094-3.0645 8.8222 8.8222 0 0 1 3.0639-12.094 8.8222 8.8222 0 0 1 12.094 3.0632 8.8222 8.8222 0 0 1-3.0626 12.094" fill="#d00" fill-rule="evenodd" style="paint-order:markers fill stroke"/>
<path transform="matrix(-.69721 .71687 .69721 .71687 0 0)" d="m-178.94 518.09a10.903 10.903 0 0 1-14.947-3.7874 10.903 10.903 0 0 1 3.7866-14.947 10.903 10.903 0 0 1 14.947 3.7858 10.903 10.903 0 0 1-3.785 14.948" fill="#d00" fill-rule="evenodd" style="paint-order:markers fill stroke"/>
<path transform="matrix(-.69721 .71687 .69721 .71687 0 0)" d="m-168.17 518.09a10.903 10.903 0 0 1-14.947-3.7874 10.903 10.903 0 0 1 3.7866-14.947 10.903 10.903 0 0 1 14.947 3.7858 10.903 10.903 0 0 1-3.785 14.948" fill="#d00" fill-rule="evenodd" style="paint-order:markers fill stroke"/>
<path transform="matrix(-.69721 .71687 .69721 .71687 0 0)" d="m-174.34 528.21a8.8222 8.8222 0 0 1-12.094-3.0645 8.8222 8.8222 0 0 1 3.0639-12.094 8.8222 8.8222 0 0 1 12.094 3.0632 8.8222 8.8222 0 0 1-3.0626 12.094" fill="#d00" fill-rule="evenodd" style="paint-order:markers fill stroke"/>
<path transform="matrix(.69721 .71687 -.69721 .71687 0 0)" d="m412.55-73.406a10.903 10.903 0 0 1-14.947-3.7874 10.903 10.903 0 0 1 3.7866-14.947 10.903 10.903 0 0 1 14.947 3.7858 10.903 10.903 0 0 1-3.785 14.948" fill="#d00" fill-rule="evenodd" style="paint-order:markers fill stroke"/>
<path transform="matrix(.69721 .71687 -.69721 .71687 0 0)" d="m423.32-73.408a10.903 10.903 0 0 1-14.947-3.7874 10.903 10.903 0 0 1 3.7866-14.947 10.903 10.903 0 0 1 14.947 3.7858 10.903 10.903 0 0 1-3.785 14.948" fill="#d00" fill-rule="evenodd" style="paint-order:markers fill stroke"/>
<path transform="matrix(.69721 .71687 -.69721 .71687 0 0)" d="m417.15-63.28a8.8222 8.8222 0 0 1-12.094-3.0645 8.8222 8.8222 0 0 1 3.0638-12.094 8.8222 8.8222 0 0 1 12.094 3.0632 8.8222 8.8222 0 0 1-3.0626 12.094" fill="#d00" fill-rule="evenodd" style="paint-order:markers fill stroke"/>
<path transform="matrix(.69721 -.71687 -.69721 -.71687 0 0)" d="m118.68-367.28a10.903 10.903 0 0 1-14.947-3.7874 10.903 10.903 0 0 1 3.7866-14.947 10.903 10.903 0 0 1 14.947 3.7858 10.903 10.903 0 0 1-3.785 14.948" fill="#d00" fill-rule="evenodd" style="paint-order:markers fill stroke"/>
<path transform="matrix(.69721 -.71687 -.69721 -.71687 0 0)" d="m129.45-367.28a10.903 10.903 0 0 1-14.947-3.7874 10.903 10.903 0 0 1 3.7866-14.947 10.903 10.903 0 0 1 14.947 3.7858 10.903 10.903 0 0 1-3.785 14.948" fill="#d00" fill-rule="evenodd" style="paint-order:markers fill stroke"/>
<path transform="matrix(.69721 -.71687 -.69721 -.71687 0 0)" d="m123.28-357.15a8.8222 8.8222 0 0 1-12.094-3.0645 8.8222 8.8222 0 0 1 3.0639-12.094 8.8222 8.8222 0 0 1 12.094 3.0632 8.8222 8.8222 0 0 1-3.0626 12.094" fill="#d00" fill-rule="evenodd" style="paint-order:markers fill stroke"/>
<path transform="matrix(.69721 -.71687 -.69721 -.71687 0 0)" d="m192.52-352.6a10.903 10.903 0 0 1-14.947-3.7874 10.903 10.903 0 0 1 3.7866-14.947 10.903 10.903 0 0 1 14.947 3.7858 10.903 10.903 0 0 1-3.785 14.948" fill="#d00" fill-rule="evenodd" style="paint-order:markers fill stroke"/>
<path transform="matrix(.69721 -.71687 -.69721 -.71687 0 0)" d="m203.3-352.6a10.903 10.903 0 0 1-14.947-3.7874 10.903 10.903 0 0 1 3.7866-14.947 10.903 10.903 0 0 1 14.947 3.7858 10.903 10.903 0 0 1-3.785 14.948" fill="#d00" fill-rule="evenodd" style="paint-order:markers fill stroke"/>
<path transform="matrix(.69721 -.71687 -.69721 -.71687 0 0)" d="m197.13-342.47a8.8222 8.8222 0 0 1-12.094-3.0645 8.8222 8.8222 0 0 1 3.0639-12.094 8.8222 8.8222 0 0 1 12.094 3.0632 8.8222 8.8222 0 0 1-3.0626 12.094" fill="#d00" fill-rule="evenodd" style="paint-order:markers fill stroke"/>
<path transform="matrix(-.69721 -.71687 .69721 -.71687 0 0)" d="m-399.3 238.51a10.903 10.903 0 0 1-14.947-3.7874 10.903 10.903 0 0 1 3.7866-14.947 10.903 10.903 0 0 1 14.947 3.7858 10.903 10.903 0 0 1-3.785 14.948" fill="#d00" fill-rule="evenodd" style="paint-order:markers fill stroke"/>
<path transform="matrix(-.69721 -.71687 .69721 -.71687 0 0)" d="m-388.53 238.5a10.903 10.903 0 0 1-14.947-3.7874 10.903 10.903 0 0 1 3.7866-14.947 10.903 10.903 0 0 1 14.947 3.7858 10.903 10.903 0 0 1-3.785 14.948" fill="#d00" fill-rule="evenodd" style="paint-order:markers fill stroke"/>
<path transform="matrix(-.69721 -.71687 .69721 -.71687 0 0)" d="m-394.7 248.63a8.8222 8.8222 0 0 1-12.094-3.0645 8.8222 8.8222 0 0 1 3.0639-12.094 8.8222 8.8222 0 0 1 12.094 3.0632 8.8222 8.8222 0 0 1-3.0626 12.094" fill="#d00" fill-rule="evenodd" style="paint-order:markers fill stroke"/>
<path transform="matrix(-.69721 -.71687 .69721 -.71687 0 0)" d="m-472.79 224.19a10.903 10.903 0 0 1-14.947-3.7874 10.903 10.903 0 0 1 3.7866-14.947 10.903 10.903 0 0 1 14.947 3.7858 10.903 10.903 0 0 1-3.785 14.948" fill="#d00" fill-rule="evenodd" style="paint-order:markers fill stroke"/>
<path transform="matrix(-.69721 -.71687 .69721 -.71687 0 0)" d="m-462.02 224.19a10.903 10.903 0 0 1-14.947-3.7874 10.903 10.903 0 0 1 3.7866-14.947 10.903 10.903 0 0 1 14.947 3.7858 10.903 10.903 0 0 1-3.785 14.948" fill="#d00" fill-rule="evenodd" style="paint-order:markers fill stroke"/>
<path transform="matrix(-.69721 -.71687 .69721 -.71687 0 0)" d="m-468.19 234.31a8.8222 8.8222 0 0 1-12.094-3.0645 8.8222 8.8222 0 0 1 3.0639-12.094 8.8222 8.8222 0 0 1 12.094 3.0632 8.8222 8.8222 0 0 1-3.0626 12.094" fill="#d00" fill-rule="evenodd" style="paint-order:markers fill stroke"/>
<path d="m377.99 336.12c23.157-68.323 26.383-143.03 5.1e-4 -218.6 25.099 10.484 46.332 9.5189 68.805 0.46122-22.022 73.337-22.877 146.07-2e-3 218.14-23.288-7.4948-46.209-9.519-68.803-7.1e-4z" fill="#d00"/>
<path d="m392.31 117.73a1.7538 1.6744 0 0 1-2.4042-0.58163 1.7538 1.6744 0 0 1 0.60906-2.2954 1.7538 1.6744 0 0 1 2.4042 0.58138 1.7538 1.6744 0 0 1-0.60881 2.2955" fill="#fffeff" fill-rule="evenodd" stroke-width="0" style="paint-order:stroke fill markers"/>
<path d="m381.89 128.88a1.7538 1.6744 0 0 1-2.4042-0.58163 1.7538 1.6744 0 0 1 0.60906-2.2954 1.7538 1.6744 0 0 1 2.4042 0.58138 1.7538 1.6744 0 0 1-0.6088 2.2955" fill="#fffeff" fill-rule="evenodd" stroke-width="0" style="paint-order:stroke fill markers"/>
<path d="m351.27 182.2a1.7538 1.6744 0 0 1-2.4042-0.58163 1.7538 1.6744 0 0 1 0.60907-2.2954 1.7538 1.6744 0 0 1 2.4042 0.58138 1.7538 1.6744 0 0 1-0.6088 2.2955" fill="#fffeff" fill-rule="evenodd" stroke-width="0" style="paint-order:stroke fill markers"/>
<path d="m337.05 177.1a1.7538 1.6744 0 0 1-2.4042-0.58164 1.7538 1.6744 0 0 1 0.60907-2.2954 1.7538 1.6744 0 0 1 2.4042 0.58138 1.7538 1.6744 0 0 1-0.60881 2.2955" fill="#fffeff" fill-rule="evenodd" stroke-width="0" style="paint-order:stroke fill markers"/>
<path d="m341 192.16a1.7538 1.6744 0 0 1-2.4042-0.58164 1.7538 1.6744 0 0 1 0.60907-2.2954 1.7538 1.6744 0 0 1 2.4042 0.58138 1.7538 1.6744 0 0 1-0.60881 2.2955" fill="#fffeff" fill-rule="evenodd" stroke-width="0" style="paint-order:stroke fill markers"/>
<path d="m339.14 232.16a1.7538 1.6744 0 0 1-2.4042-0.58163 1.7538 1.6744 0 0 1 0.60907-2.2954 1.7538 1.6744 0 0 1 2.4042 0.58139 1.7538 1.6744 0 0 1-0.60881 2.2955" fill="#fffeff" fill-rule="evenodd" stroke-width="0" style="paint-order:stroke fill markers"/>
<path d="m336.63 246.39a1.7538 1.6744 0 0 1-2.4042-0.58164 1.7538 1.6744 0 0 1 0.60907-2.2954 1.7538 1.6744 0 0 1 2.4042 0.58138 1.7538 1.6744 0 0 1-0.60881 2.2955" fill="#fffeff" fill-rule="evenodd" stroke-width="0" style="paint-order:stroke fill markers"/>
<path d="m351.39 242.2a1.7538 1.6744 0 0 1-2.4042-0.58163 1.7538 1.6744 0 0 1 0.60906-2.2954 1.7538 1.6744 0 0 1 2.4042 0.58139 1.7538 1.6744 0 0 1-0.60881 2.2955" fill="#fffeff" fill-rule="evenodd" stroke-width="0" style="paint-order:stroke fill markers"/>
<path d="m380.65 327.68a1.7538 1.6744 0 0 1-2.4042-0.58163 1.7538 1.6744 0 0 1 0.60907-2.2954 1.7538 1.6744 0 0 1 2.4042 0.58139 1.7538 1.6744 0 0 1-0.60881 2.2955" fill="#fffeff" fill-rule="evenodd" stroke-width="0" style="paint-order:stroke fill markers"/>
<path d="m391.92 338.23a1.7538 1.6744 0 0 1-2.4042-0.58163 1.7538 1.6744 0 0 1 0.60907-2.2954 1.7538 1.6744 0 0 1 2.4042 0.58138 1.7538 1.6744 0 0 1-0.6088 2.2955" fill="#fffeff" fill-rule="evenodd" stroke-width="0" style="paint-order:stroke fill markers"/>
<path d="m434.11 338.94a1.7538 1.6744 0 0 1-2.4042-0.58164 1.7538 1.6744 0 0 1 0.60907-2.2954 1.7538 1.6744 0 0 1 2.4042 0.58138 1.7538 1.6744 0 0 1-0.60881 2.2955" fill="#fffeff" fill-rule="evenodd" stroke-width="0" style="paint-order:stroke fill markers"/>
<path d="m447.59 342.89a1.7538 1.6744 0 0 1-2.4042-0.58163 1.7538 1.6744 0 0 1 0.60907-2.2954 1.7538 1.6744 0 0 1 2.4042 0.58139 1.7538 1.6744 0 0 1-0.6088 2.2955" fill="#fffeff" fill-rule="evenodd" stroke-width="0" style="paint-order:stroke fill markers"/>
<path d="m444.52 328.24a1.7538 1.6744 0 0 1-2.4042-0.58163 1.7538 1.6744 0 0 1 0.60907-2.2954 1.7538 1.6744 0 0 1 2.4042 0.58139 1.7538 1.6744 0 0 1-0.6088 2.2955" fill="#fffeff" fill-rule="evenodd" stroke-width="0" style="paint-order:stroke fill markers"/>
<path d="m378.67 342.77a1.7538 1.6744 0 0 1-2.4042-0.58163 1.7538 1.6744 0 0 1 0.60907-2.2954 1.7538 1.6744 0 0 1 2.4042 0.58139 1.7538 1.6744 0 0 1-0.60881 2.2955" fill="#fffeff" fill-rule="evenodd" stroke-width="0" style="paint-order:stroke fill markers"/>
<path d="m485.85 231.97a1.7538 1.6744 0 0 1-2.4042-0.58164 1.7538 1.6744 0 0 1 0.60907-2.2954 1.7538 1.6744 0 0 1 2.4042 0.58138 1.7538 1.6744 0 0 1-0.60881 2.2955" fill="#fffeff" fill-rule="evenodd" stroke-width="0" style="paint-order:stroke fill markers"/>
<path d="m486.87 192.4a1.7538 1.6744 0 0 1-2.4042-0.58164 1.7538 1.6744 0 0 1 0.60906-2.2954 1.7538 1.6744 0 0 1 2.4042 0.58138 1.7538 1.6744 0 0 1-0.60881 2.2955" fill="#fffeff" fill-rule="evenodd" stroke-width="0" style="paint-order:stroke fill markers"/>
<path d="m475.55 182.28a1.7538 1.6744 0 0 1-2.4042-0.58163 1.7538 1.6744 0 0 1 0.60906-2.2954 1.7538 1.6744 0 0 1 2.4042 0.58139 1.7538 1.6744 0 0 1-0.60881 2.2955" fill="#fffeff" fill-rule="evenodd" stroke-width="0" style="paint-order:stroke fill markers"/>
<path d="m488.88 177.98a1.7538 1.6744 0 0 1-2.4042-0.58163 1.7538 1.6744 0 0 1 0.60907-2.2954 1.7538 1.6744 0 0 1 2.4042 0.58138 1.7538 1.6744 0 0 1-0.60881 2.2955" fill="#fffeff" fill-rule="evenodd" stroke-width="0" style="paint-order:stroke fill markers"/>
<path d="m489.46 246.76a1.7538 1.6744 0 0 1-2.4042-0.58163 1.7538 1.6744 0 0 1 0.60907-2.2954 1.7538 1.6744 0 0 1 2.4042 0.58139 1.7538 1.6744 0 0 1-0.60881 2.2955" fill="#fffeff" fill-rule="evenodd" stroke-width="0" style="paint-order:stroke fill markers"/>
<path d="m474.78 243.27a1.7538 1.6744 0 0 1-2.4042-0.58163 1.7538 1.6744 0 0 1 0.60906-2.2954 1.7538 1.6744 0 0 1 2.4042 0.58139 1.7538 1.6744 0 0 1-0.6088 2.2955" fill="#fffeff" fill-rule="evenodd" stroke-width="0" style="paint-order:stroke fill markers"/>
<path d="m377.83 113.16a1.7538 1.6744 0 0 1-2.4042-0.58163 1.7538 1.6744 0 0 1 0.60907-2.2954 1.7538 1.6744 0 0 1 2.4042 0.58138 1.7538 1.6744 0 0 1-0.6088 2.2955" fill="#fffeff" fill-rule="evenodd" stroke-width="0" style="paint-order:stroke fill markers"/>
<path d="m448.02 121.16c-5.7885 0-8.6611 2.3749-13.099 24.057-1.6796 8.2061-4.3937 19.673-5.7618 33.523 0 0 0.43156 1.2171 2.4305 1.4303 1.0398-9.9707 3.5023-22.832 5.8897-34.262 2.4848-11.897 3.7082-22.281 10.116-22.281 3.8267 0 2.9976 10.195-5.8122 10.09-0.11413 0.84781-0.0724 1.1658-0.36921 2.3052 10.826-0.23882 13.351-14.863 6.6055-14.863z" fill="#fff" fill-rule="evenodd"/>
<path d="m377.55 333.33c6.3991 0 9.5748-2.412 14.481-24.433 1.8567-8.3343 7.9262-46.915 8.4521-63.123 0 0-0.47708-1.2361-2.6869-1.4526-0.25808 12.107-5.4968 49.384-9.1415 63.76-3.044 12.007-3.5513 22.742-10.635 22.742-4.2304 0-4.1907-9.9038 5.5485-9.7972 0.12616-0.86107 0.08-1.1841 0.40816-2.3413-11.968 0.24257-13.883 14.645-6.4255 14.645z" fill="#fff" fill-rule="evenodd"/>
<path d="m447.04 105.34c-1.7894-0.0796-4.6291 0.38698-7.0083 3.2236-0.27485 0.32771-2.0672 9.6679-1.7313 15.757l2.6724-1.2378c0.79861-8.0733-0.19652-14.895 6.2259-14.895 4.6985 0 7.0642 9.7548-2.2775 9.5391-0.11413 0.84782 0.0479 1.4052-0.10564 2.5446 12.435 1.062 11.127-14.535 2.2244-14.931z" fill="#fff" fill-rule="evenodd"/>
<path d="m488.41 168.67c-1.7894-0.0796-4.3578 0.1081-6.737 2.9447-0.27486 0.3277-2.1386 5.6278-0.85442 14.083 1.423-1.367 2.244-1.7265 3.278-2.1024-0.51665-4.8051-1.9502-12.078 4.4722-12.078 4.6985 0 7.0642 9.7548-2.2776 9.5391-0.11412 0.84781 0.0479 1.4052-0.10563 2.5446 12.435 1.062 11.127-14.535 2.2244-14.931z" fill="#fff" fill-rule="evenodd"/>
<path d="m370.68 112.99c0.0788 4.8345 5.8092 8.6462 14.01 10.918l-0.47157-2.602c-5.9268-2.2396-11.101-4.7617-11.214-8.2873-0.0745-2.3374 1.3359-5.5676 4.3462-5.5676 2.6048 0 5.1589 2.9091 1.677 7.2111 0.61432 0.57759 1.1048 1.0761 1.9304 1.8524 5.3677-7.0121 1.6038-11.479-3.696-11.479-3.2598 0-6.655 3.4706-6.582 7.9548z" fill="#fff" fill-rule="evenodd"/>
<path d="m336.19 252.71c4.9119 0 9.919-6.45 4.0849-14.806l-2.4793-0.0844c5.7902 7.8535 2.3509 12.89-1.6448 12.89-3.6798 0-5.2482-3.4805-5.196-6.0684 0.0549-2.724 1.4166-4.2267 4.9248-5.1505-0.11433-0.81877-0.14257-1.508-0.14257-2.0329-2.783 0.34025-6.2606 2.9712-6.3313 7.1144-0.0795 4.6553 3.2164 8.1383 6.7843 8.1383z" fill="#fff" fill-rule="evenodd"/>
<path d="m378.01 348.58c4.9119 0 9.9189-6.1169 4.0849-14.042l-2.4793-0.0801c5.7902 7.4479 2.3509 12.224-1.6448 12.224-3.6798 0-5.2482-3.3008-5.196-5.755 0.0549-2.5833 1.4166-4.0084 4.9248-4.8845-0.11433-0.7765-0.14257-1.4301-0.14257-1.9279-2.783 0.32267-6.2606 2.8178-6.3313 6.7469-0.0795 4.4149 3.2164 7.718 6.7843 7.718z" fill="#fff" fill-rule="evenodd"/>
<path d="m494.21 248.24c1.9221-4.2116-0.90277-11.264-9.3838-9.8377l-1.0328 2.0897c8.0909-1.6043 10.481 3.4995 8.9171 6.9256-1.44 3.1552-4.6353 3.0107-6.5344 1.8586-1.999-1.2126-2.5808-3.0231-1.8932-6.4264-0.65206-0.25231-1.1743-0.52298-1.5636-0.74756-0.83664 2.5318-0.24597 6.6392 2.7994 8.4726 3.4219 2.06 7.295 0.72433 8.6912-2.3349z" fill="#fff" fill-rule="evenodd"/>
<path d="m452.55 344.85c1.9221-4.2116-0.90278-11.265-9.3838-9.8377l-1.0328 2.0897c8.0909-1.6043 10.481 3.4995 8.9171 6.9255-1.44 3.1552-4.1695 2.8417-6.0686 1.6896-1.999-1.2126-3.1014-2.8541-2.359-6.2573-0.65205-0.25228-1.1743-0.52296-1.5636-0.74756-1.4121 3.6024-0.24596 6.6392 2.7995 8.4726 3.4219 2.06 7.295 0.72434 8.6912-2.3349z" fill="#fff" fill-rule="evenodd"/>
<path d="m398.8 340.23c2.7625-5.5992-0.0388-14.021-11.343-12.091l-1.3766 2.8278c10.784-2.171 12.832 3.7955 10.748 8.4316-1.9192 4.2697-6.9445 4.5362-10.871 1.6226 0 0 0.34407 1.7746-0.25615 3.5106 5.1385 2.4781 10.379 1.2093 13.098-4.3019z" fill="#fff" fill-rule="evenodd"/>
<path d="m481.56 223.05c-4.8364 0.88205-7.294 9.2383 0.55239 13.594l0.68924-1.8227c-5.4513-3.8486-4.2859-8.9209-0.74941-10.069 4.4132-1.4332 8.714 3.5808 8.714 6.2658 0 2.8038-0.64927 4.2978-3.5096 4.2978-0.0105 0.89649 4e-3 1.1794-0.0586 2.0797 4.4236 0 5.2238-1.9997 5.2238-6.3804 0-4.656-5.3971-8.9614-10.862-7.9647z" fill="#fff" fill-rule="evenodd"/>
<path d="m440.43 319.69c-4.6677 0.88206-7.0396 9.2382 0.53311 13.594l0.66519-1.8227c-5.2611-3.8486-4.1364-8.9209-0.72326-10.069 4.2592-1.4332 8.4101 3.5808 8.4101 6.2659 0 2.8038-0.62661 4.2978-3.3871 4.2978-9e-3 0.89649 4e-3 1.1794-0.0566 2.0797 4.2693 0 5.0416-1.9997 5.0416-6.3803 0-4.656-5.2089-8.9614-10.483-7.9647z" fill="#fff" fill-rule="evenodd"/>
<path d="m329.42 175.96c0 4.5186 4.5508 9.1005 13.987 10.741-0.7584-0.9471-1.2051-1.272-1.6291-2.722-5.8903-1.6165-10.122-3.9926-10.122-8.0203 0-3.9271 2.9516-5.4555 5.3675-5.4555 2.5561 0 3.3934 1.7718 3.4665 3.7899 0.0748 2.065-0.65395 3.1106-2.1967 4.275 0.6143 0.57759 0.41119 0.513 1.2367 1.2893 1.8796-1.8146 2.9949-3.0395 2.9949-5.6369 0-3.6102-2.2905-5.8048-5.6022-5.8048-4.7002 0-7.5024 4.304-7.5024 7.5441z" fill="#fff" fill-rule="evenodd"/>
<path d="m387.92 134.11c4.0362 9.2921 8.9272 30.396 9.5661 42.457l-2.5023 1.526c-1.4894-12.92-6.917-34.36-9.5363-42.118 1.149-0.4395 1.6058-0.93871 2.4725-1.8646z" fill="#fff" fill-rule="evenodd"/>
<path d="m436.24 320.5c-7.774-23.483-12.353-74.265-11.795-106.25l2.727-3.9872c0.32542 32.638 1.8292 70.653 12.294 107.83-1.5026 0.73871-1.836 1.0482-3.2254 2.4119z" fill="#fff" fill-rule="evenodd"/>
<path d="m353.39 231.32c10.94-2.3744 33.424-4.6738 45.115-3.4944l0.78312 1.8625c-16.754-0.92322-32.056 1.7632-41.927 3.6474-1.2699-1.1869-2.2932-1.7034-3.9717-2.0155z" fill="#fff" fill-rule="evenodd"/>
<path d="m470.36 191.27c-11.836 2.569-34.806 4.5787-47.456 3.3027l-0.8473-2.0152c18.127 0.99888 34.683-1.9077 45.363-3.9463 0.87024 1.1646 1.8998 1.843 2.9408 2.6588z" fill="#fff" fill-rule="evenodd"/>
<path d="m435.64 108.06c-4.323-0.83816-10.793 3.3694-10.793 9.4986 0 5.5681 3.2733 11.227 10.91 10.108 0-1.2042 0.0425-2.349 0.0425-3.4548-5.0644 0.47092-8.5312-1.3554-8.5312-6.1758 0-4.5351 3.6502-8.3537 7.9256-7.3297 1.8174 0.4353 2.3538 1.3367 2.8058 3.941 0.26673-2.5778 0.44794-3.5206 0.83304-5.6312-1.2336-0.69489-1.4366-0.61555-3.1933-0.95616z" fill="#fff" fill-rule="evenodd"/>
<path d="m477.07 171.25c-4.323-0.83817-10.793 3.3694-10.793 9.4986 0 5.5681 3.2733 11.227 10.91 10.108 0-1.2042 0.0425-2.349 0.0425-3.4548-5.0644 0.47093-8.5312-1.3554-8.5312-6.1758 0-4.5351 3.6502-8.3537 7.9256-7.3297 1.8174 0.43527 2.3538 1.3367 2.8058 3.941 0.26674-2.5778 0.44794-3.5206 0.83304-5.6312-1.2336-0.69488-1.4366-0.61554-3.1933-0.95614z" fill="#fff" fill-rule="evenodd"/>
<path d="m375.47 121.6c-5.0778 4.4041-0.3862 13.124 5.5332 13.339 5.7534 0.20852 8.318-3.3092 6.5172-9.1756-1.0888-0.0203-1.3902 0.0122-2.5295-8e-3 1.4533 3.1862 0.86982 6.7472-3.8653 6.5708-4.0976-0.15267-7.1898-5.3276-3.0963-8.7211-0.90709-0.58264-1.8829-1.5064-2.5592-2.004z" fill="#fff" fill-rule="evenodd"/>
<path d="m334.21 184.63c-5.0778 4.4041-0.3862 13.124 5.5332 13.339 5.7534 0.20851 8.318-3.3092 6.5172-9.1756-1.0888-0.0203-1.3902 0.0122-2.5295-8e-3 1.4533 3.1862 0.86981 6.7472-3.8653 6.5708-4.0976-0.15267-7.1898-5.3276-3.0963-8.7211-0.90709-0.58266-1.8829-1.5064-2.5593-2.004z" fill="#fff" fill-rule="evenodd"/>
<path d="m343.3 241.93c0 10.281 14.53 8.7975 14.53-1.575 0-11.176-14.518-9.3279-14.518-3.4345 0 0 2.0696 0.60321 2.9566 1.3 0-5.6164 8.9999-4.0911 8.9999 2.1895 0 7.807-9.1878 7.8444-9.1878 1.4339-1.286 0.19237-1.3054 0.031-2.7804 0.086z" fill="#fff" fill-rule="evenodd"/>
<path d="m342.03 223.69c-4.8594-2.2555-10.147 2.5727-10.147 7.4741 0 3.037 1.8546 5.7151 6.679 5.7151 11.685 0 6.3477-31.192 5.9885-37.625 0 0-1.057 0.48716-2.5762 0.62497 1.421 6.9828 3.7355 34.858-3.3425 34.858-2.7363 0-4.4384-1.8293-4.4384-3.6527 0-3.4385 3.3767-6.8687 7.264-3.572 0.32178-1.2391 0.61096-2.3151 0.57221-3.8222z" fill="#fff" fill-rule="evenodd"/>
<path d="m482.12 197.47c4.8594 2.2555 10.147-2.5727 10.147-7.4741 0-3.037-1.471-5.4334-6.2953-5.4334-11.685 0-7.3341 31.161-6.9749 37.594 0 0 1.057-0.48717 2.5762-0.62497-1.421-6.9828-2.749-34.826 4.3289-34.826 2.7363 0 4.0548 1.5476 4.0548 3.371 0 3.4385-3.3767 6.8687-7.264 3.572-0.32179 1.2391-0.61096 2.3152-0.57221 3.8222z" fill="#fff" fill-rule="evenodd"/>
<path d="m350.05 172.53c-2.0652-0.014-7.3674 1.535-7.428 8.1017-0.0775 8.3932 11.996 10.695 36.735 13.057 0.62171-1.4321 1.079-2.1169 1.079-2.1169-18.33-2.5246-35.526-3.455-35.526-11.044 0-4.3675 3.4378-5.4607 5.3122-5.4433 5.286 0.049 5.8452 3.7688 5.8452 5.6692 0 3.0522-3.5472 3.8903-4.9701 4.2944 0.68117 0.36306 3.3235 0.91462 4.3186 1.219 2.261-1.1955 3.2207-2.5566 3.2207-5.5326 0-1.9339-1.3105-8.1553-8.5863-8.2044z" fill="#fff" fill-rule="evenodd"/>
<path d="m474.31 248.87c1.8591 0.0134 6.6322-1.4694 6.6868-7.7556 0.0786-9.0489-15.682-11.418-37.952-13.679-0.55965 1.3709-1.3836 2.0828-1.3836 2.0828 15.779 1.7406 37.276 3.864 37.276 11.696 0 4.181-3.0947 5.2275-4.7821 5.2108-4.7585-0.047-5.2619-3.6078-5.2619-5.4271 0-2.9219 3.1932-3.7241 4.4742-4.1109-0.6132-0.34756-2.9919-0.87556-3.8876-1.1669-2.0354 1.1445-2.8994 2.4474-2.8994 5.2962 0 1.8513 1.1797 7.8069 7.7296 7.854z" fill="#fff" fill-rule="evenodd"/>
<path d="m434.43 345.05c1.8951 0.0134 5.7164-1.0994 5.7164-7.3859 0-11.568-21.041-12.937-44.848-11.213 1.7996 0.73348 3.3297 2.0031 3.3297 2.0031 12.371-1.2875 39.419-1.3996 39.419 9.3098 0 4.181-2.0549 4.8577-3.7748 4.8411-4.8505-0.047-6.0968-3.6078-6.0968-5.4271 0-2.302 0.90878-3.8758 1.754-5.2513-1.0834-0.57626-2.1749-0.7347-2.8726-0.90369-0.94194 2.0287-1.2389 3.888-1.2389 6.1734 0 1.8513 1.9357 7.8069 8.6122 7.854z" fill="#fff" fill-rule="evenodd"/>
<path d="m430.13 243.18a36.695 37.946 0 0 1-50.304-13.181 36.695 37.946 0 0 1 12.744-52.019 36.695 37.946 0 0 1 50.305 13.175 36.695 37.946 0 0 1-12.738 52.02" fill="#d00" fill-rule="evenodd" stroke-miterlimit="22.926" stroke-width="0" style="paint-order:stroke fill markers"/>
<path d="m429.5 241.88a35.381 36.351 0 0 1-48.502-12.627 35.381 36.351 0 0 1 12.287-49.833 35.381 36.351 0 0 1 48.503 12.622 35.381 36.351 0 0 1-12.282 49.834" fill="#fdffff" fill-rule="evenodd" stroke-width="0" style="paint-order:markers fill stroke"/>
<path d="m426.03 235.97a28.658 29.466 0 0 1-39.285-10.235 28.658 29.466 0 0 1 9.9525-40.394 28.658 29.466 0 0 1 39.286 10.231 28.658 29.466 0 0 1-9.9482 40.395" fill="#d00" fill-rule="evenodd" style="paint-order:markers fill stroke"/>
<path d="m414.71 197.22 2.5376 6e-3v1.7184h-2.5376v6.3219h-1.7688v-6.3352l-2.5219 0.0133 3e-3 -1.7417 2.5188-0.0166v-2.3566h1.7688zm-6.6377 15.798c0.88126 0.46866 1.8813 1.0271 2.7688 1.4226-1.4313 0.93732-5.0189 3.0047-8.0002 3.1144 0.0156 0.37226 2.5688 0.35898 3.6376 1.2697 0.0437-0.0798 0.12813-0.12963 0.20313-0.18946-0.20001-0.1396-0.43751-0.18945-0.61876-0.34568 0.90939-0.46532 1.8438-1.0337 2.5094-0.53181-0.18438 0.16951-0.31876 0.38224-0.63752 0.50855 0.0219 0.0764 0.11563 0.13959 0.18127 0.20276 0.30937-0.14626 0.475-0.44207 0.72501-0.60826 0.125 0.0665 0.16562 0.25925 0.25313 0.51186 0.17189 0.0831 0.38126 0.21938 0.38751 0.78443-0.24376-5e-3 -0.38439 6e-3 -0.61564-0.0399-0.1625-0.0332-0.35001 0.0332-0.37189 0.10976-0.0187 0.0698 0.0781 0.20275 0.20001 0.19941 0.21563-3e-3 0.24064-0.0132 0.62189-9e-3 0.40002 0.71795-1.9532 1.1866-2.4001 1.2099-0.7094-0.28253-0.78128-0.18946-0.74689 3e-3 -0.56564 0.0564-1.2657 3e-3 -2.2844-0.0399-1.5438-0.0631-3.1532-0.30911-4.6251-0.66477-0.41252-0.10308-2.5876-1.6287-2.6313-2.1372-0.025-0.32242 0.31563-0.55509 0.59062-0.63485 1.5251 0.11306 4.7126-0.42546 6.3814-1.273 0.91565-0.42214 1.5313-0.97721 2.3157-1.5788 0.48752-0.37893 1.3282-0.89411 2.1563-1.283zm10.641 4.1747c0.72502 0.0698 1.8969-0.55174 2.2188-0.41547 0.66251 0.46865 1.2438 1.1899 1.7969 1.8015-0.62188 0.33569-1.3719 0.90074-2.0657 0.96722-0.53126 0.0498-0.91253-0.0863-1.2907-0.0498-0.39688 0.0399-0.87504 0.10975-1.3344 0.0498-0.63127-0.0831-1.2563-0.43209-1.6344-0.71795-0.87189-0.21938-1.0969-0.31908-1.4375-0.45536-0.15-0.0598-0.39062-0.10633-0.325-0.36229-0.11876-0.23268-0.29375-0.49858-0.2375-0.74455 0.0313-0.12961 0.36249 0.19612 0.56563 0.27922 0.16876 0.0631 0.19688-0.13961 0.0687-0.22935-0.1875-0.1263-0.35002-0.1961-0.49689-0.27921-0.19375-0.10297-0.0813-0.45869 0.0469-0.61822 0.1125-0.12299 0.30001-0.25261 0.45001-0.23932 0.29376 0.1961 0.6219 0.51187 0.90315 0.84756 0.0968 0.0665 0.19064 0.0399 0.23126-0.0232 0.0344-0.0598 0.0187-0.14626-0.0281-0.21273-0.23751-0.24596-0.48127-0.54178-0.72814-0.70464 0.3375-0.0698 0.75001 0.03 1.0906 0.11306 0.23751 0.30247 0.39688 0.56505 0.79689 0.92069 0.0687 0.0631 0.21562-0.10308 0.16876-0.16619l-0.6219-0.72125c0.26877 0.0465 0.52502 0.10633 0.7594 0.18944 0.22188 0.23932 0.3375 0.78442 1.1032 0.77113zm-15.297-18.972c0.6594-0.52847 0.59689-2.2502 0.60314-3.1643-0.95003 0.63484-1.6469 1.3162-1.6813 2.5959-1.0219 1.6885-3.5501 3.028-6.0939 4.1814-2.8688 1.2996-5.2876 3.0945-5.1751 5.1586 0.0969 2.3599 1.7438 4.1481 6.3627 2.689-0.0376 2.5327-2.3188 3.8955-5.0408 3.9852-0.73439 2.2402-1.9563 4.0717-2.9313 6.1624-0.11251 0.23931-0.12189-0.66478-0.69065-1.0437-0.49064-0.32574-1.0782-0.28252-1.2469-0.16619-0.42813 0.29582 0.6094 0.811 0.38751 1.0836-0.13751 0.16951-0.44063-0.52517-0.61251-0.5451-0.0813-0.0133-0.14064 0.0365-0.20313 0.17949-0.14063 0.3224-0.0219 0.42542 0.10937 0.59494 0.11875 0.15291 0.46252 0.54511 0.41876 0.71464-0.10624 0.40882-0.70313-0.80769-0.73126-0.67806-0.24688 1.1035 0.65939 2.4962 2.1032 2.8252 3.2345 0.74121 5.0064-4.7963 6.6096-5.7436 6.0376-0.462 8.2815-0.95061 10.207-3.0646 1.3407-0.65813 2.7094-1.5157 4.0532-2.2668 0.42188-0.25262 0.66877-0.10633 0.30625 0.0831-0.62188 0.37891-1.1406 0.65812-1.8313 1.1068 1.475 0.78109 6.0845 3.5465 11.972 3.3105-0.56877-0.48862-1.15-1.1999-1.8032-1.6619-1.0938-0.77445-2.2282-1.2797-3.3282-2.0442-0.0813-0.0531-0.15313-0.0931-0.13438-0.15954 6e-3 -0.0332 0.10625-0.0232 0.21251 0.0332 1.1438 0.60161 2.1219 1.1002 3.3126 1.9046 0.79064 0.53846 1.4688 1.3262 2.7813 2.5493 1.8782 1.7517 4.0157 4.8528 6.0908 5.1619 1.3375 0.19941 2.5688 0.52183 4.0345 0.45535 0.64063-0.03 1.4375-0.25594 1.5844-0.61158 0.0437-0.0963 0.05-0.11307-0.0625-0.1263-0.27814-0.0332-0.50314-0.0566-0.81565-0.0531-0.36875 3e-3 -0.34064-0.23931-0.0469-0.38889 0.16875-0.0831 0.64064 0.12963 0.93752 0.11306 0.4469-0.02 0.50002-0.30246 0.50627-0.44872 0.0157-0.37891-0.25626-0.51851-0.51564-0.5318-0.79689-0.0432-1.4782 0.15955-1.3063-0.20276 0.0687-0.14624 1.5438-0.0132 1.4438-0.21272-0.21251-0.43209-0.87503-0.88414-1.325-0.9074-0.55001-0.03-1.3313 0.16286-1.925 0.11306-0.33126 9e-3 -1.2594-0.16288-1.9094-0.53513 0.0781 0.226 0.12187 0.28584 0.32812 0.61157 0.10937 0.16619 0.15937 0.34236 0.0969 0.43209-0.025 0.0332-0.10625-0.0731-0.275-0.33569-0.17814-0.27921-0.37189-0.59164-0.52191-0.86087-1.8813-0.9905-1.6532-1.8348-2.6126-3.0413-1.8376-2.3001-2.5751-4.3309-3.3876-6.7075-0.1125-0.31908-0.22188-0.61822-0.05-0.65478 0.11876-0.0232 0.24063 0.31243 0.30002 0.48526 0.70001 1.8015 1.4844 3.8723 2.525 5.6538l1.5719-1.868c0.0969-0.10307 0.28438-0.22601 0.30938-0.15621 0.0157 0.0465 0.025 0.15954-0.13749 0.33237-0.49378 0.53182-1.0844 1.2664-1.6344 1.8481 0.11876 0.26257 0.35 0.58831 0.61253 0.91404 0.25624 0.31577 1.6188-3.6795 2.4719-6.5911 0.32813-1.1168 0.72814-2.1405 1.0188-2.2602 0.17812-0.0698 0.73751 0.67807 1.2188 1.2032 0.11563 0.1263 0.33752 0.10974 0.49064 0.10297 0.33126-9e-3 0.65001-0.40218 0.92815-0.67807 0.05-0.05 0.0656-0.17616-0.0406-0.19942-0.40002-0.0764-0.94377-0.02-1.1938-0.2094-0.1625-0.11965-0.17813-0.30579-0.15938-0.46534 0.0313-0.23931 0.13438-0.4321 0.40002-0.4321 0.21874-3e-3 0.73126 0.708 1.1782 0.83097 0.39375 0.10974 1.8375-1.0437 2.0938-1.2365 0.0594-0.0466-0.12188-0.27921-0.18127-0.36562-1.3-2.0176-2.5313-3.4036-3.8282-4.3143-0.45625-0.31909-1.1156-0.70133-1.975-0.6415-0.30938-0.57502-1.2219-1.0038-1.9407-1.1467-0.0969-0.0267-0.25313 0.02-0.29689 0.0564-0.17187 0.14292 0.11876 0.93732-0.12187 1.2332-0.0875 0.11306-0.62815-0.0267-0.83128 0.0431-1.3156 0.46533-3.3407 1.7816-4.6095 3.008-1.4782 1.4259-2.8751 2.5793-3.8313 2.8684-2.0282 0.61159-11.919-0.71129-14.25-0.43873-3.0813 0.35897-4.5564 2.32-6.2533 2.6391-0.71876 0.11966-1.2719 0.0964-1.9938 0.0698-1.1938-0.0499-1.5938-0.80435-1.5282-1.4326 0.31875-3.0446 4.1251-4.1249 5.4189-4.7497 2.2313-1.0736 4.1532-2.4663 6.0658-3.9919z" fill="#ff0" fill-rule="evenodd"/>
<path d="m798.26 410.03h-770.94v-388.67h770.94zm8.9009 9.1114h-788.71v-406.92h788.71z" fill="#fae013" fill-rule="evenodd"/>
<path d="m390.79 107.94c-2.0652-0.014-7.428 1.5347-7.428 8.1017 0 7.1182 7.7525 15.342 46.709 12.167-1.8992-0.58691-3.0396-1.5094-4.2048-2.9638-10.128 2.302-39.993 1.5137-40.062-9.1475-0.0284-4.3674 3.2828-5.6201 5.1572-5.6027 5.286 0.0491 5.8452 3.7688 5.8452 5.6692 0 3.0522-5.3366 5.0341-6.7527 4.7127 0.68116 0.36308 2.781 1.4525 3.776 1.7569 2.416-0.33889 5.5458-3.5128 5.5458-6.4888 0-1.894-1.3105-8.1553-8.5863-8.2044z" fill="#fff" fill-rule="evenodd"/>
<path d="m447.27 114.1a1.7538 1.6744 0 0 1-2.4042-0.58163 1.7538 1.6744 0 0 1 0.60907-2.2954 1.7538 1.6744 0 0 1 2.4042 0.58139 1.7538 1.6744 0 0 1-0.60881 2.2955" fill="#fffeff" fill-rule="evenodd" stroke-width="0" style="paint-order:stroke fill markers"/>
<path d="m434.55 118.85a1.7538 1.6744 0 0 1-2.4042-0.58163 1.7538 1.6744 0 0 1 0.60907-2.2954 1.7538 1.6744 0 0 1 2.4042 0.58138 1.7538 1.6744 0 0 1-0.6088 2.2955" fill="#fffeff" fill-rule="evenodd" stroke-width="0" style="paint-order:stroke fill markers"/>
<path d="m445.92 130.09a1.5894 1.5175 0 0 1-2.1788-0.52711 1.5894 1.5175 0 0 1 0.55198-2.0803 1.5894 1.5175 0 0 1 2.1789 0.52689 1.5894 1.5175 0 0 1-0.55174 2.0803" fill="#fffeff" fill-rule="evenodd" stroke-width="0" style="paint-order:stroke fill markers"/>
</g>
</svg>
