<svg xmlns="http://www.w3.org/2000/svg" viewBox="0 0 2400 1600"><rect width="2400" height="1600" style="fill:#fff"/><path d="M770.4435,829.9871H746.4489a5.4925,5.4925,0,0,1-5.2253-5.5012V738.5978c0-22.7142-3.9039-28.4721-21.3928-28.4721-8.9017,0-19.3428,3.1561-30.3356,8.9042v105.456a5.4508,5.4508,0,0,1-5.1842,5.5012H660.2656a5.4642,5.4642,0,0,1-5.1939-5.5012V636.4842a5.2014,5.2014,0,0,1,5.1939-5.1745H684.311a5.1883,5.1883,0,0,1,5.1842,5.1745v54.0737c9.9376-5.9926,20.9305-9.64,39.4552-9.64,36.0426,0,46.7184,25.592,46.7184,57.68v85.8881a5.484,5.484,0,0,1-5.2253,5.5012" style="fill:#0771b8"/><path d="M901.3558,829.9847H879.1765a5.2267,5.2267,0,0,1-5.2569-5.2157v-4.16c-11.9779,7.3165-24.2922,11.4866-36.8219,11.4866-21.6493,0-45.1211-8.3911-45.1211-43.606v-1.0238c0-29.8128,18.2585-45.1815,63.6966-45.1815h16.453V730.7682c0-16.9564-7.602-21.1168-23-21.1168a417.8532,417.8532,0,0,0-42.57,2.06h-1.2706c-2.57,0-4.6929-.7575-4.6929-4.3952v-16.76c0-2.8681,1.5368-4.6833,4.94-5.482a221.4225,221.4225,0,0,1,43.5939-4.1483c37.1076,0,57.4548,16.4433,57.4548,49.843V824.769a5.2121,5.2121,0,0,1-5.2254,5.2157m-29.23-64.7519h-16.453c-23.76,0-28.9948,7.5827-28.9948,22.2326v1.0238c0,12.7984,5.7482,16.1892,18.791,16.1892,9.4148,0,19.0548-3.1246,26.6568-7.3044Z" style="fill:#0771b8"/><path d="M1044.626,829.9871h-24.0647a5.2385,5.2385,0,0,1-5.2157-5.2253v-5.9926c-13.5753,8.9017-24.27,13.0525-40.9606,13.0525-13.1154,0-24.5778-3.3811-32.1388-10.9929-9.6738-9.6109-13.0742-25.8388-13.0742-47.4784V688.2126a5.4566,5.4566,0,0,1,5.2156-5.4819h24.0139a5.5,5.5,0,0,1,5.2569,5.4819V773.35c0,13.0332,1.0044,20.5941,5.9732,25.04,3.6764,3.1657,8.1248,4.7123,16.1964,4.7123,9.6617,0,22.2229-6.5057,29.5176-10.47v-104.42a5.4924,5.4924,0,0,1,5.2157-5.4819h24.0647a5.4828,5.4828,0,0,1,5.1963,5.4819V824.7618a5.2282,5.2282,0,0,1-5.1963,5.2253" style="fill:#0771b8"/><path d="M1146.8,830.2485c-5.2762,1.0238-18.5248,1.8539-24.2511,1.8539-27.458,0-37.0882-13.74-37.0882-41.556V708.5937l-16.5159-3.6667c-2.9092-.5324-5.2665-2.367-5.2665-5.2374v-11.7a5.2492,5.2492,0,0,1,5.2665-5.2544h16.5159V661.3114c0-2.8584,2.3573-4.7026,5.2036-5.1746l24.2922-4.18h1.0359c2.3864,0,4.1991,1.2707,4.1991,3.8942v26.8844h25.5847a5.2361,5.2361,0,0,1,5.2036,5.2544v15.3687a5.2713,5.2713,0,0,1-5.2036,5.235h-25.5847v81.9527c0,13.0622.8012,14.662,10.1942,14.662h15.9012c3.3617,0,5.4625,1.3,5.4625,3.8724v16.4434c0,2.6429-1.5683,4.0563-4.9494,4.7243" style="fill:#0771b8"/><path d="M1210.8549,832.0976a151.6027,151.6027,0,0,1-38.4919-5.2544c-3.1246-.789-4.94-2.868-4.94-6.0144V805.2036a4.3423,4.3423,0,0,1,4.3855-4.1992c.5543,0,.83-.0218,1.1061,0,47.14,7.8078,60.284,4.1072,60.284-9.652,0-9.4657-13.8415-13.7907-28.944-20.5917-27.2619-12.3458-40.2006-21.8138-40.2006-46.4643,0-25.7662,17.6728-43.3785,51.1838-43.3785,15.923,0,29.4765,2.3259,42.7855,5.2157,3.1343.8181,4.7437,2.8269,4.7437,6.0144v15.163c0,3.0931-1.6094,4.9591-4.18,4.9591-.5639,0-.789.0194-1.077,0-39.9877-5.1842-59.0424-5.6053-59.0424,10.6734,0,10.6879,10.47,13.5971,30.9189,22.4988,29.5079,12.9,38.8308,25.7468,38.8308,42.2531,0,22.6827-10.3176,44.4022-57.3628,44.4022" style="fill:#0771b8"/><path d="M1696.6076,832.0976a152.3663,152.3663,0,0,1-38.4919-5.2544c-3.0931-.789-4.9059-2.868-4.9059-6.0144V805.2036a4.3478,4.3478,0,0,1,4.4146-4.1992c.4913,0,.789-.0218,1.0237,0,47.2413,7.8078,60.3567,4.1072,60.3567-9.652,0-9.4657-13.8633-13.7907-28.944-20.5917-27.2522-12.3458-40.2539-21.8138-40.2539-46.4643,0-25.7662,17.7551-43.3785,51.2177-43.3785,15.9617,0,29.5273,2.3259,42.8364,5.2157a5.6909,5.6909,0,0,1,4.69,6.0144v15.163c0,3.0931-1.578,4.9591-4.1894,4.9591-.501,0-.7794.0194-1.0141,0-40.0095-5.1842-59.0957-5.6053-59.0957,10.6734,0,10.6879,10.5112,13.5971,30.9625,22.4988,29.5055,12.9,38.7872,25.7468,38.7872,42.2531,0,22.6827-10.2958,44.4022-57.3943,44.4022" style="fill:#0771b8"/><path d="M1304.3523,762.6432h-26.514c-2.8584,0-5.206-1.8564-5.206-4.6833V741.4948a5.0275,5.0275,0,0,1,5.206-4.9978h26.514a4.781,4.781,0,0,1,4.9591,4.9978V757.96c0,2.8269-2.0282,4.6833-4.9591,4.6833" style="fill:#0771b8"/><path d="M1439.3258,825.2724a220.6683,220.6683,0,0,1-52.5174,6.8228c-41.9844,0-62.4042-24.8659-62.4042-65.5385V746.4443c0-40.7041,20.42-65.5288,62.4042-65.5288a202.68,202.68,0,0,1,25.0813,1.8128V636.4818a5.2235,5.2235,0,0,1,5.2035-5.1648H1441.1a5.23,5.23,0,0,1,5.2253,5.1648V818.2246c0,3.9136-1.0358,5.48-6.9994,7.0478M1411.89,710.9535a220.7077,220.7077,0,0,0-25.0813-1.8128c-22.4359,0-27.94,15.9012-27.94,37.3036v20.1124c0,21.3613,5.5037,37.3133,27.94,37.3133,9.4149,0,20.1028-.77,25.0813-1.8031Z" style="fill:#0771b8"/><path d="M1583.25,768.3744h-85.1281v.77c0,15.1727,6.2491,33.1432,31.3207,33.1432,19.0959,0,37.0882-1.5055,48.05-2.5607h.77c2.6333,0,4.7317,1.28,4.7317,3.8918v17.213c0,4.18-.8181,6.0143-5.5013,6.8445-16.9975,3.1028-27.1385,4.4242-50.6417,4.4242-26.1147,0-63.1932-14.1174-63.1932-65.5481V747.2381c0-40.7258,22.7239-66.3177,62.67-66.3177,40.2031,0,62.138,27.395,62.138,66.3177v14.57c0,4.1991-1.5877,6.5662-5.2157,6.5662m-29.5369-25.5823c0-20.3786-11.2083-32.1194-27.3854-32.1194-16.2182,0-27.99,11.4963-27.99,32.1194v1.0649h55.3758Z" style="fill:#0771b8"/><path d="M1635.8952,762.6432h-26.514c-2.89,0-5.2448-1.8564-5.2448-4.6833V741.4948a5.042,5.042,0,0,1,5.2448-4.9978h26.514a4.822,4.822,0,0,1,4.9591,4.9978V757.96a4.6128,4.6128,0,0,1-4.9591,4.6833" style="fill:#0771b8"/><path d="M1886.0275,768.3744H1800.95v.77c0,15.1727,6.22,33.1432,31.2892,33.1432,19.108,0,37.0882-1.5055,48.03-2.5607h.8108c2.6115,0,4.6929,1.28,4.6929,3.8918v17.213c0,4.18-.8205,6.0143-5.5037,6.8445-16.9758,3.1028-27.0973,4.4242-50.6611,4.4242-26.0759,0-63.1544-14.1174-63.1544-65.5481V747.2381c0-40.7258,22.7045-66.3177,62.7019-66.3177,40.1716,0,62.0774,27.395,62.0774,66.3177v14.57c0,4.1991-1.5683,6.5662-5.206,6.5662m-29.5248-25.5823c0-20.3786-11.22-32.1194-27.3466-32.1194-16.2183,0-28,11.4963-28,32.1194v1.0649h55.3467Z" style="fill:#0771b8"/><path d="M1939.4138,663.1217H1914.047a5.482,5.482,0,0,1-5.4916-5.2157V634.957a5.51,5.51,0,0,1,5.4916-5.2156h25.3668a5.2487,5.2487,0,0,1,5.1745,5.2156v22.949a5.2232,5.2232,0,0,1-5.1745,5.2157m-.7987,166.8654H1914.548a5.51,5.51,0,0,1-5.2036-5.5012V687.9972a5.2575,5.2575,0,0,1,5.2036-5.2665h24.0671a5.2271,5.2271,0,0,1,5.1842,5.2665V824.4859a5.4781,5.4781,0,0,1-5.1842,5.5012" style="fill:#0771b8"/><path d="M2081.75,829.9871h-24.0139a5.5177,5.5177,0,0,1-5.2568-5.5012V739.4086c0-22.7457-2.06-29.2829-22.15-29.2829-8.8824,0-18.5659,3.6885-29.4958,9.4173V824.4859a5.4921,5.4921,0,0,1-5.2665,5.5012h-23.9849a5.4741,5.4741,0,0,1-5.2036-5.5012V687.9972a5.2249,5.2249,0,0,1,5.2036-5.2665h22.7045a5.2309,5.2309,0,0,1,5.2254,5.2665v5.4408c15.1315-9.6835,25.0595-12.52,42.26-12.52,37.611,0,45.2034,25.2749,45.2034,58.4907v85.0773a5.4841,5.4841,0,0,1-5.2254,5.5012" style="fill:#0771b8"/><path d="M2223.9164,768.3744h-85.2007v.77c0,15.1727,6.312,33.1432,31.34,33.1432,19.079,0,37.0882-1.5055,48.0714-2.5607h.8108c2.5921,0,4.6929,1.28,4.6929,3.8918v17.213c0,4.18-.8423,6.0143-5.5037,6.8445-16.9758,3.1028-27.18,4.4242-50.6514,4.4242-26.105,0-63.1932-14.1174-63.1932-65.5481V747.2381c0-40.7258,22.7021-66.3177,62.69-66.3177,40.1716,0,62.1186,27.395,62.1186,66.3177v14.57c0,4.1991-1.5877,6.5662-5.1745,6.5662M2194.37,742.7921c0-20.3786-11.22-32.1194-27.3974-32.1194-16.2085,0-27.9493,11.4963-27.9493,32.1194v1.0649H2194.37Z" style="fill:#0771b8"/><path d="M699.3868,970.3917c-3.3109.7891-12.9605,1.5369-18.8418,1.5369-14.4248,0-25.6355-3.8748-25.6355-22.7142V890.8762a2.2479,2.2479,0,0,1,2.2461-2.2242h10.971a2.2417,2.2417,0,0,1,2.2243,2.2242v58.3382c0,7.314,2.2121,9.5165,8.6476,9.5165h20.3883a2.2291,2.2291,0,0,1,2.2121,2.2436v7.0793c0,1.5368-.5542,2.0088-2.2121,2.3379" style="fill:#0771b8"/><path d="M770.4725,970.3917c-3.5553.5736-7.8876,1.5369-21.0854,1.5369-14.403,0-25.6112-3.8748-25.6112-22.7142V910.507c0-18.8514,11.2082-22.736,25.6112-22.736,13.1978,0,17.53,1.0044,21.0854,1.5587,1.67.2251,2.2243.7793,2.2243,2.3259v7.0986a2.2481,2.2481,0,0,1-2.2243,2.2242h-22.62c-6.4258,0-8.7614,2.2122-8.7614,9.5286v11.9658h30.04a2.2126,2.2126,0,0,1,2.2121,2.2243v7.98a2.2187,2.2187,0,0,1-2.2121,2.2242h-30.04v14.3135c0,7.314,2.3356,9.5165,8.7614,9.5165h22.62a2.2585,2.2585,0,0,1,2.2243,2.2436v7.0793c0,1.5368-.5543,2.1225-2.2243,2.3379" style="fill:#0771b8"/><path d="M867.8278,971.9286a183.361,183.361,0,0,1-21.8332-1.3239c-1.8951-.3364-2.8995-1.2174-2.8995-3.4319V892.5462c0-2.2121,1.0044-3.1052,2.8995-3.4416a185.5909,185.5909,0,0,1,21.8332-1.3336c22.1915,0,34.8229,11.9683,34.8229,33.9443v16.2908c0,21.9446-12.6314,33.9225-34.8229,33.9225m19.5364-50.2133c0-16.63-8.4419-20.9716-19.5364-20.9716-4.1193,0-6.9776.2347-9.3035.3485v57.537c2.3259.1017,5.1842.3486,9.3035.3486,11.0945,0,19.5364-4.3251,19.5364-20.9717Z" style="fill:#0771b8"/><path d="M977.6306,970.3942c-3.5651.5639-7.8974,1.5368-21.083,1.5368-14.4272,0-25.604-3.8724-25.604-22.7239V910.51c0-18.8515,11.1768-22.7457,25.604-22.7457,13.1856,0,17.5179,1.0165,21.083,1.6,1.6409.1936,2.2145.7478,2.2145,2.2944v7.1011a2.2244,2.2244,0,0,1-2.2145,2.2121h-22.632c-6.433,0-8.7589,2.2242-8.7589,9.5383v11.9658H976.268a2.2393,2.2393,0,0,1,2.2435,2.2242v7.982a2.2451,2.2451,0,0,1-2.2435,2.2218H946.24v14.3038c0,7.3238,2.3259,9.5286,8.7589,9.5286h22.632a2.2438,2.2438,0,0,1,2.2145,2.2436v7.0793c0,1.5369-.5736,2.0984-2.2145,2.3356M972.5093,867.828,959.435,881.5655c-.8907.9947-1.3312,1.4449-2.6623,1.4449h-9.5383c-.6777,0-.9947-.3268-.9947-.7673a1.592,1.592,0,0,1,.4308-1.1181l10.5427-13.297c1.0044-1.2392,1.4231-1.6917,2.8995-1.6917h11.639c.7576,0,1.1884.3485,1.1884.7986a1.3018,1.3018,0,0,1-.4308.8931" style="fill:#0771b8"/><path d="M1033.95,940.3465c-2.8777,0-7.3237-.3388-9.865-.45v28.9415a2.1405,2.1405,0,0,1-2.1105,2.2243H1010.9a2.2291,2.2291,0,0,1-2.2242-2.2243V892.5511c0-2.2218,1.3117-2.9915,3.536-3.3182a150.2287,150.2287,0,0,1,21.7388-1.4667c17.07,0,31.9451,6.0144,31.9451,25.6355v.9826c0,19.672-14.8749,25.9622-31.9451,25.9622m16.63-26.9448c0-9.3132-5.5424-12.8783-16.63-12.8783-2.3234,0-7.8683.2251-9.865.45v26.3712c1.7716.1428,7.9917.3486,9.865.3486,11.9682,0,16.63-4.4461,16.63-13.3091Z" style="fill:#0771b8"/><path d="M1145.0405,971.0573H1133.3a2.3369,2.3369,0,0,1-2.12-1.8951l-5.102-21.0563h-25.5023l-5.0923,21.0563a2.3462,2.3462,0,0,1-2.12,1.8951h-11.7408a1.9035,1.9035,0,0,1-1.9991-1.8951,5.27,5.27,0,0,0,.1041-.5445l18.1738-69.5246c2.6744-10.3177,10.6661-11.3221,15.4195-11.3221,4.7752,0,12.7572,1.0044,15.4292,11.3221l18.1666,69.5246c0,.2251.1331.4211.1331.5445a1.919,1.919,0,0,1-2.0089,1.8951m-29.9363-68.5226c-.3291-1.3409-.6462-1.791-1.7837-1.791-1.1061,0-1.4231.45-1.7716,1.791l-7.97,32.92h19.5171Z" style="fill:#0771b8"/><path d="M1229.8927,971.0646h-13.5341c-1.2174,0-1.6579-1.1061-2.2121-2.2218l-15.9835-29.6217h-1.5369c-2.9091,0-7.3455-.3364-9.8868-.45v30.0719a2.1375,2.1375,0,0,1-2.0983,2.2218h-11.0752a2.2516,2.2516,0,0,1-2.2436-2.2218V892.5535c0-2.2218,1.3409-2.9794,3.5651-3.3279a150.2975,150.2975,0,0,1,21.7388-1.4546c17.0605,0,31.9452,6.1064,31.9452,25.06v1.0238c0,11.731-5.891,19.0765-15.0081,22.6029l17.4259,32.3856a1.4876,1.4876,0,0,1,.2154.9,1.2171,1.2171,0,0,1-1.3118,1.3215m-16.6466-58.2341c0-8.3185-5.5448-11.8545-16.62-11.8545-2.3137,0-7.8779.2154-9.8868.4405v24.9481c1.7838.1017,7.9918.3268,9.8868.3268,11.3947,0,16.62-3.1149,16.62-12.8371Z" style="fill:#0771b8"/><path d="M1304.5024,901.5254H1285.087v67.31a2.2208,2.2208,0,0,1-2.2218,2.2242h-10.9735a2.2432,2.2432,0,0,1-2.2243-2.2242v-67.31h-19.3936a2.0581,2.0581,0,0,1-2.2339-1.9773v-8.79a2.1672,2.1672,0,0,1,2.2339-2.1007h54.2286a2.154,2.154,0,0,1,2.2121,2.1007v8.79a2.0443,2.0443,0,0,1-2.2121,1.9773" style="fill:#0771b8"/><path d="M1375.54,970.3917c-3.5457.5736-7.8587,1.5369-21.0346,1.5369-14.4345,0-25.6427-3.8748-25.6427-22.7142V910.507c0-18.8514,11.2082-22.736,25.6427-22.736,13.1759,0,17.4889,1.0044,21.0346,1.5587,1.68.2251,2.2242.7793,2.2242,2.3259v7.0986a2.229,2.229,0,0,1-2.2242,2.2242h-22.6005c-6.4355,0-8.7493,2.2122-8.7493,9.5286v11.9658h30.038a2.2291,2.2291,0,0,1,2.2242,2.2243v7.98a2.2353,2.2353,0,0,1-2.2242,2.2242H1344.19v14.3135c0,7.314,2.3138,9.5165,8.7493,9.5165H1375.54a2.2394,2.2394,0,0,1,2.2242,2.2436v7.0793c0,1.5368-.5446,2.1225-2.2242,2.3379" style="fill:#0771b8"/><path d="M1475.9033,971.06h-11.1792a2.1087,2.1087,0,0,1-1.7934-2.2218V917.2717c0-.7672-.1016-1.1158-.3267-1.1158-.1138,0-.3268.3486-.5543.6656l-10.654,21.1774a3.96,3.96,0,0,1-3.5239,1.895h-11.23a4.0093,4.0093,0,0,1-3.5336-1.895L1422.36,916.8215c-.2154-.317-.44-.6656-.5518-.6656-.2275,0-.3485.3486-.3485,1.1158v51.5662c0,1.1255-.77,2.2218-1.7523,2.2218h-11.1985a1.6932,1.6932,0,0,1-1.8951-1.67V893.1029a4.4593,4.4593,0,0,1,4.4267-4.446h9.1074a4.5923,4.5923,0,0,1,4.0879,2.6744l16.7506,33.9321c.5736,1.0044.789,1.5587,1.22,1.5587.45,0,.6558-.5543,1.22-1.5587l16.7506-33.9321a4.6147,4.6147,0,0,1,4.0976-2.6744h9.0977a4.47,4.47,0,0,1,4.4461,4.446V969.39a1.7209,1.7209,0,0,1-1.9145,1.67" style="fill:#0771b8"/><path d="M1554.9856,970.3917c-3.5554.5736-7.8707,1.5369-21.066,1.5369-14.4151,0-25.6234-3.8748-25.6234-22.7142V910.507c0-18.8514,11.2083-22.736,25.6234-22.736,13.1953,0,17.5106,1.0044,21.066,1.5587,1.6579.2251,2.2315.7793,2.2315,2.3259v7.0986a2.2431,2.2431,0,0,1-2.2315,2.2242h-22.6222c-6.4258,0-8.7614,2.2122-8.7614,9.5286v11.9658h30.0718a2.2329,2.2329,0,0,1,2.2122,2.2243v7.98a2.2392,2.2392,0,0,1-2.2122,2.2242H1523.602v14.3135c0,7.314,2.3356,9.5165,8.7614,9.5165h22.6222a2.2535,2.2535,0,0,1,2.2315,2.2436v7.0793c0,1.5368-.5736,2.1225-2.2315,2.3379" style="fill:#0771b8"/><path d="M1643.9208,971.06h-11.2179c-2.6551,0-4.9906,0-6.7623-3.9958l-24.59-53.9817c-.3267-.7067-.6873-.9221-1.0141-.9221-.3291,0-.5542.2154-.5542.9221v55.7557a2.1361,2.1361,0,0,1-2.0984,2.2218h-9.4366a2.2312,2.2312,0,0,1-2.2146-2.2218v-75.735a4.4656,4.4656,0,0,1,4.4267-4.446h11.9779c2.3259,0,3.5433.6655,4.8962,3.5553l25.8291,56.9949c.2154.5543.5639.881.9125.881.2033,0,.5518-.3267.5518-1.0044V890.7576a2.0224,2.0224,0,0,1,2.0911-2.1007h9.5479a2.0214,2.0214,0,0,1,2.0694,2.1007v75.8561a4.4616,4.4616,0,0,1-4.4146,4.446" style="fill:#0771b8"/><path d="M1726.5439,901.5254h-19.4154v67.31a2.2411,2.2411,0,0,1-2.2218,2.2242h-10.9831a2.2417,2.2417,0,0,1-2.2243-2.2242v-67.31h-19.3936a2.05,2.05,0,0,1-2.2242-1.9773v-8.79a2.1586,2.1586,0,0,1,2.2242-2.1007h54.2382a2.1394,2.1394,0,0,1,2.2025,2.1007v8.79a2.03,2.03,0,0,1-2.2025,1.9773" style="fill:#0771b8"/><path d="M490.8323,687.5253c-54.5577-54.5045-99.248-94.9012-112.4844-94.9012-13.2994,0-57.98,40.3967-112.5038,94.9012-54.5383,54.577-94.935,99.2286-94.935,112.5352,0,13.29,40.3967,57.917,94.935,112.4529,54.5359,54.4972,99.2044,94.8625,112.5038,94.8625,13.2364,0,57.8662-40.3653,112.4844-94.8625,54.4826-54.5359,94.86-99.1632,94.86-112.4529,0-13.3066-40.3774-57.9582-94.86-112.5352M384.3405,856.4213a22.058,22.058,0,0,1,6.4548,15.572l-.06,51.8833a10.4287,10.4287,0,0,1-3.0447,7.2947c-2.8583,2.9406-6.29,4.8865-11.4938,2.1613-9.928-5.1939-35.9725-28.8908-60.8891-53.8389-27.2014-26.9037-53.5824-55.867-57.4959-65.1609-4.6324-9.3543-6.4549-16.77-1.4764-27.4168,3.2165-7.6117,24.4665-31.0327,46.8225-53.5218,20.05-20.1632,41.6456-39.5762,52.0358-47.1178,8.6573-6.2806,22.2422-6.1378,30.3453,2.2848,7.12,7.2946,9.0058,18.1036,4.4775,26.6374-6.0846,11.7117-66.0419,70.2943-66.0419,82.64,0,13.0937,48.41,46.4716,60.3664,58.5826" style="fill:#7cb32d"/></svg>