<svg xmlns="http://www.w3.org/2000/svg" viewBox="0 0 2400 1600"><rect width="2400" height="1600" style="fill:#fff"/><polygon points="465.844 433.942 360.16 494.969 360.16 688.199 579.283 859.654 360.16 1031.109 360.16 1105.051 465.844 1166.058 782.86 983.057 782.86 616.982 465.844 433.942" style="fill:#1d1d1b"/><polygon points="148.824 983.033 237.418 1034.209 465.802 859.651 148.824 616.979 148.824 983.033" style="fill:#e30613"/><path d="M867.7474,771.6264c0-74.2812,52.2046-127.8927,125.4347-127.8927,58.1627,0,101.6114,33.6371,112.823,83.044l-42.7464,10.8581c-9.1093-33.6371-34.686-53.96-70.0766-53.96-46.9511,0-79.8906,35.3906-79.8906,87.9509,0,52.5512,32.9395,87.5952,79.8906,87.5952,43.4418,0,70.0766-23.1278,70.772-55.3649H997.0378V767.4218H1108.454v26.9767c0,64.1185-43.7953,105.1115-115.2719,105.1115C919.952,899.51,867.7474,845.9077,867.7474,771.6264Z" style="fill:#e30613"/><path d="M1138.1918,632.522h46.2464v44.5h-46.2464Zm1.7534,76.0348h43.4419v185.7h-43.4419Z" style="fill:#e30613"/><path d="M1222.264,708.5568H1263.61v17.8651h.6954C1276.9243,713.108,1294.79,705.05,1316.52,705.05c10.507,0,19.6186,1.7535,29.779,4.907l-9.4581,39.593a85.2887,85.2887,0,0,0-26.279-3.8558c-26.9837,0-44.8488,18.2208-44.8488,55.0092v93.5533H1222.264Z" style="fill:#e30613"/><path d="M1350.1246,801.4078c0-55.3581,43.451-98.1045,103.3672-98.1045,60.2627,0,103.358,42.7464,103.358,98.1045,0,55.7115-43.0953,98.1022-103.358,98.1022C1393.5756,899.51,1350.1246,857.1193,1350.1246,801.4078Zm163.2742,0c0-35.0372-24.17-59.9162-59.907-59.9162-35.7395,0-59.9162,24.879-59.9162,59.9162,0,35.0348,24.1767,59.9138,59.9162,59.9138C1489.229,861.3216,1513.3988,836.4426,1513.3988,801.4078Z" style="fill:#e30613"/><path d="M1588.3387,708.5568h42.0442v19.272h.7023c15.0674-15.772,38.8906-24.5255,64.1208-24.5255,52.9069,0,88.644,33.6348,88.644,82.6882v108.265h-43.4487V792.645c0-31.5348-19.9744-50.4511-52.2046-50.4511-33.6371,0-56.4092,20.67-56.4092,50.8046v101.258h-43.4488Z" style="fill:#e30613"/><path d="M1813.9412,801.4078c0-56.06,41.6953-98.1045,98.46-98.1045,25.9233,0,49.0511,8.0581,64.1185,22.7721h.7046V638.48h43.4419V894.2565h-40.993V874.6356h-.7023c-14.3651,16.1208-37.4861,24.8744-64.8162,24.8744C1855.29,899.51,1813.9412,858.8659,1813.9412,801.4078Zm163.2834,11.9139V788.7961c0-26.2813-26.6371-47.3045-59.2207-47.3045-36.4349,0-60.6116,24.1767-60.6116,59.9162,0,36.44,23.8232,59.9138,60.9673,59.9138C1951.2921,861.3216,1977.2246,839.95,1977.2246,813.3217Z" style="fill:#e30613"/><path d="M2052.1623,802.11c0-58.1627,41.6975-98.8068,99.8579-98.8068,60.2651,0,99.1557,43.093,99.1557,99.1533V815.424H2095.2576c1.4069,29.0768,24.8813,48,58.865,48,25.23,0,43.4487-10.16,60.6184-31.5349l29.0791,25.9256c-20.6721,26.6279-49.7557,41.6953-89.3487,41.6953C2091.0529,899.51,2052.1623,860.9682,2052.1623,802.11ZM2208.43,783.8892c-2.4489-25.9325-25.221-44.5-55.7047-44.5-31.89,0-53.96,18.5674-56.7649,44.5Z" style="fill:#e30613"/><path d="M876.2255,1021.7762V952.7385h13.3151v56.7055h28.5045v12.3322Z" style="fill:#1d1d1b"/><path d="M970.8093,1021.7762V952.7385h43.6938v12.3227H984.1244v15.4856h27.6179v11.8359H984.1244v17.0613h30.3787v12.3322Z" style="fill:#1d1d1b"/><path d="M1139.2658,1021.7762V952.7385H1162.34A30.03,30.03,0,0,1,1173.49,954.81a29.3173,29.3173,0,0,1,9.47,6.1119,28.32,28.32,0,0,1,6.7493,10.7965,43.9277,43.9277,0,0,1,2.5163,15.441,48.008,48.008,0,0,1-2.561,16.4687,25.3147,25.3147,0,0,1-7.0009,10.7988,29.3757,29.3757,0,0,1-9.623,5.5734,34.59,34.59,0,0,1-11.29,1.7756Zm13.3151-12.3322h9.1691a21.0271,21.0271,0,0,0,6.2178-.8324,12.8667,12.8667,0,0,0,5.0278-3.1089,14.8608,14.8608,0,0,0,3.6475-6.8551,43.3927,43.3927,0,0,0,1.2816-11.4879q0-11.5455-4.2918-16.8214a13.8359,13.8359,0,0,0-11.2926-5.2771h-9.7594Z" style="fill:#1d1d1b"/><path d="M1246.9671,1021.7762V952.7385h43.6939v12.3227h-30.3764v15.4856h27.6085v11.8359h-27.6085v17.0613h30.3764v12.3322Zm14.9919-75.4531,7.9862-12.33h13.6114l-10.85,12.33Z" style="fill:#1d1d1b"/><path d="M1347.3689,1021.7762V952.7385H1375.38q10.5438,0,17.16,5.9614,6.5964,5.9721,6.6058,16.0289,0,10.0569-6.3636,15.98-6.3565,5.912-17.4023,5.9144H1360.684v25.1534ZM1360.684,984.3h14.498a10.3888,10.3888,0,0,0,7.2949-2.6174,8.9661,8.9661,0,0,0,2.86-6.9539q0-5.0266-2.9114-7.3466a11.238,11.238,0,0,0-7.2431-2.321h-14.498Z" style="fill:#1d1d1b"/><path d="M1486.0393,1021.7762l-3.9438-11.3445h-26.3362l-3.9414,11.3445h-13.2187l24.9488-69.0377h11.3444l24.8571,69.0377Zm-17.16-49.3144-9.3737,26.9289h18.8368l-9.2655-26.9289Z" style="fill:#1d1d1b"/><path d="M1551.526,1021.7762V952.7385H1579.53q10.66,0,17.2142,5.9614,6.5541,5.9721,6.5588,16.0289a20.0389,20.0389,0,0,1-14.5968,20.1185l14.6955,26.9289H1589.002l-13.9077-25.6473h-10.26v25.6473Zm13.308-37.18h13.6114q11.3409,0,11.3444-9.8676,0-9.9616-11.3444-9.964H1564.834Z" style="fill:#1d1d1b"/><path d="M1670.96,1021.7762v-56.715h-20.2172V952.7385h53.7566v12.3227h-20.2243v56.715Z" style="fill:#1d1d1b"/><path d="M1756.77,1021.7762V952.7385h43.6868v12.3227h-30.3788v15.4856h27.6179v11.8359h-27.6179v17.0613h30.3788v12.3322Z" style="fill:#1d1d1b"/><path d="M1857.1689,1021.7762V952.7385h13.7031l20.0268,44.7709h.1975l20.0174-44.7709h13.8089v69.0377h-13.0188V979.364h-.1975l-19.6246,42.4122h-2.1683l-19.634-42.4122h-.1975v42.4122Z" style="fill:#1d1d1b"/><path d="M1984.1021,1021.7762V952.7385h43.6845v12.3227H1997.41v15.4856h27.6179v11.8359H1997.41v17.0613h30.3764v12.3322Z" style="fill:#1d1d1b"/><path d="M2084.5016,1021.7762V952.7385h13.308l25.2522,45.2647h.1951V952.7385h13.4163v69.0377h-13.12l-25.5461-45.2719h-.1976v45.2719Z" style="fill:#1d1d1b"/><path d="M2209.1584,1021.7762v-56.715h-20.2149V952.7385h53.7543v12.3227h-20.2219v56.715Z" style="fill:#1d1d1b"/><rect x="876.2255" y="1134.3237" width="1366.4723" height="16.3636" style="fill:#e30613"/></svg>