<?xml version="1.0" encoding="UTF-8"?>
<svg version="1.1" viewBox="0 0 900 600" xmlns="http://www.w3.org/2000/svg" xmlns:cc="http://creativecommons.org/ns#" xmlns:dc="http://purl.org/dc/elements/1.1/" xmlns:rdf="http://www.w3.org/1999/02/22-rdf-syntax-ns#">
<metadata>
<rdf:RDF>
<cc:Work rdf:about="">
<dc:format>image/svg+xml</dc:format>
<dc:type rdf:resource="http://purl.org/dc/dcmitype/StillImage"/>
<dc:title/>
</cc:Work>
</rdf:RDF>
</metadata>
<rect width="900" height="300" fill="#fcd116"/>
<rect y="300" width="900" height="150" fill="#003893"/>
<rect y="450" width="900" height="150" fill="#ce1126"/>
<path d="m387.92 94.582 0.59775-0.36781h0.45972l0.046-0.5977-0.41379 0.41378-0.64368 0.32185-0.046 0.22988zm-18.069 21.793h0.27588l0.32184-0.55172 0.22986 0.18391 0.32184-0.0919 0.13797-0.13795 0.32184-0.18389v-0.32183l-0.50577-0.32188-0.32184-0.32183h-0.36783l-0.1839-0.41378-0.046 0.78162-0.64368 0.50576h0.45978v0.87356zm-4.7816 4.2299-0.27586 0.13794-0.092 0.27587-0.27586 0.0919-0.0919 0.27586h-0.73566v-0.45975l0.41379-0.13795 0.0919-0.36781 0.96552 0.18389zm-0.59769-2.1149h-0.68967l0.64367-0.2299 0.046 0.2299zm-3.9541 1.931 0.19635-0.45978 0.86111-0.046-0.70748 0.17061-0.34998 0.33515zm3.0805 0.13791h-0.59769v-0.50572l0.18386 0.27583 0.41383 0.22989zm-2.2529 1.1494h0.59768-0.59768zm0.59768-1.1035h0.4138l0.22989-0.36781-0.36705 0.27622-0.27664 0.0916zm-43.012 186-0.18162-0.0981 0.14724-0.51538 0.48593-0.21107 0.40248 0.23561-0.37301 0.0589-0.48102 0.53009zm32.667-160.67-0.18393-0.2299v-0.45978l0.55173-0.18392v0.22989l-0.27586 0.22989-0.0919 0.41382zm-3.9081 9.2874h0.55173l0.13794-0.36781-0.36783 0.0919-0.32184 0.27586zm-24.247 262.87-0.21363-0.42569-0.34512-0.43443-0.20127-0.11523-0.73611-0.0527-1.0067 0.036-0.28353 0.27363-0.13005 0.0465-0.85815 0.20649-0.80541 0.16692-0.56859-0.1956-0.85698-0.20395-0.69813-0.27389-0.82956-0.22482-0.67062-0.1827-0.14529 0.021-0.0553 0.0561-0.11064 0.11205-0.18663 0.5676-0.14529 0.077-0.85701-0.66648-0.18441-0.11691-0.0922-0.0585-0.49068-0.0282-0.50199-0.20431-0.5352-2.1128-0.0491-1.0652-0.23823-0.60639 0.16569-1.658 0.17742-0.80975-0.51526-0.69618-0.10661-0.26178-1.0756-0.59514-0.54153 0.15936-1.226-0.58525-0.16584-0.0842-0.7678-0.70847-0.7886-0.77848-0.76071-0.0704-0.4011-0.0772-0.36657-0.70833 0.73275-0.65887 0.69861-0.53259 0.0897-0.3716-0.1038-0.18943-0.43539-0.35376-0.13065-0.12573-0.30831-0.18554-0.78615-0.49887-0.15109-7e-3 -0.59837 0.29254-0.69258 0.018-0.18249-0.0513-0.47838 0.1716-0.6297 0.11392-0.2857 0.39915-0.12333 0.0726-0.8438 0.2879-0.13606 0.0186-0.64301-0.11928-0.96843-0.10284-2.0476-0.31089-0.65739-0.47676-0.31834-0.36463-0.49826-0.37859-1.2938-0.50472-0.75435-0.53979-1.1903-0.78525-1.0662-0.96058-0.41544-0.49535-0.20769-0.24772 3e-3 -0.0776-0.97019-0.81387-0.62958-0.23025-0.56025-0.27484-0.55602-0.13233-0.83943-0.1677-3.9756-3.411-0.16278-0.23696-0.69258-0.40249-0.17634-0.13632-1.1272-0.71336-0.10205 0.0282-0.44322-0.0895-0.24912-0.12612-0.67818-0.0276-0.43669-0.51879-0.74813-0.61674-0.72004-0.28699-0.52676-0.52557-0.50548-0.25923-0.51275-0.4344-0.4365-0.46268-0.0881-0.24771-0.3915-1.0565-0.17325-0.20323-1.1515-0.4451 0.0665-0.48051-0.1548-0.0827 0.0803-0.29587-0.35378-7e-3 -0.66756-0.75432-0.49401-0.18694-0.50736-0.45395 0.87453-0.31374-0.64755 0.0467-0.20694-0.51402-0.26703 0.58076-0.72096-0.53403-0.25368-0.3071-0.49398 0.0668 0.0934-0.61419 0.38721-0.0132 0.0935-0.44057-0.45393-0.0534 0.0132-0.30705-0.41387-0.0267 0.34713-0.41387-0.65424-0.34716-0.46729-0.0132-0.38718 0.50737-0.20027-0.48066-0.53407-0.26703-0.16019-0.33376-0.30711 0.32041-0.42723-0.38718-0.1602-0.42723-0.66756 0.0267-0.0668-0.40057-0.48063-0.267-0.61416-0.0668-0.13353-0.30708 0.0267-0.62752 0.42723 0.0534 0.34716 0.46731v-0.48066l0.30708-0.17355-0.37386-0.22697-0.1869 0.30705-0.1068-0.54739 0.30705-0.37385 0.0935-0.40053 0.65421-0.49399 0.36048-0.44061-0.0132-0.52068 0.48066-0.30708 0.56076-0.58748 0.1602-0.58744 0.61419-0.2804 1.0547-0.80107 0.33378-0.7343h0.61417l0.34712-0.45396 0.48067-0.0534 0.32043-0.36048 0.46176-0.18679 0.39255-0.0144 0.021 0.19328-0.79644 0.25095 0.0946 0.29104h0.89454l0.0135 0.33378 0.29376-0.12018 0.3738 0.30711 0.36477-0.45001 0.0937-0.30915 0.46788-0.22665 0.1545 0.15352-0.45339 0.47181-0.0267 0.50732 0.33382 0.04 0.0267 0.42723 0.3471-0.65421 0.48066 0.42726 1.0281-0.0667 0.0534-0.32042 0.13347 0.36048 0.44061-0.0132 0.1869-0.50737 0.26703 0.12016 0.65421-0.04-0.20025 0.61419 0.32043-0.0401 0.64086 0.42727h-0.54741l0.0401 0.85446 0.14691-0.41388 0.44058 0.0801 0.57408-0.22698 0.20028-0.28039-0.40053-0.25368 0.41388-0.57408 0.50736 0.0667 0.26703-0.41389-0.12018-0.41387-0.54738 0.1335-0.0267-0.46732 0.37383-0.0132v-0.68092h0.37386l-0.14691-0.61415 0.24033-0.54741-0.33375-0.73431-0.36051-0.17358-0.58746 0.26703 0.0801-0.57411-0.0801-0.58747-0.45393-0.25365 0.34713-3e-5 -0.0401-0.57408h0.44061v-0.494l-0.56076-0.1602 0.0135-0.44061-0.57411-0.0267-0.14685-0.48066-0.0801 1.0681-0.62748-0.0267v0.49402l-0.17358-0.26707-0.26703-0.1335-0.1602-0.6809h0.45393v-0.89455l0.90789 0.0267-0.64086-0.0934 0.0668-0.42726-0.76101 0.29376 0.0534-0.28042 0.49401-0.28037-0.0132-0.52071h-0.46731l0.0801-0.81441-0.20025-0.36048-0.29373 0.0267 0.14685-0.33374 0.61419 0.17355 0.24033-0.1335 0.48063 0.33377-0.36051-0.40056-0.50736-0.0934v-0.53406l-0.73428 0.13353v-0.42726l-0.44061 0.33381 0.0801-0.57411 0.54741-0.46731 1.0147 0.13353 0.44058 0.24032-0.12012-0.53405h-0.78777l-0.72093-0.33382 0.38718-0.57408 0.50736-0.3338h-0.0267l-0.16024-0.69426 0.21364-0.30708 0.21363-0.69426 0.25364 0.85445 0.24033 0.41392 0.0935 0.494-0.38718 0.57408 0.29373 0.37387 0.0668-0.50737 0.45396-0.57407-0.26703-0.46732v-0.42725l-0.32044-0.1068-0.17358-0.38719-0.14685-0.48066 0.41389-0.61418 0.49401-0.49395 0.20024-0.70765 0.62754-0.04-0.28038-0.21363 0.0935-0.30708-0.76102 0.2136 0.42723-0.58743 0.65422-0.21363 0.42722-0.28038 0.32047 0.49401 0.26703-0.64087 0.44057-0.73434-0.52071 0.50737-0.72096 0.28035-0.494-0.0135 0.40053-0.36044s0.14687 0 0.30707-0.21363c0.16023-0.21363 0.0534-0.41388 0.0534-0.41388l0.49402-0.40057 0.69425-0.70763 0.57408-0.40053h0.48067l0.0132-0.66756 0.62751-0.70763 0.41389-0.38718 0.62754-0.0801-0.54742-0.0934-0.20027-0.48065 0.66758-0.0801-0.0668-0.38718 0.40056-0.32045 0.50733 0.30709-0.30704 0.48065 0.0401 0.74769-0.5875 0.58744-0.22695 0.61416-0.17358 0.21361-0.22695-0.0534-0.44061 0.37383-0.0534 0.24034-0.28038 0.36044 0.44058 0.0668-0.42723 0.57411-0.0934 0.61416-0.33381 0.25368-0.76102 0.0135-0.52068 0.92124-0.69428 0.50734v0.34716l0.38718 0.57408-0.2136 0.40055 0.38718 0.0135 0.18689-0.61416 0.38721-0.25368 0.18693-0.267-0.65423 0.3204-0.0132-0.36048-0.26703-0.0935 0.32046-0.60078 1.2951-0.9346 0.66756-0.0668-0.0534-0.69426 0.45393-0.45397-0.0132-0.41387h-0.46728l0.80109-0.8011 0.1602 0.0534 0.46731-0.29371 0.0135-0.52071 0.42723-0.3605 0.37386 0.26703 0.04 0.61418-0.0667 0.46728h-0.50736l0.54741 0.33377 0.2136-0.50734 0.44061 0.3605v-0.16024l-0.0534-0.32041 0.56073 0.0133 0.36051-0.37385 0.65421-0.48065-0.45396-0.12015-0.20025-0.32044-0.52071 0.92124-0.49401 0.0934-0.1602-0.58748-0.54741-0.50731 0.0132-0.81446 0.26703-0.18691 0.2136-0.30709 0.58749-0.0534-0.41388 0.0133-0.0267-0.38721-0.33381 0.42724-0.37383-0.20028 0.34713-0.25368 0.24033-0.38718 0.45393-0.1335 0.0135-0.24032 0.5207 0.1335 0.33379-0.41389 0.20027 0.0134-0.0132 0.70762-0.73431 0.0801-0.0935 0.50735 0.1602-0.28038 0.40056-0.18691 0.21363 0.40056 0.38718 0.10679-0.0132 0.49401-0.53406 0.41388 0.26703 0.58748 0.48066-0.10682 0.0534 0.33379 0.17355 0.42724 0.37386 0.32042 0.267-0.26704 0.0668-0.44059-0.29373 0.28038-0.26703-0.29374 0.0132-0.30706 0.38717-0.33378 0.41392 0.17355 0.14684-0.10679 0.18694-0.37383-0.53407-0.0267-0.0132-0.13353-0.28038 0.13353-0.37383 0.54739-0.21363-0.45395-0.37386 0.41389-0.20025-0.36048 0.52071-0.45394-0.0668-0.45394 0.24033-0.0667 0.38721 0.37386 0.41388 0.0801-0.38721-0.36047v-0.41388l0.20031-0.18692-0.40056 0.17356-0.0668-0.34715h-0.58746l0.17355-0.34712 0.33381-0.3605h0.56076l0.1068-0.26701h0.74769l0.0667-0.38721 0.33381 0.2804 0.0267 0.76102 0.1869 0.4139-0.50736 0.0534 0.0668 0.49397-0.41391-0.17356-0.22695-0.4673-0.0534 0.58747 0.33381 0.0801-0.17358 0.41391 0.20025 0.30706 0.17358-0.38718 0.42726 0.37383 0.1602 0.25368-0.44058 0.37385v0.28036l0.72096-0.41389 0.22698 0.18692 0.14685 0.21362 1.3429-0.73349-0.90264 0.15099-0.54708-0.0984-0.29373 0.0267 0.0935-0.34711-0.50736-0.26704 0.33375-0.42723 0.73434 0.0534v-0.2804l0.40053-0.0534-0.30705-0.24031-0.40053-0.60081 0.14685-0.41391h-0.52071l0.90789-0.32042 0.61419 0.0134 0.0934-0.3605h0.57414l0.0135-0.4673 0.33375 0.17358 0.10683 0.56075 0.33378 0.29373-0.28041 0.64087-0.3471 0.29373-0.1602 1.3485 0.1335-0.69427 0.62748-0.988 0.36051-0.0801-0.26703 1.3752 0.41388 0.0801 0.14685 0.28039-0.40053 0.77438 1.3218-0.17359v-0.30706l-0.69429 0.0133 0.37386-0.37387 0.42723 0.0935 0.0401-0.42724-0.32046-0.0668-0.48066 0.34715-0.12015-0.32044-0.0267-0.26704-0.2403-0.494 0.40053-0.0801 0.0267-0.65421 0.1869 0.36048 0.44058-0.0667-0.12015 0.60083 0.32043 0.44059 0.36051-0.70762 0.26703-0.21362h0.53403l0.33381-0.61418-0.0668 0.48065 0.0267 0.54741-0.82776 0.37384-0.12018 0.74767-0.29373 0.0668-0.14688 0.46729 0.34716-0.25368 0.42723-0.10682-0.0132-0.494 0.34713 0.30709-0.0132-0.32045 0.22698-0.40053 0.48063-0.16021 0.0401-0.85447 0.28038-0.45396-0.0132 0.65422 0.26703 0.17356 0.1602 0.58745 0.22698-0.267-0.16023-0.68092 0.30708-0.37386 0.33381 0.9346 0.52071-0.14685 0.28038 0.46729-0.0668 0.58745 0.21363-0.62751 0.40053-0.04-0.52071-0.21362 0.0534-0.50736 0.38718 0.0267 0.32046 0.65421 0.12018 0.60082 0.22698-0.25367-0.38721-1.0548 0.84114 0.0534-0.84114-0.22697-0.0132-0.30709-0.54741 0.10682 0.37383-0.40053 0.3338-0.20027 0.3204 0.28036 0.29376-0.12014 0.86782 0.60078-0.49399-0.86782-0.77436-0.04 0.38718-0.24033 0.42724-0.30706 0.62751 0.88119-0.33378-0.94795 0.33378 0.45394-0.0401-0.38718 0.74766-0.0133 0.42724 0.56074-0.0132-0.61415 0.49398 0.54741-0.1869 0.41389-0.37383-0.04 0.12015 0.33376 0.26703 0.37386-0.12015 0.53403 0.56073-0.29372-0.0135-0.5474 0.58749 0.29374 0.1068-0.37384-0.62751-0.0267-0.2136-0.22696-0.0267-0.22697 0.50733-0.14688 0.46731-0.33377 0.92124-0.21362-1.0281-0.0134 0.0135 0.28035-0.45393-0.17356-0.22698 0.40053-0.45396-0.69425h-0.38718l0.46731-0.34714 0.24033-0.48065 0.54738 0.33379 0.0668-0.44059 0.42723 0.18691-0.0935-0.29372-0.52071-0.41389-0.32046 0.12016 0.28041-0.34714 0.37383 0.0133 0.42726 0.46729 0.0534-0.46729 0.46731-0.16023 0.38721 0.36049 0.267-0.36049 0.42726-0.26702 0.16023 0.61416 0.1869-0.40054 0.12018-0.494-0.73434 0.10681-0.37383 0.13351-0.85449-0.0267v-0.5207l-0.90789 0.37384 0.40053-0.53406 0.49401-0.0934 0.1602-0.42725h0.38721l0.1068-0.58745 0.21363 0.40054 0.48063 0.24032-0.48063 0.56075 0.62751-0.48065 0.37383-0.14686-0.74769-0.37384-0.04-0.41388 0.46731-0.3872 0.48063 0.3872 0.60084-0.17357 0.21363-0.53405 0.44058 0.18692 0.60081 0.41388-0.30708-0.50734-0.52071-0.26703-0.46728 0.0267-0.12018 0.40054-0.33378 0.26704-0.34716-0.4673-0.38715-0.18692-0.0401-0.78773 0.70764 0.37384-0.34713-0.42725 0.24033-0.72096 0.30705-0.33379 0.0668 0.86783 0.32043-0.61416 0.92124 0.69427v0.45394l0.34713-0.46729-0.68091-0.45395-0.46731-0.6275 0.0132-0.40056-0.45393 0.44061-0.13349-0.64086 0.76097-0.36049 0.96132 0.0934-0.36048-0.25368-0.48066-0.21362-0.82778 0.34713v-0.50735l-0.22698-0.22697-0.25369 0.90789-0.38718 0.13351-0.04 0.60081-0.34713-0.25367-0.44058-0.32043h0.4673l0.2403-0.42724 0.50733-0.22697-0.0534-0.48065 0.37384-0.37384-0.24033-0.50736 0.30707-0.16021 0.30709-0.34713-0.0668 0.81442 1.1082 0.12017 0.45393-0.34714 0.20029 0.37384 0.32042-0.0534 0.38718-0.53405 0.96132-0.20027 0.37381-0.21362 0.6275 0.25368-0.0132-0.37385-0.45393-0.12016-0.0534-0.42725-0.0401-0.54739-0.0534 0.78773-0.4673 0.21362-0.34713 0.42724-0.58747-0.12016-0.42722 0.60081-0.17358-0.37384-0.32043-0.21362-0.53407 0.80109-0.18693-0.32044-0.56073 0.0667 0.44058-0.45396-0.40052-0.33377 0.48062-0.26702 1.0014-0.93461 0.24033-0.89453 0.1068 0.37383 0.40056-0.28037 0.0668-0.57412 0.66755-0.494 0.1068-0.70761 0.48067-0.5207 0.26703-0.48065 0.30707 0.65421-0.13352 0.54741-0.72096 0.50734 0.20024 0.52071 0.54741 0.0534 0.0132 0.77438-0.28038 0.25368 0.50736-0.22697-0.0267-0.53407 0.76103 0.18693 0.25369 0.73433h0.49398l0.30707 0.33378-0.0935-0.48066-0.3872-0.0801-0.3204-0.494-0.0935-0.45394-0.32042 0.25366-0.42727-0.22696-0.0534-0.40054-0.53405 0.17356-0.41389-0.26702 0.57408-0.45396h0.32046l0.21361-0.74767 0.29375 0.10682 0.20026 0.4406 0.22698 0.0534 0.13349 0.72097 0.14686-0.53405v-0.45395h0.34716l-0.38718-0.29373 0.10677-0.36049-0.38716 0.22698v-0.18692l0.22695-0.36048 0.37384 0.0667 0.0135-0.53405 0.54741-0.10682 0.33378 0.10682 0.0668-0.4673 0.53409-0.38719v0.42725l0.3204 0.34713-0.2937 0.56076 0.38718-0.12017 0.44058 0.38719-5e-3 -0.38771-0.3837-0.36526-0.0975-0.74774 0.23568-0.88595-0.22755 8e-3 -0.49581 0.63399-1.1134 0.40637-0.3414 0.78026-0.56079-0.0975-0.065-0.31698-1.1948-0.0812-0.15441 0.35761-0.17883 0.0406 8e-3 -0.87779 0.82902-0.48765 0.69897-1.0729 0.55266-0.29259 0.22761 0.50391 0.2601-0.24383 0.82089 0.0244 0.32511 0.43077 0.47952 0.0731-0.26823-0.28446-1.0403-0.53642-0.43077 0.0975-0.36576-0.44702 0.28446-0.32511 0.53643 0.0894 0.33327-0.34949 0.20319-0.43889h0.28446l0.0162 0.59333 0.31698 0.1219 0.38199 0.60958 8e-3 0.63395 0.22755-8e-3 -0.0731-1.1297-0.6177-0.42264 0.0162-0.44702 0.5283-0.11382 8e-3 -0.99156 0.4389-0.62584 0.15441-0.28446 0.21948-0.0569 0.0731-0.46327h0.15441l0.0407 1.2192-0.30072 0.1788 0.065 0.55268 0.30072 0.16255-0.26007-0.52829 0.78837-0.17068-0.0731-0.34949-0.25197 8e-3 -0.0487-0.24382 0.46326-0.77213 0.20319-0.0731-8e-3 -0.21944-0.52019-0.35764h-0.55266l-0.0406-0.22758 0.2601-0.20319 0.0731-0.36574 0.90218-0.23571-0.0325-0.3251 0.2926 8e-3 0.17879 0.34136 0.382 0.065v1.081l-0.39009 0.37391 0.0243 0.29259 0.22758 0.20318 0.13815-0.73151 0.45519-0.26008-8e-3 -0.30072-0.2601-0.065 0.11379-0.5283 0.39828-0.13004-0.0813-0.17881-0.51207 0.12192-0.25194-0.382 0.71526-0.0731 0.11379-0.39826-0.45519 0.2357-0.72336-0.10565-0.0325 0.25195-0.21135-0.19507 0.53643-0.38198 0.13818-0.67463 0.29259 0.21944 0.0732 0.33327 0.77214 0.0813 0.71523 0.63396 0.0325 0.54455h0.25194l0.14631-0.56081-0.94281-0.7071-0.7884-0.18697v-0.30072l0.26013-0.0406 0.20316-0.42263 0.85341 0.0163 0.0894 0.27633 0.37389-0.065-0.27636-0.31698 0.52017-0.49579 0.41451-0.35761 0.0325-0.47953 0.60144-0.0975-0.47952-0.17068 8e-3 -0.59335 0.39015-0.0813-0.78027-0.065v-0.45516l0.26007-0.0975v-2.4139l0.29262-0.0894 0.0325 0.33323 0.65022 0.15443 0.065 0.45517 0.52017 0.16255-0.0731 0.31698-0.86967 8e-3 -0.22758 0.81276 0.38202 0.2357-0.0243 0.65022 0.0731 0.31697 0.41452-0.065 0.19509 0.22761 0.4226-0.21948-0.0894-0.58519-0.33324 0.44702-0.42264-0.065-8e-3 -0.83715-0.35763-0.27634 0.13818-0.4714 1.0566-0.0163 0.24381 0.56081 0.16258-8e-3 -0.0975-0.63396 0.37388-0.18693-0.30887-0.77216-0.35764 0.82092h-0.17066l8e-3 -0.49578-0.45516-0.0732-8e-3 -0.40638-0.40642-0.22758-8e-3 -0.26007 1.3817 0.065-0.26007-0.28447-0.30886-0.20318 0.0569-0.33324-0.40636 0.40639-0.56894-8e-3 -0.0569-0.87778h0.30075l0.0569-0.3251 0.39011 0.0325 0.2926 0.65022 0.39828-0.17068 0.60147 0.0975-8e-3 -0.31698-0.85341 8e-3 -0.17067-0.26008 0.49575-0.33327 0.57711 0.065 0.25194 0.19507 0.2601-0.25199-0.69897-0.2682v-0.24384l0.3576-0.0163 0.34137-0.53642 0.0731 0.5039 0.1707-0.46327 0.57705 8e-3 -0.29259-0.2926 0.48765-0.12191 0.42264 0.11379 0.0569-0.22757-0.51201-0.14631 0.0243-0.22757 0.73149-8e-3 0.11379-0.22757h-0.76398l-0.50394 0.26821-0.41451 0.0325-8e-3 -0.21133 0.45516-0.11379 0.0406-0.30072 0.69085 0.0488 0.52017-0.31701-1.7962 0.0813-0.0731-0.52832h-0.69897l-0.62586 0.55271 0.1707 0.22757 0.47952-0.54459h0.37389l-0.0813 0.64212 0.32511 0.16255-0.23568 0.30073v0.26008l-0.90223-0.0731-0.47138 0.62582-0.95091 0.31699-0.0732 0.56079-0.22758-0.39012-1.5443-0.0163-0.38199 0.37387-0.22755-8e-3 -0.065-0.28447-0.56082-0.0488-0.33324-0.31698-8e-3 -0.28447-0.3495-0.16256v-0.28446l0.26823-0.0406 0.20319-0.22757 0.36575-0.0488 0.0243-0.44703h-0.27633v-0.34136l-0.35763 0.36575-0.48768-0.0894 0.065-0.2926-0.27633-8e-3 0.0162-0.43892 0.43887-8e-3 8e-3 -0.42264 0.31698 0.0163-0.0243-0.19506-0.47955-0.0406-0.0975-0.34948h0.48768l0.11376 0.17068 0.17067-0.065-0.22755-0.60145 0.57708-0.0325 0.24384-0.32511 0.62583-0.0813 0.17067 0.40639-0.36573-0.0163-0.15444 0.30072-0.60144 0.23571 0.47952-8e-3 -8e-3 0.37388 0.28449-0.40638 0.46326-8e-3 0.12189-0.26008 0.23571-0.0244 0.11382-0.25196h0.25194l0.29259 0.97533 8e-3 -0.61771 0.2601-0.0975-8e-3 -0.21132-0.28443-0.0163-0.10566-0.24383-0.41451 8e-3 -0.0325-0.22759-0.37389-0.0244 0.53643-0.0731 0.10566-0.26824 0.24381-8e-3 8e-3 -0.50392 0.56082-0.39012-0.26013-0.0325-0.0162-0.44701 0.68274-0.0325 0.31698-0.23569-1.2517-8e-3 -0.0813-0.32512-0.47952 0.0163-0.0243 0.34949-0.36574-0.32511-8e-3 -0.62583-0.17877-0.0975-0.0162-0.41452-0.47955-0.19505-0.44703 0.21944h0.57708l-0.18693 0.36574h0.31698l-0.065 0.41454-0.47952 0.0406-0.27633 0.29259h-0.64212l0.31698 0.15443 8e-3 0.29259-0.64209 0.17068-0.26007 2.1945-0.82092 0.86966-0.0731 0.4714h-0.47952v-0.26821l-0.25194-0.0487-0.0976-1.0403-0.26823-0.61771 8e-3 0.51205-0.56079 0.16255-0.0325-0.56893-0.77214-0.36578-0.0325-0.48766-0.56892-0.33322v-0.56895h0.20319l0.13002 0.31699 1.0322 0.0325 0.0894 0.30072h0.14631l0.0243-0.49578 0.65835-0.0975 0.54459-0.62583-0.73965 0.39012-0.13005 0.17069-1.0647 0.0975-8e-3 -0.28448-0.43073-0.30885-0.2601 0.0325v-0.18694l0.50394-0.48766-0.10698-0.55877-0.4644-0.2508-0.12642 0.41956 0.39656 0.14367-0.18392 0.34482-0.32757-0.046-0.40806 0.37932 0.0747 0.54021-0.37932-0.27586-0.25863-0.89079-0.63792-0.6207-0.18967-0.023-0.0114-0.40231 0.42531 0.046 0.10919-0.39655 0.3793 6e-3 0.29313-0.4885h0.3333l0.092 0.40805 0.43677 0.41955-0.0114 0.28161 0.20118-0.023 0.0114-0.54025-0.40809-0.26436v-0.21841l0.62073-0.0345-0.0575-0.16666-0.78738 6e-3v-0.22989l0.62074-0.55745-0.22989-0.092-0.78738 0.83911h-0.56895l-0.18967 0.25863-0.55749 0.0287-0.18392 0.36784 0.0345-1.6207 1.2069-0.10342 0.19542-0.39083 0.48276 6e-3 6e-3 -0.52299h-0.24714l-0.36204 0.35058-0.64369 0.046-0.10343-0.32759-0.10923 0.70691-0.6954 0.13792-0.10917-0.52299 0.32184-0.12069 0.0517-1.5977 0.47703-0.23565 0.0632-0.35633 0.22412 6e-3 6e-3 0.35633 0.38508 0.28737 0.0345 0.25288-0.71265 0.0804-6e-3 0.18392 0.8391 6e-3 0.10347 0.28734 0.33906-0.28159 0.24138-6e-3 6e-3 0.26436h1.0345v-0.23562l-0.54024 6e-3 -0.30459-0.29885 6e-3 -0.32759 0.87933-0.21839 6e-3 -0.3046 0.36783 6e-3 -0.0862-0.2299-0.60918-6e-3 -0.3276 0.52871-0.6552 0.27015 0.0114-0.15518 0.3678-0.27586-0.12069-0.49426 0.77013-0.21266-0.0171-0.45402 0.47703-0.48275v-0.42529l0.6609-0.70115 0.0231 0.46551 0.39084 6e-3 0.16089-0.57472-0.21837-0.13795 0.74712-0.66091 0.74712-0.0632-0.39078-0.15518-0.13791-0.6609 0.0344-1.9828 0.56325-0.35634 0.0288-0.48274-0.29886-0.18967-6e-3 -0.62644 0.62643-0.33907-6e-3 -0.17816-0.34485-0.069-0.046-2.0058 0.36208-6e-3 0.20114-0.24713-0.30458-0.31608 0.11492-0.19539 0.47703 0.0115-6e-3 -0.20691-0.4368-6e-3 -0.4023 0.21838-0.0114-1.9195 0.60348-0.10346 0.40803 0.34483 0.43104 0.22411 0.069 0.72417 0.23013-0.25448 0.0457-0.56737-1.4368-0.99425 0.24711-0.13219-6e-3 -0.51723-0.4713 6e-3 -0.17238-0.20113 0.069-0.36208 0.25287-0.0575 0.10344-0.60344-0.68391 0.47128h-0.25866l0.0575 0.28735h-0.34482l6e-3 -1.9196 0.24138-0.18967 0.0632 0.37356 0.3333 0.50001-0.20688-0.55171 0.14367-0.47129-0.19539-0.33332v-0.52874l-0.22989 0.17241-0.0575 0.53451-0.36204-0.20691-0.0114-1.023-0.47127-0.27586v-0.85058l-0.29883-0.10921-0.0288-3.1552-0.20112-0.21263-0.0632-1.4943 0.25863-0.0115 0.19539-0.72415 0.21839 0.0115 0.0345-0.41957 0.3391-0.0172 0.1839 0.59772 0.10347-1.0632 0.58046-0.48852-6e-3 -0.33332-0.82761 0.44828 0.1322 0.17241-0.36782 0.55173-0.89083 0.14367 0.13219-0.54022 0.29886-0.0287-0.37933-0.44255 0.0231-2.1207 0.27018-0.27011-0.0114 0.55749 0.33339 0.32183 6e-3 -0.42528-0.20115-0.18968 0.0288-0.37929 0.23565-0.31036-0.12068-0.4368-0.4368-0.52871h-0.60919l-0.16668-0.25863 0.37357-0.13795 0.0174-0.3908-0.32184-0.60345-0.32184-0.0747-0.0114-0.67817 0.40803-0.13792 6e-3 -0.41381-0.33906-0.13792-0.10347-0.37931 0.37932-0.0747v-0.53449l-0.24714-0.0115-0.0114-0.29885-0.56898-0.0632-0.70116-0.85058-0.28734-0.28734h-0.17241v0.28734l-0.60348 0.0345-0.19539 0.58623-0.23562-0.32759-0.0288-0.21266-1.092-6e-3 -0.1092-0.27587 0.35061-0.24137 0.26433-0.85057 0.3276-0.12644-6e-3 -1.3046 0.52875-0.64943v-0.23562l0.41382 6e-3 0.24138 0.26439h0.36777l0.13797-0.22414 0.71265-0.35634 6e-3 -0.20114 0.57471-0.12645 0.20691-0.23561 0.68391-0.0345 0.0114 0.25863-0.13218 0.19539 0.4023 0.19541 6e-3 0.25863 0.40809 0.0115 0.0574-0.26435 0.86781-0.34483 0.0114-0.72989 0.47701-0.35058-0.0288-0.29885 0.65517 6e-3 0.38508-0.28737 0.21837-1.1782 0.55749-0.2299 0.0632-0.41953 0.35634-0.25288-6e-3 -0.52298 0.18393-0.0977 0.0288-1.1839-0.20115 0.78737-0.2874-0.35634-0.0575-0.32759-0.68961-0.74712-0.092-0.64943-0.39081-0.18964-0.3333-1.8678-0.55176-0.63793-0.0919-1.0287-0.13794-0.14367 6e-3 -0.77012 0.74709 0.0115v-0.17817l-0.29307-0.10346-0.0345-0.84482-0.42531-1.2012-0.21264 0.0345 0.28161 0.66091 0.0977 1.1494-0.32184 0.0345-0.16668-0.93104-0.73563-0.94828-0.75861-0.42529-0.12645-0.51723-0.81612-0.91955-0.35631-0.24139-0.22413-1.0517-0.33906-0.3276-0.0345-0.87357 0.33336-0.17241-0.0114-2.3333 0.17814-0.0402 0.20691 0.91381 0.72414 0.0287 0.48852 0.78162 0.51723 0.0632 0.1092 0.26435 0.31611-6e-3 -0.25863-0.61494 0.29886-0.54598h0.2184l-0.046-1.8736-0.35628-0.60346-0.64371 6e-3 -0.22416-0.63219-0.24711 6e-3 -0.17814 0.33332 6e-3 -0.48274 1.0747-0.21266 0.2931 0.17241h0.32757l0.0114-0.54598-0.49998-0.35057-0.0632-0.30461 0.35055-0.0115 0.20114-0.78737 0.21844-0.0287 0.1034-0.50573-0.25284-0.13219-0.0114-0.44827 0.52875-0.39083 0.25866-1.0115 0.2586-6e-3 6e-3 -0.56896-0.70116-0.50001-0.67242-0.0632-0.39084-0.25861h0.39084l-0.0575-0.53449-0.28731-0.31034-0.42531 6e-3 -0.39654-0.36782 0.36783-0.2701-0.55176-0.12645-6e-3 -0.28161 0.60918-0.17818 6e-3 -0.20114-0.2931-0.0689-0.20691-0.7931-0.37929-0.0402-0.3621 0.3391 0.0345-0.54025-1.2586-0.0172-0.3966 0.31608-0.0114 0.69543 0.32187 0.0862-0.57471 0.36782-0.24717-6e-3 -0.14367 0.33331h-0.18387l-0.13794-0.33907-0.16668-0.24712 0.36207-0.0402-0.10344-0.53446-0.27588-0.10922 0.0345-0.2701 0.37932-0.0919-0.12645-0.45979-0.52875-0.25863-0.0919-0.83907-0.86208-1.6092-1.3506-1.477h-0.41379l-0.85059-0.49424-0.12645-0.29885-0.48273 6e-3 -0.0632 0.81609-0.27015 0.0805v0.52874l-0.2931-0.21265-0.0288-0.27587-0.32759-0.28159 0.37931-0.18967 0.0231-0.41379-0.37356-0.25288 6e-3 -0.85633 0.34482-0.13219 0.0114-0.3563-0.26436-0.12644v-0.24713l0.50002-0.0517 0.25286-0.43105 0.39081 0.17241-0.13218-0.32759 0.31608 0.0287 0.0472-0.78469-0.30886-0.15443 0.0407-0.73151-0.83715-0.60957 0.24384-0.47953-0.58521-0.0325-0.39825-0.56081-1.016-0.79653-0.52017-8e-3 -0.30069-1.211-1.333-0.53643-0.57708-1.0972-0.8778-0.21133-0.0406-0.62582-0.47658-0.33053 1.7286-5.721 0.15972-1.4058 0.92652-0.57504 0.2556 0.19167 0.38338 0.0958 0.28754-0.38337 0.99039-0.0958 0.70287-1.3418-0.79872-0.9265-0.73482-2.2044-0.1278-1.7252 0.3834-1.1502 0.5112-0.35145 1.5974 0.95848 0.99039 1.7252 0.8946 2.9712 0.95844 0.9904 0.63897-0.032 0.51117-0.70285 0.25557-0.83067 0.5112-0.44727 0.3834 0.0639 0.76674-1.0543 0.12778-0.86259 0.31952-0.31949h0.25557l0.57507-0.41535 0.19167-1.0543 0.5751-0.607 1.1821-0.12781 0.51117-0.22363 0.67089 0.19169 0.5751-0.22365 0.0639-0.7348-0.31949-1.0224-0.41533-0.3834-0.41532-0.99039 0.22359-0.51118v-0.54313l0.67095-0.92652 0.35142 0.0958 0.73485-0.12778 1.4696-0.31948 0.83067-0.0958 0.38337 0.0958 0.76681-0.19171v-0.54313l-0.35146-0.12779-0.0639-0.28753 0.032-0.38339-0.38341-0.76677-0.67092-0.28753v-0.35142l-0.35145-0.15976-0.28749-0.57505 0.31944-0.63899 0.0959-0.79871-0.35146-0.22363-0.15972-0.35146 0.15972-0.57507-0.19169-0.47922-0.25558-0.0958 0.22362-0.25559-0.12777-0.83066-0.60702-0.73481-0.35144 0.0319-0.60703-0.41532-0.1917-0.60702v-0.57509l-0.57507-0.35144 0.0959-0.31946-0.63901-1.278-0.15972-0.73482 0.22365-0.70285-1.0543-2.1086-0.83067-0.79871-0.89451 0.0639-0.19173-0.19171 0.22369-0.54313-0.15979-0.51117-0.51117-0.22363 0.3195-0.44728 0.35146-1.1182 0.47921-0.3195-0.0319-0.35144 0.6709-1.3099 0.63896-0.38337h0.2556l-0.0639-0.57507 0.2625-0.98913 0.10194 1.1418 0.26823 0.12191 0.0975 0.49579 0.60958 0.80466 0.5039 0.0894 0.7884 1.081 0.35763 1.146 0.60144 0.5771v0.46327l-0.34137 0.20319 8e-3 0.47953 0.73963 0.24383 0.0406 0.36574 1.0078 0.72339 1.1135 0.18693 0.80466 0.78839 0.99159 0.73148 0.81276 2.162 0.97533 0.764 0.76398 1.4467 0.56895 0.13004 0.31698-0.45514 0.21564-0.0207 0.27684 0.5008 0.36093-0.39886 0.81277 0.0731-0.12192 0.49579h-0.47953l0.0894 0.31697 0.36573 0.0894v0.45514l0.46332 0.0894-0.27639 0.46326-0.31695 0.0163 0.0894 0.317 0.34947 0.0325 0.20322 0.36574 0.40638-0.53642 8e-3 0.35762-0.33321 0.5608-0.45519-0.10566-0.0894 1.1623 0.22755 0.36573h0.64212l-8e-3 0.27635 0.50391-8e-3 0.065-0.27634 0.26007-0.0894-0.1788-0.45514h0.95094l0.20319-0.2926 0.63396 0.0244 0.0407 0.30885-0.63399 0.17069 0.0569 0.25194v0.67463l0.30072-0.44704 0.28449 0.41453 0.37389-0.0244-0.0976 0.382-0.36573 0.0488-0.18696 0.24383-0.40638-0.0569 0.13002 0.35761 0.56898 0.1463-0.0243 0.27634-0.2601-0.18694h-0.41454l-0.0894-0.35761h-0.37383l0.27633 0.17068v0.55268l0.40635 0.42263h0.46332v0.22758h-0.77217v0.35764l-0.27633 0.065-0.0569-0.60146-0.36573-0.0975v-0.26821h-0.73962v0.26821l-0.30072-0.0488-0.23571 0.46328 0.54453-0.22757-0.2682 0.90219-0.33321 0.10566 0.0975 1.8856h0.18696l0.60144 0.60147 0.47139-8e-3 0.81276 0.33323h1.3086l0.3495-0.3251 1.1297-0.0813 0.65025-0.55271-8e-3 -0.83714-0.31698-0.0244 8e-3 -0.21131 0.51204-0.26009 0.0813-1.6174 0.23568-0.60145 0.32511-0.17881 0.0406-0.65021-0.447-8e-3 -0.14631-0.3251v0.91842l-0.27633-0.42264-0.0894-3.8607-0.46332-1.4386-0.0406-0.65021-0.28449-0.13817v-0.28447l0.22758-0.27636 0.0406-0.5852 0.33324-0.39013-0.0406-0.86152-0.27636-0.13817v-0.60147l0.31698-0.30885-0.0731-0.41451-0.89406-0.64209-0.47139-0.86153-0.57708-1.5199-0.95097-0.39827-1.1216-0.55267-0.46329 0.0569-0.50388-0.18693 0.13005-0.36575-0.26823-0.30888-0.41454 0.48769 0.0813 0.51204-0.26823-0.43889 0.22755-0.75589 1.1135-0.82902 0.80463-1.1866 2.1295-8e-3 0.54456-0.3251 2.4708-0.51207 1.715-0.30885 0.38199-0.63396-0.14628-0.87779 0.27633-0.52019 1.5117-0.17881 0.72339-0.54454 1.1054-0.36575 0.23571-0.73962 0.91035-0.91032 1.6174-0.78838 0.46329-0.5608-8e-3 -0.56081-0.56892-0.0894 0.53643-0.21132 2.0238-0.18694 0.80463-1.4142 0.92655-0.83715 0.70713-0.35761 0.447-2.1701 0.38202-0.0569 1.4224-0.99159 0.31698-2.5033 0.41451-0.2276-0.21942-1.1541 0.44697-0.43889 1.5281-0.56894 0.44703-0.7315-0.49581-0.0488 0.17883-0.31697-8e-3 -0.82089 0.56082-0.55268 1.8125-0.34136 0.61767-0.45518 1.1541-0.44702 0.86157-0.45514 0.0488-0.43889 0.32511 0.10565 0.30072-0.45515h0.99969l0.30888-0.3251 1.1541-0.0488 0.30885-0.23571 0.47955 0.0163 0.0488 0.21944 0.66648 0.26821-1.0241 8e-3 -0.0975 0.45515-0.59331 0.22757 0.85338 8e-3 -0.28446 0.26821 0.65019-0.0325 0.0569 0.52829 0.50391-0.80464 0.62583 8e-3 0.56895-0.65834h0.44703l0.20319 0.37388 0.91032 0.0406 0.11739 0.20851 0.49212 0.0259 0.17817-0.24712 0.94827-0.36206 0.64368-1.0575 0.48273-0.5977 0.32184-1.2069 0.60348-1.1552-0.0172-1.7242-0.36783-0.14367v-0.77587l-0.59773-0.31608-0.0862-0.48277-0.37359-0.61493-0.32757 0.31033-0.29886-0.0632-0.37928-0.52874-1.2874-6e-3 -0.41952 0.36208 0.3333-0.74141 0.46555-0.41377 1.0575-0.63796-0.0173-0.78159 0.51729-0.41956 0.0345-1.2816 0.28737-0.17816-0.092-0.64368-0.24714 6e-3v-0.20116l0.6552-0.54022 0.18966-0.51151 0.36207-0.21838-0.41379-0.3276 0.13791-0.68965h0.40806l-0.5115-0.59769 0.10344-0.27587 0.37932 0.55173 0.36207-6e-3 0.45978-1.1552 0.45978-0.26435-0.0173-0.51727-0.30462-0.046-0.50001 0.39655-0.24138 0.34485-0.0459 0.54023-0.32184-0.25288-0.0977-0.60921 0.52872-0.27011 0.35061-0.41954 0.0862-0.31608-0.35055-0.13795-0.60348 0.27011 6e-3 -0.63217 0.35634-0.0575-6e-3 -0.38507 0.51723 0.72415h0.59199l0.046 0.62071 0.36783 0.0172-0.0517 0.54022 0.46551 0.0689 0.50574-0.33907 0.69543-0.0115-0.17244-0.13796-0.56898-0.0517-0.32757 0.19541v-0.54598h-0.28734l-0.2184-0.37932-0.55746-0.44827 6e-3 -0.5-0.55749 0.17241-0.55176-0.45404 0.19539-1.1954-0.5517-0.13791 0.41952-0.28163 0.39909 0.4769 0.74367-0.84934 0.1788-0.382 0.42267 0.34136 0.59331-0.4714-0.10566-0.2032h-0.3495l-0.24381-1.7718 0.14628-0.43889-0.44703-0.0975-0.52017 0.69085-0.73149 8e-3 -0.27633 0.86155-0.45519-8e-3 -1.1054 1.0485-0.065 0.52017-0.61773 0.0569-0.19506 0.35761-0.36576-0.13817-0.26817 0.065-0.14634-0.37388 0.48765-0.44701 0.69087-0.22757 0.699-0.46328 0.36576-0.56081 0.46326-0.23573-0.0894-0.50391-0.18693-0.33324 0.0894-0.48765-0.34947-0.0731 0.39825-0.21945h0.24381l0.39825-0.46327 8e-3 -0.56083 0.26817-0.43077 0.0163 0.99972 0.3495 0.17881 0.24387-0.31697 0.65018-8e-3 0.26011-0.34952 0.55265-0.33323 0.15444-1.4223-0.23567-0.0813-0.13818-0.6177 0.27633-0.35764-0.37387-0.2357-0.4145 0.31698-8e-3 -0.43889-0.87777-8e-3 8e-3 -0.26821 0.27636-0.065 0.0813-0.48766 1.0647-0.7965 0.21945-0.4958 0.20319-0.0731 0.2682 0.80464h0.24387l-0.0732 1.0078 0.98346-8e-3v-0.44702l-0.36573-0.10566-0.23571-0.46327-0.0894-0.9022-0.77211-0.23571 0.66645-0.0406 8e-3 -0.2357 0.31698 8e-3 8e-3 -0.23569-0.50395-0.37388-8e-3 -0.5039-0.27633-0.065 8e-3 -0.25196 0.57708-0.19506-0.4389-0.30885-0.73149-0.0406v-0.23573l0.68271-0.60145 1.0973-0.0406 0.27634-1.0485 0.72335-0.36575 1.1135-1.2598 0.83715-0.0894 0.77214-0.54455 1.5714-0.30324 0.1785-0.95652 0.56324-1.1494v-0.45979l0.21841-0.59771h0.28733v0.41379h0.4483l0.14942-0.0919 0.17241-0.21839h0.70116l0.29886-0.87356 1.2616-0.22317 0.68094-0.83432 1.2529-0.27587 0.36783-0.97701-0.0115-0.72415 0.75861-0.55173h0.8391l0.14943-0.64368 1.4368-0.91953 0.14943-0.72414 0.48279-0.0115 0.60918-0.82759 0.36783-0.046 0.18387-0.45976 0.0805 0.27585 0.37929 0.36784-0.4827 0.4023h0.47124v0.52872l0.60918-0.20688v-0.48277l-0.27588-0.023-0.20826-0.35633 0.0805-0.55706-0.30696-0.0737 0.0325-0.46692 0.43677 0.3161 0.12072-0.11494 0.20112-0.19541-0.50574-0.34483 6e-3 -0.51149 0.17817 0.37356 0.42531 0.24138 1.7242 0.21839 2.5632 1.1839 2.7472 1.115 3.2069 0.85057 2.3793 0.49426 0.90804-0.0115 1.3334-0.21838 1.2529-0.13792 0.51723-0.26438 0.19539 0.49427-1.2529 0.73562h-0.80457l-0.55176 0.28738-2.4598-0.0115-0.24135-0.2299-1.023 0.0115-0.45978-0.20691-0.0575 0.29885 0.66669 0.16093-0.27585 0.12644 0.023 0.70115-0.27585 0.0574v0.4138l0.32184 0.14944 0.19539 1.046 0.45978 0.17242-0.12642 0.37931h-0.58623l-0.87357-0.85058v-0.33334l-0.20691 0.046-0.17241 0.22988-0.47124 0.046-0.12645 0.25287h-0.29886l-0.27585-0.26436-0.36783-0.0115-0.18393 1.138-0.41379 0.0804v0.49425l0.32187 0.56321h0.94251l0.20691-0.37931h0.35631l0.19542 0.58621 0.27588 0.023v1.0345l0.21837 0.046 0.32184 0.42529 0.19539-0.21838 0.49428-0.17244v-0.62069h0.36783v-0.45976l-0.81612-0.0575v-1.092l0.8046-0.0575 0.023 0.27586 0.58623 0.34482-0.0919 2.4598 0.33333 0.12644-0.0115 0.26436 0.85056-0.0919 0.65517-0.47127 1.069-0.34485 0.0115-0.83907 0.44829-0.0115 0.14943-0.17241-0.3678-0.10345-0.0115-0.72415 0.59769-0.34482 0.1839-0.9885 0.32184-0.44828 0.092-0.97701 0.42528-0.39083 0.0805-0.70115 0.34482-0.57472h0.12642l0.10347-0.41378 0.32184 0.13791-0.069 1.3334-0.2184-0.0115 0.0575 0.56321-0.74712 0.42529v0.4023h0.37932l0.26436-0.32183 0.50574-0.10345v-0.33335l0.27588-0.1954-0.0115-2.0575-0.2184-0.069-0.0575-0.32184-0.44829-0.0115-0.0115-0.42527 1.4713-0.98853 0.24138-0.59769 0.49425-0.36782-0.31032-0.13794-0.0575-1.2414-0.22992-0.19541-0.023-1.6322-0.27585-0.29885-0.023-0.44828 0.32184-0.13794 0.0575-0.22988-0.42528-0.22988 0.0345-0.26437 0.37932-0.10346 0.0115-0.54023 0.22992-0.023v-0.42528h0.37932l0.57471-0.29886-0.32187-0.27587h-0.24138l0.42531-0.42528v-0.48276l0.33333-0.0575 0.27585-0.27586 0.26436 0.78161 0.57471-0.19541-0.0115-0.49425-0.36786-0.17241 0.13797-0.47127 0.48276-0.023 0.16092 0.55172 0.0919-0.29884 0.34488-0.19541 0.29883-0.6092-0.046 0.97702 0.82758 0.0115v-0.22989l-0.37929-0.4138 0.39078 0.069 0.22989 0.29885h0.47127l0.0575-0.4023-0.48279-0.28735 0.73566 0.0115 0.34482 0.37931 0.10347-0.33334h0.67815l0.1839 0.31035h0.57471l0.91956 0.28736 0.40227 0.50574 1.1954 0.2069 0.45975 0.70115 1.1954 0.22988 1.3219 0.60921 0.86208-0.0575 0.62067-0.36782 0.81612 0.37931 2.5862 0.0575 0.51723-0.40231 0.90804 0.19541 0.41955 0.21264 0.59196 0.25862 1.2069-0.29885 4.3219-0.0804 2.6322-0.88506 2.3104-1.8736-0.20691-0.18392 0.27588-0.4023 0.54024-0.0115 0.63216-0.56323-0.0345-0.44827 1.0115-0.13793-0.0919 0.45977 0.47124 0.13793-0.0115 0.31035 0.55173-0.2184-0.35631-0.26437-0.0115-0.41379 0.20688-0.13793 0.11493-0.24138-0.75861 0.17242 0.89655-0.43679-2e-3 -0.0215 1.3086-1.715 0.43077-0.10565 2.3733-1.5199 1.3167-0.42264 2.1051-2.4708 0.65022-0.3251 1.3248-1.1541 1.1541-0.41451 0.8778-0.0406 1.78-0.50392 1.3492-0.91843 1.1054-8e-3 0.82089-0.60145-0.54456 0.91842 0.36576 8e-3 0.26823-0.59333 0.36573-0.0569 0.26823-0.36575-0.72339-0.13817 0.95097 8e-3 1.5686-0.27634 2.0807-1.0891 1.8287-0.79652 1.2435-1.0566 0.45513-0.0488 0.24384 0.50392 0.38199-0.13817-0.29259-0.18695-8e-3 -0.41451 1.1134-1.3248 0.88596-2.3814 0.76401-1.1135 0.66648-1.5686-0.14631-0.47953-0.18696-0.0488-8e-3 -2.6821-0.82904 0.0488-0.3495-0.1138 0.52829-0.764h0.32515l0.4145-0.41452 0.32512 0.34949 2.7065 0.0163 1.5199-0.60144h0.86966l0.0163 0.82089-0.36576 0.13818-0.0487 0.37387-0.6015 0.34949-0.0487 0.28447 0.31698 0.29259 0.29262 0.13005 0.21945 0.40639-0.54456 0.38201 0.84528-0.0975 0.0975 0.44703 0.29259-0.35762 0.73149-0.0406-0.0487-0.68272 0.46326-0.4389 1.0647-0.0244 0.53646-0.0894-0.35763-0.36574v-0.23571l0.52827-0.0894-0.41451-0.0731-0.47139-0.34136-0.0163-0.32511 0.45519-0.0163-0.86157-0.62584-0.0406-0.31698-0.8209-0.065-0.57708 0.0975 8e-3 0.22757-0.38198-0.2357 0.37382-0.59333 1.3004-0.82902 0.88593-1.2273 0.91842 8e-3 0.73152-0.65835 0.26821 0.19506-0.44704 0.63397-0.56079 0.27633v0.46329l0.30886 0.13005-8e-3 0.36574 0.83718 0.0244 0.29262-0.382 0.66645-0.12192 0.32511-0.61771 0.60144-0.0406-0.0813-0.62582-0.24384-0.0731-8e-3 -0.26821-0.36579 8e-3 0.36579-0.37386 0.36573-0.0325 0.2682-0.23571 0.24381 0.40639 0.0325 0.49579 0.56895-0.0163 8e-3 0.27634 0.27633-8e-3 0.54453-0.19506-0.86151-0.42264 0.0975-0.26821 0.75588 8e-3 8e-3 -0.43076 0.37389 0.15442 0.65022 0.0894 0.37386-0.53644-0.3576 0.24384-0.6096-0.0244-0.19506-0.24382 0.63399-0.42264-0.30888-0.2032-0.0487 0.30885-0.45513-0.0163-0.43077 0.29259-0.1707 8e-3 0.30072-0.69085-0.1788-8e-3 -0.32511 0.68273h-0.52833l0.18696 0.58519-0.28449 0.065-0.11379-0.36574h-0.53643v-0.28447l0.21948-0.0487 0.37425-0.57221 0.3333-0.046 0.18393-0.25287 0.73563-0.25287h1.0804l0.16092 0.25287 0.97704 0.35633 1.023-0.18392 1.6781 0.33334 2.3563 1.2989 1.3564 0.11495 1.3334 0.82759 1.2166 0.12947 0.39015 0.40836 1.5118 1.0729 0.81276 2.162 1.465 2.3408 0.94083 1.3654 0.3576 1.3655-0.0163 0.74775-0.34133 0.26009-0.32512 0.73148-1.3004 0.30886-0.50394 0.61771-1.2584 0.43611-0.90358 0.7993 0.021 0.4476-0.2859 0.31362-0.28782 0.16534-0.13005-0.30886-0.76401 0.0163-0.0163-0.27635-0.34138 0.26009-0.43887-0.1463-0.0813 0.34137 0.34335 0.21411 0.43692 0.15106 0.56418-0.37865 0.23233 0.24105-0.16258 0.27634-0.43887 0.37388 0.0325 0.45515-0.48768 0.17882-1.2935 0.64552 0.15169 0.48522-7.3782 2.2201-3.1817 1.1149-6.8553 1.6849-8.3658 15.356-2.1361-0.0917-0.32545-0.20676-2.9512 1.0866-0.20694-0.29489-1.46 1.1855 0.26719 0.8946-0.78729 1.0065-1.684 2.7272-1.4711 1.4681-0.62444-0.0639-1.1742 2.1591-0.22244 1.3408-0.79921 0.75229-0.15435 1.3771-1.2895 2.1741-0.92853 0.62048-0.38997 0.83153-0.77291 0.49165-0.43564 0.89811-0.0889 1.4102-1.3529 1.2262 0.0905 1.8633-0.42907 0.92589-0.0461 2.0233 0.0992 2.4968-0.25956 0.2164-0.0783 1.0288-0.20863 0.48646 0.0811 1.4348-1.1548 1.9231-0.21517 1.4944-0.56337 1.1021-0.28047 1.0032 0.15037 0.8427 0.15032 0.24276-0.31776 0.28442 0.20946 0.25734 0.96186 0.64926 0.11124 0.27039-1.2354 1.481-0.55677 1.6226-0.3937 0.43529-0.87822 1.2974-0.23352 0.92216-0.52986 1.0196 0.0952 0.52419-0.24756 1.1836-1.0947 0.0772-1.6677 1.6708-0.0745 0.69018-0.37128 0.26279-0.24246 1.2001-1.2368 0.89664-0.2184 0.65002-0.28416 0.30457-0.36954 1.0664-1.4315 3.1982-0.88962 0.933-0.0102 0.67698 1.3984 0.16757 1.4609 0.44339 1.0808-0.7323 0.88206 0.0661 0.32511-0.39016 0.84792-0.54092 0.30114-0.22283 0.18336-0.40322 1.2034 0.0701 0.13542-0.24371 0.21009-0.0819 0.13776-0.55975 1.2121-0.76305 0.31236-0.0729 0.2708-0.14216 0.24922 0.098-0.0387 0.2321 0.32029 0.20948-0.065 0.35764 0.28352 0.18545-4e-3 0.7165-0.22297 0.2455 0.29595 0.10362 0.40224 0.26201 0.22171 0.70459-0.65019 1.3116 1.191 1.2058-0.0396 0.42932 0.58387 0.27435 0.43332-0.37544 0.29724 0.0108 0.66921-1.1326 1.5454 0.24184 0.22623-0.52556 0.37053 0.34695-0.0477 0.25964 0.37278 0.46051 0.53111-0.25397 0.16191 0.43934 0.2128 0.47866 3.4867 14.368 0.41619 0.0446 0.35349 0.39552 0.31811 0.22333 0.44274 0.53784 4.9637 5.7281 0.24216-0.19936 0.24232 0.23947-0.036 0.3225 0.27945 0.28107 0.25761-0.0284-6e-3 1.1766 0.45144 0.19271-0.10866 0.69029-0.16503 0.22548-0.0831 1.0159 0.21606 0.16059 0.5007 1.3598-0.12471 0.40149 0.36024 2.0088-0.42258 0.48687 0.66069 0.7237 0.12345 1.1444-0.0787 1.1438-0.21957 0.11385-0.0179 0.19132-0.5208-0.78679-1.1492-0.28795-0.10929 1.1464-0.62415 0.51361-0.0521 0.33759-0.18744 0.16146 0.018 0.24947-0.68283 0.11757-0.1431 0.84566 0.42261 0.32513 0.29259 0.71523v1.528l-0.60144 0.60147 0.065 1.6743-0.42267 0.35762 0.0488 3.4624 0.35766 0.30885v0.71524l0.26007 0.1788 0.0325 0.9103-0.37389 0.32513v0.40638l0.35763 0.065 0.0325 1.3492 0.7965 0.63395 0.0163 1.3817 0.37388 0.50392 0.79651 0.27634 2.7634 0.30885 0.0975-0.16256h1.1866l0.40638-0.30885 1.1054-0.0162 0.82905 0.63395 0.1463 1.1216 0.27636 0.11379 0.0975 1.5768-0.0488 0.14629 0.0162 0.78028 3.596 6.1781 1.3065 0.76328 1.5894 0.0636 0.88992 0.0226 0.24132-0.42233h0.45252l0.2715 0.362h0.42234l0.42231-0.27151h0.87486l1.3877-1.2368 0.4827-0.12066 0.63351 0.54298 0.27147-0.362h0.27153l0.42231 0.81453 1.2067 0.0603 0.0302 0.27151 0.24135 0.0302 0.42231-1.1765h0.4827l0.48267 0.45252 0.81453-0.30167 0.21114 1.0558h0.45249l0.36204-0.51285 1.6592 0.15085 0.27147 0.33183h0.30168l0.30165-0.57317 0.2715 0.0603-0.0301 1.0558h0.2715l1.1463-0.724 0.0905-0.48265 0.48267-0.0302 0.78435 0.96534 1.4782-0.0302 0.33186-0.27151h0.90498l0.33183-0.42235h0.39216l0.48267 0.72402 0.36201-0.0302 0.36201-0.36203h1.629l0.33186-0.27148 0.63351 0.12066 1.0257 1.4178h1.448l0.24135 0.27152 0.99546-0.0603 1.5084-1.2972 1.448-0.57318 0.99552-0.93517 0.36201 0.45252h0.2715l0.33183-0.90503h0.36201l0.24135 0.45251h0.36198l0.30168-0.33184h1.3575l0.51282-0.27148 0.81453 0.0302 0.51282-0.60334h0.42234l1.2067 1.1463h1.81l0.33183-0.33184h0.57318l0.45249 0.39219 0.0302 0.72401 1.1162 1.0558 1.81-0.12065 0.78438 0.63348 0.75417-0.18099 1.7195 1.2368 0.543 0.60332h0.8145l2.2324-1.3877 0.87483 0.0603 0.99549-0.21116 1.3273-0.0301 20.984 26.146 1.1027 0.0325 0.82761-1.1494 0.73563 0.50572 0.32181 1.0115 0.55176 0.13794 0.32184 0.73563h0.68967l0.50577-0.50576 0.9195-0.046 1.0575-1.7012h0.87354l0.64371-1.6552h0.22989l0.41379-0.59771 1.3334 0.046 0.36777 0.45979 0.68967 0.22989 0.8736-0.50575h0.5517l1.5173 1.1954 0.3678-0.36781 0.41382-0.046 0.27585 0.36782h1.0115l0.55176-0.50576 0.82758 0.046 0.50577 0.68965 0.20784-0.55824 1.7278 0.0872 1.0069 1.4366 1.0115-0.32184 1.0575 0.22989 1.3334-1.2414h0.91953l0.41379 0.73562 0.41379 0.18392 0.82761-1.3334 0.50574 0.18392 1.8851-0.3678 0.046-0.59774h0.32181l0.55176 0.73565 1.4023-0.046 0.45975 0.34482 1.7472 0.046 1.2184-1.1724 0.50574 0.0919 0.48279-0.3678 0.9885 0.22989 1.3563-0.89655h0.71268l1.2644 0.7586 1.7242 0.046 0.32184 0.50573h0.41379l1.3793-1.4023h0.34482l1.2644-1.4023 0.55176 0.0919 0.59769-0.73565 1.0345-0.023 0.39081-0.34483h0.50577l0.75861 0.89656 0.25287-0.45976 0.55173-0.023 0.25287 0.50576 0.39081 0.046 0.68964-0.59771h0.82761l0.27585 0.34486 1.1724-0.069 0.64371 0.48277 0.9885-0.0919 1.0575 1.4713 0.78162-0.57472 0.39081 0.023-0.0231 1.0805 0.57471 0.16091 0.13791 0.82759-0.7356 0.2299-0.29886 0.62068 0.41382 0.59771-0.046 1.5402 1.3563 0.73562 0.59811 1.001-0.24435 0.81648-0.30777 0.45838-1.6322 1.4253-0.29883 0.85058-0.82758 0.32184-0.89655 0.75863 0.1149 0.29885-0.13791 0.22989-0.39078-0.13794-0.94257 1.3334 0.069 1.5862-0.52875 0.45976v0.39082l0.48276 0.3908-0.20691 0.57471-0.66666 0.32184-0.069 1.2644 0.6207 0.48274v0.36784l-0.3678 0.13792 0.39078 0.52874-0.34485 0.57471 1.0115 0.73562-0.0459 0.73566-0.78165 0.45978v1.2184l-2.4138 1.6552-0.5517 0.94252-1.2874 0.32185-0.50574 0.78162-1.1494 0.27586-0.0231 0.50576-0.64368 0.55172 0.0231 0.78159-0.36783 0.0919-0.0919 0.85059 0.55173 0.29885v0.52874l0.33528 0.25903-0.0159 0.97154-0.29655 0.19473-0.093 1.0092-0.16089 0.56871 0.85164 0.88189v0.55173l-0.25287 0.39082 0.68964 0.20687-0.0459 0.6667-0.48279 0.3908v0.59769l0.34482 0.41382-0.13794 1.8621-1.0804 1.0345 0.046 1.4483 0.55176 2.2069v1.0115l-0.82761 2.046-0.29886 1.954-0.39078 0.36782-0.046 1.1954 0.27585 0.36781 0.0231 1.0575 2.2069 1.5862 0.25289 1.4483 0.85057 0.91954 0.0689 1.6782-0.41377 0.25288-0.38619 1.9081-0.0736 1.3104 0.29886 0.36781 0.13794 1.2414 1.7472 1.6782 0.20687 1.6552 0.34482 0.25289-9e-3 0.69088 0.495 0.23696-0.065 1.4792-0.22758 0.21131 0.0162 0.32511 0.50394 0.74774 0.17877 1.0729 0.63399 0.55267 0.40638 0.97533 0.26007 0.16254-0.16257 0.52017-0.26007 0.13007 0.0325 0.71523h0.27633l0.89406 1.4142 0.68271 0.0325 0.24384 0.42264 0.37389-0.0812 0.22755-0.35762 0.74778-0.11379 0.24381-0.66646 0.5202-0.0813 0.0975 0.39013 0.47139 0.30884 0.11379 1.2517 1.1379 1.2354 0.0162 0.73149 0.42264 0.27636-0.0488 0.87778-0.35763 0.30885 0.14634 0.53643 0.48765 0.26008 0.0162 0.55268 0.63396 0.91032-0.0325 1.2029 0.40636 0.65021 0.89406 0.0975 0.86154 0.52019 0.30885 0.89405 0.63399 0.61769-0.0162 0.79654-0.52017 0.35761-0.0325 0.87778-0.48768 0.5852-0.73149 0.2926-0.40638 0.53642 0.11376 0.95908-1.1379 0.26009-12.777 12.013-0.0325 1.3167 0.63399-0.48765 1.5117 0.0487 0.29259-0.35761 0.50394-0.0163 0.29256 0.68273 1.4143 0.52016h1.2842l0.50391-0.53642 0.56895 0.0488 0.58521 0.71523-0.065 0.48765 0.42264 1.0729 0.65019 0.6177-0.065 0.69897-0.40641 0.37388 0.19506 0.82905h0.39015l0.45513-0.48769h0.63399l0.16254 0.21131 0.47142 0.0813 1.8206 2.2433 0.66648 0.26008 0.48765 0.8453 1.4792 1.0241 0.27636 1.0241 1.0728 1.6743 0.95907 0.0975 1.0892 1.4142 1.0403 0.73147 0.0325 0.84528-0.68274 0.73148-0.40635-0.0162-0.0488 0.21135 0.43887 0.39012-0.065 0.53643-0.34137 0.22757 0.065 0.63397 0.30882 0.0325 0.35763 0.56895 0.19506 1.5443 0.55269 0.21132 0.47142 1.2354h0.47142l0.29259-0.37388 0.30885-0.0162 0.45513 0.39012v1.2354l0.45519 0.17883-0.0162 0.91029-0.29262 0.21132-0.21129 1.3167-0.48768 0.3576 0.0813 0.30885 0.73149 0.30885 1.0403 1.5605 0.19509 1.2191 0.86154 1.0404-0.0813 0.34137-0.26007 0.1788v0.30885l0.32511 0.30885 0.065 0.87777 0.63396 0.74777 0.48768 2.0482 0.37383 0.26013 0.16257 1.0728 0.5202 0.40637 0.0975 0.39012-0.48768 0.42265 0.14634 0.30885 0.40635 0.11382 0.065 0.45516 0.4389 0.30885 0.40635 1.4467 0.66648 0.39012 0.0975 0.94285-0.32508 0.30885-0.0325 0.60144 0.30885 0.6177 1.2679 1.0566 0.14631 0.94279 0.24384 0.16257v0.32511l-0.27636 0.24381v0.2601l-0.42264 0.68273 0.0162 1.9019 0.34137 0.32511-0.0325 0.66648-5.6732 1.5442h-0.40635l-0.39018-1.1379 0.0325-1.0078-0.60144-0.66651-0.0162-2.9748 0.3576-0.53642-0.065-2.1295-0.81276-1.6093-0.37389-2.1132-0.56892-0.74772-0.45519-2.0645-0.0162-1.6093-0.60148-0.97532-1.9669-1.5118-1.1866-1.0729-1.2029-1.6906-0.065-1.7718-0.55273-0.82905 0.0162-3.8038 0.42264-0.42264v-0.24382l-0.42264-0.29261-0.0162-0.60147-1.9344-1.1216-1.0566 0.0162-3.5924 3.3974-3.9989 3.2673h-2.1945l-0.97537 1.0079-1.5442 0.73145-0.32512 0.60147-0.79652 0.27634 0.0162 0.37389 0.60148 0.43889-0.0162 0.60145 0.39009 0.39012-0.065 0.40637-0.19506 0.14632-0.1788 1.1379-1.1542 0.0325-2.7472-1.4305-1.9832-2.0319-0.0975-0.63397-1.3654-1.528-0.78024-0.21131-1.2354-1.1379-0.8778 0.0162-0.34134 0.89405-0.81279 1.0404-0.0162 0.89404-0.29259 0.53643-0.6177 0.4064 0.0325 0.37387 1.3329 0.0812-0.0162 0.7965-0.30891 0.16257v0.69897h0.53646l0.29259-0.34137 0.84528 0.0325 0.0813 0.4389 0.16253 0.14627 0.0162 0.40642 0.58518 0.17883-0.0325 0.82902h-35.713l-0.45513-0.45517-0.71523 0.0162-0.52017-0.60144-1.1379-0.0975-0.30885-0.21135h-0.81276l-0.16254-0.22758-1.2192-0.35761-0.27633-0.21132-0.73146 0.0162-0.34137 0.43887-0.97533 0.2601-0.81279 0.89405h-1.8043l-0.39018-0.37385-0.76398 0.11378-0.30885 0.27634h-0.52017l-0.60144 0.55268-1.6293 0.0548 0.0125 19.075 0.28737 0.19542 0.29886-0.16093-0.12645-0.32183 0.90804-0.81613 0.6552 0.0114 0.21837-0.32185 1.2644-0.0114 0.13791 0.55173-0.31032 0.2184-0.046 0.33332h0.50574l0.19542 0.37933 0.28737 0.046 0.0345-0.35631 0.5862-0.29886 0.57474 0.069 0.1839-0.37932 0.68964 0.0231 0.4023 0.58618h0.54024l0.55176 0.4023 1.1264-0.0804 0.3678-0.29886 1.3448-0.0575 0.27585 0.36783 0.52875-0.10347 0.10347 0.70115 0.50574 0.31035 0.069-0.41378 0.39078-0.069 0.54027-0.80459 1.3103 0.046 0.14946-0.22986 0.19539-0.0575 0.29883 0.62071 0.41382 0.27585 0.43677-0.0231 0.10344 0.27589 1.046 0.0345 0.22989 0.26437-0.0115 0.34481 0.67818 0.31036 0.32184 0.39081-0.0115 0.62067-0.31035 0.12645-0.0345 0.55172 0.4713-0.0345 0.12642 0.31032 0.52875 0.0231 0.37932 0.31038 0.023 0.27586-0.85056 0.28733v0.34486l0.50577 0.36783 0.0689 0.44826 0.35634 0.28734 0.71265-0.0804 0.0115 0.88503-0.57471 0.0114-0.32187 0.29887-0.023 0.81609 0.29883 0.0231 0.0575 0.40231 0.31038 0.092-0.0115 1.1839-0.47127 0.092-0.29883-0.20692-0.4368 0.45976v0.85058l0.41379-0.0804 0.12645 0.3678 0.7701 0.2184 0.26439 1.0575 0.72414 0.52875-0.37929 0.58621-0.35637-0.39081-0.59768 0.0231-0.17242-0.36779h-0.7701l-0.36786 0.48273 0.11496 0.45978-0.90804 0.87357-0.44826 0.0231-0.11499-0.25288-1.3218-0.0919-0.023-0.31034 0.22989-0.19542v-0.72414l-0.35634-0.21837-0.50571 0.68964h-0.4023l-0.14946-0.4138-0.29883 0.0805-0.0575 0.57471-0.33336 0.34482-0.34482-0.0114 0.13791-0.70116-1.5747-1.0919-0.85056-0.94255 0.0115-0.50573-1.1264-0.58623-0.20694 0.33333-0.85056 0.34485-0.63216 1.1034-0.56325 0.32183-0.37932-0.10343-0.56322 0.58623-0.37932 0.0575 0.37932 0.26436-0.65517 0.7586-0.4023-0.0689 0.0345-0.35631-0.67815-0.26439 0.0115-0.34482-1.2529-0.34482-0.10344 0.4023-0.85056 0.57471-0.34485 0.68967-1.3793 0.45978-0.44829 0.51722-0.8736 0.092-0.26436-0.40234h-0.4023l-0.81609 0.34486-1.3908-0.20692-0.54024 0.78162-0.59769 0.0345-0.47124-0.74715-0.75864 0.37932 0.35631 0.26439-0.36777 0.36782-0.60924-0.0231-0.31035 0.33329v20.184l0.54027 0.70116-0.023 0.41381-0.31038 0.34482v0.58621l0.37932 0.32187 0.31035 0.82758 1.2529 1.3678 0.74712 0.29885 0.87357 1.0919 1.8736 0.2644 0.59769 0.88503 1.4828 0.58622 1.7471 1.5518 1.4483 0.7356 1.0574 0.26439 0.32184 0.60918 0.36783 0.11496 0.24138 0.29885-0.33333 0.1954 0.046 0.33336 0.60918 0.42527 0.023 0.82758-0.37929 0.2184 0.069 0.32185 1.0345 0.74712 0.0575 0.91953-0.35634 0.22988-0.0115 0.42532-0.75864 0.64368v0.8391l-0.88509 0.70113 0.16095 0.29886 0.57471 0.0804 0.68967 1.2759 0.85056 0.68967-0.023 0.70113 0.90807 0.63222v0.3678l0.40227 0.19539-0.0805 0.4253-0.37932 0.13794 0.069 0.35632 0.8046 1.1149 0.68967 0.0575 0.60918 1.2069 0.5862-0.16091 0.52875 0.41379-0.12642 0.31035-0.54024 0.26435 0.10344 0.27586 0.44829 0.0919v0.4713l0.37929 0.31032-0.30459 0.52878 0.0747 0.39078 0.37929 0.16091 0.72414 0.89656-0.11493 0.31035-0.22989 0.0575-0.54021 0.65518-0.0805 1.4712-0.50577 0.12645 0.069 0.54025 0.28737 0.20687-0.0345 0.56325 0.51729 0.41377 0.0344 1.9426 0.33336 0.24139-0.17241 0.73566-0.4368 0.046-0.35631 0.43677-0.16092 2.4138-0.67818 0.49426 0.33333 0.90807 0.19542 0.1494-14.943 80.989-0.78162-0.8851-0.31035-0.8851-0.19542 0.3678 0.24138 0.2299-0.42528 0.3564-0.33333-0.2759-0.092-0.6092-0.40233-0.2988 0.16095-0.4368 0.71265 0.1264 0.0919 0.3104 0.4023 0.023-0.45978-0.4713-0.70116-0.2184-0.88503-0.9425-0.069-0.6207-0.49425-0.2874-0.12642-0.5057-1-1.092-0.52872-0.1379-1.0345-1.3102-0.17238-0.64374-0.55173-0.80458v-0.52874l-0.52875-0.34486-0.0689-0.44825-0.046 0.48279 0.35634 0.19539 0.046 0.47124-0.19539 0.10347-0.39081-0.25287-0.17241-0.48276-0.72414-0.4023-0.50574-0.68967-0.51726-0.12645 0.0115-0.39078 0.55173-0.31038 0.63222 0.2414 0.86202 1.0115 0.22992-0.0919-0.87357-0.97701-0.41379-0.18393-0.52875-0.58618-0.47127 0.0231-0.57471-0.27588-0.10344 0.21837 0.3678 0.25289-0.046 0.62071-0.47127 0.42528-1.2759-0.16092-0.77013 0.83907h-0.29886v1.2069l-0.50574 0.0345-0.13794-0.45978h-1.0919l-0.54027-0.36783 0.24141-0.59775 0.47124-0.19539 0.97704-1.0345 0.95403-0.44826-0.22989-0.22992 0.19539-0.0919 0.17244 0.11496 1.8161-0.0689 0.0115-0.138-1.7012-0.0344-0.20688-0.26439-1.092 0.94254-0.66663 0.91956-0.79311 0.24138-0.39084 0.51723-2.1609-0.11494-0.10341-0.18392-0.48279-0.0114-0.10344-0.32181-0.25287 0.0228 0.19539 0.35634-0.16092 0.57471-0.59769-0.0345-0.41382-0.3678-0.35631-0.0231-0.0575-0.7356 1.4253-0.0575 0.0115-0.14943-1.5287-0.0231-0.14943 0.42528-0.54024 0.0231-0.0689-0.43677-0.4023-0.069-0.72414-1.1839-0.50574-0.21843-0.68967 0.21843 19.189-31.185-0.4476-0.31557 0.0163-0.56892 0.34137-0.11379 0.11379-0.52017-0.34137-0.13005 0.29259-0.48768-0.87777-0.79653-0.11382 0.63399-0.50391 0.43886-0.4389 0.94285-0.78027 0.19506-0.0488-0.39012-0.50393-0.42264 0.29261-0.39015 0.0325-0.58519 0.27636-0.24383-0.66645-0.56892-0.48768 0.43887 0.0325 0.2601-0.58521 0.26007-0.48767-0.34137 0.21132-0.27633-0.34135-0.35761 0.0325-1.7393-1.0729-0.89406-1.4305 1.1704-1.1541-0.14632-0.2601-0.69897 0.89403-0.52016 0.89409 0.0162 0.35763-0.5364-0.81279-0.65022-0.55268 0.34136-0.39013-0.0813-0.48765-0.4551-0.60147 0.1788-0.24381 0.5364-0.73155 0.47141-0.69894-0.0325-0.42266-0.39012 0.16256-1.1054-0.42263-0.71526-0.45513 0.0325-0.35766 0.74778-0.71523-0.16257-0.65022-1.398-0.84528-0.32511-0.91032 0.13005 0.0975 0.19506 0.97536 0.42267 0.39012 0.52014-0.13002 0.45516-0.74778 0.19503-0.32511 0.22761h-0.48768l-0.9753-0.78027-0.0325-0.71524 0.45513-0.19505-0.065-1.2354h-0.22758l-0.13005 0.55269-0.91029 0.065-0.42264-0.26007-0.065-0.55269 0.58521-0.16257 0.19506-0.58518-0.55269-0.52017-0.65022 0.13005-0.3576-0.35763h-1.0078l-0.97533-1.528h-0.35763l-0.39012 0.45513-0.61767-0.065-0.74778-0.81276 0.13005-0.78024-0.74778-0.78027-1.0728 0.065-0.94281 0.87783-0.71526-0.0975-0.52017-1.1054-1.0728 0.0975-0.32511 0.61774 0.87777 0.84528 0.19506 0.74772-0.52017 0.58521-1.3004-1.3004-1.723 0.19503-0.45516 0.52017-0.6177 0.29259-0.0976 0.39015 0.4227 0.29259 0.0325 0.48768 0.61773 0.42267 0.0325 0.78023-0.8778 0.81277-0.52017 0.0325-0.48765 0.29259-0.35763-0.16257-0.065-0.58518 0.42264-0.45516-0.0975-0.13002-0.78027 0.19505-0.68271-0.61769-0.0976-0.39015h-0.48765l-0.87777 1.463-0.52017 0.065-0.0976-0.32511 0.35763-0.39012 0.0325-0.8778-0.32508-0.19506-0.5202 0.58518-0.35763 0.78027-0.97533 0.2601-0.35757-0.48769-0.0976 0.16258 0.065 0.39009-0.81276 0.55269-0.39015-0.19506v-0.78025l0.29259-0.13005v-1.0403l-1.1054-0.42264-0.97533-1.6906h-0.55266l-0.39012 0.39012 0.13002 1.4305 0.32511 0.32511-0.065 0.45513-0.58524 0.13005-0.29259-0.74775-0.52017-0.32511 0.0325-0.2601 0.42267-0.32511 0.16254-1.3004-0.55269-0.58518-1.3979 0.065-1.1379-0.58525-0.91032-0.26007-0.32508-0.52016-0.65022 0.065-1.398 0.91029-0.42267-0.0325-0.26007-0.97533 0.35763-0.19506 0.32511-1.0078-0.55269-0.52023-0.74772 0.39015-0.35766 0.74775-0.81276 0.39012-0.16257 0.58521-0.29259 0.0325-0.29259-0.61772h-0.32508l-0.32511 1.2679-0.65025 1.1379-0.29259 1.3004-0.68271 0.13002-0.32511-0.32511-0.35763 0.32511h-0.29259l-0.19506 0.78027 0.65019 0.65022 0.065 0.6177-0.58521 0.13005-0.22755-0.74775-0.42267-0.22755-0.78027 0.6177-0.87777-0.0975-0.81279-1.0728-0.55269 0.0975-0.9753 1.3004-1.6256 1.0729-0.0975 0.45512 0.42264 0.2601 0.0325 0.61771-0.61767 0.58518-0.45519-0.0975v-1.268l-0.35757-0.22756-0.13008 0.65022-1.1704 0.2926-0.22758-0.22761 0.32514-0.35757-0.87783-0.13008-0.3576 0.65022 0.45516 0.68271-0.16257 0.39015-0.58521 0.0325 0.13008-0.52017-0.55269-0.55269h-0.26007l0.0325 0.68271-1.658 0.22758-0.35763 0.32508h-0.45516l0.13005-0.48762-0.42267-1.1054-0.26007-0.0325-0.26007-0.65022h-0.42267l-0.52017 0.78027h-0.29259l-0.48765-0.5852h-0.74775l-0.55272 0.94281-0.26007-0.065-0.16254-0.78027-2.0482 0.13005-1.1379-1.5605-0.2601 0.32511-0.42264 0.065v1.0078l-0.81276 0.58519-0.19509 0.97533-0.71523 0.0975-0.39012-0.35763 0.39012-0.19506v-0.97534l-0.74775-0.65021-0.74772 0.32511 0.29259 0.29259-0.065 0.81276-0.68271 0.16257v-0.84525l-0.71526-0.74778-0.22758 0.26009 0.19506 0.39012-2.1457 1.3004-1.4305 0.0325-0.9753 0.97532-0.2601-0.26007 0.0325-0.5852 0.42267-0.32511-0.0325-0.48765-1.0403-0.6177-0.2601-0.78027 0.45513-0.35763-0.0325-0.55269-0.84528 0.22758-0.48765 0.55269h-0.35763l-0.48765-1.463h-0.45516v1.3329l-0.45516 0.39015-0.42264-0.55272 0.29259-0.48765-0.3576-0.87777-0.13008 0.58518-1.1703 0.35763-0.48771-0.39015v-0.29259h0.3576l0.35766-0.55269-1.2029-1.1704-0.61773-0.19506-0.0325-1.1704-0.19506-0.0975-0.0325-0.42267 0.8778-0.45516h0.71523l0.16254-1.4305 0.87783-0.74778 0.48765 0.065 0.0975-0.97533-0.84528 0.0975-0.55266-0.48765 0.065-0.45516h0.26013l0.39009-0.48765-0.39009-0.48765h-0.52023l-0.52017-0.87783 0.0976-0.45513 0.39012 0.0975 0.32511-0.55269v-1.0729l-0.45516-0.22755v-0.29262l0.39018-0.16257 0.0975-0.42264-0.58521-0.74772-0.3576 0.22755-0.48768-0.3576v-0.74775l0.26007-0.16257 0.0325-0.84528-0.58518-0.32511-0.45516 0.39012h-0.45513l-0.0325-0.78024-0.8778-1.0729-0.48765 0.52017 0.32508 0.22758v0.74775l-0.45513 0.39012-0.48765-0.0325 0.16254-0.68272-0.68271-0.3251-0.65025 0.0325-0.39015 0.29258-0.065 0.61771 0.3576 0.065v0.6177l-0.55269 0.19509-0.0975-0.5202-0.48768-0.29259-0.52017-0.68272-0.52017 0.26007-0.42264-0.58517h-0.42267l-0.0325 0.3576-0.55266 0.32511-0.48765-0.39012 0.0975-0.6177-0.68274-0.78027h-1.4955l-1.0729-0.97533 0.0325-0.39012 0.26007-0.0975 0.58521-0.78027v-0.42262l-0.35763-0.19508-0.0325-0.29262 0.3576-0.0325 0.81276-1.0728 0.61773-0.29259v-0.68272l-0.22758-0.0325-0.35763 0.42263h-0.29259v-0.29258l-0.29262-0.16257 0.0325-0.55269h0.55269l0.0325-0.8778-0.52017-0.0975-0.13005-0.19507 0.52017-0.45512-0.22758-0.55269h-0.39012l-0.42264 0.35759-0.65019-0.4226 0.3576-0.32514-0.3576-1.0729-1.3005 0.065-0.29259-0.3576 0.39012-0.35763 0.32511 0.16256 0.42267-0.065 0.22755-0.48765-0.58518-0.58521-0.2601 0.13005-0.3576-0.32511 0.3576-0.2601 0.0325-1.4955h-0.22755l-0.42264 0.71523h-0.29259l-0.13005-0.84528-0.52017-0.26007 0.2601-1.3005-0.32511-0.0975-0.3576 0.48768h-0.71529l-0.45513-1.2679h-0.32511v0.32511l-0.52017 0.45513h-0.71523l-0.13005-1.2029-0.58521-0.71527 0.19506 0.68275-0.52017 1.3654-0.48765 0.0975-0.35763-0.68271h-0.16254l-0.22758 0.29259-0.48765 0.0325-0.39015-0.68274h-1.2354l0.0724-0.71374-0.29997-1.0093-0.45516-0.26007v-0.97533l-0.68274-0.45514-0.45513 0.065v0.22758l-0.6177 0.39012-0.42267-0.2601 0.0325-0.55269 0.52017-0.22758v-0.39012l-0.6177-0.39012-0.61767 0.42264 0.32511 0.32508-0.45519 0.58524h-0.22755l-0.26013-0.55272-0.42264-0.32511-0.45513-0.84529 0.58518-0.87776-0.29259-0.42267 0.0975-0.58518h-0.22758l-0.71523 0.6177 0.32511 0.61772-0.52017 0.68272-1.0078 0.065-0.97533-1.0078-0.78027-0.13002-0.29259-0.58524h-0.74778l-0.3576 0.39015-0.81279 0.0325-0.74772-1.0729-0.61773-0.0325-0.22758-0.61769 0.35766-0.22758 0.065-1.1704-0.71526-0.68275h-0.74775l-0.29259-0.39011 0.42264-0.48765 0.58518-0.0325 0.58521 0.52017 0.45516-0.26007-0.32511-0.29262v-0.58518l0.58521-0.19509 0.13002-0.6177-0.45513-0.26007-0.35763 0.48765-0.48768 0.16254-0.29259-0.74772 0.26007-0.29262 0.0325-0.29259 0.39015-0.13002-0.48768-0.39015-0.3576 0.55269h-0.45516l-0.19506-0.35763 0.32511-0.26007v-0.48766h-1.1054l-0.87783-0.87782 0.27636-0.6177 0.61773 0.065 0.42261-0.2601 0.065-0.60144-0.65022-0.0812-0.53646-0.79653-0.0325-0.68274 0.43893-0.0975-0.0162-0.66646-0.95913-0.47141-0.065-0.5202 0.35763-0.065-0.0406-0.63633-0.20319-0.38775h-0.27633l-0.32511 0.65022-0.21132-0.0162-0.0325-0.24384-0.32511-0.26007-0.0163-0.58521 0.39015-0.24381-0.11379-0.78027-1.2191 0.13005-0.22762-0.66652-0.45512 0.13006v0.39015l-0.32512-0.13005-0.0976-0.99159-0.3576 0.13005-0.24381 0.47138-0.32511-0.17879-0.0813-0.82902-0.66651-0.56892-0.0975-0.68274-0.89403-0.55269-0.73149 0.0162-0.0488-0.2601 0.35763-0.26007v-0.37386l-0.63396-0.0162-0.53643 0.22755-0.0813 0.50391-0.45517 0.0325-0.13004-0.27633-0.52017-0.2601 0.0487-0.26007 0.42264-0.30886-0.14629-0.53642-0.69899 0.34137-0.22758 0.60144-0.34134-0.065-0.065-0.27636-0.43889-0.19507-0.065-0.42263 0.42265-0.29259v-0.42267l-0.78027-0.48765 0.0487-0.94281-0.39012-0.34134-0.0975-0.71529-0.47139-0.71523-0.66648-0.24381-0.30885-0.68274-0.48765 0.2601-0.14628 0.60144-0.73156 0.47139-0.0487 0.6665-0.69897 0.0488-0.26007-0.39018-0.22758-0.0162-0.34137-0.82902-0.65026 0.0488-0.065 0.35763h-0.2113l-0.32511-0.37389-0.0813-0.6177-0.26008-0.1788-0.47141 0.0162-0.29259-0.91029-0.94284-0.065-0.78027-0.84528-0.68271-0.065v-0.60144l-0.24381-0.40638-0.63396-0.065-0.1788-0.22758-1.0404-0.0162-0.87774-0.39012-0.27636-0.5202-0.92658-0.0975-0.69897 0.52021-0.29262 1.0566-0.52014 0.34136-0.11379 0.48766-1.1054 0.0162-0.16257-0.34134-0.32511-0.0488-0.42261 0.11379-0.50391-0.0325-0.43893-0.6177-0.95907 0.0488-0.16257 0.39012-0.27633 0.0162-0.82902-0.56892-0.30885-0.47142-0.7152-0.60147-1.463-0.39012-0.39015-0.68274-0.61767-0.3576-0.73155 0.11379-1.4467-1.4955 0.0163-0.48765-0.30881-0.14628-0.50395 0.34134 0.0163 0.47145-2.1132-0.14634-0.29259 0.35766-0.73152-0.0162-0.32511-0.42267-1.6905-0.37389-1.1704-1.6255-0.60144 0.0325-0.2601-0.37386-1.1541-0.3414-1.0729-1.1216-0.14631-0.86153-0.82902-0.79654-0.29259-0.55268-0.68274-0.26007v-0.22758l0.35766-0.22758 0.0487-0.32508-0.81279-0.97534-0.76401 0.065-0.48765-0.63396-0.0488-0.4389-1.0404 0.24381-0.13005 0.4389-0.53643 0.0162-0.0325-0.58518 0.34137-0.19507-0.69897-0.95907h-0.53644l-0.17879-0.40637-0.43887 0.40637v0.39013l-0.66651-0.0325 0.0162-0.30885-0.40641-0.30886-0.1788 0.48766-0.42261-0.21132-0.0162-0.92658-0.60143 0.065 0.065 0.32513-0.42264 0.32512-0.78026-0.68274 0.0975-0.42264-0.894-0.21132-0.60146 0.58518-0.0487 0.99159-0.60148-0.0325-0.21129-0.37389-0.6015 0.0975-0.24381 0.30885-0.45513-0.14628 0.0826 4.56-0.17301 0.17484-0.70503 0.0478-0.25546-0.41403-0.13812-0.0633-0.2699 0.27277-0.87793 0.0474-0.64971 0.1203-0.10356-3e-3 -0.684-0.27455-0.33165-0.0334-0.16583-0.0168-0.14286 0.0347-0.28585 0.0697-1.1829 0.67347-0.36825-0.20508-0.40008-0.2115-0.0587-0.0576-0.15632-0.3384-0.50917-0.18633-0.30252 0.22869-0.0817-0.0132-0.0753-0.0639-0.33243-0.44718-0.15083-0.0261-0.59719-0.14199-0.84905-0.12987-0.16353-0.0195-0.88782 0.33558-0.0694 0.13371 0.18828 0.1854 0.0436 0.11487-0.0631 0.1274-0.93746 0.0804-0.0375-0.15312-0.23875-0.10902-0.25145-0.0836-0.37132 0.0819-0.30878 0.22871-0.0692-0.0192-0.1321 0.0379-0.30279 0.3627-0.27029-0.0282-0.50944-0.0757-0.1508-0.0642-0.50197-0.0219-0.49086-8e-3 -0.59424-0.16887-0.38696-0.20376-0.69094-0.18309-0.89163-0.0291-0.71429-0.40017-0.17469 0.0408-0.50352 0.19008-0.54663-0.35844-0.15942 0.0144-0.69579-0.14405-0.1444-0.24267 0.13899-0.40779-0.067-0.18375-0.29062-0.30168-0.25034-0.46171z" fill="#fff" fill-rule="evenodd" stroke="#000" stroke-linejoin="round" stroke-width="5"/>
<g transform="matrix(.9533 0 0 .88708 2.8246 34.593)">
<path d="m393.08 245.04v-20.159h13.82v3.4102h-9.7493v4.7715h8.4155v3.4102h-8.4155v8.5668z"/>
<path d="m428.45 245.04h-4.4278l-1.7601-4.579h-8.058l-1.6638 4.579h-4.3178l7.8517-20.159h4.304zm-7.4942-7.9755-2.7777-7.4804-2.7226 7.4804z"/>
<path d="m430.64 245.04v-20.159h8.5668c2.1543 2e-5 3.7196 0.18107 4.6959 0.54315 0.97629 0.36213 1.7578 1.0061 2.3445 1.932 0.58668 0.92591 0.88003 1.9847 0.88005 3.1764-2e-5 1.5126-0.44462 2.7616-1.3338 3.7471-0.88924 0.98549-2.2185 1.6066-3.9877 1.8632 0.88004 0.51337 1.6065 1.0772 2.1795 1.6913 0.57294 0.61421 1.3453 1.7051 2.317 3.2727l2.4614 3.9327h-4.8678l-2.9427-4.3865c-1.0451-1.5676-1.7601-2.5554-2.1451-2.9633-0.38504-0.40793-0.79298-0.68753-1.2238-0.8388-0.43087-0.15125-1.1138-0.22688-2.0489-0.22689h-0.82505v8.4155zm4.0702-11.633h3.0114c1.9526 1e-5 3.1718-0.0825 3.6577-0.24752 0.48585-0.165 0.86628-0.44918 1.1413-0.85255 0.27501-0.40334 0.41251-0.90754 0.41253-1.5126-2e-5 -0.67835-0.18107-1.2261-0.54316-1.6432-0.36212-0.41709-0.87319-0.68065-1.5332-0.79067-0.33003-0.0458-1.3201-0.0687-2.9702-0.0688h-3.1764z"/>
<path d="m463.87 237.63 3.9465 1.2513c-0.60505 2.2001-1.6112 3.8342-3.0183 4.9022-1.4072 1.068-3.1925 1.602-5.3559 1.602-2.6768 0-4.877-0.91443-6.6004-2.7433-1.7234-1.8288-2.5852-4.3292-2.5852-7.5011-1e-5 -3.3552 0.86629-5.961 2.5989-7.8173 1.7326-1.8563 4.0106-2.7845 6.8342-2.7845 2.466 2e-5 4.469 0.72881 6.0091 2.1864 0.9167 0.86173 1.6042 2.0993 2.0626 3.7127l-4.029 0.96256c-0.23836-1.045-0.73568-1.8701-1.492-2.4752-0.75631-0.60501-1.6753-0.90753-2.757-0.90755-1.4943 2e-5 -2.7066 0.5363-3.6371 1.6088-0.93048 1.0726-1.3957 2.8098-1.3957 5.2116 0 2.5485 0.45836 4.3636 1.3751 5.4453 0.91671 1.0817 2.1084 1.6226 3.5752 1.6226 1.0817 1e-5 2.0122-0.34376 2.7914-1.0313 0.7792-0.68753 1.3384-1.7693 1.6776-3.2452z"/>
<path d="m478.67 239.67v-3.864h7.5904v3.864z"/>
<path d="m496.35 245.04v-20.159h14.947v3.4102h-10.877v4.469h10.121v3.3964h-10.121v5.4866h11.262v3.3964z"/>
<path d="m515.16 245.04v-20.159h6.5316c2.4751 2e-5 4.0886 0.10086 4.8403 0.30252 1.1551 0.30253 2.1222 0.96028 2.9014 1.9732 0.7792 1.013 1.1688 2.3216 1.1688 3.9258-2e-5 1.2376-0.22461 2.2781-0.67379 3.1214-0.44921 0.8434-1.0199 1.5057-1.712 1.987-0.69214 0.48129-1.3957 0.79985-2.1108 0.95568-0.97174 0.19252-2.3789 0.28878-4.2215 0.28877h-2.6539v7.6042zm4.0702-16.748v5.7203h2.2276c1.6042 1e-5 2.6768-0.10541 3.2177-0.31627 0.54086-0.21083 0.96484-0.54085 1.272-0.99006 0.30709-0.44918 0.46064-0.97171 0.46066-1.5676-2e-5 -0.73336-0.21545-1.3384-0.64629-1.8151-0.43087-0.47668-0.97632-0.77461-1.6364-0.89381-0.48587-0.0917-1.4622-0.13749-2.9289-0.1375z"/>
</g>
<path d="m540.67 368.58c-0.14627-0.16961-0.31418-0.0923-0.44086 0.0589-0.0151-0.0792-0.0267-0.16394-0.0309-0.25799-0.0321-0.73273-19.578-11.62-21.587-12.708-2.0098-1.0879-3.715-0.92905-4.8836-0.94298-1.169-0.0144-2.3292-0.66363-3.504-1.4791-1.1303-0.78451-8.8559-5.9057-10.579-6.7737l0.10411-0.20465-0.65802-0.27777-0.72522-2.0638 0.6829 0.28828-0.36107-1.5104-0.8823-0.37245-0.85692-2.439s-0.14711-0.21678-0.4445-0.61903c-0.1526-0.20628-0.89415-0.58517-0.89415-0.58517l-37.598-15.871 0.50118-1.3066c-0.0979-0.0413-0.19023-0.0811-0.28495-0.12142-0.0233-0.11784-0.0948-0.22684-0.23984-0.32092l0.0287 0.0122c0.0433 0.0183 0.0918-3e-3 0.10862-0.047l0.0614-0.15997 0.2116 0.0893c0.11704 0.0494 0.24919-7e-3 0.29515-0.12725l0.13435-0.35028 0.77484 0.32707 0.29017-0.75645-0.63712 0.1304-0.0659 0.17196-0.31117-0.13135c-0.017-0.0719-0.0623-0.13617-0.13422-0.16646l-0.93109-0.39303c-0.072-0.0304-0.14702-0.017-0.20695 0.0225l-6.0954-2.573c7e-3 -0.22908-0.1237-0.45053-0.34276-0.54345-0.24414-0.10307-0.51569-0.0122-0.65285 0.20314l-2.4564-1.0369c-0.26783-0.11306-0.57002 0.0171-0.67497 0.2906l-0.44299 1.1549-1.0108-0.42667 0.0738-0.19225c0.10484-0.27334-0.0273-0.58676-0.29498-0.69985l-0.61827-0.26098c-0.0407-0.16166-0.1513-0.30372-0.31339-0.37211l-17.501-6.7476c-0.21569-0.0911-0.45161-0.0226-0.59122 0.14838l-0.41674-0.17591c-0.26786-0.11306-0.57003 0.0171-0.67494 0.29072l-0.021 0.0548-2.628-1.1093-0.13193 0.34391-11.791-4.9774c-1.7494 1.4986-4.1664 3.5139-7.4679 2.1203l-0.15826 0.41255-11.05-4.6646 0.18467-0.48144-0.47662-6.5126 0.60659-1.5814c0.10484-0.27332-0.0274-0.58626-0.29545-0.69943l-2.1294-0.89886c-0.26784-0.11306-0.56985 0.0166-0.67469 0.28996l-2.5056 6.532-0.53904-0.22754-0.18468 0.48143-0.6738-0.28442-0.18466 0.48144-0.48375-0.2042 0.13753-0.35858-1.8206-0.76852c-0.95822 1.0733-2.8112 1.2099-3.989 0.91273-0.0123-3e-3 -0.022-0.0104-0.0333-0.0155l-0.29055 0.75745 4.9862 2.1048 0.1131-0.29483 0.48376 0.20422-0.15827 0.41254 1.2804 0.54049-0.3165 0.8251 0.6202 0.2618c0.0678-0.0987 0.17331-0.16841 0.29864-0.20802l-0.37394 0.97484 1.3476 0.56887 0.1055-0.27506 19.473 8.2199-0.13193 0.34391 1.2129 0.51197 0.13192-0.3439 13.611 5.7453-0.31651 0.82512 0.48758 0.20581c0.0546 0.12173 0.15175 0.22378 0.28164 0.27867l0.57902 0.24443c0.0177 0.19509 0.13752 0.37554 0.32673 0.4555 0 0 15.744 7.287 16.755 7.7136 1.0108 0.42669 2.1973 1.0073 2.7508 1.401 0.55365 0.39322 2.5188 2.0813 3.1913 2.5352 0.67265 0.4542 1.8719 0.96101 1.8719 0.96101 0.26807 0.11317 0.57025-0.017 0.67508-0.29034l0.0741-0.19297 1.334 0.56309c0.26784 0.11306 0.56972-0.0164 0.67466-0.28994l-5e-3 0.0124 8.7566 4.1269c-4.0626 7.2044-10.839 14.218-24.015 17.077l0.49019 2.5989 1.4463 7.6723 0.25667 1.3603c15.894-2.5291 25.629-11.721 30.984-20.932l1.1774 0.49701 0.36926-0.96262 0.62784 0.26503-1.1478 2.9922c-0.10485 0.27333 0.0274 0.58628 0.29514 0.69936l0.0791 0.0335-0.27476 2.6804 0.3898 5e-3 0.48349-1.8731 0.37319-0.40158 1.3002 0.54884c0.0997 1.13 0.62582 2.3425 2.0033 2.9226 1.5437 0.65161 3.9408 1.7435 4.9595 2.1736 1.0239 0.42655 2.0804 0.094 3.4041-0.88369 0.47939 0.90222 0.86226 1.8588 0.89902 3.3387 0.038 1.5339 0.30959 9.398 0.24809 10.171-0.0617 0.77286-0.35189 1.5293-0.45739 1.8044-0.10551 0.27503-0.50119 1.3066 0.84936 2.276 1.3503 0.96929 4.1364 1.6663 5.1151 1.3603 0.97866-0.30576 2.2382-0.73283 2.2327-3.3714-6e-3 -2.6389 0.12403-7.0583 0.2206-8.5354 0.097-1.4768 0.3137-3.0633 1.2633-3.7009 0.94913-0.63783 1.0782-1.3826 1.1135-2.0865l-0.0502-0.0157c0.18119-0.0219 0.34436-0.13922 0.41574-0.32543l0.28213-0.73547 1.4584 0.68744c1.2972 1.107 33.006 29.272 34.183 30.488 0.53787 0.55543 0.93997 0.73539 1.2296 0.74299-0.0274 0.0476-0.0546 0.0955-0.0814 0.14107 0.1904 0.32017 0.89044 0.53538 1.4065-0.60483 0.51561-1.1404 6.4818-12.204 7.4782-13.781 0.99655-1.5771 0.79545-1.9591 0.5485-2.2456zm-152.2-72.858c0.10485-0.27333 0.40703-0.40348 0.67509-0.29033l1.4544 0.61391c1.362 0.57492 1.0566 1.9829 0.9517 2.2564l-0.0946 0.2467c-0.10486 0.27332-0.4066 0.40309-0.67467 0.28995l-2.5334-1.0694c-0.26809-0.11317-0.40031-0.42612-0.29545-0.69945l0.51701-1.3478zm68.994 24.853 0.15345 0.0647-0.0614 0.15999c-0.0168 0.0439 5e-3 0.0948 0.0479 0.113l0.0263 0.0111c-0.15893-0.0358-0.27872-0.0129-0.37172 0.0484-1.9628-0.88419-3.2044-1.6467-4.4276-3.0113l4.6384 1.958-0.13435 0.35028c-0.046 0.11926 0.0119 0.25641 0.12909 0.30592zm-36.471-12.898c0.18599 0.0786 0.27766 0.2963 0.20495 0.48584-0.0729 0.19003-0.28263 0.28003-0.46861 0.20147-0.186-0.0786-0.27785-0.29582-0.20497-0.48584 0.0728-0.18956 0.2824-0.28013 0.46864-0.20147zm-1.4824-0.62573c0.18601 0.0786 0.27767 0.29629 0.20496 0.48583-0.0729 0.19005-0.28263 0.28002-0.46863 0.20147-0.18622-0.0786-0.2781-0.29592-0.20518-0.48595 0.0728-0.18957 0.28261-0.28003 0.46887-0.20135zm-1.4824-0.62574c0.186 0.0785 0.27767 0.29629 0.20497 0.48584-0.0729 0.19004-0.28264 0.28-0.46863 0.20146-0.186-0.0785-0.27784-0.2958-0.20496-0.48584 0.0728-0.18956 0.28263-0.28001 0.46863-0.20146zm-7.2128 0.23076 3.369 1.4221 0.0263-0.0686 7.4116 3.1286-0.0527 0.13725 2.628 1.1093-0.23741 0.61894-1.8867-0.7964-0.422 1.1001-11.522-4.8636 0.68578-1.7878zm-22.368-3.5297 0.211-0.55009 2.628 1.1093 0.15825-0.41255 11.05 4.6646-0.21103 0.55008 4.2449 1.7918-0.1055 0.27503 0.74107 0.31282-0.0527 0.13752-18.664-7.8786zm19.877 8.3906 0.0527-0.13752 0.53906 0.22755 0.3165-0.82512 11.522 4.8637-0.21101 0.55007 1.5499 0.65423-0.15825 0.41256-13.611-5.7454zm33.362 8.9537c-0.10492 0.27359-0.40684 0.403-0.67468 0.28995l-4.5551-1.9228c-0.26783-0.11307-0.40016-0.42576-0.29514-0.69937l0.0738-0.19224-3.4363-1.4505-0.0737 0.19221c-0.10494 0.27358-0.40683 0.403-0.67468 0.28995l-4.5548-1.9227c-0.26808-0.11317-0.4004-0.42585-0.29544-0.69943l0.0737-0.1922-1.5496-0.65415 0.21118-0.55056 1.5496 0.65414 0.10014-0.26112c0.10485-0.27333 0.40702-0.40347 0.6751-0.29034l4.5548 1.9227c0.26785 0.11305 0.39987 0.42648 0.29498 0.69983l-0.10016 0.26109 3.4363 1.4506 0.10016-0.26113c0.10486-0.27332 0.40703-0.40345 0.67487-0.29041l4.5551 1.9228c0.26787 0.11306 0.39989 0.42649 0.29511 0.6998l-0.10016 0.26112 0.53904 0.22753-0.21119 0.55057-0.53906-0.22754-0.0737 0.19221zm40.364 31.952c-1.3096 0.98233-2.1743 1.2065-2.9313 0.88157-1.0027-0.42327-3.4046-1.5166-4.9597-2.173-1.1364-0.4806-1.5582-1.4539-1.6366-2.4386 0.0615-0.0535 0.11274-0.12125 0.14447-0.20409l1.8194-4.7431 4.061 1.9138-6e-3 0.37126 1.2539 0.60934c0.38373 1.0406 0.13732 2.295-0.11453 2.7478-0.25193 0.45304-1.5367 1.4799-2.9739 1.2215-0.65906-0.11842-0.64691 0.30164 3e-3 0.40054 1.1836 0.18005 2.874-0.14485 3.6183-1.2687 0.74429-1.1239 1.1747-1.0222 1.6583-1.0576 0.20382-0.0149 0.63677-0.0338 1.074-0.12533l-0.61118 1.639c-0.061 0.22795 0.13002 0.41445 0.39784 0.52753 0 0-0.67094 0.11647-0.80281 0.46005-0.10817 0.28271-0.23469 0.61187 5e-3 1.2382z"/>
<path d="m345.17 369.39c0.14451-0.17112 0.3132-0.0955 0.44145 0.0543 0.0143-0.0794 0.025-0.1642 0.0282-0.25831 0.0245-0.73302 19.456-11.821 21.454-12.93 1.9984-1.1086 3.7052-0.96728 4.8736-0.99324 1.1688-0.0265 2.3221-0.6876 3.4884-1.5152 1.122-0.79609 8.7938-5.9966 10.508-6.8824l-0.10623-0.20358 0.65509-0.28453 0.70367-2.0711-0.67987 0.29528 0.3453-1.514 0.87837-0.38151 0.83145-2.4477s0.14492-0.21824 0.43802-0.62356c0.15043-0.20785 0.88798-0.59436 0.88798-0.59436l37.431-16.258-0.51477-1.3013c0.0975-0.0422 0.18936-0.0831 0.28367-0.12434 0.0221-0.11807 0.0925-0.2278 0.23647-0.32337l-0.0286 0.0125c-0.0431 0.0188-0.0918-2e-3 -0.10909-0.0459l-0.063-0.15934-0.21065 0.0915c-0.11651 0.0505-0.24925-5e-3 -0.29647-0.1242l-0.13801-0.34888-0.77136 0.33504-0.29806-0.75344 0.63846 0.12384 0.0677 0.17128 0.3098-0.13456c0.0162-0.0721 0.0609-0.1368 0.13247-0.16784l0.92695-0.4026c0.0717-0.0311 0.14682-0.0185 0.20716 0.0203l6.0682-2.6356c-9e-3 -0.229 0.11901-0.45178 0.3371-0.54695 0.24304-0.10558 0.51553-0.0176 0.65492 0.1964l2.4454-1.0621c0.26665-0.11582 0.57017 0.0111 0.67797 0.28362l0.45501 1.1502 1.0063-0.43708-0.0758-0.19148c-0.10768-0.27224 0.0211-0.58701 0.28767-0.70284l0.61551-0.26734c0.039-0.16206 0.14814-0.30527 0.3095-0.37532l17.429-6.9276c0.21472-0.0933 0.45134-0.0272 0.59274 0.14228l0.41487-0.18019c0.26667-0.11581 0.57018 0.0111 0.67798 0.28361l0.0216 0.0546 2.6162-1.1363 0.13551 0.34254 11.739-5.0987c1.7649 1.4805 4.2028 3.4708 7.4896 2.0432l0.16254 0.41091 11.001-4.7782-0.18968-0.47951 0.40867-6.5172-0.62303-1.575c-0.1077-0.27223 0.0213-0.58651 0.28813-0.70244l2.1199-0.92074c0.26665-0.11582 0.57 0.0107 0.67767 0.28298l2.5736 6.5058 0.53663-0.23309 0.18969 0.47951 0.67079-0.29135 0.18969 0.47952 0.48159-0.20918-0.14127-0.35714 1.8125-0.78723c0.96937 1.0634 2.8236 1.1808 3.9984 0.87156 0.0123-3e-3 0.0219-0.0106 0.0332-0.0159l0.29844 0.75442-4.9639 2.156-0.11617-0.29363-0.4816 0.20918 0.16255 0.4109-1.2746 0.55362 0.32509 0.82181-0.61744 0.26817c-0.0688-0.098-0.17506-0.16662-0.30079-0.20492l0.38408 0.97094-1.3416 0.58271-0.10838-0.27394-19.386 8.4201 0.13551 0.34255-1.2074 0.52443-0.13551-0.34253-13.55 5.8853 0.32508 0.82182-0.4854 0.21081c-0.0532 0.12229-0.14941 0.22535-0.2787 0.28157l-0.57645 0.25037c-0.0158 0.19527-0.13352 0.37697-0.32197 0.45885 0 0-15.667 7.4489-16.673 7.8858-1.0063 0.4371-2.1867 1.0299-2.736 1.4293-0.54952 0.39889-2.497 2.1071-3.1647 2.5679-0.66788 0.46112-1.8618 0.98025-1.8618 0.98025-0.26688 0.11593-0.5704-0.0111-0.67808-0.28337l-0.076-0.19219-1.328 0.5768c-0.26665 0.11582-0.56989-0.0104-0.67765-0.28297l5e-3 0.0124-8.7132 4.2169c4.1376 7.1622 10.986 14.105 24.191 16.829l-0.46307 2.6038-1.3662 7.6868-0.24246 1.3628c-15.919-2.3652-25.75-11.456-31.201-20.611l-1.1722 0.50912-0.37927-0.95878-0.62505 0.2715 1.1789 2.9802c0.1077 0.27223-0.0213 0.58652-0.28796 0.70232l-0.0787 0.0344 0.30268 2.6774-0.3897 8e-3 -0.50301-1.868-0.37735-0.39771-1.2944 0.56221c-0.088 1.1309-0.60135 2.3488-1.9728 2.9431-1.5368 0.66747-3.9224 1.784-4.9366 2.2245-1.0194 0.43708-2.0793 0.11546-3.4131-0.84857-0.46995 0.90712-0.84284 1.8676-0.86415 3.3478-0.022 1.5342-0.21157 9.4007-0.14203 10.173 0.0698 0.7722 0.36784 1.5256 0.4762 1.7996 0.10836 0.27394 0.51479 1.3013-0.82558 2.2846-1.3401 0.98316-4.1188 1.7088-5.1007 1.4129-0.98178-0.29565-2.2458-0.70972-2.2678-3.3483-0.0221-2.6388-0.1976-7.0566-0.30956-8.5326-0.11244-1.4758-0.34563-3.0599-1.3019-3.6877-0.95573-0.628-1.0926-1.3714-1.1352-2.0749l0.05-0.0162c-0.18137-0.0202-0.3458-0.13566-0.41911-0.32113l-0.28978-0.73253-1.4512 0.70243c-1.2856 1.1203-32.699 29.61-33.864 30.838-0.53206 0.56092-0.93227 0.74501-1.2218 0.75562 0.0278 0.0474 0.0557 0.095 0.0828 0.14019-0.18704 0.32211-0.8848 0.54451-1.4127-0.59031-0.52747-1.135-6.6087-12.136-7.6216-13.703-1.0129-1.5667-0.81583-1.9508-0.57189-2.2398zm151.43-74.423c-0.10768-0.27223-0.41121-0.39926-0.67808-0.28337l-1.4479 0.62888c-1.3559 0.58891-1.0359 1.9936-0.92811 2.2661l0.0972 0.2457c0.10771 0.27224 0.41079 0.39888 0.67766 0.28299l2.5221-1.0955c0.2669-0.11591 0.39584-0.43022 0.28814-0.70245l-0.53105-1.3424zm-68.732 25.563-0.15278 0.0663 0.0631 0.15933c0.0173 0.0437-4e-3 0.0949-0.0467 0.1135l-0.0262 0.0113c0.15855-0.0375 0.27857-0.0158 0.37222 0.0444 1.9535-0.90436 3.1871-1.6796 4.396-3.0568l-4.6177 2.0056 0.138 0.34887c0.0473 0.11892-9e-3 0.25653-0.1259 0.30724zm36.334-13.273c-0.18517 0.0805-0.27456 0.29913-0.19989 0.48792 0.0749 0.18927 0.28554 0.2771 0.4707 0.19663 0.18516-0.0805 0.27475-0.29866 0.19988-0.48793-0.0747-0.1888-0.28529-0.2772-0.4707-0.19662zm1.4758-0.64099c-0.18518 0.0804-0.27457 0.29915-0.19988 0.48793 0.0749 0.18928 0.28553 0.27708 0.47069 0.19663 0.1854-0.0805 0.27499-0.29876 0.20011-0.48804-0.0747-0.1888-0.28552-0.2771-0.47095-0.19649zm1.4758-0.64098c-0.18518 0.0805-0.27457 0.29915-0.19989 0.48792 0.0749 0.18929 0.28554 0.2771 0.47071 0.19663 0.18516-0.0805 0.27474-0.29864 0.19989-0.48792-0.0747-0.1888-0.28554-0.27708-0.4707-0.19663zm7.2149 0.15643-3.354 1.4568-0.0271-0.0683-7.3786 3.2048 0.0542 0.1367-2.6162 1.1364 0.24386 0.61648 1.8782-0.8158 0.43347 1.0957 11.471-4.9821-0.70438-1.7806zm22.33-3.76-0.21672-0.54789-2.6162 1.1364-0.16255-0.41091-11.001 4.7782 0.21673 0.54787-4.2259 1.8355 0.10836 0.27394-0.73776 0.32044 0.0541 0.13697 18.581-8.0705zm-19.789 8.5949-0.0541-0.13697-0.53666 0.23309-0.32508-0.82182-11.471 4.9821 0.21673 0.54787-1.543 0.67016 0.16255 0.41091 13.55-5.8854zm-33.267 9.297c0.10778 0.27248 0.41101 0.39877 0.67767 0.28298l4.5348-1.9696c0.26664-0.11581 0.39569-0.42985 0.28797-0.70233l-0.0758-0.19147 3.421-1.4859 0.0757 0.19144c0.1078 0.27248 0.41102 0.39878 0.67767 0.28298l4.5345-1.9695c0.2669-0.11594 0.39594-0.42998 0.28815-0.70245l-0.0757-0.19144 1.5427-0.67008-0.21692-0.54835-1.5427 0.67007-0.10287-0.26007c-0.10768-0.27223-0.4112-0.39926-0.67809-0.28336l-4.5345 1.9695c-0.26666 0.11582-0.3954 0.43059-0.28766 0.70284l0.10288 0.26005-3.421 1.4859-0.10286-0.26009c-0.1077-0.27222-0.41122-0.39924-0.67788-0.28345l-4.5348 1.9696c-0.26668 0.11582-0.39542 0.43059-0.2878 0.7028l0.10289 0.26009-0.53665 0.23307 0.21692 0.54836 0.53664-0.23308 0.0758 0.19147zm-40.029 32.366c1.3198 0.96877 2.1868 1.184 2.9404 0.85132 0.99822-0.43357 3.3886-1.5516 4.9368-2.224 1.1314-0.49228 1.543-1.4699 1.6111-2.4553-0.062-0.0528-0.11401-0.12009-0.14661-0.20261l-1.8687-4.724-4.0408 1.9555 9e-3 0.37119-1.2475 0.62224c-0.37286 1.0446-0.11338 2.2963 0.14318 2.7464 0.25664 0.45042 1.552 1.464 2.9864 1.1908 0.65778-0.12521 0.65001 0.29496 9.3e-4 0.40055-1.1817 0.19223-2.8754-0.11524-3.6314-1.2314-0.75598-1.1162-1.1853-1.0101-1.6693-1.0405-0.20393-0.0129-0.63708-0.0272-1.0753-0.11425l0.62825 1.6326c0.0633 0.22732-0.12569 0.41576-0.39232 0.53159 0 0 0.67212 0.10955 0.80757 0.45175 0.1111 0.28158 0.24106 0.60942 7e-3 1.2381z"/>
<path d="m426.48 264.56c3.7964-0.79061 7.6699-1.9896 11.559-1.2684 7.423 0.96437 15.016-1.503 22.323 0.92962 2.4306 0.54735 4.7686 2.4066 5.5711 5.126 2.0448 6.6898 3.943 13.449 6.1575 20.078-0.9568 1.0686-1.9059 2.1373-2.8473 3.2233-5.5788-1.2771-11.32-2.2589-16.991-1.3293-3.1791 0.40834-5.5634 3.6142-8.8891 3.2406-2.5541 0.40834-4.406-2.3632-6.9369-1.9374-6.7054 0.30408-13.418-0.0434-20.124 0.11294 1.8365-8.2797 3.889-16.499 5.71-24.778 1.3581-1.3119 2.5849-3.0582 4.4677-3.397m-0.8565 0.98175c-1.1729 3.2754-0.89508 7.4196-2.9707 10.148 0.50156-3.2233 1.4198-6.3336 2.0216-9.5308-1.0957 1.1208-2.2146 2.3632-2.4306 4.1008-1.6358 7.2719-3.426 14.492-5.0155 21.781 7.1452 9e-3 14.29 0.23457 21.428-0.15639 1.3195-1.1121 2.7238-2.1025 4.1513-3.0321-7.0835-2.7889-14.746-2.1894-22.115-1.7637 0.89508-1.0252 2.2454-0.81668 3.4028-0.947 6.4739-0.39096 13.094-0.16507 19.321 2.0243 0.10803-7.7584-0.0385-15.526 0.2855-23.275 0.41667 0.82536 0.61729 1.7202 0.59415 2.6759-0.0463 6.8809-0.13118 13.771-0.15432 20.651 6.744-2.7889 14.113-2.9279 21.173-1.9114-2.1297 0.66029-4.352 0.22588-6.5125 0.19982-4.7069-0.13901-9.5372 0.28671-13.928 2.3023 1.3195 0.84274 2.6004 1.7897 3.7964 2.8671 6.5279-2.4587 13.588-1.3466 20.178 0.16507 0.78706-0.83405 1.5818-1.6594 2.3689-2.4935-2.23-6.9852-4.0819-14.135-6.5279-21.025l-1.196-1.6768c1.0726 6.073 2.5849 12.042 3.7038 18.106-0.22377-0.20851-0.67131-0.64291-0.89507-0.86011-1.2115-6.0469-2.5772-12.05-3.8041-18.097-7.8242-3.6142-16.335-0.947-24.476-1.7897-4.1822-0.60817-8.3335 0.59078-12.4 1.5378m13.658 26.95c2.7856 1.781 6.1421 1.6073 8.8351-0.31277-1.2346-1.06-2.4383-2.2763-3.9507-2.8062-1.929 0.19113-3.4569 1.7897-4.8844 3.119z" fill="#010000"/>
</svg>
