<?xml version="1.0" encoding="UTF-8" ?>
<svg version="1.1" xmlns="http://www.w3.org/2000/svg" width="822" height="568" viewBox="0 0 8220 5680">
<path d="M0 2840V0h8220v5680H0V2840z" fill="#393"/>
<g fill="#ff0">
<path d="M0 2840V0h8220v5680H0V2840zm2859 1674c332-38 558-134 762-323 225-208 361-496 399-843 6-61 10-472 10-1108V1230h-999l-4 1058c-2 935-5 1063-19 1109-32 102-67 164-130 227-105 104-227 149-408 149-279 0-463-130-537-380-16-53-18-151-21-1110l-3-1053H910v990c0 1129 1 1152 77 1430 96 353 377 658 714 776 129 45 327 79 569 97 137 10 467 6 589-9zm2833-636l3-603 400-6c426-6 492-13 665-63 303-88 516-281 615-559 48-134 65-245 65-423 0-332-73-536-255-719-131-132-258-198-471-246-98-23-104-23-1061-26l-963-4v3251h1000l2-602z"/>
<path d="M5690 2250v-360h199c292 0 401 27 484 119 158 175 109 453-98 547-88 40-187 54-396 54h-189v-360z"/>
</g>
</svg>