<?xml version="1.0" encoding="UTF-8"?>
<svg version="1.1" viewBox="0 0 400.13 479.27" xmlns="http://www.w3.org/2000/svg" xmlns:cc="http://creativecommons.org/ns#" xmlns:dc="http://purl.org/dc/elements/1.1/" xmlns:rdf="http://www.w3.org/1999/02/22-rdf-syntax-ns#" xmlns:xlink="http://www.w3.org/1999/xlink">
<defs>
<clipPath id="h">
<use width="1" height="1" xlink:href="#e"/>
</clipPath>
</defs>
<metadata>
<rdf:RDF>
<cc:Work rdf:about="">
<dc:format>image/svg+xml</dc:format>
<dc:type rdf:resource="http://purl.org/dc/dcmitype/StillImage"/>
<dc:title/>
</cc:Work>
</rdf:RDF>
</metadata>
<g transform="translate(-66.184 -123.76)">
<g transform="translate(.69676)">
<g id="f">
<path d="m116.33 304.17c4.3582-12.344 2.751-19.82 4.8864-34.801 2.4344-17.079 12.501-24.622 25.759-29.547 0 0-3.0305 16.289-9.849 27.274-6.433 10.364-12.122 15.864-12.879 23.44 0 0 7.9834-7.5478 11.733-15.851s5.3572-10.714 5.3572-10.714l2.4107 1.0714s-3.4821 5.8929-4.8214 10.179c0 0 4.8905-2.75 9.1072-11.786 4.2167-9.0357 14.047-17.77 23.036-20.089 9.3218-2.4056 10.446-0.53571 17.679-2.9464 0 0-4.5536 7.7679-10.982 16.339-6.5971 8.7962-23.375 14.571-31.875 18.214-8.5 3.6428-15.804 13.929-15.804 13.929s5.0893-1.6071 8.8393-5.8928l1.0714 3.2143s-11.303 6.625-18.214 16.071c-5.5541 7.5908-8.5714 13.929-10.179 19.286 0 0 5.625-4.0179 9.375-12.589s15.804-17.946 25.714-20.893c0 0-1.3393 6.9643-7.7679 19.018s-13.661 16.339-22.232 20.089-11.25 6.1607-13.929 11.25-4.5536 17.143-4.5536 17.143 4.5536-4.8214 6.4286-12.857l2.9464 2.1429s-5.0893 8.5714-8.0357 16.339c-2.9464 7.7678-2.4107 12.054-2.4107 12.054 3.363-4.494 5.7895-14.901 9.6429-21.696 6.4771-11.422 19.018-19.554 21.964-21.696 0 0-2.4107 18.482-8.8393 28.125-6.4286 9.6429-17.411 14.196-22.5 23.571-5.0893 9.375-3.2143 17.411-3.2143 17.411s2.6786-4.8214 3.75-10.179l2.6786 0.80357s-2.9464 8.5714-4.0179 17.679c-1.0714 9.1071 0.26786 12.857 0.26786 12.857s4.5536-5.8929 4.8214-19.821 14.196-30.536 14.196-30.536 5.4129 12.862 0.53571 28.929c-4.2722 14.073-13.929 17.143-16.875 27.054-2.9464 9.9107-1.0714 16.875 1.3393 20.089 0 0 1.4286-6.25 0.625-15.089l3.75 0.26786s-2.4107 6.1607-0.80357 17.143c1.6071 10.982 4.8214 15.268 4.8214 15.268s2.1429-6.4286-0.80357-14.732-1.3393-22.232 2.1429-27.054c3.4821-4.8214 4.8214-13.125 4.8214-12.589s0.26786 5.625 2.9464 9.9107c2.6786 4.2857 4.0178 19.286 2.4107 26.25-1.6071 6.9643-7.7679 12.857-8.3036 21.429-0.53571 8.5714 4.2857 13.929 4.2857 13.929s1.6072-3.75-0.26785-12.589l4.0178-1.3393s0 9.9107 1.875 19.018c1.875 9.1071 8.5714 16.071 8.5714 16.071s0.26786-5.625-5.0893-14.196c-2.9232-4.6772-3.5169-16.952-2.4107-23.036 1.0714-5.8929 2.6786-12.857 2.6786-12.857s6.9643 9.1071 10.714 21.429 1.6071 19.018-0.53571 26.786c-2.1429 7.7679 4.8214 16.339 8.5714 18.75 0 0-1.3393-9.1071-4.5536-14.732l3.2143-1.6071s1.6071 9.1071 5.625 16.607 12.054 12.857 12.054 12.857-2.4107-8.8393-6.9643-13.661c-4.5536-4.8214-9.6428-17.143-8.8393-34.018 0 0 9.375 5.3571 14.196 12.321 4.8214 6.9643 4.0178 25.714 5.625 32.679 1.6071 6.9643 5.8928 10.179 9.9107 12.054 0 0-1.875-5.3571-5.0893-8.8393l3.2143-2.1429s1.875 6.6964 7.5 13.125 15.804 10.982 15.804 10.982-3.2143-6.4286-8.8393-9.375-13.393-14.464-15-21.964c-1.6072-7.5-6.4286-14.464-6.4286-14.464s8.0357 1.0714 18.482 12.321 9.1071 20.625 13.661 29.464c4.5536 8.8393 10.982 9.375 10.982 9.375s-2.4107-7.2321-7.5-10.446l2.6786-2.6786s2.6786 2.9464 7.2321 9.6429 17.143 8.8393 19.554 9.1071c0 0-5.3571-4.2857-11.518-7.5-6.1607-3.2143-13.661-11.25-16.339-17.411s-5.0893-8.0357-5.0893-8.0357 5.3572 1.3393 10.714 2.4107 17.679 11.518 22.768 21.696c5.0893 10.179 16.875 14.464 24.107 15.268 7.2321 0.80357 20.625 0 29.196 4.2857s10.446 5.3571 13.125 5.3571 4.8214 2.1429 5.8929 4.8214c1.0714 2.6786 0 3.75 0 3.75s2.9464 3.75 2.9464 7.2321c0 0-8.1786-8.9911-18.75-15.268-10.571-6.2768-22.768-6.9643-33.482-7.2322-10.714-0.26785-21.696-5.3571-26.786-4.8214-5.0893 0.53571-6.4286 4.2857-14.196 7.2321-7.7679 2.9464-22.554 4.2429-28.929 1.875s-5.625-4.2857-14.464-8.3036c0 0 12.493-2.0605 20.625-3.75 10.449-2.1708 24.74 1.7534 30.804-0.26785 0 0-10.982-4.5536-19.286-4.0179-8.3036 0.53572-18.75 1.6072-18.75 1.6072v-2.9464s8.8393-0.53572 13.125-2.4107c0 0-7.2322-5.3571-14.732-4.0178-7.5 1.3393-12.982 3.5178-21.161 2.4107-5.618-0.76052-15.536-4.5536-21.429-10.446s-10.982-8.0357-10.982-8.0357 16.607-2.6786 26.786 1.3393c10.179 4.0179 16.071 10.179 25.446 9.9107 0 0-5.0893-4.5536-11.25-7.2322-6.1607-2.6786-16.875-8.8393-29.732-8.0357l1.6071-4.0179s9.1071 3.4822 17.143 2.9464c0 0-9.9107-9.9107-16.071-11.518-6.1607-1.6071-12.321 1.3393-23.036-2.1428-10.714-3.4822-16.339-9.6429-19.286-15.268-2.9464-5.625-4.0179-8.3036-4.0179-8.3036s6.9643 3.75 13.929 5.0893c5.6231 1.0814 10.373 4.1153 18.214 9.9107 6.1607 4.5536 9.6429 5.0893 9.6429 5.0893s-10.982-15.804-25.179-17.946l1.3393-3.4822s4.2857 1.875 10.446 4.5536c0 0-5.0893-8.0357-12.589-10.714s-15.804-6.9643-23.304-13.661c-7.5-6.6964-10.714-13.125-12.054-18.75s-2.6786-9.375-2.6786-9.375 7.7679 5.8929 13.929 8.8393c6.1607 2.9464 12.857 10.714 16.875 18.214s8.0357 9.6428 8.0357 9.6428-4.8214-12.589-10.179-19.286c-5.3571-6.6964-11.786-9.375-11.786-9.375l2.1429-2.6786s5.0893 4.5536 9.9107 6.6964c0 0-1.9064-8.3441-14.196-14.196-11.345-5.4024-15.804-12.589-19.821-24.375-4.0179-11.786-1.875-21.696-1.875-21.696s1.6071 3.2143 9.9107 11.786c8.3036 8.5714 9.375 18.214 11.518 24.107 2.1429 5.8928 6.9643 9.1071 6.9643 9.1071s-2.4107-11.25-6.4286-18.75-4.2857-13.393-4.2857-13.393l3.2143-0.53571s0.53572 9.375 5.0893 13.661c0 0 1.3667-11.551-3.2143-19.018-4.6429-7.5678-8.614-7.151-13.661-12.589-5.3146-5.7269-11.25-14.732-9.9107-25.179 0.7353-5.7353 3.4821-9.1072 4.5536-15.804 0 0 3.9978 9.2949 8.5714 15.804 4.3771 6.2289 6.9587 12.859 8.4805 19.861 0.89952 4.1383-0.0719 8.2189 2.2337 12.55 0 0 2.3214-13.036-0.625-21.339-2.9464-8.3036-5.625-13.929-5.625-13.929l3.4821-1.0714s-0.26786 6.4286 5.0893 11.786c0 0 2.4107-9.6429-4.0179-17.946-6.4286-8.3036-9.6429-23.036-10.179-30.804-0.53571-7.7679 3.4821-11.786 7.5-18.482 0 0 1.875 4.2857 4.8214 13.393 2.9464 9.1072 1.0714 28.393 2.6786 35.357 0 0 4.5536-10.714 3.75-18.482-0.80357-7.7678-1.875-12.857-1.875-12.857s2.4107-0.80357 2.6786 0 0 6.1607 2.4107 9.9107c0 0 3.75-8.3036 1.3393-13.929-2.4107-5.625-6.9643-15.268-5.8929-24.643 1.0714-9.375 12.321-21.429 12.321-21.429s4.2857 7.2322 1.875 19.018c-1.3004 6.3576-2.513 14.03-2.8606 19.256-0.29682 4.4617 0.18207 6.9942 0.18207 6.9942s5.625-7.7678 4.8214-20.089c-0.62852-9.6373 1.3393-11.786 1.3393-11.786s2.4107-0.26786 2.4107 0.80357-1.2648 9.4167 0.43903 13.949z" color="#000000" fill="#073" stroke="#000" stroke-width="1.5"/>
<path d="m298.82 581.06s-1.5152 4.3563 3.4093 10.985" color="#000000" fill="none" stroke="#000"/>
<g transform="translate(-2.9968e-7 2.0527e-6)">
<g id="c">
<path transform="matrix(.8133 0 0 .8133 28.57 49.526)" d="m145.21 263.24c0 2.4059-1.9504 4.3563-4.3563 4.3563s-4.3563-1.9504-4.3563-4.3563 1.9504-4.3563 4.3563-4.3563 4.3563 1.9504 4.3563 4.3563z" color="#000000" fill="#e30016" stroke="#000" stroke-linecap="square" stroke-width="1.8443"/>
</g>
<use transform="translate(-1.5152 20.456)" width="744.09448" height="1052.3622" xlink:href="#c"/>
<use transform="translate(-28.411 25.001)" width="744.09448" height="1052.3622" xlink:href="#c"/>
<use transform="translate(-46.783 61.177)" width="744.09448" height="1052.3622" xlink:href="#c"/>
<use transform="translate(-36.555 78.981)" width="744.09448" height="1052.3622" xlink:href="#c"/>
<use transform="translate(-57.768 99.437)" width="744.09448" height="1052.3622" xlink:href="#c"/>
<use transform="translate(-43.373 124.06)" width="744.09448" height="1052.3622" xlink:href="#c"/>
<use transform="translate(-57.01 146.79)" width="744.09448" height="1052.3622" xlink:href="#c"/>
<use transform="translate(-39.742 165.84)" width="744.09448" height="1052.3622" xlink:href="#c"/>
<use transform="translate(-52.339 188.2)" width="744.09448" height="1052.3622" xlink:href="#c"/>
<use transform="translate(-25.064 202.22)" width="744.09448" height="1052.3622" xlink:href="#c"/>
<use transform="translate(-31.125 232.15)" width="744.09448" height="1052.3622" xlink:href="#c"/>
<use transform="translate(-1.9572 238.21)" width="744.09448" height="1052.3622" xlink:href="#c"/>
<use transform="translate(27.969 266.62)" width="744.09448" height="1052.3622" xlink:href="#c"/>
<use transform="translate(-3.4724 267.75)" width="744.09448" height="1052.3622" xlink:href="#c"/>
<use transform="translate(59.031 283.28)" width="744.09448" height="1052.3622" xlink:href="#c"/>
<use transform="translate(39.333 298.44)" width="744.09448" height="1052.3622" xlink:href="#c"/>
</g>
</g>
<use transform="matrix(-1 0 0 1 531.11 0)" width="744.09448" height="1052.3622" xlink:href="#f"/>
<g transform="translate(-.69675 -2.2475e-6)" stroke="#000">
<path d="m262.7 574.81v-3.5987s-5.6821-4.5457-8.1444-9.0914c-2.4622-4.5457-0.1894-8.5232 4.3563-10.228 4.5457-1.7046 7.0079 0.47351 9.1861 5.0192 0 0 1.0417-5.2086 6.9132-3.8828 5.8715 1.3258 8.1444 3.9775 8.1444 7.7656s-10.417 9.2808-10.417 9.2808 1.5707 1.1594 0.62368 1.917c-0.94702 0.75762-2.1389 3.0075-1.9495 4.9015 5.1928 6.7473 4.5307 13.16 4.9245 22.728 0 0-6.0609 0.3788-9.4702 2.6516-0.5356-8.3521 3.6031-15.726 0.56821-23.865l-2.4622-0.1894s-1.5152 8.7126 0.94702 16.857c0 0-5.3033 2.2728-8.902 4.7351 0 0-0.75762-16.289 4.9245-22.728 0 0-0.94701-1.3258 0.75762-2.2728z" color="#000000" fill="#e30016" stroke-width="1.5"/>
<path d="m262.63 575.06c3.6928-1.2688 5.0742-4.6748 10.139-4.9716m-9.8552 1.9467s0.61417-6.5003-1.1269-11.456c-1.7411-4.9554-7.6339-4.1518-7.6339-4.1518m13.778-0.45726c0.70105 4.5569 0.86021 12.038-1.1499 16.45m2.1036-1.2608s2.0089-4.0178 2.9464-8.3036c0.9375-4.2857 6.5625-7.5 10.982-3.6161m-20.798 17.528s4.4589 2.9627 9.2803 0.41804" color="#000000" fill="none"/>
</g>
</g>
<path d="m375 274.51v160.71c0 65.357-62.143 103.93-108.75 103.93s-108.75-38.571-108.75-103.93v-160.71z" color="#000000" fill="#e30016"/>
<path d="m266.25 274.51h108.75v160.71c0 65.357-62.143 103.93-108.75 103.93z" color="#000000" fill="#00418f" stroke="#000" stroke-width="2"/>
<path d="m375 274.51v160.71c0 65.357-62.143 103.93-108.75 103.93s-108.75-38.571-108.75-103.93v-160.71z" color="#000000" fill="none" stroke="#000" stroke-width="3"/>
<g transform="matrix(-1 0 0 1 641.13 0)">
<g id="d" transform="translate(-.44469)">
<path d="m301.86 411.01c-2.557 0.25502-3.1252 1.8702-3.1252 2.7202 0 0.85007 0.75762 2.9752-0.56821 3.4003-1.3258 0.42504-2.9178 1.7843-2.841 3.2303 0.0947 1.7852-1.6099 2.6352-1.6099 2.6352s1.2311 0.76507 3.0304-0.085c1.7993-0.85007 0.70528-1.7524 1.5152-2.6352 1.3258-1.4451 3.2199-0.59504 4.1669-3.3153 0.79746-2.2906 2.3838-2.1818 2.3838-2.1818-1.3172 4.9132-1.9936 6.0162-2.952 14.961 4.5102-5.5238 5.6349-8.9348 8.5232-13.601 1.5988 2.5935-0.70663 3.0646-0.5682 5.2704 0.1626 2.591 2.0834 3.0602 0.75761 5.9505-1.2089 2.6353 0.3788 4.0803 2.0834 4.9304 0 0-0.56822-3.0602 1.894-4.2503s0.37881-4.0726 0.37881-5.9505c0-2.5502 2.841-3.5703 2.841-3.5703 0.1051 2.072 0.9502 11.383 3.0149 18.326 2.0647-6.9432 2.9098-16.254 3.0149-18.326 0 0 2.841 1.0201 2.841 3.5703 0 1.8779-2.0834 4.7604 0.37881 5.9505s1.894 4.2503 1.894 4.2503c1.7046-0.85006 3.2923-2.2951 2.0834-4.9304-1.3258-2.8902 0.59501-3.3594 0.75761-5.9505 0.13843-2.2058-2.167-2.6769-0.5682-5.2704 2.8883 4.6663 4.013 8.0773 8.5232 13.601-0.95842-8.945-1.6348-10.048-2.952-14.961 0 0 1.5863-0.10878 2.3838 2.1818 0.94702 2.7202 2.841 1.8702 4.1669 3.3153 0.80995 0.88282-0.28411 1.7852 1.5152 2.6352 1.7993 0.85007 3.0304 0.085 3.0304 0.085s-1.7046-0.85006-1.6099-2.6352c0.0767-1.446-1.5152-2.8052-2.841-3.2303-1.3258-0.42503-0.56821-2.5502-0.56821-3.4003 0-0.85006-0.56821-2.4652-3.1252-2.7202z" color="#000000" fill="#d7b369" stroke="#000"/>
</g>
<use transform="matrix(-.5051 .86306 -.86306 -.5051 812.32 301.39)" width="744.09448" height="1052.3622" xlink:href="#d"/>
<use transform="matrix(.5051 .86306 .86306 -.5051 -171.64 301.39)" width="744.09448" height="1052.3622" xlink:href="#d"/>
</g>
<path d="m271.9 411.17 48.888-81.429 48.888 81.429z" color="#000000" fill="#d7b369" stroke="#000" stroke-width="1.5"/>
<g>
<path d="m343.64 386.1c-6.4397-6.4397-17.425-13.448-27.842-11.743s-13.826 12.501-13.826 12.501 3.2199 1.7046 1.3258 4.9245c0 0 8.5232 3.2199 17.804 3.2199s18.372-4.7351 22.539-8.902z" color="#000000" fill="#d9dadc" stroke="#000"/>
<path d="m343.64 386.1s1.871 1.4598 4.9245 3.7881m-46.593-3.0305c-2.3803-0.0518-4.974 1.3075-4.651 3.269 0.34716 2.1086 3.2288 2.2592 5.9769 1.6555m0.96444-16.411s3.7075-7.4542 14.882-7.4542 20.645 9.6596 20.645 9.6596" color="#000000" fill="none" stroke="#000" stroke-linecap="round"/>
<path d="m319.72 374.12c-1.1836-0.0371-2.3532 0.0498-3.5312 0.21875-3.226 1.8703-5.4062 5.4468-5.4062 9.5625 0 6.0469 4.6892 10.938 10.5 10.938s10.531-4.8906 10.531-10.938c0-3.0799-1.2518-5.8543-3.2188-7.8438-2.8719-1.1168-5.871-1.8433-8.875-1.9375z" color="#000000" fill="#00418f" stroke="#000" stroke-linecap="square"/>
<path transform="matrix(.47963 0 0 .49912 166.18 191.94)" d="m333.57 384.59c0 5.6215-4.5571 10.179-10.179 10.179s-10.179-4.5571-10.179-10.179 4.5571-10.179 10.179-10.179 10.179 4.5571 10.179 10.179z" color="#000000"/>
<path transform="matrix(.35867 0 0 .2029 201.23 304.73)" d="m333.57 384.59c0 5.6215-4.5571 10.179-10.179 10.179s-10.179-4.5571-10.179-10.179 4.5571-10.179 10.179-10.179 10.179 4.5571 10.179 10.179z" color="#000000" fill="#d9dadc" stroke="#000" stroke-linecap="square" stroke-width="3.7069"/>
</g>
<rect transform="scale(1,-1)" x="169.04" y="-460.83" width="86.065" height="57.368" rx="0" ry="0" color="#000000" fill="#d9dadc" stroke="#000" stroke-width="1.5"/>
<rect x="197.65" y="359.29" width="28.839" height="42.668" rx="0" ry="0" color="#000000" fill="#d9dadc" stroke="#000" stroke-width="1.5"/>
<path d="m165.28 393.34v6.8438 6.0625h93.562v-6.0625-6.8438h-7.1875v6.8438h-7.1875v-6.8438h-7.2188v6.8438h-7.1875v-6.8438h-7.1875v6.8438h-7.2188v-6.8438h-7.1875v6.8438h-7.1875v-6.8438h-7.2188v6.8438h-7.1875v-6.8438h-7.1875v6.8438h-7.2188v-6.8438h-7.1875z" color="#000000" fill="#d9dadc" stroke="#000" stroke-width="1.5"/>
<g clip-path="url(#h)">
<g transform="matrix(.98266 0 0 .90745 3.6778 32.193)">
<g transform="matrix(1.1545 0 0 1.0571 -32.766 -19.408)">
<g id="b">
<path d="m209.93 346.69s0.12605 2.2768 2.1429 2.2768 2.1429-2.2768 2.1429-2.2768v-2.9464" color="#000000" fill="none" stroke="#000" stroke-width=".71894"/>
</g>
<use transform="translate(2.1429 -5.2232)" width="744.09448" height="1052.3622" xlink:href="#b"/>
<use transform="translate(-2.1429 -5.2232)" width="744.09448" height="1052.3622" xlink:href="#b"/>
<use transform="translate(-6.4286 -5.2232)" width="744.09448" height="1052.3622" xlink:href="#b"/>
<use transform="translate(-10.714 -5.2232)" width="744.09448" height="1052.3622" xlink:href="#b"/>
<use transform="translate(-4.2857)" width="744.09448" height="1052.3622" xlink:href="#b"/>
<use transform="translate(-8.5715)" width="744.09448" height="1052.3622" xlink:href="#b"/>
<use transform="translate(-12.857)" width="744.09448" height="1052.3622" xlink:href="#b"/>
<use transform="translate(4.2857)" width="744.09448" height="1052.3622" xlink:href="#b"/>
<use transform="translate(8.5715)" width="744.09448" height="1052.3622" xlink:href="#b"/>
<use transform="translate(6.4286 -5.2232)" width="744.09448" height="1052.3622" xlink:href="#b"/>
<use transform="translate(10.714 -5.2232)" width="744.09448" height="1052.3622" xlink:href="#b"/>
<use transform="translate(12.857)" width="744.09448" height="1052.3622" xlink:href="#b"/>
<use transform="translate(2.1429 5.2232)" width="744.09448" height="1052.3622" xlink:href="#b"/>
<use transform="translate(6.4286 5.2232)" width="744.09448" height="1052.3622" xlink:href="#b"/>
<use transform="translate(10.714 5.2232)" width="744.09448" height="1052.3622" xlink:href="#b"/>
<use transform="translate(-10.714 5.2232)" width="744.09448" height="1052.3622" xlink:href="#b"/>
<use transform="translate(-6.4286 5.2232)" width="744.09448" height="1052.3622" xlink:href="#b"/>
<use transform="translate(-2.1429 5.2232)" width="744.09448" height="1052.3622" xlink:href="#b"/>
<use transform="translate(15 5.2232)" width="744.09448" height="1052.3622" xlink:href="#b"/>
<use transform="translate(-15 5.2232)" width="744.09448" height="1052.3622" xlink:href="#b"/>
<use transform="translate(1e-5 -10.446)" width="744.09448" height="1052.3622" xlink:href="#b"/>
<use transform="translate(4.2857 -10.446)" width="744.09448" height="1052.3622" xlink:href="#b"/>
<use transform="translate(-4.2857 -10.446)" width="744.09448" height="1052.3622" xlink:href="#b"/>
<use transform="translate(2.1429 -15.67)" width="744.09448" height="1052.3622" xlink:href="#b"/>
<use transform="translate(-2.1428 -15.67)" width="744.09448" height="1052.3622" xlink:href="#b"/>
<path d="m209.93 325.8s0.12605 2.2768 2.1429 2.2768 2.1429-2.2768 2.1429-2.2768" color="#000000" fill="none" stroke="#000" stroke-width=".71894"/>
</g>
</g>
</g>
<g transform="translate(-.38646)">
<g id="g">
<path transform="matrix(.81132 0 0 .81132 32.086 79.091)" d="m192.77 417.76c0 3.9202-3.178 7.0982-7.0982 7.0982-3.9202 0-7.0982-3.178-7.0982-7.0982 0-3.9202 3.178-7.0982 7.0982-7.0982 3.9202 0 7.0982 3.178 7.0982 7.0982z" color="#000000" fill="none" stroke="#000" stroke-linecap="square" stroke-width="1.2326"/>
<path transform="matrix(.42902 0 0 .42902 103.07 238.8)" d="m192.77 417.76c0 3.9202-3.178 7.0982-7.0982 7.0982-3.9202 0-7.0982-3.178-7.0982-7.0982 0-3.9202 3.178-7.0982 7.0982-7.0982 3.9202 0 7.0982 3.178 7.0982 7.0982z" color="#000000"/>
</g>
<use transform="translate(59.464)" width="744.09448" height="1052.3622" xlink:href="#g"/>
</g>
<path d="m197.65 381.25h28.839" color="#000000" fill="none" stroke="#000"/>
<path d="m195.78 355.38 1.8661 3.9067h28.839l2.1339-3.9067z" color="#000000" fill="#d9dadc" stroke="#000" stroke-linejoin="bevel" stroke-width="1.5"/>
<path id="e" d="m212.07 323.3 16.419 32.227h-32.839z" color="#000000" fill="none" stroke="#000" stroke-width="1.5"/>
<path d="m204.1 363.63v13.158h5.0223v-5.8594l4.8382 5.8594h6.077l-6.077-7.7009 5.5413-5.4576h-5.5413l-4.8382 5.4241v-5.4241z" color="#000000"/>
<g transform="translate(-5.9605e-8 2.6172e-6)">
<path transform="scale(1,-1)" d="m224.03-460.81v20.209c0 6.6265-5.3347 11.961-11.961 11.961-6.6265 0-11.961-5.3347-11.961-11.961v-20.209z" color="#000000"/>
<path d="m233.5 460.81-1-12.219h-2.5312v-4.2812c0-0.34142-0.0232-0.66463-0.0312-1h2.5625c0-1.781-0.1446-3.5434-0.4375-5.25l-2.3438 0.3125h-0.21875c-0.25142-1.5722-0.61213-3.0528-1.0469-4.4375l2.1719-1.125c-0.57143-1.5284-1.2483-2.9935-2.0625-4.3438l-2.0312 1.125c-0.78025-1.3569-1.669-2.5746-2.6875-3.625l1.4062-1.75c-1.3736-1.3813-2.9186-2.539-4.625-3.4375l-1.0312 2.0312c-2.2187-1.1054-4.7549-1.6875-7.5312-1.6875s-5.2813 0.58213-7.5 1.6875l-1.0626-2.0312c-1.7064 0.89854-3.2514 2.0562-4.625 3.4375l1.4375 1.7188v0.0312c-1.0245 1.0539-1.9035 2.2616-2.6875 3.625l-2.0312-1.125c-0.81421 1.3502-1.5223 2.8154-2.0938 4.3438l2.1719 1.125c-0.43474 1.3848-0.7642 2.8654-1.0156 4.4375h-0.21875l-2.3438-0.3125c-0.2929 1.7066-0.4375 3.469-0.4375 5.25h2.5625c-8e-3 0.33549-0.0312 0.65846-0.0312 1v4.2812h-2.5312l-1 12.219" color="#000000" fill="none" stroke="#000"/>
<path d="m209.04 429.41h6.0654l1-10.445h-8.0654z" color="#000000" fill="#d9dadc" stroke="#000"/>
</g>
<path d="m212.07 323.3v-26.661" color="#000000" fill="none" stroke="#000" stroke-width="1.5"/>
<path d="m233.53 298.47h-21.458v9.7564h21.458l-4.8214-4.8782z" color="#000000" fill="#d7b369" stroke="#000" stroke-width="1.5"/>
<path d="m261.99 147.42s1.7046-4.5457 1.7046-8.902c-4.3563 0-8.902 1.7046-8.902 1.7046v-8.5232s4.5457 1.7046 8.902 1.7046c0-4.3563-1.7046-8.902-1.7046-8.902h8.5232s-1.7046 4.5457-1.7046 8.902c4.3563 0 8.902-1.7046 8.902-1.7046v8.5232s-4.5457-1.7046-8.902-1.7046c0 4.3563 1.7046 8.902 1.7046 8.902s-0.84105 1.1443-4.2616 1.1443-4.2616-1.1443-4.2616-1.1443z" color="#000000" fill="#d7b369" stroke="#000" stroke-width="1.5"/>
<g transform="translate(.24019)">
<g id="a">
<path transform="matrix(.90476 0 0 .90476 13.496 13.532)" d="m211.31 221.64c0 2.1967-1.7808 3.9775-3.9775 3.9775s-3.9775-1.7808-3.9775-3.9775c0-2.1967 1.7808-3.9775 3.9775-3.9775s3.9775 1.7808 3.9775 3.9775z" color="#000000" fill="#d9dadc" stroke="#000" stroke-linecap="square" stroke-width="1.3816"/>
<path transform="matrix(.4315 0 0 .4315 111.62 118.43)" d="m207.33 225.62c-2.1967 0-3.9775-1.7808-3.9775-3.9775 0-2.1967 1.7808-3.9775 3.9775-3.9775" color="#000000" fill="none" stroke="#000" stroke-linecap="round" stroke-width="1.7381"/>
</g>
<use transform="translate(5.4927 5.8715)" width="744.09448" height="1052.3622" xlink:href="#a"/>
<use transform="translate(-4.5457 -7.1973)" width="744.09448" height="1052.3622" xlink:href="#a"/>
<use transform="translate(-7.1973 -15.152)" width="744.09448" height="1052.3622" xlink:href="#a"/>
<use transform="translate(-7.0079 -23.675)" width="744.09448" height="1052.3622" xlink:href="#a"/>
<use transform="translate(-3.9775 -32.199)" width="744.09448" height="1052.3622" xlink:href="#a"/>
<use transform="translate(1.7046 -39.017)" width="744.09448" height="1052.3622" xlink:href="#a"/>
<use transform="translate(9.0914 -44.699)" width="744.09448" height="1052.3622" xlink:href="#a"/>
<use transform="translate(17.615 -46.972)" width="744.09448" height="1052.3622" xlink:href="#a"/>
<use transform="translate(26.706 -47.161)" width="744.09448" height="1052.3622" xlink:href="#a"/>
<use transform="translate(35.229 -46.025)" width="744.09448" height="1052.3622" xlink:href="#a"/>
<use transform="translate(43.373 -43.373)" width="744.09448" height="1052.3622" xlink:href="#a"/>
<use transform="translate(51.518 -40.722)" width="744.09448" height="1052.3622" xlink:href="#a"/>
<g transform="matrix(-1 0 0 1 532.02 0)">
<use transform="matrix(-1 0 0 1 407.66 5.8715)" width="744.09448" height="1052.3622" xlink:href="#a"/>
<use transform="matrix(-1 0 0 1 397.62 -7.1973)" width="744.09448" height="1052.3622" xlink:href="#a"/>
<use transform="matrix(-1 0 0 1 394.97 -15.152)" width="744.09448" height="1052.3622" xlink:href="#a"/>
<use transform="matrix(-1 0 0 1 395.16 -23.675)" width="744.09448" height="1052.3622" xlink:href="#a"/>
<use transform="matrix(-1 0 0 1 398.19 -32.199)" width="744.09448" height="1052.3622" xlink:href="#a"/>
<use transform="matrix(-1 0 0 1 403.87 -39.017)" width="744.09448" height="1052.3622" xlink:href="#a"/>
<use transform="matrix(-1 0 0 1 411.26 -44.699)" width="744.09448" height="1052.3622" xlink:href="#a"/>
<use transform="matrix(-1 0 0 1 419.78 -46.972)" width="744.09448" height="1052.3622" xlink:href="#a"/>
<use transform="matrix(-1 0 0 1 428.87 -47.161)" width="744.09448" height="1052.3622" xlink:href="#a"/>
<use transform="matrix(-1 0 0 1 437.4 -46.025)" width="744.09448" height="1052.3622" xlink:href="#a"/>
<use transform="matrix(-1 0 0 1 445.54 -43.373)" width="744.09448" height="1052.3622" xlink:href="#a"/>
<use transform="matrix(-1 0 0 1 453.68 -40.722)" width="744.09448" height="1052.3622" xlink:href="#a"/>
<use transform="matrix(-1 0 0 1 402.17 0)" width="744.09448" height="1052.3622" xlink:href="#a"/>
</g>
<path d="m313.89 223.08s12.054-4.8214 17.679-17.143 1.875-25.446-9.6429-31.607c-11.518-6.1607-23.563-3.1169-29.732-0.80358-6.4286 2.4107-12.054 4.5536-18.75 4.8214h-14.877c-6.6964-0.26785-12.321-2.4107-18.75-4.8214-6.1689-2.3134-18.214-5.3571-29.732 0.80358-11.518 6.1607-15.268 19.286-9.6429 31.607s17.679 17.143 17.679 17.143z" color="#000000" fill="#d7b369" stroke="#000" stroke-width="1.5"/>
<path d="m307.56 223.34s15.38-6.7144 20.682-17.713 2.571-23.517-8.2861-29.017-21.944-1.7108-27.759 0.35415c-6.0598 2.1518-11.898 4.3324-18.21 4.5715h-15.948c-6.3123-0.23908-12.15-2.4197-18.21-4.5715-5.815-2.0649-16.902-5.8533-27.759-0.35415s-13.588 18.018-8.2861 29.017 20.682 17.713 20.682 17.713z" color="#000000" fill="#92213f" stroke="#000"/>
</g>
<g transform="translate(5.0046e-6)" stroke="#000">
<path transform="matrix(2.5943 0 0 2.5943 -271.63 -416.02)" d="m211.31 221.64c0 2.1967-1.7808 3.9775-3.9775 3.9775s-3.9775-1.7808-3.9775-3.9775c0-2.1967 1.7808-3.9775 3.9775-3.9775s3.9775 1.7808 3.9775 3.9775z" color="#000000" fill="#d7b369" stroke-linecap="square" stroke-width=".5782"/>
<path d="m276.03 155.75h-7.875v-6.9062m-4 0.0312v6.875h-7.6875m-0.46875 4.0313h20.5" color="#000000" fill="none"/>
</g>
<g transform="translate(.52678)">
<path d="m284.14 218.85c-9.3467-18.977-10.375-50.329-10.375-50.329h-16.089s-1.0283 31.352-10.375 50.329z" color="#000000" fill="#d7b369" stroke="#000" stroke-width="1.5"/>
<path d="m270.55 168.52s0.48979 30.268 8.5714 48.214m-18.232-48.214s-0.48979 30.268-8.5714 48.214" color="#000000" fill="none" stroke="#000"/>
<use transform="translate(64.64 -9.7705)" width="744.09448" height="1052.3622" xlink:href="#a"/>
<use transform="translate(64.64 -17.678)" width="744.09448" height="1052.3622" xlink:href="#a"/>
<use transform="translate(64.64 -25.586)" width="744.09448" height="1052.3622" xlink:href="#a"/>
<use transform="translate(64.64 -33.493)" width="744.09448" height="1052.3622" xlink:href="#a"/>
<use transform="translate(64.64 -41.401)" width="744.09448" height="1052.3622" xlink:href="#a"/>
</g>
<g transform="translate(.20107)">
<path d="m313.35 255.58c0-17.143 5.0893-27.857 5.0893-27.857s1.0236 1.4317 2.5388 3.3257c1.5152 1.894 5.8715 2.0834 7.0079-0.94702s-7.7656-13.258-19.698-6.2503c0 0-0.94702-9.2808-11.554-11.364-10.607-2.0834-15.91 5.1139-15.91 5.1139s-3.2199-9.4702-14.773-9.4702-14.773 9.4702-14.773 9.4702-5.3033-7.1973-15.91-5.1139c-10.607 2.0834-11.554 11.364-11.554 11.364-11.932-7.0079-20.834 3.2199-19.698 6.2503s5.4927 2.841 7.0079 0.94702c1.5152-1.894 2.5388-3.3257 2.5388-3.3257s5.0893 10.714 5.0893 27.857c0 0 5.3571 7.5 47.299 7.5s47.299-7.5 47.299-7.5z" color="#000000" fill="#d9dadc" stroke="#000" stroke-width="1.5"/>
<path d="m260 213.38c-0.17006-3e-3 -0.33499 0.0129-0.5 0.0312-1.3836 0.226-2.4211 0.88837-3.125 2.1562 1.5196-0.69891 3.3936-1.5368 4.7188-0.875 2.3835 1.2618 4.3281 1.125 4.9688 1.125s2.554 0.13684 4.9375-1.125c1.3252-0.66182 3.1991 0.17609 4.7188 0.875-0.70388-1.2679-1.7414-1.9302-3.125-2.1562-0.66003-0.0734-1.3682 7e-3 -2.0625 0.375-2.1701 1.1489-3.7169 1.0312-4.4688 1.0312s-2.3299 0.11763-4.5-1.0312c-0.52072-0.27563-1.0523-0.3972-1.5625-0.4062zm-14.781 2.1875c-0.28716-4e-3 -0.60172 0.0125-0.90625 0.0625-1.2181 0.19999-2.5121 0.77241-3.5312 1.7188-1.3037 1.2106-3.3692 2.1388-7.125 0.84375-2.0706-0.71398-3.6938-0.28984-4.7188 0.34375s-1.0938 1.7188-1.0938 1.7188 0.8084-0.37019 1.625-0.875 2.0304-0.8753 3.8438-0.25c4.0121 1.3835 6.6291 0.3868 8.1562-1.0312 0.85585-0.79472 1.9748-1.3004 3-1.4688s1.8998 0.0257 2.6562 0.0312c-0.33671-0.7993-1.0448-1.0816-1.9062-1.0938zm41.688 0c-0.86148 0.0121-1.6008 0.29445-1.9375 1.0938 0.7564-6e-3 1.6311-0.19956 2.6562-0.0312 1.0252 0.16831 2.1442 0.67403 3 1.4688 1.5271 1.418 4.1442 2.4147 8.1562 1.0312 1.8134-0.6253 3.0272-0.25481 3.8438 0.25s1.625 0.875 1.625 0.875-0.0688-1.0852-1.0938-1.7188c-1.0249-0.63359-2.6482-1.0577-4.7188-0.34375-3.7558 1.2951-5.8213 0.36686-7.125-0.84375-1.0191-0.94634-2.3131-1.5188-3.5312-1.7188-0.30453-0.05-0.58784-0.0665-0.875-0.0625zm-69.906 9c-3.4008 0.17227-4.2812 3.3438-4.2812 3.3438h1.4062s1.1332-2.8417 4.4688-3.2188c-0.59361-0.11613-1.1079-0.14961-1.5938-0.125zm97.344 0c-0.26926 0.0206-0.54694 0.0669-0.84375 0.125 3.3356 0.37704 4.4688 3.2188 4.4688 3.2188h1.4062s-0.99232-3.6531-5.0312-3.3438zm-74.469 2.125c0 2.1782-0.75 3.7812-0.75 3.7812-1.3258-1.894-2.6562-2.5625-2.6562-2.5625 0.47351 0.75762 1.412 2.9354 0.84375 6.25-0.56821 3.3146 1.25 5.5 1.25 5.5-0.56821-2.2728 1.7092-4.6229 2.6562-7.9375s-1.249-4.8418-1.3438-5.0312zm54.803 4.463c-0.94702 3.3146-3.1932 5.6647-2.625 7.9375 0 0-1.8182-2.1854-1.25-5.5 0.56822-3.3146 0.38738-6.25-0.0861-7.0076 0 0 1.5198 1.0473 1.8986 3.3201 0 0 0.75-1.6031 0.74998-3.7812 0.0947 0.18941 2.2595 1.7167 1.3125 5.0312zm-72.397 1.5057c0.47352 2.6517-0.28125 3.4062-0.28125 3.4062-0.4735-1.894-1.9688-2.6562-1.9688-2.6562 0.85905 2.7368 1.4091 3.7849 1.125 6.5312-0.2841 2.7464 1.625 4.5625 1.625 4.5625s-0.57773-3.4023 0.9375-6.9062-1.4375-4.9375-1.4375-4.9375zm88.154 0.37881s3.515 1.7347 1.4375 4.9375c-2.2728 3.504-1.6951 6.7168-1.6951 6.7168s-1.9091-1.8162-1.625-4.5625c0.28411-2.7464 0.49167-3.605-0.36738-6.3418 0 0 1.4952 0.76221 1.9688 2.6562 0 0 0.75477-0.75459 0.28125-3.4062zm-47.132-10.182s-0.63234 2.1309 0.69348 4.7825c1.3258 2.6516 1.0417 8.0496 1.0417 8.0496s3.2199-3.3146 3.3146-6.4397-0.75762-4.5457-0.56821-5.7768c0 0-1.7993 0.94702-1.4205 3.2199-0.0947 0-2.0499 0.18927-3.061-3.8355z" color="#000000" style="block-progression:tb;text-indent:0;text-transform:none"/>
<path d="m313.35 255.58s-5.3571-8.2576-47.299-8.2576-47.299 8.2576-47.299 8.2576" color="#000000" fill="none" stroke="#000"/>
<path d="m308.26 255.58s-4.7755-5.8469-42.21-5.8469-42.21 5.8469-42.21 5.8469 4.7755 4.5076 42.21 4.5076 42.21-4.5076 42.21-4.5076z" color="#000000" fill="#92213f" stroke="#000"/>
</g>
</g>
</svg>
