<?xml version="1.0" encoding="UTF-8"?>
<svg xmlns="http://www.w3.org/2000/svg" width="900" height="600" viewBox="0 0 9000 6000">
<rect fill="white" width="9000" height="6000"/>
<rect fill="#3399FF" y="5000" width="9000" height="1000"/>
<polygon fill="#D81E05" points="2700,1880 4150,1880 2980,2730 3430,4120 2250,3260 1070,4120 1520,2730 347,1880 1800,1880 2250,500"/>
<path fill="#D81E05" d="M6086 3260c34,-28 75,-85 125,-66 1876,866 1769,-1807 346,-2351 0,0 0,0 0,0 2303,546 1452,4071 -323,2504l-26 -22 -31 30c71,74 -23,188 -107,131 -22,-5 -45,9 -77,96 -39,106 -106,215 -204,220 -98,4 -150,-59 -143,-146 7,-87 133,-173 236,-216 86,-36 82,-45 78,-65 -83,-86 33,-210 126,-113z"/>
<path fill="#D81E05" d="M6203 1741c104,6 208,-15 303,-49l153 158 -666 644 -272 -285 481 -468 0 0z"/>
<path fill="#D81E05" d="M6207 2228c0,0 1442,1536 1442,1536 128,137 339,-70 200,-208l-1499 -1462 -143 133 z"/>
</svg>