<?xml version="1.0" encoding="UTF-8" standalone="no"?>
<svg
   version="1.1"
   width="600"
   height="400"
   id="svg12"
   sodipodi:docname="borflag.svg"
   inkscape:version="1.1.1 (3bf5ae0d25, 2021-09-20)"
   inkscape:export-filename="C:\Users\Admin\Pictures\inkscape non-svg\borflag1.png"
   inkscape:export-xdpi="96"
   inkscape:export-ydpi="96"
   xmlns:inkscape="http://www.inkscape.org/namespaces/inkscape"
   xmlns:sodipodi="http://sodipodi.sourceforge.net/DTD/sodipodi-0.dtd"
   xmlns="http://www.w3.org/2000/svg"
   xmlns:svg="http://www.w3.org/2000/svg">
  <defs
     id="defs16">
    <clipPath
       id="artboard_clip_path">
      <path
         d="m 33.75,60.75 h 297 V 346.5 l -11.25,9 -285.75,2.25 z"
         id="path2" />
    </clipPath>
  </defs>
  <sodipodi:namedview
     id="namedview14"
     pagecolor="#ffffff"
     bordercolor="#666666"
     borderopacity="1.0"
     inkscape:pageshadow="2"
     inkscape:pageopacity="0.0"
     inkscape:pagecheckerboard="0"
     showgrid="false"
     inkscape:zoom="1.81"
     inkscape:cx="299.72376"
     inkscape:cy="185.9116"
     inkscape:window-width="1920"
     inkscape:window-height="1017"
     inkscape:window-x="-8"
     inkscape:window-y="-8"
     inkscape:window-maximized="1"
     inkscape:current-layer="svg12" />
  <rect
     width="150"
     height="400"
     fill="#0039a6"
     x="0"
     y="0"
     id="rect2" />
  <rect
     width="300"
     height="400"
     fill="#ffffff"
     x="150"
     y="0"
     id="rect4" />
  <rect
     width="150"
     height="400"
     fill="#0039a6"
     x="450"
     y="0"
     id="rect6" />
  <rect
     height="400"
     width="33.333"
     x="116.667"
     y="0"
     fill="#c60c30"
     id="rect8" />
  <rect
     height="400"
     width="33.333"
     x="450"
     y="0"
     fill="#c60c30"
     id="rect10" />
  <path
     style="fill:#0039a6;fill-opacity:1;stroke-width:2.50785;stroke-linejoin:bevel"
     d="m 236.46409,167.33879 c -6.68508,-2.12013 -16.06997,-5.09672 -20.8553,-6.61465 l -8.7006,-2.75986 -2.80491,-4.15669 c -3.64389,-5.40003 -7.28005,-13.04427 -9.16962,-19.2772 -1.39473,-4.60063 -1.50743,-5.69522 -1.50743,-14.64089 0,-8.96072 0.11021,-10.02657 1.50541,-14.55979 5.90266,-19.178541 20.23057,-33.506027 39.4036,-39.402429 4.50852,-1.386533 5.62626,-1.504246 14.28354,-1.504246 8.65568,0 9.78223,0.118586 14.36465,1.512092 10.53439,3.203497 18.57655,7.994708 25.98891,15.483217 2.74694,2.775159 6.19164,6.973275 7.65489,9.329146 l 2.66045,4.283401 -0.24057,19.197259 c -0.23104,18.43734 -0.44076,21.13097 -1.64513,21.13097 -1.03916,0 -9.77944,6.14681 -11.45691,8.05734 -2.26967,2.58501 -3.64889,5.41198 -4.97485,10.19689 -0.61005,2.20142 -1.18986,4.08326 -1.28846,4.18187 -0.0986,0.0986 -6.00932,-5.94235 -13.13494,-13.42432 -14.10637,-14.81187 -22.02996,-22.27145 -23.65678,-22.27145 -0.57312,0 -1.33959,0.35853 -1.70327,0.79674 -1.54457,1.86109 2.05046,6.45736 18.64244,23.83448 8.16917,8.55574 10.30359,11.08532 9.59301,11.369 -0.50266,0.20067 -2.60004,0.75216 -4.66083,1.22553 -2.06079,0.47336 -4.64283,1.28582 -5.73787,1.80545 -2.69171,1.2773 -8.17246,6.42798 -9.02181,8.47848 -0.37854,0.91388 -0.84456,1.64423 -1.03559,1.62301 -0.19103,-0.0212 -5.81695,-1.77322 -12.50203,-3.89335 z"
     id="path2686" />
  <path
     style="fill:#0039a6;fill-opacity:1;stroke-width:2.50785;stroke-linejoin:bevel"
     d="m 210.47283,275.68199 c -28.13977,-2.97225 -50.52808,-27.56524 -50.52808,-55.50381 0,-11.67388 3.94485,-23.6438 10.74678,-32.60912 6.32225,-8.33306 12.05095,-13.36354 19.41517,-17.04881 7.30675,-3.65651 13.18379,-5.5177 16.24689,-5.14518 3.77298,0.45884 39.18849,11.19832 40.17202,12.18185 0.17468,0.17468 0.66829,2.37456 1.09691,4.88862 1.0187,5.97502 2.12233,8.12712 6.77139,13.20436 l 3.8581,4.21343 -5.3691,1.67476 c -37.55028,11.71283 -38.46747,12.07185 -38.13769,14.92857 0.16627,1.44028 0.28069,1.48721 3.48682,1.43042 3.62602,-0.0642 9.88702,-1.77823 33.07287,-9.05401 7.85859,-2.46604 14.40307,-4.36897 14.54331,-4.22874 0.14023,0.14023 -0.67303,2.20496 -1.80724,4.58827 -1.86732,3.92381 -2.05899,4.75256 -2.02825,8.76985 0.0442,5.76815 0.92655,8.88706 3.23828,11.44586 1.03183,1.14213 1.87606,2.44605 1.87606,2.89762 0,1.47385 -15.85443,23.93661 -23.85466,33.79757 -3.87596,4.77746 -5.4143,5.783 -11.58106,7.57006 -4.26357,1.23553 -13.76217,2.67998 -16.33808,2.48452 -0.54375,-0.0413 -2.73995,-0.26 -4.88044,-0.48609 z"
     id="path2725" />
  <path
     style="fill:#0039a6;fill-opacity:1;stroke-width:2.50785;stroke-linejoin:bevel"
     d="m 291.43646,335.0532 c -19.67326,-4.22128 -35.22234,-17.67011 -42.3629,-36.64085 -1.93985,-5.1537 -2.84446,-9.51759 -3.4831,-16.80258 l -0.56404,-6.43404 7.55638,-10.37792 c 10.85915,-14.91396 15.45389,-20.92811 18.09341,-23.68287 2.2234,-2.32047 2.40201,-2.3985 4.22051,-1.84371 1.04437,0.31862 4.01212,0.60139 6.59499,0.62837 6.2819,0.0656 10.41295,-1.16834 13.52992,-4.04146 1.46907,-1.35414 2.5375,-1.97763 2.76318,-1.61248 0.49543,0.80162 1.2397,12.26961 1.64994,25.42285 0.39694,12.72646 1.29408,28.81948 1.74789,31.35359 0.2874,1.60491 0.5183,1.79558 2.17433,1.79558 1.26633,0 2.0338,-0.33825 2.4247,-1.06865 0.99905,-1.86675 0.38972,-40.19748 -0.85987,-54.09086 l -0.36467,-4.05454 2.77298,1.99219 c 5.28099,3.79402 15.67675,6.19349 19.64675,4.53471 l 2.00797,-0.83898 1.8631,2.31555 c 1.02471,1.27355 7.63082,10.82793 14.68026,21.23194 l 12.81716,18.91639 -1.15275,6.43864 c -1.99538,11.14513 -5.84215,19.52584 -12.70429,27.67806 -8.13801,9.66795 -21.31806,17.22132 -33.95442,19.45896 -4.52053,0.80049 -14.76648,0.6514 -19.09743,-0.27789 z"
     id="path2764" />
  <path
     style="fill:#0039a6;fill-opacity:1;stroke-width:2.50785;stroke-linejoin:bevel"
     d="m 376.18717,276.58141 c -5.98753,-0.9809 -12.1954,-2.88544 -14.68507,-4.50529 -2.83271,-1.84304 -8.45986,-9.50606 -25.20301,-34.3213 l -2.29767,-3.40541 1.88766,-1.11375 c 3.09792,-1.82781 3.71319,-3.72923 4.19218,-12.95543 0.23441,-4.51518 0.51516,-8.29838 0.6239,-8.40712 0.10873,-0.10873 7.15478,3.66713 15.65787,8.39081 18.38755,10.21474 28.19628,15.09306 31.14152,15.4881 1.89878,0.25468 2.20784,0.13488 2.5664,-0.99486 0.32623,-1.02786 0.0698,-1.56504 -1.28364,-2.6893 -2.56648,-2.13185 -11.32702,-7.46594 -23.59394,-14.36578 -14.74724,-8.29496 -26.24309,-15.09433 -26.24309,-15.5218 0,-0.19136 1.03868,-0.65912 2.30819,-1.03947 4.60068,-1.3784 11.42741,-10.25828 11.9332,-15.52212 0.14404,-1.49904 0.54147,-2.95698 0.88317,-3.23986 1.65484,-1.36995 25.15722,-9.4934 38.54821,-13.32393 l 6.4352,-1.84081 4.15158,1.51416 c 16.64949,6.07241 29.82415,20.45413 34.97353,38.17783 1.89074,6.50777 2.40985,17.17569 1.15766,23.79054 -3.58423,18.93418 -17.02556,35.27531 -34.96653,42.5101 -8.81346,3.55408 -19.37438,4.81847 -28.18732,3.37469 z"
     id="path2803" />
  <path
     style="fill:#0039a6;fill-opacity:1;stroke-width:2.50785;stroke-linejoin:bevel"
     d="m 351.65539,173.61878 c -0.003,-2.19969 -1.73178,-4.70693 -5.07775,-7.36416 -4.14623,-3.29278 -6.74623,-4.34973 -10.7351,-4.36403 -1.86119,-0.007 -4.14373,-0.16409 -5.07231,-0.34981 l -1.68834,-0.33766 12.3866,-14.83263 c 12.56147,-15.04203 21.45925,-26.22411 23.76674,-29.86833 1.59592,-2.52043 1.26638,-4.34746 -0.78415,-4.34746 -2.03454,0 -8.80299,7.07047 -23.00655,24.03315 -12.61426,15.06463 -18.40755,21.40317 -19.14532,20.9472 -0.26181,-0.1618 -0.47739,-1.08753 -0.47909,-2.05716 -0.006,-3.21456 -1.19818,-6.1445 -3.86583,-9.49778 -2.76183,-3.47165 -7.40208,-8.0352 -10.21948,-10.05057 l -1.65746,-1.18563 -0.1735,-18.12066 c -0.1884,-19.677162 1.3e-4,-21.473744 2.65902,-25.338302 3.06296,-4.451861 12.3057,-13.312302 17.12774,-16.419304 10.26628,-6.614911 18.66387,-9.021636 31.21547,-8.946269 7.33409,0.04404 8.85288,0.221282 13.20463,1.540995 13.78094,4.17921 24.65679,12.096729 32.2878,23.505227 5.85992,8.760662 8.8385,17.814153 9.32936,28.356863 0.50319,10.80729 -1.06596,17.38478 -6.82085,28.59135 -4.69341,9.13954 -6.12687,10.78688 -11.63074,13.36609 -3.71419,1.74052 -39.96579,14.25822 -41.29222,14.25822 -0.17963,0 -0.32753,-0.6837 -0.32867,-1.51934 z"
     id="path2842" />
  <path
     style="fill:#ffd900;fill-opacity:1;stroke-width:2.50785;stroke-linejoin:bevel"
     d="m 290.80216,165.67497 c -1.90051,-0.69646 -3.78751,-4.98696 -3.78019,-8.59507 0.007,-3.28836 1.93042,-7.54216 4.48496,-9.91716 1.02478,-0.95276 3.51757,-2.72532 5.53954,-3.93904 4.18244,-2.51056 5.7259,-2.54437 8.53489,-0.18697 0.94268,0.79112 2.45836,1.84001 3.36818,2.33086 3.61752,1.95165 6.18697,6.95648 6.20745,12.09097 0.0179,4.49449 -1.51318,7.49963 -4.2013,8.24607 -2.61592,0.72639 -18.1528,0.70352 -20.15353,-0.0297 z"
     id="path2918" />
  <path
     style="fill:#ffd800;fill-opacity:1;stroke-width:2.50785;stroke-linejoin:bevel"
     d="m 296.15017,206.64925 c -0.54033,-0.59705 -2.34491,-1.48164 -4.0102,-1.96575 -1.66528,-0.48411 -3.63059,-1.48301 -4.36735,-2.21977 -2.65147,-2.65147 -5.06112,-10.6958 -4.35444,-14.53677 0.90711,-4.93034 4.54402,-10.21341 7.474,-10.85694 0.89065,-0.19562 2.41158,-1.09571 3.37985,-2.00022 2.63122,-2.45792 3.60933,-2.81929 7.56923,-2.79644 2.85063,0.0164 3.80008,0.24117 4.47923,1.06017 0.47401,0.57162 1.48338,1.30958 2.24305,1.63992 2.00164,0.8704 8.78312,6.91068 10.10806,9.00328 0.80677,1.2742 1.19668,2.99893 1.35754,6.00491 0.22323,4.17173 0.2009,4.25494 -2.0689,7.70826 -1.64184,2.49793 -3.25051,4.10885 -5.65505,5.66298 -1.84826,1.19459 -3.76392,2.17198 -4.25701,2.17198 -0.49309,0 -1.32228,0.49724 -1.84264,1.10497 -1.37755,1.60886 -8.60431,1.62282 -10.05537,0.0194 z"
     id="path2957" />
  <path
     style="fill:#ffd900;fill-opacity:1;stroke-width:2.50785;stroke-linejoin:bevel"
     d="m 315.92041,231.89756 c -5.76317,-2.23461 -10.38812,-8.56022 -10.01693,-13.70032 0.16675,-2.3091 0.26166,-2.42576 2.31876,-2.85043 4.63792,-0.95743 10.92825,-5.26561 13.9376,-9.54571 l 1.16537,-1.65745 1.94707,0.92722 c 6.7905,3.23373 10.16596,10.64499 8.05589,17.68778 -0.82833,2.76471 -4.35971,6.7902 -7.25049,8.26496 -2.70047,1.37768 -7.73985,1.81128 -10.15727,0.87395 z"
     id="path2996" />
  <path
     style="fill:#ffd900;fill-opacity:1;stroke-width:2.50785;stroke-linejoin:bevel"
     d="m 329.73355,195.30938 c -0.83934,-0.58789 -1.27569,-1.65391 -1.52649,-3.72928 -1.09133,-9.03087 -1.44898,-10.29003 -3.68943,-12.98925 -2.87535,-3.46413 -3.18248,-4.79353 -1.5189,-6.57457 2.71474,-2.90642 5.9906,-4.33839 9.8742,-4.31629 4.32216,0.0246 7.12055,1.31664 10.17552,4.69812 4.27703,4.73416 5.23317,9.59077 2.88216,14.63952 -2.97449,6.38765 -12.17715,11.08741 -16.19706,8.27175 z"
     id="path3035" />
  <path
     style="fill:#ffd900;fill-opacity:1;stroke-width:2.50785;stroke-linejoin:bevel"
     d="m 278.66424,231.83393 c -4.90362,-1.75231 -8.03666,-4.7412 -9.59263,-9.15128 -2.33958,-6.63108 0.83797,-14.27169 7.00694,-16.84861 2.57287,-1.07475 4.01351,-0.58346 7.67092,2.61595 1.48075,1.29533 4.49979,3.31757 6.70897,4.49386 5.02693,2.67663 5.79939,3.34294 6.24908,5.39035 0.27078,1.23283 -0.0733,2.52786 -1.3731,5.16814 -3.49048,7.09018 -10.43355,10.56025 -16.67018,8.33159 z"
     id="path3074" />
  <path
     style="fill:#ffd900;fill-opacity:1;stroke-width:2.50785;stroke-linejoin:bevel"
     d="m 262.86744,192.2758 c -9.51631,-4.80457 -11.64687,-15.53839 -4.48635,-22.60241 3.67619,-3.62664 8.63822,-5.1467 12.98227,-3.97697 3.10469,0.836 7.36982,3.79663 8.64596,6.00157 l 1.04669,1.80848 -1.98685,2.88765 c -2.28118,3.31542 -4.13708,8.20895 -4.60197,12.13418 -0.45768,3.86444 -1.54042,4.96167 -5.17651,5.24583 -2.53116,0.19781 -3.52111,-0.0331 -6.42324,-1.49833 z"
     id="path3113" />
</svg>
