<?xml version="1.0" encoding="UTF-8"?>
<!DOCTYPE svg PUBLIC "-//W3C//DTD SVG 1.1//EN" "http://www.w3.org/Graphics/SVG/1.1/DTD/svg11.dtd">
<svg xmlns="http://www.w3.org/2000/svg" version="1.1" width="1251px" height="817px" style="shape-rendering:geometricPrecision; text-rendering:geometricPrecision; image-rendering:optimizeQuality; fill-rule:evenodd; clip-rule:evenodd" xmlns:xlink="http://www.w3.org/1999/xlink">
<g><path style="opacity:1" fill="#000000" d="M -0.5,-0.5 C 416.5,-0.5 833.5,-0.5 1250.5,-0.5C 1250.5,271.833 1250.5,544.167 1250.5,816.5C 833.5,816.5 416.5,816.5 -0.5,816.5C -0.5,544.167 -0.5,271.833 -0.5,-0.5 Z"/></g>
<g><path style="opacity:1" fill="#a40000" d="M 1241.5,5.5 C 1241.5,5.83333 1241.5,6.16667 1241.5,6.5C 1240.83,6.5 1240.17,6.5 1239.5,6.5C 828.5,6.5 417.5,6.5 6.5,6.5C 6.16688,273.667 6.50021,540.667 7.5,807.5C 7.5,808.167 7.16667,808.5 6.5,808.5C 6.16667,808.5 5.83333,808.5 5.5,808.5C 5.5,540.833 5.5,273.167 5.5,5.5C 417.5,5.5 829.5,5.5 1241.5,5.5 Z"/></g>
<g><path style="opacity:1" fill="#fe0100" d="M 1239.5,6.5 C 1095.37,100.735 951.041,194.735 806.5,288.5C 809.576,282.437 811.743,276.104 813,269.5C 806.417,278.085 798.584,285.252 789.5,291C 788,293.167 786.5,295.333 785,297.5C 783.347,291.622 784.847,286.788 789.5,283C 797.892,279.275 804.392,273.441 809,265.5C 810.776,260.852 812.11,256.185 813,251.5C 806.251,260.251 798.251,267.584 789,273.5C 787.234,275.596 785.901,277.929 785,280.5C 783.289,274.306 784.789,269.14 789.5,265C 795.449,261.44 800.949,257.274 806,252.5C 809.343,246.299 811.51,239.965 812.5,233.5C 806.932,241.569 799.932,248.069 791.5,253C 788.727,255.383 786.561,258.217 785,261.5C 784.333,258.167 784.333,254.833 785,251.5C 792.56,245.393 799.894,239.06 807,232.5C 809.831,226.673 811.831,220.673 813,214.5C 806.607,222.728 799.107,229.728 790.5,235.5C 788.476,237.69 786.643,240.023 785,242.5C 785.816,235.879 786.649,229.212 787.5,222.5C 787.251,215.76 785.584,209.427 782.5,203.5C 780.119,207.673 779.119,212.173 779.5,217C 781.16,226.782 781.993,236.615 782,246.5C 779.311,239.143 774.478,233.643 767.5,230C 762.3,225.135 757.467,219.968 753,214.5C 754.308,228.806 761.475,238.973 774.5,245C 777.372,247.537 779.872,250.37 782,253.5C 782.667,257.167 782.667,260.833 782,264.5C 778.921,256.42 773.421,250.586 765.5,247C 760.966,242.801 756.799,238.301 753,233.5C 754.169,239.673 756.169,245.673 759,251.5C 766.56,257.607 773.894,263.94 781,270.5C 781.667,273.833 781.667,277.167 781,280.5C 777.64,274.228 772.807,269.395 766.5,266C 761.631,260.951 756.965,256.451 752.5,252.5C 754.121,261.893 758.455,269.726 765.5,276C 771.9,279.066 777.067,283.566 781,289.5C 781.667,292.5 781.667,295.5 781,298.5C 777.5,292.333 772.667,287.5 766.5,284C 761.633,279.468 757.133,274.634 753,269.5C 754.308,283.806 761.475,293.973 774.5,300C 776.373,301.704 778.04,303.537 779.5,305.5C 778.694,306.728 777.694,307.728 776.5,308.5C 767.316,303.156 759.482,296.156 753,287.5C 753.937,298.377 758.771,307.044 767.5,313.5C 766.205,314.488 764.872,315.488 763.5,316.5C 759.579,313.409 756.079,309.742 753,305.5C 753.831,310.512 754.998,315.512 756.5,320.5C 755.306,321.272 754.306,322.272 753.5,323.5C 752.508,323.328 751.842,323.662 751.5,324.5C 747.483,326.861 743.483,329.194 739.5,331.5C 739.5,326.167 739.5,320.833 739.5,315.5C 738.5,315.5 737.5,315.5 736.5,315.5C 736.5,321.833 736.5,328.167 736.5,334.5C 735.508,334.328 734.842,334.662 734.5,335.5C 715.33,347.584 696.33,359.918 677.5,372.5C 673.027,339.342 668.861,306.009 665,272.5C 658.582,263.039 649.749,257.206 638.5,255C 660.453,257.327 682.453,259.493 704.5,261.5C 704.5,259.167 704.5,256.833 704.5,254.5C 683.774,253.71 663.108,252.21 642.5,250C 663.164,248.722 683.831,247.556 704.5,246.5C 704.5,244.167 704.5,241.833 704.5,239.5C 682.673,241.933 660.84,244.266 639,246.5C 634.379,242.023 629.379,238.023 624,234.5C 619.342,237.584 615.176,241.25 611.5,245.5C 610.167,245.833 608.833,246.167 607.5,246.5C 586.196,244.169 564.863,242.169 543.5,240.5C 543.244,242.792 543.577,244.959 544.5,247C 560.168,247.889 575.835,248.722 591.5,249.5C 593.5,250.167 595.5,250.833 597.5,251.5C 579.509,252.648 561.509,253.648 543.5,254.5C 543.5,257.167 543.5,259.833 543.5,262.5C 565.758,259.092 588.091,256.592 610.5,255C 598.778,256.937 589.611,262.771 583,272.5C 577.468,316.821 572.135,361.154 567,405.5C 566.691,406.766 566.191,407.933 565.5,409C 560.42,410.804 555.42,412.804 550.5,415C 545.781,418.264 542.947,422.764 542,428.5C 541.5,439.161 541.333,449.828 541.5,460.5C 533.5,465.833 525.5,471.167 517.5,476.5C 515.871,475.375 514.371,474.041 513,472.5C 513.15,474.506 513.65,476.506 514.5,478.5C 513.833,478.833 513.167,479.167 512.5,479.5C 509.022,474.566 505.522,469.566 502,464.5C 503.336,471.366 504.17,478.366 504.5,485.5C 501.705,486.063 499.372,487.396 497.5,489.5C 502.277,477.271 501.11,465.604 494,454.5C 493.684,467.062 491.851,479.396 488.5,491.5C 484.872,488.542 481.539,485.375 478.5,482C 480.702,477.095 483.535,472.595 487,468.5C 488.868,465.395 490.035,462.062 490.5,458.5C 491.817,452.654 491.817,446.654 490.5,440.5C 489.893,440.624 489.56,440.957 489.5,441.5C 486.01,452.146 481.177,462.146 475,471.5C 474.667,473.5 474.333,475.5 474,477.5C 470.911,474.333 469.244,470.666 469,466.5C 472.921,460.574 477.588,455.241 483,450.5C 486.006,443.472 487.839,436.139 488.5,428.5C 488.154,427.304 487.654,427.304 487,428.5C 482.876,437.293 477.21,444.959 470,451.5C 468.059,455.048 466.393,458.714 465,462.5C 463.039,457.619 462.039,452.619 462,447.5C 468.849,442.407 475.516,437.074 482,431.5C 485.343,425.299 487.51,418.965 488.5,412.5C 482.6,420.901 475.267,427.734 466.5,433C 464.3,435.234 462.467,437.734 461,440.5C 460.333,437.167 460.333,433.833 461,430.5C 467.333,425.5 473.667,420.5 480,415.5C 483.607,409.348 486.441,402.848 488.5,396C 487.833,395.333 487.167,395.333 486.5,396C 478.612,405.221 470.112,413.721 461,421.5C 460.333,418.5 460.333,415.5 461,412.5C 467.333,407.5 473.667,402.5 480,397.5C 484.067,390.956 486.734,383.956 488,376.5C 479.613,386.221 470.613,395.221 461,403.5C 460.333,400.167 460.333,396.833 461,393.5C 467.849,388.407 474.516,383.074 481,377.5C 484.343,371.299 486.51,364.965 487.5,358.5C 481.6,366.901 474.267,373.734 465.5,379C 463.641,380.558 462.141,382.391 461,384.5C 460.333,381.833 460.333,379.167 461,376.5C 467.852,371.071 474.519,365.404 481,359.5C 484.147,353.385 486.48,347.052 488,340.5C 481.417,349.085 473.584,356.252 464.5,362C 459.468,370.6 458.301,369.766 461,359.5C 467.333,354.5 473.667,349.5 480,344.5C 484.067,337.956 486.734,330.956 488,323.5C 482.127,331.04 475.294,337.54 467.5,343C 464.238,345.592 461.738,348.759 460,352.5C 459.163,348.705 459.496,345.039 461,341.5C 466.457,336.108 472.457,331.442 479,327.5C 483.777,320.822 486.777,313.489 488,305.5C 482.46,312.707 475.96,318.874 468.5,324C 464.908,326.921 462.075,330.421 460,334.5C 459.146,330.375 459.48,326.375 461,322.5C 467.667,317.167 474.333,311.833 481,306.5C 484.366,300.229 486.533,293.896 487.5,287.5C 481.932,295.569 474.932,302.069 466.5,307C 463.727,309.383 461.561,312.217 460,315.5C 458.347,309.622 459.847,304.788 464.5,301C 470.568,297.601 476.068,293.435 481,288.5C 484.343,282.299 486.51,275.965 487.5,269.5C 481.6,277.901 474.267,284.734 465.5,290C 463.667,292.5 461.833,295 460,297.5C 458.347,291.622 459.847,286.788 464.5,283C 470.449,279.44 475.949,275.274 481,270.5C 484.343,264.299 486.51,257.965 487.5,251.5C 483.98,255.186 480.647,259.019 477.5,263C 473.5,266 469.5,269 465.5,272C 462.943,274.892 460.776,278.059 459,281.5C 457.898,276.816 458.564,272.483 461,268.5C 467.333,263.5 473.667,258.5 480,253.5C 483.607,247.348 486.441,240.848 488.5,234C 483.053,238.433 477.72,243.433 472.5,249C 466.277,252.223 461.777,257.057 459,263.5C 457.56,257.805 458.726,252.805 462.5,248.5C 468.942,243.859 475.108,238.859 481,233.5C 484.219,227.413 486.553,221.08 488,214.5C 481.251,223.251 473.251,230.584 464,236.5C 461.558,239.048 459.892,242.048 459,245.5C 458.453,236.061 459.286,226.728 461.5,217.5C 461.296,212.459 459.962,207.792 457.5,203.5C 451.932,215.006 451.432,226.673 456,238.5C 456.667,240.5 456.667,242.5 456,244.5C 453.25,238.081 448.75,233.248 442.5,230C 437.28,224.406 432.28,219.739 427.5,216C 429.227,222.521 431.727,228.688 435,234.5C 439.603,239.104 444.77,242.938 450.5,246C 456.112,250.176 457.945,255.676 456,262.5C 452.64,256.228 447.807,251.395 441.5,248C 436.633,243.468 432.133,238.634 428,233.5C 428.773,239.821 430.773,245.821 434,251.5C 441,257.5 448,263.5 455,269.5C 456.504,273.039 456.837,276.705 456,280.5C 452.5,274.333 447.667,269.5 441.5,266C 436.633,261.468 432.133,256.634 428,251.5C 428.873,259.112 431.54,266.112 436,272.5C 442.697,277.018 449.03,282.018 455,287.5C 455.667,290.5 455.667,293.5 455,296.5C 445.387,288.221 436.387,279.221 428,269.5C 428.924,276.604 431.258,283.271 435,289.5C 441.849,294.593 448.516,299.926 455,305.5C 455.667,308.5 455.667,311.5 455,314.5C 445.387,306.221 436.387,297.221 428,287.5C 428.873,295.112 431.54,302.112 436,308.5C 442.697,313.018 449.03,318.018 455,323.5C 455.667,326.833 455.667,330.167 455,333.5C 453.533,330.734 451.7,328.234 449.5,326C 441.086,320.921 433.919,314.421 428,306.5C 429.126,313.205 431.459,319.538 435,325.5C 441.333,330.5 447.667,335.5 454,340.5C 455.504,344.039 455.837,347.705 455,351.5C 451.19,345.992 446.357,341.492 440.5,338C 435.966,333.801 431.799,329.301 428,324.5C 428.999,338.314 435.832,348.147 448.5,354C 452.106,356.58 454.44,359.913 455.5,364C 455.333,365.167 455.167,366.333 455,367.5C 449.812,361.648 443.979,356.481 437.5,352C 434.333,348.167 431.167,344.333 428,340.5C 429.219,355.423 436.719,365.923 450.5,372C 454.277,374.955 455.443,378.788 454,383.5C 444.37,376.204 435.703,367.871 428,358.5C 429.119,372.896 436.285,383.063 449.5,389C 454.218,392.343 455.718,396.843 454,402.5C 450.138,397.976 445.638,394.142 440.5,391C 435.966,386.801 431.799,382.301 428,377.5C 428.807,383.808 430.807,389.808 434,395.5C 440.064,401.4 446.564,406.734 453.5,411.5C 454.652,414.106 454.818,416.773 454,419.5C 447.45,413.949 440.617,408.783 433.5,404C 431,401.5 428.5,399 426,396.5C 427.892,406.111 432.725,413.944 440.5,420C 445.267,422.438 449.767,425.271 454,428.5C 454.667,431.833 454.667,435.167 454,438.5C 448.253,434.041 442.086,430.207 435.5,427C 432.203,424.705 429.203,422.038 426.5,419C 425.668,418.312 425.002,418.479 424.5,419.5C 427.041,426.092 430.708,431.925 435.5,437C 441.952,440.642 448.452,444.142 455,447.5C 455.817,451.899 456.484,456.232 457,460.5C 447.067,456.225 437.901,450.725 429.5,444C 428.668,443.312 428.002,443.479 427.5,444.5C 431.133,450.266 435.133,455.766 439.5,461C 445.899,464.532 452.566,467.532 459.5,470C 462.317,472.638 464.65,475.638 466.5,479C 454.691,479.074 443.025,478.074 431.5,476C 436.865,480.684 442.865,484.35 449.5,487C 454.851,487.61 460.184,487.443 465.5,486.5C 468.226,486.682 470.893,487.182 473.5,488C 475.871,490.706 478.537,493.039 481.5,495C 470.014,497.825 458.347,499.158 446.5,499C 453.848,503.021 461.514,505.854 469.5,507.5C 315.5,607.5 161.5,707.5 7.5,807.5C 6.50021,540.667 6.16688,273.667 6.5,6.5C 417.5,6.5 828.5,6.5 1239.5,6.5 Z"/></g>
<g><path style="opacity:1" fill="#0226fd" d="M 1239.5,6.5 C 1240.17,6.5 1240.83,6.5 1241.5,6.5C 1243.5,273.831 1244.17,541.498 1243.5,809.5C 831,809.833 418.666,809.5 6.5,808.5C 7.16667,808.5 7.5,808.167 7.5,807.5C 161.5,707.5 315.5,607.5 469.5,507.5C 478.977,501.816 488.644,501.316 498.5,506C 487.553,510.927 476.219,514.76 464.5,517.5C 477.665,522.584 489.998,521.084 501.5,513C 507.478,510.758 513.145,511.425 518.5,515C 508.701,520.898 498.368,525.732 487.5,529.5C 497.627,531.629 507.293,530.462 516.5,526C 519.557,523.277 522.89,520.944 526.5,519C 529.899,518.454 533.232,518.787 536.5,520C 527.975,527.766 518.308,533.766 507.5,538C 515.793,539.171 523.793,538.171 531.5,535C 536.476,530.513 541.809,526.513 547.5,523C 550.158,522.927 552.824,523.26 555.5,524C 546.188,531.659 536.188,538.326 525.5,544C 532.632,544.154 539.632,543.154 546.5,541C 552.5,536.333 558.5,531.667 564.5,527C 579.004,528.033 593.337,530.366 607.5,534C 575.717,545.55 547.05,562.217 521.5,584C 525.5,584.667 529.5,584.667 533.5,584C 558.617,561.854 587.45,546.354 620,537.5C 654.06,545.778 684.226,561.278 710.5,584C 714.5,584.667 718.5,584.667 722.5,584C 696.333,561.408 666.666,544.742 633.5,534C 646.452,530.952 659.452,528.119 672.5,525.5C 675.107,526.137 677.44,527.304 679.5,529C 686.546,538.356 695.88,543.189 707.5,543.5C 709.966,544.634 712.633,544.801 715.5,544C 714.956,543.283 714.289,542.783 713.5,542.5C 709.86,540.68 706.193,538.847 702.5,537C 696.779,532.279 690.779,527.946 684.5,524C 687.406,522.682 690.406,522.348 693.5,523C 699.614,528.445 706.28,533.112 713.5,537C 719.765,538.484 726.098,538.818 732.5,538C 722.027,533.265 712.361,527.265 703.5,520C 706.738,518.632 710.072,518.299 713.5,519C 719.702,522.933 726.035,526.6 732.5,530C 739.192,530.831 745.858,530.664 752.5,529.5C 741.632,525.732 731.299,520.898 721.5,515C 725.126,513.677 728.792,512.511 732.5,511.5C 739.706,513.768 746.706,516.601 753.5,520C 761.061,520.688 768.394,519.688 775.5,517C 763.919,514.917 752.919,511.251 742.5,506C 745.195,503.57 748.362,502.403 752,502.5C 759.153,503.913 766.32,505.247 773.5,506.5C 780.872,505.152 787.872,502.652 794.5,499C 782.631,499.214 770.965,497.881 759.5,495C 762.203,491.962 765.203,489.295 768.5,487C 784.161,490.337 797.828,486.67 809.5,476C 805.196,476.423 800.862,477.09 796.5,478C 789.45,478.202 782.45,478.702 775.5,479.5C 775.744,476.492 777.077,473.659 779.5,471C 787.373,467.712 795.04,464.045 802.5,460C 806.414,454.841 810.08,449.507 813.5,444C 806.845,448.174 799.845,452.174 792.5,456C 789.716,456.892 787.05,458.058 784.5,459.5C 784.167,459 783.833,458.5 783.5,458C 784.569,454.557 785.402,451.057 786,447.5C 791.725,444.146 797.558,440.98 803.5,438C 809.876,432.396 814.043,425.563 816,417.5C 808.599,424.895 800.099,430.729 790.5,435C 787.069,439.925 785.736,439.258 786.5,433C 786.833,431.167 787.167,429.333 787.5,427.5C 793.337,424.082 799.004,420.416 804.5,416.5C 809.58,410.341 812.914,403.674 814.5,396.5C 806.055,404.783 796.888,412.117 787,418.5C 785.622,414.102 786.788,410.602 790.5,408C 800.823,403.677 807.656,396.177 811,385.5C 812.028,382.491 812.695,379.491 813,376.5C 805.268,385.733 796.768,394.066 787.5,401.5C 786.532,399.393 786.198,397.059 786.5,394.5C 793.167,388.4 800.001,382.4 807,376.5C 809.831,370.673 811.831,364.673 813,358.5C 806.417,367.085 798.584,374.252 789.5,380C 788.696,381.771 787.529,383.271 786,384.5C 785.333,381.833 785.333,379.167 786,376.5C 791.263,371.235 797.096,366.735 803.5,363C 808.627,356.275 811.793,348.775 813,340.5C 804.613,350.221 795.613,359.221 786,367.5C 785.333,364.833 785.333,362.167 786,359.5C 792.667,354.167 799.333,348.833 806,343.5C 809.358,337.087 811.692,330.421 813,323.5C 804.613,333.221 795.613,342.221 786,350.5C 785.333,347.5 785.333,344.5 786,341.5C 792.333,336.5 798.667,331.5 805,326.5C 809.067,319.956 811.734,312.956 813,305.5C 804.613,315.221 795.613,324.221 786,332.5C 784.574,327.243 785.741,322.743 789.5,319C 795.568,315.601 801.068,311.435 806,306.5C 809.541,300.538 811.874,294.205 813,287.5C 806.749,295.753 799.249,302.586 790.5,308C 788.667,310.5 786.833,313 785,315.5C 784.333,312.5 784.333,309.5 785,306.5C 792.105,300.373 799.272,294.373 806.5,288.5C 951.041,194.735 1095.37,100.735 1239.5,6.5 Z"/></g>
<g><path style="opacity:1" fill="#0019ae" d="M 1241.5,6.5 C 1241.5,6.16667 1241.5,5.83333 1241.5,5.5C 1242.5,5.5 1243.5,5.5 1244.5,5.5C 1244.5,273.5 1244.5,541.5 1244.5,809.5C 1244.17,809.5 1243.83,809.5 1243.5,809.5C 1244.17,541.498 1243.5,273.831 1241.5,6.5 Z"/></g>
<g><path style="opacity:1" fill="#fff9f8" d="M 624.5,146.5 C 625.75,146.577 626.583,147.244 627,148.5C 629.273,156.101 631.773,163.601 634.5,171C 643.51,171.534 652.51,172.201 661.5,173C 654.025,178.308 646.692,183.808 639.5,189.5C 642.822,197.95 644.989,206.617 646,215.5C 638.947,210.271 631.78,205.271 624.5,200.5C 616.923,204.736 609.59,209.402 602.5,214.5C 601.386,213.277 601.219,211.944 602,210.5C 604.308,203.242 606.808,196.075 609.5,189C 602.329,183.325 595.329,177.492 588.5,171.5C 597.482,170.668 606.482,170.168 615.5,170C 618.602,162.194 621.602,154.361 624.5,146.5 Z"/></g>
<g><path style="opacity:1" fill="#faf6fb" d="M 489.5,441.5 C 490.489,446.975 490.822,452.642 490.5,458.5C 490.035,462.062 488.868,465.395 487,468.5C 483.535,472.595 480.702,477.095 478.5,482C 481.539,485.375 484.872,488.542 488.5,491.5C 491.851,479.396 493.684,467.062 494,454.5C 501.11,465.604 502.277,477.271 497.5,489.5C 496.271,492.135 496.271,494.801 497.5,497.5C 500.079,498.706 502.579,500.039 505,501.5C 504.661,496.227 504.494,490.893 504.5,485.5C 504.17,478.366 503.336,471.366 502,464.5C 505.522,469.566 509.022,474.566 512.5,479.5C 513.462,487.822 513.629,496.155 513,504.5C 516.13,506.877 519.63,508.043 523.5,508C 520.87,498.055 517.87,488.222 514.5,478.5C 513.65,476.506 513.15,474.506 513,472.5C 514.371,474.041 515.871,475.375 517.5,476.5C 526.618,484.749 530.784,495.082 530,507.5C 530.707,509.081 531.54,510.581 532.5,512C 536.72,513.806 541.053,514.806 545.5,515C 544,513.5 542.5,512 541,510.5C 537.54,499.413 532.374,489.247 525.5,480C 531.592,482.658 537.092,486.492 542,491.5C 545.643,500.101 549.477,508.601 553.5,517C 562.204,520.031 563.371,518.531 557,512.5C 553.67,502.52 548.67,493.52 542,485.5C 541.333,484.833 541.333,484.167 542,483.5C 548.572,487.402 554.572,492.069 560,497.5C 562.931,505.307 566.431,512.807 570.5,520C 585.617,522.445 600.617,525.445 615.5,529C 618.5,529.667 621.5,529.667 624.5,529C 639.387,525.489 654.387,522.489 669.5,520C 671.359,518.442 672.859,516.609 674,514.5C 675.857,507.791 678.524,501.457 682,495.5C 686.727,491.219 691.894,487.552 697.5,484.5C 697.833,484.833 698.167,485.167 698.5,485.5C 692.036,494.092 686.87,503.426 683,513.5C 681.5,515 680,516.5 678.5,518C 681.558,518.458 684.558,518.124 687.5,517C 691.199,508.898 694.699,500.732 698,492.5C 702.783,487.448 708.117,483.115 714,479.5C 708.35,488.813 703.683,498.813 700,509.5C 698.859,511.609 697.359,513.442 695.5,515C 699.826,514.175 704.159,513.008 708.5,511.5C 710.412,504.635 711.912,497.635 713,490.5C 714,488.5 715,486.5 716,484.5C 720.043,480.625 723.877,476.625 727.5,472.5C 727.833,472.833 728.167,473.167 728.5,473.5C 722.594,484.82 719.427,496.487 719,508.5C 721.833,507.333 724.667,506.167 727.5,505C 727.618,497.592 727.784,490.092 728,482.5C 730.563,476.372 733.897,470.705 738,465.5C 736.78,477.445 736.113,489.445 736,501.5C 739.664,499.988 742.497,497.655 744.5,494.5C 738.571,480.776 739.238,467.442 746.5,454.5C 747.547,467.23 749.047,479.897 751,492.5C 755.314,489.353 759.148,485.686 762.5,481.5C 759.529,476.697 756.362,472.03 753,467.5C 749.478,459.132 748.645,450.466 750.5,441.5C 754.023,451.547 758.856,460.88 765,469.5C 765.511,471.878 766.178,474.212 767,476.5C 769.243,473.926 771.076,471.092 772.5,468C 767.014,461.178 761.514,454.344 756,447.5C 753.599,441.025 752.599,434.358 753,427.5C 758.174,437.008 764.507,445.675 772,453.5C 773.444,456.055 774.611,458.721 775.5,461.5C 777.929,457.117 778.763,452.45 778,447.5C 771.015,442.179 764.348,436.512 758,430.5C 755.169,424.673 753.169,418.673 752,412.5C 758.583,421.085 766.416,428.252 775.5,434C 776.386,435.615 777.386,437.115 778.5,438.5C 778.987,439.473 779.487,440.473 780,441.5C 780.808,437.973 780.641,434.64 779.5,431.5C 772.833,425.4 765.999,419.4 759,413.5C 756.169,407.673 754.169,401.673 753,395.5C 759.251,403.753 766.751,410.586 775.5,416C 780.153,423.549 781.653,422.716 780,413.5C 779.215,411.714 778.049,410.214 776.5,409C 770.432,405.601 764.932,401.435 760,396.5C 756.272,390.48 754.106,384.147 753.5,377.5C 759.4,385.901 766.733,392.734 775.5,398C 780.311,405.159 781.811,403.992 780,394.5C 774.03,389.018 767.697,384.018 761,379.5C 756.933,372.956 754.266,365.956 753,358.5C 761.387,368.221 770.387,377.221 780,385.5C 780.667,382.5 780.667,379.5 780,376.5C 773.333,371.167 766.667,365.833 760,360.5C 756.247,354.238 753.914,347.571 753,340.5C 761.387,350.221 770.387,359.221 780,367.5C 781.297,362.883 780.13,359.05 776.5,356C 770.432,352.601 764.932,348.435 760,343.5C 756.86,337.225 754.027,330.891 751.5,324.5C 751.842,323.662 752.508,323.328 753.5,323.5C 758.67,332.17 765.67,339.003 774.5,344C 776.539,345.926 778.206,348.093 779.5,350.5C 779.783,351.289 780.283,351.956 781,352.5C 781.805,349.304 781.638,346.304 780.5,343.5C 779.432,340.925 777.765,338.758 775.5,337C 767.477,333.34 761.144,327.84 756.5,320.5C 754.998,315.512 753.831,310.512 753,305.5C 756.079,309.742 759.579,313.409 763.5,316.5C 768.139,320.968 772.972,325.301 778,329.5C 779,331.167 780,332.833 781,334.5C 781.837,330.705 781.504,327.039 780,323.5C 776.535,319.193 772.369,315.859 767.5,313.5C 758.771,307.044 753.937,298.377 753,287.5C 759.482,296.156 767.316,303.156 776.5,308.5C 778.172,311.022 779.672,313.688 781,316.5C 781.667,313.5 781.667,310.5 781,307.5C 780.722,306.584 780.222,305.918 779.5,305.5C 778.04,303.537 776.373,301.704 774.5,300C 761.475,293.973 754.308,283.806 753,269.5C 757.133,274.634 761.633,279.468 766.5,284C 772.667,287.5 777.5,292.333 781,298.5C 781.667,295.5 781.667,292.5 781,289.5C 777.067,283.566 771.9,279.066 765.5,276C 758.455,269.726 754.121,261.893 752.5,252.5C 756.965,256.451 761.631,260.951 766.5,266C 772.807,269.395 777.64,274.228 781,280.5C 781.667,277.167 781.667,273.833 781,270.5C 773.894,263.94 766.56,257.607 759,251.5C 756.169,245.673 754.169,239.673 753,233.5C 756.799,238.301 760.966,242.801 765.5,247C 773.421,250.586 778.921,256.42 782,264.5C 782.667,260.833 782.667,257.167 782,253.5C 779.872,250.37 777.372,247.537 774.5,245C 761.475,238.973 754.308,228.806 753,214.5C 757.467,219.968 762.3,225.135 767.5,230C 774.478,233.643 779.311,239.143 782,246.5C 781.993,236.615 781.16,226.782 779.5,217C 779.119,212.173 780.119,207.673 782.5,203.5C 785.584,209.427 787.251,215.76 787.5,222.5C 786.649,229.212 785.816,235.879 785,242.5C 786.643,240.023 788.476,237.69 790.5,235.5C 799.107,229.728 806.607,222.728 813,214.5C 811.831,220.673 809.831,226.673 807,232.5C 799.894,239.06 792.56,245.393 785,251.5C 784.333,254.833 784.333,258.167 785,261.5C 786.561,258.217 788.727,255.383 791.5,253C 799.932,248.069 806.932,241.569 812.5,233.5C 811.51,239.965 809.343,246.299 806,252.5C 800.949,257.274 795.449,261.44 789.5,265C 784.789,269.14 783.289,274.306 785,280.5C 785.901,277.929 787.234,275.596 789,273.5C 798.251,267.584 806.251,260.251 813,251.5C 812.11,256.185 810.776,260.852 809,265.5C 804.392,273.441 797.892,279.275 789.5,283C 784.847,286.788 783.347,291.622 785,297.5C 786.5,295.333 788,293.167 789.5,291C 798.584,285.252 806.417,278.085 813,269.5C 811.743,276.104 809.576,282.437 806.5,288.5C 799.272,294.373 792.105,300.373 785,306.5C 784.333,309.5 784.333,312.5 785,315.5C 786.833,313 788.667,310.5 790.5,308C 799.249,302.586 806.749,295.753 813,287.5C 811.874,294.205 809.541,300.538 806,306.5C 801.068,311.435 795.568,315.601 789.5,319C 785.741,322.743 784.574,327.243 786,332.5C 795.613,324.221 804.613,315.221 813,305.5C 811.734,312.956 809.067,319.956 805,326.5C 798.667,331.5 792.333,336.5 786,341.5C 785.333,344.5 785.333,347.5 786,350.5C 795.613,342.221 804.613,333.221 813,323.5C 811.692,330.421 809.358,337.087 806,343.5C 799.333,348.833 792.667,354.167 786,359.5C 785.333,362.167 785.333,364.833 786,367.5C 795.613,359.221 804.613,350.221 813,340.5C 811.793,348.775 808.627,356.275 803.5,363C 797.096,366.735 791.263,371.235 786,376.5C 785.333,379.167 785.333,381.833 786,384.5C 787.529,383.271 788.696,381.771 789.5,380C 798.584,374.252 806.417,367.085 813,358.5C 811.831,364.673 809.831,370.673 807,376.5C 800.001,382.4 793.167,388.4 786.5,394.5C 785.362,397.304 785.195,400.304 786,403.5C 786.717,402.956 787.217,402.289 787.5,401.5C 796.768,394.066 805.268,385.733 813,376.5C 812.695,379.491 812.028,382.491 811,385.5C 807.656,396.177 800.823,403.677 790.5,408C 786.788,410.602 785.622,414.102 787,418.5C 796.888,412.117 806.055,404.783 814.5,396.5C 812.914,403.674 809.58,410.341 804.5,416.5C 799.004,420.416 793.337,424.082 787.5,427.5C 787.167,429.333 786.833,431.167 786.5,433C 785.736,439.258 787.069,439.925 790.5,435C 800.099,430.729 808.599,424.895 816,417.5C 814.043,425.563 809.876,432.396 803.5,438C 797.558,440.98 791.725,444.146 786,447.5C 785.402,451.057 784.569,454.557 783.5,458C 783.833,458.5 784.167,459 784.5,459.5C 787.05,458.058 789.716,456.892 792.5,456C 799.845,452.174 806.845,448.174 813.5,444C 810.08,449.507 806.414,454.841 802.5,460C 795.04,464.045 787.373,467.712 779.5,471C 777.077,473.659 775.744,476.492 775.5,479.5C 782.45,478.702 789.45,478.202 796.5,478C 800.862,477.09 805.196,476.423 809.5,476C 797.828,486.67 784.161,490.337 768.5,487C 765.203,489.295 762.203,491.962 759.5,495C 770.965,497.881 782.631,499.214 794.5,499C 787.872,502.652 780.872,505.152 773.5,506.5C 766.32,505.247 759.153,503.913 752,502.5C 748.362,502.403 745.195,503.57 742.5,506C 752.919,511.251 763.919,514.917 775.5,517C 768.394,519.688 761.061,520.688 753.5,520C 746.706,516.601 739.706,513.768 732.5,511.5C 728.792,512.511 725.126,513.677 721.5,515C 731.299,520.898 741.632,525.732 752.5,529.5C 745.858,530.664 739.192,530.831 732.5,530C 726.035,526.6 719.702,522.933 713.5,519C 710.072,518.299 706.738,518.632 703.5,520C 712.361,527.265 722.027,533.265 732.5,538C 726.098,538.818 719.765,538.484 713.5,537C 706.28,533.112 699.614,528.445 693.5,523C 690.406,522.348 687.406,522.682 684.5,524C 690.779,527.946 696.779,532.279 702.5,537C 706.193,538.847 709.86,540.68 713.5,542.5C 711.735,543.461 709.735,543.795 707.5,543.5C 695.88,543.189 686.546,538.356 679.5,529C 677.44,527.304 675.107,526.137 672.5,525.5C 659.452,528.119 646.452,530.952 633.5,534C 666.666,544.742 696.333,561.408 722.5,584C 718.5,584.667 714.5,584.667 710.5,584C 684.226,561.278 654.06,545.778 620,537.5C 587.45,546.354 558.617,561.854 533.5,584C 529.5,584.667 525.5,584.667 521.5,584C 547.05,562.217 575.717,545.55 607.5,534C 593.337,530.366 579.004,528.033 564.5,527C 558.5,531.667 552.5,536.333 546.5,541C 539.632,543.154 532.632,544.154 525.5,544C 536.188,538.326 546.188,531.659 555.5,524C 552.824,523.26 550.158,522.927 547.5,523C 541.809,526.513 536.476,530.513 531.5,535C 523.793,538.171 515.793,539.171 507.5,538C 518.308,533.766 527.975,527.766 536.5,520C 533.232,518.787 529.899,518.454 526.5,519C 522.89,520.944 519.557,523.277 516.5,526C 507.293,530.462 497.627,531.629 487.5,529.5C 498.368,525.732 508.701,520.898 518.5,515C 513.145,511.425 507.478,510.758 501.5,513C 489.998,521.084 477.665,522.584 464.5,517.5C 476.219,514.76 487.553,510.927 498.5,506C 488.644,501.316 478.977,501.816 469.5,507.5C 461.514,505.854 453.848,503.021 446.5,499C 458.347,499.158 470.014,497.825 481.5,495C 478.537,493.039 475.871,490.706 473.5,488C 470.893,487.182 468.226,486.682 465.5,486.5C 460.184,487.443 454.851,487.61 449.5,487C 442.865,484.35 436.865,480.684 431.5,476C 443.025,478.074 454.691,479.074 466.5,479C 464.65,475.638 462.317,472.638 459.5,470C 452.566,467.532 445.899,464.532 439.5,461C 435.133,455.766 431.133,450.266 427.5,444.5C 428.002,443.479 428.668,443.312 429.5,444C 437.901,450.725 447.067,456.225 457,460.5C 456.484,456.232 455.817,451.899 455,447.5C 448.452,444.142 441.952,440.642 435.5,437C 430.708,431.925 427.041,426.092 424.5,419.5C 425.002,418.479 425.668,418.312 426.5,419C 429.203,422.038 432.203,424.705 435.5,427C 442.086,430.207 448.253,434.041 454,438.5C 454.667,435.167 454.667,431.833 454,428.5C 449.767,425.271 445.267,422.438 440.5,420C 432.725,413.944 427.892,406.111 426,396.5C 428.5,399 431,401.5 433.5,404C 440.617,408.783 447.45,413.949 454,419.5C 454.818,416.773 454.652,414.106 453.5,411.5C 446.564,406.734 440.064,401.4 434,395.5C 430.807,389.808 428.807,383.808 428,377.5C 431.799,382.301 435.966,386.801 440.5,391C 445.638,394.142 450.138,397.976 454,402.5C 455.718,396.843 454.218,392.343 449.5,389C 436.285,383.063 429.119,372.896 428,358.5C 435.703,367.871 444.37,376.204 454,383.5C 455.443,378.788 454.277,374.955 450.5,372C 436.719,365.923 429.219,355.423 428,340.5C 431.167,344.333 434.333,348.167 437.5,352C 443.979,356.481 449.812,361.648 455,367.5C 455.167,366.333 455.333,365.167 455.5,364C 454.44,359.913 452.106,356.58 448.5,354C 435.832,348.147 428.999,338.314 428,324.5C 431.799,329.301 435.966,333.801 440.5,338C 446.357,341.492 451.19,345.992 455,351.5C 455.837,347.705 455.504,344.039 454,340.5C 447.667,335.5 441.333,330.5 435,325.5C 431.459,319.538 429.126,313.205 428,306.5C 433.919,314.421 441.086,320.921 449.5,326C 451.7,328.234 453.533,330.734 455,333.5C 455.667,330.167 455.667,326.833 455,323.5C 449.03,318.018 442.697,313.018 436,308.5C 431.54,302.112 428.873,295.112 428,287.5C 436.387,297.221 445.387,306.221 455,314.5C 455.667,311.5 455.667,308.5 455,305.5C 448.516,299.926 441.849,294.593 435,289.5C 431.258,283.271 428.924,276.604 428,269.5C 436.387,279.221 445.387,288.221 455,296.5C 455.667,293.5 455.667,290.5 455,287.5C 449.03,282.018 442.697,277.018 436,272.5C 431.54,266.112 428.873,259.112 428,251.5C 432.133,256.634 436.633,261.468 441.5,266C 447.667,269.5 452.5,274.333 456,280.5C 456.837,276.705 456.504,273.039 455,269.5C 448,263.5 441,257.5 434,251.5C 430.773,245.821 428.773,239.821 428,233.5C 432.133,238.634 436.633,243.468 441.5,248C 447.807,251.395 452.64,256.228 456,262.5C 457.945,255.676 456.112,250.176 450.5,246C 444.77,242.938 439.603,239.104 435,234.5C 431.727,228.688 429.227,222.521 427.5,216C 432.28,219.739 437.28,224.406 442.5,230C 448.75,233.248 453.25,238.081 456,244.5C 456.667,242.5 456.667,240.5 456,238.5C 451.432,226.673 451.932,215.006 457.5,203.5C 459.962,207.792 461.296,212.459 461.5,217.5C 459.286,226.728 458.453,236.061 459,245.5C 459.892,242.048 461.558,239.048 464,236.5C 473.251,230.584 481.251,223.251 488,214.5C 486.553,221.08 484.219,227.413 481,233.5C 475.108,238.859 468.942,243.859 462.5,248.5C 458.726,252.805 457.56,257.805 459,263.5C 461.777,257.057 466.277,252.223 472.5,249C 477.72,243.433 483.053,238.433 488.5,234C 486.441,240.848 483.607,247.348 480,253.5C 473.667,258.5 467.333,263.5 461,268.5C 458.564,272.483 457.898,276.816 459,281.5C 460.776,278.059 462.943,274.892 465.5,272C 469.5,269 473.5,266 477.5,263C 480.647,259.019 483.98,255.186 487.5,251.5C 486.51,257.965 484.343,264.299 481,270.5C 475.949,275.274 470.449,279.44 464.5,283C 459.847,286.788 458.347,291.622 460,297.5C 461.833,295 463.667,292.5 465.5,290C 474.267,284.734 481.6,277.901 487.5,269.5C 486.51,275.965 484.343,282.299 481,288.5C 476.068,293.435 470.568,297.601 464.5,301C 459.847,304.788 458.347,309.622 460,315.5C 461.561,312.217 463.727,309.383 466.5,307C 474.932,302.069 481.932,295.569 487.5,287.5C 486.533,293.896 484.366,300.229 481,306.5C 474.333,311.833 467.667,317.167 461,322.5C 459.48,326.375 459.146,330.375 460,334.5C 462.075,330.421 464.908,326.921 468.5,324C 475.96,318.874 482.46,312.707 488,305.5C 486.777,313.489 483.777,320.822 479,327.5C 472.457,331.442 466.457,336.108 461,341.5C 459.496,345.039 459.163,348.705 460,352.5C 461.738,348.759 464.238,345.592 467.5,343C 475.294,337.54 482.127,331.04 488,323.5C 486.734,330.956 484.067,337.956 480,344.5C 473.667,349.5 467.333,354.5 461,359.5C 458.301,369.766 459.468,370.6 464.5,362C 473.584,356.252 481.417,349.085 488,340.5C 486.48,347.052 484.147,353.385 481,359.5C 474.519,365.404 467.852,371.071 461,376.5C 460.333,379.167 460.333,381.833 461,384.5C 462.141,382.391 463.641,380.558 465.5,379C 474.267,373.734 481.6,366.901 487.5,358.5C 486.51,364.965 484.343,371.299 481,377.5C 474.516,383.074 467.849,388.407 461,393.5C 460.333,396.833 460.333,400.167 461,403.5C 470.613,395.221 479.613,386.221 488,376.5C 486.734,383.956 484.067,390.956 480,397.5C 473.667,402.5 467.333,407.5 461,412.5C 460.333,415.5 460.333,418.5 461,421.5C 470.112,413.721 478.612,405.221 486.5,396C 487.167,395.333 487.833,395.333 488.5,396C 486.441,402.848 483.607,409.348 480,415.5C 473.667,420.5 467.333,425.5 461,430.5C 460.333,433.833 460.333,437.167 461,440.5C 462.467,437.734 464.3,435.234 466.5,433C 475.267,427.734 482.6,420.901 488.5,412.5C 487.51,418.965 485.343,425.299 482,431.5C 475.516,437.074 468.849,442.407 462,447.5C 462.039,452.619 463.039,457.619 465,462.5C 466.393,458.714 468.059,455.048 470,451.5C 477.21,444.959 482.876,437.293 487,428.5C 487.654,427.304 488.154,427.304 488.5,428.5C 487.839,436.139 486.006,443.472 483,450.5C 477.588,455.241 472.921,460.574 469,466.5C 469.244,470.666 470.911,474.333 474,477.5C 474.333,475.5 474.667,473.5 475,471.5C 481.177,462.146 486.01,452.146 489.5,441.5 Z"/></g>
<g><path style="opacity:1" fill="#fffbfb" d="M 545.5,221.5 C 555.167,221.5 564.833,221.5 574.5,221.5C 574.5,222.5 574.5,223.5 574.5,224.5C 564.833,224.5 555.167,224.5 545.5,224.5C 545.5,223.5 545.5,222.5 545.5,221.5 Z"/></g>
<g><path style="opacity:1" fill="#fffbfb" d="M 669.5,221.5 C 679.167,221.5 688.833,221.5 698.5,221.5C 698.5,222.5 698.5,223.5 698.5,224.5C 688.833,224.5 679.167,224.5 669.5,224.5C 669.5,223.5 669.5,222.5 669.5,221.5 Z"/></g>
<g><path style="opacity:1" fill="#fffbfb" d="M 709.5,221.5 C 719.167,221.5 728.833,221.5 738.5,221.5C 738.5,222.5 738.5,223.5 738.5,224.5C 728.833,224.5 719.167,224.5 709.5,224.5C 709.5,223.5 709.5,222.5 709.5,221.5 Z"/></g>
<g><path style="opacity:1" fill="#fff6f6" d="M 503.5,221.5 C 513.5,221.5 523.5,221.5 533.5,221.5C 533.5,222.5 533.5,223.5 533.5,224.5C 523.5,224.5 513.5,224.5 503.5,224.5C 503.5,223.5 503.5,222.5 503.5,221.5 Z"/></g>
<g><path style="opacity:1" fill="#fff4f4" d="M 584.5,221.5 C 594.5,221.5 604.5,221.5 614.5,221.5C 614.5,222.5 614.5,223.5 614.5,224.5C 604.5,224.5 594.5,224.5 584.5,224.5C 584.5,223.5 584.5,222.5 584.5,221.5 Z"/></g>
<g><path style="opacity:1" fill="#fff6f6" d="M 627.5,221.5 C 637.5,221.5 647.5,221.5 657.5,221.5C 657.5,222.5 657.5,223.5 657.5,224.5C 647.5,224.5 637.5,224.5 627.5,224.5C 627.5,223.5 627.5,222.5 627.5,221.5 Z"/></g>
<g><path style="opacity:1" fill="#faeff4" d="M 677.5,372.5 C 678.371,384.587 679.871,396.587 682,408.5C 687.788,411.074 693.622,413.574 699.5,416C 702.567,419.297 704.733,423.131 706,427.5C 707.724,438.359 707.891,449.192 706.5,460C 651.501,460.5 596.501,460.667 541.5,460.5C 541.333,449.828 541.5,439.161 542,428.5C 542.947,422.764 545.781,418.264 550.5,415C 555.42,412.804 560.42,410.804 565.5,409C 566.191,407.933 566.691,406.766 567,405.5C 572.135,361.154 577.468,316.821 583,272.5C 589.611,262.771 598.778,256.937 610.5,255C 588.091,256.592 565.758,259.092 543.5,262.5C 543.5,259.833 543.5,257.167 543.5,254.5C 561.509,253.648 579.509,252.648 597.5,251.5C 600.187,251.664 602.854,251.497 605.5,251C 600.882,250.006 596.215,249.506 591.5,249.5C 575.835,248.722 560.168,247.889 544.5,247C 543.577,244.959 543.244,242.792 543.5,240.5C 564.863,242.169 586.196,244.169 607.5,246.5C 608.833,246.167 610.167,245.833 611.5,245.5C 615.176,241.25 619.342,237.584 624,234.5C 629.379,238.023 634.379,242.023 639,246.5C 660.84,244.266 682.673,241.933 704.5,239.5C 704.5,241.833 704.5,244.167 704.5,246.5C 683.831,247.556 663.164,248.722 642.5,250C 663.108,252.21 683.774,253.71 704.5,254.5C 704.5,256.833 704.5,259.167 704.5,261.5C 682.453,259.493 660.453,257.327 638.5,255C 649.749,257.206 658.582,263.039 665,272.5C 668.861,306.009 673.027,339.342 677.5,372.5 Z"/></g>
<g><path style="opacity:1" fill="#ffa5a4" d="M 503.5,233.5 C 504.833,233.5 506.167,233.5 507.5,233.5C 507.5,243.833 507.5,254.167 507.5,264.5C 506.167,264.5 504.833,264.5 503.5,264.5C 503.5,254.167 503.5,243.833 503.5,233.5 Z"/></g>
<g><path style="opacity:1" fill="#fefffe" d="M 504.5,234.5 C 505.827,238.951 506.494,243.784 506.5,249C 506.167,253.833 505.833,258.667 505.5,263.5C 504.502,253.856 504.168,244.19 504.5,234.5 Z"/></g>
<g><path style="opacity:1" fill="#ff1b15" d="M 616.5,245.5 C 620.461,246.884 621.461,249.551 619.5,253.5C 618.277,254.614 616.944,254.781 615.5,254C 616.448,253.517 617.448,253.351 618.5,253.5C 618.5,251.5 618.5,249.5 618.5,247.5C 616.007,247.869 615.34,247.203 616.5,245.5 Z"/></g>
<g><path style="opacity:1" fill="#ff382c" d="M 629.5,245.5 C 634.629,246.614 634.629,247.281 629.5,247.5C 628.855,250.547 629.855,252.713 632.5,254C 628.023,254.165 626.523,251.998 628,247.5C 628.717,246.956 629.217,246.289 629.5,245.5 Z"/></g>
<g><path style="opacity:1" fill="#ffe9e8" d="M 736.5,233.5 C 737.5,233.5 738.5,233.5 739.5,233.5C 739.5,243.5 739.5,253.5 739.5,263.5C 738.5,263.5 737.5,263.5 736.5,263.5C 736.5,253.5 736.5,243.5 736.5,233.5 Z"/></g>
<g><path style="opacity:1" fill="#ff8986" d="M 591.5,249.5 C 596.215,249.506 600.882,250.006 605.5,251C 602.854,251.497 600.187,251.664 597.5,251.5C 595.5,250.833 593.5,250.167 591.5,249.5 Z"/></g>
<g><path style="opacity:1" fill="#ff6863" d="M 636.5,257.5 C 637.756,257.461 638.756,257.961 639.5,259C 634.5,259.667 629.5,259.667 624.5,259C 628.688,258.824 632.688,258.324 636.5,257.5 Z"/></g>
<g><path style="opacity:1" fill="#ff251a" d="M 603.5,261.5 C 606.522,261.804 609.522,262.304 612.5,263C 609.028,264.58 605.362,264.913 601.5,264C 602.381,263.292 603.047,262.458 603.5,261.5 Z"/></g>
<g><path style="opacity:1" fill="#ff3e2f" d="M 633.5,262.5 C 636.518,262.335 639.518,262.502 642.5,263C 643.308,263.308 643.975,263.808 644.5,264.5C 641.216,265.657 637.882,265.824 634.5,265C 633.748,264.329 633.414,263.496 633.5,262.5 Z"/></g>
<g><path style="opacity:1" fill="#ff392e" d="M 646.5,262.5 C 648.666,261.371 650.666,261.871 652.5,264C 650.16,264.748 648.16,264.248 646.5,262.5 Z"/></g>
<g><path style="opacity:1" fill="#ff2d2a" d="M 616.5,262.5 C 620.846,262.334 625.179,262.501 629.5,263C 629.957,263.414 630.291,263.914 630.5,264.5C 625.5,265.833 620.5,265.833 615.5,264.5C 615.863,263.817 616.196,263.15 616.5,262.5 Z"/></g>
<g><path style="opacity:1" fill="#ff2119" d="M 591.5,267.5 C 594.833,267.5 598.167,267.5 601.5,267.5C 601.5,268.5 601.5,269.5 601.5,270.5C 597.154,270.666 592.821,270.499 588.5,270C 589.571,269.148 590.571,268.315 591.5,267.5 Z"/></g>
<g><path style="opacity:1" fill="#ff3023" d="M 643.5,267.5 C 648.179,267.334 652.845,267.501 657.5,268C 658.167,268.667 658.833,269.333 659.5,270C 654.5,270.667 649.5,270.667 644.5,270C 643.748,269.329 643.414,268.496 643.5,267.5 Z"/></g>
<g><path style="opacity:1" fill="#ff1f19" d="M 605.5,268.5 C 610.5,268.5 615.5,268.5 620.5,268.5C 620.5,269.5 620.5,270.5 620.5,271.5C 615.125,271.828 609.792,271.495 604.5,270.5C 604.863,269.817 605.196,269.15 605.5,268.5 Z"/></g>
<g><path style="opacity:1" fill="#ff1e18" d="M 624.5,268.5 C 629.875,268.172 635.208,268.505 640.5,269.5C 640.709,270.086 641.043,270.586 641.5,271C 635.843,271.499 630.176,271.666 624.5,271.5C 624.5,270.5 624.5,269.5 624.5,268.5 Z"/></g>
<g><path style="opacity:1" fill="#ff100d" d="M 586.5,273.5 C 587.833,273.5 589.167,273.5 590.5,273.5C 590.5,274.5 590.5,275.5 590.5,276.5C 589.167,276.5 587.833,276.5 586.5,276.5C 586.5,275.5 586.5,274.5 586.5,273.5 Z"/></g>
<g><path style="opacity:1" fill="#ff150f" d="M 594.5,274.5 C 599.5,274.5 604.5,274.5 609.5,274.5C 609.5,275.5 609.5,276.5 609.5,277.5C 604.5,277.5 599.5,277.5 594.5,277.5C 594.5,276.5 594.5,275.5 594.5,274.5 Z"/></g>
<g><path style="opacity:1" fill="#ff1712" d="M 635.5,274.5 C 640.833,274.5 646.167,274.5 651.5,274.5C 651.5,275.5 651.5,276.5 651.5,277.5C 646.167,277.5 640.833,277.5 635.5,277.5C 635.5,276.5 635.5,275.5 635.5,274.5 Z"/></g>
<g><path style="opacity:1" fill="#ff1a14" d="M 657.5,273.5 C 659.167,273.5 660.833,273.5 662.5,273.5C 662.5,274.5 662.5,275.5 662.5,276.5C 660.076,276.808 657.743,276.474 655.5,275.5C 656.243,274.818 656.909,274.151 657.5,273.5 Z"/></g>
<g><path style="opacity:1" fill="#ff1612" d="M 613.5,274.5 C 619.833,274.5 626.167,274.5 632.5,274.5C 632.5,275.5 632.5,276.5 632.5,277.5C 626.167,277.5 619.833,277.5 613.5,277.5C 613.5,276.5 613.5,275.5 613.5,274.5 Z"/></g>
<g><path style="opacity:1" fill="#ffdddc" d="M 503.5,275.5 C 504.833,275.5 506.167,275.5 507.5,275.5C 507.5,285.5 507.5,295.5 507.5,305.5C 506.167,305.5 504.833,305.5 503.5,305.5C 503.5,295.5 503.5,285.5 503.5,275.5 Z"/></g>
<g><path style="opacity:1" fill="#ff0000" d="M 585.5,280.5 C 590.167,280.5 594.833,280.5 599.5,280.5C 599.5,281.5 599.5,282.5 599.5,283.5C 594.833,283.5 590.167,283.5 585.5,283.5C 585.5,282.5 585.5,281.5 585.5,280.5 Z"/></g>
<g><path style="opacity:1" fill="#ff170f" d="M 645.5,280.5 C 651.5,280.5 657.5,280.5 663.5,280.5C 663.5,281.5 663.5,282.5 663.5,283.5C 657.5,283.5 651.5,283.5 645.5,283.5C 645.5,282.5 645.5,281.5 645.5,280.5 Z"/></g>
<g><path style="opacity:1" fill="#fe0000" d="M 603.5,281.5 C 609.206,281.171 614.872,281.505 620.5,282.5C 617.667,282.833 614.833,283.167 612,283.5C 608.748,283.481 605.915,282.814 603.5,281.5 Z"/></g>
<g><path style="opacity:1" fill="#ff3829" d="M 624.5,280.5 C 630.5,280.5 636.5,280.5 642.5,280.5C 642.5,281.5 642.5,282.5 642.5,283.5C 636.5,283.5 630.5,283.5 624.5,283.5C 624.5,282.5 624.5,281.5 624.5,280.5 Z"/></g>
<g><path style="opacity:1" fill="#ff7474" d="M 652.5,287.5 C 647.167,287.5 641.833,287.5 636.5,287.5C 636.5,288.5 636.5,289.5 636.5,290.5C 635.566,289.432 635.232,288.099 635.5,286.5C 641.358,286.178 647.025,286.511 652.5,287.5 Z"/></g>
<g><path style="opacity:1" fill="#fe0000" d="M 584.5,287.5 C 586.167,287.5 587.833,287.5 589.5,287.5C 589.5,288.5 589.5,289.5 589.5,290.5C 587.833,290.5 586.167,290.5 584.5,290.5C 584.5,289.5 584.5,288.5 584.5,287.5 Z"/></g>
<g><path style="opacity:1" fill="#ff4232" d="M 593.5,286.5 C 598.833,286.5 604.167,286.5 609.5,286.5C 609.5,288.167 609.5,289.833 609.5,291.5C 604.167,291.5 598.833,291.5 593.5,291.5C 593.5,289.833 593.5,288.167 593.5,286.5 Z"/></g>
<g><path style="opacity:1" fill="#fe0000" d="M 632.5,287.5 C 632.5,288.5 632.5,289.5 632.5,290.5C 626.167,290.5 619.833,290.5 613.5,290.5C 613.5,289.5 613.5,288.5 613.5,287.5C 619.833,287.5 626.167,287.5 632.5,287.5 Z"/></g>
<g><path style="opacity:1" fill="#fe0000" d="M 652.5,287.5 C 652.5,288.5 652.5,289.5 652.5,290.5C 647.167,290.5 641.833,290.5 636.5,290.5C 636.5,289.5 636.5,288.5 636.5,287.5C 641.833,287.5 647.167,287.5 652.5,287.5 Z"/></g>
<g><path style="opacity:1" fill="#ff8080" d="M 632.5,287.5 C 626.167,287.5 619.833,287.5 613.5,287.5C 613.5,288.5 613.5,289.5 613.5,290.5C 619.833,290.5 626.167,290.5 632.5,290.5C 626.021,291.491 619.354,291.824 612.5,291.5C 612.5,289.833 612.5,288.167 612.5,286.5C 619.354,286.176 626.021,286.509 632.5,287.5 Z"/></g>
<g><path style="opacity:1" fill="#ff8584" d="M 663.5,287.5 C 664.434,288.568 664.768,289.901 664.5,291.5C 661.5,291.5 658.5,291.5 655.5,291.5C 655.5,289.833 655.5,288.167 655.5,286.5C 658.385,286.194 661.052,286.527 663.5,287.5 Z"/></g>
<g><path style="opacity:1" fill="#fe0000" d="M 663.5,287.5 C 663.5,288.5 663.5,289.5 663.5,290.5C 661.167,290.5 658.833,290.5 656.5,290.5C 656.5,289.5 656.5,288.5 656.5,287.5C 658.833,287.5 661.167,287.5 663.5,287.5 Z"/></g>
<g><path style="opacity:1" fill="#ffecec" d="M 736.5,275.5 C 737.5,275.5 738.5,275.5 739.5,275.5C 739.5,285.5 739.5,295.5 739.5,305.5C 738.5,305.5 737.5,305.5 736.5,305.5C 736.5,295.5 736.5,285.5 736.5,275.5 Z"/></g>
<g><path style="opacity:1" fill="#ff0906" d="M 598.5,300.5 C 593.5,300.5 588.5,300.5 583.5,300.5C 583.5,299.5 583.5,298.5 583.5,297.5C 583.5,296.5 583.5,295.5 583.5,294.5C 588.5,294.5 593.5,294.5 598.5,294.5C 598.5,296.5 598.5,298.5 598.5,300.5 Z"/></g>
<g><path style="opacity:1" fill="#ff0000" d="M 601.5,294.5 C 607.833,294.5 614.167,294.5 620.5,294.5C 620.5,296.5 620.5,298.5 620.5,300.5C 614.167,300.5 607.833,300.5 601.5,300.5C 601.5,298.5 601.5,296.5 601.5,294.5 Z"/></g>
<g><path style="opacity:1" fill="#ff0804" d="M 624.5,294.5 C 632.167,294.5 639.833,294.5 647.5,294.5C 647.5,296.5 647.5,298.5 647.5,300.5C 639.833,300.5 632.167,300.5 624.5,300.5C 624.5,298.5 624.5,296.5 624.5,294.5 Z"/></g>
<g><path style="opacity:1" fill="#ff0100" d="M 664.5,295.5 C 664.5,297.167 664.5,298.833 664.5,300.5C 659.833,300.5 655.167,300.5 650.5,300.5C 650.5,298.5 650.5,296.5 650.5,294.5C 655.363,294.181 660.03,294.514 664.5,295.5 Z"/></g>
<g><path style="opacity:1" fill="#ffa2a2" d="M 583.5,297.5 C 583.5,298.5 583.5,299.5 583.5,300.5C 588.5,300.5 593.5,300.5 598.5,300.5C 593.36,301.488 588.026,301.821 582.5,301.5C 582.232,299.901 582.566,298.568 583.5,297.5 Z"/></g>
<g><path style="opacity:1" fill="#ff9a99" d="M 664.5,295.5 C 665.461,297.265 665.795,299.265 665.5,301.5C 660.305,301.821 655.305,301.487 650.5,300.5C 655.167,300.5 659.833,300.5 664.5,300.5C 664.5,298.833 664.5,297.167 664.5,295.5 Z"/></g>
<g><path style="opacity:1" fill="#ff2519" d="M 582.5,304.5 C 584.833,304.5 587.167,304.5 589.5,304.5C 589.5,306.5 589.5,308.5 589.5,310.5C 586.833,310.5 584.167,310.5 581.5,310.5C 581.833,308.5 582.167,306.5 582.5,304.5 Z"/></g>
<g><path style="opacity:1" fill="#ff0e07" d="M 592.5,304.5 C 598.5,304.5 604.5,304.5 610.5,304.5C 610.5,306.5 610.5,308.5 610.5,310.5C 604.5,310.5 598.5,310.5 592.5,310.5C 592.5,308.5 592.5,306.5 592.5,304.5 Z"/></g>
<g><path style="opacity:1" fill="#fe0000" d="M 613.5,304.5 C 620.5,304.5 627.5,304.5 634.5,304.5C 634.5,306.5 634.5,308.5 634.5,310.5C 627.5,310.5 620.5,310.5 613.5,310.5C 613.5,308.5 613.5,306.5 613.5,304.5 Z"/></g>
<g><path style="opacity:1" fill="#ff0f07" d="M 637.5,304.5 C 643.833,304.5 650.167,304.5 656.5,304.5C 656.5,306.5 656.5,308.5 656.5,310.5C 650.167,310.5 643.833,310.5 637.5,310.5C 637.5,308.5 637.5,306.5 637.5,304.5 Z"/></g>
<g><path style="opacity:1" fill="#ff2b1f" d="M 659.5,304.5 C 661.833,304.5 664.167,304.5 666.5,304.5C 666.5,306.5 666.5,308.5 666.5,310.5C 664.167,310.5 661.833,310.5 659.5,310.5C 659.5,308.5 659.5,306.5 659.5,304.5 Z"/></g>
<g><path style="opacity:1" fill="#2933f9" d="M 779.5,305.5 C 780.222,305.918 780.722,306.584 781,307.5C 781.667,310.5 781.667,313.5 781,316.5C 779.672,313.688 778.172,311.022 776.5,308.5C 777.694,307.728 778.694,306.728 779.5,305.5 Z"/></g>
<g><path style="opacity:1" fill="#ff2116" d="M 581.5,313.5 C 587.167,313.5 592.833,313.5 598.5,313.5C 598.5,315.833 598.5,318.167 598.5,320.5C 592.5,320.5 586.5,320.5 580.5,320.5C 580.298,318.05 580.631,315.717 581.5,313.5 Z"/></g>
<g><path style="opacity:1" fill="#ff1710" d="M 601.5,313.5 C 608.167,313.5 614.833,313.5 621.5,313.5C 621.5,315.833 621.5,318.167 621.5,320.5C 614.833,320.5 608.167,320.5 601.5,320.5C 601.5,318.167 601.5,315.833 601.5,313.5 Z"/></g>
<g><path style="opacity:1" fill="#ff1610" d="M 624.5,313.5 C 632.167,313.5 639.833,313.5 647.5,313.5C 647.5,315.833 647.5,318.167 647.5,320.5C 639.833,320.5 632.167,320.5 624.5,320.5C 624.5,318.167 624.5,315.833 624.5,313.5 Z"/></g>
<g><path style="opacity:1" fill="#ff1d14" d="M 650.5,313.5 C 655.844,313.334 661.177,313.501 666.5,314C 667.423,316.041 667.756,318.208 667.5,320.5C 661.833,320.5 656.167,320.5 650.5,320.5C 650.5,318.167 650.5,315.833 650.5,313.5 Z"/></g>
<g><path style="opacity:1" fill="#2232fc" d="M 767.5,313.5 C 772.369,315.859 776.535,319.193 780,323.5C 781.504,327.039 781.837,330.705 781,334.5C 780,332.833 779,331.167 778,329.5C 772.972,325.301 768.139,320.968 763.5,316.5C 764.872,315.488 766.205,314.488 767.5,313.5 Z"/></g>
<g><path style="opacity:1" fill="#ffdddc" d="M 503.5,315.5 C 504.833,315.5 506.167,315.5 507.5,315.5C 507.5,325.5 507.5,335.5 507.5,345.5C 506.167,345.5 504.833,345.5 503.5,345.5C 503.5,335.5 503.5,325.5 503.5,315.5 Z"/></g>
<g><path style="opacity:1" fill="#fbf6fa" d="M 739.5,331.5 C 739.5,336.167 739.5,340.833 739.5,345.5C 738.5,345.5 737.5,345.5 736.5,345.5C 736.5,341.833 736.5,338.167 736.5,334.5C 736.5,328.167 736.5,321.833 736.5,315.5C 737.5,315.5 738.5,315.5 739.5,315.5C 739.5,320.833 739.5,326.167 739.5,331.5 Z"/></g>
<g><path style="opacity:1" fill="#1c2ffd" d="M 756.5,320.5 C 761.144,327.84 767.477,333.34 775.5,337C 777.765,338.758 779.432,340.925 780.5,343.5C 780.802,346.059 780.468,348.393 779.5,350.5C 778.206,348.093 776.539,345.926 774.5,344C 765.67,339.003 758.67,332.17 753.5,323.5C 754.306,322.272 755.306,321.272 756.5,320.5 Z"/></g>
<g><path style="opacity:1" fill="#ff3326" d="M 579.5,323.5 C 582.167,323.5 584.833,323.5 587.5,323.5C 587.5,325.833 587.5,328.167 587.5,330.5C 584.833,330.5 582.167,330.5 579.5,330.5C 579.5,328.167 579.5,325.833 579.5,323.5 Z"/></g>
<g><path style="opacity:1" fill="#ff1610" d="M 634.5,323.5 C 634.5,325.5 634.5,327.5 634.5,329.5C 627.5,329.5 620.5,329.5 613.5,329.5C 613.5,327.5 613.5,325.5 613.5,323.5C 620.5,323.5 627.5,323.5 634.5,323.5 Z"/></g>
<g><path style="opacity:1" fill="#ff291e" d="M 638.5,323.5 C 644.833,323.5 651.167,323.5 657.5,323.5C 657.5,325.833 657.5,328.167 657.5,330.5C 651.167,330.5 644.833,330.5 638.5,330.5C 638.5,328.167 638.5,325.833 638.5,323.5 Z"/></g>
<g><path style="opacity:1" fill="#ff3d2d" d="M 660.5,323.5 C 663.167,323.5 665.833,323.5 668.5,323.5C 668.5,325.833 668.5,328.167 668.5,330.5C 665.833,330.5 663.167,330.5 660.5,330.5C 660.5,328.167 660.5,325.833 660.5,323.5 Z"/></g>
<g><path style="opacity:1" fill="#0e29fd" d="M 751.5,324.5 C 754.027,330.891 756.86,337.225 760,343.5C 764.932,348.435 770.432,352.601 776.5,356C 780.13,359.05 781.297,362.883 780,367.5C 770.387,359.221 761.387,350.221 753,340.5C 753.914,347.571 756.247,354.238 760,360.5C 766.667,365.833 773.333,371.167 780,376.5C 780.667,379.5 780.667,382.5 780,385.5C 770.387,377.221 761.387,368.221 753,358.5C 754.266,365.956 756.933,372.956 761,379.5C 767.697,384.018 774.03,389.018 780,394.5C 781.811,403.992 780.311,405.159 775.5,398C 766.733,392.734 759.4,385.901 753.5,377.5C 754.106,384.147 756.272,390.48 760,396.5C 764.932,401.435 770.432,405.601 776.5,409C 778.049,410.214 779.215,411.714 780,413.5C 781.653,422.716 780.153,423.549 775.5,416C 766.751,410.586 759.251,403.753 753,395.5C 754.169,401.673 756.169,407.673 759,413.5C 765.999,419.4 772.833,425.4 779.5,431.5C 779.802,434.059 779.468,436.393 778.5,438.5C 777.386,437.115 776.386,435.615 775.5,434C 766.416,428.252 758.583,421.085 752,412.5C 753.169,418.673 755.169,424.673 758,430.5C 764.348,436.512 771.015,442.179 778,447.5C 778.763,452.45 777.929,457.117 775.5,461.5C 774.611,458.721 773.444,456.055 772,453.5C 764.507,445.675 758.174,437.008 753,427.5C 752.599,434.358 753.599,441.025 756,447.5C 761.514,454.344 767.014,461.178 772.5,468C 771.076,471.092 769.243,473.926 767,476.5C 766.178,474.212 765.511,471.878 765,469.5C 758.856,460.88 754.023,451.547 750.5,441.5C 748.645,450.466 749.478,459.132 753,467.5C 756.362,472.03 759.529,476.697 762.5,481.5C 759.148,485.686 755.314,489.353 751,492.5C 749.047,479.897 747.547,467.23 746.5,454.5C 739.238,467.442 738.571,480.776 744.5,494.5C 742.497,497.655 739.664,499.988 736,501.5C 736.113,489.445 736.78,477.445 738,465.5C 733.897,470.705 730.563,476.372 728,482.5C 727.784,490.092 727.618,497.592 727.5,505C 724.667,506.167 721.833,507.333 719,508.5C 719.427,496.487 722.594,484.82 728.5,473.5C 728.167,473.167 727.833,472.833 727.5,472.5C 723.877,476.625 720.043,480.625 716,484.5C 715,486.5 714,488.5 713,490.5C 711.912,497.635 710.412,504.635 708.5,511.5C 704.159,513.008 699.826,514.175 695.5,515C 697.359,513.442 698.859,511.609 700,509.5C 703.683,498.813 708.35,488.813 714,479.5C 708.117,483.115 702.783,487.448 698,492.5C 694.699,500.732 691.199,508.898 687.5,517C 684.558,518.124 681.558,518.458 678.5,518C 680,516.5 681.5,515 683,513.5C 686.87,503.426 692.036,494.092 698.5,485.5C 698.167,485.167 697.833,484.833 697.5,484.5C 691.894,487.552 686.727,491.219 682,495.5C 678.524,501.457 675.857,507.791 674,514.5C 672.859,516.609 671.359,518.442 669.5,520C 654.387,522.489 639.387,525.489 624.5,529C 621.5,529.667 618.5,529.667 615.5,529C 600.617,525.445 585.617,522.445 570.5,520C 566.431,512.807 562.931,505.307 560,497.5C 554.572,492.069 548.572,487.402 542,483.5C 541.333,484.167 541.333,484.833 542,485.5C 548.67,493.52 553.67,502.52 557,512.5C 563.371,518.531 562.204,520.031 553.5,517C 549.477,508.601 545.643,500.101 542,491.5C 537.092,486.492 531.592,482.658 525.5,480C 532.374,489.247 537.54,499.413 541,510.5C 542.5,512 544,513.5 545.5,515C 541.053,514.806 536.72,513.806 532.5,512C 531.54,510.581 530.707,509.081 530,507.5C 530.784,495.082 526.618,484.749 517.5,476.5C 525.5,471.167 533.5,465.833 541.5,460.5C 596.501,460.667 651.501,460.5 706.5,460C 707.891,449.192 707.724,438.359 706,427.5C 704.733,423.131 702.567,419.297 699.5,416C 693.622,413.574 687.788,411.074 682,408.5C 679.871,396.587 678.371,384.587 677.5,372.5C 696.33,359.918 715.33,347.584 734.5,335.5C 735.167,338.833 735.833,342.167 736.5,345.5C 737.5,345.5 738.5,345.5 739.5,345.5C 739.5,340.833 739.5,336.167 739.5,331.5C 743.483,329.194 747.483,326.861 751.5,324.5 Z"/></g>
<g><path style="opacity:1" fill="#ff615e" d="M 590.5,323.5 C 597.167,323.5 603.833,323.5 610.5,323.5C 610.5,325.833 610.5,328.167 610.5,330.5C 603.833,330.5 597.167,330.5 590.5,330.5C 590.5,328.167 590.5,325.833 590.5,323.5 Z"/></g>
<g><path style="opacity:1" fill="#fe0000" d="M 591.5,324.5 C 597.5,324.5 603.5,324.5 609.5,324.5C 609.5,326.167 609.5,327.833 609.5,329.5C 603.5,329.5 597.5,329.5 591.5,329.5C 591.5,327.833 591.5,326.167 591.5,324.5 Z"/></g>
<g><path style="opacity:1" fill="#ff7b7a" d="M 634.5,323.5 C 635.468,325.607 635.802,327.941 635.5,330.5C 627.981,330.825 620.648,330.492 613.5,329.5C 620.5,329.5 627.5,329.5 634.5,329.5C 634.5,327.5 634.5,325.5 634.5,323.5 Z"/></g>
<g><path style="opacity:1" fill="#ff0804" d="M 578.5,333.5 C 584.167,333.5 589.833,333.5 595.5,333.5C 595.5,335.5 595.5,337.5 595.5,339.5C 589.833,339.5 584.167,339.5 578.5,339.5C 578.5,337.5 578.5,335.5 578.5,333.5 Z"/></g>
<g><path style="opacity:1" fill="#fe0000" d="M 599.5,333.5 C 606.833,333.5 614.167,333.5 621.5,333.5C 621.5,335.5 621.5,337.5 621.5,339.5C 614.167,339.5 606.833,339.5 599.5,339.5C 599.5,337.5 599.5,335.5 599.5,333.5 Z"/></g>
<g><path style="opacity:1" fill="#fe0000" d="M 625.5,333.5 C 633.5,333.5 641.5,333.5 649.5,333.5C 649.5,335.5 649.5,337.5 649.5,339.5C 641.5,339.5 633.5,339.5 625.5,339.5C 625.5,337.5 625.5,335.5 625.5,333.5 Z"/></g>
<g><path style="opacity:1" fill="#ff0201" d="M 669.5,337.5 C 664.604,339.446 659.271,340.113 653.5,339.5C 653.5,337.5 653.5,335.5 653.5,333.5C 658.833,333.5 664.167,333.5 669.5,333.5C 669.5,334.833 669.5,336.167 669.5,337.5 Z"/></g>
<g><path style="opacity:1" fill="#7e83f2" d="M 734.5,335.5 C 734.842,334.662 735.508,334.328 736.5,334.5C 736.5,338.167 736.5,341.833 736.5,345.5C 735.833,342.167 735.167,338.833 734.5,335.5 Z"/></g>
<g><path style="opacity:1" fill="#ff8686" d="M 599.5,333.5 C 599.5,335.5 599.5,337.5 599.5,339.5C 606.833,339.5 614.167,339.5 621.5,339.5C 614.018,340.492 606.352,340.825 598.5,340.5C 598.198,337.941 598.532,335.607 599.5,333.5 Z"/></g>
<g><path style="opacity:1" fill="#ff9291" d="M 669.5,337.5 C 670.404,338.209 670.737,339.209 670.5,340.5C 664.642,340.822 658.975,340.489 653.5,339.5C 659.271,340.113 664.604,339.446 669.5,337.5 Z"/></g>
<g><path style="opacity:1" fill="#ff0905" d="M 577.5,343.5 C 580.167,343.5 582.833,343.5 585.5,343.5C 585.5,345.167 585.5,346.833 585.5,348.5C 582.833,348.5 580.167,348.5 577.5,348.5C 577.5,346.833 577.5,345.167 577.5,343.5 Z"/></g>
<g><path style="opacity:1" fill="#fe0000" d="M 589.5,343.5 C 596.167,343.5 602.833,343.5 609.5,343.5C 609.5,345.167 609.5,346.833 609.5,348.5C 602.833,348.5 596.167,348.5 589.5,348.5C 589.5,346.833 589.5,345.167 589.5,343.5 Z"/></g>
<g><path style="opacity:1" fill="#fe0000" d="M 613.5,343.5 C 620.833,343.5 628.167,343.5 635.5,343.5C 635.5,345.167 635.5,346.833 635.5,348.5C 628.167,348.5 620.833,348.5 613.5,348.5C 613.5,346.833 613.5,345.167 613.5,343.5 Z"/></g>
<g><path style="opacity:1" fill="#fe0000" d="M 639.5,343.5 C 646.167,343.5 652.833,343.5 659.5,343.5C 659.5,345.167 659.5,346.833 659.5,348.5C 652.833,348.5 646.167,348.5 639.5,348.5C 639.5,346.833 639.5,345.167 639.5,343.5 Z"/></g>
<g><path style="opacity:1" fill="#ff0101" d="M 663.5,343.5 C 665.833,343.5 668.167,343.5 670.5,343.5C 670.5,345.167 670.5,346.833 670.5,348.5C 668.167,348.5 665.833,348.5 663.5,348.5C 663.5,346.833 663.5,345.167 663.5,343.5 Z"/></g>
<g><path style="opacity:1" fill="#ffb9b9" d="M 613.5,343.5 C 620.982,342.508 628.648,342.175 636.5,342.5C 636.5,344.833 636.5,347.167 636.5,349.5C 628.648,349.825 620.982,349.492 613.5,348.5C 620.833,348.5 628.167,348.5 635.5,348.5C 635.5,346.833 635.5,345.167 635.5,343.5C 628.167,343.5 620.833,343.5 613.5,343.5 Z"/></g>
<g><path style="opacity:1" fill="#8b9cff" d="M 780.5,343.5 C 781.638,346.304 781.805,349.304 781,352.5C 780.283,351.956 779.783,351.289 779.5,350.5C 780.468,348.393 780.802,346.059 780.5,343.5 Z"/></g>
<g><path style="opacity:1" fill="#ff0805" d="M 576.5,352.5 C 583.833,352.5 591.167,352.5 598.5,352.5C 598.5,354.5 598.5,356.5 598.5,358.5C 591.167,358.5 583.833,358.5 576.5,358.5C 576.5,356.5 576.5,354.5 576.5,352.5 Z"/></g>
<g><path style="opacity:1" fill="#ff0000" d="M 601.5,352.5 C 607.833,352.5 614.167,352.5 620.5,352.5C 620.5,354.5 620.5,356.5 620.5,358.5C 614.167,358.5 607.833,358.5 601.5,358.5C 601.5,356.5 601.5,354.5 601.5,352.5 Z"/></g>
<g><path style="opacity:1" fill="#ff0804" d="M 624.5,352.5 C 632.167,352.5 639.833,352.5 647.5,352.5C 647.5,354.5 647.5,356.5 647.5,358.5C 639.833,358.5 632.167,358.5 624.5,358.5C 624.5,356.5 624.5,354.5 624.5,352.5 Z"/></g>
<g><path style="opacity:1" fill="#ff0000" d="M 650.5,352.5 C 657.5,352.5 664.5,352.5 671.5,352.5C 671.5,354.5 671.5,356.5 671.5,358.5C 664.5,358.5 657.5,358.5 650.5,358.5C 650.5,356.5 650.5,354.5 650.5,352.5 Z"/></g>
<g><path style="opacity:1" fill="#ff8786" d="M 575.5,362.5 C 579.298,361.517 583.298,361.183 587.5,361.5C 587.802,364.059 587.468,366.393 586.5,368.5C 586.5,366.5 586.5,364.5 586.5,362.5C 582.833,362.5 579.167,362.5 575.5,362.5 Z"/></g>
<g><path style="opacity:1" fill="#ff8484" d="M 635.5,362.5 C 628.167,362.5 620.833,362.5 613.5,362.5C 613.5,364.5 613.5,366.5 613.5,368.5C 612.532,366.393 612.198,364.059 612.5,361.5C 620.352,361.175 628.018,361.508 635.5,362.5 Z"/></g>
<g><path style="opacity:1" fill="#ff0a08" d="M 575.5,362.5 C 579.167,362.5 582.833,362.5 586.5,362.5C 586.5,364.5 586.5,366.5 586.5,368.5C 582.833,368.5 579.167,368.5 575.5,368.5C 575.5,366.5 575.5,364.5 575.5,362.5 Z"/></g>
<g><path style="opacity:1" fill="#ff0a07" d="M 590.5,362.5 C 596.833,362.5 603.167,362.5 609.5,362.5C 609.5,364.5 609.5,366.5 609.5,368.5C 603.167,368.5 596.833,368.5 590.5,368.5C 590.5,366.5 590.5,364.5 590.5,362.5 Z"/></g>
<g><path style="opacity:1" fill="#ff0a07" d="M 635.5,362.5 C 635.5,364.5 635.5,366.5 635.5,368.5C 628.167,368.5 620.833,368.5 613.5,368.5C 613.5,366.5 613.5,364.5 613.5,362.5C 620.833,362.5 628.167,362.5 635.5,362.5 Z"/></g>
<g><path style="opacity:1" fill="#ff0b09" d="M 639.5,362.5 C 645.833,362.5 652.167,362.5 658.5,362.5C 658.5,364.5 658.5,366.5 658.5,368.5C 652.167,368.5 645.833,368.5 639.5,368.5C 639.5,366.5 639.5,364.5 639.5,362.5 Z"/></g>
<g><path style="opacity:1" fill="#fe0000" d="M 672.5,362.5 C 672.5,362.833 672.5,363.167 672.5,363.5C 672.5,364.833 672.5,366.167 672.5,367.5C 669.167,367.5 665.833,367.5 662.5,367.5C 662.5,365.833 662.5,364.167 662.5,362.5C 665.833,362.5 669.167,362.5 672.5,362.5 Z"/></g>
<g><path style="opacity:1" fill="#ff5a51" d="M 672.5,362.5 C 669.167,362.5 665.833,362.5 662.5,362.5C 662.5,364.167 662.5,365.833 662.5,367.5C 665.833,367.5 669.167,367.5 672.5,367.5C 672.5,366.167 672.5,364.833 672.5,363.5C 673.451,364.919 673.784,366.585 673.5,368.5C 669.5,368.5 665.5,368.5 661.5,368.5C 661.5,366.167 661.5,363.833 661.5,361.5C 665.371,361.185 669.038,361.518 672.5,362.5 Z"/></g>
<g><path style="opacity:1" fill="#ff1914" d="M 574.5,371.5 C 582.167,371.5 589.833,371.5 597.5,371.5C 597.5,373.833 597.5,376.167 597.5,378.5C 589.5,378.5 581.5,378.5 573.5,378.5C 573.993,376.194 574.326,373.861 574.5,371.5 Z"/></g>
<g><path style="opacity:1" fill="#ff1913" d="M 601.5,371.5 C 608.167,371.5 614.833,371.5 621.5,371.5C 621.5,373.833 621.5,376.167 621.5,378.5C 614.833,378.5 608.167,378.5 601.5,378.5C 601.5,376.167 601.5,373.833 601.5,371.5 Z"/></g>
<g><path style="opacity:1" fill="#ff1813" d="M 624.5,371.5 C 632.167,371.5 639.833,371.5 647.5,371.5C 647.5,373.833 647.5,376.167 647.5,378.5C 639.833,378.5 632.167,378.5 624.5,378.5C 624.5,376.167 624.5,373.833 624.5,371.5 Z"/></g>
<g><path style="opacity:1" fill="#fe1d16" d="M 673.5,374.5 C 671.833,375.833 670.167,377.167 668.5,378.5C 662.5,378.5 656.5,378.5 650.5,378.5C 650.5,376.167 650.5,373.833 650.5,371.5C 658.167,371.5 665.833,371.5 673.5,371.5C 673.5,372.5 673.5,373.5 673.5,374.5 Z"/></g>
<g><path style="opacity:1" fill="#d6d8ff" d="M 736.5,357.5 C 737.5,357.5 738.5,357.5 739.5,357.5C 739.5,367.5 739.5,377.5 739.5,387.5C 738.167,387.5 736.833,387.5 735.5,387.5C 735.193,377.418 735.526,367.418 736.5,357.5 Z"/></g>
<g><path style="opacity:1" fill="#4e52f4" d="M 673.5,374.5 C 674.434,375.568 674.768,376.901 674.5,378.5C 672.5,378.5 670.5,378.5 668.5,378.5C 670.167,377.167 671.833,375.833 673.5,374.5 Z"/></g>
<g><path style="opacity:1" fill="#ffa3a2" d="M 503.5,357.5 C 504.833,357.5 506.167,357.5 507.5,357.5C 507.5,367.833 507.5,378.167 507.5,388.5C 506.167,388.5 504.833,388.5 503.5,388.5C 503.5,378.167 503.5,367.833 503.5,357.5 Z"/></g>
<g><path style="opacity:1" fill="#fefffe" d="M 504.5,358.5 C 505.827,362.951 506.494,367.784 506.5,373C 506.167,377.833 505.833,382.667 505.5,387.5C 504.502,377.856 504.168,368.19 504.5,358.5 Z"/></g>
<g><path style="opacity:1" fill="#ff0202" d="M 585.5,387.5 C 581.5,387.5 577.5,387.5 573.5,387.5C 573.5,385.833 573.5,384.167 573.5,382.5C 577.298,381.517 581.298,381.183 585.5,381.5C 585.5,383.5 585.5,385.5 585.5,387.5 Z"/></g>
<g><path style="opacity:1" fill="#ff0202" d="M 589.5,381.5 C 595.833,381.5 602.167,381.5 608.5,381.5C 608.5,383.5 608.5,385.5 608.5,387.5C 602.167,387.5 595.833,387.5 589.5,387.5C 589.5,385.5 589.5,383.5 589.5,381.5 Z"/></g>
<g><path style="opacity:1" fill="#ff0202" d="M 612.5,381.5 C 620.5,381.5 628.5,381.5 636.5,381.5C 636.5,383.5 636.5,385.5 636.5,387.5C 628.5,387.5 620.5,387.5 612.5,387.5C 612.5,385.5 612.5,383.5 612.5,381.5 Z"/></g>
<g><path style="opacity:1" fill="#fe0203" d="M 640.5,381.5 C 646.833,381.5 653.167,381.5 659.5,381.5C 659.5,382.5 659.5,383.5 659.5,384.5C 657.938,384.733 656.605,385.4 655.5,386.5C 654.833,386.833 654.167,387.167 653.5,387.5C 649.167,387.5 644.833,387.5 640.5,387.5C 640.5,385.5 640.5,383.5 640.5,381.5 Z"/></g>
<g><path style="opacity:1" fill="#152cfe" d="M 663.5,381.5 C 667.5,381.5 671.5,381.5 675.5,381.5C 675.5,383.5 675.5,385.5 675.5,387.5C 671.5,387.5 667.5,387.5 663.5,387.5C 663.5,385.5 663.5,383.5 663.5,381.5 Z"/></g>
<g><path style="opacity:1" fill="#3622ec" d="M 659.5,384.5 C 659.5,385.5 659.5,386.5 659.5,387.5C 657.901,387.768 656.568,387.434 655.5,386.5C 656.605,385.4 657.938,384.733 659.5,384.5 Z"/></g>
<g><path style="opacity:1" fill="#ff9897" d="M 573.5,382.5 C 573.5,384.167 573.5,385.833 573.5,387.5C 577.5,387.5 581.5,387.5 585.5,387.5C 581.366,388.485 577.032,388.818 572.5,388.5C 572.205,386.265 572.539,384.265 573.5,382.5 Z"/></g>
<g><path style="opacity:1" fill="#ff9696" d="M 640.5,381.5 C 640.5,383.5 640.5,385.5 640.5,387.5C 644.833,387.5 649.167,387.5 653.5,387.5C 649.03,388.486 644.363,388.819 639.5,388.5C 639.198,385.941 639.532,383.607 640.5,381.5 Z"/></g>
<g><path style="opacity:1" fill="#ff0d05" d="M 571.5,391.5 C 579.5,391.5 587.5,391.5 595.5,391.5C 595.5,393.5 595.5,395.5 595.5,397.5C 587.5,397.5 579.5,397.5 571.5,397.5C 571.5,395.5 571.5,393.5 571.5,391.5 Z"/></g>
<g><path style="opacity:1" fill="#fe0000" d="M 621.5,391.5 C 621.5,393.5 621.5,395.5 621.5,397.5C 614.167,397.5 606.833,397.5 599.5,397.5C 599.5,395.5 599.5,393.5 599.5,391.5C 606.833,391.5 614.167,391.5 621.5,391.5 Z"/></g>
<g><path style="opacity:1" fill="#fc0005" d="M 647.5,391.5 C 644.833,393.5 642.167,395.5 639.5,397.5C 634.833,397.5 630.167,397.5 625.5,397.5C 625.5,395.5 625.5,393.5 625.5,391.5C 632.833,391.5 640.167,391.5 647.5,391.5 Z"/></g>
<g><path style="opacity:1" fill="#1c24f5" d="M 647.5,391.5 C 649.308,392.918 649.975,394.918 649.5,397.5C 646.167,397.5 642.833,397.5 639.5,397.5C 642.167,395.5 644.833,393.5 647.5,391.5 Z"/></g>
<g><path style="opacity:1" fill="#0727fe" d="M 653.5,391.5 C 661.167,391.5 668.833,391.5 676.5,391.5C 676.5,393.5 676.5,395.5 676.5,397.5C 668.833,397.5 661.167,397.5 653.5,397.5C 653.5,395.5 653.5,393.5 653.5,391.5 Z"/></g>
<g><path style="opacity:1" fill="#ffb5b5" d="M 621.5,391.5 C 614.167,391.5 606.833,391.5 599.5,391.5C 599.5,393.5 599.5,395.5 599.5,397.5C 606.833,397.5 614.167,397.5 621.5,397.5C 614.018,398.492 606.352,398.825 598.5,398.5C 598.5,395.833 598.5,393.167 598.5,390.5C 606.352,390.175 614.018,390.508 621.5,391.5 Z"/></g>
<g><path style="opacity:1" fill="#647bff" d="M 786.5,394.5 C 786.198,397.059 786.532,399.393 787.5,401.5C 787.217,402.289 786.717,402.956 786,403.5C 785.195,400.304 785.362,397.304 786.5,394.5 Z"/></g>
<g><path style="opacity:1" fill="#ffdddc" d="M 503.5,399.5 C 504.833,399.5 506.167,399.5 507.5,399.5C 507.5,409.5 507.5,419.5 507.5,429.5C 506.167,429.5 504.833,429.5 503.5,429.5C 503.5,419.5 503.5,409.5 503.5,399.5 Z"/></g>
<g><path style="opacity:1" fill="#f6f7ff" d="M 736.5,399.5 C 737.5,399.5 738.5,399.5 739.5,399.5C 739.5,409.5 739.5,419.5 739.5,429.5C 738.5,429.5 737.5,429.5 736.5,429.5C 736.5,419.5 736.5,409.5 736.5,399.5 Z"/></g>
<g><path style="opacity:1" fill="#ff261b" d="M 570.5,401.5 C 575.5,401.5 580.5,401.5 585.5,401.5C 585.5,403.167 585.5,404.833 585.5,406.5C 580.5,406.5 575.5,406.5 570.5,406.5C 570.5,404.833 570.5,403.167 570.5,401.5 Z"/></g>
<g><path style="opacity:1" fill="#ff1c14" d="M 588.5,401.5 C 595.167,401.5 601.833,401.5 608.5,401.5C 608.5,403.167 608.5,404.833 608.5,406.5C 601.833,406.5 595.167,406.5 588.5,406.5C 588.5,404.833 588.5,403.167 588.5,401.5 Z"/></g>
<g><path style="opacity:1" fill="#fd1814" d="M 631.5,401.5 C 630.167,402.833 628.833,404.167 627.5,405.5C 626.508,405.328 625.842,405.662 625.5,406.5C 620.833,406.5 616.167,406.5 611.5,406.5C 611.5,404.833 611.5,403.167 611.5,401.5C 618.167,401.5 624.833,401.5 631.5,401.5 Z"/></g>
<g><path style="opacity:1" fill="#2824f3" d="M 631.5,401.5 C 633.167,401.5 634.833,401.5 636.5,401.5C 636.5,402.833 636.5,404.167 636.5,405.5C 633.5,405.5 630.5,405.5 627.5,405.5C 628.833,404.167 630.167,402.833 631.5,401.5 Z"/></g>
<g><path style="opacity:1" fill="#1d32fe" d="M 640.5,401.5 C 647.167,401.5 653.833,401.5 660.5,401.5C 660.5,403.167 660.5,404.833 660.5,406.5C 653.833,406.5 647.167,406.5 640.5,406.5C 640.5,404.833 640.5,403.167 640.5,401.5 Z"/></g>
<g><path style="opacity:1" fill="#0728fe" d="M 664.5,401.5 C 668.833,401.5 673.167,401.5 677.5,401.5C 677.5,402.833 677.5,404.167 677.5,405.5C 673.167,405.5 668.833,405.5 664.5,405.5C 664.5,404.167 664.5,402.833 664.5,401.5 Z"/></g>
<g><path style="opacity:1" fill="#5164fb" d="M 636.5,401.5 C 637.451,402.919 637.784,404.585 637.5,406.5C 633.5,406.5 629.5,406.5 625.5,406.5C 625.842,405.662 626.508,405.328 627.5,405.5C 630.5,405.5 633.5,405.5 636.5,405.5C 636.5,404.167 636.5,402.833 636.5,401.5 Z"/></g>
<g><path style="opacity:1" fill="#4a64ff" d="M 664.5,401.5 C 664.5,402.833 664.5,404.167 664.5,405.5C 668.833,405.5 673.167,405.5 677.5,405.5C 673.03,406.486 668.363,406.819 663.5,406.5C 663.216,404.585 663.549,402.919 664.5,401.5 Z"/></g>
<g><path style="opacity:1" fill="#ff4741" d="M 568.5,409.5 C 577.506,409.334 586.506,409.5 595.5,410C 591.007,411.141 586.34,411.641 581.5,411.5C 576.778,411.492 572.445,410.825 568.5,409.5 Z"/></g>
<g><path style="opacity:1" fill="#fe4a45" d="M 619.5,409.5 C 619.167,410.167 618.833,410.833 618.5,411.5C 611.825,411.666 605.158,411.5 598.5,411C 605.323,409.54 612.323,409.04 619.5,409.5 Z"/></g>
<g><path style="opacity:1" fill="#525af3" d="M 619.5,409.5 C 620.376,409.369 621.043,409.702 621.5,410.5C 620.675,411.386 619.675,411.719 618.5,411.5C 618.833,410.833 619.167,410.167 619.5,409.5 Z"/></g>
<g><path style="opacity:1" fill="#4e5eff" d="M 624.5,409.5 C 632.196,409.169 639.862,409.503 647.5,410.5C 643.667,410.833 639.833,411.167 636,411.5C 631.771,411.49 627.938,410.823 624.5,409.5 Z"/></g>
<g><path style="opacity:1" fill="#4b5cff" d="M 650.5,410.5 C 660.008,409.177 669.675,409.177 679.5,410.5C 669.773,411.805 660.107,411.805 650.5,410.5 Z"/></g>
<g><path style="opacity:1" fill="#ff0c06" d="M 558.5,414.5 C 565.841,414.334 573.174,414.5 580.5,415C 579.331,417.007 578.665,419.173 578.5,421.5C 568.494,421.666 558.494,421.5 548.5,421C 551.421,418.05 554.754,415.883 558.5,414.5 Z"/></g>
<g><path style="opacity:1" fill="#fe0303" d="M 606.5,418.5 C 605.128,419.512 603.795,420.512 602.5,421.5C 602.167,421.5 601.833,421.5 601.5,421.5C 594.745,422.123 588.412,421.456 582.5,419.5C 582.751,417.83 583.418,416.33 584.5,415C 592.159,414.5 599.826,414.334 607.5,414.5C 607.567,415.959 607.234,417.292 606.5,418.5 Z"/></g>
<g><path style="opacity:1" fill="#0d27fd" d="M 611.5,414.5 C 619.528,414.169 627.528,414.502 635.5,415.5C 636.348,417.409 636.682,419.409 636.5,421.5C 627.833,421.5 619.167,421.5 610.5,421.5C 610.298,419.05 610.631,416.717 611.5,414.5 Z"/></g>
<g><path style="opacity:1" fill="#0727fe" d="M 664.5,420.5 C 656.684,421.492 648.684,421.826 640.5,421.5C 640.768,419.901 640.434,418.568 639.5,417.5C 639.5,416.5 639.5,415.5 639.5,414.5C 647.174,414.334 654.841,414.5 662.5,415C 663.861,416.584 664.528,418.418 664.5,420.5 Z"/></g>
<g><path style="opacity:1" fill="#112afe" d="M 666.5,414.5 C 673.841,414.334 681.174,414.5 688.5,415C 692.893,415.696 696.56,417.696 699.5,421C 688.839,421.5 678.172,421.667 667.5,421.5C 667.552,419.097 667.219,416.764 666.5,414.5 Z"/></g>
<g><path style="opacity:1" fill="#3421e5" d="M 606.5,418.5 C 606.5,419.5 606.5,420.5 606.5,421.5C 605.167,421.5 603.833,421.5 602.5,421.5C 603.795,420.512 605.128,419.512 606.5,418.5 Z"/></g>
<g><path style="opacity:1" fill="#fea0a0" d="M 582.5,419.5 C 588.412,421.456 594.745,422.123 601.5,421.5C 595.021,422.491 588.354,422.824 581.5,422.5C 581.263,421.209 581.596,420.209 582.5,419.5 Z"/></g>
<g><path style="opacity:1" fill="#9facff" d="M 639.5,417.5 C 640.434,418.568 640.768,419.901 640.5,421.5C 648.684,421.826 656.684,421.492 664.5,420.5C 665.043,420.56 665.376,420.893 665.5,421.5C 656.859,422.498 648.192,422.831 639.5,422.5C 639.5,420.833 639.5,419.167 639.5,417.5 Z"/></g>
<g><path style="opacity:1" fill="#acb5fe" d="M 595.5,425.5 C 603.984,424.507 612.651,424.174 621.5,424.5C 621.806,427.385 621.473,430.052 620.5,432.5C 620.5,430.167 620.5,427.833 620.5,425.5C 612.167,425.5 603.833,425.5 595.5,425.5 Z"/></g>
<g><path style="opacity:1" fill="#ff0b06" d="M 546.5,425.5 C 552.167,425.5 557.833,425.5 563.5,425.5C 563.5,427.833 563.5,430.167 563.5,432.5C 557.5,432.5 551.5,432.5 545.5,432.5C 545.298,430.05 545.631,427.717 546.5,425.5 Z"/></g>
<g><path style="opacity:1" fill="#fd0404" d="M 592.5,427.5 C 589.953,428.934 587.619,430.6 585.5,432.5C 579.167,432.5 572.833,432.5 566.5,432.5C 566.5,430.167 566.5,427.833 566.5,425.5C 575.565,424.864 584.231,425.53 592.5,427.5 Z"/></g>
<g><path style="opacity:1" fill="#0126fe" d="M 595.5,425.5 C 603.833,425.5 612.167,425.5 620.5,425.5C 620.5,427.833 620.5,430.167 620.5,432.5C 612.167,432.5 603.833,432.5 595.5,432.5C 595.5,430.167 595.5,427.833 595.5,425.5 Z"/></g>
<g><path style="opacity:1" fill="#0728fe" d="M 624.5,425.5 C 633.5,425.5 642.5,425.5 651.5,425.5C 651.5,427.833 651.5,430.167 651.5,432.5C 642.5,432.5 633.5,432.5 624.5,432.5C 624.5,430.167 624.5,427.833 624.5,425.5 Z"/></g>
<g><path style="opacity:1" fill="#0e2afe" d="M 654.5,425.5 C 663.167,425.5 671.833,425.5 680.5,425.5C 680.5,427.833 680.5,430.167 680.5,432.5C 671.833,432.5 663.167,432.5 654.5,432.5C 654.5,430.167 654.5,427.833 654.5,425.5 Z"/></g>
<g><path style="opacity:1" fill="#0d29fe" d="M 683.5,425.5 C 689.509,425.334 695.509,425.501 701.5,426C 702.669,428.007 703.335,430.173 703.5,432.5C 696.833,432.5 690.167,432.5 683.5,432.5C 683.5,430.167 683.5,427.833 683.5,425.5 Z"/></g>
<g><path style="opacity:1" fill="#3e32ec" d="M 592.5,427.5 C 592.5,429.167 592.5,430.833 592.5,432.5C 590.167,432.5 587.833,432.5 585.5,432.5C 587.619,430.6 589.953,428.934 592.5,427.5 Z"/></g>
<g><path style="opacity:1" fill="#fc6668" d="M 578.5,437.5 C 578.167,437.5 577.833,437.5 577.5,437.5C 569.016,436.507 560.349,436.174 551.5,436.5C 551.5,438.833 551.5,441.167 551.5,443.5C 550.527,441.052 550.194,438.385 550.5,435.5C 560.227,434.861 569.56,435.528 578.5,437.5 Z"/></g>
<g><path style="opacity:1" fill="#657bff" d="M 581.5,436.5 C 589.984,435.507 598.651,435.174 607.5,435.5C 607.806,438.385 607.473,441.052 606.5,443.5C 606.5,441.167 606.5,438.833 606.5,436.5C 598.167,436.5 589.833,436.5 581.5,436.5 Z"/></g>
<g><path style="opacity:1" fill="#6379ff" d="M 610.5,436.5 C 618.984,435.507 627.651,435.174 636.5,435.5C 636.806,438.385 636.473,441.052 635.5,443.5C 635.5,441.167 635.5,438.833 635.5,436.5C 627.167,436.5 618.833,436.5 610.5,436.5 Z"/></g>
<g><path style="opacity:1" fill="#657bff" d="M 639.5,436.5 C 647.984,435.507 656.651,435.174 665.5,435.5C 665.806,438.385 665.473,441.052 664.5,443.5C 664.5,441.167 664.5,438.833 664.5,436.5C 656.167,436.5 647.833,436.5 639.5,436.5 Z"/></g>
<g><path style="opacity:1" fill="#6f84ff" d="M 668.5,436.5 C 677.652,435.506 686.985,435.173 696.5,435.5C 696.806,438.385 696.473,441.052 695.5,443.5C 695.5,441.167 695.5,438.833 695.5,436.5C 686.5,436.5 677.5,436.5 668.5,436.5 Z"/></g>
<g><path style="opacity:1" fill="#ff1e13" d="M 544.5,435.5 C 545.5,435.5 546.5,435.5 547.5,435.5C 547.5,438.167 547.5,440.833 547.5,443.5C 546.5,443.5 545.5,443.5 544.5,443.5C 544.5,440.833 544.5,438.167 544.5,435.5 Z"/></g>
<g><path style="opacity:1" fill="#fd0002" d="M 577.5,437.5 C 574.291,439.265 571.291,441.265 568.5,443.5C 562.833,443.5 557.167,443.5 551.5,443.5C 551.5,441.167 551.5,438.833 551.5,436.5C 560.349,436.174 569.016,436.507 577.5,437.5 Z"/></g>
<g><path style="opacity:1" fill="#0327fe" d="M 581.5,436.5 C 589.833,436.5 598.167,436.5 606.5,436.5C 606.5,438.833 606.5,441.167 606.5,443.5C 598.167,443.5 589.833,443.5 581.5,443.5C 581.5,441.167 581.5,438.833 581.5,436.5 Z"/></g>
<g><path style="opacity:1" fill="#0126fe" d="M 610.5,436.5 C 618.833,436.5 627.167,436.5 635.5,436.5C 635.5,438.833 635.5,441.167 635.5,443.5C 627.167,443.5 618.833,443.5 610.5,443.5C 610.5,441.167 610.5,438.833 610.5,436.5 Z"/></g>
<g><path style="opacity:1" fill="#0226fe" d="M 639.5,436.5 C 647.833,436.5 656.167,436.5 664.5,436.5C 664.5,438.833 664.5,441.167 664.5,443.5C 656.167,443.5 647.833,443.5 639.5,443.5C 639.5,441.167 639.5,438.833 639.5,436.5 Z"/></g>
<g><path style="opacity:1" fill="#0125fe" d="M 668.5,436.5 C 677.5,436.5 686.5,436.5 695.5,436.5C 695.5,438.833 695.5,441.167 695.5,443.5C 686.5,443.5 677.5,443.5 668.5,443.5C 668.5,441.167 668.5,438.833 668.5,436.5 Z"/></g>
<g><path style="opacity:1" fill="#2332fe" d="M 699.5,435.5 C 700.833,435.5 702.167,435.5 703.5,435.5C 703.5,438.167 703.5,440.833 703.5,443.5C 702.167,443.5 700.833,443.5 699.5,443.5C 699.5,440.833 699.5,438.167 699.5,435.5 Z"/></g>
<g><path style="opacity:1" fill="#8797ff" d="M 779.5,431.5 C 780.641,434.64 780.808,437.973 780,441.5C 779.487,440.473 778.987,439.473 778.5,438.5C 779.468,436.393 779.802,434.059 779.5,431.5 Z"/></g>
<g><path style="opacity:1" fill="#302cf2" d="M 577.5,437.5 C 577.833,437.5 578.167,437.5 578.5,437.5C 578.5,439.5 578.5,441.5 578.5,443.5C 575.167,443.5 571.833,443.5 568.5,443.5C 571.291,441.265 574.291,439.265 577.5,437.5 Z"/></g>
<g><path style="opacity:1" fill="#ffe9e9" d="M 507.5,441.5 C 508.5,441.5 509.5,441.5 510.5,441.5C 513.69,450.36 519.69,456.694 528.5,460.5C 529.745,461.955 529.578,463.289 528,464.5C 518.141,459.975 510.975,452.808 506.5,443C 507.056,442.617 507.389,442.117 507.5,441.5 Z"/></g>
<g><path style="opacity:1" fill="#ebedff" d="M 734.5,441.5 C 735.756,441.461 736.756,441.961 737.5,443C 733.025,452.808 725.859,459.975 716,464.5C 714.812,463.437 714.312,462.103 714.5,460.5C 724.138,457.339 730.804,451.005 734.5,441.5 Z"/></g>
<g><path style="opacity:1" fill="#fba2a4" d="M 544.5,447.5 C 550.167,446.167 555.833,446.167 561.5,447.5C 561.5,447.833 561.5,448.167 561.5,448.5C 561.167,448.5 560.833,448.5 560.5,448.5C 555.36,447.512 550.026,447.179 544.5,447.5 Z"/></g>
<g><path style="opacity:1" fill="#fc0909" d="M 544.5,447.5 C 550.026,447.179 555.36,447.512 560.5,448.5C 556.664,450.584 552.997,452.917 549.5,455.5C 548.5,455.833 547.833,456.5 547.5,457.5C 546.5,457.5 545.5,457.5 544.5,457.5C 544.5,454.167 544.5,450.833 544.5,447.5 Z"/></g>
<g><path style="opacity:1" fill="#0628fe" d="M 565.5,447.5 C 574.833,447.5 584.167,447.5 593.5,447.5C 593.5,450.5 593.5,453.5 593.5,456.5C 584.167,456.5 574.833,456.5 565.5,456.5C 565.5,453.5 565.5,450.5 565.5,447.5 Z"/></g>
<g><path style="opacity:1" fill="#0227fe" d="M 596.5,447.5 C 604.833,447.5 613.167,447.5 621.5,447.5C 621.5,450.5 621.5,453.5 621.5,456.5C 613.167,456.5 604.833,456.5 596.5,456.5C 596.5,453.5 596.5,450.5 596.5,447.5 Z"/></g>
<g><path style="opacity:1" fill="#0c29fe" d="M 625.5,447.5 C 633.833,447.5 642.167,447.5 650.5,447.5C 650.5,450.5 650.5,453.5 650.5,456.5C 642.167,456.5 633.833,456.5 625.5,456.5C 625.5,453.5 625.5,450.5 625.5,447.5 Z"/></g>
<g><path style="opacity:1" fill="#0227fe" d="M 653.5,447.5 C 662.833,447.5 672.167,447.5 681.5,447.5C 681.5,450.5 681.5,453.5 681.5,456.5C 672.167,456.5 662.833,456.5 653.5,456.5C 653.5,453.5 653.5,450.5 653.5,447.5 Z"/></g>
<g><path style="opacity:1" fill="#0628fe" d="M 703.5,447.5 C 703.5,450.5 703.5,453.5 703.5,456.5C 697.167,456.5 690.833,456.5 684.5,456.5C 684.5,453.5 684.5,450.5 684.5,447.5C 690.833,447.5 697.167,447.5 703.5,447.5 Z"/></g>
<g><path style="opacity:1" fill="#2224f5" d="M 560.5,448.5 C 560.833,448.5 561.167,448.5 561.5,448.5C 561.5,451.167 561.5,453.833 561.5,456.5C 557.298,456.817 553.298,456.483 549.5,455.5C 552.997,452.917 556.664,450.584 560.5,448.5 Z"/></g>
<g><path style="opacity:1" fill="#ff7875" d="M 489.5,441.5 C 489.56,440.957 489.893,440.624 490.5,440.5C 491.817,446.654 491.817,452.654 490.5,458.5C 490.822,452.642 490.489,446.975 489.5,441.5 Z"/></g>
<g><path style="opacity:1" fill="#6b7efc" d="M 561.5,447.5 C 562.479,450.625 562.813,453.958 562.5,457.5C 557.5,457.5 552.5,457.5 547.5,457.5C 547.833,456.5 548.5,455.833 549.5,455.5C 553.298,456.483 557.298,456.817 561.5,456.5C 561.5,453.833 561.5,451.167 561.5,448.5C 561.5,448.167 561.5,447.833 561.5,447.5 Z"/></g>
<g><path style="opacity:1" fill="#b8c2ff" d="M 625.5,447.5 C 625.5,450.5 625.5,453.5 625.5,456.5C 633.833,456.5 642.167,456.5 650.5,456.5C 642.016,457.493 633.349,457.826 624.5,457.5C 624.187,453.958 624.521,450.625 625.5,447.5 Z"/></g>
<g><path style="opacity:1" fill="#7285ff" d="M 703.5,447.5 C 704.479,450.625 704.813,453.958 704.5,457.5C 697.646,457.824 690.979,457.491 684.5,456.5C 690.833,456.5 697.167,456.5 703.5,456.5C 703.5,453.5 703.5,450.5 703.5,447.5 Z"/></g>
<g><path style="opacity:1" fill="#efefff" d="M 537.5,465.5 C 545.519,468.755 553.852,470.922 562.5,472C 563.973,472.71 564.64,473.876 564.5,475.5C 555.2,474.874 546.367,472.541 538,468.5C 537.517,467.552 537.351,466.552 537.5,465.5 Z"/></g>
<g><path style="opacity:1" fill="#e9eaff" d="M 704.5,465.5 C 706.912,465.694 707.912,467.027 707.5,469.5C 698.25,471.812 688.916,473.812 679.5,475.5C 679.5,474.167 679.5,472.833 679.5,471.5C 688.302,471.01 696.635,469.01 704.5,465.5 Z"/></g>
<g><path style="opacity:1" fill="#eaebff" d="M 575.5,473.5 C 583.267,474.42 590.933,475.92 598.5,478C 600.555,478.687 602.221,479.854 603.5,481.5C 603.192,482.308 602.692,482.975 602,483.5C 593.606,479.694 584.773,477.694 575.5,477.5C 575.5,476.167 575.5,474.833 575.5,473.5 Z"/></g>
<g><path style="opacity:1" fill="#eeefff" d="M 664.5,473.5 C 665.833,473.5 667.167,473.5 668.5,473.5C 668.5,474.833 668.5,476.167 668.5,477.5C 659.101,477.146 650.268,479.146 642,483.5C 640.77,482.725 640.437,481.725 641,480.5C 648.54,476.834 656.374,474.501 664.5,473.5 Z"/></g>
<g><path style="opacity:1" fill="#1a2ffe" d="M 514.5,478.5 C 517.87,488.222 520.87,498.055 523.5,508C 519.63,508.043 516.13,506.877 513,504.5C 513.629,496.155 513.462,487.822 512.5,479.5C 513.167,479.167 513.833,478.833 514.5,478.5 Z"/></g>
<g><path style="opacity:1" fill="#edeeff" d="M 612.5,483.5 C 616.3,485.234 619.966,487.234 623.5,489.5C 626.167,487.5 628.833,485.5 631.5,483.5C 632.5,483.833 633.167,484.5 633.5,485.5C 630.48,488.516 627.146,491.183 623.5,493.5C 619.833,491.333 616.167,489.167 612.5,487C 611.316,485.855 611.316,484.688 612.5,483.5 Z"/></g>
<g><path style="opacity:1" fill="#1d2dfc" d="M 504.5,485.5 C 504.494,490.893 504.661,496.227 505,501.5C 502.579,500.039 500.079,498.706 497.5,497.5C 496.271,494.801 496.271,492.135 497.5,489.5C 499.372,487.396 501.705,486.063 504.5,485.5 Z"/></g>
<g><path style="opacity:1" fill="#929cff" d="M 713.5,542.5 C 714.289,542.783 714.956,543.283 715.5,544C 712.633,544.801 709.966,544.634 707.5,543.5C 709.735,543.795 711.735,543.461 713.5,542.5 Z"/></g>
<g><path style="opacity:1" fill="#0018a0" d="M 5.5,808.5 C 5.83333,808.5 6.16667,808.5 6.5,808.5C 418.666,809.5 831,809.833 1243.5,809.5C 1243.83,809.5 1244.17,809.5 1244.5,809.5C 1038.17,810.167 831.667,810.5 625,810.5C 418.166,810.5 211.666,809.833 5.5,808.5 Z"/></g>
</svg>
