<?xml version="1.0" encoding="UTF-8"?>
<svg viewBox="0 0 600 400" xmlns="http://www.w3.org/2000/svg">
<rect width="600" height="400" fill="#de0818"/>
<g fill="#00923f" stroke="#1f1a17" stroke-width=".2311">
<path d="m338.22 100.26s12.467 22.163 11.286 60.069c-1.1708 37.956-32.533 66.959-38.718 72.512-6.1753 5.6038-35.168 28.346-35.168 28.346 1.4139-0.27954 2.5446-0.1379 2.5446-0.1379 0.99203-2.3875 20.331-14.873 31.631-25.821 34.224-33.064 38.856-50.051 40.771-75.11 1.9246-25.009-10.099-55.973-12.346-59.86z"/>
<path d="m316.9 226.94s-3.8379 0.7588-4.6734-1.5806l4.6734 1.5806z"/>
<path d="m317.89 226.37s-5.1091-0.0856-4.8644-2.2734c0 0 3.9584-0.41745 4.8644 2.2734z"/>
<path d="m318.88 225.81s-3.8762-1.0076-4.3684-3.467c-0.49217-2.4594 3.4625 0.77636 4.3684 3.467z"/>
<path d="m321.53 222.78s-5.5348 1.4597-6.3665-4.5329c0 0 5.0267 1.5107 6.3665 4.5329z"/>
<path d="m322.81 219.98s-1.697 0.70087-3.3921-0.42508c-1.6446-1.1358-3.0466-2.6326-3.0466-2.6326s2.3536-0.83053 3.6952 0.36515c1.3315 1.1456 2.7434 2.6925 2.7434 2.6925z"/>
<path d="m324.72 218.5s-3.6753-4e-3 -4.6534-1.2192c-0.98824-1.2656-1.7635-3.3038-1.7635-3.3038s1.4139-0.27954 3.5327 1.1277c2.119 1.4073 2.8842 3.3953 2.8842 3.3953z"/>
<path d="m326.44 216.39s-1.9784-0.7046-3.1991-1.559c-1.2714-0.84439-4.2962-4.9422-4.2962-4.9422s4.8862 0.80794 5.9446 2.4248c1.0586 1.617 1.5507 4.0764 1.5507 4.0764z"/>
<path d="m317.89 226.37s1.4101 3.3736 4.2577 3.1758c0 0-1.2693-2.6709-4.2577-3.1758z"/>
<path d="m318.88 225.81s1.0586 1.617 2.1389 1.7686c1.1308 0.14179 2.5426 1.6888 5.017 1.1996 0 0-1.3417-1.1957-3.3904-2.2516-2.0486-1.0561-3.7655-0.71661-3.7655-0.71661z"/>
<path d="m321.53 222.78c1.5426 2.1996 1.189 2.2695 2.4604 3.1139 1.2714 0.84438 4.8963 0.85824 4.8963 0.85824s-0.56436-0.98417-2.613-2.0401c-1.9981-1.066-4.7436-1.932-4.7436-1.932z"/>
<path d="m323.37 220.96s0.70686-0.13976 1.8357 1.8286c1.0682 1.9282 3.6831 2.1416 5.5912 2.4948 0 0-0.63466-1.3355-2.6834-2.3915-2.0385-1.0058-4.7436-1.9319-4.7436-1.9319z"/>
<path d="m325.23 219.5s0.35358-0.0699 2.1893 1.7586c1.8257 1.7784 4.6515 3.0458 6.4387 3.0578 0 0-1.986-2.8425-3.611-3.6169-1.6248-0.77451-5.017-1.1996-5.017-1.1996z"/>
<path d="m326.44 216.39s2.601 3.8166 3.802 4.3096c1.2011 0.49309 5.5209 2.1436 5.5209 2.1436s-2.6733-2.3414-4.3178-3.4772c-1.6952-1.1258-5.0051-2.9759-5.0051-2.9759z"/>
<path d="m328.92 215.9s0.19901 2.8304 2.5308 3.4651c2.2812 0.64472 7.6615 2.0855 7.6615 2.0855s-2.2693-2.4211-4.6714-3.4071c-2.4021-0.98617-5.5209-2.1436-5.5209-2.1436z"/>
<path d="m329.27 214s1.0584 1.6169 3.8237 2.8442c2.8259 1.2676 7.8628 2.8284 7.8628 2.8284s-2.1873-3.5852-4.8924-4.5114c-2.7455-0.86585-6.7941-1.1611-6.7941-1.1611z"/>
<path d="m331.06 212.19c1.7654 1.4772 3.3904 2.2517 5.0051 2.9759 1.5744 0.78448 8.0052 1.7045 8.0052 1.7045s-4.015-3.5369-5.5695-3.9601c-1.5545-0.42306-7.4409-0.72034-7.4409-0.72034z"/>
<path d="m332.12 210.15s3.4607 2.603 6.3786 2.7565c2.9684 0.14367 9.4091 1.3748 9.4091 1.3748s-5.2376-2.5648-7.6397-3.5508c-2.4021-0.98617-8.1479-0.58054-8.1479-0.58054z"/>
<path d="m334.61 206.06c0.98824 1.2656 3.3278 4.0381 5.6596 4.6728s11.066 0.73407 11.066 0.73407-4.9645-3.0361-8.7805-3.7427c-3.7555-0.66615-7.9447-1.6642-7.9447-1.6642z"/>
<path d="m338.82 199.8 3.9664 1.7204s-0.42562 1.5451 3.5328 1.1276c3.908-0.40747 13.542-1.5817 13.542-1.5817s-5.4288-3.2574-11.528-2.782c-6.0992 0.47534-9.5132 1.5157-9.5132 1.5157z"/>
<path d="m328.21 214.21c0.70496 1.6868-5.6033-0.71846-7.142-6.5712 0 0 5.0369 1.5608 7.142 6.5712z"/>
<path d="m330.05 212.38s-1.201-0.49293-2.4724-1.3373c-1.2714-0.84439-4.72-5.2238-4.72-5.2238s3.1793 1.1976 4.8041 1.9721c1.6249 0.77447 2.3883 4.5891 2.3883 4.5891z"/>
<path d="m332.12 210.15c-2.7652-1.2273-7.8387-6.3812-7.8387-6.3812s4.3001 1.289 5.5209 2.1434c1.2714 0.84438 2.3179 4.2378 2.3179 4.2378z"/>
<path d="m334.61 206.06c-2.4743 0.48921-8.7002-3.3411-8.9111-4.3952 0 0 3.9783-0.056 6.0871 1.3011 2.119 1.4072 2.824 3.0941 2.824 3.0941z"/>
<path d="m336.26 203.54s-3.5546 0.3376-4.4725-0.57666c-0.90775-0.86415-4.8823-4.4612-4.8823-4.4612s4.0486 0.29512 6.1676 1.7025c2.0684 1.4174 3.1872 3.3354 3.1872 3.3354z"/>
<path d="m337.69 199.66c-2.2615-0.28327-3.0388-0.49493-4.1191-0.64654-1.1306-0.14167-8.628-4.8163-8.628-4.8163s7.7943 0.65046 9.4289 1.7361c1.6952 1.1258 3.3182 3.7268 3.3182 3.7268z"/>
<path d="m336.9 203.05s3.318 3.727 6.2963 4.1816c3.0387 0.49497 10.622 0.0914 10.622 0.0914s-4.9346-2.6247-7.9933-3.4809c-3.109-0.84627-8.925-0.7921-8.925-0.7921z"/>
<path d="m340.12 195.52 4.1282 1.4797s-0.31469 1.5753 3.5431 0.91695c3.9084-0.66833 13.422-2.445 13.422-2.445s-5.5707-2.9162-11.65-2.0795c-6.0693 0.88691-9.4431 2.1278-9.4431 2.1278z"/>
<path d="m340.12 195.52-1.6842-1.8585s-0.48296-1.6264-4.3495-2.3229c-3.8664-0.6965-8.2384-0.77133-8.2384-0.77133s0.69328 3.2023 6.6695 4.4732c6.0166 1.2106 7.6026 0.47954 7.6026 0.47954z"/>
<path d="m342.01 193.17 3.1286 1.4685s1.7863 0.7947 5.6544-0.0743c3.8582-0.91935 11.21-2.4774 11.21-2.4774s-5.7728-2.6155-11.772-1.3773c-5.9991 1.2384-8.2217 2.4605-8.2217 2.4605z"/>
<path d="m343.79 189.22 3.1994 1.298s1.8168 0.68441 5.6447-0.38549c3.7675-1.1102 11.04-3.0698 11.04-3.0698s-5.9147-2.2744-11.803-0.74483c-5.9387 1.5394-8.0807 2.9021-8.0807 2.9021z"/>
<path d="m344.87 185.71 3.2703 1.1274s1.9079 0.61429 5.6351-0.69665 10.868-3.6621 10.868-3.6621-6.0058-1.9431-11.834-0.11257c-5.8179 1.8808-7.9399 3.3438-7.9399 3.3438z"/>
<path d="m345.95 181.9 3.3818 0.63593s1.9485 0.29303 5.4643-1.55c3.4652-1.8332 10.193-5.1984 10.193-5.1984s-6.249-1.0602-11.694 1.6338c-5.4957 2.7041-7.3454 4.4786-7.3454 4.4786z"/>
<path d="m347.52 176.9 3.4023 0.47519s1.9384 0.24289 5.3735-1.7407c3.4351-1.9837 10.002-5.6302 10.002-5.6302s-6.2998-0.78924-11.654 2.0956c-5.395 2.9451-7.1236 4.8001-7.1236 4.8001z"/>
<path d="m348.32 174.6 3.4535-0.31761s1.9591-0.17853 4.8295-2.8854c2.8704-2.7067 8.4192-7.7693 8.4192-7.7693s-6.2712 0.66588-10.87 4.7058c-4.5378 4.08-5.8326 6.2666-5.8326 6.2666z"/>
<path d="m341.29 192.22c-2.2008-0.50409-3.8571-0.12448-4.9574-0.37655-1.1004-0.25205-7.9808-5.7791-7.9808-5.7791s9.0154 1.2438 10.589 2.5502c1.5233 1.3163 2.349 3.6055 2.349 3.6055z"/>
<path d="m343.36 187.84c-1.7674 0.34945-3.514 0.2773-4.5841-0.0852-4.5117-1.5602-7.9908-5.8294-7.9908-5.8294s6.6734 0.81995 8.6013 1.5345c2.9572 1.1372 3.9736 4.38 3.9736 4.38z"/>
<path d="m345.12 184.05c-1.5352 0.46007-3.8574 0.13651-4.9272-0.22597-4.5117-1.5603-7.9808-5.7791-7.9808-5.7791s6.6734 0.8198 8.5507 1.5444c2.9472 1.0871 4.3573 4.4607 4.3573 4.4607z"/>
<path d="m345.58 180.88c-2.2106-0.55426-3.4636 0.26747-4.5336-0.095-4.5117-1.5603-7.9907-5.8294-7.9907-5.8294s6.6732 0.81998 8.5506 1.5446c2.9572 1.1372 3.9737 4.3799 3.9737 4.3799z"/>
<path d="m347.18 177.85c-2.2108-0.55423-3.5544 0.0766-4.6242-0.28573-4.5117-1.5604-7.9808-5.7793-7.9808-5.7793s6.6633 0.76966 8.5911 1.4843c2.9572 1.1372 4.0139 4.5807 4.0139 4.5807z"/>
<path d="m347.9 174.06c-1.8288 1.0921-4.9272-0.22583-5.9567-0.64843-4.3801-1.9516-6.1436-5.2554-6.1436-5.2554s5.3708 0.86867 7.2277 1.7538c2.8461 1.3678 4.8726 4.15 4.8726 4.15z"/>
<path d="m348.54 170.22 3.4535-0.31762s1.9489-0.22879 4.8194-2.9357c2.8804-2.6566 8.4292-7.7192 8.4292-7.7192s-6.3316 0.62571-10.87 4.7058c-4.5378 4.08-5.8326 6.2667-5.8326 6.2667z"/>
<path d="m349.61 168.19 4.2026-2.0832s0.37435-0.75229 3.1137-3.5898c2.7394-2.8374 8.0258-8.1612 8.0258-8.1612s-6.2613 0.97701-10.597 5.2781c-4.3363 4.3011-4.7446 8.556-4.7446 8.556z"/>
<path d="m348.51 170.85c-1.9189 0.3794-4.4625-0.52652-5.492-0.94912-4.3801-1.9516-6.8704-5.4771-6.8704-5.4771s6.5828 0.6292 8.4396 1.5144c2.8461 1.3678 3.9227 4.9118 3.9227 4.9118z"/>
<path d="m348.91 167.33c-1.2625 0.24961-2.8677 0.0974-3.8972-0.32523-4.3801-1.9516-7.4853-6.4511-7.4853-6.4511s6.6223 1.3518 8.4287 2.2468c2.846 1.368 2.9537 4.5296 2.9537 4.5296z"/>
<path d="m349.86 164.22c-2.1399-0.72479-2.8767-0.9966-3.9062-1.4192-4.3801-1.9515-7.4853-6.4511-7.4853-6.4511s5.098 1.0792 6.9044 1.9743c2.846 1.368 4.4871 5.896 4.4871 5.896z"/>
<path d="m349.75 159.18c-1.6262 0.53034-3.5241 0.22716-4.5636-0.24559-4.37-1.9013-7.4853-6.4511-7.4853-6.4511s6.5719 1.3618 8.4288 2.2469c2.8459 1.3679 3.6202 4.4498 3.6202 4.4498z"/>
<path d="m349.62 164.58 4.142-2.1233s0.43499-0.71214 3.1744-3.5495c2.7393-2.8375 7.9752-8.1513 7.9752-8.1513s-6.2107 0.96701-10.557 5.218c-4.3361 4.3011-4.7345 8.6062-4.7345 8.6062z"/>
<path d="m350.93 158.53 2.4854-1.4829s2.4249-1.5229 5.1038-4.4006c2.6687-2.9278 5.7834-7.5614 5.7834-7.5614s-4.4738 0.728-8.6889 5.1096c-4.2656 4.3914-4.6836 8.3353-4.6836 8.3353z"/>
<path d="m350.44 154.25 2.4854-1.4827s2.4349-1.4729 5.1037-4.4007c2.6787-2.8776 5.7936-7.5112 5.7936-7.5112s-4.4738 0.728-8.7396 5.1194c-4.2252 4.3313-4.6432 8.2752-4.6432 8.2752z"/>
<path d="m350.03 150.36 2.4048-1.6233s2.2939-1.6537 4.8415-4.662c2.487-3.0484 3.7935-6.7505 3.7935-6.7505s-2.8674-0.16346-6.8808 4.439c-4.0034 4.6526-4.159 8.5968-4.159 8.5968z"/>
<path d="m349.34 145.07 2.3544-1.6134s2.3443-1.6635 4.882-4.7221c2.4971-2.9981 3.8036-6.7002 3.8036-6.7002s-2.8675-0.16362-6.8809 4.4389-4.159 8.5968-4.159 8.5968z"/>
<path d="m349.94 152.78c-1.5662 1.0923-3.2012 0.52852-4.4732 0.20614-4.6335-1.1189-8.4156-5.0671-8.4156-5.0671s6.7142 0.23786 8.6625 0.79188c3.0585 0.85623 4.2264 4.0691 4.2264 4.0691z"/>
<path d="m349.22 147.34c-1.5456 0.6708-4.595 0.64754-3.5956 0.91956-4.6335-1.1189-8.4257-5.1173-8.4257-5.1173s6.7142 0.23786 8.6725 0.84202c3.0081 0.86636 3.3488 3.3557 3.3488 3.3557z"/>
<path d="m349.32 143.14c-1.2529 0.82174-3.4343 1.2009-4.5346 0.94885-4.6435-1.1692-8.4257-5.1173-8.4257-5.1173s6.7142 0.23786 8.6625 0.79187c3.0181 0.91636 4.2978 3.3766 4.2978 3.3766z"/>
<path d="m348.58 139.43c-0.71872 1.6552-2.505 0.86048-3.6458 0.6687-4.7046-0.68747-8.9316-4.2346-8.9316-4.2346s6.7453-0.39459 8.7038-0.0513c3.1598 0.57542 3.8735 3.6171 3.8735 3.6171z"/>
<path d="m348.58 139.43 2.3544-1.6134s2.3442-1.6636 4.8314-4.7121c2.5477-3.0083 2.5807-5.728 2.5807-5.728s-2.0198 0.39934-6.0332 5.0018-3.7332 7.0517-3.7332 7.0517z"/>
<path d="m348.16 135.5 2.2738-1.754s2.2132-1.7941 4.4581-5.0035c2.2954-3.2192 2.167-5.9593 2.167-5.9593s-2.0403 0.55993-5.6804 5.4538c-3.6401 4.894-3.2185 7.263-3.2185 7.263z"/>
<path d="m348.45 131.47 2.4963-2.2154s-0.56601 0.58151 1.7295-2.6377c2.2449-3.2094 2.6107-5.3165 2.6107-5.3165s-2.3095-2.622-5.9496 2.2719c-3.6503 4.8439-0.88684 7.8977-0.88684 7.8977z"/>
<path d="m348.16 135.5c-1.3032 0.57072-3.2822 0.64894-4.4129 0.5073-4.7046-0.68732-8.8811-4.2446-8.8811-4.2446s6.6849-0.4346 8.6534-0.0411c3.1497 0.52513 4.6406 3.7784 4.6406 3.7784z"/>
<path d="m347.71 131.67c-1.1322 1.163-3.5353 1.2207-4.656 1.1292-4.7452-0.36621-9.1846-3.6628-9.1846-3.6628s6.6549-0.84617 8.6944-0.62326c3.1196 0.37455 5.1462 3.1569 5.1462 3.1569z"/>
<path d="m347.04 128.36c-0.73842 1.2939-2.7279 1.5828-3.8486 1.4913-4.7452-0.36622-9.1745-3.6125-9.1745-3.6125s6.6449-0.89631 8.6842-0.67336c3.1196 0.37455 4.3389 2.7946 4.3389 2.7946z"/>
<path d="m346.7 126.39 2.5469-2.2254s-0.61646 0.59149 1.6789-2.6277c2.2449-3.2094 1.4957-10.888 1.4957-10.888s-1.1441 2.9394-4.8447 7.7932c-3.6401 4.8939-0.8768 7.9478-0.8768 7.9478z"/>
<path d="m345.52 120.47 2.5468-2.2254s-0.61645 0.59149 1.6789-2.6277c2.2449-3.2094 1.4957-10.888 1.4957-10.888s-1.1441 2.9394-4.8447 7.7932c-3.6401 4.8939-0.8768 7.9478-0.8768 7.9478z"/>
<path d="m344.11 115.27 2.5569-2.1752s-1.6168 1.1023 0.6888-2.0667c2.2449-3.2094 1.9898-10.255 1.9898-10.255s0.43416 0.0707-3.216 4.9144c-3.6401 4.894-2.0195 9.5826-2.0195 9.5826z"/>
<path d="m343.06 111.88 2.2945-2.4365s-1.425 1.2731 0.45673-2.1774c1.9422-3.4103 0.90962-10.407 0.90962-10.407s0.42397 0.02058-2.6713 5.2764c-3.0952 5.2559-0.98959 9.7443-0.98959 9.7443z"/>
<path d="m342.08 108.78 2.2947-2.4365s-1.4251 1.2731 0.46676-2.1272c1.9321-3.4604 0.9095-10.407 0.9095-10.407s0.42409 0.0204-2.6812 5.226c-3.0952 5.2559-0.98974 9.7444-0.98974 9.7444z"/>
<path d="m340.47 104.4 2.2945-2.4365s-1.4249 1.2732 0.45673-2.1774c1.9422-3.4103 0.90965-10.407 0.90965-10.407s0.434 0.07073-2.6713 5.2763c-3.0953 5.2558-0.98961 9.7442-0.98961 9.7442z"/>
<path d="m338.66 101.16 2.1634-2.567s-1.4049 1.3735 0.35566-2.1576c1.7607-3.531 0.38463-10.407 0.38463-10.407s0.46451-0.03971-2.3886 5.377c-2.8632 5.3666-0.51505 9.7548-0.51505 9.7548z"/>
<path d="m338.66 101.16 0.43754-3.3215s-0.40576 1.9064-0.82573-2.0282c-0.40995-3.8845-5.1793-10.142-5.1793-10.142s0.28185 0.88349 0.76008 6.946c0.47822 6.0625 4.8074 8.5459 4.8074 8.5459z"/>
<path d="m345.96 124.76c-1.0108 0.98253-2.0512 1.2925-3.1719 1.201-4.7452-0.36621-9.1845-3.6627-9.1845-3.6627s2.1424-1.6237 8.6438-0.61326c3.1903 0.46499 3.7126 3.075 3.7126 3.075z"/>
<path d="m343.92 116.14c-1.3142 1.5642-3.0003 1.2715-3.5858 1.2307-4.7454-0.36619-9.1745-3.6125-9.1745-3.6125s2.1322-1.6738 8.6842-0.67352c3.1397 0.47499 4.0761 3.0554 4.0761 3.0554z"/>
<path d="m344.72 120.16c-0.93069 1.645-2.7279 1.583-3.8486 1.4915-4.7958-0.35636-9.2251-3.6027-9.2251-3.6027s2.1323-1.6739 8.6844-0.6734c3.1397 0.47499 4.3893 2.7846 4.3893 2.7846z"/>
<path d="m343.87 112.5c-2.2115 0.22858-3.0394 0.28803-4.1401 0.29682-4.7659 0.0554-9.4884-2.8201-9.4884-2.8201s2.001-1.8043 8.594-1.3861c3.1905 0.20414 5.0344 3.9094 5.0344 3.9094z"/>
<path d="m341.32 108.67c-2.242 0.33887-3.07 0.39832-4.1605 0.4574-4.7661 0.31619-9.5999-2.3284-9.5999-2.3284s1.87-1.9351 8.5036-1.8378c3.1604 0.0534 5.2568 3.7088 5.2568 3.7088z"/>
<path d="m340.4 105.93c-2.1096-0.83519-2.8564-1.1572-3.8455-1.64-4.2688-2.1823-7.0505-6.9022-7.0505-6.9022s2.5956-0.66973 8.2162 2.7585c2.7447 1.6488 2.6798 5.7837 2.6798 5.7837z"/>
<g fill="none" stroke-width=".099">
<path d="m337.38 98.963s-4.0892-9.6794-3.9046-12.429"/>
<path d="m339.56 97.801s1.8981-9.4021 1.9704-10.877"/>
<path d="m340.32 103.44s4.2928-11.076 4.052-12.541"/>
<path d="m340.25 104.92s-8.4855-5.9403-9.9889-6.8953"/>
<path d="m341.32 108.67c-1.494-0.38289-6.1371-1.8129-7.0461-1.6332"/>
<path d="m342.55 111.92c-1.5545-0.42305-5.4606-1.8422-7.5813-1.423"/>
<path d="m343.92 116.14c-1.7662-0.69441-7.4398-1.7642-8.3384-1.7952"/>
<path d="m342.28 107.96c-0.14063-0.70274 3.2128-11.488 3.2128-11.488"/>
<path d="m343.07 110.88s3.5754-10.464 3.4054-12.1"/>
<path d="m344.2 114.68c0.0723-1.4754 4.5946-9.8309 4.8193-12.38"/>
<path d="m345.36 119.67c0.0615-0.7427 5.2801-8.7663 5.4258-13.022"/>
<path d="m346.61 125.94c0.46594-1.3444 1.5391-4.1133 2.2581-6.0294 0.70887-1.9665 3.5614-6.8612 3.4419-8.5073"/>
<path d="m344.72 120.16c-1.736-0.544-9.207-1.415-12.397-1.88"/>
<path d="m345.51 124.9c-2.16-0.82522-10.165-2.5297-11.407-2.4407"/>
<path d="m347.04 128.36c-2.2207-0.60455-10.064-2.2887-12.054-2.2608"/>
<path d="m347.71 131.67c-2.3825-0.36392-12.771-1.9101-13.306-2.2219"/>
<path d="m348.55 130.1s3.0967-6.5606 6.0976-8.6149"/>
<path d="m348.84 134.21c0.8495-1.2637 7.8651-8.9643 8.0184-10.821"/>
<path d="m347.38 135.02c-1.403-0.453-9.7518-2.0375-11.75-3.1034"/>
<path d="m348.58 139.43c-2.3014-0.74513-9.408-2.4185-11.568-3.2437"/>
<path d="m349.09 138.34c0.24308-0.62208 7.5719-8.5933 8.8763-10.469"/>
<path d="m349.7 144.01c0.96-0.71153 8.108-9.5862 10.099-11.441"/>
<path d="m350.59 149.47c0.8495-1.2637 7.139-9.9687 10.079-11.802"/>
<path d="m348.92 142.7c-1.4733-0.80446-7.4903-1.7542-11.396-3.1732"/>
<path d="m349.22 147.34c-2.3416-0.94585-8.267-2.4876-10.821-3.4438"/>
<path d="m349.46 152.77c-2.0888-1.2566-7.7221-2.1257-12.031-4.5087"/>
<path d="m350.84 153.38c0.74906-1.7656 10.159-10.357 11.867-11.79"/>
<path d="m351.21 157.85c1.3142-1.5644 10.917-11.029 12.453-12.272"/>
<path d="m350.36 163.81c1.4561-1.9054 11.331-11.841 13.685-12.672"/>
<path d="m349.75 159.18c-1.8263-1.2564-9.8497-4.8878-11.231-6.2844"/>
<path d="m349.24 163.46c-1.4634-0.75428-7.3568-3.9721-10.07-6.514"/>
<path d="m350.01 167.32c0.86039-1.9962 11.098-10.908 14.068-12.591"/>
<path d="m349.91 169.69c1.4247-1.0122 11.369-8.7699 14.449-9.9009"/>
<path d="m348.61 166.87c-1.6043-0.93509-8.3254-4.3544-10.475-5.9124"/>
<path d="m348.82 174.24c4.4441-1.4004 5.355-3.4066 7.7398-5.1304 2.3847-1.7238 7.3155-4.8902 7.8813-5.2107"/>
<path d="m348.03 176.58c1.7168-0.33944 6.1402-1.0575 8.06-2.4805 1.9099-1.4734 7.6772-3.0832 8.9398-3.5938"/>
<path d="m346.86 181.72c3.2732-1.7429 3.9694-1.15 6.606-2.4018 2.6873-1.2617 9.636-3.0009 10.848-3.2405"/>
<path d="m345.82 185.74c1.7674-0.34945 4.3121-0.4872 6.1906-1.0674 1.8888-0.52998 8.3523-1.8079 10.19-1.8059"/>
<path d="m348.02 170.22c-1.2312-0.64366-9.6183-4.2554-11.031-5.0196"/>
<path d="m347.9 174.06c-3.7145-1.2483-9.2245-4.1245-11.303-5.331"/>
<path d="m347.18 177.85c-1.5635-1.517-8.7495-4.6358-11.495-5.5018"/>
<path d="m345.48 180.33c-1.8064-0.89513-9.1944-3.974-11.536-4.9198"/>
<path d="m345.12 184.05c-1.8466-1.0958-9.2544-4.536-12.04-5.6028"/>
<path d="m343.36 187.84c-1.7654-1.4772-4.9047-2.4741-11.627-5.1106"/>
<path d="m341.29 192.22c-2.2604-1.3271-8.9112-4.3951-11.646-5.4718"/>
<path d="m344.38 189.26c1.3634-0.26956 4.3318-0.12589 8.0992-1.2361 3.818-1.1201 7.5834-0.40359 9.7344-0.67234"/>
<path d="m343.04 192.81c2.8277-0.55908 6.059-0.67622 8.5735-0.96471 2.5044-0.33862 8.1888-1e-3 9.5216 0.10029"/>
<path d="m341.67 195.95c3.0195-0.38834 7.1186-0.10304 9.5726-0.43169 2.5044-0.33862 6.9468 0.0875 9.168 0.1702"/>
<path d="m340.1 199.91c2.5448-0.13793 15.478 0.74871 18.658 1.1636"/>
<path d="m326.65 190.93c0.99913 0.53301 6.4597 2.3753 9.1048 2.7394 2.6551 0.41426 4.36 1.8512 4.36 1.8512"/>
<path d="m325.62 194.95c1.8778 0.20275 9.8117 2.5996 11.607 4.2275"/>
<path d="m336.26 203.54c-1.9279-0.71457-6.7008-3.5799-6.7008-3.5799"/>
<path d="m334.61 206.06s-5.5201-2.9262-6.7111-3.3692"/>
<path d="m331.63 209.52c-0.59449-1.1348-4.6906-4.2904-5.5081-4.7026"/>
<path d="m330.05 212.38c-1.2714-0.84438-4.9329-4.4512-6.0325-5.486"/>
<path d="m328.21 214.21c-1.1709-0.34251-4.8626-4.0999-5.9319-4.9842"/>
<path d="m325.98 215.9c-0.52419-0.78344-4.5991-4.8825-5.6084-5.2047"/>
<path d="m324.72 218.5c-1.1199-0.87433-5.4991-3.6086-5.953-4.0408"/>
<path d="m322.29 220.29c-0.7972-0.57294-2.9755-3.0642-5.035-3.3875"/>
<path d="m321.53 222.78c-1.6248-0.77435-5.1072-1.9121-6.1146-4.061"/>
<path d="m318.23 225.42c-0.87777-0.71354-3.127-3.0342-3.4594-3.6467"/>
<path d="m317.11 226.16c-1.4229-0.81443-2.1299-0.67464-3.3912-1.4687"/>
<path d="m319.46 226.06c0.57522 0.25147 4.0767 2.2724 5.6314 2.6956"/>
<path d="m321.98 223.22c0.49403 0.63272 5.772 3.3983 6.3577 3.4391"/>
<line x1="324.37" x2="330.8" y1="221.49" y2="225.28"/>
<line x1="326.05" x2="333.86" y1="219.91" y2="224.31"/>
<line x1="327.97" x2="333.89" y1="217.7" y2="221.59"/>
<path d="m329.4 216.48c0.84764 0.56296 6.8726 3.3894 8.2955 4.2038"/>
<path d="m330.12 214.56c1.3827 0.61371 8.8518 3.3111 10.194 4.5068"/>
<path d="m332.04 212.36c1.1609 0.29222 3.866 1.2183 5.8442 1.923 1.9784 0.7046 5.5912 2.4949 5.5912 2.4949"/>
<path d="m333.33 210.64c0.8987 0.0311 10.942 2.7412 13.072 3.4159"/>
<path d="m335.97 206.52c1.4229 0.81443 3.0267 2.2713 7.1457 2.9179 4.119 0.64657 7.4499 1.8143 7.4499 1.8143"/>
<path d="m337.49 203.14c1.3827 0.61371 4.2788 2.2326 6.0961 2.395 1.8779 0.20272 9.4896 1.7762 9.4896 1.7762"/>
</g>
</g>
<g fill="#386425" stroke="#1f1a17" stroke-width=".2311">
<path d="m262.11 100.78c-2.2404 3.8737-14.225 34.738-12.306 59.665 1.9084 24.978 9.0601 40.226 43.123 73.173 11.264 10.912 28.056 25.05 29.045 27.43 0 0 1.1269-0.14121 2.5364 0.13746 0 0-26.364-24.352-32.53-29.888-6.1553-5.5858-39.95-32.811-41.117-70.644-1.177-37.783 11.25-59.874 11.25-59.874z"/>
<path d="m265.55 202.56c3.7754 1.2665-9.6712-8.9334-19.672-6.0219 0 0-1.4654 3.6629 5.5306 5.0462 6.9963 1.3833 8.5438-0.85917 14.142 0.97578z"/>
<path d="m287.05 230.32c0.5756 1.8301 4.9151-6.2575 2.6451-11.387 0 0-5.2909 2.9066-2.6451 11.387z"/>
<path d="m283.08 224.8c0.5854 1.52 4.2823-4.9264 3.1376-12.018 0 0-5.9936 4.588-3.1376 12.018z"/>
<path d="m280.93 222.98s1.7558-5.1138 1.5318-7.6546c-0.21415-2.5907-0.86253-6.6716-2.1337-9.4713 0 0 2e-3 1.8206-0.55864 4.6224-0.55064 2.7516-3.1433 6.5557 1.1605 12.504z"/>
<path d="m277.19 217.87c1.0686 1.7196-0.85167-5.9414-0.18964-7.9428 1.0532-3.4324 0.19447-6.4626-1.9933-10.172 0 0-1.8998 2.1728-1.1814 5.9035 0.70845 3.7807-2.1101 3.2234 3.3644 12.211z"/>
<path d="m272.44 212.61c0.9371 1.0693 1.1113-5.5533-1.0963-8.9022 0 0-3.6597 3.6451 1.0963 8.9022z"/>
<path d="m270.58 211.15c0.77646 1.3496 0.82911-5.9731 1.0275-8.7944 0.20839-2.8714 0.20839-2.8714-0.28796-5.8819-0.50632-2.9607-1.1428-5.2708-1.1428-5.2708s-1.8279 3.6432-1.8861 5.7642c-0.0682 2.1708-2.8927 5.5651 2.2894 14.183z"/>
<path d="m266.76 204.62c-0.35432-1.8903-0.386-3.3008 0.19635-4.642 0.63276-1.3311 0.73922-5.2627-0.31963-7.2924-1.0589-2.0296-1.6372-6.4607-1.6372-6.4607s-0.82911 5.9731-1.5318 7.6546c-0.69282 1.6313-1.4656 3.6629 1.3668 7.8116 2.7722 4.1887 1.9254 2.9291 1.9254 2.9291z"/>
<path d="m261.44 198.53c-0.7264-1.5998-0.87028-4.5409 1.3216-6.604 2.2521-2.1031 4.7729-7.3776 3.8421-11.878 0 0-1.6076 2.5426-2.945 3.7346-1.2869 1.2018-2.342 2.8134-2.6105 5.9849-0.27831 3.2216 0.39175 8.7629 0.39175 8.7629z"/>
<path d="m258.74 193.99c1.6535 2.7193-1.7754-3.9397-0.15778-6.5324 1.6076-2.5426 5.5712-4.3074 5.7694-7.1286 0.25868-2.8614 0.10476-5.7523 0.10476-5.7523s-2.6646 2.3336-3.7898 4.2956c-1.1151 1.912-3.8796 5.006-3.7159 7.5868 0.22415 2.5408-0.97303 3.0323 1.7894 7.5311z"/>
<path d="m255.1 185c-2e-3 -1.8206 1.0412-5.203 3.3851-6.1958 2.3944-0.98297 4.2942-3.1558 4.6346-4.8567 0.35043-1.7511 0.61701-6.7432 0.61701-6.7432s-1.3273 1.1418-2.6646 2.3336c-1.3374 1.192-3.8916 3.2354-4.9366 4.797-1.0551 1.6118-1.4055 3.3627-1.3334 4.8332 0.082 1.4205 0.29796 5.832 0.29796 5.832z"/>
<path d="m252.9 177.7c0.35043-1.7511 3.2372-3.3647 3.2372-3.3647l1.0412-5.203s-2.3242 0.63266-3.3794 2.2443c-1.045 1.5617-0.89906 6.3235-0.89906 6.3235z"/>
<path d="m252.1 174.63c0.0581-2.121 0.69082-3.4521 2.4002-4.9343 1.7597-1.4725 4.3661-1.6852 5.2711-2.5465 0.86453-0.92127 1.8496-2.1827 2.8365-1.6236 0 0 0.27832-3.2216-2.7703-2.3681-3.0989 0.84367-6.7102 2.6781-7.2608 5.4297-0.56068 2.8017-0.47668 6.0428-0.47668 6.0428z"/>
<path d="m250.96 169.36c0.77278-2.0316 0.49058-2.4514 2.2402-3.8738 1.7094-1.4824 4.3159-1.6953 6.3459-4.5184 2.0402-2.8732 3.2234-6.956 3.2234-6.956s-3.6516 1.7745-5.201 2.1962c-1.5495 0.42183-2.7664 1.2734-4.314 3.5158-1.5376 2.1924-2.2946 9.636-2.2946 9.636z"/>
<path d="m249.81 160.44s6.2077-1.9973 7.0487-6.1996c0 0-5.1745-1.3351-7.0487 6.1996z"/>
<path d="m249.72 157.2c0.98488-1.2615 4.8467-4.0866 7.9654-5.2902 3.1691-1.1938 5.8317-5.348 6.3223-7.7996 0 0-3.8831 1.6248-7.1325 2.9586-5.5533 2.1267-7.1552 10.131-7.1552 10.131z"/>
<path d="m249.76 151.8c0.85027 4.6408 5.287-6.548 5.287-6.548s-6.3497 0.87685-5.287 6.548z"/>
<path d="m250.32 147.18c2.7564-1.2233 5.1507-2.2061 7.4748-2.8388 2.274-0.64261 6.1358-3.4677 6.9786-5.8495 0 0-5.4448 0.0157-7.4868 1.0682-2.0419 1.0525-6.9666 7.6201-6.9666 7.6201z"/>
<path d="m251.08 141.56c1.045-1.5617 3.6712-2.1346 5.2206-2.5563 1.5494-0.42183 7.4887 0.75244 8.4738-0.50901 0 0-2.256-1.5382-5.3767-2.1553-3.1708-0.62691-5.8475-0.0639-6.4298 1.2771-0.63261 1.3311-1.8878 3.9434-1.8878 3.9434z"/>
<path d="m251.56 137.34s-2e-3 -1.8208 3.399-2.6046c3.4413-0.72386 5.9739-4.2277 6.4545-6.6292 0.49057-2.4514-0.28422-2.2406-0.14219-1.1203 0.14219 1.1203-3.5213 1.1242-5.7635 3.1772-2.2019 2.1132-3.9478 7.1769-3.9478 7.1769z"/>
<path d="m252.46 132.83s1.1113-5.5532 3.5955-7.2464c2.5345-1.6833 6.1859-3.4578 8.7421-3.6806 2.6064-0.2127 2.6064-0.2127 3.099-0.84349 0.49245-0.63082-2.1822 1.7529-3.1571 2.9644-0.98504 1.2614-5.147 5.8474-7.1188 6.5498-1.972 0.70231-5.1607 2.2562-5.1607 2.2562z"/>
<path d="m254.06 124.83c-1.4466 2.5225 0.97114-4.8528 3.6675-5.776 2.7466-0.91317 4.2241-2.8054 4.2241-2.8054s2.7564-1.2233 4.3759-1.9953c0 0-1.7597 1.4723-2.4524 3.1038-0.6524 1.6912-3.0449 4.4948-4.6544 5.2168-1.6195 0.772-4.0355 0.29432-5.1607 2.2561z"/>
<path d="m255.73 118.29c1.8494-2.1828 5.1606-2.2563 6.558-3.7483 1.4074-1.5421 4.0919-4.2358 6.202-7.4592 0 0-5.9354 2.4671-7.1926 3.2586-1.2672 0.84164-3.3291 2.2544-3.6094 3.6552-0.27032 1.3508-1.9579 4.2937-1.9579 4.2937z"/>
<path d="m259.01 107.4c3.1188-1.2036 5.5851-0.71597 7.2945-2.1984 1.7497-1.4223 5.3373-6.538 5.3373-6.538s-2.5345 1.6833-5.2308 2.6064c-2.7466 0.91332-4.4963 2.3356-4.4963 2.3356l-2.9047 3.7943z"/>
<path d="m262.11 100.78s-0.49632-3.0107 1.0412-5.2032c1.5476-2.2424 3.6477-5.4159 7.6813-7.5308 0 0-1.0955 10.965-8.7226 12.734z"/>
<path d="m258.38 108.73c0.2084-2.8714 2.3283-6.4049 1.3898-8.7748-0.98878-2.3799-3.1167-6.3891-3.1167-6.3891s-0.68893 5.2727-0.89714 8.1439c-0.1984 2.8214 2.624 7.02 2.624 7.02z"/>
<path d="m256.78 114.91c0.13829-2.5211 0.69896-5.3228-0.58218-8.0725-1.2711-2.7997-5.2503-6.4469-5.2503-6.4469s-0.62074 3.1019 1.2968 8.1617c1.8572 5.1 4.5357 6.3578 4.5357 6.3578z"/>
<path d="m254.89 120.68s2.4121-3.1637-0.43999-6.9522c0 0-2.8048 3.0341 0.43999 6.9522z"/>
<path d="m254.06 124.83s-0.59595-11.664-6.3268-15.709c0 0-2.0263 6.4645 0.0915 10.524 2.0776 3.9994 6.2354 5.1855 6.2354 5.1855z"/>
<path d="m253.08 127.86s-1.4256-6.2109-9.2315-11.915c-4.7944-3.4963-0.83343 1.8115-0.10661 3.9316 1.4132 3.92 4.668 7.788 6.6616 8.5464 2.0439 0.76812 2.6765-0.56301 2.6765-0.56301z"/>
<path d="m251.56 137.34s-2.256-1.5382-2.4101-4.4292c-0.14388-2.941 0.76904-5.673 0.76904-5.673s1.2691 0.97895 1.9056 3.2892-0.26457 6.8129-0.26457 6.8129z"/>
<path d="m250.93 140.44s0.19648-4.6418-1.7894-7.5309c-1.9253-2.9291-6.5795-7.1259-6.5795-7.1259s1.131 3.5002 2.554 7.37c1.4131 3.9202 5.8149 7.2867 5.8149 7.2867z"/>
<path d="m250.16 144.29s0.77092-3.8524-2.0597-6.1803c0 0-4.0235 2.065 2.0597 6.1803z"/>
<path d="m250.32 147.18s-0.57831-4.431-3.6811-7.2289c-3.0625-2.7379-8.6514-5.6632-8.6514-5.6632s1.8672 5.0499 3.8429 7.989c1.9857 2.8889 8.4895 4.903 8.4895 4.903z"/>
<path d="m249.21 154.55c0.59068-2.9517 1.4172-1.8521-3.1167-6.3891-4.5437-4.487-9.1457-6.8531-9.1457-6.8531s1.585 4.6301 4.5476 8.1282c2.9223 3.4384 2.4278 2.2484 4.1914 4.4174 1.7636 2.1691 2.9626 3.4983 3.5233 0.6966z"/>
<path d="m249.49 153.15c1.0778 0.88918 0.5469-6.3929-1.2968-8.1617 0 0-3.7898 4.2956 1.2968 8.1617z"/>
<path d="m249.95 163.39s0.13829-2.5211-2.572-5.1892c-2.7505-2.7282-6.2973-6.706-6.2973-6.706s0.65228 7.7222 2.7178 9.951c2.1159 2.2386 6.1514 1.9442 6.1514 1.9442z"/>
<path d="m250.88 167.89s-2.4101-4.4292-5.1804-6.7973c-2.8204-2.3779-10.835-5.7309-10.835-5.7309s3.7009 6.8688 6.9035 8.9062c3.243 2.0974 9.1121 3.622 9.1121 3.622z"/>
<path d="m250.74 170.41s-3.841-6.1683-5.955-6.5863c-2.114-0.41796-8.2515 1.229-8.2515 1.229s2.328 3.0087 6.1532 3.765c3.8756 0.76625 8.0532 1.5922 8.0532 1.5922z"/>
<path d="m251.1 172.3s-4.5803-0.90558-7.6308-1.8727c-3.1009-0.97711-11.677-1.7886-9.6628-0.87023 1.3392 0.62879 6.0132 4.4655 8.8318 5.0228 2.8186 0.55727 8.826-0.43937 8.4617-2.2798z"/>
<path d="m251.1 172.3c3.2925 1.3272-5.5206-5.0961-7.7748-4.8136-2.254 0.28238-8.1775 4.5202-8.374 9.1621 0 0 9.0806-7.2022 16.149-4.3485z"/>
<path d="m252.9 177.7s-4.0375-1.5265-8.7776-1.3714c-4.7905 0.14505-7.5469 1.3683-10.784 4.7329 0 0 13.989-0.87486 16.667 0.38288 2.6281 1.2478 2.9785-0.5033 2.9785-0.5033l-0.0838-3.2411z"/>
<path d="m252.98 180.94c-4.3196-1.9462-6.9963-1.3833-10.325 0.87099-3.3692 2.1945-10.453 13.536-7.3852 11.542 1.217-0.85159 5.5011-3.9572 8.1974-4.8803 2.7466-0.91317 6.7803-3.0282 7.4029-4.3094 0.6326-1.3311 2.1101-3.2234 2.1101-3.2234z"/>
<path d="m254.48 186.28c-2.7585-0.85745-4.3997-1.546-7.699 0.29819-3.3091 1.8941-6.6401 2.3278-8.7244 10.913 0 0 6.1337-5.2884 9.5851-6.0623 3.3909-0.73383 9.1161-2.1503 9.1161-2.1503l-2.2778-2.9988z"/>
<path d="m258.74 193.99s-1.9195-6.8807-9.052-3.9222c-7.1225 2.9084-10.564 13.046-10.564 13.046s8.1993-3.0597 10.299-6.233c2.1101-3.2234 9.3166-2.8908 9.3166-2.8908z"/>
<path d="m267.19 206.16c-2.2057-1.5283-4.7421-1.6656-7.701-1.5226-2.9084 0.15314-7.1206 4.7292-7.8095 10.002 0 0 5.9756-2.4072 7.543-5.0099 1.6176-2.5926 4.3524-5.2765 7.9674-3.4696z"/>
<path d="m270.58 211.15c3.2222 1.4172-3.8073-2.9372-7.0682-2.8538-3.3112 0.0735-10.093 1.281-11.839 6.3449 0 0-0.0701 0.35016 3.311-0.0736 3.331-0.43362 4.3179 0.12552 8.3217-1.5792 3.9636-1.7649 2.5523-3.8642 7.2746-1.8383z"/>
<path d="m276.18 215.9c-3.313-1.7472-1.4113-2.0994-7.1383-2.5035-5.7272-0.40416-10.013 0.88068-12.708 3.6246 0 0 2.2037-0.29247 5.0925-0.0853 2.8383 0.19717 6.2915 1.2439 9.058-0.0295 2.8067-1.2134 5.6954-1.0062 5.6954-1.0062z"/>
<path d="m280.3 220.67c-5.6589-2.5751-12.161-2.7684-15.951 1.5272 0 0 3.3812-0.42368 5.4448-0.0157 2.114 0.41796 5.5169 1.4548 7.4789 0.80244 1.9718-0.70234 3.0269-2.314 3.0269-2.314z"/>
<path d="m286.67 226.97c2.4873 1.428-8.283-9.5951-14.341 0.80518 0 0 0.56454 0.8398 2.0637 0.40802 1.5494-0.42183 2.5364 0.13746 4.6485-1.2653 2.112-1.4027 4.6681-1.6255 7.6289 0.0521z"/>
<path d="m259.52 193.78s-8.0475 3.8699-10.43 6.6233c-2.3923 2.8036-3.5036 8.3569-3.5036 8.3569s3.9438-1.4047 6.6785-4.0884c2.6943-2.7439 7.2551-10.892 7.2551-10.892z"/>
<path d="m259.52 193.78s-8.386 7.3916-8.9328 13.785c-0.5469 6.3929-1.4638 5.4836-1.4638 5.4836s1.6898-1.1223 3.9517-3.5355c2.3222-2.4533 7.1251-9.9812 7.1933-12.152 0.0582-2.1208-0.74849-3.5806-0.74849-3.5806z"/>
<g fill="none" stroke-width=".099">
<path d="m287.05 230.32s1.5101-9.1151 2.6451-11.387"/>
<path d="m283.08 224.8s1.3798-8.7247 2.8765-11.497"/>
<path d="m285.4 225.99s-6.5749-2.7042-12.599 2.0339"/>
<path d="m280 221.13s-11.575-0.98838-14.603 0.54543"/>
<path d="m280.93 222.98s0.0766-13.195-0.17746-15.586"/>
<path d="m276.96 216.42s-1.6762-5.2202-1.3258-6.9712c0.35043-1.7511-0.48206-8.5728-0.48206-8.5728"/>
<path d="m272.32 211.34s-0.55804-4.2711-0.66122-6.632"/>
<path d="m274.8 215.42s-12.501-0.80738-16.937 0.96793"/>
<path d="m268.92 210.3s-3.9057-0.61619-13.202 2.4346"/>
<path d="m264.88 205.14c-1.8318 2e-3 -7.0136 1.3178-9.1537 4.6912"/>
<path d="m264.13 201.56c-0.87596-0.32922-3.6743-0.72645-4.7012-1.0855"/>
<path d="m270.16 208.57s-1.2665-8.0518 0.0941-15.896"/>
<path d="m265.96 201.56c-0.18207-0.92021-1.2687-10.133-1.0603-13.004"/>
<path d="m259.12 195.73c-0.47176 1.311-5.9561 11.46-8.6998 15.235"/>
<path d="m258.18 194.97c-1.6896 1.1222-8.6772 8.0621-12.596 13.788"/>
<path d="m261.41 193.48c0.47139-1.5712 3.9351-9.7278 4.8488-11.679"/>
<path d="m257.6 190.54c-0.22311-1.5003 0.37657-5.5426 3.6037-8.8572 3.2272-3.3146 3.0832-6.2555 3.0832-6.2555"/>
<path d="m257.81 193.13c-1.3392-0.62879-6.1113-2.1445-9.3894 0.64004-3.278 2.7845-7.4292 8.1008-8.6664 8.7924"/>
<path d="m255.93 188.96c-1.3692-0.4787-3.5642-1.2767-6.2407-0.71367-2.6262 0.5728-9.6468 4.8018-11.042 8.1145"/>
<path d="m252.41 181.19c-1.6304 0.0418-6.7842-0.61313-17.137 12.162"/>
<path d="m255.35 182.71c0.35039-1.751 3.0685-10.627 7.6138-14.253"/>
<path d="m253.18 176.3c0.17018-0.8504 1.4636-5.4835 3.2641-6.3757"/>
<path d="m253.15 180.09c-1.3392-0.62879-9.123-4.3522-17.693 0.29849"/>
<path d="m251.1 172.3c-1.8508 0.88229-5.1418 1.1158-7.5488-0.45226"/>
<path d="m250.43 171.96c-1.1379-0.58899-7.8958-4.9937-14.469 3.2763"/>
<path d="m250.15 169.72c-1.9838-1.0683-5.7409-3.9955-12.595-4.2585"/>
<path d="m250.25 167.4c-1.9847-1.8486-12.792-9.5503-14.747-11.549"/>
<path d="m252.34 171.61c0.35043-1.7511 6.9347-9.2908 10.27-6.083"/>
<path d="m262.66 154.51s-6.7185 4.2887-7.8534 6.5607c-1.1953 2.3121-4.0001 5.3462-3.928 6.8166"/>
<path d="m249.95 163.39c-2.1248-1.1481-7.012-6.7952-8.2638-10.475"/>
<path d="m249.81 160.44c1.1853-2.2621 5.6304-5.3878 7.0487-6.1996"/>
<path d="m250.14 156.19c1.0851-1.7617 8.3548-8.2818 12.891-10.817"/>
<path d="m249.21 154.55c-1.048-1.2994-6.7579-4.4046-11.346-12.333"/>
<path d="m249.77 152.53c-0.0108-0.73033-1.5642-3.9499-1.496-6.1208"/>
<path d="m250.38 152.08c0.41169-1.0108 2.843-5.0549 4.1002-5.8464"/>
<path d="m251.8 146.07c2.1821-1.753 7.8042-5.5302 12.241-6.7852"/>
<path d="m252.27 140.02c1.5284-1.362 2.3524-2.6034 3.9527-2.4951 1.5903 0.1584 6.5827 0.57346 7.8009 1.0223"/>
<path d="m249.86 146.57c-1.0378-1.0894-9.2789-9.0638-10.841-11.193"/>
<path d="m250.17 143.2c-0.56453-0.8398-1.6724-1.5789-1.615-4.4801"/>
<path d="m250.75 139.52c-1.0588-2.0297-5.4344-9.1879-7.3801-12.277"/>
<path d="m251.09 135.99c-0.80671-1.4597-0.26689-4.9416-0.68231-7.5721"/>
<path d="m252.68 135.37c1.2468-1.0017 6.4568-4.2883 7.1595-5.9698"/>
<path d="m252.95 132.2c0.95488-1.1115 6.1826-6.579 13.023-9.9074"/>
<path d="m252.49 127.95c-1.1888-1.1191-3.3639-2.2773-5.4606-5.3963-2.0866-3.1691-4.4657-6.7079-5.1402-6.9973"/>
<path d="m248.14 109.93c0.37396 1.5301 1.5149 4.9804 1.8692 6.8706 0.35414 1.8904 1.8074 5.6103 3.5907 7.4192"/>
<path d="m254.65 123.7c0.7836-1.3013 2.1017-1.6127 3.8214-2.8851 1.7196-1.2722 2.5034-2.5735 3.3782-3.2848 0.88493-0.7612 1.4074-1.542 3.1379-2.084"/>
<path d="m254.45 113.72c-0.18943 1.731-0.44868 4.0721 0.87131 5.5813"/>
<path d="m257.07 117.1c1.1661-1.3818 2.6035-3.0739 4.2428-4.206 1.6896-1.1223 6.9188-5.2893 6.9188-5.2893"/>
<path d="m257.14 113.89c-1.2099-2.0594-5.7595-12.009-6.1938-13.499"/>
<path d="m256.71 94.303c0.39436 1.6902 0.9816 5.031 1.2046 6.5312 0.2734 1.5103 0.24722 5.3019 0.44014 6.9523"/>
<path d="m260.2 106.69c1.4585-0.75187 3.6215-1.6244 5.1099-2.7865 1.4783-1.1118 6.335-5.2486 6.335-5.2486"/>
<path d="m262.58 100.3c0.4716-1.311 6.1402-8.7197 7.7375-11.472"/>
</g>
<g fill="#99ae6a">
<path d="m257.1 113.26c0.50328 0.0995 1.0464-0.2612 1.1565-0.81143 0.10014-0.5004-0.26275-1.0402-0.76603-1.1397-0.55371-0.10948-1.0968 0.25122-1.197 0.75162-0.11011 0.55023 0.25278 1.0901 0.8065 1.1995z"/>
<path d="m255.99 114.13c0.55372 0.10948 1.0968-0.25123 1.207-0.80161 0.11011-0.55022-0.26278-1.0401-0.8165-1.1496-0.55371-0.10948-1.0364 0.21122-1.1465 0.76144-0.11014 0.55038 0.20231 1.0802 0.75603 1.1897z"/>
<path d="m257.33 114.76c0.55371 0.10948 1.0968-0.25122 1.2069-0.80145 0.11014-0.55038-0.26276-1.0402-0.81647-1.1497-0.55356-0.10945-1.0867 0.20128-1.1968 0.75166-0.11011 0.55022 0.25278 1.0901 0.80635 1.1995z"/>
<path d="m256.16 116.14c0.55357 0.10944 1.0464-0.2612 1.1565-0.81158 0.10011-0.50025-0.2125-1.0301-0.76606-1.1396-0.55372-0.10948-1.0968 0.25123-1.1969 0.75148-0.11014 0.55038 0.25275 1.0902 0.80646 1.1997z"/>
<path d="m252.67 126.27c0.55372 0.10948 1.0868-0.2011 1.1969-0.75148s-0.25275-1.0902-0.80646-1.1997c-0.55357-0.10944-1.0967 0.25126-1.2068 0.80164s0.26278 1.0401 0.81634 1.1495z"/>
<path d="m254.25 127.52c0.50328 0.0995 1.0464-0.2612 1.1565-0.81143 0.11014-0.55037-0.26276-1.0402-0.76604-1.1397-0.55371-0.10948-1.0868 0.20124-1.197 0.75162-0.11011 0.55023 0.25278 1.0901 0.8065 1.1995z"/>
<path d="m252.49 127.95c0.55371 0.10948 1.0968-0.25123 1.2069-0.80146 0.11014-0.55037-0.26275-1.0402-0.81647-1.1497-0.50328-0.0995-1.0364 0.21122-1.1465 0.7616-0.11011 0.55023 0.25278 1.0901 0.75606 1.1896z"/>
<path d="m253.61 128.9c0.55357 0.10945 1.0464-0.2612 1.1565-0.81158 0.11011-0.55023-0.2125-1.0301-0.76606-1.1396-0.55372-0.10947-1.0868 0.20125-1.1969 0.75148-0.11014 0.55038 0.25275 1.0902 0.80646 1.1997z"/>
<path d="m251.96 129.82c0.55371 0.10948 1.0968-0.25123 1.207-0.8016 0.10011-0.50025-0.26278-1.0401-0.8165-1.1496-0.55356-0.10945-1.0967 0.25125-1.1968 0.7515-0.11014 0.55038 0.25275 1.0902 0.80632 1.1997z"/>
<path d="m252.16 136.93c0.55356 0.10944 1.0967-0.25126 1.2068-0.80164s-0.25275-1.0902-0.80631-1.1997c-0.55372-0.10948-1.0968 0.25123-1.207 0.80161-0.11014 0.55038 0.25276 1.0902 0.80647 1.1997z"/>
<path d="m251.03 138.12c0.55371 0.10948 1.0364-0.21122 1.1465-0.7616 0.11011-0.55023-0.20235-1.0801-0.75606-1.1896-0.55372-0.10948-1.0968 0.25123-1.2069 0.80146-0.11014 0.55038 0.26275 1.0402 0.81647 1.1497z"/>
<path d="m250.53 145.09c0.55357 0.10945 1.0967-0.25126 1.2068-0.80149 0.11014-0.55038-0.25275-1.0902-0.80631-1.1997-0.55372-0.10947-1.0968 0.25123-1.207 0.80161-0.11011 0.55023 0.25278 1.0901 0.80649 1.1995z"/>
<path d="m251.8 146.07c0.55357 0.10945 1.0967-0.25126 1.2068-0.80164 0.11011-0.55022-0.25278-1.0901-0.80634-1.1995-0.55372-0.10948-1.0968 0.25122-1.2069 0.80145-0.11014 0.55038 0.25275 1.0902 0.80646 1.1997z"/>
<path d="m249.86 146.57c0.55372 0.10947 1.0968-0.25123 1.207-0.80161s-0.26278-1.0401-0.8165-1.1496c-0.55356-0.10945-1.0364 0.21107-1.1465 0.76145s0.20247 1.0803 0.75603 1.1897z"/>
<path d="m250.82 147.28c0.55371 0.10947 1.0868-0.20125 1.1969-0.75148 0.11014-0.55038-0.25275-1.0902-0.80647-1.1997-0.55356-0.10945-1.0967 0.25126-1.2068 0.80164-0.11011 0.55023 0.26279 1.0401 0.81635 1.1495z"/>
<path d="m251.54 156.47c0.50344 0.0995 1.0465-0.26116 1.1566-0.81139 0.10011-0.50025-0.26278-1.0401-0.76621-1.1396-0.55357-0.10945-1.0967 0.25126-1.1968 0.75151-0.11011 0.55022 0.25278 1.0901 0.80634 1.1995z"/>
<path d="m248.83 156.46c0.50328 0.0995 1.0364-0.21122 1.1465-0.7616 0.11011-0.55022-0.25278-1.0901-0.75607-1.1896-0.55356-0.10945-1.0967 0.25126-1.2068 0.80148-0.11014 0.55038 0.26275 1.0402 0.81631 1.1497z"/>
<path d="m251.11 161.27c0.55356 0.10945 1.0966-0.25111 1.2068-0.80148 0.11014-0.55038-0.25275-1.0902-0.80631-1.1997-0.55372-0.10948-1.0968 0.25122-1.207 0.8016s0.25278 1.0901 0.8065 1.1995z"/>
<path d="m251.23 163.28c0.55371 0.10948 1.0968-0.25122 1.207-0.8016 0.11011-0.55023-0.26278-1.0401-0.8165-1.1496-0.50328-0.0995-1.0364 0.21122-1.1465 0.76144-0.11014 0.55038 0.25275 1.0902 0.75603 1.1897z"/>
<path d="m250.22 164.9c0.50328 0.0995 1.0464-0.2612 1.1565-0.81158s-0.25275-1.0902-0.75603-1.1897c-0.55372-0.10947-1.0968 0.25123-1.207 0.80161s0.25275 1.0902 0.80646 1.1997z"/>
<path d="m249.88 166.6c0.50328 0.0995 1.0364-0.21122 1.1465-0.76145 0.11014-0.55038-0.25275-1.0902-0.75603-1.1897-0.55371-0.10948-1.0968 0.25123-1.207 0.80161-0.11011 0.55022 0.26278 1.0401 0.8165 1.1496z"/>
<path d="m252.53 173.26c0.55356 0.10945 1.0867-0.20128 1.1968-0.7515 0.11014-0.55038-0.25275-1.0902-0.80631-1.1997-0.55372-0.10948-1.0968 0.25122-1.207 0.8016-0.11011 0.55023 0.26278 1.0401 0.8165 1.1496z"/>
<path d="m252.1 174.63c0.50328 0.0995 1.0464-0.26119 1.1465-0.76144 0.11014-0.55038-0.25275-1.0902-0.75603-1.1897-0.55372-0.10948-1.0968 0.25123-1.207 0.80161-0.1001 0.50024 0.26279 1.0401 0.8165 1.1496z"/>
<path d="m250.48 173.58c0.55371 0.10948 1.0364-0.21107 1.1465-0.76145 0.11011-0.55022-0.20234-1.0801-0.75606-1.1896-0.55356-0.10945-1.0967 0.25125-1.2068 0.80148-0.11014 0.55038 0.26279 1.0401 0.81635 1.1495z"/>
<path d="m258.53 188.75c0.50328 0.0995 1.0464-0.2612 1.1565-0.81158s-0.25275-1.0902-0.75603-1.1897c-0.55356-0.10945-1.0967 0.25126-1.2068 0.80164s0.25275 1.0902 0.80631 1.1997z"/>
<path d="m258.88 190.43c0.55372 0.10948 1.0968-0.25123 1.207-0.80161 0.1001-0.50025-0.26279-1.0401-0.8165-1.1496-0.50328-0.0995-1.0464 0.2612-1.1465 0.76145-0.11014 0.55038 0.25275 1.0902 0.75603 1.1897z"/>
<path d="m258.01 191.35c0.50328 0.0995 1.0464-0.2612 1.1565-0.81158 0.11011-0.55023-0.26278-1.0401-0.76606-1.1396-0.55356-0.10945-1.0867 0.20128-1.1968 0.75151-0.11014 0.55038 0.25275 1.0902 0.80632 1.1997z"/>
</g>
</g>
<g stroke="#000" stroke-width="1.002">
<path d="m302.72 253.91c-1.8437 7.9423-4.1774 7.9423-5.9308 0-1.7534-7.9423-2.295-17.719-0.361-25.661 1.934-7.9423 5.0799-7.9423 7.0138 0 1.934 7.9423 1.1217 17.719-0.722 25.661z" fill="#fcef3c"/>
<path d="m301.92 257.82c0.0656-0.1801 0.12979-0.35777 0.18956-0.53688l-5.2811-3.4837c0.0526 0.25533 0.10794 0.50911 0.16319 0.76354l4.9284 3.257zm0.92671-3.2093c0.0446-0.19043 0.0885-0.38171 0.13164-0.57266l-6.9082-4.5634c0.0359 0.24713 0.0722 0.4931 0.11058 0.73969l6.6659 4.3964zm0.70029-3.3525c0.0365-0.19674 0.0756-0.39341 0.11058-0.59056l-8.0665-5.321c0.0201 0.23518 0.0406 0.46902 0.0632 0.7039l7.8928 5.2077zm0.55814-3.4539c0.0274-0.2007 0.0533-0.40151 0.079-0.60249l-8.8195-5.8221c6e-3 0.22443 0.0129 0.44971 0.0211 0.67407l8.7194 5.7505zm0.38963-3.5613c0.0175-0.20714 0.037-0.41304 0.0526-0.62038l-9.1723-6.0548c-7e-3 0.21716-0.011 0.43295-0.0158 0.65022l9.1354 6.0249zm0.2159-3.6746c6e-3 -0.2161 0.0115-0.43407 0.0158-0.65021l-9.1196-6.019c-0.0195 0.20806-0.0353 0.41804-0.0526 0.62635l9.1565 6.0428zm0-3.8178c-7e-3 -0.22481-0.0119-0.44937-0.0211-0.67407l-8.6352-5.6968c-0.0136 0.0691-0.0285 0.14011-0.0422 0.20877-0.0198 0.12973-0.0389 0.25789-0.0578 0.38775l8.7563 5.7744zm-0.24748-3.9788c-0.0316-0.2392-0.0624-0.48061-0.0948-0.7218l-7.6137-5.0287c-0.0478 0.19047-0.0931 0.38068-0.13685 0.57264l7.8454 5.1779z" stroke="none"/>
<path d="m303.68 225.78h-7.4758l1.083-119.75 2.6548-10.352 2.6549 10.352 1.083 119.75z" fill="#fff"/>
<path d="m300.3 224.7-0.26995-113.91-0.81307 113.91h1.083z" stroke="none"/>
<rect x="285.33" y="224.7" width="29.218" height="3.8337" fill="#fcef3c"/>
</g>
<g fill="#f7c5b4" stroke="#000" stroke-width="1.002">
<path d="m295.13 230.79c-2.0915 0.18573-3.1656 0.31777-5.5702 1.9168 7.4e-4 1.2646-0.51696 2.5293 1.1742 3.7939-3.6625-0.32706-3.5864 2.8685-1.1029 4.5008-2.1478-0.46339-2.2153 3.9097 1.9386 5.9075-1.2239-0.40202-1.2591 2.7669 0.65087 3.6125 1.3369 0.39889 2.1844 0.79248 3.4302 1.0649 6.8044 0.30411 2.8719-3.5115-0.69918-3.7826 7.2045 2.2606 7.42-2.6329 1.3643-4.0209 6.9753 1.4304 5.5469-4.7468 1.0465-4.94 5.3461 0.8345 3.1019-3.7249-0.73246-4.3527l-2.0868-1.1153 0.58698-2.5849z"/>
<path d="m293.75 230.57c-2.9124 7.3e-4 -3.5395 4.4578 1.7824 4.6026 1.769 0.28998 3.4164 0.3066 5.1245-0.39537 0.83582 1.1584 2.6116 1.6308 4.5157 1.6707 0.19466 5.1126-0.31851 11.436-1.5517 16.754 4.0567-0.1856 9.9099-4.1098 13.219-3.7137 13.004 2.8024-1.3188 0.90056 12.842-0.76486l8.2951-10.983c-10.812 0.22945-12.882-1.1764-19.816-2.2426-8.2961-4.7704-8.3915-5.9416-11.443-6.0657-3.4138 0.24327-5.0238-0.50465-7.2472-0.75821-1.2373 0.29099-3.3023 1.953-5.7214 1.8955z"/>
<path d="m304.47 236.97c0.30598 6.3099-0.6747 12.637-1.9806 17.875" fill="none"/>
<path d="m290.72 236.67c2.0497 1.8169 4.2962 1.9 7.096 2.2382"/>
<path d="m289.24 240.76c2.0258 1.8472 5.4994 2.9453 8.1748 3.1439"/>
<path d="m290.64 246.22c1.9076 1.3606 3.0699 1.2316 5.603 1.9213"/>
</g>
<g fill="#fff" stroke="#000">
<path d="m382.75 253.46c-0.89601-0.97366-11.998-13.037-18.195-19.772-0.26247 0.16505-0.64564 0.29544-1.2672 0.43989-1.234 0.28677-5.6241 1.504-42.124 1.6322l-1.7635 14.088c18.123 1.667 23.051 4.1245 37.372 6.9456 8.484-0.90049 16.104-0.91446 20.222-1.6322 2.6489-0.46163 4.5162-0.52774 5.7552-1.7017z" stroke-width=".7372"/>
<path d="m373.2 166.34c0.88678 11.834-8.6218 57.42-8.6896 66.555-0.15662 0.29116-0.44746 0.97654-0.7524 1.1232 6.3445 7.1931 17.461 18.844 18.379 19.884 1.2992-0.72056 1.9178-0.91613 2.2498-2.3659 5.8011-28.923 16.796-70.616 17.542-68.764l-28.729-16.432z" stroke-width=".7372"/>
<path d="m405.82 140.98c-24.729 1e-3 -24.948 17.861-24.948 17.861-16.427 8.9736-9.4732 11.587-9.4732 11.587 12.23-4.6572 27.22 20.332 29.259 18.969l8.197 0.0914c0.50482-4.8286 0.77027-9.8148 0.77027-14.947v-33.425c-1.3291-0.0894-2.5962-0.13721-3.8054-0.13713z" stroke-width=".7372"/>
<g stroke-width=".6144">
<path d="m370.75 183.12 16.425 4.1832c3.1964-1.8327 1.9039-6.6436 1.9039-6.6436-5.6302-8.5746-16.748-4.7499-18.185-2.7988 0 0-1.1818 2.7675-0.1439 5.2593z"/>
<path d="m369.43 189.3 16.411 4.2816c3.1964-1.8327 1.1168-6.0412 1.1168-6.0412-10.735-7.2547-16.189-3.9179-16.189-3.9179s-2.3764 3.1857-1.3385 5.6774z"/>
<path d="m368.91 195.99 16.016 4.5051c4.3113-2.223 0.77744-6.7617 0.77744-6.7617-10.895-6.3399-16.29-4.1609-16.29-4.1609s-1.542 3.9258-0.50411 6.4175z"/>
<path d="m368.07 201.9 16.088 3.6474c3.1963-1.8327 0.37892-5.129 0.37892-5.129-10.735-7.2547-15.91-4.0155-15.91-4.0155s-1.5944 3.0053-0.55651 5.4971z"/>
<path d="m367.16 207.82 15.23 3.7315c3.1964-1.8327 1.5718-5.9071 1.5718-5.9071-11.811-4.2823-15.982-3.1251-15.982-3.1251s-1.8573 2.809-0.81942 5.3007z"/>
<path d="m366.07 214.42 16.088 3.6474c2.4495-2.5085 0.0479-6.4552 0.0479-6.4552-12.3-4.3274-15.04-3.3826-15.04-3.3826s-1.5473 2.4841-1.0954 6.1904z"/>
<path d="m365.56 220.73 15.599 3.6024c3.1964-1.8327 0.73858-6.1923 0.73858-6.1923-10.961-3.7147-15.655-3.1674-15.655-3.1674s-1.7736 2.6354-0.68205 5.7573z"/>
<path d="m364.56 227.6 16.088 3.6474c3.1964-1.8327 0.54234-6.8446 0.54234-6.8446-14.424-4.1606-15.778-3.1244-15.778-3.1244s-1.8429 3.3086-0.85207 6.3216z"/>
</g>
<g stroke-width=".4219">
<path transform="matrix(.90156 -.31559 .28779 .95666 203.94 172.76)" d="m181.5 70.052a1.623 1.463 0 1 1-3.246 0 1.623 1.463 0 1 1 3.246 0z"/>
<path transform="matrix(.90156 -.31559 .28779 .95666 202.21 179.18)" d="m181.5 70.052a1.623 1.463 0 1 1-3.246 0 1.623 1.463 0 1 1 3.246 0z"/>
<path transform="matrix(.90156 -.31559 .28779 .95666 201.82 186.26)" d="m181.5 70.052a1.623 1.463 0 1 1-3.246 0 1.623 1.463 0 1 1 3.246 0z"/>
<path transform="matrix(1.0985 -.38453 .35065 1.1656 157.37 208.42)" d="m181.5 70.052a1.623 1.463 0 1 1-3.246 0 1.623 1.463 0 1 1 3.246 0z"/>
<path transform="matrix(1.0985 -.38453 .35065 1.1656 157.92 201.88)" d="m181.5 70.052a1.623 1.463 0 1 1-3.246 0 1.623 1.463 0 1 1 3.246 0z"/>
<path transform="matrix(1.0985 -.38453 .35065 1.1656 159.24 195.43)" d="m181.5 70.052a1.623 1.463 0 1 1-3.246 0 1.623 1.463 0 1 1 3.246 0z"/>
<path transform="matrix(.90156 -.31559 .28779 .95666 200.07 191.95)" d="m181.5 70.052a1.623 1.463 0 1 1-3.246 0 1.623 1.463 0 1 1 3.246 0z"/>
<path transform="matrix(1.0985 -.38453 .35065 1.1656 156.78 215.04)" d="m181.5 70.052a1.623 1.463 0 1 1-3.246 0 1.623 1.463 0 1 1 3.246 0z"/>
</g>
<g stroke-width=".4407">
<path transform="matrix(1.1323 0 0 1.1457 147.77 162.86)" d="m181.5 70.052a1.623 1.463 0 1 1-3.246 0 1.623 1.463 0 1 1 3.246 0z"/>
<path transform="matrix(1.1323 0 0 1.1457 141.18 162.73)" d="m181.5 70.052a1.623 1.463 0 1 1-3.246 0 1.623 1.463 0 1 1 3.246 0z"/>
<path transform="matrix(1.1323 0 0 1.1457 134.08 161.7)" d="m181.5 70.052a1.623 1.463 0 1 1-3.246 0 1.623 1.463 0 1 1 3.246 0z"/>
<path transform="matrix(.96485 0 0 .97623 157.89 173.28)" d="m181.5 70.052a1.623 1.463 0 1 1-3.246 0 1.623 1.463 0 1 1 3.246 0z"/>
<path transform="matrix(.96485 0 0 .97623 151.83 173.28)" d="m181.5 70.052a1.623 1.463 0 1 1-3.246 0 1.623 1.463 0 1 1 3.246 0z"/>
</g>
<path d="m389.76 226.88s-0.91419 4.3091-0.91419 4.3091 1.0432 1.1604-0.2407 1.0189c-15.743-1.7351-19.798-3.6206-24.175-4.3931-0.78584-1.5345 0.0331-4.1328 0.0331-4.1328s-3.8827 0.32541-4.2143 2.277c-0.27976 1.6464 2.4253 7.287 17.404 8.8728 9.5527 1.4502 16.628-0.60237 16.796-4.0167 0.0802-1.6555-4.6889-3.9352-4.6889-3.9352z" stroke-width=".4915"/>
<path d="m324.45 235.5s-1.1415-1.1778-2.0377 0.59032c-2.9495 6.1758-3.2904 10.694-1.7724 14.066 1.5683 0.81605 3.4946 0.32757 3.4946 0.32757s-0.0245 1.1228-1.6344 1.8354c-0.71693 0.31736-6.3458 2.81-5.0016-8.5241 0 0 2.0615-11.298 5.8253-11.389 3.2699-0.24438 3.1485 3.0162 3.1485 3.0162" stroke-width=".4915"/>
<path d="m352.92 235.11h2.3446c0.39408-0.22152 0.61375-1.1867 1.4258 0.0321 0.77775 12.489-0.919 16.971-2.437 20.344-1.4787 1.2241-3.1144 0.19934-3.1144 0.19934s0.39736 4.0405 2.2156 4.2077c1.5338 0.14104 6.8418-5.3968 6.0679-19.68 0 0-0.20289-10.205-3.354-10.106-1.5278 0.0486-3.1485 5.0038-3.1485 5.0038z" stroke-width=".4915"/>
<path d="m321.62 239.56c18.282-0.72537 18.998 1.1787 35.219 1.7228" stroke-width="1.2287"/>
</g>
<path d="m300 320s110-41.073 110-145.46v-94.546h-220v94.546c0 104.38 110 145.46 110 145.46z" fill="none" stroke="#ffb500" stroke-width="5"/>
</svg>
