<?xml version="1.0" encoding="UTF-8"?>
<svg width="600" height="400" version="1.1" viewBox="0 0 600 400" xmlns="http://www.w3.org/2000/svg">
 <rect width="600" height="400" fill="#fff" fill-rule="evenodd" stroke-width="1.4306" style="paint-order:normal"/>
 <rect x="300" width="300" height="400" fill="#dc2910" fill-rule="evenodd" stroke-width="1.0116" style="paint-order:normal"/>
 <g transform="matrix(.11329 .99356 .99356 -.11329 65.858 -79.083)" stroke="#000" stroke-linecap="round" stroke-linejoin="round">
  <g stroke-width="1.5907">
   <path d="m316.14 173.35c-3.1111 1.806-5.7308 4.0039-7.8815 6.1248-.68706.67649.52837 2.4464 1.2673 1.8836 2.3618-1.7986 5.0011-4.1197 8.1919-5.8141" fill="#00703b" fill-rule="evenodd"/>
   <path d="m289.45 201.37c-1.7344-3.5398-1.0791-8.8064 1.7131-13.765 4.0178-7.1361 11.492-11.537 16.47-9.698 1.1019.40719 1.1405.47617.55594.99103-.64496.56719-.75079 1.2579-.31188 2.0295.65002 1.1433 1.2711 1.2819 2.314.51719.37232-.27296.71272-.4932.75637-.48935.18942.0177.63568 1.3651.81549 2.4608.95043 5.7934-2.4677 13.415-7.9905 17.816-4.0038 3.1912-8.2792 4.2923-11.385 2.933-.85258-.3731-1.1257-.56656-1.8054-1.2789-.52313-.54793-.91658-1.0738-1.1327-1.5162z" fill="#a23e97"/>
   <path d="m308.62 172.91c4.0003-1.7773-18.012-9.5904-26.505-13.33-8.6449-3.8321-8.6449-3.8321-17.657-4.9243-8.8619-.99981-15.759-.79176-15.759-.79176s11.082 11.261 17.46 13.699c6.5291 2.5313 16.934 17.612 42.462 5.3468z" fill="#00703b"/>
   <path d="m314.52 172.85s-40.955-4.6286-64.629-18.336" fill="none"/>
  </g>
  <path d="m360.26 145.11s-9.3162 25.432-8.4838 37.773c.92208 12.509 10.842 31.043 10.842 31.043s5.6639-10.991 5.7737-23.73c-.11488-12.85-8.1317-45.086-8.1317-45.086z" fill="#00703b" stroke-width="1.5906"/>
  <path d="m360.11 146.08c-1.2646 6.2663-.58909 51.64 3.4522 75.524" fill="none" stroke-width="1.5906"/>
  <path d="m317.31 169.07c-2.5838-6.1031-5.6287-24.169-4.4874-35.778 1.2578-11.716-8.2122-30.272-15.59-38.353 0 0-.99965 14.803-1.9229 27.12-2.0878 20.626 22 47.011 22 47.011z" fill="#00703b" stroke-width="1.5907"/>
  <path d="m319.99 174.99c-15.297-26.976-21.565-59.94-22.525-78.996" fill="none" stroke-width="1.5907"/>
  <g stroke-width="1.5907">
   <path d="m367.88 232.8c3.5513-1.0706 7.071-1.5383 10.208-1.7196 1.0013-.0586 1.5486 1.945.60052 2.1136-3.0302.53883-6.6596.94173-10.178 2.1408" fill="#00703b" fill-rule="evenodd"/>
   <path d="m408.14 231.63c-1.5737-3.5087-6.1405-6.4125-11.937-7.5897-8.3408-1.694-16.921.83815-18.907 5.5794-.43962 1.0496-.41229 1.1214.39218 1.0327.88689-.0984 1.4995.26817 1.8007 1.0765.44645 1.1976.12763 1.731-1.1873 1.9878-.46942.0917-.87567.19436-.90269.22807-.11646.14693.62966 1.3293 1.3624 2.1598 3.8742 4.3907 12.182 6.8251 19.42 5.6902 5.2479-.82247 9.0491-3.1779 10.123-6.2716.2948-.8493.33144-1.1687.24221-2.1115-.0684-.72542-.20885-1.3439-.40591-1.7819z" fill="#254b39"/>
   <path d="m397.25 269.49c3.54-10.082 6.8163-18.566 10.806-25.705 3.8447-7.0643 6.003-24.988 2.023-34.934 0 0-13.046 11.709-15.3 19.678-2.2535 7.9686 2.4709 40.96 2.4709 40.96z" fill="#00703b"/>
  </g>
  <path d="m396.61 275.4c.82419-10.663 5.6026-51.956 13.102-65.744" fill="none" stroke-width="1.5907"/>
  <path d="m357.84 223.93s-16.859-9.5018-33.67-8.849c-16.511.70201-39.372 7.081-39.372 7.081s21.935 7.8933 36.704 10.327c14.615 2.2859 36.338-8.5595 36.338-8.5595z" fill="#00703b" stroke-width="1.5906"/>
  <path d="m367.19 223.84c-6.1625-.15993-70.585-.23826-81.58-1.6837" fill="none" stroke-width="1.5906"/>
  <g stroke-width="1.5907">
   <path d="m390.47 272.47s-36.916-28.687-59.263-24.731c0 0 16.39 21.832 32.538 27.007 15.894 5.1211 26.725-2.276 26.725-2.276z" fill="#00703b"/>
   <path d="m331.55 248.04c18.756 8.6714 41.763 24.241 64.604 25.502" fill="none"/>
   <path d="m202.83 86.756s-9.8122 1.7411-18.793-3.8654c-9.1609-5.6435-22.038-13.304-33.165-27.944 0 0 38.543 4.1683 51.957 31.81z" fill="#00703b"/>
   <path d="m205.87 88.419c-4.9372-1.7314-43.302-27.134-54.255-32.967" fill="none"/>
   <path d="m332.32 123.84s-10.405 25.43-8.7142 36.707c1.8119 11.415 15.265 26.629 15.265 26.629s6.5582-11.315 6.0334-23.149c-.81344-11.891-12.584-40.188-12.584-40.188z" fill="#00703b"/>
   <path d="m332.18 124.77c-1.2658 6.0612 1.9462 47.997 8.2769 69.338" fill="none"/>
  </g>
  <g>
   <path d="m240.66 111.05c2.8617-2.2626 5.9247-3.948 8.7446-5.229.89984-.40957 2.1698 1.2775 1.3611 1.7715-2.585 1.5789-5.7738 3.2423-8.5566 5.614" fill="#00703b" fill-rule="evenodd" stroke-width="1.5907"/>
   <path d="m277.3 95.704c-2.7907-2.7365-8.1071-3.8453-13.896-2.8978-8.3298 1.3634-15.265 6.7789-15.282 11.933-.004 1.141.0489 1.1987.75597.83056.77924-.40649 1.4837-.27927 2.07.3729.86899.9661.77925 1.5798-.33374 2.2864-.3973.25233-.73225.49254-.74425.53375-.0511.17917 1.0881 1.0249 2.0804 1.5451 5.2468 2.7499 13.829 2.0931 20.063-1.5355 4.5192-2.6304 7.12-6.1877 6.9261-9.472-.0531-.90167-.14149-1.2145-.58408-2.0679-.34033-.65675-.70608-1.1876-1.055-1.529z" fill="#254b39" stroke-width="1.5907"/>
   <path d="m285.74 140.46s4.5037-41.398-12.726-64.242c0 0-10.513 19.325-5.5816 36.667 4.828 17.073 18.308 27.575 18.308 27.575z" fill="#00703b" stroke-width="1.5906"/>
  </g>
  <path d="m272.94 76.603c3.2371 20.419 2.5915 45.98 15.237 69.88" fill="none" stroke-width="1.5906"/>
  <g stroke-width="1.5907">
   <path d="m212.32 133s31.537 14.783 47.606 11.029c13.85-3.2356 14.227-1.4934 15.156-1.3268 0 0-5.62-3.5081-15.216-7.3696-9.8001-3.9437-30.907-9.0439-36.405-7.9904-5.3314 1.0214-11.141 5.6578-11.141 5.6578z" fill="#00703b"/>
   <path d="m212.88 133c3.8438.0159 51.747 2.8126 67.132 12" fill="none"/>
   <path d="m227.04 99.857c-4.3291-11.579-7.7954-21.547-9.9788-30.859-2.2222-9.1379-12.377-26.618-21.09-32.43 0 0-.28425 20.157 3.461 28.901 3.7453 8.7431 27.608 34.387 27.608 34.387z" fill="#00703b"/>
   <path d="m230.43 105.56c-6.3146-10.054-29.824-50.179-34.165-68.01" fill="none"/>
   <path d="m226.71 107.48s-13.994-11.159-27.067-11.796c-12.834-.56285-30.133 4.2583-30.133 4.2583s17.819 9.8893 29.566 13.564c11.614 3.5095 27.635-6.0266 27.635-6.0266z" fill="#00703b"/>
   <path d="m234 108.12c-4.8269-.64711-55.148-5.7613-63.861-8.1174" fill="none"/>
   <path d="m409.82 291.45s36.546-22.137 35.607-43.668c0 0-26.063 6.36-34.074 18.855-7.9148 12.288-1.5333 24.813-1.5333 24.813z" fill="#00703b"/>
   <path d="m445.04 247.97c-12.182 13.498-32.461 28.175-37.24 48.159" fill="none"/>
   <path d="m401.08 296.28c-6.9083.0621-14.969-1.1587-26.315-6.407-11.419-5.3906-29.35-2.6526-39.67.93528-.60299.10751 14.2 13.868 36.376 13.678 17.721-.1522 29.609-8.2054 29.609-8.2054z" fill="#00703b"/>
   <path d="m401.08 296.28c-31.684 3.7096-40.841-1.576-65.986-5.4725" fill="none"/>
   <path d="m238.95 111.34c-.0963 3.6029.39734 7.0121 1.0712 9.9864.21439.94961 2.3529.91452 2.2622-.0154-.28985-2.9722-.87776-6.4661-.64506-10.074" fill="#00703b" fill-rule="evenodd"/>
   <path d="m248.76 149.19c-3.9124-.51225-8.039-3.9802-10.786-9.0645-3.9526-7.3162-3.7741-16.007.39314-19.149.92253-.69564 1.0013-.68972 1.1322.0846.14367.85379.67448 1.3252 1.5591 1.386 1.3106.0903 1.7536-.3522 1.6506-1.6482-.0367-.46268-.0454-.86944-.0193-.90381.11419-.14859 1.4914.22526 2.5154.6824 5.4145 2.4172 10.093 9.5013 10.937 16.56.6119 5.1173-.69219 9.303-3.4719 11.146-.76307.50609-1.0703.6272-2.0307.80064-.73895.13367-1.3913.1711-1.8798.10657z" fill="#a23e97"/>
  </g>
  <g stroke-width="1.5907">
   <path d="m234.77 108.56c.38165-3.5787 1.321-6.8666 2.381-9.6941.33767-.90287 2.4476-.50812 2.2348.39611-.67998 2.8901-1.7237 6.2458-1.9711 9.8522" fill="#00703b" fill-rule="evenodd"/>
   <path d="m249.48 72.777c-3.9364-.15219-8.4758 2.5821-11.865 7.147-4.8766 6.5688-5.8504 15.192-2.1457 19.001.82013.84317.89881.85057 1.1307.107.25506-.82003.84233-1.1968 1.7251-1.108 1.3079.13137 1.6873.64349 1.4139 1.9076-.0975.45132-.15995.85205-.13867.89043.0932.16615 1.5045.0284 2.5776-.25124 5.6738-1.4786 11.238-7.6955 13.006-14.533 1.2823-4.9569.54685-9.3152-1.9578-11.606-.68755-.62888-.97526-.80036-1.902-1.1336-.71298-.25658-1.3531-.40342-1.8447-.42187z" fill="#254b39"/>
   <path d="m365.81 231.2c.74134-3.5179 2.0097-6.695 3.3521-9.4036.42783-.86499 2.4929-.27608 2.1896.60193-.96957 2.8063-2.349 6.041-2.9592 9.5989" fill="#00703b" fill-rule="evenodd"/>
   <path d="m384.08 197.05c-3.9117-.51856-8.7158 1.7728-12.557 5.9892-5.5269 6.0673-7.3672 14.539-4.0552 18.667.73322.91379.81096.92848 1.1172.21179.33708-.79045.96092-1.1098 1.8326-.93914 1.2916.25254 1.6184.79646 1.2183 2.0262-.14278.43903-.24542.83112-.22806.87122.0763.17369 1.498.16859 2.5968-.009 5.8092-.93854 11.986-6.5923 14.439-13.216 1.7788-4.8023 1.4842-9.1986-.78369-11.707-.62254-.68863-.89229-.88575-1.7833-1.3031-.68543-.32133-1.3092-.52689-1.7978-.59109z" fill="#254b39"/>
   <path d="m366.49 234.35c-1.4676 3.2844-2.3075 6.5992-2.8118 9.5774-.16175.95055 1.8592 1.6755 2.1295.78691.86408-2.8402 1.6478-6.2664 3.2453-9.5069" fill="#00703b" fill-rule="evenodd"/>
  </g>
  <g stroke-width="1.5907">
   <path d="m361.22 272.68c-3.4769-1.8573-6.0251-6.5128-6.66-12.168-.91369-8.1383 2.5759-16.079 7.6891-17.498 1.1319-.31403 1.2036-.28068 1.0305.47882-.19151.83726.12656 1.4595.93377 1.8287 1.1958.54731 1.7808.29658 2.1795-.9336.1424-.43915.28975-.81687.32741-.83927.16399-.0964 1.3139.7356 2.1005 1.5193 4.1588 4.1438 5.8429 12.325 3.9366 19.125-1.3818 4.93-4.206 8.3234-7.52 9.0367-.90979.19591-1.2444.19868-2.2124.0183-.74478-.13856-1.3715-.3351-1.8054-.56754z" fill="#a23e97"/>
   <path d="m316.48 176.11c-1.4676 3.2844-2.3075 6.5992-2.8118 9.5774-.16175.95055 1.8592 1.6755 2.1295.78691.86408-2.8402 1.6478-6.2664 3.2453-9.5069" fill="#00703b" fill-rule="evenodd"/>
   <path d="m311.21 214.45c-3.4769-1.8573-6.0251-6.5128-6.66-12.168-.91369-8.1383 2.5759-16.079 7.6891-17.498 1.1319-.31403 1.2036-.28068 1.0305.47882-.19151.83726.12656 1.4595.93377 1.8287 1.1958.54731 1.7808.29658 2.1795-.9336.1424-.43915.28975-.81687.32741-.83927.16399-.0964 1.3139.7356 2.1005 1.5193 4.1588 4.1438 5.8429 12.325 3.9366 19.125-1.3818 4.93-4.206 8.3234-7.52 9.0367-.90979.19591-1.2444.19868-2.2124.0183-.74478-.13856-1.3715-.3351-1.8054-.56754z" fill="#a23e97"/>
   <path d="m189.21 78.696c120.87 66.808 206.93 147.9 245.24 279.34l-8.2479 4.3812c-39.007-145.33-136.86-216.41-237-283.73z" fill="#00703b" style="text-decoration-line:none;text-indent:0;text-transform:none"/>
   <path d="m434.47 358.05c.89477 1.3183-.2267 3.3695-2.5031 4.5787-2.2762 1.2093-4.8498 1.121-5.7447-.19753-.89461-1.3183.2267-3.3695 2.5031-4.5787 2.2765-1.209 4.8502-1.1207 5.7447.19753z" fill="#00703b" fill-rule="evenodd"/>
  </g>
 </g>
</svg>
