<?xml version="1.0" encoding="UTF-8"?>
<svg width="900" height="600" fill-rule="evenodd" version="1.1" viewBox="0 0 720 480" xmlns="http://www.w3.org/2000/svg">
<defs>
<radialGradient id="a" cx="1840.6" cy="-1076" r="243.66" gradientTransform="matrix(1.6211 0 0 1.4181 -801.02 451.72)" gradientUnits="userSpaceOnUse">
<stop stop-color="#ff8111" offset="0"/>
<stop stop-color="#fff" stop-opacity=".53815" offset="1"/>
</radialGradient>
</defs>
<path d="m0 0h720v480h-720z" fill="#74acdf" fill-rule="evenodd"/>
<path d="m-4.9243e-6 160v160h0.48452zm0.83061 0 0.069223 160h719.1v-160z" fill="#fff" fill-rule="evenodd"/>
<path d="m0.8306 160 0.069223 160 143.1-80z" fill="#74acdf"/>
<g transform="matrix(.042883 0 0 .042581 354.18 176.01)">
<path d="m1366.5 631.27 172.37 15.027-143.2-72.482c70.963-6.4104 130.24-33.491 184.74-8.8393 1.3527-43.103-95.892-25.554-173.33-52.891l0.6671-14.975 174.43-29.366-173.64-9.8236-2.7146-15.444c73.478-34.815 118.1-66.944 175.47-66.661-43.254-37.719-84.25 14.415-191.39 19.589l-1.5516-18.688 154.94-86.642-160.97 47.828-8.1175-9.9896c56.08-58.394 51.498-96.066 118.71-122.7-57.983-15.458-66.4 54.486-158.95 84.804l-13.21-8.6777 104.09-125.63-126.4 91.045-8.8391-8.8393c33.736-66.879 30.472-117.37 67.179-165.29-71.463 42.491-46.418 97.534-115.79 143.2l-8.8395-4.4196 32.706-159.11-74.25 138.78-16.795-4.4197c5.1457-86.362-4.531-114.07 6.1876-173.25-47.479 37.811-21.243 112.49-50.384 167.95l-17.678-1.7679-24.75-152.92-24.75 149.38-14.143 1.7678c-11.795-58.442-56.891-100.01-53.92-173.25-44.43 47.244 15.917 116.23 9.723 176.79l-15.026 5.3035-80.438-140.54 32.705 152.92-10.607 7.0714c-25.667-44.079-98.27-77.018-108.04-144.83-36.347 69.719 50.158 95.654 65.629 174.38l-11.876 6.8754-107.51-83.754 74.379 107.51-5.6253 5.6253c-82.437-38.59-130.63-28.937-155.35-86.139-26.745 59.986 95.521 82.076 138.78 144.96l-7.9554 7.9554-151.15-47.732 133.47 85.741-2.6518 13.259c-131.15-16.467-144.45 7.7281-190.04-27.402 6.7725 74.099 81.713 35.053 175.9 77.786l-5.3035 16.795-160.88 14.143 153.8 30.938 1.7678 7.9554c-69.103 14.134-118.31 62.562-182.97 44.196 27.929 49.338 120.23 6.8291 192.7 5.3036l5.3036 9.7232-133.47 76.34 161.76-31.259z" fill="#e3c142" stroke="#f2a31a" stroke-linecap="round" stroke-linejoin="round" stroke-width="9.3738"/>
<g transform="translate(5156.6 -223.57)" fill="#643d16" fill-opacity=".98824">
<g fill="#643d16" fill-opacity=".98824">
<g fill="#643d16" fill-opacity=".98824">
<g transform="matrix(1.2241 0 0 1.2241 -4384.1 460.95)" fill="#643d16" fill-opacity=".98824">
<path d="m404.95 114.48c-44-40-100-46-130-16-6 10-13 22-15 33-3 23 5 49 20 73-1 0-5 2-7 4-15-30-21-62-16-91 1-7 5-15 6-21 42-38 100-42 142 18z"/>
<path d="m335.95 102.48c-25 0-31 6-42 16-12 10-17 8-19 10s0 8 4 6c3-2 11-6 22-16 12-10 23-10 35-10 34 0 53 30 57 28s-19-34-57-34z"/>
<g transform="translate(-1005.1 -477.52)">
<path d="m1385 614c-25-28-71-30-90 2h8c19-32 65-18 68-4v4z" fill="#643d16" fill-opacity=".98824"/>
</g>
<path d="m348.95 134.48c0-10-7-18-17-18-9 0-17 8-17 18s8 18 17 18c10 0 17-8 17-18z"/>
<g transform="translate(-1005.1 -477.52)">
<path d="m1295 616c19 18 61 20 90-2l-14-2c-19 22-49 20-68 4v-4z" fill="#643d16" fill-opacity=".98824"/>
</g>
<path d="m381.95 146.48c-33 26-65 24-84 12s-19-16-16-16c4 0 8 4 23 12 16 8 39 8 77-8z"/>
<g transform="translate(-1005.1 -477.52)">
<path d="m1293 684c5 1 8 6 8 11 0 6-5 12-12 12-6 0-11-5-11-12-2 5-10 17-25 17h-4l1 5h3c4 0 15 0 23-5 3 4 8 7 14 7 9 0 17-8 17-18 0-8-6-16-14-17z" fill="#643d16" fill-opacity=".98824"/>
</g>
<path d="m87.949 114.48c44-40 100-46 130-16 7 10 13 22 15 33 3 23-5 49-20 73 2 0 5 2 7 4 15-30 21-62 16-91-1-7-5-15-6-21-42-38-100-42-142 18z"/>
<path d="m156.95 102.48c25 0 31 6 42 16 12 10 17 8 19 10s0 8-3 6c-4-2-12-6-23-16-12-10-23-10-35-10-34 0-53 30-57 28s19-34 57-34z"/>
<g transform="translate(-1005.1 -477.52)">
<path d="m1118 614c25-28 71-30 90 2h-8c-19-32-65-18-68-4v4z" fill="#643d16" fill-opacity=".98824"/>
</g>
<path d="m143.95 134.48c0-10 8-18 17-18 10 0 17 8 17 18s-7 18-17 18c-9 0-17-8-17-18z"/>
<g transform="translate(-1005.1 -477.52)">
<path d="m1208 616c-19 18-61 20-90-2l14-2c19 22 49 20 68 4v-4z" fill="#643d16" fill-opacity=".98824"/>
</g>
<path d="m110.95 146.48c33 26 65 24 84 12 20-12 20-16 16-16s-8 4-23 12-38 8-77-8z"/>
<g transform="translate(-1005.1 -477.52)">
<path d="m1210 684c-5 1-8 6-8 11 0 6 6 12 12 12s11-5 11-12c2 5 10 17 25 17h4l-4 5c-4 0-15 0-23-5-3 4-8 7-14 7-9 0-17-8-17-18 0-8 6-16 14-17z" fill="#643d16" fill-opacity=".98824"/>
</g>
</g>
</g>
</g>
</g>
<path d="m1082.7 2818.3c-11 46-14 98-38 132-55.14 95.444-253.05 61.347-374.41-51.914-19.25-14.129-47.625-20.907-109.8-19.571l5.527-67.854c40.245-3.0336 82.27 7.284 124.86 21.816 69.831 32.006 169.25 158.94 266.83 99.525 69-71 66-98 84-140z" fill="#4179ad"/>
<path d="m1069.7 2815.3-15-8c-10 28-35.569 100.44-71.569 136.44-36.616 28.053-84.735 24.477-123.43 13.145-108.97-31.316-93.87-59.279-140.75-88.917-48.868-29.1-100.54-40.417-154.41-37.86l-2.8132 30.189c59.874 5.528 108.61-1.9304 158.93 55.122 50.833 30.348 85.542 64.192 192.02 77.049 48.171-4.4098 79.445-16.162 104.48-44.164 31-33 38.532-87.006 52.532-133.01z" fill="#ececec"/>
<path d="m1837.7 1552.3c0 561-342 1016-763 1016s-763-455-763-1016c0-562 342-1017 763-1017s763 455 763 1017z" fill="#fefcfc"/>
<ellipse transform="rotate(90)" cx="2182.8" cy="-1074.2" rx="395" ry="345.52" fill="url(#a)"/>
<g transform="matrix(1.1746 0 0 1.1746 168.51 196.69)" fill="#ffdec3" stroke="#ffdec3">
<path d="m733.17 2013.8 1.6095-343.36h-78.956v-74.815h78.956v-57.114l75.21-0.088v57.202h76.334v74.815h-76.334l1.5946 343.36z" fill="#ffdec3" fill-rule="nonzero" stroke="#ffdec3" stroke-width="6.011"/>
</g>
<path d="m311.69 1564.3c0-561 341-1016 763-1016 421 0 762 455 762 1016v6l-762-6z" fill="#86afe7"/>
<path d="m1159 1099c-60.713-29.092-126.11-54.284-207.19-63.805-345.09 17.239 520.19 273.26 207.19 63.805z" fill="#da3b27" stroke="#894344" stroke-width="3.3384"/>
<g transform="matrix(.69233 0 0 .69233 207.97 52.657)">
<path d="m1223 1455 2 1382c0 20 15 36 32 36s31-16 31-36l-2-1382z" fill="#b5543b"/>
<path d="m1223 1455 2 1382c0 20 15 36 32 36s31-16 31-36l-2-1382m-63 0z" fill="none" stroke="#a85f4d" stroke-linecap="round" stroke-linejoin="bevel" stroke-width="3.9586"/>
<g fill="#8d4143">
<path d="m1232 1454 1 65s22-17 44 0l3-64z" fill="#8d4143"/>
</g>
</g>
<line x1="1067.8" x2="1068.8" y1="1168" y2="2011" fill="none" stroke="#e88647" stroke-linecap="round" stroke-linejoin="round" stroke-width="9.2587"/>
<g transform="translate(-178.31 -564.71)">
<path d="m1044 2481c12-10 21-21 27-31l49-2c-8 17-20 32-38 42-17 8-28 3-38-9z" fill="#df7a33"/>
<path d="m1042 2483 1-4c11-10 20-20 26-30l2-2 49-1 3 3c-9 18-21 33-40 43-18 9-31 4-41-9zm33 7 6-2 12-8c7-6 13-13 18-21l5-8-43 1-11 15-14 14-2-2c8 10 17 15 29 11z" fill="#c65d37"/>
<path d="m528.49 2423.8 48.063-10.697c166-27 353.44-65.127 520.44-112.13 24-17 52-30 81-40 41 2 79 7 116 12l168 201-14 18 7 8-22 15-22-11c-4 21-19 24-38 20-15 14-30 20-47 9l-28 14-56-18c-55-22-107-47-157-74-163.3 53.187-323.45 122.1-485.14 183.35-19.716-74.984-78.593-140.01-71.369-214.52z" fill="#eba243"/>
<path d="m673 2609c160-61 242-104 411-156h2c38 20 76 39 116 57l41 17 55 17 27-13h2c16 10 30 5 44-9l2-1c19 4 32 1 36-18l3-2 21 11 26-38-167-198-55-8c-9-1-19-2-29-2l-30-3-21 8c-21 9-41 19-58 32h-1c-171 49-356 86-525 113l-44.505 7.8246 0.83247-5.5563 40.673-7.2683c145-23 298-52 443-90l83-22 18-12c20-12 41-21 63-29h1c42 3 79 7 116 13l2 1 168 200v3l-7 24-23 18h-2l-19-10-1 5c-5 12-15 16-26 16l-12-2-11 9c-10 6-21 8-32 4l-5-3-27 13h-1l-57-18c-42-16-81-35-119-54l-37-19-72 23c-145 51-197 83-338 136l-67.693 27.056-7.4432-5.7108z" fill="#c65d37"/>
<path d="m637 2558 409-118 37-2 208 90c5 0 12-3 15-11 5 5 10 8 12 12l3 4-23 11-55-17-41-17c-40-18-78-37-116-57h-2c-68 21-135 45-200 72l-211 86-73.136 27.346-25.129-61.351z" fill="#df7a33"/>
<path d="m1296 2503c15-4 32-11 42-22 10 10 19 22 26 33l5 10c-2 2-5 5-9 7-20 20-46-9-64-28z" fill="#df7a33"/>
<path d="m1380 2522h-3l-3 1c-13-10-28-36-37-47 13 2 25-6 38-22 10 10 22 29 31 43l3 6c-3 17-14 21-29 19z" fill="#df7a33"/>
<path d="m1433 2512-17-8c-21-20-32-38-51-60 15-2 28-13 39-25 16 27 49 43 47 80l-2 2z" fill="#df7a33"/>
<polygon points="1250 2463 1327 2531 1324 2535 1246 2467" fill="#c65d37"/>
<path d="m1265 2417 3-3c25 31 74 53 107 108l-5 2c-33-56-78-72-105-107z" fill="#c65d37"/>
<path d="m1316 2400 4-3c25 38 65 51 94 105l-4 3c-30-55-68-65-94-105z" fill="#c65d37"/>
<path d="m1453 2491c-17-32-38-64-70-96-24-15-42-31-54-47-17-8-30-16-40-24-15-1-24-5-33-9-20 13-39 23-59 31-23-3-39-8-33-24 15-14 29-33 41-56 4-6 12-9 26-13 10-1 46-1 77 0 28 11 106 55 155 95 148 29 268 71 422 104l21 4 54.221 15.943c-18.318 70.947-41.45 136.76-71.117 191.73l-78.104-28.671c-137-61-237-110-358-144z" fill="#eba243"/>
<path d="m1484 2498-30-9-13-23-11-18 425 121 68.495 19.574c-10.382 24.765-21.166 49.845-34.391 75.097l-73.104-29.671-9-5c-112-50-222-100-323-131z" fill="#df7a33"/>
<path d="m1411 2422-1-1c-8-10-16-19-25-28-24-15-42-31-54-46l-1-1c-17-8-30-16-39-24l-2-1c-14-1-23-4-32-8h-2c-10 6-20 12-30 17l-18 8-4-3c16-13 41-25 37-45 15 7 49 20 66 15 9-3 14 18 22 19 0 30 75 71 120 57z" fill="#df7a33"/>
<path d="m1083 2489 78-37c15 4 25 11 25 31-16 15-35 30-61 41-31-3-41-17-42-35z" fill="#eba243"/>
<path d="m1080 2489 2-3 78-36h2c15 4 27 12 26 33l-1 2c-16 15-35 30-61 41h-1c-33-2-43-17-45-37zm45 32 17-8c11-6 21-13 29-21l12-10v-5c-1-10-6-15-13-19l-9-3-75 35v5c2 12 10 21 29 25z" fill="#c65d37"/>
<path d="m1125 2521-10-1c-19-4-27-13-29-25v-5l27-13 3 6c7 14 19 27 39 21v1l-13 8z" fill="#df7a33"/>
<path d="m1138 2517 56-50c19-6 30 6 35 17l-43 61c-25 1-38-9-48-28z" fill="#eba243"/>
<path d="m1136 2518 1-3 55-50 1-1c21-6 33 8 38 19v3l-43 61-2 1c-26 1-40-10-50-30zm48 25 42-59-4-6c-5-6-12-11-21-10l-6 1-53 49 6 10c7 9 16 13 29 14z" fill="#c65d37"/>
<path d="m1184 2543-7-1c-13-1-22-5-29-14l-6-10 15-15 5 7c6 8 15 15 26 17l8-1z" fill="#df7a33"/>
<path d="m1187 2547 42-60c9 1 18 5 25 17-4 19-16 38-35 58-18-3-31-7-32-15z" fill="#eba243"/>
<path d="m1185 2548v-2l42-60 2-1c10 0 20 5 27 17l1 2c-4 20-17 40-36 59l-2 1c-17-2-33-6-34-16zm33 11 12-13c8-10 14-19 18-29l4-13-5-6c-4-4-8-6-12-7l-5-1-40 58 2 3c2 2 7 4 15 6z" fill="#c65d37"/>
<path d="m1218 2559-11-2c-8-2-13-4-15-6l-2-3 14-20 1 1c6 6 13 11 21 13h7l-3 4z" fill="#df7a33"/>
<path d="m1450 2493c-12-24-27-48-47-72l-21-24-17-11c-11-8-20-16-28-24l-9-12-12-6c-8-4-15-8-20-12l-8-6-10-1c-3-1-6-1-8-2l-14-5-28 16c-10 5-20 10-30 14h-1c-21-2-43-8-35-27l1-1c14-13 27-32 40-55v-1c5-6 14-10 28-13 10-1 46-1 77 0h1c25 9 88 44 136 80l19 15 74 16c107 24 215 56 326 82l45 11 52.272 13.155-1.0513 3.7887-55.221-13.943-22-5c-144-32-282-75-420-102l-1-1c-46-38-118-78-149-92l-6-2-23-1h-48l-4 1-9 2c-6 2-10 4-13 6l-3 3-9 17c-7 11-14 20-21 28l-10 11-1 4c-1 8 7 12 23 15l8 1 28-13c10-5 20-11 30-17h2c9 4 18 7 32 8l2 1c9 8 22 16 39 24l1 1c12 15 30 31 54 46 24 24 42 49 56 73l13 23 30 9c101 31 220 84 332 135l73.104 30.671-2.2883 4.6956-73.816-31.367c-117-50-227-105-363-144z" fill="#c65d37"/>
<path d="m1187 2299 25 6c-6 14-24 34-45 18 30-32 14-16 20-24z" fill="#f7da9b"/>
<path d="m1143 2467c15 20 17 20 17 20 5-4 11-7 12-13-2-5-1-9-13-14z" fill="#f7da9b"/>
<path d="m1187 2483c14 14 19 13 22 15 4-4 5-7 7-9 2-3 2-8 0-11-4-4-13-9-17-6-4 1-7 4-12 11z" fill="#f7da9b"/>
<path d="m1224 2505c9 9 16 9 17 9 2-2 5-5 6-10-7-9-13-8-17-8z" fill="#f7da9b"/>
<path d="m1422 2500c3-13 20-13 20-13 4 6 4 8 4 11-3 3-5 5-12 9-3-2-6-1-12-7z" fill="#f7da9b"/>
</g>
<g transform="translate(-178.31 -394.7)">
<path d="m2165 2203c-50-86-115-164-98-284 108 36 116 150 98 283z" fill="#60962d"/>
<path d="m2165 2203c-50-86-115-164-98-284 108 36 116 150 98 283m0 1z" fill="none" stroke="#0b572f" stroke-linecap="round" stroke-linejoin="round" stroke-width="6.141"/>
<path d="m2067 1951 2-25 3 1 15 38c25 65 47 132 67 200l8 26-34-55c-34-56-63-112-61-185z" fill="#346d32"/>
<g transform="translate(0 -5.488)">
<path d="m1874 1031c36 113 64 234 133 299 4-140-56-226-133-299z" fill="#60962d" stroke="#0b572f" stroke-linecap="round" stroke-linejoin="round" stroke-width="6.2685"/>
<path d="m2004 1322-18-21c-37-48-60-115-82-185l-21-68 10 21c32 68 64 137 95 209l16 40z" fill="#346d32"/>
<path d="m1970 1033c-1 107-15 220 39 285 56-129 21-212-39-285z" fill="#60962d" stroke="#0b572f" stroke-linecap="round" stroke-linejoin="round" stroke-width="5.4832"/>
<path d="m2008 1312-6-8c-31-48-33-117-31-190l2-70 4 25c11 65 21 131 29 199l4 40z" fill="#346d32"/>
<path d="m1743 1096c85 97 165 211 266 228-53-158-153-207-266-228z" fill="#60962d" stroke="#0b572f" stroke-linecap="round" stroke-linejoin="round" stroke-width="6.5826"/>
<path d="m2004 1320-13-3c-66-20-124-81-182-149l-55-64 25 19c63 51 125 103 187 159l36 33z" fill="#346d32"/>
<path d="m2076 1235c8 81-77 142 46 225 27-81 32-166-46-225z" fill="#60962d" stroke="#0b572f" stroke-linecap="round" stroke-linejoin="round" stroke-width="8.2253"/>
<path d="m2113 1449-9-7c-84-69-25-120-23-192v-6l6 5 1 1 3 15c11 57 0 116 20 178z" fill="#346d32"/>
<path d="m2175 1740c-15-69-30-139-22-204 51-96 14-135 25-221-36 27-67 65-76 106-13-57-45-110-73-150-12 42-25 83-22 129-38-35-75-39-113-42 116 88 35 148 211 278l42 124z" fill="#60962d" stroke="#0b572f" stroke-linecap="round" stroke-linejoin="round" stroke-width="8.2253"/>
<path d="m2152 1750-5-2-38-113c0-1-1-1-2-2-166-123-102-181-191-261l-10-8h10l8 4c81 47 110 190 202 260zm-52-326c2 2 6 1 6-2 6-30 25-58 49-82l18-15-11 29c-26 81-36 163-47 251-27-80-29-136-15-180zm-89-23v-10l1-7c1-21 4-42 9-64l4-20 6-20v1l10 67c12 72 31 144 59 215-68-36-90-92-89-159z" fill="#346d32"/>
<path d="m2297 1568c-68 184-158 370-120 525 160-177 161-352 120-525z" fill="#60962d" stroke="#0b572f" stroke-linecap="round" stroke-linejoin="round" stroke-width="8.2253"/>
<path d="m2180 2084-4-21c-16-108 24-230 72-356l47-125 2 9-2 42c-9 122-32 246-71 371l-13 42-9 12z" fill="#346d32"/>
<path d="m2012 1642c11 98 99 204 200 290 42-86-122-199-200-290z" fill="#60962d" stroke="#0b572f" stroke-linecap="round" stroke-linejoin="round" stroke-width="8.2253"/>
<path d="m2210 1925-32-29c-79-73-143-157-159-237v-1l194 259z" fill="#346d32"/>
<path d="m2185 1555c-25 152-71 312 0 418 116-169 78-298 0-418z" fill="#60962d" stroke="#0b572f" stroke-linecap="round" stroke-linejoin="round" stroke-width="8.2253"/>
<path d="m2185 1965-8-14c-39-77-27-176-9-281l18-99 2 38c4 96 5 193 3 292l-2 59z" fill="#346d32"/>
<path d="m2082 1639c25 151 40 312 108 405 23-180-33-300-108-405z" fill="#60962d" stroke="#0b572f" stroke-linecap="round" stroke-linejoin="round" stroke-width="8.2253"/>
<path d="m2187 2032-5-9c-43-68-62-167-78-271l-14-87 7 25c28 93 54 187 78 284l13 52z" fill="#346d32"/>
<path d="m2312 1953c-103 88-155 263-174 436 131-23 132-283 174-436z" fill="#60962d" stroke="#0b572f" stroke-linecap="round" stroke-linejoin="round" stroke-width="11.061"/>
<path d="m2145 2381 7-56c22-139 68-272 145-351l2-1-144 405z" fill="#346d32"/>
<path d="m2136 2419c36-120-5-43-77-248-19-56-16-180 39-191 21 57 62 112 68 210-15-93 52-264 107-304-63 156-40 316-85 520-5 21-8 50-1 72z" fill="#60962d" stroke="#0b572f" stroke-linecap="round" stroke-linejoin="round" stroke-width="8.2253"/>
<path d="m2084 1989c7-2 5-8 9-5 9 185 63 212 60 363-2 8-24-35-6-11-68-82-140-256-63-347zm82 165c-9-49 69-252 87-244l4-4-13 25c-56 115-49 148-63 258-3-12 5 115-1 99-5-12-16-123-14-134z" fill="#346d32"/>
<path d="m2230 2400c-99 79-218 148-219 257 178-33 217-136 219-257z" fill="#60962d" stroke="#0b572f" stroke-linecap="round" stroke-linejoin="round" stroke-width="8.2253"/>
<path d="m2016 2652 1-14c10-70 71-124 140-177l66-51-18 25c-48 61-98 122-152 182l-32 34z" fill="#346d32"/>
<path d="m2002 2373c-4 124-27 256 58 328 91-151 35-246-58-328z" fill="#60962d" stroke="#0b572f" stroke-linecap="round" stroke-linejoin="round" stroke-width="8.2253"/>
<path d="m2059 2695-11-11c-48-53-50-133-46-217l4-82 7 30c17 74 32 151 43 229l6 46z" fill="#346d32"/>
<path d="m1870 2825c112-65 131-155 172-280 19-61 79-151 138-165-13 52-26 104-50 156 44-31 90-63 137-94-56 154-145 275-312 374-19 12-40 32-52 53z" fill="#60962d" stroke="#0b572f" stroke-linecap="round" stroke-linejoin="round" stroke-width="8.2253"/>
<path d="m1906 2831-7-20 11-8c81-63 100-147 135-257 17-53 65-127 115-154l14-5-2 7-9 8c-118 129-121 284-257 429zm222-291h2c1 0 2 0 3-1 22-15 44-31 67-46l58-40-1 2-4 4c-93 82-140 150-206 244 25-42 48-83 66-125z" fill="#346d32"/>
<path d="m2087 2761c-122 44-261 74-299 178 182 25 255-62 299-178z" fill="#60962d" stroke="#0b572f" stroke-linecap="round" stroke-linejoin="round" stroke-width="8.3824"/>
<path d="m1800 2936-11-1 5 1 6-14c34-64 111-96 195-125l81-28-26 18c-67 44-135 86-208 127z" fill="#346d32"/>
<path d="m1860 2689c-71 103-163 204-131 308 160-81 166-191 131-308z" fill="#60962d" stroke="#0b572f" stroke-linecap="round" stroke-linejoin="round" stroke-width="8.2253"/>
<path d="m1732 2991-3-14c-12-70 30-138 80-208l48-68-10 29c-27 72-56 144-90 217l-20 41z" fill="#346d32"/>
<path d="m1582 3085 149-128 212-227c-26 94-59 185-147 254 66-35 147-53 231-66-81 70-171 125-290 125l-121 53z" fill="#60962d" stroke="#0b572f" stroke-linecap="round" stroke-linejoin="round" stroke-width="8.2253"/>
<path d="m1597 3086-7-3 144-123v-1l200-213h-1l-12 24c-69 119-179 226-316 311zm172-82 23-20 1 3c1 1 3 2 5 1 49-27 107-43 168-55l47-8-10 5c-78 39-164 70-234 74z" fill="#346d32"/>
<path d="m877 3386c102-32 288-170 393-188 109-17 221-26 335-25l195-82 27 2c-101-45-210-42-318 0 84-44 128-125 108-184-85 42-177 86-242 174l-104 85c-107 33-235 65-352 97-5 41-42 68-42 121z" fill="#60962d" stroke="#0b572f" stroke-linecap="round" stroke-linejoin="round" stroke-width="8.2253"/>
<g fill="#346d32">
<path d="m1271 3172c1 0 2 0 2-1l105-85v-1c57-77 105-106 174-141l62-31 5 18-59 49c-54 60-126 85-198 152 41-2 84-5 111-22 6-5 13-9 20-12l13-8-1 1c-2 4 2 8 5 6 94-37 189-44 278-15l13 6c-1-1-2 0-2 0l-19 8h-25c-98 3-201 5-275 43l-209 34z"/>
<path d="m896 3376 21-37 8-26c10-3 43-31 325-118l29-2-5 1c-127 33-253 125-378 182z"/>
</g>
</g>
<path d="m1261 3213c11 46 14 98 38 132 55.14 95.444 253.05 61.347 374.41-51.914 19.25-14.129 47.625-20.907 109.8-19.571l-5.527-67.854c-40.245-3.0336-82.27 7.284-124.86 21.816-69.831 32.006-169.25 158.94-266.83 99.525-69-71-66-98-84-140z" fill="#4179ad"/>
<path d="m1274 3210 15-8c10 28 35.569 100.44 71.569 136.44 36.616 28.053 84.735 24.477 123.43 13.145 108.97-31.316 93.87-59.279 140.75-88.917 48.868-29.1 100.54-40.417 154.41-37.86l2.8132 30.189c-59.874 5.528-108.61-1.9304-158.93 55.122-50.833 30.348-85.542 64.192-192.02 77.049-48.171-4.4098-79.445-16.162-104.48-44.164-31-33-38.532-87.006-52.532-133.01z" fill="#ececec"/>
</g>
<g transform="matrix(-1 0 0 1 2323.7 -394.73)">
<path d="m2165 2203c-50-86-115-164-98-284 108 36 116 150 98 283z" fill="#60962d"/>
<path d="m2165 2203c-50-86-115-164-98-284 108 36 116 150 98 283m0 1z" fill="none" stroke="#0b572f" stroke-linecap="round" stroke-linejoin="round" stroke-width="6.141"/>
<path d="m2067 1951 2-25 3 1 15 38c25 65 47 132 67 200l8 26-34-55c-34-56-63-112-61-185z" fill="#346d32"/>
<g transform="translate(0 -5.488)">
<path d="m1874 1031c36 113 64 234 133 299 4-140-56-226-133-299z" fill="#60962d" stroke="#0b572f" stroke-linecap="round" stroke-linejoin="round" stroke-width="6.2685"/>
<path d="m2004 1322-18-21c-37-48-60-115-82-185l-21-68 10 21c32 68 64 137 95 209l16 40z" fill="#346d32"/>
<path d="m1970 1033c-1 107-15 220 39 285 56-129 21-212-39-285z" fill="#60962d" stroke="#0b572f" stroke-linecap="round" stroke-linejoin="round" stroke-width="5.4832"/>
<path d="m2008 1312-6-8c-31-48-33-117-31-190l2-70 4 25c11 65 21 131 29 199l4 40z" fill="#346d32"/>
<path d="m1743 1096c85 97 165 211 266 228-53-158-153-207-266-228z" fill="#60962d" stroke="#0b572f" stroke-linecap="round" stroke-linejoin="round" stroke-width="6.5826"/>
<path d="m2004 1320-13-3c-66-20-124-81-182-149l-55-64 25 19c63 51 125 103 187 159l36 33z" fill="#346d32"/>
<path d="m2076 1235c8 81-77 142 46 225 27-81 32-166-46-225z" fill="#60962d" stroke="#0b572f" stroke-linecap="round" stroke-linejoin="round" stroke-width="8.2253"/>
<path d="m2113 1449-9-7c-84-69-25-120-23-192v-6l6 5 1 1 3 15c11 57 0 116 20 178z" fill="#346d32"/>
<path d="m2175 1740c-15-69-30-139-22-204 51-96 14-135 25-221-36 27-67 65-76 106-13-57-45-110-73-150-12 42-25 83-22 129-38-35-75-39-113-42 116 88 35 148 211 278l42 124z" fill="#60962d" stroke="#0b572f" stroke-linecap="round" stroke-linejoin="round" stroke-width="8.2253"/>
<path d="m2152 1750-5-2-38-113c0-1-1-1-2-2-166-123-102-181-191-261l-10-8h10l8 4c81 47 110 190 202 260zm-52-326c2 2 6 1 6-2 6-30 25-58 49-82l18-15-11 29c-26 81-36 163-47 251-27-80-29-136-15-180zm-89-23v-10l1-7c1-21 4-42 9-64l4-20 6-20v1l10 67c12 72 31 144 59 215-68-36-90-92-89-159z" fill="#346d32"/>
<path d="m2297 1568c-68 184-158 370-120 525 160-177 161-352 120-525z" fill="#60962d" stroke="#0b572f" stroke-linecap="round" stroke-linejoin="round" stroke-width="8.2253"/>
<path d="m2180 2084-4-21c-16-108 24-230 72-356l47-125 2 9-2 42c-9 122-32 246-71 371l-13 42-9 12z" fill="#346d32"/>
<path d="m2012 1642c11 98 99 204 200 290 42-86-122-199-200-290z" fill="#60962d" stroke="#0b572f" stroke-linecap="round" stroke-linejoin="round" stroke-width="8.2253"/>
<path d="m2210 1925-32-29c-79-73-143-157-159-237v-1l194 259z" fill="#346d32"/>
<path d="m2185 1555c-25 152-71 312 0 418 116-169 78-298 0-418z" fill="#60962d" stroke="#0b572f" stroke-linecap="round" stroke-linejoin="round" stroke-width="8.2253"/>
<path d="m2185 1965-8-14c-39-77-27-176-9-281l18-99 2 38c4 96 5 193 3 292l-2 59z" fill="#346d32"/>
<path d="m2082 1639c25 151 40 312 108 405 23-180-33-300-108-405z" fill="#60962d" stroke="#0b572f" stroke-linecap="round" stroke-linejoin="round" stroke-width="8.2253"/>
<path d="m2187 2032-5-9c-43-68-62-167-78-271l-14-87 7 25c28 93 54 187 78 284l13 52z" fill="#346d32"/>
<path d="m2312 1953c-103 88-155 263-174 436 131-23 132-283 174-436z" fill="#60962d" stroke="#0b572f" stroke-linecap="round" stroke-linejoin="round" stroke-width="11.061"/>
<path d="m2145 2381 7-56c22-139 68-272 145-351l2-1-144 405z" fill="#346d32"/>
<path d="m2136 2419c36-120-5-43-77-248-19-56-16-180 39-191 21 57 62 112 68 210-15-93 52-264 107-304-63 156-40 316-85 520-5 21-8 50-1 72z" fill="#60962d" stroke="#0b572f" stroke-linecap="round" stroke-linejoin="round" stroke-width="8.2253"/>
<path d="m2084 1989c7-2 5-8 9-5 9 185 63 212 60 363-2 8-24-35-6-11-68-82-140-256-63-347zm82 165c-9-49 69-252 87-244l4-4-13 25c-56 115-49 148-63 258-3-12 5 115-1 99-5-12-16-123-14-134z" fill="#346d32"/>
<path d="m2230 2400c-99 79-218 148-219 257 178-33 217-136 219-257z" fill="#60962d" stroke="#0b572f" stroke-linecap="round" stroke-linejoin="round" stroke-width="8.2253"/>
<path d="m2016 2652 1-14c10-70 71-124 140-177l66-51-18 25c-48 61-98 122-152 182l-32 34z" fill="#346d32"/>
<path d="m2002 2373c-4 124-27 256 58 328 91-151 35-246-58-328z" fill="#60962d" stroke="#0b572f" stroke-linecap="round" stroke-linejoin="round" stroke-width="8.2253"/>
<path d="m2059 2695-11-11c-48-53-50-133-46-217l4-82 7 30c17 74 32 151 43 229l6 46z" fill="#346d32"/>
<path d="m1870 2825c112-65 131-155 172-280 19-61 79-151 138-165-13 52-26 104-50 156 44-31 90-63 137-94-56 154-145 275-312 374-19 12-40 32-52 53z" fill="#60962d" stroke="#0b572f" stroke-linecap="round" stroke-linejoin="round" stroke-width="8.2253"/>
<path d="m1906 2831-7-20 11-8c81-63 100-147 135-257 17-53 65-127 115-154l14-5-2 7-9 8c-118 129-121 284-257 429zm222-291h2c1 0 2 0 3-1 22-15 44-31 67-46l58-40-1 2-4 4c-93 82-140 150-206 244 25-42 48-83 66-125z" fill="#346d32"/>
<path d="m2087 2761c-122 44-261 74-299 178 182 25 255-62 299-178z" fill="#60962d" stroke="#0b572f" stroke-linecap="round" stroke-linejoin="round" stroke-width="8.3824"/>
<path d="m1800 2936-11-1 5 1 6-14c34-64 111-96 195-125l81-28-26 18c-67 44-135 86-208 127z" fill="#346d32"/>
<path d="m1860 2689c-71 103-163 204-131 308 160-81 166-191 131-308z" fill="#60962d" stroke="#0b572f" stroke-linecap="round" stroke-linejoin="round" stroke-width="8.2253"/>
<path d="m1732 2991-3-14c-12-70 30-138 80-208l48-68-10 29c-27 72-56 144-90 217l-20 41z" fill="#346d32"/>
<path d="m1582 3085 149-128 212-227c-26 94-59 185-147 254 66-35 147-53 231-66-81 70-171 125-290 125l-121 53z" fill="#60962d" stroke="#0b572f" stroke-linecap="round" stroke-linejoin="round" stroke-width="8.2253"/>
<path d="m1597 3086-7-3 144-123v-1l200-213h-1l-12 24c-69 119-179 226-316 311zm172-82 23-20 1 3c1 1 3 2 5 1 49-27 107-43 168-55l47-8-10 5c-78 39-164 70-234 74z" fill="#346d32"/>
<path d="m877 3386c102-32 288-170 393-188 109-17 221-26 335-25l195-82 27 2c-101-45-210-42-318 0 84-44 128-125 108-184-85 42-177 86-242 174l-104 85c-107 33-235 65-352 97-5 41-42 68-42 121z" fill="#60962d" stroke="#0b572f" stroke-linecap="round" stroke-linejoin="round" stroke-width="8.2253"/>
<g fill="#346d32">
<path d="m1271 3172c1 0 2 0 2-1l105-85v-1c57-77 105-106 174-141l62-31 5 18-59 49c-54 60-126 85-198 152 41-2 84-5 111-22 6-5 13-9 20-12l13-8-1 1c-2 4 2 8 5 6 94-37 189-44 278-15l13 6c-1-1-2 0-2 0l-19 8h-25c-98 3-201 5-275 43l-209 34z"/>
<path d="m896 3376 21-37 8-26c10-3 43-31 325-118l29-2-5 1c-127 33-253 125-378 182z"/>
</g>
</g>
</g>
<path d="m698.69 2985.8c32-13 68-43 80-123-71-8-86 47-80 123z" fill="#e7c662" stroke="#0b572f" stroke-linecap="round" stroke-linejoin="round" stroke-width="8.3316"/>
<path d="m908.69 2663.3c1 48 64 83 113 108 16 9 34-8 36-22-63-50-87-98-91-120-18 8-70-8-58 34z" fill="#4179ad"/>
<path d="m1108.7 2764.3 34 18c38-37 115-80 110-125l-68-8c10 17-50 81-76 115z" fill="#4179ad"/>
<path d="m920.69 2641.3c12-2 6-14 22-10 12 35 62 102 112 130 5 3-28-4-22 7-49-30-116-92-112-127z" fill="#ececec"/>
<path d="m1204.7 2651.3c-10 33-38 79-76 105l-2 13c42-20 96-71 112-124z" fill="#e6e6e6"/>
<path d="m962.69 2593.3c171 29 164 6 254 1 46 17 44 37 34 78-94-47-137 11-190-8-72-26-149-16-150 2-6-36 13-64 52-73z" fill="#3e7fd0"/>
<path d="m926.69 2610.3c-14 11-20 32-19 40 33-12 73-26 126-14 64 22 85 1 121-5 80-7 95 7 99 24 3-13 7-31-7-44-36-10-65-4-93 3-51 17-100 10-153-3-37-8-55-4-74-1z" fill="#fff"/>
<path d="m1028.7 2771.3c4-11 9-21 22-26 23-7 44-6 64-2 17 1 26 15 35 31 1 10 2 19-5 32-17 29-30 22-45 28-11-1-19-1-37-4-20-1-35-15-35-20-2-12-2-25 1-39z" fill="#3e7fd0"/>
<path d="m1072.7 2743.3c-17 19-15 52-4 90 6 2 13 5 23 1 40-41 19-80 12-93-7-3-25-3-31 2z" fill="#fff"/>
<path d="m1446.7 2985.8c-32-13-68-43-80-123 71-8 86 47 80 123z" fill="#e7c662" stroke="#0b572f" stroke-linecap="round" stroke-linejoin="round" stroke-width="8.3316"/>
<g transform="translate(303.11 532.35)" fill-rule="nonzero" stroke-width="6.011">
<path d="m733.17 2013.8 1.6095-343.36h-78.956v-74.815h78.956v-57.114l75.21-0.088v57.202h76.334v74.815h-76.334l1.5946 343.36z" fill="#a54b00" stroke="#844500" stroke-opacity=".99608"/>
<path d="m750.51 1997.1v-340.08h-80.984v-49.2h80.984v-54.433h43.762v54.433h78.144v49.2h-78.144v340.08z" fill="#b45a00" stroke="#b44d00"/>
</g>
<path d="m1262.9 2538.5c134.01-38.546 336.47-171.53 450.65-429.85-29.777 6.2401-54.076 22.074-78.888 35.378-16.905 9.0643-43.629 11.206-62.149 18.061-13.533 5.0085-29.456 6.8156-32.728 21.901 1.9927 11.815 3.3403 20.942 12.954 32.051 11.995 13.861 9.5348 34.924 3.055 61.904-14.765 19.292-64.985 15.296-102.79 6.4477-35.772-6.346-41.246 17.163-38.774 39.256 2.2552 20.865 8.3948 51.938-7.8801 74.759-6.4134 12.518-29.473 13.287-32.104 1.4046-4.5394-16.765 8.8244-45.087-22.997-44.239-23.787 11.253-30.109 42.614-43.946 65.324-36.731 35.832-12.68 89.763-44.405 117.61z" fill="#cd5329" stroke="#8d2313" stroke-linecap="round" stroke-linejoin="round" stroke-width="9.3738"/>
<g transform="matrix(.90584 .28681 -.32741 .79352 404.76 -448.76)">
<path d="m1118.2 1155.2c-16.415 35.388 24.988 84.822 63.535 85.039-92.788 61.381-110.16 113.35-121.38 183.52 109 28 285.39 4.9401 395.39 8.9401-22.078-157.44-76.729-291.82-190.94-321.64-51.15-14.272-122.76 10.464-146.61 44.143z" fill="#d83a26" stroke="#894344" stroke-width="3.7032"/>
<path d="m1165.7 1256.1c-9.7662 6.2504-35.678 25.635-35.678 25.635 18.259-11.774 217.72-40.051 250.78 9.063-13.216-34.622-108.1-95.698-215.1-34.698z" fill="#cf3a25"/>
<path d="m1183.4 1241.2c-9.7662 6.2504-35.678 25.635-35.678 25.635 9.9756-23.252 185.02-46.099 233.17 23.918-13.216-34.622-90.492-110.55-197.49-49.553z" fill="#c23624"/>
<path d="m1061 1518-0.6596-94.248c10-27 38.47-39.125 61.47-44.125 97-19 150.25-21.288 258.25-2.2882 23 6 68.667 31.353 75.667 55.353 3.4918 42.235 23.269 67.308-4.7308 93.308 0-2 1-7 0-9-112-83-326-58-390 1z" fill="#e45430" stroke="#894344" stroke-width="3.7032"/>
<path d="m1178.2 1242.1c73.573-37.472 161.26-28.918 202.68 48.662" fill="none" stroke="#894344" stroke-width="3.7032px"/>
</g>
<path d="m439.25 2122.4c40.705 74.096 85.77 150.86 150.78 222.59 48.51 53.525 106.46 103.69 190.95 150.83 34.927 19.487 71.443 34.884 111.55 44.924-31.967-33.151-73.069-54.186-44.619-150.93 11.522-16.264 16.17-18.532 7.4864-31.971 2.0108-31.079 6.0535-52.68-27.351-36.669-19.066 16.241-30.144 78.027-64.06 79.375-55.299-13.408 9.9833-64.318-17.391-86.92-11.07-17.281-58.053 15.28-72.866 7.4465-17.631-23.205 31.802-63.395 6.371-93.978-17.993-10.642-28.924 15.803-43.259 24.374-10.342 5.3492-33.128 7.3387-44.497 3.9843-11.247-7.47-12.405-16.208-15.067-28.489 0.86538-14.944 7.8547-27.145 27.364-52.384 5.6447-9.6884 16.974-18.56 3.9809-30.926-6.7983-6.1603-18.465-3.8974-27.256-1.9914-72.948 15.816-104.04-14.164-142.11-19.262z" fill="#cd5329" stroke="#8d2313" stroke-linecap="round" stroke-linejoin="round" stroke-width="9.3738"/>
<g transform="translate(2913.2 543.19)">
<path d="m-1923.7 2019.1c-23.57 1.4462-43.238-10.163-64.032-15.197-16.292-27.722-20.499-30.227-28.981-66.055 0 0-1.8686-2.789-4.5771-7.2387-6.8358-11.231-19.021-33.04-20.012-47.286-1.0567-15.187 12.449-28.614 12.829-43.834 0.4214-16.85-11.76-49.179-11.76-49.179s26.616 31.062 31.004 50.248c2.3168 10.128-5.3912 20.846-3.2073 31.004 3.7258 17.33 26.728 45.972 26.728 45.972l7.4837-26.728 21.382 34.212s17.269-10.859 22.451-19.244c3.0899-4.9996 4.1149-11.23 4.2764-17.106 0.2594-9.4318-5.3455-27.797-5.3455-27.797s21.447 7.9052 28.866 16.037c8.9258 9.7834 16.036 36.35 16.036 36.35s-0.6061-28.332 5.3456-40.626c7.5773-15.652 27.64-22.368 36.35-37.419 3.8984-6.7366 5.7336-14.698 6.4147-22.451 0.909-10.35-3.2074-31.004-3.2074-31.004s16.292 22.186 18.175 35.281c1.3433 9.3393-2.8491 18.698-5.3456 27.797-2.5053 9.1316-8.602 17.314-9.6219 26.728-0.8904 8.2178 3.2073 24.59 3.2073 24.59s10.784-26.232 19.244-37.419c8.8205-11.665 25.484-16.879 32.073-29.935 4.2022-8.3268-1.7032-19.867 3.2073-27.797 11.521-18.604 41.878-15.517 41.695-14.968 0 0-22.129 14.893-25.659 26.728-3.3158 11.119 9.5289 23.035 6.4146 34.212-3.5907 12.886-21.96 17.437-26.728 29.935-3.4294 8.9901-1.4423 19.353 0 28.866 1.622 10.699 9.622 31.004 9.622 31.004s6.9254-26.765 13.898-38.488c4.3874-7.3763 17.106-19.244 17.106-19.244s1.7648 20.736 7.4838 28.866c5.4595 7.7612 23.52 16.037 23.52 16.037s16.904-15.739 22.451-25.659c5.2814-9.4446 1.0651-24.38 9.622-31.004 5.9247-4.5861 15.368 1.3725 22.451-1.0691 9.909-3.4156 25.659-18.175 25.659-18.175s-0.9774 24.519-7.4837 34.211c-6.9972 10.423-25.554 10.073-31.004 21.382-4.4975 9.3321 2.1382 31.004 2.1382 31.004 15.322 21.314 13.707 39.99 17.534 67.749-17.001 9.4086-48.188 18.865-65.644 16.711-59.233 9.3202-133.38 10.416-202.06 0z" fill="#f00" stroke="#d40000" stroke-linecap="round" stroke-linejoin="round" stroke-width="4.6869"/>
<path d="m-1763.8 1797.1c-6.0246 1.816-11.776 4.498-15.037 9.7644-1.0546 1.703-1.2071 4.9413-0.8788 9.7644s1.1819 11.073-2.0505 17.478c-4.1631 8.2492-11.128 13.456-17.381 17.966-6.2523 4.5103-11.959 8.4968-15.428 13.084-3.5331 4.6724-8.4347 13.892-12.108 21.677-3.6731 7.7849-6.2492 14.158-6.2492 14.158-2.4342 6.0645-11.209 5.4617-12.791-0.8788 0 0-1.0895-4.2957-2.0505-9.6667-0.961-5.3711-1.9835-11.593-1.367-17.283 1.2868-11.876 7.8274-20.413 9.862-27.828 2.6991-9.8375 6.2435-18.248 5.2728-24.997-0.1615-1.1238-1.0885-3.0794-1.6599-4.6869-0.7348 8.3648-2.6159 17.324-7.2257 25.29-5.2652 9.0986-13.298 14.941-20.31 20.408-7.0116 5.4665-12.983 10.444-15.916 16.502-2.0477 4.2298-3.6466 14.172-4.1986 22.458-0.5521 8.2861-0.3906 15.037-0.3906 15.037 0.4612 8.1988-11.361 9.9373-13.28 1.9529 0 0-1.6952-6.3197-4.4916-13.865-2.7963-7.5457-7.0322-16.311-10.057-19.626-2.0615-2.2596-8.2323-5.9067-13.768-8.6903 1.1751 5.2301 2.1923 10.86 2.0506 16.014-0.1799 6.5405-1.207 13.926-5.2728 20.505-3.668 5.935-9.6196 10.692-14.842 14.647-5.2223 3.9543-9.7644 6.7374-9.7644 6.7374-3.1497 2.0501-7.3677 1.1274-9.3738-2.0505l-13.28-21.286-3.4176 12.01c-1.5227 5.2301-8.3 6.5856-11.717 2.3435 0 0-5.8993-7.3874-12.303-16.99-6.4038-9.6027-13.419-21.027-15.721-31.734-1.5369-7.1484 0.295-13.46 1.6599-18.65 1.365-5.1903 2.2432-9.3266 1.5623-12.303-0.9722-4.2501-3.9096-10.099-7.4209-16.209 0.8476 4.7714 1.5719 9.5769 1.4647 13.865-0.2388 9.5457-4.2747 17.433-7.5186 24.509-3.244 7.0759-5.654 13.171-5.2728 18.65 0.5296 7.6113 6.2037 21.213 12.01 32.027s11.424 19.236 11.424 19.236c8.2939 22.278 4.0684 26.838 18.971 44.657 5.394 7.3935 12.084 24.928 16.923 26.1 22.128 5.3581 34.069 6.5492 56.379 9.5062 46.931 13.647 123.57 13.706 191.77 0.6835 8.8621-12.2 54.661 4.4275 61.23-14.099 0.1261-42.014-6.2054-43.441-14.166-64.406 0 0-1.7471-5.7229-2.9294-12.791s-2.524-15.376 1.1718-23.044c4.0385-8.3798 12.041-11.58 18.357-14.256 6.3156-2.6755 11.243-5.0205 13.182-7.9091 1.5004-2.2351 2.9498-8.6824 4.1011-14.451-4.4822 3.3661-9.3741 6.6136-14.549 8.3973-6.0095 2.0715-11.121 0.5691-14.842 0-3.7211-0.569-5.1882-0.2701-5.6634 0.098-1.9149 1.4822-2.8695 4.4529-3.5152 9.862s-0.6437 12.432-4.3939 19.138c-3.4551 6.1787-9.1827 12.528-14.256 17.869s-9.4715 9.3739-9.4715 9.3739c-1.9845 1.8944-4.9195 2.3964-7.4209 1.2693 0 0-4.8349-2.2253-10.35-5.468-5.5154-3.2428-11.73-7.0769-15.818-12.889-3.8015-5.4042-5.3747-12.014-6.5421-18.064-2.6343 2.9534-5.622 6.1314-6.7374 8.0068-2.8412 4.7766-6.4253 14.301-8.9833 22.263-2.5577 7.9619-4.1985 14.451-4.1985 14.451-1.6371 6.3156-10.398 6.8506-12.791 0.7811 0 0-8.0377-19.74-9.9597-32.418-1.4139-9.3259-3.9645-20.904 0.3906-32.32 3.3144-8.6887 10.434-13.499 16.014-17.771 5.5797-4.2719 9.4933-7.8433 10.546-11.62 0.7471-2.6812-0.6064-6.9232-3.027-12.694-2.4205-5.7704-5.9457-13.102-3.4175-21.579 1.9467-6.5277 6.5077-11.479 11.229-16.014z" fill="#f60"/>
<path d="m-1777.7 1842.2c-5.0487 7.3496-11.193 12.77-16.502 16.6-6.433 4.6406-11.357 8.2673-13.67 11.327-2.678 3.5415-7.6522 12.632-11.229 20.212-3.5769 7.5809-6.1516 13.768-6.1516 13.768-5.528 13.338-24.859 11.943-28.414-2.0505 0 0-1.1329-4.481-2.1481-10.155-1.0152-5.6739-2.2915-12.093-1.4647-19.724 0.2431-2.2447 0.8174-4.0734 1.2694-6.054-0.6565 0.5056-1.4252 1.1724-2.0505 1.66-6.9407 5.4112-11.69 9.7816-13.572 13.67-0.9084 1.8763-2.795 11.455-3.3199 19.334-0.525 7.8783-0.3906 14.354-0.3906 14.354 0.4143 17.717-24.83 21.395-29.488 4.2963 0 0-1.642-6.0195-4.2963-13.182-1.9003-5.1278-4.127-8.745-6.0539-12.108-0.4005 6.7624-1.6103 14.366-6.2492 21.872-4.9902 8.0743-11.356 12.603-16.892 16.795-5.536 4.1919-10.35 7.2256-10.35 7.2256-7.0362 4.4029-16.31 2.2594-20.7-4.7845l-4.101-6.6398c-5.8134 7.9889-17.626 8.2794-23.825 0.5859 0 0-6.1654-7.6401-12.791-17.576-5.9446-8.9142-12.073-19.312-15.428-30.856-0.3108 1.3776-0.7499 2.8535-0.6835 3.8081 0.3303 4.7469 5.5362 18.286 11.131 28.707 5.5952 10.421 11.034 18.455 11.034 18.455 3.1435 4.6853 3.2349 10.176 1.1618 14.658 2.5357 16.929 18.244 35.806 32.998 61.992 92.416 22.636 157.24 22.484 237.86 10.607 1.7339-2.3871 24.506-2.7703 26.448-5.7938 2.4796-3.8606 31.687-5.4745 33.023-9.4223 2.6181-7.7363-0.1386-16.833-1.4198-30.934-3.4113-17.412-9.3133-21.404-13.804-31.539 0 0-1.938-6.1874-3.2222-13.865-0.3087-1.8463-0.4777-4.0461-0.7812-6.0539-1.844 2.0726-3.6947 4.1872-5.468 6.0539-5.2601 5.5368-9.7644 9.7644-9.7644 9.7644-4.4361 4.1758-10.956 5.256-16.502 2.734 0 0-5.132-2.3887-11.034-5.8586-5.9017-3.4699-12.796-7.1469-18.552-15.33-0.9707-1.38-1.2176-2.6482-1.9529-4.0034-1.9131 4.4041-3.8657 8.7691-5.5657 14.061-2.4827 7.728-4.101 14.061-4.101 14.061-3.6718 14.085-23.23 15.224-28.512 1.66 0 0-8.1577-19.069-10.448-34.175-1.379-9.0959-4.7101-22.124 0.7811-36.519 4.4568-11.683 13.247-17.172 18.748-21.384 5.5008-4.2116 7.4761-6.7229 7.6162-7.2256-0.1028 0.3685-0.9618-2.2598-1.1717-3.027zm101.65 40.913c-0.041 0.3251 0.17-0.4241-0.1953 2.6364-0.01 0.075 0.01 0.2162 0 0.2929 1.6046-0.9448 2.9748-1.5495 4.4916-2.2458-1.5699-0.2551-3.231-0.4948-4.2963-0.6835z" fill="#ff7f2a"/>
<path d="m-1864.7 1895.5c-0.4681 2.6715-0.6941 3.1839-0.8788 5.9563-0.494 7.4149-0.3906 13.475-0.3906 13.475 0.2275 12.302-8.7363 22.851-20.914 24.612-12.178 1.761-23.762-5.8163-27.029-17.679 0 0-0.096-0.2867-0.098-0.2929-6.322 9.8643-12.928 14.415-18.65 18.748-5.8924 4.4618-11.034 7.7138-11.034 7.7138-10.649 6.6922-24.639 4.1984-32.32-5.7609-5.1909 2.2114-10.988 2.5565-16.404 0.9764-0.4953 3.7937 0.3612 6.6368-1.6453 9.6619-0.8783 3.0739 2.3675 8.4534 6.4753 10.553 2.1063 3.7289 18.438 42.291 31.336 54.286 50.862 19.774 176.76 7.0698 242.62-4.8528 2.5746-1.6123 23.675 1.7822 33.144-6.2336 6.0398-5.1129 2.4978-21.422 2.1443-25.354-1.0906-8.213-5.2106-15.534-5.7853-21.732-0.3211-3.4629-10.527-12.528-12.623-15.547 0 0-0.5364-2.5234-0.6835-3.0269-0.7953 0.7604-3.2222 3.1246-3.2222 3.1246-7.2506 6.7464-17.859 8.4437-26.852 4.2963 0 0-5.4739-2.5211-11.815-6.2492-3.8916-2.2881-8.2845-5.15-12.791-8.9832-1.9462 6.2613-3.5152 12.01-3.5152 12.01-5.9412 22.937-37.786 24.814-46.381 2.734 0 0-8.2273-18.359-10.936-36.226-0.3575-2.358-0.7763-6.0434-1.2693-9.1785-0.659 1.5383-2.3435 5.1751-2.3435 5.1751-9.0058 21.64-40.367 19.385-46.186-3.3199 0 0-1.0632-4.3908-1.9529-8.8856z" fill="#ffbe2a"/>
<path d="m-1856.8 1931c-10.544 22.692-40.072 28.646-58.586 11.815-3.4518 3.0367-6.6836 5.3573-9.6668 7.6162-6.3732 4.8259-11.912 8.2998-11.912 8.2998-2.424 1.4965-5.0124 2.7087-7.7139 3.6128-17.372 3.0083-41.255-10.1-41.255-10.1 2.7316 10.321 27.658 54.033 37.335 65.74 36.456 8.0254 154.68 14.333 218.49 2.3059 5.804-4.4783 44.894-9.5364 45.955-14.777 1.2667-6.2563-1.071-43.623-17.022-51.118-2e-4 -1e-4 -9.6684 9.8974-20.681 8.6328-3.7843-0.4731-7.473-1.527-10.936-3.1246 0 0-5.8638-2.7622-12.401-6.5421-12.926 30.568-56.417 30.073-68.644-0.7812 0 0-4.1914-8.8422-7.8115-21.482-10.99 5.8744-24.195 5.8378-35.152-0.098z" fill="#ffdd2a"/>
</g>
<path d="m1836.7 1557.3c0 561-341 1016-762 1016-422 0-763-455-763-1016 0-562 341-1017 763-1017 421 0 762 455 762 1017z" fill="none" stroke="#424d65" stroke-width="16.224"/>
</g>
<path d="m153.57 247.67c-9e-3 -0.0227-0.0118-3.5056-9e-3 -7.7398l9e-3 -7.6985h3.407c3.1402 0 3.434 4e-3 3.751 0.0593 2.0681 0.35675 3.4512 1.6931 3.8208 3.6916 0.0828 0.44757 0.0837 1.5313 0 1.982-0.1736 0.95304-0.59009 1.7672-1.232 2.4083-0.6538 0.65308-1.4641 1.0522-2.5412 1.2519-0.32733 0.0606-0.54028 0.0687-2.3259 0.087l-1.9656 0.0201-0.033 5.9622-1.4341 9e-3c-1.1298 6e-3 -1.4374-4.1e-4 -1.4499-0.0328zm6.5268-8.8044c0.98544-0.12802 1.6111-1.0442 1.483-2.1716-0.10443-0.9187-0.66275-1.5324-1.4839-1.6311-0.15264-0.0183-0.9857-0.0283-1.9384-0.023l-1.6708 0.01-9e-3 1.8837c-9e-3 1.036 0 1.9021 9e-3 1.9246 0.0125 0.032 0.38106 0.0407 1.6956 0.04 0.92403-5.7e-4 1.7862-0.0148 1.9158-0.0316zm5.5904 8.7716c0.0107-0.0407 1.3377-3.5236 2.9498-7.7398l2.9311-7.6658 0.91507-0.01c0.70706-6e-3 0.92261 7.3e-4 0.94828 0.0328 0.0573 0.0712 5.9046 15.396 5.8861 15.426-0.01 0.0157-0.70995 0.0285-1.5561 0.0285h-1.5385l-0.033-0.0737c-0.0181-0.0405-0.21327-0.58967-0.43368-1.2203l-0.40086-1.1466-5.6844-0.018-0.033 0.0739c-0.0181 0.0406-0.21406 0.58986-0.43487 1.2205l-0.40156 1.1466-3.133 0.018zm8.6311-5.278c-0.0212-0.15538-1.7806-5.131-1.8147-5.1314-0.037-4.2e-4 -1.8178 5.0504-1.8164 5.151 0 0.0539 0.10961 0.0573 1.8212 0.0573h1.8203zm9.063 5.3107c-9e-3 -0.0227-0.0188-2.8717-0.0236-6.3312l-9e-3 -6.2899-4.1932-0.0328v-2.7846h11.368v2.7846l-4.1932 0.0328-0.033 12.645-1.4505 9e-3c-1.143 6e-3 -1.4538-3.9e-4 -1.4661-0.0328zm8.452 0c-9e-3 -0.0227-0.0118-3.5056-9e-3 -7.7398l9e-3 -7.6985h3.6854c3.4029 0 3.7085 4e-3 3.9857 0.0585 1.7801 0.3466 2.9789 1.6446 3.3075 3.581 0.0778 0.45687 0.0778 1.4814 4.7e-4 1.946-0.25168 1.5103-1.0043 2.601-2.2157 3.2108-0.15311 0.0771-0.37423 0.17257-0.49137 0.21218-0.11712 0.0395-0.21704 0.0931-0.22214 0.11899-9e-3 0.0258 0.80211 1.4462 1.7936 3.1563 0.99151 1.7102 1.8028 3.1287 1.8028 3.1523 0 0.0348-0.32624 0.0429-1.7323 0.0429-1.5263 0-1.7373-5e-3 -1.7745-0.0509-0.0236-0.028-0.81177-1.4248-1.7524-3.104l-1.7103-3.0531h-1.7612l-0.033 6.1916-1.4342 9e-3c-1.1298 6e-3 -1.4374-4.1e-4 -1.4498-0.0328zm7.1071-9.1247c0.4157-0.19684 0.66841-0.50265 0.82952-1.0037 0.0747-0.23187 0.0851-0.3202 0.0849-0.70722-4e-4 -0.36967-0.0125-0.48224-0.0762-0.68591-0.15097-0.48546-0.41405-0.80752-0.81389-0.99641l-0.21815-0.10303h-3.9967l-9e-3 1.769c-9e-3 0.97297 0 1.7883 9e-3 1.8118 0.0134 0.0347 0.38836 0.0409 1.9905 0.0328l1.9741-0.0107zm6.914 9.1247c-9e-3 -0.0227-0.0118-3.5056-9e-3 -7.7398l9e-3 -7.6985h3.0138v15.463l-1.4996 9e-3c-1.1822 6e-3 -1.503-4e-4 -1.5153-0.0328zm4.779-0.0328c0.0107-0.0407 1.3377-3.5236 2.9498-7.7398l2.9311-7.6658 0.91506-0.01c0.70707-6e-3 0.92262 7.1e-4 0.94829 0.0328 0.0573 0.0713 5.9047 15.396 5.8861 15.426-0.01 0.0157-0.70989 0.0285-1.5561 0.0285h-1.5385l-0.033-0.0737c-0.0181-0.0405-0.21319-0.58968-0.43368-1.2203l-0.40087-1.1466-5.6844-0.018-0.033 0.0739c-0.0181 0.0406-0.21406 0.58986-0.43487 1.2205l-0.40156 1.1466-3.133 0.018zm8.6311-5.278c-0.0212-0.15538-1.7806-5.131-1.8147-5.1314-0.0369-4.2e-4 -1.8178 5.0504-1.8164 5.151 7.1e-4 0.0539 0.10971 0.0573 1.8212 0.0573h1.8203zm29.21 5.3105c-9e-3 -0.0225-0.0118-3.5054-9e-3 -7.7396l9e-3 -7.6985h2.8828l0.033 12.678 7.4365 0.0328v2.7518l-5.1688 9e-3c-4.1178 5e-3 -5.172 0-5.1844-0.0328zm12.285 4.1e-4c-9e-3 -0.0227-0.0118-3.5056-9e-3 -7.7398l9e-3 -7.6985h3.0139v15.463l-1.4996 9e-3c-1.1823 6e-3 -1.503-3.9e-4 -1.5154-0.0328zm6.2569-4.1e-4c-9e-3 -0.0225-0.0118-3.5053-9e-3 -7.7395l9e-3 -7.6985h3.4562c2.658 0 3.5318 0.0107 3.7837 0.0429 2.1351 0.27928 3.4125 1.4082 3.7325 3.2986 0.0652 0.38636 0.0763 1.1771 0.0196 1.4906-0.25357 1.416-1.2003 2.3308-2.7613 2.6681-0.14484 0.0313-0.10497 0.0697 0.11468 0.11029 0.47296 0.0875 1.1565 0.37179 1.4887 0.61907 0.35506 0.26426 0.73981 0.68761 0.93847 1.0327 0.14328 0.24899 0.30714 0.70722 0.3846 1.0756 0.0991 0.47163 0.10057 1.3544 0 1.8815-0.22246 1.2025-0.8369 2.082-1.8452 2.6411-0.48994 0.2717-1.0528 0.44896-1.764 0.55561-0.38083 0.0571-0.659 0.0614-3.9732 0.0622-2.8213 6.2e-4 -3.5669-9e-3 -3.5792-0.0403zm6.8644-2.8226c1.024-0.24356 1.5506-1.0235 1.4092-2.0871-0.0997-0.75024-0.50432-1.228-1.2376-1.4612l-0.28624-0.091h-3.8329l-9e-3 1.8182c-9e-3 0.99999 0 1.8379 9e-3 1.8621 0.0141 0.0362 0.3395 0.0417 1.8594 0.0306 1.6245-0.0117 1.8717-0.0201 2.0883-0.0718zm-0.0629-6.5484c0.52395-0.13245 0.90878-0.41265 1.1109-0.80876 0.17352-0.34014 0.23094-1.0239 0.11563-1.3762-0.16944-0.5178-0.55357-0.85322-1.1536-1.0074-0.19969-0.0513-0.41894-0.0573-2.0904-0.0573h-1.8674l-9e-3 1.6216c-9e-3 0.89188 0 1.6413 9e-3 1.6654 0.0141 0.036 0.3403 0.0414 1.843 0.0304 1.5654-0.0116 1.8572-0.021 2.0421-0.0678zm7.3178 9.3711c-9e-3 -0.0225-0.0118-3.5054-9e-3 -7.7396l9e-3 -7.6985h10.352v2.7846l-7.4365 0.0328v3.538l6.2572 0.0328v2.7846l-6.2572 0.0328v3.4725l7.4365 0.0328v2.7518l-5.1688 9e-3c-4.1178 5e-3 -5.172 0-5.1844-0.0328zm13.071 4e-4c-9e-3 -0.0227-0.0118-3.5056-9e-3 -7.7398l9e-3 -7.6985h3.6855c3.4028 0 3.7084 4e-3 3.9856 0.0585 1.7802 0.3466 2.979 1.6446 3.3076 3.581 0.0778 0.45686 0.0778 1.4814 3.1e-4 1.9461-0.2516 1.5103-1.0043 2.6009-2.2157 3.2107-0.15318 0.0771-0.3743 0.17257-0.49142 0.21218-0.11713 0.0395-0.21706 0.0931-0.22207 0.11898-9e-3 0.0258 0.80202 1.4462 1.7935 3.1563 0.99157 1.7102 1.8028 3.1287 1.8028 3.1523 0 0.0348-0.32623 0.043-1.7323 0.043-1.5263 0-1.7373-5e-3 -1.7744-0.0509-0.0236-0.028-0.81185-1.4248-1.7525-3.104l-1.7102-3.0532h-1.7612l-0.033 6.1916-1.4341 9e-3c-1.1299 6e-3 -1.4375-3.9e-4 -1.4499-0.0328zm7.1072-9.1248c0.41563-0.19684 0.66834-0.50264 0.82945-1.0037 0.0746-0.23187 0.0851-0.32019 0.0849-0.70721-3.2e-4 -0.36967-0.0126-0.48224-0.0762-0.68589-0.15106-0.48548-0.41414-0.80754-0.81398-0.99643l-0.21815-0.10304h-3.9967l-9e-3 1.769c-9e-3 0.97297 0 1.7883 9e-3 1.8118 0.0134 0.0347 0.38845 0.0409 1.9905 0.0328l1.9741-0.0107 0.22656-0.10729zm9.2072 9.1247c-9e-3 -0.0227-0.0188-2.8717-0.0236-6.3311l-9e-3 -6.2899-4.1933-0.0328v-2.7846h11.368v2.7846l-4.1932 0.0328-0.033 12.645-1.4505 9e-3c-1.143 6e-3 -1.4539-4.2e-4 -1.4661-0.0328zm6.9738-0.0328c0.0107-0.0407 1.3377-3.5236 2.9498-7.7398l2.9312-7.6658 0.91499-0.01c0.70705-6e-3 0.9226 7.3e-4 0.94837 0.0328 0.0573 0.0713 5.9046 15.396 5.886 15.426-0.01 0.0156-0.70989 0.0285-1.5561 0.0285h-1.5385l-0.033-0.0737c-0.0181-0.0405-0.21327-0.58968-0.43378-1.2203l-0.40085-1.1466-5.6843-0.018-0.0338 0.074c-0.0181 0.0406-0.21407 0.58985-0.43488 1.2205l-0.40149 1.1466-3.133 0.018 0.0188-0.074zm8.6311-5.278c-0.0212-0.15538-1.7805-5.131-1.8147-5.1314-0.0369-4.2e-4 -1.8179 5.0504-1.8165 5.151 0 0.0539 0.10971 0.0573 1.8212 0.0573h1.8203zm6.9997 5.3121c-9e-3 -0.0236-0.0125-3.507-9e-3 -7.7412l9e-3 -7.6981 2.9812 4e-4c2.9121 3.9e-4 2.9919 2e-3 3.4489 0.0735 1.1952 0.18534 2.1125 0.53833 2.848 1.0959 0.99928 0.75772 1.6059 1.8189 1.8497 3.2359 0.0754 0.44013 0.0763 0.45613 0.0763 3.3415-4.1e-4 2.8814-7.2e-4 2.9017-0.0754 3.3087-0.44901 2.4476-1.9718 3.8882-4.5772 4.33-0.41272 0.07-0.51224 0.0724-3.4801 0.084-2.4877 0.01-3.0582 3e-3 -3.0714-0.0306zm5.4567-2.7773c1.4493-0.10614 2.2886-0.68802 2.6234-1.8189l0.0778-0.26208v-5.7002l-0.0877-0.28531c-0.278-0.90396-0.9307-1.4679-1.9676-1.7-0.32168-0.072-0.39733-0.0753-1.7612-0.0769l-1.425-1e-3 -9e-3 4.8976c-9e-3 2.6937 0 4.916 9e-3 4.9385 0.0187 0.0501 1.8905 0.0567 2.5417 0.01zm-106.68-1.352c-9e-3 -0.0226-0.0118-0.65289-9e-3 -1.4006l9e-3 -1.3595h7.5675v2.7846l-3.7765 9e-3c-3.0049 5e-3 -3.7798 0-3.7923-0.0328z" stroke-width=".03276"/>
<path d="m463.97 247.99c-1.0932-0.12505-1.9028-0.38101-2.6033-0.82309-1.2018-0.75841-1.9285-1.9549-2.2274-3.667-0.0745-0.42518-0.0753-0.45999-0.0753-3.4362-4e-4 -2.9964-4e-4 -3.0082 0.0768-3.4632 0.43035-2.5538 1.9044-4.051 4.3835-4.4523 0.33576-0.0543 0.58089-0.0698 1.1234-0.0708 0.77483-2e-3 1.159 0.0505 1.7728 0.23995 1.9093 0.58918 3.2485 2.23 3.7795 4.6307 0.0444 0.20175 0.0811 0.4019 0.0811 0.44476v0.078l-3.0232-0.018-0.1186-0.36344c-0.34099-1.045-0.92838-1.715-1.7351-1.9789-0.40897-0.13383-1.1214-0.12631-1.5888 0.0168-0.69981 0.21423-1.2411 0.728-1.4929 1.417-0.21336 0.58398-0.23491 0.90428-0.23459 3.4858 3.9e-4 2.1627 0.0222 2.76 0.11606 3.1337 0.22033 0.87835 0.73927 1.4836 1.5084 1.7593 0.39882 0.14297 1.0856 0.18611 1.5173 0.0953 0.54904-0.1155 1.0461-0.43617 1.3854-0.89377 0.1869-0.25209 0.41364-0.72745 0.51299-1.0753 0.0483-0.17045 0.10205-0.33593 0.1186-0.36773 0.0277-0.0538 0.13524-0.0578 1.5323-0.0578 1.4947 0 1.5022 4.1e-4 1.5022 0.068 0 0.0374-0.0372 0.23141-0.0819 0.43108-0.606 2.6843-2.1781 4.3904-4.4281 4.8054-0.28458 0.0525-1.5119 0.0942-1.8007 0.0612zm13.629-0.012c-1.2184-0.14305-2.3018-0.609-3.1276-1.345-0.87379-0.77885-1.4395-1.8466-1.6861-3.1826-0.0761-0.41181-0.0761-0.42162-0.0761-3.4032 0-2.9675 5.6e-4 -2.9933 0.0753-3.4032 0.45143-2.4809 2.0331-4.0605 4.5009-4.4951 0.34083-0.0601 0.53715-0.0727 1.1234-0.0723 0.6224 3.7e-4 0.76771 0.011 1.173 0.0861 1.0868 0.20126 1.9372 0.59084 2.6817 1.2287 0.88662 0.75965 1.4941 1.8617 1.7292 3.1371 0.11725 0.63623 0.13944 1.3606 0.12193 3.9813-0.0166 2.4369-0.0174 2.4661-0.0983 2.9241-0.42941 2.4261-2.0255 4.0543-4.3934 4.4818-0.41412 0.0748-1.6053 0.11149-2.0235 0.0624zm1.3765-2.9554c0.56346-0.1086 0.94541-0.30871 1.3342-0.69905 0.21193-0.21269 0.2975-0.32994 0.42204-0.57826 0.086-0.1713 0.18935-0.43784 0.22984-0.5923 0.0729-0.27985 0.0737-0.29091 0.0737-3.1058v-2.825l-0.0784-0.29736c-0.24497-0.93055-0.85858-1.5696-1.739-1.8112-0.6426-0.17631-1.4651-0.11774-2.0284 0.14442-0.71598 0.33328-1.1803 0.93423-1.3774 1.7824-0.0515 0.22079-0.0586 0.51782-0.0713 2.7246-0.0143 2.5925 0 3.046 0.12209 3.4705 0.32276 1.1396 1.2624 1.8231 2.5176 1.8314 0.19371 2e-3 0.46133-0.0187 0.59467-0.0445zm27.798 2.9656c-0.39835-0.0212-1.3003-0.17572-1.8338-0.31407-1.0128-0.26262-2.0562-0.7405-2.8333-1.2975-0.27341-0.19596-0.36824-0.28184-0.35826-0.32443 0.0206-0.0871 1.3106-2.3706 1.3395-2.3706 0.0135 0 0.12011 0.0712 0.23641 0.15824 0.89518 0.66995 2.0475 1.1223 3.3172 1.3023 0.39447 0.0559 1.5401 0.0543 1.8998-2e-3 1.0546-0.16685 1.7149-0.57621 1.978-1.2262 0.0946-0.23382 0.1297-0.71094 0.0705-0.9614-0.0831-0.35236-0.21945-0.55217-0.54531-0.79897-0.40002-0.30296-0.95294-0.47082-2.2633-0.68706-2.5546-0.42157-3.4401-0.75029-4.2595-1.5813-0.52211-0.52944-0.80669-1.088-0.96562-1.8952-0.0618-0.31328-0.0729-0.48333-0.0737-1.0976-4.7e-4 -0.6174 0.0103-0.78202 0.0721-1.093 0.36579-1.8429 1.5955-3.0359 3.6241-3.5162 0.63167-0.14955 1.1947-0.20798 1.999-0.20746 0.61361 4.1e-4 0.78237 0.0124 1.239 0.0885 0.91918 0.15303 1.7017 0.4004 2.581 0.81589 0.39336 0.18584 1.1566 0.63063 1.2076 0.70375 0.0277 0.0402-1.1829 2.4651-1.231 2.4651-0.0198 0-0.17786-0.0891-0.35145-0.19795-0.80352-0.50383-1.7548-0.86668-2.6522-1.0116-0.36927-0.0597-1.1719-0.0656-1.5638-0.0116-1.4235 0.19624-2.1345 0.87404-2.0032 1.9097 0.0555 0.43922 0.22469 0.72076 0.60458 1.0074 0.42925 0.32379 0.94359 0.49275 2.4338 0.79944 2.405 0.49496 3.2542 0.84115 4.0474 1.65 0.53724 0.54784 0.8261 1.1141 0.97797 1.9176 0.0555 0.29342 0.0689 0.49396 0.0689 1.0408 4e-4 0.60027-0.01 0.72243-0.0838 1.0738-0.15315 0.72197-0.40786 1.2832-0.81738 1.8007-0.75598 0.95537-2.0017 1.5767-3.615 1.8029-0.3852 0.054-1.6932 0.0882-2.2467 0.0586zm41.515 2e-3c-0.82562-0.0964-1.4517-0.25345-2.0112-0.50462-1.5927-0.71509-2.5125-2.0164-2.8522-4.0353l-0.0753-0.44605-5.6e-4 -5.3856-6.3e-4 -5.3856h2.9075l0.019 5.2699c0.0135 3.7499 0.0301 5.3148 0.0562 5.4256 0.1495 0.62191 0.25891 0.88706 0.50087 1.2134 0.31263 0.42179 0.78141 0.72035 1.3562 0.86379 0.27183 0.0678 0.38924 0.078 0.87561 0.0757 0.46047-2e-3 0.60973-0.0153 0.8284-0.0727 0.58984-0.15495 1.0453-0.44208 1.3615-0.85826 0.24695-0.32505 0.35827-0.59199 0.50975-1.2219 0.0269-0.11075 0.0428-1.6757 0.0562-5.4256l0.019-5.27h2.9075l-5.6e-4 5.3856-6.3e-4 5.3856-0.0753 0.44604c-0.42806 2.5485-1.8712 4.0412-4.3176 4.4657-0.2689 0.0467-0.57162 0.0664-1.1571 0.0755-0.43614 7e-3 -0.84495 6e-3 -0.90857-2e-3zm14.306-4.1e-4c-1.0932-0.12504-1.9027-0.38101-2.6033-0.82308-1.2018-0.75842-1.9285-1.9549-2.2274-3.667-0.0745-0.42518-0.0753-0.46-0.0753-3.4362-3.9e-4 -2.9964-3.9e-4 -3.0082 0.0768-3.4632 0.43036-2.5538 1.9044-4.051 4.3835-4.4523 0.33576-0.0543 0.58097-0.0698 1.1234-0.0708 0.77484-2e-3 1.159 0.0506 1.7728 0.23995 1.9093 0.58919 3.2485 2.23 3.7795 4.6307 0.0444 0.20175 0.0811 0.40189 0.0811 0.44475v0.078l-3.0232-0.018-0.1186-0.36346c-0.34099-1.045-0.92838-1.7149-1.7351-1.9789-0.40897-0.13383-1.1215-0.12631-1.5888 0.0168-0.69981 0.21423-1.2411 0.728-1.4929 1.417-0.21336 0.58397-0.23491 0.90428-0.23459 3.4858 4e-4 2.1627 0.0222 2.76 0.11607 3.1337 0.22033 0.87836 0.73926 1.4836 1.5084 1.7593 0.39883 0.14297 1.0856 0.18611 1.5173 0.0953 0.54904-0.11549 1.0461-0.43616 1.3854-0.89375 0.18689-0.2521 0.41372-0.72745 0.51299-1.0754 0.0483-0.17044 0.10204-0.33592 0.11868-0.36773 0.0277-0.0538 0.13516-0.0578 1.5322-0.0578 1.4947 0 1.5022 4.1e-4 1.5022 0.068 0 0.0374-0.0365 0.23142-0.0819 0.43108-0.60601 2.6843-2.1781 4.3904-4.4281 4.8054-0.28458 0.0525-1.5119 0.0942-1.8007 0.0612zm19.709-0.012c-1.2183-0.14305-2.3018-0.60899-3.1275-1.345-0.87379-0.77884-1.4395-1.8466-1.6861-3.1826-0.0761-0.41181-0.0761-0.42162-0.0761-3.4032 0-2.9675 4.7e-4 -2.9933 0.0753-3.4032 0.45144-2.4809 2.0331-4.0605 4.5009-4.4951 0.34084-0.0601 0.53716-0.0727 1.1234-0.0723 0.6224 3.7e-4 0.7677 0.011 1.173 0.0861 1.0868 0.20125 1.9372 0.59084 2.6817 1.2287 0.88662 0.75965 1.4941 1.8617 1.7292 3.1371 0.11726 0.63624 0.13944 1.3606 0.12193 3.9813-0.0158 2.4369-0.0174 2.4661-0.0983 2.9241-0.4294 2.4261-2.0255 4.0543-4.3934 4.4818-0.41411 0.0748-1.6053 0.11148-2.0235 0.0624zm1.3765-2.9554c0.56346-0.1086 0.94542-0.3087 1.3343-0.69905 0.21185-0.21269 0.29749-0.32994 0.42204-0.57825 0.086-0.17131 0.18935-0.43785 0.22984-0.59231 0.0729-0.27984 0.0737-0.2909 0.0737-3.1058v-2.825l-0.0784-0.29736c-0.24505-0.93055-0.85866-1.5696-1.7391-1.8112-0.64261-0.17631-1.4651-0.11773-2.0284 0.14443-0.71597 0.33327-1.1804 0.93423-1.3774 1.7824-0.0515 0.22079-0.0594 0.51782-0.0713 2.7246-0.0143 2.5925 0 3.046 0.12209 3.4705 0.32277 1.1396 1.2624 1.8231 2.5176 1.8314 0.19371 2e-3 0.46134-0.0187 0.59468-0.0445zm-96.402 2.7814c-9e-3 -0.0229-0.0119-3.5357-8e-3 -7.8062l9e-3 -7.7645 1.7639-9e-3c1.1005-6e-3 1.7784 3e-3 1.8024 0.0234 0.0214 0.0176 1.2701 2.5676 2.7754 5.6667 1.5052 3.0991 2.7496 5.6348 2.7652 5.6348 0.0158 0 0.0325-2.5181 0.0364-5.6582l9e-3 -5.6582h2.7754v15.595l-3.5876 0.018-0.0515-0.0911c-0.0285-0.0502-1.2598-2.5511-2.7361-5.5577-1.4764-3.0066-2.7013-5.4722-2.7222-5.4792-0.0285-9e-3 -0.0396 1.3906-0.046 5.5492l-9e-3 5.5618-1.3804 9e-3c-1.0866 7e-3 -1.3837-4.2e-4 -1.3961-0.033zm31.091-2e-5c-9e-3 -0.0229-0.019-2.8963-0.0238-6.3854l-8e-3 -6.3438-4.2292-0.033v-2.8084h11.465v2.8084l-4.2292 0.033-0.0332 12.754-1.4629 9e-3c-1.1528 7e-3 -1.4663-4.2e-4 -1.4787-0.033zm8.293-1e-5c-9e-3 -0.0229-0.0119-3.5356-8e-3 -7.8061l9e-3 -7.7645h3.0397v15.595l-1.5125 9e-3c-1.1924 7e-3 -1.5158-4.1e-4 -1.5283-0.033zm8.3923 1e-5c-9e-3 -0.0229-0.019-2.8963-0.0238-6.3854l-8e-3 -6.3438-4.2291-0.033v-2.8084h11.465v2.8084l-4.2292 0.033-0.0332 12.754-1.463 9e-3c-1.1528 7e-3 -1.4662-4.2e-4 -1.4787-0.033zm36.377-1e-5c-9e-3 -0.0229-0.0119-3.5356-8e-3 -7.8061l9e-3 -7.7645h3.0398v15.595l-1.5125 9e-3c-1.1924 7e-3 -1.5158-4.1e-4 -1.5284-0.033zm20.551 3e-5c-9e-3 -0.0229-0.0119-3.5357-8e-3 -7.8062l9e-3 -7.7645 1.764-9e-3c1.1005-6e-3 1.7784 3e-3 1.8024 0.0234 0.0214 0.0176 1.2701 2.5676 2.7753 5.6667 1.5053 3.0991 2.7497 5.6348 2.7653 5.6348 0.0159 0 0.0325-2.5181 0.0365-5.6582l9e-3 -5.6582h2.7754v15.595l-3.5876 0.018-0.0523-0.0911c-0.0285-0.0502-1.2597-2.5511-2.736-5.5577-1.4764-3.0066-2.7014-5.4722-2.7221-5.4792-0.0285-9e-3 -0.0396 1.3906-0.046 5.5492l-8e-3 5.5618-1.3804 9e-3c-1.0866 7e-3 -1.3837-4.1e-4 -1.3961-0.033zm-9.3163-17.438c-0.50983-0.52972-0.82602-0.88322-0.82602-0.92342 0-0.0443 0.45983-0.47316 1.436-1.3394 0.78973-0.70084 1.4514-1.27 1.4703-1.2649 0.0666 0.0181 1.9011 1.9252 1.8997 1.9747 0 0.0492-3.0306 2.3886-3.1123 2.4037-0.023 4e-3 -0.41333-0.37857-0.86761-0.85062z" fill-rule="evenodd" stroke-width=".03304"/>
</svg>
