<?xml version="1.0" encoding="UTF-8"?>
<!DOCTYPE svg PUBLIC "-//W3C//DTD SVG 1.1//EN" "http://www.w3.org/Graphics/SVG/1.1/DTD/svg11.dtd">
<!-- Creator: CorelDRAW -->
<svg xmlns="http://www.w3.org/2000/svg" xml:space="preserve" width="1772px" height="1063px" style="shape-rendering:geometricPrecision; text-rendering:geometricPrecision; image-rendering:optimizeQuality; fill-rule:evenodd; clip-rule:evenodd"
viewBox="0 0 1398.95 839.368"
 xmlns:xlink="http://www.w3.org/1999/xlink">
 <defs>
  <style type="text/css">
   <![CDATA[
    .fil1 {fill:red}
    .fil0 {fill:white}
    .fil2 {fill:#1F1A17;fill-rule:nonzero}
   ]]>
  </style>
 </defs>
 <g id="Capa_x0020_1">
  <metadata id="CorelCorpID_0Corel-Layer"/>
  <polygon class="fil0" points="0,0 1166.43,349.929 1398.95,419.684 1165.42,489.741 0,839.368 "/>
  <polygon class="fil1" points="303.105,90.9316 396.368,118.911 396.368,373.053 1243.51,373.053 1398.95,419.684 1243.51,466.316 396.368,466.316 396.368,720.458 303.105,748.437 303.105,466.316 0,466.316 0,373.053 303.105,373.053 "/>
  <path class="fil2" d="M272.609 258.38l-4.75456 0c-3.12245,-7.69141 -7.1309,-15.0088 -12.1186,-21.9075 -4.98678,-6.94437 -12.6316,-11.6523 -22.8383,-14.1695 -2.42391,-0.698541 -5.4074,-1.07159 -8.94953,-1.07159 -4.14835,0 -7.87701,0.886 -11.186,2.7037 -6.94531,3.30898 -12.445,10.7663 -16.4535,22.4195 -3.21665,8.90197 -4.80119,20.3677 -4.80119,34.3973 0,14.0296 1.58454,25.4963 4.80119,34.3983 2.65613,8.38995 7.50395,14.6358 14.5416,18.7375 3.72959,2.37728 8.76301,3.58877 15.0555,3.58877 4.3815,0 8.94953,-0.512015 13.7498,-1.63117 10.2077,-2.37728 20.3687,-9.41492 30.4364,-21.2071l5.03435 4.70699c-1.21242,1.49221 -2.75033,3.40317 -4.61466,5.68625 -1.86433,2.28401 -4.00845,4.5214 -6.47899,6.71215 -2.42391,2.19075 -5.26657,4.24161 -8.48322,6.10594 -3.21571,1.86433 -7.1309,3.4955 -11.7456,4.98771 -5.03341,1.49128 -11.6523,2.23645 -19.8557,2.23645 -12.7248,0 -25.03,-3.82192 -36.8688,-11.4658 -8.11016,-5.21994 -14.4493,-12.6316 -19.063,-22.1864 -4.61466,-9.55481 -6.94531,-19.8091 -6.94531,-30.6696 0,-10.8596 2.33065,-21.1138 6.94531,-30.7153 4.61373,-9.60237 10.9528,-17.0131 19.063,-22.1397 11.8388,-7.64385 24.144,-11.4667 36.8688,-11.4667 8.11016,0 16.4069,1.58547 24.9367,4.80119 5.3132,1.8177 9.13513,2.7037 11.4658,2.7037 1.86433,0 3.21571,-0.466316 4.14835,-1.49221 0.885067,-0.978331 2.19075,-2.88929 3.86856,-5.73289l4.24161 0 0 41.67z"/>
  <path class="fil2" d="M531.224 345.074l-79.7493 -97.9272 -0.279789 0 0 76.86c0,4.80025 1.25812,8.57555 3.77529,11.3259 2.47054,2.75033 6.05931,4.10171 10.7663,4.10171l0 3.91519 -36.3092 0 0 -3.91519c4.70792,0 8.29669,-1.35138 10.7672,-4.05508 2.51717,-2.7037 3.77529,-6.47899 3.77529,-11.3725l0 -85.5298 -6.75785 -8.1568c-0.139895,-0.186526 -0.792737,-1.02496 -2.00423,-2.61044 -1.16579,-1.58454 -2.28401,-2.70277 -3.30991,-3.35561 -1.07159,-0.652842 -2.37728,-0.978331 -3.91519,-0.978331l0 -3.96182 38.0336 0 62.9237 78.5845 0.559579 0 0 -59.2417c0,-4.84782 -1.25905,-8.62311 -3.77529,-11.3259 -2.51717,-2.7037 -6.10594,-4.05508 -10.7672,-4.05508l0 -3.96182 36.0294 0 0 3.96182c-4.75456,0 -8.34332,1.35138 -10.8139,4.10171 -2.46961,2.7494 -3.72866,6.47806 -3.72866,11.2792l0 106.317 -5.21994 0z"/>
  <path class="fil2" d="M168.902 618.23l0 -3.91519c4.61373,0 8.20343,-1.35138 10.8596,-4.10171 2.65707,-2.75033 3.96182,-6.52562 3.96182,-11.3259l0 -85.25c0,-4.80119 -1.30475,-8.57648 -3.91519,-11.2792 -2.6095,-2.75033 -6.24583,-4.10171 -10.9062,-4.10171l0 -3.96182 43.6266 0c17.7116,0 29.8302,1.02496 36.3558,3.12245 5.73289,1.6778 10.6273,4.70792 14.6358,9.22839 4.00845,4.5214 6.01268,9.9288 6.01268,16.1737 0,13.9363 -8.85627,23.3522 -26.5679,28.2923l0 0.279789c7.87701,2.00423 14.8689,4.98771 20.9749,8.94953 7.45732,5.12668 11.186,12.4917 11.186,22.0931 0,10.5341 -3.35561,18.3644 -10.0211,23.4911 -5.91941,4.70792 -11.3725,7.92364 -16.3136,9.69471 -4.98678,1.72444 -10.3475,2.61044 -16.1737,2.61044l-63.7155 0zm43.6266 -67.6773l7.78374 0c13.0512,0 19.5759,-6.52562 19.5759,-19.5769l0 -14.5416c0,-6.57225 -1.39801,-11.0004 -4.24068,-13.331 -2.84359,-2.33065 -7.59815,-3.44887 -14.1695,-3.44887 -3.49644,0.233158 -5.87278,0.978331 -7.0852,2.14412 -1.25812,1.16486 -1.86433,3.40224 -1.86433,6.75878l0 41.9955zm0 47.262c0,5.87278 0.466316,9.78797 1.35138,11.7456 0.886,1.95759 3.30991,3.07675 7.2251,3.35654 7.97027,0 13.9363,-1.77107 18.038,-5.22087 4.05508,-3.4955 6.10594,-9.32165 6.10594,-17.4784 0,-12.9114 -1.8177,-21.7201 -5.4074,-26.428 -3.58877,-4.70792 -8.90197,-7.08427 -15.8939,-7.08427l-11.4191 0 0 41.1095z"/>
  <path class="fil2" d="M428.869 618.23l0 -3.91519c4.61373,0 8.20343,-1.35138 10.8596,-4.10171 2.65707,-2.75033 3.96182,-6.52562 3.96182,-11.3259l0 -85.25c0,-4.80119 -1.30475,-8.57648 -3.91519,-11.2792 -2.6095,-2.75033 -6.24583,-4.10171 -10.9062,-4.10171l0 -3.96182 43.6266 0c17.7116,0 29.8302,1.02496 36.3558,3.12245 5.73289,1.6778 10.6273,4.70792 14.6358,9.22839 4.00845,4.5214 6.01268,9.9288 6.01268,16.1737 0,13.9363 -8.85627,23.3522 -26.5679,28.2923l0 0.279789c7.87701,2.00423 14.8689,4.98771 20.9749,8.94953 7.45732,5.12668 11.186,12.4917 11.186,22.0931 0,10.5341 -3.35561,18.3644 -10.0211,23.4911 -5.91941,4.70792 -11.3725,7.92364 -16.3136,9.69471 -4.98678,1.72444 -10.3475,2.61044 -16.1737,2.61044l-63.7155 0zm43.6266 -67.6773l7.78374 0c13.0512,0 19.5759,-6.52562 19.5759,-19.5769l0 -14.5416c0,-6.57225 -1.39801,-11.0004 -4.24068,-13.331 -2.84359,-2.33065 -7.59815,-3.44887 -14.1695,-3.44887 -3.49644,0.233158 -5.87278,0.978331 -7.0852,2.14412 -1.25812,1.16486 -1.86433,3.40224 -1.86433,6.75878l0 41.9955zm0 47.262c0,5.87278 0.466316,9.78797 1.35138,11.7456 0.886,1.95759 3.30991,3.07675 7.2251,3.35654 7.97027,0 13.9363,-1.77107 18.038,-5.22087 4.05508,-3.4955 6.10594,-9.32165 6.10594,-17.4784 0,-12.9114 -1.8177,-21.7201 -5.4074,-26.428 -3.58877,-4.70792 -8.90197,-7.08427 -15.8939,-7.08427l-11.4191 0 0 41.1095z"/>
 </g>
</svg>
