<?xml version="1.0" encoding="UTF-8"?>
<!DOCTYPE svg PUBLIC "-//W3C//DTD SVG 1.1//EN" "http://www.w3.org/Graphics/SVG/1.1/DTD/svg11.dtd">
<!-- Creator: CorelDRAW -->
<svg xmlns="http://www.w3.org/2000/svg" xml:space="preserve" width="1772px" height="1063px" style="shape-rendering:geometricPrecision; text-rendering:geometricPrecision; image-rendering:optimizeQuality; fill-rule:evenodd; clip-rule:evenodd"
viewBox="0 0 1398.95 839.368"
 xmlns:xlink="http://www.w3.org/1999/xlink">
 <defs>
  <style type="text/css">
   <![CDATA[
    .str2 {stroke:#CC0000;stroke-width:1.64423;stroke-linejoin:round}
    .str0 {stroke:#CC0000;stroke-width:1.64796;stroke-linejoin:round}
    .str1 {stroke:#CC0000;stroke-width:1.64796;stroke-linecap:round;stroke-linejoin:round}
    .fil2 {fill:none}
    .fil5 {fill:none;fill-rule:nonzero}
    .fil0 {fill:#33CCFF}
    .fil1 {fill:white}
    .fil3 {fill:#CC0000}
    .fil4 {fill:white}
    .fil6 {fill:#CC0000;fill-rule:nonzero}
   ]]>
  </style>
 </defs>
 <g id="Capa_x0020_1">
  <metadata id="CorelCorpID_0Corel-Layer"/>
  <polygon class="fil0" points="0,0 1398.95,419.684 0,839.368 "/>
  <polygon class="fil1" points="0,0 466.316,139.895 792.735,601.548 465.972,699.577 "/>
  <g>
   <path id="path9938-6-7-7" class="fil2 str0" d="M370.275 236.067c1.46143,0.317095 -6.78023,-9.67792 -19.16,-10.3252 -12.5597,0.873876 -21.7098,13.5176 -22.8905,21.5195 -0.546522,3.67177 2.66546,12.6829 8.12322,17.8366 6.49578,4.8702 19.2794,1.90164 19.2794,1.90164 6.21972,-3.4582 23.0901,-13.7153 14.6694,-31.1005 0.899057,-0.328286 4.1241,-1.68806 9.70496,-5.25445 10.2086,11.0722 0.379581,37.6522 -20.5011,45.4583 -12.017,4.48503 -20.142,6.63567 -35.6741,-8.2855 -11.9013,-12.7985 -7.4368,-33.4199 8.62591,-44.785 16.3108,-11.5404 38.7061,-7.54872 47.1156,7.85929m-9.29274 5.17517l0 0 0 0z" sodipodi:nodetypes="ccscsccsccc" inkscape:connector-curvature="0"/>
   <path id="path9938-6-7-71" class="fil3" d="M370.275 236.067c1.46143,0.317095 -6.78023,-9.67792 -19.16,-10.3252 -12.5597,0.873876 -21.7098,13.5176 -22.8905,21.5195 -0.546522,3.67177 2.66546,12.6829 8.12322,17.8366 6.49578,4.8702 19.2794,1.90164 19.2794,1.90164 6.21972,-3.4582 23.0901,-13.7153 14.6694,-31.1005 0.899057,-0.328286 4.1241,-1.68806 9.70496,-5.25445 10.2086,11.0722 0.379581,37.6522 -20.5011,45.4583 -12.017,4.48503 -20.142,6.63567 -35.6741,-8.2855 -11.9013,-12.7985 -7.4368,-33.4199 8.62591,-44.785 16.3108,-11.5404 38.7061,-7.54872 47.1156,7.85929m-9.29274 5.17517l0 0 0 0z"/>
  </g>
  <g>
   <path id="path9938-32-1" class="fil2 str0" d="M378.441 227.314c9.5203,13.4597 3.97861,33.7389 -11.2037,44.4847 -15.1795,10.7402 -35.2059,8.54477 -44.7271,-4.90378 -9.51471,-13.4541 -4.92429,-33.0665 10.2543,-43.8122 15.186,-10.743 36.1544,-9.21347 45.6766,4.23135z" sodipodi:nodetypes="cscsc" inkscape:connector-curvature="0"/>
   <path id="path9938-32-11" class="fil3" d="M378.441 227.314c9.5203,13.4597 3.97861,33.7389 -11.2037,44.4847 -15.1795,10.7402 -35.2059,8.54477 -44.7271,-4.90378 -9.51471,-13.4541 -4.92429,-33.0665 10.2543,-43.8122 15.186,-10.743 36.1544,-9.21347 45.6766,4.23135z"/>
  </g>
  <g>
   <path id="path9938-3-8-5" class="fil2 str0" d="M368.868 233.701c6.49858,9.18829 3.45074,22.5137 -6.81194,29.778 -10.2599,7.25214 -23.8446,5.69745 -30.3404,-3.48711 -6.49391,-9.18083 -3.45074,-22.5156 6.80728,-29.7733 10.2636,-7.2624 23.8493,-5.70024 30.345,3.48245z" inkscape:connector-curvature="0"/>
   <path id="path9938-3-8-51" class="fil4" d="M368.868 233.701c6.49858,9.18829 3.45074,22.5137 -6.81194,29.778 -10.2599,7.25214 -23.8446,5.69745 -30.3404,-3.48711 -6.49391,-9.18083 -3.45074,-22.5156 6.80728,-29.7733 10.2636,-7.2624 23.8493,-5.70024 30.345,3.48245z"/>
  </g>
  <g>
   <path id="path9018-7-4-5-0" class="fil2 str0" d="M545.084 517.258c-0.49616,2.3521 -3.184,3.9898 -5.65455,3.57571 -42.681,-4.48036 -64.706,21.1941 -113.933,11.4854 -11.5385,-1.50247 -12.4786,0.0317095 -15.284,-3.11033 -2.54981,-2.67479 -15.616,-8.71078 -12.2091,-8.17545 1.45024,0.235956 2.04899,-6.50697 -0.103522,-4.18472 3.60369,-3.0124 22.8793,3.22411 27.4557,4.39363 2.6981,1.36537 21.5802,-0.776882 25.3797,-1.69646 11.3585,2.54329 -11.7409,2.68038 14.4511,-2.15718 6.67111,-1.40827 13.2546,-8.13814 19.7709,-12.6567 13.4178,-11.2951 7.88447,-34.6603 1.4633,-44.1927 -85.2239,-126.057 -5.31227,-7.07121 -84.3817,-126.012 -84.9236,-121.099 15.4668,1.90723 19.2598,1.74775m123.785 180.983l0 0 0 0z" sodipodi:nodetypes="ccccccccccccc" inkscape:connector-curvature="0"/>
   <path id="path9018-7-4-5-01" class="fil3" d="M545.084 517.258c-0.49616,2.3521 -3.184,3.9898 -5.65455,3.57571 -42.681,-4.48036 -64.706,21.1941 -113.933,11.4854 -11.5385,-1.50247 -12.4786,0.0317095 -15.284,-3.11033 -2.54981,-2.67479 -15.616,-8.71078 -12.2091,-8.17545 1.45024,0.235956 2.04899,-6.50697 -0.103522,-4.18472 3.60369,-3.0124 22.8793,3.22411 27.4557,4.39363 2.6981,1.36537 21.5802,-0.776882 25.3797,-1.69646 11.3585,2.54329 -11.7409,2.68038 14.4511,-2.15718 6.67111,-1.40827 13.2546,-8.13814 19.7709,-12.6567 13.4178,-11.2951 7.88447,-34.6603 1.4633,-44.1927 -85.2239,-126.057 -5.31227,-7.07121 -84.3817,-126.012 -84.9236,-121.099 15.4668,1.90723 19.2598,1.74775m123.785 180.983l0 0 0 0z"/>
  </g>
  <g>
   <path id="path9018-7-4-8" class="fil2 str0" d="M539.602 520.626c2.38754,0.304971 4.82264,-1.6806 5.25445,-4.15021 9.9689,-41.7343 41.5441,-52.2134 50.5701,-109.174 0.475642,-11.8948 0.789939,-17.9168 -1.21802,-21.6109 -1.689,-3.29126 -8.07286,-1.55936 -8.71171,1.82236 0.304971,3.39105 -0.433674,3.1411 -0.563309,4.94668 -0.0867347,5.0446 -0.512947,4.61186 -0.930766,9.32259 -0.278857,3.13644 -1.45024,9.15471 -1.78879,12.0608 -1.38682,11.559 -10.8092,24.1878 -15.3763,31.9631 -3.5468,5.81776 -6.92665,5.72543 -11.5245,10.4679 -10.5033,8.76953 -36.7923,6.57319 -43.6453,-2.6552 -94.2844,-126.195 -133.86,-178.865 -145.83,-194.559 -2.39593,-3.08794 -5.83548,-2.54329 -7.86302,-0.855223 -0.999781,0.830042 -3.79861,2.54981 -2.51158,6.28221 2.44443,7.08427 11.0312,18.3309 14.4987,22.9129 11.2531,15.8314 27.2785,41.0899 37.2894,56.4167m132.351 176.809l0 0 0 0z" sodipodi:nodetypes="ccccccccccccsscc" inkscape:connector-curvature="0"/>
   <path id="path9018-7-4-81" class="fil3" d="M539.602 520.626c2.38754,0.304971 4.82264,-1.6806 5.25445,-4.15021 9.9689,-41.7343 41.5441,-52.2134 50.5701,-109.174 0.475642,-11.8948 0.789939,-17.9168 -1.21802,-21.6109 -1.689,-3.29126 -8.07286,-1.55936 -8.71171,1.82236 0.304971,3.39105 -0.433674,3.1411 -0.563309,4.94668 -0.0867347,5.0446 -0.512947,4.61186 -0.930766,9.32259 -0.278857,3.13644 -1.45024,9.15471 -1.78879,12.0608 -1.38682,11.559 -10.8092,24.1878 -15.3763,31.9631 -3.5468,5.81776 -6.92665,5.72543 -11.5245,10.4679 -10.5033,8.76953 -36.7923,6.57319 -43.6453,-2.6552 -94.2844,-126.195 -133.86,-178.865 -145.83,-194.559 -2.39593,-3.08794 -5.83548,-2.54329 -7.86302,-0.855223 -0.999781,0.830042 -3.79861,2.54981 -2.51158,6.28221 2.44443,7.08427 11.0312,18.3309 14.4987,22.9129 11.2531,15.8314 27.2785,41.0899 37.2894,56.4167m132.351 176.809l0 0 0 0z"/>
  </g>
  <g>
   <path id="path9018-7-4-5-4-15" class="fil2 str0" d="M540.876 508.614c-0.506419,2.35489 1.08279,10.1256 -1.38589,9.71243 -11.0153,-1.32713 -15.2252,-2.71396 -52.5426,6.82313 -19.1432,5.25724 -20.0236,5.28429 -52.4885,5.95392 -5.22927,-0.85056 -28.0508,-5.21901 -36.1675,-11.6458 -1.95946,-1.54537 3.79301,0.849627 2.94712,-1.53791 23.798,7.99359 48.0977,5.81496 65.4316,2.06671 38.9877,-18.2469 34.2108,-37.239 24.2643,-60.1398 -21.8861,-32.2327 -74.6907,-108.39 -77.5632,-112.892 0,0 3.84804,-7.07121 7.63452,-7.22789m119.87 168.887l0 0 0 0z" sodipodi:nodetypes="ccccsccccc" inkscape:connector-curvature="0"/>
   <path id="path9018-7-4-5-4-151" class="fil3" d="M540.876 508.614c-0.506419,2.35489 1.08279,10.1256 -1.38589,9.71243 -11.0153,-1.32713 -15.2252,-2.71396 -52.5426,6.82313 -19.1432,5.25724 -20.0236,5.28429 -52.4885,5.95392 -5.22927,-0.85056 -28.0508,-5.21901 -36.1675,-11.6458 -1.95946,-1.54537 3.79301,0.849627 2.94712,-1.53791 23.798,7.99359 48.0977,5.81496 65.4316,2.06671 38.9877,-18.2469 34.2108,-37.239 24.2643,-60.1398 -21.8861,-32.2327 -74.6907,-108.39 -77.5632,-112.892 0,0 3.84804,-7.07121 7.63452,-7.22789m119.87 168.887l0 0 0 0z"/>
  </g>
  <g>
   <path id="path9018-38" class="fil2 str0" d="M545.101 517.228c-0.500823,2.35583 -3.18494,3.9926 -5.65734,3.57944 -40.5154,-4.25373 -53.1413,17.8375 -111.78,12.1494 -9.95398,-1.13781 -21.1847,-4.20897 -28.8416,-10.1265 -3.96368,-3.95156 -0.135232,-8.13908 4.04949,-7.24561 7.95721,3.02919 15.1562,4.62305 21.6902,5.41206 22.2414,2.69064 56.3962,-2.53676 66.1208,-24.8677 5.72636,-11.1254 3.46286,-24.9367 -8.00478,-41.8901 -105.018,-155.223 -1.61065,-1.70672 -125.123,-185.081 -1.26372,-1.86713 -2.76992,-3.95156 -2.80815,-6.2048 -0.0186526,-4.14275 4.39363,-7.82944 8.47203,-6.27661m181.882 260.551l0 0 0 0z" sodipodi:nodetypes="ccccccccccc" inkscape:connector-curvature="0"/>
   <path id="path9018-381" class="fil3" d="M545.101 517.228c-0.500823,2.35583 -3.18494,3.9926 -5.65734,3.57944 -40.5154,-4.25373 -53.1413,17.8375 -111.78,12.1494 -9.95398,-1.13781 -21.1847,-4.20897 -28.8416,-10.1265 -3.96368,-3.95156 -0.135232,-8.13908 4.04949,-7.24561 7.95721,3.02919 15.1562,4.62305 21.6902,5.41206 22.2414,2.69064 56.3962,-2.53676 66.1208,-24.8677 5.72636,-11.1254 3.46286,-24.9367 -8.00478,-41.8901 -105.018,-155.223 -1.61065,-1.70672 -125.123,-185.081 -1.26372,-1.86713 -2.76992,-3.95156 -2.80815,-6.2048 -0.0186526,-4.14275 4.39363,-7.82944 8.47203,-6.27661m181.882 260.551l0 0 0 0z"/>
  </g>
  <g>
   <path id="path9018-1-7" class="fil2 str0" d="M540.094 520.745c2.38567,0.304971 4.82171,-1.67407 5.24978,-4.14928 9.47274,-39.6182 34.5018,-44.1778 48.647,-101.363 2.11707,-11.7745 3.64099,-23.3923 -0.419684,-31.7542 -2.40992,-5.04927 -7.15981,-1.64703 -7.70913,2.59178 0.202381,8.50933 -0.686417,15.8314 -2.11334,22.2517 -4.8674,21.8721 -21.1605,52.3458 -45.4499,54.0768 -12.3984,1.70951 -24.6728,-5.01756 -36.8408,-21.4785 -111.187,-150.329 -3.21385,-4.41601 -133.657,-180.018 -5.03714,-7.84063 -11.1823,-3.85177 -12.5653,-0.266733" sodipodi:nodetypes="cccccccccc" inkscape:connector-curvature="0"/>
  </g>
  <g>
   <path id="rect9807-2-4" class="fil2 str0" d="M580.102 340.681c2.01075,14.6628 3.59623,30.9699 -7.95535,51.7098 -3.84244,4.88233 -0.753566,8.77886 2.22246,6.56106l12.2026 -11.6859 6.97888 -1.9007c5.61911,4.04949 9.28528,7.33515 11.8071,8.90104 4.4701,1.91842 4.88139,-0.302173 3.99819,-3.31551 -0.547455,-1.87832 -1.34299,-4.52513 -1.85407,-7.20178 -4.36192,-15.394 -14.6638,-34.3721 -23.6674,-44.6908 -4.77694,-4.98119 -4.39549,-1.12755 -3.73239,1.62278z" inkscape:connector-curvature="0" sodipodi:nodetypes="cccccccccc"/>
   <path id="rect9807-2-41" class="fil3" d="M580.102 340.681c2.01075,14.6628 3.59623,30.9699 -7.95535,51.7098 -3.84244,4.88233 -0.753566,8.77886 2.22246,6.56106l12.2026 -11.6859 6.97888 -1.9007c5.61911,4.04949 9.28528,7.33515 11.8071,8.90104 4.4701,1.91842 4.88139,-0.302173 3.99819,-3.31551 -0.547455,-1.87832 -1.34299,-4.52513 -1.85407,-7.20178 -4.36192,-15.394 -14.6638,-34.3721 -23.6674,-44.6908 -4.77694,-4.98119 -4.39549,-1.12755 -3.73239,1.62278z"/>
  </g>
  <g>
   <path id="rect9807-2-1-0" class="fil2 str0" d="M594.791 386.92c0.314297,0.227562 0.678023,2.18236 -0.190257,-0.849627 5.10149,3.74265 8.5112,6.76344 10.895,8.237 4.46824,1.91749 4.88046,-0.300307 3.99353,-3.31177 -0.552118,-1.87832 -1.34206,-4.52233 -1.85407,-7.19992 -4.36658,-15.3987 -14.6666,-34.3787 -23.6665,-44.6908 -3.40037,-3.544 -4.18658,-2.61323 -4.12037,-0.801131 0.225697,1.772 0.547455,3.53747 0.752634,5.16958 1.6834,13.1212 2.42298,27.6581 -6.50044,45.5152 -1.16299,2.42018 -2.46681,3.97954 -3.2754,5.97537 -1.27118,3.56359 1.24133,5.8448 3.67923,4.02524l11.574 -11.1039 -0.192122 2.75126m8.90477 -3.71654l0 0 0 0z" inkscape:connector-curvature="0" sodipodi:nodetypes="ccccccccccccc"/>
   <path id="rect9807-2-1-01" class="fil3" d="M594.791 386.92c0.314297,0.227562 0.678023,2.18236 -0.190257,-0.849627 5.10149,3.74265 8.5112,6.76344 10.895,8.237 4.46824,1.91749 4.88046,-0.300307 3.99353,-3.31177 -0.552118,-1.87832 -1.34206,-4.52233 -1.85407,-7.19992 -4.36658,-15.3987 -14.6666,-34.3787 -23.6665,-44.6908 -3.40037,-3.544 -4.18658,-2.61323 -4.12037,-0.801131 0.225697,1.772 0.547455,3.53747 0.752634,5.16958 1.6834,13.1212 2.42298,27.6581 -6.50044,45.5152 -1.16299,2.42018 -2.46681,3.97954 -3.2754,5.97537 -1.27118,3.56359 1.24133,5.8448 3.67923,4.02524l11.574 -11.1039 -0.192122 2.75126m8.90477 -3.71654l0 0 0 0z"/>
  </g>
  <g>
   <path id="rect9807-2-9-2" class="fil2 str0" d="M361.949 494.947c13.1632,6.7737 28.0181,13.6938 51.4141,9.7003 5.88397,-2.00236 8.52705,2.2094 5.43911,4.27518l-15.0713 7.61867 -4.11384 5.95299c1.94827,6.64034 3.82752,11.199 4.46171,14.0986 0.326421,4.84968 -1.90537,4.50088 -4.44679,2.66453 -1.59107,-1.13874 -3.82192,-2.77178 -6.17962,-4.14088 -13.0662,-9.23772 -27.5397,-25.2659 -34.2751,-37.1887 -3.10939,-6.1619 0.405695,-4.52326 2.77178,-2.98069z" inkscape:connector-curvature="0" sodipodi:nodetypes="cccccccccc"/>
   <path id="rect9807-2-9-21" class="fil3" d="M361.949 494.947c13.1632,6.7737 28.0181,13.6938 51.4141,9.7003 5.88397,-2.00236 8.52705,2.2094 5.43911,4.27518l-15.0713 7.61867 -4.11384 5.95299c1.94827,6.64034 3.82752,11.199 4.46171,14.0986 0.326421,4.84968 -1.90537,4.50088 -4.44679,2.66453 -1.59107,-1.13874 -3.82192,-2.77178 -6.17962,-4.14088 -13.0662,-9.23772 -27.5397,-25.2659 -34.2751,-37.1887 -3.10939,-6.1619 0.405695,-4.52326 2.77178,-2.98069z"/>
  </g>
  <g>
   <path id="rect9807-2-1-4-3" class="fil2 str0" d="M400.669 524.184c0.10632,0.360928 1.83169,1.35978 -0.732116,-0.468181 1.83076,6.05931 3.54213,10.2776 4.13249,13.0158 0.335747,4.85155 -1.9007,4.50368 -4.43746,2.66639 -1.59667,-1.14527 -3.82845,-2.77085 -6.18521,-4.14461 -13.0652,-9.24145 -27.5415,-25.2613 -34.2695,-37.1905 -2.21127,-4.3815 -1.07532,-4.81518 0.619267,-4.14741 1.59014,0.801131 3.15416,1.69086 4.62399,2.43137 11.8108,5.95112 25.279,11.4844 45.0853,9.01482 2.66639,-0.298442 4.56896,-1.00444 6.72148,-1.09957 3.78928,-0.01772 5.09776,3.11033 2.5722,4.80119l-14.3187 7.22976 2.6552 0.734914m-6.46687 7.15608l0 0 0 0z" inkscape:connector-curvature="0" sodipodi:nodetypes="ccccccccccccc"/>
   <path id="rect9807-2-1-4-31" class="fil3" d="M400.669 524.184c0.10632,0.360928 1.83169,1.35978 -0.732116,-0.468181 1.83076,6.05931 3.54213,10.2776 4.13249,13.0158 0.335747,4.85155 -1.9007,4.50368 -4.43746,2.66639 -1.59667,-1.14527 -3.82845,-2.77085 -6.18521,-4.14461 -13.0652,-9.24145 -27.5415,-25.2613 -34.2695,-37.1905 -2.21127,-4.3815 -1.07532,-4.81518 0.619267,-4.14741 1.59014,0.801131 3.15416,1.69086 4.62399,2.43137 11.8108,5.95112 25.279,11.4844 45.0853,9.01482 2.66639,-0.298442 4.56896,-1.00444 6.72148,-1.09957 3.78928,-0.01772 5.09776,3.11033 2.5722,4.80119l-14.3187 7.22976 2.6552 0.734914m-6.46687 7.15608l0 0 0 0z"/>
  </g>
  <g>
   <path id="path8009-3-5-6" class="fil5 str0" d="M472.066 440.267c-63.9282,15.4929 -57.0323,-65.9855 -56.0885,-73.8849 1.04548,-8.62964 10.8157,-43.2704 15.5983,-46.6997l4.37404 -19.0014c1.06227,-1.69646 6.57319,-23.5079 -20.862,-41.5693 -2.99002,-8.68093 -41.0759,-9.62756 -47.526,-0.577299 -0.0447663,0.910248 3.21665,5.67693 6.53495,9.03347 7.99545,-2.73821 19.0593,-3.77809 25.3284,-2.32132 6.40531,1.49221 11.684,5.38315 10.8204,5.26564 10.7122,10.4716 15.8268,25.2482 15.0974,25.7705 0.253676,11.3968 -3.77809,20.4722 -9.15005,28.8192 -5.24419,3.75571 -11.1757,34.5838 -12.6735,46.9832 -1.26278,10.41 2.94618,54.53 15.4696,66.2793 16.6111,15.6039 33.9049,22.4494 61.231,14.2683 -8.32094,-13.3805 0.19492,0.0876674 -8.154,-12.3639l0 -0.00186526z" sodipodi:nodetypes="cccccccsccccccc" inkscape:connector-curvature="0"/>
   <path id="path8009-3-5-61" class="fil6" d="M472.066 440.267c-63.9282,15.4929 -57.0323,-65.9855 -56.0885,-73.8849 1.04548,-8.62964 10.8157,-43.2704 15.5983,-46.6997l4.37404 -19.0014c1.06227,-1.69646 6.57319,-23.5079 -20.862,-41.5693 -2.99002,-8.68093 -41.0759,-9.62756 -47.526,-0.577299 -0.0447663,0.910248 3.21665,5.67693 6.53495,9.03347 7.99545,-2.73821 19.0593,-3.77809 25.3284,-2.32132 6.40531,1.49221 11.684,5.38315 10.8204,5.26564 10.7122,10.4716 15.8268,25.2482 15.0974,25.7705 0.253676,11.3968 -3.77809,20.4722 -9.15005,28.8192 -5.24419,3.75571 -11.1757,34.5838 -12.6735,46.9832 -1.26278,10.41 2.94618,54.53 15.4696,66.2793 16.6111,15.6039 33.9049,22.4494 61.231,14.2683 -8.32094,-13.3805 0.19492,0.0876674 -8.154,-12.3639l0 -0.00186526z"/>
  </g>
  <g>
   <path id="path8009-3-5-8-9" class="fil5 str0" d="M588.088 487.982c2.41085,-1.25812 -3.13457,7.00127 5.86625,-5.57714 6.81008,-42.7938 -49.589,-50.9235 -95.3336,-46.3434 9.11461,10.6376 4.53539,5.7646 8.70891,11.0116 41.8947,-0.714396 61.5677,7.84157 70.8334,16.7902 7.33981,7.09919 0.137097,24.1869 9.92507,24.1188l0 0z" sodipodi:nodetypes="ccccsc" inkscape:connector-curvature="0"/>
   <path id="path8009-3-5-8-91" class="fil6" d="M588.088 487.982c2.41085,-1.25812 -3.13457,7.00127 5.86625,-5.57714 6.81008,-42.7938 -49.589,-50.9235 -95.3336,-46.3434 9.11461,10.6376 4.53539,5.7646 8.70891,11.0116 41.8947,-0.714396 61.5677,7.84157 70.8334,16.7902 7.33981,7.09919 0.137097,24.1869 9.92507,24.1188l0 0z"/>
  </g>
  <g>
   <path id="path8009-8-4-43" class="fil5 str1" d="M480.298 452.537c-9.07917,3.55333 -41.9395,7.30997 -59.6073,-12.5971 -20.585,-24.864 -20.1467,-66.7522 -10.7495,-96.8603 5.74781,-20.2213 19.8604,-38.8143 12.6278,-57.3904 -1.63304,-4.08959 -3.85457,-7.33888 -6.38666,-9.85232 -11.4126,-12.0916 -20.6858,-15.2812 -41.8127,-7.81545m-7.68582 -9.2573c22.2032,-12.2091 49.6533,-8.80031 66.6953,19.8846 10.5471,21.0355 -4.75735,43.2984 -11.7055,63.3667 -12.7603,38.1698 -11.2046,111.331 51.3815,99.3113" sodipodi:nodetypes="cccccccccc" inkscape:connector-curvature="0"/>
  </g>
  <g>
   <path id="path8009-8-4-4-4" class="fil5 str1" d="M424.289 443.666c8.23047,7.1309 32.8128,16.8387 55.5876,8.82456m26.7376 -5.53703c23.1526,-1.92215 50.1728,1.84195 65.7179,12.8209 9.61823,5.47548 10.1834,17.2444 10.5005,24.2643l0.0223832 0.415021c2.69624,7.14676 7.83411,3.15509 11.8388,-2.40153l-0.0102589 -0.408493c-0.2658,-5.74594 -0.76196,-16.1448 -6.78769,-24.31 -0.948486,-1.2861 -2.02754,-2.50412 -3.26701,-3.64939 -19.5871,-18.911 -59.7061,-22.6331 -85.8515,-17.5829" sodipodi:nodetypes="ccccccccscc" inkscape:connector-curvature="0"/>
  </g>
  <g>
   <polygon class="fil2 str2" points="324.073,351.575 457.322,257.28 446.849,242.472 313.592,336.769 "/>
   <polygon id="1" class="fil3" points="324.073,351.575 457.322,257.28 446.849,242.472 313.592,336.769 "/>
  </g>
 </g>
</svg>
