<?xml version="1.0" encoding="UTF-8"?>
<svg version="1.1" viewBox="0 0 800 480" xmlns="http://www.w3.org/2000/svg" xmlns:cc="http://creativecommons.org/ns#" xmlns:dc="http://purl.org/dc/elements/1.1/" xmlns:rdf="http://www.w3.org/1999/02/22-rdf-syntax-ns#">
<title>Standard of the President of Kyrgyzstan</title>
<metadata>
<rdf:RDF>
<cc:Work rdf:about="">
<dc:format>image/svg+xml</dc:format>
<dc:type rdf:resource="http://purl.org/dc/dcmitype/StillImage"/>
<dc:title>Standard of the President of Kyrgyzstan</dc:title>
</cc:Work>
</rdf:RDF>
</metadata>
<path d="m1.8787e-6 480h800v-480h-800v480z" fill="#e8112c"/>
<path d="m400 95.992c79.484 0 144 64.518 144 144 0 79.488-64.517 144-144 144-79.484 0-144-64.518-144-144 0-79.486 64.517-144 144-144z" fill="#C93"/>
<path d="m400 104.53c74.769 0 135.45 60.691 135.45 135.46 0 74.773-60.689 135.47-135.45 135.47-74.769 0-135.47-60.691-135.47-135.47 0-74.771 60.691-135.46 135.47-135.46z" fill="#FF0"/>
<path d="m400 106.07c73.924 0 133.93 60.007 133.93 133.94 0 73.926-60.003 133.94-133.93 133.94-73.924 0-133.93-60.007-133.93-133.94 0-73.925 60.003-133.94 133.93-133.94z" fill="#F00"/>
<path d="m400 136.43c57.164 0 103.56 46.403 103.56 103.57s-46.401 103.57-103.56 103.57c-57.165 0-103.56-46.403-103.56-103.57 0-57.166 46.399-103.57 103.56-103.57z" fill="#FF0"/>
<path d="m400 137.99c56.307 0 102.01 45.704 102.01 102.01 0 56.308-45.703 102.01-102.01 102.01s-102.01-45.704-102.01-102.01c0-56.307 45.703-102.01 102.01-102.01z" fill="#C93"/>
<g transform="matrix(1.6933 0 0 1.6934 -.00093333 -945.64)" fill="#ffec3c">
<path d="m200.16 662.11c-0.571 0.666-1.298 1.341-1.772 2.072l20.568 5.018 0.325-1.123-19.121-5.967z"/>
<path d="m250.06 681.11 0.573-1.073 32.177 15.226c-0.224 1.189-0.272 2.421-0.498 3.62l-32.25-17.78z"/>
<path d="m238.48 646.51c-0.441 0-1.492 0.046-1.873-0.05l-0.549 9.935 1.223 0.099 1.199-9.984z"/>
<path d="m241.35 646.78c-0.53 0.04-1.338-0.11-1.872-0.2l-1.647 9.96 1.198 0.225 2.321-9.985z"/>
<path d="m244.37 647.18c-0.645-0.139-1.411-0.231-2.071-0.3l-2.646 10.11 1.197 0.3 3.52-10.11z"/>
<path d="m248.24 648.03c-0.586-0.078-1.367-0.25-1.922-0.45l-4.443 10.111 1.098 0.474 5.267-10.135z"/>
<path d="m251.24 648.93c-0.214-0.019-1.487-0.446-1.723-0.549l-6.016 10.06 1.023 0.599 6.716-10.11z"/>
<path d="m254.31 650.06c-0.122-0.026-1.894-0.7-1.973-0.749l-7.313 10.062 0.948 0.749 8.338-10.062z"/>
<path d="m257.4 651.45c-0.676-0.289-1.333-0.615-1.998-0.923l-8.986 9.96 0.899 0.799 10.085-9.836z"/>
<path d="m258.55 652.03-10.831 9.685 0.797 0.902 12.008-9.49s-1.785-0.961-1.974-1.097z"/>
<path d="m263.69 655.17c-0.164-0.082-1.933-1.259-2.023-1.348l-12.805 9.262 0.674 0.948 14.154-8.862z"/>
<path d="m266.94 657.64c-0.695-0.366-1.657-1.231-2.247-1.772l-14.877 8.787 0.624 1.024 16.5-8.039z"/>
<path d="m271.76 662.34c-0.573-0.419-1.418-1.425-1.873-1.997l-18.771 6.79 0.398 1.123 20.246-5.916z"/>
<path d="m274.63 665.86c-0.492-0.416-1.13-1.422-1.523-1.972l-21.468 4.918 0.275 1.174 22.716-4.12z"/>
<path d="m277.22 669.85c-0.58-0.672-1.16-1.785-1.598-2.571l-23.614 3.271 0.15 1.173 25.062-1.873z"/>
<path d="m279.47 674.34c-0.457-0.709-1.11-2.069-1.373-2.871l-25.912 0.825 0.025 1.173 27.26 0.873z"/>
<path d="m281.24 679.24c-0.385-0.819-0.859-2.235-1.048-3.121l-28.033-2.047-0.125 1.199 29.206 3.969z"/>
<path d="m282.46 684.53c-0.305-0.955-0.581-2.348-0.699-3.346l-29.805-5.366-0.25 1.173 30.754 7.539z"/>
<path d="m189.2 697.61c0.038 1.13 0.389 2.506 0.699 3.596l31.253-19.223-0.599-1.024-31.353 16.651z"/>
<path d="m188.76 692.47v-0.549c0-0.927-0.102-2.052 0.074-2.971l30.63-10.461 0.424 1.124-31.128 12.857z"/>
<path d="m189.48 683.48c-0.297 1.053-0.401 2.256-0.498 3.344l30.28-8.887-0.3-1.148-29.482 6.691z"/>
<path d="m190.75 678.34c-0.29 0.87-0.514 1.76-0.748 2.646l28.831-4.743-0.199-1.199-27.884 3.296z"/>
<path d="m192.6 673.62c-0.463 0.84-0.922 2.001-1.197 2.921l27.184-2.072-0.075-1.174-25.912 0.325z"/>
<path d="m194.85 669.33c-0.56 0.771-1.067 1.783-1.473 2.645l25.137 0.75 0.074-1.199-23.738-2.196z"/>
<path d="m197.39 665.48c-0.573 0.764-1.069 1.59-1.647 2.347l22.915 3.121 0.175-1.173-21.443-4.295z"/>
<path d="m204.96 657.52c-0.655 0.52-1.234 1.171-1.898 1.672l16.8 7.314 0.524-1.098-15.426-7.888z"/>
<path d="m207.98 655.22c-0.569 0.379-1.163 0.8-1.673 1.249l14.354 8.436 0.623-1.023-13.304-8.662z"/>
<path d="m211.02 653.23c-0.624 0.288-1.341 0.834-1.922 1.223l12.506 8.961 0.749-0.948-11.333-9.236z"/>
<path d="m214.42 651.48c-0.82 0.378-1.638 0.784-2.454 1.218l10.758 9.317 0.828-0.845-9.132-9.69z"/>
<path d="m217.06 650.2c-0.618 0.245-1.29 0.689-1.923 0.849l8.813 9.711 0.923-0.799-7.813-9.761z"/>
<path d="m220.03 649.08c-0.584 0.277-1.285 0.495-1.898 0.699l7.215 9.861 0.997-0.674-6.314-9.886z"/>
<path d="m223.1 648.13c-0.7 0.168-1.396 0.439-2.097 0.624l5.942 9.936 1.074-0.624-4.919-9.936z"/>
<path d="m227.05 647.26c-0.553 0.189-1.289 0.277-1.873 0.375l3.92 9.935 1.148-0.424-3.195-9.886z"/>
<path d="m229.89 646.81c-0.341 0.057-1.373 0.277-1.648 0.249l2.521 9.935 1.198-0.275-2.071-9.909z"/>
<path d="m232.76 646.56c-0.176 0.036-1.664 0.163-1.822 0.149l1.572 9.886 1.198-0.15-0.948-9.885z"/>
<path d="m235.61 646.46h-0.174l-1.647 0.024 0.524 9.912 1.198-0.025 0.099-9.911z"/>
<path d="m251.48 677.59-0.324 1.199 19.795 7.164 1.449-2.546-20.92-5.817z"/>
</g>
<path d="m398.45 171.24c12.073 0 22.365 10.113 22.365 22.366 0 12.355-10.192 22.407-22.365 22.407-12.238 0-22.407-9.9909-22.407-22.407 0-12.313 10.273-22.366 22.407-22.366z" fill="#FFF"/>
<path d="m343.93 212.06 6.7649 5.622 13.693-10.231 6.2145 9.7233 12.468-17.668 8.0739 6.8463 6.8901-15.894 13.78 10.907 1.436-5.1157 18.683 18.008 5.3696-8.201 26.248 11.625-111.08 16.528-18.133-15.26 9.5944-6.8903z" fill="#ffb72a"/>
<path d="m317.72 221.99 26.251-9.8911-0.84498 5.9183-1.69 0.88733 8.1144 7.6084 2.5367-1.6476-5.0732-6.8481 17.459-10.738-2.5367 7.3561h-1.69v2.281l9.0017 4.2691 2.8329-1.48-6.1705-5.07 17.16-15.051-0.54864 6.8074-3.1276 1.436 0.88731 3.3834 11.286 6.8056 1.0973-1.6494-7.9028-8.8344 13.23-17.29 2.5789 6.8074-3.6779 1.7323 16.063 16.106 0.54864-2.2386-6.1705-9.9351 5.8319-6.34 2.8736 10.905 11.584 5.9607 9.5944-7.1003 4.4805 4.8193-2.5367 3.678 17.204 3.1294-1.6916-3.1294 2.1996-4.269 23.417 8.792c-1.9321 1.0634-27.069 21.774-27.307 21.811h-105.42l-29.844-18.983z" fill="#ffde91"/>
<g transform="matrix(1.6933 0 0 1.6934 -.00093333 -945.64)" fill="#F60">
<path d="m275.38 691.57-10.434-1.249 5.816 3.495 4.618-2.246z"/>
<path d="m263.89 691.82-8.337-3.095 1.497 5.068 7.439 1.347-0.599-3.32z"/>
<path d="m251.91 690.4c0.133 0.094 1.674 1.168 1.698 1.198 0.57 0.743 1.745 3.05 2.271 3.97l-1.448 0.025c-0.594 0.01-3.771-1.863-4.494-2.247l1.973-2.946z"/>
<path d="m238.83 688.1 10.409 3.62 0.948 2.97-8.886-0.25-2.471-6.34z"/>
<path d="m233.34 689.6 5.118 1.499 1.822 4.642-8.862-0.475 1.922-5.666z"/>
<path d="m223.68 691.34c0.231 0.176 3.037 2.303 3.07 2.347 0.039 0.051 1.569 3.598 1.698 3.894l-2.971 0.723-5.741-3.644 3.944-3.32z"/>
<path d="m211.84 692.72 3.67 2.621 1.272 3.146-3.37 0.624-3.595-3.919 2.023-2.472z"/>
</g>
<path d="m404.33 219.46-4.2232 4.142 4.9801 7.0986-9.2592-0.88056 2.3249-2.8754-2.9989-4.9532-12.424 6.384 2.8753 6.7684-1.6087 1.0465-7.9943-5.324 2.6687-1.0465 0.16595-4.8295-16.647 7.4847 2.8347 2.8348-2.12 1.568-4.4433-3.0125 0.17949-6.55-14.845 5.8338 7.5675 8.9292h0.61807c0.0541 4.4231-1.7881 9.7031-5.1867 11.998 7.1289 21.725 37.336 25.921 56.683 25.921 17.792 0 48.484-8.6888 52.089-29.346-3.81-0.30819-6.3872-4.672-7.8571-8.572h1.3072l8.6953-14.212-9.0391-4.6907-4.0589 4.3198 2.12 3.7153-10.829-5.1598-3.1767-5.5306-4.2655 4.4705 3.7287 7.1003-7.4439-3.1649 1.9405-5.5442-5.3239 2.159 1.2649 4.4434-11.914-1.0584 1.4715-2.6687-7.8553-6.7973z" fill="#d23900"/>
<path d="m468.57 242.61c-1.8983 25.945-31.877 46.572-68.569 46.572-36.693 0-66.672-20.627-68.569-46.572h137.13z" fill="#C93"/>
<path d="m389.97 329.4c-0.42333 0.10667-0.84497 0.18288-1.27 0.18288-1.8644 0-2.6721-1.1515-3.2765-2.5147-2.0016-1.5139-3.3664-3.6086-3.3664-6.6583 0-1.2446 0.13213-2.5282 0.43011-3.7745-0.381-0.0644-0.72814-0.21337-1.0397-0.42842-0.38947-0.26586-0.70443-0.62825-0.94827-1.0465-0.45381-0.77557-0.68241-1.7882-0.68241-2.7382 0-3.5442 1.9084-6.8582 3.5492-9.7064 1.1058-1.9186 2.076-3.6036 2.076-4.7059h-4e-3v-7e-3h4e-3c0-0.77048-0.72475-1.055-1.3936-1.055v4e-3h-4e-3c-0.77047 0-1.822 0.91781-3.0768 2.0118-2.2572 1.9676-5.0597 4.4129-9.3083 4.4129-0.92626 0-1.9321-0.14393-2.8483-0.5114-0.91271-0.36407-1.6984-1.0194-2.4909-1.5799l1.5003-0.85008c1.4139-0.79927 2.4993-2.1167 3.5916-3.4393 0.37084-0.45043 0.74168-0.90087 1.1294-1.3395-0.99568 0.45721-2.032 1.1058-3.1056 1.7798-2.6145 1.6375-5.4339 3.4054-8.8933 3.4054-1.143 0-2.3148-0.21844-3.4527-0.55203-1.1007-0.32344-2.1641-0.75525-3.1327-1.1989l-3.0412-1.3954 3.2765-0.67734c2.6585-0.54866 4.5399-1.9999 6.2891-3.3478 0.65024-0.50124 1.2852-0.99063 1.9405-1.4292-1.6951 0.32513-3.302 1.1142-4.9293 1.9118-2.4417 1.1972-4.9309 2.4182-8.0247 2.4182-2.684 0-5.9537-1.2751-8.3803-3.0905v-4e-3c-0.47921-0.35899-0.92625-0.73662-1.3276-1.1261-0.40979-0.39965-0.78232-0.81961-1.104-1.2531l-1.756-2.3437 2.8635 0.613c2.8905 0.61639 6.2077 0.3065 9.122-0.76202 0.50631-0.18627 1.0042-0.39795 1.4884-0.63333-0.86698-0.24045-1.7864-0.27771-2.6823-0.27771-1.4411 0-2.0168 5e-3 -2.5655 8e-3 -9.1779 0.0711-13.069 0.0999-20.199-9.1036l-1.568-2.0252 2.5485 0.26077c2.584 0.26587 5.1917 0.38948 7.7995 0.5131 0.61299 0.0288 1.226 0.0559 1.8407 0.088-2.1573-0.79419-4.1691-1.3039-6.0435-1.7798-7.454-1.8898-12.883-3.2682-17.147-17.926l-0.87376-3.0092 2.5603 1.8051c4.2824 3.021 8.4599 4.2064 13.1 5.5239l0.11346 0.0321c-2.4875-2.5993-5.2984-4.0522-7.9672-5.429-6.0452-3.1243-11.411-5.8963-11.74-19.134-0.0627-2.579 0.15409-5.1749 0.26754-7.7489 1.0804 2.2945 2.0964 4.6517 3.3561 6.8549 2.9108 5.0835 5.5169 6.2096 9.9093 8.1062 1.0211 0.44197 2.1369 0.9229 3.4036 1.5172-0.62484-1.3378-2.5857-3.0448-4.8836-5.0513-4.5601-3.9761-10.323-9.002-11.025-16.067-0.3556-3.5968 0.49106-7.5575 1.4868-10.954h1e-3c0.89408-3.0514 2.2099-5.9759 4.0827-8.7649l2.8651-4.269-0.87037 5.0632c-0.72644 4.2233-0.16087 7.7438 1.2836 10.734 7.2627 12.612 25.476 9.51 33.352 20.011 1.3903 1.8491 2.706 4.1132 2.706 6.5246 0 4.5163-2.6619 8.4093-6.4245 10.78 3.0141 5.412 6.7005 9.8928 11.007 13.372 3.5848 2.2539 7.5421 4.0573 11.694 5.4832 1.5325 0.52665 3.0515 0.99233 4.55 1.4004 2.8261 0.77049 5.7083 1.3868 8.6004 1.8763 0.43011 0.0107 0.86529 0.0169 1.3022 0.0169 1.4173 0 2.8533-0.14224 4.274-0.21166 4.6651-0.23031 4.0387-9.7979 4.4805-12.68 0.82634-5.385 5.3696-15.599 11.919-15.599 0.8382 0 2.2488 0.77556 2.7907 1.3971 0.90085-0.50294 2.0015-0.89072 3.0429-0.89072 1.1312 0 2.5367 0.52495 2.5367 1.861 0 0.46399-0.47752 0.92966-0.889 1.0567-0.34036-0.36578-0.86699-0.50632-1.3513-0.50632-1.4173 0-3.4172 1.4648-4.6499 2.1557 1.7239 0.21337 3.7355-0.19812 4.9885 1.055-3.0515-0.40471-6.1723 1.8847-6.1723 5.1173 0 5.998 3.7016 16.908 11.159 16.908 2.4181 0 4.7176-0.14054 6.9088-0.41995 4.9665-1.1041 9.9196-2.6349 14.435-4.6517 6.6853-3.8134 12.033-9.7895 16.547-17.974-0.0339-0.29295-0.0728-0.57743-0.1168-0.85007-3.8337-2.3793-7.5912-6.5923-7.5912-11.319 0-15.314 22.945-13.926 32.267-23.907 2.3537-3.6865 3.9285-8.1926 4.0827-13.872l0.10667-3.8846 1.9405 3.3597c1.0025 1.7358 2.0371 3.7661 2.9007 5.893 0.15579 0.38101 0.31665 0.80097 0.48599 1.2616 0.96182 2.6298 1.6205 5.3698 1.6205 7.8912h4e-3v4e-3c0 13.009-5.8589 17.235-10.306 20.442-1.9845 1.431-3.644 2.6281-4.1064 4.3503 2.1149-1.751 3.8523-2.1455 5.5592-2.535 2.5281-0.57575 4.9835-1.1346 9.0949-8.0249l2.2031-3.6916-0.16595 4.2926c-0.11346 2.9516-0.39793 7.3357-1.48 11.32-1.1362 4.1827-3.1564 7.9556-6.7733 9.4016-1.1752 0.47075-2.352 0.78403-3.5255 1.0956-1.7255 0.45891-3.4459 0.91612-4.9683 1.8644-0.69936 0.43689-1.2768 1.0126-1.8085 1.6443 0.95504-0.26416 1.9677-0.49108 3.0192-0.72985 3.556-0.80774 7.6285-1.7323 11.284-4.4993l3.1513-2.3843-1.4699 3.6696c-6.3043 15.743-12.9 16.594-18.788 17.354-2.7907 0.35899-5.4017 0.69598-7.6809 3.0397h0.0356v-5e-3h8e-3c1.4512 0 2.9057 0.15241 4.3603 0.30481 1.3699 0.14224 2.7432 0.28619 4.1351 0.28619v4e-3c0.45381 0 0.92117-0.0203 1.3903-0.0711 1.8152-0.19136 3.2648-0.93983 4.9428-1.6408l-1.1464 2.5418c-1.4477 3.2124-3.5052 5.7542-6.0977 7.4966-3.4511 2.3217-7.432 2.767-11.506 2.5891-2.374-0.10333-5.29-0.232-7.4185 0.33698 0.42333 0.1304 0.84497 0.26248 1.2666 0.39456 2.7465 0.85855 5.5016 1.7204 8.2991 1.7136l2.2099-4e-3 -1.3344 1.7628c-1.2954 1.7103-2.8092 2.9601-4.5364 3.7864-1.7239 0.82468-3.6339 1.2175-5.7235 1.2175-2.2691 0-4.4095-0.84331-6.5041-1.6883-1.6171-0.65026-3.2123-1.3022-4.6956-1.4816 0.93472 0.5605 1.7831 1.2396 2.6399 1.9271 1.3344 1.0685 2.6975 2.159 4.3655 2.6892l2.4147 0.7671-2.2132 1.2362c-1.5037 0.83992-3.4933 1.5342-5.2205 1.5359v4e-3h-5e-3c-4.6989 0-8.3481-2.1642-11.227-3.8694-0.39116-0.232-0.76708-0.45552-1.1244-0.65873 0.18457 0.25232 0.35898 0.50463 0.52832 0.75356 1.0905 1.5799 2.0676 2.9973 5.7641 3.5308l4.5991 0.66381-4.4095 1.4648c-1.8288 0.60623-3.722 1.2023-5.6693 1.2023-4.7057 0-7.178-2.2606-9.2355-4.1437-1.1938-1.0922-2.2183-2.0303-3.3596-2.0303h-5e-3v-4e-3c-0.4826 0-1.0533 0.52325-1.0533 1.0177h4e-3v1e-3c0 1.9271 1.3665 4.4129 2.7195 6.8718 1.4563 2.6502 2.8973 5.2715 2.8973 7.6253h5e-3v1e-3c0 1.6324-1.0516 2.6569-2.3504 3.1649-0.0829 0.0339-0.16764 0.0609-0.25062 0.0897 0.0677 0.37932 0.1304 0.76202 0.18119 1.1413v5e-3l0.0576 0.43859c0.10333 0.88733 0.15917 1.7967 0.15917 2.7111h5e-3v0.0169c0 4.6247-2.2893 7.395-5.5 9.085-2.86 1.5071-6.4245 2.0998-9.6707 2.3995-0.37931 0.63163-0.92625 1.3056-1.5917 1.7306l1e-3 1e-3c-0.19643 0.12533-0.4064 0.23199-0.62823 0.31327-0.28448 0.10333-0.58928 0.16256-0.91101 0.16256v5e-3h-5e-3c-1.5359 0-2.5485-0.60622-3.5679-1.2158-0.51139-0.3065-1.0278-0.61639-1.5731-0.78403v-1e-3c-0.73492-0.22353-1.6188-0.45384-2.5569-0.69768-1.6256-0.42334-3.4019-0.88733-5.1037-1.5038z" fill="#FFF"/>
<g transform="matrix(1.6933 0 0 1.6934 -.00093333 -945.64)" fill="#F00">
<path d="m235 723.03c0.027 0.141 0.041 0.288 0.041 0.438 0 1.127-0.791 2.041-1.768 2.041-0.976 0-1.767-0.914-1.767-2.041 0-0.15 0.014-0.297 0.041-0.438 0.219 0.727 0.909 1.259 1.727 1.259 0.817 0 1.507-0.532 1.726-1.259z"/>
<path d="m238.73 723.15c0.026 0.14 0.041 0.287 0.041 0.437 0 1.127-0.792 2.041-1.768 2.041s-1.768-0.914-1.768-2.041c0-0.15 0.015-0.297 0.042-0.437 0.219 0.727 0.909 1.259 1.726 1.259 0.818 0 1.507-0.532 1.727-1.259z"/>
<path d="m236.34 725.47c0.021 0.112 0.033 0.229 0.033 0.349 0 0.898-0.633 1.627-1.414 1.627-0.78 0-1.413-0.729-1.413-1.627 0-0.12 0.011-0.237 0.033-0.349 0.175 0.58 0.727 1.004 1.381 1.004 0.653 0 1.205-0.424 1.38-1.004z"/>
<path d="m240.56 725.52c0.024 0.11 0.037 0.225 0.037 0.342 0 0.881-0.717 1.596-1.601 1.596s-1.602-0.715-1.602-1.596c0-0.117 0.014-0.232 0.038-0.342 0.199 0.569 0.823 0.985 1.564 0.985 0.74 0 1.365-0.416 1.564-0.985z"/>
<path d="m238.46 727.23c0.021 0.112 0.033 0.229 0.033 0.349 0 0.899-0.633 1.627-1.414 1.627s-1.414-0.728-1.414-1.627c0-0.12 0.012-0.237 0.033-0.349 0.176 0.58 0.727 1.004 1.381 1.004s1.205-0.424 1.381-1.004z"/>
</g>
<path d="m412.23 327.98c-0.3065-0.0915-0.6096-0.17612-0.90763-0.24046l-0.84497-1.9456c1.3479-0.41828 1.6476-2.1743 1.6476-3.3817 0-2.7043-1.1955-5.2055-2.452-7.5237l-0.0847-0.11347-0.11347-0.11346-0.012 0.14393-0.0169 0.12533-0.11173 0.19813-0.254 0.0965c-2.6229 0-4.0945-12.57-5.2832-15.132 1.2497-1.519 3.4645-4.1725 3.4645-6.2587 0-0.63671 0.0152-1.2904-0.21167-1.8999-1.1735 0.33529-2.6603 0.67566-3.8879 0.67566-8.1247 0-10.753-5.4222-12.427-12.722-24.791 2.1083-44.976-8.433-53.133-32.552 0.40809 0.35561 1.6967 1.0567 2.2403 1.0567 3.1971 0 4.6076-2.1539 4.6076-5.1564 0-1.1786-1.0414-2.7415-1.7187-3.634-7.1103-9.3848-22.473-5.2851-26.992-20.977-1.2175-2.2777-1.9711-4.86-2.0964-7.8184-0.5825 1.292-1.0668 2.6111-1.4596 3.9557v4e-3c-0.83312 2.8398-1.2785 5.8083-1.4648 8.897 0 6.8395 5.8064 11.904 10.339 15.855 3.214 2.8042 5.8488 5.1021 5.8488 7.5203l-4e-3 0.044-0.0423 1.0143-0.0695 1.6967-1.5172-0.76033c-1.8559-0.92966-3.5527-1.6612-5.0495-2.3081-4.5872-1.9813-7.3999-3.1972-10.417-8.1249 0.58928 10.949 5.2595 13.364 10.5 16.072 3.6965 1.9102 7.6539 3.954 10.89 8.7954l1.7085 2.5537-2.938-0.8941c-1.0499-0.32005-2.242-0.65872-3.4069-0.98893-3.9184-1.1142-7.5151-2.137-11.181-4.2047 3.7592 10.794 8.4295 11.981 14.668 13.562 3.4595 0.87717 7.3677 1.8678 11.865 4.4688l4.4112 2.5486-5.0699-0.50802c-2.5281-0.25231-5.0851-0.37255-7.642-0.49277-1.7712-0.0847-3.5424-0.16935-5.3171-0.29804 5.4965 6.3519 9.1423 6.3264 16.832 6.2672 2.7432-0.0203 6.0384-0.35223 8.2516 1.6155l1.0651 0.94661c-1.5392 1.0245-3.0293 1.9507-4.7921 2.5959-2.2233 0.81621-4.66 1.2362-7.024 1.2057 2.054 1.4732 4.7007 2.4961 6.8496 2.4961 2.6044 0 4.8548-1.1041 7.0612-2.1862 2.3571-1.1549 4.6719-2.2911 7.4795-2.2911v-4e-3h4e-3v4e-3c0.31327 1e-3 0.66887 0.0695 1.0194 0.17441 0.0965 0.0305 0.2032 0.0644 0.31496 0.10493h-1e-3c1.3461 0.47416 2.5367 1.3514 3.7405 2.0965l-2.7008 0.55713c-1.6577 0.34206-3.0599 1.4242-4.5601 2.5807-1.2548 0.96692-2.5705 1.9813-4.1961 2.7551l0.0761 0.022h5e-3c0.9432 0.27772 1.9067 0.45723 2.8329 0.45723 2.8465 0 5.3815-1.5884 7.7317-3.0617 2.2877-1.4326 4.4213-2.7703 6.7665-2.7703h0.012l8e-3 4e-3c1.2395 0.0136 2.7093 0.47753 3.9065 0.69429l-2.4164 1.5038c-1.3529 0.84161-2.4028 2.115-3.4459 3.3784-0.78232 0.94829-1.5596 1.8915-2.4773 2.7077 0.34205 0.0559 0.69089 0.0796 1.0312 0.0796 3.4357 0 5.8895-2.1405 7.8639-3.8626 1.5985-1.3936 2.9363-2.5621 4.5212-2.5621h4e-3v5e-3c1.9033 1e-3 3.5831 1.226 3.5865 3.248h5e-3v7e-3h-5e-3c-1e-3 1.6883-1.1074 3.6086-2.3689 5.7982-1.502 2.6061-3.2479 5.639-3.2479 8.6142 0 0.5893 0.12707 1.1955 0.381 1.6307 0.0915 0.15409 0.19135 0.27771 0.29464 0.34883 0.0627 0.044 0.14055 0.0695 0.23199 0.0695 0.15579 0 0.3556-0.0644 0.60621-0.20998l2.8279-1.651-1.2582 3.0228-5e-3 0.012c-0.0796 0.19644-0.15409 0.40133-0.22352 0.6147-0.0745 0.2303-0.13885 0.44705-0.19304 0.64857-0.29464 1.1295-0.42164 2.325-0.42164 3.502 0 1.7712 0.69427 3.1446 1.7983 4.2334 0.59774-0.29128 1.187-0.59608 1.5849-1.0211 1.0617-1.1346 2.0709-6.7346 2.0709-8.4957 0-3.2546-0.80264-6.5534-0.80264-9.8911-1e-3 -4.2944 1.1549-8.5262 1.2666-12.81 0.0983-0.26417 0.4064-0.25401 0.6333-0.25401 4.384 0 5.4508 6.6296 8.8341 8.455-3.9065 3.2953-1.458 15.642-5.1985 15.642-0.21166 0-0.34544-0.20491-0.3793-0.38271v-0.29634c-0.2049 0-0.0424 0.91443-0.0424 1.0177 0 2.5198-2.8312 4.6517-2.8312 7.3086 0 1.1447 0.86529 2.5249 1.944 2.9194l-0.49107 1.1295c1.0143 0.30311 2.0252 0.56728 2.9803 0.81621 0.93472 0.24214 1.8169 0.47245 2.6451 0.72476h4e-3c0.79926 0.24555 1.4309 0.62317 2.0557 0.9991 0.75353 0.45044 1.5003 0.89749 2.4417 0.89749h5e-3v4e-3c0.0475 0 0.10334-0.012 0.16426-0.0339 0.0576-0.022 0.12186-0.0559 0.18796-0.0983h5e-3c0.47075-0.29973 0.86868-0.91273 1.0973-1.3954l0.26924-0.57575 0.63331-0.0525c2.3232-0.19304 4.8447-0.52325 7.0883-1.2429zm72.137-118.86c-0.77216 16.675-13.904 20.289-22.348 24.503-2.3047 1.4224-4.3248 2.7602-5.7488 4.1538-0.81619 1.0855-1.2836 2.3402-1.2836 3.8508 0 2.7314 3.5492 4.4806 5.8759 4.4806 0.65024 0 1.9389-0.66042 2.4113-1.099-5.8301 19.909-20.767 35.68-42.651 35.68-2.2233 0-4.4585-0.14055-6.6803-0.21167-0.31835 5.9319-1.016 11.942-1.016 17.88 0 7.1799 0.68919 13.772 2.1996 20.798 0.77385 3.6069 0.68749 3.2462 2.8533 4.628 0.57235-1.0685 0.90255-2.3538 0.90255-3.9066v-0.0169h4e-3c0-0.79588-0.0525-1.6239-0.15071-2.4622-0.0237-0.21505-0.0407-0.3319-0.0491-0.39964-0.0931-0.69767-0.21675-1.3835-0.36407-2.0422l-0.27093-1.2074 1.2378-0.12026 0.0136-1e-3c0.12867-0.0136 0.27094-0.0389 0.42334-0.0745h5e-3c0.13716-0.0321 0.27263-0.0745 0.39963-0.12361 0.52493-0.20489 0.94996-0.57574 0.94996-1.1193v-1e-3h5e-3c-1e-3 -1.7798-1.3106-4.1606-2.6331-6.567-1.4884-2.7077-2.9939-5.4459-2.9939-7.9301v-1e-3h5e-3c1e-3 -1.7019 1.5561-3.2073 3.2461-3.2106v-4e-3h5e-3c1.9812 0 3.3003 1.2057 4.8379 2.6146 1.7679 1.6172 3.8913 3.5596 7.7572 3.5596 0.42164 0 0.84328-0.0372 1.2649-0.0983-1.6645-0.86701-2.4808-2.0507-3.3545-3.3173-0.73491-1.0668-1.5207-2.2065-3.0937-3.1785l-2.6297-1.6239 3.0683-0.39625 0.97197-0.12534 0.0983-0.0136h0.0403v5e-3c1.5223 0 3.1243 0.94998 5.0631 2.0998 2.6484 1.5698 6.0063 3.5594 10.109 3.5594h5e-3v4e-3c0.57065 0 1.2717-0.14054 1.9761-0.35391-0.97536-0.59099-1.8407-1.2836-2.6975-1.9694-1.3615-1.0888-2.6941-2.1557-4.296-2.5773l-1.7441-0.4589 2.2488-2.4842 0.34036-0.0761 0.0107-1e-3c0.47244-0.10493 0.91778-0.28279 1.4123-0.28279h1e-3v4e-3c2.1336 1e-3 4.1825 0.8433 6.2739 1.6848 1.8932 0.76202 3.8219 1.524 5.6879 1.524 1.7747 0 3.3697-0.32174 4.7769-0.99401 0.80942-0.38609 1.5664-0.89581 2.2691-1.5308-2.2724-0.29804-4.4467-0.97539-6.6141-1.6544-1.2751-0.39795-2.5501-0.79758-3.7761-1.0973l-1.8999-0.46568 1.3784-1.3784 7e-3 -5e-3h4e-3c2.4604-2.4554 7.4287-2.2387 11.186-2.0745 3.5967 0.15578 7.0528-0.10667 10.192-2.2183 1.6459-1.1075 3.0497-2.6027 4.1859-4.4435-0.68918 0.0932-1.3852 0.13214-2.054 0.13214v5e-3c-1.4495 0-2.904-0.15241-4.3587-0.30481-2.8109-0.26925-5.3527-0.75016-8.1585 0.62317 0.41486-2.8788 2.816-5.6356 5.3949-6.8819 1.8864-0.91105 3.8947-1.1701 5.9893-1.4394 4.8599-0.62655 10.258-1.3259 15.629-12.775-2.1472 1.1109-4.3163 1.7932-6.3907 2.3217-3.0243 0.77051-6.902 0.50294-9.3219 1.6054 0.8636-3.3512 2.5959-5.1411 3.8083-5.8964 1.7949-1.1193 3.6796-1.6206 5.5693-2.1218 1.1108-0.29465 2.2233-0.59099 3.2681-1.011 2.8363-1.1329 4.4873-4.3436 5.4644-7.9402 0.60622-2.2285 0.94827-4.5941 1.1515-6.7414-3.3291 4.4553-5.7353 5.0023-8.1957 5.5628-1.8576 0.42335-3.7559 0.85686-6.3263 3.7272l-1.712 1.9102-0.20151-2.5553-0.12693-1.6054-5e-3 -0.0864c0-3.4088 2.3012-5.0665 5.1545-7.1258 4.0504-2.9212 9.3861-6.7685 9.3861-18.663v-4e-3h5e-3c0-2.2353-0.60622-4.7228-1.4919-7.1427-0.13213-0.36069-0.28617-0.75864-0.45889-1.1854-0.32343-0.79589-0.67226-1.5766-1.0312-2.3285-0.10667 0.75865-0.24046 1.4952-0.39624 2.2099z" fill="#F00"/>
<path d="m403.75 249.81c0.12866 0.0695 0.2286 0.13041 0.254 0.16765l0.12693 0.0847 0.0423 0.12534c0 0.14055-0.47922 0.4623-0.59098 0.42334l-0.17102-0.0407-0.25231-0.254-0.0423-0.12867 0.0423-0.12534c-0.1152 0.0627-0.50631 0.49108-0.50631 0.63672v0.16764c0.0576 0.0271 0.0576 0.11681 0.0847 0.16934 0.0965 0.19643 0.52832 0.25061 0.71628 0.25061 0.254 0 1.0448-0.40641 1.226-0.58929 0.0644-0.0677 0.11347-0.18627 0.15579-0.26925l0.0576-0.11346v-0.25232c-0.19643-0.0711-0.16425-0.19305-0.46567-0.25401-0.0271-7e-3 -0.1084-0.0407-0.12706-0.0407h-0.33867c-0.0695 1e-3 -0.1304 0.0593-0.21167 0.0424z" fill="#465e86"/>
<path d="m400.07 252.54c1.1938-1.6731 2.5552-3.5104 4.8192-3.5104 0.34544 0 0.80094 0.12867 1.1413 0.21337l-0.21166 0.20998h-0.29634l-0.12693 0.0864c-0.0609 1.1955-1.0465 1.9846-2.198 1.9846-0.33189 0-0.99568-0.4606-1.1836-0.7163-0.66717 0.33529-1.4529 1.5884-1.944 1.7323z" fill="#633"/>
<path d="m285.81 270.22-1.2802-0.95507c-0.28279-0.21336-0.64008-0.4606-1.0668-0.7417l-1.3242-0.86193-3.5373-2.2133c-1.5376-0.95676-2.4113-1.4732-2.628-1.5494l-0.82296 0.19136-0.13716-0.1084c-0.12534-0.70276-0.24215-1.2921-0.35052-1.7644l-0.59944-2.4147 0.0897-0.15409 0.58928-0.13548 0.14224 0.0728c0.18627 0.77219 0.36407 1.3395 0.53679 1.7019 0.16594 0.36407 0.43518 0.72476 0.80602 1.0838 0.36576 0.36069 1.1379 0.95168 2.3131 1.7747l5.8759 4.0878 5.6456-9.7099c0.8365-1.4394 1.2869-2.2725 1.3665-2.4926 0.0745-0.22184 0.066-0.55374-0.0288-1.0042l0.0796-0.11681 0.54187-0.12533 0.12706 0.0695c0.32512 1.5647 0.49954 2.5062 0.53002 2.8381 0.0339 0.32513 1e-3 0.67228-0.0864 1.0313-0.088 0.359-2.1776 4.1539-6.2653 11.378l2.7449-0.63333 2.5231-0.59607c0.96012-0.23199 1.5799-0.40302 1.8593-0.51309 0.2777-0.10667 0.45212-0.21168 0.52493-0.31666 0.0695-0.10334 0.11173-0.27603 0.12187-0.51479 0.0136-0.24385-0.0728-0.83653-0.25062-1.773l0.0576-0.10668 0.64347-0.14732 0.12027 0.0644c0.0288 0.1236 0.18288 0.88903 0.45212 2.3013 0.12706 0.62486 0.2269 1.1007 0.3048 1.436 0.0321 0.13548 0.35052 1.3598 0.95165 3.6645l-0.0761 0.12867-0.64178 0.14732-0.10333-0.0864c-0.31835-1.1735-0.56557-1.844-0.75015-2.0016-0.17949-0.15749-0.47244-0.20152-0.88053-0.13886-0.40809 0.0609-1.8339 0.36238-4.2875 0.91612l-5.9656 1.3767-2.5264 0.60622c-0.96689 0.22353-1.5917 0.39117-1.8627 0.49955-0.27602 0.11-0.45212 0.21506-0.52324 0.32005-0.0796 0.1016-0.11854 0.27263-0.12694 0.51648-8e-3 0.24216 0.0779 0.82467 0.2557 1.7526l-0.0677 0.12694-0.64177 0.14733-0.1168-0.0829c-0.41995-2.137-0.66887-3.3782-0.74676-3.7118-0.0847-0.36916-0.40471-1.5986-0.96181-3.6898l0.0711-0.1084 0.64347-0.14903 0.11173 0.066c0.22183 0.83993 0.38778 1.3767 0.50292 1.6188 0.11174 0.24215 0.22183 0.39287 0.3302 0.4606 0.10667 0.0644 0.29803 0.0932 0.57574 0.0897 0.28109-5e-3 0.87037-0.1084 1.778-0.30819l2.7364-0.61808 2.7043-0.62486zm5.9691-15.567-0.6587 0.012-0.0847-0.10667c-0.0389-0.77557-0.0897-1.3124-0.14393-1.6188-0.0609-0.30143-0.14902-0.50293-0.26416-0.59608-0.1152-0.0983-0.3048-0.15748-0.56727-0.18796-0.25908-0.0321-0.91779-0.0475-1.9711-0.0475-1.0566 5e-3 -1.9135 0.0107-2.5875 0.022l-6.1215 0.10666c-0.83143 0.0152-1.778 0.0407-2.8431 0.0829-1.0702 0.0407-1.7019 0.088-1.8999 0.13547-0.19812 0.0541-0.33698 0.1236-0.41656 0.21506-0.0847 0.088-0.14732 0.26925-0.18966 0.5368-0.044 0.27094-0.0763 0.82298-0.0965 1.651l-0.0932 0.10841-0.6604 0.012-0.0948-0.10668c-1e-3 -0.0627 5e-3 -0.6367 0.0237-1.734 0.0169-1.0482 0.022-1.7442 0.0169-2.0913-4e-3 -0.18628-0.0609-1.4394-0.17442-3.7694l0.0932-0.0915 0.6604-0.012 0.0948 0.0897c0.0525 0.88395 0.1084 1.453 0.17103 1.7035 0.0576 0.2574 0.13377 0.42673 0.22521 0.50632 0.088 0.0847 0.24215 0.14563 0.45551 0.18627 0.20828 0.0372 0.87207 0.0627 1.988 0.0644 1.1193 4e-3 2.0133-4e-3 2.6957-0.0152l1.7069-0.0288-0.0271-1.5766c-0.0253-1.3818 0.0169-2.579 0.12533-3.5917 0.11-1.0143 0.3556-1.8949 0.73491-2.6553 0.381-0.75694 0.889-1.3395 1.524-1.7578 0.63839-0.41657 1.3479-0.63163 2.1336-0.64688 1.0651-0.0169 2.0964 0.28957 3.092 0.91782 0.99568 0.63333 1.7543 1.4462 2.2877 2.4435 0.52663 0.99401 0.80434 2.4029 0.83482 4.2182 0.0107 0.5368 8e-3 1.2514-0.012 2.1455-0.0203 0.83652-0.0271 1.4631-0.0203 1.8779 0.0169 1.0211 0.0728 2.1862 0.16425 3.4884l-0.1016 0.11001zm-9.7468-4.9904 6.7445-0.11854c0.64516-0.012 1.0837-0.0423 1.3072-0.0948 0.23029-0.0541 0.38608-0.1236 0.47583-0.22013 0.0847-0.0931 0.1524-0.2828 0.19304-0.57237 0.044-0.28618 0.0609-0.67566 0.0525-1.1583-0.0237-1.2717-0.22521-2.2861-0.61807-3.0413-0.39285-0.75694-0.94826-1.3259-1.6612-1.7103-0.7112-0.38609-1.5359-0.56898-2.4705-0.55374-0.75861 0.0136-1.4055 0.16087-1.944 0.44027-0.53509 0.27603-0.97536 0.68582-1.314 1.2209-0.33866 0.53341-0.5588 1.138-0.66378 1.8086-0.1016 0.67567-0.14563 1.5342-0.12694 2.5858l0.0253 1.4139zm-9.1999-9.3017 0.0255-1.6544c0.0169-1.0838 0.022-1.7967 0.0169-2.1303-5e-3 -0.29802-0.0644-1.563-0.17442-3.7966l0.0932-0.10493 0.65871-0.012 0.0965 0.1016c0.0288 0.60963 0.0644 1.0787 0.1016 1.4088 0.0407 0.3319 0.11347 0.57066 0.21167 0.71799 0.1016 0.14732 0.32851 0.24384 0.6858 0.28618 0.35899 0.044 0.85513 0.0576 1.4919 0.0457l3.0429-0.0253 6.1231-0.10667 2.5772-0.0592c0.99737-0.0253 1.6425-0.0644 1.9304-0.1152 0.29294-0.0457 0.48598-0.11174 0.57912-0.19983 0.0983-0.0864 0.1761-0.24722 0.23537-0.48599 0.0644-0.24047 0.10333-0.82806 0.1236-1.7646l0.0796-0.10493 0.65871-0.012 0.10493 0.1016c1e-3 0.0457-8e-3 0.82299-0.0356 2.3318-7e-3 0.62825-7e-3 1.116-1e-3 1.4682 5e-3 0.27601 0.0627 1.5342 0.16933 3.7813l-0.1016 0.11-0.65871 0.012-0.0829-0.10667c-0.0508-0.81621-0.10493-1.3666-0.15917-1.6375-0.0593-0.27433-0.1304-0.45383-0.21675-0.54696-0.0847-0.088-0.26585-0.16256-0.53679-0.21676-0.2777-0.0491-0.8873-0.0745-1.8305-0.066l-2.7907 0.0389-6.1231 0.10668-2.5807 0.0677c-1.0042 0.0271-1.6527 0.0644-1.9405 0.11-0.29295 0.0423-0.48599 0.1084-0.57912 0.19475-0.0983 0.0847-0.17272 0.24722-0.23199 0.4843-0.0576 0.24046-0.0932 0.82806-0.11347 1.7628l-0.0915 0.11013-0.6604 0.012-0.0965-0.10666zm0.1304-11.439c0.3793-2.1913 0.61298-3.59 0.69765-4.1894 0.1152-0.82299 0.22183-1.7475 0.32004-2.7721 0.11853-1.0922 0.19304-1.7611 0.2286-2.0168 0.17272-1.2209 0.44365-2.2115 0.80772-2.977 0.36576-0.76541 0.92456-1.3615 1.6696-1.7899 0.74337-0.43011 1.5951-0.57913 2.5468-0.44536 0.7874 0.11001 1.5223 0.40134 2.2031 0.8704 0.68072 0.47415 1.231 1.0719 1.6595 1.7967 0.42164 0.72985 0.69427 1.4427 0.82296 2.1506 0.12867 0.70107 0.14394 1.4156 0.0407 2.1387-0.0745 0.54188-0.22183 1.1362-0.43688 1.7864l-0.83143 0.10666-0.11346-0.13546c0.23876-0.63164 0.39116-1.1583 0.44873-1.5647 0.16087-1.1447-0.0897-2.1185-0.74845-2.9177-0.65871-0.79928-1.5748-1.2853-2.7568-1.4512-1.1836-0.16596-2.1827 0.0627-2.9904 0.68412-0.8128 0.61978-1.3191 1.6612-1.524 3.1193-0.11174 0.7908-0.0864 1.6883 0.0796 2.6823 0.6604 0.17103 2.2776 0.44028 4.8581 0.80266l6.0621 0.85177 2.5552 0.34545c0.98891 0.1304 1.6341 0.19305 1.9253 0.18797 0.29633 1e-3 0.49784-0.0339 0.60282-0.10668 0.11-0.0711 0.21336-0.21674 0.30819-0.44535 0.1016-0.22692 0.23199-0.80097 0.39793-1.7222l0.0948-0.0915 0.65363 0.0915 0.088 0.11855c-0.381 2.2166-0.59267 3.4681-0.63161 3.7457-0.0424 0.29973-0.18119 1.5511-0.42334 3.7626l-0.11853 0.0915-0.65193-0.0915-0.066-0.11853c0.0779-0.81452 0.11-1.3666 0.0983-1.6408-0.0152-0.28111-0.0576-0.46908-0.12866-0.57576-0.0677-0.0999-0.23538-0.20151-0.49615-0.29634-0.26585-0.0932-0.8636-0.21336-1.7967-0.35392l-2.7619-0.39625-6.0639-0.85346-2.5603-0.33698c-0.99568-0.13041-1.6425-0.19305-1.9355-0.19305-0.29464-7e-3 -0.49615 0.0305-0.60114 0.10161-0.11 0.066-0.20828 0.21675-0.3048 0.44028-0.0948 0.2286-0.22182 0.80266-0.38777 1.7239l-0.1084 0.0948-0.65363-0.0915-0.0779-0.12028zm5.4373-22.386 10.873 3.1176c0.65532 0.18796 1.4868 0.41657 2.4993 0.6892 1.0143 0.27602 1.6511 0.43012 1.9168 0.46907 0.26246 0.0372 0.46228 0.0253 0.59605-0.0457 0.13547-0.0644 0.27093-0.24046 0.40979-0.52495 0.13377-0.29126 0.32004-0.78742 0.55202-1.5003l0.1084-0.0813 0.63331 0.18119 0.0695 0.13214c-0.45043 1.3276-0.83651 2.5418-1.1532 3.6441-0.33698 1.1803-0.64855 2.3927-0.93472 3.639l-0.1304 0.0763-0.63331-0.1812-0.0491-0.12707c0.18796-0.75016 0.29803-1.2819 0.33359-1.5867 0.0321-0.30988 5e-3 -0.52325-0.0763-0.65025-0.0829-0.12361-0.24553-0.24047-0.48769-0.34715-0.23707-0.10493-0.86529-0.30819-1.8728-0.61639-1.0092-0.30819-1.8321-0.55373-2.4791-0.73831l-5.8843-1.6883c-0.86868-0.24892-1.8-0.50632-2.8008-0.77048-1.0042-0.26417-1.6053-0.39964-1.8051-0.40472-0.19812-0.0107-0.35391 0.0203-0.4572 0.0897-0.1084 0.0627-0.22352 0.21844-0.34036 0.46568-0.12187 0.24215-0.31157 0.75694-0.57065 1.5326l-0.12187 0.0779-0.63331-0.18119-0.0609-0.1304c0.41148-1.1752 1.3683-4.3808 2.8701-9.6201 0.0897-0.31158 0.37762-1.4462 0.8636-3.402l0.32512-0.1236c0.7654 0.36577 1.8829 0.80774 3.3495 1.331l0.0779 0.10333-0.13547 0.47246-0.13213 0.0847-1.016-0.11174c-0.37084-0.0508-0.68411-0.0525-0.94319-4e-3 -0.254 0.0541-0.46736 0.17103-0.63839 0.36238-0.16764 0.18966-0.32004 0.43859-0.44873 0.7434-0.12533 0.30819-0.26925 0.72646-0.42165 1.2616l-1.2514 4.3621zm19.192-3.568-0.59775-0.27941-0.0288-0.13214c0.3048-0.7163 0.49446-1.2192 0.58082-1.519 0.0779-0.29634 0.0864-0.51648 0.0237-0.65026-0.0609-0.13886-0.20489-0.27602-0.42841-0.41996-0.21675-0.14055-0.80264-0.44366-1.7492-0.90596-0.95166-0.45721-1.7255-0.82806-2.3351-1.1126l-5.5491-2.5875c-0.75353-0.35222-1.6171-0.74508-2.5925-1.1735-0.98044-0.43352-1.568-0.6672-1.7661-0.70954-0.20151-0.0389-0.3573-0.0372-0.46906 0.0107-0.11346 0.0423-0.2523 0.17611-0.4047 0.39964-0.15918 0.22352-0.43011 0.70615-0.81111 1.4394l-0.13213 0.0576-0.59775-0.27771-0.0407-0.13886c0.0271-0.0559 0.28618-0.56898 0.78232-1.5478 0.47583-0.93474 0.78571-1.5579 0.93303-1.8728 0.0779-0.16764 0.57573-1.3208 1.4952-3.463l0.1236-0.0407 0.59775 0.27772 0.0475 0.12187c-0.34036 0.8179-0.54017 1.353-0.59436 1.6054-0.0592 0.2574-0.066 0.44367-0.0187 0.55543 0.0407 0.11347 0.15409 0.23538 0.32681 0.36577 0.17103 0.12534 0.75692 0.43859 1.7593 0.92967 1.0042 0.49447 1.8119 0.88056 2.4299 1.1684l1.546 0.72138 0.66548-1.4275c0.5842-1.2531 1.1481-2.3115 1.69-3.1734 0.54187-0.86362 1.1498-1.5478 1.8237-2.0642 0.67395-0.51309 1.3868-0.81451 2.1387-0.91104 0.75692-0.0948 1.4901 0.022 2.2013 0.35392 0.9669 0.45044 1.7577 1.1786 2.3775 2.1794 0.61637 1.0059 0.94319 2.0693 0.98383 3.1988 0.0389 1.1244-0.32851 2.513-1.0956 4.1573-0.22691 0.4877-0.54187 1.1278-0.95165 1.9237-0.38608 0.7417-0.66718 1.3022-0.84328 1.6798-0.4318 0.92458-0.8907 1.9964-1.3817 3.2073l-0.13885 0.0541zm-6.5719-8.7598 6.1129 2.8517c0.58589 0.27264 0.99229 0.4369 1.2175 0.4877 0.2303 0.0525 0.40132 0.0576 0.52324 0.0107 0.1152-0.0457 0.26247-0.18797 0.42503-0.43012 0.16595-0.23707 0.34883-0.57914 0.55372-1.0177 0.53848-1.1532 0.79925-2.1523 0.77893-3.0041-0.022-0.85346-0.27262-1.607-0.74337-2.2658-0.46905-0.65703-1.1312-1.1854-1.9779-1.5799-0.68749-0.32005-1.3344-0.47246-1.9405-0.45552-0.60283 0.012-1.1786 0.18627-1.7153 0.51987-0.54018 0.3319-1.0025 0.77895-1.3903 1.3344-0.38777 0.56221-0.80264 1.3141-1.248 2.2691l-0.59605 1.2802zm-4.1909-12.392 0.74676-1.4766c0.49107-0.96523 0.80772-1.6054 0.94996-1.9084 0.12533-0.26925 0.62653-1.431 1.5071-3.4866l0.12866-0.0541 0.59775 0.27771 0.0423 0.13547c-0.24046 0.55882-0.41487 0.9974-0.52663 1.309-0.1084 0.31836-0.14732 0.5639-0.12533 0.73832 0.0271 0.1778 0.18965 0.36238 0.49276 0.55881 0.3031 0.19474 0.74337 0.42504 1.3208 0.69598l2.7467 1.3107 5.5491 2.5875 2.3419 1.077c0.90932 0.41318 1.5053 0.66211 1.7864 0.74339 0.28278 0.0864 0.48598 0.11174 0.6079 0.0745 0.12534-0.0372 0.26586-0.14563 0.42503-0.33529 0.16256-0.18796 0.45551-0.69936 0.88393-1.5326l0.1168-0.0592 0.59775 0.2794 0.0508 0.13717c-0.0203 0.0423-0.36915 0.73662-1.055 2.0795-0.28109 0.5622-0.49615 1.0008-0.64516 1.3192-0.1152 0.24892-0.61637 1.4072-1.5037 3.4732l-0.14055 0.0541-0.59775-0.27772-0.0288-0.13377c0.31327-0.75525 0.50631-1.2734 0.57404-1.541 0.0677-0.27094 0.0829-0.46399 0.0457-0.58591-0.0356-0.1168-0.16764-0.26247-0.38778-0.43012-0.2269-0.16595-0.76369-0.45552-1.6155-0.86362l-2.5248-1.1871-5.5491-2.5875-2.3504-1.0702c-0.91271-0.41658-1.5139-0.6672-1.7932-0.75187-0.28109-0.0915-0.48429-0.1168-0.60621-0.0796-0.1236 0.0321-0.26247 0.14732-0.41995 0.3336-0.15748 0.18965-0.44704 0.70276-0.87376 1.5342l-0.13213 0.0592-0.59775-0.27941-0.0389-0.13716zm15.299-8.8953c-0.31835-0.23707-0.49954-0.37424-0.54018-0.40302-0.0728-0.0541-0.18118-0.12707-0.32681-0.22692l-0.0288-0.25062c0.33359-0.37593 0.62484-0.72815 0.86868-1.0651 0.49445-0.67905 0.7874-1.292 0.88053-1.8491 0.0897-0.55374-1e-3 -1.1278-0.2794-1.7222-0.2777-0.59099-0.72136-1.1109-1.3276-1.5511-0.81111-0.5893-1.6375-0.8196-2.4756-0.68752-0.83989 0.13378-1.6003 0.67397-2.2911 1.6239-0.67394 0.92797-0.9635 1.8508-0.86698 2.7687 0.0965 0.91951 0.59944 1.8712 1.5139 2.8482l0.0305 0.2049-0.12534 0.17273-0.2015 0.0305c-0.83482-0.55035-1.6561-1.0634-2.4705-1.5308-4e-3 -1.0854 0.14224-2.0642 0.44196-2.9295 0.30311-0.86195 0.76878-1.734 1.4088-2.6146 1.0617-1.4614 2.1235-2.3927 3.1817-2.789 1.0583-0.39795 2.0659-0.24723 3.0293 0.45382 0.89916 0.65365 1.4275 1.5155 1.5849 2.5909 0.15918 1.0702-0.0424 2.2234-0.59774 3.4562l0.18288 0.13377c0.9398-1.2937 1.7628-2.1878 2.4655-2.6806 0.7112-0.49277 1.4969-0.7146 2.3639-0.66549 0.87037 0.0576 1.7171 0.38101 2.5417 0.98216 1.48 1.0753 2.3165 2.5198 2.5079 4.3385 0.19473 1.822-0.44196 3.7373-1.9051 5.749-0.67225 0.92458-1.3784 1.69-2.1167 2.2979-0.7383 0.60115-1.5596 1.0042-2.4689 1.2023-0.78232-0.65195-1.3395-1.1007-1.6747-1.3446-0.16764-0.12187-0.73152-0.51479-1.6797-1.1752l0.15071-0.54527 0.18288-0.0457c1.6527 0.69937 3.0057 0.97878 4.0708 0.84331 1.0651-0.13717 1.9779-0.73324 2.7399-1.7831 0.55033-0.75525 0.8636-1.5494 0.94149-2.3859 0.0829-0.83653-0.1016-1.6646-0.55372-2.4791-0.44704-0.81451-1.0414-1.4935-1.7831-2.032-1.0414-0.75695-2.0879-1.0584-3.1445-0.90427-1.055 0.1541-2.0489 0.8704-2.9769 2.1455-0.38439 0.53002-0.71459 1.121-0.99399 1.7763l-0.25908 0.0424zm6.6581-21.75c1.6731-1.4631 2.7347-2.4046 3.1784-2.8161 0.60621-0.56728 1.2717-1.2175 1.9948-1.9542 0.77724-0.77388 1.2564-1.2463 1.4444-1.4207 0.90255-0.84161 1.7373-1.4411 2.5011-1.8086 0.76708-0.36239 1.5765-0.47415 2.4248-0.33868 0.84836 0.13378 1.6036 0.55374 2.2589 1.2565 0.54187 0.58083 0.93133 1.27 1.165 2.0626 0.2303 0.79758 0.28279 1.6087 0.15748 2.4402-0.13213 0.83314-0.36745 1.5596-0.71289 2.1895-0.34036 0.62824-0.77893 1.1904-1.314 1.69-0.39962 0.37254-0.889 0.7417-1.4631 1.1108l-0.7129-0.44028-5e-3 -0.17441c0.5842-0.34207 1.0329-0.65534 1.3344-0.93475 0.84497-0.78912 1.2632-1.7035 1.2548-2.7399-8e-3 -1.0347-0.41656-1.9881-1.2294-2.8601-0.81619-0.87548-1.7357-1.3259-2.7551-1.3514-1.0211-0.0305-2.0709 0.4606-3.1463 1.4648-0.5859 0.54527-1.1312 1.2565-1.6273 2.1354 0.4064 0.54696 1.4935 1.7747 3.2715 3.6797l4.1741 4.4773 1.7696 1.8763c0.6858 0.72476 1.1464 1.1786 1.3767 1.358 0.23029 0.18797 0.40809 0.28618 0.53679 0.29804 0.1304 0.0136 0.30141-0.0356 0.51985-0.15241 0.22013-0.11347 0.68411-0.47753 1.3919-1.0888l0.13213-0.0107 0.44873 0.48092-5e-3 0.14732c-1.69 1.4834-2.6433 2.3233-2.8481 2.5147-0.22014 0.2049-1.1176 1.0905-2.6975 2.6553l-0.14901-1e-3 -0.44874-0.48092 0.0237-0.13377c0.57234-0.58422 0.94488-0.99233 1.1091-1.2142 0.16425-0.22691 0.25061-0.39964 0.26077-0.52833 0.0107-0.12027-0.0559-0.30481-0.19812-0.54358-0.14901-0.23707-0.53678-0.70783-1.1752-1.4038l-1.8965-2.0473-4.1757-4.479-1.778-1.8729c-0.69088-0.72815-1.1532-1.1854-1.38-1.3683-0.2269-0.18966-0.4047-0.28957-0.5334-0.29973-0.12706-0.0169-0.29802 0.0372-0.51308 0.15071-0.21674 0.1168-0.67733 0.48431-1.3852 1.0956l-0.14393 5e-3 -0.45043-0.48261 0.0152-0.14225zm13.837-12.153 0.0305-0.13717c2.5095-1.69 4.1115-2.7789 4.8023-3.2632 2.3724-1.6612 4.4653-3.1598 6.284-4.4993l0.1084 0.0389c0.30311 0.8196 0.93303 1.9999 1.8864 3.5425l-7e-3 0.13214-0.53001 0.37085-0.15917-0.0152c-0.0389-0.0728-0.0779-0.13378-0.11-0.18289-0.43011-0.613-0.88731-1.165-1.3716-1.6578-0.59436 0.11854-1.3174 0.42504-2.1675 0.92798-0.84666 0.50462-1.4765 0.89579-1.8813 1.1786-0.56896 0.39964-1.2717 0.95337-2.1031 1.6562l1.1701 1.7594 1.3564 2.0067 1.5071 2.2234c0.81112-0.50124 1.5443-0.98216 2.2031-1.4427 0.66548-0.46737 1.2056-0.87717 1.6223-1.2362 0.41656-0.3573 0.64686-0.58591 0.69427-0.68412 0.0407-0.0999 0.0356-0.23369-0.022-0.39287-0.0525-0.16087-0.18457-0.42165-0.39285-0.78234l-0.42503-0.70106 0.0237-0.14901 0.49954-0.34884 0.1507 0.0271c0.53679 0.79758 1.0719 1.6019 1.6036 2.4097l1.7661 2.4029-0.0305 0.14733-0.49953 0.34883-0.14393-0.0253-0.5334-0.59607c-0.41826-0.46231-0.67564-0.72817-0.77555-0.80775-0.0932-0.0779-0.22352-0.11521-0.37761-0.11681-0.1524 4e-3 -0.46398 0.13214-0.92795 0.39117-0.46228 0.26248-1.0736 0.65705-1.8356 1.1905-0.41825 0.29296-1.0448 0.76033-1.8763 1.3971 0.38777 0.63332 1.0753 1.6562 2.0676 3.0734 1.0617 1.5155 1.8627 2.6214 2.3995 3.3089l1.9948-1.3971c1.756-1.2294 2.8363-2.0184 3.2512-2.3707 0.40809-0.35222 0.75184-0.75186 1.0329-1.1921-0.0491-0.21336-0.21166-0.67227-0.48598-1.38-0.27602-0.70952-0.45551-1.1464-0.54018-1.3141l0.0559-0.14902 0.52155-0.36407 0.13716 0.0136c0.15409 0.35561 0.46905 0.9449 0.94996 1.7594 0.47921 0.8179 0.9127 1.5003 1.2971 2.0472l-0.0187 0.13886c-1.4072 0.92628-3.2292 2.1675-5.4593 3.7305l-2.9633 2.0422c-0.6875 0.48092-1.3817 1.0109-2.0861 1.5867l-0.14732-0.0237-0.2523-0.359 0.0136-0.16765c0.27262-0.51648 0.42502-0.82129 0.44365-0.91781 0.0271-0.0965-0.36407-0.76371-1.1769-2.0032-0.80603-1.2379-1.4292-2.1743-1.8745-2.811l-2.7839-3.9777-1.7323-2.4521c-0.37592-0.53511-0.68919-0.96692-0.93811-1.2887-0.25061-0.32682-0.44365-0.54865-0.5825-0.66719-0.13716-0.11853-0.25062-0.19474-0.33359-0.21844-0.0897-0.0255-0.20151-0.0187-0.33359 0.0136-0.12866 0.0339-0.33697 0.12533-0.6079 0.27094l-0.86868 0.51478-0.14055-0.0169-0.37761-0.54188zm38.633-2.9702 0.0407 1.3276c-1.3835 1.7086-3.092 3.0125-5.1224 3.915-2.9075 1.2954-5.6388 1.524-8.1872 0.68074-2.5569-0.8433-4.4247-2.5977-5.6135-5.2664-0.81618-1.8356-1.077-3.6425-0.78232-5.4206 0.29295-1.7763 1.0312-3.336 2.2183-4.6788 1.182-1.3411 2.6992-2.4283 4.5517-3.253 1.0719-0.47753 2.1844-0.83484 3.3308-1.0787 1.1447-0.23708 2.1404-0.35392 2.982-0.35223l0.13886 0.0796c0.0152 0.53342 0.34036 1.729 0.97197 3.5816l-0.044 0.13378-0.56557 0.25231-0.14055-0.0508-1.0363-2.005c-0.79756-0.2049-1.668-0.25062-2.6196-0.14394-0.94827 0.11007-1.8779 0.36577-2.7821 0.7688-1.3615 0.60623-2.4469 1.4411-3.2664 2.5079-0.82298 1.0634-1.2836 2.281-1.3868 3.6577-0.1016 1.3699 0.20489 2.8585 0.91948 4.4637 0.71629 1.6087 1.6968 2.8669 2.9363 3.7745 1.2429 0.90427 2.6145 1.4106 4.1199 1.5258 1.502 0.11173 3.0667-0.19474 4.6837-0.91443 0.71798-0.32005 1.3749-0.69598 1.9744-1.1261 0.59944-0.42843 1.077-0.845 1.4241-1.2412 0.34713-0.39795 0.6604-0.82807 0.93302-1.3005l0.32174 0.16257zm9.0475-0.49954-0.0728 0.12693c-0.0609 0.0169-0.62315 0.1541-1.6883 0.40133-1.0262 0.23708-1.7019 0.39964-2.0337 0.48939-0.1778 0.0475-1.3767 0.40641-3.6017 1.0719l-0.13214-0.0728-0.16933-0.63502 0.0829-0.1084c0.74338-0.22691 1.2514-0.40472 1.5359-0.53172 0.27771-0.13041 0.45212-0.26586 0.51477-0.39964 0.066-0.13547 0.0779-0.33529 0.0457-0.59776-0.0321-0.2574-0.17611-0.90088-0.4318-1.9219-0.26078-1.0245-0.47414-1.8559-0.64855-2.5045l-1.5832-5.915c-0.23368-0.87209-0.49276-1.8035-0.78232-2.7974-0.29125-0.9974-0.48429-1.5799-0.57912-1.756-0.0983-0.17441-0.2032-0.29126-0.31157-0.34714-0.11347-0.0576-0.3065-0.0762-0.57574-0.0508-0.27432 0.022-0.8128 0.12362-1.612 0.29973l-0.12866-0.0627-0.17103-0.63671 0.0813-0.12023 0.77048-0.19304 0.51478-0.12362 0.88392-0.22183 1.7916-0.46568 2.6687-0.68752c1.0126-0.26247 2.1235-0.55034 3.3257-0.86362l5.1139-1.4123 2.9989-0.83145c0.57234-0.16256 1.1447-0.3302 1.712-0.50124l0.12533 0.0644 0.16933 0.63841-0.0745 0.11684c-0.82635 0.25062-1.3615 0.4352-1.5985 0.56051-0.23538 0.11854-0.38608 0.23369-0.44535 0.34376-0.0644 0.11007-0.0864 0.27094-0.0761 0.48769 0.0107 0.21167 0.15578 0.87378 0.4318 1.9779 0.2777 1.1041 0.49953 1.9661 0.66717 2.5891l1.5832 5.915c0.1778 0.66212 0.41148 1.4987 0.69765 2.4961 0.28787 1.0025 0.4826 1.629 0.57912 1.8796 0.0999 0.25232 0.21506 0.41827 0.34714 0.49616 0.12866 0.0813 0.3556 0.10499 0.67394 0.0762 0.32343-0.0356 0.84498-0.13377 1.5664-0.29972l0.12187 0.0525 0.16933 0.63671-0.0728 0.127c-0.0695 0.0186-0.63161 0.15579-1.6883 0.40133-1.0211 0.23538-1.7019 0.39964-2.0456 0.49278-0.16934 0.044-1.3683 0.40302-3.6017 1.0719l-0.1152-0.0761-0.17102-0.63672 0.0677-0.10333c0.84497-0.26417 1.3835-0.45383 1.612-0.57575 0.23368-0.12362 0.381-0.23707 0.43688-0.34206 0.0593-0.11007 0.0813-0.26925 0.0711-0.486-0.0169-0.21676-0.15579-0.87548-0.42842-1.9795-0.27601-1.1041-0.49276-1.9626-0.65701-2.5773l-2.8939-10.795-0.1778-0.10669-9.74 2.6095-0.0999 0.18119 2.8923 10.795c0.17611 0.65872 0.4081 1.4884 0.69766 2.4961 0.28956 1.0126 0.48429 1.6375 0.5842 1.8864 0.10333 0.24385 0.21674 0.4098 0.34544 0.4877 0.12533 0.0829 0.34713 0.1084 0.66717 0.0779 0.31327-0.0321 0.8382-0.13041 1.5697-0.29804l0.12187 0.0508 0.16933 0.63671zm12.079-20.814-0.1168-0.11515-0.0423-0.61639 0.0999-0.11515c1.0126-9e-3 2.1505-0.0559 3.4121-0.14393 1.0634-0.0745 2.1149-0.1795 3.1597-0.31497l0.11173 0.0999 0.0423 0.61639-0.0948 0.13039c-0.69257 0.20659-1.1278 0.37762-1.3039 0.51648-0.1761 0.13378-0.25908 0.29803-0.24553 0.49277 0.0136 0.20152 0.16595 0.57237 0.44704 1.1092 0.38269 0.73323 1.2582 2.2555 2.628 4.5637 1.2632 2.1218 1.9575 3.2496 2.0795 3.3817 0.0187 0.0169 0.0372 0.0237 0.0559 0.0237 0.0187-2e-3 0.0389-0.0119 0.066-0.0322 0.0253-0.0203 0.10494-0.1795 0.23707-0.48769 0.13213-0.30312 0.43519-1.099 0.90255-2.3758l1.3005-3.5273c0.38777-1.0685 0.65193-1.8238 0.79248-2.2691 0.14054-0.44366 0.20658-0.74678 0.19473-0.91442-0.012-0.17442-0.0763-0.32005-0.18965-0.4352-0.1168-0.10838-0.27094-0.18797-0.46906-0.23708-0.19812-0.0457-0.57404-0.11007-1.1261-0.18457l-0.12534-0.11346-0.044-0.61808 0.11-0.11515c1.2869-0.0271 2.2623-0.0643 2.9244-0.11007 0.68582-0.0474 1.4901-0.13547 2.408-0.26248l0.11174 0.0999 0.044 0.61809-0.0948 0.127c-0.54695 0.16087-0.95843 0.36577-1.2311 0.61131-0.27601 0.24215-0.62992 0.80944-1.0719 1.6916-0.43689 0.88055-1.1498 2.5113-2.1437 4.8752-0.76369 1.8424-1.4631 3.4748-2.098 4.8956l-1.7525 3.9304c-0.45212 0.92289-0.8145 1.5647-1.1024 1.9135-0.28279 0.35053-0.59436 0.613-0.93134 0.7908-0.33697 0.17273-0.72305 0.27264-1.1515 0.30143-0.41318 0.0305-0.94319-0.0339-1.5917-0.19136-0.18796-1.4444-0.44196-2.7399-0.74845-3.8864l0.51308-0.24893c0.39455 0.71461 0.76708 1.1921 1.1176 1.4343 0.35729 0.24215 0.73152 0.34714 1.1278 0.32005 0.57235-0.0406 1.1091-0.31328 1.6171-0.81621 0.508-0.50463 0.94149-1.165 1.3022-1.9729-0.48599-0.87209-1.3885-2.3741-2.7144-4.523l-3.1411-5.0954c-0.78062-1.2616-1.2751-1.9931-1.4884-2.1895-0.21336-0.19813-0.4301-0.34207-0.65532-0.4352-0.21844-0.0881-0.59944-0.15749-1.1311-0.19643zm24.467 6.2875 1.5715 0.11007c1.4411 0.1016 2.6671 0.24893 3.6796 0.45552 1.0143 0.20321 1.8644 0.52495 2.5587 0.972 0.69258 0.44705 1.209 1.0126 1.5511 1.7019 0.34036 0.68412 0.4826 1.4411 0.42503 2.2709-0.0475 0.67566-0.23368 1.336-0.56388 1.983-0.32682 0.64348-0.77894 1.2175-1.3529 1.7204-0.57234 0.50463-1.1887 0.89072-1.8373 1.1583-0.65193 0.27094-1.2971 0.44366-1.9405 0.51478-0.64008 0.0728-1.436 0.0762-2.3859 0.0101-0.49107-0.0339-1.2074-0.0982-2.1369-0.19812-0.87546-0.0982-1.5003-0.15918-1.8695-0.18627-1.0177-0.0711-2.1827-0.11685-3.49-0.14055l-0.0999-0.11007 0.0457-0.65704 0.11346-0.0745c0.77724 0.0271 1.3157 0.0237 1.6256-3e-3 0.3048-0.0339 0.51308-0.10498 0.61638-0.20997 0.10666-0.10669 0.18288-0.29127 0.23706-0.55035 0.0541-0.25401 0.12694-0.90935 0.21844-1.9575 0.088-1.0533 0.15579-1.9085 0.2032-2.5807l0.42672-6.108c0.0644-0.90088 0.12187-1.866 0.17103-2.899 0.0508-1.0364 0.0576-1.6511 0.0253-1.8491-0.0356-0.19643-0.0983-0.34206-0.18288-0.42843-0.088-0.0931-0.26416-0.17272-0.52662-0.23707-0.26586-0.0677-0.80772-0.14732-1.6223-0.24046l-0.0999-0.1016 0.0457-0.65703 0.11346-0.0881c1.2344 0.15918 4.5703 0.42843 10.008 0.80944 0.32851 0.022 1.4969 0.0677 3.5069 0.13547l0.19304 0.29465c-0.2032 0.82298-0.40471 2.0083-0.60622 3.551l-0.0897 0.0982-0.48599-0.0339-0.11346-0.11177-0.1016-1.016c-0.0288-0.37423-0.0932-0.68073-0.19304-0.92458-0.1016-0.23707-0.26416-0.41996-0.48768-0.54866-0.21675-0.12361-0.49107-0.22014-0.82127-0.28448-0.32681-0.0593-0.76539-0.11177-1.3208-0.15072l-4.1977-0.29295-0.22691 0.20998c-0.15071 1.0397-0.27263 2.2031-0.36237 3.4866l-0.22014 3.1582zm-0.66379 9.4863 0.19643 0.24046c0.75523 0.0711 1.2852 0.11685 1.5917 0.13886 1.2446 0.0864 2.2521-0.0237 3.0293-0.3319 0.77724-0.3082 1.4123-0.83314 1.9067-1.5782 0.49615-0.74339 0.77216-1.5935 0.8399-2.5434 0.0559-0.81621-0.0897-1.5731-0.44366-2.2725-0.3539-0.69429-0.90762-1.204-1.6595-1.519-0.74676-0.31836-1.9948-0.5368-3.7372-0.65872l-1.1227-0.0796-0.60114 8.6041zm9.5944 1.729 0.14902-0.64179 0.11853-0.0559c0.71459 0.13716 1.2074 0.16764 1.4919 0.0847 0.2777-0.0796 0.72474-0.38948 1.3395-0.92459 0.90763-0.80436 2.8177-2.5367 5.732-5.1969l4.6279-4.1674c1.4072-1.2599 2.2251-2.0118 2.4621-2.259 0.15918-0.16256 0.25062-0.31835 0.28279-0.46229 0.0644-0.27772-0.0576-0.51479-0.36745-0.7163-0.31327-0.20659-1.2582-0.53172-2.838-0.9737l-0.0796-0.11684 0.14901-0.64179 0.12187-0.0694c0.15409 0.0356 0.64346 0.16765 1.4699 0.39456 0.82466 0.22691 1.5731 0.41826 2.2453 0.57405 0.67733 0.15749 1.4156 0.3082 2.2165 0.45722l1.4681 0.28279 0.0677 0.11346c-0.11347 0.36238-0.23708 0.82467-0.37763 1.3903l-0.53001 2.1354-1.9625 8.5041c-0.16256 0.70444-0.35221 1.5596-0.56726 2.557-0.21336 1.0042-0.3319 1.6392-0.3573 1.9067-0.0255 0.27264-1e-3 0.47076 0.0796 0.60115 0.0745 0.13378 0.26416 0.26078 0.55542 0.3844 0.29294 0.11854 0.79756 0.27602 1.5139 0.46907l0.0864 0.10333-0.14732 0.64349-0.12866 0.0763c-0.0576-0.0136-0.61807-0.15579-1.6797-0.43859-1.0126-0.27094-1.6848-0.44536-2.0201-0.52156-0.18457-0.0424-1.4105-0.28957-3.6881-0.74509l-0.0779-0.12533 0.14732-0.6418 0.12027-0.0559c0.74506 0.14394 1.2818 0.22692 1.6019 0.24893 0.32004 0.0187 0.54187-0.0187 0.66548-0.1152 0.11854-0.0932 0.22522-0.27264 0.31835-0.53342 0.0931-0.26586 0.26416-0.90765 0.51985-1.9322 0.2557-1.0211 0.45212-1.839 0.59267-2.4503l2.4197-10.48-0.34713-0.0796-6.2213 6.0708-4.804 4.6889c-1.2277 1.204-1.8763 1.866-1.9507 1.9863-0.0761 0.127-0.12027 0.22352-0.13885 0.30311-0.0779 0.3336 0.14732 0.56559 0.66886 0.69598l0.94319 0.27264 0.0813 0.10329-0.14732 0.64179-0.12533 0.0779c-0.85513-0.26586-1.6916-0.49785-2.5147-0.68751-0.98044-0.22522-2.0151-0.42673-3.1072-0.60962l-0.0779-0.12531zm19.421 4.6924 0.26754-0.60284 0.13214-0.0305c0.72136 0.29295 1.2294 0.47245 1.5291 0.55204 0.29803 0.0745 0.51986 0.0779 0.65194 0.0136 0.13716-0.0627 0.27093-0.20998 0.41148-0.4335 0.13716-0.22184 0.4301-0.81283 0.87376-1.7662 0.44196-0.96014 0.79925-1.7408 1.0736-2.3555l2.4909-5.5932c0.37254-0.83822 0.76031-1.7323 1.1599-2.6857 0.39962-0.94999 0.61637-1.5258 0.65193-1.7171 0.0305-0.19474 0.0203-0.34714-0.0288-0.45721-0.0525-0.11684-0.19304-0.25401-0.42333-0.41657-0.23368-0.16257-0.70951-0.41488-1.4325-0.7671l-0.0609-0.13039 0.26924-0.60285 0.13716-0.0423c0.0407 0.0186 0.56219 0.27094 1.5612 0.75525 0.94319 0.4589 1.5715 0.75863 1.888 0.89918 0.18965 0.0847 1.3513 0.5622 3.4764 1.4292l0.0559 0.1287-0.26755 0.60284-0.13377 0.044c-0.72138-0.28957-1.2311-0.47753-1.5291-0.55035-0.30141-0.0762-0.51647-0.083-0.65193-0.0237-0.13214 0.0643-0.26755 0.20151-0.40471 0.42165-0.13377 0.22184-0.43011 0.82129-0.88731 1.8051-0.45889 0.98724-0.81449 1.7628-1.0702 2.3369l-4.1317 9.2814 0.14394 0.16257c2.7907-1.6934 6.0164-3.7525 9.6707-6.1775 3.6593-2.4249 5.9267-3.9761 6.8039-4.6467 0.81619 0.44197 1.59 0.82468 2.3165 1.1481 0.82127 0.36577 1.6155 0.68074 2.3859 0.94491l0.0576 0.1287-0.26924 0.60284-0.13213 0.044c-0.79926-0.32683-1.331-0.51987-1.5951-0.57067-0.25739-0.0559-0.44704-0.061-0.56219-0.0135-0.11853 0.0457-0.23706 0.15579-0.36576 0.33021-0.12533 0.17272-0.42502 0.77049-0.89746 1.7848-0.47244 1.016-0.84667 1.8339-1.1227 2.4571l-2.4909 5.5932c-0.29464 0.66042-0.64177 1.4648-1.0448 2.4114-0.39963 0.94492-0.63839 1.546-0.7129 1.8035-0.0745 0.25401-0.0897 0.45383-0.0339 0.59777 0.0475 0.14563 0.20828 0.3065 0.47074 0.48261 0.26586 0.17103 0.73322 0.41996 1.4021 0.73662l0.0559 0.1304-0.26754 0.60115-0.13716 0.0525c-0.0407-0.0187-0.56388-0.26586-1.5629-0.75016-0.91778-0.44875-1.5493-0.74848-1.888-0.89919-0.21505-0.0965-1.3767-0.57406-3.4747-1.4343l-0.0525-0.13716 0.26755-0.60116 0.13377-0.0457c0.71798 0.29974 1.226 0.48771 1.5275 0.55713 0.30311 0.0711 0.51816 0.0779 0.64685 0.022 0.13547-0.0592 0.27094-0.19643 0.4064-0.42335 0.13716-0.22014 0.43519-0.82468 0.8907-1.8018 0.4555-0.97877 0.8111-1.756 1.0668-2.3283l4.025-9.0088-0.20489-0.19473c-1.1566 0.71121-3.8777 2.4503-8.1669 5.2105l-8.2008 5.341c-0.65702-0.36747-1.4393-0.75356-2.3368-1.1549-0.63162-0.2811-1.3971-0.58252-2.3047-0.91104l-0.0559-0.13885zm29.595 4.4384 1.5917-0.14732c0.35051-0.0305 0.78231-0.0864 1.2869-0.16257l1.5612-0.24554 4.1115-0.72138c1.7813-0.31835 2.7771-0.51986 2.9888-0.60792l0.4843-0.69259 0.17272-0.0107c0.56388 0.43858 1.0448 0.79758 1.4411 1.0753l2.0608 1.3936 0.0389 0.17442-0.34714 0.49616-0.15578 0.0407c-0.65532-0.44874-1.1667-0.75186-1.5376-0.90596-0.36915-0.15917-0.80942-0.24723-1.3242-0.26586-0.51308-0.0237-1.4816 0.0541-2.9075 0.2303l-7.1019 0.89241 2.3012 10.993c0.34374 1.629 0.56388 2.5502 0.65362 2.767 0.0931 0.21336 0.32174 0.45721 0.69258 0.72815l0.0187 0.13886-0.31834 0.45552-0.14055 0.0339c-1.2886-0.9466-2.0489-1.5291-2.2928-1.7543-0.24384-0.22015-0.45212-0.49787-0.62484-0.82469-0.17441-0.32513-1.1616-4.5451-2.9583-12.648l-1.6155 2.3081-1.4749 2.1303c-0.5605 0.81621-0.90594 1.3564-1.0397 1.6274-0.13547 0.26248-0.19473 0.45891-0.1778 0.58591 0.0187 0.12187 0.0999 0.27941 0.25231 0.46399 0.15409 0.18966 0.61298 0.57236 1.3733 1.1481l0.0271 0.11854-0.37762 0.54018-0.13377 0.0339c-0.10333-0.0728-0.72983-0.54018-1.8763-1.4072-0.51138-0.37931-0.90424-0.66719-1.1853-0.86362-0.1152-0.0813-1.1718-0.77726-3.1597-2.0862l-0.0288-0.14732 0.37761-0.54019 0.13547-5e-3c1.0211 0.66041 1.6527 0.99401 1.8948 0.98724 0.24045-5e-3 0.48598-0.16765 0.74845-0.486 0.26077-0.31836 1.1193-1.497 2.5739-3.551l3.512-5.0159 1.4715-2.1387c0.56896-0.81452 0.92117-1.3564 1.0499-1.6188 0.1304-0.26586 0.19134-0.46229 0.17441-0.5876-8e-3 -0.1287-0.0948-0.2828-0.25061-0.46907-0.15579-0.18627-0.61129-0.56051-1.3632-1.1312l-0.0339-0.13885 0.37762-0.54019 0.14224-0.0152c1.7424 1.3073 2.7568 2.0609 3.0379 2.259 0.31157 0.21675 1.3716 0.91442 3.1852 2.0964l0.0187 0.13041-0.37762 0.54019-0.12866 0.0253c-0.72644-0.47584-1.2074-0.76372-1.4563-0.86532-0.24553-0.10494-0.42672-0.14563-0.55372-0.12361-0.12187 0.0255-0.28448 0.13214-0.48768 0.32005-0.20659 0.19136-0.57404 0.66211-1.1159 1.4191l-1.6188 2.2894-1.5917 2.2742zm5.7116 15.558-7e-3 -0.15579 0.49446-0.47754 0.15917 0.0107c0.45212 0.45383 0.76369 0.73154 0.93472 0.82299 0.16764 0.0965 0.36745 0.13377 0.59097 0.11853 0.22352-0.0136 0.83312-0.19474 1.8237-0.5351l3.136-1.0956 8.36-3.0769c1.6223-0.61977 3.2376-1.2429 4.8548-1.8695l0.59605 0.61809-5.632 13.291-0.75015 1.7712c-0.20997 0.5114-0.42841 1.0736-0.65193 1.6916-0.22521 0.61301-0.34036 1.0008-0.34036 1.1498 4e-3 0.15409 0.0372 0.30988 0.11173 0.46568 0.0695 0.15748 0.30142 0.44197 0.6875 0.85515l-7e-3 0.15071-0.49445 0.47584-0.14563-4e-3c-0.59436-0.72476-1.1515-1.3598-1.6731-1.8999-1.0482-1.0211-2.0947-2.0456-3.1327-3.0752l-1e-3 -0.15071 0.49446-0.47753 0.1524 4e-3c0.69765 0.69598 1.1565 1.1126 1.3784 1.2446 0.21844 0.13378 0.41317 0.11521 0.5842-0.0508 0.14054-0.13547 0.2777-0.35561 0.42333-0.66719l1.7729-3.9693-5.3239-5.5136-3.4357 1.3174c-0.61808 0.23707-1.0245 0.45383-1.2294 0.65195-0.15917 0.1541-0.19473 0.35053-0.1016 0.59607 0.0864 0.24723 0.46567 0.7163 1.1244 1.4106l7e-3 0.16426-0.49445 0.47584-0.14902-5e-3c-0.74168-0.86532-1.4055-1.6054-2.0032-2.2234-0.67394-0.69768-1.3767-1.375-2.1133-2.0389zm9.5284-0.81452 4.6483 4.8143 3.4341-7.9301-8.0823 3.1158zm16.607 28.842-1.2886 0.31666c-1.9592-0.9991-3.5899-2.3978-4.8955-4.1962-1.8712-2.5739-2.6619-5.1987-2.3689-7.8692 0.29464-2.6755 1.6223-4.8668 3.9844-6.5839 1.6273-1.1803 3.3392-1.8119 5.1409-1.8915 1.7967-0.0847 3.4764 0.31328 5.0377 1.1955 1.5579 0.87717 2.9363 2.137 4.1284 3.7762 0.68918 0.94998 1.27 1.9643 1.7459 3.0345 0.47075 1.0702 0.79248 2.0202 0.9652 2.8432l-0.0491 0.1524c-0.51816 0.12534-1.6188 0.69259-3.3003 1.6967l-0.14055-0.0169-0.36406-0.49955 0.0203-0.14902 1.7459-1.431c0.0339-0.82129-0.1016-1.6832-0.40471-2.5926-0.3048-0.90426-0.74845-1.7611-1.3293-2.5603-0.87546-1.2057-1.9185-2.0947-3.1327-2.6755-1.2108-0.58252-2.4977-0.78065-3.8659-0.59607-1.3615 0.18628-2.7551 0.79589-4.1757 1.8288-1.4241 1.0347-2.452 2.2555-3.0801 3.656-0.62654 1.4038-0.83651 2.8517-0.6367 4.3469 0.2032 1.4935 0.82635 2.9601 1.8677 4.3927 0.46228 0.63502 0.96689 1.2006 1.5121 1.6967 0.54525 0.49786 1.0516 0.87887 1.5104 1.1363 0.46059 0.2557 0.94657 0.47245 1.4664 0.64179l-0.0932 0.34714zm-1.7831 2.1658 0.59775-0.27771 0.11853 0.0627c0.35391 0.69259 0.61807 1.1634 0.79248 1.4207 0.17611 0.25062 0.34036 0.39795 0.4826 0.43689 0.14393 0.0423 0.34205 0.0203 0.59605-0.0593 0.24723-0.0745 0.85683-0.32851 1.8187-0.75694 0.96351-0.4352 1.7441-0.78911 2.3537-1.0736l5.5491-2.5875c0.75353-0.35222 1.6087-0.76033 2.5653-1.2311 0.96012-0.47245 1.5189-0.77387 1.6797-0.89749 0.15748-0.1304 0.25569-0.25062 0.29125-0.36577 0.0423-0.1152 0.0271-0.3065-0.044-0.56728-0.0695-0.26587-0.26585-0.78236-0.58251-1.5478l0.0407-0.13716 0.59775-0.27941 0.13213 0.0576c0.0255 0.0576 0.25231 0.58591 0.68241 1.5951 0.40979 0.96524 0.6875 1.6019 0.83482 1.9169 0.0779 0.16933 0.64177 1.2904 1.6916 3.3732l-0.0475 0.12027-0.59776 0.2794-0.1236-0.0424c-0.4064-0.78572-0.68919-1.2836-0.84836-1.4868-0.15748-0.20998-0.29633-0.33529-0.41148-0.37085-0.1152-0.0423-0.28109-0.0339-0.49276 0.0136-0.20489 0.0508-0.82127 0.29973-1.8424 0.75017-1.0245 0.45382-1.8389 0.82298-2.4571 1.1109l-1.546 0.72138 0.66548 1.4275c0.5842 1.2531 1.0329 2.3639 1.3445 3.3342 0.31326 0.97031 0.44704 1.8763 0.40978 2.7246-0.0407 0.84499-0.26754 1.585-0.67733 2.2234-0.41317 0.64179-0.97367 1.1278-1.6865 1.4596-0.9652 0.45044-2.032 0.5893-3.1971 0.41996-1.1667-0.17272-2.1912-0.60792-3.0836-1.3022-0.88561-0.69259-1.712-1.8678-2.4791-3.5138-0.2269-0.486-0.51646-1.138-0.8619-1.9643-0.32004-0.77218-0.56896-1.3479-0.74507-1.7255-0.4318-0.92459-0.95673-1.9643-1.5697-3.1192l0.0491-0.14224zm10.934 0.59607-6.1129 2.8517c-0.58589 0.27263-0.97366 0.47753-1.1565 0.61808-0.18796 0.14225-0.30142 0.27094-0.34375 0.39456-0.0389 0.11854-0.0253 0.32005 0.0559 0.60115 0.0763 0.27941 0.22013 0.64179 0.42333 1.0787 0.53848 1.1549 1.1345 1.9965 1.8017 2.5282 0.66548 0.53172 1.4055 0.82468 2.2115 0.88733 0.80772 0.0609 1.6357-0.10494 2.4824-0.50124 0.68749-0.32005 1.2192-0.71799 1.5968-1.1921 0.37761-0.47076 0.61468-1.0228 0.70443-1.6494 0.0932-0.62486 0.0475-1.2666-0.12867-1.9219-0.18119-0.65872-0.49107-1.4596-0.93641-2.4147l-0.59775-1.2802zm12.189 4.7551 0.64855 1.5207c0.42503 0.99741 0.7112 1.6511 0.85175 1.9542 0.12693 0.27094 0.69257 1.4022 1.7035 3.3969l-0.0423 0.13377-0.59775 0.27941-0.12867-0.0541c-0.27432-0.54527-0.49784-0.96014-0.66548-1.2446-0.17441-0.28788-0.33697-0.47584-0.48598-0.57067-0.1524-0.0932-0.39963-0.088-0.74338 0.0169-0.34374 0.10667-0.80433 0.29634-1.3817 0.56559l-2.7703 1.2616-5.5491 2.5875-2.33 1.1024c-0.90086 0.42842-1.4749 0.72646-1.7171 0.88902-0.24892 0.16257-0.39793 0.30142-0.44873 0.41827-0.0525 0.12027-0.0609 0.29803-0.0169 0.54188 0.0407 0.24554 0.24384 0.79758 0.60622 1.6612l-0.0305 0.12867-0.59774 0.27773-0.13716-0.0491c-0.0203-0.0423-0.32682-0.75526-0.9161-2.1455-0.24892-0.57575-0.44534-1.0228-0.59605-1.3411-0.1152-0.24892-0.68072-1.3767-1.6916-3.385l0.0475-0.14225 0.59776-0.27941 0.11853 0.0644c0.37931 0.72477 0.65193 1.2057 0.8128 1.431 0.16595 0.22522 0.30311 0.36069 0.41995 0.4098 0.11173 0.0491 0.30818 0.0423 0.57912-0.0187 0.27262-0.0677 0.83989-0.29296 1.6984-0.68413l2.5332-1.1701 5.5491-2.5891 2.3317-1.1109c0.90593-0.43351 1.4833-0.73154 1.7272-0.89072 0.25061-0.15748 0.39962-0.29634 0.45042-0.41318 0.0559-0.11681 0.0559-0.29635 0.0136-0.5368-0.044-0.24216-0.25061-0.79421-0.61129-1.6562l0.0389-0.13886 0.59775-0.27772 0.13213 0.0576zm4.6923 12.101c0.35899 2.2217 0.56388 3.4646 0.61637 3.7356 0.0559 0.28448 0.3319 1.5172 0.83143 3.7068l-0.0728 0.12027-0.64855 0.12533-0.11173-0.0829c-0.13377-0.59437-0.25061-1.0516-0.34544-1.3683-0.0983-0.32174-0.21167-0.54358-0.33189-0.67227-0.12707-0.12694-0.36746-0.18119-0.72644-0.16087-0.36068 0.0187-0.85175 0.0915-1.4765 0.21336l-2.9939 0.55374-1.8169 0.35222c0.31666 1.9084 0.64347 3.7085 0.97367 5.4052 0.45043 2.3182 0.81619 4.0828 1.104 5.2833l1.8169-0.35391 2.5299-0.51987c0.98383-0.19982 1.6171-0.35053 1.8932-0.44535 0.2794-0.0999 0.4572-0.19983 0.5351-0.29297 0.0829-0.0983 0.12866-0.26924 0.14393-0.51478 0.0169-0.24724-0.0508-0.83315-0.19473-1.7662l0.0745-0.11173 0.64685-0.12534 0.11014 0.0745c0.36068 2.2302 0.56726 3.4782 0.61806 3.7457 0.0576 0.29634 0.33528 1.5308 0.83143 3.7068l-0.0728 0.1236-0.64685 0.12694-0.11347-0.0897c-0.13547-0.59945-0.25231-1.0584-0.34713-1.38-0.0983-0.31665-0.20998-0.53849-0.3319-0.66718-0.12706-0.13214-0.36576-0.1812-0.72474-0.15918-0.35899 0.0255-0.85175 0.0965-1.4783 0.20998l-2.9921 0.55373-6.0113 1.1684-2.5248 0.51818c-0.97874 0.19981-1.6087 0.34545-1.8829 0.44536-0.2794 0.0999-0.45889 0.19813-0.53509 0.30142-0.0813 0.0983-0.13214 0.26925-0.14902 0.5114-0.022 0.24385 0.0423 0.82976 0.18627 1.7628l-0.0592 0.12187-0.64685 0.12534-0.12187-0.0864c-0.36576-2.2302-0.57065-3.4782-0.62315-3.7474-0.0525-0.27432-0.3302-1.5104-0.82634-3.7052l0.0847-0.11174 0.64686-0.12534 0.0983 0.0763c0.19304 0.80604 0.34206 1.3378 0.44366 1.5986 0.10493 0.2557 0.20489 0.41996 0.30649 0.49108 0.0965 0.0695 0.28956 0.11001 0.56727 0.12187 0.28109 4e-3 0.88561-0.0813 1.8119-0.26078l2.7449-0.50632 2.96-0.57575c-0.44366-2.5722-0.77047-4.3724-0.97198-5.4052-0.20489-1.055-0.56896-2.8144-1.1041-5.2816l-2.9616 0.57575-2.5281 0.50463c-0.97874 0.19982-1.6069 0.34884-1.8813 0.44874-0.28109 0.0965-0.45889 0.19474-0.53509 0.29804-0.0813 0.10334-0.13214 0.27263-0.14732 0.51987-0.022 0.24892 0.0423 0.83314 0.18457 1.7578l-0.0609 0.11854-0.64686 0.12533-0.12186-0.0829c-0.36238-2.2201-0.56896-3.4714-0.62146-3.7474-0.0525-0.26924-0.3285-1.5003-0.82465-3.6949l0.0813-0.12533 0.64686-0.12534 0.1016 0.0897c0.19134 0.79589 0.34036 1.3276 0.44026 1.585 0.10667 0.25908 0.20659 0.42334 0.30988 0.50124 0.0965 0.0728 0.28787 0.11347 0.56558 0.12027 0.28109 0 0.88561-0.0813 1.8136-0.25232l2.7415-0.52325 6.0113-1.1684 2.5299-0.51479c0.98214-0.20151 1.6171-0.35053 1.8915-0.44705 0.28279-0.0915 0.46059-0.18968 0.53679-0.29128 0.0813-0.0999 0.12693-0.27433 0.14393-0.51648 0.0169-0.24723-0.0508-0.83145-0.19473-1.756l0.0728-0.1236 0.64685-0.12694 0.11347 0.088zm-14.072 24.878 0.65871 0.012 0.0796 0.11c0.0136 0.77726 0.044 1.3141 0.088 1.6223 0.0491 0.30311 0.13213 0.50801 0.24214 0.60453 0.11174 0.1016 0.29972 0.16934 0.56219 0.20998 0.25569 0.0389 0.9144 0.0779 1.966 0.1152 1.0566 0.0321 1.9135 0.0559 2.5875 0.0677l6.1213 0.10667c0.83143 0.0136 1.7797 0.022 2.8448 0.0187 1.0719-5e-3 1.7035-0.0288 1.9033-0.0711 0.19982-0.0475 0.34036-0.11173 0.42334-0.2015 0.088-0.0829 0.15748-0.26248 0.20828-0.52834 0.0541-0.27094 0.10493-0.8196 0.15578-1.6459l0.0965-0.10667 0.6587 0.012 0.0932 0.11014c-1e-3 0.0627-0.0288 0.63671-0.0847 1.7323-0.0541 1.0465-0.0847 1.7424-0.0897 2.0897-4e-3 0.18458 0.0107 1.4411 0.0407 3.7729l-0.0965 0.088-0.65871-0.012-0.0931-0.0915c-0.0203-0.88565-0.0559-1.4563-0.11013-1.7086-0.0491-0.25909-0.11853-0.43181-0.20659-0.51478-0.0847-0.088-0.23706-0.1541-0.44873-0.20152-0.20828-0.0457-0.87037-0.0932-1.9845-0.13546-1.1193-0.0407-2.0133-0.066-2.6957-0.0779l-1.7069-0.0305-0.0271 1.5766c-0.0237 1.3818-0.1084 2.5773-0.2523 3.5866-0.14394 1.0093-0.42164 1.8796-0.82635 2.6281-0.4064 0.7417-0.93472 1.3056-1.5832 1.7019-0.65363 0.39456-1.3699 0.58591-2.1556 0.57067-1.0651-0.0169-2.0845-0.36069-3.0581-1.0245-0.97198-0.6672-1.7035-1.5054-2.2013-2.5214-0.49106-1.011-0.71966-2.4283-0.68749-4.2436 8e-3 -0.53681 0.0356-1.2514 0.0864-2.1438 0.0508-0.83483 0.0796-1.4614 0.088-1.8779 0.0169-1.0194 1e-3 -2.1862-0.044-3.4917l0.10667-0.10667zm9.5656 5.3291-6.7445-0.1168c-0.64516-0.012-1.0837 4e-3 -1.3106 0.0491-0.2303 0.0457-0.38947 0.11001-0.4826 0.20321-0.0864 0.0897-0.16256 0.27772-0.21167 0.56559-0.0559 0.28279-0.0847 0.67227-0.0931 1.1549-0.022 1.2734 0.14563 2.2911 0.51139 3.0617 0.36576 0.77049 0.90085 1.358 1.6003 1.7679 0.69596 0.4081 1.5139 0.62147 2.4485 0.6384 0.75863 0.0136 1.4123-0.11173 1.9575-0.37254 0.54694-0.2574 1.0008-0.65026 1.358-1.1735 0.35729-0.52157 0.59774-1.1193 0.72644-1.7848 0.12533-0.67058 0.19812-1.5274 0.21674-2.579l0.0237-1.4139zm8.8697 9.6167-0.0829 1.651c-0.0541 1.0838-0.0847 1.7967-0.0915 2.1303-5e-3 0.29803 0.0107 1.563 0.0424 3.8l-0.0965 0.10161-0.65871-0.012-0.0931-0.10494c-8e-3 -0.60961-0.0271-1.0804-0.0525-1.4106-0.0305-0.3336-0.0948-0.57405-0.18626-0.72477-0.0965-0.15071-0.32004-0.254-0.67734-0.30989-0.3556-0.0559-0.85174-0.088-1.4884-0.0983l-3.0429-0.0813-6.1215-0.10667-2.5772-0.0305c-0.99737-8e-3 -1.6443 7e-3 -1.9337 0.0475-0.29464 0.0356-0.48937 0.0948-0.58589 0.17949-0.1016 0.0829-0.18458 0.24046-0.25231 0.47923-0.0728 0.23707-0.13213 0.82298-0.18457 1.7578l-0.0829 0.10161-0.6587-0.0107-0.10334-0.10668c1e-3 -0.0457 0.0372-0.82128 0.11854-2.3283 0.0288-0.62656 0.0457-1.1142 0.0525-1.4664 5e-3 -0.27603-0.0107-1.5359-0.0372-3.7864l0.10493-0.10667 0.65871 0.012 0.0796 0.11c0.022 0.81791 0.0576 1.3699 0.10333 1.6408 0.0491 0.27603 0.11347 0.45891 0.19643 0.55544 0.0813 0.0915 0.26077 0.17104 0.53001 0.23538 0.27432 0.0576 0.88223 0.10494 1.8255 0.1304l2.7907 0.0576 6.1231 0.10667 2.5824 0.022c1.0025 8e-3 1.6527-7e-3 1.9423-0.0423 0.29464-0.0305 0.48937-0.0915 0.58589-0.17442 0.1016-0.0796 0.18119-0.24045 0.24723-0.47416 0.0677-0.23877 0.1236-0.82467 0.17611-1.7594l0.0965-0.10667 0.65871 0.012 0.0931 0.11zm-0.53848 12.377c-0.57573 2.1761-0.89577 3.3953-0.95673 3.6645-0.066 0.2811-0.31496 1.5207-0.74845 3.7237l-0.1168 0.0813-0.64178-0.14901-0.0695-0.1236c0.12026-0.59777 0.19812-1.0618 0.24214-1.3886 0.0407-0.33529 0.0271-0.58253-0.0305-0.75017-0.0644-0.16596-0.26077-0.31497-0.59775-0.44367-0.33697-0.12867-0.81618-0.26078-1.436-0.40472l-2.96-0.71122-1.8035-0.41657c-0.48768 1.8712-0.92118 3.6476-1.309 5.3342-0.53171 2.2997-0.9144 4.0608-1.1396 5.2732l1.8035 0.41657 2.5231 0.55542c0.97875 0.21676 1.6188 0.33698 1.9101 0.36238 0.29464 0.022 0.49954 4e-3 0.60791-0.0491 0.1152-0.0576 0.22691-0.19474 0.34205-0.41319 0.1152-0.21844 0.29126-0.78064 0.53848-1.6916l0.11347-0.0711 0.64177 0.14733 0.0711 0.11346c-0.57743 2.1845-0.89747 3.4088-0.95843 3.6729-0.0677 0.29465-0.31665 1.5342-0.74845 3.7237l-0.1168 0.0847-0.64177-0.14902-0.0677-0.12707c0.12027-0.60115 0.19982-1.0702 0.24384-1.4022 0.0389-0.33021 0.0271-0.57745-0.0321-0.74509-0.0609-0.17272-0.26077-0.31497-0.59775-0.43858-0.33697-0.12535-0.81618-0.25909-1.4343-0.4098l-2.96-0.71122-5.9656-1.3784-2.518-0.55205c-0.97536-0.21674-1.6104-0.34037-1.9016-0.36069-0.29634-0.022-0.49954-5e-3 -0.6096 0.0576-0.1168 0.0559-0.23199 0.19305-0.34544 0.40812-0.11854 0.21336-0.29972 0.77387-0.54695 1.685l-0.10333 0.088-0.64178-0.14902-0.0779-0.12867c0.57404-2.1845 0.89408-3.4088 0.95504-3.6764 0.0644-0.27433 0.31326-1.5139 0.75353-3.7204l0.12187-0.0677 0.64177 0.14732 0.0592 0.11001c-0.1524 0.81452-0.23199 1.3615-0.24553 1.6408-7e-3 0.27603 0.0187 0.46738 0.0813 0.57406 0.0593 0.1016 0.21844 0.21675 0.46736 0.34037 0.25569 0.11854 0.84328 0.28619 1.7628 0.49955l2.7127 0.65364 2.9379 0.67905c0.64008-2.5315 1.0736-4.308 1.3107-5.3342 0.24214-1.0465 0.62484-2.8025 1.1396-5.2748l-2.9396-0.67735-2.5147-0.56729c-0.97366-0.21676-1.6104-0.33529-1.9016-0.35561-0.29464-0.0271-0.49953-8e-3 -0.6096 0.0541-0.1168 0.0609-0.23198 0.19644-0.34713 0.41488-0.12027 0.21845-0.29972 0.77895-0.54525 1.6815l-0.10334 0.0829-0.64177-0.14732-0.0779-0.12534c0.57066-2.1761 0.89239-3.4037 0.95504-3.6764 0.0627-0.26925 0.30988-1.5054 0.75015-3.7118l0.12533-0.0813 0.64178 0.14732 0.0559 0.1236c-0.14901 0.80606-0.2286 1.353-0.24045 1.6274-0.0107 0.2811 0.0152 0.47245 0.0779 0.58422 0.0592 0.10493 0.21674 0.22182 0.46736 0.33866 0.25738 0.11521 0.84328 0.28788 1.7611 0.50802l2.7161 0.63672 5.9656 1.3784 2.5213 0.55881c0.98044 0.21675 1.6205 0.33698 1.9101 0.36238 0.29464 0.0305 0.49784 0.012 0.6096-0.0491 0.1152-0.0576 0.22691-0.19813 0.34036-0.41318 0.1152-0.21845 0.29126-0.78065 0.53679-1.6832l0.1168-0.0847 0.64177 0.14902 0.0695 0.12534z" fill="#FF0" stroke="#FF0" stroke-width=".53334"/>
<path d="m291.52 307.52-0.14224-0.0339c-0.0339-0.0541-0.3285-0.55036-0.87714-1.497-0.52663-0.91103-0.88054-1.5104-1.0617-1.8018-0.0983-0.15748-0.79079-1.1989-2.0795-3.131l0.0305-0.14733 0.5588-0.34884 0.12694 0.0491c0.43518 0.64347 0.75353 1.0787 0.95842 1.3124 0.20659 0.22692 0.38608 0.35392 0.5334 0.37593 0.14902 0.0237 0.34206-0.0237 0.5842-0.13213 0.23707-0.10494 0.81111-0.43181 1.712-0.9737 0.90255-0.54865 1.6357-0.99571 2.2064-1.353l5.1917-3.2429c0.76708-0.47923 1.5816-0.99909 2.4469-1.5664 0.86868-0.56898 1.3699-0.92629 1.5104-1.0668 0.13885-0.14563 0.21844-0.28111 0.24045-0.39964 0.022-0.12693-0.0169-0.31497-0.11853-0.56559-0.1016-0.2557-0.35729-0.7417-0.76031-1.453l0.0237-0.14224 0.5588-0.34883 0.13716 0.0407 0.40978 0.68074 0.26924 0.45552 0.47244 0.78065 0.96859 1.5782 1.4376 2.3505c0.54695 0.89242 1.1464 1.8713 1.7983 2.9278l2.8448 4.4791 1.6731 2.623c0.32343 0.50125 0.65024 0.9991 0.97875 1.4919l-0.0253 0.13717-0.5588 0.35053-0.13547-0.0372c-0.48091-0.718-0.8128-1.1752-1.0024-1.3666-0.18288-0.18966-0.33698-0.29973-0.4589-0.32513-0.12533-0.0288-0.28448-4e-3 -0.48768 0.0711-0.2015 0.0711-0.79248 0.40472-1.7661 0.99063-0.97536 0.58929-1.734 1.0516-2.2809 1.3936l-5.1935 3.2462c-0.58251 0.36408-1.3123 0.82976-2.1844 1.3954-0.87376 0.56897-1.4156 0.93812-1.6256 1.1024-0.21336 0.17102-0.33867 0.32851-0.37253 0.47753-0.0407 0.14901 1e-3 0.37085 0.1236 0.66719 0.12706 0.29804 0.37253 0.76879 0.74337 1.4106l-0.0152 0.13214-0.5588 0.34883-0.14224-0.0321c-0.0389-0.0627-0.33359-0.55881-0.87715-1.497-0.52493-0.90766-0.88053-1.5104-1.0702-1.8136-0.0932-0.14903-0.78571-1.1904-2.0777-3.131l0.0407-0.13213 0.55711-0.34884 0.11853 0.0339c0.49953 0.72985 0.8382 1.1888 1.0228 1.3734 0.18627 0.18627 0.33867 0.29465 0.45382 0.31667 0.12186 0.0253 0.28278 0 0.48598-0.0745 0.20151-0.0779 0.79079-0.40302 1.7679-0.98723 0.97536-0.58761 1.734-1.0448 2.2724-1.3835l9.4776-5.9218 0.0508-0.2015-5.3441-8.5516-0.2032-0.0424-9.4776 5.9218c-0.57743 0.36069-1.3039 0.82638-2.1827 1.3971-0.88393 0.57237-1.4241 0.94322-1.6341 1.1109-0.20151 0.16934-0.32682 0.32682-0.36407 0.47246-0.0424 0.14393-1e-3 0.36238 0.12027 0.66041 0.12186 0.28957 0.37084 0.76372 0.74506 1.4139l-0.0136 0.13041-0.56049 0.35053zm27.017 5.3816c1.5495 1.5951 2.5435 2.6061 2.9785 3.0278 0.59775 0.57576 1.2818 1.2057 2.0557 1.8898 0.8128 0.73492 1.3106 1.1904 1.4952 1.3683 0.88731 0.85686 1.5291 1.6595 1.9355 2.4029 0.40301 0.74678 0.55711 1.5494 0.46736 2.4029-0.0915 0.85517-0.47075 1.6307-1.1379 2.3233-0.55203 0.57068-1.2192 0.99571-1.9999 1.27-0.78401 0.27263-1.59 0.36577-2.4283 0.28618-0.8382-0.088-1.5765-0.28618-2.2233-0.59776-0.64517-0.3082-1.2294-0.7163-1.756-1.2243-0.39285-0.37932-0.7874-0.84838-1.187-1.4038l0.40301-0.73494 0.17441-0.012c0.37254 0.56391 0.70782 0.99572 1.0042 1.2819 0.83144 0.80266 1.7661 1.1735 2.8008 1.1109 1.0329-0.0627 1.9643-0.51987 2.7923-1.3784 0.83142-0.86025 1.2327-1.8035 1.2056-2.8212-0.0237-1.0211-0.56896-2.0439-1.6273-3.0667-0.57574-0.55544-1.3157-1.0618-2.2183-1.5122-0.52493 0.43351-1.6933 1.585-3.5035 3.4596l-4.2536 4.4028-1.7813 1.8645c-0.6858 0.72476-1.1142 1.2074-1.2836 1.4478-0.17441 0.23876-0.26416 0.42165-0.26754 0.55034-8e-3 0.1304 0.0491 0.29973 0.1778 0.51141 0.12533 0.21505 0.51308 0.65872 1.1599 1.3327l0.0187 0.13215-0.4589 0.47414-0.14562 1e-3c-1.5715-1.6104-2.4587-2.5181-2.6603-2.7127-0.21844-0.20998-1.1498-1.0584-2.794-2.5537l-5e-3 -0.15071 0.4572-0.47414 0.13377 0.0169c0.613 0.54188 1.0414 0.89241 1.27 1.0448 0.23707 0.1524 0.41318 0.2286 0.54018 0.23368 0.12186 4e-3 0.3031-0.0728 0.5334-0.22691 0.23029-0.16088 0.67902-0.57406 1.3411-1.2463l1.9456-2.0016 4.2536-4.4045 1.778-1.8728c0.68919-0.72816 1.1227-1.2142 1.2937-1.4512 0.17781-0.23539 0.26756-0.41996 0.27095-0.54697 0.0107-0.12867-0.0525-0.29633-0.17782-0.50462-0.12866-0.21167-0.51816-0.65196-1.1667-1.3276l-0.012-0.14393 0.45889-0.47414 0.14224 7e-3zm16.405 15.172 0.14054-0.022c2.5061 1.6934 4.1165 2.7704 4.8243 3.231 2.4283 1.5748 4.6025 2.955 6.5244 4.1386l5e-3 0.11681c-0.64516 0.5876-1.5037 1.612-2.5789 3.0752l-0.1236 0.0424-0.54187-0.35222-0.0457-0.1524c0.0525-0.0644 0.0948-0.12187 0.12693-0.17104 0.4081-0.62825 0.74846-1.2599 1.0245-1.8915-0.33359-0.50801-0.889-1.0618-1.6713-1.6628-0.7874-0.59607-1.3852-1.0346-1.7983-1.3022-0.58251-0.37931-1.3597-0.82467-2.3232-1.331l-1.1921 1.7442-1.3529 2.0083-1.4969 2.2319c0.76877 0.56389 1.4884 1.0634 2.1641 1.502 0.68072 0.44197 1.2632 0.78911 1.7509 1.0414 0.48768 0.25062 0.78571 0.38101 0.89578 0.38609 0.1084 1e-3 0.23029-0.0541 0.3556-0.16595 0.1304-0.11001 0.32173-0.33021 0.57912-0.65873l0.48937-0.65534 0.14732-0.0356 0.51139 0.33191 0.0305 0.1507c-0.53848 0.79758-1.0837 1.5951-1.6324 2.391l-1.5664 2.5367-0.14732 0.0271-0.51139-0.3319-0.0305-0.14394 0.35221-0.71799c0.27263-0.56051 0.42334-0.89919 0.4589-1.0211 0.0389-0.11521 0.022-0.24893-0.0339-0.39456-0.0593-0.14055-0.29633-0.38101-0.70951-0.71291-0.41656-0.33021-1.0109-0.74847-1.7916-1.2548-0.42841-0.27941-1.0956-0.68582-1.9981-1.2175-0.44196 0.59607-1.1328 1.6171-2.0744 3.0684-1.0092 1.5528-1.7323 2.7077-2.1692 3.4646l2.0421 1.3259c1.7984 1.1667 2.9345 1.8728 3.4155 2.1269 0.47921 0.24554 0.97875 0.41488 1.4935 0.5114 0.1778-0.12707 0.54356-0.44874 1.0973-0.96862 0.55372-0.52155 0.89238-0.85176 1.016-0.99231l0.15748-5e-3 0.53509 0.34714 0.0372 0.13213c-0.27093 0.27603-0.70104 0.78912-1.2751 1.541-0.57743 0.75016-1.0482 1.4088-1.4123 1.9694l-0.13546 0.0356c-1.3868-0.96016-3.2191-2.1827-5.5033-3.6662l-3.004-1.9813c-0.70443-0.45891-1.4545-0.90257-2.2521-1.3411l-0.0356-0.14563 0.23876-0.36746 0.16256-0.0508c0.58082 0.0593 0.91948 0.0864 1.016 0.0677 0.0999-0.0107 0.57235-0.62316 1.4173-1.8407 0.84666-1.2125 1.4816-2.1405 1.9033-2.7924l2.6451-4.0709 1.6239-2.5249c0.3556-0.55035 0.63839-1.0025 0.84497-1.3514 0.20828-0.35561 0.34206-0.61809 0.39963-0.79081 0.0593-0.17273 0.0864-0.30481 0.0779-0.39117-0.0107-0.0932-0.0576-0.19474-0.13716-0.30481-0.0813-0.10666-0.24215-0.26586-0.48091-0.46229l-0.80095-0.613-0.0372-0.13548 0.35899-0.55373zm19.955 20.742c0.1524-0.36577 0.24215-0.57406 0.26078-0.61978 0.0339-0.0829 0.0779-0.2066 0.14054-0.37254l0.23538-0.088c0.44704 0.23198 0.86021 0.42842 1.2446 0.58421 0.77893 0.31497 1.4444 0.45213 2.0083 0.40641 0.5588-0.0457 1.0939-0.27263 1.6019-0.68582 0.50631-0.41319 0.90255-0.9703 1.1836-1.6646 0.37592-0.92967 0.39963-1.7864 0.0677-2.5689-0.33189-0.78235-1.0397-1.3903-2.1285-1.8288-1.0634-0.43012-2.0287-0.48939-2.8956-0.17273-0.86868 0.31667-1.6713 1.0347-2.3977 2.159l-0.19135 0.0779-0.19812-0.0796-0.0796-0.18796c0.33189-0.94321 0.63161-1.8627 0.889-2.7686 1.0532-0.26586 2.0353-0.36069 2.9481-0.27941 0.90934 0.0864 1.8695 0.32682 2.8787 0.73493 1.6747 0.67735 2.8347 1.4816 3.4764 2.4131 0.64177 0.93136 0.73829 1.944 0.29295 3.0498-0.41656 1.0296-1.1278 1.751-2.1319 2.1642-0.99907 0.41318-2.1675 0.49617-3.4984 0.2574l-0.0847 0.20829c1.4833 0.59945 2.5485 1.1803 3.1971 1.7442 0.65193 0.57067 1.0566 1.2785 1.2175 2.1337 0.15578 0.85686 0.044 1.756-0.33698 2.7026-0.6858 1.6967-1.8847 2.8568-3.6035 3.4833-1.7204 0.62993-3.7321 0.47415-6.0384-0.45722-1.06-0.42842-1.9728-0.92966-2.7415-1.4987-0.76369-0.57067-1.3513-1.2717-1.7644-2.1049 0.44365-0.91781 0.74337-1.5647 0.89916-1.9507 0.0779-0.19136 0.32173-0.83314 0.73491-1.9135l0.56388 0.0136 0.088 0.16764c-0.27771 1.773-0.22183 3.153 0.16764 4.1539 0.38946 0.99908 1.1904 1.7424 2.3927 2.2267 0.86699 0.35053 1.712 0.46399 2.5433 0.33699 0.83142-0.12188 1.59-0.50294 2.2708-1.138 0.68242-0.62994 1.1972-1.3716 1.5409-2.2217 0.48091-1.1938 0.52324-2.2827 0.1168-3.27-0.40471-0.98554-1.3411-1.778-2.8025-2.369-0.60622-0.24555-1.2615-0.42165-1.9643-0.53681l-0.10333-0.24045zm16.471 16.099 0.0915-0.65195 0.11853-0.066c0.77385 0.0813 1.3106 0.11681 1.6223 0.11015 0.30818-0.012 0.51985-0.0695 0.62992-0.16765 0.11346-0.0983 0.2032-0.27603 0.27601-0.53172 0.0711-0.24894 0.18965-0.89751 0.35391-1.9373 0.16086-1.0448 0.28956-1.8932 0.38269-2.5587l0.85175-6.064c0.12706-0.90765 0.254-1.8746 0.37592-2.9025 0.12026-1.0228 0.17102-1.6358 0.1524-1.8306-0.0237-0.19473-0.0745-0.33867-0.1541-0.43181-0.0813-0.0983-0.25569-0.18966-0.51985-0.28279-0.27093-0.0932-0.79756-0.2032-1.59-0.34207l-0.0932-0.1084 0.0915-0.65364 0.12026-0.0779c0.044 7e-3 0.61468 0.10493 1.7103 0.29465 1.0312 0.18119 1.7171 0.29634 2.0625 0.34376 0.2049 0.0288 1.4529 0.16764 3.7355 0.41657l0.0897 0.1084-0.0915 0.65364-0.1168 0.0779c-0.77386-0.0813-1.314-0.12027-1.6223-0.1084-0.31157 0.0107-0.51985 0.0627-0.63331 0.15748-0.1084 0.0983-0.2015 0.26756-0.27262 0.51649-0.0677 0.2523-0.18796 0.90934-0.3556 1.9795-0.16934 1.0753-0.29803 1.9203-0.38439 2.5418l-1.4139 10.06 0.18458 0.11681c2.2149-2.3962 4.7481-5.2647 7.5929-8.6041 2.8481-3.3393 4.6008-5.4544 5.2595-6.3418 0.90593 0.19983 1.756 0.35561 2.5417 0.46568 0.89069 0.12534 1.7408 0.20829 2.5552 0.25062l0.0897 0.1084-0.0915 0.65196-0.1152 0.0796c-0.85852-0.0932-1.4241-0.13214-1.6916-0.11014-0.26247 0.0187-0.44535 0.0644-0.54356 0.14224-0.1016 0.0779-0.18458 0.21676-0.25908 0.41998-0.0745 0.19982-0.19812 0.85685-0.37254 1.9626-0.17272 1.1075-0.30649 1.9949-0.40301 2.6705l-0.85175 6.064c-0.0999 0.71461-0.21336 1.585-0.33866 2.6061-0.12534 1.0177-0.18796 1.6612-0.18966 1.9304 0 0.26417 0.0407 0.4606 0.13214 0.58253 0.088 0.12707 0.28617 0.23707 0.58758 0.33529 0.30142 0.0915 0.81958 0.20151 1.5511 0.32173l0.088 0.10841-0.0915 0.65365-0.1168 0.088c-0.044-7e-3 -0.61468-0.0999-1.7103-0.29126-1.0042-0.1778-1.6967-0.29296-2.0625-0.34376-0.23198-0.0339-1.48-0.17272-3.7355-0.41996l-0.088-0.1168 0.0915-0.65364 0.1168-0.0796c0.77216 0.0897 1.314 0.12866 1.6205 0.11346 0.31326-0.0152 0.52154-0.0677 0.62992-0.15749 0.11346-0.0932 0.20489-0.26246 0.27262-0.51817 0.0711-0.24893 0.19135-0.91273 0.36068-1.9779 0.16764-1.0668 0.29464-1.9118 0.3827-2.5317l1.3868-9.7691-0.25062-0.13214c-0.91609 1.0025-3.0531 3.424-6.4144 7.2613l-6.4109 7.3933c-0.73321-0.17104-1.5917-0.32852-2.5653-0.464-0.6858-0.0965-1.5037-0.1761-2.4655-0.24214l-0.0932-0.11855zm46.176-16.928 0.11173 0.0847c0.1152 1.7272 0.35899 4.6601 0.72136 8.809 0.22183 2.5367 0.4826 5.3511 0.7891 8.4432l0.24214 0.19135c0.96351-0.13885 1.6053-0.24893 1.9389-0.32851l0.19304 0.23369c-0.35222 1.9964-0.61976 4.1116-0.8145 6.34l-0.19304 0.23031-0.31496 0.0271-0.24384-0.19134c-0.11013-1.795-0.1778-2.8229-0.19981-3.0786-0.0627-0.71122-0.13885-1.1667-0.22013-1.3734-0.0864-0.20489-0.2032-0.35392-0.35222-0.44028-0.14732-0.0915-0.41486-0.13546-0.79586-0.14224-0.381-8e-3 -1.4191 0.0559-3.1072 0.18458-1.6883 0.1304-2.7907 0.21675-3.3088 0.26247-2.1099 0.18458-3.7405 0.33699-4.9005 0.45552-1.1582 0.12027-1.8576 0.22692-2.1015 0.32513-0.24554 0.0931-0.41487 0.24893-0.51478 0.45213-0.0948 0.20829-0.11013 0.69937-0.0424 1.4732 0.022 0.2557 0.13547 1.2971 0.34036 3.1294l-0.20489 0.24385-0.29972 0.0271-0.24553-0.2049c-0.59267-2.215-1.2243-4.2504-1.9033-6.0979l0.15071-0.254c0.55203 0.0389 1.2141 0.0339 1.9795-0.0152 0.96181-1.5427 1.9812-3.2598 3.0548-5.1395l2.8804-5.048 2.2555-3.954c0.64347-1.1549 0.99738-1.8152 1.0685-1.9846 0.0677-0.16934 0.11173-0.28958 0.1236-0.35901 8e-3 -0.0644 0.012-0.12361 7e-3 -0.17781-0.0253-0.28449-0.21336-0.47075-0.57065-0.56727-0.35899-0.0999-1.3615-0.11681-3.0005-0.0491l-0.11174-0.0864-0.0576-0.65703 0.0948-0.10334c0.1084-8e-3 0.63163-0.0372 1.5748-0.0829 0.84498-0.0372 1.5935-0.0847 2.2453-0.14225 0.43518-0.0372 1.6832-0.18288 3.7321-0.4352zm-0.98721 17.566c-0.18458-2.8348-0.39963-5.6542-0.64516-8.4568-0.15748-1.8035-0.39963-4.1979-0.72306-7.1885l-0.3556 0.0305c-4.3637 8.201-7.2052 13.703-8.5276 16.511l0.20151 0.18288c1.2412-0.0592 2.9176-0.1778 5.0275-0.36238 1.8965-0.16764 3.5103-0.33529 4.8412-0.50124l0.18118-0.21506zm10.08-19.173 0.0677-0.12361c2.8787-0.93305 4.7193-1.5392 5.5169-1.8136 2.7364-0.94321 5.1629-1.8068 7.2796-2.5926l0.0932 0.0677c0.066 0.8704 0.34544 2.1777 0.83651 3.9236l-0.0424 0.12534-0.61129 0.20997-0.14902-0.0576c-0.0169-0.0796-0.0372-0.1507-0.0559-0.20489-0.24384-0.70953-0.53171-1.3648-0.86022-1.9729-0.60621-0.0491-1.3835 0.0457-2.3401 0.29465-0.95336 0.25232-1.6663 0.45382-2.1319 0.6147-0.65701 0.22691-1.4868 0.56389-2.4791 1.0109l0.64008 2.0151 0.75014 2.3013 0.83651 2.5537c0.91779-0.25908 1.7543-0.51817 2.5147-0.78065 0.76877-0.26416 1.4004-0.5097 1.8999-0.74001 0.49954-0.2286 0.78402-0.38439 0.85514-0.46567 0.0677-0.0864 0.0983-0.21507 0.088-0.38441-5e-3 -0.16935-0.0609-0.45552-0.16087-0.86025l-0.21675-0.7908 0.0644-0.13716 0.57574-0.19813 0.13716 0.0677c0.29633 0.91442 0.58928 1.8356 0.87884 2.7585l1.0346 2.7958-0.0695 0.13378-0.57574 0.19813-0.13213-0.0644-0.34883-0.72138c-0.27262-0.55882-0.44873-0.88565-0.52154-0.98894-0.0695-0.1016-0.18288-0.17104-0.3319-0.21506-0.14901-0.0407-0.48429-1e-3 -1.0008 0.12027-0.51477 0.12534-1.2124 0.33529-2.0912 0.6384-0.48261 0.16596-1.2141 0.44198-2.1895 0.82468 0.19812 0.71461 0.57742 1.888 1.1413 3.524 0.60283 1.751 1.0685 3.0329 1.3936 3.8422l2.3029-0.7925c2.0287-0.69936 3.2833-1.16 3.7779-1.3835 0.49107-0.22522 0.93134-0.51479 1.3225-0.86024 0.0107-0.21845-0.0187-0.70614-0.0864-1.4614-0.0711-0.75694-0.12187-1.2277-0.15748-1.4123l0.0948-0.12694 0.60282-0.20659 0.12694 0.0508c0.0508 0.3844 0.18965 1.038 0.42841 1.9542 0.23537 0.91781 0.46397 1.6934 0.68241 2.325l-0.0559 0.12867c-1.6087 0.50124-3.7016 1.1938-6.2772 2.0795l-3.4104 1.1464c-0.79418 0.27264-1.6069 0.59099-2.4435 0.9517l-0.13547-0.0627-0.14224-0.41489 0.0592-0.15918c0.40471-0.41996 0.63331-0.67228 0.67903-0.75864 0.0525-0.0864-0.13885-0.83652-0.57912-2.2522-0.43349-1.4106-0.77385-2.4842-1.0262-3.2174l-1.5816-4.5908-0.9906-2.8348c-0.21167-0.61808-0.39455-1.1193-0.54356-1.497-0.15071-0.3827-0.27601-0.65195-0.37592-0.80266-0.0999-0.15241-0.18796-0.2557-0.26077-0.30142-0.0813-0.0491-0.18966-0.0745-0.32512-0.0796-0.13378-1e-3 -0.3573 0.0271-0.6604 0.0931l-0.97536 0.25571-0.1304-0.0559-0.21506-0.62317zm20.717-7.6202c1.9829-1.0618 3.092-1.6612 3.3308-1.7984 0.25061-0.14564 1.3276-0.80775 3.2343-1.9931l0.13885 0.0305 0.32851 0.57067-0.0423 0.13377c-0.51816 0.32175-0.91271 0.57914-1.182 0.77049-0.27093 0.19982-0.44365 0.37762-0.52662 0.53342-0.0779 0.16087-0.0508 0.40641 0.0829 0.74002 0.13547 0.3336 0.36576 0.77557 0.68411 1.3259l1.4969 2.6502 0.92625 1.6036c1.7001-0.9195 3.2952-1.8152 4.7939-2.6789 2.0456-1.182 3.5933-2.1015 4.6347-2.7653l-0.92626-1.6019-1.314-2.2234c-0.5097-0.86532-0.85854-1.4139-1.038-1.6443-0.18627-0.232-0.33697-0.36746-0.45212-0.41149-0.11853-0.0457-0.29464-0.0339-0.5334 0.0321-0.23876 0.0644-0.77047 0.31836-1.6053 0.76033l-0.1304-0.0356-0.32851-0.57067 0.0339-0.12867c1.9913-1.0668 3.1056-1.668 3.3392-1.8035 0.26248-0.1524 1.3395-0.81451 3.2343-1.9931l0.14224 0.0271 0.3302 0.57237-0.0475 0.13547c-0.52324 0.32343-0.91948 0.58422-1.1938 0.77727-0.26755 0.19642-0.44027 0.37593-0.52155 0.53171-0.0847 0.16257-0.0525 0.40472 0.0864 0.73832 0.13885 0.33021 0.36745 0.77218 0.67903 1.3276l1.4969 2.6502 3.0616 5.302 1.314 2.2201c0.50631 0.86024 0.84836 1.4072 1.0329 1.6358 0.18457 0.23029 0.33697 0.36746 0.45889 0.40641 0.12027 0.0457 0.29803 0.0372 0.53171-0.0253 0.23706-0.0593 0.77046-0.30989 1.6069-0.75017l0.13377 0.0169 0.3302 0.57067-0.0424 0.14394c-1.9896 1.0702-3.1021 1.6714-3.3409 1.8086-0.24215 0.14055-1.3191 0.80436-3.2325 1.9863l-0.13378-0.0423-0.3302-0.57066 0.0407-0.11681c0.69935-0.44536 1.1532-0.76033 1.3665-0.94151 0.20828-0.1812 0.3302-0.33021 0.36576-0.45045 0.0339-0.11347 0.0107-0.3082-0.0711-0.57405-0.0864-0.26756-0.36407-0.81114-0.83651-1.629l-1.3716-2.4299-1.5088-2.6129c-2.286 1.2582-3.8811 2.1539-4.7921 2.6806-0.93133 0.5368-2.4756 1.4546-4.6347 2.7635l1.5071 2.6129 1.3005 2.2251c0.50631 0.86023 0.85344 1.4055 1.038 1.6342 0.18119 0.23369 0.33359 0.36916 0.45551 0.4081 0.1236 0.044 0.30141 0.0356 0.54017-0.0288 0.24046-0.0609 0.77386-0.31157 1.6019-0.74847l0.1304 0.0187 0.3302 0.57067-0.0389 0.14224c-1.9812 1.0651-3.0971 1.6696-3.3409 1.8086-0.23876 0.13717-1.3106 0.79929-3.2259 1.983l-0.14394-0.0356-0.3302-0.57237 0.0525-0.1236c0.69088-0.44028 1.1447-0.75525 1.3547-0.93306 0.21167-0.18457 0.33359-0.33359 0.37423-0.45551 0.0372-0.1152 0.012-0.30989-0.0711-0.57406-0.0915-0.26586-0.36576-0.81282-0.82973-1.6342l-1.3868-2.4215-3.0616-5.302-1.3106-2.2251c-0.50969-0.86531-0.85852-1.4139-1.038-1.6443-0.1778-0.23539-0.3302-0.37255-0.45043-0.4115-0.12027-0.0457-0.29972-0.0305-0.53511 0.0321-0.23876 0.0644-0.76877 0.31835-1.5968 0.75525l-0.14224-0.0288-0.3285-0.57068 0.0457-0.13546zm33.823-25.57 0.17272 4e-3c0.49107 0.62316 1.4241 1.6494 2.7973 3.0718l-1e-3 0.14732-0.44873 0.43182-0.15579-0.012-0.95334-0.77388c-0.50123-0.41996-0.81958-0.67057-0.94996-0.74678-0.12867-0.0763-0.24892-0.11-0.3573-0.0932-0.11 0.012-0.3556 0.17273-0.73321 0.47584-0.38269 0.3065-0.78909 0.66719-1.2209 1.0838l-1.7949 1.734c1.3344 1.4868 2.1065 2.3402 2.3199 2.5621l5.3577 5.5475 1.8119 1.8356c0.69935 0.71122 1.1633 1.16 1.4004 1.3462 0.23369 0.18288 0.41319 0.2794 0.53849 0.29126 0.1236 5e-3 0.29464-0.0475 0.5097-0.16765 0.21844-0.1168 0.67902-0.49277 1.3835-1.1227l0.12187-4e-3 0.4572 0.47414 7e-3 0.13717c-1.6713 1.5207-2.6027 2.369-2.794 2.5537-0.20491 0.19812-1.0821 1.0956-2.6399 2.6942l-0.14732-1e-3 -0.4572-0.47414 0.0187-0.13214c0.57234-0.60284 0.93302-1.0143 1.0939-1.2379 0.15409-0.22522 0.23707-0.39794 0.24553-0.52664 8e-3 -0.12187-0.0609-0.30481-0.20489-0.54358-0.14563-0.24046-0.54525-0.70275-1.2006-1.38l-1.9236-2.0235-5.3577-5.5475c-0.0965-0.1016-0.91948-0.90764-2.474-2.4131l-1.4156 1.3666c-0.5842 0.56559-1.0753 1.0634-1.4765 1.502-0.39963 0.4369-0.5842 0.74002-0.54864 0.90596 0.0321 0.16934 0.29972 0.57069 0.80264 1.2023l0.74845 0.97201-1e-3 0.16426-0.43857 0.42504-0.14732-4e-3c-1.4901-1.5172-2.4824-2.4859-2.9735-2.9025l4e-3 -0.17273c1.1515-1.0126 3.0141-2.762 5.5847-5.2427 2.6213-2.5315 4.4348-4.3333 5.4424-5.407zm20.088 5.5442-0.5588-0.34884-0.012-0.13546c0.38947-0.67228 0.64008-1.1498 0.76031-1.436 0.11347-0.28619 0.14903-0.50294 0.10333-0.64349-0.0423-0.14394-0.16934-0.29804-0.37254-0.46738-0.19982-0.16764-0.74507-0.54018-1.6273-1.1126-0.889-0.57236-1.612-1.0346-2.1827-1.3903l-5.1917-3.2445c-0.77724-0.486-1.6104-0.99571-2.4993-1.524-0.88392-0.52663-1.4241-0.82128-1.6087-0.88394-0.18796-0.0576-0.34036-0.0695-0.4572-0.0356-0.1236 0.0356-0.2794 0.15579-0.47074 0.36069-0.19474 0.20998-0.5097 0.64518-0.95843 1.3141l-0.13716 0.0407-0.56049-0.35052-0.022-0.14056c0.0237-0.0389 0.34544-0.51986 0.9652-1.4427 0.5842-0.8687 0.96858-1.4495 1.1532-1.7442 0.11013-0.17611 0.74506-1.2599 1.8983-3.2428l0.13547-0.0389 0.56049 0.35053 0.0253 0.13885c-0.38947 0.67228-0.64516 1.1515-0.76031 1.436-0.1168 0.28957-0.1524 0.50125-0.11347 0.6418 0.0457 0.14055 0.16256 0.29465 0.36068 0.4606 0.2032 0.16426 0.75523 0.54019 1.6645 1.1312 0.9127 0.59098 1.6324 1.0516 2.1641 1.3835l8.6157 5.385 0.18288-0.12028c-1.2886-3.0006-2.8787-6.4806-4.7735-10.438-1.8897-3.9608-3.1107-6.423-3.6543-7.3849 0.55203-0.74678 1.0397-1.4596 1.4613-2.1337 0.47583-0.76033 0.89747-1.5038 1.2666-2.2319l0.13546-0.0372 0.5605 0.34884 0.0237 0.13886c-0.43349 0.74509-0.69765 1.2463-0.7874 1.4987-0.0897 0.24724-0.12187 0.4352-0.0915 0.55542 0.0288 0.12535 0.12187 0.2574 0.27771 0.40812 0.1524 0.14901 0.70273 0.52833 1.6425 1.138 0.9398 0.60791 1.6967 1.0922 2.2759 1.453l5.1935 3.2462c0.61129 0.38271 1.3597 0.83822 2.242 1.3699 0.87884 0.52664 1.4411 0.84669 1.6865 0.95675 0.24045 0.10841 0.43688 0.15072 0.58759 0.11681 0.14901-0.0288 0.33189-0.16426 0.54356-0.39963 0.20658-0.23877 0.51646-0.6672 0.92456-1.2853l0.13546-0.0389 0.5588 0.35053 0.0321 0.14224c-0.0237 0.0372-0.34036 0.52157-0.96012 1.4444-0.57066 0.84501-0.95843 1.4292-1.1532 1.7442-0.12534 0.19813-0.76031 1.2819-1.9033 3.2412l-0.14224 0.0321-0.56049-0.34884-0.0253-0.13885c0.39624-0.6672 0.65362-1.1464 0.76369-1.4343 0.11347-0.29126 0.14901-0.50294 0.11173-0.63841-0.0389-0.14224-0.15578-0.29465-0.36237-0.46059-0.19812-0.16596-0.75523-0.54528-1.6612-1.1329-0.90593-0.58761-1.6239-1.0482-2.1556-1.38l-8.3617-5.2394-0.22183 0.17442c0.54356 1.2446 1.8864 4.1826 4.0251 8.8141l4.1469 8.8632c-0.45551 0.60115-0.94657 1.3208-1.4699 2.1557-0.36576 0.5859-0.77046 1.3022-1.2226 2.1539l-0.14562 0.0356z" fill="#FF0" stroke="#FF0" stroke-width=".53334"/>
<g transform="matrix(1.3333 0 0 1.3334 -266.67 -.01333)" fill="#FFF" fill-rule="evenodd">
<path d="m508.32 247.92c-0.30467-0.11242-0.54188-0.71838-0.54188-1.0186v-0.4126c0-0.21135 0.23496-0.46093 0.41484-0.54188l-0.44632-1.5278c-0.87128 0.0551-2.0056 0.65206-2.0056 1.656v0.47892l0.0854 0.31816c0.20349 0.76448 1.0107 1.1793 1.7606 1.1793 0.2136-1e-3 0.51602-0.0933 0.733-0.13154z"/>
<path d="m516.54 245.21c0-0.47892-0.26757-0.85666-0.50928-1.2423-0.0652 0.0135-0.17763-0.0371-0.24396-0.0528-0.25632-0.0641-0.56099-0.28106-0.80719-0.39348-0.21136-0.0967-0.44857-0.0922-0.66892-0.16077-0.33277 0.37325-0.57336 1.3637-0.57336 1.8494v0.19112c0.59809 0.20911 0.9556 0.43508 0.9556 1.113 0 0.46093-0.53963 0.83418-0.923 0.9882 1.5649-0.16414 2.7701-0.43845 2.7701-2.2923z"/>
<path d="m518.83 244c0-0.83193-0.71389-1.8797-1.6234-1.8797-0.65093 0-2.4126 0.31141-2.8983 0.7004l-0.0315 0.0944c0.70601 0.20237 2.1709 0.68466 2.2608 1.5616 0.0798-9e-3 0.17537-0.0303 0.2552-0.0303h0.47892c0.25295 0 0.53963 0.36201 0.53963 0.60372 0 0.28555-0.26082 0.74874-0.4452 0.95559 0.99832-0.42945 1.4638-0.81956 1.4638-2.0056z"/>
<path d="m494.44 248.68c0.28668-0.15627 0.50928-0.7375 0.50928-1.05v-0.41485c0-0.18662-0.23384-0.44519-0.38224-0.53963l0.44519-1.5278c0.8072 0.0371 1.674 0.55987 1.8898 1.3682l0.0854 0.31816c0 1.1703-0.66442 1.9742-1.8786 1.9742-0.19-9.9e-4 -0.47668-0.0911-0.66892-0.12816z"/>
<path d="m483.87 244.77c0-0.82293 0.81956-1.9123 1.6875-1.9123 0.46768 0 2.7611 0.35526 2.9298 0.76672-0.52389 0.0989-2.4306 0.90276-2.2923 1.5919-0.16976-0.0281-0.3384-0.0326-0.5104-0.0326-0.31141 0-0.6307 0.16077-0.76448 0.4452v0.19112c0 0.34738 0.24283 0.69365 0.4778 0.92411-1.0129-0.35637-1.5278-0.82406-1.5278-1.9742z"/>
<path d="m486.19 245.94c0-0.47667 0.26532-0.85216 0.54076-1.2097 0.0101 2e-3 1.3075-0.55987 1.6864-0.63631 0.25632 0.51152 0.45643 0.92411 0.55199 1.4975 0.0303 0.17988 7e-3 0.36201 0.0528 0.53963-0.59135 0.17314-1.0186 0.4452-1.0186 1.1152 0 0.46993 0.55874 0.85217 0.95559 0.98595-1.566-0.17425-2.769-0.40697-2.769-2.2923z"/>
</g>
</svg>
