<?xml version="1.0" encoding="UTF-8" standalone="no"?>
<svg
   xmlns:dc="http://purl.org/dc/elements/1.1/"
   xmlns:cc="http://creativecommons.org/ns#"
   xmlns:rdf="http://www.w3.org/1999/02/22-rdf-syntax-ns#"
   xmlns:svg="http://www.w3.org/2000/svg"
   xmlns="http://www.w3.org/2000/svg"
   xmlns:sodipodi="http://sodipodi.sourceforge.net/DTD/sodipodi-0.dtd"
   xmlns:inkscape="http://www.inkscape.org/namespaces/inkscape"
   version="1.0"
   width="2800"
   height="1400"
   id="svg2"
   inkscape:version="0.48.4 r9939"
   sodipodi:docname="Flag_of_Macedonia_-_ethnic.svg">
  <metadata
     id="metadata18">
    <rdf:RDF>
      <cc:Work
         rdf:about="">
        <dc:format>image/svg+xml</dc:format>
        <dc:type
           rdf:resource="http://purl.org/dc/dcmitype/StillImage" />
      </cc:Work>
    </rdf:RDF>
  </metadata>
  <defs
     id="defs16">
    <inkscape:perspective
       sodipodi:type="inkscape:persp3d"
       inkscape:vp_x="0 : 526.18109 : 1"
       inkscape:vp_y="0 : 1000 : 0"
       inkscape:vp_z="744.09448 : 526.18109 : 1"
       inkscape:persp3d-origin="372.04724 : 350.78739 : 1"
       id="perspective2535" />
    <inkscape:perspective
       sodipodi:type="inkscape:persp3d"
       inkscape:vp_x="0 : 526.18109 : 1"
       inkscape:vp_y="0 : 1000 : 0"
       inkscape:vp_z="744.09448 : 526.18109 : 1"
       inkscape:persp3d-origin="372.04724 : 350.78739 : 1"
       id="perspective2464" />
    <inkscape:perspective
       id="perspective9"
       inkscape:persp3d-origin="372.04724 : 350.78739 : 1"
       inkscape:vp_z="744.09448 : 526.18109 : 1"
       inkscape:vp_y="0 : 1000 : 0"
       inkscape:vp_x="0 : 526.18109 : 1"
       sodipodi:type="inkscape:persp3d" />
  </defs>
  <sodipodi:namedview
     pagecolor="#ffffff"
     bordercolor="#666666"
     borderopacity="1"
     objecttolerance="10"
     gridtolerance="10"
     guidetolerance="10"
     inkscape:pageopacity="0"
     inkscape:pageshadow="2"
     inkscape:window-width="1366"
     inkscape:window-height="706"
     id="namedview14"
     showgrid="false"
     inkscape:zoom="0.13776465"
     inkscape:cx="1304.1664"
     inkscape:cy="691.59597"
     inkscape:window-x="-8"
     inkscape:window-y="-8"
     inkscape:window-maximized="1"
     inkscape:current-layer="svg2" />
  <rect
     style="fill:#cc0000;fill-opacity:1;fill-rule:evenodd;stroke:#000000;stroke-width:1.48099995000000000;stroke-linecap:round;stroke-linejoin:round;stroke-miterlimit:4;stroke-opacity:1;stroke-dasharray:none;stroke-dashoffset:0"
     id="rect3095"
     width="2881.3057"
     height="1476.3715"
     x="-39.687405"
     y="-28.746597" />
  <g
     transform="matrix(2.2704038,0,0,2.1259672,1910.8837,219.14062)"
     id="g2424"
     style="fill:#ffe600;fill-opacity:1">
    <path
       inkscape:connector-curvature="0"
       style="fill:#ffe600;fill-opacity:1;fill-rule:evenodd;stroke:none"
       d="m -222.31255,481.52821 c -0.78631,-1.6023 -1.782,-4.88714 -2.21264,-7.29964 -2.1919,-12.27907 -2.18511,-13.89363 0.069,-16.38439 1.46692,-1.62093 1.81376,-2.89829 1.00628,-3.70577 -0.80749,-0.80745 -2.21894,0.10236 -4.09475,2.63953 -2.2712,3.07189 -2.77425,5.14504 -2.43524,10.03535 0.4083,5.88982 0.2847,6.16357 -2.78282,6.16281 -3.30784,-7.9e-4 -8.69573,4.03189 -8.69573,6.50851 0,0.76923 -1.14441,0.363 -2.54314,-0.90283 -2.25312,-2.03902 -2.50189,-3.57429 -2.18148,-13.46291 0.28772,-8.88 0.80755,-11.48745 2.54313,-12.75655 2.63725,-1.92838 2.85979,-4.45193 0.39258,-4.45193 -2.52112,0 -6.98381,6.04872 -6.98381,9.46586 0,5.37528 -1.20587,6.77316 -5.16036,5.98226 -2.59343,-0.51868 -4.43322,-0.0548 -6.22939,1.57073 -2.18403,1.97652 -2.71472,2.0448 -3.70654,0.47678 -2.13589,-3.37684 -1.22391,-7.63448 2.41473,-11.27312 1.98586,-1.98583 3.96648,-5.02833 4.40135,-6.76104 0.43488,-1.73274 1.48891,-3.73049 2.34227,-4.43949 0.85336,-0.70899 2.96147,-2.39805 4.68469,-3.75345 3.10259,-2.44032 3.10606,-2.46477 0.35692,-2.50605 -1.5269,-0.0229 -4.6585,1.61098 -6.9591,3.63094 -3.99868,3.51092 -4.24836,3.56783 -5.66919,1.29271 -0.81746,-1.30894 -3.19408,-2.82245 -5.28139,-3.36332 -3.64823,-0.94539 -3.71876,-1.09238 -1.82282,-3.79922 1.16268,-1.66003 3.2766,-2.8158 5.14994,-2.8158 1.74775,0 4.61162,-1.12792 6.36419,-2.50649 3.99855,-3.14529 11.02476,-3.23957 16.00755,-0.21481 8.29912,5.03789 25.69362,6.85896 33.56461,3.51393 4.70632,-2.0001 13.84275,-10.58793 23.50942,-22.09782 3.76287,-4.48036 7.12513,-8.42809 7.4717,-8.77273 1.44342,-1.43534 7.51596,-10.85599 7.51596,-11.65989 0,-0.47993 -2.50584,-0.87258 -5.56855,-0.87258 -4.01262,0 -6.02611,0.65291 -7.20617,2.33671 -1.68567,2.40524 -10.59008,7.68927 -12.95767,7.68927 -0.8549,0 -1.14722,-2.88941 -0.81698,-8.0758 0.49029,-7.69946 0.31028,-8.32725 -3.86254,-13.4724 -6.11781,-7.54334 -9.42692,-14.60426 -11.47314,-24.48115 -2.77324,-13.38624 -3.44976,-26.26038 -2.09238,-39.81805 l 1.25475,-12.53247 -6.5234,-6.64861 c -3.58787,-3.65673 -9.62518,-9.01294 -13.41626,-11.90268 -3.79107,-2.88973 -7.17483,-5.53747 -7.51948,-5.88385 -2.80424,-2.81842 -17.83568,-9.75163 -28.58535,-13.18492 -6.69475,-2.13823 -12.53846,-3.08335 -19.13288,-3.09446 -8.31527,-0.014 -9.83257,0.34418 -12.21916,2.88458 -4.9841,5.30531 -2.37806,14.76744 4.54718,16.51023 l 3.38047,0.85073 -3.46643,2.98537 c -5.18607,4.46647 -12.83594,6.17096 -19.71863,4.39358 -3.10179,-0.80101 -6.89223,-1.77082 -8.42321,-2.15514 -2.03876,-0.51178 -3.59499,0.2607 -5.81577,2.88683 -1.66769,1.97208 -4.50378,5.16555 -6.30243,7.09661 -1.79864,1.93106 -3.27028,3.67762 -3.27028,3.88129 0,0.20368 1.12792,1.6708 2.50649,3.26031 2.66407,3.07169 3.33612,8.11206 1.25325,9.39935 -0.68929,0.426 -1.25325,3.15361 -1.25325,6.06134 0,5.03854 -2.67137,10.85749 -4.98447,10.85749 -0.59542,0 -1.45421,-1.69188 -1.90838,-3.75974 -0.70905,-3.22826 -1.39632,-3.75974 -4.86192,-3.75974 -2.21987,0 -4.7015,-0.66536 -5.5147,-1.47857 -2.00664,-2.00665 -7.44188,0.9193 -9.65394,5.19695 -3.53775,6.84126 -8.79127,9.43071 -13.82984,6.81667 -3.12423,-1.62087 -3.88104,-1.5552 -7.64036,0.66285 -2.29495,1.35404 -4.45838,1.99955 -4.80764,1.43445 -0.34925,-0.56513 -0.27806,-5.65642 0.15824,-11.31404 0.69437,-9.00432 1.15969,-10.5087 3.73305,-12.06866 1.61689,-0.98017 4.36771,-2.65284 6.11289,-3.71704 1.74518,-1.06424 2.87952,-2.40987 2.52077,-2.99035 -0.91554,-1.48134 -9.44127,1.64967 -12.91334,4.74234 -2.79031,2.48538 -6.5662,2.45836 -6.5662,-0.047 0,-0.66823 -2.35454,-1.04499 -5.23232,-0.83721 -2.87775,0.20779 -5.41336,-0.17207 -5.63463,-0.84409 -0.63516,-1.92906 4.37558,-9.368 6.31012,-9.368 0.96044,0 2.41582,-1.61649 3.23419,-3.59219 2.09034,-5.04658 5.88909,-6.7891 11.34034,-5.20197 5.2703,1.53444 7.52775,1.61638 7.52775,0.2732 0,-1.39312 -7.62479,-4.01151 -11.68151,-4.01151 -2.27097,0 -3.35745,-0.66253 -3.35745,-2.04736 0,-2.05082 -5.93021,-7.9742 -7.98624,-7.97708 -2.63247,-0.004 2.27503,-3.67684 5.87966,-4.4008 2.19255,-0.44033 5.80724,-1.62525 8.03266,-2.63311 3.56361,-1.61391 4.47974,-1.60829 7.68092,0.0471 1.99911,1.03375 3.92511,2.63633 4.28004,3.56126 0.35493,0.92493 2.93173,2.43626 5.72625,3.35853 7.5564,2.49383 10.47397,0.68658 26.59146,-16.4716 l 14.20532,-15.12254 -3.06706,-2.27768 c -1.68686,-1.25269 -4.05397,-3.15265 -5.26022,-4.22212 -1.20625,-1.06945 -2.61615,-1.94701 -3.13311,-1.9501 -1.44461,-0.009 -16.60552,-13.82557 -16.60552,-15.13345 0,-0.6342 0.88651,-1.15313 1.97001,-1.15313 2.5788,0 12.23673,-5.55269 19.33518,-11.11647 5.97552,-4.68364 9.93057,-8.75043 15.03896,-15.46392 5.89866,-7.75203 21.92825,-23.09761 28.82468,-27.59465 12.01529,-7.83496 16.50279,-9.45532 33.83766,-12.21826 16.45075,-2.62203 23.81169,-4.66257 23.81169,-6.60095 0,-0.52102 0.76924,-0.94731 1.70943,-0.94731 2.49109,0 8.0045,-8.64145 8.99543,-14.09903 0.8505,-4.68412 0.83937,-4.69926 -3.35922,-4.57475 -7.64599,0.22676 -10.20967,1.62827 -13.15027,7.189 l -2.83413,5.35945 -5.04473,-5.19822 c -5.98649,-6.16871 -7.65129,-12.22349 -4.6291,-16.83594 1.11121,-1.69591 2.05856,-4.09027 2.1052,-5.32077 0.0697,-1.83848 0.32543,-1.73868 1.43461,0.55976 1.61544,3.34758 7.73683,4.80292 12.53261,2.97955 3.89484,-1.48082 7.26546,-7.21568 7.22564,-12.29389 -0.0457,-5.832895 -4.46851,-14.026405 -8.37479,-15.515005 -7.04155,-2.68342 -15.37187,1.3605 -15.45162,7.50091 -0.0315,2.42533 -1.30604,0.73452 -5.01298,-6.65015 -6.83661,-13.619313 -6.68231,-15.324363 1.50517,-16.633583 9.51649,-1.5217 9.44968,-4.16864 -0.10526,-4.16864 -5.45269,0 -7.62391,-0.46789 -7.62391,-1.64294 0,-2.04645 8.0827,-4.00441 24.43831,-5.91999 6.89286,-0.80729 13.74827,-2.04058 15.23425,-2.74066 1.60174,-0.75458 9.51099,-1.05311 19.42533,-0.73317 13.83225,0.44635 17.74261,1.01455 22.61801,3.28642 10.33492,4.81593 19.83275,18.468453 25.44464,36.575023 4.71344,15.207795 6.39537,20.349685 7.5447,23.065245 0.92684,2.18996 0.58546,2.31877 -4.14241,1.56274 l -5.15254,-0.82391 2.49468,5.63961 c 2.8849,6.52179 3.51514,26.61062 1.06754,34.02695 -0.78491,2.37834 -1.23353,7.11751 -0.99691,10.53149 0.23663,3.41396 0.22967,6.20687 -0.0155,6.20644 -0.24514,-4.1e-4 -2.17345,-1.45457 -4.28512,-3.23141 l -3.83939,-3.23065 -2.10341,7.93032 c -3.09393,11.66483 -6.58293,17.35275 -18.3781,29.96079 -9.19826,9.83218 -10.38471,11.59993 -8.94835,13.33285 0.91075,1.09879 5.03968,5.45702 9.1754,9.68492 4.13571,4.22791 18.23474,18.90539 31.33117,32.61664 39.63092,41.49139 46.23209,47.93329 51.27967,50.04229 20.892885,8.72961 41.739985,-12.53459 32.582595,-33.23453 -2.27984,-5.15341 -9.52098,-9.87849 -15.13879,-9.87849 -7.459991,0 -13.823755,8.12996 -12.381501,15.81783 1.00912,5.37891 -0.26337,5.33878 -5.609424,-0.17694 -3.87123,-3.99409 -4.27948,-5.11268 -4.3189,-11.83331 -0.0396,-6.7543 0.33571,-7.81378 4.17042,-11.77286 2.31765,-2.39285 3.85664,-4.92873 3.41993,-5.63533 -0.49186,-0.79581 -7.34192,-1.19472 -17.99965,-1.04823 l -17.20565,0.2365 -6.72711,-4.15225 c -13.30875,-8.21475 -19.10544,-19.15296 -19.15279,-36.14083 -0.0252,-9.04396 0.45325,-11.48215 3.35282,-17.08594 4.08071,-7.88647 6.77763,-11.12268 8.42215,-10.10631 0.67411,0.41662 2.54853,3.74873 4.16535,7.40466 2.76612,6.25475 2.82382,6.8794 0.97696,10.58153 -1.39527,2.79695 -1.81355,6.35417 -1.44673,12.30442 0.45656,7.40569 1.01374,8.93 4.83606,13.23005 6.51246,7.32646 10.15184,8.41117 25.25191,7.52629 l 12.90579,-0.75631 4.07305,3.69617 c 2.240184,2.03286 4.073064,4.35078 4.073064,5.1509 0,0.80012 0.56396,1.45477 1.25324,1.45477 2.23893,0 1.33291,-3.85212 -2.60726,-11.08521 -5.155894,-9.46477 -9.609144,-13.88388 -22.382974,-22.21128 -16.9963,-11.08005 -25.26728,-23.84077 -27.20815,-41.9775 -2.04061,-19.06855 9.54494,-40.26913 27.19576,-49.76608 4.95326,-2.6651 10.15917,-4.16857 18.08678,-5.22354 13.514965,-1.7985 17.238115,-4.08582 19.437605,-11.94164 0.87432,-3.12281 2.28629,-5.67787 3.13769,-5.67787 2.60661,0 7.82781,4.80298 8.61029,7.92065 0.60131,2.39575 2.09345,3.24969 7.97363,4.56322 6.831951,1.52614 12.888671,5.27238 16.250241,10.05119 3.15273,4.48195 -9.49143,15.06234 -18.000401,15.06234 -2.0409,0 -3.72631,1.19871 -5.13397,3.65141 -2.40758,4.195 -8.3991,8.15229 -10.89361,7.19506 -0.93327,-0.35812 -2.06122,-2.3103 -2.50662,-4.33817 -0.44539,-2.02786 -2.23654,-5.02677 -3.98034,-6.66423 -2.73418,-2.56746 -4.336431,-2.95733 -11.642561,-2.8329 -6.792384,0.11566 -9.625374,0.82019 -14.289394,3.5535 -14.33203,8.39913 -21.80009,27.08429 -16.03447,40.11845 1.46111,3.30309 2.65658,6.55748 2.65658,7.23197 0,3.39584 10.99278,13.19569 20.06386,17.88652 6.389644,3.30422 17.737465,15.6891 21.919915,23.92315 2.06786,4.07104 3.90918,7.6453 4.09183,7.94283 0.18268,0.29753 2.15651,-1.2049 4.38636,-3.33872 3.9696,-3.79861 7.54981,-4.74259 16.22272,-4.27729 2.875851,0.15428 9.772501,5.58778 9.759381,7.68886 -0.0022,0.35169 -2.60331,0.65625 -5.78026,0.67679 -13.763171,0.089 -16.047041,15.45597 -4.048761,27.24198 1.23983,1.2179 3.465191,6.20105 4.945191,11.07364 6.90706,22.73991 -1.58622,44.4225 -21.132701,53.9501 -7.39702,3.60558 -9.6866,4.11578 -18.469731,4.11578 -8.742794,10e-6 -11.084414,-0.51625 -18.295904,-4.03364 -7.56571,-3.69019 -21.99224,-16.35193 -25.23685,-22.14971 -1.75251,-3.13157 -3.84256,-2.2871 -9.94819,4.01936 -14.01079,14.47164 -19.07621,30.34041 -14.1457,44.31493 2.45593,6.96084 7.35028,12.07002 13.25814,13.84006 6.30459,1.88889 10.73992,0.51214 13.62296,-4.22864 2.20416,-3.62449 2.49999,-3.75758 3.40756,-1.53292 0.54664,1.33987 0.92541,6.48335 0.84178,11.42997 -0.16393,9.69794 -3.9116,19.68448 -11.73984,31.28374 -2.07558,3.07536 -3.7737,5.88509 -3.7737,6.24384 0,0.35875 -2.22249,3.29127 -4.93885,6.51671 -3.95066,4.69112 -5.18829,7.41797 -6.1856,13.62897 -0.68571,4.27052 -1.87397,8.93649 -2.64056,10.36888 -1.28701,2.40483 -1.54996,2.4482 -3.43186,0.56631 -1.45046,-1.45048 -3.33009,-1.83618 -6.51961,-1.33784 -5.54583,0.86646 -11.6188,7.37213 -15.95316,17.08978 -5.35563,12.00742 -11.16127,16.30485 -22.02717,16.30485 -5.35888,0 -7.04263,0.51907 -8.52166,2.62704 -1.01377,1.44487 -2.43037,3.46079 -3.14799,4.47982 -1.09831,1.55957 -1.531,1.39178 -2.73441,-1.06048 l 1e-5,10e-6 z m 40.91276,-397.847085 c 1.43202,-1.82053 2.60158,-5.06687 2.59899,-7.2141 -0.009,-7.253253 -8.26391,-16.815313 -11.61985,-13.459363 -0.93713,0.93714 -0.34266,2.31628 2.01442,4.67337 4.30435,4.30433 4.64249,12.110843 0.70609,16.300943 -3.11038,3.31085 -2.19699,6.16338 1.36342,4.25792 1.28326,-0.6868 3.50489,-2.73824 4.93693,-4.55877 z m -37.42973,-15.209633 c 9.94757,-3.10673 9.64522,-4.61762 -1.01042,-5.04945 l -9.08604,-0.36822 0,3.81465 c 0,4.44272 0.66551,4.54838 10.09647,1.603 l -1e-5,2e-5 z"
       id="path2384" />
    <path
       inkscape:connector-curvature="0"
       style="fill:#ffe600;fill-opacity:1;fill-rule:evenodd;stroke:none"
       d="m -332.97667,410.85757 c -0.81189,-2.13549 -0.78667,-4.02935 0.0751,-5.63962 0.86098,-1.60875 0.88268,-3.19959 0.0645,-4.72832 -1.40084,-2.61752 -0.55912,-7.01099 2.14719,-11.20764 1.01398,-1.57238 1.51945,-3.18311 1.12321,-3.57935 -1.18066,-1.18069 -6.97211,5.3387 -7.85009,8.83683 -0.92753,3.69564 -2.06525,4.05566 -4.30147,1.36118 -1.99183,-2.40002 -4.33752,-2.38023 -8.07414,0.0681 -1.78491,1.16949 -3.27335,1.46195 -3.72462,0.73179 -1.01146,-1.63654 1.03621,-6.77453 3.5221,-8.83764 1.10575,-0.91767 2.01043,-2.75539 2.01043,-4.08378 0,-3.76298 3.46748,-9.54862 6.25248,-10.43255 2.65383,-0.84229 3.49295,-3.13748 1.14705,-3.13748 -2.52347,0 -8.64729,4.27463 -9.36546,6.5374 -1.02431,3.22726 -3.90022,2.74674 -4.7905,-0.80041 -0.51388,-2.04747 -2.19007,-3.50707 -5.14885,-4.48355 -2.41283,-0.7963 -4.38308,-1.82706 -4.37837,-2.29056 0.0123,-1.21298 8.00489,-6.48236 9.8324,-6.48236 0.84688,0 3.22617,-1.24682 5.28733,-2.7707 3.71652,-2.74774 3.78368,-2.75127 8.10286,-0.42524 2.39539,1.29002 4.76643,1.93429 5.26899,1.43175 1.59,-1.59 -5.14428,-5.69839 -9.38813,-5.72742 -4.30655,-0.0295 -5.04776,-1.05835 -2.55686,-3.54925 1.1861,-1.1861 1.03424,-2.33208 -0.69747,-5.26364 l -2.21367,-3.74745 4.8332,0 c 2.65825,0 5.47794,0.64476 6.26598,1.4328 0.78805,0.78803 3.19607,1.57151 5.35116,1.74105 2.9605,0.23289 5.70575,2.18081 11.23016,7.96853 4.43832,4.64987 9.9447,8.88599 14.0115,10.77918 6.14615,2.86119 8.1753,3.11991 24.55847,3.13113 11.55603,0.008 17.85877,-0.44854 17.85877,-1.2934 0,-0.71811 -1.1898,-2.55098 -2.644,-4.07305 -9.89862,-10.36063 -16.71927,-23.13716 -18.05382,-33.81867 -0.49292,-3.94501 -1.45092,-7.17276 -2.12893,-7.17276 -3.31486,0 -10.23861,-4.60049 -12.96731,-8.61614 -1.68112,-2.47398 -3.05659,-4.85913 -3.05659,-5.30033 0,-0.44116 2.30759,-1.17114 5.128,-1.62214 7.69242,-1.23007 13.9353,-4.92855 19.23389,-11.39478 2.61636,-3.19295 7.08767,-7.31576 9.93621,-9.16185 4.43872,-2.87661 6.52298,-3.35832 14.57852,-3.36926 7.75354,-0.0105 10.09156,0.48097 13.35256,2.80703 2.17427,1.55089 4.68388,2.81981 5.57694,2.81981 1.26291,0 1.28955,0.3342 0.11985,1.50389 -3.27254,3.27252 -1.50863,6.88265 7.26883,14.87701 8.74371,7.96362 8.77273,8.01192 8.77273,14.60327 0,7.06109 -1.15164,8.03223 -5.56583,4.69351 -5.38672,-4.07431 -15.576,-0.76613 -18.36285,5.9619 -2.45101,5.91728 -0.69771,17.26352 4.04181,26.15574 4.05508,7.60807 15.48391,20.45272 22.89776,25.73431 4.46071,3.17779 3.75158,4.5481 -4.52351,8.74141 -4.91953,2.49294 -10.18789,3.64847 -23.40968,5.13466 -18.31545,2.05871 -22.343,3.0724 -26.09482,6.56775 -5.04231,4.69762 -10.39197,6.43458 -10.39197,3.37413 0,-0.94097 -1.16885,-3.19682 -2.59745,-5.01299 -3.93707,-5.00514 -9.47823,-4.49065 -16.33812,1.51695 -7.97466,6.98386 -10.57873,8.08251 -16.90805,7.13336 -4.79725,-0.71937 -5.87814,-0.42253 -8.68637,2.3857 -3.95885,3.95885 -4.12302,3.95864 -5.63107,-0.008 l -2e-5,10e-6 z"
       id="path2386" />
    <path
       inkscape:connector-curvature="0"
       style="fill:#ffe600;fill-opacity:1;fill-rule:evenodd;stroke:none"
       d="m -356.82465,188.9862 -13.07591,-13.28782 -4.47735,5.19859 -4.47735,5.19856 -9.84224,-0.37015 c -10.39884,-0.39111 -12.84351,-1.91655 -7.58319,-4.73178 2.78198,-1.48885 3.05466,-2.2432 2.36655,-6.5464 -0.64004,-4.00269 -0.26552,-5.40883 2.11589,-7.94372 l 2.89361,-3.0801 -2.84248,-3.02565 c -1.56334,-1.66413 -5.32739,-4.59639 -8.36455,-6.51616 -5.52778,-3.49405 -6.0551,-4.65323 -5.54799,-12.19544 0.14903,-2.21651 -0.81792,-4.69096 -2.55614,-6.5412 l -2.79583,-2.97603 3.59333,-1.36619 c 2.60519,-0.99048 4.43098,-0.98453 6.63933,0.0217 2.12343,0.96752 3.44373,0.99009 4.35923,0.0746 2.2867,-2.28673 6.62261,-1.42701 10.0404,1.99077 1.8172,1.81722 3.30401,3.83136 3.30401,4.47588 0,1.78966 3.76761,5.16246 4.71191,4.21815 0.45803,-0.45806 0.14921,-1.92744 -0.68629,-3.26531 -0.83553,-1.33785 -1.51913,-3.23596 -1.51913,-4.21796 0,-0.982 -1.55089,-3.10451 -3.44643,-4.71668 -2.61944,-2.22788 -3.48341,-4.13409 -3.60055,-7.9442 -0.0847,-2.75714 -0.36674,-6.14063 -0.62662,-7.51888 -0.80058,-4.2459 4.56739,-3.92624 9.03142,0.53778 2.11638,2.11639 4.87004,3.84799 6.11923,3.84799 4.18502,0 7.92623,4.31393 8.70426,10.03675 1.01662,7.47757 3.87064,8.19351 3.87064,0.97092 0,-3.02136 -0.62036,-6.11375 -1.37857,-6.87196 -1.00259,-1.00259 -0.6608,-2.09634 1.25325,-4.01039 1.44751,-1.44751 2.63181,-4.04172 2.63181,-5.76494 0,-2.26714 0.67314,-3.13311 2.43544,-3.13311 2.89991,0 6.33729,4.4865 6.33729,8.2715 0,1.48544 0.84594,3.40288 1.87987,4.26097 2.3575,1.95654 2.3575,8.40847 0,12.53246 -0.98507,1.72322 -1.81104,5.70152 -1.83545,8.84068 -0.057,7.3303 3.92048,13.63223 16.74582,26.53175 l 9.62521,9.68085 -1.89292,3.6605 c -2.10229,4.06538 -16.18498,18.96155 -17.92605,18.96155 -0.60915,0 -6.99168,-5.97953 -14.18345,-13.28784 l -1e-5,1e-5 z"
       id="path2388" />
    <path
       inkscape:connector-curvature="0"
       style="fill:#ffe600;fill-opacity:1;fill-rule:evenodd;stroke:none"
       d="m -314.14676,122.53387 c -16.59111,-7.41976 -15.78582,-31.135315 1.14826,-33.816095 5.10052,-0.80745 5.46079,-0.68898 4.59307,1.5105 -3.73591,9.46963 -0.80578,18.707165 6.36032,20.051535 5.52354,1.03624 15.22185,-0.24372 21.34983,-2.81766 12.35226,-5.18833 44.24982,-10.152755 44.24982,-6.88687 0,0.88663 -2.3481,1.43901 -6.11702,1.43901 -6.31078,0 -21.72899,5.02292 -25.31283,8.24637 -1.08821,0.97878 -2.46175,1.7796 -3.05234,1.7796 -0.5906,0 -2.23807,1.06693 -3.66106,2.37096 -1.423,1.30402 -5.68906,3.98048 -9.48013,5.94769 -8.43273,4.37583 -22.82893,5.41679 -30.07792,2.17495 l 0,10e-6 z"
       id="path2390" />
    <path
       inkscape:connector-curvature="0"
       style="fill:#ffe600;fill-opacity:1;fill-rule:evenodd;stroke:none"
       d="m -81.042855,206.13534 c 0,-4.42425 -4.27329,-10.04768 -9.111411,-11.99018 -2.75081,-1.10448 -8.6464,-1.89711 -14.110434,-1.89711 -8.644,0 -9.68545,-0.28675 -13.18407,-3.63021 -2.08927,-1.99663 -4.3006,-5.38038 -4.91409,-7.51948 l -1.11545,-3.88927 14.54925,0 c 8.00202,0 16.371644,-0.65902 18.599144,-1.46449 4.318161,-1.56148 9.287061,-8.74794 9.287061,-13.43179 0,-3.2777 0.55003,-3.28822 5.69415,-0.10898 2.26057,1.39712 4.69462,4.21693 5.40902,6.26623 0.90637,2.6001 2.12676,3.72605 4.0385,3.72605 5.87279,0 12.548041,3.06948 16.896851,7.76972 4.38632,4.74071 4.45718,4.97142 2.463,8.01493 -2.7991,4.27196 -8.64362,7.62353 -14.940671,8.56782 -4.29037,0.64337 -5.65693,1.55137 -7.50793,4.98845 -3.36544,6.24923 -12.05292,9.56359 -12.05292,4.5983 l 0,1e-5 z"
       id="path2392" />
    <path
       inkscape:connector-curvature="0"
       style="fill:#ffe600;fill-opacity:1;fill-rule:evenodd;stroke:none"
       d="m -263.83786,35.10883 c 10e-6,-9.453228 -2.53191,-26.7013371 -4.85432,-33.0689081 -1.07405,-2.94484196 -1.64182,-5.665239 -1.26171,-6.045337 1.00506,-1.005078 8.13244,2.920191 9.39326,5.173152 0.59089,1.055861 2.98216,2.888747 5.31395,4.073077 4.66466,2.369238 6.40324,5.2864581 3.15055,5.2864581 -3.03781,0 -5.96784,3.437531 -5.96784,7.001526 0,6.308155 7.9025,10.603784 11.51026,6.25671 1.27102,-1.531518 1.97844,-1.493457 5.05424,0.271816 3.06256,1.757666 4.02568,1.812082 6.70402,0.378681 5.80919,-3.108979 5.11796,-11.852719 -1.05956,-13.403173 -1.70331,-0.427508 -3.09694,-1.2801041 -3.09694,-1.8946711 0,-1.520552 4.71198,-6.130369 6.26623,-6.130369 0.68929,0 1.25325,-1.311598 1.25325,-2.91466396 0,-2.90152904 4.63236,-8.36455704 7.0927,-8.36455704 1.96766,0 5.14857,4.00193 6.04863,7.60977704 0.44227,1.77286796 2.46009,4.20158496 4.484,5.39714496 4.49213,2.653562 4.57951,3.660796 0.54675,6.3031541 -3.86501,2.532448 -4.32237,9.303114 -0.84126,12.453475 2.81597,2.548415 5.2533,2.627783 8.43451,0.274624 2.11901,-1.567423 2.80372,-1.558876 5.30965,0.06632 3.6793,2.38617 7.33865,1.211577 9.51841,-3.055328 2.17377,-4.255186 0.77439,-8.254948 -3.71027,-10.604698 l -3.35766,-1.7592701 3.796,-2.703003 c 2.08778,-1.486626 4.16831,-2.702977 4.62336,-2.702977 0.45506,0 2.25101,-1.691883 3.99099,-3.75973996 3.89164,-4.62492004 8.71284,-5.24082804 7.35758,-0.93993604 -2.6293,8.344055 -5.59903,26.5164331 -5.63216,34.4642861 l -0.0379,9.08604 -40.01436,0 -40.0144,0 0,-6.749612 z"
       id="path2394" />
  </g>
</svg>
