<?xml version="1.0" encoding="UTF-8"?>
<!DOCTYPE svg PUBLIC "-//W3C//DTD SVG 1.1//EN" "http://www.w3.org/Graphics/SVG/1.1/DTD/svg11.dtd">
<!-- Creator: CorelDRAW X8 -->
<svg xmlns="http://www.w3.org/2000/svg" xml:space="preserve" width="105.607mm" height="100.25mm" version="1.1" style="shape-rendering:geometricPrecision; text-rendering:geometricPrecision; image-rendering:optimizeQuality; fill-rule:evenodd; clip-rule:evenodd"
viewBox="0 0 10561 10025"
 xmlns:xlink="http://www.w3.org/1999/xlink">
 <defs>
  <style type="text/css">
   <![CDATA[
    .fil0 {fill:#231F20}
    .fil2 {fill:#E91B28}
    .fil1 {fill:#F29706}
    .fil4 {fill:#1F1E1E;fill-rule:nonzero}
    .fil3 {fill:#231F20;fill-rule:nonzero}
   ]]>
  </style>
 </defs>
 <g id="Layer_x0020_1">
  <metadata id="CorelCorpID_0Corel-Layer"/>
  <g id="_3127445904576">
   <g>
    <path class="fil0" d="M8606 3003c55,-159 47,-176 41,2 -30,965 111,1718 343,2360 -33,-702 -181,-1173 59,-2419 29,-156 25,-159 26,0 7,581 67,1099 180,1553 32,-479 64,-985 299,-1371 78,-128 66,-109 61,19 -62,1620 139,3657 946,4127 -642,-787 -725,-2705 -418,-4400 36,-202 196,77 274,22 72,-829 -709,-2328 -1681,-2205 -204,26 -256,227 -600,232 -1001,14 -1855,-334 -2856,-910 -1000,576 -1854,924 -2855,910 -345,-5 -397,-206 -601,-232 -971,-123 -1753,1376 -1681,2205 78,55 239,-224 275,-22 307,1695 223,3613 -418,4400 806,-470 1007,-2507 945,-4127 -5,-128 -17,-147 61,-19 236,386 268,892 299,1371 114,-454 174,-972 180,-1553 2,-159 -3,-156 27,0 239,1246 91,1717 58,2419 232,-642 374,-1395 344,-2360 -6,-178 -14,-161 40,-2 50,145 138,526 283,713l3043 0 3044 0c145,-187 233,-568 282,-713z"/>
    <path class="fil1" d="M9233 4186c31,-376 91,-767 283,-1081 14,-23 28,-47 43,-70 16,-23 38,-47 70,-36 34,11 36,44 35,72 -1,26 -3,52 -4,78 -14,362 -14,726 0,1089 27,678 145,2167 691,2800 -214,-397 -318,-903 -369,-1319 -43,-351 -59,-706 -55,-1060 3,-376 28,-754 72,-1128 27,-223 60,-445 100,-665 8,-45 26,-96 75,-108 73,-19 156,72 202,96 21,-391 -140,-855 -322,-1189 -216,-394 -584,-838 -1051,-922 -86,-16 -174,-19 -261,-8 -39,5 -73,18 -107,37 -64,35 -120,83 -185,119 -99,53 -201,75 -313,76 -1062,15 -1953,-384 -2857,-903 -903,519 -1794,918 -2856,903 -112,-1 -214,-23 -313,-76 -66,-36 -122,-84 -186,-119 -34,-19 -68,-32 -106,-37 -88,-11 -175,-8 -262,8 -466,84 -835,528 -1050,922 -182,334 -343,797 -322,1188 19,-11 46,-31 54,-37 40,-29 94,-72 147,-58 49,12 68,63 76,108 40,220 73,442 99,665 44,374 70,752 73,1128 4,354 -12,709 -55,1060 -52,416 -155,922 -370,1319 547,-633 664,-2122 691,-2800 15,-363 14,-727 1,-1089 -1,-26 -3,-52 -4,-78 -1,-28 1,-61 34,-72 32,-11 55,13 70,36 16,23 30,47 44,70 191,314 251,705 283,1081 77,-408 108,-828 113,-1240 0,-30 0,-60 0,-89 1,-30 0,-70 43,-74 44,-3 50,37 55,66 6,29 11,59 17,88 74,383 126,771 134,1161 5,275 -15,540 -40,813 -3,30 -6,59 -8,88 186,-648 248,-1310 227,-1992 -1,-32 -3,-64 -4,-96 -1,-30 -3,-70 39,-78 42,-7 53,34 62,63 10,31 20,62 31,93 20,59 37,121 55,181 23,78 48,157 77,234 32,88 75,189 130,267l6042 0c56,-78 98,-179 131,-267 29,-77 53,-156 77,-234 18,-60 35,-122 55,-181 10,-31 20,-62 30,-93 10,-29 20,-70 63,-63 42,8 40,48 38,78 -1,32 -2,64 -3,96 -22,682 41,1344 227,1992 -3,-29 -5,-58 -8,-88 -25,-273 -45,-538 -40,-813 7,-390 60,-778 134,-1161 5,-29 11,-59 16,-88 6,-29 12,-69 56,-66 43,4 42,44 42,74 1,29 1,59 1,89 5,412 36,832 113,1240z"/>
   </g>
   <path class="fil0" d="M5280 951c-1139,177 -2279,354 -3419,530 362,1497 345,3723 0,4996 1039,922 2164,1654 3419,2137 1256,-483 2380,-1215 3420,-2137 -346,-1273 -363,-3499 0,-4996 -1140,-176 -2280,-353 -3420,-530z"/>
   <path class="fil2" d="M5280 1081c-1088,168 -2175,337 -3263,506 150,674 215,1396 233,2082 13,510 -1,1025 -47,1533 -38,409 -96,831 -198,1231 978,859 2060,1569 3275,2043l0 -7395z"/>
   <g>
    <path class="fil0" d="M5280 7932c676,-204 1340,-477 1975,-784l129 -63 -40 139c-48,163 -108,326 -172,484 48,58 108,106 170,148l89 61 -96 49c-660,334 -1340,638 -2032,897l-23 9 -22 -9c-693,-259 -1372,-563 -2032,-897l-97 -49 90 -61c61,-42 122,-90 169,-148 -63,-158 -123,-321 -171,-484l-41 -139 130 63c635,307 1299,580 1974,784z"/>
    <path class="fil1" d="M5280 8804c679,-255 1370,-564 2026,-895 -75,-51 -151,-113 -206,-191 61,-151 133,-345 182,-512 -641,310 -1329,591 -2002,793 -672,-202 -1360,-483 -2002,-793 50,167 122,361 183,512 -55,78 -131,140 -206,191 655,331 1347,640 2025,895z"/>
   </g>
   <g>
    <path class="fil0" d="M4545 3532c-63,-5 -105,-77 -287,-62 -161,13 -291,109 -362,144 -176,47 -273,-76 -307,-143 -14,-69 -16,-165 -2,-240 9,-50 40,-36 40,-175 0,-310 -618,-140 -774,143 -105,190 -113,438 -95,673 22,300 -59,538 -45,650 10,91 59,56 101,21 30,-24 74,-46 126,-38 57,649 -36,1489 -145,1803 133,-72 401,-1092 459,-1703 6,-68 58,-58 74,-13 76,216 57,495 24,705 143,-185 178,-444 228,-696 18,-90 92,-84 98,-11 36,413 -108,786 -215,1089 244,-242 395,-603 416,-1065 3,-68 48,-62 63,-2 25,103 21,343 8,475 109,-145 164,-292 165,-517 1,-43 14,-75 36,-82 23,-8 55,10 69,67 26,110 31,202 18,309 50,-70 69,-183 92,-283 10,-45 37,6 41,22 21,68 25,136 19,204 45,-57 74,-125 82,-209 16,32 26,59 28,81 20,230 290,398 290,487 0,132 -165,144 -200,386 -6,43 81,212 29,255 -50,40 -94,82 -100,124 -10,68 360,-69 346,121 4,78 -237,343 -291,379 -125,20 -217,-60 -309,-60 -130,0 -139,94 -228,132 -60,25 -99,53 -119,105 78,0 93,12 176,42 -68,59 -125,89 -87,164 104,-40 198,-24 284,-59 97,-39 180,-123 300,-144 65,-12 181,7 249,42 38,21 81,48 117,50 26,-43 25,-109 2,-160 -43,-36 -200,-3 -254,-36 -4,-71 191,-189 294,-316 81,-100 60,-238 76,-236 76,24 156,400 104,492 -45,81 -92,53 -111,89 29,64 150,169 23,242 -101,57 -300,88 -378,88 7,74 46,161 91,229 84,127 135,-52 184,-120 40,-55 129,-129 213,-136 0,19 0,55 -4,70 -15,51 -56,74 -93,103 -28,23 -60,56 7,61 101,8 79,22 45,73 -94,141 -23,344 124,455l0 -4141 0 -10 0 -321c-79,6 -89,-64 -79,-120 -46,-6 -58,-9 -80,-55 46,-83 34,-60 83,-104 -76,-33 -123,-15 -170,2 2,-76 49,-113 76,-149 -114,-30 -166,-1 -253,0 36,-57 131,-70 141,-145 -275,31 -337,-73 -564,-97 -143,-15 -235,45 -388,49 -107,2 -367,-94 -376,92 15,-1 30,-1 45,-2 -79,47 -248,-16 -346,-37 -52,-11 -40,14 -14,32 117,83 266,87 427,42 41,-5 58,-4 98,14 -13,39 -84,41 -136,60 135,191 608,-56 628,322 83,-16 138,-32 213,34 43,184 3,432 -40,465z"/>
    <path class="fil2" d="M6015 3532c64,-5 106,-77 288,-62 161,13 291,109 361,144 177,47 273,-76 307,-143 15,-69 17,-165 3,-240 -9,-50 -41,-36 -41,-175 0,-310 619,-140 775,143 104,190 113,438 95,673 -23,300 58,538 45,650 -10,91 -59,56 -102,21 -30,-24 -73,-46 -125,-38 -57,649 36,1489 144,1803 -132,-72 -400,-1092 -458,-1703 -7,-68 -58,-58 -74,-13 -76,216 -57,495 -24,705 -143,-185 -179,-444 -229,-696 -17,-90 -91,-84 -97,-11 -36,413 108,786 214,1089 -243,-242 -394,-603 -415,-1065 -3,-68 -49,-62 -63,-2 -25,103 -21,343 -9,475 -108,-145 -164,-292 -165,-517 0,-43 -13,-75 -35,-82 -23,-8 -55,10 -69,67 -26,110 -31,202 -18,309 -50,-70 -69,-183 -92,-283 -10,-45 -37,6 -42,22 -20,68 -25,136 -18,204 -45,-57 -74,-125 -82,-209 -17,32 -27,59 -29,81 -19,230 -290,398 -290,487 0,132 166,144 200,386 7,43 -81,212 -28,255 50,40 94,82 100,124 10,68 -360,-69 -346,121 -4,78 237,343 290,379 126,20 217,-60 310,-60 130,0 138,94 228,132 59,25 99,53 119,105 -79,0 -93,12 -176,42 68,59 125,89 87,164 -104,-40 -198,-24 -284,-59 -97,-39 -181,-123 -301,-144 -65,-12 -180,7 -248,42 -39,21 -81,48 -118,50 -25,-43 -24,-109 -2,-160 44,-36 201,-3 255,-36 4,-71 -191,-189 -294,-316 -81,-100 -60,-238 -76,-236 -76,24 -156,400 -105,492 46,81 93,53 112,89 -29,64 -150,169 -23,242 100,57 300,88 378,88 -7,74 -47,161 -91,229 -84,127 -135,-52 -184,-120 -40,-55 -129,-129 -213,-136 -1,19 -1,55 4,70 15,51 56,74 92,103 29,23 61,56 -6,61 -101,8 -79,22 -45,73 93,141 23,344 -125,455l0 -4141 0 -10 0 -321c80,6 90,-64 79,-120 47,-6 59,-9 81,-55 -46,-83 -34,-60 -83,-104 76,-33 123,-15 170,2 -2,-76 -50,-113 -76,-149 114,-30 166,-1 253,0 -36,-57 -131,-70 -141,-145 275,31 337,-73 564,-97 143,-15 235,45 388,49 107,2 366,-94 376,92 -15,-1 -30,-1 -46,-2 80,47 249,-16 347,-37 51,-11 40,14 14,32 -117,83 -267,87 -428,42 -41,-5 -58,-4 -97,14 13,39 83,41 136,60 -136,191 -608,-56 -629,322 -82,-16 -138,-32 -212,34 -44,184 -3,432 39,465z"/>
   </g>
   <path class="fil0" d="M3139 8969c1424,181 2858,181 4283,0l0 -272 1271 100 0 59c0,252 0,505 0,758l0 52 -51 10c-2236,449 -4487,449 -6723,0l-52 -10 0 -52c0,-253 0,-506 0,-758l0 -59 1272 -100 0 272z"/>
   <path class="fil1" d="M1931 8856l1144 -90 0 259c1470,192 2941,192 4411,0l0 -259 1143 90c0,291 0,467 0,758 -2232,447 -4465,447 -6698,0 0,-291 0,-467 0,-758z"/>
   <path class="fil3" d="M3081 9193l-23 154 -11 -2c-8,-44 -25,-79 -51,-105 -25,-26 -55,-42 -89,-47 -33,-5 -62,1 -86,16 -25,15 -44,38 -58,69 -14,32 -23,65 -28,99 -7,42 -7,79 -2,112 5,33 18,59 37,77 20,18 45,29 75,34 11,1 22,2 33,1 11,0 23,-2 35,-4l14 -91c3,-17 3,-29 1,-34 -1,-5 -5,-11 -12,-16 -7,-5 -15,-9 -26,-10l-11 -2 2 -11 212 32 -2 11c-16,-2 -28,-1 -35,1 -6,3 -12,8 -17,15 -2,4 -5,14 -7,30l-14 90c-30,9 -60,14 -91,15 -31,2 -63,1 -95,-4 -42,-6 -75,-17 -101,-33 -25,-15 -47,-33 -65,-55 -19,-21 -32,-44 -40,-69 -11,-32 -13,-66 -8,-103 10,-65 41,-117 94,-156 53,-38 115,-52 185,-41 21,3 41,7 58,13 9,4 23,11 43,22 20,11 32,17 36,17 6,1 12,0 18,-4 6,-3 12,-11 18,-22l11 1zm764 381l-32 152 -389 -38 1 -11 15 1c12,1 23,0 31,-4 6,-2 11,-7 15,-14 2,-5 5,-19 7,-41l29 -290c2,-22 2,-37 0,-42 -2,-6 -6,-12 -13,-17 -6,-5 -16,-8 -28,-9l-15 -1 1 -12 235 23 -2 12 -19 -2c-13,-2 -23,0 -31,4 -6,2 -11,7 -15,14 -3,5 -6,18 -8,41l-27 280c-3,23 -3,37 -1,44 2,6 7,11 14,15 5,2 18,5 39,7l36 3c23,3 43,0 59,-6 17,-7 31,-19 44,-35 13,-17 27,-42 40,-75l14 1zm776 48l-24 154 -391 -19 1 -11 15 0c12,1 23,-1 31,-5 6,-3 10,-8 13,-15 3,-5 5,-19 6,-41l14 -291c1,-23 1,-37 -1,-43 -3,-6 -7,-11 -14,-16 -7,-4 -17,-7 -29,-7l-15 -1 1 -11 235 11 -1 11 -19 -1c-13,0 -23,2 -31,6 -6,3 -11,8 -15,15 -2,5 -4,19 -5,41l-14 282c-1,22 0,37 2,43 2,6 7,11 15,14 5,3 18,4 39,5l36 2c24,1 43,-2 59,-9 16,-8 30,-20 42,-37 13,-18 25,-43 36,-77l14 0zm614 -278c70,-3 127,17 171,61 44,44 66,98 66,163 0,56 -16,106 -49,148 -43,56 -105,85 -184,85 -79,0 -141,-27 -184,-81 -35,-42 -52,-93 -52,-151 0,-65 22,-120 67,-164 44,-43 99,-64 165,-61zm3 20c-40,0 -71,21 -92,62 -17,34 -26,82 -26,146 0,75 14,131 40,167 19,25 45,37 78,37 23,0 41,-5 56,-16 19,-14 34,-36 45,-67 11,-30 16,-70 16,-119 0,-58 -6,-102 -17,-131 -10,-29 -24,-49 -41,-61 -17,-12 -37,-18 -59,-18zm1036 -52l8 155 -12 1c-16,-41 -40,-72 -70,-93 -30,-20 -62,-30 -97,-28 -33,2 -60,12 -81,32 -21,19 -35,46 -43,79 -7,34 -10,68 -8,103 2,42 9,79 20,110 12,32 29,54 52,68 23,14 49,20 80,19 11,-1 21,-3 32,-6 12,-2 23,-6 34,-11l-4 -91c-1,-18 -3,-29 -6,-34 -2,-5 -7,-10 -15,-14 -8,-3 -17,-5 -27,-5l-12 1 0 -11 214 -11 1 11c-17,2 -28,5 -34,9 -6,3 -11,9 -14,18 -2,4 -2,14 -2,30l5 92c-28,14 -56,24 -86,32 -30,8 -62,13 -95,15 -41,2 -76,-2 -105,-12 -28,-10 -53,-24 -75,-41 -22,-18 -39,-38 -52,-61 -17,-29 -26,-62 -28,-99 -4,-66 17,-123 61,-171 45,-48 102,-74 173,-77 22,-1 42,-1 59,2 10,1 26,5 48,12 21,7 34,11 38,10 6,0 12,-2 17,-7 5,-5 9,-13 13,-26l11 -1zm633 -44c70,-10 128,5 177,44 48,39 75,91 81,156 6,56 -6,107 -34,152 -38,61 -96,95 -175,102 -79,8 -143,-12 -191,-62 -39,-39 -61,-87 -67,-145 -6,-65 11,-122 51,-169 40,-48 93,-74 158,-78zm6 20c-41,4 -69,28 -86,71 -14,35 -18,84 -12,147 8,75 27,129 57,162 21,23 47,33 81,30 22,-2 40,-9 54,-22 18,-15 30,-39 38,-70 8,-32 9,-72 4,-120 -6,-58 -15,-101 -29,-129 -14,-28 -30,-47 -48,-57 -17,-10 -37,-14 -59,-12zm1009 -155l23 152 -13 1c-15,-38 -37,-66 -66,-83 -29,-18 -59,-24 -92,-19 -27,4 -51,16 -71,35 -21,19 -34,42 -41,69 -8,34 -10,72 -4,111 6,39 16,74 31,105 15,31 34,53 57,66 23,13 52,18 85,13 28,-5 52,-14 73,-30 21,-15 42,-39 63,-73l5 38c-20,29 -43,52 -68,67 -24,15 -54,26 -90,31 -46,7 -89,4 -128,-9 -39,-14 -71,-36 -96,-68 -24,-33 -40,-68 -46,-108 -6,-42 -1,-83 15,-123 16,-41 41,-74 75,-100 34,-27 72,-43 114,-49 30,-4 63,-3 100,6 20,4 34,6 39,6 7,-1 12,-5 17,-11 4,-5 6,-14 6,-25l12 -2z"/>
   <path class="fil4" d="M6847 7983l-36 -313 -68 32c-27,12 -45,25 -55,38 -8,9 -11,22 -11,38l-9 4 -23 -112 195 -91 45 387 -38 17zm-254 -78c-7,-18 -13,-35 -19,-49 -13,-29 -29,-55 -47,-78 -10,-12 -21,-20 -31,-23 -6,-2 -12,-2 -18,1 -8,4 -13,10 -15,19 -1,13 4,32 16,59 20,45 39,74 57,86 12,8 24,10 36,4 6,-3 13,-9 21,-19zm-68 223l-3 -7c24,-18 43,-37 56,-58 14,-20 22,-42 25,-64 3,-23 1,-47 -4,-72 -8,10 -15,17 -21,22 -7,5 -14,10 -21,13 -25,11 -50,12 -75,1 -25,-11 -44,-32 -58,-63 -9,-22 -14,-43 -13,-66 1,-22 8,-41 20,-59 12,-17 27,-30 45,-38 19,-8 40,-11 62,-8 22,4 43,14 63,30 19,17 35,38 47,65 15,35 22,72 20,111 -3,39 -16,76 -40,110 -25,34 -59,61 -103,83zm-180 -113c-7,-19 -13,-36 -19,-50 -13,-29 -28,-56 -46,-78 -10,-13 -20,-21 -31,-24 -6,-2 -12,-1 -18,1 -8,4 -13,10 -14,19 -3,12 2,32 14,59 20,46 38,74 57,87 11,8 23,9 35,4 7,-2 14,-9 22,-18zm-71 221l-3 -7c25,-17 44,-37 57,-57 14,-20 22,-41 26,-64 3,-23 2,-46 -4,-72 -8,10 -15,17 -21,22 -6,5 -13,10 -21,13 -25,11 -50,11 -75,0 -24,-11 -43,-32 -57,-63 -9,-22 -14,-44 -12,-66 1,-22 8,-42 20,-59 12,-17 28,-30 46,-38 19,-8 40,-11 62,-7 22,4 43,14 62,31 19,16 35,38 46,65 16,35 22,72 19,111 -3,39 -17,76 -41,109 -25,34 -59,61 -104,82zm-248 -304l114 273c8,21 15,33 19,38 4,5 10,8 17,10 8,1 18,-1 30,-6l8 -4 3 9 -175 73 -4 -8 9 -4c14,-6 24,-12 28,-18 5,-5 7,-12 7,-18 0,-7 -5,-21 -14,-42l-72 -173c-7,-16 -12,-25 -15,-29 -3,-3 -7,-5 -12,-6 -5,-1 -10,0 -16,2 -8,3 -17,10 -27,20l-8 -6 99 -108 9 -3zm-301 463c12,5 20,13 25,24 5,11 5,23 1,34 -5,12 -13,20 -24,25 -11,4 -22,5 -34,0 -11,-4 -20,-12 -25,-23 -4,-12 -5,-23 0,-34 4,-12 12,-20 23,-25 12,-5 23,-5 34,-1zm-520 -234l-3 296c0,22 1,37 3,43 2,6 6,11 12,15 6,4 16,6 30,6l8 1 0 9 -191 -2 1 -9 9 0c16,0 27,-2 33,-5 7,-4 11,-9 14,-15 2,-6 4,-21 4,-44l2 -188c0,-16 -1,-27 -2,-31 -2,-4 -5,-8 -9,-11 -5,-3 -10,-4 -15,-5 -9,0 -20,3 -34,9l-4 -10 133 -59 9 0zm240 1l0 296c0,23 1,37 2,43 2,6 6,11 13,15 6,4 16,6 30,6l8 0 0 10 -191 -1 0 -9 10 0c16,0 27,-2 33,-5 7,-4 11,-9 14,-15 2,-6 3,-21 3,-44l1 -188c0,-17 -1,-27 -3,-31 -1,-5 -4,-8 -9,-11 -4,-3 -9,-5 -15,-5 -9,0 -20,3 -33,9l-5 -9 134 -61 8 0zm-1144 -17c12,5 20,13 24,25 5,11 5,22 0,34 -5,11 -13,19 -25,23 -11,5 -22,5 -34,0 -11,-5 -19,-13 -24,-24 -4,-11 -4,-23 1,-34 5,-11 13,-19 24,-24 11,-5 23,-5 34,0zm-260 -201c-7,2 -13,5 -17,8 -5,4 -12,11 -20,21 -7,10 -13,20 -19,32 -6,16 -10,29 -11,41 -1,13 2,22 7,30 5,8 11,14 19,17 12,5 24,5 36,0 12,-5 21,-15 28,-30 14,-32 7,-72 -23,-119zm71 -29c9,-6 18,-13 25,-22 8,-8 14,-19 19,-31 10,-21 12,-39 8,-54 -3,-12 -10,-20 -22,-26 -11,-4 -22,-5 -34,0 -11,4 -19,12 -24,24 -5,12 -6,26 -3,42 2,17 13,39 31,67zm13 20c16,28 25,51 27,69 3,19 0,38 -9,57 -11,27 -32,45 -60,54 -28,10 -59,7 -94,-8 -33,-15 -54,-34 -65,-58 -11,-24 -11,-48 -1,-71 8,-18 20,-31 37,-40 16,-9 38,-13 67,-14 -17,-31 -27,-55 -28,-71 -2,-16 1,-32 8,-49 10,-22 28,-37 54,-46 26,-8 56,-5 88,9 32,14 53,33 63,55 11,22 11,44 2,65 -7,15 -17,27 -32,35 -14,8 -34,12 -57,13zm-296 92l-193 -89 3 -6c92,-43 150,-74 173,-92 24,-19 41,-40 52,-63 8,-17 9,-33 4,-49 -5,-16 -16,-28 -31,-35 -25,-11 -50,-8 -75,11l-7 -8c23,-27 47,-43 71,-50 25,-7 49,-5 72,6 17,8 30,19 40,33 10,14 16,29 17,46 2,17 0,32 -5,44 -10,21 -26,40 -48,57 -31,22 -85,47 -165,75l71 33c17,8 29,13 35,14 6,1 11,0 16,-2 5,-2 13,-7 24,-15l8 4 -62 86z"/>
  </g>
 </g>
</svg>
