<?xml version="1.0" encoding="UTF-8"?>
<!DOCTYPE svg PUBLIC "-//W3C//DTD SVG 1.1//EN" "http://www.w3.org/Graphics/SVG/1.1/DTD/svg11.dtd">
<!-- Creator: CorelDRAW X8 -->
<svg xmlns="http://www.w3.org/2000/svg" xml:space="preserve" width="82.877mm" height="100.25mm" version="1.1" style="shape-rendering:geometricPrecision; text-rendering:geometricPrecision; image-rendering:optimizeQuality; fill-rule:evenodd; clip-rule:evenodd"
viewBox="0 0 8288 10025"
 xmlns:xlink="http://www.w3.org/1999/xlink">
 <defs>
  <style type="text/css">
   <![CDATA[
    .fil5 {fill:#151417}
    .fil0 {fill:#151417}
    .fil11 {fill:#2671E4}
    .fil2 {fill:#3938A5}
    .fil3 {fill:#4A71F7}
    .fil6 {fill:#ADCFEF}
    .fil4 {fill:#F7FF08}
    .fil1 {fill:#F7FF08}
    .fil8 {fill:#FEA59D}
    .fil7 {fill:white}
    .fil10 {fill:white}
    .fil9 {fill:#151417;fill-rule:nonzero}
    .fil15 {fill:#151417;fill-rule:nonzero}
    .fil13 {fill:#2671E4;fill-rule:nonzero}
    .fil12 {fill:#D9270D;fill-rule:nonzero}
    .fil14 {fill:white;fill-rule:nonzero}
   ]]>
  </style>
 </defs>
 <g id="Layer_x0020_1">
  <metadata id="CorelCorpID_0Corel-Layer"/>
  <g id="_1920539623584">
   <path class="fil0" d="M4144 10013c-66,0 -161,-55 -218,-86 -108,-59 -213,-116 -327,-164 -860,-358 -1769,-765 -2451,-1416 -829,-793 -1138,-1782 -1138,-2912 0,-526 113,-1003 332,-1479 88,-192 190,-377 297,-560 94,-162 192,-324 278,-490 49,-93 90,-192 120,-293 44,-151 64,-315 36,-471 -61,-338 -325,-527 -635,-629 -6,-3 -13,-5 -20,-7 3,-7 5,-13 7,-20 152,-486 304,-972 457,-1459 1,-5 3,-10 4,-14 5,0 11,0 16,0 1080,0 2161,0 3242,0 1081,0 2161,0 3242,0 5,0 10,0 15,0 2,4 3,9 5,14 152,487 305,973 457,1459 2,7 4,13 6,20 -6,2 -13,4 -20,7 -309,102 -573,291 -634,629 -46,257 37,537 155,764 87,166 185,328 279,490 106,183 208,368 297,560 219,476 332,953 332,1479 0,1130 -309,2119 -1138,2912 -682,651 -1591,1058 -2452,1416 -114,48 -218,105 -326,164 -57,31 -153,86 -218,86z"/>
   <path class="fil1" d="M4144 9991c-101,0 -275,-139 -536,-247 -1825,-759 -3577,-1642 -3577,-4309 0,-1189 578,-1892 905,-2519 245,-470 335,-1151 -491,-1423 152,-487 304,-973 457,-1459 1080,0 2161,0 3242,0 1081,0 2161,0 3242,0 152,486 305,972 457,1459 -826,272 -736,953 -491,1423 326,627 905,1330 905,2519 0,2667 -1752,3550 -3577,4309 -261,108 -435,247 -536,247z"/>
   <path class="fil2" d="M1189 1853c166,325 124,735 -91,1147 -183,353 -403,677 -571,1041 -207,450 -313,897 -313,1394 0,150 6,298 18,444l7824 0c12,-146 18,-294 18,-444 0,-497 -107,-944 -314,-1394 -167,-364 -387,-688 -571,-1041 -215,-412 -256,-822 -91,-1147l-5909 0z"/>
   <path class="fil3" d="M4144 217c-1036,0 -2072,0 -3108,0 -122,389 -244,778 -365,1167 250,115 420,277 518,469l5909 0c98,-192 269,-354 519,-469 -122,-389 -244,-778 -366,-1167 -1035,0 -2071,0 -3107,0z"/>
   <path class="fil4" d="M1652 3643c78,18 179,-54 233,-107 217,-217 638,-708 690,-768 22,-25 -301,208 -288,185 36,-69 190,-212 331,-352 -65,16 -217,120 -554,396 33,-67 185,-210 291,-341 -10,-1 -988,781 -778,962 -376,349 -539,814 -550,898 -17,134 123,-63 42,171 -44,228 -301,328 -152,926 20,81 69,109 116,109 52,-1 104,-37 140,-106 97,-186 152,-585 47,-893 -25,-56 -37,-63 -37,-135 2,-26 40,-41 58,-12 10,30 19,20 14,72 17,78 74,33 90,-23 201,-413 129,-647 266,-965 1,-6 5,-20 41,-17zm5158 -575c-34,-65 -68,-53 -67,-1 -14,108 61,252 61,373 0,74 27,164 61,222 9,15 82,110 49,134 -34,26 -172,-167 -172,-207 -12,-511 -107,-642 -449,-852 -31,-23 -179,-124 -179,-115 3,41 2,29 31,92 13,30 101,142 110,173 24,118 90,186 115,229 20,32 25,46 12,54 -23,13 -36,-4 -61,-27 -34,-31 -95,-95 -96,-129 -8,-161 -129,-307 -301,-330 -88,3 -233,-62 -285,-64 -18,-1 121,219 122,219 115,145 73,198 302,225 89,11 169,77 228,142 30,33 -6,72 -50,25 -11,-16 -32,-52 -84,-59 -84,-10 -133,-4 -214,-32 -46,-16 -178,-130 -191,-88 -17,65 190,313 403,426 135,72 279,77 323,91 75,23 163,52 216,85 20,13 153,200 117,229 -34,20 -112,-153 -258,-176 -114,-18 -262,-56 -277,-69 0,0 -89,-50 -89,-50 -58,85 316,393 374,531 46,109 79,231 211,328 89,66 189,117 261,150 127,51 175,260 198,323 47,126 107,302 43,295 -61,-7 -111,-247 -150,-308 -87,-122 -331,-321 -464,-415 -74,-51 -75,-60 -40,40 70,202 191,673 199,708 83,360 615,537 916,443 72,-22 90,-143 109,-291 41,-325 -146,-532 -146,-752 0,-267 -120,-468 -196,-593 -8,218 -157,447 -157,672 -24,135 109,405 78,417 -45,23 -96,-100 -139,-232 -32,-98 -101,-266 -53,-363 88,-176 205,-352 137,-647 -30,-133 -143,-195 -272,-387 -124,-183 -241,-386 -286,-439zm-4275 -150c7,-5 13,-8 17,-9 -154,249 -343,426 -495,700 -2,1 -147,329 -148,344 -2,28 -71,166 -75,184 -25,122 -247,403 -395,447 42,-97 75,-196 99,-300 23,-99 36,-199 54,-300 16,-94 36,-182 71,-271 98,8 204,-64 270,-129 104,-104 204,-215 303,-325 101,-113 199,-227 299,-341zm-923 310c296,-407 558,-511 393,-465 -123,34 -655,495 -685,655 -2,11 -25,45 -30,95 -288,349 -595,524 -332,1010 0,-5 0,-11 1,-16 6,-44 26,-100 41,-142 30,-79 66,-156 105,-231 100,-192 229,-374 384,-527 -35,-95 69,-287 123,-379zm-408 2467c161,6 363,-222 372,-376 6,-102 -11,-289 13,-471 6,-32 35,-106 48,-177 16,-91 12,-172 -42,-86 -65,105 -180,186 -274,256 9,42 15,85 18,128 19,207 -8,492 -106,679 -8,16 -18,32 -29,47zm-217 -969c-144,-100 -214,-430 -250,-438 -54,-13 -35,137 -35,198 0,132 -96,407 -126,635 -23,176 72,579 311,592 -16,-24 -28,-53 -36,-83 -48,-193 -74,-402 -12,-595 20,-61 47,-116 78,-173 23,-41 49,-84 66,-128 2,-3 3,-6 4,-8z"/>
   <g>
    <path class="fil5" d="M4127 609c-242,128 -612,508 -744,568 -121,-47 -242,-95 -364,-142 -406,257 -797,501 -1203,759l-655 7c22,38 42,77 58,118l583 7c331,105 629,275 956,386 523,440 861,1144 1369,1522 207,-153 122,-296 309,-522 126,-153 484,-389 653,-533 178,-151 306,-349 474,-490 327,-112 559,-258 890,-363l616 -8c16,-40 36,-79 58,-116l-688 -8c-406,-258 -798,-502 -1204,-759 -121,47 -242,95 -364,142 -131,-60 -502,-440 -744,-568z"/>
    <path class="fil6" d="M4127 3807c58,-45 96,-94 124,-165 21,-51 35,-103 55,-154 29,-70 66,-131 114,-190 86,-103 231,-210 339,-292 105,-79 216,-158 316,-243 175,-148 300,-344 474,-490l3 -3 4 -1c305,-104 582,-265 890,-364l3 0 4 -1 625 -7c11,-25 23,-50 37,-74l-676 -8 -6 0 -6 -4c-397,-252 -797,-500 -1194,-753 -118,46 -236,93 -354,139l-8 3 -9 -4c-56,-26 -128,-87 -177,-127 -81,-68 -160,-137 -241,-205 -95,-79 -207,-171 -317,-231 -109,60 -221,152 -316,231 -81,68 -161,137 -242,205 -48,40 -120,101 -177,127l-8 4 -8 -3c-118,-46 -237,-93 -355,-139 -397,253 -797,501 -1194,753l-5 4 -6 0 -643 7c13,25 26,50 37,75l592 7 3 1 3 0c329,105 631,276 957,387l3 1 3 3c205,172 378,380 542,590 243,312 496,680 814,921z"/>
   </g>
   <g>
    <path class="fil5" d="M3508 1331c-2,31 -85,48 -116,61 -52,23 -71,57 -131,100 -122,-153 -189,-230 -249,-305 94,-61 130,-82 154,-95l116 46c-7,2 -49,19 -121,48 -3,1 -10,5 2,5 27,0 78,2 79,5 10,22 28,37 60,37 54,0 178,57 206,98z"/>
    <path class="fil7" d="M3483 1334c-36,-36 -140,-80 -181,-80 -33,0 -58,-13 -74,-40 -19,-2 -49,-1 -65,-2 -33,0 -38,-35 -10,-46 22,-9 46,-19 70,-29l-55 -22c-42,23 -85,51 -125,77 72,91 149,180 222,271 39,-32 72,-70 118,-90 15,-7 82,-25 100,-39z"/>
   </g>
   <g>
    <path class="fil5" d="M4746 1331c2,31 86,48 117,61 51,23 70,57 130,100 123,-153 190,-230 249,-305 -94,-61 -129,-82 -154,-95l-116 46c8,2 49,19 122,48 3,1 9,5 -2,5 -28,0 -79,2 -80,5 -10,22 -28,37 -59,37 -54,0 -178,57 -207,98z"/>
    <path class="fil7" d="M4772 1334c36,-36 140,-80 181,-80 32,0 58,-13 73,-40 19,-2 50,-1 66,-2 33,0 37,-35 10,-46 -22,-9 -46,-19 -70,-29l55 -22c42,23 84,51 125,77 -73,91 -149,180 -222,271 -39,-32 -72,-70 -119,-90 -14,-7 -81,-25 -99,-39z"/>
   </g>
   <g>
    <polygon class="fil4" points="4185,2570 4466,2570 4466,2687 4185,2687 4185,3212 4068,3212 4068,2687 3787,2687 3787,2570 4068,2570 4068,2272 4185,2272 "/>
    <polygon class="fil0" points="4164,2592 4445,2592 4445,2666 4164,2666 4164,3191 4089,3191 4089,2666 3808,2666 3808,2592 4089,2592 4089,2294 4164,2294 "/>
   </g>
   <ellipse class="fil0" cx="4126" cy="4120" rx="1107" ry="956"/>
   <ellipse class="fil8" cx="4126" cy="4120" rx="1071" ry="921"/>
   <path class="fil9" d="M3816 4082c32,-41 72,-76 117,-102 57,-32 123,-51 193,-51 76,0 147,22 207,60 46,28 86,67 117,112 24,-44 58,-82 99,-110 54,-39 120,-62 192,-62 45,0 88,9 127,26 32,13 61,30 86,52 61,-68 128,-105 197,-117 82,-14 167,9 245,62l13 8 0 1919 -2565 0 0 -1919 13 -8c82,-55 171,-77 256,-60 71,14 138,55 196,127 27,-24 57,-45 90,-60 42,-19 89,-30 138,-30 66,0 127,20 179,53 40,26 74,60 100,100zm145 -53c-51,29 -93,71 -123,121l-28 46 -22 -49c-22,-48 -58,-89 -102,-118 -43,-27 -95,-43 -149,-43 -41,0 -80,8 -115,24 -36,17 -68,41 -94,71l-23 26 -21 -29c-54,-76 -117,-118 -182,-131 -66,-13 -135,3 -202,44l0 1852 2452 0 0 -1853c-63,-39 -128,-56 -192,-45 -62,11 -124,49 -181,120l-20 24 -22 -22c-26,-26 -56,-46 -90,-60 -33,-14 -69,-21 -106,-21 -60,0 -115,18 -160,50 -46,33 -82,80 -101,135l-22 63 -30 -60c-28,-57 -71,-104 -124,-138 -52,-32 -113,-50 -178,-50 -60,0 -116,15 -165,43z"/>
   <path class="fil10" d="M2879 3979l0 1864 2495 0 0 -1864c-65,-42 -140,-68 -217,-54 -71,12 -129,53 -177,105l-22 26 -26 -22c-23,-19 -49,-35 -77,-47 -36,-15 -75,-23 -114,-23 -62,0 -122,20 -172,55 -36,26 -67,60 -88,99l-28 50 -32 -47c-28,-41 -64,-76 -106,-103 -57,-35 -122,-54 -189,-54 -61,0 -122,16 -175,47 -42,23 -78,55 -107,93l-30 39 -27 -42c-23,-36 -54,-66 -90,-89 -48,-31 -103,-48 -160,-48 -43,0 -85,10 -123,27 -30,14 -57,32 -80,54l-28 26 -24 -30c-45,-56 -104,-100 -176,-115 -80,-16 -159,9 -227,53z"/>
   <path class="fil11" d="M3394 5776l285 0 0 -1570c0,-79 -64,-143 -142,-143l0 0c-79,0 -143,64 -143,143l0 1570zm-388 0l198 0 0 -1584c0,-88 -72,-160 -159,-160l0 0c-14,0 -27,2 -39,5l0 1739zm2042 0l199 0 0 -1739c-13,-3 -26,-5 -39,-5l0 0c-88,0 -160,72 -160,160l0 1584zm-450 0l286 0 0 -1570c0,-79 -65,-143 -143,-143l0 0c-79,0 -143,64 -143,143l0 1570zm-673 0l403 0 0 -1511c0,-111 -91,-202 -202,-202l0 0c-111,0 -201,91 -201,202l0 1511z"/>
   <path class="fil2" d="M247 6037c96,824 405,1553 1042,2162 660,631 1555,1029 2389,1376 112,47 217,102 323,161 161,88 124,88 285,0 107,-59 212,-114 324,-161 834,-347 1728,-745 2389,-1376 637,-609 946,-1338 1041,-2162l-7793 0z"/>
   <path class="fil0" d="M1880 6406c102,-12 226,-54 325,-85 149,-45 358,-115 513,-115 104,0 208,34 306,66 90,29 191,63 286,63l1668 0c95,0 196,-34 285,-63 99,-32 202,-66 307,-66 154,0 364,70 512,115 99,31 224,73 326,85l14 2 -24 186 -13 -1c-116,-14 -250,-59 -362,-93 -125,-38 -325,-106 -453,-106 -78,0 -170,32 -244,56 -114,37 -226,80 -348,80l-1668 0c-122,0 -234,-43 -348,-80 -74,-24 -166,-56 -244,-56 -128,0 -329,68 -453,106 -112,34 -246,79 -362,93l-14 1 -24 -186 15 -2z"/>
   <path class="fil12" d="M1881 6420c79,-9 200,-46 328,-85 182,-55 375,-114 509,-114 100,0 199,32 302,65 96,31 196,63 290,63l834 0 834 0c94,0 194,-32 290,-63 102,-33 202,-65 302,-65 134,0 327,59 508,114 128,39 250,76 329,85l-21 159c-92,-11 -222,-51 -359,-93 -168,-51 -348,-106 -457,-106 -74,0 -159,28 -248,56 -110,36 -223,80 -344,80l-834 0 -834 0c-121,0 -235,-44 -344,-80 -89,-28 -175,-56 -248,-56 -109,0 -289,55 -457,106 -137,42 -267,82 -359,93l-21 -159z"/>
   <path class="fil0" d="M1880 6582c102,-12 226,-55 325,-85 149,-46 358,-115 513,-115 104,0 208,34 306,66 90,29 191,62 286,62l1668 0c95,0 196,-33 285,-62 99,-32 202,-66 307,-66 154,0 364,69 512,115 99,30 224,73 326,85l14 2 -24 186 -13 -2c-116,-14 -250,-59 -362,-93 -125,-38 -325,-105 -453,-105 -78,0 -170,31 -244,55 -114,37 -226,81 -348,81l-1668 0c-122,0 -234,-44 -348,-81 -74,-24 -166,-55 -244,-55 -128,0 -329,67 -453,105 -112,34 -246,79 -362,93l-14 2 -24 -186 15 -2z"/>
   <path class="fil13" d="M1881 6596c79,-9 200,-47 328,-86 182,-55 375,-114 509,-114 100,0 199,32 302,65 96,31 196,63 290,63l834 0 834 0c94,0 194,-32 290,-63 102,-33 202,-65 302,-65 134,0 327,59 508,114 128,39 250,77 329,86l-21 158c-92,-11 -222,-50 -359,-92 -168,-52 -348,-106 -457,-106 -74,0 -159,27 -248,56 -110,35 -223,80 -344,80l-834 0 -834 0c-121,0 -235,-45 -344,-80 -89,-29 -175,-56 -248,-56 -109,0 -289,54 -457,106 -137,42 -267,81 -359,92l-21 -158z"/>
   <path class="fil0" d="M1880 6757c102,-12 226,-54 325,-85 149,-45 358,-115 513,-115 104,0 208,34 306,66 90,29 191,63 286,63l1668 0c95,0 196,-34 285,-63 99,-32 202,-66 307,-66 154,0 364,70 512,115 99,31 224,73 326,85l14 2 -24 186 -13 -1c-116,-14 -250,-59 -362,-93 -125,-38 -325,-106 -453,-106 -78,0 -170,32 -244,56 -114,36 -227,72 -348,72l-1668 0c-121,0 -235,-36 -348,-72 -74,-24 -166,-56 -244,-56 -128,0 -329,68 -453,106 -112,34 -246,79 -362,93l-14 1 -24 -186 15 -2z"/>
   <path class="fil14" d="M1881 6771c79,-9 200,-46 328,-85 182,-55 375,-115 509,-115 100,0 199,32 302,66 96,31 196,63 290,63l834 0 834 0c94,0 194,-32 290,-63 102,-34 202,-66 302,-66 134,0 327,60 508,115 128,39 250,76 329,85l-21 159c-92,-11 -222,-51 -359,-93 -168,-51 -348,-106 -457,-106 -73,0 -159,28 -248,56 -110,36 -223,72 -344,72l-834 0 -834 0c-121,0 -235,-36 -344,-72 -89,-28 -175,-56 -248,-56 -109,0 -289,55 -457,106 -137,42 -267,82 -359,93l-21 -159z"/>
   <path class="fil0" d="M7735 6037c-32,263 -93,517 -181,759l-312 -93c-71,194 -161,380 -267,555l276 171c-145,238 -318,459 -515,657l-246 -211c-141,141 -296,270 -462,384l146 290c-170,112 -349,211 -537,295l-420 -1073c-12,-31 -26,-61 -41,-92 654,-314 1137,-919 1273,-1642l1286 0zm-5897 0c137,723 620,1328 1274,1642 -16,31 -29,61 -41,92l-420 1073c-188,-84 -368,-183 -537,-295l146 -290c-166,-114 -321,-243 -463,-384l-245 211c-197,-198 -370,-418 -516,-657l276 -171c-105,-175 -195,-361 -266,-555l-313 93c-87,-242 -148,-496 -180,-759l1285 0z"/>
   <path class="fil8" d="M743 6776l313 -93 5 14c70,193 159,378 265,553l8 13 -276 171c141,228 307,440 495,631l245 -212 11 11c141,141 295,269 460,382l12 8 -146 289c161,107 331,200 507,280l414 -1058c10,-26 22,-53 34,-78 -660,-323 -1127,-929 -1265,-1634l-1254 0c31,246 89,489 172,723zm5719 -723c-138,705 -605,1311 -1264,1634 12,25 24,52 34,78l413 1058c177,-80 347,-173 508,-280l-146 -289 12 -8c164,-113 319,-241 460,-382l10 -11 246 212c188,-191 354,-403 494,-631l-276 -171 9 -13c106,-175 195,-360 265,-553l5 -14 312 93c84,-234 141,-477 173,-723l-1255 0z"/>
   <path class="fil15" d="M7299 6037c-100,665 -426,1260 -901,1713 -271,259 -591,472 -945,624l-14 -34c350,-151 666,-361 934,-616 467,-447 788,-1033 889,-1687l37 0zm-6273 0c100,654 422,1240 889,1687 268,255 584,465 933,616l-13 34c-354,-152 -674,-365 -945,-624 -475,-453 -801,-1048 -902,-1713l38 0zm5960 0c-98,583 -388,1105 -807,1505 -240,229 -522,418 -835,555l-13 -35c308,-135 586,-321 823,-547 411,-393 697,-905 795,-1478l37 0zm-5647 0c98,573 384,1085 795,1478 237,226 515,412 823,547l-14 35c-312,-137 -595,-326 -835,-555 -418,-400 -708,-922 -807,-1505l38 0z"/>
   <path class="fil0" d="M5024 6857l502 1152c-59,31 -120,61 -182,88l-4 -12 -123 -314c-163,-417 -619,-760 -1073,-760 -454,0 -911,343 -1073,760l-121 309 -7 17c-62,-27 -122,-57 -182,-88l503 -1152 1760 0z"/>
   <path class="fil4" d="M3273 6871l-484 1111c51,26 102,51 155,74l113 -290c165,-423 627,-769 1087,-769 459,0 921,346 1086,769l114 290c52,-23 104,-48 155,-74l-484 -1111 -1742 0z"/>
   <path class="fil15" d="M1530 6720l449 -203 22 48 -450 203 -21 -48zm5228 0l-449 -203 -22 48 449 203 22 -48zm-687 892l-296 -335 -40 35 296 336 40 -36zm-3854 0l295 -335 40 35 -295 336 -40 -36z"/>
   <g>
    <polygon class="fil0" points="4066,7326 4184,7442 4296,7332 4215,7250 4332,7134 4538,7342 4533,7572 4412,7449 4302,7558 4490,7745 4375,7862 4184,7674 3994,7862 3878,7745 4067,7558 3950,7443 3868,7527 3750,7411 4023,7134 4141,7250 "/>
    <polygon class="fil4" points="4121,7250 4024,7154 3770,7411 3867,7507 3950,7423 4087,7558 3898,7745 3994,7842 4184,7654 4375,7842 4470,7745 4282,7558 4412,7429 4520,7538 4524,7347 4332,7154 4235,7250 4316,7332 4184,7462 4046,7326 "/>
   </g>
   <g>
    <path class="fil0" d="M4144 8036c-129,0 -411,-189 -854,-304 -147,399 -294,799 -440,1199 286,35 624,93 890,203 169,70 251,139 404,139 153,0 235,-69 403,-139 267,-110 605,-168 891,-203 -147,-400 -294,-800 -440,-1199 -443,115 -725,304 -854,304z"/>
    <path class="fil10" d="M2869 8919c288,36 609,91 877,202 132,55 250,138 398,138 148,0 266,-83 398,-138 267,-111 589,-166 877,-202 -144,-390 -287,-780 -430,-1171 -184,49 -356,116 -531,192 -75,33 -234,110 -314,110 -81,0 -239,-77 -315,-110 -174,-76 -346,-143 -530,-192 -143,391 -287,781 -430,1171z"/>
   </g>
   <path class="fil15" d="M5089 8710l-210 0c3,-33 10,-64 22,-93 12,-29 35,-64 69,-103 20,-25 33,-43 39,-56 6,-13 9,-25 9,-36 0,-12 -3,-23 -9,-31 -5,-9 -13,-13 -21,-13 -9,0 -16,4 -22,13 -6,9 -10,25 -12,48l-69 -9c2,-32 7,-56 15,-74 7,-18 17,-31 31,-41 13,-9 31,-14 55,-14 25,0 44,5 57,14 14,8 25,22 33,41 7,18 11,39 11,62 0,25 -4,48 -13,71 -9,22 -25,46 -49,73 -14,16 -24,27 -28,33 -5,6 -11,14 -17,24l109 0 0 91zm-280 -409l0 409 -71 0 0 -267c-12,13 -23,25 -33,33 -11,9 -25,17 -41,25l0 -91c24,-13 43,-28 56,-45 13,-17 23,-39 31,-64l58 0zm-261 140c0,-22 -4,-39 -11,-52 -7,-12 -15,-18 -25,-18 -9,0 -17,5 -23,17 -6,11 -9,27 -9,50 0,22 3,40 9,52 7,11 15,17 24,17 10,0 18,-5 25,-17 6,-11 10,-28 10,-49zm-129 179l69 -14c2,16 5,27 9,33 5,6 10,10 16,10 12,0 20,-9 27,-28 4,-13 8,-41 10,-84 -8,14 -17,24 -26,30 -8,6 -19,10 -30,10 -23,0 -42,-13 -57,-39 -16,-26 -24,-58 -24,-97 0,-27 4,-51 12,-73 8,-22 19,-39 33,-50 14,-11 31,-17 52,-17 25,0 45,7 61,21 15,14 27,36 36,66 9,30 14,69 14,119 0,73 -10,126 -29,160 -19,33 -46,50 -79,50 -21,0 -36,-3 -48,-11 -11,-7 -21,-18 -29,-32 -7,-15 -13,-32 -17,-54zm-80 -319l0 409 -70 0 0 -267c-12,13 -23,25 -33,33 -11,9 -25,17 -41,25l0 -91c24,-13 43,-28 56,-45 13,-17 23,-39 31,-64l57 0zm-555 7l86 0 44 124 44 -124 85 0 -79 195 86 207 -88 0 -49 -129 -50 129 -87 0 87 -209 -79 -193zm-104 291l75 0 0 111 -75 0 0 -111zm-172 -91c0,51 2,86 8,105 6,18 14,28 25,28 7,0 13,-4 18,-12 5,-8 9,-21 12,-38 2,-17 3,-44 3,-80 0,-54 -2,-90 -8,-108 -6,-19 -14,-28 -26,-28 -11,0 -19,10 -25,28 -5,19 -7,54 -7,105zm-70 -1c0,-76 9,-130 26,-160 17,-31 44,-46 79,-46 17,0 31,3 42,10 11,7 19,15 26,26 7,11 13,22 16,34 4,12 8,25 10,41 5,30 7,62 7,94 0,73 -8,127 -23,160 -16,34 -42,51 -80,51 -21,0 -38,-5 -51,-16 -13,-11 -24,-27 -32,-48 -6,-14 -11,-35 -15,-60 -3,-26 -5,-54 -5,-86zm-30 203l-209 0c2,-33 9,-64 21,-93 13,-29 36,-64 69,-103 21,-25 34,-43 39,-56 6,-13 9,-25 9,-36 0,-12 -3,-23 -8,-31 -6,-9 -13,-13 -22,-13 -9,0 -16,4 -22,13 -5,9 -9,25 -11,48l-70 -9c3,-32 8,-56 15,-74 7,-18 18,-31 31,-41 13,-9 32,-14 55,-14 25,0 44,5 58,14 13,8 24,22 32,41 8,18 12,39 12,62 0,25 -5,48 -14,71 -9,22 -25,46 -49,73 -14,16 -23,27 -28,33 -5,6 -10,14 -17,24l109 0 0 91zm680 -111l75 0 0 111 -75 0 0 -111z"/>
   <path class="fil0" d="M4144 9807c38,-12 113,-55 142,-71 107,-59 212,-114 324,-161 834,-347 1728,-745 2389,-1376 637,-609 946,-1338 1041,-2162l-7793 0c96,824 405,1553 1042,2162 660,631 1555,1029 2389,1376 112,47 217,102 323,161 30,16 105,59 143,71zm0 -22c41,-14 95,-48 132,-68 107,-58 214,-115 326,-162 833,-346 1722,-740 2382,-1371 613,-586 932,-1294 1033,-2126l-7746 0c101,832 420,1540 1033,2126 659,631 1549,1025 2382,1371 112,47 219,104 325,162 38,20 92,54 133,68zm3448 -8412c-119,-378 -238,-757 -356,-1135 -1031,0 -2061,0 -3092,0 -1031,0 -2062,0 -3092,0 -119,378 -237,757 -356,1135 691,326 751,1005 421,1637 -183,351 -405,680 -571,1040 -205,445 -311,893 -311,1385 0,141 5,282 16,422l7786 0c11,-140 15,-281 15,-422 0,-492 -106,-940 -311,-1385 -165,-360 -388,-689 -570,-1040 -330,-632 -270,-1311 421,-1637zm464 4506c12,-146 18,-294 18,-444 0,-497 -107,-944 -314,-1394 -167,-364 -387,-688 -571,-1041 -342,-656 -244,-1308 428,-1616 -122,-389 -244,-778 -366,-1167 -1035,0 -2071,0 -3107,0 -1036,0 -2072,0 -3108,0 -122,389 -244,778 -365,1167 672,308 770,960 427,1616 -183,353 -403,677 -571,1041 -207,450 -313,897 -313,1394 0,150 6,298 18,444l7824 0z"/>
  </g>
 </g>
</svg>
